<?xml version="1.0" encoding="UTF-8" standalone="no"?>
<!DOCTYPE svg PUBLIC "-//W3C//DTD SVG 1.1//EN"
 "http://www.w3.org/Graphics/SVG/1.1/DTD/svg11.dtd">
<!-- Generated by graphviz version 2.40.1 (20161225.0304)
 -->
<!-- Title: BerdyHelper.h Pages: 1 -->
<svg width="2612pt" height="643pt"
 viewBox="0.00 0.00 2612.00 643.00" xmlns="http://www.w3.org/2000/svg" xmlns:xlink="http://www.w3.org/1999/xlink">
<g id="graph0" class="graph" transform="scale(1 1) rotate(0) translate(4 639)">
<title>BerdyHelper.h</title>
<!-- Node0 -->
<g id="node1" class="node">
<title>Node0</title>
<polygon fill="#bfbfbf" stroke="#000000" points="1360.5,-615.5 1360.5,-634.5 1446.5,-634.5 1446.5,-615.5 1360.5,-615.5"/>
<text text-anchor="middle" x="1403.5" y="-622.5" font-family="FreeSans.ttf" font-size="10.00" fill="#000000">BerdyHelper.h</text>
</g>
<!-- Node1 -->
<g id="node2" class="node">
<title>Node1</title>
<g id="a_node2"><a xlink:href="Direction_8h.html" target="_top" xlink:title="iDynTree/Core/Direction.h">
<polygon fill="none" stroke="#000000" points="551,-241 551,-260 692,-260 692,-241 551,-241"/>
<text text-anchor="middle" x="621.5" y="-248" font-family="FreeSans.ttf" font-size="10.00" fill="#000000">iDynTree/Core/Direction.h</text>
</a>
</g>
</g>
<!-- Node0&#45;&gt;Node1 -->
<g id="edge1" class="edge">
<title>Node0&#45;&gt;Node1</title>
<path fill="none" stroke="#191970" d="M1360.3165,-624.4337C1169.5034,-621.76 409.6394,-609.243 369.5,-579 342.7282,-558.8289 345.5,-541.0202 345.5,-507.5 345.5,-507.5 345.5,-507.5 345.5,-440.5 345.5,-334.9232 484.2152,-283.5486 564.965,-262.5863"/>
<polygon fill="#191970" stroke="#191970" points="566.1496,-265.8974 574.9925,-260.0617 564.4405,-259.1092 566.1496,-265.8974"/>
</g>
<!-- Node3 -->
<g id="node4" class="node">
<title>Node3</title>
<g id="a_node4"><a xlink:href="VectorFixSize_8h.html" target="_top" xlink:title="iDynTree/Core/VectorFixSize.h">
<polygon fill="none" stroke="#000000" points="710,-174 710,-193 871,-193 871,-174 710,-174"/>
<text text-anchor="middle" x="790.5" y="-181" font-family="FreeSans.ttf" font-size="10.00" fill="#000000">iDynTree/Core/VectorFixSize.h</text>
</a>
</g>
</g>
<!-- Node0&#45;&gt;Node3 -->
<g id="edge48" class="edge">
<title>Node0&#45;&gt;Node3</title>
<path fill="none" stroke="#191970" d="M1360.3389,-624.2526C1204.3969,-621.3143 675.6888,-609.2005 606.5,-579 534.191,-547.4375 509.4171,-528.5873 478.5,-456 444.1085,-375.2555 567.8131,-317.9126 592.5,-302 635.0274,-274.5879 656.8924,-291.6589 700.5,-266 730.6003,-248.2889 759.2362,-219.2012 775.824,-200.7179"/>
<polygon fill="#191970" stroke="#191970" points="778.5891,-202.8734 782.5596,-193.0507 773.3302,-198.2535 778.5891,-202.8734"/>
</g>
<!-- Node4 -->
<g id="node5" class="node">
<title>Node4</title>
<g id="a_node5"><a xlink:href="Utils_8h.html" target="_top" xlink:title="iDynTree/Core/Utils.h">
<polygon fill="none" stroke="#000000" points="618,-56.5 618,-75.5 737,-75.5 737,-56.5 618,-56.5"/>
<text text-anchor="middle" x="677.5" y="-63.5" font-family="FreeSans.ttf" font-size="10.00" fill="#000000">iDynTree/Core/Utils.h</text>
</a>
</g>
</g>
<!-- Node0&#45;&gt;Node4 -->
<g id="edge49" class="edge">
<title>Node0&#45;&gt;Node4</title>
<path fill="none" stroke="#191970" d="M1360.2279,-624.1974C1198.6722,-620.9879 636.2391,-607.8317 561.5,-579 524.6512,-564.785 515.121,-555.3758 492.5,-523 426.6354,-428.7325 470.0994,-169.4209 470.5,-168 478.4003,-139.9752 481.1891,-129.4472 504.5,-112 522.0638,-98.8543 572.8716,-86.2175 614.914,-77.5265"/>
<polygon fill="#191970" stroke="#191970" points="615.7303,-80.9323 624.8349,-75.5141 614.3386,-74.072 615.7303,-80.9323"/>
</g>
<!-- Node17 -->
<g id="node18" class="node">
<title>Node17</title>
<g id="a_node18"><a xlink:href="Position_8h.html" target="_top" xlink:title="iDynTree/Core/Position.h">
<polygon fill="none" stroke="#000000" points="1653.5,-308 1653.5,-327 1789.5,-327 1789.5,-308 1653.5,-308"/>
<text text-anchor="middle" x="1721.5" y="-315" font-family="FreeSans.ttf" font-size="10.00" fill="#000000">iDynTree/Core/Position.h</text>
</a>
</g>
</g>
<!-- Node0&#45;&gt;Node17 -->
<g id="edge21" class="edge">
<title>Node0&#45;&gt;Node17</title>
<path fill="none" stroke="#191970" d="M1446.7266,-624.567C1639.2813,-622.0785 2409.5,-605.9704 2409.5,-507.5 2409.5,-507.5 2409.5,-507.5 2409.5,-440.5 2409.5,-379.1636 1980.29,-337.9857 1799.8869,-323.387"/>
<polygon fill="#191970" stroke="#191970" points="1799.9148,-319.8781 1789.6669,-322.5669 1799.3548,-326.8556 1799.9148,-319.8781"/>
</g>
<!-- Node25 -->
<g id="node26" class="node">
<title>Node25</title>
<g id="a_node26"><a xlink:href="MatrixDynSize_8h.html" target="_top" xlink:title="iDynTree/Core/MatrixDynSize.h">
<polygon fill="none" stroke="#000000" points="2437,-559.5 2437,-578.5 2604,-578.5 2604,-559.5 2437,-559.5"/>
<text text-anchor="middle" x="2520.5" y="-566.5" font-family="FreeSans.ttf" font-size="10.00" fill="#000000">iDynTree/Core/MatrixDynSize.h</text>
</a>
</g>
</g>
<!-- Node0&#45;&gt;Node25 -->
<g id="edge43" class="edge">
<title>Node0&#45;&gt;Node25</title>
<path fill="none" stroke="#191970" d="M1446.8007,-623.9407C1587.6717,-620.3032 2045.6338,-606.9748 2423.5,-579 2424.5974,-578.9188 2425.7016,-578.8352 2426.8116,-578.7495"/>
<polygon fill="#191970" stroke="#191970" points="2427.2459,-582.2258 2436.9283,-577.9245 2426.6769,-575.2489 2427.2459,-582.2258"/>
</g>
<!-- Node26 -->
<g id="node27" class="node">
<title>Node26</title>
<g id="a_node27"><a xlink:href="VectorDynSize_8h.html" target="_top" xlink:title="iDynTree/Core/VectorDynSize.h">
<polygon fill="none" stroke="#000000" points="564,-369.5 564,-388.5 731,-388.5 731,-369.5 564,-369.5"/>
<text text-anchor="middle" x="647.5" y="-376.5" font-family="FreeSans.ttf" font-size="10.00" fill="#000000">iDynTree/Core/VectorDynSize.h</text>
</a>
</g>
</g>
<!-- Node0&#45;&gt;Node26 -->
<g id="edge45" class="edge">
<title>Node0&#45;&gt;Node26</title>
<path fill="none" stroke="#191970" d="M1360.4887,-620.91C1234.5596,-608.5116 868.6088,-569.3442 758.5,-523 712.5382,-503.6549 696.5976,-497.1976 668.5,-456 656.828,-438.8862 651.6268,-415.5008 649.3192,-399.0054"/>
<polygon fill="#191970" stroke="#191970" points="652.7699,-398.3776 648.14,-388.848 645.8166,-399.1849 652.7699,-398.3776"/>
</g>
<!-- Node27 -->
<g id="node28" class="node">
<title>Node27</title>
<g id="a_node28"><a xlink:href="Triplets_8h.html" target="_top" xlink:title="iDynTree/Core/Triplets.h">
<polygon fill="none" stroke="#000000" points="487.5,-431 487.5,-450 619.5,-450 619.5,-431 487.5,-431"/>
<text text-anchor="middle" x="553.5" y="-438" font-family="FreeSans.ttf" font-size="10.00" fill="#000000">iDynTree/Core/Triplets.h</text>
</a>
</g>
</g>
<!-- Node0&#45;&gt;Node27 -->
<g id="edge50" class="edge">
<title>Node0&#45;&gt;Node27</title>
<path fill="none" stroke="#191970" d="M1360.432,-624.7864C1207.3589,-623.7073 695.4166,-617.246 633.5,-579 589.5436,-551.8481 567.223,-491.0022 558.308,-459.7833"/>
<polygon fill="#191970" stroke="#191970" points="561.6758,-458.8291 555.7002,-450.0802 554.9157,-460.6459 561.6758,-458.8291"/>
</g>
<!-- Node28 -->
<g id="node29" class="node">
<title>Node28</title>
<polygon fill="none" stroke="#bfbfbf" points="1591,-369.5 1591,-388.5 1638,-388.5 1638,-369.5 1591,-369.5"/>
<text text-anchor="middle" x="1614.5" y="-376.5" font-family="FreeSans.ttf" font-size="10.00" fill="#000000">vector</text>
</g>
<!-- Node0&#45;&gt;Node28 -->
<g id="edge118" class="edge">
<title>Node0&#45;&gt;Node28</title>
<path fill="none" stroke="#191970" d="M1446.6457,-619.2313C1474.8139,-613.4134 1510.6547,-601.8457 1534.5,-579 1561.8166,-552.8285 1595.923,-443.1073 1609.0256,-398.2423"/>
<polygon fill="#191970" stroke="#191970" points="1612.4125,-399.129 1611.8227,-388.5506 1605.687,-397.1879 1612.4125,-399.129"/>
</g>
<!-- Node29 -->
<g id="node30" class="node">
<title>Node29</title>
<g id="a_node30"><a xlink:href="Indices_8h.html" target="_top" xlink:title="iDynTree/Model/Indices.h">
<polygon fill="none" stroke="#000000" points="1843.5,-369.5 1843.5,-388.5 1981.5,-388.5 1981.5,-369.5 1843.5,-369.5"/>
<text text-anchor="middle" x="1912.5" y="-376.5" font-family="FreeSans.ttf" font-size="10.00" fill="#000000">iDynTree/Model/Indices.h</text>
</a>
</g>
</g>
<!-- Node0&#45;&gt;Node29 -->
<g id="edge55" class="edge">
<title>Node0&#45;&gt;Node29</title>
<path fill="none" stroke="#191970" d="M1446.6672,-624.2384C1612.8218,-620.2848 2207.1219,-596.3852 2314.5,-456 2322.8705,-445.0564 2323.6719,-435.2812 2314.5,-425 2293.4416,-401.3945 2102.9948,-388.2339 1991.9554,-382.5063"/>
<polygon fill="#191970" stroke="#191970" points="1991.96,-379.0022 1981.7957,-381.9915 1991.6057,-385.9932 1991.96,-379.0022"/>
</g>
<!-- Node30 -->
<g id="node31" class="node">
<title>Node30</title>
<g id="a_node31"><a xlink:href="LinkState_8h.html" target="_top" xlink:title="iDynTree/Model/LinkState.h">
<polygon fill="none" stroke="#000000" points="997,-431 997,-450 1146,-450 1146,-431 997,-431"/>
<text text-anchor="middle" x="1071.5" y="-438" font-family="FreeSans.ttf" font-size="10.00" fill="#000000">iDynTree/Model/LinkState.h</text>
</a>
</g>
</g>
<!-- Node0&#45;&gt;Node30 -->
<g id="edge57" class="edge">
<title>Node0&#45;&gt;Node30</title>
<path fill="none" stroke="#191970" d="M1386.1177,-615.3402C1331.436,-584.9524 1162.702,-491.1831 1097.546,-454.9743"/>
<polygon fill="#191970" stroke="#191970" points="1099.1514,-451.8624 1088.7102,-450.0641 1095.7511,-457.9811 1099.1514,-451.8624"/>
</g>
<!-- Node50 -->
<g id="node41" class="node">
<title>Node50</title>
<g id="a_node41"><a xlink:href="Traversal_8h.html" target="_top" xlink:title="iDynTree/Model/Traversal.h">
<polygon fill="none" stroke="#000000" points="1937.5,-431 1937.5,-450 2085.5,-450 2085.5,-431 1937.5,-431"/>
<text text-anchor="middle" x="2011.5" y="-438" font-family="FreeSans.ttf" font-size="10.00" fill="#000000">iDynTree/Model/Traversal.h</text>
</a>
</g>
</g>
<!-- Node0&#45;&gt;Node50 -->
<g id="edge80" class="edge">
<title>Node0&#45;&gt;Node50</title>
<path fill="none" stroke="#191970" d="M1446.5536,-615.9577C1486.0579,-607.3855 1546.0714,-593.6675 1597.5,-579 1739.2141,-538.5829 1904.4838,-479.6642 1975.7761,-453.6642"/>
<polygon fill="#191970" stroke="#191970" points="1977.4085,-456.794 1985.5987,-450.0731 1975.0049,-450.2196 1977.4085,-456.794"/>
</g>
<!-- Node51 -->
<g id="node42" class="node">
<title>Node51</title>
<g id="a_node42"><a xlink:href="FreeFloatingState_8h.html" target="_top" xlink:title="iDynTree/Model/FreeFloating\lState.h">
<polygon fill="none" stroke="#000000" points="939.5,-492.5 939.5,-522.5 1093.5,-522.5 1093.5,-492.5 939.5,-492.5"/>
<text text-anchor="start" x="947.5" y="-510.5" font-family="FreeSans.ttf" font-size="10.00" fill="#000000">iDynTree/Model/FreeFloating</text>
<text text-anchor="middle" x="1016.5" y="-499.5" font-family="FreeSans.ttf" font-size="10.00" fill="#000000">State.h</text>
</a>
</g>
</g>
<!-- Node0&#45;&gt;Node51 -->
<g id="edge83" class="edge">
<title>Node0&#45;&gt;Node51</title>
<path fill="none" stroke="#191970" d="M1360.4674,-617.0813C1319.246,-609.0558 1255.507,-595.4908 1201.5,-579 1152.3749,-563.9999 1097.686,-542.2041 1060.5969,-526.6253"/>
<polygon fill="#191970" stroke="#191970" points="1061.6657,-523.2773 1051.092,-522.6071 1058.9399,-529.7248 1061.6657,-523.2773"/>
</g>
<!-- Node53 -->
<g id="node44" class="node">
<title>Node53</title>
<g id="a_node44"><a xlink:href="Sensors_8h.html" target="_top" xlink:title="iDynTree/Sensors/Sensors.h">
<polygon fill="none" stroke="#000000" points="1375,-559.5 1375,-578.5 1526,-578.5 1526,-559.5 1375,-559.5"/>
<text text-anchor="middle" x="1450.5" y="-566.5" font-family="FreeSans.ttf" font-size="10.00" fill="#000000">iDynTree/Sensors/Sensors.h</text>
</a>
</g>
</g>
<!-- Node0&#45;&gt;Node53 -->
<g id="edge95" class="edge">
<title>Node0&#45;&gt;Node53</title>
<path fill="none" stroke="#191970" d="M1411.6868,-615.2455C1418.3589,-607.2958 1427.9479,-595.8706 1435.9253,-586.3656"/>
<polygon fill="#191970" stroke="#191970" points="1438.6592,-588.5525 1442.407,-578.6427 1433.2974,-584.0524 1438.6592,-588.5525"/>
</g>
<!-- Node63 -->
<g id="node50" class="node">
<title>Node63</title>
<g id="a_node50"><a xlink:href="LinkTraversalsCache_8h.html" target="_top" xlink:title="iDynTree/Model/LinkTraversals\lCache.h">
<polygon fill="none" stroke="#000000" points="2141.5,-425.5 2141.5,-455.5 2305.5,-455.5 2305.5,-425.5 2141.5,-425.5"/>
<text text-anchor="start" x="2149.5" y="-443.5" font-family="FreeSans.ttf" font-size="10.00" fill="#000000">iDynTree/Model/LinkTraversals</text>
<text text-anchor="middle" x="2223.5" y="-432.5" font-family="FreeSans.ttf" font-size="10.00" fill="#000000">Cache.h</text>
</a>
</g>
</g>
<!-- Node0&#45;&gt;Node63 -->
<g id="edge115" class="edge">
<title>Node0&#45;&gt;Node63</title>
<path fill="none" stroke="#191970" d="M1446.6007,-620.6816C1546.536,-610.0307 1801.2666,-579.2052 2007.5,-523 2069.2511,-506.1708 2137.8697,-478.3028 2180.848,-459.6743"/>
<polygon fill="#191970" stroke="#191970" points="2182.3812,-462.824 2190.1453,-455.615 2179.5803,-456.4088 2182.3812,-462.824"/>
</g>
<!-- Node2 -->
<g id="node3" class="node">
<title>Node2</title>
<polygon fill="none" stroke="#bfbfbf" points="1500.5,-56.5 1500.5,-75.5 1544.5,-75.5 1544.5,-56.5 1500.5,-56.5"/>
<text text-anchor="middle" x="1522.5" y="-63.5" font-family="FreeSans.ttf" font-size="10.00" fill="#000000">string</text>
</g>
<!-- Node1&#45;&gt;Node2 -->
<g id="edge2" class="edge">
<title>Node1&#45;&gt;Node2</title>
<path fill="none" stroke="#191970" d="M627.2367,-240.9941C638.6354,-223.0831 666.0356,-184.6445 700.5,-168 856.0522,-92.8767 923.1099,-185.065 1087.5,-132 1104.1839,-126.6144 1104.8748,-117.5642 1121.5,-112 1189.9357,-89.0954 1407.8328,-73.27 1490.3834,-67.9594"/>
<polygon fill="#191970" stroke="#191970" points="1490.6762,-71.448 1500.4346,-67.322 1490.2331,-64.462 1490.6762,-71.448"/>
</g>
<!-- Node1&#45;&gt;Node3 -->
<g id="edge3" class="edge">
<title>Node1&#45;&gt;Node3</title>
<path fill="none" stroke="#191970" d="M645.7136,-240.9005C674.8286,-229.3579 723.8678,-209.9163 756.7018,-196.8993"/>
<polygon fill="#191970" stroke="#191970" points="758.3252,-200.0208 766.3313,-193.0817 755.7453,-193.5135 758.3252,-200.0208"/>
</g>
<!-- Node1&#45;&gt;Node4 -->
<g id="edge20" class="edge">
<title>Node1&#45;&gt;Node4</title>
<path fill="none" stroke="#191970" d="M621.7533,-240.699C622.6565,-217.47 626.7727,-157.5992 645.5,-112 649.6255,-101.9548 656.2373,-91.9239 662.3829,-83.8047"/>
<polygon fill="#191970" stroke="#191970" points="665.238,-85.8379 668.7287,-75.8346 659.7617,-81.4777 665.238,-85.8379"/>
</g>
<!-- Node3&#45;&gt;Node2 -->
<g id="edge16" class="edge">
<title>Node3&#45;&gt;Node2</title>
<path fill="none" stroke="#191970" d="M868.0871,-173.9854C950.6039,-163.4118 1075.4522,-145.985 1121.5,-132 1141.6676,-125.875 1144.2529,-117.8566 1164.5,-112 1281.1533,-78.2572 1426.3415,-69.2407 1490.0174,-66.8512"/>
<polygon fill="#191970" stroke="#191970" points="1490.3553,-70.3418 1500.2289,-66.4996 1490.1143,-63.3459 1490.3553,-70.3418"/>
</g>
<!-- Node3&#45;&gt;Node4 -->
<g id="edge4" class="edge">
<title>Node3&#45;&gt;Node4</title>
<path fill="none" stroke="#191970" d="M751.0085,-173.9839C714.7488,-164.3527 664.9634,-148.5559 653.5,-132 643.3655,-117.3634 652.5997,-97.9519 662.4049,-83.9742"/>
<polygon fill="#191970" stroke="#191970" points="665.4508,-85.7519 668.7329,-75.6783 659.8851,-81.5065 665.4508,-85.7519"/>
</g>
<!-- Node6 -->
<g id="node7" class="node">
<title>Node6</title>
<g id="a_node7"><a xlink:href="Span_8h.html" target="_top" xlink:title="iDynTree/Core/Span.h">
<polygon fill="none" stroke="#000000" points="297,-112.5 297,-131.5 418,-131.5 418,-112.5 297,-112.5"/>
<text text-anchor="middle" x="357.5" y="-119.5" font-family="FreeSans.ttf" font-size="10.00" fill="#000000">iDynTree/Core/Span.h</text>
</a>
</g>
</g>
<!-- Node3&#45;&gt;Node6 -->
<g id="edge6" class="edge">
<title>Node3&#45;&gt;Node6</title>
<path fill="none" stroke="#191970" d="M723.3188,-173.9581C643.2474,-162.5854 510.0462,-143.6665 428.3793,-132.0672"/>
<polygon fill="#191970" stroke="#191970" points="428.5845,-128.5613 418.1917,-130.6202 427.6001,-135.4917 428.5845,-128.5613"/>
</g>
<!-- Node7 -->
<g id="node8" class="node">
<title>Node7</title>
<polygon fill="none" stroke="#bfbfbf" points="547.5,-56.5 547.5,-75.5 599.5,-75.5 599.5,-56.5 547.5,-56.5"/>
<text text-anchor="middle" x="573.5" y="-63.5" font-family="FreeSans.ttf" font-size="10.00" fill="#000000">cassert</text>
</g>
<!-- Node3&#45;&gt;Node7 -->
<g id="edge18" class="edge">
<title>Node3&#45;&gt;Node7</title>
<path fill="none" stroke="#191970" d="M750.4509,-173.9404C720.2214,-165.6472 678.4629,-151.8312 645.5,-132 623.4323,-118.7236 602.2073,-97.9706 588.5922,-83.285"/>
<polygon fill="#191970" stroke="#191970" points="591.1582,-80.9043 581.854,-75.8365 585.9671,-85.6004 591.1582,-80.9043"/>
</g>
<!-- Node15 -->
<g id="node16" class="node">
<title>Node15</title>
<polygon fill="none" stroke="#bfbfbf" points="755.5,-56.5 755.5,-75.5 811.5,-75.5 811.5,-56.5 755.5,-56.5"/>
<text text-anchor="middle" x="783.5" y="-63.5" font-family="FreeSans.ttf" font-size="10.00" fill="#000000">sstream</text>
</g>
<!-- Node3&#45;&gt;Node15 -->
<g id="edge17" class="edge">
<title>Node3&#45;&gt;Node15</title>
<path fill="none" stroke="#191970" d="M726.5232,-173.9064C701.6199,-166.702 675.5075,-154.0874 660.5,-132 655.5044,-124.6477 655.4337,-119.3037 660.5,-112 665.6447,-104.5833 711.4954,-88.739 745.72,-77.7324"/>
<polygon fill="#191970" stroke="#191970" points="746.9997,-80.9981 755.465,-74.6271 744.8744,-74.3285 746.9997,-80.9981"/>
</g>
<!-- Node16 -->
<g id="node17" class="node">
<title>Node16</title>
<polygon fill="none" stroke="#bfbfbf" points="829.5,-56.5 829.5,-75.5 879.5,-75.5 879.5,-56.5 829.5,-56.5"/>
<text text-anchor="middle" x="854.5" y="-63.5" font-family="FreeSans.ttf" font-size="10.00" fill="#000000">cstring</text>
</g>
<!-- Node3&#45;&gt;Node16 -->
<g id="edge19" class="edge">
<title>Node3&#45;&gt;Node16</title>
<path fill="none" stroke="#191970" d="M756.481,-173.9014C720.7031,-162.0683 672.3054,-140.0376 693.5,-112 727.082,-67.5756 760.5539,-89.7177 819.5632,-75.9825"/>
<polygon fill="#191970" stroke="#191970" points="820.464,-79.3647 829.2571,-73.4544 818.6974,-72.5913 820.464,-79.3647"/>
</g>
<!-- Node5 -->
<g id="node6" class="node">
<title>Node5</title>
<polygon fill="none" stroke="#bfbfbf" points="353,-.5 353,-19.5 406,-19.5 406,-.5 353,-.5"/>
<text text-anchor="middle" x="379.5" y="-7.5" font-family="FreeSans.ttf" font-size="10.00" fill="#000000">cstddef</text>
</g>
<!-- Node4&#45;&gt;Node5 -->
<g id="edge5" class="edge">
<title>Node4&#45;&gt;Node5</title>
<path fill="none" stroke="#191970" d="M626.6106,-56.4369C566.766,-45.1909 468.9101,-26.8019 416.0826,-16.8746"/>
<polygon fill="#191970" stroke="#191970" points="416.6165,-13.4137 406.1421,-15.0066 415.3236,-20.2933 416.6165,-13.4137"/>
</g>
<!-- Node6&#45;&gt;Node5 -->
<g id="edge10" class="edge">
<title>Node6&#45;&gt;Node5</title>
<path fill="none" stroke="#191970" d="M296.916,-113.1439C222.9466,-102.041 106.8182,-83.5495 100.5,-76 94.7951,-69.1834 94.7485,-62.7774 100.5,-56 116.016,-37.7163 270.3763,-20.5455 342.5979,-13.4398"/>
<polygon fill="#191970" stroke="#191970" points="343.0163,-16.9158 352.6312,-12.4656 342.3397,-9.9485 343.0163,-16.9158"/>
</g>
<!-- Node6&#45;&gt;Node7 -->
<g id="edge7" class="edge">
<title>Node6&#45;&gt;Node7</title>
<path fill="none" stroke="#191970" d="M395.8339,-112.4485C432.3159,-103.3005 488.726,-89.0049 537.5,-76 537.5979,-75.9739 537.696,-75.9477 537.7942,-75.9215"/>
<polygon fill="#191970" stroke="#191970" points="538.4341,-79.3744 547.1711,-73.3814 536.6038,-72.6179 538.4341,-79.3744"/>
</g>
<!-- Node8 -->
<g id="node9" class="node">
<title>Node8</title>
<polygon fill="none" stroke="#bfbfbf" points="109.5,-56.5 109.5,-75.5 173.5,-75.5 173.5,-56.5 109.5,-56.5"/>
<text text-anchor="middle" x="141.5" y="-63.5" font-family="FreeSans.ttf" font-size="10.00" fill="#000000">algorithm</text>
</g>
<!-- Node6&#45;&gt;Node8 -->
<g id="edge8" class="edge">
<title>Node6&#45;&gt;Node8</title>
<path fill="none" stroke="#191970" d="M320.3683,-112.3733C282.3086,-102.5059 223.226,-87.1882 183.4872,-76.8856"/>
<polygon fill="#191970" stroke="#191970" points="184.1343,-73.4377 173.5759,-74.316 182.3775,-80.2137 184.1343,-73.4377"/>
</g>
<!-- Node9 -->
<g id="node10" class="node">
<title>Node9</title>
<polygon fill="none" stroke="#bfbfbf" points="191.5,-56.5 191.5,-75.5 233.5,-75.5 233.5,-56.5 191.5,-56.5"/>
<text text-anchor="middle" x="212.5" y="-63.5" font-family="FreeSans.ttf" font-size="10.00" fill="#000000">array</text>
</g>
<!-- Node6&#45;&gt;Node9 -->
<g id="edge9" class="edge">
<title>Node6&#45;&gt;Node9</title>
<path fill="none" stroke="#191970" d="M332.5736,-112.3733C307.8746,-102.8343 269.9869,-88.2018 243.3917,-77.9306"/>
<polygon fill="#191970" stroke="#191970" points="244.3922,-74.5651 233.8027,-74.2273 241.8702,-81.095 244.3922,-74.5651"/>
</g>
<!-- Node10 -->
<g id="node11" class="node">
<title>Node10</title>
<polygon fill="none" stroke="#bfbfbf" points="0,-56.5 0,-75.5 53,-75.5 53,-56.5 0,-56.5"/>
<text text-anchor="middle" x="26.5" y="-63.5" font-family="FreeSans.ttf" font-size="10.00" fill="#000000">iterator</text>
</g>
<!-- Node6&#45;&gt;Node10 -->
<g id="edge11" class="edge">
<title>Node6&#45;&gt;Node10</title>
<path fill="none" stroke="#191970" d="M296.9796,-113.8735C238.1337,-105.6252 146.3402,-91.8398 67.5,-76 66.0634,-75.7114 64.601,-75.4068 63.1256,-75.0905"/>
<polygon fill="#191970" stroke="#191970" points="63.8614,-71.6686 53.3359,-72.8789 62.3188,-78.4966 63.8614,-71.6686"/>
</g>
<!-- Node11 -->
<g id="node12" class="node">
<title>Node11</title>
<polygon fill="none" stroke="#bfbfbf" points="251.5,-56.5 251.5,-75.5 295.5,-75.5 295.5,-56.5 251.5,-56.5"/>
<text text-anchor="middle" x="273.5" y="-63.5" font-family="FreeSans.ttf" font-size="10.00" fill="#000000">limits</text>
</g>
<!-- Node6&#45;&gt;Node11 -->
<g id="edge12" class="edge">
<title>Node6&#45;&gt;Node11</title>
<path fill="none" stroke="#191970" d="M342.8683,-112.2455C330.1006,-103.7337 311.3562,-91.2375 296.5701,-81.3801"/>
<polygon fill="#191970" stroke="#191970" points="298.226,-78.2775 287.964,-75.6427 294.3431,-84.1019 298.226,-78.2775"/>
</g>
<!-- Node12 -->
<g id="node13" class="node">
<title>Node12</title>
<polygon fill="none" stroke="#bfbfbf" points="314,-56.5 314,-75.5 379,-75.5 379,-56.5 314,-56.5"/>
<text text-anchor="middle" x="346.5" y="-63.5" font-family="FreeSans.ttf" font-size="10.00" fill="#000000">stdexcept</text>
</g>
<!-- Node6&#45;&gt;Node12 -->
<g id="edge13" class="edge">
<title>Node6&#45;&gt;Node12</title>
<path fill="none" stroke="#191970" d="M355.5839,-112.2455C354.1486,-104.9382 352.1364,-94.6944 350.3705,-85.7046"/>
<polygon fill="#191970" stroke="#191970" points="353.756,-84.7805 348.3941,-75.6427 346.8873,-86.1298 353.756,-84.7805"/>
</g>
<!-- Node13 -->
<g id="node14" class="node">
<title>Node13</title>
<polygon fill="none" stroke="#bfbfbf" points="397,-56.5 397,-75.5 466,-75.5 466,-56.5 397,-56.5"/>
<text text-anchor="middle" x="431.5" y="-63.5" font-family="FreeSans.ttf" font-size="10.00" fill="#000000">type_traits</text>
</g>
<!-- Node6&#45;&gt;Node13 -->
<g id="edge14" class="edge">
<title>Node6&#45;&gt;Node13</title>
<path fill="none" stroke="#191970" d="M370.3898,-112.2455C381.4254,-103.8943 397.5292,-91.7076 410.4353,-81.9408"/>
<polygon fill="#191970" stroke="#191970" points="412.8959,-84.4681 418.7579,-75.6427 408.6717,-78.8862 412.8959,-84.4681"/>
</g>
<!-- Node14 -->
<g id="node15" class="node">
<title>Node14</title>
<polygon fill="none" stroke="#bfbfbf" points="484,-56.5 484,-75.5 529,-75.5 529,-56.5 484,-56.5"/>
<text text-anchor="middle" x="506.5" y="-63.5" font-family="FreeSans.ttf" font-size="10.00" fill="#000000">utility</text>
</g>
<!-- Node6&#45;&gt;Node14 -->
<g id="edge15" class="edge">
<title>Node6&#45;&gt;Node14</title>
<path fill="none" stroke="#191970" d="M383.114,-112.3733C408.3097,-102.9037 446.8616,-88.4144 474.158,-78.1554"/>
<polygon fill="#191970" stroke="#191970" points="475.5303,-81.3787 483.6597,-74.5843 473.0676,-74.8262 475.5303,-81.3787"/>
</g>
<!-- Node17&#45;&gt;Node2 -->
<g id="edge42" class="edge">
<title>Node17&#45;&gt;Node2</title>
<path fill="none" stroke="#191970" d="M1730.4923,-307.7645C1738.8209,-298.03 1750.631,-282.2123 1755.5,-266 1759.4629,-252.8045 1759.0654,-248.3085 1755.5,-235 1747.3329,-204.5148 1709.3941,-131.3993 1684.5,-112 1664.2501,-96.2197 1595.5457,-80.4424 1554.3964,-72.0903"/>
<polygon fill="#191970" stroke="#191970" points="1555.0662,-68.655 1544.5747,-70.1313 1553.6969,-75.5198 1555.0662,-68.655"/>
</g>
<!-- Node18 -->
<g id="node19" class="node">
<title>Node18</title>
<g id="a_node19"><a xlink:href="PositionRaw_8h.html" target="_top" xlink:title="iDynTree/Core/PositionRaw.h">
<polygon fill="none" stroke="#000000" points="1590.5,-241 1590.5,-260 1746.5,-260 1746.5,-241 1590.5,-241"/>
<text text-anchor="middle" x="1668.5" y="-248" font-family="FreeSans.ttf" font-size="10.00" fill="#000000">iDynTree/Core/PositionRaw.h</text>
</a>
</g>
</g>
<!-- Node17&#45;&gt;Node18 -->
<g id="edge22" class="edge">
<title>Node17&#45;&gt;Node18</title>
<path fill="none" stroke="#191970" d="M1713.9064,-307.9005C1705.7202,-297.552 1692.5115,-280.8542 1682.4457,-268.1295"/>
<polygon fill="#191970" stroke="#191970" points="1685.0286,-265.7531 1676.0795,-260.0817 1679.5386,-270.0959 1685.0286,-265.7531"/>
</g>
<!-- Node19 -->
<g id="node20" class="node">
<title>Node19</title>
<g id="a_node20"><a xlink:href="PositionSemantics_8h.html" target="_top" xlink:title="iDynTree/Core/PositionSemantics.h">
<polygon fill="none" stroke="#000000" points="1754,-174 1754,-193 1941,-193 1941,-174 1754,-174"/>
<text text-anchor="middle" x="1847.5" y="-181" font-family="FreeSans.ttf" font-size="10.00" fill="#000000">iDynTree/Core/PositionSemantics.h</text>
</a>
</g>
</g>
<!-- Node17&#45;&gt;Node19 -->
<g id="edge25" class="edge">
<title>Node17&#45;&gt;Node19</title>
<path fill="none" stroke="#191970" d="M1736.3576,-307.9663C1750.6473,-298.3815 1772.3942,-282.6714 1788.5,-266 1807.8038,-246.0182 1825.7246,-219.3283 1836.6343,-201.7896"/>
<polygon fill="#191970" stroke="#191970" points="1839.722,-203.4485 1841.9382,-193.088 1833.7448,-199.8052 1839.722,-203.4485"/>
</g>
<!-- Node20 -->
<g id="node21" class="node">
<title>Node20</title>
<g id="a_node21"><a xlink:href="Rotation_8h.html" target="_top" xlink:title="iDynTree/Core/Rotation.h">
<polygon fill="none" stroke="#000000" points="1287,-241 1287,-260 1424,-260 1424,-241 1287,-241"/>
<text text-anchor="middle" x="1355.5" y="-248" font-family="FreeSans.ttf" font-size="10.00" fill="#000000">iDynTree/Core/Rotation.h</text>
</a>
</g>
</g>
<!-- Node17&#45;&gt;Node20 -->
<g id="edge27" class="edge">
<title>Node17&#45;&gt;Node20</title>
<path fill="none" stroke="#191970" d="M1669.4498,-307.9717C1603.1429,-295.8335 1488.6697,-274.8781 1417.7961,-261.9039"/>
<polygon fill="#191970" stroke="#191970" points="1418.1334,-258.4076 1407.6666,-260.0496 1416.8729,-265.2932 1418.1334,-258.4076"/>
</g>
<!-- Node18&#45;&gt;Node2 -->
<g id="edge24" class="edge">
<title>Node18&#45;&gt;Node2</title>
<path fill="none" stroke="#191970" d="M1671.6084,-240.8979C1678.8491,-216.5353 1694.0758,-151.4595 1664.5,-112 1651.217,-94.278 1592.3661,-79.7143 1554.72,-71.992"/>
<polygon fill="#191970" stroke="#191970" points="1555.211,-68.5211 1544.7197,-69.9984 1553.8424,-75.386 1555.211,-68.5211"/>
</g>
<!-- Node18&#45;&gt;Node3 -->
<g id="edge23" class="edge">
<title>Node18&#45;&gt;Node3</title>
<path fill="none" stroke="#191970" d="M1590.1974,-244.5247C1427.5246,-232.1112 1053.8124,-203.5933 881.084,-190.4124"/>
<polygon fill="#191970" stroke="#191970" points="881.2415,-186.9144 871.0041,-189.6433 880.7088,-193.8941 881.2415,-186.9144"/>
</g>
<!-- Node19&#45;&gt;Node2 -->
<g id="edge26" class="edge">
<title>Node19&#45;&gt;Node2</title>
<path fill="none" stroke="#191970" d="M1836.1646,-173.7526C1817.509,-158.2364 1778.5939,-128.0394 1740.5,-112 1677.7608,-85.5837 1598.2562,-73.7481 1554.6877,-68.9302"/>
<polygon fill="#191970" stroke="#191970" points="1554.9844,-65.4422 1544.6732,-67.8774 1554.2524,-72.4038 1554.9844,-65.4422"/>
</g>
<!-- Node20&#45;&gt;Node2 -->
<g id="edge28" class="edge">
<title>Node20&#45;&gt;Node2</title>
<path fill="none" stroke="#191970" d="M1365.3925,-240.9916C1385.7444,-221.284 1433.4978,-174.2858 1470.5,-132 1484.369,-116.1506 1499.1337,-97.1865 1509.3726,-83.6619"/>
<polygon fill="#191970" stroke="#191970" points="1512.1854,-85.7449 1515.3927,-75.6471 1506.5884,-81.5408 1512.1854,-85.7449"/>
</g>
<!-- Node20&#45;&gt;Node3 -->
<g id="edge41" class="edge">
<title>Node20&#45;&gt;Node3</title>
<path fill="none" stroke="#191970" d="M1286.7848,-242.3515C1185.0137,-230.283 994.0983,-207.6435 881.0339,-194.2359"/>
<polygon fill="#191970" stroke="#191970" points="881.3566,-190.7497 871.014,-193.0477 880.5322,-197.701 881.3566,-190.7497"/>
</g>
<!-- Node21 -->
<g id="node22" class="node">
<title>Node21</title>
<g id="a_node22"><a xlink:href="RotationRaw_8h.html" target="_top" xlink:title="iDynTree/Core/RotationRaw.h">
<polygon fill="none" stroke="#000000" points="1190.5,-174 1190.5,-193 1348.5,-193 1348.5,-174 1190.5,-174"/>
<text text-anchor="middle" x="1269.5" y="-181" font-family="FreeSans.ttf" font-size="10.00" fill="#000000">iDynTree/Core/RotationRaw.h</text>
</a>
</g>
</g>
<!-- Node20&#45;&gt;Node21 -->
<g id="edge29" class="edge">
<title>Node20&#45;&gt;Node21</title>
<path fill="none" stroke="#191970" d="M1343.1783,-240.9005C1329.2565,-230.0544 1306.3824,-212.2339 1289.81,-199.3229"/>
<polygon fill="#191970" stroke="#191970" points="1291.8385,-196.4664 1281.7988,-193.0817 1287.5364,-201.9885 1291.8385,-196.4664"/>
</g>
<!-- Node24 -->
<g id="node25" class="node">
<title>Node24</title>
<g id="a_node25"><a xlink:href="RotationSemantics_8h.html" target="_top" xlink:title="iDynTree/Core/RotationSemantics.h">
<polygon fill="none" stroke="#000000" points="1173.5,-112.5 1173.5,-131.5 1361.5,-131.5 1361.5,-112.5 1173.5,-112.5"/>
<text text-anchor="middle" x="1267.5" y="-119.5" font-family="FreeSans.ttf" font-size="10.00" fill="#000000">iDynTree/Core/RotationSemantics.h</text>
</a>
</g>
</g>
<!-- Node20&#45;&gt;Node24 -->
<g id="edge38" class="edge">
<title>Node20&#45;&gt;Node24</title>
<path fill="none" stroke="#191970" d="M1358.8243,-240.9927C1363.8903,-224.6981 1371.559,-190.9747 1357.5,-168 1348.1591,-152.7354 1331.9772,-142.3326 1315.8874,-135.3404"/>
<polygon fill="#191970" stroke="#191970" points="1317.0629,-132.0414 1306.477,-131.6067 1314.4813,-138.548 1317.0629,-132.0414"/>
</g>
<!-- Node21&#45;&gt;Node2 -->
<g id="edge37" class="edge">
<title>Node21&#45;&gt;Node2</title>
<path fill="none" stroke="#191970" d="M1319.6904,-173.9474C1355.1151,-165.9209 1402.9406,-152.4344 1441.5,-132 1466.068,-118.9803 1490.2547,-97.8903 1505.7089,-83.062"/>
<polygon fill="#191970" stroke="#191970" points="1508.2652,-85.4571 1512.9502,-75.9544 1503.3618,-80.4614 1508.2652,-85.4571"/>
</g>
<!-- Node22 -->
<g id="node23" class="node">
<title>Node22</title>
<g id="a_node23"><a xlink:href="MatrixFixSize_8h.html" target="_top" xlink:title="iDynTree/Core/MatrixFixSize.h">
<polygon fill="none" stroke="#000000" points="703,-112.5 703,-131.5 864,-131.5 864,-112.5 703,-112.5"/>
<text text-anchor="middle" x="783.5" y="-119.5" font-family="FreeSans.ttf" font-size="10.00" fill="#000000">iDynTree/Core/MatrixFixSize.h</text>
</a>
</g>
</g>
<!-- Node21&#45;&gt;Node22 -->
<g id="edge30" class="edge">
<title>Node21&#45;&gt;Node22</title>
<path fill="none" stroke="#191970" d="M1194.3618,-173.9918C1106.403,-162.8612 961.0622,-144.4693 868.9036,-132.8073"/>
<polygon fill="#191970" stroke="#191970" points="869.1297,-129.308 858.7693,-131.5248 868.2508,-136.2526 869.1297,-129.308"/>
</g>
<!-- Node22&#45;&gt;Node2 -->
<g id="edge34" class="edge">
<title>Node22&#45;&gt;Node2</title>
<path fill="none" stroke="#191970" d="M864.015,-112.8028C866.8777,-112.5237 869.7129,-112.2551 872.5,-112 1109.253,-90.3311 1395.326,-73.2398 1490.2021,-67.8128"/>
<polygon fill="#191970" stroke="#191970" points="1490.5209,-71.3004 1500.3058,-67.2377 1490.1231,-64.3118 1490.5209,-71.3004"/>
</g>
<!-- Node22&#45;&gt;Node4 -->
<g id="edge31" class="edge">
<title>Node22&#45;&gt;Node4</title>
<path fill="none" stroke="#191970" d="M765.0362,-112.2455C748.3926,-103.4527 723.7007,-90.4079 704.7808,-80.4125"/>
<polygon fill="#191970" stroke="#191970" points="706.2291,-77.2193 695.7522,-75.6427 702.9592,-83.4086 706.2291,-77.2193"/>
</g>
<!-- Node22&#45;&gt;Node7 -->
<g id="edge32" class="edge">
<title>Node22&#45;&gt;Node7</title>
<path fill="none" stroke="#191970" d="M746.2278,-112.4476C712.8353,-103.835 662.2728,-90.6606 609.6939,-76.2914"/>
<polygon fill="#191970" stroke="#191970" points="610.4259,-72.863 599.8565,-73.5953 608.5757,-79.6141 610.4259,-72.863"/>
</g>
<!-- Node22&#45;&gt;Node15 -->
<g id="edge36" class="edge">
<title>Node22&#45;&gt;Node15</title>
<path fill="none" stroke="#191970" d="M783.5,-112.2455C783.5,-104.9382 783.5,-94.6944 783.5,-85.7046"/>
<polygon fill="#191970" stroke="#191970" points="787.0001,-85.6426 783.5,-75.6427 780.0001,-85.6427 787.0001,-85.6426"/>
</g>
<!-- Node22&#45;&gt;Node16 -->
<g id="edge33" class="edge">
<title>Node22&#45;&gt;Node16</title>
<path fill="none" stroke="#191970" d="M795.8673,-112.2455C806.4554,-103.8943 821.9064,-91.7076 834.2893,-81.9408"/>
<polygon fill="#191970" stroke="#191970" points="836.5903,-84.5837 842.2745,-75.6427 832.2553,-79.0875 836.5903,-84.5837"/>
</g>
<!-- Node23 -->
<g id="node24" class="node">
<title>Node23</title>
<polygon fill="none" stroke="#bfbfbf" points="897.5,-56.5 897.5,-75.5 957.5,-75.5 957.5,-56.5 897.5,-56.5"/>
<text text-anchor="middle" x="927.5" y="-63.5" font-family="FreeSans.ttf" font-size="10.00" fill="#000000">iostream</text>
</g>
<!-- Node22&#45;&gt;Node23 -->
<g id="edge35" class="edge">
<title>Node22&#45;&gt;Node23</title>
<path fill="none" stroke="#191970" d="M808.2545,-112.3733C831.7849,-103.2226 867.3687,-89.3844 893.5426,-79.2057"/>
<polygon fill="#191970" stroke="#191970" points="895.0171,-82.3877 903.0685,-75.5011 892.4799,-75.8636 895.0171,-82.3877"/>
</g>
<!-- Node24&#45;&gt;Node2 -->
<g id="edge39" class="edge">
<title>Node24&#45;&gt;Node2</title>
<path fill="none" stroke="#191970" d="M1311.0463,-112.4369C1361.9862,-101.2501 1445.1109,-82.9953 1490.4792,-73.032"/>
<polygon fill="#191970" stroke="#191970" points="1491.3442,-76.4255 1500.3607,-70.862 1489.8427,-69.5885 1491.3442,-76.4255"/>
</g>
<!-- Node24&#45;&gt;Node4 -->
<g id="edge40" class="edge">
<title>Node24&#45;&gt;Node4</title>
<path fill="none" stroke="#191970" d="M1173.2185,-115.268C1070.9796,-107.6052 902.7382,-93.9428 747.5169,-76.061"/>
<polygon fill="#191970" stroke="#191970" points="747.6491,-72.5529 737.3124,-74.877 746.8423,-79.5063 747.6491,-72.5529"/>
</g>
<!-- Node25&#45;&gt;Node2 -->
<g id="edge44" class="edge">
<title>Node25&#45;&gt;Node2</title>
<path fill="none" stroke="#191970" d="M2515.6629,-559.2793C2505.6336,-538.198 2483.5,-486.4665 2483.5,-440.5 2483.5,-440.5 2483.5,-440.5 2483.5,-183.5 2483.5,-87.7981 1722.8964,-69.3801 1555.0259,-66.4806"/>
<polygon fill="#191970" stroke="#191970" points="1554.8969,-62.978 1544.8401,-66.3114 1554.7806,-69.9771 1554.8969,-62.978"/>
</g>
<!-- Node26&#45;&gt;Node2 -->
<g id="edge47" class="edge">
<title>Node26&#45;&gt;Node2</title>
<path fill="none" stroke="#191970" d="M667.5251,-369.4258C698.8702,-354.5293 761.5269,-325.114 815.5,-302 974.7385,-233.806 1013.9744,-212.0734 1181.5,-168 1264.1963,-146.2439 1289.1125,-158.2311 1370.5,-132 1390.561,-125.5344 1394.2319,-120.5434 1413.5,-112 1439.3899,-100.5205 1469.0113,-88.0625 1490.8341,-79.0101"/>
<polygon fill="#191970" stroke="#191970" points="1492.3681,-82.1633 1500.2706,-75.1063 1489.6921,-75.6949 1492.3681,-82.1633"/>
</g>
<!-- Node26&#45;&gt;Node6 -->
<g id="edge46" class="edge">
<title>Node26&#45;&gt;Node6</title>
<path fill="none" stroke="#191970" d="M636.4858,-369.2391C592.7921,-330.5175 431.3663,-187.4609 376.1576,-138.5345"/>
<polygon fill="#191970" stroke="#191970" points="378.3306,-135.7836 368.5252,-131.7706 373.6879,-141.0225 378.3306,-135.7836"/>
</g>
<!-- Node27&#45;&gt;Node2 -->
<g id="edge53" class="edge">
<title>Node27&#45;&gt;Node2</title>
<path fill="none" stroke="#191970" d="M550.3324,-430.5829C546.2224,-415.6368 541.0562,-387.1594 554.5,-369 641.5606,-251.4018 1039.1848,-201.9893 1181.5,-168 1280.0016,-144.4748 1310.9884,-165.6679 1406.5,-132 1423.3971,-126.0438 1425.9326,-120.8682 1441.5,-112 1460.0594,-101.4274 1481.029,-89.5198 1496.9816,-80.4689"/>
<polygon fill="#191970" stroke="#191970" points="1498.7671,-83.48 1505.7383,-75.5018 1495.3134,-77.3914 1498.7671,-83.48"/>
</g>
<!-- Node27&#45;&gt;Node4 -->
<g id="edge51" class="edge">
<title>Node27&#45;&gt;Node4</title>
<path fill="none" stroke="#191970" d="M546.4657,-430.6799C539.5415,-420.628 529.0762,-404.3478 522.5,-389 497.3606,-330.3286 484.5,-314.3304 484.5,-250.5 484.5,-250.5 484.5,-250.5 484.5,-183.5 484.5,-122.5322 555.6349,-92.2844 611.5322,-77.9274"/>
<polygon fill="#191970" stroke="#191970" points="612.5349,-81.2854 621.4172,-75.51 610.8719,-74.4858 612.5349,-81.2854"/>
</g>
<!-- Node27&#45;&gt;Node10 -->
<g id="edge52" class="edge">
<title>Node27&#45;&gt;Node10</title>
<path fill="none" stroke="#191970" d="M544.9188,-430.7008C499.0562,-378.4221 283.4924,-133.9116 244.5,-112 228.833,-103.196 121.0278,-82.9327 63.1152,-72.4873"/>
<polygon fill="#191970" stroke="#191970" points="63.7153,-69.0392 53.2541,-70.7166 62.4781,-75.929 63.7153,-69.0392"/>
</g>
<!-- Node27&#45;&gt;Node28 -->
<g id="edge54" class="edge">
<title>Node27&#45;&gt;Node28</title>
<path fill="none" stroke="#191970" d="M619.9321,-434.4498C656.1417,-431.3039 701.7579,-427.5865 742.5,-425 1097.7003,-402.4506 1188.0731,-421.5165 1542.5,-389 1555.0387,-387.8496 1568.7404,-386.077 1580.7939,-384.3419"/>
<polygon fill="#191970" stroke="#191970" points="1581.5136,-387.7735 1590.8914,-382.8433 1580.4859,-380.8493 1581.5136,-387.7735"/>
</g>
<!-- Node29&#45;&gt;Node2 -->
<g id="edge56" class="edge">
<title>Node29&#45;&gt;Node2</title>
<path fill="none" stroke="#191970" d="M1920.0524,-369.3092C1935.338,-348.6927 1968.5,-298.4408 1968.5,-250.5 1968.5,-250.5 1968.5,-250.5 1968.5,-183.5 1968.5,-97.8507 1657.0452,-73.2953 1554.6768,-67.5376"/>
<polygon fill="#191970" stroke="#191970" points="1554.7912,-64.0388 1544.6172,-66.9951 1554.4142,-71.0286 1554.7912,-64.0388"/>
</g>
<!-- Node30&#45;&gt;Node28 -->
<g id="edge79" class="edge">
<title>Node30&#45;&gt;Node28</title>
<path fill="none" stroke="#191970" d="M1146.2192,-433.0079C1239.1737,-423.5312 1402.705,-406.347 1542.5,-389 1554.9956,-387.4494 1568.6877,-385.5885 1580.7456,-383.8947"/>
<polygon fill="#191970" stroke="#191970" points="1581.441,-387.3312 1590.8502,-382.4612 1580.4577,-380.4006 1581.441,-387.3312"/>
</g>
<!-- Node30&#45;&gt;Node29 -->
<g id="edge78" class="edge">
<title>Node30&#45;&gt;Node29</title>
<path fill="none" stroke="#191970" d="M1146.2775,-432.7467C1172.8538,-430.114 1202.997,-427.2676 1230.5,-425 1448.4252,-407.0325 1705.959,-391.0989 1833.1846,-383.5796"/>
<polygon fill="#191970" stroke="#191970" points="1833.4542,-387.0699 1843.2308,-382.9874 1833.0421,-380.082 1833.4542,-387.0699"/>
</g>
<!-- Node31 -->
<g id="node32" class="node">
<title>Node31</title>
<g id="a_node32"><a xlink:href="Transform_8h.html" target="_top" xlink:title="iDynTree/Core/Transform.h">
<polygon fill="none" stroke="#000000" points="1282.5,-369.5 1282.5,-388.5 1428.5,-388.5 1428.5,-369.5 1282.5,-369.5"/>
<text text-anchor="middle" x="1355.5" y="-376.5" font-family="FreeSans.ttf" font-size="10.00" fill="#000000">iDynTree/Core/Transform.h</text>
</a>
</g>
</g>
<!-- Node30&#45;&gt;Node31 -->
<g id="edge58" class="edge">
<title>Node30&#45;&gt;Node31</title>
<path fill="none" stroke="#191970" d="M1115.5634,-430.9581C1165.6213,-420.1181 1247.3382,-402.4224 1301.2682,-390.7439"/>
<polygon fill="#191970" stroke="#191970" points="1302.3005,-394.1015 1311.3332,-388.5643 1300.819,-387.2601 1302.3005,-394.1015"/>
</g>
<!-- Node33 -->
<g id="node34" class="node">
<title>Node33</title>
<g id="a_node34"><a xlink:href="Twist_8h.html" target="_top" xlink:title="iDynTree/Core/Twist.h">
<polygon fill="none" stroke="#000000" points="824.5,-369.5 824.5,-388.5 946.5,-388.5 946.5,-369.5 824.5,-369.5"/>
<text text-anchor="middle" x="885.5" y="-376.5" font-family="FreeSans.ttf" font-size="10.00" fill="#000000">iDynTree/Core/Twist.h</text>
</a>
</g>
</g>
<!-- Node30&#45;&gt;Node33 -->
<g id="edge66" class="edge">
<title>Node30&#45;&gt;Node33</title>
<path fill="none" stroke="#191970" d="M1042.4375,-430.8906C1010.6338,-420.3749 959.4949,-403.466 924.2856,-391.8243"/>
<polygon fill="#191970" stroke="#191970" points="924.9517,-388.3582 914.3584,-388.5419 922.7541,-395.0043 924.9517,-388.3582"/>
</g>
<!-- Node43 -->
<g id="node37" class="node">
<title>Node43</title>
<g id="a_node37"><a xlink:href="SpatialAcc_8h.html" target="_top" xlink:title="iDynTree/Core/SpatialAcc.h">
<polygon fill="none" stroke="#000000" points="1116.5,-369.5 1116.5,-388.5 1264.5,-388.5 1264.5,-369.5 1116.5,-369.5"/>
<text text-anchor="middle" x="1190.5" y="-376.5" font-family="FreeSans.ttf" font-size="10.00" fill="#000000">iDynTree/Core/SpatialAcc.h</text>
</a>
</g>
</g>
<!-- Node30&#45;&gt;Node43 -->
<g id="edge70" class="edge">
<title>Node30&#45;&gt;Node43</title>
<path fill="none" stroke="#191970" d="M1090.0938,-430.8906C1109.6553,-420.7811 1140.6501,-404.7628 1163.0309,-393.1962"/>
<polygon fill="#191970" stroke="#191970" points="1164.76,-396.2425 1172.0368,-388.5419 1161.5461,-390.0238 1164.76,-396.2425"/>
</g>
<!-- Node44 -->
<g id="node38" class="node">
<title>Node44</title>
<g id="a_node38"><a xlink:href="Wrench_8h.html" target="_top" xlink:title="iDynTree/Core/Wrench.h">
<polygon fill="none" stroke="#000000" points="965,-369.5 965,-388.5 1098,-388.5 1098,-369.5 965,-369.5"/>
<text text-anchor="middle" x="1031.5" y="-376.5" font-family="FreeSans.ttf" font-size="10.00" fill="#000000">iDynTree/Core/Wrench.h</text>
</a>
</g>
</g>
<!-- Node30&#45;&gt;Node44 -->
<g id="edge72" class="edge">
<title>Node30&#45;&gt;Node44</title>
<path fill="none" stroke="#191970" d="M1065.25,-430.8906C1059.4135,-421.917 1050.5491,-408.2879 1043.3694,-397.2491"/>
<polygon fill="#191970" stroke="#191970" points="1046.2245,-395.2194 1037.8381,-388.7449 1040.3564,-399.0361 1046.2245,-395.2194"/>
</g>
<!-- Node49 -->
<g id="node40" class="node">
<title>Node49</title>
<g id="a_node40"><a xlink:href="ArticulatedBodyInertia_8h.html" target="_top" xlink:title="iDynTree/Core/Articulated\lBodyInertia.h">
<polygon fill="none" stroke="#000000" points="1481,-168.5 1481,-198.5 1622,-198.5 1622,-168.5 1481,-168.5"/>
<text text-anchor="start" x="1489" y="-186.5" font-family="FreeSans.ttf" font-size="10.00" fill="#000000">iDynTree/Core/Articulated</text>
<text text-anchor="middle" x="1551.5" y="-175.5" font-family="FreeSans.ttf" font-size="10.00" fill="#000000">BodyInertia.h</text>
</a>
</g>
</g>
<!-- Node30&#45;&gt;Node49 -->
<g id="edge75" class="edge">
<title>Node30&#45;&gt;Node49</title>
<path fill="none" stroke="#191970" d="M1146.4047,-431.6883C1249.9789,-419.2542 1425.6173,-397.1653 1437.5,-389 1501.4922,-345.0272 1533.3419,-252.8664 1545.4739,-208.4637"/>
<polygon fill="#191970" stroke="#191970" points="1548.9334,-209.0686 1548.0796,-198.5082 1542.1615,-207.2961 1548.9334,-209.0686"/>
</g>
<!-- Node31&#45;&gt;Node2 -->
<g id="edge65" class="edge">
<title>Node31&#45;&gt;Node2</title>
<path fill="none" stroke="#191970" d="M1363.0588,-369.4828C1377.8124,-350.5929 1410.8885,-306.6695 1432.5,-266 1454.4976,-224.6039 1450.9659,-210.1412 1471.5,-168 1479.6138,-151.3484 1483.9899,-148.4526 1492.5,-132 1500.5306,-116.4744 1508.6768,-98.3707 1514.45,-85.0549"/>
<polygon fill="#191970" stroke="#191970" points="1517.8041,-86.1136 1518.5236,-75.5432 1511.3693,-83.3577 1517.8041,-86.1136"/>
</g>
<!-- Node31&#45;&gt;Node17 -->
<g id="edge59" class="edge">
<title>Node31&#45;&gt;Node17</title>
<path fill="none" stroke="#191970" d="M1412.2859,-369.4581C1477.8317,-358.4443 1585.4964,-340.3531 1654.9254,-328.6867"/>
<polygon fill="#191970" stroke="#191970" points="1655.6003,-332.1225 1664.882,-327.0137 1654.4402,-325.2192 1655.6003,-332.1225"/>
</g>
<!-- Node31&#45;&gt;Node20 -->
<g id="edge60" class="edge">
<title>Node31&#45;&gt;Node20</title>
<path fill="none" stroke="#191970" d="M1355.5,-369.3416C1355.5,-348.4114 1355.5,-298.504 1355.5,-270.4762"/>
<polygon fill="#191970" stroke="#191970" points="1359.0001,-270.2704 1355.5,-260.2705 1352.0001,-270.2705 1359.0001,-270.2704"/>
</g>
<!-- Node31&#45;&gt;Node22 -->
<g id="edge64" class="edge">
<title>Node31&#45;&gt;Node22</title>
<path fill="none" stroke="#191970" d="M1338.8028,-369.4284C1323.3942,-360.4395 1300.0166,-346.4035 1280.5,-333 1221.4391,-292.4384 1216.2063,-267.7862 1152.5,-235 1050.3043,-182.4054 919.3752,-149.5568 844.1122,-133.6077"/>
<polygon fill="#191970" stroke="#191970" points="844.8235,-130.1808 834.319,-131.5614 843.3917,-137.0328 844.8235,-130.1808"/>
</g>
<!-- Node32 -->
<g id="node33" class="node">
<title>Node32</title>
<g id="a_node33"><a xlink:href="TransformSemantics_8h.html" target="_top" xlink:title="iDynTree/Core/TransformSemantics.h">
<polygon fill="none" stroke="#000000" points="882,-112.5 882,-131.5 1079,-131.5 1079,-112.5 882,-112.5"/>
<text text-anchor="middle" x="980.5" y="-119.5" font-family="FreeSans.ttf" font-size="10.00" fill="#000000">iDynTree/Core/TransformSemantics.h</text>
</a>
</g>
</g>
<!-- Node31&#45;&gt;Node32 -->
<g id="edge61" class="edge">
<title>Node31&#45;&gt;Node32</title>
<path fill="none" stroke="#191970" d="M1346.7964,-369.3814C1312.8082,-332.0099 1188.4493,-197.0882 1138.5,-168 1110.5522,-151.7245 1076.426,-140.8481 1047.0505,-133.7785"/>
<polygon fill="#191970" stroke="#191970" points="1047.8173,-130.3635 1037.2863,-131.5246 1046.2428,-137.1842 1047.8173,-130.3635"/>
</g>
<!-- Node32&#45;&gt;Node2 -->
<g id="edge62" class="edge">
<title>Node32&#45;&gt;Node2</title>
<path fill="none" stroke="#191970" d="M1072.7499,-112.4686C1196.3831,-99.6947 1409.6108,-77.6638 1490.3019,-69.3267"/>
<polygon fill="#191970" stroke="#191970" points="1490.7616,-72.798 1500.3489,-68.2887 1490.0421,-65.835 1490.7616,-72.798"/>
</g>
<!-- Node32&#45;&gt;Node4 -->
<g id="edge63" class="edge">
<title>Node32&#45;&gt;Node4</title>
<path fill="none" stroke="#191970" d="M928.7567,-112.4369C876.247,-102.7321 794.9556,-87.708 739.1423,-77.3926"/>
<polygon fill="#191970" stroke="#191970" points="739.4994,-73.8994 729.0299,-75.5237 738.2272,-80.7829 739.4994,-73.8994"/>
</g>
<!-- Node34 -->
<g id="node35" class="node">
<title>Node34</title>
<g id="a_node35"><a xlink:href="SpatialMotionVector_8h.html" target="_top" xlink:title="iDynTree/Core/SpatialMotion\lVector.h">
<polygon fill="none" stroke="#ff0000" points="991,-302.5 991,-332.5 1146,-332.5 1146,-302.5 991,-302.5"/>
<text text-anchor="start" x="999" y="-320.5" font-family="FreeSans.ttf" font-size="10.00" fill="#000000">iDynTree/Core/SpatialMotion</text>
<text text-anchor="middle" x="1068.5" y="-309.5" font-family="FreeSans.ttf" font-size="10.00" fill="#000000">Vector.h</text>
</a>
</g>
</g>
<!-- Node33&#45;&gt;Node34 -->
<g id="edge67" class="edge">
<title>Node33&#45;&gt;Node34</title>
<path fill="none" stroke="#191970" d="M914.0938,-369.3906C940.8098,-360.4123 981.3935,-346.7735 1014.2498,-335.7316"/>
<polygon fill="#191970" stroke="#191970" points="1015.3691,-339.0479 1023.7332,-332.5446 1013.1391,-332.4126 1015.3691,-339.0479"/>
</g>
<!-- Node34&#45;&gt;Node3 -->
<g id="edge68" class="edge">
<title>Node34&#45;&gt;Node3</title>
<path fill="none" stroke="#191970" d="M1037.1503,-302.389C982.8763,-276.2281 872.183,-222.8724 819.5504,-197.5027"/>
<polygon fill="#191970" stroke="#191970" points="820.9529,-194.2934 810.4251,-193.1042 817.9135,-200.5991 820.9529,-194.2934"/>
</g>
<!-- Node35 -->
<g id="node36" class="node">
<title>Node35</title>
<g id="a_node36"><a xlink:href="LinearMotionVector3_8h.html" target="_top" xlink:title="iDynTree/Core/LinearMotion\lVector3.h">
<polygon fill="none" stroke="#ff0000" points="993,-235.5 993,-265.5 1144,-265.5 1144,-235.5 993,-235.5"/>
<text text-anchor="start" x="1001" y="-253.5" font-family="FreeSans.ttf" font-size="10.00" fill="#000000">iDynTree/Core/LinearMotion</text>
<text text-anchor="middle" x="1068.5" y="-242.5" font-family="FreeSans.ttf" font-size="10.00" fill="#000000">Vector3.h</text>
</a>
</g>
</g>
<!-- Node34&#45;&gt;Node35 -->
<g id="edge69" class="edge">
<title>Node34&#45;&gt;Node35</title>
<path fill="none" stroke="#191970" d="M1068.5,-302.2967C1068.5,-294.5013 1068.5,-284.7991 1068.5,-275.9064"/>
<polygon fill="#191970" stroke="#191970" points="1072.0001,-275.6431 1068.5,-265.6432 1065.0001,-275.6432 1072.0001,-275.6431"/>
</g>
<!-- Node43&#45;&gt;Node34 -->
<g id="edge71" class="edge">
<title>Node43&#45;&gt;Node34</title>
<path fill="none" stroke="#191970" d="M1171.4375,-369.3906C1154.3912,-360.7976 1128.8764,-347.9356 1107.5144,-337.1671"/>
<polygon fill="#191970" stroke="#191970" points="1108.8497,-333.9207 1098.3446,-332.5446 1105.6986,-340.1714 1108.8497,-333.9207"/>
</g>
<!-- Node45 -->
<g id="node39" class="node">
<title>Node45</title>
<g id="a_node39"><a xlink:href="SpatialForceVector_8h.html" target="_top" xlink:title="iDynTree/Core/SpatialForce\lVector.h">
<polygon fill="none" stroke="#ff0000" points="824.5,-302.5 824.5,-332.5 972.5,-332.5 972.5,-302.5 824.5,-302.5"/>
<text text-anchor="start" x="832.5" y="-320.5" font-family="FreeSans.ttf" font-size="10.00" fill="#000000">iDynTree/Core/SpatialForce</text>
<text text-anchor="middle" x="898.5" y="-309.5" font-family="FreeSans.ttf" font-size="10.00" fill="#000000">Vector.h</text>
</a>
</g>
</g>
<!-- Node44&#45;&gt;Node45 -->
<g id="edge73" class="edge">
<title>Node44&#45;&gt;Node45</title>
<path fill="none" stroke="#191970" d="M1010.7188,-369.3906C991.9688,-360.7205 963.8205,-347.7046 940.4066,-336.8779"/>
<polygon fill="#191970" stroke="#191970" points="941.5811,-333.5649 931.0355,-332.5446 938.6431,-339.9185 941.5811,-333.5649"/>
</g>
<!-- Node45&#45;&gt;Node3 -->
<g id="edge74" class="edge">
<title>Node45&#45;&gt;Node3</title>
<path fill="none" stroke="#191970" d="M886.321,-302.389C866.1985,-277.4222 826.1129,-227.6864 804.7223,-201.1462"/>
<polygon fill="#191970" stroke="#191970" points="807.2411,-198.6938 798.2407,-193.1042 801.7909,-203.0865 807.2411,-198.6938"/>
</g>
<!-- Node49&#45;&gt;Node2 -->
<g id="edge77" class="edge">
<title>Node49&#45;&gt;Node2</title>
<path fill="none" stroke="#191970" d="M1555.4537,-168.3095C1558.5808,-153.5532 1561.514,-130.7003 1555.5,-112 1552.1054,-101.4445 1545.2942,-91.2592 1538.7369,-83.1676"/>
<polygon fill="#191970" stroke="#191970" points="1541.3431,-80.8307 1532.1492,-75.5654 1536.053,-85.4149 1541.3431,-80.8307"/>
</g>
<!-- Node49&#45;&gt;Node22 -->
<g id="edge76" class="edge">
<title>Node49&#45;&gt;Node22</title>
<path fill="none" stroke="#191970" d="M1480.558,-177.7355C1443.832,-174.7758 1398.2625,-171.1412 1357.5,-168 1145.2525,-151.6439 1089.3947,-152.0543 874.0591,-132.1185"/>
<polygon fill="#191970" stroke="#191970" points="874.2973,-128.6257 864.0162,-131.1848 873.6492,-135.5956 874.2973,-128.6257"/>
</g>
<!-- Node50&#45;&gt;Node28 -->
<g id="edge82" class="edge">
<title>Node50&#45;&gt;Node28</title>
<path fill="none" stroke="#191970" d="M1961.9613,-430.9204C1950.9591,-428.8845 1939.3447,-426.8063 1928.5,-425 1826.6862,-408.0423 1705.7313,-391.2696 1648.1739,-383.4924"/>
<polygon fill="#191970" stroke="#191970" points="1648.5611,-380.013 1638.1833,-382.1469 1647.6267,-386.9504 1648.5611,-380.013"/>
</g>
<!-- Node50&#45;&gt;Node29 -->
<g id="edge81" class="edge">
<title>Node50&#45;&gt;Node29</title>
<path fill="none" stroke="#191970" d="M1996.0313,-430.8906C1980.0479,-420.9616 1954.8897,-405.333 1936.3567,-393.8201"/>
<polygon fill="#191970" stroke="#191970" points="1938.2015,-390.8457 1927.8601,-388.5419 1934.5076,-396.7918 1938.2015,-390.8457"/>
</g>
<!-- Node51&#45;&gt;Node26 -->
<g id="edge86" class="edge">
<title>Node51&#45;&gt;Node26</title>
<path fill="none" stroke="#191970" d="M939.4202,-497.3232C871.0141,-487.5122 776.7624,-471.857 742.5,-456 725.7694,-448.2569 688.0168,-415.5817 665.4651,-395.3662"/>
<polygon fill="#191970" stroke="#191970" points="667.6808,-392.6513 657.9114,-388.5513 662.9918,-397.8487 667.6808,-392.6513"/>
</g>
<!-- Node51&#45;&gt;Node28 -->
<g id="edge94" class="edge">
<title>Node51&#45;&gt;Node28</title>
<path fill="none" stroke="#191970" d="M1093.5971,-501.8622C1191.7066,-493.9286 1355.2009,-477.9471 1411.5,-456 1433.788,-447.3114 1433.9359,-435.3554 1455.5,-425 1466.8913,-419.5298 1537.6942,-399.8597 1580.887,-388.0858"/>
<polygon fill="#191970" stroke="#191970" points="1581.9669,-391.4193 1590.6979,-385.4177 1580.1299,-384.6646 1581.9669,-391.4193"/>
</g>
<!-- Node51&#45;&gt;Node29 -->
<g id="edge87" class="edge">
<title>Node51&#45;&gt;Node29</title>
<path fill="none" stroke="#191970" d="M1093.8314,-500.1069C1180.2876,-491.4125 1324.3381,-475.6434 1447.5,-456 1516.8763,-444.935 1533.2877,-437.0485 1602.5,-425 1680.6949,-411.3878 1770.435,-398.3521 1833.1713,-389.6561"/>
<polygon fill="#191970" stroke="#191970" points="1833.964,-393.0799 1843.3911,-388.2447 1833.0063,-386.1457 1833.964,-393.0799"/>
</g>
<!-- Node51&#45;&gt;Node30 -->
<g id="edge88" class="edge">
<title>Node51&#45;&gt;Node30</title>
<path fill="none" stroke="#191970" d="M1028.9804,-492.2967C1037.3832,-482.0605 1048.4849,-468.5366 1057.2373,-457.8746"/>
<polygon fill="#191970" stroke="#191970" points="1060.0167,-460.005 1063.6564,-450.055 1054.6061,-455.5635 1060.0167,-460.005"/>
</g>
<!-- Node51&#45;&gt;Node31 -->
<g id="edge84" class="edge">
<title>Node51&#45;&gt;Node31</title>
<path fill="none" stroke="#191970" d="M1003.0977,-492.3749C988.8122,-474.3807 970.4192,-444.3488 987.5,-425 988.0891,-424.3326 1163.7339,-402.6042 1272.1177,-389.2531"/>
<polygon fill="#191970" stroke="#191970" points="1272.5672,-392.7242 1282.0644,-388.028 1271.7115,-385.7767 1272.5672,-392.7242"/>
</g>
<!-- Node51&#45;&gt;Node33 -->
<g id="edge85" class="edge">
<title>Node51&#45;&gt;Node33</title>
<path fill="none" stroke="#191970" d="M997.2531,-492.3414C984.9574,-482.3957 968.871,-468.8896 955.5,-456 935.4165,-436.6397 914.0945,-412.6219 900.3341,-396.6081"/>
<polygon fill="#191970" stroke="#191970" points="902.6732,-393.9567 893.5233,-388.6153 897.3452,-398.4968 902.6732,-393.9567"/>
</g>
<!-- Node52 -->
<g id="node43" class="node">
<title>Node52</title>
<g id="a_node43"><a xlink:href="JointState_8h.html" target="_top" xlink:title="iDynTree/Model/JointState.h">
<polygon fill="none" stroke="#000000" points="752,-431 752,-450 903,-450 903,-431 752,-431"/>
<text text-anchor="middle" x="827.5" y="-438" font-family="FreeSans.ttf" font-size="10.00" fill="#000000">iDynTree/Model/JointState.h</text>
</a>
</g>
</g>
<!-- Node51&#45;&gt;Node52 -->
<g id="edge89" class="edge">
<title>Node51&#45;&gt;Node52</title>
<path fill="none" stroke="#191970" d="M974.0847,-492.4639C940.9891,-480.7316 895.4988,-464.6054 864.0112,-453.4431"/>
<polygon fill="#191970" stroke="#191970" points="864.9082,-450.0477 854.3134,-450.0053 862.5693,-456.6454 864.9082,-450.0477"/>
</g>
<!-- Node52&#45;&gt;Node3 -->
<g id="edge90" class="edge">
<title>Node52&#45;&gt;Node3</title>
<path fill="none" stroke="#191970" d="M822.8019,-430.8929C818.0713,-420.7428 810.9891,-404.1415 807.5,-389 792.1224,-322.2666 790.2341,-240.518 790.262,-203.4577"/>
<polygon fill="#191970" stroke="#191970" points="793.7641,-203.0917 790.3237,-193.0711 786.7642,-203.0501 793.7641,-203.0917"/>
</g>
<!-- Node52&#45;&gt;Node26 -->
<g id="edge91" class="edge">
<title>Node52&#45;&gt;Node26</title>
<path fill="none" stroke="#191970" d="M799.375,-430.8906C768.5972,-420.3749 719.1079,-403.466 685.0345,-391.8243"/>
<polygon fill="#191970" stroke="#191970" points="686.022,-388.4631 675.4275,-388.5419 683.7588,-395.0871 686.022,-388.4631"/>
</g>
<!-- Node52&#45;&gt;Node28 -->
<g id="edge93" class="edge">
<title>Node52&#45;&gt;Node28</title>
<path fill="none" stroke="#191970" d="M903.1491,-432.6735C929.7936,-430.049 959.9611,-427.2265 987.5,-425 1233.8811,-405.0802 1296.5844,-414.0192 1542.5,-389 1555.0267,-387.7255 1568.7257,-385.9255 1580.7805,-384.2032"/>
<polygon fill="#191970" stroke="#191970" points="1581.4924,-387.6364 1590.8799,-382.7248 1580.4784,-380.7102 1581.4924,-387.6364"/>
</g>
<!-- Node52&#45;&gt;Node45 -->
<g id="edge92" class="edge">
<title>Node52&#45;&gt;Node45</title>
<path fill="none" stroke="#191970" d="M822.0426,-430.5714C814.8923,-416.1037 804.4847,-388.7982 815.5,-369 822.9359,-355.6351 835.4338,-345.2953 848.5042,-337.5077"/>
<polygon fill="#191970" stroke="#191970" points="850.5089,-340.3999 857.5892,-332.5184 847.1393,-334.2643 850.5089,-340.3999"/>
</g>
<!-- Node53&#45;&gt;Node2 -->
<g id="edge96" class="edge">
<title>Node53&#45;&gt;Node2</title>
<path fill="none" stroke="#191970" d="M1526.0924,-565.9358C1633.5566,-560.8595 1836.45,-548.6129 2007.5,-523 2145.6162,-502.3186 2214.4218,-553.4072 2314.5,-456 2339.7594,-431.4148 2333.5,-414.2487 2333.5,-379 2333.5,-379 2333.5,-379 2333.5,-183.5 2333.5,-103.3523 1705.117,-73.2613 1554.6085,-67.2035"/>
<polygon fill="#191970" stroke="#191970" points="1554.7433,-63.7062 1544.6129,-66.8085 1554.4669,-70.7007 1554.7433,-63.7062"/>
</g>
<!-- Node53&#45;&gt;Node10 -->
<g id="edge98" class="edge">
<title>Node53&#45;&gt;Node10</title>
<path fill="none" stroke="#191970" d="M1374.9793,-565.5908C1221.0161,-558.3759 875.532,-540.7622 758.5,-523 631.9912,-503.7995 592.3862,-514.3358 478.5,-456 278.5052,-353.5568 93.0745,-144.915 40.979,-83.4245"/>
<polygon fill="#191970" stroke="#191970" points="43.6405,-81.1514 34.5254,-75.751 38.2833,-85.657 43.6405,-81.1514"/>
</g>
<!-- Node53&#45;&gt;Node26 -->
<g id="edge99" class="edge">
<title>Node53&#45;&gt;Node26</title>
<path fill="none" stroke="#191970" d="M1374.9585,-566.9064C1273.2064,-563.0453 1086.8344,-552.2992 930.5,-523 825.4314,-503.3087 785.9041,-518.9404 699.5,-456 679.0094,-441.0738 664.0799,-415.4553 655.6059,-397.8974"/>
<polygon fill="#191970" stroke="#191970" points="658.711,-396.2715 651.3692,-388.6329 652.3451,-399.1827 658.711,-396.2715"/>
</g>
<!-- Node53&#45;&gt;Node28 -->
<g id="edge97" class="edge">
<title>Node53&#45;&gt;Node28</title>
<path fill="none" stroke="#191970" d="M1473.3509,-559.4483C1489.6671,-551.6597 1511.1763,-539.288 1525.5,-523 1557.0291,-487.1472 1542.6123,-464.4532 1569.5,-425 1576.8219,-414.2563 1586.7862,-403.7746 1595.4774,-395.5369"/>
<polygon fill="#191970" stroke="#191970" points="1597.977,-397.9937 1602.9889,-388.6593 1593.2499,-392.8309 1597.977,-397.9937"/>
</g>
<!-- Node53&#45;&gt;Node29 -->
<g id="edge114" class="edge">
<title>Node53&#45;&gt;Node29</title>
<path fill="none" stroke="#191970" d="M1526.1881,-567.3944C1680.4274,-562.3562 2022.6392,-541.5678 2094.5,-456 2128.586,-415.4124 2055.2555,-395.7702 1991.7385,-386.5745"/>
<polygon fill="#191970" stroke="#191970" points="1992.0302,-383.0817 1981.6466,-385.1867 1991.0766,-390.0165 1992.0302,-383.0817"/>
</g>
<!-- Node54 -->
<g id="node45" class="node">
<title>Node54</title>
<g id="a_node45"><a xlink:href="Model_8h.html" target="_top" xlink:title="iDynTree/Model/Model.h">
<polygon fill="none" stroke="#000000" points="1384,-498 1384,-517 1517,-517 1517,-498 1384,-498"/>
<text text-anchor="middle" x="1450.5" y="-505" font-family="FreeSans.ttf" font-size="10.00" fill="#000000">iDynTree/Model/Model.h</text>
</a>
</g>
</g>
<!-- Node53&#45;&gt;Node54 -->
<g id="edge100" class="edge">
<title>Node53&#45;&gt;Node54</title>
<path fill="none" stroke="#191970" d="M1450.5,-559.3906C1450.5,-550.8657 1450.5,-538.1392 1450.5,-527.4235"/>
<polygon fill="#191970" stroke="#191970" points="1454.0001,-527.2448 1450.5,-517.2449 1447.0001,-527.2449 1454.0001,-527.2448"/>
</g>
<!-- Node54&#45;&gt;Node28 -->
<g id="edge113" class="edge">
<title>Node54&#45;&gt;Node28</title>
<path fill="none" stroke="#191970" d="M1458.2519,-497.9656C1471.8608,-481.6303 1501.4663,-447.8471 1531.5,-425 1547.8317,-412.5762 1567.9193,-401.3526 1584.2419,-393.1022"/>
<polygon fill="#191970" stroke="#191970" points="1585.9424,-396.1661 1593.3605,-388.6015 1582.8441,-389.889 1585.9424,-396.1661"/>
</g>
<!-- Node54&#45;&gt;Node29 -->
<g id="edge106" class="edge">
<title>Node54&#45;&gt;Node29</title>
<path fill="none" stroke="#191970" d="M1517.1339,-499.8025C1591.0092,-490.5738 1704.9728,-474.0731 1744.5,-456 1764.3221,-446.9367 1763.5011,-435.682 1782.5,-425 1808.3842,-410.4467 1839.7037,-399.1974 1865.1153,-391.4667"/>
<polygon fill="#191970" stroke="#191970" points="1866.299,-394.7666 1874.8961,-388.5746 1864.3141,-388.0539 1866.299,-394.7666"/>
</g>
<!-- Node54&#45;&gt;Node31 -->
<g id="edge105" class="edge">
<title>Node54&#45;&gt;Node31</title>
<path fill="none" stroke="#191970" d="M1383.8059,-501.9917C1322.2004,-495.3561 1237.1864,-481.7342 1216.5,-456 1190.3855,-423.513 1243.5149,-402.5519 1291.4456,-390.8278"/>
<polygon fill="#191970" stroke="#191970" points="1292.3097,-394.2202 1301.2503,-388.5354 1290.716,-387.404 1292.3097,-394.2202"/>
</g>
<!-- Node55 -->
<g id="node46" class="node">
<title>Node55</title>
<g id="a_node46"><a xlink:href="IJoint_8h.html" target="_top" xlink:title="iDynTree/Model/IJoint.h">
<polygon fill="none" stroke="#000000" points="1791.5,-431 1791.5,-450 1919.5,-450 1919.5,-431 1791.5,-431"/>
<text text-anchor="middle" x="1855.5" y="-438" font-family="FreeSans.ttf" font-size="10.00" fill="#000000">iDynTree/Model/IJoint.h</text>
</a>
</g>
</g>
<!-- Node54&#45;&gt;Node55 -->
<g id="edge101" class="edge">
<title>Node54&#45;&gt;Node55</title>
<path fill="none" stroke="#191970" d="M1516.0828,-497.9585C1582.1969,-488.1548 1687.112,-472.0919 1777.5,-456 1784.5087,-454.7522 1791.8585,-453.3783 1799.1275,-451.9796"/>
<polygon fill="#191970" stroke="#191970" points="1799.8037,-455.4138 1808.9502,-450.0665 1798.4655,-448.5429 1799.8037,-455.4138"/>
</g>
<!-- Node56 -->
<g id="node47" class="node">
<title>Node56</title>
<g id="a_node47"><a xlink:href="Link_8h.html" target="_top" xlink:title="iDynTree/Model/Link.h">
<polygon fill="none" stroke="#ff0000" points="1611.5,-431 1611.5,-450 1735.5,-450 1735.5,-431 1611.5,-431"/>
<text text-anchor="middle" x="1673.5" y="-438" font-family="FreeSans.ttf" font-size="10.00" fill="#000000">iDynTree/Model/Link.h</text>
</a>
</g>
</g>
<!-- Node54&#45;&gt;Node56 -->
<g id="edge103" class="edge">
<title>Node54&#45;&gt;Node56</title>
<path fill="none" stroke="#191970" d="M1482.4505,-497.9005C1521.7792,-486.0843 1588.6599,-465.9901 1631.947,-452.9845"/>
<polygon fill="#191970" stroke="#191970" points="1633.0388,-456.3111 1641.6088,-450.0817 1631.0246,-449.6072 1633.0388,-456.3111"/>
</g>
<!-- Node61 -->
<g id="node48" class="node">
<title>Node61</title>
<g id="a_node48"><a xlink:href="SolidShapes_8h.html" target="_top" xlink:title="iDynTree/Model/SolidShapes.h">
<polygon fill="none" stroke="#000000" points="1240,-431 1240,-450 1403,-450 1403,-431 1240,-431"/>
<text text-anchor="middle" x="1321.5" y="-438" font-family="FreeSans.ttf" font-size="10.00" fill="#000000">iDynTree/Model/SolidShapes.h</text>
</a>
</g>
</g>
<!-- Node54&#45;&gt;Node61 -->
<g id="edge107" class="edge">
<title>Node54&#45;&gt;Node61</title>
<path fill="none" stroke="#191970" d="M1432.0174,-497.9005C1410.2725,-486.6067 1373.9677,-467.7506 1348.936,-454.7497"/>
<polygon fill="#191970" stroke="#191970" points="1350.4359,-451.5849 1339.9483,-450.0817 1347.2095,-457.797 1350.4359,-451.5849"/>
</g>
<!-- Node62 -->
<g id="node49" class="node">
<title>Node62</title>
<polygon fill="none" stroke="#bfbfbf" points="1485,-369.5 1485,-388.5 1534,-388.5 1534,-369.5 1485,-369.5"/>
<text text-anchor="middle" x="1509.5" y="-376.5" font-family="FreeSans.ttf" font-size="10.00" fill="#000000">cstdlib</text>
</g>
<!-- Node54&#45;&gt;Node62 -->
<g id="edge112" class="edge">
<title>Node54&#45;&gt;Node62</title>
<path fill="none" stroke="#191970" d="M1383.681,-504.1392C1303.1439,-497.675 1184.0501,-478.9371 1230.5,-425 1265.6924,-384.1351 1417.6444,-399.7114 1470.5,-389 1471.9558,-388.705 1473.4386,-388.39 1474.9339,-388.0605"/>
<polygon fill="#191970" stroke="#191970" points="1475.8984,-391.4292 1484.8302,-385.7307 1474.2943,-384.6155 1475.8984,-391.4292"/>
</g>
<!-- Node55&#45;&gt;Node29 -->
<g id="edge102" class="edge">
<title>Node55&#45;&gt;Node29</title>
<path fill="none" stroke="#191970" d="M1864.4063,-430.8906C1872.9728,-421.6478 1886.1169,-407.466 1896.5003,-396.2628"/>
<polygon fill="#191970" stroke="#191970" points="1899.2375,-398.4584 1903.4682,-388.7449 1894.1035,-393.7 1899.2375,-398.4584"/>
</g>
<!-- Node56&#45;&gt;Node29 -->
<g id="edge104" class="edge">
<title>Node56&#45;&gt;Node29</title>
<path fill="none" stroke="#191970" d="M1710.5815,-430.9581C1752.2698,-420.2308 1820.0497,-402.7895 1865.4384,-391.11"/>
<polygon fill="#191970" stroke="#191970" points="1866.5192,-394.446 1875.3315,-388.5643 1864.7747,-387.6668 1866.5192,-394.446"/>
</g>
<!-- Node61&#45;&gt;Node2 -->
<g id="edge109" class="edge">
<title>Node61&#45;&gt;Node2</title>
<path fill="none" stroke="#191970" d="M1375.2476,-430.9889C1436.7383,-419.6442 1530.5307,-400.743 1542.5,-389 1592.8995,-339.5533 1542.0658,-293.5664 1581.5,-235 1596.5931,-212.5842 1618.2956,-223.1107 1630.5,-199 1636.7223,-186.7073 1635.9381,-180.6592 1630.5,-168 1613.8363,-129.2089 1574.323,-98.3203 1547.9962,-81.0893"/>
<polygon fill="#191970" stroke="#191970" points="1549.6132,-77.9704 1539.2931,-75.5734 1545.866,-83.883 1549.6132,-77.9704"/>
</g>
<!-- Node61&#45;&gt;Node28 -->
<g id="edge110" class="edge">
<title>Node61&#45;&gt;Node28</title>
<path fill="none" stroke="#191970" d="M1373.4597,-430.9218C1425.124,-421.183 1506.5515,-405.2527 1576.5,-389 1577.9536,-388.6623 1579.4362,-388.3092 1580.9322,-387.946"/>
<polygon fill="#191970" stroke="#191970" points="1581.9923,-391.2884 1590.8361,-385.4543 1580.2843,-384.5 1581.9923,-391.2884"/>
</g>
<!-- Node61&#45;&gt;Node31 -->
<g id="edge111" class="edge">
<title>Node61&#45;&gt;Node31</title>
<path fill="none" stroke="#191970" d="M1326.8125,-430.8906C1331.7239,-422.0068 1339.1579,-408.5601 1345.2275,-397.5811"/>
<polygon fill="#191970" stroke="#191970" points="1348.3373,-399.1899 1350.1126,-388.7449 1342.2112,-395.8031 1348.3373,-399.1899"/>
</g>
<!-- Node61&#45;&gt;Node62 -->
<g id="edge108" class="edge">
<title>Node61&#45;&gt;Node62</title>
<path fill="none" stroke="#191970" d="M1350.875,-430.8906C1384.4306,-419.9137 1439.2812,-401.9705 1474.884,-390.3238"/>
<polygon fill="#191970" stroke="#191970" points="1476.4095,-393.5074 1484.8257,-387.0716 1474.2331,-386.8543 1476.4095,-393.5074"/>
</g>
<!-- Node63&#45;&gt;Node28 -->
<g id="edge116" class="edge">
<title>Node63&#45;&gt;Node28</title>
<path fill="none" stroke="#191970" d="M2141.2983,-430.3232C2125.7614,-428.4848 2109.6379,-426.6346 2094.5,-425 1927.5659,-406.9747 1727.5745,-388.9583 1648.7906,-382.001"/>
<polygon fill="#191970" stroke="#191970" points="1648.7629,-378.4851 1638.4943,-381.0938 1648.1485,-385.4581 1648.7629,-378.4851"/>
</g>
<!-- Node63&#45;&gt;Node29 -->
<g id="edge117" class="edge">
<title>Node63&#45;&gt;Node29</title>
<path fill="none" stroke="#191970" d="M2147.4208,-425.4554C2092.9124,-414.6764 2020.6063,-400.3779 1970.6808,-390.5052"/>
<polygon fill="#191970" stroke="#191970" points="1971.183,-387.0368 1960.694,-388.5303 1969.825,-393.9038 1971.183,-387.0368"/>
</g>
</g>
</svg>
