<?xml version="1.0" encoding="UTF-8" standalone="no"?>
<!DOCTYPE svg PUBLIC "-//W3C//DTD SVG 1.1//EN"
 "http://www.w3.org/Graphics/SVG/1.1/DTD/svg11.dtd">
<!-- Generated by graphviz version 2.40.1 (20161225.0304)
 -->
<!-- Title: idyntree&#45;model&#45;info.cpp Pages: 1 -->
<svg width="2049pt" height="677pt"
 viewBox="0.00 0.00 2048.50 677.00" xmlns="http://www.w3.org/2000/svg" xmlns:xlink="http://www.w3.org/1999/xlink">
<g id="graph0" class="graph" transform="scale(1 1) rotate(0) translate(4 673)">
<title>idyntree&#45;model&#45;info.cpp</title>
<!-- Node0 -->
<g id="node1" class="node">
<title>Node0</title>
<polygon fill="#bfbfbf" stroke="#000000" points="1343.5,-649.5 1343.5,-668.5 1477.5,-668.5 1477.5,-649.5 1343.5,-649.5"/>
<text text-anchor="middle" x="1410.5" y="-656.5" font-family="FreeSans.ttf" font-size="10.00" fill="#000000">idyntree&#45;model&#45;info.cpp</text>
</g>
<!-- Node1 -->
<g id="node2" class="node">
<title>Node1</title>
<g id="a_node2"><a xlink:href="Model_8h.html" target="_top" xlink:title="iDynTree/Model/Model.h">
<polygon fill="none" stroke="#000000" points="1081,-481.5 1081,-500.5 1214,-500.5 1214,-481.5 1081,-481.5"/>
<text text-anchor="middle" x="1147.5" y="-488.5" font-family="FreeSans.ttf" font-size="10.00" fill="#000000">iDynTree/Model/Model.h</text>
</a>
</g>
</g>
<!-- Node0&#45;&gt;Node1 -->
<g id="edge1" class="edge">
<title>Node0&#45;&gt;Node1</title>
<path fill="none" stroke="#191970" d="M1395.6064,-649.4862C1352.04,-621.6567 1224.5686,-540.2301 1171.3121,-506.2108"/>
<polygon fill="#191970" stroke="#191970" points="1172.8677,-503.0514 1162.5562,-500.6177 1169.0994,-508.9505 1172.8677,-503.0514"/>
</g>
<!-- Node14 -->
<g id="node33" class="node">
<title>Node14</title>
<polygon fill="none" stroke="#bfbfbf" points="1972.5,-56.5 1972.5,-75.5 2032.5,-75.5 2032.5,-56.5 1972.5,-56.5"/>
<text text-anchor="middle" x="2002.5" y="-63.5" font-family="FreeSans.ttf" font-size="10.00" fill="#000000">iostream</text>
</g>
<!-- Node0&#45;&gt;Node14 -->
<g id="edge111" class="edge">
<title>Node0&#45;&gt;Node14</title>
<path fill="none" stroke="#191970" d="M1477.6225,-654.0505C1639.9534,-641.1835 2040.5,-603.6906 2040.5,-547 2040.5,-547 2040.5,-547 2040.5,-183.5 2040.5,-147.2454 2023.9195,-107.6181 2012.663,-84.8929"/>
<polygon fill="#191970" stroke="#191970" points="2015.6292,-83.0073 2007.9445,-75.7137 2009.4035,-86.2076 2015.6292,-83.0073"/>
</g>
<!-- Node51 -->
<g id="node37" class="node">
<title>Node51</title>
<polygon fill="none" stroke="#bfbfbf" points="1577,-358.5 1577,-377.5 1626,-377.5 1626,-358.5 1577,-358.5"/>
<text text-anchor="middle" x="1601.5" y="-365.5" font-family="FreeSans.ttf" font-size="10.00" fill="#000000">cstdlib</text>
</g>
<!-- Node0&#45;&gt;Node51 -->
<g id="edge112" class="edge">
<title>Node0&#45;&gt;Node51</title>
<path fill="none" stroke="#191970" d="M1449.0602,-649.4979C1516.9026,-631.6442 1650.5,-590.9113 1650.5,-547 1650.5,-547 1650.5,-547 1650.5,-491 1650.5,-451.4026 1628.3122,-409.4006 1613.7976,-386.1603"/>
<polygon fill="#191970" stroke="#191970" points="1616.6821,-384.1753 1608.3132,-377.6781 1610.8038,-387.9761 1616.6821,-384.1753"/>
</g>
<!-- Node53 -->
<g id="node39" class="node">
<title>Node53</title>
<g id="a_node39"><a xlink:href="ModelLoader_8h.html" target="_top" xlink:title="iDynTree/ModelIO/ModelLoader.h">
<polygon fill="none" stroke="#000000" points="939.5,-593.5 939.5,-612.5 1115.5,-612.5 1115.5,-593.5 939.5,-593.5"/>
<text text-anchor="middle" x="1027.5" y="-600.5" font-family="FreeSans.ttf" font-size="10.00" fill="#000000">iDynTree/ModelIO/ModelLoader.h</text>
</a>
</g>
</g>
<!-- Node0&#45;&gt;Node53 -->
<g id="edge66" class="edge">
<title>Node0&#45;&gt;Node53</title>
<path fill="none" stroke="#191970" d="M1345.0951,-649.4369C1277.8952,-639.6113 1173.4031,-624.3331 1102.7979,-614.0096"/>
<polygon fill="#191970" stroke="#191970" points="1103.0363,-610.5073 1092.6351,-612.5237 1102.0235,-617.4337 1103.0363,-610.5073"/>
</g>
<!-- Node57 -->
<g id="node43" class="node">
<title>Node57</title>
<g id="a_node43"><a xlink:href="KinDynComputations_8h.html" target="_top" xlink:title="iDynTree/KinDynComputations.h">
<polygon fill="none" stroke="#000000" points="736,-481.5 736,-500.5 911,-500.5 911,-481.5 736,-481.5"/>
<text text-anchor="middle" x="823.5" y="-488.5" font-family="FreeSans.ttf" font-size="10.00" fill="#000000">iDynTree/KinDynComputations.h</text>
</a>
</g>
</g>
<!-- Node0&#45;&gt;Node57 -->
<g id="edge80" class="edge">
<title>Node0&#45;&gt;Node57</title>
<path fill="none" stroke="#191970" d="M1343.1713,-655.3022C1219.6987,-648.1181 966.3613,-631.3598 930.5,-613 884.738,-589.5714 849.8475,-537.5526 833.5824,-509.6082"/>
<polygon fill="#191970" stroke="#191970" points="836.5822,-507.8023 828.6186,-500.8142 830.4862,-511.2432 836.5822,-507.8023"/>
</g>
<!-- Node62 -->
<g id="node48" class="node">
<title>Node62</title>
<g id="a_node48"><a xlink:href="cmdline_8h.html" target="_top" xlink:title="cmdline.h">
<polygon fill="none" stroke="#000000" points="1724,-420 1724,-439 1789,-439 1789,-420 1724,-420"/>
<text text-anchor="middle" x="1756.5" y="-427" font-family="FreeSans.ttf" font-size="10.00" fill="#000000">cmdline.h</text>
</a>
</g>
</g>
<!-- Node0&#45;&gt;Node62 -->
<g id="edge100" class="edge">
<title>Node0&#45;&gt;Node62</title>
<path fill="none" stroke="#191970" d="M1477.5437,-653.6292C1542.6029,-647.2399 1635.6202,-634.6197 1664.5,-613 1720.0668,-571.4022 1744.3352,-486.8802 1752.7652,-448.8299"/>
<polygon fill="#191970" stroke="#191970" points="1756.1986,-449.5102 1754.8135,-439.0063 1749.3459,-448.0813 1756.1986,-449.5102"/>
</g>
<!-- Node2 -->
<g id="node3" class="node">
<title>Node2</title>
<g id="a_node3"><a xlink:href="IJoint_8h.html" target="_top" xlink:title="iDynTree/Model/IJoint.h">
<polygon fill="none" stroke="#000000" points="565.5,-420 565.5,-439 693.5,-439 693.5,-420 565.5,-420"/>
<text text-anchor="middle" x="629.5" y="-427" font-family="FreeSans.ttf" font-size="10.00" fill="#000000">iDynTree/Model/IJoint.h</text>
</a>
</g>
</g>
<!-- Node1&#45;&gt;Node2 -->
<g id="edge2" class="edge">
<title>Node1&#45;&gt;Node2</title>
<path fill="none" stroke="#191970" d="M1080.9149,-485.9583C994.5243,-478.9779 839.2574,-464.9354 707.5,-445 699.8213,-443.8382 691.7512,-442.4386 683.8324,-440.9618"/>
<polygon fill="#191970" stroke="#191970" points="684.4039,-437.5077 673.9237,-439.062 683.0858,-444.3825 684.4039,-437.5077"/>
</g>
<!-- Node3 -->
<g id="node4" class="node">
<title>Node3</title>
<g id="a_node4"><a xlink:href="Indices_8h.html" target="_top" xlink:title="iDynTree/Model/Indices.h">
<polygon fill="none" stroke="#000000" points="466.5,-358.5 466.5,-377.5 604.5,-377.5 604.5,-358.5 466.5,-358.5"/>
<text text-anchor="middle" x="535.5" y="-365.5" font-family="FreeSans.ttf" font-size="10.00" fill="#000000">iDynTree/Model/Indices.h</text>
</a>
</g>
</g>
<!-- Node1&#45;&gt;Node3 -->
<g id="edge58" class="edge">
<title>Node1&#45;&gt;Node3</title>
<path fill="none" stroke="#191970" d="M1080.9052,-488.0272C981.684,-482.8331 800.3052,-470.1739 740.5,-445 720.4112,-436.544 721.8676,-423.9979 702.5,-414 671.274,-397.8805 633.7595,-386.8925 602.2035,-379.7099"/>
<polygon fill="#191970" stroke="#191970" points="602.7009,-376.2358 592.1829,-377.5099 601.1998,-383.0729 602.7009,-376.2358"/>
</g>
<!-- Node5 -->
<g id="node6" class="node">
<title>Node5</title>
<g id="a_node6"><a xlink:href="Link_8h.html" target="_top" xlink:title="iDynTree/Model/Link.h">
<polygon fill="none" stroke="#000000" points="1029.5,-420 1029.5,-439 1153.5,-439 1153.5,-420 1029.5,-420"/>
<text text-anchor="middle" x="1091.5" y="-427" font-family="FreeSans.ttf" font-size="10.00" fill="#000000">iDynTree/Model/Link.h</text>
</a>
</g>
</g>
<!-- Node1&#45;&gt;Node5 -->
<g id="edge5" class="edge">
<title>Node1&#45;&gt;Node5</title>
<path fill="none" stroke="#191970" d="M1138.75,-481.3906C1130.3338,-472.1478 1117.4203,-457.966 1107.219,-446.7628"/>
<polygon fill="#191970" stroke="#191970" points="1109.694,-444.2824 1100.3734,-439.2449 1104.5182,-448.9953 1109.694,-444.2824"/>
</g>
<!-- Node48 -->
<g id="node26" class="node">
<title>Node48</title>
<g id="a_node26"><a xlink:href="Transform_8h.html" target="_top" xlink:title="iDynTree/Core/Transform.h">
<polygon fill="none" stroke="#000000" points="1336.5,-358.5 1336.5,-377.5 1482.5,-377.5 1482.5,-358.5 1336.5,-358.5"/>
<text text-anchor="middle" x="1409.5" y="-365.5" font-family="FreeSans.ttf" font-size="10.00" fill="#000000">iDynTree/Core/Transform.h</text>
</a>
</g>
</g>
<!-- Node1&#45;&gt;Node48 -->
<g id="edge29" class="edge">
<title>Node1&#45;&gt;Node48</title>
<path fill="none" stroke="#191970" d="M1214.1378,-487.5356C1280.0757,-482.6369 1374.6526,-471.1587 1399.5,-445 1413.8175,-429.9269 1414.5139,-405.0706 1412.8044,-387.6884"/>
<polygon fill="#191970" stroke="#191970" points="1416.2403,-386.9743 1411.4526,-377.523 1409.3014,-387.8971 1416.2403,-386.9743"/>
</g>
<!-- Node50 -->
<g id="node36" class="node">
<title>Node50</title>
<g id="a_node36"><a xlink:href="SolidShapes_8h.html" target="_top" xlink:title="iDynTree/Model/SolidShapes.h">
<polygon fill="none" stroke="#000000" points="1227,-420 1227,-439 1390,-439 1390,-420 1227,-420"/>
<text text-anchor="middle" x="1308.5" y="-427" font-family="FreeSans.ttf" font-size="10.00" fill="#000000">iDynTree/Model/SolidShapes.h</text>
</a>
</g>
</g>
<!-- Node1&#45;&gt;Node50 -->
<g id="edge59" class="edge">
<title>Node1&#45;&gt;Node50</title>
<path fill="none" stroke="#191970" d="M1172.6563,-481.3906C1199.949,-470.9652 1243.692,-454.2559 1274.1397,-442.6252"/>
<polygon fill="#191970" stroke="#191970" points="1275.4277,-445.8799 1283.5204,-439.0419 1272.9298,-439.3408 1275.4277,-445.8799"/>
</g>
<!-- Node1&#45;&gt;Node51 -->
<g id="edge64" class="edge">
<title>Node1&#45;&gt;Node51</title>
<path fill="none" stroke="#191970" d="M1214.1491,-484.1187C1269.8206,-477.3323 1350.8811,-465.0207 1419.5,-445 1476.0976,-428.4867 1538.7198,-399.4471 1573.7757,-382.1389"/>
<polygon fill="#191970" stroke="#191970" points="1575.5161,-385.1821 1582.9044,-377.5884 1572.3932,-378.9174 1575.5161,-385.1821"/>
</g>
<!-- Node52 -->
<g id="node38" class="node">
<title>Node52</title>
<polygon fill="none" stroke="#bfbfbf" points="942,-358.5 942,-377.5 989,-377.5 989,-358.5 942,-358.5"/>
<text text-anchor="middle" x="965.5" y="-365.5" font-family="FreeSans.ttf" font-size="10.00" fill="#000000">vector</text>
</g>
<!-- Node1&#45;&gt;Node52 -->
<g id="edge65" class="edge">
<title>Node1&#45;&gt;Node52</title>
<path fill="none" stroke="#191970" d="M1153.8124,-481.3047C1163.264,-465.4428 1178.3764,-433.7395 1162.5,-414 1117.6486,-358.2353 1074.4044,-393.6399 999.0744,-377.7628"/>
<polygon fill="#191970" stroke="#191970" points="999.7674,-374.3302 989.2302,-375.433 998.1553,-381.142 999.7674,-374.3302"/>
</g>
<!-- Node2&#45;&gt;Node3 -->
<g id="edge3" class="edge">
<title>Node2&#45;&gt;Node3</title>
<path fill="none" stroke="#191970" d="M614.8125,-419.8906C599.7744,-410.0519 576.1824,-394.6167 558.6333,-383.1351"/>
<polygon fill="#191970" stroke="#191970" points="560.3687,-380.088 550.0844,-377.5419 556.5363,-385.9457 560.3687,-380.088"/>
</g>
<!-- Node4 -->
<g id="node5" class="node">
<title>Node4</title>
<polygon fill="none" stroke="#bfbfbf" points="732.5,-56.5 732.5,-75.5 776.5,-75.5 776.5,-56.5 732.5,-56.5"/>
<text text-anchor="middle" x="754.5" y="-63.5" font-family="FreeSans.ttf" font-size="10.00" fill="#000000">string</text>
</g>
<!-- Node3&#45;&gt;Node4 -->
<g id="edge4" class="edge">
<title>Node3&#45;&gt;Node4</title>
<path fill="none" stroke="#191970" d="M510.1075,-358.4004C471.0013,-341.7711 400.5,-303.6575 400.5,-245 400.5,-245 400.5,-245 400.5,-183.5 400.5,-116.0535 634.8959,-80.5708 722.2238,-69.6917"/>
<polygon fill="#191970" stroke="#191970" points="722.852,-73.1411 732.3557,-68.4583 722.006,-66.1924 722.852,-73.1411"/>
</g>
<!-- Node5&#45;&gt;Node3 -->
<g id="edge28" class="edge">
<title>Node5&#45;&gt;Node3</title>
<path fill="none" stroke="#191970" d="M1029.3381,-422.6242C927.8022,-411.3931 726.5179,-389.1288 614.8282,-376.7746"/>
<polygon fill="#191970" stroke="#191970" points="614.9597,-373.2679 604.6355,-375.6472 614.1901,-380.2255 614.9597,-373.2679"/>
</g>
<!-- Node6 -->
<g id="node7" class="node">
<title>Node6</title>
<g id="a_node7"><a xlink:href="SpatialInertia_8h.html" target="_top" xlink:title="iDynTree/Core/SpatialInertia.h">
<polygon fill="none" stroke="#000000" points="1007.5,-358.5 1007.5,-377.5 1169.5,-377.5 1169.5,-358.5 1007.5,-358.5"/>
<text text-anchor="middle" x="1088.5" y="-365.5" font-family="FreeSans.ttf" font-size="10.00" fill="#000000">iDynTree/Core/SpatialInertia.h</text>
</a>
</g>
</g>
<!-- Node5&#45;&gt;Node6 -->
<g id="edge6" class="edge">
<title>Node5&#45;&gt;Node6</title>
<path fill="none" stroke="#191970" d="M1091.0313,-419.8906C1090.6154,-411.3657 1089.9946,-398.6392 1089.4719,-387.9235"/>
<polygon fill="#191970" stroke="#191970" points="1092.9585,-387.5624 1088.9754,-377.7449 1085.9668,-387.9035 1092.9585,-387.5624"/>
</g>
<!-- Node7 -->
<g id="node8" class="node">
<title>Node7</title>
<g id="a_node8"><a xlink:href="SpatialInertiaRaw_8h.html" target="_top" xlink:title="iDynTree/Core/SpatialInertia\lRaw.h">
<polygon fill="none" stroke="#ff0000" points="924,-291.5 924,-321.5 1077,-321.5 1077,-291.5 924,-291.5"/>
<text text-anchor="start" x="932" y="-309.5" font-family="FreeSans.ttf" font-size="10.00" fill="#000000">iDynTree/Core/SpatialInertia</text>
<text text-anchor="middle" x="1000.5" y="-298.5" font-family="FreeSans.ttf" font-size="10.00" fill="#000000">Raw.h</text>
</a>
</g>
</g>
<!-- Node6&#45;&gt;Node7 -->
<g id="edge7" class="edge">
<title>Node6&#45;&gt;Node7</title>
<path fill="none" stroke="#191970" d="M1074.75,-358.3906C1062.9505,-350.1444 1045.5258,-337.9669 1030.5212,-327.4807"/>
<polygon fill="#191970" stroke="#191970" points="1032.2289,-324.4042 1022.0272,-321.5446 1028.219,-330.1419 1032.2289,-324.4042"/>
</g>
<!-- Node16 -->
<g id="node9" class="node">
<title>Node16</title>
<g id="a_node9"><a xlink:href="VectorFixSize_8h.html" target="_top" xlink:title="iDynTree/Core/VectorFixSize.h">
<polygon fill="none" stroke="#000000" points="1347,-174 1347,-193 1508,-193 1508,-174 1347,-174"/>
<text text-anchor="middle" x="1427.5" y="-181" font-family="FreeSans.ttf" font-size="10.00" fill="#000000">iDynTree/Core/VectorFixSize.h</text>
</a>
</g>
</g>
<!-- Node6&#45;&gt;Node16 -->
<g id="edge8" class="edge">
<title>Node6&#45;&gt;Node16</title>
<path fill="none" stroke="#191970" d="M1169.653,-363.2874C1270.67,-356.5774 1432.2305,-342.7379 1450.5,-322 1480.1758,-288.3146 1455.2459,-231.4101 1438.9222,-202.1325"/>
<polygon fill="#191970" stroke="#191970" points="1441.8598,-200.2217 1433.8075,-193.3362 1435.8084,-203.7404 1441.8598,-200.2217"/>
</g>
<!-- Node25 -->
<g id="node22" class="node">
<title>Node25</title>
<g id="a_node22"><a xlink:href="Twist_8h.html" target="_top" xlink:title="iDynTree/Core/Twist.h">
<polygon fill="none" stroke="#ff0000" points="466.5,-297 466.5,-316 588.5,-316 588.5,-297 466.5,-297"/>
<text text-anchor="middle" x="527.5" y="-304" font-family="FreeSans.ttf" font-size="10.00" fill="#000000">iDynTree/Core/Twist.h</text>
</a>
</g>
</g>
<!-- Node6&#45;&gt;Node25 -->
<g id="edge24" class="edge">
<title>Node6&#45;&gt;Node25</title>
<path fill="none" stroke="#191970" d="M1007.0731,-358.8746C1004.1803,-358.5752 1001.3156,-358.2828 998.5,-358 820.4567,-340.1188 774.3289,-349.399 597.5,-322 590.6406,-320.9372 583.448,-319.6019 576.3929,-318.1633"/>
<polygon fill="#191970" stroke="#191970" points="576.7183,-314.6544 566.2095,-316.0013 575.2646,-321.5018 576.7183,-314.6544"/>
</g>
<!-- Node41 -->
<g id="node23" class="node">
<title>Node41</title>
<g id="a_node23"><a xlink:href="SpatialMomentum_8h.html" target="_top" xlink:title="iDynTree/Core/SpatialMomentum.h">
<polygon fill="none" stroke="#ff0000" points="1095.5,-297 1095.5,-316 1281.5,-316 1281.5,-297 1095.5,-297"/>
<text text-anchor="middle" x="1188.5" y="-304" font-family="FreeSans.ttf" font-size="10.00" fill="#000000">iDynTree/Core/SpatialMomentum.h</text>
</a>
</g>
</g>
<!-- Node6&#45;&gt;Node41 -->
<g id="edge25" class="edge">
<title>Node6&#45;&gt;Node41</title>
<path fill="none" stroke="#191970" d="M1104.125,-358.3906C1120.2698,-348.4616 1145.6822,-332.833 1164.4023,-321.3201"/>
<polygon fill="#191970" stroke="#191970" points="1166.3002,-324.2619 1172.9847,-316.0419 1162.6331,-318.2992 1166.3002,-324.2619"/>
</g>
<!-- Node46 -->
<g id="node24" class="node">
<title>Node46</title>
<g id="a_node24"><a xlink:href="SpatialAcc_8h.html" target="_top" xlink:title="iDynTree/Core/SpatialAcc.h">
<polygon fill="none" stroke="#ff0000" points="606.5,-297 606.5,-316 754.5,-316 754.5,-297 606.5,-297"/>
<text text-anchor="middle" x="680.5" y="-304" font-family="FreeSans.ttf" font-size="10.00" fill="#000000">iDynTree/Core/SpatialAcc.h</text>
</a>
</g>
</g>
<!-- Node6&#45;&gt;Node46 -->
<g id="edge26" class="edge">
<title>Node6&#45;&gt;Node46</title>
<path fill="none" stroke="#191970" d="M1015.3431,-358.494C949.5889,-349.7406 850.4311,-336.022 764.5,-322 756.592,-320.7096 748.2803,-319.2734 740.0875,-317.8105"/>
<polygon fill="#191970" stroke="#191970" points="740.6513,-314.3558 730.1882,-316.0208 739.4059,-321.2441 740.6513,-314.3558"/>
</g>
<!-- Node47 -->
<g id="node25" class="node">
<title>Node47</title>
<g id="a_node25"><a xlink:href="Wrench_8h.html" target="_top" xlink:title="iDynTree/Core/Wrench.h">
<polygon fill="none" stroke="#ff0000" points="773,-297 773,-316 906,-316 906,-297 773,-297"/>
<text text-anchor="middle" x="839.5" y="-304" font-family="FreeSans.ttf" font-size="10.00" fill="#000000">iDynTree/Core/Wrench.h</text>
</a>
</g>
</g>
<!-- Node6&#45;&gt;Node47 -->
<g id="edge27" class="edge">
<title>Node6&#45;&gt;Node47</title>
<path fill="none" stroke="#191970" d="M1049.867,-358.4581C1006.2519,-347.6857 935.2247,-330.1428 887.9359,-318.4631"/>
<polygon fill="#191970" stroke="#191970" points="888.7712,-315.0643 878.2237,-316.0643 887.0927,-321.8601 888.7712,-315.0643"/>
</g>
<!-- Node16&#45;&gt;Node4 -->
<g id="edge20" class="edge">
<title>Node16&#45;&gt;Node4</title>
<path fill="none" stroke="#191970" d="M1375.7132,-173.9997C1363.2249,-171.8697 1349.9053,-169.731 1337.5,-168 1188.7531,-147.2442 1146.2049,-172.211 1001.5,-132 981.1923,-126.3568 978.4497,-118.8013 958.5,-112 899.2276,-91.7926 827.2179,-77.933 786.5427,-71.0408"/>
<polygon fill="#191970" stroke="#191970" points="787.1002,-67.5855 776.6619,-69.3997 785.9533,-74.4909 787.1002,-67.5855"/>
</g>
<!-- Node10 -->
<g id="node10" class="node">
<title>Node10</title>
<g id="a_node10"><a xlink:href="Utils_8h.html" target="_top" xlink:title="iDynTree/Core/Utils.h">
<polygon fill="none" stroke="#000000" points="1321,-56.5 1321,-75.5 1440,-75.5 1440,-56.5 1321,-56.5"/>
<text text-anchor="middle" x="1380.5" y="-63.5" font-family="FreeSans.ttf" font-size="10.00" fill="#000000">iDynTree/Core/Utils.h</text>
</a>
</g>
</g>
<!-- Node16&#45;&gt;Node10 -->
<g id="edge9" class="edge">
<title>Node16&#45;&gt;Node10</title>
<path fill="none" stroke="#191970" d="M1384.2389,-173.9422C1361.6803,-166.5254 1336.0328,-153.7104 1322.5,-132 1310.4805,-112.7173 1332.0852,-93.5291 1352.2541,-80.8539"/>
<polygon fill="#191970" stroke="#191970" points="1354.1784,-83.782 1361,-75.6754 1350.612,-77.7587 1354.1784,-83.782"/>
</g>
<!-- Node17 -->
<g id="node12" class="node">
<title>Node17</title>
<g id="a_node12"><a xlink:href="Span_8h.html" target="_top" xlink:title="iDynTree/Core/Span.h">
<polygon fill="none" stroke="#ff0000" points="61,-112.5 61,-131.5 182,-131.5 182,-112.5 61,-112.5"/>
<text text-anchor="middle" x="121.5" y="-119.5" font-family="FreeSans.ttf" font-size="10.00" fill="#000000">iDynTree/Core/Span.h</text>
</a>
</g>
</g>
<!-- Node16&#45;&gt;Node17 -->
<g id="edge11" class="edge">
<title>Node16&#45;&gt;Node17</title>
<path fill="none" stroke="#191970" d="M1379.0873,-173.9483C1365.6681,-171.6325 1351.0614,-169.418 1337.5,-168 1113.1036,-144.5374 416.6598,-128.2046 192.0783,-123.4372"/>
<polygon fill="#191970" stroke="#191970" points="192.1328,-119.9376 182.0611,-123.2256 191.9849,-126.9361 192.1328,-119.9376"/>
</g>
<!-- Node12 -->
<g id="node13" class="node">
<title>Node12</title>
<polygon fill="none" stroke="#bfbfbf" points="1200.5,-56.5 1200.5,-75.5 1252.5,-75.5 1252.5,-56.5 1200.5,-56.5"/>
<text text-anchor="middle" x="1226.5" y="-63.5" font-family="FreeSans.ttf" font-size="10.00" fill="#000000">cassert</text>
</g>
<!-- Node16&#45;&gt;Node12 -->
<g id="edge22" class="edge">
<title>Node16&#45;&gt;Node12</title>
<path fill="none" stroke="#191970" d="M1402.4835,-173.9213C1379.0577,-164.533 1343.4235,-149.1637 1314.5,-132 1289.4661,-117.1445 1263.0449,-96.5804 1245.7639,-82.3727"/>
<polygon fill="#191970" stroke="#191970" points="1247.5398,-79.2969 1237.6159,-75.5863 1243.0598,-84.6756 1247.5398,-79.2969"/>
</g>
<!-- Node15 -->
<g id="node20" class="node">
<title>Node15</title>
<polygon fill="none" stroke="#bfbfbf" points="1745.5,-56.5 1745.5,-75.5 1801.5,-75.5 1801.5,-56.5 1745.5,-56.5"/>
<text text-anchor="middle" x="1773.5" y="-63.5" font-family="FreeSans.ttf" font-size="10.00" fill="#000000">sstream</text>
</g>
<!-- Node16&#45;&gt;Node15 -->
<g id="edge21" class="edge">
<title>Node16&#45;&gt;Node15</title>
<path fill="none" stroke="#191970" d="M1508.133,-175.2292C1580.9104,-166.6747 1681.7297,-151.788 1716.5,-132 1736.3321,-120.7134 1752.5695,-99.8397 1762.5707,-84.5798"/>
<polygon fill="#191970" stroke="#191970" points="1765.6384,-86.2751 1767.9683,-75.9397 1759.7016,-82.5663 1765.6384,-86.2751"/>
</g>
<!-- Node13 -->
<g id="node21" class="node">
<title>Node13</title>
<polygon fill="none" stroke="#bfbfbf" points="1862.5,-56.5 1862.5,-75.5 1912.5,-75.5 1912.5,-56.5 1862.5,-56.5"/>
<text text-anchor="middle" x="1887.5" y="-63.5" font-family="FreeSans.ttf" font-size="10.00" fill="#000000">cstring</text>
</g>
<!-- Node16&#45;&gt;Node13 -->
<g id="edge23" class="edge">
<title>Node16&#45;&gt;Node13</title>
<path fill="none" stroke="#191970" d="M1508.1802,-176.1472C1572.3977,-168.8992 1664.0324,-155.4183 1741.5,-132 1785.0389,-118.8383 1832.5234,-95.5635 1861.1501,-80.4645"/>
<polygon fill="#191970" stroke="#191970" points="1862.9301,-83.4818 1870.1024,-75.6839 1859.6327,-77.3071 1862.9301,-83.4818"/>
</g>
<!-- Node11 -->
<g id="node11" class="node">
<title>Node11</title>
<polygon fill="none" stroke="#bfbfbf" points="729,-.5 729,-19.5 782,-19.5 782,-.5 729,-.5"/>
<text text-anchor="middle" x="755.5" y="-7.5" font-family="FreeSans.ttf" font-size="10.00" fill="#000000">cstddef</text>
</g>
<!-- Node10&#45;&gt;Node11 -->
<g id="edge10" class="edge">
<title>Node10&#45;&gt;Node11</title>
<path fill="none" stroke="#191970" d="M1320.8555,-60.6559C1193.1248,-49.2112 896.3208,-22.6175 792.3089,-13.2981"/>
<polygon fill="#191970" stroke="#191970" points="792.5619,-9.8068 782.2894,-12.4003 791.9371,-16.7789 792.5619,-9.8068"/>
</g>
<!-- Node17&#45;&gt;Node11 -->
<g id="edge15" class="edge">
<title>Node17&#45;&gt;Node11</title>
<path fill="none" stroke="#191970" d="M113.1442,-112.189C102.1191,-98.0294 85.7413,-71.8315 100.5,-56 121.7148,-33.2431 583.1915,-15.8434 718.5177,-11.2163"/>
<polygon fill="#191970" stroke="#191970" points="718.9036,-14.7053 728.7793,-10.8686 718.6665,-7.7093 718.9036,-14.7053"/>
</g>
<!-- Node17&#45;&gt;Node12 -->
<g id="edge12" class="edge">
<title>Node17&#45;&gt;Node12</title>
<path fill="none" stroke="#191970" d="M182.0884,-118.9295C383.7482,-108.7096 1028.6191,-76.0284 1189.7458,-67.8627"/>
<polygon fill="#191970" stroke="#191970" points="1190.265,-71.3409 1200.075,-67.3392 1189.9106,-64.3499 1190.265,-71.3409"/>
</g>
<!-- Node18 -->
<g id="node14" class="node">
<title>Node18</title>
<polygon fill="none" stroke="#bfbfbf" points="1585.5,-56.5 1585.5,-75.5 1649.5,-75.5 1649.5,-56.5 1585.5,-56.5"/>
<text text-anchor="middle" x="1617.5" y="-63.5" font-family="FreeSans.ttf" font-size="10.00" fill="#000000">algorithm</text>
</g>
<!-- Node17&#45;&gt;Node18 -->
<g id="edge13" class="edge">
<title>Node17&#45;&gt;Node18</title>
<path fill="none" stroke="#191970" d="M182.078,-120.4373C370.1414,-115.471 960.682,-99.0106 1449.5,-76 1492.3487,-73.9829 1541.304,-70.9905 1575.2695,-68.8049"/>
<polygon fill="#191970" stroke="#191970" points="1575.5533,-72.2939 1585.3059,-68.1544 1575.1005,-65.3086 1575.5533,-72.2939"/>
</g>
<!-- Node19 -->
<g id="node15" class="node">
<title>Node19</title>
<polygon fill="none" stroke="#bfbfbf" points="109.5,-56.5 109.5,-75.5 151.5,-75.5 151.5,-56.5 109.5,-56.5"/>
<text text-anchor="middle" x="130.5" y="-63.5" font-family="FreeSans.ttf" font-size="10.00" fill="#000000">array</text>
</g>
<!-- Node17&#45;&gt;Node19 -->
<g id="edge14" class="edge">
<title>Node17&#45;&gt;Node19</title>
<path fill="none" stroke="#191970" d="M123.0677,-112.2455C124.2421,-104.9382 125.8884,-94.6944 127.3332,-85.7046"/>
<polygon fill="#191970" stroke="#191970" points="130.8191,-86.0714 128.9503,-75.6427 123.9078,-84.9606 130.8191,-86.0714"/>
</g>
<!-- Node20 -->
<g id="node16" class="node">
<title>Node20</title>
<polygon fill="none" stroke="#bfbfbf" points="0,-56.5 0,-75.5 53,-75.5 53,-56.5 0,-56.5"/>
<text text-anchor="middle" x="26.5" y="-63.5" font-family="FreeSans.ttf" font-size="10.00" fill="#000000">iterator</text>
</g>
<!-- Node17&#45;&gt;Node20 -->
<g id="edge16" class="edge">
<title>Node17&#45;&gt;Node20</title>
<path fill="none" stroke="#191970" d="M104.9523,-112.2455C90.2401,-103.5731 68.5112,-90.7645 51.6495,-80.825"/>
<polygon fill="#191970" stroke="#191970" points="53.2502,-77.7057 42.8581,-75.6427 49.6954,-83.736 53.2502,-77.7057"/>
</g>
<!-- Node21 -->
<g id="node17" class="node">
<title>Node21</title>
<polygon fill="none" stroke="#bfbfbf" points="169.5,-56.5 169.5,-75.5 213.5,-75.5 213.5,-56.5 169.5,-56.5"/>
<text text-anchor="middle" x="191.5" y="-63.5" font-family="FreeSans.ttf" font-size="10.00" fill="#000000">limits</text>
</g>
<!-- Node17&#45;&gt;Node21 -->
<g id="edge17" class="edge">
<title>Node17&#45;&gt;Node21</title>
<path fill="none" stroke="#191970" d="M133.6931,-112.2455C144.1321,-103.8943 159.3655,-91.7076 171.574,-81.9408"/>
<polygon fill="#191970" stroke="#191970" points="173.8244,-84.6227 179.4467,-75.6427 169.4515,-79.1566 173.8244,-84.6227"/>
</g>
<!-- Node22 -->
<g id="node18" class="node">
<title>Node22</title>
<polygon fill="none" stroke="#bfbfbf" points="484,-56.5 484,-75.5 549,-75.5 549,-56.5 484,-56.5"/>
<text text-anchor="middle" x="516.5" y="-63.5" font-family="FreeSans.ttf" font-size="10.00" fill="#000000">stdexcept</text>
</g>
<!-- Node17&#45;&gt;Node22 -->
<g id="edge18" class="edge">
<title>Node17&#45;&gt;Node22</title>
<path fill="none" stroke="#191970" d="M182.3531,-113.3727C262.9398,-101.9478 403.0611,-82.0825 473.4876,-72.098"/>
<polygon fill="#191970" stroke="#191970" points="474.3554,-75.51 483.7651,-70.6409 473.3728,-68.5793 474.3554,-75.51"/>
</g>
<!-- Node23 -->
<g id="node19" class="node">
<title>Node23</title>
<polygon fill="none" stroke="#bfbfbf" points="232,-56.5 232,-75.5 301,-75.5 301,-56.5 232,-56.5"/>
<text text-anchor="middle" x="266.5" y="-63.5" font-family="FreeSans.ttf" font-size="10.00" fill="#000000">type_traits</text>
</g>
<!-- Node17&#45;&gt;Node23 -->
<g id="edge19" class="edge">
<title>Node17&#45;&gt;Node23</title>
<path fill="none" stroke="#191970" d="M146.4264,-112.3733C170.1202,-103.2226 205.9511,-89.3844 232.3068,-79.2057"/>
<polygon fill="#191970" stroke="#191970" points="233.8314,-82.3689 241.8989,-75.5011 231.3094,-75.8389 233.8314,-82.3689"/>
</g>
<!-- Node48&#45;&gt;Node4 -->
<g id="edge57" class="edge">
<title>Node48&#45;&gt;Node4</title>
<path fill="none" stroke="#191970" d="M1400.2517,-358.245C1381.9975,-339.2499 1341.5437,-298.4981 1323.5,-291 1259.1634,-264.2647 745.3293,-305.6589 697.5,-255 651.1044,-205.8597 710.0037,-120.2836 739.5129,-83.5595"/>
<polygon fill="#191970" stroke="#191970" points="742.3192,-85.6575 745.974,-75.713 736.9154,-81.2079 742.3192,-85.6575"/>
</g>
<!-- Node36 -->
<g id="node27" class="node">
<title>Node36</title>
<g id="a_node27"><a xlink:href="Position_8h.html" target="_top" xlink:title="Position.h">
<polygon fill="none" stroke="#000000" points="1376,-297 1376,-316 1441,-316 1441,-297 1376,-297"/>
<text text-anchor="middle" x="1408.5" y="-304" font-family="FreeSans.ttf" font-size="10.00" fill="#000000">Position.h</text>
</a>
</g>
</g>
<!-- Node48&#45;&gt;Node36 -->
<g id="edge30" class="edge">
<title>Node48&#45;&gt;Node36</title>
<path fill="none" stroke="#191970" d="M1409.3438,-358.3906C1409.2051,-349.8657 1408.9982,-337.1392 1408.824,-326.4235"/>
<polygon fill="#191970" stroke="#191970" points="1412.3207,-326.1866 1408.6585,-316.2449 1405.3216,-326.3005 1412.3207,-326.1866"/>
</g>
<!-- Node30 -->
<g id="node30" class="node">
<title>Node30</title>
<g id="a_node30"><a xlink:href="Rotation_8h.html" target="_top" xlink:title="iDynTree/Core/Rotation.h">
<polygon fill="none" stroke="#000000" points="1304,-235.5 1304,-254.5 1441,-254.5 1441,-235.5 1304,-235.5"/>
<text text-anchor="middle" x="1372.5" y="-242.5" font-family="FreeSans.ttf" font-size="10.00" fill="#000000">iDynTree/Core/Rotation.h</text>
</a>
</g>
</g>
<!-- Node48&#45;&gt;Node30 -->
<g id="edge52" class="edge">
<title>Node48&#45;&gt;Node30</title>
<path fill="none" stroke="#191970" d="M1422.2248,-358.2466C1432.0407,-349.8582 1444.8633,-336.7955 1450.5,-322 1455.405,-309.1249 1457.3337,-302.9636 1450.5,-291 1442.1846,-276.4424 1427.262,-266.0309 1412.6797,-258.8375"/>
<polygon fill="#191970" stroke="#191970" points="1413.7733,-255.491 1403.2191,-254.5638 1410.8915,-261.8703 1413.7733,-255.491"/>
</g>
<!-- Node9 -->
<g id="node32" class="node">
<title>Node9</title>
<g id="a_node32"><a xlink:href="MatrixFixSize_8h.html" target="_top" xlink:title="iDynTree/Core/MatrixFixSize.h">
<polygon fill="none" stroke="#000000" points="1546,-112.5 1546,-131.5 1707,-131.5 1707,-112.5 1546,-112.5"/>
<text text-anchor="middle" x="1626.5" y="-119.5" font-family="FreeSans.ttf" font-size="10.00" fill="#000000">iDynTree/Core/MatrixFixSize.h</text>
</a>
</g>
</g>
<!-- Node48&#45;&gt;Node9 -->
<g id="edge56" class="edge">
<title>Node48&#45;&gt;Node9</title>
<path fill="none" stroke="#191970" d="M1438.398,-358.3429C1458.9783,-350.5741 1486.5832,-338.2722 1507.5,-322 1570.3053,-273.1405 1606.9058,-181.0896 1620.4502,-141.2194"/>
<polygon fill="#191970" stroke="#191970" points="1623.8005,-142.2352 1623.5966,-131.6424 1617.1502,-140.0503 1623.8005,-142.2352"/>
</g>
<!-- Node49 -->
<g id="node35" class="node">
<title>Node49</title>
<g id="a_node35"><a xlink:href="TransformSemantics_8h.html" target="_top" xlink:title="iDynTree/Core/TransformSemantics.h">
<polygon fill="none" stroke="#000000" points="1331,-112.5 1331,-131.5 1528,-131.5 1528,-112.5 1331,-112.5"/>
<text text-anchor="middle" x="1429.5" y="-119.5" font-family="FreeSans.ttf" font-size="10.00" fill="#000000">iDynTree/Core/TransformSemantics.h</text>
</a>
</g>
</g>
<!-- Node48&#45;&gt;Node49 -->
<g id="edge53" class="edge">
<title>Node48&#45;&gt;Node49</title>
<path fill="none" stroke="#191970" d="M1425.3161,-358.463C1460.7206,-336.0254 1545.5162,-275.9373 1574.5,-199 1579.3571,-186.1068 1582.6371,-179.1182 1574.5,-168 1564.1367,-153.84 1525.4636,-141.9861 1490.6627,-133.8594"/>
<polygon fill="#191970" stroke="#191970" points="1491.0266,-130.3534 1480.501,-131.5631 1489.4836,-137.1812 1491.0266,-130.3534"/>
</g>
<!-- Node36&#45;&gt;Node4 -->
<g id="edge51" class="edge">
<title>Node36&#45;&gt;Node4</title>
<path fill="none" stroke="#191970" d="M1381.8831,-296.8494C1375.2847,-294.6998 1368.1872,-292.5899 1361.5,-291 1329.386,-283.3648 797.71,-222.4714 774.5,-199 744.787,-168.9523 747.0893,-114.9199 750.9906,-85.8309"/>
<polygon fill="#191970" stroke="#191970" points="754.491,-86.0968 752.5577,-75.6799 747.5729,-85.0288 754.491,-86.0968"/>
</g>
<!-- Node37 -->
<g id="node28" class="node">
<title>Node37</title>
<g id="a_node28"><a xlink:href="PositionRaw_8h.html" target="_top" xlink:title="iDynTree/Core/PositionRaw.h">
<polygon fill="none" stroke="#000000" points="1129.5,-235.5 1129.5,-254.5 1285.5,-254.5 1285.5,-235.5 1129.5,-235.5"/>
<text text-anchor="middle" x="1207.5" y="-242.5" font-family="FreeSans.ttf" font-size="10.00" fill="#000000">iDynTree/Core/PositionRaw.h</text>
</a>
</g>
</g>
<!-- Node36&#45;&gt;Node37 -->
<g id="edge31" class="edge">
<title>Node36&#45;&gt;Node37</title>
<path fill="none" stroke="#191970" d="M1379.7087,-296.8622C1373.7016,-294.8915 1367.4018,-292.8542 1361.5,-291 1323.9074,-279.1893 1280.9279,-266.4114 1249.9438,-257.3272"/>
<polygon fill="#191970" stroke="#191970" points="1250.908,-253.9626 1240.3275,-254.5135 1248.9422,-260.6809 1250.908,-253.9626"/>
</g>
<!-- Node38 -->
<g id="node29" class="node">
<title>Node38</title>
<g id="a_node29"><a xlink:href="PositionSemantics_8h.html" target="_top" xlink:title="iDynTree/Core/PositionSemantics.h">
<polygon fill="none" stroke="#000000" points="706,-235.5 706,-254.5 893,-254.5 893,-235.5 706,-235.5"/>
<text text-anchor="middle" x="799.5" y="-242.5" font-family="FreeSans.ttf" font-size="10.00" fill="#000000">iDynTree/Core/PositionSemantics.h</text>
</a>
</g>
</g>
<!-- Node36&#45;&gt;Node38 -->
<g id="edge34" class="edge">
<title>Node36&#45;&gt;Node38</title>
<path fill="none" stroke="#191970" d="M1382.9416,-296.8412C1376.0676,-294.5837 1368.5752,-292.4251 1361.5,-291 1162.6394,-250.9464 1108.6033,-272.4385 906.5,-255 905.4079,-254.9058 904.3096,-254.8106 903.206,-254.7146"/>
<polygon fill="#191970" stroke="#191970" points="903.4197,-251.2199 893.1514,-253.83 902.8061,-258.193 903.4197,-251.2199"/>
</g>
<!-- Node36&#45;&gt;Node30 -->
<g id="edge36" class="edge">
<title>Node36&#45;&gt;Node30</title>
<path fill="none" stroke="#191970" d="M1402.875,-296.8906C1397.6747,-288.0068 1389.8034,-274.5601 1383.3767,-263.5811"/>
<polygon fill="#191970" stroke="#191970" points="1386.2767,-261.6069 1378.2043,-254.7449 1380.2356,-265.1432 1386.2767,-261.6069"/>
</g>
<!-- Node37&#45;&gt;Node4 -->
<g id="edge33" class="edge">
<title>Node37&#45;&gt;Node4</title>
<path fill="none" stroke="#191970" d="M1129.33,-237.8517C1083.3696,-231.6162 1024.9594,-220.0965 976.5,-199 954.8985,-189.5959 953.8737,-179.831 933.5,-168 900.1331,-148.6238 888.2596,-150.6837 854.5,-132 826.4064,-116.452 795.835,-95.6583 775.9877,-81.5977"/>
<polygon fill="#191970" stroke="#191970" points="777.8418,-78.6208 767.6708,-75.6542 773.7718,-84.3161 777.8418,-78.6208"/>
</g>
<!-- Node37&#45;&gt;Node16 -->
<g id="edge32" class="edge">
<title>Node37&#45;&gt;Node16</title>
<path fill="none" stroke="#191970" d="M1241.875,-235.3906C1280.0573,-224.7169 1341.8016,-207.4566 1383.4884,-195.8033"/>
<polygon fill="#191970" stroke="#191970" points="1384.6779,-199.105 1393.3664,-193.0419 1382.7933,-192.3634 1384.6779,-199.105"/>
</g>
<!-- Node38&#45;&gt;Node4 -->
<g id="edge35" class="edge">
<title>Node38&#45;&gt;Node4</title>
<path fill="none" stroke="#191970" d="M779.3439,-235.4543C765.6185,-227.7394 748.5365,-215.4561 740.5,-199 722.3309,-161.7955 736.2682,-111.8865 746.3981,-85.026"/>
<polygon fill="#191970" stroke="#191970" points="749.6914,-86.2164 750.1468,-75.6314 743.1898,-83.6221 749.6914,-86.2164"/>
</g>
<!-- Node30&#45;&gt;Node4 -->
<g id="edge37" class="edge">
<title>Node30&#45;&gt;Node4</title>
<path fill="none" stroke="#191970" d="M1309.3388,-235.4915C1259.1489,-227.3957 1187.3543,-214.608 1125.5,-199 1030.9195,-175.1341 1008.1797,-165.3151 916.5,-132 870.4559,-115.2682 818.1154,-93.4168 785.6957,-79.5413"/>
<polygon fill="#191970" stroke="#191970" points="786.8726,-76.2376 776.3031,-75.5056 784.1092,-82.6691 786.8726,-76.2376"/>
</g>
<!-- Node30&#45;&gt;Node16 -->
<g id="edge50" class="edge">
<title>Node30&#45;&gt;Node16</title>
<path fill="none" stroke="#191970" d="M1381.0938,-235.3906C1389.3597,-226.1478 1402.0426,-211.966 1412.0617,-200.7628"/>
<polygon fill="#191970" stroke="#191970" points="1414.7278,-203.0321 1418.7851,-193.2449 1409.51,-198.3657 1414.7278,-203.0321"/>
</g>
<!-- Node31 -->
<g id="node31" class="node">
<title>Node31</title>
<g id="a_node31"><a xlink:href="RotationRaw_8h.html" target="_top" xlink:title="iDynTree/Core/RotationRaw.h">
<polygon fill="none" stroke="#000000" points="1170.5,-174 1170.5,-193 1328.5,-193 1328.5,-174 1170.5,-174"/>
<text text-anchor="middle" x="1249.5" y="-181" font-family="FreeSans.ttf" font-size="10.00" fill="#000000">iDynTree/Core/RotationRaw.h</text>
</a>
</g>
</g>
<!-- Node30&#45;&gt;Node31 -->
<g id="edge38" class="edge">
<title>Node30&#45;&gt;Node31</title>
<path fill="none" stroke="#191970" d="M1353.2813,-235.3906C1332.9719,-225.2359 1300.7393,-209.1196 1277.5832,-197.5416"/>
<polygon fill="#191970" stroke="#191970" points="1279.0933,-194.3836 1268.5838,-193.0419 1275.9628,-200.6446 1279.0933,-194.3836"/>
</g>
<!-- Node32 -->
<g id="node34" class="node">
<title>Node32</title>
<g id="a_node34"><a xlink:href="RotationSemantics_8h.html" target="_top" xlink:title="iDynTree/Core/RotationSemantics.h">
<polygon fill="none" stroke="#000000" points="1010.5,-112.5 1010.5,-131.5 1198.5,-131.5 1198.5,-112.5 1010.5,-112.5"/>
<text text-anchor="middle" x="1104.5" y="-119.5" font-family="FreeSans.ttf" font-size="10.00" fill="#000000">iDynTree/Core/RotationSemantics.h</text>
</a>
</g>
</g>
<!-- Node30&#45;&gt;Node32 -->
<g id="edge47" class="edge">
<title>Node30&#45;&gt;Node32</title>
<path fill="none" stroke="#191970" d="M1304.4935,-235.4758C1252.1309,-227.1757 1184.875,-214.1184 1161.5,-199 1139.3321,-184.6623 1122.7405,-158.5018 1113.3326,-140.6919"/>
<polygon fill="#191970" stroke="#191970" points="1116.3598,-138.9207 1108.7453,-131.5539 1110.1038,-142.0613 1116.3598,-138.9207"/>
</g>
<!-- Node31&#45;&gt;Node4 -->
<g id="edge46" class="edge">
<title>Node31&#45;&gt;Node4</title>
<path fill="none" stroke="#191970" d="M1193.9857,-173.9816C1118.3245,-160.9081 989.7508,-138.2959 968.5,-132 946.3409,-125.435 942.3449,-119.5449 920.5,-112 874.5176,-96.1183 819.9455,-81.8464 786.2669,-73.5511"/>
<polygon fill="#191970" stroke="#191970" points="787.063,-70.1427 776.5184,-71.1734 785.4042,-76.9434 787.063,-70.1427"/>
</g>
<!-- Node31&#45;&gt;Node9 -->
<g id="edge39" class="edge">
<title>Node31&#45;&gt;Node9</title>
<path fill="none" stroke="#191970" d="M1303.6042,-173.9523C1315.1175,-171.9556 1327.207,-169.8852 1338.5,-168 1412.2333,-155.6916 1496.7068,-142.2808 1555.0102,-133.1328"/>
<polygon fill="#191970" stroke="#191970" points="1555.8837,-136.5387 1565.221,-131.5323 1554.7996,-129.6231 1555.8837,-136.5387"/>
</g>
<!-- Node9&#45;&gt;Node4 -->
<g id="edge43" class="edge">
<title>Node9&#45;&gt;Node4</title>
<path fill="none" stroke="#191970" d="M1545.9888,-112.7595C1543.125,-112.4927 1540.2886,-112.2384 1537.5,-112 1246.626,-87.1323 893.8013,-71.6547 786.7837,-67.28"/>
<polygon fill="#191970" stroke="#191970" points="786.7735,-63.7768 776.6398,-66.8686 786.4898,-70.771 786.7735,-63.7768"/>
</g>
<!-- Node9&#45;&gt;Node10 -->
<g id="edge40" class="edge">
<title>Node9&#45;&gt;Node10</title>
<path fill="none" stroke="#191970" d="M1584.4906,-112.4369C1542.3896,-102.8529 1477.4995,-88.0812 1432.2479,-77.78"/>
<polygon fill="#191970" stroke="#191970" points="1432.8636,-74.3307 1422.3361,-75.5237 1431.3098,-81.1561 1432.8636,-74.3307"/>
</g>
<!-- Node9&#45;&gt;Node12 -->
<g id="edge41" class="edge">
<title>Node9&#45;&gt;Node12</title>
<path fill="none" stroke="#191970" d="M1558.192,-112.4369C1472.6235,-100.4573 1329.1594,-80.3723 1262.5296,-71.0441"/>
<polygon fill="#191970" stroke="#191970" points="1262.9049,-67.5626 1252.5162,-69.6423 1261.9343,-74.495 1262.9049,-67.5626"/>
</g>
<!-- Node9&#45;&gt;Node15 -->
<g id="edge45" class="edge">
<title>Node9&#45;&gt;Node15</title>
<path fill="none" stroke="#191970" d="M1651.7702,-112.3733C1675.8966,-103.1822 1712.4362,-89.2624 1739.1877,-79.0713"/>
<polygon fill="#191970" stroke="#191970" points="1740.4607,-82.3318 1748.5596,-75.5011 1737.9687,-75.7904 1740.4607,-82.3318"/>
</g>
<!-- Node9&#45;&gt;Node13 -->
<g id="edge42" class="edge">
<title>Node9&#45;&gt;Node13</title>
<path fill="none" stroke="#191970" d="M1671.0709,-112.4369C1722.3716,-101.4298 1805.5644,-83.5801 1852.4578,-73.5186"/>
<polygon fill="#191970" stroke="#191970" points="1853.4019,-76.8958 1862.4451,-71.3758 1851.9333,-70.0516 1853.4019,-76.8958"/>
</g>
<!-- Node9&#45;&gt;Node14 -->
<g id="edge44" class="edge">
<title>Node9&#45;&gt;Node14</title>
<path fill="none" stroke="#191970" d="M1690.7095,-112.4369C1768.3955,-100.8666 1896.8477,-81.7354 1961.9639,-72.0373"/>
<polygon fill="#191970" stroke="#191970" points="1962.8552,-75.4432 1972.2305,-70.5082 1961.824,-68.5196 1962.8552,-75.4432"/>
</g>
<!-- Node32&#45;&gt;Node4 -->
<g id="edge48" class="edge">
<title>Node32&#45;&gt;Node4</title>
<path fill="none" stroke="#191970" d="M1044.7305,-112.4369C970.2905,-100.5265 845.7753,-80.604 787.0427,-71.2068"/>
<polygon fill="#191970" stroke="#191970" points="787.2959,-67.7029 776.8685,-69.579 786.1899,-74.615 787.2959,-67.7029"/>
</g>
<!-- Node32&#45;&gt;Node10 -->
<g id="edge49" class="edge">
<title>Node32&#45;&gt;Node10</title>
<path fill="none" stroke="#191970" d="M1151.6325,-112.4369C1199.2647,-102.7724 1272.8967,-87.8326 1323.7166,-77.5213"/>
<polygon fill="#191970" stroke="#191970" points="1324.4576,-80.9423 1333.5619,-75.5237 1323.0656,-74.0821 1324.4576,-80.9423"/>
</g>
<!-- Node49&#45;&gt;Node4 -->
<g id="edge54" class="edge">
<title>Node49&#45;&gt;Node4</title>
<path fill="none" stroke="#191970" d="M1330.8973,-113.2355C1326.0295,-112.8149 1321.2097,-112.4011 1316.5,-112 1115.1513,-94.8507 873.1133,-75.4495 786.916,-68.578"/>
<polygon fill="#191970" stroke="#191970" points="786.9731,-65.0716 776.7267,-67.7663 786.4171,-72.0494 786.9731,-65.0716"/>
</g>
<!-- Node49&#45;&gt;Node10 -->
<g id="edge55" class="edge">
<title>Node49&#45;&gt;Node10</title>
<path fill="none" stroke="#191970" d="M1420.9649,-112.2455C1414.0088,-104.2958 1404.0117,-92.8706 1395.6949,-83.3656"/>
<polygon fill="#191970" stroke="#191970" points="1398.1564,-80.8637 1388.9373,-75.6427 1392.8884,-85.4732 1398.1564,-80.8637"/>
</g>
<!-- Node50&#45;&gt;Node4 -->
<g id="edge61" class="edge">
<title>Node50&#45;&gt;Node4</title>
<path fill="none" stroke="#191970" d="M1310.8095,-419.9814C1316.3243,-394.6553 1327.2163,-325.2221 1290.5,-291 1191.1663,-198.4142 777.1106,-350.4238 680.5,-255 634.7506,-209.8126 664.067,-163.554 702.5,-112 710.9422,-100.6757 722.5518,-90.0799 732.6599,-81.9186"/>
<polygon fill="#191970" stroke="#191970" points="734.9475,-84.5736 740.6951,-75.6732 730.6516,-79.0467 734.9475,-84.5736"/>
</g>
<!-- Node50&#45;&gt;Node48 -->
<g id="edge63" class="edge">
<title>Node50&#45;&gt;Node48</title>
<path fill="none" stroke="#191970" d="M1324.2813,-419.8906C1340.5875,-409.9616 1366.254,-394.333 1385.1614,-382.8201"/>
<polygon fill="#191970" stroke="#191970" points="1387.1087,-385.7322 1393.8296,-377.5419 1383.4681,-379.7533 1387.1087,-385.7322"/>
</g>
<!-- Node50&#45;&gt;Node51 -->
<g id="edge60" class="edge">
<title>Node50&#45;&gt;Node51</title>
<path fill="none" stroke="#191970" d="M1353.9598,-419.9581C1412.7299,-407.6224 1513.7976,-386.4085 1566.7824,-375.2872"/>
<polygon fill="#191970" stroke="#191970" points="1567.6437,-378.6827 1576.7114,-373.2031 1566.2057,-371.832 1567.6437,-378.6827"/>
</g>
<!-- Node50&#45;&gt;Node52 -->
<g id="edge62" class="edge">
<title>Node50&#45;&gt;Node52</title>
<path fill="none" stroke="#191970" d="M1245.0316,-419.9509C1172.7619,-408.9131 1058.1101,-390.8632 999.1837,-377.8652"/>
<polygon fill="#191970" stroke="#191970" points="999.7221,-374.398 989.1936,-375.5812 998.1619,-381.2219 999.7221,-374.398"/>
</g>
<!-- Node53&#45;&gt;Node1 -->
<g id="edge67" class="edge">
<title>Node53&#45;&gt;Node1</title>
<path fill="none" stroke="#191970" d="M1045.0692,-593.4464C1059.7308,-584.9892 1080.7053,-571.7277 1096.5,-557 1111.9643,-542.5804 1126.3794,-523.1384 1135.9112,-509.0943"/>
<polygon fill="#191970" stroke="#191970" points="1138.8319,-511.0229 1141.4317,-500.7519 1132.9943,-507.1599 1138.8319,-511.0229"/>
</g>
<!-- Node53&#45;&gt;Node4 -->
<g id="edge78" class="edge">
<title>Node53&#45;&gt;Node4</title>
<path fill="none" stroke="#191970" d="M939.4873,-601.9099C701.7596,-597.805 64.5,-578.6287 64.5,-491 64.5,-491 64.5,-491 64.5,-245 64.5,-209.8551 58.8193,-193.9689 82.5,-168 116.5921,-130.6137 143.4046,-150.4939 190.5,-132 210.4946,-124.1483 213.7269,-117.469 234.5,-112 327.4247,-87.5356 623.1882,-72.0386 722.0008,-67.4386"/>
<polygon fill="#191970" stroke="#191970" points="722.4332,-70.9226 732.2621,-66.9674 722.112,-63.9299 722.4332,-70.9226"/>
</g>
<!-- Node53&#45;&gt;Node52 -->
<g id="edge79" class="edge">
<title>Node53&#45;&gt;Node52</title>
<path fill="none" stroke="#191970" d="M1024.9927,-593.4967C1015.724,-558.3651 983.2801,-435.3922 970.6172,-387.3958"/>
<polygon fill="#191970" stroke="#191970" points="973.9737,-386.3979 968.0385,-377.6216 967.2053,-388.1836 973.9737,-386.3979"/>
</g>
<!-- Node54 -->
<g id="node40" class="node">
<title>Node54</title>
<g id="a_node40"><a xlink:href="Sensors_8h.html" target="_top" xlink:title="iDynTree/Sensors/Sensors.h">
<polygon fill="none" stroke="#000000" points="386,-537.5 386,-556.5 537,-556.5 537,-537.5 386,-537.5"/>
<text text-anchor="middle" x="461.5" y="-544.5" font-family="FreeSans.ttf" font-size="10.00" fill="#000000">iDynTree/Sensors/Sensors.h</text>
</a>
</g>
</g>
<!-- Node53&#45;&gt;Node54 -->
<g id="edge68" class="edge">
<title>Node53&#45;&gt;Node54</title>
<path fill="none" stroke="#191970" d="M939.3732,-594.2807C832.3676,-583.6936 653.1042,-565.9573 547.2036,-555.4795"/>
<polygon fill="#191970" stroke="#191970" points="547.4851,-551.9904 537.189,-554.4887 546.7958,-558.9563 547.4851,-551.9904"/>
</g>
<!-- Node56 -->
<g id="node42" class="node">
<title>Node56</title>
<polygon fill="none" stroke="#bfbfbf" points="1029.5,-537.5 1029.5,-556.5 1087.5,-556.5 1087.5,-537.5 1029.5,-537.5"/>
<text text-anchor="middle" x="1058.5" y="-544.5" font-family="FreeSans.ttf" font-size="10.00" fill="#000000">memory</text>
</g>
<!-- Node53&#45;&gt;Node56 -->
<g id="edge77" class="edge">
<title>Node53&#45;&gt;Node56</title>
<path fill="none" stroke="#191970" d="M1032.8998,-593.2455C1037.1227,-585.617 1043.1173,-574.7881 1048.2441,-565.5267"/>
<polygon fill="#191970" stroke="#191970" points="1051.381,-567.0867 1053.1621,-556.6427 1045.2568,-563.6965 1051.381,-567.0867"/>
</g>
<!-- Node54&#45;&gt;Node1 -->
<g id="edge75" class="edge">
<title>Node54&#45;&gt;Node1</title>
<path fill="none" stroke="#191970" d="M537.2054,-540.82C668.8017,-530.0774 938.3126,-508.0765 1070.6819,-497.2709"/>
<polygon fill="#191970" stroke="#191970" points="1071.0612,-500.7516 1080.7433,-496.4495 1070.4916,-493.7748 1071.0612,-500.7516"/>
</g>
<!-- Node54&#45;&gt;Node3 -->
<g id="edge76" class="edge">
<title>Node54&#45;&gt;Node3</title>
<path fill="none" stroke="#191970" d="M465.4786,-537.3762C477.2232,-508.9669 511.9015,-425.0828 527.6093,-387.0871"/>
<polygon fill="#191970" stroke="#191970" points="530.9157,-388.25 531.5018,-377.6714 524.4467,-385.5756 530.9157,-388.25"/>
</g>
<!-- Node54&#45;&gt;Node4 -->
<g id="edge69" class="edge">
<title>Node54&#45;&gt;Node4</title>
<path fill="none" stroke="#191970" d="M396.6005,-537.4552C342.595,-525.736 268.8789,-500.1231 232.5,-445 199.149,-394.4649 290.2253,-140.5145 327.5,-112 358.7198,-88.1174 628.2344,-72.3682 722.2829,-67.5579"/>
<polygon fill="#191970" stroke="#191970" points="722.5399,-71.0495 732.3511,-67.0506 722.1876,-64.0583 722.5399,-71.0495"/>
</g>
<!-- Node54&#45;&gt;Node20 -->
<g id="edge71" class="edge">
<title>Node54&#45;&gt;Node20</title>
<path fill="none" stroke="#191970" d="M385.7288,-542.0979C261.0984,-531.9333 26.5,-503.0338 26.5,-429.5 26.5,-429.5 26.5,-429.5 26.5,-183.5 26.5,-149.1399 26.5,-109.128 26.5,-85.7764"/>
<polygon fill="#191970" stroke="#191970" points="30.0001,-85.7489 26.5,-75.7489 23.0001,-85.749 30.0001,-85.7489"/>
</g>
<!-- Node54&#45;&gt;Node52 -->
<g id="edge70" class="edge">
<title>Node54&#45;&gt;Node52</title>
<path fill="none" stroke="#191970" d="M537.1754,-543.8574C659.7927,-538.1131 891.2048,-524.3149 920.5,-501 955.3395,-473.2725 963.3716,-417.4 965.1144,-387.664"/>
<polygon fill="#191970" stroke="#191970" points="968.6119,-387.793 965.5171,-377.6603 961.6176,-387.5113 968.6119,-387.793"/>
</g>
<!-- Node55 -->
<g id="node41" class="node">
<title>Node55</title>
<g id="a_node41"><a xlink:href="VectorDynSize_8h.html" target="_top" xlink:title="iDynTree/Core/VectorDynSize.h">
<polygon fill="none" stroke="#000000" points="92,-174 92,-193 259,-193 259,-174 92,-174"/>
<text text-anchor="middle" x="175.5" y="-181" font-family="FreeSans.ttf" font-size="10.00" fill="#000000">iDynTree/Core/VectorDynSize.h</text>
</a>
</g>
</g>
<!-- Node54&#45;&gt;Node55 -->
<g id="edge72" class="edge">
<title>Node54&#45;&gt;Node55</title>
<path fill="none" stroke="#191970" d="M385.9449,-542.2347C318.7115,-536.5099 226.8963,-524.5658 199.5,-501 174.0877,-479.1409 175.5,-463.0202 175.5,-429.5 175.5,-429.5 175.5,-429.5 175.5,-306.5 175.5,-269.9994 175.5,-227.406 175.5,-203.1285"/>
<polygon fill="#191970" stroke="#191970" points="179.0001,-203.0691 175.5,-193.0691 172.0001,-203.0692 179.0001,-203.0691"/>
</g>
<!-- Node55&#45;&gt;Node4 -->
<g id="edge74" class="edge">
<title>Node55&#45;&gt;Node4</title>
<path fill="none" stroke="#191970" d="M184.8776,-173.7621C201.0437,-157.6825 235.9576,-125.971 272.5,-112 314.356,-95.9975 620.8852,-74.7393 722.1396,-68.0828"/>
<polygon fill="#191970" stroke="#191970" points="722.6171,-71.5592 732.3675,-67.4143 722.1605,-64.5741 722.6171,-71.5592"/>
</g>
<!-- Node55&#45;&gt;Node17 -->
<g id="edge73" class="edge">
<title>Node55&#45;&gt;Node17</title>
<path fill="none" stroke="#191970" d="M167.0625,-173.8906C158.9469,-164.6478 146.4945,-150.466 136.6576,-139.2628"/>
<polygon fill="#191970" stroke="#191970" points="139.2846,-136.95 130.0565,-131.7449 134.0245,-141.5686 139.2846,-136.95"/>
</g>
<!-- Node57&#45;&gt;Node3 -->
<g id="edge87" class="edge">
<title>Node57&#45;&gt;Node3</title>
<path fill="none" stroke="#191970" d="M735.8111,-485.9316C668.34,-480.2434 582.3915,-468.5265 556.5,-445 540.6095,-430.561 536.2618,-405.3909 535.3053,-387.7705"/>
<polygon fill="#191970" stroke="#191970" points="538.803,-387.6223 535.077,-377.7043 531.8048,-387.7811 538.803,-387.6223"/>
</g>
<!-- Node57&#45;&gt;Node4 -->
<g id="edge81" class="edge">
<title>Node57&#45;&gt;Node4</title>
<path fill="none" stroke="#191970" d="M735.7529,-482.2859C664.4626,-474.2352 570.2413,-461.103 535.5,-445 482.1842,-420.2875 362.5,-303.7646 362.5,-245 362.5,-245 362.5,-245 362.5,-183.5 362.5,-134.1341 402.5063,-132.3114 447.5,-112 496.2242,-90.0046 653.7982,-74.4747 722.255,-68.5987"/>
<polygon fill="#191970" stroke="#191970" points="722.776,-72.0673 732.4464,-67.739 722.1875,-65.0921 722.776,-72.0673"/>
</g>
<!-- Node57&#45;&gt;Node16 -->
<g id="edge83" class="edge">
<title>Node57&#45;&gt;Node16</title>
<path fill="none" stroke="#191970" d="M911.1837,-486.6253C1061.1153,-478.7552 1354.9598,-461.4893 1399.5,-445 1446.9364,-427.4384 1468.5612,-423.0825 1491.5,-378 1507.1525,-347.2375 1538.6599,-382.684 1470.5,-235 1464.475,-221.9455 1454.263,-209.5067 1445.3024,-200.1249"/>
<polygon fill="#191970" stroke="#191970" points="1447.7369,-197.6097 1438.1893,-193.0168 1442.7889,-202.5612 1447.7369,-197.6097"/>
</g>
<!-- Node57&#45;&gt;Node10 -->
<g id="edge86" class="edge">
<title>Node57&#45;&gt;Node10</title>
<path fill="none" stroke="#191970" d="M911.2039,-487.1203C1070.7426,-479.6793 1396.5509,-462.5755 1445.5,-445 1508.5201,-422.3722 1513.4353,-396.0977 1568.5,-358 1642.1974,-307.0108 1735.5,-334.617 1735.5,-245 1735.5,-245 1735.5,-245 1735.5,-183.5 1735.5,-150.6194 1741.1425,-133.7689 1716.5,-112 1696.9089,-94.6935 1542.7998,-79.2613 1450.2368,-71.4317"/>
<polygon fill="#191970" stroke="#191970" points="1450.3537,-67.9293 1440.0967,-70.5835 1449.7702,-74.905 1450.3537,-67.9293"/>
</g>
<!-- Node57&#45;&gt;Node52 -->
<g id="edge82" class="edge">
<title>Node57&#45;&gt;Node52</title>
<path fill="none" stroke="#191970" d="M846.8977,-481.4506C864.739,-473.4347 889.2658,-460.7719 907.5,-445 927.1812,-427.9765 944.3507,-403.2275 954.7993,-386.4171"/>
<polygon fill="#191970" stroke="#191970" points="957.9764,-387.9261 960.1429,-377.5551 951.9819,-384.3115 957.9764,-387.9261"/>
</g>
<!-- Node58 -->
<g id="node44" class="node">
<title>Node58</title>
<g id="a_node44"><a xlink:href="MatrixDynSize_8h.html" target="_top" xlink:title="iDynTree/Core/MatrixDynSize.h">
<polygon fill="none" stroke="#000000" points="241,-358.5 241,-377.5 408,-377.5 408,-358.5 241,-358.5"/>
<text text-anchor="middle" x="324.5" y="-365.5" font-family="FreeSans.ttf" font-size="10.00" fill="#000000">iDynTree/Core/MatrixDynSize.h</text>
</a>
</g>
</g>
<!-- Node57&#45;&gt;Node58 -->
<g id="edge84" class="edge">
<title>Node57&#45;&gt;Node58</title>
<path fill="none" stroke="#191970" d="M735.7959,-486.5457C666.6239,-481.2581 568.3361,-469.7811 485.5,-445 434.6572,-429.79 379.7771,-400.4639 349.022,-382.7197"/>
<polygon fill="#191970" stroke="#191970" points="350.6828,-379.6365 340.283,-377.6132 347.1512,-385.6803 350.6828,-379.6365"/>
</g>
<!-- Node59 -->
<g id="node45" class="node">
<title>Node59</title>
<g id="a_node45"><a xlink:href="FreeFloatingMatrices_8h.html" target="_top" xlink:title="iDynTree/Model/FreeFloating\lMatrices.h">
<polygon fill="none" stroke="#000000" points="241.5,-414.5 241.5,-444.5 395.5,-444.5 395.5,-414.5 241.5,-414.5"/>
<text text-anchor="start" x="249.5" y="-432.5" font-family="FreeSans.ttf" font-size="10.00" fill="#000000">iDynTree/Model/FreeFloating</text>
<text text-anchor="middle" x="318.5" y="-421.5" font-family="FreeSans.ttf" font-size="10.00" fill="#000000">Matrices.h</text>
</a>
</g>
</g>
<!-- Node57&#45;&gt;Node59 -->
<g id="edge88" class="edge">
<title>Node57&#45;&gt;Node59</title>
<path fill="none" stroke="#191970" d="M735.686,-482.7355C651.7558,-474.484 521.7533,-460.7828 409.5,-445 408.3891,-444.8438 407.2709,-444.6846 406.1467,-444.5226"/>
<polygon fill="#191970" stroke="#191970" points="406.3043,-441.0076 395.8981,-442.9976 405.274,-447.9313 406.3043,-441.0076"/>
</g>
<!-- Node60 -->
<g id="node46" class="node">
<title>Node60</title>
<g id="a_node46"><a xlink:href="LinkState_8h.html" target="_top" xlink:title="iDynTree/Model/LinkState.h">
<polygon fill="none" stroke="#000000" points="749,-420 749,-439 898,-439 898,-420 749,-420"/>
<text text-anchor="middle" x="823.5" y="-427" font-family="FreeSans.ttf" font-size="10.00" fill="#000000">iDynTree/Model/LinkState.h</text>
</a>
</g>
</g>
<!-- Node57&#45;&gt;Node60 -->
<g id="edge90" class="edge">
<title>Node57&#45;&gt;Node60</title>
<path fill="none" stroke="#191970" d="M823.5,-481.3906C823.5,-472.8657 823.5,-460.1392 823.5,-449.4235"/>
<polygon fill="#191970" stroke="#191970" points="827.0001,-449.2448 823.5,-439.2449 820.0001,-449.2449 827.0001,-449.2448"/>
</g>
<!-- Node58&#45;&gt;Node4 -->
<g id="edge85" class="edge">
<title>Node58&#45;&gt;Node4</title>
<path fill="none" stroke="#191970" d="M324.5,-358.4309C324.5,-337.738 324.5,-287.2813 324.5,-245 324.5,-245 324.5,-245 324.5,-183.5 324.5,-149.9798 322.4332,-133.0743 348.5,-112 377.4193,-88.6196 631.3767,-72.6776 722.2972,-67.6756"/>
<polygon fill="#191970" stroke="#191970" points="722.5101,-71.1693 732.306,-67.1331 722.1312,-64.1795 722.5101,-71.1693"/>
</g>
<!-- Node59&#45;&gt;Node58 -->
<g id="edge89" class="edge">
<title>Node59&#45;&gt;Node58</title>
<path fill="none" stroke="#191970" d="M319.9831,-414.2977C320.7553,-406.3834 321.7093,-396.6043 322.5414,-388.0759"/>
<polygon fill="#191970" stroke="#191970" points="326.0517,-388.1396 323.5393,-377.8469 319.0848,-387.4598 326.0517,-388.1396"/>
</g>
<!-- Node60&#45;&gt;Node3 -->
<g id="edge98" class="edge">
<title>Node60&#45;&gt;Node3</title>
<path fill="none" stroke="#191970" d="M778.816,-419.9581C727.9475,-409.0956 644.8405,-391.3488 590.1549,-379.6711"/>
<polygon fill="#191970" stroke="#191970" points="590.7993,-376.2299 580.2888,-377.5643 589.3374,-383.0755 590.7993,-376.2299"/>
</g>
<!-- Node60&#45;&gt;Node25 -->
<g id="edge92" class="edge">
<title>Node60&#45;&gt;Node25</title>
<path fill="none" stroke="#191970" d="M800.2734,-419.8484C747.8586,-398.0679 620.28,-345.0538 560.0304,-320.0177"/>
<polygon fill="#191970" stroke="#191970" points="561.1963,-316.7121 550.6187,-316.1068 558.5101,-323.1762 561.1963,-316.7121"/>
</g>
<!-- Node60&#45;&gt;Node46 -->
<g id="edge93" class="edge">
<title>Node60&#45;&gt;Node46</title>
<path fill="none" stroke="#191970" d="M812.279,-419.8484C787.8446,-398.8314 729.5989,-348.7319 699.3934,-322.751"/>
<polygon fill="#191970" stroke="#191970" points="701.5326,-319.9743 691.6688,-316.1068 696.9678,-325.2813 701.5326,-319.9743"/>
</g>
<!-- Node60&#45;&gt;Node47 -->
<g id="edge94" class="edge">
<title>Node60&#45;&gt;Node47</title>
<path fill="none" stroke="#191970" d="M824.7555,-419.8484C827.3726,-399.7295 833.4563,-352.9608 836.9361,-326.2098"/>
<polygon fill="#191970" stroke="#191970" points="840.4311,-326.4747 838.2503,-316.1068 833.4895,-325.5717 840.4311,-326.4747"/>
</g>
<!-- Node60&#45;&gt;Node48 -->
<g id="edge91" class="edge">
<title>Node60&#45;&gt;Node48</title>
<path fill="none" stroke="#191970" d="M898.0147,-421.6798C1007.6839,-410.1701 1211.8989,-388.738 1326.3196,-376.7297"/>
<polygon fill="#191970" stroke="#191970" points="1326.8492,-380.1934 1336.4292,-375.6687 1326.1185,-373.2317 1326.8492,-380.1934"/>
</g>
<!-- Node60&#45;&gt;Node52 -->
<g id="edge99" class="edge">
<title>Node60&#45;&gt;Node52</title>
<path fill="none" stroke="#191970" d="M845.6875,-419.8906C869.4467,-409.6005 907.3405,-393.1888 934.1425,-381.5809"/>
<polygon fill="#191970" stroke="#191970" points="935.683,-384.7279 943.4683,-377.5419 932.9009,-378.3045 935.683,-384.7279"/>
</g>
<!-- Node61 -->
<g id="node47" class="node">
<title>Node61</title>
<g id="a_node47"><a xlink:href="ArticulatedBodyInertia_8h.html" target="_top" xlink:title="iDynTree/Core/Articulated\lBodyInertia.h">
<polygon fill="none" stroke="#000000" points="783,-168.5 783,-198.5 924,-198.5 924,-168.5 783,-168.5"/>
<text text-anchor="start" x="791" y="-186.5" font-family="FreeSans.ttf" font-size="10.00" fill="#000000">iDynTree/Core/Articulated</text>
<text text-anchor="middle" x="853.5" y="-175.5" font-family="FreeSans.ttf" font-size="10.00" fill="#000000">BodyInertia.h</text>
</a>
</g>
</g>
<!-- Node60&#45;&gt;Node61 -->
<g id="edge95" class="edge">
<title>Node60&#45;&gt;Node61</title>
<path fill="none" stroke="#191970" d="M785.3952,-419.9438C750.5209,-410.7332 697.766,-395.624 653.5,-378 635.0336,-370.6478 632.2035,-364.7262 613.5,-358 546.5426,-333.9205 501.798,-377.6848 457.5,-322 448.9226,-311.2178 448.1587,-301.1275 457.5,-291 524.7656,-218.073 835.2344,-327.927 902.5,-255 916.6564,-239.6521 901.0735,-219.9376 883.8297,-205.0983"/>
<polygon fill="#191970" stroke="#191970" points="885.8614,-202.2396 875.8908,-198.6565 881.4507,-207.6753 885.8614,-202.2396"/>
</g>
<!-- Node61&#45;&gt;Node4 -->
<g id="edge97" class="edge">
<title>Node61&#45;&gt;Node4</title>
<path fill="none" stroke="#191970" d="M840.5575,-168.1389C822.1534,-146.2957 788.5159,-106.3724 769.1962,-83.4424"/>
<polygon fill="#191970" stroke="#191970" points="771.6744,-80.9517 762.5544,-75.5595 766.3212,-85.4621 771.6744,-80.9517"/>
</g>
<!-- Node61&#45;&gt;Node9 -->
<g id="edge96" class="edge">
<title>Node61&#45;&gt;Node9</title>
<path fill="none" stroke="#191970" d="M924.4695,-179.019C1046.969,-171.0945 1306.2639,-153.4882 1535.7682,-132.1357"/>
<polygon fill="#191970" stroke="#191970" points="1536.3526,-135.5964 1545.9835,-131.1809 1535.7011,-128.6268 1536.3526,-135.5964"/>
</g>
<!-- Node62&#45;&gt;Node4 -->
<g id="edge105" class="edge">
<title>Node62&#45;&gt;Node4</title>
<path fill="none" stroke="#191970" d="M1750.9918,-419.8571C1728.1519,-380.85 1636.4891,-233.7042 1517.5,-168 1513.6699,-165.8851 1211.8325,-112.6104 1207.5,-112 1050.45,-89.8749 861.3254,-74.1755 786.8646,-68.4196"/>
<polygon fill="#191970" stroke="#191970" points="786.9662,-64.9172 776.728,-67.6429 786.4314,-71.8968 786.9662,-64.9172"/>
</g>
<!-- Node62&#45;&gt;Node18 -->
<g id="edge109" class="edge">
<title>Node62&#45;&gt;Node18</title>
<path fill="none" stroke="#191970" d="M1757.7055,-419.8352C1763.4433,-372.1807 1786.2237,-162.4991 1749.5,-112 1738.6202,-97.039 1693.8867,-83.5837 1659.4784,-75.1465"/>
<polygon fill="#191970" stroke="#191970" points="1660.1724,-71.7139 1649.6332,-72.798 1658.5481,-78.5229 1660.1724,-71.7139"/>
</g>
<!-- Node62&#45;&gt;Node22 -->
<g id="edge106" class="edge">
<title>Node62&#45;&gt;Node22</title>
<path fill="none" stroke="#191970" d="M1745.5324,-419.8816C1707.73,-387.3456 1578.1575,-280.8859 1450.5,-235 1328.6927,-191.2169 1289.208,-220.0867 1161.5,-199 933.0151,-161.2733 662.3235,-99.9894 559.2384,-76.0407"/>
<polygon fill="#191970" stroke="#191970" points="559.7523,-72.5668 549.2191,-73.7078 558.1648,-79.3844 559.7523,-72.5668"/>
</g>
<!-- Node62&#45;&gt;Node15 -->
<g id="edge102" class="edge">
<title>Node62&#45;&gt;Node15</title>
<path fill="none" stroke="#191970" d="M1760.8216,-419.932C1769.0147,-401.4102 1786.8486,-359.2011 1796.5,-322 1817.9516,-239.315 1819.037,-217.1776 1825.5,-132 1826.1725,-123.1366 1829.1511,-120.1044 1825.5,-112 1819.9303,-99.6369 1809.2137,-89.2563 1798.9494,-81.5033"/>
<polygon fill="#191970" stroke="#191970" points="1800.7549,-78.4948 1790.5567,-75.623 1796.7382,-84.2277 1800.7549,-78.4948"/>
</g>
<!-- Node62&#45;&gt;Node13 -->
<g id="edge108" class="edge">
<title>Node62&#45;&gt;Node13</title>
<path fill="none" stroke="#191970" d="M1789.2787,-424.581C1837.3618,-416.721 1923.6854,-399.9524 1945.5,-378 1968.6768,-354.6768 1964.5,-339.3806 1964.5,-306.5 1964.5,-306.5 1964.5,-306.5 1964.5,-183.5 1964.5,-141.7943 1930.144,-103.3784 1907.3294,-82.4657"/>
<polygon fill="#191970" stroke="#191970" points="1909.3437,-79.5751 1899.5313,-75.5792 1904.7102,-84.8221 1909.3437,-79.5751"/>
</g>
<!-- Node62&#45;&gt;Node14 -->
<g id="edge101" class="edge">
<title>Node62&#45;&gt;Node14</title>
<path fill="none" stroke="#191970" d="M1789.3101,-424.8682C1841.2355,-416.9853 1939.2621,-399.687 1966.5,-378 1994.3335,-355.8387 2002.5,-342.0785 2002.5,-306.5 2002.5,-306.5 2002.5,-306.5 2002.5,-183.5 2002.5,-149.1399 2002.5,-109.128 2002.5,-85.7764"/>
<polygon fill="#191970" stroke="#191970" points="2006.0001,-85.7489 2002.5,-75.7489 1999.0001,-85.749 2006.0001,-85.7489"/>
</g>
<!-- Node62&#45;&gt;Node51 -->
<g id="edge110" class="edge">
<title>Node62&#45;&gt;Node51</title>
<path fill="none" stroke="#191970" d="M1732.2813,-419.8906C1706.1194,-409.5103 1664.2571,-392.9004 1634.9612,-381.2766"/>
<polygon fill="#191970" stroke="#191970" points="1636.1346,-377.9767 1625.5487,-377.5419 1633.5529,-384.4833 1636.1346,-377.9767"/>
</g>
<!-- Node62&#45;&gt;Node52 -->
<g id="edge103" class="edge">
<title>Node62&#45;&gt;Node52</title>
<path fill="none" stroke="#191970" d="M1723.7836,-428.2642C1600.1186,-423.4433 1160.5137,-404.914 999.3422,-377.6692"/>
<polygon fill="#191970" stroke="#191970" points="999.5921,-374.1591 989.1351,-375.8621 998.3718,-381.0519 999.5921,-374.1591"/>
</g>
<!-- Node63 -->
<g id="node49" class="node">
<title>Node63</title>
<polygon fill="none" stroke="#bfbfbf" points="1822.5,-358.5 1822.5,-377.5 1860.5,-377.5 1860.5,-358.5 1822.5,-358.5"/>
<text text-anchor="middle" x="1841.5" y="-365.5" font-family="FreeSans.ttf" font-size="10.00" fill="#000000">map</text>
</g>
<!-- Node62&#45;&gt;Node63 -->
<g id="edge104" class="edge">
<title>Node62&#45;&gt;Node63</title>
<path fill="none" stroke="#191970" d="M1769.7813,-419.8906C1783.2548,-410.1421 1804.322,-394.8994 1820.1435,-383.4521"/>
<polygon fill="#191970" stroke="#191970" points="1822.2619,-386.2394 1828.312,-377.5419 1818.1586,-380.5682 1822.2619,-386.2394"/>
</g>
<!-- Node64 -->
<g id="node50" class="node">
<title>Node64</title>
<polygon fill="none" stroke="#bfbfbf" points="1879,-358.5 1879,-377.5 1936,-377.5 1936,-358.5 1879,-358.5"/>
<text text-anchor="middle" x="1907.5" y="-365.5" font-family="FreeSans.ttf" font-size="10.00" fill="#000000">typeinfo</text>
</g>
<!-- Node62&#45;&gt;Node64 -->
<g id="edge107" class="edge">
<title>Node62&#45;&gt;Node64</title>
<path fill="none" stroke="#191970" d="M1780.0938,-419.8906C1805.4696,-409.5554 1846.0081,-393.0447 1874.5293,-381.4284"/>
<polygon fill="#191970" stroke="#191970" points="1876.1308,-384.5554 1884.0719,-377.5419 1873.4904,-378.0725 1876.1308,-384.5554"/>
</g>
</g>
</svg>
