<?xml version="1.0" encoding="UTF-8" standalone="no"?>
<!DOCTYPE svg PUBLIC "-//W3C//DTD SVG 1.1//EN"
 "http://www.w3.org/Graphics/SVG/1.1/DTD/svg11.dtd">
<!-- Generated by graphviz version 2.40.1 (20161225.0304)
 -->
<!-- Title: InverseKinematicsNLP.cpp Pages: 1 -->
<svg width="3058pt" height="688pt"
 viewBox="0.00 0.00 3057.50 688.00" xmlns="http://www.w3.org/2000/svg" xmlns:xlink="http://www.w3.org/1999/xlink">
<g id="graph0" class="graph" transform="scale(1 1) rotate(0) translate(4 684)">
<title>InverseKinematicsNLP.cpp</title>
<!-- Node0 -->
<g id="node1" class="node">
<title>Node0</title>
<polygon fill="#bfbfbf" stroke="#000000" points="1473.5,-660.5 1473.5,-679.5 1618.5,-679.5 1618.5,-660.5 1473.5,-660.5"/>
<text text-anchor="middle" x="1546" y="-667.5" font-family="FreeSans.ttf" font-size="10.00" fill="#000000">InverseKinematicsNLP.cpp</text>
</g>
<!-- Node1 -->
<g id="node2" class="node">
<title>Node1</title>
<g id="a_node2"><a xlink:href="InverseKinematicsNLP_8h.html" target="_top" xlink:title="InverseKinematicsNLP.h">
<polygon fill="none" stroke="#000000" points="1052,-487 1052,-506 1186,-506 1186,-487 1052,-487"/>
<text text-anchor="middle" x="1119" y="-494" font-family="FreeSans.ttf" font-size="10.00" fill="#000000">InverseKinematicsNLP.h</text>
</a>
</g>
</g>
<!-- Node0&#45;&gt;Node1 -->
<g id="edge1" class="edge">
<title>Node0&#45;&gt;Node1</title>
<path fill="none" stroke="#191970" d="M1473.247,-665.5293C1391.8266,-657.3192 1259.2553,-634.0343 1167,-568 1148.475,-554.7402 1134.9972,-531.9342 1127.1214,-515.6437"/>
<polygon fill="#191970" stroke="#191970" points="1130.2794,-514.1333 1122.9464,-506.4862 1123.9101,-517.0372 1130.2794,-514.1333"/>
</g>
<!-- Node7 -->
<g id="node8" class="node">
<title>Node7</title>
<polygon fill="none" stroke="#bfbfbf" points="1147,-.5 1147,-19.5 1199,-19.5 1199,-.5 1147,-.5"/>
<text text-anchor="middle" x="1173" y="-7.5" font-family="FreeSans.ttf" font-size="10.00" fill="#000000">cassert</text>
</g>
<!-- Node0&#45;&gt;Node7 -->
<g id="edge129" class="edge">
<title>Node0&#45;&gt;Node7</title>
<path fill="none" stroke="#191970" d="M1618.5735,-667.7745C1897.7625,-658.7426 2887,-622.2098 2887,-558 2887,-558 2887,-558 2887,-122 2887,-34.8593 1457.6923,-13.4723 1209.5137,-10.4155"/>
<polygon fill="#191970" stroke="#191970" points="1209.2786,-6.9125 1199.237,-10.2912 1209.1939,-13.912 1209.2786,-6.9125"/>
</g>
<!-- Node41 -->
<g id="node27" class="node">
<title>Node41</title>
<g id="a_node27"><a xlink:href="InverseKinematicsData_8h.html" target="_top" xlink:title="InverseKinematicsData.h">
<polygon fill="none" stroke="#000000" points="1476,-604.5 1476,-623.5 1616,-623.5 1616,-604.5 1476,-604.5"/>
<text text-anchor="middle" x="1546" y="-611.5" font-family="FreeSans.ttf" font-size="10.00" fill="#000000">InverseKinematicsData.h</text>
</a>
</g>
</g>
<!-- Node0&#45;&gt;Node41 -->
<g id="edge53" class="edge">
<title>Node0&#45;&gt;Node41</title>
<path fill="none" stroke="#191970" d="M1546,-660.2455C1546,-652.9382 1546,-642.6944 1546,-633.7046"/>
<polygon fill="#191970" stroke="#191970" points="1549.5001,-633.6426 1546,-623.6427 1542.5001,-633.6427 1549.5001,-633.6426"/>
</g>
<!-- Node68 -->
<g id="node43" class="node">
<title>Node68</title>
<g id="a_node43"><a xlink:href="TransformConstraint_8h.html" target="_top" xlink:title="TransformConstraint.h">
<polygon fill="none" stroke="#000000" points="1278.5,-548.5 1278.5,-567.5 1403.5,-567.5 1403.5,-548.5 1278.5,-548.5"/>
<text text-anchor="middle" x="1341" y="-555.5" font-family="FreeSans.ttf" font-size="10.00" fill="#000000">TransformConstraint.h</text>
</a>
</g>
</g>
<!-- Node0&#45;&gt;Node68 -->
<g id="edge107" class="edge">
<title>Node0&#45;&gt;Node68</title>
<path fill="none" stroke="#191970" d="M1528.5218,-660.4509C1492.5148,-640.7788 1409.8879,-595.6363 1367.358,-572.4005"/>
<polygon fill="#191970" stroke="#191970" points="1368.8877,-569.248 1358.4339,-567.5249 1365.5315,-575.3909 1368.8877,-569.248"/>
</g>
<!-- Node69 -->
<g id="node44" class="node">
<title>Node69</title>
<polygon fill="none" stroke="#bfbfbf" points="2915.5,-604.5 2915.5,-623.5 2984.5,-623.5 2984.5,-604.5 2915.5,-604.5"/>
<text text-anchor="middle" x="2950" y="-611.5" font-family="FreeSans.ttf" font-size="10.00" fill="#000000">Eigen/Core</text>
</g>
<!-- Node0&#45;&gt;Node69 -->
<g id="edge110" class="edge">
<title>Node0&#45;&gt;Node69</title>
<path fill="none" stroke="#191970" d="M1618.5214,-669.1397C1862.0386,-665.9998 2649.2782,-653.7464 2901,-624 2902.455,-623.8281 2903.9311,-623.6353 2905.4192,-623.4253"/>
<polygon fill="#191970" stroke="#191970" points="2906.0045,-626.8762 2915.3177,-621.8252 2904.8873,-619.9659 2906.0045,-626.8762"/>
</g>
<!-- Node70 -->
<g id="node45" class="node">
<title>Node70</title>
<g id="a_node45"><a xlink:href="EigenHelpers_8h.html" target="_top" xlink:title="iDynTree/Core/EigenHelpers.h">
<polygon fill="none" stroke="#000000" points="629.5,-425.5 629.5,-444.5 790.5,-444.5 790.5,-425.5 629.5,-425.5"/>
<text text-anchor="middle" x="710" y="-432.5" font-family="FreeSans.ttf" font-size="10.00" fill="#000000">iDynTree/Core/EigenHelpers.h</text>
</a>
</g>
</g>
<!-- Node0&#45;&gt;Node70 -->
<g id="edge111" class="edge">
<title>Node0&#45;&gt;Node70</title>
<path fill="none" stroke="#191970" d="M1473.4152,-663.7422C1408.6246,-657.1488 1311.5096,-644.7757 1229,-624 1038.1631,-575.9477 819.763,-483.478 740.6321,-448.6859"/>
<polygon fill="#191970" stroke="#191970" points="741.8178,-445.3835 731.2561,-444.5463 738.9905,-451.7872 741.8178,-445.3835"/>
</g>
<!-- Node72 -->
<g id="node50" class="node">
<title>Node72</title>
<polygon fill="none" stroke="#bfbfbf" points="3002.5,-604.5 3002.5,-623.5 3049.5,-623.5 3049.5,-604.5 3002.5,-604.5"/>
<text text-anchor="middle" x="3026" y="-611.5" font-family="FreeSans.ttf" font-size="10.00" fill="#000000">cmath</text>
</g>
<!-- Node0&#45;&gt;Node72 -->
<g id="edge130" class="edge">
<title>Node0&#45;&gt;Node72</title>
<path fill="none" stroke="#191970" d="M1618.5494,-668.8477C1887.2397,-664.4255 2818.7656,-647.6669 2992.5057,-623.6723"/>
<polygon fill="#191970" stroke="#191970" points="2993.0541,-627.1292 3002.409,-622.1557 2991.9944,-620.2098 2993.0541,-627.1292"/>
</g>
<!-- Node2 -->
<g id="node3" class="node">
<title>Node2</title>
<polygon fill="none" stroke="#bfbfbf" points="1050,-425.5 1050,-444.5 1120,-444.5 1120,-425.5 1050,-425.5"/>
<text text-anchor="middle" x="1085" y="-432.5" font-family="FreeSans.ttf" font-size="10.00" fill="#000000">IpTNLP.hpp</text>
</g>
<!-- Node1&#45;&gt;Node2 -->
<g id="edge2" class="edge">
<title>Node1&#45;&gt;Node2</title>
<path fill="none" stroke="#191970" d="M1113.6875,-486.8906C1108.7761,-478.0068 1101.3421,-464.5601 1095.2725,-453.5811"/>
<polygon fill="#191970" stroke="#191970" points="1098.2888,-451.8031 1090.3874,-444.7449 1092.1627,-455.1899 1098.2888,-451.8031"/>
</g>
<!-- Node3 -->
<g id="node4" class="node">
<title>Node3</title>
<g id="a_node4"><a xlink:href="VectorFixSize_8h.html" target="_top" xlink:title="iDynTree/Core/VectorFixSize.h">
<polygon fill="none" stroke="#000000" points="1048.5,-112.5 1048.5,-131.5 1209.5,-131.5 1209.5,-112.5 1048.5,-112.5"/>
<text text-anchor="middle" x="1129" y="-119.5" font-family="FreeSans.ttf" font-size="10.00" fill="#000000">iDynTree/Core/VectorFixSize.h</text>
</a>
</g>
</g>
<!-- Node1&#45;&gt;Node3 -->
<g id="edge3" class="edge">
<title>Node1&#45;&gt;Node3</title>
<path fill="none" stroke="#191970" d="M1092.9756,-486.971C1074.8836,-478.8302 1052.0987,-465.1934 1041,-445 1022.3745,-411.112 1019.5801,-390.838 1040,-358 1059.1029,-327.2799 1088.2294,-348.364 1113,-322 1135.099,-298.4795 1133.2476,-286.3286 1141,-255 1150.3102,-217.3763 1154.1864,-206.0865 1147,-168 1145.2559,-158.7566 1141.7019,-148.9893 1138.2091,-140.844"/>
<polygon fill="#191970" stroke="#191970" points="1141.3024,-139.1923 1133.9585,-131.5556 1134.9372,-142.1052 1141.3024,-139.1923"/>
</g>
<!-- Node18 -->
<g id="node12" class="node">
<title>Node18</title>
<g id="a_node12"><a xlink:href="VectorDynSize_8h.html" target="_top" xlink:title="iDynTree/Core/VectorDynSize.h">
<polygon fill="none" stroke="#000000" points="1049.5,-364 1049.5,-383 1216.5,-383 1216.5,-364 1049.5,-364"/>
<text text-anchor="middle" x="1133" y="-371" font-family="FreeSans.ttf" font-size="10.00" fill="#000000">iDynTree/Core/VectorDynSize.h</text>
</a>
</g>
</g>
<!-- Node1&#45;&gt;Node18 -->
<g id="edge13" class="edge">
<title>Node1&#45;&gt;Node18</title>
<path fill="none" stroke="#191970" d="M1121.3175,-486.6908C1123.6571,-476.3759 1127.1775,-459.6419 1129,-445 1131.1569,-427.6717 1132.1511,-407.8353 1132.6092,-393.4589"/>
<polygon fill="#191970" stroke="#191970" points="1136.1134,-393.3394 1132.8736,-383.2521 1129.1157,-393.1581 1136.1134,-393.3394"/>
</g>
<!-- Node19 -->
<g id="node13" class="node">
<title>Node19</title>
<g id="a_node13"><a xlink:href="MatrixDynSize_8h.html" target="_top" xlink:title="iDynTree/Core/MatrixDynSize.h">
<polygon fill="none" stroke="#000000" points="2382.5,-364 2382.5,-383 2549.5,-383 2549.5,-364 2382.5,-364"/>
<text text-anchor="middle" x="2466" y="-371" font-family="FreeSans.ttf" font-size="10.00" fill="#000000">iDynTree/Core/MatrixDynSize.h</text>
</a>
</g>
</g>
<!-- Node1&#45;&gt;Node19 -->
<g id="edge16" class="edge">
<title>Node1&#45;&gt;Node19</title>
<path fill="none" stroke="#191970" d="M1186.2793,-494.5702C1447.5093,-486.9824 2381.491,-458.9332 2409,-445 2431.2565,-433.7271 2447.668,-409.3492 2457.0233,-392.2047"/>
<polygon fill="#191970" stroke="#191970" points="2460.2448,-393.5934 2461.707,-383.0999 2454.0202,-390.3913 2460.2448,-393.5934"/>
</g>
<!-- Node20 -->
<g id="node14" class="node">
<title>Node20</title>
<g id="a_node14"><a xlink:href="Twist_8h.html" target="_top" xlink:title="iDynTree/Core/Twist.h">
<polygon fill="none" stroke="#000000" points="872,-425.5 872,-444.5 994,-444.5 994,-425.5 872,-425.5"/>
<text text-anchor="middle" x="933" y="-432.5" font-family="FreeSans.ttf" font-size="10.00" fill="#000000">iDynTree/Core/Twist.h</text>
</a>
</g>
</g>
<!-- Node1&#45;&gt;Node20 -->
<g id="edge18" class="edge">
<title>Node1&#45;&gt;Node20</title>
<path fill="none" stroke="#191970" d="M1089.9375,-486.8906C1058.1338,-476.3749 1006.9949,-459.466 971.7856,-447.8243"/>
<polygon fill="#191970" stroke="#191970" points="972.4517,-444.3582 961.8584,-444.5419 970.2541,-451.0043 972.4517,-444.3582"/>
</g>
<!-- Node38 -->
<g id="node23" class="node">
<title>Node38</title>
<g id="a_node23"><a xlink:href="Transform_8h.html" target="_top" xlink:title="iDynTree/Core/Transform.h">
<polygon fill="none" stroke="#000000" points="1422,-364 1422,-383 1568,-383 1568,-364 1422,-364"/>
<text text-anchor="middle" x="1495" y="-371" font-family="FreeSans.ttf" font-size="10.00" fill="#000000">iDynTree/Core/Transform.h</text>
</a>
</g>
</g>
<!-- Node1&#45;&gt;Node38 -->
<g id="edge38" class="edge">
<title>Node1&#45;&gt;Node38</title>
<path fill="none" stroke="#191970" d="M1138.3911,-486.9652C1169.1117,-472.1433 1231.1206,-443.3733 1286,-425 1336.0303,-408.2502 1394.4438,-394.3118 1436.7776,-385.1782"/>
<polygon fill="#191970" stroke="#191970" points="1437.5868,-388.5844 1446.6366,-383.0752 1436.1264,-381.7384 1437.5868,-388.5844"/>
</g>
<!-- Node40 -->
<g id="node26" class="node">
<title>Node40</title>
<polygon fill="none" stroke="#bfbfbf" points="1328,-425.5 1328,-444.5 1366,-444.5 1366,-425.5 1328,-425.5"/>
<text text-anchor="middle" x="1347" y="-432.5" font-family="FreeSans.ttf" font-size="10.00" fill="#000000">map</text>
</g>
<!-- Node1&#45;&gt;Node40 -->
<g id="edge52" class="edge">
<title>Node1&#45;&gt;Node40</title>
<path fill="none" stroke="#191970" d="M1154.625,-486.8906C1199.6542,-474.7446 1276.3033,-454.0695 1317.9609,-442.8329"/>
<polygon fill="#191970" stroke="#191970" points="1319.0139,-446.174 1327.7573,-440.1905 1317.1909,-439.4156 1319.0139,-446.174"/>
</g>
<!-- Node4 -->
<g id="node5" class="node">
<title>Node4</title>
<g id="a_node5"><a xlink:href="Utils_8h.html" target="_top" xlink:title="iDynTree/Core/Utils.h">
<polygon fill="none" stroke="#000000" points="668.5,-56.5 668.5,-75.5 787.5,-75.5 787.5,-56.5 668.5,-56.5"/>
<text text-anchor="middle" x="728" y="-63.5" font-family="FreeSans.ttf" font-size="10.00" fill="#000000">iDynTree/Core/Utils.h</text>
</a>
</g>
</g>
<!-- Node3&#45;&gt;Node4 -->
<g id="edge4" class="edge">
<title>Node3&#45;&gt;Node4</title>
<path fill="none" stroke="#191970" d="M1060.5213,-112.4369C987.2416,-102.2033 871.6072,-86.0549 797.8168,-75.75"/>
<polygon fill="#191970" stroke="#191970" points="798.0791,-72.2527 787.6911,-74.3359 797.1109,-79.1855 798.0791,-72.2527"/>
</g>
<!-- Node6 -->
<g id="node7" class="node">
<title>Node6</title>
<g id="a_node7"><a xlink:href="Span_8h.html" target="_top" xlink:title="iDynTree/Core/Span.h">
<polygon fill="none" stroke="#ff0000" points="1068.5,-56.5 1068.5,-75.5 1189.5,-75.5 1189.5,-56.5 1068.5,-56.5"/>
<text text-anchor="middle" x="1129" y="-63.5" font-family="FreeSans.ttf" font-size="10.00" fill="#000000">iDynTree/Core/Span.h</text>
</a>
</g>
</g>
<!-- Node3&#45;&gt;Node6 -->
<g id="edge6" class="edge">
<title>Node3&#45;&gt;Node6</title>
<path fill="none" stroke="#191970" d="M1129,-112.2455C1129,-104.9382 1129,-94.6944 1129,-85.7046"/>
<polygon fill="#191970" stroke="#191970" points="1132.5001,-85.6426 1129,-75.6427 1125.5001,-85.6427 1132.5001,-85.6426"/>
</g>
<!-- Node3&#45;&gt;Node7 -->
<g id="edge11" class="edge">
<title>Node3&#45;&gt;Node7</title>
<path fill="none" stroke="#191970" d="M1154.5262,-112.3698C1170.1421,-104.9914 1188.8289,-93.1364 1198,-76 1206.3472,-60.4032 1197.3279,-41.4068 1187.8755,-27.8059"/>
<polygon fill="#191970" stroke="#191970" points="1190.6003,-25.6063 1181.7795,-19.7373 1185.0151,-29.826 1190.6003,-25.6063"/>
</g>
<!-- Node15 -->
<g id="node9" class="node">
<title>Node15</title>
<polygon fill="none" stroke="#bfbfbf" points="1665,-56.5 1665,-75.5 1709,-75.5 1709,-56.5 1665,-56.5"/>
<text text-anchor="middle" x="1687" y="-63.5" font-family="FreeSans.ttf" font-size="10.00" fill="#000000">string</text>
</g>
<!-- Node3&#45;&gt;Node15 -->
<g id="edge9" class="edge">
<title>Node3&#45;&gt;Node15</title>
<path fill="none" stroke="#191970" d="M1209.5421,-113.9169C1334.4321,-101.3832 1569.3227,-77.8099 1654.8297,-69.2286"/>
<polygon fill="#191970" stroke="#191970" points="1655.3604,-72.693 1664.9609,-68.2118 1654.6614,-65.728 1655.3604,-72.693"/>
</g>
<!-- Node16 -->
<g id="node10" class="node">
<title>Node16</title>
<polygon fill="none" stroke="#bfbfbf" points="994,-56.5 994,-75.5 1050,-75.5 1050,-56.5 994,-56.5"/>
<text text-anchor="middle" x="1022" y="-63.5" font-family="FreeSans.ttf" font-size="10.00" fill="#000000">sstream</text>
</g>
<!-- Node3&#45;&gt;Node16 -->
<g id="edge10" class="edge">
<title>Node3&#45;&gt;Node16</title>
<path fill="none" stroke="#191970" d="M1110.362,-112.2455C1093.5614,-103.4527 1068.6366,-90.4079 1049.5382,-80.4125"/>
<polygon fill="#191970" stroke="#191970" points="1050.9073,-77.1787 1040.4244,-75.6427 1047.6614,-83.3807 1050.9073,-77.1787"/>
</g>
<!-- Node17 -->
<g id="node11" class="node">
<title>Node17</title>
<polygon fill="none" stroke="#bfbfbf" points="926,-56.5 926,-75.5 976,-75.5 976,-56.5 926,-56.5"/>
<text text-anchor="middle" x="951" y="-63.5" font-family="FreeSans.ttf" font-size="10.00" fill="#000000">cstring</text>
</g>
<!-- Node3&#45;&gt;Node17 -->
<g id="edge12" class="edge">
<title>Node3&#45;&gt;Node17</title>
<path fill="none" stroke="#191970" d="M1098.4007,-112.3733C1067.0524,-102.5109 1018.3971,-87.2036 985.6499,-76.9011"/>
<polygon fill="#191970" stroke="#191970" points="986.6239,-73.5384 976.0344,-73.876 984.5231,-80.2158 986.6239,-73.5384"/>
</g>
<!-- Node5 -->
<g id="node6" class="node">
<title>Node5</title>
<polygon fill="none" stroke="#bfbfbf" points="912.5,-.5 912.5,-19.5 965.5,-19.5 965.5,-.5 912.5,-.5"/>
<text text-anchor="middle" x="939" y="-7.5" font-family="FreeSans.ttf" font-size="10.00" fill="#000000">cstddef</text>
</g>
<!-- Node4&#45;&gt;Node5 -->
<g id="edge5" class="edge">
<title>Node4&#45;&gt;Node5</title>
<path fill="none" stroke="#191970" d="M764.2722,-56.3733C802.8862,-46.125 863.6528,-29.9974 902.3939,-19.7154"/>
<polygon fill="#191970" stroke="#191970" points="903.4531,-23.0555 912.2207,-17.1073 901.6574,-16.2897 903.4531,-23.0555"/>
</g>
<!-- Node6&#45;&gt;Node5 -->
<g id="edge8" class="edge">
<title>Node6&#45;&gt;Node5</title>
<path fill="none" stroke="#191970" d="M1096.3378,-56.3733C1062.7319,-46.4684 1010.4926,-31.0715 975.5347,-20.7681"/>
<polygon fill="#191970" stroke="#191970" points="976.3037,-17.346 965.7221,-17.876 974.3247,-24.0604 976.3037,-17.346"/>
</g>
<!-- Node6&#45;&gt;Node7 -->
<g id="edge7" class="edge">
<title>Node6&#45;&gt;Node7</title>
<path fill="none" stroke="#191970" d="M1136.6642,-56.2455C1142.8473,-48.3761 1151.7063,-37.101 1159.1289,-27.6542"/>
<polygon fill="#191970" stroke="#191970" points="1161.9975,-29.6683 1165.4236,-19.6427 1156.4932,-25.3435 1161.9975,-29.6683"/>
</g>
<!-- Node18&#45;&gt;Node6 -->
<g id="edge14" class="edge">
<title>Node18&#45;&gt;Node6</title>
<path fill="none" stroke="#191970" d="M1143.5124,-363.8989C1153.4078,-354.264 1167.8855,-338.518 1176,-322 1217.9675,-236.57 1267.4967,-193.2996 1218,-112 1208.7,-96.7246 1192.5134,-86.2991 1176.4724,-79.2919"/>
<polygon fill="#191970" stroke="#191970" points="1177.6826,-76.0065 1167.0976,-75.5503 1175.0878,-82.5078 1177.6826,-76.0065"/>
</g>
<!-- Node18&#45;&gt;Node15 -->
<g id="edge15" class="edge">
<title>Node18&#45;&gt;Node15</title>
<path fill="none" stroke="#191970" d="M1149.4484,-363.8926C1200.3545,-334.2113 1359.9639,-241.5456 1494,-168 1552.4075,-135.9518 1621.6062,-99.821 1659.2347,-80.3264"/>
<polygon fill="#191970" stroke="#191970" points="1661.2629,-83.2178 1668.5358,-75.5135 1658.0458,-77.0008 1661.2629,-83.2178"/>
</g>
<!-- Node19&#45;&gt;Node15 -->
<g id="edge17" class="edge">
<title>Node19&#45;&gt;Node15</title>
<path fill="none" stroke="#191970" d="M2448.2302,-363.9778C2415.4998,-344.9994 2349,-299.1056 2349,-239.5 2349,-239.5 2349,-239.5 2349,-178 2349,-46.6819 2190.3391,-134.712 2061,-112 1935.2657,-89.921 1783.9091,-74.7742 1719.0468,-68.82"/>
<polygon fill="#191970" stroke="#191970" points="1719.3132,-65.3299 1709.0377,-67.9114 1718.6803,-72.3012 1719.3132,-65.3299"/>
</g>
<!-- Node21 -->
<g id="node15" class="node">
<title>Node21</title>
<g id="a_node15"><a xlink:href="SpatialMotionVector_8h.html" target="_top" xlink:title="iDynTree/Core/SpatialMotion\lVector.h">
<polygon fill="none" stroke="#000000" points="739.5,-358.5 739.5,-388.5 894.5,-388.5 894.5,-358.5 739.5,-358.5"/>
<text text-anchor="start" x="747.5" y="-376.5" font-family="FreeSans.ttf" font-size="10.00" fill="#000000">iDynTree/Core/SpatialMotion</text>
<text text-anchor="middle" x="817" y="-365.5" font-family="FreeSans.ttf" font-size="10.00" fill="#000000">Vector.h</text>
</a>
</g>
</g>
<!-- Node20&#45;&gt;Node21 -->
<g id="edge19" class="edge">
<title>Node20&#45;&gt;Node21</title>
<path fill="none" stroke="#191970" d="M914.875,-425.3906C898.7397,-416.8361 874.6245,-404.0509 854.3691,-393.3121"/>
<polygon fill="#191970" stroke="#191970" points="855.8514,-390.1365 845.3768,-388.5446 852.5724,-396.3211 855.8514,-390.1365"/>
</g>
<!-- Node21&#45;&gt;Node3 -->
<g id="edge20" class="edge">
<title>Node21&#45;&gt;Node3</title>
<path fill="none" stroke="#191970" d="M894.5844,-365.7575C956.8441,-358.0274 1037.7208,-344.0766 1062,-322 1115.0428,-273.7692 1085.6243,-235.4209 1110,-168 1113.2224,-159.0871 1117.1715,-149.3671 1120.633,-141.1679"/>
<polygon fill="#191970" stroke="#191970" points="1123.9384,-142.3407 1124.6654,-131.7708 1117.5056,-139.5803 1123.9384,-142.3407"/>
</g>
<!-- Node22 -->
<g id="node16" class="node">
<title>Node22</title>
<g id="a_node16"><a xlink:href="LinearMotionVector3_8h.html" target="_top" xlink:title="iDynTree/Core/LinearMotion\lVector3.h">
<polygon fill="none" stroke="#ff0000" points="512.5,-291.5 512.5,-321.5 663.5,-321.5 663.5,-291.5 512.5,-291.5"/>
<text text-anchor="start" x="520.5" y="-309.5" font-family="FreeSans.ttf" font-size="10.00" fill="#000000">iDynTree/Core/LinearMotion</text>
<text text-anchor="middle" x="588" y="-298.5" font-family="FreeSans.ttf" font-size="10.00" fill="#000000">Vector3.h</text>
</a>
</g>
</g>
<!-- Node21&#45;&gt;Node22 -->
<g id="edge21" class="edge">
<title>Node21&#45;&gt;Node22</title>
<path fill="none" stroke="#191970" d="M765.6079,-358.4639C731.2551,-348.4131 685.8805,-335.1375 649.5934,-324.5208"/>
<polygon fill="#191970" stroke="#191970" points="650.1967,-321.0506 639.6162,-321.6017 648.231,-327.769 650.1967,-321.0506"/>
</g>
<!-- Node30 -->
<g id="node17" class="node">
<title>Node30</title>
<g id="a_node17"><a xlink:href="PrivateMotionForceVertorAssociations_8h.html" target="_top" xlink:title="iDynTree/Core/PrivateMotion\lForceVertorAssociations.h">
<polygon fill="none" stroke="#000000" points="356.5,-224.5 356.5,-254.5 511.5,-254.5 511.5,-224.5 356.5,-224.5"/>
<text text-anchor="start" x="364.5" y="-242.5" font-family="FreeSans.ttf" font-size="10.00" fill="#000000">iDynTree/Core/PrivateMotion</text>
<text text-anchor="middle" x="434" y="-231.5" font-family="FreeSans.ttf" font-size="10.00" fill="#000000">ForceVertorAssociations.h</text>
</a>
</g>
</g>
<!-- Node21&#45;&gt;Node30 -->
<g id="edge37" class="edge">
<title>Node21&#45;&gt;Node30</title>
<path fill="none" stroke="#191970" d="M739.2246,-359.5678C736.1099,-359.0339 733.0258,-358.5094 730,-358 629.2679,-341.0408 591.8611,-372.3813 503,-322 478.7116,-308.2293 459.2558,-282.3983 447.2738,-263.2943"/>
<polygon fill="#191970" stroke="#191970" points="450.1594,-261.3015 442.0037,-254.5387 444.162,-264.9114 450.1594,-261.3015"/>
</g>
<!-- Node31 -->
<g id="node18" class="node">
<title>Node31</title>
<g id="a_node18"><a xlink:href="AngularMotionVector3_8h.html" target="_top" xlink:title="iDynTree/Core/AngularMotion\lVector3.h">
<polygon fill="none" stroke="#ff0000" points="682,-291.5 682,-321.5 840,-321.5 840,-291.5 682,-291.5"/>
<text text-anchor="start" x="690" y="-309.5" font-family="FreeSans.ttf" font-size="10.00" fill="#000000">iDynTree/Core/AngularMotion</text>
<text text-anchor="middle" x="761" y="-298.5" font-family="FreeSans.ttf" font-size="10.00" fill="#000000">Vector3.h</text>
</a>
</g>
</g>
<!-- Node21&#45;&gt;Node31 -->
<g id="edge23" class="edge">
<title>Node21&#45;&gt;Node31</title>
<path fill="none" stroke="#191970" d="M804.2927,-358.2967C797.2044,-349.816 788.2298,-339.0785 780.2921,-329.5817"/>
<polygon fill="#191970" stroke="#191970" points="782.7556,-327.0714 773.657,-321.6432 777.3846,-331.5606 782.7556,-327.0714"/>
</g>
<!-- Node32 -->
<g id="node19" class="node">
<title>Node32</title>
<g id="a_node19"><a xlink:href="SpatialVector_8h.html" target="_top" xlink:title="iDynTree/Core/SpatialVector.h">
<polygon fill="none" stroke="#ff0000" points="858.5,-297 858.5,-316 1019.5,-316 1019.5,-297 858.5,-297"/>
<text text-anchor="middle" x="939" y="-304" font-family="FreeSans.ttf" font-size="10.00" fill="#000000">iDynTree/Core/SpatialVector.h</text>
</a>
</g>
</g>
<!-- Node21&#45;&gt;Node32 -->
<g id="edge26" class="edge">
<title>Node21&#45;&gt;Node32</title>
<path fill="none" stroke="#191970" d="M844.3792,-358.4639C864.757,-347.2728 892.4146,-332.0838 912.5632,-321.0186"/>
<polygon fill="#191970" stroke="#191970" points="914.4319,-323.9855 921.5123,-316.1039 911.0623,-317.8498 914.4319,-323.9855"/>
</g>
<!-- Node22&#45;&gt;Node30 -->
<g id="edge22" class="edge">
<title>Node22&#45;&gt;Node30</title>
<path fill="none" stroke="#191970" d="M553.4394,-291.4639C531.1273,-281.7567 501.9013,-269.0415 477.9446,-258.6188"/>
<polygon fill="#191970" stroke="#191970" points="479.2774,-255.3818 468.7113,-254.6017 476.4848,-261.8006 479.2774,-255.3818"/>
</g>
<!-- Node31&#45;&gt;Node4 -->
<g id="edge25" class="edge">
<title>Node31&#45;&gt;Node4</title>
<path fill="none" stroke="#191970" d="M740.3909,-291.3171C729.732,-282.1407 717.7717,-269.4393 712,-255 688.4104,-195.9844 701.4124,-174.6675 712,-112 713.545,-102.8551 716.7034,-93.1019 719.809,-84.9405"/>
<polygon fill="#191970" stroke="#191970" points="723.0742,-86.2021 723.589,-75.6198 716.5873,-83.5713 723.0742,-86.2021"/>
</g>
<!-- Node31&#45;&gt;Node30 -->
<g id="edge24" class="edge">
<title>Node31&#45;&gt;Node30</title>
<path fill="none" stroke="#191970" d="M687.6148,-291.4639C637.1097,-281.1157 569.9212,-267.3493 517.3886,-256.5857"/>
<polygon fill="#191970" stroke="#191970" points="517.9216,-253.1223 507.4226,-254.5438 516.5165,-259.9798 517.9216,-253.1223"/>
</g>
<!-- Node32&#45;&gt;Node4 -->
<g id="edge34" class="edge">
<title>Node32&#45;&gt;Node4</title>
<path fill="none" stroke="#191970" d="M922.1809,-296.8323C906.5824,-287.381 883.2477,-271.969 866,-255 810.1426,-200.0451 760.122,-120.6198 738.8476,-84.7876"/>
<polygon fill="#191970" stroke="#191970" points="741.7083,-82.7469 733.6285,-75.8936 735.671,-86.2897 741.7083,-82.7469"/>
</g>
<!-- Node32&#45;&gt;Node16 -->
<g id="edge36" class="edge">
<title>Node32&#45;&gt;Node16</title>
<path fill="none" stroke="#191970" d="M942.4897,-296.678C951.8995,-270.1592 978.5347,-194.8687 1000,-132 1005.3052,-116.462 1011.1795,-98.8157 1015.5226,-85.6813"/>
<polygon fill="#191970" stroke="#191970" points="1018.9551,-86.4481 1018.7646,-75.855 1012.3076,-84.2549 1018.9551,-86.4481"/>
</g>
<!-- Node32&#45;&gt;Node30 -->
<g id="edge33" class="edge">
<title>Node32&#45;&gt;Node30</title>
<path fill="none" stroke="#191970" d="M886.2418,-296.9861C874.0307,-294.903 861.0767,-292.7883 849,-291 736.3366,-274.3173 605.9153,-258.7419 521.8053,-249.1811"/>
<polygon fill="#191970" stroke="#191970" points="522.1124,-245.6936 511.7819,-248.0453 521.3242,-252.6491 522.1124,-245.6936"/>
</g>
<!-- Node33 -->
<g id="node20" class="node">
<title>Node33</title>
<g id="a_node20"><a xlink:href="Position_8h.html" target="_top" xlink:title="Position.h">
<polygon fill="none" stroke="#ff0000" points="1538.5,-230 1538.5,-249 1603.5,-249 1603.5,-230 1538.5,-230"/>
<text text-anchor="middle" x="1571" y="-237" font-family="FreeSans.ttf" font-size="10.00" fill="#000000">Position.h</text>
</a>
</g>
</g>
<!-- Node32&#45;&gt;Node33 -->
<g id="edge27" class="edge">
<title>Node32&#45;&gt;Node33</title>
<path fill="none" stroke="#191970" d="M1019.6852,-297.9463C1155.1306,-283.5874 1423.6406,-255.122 1528.0551,-244.0527"/>
<polygon fill="#191970" stroke="#191970" points="1528.645,-247.5099 1538.2203,-242.9751 1527.907,-240.5489 1528.645,-247.5099"/>
</g>
<!-- Node25 -->
<g id="node21" class="node">
<title>Node25</title>
<g id="a_node21"><a xlink:href="Rotation_8h.html" target="_top" xlink:title="iDynTree/Core/Rotation.h">
<polygon fill="none" stroke="#ff0000" points="1502.5,-168.5 1502.5,-187.5 1639.5,-187.5 1639.5,-168.5 1502.5,-168.5"/>
<text text-anchor="middle" x="1571" y="-175.5" font-family="FreeSans.ttf" font-size="10.00" fill="#000000">iDynTree/Core/Rotation.h</text>
</a>
</g>
</g>
<!-- Node32&#45;&gt;Node25 -->
<g id="edge32" class="edge">
<title>Node32&#45;&gt;Node25</title>
<path fill="none" stroke="#191970" d="M985.7291,-296.9989C1099.4714,-273.8725 1390.4414,-214.7117 1514.0609,-189.577"/>
<polygon fill="#191970" stroke="#191970" points="1514.9801,-192.9618 1524.0823,-187.5394 1513.5854,-186.1022 1514.9801,-192.9618"/>
</g>
<!-- Node28 -->
<g id="node22" class="node">
<title>Node28</title>
<polygon fill="none" stroke="#bfbfbf" points="809,-56.5 809,-75.5 869,-75.5 869,-56.5 809,-56.5"/>
<text text-anchor="middle" x="839" y="-63.5" font-family="FreeSans.ttf" font-size="10.00" fill="#000000">iostream</text>
</g>
<!-- Node32&#45;&gt;Node28 -->
<g id="edge35" class="edge">
<title>Node32&#45;&gt;Node28</title>
<path fill="none" stroke="#191970" d="M929.0771,-296.655C904.8096,-271.7883 842.8545,-203.3332 821,-132 816.176,-116.2544 821.8581,-98.2036 828.0806,-84.9638"/>
<polygon fill="#191970" stroke="#191970" points="831.2866,-86.384 832.7794,-75.8949 825.0713,-83.1638 831.2866,-86.384"/>
</g>
<!-- Node33&#45;&gt;Node15 -->
<g id="edge31" class="edge">
<title>Node33&#45;&gt;Node15</title>
<path fill="none" stroke="#191970" d="M1593.2287,-229.986C1610.7543,-221.4103 1634.5693,-207.197 1649,-188 1672.3395,-156.9517 1681.5288,-111.3049 1685.006,-85.5524"/>
<polygon fill="#191970" stroke="#191970" points="1688.4913,-85.883 1686.2018,-75.5385 1681.5407,-85.0529 1688.4913,-85.883"/>
</g>
<!-- Node33&#45;&gt;Node25 -->
<g id="edge28" class="edge">
<title>Node33&#45;&gt;Node25</title>
<path fill="none" stroke="#191970" d="M1571,-229.8906C1571,-221.3657 1571,-208.6392 1571,-197.9235"/>
<polygon fill="#191970" stroke="#191970" points="1574.5001,-197.7448 1571,-187.7449 1567.5001,-197.7449 1574.5001,-197.7448"/>
</g>
<!-- Node25&#45;&gt;Node3 -->
<g id="edge30" class="edge">
<title>Node25&#45;&gt;Node3</title>
<path fill="none" stroke="#191970" d="M1502.4225,-169.3114C1424.7144,-159.4661 1297.9855,-143.4099 1214.0468,-132.7752"/>
<polygon fill="#191970" stroke="#191970" points="1214.3893,-129.2907 1204.0286,-131.5059 1213.5094,-136.2351 1214.3893,-129.2907"/>
</g>
<!-- Node25&#45;&gt;Node15 -->
<g id="edge29" class="edge">
<title>Node25&#45;&gt;Node15</title>
<path fill="none" stroke="#191970" d="M1580.8901,-168.4509C1600.6656,-149.3574 1645.2921,-106.2697 1669.9041,-82.5063"/>
<polygon fill="#191970" stroke="#191970" points="1672.372,-84.9888 1677.1349,-75.5249 1667.5098,-79.9529 1672.372,-84.9888"/>
</g>
<!-- Node38&#45;&gt;Node15 -->
<g id="edge51" class="edge">
<title>Node38&#45;&gt;Node15</title>
<path fill="none" stroke="#191970" d="M1547.4284,-363.9872C1609.9188,-349.2746 1706,-314.4645 1706,-239.5 1706,-239.5 1706,-239.5 1706,-178 1706,-145.2688 1698.0148,-107.9052 1692.3978,-85.6716"/>
<polygon fill="#191970" stroke="#191970" points="1695.7289,-84.5763 1689.8035,-75.7934 1688.9585,-86.3545 1695.7289,-84.5763"/>
</g>
<!-- Node38&#45;&gt;Node33 -->
<g id="edge39" class="edge">
<title>Node38&#45;&gt;Node33</title>
<path fill="none" stroke="#191970" d="M1500.4657,-363.8631C1513.0094,-341.7466 1544.0412,-287.0326 1560.4457,-258.109"/>
<polygon fill="#191970" stroke="#191970" points="1563.6948,-259.4747 1565.5838,-249.0496 1557.6059,-256.0213 1563.6948,-259.4747"/>
</g>
<!-- Node38&#45;&gt;Node25 -->
<g id="edge40" class="edge">
<title>Node38&#45;&gt;Node25</title>
<path fill="none" stroke="#191970" d="M1495.6151,-363.8382C1497.5216,-339.1898 1504.815,-272.4965 1530,-224 1535.5467,-213.3193 1544.1362,-203.1424 1552.0231,-195.0892"/>
<polygon fill="#191970" stroke="#191970" points="1554.7939,-197.2778 1559.537,-187.8039 1549.9212,-192.2522 1554.7939,-197.2778"/>
</g>
<!-- Node39 -->
<g id="node24" class="node">
<title>Node39</title>
<g id="a_node24"><a xlink:href="TransformSemantics_8h.html" target="_top" xlink:title="iDynTree/Core/TransformSemantics.h">
<polygon fill="none" stroke="#000000" points="1321.5,-112.5 1321.5,-131.5 1518.5,-131.5 1518.5,-112.5 1321.5,-112.5"/>
<text text-anchor="middle" x="1420" y="-119.5" font-family="FreeSans.ttf" font-size="10.00" fill="#000000">iDynTree/Core/TransformSemantics.h</text>
</a>
</g>
</g>
<!-- Node38&#45;&gt;Node39 -->
<g id="edge41" class="edge">
<title>Node38&#45;&gt;Node39</title>
<path fill="none" stroke="#191970" d="M1492.1515,-363.948C1481.0834,-326.8332 1440.805,-191.7662 1425.739,-141.2449"/>
<polygon fill="#191970" stroke="#191970" points="1429.0632,-140.1443 1422.8513,-131.5615 1422.3551,-142.1447 1429.0632,-140.1443"/>
</g>
<!-- Node27 -->
<g id="node25" class="node">
<title>Node27</title>
<g id="a_node25"><a xlink:href="MatrixFixSize_8h.html" target="_top" xlink:title="iDynTree/Core/MatrixFixSize.h">
<polygon fill="none" stroke="#000000" points="830.5,-112.5 830.5,-131.5 991.5,-131.5 991.5,-112.5 830.5,-112.5"/>
<text text-anchor="middle" x="911" y="-119.5" font-family="FreeSans.ttf" font-size="10.00" fill="#000000">iDynTree/Core/MatrixFixSize.h</text>
</a>
</g>
</g>
<!-- Node38&#45;&gt;Node27 -->
<g id="edge44" class="edge">
<title>Node38&#45;&gt;Node27</title>
<path fill="none" stroke="#191970" d="M1472.8196,-363.948C1383.2036,-325.3548 1047.6554,-180.8507 942.6306,-135.6217"/>
<polygon fill="#191970" stroke="#191970" points="943.7714,-132.3023 933.2025,-131.5615 941.0026,-138.7315 943.7714,-132.3023"/>
</g>
<!-- Node39&#45;&gt;Node4 -->
<g id="edge43" class="edge">
<title>Node39&#45;&gt;Node4</title>
<path fill="none" stroke="#191970" d="M1321.3034,-116.6299C1198.8239,-109.5163 983.666,-95.5478 800,-76 799.2471,-75.9199 798.4899,-75.838 797.729,-75.7545"/>
<polygon fill="#191970" stroke="#191970" points="798.0195,-72.2648 787.6827,-74.5886 797.2125,-79.2181 798.0195,-72.2648"/>
</g>
<!-- Node39&#45;&gt;Node15 -->
<g id="edge42" class="edge">
<title>Node39&#45;&gt;Node15</title>
<path fill="none" stroke="#191970" d="M1465.5956,-112.4369C1519.4603,-101.1394 1607.6946,-82.6333 1654.8706,-72.7387"/>
<polygon fill="#191970" stroke="#191970" points="1655.7687,-76.1266 1664.8372,-70.6484 1654.3317,-69.2757 1655.7687,-76.1266"/>
</g>
<!-- Node27&#45;&gt;Node4 -->
<g id="edge45" class="edge">
<title>Node27&#45;&gt;Node4</title>
<path fill="none" stroke="#191970" d="M879.5412,-112.3733C848.9793,-103.021 802.4174,-88.7725 768.9739,-78.5385"/>
<polygon fill="#191970" stroke="#191970" points="769.6348,-75.0806 759.0483,-75.5011 767.5864,-81.7742 769.6348,-75.0806"/>
</g>
<!-- Node27&#45;&gt;Node7 -->
<g id="edge46" class="edge">
<title>Node27&#45;&gt;Node7</title>
<path fill="none" stroke="#191970" d="M908.5728,-112.04C905.7256,-97.6948 903.0075,-71.2681 917,-56 945.9851,-24.3726 1072.9709,-14.3532 1136.5141,-11.2893"/>
<polygon fill="#191970" stroke="#191970" points="1137.0409,-14.7693 1146.874,-10.8245 1136.7272,-7.7763 1137.0409,-14.7693"/>
</g>
<!-- Node27&#45;&gt;Node15 -->
<g id="edge48" class="edge">
<title>Node27&#45;&gt;Node15</title>
<path fill="none" stroke="#191970" d="M991.5646,-115.6182C1007.2941,-114.397 1023.6625,-113.1435 1039,-112 1275.3587,-94.3782 1560.337,-74.6895 1654.8336,-68.2023"/>
<polygon fill="#191970" stroke="#191970" points="1655.1598,-71.6882 1664.8968,-67.5119 1654.6806,-64.7046 1655.1598,-71.6882"/>
</g>
<!-- Node27&#45;&gt;Node16 -->
<g id="edge50" class="edge">
<title>Node27&#45;&gt;Node16</title>
<path fill="none" stroke="#191970" d="M930.0816,-112.3733C947.7402,-103.4644 974.2053,-90.1127 994.2098,-80.0203"/>
<polygon fill="#191970" stroke="#191970" points="995.8158,-83.1303 1003.1674,-75.5011 992.6628,-76.8806 995.8158,-83.1303"/>
</g>
<!-- Node27&#45;&gt;Node17 -->
<g id="edge47" class="edge">
<title>Node27&#45;&gt;Node17</title>
<path fill="none" stroke="#191970" d="M917.9675,-112.2455C923.5311,-104.4564 931.478,-93.3308 938.1829,-83.9439"/>
<polygon fill="#191970" stroke="#191970" points="941.148,-85.8144 944.1124,-75.6427 935.4519,-81.7457 941.148,-85.8144"/>
</g>
<!-- Node27&#45;&gt;Node28 -->
<g id="edge49" class="edge">
<title>Node27&#45;&gt;Node28</title>
<path fill="none" stroke="#191970" d="M898.4586,-112.2455C887.7213,-103.8943 872.0527,-91.7076 859.4953,-81.9408"/>
<polygon fill="#191970" stroke="#191970" points="861.4401,-79.0194 851.3977,-75.6427 857.1425,-84.5449 861.4401,-79.0194"/>
</g>
<!-- Node41&#45;&gt;Node1 -->
<g id="edge54" class="edge">
<title>Node41&#45;&gt;Node1</title>
<path fill="none" stroke="#191970" d="M1475.888,-609.5128C1389.3477,-603.1433 1247.765,-589.772 1200,-568 1172.8206,-555.6112 1148.1129,-530.9693 1133.3186,-514.1118"/>
<polygon fill="#191970" stroke="#191970" points="1135.666,-511.4689 1126.5251,-506.1121 1130.3303,-516 1135.666,-511.4689"/>
</g>
<!-- Node41&#45;&gt;Node18 -->
<g id="edge99" class="edge">
<title>Node41&#45;&gt;Node18</title>
<path fill="none" stroke="#191970" d="M1475.8721,-608.5582C1405.4004,-602.0059 1302.5557,-589.1583 1269,-568 1233.5191,-545.6277 1168.4511,-435.8142 1143.3012,-391.7979"/>
<polygon fill="#191970" stroke="#191970" points="1146.2908,-389.9746 1138.3099,-383.0064 1140.2034,-393.4307 1146.2908,-389.9746"/>
</g>
<!-- Node41&#45;&gt;Node19 -->
<g id="edge100" class="edge">
<title>Node41&#45;&gt;Node19</title>
<path fill="none" stroke="#191970" d="M1616.0651,-613.5177C1822.811,-611.6972 2427.9438,-603.4067 2622,-568 2700.2574,-553.7215 2745.3727,-576.4515 2792,-512 2855.4792,-424.2545 2677.3257,-391.6893 2559.9616,-379.9097"/>
<polygon fill="#191970" stroke="#191970" points="2560.1528,-376.4119 2549.862,-378.9318 2559.4781,-383.3793 2560.1528,-376.4119"/>
</g>
<!-- Node41&#45;&gt;Node20 -->
<g id="edge102" class="edge">
<title>Node41&#45;&gt;Node20</title>
<path fill="none" stroke="#191970" d="M1475.9549,-611.8348C1398.9422,-608.0022 1272.1698,-597.3885 1167,-568 1108.7605,-551.7257 1095.5537,-541.9133 1043,-512 1010.059,-493.2502 974.5875,-467.2554 953.0887,-450.7829"/>
<polygon fill="#191970" stroke="#191970" points="955.0933,-447.9086 945.0414,-444.5603 950.8113,-453.4462 955.0933,-447.9086"/>
</g>
<!-- Node41&#45;&gt;Node38 -->
<g id="edge101" class="edge">
<title>Node41&#45;&gt;Node38</title>
<path fill="none" stroke="#191970" d="M1538.1108,-604.3277C1531.1593,-595.3821 1521.2006,-581.4723 1515,-568 1491.2871,-516.4783 1488.6248,-501.2019 1481,-445 1478.588,-427.2212 1483.1469,-407.1934 1487.6923,-392.867"/>
<polygon fill="#191970" stroke="#191970" points="1491.0905,-393.7493 1491.05,-383.1546 1484.4747,-391.4622 1491.0905,-393.7493"/>
</g>
<!-- Node41&#45;&gt;Node40 -->
<g id="edge105" class="edge">
<title>Node41&#45;&gt;Node40</title>
<path fill="none" stroke="#191970" d="M1616.209,-608.4952C1703.5969,-600.9186 1843.3374,-586.1327 1859,-568 1864.8105,-561.2732 1864.7531,-554.776 1859,-548 1827.0791,-510.4034 1688.2612,-522.1638 1640,-512 1523.2307,-487.4085 1494.9043,-477.1994 1380,-445 1378.7354,-444.6456 1377.4453,-444.2786 1376.1432,-443.9036"/>
<polygon fill="#191970" stroke="#191970" points="1376.7369,-440.4295 1366.155,-440.9532 1374.7539,-447.1428 1376.7369,-440.4295"/>
</g>
<!-- Node42 -->
<g id="node28" class="node">
<title>Node42</title>
<g id="a_node28"><a xlink:href="ConvexHullHelpers_8h.html" target="_top" xlink:title="iDynTree/ConvexHullHelpers.h">
<polygon fill="none" stroke="#000000" points="1536.5,-425.5 1536.5,-444.5 1701.5,-444.5 1701.5,-425.5 1536.5,-425.5"/>
<text text-anchor="middle" x="1619" y="-432.5" font-family="FreeSans.ttf" font-size="10.00" fill="#000000">iDynTree/ConvexHullHelpers.h</text>
</a>
</g>
</g>
<!-- Node41&#45;&gt;Node42 -->
<g id="edge55" class="edge">
<title>Node41&#45;&gt;Node42</title>
<path fill="none" stroke="#191970" d="M1537.9225,-604.1467C1528.3675,-591.2352 1514.6324,-567.8943 1522,-548 1537.1142,-507.1881 1574.29,-471.1911 1597.9804,-451.3221"/>
<polygon fill="#191970" stroke="#191970" points="1600.4968,-453.7862 1606.0325,-444.7526 1596.0716,-448.3624 1600.4968,-453.7862"/>
</g>
<!-- Node43 -->
<g id="node29" class="node">
<title>Node43</title>
<polygon fill="none" stroke="#bfbfbf" points="2002.5,-364 2002.5,-383 2049.5,-383 2049.5,-364 2002.5,-364"/>
<text text-anchor="middle" x="2026" y="-371" font-family="FreeSans.ttf" font-size="10.00" fill="#000000">vector</text>
</g>
<!-- Node41&#45;&gt;Node43 -->
<g id="edge104" class="edge">
<title>Node41&#45;&gt;Node43</title>
<path fill="none" stroke="#191970" d="M1551.068,-604.2122C1559.516,-589.0591 1578.044,-560.3794 1603,-548 1764.7594,-467.7592 2300.5513,-589.373 2409,-445 2414.3387,-437.8929 2414.8516,-431.6911 2409,-425 2403.2322,-418.4047 2151.7317,-388.2672 2059.4751,-377.4114"/>
<polygon fill="#191970" stroke="#191970" points="2059.8813,-373.9351 2049.5413,-376.2447 2059.0647,-380.8874 2059.8813,-373.9351"/>
</g>
<!-- Node44 -->
<g id="node30" class="node">
<title>Node44</title>
<g id="a_node30"><a xlink:href="InverseKinematics_8h.html" target="_top" xlink:title="iDynTree/InverseKinematics.h">
<polygon fill="none" stroke="#000000" points="1649,-487 1649,-506 1811,-506 1811,-487 1649,-487"/>
<text text-anchor="middle" x="1730" y="-494" font-family="FreeSans.ttf" font-size="10.00" fill="#000000">iDynTree/InverseKinematics.h</text>
</a>
</g>
</g>
<!-- Node41&#45;&gt;Node44 -->
<g id="edge62" class="edge">
<title>Node41&#45;&gt;Node44</title>
<path fill="none" stroke="#191970" d="M1539.6211,-604.4133C1531.2642,-590.533 1519.1037,-564.6798 1532,-548 1546.5023,-529.2431 1599.7272,-516.0436 1647.3429,-507.7063"/>
<polygon fill="#191970" stroke="#191970" points="1648.1283,-511.1232 1657.4025,-506.0007 1646.9581,-504.2217 1648.1283,-511.1232"/>
</g>
<!-- Node46 -->
<g id="node32" class="node">
<title>Node46</title>
<g id="a_node32"><a xlink:href="KinDynComputations_8h.html" target="_top" xlink:title="iDynTree/KinDynComputations.h">
<polygon fill="none" stroke="#000000" points="2437.5,-548.5 2437.5,-567.5 2612.5,-567.5 2612.5,-548.5 2437.5,-548.5"/>
<text text-anchor="middle" x="2525" y="-555.5" font-family="FreeSans.ttf" font-size="10.00" fill="#000000">iDynTree/KinDynComputations.h</text>
</a>
</g>
</g>
<!-- Node41&#45;&gt;Node46 -->
<g id="edge70" class="edge">
<title>Node41&#45;&gt;Node46</title>
<path fill="none" stroke="#191970" d="M1616.0144,-609.9951C1787.6467,-600.1775 2229.6688,-574.8933 2427.1543,-563.5969"/>
<polygon fill="#191970" stroke="#191970" points="2427.4471,-567.086 2437.2309,-563.0205 2427.0473,-560.0974 2427.4471,-567.086"/>
</g>
<!-- Node57 -->
<g id="node36" class="node">
<title>Node57</title>
<g id="a_node36"><a xlink:href="Model_8h.html" target="_top" xlink:title="iDynTree/Model/Model.h">
<polygon fill="none" stroke="#000000" points="2035.5,-487 2035.5,-506 2168.5,-506 2168.5,-487 2035.5,-487"/>
<text text-anchor="middle" x="2102" y="-494" font-family="FreeSans.ttf" font-size="10.00" fill="#000000">iDynTree/Model/Model.h</text>
</a>
</g>
</g>
<!-- Node41&#45;&gt;Node57 -->
<g id="edge85" class="edge">
<title>Node41&#45;&gt;Node57</title>
<path fill="none" stroke="#191970" d="M1546.3904,-604.4977C1547.5581,-589.7358 1552.145,-561.5824 1570,-548 1651.0775,-486.3237 1926.1437,-526.3368 2027,-512 2034.6822,-510.908 2042.7595,-509.5083 2050.6525,-507.998"/>
<polygon fill="#191970" stroke="#191970" points="2051.3816,-511.4217 2060.5082,-506.0407 2050.0179,-504.5558 2051.3816,-511.4217"/>
</g>
<!-- Node66 -->
<g id="node41" class="node">
<title>Node66</title>
<polygon fill="none" stroke="#bfbfbf" points="1612,-548.5 1612,-567.5 1738,-567.5 1738,-548.5 1612,-548.5"/>
<text text-anchor="middle" x="1675" y="-555.5" font-family="FreeSans.ttf" font-size="10.00" fill="#000000">IpIpoptApplication.hpp</text>
</g>
<!-- Node41&#45;&gt;Node66 -->
<g id="edge103" class="edge">
<title>Node41&#45;&gt;Node66</title>
<path fill="none" stroke="#191970" d="M1568.1759,-604.3733C1588.9766,-595.3435 1620.2917,-581.7494 1643.6458,-571.6111"/>
<polygon fill="#191970" stroke="#191970" points="1645.3343,-574.6938 1653.1135,-567.5011 1642.5468,-568.2727 1645.3343,-574.6938"/>
</g>
<!-- Node67 -->
<g id="node42" class="node">
<title>Node67</title>
<polygon fill="none" stroke="#bfbfbf" points="1756.5,-548.5 1756.5,-567.5 1849.5,-567.5 1849.5,-548.5 1756.5,-548.5"/>
<text text-anchor="middle" x="1803" y="-555.5" font-family="FreeSans.ttf" font-size="10.00" fill="#000000">unordered_map</text>
</g>
<!-- Node41&#45;&gt;Node67 -->
<g id="edge106" class="edge">
<title>Node41&#45;&gt;Node67</title>
<path fill="none" stroke="#191970" d="M1589.8879,-604.4369C1633.9638,-594.8328 1701.9481,-580.0191 1749.2358,-569.7152"/>
<polygon fill="#191970" stroke="#191970" points="1750.2676,-573.0725 1759.2932,-567.5237 1748.7772,-566.233 1750.2676,-573.0725"/>
</g>
<!-- Node42&#45;&gt;Node15 -->
<g id="edge56" class="edge">
<title>Node42&#45;&gt;Node15</title>
<path fill="none" stroke="#191970" d="M1639.9222,-425.4312C1675.5066,-407.5522 1744,-365.4781 1744,-306.5 1744,-306.5 1744,-306.5 1744,-178 1744,-141.1826 1719.2325,-104.2377 1702.3499,-83.3313"/>
<polygon fill="#191970" stroke="#191970" points="1705.0131,-81.06 1695.9063,-75.6456 1699.6489,-85.5574 1705.0131,-81.06"/>
</g>
<!-- Node42&#45;&gt;Node18 -->
<g id="edge61" class="edge">
<title>Node42&#45;&gt;Node18</title>
<path fill="none" stroke="#191970" d="M1543.8618,-425.4918C1455.903,-414.3612 1310.5622,-395.9693 1218.4036,-384.3073"/>
<polygon fill="#191970" stroke="#191970" points="1218.6297,-380.808 1208.2693,-383.0248 1217.7508,-387.7526 1218.6297,-380.808"/>
</g>
<!-- Node42&#45;&gt;Node19 -->
<g id="edge58" class="edge">
<title>Node42&#45;&gt;Node19</title>
<path fill="none" stroke="#191970" d="M1701.624,-430.0302C1860.5869,-420.3964 2203.7249,-399.2306 2322,-389 2338.3887,-387.5824 2355.8054,-385.8771 2372.6543,-384.1237"/>
<polygon fill="#191970" stroke="#191970" points="2373.4792,-387.5562 2383.0575,-383.0278 2372.7458,-380.5947 2373.4792,-387.5562"/>
</g>
<!-- Node42&#45;&gt;Node33 -->
<g id="edge59" class="edge">
<title>Node42&#45;&gt;Node33</title>
<path fill="none" stroke="#191970" d="M1616.6197,-425.3051C1609.1339,-394.8163 1585.9683,-300.4646 1575.832,-259.1804"/>
<polygon fill="#191970" stroke="#191970" points="1579.1782,-258.1304 1573.3947,-249.2534 1572.3801,-259.7995 1579.1782,-258.1304"/>
</g>
<!-- Node42&#45;&gt;Node38 -->
<g id="edge60" class="edge">
<title>Node42&#45;&gt;Node38</title>
<path fill="none" stroke="#191970" d="M1599.625,-425.3906C1579.1505,-415.2359 1546.6558,-399.1196 1523.3115,-387.5416"/>
<polygon fill="#191970" stroke="#191970" points="1524.7528,-384.3496 1514.2389,-383.0419 1521.6425,-390.6207 1524.7528,-384.3496"/>
</g>
<!-- Node42&#45;&gt;Node43 -->
<g id="edge57" class="edge">
<title>Node42&#45;&gt;Node43</title>
<path fill="none" stroke="#191970" d="M1682.1472,-425.4581C1769.4666,-412.2636 1924.0059,-388.9119 1992.1321,-378.6176"/>
<polygon fill="#191970" stroke="#191970" points="1992.9357,-382.036 2002.3005,-377.0811 1991.8898,-375.1146 1992.9357,-382.036"/>
</g>
<!-- Node44&#45;&gt;Node15 -->
<g id="edge63" class="edge">
<title>Node44&#45;&gt;Node15</title>
<path fill="none" stroke="#191970" d="M1734.6147,-486.8665C1747.341,-459.3838 1782,-377.9763 1782,-306.5 1782,-306.5 1782,-306.5 1782,-178 1782,-134.9765 1740.7265,-100.0102 1712.5891,-81.1715"/>
<polygon fill="#191970" stroke="#191970" points="1714.287,-78.102 1703.9841,-75.632 1710.4979,-83.9879 1714.287,-78.102"/>
</g>
<!-- Node44&#45;&gt;Node42 -->
<g id="edge65" class="edge">
<title>Node44&#45;&gt;Node42</title>
<path fill="none" stroke="#191970" d="M1712.6563,-486.8906C1694.5727,-476.8713 1666.0141,-461.0483 1645.1835,-449.5071"/>
<polygon fill="#191970" stroke="#191970" points="1646.6654,-446.3268 1636.222,-444.5419 1643.2729,-452.4498 1646.6654,-446.3268"/>
</g>
<!-- Node44&#45;&gt;Node43 -->
<g id="edge64" class="edge">
<title>Node44&#45;&gt;Node43</title>
<path fill="none" stroke="#191970" d="M1798.6138,-486.9609C1858.7963,-477.6552 1940.9522,-462.3898 1969,-445 1989.9782,-431.9934 2006.5003,-408.4108 2016.2406,-391.897"/>
<polygon fill="#191970" stroke="#191970" points="2019.3231,-393.556 2021.1743,-383.1242 2013.2218,-390.1247 2019.3231,-393.556"/>
</g>
<!-- Node45 -->
<g id="node31" class="node">
<title>Node45</title>
<g id="a_node31"><a xlink:href="Direction_8h.html" target="_top" xlink:title="iDynTree/Core/Direction.h">
<polygon fill="none" stroke="#000000" points="1266.5,-168.5 1266.5,-187.5 1407.5,-187.5 1407.5,-168.5 1266.5,-168.5"/>
<text text-anchor="middle" x="1337" y="-175.5" font-family="FreeSans.ttf" font-size="10.00" fill="#000000">iDynTree/Core/Direction.h</text>
</a>
</g>
</g>
<!-- Node44&#45;&gt;Node45 -->
<g id="edge66" class="edge">
<title>Node44&#45;&gt;Node45</title>
<path fill="none" stroke="#191970" d="M1648.8982,-489.7394C1598.6074,-483.1621 1533.7583,-470.2538 1481,-445 1445.6857,-428.0961 1435.5503,-421.005 1413,-389 1369.2263,-326.8732 1348.0215,-236.8197 1340.4177,-197.5435"/>
<polygon fill="#191970" stroke="#191970" points="1343.8526,-196.8701 1338.5904,-187.6745 1336.9696,-198.1446 1343.8526,-196.8701"/>
</g>
<!-- Node45&#45;&gt;Node3 -->
<g id="edge68" class="edge">
<title>Node45&#45;&gt;Node3</title>
<path fill="none" stroke="#191970" d="M1301.2435,-168.3733C1266.0574,-158.9001 1212.2119,-144.4032 1174.1044,-134.1435"/>
<polygon fill="#191970" stroke="#191970" points="1174.856,-130.7213 1164.2899,-131.5011 1173.0361,-137.4806 1174.856,-130.7213"/>
</g>
<!-- Node45&#45;&gt;Node4 -->
<g id="edge69" class="edge">
<title>Node45&#45;&gt;Node4</title>
<path fill="none" stroke="#191970" d="M1266.3384,-176.2504C1144.6384,-172.4843 900.8553,-161.426 821,-132 791.6245,-121.1754 763.0564,-98.5424 745.5057,-82.8184"/>
<polygon fill="#191970" stroke="#191970" points="747.5455,-79.9387 737.8197,-75.7364 742.8021,-85.0866 747.5455,-79.9387"/>
</g>
<!-- Node45&#45;&gt;Node15 -->
<g id="edge67" class="edge">
<title>Node45&#45;&gt;Node15</title>
<path fill="none" stroke="#191970" d="M1327.8339,-168.3704C1315.6819,-154.4366 1297.3849,-128.5174 1312,-112 1334.6098,-86.4472 1568.195,-72.0439 1654.8663,-67.5464"/>
<polygon fill="#191970" stroke="#191970" points="1655.1092,-71.0386 1664.9186,-67.0352 1654.7537,-64.0477 1655.1092,-71.0386"/>
</g>
<!-- Node46&#45;&gt;Node3 -->
<g id="edge73" class="edge">
<title>Node46&#45;&gt;Node3</title>
<path fill="none" stroke="#191970" d="M2437.3051,-555.1609C2245.2112,-548.6616 1792.2918,-531.7321 1640,-512 1495.467,-493.2732 1436.6055,-531.0781 1319,-445 1204.9847,-361.5496 1239.8047,-286.5938 1163,-168 1156.7498,-158.3491 1149.1985,-148.0186 1142.8015,-139.5973"/>
<polygon fill="#191970" stroke="#191970" points="1145.5318,-137.4063 1136.6559,-131.6211 1139.9868,-141.6787 1145.5318,-137.4063"/>
</g>
<!-- Node46&#45;&gt;Node4 -->
<g id="edge75" class="edge">
<title>Node46&#45;&gt;Node4</title>
<path fill="none" stroke="#191970" d="M2437.3505,-556.0698C1991.897,-545.979 0,-497.3701 0,-435 0,-435 0,-435 0,-178 0,-111.2134 70.5635,-129.5608 135,-112 231.7334,-85.6373 522.9295,-72.801 657.9043,-68.1393"/>
<polygon fill="#191970" stroke="#191970" points="658.2539,-71.6296 668.1291,-67.7916 658.0159,-64.6336 658.2539,-71.6296"/>
</g>
<!-- Node46&#45;&gt;Node15 -->
<g id="edge71" class="edge">
<title>Node46&#45;&gt;Node15</title>
<path fill="none" stroke="#191970" d="M2612.5001,-553.1246C2680.1122,-547.545 2766.3536,-535.8798 2792,-512 2817.7972,-487.9798 2811,-470.2487 2811,-435 2811,-435 2811,-435 2811,-178 2811,-121.6093 1903.3833,-76.1257 1719.3249,-67.4817"/>
<polygon fill="#191970" stroke="#191970" points="1719.352,-63.9792 1709.1997,-67.0092 1719.0256,-70.9716 1719.352,-63.9792"/>
</g>
<!-- Node46&#45;&gt;Node19 -->
<g id="edge74" class="edge">
<title>Node46&#45;&gt;Node19</title>
<path fill="none" stroke="#191970" d="M2539.9976,-548.4791C2551.7848,-540.2257 2567.7137,-527.231 2577,-512 2597.5093,-478.3613 2616.0547,-457.6464 2594,-425 2580.9763,-405.7216 2559.4099,-393.6586 2537.6578,-386.1108"/>
<polygon fill="#191970" stroke="#191970" points="2538.6063,-382.7398 2528.016,-383.0479 2536.487,-389.4113 2538.6063,-382.7398"/>
</g>
<!-- Node46&#45;&gt;Node43 -->
<g id="edge72" class="edge">
<title>Node46&#45;&gt;Node43</title>
<path fill="none" stroke="#191970" d="M2522.1471,-548.2131C2514.2067,-522.9028 2489.2638,-455.1629 2442,-425 2433.9252,-419.8468 2157.5894,-388.3175 2059.8412,-377.2977"/>
<polygon fill="#191970" stroke="#191970" points="2059.9536,-373.7883 2049.6247,-376.1473 2059.1703,-380.7443 2059.9536,-373.7883"/>
</g>
<!-- Node47 -->
<g id="node33" class="node">
<title>Node47</title>
<g id="a_node33"><a xlink:href="Indices_8h.html" target="_top" xlink:title="iDynTree/Model/Indices.h">
<polygon fill="none" stroke="#000000" points="2175,-364 2175,-383 2313,-383 2313,-364 2175,-364"/>
<text text-anchor="middle" x="2244" y="-371" font-family="FreeSans.ttf" font-size="10.00" fill="#000000">iDynTree/Model/Indices.h</text>
</a>
</g>
</g>
<!-- Node46&#45;&gt;Node47 -->
<g id="edge76" class="edge">
<title>Node46&#45;&gt;Node47</title>
<path fill="none" stroke="#191970" d="M2532.1908,-548.3317C2549.027,-524.439 2587.2918,-461.8804 2556,-425 2548.4469,-416.0979 2413.1486,-396.2843 2323.2246,-383.9927"/>
<polygon fill="#191970" stroke="#191970" points="2323.6927,-380.5242 2313.3119,-382.6431 2322.7483,-387.4603 2323.6927,-380.5242"/>
</g>
<!-- Node48 -->
<g id="node34" class="node">
<title>Node48</title>
<g id="a_node34"><a xlink:href="FreeFloatingMatrices_8h.html" target="_top" xlink:title="iDynTree/Model/FreeFloating\lMatrices.h">
<polygon fill="none" stroke="#000000" points="2629,-481.5 2629,-511.5 2783,-511.5 2783,-481.5 2629,-481.5"/>
<text text-anchor="start" x="2637" y="-499.5" font-family="FreeSans.ttf" font-size="10.00" fill="#000000">iDynTree/Model/FreeFloating</text>
<text text-anchor="middle" x="2706" y="-488.5" font-family="FreeSans.ttf" font-size="10.00" fill="#000000">Matrices.h</text>
</a>
</g>
</g>
<!-- Node46&#45;&gt;Node48 -->
<g id="edge78" class="edge">
<title>Node46&#45;&gt;Node48</title>
<path fill="none" stroke="#191970" d="M2553.2813,-548.3906C2579.5919,-539.4508 2619.5012,-525.8905 2651.9239,-514.8739"/>
<polygon fill="#191970" stroke="#191970" points="2653.3801,-518.0757 2661.7224,-511.5446 2651.128,-511.4479 2653.3801,-518.0757"/>
</g>
<!-- Node49 -->
<g id="node35" class="node">
<title>Node49</title>
<g id="a_node35"><a xlink:href="LinkState_8h.html" target="_top" xlink:title="iDynTree/Model/LinkState.h">
<polygon fill="none" stroke="#ff0000" points="1868.5,-487 1868.5,-506 2017.5,-506 2017.5,-487 1868.5,-487"/>
<text text-anchor="middle" x="1943" y="-494" font-family="FreeSans.ttf" font-size="10.00" fill="#000000">iDynTree/Model/LinkState.h</text>
</a>
</g>
</g>
<!-- Node46&#45;&gt;Node49 -->
<g id="edge80" class="edge">
<title>Node46&#45;&gt;Node49</title>
<path fill="none" stroke="#191970" d="M2437.4646,-552.3188C2337.79,-545.2925 2170.2056,-531.7851 2027,-512 2018.3547,-510.8056 2009.245,-509.3412 2000.3414,-507.794"/>
<polygon fill="#191970" stroke="#191970" points="2000.8715,-504.3334 1990.4121,-506.0221 1999.6417,-511.2245 2000.8715,-504.3334"/>
</g>
<!-- Node47&#45;&gt;Node15 -->
<g id="edge77" class="edge">
<title>Node47&#45;&gt;Node15</title>
<path fill="none" stroke="#191970" d="M2222.1724,-363.9812C2184.2019,-345.7737 2110,-302.1747 2110,-239.5 2110,-239.5 2110,-239.5 2110,-178 2110,-97.1897 1817.8596,-73.3421 1719.1437,-67.5906"/>
<polygon fill="#191970" stroke="#191970" points="1719.3264,-64.0955 1709.1467,-67.0321 1718.9359,-71.0846 1719.3264,-64.0955"/>
</g>
<!-- Node48&#45;&gt;Node19 -->
<g id="edge79" class="edge">
<title>Node48&#45;&gt;Node19</title>
<path fill="none" stroke="#191970" d="M2693.9658,-481.2171C2680.4901,-465.071 2657.211,-439.9251 2632,-425 2599.9975,-406.0543 2560.3328,-393.414 2527.8017,-385.3992"/>
<polygon fill="#191970" stroke="#191970" points="2528.4895,-381.9653 2517.9512,-383.0585 2526.8711,-388.7756 2528.4895,-381.9653"/>
</g>
<!-- Node49&#45;&gt;Node20 -->
<g id="edge82" class="edge">
<title>Node49&#45;&gt;Node20</title>
<path fill="none" stroke="#191970" d="M1875.1107,-486.9683C1857.2164,-484.7237 1837.9057,-482.5395 1820,-481 1474.6823,-451.31 1386.7609,-468.984 1041,-445 1029.1126,-444.1754 1016.5029,-443.1475 1004.2543,-442.0671"/>
<polygon fill="#191970" stroke="#191970" points="1004.3479,-438.5614 994.0743,-441.1505 1003.7201,-445.5332 1004.3479,-438.5614"/>
</g>
<!-- Node49&#45;&gt;Node38 -->
<g id="edge81" class="edge">
<title>Node49&#45;&gt;Node38</title>
<path fill="none" stroke="#191970" d="M1868.874,-486.9718C1852.7672,-484.9538 1835.8169,-482.8698 1820,-481 1747.6192,-472.4434 1542.6267,-499.2922 1494,-445 1481.6176,-431.1749 1484.0385,-409.1129 1488.1958,-393.1493"/>
<polygon fill="#191970" stroke="#191970" points="1491.6455,-393.8331 1491.1907,-383.2481 1484.9453,-391.8064 1491.6455,-393.8331"/>
</g>
<!-- Node49&#45;&gt;Node43 -->
<g id="edge84" class="edge">
<title>Node49&#45;&gt;Node43</title>
<path fill="none" stroke="#191970" d="M1957.8415,-486.9621C1971.14,-477.711 1990.3012,-462.529 2002,-445 2012.6452,-429.0497 2018.9652,-407.9488 2022.4248,-392.8106"/>
<polygon fill="#191970" stroke="#191970" points="2025.8557,-393.5028 2024.4594,-383.0004 2019.0015,-392.0812 2025.8557,-393.5028"/>
</g>
<!-- Node49&#45;&gt;Node47 -->
<g id="edge83" class="edge">
<title>Node49&#45;&gt;Node47</title>
<path fill="none" stroke="#191970" d="M1966.619,-486.8484C2019.9192,-465.0679 2149.6528,-412.0538 2210.9201,-387.0177"/>
<polygon fill="#191970" stroke="#191970" points="2212.5578,-390.1295 2220.4908,-383.1068 2209.9098,-383.6496 2212.5578,-390.1295"/>
</g>
<!-- Node57&#45;&gt;Node38 -->
<g id="edge90" class="edge">
<title>Node57&#45;&gt;Node38</title>
<path fill="none" stroke="#191970" d="M2060.9072,-486.9906C2049.9403,-484.732 2038.0626,-482.5354 2027,-481 1971.9392,-473.3581 1573.7152,-476.626 1528,-445 1510.753,-433.0685 1502.3264,-409.7635 1498.3422,-392.9994"/>
<polygon fill="#191970" stroke="#191970" points="1501.7527,-392.2072 1496.3175,-383.1128 1494.8951,-393.6117 1501.7527,-392.2072"/>
</g>
<!-- Node57&#45;&gt;Node43 -->
<g id="edge98" class="edge">
<title>Node57&#45;&gt;Node43</title>
<path fill="none" stroke="#191970" d="M2096.0364,-486.8484C2083.3832,-466.3703 2053.6702,-418.282 2037.3049,-391.7962"/>
<polygon fill="#191970" stroke="#191970" points="2040.1698,-389.7741 2031.9359,-383.1068 2034.2149,-393.4536 2040.1698,-389.7741"/>
</g>
<!-- Node57&#45;&gt;Node47 -->
<g id="edge91" class="edge">
<title>Node57&#45;&gt;Node47</title>
<path fill="none" stroke="#191970" d="M2168.7034,-489.8734C2254.2941,-480.6868 2393.6394,-463.152 2409,-445 2438.8689,-409.7031 2378.949,-391.3159 2323.1365,-382.0866"/>
<polygon fill="#191970" stroke="#191970" points="2323.5693,-378.6118 2313.148,-380.5216 2322.4857,-385.5274 2323.5693,-378.6118"/>
</g>
<!-- Node58 -->
<g id="node37" class="node">
<title>Node58</title>
<g id="a_node37"><a xlink:href="IJoint_8h.html" target="_top" xlink:title="iDynTree/Model/IJoint.h">
<polygon fill="none" stroke="#000000" points="2130,-425.5 2130,-444.5 2258,-444.5 2258,-425.5 2130,-425.5"/>
<text text-anchor="middle" x="2194" y="-432.5" font-family="FreeSans.ttf" font-size="10.00" fill="#000000">iDynTree/Model/IJoint.h</text>
</a>
</g>
</g>
<!-- Node57&#45;&gt;Node58 -->
<g id="edge86" class="edge">
<title>Node57&#45;&gt;Node58</title>
<path fill="none" stroke="#191970" d="M2116.375,-486.8906C2131.0931,-477.0519 2154.1832,-461.6167 2171.3589,-450.1351"/>
<polygon fill="#191970" stroke="#191970" points="2173.3575,-453.0091 2179.7259,-444.5419 2169.4673,-447.1896 2173.3575,-453.0091"/>
</g>
<!-- Node59 -->
<g id="node38" class="node">
<title>Node59</title>
<g id="a_node38"><a xlink:href="Link_8h.html" target="_top" xlink:title="iDynTree/Model/Link.h">
<polygon fill="none" stroke="#ff0000" points="2276,-425.5 2276,-444.5 2400,-444.5 2400,-425.5 2276,-425.5"/>
<text text-anchor="middle" x="2338" y="-432.5" font-family="FreeSans.ttf" font-size="10.00" fill="#000000">iDynTree/Model/Link.h</text>
</a>
</g>
</g>
<!-- Node57&#45;&gt;Node59 -->
<g id="edge88" class="edge">
<title>Node57&#45;&gt;Node59</title>
<path fill="none" stroke="#191970" d="M2138.6161,-486.9581C2179.7811,-476.2308 2246.7101,-458.7895 2291.5291,-447.11"/>
<polygon fill="#191970" stroke="#191970" points="2292.5038,-450.473 2301.298,-444.5643 2290.7386,-443.6992 2292.5038,-450.473"/>
</g>
<!-- Node64 -->
<g id="node39" class="node">
<title>Node64</title>
<g id="a_node39"><a xlink:href="SolidShapes_8h.html" target="_top" xlink:title="iDynTree/Model/SolidShapes.h">
<polygon fill="none" stroke="#000000" points="1796.5,-425.5 1796.5,-444.5 1959.5,-444.5 1959.5,-425.5 1796.5,-425.5"/>
<text text-anchor="middle" x="1878" y="-432.5" font-family="FreeSans.ttf" font-size="10.00" fill="#000000">iDynTree/Model/SolidShapes.h</text>
</a>
</g>
</g>
<!-- Node57&#45;&gt;Node64 -->
<g id="edge92" class="edge">
<title>Node57&#45;&gt;Node64</title>
<path fill="none" stroke="#191970" d="M2067,-486.8906C2028.0412,-476.1944 1964.9907,-458.8836 1922.5429,-447.2294"/>
<polygon fill="#191970" stroke="#191970" points="1923.3241,-443.8144 1912.7542,-444.5419 1921.4707,-450.5646 1923.3241,-443.8144"/>
</g>
<!-- Node65 -->
<g id="node40" class="node">
<title>Node65</title>
<polygon fill="none" stroke="#bfbfbf" points="1810.5,-364 1810.5,-383 1859.5,-383 1859.5,-364 1810.5,-364"/>
<text text-anchor="middle" x="1835" y="-371" font-family="FreeSans.ttf" font-size="10.00" fill="#000000">cstdlib</text>
</g>
<!-- Node57&#45;&gt;Node65 -->
<g id="edge97" class="edge">
<title>Node57&#45;&gt;Node65</title>
<path fill="none" stroke="#191970" d="M2057.6595,-486.9209C2047.5991,-484.8633 2036.9477,-482.7758 2027,-481 1974.1256,-471.5613 1823.0365,-485.7092 1788,-445 1772.7216,-427.2479 1794.091,-404.2411 1812.7615,-389.1859"/>
<polygon fill="#191970" stroke="#191970" points="1814.937,-391.9283 1820.7453,-383.0674 1810.6791,-386.3722 1814.937,-391.9283"/>
</g>
<!-- Node58&#45;&gt;Node47 -->
<g id="edge87" class="edge">
<title>Node58&#45;&gt;Node47</title>
<path fill="none" stroke="#191970" d="M2201.8125,-425.3906C2209.254,-416.2376 2220.6334,-402.2409 2229.6992,-391.09"/>
<polygon fill="#191970" stroke="#191970" points="2232.4847,-393.212 2236.0774,-383.2449 2227.0533,-388.7962 2232.4847,-393.212"/>
</g>
<!-- Node59&#45;&gt;Node47 -->
<g id="edge89" class="edge">
<title>Node59&#45;&gt;Node47</title>
<path fill="none" stroke="#191970" d="M2323.3125,-425.3906C2308.2744,-415.5519 2284.6824,-400.1167 2267.1333,-388.6351"/>
<polygon fill="#191970" stroke="#191970" points="2268.8687,-385.588 2258.5844,-383.0419 2265.0363,-391.4457 2268.8687,-385.588"/>
</g>
<!-- Node64&#45;&gt;Node15 -->
<g id="edge94" class="edge">
<title>Node64&#45;&gt;Node15</title>
<path fill="none" stroke="#191970" d="M1879.2665,-425.3481C1881.9574,-403.9772 1888,-351.0292 1888,-306.5 1888,-306.5 1888,-306.5 1888,-178 1888,-101.8165 1776.4529,-76.9842 1719.5542,-69.2731"/>
<polygon fill="#191970" stroke="#191970" points="1719.6359,-65.7561 1709.2785,-67.9864 1718.7661,-72.7019 1719.6359,-65.7561"/>
</g>
<!-- Node64&#45;&gt;Node38 -->
<g id="edge96" class="edge">
<title>Node64&#45;&gt;Node38</title>
<path fill="none" stroke="#191970" d="M1818.5765,-425.4581C1749.8457,-414.4217 1636.8588,-396.2789 1564.2207,-384.6151"/>
<polygon fill="#191970" stroke="#191970" points="1564.6762,-381.1435 1554.2478,-383.0137 1563.5664,-388.0549 1564.6762,-381.1435"/>
</g>
<!-- Node64&#45;&gt;Node43 -->
<g id="edge95" class="edge">
<title>Node64&#45;&gt;Node43</title>
<path fill="none" stroke="#191970" d="M1901.125,-425.3906C1925.9967,-415.0554 1965.7298,-398.5447 1993.6844,-386.9284"/>
<polygon fill="#191970" stroke="#191970" points="1995.146,-390.1113 2003.0374,-383.0419 1992.4598,-383.6472 1995.146,-390.1113"/>
</g>
<!-- Node64&#45;&gt;Node65 -->
<g id="edge93" class="edge">
<title>Node64&#45;&gt;Node65</title>
<path fill="none" stroke="#191970" d="M1871.2813,-425.3906C1865.007,-416.417 1855.4777,-402.7879 1847.7596,-391.7491"/>
<polygon fill="#191970" stroke="#191970" points="1850.4121,-389.4348 1841.8135,-383.2449 1844.6753,-393.4459 1850.4121,-389.4348"/>
</g>
<!-- Node68&#45;&gt;Node38 -->
<g id="edge108" class="edge">
<title>Node68&#45;&gt;Node38</title>
<path fill="none" stroke="#191970" d="M1335.1018,-548.496C1321.3393,-524.9783 1290.3701,-463.2079 1319,-425 1332.195,-407.3907 1382.4561,-393.7827 1425.9069,-384.9891"/>
<polygon fill="#191970" stroke="#191970" points="1426.7786,-388.3848 1435.916,-383.0221 1425.4288,-381.5162 1426.7786,-388.3848"/>
</g>
<!-- Node68&#45;&gt;Node44 -->
<g id="edge109" class="edge">
<title>Node68&#45;&gt;Node44</title>
<path fill="none" stroke="#191970" d="M1401.3544,-548.4581C1471.1619,-537.4217 1585.9189,-519.2789 1659.6949,-507.6151"/>
<polygon fill="#191970" stroke="#191970" points="1660.4933,-511.0324 1669.824,-506.0137 1659.4001,-504.1183 1660.4933,-511.0324"/>
</g>
<!-- Node70&#45;&gt;Node3 -->
<g id="edge114" class="edge">
<title>Node70&#45;&gt;Node3</title>
<path fill="none" stroke="#191970" d="M756.406,-425.4889C795.7464,-417.0577 853.4999,-403.8104 903,-389 923.9447,-382.7334 1072.7764,-337.6905 1088,-322 1136.4015,-272.1142 1134.7079,-181.2962 1131.2658,-141.5295"/>
<polygon fill="#191970" stroke="#191970" points="1134.7443,-141.1397 1130.2653,-131.5382 1127.7792,-141.8372 1134.7443,-141.1397"/>
</g>
<!-- Node70&#45;&gt;Node4 -->
<g id="edge128" class="edge">
<title>Node70&#45;&gt;Node4</title>
<path fill="none" stroke="#191970" d="M629.4094,-433.8232C495.8209,-430.9701 234.7265,-421.3155 149,-389 91.4836,-367.3186 38,-367.9672 38,-306.5 38,-306.5 38,-306.5 38,-178 38,-115.6422 482.757,-81.2204 658.1207,-70.0719"/>
<polygon fill="#191970" stroke="#191970" points="658.5137,-73.5542 668.2742,-69.4333 658.0742,-66.568 658.5137,-73.5542"/>
</g>
<!-- Node70&#45;&gt;Node18 -->
<g id="edge113" class="edge">
<title>Node70&#45;&gt;Node18</title>
<path fill="none" stroke="#191970" d="M775.6296,-425.4581C851.849,-414.3766 977.3473,-396.1304 1057.532,-384.4723"/>
<polygon fill="#191970" stroke="#191970" points="1058.1721,-387.9161 1067.5644,-383.0137 1057.1649,-380.989 1058.1721,-387.9161"/>
</g>
<!-- Node70&#45;&gt;Node19 -->
<g id="edge115" class="edge">
<title>Node70&#45;&gt;Node19</title>
<path fill="none" stroke="#191970" d="M790.5618,-429.1191C813.9182,-427.5809 839.4658,-426.059 863,-425 1510.9861,-395.8417 1674.7682,-431.7455 2322,-389 2340.3964,-387.785 2360.0676,-385.9945 2378.7743,-384.0578"/>
<polygon fill="#191970" stroke="#191970" points="2379.1777,-387.5348 2388.7539,-383.0019 2378.4411,-380.5736 2379.1777,-387.5348"/>
</g>
<!-- Node70&#45;&gt;Node21 -->
<g id="edge117" class="edge">
<title>Node70&#45;&gt;Node21</title>
<path fill="none" stroke="#191970" d="M726.7188,-425.3906C741.4681,-416.9132 763.4462,-404.2809 782.0244,-393.6028"/>
<polygon fill="#191970" stroke="#191970" points="783.899,-396.5623 790.8249,-388.5446 780.4108,-390.4933 783.899,-396.5623"/>
</g>
<!-- Node70&#45;&gt;Node38 -->
<g id="edge127" class="edge">
<title>Node70&#45;&gt;Node38</title>
<path fill="none" stroke="#191970" d="M790.6856,-428.6788C940.4185,-416.9481 1259.821,-391.9249 1411.5876,-380.0349"/>
<polygon fill="#191970" stroke="#191970" points="1412.0834,-383.5068 1421.7795,-379.2364 1411.5366,-376.5282 1412.0834,-383.5068"/>
</g>
<!-- Node70&#45;&gt;Node27 -->
<g id="edge116" class="edge">
<title>Node70&#45;&gt;Node27</title>
<path fill="none" stroke="#191970" d="M629.4298,-430.1317C447.866,-417.5544 27.6167,-378.6396 95,-291 182.6612,-176.9866 626.3371,-138.1325 820.1699,-126.4635"/>
<polygon fill="#191970" stroke="#191970" points="820.5549,-129.947 830.331,-125.863 820.1419,-122.9592 820.5549,-129.947"/>
</g>
<!-- Node71 -->
<g id="node46" class="node">
<title>Node71</title>
<polygon fill="none" stroke="#bfbfbf" points="477.5,-364 477.5,-383 554.5,-383 554.5,-364 477.5,-364"/>
<text text-anchor="middle" x="516" y="-371" font-family="FreeSans.ttf" font-size="10.00" fill="#000000">Eigen/Dense</text>
</g>
<!-- Node70&#45;&gt;Node71 -->
<g id="edge112" class="edge">
<title>Node70&#45;&gt;Node71</title>
<path fill="none" stroke="#191970" d="M679.5002,-425.4599C649.9494,-416.2002 603.8768,-401.7202 564,-389 561.0904,-388.0719 558.0828,-387.109 555.0578,-386.138"/>
<polygon fill="#191970" stroke="#191970" points="556.0271,-382.7732 545.4357,-383.0418 553.8829,-389.4367 556.0271,-382.7732"/>
</g>
<!-- Node52 -->
<g id="node47" class="node">
<title>Node52</title>
<g id="a_node47"><a xlink:href="SpatialForceVector_8h.html" target="_top" xlink:title="iDynTree/Core/SpatialForce\lVector.h">
<polygon fill="none" stroke="#000000" points="573,-358.5 573,-388.5 721,-388.5 721,-358.5 573,-358.5"/>
<text text-anchor="start" x="581" y="-376.5" font-family="FreeSans.ttf" font-size="10.00" fill="#000000">iDynTree/Core/SpatialForce</text>
<text text-anchor="middle" x="647" y="-365.5" font-family="FreeSans.ttf" font-size="10.00" fill="#000000">Vector.h</text>
</a>
</g>
</g>
<!-- Node70&#45;&gt;Node52 -->
<g id="edge118" class="edge">
<title>Node70&#45;&gt;Node52</title>
<path fill="none" stroke="#191970" d="M700.1563,-425.3906C692.0247,-417.4527 680.1614,-405.8718 669.7041,-395.6635"/>
<polygon fill="#191970" stroke="#191970" points="672.0122,-393.0255 662.4115,-388.5446 667.1224,-398.0345 672.0122,-393.0255"/>
</g>
<!-- Node52&#45;&gt;Node3 -->
<g id="edge119" class="edge">
<title>Node52&#45;&gt;Node3</title>
<path fill="none" stroke="#191970" d="M721.1713,-359.4039C724.1506,-358.9153 727.1022,-358.4451 730,-358 795.9304,-347.8722 973.8739,-360.9839 1028,-322 1089.4625,-277.7321 1065.0374,-234.6631 1101,-168 1106.0312,-158.6738 1112.096,-148.5887 1117.293,-140.2449"/>
<polygon fill="#191970" stroke="#191970" points="1120.3104,-142.0217 1122.6903,-131.6976 1114.3916,-138.2841 1120.3104,-142.0217"/>
</g>
<!-- Node52&#45;&gt;Node30 -->
<g id="edge126" class="edge">
<title>Node52&#45;&gt;Node30</title>
<path fill="none" stroke="#191970" d="M572.8275,-359.6268C569.5084,-359.0649 566.2208,-358.5199 563,-358 505.4163,-348.7055 341.3121,-365.9824 303,-322 278.3812,-293.7376 319.457,-271.7854 361.96,-257.6551"/>
<polygon fill="#191970" stroke="#191970" points="363.1345,-260.9543 371.6003,-254.584 361.0096,-254.2846 363.1345,-260.9543"/>
</g>
<!-- Node52&#45;&gt;Node32 -->
<g id="edge125" class="edge">
<title>Node52&#45;&gt;Node32</title>
<path fill="none" stroke="#191970" d="M712.5305,-358.4639C765.4331,-346.3253 838.8346,-329.4831 887.566,-318.3016"/>
<polygon fill="#191970" stroke="#191970" points="888.61,-321.6531 897.574,-316.0053 887.0445,-314.8304 888.61,-321.6531"/>
</g>
<!-- Node53 -->
<g id="node48" class="node">
<title>Node53</title>
<g id="a_node48"><a xlink:href="LinearForceVector3_8h.html" target="_top" xlink:title="iDynTree/Core/LinearForce\lVector3.h">
<polygon fill="none" stroke="#ff0000" points="312,-291.5 312,-321.5 456,-321.5 456,-291.5 312,-291.5"/>
<text text-anchor="start" x="320" y="-309.5" font-family="FreeSans.ttf" font-size="10.00" fill="#000000">iDynTree/Core/LinearForce</text>
<text text-anchor="middle" x="384" y="-298.5" font-family="FreeSans.ttf" font-size="10.00" fill="#000000">Vector3.h</text>
</a>
</g>
</g>
<!-- Node52&#45;&gt;Node53 -->
<g id="edge120" class="edge">
<title>Node52&#45;&gt;Node53</title>
<path fill="none" stroke="#191970" d="M587.9777,-358.4639C548.0186,-348.2842 495.0747,-334.7966 453.1406,-324.1138"/>
<polygon fill="#191970" stroke="#191970" points="453.8343,-320.6788 443.2798,-321.6017 452.1062,-327.4621 453.8343,-320.6788"/>
</g>
<!-- Node55 -->
<g id="node49" class="node">
<title>Node55</title>
<g id="a_node49"><a xlink:href="AngularForceVector3_8h.html" target="_top" xlink:title="iDynTree/Core/AngularForce\lVector3.h">
<polygon fill="none" stroke="#ff0000" points="104,-291.5 104,-321.5 256,-321.5 256,-291.5 104,-291.5"/>
<text text-anchor="start" x="112" y="-309.5" font-family="FreeSans.ttf" font-size="10.00" fill="#000000">iDynTree/Core/AngularForce</text>
<text text-anchor="middle" x="180" y="-298.5" font-family="FreeSans.ttf" font-size="10.00" fill="#000000">Vector3.h</text>
</a>
</g>
</g>
<!-- Node52&#45;&gt;Node55 -->
<g id="edge122" class="edge">
<title>Node52&#45;&gt;Node55</title>
<path fill="none" stroke="#191970" d="M572.8373,-359.5649C569.5155,-359.0197 566.2247,-358.4952 563,-358 433.3185,-338.087 399.7979,-341.1396 270,-322 268.7207,-321.8114 267.4315,-321.619 266.1344,-321.4233"/>
<polygon fill="#191970" stroke="#191970" points="266.4847,-317.936 256.0672,-319.8662 265.4146,-324.8537 266.4847,-317.936"/>
</g>
<!-- Node53&#45;&gt;Node30 -->
<g id="edge121" class="edge">
<title>Node53&#45;&gt;Node30</title>
<path fill="none" stroke="#191970" d="M395.3458,-291.2967C401.6107,-282.9016 409.5259,-272.2952 416.5598,-262.8698"/>
<polygon fill="#191970" stroke="#191970" points="419.5233,-264.7508 422.6991,-254.6432 413.9132,-260.5642 419.5233,-264.7508"/>
</g>
<!-- Node55&#45;&gt;Node4 -->
<g id="edge124" class="edge">
<title>Node55&#45;&gt;Node4</title>
<path fill="none" stroke="#191970" d="M208.9845,-291.4577C242.0743,-274.4547 297.969,-246.2485 347,-224 473.2203,-166.7259 626.3855,-105.7342 693.5891,-79.3902"/>
<polygon fill="#191970" stroke="#191970" points="695.2069,-82.5157 703.2439,-75.6122 692.6561,-75.997 695.2069,-82.5157"/>
</g>
<!-- Node55&#45;&gt;Node30 -->
<g id="edge123" class="edge">
<title>Node55&#45;&gt;Node30</title>
<path fill="none" stroke="#191970" d="M237.0026,-291.4639C275.5128,-281.3057 326.5106,-267.8535 366.969,-257.1814"/>
<polygon fill="#191970" stroke="#191970" points="367.9723,-260.5366 376.7488,-254.6017 366.1868,-253.7681 367.9723,-260.5366"/>
</g>
</g>
</svg>
