<?xml version="1.0" encoding="UTF-8" standalone="no"?>
<!DOCTYPE svg PUBLIC "-//W3C//DTD SVG 1.1//EN"
 "http://www.w3.org/Graphics/SVG/1.1/DTD/svg11.dtd">
<!-- Generated by graphviz version 2.40.1 (20161225.0304)
 -->
<!-- Title: InverseKinematicsData.cpp Pages: 1 -->
<svg width="2830pt" height="621pt"
 viewBox="0.00 0.00 2829.62 621.00" xmlns="http://www.w3.org/2000/svg" xmlns:xlink="http://www.w3.org/1999/xlink">
<g id="graph0" class="graph" transform="scale(1 1) rotate(0) translate(4 617)">
<title>InverseKinematicsData.cpp</title>
<!-- Node0 -->
<g id="node1" class="node">
<title>Node0</title>
<polygon fill="#bfbfbf" stroke="#000000" points="532.5,-593.5 532.5,-612.5 683.5,-612.5 683.5,-593.5 532.5,-593.5"/>
<text text-anchor="middle" x="608" y="-600.5" font-family="FreeSans.ttf" font-size="10.00" fill="#000000">InverseKinematicsData.cpp</text>
</g>
<!-- Node1 -->
<g id="node2" class="node">
<title>Node1</title>
<g id="a_node2"><a xlink:href="InverseKinematicsData_8h.html" target="_top" xlink:title="InverseKinematicsData.h">
<polygon fill="none" stroke="#000000" points="1061,-481.5 1061,-500.5 1201,-500.5 1201,-481.5 1061,-481.5"/>
<text text-anchor="middle" x="1131" y="-488.5" font-family="FreeSans.ttf" font-size="10.00" fill="#000000">InverseKinematicsData.h</text>
</a>
</g>
</g>
<!-- Node0&#45;&gt;Node1 -->
<g id="edge1" class="edge">
<title>Node0&#45;&gt;Node1</title>
<path fill="none" stroke="#191970" d="M652.5907,-593.4509C748.2158,-572.9729 972.7227,-524.8949 1076.5596,-502.6584"/>
<polygon fill="#191970" stroke="#191970" points="1077.4768,-506.0414 1086.5222,-500.5249 1076.0109,-499.1966 1077.4768,-506.0414"/>
</g>
<!-- Node2 -->
<g id="node3" class="node">
<title>Node2</title>
<g id="a_node3"><a xlink:href="InverseKinematicsNLP_8h.html" target="_top" xlink:title="InverseKinematicsNLP.h">
<polygon fill="none" stroke="#000000" points="679,-364 679,-383 813,-383 813,-364 679,-364"/>
<text text-anchor="middle" x="746" y="-371" font-family="FreeSans.ttf" font-size="10.00" fill="#000000">InverseKinematicsNLP.h</text>
</a>
</g>
</g>
<!-- Node0&#45;&gt;Node2 -->
<g id="edge100" class="edge">
<title>Node0&#45;&gt;Node2</title>
<path fill="none" stroke="#191970" d="M613.754,-593.4309C634.7083,-558.583 707.1653,-438.0837 734.9949,-391.802"/>
<polygon fill="#191970" stroke="#191970" points="738.0677,-393.4836 740.2214,-383.11 732.0687,-389.8764 738.0677,-393.4836"/>
</g>
<!-- Node8 -->
<g id="node9" class="node">
<title>Node8</title>
<polygon fill="none" stroke="#bfbfbf" points="510,-.5 510,-19.5 562,-19.5 562,-.5 510,-.5"/>
<text text-anchor="middle" x="536" y="-7.5" font-family="FreeSans.ttf" font-size="10.00" fill="#000000">cassert</text>
</g>
<!-- Node0&#45;&gt;Node8 -->
<g id="edge135" class="edge">
<title>Node0&#45;&gt;Node8</title>
<path fill="none" stroke="#191970" d="M532.306,-598.7974C418.8124,-591.9529 210.1648,-577.1147 138,-557 72.5095,-538.7456 0,-558.9869 0,-491 0,-491 0,-491 0,-122 0,-70.8421 378.9527,-26.5306 499.5857,-13.7209"/>
<polygon fill="#191970" stroke="#191970" points="500.2059,-17.175 509.7848,-12.6478 499.4734,-10.2135 500.2059,-17.175"/>
</g>
<!-- Node21 -->
<g id="node15" class="node">
<title>Node21</title>
<g id="a_node15"><a xlink:href="Twist_8h.html" target="_top" xlink:title="iDynTree/Core/Twist.h">
<polygon fill="none" stroke="#000000" points="352,-302.5 352,-321.5 474,-321.5 474,-302.5 352,-302.5"/>
<text text-anchor="middle" x="413" y="-309.5" font-family="FreeSans.ttf" font-size="10.00" fill="#000000">iDynTree/Core/Twist.h</text>
</a>
</g>
</g>
<!-- Node0&#45;&gt;Node21 -->
<g id="edge109" class="edge">
<title>Node0&#45;&gt;Node21</title>
<path fill="none" stroke="#191970" d="M572.6891,-593.4663C528.6278,-579.1751 459,-547.632 459,-491 459,-491 459,-491 459,-435 459,-395.9003 438.3554,-353.9863 424.7268,-330.5764"/>
<polygon fill="#191970" stroke="#191970" points="427.5581,-328.4939 419.3961,-321.7387 421.564,-332.1094 427.5581,-328.4939"/>
</g>
<!-- Node50 -->
<g id="node34" class="node">
<title>Node50</title>
<g id="a_node34"><a xlink:href="SpatialAcc_8h.html" target="_top" xlink:title="iDynTree/Core/SpatialAcc.h">
<polygon fill="none" stroke="#000000" points="492,-302.5 492,-321.5 640,-321.5 640,-302.5 492,-302.5"/>
<text text-anchor="middle" x="566" y="-309.5" font-family="FreeSans.ttf" font-size="10.00" fill="#000000">iDynTree/Core/SpatialAcc.h</text>
</a>
</g>
</g>
<!-- Node0&#45;&gt;Node50 -->
<g id="edge112" class="edge">
<title>Node0&#45;&gt;Node50</title>
<path fill="none" stroke="#191970" d="M605.1965,-593.2066C599.9113,-573.8521 589,-529.2612 589,-491 589,-491 589,-491 589,-435 589,-397.8871 578.7575,-355.532 571.9427,-331.4586"/>
<polygon fill="#191970" stroke="#191970" points="575.2739,-330.3802 569.1019,-321.7688 568.5567,-332.3496 575.2739,-330.3802"/>
</g>
<!-- Node68 -->
<g id="node42" class="node">
<title>Node68</title>
<g id="a_node42"><a xlink:href="TransformConstraint_8h.html" target="_top" xlink:title="TransformConstraint.h">
<polygon fill="none" stroke="#000000" points="1302.5,-481.5 1302.5,-500.5 1427.5,-500.5 1427.5,-481.5 1302.5,-481.5"/>
<text text-anchor="middle" x="1365" y="-488.5" font-family="FreeSans.ttf" font-size="10.00" fill="#000000">TransformConstraint.h</text>
</a>
</g>
</g>
<!-- Node0&#45;&gt;Node68 -->
<g id="edge101" class="edge">
<title>Node0&#45;&gt;Node68</title>
<path fill="none" stroke="#191970" d="M683.5199,-600.5734C849.0021,-594.871 1233.2369,-579.3881 1288,-557 1313.3018,-546.6562 1336.234,-524.5851 1350.3653,-508.8148"/>
<polygon fill="#191970" stroke="#191970" points="1353.3848,-510.6731 1357.2698,-500.8163 1348.0859,-506.0991 1353.3848,-510.6731"/>
</g>
<!-- Node69 -->
<g id="node43" class="node">
<title>Node69</title>
<g id="a_node43"><a xlink:href="Axis_8h.html" target="_top" xlink:title="iDynTree/Core/Axis.h">
<polygon fill="none" stroke="#000000" points="1302,-302.5 1302,-321.5 1420,-321.5 1420,-302.5 1302,-302.5"/>
<text text-anchor="middle" x="1361" y="-309.5" font-family="FreeSans.ttf" font-size="10.00" fill="#000000">iDynTree/Core/Axis.h</text>
</a>
</g>
</g>
<!-- Node0&#45;&gt;Node69 -->
<g id="edge104" class="edge">
<title>Node0&#45;&gt;Node69</title>
<path fill="none" stroke="#191970" d="M683.7503,-598.1015C858.3083,-585.8007 1274,-550.2838 1274,-491 1274,-491 1274,-491 1274,-435 1274,-389.6459 1313.9144,-349.3012 1339.6722,-327.9876"/>
<polygon fill="#191970" stroke="#191970" points="1342.1553,-330.4837 1347.7866,-321.5093 1337.7879,-325.0133 1342.1553,-330.4837"/>
</g>
<!-- Node70 -->
<g id="node44" class="node">
<title>Node70</title>
<g id="a_node44"><a xlink:href="ClassicalAcc_8h.html" target="_top" xlink:title="iDynTree/Core/ClassicalAcc.h">
<polygon fill="none" stroke="#000000" points="147,-537.5 147,-556.5 305,-556.5 305,-537.5 147,-537.5"/>
<text text-anchor="middle" x="226" y="-544.5" font-family="FreeSans.ttf" font-size="10.00" fill="#000000">iDynTree/Core/ClassicalAcc.h</text>
</a>
</g>
</g>
<!-- Node0&#45;&gt;Node70 -->
<g id="edge110" class="edge">
<title>Node0&#45;&gt;Node70</title>
<path fill="none" stroke="#191970" d="M542.7659,-593.4369C475.7414,-583.6113 371.5222,-568.3331 301.1013,-558.0096"/>
<polygon fill="#191970" stroke="#191970" points="301.367,-554.5112 290.965,-556.5237 300.3516,-561.4372 301.367,-554.5112"/>
</g>
<!-- Node71 -->
<g id="node45" class="node">
<title>Node71</title>
<g id="a_node45"><a xlink:href="ModelLoader_8h.html" target="_top" xlink:title="iDynTree/ModelIO/ModelLoader.h">
<polygon fill="none" stroke="#000000" points="1899,-537.5 1899,-556.5 2075,-556.5 2075,-537.5 1899,-537.5"/>
<text text-anchor="middle" x="1987" y="-544.5" font-family="FreeSans.ttf" font-size="10.00" fill="#000000">iDynTree/ModelIO/ModelLoader.h</text>
</a>
</g>
</g>
<!-- Node0&#45;&gt;Node71 -->
<g id="edge113" class="edge">
<title>Node0&#45;&gt;Node71</title>
<path fill="none" stroke="#191970" d="M683.6121,-599.9295C917.0958,-590.4479 1626.6632,-561.633 1888.5381,-550.9985"/>
<polygon fill="#191970" stroke="#191970" points="1888.9422,-554.485 1898.7919,-550.5821 1888.6581,-547.4908 1888.9422,-554.485"/>
</g>
<!-- Node74 -->
<g id="node48" class="node">
<title>Node74</title>
<g id="a_node48"><a xlink:href="EigenHelpers_8h.html" target="_top" xlink:title="iDynTree/Core/EigenHelpers.h">
<polygon fill="none" stroke="#000000" points="224.5,-364 224.5,-383 385.5,-383 385.5,-364 224.5,-364"/>
<text text-anchor="middle" x="305" y="-371" font-family="FreeSans.ttf" font-size="10.00" fill="#000000">iDynTree/Core/EigenHelpers.h</text>
</a>
</g>
</g>
<!-- Node0&#45;&gt;Node74 -->
<g id="edge124" class="edge">
<title>Node0&#45;&gt;Node74</title>
<path fill="none" stroke="#191970" d="M537.961,-593.4618C507.4569,-586.832 472.478,-575.6803 445,-557 380.4814,-513.1384 333.1227,-429.8557 314.1406,-392.4834"/>
<polygon fill="#191970" stroke="#191970" points="317.1293,-390.6323 309.5484,-383.2308 310.8591,-393.7443 317.1293,-390.6323"/>
</g>
<!-- Node1&#45;&gt;Node2 -->
<g id="edge2" class="edge">
<title>Node1&#45;&gt;Node2</title>
<path fill="none" stroke="#191970" d="M1060.8665,-486.1808C980.8899,-479.7582 855.8015,-466.6187 814,-445 789.9918,-432.5835 769.7468,-408.312 757.7461,-391.5153"/>
<polygon fill="#191970" stroke="#191970" points="760.4992,-389.3413 751.9557,-383.0756 754.7271,-393.3015 760.4992,-389.3413"/>
</g>
<!-- Node19 -->
<g id="node13" class="node">
<title>Node19</title>
<g id="a_node13"><a xlink:href="VectorDynSize_8h.html" target="_top" xlink:title="iDynTree/Core/VectorDynSize.h">
<polygon fill="none" stroke="#000000" points="877.5,-302.5 877.5,-321.5 1044.5,-321.5 1044.5,-302.5 877.5,-302.5"/>
<text text-anchor="middle" x="961" y="-309.5" font-family="FreeSans.ttf" font-size="10.00" fill="#000000">iDynTree/Core/VectorDynSize.h</text>
</a>
</g>
</g>
<!-- Node1&#45;&gt;Node19 -->
<g id="edge92" class="edge">
<title>Node1&#45;&gt;Node19</title>
<path fill="none" stroke="#191970" d="M1060.7029,-487.593C996.0557,-482.8122 906.9967,-471.4911 885,-445 869.702,-426.5762 878.4892,-396.5952 904,-358 912.078,-345.7788 924.4288,-335.2415 935.5708,-327.3474"/>
<polygon fill="#191970" stroke="#191970" points="937.7849,-330.0769 944.1426,-321.6016 933.8873,-324.2623 937.7849,-330.0769"/>
</g>
<!-- Node20 -->
<g id="node14" class="node">
<title>Node20</title>
<g id="a_node14"><a xlink:href="MatrixDynSize_8h.html" target="_top" xlink:title="iDynTree/Core/MatrixDynSize.h">
<polygon fill="none" stroke="#000000" points="1438.5,-302.5 1438.5,-321.5 1605.5,-321.5 1605.5,-302.5 1438.5,-302.5"/>
<text text-anchor="middle" x="1522" y="-309.5" font-family="FreeSans.ttf" font-size="10.00" fill="#000000">iDynTree/Core/MatrixDynSize.h</text>
</a>
</g>
</g>
<!-- Node1&#45;&gt;Node20 -->
<g id="edge93" class="edge">
<title>Node1&#45;&gt;Node20</title>
<path fill="none" stroke="#191970" d="M1142.3223,-481.3395C1171.5349,-456.9125 1252.6565,-392.199 1331,-358 1368.1449,-341.7853 1411.9586,-330.7125 1448.2471,-323.5016"/>
<polygon fill="#191970" stroke="#191970" points="1449.1143,-326.899 1458.271,-321.5691 1447.7892,-320.0255 1449.1143,-326.899"/>
</g>
<!-- Node1&#45;&gt;Node21 -->
<g id="edge95" class="edge">
<title>Node1&#45;&gt;Node21</title>
<path fill="none" stroke="#191970" d="M1060.8646,-486.1535C990.0024,-480.2277 877.7532,-468.012 783,-445 653.61,-413.5761 506.5811,-352.8207 443.9176,-325.6779"/>
<polygon fill="#191970" stroke="#191970" points="445.1663,-322.4043 434.6005,-321.6199 442.3711,-328.822 445.1663,-322.4043"/>
</g>
<!-- Node39 -->
<g id="node18" class="node">
<title>Node39</title>
<g id="a_node18"><a xlink:href="Transform_8h.html" target="_top" xlink:title="iDynTree/Core/Transform.h">
<polygon fill="none" stroke="#000000" points="1138,-302.5 1138,-321.5 1284,-321.5 1284,-302.5 1138,-302.5"/>
<text text-anchor="middle" x="1211" y="-309.5" font-family="FreeSans.ttf" font-size="10.00" fill="#000000">iDynTree/Core/Transform.h</text>
</a>
</g>
</g>
<!-- Node1&#45;&gt;Node39 -->
<g id="edge94" class="edge">
<title>Node1&#45;&gt;Node39</title>
<path fill="none" stroke="#191970" d="M1136.428,-481.4171C1143.483,-467.5416 1153.5084,-441.6942 1141,-425 1106.8453,-379.416 1052.1547,-434.584 1018,-389 1009.7385,-377.9739 1009.4614,-368.8129 1018,-358 1031.9713,-340.3074 1082.1129,-328.6815 1127.7836,-321.5438"/>
<polygon fill="#191970" stroke="#191970" points="1128.3807,-324.9935 1137.7486,-320.0445 1127.3392,-318.0714 1128.3807,-324.9935"/>
</g>
<!-- Node41 -->
<g id="node25" class="node">
<title>Node41</title>
<polygon fill="none" stroke="#bfbfbf" points="822,-302.5 822,-321.5 860,-321.5 860,-302.5 822,-302.5"/>
<text text-anchor="middle" x="841" y="-309.5" font-family="FreeSans.ttf" font-size="10.00" fill="#000000">map</text>
</g>
<!-- Node1&#45;&gt;Node41 -->
<g id="edge98" class="edge">
<title>Node1&#45;&gt;Node41</title>
<path fill="none" stroke="#191970" d="M1060.8577,-486.9993C993.9461,-481.7241 899.5353,-469.9973 873,-445 841.7151,-415.5284 838.6708,-361.2575 839.5734,-331.9794"/>
<polygon fill="#191970" stroke="#191970" points="843.0807,-331.92 840.0847,-321.7576 836.0894,-331.5702 843.0807,-331.92"/>
</g>
<!-- Node42 -->
<g id="node26" class="node">
<title>Node42</title>
<g id="a_node26"><a xlink:href="ConvexHullHelpers_8h.html" target="_top" xlink:title="iDynTree/ConvexHullHelpers.h">
<polygon fill="none" stroke="#000000" points="1588.5,-364 1588.5,-383 1753.5,-383 1753.5,-364 1588.5,-364"/>
<text text-anchor="middle" x="1671" y="-371" font-family="FreeSans.ttf" font-size="10.00" fill="#000000">iDynTree/ConvexHullHelpers.h</text>
</a>
</g>
</g>
<!-- Node1&#45;&gt;Node42 -->
<g id="edge46" class="edge">
<title>Node1&#45;&gt;Node42</title>
<path fill="none" stroke="#191970" d="M1201.2513,-485.6696C1297.7404,-477.8563 1466.0292,-462.3289 1525,-445 1570.4942,-431.6313 1619.1573,-405.0145 1647.2354,-388.2965"/>
<polygon fill="#191970" stroke="#191970" points="1649.1856,-391.2074 1655.934,-383.0398 1645.5652,-385.2164 1649.1856,-391.2074"/>
</g>
<!-- Node43 -->
<g id="node27" class="node">
<title>Node43</title>
<polygon fill="none" stroke="#bfbfbf" points="1872.5,-302.5 1872.5,-321.5 1919.5,-321.5 1919.5,-302.5 1872.5,-302.5"/>
<text text-anchor="middle" x="1896" y="-309.5" font-family="FreeSans.ttf" font-size="10.00" fill="#000000">vector</text>
</g>
<!-- Node1&#45;&gt;Node43 -->
<g id="edge97" class="edge">
<title>Node1&#45;&gt;Node43</title>
<path fill="none" stroke="#191970" d="M1201.0289,-485.7478C1286.8846,-478.8057 1436.6787,-465.0626 1564,-445 1623.8854,-435.5636 1778.9467,-420.0767 1831,-389 1854.9537,-374.6992 1874.287,-348.3363 1885.4613,-330.4881"/>
<polygon fill="#191970" stroke="#191970" points="1888.6631,-331.9547 1890.8074,-321.5791 1882.6608,-328.3529 1888.6631,-331.9547"/>
</g>
<!-- Node44 -->
<g id="node28" class="node">
<title>Node44</title>
<g id="a_node28"><a xlink:href="InverseKinematics_8h.html" target="_top" xlink:title="iDynTree/InverseKinematics.h">
<polygon fill="none" stroke="#000000" points="1744,-425.5 1744,-444.5 1906,-444.5 1906,-425.5 1744,-425.5"/>
<text text-anchor="middle" x="1825" y="-432.5" font-family="FreeSans.ttf" font-size="10.00" fill="#000000">iDynTree/InverseKinematics.h</text>
</a>
</g>
</g>
<!-- Node1&#45;&gt;Node44 -->
<g id="edge53" class="edge">
<title>Node1&#45;&gt;Node44</title>
<path fill="none" stroke="#191970" d="M1201.1394,-486.2584C1313.0503,-478.5478 1538.8793,-462.394 1730,-445 1731.2774,-444.8837 1732.5643,-444.7654 1733.8591,-444.6452"/>
<polygon fill="#191970" stroke="#191970" points="1734.2845,-448.1206 1743.9087,-443.6906 1733.6225,-441.152 1734.2845,-448.1206"/>
</g>
<!-- Node46 -->
<g id="node30" class="node">
<title>Node46</title>
<g id="a_node30"><a xlink:href="KinDynComputations_8h.html" target="_top" xlink:title="iDynTree/KinDynComputations.h">
<polygon fill="none" stroke="#000000" points="1340.5,-425.5 1340.5,-444.5 1515.5,-444.5 1515.5,-425.5 1340.5,-425.5"/>
<text text-anchor="middle" x="1428" y="-432.5" font-family="FreeSans.ttf" font-size="10.00" fill="#000000">iDynTree/KinDynComputations.h</text>
</a>
</g>
</g>
<!-- Node1&#45;&gt;Node46 -->
<g id="edge61" class="edge">
<title>Node1&#45;&gt;Node46</title>
<path fill="none" stroke="#191970" d="M1181.7187,-481.4369C1233.1886,-471.7321 1312.8702,-456.708 1367.5784,-446.3926"/>
<polygon fill="#191970" stroke="#191970" points="1368.3122,-449.816 1377.4905,-444.5237 1367.0152,-442.9372 1368.3122,-449.816"/>
</g>
<!-- Node57 -->
<g id="node35" class="node">
<title>Node57</title>
<g id="a_node35"><a xlink:href="Model_8h.html" target="_top" xlink:title="iDynTree/Model/Model.h">
<polygon fill="none" stroke="#000000" points="2087.5,-425.5 2087.5,-444.5 2220.5,-444.5 2220.5,-425.5 2087.5,-425.5"/>
<text text-anchor="middle" x="2154" y="-432.5" font-family="FreeSans.ttf" font-size="10.00" fill="#000000">iDynTree/Model/Model.h</text>
</a>
</g>
</g>
<!-- Node1&#45;&gt;Node57 -->
<g id="edge78" class="edge">
<title>Node1&#45;&gt;Node57</title>
<path fill="none" stroke="#191970" d="M1201.1954,-486.5728C1229.9562,-484.7903 1263.5719,-482.7471 1294,-481 1583.1046,-464.4001 1926.9961,-446.5889 2077.3063,-438.9002"/>
<polygon fill="#191970" stroke="#191970" points="2077.5495,-442.3924 2087.3577,-438.3864 2077.1921,-435.4016 2077.5495,-442.3924"/>
</g>
<!-- Node66 -->
<g id="node40" class="node">
<title>Node66</title>
<polygon fill="none" stroke="#bfbfbf" points="894,-425.5 894,-444.5 1020,-444.5 1020,-425.5 894,-425.5"/>
<text text-anchor="middle" x="957" y="-432.5" font-family="FreeSans.ttf" font-size="10.00" fill="#000000">IpIpoptApplication.hpp</text>
</g>
<!-- Node1&#45;&gt;Node66 -->
<g id="edge96" class="edge">
<title>Node1&#45;&gt;Node66</title>
<path fill="none" stroke="#191970" d="M1101.0883,-481.3733C1072.1548,-472.0613 1028.1389,-457.8953 996.3707,-447.671"/>
<polygon fill="#191970" stroke="#191970" points="997.1128,-444.2331 986.5213,-444.5011 994.9682,-450.8965 997.1128,-444.2331"/>
</g>
<!-- Node67 -->
<g id="node41" class="node">
<title>Node67</title>
<polygon fill="none" stroke="#bfbfbf" points="1038.5,-425.5 1038.5,-444.5 1131.5,-444.5 1131.5,-425.5 1038.5,-425.5"/>
<text text-anchor="middle" x="1085" y="-432.5" font-family="FreeSans.ttf" font-size="10.00" fill="#000000">unordered_map</text>
</g>
<!-- Node1&#45;&gt;Node67 -->
<g id="edge99" class="edge">
<title>Node1&#45;&gt;Node67</title>
<path fill="none" stroke="#191970" d="M1122.9874,-481.2455C1116.5232,-473.3761 1107.2615,-462.101 1099.5017,-452.6542"/>
<polygon fill="#191970" stroke="#191970" points="1101.9727,-450.1484 1092.9208,-444.6427 1096.5636,-454.5916 1101.9727,-450.1484"/>
</g>
<!-- Node3 -->
<g id="node4" class="node">
<title>Node3</title>
<polygon fill="none" stroke="#bfbfbf" points="734,-302.5 734,-321.5 804,-321.5 804,-302.5 734,-302.5"/>
<text text-anchor="middle" x="769" y="-309.5" font-family="FreeSans.ttf" font-size="10.00" fill="#000000">IpTNLP.hpp</text>
</g>
<!-- Node2&#45;&gt;Node3 -->
<g id="edge3" class="edge">
<title>Node2&#45;&gt;Node3</title>
<path fill="none" stroke="#191970" d="M749.5938,-363.8906C752.8491,-355.1862 757.7425,-342.1015 761.801,-331.2494"/>
<polygon fill="#191970" stroke="#191970" points="765.1309,-332.3373 765.3556,-321.7449 758.5744,-329.8852 765.1309,-332.3373"/>
</g>
<!-- Node4 -->
<g id="node5" class="node">
<title>Node4</title>
<g id="a_node5"><a xlink:href="VectorFixSize_8h.html" target="_top" xlink:title="iDynTree/Core/VectorFixSize.h">
<polygon fill="none" stroke="#000000" points="549.5,-112.5 549.5,-131.5 710.5,-131.5 710.5,-112.5 549.5,-112.5"/>
<text text-anchor="middle" x="630" y="-119.5" font-family="FreeSans.ttf" font-size="10.00" fill="#000000">iDynTree/Core/VectorFixSize.h</text>
</a>
</g>
</g>
<!-- Node2&#45;&gt;Node4 -->
<g id="edge4" class="edge">
<title>Node2&#45;&gt;Node4</title>
<path fill="none" stroke="#191970" d="M741.5943,-363.948C724.4398,-326.7554 661.917,-191.1994 638.7303,-140.9283"/>
<polygon fill="#191970" stroke="#191970" points="641.7767,-139.1763 634.4101,-131.5615 635.4202,-142.1081 641.7767,-139.1763"/>
</g>
<!-- Node2&#45;&gt;Node19 -->
<g id="edge14" class="edge">
<title>Node2&#45;&gt;Node19</title>
<path fill="none" stroke="#191970" d="M779.5938,-363.8906C816.9083,-353.2169 877.2492,-335.9566 917.9886,-324.3033"/>
<polygon fill="#191970" stroke="#191970" points="918.9903,-327.6572 927.6421,-321.5419 917.0652,-320.9271 918.9903,-327.6572"/>
</g>
<!-- Node2&#45;&gt;Node20 -->
<g id="edge17" class="edge">
<title>Node2&#45;&gt;Node20</title>
<path fill="none" stroke="#191970" d="M813.4348,-369.1303C934.3215,-361.14 1196.1571,-343.1207 1428.3735,-322.0312"/>
<polygon fill="#191970" stroke="#191970" points="1428.7202,-325.5142 1438.361,-321.1205 1428.0845,-318.5431 1428.7202,-325.5142"/>
</g>
<!-- Node2&#45;&gt;Node21 -->
<g id="edge19" class="edge">
<title>Node2&#45;&gt;Node21</title>
<path fill="none" stroke="#191970" d="M694.3341,-363.9581C634.9426,-352.9894 537.5432,-335.0012 474.3504,-323.3305"/>
<polygon fill="#191970" stroke="#191970" points="474.9825,-319.8881 464.5131,-321.5137 473.7111,-326.7717 474.9825,-319.8881"/>
</g>
<!-- Node2&#45;&gt;Node39 -->
<g id="edge23" class="edge">
<title>Node2&#45;&gt;Node39</title>
<path fill="none" stroke="#191970" d="M813.1184,-364.6231C896.548,-353.5888 1038.8839,-334.7637 1128.7777,-322.8746"/>
<polygon fill="#191970" stroke="#191970" points="1129.4763,-326.3127 1138.9311,-321.5317 1128.5585,-319.3732 1129.4763,-326.3127"/>
</g>
<!-- Node2&#45;&gt;Node41 -->
<g id="edge45" class="edge">
<title>Node2&#45;&gt;Node41</title>
<path fill="none" stroke="#191970" d="M760.8438,-363.8906C776.0418,-354.0519 799.8848,-338.6167 817.6206,-327.1351"/>
<polygon fill="#191970" stroke="#191970" points="819.768,-329.9144 826.2605,-321.5419 815.9639,-324.0382 819.768,-329.9144"/>
</g>
<!-- Node5 -->
<g id="node6" class="node">
<title>Node5</title>
<g id="a_node6"><a xlink:href="Utils_8h.html" target="_top" xlink:title="iDynTree/Core/Utils.h">
<polygon fill="none" stroke="#000000" points="793.5,-56.5 793.5,-75.5 912.5,-75.5 912.5,-56.5 793.5,-56.5"/>
<text text-anchor="middle" x="853" y="-63.5" font-family="FreeSans.ttf" font-size="10.00" fill="#000000">iDynTree/Core/Utils.h</text>
</a>
</g>
</g>
<!-- Node4&#45;&gt;Node5 -->
<g id="edge5" class="edge">
<title>Node4&#45;&gt;Node5</title>
<path fill="none" stroke="#191970" d="M668.0817,-112.4369C706.0059,-102.9133 764.3289,-88.2672 805.3126,-77.9753"/>
<polygon fill="#191970" stroke="#191970" points="806.229,-81.3539 815.0754,-75.5237 804.524,-74.5647 806.229,-81.3539"/>
</g>
<!-- Node7 -->
<g id="node8" class="node">
<title>Node7</title>
<g id="a_node8"><a xlink:href="Span_8h.html" target="_top" xlink:title="iDynTree/Core/Span.h">
<polygon fill="none" stroke="#ff0000" points="654.5,-56.5 654.5,-75.5 775.5,-75.5 775.5,-56.5 654.5,-56.5"/>
<text text-anchor="middle" x="715" y="-63.5" font-family="FreeSans.ttf" font-size="10.00" fill="#000000">iDynTree/Core/Span.h</text>
</a>
</g>
</g>
<!-- Node4&#45;&gt;Node7 -->
<g id="edge7" class="edge">
<title>Node4&#45;&gt;Node7</title>
<path fill="none" stroke="#191970" d="M644.8059,-112.2455C657.7256,-103.7337 676.6931,-91.2375 691.6552,-81.3801"/>
<polygon fill="#191970" stroke="#191970" points="693.9387,-84.067 700.3638,-75.6427 690.0876,-78.2216 693.9387,-84.067"/>
</g>
<!-- Node4&#45;&gt;Node8 -->
<g id="edge12" class="edge">
<title>Node4&#45;&gt;Node8</title>
<path fill="none" stroke="#191970" d="M628.6103,-112.0837C626.2475,-98.2605 620.3382,-72.9883 607,-56 596.6091,-42.7656 581.2994,-32.1641 567.5543,-24.4893"/>
<polygon fill="#191970" stroke="#191970" points="568.8465,-21.214 558.3681,-19.6472 565.5824,-27.4064 568.8465,-21.214"/>
</g>
<!-- Node16 -->
<g id="node10" class="node">
<title>Node16</title>
<polygon fill="none" stroke="#bfbfbf" points="1613,-56.5 1613,-75.5 1657,-75.5 1657,-56.5 1613,-56.5"/>
<text text-anchor="middle" x="1635" y="-63.5" font-family="FreeSans.ttf" font-size="10.00" fill="#000000">string</text>
</g>
<!-- Node4&#45;&gt;Node16 -->
<g id="edge10" class="edge">
<title>Node4&#45;&gt;Node16</title>
<path fill="none" stroke="#191970" d="M710.5445,-117.5119C918.0042,-105.952 1464.103,-75.5226 1602.6708,-67.8014"/>
<polygon fill="#191970" stroke="#191970" points="1602.868,-71.296 1612.6578,-67.2449 1602.4785,-64.3068 1602.868,-71.296"/>
</g>
<!-- Node17 -->
<g id="node11" class="node">
<title>Node17</title>
<polygon fill="none" stroke="#bfbfbf" points="542,-56.5 542,-75.5 598,-75.5 598,-56.5 542,-56.5"/>
<text text-anchor="middle" x="570" y="-63.5" font-family="FreeSans.ttf" font-size="10.00" fill="#000000">sstream</text>
</g>
<!-- Node4&#45;&gt;Node17 -->
<g id="edge11" class="edge">
<title>Node4&#45;&gt;Node17</title>
<path fill="none" stroke="#191970" d="M619.5488,-112.2455C610.7731,-104.0549 598.0446,-92.1749 587.686,-82.5069"/>
<polygon fill="#191970" stroke="#191970" points="590.0301,-79.9072 580.3314,-75.6427 585.2539,-85.0246 590.0301,-79.9072"/>
</g>
<!-- Node18 -->
<g id="node12" class="node">
<title>Node18</title>
<polygon fill="none" stroke="#bfbfbf" points="474,-56.5 474,-75.5 524,-75.5 524,-56.5 474,-56.5"/>
<text text-anchor="middle" x="499" y="-63.5" font-family="FreeSans.ttf" font-size="10.00" fill="#000000">cstring</text>
</g>
<!-- Node4&#45;&gt;Node18 -->
<g id="edge13" class="edge">
<title>Node4&#45;&gt;Node18</title>
<path fill="none" stroke="#191970" d="M607.4803,-112.3733C586.2628,-103.3032 554.2724,-89.6279 530.5231,-79.4755"/>
<polygon fill="#191970" stroke="#191970" points="531.7967,-76.2136 521.2258,-75.5011 529.0452,-82.6502 531.7967,-76.2136"/>
</g>
<!-- Node6 -->
<g id="node7" class="node">
<title>Node6</title>
<polygon fill="none" stroke="#bfbfbf" points="757.5,-.5 757.5,-19.5 810.5,-19.5 810.5,-.5 757.5,-.5"/>
<text text-anchor="middle" x="784" y="-7.5" font-family="FreeSans.ttf" font-size="10.00" fill="#000000">cstddef</text>
</g>
<!-- Node5&#45;&gt;Node6 -->
<g id="edge6" class="edge">
<title>Node5&#45;&gt;Node6</title>
<path fill="none" stroke="#191970" d="M840.9811,-56.2455C830.7902,-47.9746 815.9638,-35.9416 803.9893,-26.2232"/>
<polygon fill="#191970" stroke="#191970" points="805.8514,-23.2268 795.8812,-19.6427 801.4402,-28.662 805.8514,-23.2268"/>
</g>
<!-- Node7&#45;&gt;Node6 -->
<g id="edge9" class="edge">
<title>Node7&#45;&gt;Node6</title>
<path fill="none" stroke="#191970" d="M727.0189,-56.2455C737.2098,-47.9746 752.0362,-35.9416 764.0107,-26.2232"/>
<polygon fill="#191970" stroke="#191970" points="766.5598,-28.662 772.1188,-19.6427 762.1486,-23.2268 766.5598,-28.662"/>
</g>
<!-- Node7&#45;&gt;Node8 -->
<g id="edge8" class="edge">
<title>Node7&#45;&gt;Node8</title>
<path fill="none" stroke="#191970" d="M684.2288,-56.3733C652.9762,-46.5959 604.618,-31.4671 571.6997,-21.1686"/>
<polygon fill="#191970" stroke="#191970" points="572.6043,-17.7844 562.0154,-18.1389 570.5142,-24.4651 572.6043,-17.7844"/>
</g>
<!-- Node19&#45;&gt;Node7 -->
<g id="edge15" class="edge">
<title>Node19&#45;&gt;Node7</title>
<path fill="none" stroke="#191970" d="M926.0555,-302.4557C903.7438,-295.1126 875.1443,-283.2645 854,-266 789.6577,-213.464 742.2135,-123.7868 723.6212,-84.9059"/>
<polygon fill="#191970" stroke="#191970" points="726.7491,-83.3322 719.3366,-75.7622 720.4105,-86.3024 726.7491,-83.3322"/>
</g>
<!-- Node19&#45;&gt;Node16 -->
<g id="edge16" class="edge">
<title>Node19&#45;&gt;Node16</title>
<path fill="none" stroke="#191970" d="M956.7088,-302.394C946.696,-278.492 924.1653,-214.8938 945,-168 960.0764,-134.0667 972.8554,-126.5916 1007,-112 1062.0109,-88.4913 1482.0879,-71.5537 1602.71,-67.1374"/>
<polygon fill="#191970" stroke="#191970" points="1602.9283,-70.6319 1612.7949,-66.772 1602.6747,-63.6365 1602.9283,-70.6319"/>
</g>
<!-- Node20&#45;&gt;Node16 -->
<g id="edge18" class="edge">
<title>Node20&#45;&gt;Node16</title>
<path fill="none" stroke="#191970" d="M1585.178,-302.4368C1626.2443,-294.7818 1674.411,-282.5787 1687,-266 1728.392,-211.49 1715.1133,-174.4042 1687,-112 1681.4303,-99.6369 1670.7137,-89.2563 1660.4494,-81.5033"/>
<polygon fill="#191970" stroke="#191970" points="1662.2549,-78.4948 1652.0567,-75.623 1658.2382,-84.2277 1662.2549,-78.4948"/>
</g>
<!-- Node22 -->
<g id="node16" class="node">
<title>Node22</title>
<g id="a_node16"><a xlink:href="SpatialMotionVector_8h.html" target="_top" xlink:title="iDynTree/Core/SpatialMotion\lVector.h">
<polygon fill="none" stroke="#ff0000" points="342.5,-235.5 342.5,-265.5 497.5,-265.5 497.5,-235.5 342.5,-235.5"/>
<text text-anchor="start" x="350.5" y="-253.5" font-family="FreeSans.ttf" font-size="10.00" fill="#000000">iDynTree/Core/SpatialMotion</text>
<text text-anchor="middle" x="420" y="-242.5" font-family="FreeSans.ttf" font-size="10.00" fill="#000000">Vector.h</text>
</a>
</g>
</g>
<!-- Node21&#45;&gt;Node22 -->
<g id="edge20" class="edge">
<title>Node21&#45;&gt;Node22</title>
<path fill="none" stroke="#191970" d="M414.0938,-302.3906C414.9095,-295.2234 416.0634,-285.0862 417.135,-275.671"/>
<polygon fill="#191970" stroke="#191970" points="420.6342,-275.8763 418.2876,-265.5446 413.6791,-275.0846 420.6342,-275.8763"/>
</g>
<!-- Node22&#45;&gt;Node4 -->
<g id="edge21" class="edge">
<title>Node22&#45;&gt;Node4</title>
<path fill="none" stroke="#191970" d="M419.0495,-235.4844C418.7507,-217.0313 421.2136,-185.9649 439,-168 454.4775,-152.3672 502.8519,-140.8093 547.0411,-133.1889"/>
<polygon fill="#191970" stroke="#191970" points="547.6934,-136.6285 556.9793,-131.5274 546.5391,-129.7243 547.6934,-136.6285"/>
</g>
<!-- Node23 -->
<g id="node17" class="node">
<title>Node23</title>
<g id="a_node17"><a xlink:href="LinearMotionVector3_8h.html" target="_top" xlink:title="iDynTree/Core/LinearMotion\lVector3.h">
<polygon fill="none" stroke="#ff0000" points="448.5,-168.5 448.5,-198.5 599.5,-198.5 599.5,-168.5 448.5,-168.5"/>
<text text-anchor="start" x="456.5" y="-186.5" font-family="FreeSans.ttf" font-size="10.00" fill="#000000">iDynTree/Core/LinearMotion</text>
<text text-anchor="middle" x="524" y="-175.5" font-family="FreeSans.ttf" font-size="10.00" fill="#000000">Vector3.h</text>
</a>
</g>
</g>
<!-- Node22&#45;&gt;Node23 -->
<g id="edge22" class="edge">
<title>Node22&#45;&gt;Node23</title>
<path fill="none" stroke="#191970" d="M443.3396,-235.4639C457.5574,-226.3044 475.9323,-214.4667 491.5522,-204.4038"/>
<polygon fill="#191970" stroke="#191970" points="493.8674,-207.0758 500.3784,-198.7177 490.0764,-201.1912 493.8674,-207.0758"/>
</g>
<!-- Node39&#45;&gt;Node16 -->
<g id="edge44" class="edge">
<title>Node39&#45;&gt;Node16</title>
<path fill="none" stroke="#191970" d="M1218.9755,-302.2598C1249.1248,-265.6797 1356.7664,-137.3038 1403,-112 1437.0929,-93.3408 1547.6209,-77.1245 1602.9021,-69.9409"/>
<polygon fill="#191970" stroke="#191970" points="1603.3918,-73.4068 1612.8669,-68.6663 1602.5036,-66.4634 1603.3918,-73.4068"/>
</g>
<!-- Node34 -->
<g id="node19" class="node">
<title>Node34</title>
<g id="a_node19"><a xlink:href="Position_8h.html" target="_top" xlink:title="Position.h">
<polygon fill="none" stroke="#000000" points="1428.5,-241 1428.5,-260 1493.5,-260 1493.5,-241 1428.5,-241"/>
<text text-anchor="middle" x="1461" y="-248" font-family="FreeSans.ttf" font-size="10.00" fill="#000000">Position.h</text>
</a>
</g>
</g>
<!-- Node39&#45;&gt;Node34 -->
<g id="edge24" class="edge">
<title>Node39&#45;&gt;Node34</title>
<path fill="none" stroke="#191970" d="M1249.7882,-302.4581C1295.5312,-291.2053 1371.3058,-272.5648 1418.5746,-260.9366"/>
<polygon fill="#191970" stroke="#191970" points="1419.6218,-264.2835 1428.4962,-258.4959 1417.9496,-257.4861 1419.6218,-264.2835"/>
</g>
<!-- Node26 -->
<g id="node22" class="node">
<title>Node26</title>
<g id="a_node22"><a xlink:href="Rotation_8h.html" target="_top" xlink:title="iDynTree/Core/Rotation.h">
<polygon fill="none" stroke="#ff0000" points="1151.5,-174 1151.5,-193 1288.5,-193 1288.5,-174 1151.5,-174"/>
<text text-anchor="middle" x="1220" y="-181" font-family="FreeSans.ttf" font-size="10.00" fill="#000000">iDynTree/Core/Rotation.h</text>
</a>
</g>
</g>
<!-- Node39&#45;&gt;Node26 -->
<g id="edge34" class="edge">
<title>Node39&#45;&gt;Node26</title>
<path fill="none" stroke="#191970" d="M1211.6765,-302.3416C1213.1424,-281.4114 1216.6379,-231.504 1218.6009,-203.4762"/>
<polygon fill="#191970" stroke="#191970" points="1222.1084,-203.4906 1219.3157,-193.2705 1215.1255,-203.0015 1222.1084,-203.4906"/>
</g>
<!-- Node40 -->
<g id="node23" class="node">
<title>Node40</title>
<g id="a_node23"><a xlink:href="TransformSemantics_8h.html" target="_top" xlink:title="iDynTree/Core/TransformSemantics.h">
<polygon fill="none" stroke="#000000" points="1015.5,-112.5 1015.5,-131.5 1212.5,-131.5 1212.5,-112.5 1015.5,-112.5"/>
<text text-anchor="middle" x="1114" y="-119.5" font-family="FreeSans.ttf" font-size="10.00" fill="#000000">iDynTree/Core/TransformSemantics.h</text>
</a>
</g>
</g>
<!-- Node39&#45;&gt;Node40 -->
<g id="edge35" class="edge">
<title>Node39&#45;&gt;Node40</title>
<path fill="none" stroke="#191970" d="M1204.3728,-302.3612C1191.428,-283.2581 1162.3589,-238.9783 1143,-199 1133.7938,-179.9882 1125.547,-157.2481 1120.223,-141.4304"/>
<polygon fill="#191970" stroke="#191970" points="1123.4774,-140.1225 1117.0283,-131.7166 1116.8278,-142.3095 1123.4774,-140.1225"/>
</g>
<!-- Node28 -->
<g id="node24" class="node">
<title>Node28</title>
<g id="a_node24"><a xlink:href="MatrixFixSize_8h.html" target="_top" xlink:title="iDynTree/Core/MatrixFixSize.h">
<polygon fill="none" stroke="#ff0000" points="370.5,-112.5 370.5,-131.5 531.5,-131.5 531.5,-112.5 370.5,-112.5"/>
<text text-anchor="middle" x="451" y="-119.5" font-family="FreeSans.ttf" font-size="10.00" fill="#000000">iDynTree/Core/MatrixFixSize.h</text>
</a>
</g>
</g>
<!-- Node39&#45;&gt;Node28 -->
<g id="edge38" class="edge">
<title>Node39&#45;&gt;Node28</title>
<path fill="none" stroke="#191970" d="M1172.7906,-302.4477C1046.0776,-270.7694 639.7937,-169.1984 499.3233,-134.0808"/>
<polygon fill="#191970" stroke="#191970" points="499.8357,-130.6013 489.2854,-131.5714 498.1379,-137.3923 499.8357,-130.6013"/>
</g>
<!-- Node34&#45;&gt;Node16 -->
<g id="edge33" class="edge">
<title>Node34&#45;&gt;Node16</title>
<path fill="none" stroke="#191970" d="M1487.0803,-240.9469C1508.8201,-232.1756 1539.8622,-217.7104 1563,-199 1592.7388,-174.9517 1599.6004,-166.0583 1617,-132 1624.4296,-117.4573 1629.0709,-99.4965 1631.7759,-85.9848"/>
<polygon fill="#191970" stroke="#191970" points="1635.2724,-86.3179 1633.6113,-75.8541 1628.3845,-85.0699 1635.2724,-86.3179"/>
</g>
<!-- Node35 -->
<g id="node20" class="node">
<title>Node35</title>
<g id="a_node20"><a xlink:href="PositionRaw_8h.html" target="_top" xlink:title="iDynTree/Core/PositionRaw.h">
<polygon fill="none" stroke="#000000" points="1383,-174 1383,-193 1539,-193 1539,-174 1383,-174"/>
<text text-anchor="middle" x="1461" y="-181" font-family="FreeSans.ttf" font-size="10.00" fill="#000000">iDynTree/Core/PositionRaw.h</text>
</a>
</g>
</g>
<!-- Node34&#45;&gt;Node35 -->
<g id="edge25" class="edge">
<title>Node34&#45;&gt;Node35</title>
<path fill="none" stroke="#191970" d="M1461,-240.9005C1461,-231.149 1461,-215.7597 1461,-203.3695"/>
<polygon fill="#191970" stroke="#191970" points="1464.5001,-203.0816 1461,-193.0817 1457.5001,-203.0817 1464.5001,-203.0816"/>
</g>
<!-- Node36 -->
<g id="node21" class="node">
<title>Node36</title>
<g id="a_node21"><a xlink:href="PositionSemantics_8h.html" target="_top" xlink:title="iDynTree/Core/PositionSemantics.h">
<polygon fill="none" stroke="#000000" points="1420.5,-112.5 1420.5,-131.5 1607.5,-131.5 1607.5,-112.5 1420.5,-112.5"/>
<text text-anchor="middle" x="1514" y="-119.5" font-family="FreeSans.ttf" font-size="10.00" fill="#000000">iDynTree/Core/PositionSemantics.h</text>
</a>
</g>
</g>
<!-- Node34&#45;&gt;Node36 -->
<g id="edge28" class="edge">
<title>Node34&#45;&gt;Node36</title>
<path fill="none" stroke="#191970" d="M1492.6339,-240.8306C1512.3624,-232.976 1536.1772,-219.7374 1548,-199 1559.2172,-179.3247 1544.3908,-155.2506 1530.9435,-139.3152"/>
<polygon fill="#191970" stroke="#191970" points="1533.4694,-136.8896 1524.1824,-131.7903 1528.2624,-141.5681 1533.4694,-136.8896"/>
</g>
<!-- Node34&#45;&gt;Node26 -->
<g id="edge30" class="edge">
<title>Node34&#45;&gt;Node26</title>
<path fill="none" stroke="#191970" d="M1428.4977,-241.4641C1386.0354,-229.6592 1311.5185,-208.9429 1264.0214,-195.7383"/>
<polygon fill="#191970" stroke="#191970" points="1264.8895,-192.347 1254.3174,-193.0405 1263.0145,-199.0912 1264.8895,-192.347"/>
</g>
<!-- Node35&#45;&gt;Node4 -->
<g id="edge26" class="edge">
<title>Node35&#45;&gt;Node4</title>
<path fill="none" stroke="#191970" d="M1382.688,-175.6361C1355.8488,-173.0519 1325.623,-170.2641 1298,-168 1091.7106,-151.0919 849.2343,-135.4512 720.7007,-127.4942"/>
<polygon fill="#191970" stroke="#191970" points="720.7086,-123.9881 710.5118,-126.8648 720.2769,-130.9748 720.7086,-123.9881"/>
</g>
<!-- Node35&#45;&gt;Node16 -->
<g id="edge27" class="edge">
<title>Node35&#45;&gt;Node16</title>
<path fill="none" stroke="#191970" d="M1446.0845,-173.889C1426.0659,-159.8169 1394.8902,-132.9993 1412,-112 1435.6923,-82.9217 1546.799,-71.6768 1602.7027,-67.8047"/>
<polygon fill="#191970" stroke="#191970" points="1603.0353,-71.2905 1612.7854,-67.1451 1602.5783,-64.3055 1603.0353,-71.2905"/>
</g>
<!-- Node36&#45;&gt;Node16 -->
<g id="edge29" class="edge">
<title>Node36&#45;&gt;Node16</title>
<path fill="none" stroke="#191970" d="M1534.8006,-112.3733C1554.2243,-103.3838 1583.4224,-89.8706 1605.2964,-79.7471"/>
<polygon fill="#191970" stroke="#191970" points="1606.8656,-82.8776 1614.4708,-75.5011 1603.9255,-76.5249 1606.8656,-82.8776"/>
</g>
<!-- Node26&#45;&gt;Node4 -->
<g id="edge32" class="edge">
<title>Node26&#45;&gt;Node4</title>
<path fill="none" stroke="#191970" d="M1151.9658,-173.9915C1136.2287,-171.9081 1119.5418,-169.7919 1104,-168 970.8657,-152.6502 816.2931,-138.2966 720.8064,-129.8317"/>
<polygon fill="#191970" stroke="#191970" points="720.8772,-126.3244 710.6078,-128.9301 720.2607,-133.2972 720.8772,-126.3244"/>
</g>
<!-- Node26&#45;&gt;Node16 -->
<g id="edge31" class="edge">
<title>Node26&#45;&gt;Node16</title>
<path fill="none" stroke="#191970" d="M1227.7751,-173.9089C1241.2411,-158.0457 1270.5892,-126.6447 1303,-112 1356.0863,-88.0131 1529.2195,-73.4088 1602.1452,-68.1835"/>
<polygon fill="#191970" stroke="#191970" points="1602.8237,-71.6446 1612.5541,-67.4529 1602.3335,-64.6617 1602.8237,-71.6446"/>
</g>
<!-- Node40&#45;&gt;Node5 -->
<g id="edge37" class="edge">
<title>Node40&#45;&gt;Node5</title>
<path fill="none" stroke="#191970" d="M1069.4291,-112.4369C1024.5732,-102.8127 955.3351,-87.957 907.2992,-77.6504"/>
<polygon fill="#191970" stroke="#191970" points="907.8989,-74.1995 897.3871,-75.5237 906.4303,-81.0437 907.8989,-74.1995"/>
</g>
<!-- Node40&#45;&gt;Node16 -->
<g id="edge36" class="edge">
<title>Node40&#45;&gt;Node16</title>
<path fill="none" stroke="#191970" d="M1202.6757,-112.4686C1320.8599,-99.7655 1524.2154,-77.9078 1602.7481,-69.4666"/>
<polygon fill="#191970" stroke="#191970" points="1603.4104,-72.9157 1612.9791,-68.3669 1602.6623,-65.9558 1603.4104,-72.9157"/>
</g>
<!-- Node28&#45;&gt;Node5 -->
<g id="edge39" class="edge">
<title>Node28&#45;&gt;Node5</title>
<path fill="none" stroke="#191970" d="M521.3987,-112.4948C586.7658,-103.6253 687.0881,-89.9028 783.3938,-76.2203"/>
<polygon fill="#191970" stroke="#191970" points="783.8931,-79.6846 793.3004,-74.8109 782.9071,-72.7543 783.8931,-79.6846"/>
</g>
<!-- Node28&#45;&gt;Node8 -->
<g id="edge40" class="edge">
<title>Node28&#45;&gt;Node8</title>
<path fill="none" stroke="#191970" d="M450.8165,-112.1368C451.0318,-98.3767 453.185,-73.1789 465,-56 474.3997,-42.3329 489.3242,-31.7719 503.0693,-24.2363"/>
<polygon fill="#191970" stroke="#191970" points="505.009,-27.1753 512.3144,-19.5018 501.8182,-20.9448 505.009,-27.1753"/>
</g>
<!-- Node28&#45;&gt;Node16 -->
<g id="edge42" class="edge">
<title>Node28&#45;&gt;Node16</title>
<path fill="none" stroke="#191970" d="M531.5063,-112.6991C534.3715,-112.4494 537.2095,-112.2151 540,-112 959.3254,-79.6744 1470.8615,-68.8772 1602.7684,-66.5308"/>
<polygon fill="#191970" stroke="#191970" points="1603.0451,-70.0266 1612.9825,-66.3527 1602.9229,-63.0277 1603.0451,-70.0266"/>
</g>
<!-- Node28&#45;&gt;Node17 -->
<g id="edge43" class="edge">
<title>Node28&#45;&gt;Node17</title>
<path fill="none" stroke="#191970" d="M471.4568,-112.3733C490.4738,-103.4241 519.0175,-89.9917 540.4976,-79.8835"/>
<polygon fill="#191970" stroke="#191970" points="542.2522,-82.926 549.8101,-75.5011 539.2716,-76.5923 542.2522,-82.926"/>
</g>
<!-- Node28&#45;&gt;Node18 -->
<g id="edge41" class="edge">
<title>Node28&#45;&gt;Node18</title>
<path fill="none" stroke="#191970" d="M459.361,-112.2455C466.175,-104.2958 475.9681,-92.8706 484.1152,-83.3656"/>
<polygon fill="#191970" stroke="#191970" points="486.8843,-85.513 490.7349,-75.6427 481.5695,-80.9575 486.8843,-85.513"/>
</g>
<!-- Node42&#45;&gt;Node16 -->
<g id="edge47" class="edge">
<title>Node42&#45;&gt;Node16</title>
<path fill="none" stroke="#191970" d="M1682.5092,-363.9828C1704.2062,-344.8973 1749,-299.5547 1749,-250.5 1749,-250.5 1749,-250.5 1749,-183.5 1749,-135.0473 1698.4485,-99.0212 1664.6708,-80.3573"/>
<polygon fill="#191970" stroke="#191970" points="1666.1172,-77.1624 1655.6445,-75.5577 1662.8307,-83.343 1666.1172,-77.1624"/>
</g>
<!-- Node42&#45;&gt;Node19 -->
<g id="edge52" class="edge">
<title>Node42&#45;&gt;Node19</title>
<path fill="none" stroke="#191970" d="M1588.1241,-365.7321C1560.9988,-363.2222 1530.7175,-360.4548 1503,-358 1345.8047,-344.078 1162.8829,-328.7307 1054.804,-319.7512"/>
<polygon fill="#191970" stroke="#191970" points="1054.8372,-316.242 1044.5818,-318.9023 1054.2579,-323.218 1054.8372,-316.242"/>
</g>
<!-- Node42&#45;&gt;Node20 -->
<g id="edge49" class="edge">
<title>Node42&#45;&gt;Node20</title>
<path fill="none" stroke="#191970" d="M1647.7188,-363.8906C1622.679,-353.5554 1582.6775,-337.0447 1554.534,-325.4284"/>
<polygon fill="#191970" stroke="#191970" points="1555.6967,-322.122 1545.1178,-321.5419 1553.026,-328.5925 1555.6967,-322.122"/>
</g>
<!-- Node42&#45;&gt;Node39 -->
<g id="edge51" class="edge">
<title>Node42&#45;&gt;Node39</title>
<path fill="none" stroke="#191970" d="M1613.3433,-363.9718C1600.4103,-361.9223 1586.7457,-359.8254 1574,-358 1521.776,-350.5205 1384.5077,-333.3821 1294.5373,-322.2672"/>
<polygon fill="#191970" stroke="#191970" points="1294.707,-318.7617 1284.3534,-321.0099 1293.8492,-325.7089 1294.707,-318.7617"/>
</g>
<!-- Node42&#45;&gt;Node34 -->
<g id="edge50" class="edge">
<title>Node42&#45;&gt;Node34</title>
<path fill="none" stroke="#191970" d="M1665.8276,-363.6837C1657.263,-348.3465 1638.7037,-318.728 1615,-302 1581.5377,-278.3853 1536.4595,-264.9875 1503.7257,-257.8156"/>
<polygon fill="#191970" stroke="#191970" points="1504.0652,-254.3114 1493.5619,-255.7008 1502.6392,-261.1646 1504.0652,-254.3114"/>
</g>
<!-- Node42&#45;&gt;Node43 -->
<g id="edge48" class="edge">
<title>Node42&#45;&gt;Node43</title>
<path fill="none" stroke="#191970" d="M1706.1563,-363.8906C1748.9744,-352.187 1820.7646,-332.5643 1862.7166,-321.0975"/>
<polygon fill="#191970" stroke="#191970" points="1863.7288,-324.4493 1872.4522,-318.4364 1861.8832,-317.6969 1863.7288,-324.4493"/>
</g>
<!-- Node44&#45;&gt;Node16 -->
<g id="edge54" class="edge">
<title>Node44&#45;&gt;Node16</title>
<path fill="none" stroke="#191970" d="M1871.6833,-425.3892C1926.488,-411.059 2010,-378.3387 2010,-312 2010,-312 2010,-312 2010,-183.5 2010,-111.8847 1757.8074,-78.7081 1667.053,-69.0876"/>
<polygon fill="#191970" stroke="#191970" points="1667.3648,-65.6013 1657.0579,-68.0548 1666.6452,-72.5642 1667.3648,-65.6013"/>
</g>
<!-- Node44&#45;&gt;Node42 -->
<g id="edge56" class="edge">
<title>Node44&#45;&gt;Node42</title>
<path fill="none" stroke="#191970" d="M1800.9375,-425.3906C1774.9444,-415.0103 1733.3522,-398.4004 1704.2453,-386.7766"/>
<polygon fill="#191970" stroke="#191970" points="1705.4785,-383.5003 1694.8935,-383.0419 1702.8823,-390.0011 1705.4785,-383.5003"/>
</g>
<!-- Node44&#45;&gt;Node43 -->
<g id="edge55" class="edge">
<title>Node44&#45;&gt;Node43</title>
<path fill="none" stroke="#191970" d="M1837.9032,-425.3849C1848.461,-416.8902 1863.0608,-403.6082 1872,-389 1882.9265,-371.1443 1889.2761,-347.8836 1892.6681,-331.6202"/>
<polygon fill="#191970" stroke="#191970" points="1896.1378,-332.1086 1894.5638,-321.6313 1889.2606,-330.8033 1896.1378,-332.1086"/>
</g>
<!-- Node45 -->
<g id="node29" class="node">
<title>Node45</title>
<g id="a_node29"><a xlink:href="Direction_8h.html" target="_top" xlink:title="iDynTree/Core/Direction.h">
<polygon fill="none" stroke="#000000" points="953.5,-174 953.5,-193 1094.5,-193 1094.5,-174 953.5,-174"/>
<text text-anchor="middle" x="1024" y="-181" font-family="FreeSans.ttf" font-size="10.00" fill="#000000">iDynTree/Core/Direction.h</text>
</a>
</g>
</g>
<!-- Node44&#45;&gt;Node45 -->
<g id="edge57" class="edge">
<title>Node44&#45;&gt;Node45</title>
<path fill="none" stroke="#191970" d="M1743.7289,-433.0815C1645.1345,-429.4624 1474.3167,-419.0314 1331,-389 1307.8558,-384.1502 1148.2293,-335.7626 1129,-322 1083.7847,-289.639 1049.2585,-232.1039 1033.4607,-202.4038"/>
<polygon fill="#191970" stroke="#191970" points="1036.3734,-200.417 1028.6671,-193.1462 1030.1573,-203.6357 1036.3734,-200.417"/>
</g>
<!-- Node45&#45;&gt;Node4 -->
<g id="edge59" class="edge">
<title>Node45&#45;&gt;Node4</title>
<path fill="none" stroke="#191970" d="M962.8698,-173.9581C892.165,-162.9217 775.933,-144.7789 701.2088,-133.1151"/>
<polygon fill="#191970" stroke="#191970" points="701.3696,-129.5979 690.9494,-131.5137 700.29,-136.5141 701.3696,-129.5979"/>
</g>
<!-- Node45&#45;&gt;Node5 -->
<g id="edge60" class="edge">
<title>Node45&#45;&gt;Node5</title>
<path fill="none" stroke="#191970" d="M1010.0064,-173.8845C980.4459,-153.5724 911.421,-106.1431 875.5486,-81.4939"/>
<polygon fill="#191970" stroke="#191970" points="877.411,-78.527 867.187,-75.7484 873.4467,-84.2963 877.411,-78.527"/>
</g>
<!-- Node45&#45;&gt;Node16 -->
<g id="edge58" class="edge">
<title>Node45&#45;&gt;Node16</title>
<path fill="none" stroke="#191970" d="M1068.6251,-173.9859C1109.1445,-164.8557 1170.2934,-149.8435 1222,-132 1243.0737,-124.7277 1246.4991,-117.8906 1268,-112 1388.5579,-78.9707 1537.9746,-69.5748 1602.6534,-66.9684"/>
<polygon fill="#191970" stroke="#191970" points="1602.7863,-70.466 1612.648,-66.5933 1602.5237,-63.4709 1602.7863,-70.466"/>
</g>
<!-- Node46&#45;&gt;Node4 -->
<g id="edge64" class="edge">
<title>Node46&#45;&gt;Node4</title>
<path fill="none" stroke="#191970" d="M1340.4971,-431.1245C1143.6792,-422.2181 682.2308,-400.1982 670,-389 660.8252,-380.5998 639.3552,-202.48 632.2952,-141.9362"/>
<polygon fill="#191970" stroke="#191970" points="635.7453,-141.3027 631.1169,-131.7723 628.7918,-142.1089 635.7453,-141.3027"/>
</g>
<!-- Node46&#45;&gt;Node5 -->
<g id="edge66" class="edge">
<title>Node46&#45;&gt;Node5</title>
<path fill="none" stroke="#191970" d="M1340.3135,-430.3342C1234.9488,-423.8132 1069.8771,-410.3205 1051,-389 1025.3525,-360.0329 1069.3101,-337.5315 1054,-302 1027.6249,-240.7887 988.4168,-249.5713 945,-199 912.0974,-160.6755 880.004,-110.5321 863.832,-84.1087"/>
<polygon fill="#191970" stroke="#191970" points="866.7986,-82.2507 858.6222,-75.5128 860.8122,-85.8789 866.7986,-82.2507"/>
</g>
<!-- Node46&#45;&gt;Node16 -->
<g id="edge62" class="edge">
<title>Node46&#45;&gt;Node16</title>
<path fill="none" stroke="#191970" d="M1515.7615,-428.2876C1609.0003,-420.3261 1745.4203,-405.9729 1763,-389 1807.9439,-345.6075 1787,-312.9729 1787,-250.5 1787,-250.5 1787,-250.5 1787,-183.5 1787,-123.3142 1711.4821,-89.5962 1666.9054,-74.9359"/>
<polygon fill="#191970" stroke="#191970" points="1667.6915,-71.5142 1657.1021,-71.8534 1665.5918,-78.1918 1667.6915,-71.5142"/>
</g>
<!-- Node46&#45;&gt;Node20 -->
<g id="edge65" class="edge">
<title>Node46&#45;&gt;Node20</title>
<path fill="none" stroke="#191970" d="M1453.5455,-425.3728C1470.0387,-417.8797 1490.6497,-405.8934 1503,-389 1515.1486,-372.3825 1519.5877,-348.9138 1521.1787,-332.2631"/>
<polygon fill="#191970" stroke="#191970" points="1524.6905,-332.2095 1521.8848,-321.9929 1517.707,-331.7293 1524.6905,-332.2095"/>
</g>
<!-- Node46&#45;&gt;Node43 -->
<g id="edge63" class="edge">
<title>Node46&#45;&gt;Node43</title>
<path fill="none" stroke="#191970" d="M1515.8191,-429.3553C1608.2009,-422.4761 1746.8756,-409.2082 1796,-389 1813.6735,-381.7297 1853.6903,-348.6175 1877.3963,-328.2552"/>
<polygon fill="#191970" stroke="#191970" points="1879.7626,-330.8361 1885.0378,-321.6478 1875.1841,-325.541 1879.7626,-330.8361"/>
</g>
<!-- Node47 -->
<g id="node31" class="node">
<title>Node47</title>
<g id="a_node31"><a xlink:href="Indices_8h.html" target="_top" xlink:title="iDynTree/Model/Indices.h">
<polygon fill="none" stroke="#000000" points="2275,-302.5 2275,-321.5 2413,-321.5 2413,-302.5 2275,-302.5"/>
<text text-anchor="middle" x="2344" y="-309.5" font-family="FreeSans.ttf" font-size="10.00" fill="#000000">iDynTree/Model/Indices.h</text>
</a>
</g>
</g>
<!-- Node46&#45;&gt;Node47 -->
<g id="edge67" class="edge">
<title>Node46&#45;&gt;Node47</title>
<path fill="none" stroke="#191970" d="M1515.8521,-431.6931C1720.8037,-423.7598 2215.768,-403.2491 2249,-389 2267.4947,-381.0699 2266.5604,-370.9057 2282,-358 2294.7436,-347.3479 2309.6776,-336.2296 2321.6954,-327.5926"/>
<polygon fill="#191970" stroke="#191970" points="2323.7394,-330.4338 2329.8577,-321.7841 2319.6808,-324.7305 2323.7394,-330.4338"/>
</g>
<!-- Node48 -->
<g id="node32" class="node">
<title>Node48</title>
<g id="a_node32"><a xlink:href="FreeFloatingMatrices_8h.html" target="_top" xlink:title="iDynTree/Model/FreeFloating\lMatrices.h">
<polygon fill="none" stroke="#000000" points="1340,-358.5 1340,-388.5 1494,-388.5 1494,-358.5 1340,-358.5"/>
<text text-anchor="start" x="1348" y="-376.5" font-family="FreeSans.ttf" font-size="10.00" fill="#000000">iDynTree/Model/FreeFloating</text>
<text text-anchor="middle" x="1417" y="-365.5" font-family="FreeSans.ttf" font-size="10.00" fill="#000000">Matrices.h</text>
</a>
</g>
</g>
<!-- Node46&#45;&gt;Node48 -->
<g id="edge69" class="edge">
<title>Node46&#45;&gt;Node48</title>
<path fill="none" stroke="#191970" d="M1426.2813,-425.3906C1424.9993,-418.2234 1423.1862,-408.0862 1421.5021,-398.671"/>
<polygon fill="#191970" stroke="#191970" points="1424.897,-397.7721 1419.6909,-388.5446 1418.0063,-399.0046 1424.897,-397.7721"/>
</g>
<!-- Node49 -->
<g id="node33" class="node">
<title>Node49</title>
<g id="a_node33"><a xlink:href="LinkState_8h.html" target="_top" xlink:title="iDynTree/Model/LinkState.h">
<polygon fill="none" stroke="#ff0000" points="1059.5,-364 1059.5,-383 1208.5,-383 1208.5,-364 1059.5,-364"/>
<text text-anchor="middle" x="1134" y="-371" font-family="FreeSans.ttf" font-size="10.00" fill="#000000">iDynTree/Model/LinkState.h</text>
</a>
</g>
</g>
<!-- Node46&#45;&gt;Node49 -->
<g id="edge71" class="edge">
<title>Node46&#45;&gt;Node49</title>
<path fill="none" stroke="#191970" d="M1382.3851,-425.4581C1330.4568,-414.5956 1245.6185,-396.8488 1189.7936,-385.1711"/>
<polygon fill="#191970" stroke="#191970" points="1190.2267,-381.686 1179.7219,-383.0643 1188.7934,-388.5377 1190.2267,-381.686"/>
</g>
<!-- Node47&#45;&gt;Node16 -->
<g id="edge68" class="edge">
<title>Node47&#45;&gt;Node16</title>
<path fill="none" stroke="#191970" d="M2336.731,-302.1797C2311.1381,-268.4726 2221.1076,-157.0875 2117,-112 2035.669,-76.7767 1761.2801,-68.37 1667.0703,-66.5007"/>
<polygon fill="#191970" stroke="#191970" points="1667.0659,-63.0001 1657.0022,-66.3125 1666.935,-69.9989 1667.0659,-63.0001"/>
</g>
<!-- Node48&#45;&gt;Node20 -->
<g id="edge70" class="edge">
<title>Node48&#45;&gt;Node20</title>
<path fill="none" stroke="#191970" d="M1442.6859,-358.4554C1459.1297,-348.8241 1480.3708,-336.3828 1496.7323,-326.7996"/>
<polygon fill="#191970" stroke="#191970" points="1498.8688,-329.6045 1505.7287,-321.5303 1495.331,-323.5643 1498.8688,-329.6045"/>
</g>
<!-- Node49&#45;&gt;Node21 -->
<g id="edge73" class="edge">
<title>Node49&#45;&gt;Node21</title>
<path fill="none" stroke="#191970" d="M1059.1654,-369.1166C939.832,-361.7868 698.8632,-345.5978 484.2536,-322.0784"/>
<polygon fill="#191970" stroke="#191970" points="484.3782,-318.571 474.0546,-320.9529 483.6103,-325.5287 484.3782,-318.571"/>
</g>
<!-- Node49&#45;&gt;Node39 -->
<g id="edge72" class="edge">
<title>Node49&#45;&gt;Node39</title>
<path fill="none" stroke="#191970" d="M1146.0313,-363.8906C1158.0107,-354.3227 1176.6166,-339.4621 1190.8525,-328.0919"/>
<polygon fill="#191970" stroke="#191970" points="1193.4239,-330.5175 1199.0532,-321.5419 1189.0553,-325.0479 1193.4239,-330.5175"/>
</g>
<!-- Node49&#45;&gt;Node43 -->
<g id="edge77" class="edge">
<title>Node49&#45;&gt;Node43</title>
<path fill="none" stroke="#191970" d="M1208.7997,-367.463C1370.4519,-354.4163 1747.0654,-324.0203 1862.0538,-314.7398"/>
<polygon fill="#191970" stroke="#191970" points="1862.663,-318.2021 1872.349,-313.9088 1862.0998,-311.2247 1862.663,-318.2021"/>
</g>
<!-- Node49&#45;&gt;Node47 -->
<g id="edge76" class="edge">
<title>Node49&#45;&gt;Node47</title>
<path fill="none" stroke="#191970" d="M1208.7892,-366.9144C1245.5749,-363.8541 1290.5874,-360.3753 1331,-358 1741.7135,-333.8597 1845.7661,-353.2483 2256,-322 2258.8747,-321.781 2261.8004,-321.5405 2264.7541,-321.2827"/>
<polygon fill="#191970" stroke="#191970" points="2265.2369,-324.7531 2274.8717,-320.3462 2264.5917,-317.7829 2265.2369,-324.7531"/>
</g>
<!-- Node49&#45;&gt;Node50 -->
<g id="edge74" class="edge">
<title>Node49&#45;&gt;Node50</title>
<path fill="none" stroke="#191970" d="M1059.4521,-365.4284C953.7968,-353.9886 761.0577,-333.1198 650.3156,-321.1292"/>
<polygon fill="#191970" stroke="#191970" points="650.5076,-317.6297 640.1889,-320.0328 649.754,-324.589 650.5076,-317.6297"/>
</g>
<!-- Node50&#45;&gt;Node22 -->
<g id="edge75" class="edge">
<title>Node50&#45;&gt;Node22</title>
<path fill="none" stroke="#191970" d="M543.1875,-302.3906C522.3304,-293.6049 490.8793,-280.3567 464.9775,-269.446"/>
<polygon fill="#191970" stroke="#191970" points="466.2901,-266.2011 455.7156,-265.5446 463.5727,-272.6522 466.2901,-266.2011"/>
</g>
<!-- Node57&#45;&gt;Node39 -->
<g id="edge83" class="edge">
<title>Node57&#45;&gt;Node39</title>
<path fill="none" stroke="#191970" d="M2087.4209,-432.1937C1957.5317,-426.3028 1674.7543,-411.3217 1580,-389 1544.0914,-380.5409 1538.56,-367.8222 1503,-358 1464.6724,-347.4133 1365.7539,-332.7884 1293.6416,-322.8931"/>
<polygon fill="#191970" stroke="#191970" points="1294.0349,-319.4144 1283.6532,-321.5292 1293.0877,-326.3501 1294.0349,-319.4144"/>
</g>
<!-- Node57&#45;&gt;Node43 -->
<g id="edge91" class="edge">
<title>Node57&#45;&gt;Node43</title>
<path fill="none" stroke="#191970" d="M2133.7552,-425.3484C2088.3519,-403.7026 1978.2422,-351.2085 1925.3354,-325.9855"/>
<polygon fill="#191970" stroke="#191970" points="1926.6837,-322.7509 1916.1508,-321.6068 1923.6712,-329.0696 1926.6837,-322.7509"/>
</g>
<!-- Node57&#45;&gt;Node47 -->
<g id="edge84" class="edge">
<title>Node57&#45;&gt;Node47</title>
<path fill="none" stroke="#191970" d="M2185.7171,-425.4558C2208.8201,-417.6709 2240.2672,-405.3006 2265,-389 2290.3292,-372.3063 2314.5571,-346.7938 2329.3502,-329.7655"/>
<polygon fill="#191970" stroke="#191970" points="2332.3737,-331.6126 2336.182,-321.7258 2327.0394,-327.0798 2332.3737,-331.6126"/>
</g>
<!-- Node58 -->
<g id="node36" class="node">
<title>Node58</title>
<g id="a_node36"><a xlink:href="IJoint_8h.html" target="_top" xlink:title="iDynTree/Model/IJoint.h">
<polygon fill="none" stroke="#000000" points="2372,-364 2372,-383 2500,-383 2500,-364 2372,-364"/>
<text text-anchor="middle" x="2436" y="-371" font-family="FreeSans.ttf" font-size="10.00" fill="#000000">iDynTree/Model/IJoint.h</text>
</a>
</g>
</g>
<!-- Node57&#45;&gt;Node58 -->
<g id="edge79" class="edge">
<title>Node57&#45;&gt;Node58</title>
<path fill="none" stroke="#191970" d="M2197.7531,-425.4581C2247.4585,-414.6181 2328.5999,-396.9224 2382.1501,-385.2439"/>
<polygon fill="#191970" stroke="#191970" points="2383.1197,-388.6148 2392.1443,-383.0643 2381.6281,-381.7755 2383.1197,-388.6148"/>
</g>
<!-- Node59 -->
<g id="node37" class="node">
<title>Node59</title>
<g id="a_node37"><a xlink:href="Link_8h.html" target="_top" xlink:title="iDynTree/Model/Link.h">
<polygon fill="none" stroke="#ff0000" points="2518,-364 2518,-383 2642,-383 2642,-364 2518,-364"/>
<text text-anchor="middle" x="2580" y="-371" font-family="FreeSans.ttf" font-size="10.00" fill="#000000">iDynTree/Model/Link.h</text>
</a>
</g>
</g>
<!-- Node57&#45;&gt;Node59 -->
<g id="edge81" class="edge">
<title>Node57&#45;&gt;Node59</title>
<path fill="none" stroke="#191970" d="M2220.6672,-428.0948C2292.2054,-420.2812 2409.04,-406.3543 2509,-389 2515.598,-387.8545 2522.5122,-386.5177 2529.3278,-385.1182"/>
<polygon fill="#191970" stroke="#191970" points="2530.1318,-388.5257 2539.1946,-383.0377 2528.6876,-381.6763 2530.1318,-388.5257"/>
</g>
<!-- Node64 -->
<g id="node38" class="node">
<title>Node64</title>
<g id="a_node38"><a xlink:href="SolidShapes_8h.html" target="_top" xlink:title="iDynTree/Model/SolidShapes.h">
<polygon fill="none" stroke="#000000" points="2076.5,-364 2076.5,-383 2239.5,-383 2239.5,-364 2076.5,-364"/>
<text text-anchor="middle" x="2158" y="-371" font-family="FreeSans.ttf" font-size="10.00" fill="#000000">iDynTree/Model/SolidShapes.h</text>
</a>
</g>
</g>
<!-- Node57&#45;&gt;Node64 -->
<g id="edge85" class="edge">
<title>Node57&#45;&gt;Node64</title>
<path fill="none" stroke="#191970" d="M2154.625,-425.3906C2155.1795,-416.8657 2156.0072,-404.1392 2156.7042,-393.4235"/>
<polygon fill="#191970" stroke="#191970" points="2160.2097,-393.451 2157.3662,-383.2449 2153.2244,-392.9966 2160.2097,-393.451"/>
</g>
<!-- Node65 -->
<g id="node39" class="node">
<title>Node65</title>
<polygon fill="none" stroke="#bfbfbf" points="2197.5,-302.5 2197.5,-321.5 2246.5,-321.5 2246.5,-302.5 2197.5,-302.5"/>
<text text-anchor="middle" x="2222" y="-309.5" font-family="FreeSans.ttf" font-size="10.00" fill="#000000">cstdlib</text>
</g>
<!-- Node57&#45;&gt;Node65 -->
<g id="edge90" class="edge">
<title>Node57&#45;&gt;Node65</title>
<path fill="none" stroke="#191970" d="M2196.5505,-425.4528C2216.076,-418.7153 2237.418,-407.4765 2249,-389 2260.681,-370.3656 2248.2643,-346.014 2236.6817,-329.7327"/>
<polygon fill="#191970" stroke="#191970" points="2239.3349,-327.4398 2230.4911,-321.6055 2233.7663,-331.6814 2239.3349,-327.4398"/>
</g>
<!-- Node58&#45;&gt;Node47 -->
<g id="edge80" class="edge">
<title>Node58&#45;&gt;Node47</title>
<path fill="none" stroke="#191970" d="M2421.625,-363.8906C2406.9069,-354.0519 2383.8168,-338.6167 2366.6411,-327.1351"/>
<polygon fill="#191970" stroke="#191970" points="2368.5327,-324.1896 2358.2741,-321.5419 2364.6425,-330.0091 2368.5327,-324.1896"/>
</g>
<!-- Node59&#45;&gt;Node47 -->
<g id="edge82" class="edge">
<title>Node59&#45;&gt;Node47</title>
<path fill="none" stroke="#191970" d="M2543.3839,-363.9581C2502.2189,-353.2308 2435.2899,-335.7895 2390.4709,-324.11"/>
<polygon fill="#191970" stroke="#191970" points="2391.2614,-320.6992 2380.702,-321.5643 2389.4962,-327.473 2391.2614,-320.6992"/>
</g>
<!-- Node64&#45;&gt;Node16 -->
<g id="edge87" class="edge">
<title>Node64&#45;&gt;Node16</title>
<path fill="none" stroke="#191970" d="M2150.3525,-363.9529C2135.24,-344.0916 2103,-296.3479 2103,-250.5 2103,-250.5 2103,-250.5 2103,-183.5 2103,-136.1437 2067.111,-131.5974 2024,-112 1960.4557,-83.1141 1748.686,-70.9756 1667.2716,-67.2998"/>
<polygon fill="#191970" stroke="#191970" points="1667.2627,-63.7961 1657.1191,-66.8551 1666.9563,-70.7894 1667.2627,-63.7961"/>
</g>
<!-- Node64&#45;&gt;Node39 -->
<g id="edge89" class="edge">
<title>Node64&#45;&gt;Node39</title>
<path fill="none" stroke="#191970" d="M2076.481,-370.3305C1924.6726,-364.0586 1588.1453,-348.4182 1294.2897,-322.0682"/>
<polygon fill="#191970" stroke="#191970" points="1294.5678,-318.5791 1284.2937,-321.1662 1293.9386,-325.5508 1294.5678,-318.5791"/>
</g>
<!-- Node64&#45;&gt;Node43 -->
<g id="edge88" class="edge">
<title>Node64&#45;&gt;Node43</title>
<path fill="none" stroke="#191970" d="M2117.35,-363.9581C2065.6619,-351.8252 1977.385,-331.1037 1929.416,-319.8438"/>
<polygon fill="#191970" stroke="#191970" points="1930.0735,-316.4031 1919.5382,-317.5252 1928.4738,-323.2179 1930.0735,-316.4031"/>
</g>
<!-- Node64&#45;&gt;Node65 -->
<g id="edge86" class="edge">
<title>Node64&#45;&gt;Node65</title>
<path fill="none" stroke="#191970" d="M2168,-363.8906C2177.7119,-354.5581 2192.6639,-340.1902 2204.3741,-328.9374"/>
<polygon fill="#191970" stroke="#191970" points="2207.0736,-331.1974 2211.859,-321.7449 2202.2234,-326.15 2207.0736,-331.1974"/>
</g>
<!-- Node68&#45;&gt;Node39 -->
<g id="edge102" class="edge">
<title>Node68&#45;&gt;Node39</title>
<path fill="none" stroke="#191970" d="M1334.8488,-481.4598C1256.6427,-456.6818 1053.1768,-391.9959 1051,-389 1025.3797,-353.7393 1076.8642,-333.9399 1128.0993,-323.279"/>
<polygon fill="#191970" stroke="#191970" points="1128.8479,-326.6989 1137.9816,-321.3299 1127.4933,-319.8312 1128.8479,-326.6989"/>
</g>
<!-- Node68&#45;&gt;Node44 -->
<g id="edge103" class="edge">
<title>Node68&#45;&gt;Node44</title>
<path fill="none" stroke="#191970" d="M1427.5164,-483.3893C1507.4274,-473.661 1646.2516,-456.7607 1736.8678,-445.7291"/>
<polygon fill="#191970" stroke="#191970" points="1737.346,-449.1968 1746.8498,-444.5139 1736.5,-442.2482 1737.346,-449.1968"/>
</g>
<!-- Node69&#45;&gt;Node5 -->
<g id="edge108" class="edge">
<title>Node69&#45;&gt;Node5</title>
<path fill="none" stroke="#191970" d="M1358.6526,-302.3355C1352.3111,-277.7537 1332.9171,-211.7047 1298,-168 1271.811,-135.22 1260.9714,-127.5442 1222,-112 1169.115,-90.9063 1013.9277,-77.0422 922.5203,-70.4592"/>
<polygon fill="#191970" stroke="#191970" points="922.7407,-66.9661 912.518,-69.7496 922.2452,-73.9486 922.7407,-66.9661"/>
</g>
<!-- Node69&#45;&gt;Node16 -->
<g id="edge105" class="edge">
<title>Node69&#45;&gt;Node16</title>
<path fill="none" stroke="#191970" d="M1402.1882,-302.477C1431.3174,-294.8408 1470.7635,-282.6439 1503,-266 1547.3097,-243.1227 1559.1769,-235.6431 1593,-199 1616.8376,-173.175 1625.2885,-165.7764 1635,-132 1639.3536,-116.8582 1639.0305,-98.9419 1637.7985,-85.5997"/>
<polygon fill="#191970" stroke="#191970" points="1641.2705,-85.1552 1636.6326,-75.6295 1634.3178,-85.9683 1641.2705,-85.1552"/>
</g>
<!-- Node69&#45;&gt;Node34 -->
<g id="edge107" class="edge">
<title>Node69&#45;&gt;Node34</title>
<path fill="none" stroke="#191970" d="M1376.625,-302.3906C1392.7698,-292.4616 1418.1822,-276.833 1436.9023,-265.3201"/>
<polygon fill="#191970" stroke="#191970" points="1438.8002,-268.2619 1445.4847,-260.0419 1435.1331,-262.2992 1438.8002,-268.2619"/>
</g>
<!-- Node69&#45;&gt;Node45 -->
<g id="edge106" class="edge">
<title>Node69&#45;&gt;Node45</title>
<path fill="none" stroke="#191970" d="M1335.9455,-302.4466C1276.4811,-279.7725 1126.731,-222.6719 1058.6509,-196.7126"/>
<polygon fill="#191970" stroke="#191970" points="1059.8102,-193.4089 1049.2194,-193.1163 1057.3162,-199.9495 1059.8102,-193.4089"/>
</g>
<!-- Node70&#45;&gt;Node4 -->
<g id="edge111" class="edge">
<title>Node70&#45;&gt;Node4</title>
<path fill="none" stroke="#191970" d="M167.5462,-537.4464C112.3583,-524.6959 38,-496.1669 38,-435 38,-435 38,-435 38,-373.5 38,-252.9586 104.1511,-215.3577 215,-168 345.6406,-112.1867 393.407,-146.4044 538.8637,-132.0632"/>
<polygon fill="#191970" stroke="#191970" points="539.4664,-135.5193 549.0471,-130.9961 538.7368,-128.5574 539.4664,-135.5193"/>
</g>
<!-- Node71&#45;&gt;Node16 -->
<g id="edge122" class="edge">
<title>Node71&#45;&gt;Node16</title>
<path fill="none" stroke="#191970" d="M2075.1801,-543.0749C2275.1847,-532.9961 2746,-502.14 2746,-435 2746,-435 2746,-435 2746,-183.5 2746,-143.9733 3056.9838,-188.6689 2401,-112 2117.9183,-78.9145 1773.0371,-69.0024 1667.3274,-66.638"/>
<polygon fill="#191970" stroke="#191970" points="1667.0899,-63.1322 1657.0164,-66.4147 1666.9382,-70.1305 1667.0899,-63.1322"/>
</g>
<!-- Node71&#45;&gt;Node43 -->
<g id="edge123" class="edge">
<title>Node71&#45;&gt;Node43</title>
<path fill="none" stroke="#191970" d="M1979.2312,-537.2709C1972.3608,-528.287 1962.4535,-514.353 1956,-501 1927.6132,-442.265 1908.3764,-366.9283 1900.297,-331.7482"/>
<polygon fill="#191970" stroke="#191970" points="1903.6716,-330.801 1898.0684,-321.8091 1896.8412,-332.3326 1903.6716,-330.801"/>
</g>
<!-- Node71&#45;&gt;Node57 -->
<g id="edge114" class="edge">
<title>Node71&#45;&gt;Node57</title>
<path fill="none" stroke="#191970" d="M2050.4281,-537.4435C2076.1061,-530.8417 2104.4719,-519.7166 2125,-501 2138.4133,-488.7703 2145.9362,-469.2146 2149.9379,-454.5588"/>
<polygon fill="#191970" stroke="#191970" points="2153.4194,-455.0498 2152.3508,-444.509 2146.6128,-453.4155 2153.4194,-455.0498"/>
</g>
<!-- Node72 -->
<g id="node46" class="node">
<title>Node72</title>
<g id="a_node46"><a xlink:href="Sensors_8h.html" target="_top" xlink:title="iDynTree/Sensors/Sensors.h">
<polygon fill="none" stroke="#ff0000" points="1964.5,-481.5 1964.5,-500.5 2115.5,-500.5 2115.5,-481.5 1964.5,-481.5"/>
<text text-anchor="middle" x="2040" y="-488.5" font-family="FreeSans.ttf" font-size="10.00" fill="#000000">iDynTree/Sensors/Sensors.h</text>
</a>
</g>
</g>
<!-- Node71&#45;&gt;Node72 -->
<g id="edge115" class="edge">
<title>Node71&#45;&gt;Node72</title>
<path fill="none" stroke="#191970" d="M1996.2319,-537.2455C2003.8317,-529.2155 2014.7877,-517.6394 2023.8368,-508.0781"/>
<polygon fill="#191970" stroke="#191970" points="2026.5421,-510.3115 2030.8739,-500.6427 2021.458,-505.4998 2026.5421,-510.3115"/>
</g>
<!-- Node73 -->
<g id="node47" class="node">
<title>Node73</title>
<polygon fill="none" stroke="#bfbfbf" points="1848,-481.5 1848,-500.5 1906,-500.5 1906,-481.5 1848,-481.5"/>
<text text-anchor="middle" x="1877" y="-488.5" font-family="FreeSans.ttf" font-size="10.00" fill="#000000">memory</text>
</g>
<!-- Node71&#45;&gt;Node73 -->
<g id="edge121" class="edge">
<title>Node71&#45;&gt;Node73</title>
<path fill="none" stroke="#191970" d="M1967.8395,-537.2455C1950.4889,-528.4125 1924.7099,-515.2887 1905.0417,-505.2758"/>
<polygon fill="#191970" stroke="#191970" points="1906.4405,-502.0605 1895.941,-500.6427 1903.2647,-508.2986 1906.4405,-502.0605"/>
</g>
<!-- Node72&#45;&gt;Node16 -->
<g id="edge116" class="edge">
<title>Node72&#45;&gt;Node16</title>
<path fill="none" stroke="#191970" d="M2115.7374,-488.8983C2208.4691,-485.0945 2369.8625,-474.4773 2505,-445 2598.4575,-424.6143 2708,-469.155 2708,-373.5 2708,-373.5 2708,-373.5 2708,-183.5 2708,-129.7833 1847.0333,-78.0204 1667.5448,-67.8129"/>
<polygon fill="#191970" stroke="#191970" points="1667.5929,-64.3101 1657.4111,-67.2397 1667.1975,-71.299 1667.5929,-64.3101"/>
</g>
<!-- Node72&#45;&gt;Node19 -->
<g id="edge118" class="edge">
<title>Node72&#45;&gt;Node19</title>
<path fill="none" stroke="#191970" d="M1964.3306,-484.7242C1948.0615,-483.4371 1930.9614,-482.1312 1915,-481 1656.0448,-462.6481 1590.0436,-473.4267 1332,-445 1292.6352,-440.6635 1009.1567,-415.8008 980,-389 964.2923,-374.5615 960.6388,-349.3913 960.2019,-331.7707"/>
<polygon fill="#191970" stroke="#191970" points="963.7022,-331.7297 960.2756,-321.7044 956.7024,-331.6785 963.7022,-331.7297"/>
</g>
<!-- Node72&#45;&gt;Node43 -->
<g id="edge117" class="edge">
<title>Node72&#45;&gt;Node43</title>
<path fill="none" stroke="#191970" d="M2034.4714,-481.4054C2021.1625,-458.7037 1985.6451,-400.4184 1948,-358 1938.4994,-347.2947 1926.6238,-336.6231 1916.6209,-328.2575"/>
<polygon fill="#191970" stroke="#191970" points="1918.709,-325.4437 1908.7522,-321.8226 1914.2776,-330.8625 1918.709,-325.4437"/>
</g>
<!-- Node72&#45;&gt;Node47 -->
<g id="edge120" class="edge">
<title>Node72&#45;&gt;Node47</title>
<path fill="none" stroke="#191970" d="M2115.76,-483.8031C2271.656,-468.2285 2616.6829,-429.5209 2651,-389 2659.9042,-378.4861 2659.9916,-368.4393 2651,-358 2636.2618,-340.8889 2509.2167,-326.465 2423.2465,-318.5447"/>
<polygon fill="#191970" stroke="#191970" points="2423.5134,-315.0546 2413.2375,-317.6347 2422.8795,-322.0258 2423.5134,-315.0546"/>
</g>
<!-- Node72&#45;&gt;Node57 -->
<g id="edge119" class="edge">
<title>Node72&#45;&gt;Node57</title>
<path fill="none" stroke="#191970" d="M2059.5973,-481.3733C2077.7331,-472.4644 2104.9135,-459.1127 2125.4587,-449.0203"/>
<polygon fill="#191970" stroke="#191970" points="2127.2261,-452.0517 2134.6584,-444.5011 2124.1397,-445.7688 2127.2261,-452.0517"/>
</g>
<!-- Node74&#45;&gt;Node4 -->
<g id="edge127" class="edge">
<title>Node74&#45;&gt;Node4</title>
<path fill="none" stroke="#191970" d="M248.1339,-363.9685C203.6123,-355.2105 146.9602,-340.7524 133,-322 112.8048,-294.8722 138.5127,-259.926 166,-235 228.6178,-178.2171 262.3056,-189.7095 344,-168 381.8713,-157.9361 479.6148,-143.079 550.3046,-132.9936"/>
<polygon fill="#191970" stroke="#191970" points="551.1193,-136.4131 560.5276,-131.5413 550.1347,-129.4827 551.1193,-136.4131"/>
</g>
<!-- Node74&#45;&gt;Node5 -->
<g id="edge134" class="edge">
<title>Node74&#45;&gt;Node5</title>
<path fill="none" stroke="#191970" d="M307.3003,-363.9343C311.5554,-348.396 322.1823,-317.8202 343,-302 402.0693,-257.1111 436.8335,-292.8364 506,-266 637.7512,-214.881 779.0183,-118.8701 831.6488,-81.4684"/>
<polygon fill="#191970" stroke="#191970" points="833.7763,-84.2498 839.8741,-75.5856 829.7042,-78.5561 833.7763,-84.2498"/>
</g>
<!-- Node74&#45;&gt;Node19 -->
<g id="edge126" class="edge">
<title>Node74&#45;&gt;Node19</title>
<path fill="none" stroke="#191970" d="M385.8307,-366.5594C493.3434,-357.229 689.6007,-339.8539 867.2165,-322.1664"/>
<polygon fill="#191970" stroke="#191970" points="867.6666,-325.639 877.2695,-321.163 866.9713,-318.6736 867.6666,-325.639"/>
</g>
<!-- Node74&#45;&gt;Node20 -->
<g id="edge128" class="edge">
<title>Node74&#45;&gt;Node20</title>
<path fill="none" stroke="#191970" d="M385.7461,-370.0877C619.664,-360.1632 1289.4186,-331.4573 1428.2767,-321.9652"/>
<polygon fill="#191970" stroke="#191970" points="1428.6486,-325.4475 1438.3708,-321.237 1428.1449,-318.4657 1428.6486,-325.4475"/>
</g>
<!-- Node74&#45;&gt;Node22 -->
<g id="edge130" class="edge">
<title>Node74&#45;&gt;Node22</title>
<path fill="none" stroke="#191970" d="M302.7999,-363.7119C300.0652,-348.9343 297.1868,-320.674 310,-302 319.8233,-287.6834 334.7073,-277.2486 350.3802,-269.6796"/>
<polygon fill="#191970" stroke="#191970" points="351.954,-272.8102 359.667,-265.5466 349.1078,-266.4149 351.954,-272.8102"/>
</g>
<!-- Node74&#45;&gt;Node39 -->
<g id="edge133" class="edge">
<title>Node74&#45;&gt;Node39</title>
<path fill="none" stroke="#191970" d="M385.7997,-368.0153C556.9558,-356.397 954.5162,-329.4103 1127.782,-317.6489"/>
<polygon fill="#191970" stroke="#191970" points="1128.1259,-321.1337 1137.8659,-316.9644 1127.6518,-314.1498 1128.1259,-321.1337"/>
</g>
<!-- Node74&#45;&gt;Node28 -->
<g id="edge129" class="edge">
<title>Node74&#45;&gt;Node28</title>
<path fill="none" stroke="#191970" d="M227.4206,-363.9668C176.2678,-355.9037 115.8813,-342.3645 100,-322 57.9094,-268.0276 54.8563,-219.446 100,-168 116.9571,-148.6756 261.7038,-134.9606 359.9423,-127.778"/>
<polygon fill="#191970" stroke="#191970" points="360.4669,-131.2494 370.1896,-127.0401 359.964,-124.2675 360.4669,-131.2494"/>
</g>
<!-- Node75 -->
<g id="node49" class="node">
<title>Node75</title>
<polygon fill="none" stroke="#bfbfbf" points="142.5,-302.5 142.5,-321.5 219.5,-321.5 219.5,-302.5 142.5,-302.5"/>
<text text-anchor="middle" x="181" y="-309.5" font-family="FreeSans.ttf" font-size="10.00" fill="#000000">Eigen/Dense</text>
</g>
<!-- Node74&#45;&gt;Node75 -->
<g id="edge125" class="edge">
<title>Node74&#45;&gt;Node75</title>
<path fill="none" stroke="#191970" d="M285.625,-363.8906C265.1505,-353.7359 232.6558,-337.6196 209.3115,-326.0416"/>
<polygon fill="#191970" stroke="#191970" points="210.7528,-322.8496 200.2389,-321.5419 207.6425,-329.1207 210.7528,-322.8496"/>
</g>
<!-- Node52 -->
<g id="node50" class="node">
<title>Node52</title>
<g id="a_node50"><a xlink:href="SpatialForceVector_8h.html" target="_top" xlink:title="iDynTree/Core/SpatialForce\lVector.h">
<polygon fill="none" stroke="#ff0000" points="175,-235.5 175,-265.5 323,-265.5 323,-235.5 175,-235.5"/>
<text text-anchor="start" x="183" y="-253.5" font-family="FreeSans.ttf" font-size="10.00" fill="#000000">iDynTree/Core/SpatialForce</text>
<text text-anchor="middle" x="249" y="-242.5" font-family="FreeSans.ttf" font-size="10.00" fill="#000000">Vector.h</text>
</a>
</g>
</g>
<!-- Node74&#45;&gt;Node52 -->
<g id="edge131" class="edge">
<title>Node74&#45;&gt;Node52</title>
<path fill="none" stroke="#191970" d="M297.6152,-363.6886C290.3246,-353.6434 279.2453,-337.3682 272,-322 264.999,-307.1499 259.321,-289.6119 255.3582,-275.6221"/>
<polygon fill="#191970" stroke="#191970" points="258.6673,-274.452 252.6686,-265.7189 251.912,-276.2867 258.6673,-274.452"/>
</g>
<!-- Node52&#45;&gt;Node4 -->
<g id="edge132" class="edge">
<title>Node52&#45;&gt;Node4</title>
<path fill="none" stroke="#191970" d="M275.4164,-235.3404C308.324,-217.0302 366.7236,-186.4021 420,-168 465.1378,-152.4091 517.6145,-140.9119 558.8184,-133.3111"/>
<polygon fill="#191970" stroke="#191970" points="559.5532,-136.7351 568.7701,-131.5104 558.3067,-129.8469 559.5532,-136.7351"/>
</g>
</g>
</svg>
