<?xml version="1.0" encoding="UTF-8" standalone="no"?>
<!DOCTYPE svg PUBLIC "-//W3C//DTD SVG 1.1//EN"
 "http://www.w3.org/Graphics/SVG/1.1/DTD/svg11.dtd">
<!-- Generated by graphviz version 2.40.1 (20161225.0304)
 -->
<!-- Title: urdf2dh.cpp Pages: 1 -->
<svg width="3111pt" height="643pt"
 viewBox="0.00 0.00 3111.26 643.00" xmlns="http://www.w3.org/2000/svg" xmlns:xlink="http://www.w3.org/1999/xlink">
<g id="graph0" class="graph" transform="scale(1 1) rotate(0) translate(4 639)">
<title>urdf2dh.cpp</title>
<!-- Node0 -->
<g id="node1" class="node">
<title>Node0</title>
<polygon fill="#bfbfbf" stroke="#000000" points="1864,-615.5 1864,-634.5 1938,-634.5 1938,-615.5 1864,-615.5"/>
<text text-anchor="middle" x="1901" y="-622.5" font-family="FreeSans.ttf" font-size="10.00" fill="#000000">urdf2dh.cpp</text>
</g>
<!-- Node1 -->
<g id="node2" class="node">
<title>Node1</title>
<polygon fill="none" stroke="#bfbfbf" points="608,-168.5 608,-187.5 668,-187.5 668,-168.5 608,-168.5"/>
<text text-anchor="middle" x="638" y="-175.5" font-family="FreeSans.ttf" font-size="10.00" fill="#000000">iostream</text>
</g>
<!-- Node0&#45;&gt;Node1 -->
<g id="edge1" class="edge">
<title>Node0&#45;&gt;Node1</title>
<path fill="none" stroke="#191970" d="M1863.7179,-624.6129C1604.0661,-621.6794 76,-600.4669 76,-507.5 76,-507.5 76,-507.5 76,-440.5 76,-369.5471 78.4729,-337.5744 132,-291 202.3985,-229.7456 490.6995,-193.5874 597.7437,-182.0559"/>
<polygon fill="#191970" stroke="#191970" points="598.2452,-185.5224 607.8196,-180.9858 597.5059,-178.5615 598.2452,-185.5224"/>
</g>
<!-- Node2 -->
<g id="node3" class="node">
<title>Node2</title>
<polygon fill="none" stroke="#bfbfbf" points="1409.5,-559.5 1409.5,-578.5 1464.5,-578.5 1464.5,-559.5 1409.5,-559.5"/>
<text text-anchor="middle" x="1437" y="-566.5" font-family="FreeSans.ttf" font-size="10.00" fill="#000000">fstream</text>
</g>
<!-- Node0&#45;&gt;Node2 -->
<g id="edge2" class="edge">
<title>Node0&#45;&gt;Node2</title>
<path fill="none" stroke="#191970" d="M1863.8085,-622.518C1790.0245,-617.2481 1620.0663,-603.3834 1479,-579 1477.7121,-578.7774 1476.4047,-578.5387 1475.0866,-578.2872"/>
<polygon fill="#191970" stroke="#191970" points="1475.4179,-574.7808 1464.9134,-576.1608 1473.9857,-581.6328 1475.4179,-574.7808"/>
</g>
<!-- Node3 -->
<g id="node4" class="node">
<title>Node3</title>
<g id="a_node4"><a xlink:href="TestUtils_8h.html" target="_top" xlink:title="iDynTree/Core/TestUtils.h">
<polygon fill="none" stroke="#000000" points="1287.5,-364 1287.5,-383 1426.5,-383 1426.5,-364 1287.5,-364"/>
<text text-anchor="middle" x="1357" y="-371" font-family="FreeSans.ttf" font-size="10.00" fill="#000000">iDynTree/Core/TestUtils.h</text>
</a>
</g>
</g>
<!-- Node0&#45;&gt;Node3 -->
<g id="edge3" class="edge">
<title>Node0&#45;&gt;Node3</title>
<path fill="none" stroke="#191970" d="M1872.4995,-615.4761C1823.7386,-598.837 1721.5757,-562.465 1639,-523 1559.9662,-485.2278 1545.802,-465.2483 1468,-425 1441.5374,-411.3105 1410.7553,-397.1637 1388.3286,-387.1694"/>
<polygon fill="#191970" stroke="#191970" points="1389.5229,-383.8704 1378.9623,-383.0201 1386.6877,-390.2706 1389.5229,-383.8704"/>
</g>
<!-- Node13 -->
<g id="node14" class="node">
<title>Node13</title>
<g id="a_node14"><a xlink:href="DenavitHartenberg_8h.html" target="_top" xlink:title="iDynTree/Model/DenavitHartenberg.h">
<polygon fill="none" stroke="#000000" points="1863.5,-498 1863.5,-517 2060.5,-517 2060.5,-498 1863.5,-498"/>
<text text-anchor="middle" x="1962" y="-505" font-family="FreeSans.ttf" font-size="10.00" fill="#000000">iDynTree/Model/DenavitHartenberg.h</text>
</a>
</g>
</g>
<!-- Node0&#45;&gt;Node13 -->
<g id="edge15" class="edge">
<title>Node0&#45;&gt;Node13</title>
<path fill="none" stroke="#191970" d="M1905.9919,-615.3845C1916.09,-595.9331 1939.0984,-551.6138 1952.2679,-526.2462"/>
<polygon fill="#191970" stroke="#191970" points="1955.4378,-527.7363 1956.9391,-517.2484 1949.2252,-524.511 1955.4378,-527.7363"/>
</g>
<!-- Node59 -->
<g id="node29" class="node">
<title>Node59</title>
<g id="a_node29"><a xlink:href="ModelTestUtils_8h.html" target="_top" xlink:title="iDynTree/Model/ModelTest\lUtils.h">
<polygon fill="none" stroke="#000000" points="1647.5,-492.5 1647.5,-522.5 1790.5,-522.5 1790.5,-492.5 1647.5,-492.5"/>
<text text-anchor="start" x="1655.5" y="-510.5" font-family="FreeSans.ttf" font-size="10.00" fill="#000000">iDynTree/Model/ModelTest</text>
<text text-anchor="middle" x="1719" y="-499.5" font-family="FreeSans.ttf" font-size="10.00" fill="#000000">Utils.h</text>
</a>
</g>
</g>
<!-- Node0&#45;&gt;Node59 -->
<g id="edge57" class="edge">
<title>Node0&#45;&gt;Node59</title>
<path fill="none" stroke="#191970" d="M1886.1062,-615.3845C1856.6664,-596.378 1790.4496,-553.6282 1750.7781,-528.0161"/>
<polygon fill="#191970" stroke="#191970" points="1752.5595,-525.0002 1742.2599,-522.5167 1748.7628,-530.8811 1752.5595,-525.0002"/>
</g>
<!-- Node70 -->
<g id="node43" class="node">
<title>Node70</title>
<g id="a_node43"><a xlink:href="ModelLoader_8h.html" target="_top" xlink:title="iDynTree/ModelIO/ModelLoader.h">
<polygon fill="none" stroke="#000000" points="2326,-559.5 2326,-578.5 2502,-578.5 2502,-559.5 2326,-559.5"/>
<text text-anchor="middle" x="2414" y="-566.5" font-family="FreeSans.ttf" font-size="10.00" fill="#000000">iDynTree/ModelIO/ModelLoader.h</text>
</a>
</g>
</g>
<!-- Node0&#45;&gt;Node70 -->
<g id="edge102" class="edge">
<title>Node0&#45;&gt;Node70</title>
<path fill="none" stroke="#191970" d="M1938.3069,-620.9275C2016.9768,-612.3398 2202.0505,-592.1368 2316.7732,-579.6134"/>
<polygon fill="#191970" stroke="#191970" points="2317.4024,-583.0657 2326.9635,-578.5011 2316.6427,-576.107 2317.4024,-583.0657"/>
</g>
<!-- Node73 -->
<g id="node46" class="node">
<title>Node73</title>
<g id="a_node46"><a xlink:href="KinDynComputations_8h.html" target="_top" xlink:title="iDynTree/KinDynComputations.h">
<polygon fill="none" stroke="#000000" points="1066.5,-431 1066.5,-450 1241.5,-450 1241.5,-431 1066.5,-431"/>
<text text-anchor="middle" x="1154" y="-438" font-family="FreeSans.ttf" font-size="10.00" fill="#000000">iDynTree/KinDynComputations.h</text>
</a>
</g>
</g>
<!-- Node0&#45;&gt;Node73 -->
<g id="edge114" class="edge">
<title>Node0&#45;&gt;Node73</title>
<path fill="none" stroke="#191970" d="M1863.8204,-622.0096C1780.6538,-615.0837 1581.8197,-597.1437 1517,-579 1496.3141,-573.2098 1492.8585,-567.1897 1473,-559 1372.5787,-517.5861 1251.8546,-474.5341 1191.7921,-453.5597"/>
<polygon fill="#191970" stroke="#191970" points="1192.5876,-450.1306 1181.9928,-450.1458 1190.2846,-456.7409 1192.5876,-450.1306"/>
</g>
<!-- Node75 -->
<g id="node48" class="node">
<title>Node75</title>
<g id="a_node48"><a xlink:href="iKinConversions_8h.html" target="_top" xlink:title="iDynTree/iKinConversions.h">
<polygon fill="none" stroke="#000000" points="2791,-559.5 2791,-578.5 2941,-578.5 2941,-559.5 2791,-559.5"/>
<text text-anchor="middle" x="2866" y="-566.5" font-family="FreeSans.ttf" font-size="10.00" fill="#000000">iDynTree/iKinConversions.h</text>
</a>
</g>
</g>
<!-- Node0&#45;&gt;Node75 -->
<g id="edge124" class="edge">
<title>Node0&#45;&gt;Node75</title>
<path fill="none" stroke="#191970" d="M1938.395,-622.8741C2052.455,-616.3834 2406.0034,-596.2171 2699,-579 2725.493,-577.4432 2754.3486,-575.7238 2780.5053,-574.1562"/>
<polygon fill="#191970" stroke="#191970" points="2780.9947,-577.6332 2790.7672,-573.5407 2780.5755,-570.6458 2780.9947,-577.6332"/>
</g>
<!-- Node76 -->
<g id="node49" class="node">
<title>Node76</title>
<polygon fill="none" stroke="#bfbfbf" points="2861,-498 2861,-517 2971,-517 2971,-498 2861,-498"/>
<text text-anchor="middle" x="2916" y="-505" font-family="FreeSans.ttf" font-size="10.00" fill="#000000">iCub/iKin/iKinFwd.h</text>
</g>
<!-- Node0&#45;&gt;Node76 -->
<g id="edge127" class="edge">
<title>Node0&#45;&gt;Node76</title>
<path fill="none" stroke="#191970" d="M1938.2479,-623.359C2033.7165,-618.9001 2294.854,-605.1084 2511,-579 2661.3007,-560.8451 2698.4194,-552.0466 2847,-523 2852.8666,-521.8531 2858.9976,-520.5818 2865.08,-519.2749"/>
<polygon fill="#191970" stroke="#191970" points="2866.1945,-522.614 2875.2154,-517.0576 2864.6984,-515.7757 2866.1945,-522.614"/>
</g>
<!-- Node77 -->
<g id="node50" class="node">
<title>Node77</title>
<polygon fill="none" stroke="#bfbfbf" points="2959,-559.5 2959,-578.5 3063,-578.5 3063,-559.5 2959,-559.5"/>
<text text-anchor="middle" x="3011" y="-566.5" font-family="FreeSans.ttf" font-size="10.00" fill="#000000">yarp/os/Property.h</text>
</g>
<!-- Node0&#45;&gt;Node77 -->
<g id="edge128" class="edge">
<title>Node0&#45;&gt;Node77</title>
<path fill="none" stroke="#191970" d="M1938.1737,-623.9629C2097.9064,-619.4166 2727.4918,-600.5558 2948.5948,-579.0019"/>
<polygon fill="#191970" stroke="#191970" points="2949.2121,-582.4575 2958.8112,-577.9735 2948.511,-575.4927 2949.2121,-582.4575"/>
</g>
<!-- Node3&#45;&gt;Node1 -->
<g id="edge10" class="edge">
<title>Node3&#45;&gt;Node1</title>
<path fill="none" stroke="#191970" d="M1350.3235,-363.7346C1337.4042,-345.7401 1307.0585,-307.6678 1271,-291 1127.4494,-224.6448 1069.5266,-296.7782 917,-255 885.3549,-246.3322 881.1221,-234.3904 850,-224 777.5683,-199.818 756.5662,-204.462 682,-188 680.7522,-187.7245 679.4847,-187.4435 678.2052,-187.1589"/>
<polygon fill="#191970" stroke="#191970" points="678.8091,-183.7075 668.2856,-184.9349 677.2776,-190.5379 678.8091,-183.7075"/>
</g>
<!-- Node4 -->
<g id="node5" class="node">
<title>Node4</title>
<g id="a_node5"><a xlink:href="MatrixDynSize_8h.html" target="_top" xlink:title="iDynTree/Core/MatrixDynSize.h">
<polygon fill="none" stroke="#000000" points="1095.5,-297 1095.5,-316 1262.5,-316 1262.5,-297 1095.5,-297"/>
<text text-anchor="middle" x="1179" y="-304" font-family="FreeSans.ttf" font-size="10.00" fill="#000000">iDynTree/Core/MatrixDynSize.h</text>
</a>
</g>
</g>
<!-- Node3&#45;&gt;Node4 -->
<g id="edge4" class="edge">
<title>Node3&#45;&gt;Node4</title>
<path fill="none" stroke="#191970" d="M1331.4969,-363.9005C1300.6993,-352.3082 1248.735,-332.7486 1214.1519,-319.7313"/>
<polygon fill="#191970" stroke="#191970" points="1215.0477,-316.3288 1204.4558,-316.0817 1212.5817,-322.8801 1215.0477,-316.3288"/>
</g>
<!-- Node5 -->
<g id="node6" class="node">
<title>Node5</title>
<polygon fill="none" stroke="#bfbfbf" points="1562,-56.5 1562,-75.5 1606,-75.5 1606,-56.5 1562,-56.5"/>
<text text-anchor="middle" x="1584" y="-63.5" font-family="FreeSans.ttf" font-size="10.00" fill="#000000">string</text>
</g>
<!-- Node3&#45;&gt;Node5 -->
<g id="edge11" class="edge">
<title>Node3&#45;&gt;Node5</title>
<path fill="none" stroke="#191970" d="M1415.1548,-363.9658C1440.7536,-356.7432 1468.8481,-344.0975 1486,-322 1528.3197,-267.4776 1479.6961,-231.8103 1506,-168 1519.9758,-134.0962 1548.1973,-101.6476 1566.5857,-82.7832"/>
<polygon fill="#191970" stroke="#191970" points="1569.2042,-85.1143 1573.7943,-75.5654 1564.2513,-80.1677 1569.2042,-85.1143"/>
</g>
<!-- Node6 -->
<g id="node7" class="node">
<title>Node6</title>
<g id="a_node7"><a xlink:href="Utils_8h.html" target="_top" xlink:title="iDynTree/Core/Utils.h">
<polygon fill="none" stroke="#000000" points="520.5,-56.5 520.5,-75.5 639.5,-75.5 639.5,-56.5 520.5,-56.5"/>
<text text-anchor="middle" x="580" y="-63.5" font-family="FreeSans.ttf" font-size="10.00" fill="#000000">iDynTree/Core/Utils.h</text>
</a>
</g>
</g>
<!-- Node3&#45;&gt;Node6 -->
<g id="edge6" class="edge">
<title>Node3&#45;&gt;Node6</title>
<path fill="none" stroke="#191970" d="M1287.4243,-364.0826C1271.8264,-362.0271 1255.3528,-359.8997 1240,-358 1101.0316,-340.8043 1057.5737,-372.5808 927,-322 905.031,-313.4898 903.8284,-303.7239 884,-291 833.243,-258.4291 822.3495,-245.4912 766,-224 695.0573,-196.9431 651.1142,-243.2182 599,-188 572.9949,-160.4459 573.842,-112.7836 576.8587,-85.9145"/>
<polygon fill="#191970" stroke="#191970" points="580.3559,-86.1672 578.2124,-75.7915 573.4177,-85.2393 580.3559,-86.1672"/>
</g>
<!-- Node8 -->
<g id="node9" class="node">
<title>Node8</title>
<polygon fill="none" stroke="#bfbfbf" points="355,-.5 355,-19.5 419,-19.5 419,-.5 355,-.5"/>
<text text-anchor="middle" x="387" y="-7.5" font-family="FreeSans.ttf" font-size="10.00" fill="#000000">algorithm</text>
</g>
<!-- Node3&#45;&gt;Node8 -->
<g id="edge8" class="edge">
<title>Node3&#45;&gt;Node8</title>
<path fill="none" stroke="#191970" d="M1287.7531,-363.966C1272.0626,-361.906 1255.4673,-359.8062 1240,-358 1082.0441,-339.5551 1030.1111,-384.784 884,-322 864.6005,-313.664 866.3285,-301.4829 848,-291 824.2094,-277.3931 399.8905,-151.8567 381,-132 357.208,-106.9911 357.3643,-89.6631 365,-56 367.144,-46.548 371.478,-36.7672 375.7367,-28.6675"/>
<polygon fill="#191970" stroke="#191970" points="378.8961,-30.1895 380.7417,-19.7567 372.7929,-26.7615 378.8961,-30.1895"/>
</g>
<!-- Node9 -->
<g id="node10" class="node">
<title>Node9</title>
<polygon fill="none" stroke="#bfbfbf" points="1356,-297 1356,-316 1412,-316 1412,-297 1356,-297"/>
<text text-anchor="middle" x="1384" y="-304" font-family="FreeSans.ttf" font-size="10.00" fill="#000000">iomanip</text>
</g>
<!-- Node3&#45;&gt;Node9 -->
<g id="edge9" class="edge">
<title>Node3&#45;&gt;Node9</title>
<path fill="none" stroke="#191970" d="M1360.8684,-363.9005C1364.8784,-353.95 1371.2539,-338.1292 1376.297,-325.6147"/>
<polygon fill="#191970" stroke="#191970" points="1379.6472,-326.6651 1380.1387,-316.0817 1373.1546,-324.0486 1379.6472,-326.6651"/>
</g>
<!-- Node10 -->
<g id="node11" class="node">
<title>Node10</title>
<polygon fill="none" stroke="#bfbfbf" points="1986.5,-297 1986.5,-316 2033.5,-316 2033.5,-297 1986.5,-297"/>
<text text-anchor="middle" x="2010" y="-304" font-family="FreeSans.ttf" font-size="10.00" fill="#000000">vector</text>
</g>
<!-- Node3&#45;&gt;Node10 -->
<g id="edge12" class="edge">
<title>Node3&#45;&gt;Node10</title>
<path fill="none" stroke="#191970" d="M1426.5731,-366.3616C1565.7508,-352.0815 1873.8695,-320.4675 1976.2152,-309.9664"/>
<polygon fill="#191970" stroke="#191970" points="1976.7008,-313.4351 1986.2913,-308.9326 1975.9863,-306.4716 1976.7008,-313.4351"/>
</g>
<!-- Node11 -->
<g id="node12" class="node">
<title>Node11</title>
<polygon fill="none" stroke="#bfbfbf" points="2418.5,-297 2418.5,-316 2467.5,-316 2467.5,-297 2418.5,-297"/>
<text text-anchor="middle" x="2443" y="-304" font-family="FreeSans.ttf" font-size="10.00" fill="#000000">cstdlib</text>
</g>
<!-- Node3&#45;&gt;Node11 -->
<g id="edge13" class="edge">
<title>Node3&#45;&gt;Node11</title>
<path fill="none" stroke="#191970" d="M1426.6553,-369.6733C1574.255,-361.4991 1929.3752,-341.4869 2227,-322 2290.9825,-317.8108 2365.5802,-312.324 2408.2526,-309.1279"/>
<polygon fill="#191970" stroke="#191970" points="2408.678,-312.6059 2418.3878,-308.3668 2408.1538,-305.6255 2408.678,-312.6059"/>
</g>
<!-- Node12 -->
<g id="node13" class="node">
<title>Node12</title>
<polygon fill="none" stroke="#bfbfbf" points="1430.5,-297 1430.5,-316 1477.5,-316 1477.5,-297 1430.5,-297"/>
<text text-anchor="middle" x="1454" y="-304" font-family="FreeSans.ttf" font-size="10.00" fill="#000000">cmath</text>
</g>
<!-- Node3&#45;&gt;Node12 -->
<g id="edge14" class="edge">
<title>Node3&#45;&gt;Node12</title>
<path fill="none" stroke="#191970" d="M1370.8977,-363.9005C1386.8164,-352.9052 1413.1121,-334.7422 1431.8599,-321.7927"/>
<polygon fill="#191970" stroke="#191970" points="1433.8892,-324.6448 1440.128,-316.0817 1429.9108,-318.8852 1433.8892,-324.6448"/>
</g>
<!-- Node4&#45;&gt;Node5 -->
<g id="edge5" class="edge">
<title>Node4&#45;&gt;Node5</title>
<path fill="none" stroke="#191970" d="M1188.6796,-296.8875C1220.6028,-265.6945 1326.5433,-166.1853 1432,-112 1470.9975,-91.9625 1520.1981,-79.0689 1551.8777,-72.1758"/>
<polygon fill="#191970" stroke="#191970" points="1552.8437,-75.5493 1561.9095,-70.0665 1551.4033,-68.6991 1552.8437,-75.5493"/>
</g>
<!-- Node7 -->
<g id="node8" class="node">
<title>Node7</title>
<polygon fill="none" stroke="#bfbfbf" points="445.5,-.5 445.5,-19.5 498.5,-19.5 498.5,-.5 445.5,-.5"/>
<text text-anchor="middle" x="472" y="-7.5" font-family="FreeSans.ttf" font-size="10.00" fill="#000000">cstddef</text>
</g>
<!-- Node6&#45;&gt;Node7 -->
<g id="edge7" class="edge">
<title>Node6&#45;&gt;Node7</title>
<path fill="none" stroke="#191970" d="M561.1878,-56.2455C544.1527,-47.4125 518.8425,-34.2887 499.5319,-24.2758"/>
<polygon fill="#191970" stroke="#191970" points="501.0853,-21.1388 490.5966,-19.6427 497.863,-27.353 501.0853,-21.1388"/>
</g>
<!-- Node13&#45;&gt;Node10 -->
<g id="edge56" class="edge">
<title>Node13&#45;&gt;Node10</title>
<path fill="none" stroke="#191970" d="M1951.0632,-497.9076C1924.4882,-473.4221 1860.9797,-407.0795 1893,-358 1895.4971,-354.1725 1943.2306,-333.9447 1976.9463,-320.0091"/>
<polygon fill="#191970" stroke="#191970" points="1978.5511,-323.1334 1986.464,-316.088 1975.8847,-316.6611 1978.5511,-323.1334"/>
</g>
<!-- Node14 -->
<g id="node15" class="node">
<title>Node14</title>
<g id="a_node15"><a xlink:href="Indices_8h.html" target="_top" xlink:title="iDynTree/Model/Indices.h">
<polygon fill="none" stroke="#000000" points="1993,-230 1993,-249 2131,-249 2131,-230 1993,-230"/>
<text text-anchor="middle" x="2062" y="-237" font-family="FreeSans.ttf" font-size="10.00" fill="#000000">iDynTree/Model/Indices.h</text>
</a>
</g>
</g>
<!-- Node13&#45;&gt;Node14 -->
<g id="edge16" class="edge">
<title>Node13&#45;&gt;Node14</title>
<path fill="none" stroke="#191970" d="M2060.6386,-500.924C2270.4357,-485.8866 2745.4938,-445.8496 2790,-389 2846.256,-317.1419 2752.0826,-315.1627 2676,-291 2578.4895,-260.0322 2283.8949,-246.5898 2141.1816,-241.7724"/>
<polygon fill="#191970" stroke="#191970" points="2141.2842,-238.274 2131.1736,-241.4403 2141.052,-245.2701 2141.2842,-238.274"/>
</g>
<!-- Node15 -->
<g id="node16" class="node">
<title>Node15</title>
<g id="a_node16"><a xlink:href="Model_8h.html" target="_top" xlink:title="iDynTree/Model/Model.h">
<polygon fill="none" stroke="#000000" points="2376.5,-431 2376.5,-450 2509.5,-450 2509.5,-431 2376.5,-431"/>
<text text-anchor="middle" x="2443" y="-438" font-family="FreeSans.ttf" font-size="10.00" fill="#000000">iDynTree/Model/Model.h</text>
</a>
</g>
</g>
<!-- Node13&#45;&gt;Node15 -->
<g id="edge18" class="edge">
<title>Node13&#45;&gt;Node15</title>
<path fill="none" stroke="#191970" d="M2030.4048,-497.9717C2119.1529,-485.6097 2273.5579,-464.1021 2366.2242,-451.1943"/>
<polygon fill="#191970" stroke="#191970" points="2366.9571,-454.6261 2376.3786,-449.7799 2365.9913,-447.6931 2366.9571,-454.6261"/>
</g>
<!-- Node56 -->
<g id="node19" class="node">
<title>Node56</title>
<g id="a_node19"><a xlink:href="Transform_8h.html" target="_top" xlink:title="iDynTree/Core/Transform.h">
<polygon fill="none" stroke="#000000" points="1534,-297 1534,-316 1680,-316 1680,-297 1534,-297"/>
<text text-anchor="middle" x="1607" y="-304" font-family="FreeSans.ttf" font-size="10.00" fill="#000000">iDynTree/Core/Transform.h</text>
</a>
</g>
</g>
<!-- Node13&#45;&gt;Node56 -->
<g id="edge55" class="edge">
<title>Node13&#45;&gt;Node56</title>
<path fill="none" stroke="#191970" d="M1863.0742,-498.3815C1770.0047,-488.8454 1642.5019,-472.9312 1626,-456 1592.0223,-421.1384 1597.3983,-357.9791 1602.8716,-326.0715"/>
<polygon fill="#191970" stroke="#191970" points="1606.3217,-326.6635 1604.7473,-316.1863 1599.4444,-325.3585 1606.3217,-326.6635"/>
</g>
<!-- Node14&#45;&gt;Node5 -->
<g id="edge17" class="edge">
<title>Node14&#45;&gt;Node5</title>
<path fill="none" stroke="#191970" d="M2046.6572,-229.9296C2008.1646,-206.3359 1903.7868,-144.916 1809,-112 1742.5412,-88.9213 1660.8039,-75.8033 1616.4233,-69.8793"/>
<polygon fill="#191970" stroke="#191970" points="1616.6038,-66.3735 1606.2369,-68.5591 1615.7041,-73.3154 1616.6038,-66.3735"/>
</g>
<!-- Node15&#45;&gt;Node10 -->
<g id="edge54" class="edge">
<title>Node15&#45;&gt;Node10</title>
<path fill="none" stroke="#191970" d="M2419.7465,-430.8966C2369.9877,-410.3827 2256.2203,-363.6837 2238,-358 2228.6846,-355.0941 2104.6231,-327.4746 2043.5275,-313.9245"/>
<polygon fill="#191970" stroke="#191970" points="2044.1112,-310.469 2033.5907,-311.7216 2042.5961,-317.3031 2044.1112,-310.469"/>
</g>
<!-- Node15&#45;&gt;Node11 -->
<g id="edge53" class="edge">
<title>Node15&#45;&gt;Node11</title>
<path fill="none" stroke="#191970" d="M2484.6355,-430.9846C2529.4495,-418.6576 2591.2604,-394.3455 2567,-358 2547.2905,-328.4723 2507.1459,-315.8505 2477.8559,-310.47"/>
<polygon fill="#191970" stroke="#191970" points="2478.0473,-306.955 2467.6139,-308.7974 2476.9191,-313.8634 2478.0473,-306.955"/>
</g>
<!-- Node15&#45;&gt;Node14 -->
<g id="edge47" class="edge">
<title>Node15&#45;&gt;Node14</title>
<path fill="none" stroke="#191970" d="M2496.9379,-430.9703C2545.0238,-419.7386 2604.7137,-397.4122 2583,-358 2556.1061,-309.1851 2529.4759,-309.7736 2477,-291 2416.964,-269.5217 2243.9388,-253.2722 2141.2403,-245.1877"/>
<polygon fill="#191970" stroke="#191970" points="2141.4632,-241.6946 2131.2216,-244.4074 2140.9195,-248.6734 2141.4632,-241.6946"/>
</g>
<!-- Node16 -->
<g id="node17" class="node">
<title>Node16</title>
<g id="a_node17"><a xlink:href="IJoint_8h.html" target="_top" xlink:title="iDynTree/Model/IJoint.h">
<polygon fill="none" stroke="#000000" points="2090,-297 2090,-316 2218,-316 2218,-297 2090,-297"/>
<text text-anchor="middle" x="2154" y="-304" font-family="FreeSans.ttf" font-size="10.00" fill="#000000">iDynTree/Model/IJoint.h</text>
</a>
</g>
</g>
<!-- Node15&#45;&gt;Node16 -->
<g id="edge19" class="edge">
<title>Node15&#45;&gt;Node16</title>
<path fill="none" stroke="#191970" d="M2468.394,-430.8906C2503.389,-416.273 2559.3939,-387.0676 2534,-358 2514.236,-335.3768 2333.4508,-319.0545 2228.5209,-311.3938"/>
<polygon fill="#191970" stroke="#191970" points="2228.5253,-307.8852 2218.2996,-310.6574 2228.0222,-314.8671 2228.5253,-307.8852"/>
</g>
<!-- Node17 -->
<g id="node18" class="node">
<title>Node17</title>
<g id="a_node18"><a xlink:href="Link_8h.html" target="_top" xlink:title="iDynTree/Model/Link.h">
<polygon fill="none" stroke="#ff0000" points="2657,-364 2657,-383 2781,-383 2781,-364 2657,-364"/>
<text text-anchor="middle" x="2719" y="-371" font-family="FreeSans.ttf" font-size="10.00" fill="#000000">iDynTree/Model/Link.h</text>
</a>
</g>
</g>
<!-- Node15&#45;&gt;Node17 -->
<g id="edge21" class="edge">
<title>Node15&#45;&gt;Node17</title>
<path fill="none" stroke="#191970" d="M2482.251,-430.9717C2531.4657,-419.0246 2615.868,-398.5357 2669.4744,-385.5225"/>
<polygon fill="#191970" stroke="#191970" points="2670.5455,-388.8642 2679.4376,-383.1039 2668.8941,-382.0618 2670.5455,-388.8642"/>
</g>
<!-- Node15&#45;&gt;Node56 -->
<g id="edge23" class="edge">
<title>Node15&#45;&gt;Node56</title>
<path fill="none" stroke="#191970" d="M2376.4033,-438.2889C2272.3961,-433.9348 2065.441,-421.6457 1893,-389 1801.6523,-371.7065 1697.4495,-337.9754 1643.5729,-319.4505"/>
<polygon fill="#191970" stroke="#191970" points="1644.3948,-316.0313 1633.8,-316.0667 1642.1045,-322.646 1644.3948,-316.0313"/>
</g>
<!-- Node58 -->
<g id="node28" class="node">
<title>Node58</title>
<g id="a_node28"><a xlink:href="SolidShapes_8h.html" target="_top" xlink:title="iDynTree/Model/SolidShapes.h">
<polygon fill="none" stroke="#000000" points="2361.5,-364 2361.5,-383 2524.5,-383 2524.5,-364 2361.5,-364"/>
<text text-anchor="middle" x="2443" y="-371" font-family="FreeSans.ttf" font-size="10.00" fill="#000000">iDynTree/Model/SolidShapes.h</text>
</a>
</g>
</g>
<!-- Node15&#45;&gt;Node58 -->
<g id="edge48" class="edge">
<title>Node15&#45;&gt;Node58</title>
<path fill="none" stroke="#191970" d="M2443,-430.9005C2443,-421.149 2443,-405.7597 2443,-393.3695"/>
<polygon fill="#191970" stroke="#191970" points="2446.5001,-393.0816 2443,-383.0817 2439.5001,-393.0817 2446.5001,-393.0816"/>
</g>
<!-- Node16&#45;&gt;Node14 -->
<g id="edge20" class="edge">
<title>Node16&#45;&gt;Node14</title>
<path fill="none" stroke="#191970" d="M2140.8186,-296.9005C2125.7889,-285.9549 2101.0058,-267.9064 2083.2407,-254.9688"/>
<polygon fill="#191970" stroke="#191970" points="2085.3009,-252.1394 2075.1569,-249.0817 2081.18,-257.7979 2085.3009,-252.1394"/>
</g>
<!-- Node17&#45;&gt;Node14 -->
<g id="edge22" class="edge">
<title>Node17&#45;&gt;Node14</title>
<path fill="none" stroke="#191970" d="M2713.584,-363.9857C2702.7937,-346.0603 2676.7214,-307.598 2643,-291 2599.0812,-269.3827 2290.0504,-251.0405 2141.4465,-243.3585"/>
<polygon fill="#191970" stroke="#191970" points="2141.1964,-239.8412 2131.0302,-242.8239 2140.8376,-246.832 2141.1964,-239.8412"/>
</g>
<!-- Node56&#45;&gt;Node5 -->
<g id="edge46" class="edge">
<title>Node56&#45;&gt;Node5</title>
<path fill="none" stroke="#191970" d="M1612.0821,-296.9677C1624.7345,-273.0332 1656.9885,-210.7013 1662,-188 1663.9162,-179.3201 1664.8503,-176.4195 1662,-168 1650.2514,-133.2955 1621.4382,-101.1101 1602.3143,-82.5136"/>
<polygon fill="#191970" stroke="#191970" points="1604.7032,-79.9555 1595.0315,-75.6299 1599.8947,-85.0427 1604.7032,-79.9555"/>
</g>
<!-- Node44 -->
<g id="node20" class="node">
<title>Node44</title>
<g id="a_node20"><a xlink:href="Position_8h.html" target="_top" xlink:title="Position.h">
<polygon fill="none" stroke="#ff0000" points="1658.5,-230 1658.5,-249 1723.5,-249 1723.5,-230 1658.5,-230"/>
<text text-anchor="middle" x="1691" y="-237" font-family="FreeSans.ttf" font-size="10.00" fill="#000000">Position.h</text>
</a>
</g>
</g>
<!-- Node56&#45;&gt;Node44 -->
<g id="edge24" class="edge">
<title>Node56&#45;&gt;Node44</title>
<path fill="none" stroke="#191970" d="M1619.0352,-296.9005C1632.6332,-286.0544 1654.9754,-268.2339 1671.1624,-255.3229"/>
<polygon fill="#191970" stroke="#191970" points="1673.3519,-258.0535 1678.9872,-249.0817 1668.9869,-252.5811 1673.3519,-258.0535"/>
</g>
<!-- Node38 -->
<g id="node21" class="node">
<title>Node38</title>
<g id="a_node21"><a xlink:href="Rotation_8h.html" target="_top" xlink:title="iDynTree/Core/Rotation.h">
<polygon fill="none" stroke="#ff0000" points="1515.5,-168.5 1515.5,-187.5 1652.5,-187.5 1652.5,-168.5 1515.5,-168.5"/>
<text text-anchor="middle" x="1584" y="-175.5" font-family="FreeSans.ttf" font-size="10.00" fill="#000000">iDynTree/Core/Rotation.h</text>
</a>
</g>
</g>
<!-- Node56&#45;&gt;Node38 -->
<g id="edge37" class="edge">
<title>Node56&#45;&gt;Node38</title>
<path fill="none" stroke="#191970" d="M1605.2713,-296.8416C1601.525,-275.9114 1592.5921,-226.004 1587.5755,-197.9762"/>
<polygon fill="#191970" stroke="#191970" points="1590.956,-196.9973 1585.7488,-187.7705 1584.0655,-198.2307 1590.956,-196.9973"/>
</g>
<!-- Node57 -->
<g id="node26" class="node">
<title>Node57</title>
<g id="a_node26"><a xlink:href="TransformSemantics_8h.html" target="_top" xlink:title="iDynTree/Core/TransformSemantics.h">
<polygon fill="none" stroke="#000000" points="1182.5,-112.5 1182.5,-131.5 1379.5,-131.5 1379.5,-112.5 1182.5,-112.5"/>
<text text-anchor="middle" x="1281" y="-119.5" font-family="FreeSans.ttf" font-size="10.00" fill="#000000">iDynTree/Core/TransformSemantics.h</text>
</a>
</g>
</g>
<!-- Node56&#45;&gt;Node57 -->
<g id="edge38" class="edge">
<title>Node56&#45;&gt;Node57</title>
<path fill="none" stroke="#191970" d="M1589.9318,-296.8402C1536.3484,-266.5146 1371.2324,-173.0671 1306.9699,-136.6977"/>
<polygon fill="#191970" stroke="#191970" points="1308.326,-133.4436 1297.8992,-131.5641 1304.8782,-139.5356 1308.326,-133.4436"/>
</g>
<!-- Node21 -->
<g id="node27" class="node">
<title>Node21</title>
<g id="a_node27"><a xlink:href="MatrixFixSize_8h.html" target="_top" xlink:title="iDynTree/Core/MatrixFixSize.h">
<polygon fill="none" stroke="#ff0000" points="926.5,-230 926.5,-249 1087.5,-249 1087.5,-230 926.5,-230"/>
<text text-anchor="middle" x="1007" y="-237" font-family="FreeSans.ttf" font-size="10.00" fill="#000000">iDynTree/Core/MatrixFixSize.h</text>
</a>
</g>
</g>
<!-- Node56&#45;&gt;Node21 -->
<g id="edge41" class="edge">
<title>Node56&#45;&gt;Node21</title>
<path fill="none" stroke="#191970" d="M1534.7285,-296.9983C1518.6922,-294.958 1501.7749,-292.8582 1486,-291 1350.8199,-275.0764 1193.9349,-258.586 1097.5702,-248.6845"/>
<polygon fill="#191970" stroke="#191970" points="1097.8755,-245.1975 1087.5704,-247.6583 1097.1608,-252.1609 1097.8755,-245.1975"/>
</g>
<!-- Node44&#45;&gt;Node5 -->
<g id="edge36" class="edge">
<title>Node44&#45;&gt;Node5</title>
<path fill="none" stroke="#191970" d="M1694.776,-229.8395C1702.9933,-207.0771 1719.8505,-149.1984 1695,-112 1677.5844,-85.9309 1642.3598,-74.6166 1616.2393,-69.7177"/>
<polygon fill="#191970" stroke="#191970" points="1616.4677,-66.2082 1606.0317,-68.0363 1615.3299,-73.1151 1616.4677,-66.2082"/>
</g>
<!-- Node44&#45;&gt;Node38 -->
<g id="edge25" class="edge">
<title>Node44&#45;&gt;Node38</title>
<path fill="none" stroke="#191970" d="M1674.2813,-229.8906C1656.9278,-219.9165 1629.5677,-204.1908 1609.5118,-192.6633"/>
<polygon fill="#191970" stroke="#191970" points="1611.0154,-189.4907 1600.6013,-187.5419 1607.5272,-195.5596 1611.0154,-189.4907"/>
</g>
<!-- Node38&#45;&gt;Node5 -->
<g id="edge26" class="edge">
<title>Node38&#45;&gt;Node5</title>
<path fill="none" stroke="#191970" d="M1584,-168.4509C1584,-150.184 1584,-109.9553 1584,-85.6976"/>
<polygon fill="#191970" stroke="#191970" points="1587.5001,-85.5249 1584,-75.5249 1580.5001,-85.5249 1587.5001,-85.5249"/>
</g>
<!-- Node25 -->
<g id="node22" class="node">
<title>Node25</title>
<g id="a_node22"><a xlink:href="VectorFixSize_8h.html" target="_top" xlink:title="iDynTree/Core/VectorFixSize.h">
<polygon fill="none" stroke="#ff0000" points="390.5,-112.5 390.5,-131.5 551.5,-131.5 551.5,-112.5 390.5,-112.5"/>
<text text-anchor="middle" x="471" y="-119.5" font-family="FreeSans.ttf" font-size="10.00" fill="#000000">iDynTree/Core/VectorFixSize.h</text>
</a>
</g>
</g>
<!-- Node38&#45;&gt;Node25 -->
<g id="edge27" class="edge">
<title>Node38&#45;&gt;Node25</title>
<path fill="none" stroke="#191970" d="M1515.2168,-174.5392C1322.7698,-164.8563 778.793,-137.4864 561.9089,-126.574"/>
<polygon fill="#191970" stroke="#191970" points="561.9944,-123.074 551.8311,-126.067 561.6425,-130.0652 561.9944,-123.074"/>
</g>
<!-- Node25&#45;&gt;Node5 -->
<g id="edge34" class="edge">
<title>Node25&#45;&gt;Node5</title>
<path fill="none" stroke="#191970" d="M551.9407,-117.9275C776.6751,-106.6201 1401.6324,-75.1757 1551.4275,-67.6389"/>
<polygon fill="#191970" stroke="#191970" points="1551.9555,-71.1168 1561.7669,-67.1186 1551.6036,-64.1257 1551.9555,-71.1168"/>
</g>
<!-- Node25&#45;&gt;Node6 -->
<g id="edge28" class="edge">
<title>Node25&#45;&gt;Node6</title>
<path fill="none" stroke="#191970" d="M489.9864,-112.2455C507.1792,-103.4125 532.7238,-90.2887 552.2132,-80.2758"/>
<polygon fill="#191970" stroke="#191970" points="553.9359,-83.3257 561.2312,-75.6427 550.737,-77.0993 553.9359,-83.3257"/>
</g>
<!-- Node26 -->
<g id="node23" class="node">
<title>Node26</title>
<g id="a_node23"><a xlink:href="Span_8h.html" target="_top" xlink:title="iDynTree/Core/Span.h">
<polygon fill="none" stroke="#ff0000" points="374.5,-56.5 374.5,-75.5 495.5,-75.5 495.5,-56.5 374.5,-56.5"/>
<text text-anchor="middle" x="435" y="-63.5" font-family="FreeSans.ttf" font-size="10.00" fill="#000000">iDynTree/Core/Span.h</text>
</a>
</g>
</g>
<!-- Node25&#45;&gt;Node26 -->
<g id="edge29" class="edge">
<title>Node25&#45;&gt;Node26</title>
<path fill="none" stroke="#191970" d="M464.7293,-112.2455C459.7736,-104.5367 452.717,-93.5598 446.7224,-84.2348"/>
<polygon fill="#191970" stroke="#191970" points="449.5506,-82.1618 441.1989,-75.6427 443.6624,-85.9471 449.5506,-82.1618"/>
</g>
<!-- Node22 -->
<g id="node24" class="node">
<title>Node22</title>
<polygon fill="none" stroke="#bfbfbf" points="268,-.5 268,-19.5 320,-19.5 320,-.5 268,-.5"/>
<text text-anchor="middle" x="294" y="-7.5" font-family="FreeSans.ttf" font-size="10.00" fill="#000000">cassert</text>
</g>
<!-- Node25&#45;&gt;Node22 -->
<g id="edge35" class="edge">
<title>Node25&#45;&gt;Node22</title>
<path fill="none" stroke="#191970" d="M441.7683,-112.3692C419.6935,-104.3896 389.1765,-91.8113 365,-76 343.8067,-62.1397 322.9984,-41.7716 309.4442,-27.3341"/>
<polygon fill="#191970" stroke="#191970" points="311.6956,-24.6112 302.3539,-19.6129 306.5397,-29.3459 311.6956,-24.6112"/>
</g>
<!-- Node26&#45;&gt;Node7 -->
<g id="edge32" class="edge">
<title>Node26&#45;&gt;Node7</title>
<path fill="none" stroke="#191970" d="M441.4449,-56.2455C446.5382,-48.5367 453.7908,-37.5598 459.952,-28.2348"/>
<polygon fill="#191970" stroke="#191970" points="463.0365,-29.9155 465.6289,-19.6427 457.1962,-26.0566 463.0365,-29.9155"/>
</g>
<!-- Node26&#45;&gt;Node8 -->
<g id="edge31" class="edge">
<title>Node26&#45;&gt;Node8</title>
<path fill="none" stroke="#191970" d="M426.639,-56.2455C419.825,-48.2958 410.0319,-36.8706 401.8848,-27.3656"/>
<polygon fill="#191970" stroke="#191970" points="404.4305,-24.9575 395.2651,-19.6427 399.1157,-29.513 404.4305,-24.9575"/>
</g>
<!-- Node26&#45;&gt;Node22 -->
<g id="edge30" class="edge">
<title>Node26&#45;&gt;Node22</title>
<path fill="none" stroke="#191970" d="M410.7612,-56.3733C387.7211,-47.2226 352.8786,-33.3844 327.2499,-23.2057"/>
<polygon fill="#191970" stroke="#191970" points="328.5082,-19.9395 317.9225,-19.5011 325.9244,-26.4452 328.5082,-19.9395"/>
</g>
<!-- Node28 -->
<g id="node25" class="node">
<title>Node28</title>
<polygon fill="none" stroke="#bfbfbf" points="1793.5,-.5 1793.5,-19.5 1846.5,-19.5 1846.5,-.5 1793.5,-.5"/>
<text text-anchor="middle" x="1820" y="-7.5" font-family="FreeSans.ttf" font-size="10.00" fill="#000000">iterator</text>
</g>
<!-- Node26&#45;&gt;Node28 -->
<g id="edge33" class="edge">
<title>Node26&#45;&gt;Node28</title>
<path fill="none" stroke="#191970" d="M495.5097,-57.5074C500.7422,-56.9342 505.9603,-56.4191 511,-56 768.1726,-34.6114 1598.274,-14.9904 1783.238,-10.8154"/>
<polygon fill="#191970" stroke="#191970" points="1783.3529,-14.3137 1793.2717,-10.5898 1783.1955,-7.3155 1783.3529,-14.3137"/>
</g>
<!-- Node57&#45;&gt;Node5 -->
<g id="edge39" class="edge">
<title>Node57&#45;&gt;Node5</title>
<path fill="none" stroke="#191970" d="M1332.7433,-112.4369C1395.5209,-100.8344 1499.4368,-81.6289 1551.7711,-71.9565"/>
<polygon fill="#191970" stroke="#191970" points="1552.6255,-75.358 1561.8228,-70.0988 1551.3532,-68.4745 1552.6255,-75.358"/>
</g>
<!-- Node57&#45;&gt;Node6 -->
<g id="edge40" class="edge">
<title>Node57&#45;&gt;Node6</title>
<path fill="none" stroke="#191970" d="M1182.3991,-113.2147C1177.5308,-112.7996 1172.7104,-112.3927 1168,-112 980.733,-96.3892 759.7798,-79.5204 649.6772,-71.2199"/>
<polygon fill="#191970" stroke="#191970" points="649.9287,-67.729 639.694,-70.4679 649.4028,-74.7093 649.9287,-67.729"/>
</g>
<!-- Node21&#45;&gt;Node1 -->
<g id="edge45" class="edge">
<title>Node21&#45;&gt;Node1</title>
<path fill="none" stroke="#191970" d="M948.9833,-229.9729C936.7705,-227.9846 923.9637,-225.9123 912,-224 809.8301,-207.6694 783.6172,-207.4765 682,-188 680.745,-187.7595 679.4712,-187.509 678.1863,-187.2508"/>
<polygon fill="#191970" stroke="#191970" points="678.746,-183.792 668.2396,-185.1578 677.3046,-190.642 678.746,-183.792"/>
</g>
<!-- Node21&#45;&gt;Node5 -->
<g id="edge44" class="edge">
<title>Node21&#45;&gt;Node5</title>
<path fill="none" stroke="#191970" d="M1010.9378,-229.6411C1021.4342,-204.8214 1052.6898,-139.7632 1102,-112 1141.0866,-89.993 1450.0712,-72.7055 1551.7133,-67.5663"/>
<polygon fill="#191970" stroke="#191970" points="1551.8916,-71.0618 1561.7043,-67.0666 1551.5419,-64.0706 1551.8916,-71.0618"/>
</g>
<!-- Node21&#45;&gt;Node6 -->
<g id="edge42" class="edge">
<title>Node21&#45;&gt;Node6</title>
<path fill="none" stroke="#191970" d="M983.4344,-229.9248C911.6958,-200.7757 695.8339,-113.066 612.9258,-79.3785"/>
<polygon fill="#191970" stroke="#191970" points="614.0748,-76.0675 603.4928,-75.5457 611.4397,-82.5526 614.0748,-76.0675"/>
</g>
<!-- Node21&#45;&gt;Node22 -->
<g id="edge43" class="edge">
<title>Node21&#45;&gt;Node22</title>
<path fill="none" stroke="#191970" d="M968.6121,-229.9738C907.3052,-215.0342 783.3585,-185.9505 677,-168 546.3231,-145.9452 496.8247,-196.401 381,-132 339.6707,-109.02 313.1695,-57.1628 301.2766,-29.0243"/>
<polygon fill="#191970" stroke="#191970" points="304.4244,-27.4719 297.4333,-19.511 297.934,-30.094 304.4244,-27.4719"/>
</g>
<!-- Node58&#45;&gt;Node5 -->
<g id="edge50" class="edge">
<title>Node58&#45;&gt;Node5</title>
<path fill="none" stroke="#191970" d="M2423.1934,-363.8699C2387.9468,-345.1832 2318,-300.4247 2318,-239.5 2318,-239.5 2318,-239.5 2318,-178 2318,-105.9969 1758.8916,-74.3646 1616.6213,-67.481"/>
<polygon fill="#191970" stroke="#191970" points="1616.523,-63.9725 1606.3679,-66.9931 1616.1903,-70.9645 1616.523,-63.9725"/>
</g>
<!-- Node58&#45;&gt;Node10 -->
<g id="edge51" class="edge">
<title>Node58&#45;&gt;Node10</title>
<path fill="none" stroke="#191970" d="M2385.6744,-363.9985C2372.9506,-361.9582 2359.5248,-359.8583 2347,-358 2228.9919,-340.4907 2198.4835,-342.7393 2081,-322 2068.6996,-319.8286 2055.2947,-317.0186 2043.479,-314.3887"/>
<polygon fill="#191970" stroke="#191970" points="2044.0986,-310.9404 2033.5724,-312.1444 2042.5519,-317.7674 2044.0986,-310.9404"/>
</g>
<!-- Node58&#45;&gt;Node11 -->
<g id="edge49" class="edge">
<title>Node58&#45;&gt;Node11</title>
<path fill="none" stroke="#191970" d="M2443,-363.9005C2443,-354.149 2443,-338.7597 2443,-326.3695"/>
<polygon fill="#191970" stroke="#191970" points="2446.5001,-326.0816 2443,-316.0817 2439.5001,-326.0817 2446.5001,-326.0816"/>
</g>
<!-- Node58&#45;&gt;Node56 -->
<g id="edge52" class="edge">
<title>Node58&#45;&gt;Node56</title>
<path fill="none" stroke="#191970" d="M2361.2145,-367.1282C2323.6792,-364.2522 2278.5877,-360.8651 2238,-358 1994.0829,-340.7819 1931.5809,-352.765 1689,-322 1680.2279,-320.8875 1670.9779,-319.4245 1661.9763,-317.8413"/>
<polygon fill="#191970" stroke="#191970" points="1662.4231,-314.3652 1651.9576,-316.0151 1661.1678,-321.2517 1662.4231,-314.3652"/>
</g>
<!-- Node59&#45;&gt;Node3 -->
<g id="edge99" class="edge">
<title>Node59&#45;&gt;Node3</title>
<path fill="none" stroke="#191970" d="M1676.695,-492.4599C1651.8127,-483.0637 1620.0297,-470.0969 1593,-456 1570.4827,-444.2565 1568.1842,-435.3648 1545,-425 1504.1613,-406.7425 1455.3718,-393.6086 1417.7311,-385.175"/>
<polygon fill="#191970" stroke="#191970" points="1418.4382,-381.747 1407.9209,-383.0264 1416.9405,-388.5849 1418.4382,-381.747"/>
</g>
<!-- Node59&#45;&gt;Node15 -->
<g id="edge58" class="edge">
<title>Node59&#45;&gt;Node15</title>
<path fill="none" stroke="#191970" d="M1790.6015,-498.9704C1811.3626,-496.5973 1834.0738,-494.0976 1855,-492 2039.6546,-473.491 2086.1398,-472.3282 2271,-456 2302.1241,-453.2509 2336.4111,-450.1714 2366.1282,-447.4861"/>
<polygon fill="#191970" stroke="#191970" points="2366.7922,-450.9405 2376.4363,-446.5539 2366.1616,-443.9689 2366.7922,-450.9405"/>
</g>
<!-- Node59&#45;&gt;Node16 -->
<g id="edge101" class="edge">
<title>Node59&#45;&gt;Node16</title>
<path fill="none" stroke="#191970" d="M1790.6626,-496.1819C1926.4121,-474.0279 2210.0533,-424.0468 2238,-389 2259.0521,-362.5994 2217.9578,-335.9182 2186.1555,-320.3115"/>
<polygon fill="#191970" stroke="#191970" points="2187.615,-317.1301 2177.0781,-316.0245 2184.6257,-323.4598 2187.615,-317.1301"/>
</g>
<!-- Node59&#45;&gt;Node22 -->
<g id="edge100" class="edge">
<title>Node59&#45;&gt;Node22</title>
<path fill="none" stroke="#191970" d="M1647.3252,-506.779C1321.9914,-502.5795 0,-475.1392 0,-306.5 0,-306.5 0,-306.5 0,-122 0,-67.3747 179.4784,-29.737 257.9728,-15.8884"/>
<polygon fill="#191970" stroke="#191970" points="258.6534,-19.3227 267.9095,-14.1675 257.4589,-12.4254 258.6534,-19.3227"/>
</g>
<!-- Node60 -->
<g id="node30" class="node">
<title>Node60</title>
<g id="a_node30"><a xlink:href="FixedJoint_8h.html" target="_top" xlink:title="iDynTree/Model/FixedJoint.h">
<polygon fill="none" stroke="#000000" points="1901.5,-364 1901.5,-383 2052.5,-383 2052.5,-364 1901.5,-364"/>
<text text-anchor="middle" x="1977" y="-371" font-family="FreeSans.ttf" font-size="10.00" fill="#000000">iDynTree/Model/FixedJoint.h</text>
</a>
</g>
</g>
<!-- Node59&#45;&gt;Node60 -->
<g id="edge59" class="edge">
<title>Node59&#45;&gt;Node60</title>
<path fill="none" stroke="#191970" d="M1748.0944,-492.389C1798.2548,-466.3367 1900.3419,-413.3147 1949.4288,-387.8199"/>
<polygon fill="#191970" stroke="#191970" points="1951.2472,-390.8195 1958.5084,-383.1042 1948.0207,-384.6074 1951.2472,-390.8195"/>
</g>
<!-- Node61 -->
<g id="node31" class="node">
<title>Node61</title>
<g id="a_node31"><a xlink:href="RevoluteJoint_8h.html" target="_top" xlink:title="iDynTree/Model/RevoluteJoint.h">
<polygon fill="none" stroke="#000000" points="1635,-431 1635,-450 1803,-450 1803,-431 1635,-431"/>
<text text-anchor="middle" x="1719" y="-438" font-family="FreeSans.ttf" font-size="10.00" fill="#000000">iDynTree/Model/RevoluteJoint.h</text>
</a>
</g>
</g>
<!-- Node59&#45;&gt;Node61 -->
<g id="edge63" class="edge">
<title>Node59&#45;&gt;Node61</title>
<path fill="none" stroke="#191970" d="M1719,-492.2967C1719,-482.7699 1719,-470.3954 1719,-460.1306"/>
<polygon fill="#191970" stroke="#191970" points="1722.5001,-460.0549 1719,-450.055 1715.5001,-460.055 1722.5001,-460.0549"/>
</g>
<!-- Node65 -->
<g id="node35" class="node">
<title>Node65</title>
<g id="a_node35"><a xlink:href="FreeFloatingState_8h.html" target="_top" xlink:title="iDynTree/Model/FreeFloating\lState.h">
<polygon fill="none" stroke="#000000" points="1305,-425.5 1305,-455.5 1459,-455.5 1459,-425.5 1305,-425.5"/>
<text text-anchor="start" x="1313" y="-443.5" font-family="FreeSans.ttf" font-size="10.00" fill="#000000">iDynTree/Model/FreeFloating</text>
<text text-anchor="middle" x="1382" y="-432.5" font-family="FreeSans.ttf" font-size="10.00" fill="#000000">State.h</text>
</a>
</g>
</g>
<!-- Node59&#45;&gt;Node65 -->
<g id="edge74" class="edge">
<title>Node59&#45;&gt;Node65</title>
<path fill="none" stroke="#191970" d="M1647.1184,-493.209C1594.5081,-482.7494 1522.9179,-468.5163 1467.3912,-457.4769"/>
<polygon fill="#191970" stroke="#191970" points="1468.0613,-454.0417 1457.5708,-455.5245 1466.6963,-460.9073 1468.0613,-454.0417"/>
</g>
<!-- Node67 -->
<g id="node38" class="node">
<title>Node67</title>
<g id="a_node38"><a xlink:href="LinkState_8h.html" target="_top" xlink:title="iDynTree/Model/LinkState.h">
<polygon fill="none" stroke="#000000" points="834.5,-364 834.5,-383 983.5,-383 983.5,-364 834.5,-364"/>
<text text-anchor="middle" x="909" y="-371" font-family="FreeSans.ttf" font-size="10.00" fill="#000000">iDynTree/Model/LinkState.h</text>
</a>
</g>
</g>
<!-- Node59&#45;&gt;Node67 -->
<g id="edge98" class="edge">
<title>Node59&#45;&gt;Node67</title>
<path fill="none" stroke="#191970" d="M1647.3232,-505.7898C1499.5522,-501.6345 1165.7756,-488.8258 1057,-456 1008.1668,-441.2633 957.5864,-408.6402 930.0296,-389.1219"/>
<polygon fill="#191970" stroke="#191970" points="931.7621,-386.0563 921.6027,-383.0499 927.6698,-391.7356 931.7621,-386.0563"/>
</g>
<!-- Node60&#45;&gt;Node14 -->
<g id="edge61" class="edge">
<title>Node60&#45;&gt;Node14</title>
<path fill="none" stroke="#191970" d="M1995.2498,-363.9568C2010.3641,-355.1007 2031.2076,-340.5088 2043,-322 2055.1725,-302.8946 2059.5749,-276.8897 2061.1511,-259.2186"/>
<polygon fill="#191970" stroke="#191970" points="2064.6461,-259.4089 2061.8219,-249.1975 2057.6617,-258.9413 2064.6461,-259.4089"/>
</g>
<!-- Node60&#45;&gt;Node16 -->
<g id="edge62" class="edge">
<title>Node60&#45;&gt;Node16</title>
<path fill="none" stroke="#191970" d="M2002.3598,-363.9005C2032.9844,-352.3082 2084.6568,-332.7486 2119.0456,-319.7313"/>
<polygon fill="#191970" stroke="#191970" points="2120.5739,-322.8952 2128.6873,-316.0817 2118.0958,-316.3486 2120.5739,-322.8952"/>
</g>
<!-- Node60&#45;&gt;Node56 -->
<g id="edge60" class="edge">
<title>Node60&#45;&gt;Node56</title>
<path fill="none" stroke="#191970" d="M1922.8291,-363.9775C1864.9202,-353.7595 1770.4271,-336.9758 1689,-322 1681.8487,-320.6847 1674.3498,-319.2895 1666.9144,-317.8961"/>
<polygon fill="#191970" stroke="#191970" points="1667.3277,-314.4126 1656.8532,-316.0049 1666.0345,-321.2921 1667.3277,-314.4126"/>
</g>
<!-- Node61&#45;&gt;Node14 -->
<g id="edge71" class="edge">
<title>Node61&#45;&gt;Node14</title>
<path fill="none" stroke="#191970" d="M1728.2471,-430.9702C1745.1715,-414.0293 1782.9052,-378.5281 1821,-358 1867.4011,-332.9958 1886.7953,-345.4519 1934,-322 1955.4235,-311.3566 1958.0151,-304.1473 1978,-291 1997.5338,-278.1495 2020.1553,-264.3397 2036.9985,-254.2585"/>
<polygon fill="#191970" stroke="#191970" points="2038.9056,-257.1964 2045.705,-249.0712 2035.3227,-251.1828 2038.9056,-257.1964"/>
</g>
<!-- Node61&#45;&gt;Node56 -->
<g id="edge64" class="edge">
<title>Node61&#45;&gt;Node56</title>
<path fill="none" stroke="#191970" d="M1710.9452,-430.8631C1692.2177,-408.4569 1645.5259,-352.5934 1621.6149,-323.9857"/>
<polygon fill="#191970" stroke="#191970" points="1624.0804,-321.4779 1614.9818,-316.0496 1618.7094,-325.9671 1624.0804,-321.4779"/>
</g>
<!-- Node34 -->
<g id="node32" class="node">
<title>Node34</title>
<g id="a_node32"><a xlink:href="SpatialMotionVector_8h.html" target="_top" xlink:title="iDynTree/Core/SpatialMotion\lVector.h">
<polygon fill="none" stroke="#ff0000" points="475.5,-224.5 475.5,-254.5 630.5,-254.5 630.5,-224.5 475.5,-224.5"/>
<text text-anchor="start" x="483.5" y="-242.5" font-family="FreeSans.ttf" font-size="10.00" fill="#000000">iDynTree/Core/SpatialMotion</text>
<text text-anchor="middle" x="553" y="-231.5" font-family="FreeSans.ttf" font-size="10.00" fill="#000000">Vector.h</text>
</a>
</g>
</g>
<!-- Node61&#45;&gt;Node34 -->
<g id="edge65" class="edge">
<title>Node61&#45;&gt;Node34</title>
<path fill="none" stroke="#191970" d="M1634.8872,-435.2961C1471.3473,-424.9659 1121.7748,-401.7681 1068,-389 1032.5071,-380.5727 1026.5928,-369.5802 992,-358 932.7078,-338.1515 912.6697,-348.4212 856,-322 834.319,-311.8916 833.9862,-300.4262 812,-291 757.5849,-267.6706 692.1607,-254.773 640.6818,-247.7192"/>
<polygon fill="#191970" stroke="#191970" points="640.9516,-244.2245 630.5794,-246.385 640.035,-251.1643 640.9516,-244.2245"/>
</g>
<!-- Node62 -->
<g id="node33" class="node">
<title>Node62</title>
<g id="a_node33"><a xlink:href="Axis_8h.html" target="_top" xlink:title="iDynTree/Core/Axis.h">
<polygon fill="none" stroke="#ff0000" points="1698,-297 1698,-316 1816,-316 1816,-297 1698,-297"/>
<text text-anchor="middle" x="1757" y="-304" font-family="FreeSans.ttf" font-size="10.00" fill="#000000">iDynTree/Core/Axis.h</text>
</a>
</g>
</g>
<!-- Node61&#45;&gt;Node62 -->
<g id="edge67" class="edge">
<title>Node61&#45;&gt;Node62</title>
<path fill="none" stroke="#191970" d="M1721.7329,-430.8631C1727.9499,-408.9398 1743.2503,-354.9858 1751.5063,-325.8727"/>
<polygon fill="#191970" stroke="#191970" points="1754.9308,-326.6252 1754.2919,-316.0496 1748.1964,-324.7154 1754.9308,-326.6252"/>
</g>
<!-- Node64 -->
<g id="node34" class="node">
<title>Node64</title>
<g id="a_node34"><a xlink:href="MovableJointImpl_8h.html" target="_top" xlink:title="iDynTree/Model/MovableJoint\lImpl.h">
<polygon fill="none" stroke="#000000" points="2071,-358.5 2071,-388.5 2229,-388.5 2229,-358.5 2071,-358.5"/>
<text text-anchor="start" x="2079" y="-376.5" font-family="FreeSans.ttf" font-size="10.00" fill="#000000">iDynTree/Model/MovableJoint</text>
<text text-anchor="middle" x="2150" y="-365.5" font-family="FreeSans.ttf" font-size="10.00" fill="#000000">Impl.h</text>
</a>
</g>
</g>
<!-- Node61&#45;&gt;Node64 -->
<g id="edge72" class="edge">
<title>Node61&#45;&gt;Node64</title>
<path fill="none" stroke="#191970" d="M1785.7952,-430.9817C1852.7464,-421.3253 1959.045,-405.6802 2060.7216,-389.1868"/>
<polygon fill="#191970" stroke="#191970" points="2061.5541,-392.5974 2070.862,-387.5365 2060.4296,-385.6883 2061.5541,-392.5974"/>
</g>
<!-- Node34&#45;&gt;Node25 -->
<g id="edge66" class="edge">
<title>Node34&#45;&gt;Node25</title>
<path fill="none" stroke="#191970" d="M542.2799,-224.1389C527.1704,-202.4881 499.6647,-163.0745 483.5983,-140.0525"/>
<polygon fill="#191970" stroke="#191970" points="486.2644,-137.757 477.6713,-131.5595 480.5241,-141.763 486.2644,-137.757"/>
</g>
<!-- Node62&#45;&gt;Node5 -->
<g id="edge68" class="edge">
<title>Node62&#45;&gt;Node5</title>
<path fill="none" stroke="#191970" d="M1760.1143,-296.7312C1764.6193,-281.1691 1771.8111,-249.8658 1766,-224 1753.9286,-170.2694 1753.8278,-148.9565 1713,-112 1685.8392,-87.4146 1644.6433,-75.7603 1616.1456,-70.3773"/>
<polygon fill="#191970" stroke="#191970" points="1616.7214,-66.925 1606.2705,-68.6656 1615.5258,-73.8222 1616.7214,-66.925"/>
</g>
<!-- Node62&#45;&gt;Node6 -->
<g id="edge70" class="edge">
<title>Node62&#45;&gt;Node6</title>
<path fill="none" stroke="#191970" d="M1756.1069,-296.7919C1754.2097,-280.4899 1748.5894,-247.1313 1733,-224 1710.539,-190.6727 1699.4603,-182.5579 1662,-168 1560.4389,-128.5311 1281.4983,-142.0281 1173,-132 983.453,-114.4808 760.4724,-88.1051 649.7256,-74.6148"/>
<polygon fill="#191970" stroke="#191970" points="650.0365,-71.1269 639.6861,-73.3897 649.1885,-78.0753 650.0365,-71.1269"/>
</g>
<!-- Node62&#45;&gt;Node44 -->
<g id="edge69" class="edge">
<title>Node62&#45;&gt;Node44</title>
<path fill="none" stroke="#191970" d="M1747.5438,-296.9005C1737.1537,-286.353 1720.2662,-269.2096 1707.6476,-256.3998"/>
<polygon fill="#191970" stroke="#191970" points="1709.9498,-253.7495 1700.4386,-249.0817 1704.963,-258.6619 1709.9498,-253.7495"/>
</g>
<!-- Node64&#45;&gt;Node16 -->
<g id="edge73" class="edge">
<title>Node64&#45;&gt;Node16</title>
<path fill="none" stroke="#191970" d="M2150.9077,-358.2967C2151.4764,-348.7699 2152.2152,-336.3954 2152.828,-326.1306"/>
<polygon fill="#191970" stroke="#191970" points="2156.3273,-326.2458 2153.4296,-316.055 2149.3397,-325.8286 2156.3273,-326.2458"/>
</g>
<!-- Node65&#45;&gt;Node10 -->
<g id="edge97" class="edge">
<title>Node65&#45;&gt;Node10</title>
<path fill="none" stroke="#191970" d="M1459.3019,-433.7392C1531.4067,-426.3733 1641.5792,-412.3989 1735,-389 1774.4122,-379.1285 1782.2578,-370.2395 1821,-358 1874.8005,-341.0033 1938.2451,-324.4075 1976.239,-314.8311"/>
<polygon fill="#191970" stroke="#191970" points="1977.4021,-318.1479 1986.2512,-312.3217 1975.7003,-311.3579 1977.4021,-318.1479"/>
</g>
<!-- Node65&#45;&gt;Node14 -->
<g id="edge81" class="edge">
<title>Node65&#45;&gt;Node14</title>
<path fill="none" stroke="#191970" d="M1444.0223,-425.4963C1513.7451,-408.7096 1630.3699,-380.87 1731,-358 1804.1921,-341.3658 1828.3993,-354.6178 1896,-322 1915.6303,-312.5283 1915.232,-302.0826 1934,-291 1961.7083,-274.6381 1995.5837,-261.2667 2021.5237,-252.2528"/>
<polygon fill="#191970" stroke="#191970" points="2022.7067,-255.5474 2031.0476,-249.0143 2020.4531,-248.92 2022.7067,-255.5474"/>
</g>
<!-- Node65&#45;&gt;Node56 -->
<g id="edge75" class="edge">
<title>Node65&#45;&gt;Node56</title>
<path fill="none" stroke="#191970" d="M1407.373,-425.389C1450.8441,-399.4995 1539.0359,-346.9764 1582.1473,-321.3012"/>
<polygon fill="#191970" stroke="#191970" points="1584.0728,-324.2282 1590.8736,-316.1042 1580.4909,-318.214 1584.0728,-324.2282"/>
</g>
<!-- Node33 -->
<g id="node36" class="node">
<title>Node33</title>
<g id="a_node36"><a xlink:href="Twist_8h.html" target="_top" xlink:title="iDynTree/Core/Twist.h">
<polygon fill="none" stroke="#000000" points="364,-297 364,-316 486,-316 486,-297 364,-297"/>
<text text-anchor="middle" x="425" y="-304" font-family="FreeSans.ttf" font-size="10.00" fill="#000000">iDynTree/Core/Twist.h</text>
</a>
</g>
</g>
<!-- Node65&#45;&gt;Node33 -->
<g id="edge76" class="edge">
<title>Node65&#45;&gt;Node33</title>
<path fill="none" stroke="#191970" d="M1304.9181,-431.0235C1286.9088,-428.9274 1267.7919,-426.7977 1250,-425 1155.6975,-415.4718 912.8658,-424.5437 825,-389 804.7947,-380.8265 807.0457,-366.5576 787,-358 666.7398,-306.6605 623.869,-344.1598 495,-322 488.4064,-320.8662 481.4958,-319.5252 474.6919,-318.114"/>
<polygon fill="#191970" stroke="#191970" points="475.3596,-314.6778 464.8492,-316.0122 473.8977,-321.5234 475.3596,-314.6778"/>
</g>
<!-- Node66 -->
<g id="node37" class="node">
<title>Node66</title>
<g id="a_node37"><a xlink:href="VectorDynSize_8h.html" target="_top" xlink:title="iDynTree/Core/VectorDynSize.h">
<polygon fill="none" stroke="#000000" points="141.5,-297 141.5,-316 308.5,-316 308.5,-297 141.5,-297"/>
<text text-anchor="middle" x="225" y="-304" font-family="FreeSans.ttf" font-size="10.00" fill="#000000">iDynTree/Core/VectorDynSize.h</text>
</a>
</g>
</g>
<!-- Node65&#45;&gt;Node66 -->
<g id="edge78" class="edge">
<title>Node65&#45;&gt;Node66</title>
<path fill="none" stroke="#191970" d="M1304.9518,-430.6651C1286.9411,-428.5848 1267.815,-426.5519 1250,-425 1109.8586,-412.7917 750.5832,-436.0142 618,-389 595.795,-381.1261 596.8529,-366.8042 575,-358 469.6514,-315.5568 434.3034,-338.9614 322,-322 312.7387,-320.6012 302.9866,-319.0893 293.3806,-317.577"/>
<polygon fill="#191970" stroke="#191970" points="293.8738,-314.1116 283.4497,-316.0057 292.7798,-321.0256 293.8738,-314.1116"/>
</g>
<!-- Node65&#45;&gt;Node67 -->
<g id="edge82" class="edge">
<title>Node65&#45;&gt;Node67</title>
<path fill="none" stroke="#191970" d="M1304.8012,-431.1268C1226.9732,-421.4531 1103.4591,-405.4887 997,-389 988.6259,-387.703 979.8188,-386.2538 971.1448,-384.7763"/>
<polygon fill="#191970" stroke="#191970" points="971.5068,-381.2872 961.0573,-383.0364 970.3169,-388.1853 971.5068,-381.2872"/>
</g>
<!-- Node69 -->
<g id="node42" class="node">
<title>Node69</title>
<g id="a_node42"><a xlink:href="JointState_8h.html" target="_top" xlink:title="iDynTree/Model/JointState.h">
<polygon fill="none" stroke="#ff0000" points="627.5,-364 627.5,-383 778.5,-383 778.5,-364 627.5,-364"/>
<text text-anchor="middle" x="703" y="-371" font-family="FreeSans.ttf" font-size="10.00" fill="#000000">iDynTree/Model/JointState.h</text>
</a>
</g>
</g>
<!-- Node65&#45;&gt;Node69 -->
<g id="edge93" class="edge">
<title>Node65&#45;&gt;Node69</title>
<path fill="none" stroke="#191970" d="M1304.9257,-430.947C1286.9161,-428.8543 1267.7971,-426.7452 1250,-425 1047.2323,-405.116 995.1613,-414.3165 793,-389 783.4255,-387.801 773.3169,-386.2961 763.4691,-384.6984"/>
<polygon fill="#191970" stroke="#191970" points="763.774,-381.201 753.3346,-383.0089 762.6229,-388.1057 763.774,-381.201"/>
</g>
<!-- Node33&#45;&gt;Node34 -->
<g id="edge77" class="edge">
<title>Node33&#45;&gt;Node34</title>
<path fill="none" stroke="#191970" d="M443.3393,-296.9005C462.0134,-287.1258 491.5093,-271.6865 515.209,-259.2812"/>
<polygon fill="#191970" stroke="#191970" points="517.0652,-262.2602 524.3017,-254.5218 513.8189,-256.0584 517.0652,-262.2602"/>
</g>
<!-- Node66&#45;&gt;Node5 -->
<g id="edge80" class="edge">
<title>Node66&#45;&gt;Node5</title>
<path fill="none" stroke="#191970" d="M245.5445,-296.9034C301.1237,-271.3838 459.6468,-201.513 599,-168 786.7397,-122.8506 1403.3924,-78.4017 1551.7077,-68.1858"/>
<polygon fill="#191970" stroke="#191970" points="1552.2114,-71.6596 1561.9485,-67.4837 1551.7325,-64.676 1552.2114,-71.6596"/>
</g>
<!-- Node66&#45;&gt;Node26 -->
<g id="edge79" class="edge">
<title>Node66&#45;&gt;Node26</title>
<path fill="none" stroke="#191970" d="M231.8686,-296.6578C252.6565,-267.1694 317.3784,-177.5315 381,-112 391.4243,-101.2628 404.1192,-90.3545 414.5805,-81.8567"/>
<polygon fill="#191970" stroke="#191970" points="416.7753,-84.5831 422.4053,-75.6078 412.4071,-79.1133 416.7753,-84.5831"/>
</g>
<!-- Node67&#45;&gt;Node10 -->
<g id="edge92" class="edge">
<title>Node67&#45;&gt;Node10</title>
<path fill="none" stroke="#191970" d="M983.7516,-365.4103C1010.3256,-362.7471 1040.4739,-359.9675 1068,-358 1418.581,-332.9408 1507.4755,-347.8383 1858,-322 1898.7019,-318.9997 1945.384,-314.007 1976.1557,-310.5006"/>
<polygon fill="#191970" stroke="#191970" points="1976.8066,-313.9488 1986.3407,-309.328 1976.0059,-306.9948 1976.8066,-313.9488"/>
</g>
<!-- Node67&#45;&gt;Node14 -->
<g id="edge91" class="edge">
<title>Node67&#45;&gt;Node14</title>
<path fill="none" stroke="#191970" d="M983.7538,-365.4409C1010.328,-362.7805 1040.4758,-359.9948 1068,-358 1235.9718,-345.8262 1666.0094,-377.5402 1825,-322 1847.2417,-314.2303 1846.705,-301.0789 1868,-291 1908.0453,-272.0467 1956.1643,-259.2168 1994.4605,-251.103"/>
<polygon fill="#191970" stroke="#191970" points="1995.3906,-254.485 2004.4791,-249.0397 1993.9786,-247.6288 1995.3906,-254.485"/>
</g>
<!-- Node67&#45;&gt;Node56 -->
<g id="edge83" class="edge">
<title>Node67&#45;&gt;Node56</title>
<path fill="none" stroke="#191970" d="M983.8024,-366.0328C1010.381,-363.426 1040.5192,-360.5228 1068,-358 1253.6847,-340.9539 1300.5941,-341.8505 1486,-322 1499.089,-320.5986 1512.9551,-318.964 1526.4493,-317.292"/>
<polygon fill="#191970" stroke="#191970" points="1527.1902,-320.7266 1536.6769,-316.0094 1526.3191,-313.781 1527.1902,-320.7266"/>
</g>
<!-- Node67&#45;&gt;Node33 -->
<g id="edge84" class="edge">
<title>Node67&#45;&gt;Node33</title>
<path fill="none" stroke="#191970" d="M857.9027,-363.9265C845.8264,-361.8231 832.978,-359.7144 821,-358 676.701,-337.3463 638.815,-345.7917 495,-322 488.3169,-320.8944 481.3117,-319.5584 474.4235,-318.1399"/>
<polygon fill="#191970" stroke="#191970" points="474.9759,-314.6791 464.4663,-316.0198 473.5181,-321.5256 474.9759,-314.6791"/>
</g>
<!-- Node54 -->
<g id="node39" class="node">
<title>Node54</title>
<g id="a_node39"><a xlink:href="SpatialAcc_8h.html" target="_top" xlink:title="iDynTree/Core/SpatialAcc.h">
<polygon fill="none" stroke="#000000" points="504,-297 504,-316 652,-316 652,-297 504,-297"/>
<text text-anchor="middle" x="578" y="-304" font-family="FreeSans.ttf" font-size="10.00" fill="#000000">iDynTree/Core/SpatialAcc.h</text>
</a>
</g>
</g>
<!-- Node67&#45;&gt;Node54 -->
<g id="edge85" class="edge">
<title>Node67&#45;&gt;Node54</title>
<path fill="none" stroke="#191970" d="M861.9273,-363.9717C802.207,-351.8833 699.2828,-331.0497 635.1289,-318.0638"/>
<polygon fill="#191970" stroke="#191970" points="635.6736,-314.6032 625.178,-316.0496 634.2848,-321.4641 635.6736,-314.6032"/>
</g>
<!-- Node55 -->
<g id="node40" class="node">
<title>Node55</title>
<g id="a_node40"><a xlink:href="Wrench_8h.html" target="_top" xlink:title="iDynTree/Core/Wrench.h">
<polygon fill="none" stroke="#ff0000" points="670.5,-297 670.5,-316 803.5,-316 803.5,-297 670.5,-297"/>
<text text-anchor="middle" x="737" y="-304" font-family="FreeSans.ttf" font-size="10.00" fill="#000000">iDynTree/Core/Wrench.h</text>
</a>
</g>
</g>
<!-- Node67&#45;&gt;Node55 -->
<g id="edge87" class="edge">
<title>Node67&#45;&gt;Node55</title>
<path fill="none" stroke="#191970" d="M884.3566,-363.9005C854.5971,-352.3082 804.3844,-332.7486 770.967,-319.7313"/>
<polygon fill="#191970" stroke="#191970" points="772.1861,-316.4501 761.5977,-316.0817 769.6453,-322.9727 772.1861,-316.4501"/>
</g>
<!-- Node68 -->
<g id="node41" class="node">
<title>Node68</title>
<g id="a_node41"><a xlink:href="ArticulatedBodyInertia_8h.html" target="_top" xlink:title="iDynTree/Core/Articulated\lBodyInertia.h">
<polygon fill="none" stroke="#000000" points="936.5,-291.5 936.5,-321.5 1077.5,-321.5 1077.5,-291.5 936.5,-291.5"/>
<text text-anchor="start" x="944.5" y="-309.5" font-family="FreeSans.ttf" font-size="10.00" fill="#000000">iDynTree/Core/Articulated</text>
<text text-anchor="middle" x="1007" y="-298.5" font-family="FreeSans.ttf" font-size="10.00" fill="#000000">BodyInertia.h</text>
</a>
</g>
</g>
<!-- Node67&#45;&gt;Node68 -->
<g id="edge88" class="edge">
<title>Node67&#45;&gt;Node68</title>
<path fill="none" stroke="#191970" d="M923.041,-363.9005C936.9588,-354.3853 958.728,-339.5023 976.612,-327.2755"/>
<polygon fill="#191970" stroke="#191970" points="978.7481,-330.0549 985.0279,-321.5218 974.7974,-324.2763 978.7481,-330.0549"/>
</g>
<!-- Node54&#45;&gt;Node34 -->
<g id="edge86" class="edge">
<title>Node54&#45;&gt;Node34</title>
<path fill="none" stroke="#191970" d="M574.4181,-296.9005C571.2227,-288.3368 566.4049,-275.4252 562.1475,-264.0152"/>
<polygon fill="#191970" stroke="#191970" points="565.3803,-262.6672 558.6051,-254.5218 558.8219,-265.1144 565.3803,-262.6672"/>
</g>
<!-- Node68&#45;&gt;Node5 -->
<g id="edge90" class="edge">
<title>Node68&#45;&gt;Node5</title>
<path fill="none" stroke="#191970" d="M1043.0391,-291.3593C1060.5982,-282.655 1081.086,-270.378 1096,-255 1146.2538,-203.1827 1113.1872,-152.4091 1173,-112 1204.2255,-90.9043 1460.64,-73.4728 1551.9027,-67.8829"/>
<polygon fill="#191970" stroke="#191970" points="1552.1719,-71.3731 1561.9421,-67.2751 1551.7489,-64.3859 1552.1719,-71.3731"/>
</g>
<!-- Node68&#45;&gt;Node21 -->
<g id="edge89" class="edge">
<title>Node68&#45;&gt;Node21</title>
<path fill="none" stroke="#191970" d="M1007,-291.2967C1007,-281.7699 1007,-269.3954 1007,-259.1306"/>
<polygon fill="#191970" stroke="#191970" points="1010.5001,-259.0549 1007,-249.055 1003.5001,-259.055 1010.5001,-259.0549"/>
</g>
<!-- Node69&#45;&gt;Node10 -->
<g id="edge96" class="edge">
<title>Node69&#45;&gt;Node10</title>
<path fill="none" stroke="#191970" d="M769.3698,-363.9615C787.3851,-361.6748 806.9116,-359.4716 825,-358 1268.2678,-321.937 1381.0622,-348.5732 1825,-322 1877.8548,-318.8362 1939.059,-313.3498 1976.1298,-309.8247"/>
<polygon fill="#191970" stroke="#191970" points="1976.7511,-313.2813 1986.3711,-308.8423 1976.0826,-306.3133 1976.7511,-313.2813"/>
</g>
<!-- Node69&#45;&gt;Node25 -->
<g id="edge94" class="edge">
<title>Node69&#45;&gt;Node25</title>
<path fill="none" stroke="#191970" d="M648.0669,-363.9937C635.873,-361.9536 623.0055,-359.8551 611,-358 554.2252,-349.227 392.6879,-365.3586 355,-322 302.307,-261.3786 402.8635,-173.3305 449.2878,-137.7707"/>
<polygon fill="#191970" stroke="#191970" points="451.6443,-140.3779 457.5337,-131.5708 447.4376,-134.7829 451.6443,-140.3779"/>
</g>
<!-- Node69&#45;&gt;Node66 -->
<g id="edge95" class="edge">
<title>Node69&#45;&gt;Node66</title>
<path fill="none" stroke="#191970" d="M650.2423,-363.9828C638.0312,-361.8998 625.077,-359.786 613,-358 484.0828,-338.9355 451.0302,-340.2845 322,-322 312.4757,-320.6503 302.4393,-319.1429 292.5789,-317.6128"/>
<polygon fill="#191970" stroke="#191970" points="292.8174,-314.1075 282.3958,-316.0157 291.7327,-321.023 292.8174,-314.1075"/>
</g>
<!-- Node70&#45;&gt;Node5 -->
<g id="edge112" class="edge">
<title>Node70&#45;&gt;Node5</title>
<path fill="none" stroke="#191970" d="M2481.347,-559.4628C2627.5549,-536.8666 2961,-474.2853 2961,-373.5 2961,-373.5 2961,-373.5 2961,-178 2961,-20.1396 2768.8029,-130.2411 2612,-112 2412.0609,-88.7408 1767.5911,-70.7871 1616.0971,-66.8204"/>
<polygon fill="#191970" stroke="#191970" points="1616.142,-63.3205 1606.0543,-66.5591 1615.9599,-70.3181 1616.142,-63.3205"/>
</g>
<!-- Node70&#45;&gt;Node10 -->
<g id="edge113" class="edge">
<title>Node70&#45;&gt;Node10</title>
<path fill="none" stroke="#191970" d="M2325.8753,-568.1556C2176.388,-565.7988 1886.1923,-556.8645 1855,-523 1825.3853,-490.8482 1785.6395,-472.5563 1880,-358 1880.8235,-357.0002 1938.3775,-334.4249 1976.6214,-319.4989"/>
<polygon fill="#191970" stroke="#191970" points="1978.3126,-322.5962 1986.3572,-315.7016 1975.769,-316.0747 1978.3126,-322.5962"/>
</g>
<!-- Node70&#45;&gt;Node15 -->
<g id="edge103" class="edge">
<title>Node70&#45;&gt;Node15</title>
<path fill="none" stroke="#191970" d="M2416.1797,-559.3416C2420.9243,-538.3184 2432.2667,-488.0598 2438.5758,-460.1038"/>
<polygon fill="#191970" stroke="#191970" points="2442.0076,-460.7957 2440.795,-450.2705 2435.1793,-459.2546 2442.0076,-460.7957"/>
</g>
<!-- Node71 -->
<g id="node44" class="node">
<title>Node71</title>
<g id="a_node44"><a xlink:href="Sensors_8h.html" target="_top" xlink:title="iDynTree/Sensors/Sensors.h">
<polygon fill="none" stroke="#000000" points="2500.5,-498 2500.5,-517 2651.5,-517 2651.5,-498 2500.5,-498"/>
<text text-anchor="middle" x="2576" y="-505" font-family="FreeSans.ttf" font-size="10.00" fill="#000000">iDynTree/Sensors/Sensors.h</text>
</a>
</g>
</g>
<!-- Node70&#45;&gt;Node71 -->
<g id="edge104" class="edge">
<title>Node70&#45;&gt;Node71</title>
<path fill="none" stroke="#191970" d="M2439.3125,-559.3906C2466.7747,-548.9652 2510.7895,-532.2559 2541.4263,-520.6252"/>
<polygon fill="#191970" stroke="#191970" points="2542.7585,-523.8633 2550.8652,-517.0419 2540.274,-517.319 2542.7585,-523.8633"/>
</g>
<!-- Node72 -->
<g id="node45" class="node">
<title>Node72</title>
<polygon fill="none" stroke="#bfbfbf" points="2357,-498 2357,-517 2415,-517 2415,-498 2357,-498"/>
<text text-anchor="middle" x="2386" y="-505" font-family="FreeSans.ttf" font-size="10.00" fill="#000000">memory</text>
</g>
<!-- Node70&#45;&gt;Node72 -->
<g id="edge111" class="edge">
<title>Node70&#45;&gt;Node72</title>
<path fill="none" stroke="#191970" d="M2409.625,-559.3906C2405.6212,-550.5965 2399.5817,-537.3312 2394.6115,-526.4145"/>
<polygon fill="#191970" stroke="#191970" points="2397.7657,-524.8957 2390.4367,-517.2449 2391.3949,-527.7963 2397.7657,-524.8957"/>
</g>
<!-- Node71&#45;&gt;Node5 -->
<g id="edge105" class="edge">
<title>Node71&#45;&gt;Node5</title>
<path fill="none" stroke="#191970" d="M2635.7953,-497.9835C2675.946,-490.1423 2729.2921,-476.8598 2773,-456 2828.7958,-429.3712 2885,-435.3245 2885,-373.5 2885,-373.5 2885,-373.5 2885,-178 2885,-112.2611 1816.6705,-73.6947 1616.2069,-67.0366"/>
<polygon fill="#191970" stroke="#191970" points="1616.1453,-63.5328 1606.0354,-66.7016 1615.9147,-70.529 1616.1453,-63.5328"/>
</g>
<!-- Node71&#45;&gt;Node10 -->
<g id="edge106" class="edge">
<title>Node71&#45;&gt;Node10</title>
<path fill="none" stroke="#191970" d="M2572.1861,-497.8222C2564.7613,-480.3168 2546.632,-443.4963 2519,-425 2456.2649,-383.0063 2424.2857,-413.8496 2353,-389 2323.5328,-378.728 2319.6811,-367.6363 2290,-358 2200.3497,-328.8939 2173.5112,-340.0563 2081,-322 2068.7408,-319.6073 2055.3452,-316.7471 2043.5254,-314.1389"/>
<polygon fill="#191970" stroke="#191970" points="2044.1342,-310.6888 2033.6123,-311.9298 2042.6115,-317.5212 2044.1342,-310.6888"/>
</g>
<!-- Node71&#45;&gt;Node14 -->
<g id="edge110" class="edge">
<title>Node71&#45;&gt;Node14</title>
<path fill="none" stroke="#191970" d="M2627.6718,-497.9986C2684.1475,-484.5539 2771.923,-453.9689 2812,-389 2840.1015,-343.4446 2790.8835,-312.8035 2742,-291 2688.3241,-267.0589 2308.7973,-249.2733 2141.2114,-242.4981"/>
<polygon fill="#191970" stroke="#191970" points="2141.3431,-239.0007 2131.2108,-242.0967 2141.0623,-245.995 2141.3431,-239.0007"/>
</g>
<!-- Node71&#45;&gt;Node15 -->
<g id="edge109" class="edge">
<title>Node71&#45;&gt;Node15</title>
<path fill="none" stroke="#191970" d="M2556.9443,-497.9005C2534.5252,-486.6067 2497.0946,-467.7506 2471.2868,-454.7497"/>
<polygon fill="#191970" stroke="#191970" points="2472.5258,-451.4549 2462.0203,-450.0817 2469.3765,-457.7065 2472.5258,-451.4549"/>
</g>
<!-- Node71&#45;&gt;Node28 -->
<g id="edge107" class="edge">
<title>Node71&#45;&gt;Node28</title>
<path fill="none" stroke="#191970" d="M2651.6952,-501.9969C2703.2561,-495.8934 2771.8882,-483.0407 2827,-456 2877.5055,-431.2194 2923,-429.7573 2923,-373.5 2923,-373.5 2923,-373.5 2923,-306.5 2923,-244.0271 2942.7061,-212.639 2899,-168 2824.0034,-91.4025 2037.1439,-26.6684 1856.7221,-12.7613"/>
<polygon fill="#191970" stroke="#191970" points="1856.9105,-9.2655 1846.6722,-11.991 1856.3755,-16.2451 1856.9105,-9.2655"/>
</g>
<!-- Node71&#45;&gt;Node66 -->
<g id="edge108" class="edge">
<title>Node71&#45;&gt;Node66</title>
<path fill="none" stroke="#191970" d="M2500.3245,-498.6498C2475.9864,-496.1073 2448.8832,-493.5941 2424,-492 1602.6319,-439.3806 1384.0372,-540.2389 575,-389 464.6812,-368.3774 336.7057,-336.0352 270.2732,-318.6029"/>
<polygon fill="#191970" stroke="#191970" points="271.1012,-315.2017 260.5396,-316.0397 269.3186,-321.9709 271.1012,-315.2017"/>
</g>
<!-- Node73&#45;&gt;Node4 -->
<g id="edge118" class="edge">
<title>Node73&#45;&gt;Node4</title>
<path fill="none" stroke="#191970" d="M1123.1483,-430.9073C1103.559,-423.0331 1079.7558,-409.7423 1068,-389 1061.2066,-377.0135 1060.586,-369.6129 1068,-358 1080.0892,-339.0641 1101.1322,-326.9845 1121.6685,-319.328"/>
<polygon fill="#191970" stroke="#191970" points="1123.0227,-322.5639 1131.3498,-316.0134 1120.7552,-315.9412 1123.0227,-322.5639"/>
</g>
<!-- Node73&#45;&gt;Node5 -->
<g id="edge115" class="edge">
<title>Node73&#45;&gt;Node5</title>
<path fill="none" stroke="#191970" d="M1172.9311,-430.8392C1190.9226,-421.2784 1218.3673,-405.6898 1240,-389 1309.6746,-335.2455 1456.2868,-169.3885 1523,-112 1535.3398,-101.3849 1549.8665,-90.3763 1561.6478,-81.7908"/>
<polygon fill="#191970" stroke="#191970" points="1563.9725,-84.4297 1570.0401,-75.7444 1559.8806,-78.7502 1563.9725,-84.4297"/>
</g>
<!-- Node73&#45;&gt;Node6 -->
<g id="edge119" class="edge">
<title>Node73&#45;&gt;Node6</title>
<path fill="none" stroke="#191970" d="M1066.1216,-438.1602C848.8669,-432.0203 298.3201,-414.1665 219,-389 165.5181,-372.0314 139.1794,-371.0869 112,-322 38.5295,-189.3097 235.004,-153.1072 381,-112 428.5134,-98.6219 483.1946,-86.1917 523.1998,-77.6341"/>
<polygon fill="#191970" stroke="#191970" points="523.9867,-81.0451 533.0412,-75.5436 522.5321,-74.1979 523.9867,-81.0451"/>
</g>
<!-- Node73&#45;&gt;Node10 -->
<g id="edge116" class="edge">
<title>Node73&#45;&gt;Node10</title>
<path fill="none" stroke="#191970" d="M1234.2755,-430.9895C1313.4217,-421.3625 1437.7501,-405.5688 1545,-389 1707.1294,-363.953 1899.8848,-327.6606 1976.3479,-313.0026"/>
<polygon fill="#191970" stroke="#191970" points="1977.1899,-316.4049 1986.3501,-311.0813 1975.8694,-309.5306 1977.1899,-316.4049"/>
</g>
<!-- Node73&#45;&gt;Node14 -->
<g id="edge120" class="edge">
<title>Node73&#45;&gt;Node14</title>
<path fill="none" stroke="#191970" d="M1206.8522,-430.9593C1263.352,-420.726 1355.547,-403.9297 1435,-389 1506.6165,-375.5428 1524.0945,-369.8162 1596,-358 1712.852,-338.7978 1752.0287,-370.6344 1860,-322 1879.2517,-313.3283 1877.5299,-301.2314 1896,-291 1929.489,-272.4489 1970.5571,-259.6362 2003.466,-251.4305"/>
<polygon fill="#191970" stroke="#191970" points="2004.5014,-254.7811 2013.3998,-249.0306 2002.8574,-247.9769 2004.5014,-254.7811"/>
</g>
<!-- Node73&#45;&gt;Node25 -->
<g id="edge117" class="edge">
<title>Node73&#45;&gt;Node25</title>
<path fill="none" stroke="#191970" d="M1066.4939,-437.014C830.1406,-426.6913 192.557,-392.5003 132,-322 45.2767,-221.0368 286.7563,-157.932 407.2225,-133.5224"/>
<polygon fill="#191970" stroke="#191970" points="407.963,-136.9437 417.0854,-131.5555 406.5939,-130.0789 407.963,-136.9437"/>
</g>
<!-- Node73&#45;&gt;Node67 -->
<g id="edge123" class="edge">
<title>Node73&#45;&gt;Node67</title>
<path fill="none" stroke="#191970" d="M1119.1577,-430.9717C1075.7431,-419.0991 1001.4817,-398.7909 953.8565,-385.7669"/>
<polygon fill="#191970" stroke="#191970" points="954.6879,-382.3658 944.1188,-383.1039 952.8414,-389.1179 954.6879,-382.3658"/>
</g>
<!-- Node74 -->
<g id="node47" class="node">
<title>Node74</title>
<g id="a_node47"><a xlink:href="FreeFloatingMatrices_8h.html" target="_top" xlink:title="iDynTree/Model/FreeFloating\lMatrices.h">
<polygon fill="none" stroke="#000000" points="1077,-358.5 1077,-388.5 1231,-388.5 1231,-358.5 1077,-358.5"/>
<text text-anchor="start" x="1085" y="-376.5" font-family="FreeSans.ttf" font-size="10.00" fill="#000000">iDynTree/Model/FreeFloating</text>
<text text-anchor="middle" x="1154" y="-365.5" font-family="FreeSans.ttf" font-size="10.00" fill="#000000">Matrices.h</text>
</a>
</g>
</g>
<!-- Node73&#45;&gt;Node74 -->
<g id="edge121" class="edge">
<title>Node73&#45;&gt;Node74</title>
<path fill="none" stroke="#191970" d="M1154,-430.9005C1154,-422.5099 1154,-409.9451 1154,-398.7085"/>
<polygon fill="#191970" stroke="#191970" points="1157.5001,-398.5217 1154,-388.5218 1150.5001,-398.5218 1157.5001,-398.5217"/>
</g>
<!-- Node74&#45;&gt;Node4 -->
<g id="edge122" class="edge">
<title>Node74&#45;&gt;Node4</title>
<path fill="none" stroke="#191970" d="M1159.6729,-358.2967C1163.3033,-348.5672 1168.042,-335.8675 1171.9185,-325.4784"/>
<polygon fill="#191970" stroke="#191970" points="1175.2179,-326.6476 1175.4347,-316.055 1168.6596,-324.2004 1175.2179,-326.6476"/>
</g>
<!-- Node75&#45;&gt;Node5 -->
<g id="edge125" class="edge">
<title>Node75&#45;&gt;Node5</title>
<path fill="none" stroke="#191970" d="M2917.1481,-559.4936C2939.4374,-552.842 2964.0611,-541.6637 2980,-523 3004.4351,-494.3875 2999,-478.1265 2999,-440.5 2999,-440.5 2999,-440.5 2999,-178 2999,-156.0237 3336.7042,-204.8718 2795,-112 2558.8589,-71.5151 1784.4107,-66.657 1616.3603,-66.0779"/>
<polygon fill="#191970" stroke="#191970" points="1616.1913,-62.5774 1606.1802,-66.0456 1616.169,-69.5774 1616.1913,-62.5774"/>
</g>
<!-- Node75&#45;&gt;Node76 -->
<g id="edge126" class="edge">
<title>Node75&#45;&gt;Node76</title>
<path fill="none" stroke="#191970" d="M2873.8125,-559.3906C2881.254,-550.2376 2892.6334,-536.2409 2901.6992,-525.09"/>
<polygon fill="#191970" stroke="#191970" points="2904.4847,-527.212 2908.0774,-517.2449 2899.0533,-522.7962 2904.4847,-527.212"/>
</g>
</g>
</svg>
