<?xml version="1.0" encoding="UTF-8" standalone="no"?>
<!DOCTYPE svg PUBLIC "-//W3C//DTD SVG 1.1//EN"
 "http://www.w3.org/Graphics/SVG/1.1/DTD/svg11.dtd">
<!-- Generated by graphviz version 2.40.1 (20161225.0304)
 -->
<!-- Title: ArticulatedBodyInertia.cpp Pages: 1 -->
<svg width="1585pt" height="632pt"
 viewBox="0.00 0.00 1585.00 632.00" xmlns="http://www.w3.org/2000/svg" xmlns:xlink="http://www.w3.org/1999/xlink">
<g id="graph0" class="graph" transform="scale(1 1) rotate(0) translate(4 628)">
<title>ArticulatedBodyInertia.cpp</title>
<!-- Node0 -->
<g id="node1" class="node">
<title>Node0</title>
<polygon fill="#bfbfbf" stroke="#000000" points="772,-604.5 772,-623.5 918,-623.5 918,-604.5 772,-604.5"/>
<text text-anchor="middle" x="845" y="-611.5" font-family="FreeSans.ttf" font-size="10.00" fill="#000000">ArticulatedBodyInertia.cpp</text>
</g>
<!-- Node1 -->
<g id="node2" class="node">
<title>Node1</title>
<g id="a_node2"><a xlink:href="ArticulatedBodyInertia_8h.html" target="_top" xlink:title="iDynTree/Core/Articulated\lBodyInertia.h">
<polygon fill="none" stroke="#000000" points="1407.5,-168.5 1407.5,-198.5 1548.5,-198.5 1548.5,-168.5 1407.5,-168.5"/>
<text text-anchor="start" x="1415.5" y="-186.5" font-family="FreeSans.ttf" font-size="10.00" fill="#000000">iDynTree/Core/Articulated</text>
<text text-anchor="middle" x="1478" y="-175.5" font-family="FreeSans.ttf" font-size="10.00" fill="#000000">BodyInertia.h</text>
</a>
</g>
</g>
<!-- Node0&#45;&gt;Node1 -->
<g id="edge1" class="edge">
<title>Node0&#45;&gt;Node1</title>
<path fill="none" stroke="#191970" d="M918.188,-608.7465C1091.7776,-595.3074 1514,-556.4568 1514,-496.5 1514,-496.5 1514,-496.5 1514,-306.5 1514,-271.1042 1500.0984,-232.2022 1489.5725,-207.8198"/>
<polygon fill="#191970" stroke="#191970" points="1492.7348,-206.3176 1485.4592,-198.6158 1486.344,-209.1737 1492.7348,-206.3176"/>
</g>
<!-- Node6 -->
<g id="node7" class="node">
<title>Node6</title>
<polygon fill="none" stroke="#bfbfbf" points="1031,-.5 1031,-19.5 1083,-19.5 1083,-.5 1031,-.5"/>
<text text-anchor="middle" x="1057" y="-7.5" font-family="FreeSans.ttf" font-size="10.00" fill="#000000">cassert</text>
</g>
<!-- Node0&#45;&gt;Node6 -->
<g id="edge86" class="edge">
<title>Node0&#45;&gt;Node6</title>
<path fill="none" stroke="#191970" d="M918.1296,-609.6227C1040.1412,-601.9643 1280.029,-585.2956 1363,-568 1461.1692,-547.5362 1577,-596.7794 1577,-496.5 1577,-496.5 1577,-496.5 1577,-122 1577,-72.4165 1211.0154,-27.2005 1093.1228,-13.9215"/>
<polygon fill="#191970" stroke="#191970" points="1093.4699,-10.4386 1083.1432,-12.8073 1092.6931,-17.3954 1093.4699,-10.4386"/>
</g>
<!-- Node9 -->
<g id="node10" class="node">
<title>Node9</title>
<polygon fill="none" stroke="#bfbfbf" points="209,-56.5 209,-75.5 269,-75.5 269,-56.5 209,-56.5"/>
<text text-anchor="middle" x="239" y="-63.5" font-family="FreeSans.ttf" font-size="10.00" fill="#000000">iostream</text>
</g>
<!-- Node0&#45;&gt;Node9 -->
<g id="edge84" class="edge">
<title>Node0&#45;&gt;Node9</title>
<path fill="none" stroke="#191970" d="M771.9089,-612.5805C618.4815,-609.0417 267.499,-597.8589 152,-568 79.7199,-549.314 0,-571.1564 0,-496.5 0,-496.5 0,-496.5 0,-183.5 0,-131.7146 46.1138,-136.0038 92,-112 126.1679,-94.1262 168.4842,-81.7933 198.9285,-74.4301"/>
<polygon fill="#191970" stroke="#191970" points="199.832,-77.8133 208.769,-72.1228 198.234,-70.9981 199.832,-77.8133"/>
</g>
<!-- Node10 -->
<g id="node11" class="node">
<title>Node10</title>
<polygon fill="none" stroke="#bfbfbf" points="311,-56.5 311,-75.5 367,-75.5 367,-56.5 311,-56.5"/>
<text text-anchor="middle" x="339" y="-63.5" font-family="FreeSans.ttf" font-size="10.00" fill="#000000">sstream</text>
</g>
<!-- Node0&#45;&gt;Node10 -->
<g id="edge85" class="edge">
<title>Node0&#45;&gt;Node10</title>
<path fill="none" stroke="#191970" d="M771.9608,-610.9876C573.3105,-601.8282 38,-570.2993 38,-496.5 38,-496.5 38,-496.5 38,-183.5 38,-127.7327 219.5603,-87.7142 300.6621,-72.6201"/>
<polygon fill="#191970" stroke="#191970" points="301.7455,-75.9802 310.9529,-70.7386 300.4865,-69.0943 301.7455,-75.9802"/>
</g>
<!-- Node11 -->
<g id="node12" class="node">
<title>Node11</title>
<g id="a_node12"><a xlink:href="SpatialInertia_8h.html" target="_top" xlink:title="iDynTree/Core/SpatialInertia.h">
<polygon fill="none" stroke="#000000" points="439,-548.5 439,-567.5 601,-567.5 601,-548.5 439,-548.5"/>
<text text-anchor="middle" x="520" y="-555.5" font-family="FreeSans.ttf" font-size="10.00" fill="#000000">iDynTree/Core/SpatialInertia.h</text>
</a>
</g>
</g>
<!-- Node0&#45;&gt;Node11 -->
<g id="edge12" class="edge">
<title>Node0&#45;&gt;Node11</title>
<path fill="none" stroke="#191970" d="M789.4998,-604.4369C732.9437,-594.6918 645.2596,-579.5832 585.3741,-569.2645"/>
<polygon fill="#191970" stroke="#191970" points="585.7204,-565.7726 575.2713,-567.5237 584.5317,-572.671 585.7204,-565.7726"/>
</g>
<!-- Node33 -->
<g id="node34" class="node">
<title>Node33</title>
<g id="a_node34"><a xlink:href="SpatialAcc_8h.html" target="_top" xlink:title="iDynTree/Core/SpatialAcc.h">
<polygon fill="none" stroke="#000000" points="771,-487 771,-506 919,-506 919,-487 771,-487"/>
<text text-anchor="middle" x="845" y="-494" font-family="FreeSans.ttf" font-size="10.00" fill="#000000">iDynTree/Core/SpatialAcc.h</text>
</a>
</g>
</g>
<!-- Node0&#45;&gt;Node33 -->
<g id="edge64" class="edge">
<title>Node0&#45;&gt;Node33</title>
<path fill="none" stroke="#191970" d="M845,-604.3845C845,-585.1913 845,-541.786 845,-516.2663"/>
<polygon fill="#191970" stroke="#191970" points="848.5001,-516.2483 845,-506.2484 841.5001,-516.2484 848.5001,-516.2483"/>
</g>
<!-- Node34 -->
<g id="node35" class="node">
<title>Node34</title>
<g id="a_node35"><a xlink:href="Wrench_8h.html" target="_top" xlink:title="iDynTree/Core/Wrench.h">
<polygon fill="none" stroke="#000000" points="237.5,-487 237.5,-506 370.5,-506 370.5,-487 237.5,-487"/>
<text text-anchor="middle" x="304" y="-494" font-family="FreeSans.ttf" font-size="10.00" fill="#000000">iDynTree/Core/Wrench.h</text>
</a>
</g>
</g>
<!-- Node0&#45;&gt;Node34 -->
<g id="edge65" class="edge">
<title>Node0&#45;&gt;Node34</title>
<path fill="none" stroke="#191970" d="M771.7027,-609.4451C670.0253,-602.5172 491.7208,-587.9937 430,-568 390.3243,-555.1475 349.1839,-528.9474 325.1218,-512.0829"/>
<polygon fill="#191970" stroke="#191970" points="326.9471,-509.0856 316.7746,-506.1238 322.8798,-514.7828 326.9471,-509.0856"/>
</g>
<!-- Node35 -->
<g id="node36" class="node">
<title>Node35</title>
<g id="a_node36"><a xlink:href="EigenHelpers_8h.html" target="_top" xlink:title="iDynTree/Core/EigenHelpers.h">
<polygon fill="none" stroke="#000000" points="937.5,-487 937.5,-506 1098.5,-506 1098.5,-487 937.5,-487"/>
<text text-anchor="middle" x="1018" y="-494" font-family="FreeSans.ttf" font-size="10.00" fill="#000000">iDynTree/Core/EigenHelpers.h</text>
</a>
</g>
</g>
<!-- Node0&#45;&gt;Node35 -->
<g id="edge66" class="edge">
<title>Node0&#45;&gt;Node35</title>
<path fill="none" stroke="#191970" d="M859.1573,-604.3845C889.0636,-584.0724 958.8958,-536.6431 995.1877,-511.9939"/>
<polygon fill="#191970" stroke="#191970" points="997.3412,-514.7623 1003.6471,-506.2484 993.4082,-508.9716 997.3412,-514.7623"/>
</g>
<!-- Node36 -->
<g id="node37" class="node">
<title>Node36</title>
<polygon fill="none" stroke="#bfbfbf" points="1358.5,-420 1358.5,-439 1435.5,-439 1435.5,-420 1358.5,-420"/>
<text text-anchor="middle" x="1397" y="-427" font-family="FreeSans.ttf" font-size="10.00" fill="#000000">Eigen/Dense</text>
</g>
<!-- Node0&#45;&gt;Node36 -->
<g id="edge83" class="edge">
<title>Node0&#45;&gt;Node36</title>
<path fill="none" stroke="#191970" d="M873.5155,-604.469C965.48,-573.7309 1254.3169,-477.1903 1358.8007,-442.2677"/>
<polygon fill="#191970" stroke="#191970" points="1359.949,-445.5743 1368.3237,-439.0847 1357.73,-438.9353 1359.949,-445.5743"/>
</g>
<!-- Node2 -->
<g id="node3" class="node">
<title>Node2</title>
<g id="a_node3"><a xlink:href="MatrixFixSize_8h.html" target="_top" xlink:title="iDynTree/Core/MatrixFixSize.h">
<polygon fill="none" stroke="#000000" points="500.5,-112.5 500.5,-131.5 661.5,-131.5 661.5,-112.5 500.5,-112.5"/>
<text text-anchor="middle" x="581" y="-119.5" font-family="FreeSans.ttf" font-size="10.00" fill="#000000">iDynTree/Core/MatrixFixSize.h</text>
</a>
</g>
</g>
<!-- Node1&#45;&gt;Node2 -->
<g id="edge2" class="edge">
<title>Node1&#45;&gt;Node2</title>
<path fill="none" stroke="#191970" d="M1407.0773,-177.4714C1370.3565,-174.4419 1324.7856,-170.8247 1284,-168 1014.6246,-149.344 944.0786,-155.1228 671.7024,-132.1074"/>
<polygon fill="#191970" stroke="#191970" points="671.7718,-128.6008 661.5112,-131.2409 671.1786,-135.5756 671.7718,-128.6008"/>
</g>
<!-- Node8 -->
<g id="node9" class="node">
<title>Node8</title>
<polygon fill="none" stroke="#bfbfbf" points="1105,-56.5 1105,-75.5 1149,-75.5 1149,-56.5 1105,-56.5"/>
<text text-anchor="middle" x="1127" y="-63.5" font-family="FreeSans.ttf" font-size="10.00" fill="#000000">string</text>
</g>
<!-- Node1&#45;&gt;Node8 -->
<g id="edge11" class="edge">
<title>Node1&#45;&gt;Node8</title>
<path fill="none" stroke="#191970" d="M1464.6321,-168.2072C1449.1486,-151.5546 1422.0256,-125.4982 1393,-112 1351.9092,-92.891 1221.1032,-76.4022 1159.5772,-69.4797"/>
<polygon fill="#191970" stroke="#191970" points="1159.6034,-65.9612 1149.2786,-68.3377 1158.8319,-72.9186 1159.6034,-65.9612"/>
</g>
<!-- Node3 -->
<g id="node4" class="node">
<title>Node3</title>
<g id="a_node4"><a xlink:href="Utils_8h.html" target="_top" xlink:title="iDynTree/Core/Utils.h">
<polygon fill="none" stroke="#000000" points="410.5,-56.5 410.5,-75.5 529.5,-75.5 529.5,-56.5 410.5,-56.5"/>
<text text-anchor="middle" x="470" y="-63.5" font-family="FreeSans.ttf" font-size="10.00" fill="#000000">iDynTree/Core/Utils.h</text>
</a>
</g>
</g>
<!-- Node2&#45;&gt;Node3 -->
<g id="edge3" class="edge">
<title>Node2&#45;&gt;Node3</title>
<path fill="none" stroke="#191970" d="M561.9184,-112.3733C544.2598,-103.4644 517.7947,-90.1127 497.7902,-80.0203"/>
<polygon fill="#191970" stroke="#191970" points="499.3372,-76.8806 488.8326,-75.5011 496.1842,-83.1303 499.3372,-76.8806"/>
</g>
<!-- Node2&#45;&gt;Node6 -->
<g id="edge6" class="edge">
<title>Node2&#45;&gt;Node6</title>
<path fill="none" stroke="#191970" d="M641.4834,-112.4913C691.9136,-104.1547 765.5099,-91.0391 829,-76 897.636,-59.742 976.4174,-35.7193 1021.0933,-21.5834"/>
<polygon fill="#191970" stroke="#191970" points="1022.4221,-24.8337 1030.8916,-18.4684 1020.3012,-18.1627 1022.4221,-24.8337"/>
</g>
<!-- Node7 -->
<g id="node8" class="node">
<title>Node7</title>
<polygon fill="none" stroke="#bfbfbf" points="594,-56.5 594,-75.5 644,-75.5 644,-56.5 594,-56.5"/>
<text text-anchor="middle" x="619" y="-63.5" font-family="FreeSans.ttf" font-size="10.00" fill="#000000">cstring</text>
</g>
<!-- Node2&#45;&gt;Node7 -->
<g id="edge7" class="edge">
<title>Node2&#45;&gt;Node7</title>
<path fill="none" stroke="#191970" d="M587.6191,-112.2455C592.9046,-104.4564 600.4541,-93.3308 606.8238,-83.9439"/>
<polygon fill="#191970" stroke="#191970" points="609.7379,-85.8827 612.4568,-75.6427 603.9455,-81.9522 609.7379,-85.8827"/>
</g>
<!-- Node2&#45;&gt;Node8 -->
<g id="edge8" class="edge">
<title>Node2&#45;&gt;Node8</title>
<path fill="none" stroke="#191970" d="M661.5256,-112.9099C664.3853,-112.6006 667.217,-112.2964 670,-112 829.0873,-95.0565 1019.5127,-76.4169 1094.441,-69.1467"/>
<polygon fill="#191970" stroke="#191970" points="1095.0247,-72.6066 1104.6404,-68.1581 1094.3494,-65.6393 1095.0247,-72.6066"/>
</g>
<!-- Node2&#45;&gt;Node9 -->
<g id="edge9" class="edge">
<title>Node2&#45;&gt;Node9</title>
<path fill="none" stroke="#191970" d="M522.5967,-112.4369C453.1633,-101.0677 339.1449,-82.398 279.0095,-72.5513"/>
<polygon fill="#191970" stroke="#191970" points="279.5671,-69.096 269.1329,-70.934 278.4359,-76.004 279.5671,-69.096"/>
</g>
<!-- Node2&#45;&gt;Node10 -->
<g id="edge10" class="edge">
<title>Node2&#45;&gt;Node10</title>
<path fill="none" stroke="#191970" d="M539.6737,-112.4369C494.0861,-101.8877 421.3369,-85.0532 377.0871,-74.8135"/>
<polygon fill="#191970" stroke="#191970" points="377.8233,-71.3915 367.2917,-72.5468 376.2451,-78.2113 377.8233,-71.3915"/>
</g>
<!-- Node4 -->
<g id="node5" class="node">
<title>Node4</title>
<polygon fill="none" stroke="#bfbfbf" points="449.5,-.5 449.5,-19.5 502.5,-19.5 502.5,-.5 449.5,-.5"/>
<text text-anchor="middle" x="476" y="-7.5" font-family="FreeSans.ttf" font-size="10.00" fill="#000000">cstddef</text>
</g>
<!-- Node3&#45;&gt;Node4 -->
<g id="edge4" class="edge">
<title>Node3&#45;&gt;Node4</title>
<path fill="none" stroke="#191970" d="M471.0451,-56.2455C471.828,-48.9382 472.9256,-38.6944 473.8888,-29.7046"/>
<polygon fill="#191970" stroke="#191970" points="477.3815,-29.9587 474.9669,-19.6427 470.4214,-29.2129 477.3815,-29.9587"/>
</g>
<!-- Node5 -->
<g id="node6" class="node">
<title>Node5</title>
<polygon fill="none" stroke="#bfbfbf" points="351,-.5 351,-19.5 431,-19.5 431,-.5 351,-.5"/>
<text text-anchor="middle" x="391" y="-7.5" font-family="FreeSans.ttf" font-size="10.00" fill="#000000">CoreExport.h</text>
</g>
<!-- Node3&#45;&gt;Node5 -->
<g id="edge5" class="edge">
<title>Node3&#45;&gt;Node5</title>
<path fill="none" stroke="#191970" d="M456.2393,-56.2455C444.3448,-47.814 426.935,-35.4729 413.0915,-25.6598"/>
<polygon fill="#191970" stroke="#191970" points="414.7854,-22.5704 404.6031,-19.6427 410.7372,-28.2811 414.7854,-22.5704"/>
</g>
<!-- Node12 -->
<g id="node13" class="node">
<title>Node12</title>
<g id="a_node13"><a xlink:href="SpatialInertiaRaw_8h.html" target="_top" xlink:title="iDynTree/Core/SpatialInertia\lRaw.h">
<polygon fill="none" stroke="#000000" points="66.5,-481.5 66.5,-511.5 219.5,-511.5 219.5,-481.5 66.5,-481.5"/>
<text text-anchor="start" x="74.5" y="-499.5" font-family="FreeSans.ttf" font-size="10.00" fill="#000000">iDynTree/Core/SpatialInertia</text>
<text text-anchor="middle" x="143" y="-488.5" font-family="FreeSans.ttf" font-size="10.00" fill="#000000">Raw.h</text>
</a>
</g>
</g>
<!-- Node11&#45;&gt;Node12 -->
<g id="edge13" class="edge">
<title>Node11&#45;&gt;Node12</title>
<path fill="none" stroke="#191970" d="M456.7022,-548.4789C399.7628,-539.8115 313.5475,-526.4349 229.827,-512.2914"/>
<polygon fill="#191970" stroke="#191970" points="230.3405,-508.8286 219.8962,-510.6081 229.1706,-515.7302 230.3405,-508.8286"/>
</g>
<!-- Node14 -->
<g id="node15" class="node">
<title>Node14</title>
<g id="a_node15"><a xlink:href="VectorFixSize_8h.html" target="_top" xlink:title="iDynTree/Core/VectorFixSize.h">
<polygon fill="none" stroke="#000000" points="679.5,-112.5 679.5,-131.5 840.5,-131.5 840.5,-112.5 679.5,-112.5"/>
<text text-anchor="middle" x="760" y="-119.5" font-family="FreeSans.ttf" font-size="10.00" fill="#000000">iDynTree/Core/VectorFixSize.h</text>
</a>
</g>
</g>
<!-- Node11&#45;&gt;Node14 -->
<g id="edge16" class="edge">
<title>Node11&#45;&gt;Node14</title>
<path fill="none" stroke="#191970" d="M472.1235,-548.4339C451.8675,-541.7776 430.1783,-530.6124 418,-512 334.119,-383.8025 320.7033,-264.1193 440,-168 448.965,-160.7768 577.9224,-143.9128 669.3561,-132.7356"/>
<polygon fill="#191970" stroke="#191970" points="669.969,-136.1869 679.4724,-131.5034 669.1226,-129.2383 669.969,-136.1869"/>
</g>
<!-- Node23 -->
<g id="node24" class="node">
<title>Node23</title>
<g id="a_node24"><a xlink:href="Twist_8h.html" target="_top" xlink:title="iDynTree/Core/Twist.h">
<polygon fill="none" stroke="#000000" points="631,-487 631,-506 753,-506 753,-487 631,-487"/>
<text text-anchor="middle" x="692" y="-494" font-family="FreeSans.ttf" font-size="10.00" fill="#000000">iDynTree/Core/Twist.h</text>
</a>
</g>
</g>
<!-- Node11&#45;&gt;Node23 -->
<g id="edge32" class="edge">
<title>Node11&#45;&gt;Node23</title>
<path fill="none" stroke="#191970" d="M546.875,-548.3906C576.1586,-537.92 623.169,-521.1111 655.7137,-509.4745"/>
<polygon fill="#191970" stroke="#191970" points="657.0759,-512.7045 665.3137,-506.0419 654.7191,-506.1131 657.0759,-512.7045"/>
</g>
<!-- Node31 -->
<g id="node32" class="node">
<title>Node31</title>
<g id="a_node32"><a xlink:href="SpatialMomentum_8h.html" target="_top" xlink:title="iDynTree/Core/SpatialMomentum.h">
<polygon fill="none" stroke="#000000" points="427,-487 427,-506 613,-506 613,-487 427,-487"/>
<text text-anchor="middle" x="520" y="-494" font-family="FreeSans.ttf" font-size="10.00" fill="#000000">iDynTree/Core/SpatialMomentum.h</text>
</a>
</g>
</g>
<!-- Node11&#45;&gt;Node31 -->
<g id="edge55" class="edge">
<title>Node11&#45;&gt;Node31</title>
<path fill="none" stroke="#191970" d="M520,-548.3906C520,-539.8657 520,-527.1392 520,-516.4235"/>
<polygon fill="#191970" stroke="#191970" points="523.5001,-516.2448 520,-506.2449 516.5001,-516.2449 523.5001,-516.2448"/>
</g>
<!-- Node11&#45;&gt;Node33 -->
<g id="edge60" class="edge">
<title>Node11&#45;&gt;Node33</title>
<path fill="none" stroke="#191970" d="M570.4247,-548.4581C628.27,-537.512 723.0577,-519.5752 784.7424,-507.9026"/>
<polygon fill="#191970" stroke="#191970" points="785.5496,-511.312 794.7245,-506.0137 784.248,-504.4341 785.5496,-511.312"/>
</g>
<!-- Node11&#45;&gt;Node34 -->
<g id="edge62" class="edge">
<title>Node11&#45;&gt;Node34</title>
<path fill="none" stroke="#191970" d="M486.25,-548.3906C448.7619,-537.7169 388.1403,-520.4566 347.2114,-508.8033"/>
<polygon fill="#191970" stroke="#191970" points="348.0892,-505.4141 337.513,-506.0419 346.1723,-512.1466 348.0892,-505.4141"/>
</g>
<!-- Node13 -->
<g id="node14" class="node">
<title>Node13</title>
<g id="a_node14"><a xlink:href="RotationalInertiaRaw_8h.html" target="_top" xlink:title="iDynTree/Core/Rotational\lInertiaRaw.h">
<polygon fill="none" stroke="#000000" points="187.5,-291.5 187.5,-321.5 324.5,-321.5 324.5,-291.5 187.5,-291.5"/>
<text text-anchor="start" x="195.5" y="-309.5" font-family="FreeSans.ttf" font-size="10.00" fill="#000000">iDynTree/Core/Rotational</text>
<text text-anchor="middle" x="256" y="-298.5" font-family="FreeSans.ttf" font-size="10.00" fill="#000000">InertiaRaw.h</text>
</a>
</g>
</g>
<!-- Node12&#45;&gt;Node13 -->
<g id="edge14" class="edge">
<title>Node12&#45;&gt;Node13</title>
<path fill="none" stroke="#191970" d="M152.0562,-481.2727C171.6927,-448.2557 218.3117,-369.8698 241.8636,-330.2691"/>
<polygon fill="#191970" stroke="#191970" points="244.954,-331.92 247.0575,-321.5361 238.9376,-328.3418 244.954,-331.92"/>
</g>
<!-- Node13&#45;&gt;Node2 -->
<g id="edge15" class="edge">
<title>Node13&#45;&gt;Node2</title>
<path fill="none" stroke="#191970" d="M264.7586,-291.1948C282.1697,-262.2422 324.0588,-199.5375 377,-168 399.2502,-154.7454 460.0608,-141.9773 509.541,-133.2703"/>
<polygon fill="#191970" stroke="#191970" points="510.3341,-136.6851 519.59,-131.5297 509.1393,-129.7878 510.3341,-136.6851"/>
</g>
<!-- Node14&#45;&gt;Node3 -->
<g id="edge17" class="edge">
<title>Node14&#45;&gt;Node3</title>
<path fill="none" stroke="#191970" d="M710.4767,-112.4369C660.3241,-102.7522 582.739,-87.7703 529.3303,-77.4569"/>
<polygon fill="#191970" stroke="#191970" points="529.8013,-73.9832 519.319,-75.5237 528.474,-80.8563 529.8013,-73.9832"/>
</g>
<!-- Node14&#45;&gt;Node6 -->
<g id="edge30" class="edge">
<title>Node14&#45;&gt;Node6</title>
<path fill="none" stroke="#191970" d="M814.5031,-112.4441C851.5671,-104.952 901.2624,-92.9388 943,-76 976.7105,-62.319 1012.5464,-40.1548 1034.8487,-25.3337"/>
<polygon fill="#191970" stroke="#191970" points="1036.9194,-28.1588 1043.2553,-19.6671 1033.0068,-22.3543 1036.9194,-28.1588"/>
</g>
<!-- Node14&#45;&gt;Node7 -->
<g id="edge31" class="edge">
<title>Node14&#45;&gt;Node7</title>
<path fill="none" stroke="#191970" d="M735.7612,-112.3733C712.7211,-103.2226 677.8786,-89.3844 652.2499,-79.2057"/>
<polygon fill="#191970" stroke="#191970" points="653.5082,-75.9395 642.9225,-75.5011 650.9244,-82.4452 653.5082,-75.9395"/>
</g>
<!-- Node14&#45;&gt;Node8 -->
<g id="edge28" class="edge">
<title>Node14&#45;&gt;Node8</title>
<path fill="none" stroke="#191970" d="M822.6725,-112.4369C901.4696,-100.4134 1033.7761,-80.2249 1094.6126,-70.942"/>
<polygon fill="#191970" stroke="#191970" points="1095.4131,-74.3604 1104.7707,-69.3919 1094.3571,-67.4405 1095.4131,-74.3604"/>
</g>
<!-- Node14&#45;&gt;Node10 -->
<g id="edge29" class="edge">
<title>Node14&#45;&gt;Node10</title>
<path fill="none" stroke="#191970" d="M679.6956,-112.4672C606.8724,-103.6425 496.6148,-89.8329 401,-76 393.272,-74.882 385.0157,-73.6069 377.1313,-72.3501"/>
<polygon fill="#191970" stroke="#191970" points="377.4867,-68.8622 367.0566,-70.7232 376.3707,-75.7727 377.4867,-68.8622"/>
</g>
<!-- Node15 -->
<g id="node16" class="node">
<title>Node15</title>
<g id="a_node16"><a xlink:href="Span_8h.html" target="_top" xlink:title="iDynTree/Core/Span.h">
<polygon fill="none" stroke="#000000" points="699.5,-56.5 699.5,-75.5 820.5,-75.5 820.5,-56.5 699.5,-56.5"/>
<text text-anchor="middle" x="760" y="-63.5" font-family="FreeSans.ttf" font-size="10.00" fill="#000000">iDynTree/Core/Span.h</text>
</a>
</g>
</g>
<!-- Node14&#45;&gt;Node15 -->
<g id="edge18" class="edge">
<title>Node14&#45;&gt;Node15</title>
<path fill="none" stroke="#191970" d="M760,-112.2455C760,-104.9382 760,-94.6944 760,-85.7046"/>
<polygon fill="#191970" stroke="#191970" points="763.5001,-85.6426 760,-75.6427 756.5001,-85.6427 763.5001,-85.6426"/>
</g>
<!-- Node15&#45;&gt;Node4 -->
<g id="edge22" class="edge">
<title>Node15&#45;&gt;Node4</title>
<path fill="none" stroke="#191970" d="M700.5705,-56.4804C652.4071,-48.423 582.6108,-35.9746 512.5545,-19.9701"/>
<polygon fill="#191970" stroke="#191970" points="513.2008,-16.5274 502.6698,-17.6883 511.6263,-23.348 513.2008,-16.5274"/>
</g>
<!-- Node15&#45;&gt;Node6 -->
<g id="edge19" class="edge">
<title>Node15&#45;&gt;Node6</title>
<path fill="none" stroke="#191970" d="M820.7176,-56.9999C873.8277,-48.7232 952.9028,-35.4211 1021,-20 1021.0989,-19.9776 1021.1978,-19.9551 1021.297,-19.9325"/>
<polygon fill="#191970" stroke="#191970" points="1021.8535,-23.4001 1030.7282,-17.6131 1020.1817,-16.6026 1021.8535,-23.4001"/>
</g>
<!-- Node16 -->
<g id="node17" class="node">
<title>Node16</title>
<polygon fill="none" stroke="#bfbfbf" points="521,-.5 521,-19.5 585,-19.5 585,-.5 521,-.5"/>
<text text-anchor="middle" x="553" y="-7.5" font-family="FreeSans.ttf" font-size="10.00" fill="#000000">algorithm</text>
</g>
<!-- Node15&#45;&gt;Node16 -->
<g id="edge20" class="edge">
<title>Node15&#45;&gt;Node16</title>
<path fill="none" stroke="#191970" d="M724.4154,-56.3733C688.4434,-46.6417 632.8751,-31.6087 594.8203,-21.3137"/>
<polygon fill="#191970" stroke="#191970" points="595.6314,-17.9074 585.0644,-18.6744 593.8033,-24.6645 595.6314,-17.9074"/>
</g>
<!-- Node17 -->
<g id="node18" class="node">
<title>Node17</title>
<polygon fill="none" stroke="#bfbfbf" points="603,-.5 603,-19.5 645,-19.5 645,-.5 603,-.5"/>
<text text-anchor="middle" x="624" y="-7.5" font-family="FreeSans.ttf" font-size="10.00" fill="#000000">array</text>
</g>
<!-- Node15&#45;&gt;Node17 -->
<g id="edge21" class="edge">
<title>Node15&#45;&gt;Node17</title>
<path fill="none" stroke="#191970" d="M736.6208,-56.3733C713.9592,-47.042 679.4601,-32.8365 654.6182,-22.6075"/>
<polygon fill="#191970" stroke="#191970" points="655.8656,-19.3361 645.2862,-18.7649 653.2003,-25.8088 655.8656,-19.3361"/>
</g>
<!-- Node18 -->
<g id="node19" class="node">
<title>Node18</title>
<polygon fill="none" stroke="#bfbfbf" points="663.5,-.5 663.5,-19.5 716.5,-19.5 716.5,-.5 663.5,-.5"/>
<text text-anchor="middle" x="690" y="-7.5" font-family="FreeSans.ttf" font-size="10.00" fill="#000000">iterator</text>
</g>
<!-- Node15&#45;&gt;Node18 -->
<g id="edge23" class="edge">
<title>Node15&#45;&gt;Node18</title>
<path fill="none" stroke="#191970" d="M747.8069,-56.2455C737.3679,-47.8943 722.1345,-35.7076 709.926,-25.9408"/>
<polygon fill="#191970" stroke="#191970" points="712.0485,-23.1566 702.0533,-19.6427 707.6756,-28.6227 712.0485,-23.1566"/>
</g>
<!-- Node19 -->
<g id="node20" class="node">
<title>Node19</title>
<polygon fill="none" stroke="#bfbfbf" points="735,-.5 735,-19.5 779,-19.5 779,-.5 735,-.5"/>
<text text-anchor="middle" x="757" y="-7.5" font-family="FreeSans.ttf" font-size="10.00" fill="#000000">limits</text>
</g>
<!-- Node15&#45;&gt;Node19 -->
<g id="edge24" class="edge">
<title>Node15&#45;&gt;Node19</title>
<path fill="none" stroke="#191970" d="M759.4774,-56.2455C759.086,-48.9382 758.5372,-38.6944 758.0556,-29.7046"/>
<polygon fill="#191970" stroke="#191970" points="761.5466,-29.4411 757.5166,-19.6427 754.5566,-29.8156 761.5466,-29.4411"/>
</g>
<!-- Node20 -->
<g id="node21" class="node">
<title>Node20</title>
<polygon fill="none" stroke="#bfbfbf" points="797.5,-.5 797.5,-19.5 862.5,-19.5 862.5,-.5 797.5,-.5"/>
<text text-anchor="middle" x="830" y="-7.5" font-family="FreeSans.ttf" font-size="10.00" fill="#000000">stdexcept</text>
</g>
<!-- Node15&#45;&gt;Node20 -->
<g id="edge25" class="edge">
<title>Node15&#45;&gt;Node20</title>
<path fill="none" stroke="#191970" d="M772.1931,-56.2455C782.6321,-47.8943 797.8655,-35.7076 810.074,-25.9408"/>
<polygon fill="#191970" stroke="#191970" points="812.3244,-28.6227 817.9467,-19.6427 807.9515,-23.1566 812.3244,-28.6227"/>
</g>
<!-- Node21 -->
<g id="node22" class="node">
<title>Node21</title>
<polygon fill="none" stroke="#bfbfbf" points="880.5,-.5 880.5,-19.5 949.5,-19.5 949.5,-.5 880.5,-.5"/>
<text text-anchor="middle" x="915" y="-7.5" font-family="FreeSans.ttf" font-size="10.00" fill="#000000">type_traits</text>
</g>
<!-- Node15&#45;&gt;Node21 -->
<g id="edge26" class="edge">
<title>Node15&#45;&gt;Node21</title>
<path fill="none" stroke="#191970" d="M786.6454,-56.3733C812.1964,-47.1419 850.9512,-33.1402 879.1909,-22.9375"/>
<polygon fill="#191970" stroke="#191970" points="880.4865,-26.1909 888.7022,-19.5011 878.1079,-19.6074 880.4865,-26.1909"/>
</g>
<!-- Node22 -->
<g id="node23" class="node">
<title>Node22</title>
<polygon fill="none" stroke="#bfbfbf" points="967.5,-.5 967.5,-19.5 1012.5,-19.5 1012.5,-.5 967.5,-.5"/>
<text text-anchor="middle" x="990" y="-7.5" font-family="FreeSans.ttf" font-size="10.00" fill="#000000">utility</text>
</g>
<!-- Node15&#45;&gt;Node22 -->
<g id="edge27" class="edge">
<title>Node15&#45;&gt;Node22</title>
<path fill="none" stroke="#191970" d="M805.4579,-56.4496C843.6215,-48.2045 899.7624,-35.5483 957.6538,-19.945"/>
<polygon fill="#191970" stroke="#191970" points="958.6048,-23.3136 967.3358,-17.312 956.7678,-16.559 958.6048,-23.3136"/>
</g>
<!-- Node24 -->
<g id="node25" class="node">
<title>Node24</title>
<g id="a_node25"><a xlink:href="SpatialMotionVector_8h.html" target="_top" xlink:title="iDynTree/Core/SpatialMotion\lVector.h">
<polygon fill="none" stroke="#000000" points="618.5,-414.5 618.5,-444.5 773.5,-444.5 773.5,-414.5 618.5,-414.5"/>
<text text-anchor="start" x="626.5" y="-432.5" font-family="FreeSans.ttf" font-size="10.00" fill="#000000">iDynTree/Core/SpatialMotion</text>
<text text-anchor="middle" x="696" y="-421.5" font-family="FreeSans.ttf" font-size="10.00" fill="#000000">Vector.h</text>
</a>
</g>
</g>
<!-- Node23&#45;&gt;Node24 -->
<g id="edge33" class="edge">
<title>Node23&#45;&gt;Node24</title>
<path fill="none" stroke="#191970" d="M692.5731,-486.9005C693.074,-478.5099 693.8242,-465.9451 694.495,-454.7085"/>
<polygon fill="#191970" stroke="#191970" points="698.0009,-454.7126 695.1032,-444.5218 691.0134,-454.2954 698.0009,-454.7126"/>
</g>
<!-- Node24&#45;&gt;Node14 -->
<g id="edge34" class="edge">
<title>Node24&#45;&gt;Node14</title>
<path fill="none" stroke="#191970" d="M699.1738,-414.251C709.7908,-363.2394 744.0641,-198.5672 755.9196,-141.6048"/>
<polygon fill="#191970" stroke="#191970" points="759.3671,-142.2175 757.9782,-131.7141 752.5139,-140.7911 759.3671,-142.2175"/>
</g>
<!-- Node25 -->
<g id="node26" class="node">
<title>Node25</title>
<g id="a_node26"><a xlink:href="GeomVector3_8h.html" target="_top" xlink:title="iDynTree/Core/GeomVector3.h">
<polygon fill="none" stroke="#000000" points="495.5,-174 495.5,-193 658.5,-193 658.5,-174 495.5,-174"/>
<text text-anchor="middle" x="577" y="-181" font-family="FreeSans.ttf" font-size="10.00" fill="#000000">iDynTree/Core/GeomVector3.h</text>
</a>
</g>
</g>
<!-- Node24&#45;&gt;Node25 -->
<g id="edge35" class="edge">
<title>Node24&#45;&gt;Node25</title>
<path fill="none" stroke="#191970" d="M689.7203,-414.3217C683.6289,-399.7697 674.011,-377.2356 665,-358 638.1155,-300.6098 603.6148,-234.0701 586.9242,-202.2846"/>
<polygon fill="#191970" stroke="#191970" points="589.9188,-200.4595 582.1632,-193.2414 583.7248,-203.7206 589.9188,-200.4595"/>
</g>
<!-- Node26 -->
<g id="node27" class="node">
<title>Node26</title>
<g id="a_node27"><a xlink:href="SpatialVector_8h.html" target="_top" xlink:title="iDynTree/Core/SpatialVector.h">
<polygon fill="none" stroke="#000000" points="495.5,-358.5 495.5,-377.5 656.5,-377.5 656.5,-358.5 495.5,-358.5"/>
<text text-anchor="middle" x="576" y="-365.5" font-family="FreeSans.ttf" font-size="10.00" fill="#000000">iDynTree/Core/SpatialVector.h</text>
</a>
</g>
</g>
<!-- Node24&#45;&gt;Node26 -->
<g id="edge37" class="edge">
<title>Node24&#45;&gt;Node26</title>
<path fill="none" stroke="#191970" d="M666.6447,-414.4554C647.4127,-404.599 622.4388,-391.7999 603.5759,-382.1327"/>
<polygon fill="#191970" stroke="#191970" points="605.0914,-378.9765 594.5957,-377.5303 601.8987,-385.206 605.0914,-378.9765"/>
</g>
<!-- Node25&#45;&gt;Node14 -->
<g id="edge36" class="edge">
<title>Node25&#45;&gt;Node14</title>
<path fill="none" stroke="#191970" d="M605.5938,-173.8906C636.8845,-163.3749 687.1986,-146.466 721.84,-134.8243"/>
<polygon fill="#191970" stroke="#191970" points="723.243,-138.0452 731.607,-131.5419 721.013,-131.4099 723.243,-138.0452"/>
</g>
<!-- Node26&#45;&gt;Node3 -->
<g id="edge51" class="edge">
<title>Node26&#45;&gt;Node3</title>
<path fill="none" stroke="#191970" d="M569.1403,-358.2909C551.8539,-333.2735 506.4332,-264.0094 486,-199 473.7901,-160.1534 470.7975,-112.2299 470.1255,-85.8173"/>
<polygon fill="#191970" stroke="#191970" points="473.6216,-85.5449 469.9573,-75.6039 466.6225,-85.6602 473.6216,-85.5449"/>
</g>
<!-- Node26&#45;&gt;Node9 -->
<g id="edge53" class="edge">
<title>Node26&#45;&gt;Node9</title>
<path fill="none" stroke="#191970" d="M555.7641,-358.4315C538.7899,-349.9652 514.2975,-336.6987 495,-322 392.81,-244.163 290.624,-127.446 253.566,-83.5371"/>
<polygon fill="#191970" stroke="#191970" points="256.1502,-81.1716 247.0421,-75.7592 250.787,-85.6701 256.1502,-81.1716"/>
</g>
<!-- Node26&#45;&gt;Node10 -->
<g id="edge54" class="edge">
<title>Node26&#45;&gt;Node10</title>
<path fill="none" stroke="#191970" d="M563.7487,-358.4625C552.7493,-349.6076 536.4633,-335.7553 524,-322 449.7211,-240.0207 377.6232,-128.2658 350.3983,-84.5767"/>
<polygon fill="#191970" stroke="#191970" points="353.25,-82.5338 345.0097,-75.8744 347.2986,-86.219 353.25,-82.5338"/>
</g>
<!-- Node26&#45;&gt;Node25 -->
<g id="edge52" class="edge">
<title>Node26&#45;&gt;Node25</title>
<path fill="none" stroke="#191970" d="M576.0524,-358.3402C576.2096,-329.3223 576.6802,-242.5088 576.8932,-203.2113"/>
<polygon fill="#191970" stroke="#191970" points="580.3938,-203.083 576.9482,-193.0641 573.3939,-203.045 580.3938,-203.083"/>
</g>
<!-- Node27 -->
<g id="node28" class="node">
<title>Node27</title>
<g id="a_node28"><a xlink:href="Position_8h.html" target="_top" xlink:title="Position.h">
<polygon fill="none" stroke="#000000" points="1007.5,-297 1007.5,-316 1072.5,-316 1072.5,-297 1007.5,-297"/>
<text text-anchor="middle" x="1040" y="-304" font-family="FreeSans.ttf" font-size="10.00" fill="#000000">Position.h</text>
</a>
</g>
</g>
<!-- Node26&#45;&gt;Node27 -->
<g id="edge38" class="edge">
<title>Node26&#45;&gt;Node27</title>
<path fill="none" stroke="#191970" d="M647.7368,-358.4918C745.4819,-345.5363 917.4478,-322.7434 997.1788,-312.1757"/>
<polygon fill="#191970" stroke="#191970" points="997.8918,-315.6119 1007.3452,-310.8282 996.972,-308.6725 997.8918,-315.6119"/>
</g>
<!-- Node29 -->
<g id="node30" class="node">
<title>Node29</title>
<g id="a_node30"><a xlink:href="Rotation_8h.html" target="_top" xlink:title="iDynTree/Core/Rotation.h">
<polygon fill="none" stroke="#000000" points="910.5,-235.5 910.5,-254.5 1047.5,-254.5 1047.5,-235.5 910.5,-235.5"/>
<text text-anchor="middle" x="979" y="-242.5" font-family="FreeSans.ttf" font-size="10.00" fill="#000000">iDynTree/Core/Rotation.h</text>
</a>
</g>
</g>
<!-- Node26&#45;&gt;Node29 -->
<g id="edge50" class="edge">
<title>Node26&#45;&gt;Node29</title>
<path fill="none" stroke="#191970" d="M607.2874,-358.4507C679.38,-336.4473 857.175,-282.1823 937.9206,-257.5379"/>
<polygon fill="#191970" stroke="#191970" points="939.1898,-260.81 947.7325,-254.5432 937.1464,-254.1149 939.1898,-260.81"/>
</g>
<!-- Node27&#45;&gt;Node8 -->
<g id="edge49" class="edge">
<title>Node27&#45;&gt;Node8</title>
<path fill="none" stroke="#191970" d="M1072.8766,-303.144C1127.7349,-295.5731 1236.587,-271.6995 1284,-199 1321.3845,-141.6774 1214.893,-95.6663 1158.927,-76.1387"/>
<polygon fill="#191970" stroke="#191970" points="1159.7054,-72.7067 1149.111,-72.8039 1157.4537,-79.3347 1159.7054,-72.7067"/>
</g>
<!-- Node28 -->
<g id="node29" class="node">
<title>Node28</title>
<g id="a_node29"><a xlink:href="PositionRaw_8h.html" target="_top" xlink:title="iDynTree/Core/PositionRaw.h">
<polygon fill="none" stroke="#000000" points="1119,-174 1119,-193 1275,-193 1275,-174 1119,-174"/>
<text text-anchor="middle" x="1197" y="-181" font-family="FreeSans.ttf" font-size="10.00" fill="#000000">iDynTree/Core/PositionRaw.h</text>
</a>
</g>
</g>
<!-- Node27&#45;&gt;Node28 -->
<g id="edge39" class="edge">
<title>Node27&#45;&gt;Node28</title>
<path fill="none" stroke="#191970" d="M1052.3195,-296.8484C1079.2608,-275.7415 1143.6415,-225.3032 1176.6804,-199.4192"/>
<polygon fill="#191970" stroke="#191970" points="1179.0243,-202.0291 1184.7377,-193.1068 1174.7073,-196.5188 1179.0243,-202.0291"/>
</g>
<!-- Node27&#45;&gt;Node29 -->
<g id="edge42" class="edge">
<title>Node27&#45;&gt;Node29</title>
<path fill="none" stroke="#191970" d="M1030.4688,-296.8906C1021.2121,-287.5581 1006.961,-273.1902 995.7997,-261.9374"/>
<polygon fill="#191970" stroke="#191970" points="998.1928,-259.38 988.6656,-254.7449 993.2228,-264.3095 998.1928,-259.38"/>
</g>
<!-- Node28&#45;&gt;Node8 -->
<g id="edge41" class="edge">
<title>Node28&#45;&gt;Node8</title>
<path fill="none" stroke="#191970" d="M1191.2716,-173.8845C1179.6323,-154.3471 1153.0466,-109.7211 1137.968,-84.4106"/>
<polygon fill="#191970" stroke="#191970" points="1140.9325,-82.5481 1132.8075,-75.7484 1134.9188,-86.1307 1140.9325,-82.5481"/>
</g>
<!-- Node28&#45;&gt;Node14 -->
<g id="edge40" class="edge">
<title>Node28&#45;&gt;Node14</title>
<path fill="none" stroke="#191970" d="M1129.1982,-173.9581C1050.376,-162.8653 920.5402,-144.5932 837.7128,-132.9367"/>
<polygon fill="#191970" stroke="#191970" points="837.9915,-129.4415 827.6013,-131.5137 837.0159,-136.3732 837.9915,-129.4415"/>
</g>
<!-- Node29&#45;&gt;Node8 -->
<g id="edge43" class="edge">
<title>Node29&#45;&gt;Node8</title>
<path fill="none" stroke="#191970" d="M1011.4456,-235.4666C1031.1757,-228.2324 1055.6385,-216.5 1072,-199 1102.7323,-166.1293 1117.4443,-113.6854 1123.4668,-85.4752"/>
<polygon fill="#191970" stroke="#191970" points="1126.9081,-86.1147 1125.423,-75.6245 1120.0422,-84.7512 1126.9081,-86.1147"/>
</g>
<!-- Node29&#45;&gt;Node14 -->
<g id="edge48" class="edge">
<title>Node29&#45;&gt;Node14</title>
<path fill="none" stroke="#191970" d="M961.4865,-235.3541C944.6708,-226.0783 918.566,-211.641 896,-199 857.4613,-177.4114 812.9366,-152.1397 785.6262,-136.6008"/>
<polygon fill="#191970" stroke="#191970" points="787.1442,-133.4376 776.7221,-131.5324 783.6813,-139.5211 787.1442,-133.4376"/>
</g>
<!-- Node29&#45;&gt;Node25 -->
<g id="edge44" class="edge">
<title>Node29&#45;&gt;Node25</title>
<path fill="none" stroke="#191970" d="M916.6286,-235.4581C844.3406,-224.3991 725.4109,-206.2047 649.1875,-194.5436"/>
<polygon fill="#191970" stroke="#191970" points="649.6013,-191.0663 639.187,-193.0137 648.5427,-197.9858 649.6013,-191.0663"/>
</g>
<!-- Node30 -->
<g id="node31" class="node">
<title>Node30</title>
<g id="a_node31"><a xlink:href="RotationRaw_8h.html" target="_top" xlink:title="iDynTree/Core/RotationRaw.h">
<polygon fill="none" stroke="#000000" points="905,-174 905,-193 1063,-193 1063,-174 905,-174"/>
<text text-anchor="middle" x="984" y="-181" font-family="FreeSans.ttf" font-size="10.00" fill="#000000">iDynTree/Core/RotationRaw.h</text>
</a>
</g>
</g>
<!-- Node29&#45;&gt;Node30 -->
<g id="edge45" class="edge">
<title>Node29&#45;&gt;Node30</title>
<path fill="none" stroke="#191970" d="M979.7813,-235.3906C980.4743,-226.8657 981.509,-214.1392 982.3802,-203.4235"/>
<polygon fill="#191970" stroke="#191970" points="985.8858,-203.4956 983.2077,-193.2449 978.9088,-202.9283 985.8858,-203.4956"/>
</g>
<!-- Node30&#45;&gt;Node2 -->
<g id="edge46" class="edge">
<title>Node30&#45;&gt;Node2</title>
<path fill="none" stroke="#191970" d="M921.4734,-173.9581C849.0057,-162.8991 729.7801,-144.7047 653.367,-133.0436"/>
<polygon fill="#191970" stroke="#191970" points="653.7553,-129.5624 643.3417,-131.5137 652.6992,-136.4823 653.7553,-129.5624"/>
</g>
<!-- Node30&#45;&gt;Node8 -->
<g id="edge47" class="edge">
<title>Node30&#45;&gt;Node8</title>
<path fill="none" stroke="#191970" d="M995.7023,-173.8845C1020.213,-153.7446 1077.1691,-106.945 1107.375,-82.1255"/>
<polygon fill="#191970" stroke="#191970" points="1109.6317,-84.8012 1115.136,-75.7484 1105.1877,-79.3927 1109.6317,-84.8012"/>
</g>
<!-- Node32 -->
<g id="node33" class="node">
<title>Node32</title>
<g id="a_node33"><a xlink:href="SpatialForceVector_8h.html" target="_top" xlink:title="iDynTree/Core/SpatialForce\lVector.h">
<polygon fill="none" stroke="#000000" points="452,-414.5 452,-444.5 600,-444.5 600,-414.5 452,-414.5"/>
<text text-anchor="start" x="460" y="-432.5" font-family="FreeSans.ttf" font-size="10.00" fill="#000000">iDynTree/Core/SpatialForce</text>
<text text-anchor="middle" x="526" y="-421.5" font-family="FreeSans.ttf" font-size="10.00" fill="#000000">Vector.h</text>
</a>
</g>
</g>
<!-- Node31&#45;&gt;Node32 -->
<g id="edge56" class="edge">
<title>Node31&#45;&gt;Node32</title>
<path fill="none" stroke="#191970" d="M520.8597,-486.9005C521.6111,-478.5099 522.7363,-465.9451 523.7425,-454.7085"/>
<polygon fill="#191970" stroke="#191970" points="527.2488,-454.7941 524.6548,-444.5218 520.2767,-454.1697 527.2488,-454.7941"/>
</g>
<!-- Node32&#45;&gt;Node14 -->
<g id="edge57" class="edge">
<title>Node32&#45;&gt;Node14</title>
<path fill="none" stroke="#191970" d="M502.519,-414.2903C473.8116,-393.6374 429,-353.8202 429,-306.5 429,-306.5 429,-306.5 429,-245 429,-202.4214 449.6995,-190.2533 486,-168 502.1276,-158.1133 601.3765,-143.0704 675.8208,-132.903"/>
<polygon fill="#191970" stroke="#191970" points="676.7107,-136.3144 686.1494,-131.5017 675.7696,-129.3779 676.7107,-136.3144"/>
</g>
<!-- Node32&#45;&gt;Node25 -->
<g id="edge58" class="edge">
<title>Node32&#45;&gt;Node25</title>
<path fill="none" stroke="#191970" d="M509.9365,-414.4715C501.012,-404.9853 490.7716,-391.9224 486,-378 483.1181,-369.5913 483.8841,-366.6334 486,-358 501.1835,-296.0477 542.6159,-231.653 563.9388,-201.3246"/>
<polygon fill="#191970" stroke="#191970" points="566.8888,-203.2163 569.8592,-193.0464 561.1951,-199.1442 566.8888,-203.2163"/>
</g>
<!-- Node32&#45;&gt;Node26 -->
<g id="edge59" class="edge">
<title>Node32&#45;&gt;Node26</title>
<path fill="none" stroke="#191970" d="M538.3596,-414.2977C545.3724,-405.672 554.186,-394.8312 561.5214,-385.8087"/>
<polygon fill="#191970" stroke="#191970" points="564.4018,-387.8141 567.9944,-377.8469 558.9703,-383.3982 564.4018,-387.8141"/>
</g>
<!-- Node33&#45;&gt;Node24 -->
<g id="edge61" class="edge">
<title>Node33&#45;&gt;Node24</title>
<path fill="none" stroke="#191970" d="M823.6519,-486.9005C801.5294,-476.9528 766.3596,-461.1382 738.5326,-448.6254"/>
<polygon fill="#191970" stroke="#191970" points="739.9624,-445.4308 729.4066,-444.5218 737.0916,-451.8151 739.9624,-445.4308"/>
</g>
<!-- Node34&#45;&gt;Node32 -->
<g id="edge63" class="edge">
<title>Node34&#45;&gt;Node32</title>
<path fill="none" stroke="#191970" d="M335.8072,-486.9005C369.8431,-476.6284 424.607,-460.1006 466.6492,-447.4122"/>
<polygon fill="#191970" stroke="#191970" points="467.6642,-450.7619 476.2264,-444.5218 465.6416,-444.0604 467.6642,-450.7619"/>
</g>
<!-- Node35&#45;&gt;Node2 -->
<g id="edge74" class="edge">
<title>Node35&#45;&gt;Node2</title>
<path fill="none" stroke="#191970" d="M996.1392,-486.8226C976.5011,-477.5825 947.3957,-462.5006 925,-445 858.717,-393.2047 733.6585,-219.3113 667,-168 650.5123,-155.3084 630.0379,-144.2021 613.203,-136.0835"/>
<polygon fill="#191970" stroke="#191970" points="614.309,-132.7365 603.769,-131.6592 611.3367,-139.0741 614.309,-132.7365"/>
</g>
<!-- Node35&#45;&gt;Node3 -->
<g id="edge82" class="edge">
<title>Node35&#45;&gt;Node3</title>
<path fill="none" stroke="#191970" d="M967.6704,-486.9507C954.7754,-484.7467 940.904,-482.5863 928,-481 713.4665,-454.6266 652.1958,-499.3813 443,-445 317.3305,-412.3317 247.8634,-431.4493 178,-322 103.8146,-205.7798 334.5148,-111.8706 430.314,-78.7971"/>
<polygon fill="#191970" stroke="#191970" points="431.6185,-82.0504 439.9584,-75.5161 429.364,-75.4234 431.6185,-82.0504"/>
</g>
<!-- Node35&#45;&gt;Node14 -->
<g id="edge71" class="edge">
<title>Node35&#45;&gt;Node14</title>
<path fill="none" stroke="#191970" d="M1003.0406,-486.9777C988.9711,-477.5172 967.8993,-461.9986 953,-445 863.3704,-342.7417 791.8951,-193.2234 768.311,-140.9111"/>
<polygon fill="#191970" stroke="#191970" points="771.3973,-139.2384 764.1282,-131.5305 765.0041,-142.0891 771.3973,-139.2384"/>
</g>
<!-- Node35&#45;&gt;Node24 -->
<g id="edge75" class="edge">
<title>Node35&#45;&gt;Node24</title>
<path fill="none" stroke="#191970" d="M972.2072,-486.9717C921.8783,-476.4995 840.0076,-459.4643 778.4402,-446.6537"/>
<polygon fill="#191970" stroke="#191970" points="778.8589,-443.1659 768.3556,-444.5553 777.4328,-450.0191 778.8589,-443.1659"/>
</g>
<!-- Node35&#45;&gt;Node32 -->
<g id="edge76" class="edge">
<title>Node35&#45;&gt;Node32</title>
<path fill="none" stroke="#191970" d="M965.7315,-486.9689C953.3811,-484.8637 940.2434,-482.7436 928,-481 789.9202,-461.3354 751.8062,-465.8877 610.1013,-445.0988"/>
<polygon fill="#191970" stroke="#191970" points="610.5723,-441.6304 600.1669,-443.6251 609.5451,-448.5547 610.5723,-441.6304"/>
</g>
<!-- Node35&#45;&gt;Node36 -->
<g id="edge67" class="edge">
<title>Node35&#45;&gt;Node36</title>
<path fill="none" stroke="#191970" d="M1096.2546,-486.9965C1162.6254,-478.2555 1260.1342,-463.8068 1344,-445 1348.2095,-444.056 1352.5768,-442.965 1356.9163,-441.8077"/>
<polygon fill="#191970" stroke="#191970" points="1358.21,-445.0807 1366.904,-439.0254 1356.3315,-438.3374 1358.21,-445.0807"/>
</g>
<!-- Node37 -->
<g id="node38" class="node">
<title>Node37</title>
<g id="a_node38"><a xlink:href="VectorDynSize_8h.html" target="_top" xlink:title="iDynTree/Core/VectorDynSize.h">
<polygon fill="none" stroke="#000000" points="858.5,-112.5 858.5,-131.5 1025.5,-131.5 1025.5,-112.5 858.5,-112.5"/>
<text text-anchor="middle" x="942" y="-119.5" font-family="FreeSans.ttf" font-size="10.00" fill="#000000">iDynTree/Core/VectorDynSize.h</text>
</a>
</g>
</g>
<!-- Node35&#45;&gt;Node37 -->
<g id="edge68" class="edge">
<title>Node35&#45;&gt;Node37</title>
<path fill="none" stroke="#191970" d="M1009.5482,-486.7373C993.1316,-467.3095 956.7291,-421.886 936,-378 911.7254,-326.6077 911.3509,-310.8863 901,-255 893.9466,-216.9172 881.1785,-203.7823 896,-168 900.8312,-156.3363 910.2137,-146.0881 919.2518,-138.243"/>
<polygon fill="#191970" stroke="#191970" points="921.7266,-140.7436 927.3148,-131.7423 917.333,-135.2942 921.7266,-140.7436"/>
</g>
<!-- Node38 -->
<g id="node39" class="node">
<title>Node38</title>
<g id="a_node39"><a xlink:href="MatrixDynSize_8h.html" target="_top" xlink:title="iDynTree/Core/MatrixDynSize.h">
<polygon fill="none" stroke="#000000" points="1319.5,-235.5 1319.5,-254.5 1486.5,-254.5 1486.5,-235.5 1319.5,-235.5"/>
<text text-anchor="middle" x="1403" y="-242.5" font-family="FreeSans.ttf" font-size="10.00" fill="#000000">iDynTree/Core/MatrixDynSize.h</text>
</a>
</g>
</g>
<!-- Node35&#45;&gt;Node38 -->
<g id="edge72" class="edge">
<title>Node35&#45;&gt;Node38</title>
<path fill="none" stroke="#191970" d="M1035.6869,-486.8176C1081.5094,-461.5144 1207.3806,-390.6123 1306,-322 1334.1356,-302.4253 1364.8431,-277.372 1384.0099,-261.2532"/>
<polygon fill="#191970" stroke="#191970" points="1386.3437,-263.8633 1391.715,-254.731 1381.8211,-258.5205 1386.3437,-263.8633"/>
</g>
<!-- Node39 -->
<g id="node40" class="node">
<title>Node39</title>
<g id="a_node40"><a xlink:href="Transform_8h.html" target="_top" xlink:title="iDynTree/Core/Transform.h">
<polygon fill="none" stroke="#000000" points="945,-358.5 945,-377.5 1091,-377.5 1091,-358.5 945,-358.5"/>
<text text-anchor="middle" x="1018" y="-365.5" font-family="FreeSans.ttf" font-size="10.00" fill="#000000">iDynTree/Core/Transform.h</text>
</a>
</g>
</g>
<!-- Node35&#45;&gt;Node39 -->
<g id="edge77" class="edge">
<title>Node35&#45;&gt;Node39</title>
<path fill="none" stroke="#191970" d="M1018,-486.8416C1018,-465.9114 1018,-416.004 1018,-387.9762"/>
<polygon fill="#191970" stroke="#191970" points="1021.5001,-387.7704 1018,-377.7705 1014.5001,-387.7705 1021.5001,-387.7704"/>
</g>
<!-- Node37&#45;&gt;Node8 -->
<g id="edge70" class="edge">
<title>Node37&#45;&gt;Node8</title>
<path fill="none" stroke="#191970" d="M973.8026,-112.3733C1007.6945,-102.1141 1061.0503,-85.9631 1095.0127,-75.6827"/>
<polygon fill="#191970" stroke="#191970" points="1096.33,-78.9408 1104.8871,-72.6936 1094.3019,-72.241 1096.33,-78.9408"/>
</g>
<!-- Node37&#45;&gt;Node15 -->
<g id="edge69" class="edge">
<title>Node37&#45;&gt;Node15</title>
<path fill="none" stroke="#191970" d="M910.7131,-112.3733C880.3182,-103.021 834.0107,-88.7725 800.75,-78.5385"/>
<polygon fill="#191970" stroke="#191970" points="801.4658,-75.0968 790.8786,-75.5011 799.4071,-81.7873 801.4658,-75.0968"/>
</g>
<!-- Node38&#45;&gt;Node8 -->
<g id="edge73" class="edge">
<title>Node38&#45;&gt;Node8</title>
<path fill="none" stroke="#191970" d="M1402.581,-235.1812C1400.9627,-210.3829 1393.1055,-144.8697 1355,-112 1325.9872,-86.9736 1214.7005,-73.7734 1159.0598,-68.6183"/>
<polygon fill="#191970" stroke="#191970" points="1159.3044,-65.1263 1149.0322,-67.7209 1158.6803,-72.0985 1159.3044,-65.1263"/>
</g>
<!-- Node39&#45;&gt;Node2 -->
<g id="edge80" class="edge">
<title>Node39&#45;&gt;Node2</title>
<path fill="none" stroke="#191970" d="M1004.9606,-358.439C962.7256,-327.7686 825.2131,-230.231 701,-168 674.9927,-154.9703 644.3517,-143.2813 620.5419,-134.9469"/>
<polygon fill="#191970" stroke="#191970" points="621.3841,-131.5352 610.7894,-131.5863 619.1035,-138.1533 621.3841,-131.5352"/>
</g>
<!-- Node39&#45;&gt;Node8 -->
<g id="edge81" class="edge">
<title>Node39&#45;&gt;Node8</title>
<path fill="none" stroke="#191970" d="M1064.8066,-358.4798C1135.0997,-341.162 1263.6751,-296.8459 1301,-199 1315.7964,-160.2118 1299.5065,-137.8222 1267,-112 1235.4612,-86.9465 1189.7647,-75.3105 1159.2526,-70.0643"/>
<polygon fill="#191970" stroke="#191970" points="1159.5657,-66.5704 1149.1414,-68.4636 1158.4711,-73.4843 1159.5657,-66.5704"/>
</g>
<!-- Node39&#45;&gt;Node27 -->
<g id="edge78" class="edge">
<title>Node39&#45;&gt;Node27</title>
<path fill="none" stroke="#191970" d="M1021.4375,-358.3906C1024.5513,-349.6862 1029.232,-336.6015 1033.114,-325.7494"/>
<polygon fill="#191970" stroke="#191970" points="1036.4412,-326.8394 1036.514,-316.2449 1029.8503,-324.4817 1036.4412,-326.8394"/>
</g>
<!-- Node39&#45;&gt;Node29 -->
<g id="edge79" class="edge">
<title>Node39&#45;&gt;Node29</title>
<path fill="none" stroke="#191970" d="M1013.2206,-358.3176C1008.826,-349.1357 1002.351,-334.8693 998,-322 991.5415,-302.8971 986.2543,-280.4506 982.912,-264.7381"/>
<polygon fill="#191970" stroke="#191970" points="986.2761,-263.721 980.833,-254.6313 979.4197,-265.1314 986.2761,-263.721"/>
</g>
</g>
</svg>
