<?xml version="1.0" encoding="UTF-8" standalone="no"?>
<!DOCTYPE svg PUBLIC "-//W3C//DTD SVG 1.1//EN"
 "http://www.w3.org/Graphics/SVG/1.1/DTD/svg11.dtd">
<!-- Generated by graphviz version 2.40.1 (20161225.0304)
 -->
<!-- Title: AttitudeQuaternionEKF.h Pages: 1 -->
<svg width="1044pt" height="386pt"
 viewBox="0.00 0.00 1043.50 386.00" xmlns="http://www.w3.org/2000/svg" xmlns:xlink="http://www.w3.org/1999/xlink">
<g id="graph0" class="graph" transform="scale(1 1) rotate(0) translate(4 382)">
<title>AttitudeQuaternionEKF.h</title>
<!-- Node0 -->
<g id="node1" class="node">
<title>Node0</title>
<polygon fill="#bfbfbf" stroke="#000000" points="432.5,-358.5 432.5,-377.5 567.5,-377.5 567.5,-358.5 432.5,-358.5"/>
<text text-anchor="middle" x="500" y="-365.5" font-family="FreeSans.ttf" font-size="10.00" fill="#000000">AttitudeQuaternionEKF.h</text>
</g>
<!-- Node1 -->
<g id="node2" class="node">
<title>Node1</title>
<g id="a_node2"><a xlink:href="AttitudeEstimator_8h.html" target="_top" xlink:title="iDynTree/Estimation\l/AttitudeEstimator.h">
<polygon fill="none" stroke="#000000" points="21.5,-291.5 21.5,-321.5 136.5,-321.5 136.5,-291.5 21.5,-291.5"/>
<text text-anchor="start" x="29.5" y="-309.5" font-family="FreeSans.ttf" font-size="10.00" fill="#000000">iDynTree/Estimation</text>
<text text-anchor="middle" x="79" y="-298.5" font-family="FreeSans.ttf" font-size="10.00" fill="#000000">/AttitudeEstimator.h</text>
</a>
</g>
</g>
<!-- Node0&#45;&gt;Node1 -->
<g id="edge1" class="edge">
<title>Node0&#45;&gt;Node1</title>
<path fill="none" stroke="#191970" d="M434.6807,-358.4581C356.5448,-347.044 226.3746,-328.0286 147.0495,-316.4407"/>
<polygon fill="#191970" stroke="#191970" points="147.0827,-312.9085 136.6817,-314.9262 146.0708,-319.835 147.0827,-312.9085"/>
</g>
<!-- Node23 -->
<g id="node24" class="node">
<title>Node23</title>
<g id="a_node24"><a xlink:href="ExtendedKalmanFilter_8h.html" target="_top" xlink:title="iDynTree/Estimation\l/ExtendedKalmanFilter.h">
<polygon fill="none" stroke="#000000" points="634.5,-168.5 634.5,-198.5 769.5,-198.5 769.5,-168.5 634.5,-168.5"/>
<text text-anchor="start" x="642.5" y="-186.5" font-family="FreeSans.ttf" font-size="10.00" fill="#000000">iDynTree/Estimation</text>
<text text-anchor="middle" x="702" y="-175.5" font-family="FreeSans.ttf" font-size="10.00" fill="#000000">/ExtendedKalmanFilter.h</text>
</a>
</g>
</g>
<!-- Node0&#45;&gt;Node23 -->
<g id="edge35" class="edge">
<title>Node0&#45;&gt;Node23</title>
<path fill="none" stroke="#191970" d="M510.576,-358.3402C541.744,-329.8725 633.8128,-245.7799 677.9166,-205.4969"/>
<polygon fill="#191970" stroke="#191970" points="680.2952,-208.0647 685.3185,-198.7363 675.5744,-202.8961 680.2952,-208.0647"/>
</g>
<!-- Node27 -->
<g id="node28" class="node">
<title>Node27</title>
<g id="a_node28"><a xlink:href="Direction_8h.html" target="_top" xlink:title="iDynTree/Core/Direction.h">
<polygon fill="none" stroke="#000000" points="429.5,-174 429.5,-193 570.5,-193 570.5,-174 429.5,-174"/>
<text text-anchor="middle" x="500" y="-181" font-family="FreeSans.ttf" font-size="10.00" fill="#000000">iDynTree/Core/Direction.h</text>
</a>
</g>
</g>
<!-- Node0&#45;&gt;Node27 -->
<g id="edge43" class="edge">
<title>Node0&#45;&gt;Node27</title>
<path fill="none" stroke="#191970" d="M500,-358.3402C500,-329.3223 500,-242.5088 500,-203.2113"/>
<polygon fill="#191970" stroke="#191970" points="503.5001,-203.0641 500,-193.0641 496.5001,-203.0642 503.5001,-203.0641"/>
</g>
<!-- Node2 -->
<g id="node3" class="node">
<title>Node2</title>
<g id="a_node3"><a xlink:href="VectorFixSize_8h.html" target="_top" xlink:title="iDynTree/Core/VectorFixSize.h">
<polygon fill="none" stroke="#000000" points="249.5,-112.5 249.5,-131.5 410.5,-131.5 410.5,-112.5 249.5,-112.5"/>
<text text-anchor="middle" x="330" y="-119.5" font-family="FreeSans.ttf" font-size="10.00" fill="#000000">iDynTree/Core/VectorFixSize.h</text>
</a>
</g>
</g>
<!-- Node1&#45;&gt;Node2 -->
<g id="edge2" class="edge">
<title>Node1&#45;&gt;Node2</title>
<path fill="none" stroke="#191970" d="M68.8085,-291.1492C51.6607,-263.2179 21.7348,-203.6846 52,-168 58.4198,-160.4306 168.4485,-143.9686 248.1261,-132.9327"/>
<polygon fill="#191970" stroke="#191970" points="248.7442,-136.3807 258.1725,-131.5476 247.7881,-129.4463 248.7442,-136.3807"/>
</g>
<!-- Node18 -->
<g id="node19" class="node">
<title>Node18</title>
<g id="a_node19"><a xlink:href="Rotation_8h.html" target="_top" xlink:title="iDynTree/Core/Rotation.h">
<polygon fill="none" stroke="#000000" points="82.5,-235.5 82.5,-254.5 219.5,-254.5 219.5,-235.5 82.5,-235.5"/>
<text text-anchor="middle" x="151" y="-242.5" font-family="FreeSans.ttf" font-size="10.00" fill="#000000">iDynTree/Core/Rotation.h</text>
</a>
</g>
</g>
<!-- Node1&#45;&gt;Node18 -->
<g id="edge20" class="edge">
<title>Node1&#45;&gt;Node18</title>
<path fill="none" stroke="#191970" d="M96.7978,-291.2977C107.4167,-282.2274 120.9031,-270.7077 131.7667,-261.4285"/>
<polygon fill="#191970" stroke="#191970" points="134.1413,-264.0031 139.4719,-254.8469 129.5949,-258.6805 134.1413,-264.0031"/>
</g>
<!-- Node22 -->
<g id="node23" class="node">
<title>Node22</title>
<polygon fill="none" stroke="#bfbfbf" points="0,-56.5 0,-75.5 60,-75.5 60,-56.5 0,-56.5"/>
<text text-anchor="middle" x="30" y="-63.5" font-family="FreeSans.ttf" font-size="10.00" fill="#000000">iostream</text>
</g>
<!-- Node1&#45;&gt;Node22 -->
<g id="edge34" class="edge">
<title>Node1&#45;&gt;Node22</title>
<path fill="none" stroke="#191970" d="M63.687,-291.2712C55.1093,-281.7141 45.1324,-268.6468 40,-255 18.0819,-196.7212 23.1325,-121.1654 27.2361,-85.8406"/>
<polygon fill="#191970" stroke="#191970" points="30.7161,-86.2185 28.4998,-75.8581 23.7715,-85.3393 30.7161,-86.2185"/>
</g>
<!-- Node3 -->
<g id="node4" class="node">
<title>Node3</title>
<g id="a_node4"><a xlink:href="Utils_8h.html" target="_top" xlink:title="iDynTree/Core/Utils.h">
<polygon fill="none" stroke="#000000" points="358.5,-56.5 358.5,-75.5 477.5,-75.5 477.5,-56.5 358.5,-56.5"/>
<text text-anchor="middle" x="418" y="-63.5" font-family="FreeSans.ttf" font-size="10.00" fill="#000000">iDynTree/Core/Utils.h</text>
</a>
</g>
</g>
<!-- Node2&#45;&gt;Node3 -->
<g id="edge3" class="edge">
<title>Node2&#45;&gt;Node3</title>
<path fill="none" stroke="#191970" d="M345.3284,-112.2455C358.8303,-103.6534 378.7122,-91.0014 394.2686,-81.1018"/>
<polygon fill="#191970" stroke="#191970" points="396.2897,-83.9643 402.8472,-75.6427 392.5315,-78.0587 396.2897,-83.9643"/>
</g>
<!-- Node6 -->
<g id="node7" class="node">
<title>Node6</title>
<g id="a_node7"><a xlink:href="Span_8h.html" target="_top" xlink:title="iDynTree/Core/Span.h">
<polygon fill="none" stroke="#000000" points="608.5,-56.5 608.5,-75.5 729.5,-75.5 729.5,-56.5 608.5,-56.5"/>
<text text-anchor="middle" x="669" y="-63.5" font-family="FreeSans.ttf" font-size="10.00" fill="#000000">iDynTree/Core/Span.h</text>
</a>
</g>
</g>
<!-- Node2&#45;&gt;Node6 -->
<g id="edge6" class="edge">
<title>Node2&#45;&gt;Node6</title>
<path fill="none" stroke="#191970" d="M387.891,-112.4369C447.0052,-102.6717 538.7227,-87.5207 601.1966,-77.2006"/>
<polygon fill="#191970" stroke="#191970" points="602.052,-80.6068 611.3478,-75.5237 600.911,-73.7004 602.052,-80.6068"/>
</g>
<!-- Node7 -->
<g id="node8" class="node">
<title>Node7</title>
<polygon fill="none" stroke="#bfbfbf" points="263,-.5 263,-19.5 315,-19.5 315,-.5 263,-.5"/>
<text text-anchor="middle" x="289" y="-7.5" font-family="FreeSans.ttf" font-size="10.00" fill="#000000">cassert</text>
</g>
<!-- Node2&#45;&gt;Node7 -->
<g id="edge18" class="edge">
<title>Node2&#45;&gt;Node7</title>
<path fill="none" stroke="#191970" d="M327.7775,-112.4395C324.6402,-99.4557 318.4556,-75.6167 311,-56 307.512,-46.8225 302.9171,-36.9634 298.829,-28.7357"/>
<polygon fill="#191970" stroke="#191970" points="301.8637,-26.9823 294.2023,-19.6643 295.628,-30.1627 301.8637,-26.9823"/>
</g>
<!-- Node15 -->
<g id="node16" class="node">
<title>Node15</title>
<polygon fill="none" stroke="#bfbfbf" points="496,-56.5 496,-75.5 540,-75.5 540,-56.5 496,-56.5"/>
<text text-anchor="middle" x="518" y="-63.5" font-family="FreeSans.ttf" font-size="10.00" fill="#000000">string</text>
</g>
<!-- Node2&#45;&gt;Node15 -->
<g id="edge16" class="edge">
<title>Node2&#45;&gt;Node15</title>
<path fill="none" stroke="#191970" d="M363.4617,-112.4796C393.3108,-103.9242 438.4317,-90.8384 486.1065,-76.2245"/>
<polygon fill="#191970" stroke="#191970" points="487.1427,-79.5676 495.6717,-73.2822 485.0846,-72.877 487.1427,-79.5676"/>
</g>
<!-- Node16 -->
<g id="node17" class="node">
<title>Node16</title>
<polygon fill="none" stroke="#bfbfbf" points="246,-56.5 246,-75.5 302,-75.5 302,-56.5 246,-56.5"/>
<text text-anchor="middle" x="274" y="-63.5" font-family="FreeSans.ttf" font-size="10.00" fill="#000000">sstream</text>
</g>
<!-- Node2&#45;&gt;Node16 -->
<g id="edge17" class="edge">
<title>Node2&#45;&gt;Node16</title>
<path fill="none" stroke="#191970" d="M320.2455,-112.2455C312.1352,-104.1352 300.4075,-92.4075 290.7919,-82.7919"/>
<polygon fill="#191970" stroke="#191970" points="293.1887,-80.2389 283.6427,-75.6427 288.2389,-85.1887 293.1887,-80.2389"/>
</g>
<!-- Node17 -->
<g id="node18" class="node">
<title>Node17</title>
<polygon fill="none" stroke="#bfbfbf" points="178,-56.5 178,-75.5 228,-75.5 228,-56.5 178,-56.5"/>
<text text-anchor="middle" x="203" y="-63.5" font-family="FreeSans.ttf" font-size="10.00" fill="#000000">cstring</text>
</g>
<!-- Node2&#45;&gt;Node17 -->
<g id="edge19" class="edge">
<title>Node2&#45;&gt;Node17</title>
<path fill="none" stroke="#191970" d="M308.1679,-112.3733C287.6897,-103.3435 256.8601,-89.7494 233.8681,-79.6111"/>
<polygon fill="#191970" stroke="#191970" points="235.1093,-76.3333 224.5472,-75.5011 232.285,-82.7383 235.1093,-76.3333"/>
</g>
<!-- Node4 -->
<g id="node5" class="node">
<title>Node4</title>
<polygon fill="none" stroke="#bfbfbf" points="431.5,-.5 431.5,-19.5 484.5,-19.5 484.5,-.5 431.5,-.5"/>
<text text-anchor="middle" x="458" y="-7.5" font-family="FreeSans.ttf" font-size="10.00" fill="#000000">cstddef</text>
</g>
<!-- Node3&#45;&gt;Node4 -->
<g id="edge4" class="edge">
<title>Node3&#45;&gt;Node4</title>
<path fill="none" stroke="#191970" d="M424.9675,-56.2455C430.5311,-48.4564 438.478,-37.3308 445.1829,-27.9439"/>
<polygon fill="#191970" stroke="#191970" points="448.148,-29.8144 451.1124,-19.6427 442.4519,-25.7457 448.148,-29.8144"/>
</g>
<!-- Node5 -->
<g id="node6" class="node">
<title>Node5</title>
<polygon fill="none" stroke="#bfbfbf" points="333,-.5 333,-19.5 413,-19.5 413,-.5 333,-.5"/>
<text text-anchor="middle" x="373" y="-7.5" font-family="FreeSans.ttf" font-size="10.00" fill="#000000">CoreExport.h</text>
</g>
<!-- Node3&#45;&gt;Node5 -->
<g id="edge5" class="edge">
<title>Node3&#45;&gt;Node5</title>
<path fill="none" stroke="#191970" d="M410.1616,-56.2455C403.838,-48.3761 394.7776,-37.101 387.1864,-27.6542"/>
<polygon fill="#191970" stroke="#191970" points="389.7408,-25.2454 380.7486,-19.6427 384.2842,-29.6302 389.7408,-25.2454"/>
</g>
<!-- Node6&#45;&gt;Node4 -->
<g id="edge10" class="edge">
<title>Node6&#45;&gt;Node4</title>
<path fill="none" stroke="#191970" d="M632.0886,-56.4566C598.7211,-47.7942 547.9933,-34.5375 494.7019,-20.1641"/>
<polygon fill="#191970" stroke="#191970" points="495.2918,-16.698 484.725,-17.4681 493.4657,-23.4556 495.2918,-16.698"/>
</g>
<!-- Node6&#45;&gt;Node7 -->
<g id="edge7" class="edge">
<title>Node6&#45;&gt;Node7</title>
<path fill="none" stroke="#191970" d="M608.4077,-60.6198C541.3199,-54.0597 429.8776,-41.378 325.3619,-20.0422"/>
<polygon fill="#191970" stroke="#191970" points="325.7732,-16.5531 315.2709,-17.9503 324.3522,-23.4074 325.7732,-16.5531"/>
</g>
<!-- Node8 -->
<g id="node9" class="node">
<title>Node8</title>
<polygon fill="none" stroke="#bfbfbf" points="870,-.5 870,-19.5 934,-19.5 934,-.5 870,-.5"/>
<text text-anchor="middle" x="902" y="-7.5" font-family="FreeSans.ttf" font-size="10.00" fill="#000000">algorithm</text>
</g>
<!-- Node6&#45;&gt;Node8 -->
<g id="edge8" class="edge">
<title>Node6&#45;&gt;Node8</title>
<path fill="none" stroke="#191970" d="M709.0945,-56.4443C745.8203,-47.6803 801.9647,-34.2542 859.735,-20.2995"/>
<polygon fill="#191970" stroke="#191970" points="860.8762,-23.6245 869.7741,-17.8731 859.2317,-16.8205 860.8762,-23.6245"/>
</g>
<!-- Node9 -->
<g id="node10" class="node">
<title>Node9</title>
<polygon fill="none" stroke="#bfbfbf" points="952,-.5 952,-19.5 994,-19.5 994,-.5 952,-.5"/>
<text text-anchor="middle" x="973" y="-7.5" font-family="FreeSans.ttf" font-size="10.00" fill="#000000">array</text>
</g>
<!-- Node6&#45;&gt;Node9 -->
<g id="edge9" class="edge">
<title>Node6&#45;&gt;Node9</title>
<path fill="none" stroke="#191970" d="M729.688,-58.5689C783.2899,-51.3829 863.6453,-39.0962 941.801,-20.0023"/>
<polygon fill="#191970" stroke="#191970" points="942.9535,-23.3225 951.8148,-17.5149 941.266,-16.5289 942.9535,-23.3225"/>
</g>
<!-- Node10 -->
<g id="node11" class="node">
<title>Node10</title>
<polygon fill="none" stroke="#bfbfbf" points="502.5,-.5 502.5,-19.5 555.5,-19.5 555.5,-.5 502.5,-.5"/>
<text text-anchor="middle" x="529" y="-7.5" font-family="FreeSans.ttf" font-size="10.00" fill="#000000">iterator</text>
</g>
<!-- Node6&#45;&gt;Node10 -->
<g id="edge11" class="edge">
<title>Node6&#45;&gt;Node10</title>
<path fill="none" stroke="#191970" d="M644.9331,-56.3733C622.1572,-47.2629 587.7656,-33.5062 562.351,-23.3404"/>
<polygon fill="#191970" stroke="#191970" points="563.3375,-19.9654 552.7528,-19.5011 560.7377,-26.4648 563.3375,-19.9654"/>
</g>
<!-- Node11 -->
<g id="node12" class="node">
<title>Node11</title>
<polygon fill="none" stroke="#bfbfbf" points="574,-.5 574,-19.5 618,-19.5 618,-.5 574,-.5"/>
<text text-anchor="middle" x="596" y="-7.5" font-family="FreeSans.ttf" font-size="10.00" fill="#000000">limits</text>
</g>
<!-- Node6&#45;&gt;Node11 -->
<g id="edge12" class="edge">
<title>Node6&#45;&gt;Node11</title>
<path fill="none" stroke="#191970" d="M656.2844,-56.2455C645.398,-47.8943 629.5117,-35.7076 616.78,-25.9408"/>
<polygon fill="#191970" stroke="#191970" points="618.6346,-22.9523 608.5699,-19.6427 614.3739,-28.5063 618.6346,-22.9523"/>
</g>
<!-- Node12 -->
<g id="node13" class="node">
<title>Node12</title>
<polygon fill="none" stroke="#bfbfbf" points="636.5,-.5 636.5,-19.5 701.5,-19.5 701.5,-.5 636.5,-.5"/>
<text text-anchor="middle" x="669" y="-7.5" font-family="FreeSans.ttf" font-size="10.00" fill="#000000">stdexcept</text>
</g>
<!-- Node6&#45;&gt;Node12 -->
<g id="edge13" class="edge">
<title>Node6&#45;&gt;Node12</title>
<path fill="none" stroke="#191970" d="M669,-56.2455C669,-48.9382 669,-38.6944 669,-29.7046"/>
<polygon fill="#191970" stroke="#191970" points="672.5001,-29.6426 669,-19.6427 665.5001,-29.6427 672.5001,-29.6426"/>
</g>
<!-- Node13 -->
<g id="node14" class="node">
<title>Node13</title>
<polygon fill="none" stroke="#bfbfbf" points="719.5,-.5 719.5,-19.5 788.5,-19.5 788.5,-.5 719.5,-.5"/>
<text text-anchor="middle" x="754" y="-7.5" font-family="FreeSans.ttf" font-size="10.00" fill="#000000">type_traits</text>
</g>
<!-- Node6&#45;&gt;Node13 -->
<g id="edge14" class="edge">
<title>Node6&#45;&gt;Node13</title>
<path fill="none" stroke="#191970" d="M683.8059,-56.2455C696.7256,-47.7337 715.6931,-35.2375 730.6552,-25.3801"/>
<polygon fill="#191970" stroke="#191970" points="732.9387,-28.067 739.3638,-19.6427 729.0876,-22.2216 732.9387,-28.067"/>
</g>
<!-- Node14 -->
<g id="node15" class="node">
<title>Node14</title>
<polygon fill="none" stroke="#bfbfbf" points="806.5,-.5 806.5,-19.5 851.5,-19.5 851.5,-.5 806.5,-.5"/>
<text text-anchor="middle" x="829" y="-7.5" font-family="FreeSans.ttf" font-size="10.00" fill="#000000">utility</text>
</g>
<!-- Node6&#45;&gt;Node14 -->
<g id="edge15" class="edge">
<title>Node6&#45;&gt;Node14</title>
<path fill="none" stroke="#191970" d="M696.505,-56.3733C724.3188,-46.6384 767.2899,-31.5985 796.7051,-21.3032"/>
<polygon fill="#191970" stroke="#191970" points="798.2148,-24.4831 806.4972,-17.876 795.9023,-17.8761 798.2148,-24.4831"/>
</g>
<!-- Node18&#45;&gt;Node2 -->
<g id="edge33" class="edge">
<title>Node18&#45;&gt;Node2</title>
<path fill="none" stroke="#191970" d="M113.318,-235.3393C94.7287,-228.4646 73.9848,-217.137 63,-199 55.8625,-187.2151 54.1231,-178.537 63,-168 69.1541,-160.6949 175.021,-144.1367 251.568,-133.0112"/>
<polygon fill="#191970" stroke="#191970" points="252.2937,-136.4427 261.6894,-131.5468 251.2913,-129.5149 252.2937,-136.4427"/>
</g>
<!-- Node18&#45;&gt;Node15 -->
<g id="edge21" class="edge">
<title>Node18&#45;&gt;Node15</title>
<path fill="none" stroke="#191970" d="M219.8271,-242.5688C334.9638,-237.7869 556.4076,-225.2574 580,-199 611.5941,-163.8371 564.8151,-109.7739 536.6777,-82.6827"/>
<polygon fill="#191970" stroke="#191970" points="539.0098,-80.0716 529.3165,-75.7949 534.2272,-85.183 539.0098,-80.0716"/>
</g>
<!-- Node19 -->
<g id="node20" class="node">
<title>Node19</title>
<g id="a_node20"><a xlink:href="GeomVector3_8h.html" target="_top" xlink:title="iDynTree/Core/GeomVector3.h">
<polygon fill="none" stroke="#000000" points="248.5,-174 248.5,-193 411.5,-193 411.5,-174 248.5,-174"/>
<text text-anchor="middle" x="330" y="-181" font-family="FreeSans.ttf" font-size="10.00" fill="#000000">iDynTree/Core/GeomVector3.h</text>
</a>
</g>
</g>
<!-- Node18&#45;&gt;Node19 -->
<g id="edge22" class="edge">
<title>Node18&#45;&gt;Node19</title>
<path fill="none" stroke="#191970" d="M178.9688,-235.3906C209.5755,-224.8749 258.7899,-207.966 292.6741,-196.3243"/>
<polygon fill="#191970" stroke="#191970" points="293.9076,-199.6014 302.2276,-193.0419 291.633,-192.9812 293.9076,-199.6014"/>
</g>
<!-- Node20 -->
<g id="node21" class="node">
<title>Node20</title>
<g id="a_node21"><a xlink:href="RotationRaw_8h.html" target="_top" xlink:title="iDynTree/Core/RotationRaw.h">
<polygon fill="none" stroke="#000000" points="72,-174 72,-193 230,-193 230,-174 72,-174"/>
<text text-anchor="middle" x="151" y="-181" font-family="FreeSans.ttf" font-size="10.00" fill="#000000">iDynTree/Core/RotationRaw.h</text>
</a>
</g>
</g>
<!-- Node18&#45;&gt;Node20 -->
<g id="edge24" class="edge">
<title>Node18&#45;&gt;Node20</title>
<path fill="none" stroke="#191970" d="M151,-235.3906C151,-226.8657 151,-214.1392 151,-203.4235"/>
<polygon fill="#191970" stroke="#191970" points="154.5001,-203.2448 151,-193.2449 147.5001,-203.2449 154.5001,-203.2448"/>
</g>
<!-- Node19&#45;&gt;Node2 -->
<g id="edge23" class="edge">
<title>Node19&#45;&gt;Node2</title>
<path fill="none" stroke="#191970" d="M330,-173.8906C330,-165.3657 330,-152.6392 330,-141.9235"/>
<polygon fill="#191970" stroke="#191970" points="333.5001,-141.7448 330,-131.7449 326.5001,-141.7449 333.5001,-141.7448"/>
</g>
<!-- Node20&#45;&gt;Node15 -->
<g id="edge32" class="edge">
<title>Node20&#45;&gt;Node15</title>
<path fill="none" stroke="#191970" d="M203.5512,-173.9983C278.9796,-160.2795 410.0261,-136.1107 420,-132 450.0966,-119.5959 480.5387,-97.208 499.3324,-81.9809"/>
<polygon fill="#191970" stroke="#191970" points="501.6312,-84.6217 507.1046,-75.5502 497.1687,-79.2284 501.6312,-84.6217"/>
</g>
<!-- Node21 -->
<g id="node22" class="node">
<title>Node21</title>
<g id="a_node22"><a xlink:href="MatrixFixSize_8h.html" target="_top" xlink:title="iDynTree/Core/MatrixFixSize.h">
<polygon fill="none" stroke="#000000" points="70.5,-112.5 70.5,-131.5 231.5,-131.5 231.5,-112.5 70.5,-112.5"/>
<text text-anchor="middle" x="151" y="-119.5" font-family="FreeSans.ttf" font-size="10.00" fill="#000000">iDynTree/Core/MatrixFixSize.h</text>
</a>
</g>
</g>
<!-- Node20&#45;&gt;Node21 -->
<g id="edge25" class="edge">
<title>Node20&#45;&gt;Node21</title>
<path fill="none" stroke="#191970" d="M151,-173.8906C151,-165.3657 151,-152.6392 151,-141.9235"/>
<polygon fill="#191970" stroke="#191970" points="154.5001,-141.7448 151,-131.7449 147.5001,-141.7449 154.5001,-141.7448"/>
</g>
<!-- Node21&#45;&gt;Node3 -->
<g id="edge26" class="edge">
<title>Node21&#45;&gt;Node3</title>
<path fill="none" stroke="#191970" d="M196.5956,-112.4369C242.5785,-102.7925 313.6088,-87.8948 362.7606,-77.5858"/>
<polygon fill="#191970" stroke="#191970" points="363.5239,-81.0019 372.5925,-75.5237 362.087,-74.151 363.5239,-81.0019"/>
</g>
<!-- Node21&#45;&gt;Node7 -->
<g id="edge27" class="edge">
<title>Node21&#45;&gt;Node7</title>
<path fill="none" stroke="#191970" d="M151.0248,-112.1944C151.5844,-98.0415 154.6561,-71.852 169,-56 190.6078,-32.1204 225.9976,-20.5453 252.7589,-14.9908"/>
<polygon fill="#191970" stroke="#191970" points="253.7267,-18.3703 262.9076,-13.0824 252.433,-11.4908 253.7267,-18.3703"/>
</g>
<!-- Node21&#45;&gt;Node15 -->
<g id="edge29" class="edge">
<title>Node21&#45;&gt;Node15</title>
<path fill="none" stroke="#191970" d="M231.7554,-112.6034C310.5415,-103.1556 425.9381,-88.5048 485.6467,-75.9268"/>
<polygon fill="#191970" stroke="#191970" points="486.7716,-79.2627 495.7795,-73.6852 485.2595,-72.4279 486.7716,-79.2627"/>
</g>
<!-- Node21&#45;&gt;Node16 -->
<g id="edge31" class="edge">
<title>Node21&#45;&gt;Node16</title>
<path fill="none" stroke="#191970" d="M172.1445,-112.3733C191.8892,-103.3838 221.5698,-89.8706 243.8055,-79.7471"/>
<polygon fill="#191970" stroke="#191970" points="245.4806,-82.8302 253.1315,-75.5011 242.58,-76.4594 245.4806,-82.8302"/>
</g>
<!-- Node21&#45;&gt;Node17 -->
<g id="edge28" class="edge">
<title>Node21&#45;&gt;Node17</title>
<path fill="none" stroke="#191970" d="M160.0577,-112.2455C167.5142,-104.2155 178.2634,-92.6394 187.1417,-83.0781"/>
<polygon fill="#191970" stroke="#191970" points="189.8063,-85.3522 194.0461,-75.6427 184.6768,-80.589 189.8063,-85.3522"/>
</g>
<!-- Node21&#45;&gt;Node22 -->
<g id="edge30" class="edge">
<title>Node21&#45;&gt;Node22</title>
<path fill="none" stroke="#191970" d="M130.1994,-112.3733C110.7757,-103.3838 81.5776,-89.8706 59.7036,-79.7471"/>
<polygon fill="#191970" stroke="#191970" points="61.0745,-76.5249 50.5292,-75.5011 58.1344,-82.8776 61.0745,-76.5249"/>
</g>
<!-- Node23&#45;&gt;Node3 -->
<g id="edge41" class="edge">
<title>Node23&#45;&gt;Node3</title>
<path fill="none" stroke="#191970" d="M665.7427,-168.4992C609.9959,-145.4349 504.0871,-101.617 450.6187,-79.4954"/>
<polygon fill="#191970" stroke="#191970" points="451.8476,-76.2162 441.2692,-75.6272 449.1715,-82.6844 451.8476,-76.2162"/>
</g>
<!-- Node24 -->
<g id="node25" class="node">
<title>Node24</title>
<g id="a_node25"><a xlink:href="VectorDynSize_8h.html" target="_top" xlink:title="iDynTree/Core/VectorDynSize.h">
<polygon fill="none" stroke="#000000" points="868.5,-112.5 868.5,-131.5 1035.5,-131.5 1035.5,-112.5 868.5,-112.5"/>
<text text-anchor="middle" x="952" y="-119.5" font-family="FreeSans.ttf" font-size="10.00" fill="#000000">iDynTree/Core/VectorDynSize.h</text>
</a>
</g>
</g>
<!-- Node23&#45;&gt;Node24 -->
<g id="edge36" class="edge">
<title>Node23&#45;&gt;Node24</title>
<path fill="none" stroke="#191970" d="M763.1569,-168.4554C806.3336,-157.8339 863.4021,-143.7951 903.46,-133.9408"/>
<polygon fill="#191970" stroke="#191970" points="904.3845,-137.3178 913.2589,-131.5303 902.7123,-130.5205 904.3845,-137.3178"/>
</g>
<!-- Node25 -->
<g id="node26" class="node">
<title>Node25</title>
<g id="a_node26"><a xlink:href="MatrixDynSize_8h.html" target="_top" xlink:title="iDynTree/Core/MatrixDynSize.h">
<polygon fill="none" stroke="#000000" points="618.5,-112.5 618.5,-131.5 785.5,-131.5 785.5,-112.5 618.5,-112.5"/>
<text text-anchor="middle" x="702" y="-119.5" font-family="FreeSans.ttf" font-size="10.00" fill="#000000">iDynTree/Core/MatrixDynSize.h</text>
</a>
</g>
</g>
<!-- Node23&#45;&gt;Node25 -->
<g id="edge39" class="edge">
<title>Node23&#45;&gt;Node25</title>
<path fill="none" stroke="#191970" d="M702,-168.2977C702,-160.3834 702,-150.6043 702,-142.0759"/>
<polygon fill="#191970" stroke="#191970" points="705.5001,-141.8469 702,-131.8469 698.5001,-141.847 705.5001,-141.8469"/>
</g>
<!-- Node26 -->
<g id="node27" class="node">
<title>Node26</title>
<polygon fill="none" stroke="#bfbfbf" points="803.5,-112.5 803.5,-131.5 850.5,-131.5 850.5,-112.5 803.5,-112.5"/>
<text text-anchor="middle" x="827" y="-119.5" font-family="FreeSans.ttf" font-size="10.00" fill="#000000">vector</text>
</g>
<!-- Node23&#45;&gt;Node26 -->
<g id="edge42" class="edge">
<title>Node23&#45;&gt;Node26</title>
<path fill="none" stroke="#191970" d="M732.5784,-168.4554C752.7032,-158.554 778.8639,-145.683 798.5438,-136.0004"/>
<polygon fill="#191970" stroke="#191970" points="800.2018,-139.0855 807.6294,-131.5303 797.1115,-132.8045 800.2018,-139.0855"/>
</g>
<!-- Node24&#45;&gt;Node6 -->
<g id="edge37" class="edge">
<title>Node24&#45;&gt;Node6</title>
<path fill="none" stroke="#191970" d="M903.6721,-112.4369C854.8319,-102.7724 779.3324,-87.8326 727.2236,-77.5213"/>
<polygon fill="#191970" stroke="#191970" points="727.6178,-74.0315 717.1285,-75.5237 726.2589,-80.8983 727.6178,-74.0315"/>
</g>
<!-- Node24&#45;&gt;Node15 -->
<g id="edge38" class="edge">
<title>Node24&#45;&gt;Node15</title>
<path fill="none" stroke="#191970" d="M877.8859,-112.4369C782.0565,-100.0718 619.3028,-79.0713 550.3771,-70.1777"/>
<polygon fill="#191970" stroke="#191970" points="550.5109,-66.666 540.1452,-68.8574 549.615,-73.6085 550.5109,-66.666"/>
</g>
<!-- Node25&#45;&gt;Node15 -->
<g id="edge40" class="edge">
<title>Node25&#45;&gt;Node15</title>
<path fill="none" stroke="#191970" d="M670.3693,-112.3733C636.7538,-102.1425 583.8862,-86.0523 550.0948,-75.768"/>
<polygon fill="#191970" stroke="#191970" points="550.8485,-72.3389 540.2627,-72.7756 548.8103,-79.0356 550.8485,-72.3389"/>
</g>
<!-- Node27&#45;&gt;Node2 -->
<g id="edge45" class="edge">
<title>Node27&#45;&gt;Node2</title>
<path fill="none" stroke="#191970" d="M473.4375,-173.8906C444.4944,-163.42 398.0306,-146.6111 365.8644,-134.9745"/>
<polygon fill="#191970" stroke="#191970" points="366.9702,-131.6526 356.376,-131.5419 364.5889,-138.2351 366.9702,-131.6526"/>
</g>
<!-- Node27&#45;&gt;Node3 -->
<g id="edge46" class="edge">
<title>Node27&#45;&gt;Node3</title>
<path fill="none" stroke="#191970" d="M493.2896,-173.8845C479.5949,-154.261 448.237,-109.3274 430.6156,-84.0772"/>
<polygon fill="#191970" stroke="#191970" points="433.3963,-81.9459 424.8031,-75.7484 427.6559,-85.9519 433.3963,-81.9459"/>
</g>
<!-- Node27&#45;&gt;Node15 -->
<g id="edge44" class="edge">
<title>Node27&#45;&gt;Node15</title>
<path fill="none" stroke="#191970" d="M501.473,-173.8845C504.4132,-154.6913 511.0626,-111.286 514.972,-85.7663"/>
<polygon fill="#191970" stroke="#191970" points="518.4519,-86.1631 516.5066,-75.7484 511.5327,-85.1031 518.4519,-86.1631"/>
</g>
</g>
</svg>
