<?xml version="1.0" encoding="UTF-8" standalone="no"?>
<!DOCTYPE svg PUBLIC "-//W3C//DTD SVG 1.1//EN"
 "http://www.w3.org/Graphics/SVG/1.1/DTD/svg11.dtd">
<!-- Generated by graphviz version 2.40.1 (20161225.0304)
 -->
<!-- Title: AttitudeMahonyFilter.h Pages: 1 -->
<svg width="874pt" height="375pt"
 viewBox="0.00 0.00 874.00 375.00" xmlns="http://www.w3.org/2000/svg" xmlns:xlink="http://www.w3.org/1999/xlink">
<g id="graph0" class="graph" transform="scale(1 1) rotate(0) translate(4 371)">
<title>AttitudeMahonyFilter.h</title>
<!-- Node0 -->
<g id="node1" class="node">
<title>Node0</title>
<polygon fill="#bfbfbf" stroke="#000000" points="298,-347.5 298,-366.5 424,-366.5 424,-347.5 298,-347.5"/>
<text text-anchor="middle" x="361" y="-354.5" font-family="FreeSans.ttf" font-size="10.00" fill="#000000">AttitudeMahonyFilter.h</text>
</g>
<!-- Node1 -->
<g id="node2" class="node">
<title>Node1</title>
<g id="a_node2"><a xlink:href="AttitudeEstimator_8h.html" target="_top" xlink:title="iDynTree/Estimation\l/AttitudeEstimator.h">
<polygon fill="none" stroke="#000000" points="432.5,-280.5 432.5,-310.5 547.5,-310.5 547.5,-280.5 432.5,-280.5"/>
<text text-anchor="start" x="440.5" y="-298.5" font-family="FreeSans.ttf" font-size="10.00" fill="#000000">iDynTree/Estimation</text>
<text text-anchor="middle" x="490" y="-287.5" font-family="FreeSans.ttf" font-size="10.00" fill="#000000">/AttitudeEstimator.h</text>
</a>
</g>
</g>
<!-- Node0&#45;&gt;Node1 -->
<g id="edge1" class="edge">
<title>Node0&#45;&gt;Node1</title>
<path fill="none" stroke="#191970" d="M381.1563,-347.3906C399.3423,-338.7205 426.6441,-325.7046 449.3537,-314.8779"/>
<polygon fill="#191970" stroke="#191970" points="450.9226,-318.0074 458.443,-310.5446 447.9102,-311.6887 450.9226,-318.0074"/>
</g>
<!-- Node23 -->
<g id="node24" class="node">
<title>Node23</title>
<g id="a_node24"><a xlink:href="Direction_8h.html" target="_top" xlink:title="iDynTree/Core/Direction.h">
<polygon fill="none" stroke="#000000" points="216.5,-168.5 216.5,-187.5 357.5,-187.5 357.5,-168.5 216.5,-168.5"/>
<text text-anchor="middle" x="287" y="-175.5" font-family="FreeSans.ttf" font-size="10.00" fill="#000000">iDynTree/Core/Direction.h</text>
</a>
</g>
</g>
<!-- Node0&#45;&gt;Node23 -->
<g id="edge35" class="edge">
<title>Node0&#45;&gt;Node23</title>
<path fill="none" stroke="#191970" d="M357.0214,-347.3762C345.2768,-318.9669 310.5985,-235.0828 294.8907,-197.0871"/>
<polygon fill="#191970" stroke="#191970" points="298.0533,-195.5756 290.9982,-187.6714 291.5843,-198.25 298.0533,-195.5756"/>
</g>
<!-- Node2 -->
<g id="node3" class="node">
<title>Node2</title>
<g id="a_node3"><a xlink:href="VectorFixSize_8h.html" target="_top" xlink:title="iDynTree/Core/VectorFixSize.h">
<polygon fill="none" stroke="#000000" points="375.5,-112.5 375.5,-131.5 536.5,-131.5 536.5,-112.5 375.5,-112.5"/>
<text text-anchor="middle" x="456" y="-119.5" font-family="FreeSans.ttf" font-size="10.00" fill="#000000">iDynTree/Core/VectorFixSize.h</text>
</a>
</g>
</g>
<!-- Node1&#45;&gt;Node2 -->
<g id="edge2" class="edge">
<title>Node1&#45;&gt;Node2</title>
<path fill="none" stroke="#191970" d="M472.1632,-280.1904C451.4054,-261.0743 418.2795,-226.2051 405,-188 402.0816,-179.6038 401.3881,-176.122 405,-168 410.4508,-155.7432 420.9599,-145.3755 431.0289,-137.6036"/>
<polygon fill="#191970" stroke="#191970" points="433.1744,-140.3721 439.2627,-131.7012 429.096,-134.6828 433.1744,-140.3721"/>
</g>
<!-- Node18 -->
<g id="node19" class="node">
<title>Node18</title>
<g id="a_node19"><a xlink:href="Rotation_8h.html" target="_top" xlink:title="iDynTree/Core/Rotation.h">
<polygon fill="none" stroke="#000000" points="537.5,-224.5 537.5,-243.5 674.5,-243.5 674.5,-224.5 537.5,-224.5"/>
<text text-anchor="middle" x="606" y="-231.5" font-family="FreeSans.ttf" font-size="10.00" fill="#000000">iDynTree/Core/Rotation.h</text>
</a>
</g>
</g>
<!-- Node1&#45;&gt;Node18 -->
<g id="edge20" class="edge">
<title>Node1&#45;&gt;Node18</title>
<path fill="none" stroke="#191970" d="M518.3768,-280.4554C536.8828,-270.644 560.8888,-257.9167 579.0931,-248.2653"/>
<polygon fill="#191970" stroke="#191970" points="580.8285,-251.3068 588.0241,-243.5303 577.5495,-245.1222 580.8285,-251.3068"/>
</g>
<!-- Node22 -->
<g id="node23" class="node">
<title>Node22</title>
<polygon fill="none" stroke="#bfbfbf" points="806,-56.5 806,-75.5 866,-75.5 866,-56.5 806,-56.5"/>
<text text-anchor="middle" x="836" y="-63.5" font-family="FreeSans.ttf" font-size="10.00" fill="#000000">iostream</text>
</g>
<!-- Node1&#45;&gt;Node22 -->
<g id="edge34" class="edge">
<title>Node1&#45;&gt;Node22</title>
<path fill="none" stroke="#191970" d="M547.6875,-284.774C633.0177,-267.6406 786.4379,-231.5508 820,-188 842.831,-158.3741 841.9162,-112.2039 839.0573,-85.9787"/>
<polygon fill="#191970" stroke="#191970" points="842.4897,-85.2306 837.7311,-75.7646 835.548,-86.1321 842.4897,-85.2306"/>
</g>
<!-- Node3 -->
<g id="node4" class="node">
<title>Node3</title>
<g id="a_node4"><a xlink:href="Utils_8h.html" target="_top" xlink:title="iDynTree/Core/Utils.h">
<polygon fill="none" stroke="#000000" points="223.5,-56.5 223.5,-75.5 342.5,-75.5 342.5,-56.5 223.5,-56.5"/>
<text text-anchor="middle" x="283" y="-63.5" font-family="FreeSans.ttf" font-size="10.00" fill="#000000">iDynTree/Core/Utils.h</text>
</a>
</g>
</g>
<!-- Node2&#45;&gt;Node3 -->
<g id="edge3" class="edge">
<title>Node2&#45;&gt;Node3</title>
<path fill="none" stroke="#191970" d="M426.2602,-112.3733C397.493,-103.0613 353.73,-88.8953 322.1444,-78.671"/>
<polygon fill="#191970" stroke="#191970" points="322.9436,-75.251 312.3517,-75.5011 320.7878,-81.9107 322.9436,-75.251"/>
</g>
<!-- Node6 -->
<g id="node7" class="node">
<title>Node6</title>
<g id="a_node7"><a xlink:href="Span_8h.html" target="_top" xlink:title="iDynTree/Core/Span.h">
<polygon fill="none" stroke="#000000" points="360.5,-56.5 360.5,-75.5 481.5,-75.5 481.5,-56.5 360.5,-56.5"/>
<text text-anchor="middle" x="421" y="-63.5" font-family="FreeSans.ttf" font-size="10.00" fill="#000000">iDynTree/Core/Span.h</text>
</a>
</g>
</g>
<!-- Node2&#45;&gt;Node6 -->
<g id="edge6" class="edge">
<title>Node2&#45;&gt;Node6</title>
<path fill="none" stroke="#191970" d="M449.9035,-112.2455C445.0855,-104.5367 438.2249,-93.5598 432.3968,-84.2348"/>
<polygon fill="#191970" stroke="#191970" points="435.2947,-82.2677 427.0267,-75.6427 429.3587,-85.9777 435.2947,-82.2677"/>
</g>
<!-- Node7 -->
<g id="node8" class="node">
<title>Node7</title>
<polygon fill="none" stroke="#bfbfbf" points="679,-.5 679,-19.5 731,-19.5 731,-.5 679,-.5"/>
<text text-anchor="middle" x="705" y="-7.5" font-family="FreeSans.ttf" font-size="10.00" fill="#000000">cassert</text>
</g>
<!-- Node2&#45;&gt;Node7 -->
<g id="edge18" class="edge">
<title>Node2&#45;&gt;Node7</title>
<path fill="none" stroke="#191970" d="M463.9044,-112.3297C476.2631,-97.8591 501.6005,-70.7037 529,-56 583.2067,-26.9104 605.3746,-35.866 668.5807,-20.2267"/>
<polygon fill="#191970" stroke="#191970" points="669.848,-23.5139 678.649,-17.6153 668.0905,-16.7381 669.848,-23.5139"/>
</g>
<!-- Node15 -->
<g id="node16" class="node">
<title>Node15</title>
<polygon fill="none" stroke="#bfbfbf" points="722,-56.5 722,-75.5 766,-75.5 766,-56.5 722,-56.5"/>
<text text-anchor="middle" x="744" y="-63.5" font-family="FreeSans.ttf" font-size="10.00" fill="#000000">string</text>
</g>
<!-- Node2&#45;&gt;Node15 -->
<g id="edge16" class="edge">
<title>Node2&#45;&gt;Node15</title>
<path fill="none" stroke="#191970" d="M505.1817,-112.4369C564.277,-100.9461 661.7246,-81.998 711.9162,-72.2385"/>
<polygon fill="#191970" stroke="#191970" points="712.7303,-75.6459 721.8784,-70.3014 711.3942,-68.7745 712.7303,-75.6459"/>
</g>
<!-- Node16 -->
<g id="node17" class="node">
<title>Node16</title>
<polygon fill="none" stroke="#bfbfbf" points="538,-56.5 538,-75.5 594,-75.5 594,-56.5 538,-56.5"/>
<text text-anchor="middle" x="566" y="-63.5" font-family="FreeSans.ttf" font-size="10.00" fill="#000000">sstream</text>
</g>
<!-- Node2&#45;&gt;Node16 -->
<g id="edge17" class="edge">
<title>Node2&#45;&gt;Node16</title>
<path fill="none" stroke="#191970" d="M475.1605,-112.2455C492.5111,-103.4125 518.2901,-90.2887 537.9583,-80.2758"/>
<polygon fill="#191970" stroke="#191970" points="539.7353,-83.2986 547.059,-75.6427 536.5595,-77.0605 539.7353,-83.2986"/>
</g>
<!-- Node17 -->
<g id="node18" class="node">
<title>Node17</title>
<polygon fill="none" stroke="#bfbfbf" points="612,-56.5 612,-75.5 662,-75.5 662,-56.5 612,-56.5"/>
<text text-anchor="middle" x="637" y="-63.5" font-family="FreeSans.ttf" font-size="10.00" fill="#000000">cstring</text>
</g>
<!-- Node2&#45;&gt;Node17 -->
<g id="edge19" class="edge">
<title>Node2&#45;&gt;Node17</title>
<path fill="none" stroke="#191970" d="M487.115,-112.3733C519.0832,-102.4825 568.7515,-87.1156 602.0528,-76.8124"/>
<polygon fill="#191970" stroke="#191970" points="603.3058,-80.0885 611.8245,-73.7891 601.2368,-73.4012 603.3058,-80.0885"/>
</g>
<!-- Node4 -->
<g id="node5" class="node">
<title>Node4</title>
<polygon fill="none" stroke="#bfbfbf" points="98.5,-.5 98.5,-19.5 151.5,-19.5 151.5,-.5 98.5,-.5"/>
<text text-anchor="middle" x="125" y="-7.5" font-family="FreeSans.ttf" font-size="10.00" fill="#000000">cstddef</text>
</g>
<!-- Node3&#45;&gt;Node4 -->
<g id="edge4" class="edge">
<title>Node3&#45;&gt;Node4</title>
<path fill="none" stroke="#191970" d="M255.8388,-56.3733C229.7144,-47.114 190.0489,-33.0553 161.2407,-22.8448"/>
<polygon fill="#191970" stroke="#191970" points="162.1385,-19.4497 151.5438,-19.4079 159.8,-26.0476 162.1385,-19.4497"/>
</g>
<!-- Node5 -->
<g id="node6" class="node">
<title>Node5</title>
<polygon fill="none" stroke="#bfbfbf" points="0,-.5 0,-19.5 80,-19.5 80,-.5 0,-.5"/>
<text text-anchor="middle" x="40" y="-7.5" font-family="FreeSans.ttf" font-size="10.00" fill="#000000">CoreExport.h</text>
</g>
<!-- Node3&#45;&gt;Node5 -->
<g id="edge5" class="edge">
<title>Node3&#45;&gt;Node5</title>
<path fill="none" stroke="#191970" d="M241.5029,-56.4369C199.5373,-46.7658 134.6493,-31.8122 89.9026,-21.5002"/>
<polygon fill="#191970" stroke="#191970" points="90.6449,-18.0796 80.1143,-19.2444 89.0728,-24.9008 90.6449,-18.0796"/>
</g>
<!-- Node6&#45;&gt;Node4 -->
<g id="edge10" class="edge">
<title>Node6&#45;&gt;Node4</title>
<path fill="none" stroke="#191970" d="M360.254,-57.1244C309.4086,-49.2793 234.7886,-36.8011 161.5351,-20.1932"/>
<polygon fill="#191970" stroke="#191970" points="162.2084,-16.7568 151.6788,-17.9313 160.6426,-23.5795 162.2084,-16.7568"/>
</g>
<!-- Node6&#45;&gt;Node7 -->
<g id="edge7" class="edge">
<title>Node6&#45;&gt;Node7</title>
<path fill="none" stroke="#191970" d="M481.4606,-56.494C529.8191,-48.5115 599.5199,-36.1607 668.9104,-20.0978"/>
<polygon fill="#191970" stroke="#191970" points="669.7584,-23.494 678.6973,-17.8067 668.1628,-16.6783 669.7584,-23.494"/>
</g>
<!-- Node8 -->
<g id="node9" class="node">
<title>Node8</title>
<polygon fill="none" stroke="#bfbfbf" points="537,-.5 537,-19.5 601,-19.5 601,-.5 537,-.5"/>
<text text-anchor="middle" x="569" y="-7.5" font-family="FreeSans.ttf" font-size="10.00" fill="#000000">algorithm</text>
</g>
<!-- Node6&#45;&gt;Node8 -->
<g id="edge8" class="edge">
<title>Node6&#45;&gt;Node8</title>
<path fill="none" stroke="#191970" d="M446.4421,-56.3733C470.7326,-47.1822 507.5208,-33.2624 534.4543,-23.0713"/>
<polygon fill="#191970" stroke="#191970" points="535.7757,-26.3136 543.8899,-19.5011 533.2984,-19.7666 535.7757,-26.3136"/>
</g>
<!-- Node9 -->
<g id="node10" class="node">
<title>Node9</title>
<polygon fill="none" stroke="#bfbfbf" points="619,-.5 619,-19.5 661,-19.5 661,-.5 619,-.5"/>
<text text-anchor="middle" x="640" y="-7.5" font-family="FreeSans.ttf" font-size="10.00" fill="#000000">array</text>
</g>
<!-- Node6&#45;&gt;Node9 -->
<g id="edge9" class="edge">
<title>Node6&#45;&gt;Node9</title>
<path fill="none" stroke="#191970" d="M464.81,-56.4225C501.1112,-48.2436 554.2321,-35.7176 608.902,-20.1567"/>
<polygon fill="#191970" stroke="#191970" points="610.1195,-23.4485 618.7629,-17.3212 608.185,-16.7211 610.1195,-23.4485"/>
</g>
<!-- Node10 -->
<g id="node11" class="node">
<title>Node10</title>
<polygon fill="none" stroke="#bfbfbf" points="169.5,-.5 169.5,-19.5 222.5,-19.5 222.5,-.5 169.5,-.5"/>
<text text-anchor="middle" x="196" y="-7.5" font-family="FreeSans.ttf" font-size="10.00" fill="#000000">iterator</text>
</g>
<!-- Node6&#45;&gt;Node10 -->
<g id="edge11" class="edge">
<title>Node6&#45;&gt;Node10</title>
<path fill="none" stroke="#191970" d="M379.9809,-56.4188C343.73,-47.8614 289.1887,-34.7684 232.557,-20.0862"/>
<polygon fill="#191970" stroke="#191970" points="233.2698,-16.6551 222.7105,-17.5226 231.5061,-23.4293 233.2698,-16.6551"/>
</g>
<!-- Node11 -->
<g id="node12" class="node">
<title>Node11</title>
<polygon fill="none" stroke="#bfbfbf" points="241,-.5 241,-19.5 285,-19.5 285,-.5 241,-.5"/>
<text text-anchor="middle" x="263" y="-7.5" font-family="FreeSans.ttf" font-size="10.00" fill="#000000">limits</text>
</g>
<!-- Node6&#45;&gt;Node11 -->
<g id="edge12" class="edge">
<title>Node6&#45;&gt;Node11</title>
<path fill="none" stroke="#191970" d="M393.8388,-56.3733C366.3726,-46.6384 323.9388,-31.5985 294.8913,-21.3032"/>
<polygon fill="#191970" stroke="#191970" points="295.8163,-17.9178 285.2216,-17.876 293.4778,-24.5157 295.8163,-17.9178"/>
</g>
<!-- Node12 -->
<g id="node13" class="node">
<title>Node12</title>
<polygon fill="none" stroke="#bfbfbf" points="303.5,-.5 303.5,-19.5 368.5,-19.5 368.5,-.5 303.5,-.5"/>
<text text-anchor="middle" x="336" y="-7.5" font-family="FreeSans.ttf" font-size="10.00" fill="#000000">stdexcept</text>
</g>
<!-- Node6&#45;&gt;Node12 -->
<g id="edge13" class="edge">
<title>Node6&#45;&gt;Node12</title>
<path fill="none" stroke="#191970" d="M406.1941,-56.2455C393.2744,-47.7337 374.3069,-35.2375 359.3448,-25.3801"/>
<polygon fill="#191970" stroke="#191970" points="360.9124,-22.2216 350.6362,-19.6427 357.0613,-28.067 360.9124,-22.2216"/>
</g>
<!-- Node13 -->
<g id="node14" class="node">
<title>Node13</title>
<polygon fill="none" stroke="#bfbfbf" points="386.5,-.5 386.5,-19.5 455.5,-19.5 455.5,-.5 386.5,-.5"/>
<text text-anchor="middle" x="421" y="-7.5" font-family="FreeSans.ttf" font-size="10.00" fill="#000000">type_traits</text>
</g>
<!-- Node6&#45;&gt;Node13 -->
<g id="edge14" class="edge">
<title>Node6&#45;&gt;Node13</title>
<path fill="none" stroke="#191970" d="M421,-56.2455C421,-48.9382 421,-38.6944 421,-29.7046"/>
<polygon fill="#191970" stroke="#191970" points="424.5001,-29.6426 421,-19.6427 417.5001,-29.6427 424.5001,-29.6426"/>
</g>
<!-- Node14 -->
<g id="node15" class="node">
<title>Node14</title>
<polygon fill="none" stroke="#bfbfbf" points="473.5,-.5 473.5,-19.5 518.5,-19.5 518.5,-.5 473.5,-.5"/>
<text text-anchor="middle" x="496" y="-7.5" font-family="FreeSans.ttf" font-size="10.00" fill="#000000">utility</text>
</g>
<!-- Node6&#45;&gt;Node14 -->
<g id="edge15" class="edge">
<title>Node6&#45;&gt;Node14</title>
<path fill="none" stroke="#191970" d="M434.064,-56.2455C445.3562,-47.814 461.8845,-35.4729 475.0271,-25.6598"/>
<polygon fill="#191970" stroke="#191970" points="477.1669,-28.4301 483.0857,-19.6427 472.9789,-22.8211 477.1669,-28.4301"/>
</g>
<!-- Node18&#45;&gt;Node2 -->
<g id="edge33" class="edge">
<title>Node18&#45;&gt;Node2</title>
<path fill="none" stroke="#191970" d="M605.6943,-224.1237C604.726,-209.8826 600.8856,-183.5844 586,-168 570.4413,-151.7108 548.7584,-141.1816 527.5549,-134.3787"/>
<polygon fill="#191970" stroke="#191970" points="528.4526,-130.9943 517.8702,-131.5079 526.4631,-137.7056 528.4526,-130.9943"/>
</g>
<!-- Node18&#45;&gt;Node15 -->
<g id="edge21" class="edge">
<title>Node18&#45;&gt;Node15</title>
<path fill="none" stroke="#191970" d="M674.5955,-226.8125C724.2413,-220.0299 785.2676,-207.8754 801,-188 827.2987,-154.7756 787.7854,-107.4419 762.468,-82.6325"/>
<polygon fill="#191970" stroke="#191970" points="764.8194,-80.0388 755.1552,-75.6967 760.0023,-85.1178 764.8194,-80.0388"/>
</g>
<!-- Node19 -->
<g id="node20" class="node">
<title>Node19</title>
<g id="a_node20"><a xlink:href="GeomVector3_8h.html" target="_top" xlink:title="iDynTree/Core/GeomVector3.h">
<polygon fill="none" stroke="#000000" points="414.5,-168.5 414.5,-187.5 577.5,-187.5 577.5,-168.5 414.5,-168.5"/>
<text text-anchor="middle" x="496" y="-175.5" font-family="FreeSans.ttf" font-size="10.00" fill="#000000">iDynTree/Core/GeomVector3.h</text>
</a>
</g>
</g>
<!-- Node18&#45;&gt;Node19 -->
<g id="edge22" class="edge">
<title>Node18&#45;&gt;Node19</title>
<path fill="none" stroke="#191970" d="M586.8395,-224.2455C569.4889,-215.4125 543.7099,-202.2887 524.0417,-192.2758"/>
<polygon fill="#191970" stroke="#191970" points="525.4405,-189.0605 514.941,-187.6427 522.2647,-195.2986 525.4405,-189.0605"/>
</g>
<!-- Node20 -->
<g id="node21" class="node">
<title>Node20</title>
<g id="a_node21"><a xlink:href="RotationRaw_8h.html" target="_top" xlink:title="iDynTree/Core/RotationRaw.h">
<polygon fill="none" stroke="#000000" points="634,-168.5 634,-187.5 792,-187.5 792,-168.5 634,-168.5"/>
<text text-anchor="middle" x="713" y="-175.5" font-family="FreeSans.ttf" font-size="10.00" fill="#000000">iDynTree/Core/RotationRaw.h</text>
</a>
</g>
</g>
<!-- Node18&#45;&gt;Node20 -->
<g id="edge24" class="edge">
<title>Node18&#45;&gt;Node20</title>
<path fill="none" stroke="#191970" d="M624.638,-224.2455C641.4386,-215.4527 666.3634,-202.4079 685.4618,-192.4125"/>
<polygon fill="#191970" stroke="#191970" points="687.3386,-195.3807 694.5756,-187.6427 684.0927,-189.1787 687.3386,-195.3807"/>
</g>
<!-- Node19&#45;&gt;Node2 -->
<g id="edge23" class="edge">
<title>Node19&#45;&gt;Node2</title>
<path fill="none" stroke="#191970" d="M489.0325,-168.2455C483.4689,-160.4564 475.522,-149.3308 468.8171,-139.9439"/>
<polygon fill="#191970" stroke="#191970" points="471.5481,-137.7457 462.8876,-131.6427 465.852,-141.8144 471.5481,-137.7457"/>
</g>
<!-- Node20&#45;&gt;Node15 -->
<g id="edge32" class="edge">
<title>Node20&#45;&gt;Node15</title>
<path fill="none" stroke="#191970" d="M727.3737,-168.1853C738.0705,-159.9414 751.8409,-147.1035 758,-132 764.2032,-116.7883 759.4076,-98.4348 753.8027,-84.9476"/>
<polygon fill="#191970" stroke="#191970" points="756.9056,-83.3188 749.5277,-75.7151 750.5535,-86.2601 756.9056,-83.3188"/>
</g>
<!-- Node21 -->
<g id="node22" class="node">
<title>Node21</title>
<g id="a_node22"><a xlink:href="MatrixFixSize_8h.html" target="_top" xlink:title="iDynTree/Core/MatrixFixSize.h">
<polygon fill="none" stroke="#000000" points="554.5,-112.5 554.5,-131.5 715.5,-131.5 715.5,-112.5 554.5,-112.5"/>
<text text-anchor="middle" x="635" y="-119.5" font-family="FreeSans.ttf" font-size="10.00" fill="#000000">iDynTree/Core/MatrixFixSize.h</text>
</a>
</g>
</g>
<!-- Node20&#45;&gt;Node21 -->
<g id="edge25" class="edge">
<title>Node20&#45;&gt;Node21</title>
<path fill="none" stroke="#191970" d="M699.4134,-168.2455C687.6695,-159.814 670.4801,-147.4729 656.8118,-137.6598"/>
<polygon fill="#191970" stroke="#191970" points="658.5954,-134.6316 648.4309,-131.6427 654.5129,-140.3179 658.5954,-134.6316"/>
</g>
<!-- Node21&#45;&gt;Node3 -->
<g id="edge26" class="edge">
<title>Node21&#45;&gt;Node3</title>
<path fill="none" stroke="#191970" d="M574.889,-112.4369C513.2881,-102.6367 417.5909,-87.4122 352.708,-77.0899"/>
<polygon fill="#191970" stroke="#191970" points="352.995,-73.5916 342.5692,-75.4769 351.8951,-80.5047 352.995,-73.5916"/>
</g>
<!-- Node21&#45;&gt;Node7 -->
<g id="edge27" class="edge">
<title>Node21&#45;&gt;Node7</title>
<path fill="none" stroke="#191970" d="M643.5782,-112.1738C651.2581,-103.1246 662.5742,-89.1492 671,-76 680.7532,-60.7794 690.0246,-42.4267 696.4147,-28.9421"/>
<polygon fill="#191970" stroke="#191970" points="699.6636,-30.2558 700.7,-19.7118 693.3145,-27.3082 699.6636,-30.2558"/>
</g>
<!-- Node21&#45;&gt;Node15 -->
<g id="edge29" class="edge">
<title>Node21&#45;&gt;Node15</title>
<path fill="none" stroke="#191970" d="M653.9864,-112.2455C671.1792,-103.4125 696.7238,-90.2887 716.2132,-80.2758"/>
<polygon fill="#191970" stroke="#191970" points="717.9359,-83.3257 725.2312,-75.6427 714.737,-77.0993 717.9359,-83.3257"/>
</g>
<!-- Node21&#45;&gt;Node16 -->
<g id="edge31" class="edge">
<title>Node21&#45;&gt;Node16</title>
<path fill="none" stroke="#191970" d="M622.9811,-112.2455C612.7902,-103.9746 597.9638,-91.9416 585.9893,-82.2232"/>
<polygon fill="#191970" stroke="#191970" points="587.8514,-79.2268 577.8812,-75.6427 583.4402,-84.662 587.8514,-79.2268"/>
</g>
<!-- Node21&#45;&gt;Node17 -->
<g id="edge28" class="edge">
<title>Node21&#45;&gt;Node17</title>
<path fill="none" stroke="#191970" d="M635.3484,-112.2455C635.6093,-104.9382 635.9752,-94.6944 636.2963,-85.7046"/>
<polygon fill="#191970" stroke="#191970" points="639.7964,-85.7613 636.6556,-75.6427 632.8008,-85.5113 639.7964,-85.7613"/>
</g>
<!-- Node21&#45;&gt;Node22 -->
<g id="edge30" class="edge">
<title>Node21&#45;&gt;Node22</title>
<path fill="none" stroke="#191970" d="M669.5531,-112.3733C704.6416,-102.5974 758.9322,-87.4716 795.896,-77.1733"/>
<polygon fill="#191970" stroke="#191970" points="797.1381,-80.4606 805.8318,-74.4051 795.2593,-73.7174 797.1381,-80.4606"/>
</g>
<!-- Node23&#45;&gt;Node2 -->
<g id="edge37" class="edge">
<title>Node23&#45;&gt;Node2</title>
<path fill="none" stroke="#191970" d="M316.0521,-168.3733C344.1543,-159.0613 386.9054,-144.8953 417.7607,-134.671"/>
<polygon fill="#191970" stroke="#191970" points="418.9355,-137.969 427.327,-131.5011 416.7336,-131.3243 418.9355,-137.969"/>
</g>
<!-- Node23&#45;&gt;Node3 -->
<g id="edge38" class="edge">
<title>Node23&#45;&gt;Node3</title>
<path fill="none" stroke="#191970" d="M286.659,-168.4509C286.0066,-150.184 284.5698,-109.9553 283.7035,-85.6976"/>
<polygon fill="#191970" stroke="#191970" points="287.195,-85.3936 283.3402,-75.5249 280.1994,-85.6435 287.195,-85.3936"/>
</g>
<!-- Node23&#45;&gt;Node15 -->
<g id="edge36" class="edge">
<title>Node23&#45;&gt;Node15</title>
<path fill="none" stroke="#191970" d="M357.7693,-171.5549C479.6815,-160.3147 717.0173,-137.7715 724,-132 737.3843,-120.9373 742.0225,-101.2263 743.5287,-86.2166"/>
<polygon fill="#191970" stroke="#191970" points="747.0441,-86.0717 744.163,-75.8761 740.0572,-85.643 747.0441,-86.0717"/>
</g>
</g>
</svg>
