<?xml version="1.0" encoding="UTF-8" standalone="no"?>
<!DOCTYPE svg PUBLIC "-//W3C//DTD SVG 1.1//EN"
 "http://www.w3.org/Graphics/SVG/1.1/DTD/svg11.dtd">
<!-- Generated by graphviz version 2.40.1 (20161225.0304)
 -->
<!-- Title: AttitudeEstimator.h Pages: 1 -->
<svg width="932pt" height="308pt"
 viewBox="0.00 0.00 932.00 308.00" xmlns="http://www.w3.org/2000/svg" xmlns:xlink="http://www.w3.org/1999/xlink">
<g id="graph0" class="graph" transform="scale(1 1) rotate(0) translate(4 304)">
<title>AttitudeEstimator.h</title>
<!-- Node0 -->
<g id="node1" class="node">
<title>Node0</title>
<polygon fill="#bfbfbf" stroke="#000000" points="607.5,-280.5 607.5,-299.5 718.5,-299.5 718.5,-280.5 607.5,-280.5"/>
<text text-anchor="middle" x="663" y="-287.5" font-family="FreeSans.ttf" font-size="10.00" fill="#000000">AttitudeEstimator.h</text>
</g>
<!-- Node1 -->
<g id="node2" class="node">
<title>Node1</title>
<g id="a_node2"><a xlink:href="VectorFixSize_8h.html" target="_top" xlink:title="iDynTree/Core/VectorFixSize.h">
<polygon fill="none" stroke="#000000" points="453.5,-112.5 453.5,-131.5 614.5,-131.5 614.5,-112.5 453.5,-112.5"/>
<text text-anchor="middle" x="534" y="-119.5" font-family="FreeSans.ttf" font-size="10.00" fill="#000000">iDynTree/Core/VectorFixSize.h</text>
</a>
</g>
</g>
<!-- Node0&#45;&gt;Node1 -->
<g id="edge1" class="edge">
<title>Node0&#45;&gt;Node1</title>
<path fill="none" stroke="#191970" d="M620.5009,-280.456C575.3763,-267.8044 506.3351,-240.6509 475,-188 463.2916,-168.3269 485.1839,-149.2027 505.539,-136.6491"/>
<polygon fill="#191970" stroke="#191970" points="507.47,-139.5752 514.3606,-131.5272 503.9552,-133.5216 507.47,-139.5752"/>
</g>
<!-- Node17 -->
<g id="node18" class="node">
<title>Node17</title>
<g id="a_node18"><a xlink:href="Rotation_8h.html" target="_top" xlink:title="iDynTree/Core/Rotation.h">
<polygon fill="none" stroke="#000000" points="594.5,-224.5 594.5,-243.5 731.5,-243.5 731.5,-224.5 594.5,-224.5"/>
<text text-anchor="middle" x="663" y="-231.5" font-family="FreeSans.ttf" font-size="10.00" fill="#000000">iDynTree/Core/Rotation.h</text>
</a>
</g>
</g>
<!-- Node0&#45;&gt;Node17 -->
<g id="edge19" class="edge">
<title>Node0&#45;&gt;Node17</title>
<path fill="none" stroke="#191970" d="M663,-280.2455C663,-272.9382 663,-262.6944 663,-253.7046"/>
<polygon fill="#191970" stroke="#191970" points="666.5001,-253.6426 663,-243.6427 659.5001,-253.6427 666.5001,-253.6426"/>
</g>
<!-- Node21 -->
<g id="node22" class="node">
<title>Node21</title>
<polygon fill="none" stroke="#bfbfbf" points="864,-56.5 864,-75.5 924,-75.5 924,-56.5 864,-56.5"/>
<text text-anchor="middle" x="894" y="-63.5" font-family="FreeSans.ttf" font-size="10.00" fill="#000000">iostream</text>
</g>
<!-- Node0&#45;&gt;Node21 -->
<g id="edge33" class="edge">
<title>Node0&#45;&gt;Node21</title>
<path fill="none" stroke="#191970" d="M700.7795,-280.4034C745.384,-267.1185 818.7078,-238.811 860,-188 884.2796,-158.1234 891.2519,-112.0455 893.2339,-85.9035"/>
<polygon fill="#191970" stroke="#191970" points="896.7393,-85.9111 893.8258,-75.7247 889.7511,-85.5046 896.7393,-85.9111"/>
</g>
<!-- Node2 -->
<g id="node3" class="node">
<title>Node2</title>
<g id="a_node3"><a xlink:href="Utils_8h.html" target="_top" xlink:title="iDynTree/Core/Utils.h">
<polygon fill="none" stroke="#000000" points="476.5,-56.5 476.5,-75.5 595.5,-75.5 595.5,-56.5 476.5,-56.5"/>
<text text-anchor="middle" x="536" y="-63.5" font-family="FreeSans.ttf" font-size="10.00" fill="#000000">iDynTree/Core/Utils.h</text>
</a>
</g>
</g>
<!-- Node1&#45;&gt;Node2 -->
<g id="edge2" class="edge">
<title>Node1&#45;&gt;Node2</title>
<path fill="none" stroke="#191970" d="M534.3484,-112.2455C534.6093,-104.9382 534.9752,-94.6944 535.2963,-85.7046"/>
<polygon fill="#191970" stroke="#191970" points="538.7964,-85.7613 535.6556,-75.6427 531.8008,-85.5113 538.7964,-85.7613"/>
</g>
<!-- Node5 -->
<g id="node6" class="node">
<title>Node5</title>
<g id="a_node6"><a xlink:href="Span_8h.html" target="_top" xlink:title="iDynTree/Core/Span.h">
<polygon fill="none" stroke="#000000" points="273.5,-56.5 273.5,-75.5 394.5,-75.5 394.5,-56.5 273.5,-56.5"/>
<text text-anchor="middle" x="334" y="-63.5" font-family="FreeSans.ttf" font-size="10.00" fill="#000000">iDynTree/Core/Span.h</text>
</a>
</g>
</g>
<!-- Node1&#45;&gt;Node5 -->
<g id="edge5" class="edge">
<title>Node1&#45;&gt;Node5</title>
<path fill="none" stroke="#191970" d="M499.6188,-112.3733C465.9299,-102.9404 414.4518,-88.5265 377.8382,-78.2747"/>
<polygon fill="#191970" stroke="#191970" points="378.506,-74.8271 367.9326,-75.5011 376.6185,-81.5679 378.506,-74.8271"/>
</g>
<!-- Node6 -->
<g id="node7" class="node">
<title>Node6</title>
<polygon fill="none" stroke="#bfbfbf" points="581,-.5 581,-19.5 633,-19.5 633,-.5 581,-.5"/>
<text text-anchor="middle" x="607" y="-7.5" font-family="FreeSans.ttf" font-size="10.00" fill="#000000">cassert</text>
</g>
<!-- Node1&#45;&gt;Node6 -->
<g id="edge17" class="edge">
<title>Node1&#45;&gt;Node6</title>
<path fill="none" stroke="#191970" d="M511.3304,-112.483C486.0209,-100.4659 450.6261,-78.6152 467,-56 470.1813,-51.6062 530.6117,-32.8394 571.0283,-20.6757"/>
<polygon fill="#191970" stroke="#191970" points="572.252,-23.9628 580.8255,-17.7382 570.2416,-17.2577 572.252,-23.9628"/>
</g>
<!-- Node14 -->
<g id="node15" class="node">
<title>Node14</title>
<polygon fill="none" stroke="#bfbfbf" points="797,-56.5 797,-75.5 841,-75.5 841,-56.5 797,-56.5"/>
<text text-anchor="middle" x="819" y="-63.5" font-family="FreeSans.ttf" font-size="10.00" fill="#000000">string</text>
</g>
<!-- Node1&#45;&gt;Node14 -->
<g id="edge15" class="edge">
<title>Node1&#45;&gt;Node14</title>
<path fill="none" stroke="#191970" d="M582.6694,-112.4369C641.0007,-100.9753 737.0924,-82.0941 786.8713,-72.313"/>
<polygon fill="#191970" stroke="#191970" points="787.6228,-75.7324 796.7603,-70.3699 786.2731,-68.8637 787.6228,-75.7324"/>
</g>
<!-- Node15 -->
<g id="node16" class="node">
<title>Node15</title>
<polygon fill="none" stroke="#bfbfbf" points="614,-56.5 614,-75.5 670,-75.5 670,-56.5 614,-56.5"/>
<text text-anchor="middle" x="642" y="-63.5" font-family="FreeSans.ttf" font-size="10.00" fill="#000000">sstream</text>
</g>
<!-- Node1&#45;&gt;Node15 -->
<g id="edge16" class="edge">
<title>Node1&#45;&gt;Node15</title>
<path fill="none" stroke="#191970" d="M552.8122,-112.2455C569.8473,-103.4125 595.1575,-90.2887 614.4681,-80.2758"/>
<polygon fill="#191970" stroke="#191970" points="616.137,-83.353 623.4034,-75.6427 612.9147,-77.1388 616.137,-83.353"/>
</g>
<!-- Node16 -->
<g id="node17" class="node">
<title>Node16</title>
<polygon fill="none" stroke="#bfbfbf" points="688,-56.5 688,-75.5 738,-75.5 738,-56.5 688,-56.5"/>
<text text-anchor="middle" x="713" y="-63.5" font-family="FreeSans.ttf" font-size="10.00" fill="#000000">cstring</text>
</g>
<!-- Node1&#45;&gt;Node16 -->
<g id="edge18" class="edge">
<title>Node1&#45;&gt;Node16</title>
<path fill="none" stroke="#191970" d="M564.7712,-112.3733C596.2956,-102.5109 645.2243,-87.2036 678.1555,-76.9011"/>
<polygon fill="#191970" stroke="#191970" points="679.3261,-80.2022 687.8249,-73.876 677.236,-73.5215 679.3261,-80.2022"/>
</g>
<!-- Node3 -->
<g id="node4" class="node">
<title>Node3</title>
<polygon fill="none" stroke="#bfbfbf" points="509.5,-.5 509.5,-19.5 562.5,-19.5 562.5,-.5 509.5,-.5"/>
<text text-anchor="middle" x="536" y="-7.5" font-family="FreeSans.ttf" font-size="10.00" fill="#000000">cstddef</text>
</g>
<!-- Node2&#45;&gt;Node3 -->
<g id="edge3" class="edge">
<title>Node2&#45;&gt;Node3</title>
<path fill="none" stroke="#191970" d="M536,-56.2455C536,-48.9382 536,-38.6944 536,-29.7046"/>
<polygon fill="#191970" stroke="#191970" points="539.5001,-29.6426 536,-19.6427 532.5001,-29.6427 539.5001,-29.6426"/>
</g>
<!-- Node4 -->
<g id="node5" class="node">
<title>Node4</title>
<polygon fill="none" stroke="#bfbfbf" points="651,-.5 651,-19.5 731,-19.5 731,-.5 651,-.5"/>
<text text-anchor="middle" x="691" y="-7.5" font-family="FreeSans.ttf" font-size="10.00" fill="#000000">CoreExport.h</text>
</g>
<!-- Node2&#45;&gt;Node4 -->
<g id="edge4" class="edge">
<title>Node2&#45;&gt;Node4</title>
<path fill="none" stroke="#191970" d="M562.6454,-56.3733C588.1964,-47.1419 626.9512,-33.1402 655.1909,-22.9375"/>
<polygon fill="#191970" stroke="#191970" points="656.4865,-26.1909 664.7022,-19.5011 654.1079,-19.6074 656.4865,-26.1909"/>
</g>
<!-- Node5&#45;&gt;Node3 -->
<g id="edge9" class="edge">
<title>Node5&#45;&gt;Node3</title>
<path fill="none" stroke="#191970" d="M368.3376,-56.4915C399.8751,-47.7568 448.174,-34.3762 499.3395,-20.1821"/>
<polygon fill="#191970" stroke="#191970" points="500.5639,-23.4747 509.2642,-17.4286 498.6924,-16.7295 500.5639,-23.4747"/>
</g>
<!-- Node5&#45;&gt;Node6 -->
<g id="edge6" class="edge">
<title>Node5&#45;&gt;Node6</title>
<path fill="none" stroke="#191970" d="M389.8138,-56.4557C438.0096,-47.9072 509.3962,-34.5104 571,-20 571.0987,-19.9768 571.1974,-19.9534 571.2964,-19.93"/>
<polygon fill="#191970" stroke="#191970" points="571.8722,-23.3943 580.716,-17.5601 570.1642,-16.6059 571.8722,-23.3943"/>
</g>
<!-- Node7 -->
<g id="node8" class="node">
<title>Node7</title>
<polygon fill="none" stroke="#bfbfbf" points="0,-.5 0,-19.5 64,-19.5 64,-.5 0,-.5"/>
<text text-anchor="middle" x="32" y="-7.5" font-family="FreeSans.ttf" font-size="10.00" fill="#000000">algorithm</text>
</g>
<!-- Node5&#45;&gt;Node7 -->
<g id="edge7" class="edge">
<title>Node5&#45;&gt;Node7</title>
<path fill="none" stroke="#191970" d="M273.3998,-56.4617C222.6433,-48.2126 148.077,-35.4907 74.1373,-20.1416"/>
<polygon fill="#191970" stroke="#191970" points="74.689,-16.6813 64.1841,-18.0584 73.255,-23.5328 74.689,-16.6813"/>
</g>
<!-- Node8 -->
<g id="node9" class="node">
<title>Node8</title>
<polygon fill="none" stroke="#bfbfbf" points="82,-.5 82,-19.5 124,-19.5 124,-.5 82,-.5"/>
<text text-anchor="middle" x="103" y="-7.5" font-family="FreeSans.ttf" font-size="10.00" fill="#000000">array</text>
</g>
<!-- Node5&#45;&gt;Node8 -->
<g id="edge8" class="edge">
<title>Node5&#45;&gt;Node8</title>
<path fill="none" stroke="#191970" d="M286.5641,-56.4976C247.8653,-48.4414 191.6149,-36.0425 134.1998,-20.1509"/>
<polygon fill="#191970" stroke="#191970" points="134.8001,-16.6844 124.2267,-17.3579 132.9124,-23.425 134.8001,-16.6844"/>
</g>
<!-- Node9 -->
<g id="node10" class="node">
<title>Node9</title>
<polygon fill="none" stroke="#bfbfbf" points="142.5,-.5 142.5,-19.5 195.5,-19.5 195.5,-.5 142.5,-.5"/>
<text text-anchor="middle" x="169" y="-7.5" font-family="FreeSans.ttf" font-size="10.00" fill="#000000">iterator</text>
</g>
<!-- Node5&#45;&gt;Node9 -->
<g id="edge10" class="edge">
<title>Node5&#45;&gt;Node9</title>
<path fill="none" stroke="#191970" d="M305.6355,-56.3733C277.9034,-46.9611 235.5596,-32.5899 205.3662,-22.3425"/>
<polygon fill="#191970" stroke="#191970" points="206.2255,-18.9381 195.6311,-19.0384 203.9757,-25.5667 206.2255,-18.9381"/>
</g>
<!-- Node10 -->
<g id="node11" class="node">
<title>Node10</title>
<polygon fill="none" stroke="#bfbfbf" points="214,-.5 214,-19.5 258,-19.5 258,-.5 214,-.5"/>
<text text-anchor="middle" x="236" y="-7.5" font-family="FreeSans.ttf" font-size="10.00" fill="#000000">limits</text>
</g>
<!-- Node5&#45;&gt;Node10 -->
<g id="edge11" class="edge">
<title>Node5&#45;&gt;Node10</title>
<path fill="none" stroke="#191970" d="M316.9297,-56.2455C301.753,-47.5731 279.3379,-34.7645 261.9437,-24.825"/>
<polygon fill="#191970" stroke="#191970" points="263.2936,-21.5653 252.8747,-19.6427 259.8206,-27.643 263.2936,-21.5653"/>
</g>
<!-- Node11 -->
<g id="node12" class="node">
<title>Node11</title>
<polygon fill="none" stroke="#bfbfbf" points="276.5,-.5 276.5,-19.5 341.5,-19.5 341.5,-.5 276.5,-.5"/>
<text text-anchor="middle" x="309" y="-7.5" font-family="FreeSans.ttf" font-size="10.00" fill="#000000">stdexcept</text>
</g>
<!-- Node5&#45;&gt;Node11 -->
<g id="edge12" class="edge">
<title>Node5&#45;&gt;Node11</title>
<path fill="none" stroke="#191970" d="M329.6453,-56.2455C326.2756,-48.6973 321.507,-38.0158 317.4017,-28.8197"/>
<polygon fill="#191970" stroke="#191970" points="320.5773,-27.3473 313.3048,-19.6427 314.1853,-30.2009 320.5773,-27.3473"/>
</g>
<!-- Node12 -->
<g id="node13" class="node">
<title>Node12</title>
<polygon fill="none" stroke="#bfbfbf" points="359.5,-.5 359.5,-19.5 428.5,-19.5 428.5,-.5 359.5,-.5"/>
<text text-anchor="middle" x="394" y="-7.5" font-family="FreeSans.ttf" font-size="10.00" fill="#000000">type_traits</text>
</g>
<!-- Node5&#45;&gt;Node12 -->
<g id="edge13" class="edge">
<title>Node5&#45;&gt;Node12</title>
<path fill="none" stroke="#191970" d="M344.4512,-56.2455C353.2269,-48.0549 365.9554,-36.1749 376.314,-26.5069"/>
<polygon fill="#191970" stroke="#191970" points="378.7461,-29.0246 383.6686,-19.6427 373.9699,-23.9072 378.7461,-29.0246"/>
</g>
<!-- Node13 -->
<g id="node14" class="node">
<title>Node13</title>
<polygon fill="none" stroke="#bfbfbf" points="446.5,-.5 446.5,-19.5 491.5,-19.5 491.5,-.5 446.5,-.5"/>
<text text-anchor="middle" x="469" y="-7.5" font-family="FreeSans.ttf" font-size="10.00" fill="#000000">utility</text>
</g>
<!-- Node5&#45;&gt;Node13 -->
<g id="edge14" class="edge">
<title>Node5&#45;&gt;Node13</title>
<path fill="none" stroke="#191970" d="M357.2073,-56.3733C379.1699,-47.2629 412.3332,-33.5062 436.8401,-23.3404"/>
<polygon fill="#191970" stroke="#191970" points="438.1997,-26.5657 446.0955,-19.5011 435.5176,-20.0999 438.1997,-26.5657"/>
</g>
<!-- Node17&#45;&gt;Node1 -->
<g id="edge32" class="edge">
<title>Node17&#45;&gt;Node1</title>
<path fill="none" stroke="#191970" d="M594.1492,-225.209C549.383,-217.9179 496.8483,-205.8323 483,-188 469.5213,-170.6435 489.9453,-150.6715 508.8133,-137.2843"/>
<polygon fill="#191970" stroke="#191970" points="510.8894,-140.1063 517.2455,-131.6299 506.9907,-134.2925 510.8894,-140.1063"/>
</g>
<!-- Node17&#45;&gt;Node14 -->
<g id="edge20" class="edge">
<title>Node17&#45;&gt;Node14</title>
<path fill="none" stroke="#191970" d="M731.5692,-225.027C775.7381,-217.6796 827.3687,-205.6018 841,-188 864.4868,-157.672 844.6063,-110.4386 830.3599,-84.5396"/>
<polygon fill="#191970" stroke="#191970" points="833.3092,-82.6479 825.2779,-75.7379 827.2472,-86.1482 833.3092,-82.6479"/>
</g>
<!-- Node18 -->
<g id="node19" class="node">
<title>Node18</title>
<g id="a_node19"><a xlink:href="GeomVector3_8h.html" target="_top" xlink:title="iDynTree/Core/GeomVector3.h">
<polygon fill="none" stroke="#000000" points="492.5,-168.5 492.5,-187.5 655.5,-187.5 655.5,-168.5 492.5,-168.5"/>
<text text-anchor="middle" x="574" y="-175.5" font-family="FreeSans.ttf" font-size="10.00" fill="#000000">iDynTree/Core/GeomVector3.h</text>
</a>
</g>
</g>
<!-- Node17&#45;&gt;Node18 -->
<g id="edge21" class="edge">
<title>Node17&#45;&gt;Node18</title>
<path fill="none" stroke="#191970" d="M647.4974,-224.2455C633.842,-215.6534 613.7343,-203.0014 598.0011,-193.1018"/>
<polygon fill="#191970" stroke="#191970" points="599.6529,-190.006 589.325,-187.6427 595.9249,-195.9307 599.6529,-190.006"/>
</g>
<!-- Node19 -->
<g id="node20" class="node">
<title>Node19</title>
<g id="a_node20"><a xlink:href="RotationRaw_8h.html" target="_top" xlink:title="iDynTree/Core/RotationRaw.h">
<polygon fill="none" stroke="#000000" points="674,-168.5 674,-187.5 832,-187.5 832,-168.5 674,-168.5"/>
<text text-anchor="middle" x="753" y="-175.5" font-family="FreeSans.ttf" font-size="10.00" fill="#000000">iDynTree/Core/RotationRaw.h</text>
</a>
</g>
</g>
<!-- Node17&#45;&gt;Node19 -->
<g id="edge23" class="edge">
<title>Node17&#45;&gt;Node19</title>
<path fill="none" stroke="#191970" d="M678.6768,-224.2455C692.4856,-215.6534 712.8193,-203.0014 728.7292,-193.1018"/>
<polygon fill="#191970" stroke="#191970" points="730.8613,-195.8974 737.5028,-187.6427 727.1632,-189.954 730.8613,-195.8974"/>
</g>
<!-- Node18&#45;&gt;Node1 -->
<g id="edge22" class="edge">
<title>Node18&#45;&gt;Node1</title>
<path fill="none" stroke="#191970" d="M567.0325,-168.2455C561.4689,-160.4564 553.522,-149.3308 546.8171,-139.9439"/>
<polygon fill="#191970" stroke="#191970" points="549.5481,-137.7457 540.8876,-131.6427 543.852,-141.8144 549.5481,-137.7457"/>
</g>
<!-- Node19&#45;&gt;Node14 -->
<g id="edge31" class="edge">
<title>Node19&#45;&gt;Node14</title>
<path fill="none" stroke="#191970" d="M767.1073,-168.281C778.2,-159.9126 793.2026,-146.86 802,-132 810.3825,-117.8409 814.6744,-99.5893 816.8463,-85.8695"/>
<polygon fill="#191970" stroke="#191970" points="820.3631,-85.9749 818.2154,-75.6 813.4245,-85.0498 820.3631,-85.9749"/>
</g>
<!-- Node20 -->
<g id="node21" class="node">
<title>Node20</title>
<g id="a_node21"><a xlink:href="MatrixFixSize_8h.html" target="_top" xlink:title="iDynTree/Core/MatrixFixSize.h">
<polygon fill="none" stroke="#000000" points="632.5,-112.5 632.5,-131.5 793.5,-131.5 793.5,-112.5 632.5,-112.5"/>
<text text-anchor="middle" x="713" y="-119.5" font-family="FreeSans.ttf" font-size="10.00" fill="#000000">iDynTree/Core/MatrixFixSize.h</text>
</a>
</g>
</g>
<!-- Node19&#45;&gt;Node20 -->
<g id="edge24" class="edge">
<title>Node19&#45;&gt;Node20</title>
<path fill="none" stroke="#191970" d="M746.0325,-168.2455C740.4689,-160.4564 732.522,-149.3308 725.8171,-139.9439"/>
<polygon fill="#191970" stroke="#191970" points="728.5481,-137.7457 719.8876,-131.6427 722.852,-141.8144 728.5481,-137.7457"/>
</g>
<!-- Node20&#45;&gt;Node2 -->
<g id="edge25" class="edge">
<title>Node20&#45;&gt;Node2</title>
<path fill="none" stroke="#191970" d="M682.5726,-112.3733C653.0128,-103.021 607.9774,-88.7725 575.6305,-78.5385"/>
<polygon fill="#191970" stroke="#191970" points="576.6203,-75.1807 566.0303,-75.5011 574.5087,-81.8546 576.6203,-75.1807"/>
</g>
<!-- Node20&#45;&gt;Node6 -->
<g id="edge26" class="edge">
<title>Node20&#45;&gt;Node6</title>
<path fill="none" stroke="#191970" d="M724.7833,-112.0756C739.2446,-98.6795 760.3038,-74.3748 747,-56 743.8187,-51.6062 683.3883,-32.8394 642.9717,-20.6757"/>
<polygon fill="#191970" stroke="#191970" points="643.7584,-17.2577 633.1745,-17.7382 641.748,-23.9628 643.7584,-17.2577"/>
</g>
<!-- Node20&#45;&gt;Node14 -->
<g id="edge28" class="edge">
<title>Node20&#45;&gt;Node14</title>
<path fill="none" stroke="#191970" d="M731.4638,-112.2455C748.1074,-103.4527 772.7993,-90.4079 791.7192,-80.4125"/>
<polygon fill="#191970" stroke="#191970" points="793.5408,-83.4086 800.7478,-75.6427 790.2709,-77.2193 793.5408,-83.4086"/>
</g>
<!-- Node20&#45;&gt;Node15 -->
<g id="edge30" class="edge">
<title>Node20&#45;&gt;Node15</title>
<path fill="none" stroke="#191970" d="M700.6327,-112.2455C690.0446,-103.8943 674.5936,-91.7076 662.2107,-81.9408"/>
<polygon fill="#191970" stroke="#191970" points="664.2447,-79.0875 654.2255,-75.6427 659.9097,-84.5837 664.2447,-79.0875"/>
</g>
<!-- Node20&#45;&gt;Node16 -->
<g id="edge27" class="edge">
<title>Node20&#45;&gt;Node16</title>
<path fill="none" stroke="#191970" d="M713,-112.2455C713,-104.9382 713,-94.6944 713,-85.7046"/>
<polygon fill="#191970" stroke="#191970" points="716.5001,-85.6426 713,-75.6427 709.5001,-85.6427 716.5001,-85.6426"/>
</g>
<!-- Node20&#45;&gt;Node21 -->
<g id="edge29" class="edge">
<title>Node20&#45;&gt;Node21</title>
<path fill="none" stroke="#191970" d="M744.115,-112.3733C774.5261,-102.9643 820.9548,-88.5996 854.0739,-78.3528"/>
<polygon fill="#191970" stroke="#191970" points="855.3738,-81.6144 863.8925,-75.315 853.3047,-74.9272 855.3738,-81.6144"/>
</g>
</g>
</svg>
