<?xml version="1.0" encoding="UTF-8" standalone="no"?>
<!DOCTYPE svg PUBLIC "-//W3C//DTD SVG 1.1//EN"
 "http://www.w3.org/Graphics/SVG/1.1/DTD/svg11.dtd">
<!-- Generated by graphviz version 2.40.1 (20161225.0304)
 -->
<!-- Title: Axis.cpp Pages: 1 -->
<svg width="1531pt" height="543pt"
 viewBox="0.00 0.00 1531.01 543.00" xmlns="http://www.w3.org/2000/svg" xmlns:xlink="http://www.w3.org/1999/xlink">
<g id="graph0" class="graph" transform="scale(1 1) rotate(0) translate(4 539)">
<title>Axis.cpp</title>
<!-- Node0 -->
<g id="node1" class="node">
<title>Node0</title>
<polygon fill="#bfbfbf" stroke="#000000" points="1221.0088,-515.5 1221.0088,-534.5 1279.0088,-534.5 1279.0088,-515.5 1221.0088,-515.5"/>
<text text-anchor="middle" x="1250.0088" y="-522.5" font-family="FreeSans.ttf" font-size="10.00" fill="#000000">Axis.cpp</text>
</g>
<!-- Node1 -->
<g id="node2" class="node">
<title>Node1</title>
<g id="a_node2"><a xlink:href="Axis_8h.html" target="_top" xlink:title="iDynTree/Core/Axis.h">
<polygon fill="none" stroke="#000000" points="93.0088,-336.5 93.0088,-355.5 211.0088,-355.5 211.0088,-336.5 93.0088,-336.5"/>
<text text-anchor="middle" x="152.0088" y="-343.5" font-family="FreeSans.ttf" font-size="10.00" fill="#000000">iDynTree/Core/Axis.h</text>
</a>
</g>
</g>
<!-- Node0&#45;&gt;Node1 -->
<g id="edge1" class="edge">
<title>Node0&#45;&gt;Node1</title>
<path fill="none" stroke="#191970" d="M1220.6382,-522.2131C1155.6406,-515.8954 994.7877,-499.4335 861.0088,-479 615.9069,-441.563 325.8672,-382.4854 206.9871,-357.6295"/>
<polygon fill="#191970" stroke="#191970" points="207.5393,-354.1692 197.0341,-355.5447 206.1041,-361.0206 207.5393,-354.1692"/>
</g>
<!-- Node17 -->
<g id="node18" class="node">
<title>Node17</title>
<polygon fill="none" stroke="#bfbfbf" points="1179.0088,-56.5 1179.0088,-75.5 1235.0088,-75.5 1235.0088,-56.5 1179.0088,-56.5"/>
<text text-anchor="middle" x="1207.0088" y="-63.5" font-family="FreeSans.ttf" font-size="10.00" fill="#000000">sstream</text>
</g>
<!-- Node0&#45;&gt;Node17 -->
<g id="edge68" class="edge">
<title>Node0&#45;&gt;Node17</title>
<path fill="none" stroke="#191970" d="M1255.4532,-515.2863C1265.9606,-495.599 1288.0088,-449.3072 1288.0088,-407.5 1288.0088,-407.5 1288.0088,-407.5 1288.0088,-178 1288.0088,-137.4297 1252.6807,-101.5972 1228.687,-81.9394"/>
<polygon fill="#191970" stroke="#191970" points="1230.7687,-79.1237 1220.7493,-75.6795 1226.434,-84.6202 1230.7687,-79.1237"/>
</g>
<!-- Node26 -->
<g id="node27" class="node">
<title>Node26</title>
<g id="a_node27"><a xlink:href="Transform_8h.html" target="_top" xlink:title="iDynTree/Core/Transform.h">
<polygon fill="none" stroke="#000000" points="525.0088,-336.5 525.0088,-355.5 671.0088,-355.5 671.0088,-336.5 525.0088,-336.5"/>
<text text-anchor="middle" x="598.0088" y="-343.5" font-family="FreeSans.ttf" font-size="10.00" fill="#000000">iDynTree/Core/Transform.h</text>
</a>
</g>
</g>
<!-- Node0&#45;&gt;Node26 -->
<g id="edge44" class="edge">
<title>Node0&#45;&gt;Node26</title>
<path fill="none" stroke="#191970" d="M1220.8361,-523.2784C1163.3511,-519.3617 1031.7472,-507.7892 925.0088,-479 810.297,-448.0602 681.8008,-387.7105 626.1791,-360.2357"/>
<polygon fill="#191970" stroke="#191970" points="627.4797,-356.9737 616.9672,-355.6559 624.3634,-363.2418 627.4797,-356.9737"/>
</g>
<!-- Node27 -->
<g id="node28" class="node">
<title>Node27</title>
<g id="a_node28"><a xlink:href="TransformDerivative_8h.html" target="_top" xlink:title="iDynTree/Core/TransformDerivative.h">
<polygon fill="none" stroke="#000000" points="986.5088,-168.5 986.5088,-187.5 1183.5088,-187.5 1183.5088,-168.5 986.5088,-168.5"/>
<text text-anchor="middle" x="1085.0088" y="-175.5" font-family="FreeSans.ttf" font-size="10.00" fill="#000000">iDynTree/Core/TransformDerivative.h</text>
</a>
</g>
</g>
<!-- Node0&#45;&gt;Node27 -->
<g id="edge49" class="edge">
<title>Node0&#45;&gt;Node27</title>
<path fill="none" stroke="#191970" d="M1250.0088,-515.2511C1250.0088,-495.1182 1250.0088,-447.4826 1250.0088,-407.5 1250.0088,-407.5 1250.0088,-407.5 1250.0088,-290 1250.0088,-235.0984 1186.6984,-205.2384 1138.511,-190.4624"/>
<polygon fill="#191970" stroke="#191970" points="1139.373,-187.068 1128.7925,-187.62 1137.4079,-193.7865 1139.373,-187.068"/>
</g>
<!-- Node28 -->
<g id="node29" class="node">
<title>Node28</title>
<g id="a_node29"><a xlink:href="Twist_8h.html" target="_top" xlink:title="iDynTree/Core/Twist.h">
<polygon fill="none" stroke="#000000" points="1100.0088,-459.5 1100.0088,-478.5 1222.0088,-478.5 1222.0088,-459.5 1100.0088,-459.5"/>
<text text-anchor="middle" x="1161.0088" y="-466.5" font-family="FreeSans.ttf" font-size="10.00" fill="#000000">iDynTree/Core/Twist.h</text>
</a>
</g>
</g>
<!-- Node0&#45;&gt;Node28 -->
<g id="edge52" class="edge">
<title>Node0&#45;&gt;Node28</title>
<path fill="none" stroke="#191970" d="M1234.5061,-515.2455C1220.8508,-506.6534 1200.7431,-494.0014 1185.0098,-484.1018"/>
<polygon fill="#191970" stroke="#191970" points="1186.6616,-481.006 1176.3337,-478.6427 1182.9337,-486.9307 1186.6616,-481.006"/>
</g>
<!-- Node31 -->
<g id="node32" class="node">
<title>Node31</title>
<g id="a_node32"><a xlink:href="SpatialAcc_8h.html" target="_top" xlink:title="iDynTree/Core/SpatialAcc.h">
<polygon fill="none" stroke="#000000" points="934.0088,-459.5 934.0088,-478.5 1082.0088,-478.5 1082.0088,-459.5 934.0088,-459.5"/>
<text text-anchor="middle" x="1008.0088" y="-466.5" font-family="FreeSans.ttf" font-size="10.00" fill="#000000">iDynTree/Core/SpatialAcc.h</text>
</a>
</g>
</g>
<!-- Node0&#45;&gt;Node31 -->
<g id="edge63" class="edge">
<title>Node0&#45;&gt;Node31</title>
<path fill="none" stroke="#191970" d="M1220.8179,-518.2451C1180.8306,-508.9918 1108.3914,-492.229 1059.2562,-480.8589"/>
<polygon fill="#191970" stroke="#191970" points="1059.9826,-477.4346 1049.451,-478.5899 1058.4045,-484.2544 1059.9826,-477.4346"/>
</g>
<!-- Node32 -->
<g id="node33" class="node">
<title>Node32</title>
<polygon fill="none" stroke="#bfbfbf" points="1316.5088,-459.5 1316.5088,-478.5 1393.5088,-478.5 1393.5088,-459.5 1316.5088,-459.5"/>
<text text-anchor="middle" x="1355.0088" y="-466.5" font-family="FreeSans.ttf" font-size="10.00" fill="#000000">Eigen/Dense</text>
</g>
<!-- Node0&#45;&gt;Node32 -->
<g id="edge65" class="edge">
<title>Node0&#45;&gt;Node32</title>
<path fill="none" stroke="#191970" d="M1268.2984,-515.2455C1284.785,-506.4527 1309.2439,-493.4079 1327.9853,-483.4125"/>
<polygon fill="#191970" stroke="#191970" points="1329.7523,-486.4368 1336.9287,-478.6427 1326.4581,-480.2604 1329.7523,-486.4368"/>
</g>
<!-- Node33 -->
<g id="node34" class="node">
<title>Node33</title>
<polygon fill="none" stroke="#bfbfbf" points="1411.5088,-459.5 1411.5088,-478.5 1458.5088,-478.5 1458.5088,-459.5 1411.5088,-459.5"/>
<text text-anchor="middle" x="1435.0088" y="-466.5" font-family="FreeSans.ttf" font-size="10.00" fill="#000000">cmath</text>
</g>
<!-- Node0&#45;&gt;Node33 -->
<g id="edge66" class="edge">
<title>Node0&#45;&gt;Node33</title>
<path fill="none" stroke="#191970" d="M1279.0836,-516.3605C1307.9577,-507.7583 1353.7366,-494.06 1401.6461,-479.3992"/>
<polygon fill="#191970" stroke="#191970" points="1402.7164,-482.7319 1411.252,-476.4554 1400.6653,-476.0391 1402.7164,-482.7319"/>
</g>
<!-- Node34 -->
<g id="node35" class="node">
<title>Node34</title>
<polygon fill="none" stroke="#bfbfbf" points="1477.0088,-459.5 1477.0088,-478.5 1523.0088,-478.5 1523.0088,-459.5 1477.0088,-459.5"/>
<text text-anchor="middle" x="1500.0088" y="-466.5" font-family="FreeSans.ttf" font-size="10.00" fill="#000000">cstdio</text>
</g>
<!-- Node0&#45;&gt;Node34 -->
<g id="edge67" class="edge">
<title>Node0&#45;&gt;Node34</title>
<path fill="none" stroke="#191970" d="M1279.1293,-519.7665C1319.3226,-512.3462 1394.2212,-497.8127 1466.8924,-479.1191"/>
<polygon fill="#191970" stroke="#191970" points="1467.8677,-482.4819 1476.664,-476.5763 1466.1048,-475.7075 1467.8677,-482.4819"/>
</g>
<!-- Node2 -->
<g id="node3" class="node">
<title>Node2</title>
<polygon fill="none" stroke="#bfbfbf" points="304.0088,-56.5 304.0088,-75.5 348.0088,-75.5 348.0088,-56.5 304.0088,-56.5"/>
<text text-anchor="middle" x="326.0088" y="-63.5" font-family="FreeSans.ttf" font-size="10.00" fill="#000000">string</text>
</g>
<!-- Node1&#45;&gt;Node2 -->
<g id="edge2" class="edge">
<title>Node1&#45;&gt;Node2</title>
<path fill="none" stroke="#191970" d="M115.2138,-336.4434C70.229,-322.2795 .0088,-291.0354 .0088,-234 .0088,-234 .0088,-234 .0088,-178 .0088,-146.7875 -.1314,-131.7858 24.0088,-112 64.7933,-78.5721 224.4481,-69.3205 293.6856,-66.856"/>
<polygon fill="#191970" stroke="#191970" points="294.1102,-70.344 303.9894,-66.516 293.8794,-63.3478 294.1102,-70.344"/>
</g>
<!-- Node3 -->
<g id="node4" class="node">
<title>Node3</title>
<g id="a_node4"><a xlink:href="Direction_8h.html" target="_top" xlink:title="iDynTree/Core/Direction.h">
<polygon fill="none" stroke="#000000" points="354.5088,-168.5 354.5088,-187.5 495.5088,-187.5 495.5088,-168.5 354.5088,-168.5"/>
<text text-anchor="middle" x="425.0088" y="-175.5" font-family="FreeSans.ttf" font-size="10.00" fill="#000000">iDynTree/Core/Direction.h</text>
</a>
</g>
</g>
<!-- Node1&#45;&gt;Node3 -->
<g id="edge3" class="edge">
<title>Node1&#45;&gt;Node3</title>
<path fill="none" stroke="#191970" d="M167.4686,-336.4862C212.7852,-308.5991 345.5581,-226.8927 400.6336,-193.0001"/>
<polygon fill="#191970" stroke="#191970" points="402.6978,-195.8395 409.3801,-187.6177 399.0291,-189.8779 402.6978,-195.8395"/>
</g>
<!-- Node5 -->
<g id="node6" class="node">
<title>Node5</title>
<g id="a_node6"><a xlink:href="Utils_8h.html" target="_top" xlink:title="iDynTree/Core/Utils.h">
<polygon fill="none" stroke="#000000" points="462.5088,-56.5 462.5088,-75.5 581.5088,-75.5 581.5088,-56.5 462.5088,-56.5"/>
<text text-anchor="middle" x="522.0088" y="-63.5" font-family="FreeSans.ttf" font-size="10.00" fill="#000000">iDynTree/Core/Utils.h</text>
</a>
</g>
</g>
<!-- Node1&#45;&gt;Node5 -->
<g id="edge43" class="edge">
<title>Node1&#45;&gt;Node5</title>
<path fill="none" stroke="#191970" d="M146.7406,-336.2461C131.8329,-307.174 92.9497,-219.9172 133.0088,-168 171.7177,-117.8325 351.1027,-87.527 452.211,-74.1389"/>
<polygon fill="#191970" stroke="#191970" points="452.8782,-77.5816 462.3423,-72.8192 451.974,-70.6402 452.8782,-77.5816"/>
</g>
<!-- Node19 -->
<g id="node20" class="node">
<title>Node19</title>
<g id="a_node20"><a xlink:href="Position_8h.html" target="_top" xlink:title="iDynTree/Core/Position.h">
<polygon fill="none" stroke="#000000" points="329.0088,-280.5 329.0088,-299.5 465.0088,-299.5 465.0088,-280.5 329.0088,-280.5"/>
<text text-anchor="middle" x="397.0088" y="-287.5" font-family="FreeSans.ttf" font-size="10.00" fill="#000000">iDynTree/Core/Position.h</text>
</a>
</g>
</g>
<!-- Node1&#45;&gt;Node19 -->
<g id="edge24" class="edge">
<title>Node1&#45;&gt;Node19</title>
<path fill="none" stroke="#191970" d="M193.8474,-336.4369C235.7772,-326.8529 300.4036,-312.0812 345.4712,-301.78"/>
<polygon fill="#191970" stroke="#191970" points="346.374,-305.164 355.3427,-299.5237 344.8142,-298.34 346.374,-305.164"/>
</g>
<!-- Node3&#45;&gt;Node2 -->
<g id="edge4" class="edge">
<title>Node3&#45;&gt;Node2</title>
<path fill="none" stroke="#191970" d="M416.5681,-168.4509C399.8369,-149.5227 362.2622,-107.014 341.1486,-83.1279"/>
<polygon fill="#191970" stroke="#191970" points="343.6734,-80.6994 334.4281,-75.5249 338.4286,-85.3354 343.6734,-80.6994"/>
</g>
<!-- Node4 -->
<g id="node5" class="node">
<title>Node4</title>
<g id="a_node5"><a xlink:href="VectorFixSize_8h.html" target="_top" xlink:title="iDynTree/Core/VectorFixSize.h">
<polygon fill="none" stroke="#000000" points="764.5088,-112.5 764.5088,-131.5 925.5088,-131.5 925.5088,-112.5 764.5088,-112.5"/>
<text text-anchor="middle" x="845.0088" y="-119.5" font-family="FreeSans.ttf" font-size="10.00" fill="#000000">iDynTree/Core/VectorFixSize.h</text>
</a>
</g>
</g>
<!-- Node3&#45;&gt;Node4 -->
<g id="edge5" class="edge">
<title>Node3&#45;&gt;Node4</title>
<path fill="none" stroke="#191970" d="M495.7811,-168.5637C569.7263,-158.7043 685.5887,-143.256 763.3574,-132.8869"/>
<polygon fill="#191970" stroke="#191970" points="764.145,-136.3129 773.5947,-131.5219 763.2198,-129.3743 764.145,-136.3129"/>
</g>
<!-- Node3&#45;&gt;Node5 -->
<g id="edge23" class="edge">
<title>Node3&#45;&gt;Node5</title>
<path fill="none" stroke="#191970" d="M433.2789,-168.4509C449.6721,-149.5227 486.4877,-107.014 507.1748,-83.1279"/>
<polygon fill="#191970" stroke="#191970" points="509.8585,-85.3754 513.7595,-75.5249 504.5671,-80.7927 509.8585,-85.3754"/>
</g>
<!-- Node4&#45;&gt;Node2 -->
<g id="edge19" class="edge">
<title>Node4&#45;&gt;Node2</title>
<path fill="none" stroke="#191970" d="M764.4845,-113.3114C648.1323,-100.7571 438.1855,-78.1038 358.1702,-69.4702"/>
<polygon fill="#191970" stroke="#191970" points="358.5164,-65.9873 348.1986,-68.3943 357.7654,-72.9469 358.5164,-65.9873"/>
</g>
<!-- Node4&#45;&gt;Node5 -->
<g id="edge6" class="edge">
<title>Node4&#45;&gt;Node5</title>
<path fill="none" stroke="#191970" d="M789.8501,-112.4369C733.6421,-102.6918 646.4975,-87.5832 586.9806,-77.2645"/>
<polygon fill="#191970" stroke="#191970" points="587.3909,-73.7835 576.9399,-75.5237 586.195,-80.6806 587.3909,-73.7835"/>
</g>
<!-- Node8 -->
<g id="node9" class="node">
<title>Node8</title>
<g id="a_node9"><a xlink:href="Span_8h.html" target="_top" xlink:title="iDynTree/Core/Span.h">
<polygon fill="none" stroke="#000000" points="780.5088,-56.5 780.5088,-75.5 901.5088,-75.5 901.5088,-56.5 780.5088,-56.5"/>
<text text-anchor="middle" x="841.0088" y="-63.5" font-family="FreeSans.ttf" font-size="10.00" fill="#000000">iDynTree/Core/Span.h</text>
</a>
</g>
</g>
<!-- Node4&#45;&gt;Node8 -->
<g id="edge9" class="edge">
<title>Node4&#45;&gt;Node8</title>
<path fill="none" stroke="#191970" d="M844.312,-112.2455C843.7901,-104.9382 843.0584,-94.6944 842.4162,-85.7046"/>
<polygon fill="#191970" stroke="#191970" points="845.9012,-85.3679 841.6975,-75.6427 838.919,-85.8667 845.9012,-85.3679"/>
</g>
<!-- Node9 -->
<g id="node10" class="node">
<title>Node9</title>
<polygon fill="none" stroke="#bfbfbf" points="1076.0088,-.5 1076.0088,-19.5 1128.0088,-19.5 1128.0088,-.5 1076.0088,-.5"/>
<text text-anchor="middle" x="1102.0088" y="-7.5" font-family="FreeSans.ttf" font-size="10.00" fill="#000000">cassert</text>
</g>
<!-- Node4&#45;&gt;Node9 -->
<g id="edge21" class="edge">
<title>Node4&#45;&gt;Node9</title>
<path fill="none" stroke="#191970" d="M865.7094,-112.3928C893.9228,-99.3561 946.0837,-75.4573 991.0088,-56 1017.0208,-44.7341 1046.694,-32.467 1068.8121,-23.4361"/>
<polygon fill="#191970" stroke="#191970" points="1070.158,-26.6672 1078.0987,-19.6532 1067.5171,-20.1844 1070.158,-26.6672"/>
</g>
<!-- Node4&#45;&gt;Node17 -->
<g id="edge20" class="edge">
<title>Node4&#45;&gt;Node17</title>
<path fill="none" stroke="#191970" d="M906.8275,-112.4369C981.8485,-100.8314 1106.0434,-81.619 1168.5526,-71.949"/>
<polygon fill="#191970" stroke="#191970" points="1169.4131,-75.3576 1178.7605,-70.3699 1168.3429,-68.4399 1169.4131,-75.3576"/>
</g>
<!-- Node18 -->
<g id="node19" class="node">
<title>Node18</title>
<polygon fill="none" stroke="#bfbfbf" points="1000.0088,-56.5 1000.0088,-75.5 1050.0088,-75.5 1050.0088,-56.5 1000.0088,-56.5"/>
<text text-anchor="middle" x="1025.0088" y="-63.5" font-family="FreeSans.ttf" font-size="10.00" fill="#000000">cstring</text>
</g>
<!-- Node4&#45;&gt;Node18 -->
<g id="edge22" class="edge">
<title>Node4&#45;&gt;Node18</title>
<path fill="none" stroke="#191970" d="M875.9519,-112.3733C907.7435,-102.4825 957.1373,-87.1156 990.2547,-76.8124"/>
<polygon fill="#191970" stroke="#191970" points="991.4636,-80.1018 999.9724,-73.7891 989.3841,-73.4178 991.4636,-80.1018"/>
</g>
<!-- Node6 -->
<g id="node7" class="node">
<title>Node6</title>
<polygon fill="none" stroke="#bfbfbf" points="495.5088,-.5 495.5088,-19.5 548.5088,-19.5 548.5088,-.5 495.5088,-.5"/>
<text text-anchor="middle" x="522.0088" y="-7.5" font-family="FreeSans.ttf" font-size="10.00" fill="#000000">cstddef</text>
</g>
<!-- Node5&#45;&gt;Node6 -->
<g id="edge7" class="edge">
<title>Node5&#45;&gt;Node6</title>
<path fill="none" stroke="#191970" d="M522.0088,-56.2455C522.0088,-48.9382 522.0088,-38.6944 522.0088,-29.7046"/>
<polygon fill="#191970" stroke="#191970" points="525.5089,-29.6426 522.0088,-19.6427 518.5089,-29.6427 525.5089,-29.6426"/>
</g>
<!-- Node7 -->
<g id="node8" class="node">
<title>Node7</title>
<polygon fill="none" stroke="#bfbfbf" points="397.0088,-.5 397.0088,-19.5 477.0088,-19.5 477.0088,-.5 397.0088,-.5"/>
<text text-anchor="middle" x="437.0088" y="-7.5" font-family="FreeSans.ttf" font-size="10.00" fill="#000000">CoreExport.h</text>
</g>
<!-- Node5&#45;&gt;Node7 -->
<g id="edge8" class="edge">
<title>Node5&#45;&gt;Node7</title>
<path fill="none" stroke="#191970" d="M507.2029,-56.2455C494.2832,-47.7337 475.3157,-35.2375 460.3535,-25.3801"/>
<polygon fill="#191970" stroke="#191970" points="461.9212,-22.2216 451.645,-19.6427 458.07,-28.067 461.9212,-22.2216"/>
</g>
<!-- Node8&#45;&gt;Node6 -->
<g id="edge13" class="edge">
<title>Node8&#45;&gt;Node6</title>
<path fill="none" stroke="#191970" d="M780.4703,-58.1227C725.1118,-50.475 640.8188,-37.7174 558.4379,-19.896"/>
<polygon fill="#191970" stroke="#191970" points="559.1808,-16.4758 548.6635,-17.7553 557.6831,-23.3137 559.1808,-16.4758"/>
</g>
<!-- Node8&#45;&gt;Node9 -->
<g id="edge10" class="edge">
<title>Node8&#45;&gt;Node9</title>
<path fill="none" stroke="#191970" d="M893.7811,-56.4576C937.5035,-48.2804 1001.4597,-35.6964 1065.7868,-20.1693"/>
<polygon fill="#191970" stroke="#191970" points="1066.8068,-23.5233 1075.6937,-17.755 1065.1493,-16.7223 1066.8068,-23.5233"/>
</g>
<!-- Node10 -->
<g id="node11" class="node">
<title>Node10</title>
<polygon fill="none" stroke="#bfbfbf" points="800.0088,-.5 800.0088,-19.5 864.0088,-19.5 864.0088,-.5 800.0088,-.5"/>
<text text-anchor="middle" x="832.0088" y="-7.5" font-family="FreeSans.ttf" font-size="10.00" fill="#000000">algorithm</text>
</g>
<!-- Node8&#45;&gt;Node10 -->
<g id="edge11" class="edge">
<title>Node8&#45;&gt;Node10</title>
<path fill="none" stroke="#191970" d="M839.4411,-56.2455C838.2667,-48.9382 836.6204,-38.6944 835.1756,-29.7046"/>
<polygon fill="#191970" stroke="#191970" points="838.601,-28.9606 833.5585,-19.6427 831.6897,-30.0714 838.601,-28.9606"/>
</g>
<!-- Node11 -->
<g id="node12" class="node">
<title>Node11</title>
<polygon fill="none" stroke="#bfbfbf" points="882.0088,-.5 882.0088,-19.5 924.0088,-19.5 924.0088,-.5 882.0088,-.5"/>
<text text-anchor="middle" x="903.0088" y="-7.5" font-family="FreeSans.ttf" font-size="10.00" fill="#000000">array</text>
</g>
<!-- Node8&#45;&gt;Node11 -->
<g id="edge12" class="edge">
<title>Node8&#45;&gt;Node11</title>
<path fill="none" stroke="#191970" d="M851.8083,-56.2455C860.8765,-48.0549 874.0294,-36.1749 884.7332,-26.5069"/>
<polygon fill="#191970" stroke="#191970" points="887.2579,-28.9429 892.3329,-19.6427 882.5659,-23.7482 887.2579,-28.9429"/>
</g>
<!-- Node12 -->
<g id="node13" class="node">
<title>Node12</title>
<polygon fill="none" stroke="#bfbfbf" points="942.5088,-.5 942.5088,-19.5 995.5088,-19.5 995.5088,-.5 942.5088,-.5"/>
<text text-anchor="middle" x="969.0088" y="-7.5" font-family="FreeSans.ttf" font-size="10.00" fill="#000000">iterator</text>
</g>
<!-- Node8&#45;&gt;Node12 -->
<g id="edge14" class="edge">
<title>Node8&#45;&gt;Node12</title>
<path fill="none" stroke="#191970" d="M863.0127,-56.3733C883.6522,-47.3435 914.7245,-33.7494 937.8976,-23.6111"/>
<polygon fill="#191970" stroke="#191970" points="939.5332,-26.7159 947.2919,-19.5011 936.7274,-20.3028 939.5332,-26.7159"/>
</g>
<!-- Node13 -->
<g id="node14" class="node">
<title>Node13</title>
<polygon fill="none" stroke="#bfbfbf" points="1014.0088,-.5 1014.0088,-19.5 1058.0088,-19.5 1058.0088,-.5 1014.0088,-.5"/>
<text text-anchor="middle" x="1036.0088" y="-7.5" font-family="FreeSans.ttf" font-size="10.00" fill="#000000">limits</text>
</g>
<!-- Node8&#45;&gt;Node13 -->
<g id="edge15" class="edge">
<title>Node8&#45;&gt;Node13</title>
<path fill="none" stroke="#191970" d="M876.6338,-56.4335C907.8503,-47.9565 954.6702,-35.0154 1003.8306,-20.2828"/>
<polygon fill="#191970" stroke="#191970" points="1005.1242,-23.5485 1013.6899,-17.3132 1003.1054,-16.846 1005.1242,-23.5485"/>
</g>
<!-- Node14 -->
<g id="node15" class="node">
<title>Node14</title>
<polygon fill="none" stroke="#bfbfbf" points="566.5088,-.5 566.5088,-19.5 631.5088,-19.5 631.5088,-.5 566.5088,-.5"/>
<text text-anchor="middle" x="599.0088" y="-7.5" font-family="FreeSans.ttf" font-size="10.00" fill="#000000">stdexcept</text>
</g>
<!-- Node8&#45;&gt;Node14 -->
<g id="edge16" class="edge">
<title>Node8&#45;&gt;Node14</title>
<path fill="none" stroke="#191970" d="M799.2339,-56.4899C760.8131,-47.7214 701.9988,-34.2435 641.3149,-20.0589"/>
<polygon fill="#191970" stroke="#191970" points="642.0967,-16.6473 631.5623,-17.7769 640.5018,-23.4632 642.0967,-16.6473"/>
</g>
<!-- Node15 -->
<g id="node16" class="node">
<title>Node15</title>
<polygon fill="none" stroke="#bfbfbf" points="649.5088,-.5 649.5088,-19.5 718.5088,-19.5 718.5088,-.5 649.5088,-.5"/>
<text text-anchor="middle" x="684.0088" y="-7.5" font-family="FreeSans.ttf" font-size="10.00" fill="#000000">type_traits</text>
</g>
<!-- Node8&#45;&gt;Node15 -->
<g id="edge17" class="edge">
<title>Node8&#45;&gt;Node15</title>
<path fill="none" stroke="#191970" d="M814.0195,-56.3733C788.1388,-47.1419 748.884,-33.1402 720.2799,-22.9375"/>
<polygon fill="#191970" stroke="#191970" points="721.2405,-19.5642 710.6458,-19.5011 718.8887,-26.1573 721.2405,-19.5642"/>
</g>
<!-- Node16 -->
<g id="node17" class="node">
<title>Node16</title>
<polygon fill="none" stroke="#bfbfbf" points="736.5088,-.5 736.5088,-19.5 781.5088,-19.5 781.5088,-.5 736.5088,-.5"/>
<text text-anchor="middle" x="759.0088" y="-7.5" font-family="FreeSans.ttf" font-size="10.00" fill="#000000">utility</text>
</g>
<!-- Node8&#45;&gt;Node16 -->
<g id="edge18" class="edge">
<title>Node8&#45;&gt;Node16</title>
<path fill="none" stroke="#191970" d="M826.7254,-56.2455C814.2617,-47.7337 795.9636,-35.2375 781.5296,-25.3801"/>
<polygon fill="#191970" stroke="#191970" points="783.3603,-22.392 773.1284,-19.6427 779.4125,-28.1726 783.3603,-22.392"/>
</g>
<!-- Node19&#45;&gt;Node2 -->
<g id="edge42" class="edge">
<title>Node19&#45;&gt;Node2</title>
<path fill="none" stroke="#191970" d="M357.3545,-280.4991C290.3015,-263.5424 159.2322,-226.2445 133.0088,-188 88.6432,-123.297 228.2264,-85.7207 293.855,-71.9995"/>
<polygon fill="#191970" stroke="#191970" points="294.608,-75.4181 303.7136,-70.0016 293.2176,-68.5576 294.608,-75.4181"/>
</g>
<!-- Node20 -->
<g id="node21" class="node">
<title>Node20</title>
<g id="a_node21"><a xlink:href="PositionRaw_8h.html" target="_top" xlink:title="iDynTree/Core/PositionRaw.h">
<polygon fill="none" stroke="#000000" points="142.0088,-168.5 142.0088,-187.5 298.0088,-187.5 298.0088,-168.5 142.0088,-168.5"/>
<text text-anchor="middle" x="220.0088" y="-175.5" font-family="FreeSans.ttf" font-size="10.00" fill="#000000">iDynTree/Core/PositionRaw.h</text>
</a>
</g>
</g>
<!-- Node19&#45;&gt;Node20 -->
<g id="edge25" class="edge">
<title>Node19&#45;&gt;Node20</title>
<path fill="none" stroke="#191970" d="M381.9178,-280.4509C351.0901,-260.9441 280.6838,-216.3932 243.6997,-192.9909"/>
<polygon fill="#191970" stroke="#191970" points="245.3834,-189.9144 235.0615,-187.5249 241.6403,-195.8297 245.3834,-189.9144"/>
</g>
<!-- Node21 -->
<g id="node22" class="node">
<title>Node21</title>
<g id="a_node22"><a xlink:href="Rotation_8h.html" target="_top" xlink:title="iDynTree/Core/Rotation.h">
<polygon fill="none" stroke="#000000" points="529.5088,-224.5 529.5088,-243.5 666.5088,-243.5 666.5088,-224.5 529.5088,-224.5"/>
<text text-anchor="middle" x="598.0088" y="-231.5" font-family="FreeSans.ttf" font-size="10.00" fill="#000000">iDynTree/Core/Rotation.h</text>
</a>
</g>
</g>
<!-- Node19&#45;&gt;Node21 -->
<g id="edge28" class="edge">
<title>Node19&#45;&gt;Node21</title>
<path fill="none" stroke="#191970" d="M431.5619,-280.3733C465.4192,-270.9404 517.1547,-256.5265 553.9514,-246.2747"/>
<polygon fill="#191970" stroke="#191970" points="555.2128,-249.5566 563.9065,-243.5011 553.334,-242.8135 555.2128,-249.5566"/>
</g>
<!-- Node20&#45;&gt;Node2 -->
<g id="edge27" class="edge">
<title>Node20&#45;&gt;Node2</title>
<path fill="none" stroke="#191970" d="M229.0463,-168.4509C247.0387,-149.4401 287.5437,-106.6423 310.0936,-82.816"/>
<polygon fill="#191970" stroke="#191970" points="312.6623,-85.1937 316.9941,-75.5249 307.5782,-80.382 312.6623,-85.1937"/>
</g>
<!-- Node20&#45;&gt;Node4 -->
<g id="edge26" class="edge">
<title>Node20&#45;&gt;Node4</title>
<path fill="none" stroke="#191970" d="M298.2169,-170.9925C414.1829,-160.602 631.2274,-141.1548 754.108,-130.1447"/>
<polygon fill="#191970" stroke="#191970" points="754.5961,-133.6151 764.2438,-129.2365 753.9713,-126.643 754.5961,-133.6151"/>
</g>
<!-- Node21&#45;&gt;Node2 -->
<g id="edge29" class="edge">
<title>Node21&#45;&gt;Node2</title>
<path fill="none" stroke="#191970" d="M529.4062,-230.2022C463.7203,-225.0792 371.0161,-213.4632 346.0088,-188 319.2955,-160.7998 320.0236,-112.6114 322.9732,-85.6549"/>
<polygon fill="#191970" stroke="#191970" points="326.4716,-85.8949 324.2999,-75.5251 319.5309,-84.9859 326.4716,-85.8949"/>
</g>
<!-- Node21&#45;&gt;Node4 -->
<g id="edge41" class="edge">
<title>Node21&#45;&gt;Node4</title>
<path fill="none" stroke="#191970" d="M619.0678,-224.4509C662.9076,-204.5722 764.1049,-158.6852 814.8493,-135.6756"/>
<polygon fill="#191970" stroke="#191970" points="816.3409,-138.8422 824.003,-131.5249 813.4501,-132.467 816.3409,-138.8422"/>
</g>
<!-- Node22 -->
<g id="node23" class="node">
<title>Node22</title>
<g id="a_node23"><a xlink:href="GeomVector3_8h.html" target="_top" xlink:title="iDynTree/Core/GeomVector3.h">
<polygon fill="none" stroke="#000000" points="766.5088,-168.5 766.5088,-187.5 929.5088,-187.5 929.5088,-168.5 766.5088,-168.5"/>
<text text-anchor="middle" x="848.0088" y="-175.5" font-family="FreeSans.ttf" font-size="10.00" fill="#000000">iDynTree/Core/GeomVector3.h</text>
</a>
</g>
</g>
<!-- Node21&#45;&gt;Node22 -->
<g id="edge30" class="edge">
<title>Node21&#45;&gt;Node22</title>
<path fill="none" stroke="#191970" d="M640.7012,-224.4369C683.5767,-214.8328 749.7092,-200.0191 795.709,-189.7152"/>
<polygon fill="#191970" stroke="#191970" points="796.4993,-193.1249 805.4924,-187.5237 794.9691,-186.2942 796.4993,-193.1249"/>
</g>
<!-- Node23 -->
<g id="node24" class="node">
<title>Node23</title>
<g id="a_node24"><a xlink:href="RotationRaw_8h.html" target="_top" xlink:title="iDynTree/Core/RotationRaw.h">
<polygon fill="none" stroke="#000000" points="514.0088,-168.5 514.0088,-187.5 672.0088,-187.5 672.0088,-168.5 514.0088,-168.5"/>
<text text-anchor="middle" x="593.0088" y="-175.5" font-family="FreeSans.ttf" font-size="10.00" fill="#000000">iDynTree/Core/RotationRaw.h</text>
</a>
</g>
</g>
<!-- Node21&#45;&gt;Node23 -->
<g id="edge32" class="edge">
<title>Node21&#45;&gt;Node23</title>
<path fill="none" stroke="#191970" d="M597.1378,-224.2455C596.4854,-216.9382 595.5708,-206.6944 594.7681,-197.7046"/>
<polygon fill="#191970" stroke="#191970" points="598.2453,-197.2918 593.8697,-187.6427 591.273,-197.9143 598.2453,-197.2918"/>
</g>
<!-- Node22&#45;&gt;Node4 -->
<g id="edge31" class="edge">
<title>Node22&#45;&gt;Node4</title>
<path fill="none" stroke="#191970" d="M847.4862,-168.2455C847.0947,-160.9382 846.546,-150.6944 846.0644,-141.7046"/>
<polygon fill="#191970" stroke="#191970" points="849.5554,-141.4411 845.5253,-131.6427 842.5654,-141.8156 849.5554,-141.4411"/>
</g>
<!-- Node23&#45;&gt;Node2 -->
<g id="edge40" class="edge">
<title>Node23&#45;&gt;Node2</title>
<path fill="none" stroke="#191970" d="M570.2445,-168.4509C522.6377,-148.481 412.4593,-102.2639 357.8594,-79.3606"/>
<polygon fill="#191970" stroke="#191970" points="358.9143,-76.0076 348.3388,-75.3669 356.2065,-82.4627 358.9143,-76.0076"/>
</g>
<!-- Node24 -->
<g id="node25" class="node">
<title>Node24</title>
<g id="a_node25"><a xlink:href="MatrixFixSize_8h.html" target="_top" xlink:title="iDynTree/Core/MatrixFixSize.h">
<polygon fill="none" stroke="#000000" points="1004.5088,-112.5 1004.5088,-131.5 1165.5088,-131.5 1165.5088,-112.5 1004.5088,-112.5"/>
<text text-anchor="middle" x="1085.0088" y="-119.5" font-family="FreeSans.ttf" font-size="10.00" fill="#000000">iDynTree/Core/MatrixFixSize.h</text>
</a>
</g>
</g>
<!-- Node23&#45;&gt;Node24 -->
<g id="edge33" class="edge">
<title>Node23&#45;&gt;Node24</title>
<path fill="none" stroke="#191970" d="M672.0571,-169.0026C759.8976,-159.0045 901.5109,-142.8859 993.9307,-132.3666"/>
<polygon fill="#191970" stroke="#191970" points="994.5716,-135.8163 1004.1116,-131.2078 993.7799,-128.8613 994.5716,-135.8163"/>
</g>
<!-- Node24&#45;&gt;Node2 -->
<g id="edge37" class="edge">
<title>Node24&#45;&gt;Node2</title>
<path fill="none" stroke="#191970" d="M1004.3169,-116.2523C884.3115,-107.6737 651.7059,-90.9285 454.0088,-76 421.3851,-73.5365 384.0936,-70.6106 358.2112,-68.5624"/>
<polygon fill="#191970" stroke="#191970" points="358.4502,-65.0704 348.2049,-67.7692 357.8971,-72.0485 358.4502,-65.0704"/>
</g>
<!-- Node24&#45;&gt;Node5 -->
<g id="edge34" class="edge">
<title>Node24&#45;&gt;Node5</title>
<path fill="none" stroke="#191970" d="M1004.3446,-113.9766C893.7054,-102.9716 696.6996,-83.376 591.9747,-72.9593"/>
<polygon fill="#191970" stroke="#191970" points="592.1238,-69.457 581.8264,-71.9499 591.4308,-76.4226 592.1238,-69.457"/>
</g>
<!-- Node24&#45;&gt;Node9 -->
<g id="edge35" class="edge">
<title>Node24&#45;&gt;Node9</title>
<path fill="none" stroke="#191970" d="M1086.4582,-112.4509C1089.2308,-94.184 1095.337,-53.9553 1099.0189,-29.6976"/>
<polygon fill="#191970" stroke="#191970" points="1102.5226,-29.9369 1100.563,-19.5249 1095.6019,-28.8864 1102.5226,-29.9369"/>
</g>
<!-- Node24&#45;&gt;Node17 -->
<g id="edge39" class="edge">
<title>Node24&#45;&gt;Node17</title>
<path fill="none" stroke="#191970" d="M1105.9813,-112.3733C1125.5655,-103.3838 1155.0049,-89.8706 1177.0597,-79.7471"/>
<polygon fill="#191970" stroke="#191970" points="1178.6817,-82.8538 1186.3099,-75.5011 1175.7615,-76.4919 1178.6817,-82.8538"/>
</g>
<!-- Node24&#45;&gt;Node18 -->
<g id="edge36" class="edge">
<title>Node24&#45;&gt;Node18</title>
<path fill="none" stroke="#191970" d="M1074.5576,-112.2455C1065.7819,-104.0549 1053.0533,-92.1749 1042.6948,-82.5069"/>
<polygon fill="#191970" stroke="#191970" points="1045.0389,-79.9072 1035.3402,-75.6427 1040.2626,-85.0246 1045.0389,-79.9072"/>
</g>
<!-- Node25 -->
<g id="node26" class="node">
<title>Node25</title>
<polygon fill="none" stroke="#bfbfbf" points="1280.0088,-56.5 1280.0088,-75.5 1340.0088,-75.5 1340.0088,-56.5 1280.0088,-56.5"/>
<text text-anchor="middle" x="1310.0088" y="-63.5" font-family="FreeSans.ttf" font-size="10.00" fill="#000000">iostream</text>
</g>
<!-- Node24&#45;&gt;Node25 -->
<g id="edge38" class="edge">
<title>Node24&#45;&gt;Node25</title>
<path fill="none" stroke="#191970" d="M1123.432,-112.4369C1164.2473,-102.2784 1228.48,-86.2916 1269.9193,-75.9778"/>
<polygon fill="#191970" stroke="#191970" points="1270.8203,-79.3604 1279.6789,-73.5488 1269.1296,-72.5677 1270.8203,-79.3604"/>
</g>
<!-- Node26&#45;&gt;Node2 -->
<g id="edge48" class="edge">
<title>Node26&#45;&gt;Node2</title>
<path fill="none" stroke="#191970" d="M524.979,-341.7469C437.837,-333.7249 290.5634,-310.6004 184.0088,-244 152.2409,-224.144 136.3556,-222.175 121.0088,-188 110.5583,-164.7284 134.993,-115.7448 139.0088,-112 161.2861,-91.2257 246.5929,-76.7196 293.9147,-70.0836"/>
<polygon fill="#191970" stroke="#191970" points="294.521,-73.5334 303.9561,-68.7137 293.5747,-66.5976 294.521,-73.5334"/>
</g>
<!-- Node26&#45;&gt;Node19 -->
<g id="edge45" class="edge">
<title>Node26&#45;&gt;Node19</title>
<path fill="none" stroke="#191970" d="M563.4556,-336.3733C529.5983,-326.9404 477.8628,-312.5265 441.0661,-302.2747"/>
<polygon fill="#191970" stroke="#191970" points="441.6835,-298.8135 431.111,-299.5011 439.8047,-305.5566 441.6835,-298.8135"/>
</g>
<!-- Node26&#45;&gt;Node21 -->
<g id="edge46" class="edge">
<title>Node26&#45;&gt;Node21</title>
<path fill="none" stroke="#191970" d="M598.0088,-336.4509C598.0088,-318.184 598.0088,-277.9553 598.0088,-253.6976"/>
<polygon fill="#191970" stroke="#191970" points="601.5089,-253.5249 598.0088,-243.5249 594.5089,-253.5249 601.5089,-253.5249"/>
</g>
<!-- Node26&#45;&gt;Node24 -->
<g id="edge47" class="edge">
<title>Node26&#45;&gt;Node24</title>
<path fill="none" stroke="#191970" d="M636.4041,-336.4709C766.671,-304.0565 1184.2123,-199.4371 1193.0088,-188 1212.3562,-162.8444 1175.5016,-145.0664 1139.6999,-134.348"/>
<polygon fill="#191970" stroke="#191970" points="1140.2527,-130.8671 1129.6775,-131.5118 1138.3466,-137.6026 1140.2527,-130.8671"/>
</g>
<!-- Node27&#45;&gt;Node4 -->
<g id="edge50" class="edge">
<title>Node27&#45;&gt;Node4</title>
<path fill="none" stroke="#191970" d="M1044.024,-168.4369C1003.0361,-158.8731 939.9083,-144.1432 895.773,-133.845"/>
<polygon fill="#191970" stroke="#191970" points="896.3582,-130.3876 885.8245,-131.5237 894.7676,-137.2045 896.3582,-130.3876"/>
</g>
<!-- Node27&#45;&gt;Node24 -->
<g id="edge51" class="edge">
<title>Node27&#45;&gt;Node24</title>
<path fill="none" stroke="#191970" d="M1085.0088,-168.2455C1085.0088,-160.9382 1085.0088,-150.6944 1085.0088,-141.7046"/>
<polygon fill="#191970" stroke="#191970" points="1088.5089,-141.6426 1085.0088,-131.6427 1081.5089,-141.6427 1088.5089,-141.6426"/>
</g>
<!-- Node29 -->
<g id="node30" class="node">
<title>Node29</title>
<g id="a_node30"><a xlink:href="SpatialMotionVector_8h.html" target="_top" xlink:title="iDynTree/Core/SpatialMotion\lVector.h">
<polygon fill="none" stroke="#000000" points="1058.5088,-392.5 1058.5088,-422.5 1213.5088,-422.5 1213.5088,-392.5 1058.5088,-392.5"/>
<text text-anchor="start" x="1066.5088" y="-410.5" font-family="FreeSans.ttf" font-size="10.00" fill="#000000">iDynTree/Core/SpatialMotion</text>
<text text-anchor="middle" x="1136.0088" y="-399.5" font-family="FreeSans.ttf" font-size="10.00" fill="#000000">Vector.h</text>
</a>
</g>
</g>
<!-- Node28&#45;&gt;Node29 -->
<g id="edge53" class="edge">
<title>Node28&#45;&gt;Node29</title>
<path fill="none" stroke="#191970" d="M1157.1025,-459.3906C1154.1263,-452.0692 1149.8904,-441.6488 1145.9944,-432.0647"/>
<polygon fill="#191970" stroke="#191970" points="1149.1326,-430.4904 1142.1244,-422.5446 1142.6479,-433.1265 1149.1326,-430.4904"/>
</g>
<!-- Node29&#45;&gt;Node4 -->
<g id="edge54" class="edge">
<title>Node29&#45;&gt;Node4</title>
<path fill="none" stroke="#191970" d="M1126.9134,-392.4269C1101.6461,-351.5938 1026.6585,-237.2669 939.0088,-168 921.6502,-154.2821 899.5365,-143.2064 881.1192,-135.3632"/>
<polygon fill="#191970" stroke="#191970" points="882.4495,-132.1259 871.8698,-131.5595 879.7871,-138.5998 882.4495,-132.1259"/>
</g>
<!-- Node29&#45;&gt;Node22 -->
<g id="edge55" class="edge">
<title>Node29&#45;&gt;Node22</title>
<path fill="none" stroke="#191970" d="M1117.1123,-392.4419C1065.3095,-351.1615 921.3643,-236.4552 868.1346,-194.0378"/>
<polygon fill="#191970" stroke="#191970" points="870.1216,-191.1458 860.1197,-187.6509 865.7591,-196.6202 870.1216,-191.1458"/>
</g>
<!-- Node30 -->
<g id="node31" class="node">
<title>Node30</title>
<g id="a_node31"><a xlink:href="SpatialVector_8h.html" target="_top" xlink:title="iDynTree/Core/SpatialVector.h">
<polygon fill="none" stroke="#000000" points="767.5088,-336.5 767.5088,-355.5 928.5088,-355.5 928.5088,-336.5 767.5088,-336.5"/>
<text text-anchor="middle" x="848.0088" y="-343.5" font-family="FreeSans.ttf" font-size="10.00" fill="#000000">iDynTree/Core/SpatialVector.h</text>
</a>
</g>
</g>
<!-- Node29&#45;&gt;Node30 -->
<g id="edge56" class="edge">
<title>Node29&#45;&gt;Node30</title>
<path fill="none" stroke="#191970" d="M1065.556,-392.4554C1015.2895,-381.7214 948.6789,-367.4973 902.467,-357.6291"/>
<polygon fill="#191970" stroke="#191970" points="903.149,-354.1959 892.6385,-355.5303 901.6871,-361.0416 903.149,-354.1959"/>
</g>
<!-- Node30&#45;&gt;Node5 -->
<g id="edge59" class="edge">
<title>Node30&#45;&gt;Node5</title>
<path fill="none" stroke="#191970" d="M812.9348,-336.3935C769.1692,-322.0216 700.0088,-290.3894 700.0088,-234 700.0088,-234 700.0088,-234 700.0088,-178 700.0088,-121.4041 634.7471,-92.2831 583.2565,-78.1147"/>
<polygon fill="#191970" stroke="#191970" points="584.0542,-74.7057 573.4937,-75.5583 582.281,-81.4774 584.0542,-74.7057"/>
</g>
<!-- Node30&#45;&gt;Node17 -->
<g id="edge62" class="edge">
<title>Node30&#45;&gt;Node17</title>
<path fill="none" stroke="#191970" d="M874.0134,-336.4992C953.5092,-307.2042 1189.1177,-218.4185 1209.0088,-188 1229.3987,-156.8185 1220.8284,-110.899 1213.4662,-85.209"/>
<polygon fill="#191970" stroke="#191970" points="1216.7736,-84.0572 1210.4729,-75.5395 1210.0866,-86.1272 1216.7736,-84.0572"/>
</g>
<!-- Node30&#45;&gt;Node19 -->
<g id="edge57" class="edge">
<title>Node30&#45;&gt;Node19</title>
<path fill="none" stroke="#191970" d="M771.2473,-336.4686C688.8156,-326.2332 558.5184,-310.0544 475.4451,-299.7393"/>
<polygon fill="#191970" stroke="#191970" points="475.6589,-296.2391 465.3038,-298.4801 474.7963,-303.1857 475.6589,-296.2391"/>
</g>
<!-- Node30&#45;&gt;Node21 -->
<g id="edge58" class="edge">
<title>Node30&#45;&gt;Node21</title>
<path fill="none" stroke="#191970" d="M796.6172,-336.4683C763.8527,-329.1837 721.1123,-317.3957 686.0088,-300 659.3925,-286.8102 632.6324,-265.2827 615.7296,-250.4189"/>
<polygon fill="#191970" stroke="#191970" points="618.0479,-247.7967 608.2675,-243.7232 613.373,-253.0068 618.0479,-247.7967"/>
</g>
<!-- Node30&#45;&gt;Node22 -->
<g id="edge60" class="edge">
<title>Node30&#45;&gt;Node22</title>
<path fill="none" stroke="#191970" d="M848.0088,-336.4862C848.0088,-309.9293 848.0088,-234.5651 848.0088,-198.1655"/>
<polygon fill="#191970" stroke="#191970" points="851.5089,-197.8278 848.0088,-187.8279 844.5089,-197.8279 851.5089,-197.8278"/>
</g>
<!-- Node30&#45;&gt;Node25 -->
<g id="edge61" class="edge">
<title>Node30&#45;&gt;Node25</title>
<path fill="none" stroke="#191970" d="M903.1435,-336.4478C983.9698,-319.7851 1134.9807,-278.1868 1227.0088,-188 1259.3134,-156.3417 1286.5388,-110.3195 1300.3245,-84.8061"/>
<polygon fill="#191970" stroke="#191970" points="1303.5005,-86.2874 1305.0844,-75.8116 1297.3134,-83.0132 1303.5005,-86.2874"/>
</g>
<!-- Node31&#45;&gt;Node29 -->
<g id="edge64" class="edge">
<title>Node31&#45;&gt;Node29</title>
<path fill="none" stroke="#191970" d="M1028.0088,-459.3906C1046.0538,-450.7205 1073.1439,-437.7046 1095.6776,-426.8779"/>
<polygon fill="#191970" stroke="#191970" points="1097.1986,-430.0302 1104.6964,-422.5446 1094.1671,-423.7206 1097.1986,-430.0302"/>
</g>
</g>
</svg>
