<?xml version="1.0" encoding="UTF-8" standalone="no"?>
<!DOCTYPE svg PUBLIC "-//W3C//DTD SVG 1.1//EN"
 "http://www.w3.org/Graphics/SVG/1.1/DTD/svg11.dtd">
<!-- Generated by graphviz version 2.40.1 (20161225.0304)
 -->
<!-- Title: BerdyHelper.cpp Pages: 1 -->
<svg width="3300pt" height="766pt"
 viewBox="0.00 0.00 3299.50 766.00" xmlns="http://www.w3.org/2000/svg" xmlns:xlink="http://www.w3.org/1999/xlink">
<g id="graph0" class="graph" transform="scale(1 1) rotate(0) translate(4 762)">
<title>BerdyHelper.cpp</title>
<!-- Node0 -->
<g id="node1" class="node">
<title>Node0</title>
<polygon fill="#bfbfbf" stroke="#000000" points="1004.5,-738.5 1004.5,-757.5 1101.5,-757.5 1101.5,-738.5 1004.5,-738.5"/>
<text text-anchor="middle" x="1053" y="-745.5" font-family="FreeSans.ttf" font-size="10.00" fill="#000000">BerdyHelper.cpp</text>
</g>
<!-- Node1 -->
<g id="node2" class="node">
<title>Node1</title>
<g id="a_node2"><a xlink:href="BerdyHelper_8h.html" target="_top" xlink:title="iDynTree/Estimation\l/BerdyHelper.h">
<polygon fill="none" stroke="#000000" points="1316.5,-604.5 1316.5,-634.5 1431.5,-634.5 1431.5,-604.5 1316.5,-604.5"/>
<text text-anchor="start" x="1324.5" y="-622.5" font-family="FreeSans.ttf" font-size="10.00" fill="#000000">iDynTree/Estimation</text>
<text text-anchor="middle" x="1374" y="-611.5" font-family="FreeSans.ttf" font-size="10.00" fill="#000000">/BerdyHelper.h</text>
</a>
</g>
</g>
<!-- Node0&#45;&gt;Node1 -->
<g id="edge1" class="edge">
<title>Node0&#45;&gt;Node1</title>
<path fill="none" stroke="#191970" d="M1076.8649,-738.4466C1129.7366,-717.2814 1257.5417,-666.1196 1327.0619,-638.2899"/>
<polygon fill="#191970" stroke="#191970" points="1328.4878,-641.4892 1336.4708,-634.5234 1325.8862,-634.9905 1328.4878,-641.4892"/>
</g>
<!-- Node10 -->
<g id="node10" class="node">
<title>Node10</title>
<polygon fill="none" stroke="#bfbfbf" points="25,-.5 25,-19.5 89,-19.5 89,-.5 25,-.5"/>
<text text-anchor="middle" x="57" y="-7.5" font-family="FreeSans.ttf" font-size="10.00" fill="#000000">algorithm</text>
</g>
<!-- Node0&#45;&gt;Node10 -->
<g id="edge152" class="edge">
<title>Node0&#45;&gt;Node10</title>
<path fill="none" stroke="#191970" d="M1004.3195,-747.2493C806.84,-744.0192 74.0959,-730.1731 34,-702 1.5509,-679.1999 0,-659.1584 0,-619.5 0,-619.5 0,-619.5 0,-122 0,-85.1826 24.7675,-48.2377 41.6501,-27.3313"/>
<polygon fill="#191970" stroke="#191970" points="44.3511,-29.5574 48.0938,-19.6456 38.9869,-25.06 44.3511,-29.5574"/>
</g>
<!-- Node17 -->
<g id="node12" class="node">
<title>Node17</title>
<polygon fill="none" stroke="#bfbfbf" points="994,-56.5 994,-75.5 1050,-75.5 1050,-56.5 994,-56.5"/>
<text text-anchor="middle" x="1022" y="-63.5" font-family="FreeSans.ttf" font-size="10.00" fill="#000000">sstream</text>
</g>
<!-- Node0&#45;&gt;Node17 -->
<g id="edge151" class="edge">
<title>Node0&#45;&gt;Node17</title>
<path fill="none" stroke="#191970" d="M1004.2979,-747.3734C809.3137,-744.6581 93.7186,-732.6336 57,-702 28.108,-677.896 38,-657.1265 38,-619.5 38,-619.5 38,-619.5 38,-306.5 38,-199.4717 132.4721,-198.7099 235,-168 378.5836,-124.9928 846.6068,-81.4091 983.8475,-69.2963"/>
<polygon fill="#191970" stroke="#191970" points="984.2333,-72.776 993.8887,-68.4143 983.6207,-65.8029 984.2333,-72.776"/>
</g>
<!-- Node41 -->
<g id="node26" class="node">
<title>Node41</title>
<g id="a_node26"><a xlink:href="Traversal_8h.html" target="_top" xlink:title="iDynTree/Model/Traversal.h">
<polygon fill="none" stroke="#000000" points="1688,-548.5 1688,-567.5 1836,-567.5 1836,-548.5 1688,-548.5"/>
<text text-anchor="middle" x="1762" y="-555.5" font-family="FreeSans.ttf" font-size="10.00" fill="#000000">iDynTree/Model/Traversal.h</text>
</a>
</g>
</g>
<!-- Node0&#45;&gt;Node41 -->
<g id="edge122" class="edge">
<title>Node0&#45;&gt;Node41</title>
<path fill="none" stroke="#191970" d="M1088.6453,-738.4477C1206.7369,-706.8011 1585.1168,-605.4017 1716.5252,-570.1865"/>
<polygon fill="#191970" stroke="#191970" points="1717.5306,-573.5406 1726.2837,-567.5714 1715.7186,-566.7792 1717.5306,-573.5406"/>
</g>
<!-- Node44 -->
<g id="node30" class="node">
<title>Node44</title>
<g id="a_node30"><a xlink:href="Sensors_8h.html" target="_top" xlink:title="iDynTree/Sensors/Sensors.h">
<polygon fill="none" stroke="#000000" points="928.5,-548.5 928.5,-567.5 1079.5,-567.5 1079.5,-548.5 928.5,-548.5"/>
<text text-anchor="middle" x="1004" y="-555.5" font-family="FreeSans.ttf" font-size="10.00" fill="#000000">iDynTree/Sensors/Sensors.h</text>
</a>
</g>
</g>
<!-- Node0&#45;&gt;Node44 -->
<g id="edge123" class="edge">
<title>Node0&#45;&gt;Node44</title>
<path fill="none" stroke="#191970" d="M1053.1792,-738.2122C1053.3056,-714.4246 1051.7712,-652.0061 1034,-604 1030.2566,-593.8878 1023.9658,-583.7327 1018.1089,-575.5461"/>
<polygon fill="#191970" stroke="#191970" points="1020.8801,-573.4079 1012.0649,-567.5306 1015.2909,-577.6224 1020.8801,-573.4079"/>
</g>
<!-- Node45 -->
<g id="node31" class="node">
<title>Node45</title>
<g id="a_node31"><a xlink:href="Model_8h.html" target="_top" xlink:title="iDynTree/Model/Model.h">
<polygon fill="none" stroke="#000000" points="1924.5,-487 1924.5,-506 2057.5,-506 2057.5,-487 1924.5,-487"/>
<text text-anchor="middle" x="1991" y="-494" font-family="FreeSans.ttf" font-size="10.00" fill="#000000">iDynTree/Model/Model.h</text>
</a>
</g>
</g>
<!-- Node0&#45;&gt;Node45 -->
<g id="edge121" class="edge">
<title>Node0&#45;&gt;Node45</title>
<path fill="none" stroke="#191970" d="M1101.5866,-745.1907C1186.2022,-739.8493 1365.925,-726.5141 1516,-702 1647.8362,-680.4652 1688.0068,-691.6143 1809,-635 1877.0076,-603.1783 1943.8512,-542.7967 1974.1424,-513.4117"/>
<polygon fill="#191970" stroke="#191970" points="1976.6813,-515.8239 1981.3621,-506.3191 1971.7757,-510.8304 1976.6813,-515.8239"/>
</g>
<!-- Node55 -->
<g id="node37" class="node">
<title>Node55</title>
<g id="a_node37"><a xlink:href="ClassicalAcc_8h.html" target="_top" xlink:title="iDynTree/Core/ClassicalAcc.h">
<polygon fill="none" stroke="#000000" points="66,-677 66,-696 224,-696 224,-677 66,-677"/>
<text text-anchor="middle" x="145" y="-684" font-family="FreeSans.ttf" font-size="10.00" fill="#000000">iDynTree/Core/ClassicalAcc.h</text>
</a>
</g>
</g>
<!-- Node0&#45;&gt;Node55 -->
<g id="edge95" class="edge">
<title>Node0&#45;&gt;Node55</title>
<path fill="none" stroke="#191970" d="M1004.1587,-747.0943C877.3673,-744.3425 527.4463,-734.1924 238,-702 227.6443,-700.8482 216.6883,-699.3109 206.071,-697.6509"/>
<polygon fill="#191970" stroke="#191970" points="206.4558,-694.1678 196.0259,-696.0304 205.3409,-701.0785 206.4558,-694.1678"/>
</g>
<!-- Node56 -->
<g id="node38" class="node">
<title>Node56</title>
<g id="a_node38"><a xlink:href="EigenHelpers_8h.html" target="_top" xlink:title="iDynTree/Core/EigenHelpers.h">
<polygon fill="none" stroke="#000000" points="596.5,-420 596.5,-439 757.5,-439 757.5,-420 596.5,-420"/>
<text text-anchor="middle" x="677" y="-427" font-family="FreeSans.ttf" font-size="10.00" fill="#000000">iDynTree/Core/EigenHelpers.h</text>
</a>
</g>
</g>
<!-- Node0&#45;&gt;Node56 -->
<g id="edge97" class="edge">
<title>Node0&#45;&gt;Node56</title>
<path fill="none" stroke="#191970" d="M1004.349,-744.2375C846.4167,-731.5372 355.6039,-688.0641 310,-635 301.0199,-624.5509 301.6061,-614.9256 310,-604 406.6806,-478.1594 542.7881,-624.2119 655,-512 671.5702,-495.4298 676.0648,-467.8645 677.0789,-449.2023"/>
<polygon fill="#191970" stroke="#191970" points="680.579,-449.239 677.3383,-439.152 673.5814,-449.0584 680.579,-449.239"/>
</g>
<!-- Node58 -->
<g id="node41" class="node">
<title>Node58</title>
<g id="a_node41"><a xlink:href="SparseMatrix_8h.html" target="_top" xlink:title="iDynTree/Core/SparseMatrix.h">
<polygon fill="none" stroke="#000000" points="484.5,-487 484.5,-506 645.5,-506 645.5,-487 484.5,-487"/>
<text text-anchor="middle" x="565" y="-494" font-family="FreeSans.ttf" font-size="10.00" fill="#000000">iDynTree/Core/SparseMatrix.h</text>
</a>
</g>
</g>
<!-- Node0&#45;&gt;Node58 -->
<g id="edge109" class="edge">
<title>Node0&#45;&gt;Node58</title>
<path fill="none" stroke="#191970" d="M1004.4297,-746.9399C838.2189,-743.0787 301.0543,-728.5814 276,-702 229.0544,-652.1929 232.0524,-600.4714 276,-548 300.9638,-518.1944 398.8256,-505.6234 473.8249,-500.3309"/>
<polygon fill="#191970" stroke="#191970" points="474.5029,-503.7933 484.246,-499.6313 474.034,-496.8091 474.5029,-503.7933"/>
</g>
<!-- Node59 -->
<g id="node42" class="node">
<title>Node59</title>
<g id="a_node42"><a xlink:href="ForwardKinematics_8h.html" target="_top" xlink:title="iDynTree/Model/ForwardKinematics.h">
<polygon fill="none" stroke="#000000" points="3094.5,-548.5 3094.5,-567.5 3291.5,-567.5 3291.5,-548.5 3094.5,-548.5"/>
<text text-anchor="middle" x="3193" y="-555.5" font-family="FreeSans.ttf" font-size="10.00" fill="#000000">iDynTree/Model/ForwardKinematics.h</text>
</a>
</g>
</g>
<!-- Node0&#45;&gt;Node59 -->
<g id="edge114" class="edge">
<title>Node0&#45;&gt;Node59</title>
<path fill="none" stroke="#191970" d="M1101.739,-747.3427C1383.7315,-743.4685 2796.7836,-723.0625 2886,-702 2999.0355,-675.3142 3120.1759,-604.2382 3169.7981,-573.0388"/>
<polygon fill="#191970" stroke="#191970" points="3171.9143,-575.8411 3178.4799,-567.5259 3168.1619,-569.9318 3171.9143,-575.8411"/>
</g>
<!-- Node60 -->
<g id="node43" class="node">
<title>Node60</title>
<g id="a_node43"><a xlink:href="Dynamics_8h.html" target="_top" xlink:title="iDynTree/Model/Dynamics.h">
<polygon fill="none" stroke="#000000" points="2810,-487 2810,-506 2962,-506 2962,-487 2810,-487"/>
<text text-anchor="middle" x="2886" y="-494" font-family="FreeSans.ttf" font-size="10.00" fill="#000000">iDynTree/Model/Dynamics.h</text>
</a>
</g>
</g>
<!-- Node0&#45;&gt;Node60 -->
<g id="edge116" class="edge">
<title>Node0&#45;&gt;Node60</title>
<path fill="none" stroke="#191970" d="M1101.6839,-745.4692C1201.0577,-740.0043 1434.3085,-725.6479 1629,-702 2092.7729,-645.6685 2647.1959,-542.3504 2826.7687,-507.968"/>
<polygon fill="#191970" stroke="#191970" points="2827.6376,-511.3652 2836.7995,-506.0444 2826.3192,-504.4905 2827.6376,-511.3652"/>
</g>
<!-- Node61 -->
<g id="node44" class="node">
<title>Node61</title>
<g id="a_node44"><a xlink:href="AllSensorsTypes_8h.html" target="_top" xlink:title="iDynTree/Sensors/AllSensors\lTypes.h">
<polygon fill="none" stroke="#000000" points="765.5,-671.5 765.5,-701.5 920.5,-701.5 920.5,-671.5 765.5,-671.5"/>
<text text-anchor="start" x="773.5" y="-689.5" font-family="FreeSans.ttf" font-size="10.00" fill="#000000">iDynTree/Sensors/AllSensors</text>
<text text-anchor="middle" x="843" y="-678.5" font-family="FreeSans.ttf" font-size="10.00" fill="#000000">Types.h</text>
</a>
</g>
</g>
<!-- Node0&#45;&gt;Node61 -->
<g id="edge124" class="edge">
<title>Node0&#45;&gt;Node61</title>
<path fill="none" stroke="#191970" d="M1020.1875,-738.3906C989.2666,-729.3352 942.1576,-715.539 904.2853,-704.4479"/>
<polygon fill="#191970" stroke="#191970" points="904.9524,-700.9963 894.3718,-701.5446 902.985,-707.7141 904.9524,-700.9963"/>
</g>
<!-- Node67 -->
<g id="node50" class="node">
<title>Node67</title>
<g id="a_node50"><a xlink:href="ExternalWrenchesEstimation_8h.html" target="_top" xlink:title="iDynTree/Estimation\l/ExternalWrenchesEstimation.h">
<polygon fill="none" stroke="#000000" points="1737.5,-481.5 1737.5,-511.5 1906.5,-511.5 1906.5,-481.5 1737.5,-481.5"/>
<text text-anchor="start" x="1745.5" y="-499.5" font-family="FreeSans.ttf" font-size="10.00" fill="#000000">iDynTree/Estimation</text>
<text text-anchor="middle" x="1822" y="-488.5" font-family="FreeSans.ttf" font-size="10.00" fill="#000000">/ExternalWrenchesEstimation.h</text>
</a>
</g>
</g>
<!-- Node0&#45;&gt;Node67 -->
<g id="edge142" class="edge">
<title>Node0&#45;&gt;Node67</title>
<path fill="none" stroke="#191970" d="M1101.5609,-739.5789C1150.7211,-730.8728 1228.8573,-716.5388 1296,-702 1541.4741,-648.8462 1689.8795,-765.5361 1845,-568 1855.8041,-554.2416 1848.9681,-535.2676 1840.0134,-520.3228"/>
<polygon fill="#191970" stroke="#191970" points="1842.7155,-518.0611 1834.3028,-511.6209 1836.8632,-521.9017 1842.7155,-518.0611"/>
</g>
<!-- Node2 -->
<g id="node3" class="node">
<title>Node2</title>
<g id="a_node3"><a xlink:href="Direction_8h.html" target="_top" xlink:title="iDynTree/Core/Direction.h">
<polygon fill="none" stroke="#000000" points="1227.5,-168.5 1227.5,-187.5 1368.5,-187.5 1368.5,-168.5 1227.5,-168.5"/>
<text text-anchor="middle" x="1298" y="-175.5" font-family="FreeSans.ttf" font-size="10.00" fill="#000000">iDynTree/Core/Direction.h</text>
</a>
</g>
</g>
<!-- Node1&#45;&gt;Node2 -->
<g id="edge2" class="edge">
<title>Node1&#45;&gt;Node2</title>
<path fill="none" stroke="#191970" d="M1366.0103,-604.3855C1346.4976,-566.019 1298,-461.2791 1298,-368 1298,-368 1298,-368 1298,-306.5 1298,-268.0012 1298,-223.0145 1298,-197.7812"/>
<polygon fill="#191970" stroke="#191970" points="1301.5001,-197.6718 1298,-187.6719 1294.5001,-197.6719 1301.5001,-197.6718"/>
</g>
<!-- Node4 -->
<g id="node5" class="node">
<title>Node4</title>
<g id="a_node5"><a xlink:href="VectorFixSize_8h.html" target="_top" xlink:title="iDynTree/Core/VectorFixSize.h">
<polygon fill="none" stroke="#000000" points="923.5,-112.5 923.5,-131.5 1084.5,-131.5 1084.5,-112.5 923.5,-112.5"/>
<text text-anchor="middle" x="1004" y="-119.5" font-family="FreeSans.ttf" font-size="10.00" fill="#000000">iDynTree/Core/VectorFixSize.h</text>
</a>
</g>
</g>
<!-- Node1&#45;&gt;Node4 -->
<g id="edge32" class="edge">
<title>Node1&#45;&gt;Node4</title>
<path fill="none" stroke="#191970" d="M1355.1717,-604.2786C1335.1862,-588.6505 1302.237,-564.3653 1271,-548 1213.1956,-517.7159 1033.1807,-498.6289 996,-445 988.15,-433.6773 993.6247,-427.5715 996,-414 998.9328,-397.2435 1004.0284,-394.2686 1009,-378 1018.5769,-346.6614 1027,-339.2693 1027,-306.5 1027,-306.5 1027,-306.5 1027,-239.5 1027,-204.3287 1016.9523,-164.3199 1010.139,-141.2331"/>
<polygon fill="#191970" stroke="#191970" points="1013.4715,-140.1617 1007.1981,-131.6239 1006.778,-142.2104 1013.4715,-140.1617"/>
</g>
<!-- Node5 -->
<g id="node6" class="node">
<title>Node5</title>
<g id="a_node6"><a xlink:href="Utils_8h.html" target="_top" xlink:title="iDynTree/Core/Utils.h">
<polygon fill="none" stroke="#ff0000" points="555.5,-56.5 555.5,-75.5 674.5,-75.5 674.5,-56.5 555.5,-56.5"/>
<text text-anchor="middle" x="615" y="-63.5" font-family="FreeSans.ttf" font-size="10.00" fill="#000000">iDynTree/Core/Utils.h</text>
</a>
</g>
</g>
<!-- Node1&#45;&gt;Node5 -->
<g id="edge33" class="edge">
<title>Node1&#45;&gt;Node5</title>
<path fill="none" stroke="#191970" d="M1325.9004,-604.4941C1269.6908,-587.6478 1173.5838,-560.9768 1089,-548 954.1212,-527.307 604.8059,-557.0503 476,-512 442.2201,-500.1854 228,-342.2864 228,-306.5 228,-306.5 228,-306.5 228,-178 228,-132.9267 263.9918,-130.7065 305,-112 346.5712,-93.0366 467.0342,-79.1557 544.9743,-71.8511"/>
<polygon fill="#191970" stroke="#191970" points="545.5682,-75.3112 555.2042,-70.9071 544.9249,-68.3408 545.5682,-75.3112"/>
</g>
<!-- Node19 -->
<g id="node14" class="node">
<title>Node19</title>
<g id="a_node14"><a xlink:href="Position_8h.html" target="_top" xlink:title="iDynTree/Core/Position.h">
<polygon fill="none" stroke="#000000" points="1906,-297 1906,-316 2042,-316 2042,-297 1906,-297"/>
<text text-anchor="middle" x="1974" y="-304" font-family="FreeSans.ttf" font-size="10.00" fill="#000000">iDynTree/Core/Position.h</text>
</a>
</g>
</g>
<!-- Node1&#45;&gt;Node19 -->
<g id="edge17" class="edge">
<title>Node1&#45;&gt;Node19</title>
<path fill="none" stroke="#191970" d="M1431.7728,-618.3089C1651.2748,-613.6147 2433.5592,-595.305 2681,-568 2853.9868,-548.911 3066,-670.5369 3066,-496.5 3066,-496.5 3066,-496.5 3066,-429.5 3066,-375.9426 3019.4294,-376.0352 2969,-358 2883.7261,-327.5033 2272.0807,-312.4377 2052.3492,-307.9653"/>
<polygon fill="#191970" stroke="#191970" points="2052.2543,-304.4628 2042.1857,-307.7603 2052.113,-311.4614 2052.2543,-304.4628"/>
</g>
<!-- Node26 -->
<g id="node18" class="node">
<title>Node26</title>
<g id="a_node18"><a xlink:href="MatrixDynSize_8h.html" target="_top" xlink:title="iDynTree/Core/MatrixDynSize.h">
<polygon fill="none" stroke="#000000" points="2792.5,-358.5 2792.5,-377.5 2959.5,-377.5 2959.5,-358.5 2792.5,-358.5"/>
<text text-anchor="middle" x="2876" y="-365.5" font-family="FreeSans.ttf" font-size="10.00" fill="#000000">iDynTree/Core/MatrixDynSize.h</text>
</a>
</g>
</g>
<!-- Node1&#45;&gt;Node26 -->
<g id="edge27" class="edge">
<title>Node1&#45;&gt;Node26</title>
<path fill="none" stroke="#191970" d="M1431.5338,-617.8253C1711.2431,-609.4087 2917.7901,-569.8357 2971,-512 2993.6311,-487.4015 2953.3658,-426.7532 2943,-414 2932.5877,-401.1896 2917.6981,-390.4804 2904.5987,-382.6275"/>
<polygon fill="#191970" stroke="#191970" points="2906.3124,-379.5757 2895.8928,-377.6565 2902.8414,-385.6545 2906.3124,-379.5757"/>
</g>
<!-- Node27 -->
<g id="node19" class="node">
<title>Node27</title>
<g id="a_node19"><a xlink:href="VectorDynSize_8h.html" target="_top" xlink:title="iDynTree/Core/VectorDynSize.h">
<polygon fill="none" stroke="#000000" points="832.5,-358.5 832.5,-377.5 999.5,-377.5 999.5,-358.5 832.5,-358.5"/>
<text text-anchor="middle" x="916" y="-365.5" font-family="FreeSans.ttf" font-size="10.00" fill="#000000">iDynTree/Core/VectorDynSize.h</text>
</a>
</g>
</g>
<!-- Node1&#45;&gt;Node27 -->
<g id="edge29" class="edge">
<title>Node1&#45;&gt;Node27</title>
<path fill="none" stroke="#191970" d="M1348.5027,-604.3968C1321.3232,-588.7527 1276.6851,-564.3503 1236,-548 1198.3859,-532.8839 910.2836,-477.4596 886,-445 872.5339,-427 886.7905,-402.1886 899.8785,-385.6469"/>
<polygon fill="#191970" stroke="#191970" points="902.6972,-387.7333 906.4631,-377.8303 897.3436,-383.2234 902.6972,-387.7333"/>
</g>
<!-- Node28 -->
<g id="node20" class="node">
<title>Node28</title>
<g id="a_node20"><a xlink:href="Triplets_8h.html" target="_top" xlink:title="iDynTree/Core/Triplets.h">
<polygon fill="none" stroke="#000000" points="446,-420 446,-439 578,-439 578,-420 446,-420"/>
<text text-anchor="middle" x="512" y="-427" font-family="FreeSans.ttf" font-size="10.00" fill="#000000">iDynTree/Core/Triplets.h</text>
</a>
</g>
</g>
<!-- Node1&#45;&gt;Node28 -->
<g id="edge34" class="edge">
<title>Node1&#45;&gt;Node28</title>
<path fill="none" stroke="#191970" d="M1336.1452,-604.4106C1310.6397,-594.2092 1276.2579,-580.3902 1246,-568 1224.6126,-559.2421 1220.2045,-554.4098 1198,-548 933.8376,-471.7435 858.2959,-495.3681 588,-445 581.3292,-443.7569 574.3399,-442.4027 567.4159,-441.0292"/>
<polygon fill="#191970" stroke="#191970" points="567.8559,-437.5478 557.363,-439.0138 566.4799,-444.4112 567.8559,-437.5478"/>
</g>
<!-- Node29 -->
<g id="node21" class="node">
<title>Node29</title>
<polygon fill="none" stroke="#bfbfbf" points="1350.5,-358.5 1350.5,-377.5 1397.5,-377.5 1397.5,-358.5 1350.5,-358.5"/>
<text text-anchor="middle" x="1374" y="-365.5" font-family="FreeSans.ttf" font-size="10.00" fill="#000000">vector</text>
</g>
<!-- Node1&#45;&gt;Node29 -->
<g id="edge94" class="edge">
<title>Node1&#45;&gt;Node29</title>
<path fill="none" stroke="#191970" d="M1374,-604.1461C1374,-560.6045 1374,-436.3499 1374,-387.7895"/>
<polygon fill="#191970" stroke="#191970" points="1377.5001,-387.6504 1374,-377.6505 1370.5001,-387.6505 1377.5001,-387.6504"/>
</g>
<!-- Node30 -->
<g id="node22" class="node">
<title>Node30</title>
<g id="a_node22"><a xlink:href="Indices_8h.html" target="_top" xlink:title="iDynTree/Model/Indices.h">
<polygon fill="none" stroke="#ff0000" points="2509,-358.5 2509,-377.5 2647,-377.5 2647,-358.5 2509,-358.5"/>
<text text-anchor="middle" x="2578" y="-365.5" font-family="FreeSans.ttf" font-size="10.00" fill="#000000">iDynTree/Model/Indices.h</text>
</a>
</g>
</g>
<!-- Node1&#45;&gt;Node30 -->
<g id="edge39" class="edge">
<title>Node1&#45;&gt;Node30</title>
<path fill="none" stroke="#191970" d="M1431.6274,-617.2708C1687.6041,-606.7415 2712.6319,-557.7156 2794,-445 2802.0643,-433.8289 2802.6686,-424.709 2794,-414 2776.7692,-392.7132 2711.5049,-380.8594 2657.1823,-374.5395"/>
<polygon fill="#191970" stroke="#191970" points="2657.5071,-371.0541 2647.1805,-373.4228 2656.7303,-378.0109 2657.5071,-371.0541"/>
</g>
<!-- Node32 -->
<g id="node23" class="node">
<title>Node32</title>
<g id="a_node23"><a xlink:href="LinkState_8h.html" target="_top" xlink:title="iDynTree/Model/LinkState.h">
<polygon fill="none" stroke="#ff0000" points="2221.5,-420 2221.5,-439 2370.5,-439 2370.5,-420 2221.5,-420"/>
<text text-anchor="middle" x="2296" y="-427" font-family="FreeSans.ttf" font-size="10.00" fill="#000000">iDynTree/Model/LinkState.h</text>
</a>
</g>
</g>
<!-- Node1&#45;&gt;Node32 -->
<g id="edge41" class="edge">
<title>Node1&#45;&gt;Node32</title>
<path fill="none" stroke="#191970" d="M1427.5251,-604.4623C1488.0651,-588.0384 1589.8392,-562.1862 1679,-548 1864.4611,-518.4916 1917.6718,-556.9776 2100,-512 2163.341,-496.3748 2232.6258,-463.0118 2269.4685,-443.8438"/>
<polygon fill="#191970" stroke="#191970" points="2271.3224,-446.8232 2278.5409,-439.068 2268.0617,-440.6291 2271.3224,-446.8232"/>
</g>
<!-- Node1&#45;&gt;Node41 -->
<g id="edge54" class="edge">
<title>Node1&#45;&gt;Node41</title>
<path fill="none" stroke="#191970" d="M1431.6686,-610.3592C1500.925,-599.3817 1617.0534,-580.9748 1691.5514,-569.1665"/>
<polygon fill="#191970" stroke="#191970" points="1692.4491,-572.568 1701.7779,-567.5455 1691.3532,-565.6543 1692.4491,-572.568"/>
</g>
<!-- Node42 -->
<g id="node27" class="node">
<title>Node42</title>
<g id="a_node27"><a xlink:href="FreeFloatingState_8h.html" target="_top" xlink:title="iDynTree/Model/FreeFloating\lState.h">
<polygon fill="none" stroke="#ff0000" points="1402,-481.5 1402,-511.5 1556,-511.5 1556,-481.5 1402,-481.5"/>
<text text-anchor="start" x="1410" y="-499.5" font-family="FreeSans.ttf" font-size="10.00" fill="#000000">iDynTree/Model/FreeFloating</text>
<text text-anchor="middle" x="1479" y="-488.5" font-family="FreeSans.ttf" font-size="10.00" fill="#000000">State.h</text>
</a>
</g>
</g>
<!-- Node1&#45;&gt;Node42 -->
<g id="edge57" class="edge">
<title>Node1&#45;&gt;Node42</title>
<path fill="none" stroke="#191970" d="M1386.8751,-604.4178C1404.9807,-583.2084 1438.1185,-544.3897 1459.3244,-519.5485"/>
<polygon fill="#191970" stroke="#191970" points="1462.189,-521.5837 1466.0196,-511.7056 1456.865,-517.0388 1462.189,-521.5837"/>
</g>
<!-- Node1&#45;&gt;Node44 -->
<g id="edge70" class="edge">
<title>Node1&#45;&gt;Node44</title>
<path fill="none" stroke="#191970" d="M1316.1875,-609.8906C1249.9353,-598.8784 1141.5031,-580.8553 1071.4536,-569.2119"/>
<polygon fill="#191970" stroke="#191970" points="1071.8451,-565.729 1061.4065,-567.5419 1070.6973,-572.6343 1071.8451,-565.729"/>
</g>
<!-- Node54 -->
<g id="node36" class="node">
<title>Node54</title>
<g id="a_node36"><a xlink:href="LinkTraversalsCache_8h.html" target="_top" xlink:title="iDynTree/Model/LinkTraversals\lCache.h">
<polygon fill="none" stroke="#000000" points="1516,-414.5 1516,-444.5 1680,-444.5 1680,-414.5 1516,-414.5"/>
<text text-anchor="start" x="1524" y="-432.5" font-family="FreeSans.ttf" font-size="10.00" fill="#000000">iDynTree/Model/LinkTraversals</text>
<text text-anchor="middle" x="1598" y="-421.5" font-family="FreeSans.ttf" font-size="10.00" fill="#000000">Cache.h</text>
</a>
</g>
</g>
<!-- Node1&#45;&gt;Node54 -->
<g id="edge91" class="edge">
<title>Node1&#45;&gt;Node54</title>
<path fill="none" stroke="#191970" d="M1418.3155,-604.497C1461.1115,-587.9583 1525.1368,-557.5117 1565,-512 1579.225,-495.7594 1587.7594,-472.619 1592.5737,-454.9769"/>
<polygon fill="#191970" stroke="#191970" points="1596.0845,-455.3633 1595.1082,-444.8135 1589.2925,-453.6695 1596.0845,-455.3633"/>
</g>
<!-- Node3 -->
<g id="node4" class="node">
<title>Node3</title>
<polygon fill="none" stroke="#bfbfbf" points="1548,-56.5 1548,-75.5 1592,-75.5 1592,-56.5 1548,-56.5"/>
<text text-anchor="middle" x="1570" y="-63.5" font-family="FreeSans.ttf" font-size="10.00" fill="#000000">string</text>
</g>
<!-- Node2&#45;&gt;Node3 -->
<g id="edge3" class="edge">
<title>Node2&#45;&gt;Node3</title>
<path fill="none" stroke="#191970" d="M1307.5286,-168.3569C1322.3432,-153.9218 1352.3923,-126.8122 1383,-112 1434.0275,-87.3059 1499.4955,-75.1437 1537.8896,-69.7457"/>
<polygon fill="#191970" stroke="#191970" points="1538.5187,-73.1929 1547.9663,-68.3978 1537.5905,-66.2547 1538.5187,-73.1929"/>
</g>
<!-- Node2&#45;&gt;Node4 -->
<g id="edge4" class="edge">
<title>Node2&#45;&gt;Node4</title>
<path fill="none" stroke="#191970" d="M1247.7937,-168.4369C1196.9493,-158.7522 1118.294,-143.7703 1064.1487,-133.4569"/>
<polygon fill="#191970" stroke="#191970" points="1064.4776,-129.9567 1053.9993,-131.5237 1063.1677,-136.8331 1064.4776,-129.9567"/>
</g>
<!-- Node2&#45;&gt;Node5 -->
<g id="edge16" class="edge">
<title>Node2&#45;&gt;Node5</title>
<path fill="none" stroke="#191970" d="M1254.8366,-168.4977C1221.0871,-160.4669 1173.2959,-147.7624 1133,-132 1114.8589,-124.9038 1112.695,-117.473 1094,-112 1055.7387,-100.7989 808.2219,-80.7267 684.7805,-71.2403"/>
<polygon fill="#191970" stroke="#191970" points="684.9096,-67.7401 674.6714,-70.4658 684.3748,-74.7196 684.9096,-67.7401"/>
</g>
<!-- Node4&#45;&gt;Node3 -->
<g id="edge12" class="edge">
<title>Node4&#45;&gt;Node3</title>
<path fill="none" stroke="#191970" d="M1084.7932,-114.0063C1211.4588,-101.474 1451.2528,-77.7488 1537.8161,-69.1843"/>
<polygon fill="#191970" stroke="#191970" points="1538.2217,-72.6613 1547.8284,-68.1937 1537.5324,-65.6953 1538.2217,-72.6613"/>
</g>
<!-- Node4&#45;&gt;Node5 -->
<g id="edge5" class="edge">
<title>Node4&#45;&gt;Node5</title>
<path fill="none" stroke="#191970" d="M937.5705,-112.4369C867.2496,-102.3136 756.722,-86.4021 685.0551,-76.0851"/>
<polygon fill="#191970" stroke="#191970" points="685.1694,-72.5655 674.7727,-74.6048 684.1719,-79.4941 685.1694,-72.5655"/>
</g>
<!-- Node8 -->
<g id="node8" class="node">
<title>Node8</title>
<g id="a_node8"><a xlink:href="Span_8h.html" target="_top" xlink:title="iDynTree/Core/Span.h">
<polygon fill="none" stroke="#ff0000" points="764.5,-56.5 764.5,-75.5 885.5,-75.5 885.5,-56.5 764.5,-56.5"/>
<text text-anchor="middle" x="825" y="-63.5" font-family="FreeSans.ttf" font-size="10.00" fill="#000000">iDynTree/Core/Span.h</text>
</a>
</g>
</g>
<!-- Node4&#45;&gt;Node8 -->
<g id="edge7" class="edge">
<title>Node4&#45;&gt;Node8</title>
<path fill="none" stroke="#191970" d="M973.2288,-112.3733C943.335,-103.021 897.7907,-88.7725 865.0783,-78.5385"/>
<polygon fill="#191970" stroke="#191970" points="865.9586,-75.1466 855.3697,-75.5011 863.8685,-81.8273 865.9586,-75.1466"/>
</g>
<!-- Node9 -->
<g id="node9" class="node">
<title>Node9</title>
<polygon fill="none" stroke="#bfbfbf" points="940,-.5 940,-19.5 992,-19.5 992,-.5 940,-.5"/>
<text text-anchor="middle" x="966" y="-7.5" font-family="FreeSans.ttf" font-size="10.00" fill="#000000">cassert</text>
</g>
<!-- Node4&#45;&gt;Node9 -->
<g id="edge14" class="edge">
<title>Node4&#45;&gt;Node9</title>
<path fill="none" stroke="#191970" d="M999.6019,-112.2518C995.5275,-103.0233 989.4443,-88.7255 985,-76 979.5943,-60.5217 974.5143,-42.6304 970.9695,-29.3834"/>
<polygon fill="#191970" stroke="#191970" points="974.301,-28.2889 968.3796,-19.5033 967.5297,-30.064 974.301,-28.2889"/>
</g>
<!-- Node4&#45;&gt;Node17 -->
<g id="edge13" class="edge">
<title>Node4&#45;&gt;Node17</title>
<path fill="none" stroke="#191970" d="M1007.1354,-112.2455C1009.51,-104.8579 1012.8493,-94.4689 1015.7615,-85.4087"/>
<polygon fill="#191970" stroke="#191970" points="1019.1725,-86.234 1018.9006,-75.6427 1012.5083,-84.0919 1019.1725,-86.234"/>
</g>
<!-- Node18 -->
<g id="node13" class="node">
<title>Node18</title>
<polygon fill="none" stroke="#bfbfbf" points="1083,-56.5 1083,-75.5 1133,-75.5 1133,-56.5 1083,-56.5"/>
<text text-anchor="middle" x="1108" y="-63.5" font-family="FreeSans.ttf" font-size="10.00" fill="#000000">cstring</text>
</g>
<!-- Node4&#45;&gt;Node18 -->
<g id="edge15" class="edge">
<title>Node4&#45;&gt;Node18</title>
<path fill="none" stroke="#191970" d="M1022.1154,-112.2455C1038.445,-103.4527 1062.671,-90.4079 1081.2339,-80.4125"/>
<polygon fill="#191970" stroke="#191970" points="1082.9468,-83.4654 1090.0922,-75.6427 1079.6281,-77.3021 1082.9468,-83.4654"/>
</g>
<!-- Node6 -->
<g id="node7" class="node">
<title>Node6</title>
<polygon fill="none" stroke="#bfbfbf" points="693.5,-.5 693.5,-19.5 746.5,-19.5 746.5,-.5 693.5,-.5"/>
<text text-anchor="middle" x="720" y="-7.5" font-family="FreeSans.ttf" font-size="10.00" fill="#000000">cstddef</text>
</g>
<!-- Node5&#45;&gt;Node6 -->
<g id="edge6" class="edge">
<title>Node5&#45;&gt;Node6</title>
<path fill="none" stroke="#191970" d="M633.2896,-56.2455C649.7762,-47.4527 674.2352,-34.4079 692.9765,-24.4125"/>
<polygon fill="#191970" stroke="#191970" points="694.7435,-27.4368 701.92,-19.6427 691.4494,-21.2604 694.7435,-27.4368"/>
</g>
<!-- Node8&#45;&gt;Node6 -->
<g id="edge10" class="edge">
<title>Node8&#45;&gt;Node6</title>
<path fill="none" stroke="#191970" d="M806.7104,-56.2455C790.2238,-47.4527 765.7648,-34.4079 747.0235,-24.4125"/>
<polygon fill="#191970" stroke="#191970" points="748.5506,-21.2604 738.08,-19.6427 745.2565,-27.4368 748.5506,-21.2604"/>
</g>
<!-- Node8&#45;&gt;Node9 -->
<g id="edge8" class="edge">
<title>Node8&#45;&gt;Node9</title>
<path fill="none" stroke="#191970" d="M849.2388,-56.3733C872.2789,-47.2226 907.1214,-33.3844 932.7501,-23.2057"/>
<polygon fill="#191970" stroke="#191970" points="934.0756,-26.4452 942.0775,-19.5011 931.4918,-19.9395 934.0756,-26.4452"/>
</g>
<!-- Node8&#45;&gt;Node10 -->
<g id="edge9" class="edge">
<title>Node8&#45;&gt;Node10</title>
<path fill="none" stroke="#191970" d="M764.2753,-61.6552C739.3958,-59.885 710.3177,-57.8287 684,-56 448.912,-39.6644 389.8077,-39.9639 155,-20 136.7957,-18.4522 116.7192,-16.4548 99.503,-14.6526"/>
<polygon fill="#191970" stroke="#191970" points="99.5084,-11.1337 89.1955,-13.5615 98.7714,-18.0948 99.5084,-11.1337"/>
</g>
<!-- Node12 -->
<g id="node11" class="node">
<title>Node12</title>
<polygon fill="none" stroke="#bfbfbf" points="163.5,-.5 163.5,-19.5 216.5,-19.5 216.5,-.5 163.5,-.5"/>
<text text-anchor="middle" x="190" y="-7.5" font-family="FreeSans.ttf" font-size="10.00" fill="#000000">iterator</text>
</g>
<!-- Node8&#45;&gt;Node12 -->
<g id="edge11" class="edge">
<title>Node8&#45;&gt;Node12</title>
<path fill="none" stroke="#191970" d="M764.4012,-60.6559C634.3271,-49.1848 331.6802,-22.4946 226.6689,-13.2338"/>
<polygon fill="#191970" stroke="#191970" points="226.8327,-9.7347 216.5638,-12.3426 226.2177,-16.7077 226.8327,-9.7347"/>
</g>
<!-- Node19&#45;&gt;Node3 -->
<g id="edge26" class="edge">
<title>Node19&#45;&gt;Node3</title>
<path fill="none" stroke="#191970" d="M1979.1862,-296.7068C1991.2415,-272.4535 2018.0656,-208.6269 1990,-168 1945.3798,-103.4092 1693.1087,-76.2624 1602.4475,-68.5008"/>
<polygon fill="#191970" stroke="#191970" points="1602.4731,-64.9909 1592.2172,-67.6491 1601.8923,-71.9668 1602.4731,-64.9909"/>
</g>
<!-- Node20 -->
<g id="node15" class="node">
<title>Node20</title>
<g id="a_node15"><a xlink:href="PositionRaw_8h.html" target="_top" xlink:title="iDynTree/Core/PositionRaw.h">
<polygon fill="none" stroke="#000000" points="1825,-168.5 1825,-187.5 1981,-187.5 1981,-168.5 1825,-168.5"/>
<text text-anchor="middle" x="1903" y="-175.5" font-family="FreeSans.ttf" font-size="10.00" fill="#000000">iDynTree/Core/PositionRaw.h</text>
</a>
</g>
</g>
<!-- Node19&#45;&gt;Node20 -->
<g id="edge18" class="edge">
<title>Node19&#45;&gt;Node20</title>
<path fill="none" stroke="#191970" d="M1968.6635,-296.8416C1956.9447,-275.6323 1928.7854,-224.6679 1913.4245,-196.8669"/>
<polygon fill="#191970" stroke="#191970" points="1916.2982,-194.8306 1908.3985,-187.7705 1910.1712,-198.2159 1916.2982,-194.8306"/>
</g>
<!-- Node21 -->
<g id="node16" class="node">
<title>Node21</title>
<g id="a_node16"><a xlink:href="Rotation_8h.html" target="_top" xlink:title="iDynTree/Core/Rotation.h">
<polygon fill="none" stroke="#ff0000" points="1598.5,-230 1598.5,-249 1735.5,-249 1735.5,-230 1598.5,-230"/>
<text text-anchor="middle" x="1667" y="-237" font-family="FreeSans.ttf" font-size="10.00" fill="#000000">iDynTree/Core/Rotation.h</text>
</a>
</g>
</g>
<!-- Node19&#45;&gt;Node21 -->
<g id="edge21" class="edge">
<title>Node19&#45;&gt;Node21</title>
<path fill="none" stroke="#191970" d="M1930.3404,-296.9717C1875.2565,-284.9501 1780.543,-264.2797 1720.9766,-251.2799"/>
<polygon fill="#191970" stroke="#191970" points="1721.5224,-247.8167 1711.006,-249.1039 1720.0298,-254.6557 1721.5224,-247.8167"/>
</g>
<!-- Node20&#45;&gt;Node3 -->
<g id="edge20" class="edge">
<title>Node20&#45;&gt;Node3</title>
<path fill="none" stroke="#191970" d="M1892.8876,-168.4218C1876.8645,-153.8182 1844.0561,-126.1889 1811,-112 1740.4035,-81.6975 1649.6586,-71.2603 1602.1969,-67.7381"/>
<polygon fill="#191970" stroke="#191970" points="1602.4146,-64.2449 1592.1984,-67.052 1601.9353,-71.2285 1602.4146,-64.2449"/>
</g>
<!-- Node20&#45;&gt;Node4 -->
<g id="edge19" class="edge">
<title>Node20&#45;&gt;Node4</title>
<path fill="none" stroke="#191970" d="M1824.8212,-173.7877C1685.6623,-166.1876 1385.8468,-149.3515 1133,-132 1120.7102,-131.1566 1107.7661,-130.2157 1095.0119,-129.2577"/>
<polygon fill="#191970" stroke="#191970" points="1095.076,-125.7526 1084.8402,-128.4873 1094.5473,-132.7326 1095.076,-125.7526"/>
</g>
<!-- Node21&#45;&gt;Node3 -->
<g id="edge22" class="edge">
<title>Node21&#45;&gt;Node3</title>
<path fill="none" stroke="#191970" d="M1661.6467,-229.9248C1646.1814,-202.2625 1601.2309,-121.8614 1580.5891,-84.9403"/>
<polygon fill="#191970" stroke="#191970" points="1583.3913,-82.78 1575.4563,-75.7595 1577.2813,-86.196 1583.3913,-82.78"/>
</g>
<!-- Node21&#45;&gt;Node4 -->
<g id="edge25" class="edge">
<title>Node21&#45;&gt;Node4</title>
<path fill="none" stroke="#191970" d="M1598.4493,-235.5385C1510.0153,-229.536 1351.7655,-215.7639 1219,-188 1154.4274,-174.4966 1081.4396,-150.0692 1039.2705,-135.0189"/>
<polygon fill="#191970" stroke="#191970" points="1040.3375,-131.6831 1029.743,-131.5904 1037.9673,-138.2697 1040.3375,-131.6831"/>
</g>
<!-- Node22 -->
<g id="node17" class="node">
<title>Node22</title>
<g id="a_node17"><a xlink:href="GeomVector3_8h.html" target="_top" xlink:title="iDynTree/Core/GeomVector3.h">
<polygon fill="none" stroke="#000000" points="370.5,-168.5 370.5,-187.5 533.5,-187.5 533.5,-168.5 370.5,-168.5"/>
<text text-anchor="middle" x="452" y="-175.5" font-family="FreeSans.ttf" font-size="10.00" fill="#000000">iDynTree/Core/GeomVector3.h</text>
</a>
</g>
</g>
<!-- Node21&#45;&gt;Node22 -->
<g id="edge23" class="edge">
<title>Node21&#45;&gt;Node22</title>
<path fill="none" stroke="#191970" d="M1598.1951,-236.0173C1391.8026,-225.5703 777.7941,-194.4908 543.889,-182.6512"/>
<polygon fill="#191970" stroke="#191970" points="543.876,-179.1461 533.7118,-182.136 543.522,-186.1372 543.876,-179.1461"/>
</g>
<!-- Node22&#45;&gt;Node4 -->
<g id="edge24" class="edge">
<title>Node22&#45;&gt;Node4</title>
<path fill="none" stroke="#191970" d="M533.7465,-169.7069C635.2139,-159.4131 807.7286,-141.9116 913.2153,-131.21"/>
<polygon fill="#191970" stroke="#191970" points="913.6141,-134.6876 923.2098,-130.1961 912.9075,-127.7234 913.6141,-134.6876"/>
</g>
<!-- Node26&#45;&gt;Node3 -->
<g id="edge28" class="edge">
<title>Node26&#45;&gt;Node3</title>
<path fill="none" stroke="#191970" d="M2831.2096,-358.4018C2775.3198,-343.4885 2687,-308.9367 2687,-239.5 2687,-239.5 2687,-239.5 2687,-178 2687,-121.957 1785.0357,-76.1962 1602.1236,-67.4924"/>
<polygon fill="#191970" stroke="#191970" points="1602.2156,-63.9929 1592.0614,-67.0166 1601.8849,-70.9851 1602.2156,-63.9929"/>
</g>
<!-- Node27&#45;&gt;Node3 -->
<g id="edge31" class="edge">
<title>Node27&#45;&gt;Node3</title>
<path fill="none" stroke="#191970" d="M999.7825,-365.2962C1151.4585,-358.1055 1456,-332.1336 1456,-239.5 1456,-239.5 1456,-239.5 1456,-178 1456,-131.4628 1504.9383,-97.828 1538.6864,-80.1659"/>
<polygon fill="#191970" stroke="#191970" points="1540.3862,-83.2289 1547.749,-75.6105 1537.2424,-76.9746 1540.3862,-83.2289"/>
</g>
<!-- Node27&#45;&gt;Node8 -->
<g id="edge30" class="edge">
<title>Node27&#45;&gt;Node8</title>
<path fill="none" stroke="#191970" d="M913.3403,-358.4157C907.6895,-337.1797 895,-284.4839 895,-239.5 895,-239.5 895,-239.5 895,-178 895,-139.1653 864.3623,-102.6944 843.6251,-82.4569"/>
<polygon fill="#191970" stroke="#191970" points="845.9312,-79.821 836.2467,-75.5244 841.138,-84.9226 845.9312,-79.821"/>
</g>
<!-- Node28&#45;&gt;Node3 -->
<g id="edge37" class="edge">
<title>Node28&#45;&gt;Node3</title>
<path fill="none" stroke="#191970" d="M546.5923,-419.9561C706.6763,-375.777 1368.2582,-193.0538 1378,-188 1425.3831,-163.419 1425.7754,-140.357 1471,-112 1492.5262,-98.5025 1518.6567,-86.5266 1538.6656,-78.1803"/>
<polygon fill="#191970" stroke="#191970" points="1540.0183,-81.4085 1547.9495,-74.3838 1537.3687,-74.9293 1540.0183,-81.4085"/>
</g>
<!-- Node28&#45;&gt;Node5 -->
<g id="edge35" class="edge">
<title>Node28&#45;&gt;Node5</title>
<path fill="none" stroke="#191970" d="M498.5211,-419.9375C451.1184,-385.1388 298.3091,-262.3499 362,-168 402.6409,-107.7957 485.3992,-83.1182 545.2191,-73.0079"/>
<polygon fill="#191970" stroke="#191970" points="546.0321,-76.4227 555.3582,-71.3955 544.9326,-69.5096 546.0321,-76.4227"/>
</g>
<!-- Node28&#45;&gt;Node12 -->
<g id="edge36" class="edge">
<title>Node28&#45;&gt;Node12</title>
<path fill="none" stroke="#191970" d="M445.6718,-420.454C351.4106,-403.4468 190,-357.1479 190,-239.5 190,-239.5 190,-239.5 190,-122 190,-89.7116 190,-52.1872 190,-29.8048"/>
<polygon fill="#191970" stroke="#191970" points="193.5001,-29.5883 190,-19.5884 186.5001,-29.5884 193.5001,-29.5883"/>
</g>
<!-- Node28&#45;&gt;Node29 -->
<g id="edge38" class="edge">
<title>Node28&#45;&gt;Node29</title>
<path fill="none" stroke="#191970" d="M553.2358,-419.9751C564.4587,-417.6884 576.6502,-415.4818 588,-414 877.5655,-376.1952 1231.2203,-369.4526 1340.3393,-368.2563"/>
<polygon fill="#191970" stroke="#191970" points="1340.4513,-371.7555 1350.4153,-368.1544 1340.3803,-364.7559 1340.4513,-371.7555"/>
</g>
<!-- Node30&#45;&gt;Node3 -->
<g id="edge40" class="edge">
<title>Node30&#45;&gt;Node3</title>
<path fill="none" stroke="#191970" d="M2528.4347,-358.4811C2439.7264,-340.017 2263,-296.1265 2263,-239.5 2263,-239.5 2263,-239.5 2263,-178 2263,-110.2154 1739.6212,-75.6598 1602.5413,-67.7718"/>
<polygon fill="#191970" stroke="#191970" points="1602.4546,-64.2613 1592.2725,-67.1894 1602.0582,-71.2501 1602.4546,-64.2613"/>
</g>
<!-- Node32&#45;&gt;Node29 -->
<g id="edge53" class="edge">
<title>Node32&#45;&gt;Node29</title>
<path fill="none" stroke="#191970" d="M2221.2805,-424.5539C2083.1804,-415.4066 1778.6475,-395.2089 1522,-378 1482.8668,-375.376 1437.9153,-372.3349 1407.9181,-370.3017"/>
<polygon fill="#191970" stroke="#191970" points="1407.7954,-366.7854 1397.5815,-369.6008 1407.3218,-373.7694 1407.7954,-366.7854"/>
</g>
<!-- Node32&#45;&gt;Node30 -->
<g id="edge52" class="edge">
<title>Node32&#45;&gt;Node30</title>
<path fill="none" stroke="#191970" d="M2339.7531,-419.9581C2389.4585,-409.1181 2470.5999,-391.4224 2524.1501,-379.7439"/>
<polygon fill="#191970" stroke="#191970" points="2525.1197,-383.1148 2534.1443,-377.5643 2523.6281,-376.2755 2525.1197,-383.1148"/>
</g>
<!-- Node33 -->
<g id="node24" class="node">
<title>Node33</title>
<g id="a_node24"><a xlink:href="Transform_8h.html" target="_top" xlink:title="iDynTree/Core/Transform.h">
<polygon fill="none" stroke="#000000" points="1897,-358.5 1897,-377.5 2043,-377.5 2043,-358.5 1897,-358.5"/>
<text text-anchor="middle" x="1970" y="-365.5" font-family="FreeSans.ttf" font-size="10.00" fill="#000000">iDynTree/Core/Transform.h</text>
</a>
</g>
</g>
<!-- Node32&#45;&gt;Node33 -->
<g id="edge42" class="edge">
<title>Node32&#45;&gt;Node33</title>
<path fill="none" stroke="#191970" d="M2245.4202,-419.9581C2187.3968,-409.012 2092.3175,-391.0752 2030.4431,-379.4026"/>
<polygon fill="#191970" stroke="#191970" points="2030.9058,-375.9282 2020.4302,-377.5137 2029.608,-382.8069 2030.9058,-375.9282"/>
</g>
<!-- Node33&#45;&gt;Node3 -->
<g id="edge51" class="edge">
<title>Node33&#45;&gt;Node3</title>
<path fill="none" stroke="#191970" d="M1953.7443,-358.4095C1938.744,-349.4076 1915.988,-335.3631 1897,-322 1834.4804,-278.001 1651.1408,-131.2205 1590.0595,-82.141"/>
<polygon fill="#191970" stroke="#191970" points="1591.9503,-79.1703 1581.9635,-75.6325 1587.5644,-84.6259 1591.9503,-79.1703"/>
</g>
<!-- Node33&#45;&gt;Node19 -->
<g id="edge43" class="edge">
<title>Node33&#45;&gt;Node19</title>
<path fill="none" stroke="#191970" d="M1970.625,-358.3906C1971.1795,-349.8657 1972.0072,-337.1392 1972.7042,-326.4235"/>
<polygon fill="#191970" stroke="#191970" points="1976.2097,-326.451 1973.3662,-316.2449 1969.2244,-325.9966 1976.2097,-326.451"/>
</g>
<!-- Node33&#45;&gt;Node21 -->
<g id="edge44" class="edge">
<title>Node33&#45;&gt;Node21</title>
<path fill="none" stroke="#191970" d="M1904.3096,-358.4867C1849.4883,-349.7808 1776.2353,-336.1371 1750,-322 1720.5089,-306.1085 1694.575,-276.4629 1679.8504,-257.3735"/>
<polygon fill="#191970" stroke="#191970" points="1682.5228,-255.1031 1673.7283,-249.1948 1676.9189,-259.2978 1682.5228,-255.1031"/>
</g>
<!-- Node24 -->
<g id="node25" class="node">
<title>Node24</title>
<g id="a_node25"><a xlink:href="MatrixFixSize_8h.html" target="_top" xlink:title="iDynTree/Core/MatrixFixSize.h">
<polygon fill="none" stroke="#ff0000" points="1141.5,-112.5 1141.5,-131.5 1302.5,-131.5 1302.5,-112.5 1141.5,-112.5"/>
<text text-anchor="middle" x="1222" y="-119.5" font-family="FreeSans.ttf" font-size="10.00" fill="#000000">iDynTree/Core/MatrixFixSize.h</text>
</a>
</g>
</g>
<!-- Node33&#45;&gt;Node24 -->
<g id="edge45" class="edge">
<title>Node33&#45;&gt;Node24</title>
<path fill="none" stroke="#191970" d="M1908.5923,-358.4172C1863.1906,-350.259 1806.2213,-337.4238 1788,-322 1751.696,-291.2699 1782.1345,-253.7212 1745,-224 1679.4924,-171.57 1444.2224,-142.2286 1312.6654,-129.5801"/>
<polygon fill="#191970" stroke="#191970" points="1312.8852,-126.0854 1302.5994,-128.6255 1312.2242,-133.0541 1312.8852,-126.0854"/>
</g>
<!-- Node24&#45;&gt;Node3 -->
<g id="edge49" class="edge">
<title>Node24&#45;&gt;Node3</title>
<path fill="none" stroke="#191970" d="M1281.4279,-112.4369C1355.4426,-100.5265 1479.2463,-80.604 1537.6432,-71.2068"/>
<polygon fill="#191970" stroke="#191970" points="1538.4424,-74.6233 1547.7593,-69.579 1537.3302,-67.7123 1538.4424,-74.6233"/>
</g>
<!-- Node24&#45;&gt;Node5 -->
<g id="edge46" class="edge">
<title>Node24&#45;&gt;Node5</title>
<path fill="none" stroke="#191970" d="M1141.4153,-113.4314C1136.5383,-112.9395 1131.7042,-112.4589 1127,-112 968.9332,-96.5809 783.2204,-80.371 684.6746,-71.9203"/>
<polygon fill="#191970" stroke="#191970" points="684.807,-68.4189 674.5447,-71.0526 684.2095,-75.3933 684.807,-68.4189"/>
</g>
<!-- Node24&#45;&gt;Node9 -->
<g id="edge47" class="edge">
<title>Node24&#45;&gt;Node9</title>
<path fill="none" stroke="#191970" d="M1213.1244,-112.3841C1199.302,-97.9844 1171.176,-70.9205 1142,-56 1096.8298,-32.9002 1039.0458,-20.6777 1002.2652,-14.7773"/>
<polygon fill="#191970" stroke="#191970" points="1002.4336,-11.2625 992.0194,-13.2104 1001.3753,-18.182 1002.4336,-11.2625"/>
</g>
<!-- Node24&#45;&gt;Node17 -->
<g id="edge50" class="edge">
<title>Node24&#45;&gt;Node17</title>
<path fill="none" stroke="#191970" d="M1187.6188,-112.3733C1152.0923,-102.4259 1096.783,-86.9393 1059.9848,-76.6358"/>
<polygon fill="#191970" stroke="#191970" points="1060.7019,-73.202 1050.1286,-73.876 1058.8145,-79.9427 1060.7019,-73.202"/>
</g>
<!-- Node24&#45;&gt;Node18 -->
<g id="edge48" class="edge">
<title>Node24&#45;&gt;Node18</title>
<path fill="none" stroke="#191970" d="M1202.4027,-112.3733C1184.2669,-103.4644 1157.0865,-90.1127 1136.5413,-80.0203"/>
<polygon fill="#191970" stroke="#191970" points="1137.8603,-76.7688 1127.3416,-75.5011 1134.7739,-83.0517 1137.8603,-76.7688"/>
</g>
<!-- Node41&#45;&gt;Node29 -->
<g id="edge56" class="edge">
<title>Node41&#45;&gt;Node29</title>
<path fill="none" stroke="#191970" d="M1738.0475,-548.3984C1692.394,-529.8765 1590.0659,-487.2955 1507,-445 1467.866,-425.0738 1424.0748,-398.9404 1397.7921,-382.8186"/>
<polygon fill="#191970" stroke="#191970" points="1399.6113,-379.8285 1389.2621,-377.5603 1395.938,-385.7873 1399.6113,-379.8285"/>
</g>
<!-- Node41&#45;&gt;Node30 -->
<g id="edge55" class="edge">
<title>Node41&#45;&gt;Node30</title>
<path fill="none" stroke="#191970" d="M1836.0629,-555.3722C2059.2592,-546.6947 2713.8946,-515.401 2776,-445 2814.9536,-400.8433 2728.3179,-381.8151 2657.5852,-373.7468"/>
<polygon fill="#191970" stroke="#191970" points="2657.5994,-370.2281 2647.2815,-372.6342 2656.8479,-377.1876 2657.5994,-370.2281"/>
</g>
<!-- Node42&#45;&gt;Node27 -->
<g id="edge59" class="edge">
<title>Node42&#45;&gt;Node27</title>
<path fill="none" stroke="#191970" d="M1401.9063,-492.6338C1266.8433,-485.3023 998.264,-468.0291 962,-445 941.1216,-431.7414 928.4436,-405.2955 921.8271,-387.1293"/>
<polygon fill="#191970" stroke="#191970" points="925.1135,-385.9207 918.6157,-377.5523 918.4766,-388.1462 925.1135,-385.9207"/>
</g>
<!-- Node42&#45;&gt;Node29 -->
<g id="edge69" class="edge">
<title>Node42&#45;&gt;Node29</title>
<path fill="none" stroke="#191970" d="M1466.5428,-481.2548C1447.0081,-457.3481 1409.2632,-411.1554 1388.524,-385.7747"/>
<polygon fill="#191970" stroke="#191970" points="1390.9931,-383.2648 1381.9553,-377.7358 1385.5725,-387.694 1390.9931,-383.2648"/>
</g>
<!-- Node42&#45;&gt;Node30 -->
<g id="edge60" class="edge">
<title>Node42&#45;&gt;Node30</title>
<path fill="none" stroke="#191970" d="M1556.1945,-491.216C1694.5571,-481.5194 1979.5267,-460.4616 2078,-445 2138.8165,-435.451 2152.3845,-424.7512 2213,-414 2310.7521,-396.662 2424.3625,-383.4198 2498.5349,-375.6916"/>
<polygon fill="#191970" stroke="#191970" points="2499.1462,-379.1472 2508.7335,-374.6379 2498.4267,-372.1842 2499.1462,-379.1472"/>
</g>
<!-- Node42&#45;&gt;Node32 -->
<g id="edge61" class="edge">
<title>Node42&#45;&gt;Node32</title>
<path fill="none" stroke="#191970" d="M1556.4327,-490.7842C1678.7361,-481.668 1924.1033,-463.0214 2132,-445 2157.7822,-442.7651 2185.8282,-440.1735 2211.3164,-437.7567"/>
<polygon fill="#191970" stroke="#191970" points="2211.6967,-441.2364 2221.3201,-436.8047 2211.0335,-434.2679 2211.6967,-441.2364"/>
</g>
<!-- Node42&#45;&gt;Node33 -->
<g id="edge58" class="edge">
<title>Node42&#45;&gt;Node33</title>
<path fill="none" stroke="#191970" d="M1556.1473,-491.0224C1712.4651,-479.7435 2052.5669,-454.2123 2061,-445 2070.3031,-434.8373 2068.2177,-425.7359 2061,-414 2051.6199,-398.7479 2035.4458,-388.3672 2019.311,-381.3894"/>
<polygon fill="#191970" stroke="#191970" points="2020.4539,-378.0778 2009.8672,-377.6631 2017.8846,-384.5893 2020.4539,-378.0778"/>
</g>
<!-- Node43 -->
<g id="node28" class="node">
<title>Node43</title>
<g id="a_node28"><a xlink:href="JointState_8h.html" target="_top" xlink:title="iDynTree/Model/JointState.h">
<polygon fill="none" stroke="#000000" points="1004.5,-420 1004.5,-439 1155.5,-439 1155.5,-420 1004.5,-420"/>
<text text-anchor="middle" x="1080" y="-427" font-family="FreeSans.ttf" font-size="10.00" fill="#000000">iDynTree/Model/JointState.h</text>
</a>
</g>
</g>
<!-- Node42&#45;&gt;Node43 -->
<g id="edge62" class="edge">
<title>Node42&#45;&gt;Node43</title>
<path fill="none" stroke="#191970" d="M1401.5957,-483.5023C1327.5074,-471.0614 1216.9159,-452.4909 1146.6436,-440.6908"/>
<polygon fill="#191970" stroke="#191970" points="1147.0188,-437.2049 1136.5772,-439.0004 1145.8595,-444.1082 1147.0188,-437.2049"/>
</g>
<!-- Node43&#45;&gt;Node4 -->
<g id="edge63" class="edge">
<title>Node43&#45;&gt;Node4</title>
<path fill="none" stroke="#191970" d="M1080.3302,-419.9841C1081.1966,-384.8415 1081.1361,-259.6631 1041,-168 1036.3136,-157.2972 1028.4638,-147.0047 1021.1974,-138.8794"/>
<polygon fill="#191970" stroke="#191970" points="1023.676,-136.4064 1014.2641,-131.5416 1018.588,-141.214 1023.676,-136.4064"/>
</g>
<!-- Node43&#45;&gt;Node27 -->
<g id="edge64" class="edge">
<title>Node43&#45;&gt;Node27</title>
<path fill="none" stroke="#191970" d="M1054.375,-419.8906C1026.5737,-409.4652 982.0156,-392.7559 951.0006,-381.1252"/>
<polygon fill="#191970" stroke="#191970" points="952.0373,-377.776 941.4451,-377.5419 949.5794,-384.3303 952.0373,-377.776"/>
</g>
<!-- Node43&#45;&gt;Node29 -->
<g id="edge68" class="edge">
<title>Node43&#45;&gt;Node29</title>
<path fill="none" stroke="#191970" d="M1125.6149,-419.9581C1185.0392,-407.5275 1287.5609,-386.0816 1340.3822,-375.0323"/>
<polygon fill="#191970" stroke="#191970" points="1341.1848,-378.4403 1350.2562,-372.9668 1339.7514,-371.5886 1341.1848,-378.4403"/>
</g>
<!-- Node39 -->
<g id="node29" class="node">
<title>Node39</title>
<g id="a_node29"><a xlink:href="SpatialForceVector_8h.html" target="_top" xlink:title="iDynTree/Core/SpatialForce\lVector.h">
<polygon fill="none" stroke="#ff0000" points="719,-291.5 719,-321.5 867,-321.5 867,-291.5 719,-291.5"/>
<text text-anchor="start" x="727" y="-309.5" font-family="FreeSans.ttf" font-size="10.00" fill="#000000">iDynTree/Core/SpatialForce</text>
<text text-anchor="middle" x="793" y="-298.5" font-family="FreeSans.ttf" font-size="10.00" fill="#000000">Vector.h</text>
</a>
</g>
</g>
<!-- Node43&#45;&gt;Node39 -->
<g id="edge65" class="edge">
<title>Node43&#45;&gt;Node39</title>
<path fill="none" stroke="#191970" d="M1073.3419,-419.9582C1061.9974,-404.4541 1037.3739,-373.9264 1009,-358 968.7816,-335.4252 918.9802,-322.7027 877.3362,-315.5542"/>
<polygon fill="#191970" stroke="#191970" points="877.6456,-312.0584 867.2115,-313.8973 876.515,-318.9665 877.6456,-312.0584"/>
</g>
<!-- Node39&#45;&gt;Node4 -->
<g id="edge66" class="edge">
<title>Node39&#45;&gt;Node4</title>
<path fill="none" stroke="#191970" d="M810.267,-291.4016C849.4931,-257.102 945.0371,-173.5576 985.4551,-138.2158"/>
<polygon fill="#191970" stroke="#191970" points="987.7633,-140.8469 992.9874,-131.6295 983.1555,-135.5773 987.7633,-140.8469"/>
</g>
<!-- Node39&#45;&gt;Node22 -->
<g id="edge67" class="edge">
<title>Node39&#45;&gt;Node22</title>
<path fill="none" stroke="#191970" d="M718.9368,-294.8779C676.3712,-286.7257 622.4931,-273.8641 577,-255 537.7507,-238.7249 496.6133,-210.9949 472.6902,-193.6297"/>
<polygon fill="#191970" stroke="#191970" points="474.5316,-190.6391 464.4041,-187.5273 470.3806,-196.2756 474.5316,-190.6391"/>
</g>
<!-- Node44&#45;&gt;Node3 -->
<g id="edge72" class="edge">
<title>Node44&#45;&gt;Node3</title>
<path fill="none" stroke="#191970" d="M1076.309,-548.4725C1220.915,-524.9367 1532,-449.859 1532,-239.5 1532,-239.5 1532,-239.5 1532,-178 1532,-143.6118 1548.2634,-106.2832 1559.511,-84.5791"/>
<polygon fill="#191970" stroke="#191970" points="1562.7317,-85.9804 1564.393,-75.5166 1556.569,-82.6605 1562.7317,-85.9804"/>
</g>
<!-- Node44&#45;&gt;Node12 -->
<g id="edge74" class="edge">
<title>Node44&#45;&gt;Node12</title>
<path fill="none" stroke="#191970" d="M928.2895,-555.7794C796.7584,-551.2596 531.6204,-539.0382 443,-512 264.1958,-457.4466 76,-493.4412 76,-306.5 76,-306.5 76,-306.5 76,-122 76,-75.4628 124.9383,-41.828 158.6864,-24.1659"/>
<polygon fill="#191970" stroke="#191970" points="160.3862,-27.2289 167.749,-19.6105 157.2424,-20.9746 160.3862,-27.2289"/>
</g>
<!-- Node44&#45;&gt;Node22 -->
<g id="edge71" class="edge">
<title>Node44&#45;&gt;Node22</title>
<path fill="none" stroke="#191970" d="M928.493,-555.2483C791.6481,-549.7039 513.2961,-535.6578 476,-512 446.9046,-493.5441 445.9767,-478.2653 437,-445 412.8028,-355.3312 435.5821,-242.7625 446.6957,-197.8385"/>
<polygon fill="#191970" stroke="#191970" points="450.1429,-198.4855 449.2342,-187.9297 443.3619,-196.7483 450.1429,-198.4855"/>
</g>
<!-- Node44&#45;&gt;Node27 -->
<g id="edge75" class="edge">
<title>Node44&#45;&gt;Node27</title>
<path fill="none" stroke="#191970" d="M978.7626,-548.4685C942.1076,-533.0777 875.5187,-498.9132 848,-445 841.7362,-432.7284 841.5399,-426.1694 848,-414 855.3846,-400.0889 869.0636,-389.6166 882.2272,-382.2062"/>
<polygon fill="#191970" stroke="#191970" points="883.9124,-385.275 891.1745,-377.5605 880.6866,-379.0625 883.9124,-385.275"/>
</g>
<!-- Node44&#45;&gt;Node29 -->
<g id="edge73" class="edge">
<title>Node44&#45;&gt;Node29</title>
<path fill="none" stroke="#191970" d="M1024.6745,-548.4037C1065.4465,-529.3751 1158.9511,-485.2199 1236,-445 1275.8137,-424.2171 1321.1374,-398.5284 1348.6446,-382.706"/>
<polygon fill="#191970" stroke="#191970" points="1350.6791,-385.5731 1357.593,-377.5451 1347.1818,-379.5093 1350.6791,-385.5731"/>
</g>
<!-- Node44&#45;&gt;Node30 -->
<g id="edge90" class="edge">
<title>Node44&#45;&gt;Node30</title>
<path fill="none" stroke="#191970" d="M1079.8053,-556.1655C1254.2124,-551.6285 1697.337,-538.2971 2067,-512 2085.8222,-510.661 2730.3321,-458.9855 2743,-445 2774.5812,-410.134 2713.6889,-389.784 2657.1624,-378.8553"/>
<polygon fill="#191970" stroke="#191970" points="2657.5181,-375.3619 2647.0488,-376.9876 2656.2468,-382.2455 2657.5181,-375.3619"/>
</g>
<!-- Node44&#45;&gt;Node45 -->
<g id="edge76" class="edge">
<title>Node44&#45;&gt;Node45</title>
<path fill="none" stroke="#191970" d="M1079.7775,-551.6757C1096.942,-550.3556 1115.0921,-549.0484 1132,-548 1480.143,-526.4132 1569.9031,-555.4333 1916,-512 1924.066,-510.9878 1932.5572,-509.5749 1940.8104,-508.0105"/>
<polygon fill="#191970" stroke="#191970" points="1941.588,-511.4246 1950.7148,-506.044 1940.2246,-504.5586 1941.588,-511.4246"/>
</g>
<!-- Node45&#45;&gt;Node29 -->
<g id="edge89" class="edge">
<title>Node45&#45;&gt;Node29</title>
<path fill="none" stroke="#191970" d="M1961.1786,-486.9731C1896.5847,-466.3832 1747.6396,-419.1668 1724,-414 1609.3876,-388.9497 1470.4805,-375.642 1407.6961,-370.5223"/>
<polygon fill="#191970" stroke="#191970" points="1407.8302,-367.022 1397.5834,-369.7153 1407.2733,-373.9998 1407.8302,-367.022"/>
</g>
<!-- Node45&#45;&gt;Node30 -->
<g id="edge82" class="edge">
<title>Node45&#45;&gt;Node30</title>
<path fill="none" stroke="#191970" d="M2057.7342,-490.9512C2206.8176,-478.4895 2554.282,-449.0524 2559,-445 2575.271,-431.0245 2578.7753,-405.5459 2579.0253,-387.7384"/>
<polygon fill="#191970" stroke="#191970" points="2582.5217,-387.5098 2578.8335,-377.5777 2575.523,-387.642 2582.5217,-387.5098"/>
</g>
<!-- Node45&#45;&gt;Node33 -->
<g id="edge81" class="edge">
<title>Node45&#45;&gt;Node33</title>
<path fill="none" stroke="#191970" d="M2032.6722,-486.9891C2054.9972,-479.5429 2080.5988,-466.6836 2094,-445 2101.2434,-433.2799 2101.8678,-425.3104 2094,-414 2085.008,-401.0735 2050.0575,-388.794 2019.5451,-380.1788"/>
<polygon fill="#191970" stroke="#191970" points="2020.4026,-376.7848 2009.8329,-377.5143 2018.5505,-383.5354 2020.4026,-376.7848"/>
</g>
<!-- Node46 -->
<g id="node32" class="node">
<title>Node46</title>
<g id="a_node32"><a xlink:href="IJoint_8h.html" target="_top" xlink:title="iDynTree/Model/IJoint.h">
<polygon fill="none" stroke="#000000" points="2606,-420 2606,-439 2734,-439 2734,-420 2606,-420"/>
<text text-anchor="middle" x="2670" y="-427" font-family="FreeSans.ttf" font-size="10.00" fill="#000000">iDynTree/Model/IJoint.h</text>
</a>
</g>
</g>
<!-- Node45&#45;&gt;Node46 -->
<g id="edge77" class="edge">
<title>Node45&#45;&gt;Node46</title>
<path fill="none" stroke="#191970" d="M2057.6239,-490.8882C2211.3751,-477.9245 2578.8934,-446.858 2592,-445 2599.9691,-443.8703 2608.3535,-442.4513 2616.551,-440.9334"/>
<polygon fill="#191970" stroke="#191970" points="2617.2528,-444.3627 2626.4168,-439.0456 2615.9371,-437.4874 2617.2528,-444.3627"/>
</g>
<!-- Node47 -->
<g id="node33" class="node">
<title>Node47</title>
<g id="a_node33"><a xlink:href="Link_8h.html" target="_top" xlink:title="iDynTree/Model/Link.h">
<polygon fill="none" stroke="#ff0000" points="2426,-420 2426,-439 2550,-439 2550,-420 2426,-420"/>
<text text-anchor="middle" x="2488" y="-427" font-family="FreeSans.ttf" font-size="10.00" fill="#000000">iDynTree/Model/Link.h</text>
</a>
</g>
</g>
<!-- Node45&#45;&gt;Node47 -->
<g id="edge79" class="edge">
<title>Node45&#45;&gt;Node47</title>
<path fill="none" stroke="#191970" d="M2057.5856,-490.0065C2140.7741,-481.5147 2287.3582,-465.3008 2412,-445 2419.2186,-443.8243 2426.7951,-442.4498 2434.2527,-441.0137"/>
<polygon fill="#191970" stroke="#191970" points="2435.1705,-444.4002 2444.3037,-439.0302 2433.8152,-437.5326 2435.1705,-444.4002"/>
</g>
<!-- Node52 -->
<g id="node34" class="node">
<title>Node52</title>
<g id="a_node34"><a xlink:href="SolidShapes_8h.html" target="_top" xlink:title="iDynTree/Model/SolidShapes.h">
<polygon fill="none" stroke="#000000" points="1888.5,-420 1888.5,-439 2051.5,-439 2051.5,-420 1888.5,-420"/>
<text text-anchor="middle" x="1970" y="-427" font-family="FreeSans.ttf" font-size="10.00" fill="#000000">iDynTree/Model/SolidShapes.h</text>
</a>
</g>
</g>
<!-- Node45&#45;&gt;Node52 -->
<g id="edge83" class="edge">
<title>Node45&#45;&gt;Node52</title>
<path fill="none" stroke="#191970" d="M1987.9912,-486.9005C1984.9036,-477.0495 1980.0126,-461.4451 1976.1092,-448.9912"/>
<polygon fill="#191970" stroke="#191970" points="1979.3339,-447.5771 1973.0032,-439.0817 1972.6543,-449.6707 1979.3339,-447.5771"/>
</g>
<!-- Node53 -->
<g id="node35" class="node">
<title>Node53</title>
<polygon fill="none" stroke="#bfbfbf" points="1530.5,-358.5 1530.5,-377.5 1579.5,-377.5 1579.5,-358.5 1530.5,-358.5"/>
<text text-anchor="middle" x="1555" y="-365.5" font-family="FreeSans.ttf" font-size="10.00" fill="#000000">cstdlib</text>
</g>
<!-- Node45&#45;&gt;Node53 -->
<g id="edge88" class="edge">
<title>Node45&#45;&gt;Node53</title>
<path fill="none" stroke="#191970" d="M1966.9941,-486.8396C1944.0827,-477.279 1908.8764,-461.6906 1880,-445 1859.2891,-433.029 1858.2088,-422.8891 1836,-414 1735.047,-373.5934 1700.5858,-399.5328 1594,-378 1592.5441,-377.7059 1591.0611,-377.3917 1589.5657,-377.0627"/>
<polygon fill="#191970" stroke="#191970" points="1590.2046,-373.6176 1579.6689,-374.7353 1588.602,-380.4317 1590.2046,-373.6176"/>
</g>
<!-- Node46&#45;&gt;Node30 -->
<g id="edge78" class="edge">
<title>Node46&#45;&gt;Node30</title>
<path fill="none" stroke="#191970" d="M2655.625,-419.8906C2640.9069,-410.0519 2617.8168,-394.6167 2600.6411,-383.1351"/>
<polygon fill="#191970" stroke="#191970" points="2602.5327,-380.1896 2592.2741,-377.5419 2598.6425,-386.0091 2602.5327,-380.1896"/>
</g>
<!-- Node47&#45;&gt;Node30 -->
<g id="edge80" class="edge">
<title>Node47&#45;&gt;Node30</title>
<path fill="none" stroke="#191970" d="M2502.0625,-419.8906C2516.3286,-410.1421 2538.635,-394.8994 2555.3872,-383.4521"/>
<polygon fill="#191970" stroke="#191970" points="2557.7545,-386.0736 2564.0362,-377.5419 2553.8051,-380.2941 2557.7545,-386.0736"/>
</g>
<!-- Node52&#45;&gt;Node3 -->
<g id="edge85" class="edge">
<title>Node52&#45;&gt;Node3</title>
<path fill="none" stroke="#191970" d="M1938.9578,-419.987C1855.6999,-393.7851 1630.9685,-318.3093 1590,-255 1555.708,-202.0079 1561.4979,-122.6776 1566.6152,-85.9618"/>
<polygon fill="#191970" stroke="#191970" points="1570.1439,-86.0412 1568.2014,-75.6259 1563.2249,-84.9793 1570.1439,-86.0412"/>
</g>
<!-- Node52&#45;&gt;Node29 -->
<g id="edge86" class="edge">
<title>Node52&#45;&gt;Node29</title>
<path fill="none" stroke="#191970" d="M1888.3784,-421.0776C1755.899,-407.4074 1499.6334,-380.9638 1407.7817,-371.4859"/>
<polygon fill="#191970" stroke="#191970" points="1407.969,-367.9867 1397.6625,-370.4417 1407.2504,-374.9497 1407.969,-367.9867"/>
</g>
<!-- Node52&#45;&gt;Node33 -->
<g id="edge87" class="edge">
<title>Node52&#45;&gt;Node33</title>
<path fill="none" stroke="#191970" d="M1970,-419.8906C1970,-411.3657 1970,-398.6392 1970,-387.9235"/>
<polygon fill="#191970" stroke="#191970" points="1973.5001,-387.7448 1970,-377.7449 1966.5001,-387.7449 1973.5001,-387.7448"/>
</g>
<!-- Node52&#45;&gt;Node53 -->
<g id="edge84" class="edge">
<title>Node52&#45;&gt;Node53</title>
<path fill="none" stroke="#191970" d="M1912.938,-419.9768C1900.1383,-417.9271 1886.6144,-415.8288 1874,-414 1749.8293,-395.9982 1717.2242,-401.6264 1594,-378 1592.5412,-377.7203 1591.0559,-377.4181 1589.5585,-377.0992"/>
<polygon fill="#191970" stroke="#191970" points="1590.1855,-373.6519 1579.6541,-374.81 1588.6091,-380.4721 1590.1855,-373.6519"/>
</g>
<!-- Node54&#45;&gt;Node29 -->
<g id="edge92" class="edge">
<title>Node54&#45;&gt;Node29</title>
<path fill="none" stroke="#191970" d="M1543.2034,-414.4554C1500.765,-402.8038 1443.3481,-387.0398 1407.5041,-377.1987"/>
<polygon fill="#191970" stroke="#191970" points="1408.125,-373.7397 1397.5551,-374.4671 1406.2716,-380.4899 1408.125,-373.7397"/>
</g>
<!-- Node54&#45;&gt;Node30 -->
<g id="edge93" class="edge">
<title>Node54&#45;&gt;Node30</title>
<path fill="none" stroke="#191970" d="M1680.2887,-424.336C1866.0268,-412.68 2315.8034,-384.4542 2498.6856,-372.9774"/>
<polygon fill="#191970" stroke="#191970" points="2499.0071,-376.4642 2508.7683,-372.3446 2498.5687,-369.4779 2499.0071,-376.4642"/>
</g>
<!-- Node55&#45;&gt;Node4 -->
<g id="edge96" class="edge">
<title>Node55&#45;&gt;Node4</title>
<path fill="none" stroke="#191970" d="M140.9473,-676.6981C132.5444,-655.459 114,-603.4391 114,-558 114,-558 114,-558 114,-306.5 114,-180.2541 238.2779,-193.117 362,-168 464.7685,-147.1368 761.9314,-132.1398 913.2069,-125.6216"/>
<polygon fill="#191970" stroke="#191970" points="913.558,-129.1099 923.3993,-125.1858 913.2589,-122.1163 913.558,-129.1099"/>
</g>
<!-- Node56&#45;&gt;Node4 -->
<g id="edge100" class="edge">
<title>Node56&#45;&gt;Node4</title>
<path fill="none" stroke="#191970" d="M676.7966,-419.6788C676.7864,-395.3616 679.8257,-331.4007 710,-291 745.2573,-243.7936 905.1059,-167.0942 973.1668,-135.8781"/>
<polygon fill="#191970" stroke="#191970" points="974.8723,-138.9471 982.5168,-131.6114 971.9662,-132.5788 974.8723,-138.9471"/>
</g>
<!-- Node56&#45;&gt;Node5 -->
<g id="edge108" class="edge">
<title>Node56&#45;&gt;Node5</title>
<path fill="none" stroke="#191970" d="M636.8783,-419.933C600.3872,-410.3233 550.5202,-394.5955 539,-378 505.1103,-329.18 580.3794,-145.2812 606.4952,-85.1535"/>
<polygon fill="#191970" stroke="#191970" points="609.8223,-86.2814 610.6335,-75.7177 603.4117,-83.4699 609.8223,-86.2814"/>
</g>
<!-- Node56&#45;&gt;Node26 -->
<g id="edge101" class="edge">
<title>Node56&#45;&gt;Node26</title>
<path fill="none" stroke="#191970" d="M757.6043,-424.9839C822.0842,-421.5159 914.8198,-416.852 996,-414 1733.4963,-388.0905 1918.4641,-402.7561 2656,-378 2697.3917,-376.6106 2743.1435,-374.6067 2782.155,-372.757"/>
<polygon fill="#191970" stroke="#191970" points="2782.6225,-376.2387 2792.444,-372.2653 2782.2883,-369.2467 2782.6225,-376.2387"/>
</g>
<!-- Node56&#45;&gt;Node27 -->
<g id="edge99" class="edge">
<title>Node56&#45;&gt;Node27</title>
<path fill="none" stroke="#191970" d="M714.0815,-419.9581C755.7698,-409.2308 823.5497,-391.7895 868.9384,-380.11"/>
<polygon fill="#191970" stroke="#191970" points="870.0192,-383.446 878.8315,-377.5643 868.2747,-376.6668 870.0192,-383.446"/>
</g>
<!-- Node56&#45;&gt;Node33 -->
<g id="edge107" class="edge">
<title>Node56&#45;&gt;Node33</title>
<path fill="none" stroke="#191970" d="M757.6279,-425.552C822.121,-422.4014 914.8628,-417.8872 996,-414 1325.9633,-398.1919 1718.8244,-379.7557 1886.9722,-371.8831"/>
<polygon fill="#191970" stroke="#191970" points="1887.1681,-375.3779 1896.9934,-371.414 1886.8407,-368.3856 1887.1681,-375.3779"/>
</g>
<!-- Node56&#45;&gt;Node24 -->
<g id="edge102" class="edge">
<title>Node56&#45;&gt;Node24</title>
<path fill="none" stroke="#191970" d="M695.2048,-419.8913C730.3339,-401.3 809.8472,-358.9771 876,-322 997.3371,-254.1767 1140.6708,-170.0171 1197.2565,-136.6307"/>
<polygon fill="#191970" stroke="#191970" points="1199.0498,-139.6364 1205.8816,-131.5384 1195.491,-133.6086 1199.0498,-139.6364"/>
</g>
<!-- Node56&#45;&gt;Node39 -->
<g id="edge106" class="edge">
<title>Node56&#45;&gt;Node39</title>
<path fill="none" stroke="#191970" d="M686.1023,-419.8484C704.3802,-400.4675 745.9813,-356.3561 771.5615,-329.2322"/>
<polygon fill="#191970" stroke="#191970" points="774.3159,-331.4129 778.6306,-321.7365 769.2233,-326.6102 774.3159,-331.4129"/>
</g>
<!-- Node57 -->
<g id="node39" class="node">
<title>Node57</title>
<polygon fill="none" stroke="#bfbfbf" points="547.5,-358.5 547.5,-377.5 624.5,-377.5 624.5,-358.5 547.5,-358.5"/>
<text text-anchor="middle" x="586" y="-365.5" font-family="FreeSans.ttf" font-size="10.00" fill="#000000">Eigen/Dense</text>
</g>
<!-- Node56&#45;&gt;Node57 -->
<g id="edge98" class="edge">
<title>Node56&#45;&gt;Node57</title>
<path fill="none" stroke="#191970" d="M662.7813,-419.8906C648.3566,-410.1421 625.8024,-394.8994 608.864,-383.4521"/>
<polygon fill="#191970" stroke="#191970" points="610.3641,-380.2415 600.1189,-377.5419 606.4444,-386.0412 610.3641,-380.2415"/>
</g>
<!-- Node35 -->
<g id="node40" class="node">
<title>Node35</title>
<g id="a_node40"><a xlink:href="SpatialMotionVector_8h.html" target="_top" xlink:title="iDynTree/Core/SpatialMotion\lVector.h">
<polygon fill="none" stroke="#ff0000" points="585.5,-224.5 585.5,-254.5 740.5,-254.5 740.5,-224.5 585.5,-224.5"/>
<text text-anchor="start" x="593.5" y="-242.5" font-family="FreeSans.ttf" font-size="10.00" fill="#000000">iDynTree/Core/SpatialMotion</text>
<text text-anchor="middle" x="663" y="-231.5" font-family="FreeSans.ttf" font-size="10.00" fill="#000000">Vector.h</text>
</a>
</g>
</g>
<!-- Node56&#45;&gt;Node35 -->
<g id="edge103" class="edge">
<title>Node56&#45;&gt;Node35</title>
<path fill="none" stroke="#191970" d="M676.2865,-419.8167C674.19,-391.3641 667.9998,-307.3545 664.8647,-264.806"/>
<polygon fill="#191970" stroke="#191970" points="668.3456,-264.4168 664.1201,-254.7011 661.3645,-264.9313 668.3456,-264.4168"/>
</g>
<!-- Node35&#45;&gt;Node4 -->
<g id="edge104" class="edge">
<title>Node35&#45;&gt;Node4</title>
<path fill="none" stroke="#191970" d="M677.7571,-224.2982C694.7742,-207.7272 724.3618,-181.7437 755,-168 784.2085,-154.8976 860.7749,-141.815 921.3604,-132.9704"/>
<polygon fill="#191970" stroke="#191970" points="921.9217,-136.4257 931.3193,-131.5334 920.9219,-129.4975 921.9217,-136.4257"/>
</g>
<!-- Node35&#45;&gt;Node22 -->
<g id="edge105" class="edge">
<title>Node35&#45;&gt;Node22</title>
<path fill="none" stroke="#191970" d="M611.3836,-224.4554C575.5601,-214.0139 528.406,-200.27 494.6991,-190.4455"/>
<polygon fill="#191970" stroke="#191970" points="495.2774,-186.9685 484.6975,-187.5303 493.3186,-193.6888 495.2774,-186.9685"/>
</g>
<!-- Node58&#45;&gt;Node5 -->
<g id="edge112" class="edge">
<title>Node58&#45;&gt;Node5</title>
<path fill="none" stroke="#191970" d="M534.9617,-486.9601C459.1394,-460.7985 266,-380.3357 266,-239.5 266,-239.5 266,-239.5 266,-178 266,-119.9395 443.3331,-87.7436 545.1848,-74.0401"/>
<polygon fill="#191970" stroke="#191970" points="545.9445,-77.4703 555.4013,-72.6934 545.0296,-70.5304 545.9445,-77.4703"/>
</g>
<!-- Node58&#45;&gt;Node27 -->
<g id="edge110" class="edge">
<title>Node58&#45;&gt;Node27</title>
<path fill="none" stroke="#191970" d="M626.6975,-486.9824C667.7865,-479.1666 722.2442,-465.9137 767,-445 788.3444,-435.0261 789.5198,-425.6457 810,-414 832.4312,-401.2449 859.0821,-389.6942 880.0491,-381.3579"/>
<polygon fill="#191970" stroke="#191970" points="881.504,-384.5472 889.5438,-377.647 878.9558,-378.0274 881.504,-384.5472"/>
</g>
<!-- Node58&#45;&gt;Node28 -->
<g id="edge111" class="edge">
<title>Node58&#45;&gt;Node28</title>
<path fill="none" stroke="#191970" d="M557.4064,-486.9005C549.2202,-476.552 536.0115,-459.8542 525.9457,-447.1295"/>
<polygon fill="#191970" stroke="#191970" points="528.5286,-444.7531 519.5795,-439.0817 523.0386,-449.0959 528.5286,-444.7531"/>
</g>
<!-- Node58&#45;&gt;Node29 -->
<g id="edge113" class="edge">
<title>Node58&#45;&gt;Node29</title>
<path fill="none" stroke="#191970" d="M645.5086,-494.8823C786.4772,-491.1757 1071.8754,-479.5355 1165,-445 1187.0897,-436.808 1186.7599,-424.1942 1208,-414 1251.3693,-393.1848 1305.778,-380.3661 1340.2291,-373.7131"/>
<polygon fill="#191970" stroke="#191970" points="1341.0574,-377.119 1350.2458,-371.8442 1339.7735,-370.2377 1341.0574,-377.119"/>
</g>
<!-- Node59&#45;&gt;Node30 -->
<g id="edge115" class="edge">
<title>Node59&#45;&gt;Node30</title>
<path fill="none" stroke="#191970" d="M3176.4533,-548.4999C3130.4524,-522.5344 2996.4877,-449.9251 2876,-414 2803.6801,-392.4368 2718.3116,-380.5721 2657.524,-374.3209"/>
<polygon fill="#191970" stroke="#191970" points="2657.5268,-370.8038 2647.2281,-373.2915 2656.8303,-377.769 2657.5268,-370.8038"/>
</g>
<!-- Node60&#45;&gt;Node26 -->
<g id="edge117" class="edge">
<title>Node60&#45;&gt;Node26</title>
<path fill="none" stroke="#191970" d="M2897.4556,-486.826C2907.6872,-477.3703 2921.9627,-461.9554 2928,-445 2932.6216,-432.0205 2933.6592,-426.5619 2928,-414 2922.4303,-401.6369 2911.7137,-391.2563 2901.4494,-383.5033"/>
<polygon fill="#191970" stroke="#191970" points="2903.2549,-380.4948 2893.0567,-377.623 2899.2382,-386.2277 2903.2549,-380.4948"/>
</g>
<!-- Node60&#45;&gt;Node30 -->
<g id="edge118" class="edge">
<title>Node60&#45;&gt;Node30</title>
<path fill="none" stroke="#191970" d="M2885.0118,-486.8126C2882.6746,-469.2914 2875.1352,-432.4463 2852,-414 2822.5687,-390.5337 2727.1805,-378.5827 2657.1979,-372.8284"/>
<polygon fill="#191970" stroke="#191970" points="2657.3136,-369.3266 2647.0678,-372.0237 2656.7592,-376.3046 2657.3136,-369.3266"/>
</g>
<!-- Node60&#45;&gt;Node32 -->
<g id="edge119" class="edge">
<title>Node60&#45;&gt;Node32</title>
<path fill="none" stroke="#191970" d="M2809.5913,-488.5374C2716.7243,-478.7609 2555.2774,-461.4472 2417,-445 2404.6373,-443.5295 2391.5719,-441.9171 2378.7786,-440.3054"/>
<polygon fill="#191970" stroke="#191970" points="2378.956,-436.8 2368.5955,-439.0157 2378.0764,-443.7445 2378.956,-436.8"/>
</g>
<!-- Node60&#45;&gt;Node43 -->
<g id="edge120" class="edge">
<title>Node60&#45;&gt;Node43</title>
<path fill="none" stroke="#191970" d="M2809.8391,-493.6745C2518.1632,-482.8538 1473.1785,-444.0864 1165.6928,-432.6791"/>
<polygon fill="#191970" stroke="#191970" points="1165.626,-429.1743 1155.5031,-432.3011 1165.3664,-436.1695 1165.626,-429.1743"/>
</g>
<!-- Node62 -->
<g id="node45" class="node">
<title>Node62</title>
<g id="a_node45"><a xlink:href="SixAxisForceTorqueSensor_8h.html" target="_top" xlink:title="iDynTree/Sensors/SixAxis\lForceTorqueSensor.h">
<polygon fill="none" stroke="#000000" points="1081,-604.5 1081,-634.5 1221,-634.5 1221,-604.5 1081,-604.5"/>
<text text-anchor="start" x="1089" y="-622.5" font-family="FreeSans.ttf" font-size="10.00" fill="#000000">iDynTree/Sensors/SixAxis</text>
<text text-anchor="middle" x="1151" y="-611.5" font-family="FreeSans.ttf" font-size="10.00" fill="#000000">ForceTorqueSensor.h</text>
</a>
</g>
</g>
<!-- Node61&#45;&gt;Node62 -->
<g id="edge125" class="edge">
<title>Node61&#45;&gt;Node62</title>
<path fill="none" stroke="#191970" d="M912.1212,-671.4639C959.494,-661.1588 1022.4503,-647.4637 1071.8387,-636.7202"/>
<polygon fill="#191970" stroke="#191970" points="1072.8161,-640.0895 1081.8436,-634.5438 1071.3281,-633.2494 1072.8161,-640.0895"/>
</g>
<!-- Node63 -->
<g id="node46" class="node">
<title>Node63</title>
<g id="a_node46"><a xlink:href="AccelerometerSensor_8h.html" target="_top" xlink:title="iDynTree/Sensors/Accelerometer\lSensor.h">
<polygon fill="none" stroke="#000000" points="849.5,-604.5 849.5,-634.5 1024.5,-634.5 1024.5,-604.5 849.5,-604.5"/>
<text text-anchor="start" x="857.5" y="-622.5" font-family="FreeSans.ttf" font-size="10.00" fill="#000000">iDynTree/Sensors/Accelerometer</text>
<text text-anchor="middle" x="937" y="-611.5" font-family="FreeSans.ttf" font-size="10.00" fill="#000000">Sensor.h</text>
</a>
</g>
</g>
<!-- Node61&#45;&gt;Node63 -->
<g id="edge129" class="edge">
<title>Node61&#45;&gt;Node63</title>
<path fill="none" stroke="#191970" d="M864.3301,-671.2967C877.0697,-662.2163 893.4389,-650.5488 907.4152,-640.587"/>
<polygon fill="#191970" stroke="#191970" points="909.6426,-643.2975 915.7544,-634.6432 905.5797,-637.5973 909.6426,-643.2975"/>
</g>
<!-- Node64 -->
<g id="node47" class="node">
<title>Node64</title>
<g id="a_node47"><a xlink:href="GyroscopeSensor_8h.html" target="_top" xlink:title="iDynTree/Sensors/Gyroscope\lSensor.h">
<polygon fill="none" stroke="#000000" points="318.5,-604.5 318.5,-634.5 473.5,-634.5 473.5,-604.5 318.5,-604.5"/>
<text text-anchor="start" x="326.5" y="-622.5" font-family="FreeSans.ttf" font-size="10.00" fill="#000000">iDynTree/Sensors/Gyroscope</text>
<text text-anchor="middle" x="396" y="-611.5" font-family="FreeSans.ttf" font-size="10.00" fill="#000000">Sensor.h</text>
</a>
</g>
</g>
<!-- Node61&#45;&gt;Node64 -->
<g id="edge132" class="edge">
<title>Node61&#45;&gt;Node64</title>
<path fill="none" stroke="#191970" d="M765.2854,-676.1644C694.5766,-666.5811 587.0657,-651.5635 483.7497,-635.0895"/>
<polygon fill="#191970" stroke="#191970" points="484.1934,-631.616 473.7658,-633.4908 483.0866,-638.528 484.1934,-631.616"/>
</g>
<!-- Node65 -->
<g id="node48" class="node">
<title>Node65</title>
<g id="a_node48"><a xlink:href="ThreeAxisAngularAccelerometerSensor_8h.html" target="_top" xlink:title="iDynTree/Sensors/ThreeAxis\lAngularAccelerometerSensor.h">
<polygon fill="none" stroke="#000000" points="664.5,-604.5 664.5,-634.5 831.5,-634.5 831.5,-604.5 664.5,-604.5"/>
<text text-anchor="start" x="672.5" y="-622.5" font-family="FreeSans.ttf" font-size="10.00" fill="#000000">iDynTree/Sensors/ThreeAxis</text>
<text text-anchor="middle" x="748" y="-611.5" font-family="FreeSans.ttf" font-size="10.00" fill="#000000">AngularAccelerometerSensor.h</text>
</a>
</g>
</g>
<!-- Node61&#45;&gt;Node65 -->
<g id="edge136" class="edge">
<title>Node61&#45;&gt;Node65</title>
<path fill="none" stroke="#191970" d="M821.443,-671.2967C808.5679,-662.2163 792.0245,-650.5488 777.8995,-640.587"/>
<polygon fill="#191970" stroke="#191970" points="779.661,-637.5464 769.4717,-634.6432 775.6265,-643.2669 779.661,-637.5464"/>
</g>
<!-- Node66 -->
<g id="node49" class="node">
<title>Node66</title>
<g id="a_node49"><a xlink:href="ThreeAxisForceTorqueContactSensor_8h.html" target="_top" xlink:title="iDynTree/Sensors/ThreeAxis\lForceTorqueContactSensor.h">
<polygon fill="none" stroke="#000000" points="492,-604.5 492,-634.5 646,-634.5 646,-604.5 492,-604.5"/>
<text text-anchor="start" x="500" y="-622.5" font-family="FreeSans.ttf" font-size="10.00" fill="#000000">iDynTree/Sensors/ThreeAxis</text>
<text text-anchor="middle" x="569" y="-611.5" font-family="FreeSans.ttf" font-size="10.00" fill="#000000">ForceTorqueContactSensor.h</text>
</a>
</g>
</g>
<!-- Node61&#45;&gt;Node66 -->
<g id="edge139" class="edge">
<title>Node61&#45;&gt;Node66</title>
<path fill="none" stroke="#191970" d="M781.5091,-671.4639C739.703,-661.2412 684.2547,-647.6827 640.48,-636.9787"/>
<polygon fill="#191970" stroke="#191970" points="641.3043,-633.5772 630.7591,-634.6017 639.6416,-640.3769 641.3043,-633.5772"/>
</g>
<!-- Node62&#45;&gt;Node29 -->
<g id="edge128" class="edge">
<title>Node62&#45;&gt;Node29</title>
<path fill="none" stroke="#191970" d="M1164.614,-604.1461C1203.873,-559.8697 1317.1348,-432.1327 1358.5751,-385.3962"/>
<polygon fill="#191970" stroke="#191970" points="1361.4275,-387.4549 1365.4431,-377.6505 1356.1899,-382.8107 1361.4275,-387.4549"/>
</g>
<!-- Node62&#45;&gt;Node32 -->
<g id="edge127" class="edge">
<title>Node62&#45;&gt;Node32</title>
<path fill="none" stroke="#191970" d="M1221.0934,-605.4822C1304.4082,-589.3118 1447.7999,-563.0281 1572,-548 1681.4919,-534.7515 1965.9994,-556.3044 2067,-512 2085.4281,-503.9164 2082.3942,-490.7454 2100,-481 2135.7332,-461.2204 2179.362,-448.7896 2216.3781,-441.11"/>
<polygon fill="#191970" stroke="#191970" points="2217.5074,-444.4539 2226.6311,-439.0678 2216.14,-437.5887 2217.5074,-444.4539"/>
</g>
<!-- Node62&#45;&gt;Node44 -->
<g id="edge126" class="edge">
<title>Node62&#45;&gt;Node44</title>
<path fill="none" stroke="#191970" d="M1115.0398,-604.4554C1090.9427,-594.374 1059.487,-581.2139 1036.2097,-571.4755"/>
<polygon fill="#191970" stroke="#191970" points="1037.3558,-568.1611 1026.7798,-567.5303 1034.6541,-574.6187 1037.3558,-568.1611"/>
</g>
<!-- Node63&#45;&gt;Node22 -->
<g id="edge130" class="edge">
<title>Node63&#45;&gt;Node22</title>
<path fill="none" stroke="#191970" d="M857.6108,-604.4831C721.8008,-578.4789 457.9605,-526.4572 443,-512 372.0797,-443.4658 415.6862,-389.3521 423,-291 425.2281,-261.0375 423.9331,-252.942 432,-224 434.5931,-214.6966 438.6931,-204.8206 442.5077,-196.6143"/>
<polygon fill="#191970" stroke="#191970" points="445.6737,-198.107 446.8986,-187.5832 439.3783,-195.0461 445.6737,-198.107"/>
</g>
<!-- Node63&#45;&gt;Node44 -->
<g id="edge131" class="edge">
<title>Node63&#45;&gt;Node44</title>
<path fill="none" stroke="#191970" d="M953.5618,-604.2977C963.3465,-595.3163 975.7474,-583.9334 985.8043,-574.702"/>
<polygon fill="#191970" stroke="#191970" points="988.2722,-577.1876 993.2725,-567.8469 983.5387,-572.0307 988.2722,-577.1876"/>
</g>
<!-- Node64&#45;&gt;Node22 -->
<g id="edge133" class="edge">
<title>Node64&#45;&gt;Node22</title>
<path fill="none" stroke="#191970" d="M318.2263,-609.4254C263.6525,-600.8819 196.8501,-586.9788 176,-568 151.2114,-545.4361 152,-530.0202 152,-496.5 152,-496.5 152,-496.5 152,-306.5 152,-253.8373 310.1805,-209.9008 396.8215,-189.7851"/>
<polygon fill="#191970" stroke="#191970" points="397.7958,-193.1527 406.7622,-187.5087 396.2332,-186.3293 397.7958,-193.1527"/>
</g>
<!-- Node64&#45;&gt;Node29 -->
<g id="edge135" class="edge">
<title>Node64&#45;&gt;Node29</title>
<path fill="none" stroke="#191970" d="M473.6249,-604.9129C662.3872,-569.1207 1134.7623,-477.5104 1200,-445 1218.898,-435.5824 1217.6379,-424.4241 1236,-414 1269.2519,-395.1229 1311.4425,-382.4844 1340.3673,-375.3082"/>
<polygon fill="#191970" stroke="#191970" points="1341.4725,-378.6426 1350.3825,-372.91 1339.8424,-371.835 1341.4725,-378.6426"/>
</g>
<!-- Node64&#45;&gt;Node44 -->
<g id="edge134" class="edge">
<title>Node64&#45;&gt;Node44</title>
<path fill="none" stroke="#191970" d="M473.7327,-605.2818C476.8592,-604.827 479.9574,-604.3972 483,-604 673.605,-579.1153 722.6809,-586.6155 914,-568 915.4669,-567.8573 916.9471,-567.7116 918.4376,-567.5633"/>
<polygon fill="#191970" stroke="#191970" points="918.7984,-571.0448 928.3935,-566.5523 918.0911,-564.0806 918.7984,-571.0448"/>
</g>
<!-- Node65&#45;&gt;Node22 -->
<g id="edge137" class="edge">
<title>Node65&#45;&gt;Node22</title>
<path fill="none" stroke="#191970" d="M664.3772,-605.3728C661.213,-604.8986 658.0789,-604.4392 655,-604 520.7454,-584.8473 480.9675,-609.9345 352,-568 303.5576,-552.2487 277.7581,-555.9464 252,-512 179.6996,-388.6466 363.4687,-241.081 429.4655,-193.5553"/>
<polygon fill="#191970" stroke="#191970" points="431.8297,-196.1691 437.9574,-187.526 427.7773,-190.4614 431.8297,-196.1691"/>
</g>
<!-- Node65&#45;&gt;Node44 -->
<g id="edge138" class="edge">
<title>Node65&#45;&gt;Node44</title>
<path fill="none" stroke="#191970" d="M810.6246,-604.4554C854.9313,-593.8114 913.5234,-579.7356 954.5555,-569.8783"/>
<polygon fill="#191970" stroke="#191970" points="955.4233,-573.2695 964.3291,-567.5303 953.7881,-566.4631 955.4233,-573.2695"/>
</g>
<!-- Node66&#45;&gt;Node22 -->
<g id="edge140" class="edge">
<title>Node66&#45;&gt;Node22</title>
<path fill="none" stroke="#191970" d="M491.8748,-605.1769C423.0591,-592.1914 330.649,-574.1697 314,-568 254.3476,-545.8944 190,-560.1165 190,-496.5 190,-496.5 190,-496.5 190,-429.5 190,-304.5458 347.0129,-222.3342 417.9402,-191.5713"/>
<polygon fill="#191970" stroke="#191970" points="419.5164,-194.7045 427.3517,-187.5729 416.7793,-188.2618 419.5164,-194.7045"/>
</g>
<!-- Node66&#45;&gt;Node44 -->
<g id="edge141" class="edge">
<title>Node66&#45;&gt;Node44</title>
<path fill="none" stroke="#191970" d="M646.2912,-605.5441C649.5694,-605.0108 652.8162,-604.4938 656,-604 745.1124,-590.1793 847.4762,-576.967 917.9994,-568.2774"/>
<polygon fill="#191970" stroke="#191970" points="918.6692,-571.7215 928.168,-567.0286 917.8159,-564.7737 918.6692,-571.7215"/>
</g>
<!-- Node67&#45;&gt;Node2 -->
<g id="edge143" class="edge">
<title>Node67&#45;&gt;Node2</title>
<path fill="none" stroke="#191970" d="M1822.2458,-481.4033C1821.6645,-462.5671 1817.592,-430.7957 1798,-414 1704.0817,-333.4863 1634.4815,-429.4882 1522,-378 1426.807,-334.4256 1343.1255,-236.1486 1311.4699,-195.8013"/>
<polygon fill="#191970" stroke="#191970" points="1314.0836,-193.4598 1305.1978,-187.6897 1308.5459,-197.7416 1314.0836,-193.4598"/>
</g>
<!-- Node67&#45;&gt;Node4 -->
<g id="edge147" class="edge">
<title>Node67&#45;&gt;Node4</title>
<path fill="none" stroke="#191970" d="M1809.1348,-481.4262C1791.872,-462.3054 1759.2756,-429.9102 1724,-414 1624.8765,-369.2928 1585.2298,-412.1732 1482,-378 1293.7943,-315.6964 1091.7614,-182.6564 1026.0151,-137.4232"/>
<polygon fill="#191970" stroke="#191970" points="1027.8728,-134.4525 1017.6581,-131.6399 1023.8894,-140.2086 1027.8728,-134.4525"/>
</g>
<!-- Node67&#45;&gt;Node19 -->
<g id="edge144" class="edge">
<title>Node67&#45;&gt;Node19</title>
<path fill="none" stroke="#191970" d="M1906.8034,-482.0729C1979.1625,-469.3546 2072.4172,-451.8178 2078,-445 2098.4014,-420.0857 2052.1639,-358.1903 2052,-358 2038.6337,-342.4794 2019.4851,-329.7436 2003.506,-320.8198"/>
<polygon fill="#191970" stroke="#191970" points="2004.9996,-317.6494 1994.5317,-316.0139 2001.6949,-323.8203 2004.9996,-317.6494"/>
</g>
<!-- Node67&#45;&gt;Node26 -->
<g id="edge145" class="edge">
<title>Node67&#45;&gt;Node26</title>
<path fill="none" stroke="#191970" d="M1906.7397,-482.0471C1909.862,-481.6673 1912.9565,-481.316 1916,-481 2098.9681,-462.0017 2566.4246,-496.5693 2743,-445 2786.5666,-432.2763 2830.9598,-402.463 2855.8443,-383.89"/>
<polygon fill="#191970" stroke="#191970" points="2858.2573,-386.4518 2864.092,-377.6083 2854.0159,-380.883 2858.2573,-386.4518"/>
</g>
<!-- Node67&#45;&gt;Node27 -->
<g id="edge146" class="edge">
<title>Node67&#45;&gt;Node27</title>
<path fill="none" stroke="#191970" d="M1737.2162,-491.4031C1527.3516,-478.7625 1000.213,-446.8526 996,-445 992.0932,-443.282 955.2983,-407.0832 932.9935,-384.938"/>
<polygon fill="#191970" stroke="#191970" points="935.3448,-382.3402 925.786,-377.7707 930.4089,-387.3038 935.3448,-382.3402"/>
</g>
<!-- Node67&#45;&gt;Node29 -->
<g id="edge150" class="edge">
<title>Node67&#45;&gt;Node29</title>
<path fill="none" stroke="#191970" d="M1793.9797,-481.4588C1775.9888,-471.56 1752.2807,-458.062 1732,-445 1712.1929,-432.243 1710.8367,-422.8442 1689,-414 1676.035,-408.749 1486.527,-383.0285 1407.8506,-372.5029"/>
<polygon fill="#191970" stroke="#191970" points="1407.8899,-368.9772 1397.5145,-371.1223 1406.963,-375.9156 1407.8899,-368.9772"/>
</g>
<!-- Node67&#45;&gt;Node30 -->
<g id="edge148" class="edge">
<title>Node67&#45;&gt;Node30</title>
<path fill="none" stroke="#191970" d="M1906.5018,-482.2142C1909.7057,-481.7844 1912.8802,-481.3775 1916,-481 2018.672,-468.5754 2284.2435,-484.0717 2380,-445 2399.8635,-436.8951 2398.0493,-424.0557 2417,-414 2447.1073,-398.0244 2483.4077,-387.0333 2513.9131,-379.8121"/>
<polygon fill="#191970" stroke="#191970" points="2515.0483,-383.1431 2524.019,-377.5059 2513.4909,-376.3185 2515.0483,-383.1431"/>
</g>
<!-- Node67&#45;&gt;Node32 -->
<g id="edge149" class="edge">
<title>Node67&#45;&gt;Node32</title>
<path fill="none" stroke="#191970" d="M1906.5258,-482.3954C1909.723,-481.9149 1912.8895,-481.448 1916,-481 2045.4248,-462.359 2078.6789,-464.3477 2208,-445 2216.5832,-443.7159 2225.6177,-442.2527 2234.4962,-440.7502"/>
<polygon fill="#191970" stroke="#191970" points="2235.1591,-444.1877 2244.4218,-439.0444 2233.9734,-437.2888 2235.1591,-444.1877"/>
</g>
</g>
</svg>
