<?xml version="1.0" encoding="UTF-8" standalone="no"?>
<!DOCTYPE svg PUBLIC "-//W3C//DTD SVG 1.1//EN"
 "http://www.w3.org/Graphics/SVG/1.1/DTD/svg11.dtd">
<!-- Generated by graphviz version 2.40.1 (20161225.0304)
 -->
<!-- Title: BerdyHelper.h Pages: 1 -->
<svg width="2777pt" height="688pt"
 viewBox="0.00 0.00 2776.50 688.00" xmlns="http://www.w3.org/2000/svg" xmlns:xlink="http://www.w3.org/1999/xlink">
<g id="graph0" class="graph" transform="scale(1 1) rotate(0) translate(4 684)">
<title>BerdyHelper.h</title>
<!-- Node0 -->
<g id="node1" class="node">
<title>Node0</title>
<polygon fill="#bfbfbf" stroke="#000000" points="1518.5,-660.5 1518.5,-679.5 1604.5,-679.5 1604.5,-660.5 1518.5,-660.5"/>
<text text-anchor="middle" x="1561.5" y="-667.5" font-family="FreeSans.ttf" font-size="10.00" fill="#000000">BerdyHelper.h</text>
</g>
<!-- Node1 -->
<g id="node2" class="node">
<title>Node1</title>
<g id="a_node2"><a xlink:href="Direction_8h.html" target="_top" xlink:title="iDynTree/Core/Direction.h">
<polygon fill="none" stroke="#000000" points="2302,-174 2302,-193 2443,-193 2443,-174 2302,-174"/>
<text text-anchor="middle" x="2372.5" y="-181" font-family="FreeSans.ttf" font-size="10.00" fill="#000000">iDynTree/Core/Direction.h</text>
</a>
</g>
</g>
<!-- Node0&#45;&gt;Node1 -->
<g id="edge1" class="edge">
<title>Node0&#45;&gt;Node1</title>
<path fill="none" stroke="#191970" d="M1604.6046,-669.4397C1799.3364,-666.3507 2587.5,-647.6324 2587.5,-547 2587.5,-547 2587.5,-547 2587.5,-418.5 2587.5,-309.5471 2460.1413,-229.1001 2401.4679,-197.8196"/>
<polygon fill="#191970" stroke="#191970" points="2402.8259,-194.5804 2392.3413,-193.0562 2399.587,-200.786 2402.8259,-194.5804"/>
</g>
<!-- Node3 -->
<g id="node4" class="node">
<title>Node3</title>
<g id="a_node4"><a xlink:href="VectorFixSize_8h.html" target="_top" xlink:title="iDynTree/Core/VectorFixSize.h">
<polygon fill="none" stroke="#000000" points="2183,-112.5 2183,-131.5 2344,-131.5 2344,-112.5 2183,-112.5"/>
<text text-anchor="middle" x="2263.5" y="-119.5" font-family="FreeSans.ttf" font-size="10.00" fill="#000000">iDynTree/Core/VectorFixSize.h</text>
</a>
</g>
</g>
<!-- Node0&#45;&gt;Node3 -->
<g id="edge46" class="edge">
<title>Node0&#45;&gt;Node3</title>
<path fill="none" stroke="#191970" d="M1604.6576,-668.8249C1773.4193,-664.091 2383.5209,-645.6313 2467.5,-624 2543.1481,-604.5146 2625.5,-625.1174 2625.5,-547 2625.5,-547 2625.5,-547 2625.5,-301 2625.5,-204.0153 2539.9524,-209.9298 2452.5,-168 2417.9944,-151.456 2377.0056,-140.5453 2342.0336,-133.5223"/>
<polygon fill="#191970" stroke="#191970" points="2342.3478,-130.0183 2331.865,-131.5545 2341.0178,-136.8908 2342.3478,-130.0183"/>
</g>
<!-- Node4 -->
<g id="node5" class="node">
<title>Node4</title>
<g id="a_node5"><a xlink:href="Utils_8h.html" target="_top" xlink:title="iDynTree/Core/Utils.h">
<polygon fill="none" stroke="#000000" points="2239,-56.5 2239,-75.5 2358,-75.5 2358,-56.5 2239,-56.5"/>
<text text-anchor="middle" x="2298.5" y="-63.5" font-family="FreeSans.ttf" font-size="10.00" fill="#000000">iDynTree/Core/Utils.h</text>
</a>
</g>
</g>
<!-- Node0&#45;&gt;Node4 -->
<g id="edge47" class="edge">
<title>Node0&#45;&gt;Node4</title>
<path fill="none" stroke="#191970" d="M1604.715,-669.3757C1783.4855,-666.6053 2460.0661,-654.201 2550.5,-624 2608.1441,-604.7494 2663.5,-607.7736 2663.5,-547 2663.5,-547 2663.5,-547 2663.5,-301 2663.5,-160.6367 2470.3169,-100.1262 2365.0355,-77.5713"/>
<polygon fill="#191970" stroke="#191970" points="2365.6347,-74.121 2355.1308,-75.5056 2364.2056,-80.9736 2365.6347,-74.121"/>
</g>
<!-- Node18 -->
<g id="node19" class="node">
<title>Node18</title>
<g id="a_node19"><a xlink:href="Position_8h.html" target="_top" xlink:title="iDynTree/Core/Position.h">
<polygon fill="none" stroke="#000000" points="1345.5,-291.5 1345.5,-310.5 1481.5,-310.5 1481.5,-291.5 1345.5,-291.5"/>
<text text-anchor="middle" x="1413.5" y="-298.5" font-family="FreeSans.ttf" font-size="10.00" fill="#000000">iDynTree/Core/Position.h</text>
</a>
</g>
</g>
<!-- Node0&#45;&gt;Node18 -->
<g id="edge22" class="edge">
<title>Node0&#45;&gt;Node18</title>
<path fill="none" stroke="#191970" d="M1562.3013,-660.4941C1563.042,-651.1984 1564.0883,-636.6382 1564.5,-624 1564.9486,-610.2295 1566.411,-606.6446 1564.5,-593 1560.9097,-567.3654 1556.5864,-561.5893 1548.5,-537 1518.7534,-446.5456 1505.1325,-424.278 1449.5,-347 1442.6401,-337.471 1434.6215,-327.1521 1427.8955,-318.707"/>
<polygon fill="#191970" stroke="#191970" points="1430.4497,-316.2981 1421.4569,-310.6962 1424.9936,-320.6834 1430.4497,-316.2981"/>
</g>
<!-- Node25 -->
<g id="node26" class="node">
<title>Node25</title>
<g id="a_node26"><a xlink:href="MatrixDynSize_8h.html" target="_top" xlink:title="iDynTree/Core/MatrixDynSize.h">
<polygon fill="none" stroke="#000000" points="0,-291.5 0,-310.5 167,-310.5 167,-291.5 0,-291.5"/>
<text text-anchor="middle" x="83.5" y="-298.5" font-family="FreeSans.ttf" font-size="10.00" fill="#000000">iDynTree/Core/MatrixDynSize.h</text>
</a>
</g>
</g>
<!-- Node0&#45;&gt;Node25 -->
<g id="edge41" class="edge">
<title>Node0&#45;&gt;Node25</title>
<path fill="none" stroke="#191970" d="M1518.2025,-669.3839C1335.8794,-666.6179 629.8755,-654.1409 409.5,-624 261.9976,-603.826 83.5,-695.8756 83.5,-547 83.5,-547 83.5,-547 83.5,-418.5 83.5,-384.1399 83.5,-344.128 83.5,-320.7764"/>
<polygon fill="#191970" stroke="#191970" points="87.0001,-320.7489 83.5,-310.7489 80.0001,-320.749 87.0001,-320.7489"/>
</g>
<!-- Node26 -->
<g id="node27" class="node">
<title>Node26</title>
<g id="a_node27"><a xlink:href="VectorDynSize_8h.html" target="_top" xlink:title="iDynTree/Core/VectorDynSize.h">
<polygon fill="none" stroke="#000000" points="2391,-409 2391,-428 2558,-428 2558,-409 2391,-409"/>
<text text-anchor="middle" x="2474.5" y="-416" font-family="FreeSans.ttf" font-size="10.00" fill="#000000">iDynTree/Core/VectorDynSize.h</text>
</a>
</g>
</g>
<!-- Node0&#45;&gt;Node26 -->
<g id="edge43" class="edge">
<title>Node0&#45;&gt;Node26</title>
<path fill="none" stroke="#191970" d="M1604.6999,-666.8719C1756.6064,-655.475 2265.2156,-613.8455 2417.5,-557 2460.9315,-540.7877 2483.1917,-541.6384 2505.5,-501 2517.162,-479.7556 2502.5262,-453.2181 2489.6698,-436.0698"/>
<polygon fill="#191970" stroke="#191970" points="2492.2313,-433.6684 2483.2577,-428.0359 2486.7603,-438.0351 2492.2313,-433.6684"/>
</g>
<!-- Node27 -->
<g id="node28" class="node">
<title>Node27</title>
<g id="a_node28"><a xlink:href="Triplets_8h.html" target="_top" xlink:title="iDynTree/Core/Triplets.h">
<polygon fill="none" stroke="#000000" points="184.5,-476 184.5,-495 316.5,-495 316.5,-476 184.5,-476"/>
<text text-anchor="middle" x="250.5" y="-483" font-family="FreeSans.ttf" font-size="10.00" fill="#000000">iDynTree/Core/Triplets.h</text>
</a>
</g>
</g>
<!-- Node0&#45;&gt;Node27 -->
<g id="edge48" class="edge">
<title>Node0&#45;&gt;Node27</title>
<path fill="none" stroke="#191970" d="M1518.4151,-668.9703C1357.4024,-664.9578 791.1279,-649.3273 612.5,-624 484.9535,-605.9155 444.6868,-616.6368 330.5,-557 304.3476,-543.3413 279.9324,-519.2136 265.116,-502.8001"/>
<polygon fill="#191970" stroke="#191970" points="267.5115,-500.2236 258.2846,-495.0164 262.2504,-504.8411 267.5115,-500.2236"/>
</g>
<!-- Node28 -->
<g id="node29" class="node">
<title>Node28</title>
<polygon fill="none" stroke="#bfbfbf" points="1430,-409 1430,-428 1477,-428 1477,-409 1430,-409"/>
<text text-anchor="middle" x="1453.5" y="-416" font-family="FreeSans.ttf" font-size="10.00" fill="#000000">vector</text>
</g>
<!-- Node0&#45;&gt;Node28 -->
<g id="edge124" class="edge">
<title>Node0&#45;&gt;Node28</title>
<path fill="none" stroke="#191970" d="M1560.2717,-660.1963C1556.1548,-630.0043 1540.8801,-536.4614 1502.5,-470 1494.903,-456.8446 1483.2829,-444.4334 1473.265,-435.0923"/>
<polygon fill="#191970" stroke="#191970" points="1475.467,-432.3659 1465.6819,-428.3036 1470.7979,-437.5814 1475.467,-432.3659"/>
</g>
<!-- Node29 -->
<g id="node30" class="node">
<title>Node29</title>
<g id="a_node30"><a xlink:href="Indices_8h.html" target="_top" xlink:title="iDynTree/Model/Indices.h">
<polygon fill="none" stroke="#000000" points="1011.5,-409 1011.5,-428 1149.5,-428 1149.5,-409 1011.5,-409"/>
<text text-anchor="middle" x="1080.5" y="-416" font-family="FreeSans.ttf" font-size="10.00" fill="#000000">iDynTree/Model/Indices.h</text>
</a>
</g>
</g>
<!-- Node0&#45;&gt;Node29 -->
<g id="edge53" class="edge">
<title>Node0&#45;&gt;Node29</title>
<path fill="none" stroke="#191970" d="M1518.4172,-667.1665C1427.3504,-658.7816 1214.496,-626.1213 1102.5,-501 1087.0262,-483.7128 1082.2499,-456.7258 1080.8745,-438.3616"/>
<polygon fill="#191970" stroke="#191970" points="1084.3627,-438.0281 1080.3924,-428.2054 1077.3706,-438.3601 1084.3627,-438.0281"/>
</g>
<!-- Node31 -->
<g id="node32" class="node">
<title>Node31</title>
<g id="a_node32"><a xlink:href="LinkState_8h.html" target="_top" xlink:title="iDynTree/Model/LinkState.h">
<polygon fill="none" stroke="#000000" points="1684,-537.5 1684,-556.5 1833,-556.5 1833,-537.5 1684,-537.5"/>
<text text-anchor="middle" x="1758.5" y="-544.5" font-family="FreeSans.ttf" font-size="10.00" fill="#000000">iDynTree/Model/LinkState.h</text>
</a>
</g>
</g>
<!-- Node0&#45;&gt;Node31 -->
<g id="edge56" class="edge">
<title>Node0&#45;&gt;Node31</title>
<path fill="none" stroke="#191970" d="M1576.9583,-660.3484C1611.1951,-638.9721 1693.6171,-587.5106 1734.5717,-561.94"/>
<polygon fill="#191970" stroke="#191970" points="1736.4848,-564.8718 1743.1135,-556.6068 1732.7775,-558.9341 1736.4848,-564.8718"/>
</g>
<!-- Node40 -->
<g id="node41" class="node">
<title>Node40</title>
<g id="a_node41"><a xlink:href="Traversal_8h.html" target="_top" xlink:title="iDynTree/Model/Traversal.h">
<polygon fill="none" stroke="#000000" points="1328.5,-476 1328.5,-495 1476.5,-495 1476.5,-476 1328.5,-476"/>
<text text-anchor="middle" x="1402.5" y="-483" font-family="FreeSans.ttf" font-size="10.00" fill="#000000">iDynTree/Model/Traversal.h</text>
</a>
</g>
</g>
<!-- Node0&#45;&gt;Node40 -->
<g id="edge85" class="edge">
<title>Node0&#45;&gt;Node40</title>
<path fill="none" stroke="#191970" d="M1553.1753,-660.3402C1527.6314,-630.6996 1450.1193,-540.7563 1417.3642,-502.7481"/>
<polygon fill="#191970" stroke="#191970" points="1419.9218,-500.3544 1410.7423,-495.0641 1414.6192,-504.9242 1419.9218,-500.3544"/>
</g>
<!-- Node41 -->
<g id="node42" class="node">
<title>Node41</title>
<g id="a_node42"><a xlink:href="FreeFloatingState_8h.html" target="_top" xlink:title="iDynTree/Model/FreeFloating\lState.h">
<polygon fill="none" stroke="#000000" points="1804.5,-593.5 1804.5,-623.5 1958.5,-623.5 1958.5,-593.5 1804.5,-593.5"/>
<text text-anchor="start" x="1812.5" y="-611.5" font-family="FreeSans.ttf" font-size="10.00" fill="#000000">iDynTree/Model/FreeFloating</text>
<text text-anchor="middle" x="1881.5" y="-600.5" font-family="FreeSans.ttf" font-size="10.00" fill="#000000">State.h</text>
</a>
</g>
</g>
<!-- Node0&#45;&gt;Node41 -->
<g id="edge88" class="edge">
<title>Node0&#45;&gt;Node41</title>
<path fill="none" stroke="#191970" d="M1604.6566,-661.7058C1653.0564,-652.404 1732.8207,-637.0743 1794.3297,-625.253"/>
<polygon fill="#191970" stroke="#191970" points="1795.2644,-628.6375 1804.4241,-623.313 1793.9432,-621.7633 1795.2644,-628.6375"/>
</g>
<!-- Node43 -->
<g id="node44" class="node">
<title>Node43</title>
<g id="a_node44"><a xlink:href="Sensors_8h.html" target="_top" xlink:title="iDynTree/Sensors/Sensors.h">
<polygon fill="none" stroke="#000000" points="621,-599 621,-618 772,-618 772,-599 621,-599"/>
<text text-anchor="middle" x="696.5" y="-606" font-family="FreeSans.ttf" font-size="10.00" fill="#000000">iDynTree/Sensors/Sensors.h</text>
</a>
</g>
</g>
<!-- Node0&#45;&gt;Node43 -->
<g id="edge100" class="edge">
<title>Node0&#45;&gt;Node43</title>
<path fill="none" stroke="#191970" d="M1518.3086,-666.9292C1382.7212,-657.2891 963.7948,-627.5042 782.0651,-614.5835"/>
<polygon fill="#191970" stroke="#191970" points="782.2389,-611.0871 772.0159,-613.869 781.7424,-618.0695 782.2389,-611.0871"/>
</g>
<!-- Node53 -->
<g id="node50" class="node">
<title>Node53</title>
<g id="a_node50"><a xlink:href="LinkTraversalsCache_8h.html" target="_top" xlink:title="iDynTree/Model/LinkTraversals\lCache.h">
<polygon fill="none" stroke="#000000" points="1146.5,-470.5 1146.5,-500.5 1310.5,-500.5 1310.5,-470.5 1146.5,-470.5"/>
<text text-anchor="start" x="1154.5" y="-488.5" font-family="FreeSans.ttf" font-size="10.00" fill="#000000">iDynTree/Model/LinkTraversals</text>
<text text-anchor="middle" x="1228.5" y="-477.5" font-family="FreeSans.ttf" font-size="10.00" fill="#000000">Cache.h</text>
</a>
</g>
</g>
<!-- Node0&#45;&gt;Node53 -->
<g id="edge121" class="edge">
<title>Node0&#45;&gt;Node53</title>
<path fill="none" stroke="#191970" d="M1544.0653,-660.3402C1491.9398,-631.4599 1336.4871,-545.3307 1265.091,-505.7734"/>
<polygon fill="#191970" stroke="#191970" points="1266.4431,-502.5213 1255.9997,-500.7363 1263.0506,-508.6443 1266.4431,-502.5213"/>
</g>
<!-- Node2 -->
<g id="node3" class="node">
<title>Node2</title>
<polygon fill="none" stroke="#bfbfbf" points="1318.5,-56.5 1318.5,-75.5 1362.5,-75.5 1362.5,-56.5 1318.5,-56.5"/>
<text text-anchor="middle" x="1340.5" y="-63.5" font-family="FreeSans.ttf" font-size="10.00" fill="#000000">string</text>
</g>
<!-- Node1&#45;&gt;Node2 -->
<g id="edge2" class="edge">
<title>Node1&#45;&gt;Node2</title>
<path fill="none" stroke="#191970" d="M2301.8558,-179.1983C2182.0879,-171.4302 1944.3177,-153.8225 1863.5,-132 1842.7618,-126.4002 1840.2524,-117.5469 1819.5,-112 1734.6837,-89.3295 1466.2648,-72.8778 1372.8928,-67.7147"/>
<polygon fill="#191970" stroke="#191970" points="1372.8235,-64.2058 1362.6474,-67.1548 1372.4415,-71.1954 1372.8235,-64.2058"/>
</g>
<!-- Node1&#45;&gt;Node3 -->
<g id="edge3" class="edge">
<title>Node1&#45;&gt;Node3</title>
<path fill="none" stroke="#191970" d="M2355.4688,-173.8906C2337.711,-163.8713 2309.667,-148.0483 2289.2118,-136.5071"/>
<polygon fill="#191970" stroke="#191970" points="2290.8409,-133.4077 2280.4117,-131.5419 2287.4011,-139.5042 2290.8409,-133.4077"/>
</g>
<!-- Node1&#45;&gt;Node4 -->
<g id="edge21" class="edge">
<title>Node1&#45;&gt;Node4</title>
<path fill="none" stroke="#191970" d="M2371.8024,-173.9737C2370.3618,-159.5379 2366.0554,-131.7181 2353.5,-112 2345.7449,-99.8207 2333.7261,-89.2346 2322.8995,-81.2983"/>
<polygon fill="#191970" stroke="#191970" points="2324.7875,-78.3483 2314.5766,-75.5218 2320.7962,-84.0989 2324.7875,-78.3483"/>
</g>
<!-- Node3&#45;&gt;Node2 -->
<g id="edge17" class="edge">
<title>Node3&#45;&gt;Node2</title>
<path fill="none" stroke="#191970" d="M2182.8021,-117.1039C1988.8361,-105.3357 1502.8969,-75.8529 1372.9056,-67.9661"/>
<polygon fill="#191970" stroke="#191970" points="1372.9944,-64.4651 1362.8008,-67.353 1372.5704,-71.4523 1372.9944,-64.4651"/>
</g>
<!-- Node3&#45;&gt;Node4 -->
<g id="edge4" class="edge">
<title>Node3&#45;&gt;Node4</title>
<path fill="none" stroke="#191970" d="M2269.5965,-112.2455C2274.4145,-104.5367 2281.2751,-93.5598 2287.1032,-84.2348"/>
<polygon fill="#191970" stroke="#191970" points="2290.1413,-85.9777 2292.4733,-75.6427 2284.2053,-82.2677 2290.1413,-85.9777"/>
</g>
<!-- Node7 -->
<g id="node8" class="node">
<title>Node7</title>
<g id="a_node8"><a xlink:href="Span_8h.html" target="_top" xlink:title="iDynTree/Core/Span.h">
<polygon fill="none" stroke="#000000" points="2376,-56.5 2376,-75.5 2497,-75.5 2497,-56.5 2376,-56.5"/>
<text text-anchor="middle" x="2436.5" y="-63.5" font-family="FreeSans.ttf" font-size="10.00" fill="#000000">iDynTree/Core/Span.h</text>
</a>
</g>
</g>
<!-- Node3&#45;&gt;Node7 -->
<g id="edge7" class="edge">
<title>Node3&#45;&gt;Node7</title>
<path fill="none" stroke="#191970" d="M2293.2398,-112.3733C2322.007,-103.0613 2365.77,-88.8953 2397.3556,-78.671"/>
<polygon fill="#191970" stroke="#191970" points="2398.7122,-81.9107 2407.1483,-75.5011 2396.5564,-75.251 2398.7122,-81.9107"/>
</g>
<!-- Node8 -->
<g id="node9" class="node">
<title>Node8</title>
<polygon fill="none" stroke="#bfbfbf" points="2108.5,-.5 2108.5,-19.5 2160.5,-19.5 2160.5,-.5 2108.5,-.5"/>
<text text-anchor="middle" x="2134.5" y="-7.5" font-family="FreeSans.ttf" font-size="10.00" fill="#000000">cassert</text>
</g>
<!-- Node3&#45;&gt;Node8 -->
<g id="edge19" class="edge">
<title>Node3&#45;&gt;Node8</title>
<path fill="none" stroke="#191970" d="M2253.4288,-112.3949C2239.671,-99.3606 2214.1237,-75.4644 2191.5,-56 2179.6342,-45.7912 2166.0009,-34.7646 2155.0432,-26.0669"/>
<polygon fill="#191970" stroke="#191970" points="2156.932,-23.0989 2146.9138,-19.651 2152.5952,-28.5937 2156.932,-23.0989"/>
</g>
<!-- Node16 -->
<g id="node17" class="node">
<title>Node16</title>
<polygon fill="none" stroke="#bfbfbf" points="2126.5,-56.5 2126.5,-75.5 2182.5,-75.5 2182.5,-56.5 2126.5,-56.5"/>
<text text-anchor="middle" x="2154.5" y="-63.5" font-family="FreeSans.ttf" font-size="10.00" fill="#000000">sstream</text>
</g>
<!-- Node3&#45;&gt;Node16 -->
<g id="edge18" class="edge">
<title>Node3&#45;&gt;Node16</title>
<path fill="none" stroke="#191970" d="M2244.5136,-112.2455C2227.3208,-103.4125 2201.7762,-90.2887 2182.2868,-80.2758"/>
<polygon fill="#191970" stroke="#191970" points="2183.763,-77.0993 2173.2688,-75.6427 2180.5641,-83.3257 2183.763,-77.0993"/>
</g>
<!-- Node17 -->
<g id="node18" class="node">
<title>Node17</title>
<polygon fill="none" stroke="#bfbfbf" points="2058.5,-56.5 2058.5,-75.5 2108.5,-75.5 2108.5,-56.5 2058.5,-56.5"/>
<text text-anchor="middle" x="2083.5" y="-63.5" font-family="FreeSans.ttf" font-size="10.00" fill="#000000">cstring</text>
</g>
<!-- Node3&#45;&gt;Node17 -->
<g id="edge20" class="edge">
<title>Node3&#45;&gt;Node17</title>
<path fill="none" stroke="#191970" d="M2232.5569,-112.3733C2200.7653,-102.4825 2151.3714,-87.1156 2118.2541,-76.8124"/>
<polygon fill="#191970" stroke="#191970" points="2119.1247,-73.4178 2108.5364,-73.7891 2117.0452,-80.1018 2119.1247,-73.4178"/>
</g>
<!-- Node5 -->
<g id="node6" class="node">
<title>Node5</title>
<polygon fill="none" stroke="#bfbfbf" points="2277,-.5 2277,-19.5 2330,-19.5 2330,-.5 2277,-.5"/>
<text text-anchor="middle" x="2303.5" y="-7.5" font-family="FreeSans.ttf" font-size="10.00" fill="#000000">cstddef</text>
</g>
<!-- Node4&#45;&gt;Node5 -->
<g id="edge5" class="edge">
<title>Node4&#45;&gt;Node5</title>
<path fill="none" stroke="#191970" d="M2299.3709,-56.2455C2300.0234,-48.9382 2300.938,-38.6944 2301.7407,-29.7046"/>
<polygon fill="#191970" stroke="#191970" points="2305.2358,-29.9143 2302.639,-19.6427 2298.2635,-29.2918 2305.2358,-29.9143"/>
</g>
<!-- Node6 -->
<g id="node7" class="node">
<title>Node6</title>
<polygon fill="none" stroke="#bfbfbf" points="2178.5,-.5 2178.5,-19.5 2258.5,-19.5 2258.5,-.5 2178.5,-.5"/>
<text text-anchor="middle" x="2218.5" y="-7.5" font-family="FreeSans.ttf" font-size="10.00" fill="#000000">CoreExport.h</text>
</g>
<!-- Node4&#45;&gt;Node6 -->
<g id="edge6" class="edge">
<title>Node4&#45;&gt;Node6</title>
<path fill="none" stroke="#191970" d="M2284.5651,-56.2455C2272.4053,-47.7337 2254.5536,-35.2375 2240.4715,-25.3801"/>
<polygon fill="#191970" stroke="#191970" points="2242.4747,-22.51 2232.2752,-19.6427 2238.4605,-28.2447 2242.4747,-22.51"/>
</g>
<!-- Node7&#45;&gt;Node5 -->
<g id="edge11" class="edge">
<title>Node7&#45;&gt;Node5</title>
<path fill="none" stroke="#191970" d="M2413.6365,-56.3733C2392.095,-47.3032 2359.6162,-33.6279 2335.5044,-23.4755"/>
<polygon fill="#191970" stroke="#191970" points="2336.6397,-20.156 2326.0652,-19.5011 2333.9233,-26.6075 2336.6397,-20.156"/>
</g>
<!-- Node7&#45;&gt;Node8 -->
<g id="edge8" class="edge">
<title>Node7&#45;&gt;Node8</title>
<path fill="none" stroke="#191970" d="M2376.9002,-56.5C2314.9327,-46.4951 2221.05,-30.9494 2170.5825,-20.0291"/>
<polygon fill="#191970" stroke="#191970" points="2171.3174,-16.607 2160.7947,-17.8412 2169.7903,-23.4385 2171.3174,-16.607"/>
</g>
<!-- Node9 -->
<g id="node10" class="node">
<title>Node9</title>
<polygon fill="none" stroke="#bfbfbf" points="2704.5,-.5 2704.5,-19.5 2768.5,-19.5 2768.5,-.5 2704.5,-.5"/>
<text text-anchor="middle" x="2736.5" y="-7.5" font-family="FreeSans.ttf" font-size="10.00" fill="#000000">algorithm</text>
</g>
<!-- Node7&#45;&gt;Node9 -->
<g id="edge9" class="edge">
<title>Node7&#45;&gt;Node9</title>
<path fill="none" stroke="#191970" d="M2496.3728,-56.4736C2546.7397,-48.2075 2620.868,-35.4552 2694.4145,-20.1335"/>
<polygon fill="#191970" stroke="#191970" points="2695.2478,-23.5349 2704.315,-18.0544 2693.8092,-16.6843 2695.2478,-23.5349"/>
</g>
<!-- Node10 -->
<g id="node11" class="node">
<title>Node10</title>
<polygon fill="none" stroke="#bfbfbf" points="2348.5,-.5 2348.5,-19.5 2390.5,-19.5 2390.5,-.5 2348.5,-.5"/>
<text text-anchor="middle" x="2369.5" y="-7.5" font-family="FreeSans.ttf" font-size="10.00" fill="#000000">array</text>
</g>
<!-- Node7&#45;&gt;Node10 -->
<g id="edge10" class="edge">
<title>Node7&#45;&gt;Node10</title>
<path fill="none" stroke="#191970" d="M2424.8295,-56.2455C2414.9339,-47.9746 2400.5373,-35.9416 2388.9099,-26.2232"/>
<polygon fill="#191970" stroke="#191970" points="2390.9542,-23.3703 2381.0368,-19.6427 2386.465,-28.7413 2390.9542,-23.3703"/>
</g>
<!-- Node11 -->
<g id="node12" class="node">
<title>Node11</title>
<polygon fill="none" stroke="#bfbfbf" points="206,-.5 206,-19.5 259,-19.5 259,-.5 206,-.5"/>
<text text-anchor="middle" x="232.5" y="-7.5" font-family="FreeSans.ttf" font-size="10.00" fill="#000000">iterator</text>
</g>
<!-- Node7&#45;&gt;Node11 -->
<g id="edge12" class="edge">
<title>Node7&#45;&gt;Node11</title>
<path fill="none" stroke="#191970" d="M2375.9658,-56.7994C2373.1074,-56.4995 2370.2745,-56.2301 2367.5,-56 1936.3101,-20.2444 516.6287,-11.45 269.3823,-10.1762"/>
<polygon fill="#191970" stroke="#191970" points="269.1575,-6.6751 259.1399,-10.1243 269.122,-13.675 269.1575,-6.6751"/>
</g>
<!-- Node12 -->
<g id="node13" class="node">
<title>Node12</title>
<polygon fill="none" stroke="#bfbfbf" points="2408.5,-.5 2408.5,-19.5 2452.5,-19.5 2452.5,-.5 2408.5,-.5"/>
<text text-anchor="middle" x="2430.5" y="-7.5" font-family="FreeSans.ttf" font-size="10.00" fill="#000000">limits</text>
</g>
<!-- Node7&#45;&gt;Node12 -->
<g id="edge13" class="edge">
<title>Node7&#45;&gt;Node12</title>
<path fill="none" stroke="#191970" d="M2435.4549,-56.2455C2434.672,-48.9382 2433.5744,-38.6944 2432.6112,-29.7046"/>
<polygon fill="#191970" stroke="#191970" points="2436.0786,-29.2129 2431.5331,-19.6427 2429.1185,-29.9587 2436.0786,-29.2129"/>
</g>
<!-- Node13 -->
<g id="node14" class="node">
<title>Node13</title>
<polygon fill="none" stroke="#bfbfbf" points="2471,-.5 2471,-19.5 2536,-19.5 2536,-.5 2471,-.5"/>
<text text-anchor="middle" x="2503.5" y="-7.5" font-family="FreeSans.ttf" font-size="10.00" fill="#000000">stdexcept</text>
</g>
<!-- Node7&#45;&gt;Node13 -->
<g id="edge14" class="edge">
<title>Node7&#45;&gt;Node13</title>
<path fill="none" stroke="#191970" d="M2448.1705,-56.2455C2458.0661,-47.9746 2472.4627,-35.9416 2484.0901,-26.2232"/>
<polygon fill="#191970" stroke="#191970" points="2486.535,-28.7413 2491.9632,-19.6427 2482.0458,-23.3703 2486.535,-28.7413"/>
</g>
<!-- Node14 -->
<g id="node15" class="node">
<title>Node14</title>
<polygon fill="none" stroke="#bfbfbf" points="2554,-.5 2554,-19.5 2623,-19.5 2623,-.5 2554,-.5"/>
<text text-anchor="middle" x="2588.5" y="-7.5" font-family="FreeSans.ttf" font-size="10.00" fill="#000000">type_traits</text>
</g>
<!-- Node7&#45;&gt;Node14 -->
<g id="edge15" class="edge">
<title>Node7&#45;&gt;Node14</title>
<path fill="none" stroke="#191970" d="M2462.6297,-56.3733C2487.5768,-47.1822 2525.3592,-33.2624 2553.0206,-23.0713"/>
<polygon fill="#191970" stroke="#191970" points="2554.5378,-26.2424 2562.7112,-19.5011 2552.1178,-19.674 2554.5378,-26.2424"/>
</g>
<!-- Node15 -->
<g id="node16" class="node">
<title>Node15</title>
<polygon fill="none" stroke="#bfbfbf" points="2641,-.5 2641,-19.5 2686,-19.5 2686,-.5 2641,-.5"/>
<text text-anchor="middle" x="2663.5" y="-7.5" font-family="FreeSans.ttf" font-size="10.00" fill="#000000">utility</text>
</g>
<!-- Node7&#45;&gt;Node15 -->
<g id="edge16" class="edge">
<title>Node7&#45;&gt;Node15</title>
<path fill="none" stroke="#191970" d="M2481.9181,-56.4416C2519.633,-48.2574 2574.8661,-35.7036 2631.1093,-20.2446"/>
<polygon fill="#191970" stroke="#191970" points="2632.1782,-23.5803 2640.8775,-17.5328 2630.3056,-16.8354 2632.1782,-23.5803"/>
</g>
<!-- Node18&#45;&gt;Node2 -->
<g id="edge40" class="edge">
<title>Node18&#45;&gt;Node2</title>
<path fill="none" stroke="#191970" d="M1382.2591,-291.4264C1343.9722,-277.8152 1280.8247,-248.8245 1253.5,-199 1229.2634,-154.8065 1283.9159,-105.9613 1317.2117,-81.6062"/>
<polygon fill="#191970" stroke="#191970" points="1319.4258,-84.3267 1325.5546,-75.6844 1315.3741,-78.6184 1319.4258,-84.3267"/>
</g>
<!-- Node19 -->
<g id="node20" class="node">
<title>Node19</title>
<g id="a_node20"><a xlink:href="PositionRaw_8h.html" target="_top" xlink:title="iDynTree/Core/PositionRaw.h">
<polygon fill="none" stroke="#000000" points="1262.5,-174 1262.5,-193 1418.5,-193 1418.5,-174 1262.5,-174"/>
<text text-anchor="middle" x="1340.5" y="-181" font-family="FreeSans.ttf" font-size="10.00" fill="#000000">iDynTree/Core/PositionRaw.h</text>
</a>
</g>
</g>
<!-- Node18&#45;&gt;Node19 -->
<g id="edge23" class="edge">
<title>Node18&#45;&gt;Node19</title>
<path fill="none" stroke="#191970" d="M1407.5261,-291.3845C1395.388,-271.8471 1367.6629,-227.2211 1351.9381,-201.9106"/>
<polygon fill="#191970" stroke="#191970" points="1354.8067,-199.8955 1346.5564,-193.2484 1348.8608,-203.5896 1354.8067,-199.8955"/>
</g>
<!-- Node20 -->
<g id="node21" class="node">
<title>Node20</title>
<g id="a_node21"><a xlink:href="Rotation_8h.html" target="_top" xlink:title="iDynTree/Core/Rotation.h">
<polygon fill="none" stroke="#000000" points="1485,-235.5 1485,-254.5 1622,-254.5 1622,-235.5 1485,-235.5"/>
<text text-anchor="middle" x="1553.5" y="-242.5" font-family="FreeSans.ttf" font-size="10.00" fill="#000000">iDynTree/Core/Rotation.h</text>
</a>
</g>
</g>
<!-- Node18&#45;&gt;Node20 -->
<g id="edge26" class="edge">
<title>Node18&#45;&gt;Node20</title>
<path fill="none" stroke="#191970" d="M1437.5669,-291.3733C1460.3428,-282.2629 1494.7344,-268.5062 1520.149,-258.3404"/>
<polygon fill="#191970" stroke="#191970" points="1521.7623,-261.4648 1529.7472,-254.5011 1519.1625,-254.9654 1521.7623,-261.4648"/>
</g>
<!-- Node19&#45;&gt;Node2 -->
<g id="edge25" class="edge">
<title>Node19&#45;&gt;Node2</title>
<path fill="none" stroke="#191970" d="M1340.5,-173.8845C1340.5,-154.6913 1340.5,-111.286 1340.5,-85.7663"/>
<polygon fill="#191970" stroke="#191970" points="1344.0001,-85.7483 1340.5,-75.7484 1337.0001,-85.7484 1344.0001,-85.7483"/>
</g>
<!-- Node19&#45;&gt;Node3 -->
<g id="edge24" class="edge">
<title>Node19&#45;&gt;Node3</title>
<path fill="none" stroke="#191970" d="M1410.491,-173.9975C1428.3992,-171.7927 1447.6419,-169.6201 1465.5,-168 1534.2359,-161.7641 1978.0544,-137.4407 2172.4841,-126.9077"/>
<polygon fill="#191970" stroke="#191970" points="2172.8815,-130.3914 2182.6776,-126.3557 2172.503,-123.4016 2172.8815,-130.3914"/>
</g>
<!-- Node20&#45;&gt;Node2 -->
<g id="edge27" class="edge">
<title>Node20&#45;&gt;Node2</title>
<path fill="none" stroke="#191970" d="M1530.205,-235.4138C1511.7081,-227.2107 1485.6889,-214.3168 1465.5,-199 1419.4581,-164.0691 1375.5746,-111.4045 1354.1432,-84.0039"/>
<polygon fill="#191970" stroke="#191970" points="1356.6466,-81.519 1347.7652,-75.7421 1351.1056,-85.7966 1356.6466,-81.519"/>
</g>
<!-- Node20&#45;&gt;Node3 -->
<g id="edge39" class="edge">
<title>Node20&#45;&gt;Node3</title>
<path fill="none" stroke="#191970" d="M1622.1475,-240.4134C1673.2867,-235.0852 1743.9219,-223.6167 1801.5,-199 1823.1629,-189.7383 1822.5091,-176.4534 1844.5,-168 1902.4252,-145.7332 2067.5052,-132.7801 2172.3335,-126.5731"/>
<polygon fill="#191970" stroke="#191970" points="2172.8195,-130.0509 2182.5991,-125.9754 2172.4126,-123.0627 2172.8195,-130.0509"/>
</g>
<!-- Node21 -->
<g id="node22" class="node">
<title>Node21</title>
<g id="a_node22"><a xlink:href="GeomVector3_8h.html" target="_top" xlink:title="iDynTree/Core/GeomVector3.h">
<polygon fill="none" stroke="#000000" points="1887,-174 1887,-193 2050,-193 2050,-174 1887,-174"/>
<text text-anchor="middle" x="1968.5" y="-181" font-family="FreeSans.ttf" font-size="10.00" fill="#000000">iDynTree/Core/GeomVector3.h</text>
</a>
</g>
</g>
<!-- Node20&#45;&gt;Node21 -->
<g id="edge28" class="edge">
<title>Node20&#45;&gt;Node21</title>
<path fill="none" stroke="#191970" d="M1617.8884,-235.4581C1692.514,-224.3991 1815.2897,-206.2047 1893.9781,-194.5436"/>
<polygon fill="#191970" stroke="#191970" points="1894.9231,-197.9419 1904.302,-193.0137 1893.8969,-191.0175 1894.9231,-197.9419"/>
</g>
<!-- Node22 -->
<g id="node23" class="node">
<title>Node22</title>
<g id="a_node23"><a xlink:href="RotationRaw_8h.html" target="_top" xlink:title="iDynTree/Core/RotationRaw.h">
<polygon fill="none" stroke="#000000" points="1474.5,-174 1474.5,-193 1632.5,-193 1632.5,-174 1474.5,-174"/>
<text text-anchor="middle" x="1553.5" y="-181" font-family="FreeSans.ttf" font-size="10.00" fill="#000000">iDynTree/Core/RotationRaw.h</text>
</a>
</g>
</g>
<!-- Node20&#45;&gt;Node22 -->
<g id="edge30" class="edge">
<title>Node20&#45;&gt;Node22</title>
<path fill="none" stroke="#191970" d="M1553.5,-235.3906C1553.5,-226.8657 1553.5,-214.1392 1553.5,-203.4235"/>
<polygon fill="#191970" stroke="#191970" points="1557.0001,-203.2448 1553.5,-193.2449 1550.0001,-203.2449 1557.0001,-203.2448"/>
</g>
<!-- Node21&#45;&gt;Node3 -->
<g id="edge29" class="edge">
<title>Node21&#45;&gt;Node3</title>
<path fill="none" stroke="#191970" d="M2014.2701,-173.9581C2066.3749,-163.0956 2151.5019,-145.3488 2207.5167,-133.6711"/>
<polygon fill="#191970" stroke="#191970" points="2208.5473,-137.0316 2217.6225,-131.5643 2207.1187,-130.1789 2208.5473,-137.0316"/>
</g>
<!-- Node22&#45;&gt;Node2 -->
<g id="edge38" class="edge">
<title>Node22&#45;&gt;Node2</title>
<path fill="none" stroke="#191970" d="M1543.0576,-173.8182C1526.566,-158.9269 1493.0135,-130.2186 1460.5,-112 1432.1021,-96.0876 1397.0965,-83.3716 1372.2387,-75.3772"/>
<polygon fill="#191970" stroke="#191970" points="1373.1751,-72.0028 1362.5858,-72.3456 1371.0777,-78.6812 1373.1751,-72.0028"/>
</g>
<!-- Node23 -->
<g id="node24" class="node">
<title>Node23</title>
<g id="a_node24"><a xlink:href="MatrixFixSize_8h.html" target="_top" xlink:title="iDynTree/Core/MatrixFixSize.h">
<polygon fill="none" stroke="#000000" points="1872,-112.5 1872,-131.5 2033,-131.5 2033,-112.5 1872,-112.5"/>
<text text-anchor="middle" x="1952.5" y="-119.5" font-family="FreeSans.ttf" font-size="10.00" fill="#000000">iDynTree/Core/MatrixFixSize.h</text>
</a>
</g>
</g>
<!-- Node22&#45;&gt;Node23 -->
<g id="edge31" class="edge">
<title>Node22&#45;&gt;Node23</title>
<path fill="none" stroke="#191970" d="M1607.1156,-173.9381C1618.7714,-171.9222 1631.0419,-169.8476 1642.5,-168 1721.4948,-155.2624 1812.0331,-141.979 1874.7833,-132.9803"/>
<polygon fill="#191970" stroke="#191970" points="1875.5949,-136.3999 1884.9981,-131.5181 1874.603,-129.4705 1875.5949,-136.3999"/>
</g>
<!-- Node23&#45;&gt;Node2 -->
<g id="edge35" class="edge">
<title>Node23&#45;&gt;Node2</title>
<path fill="none" stroke="#191970" d="M1871.9157,-113.4266C1867.0387,-112.9359 1862.2044,-112.4569 1857.5,-112 1674.2407,-94.2032 1454.1672,-75.5115 1372.7898,-68.6907"/>
<polygon fill="#191970" stroke="#191970" points="1372.9405,-65.1912 1362.6834,-67.8449 1372.3566,-72.1668 1372.9405,-65.1912"/>
</g>
<!-- Node23&#45;&gt;Node4 -->
<g id="edge32" class="edge">
<title>Node23&#45;&gt;Node4</title>
<path fill="none" stroke="#191970" d="M2011.5864,-112.4369C2072.0456,-102.6516 2165.9188,-87.4582 2229.6905,-77.1368"/>
<polygon fill="#191970" stroke="#191970" points="2230.345,-80.5765 2239.6573,-75.5237 2229.2266,-73.6664 2230.345,-80.5765"/>
</g>
<!-- Node23&#45;&gt;Node8 -->
<g id="edge33" class="edge">
<title>Node23&#45;&gt;Node8</title>
<path fill="none" stroke="#191970" d="M1952.4883,-112.4804C1953.0022,-98.2066 1956.1148,-71.3047 1971.5,-56 1989.3139,-38.2793 2055.992,-23.7173 2098.35,-15.9946"/>
<polygon fill="#191970" stroke="#191970" points="2099.0584,-19.4236 2108.2906,-14.2259 2097.8321,-12.5319 2099.0584,-19.4236"/>
</g>
<!-- Node23&#45;&gt;Node16 -->
<g id="edge37" class="edge">
<title>Node23&#45;&gt;Node16</title>
<path fill="none" stroke="#191970" d="M1987.225,-112.3733C2023.2099,-102.3973 2079.2903,-86.8502 2116.4552,-76.5471"/>
<polygon fill="#191970" stroke="#191970" points="2117.7021,-79.8335 2126.4036,-73.7891 2115.832,-73.0879 2117.7021,-79.8335"/>
</g>
<!-- Node23&#45;&gt;Node17 -->
<g id="edge34" class="edge">
<title>Node23&#45;&gt;Node17</title>
<path fill="none" stroke="#191970" d="M1975.0197,-112.3733C1996.2372,-103.3032 2028.2276,-89.6279 2051.9769,-79.4755"/>
<polygon fill="#191970" stroke="#191970" points="2053.4548,-82.6502 2061.2742,-75.5011 2050.7033,-76.2136 2053.4548,-82.6502"/>
</g>
<!-- Node24 -->
<g id="node25" class="node">
<title>Node24</title>
<polygon fill="none" stroke="#bfbfbf" points="1980.5,-56.5 1980.5,-75.5 2040.5,-75.5 2040.5,-56.5 1980.5,-56.5"/>
<text text-anchor="middle" x="2010.5" y="-63.5" font-family="FreeSans.ttf" font-size="10.00" fill="#000000">iostream</text>
</g>
<!-- Node23&#45;&gt;Node24 -->
<g id="edge36" class="edge">
<title>Node23&#45;&gt;Node24</title>
<path fill="none" stroke="#191970" d="M1962.6028,-112.2455C1971.0028,-104.1352 1983.1494,-92.4075 1993.1084,-82.7919"/>
<polygon fill="#191970" stroke="#191970" points="1995.75,-85.1066 2000.5129,-75.6427 1990.8878,-80.0707 1995.75,-85.1066"/>
</g>
<!-- Node25&#45;&gt;Node2 -->
<g id="edge42" class="edge">
<title>Node25&#45;&gt;Node2</title>
<path fill="none" stroke="#191970" d="M91.1012,-291.0739C117.0643,-258.0658 206.3037,-151.8266 308.5,-112 403.4474,-74.9983 1143.2237,-67.4401 1308.0283,-66.2099"/>
<polygon fill="#191970" stroke="#191970" points="1308.4885,-69.7068 1318.4631,-66.1348 1308.4381,-62.7069 1308.4885,-69.7068"/>
</g>
<!-- Node26&#45;&gt;Node2 -->
<g id="edge45" class="edge">
<title>Node26&#45;&gt;Node2</title>
<path fill="none" stroke="#191970" d="M2462.8573,-408.9749C2415.8676,-371.1024 2234.3187,-230.2331 2059.5,-168 2042.9501,-162.1085 1509.9297,-89.1207 1372.5444,-70.3687"/>
<polygon fill="#191970" stroke="#191970" points="1373.0099,-66.8998 1362.6285,-69.0156 1372.0635,-73.8356 1373.0099,-66.8998"/>
</g>
<!-- Node26&#45;&gt;Node7 -->
<g id="edge44" class="edge">
<title>Node26&#45;&gt;Node7</title>
<path fill="none" stroke="#191970" d="M2487.0247,-408.6527C2516.4457,-384.3117 2587.5,-317.9721 2587.5,-245 2587.5,-245 2587.5,-245 2587.5,-183.5 2587.5,-128.4155 2524.1373,-95.391 2479.5022,-78.961"/>
<polygon fill="#191970" stroke="#191970" points="2480.6066,-75.6392 2470.0118,-75.6102 2478.276,-82.2399 2480.6066,-75.6392"/>
</g>
<!-- Node27&#45;&gt;Node2 -->
<g id="edge51" class="edge">
<title>Node27&#45;&gt;Node2</title>
<path fill="none" stroke="#191970" d="M260.5113,-475.8924C280.2949,-455.8189 322.5,-407.1217 322.5,-357 322.5,-357 322.5,-357 322.5,-183.5 322.5,-132.7608 364.0696,-130.0229 411.5,-112 496.6315,-79.6513 1153.101,-68.5944 1307.883,-66.4238"/>
<polygon fill="#191970" stroke="#191970" points="1308.1947,-69.9199 1318.1456,-66.2827 1308.0984,-62.9206 1308.1947,-69.9199"/>
</g>
<!-- Node27&#45;&gt;Node4 -->
<g id="edge49" class="edge">
<title>Node27&#45;&gt;Node4</title>
<path fill="none" stroke="#191970" d="M270.8523,-475.8895C305.8374,-459.5865 379.8593,-426.0402 444.5,-403 532.671,-371.5728 1161.1538,-183.2962 1253.5,-168 1599.8129,-110.637 1695.3557,-184.0954 2042.5,-132 2121.0584,-120.2109 2210.4066,-94.1951 2260.0474,-78.5779"/>
<polygon fill="#191970" stroke="#191970" points="2261.2527,-81.8675 2269.7253,-75.5062 2259.135,-75.1955 2261.2527,-81.8675"/>
</g>
<!-- Node27&#45;&gt;Node11 -->
<g id="edge50" class="edge">
<title>Node27&#45;&gt;Node11</title>
<path fill="none" stroke="#191970" d="M242.9476,-475.8092C227.662,-455.1927 194.5,-404.9408 194.5,-357 194.5,-357 194.5,-357 194.5,-301 194.5,-191.5899 197.1343,-163.3036 218.5,-56 220.2682,-47.1196 223.0514,-37.5063 225.672,-29.3755"/>
<polygon fill="#191970" stroke="#191970" points="229.0467,-30.3212 228.9244,-19.727 222.4134,-28.0851 229.0467,-30.3212"/>
</g>
<!-- Node27&#45;&gt;Node28 -->
<g id="edge52" class="edge">
<title>Node27&#45;&gt;Node28</title>
<path fill="none" stroke="#191970" d="M316.8498,-479.5751C353.3228,-476.4471 399.3849,-472.7071 440.5,-470 759.3216,-449.0079 839.4083,-450.3824 1158.5,-434 1253.0941,-429.1435 1364.7395,-423.227 1419.6001,-420.3076"/>
<polygon fill="#191970" stroke="#191970" points="1419.9935,-423.7917 1429.7932,-419.7649 1419.6212,-416.8017 1419.9935,-423.7917"/>
</g>
<!-- Node29&#45;&gt;Node2 -->
<g id="edge54" class="edge">
<title>Node29&#45;&gt;Node2</title>
<path fill="none" stroke="#191970" d="M1078.1362,-408.8197C1073.4651,-388.8133 1063.5,-341.3989 1063.5,-301 1063.5,-301 1063.5,-301 1063.5,-183.5 1063.5,-132.0648 1108.2799,-134.5672 1154.5,-112 1205.0475,-87.3199 1269.9738,-75.1736 1308.2276,-69.7714"/>
<polygon fill="#191970" stroke="#191970" points="1308.8307,-73.2219 1318.2757,-68.4217 1307.8988,-66.2842 1308.8307,-73.2219"/>
</g>
<!-- Node30 -->
<g id="node31" class="node">
<title>Node30</title>
<polygon fill="none" stroke="#bfbfbf" points="1129.5,-347.5 1129.5,-366.5 1215.5,-366.5 1215.5,-347.5 1129.5,-347.5"/>
<text text-anchor="middle" x="1172.5" y="-354.5" font-family="FreeSans.ttf" font-size="10.00" fill="#000000">ModelExport.h</text>
</g>
<!-- Node29&#45;&gt;Node30 -->
<g id="edge55" class="edge">
<title>Node29&#45;&gt;Node30</title>
<path fill="none" stroke="#191970" d="M1094.875,-408.8906C1109.5931,-399.0519 1132.6832,-383.6167 1149.8589,-372.1351"/>
<polygon fill="#191970" stroke="#191970" points="1151.8575,-375.0091 1158.2259,-366.5419 1147.9673,-369.1896 1151.8575,-375.0091"/>
</g>
<!-- Node31&#45;&gt;Node28 -->
<g id="edge84" class="edge">
<title>Node31&#45;&gt;Node28</title>
<path fill="none" stroke="#191970" d="M1745.5377,-537.4403C1723.3875,-521.49 1676.3832,-489.3002 1632.5,-470 1583.8711,-448.6126 1523.94,-433.4664 1487.2389,-425.3589"/>
<polygon fill="#191970" stroke="#191970" points="1487.5963,-421.8554 1477.0826,-423.1644 1486.1179,-428.6975 1487.5963,-421.8554"/>
</g>
<!-- Node31&#45;&gt;Node29 -->
<g id="edge83" class="edge">
<title>Node31&#45;&gt;Node29</title>
<path fill="none" stroke="#191970" d="M1730.1502,-537.4942C1680.927,-521.3314 1576.2223,-488.4561 1485.5,-470 1373.4859,-447.2125 1241.8724,-432.6974 1159.8085,-425.0755"/>
<polygon fill="#191970" stroke="#191970" points="1160.0817,-421.5859 1149.8037,-424.1577 1159.4421,-428.5567 1160.0817,-421.5859"/>
</g>
<!-- Node32 -->
<g id="node33" class="node">
<title>Node32</title>
<g id="a_node33"><a xlink:href="Transform_8h.html" target="_top" xlink:title="iDynTree/Core/Transform.h">
<polygon fill="none" stroke="#000000" points="1294.5,-347.5 1294.5,-366.5 1440.5,-366.5 1440.5,-347.5 1294.5,-347.5"/>
<text text-anchor="middle" x="1367.5" y="-354.5" font-family="FreeSans.ttf" font-size="10.00" fill="#000000">iDynTree/Core/Transform.h</text>
</a>
</g>
</g>
<!-- Node31&#45;&gt;Node32 -->
<g id="edge57" class="edge">
<title>Node31&#45;&gt;Node32</title>
<path fill="none" stroke="#191970" d="M1750.3674,-537.4298C1736.3505,-521.4641 1706.0907,-489.252 1674.5,-470 1590.9459,-419.0804 1480.811,-385.5185 1417.7141,-369.0132"/>
<polygon fill="#191970" stroke="#191970" points="1418.5596,-365.6168 1408.0025,-366.5106 1416.8128,-372.3954 1418.5596,-365.6168"/>
</g>
<!-- Node33 -->
<g id="node34" class="node">
<title>Node33</title>
<g id="a_node34"><a xlink:href="Twist_8h.html" target="_top" xlink:title="iDynTree/Core/Twist.h">
<polygon fill="none" stroke="#000000" points="2002.5,-476 2002.5,-495 2124.5,-495 2124.5,-476 2002.5,-476"/>
<text text-anchor="middle" x="2063.5" y="-483" font-family="FreeSans.ttf" font-size="10.00" fill="#000000">iDynTree/Core/Twist.h</text>
</a>
</g>
</g>
<!-- Node31&#45;&gt;Node33 -->
<g id="edge62" class="edge">
<title>Node31&#45;&gt;Node33</title>
<path fill="none" stroke="#191970" d="M1808.9979,-537.4876C1856.6358,-528.4258 1930.0123,-514.2406 1993.5,-501 1999.2764,-499.7953 2005.3139,-498.5053 2011.3177,-497.2028"/>
<polygon fill="#191970" stroke="#191970" points="2012.3162,-500.5672 2021.3378,-495.0119 2010.821,-493.7288 2012.3162,-500.5672"/>
</g>
<!-- Node36 -->
<g id="node37" class="node">
<title>Node36</title>
<g id="a_node37"><a xlink:href="SpatialAcc_8h.html" target="_top" xlink:title="iDynTree/Core/SpatialAcc.h">
<polygon fill="none" stroke="#000000" points="1836.5,-476 1836.5,-495 1984.5,-495 1984.5,-476 1836.5,-476"/>
<text text-anchor="middle" x="1910.5" y="-483" font-family="FreeSans.ttf" font-size="10.00" fill="#000000">iDynTree/Core/SpatialAcc.h</text>
</a>
</g>
</g>
<!-- Node31&#45;&gt;Node36 -->
<g id="edge73" class="edge">
<title>Node31&#45;&gt;Node36</title>
<path fill="none" stroke="#191970" d="M1782.25,-537.3906C1807.7939,-527.0554 1848.6009,-510.5447 1877.311,-498.9284"/>
<polygon fill="#191970" stroke="#191970" points="1878.9596,-502.0371 1886.9168,-495.0419 1876.334,-495.5481 1878.9596,-502.0371"/>
</g>
<!-- Node37 -->
<g id="node38" class="node">
<title>Node37</title>
<g id="a_node38"><a xlink:href="Wrench_8h.html" target="_top" xlink:title="iDynTree/Core/Wrench.h">
<polygon fill="none" stroke="#000000" points="2143,-476 2143,-495 2276,-495 2276,-476 2143,-476"/>
<text text-anchor="middle" x="2209.5" y="-483" font-family="FreeSans.ttf" font-size="10.00" fill="#000000">iDynTree/Core/Wrench.h</text>
</a>
</g>
</g>
<!-- Node31&#45;&gt;Node37 -->
<g id="edge75" class="edge">
<title>Node31&#45;&gt;Node37</title>
<path fill="none" stroke="#191970" d="M1833.2766,-538.1497C1934.1698,-526.1587 2104.6514,-505.7036 2133.5,-501 2140.7184,-499.8231 2148.2948,-498.4479 2155.7523,-497.0115"/>
<polygon fill="#191970" stroke="#191970" points="2156.6703,-500.3979 2165.8033,-495.0277 2155.3148,-493.5304 2156.6703,-500.3979"/>
</g>
<!-- Node39 -->
<g id="node40" class="node">
<title>Node39</title>
<g id="a_node40"><a xlink:href="ArticulatedBodyInertia_8h.html" target="_top" xlink:title="iDynTree/Core/Articulated\lBodyInertia.h">
<polygon fill="none" stroke="#000000" points="1651,-168.5 1651,-198.5 1792,-198.5 1792,-168.5 1651,-168.5"/>
<text text-anchor="start" x="1659" y="-186.5" font-family="FreeSans.ttf" font-size="10.00" fill="#000000">iDynTree/Core/Articulated</text>
<text text-anchor="middle" x="1721.5" y="-175.5" font-family="FreeSans.ttf" font-size="10.00" fill="#000000">BodyInertia.h</text>
</a>
</g>
</g>
<!-- Node31&#45;&gt;Node39 -->
<g id="edge80" class="edge">
<title>Node31&#45;&gt;Node39</title>
<path fill="none" stroke="#191970" d="M1760.0198,-537.3569C1763.2488,-516.0035 1770.5,-463.0881 1770.5,-418.5 1770.5,-418.5 1770.5,-418.5 1770.5,-301 1770.5,-266.4224 1752.2004,-230.2249 1737.9675,-207.3008"/>
<polygon fill="#191970" stroke="#191970" points="1740.7331,-205.1309 1732.3747,-198.6203 1734.8487,-208.9222 1740.7331,-205.1309"/>
</g>
<!-- Node32&#45;&gt;Node2 -->
<g id="edge61" class="edge">
<title>Node32&#45;&gt;Node2</title>
<path fill="none" stroke="#191970" d="M1321.1663,-347.4609C1244.9556,-330.4246 1101.5,-292.1008 1101.5,-245 1101.5,-245 1101.5,-245 1101.5,-183.5 1101.5,-137.856 1243.6599,-92.7266 1308.7009,-74.4677"/>
<polygon fill="#191970" stroke="#191970" points="1309.7393,-77.8119 1318.4438,-71.7719 1307.8726,-71.0654 1309.7393,-77.8119"/>
</g>
<!-- Node32&#45;&gt;Node18 -->
<g id="edge58" class="edge">
<title>Node32&#45;&gt;Node18</title>
<path fill="none" stroke="#191970" d="M1375.5126,-347.2455C1381.9768,-339.3761 1391.2385,-328.101 1398.9983,-318.6542"/>
<polygon fill="#191970" stroke="#191970" points="1401.9364,-320.5916 1405.5792,-310.6427 1396.5273,-316.1484 1401.9364,-320.5916"/>
</g>
<!-- Node32&#45;&gt;Node20 -->
<g id="edge59" class="edge">
<title>Node32&#45;&gt;Node20</title>
<path fill="none" stroke="#191970" d="M1405.9032,-347.4917C1431.2803,-340.0794 1464.525,-328.1395 1490.5,-311 1510.2084,-297.9955 1528.3252,-277.7584 1540.0219,-263.1206"/>
<polygon fill="#191970" stroke="#191970" points="1543.0754,-264.894 1546.4318,-254.8448 1537.5413,-260.6075 1543.0754,-264.894"/>
</g>
<!-- Node32&#45;&gt;Node23 -->
<g id="edge60" class="edge">
<title>Node32&#45;&gt;Node23</title>
<path fill="none" stroke="#191970" d="M1353.6338,-347.4248C1312.5934,-317.9986 1197.9749,-227.2993 1253.5,-168 1273.972,-146.1365 1676.9706,-130.6794 1861.5622,-124.718"/>
<polygon fill="#191970" stroke="#191970" points="1861.9106,-128.2088 1871.7933,-124.3901 1861.6863,-121.2123 1861.9106,-128.2088"/>
</g>
<!-- Node34 -->
<g id="node35" class="node">
<title>Node34</title>
<g id="a_node35"><a xlink:href="SpatialMotionVector_8h.html" target="_top" xlink:title="iDynTree/Core/SpatialMotion\lVector.h">
<polygon fill="none" stroke="#000000" points="1854,-403.5 1854,-433.5 2009,-433.5 2009,-403.5 1854,-403.5"/>
<text text-anchor="start" x="1862" y="-421.5" font-family="FreeSans.ttf" font-size="10.00" fill="#000000">iDynTree/Core/SpatialMotion</text>
<text text-anchor="middle" x="1931.5" y="-410.5" font-family="FreeSans.ttf" font-size="10.00" fill="#000000">Vector.h</text>
</a>
</g>
</g>
<!-- Node33&#45;&gt;Node34 -->
<g id="edge63" class="edge">
<title>Node33&#45;&gt;Node34</title>
<path fill="none" stroke="#191970" d="M2044.5876,-475.9005C2025.2448,-466.0826 1994.6428,-450.5498 1970.1478,-438.1167"/>
<polygon fill="#191970" stroke="#191970" points="1971.5964,-434.9269 1961.0951,-433.5218 1968.4281,-441.1689 1971.5964,-434.9269"/>
</g>
<!-- Node34&#45;&gt;Node3 -->
<g id="edge64" class="edge">
<title>Node34&#45;&gt;Node3</title>
<path fill="none" stroke="#191970" d="M1920.5601,-403.2958C1891.1795,-360.4759 1816.8258,-237.4817 1878.5,-168 1897.7101,-146.3581 2064.8141,-133.0357 2172.4667,-126.6208"/>
<polygon fill="#191970" stroke="#191970" points="2172.9141,-130.1007 2182.6922,-126.0215 2172.5045,-123.1127 2172.9141,-130.1007"/>
</g>
<!-- Node34&#45;&gt;Node21 -->
<g id="edge65" class="edge">
<title>Node34&#45;&gt;Node21</title>
<path fill="none" stroke="#191970" d="M1933.8708,-403.4422C1940.311,-362.5381 1958.1308,-249.3587 1965.376,-203.3419"/>
<polygon fill="#191970" stroke="#191970" points="1968.8788,-203.5973 1966.9768,-193.1746 1961.964,-202.5085 1968.8788,-203.5973"/>
</g>
<!-- Node35 -->
<g id="node36" class="node">
<title>Node35</title>
<g id="a_node36"><a xlink:href="SpatialVector_8h.html" target="_top" xlink:title="iDynTree/Core/SpatialVector.h">
<polygon fill="none" stroke="#000000" points="1960,-347.5 1960,-366.5 2121,-366.5 2121,-347.5 1960,-347.5"/>
<text text-anchor="middle" x="2040.5" y="-354.5" font-family="FreeSans.ttf" font-size="10.00" fill="#000000">iDynTree/Core/SpatialVector.h</text>
</a>
</g>
</g>
<!-- Node34&#45;&gt;Node35 -->
<g id="edge66" class="edge">
<title>Node34&#45;&gt;Node35</title>
<path fill="none" stroke="#191970" d="M1958.1644,-403.4554C1975.3941,-393.734 1997.6975,-381.15 2014.7446,-371.5317"/>
<polygon fill="#191970" stroke="#191970" points="2016.6194,-374.4926 2023.6089,-366.5303 2013.1796,-368.3961 2016.6194,-374.4926"/>
</g>
<!-- Node35&#45;&gt;Node4 -->
<g id="edge69" class="edge">
<title>Node35&#45;&gt;Node4</title>
<path fill="none" stroke="#191970" d="M2081.5561,-347.4717C2176.9153,-324.4242 2408.6108,-262.8372 2452.5,-199 2489.2984,-145.4765 2393.7999,-100.2299 2337.0582,-78.9803"/>
<polygon fill="#191970" stroke="#191970" points="2338.2265,-75.6809 2327.6327,-75.5363 2335.8241,-82.2558 2338.2265,-75.6809"/>
</g>
<!-- Node35&#45;&gt;Node16 -->
<g id="edge72" class="edge">
<title>Node35&#45;&gt;Node16</title>
<path fill="none" stroke="#191970" d="M2062.751,-347.3895C2095.9271,-331.3825 2154.5,-295.9125 2154.5,-245 2154.5,-245 2154.5,-245 2154.5,-183.5 2154.5,-149.1399 2154.5,-109.128 2154.5,-85.7764"/>
<polygon fill="#191970" stroke="#191970" points="2158.0001,-85.7489 2154.5,-75.7489 2151.0001,-85.749 2158.0001,-85.7489"/>
</g>
<!-- Node35&#45;&gt;Node18 -->
<g id="edge67" class="edge">
<title>Node35&#45;&gt;Node18</title>
<path fill="none" stroke="#191970" d="M1959.8143,-349.7936C1838.8145,-338.9866 1611.8103,-318.7119 1492.0636,-308.0168"/>
<polygon fill="#191970" stroke="#191970" points="1492.1437,-304.5102 1481.872,-307.1066 1491.5209,-311.4824 1492.1437,-304.5102"/>
</g>
<!-- Node35&#45;&gt;Node20 -->
<g id="edge68" class="edge">
<title>Node35&#45;&gt;Node20</title>
<path fill="none" stroke="#191970" d="M1998.9787,-347.4509C1910.1155,-327.0142 1701.7258,-279.0889 1604.7798,-256.7933"/>
<polygon fill="#191970" stroke="#191970" points="1605.4463,-253.3553 1594.9162,-254.5249 1603.8774,-260.1772 1605.4463,-253.3553"/>
</g>
<!-- Node35&#45;&gt;Node21 -->
<g id="edge70" class="edge">
<title>Node35&#45;&gt;Node21</title>
<path fill="none" stroke="#191970" d="M2036.5264,-347.4248C2025.096,-319.8807 1991.9665,-240.0477 1976.5574,-202.916"/>
<polygon fill="#191970" stroke="#191970" points="1979.6157,-201.1543 1972.5501,-193.2595 1973.1503,-203.8374 1979.6157,-201.1543"/>
</g>
<!-- Node35&#45;&gt;Node24 -->
<g id="edge71" class="edge">
<title>Node35&#45;&gt;Node24</title>
<path fill="none" stroke="#191970" d="M2053.0499,-347.4082C2074.636,-329.7155 2116.5,-289.6472 2116.5,-245 2116.5,-245 2116.5,-245 2116.5,-183.5 2116.5,-136.4902 2069.1442,-99.8293 2037.7374,-80.6846"/>
<polygon fill="#191970" stroke="#191970" points="2039.3595,-77.5784 2028.9638,-75.5341 2035.8157,-83.6151 2039.3595,-77.5784"/>
</g>
<!-- Node36&#45;&gt;Node34 -->
<g id="edge74" class="edge">
<title>Node36&#45;&gt;Node34</title>
<path fill="none" stroke="#191970" d="M1913.5088,-475.9005C1916.1658,-467.4234 1920.1582,-454.6856 1923.7076,-443.3614"/>
<polygon fill="#191970" stroke="#191970" points="1927.1406,-444.1109 1926.7917,-433.5218 1920.461,-442.0172 1927.1406,-444.1109"/>
</g>
<!-- Node38 -->
<g id="node39" class="node">
<title>Node38</title>
<g id="a_node39"><a xlink:href="SpatialForceVector_8h.html" target="_top" xlink:title="iDynTree/Core/SpatialForce\lVector.h">
<polygon fill="none" stroke="#000000" points="2118.5,-403.5 2118.5,-433.5 2266.5,-433.5 2266.5,-403.5 2118.5,-403.5"/>
<text text-anchor="start" x="2126.5" y="-421.5" font-family="FreeSans.ttf" font-size="10.00" fill="#000000">iDynTree/Core/SpatialForce</text>
<text text-anchor="middle" x="2192.5" y="-410.5" font-family="FreeSans.ttf" font-size="10.00" fill="#000000">Vector.h</text>
</a>
</g>
</g>
<!-- Node37&#45;&gt;Node38 -->
<g id="edge76" class="edge">
<title>Node37&#45;&gt;Node38</title>
<path fill="none" stroke="#191970" d="M2207.0643,-475.9005C2204.9134,-467.4234 2201.6814,-454.6856 2198.8081,-443.3614"/>
<polygon fill="#191970" stroke="#191970" points="2202.1634,-442.3538 2196.3115,-433.5218 2195.3784,-444.0754 2202.1634,-442.3538"/>
</g>
<!-- Node38&#45;&gt;Node3 -->
<g id="edge77" class="edge">
<title>Node38&#45;&gt;Node3</title>
<path fill="none" stroke="#191970" d="M2192.5,-403.2899C2192.5,-380.892 2192.5,-337.7188 2192.5,-301 2192.5,-301 2192.5,-301 2192.5,-245 2192.5,-202.3983 2224.8424,-161.2729 2245.8696,-139.0373"/>
<polygon fill="#191970" stroke="#191970" points="2248.5275,-141.3256 2253.0237,-131.7321 2243.5263,-136.4278 2248.5275,-141.3256"/>
</g>
<!-- Node38&#45;&gt;Node21 -->
<g id="edge78" class="edge">
<title>Node38&#45;&gt;Node21</title>
<path fill="none" stroke="#191970" d="M2179.958,-403.4577C2167.6295,-388.8112 2148.1489,-366.0372 2130.5,-347 2079.3765,-291.8551 2015.8756,-229.4344 1985.8194,-200.2328"/>
<polygon fill="#191970" stroke="#191970" points="1988.2116,-197.6772 1978.5958,-193.229 1983.3389,-202.7028 1988.2116,-197.6772"/>
</g>
<!-- Node38&#45;&gt;Node35 -->
<g id="edge79" class="edge">
<title>Node38&#45;&gt;Node35</title>
<path fill="none" stroke="#191970" d="M2155.3166,-403.4554C2130.2887,-393.329 2097.5837,-380.0964 2073.4834,-370.3453"/>
<polygon fill="#191970" stroke="#191970" points="2074.6373,-367.0366 2064.0546,-366.5303 2072.0118,-373.5256 2074.6373,-367.0366"/>
</g>
<!-- Node39&#45;&gt;Node2 -->
<g id="edge82" class="edge">
<title>Node39&#45;&gt;Node2</title>
<path fill="none" stroke="#191970" d="M1672.8591,-168.4992C1593.8332,-144.1277 1439.6685,-96.5835 1372.7663,-75.9509"/>
<polygon fill="#191970" stroke="#191970" points="1373.3904,-72.4808 1362.803,-72.8782 1371.3274,-79.1699 1373.3904,-72.4808"/>
</g>
<!-- Node39&#45;&gt;Node23 -->
<g id="edge81" class="edge">
<title>Node39&#45;&gt;Node23</title>
<path fill="none" stroke="#191970" d="M1778.009,-168.4554C1817.5662,-157.9239 1869.7427,-144.0328 1906.7046,-134.1923"/>
<polygon fill="#191970" stroke="#191970" points="1907.9403,-137.4853 1916.7032,-131.5303 1906.1393,-130.7209 1907.9403,-137.4853"/>
</g>
<!-- Node40&#45;&gt;Node28 -->
<g id="edge87" class="edge">
<title>Node40&#45;&gt;Node28</title>
<path fill="none" stroke="#191970" d="M1409.8071,-475.9005C1417.6843,-465.552 1430.3946,-448.8542 1440.0806,-436.1295"/>
<polygon fill="#191970" stroke="#191970" points="1442.9346,-438.1586 1446.2065,-428.0817 1437.3646,-433.9188 1442.9346,-438.1586"/>
</g>
<!-- Node40&#45;&gt;Node29 -->
<g id="edge86" class="edge">
<title>Node40&#45;&gt;Node29</title>
<path fill="none" stroke="#191970" d="M1356.7072,-475.9717C1298.7303,-463.9082 1198.8969,-443.1354 1136.4612,-430.1441"/>
<polygon fill="#191970" stroke="#191970" points="1136.8985,-426.6602 1126.3952,-428.0496 1135.4725,-433.5134 1136.8985,-426.6602"/>
</g>
<!-- Node41&#45;&gt;Node26 -->
<g id="edge91" class="edge">
<title>Node41&#45;&gt;Node26</title>
<path fill="none" stroke="#191970" d="M1958.63,-606.6359C2106.4275,-601.2631 2420.8333,-580.5337 2487.5,-501 2502.3536,-483.2795 2493.6574,-455.6232 2484.9872,-437.2857"/>
<polygon fill="#191970" stroke="#191970" points="2487.9968,-435.4841 2480.3228,-428.1793 2481.7666,-438.6753 2487.9968,-435.4841"/>
</g>
<!-- Node41&#45;&gt;Node28 -->
<g id="edge99" class="edge">
<title>Node41&#45;&gt;Node28</title>
<path fill="none" stroke="#191970" d="M1804.2488,-596.5262C1764.5218,-588.5679 1716.0598,-576.0024 1675.5,-557 1616.1723,-529.2048 1612.4405,-504.1029 1556.5,-470 1533.216,-455.8054 1505.5038,-442.1168 1484.6921,-432.4246"/>
<polygon fill="#191970" stroke="#191970" points="1485.9159,-429.135 1475.3684,-428.1343 1482.9897,-435.4941 1485.9159,-429.135"/>
</g>
<!-- Node41&#45;&gt;Node29 -->
<g id="edge92" class="edge">
<title>Node41&#45;&gt;Node29</title>
<path fill="none" stroke="#191970" d="M1804.3177,-605.0919C1637.1993,-596.4898 1248.0134,-569.4955 1137.5,-501 1113.4174,-486.0737 1096.9178,-456.7821 1088.093,-437.4232"/>
<polygon fill="#191970" stroke="#191970" points="1091.245,-435.893 1084.0792,-428.089 1084.8143,-438.6583 1091.245,-435.893"/>
</g>
<!-- Node41&#45;&gt;Node31 -->
<g id="edge93" class="edge">
<title>Node41&#45;&gt;Node31</title>
<path fill="none" stroke="#191970" d="M1851.4108,-593.4554C1831.6981,-583.599 1806.0998,-570.7999 1786.7653,-561.1327"/>
<polygon fill="#191970" stroke="#191970" points="1788.0702,-557.872 1777.5606,-556.5303 1784.9397,-564.133 1788.0702,-557.872"/>
</g>
<!-- Node41&#45;&gt;Node32 -->
<g id="edge89" class="edge">
<title>Node41&#45;&gt;Node32</title>
<path fill="none" stroke="#191970" d="M1876.3461,-593.4036C1870.3262,-577.6509 1859.0371,-553.0538 1842.5,-537 1748.0877,-445.3469 1702.4546,-447.1502 1578.5,-403 1534.1251,-387.1945 1482.4839,-375.8232 1441.3973,-368.3407"/>
<polygon fill="#191970" stroke="#191970" points="1441.9185,-364.8785 1431.4594,-366.5689 1440.6898,-371.7699 1441.9185,-364.8785"/>
</g>
<!-- Node41&#45;&gt;Node33 -->
<g id="edge90" class="edge">
<title>Node41&#45;&gt;Node33</title>
<path fill="none" stroke="#191970" d="M1903.8168,-593.4178C1938.6704,-569.8629 2005.6613,-524.5888 2040.7681,-500.8628"/>
<polygon fill="#191970" stroke="#191970" points="2043.0447,-503.5486 2049.3702,-495.0493 2039.1251,-497.7488 2043.0447,-503.5486"/>
</g>
<!-- Node42 -->
<g id="node43" class="node">
<title>Node42</title>
<g id="a_node43"><a xlink:href="JointState_8h.html" target="_top" xlink:title="iDynTree/Model/JointState.h">
<polygon fill="none" stroke="#000000" points="2294,-476 2294,-495 2445,-495 2445,-476 2294,-476"/>
<text text-anchor="middle" x="2369.5" y="-483" font-family="FreeSans.ttf" font-size="10.00" fill="#000000">iDynTree/Model/JointState.h</text>
</a>
</g>
</g>
<!-- Node41&#45;&gt;Node42 -->
<g id="edge94" class="edge">
<title>Node41&#45;&gt;Node42</title>
<path fill="none" stroke="#191970" d="M1941.3384,-593.4178C2039.3652,-568.7102 2232.2025,-520.1057 2321.7337,-497.5395"/>
<polygon fill="#191970" stroke="#191970" points="2322.7722,-500.8872 2331.6135,-495.0493 2321.0613,-494.0995 2322.7722,-500.8872"/>
</g>
<!-- Node42&#45;&gt;Node3 -->
<g id="edge95" class="edge">
<title>Node42&#45;&gt;Node3</title>
<path fill="none" stroke="#191970" d="M2366.6648,-475.7773C2352.412,-426.9012 2288.51,-207.7654 2269.1055,-141.2228"/>
<polygon fill="#191970" stroke="#191970" points="2272.4544,-140.2042 2266.2948,-131.5839 2265.7343,-142.1639 2272.4544,-140.2042"/>
</g>
<!-- Node42&#45;&gt;Node26 -->
<g id="edge96" class="edge">
<title>Node42&#45;&gt;Node26</title>
<path fill="none" stroke="#191970" d="M2384.5439,-475.9005C2401.8534,-464.8554 2430.4977,-446.5776 2450.8089,-433.6172"/>
<polygon fill="#191970" stroke="#191970" points="2452.9367,-436.4113 2459.484,-428.0817 2449.1712,-430.5103 2452.9367,-436.4113"/>
</g>
<!-- Node42&#45;&gt;Node28 -->
<g id="edge98" class="edge">
<title>Node42&#45;&gt;Node28</title>
<path fill="none" stroke="#191970" d="M2323.4407,-475.9667C2311.1581,-473.7083 2297.864,-471.5178 2285.5,-470 2126.9392,-450.5356 1623.0914,-426.3417 1487.4227,-420.0516"/>
<polygon fill="#191970" stroke="#191970" points="1487.3756,-416.5458 1477.2247,-419.5804 1487.0525,-423.5383 1487.3756,-416.5458"/>
</g>
<!-- Node42&#45;&gt;Node38 -->
<g id="edge97" class="edge">
<title>Node42&#45;&gt;Node38</title>
<path fill="none" stroke="#191970" d="M2344.1402,-475.9005C2317.5177,-465.8231 2274.989,-449.7247 2241.7363,-437.1375"/>
<polygon fill="#191970" stroke="#191970" points="2242.7758,-433.7887 2232.1844,-433.5218 2240.2977,-440.3353 2242.7758,-433.7887"/>
</g>
<!-- Node43&#45;&gt;Node2 -->
<g id="edge102" class="edge">
<title>Node43&#45;&gt;Node2</title>
<path fill="none" stroke="#191970" d="M627.4727,-598.9631C567.7901,-589.7392 486.9176,-574.5984 459.5,-557 383.6216,-508.2964 425.5,-447.1642 425.5,-357 425.5,-357 425.5,-357 425.5,-183.5 425.5,-92.5966 1145.1492,-70.5145 1308.0067,-66.6811"/>
<polygon fill="#191970" stroke="#191970" points="1308.4178,-70.1727 1318.3353,-66.4452 1308.2579,-63.1746 1308.4178,-70.1727"/>
</g>
<!-- Node43&#45;&gt;Node11 -->
<g id="edge104" class="edge">
<title>Node43&#45;&gt;Node11</title>
<path fill="none" stroke="#191970" d="M620.9268,-604.3377C490.185,-595.3777 230.4692,-569.2368 175.5,-501 166.8567,-490.2706 173.7952,-483.6719 175.5,-470 188.2648,-367.6338 232.5,-348.159 232.5,-245 232.5,-245 232.5,-245 232.5,-122 232.5,-89.7116 232.5,-52.1872 232.5,-29.8048"/>
<polygon fill="#191970" stroke="#191970" points="236.0001,-29.5883 232.5,-19.5884 229.0001,-29.5884 236.0001,-29.5883"/>
</g>
<!-- Node43&#45;&gt;Node21 -->
<g id="edge101" class="edge">
<title>Node43&#45;&gt;Node21</title>
<path fill="none" stroke="#191970" d="M620.844,-600.801C557.8851,-589.9537 471.9415,-563.8401 429.5,-501 396.2529,-451.7733 490.6449,-404.9408 494.5,-403 551.3961,-374.3563 1568.6682,-265.4785 1631.5,-255 1734.3976,-237.8397 1853.5182,-210.8724 1918.9903,-195.4274"/>
<polygon fill="#191970" stroke="#191970" points="1920.1024,-198.7609 1929.0268,-193.0508 1918.4894,-191.9493 1920.1024,-198.7609"/>
</g>
<!-- Node43&#45;&gt;Node26 -->
<g id="edge105" class="edge">
<title>Node43&#45;&gt;Node26</title>
<path fill="none" stroke="#191970" d="M772.3331,-606.3077C956.0737,-600.7309 1439.6402,-584.4687 1842.5,-557 1910.6259,-552.3549 2402.8098,-545.6188 2454.5,-501 2472.3126,-485.6242 2475.686,-457.3364 2475.7023,-438.2237"/>
<polygon fill="#191970" stroke="#191970" points="2479.2,-438.0906 2475.4078,-428.1977 2472.2031,-438.2961 2479.2,-438.0906"/>
</g>
<!-- Node43&#45;&gt;Node28 -->
<g id="edge103" class="edge">
<title>Node43&#45;&gt;Node28</title>
<path fill="none" stroke="#191970" d="M772.0727,-603.7783C960.4053,-591.2453 1438.877,-554.406 1485.5,-501 1501.9098,-482.2028 1484.6156,-454.0482 1469.7795,-435.9766"/>
<polygon fill="#191970" stroke="#191970" points="1472.0519,-433.2554 1462.8522,-428.0003 1466.7668,-437.8454 1472.0519,-433.2554"/>
</g>
<!-- Node43&#45;&gt;Node29 -->
<g id="edge120" class="edge">
<title>Node43&#45;&gt;Node29</title>
<path fill="none" stroke="#191970" d="M691.794,-598.9158C687.1018,-588.7845 680.2141,-572.1982 677.5,-557 670.525,-517.9427 667.3392,-495.7769 697.5,-470 720.1662,-450.6284 896.0314,-433.3273 1001.4044,-424.562"/>
<polygon fill="#191970" stroke="#191970" points="1001.6954,-428.0499 1011.3742,-423.7406 1001.1206,-421.0736 1001.6954,-428.0499"/>
</g>
<!-- Node44 -->
<g id="node45" class="node">
<title>Node44</title>
<g id="a_node45"><a xlink:href="Model_8h.html" target="_top" xlink:title="iDynTree/Model/Model.h">
<polygon fill="none" stroke="#000000" points="686,-537.5 686,-556.5 819,-556.5 819,-537.5 686,-537.5"/>
<text text-anchor="middle" x="752.5" y="-544.5" font-family="FreeSans.ttf" font-size="10.00" fill="#000000">iDynTree/Model/Model.h</text>
</a>
</g>
</g>
<!-- Node43&#45;&gt;Node44 -->
<g id="edge106" class="edge">
<title>Node43&#45;&gt;Node44</title>
<path fill="none" stroke="#191970" d="M705.25,-598.8906C713.6662,-589.6478 726.5797,-575.466 736.781,-564.2628"/>
<polygon fill="#191970" stroke="#191970" points="739.4818,-566.4953 743.6266,-556.7449 734.306,-561.7824 739.4818,-566.4953"/>
</g>
<!-- Node44&#45;&gt;Node28 -->
<g id="edge119" class="edge">
<title>Node44&#45;&gt;Node28</title>
<path fill="none" stroke="#191970" d="M816.4787,-537.4741C870.5409,-529.0575 949.9048,-515.8387 1018.5,-501 1071.9184,-489.4444 1084.0262,-481.2968 1137.5,-470 1239.6399,-448.4221 1361.9906,-430.7864 1419.9236,-422.9224"/>
<polygon fill="#191970" stroke="#191970" points="1420.5287,-426.3726 1429.972,-421.5689 1419.5942,-419.4352 1420.5287,-426.3726"/>
</g>
<!-- Node44&#45;&gt;Node29 -->
<g id="edge112" class="edge">
<title>Node44&#45;&gt;Node29</title>
<path fill="none" stroke="#191970" d="M819.0005,-537.7695C877.1787,-528.989 956.7499,-515.0658 985.5,-501 1002.7134,-492.5784 1040.9557,-456.9484 1063.3164,-435.361"/>
<polygon fill="#191970" stroke="#191970" points="1066.0356,-437.599 1070.7676,-428.1196 1061.157,-432.579 1066.0356,-437.599"/>
</g>
<!-- Node44&#45;&gt;Node32 -->
<g id="edge111" class="edge">
<title>Node44&#45;&gt;Node32</title>
<path fill="none" stroke="#191970" d="M734.2167,-537.4509C721.3142,-529.5902 705.0359,-517.1269 697.5,-501 691.6672,-488.5178 688.8658,-480.7368 697.5,-470 734.0119,-424.5969 1113.2051,-381.9721 1284.4148,-364.8783"/>
<polygon fill="#191970" stroke="#191970" points="1284.7893,-368.3585 1294.3945,-363.8874 1284.0976,-361.3927 1284.7893,-368.3585"/>
</g>
<!-- Node45 -->
<g id="node46" class="node">
<title>Node45</title>
<g id="a_node46"><a xlink:href="IJoint_8h.html" target="_top" xlink:title="iDynTree/Model/IJoint.h">
<polygon fill="none" stroke="#000000" points="706.5,-476 706.5,-495 834.5,-495 834.5,-476 706.5,-476"/>
<text text-anchor="middle" x="770.5" y="-483" font-family="FreeSans.ttf" font-size="10.00" fill="#000000">iDynTree/Model/IJoint.h</text>
</a>
</g>
</g>
<!-- Node44&#45;&gt;Node45 -->
<g id="edge107" class="edge">
<title>Node44&#45;&gt;Node45</title>
<path fill="none" stroke="#191970" d="M755.3125,-537.3906C757.8339,-528.776 761.611,-515.8708 764.7676,-505.0858"/>
<polygon fill="#191970" stroke="#191970" points="768.1979,-505.8254 767.6478,-495.2449 761.4797,-503.8591 768.1979,-505.8254"/>
</g>
<!-- Node46 -->
<g id="node47" class="node">
<title>Node46</title>
<g id="a_node47"><a xlink:href="Link_8h.html" target="_top" xlink:title="iDynTree/Model/Link.h">
<polygon fill="none" stroke="#ff0000" points="852.5,-476 852.5,-495 976.5,-495 976.5,-476 852.5,-476"/>
<text text-anchor="middle" x="914.5" y="-483" font-family="FreeSans.ttf" font-size="10.00" fill="#000000">iDynTree/Model/Link.h</text>
</a>
</g>
</g>
<!-- Node44&#45;&gt;Node46 -->
<g id="edge109" class="edge">
<title>Node44&#45;&gt;Node46</title>
<path fill="none" stroke="#191970" d="M777.8125,-537.3906C805.2747,-526.9652 849.2895,-510.2559 879.9263,-498.6252"/>
<polygon fill="#191970" stroke="#191970" points="881.2585,-501.8633 889.3652,-495.0419 878.774,-495.319 881.2585,-501.8633"/>
</g>
<!-- Node51 -->
<g id="node48" class="node">
<title>Node51</title>
<g id="a_node48"><a xlink:href="SolidShapes_8h.html" target="_top" xlink:title="iDynTree/Model/SolidShapes.h">
<polygon fill="none" stroke="#000000" points="449,-476 449,-495 612,-495 612,-476 449,-476"/>
<text text-anchor="middle" x="530.5" y="-483" font-family="FreeSans.ttf" font-size="10.00" fill="#000000">iDynTree/Model/SolidShapes.h</text>
</a>
</g>
</g>
<!-- Node44&#45;&gt;Node51 -->
<g id="edge113" class="edge">
<title>Node44&#45;&gt;Node51</title>
<path fill="none" stroke="#191970" d="M717.8125,-537.3906C679.2016,-526.6944 616.714,-509.3836 574.6452,-497.7294"/>
<polygon fill="#191970" stroke="#191970" points="575.5154,-494.3387 564.9439,-495.0419 573.6465,-501.0847 575.5154,-494.3387"/>
</g>
<!-- Node52 -->
<g id="node49" class="node">
<title>Node52</title>
<polygon fill="none" stroke="#bfbfbf" points="503,-409 503,-428 552,-428 552,-409 503,-409"/>
<text text-anchor="middle" x="527.5" y="-416" font-family="FreeSans.ttf" font-size="10.00" fill="#000000">cstdlib</text>
</g>
<!-- Node44&#45;&gt;Node52 -->
<g id="edge118" class="edge">
<title>Node44&#45;&gt;Node52</title>
<path fill="none" stroke="#191970" d="M685.8576,-541.7692C599.0173,-534.266 456.3107,-519.3127 440.5,-501 417.9668,-474.901 461.0207,-448.0354 494.218,-432.3227"/>
<polygon fill="#191970" stroke="#191970" points="496.0399,-435.3388 503.6883,-428.007 493.1372,-428.969 496.0399,-435.3388"/>
</g>
<!-- Node45&#45;&gt;Node29 -->
<g id="edge108" class="edge">
<title>Node45&#45;&gt;Node29</title>
<path fill="none" stroke="#191970" d="M814.5862,-475.9717C870.2084,-463.9501 965.8475,-443.2797 1025.9959,-430.2799"/>
<polygon fill="#191970" stroke="#191970" points="1027.029,-433.6375 1036.064,-428.1039 1025.5502,-426.7955 1027.029,-433.6375"/>
</g>
<!-- Node46&#45;&gt;Node29 -->
<g id="edge110" class="edge">
<title>Node46&#45;&gt;Node29</title>
<path fill="none" stroke="#191970" d="M938.2838,-475.9005C966.8819,-464.3579 1015.0506,-444.9163 1047.3017,-431.8993"/>
<polygon fill="#191970" stroke="#191970" points="1048.7972,-435.0701 1056.7604,-428.0817 1046.1772,-428.5789 1048.7972,-435.0701"/>
</g>
<!-- Node51&#45;&gt;Node2 -->
<g id="edge115" class="edge">
<title>Node51&#45;&gt;Node2</title>
<path fill="none" stroke="#191970" d="M538.3221,-475.8534C554.1537,-455.3205 588.5,-405.2182 588.5,-357 588.5,-357 588.5,-357 588.5,-183.5 588.5,-109.5294 1163.8209,-75.0652 1308.0264,-67.5885"/>
<polygon fill="#191970" stroke="#191970" points="1308.5928,-71.0643 1318.4013,-67.0589 1308.2359,-64.0734 1308.5928,-71.0643"/>
</g>
<!-- Node51&#45;&gt;Node28 -->
<g id="edge116" class="edge">
<title>Node51&#45;&gt;Node28</title>
<path fill="none" stroke="#191970" d="M612.0083,-477.5313C639.187,-474.9819 669.6371,-472.2417 697.5,-470 976.4083,-447.5602 1313.7241,-426.8579 1419.8632,-420.4961"/>
<polygon fill="#191970" stroke="#191970" points="1420.1957,-423.9825 1429.969,-419.8919 1419.7779,-416.995 1420.1957,-423.9825"/>
</g>
<!-- Node51&#45;&gt;Node32 -->
<g id="edge117" class="edge">
<title>Node51&#45;&gt;Node32</title>
<path fill="none" stroke="#191970" d="M544.0493,-475.9773C572.6619,-456.0676 638.7267,-411.2 664.5,-403 783.332,-365.1928 1100.0785,-375.3496 1224.5,-367 1243.8479,-365.7016 1264.6656,-364.2672 1284.2658,-362.8999"/>
<polygon fill="#191970" stroke="#191970" points="1284.6588,-366.381 1294.3903,-362.192 1284.1705,-359.3981 1284.6588,-366.381"/>
</g>
<!-- Node51&#45;&gt;Node52 -->
<g id="edge114" class="edge">
<title>Node51&#45;&gt;Node52</title>
<path fill="none" stroke="#191970" d="M530.0702,-475.9005C529.6335,-466.149 528.9445,-450.7597 528.3897,-438.3695"/>
<polygon fill="#191970" stroke="#191970" points="531.8729,-437.9151 527.929,-428.0817 524.8799,-438.2282 531.8729,-437.9151"/>
</g>
<!-- Node53&#45;&gt;Node28 -->
<g id="edge122" class="edge">
<title>Node53&#45;&gt;Node28</title>
<path fill="none" stroke="#191970" d="M1278.9944,-470.4639C1321.9848,-457.6623 1382.5431,-439.6294 1419.8444,-428.5219"/>
<polygon fill="#191970" stroke="#191970" points="1421.1294,-431.7912 1429.7146,-425.5828 1419.1316,-425.0823 1421.1294,-431.7912"/>
</g>
<!-- Node53&#45;&gt;Node29 -->
<g id="edge123" class="edge">
<title>Node53&#45;&gt;Node29</title>
<path fill="none" stroke="#191970" d="M1195.2859,-470.4639C1170.006,-459.0196 1135.4908,-443.3945 1110.9261,-432.274"/>
<polygon fill="#191970" stroke="#191970" points="1112.2681,-429.0396 1101.7146,-428.1039 1109.3812,-435.4166 1112.2681,-429.0396"/>
</g>
</g>
</svg>
