<?xml version="1.0" encoding="UTF-8" standalone="no"?>
<!DOCTYPE svg PUBLIC "-//W3C//DTD SVG 1.1//EN"
 "http://www.w3.org/Graphics/SVG/1.1/DTD/svg11.dtd">
<!-- Generated by graphviz version 2.40.1 (20161225.0304)
 -->
<!-- Title: ClassicalAcc.cpp Pages: 1 -->
<svg width="1051pt" height="543pt"
 viewBox="0.00 0.00 1050.96 543.00" xmlns="http://www.w3.org/2000/svg" xmlns:xlink="http://www.w3.org/1999/xlink">
<g id="graph0" class="graph" transform="scale(1 1) rotate(0) translate(4 539)">
<title>ClassicalAcc.cpp</title>
<!-- Node0 -->
<g id="node1" class="node">
<title>Node0</title>
<polygon fill="#bfbfbf" stroke="#000000" points="602.9603,-515.5 602.9603,-534.5 700.9603,-534.5 700.9603,-515.5 602.9603,-515.5"/>
<text text-anchor="middle" x="651.9603" y="-522.5" font-family="FreeSans.ttf" font-size="10.00" fill="#000000">ClassicalAcc.cpp</text>
</g>
<!-- Node1 -->
<g id="node2" class="node">
<title>Node1</title>
<g id="a_node2"><a xlink:href="ClassicalAcc_8h.html" target="_top" xlink:title="iDynTree/Core/ClassicalAcc.h">
<polygon fill="none" stroke="#000000" points="713.9603,-398 713.9603,-417 871.9603,-417 871.9603,-398 713.9603,-398"/>
<text text-anchor="middle" x="792.9603" y="-405" font-family="FreeSans.ttf" font-size="10.00" fill="#000000">iDynTree/Core/ClassicalAcc.h</text>
</a>
</g>
</g>
<!-- Node0&#45;&gt;Node1 -->
<g id="edge1" class="edge">
<title>Node0&#45;&gt;Node1</title>
<path fill="none" stroke="#191970" d="M674.5542,-515.3787C692.1233,-507.2414 716.5274,-494.4526 734.9603,-479 753.4218,-463.5234 770.2491,-441.4869 780.9673,-425.9793"/>
<polygon fill="#191970" stroke="#191970" points="784.1379,-427.5363 786.8114,-417.2844 778.3282,-423.6315 784.1379,-427.5363"/>
</g>
<!-- Node18 -->
<g id="node19" class="node">
<title>Node18</title>
<g id="a_node19"><a xlink:href="SpatialAcc_8h.html" target="_top" xlink:title="iDynTree/Core/SpatialAcc.h">
<polygon fill="none" stroke="#000000" points="577.9603,-459.5 577.9603,-478.5 725.9603,-478.5 725.9603,-459.5 577.9603,-459.5"/>
<text text-anchor="middle" x="651.9603" y="-466.5" font-family="FreeSans.ttf" font-size="10.00" fill="#000000">iDynTree/Core/SpatialAcc.h</text>
</a>
</g>
</g>
<!-- Node0&#45;&gt;Node18 -->
<g id="edge20" class="edge">
<title>Node0&#45;&gt;Node18</title>
<path fill="none" stroke="#191970" d="M651.9603,-515.2455C651.9603,-507.9382 651.9603,-497.6944 651.9603,-488.7046"/>
<polygon fill="#191970" stroke="#191970" points="655.4604,-488.6426 651.9603,-478.6427 648.4604,-488.6427 655.4604,-488.6426"/>
</g>
<!-- Node25 -->
<g id="node26" class="node">
<title>Node25</title>
<g id="a_node26"><a xlink:href="RotationRaw_8h.html" target="_top" xlink:title="iDynTree/Core/RotationRaw.h">
<polygon fill="none" stroke="#000000" points="18.9603,-168.5 18.9603,-187.5 176.9603,-187.5 176.9603,-168.5 18.9603,-168.5"/>
<text text-anchor="middle" x="97.9603" y="-175.5" font-family="FreeSans.ttf" font-size="10.00" fill="#000000">iDynTree/Core/RotationRaw.h</text>
</a>
</g>
</g>
<!-- Node0&#45;&gt;Node25 -->
<g id="edge51" class="edge">
<title>Node0&#45;&gt;Node25</title>
<path fill="none" stroke="#191970" d="M602.7453,-523.3786C480.1546,-518.0083 170.9603,-495.719 170.9603,-407.5 170.9603,-407.5 170.9603,-407.5 170.9603,-290 170.9603,-250.8965 139.3432,-214.7535 117.7242,-194.6105"/>
<polygon fill="#191970" stroke="#191970" points="119.7976,-191.7688 110.0148,-187.7011 115.1257,-196.9817 119.7976,-191.7688"/>
</g>
<!-- Node28 -->
<g id="node29" class="node">
<title>Node28</title>
<g id="a_node29"><a xlink:href="Twist_8h.html" target="_top" xlink:title="iDynTree/Core/Twist.h">
<polygon fill="none" stroke="#000000" points="437.9603,-459.5 437.9603,-478.5 559.9603,-478.5 559.9603,-459.5 437.9603,-459.5"/>
<text text-anchor="middle" x="498.9603" y="-466.5" font-family="FreeSans.ttf" font-size="10.00" fill="#000000">iDynTree/Core/Twist.h</text>
</a>
</g>
</g>
<!-- Node0&#45;&gt;Node28 -->
<g id="edge49" class="edge">
<title>Node0&#45;&gt;Node28</title>
<path fill="none" stroke="#191970" d="M625.6587,-515.3733C600.5475,-506.1822 562.5165,-492.2624 534.6731,-482.0713"/>
<polygon fill="#191970" stroke="#191970" points="535.5125,-478.6516 524.9187,-478.5011 533.1065,-485.2251 535.5125,-478.6516"/>
</g>
<!-- Node29 -->
<g id="node30" class="node">
<title>Node29</title>
<polygon fill="none" stroke="#bfbfbf" points="782.4603,-459.5 782.4603,-478.5 859.4603,-478.5 859.4603,-459.5 782.4603,-459.5"/>
<text text-anchor="middle" x="820.9603" y="-466.5" font-family="FreeSans.ttf" font-size="10.00" fill="#000000">Eigen/Dense</text>
</g>
<!-- Node0&#45;&gt;Node29 -->
<g id="edge52" class="edge">
<title>Node0&#45;&gt;Node29</title>
<path fill="none" stroke="#191970" d="M681.0124,-515.3733C709.1146,-506.0613 751.8657,-491.8953 782.721,-481.671"/>
<polygon fill="#191970" stroke="#191970" points="783.8957,-484.969 792.2873,-478.5011 781.6939,-478.3243 783.8957,-484.969"/>
</g>
<!-- Node2 -->
<g id="node3" class="node">
<title>Node2</title>
<g id="a_node3"><a xlink:href="VectorFixSize_8h.html" target="_top" xlink:title="iDynTree/Core/VectorFixSize.h">
<polygon fill="none" stroke="#000000" points="556.4603,-112.5 556.4603,-131.5 717.4603,-131.5 717.4603,-112.5 556.4603,-112.5"/>
<text text-anchor="middle" x="636.9603" y="-119.5" font-family="FreeSans.ttf" font-size="10.00" fill="#000000">iDynTree/Core/VectorFixSize.h</text>
</a>
</g>
</g>
<!-- Node1&#45;&gt;Node2 -->
<g id="edge2" class="edge">
<title>Node1&#45;&gt;Node2</title>
<path fill="none" stroke="#191970" d="M793.7946,-397.7596C795.4432,-377.6426 798.9603,-330.0347 798.9603,-290 798.9603,-290 798.9603,-290 798.9603,-234 798.9603,-179.4141 735.9599,-149.3532 688.5347,-134.4571"/>
<polygon fill="#191970" stroke="#191970" points="689.2631,-131.0217 678.6793,-131.5052 687.2546,-137.7274 689.2631,-131.0217"/>
</g>
<!-- Node3 -->
<g id="node4" class="node">
<title>Node3</title>
<g id="a_node4"><a xlink:href="Utils_8h.html" target="_top" xlink:title="iDynTree/Core/Utils.h">
<polygon fill="none" stroke="#000000" points="715.4603,-56.5 715.4603,-75.5 834.4603,-75.5 834.4603,-56.5 715.4603,-56.5"/>
<text text-anchor="middle" x="774.9603" y="-63.5" font-family="FreeSans.ttf" font-size="10.00" fill="#000000">iDynTree/Core/Utils.h</text>
</a>
</g>
</g>
<!-- Node2&#45;&gt;Node3 -->
<g id="edge3" class="edge">
<title>Node2&#45;&gt;Node3</title>
<path fill="none" stroke="#191970" d="M660.6833,-112.3733C683.134,-103.2629 717.0342,-89.5062 742.0858,-79.3404"/>
<polygon fill="#191970" stroke="#191970" points="743.5968,-82.5045 751.5468,-75.5011 740.9646,-76.0182 743.5968,-82.5045"/>
</g>
<!-- Node6 -->
<g id="node7" class="node">
<title>Node6</title>
<g id="a_node7"><a xlink:href="Span_8h.html" target="_top" xlink:title="iDynTree/Core/Span.h">
<polygon fill="none" stroke="#000000" points="576.4603,-56.5 576.4603,-75.5 697.4603,-75.5 697.4603,-56.5 576.4603,-56.5"/>
<text text-anchor="middle" x="636.9603" y="-63.5" font-family="FreeSans.ttf" font-size="10.00" fill="#000000">iDynTree/Core/Span.h</text>
</a>
</g>
</g>
<!-- Node2&#45;&gt;Node6 -->
<g id="edge6" class="edge">
<title>Node2&#45;&gt;Node6</title>
<path fill="none" stroke="#191970" d="M636.9603,-112.2455C636.9603,-104.9382 636.9603,-94.6944 636.9603,-85.7046"/>
<polygon fill="#191970" stroke="#191970" points="640.4604,-85.6426 636.9603,-75.6427 633.4604,-85.6427 640.4604,-85.6426"/>
</g>
<!-- Node7 -->
<g id="node8" class="node">
<title>Node7</title>
<polygon fill="none" stroke="#bfbfbf" points="311.9603,-.5 311.9603,-19.5 363.9603,-19.5 363.9603,-.5 311.9603,-.5"/>
<text text-anchor="middle" x="337.9603" y="-7.5" font-family="FreeSans.ttf" font-size="10.00" fill="#000000">cassert</text>
</g>
<!-- Node2&#45;&gt;Node7 -->
<g id="edge18" class="edge">
<title>Node2&#45;&gt;Node7</title>
<path fill="none" stroke="#191970" d="M622.59,-112.4171C597.8895,-96.0829 548.1847,-63.8501 528.9603,-56 466.0444,-30.309 443.8558,-37.0719 374.4151,-20.2213"/>
<polygon fill="#191970" stroke="#191970" points="374.8451,-16.7207 364.2939,-17.681 373.1411,-23.5102 374.8451,-16.7207"/>
</g>
<!-- Node15 -->
<g id="node16" class="node">
<title>Node15</title>
<polygon fill="none" stroke="#bfbfbf" points="214.9603,-56.5 214.9603,-75.5 258.9603,-75.5 258.9603,-56.5 214.9603,-56.5"/>
<text text-anchor="middle" x="236.9603" y="-63.5" font-family="FreeSans.ttf" font-size="10.00" fill="#000000">string</text>
</g>
<!-- Node2&#45;&gt;Node15 -->
<g id="edge16" class="edge">
<title>Node2&#45;&gt;Node15</title>
<path fill="none" stroke="#191970" d="M556.3812,-115.6298C481.8103,-108.8492 368.1353,-96.2594 270.9603,-76 270.358,-75.8744 269.7508,-75.7434 269.1401,-75.6075"/>
<polygon fill="#191970" stroke="#191970" points="269.6954,-72.1379 259.1427,-73.0813 267.9804,-78.9246 269.6954,-72.1379"/>
</g>
<!-- Node16 -->
<g id="node17" class="node">
<title>Node16</title>
<polygon fill="none" stroke="#bfbfbf" points="463.9603,-56.5 463.9603,-75.5 519.9603,-75.5 519.9603,-56.5 463.9603,-56.5"/>
<text text-anchor="middle" x="491.9603" y="-63.5" font-family="FreeSans.ttf" font-size="10.00" fill="#000000">sstream</text>
</g>
<!-- Node2&#45;&gt;Node16 -->
<g id="edge17" class="edge">
<title>Node2&#45;&gt;Node16</title>
<path fill="none" stroke="#191970" d="M612.0339,-112.3733C588.3401,-103.2226 552.5092,-89.3844 526.1535,-79.2057"/>
<polygon fill="#191970" stroke="#191970" points="527.1509,-75.8389 516.5614,-75.5011 524.6289,-82.3689 527.1509,-75.8389"/>
</g>
<!-- Node17 -->
<g id="node18" class="node">
<title>Node17</title>
<polygon fill="none" stroke="#bfbfbf" points="395.9603,-56.5 395.9603,-75.5 445.9603,-75.5 445.9603,-56.5 395.9603,-56.5"/>
<text text-anchor="middle" x="420.9603" y="-63.5" font-family="FreeSans.ttf" font-size="10.00" fill="#000000">cstring</text>
</g>
<!-- Node2&#45;&gt;Node17 -->
<g id="edge19" class="edge">
<title>Node2&#45;&gt;Node17</title>
<path fill="none" stroke="#191970" d="M597.4377,-112.4758C562.5866,-103.9736 510.1999,-90.9427 455.966,-76.2071"/>
<polygon fill="#191970" stroke="#191970" points="456.7494,-72.7929 446.1806,-73.535 454.9054,-79.5457 456.7494,-72.7929"/>
</g>
<!-- Node4 -->
<g id="node5" class="node">
<title>Node4</title>
<polygon fill="none" stroke="#bfbfbf" points="891.4603,-.5 891.4603,-19.5 944.4603,-19.5 944.4603,-.5 891.4603,-.5"/>
<text text-anchor="middle" x="917.9603" y="-7.5" font-family="FreeSans.ttf" font-size="10.00" fill="#000000">cstddef</text>
</g>
<!-- Node3&#45;&gt;Node4 -->
<g id="edge4" class="edge">
<title>Node3&#45;&gt;Node4</title>
<path fill="none" stroke="#191970" d="M799.5429,-56.3733C822.9098,-47.2226 858.2465,-33.3844 884.2387,-23.2057"/>
<polygon fill="#191970" stroke="#191970" points="885.6633,-26.4066 893.6985,-19.5011 883.1108,-19.8886 885.6633,-26.4066"/>
</g>
<!-- Node5 -->
<g id="node6" class="node">
<title>Node5</title>
<polygon fill="none" stroke="#bfbfbf" points="962.9603,-.5 962.9603,-19.5 1042.9603,-19.5 1042.9603,-.5 962.9603,-.5"/>
<text text-anchor="middle" x="1002.9603" y="-7.5" font-family="FreeSans.ttf" font-size="10.00" fill="#000000">CoreExport.h</text>
</g>
<!-- Node3&#45;&gt;Node5 -->
<g id="edge5" class="edge">
<title>Node3&#45;&gt;Node5</title>
<path fill="none" stroke="#191970" d="M813.8958,-56.4369C852.7523,-46.8932 912.5533,-32.2052 954.4692,-21.9101"/>
<polygon fill="#191970" stroke="#191970" points="955.3088,-25.308 964.1854,-19.5237 953.6391,-18.51 955.3088,-25.308"/>
</g>
<!-- Node6&#45;&gt;Node4 -->
<g id="edge10" class="edge">
<title>Node6&#45;&gt;Node4</title>
<path fill="none" stroke="#191970" d="M696.4364,-56.4809C744.1176,-48.4851 812.9201,-36.1337 881.206,-20.2685"/>
<polygon fill="#191970" stroke="#191970" points="882.3406,-23.5973 891.2747,-17.9023 880.7392,-16.7829 882.3406,-23.5973"/>
</g>
<!-- Node6&#45;&gt;Node7 -->
<g id="edge7" class="edge">
<title>Node6&#45;&gt;Node7</title>
<path fill="none" stroke="#191970" d="M576.3069,-57.2987C524.8709,-49.496 448.9786,-36.9897 374.3047,-20.1326"/>
<polygon fill="#191970" stroke="#191970" points="374.7847,-16.6522 364.2562,-17.8358 373.2249,-23.4762 374.7847,-16.6522"/>
</g>
<!-- Node8 -->
<g id="node9" class="node">
<title>Node8</title>
<polygon fill="none" stroke="#bfbfbf" points="677.9603,-.5 677.9603,-19.5 741.9603,-19.5 741.9603,-.5 677.9603,-.5"/>
<text text-anchor="middle" x="709.9603" y="-7.5" font-family="FreeSans.ttf" font-size="10.00" fill="#000000">algorithm</text>
</g>
<!-- Node6&#45;&gt;Node8 -->
<g id="edge8" class="edge">
<title>Node6&#45;&gt;Node8</title>
<path fill="none" stroke="#191970" d="M649.6759,-56.2455C660.5623,-47.8943 676.4486,-35.7076 689.1803,-25.9408"/>
<polygon fill="#191970" stroke="#191970" points="691.5864,-28.5063 697.3904,-19.6427 687.3257,-22.9523 691.5864,-28.5063"/>
</g>
<!-- Node9 -->
<g id="node10" class="node">
<title>Node9</title>
<polygon fill="none" stroke="#bfbfbf" points="759.9603,-.5 759.9603,-19.5 801.9603,-19.5 801.9603,-.5 759.9603,-.5"/>
<text text-anchor="middle" x="780.9603" y="-7.5" font-family="FreeSans.ttf" font-size="10.00" fill="#000000">array</text>
</g>
<!-- Node6&#45;&gt;Node9 -->
<g id="edge9" class="edge">
<title>Node6&#45;&gt;Node9</title>
<path fill="none" stroke="#191970" d="M661.7148,-56.3733C686.2434,-46.8343 723.8699,-32.2018 750.2817,-21.9306"/>
<polygon fill="#191970" stroke="#191970" points="751.753,-25.1138 759.8045,-18.2273 749.2158,-18.5898 751.753,-25.1138"/>
</g>
<!-- Node10 -->
<g id="node11" class="node">
<title>Node10</title>
<polygon fill="none" stroke="#bfbfbf" points="820.4603,-.5 820.4603,-19.5 873.4603,-19.5 873.4603,-.5 820.4603,-.5"/>
<text text-anchor="middle" x="846.9603" y="-7.5" font-family="FreeSans.ttf" font-size="10.00" fill="#000000">iterator</text>
</g>
<!-- Node6&#45;&gt;Node10 -->
<g id="edge11" class="edge">
<title>Node6&#45;&gt;Node10</title>
<path fill="none" stroke="#191970" d="M673.657,-56.4408C706.8311,-47.7675 757.2672,-34.5031 810.3043,-20.1548"/>
<polygon fill="#191970" stroke="#191970" points="811.4978,-23.4577 820.2342,-17.4639 809.6668,-16.7014 811.4978,-23.4577"/>
</g>
<!-- Node11 -->
<g id="node12" class="node">
<title>Node11</title>
<polygon fill="none" stroke="#bfbfbf" points="381.9603,-.5 381.9603,-19.5 425.9603,-19.5 425.9603,-.5 381.9603,-.5"/>
<text text-anchor="middle" x="403.9603" y="-7.5" font-family="FreeSans.ttf" font-size="10.00" fill="#000000">limits</text>
</g>
<!-- Node6&#45;&gt;Node11 -->
<g id="edge12" class="edge">
<title>Node6&#45;&gt;Node11</title>
<path fill="none" stroke="#191970" d="M590.4026,-56.4212C549.5002,-47.7504 488.489,-34.1952 435.9603,-20 435.862,-19.9734 435.7635,-19.9468 435.6649,-19.92"/>
<polygon fill="#191970" stroke="#191970" points="436.8529,-16.6199 426.2749,-17.2168 434.9163,-23.3467 436.8529,-16.6199"/>
</g>
<!-- Node12 -->
<g id="node13" class="node">
<title>Node12</title>
<polygon fill="none" stroke="#bfbfbf" points="444.4603,-.5 444.4603,-19.5 509.4603,-19.5 509.4603,-.5 444.4603,-.5"/>
<text text-anchor="middle" x="476.9603" y="-7.5" font-family="FreeSans.ttf" font-size="10.00" fill="#000000">stdexcept</text>
</g>
<!-- Node6&#45;&gt;Node12 -->
<g id="edge13" class="edge">
<title>Node6&#45;&gt;Node12</title>
<path fill="none" stroke="#191970" d="M609.4553,-56.3733C583.0801,-47.1419 543.0752,-33.1402 513.9245,-22.9375"/>
<polygon fill="#191970" stroke="#191970" points="514.7012,-19.5012 504.1064,-19.5011 512.3887,-26.1082 514.7012,-19.5012"/>
</g>
<!-- Node13 -->
<g id="node14" class="node">
<title>Node13</title>
<polygon fill="none" stroke="#bfbfbf" points="527.4603,-.5 527.4603,-19.5 596.4603,-19.5 596.4603,-.5 527.4603,-.5"/>
<text text-anchor="middle" x="561.9603" y="-7.5" font-family="FreeSans.ttf" font-size="10.00" fill="#000000">type_traits</text>
</g>
<!-- Node6&#45;&gt;Node13 -->
<g id="edge14" class="edge">
<title>Node6&#45;&gt;Node13</title>
<path fill="none" stroke="#191970" d="M623.8963,-56.2455C612.6041,-47.814 596.0758,-35.4729 582.9332,-25.6598"/>
<polygon fill="#191970" stroke="#191970" points="584.9814,-22.8211 574.8746,-19.6427 580.7934,-28.4301 584.9814,-22.8211"/>
</g>
<!-- Node14 -->
<g id="node15" class="node">
<title>Node14</title>
<polygon fill="none" stroke="#bfbfbf" points="614.4603,-.5 614.4603,-19.5 659.4603,-19.5 659.4603,-.5 614.4603,-.5"/>
<text text-anchor="middle" x="636.9603" y="-7.5" font-family="FreeSans.ttf" font-size="10.00" fill="#000000">utility</text>
</g>
<!-- Node6&#45;&gt;Node14 -->
<g id="edge15" class="edge">
<title>Node6&#45;&gt;Node14</title>
<path fill="none" stroke="#191970" d="M636.9603,-56.2455C636.9603,-48.9382 636.9603,-38.6944 636.9603,-29.7046"/>
<polygon fill="#191970" stroke="#191970" points="640.4604,-29.6426 636.9603,-19.6427 633.4604,-29.6427 640.4604,-29.6426"/>
</g>
<!-- Node19 -->
<g id="node20" class="node">
<title>Node19</title>
<g id="a_node20"><a xlink:href="SpatialMotionVector_8h.html" target="_top" xlink:title="iDynTree/Core/SpatialMotion\lVector.h">
<polygon fill="none" stroke="#000000" points="535.4603,-392.5 535.4603,-422.5 690.4603,-422.5 690.4603,-392.5 535.4603,-392.5"/>
<text text-anchor="start" x="543.4603" y="-410.5" font-family="FreeSans.ttf" font-size="10.00" fill="#000000">iDynTree/Core/SpatialMotion</text>
<text text-anchor="middle" x="612.9603" y="-399.5" font-family="FreeSans.ttf" font-size="10.00" fill="#000000">Vector.h</text>
</a>
</g>
</g>
<!-- Node18&#45;&gt;Node19 -->
<g id="edge21" class="edge">
<title>Node18&#45;&gt;Node19</title>
<path fill="none" stroke="#191970" d="M645.8665,-459.3906C641.0771,-451.838 634.1963,-440.9876 627.9638,-431.1593"/>
<polygon fill="#191970" stroke="#191970" points="630.812,-429.1153 622.5008,-422.5446 624.9005,-432.8641 630.812,-429.1153"/>
</g>
<!-- Node19&#45;&gt;Node2 -->
<g id="edge22" class="edge">
<title>Node19&#45;&gt;Node2</title>
<path fill="none" stroke="#191970" d="M642.4383,-392.3745C675.0216,-373.3051 722.9603,-337.2244 722.9603,-290 722.9603,-290 722.9603,-290 722.9603,-234 722.9603,-203.4754 721.8133,-192.7593 703.9603,-168 694.4392,-154.7957 679.8914,-144.15 666.7816,-136.4387"/>
<polygon fill="#191970" stroke="#191970" points="668.457,-133.3657 658.0148,-131.5735 665.0603,-139.4863 668.457,-133.3657"/>
</g>
<!-- Node20 -->
<g id="node21" class="node">
<title>Node20</title>
<g id="a_node21"><a xlink:href="GeomVector3_8h.html" target="_top" xlink:title="iDynTree/Core/GeomVector3.h">
<polygon fill="none" stroke="#000000" points="531.4603,-168.5 531.4603,-187.5 694.4603,-187.5 694.4603,-168.5 531.4603,-168.5"/>
<text text-anchor="middle" x="612.9603" y="-175.5" font-family="FreeSans.ttf" font-size="10.00" fill="#000000">iDynTree/Core/GeomVector3.h</text>
</a>
</g>
</g>
<!-- Node19&#45;&gt;Node20 -->
<g id="edge23" class="edge">
<title>Node19&#45;&gt;Node20</title>
<path fill="none" stroke="#191970" d="M612.9603,-392.4419C612.9603,-352.3599 612.9603,-243.0534 612.9603,-197.9113"/>
<polygon fill="#191970" stroke="#191970" points="616.4604,-197.8981 612.9603,-187.8981 609.4604,-197.8982 616.4604,-197.8981"/>
</g>
<!-- Node21 -->
<g id="node22" class="node">
<title>Node21</title>
<g id="a_node22"><a xlink:href="SpatialVector_8h.html" target="_top" xlink:title="iDynTree/Core/SpatialVector.h">
<polygon fill="none" stroke="#000000" points="422.4603,-336.5 422.4603,-355.5 583.4603,-355.5 583.4603,-336.5 422.4603,-336.5"/>
<text text-anchor="middle" x="502.9603" y="-343.5" font-family="FreeSans.ttf" font-size="10.00" fill="#000000">iDynTree/Core/SpatialVector.h</text>
</a>
</g>
</g>
<!-- Node19&#45;&gt;Node21 -->
<g id="edge25" class="edge">
<title>Node19&#45;&gt;Node21</title>
<path fill="none" stroke="#191970" d="M586.0513,-392.4554C568.6635,-382.734 546.1554,-370.15 528.9519,-360.5317"/>
<polygon fill="#191970" stroke="#191970" points="530.4429,-357.3554 520.0064,-355.5303 527.0268,-363.4653 530.4429,-357.3554"/>
</g>
<!-- Node20&#45;&gt;Node2 -->
<g id="edge24" class="edge">
<title>Node20&#45;&gt;Node2</title>
<path fill="none" stroke="#191970" d="M617.1408,-168.2455C620.3413,-160.7776 624.8563,-150.2427 628.7687,-141.1137"/>
<polygon fill="#191970" stroke="#191970" points="632.1055,-142.2129 632.8277,-131.6427 625.6715,-139.4554 632.1055,-142.2129"/>
</g>
<!-- Node21&#45;&gt;Node3 -->
<g id="edge45" class="edge">
<title>Node21&#45;&gt;Node3</title>
<path fill="none" stroke="#191970" d="M518.9707,-336.41C555.3426,-314.0345 645.5579,-255.1508 703.9603,-188 732.2296,-155.496 755.1521,-110.1087 766.7421,-84.8556"/>
<polygon fill="#191970" stroke="#191970" points="769.9718,-86.2072 770.8716,-75.6506 763.585,-83.3419 769.9718,-86.2072"/>
</g>
<!-- Node21&#45;&gt;Node16 -->
<g id="edge48" class="edge">
<title>Node21&#45;&gt;Node16</title>
<path fill="none" stroke="#191970" d="M504.6283,-336.0841C509.792,-303.6071 524.2729,-197.6074 508.9603,-112 507.316,-102.8071 503.9598,-93.047 500.6606,-84.8935"/>
<polygon fill="#191970" stroke="#191970" points="503.8209,-83.3833 496.6452,-75.5885 497.3938,-86.1569 503.8209,-83.3833"/>
</g>
<!-- Node21&#45;&gt;Node20 -->
<g id="edge46" class="edge">
<title>Node21&#45;&gt;Node20</title>
<path fill="none" stroke="#191970" d="M509.1895,-336.4862C526.8791,-309.4695 577.6421,-231.9405 600.9715,-196.3102"/>
<polygon fill="#191970" stroke="#191970" points="603.9756,-198.1114 606.5254,-187.8279 598.1193,-194.2768 603.9756,-198.1114"/>
</g>
<!-- Node22 -->
<g id="node23" class="node">
<title>Node22</title>
<g id="a_node23"><a xlink:href="Position_8h.html" target="_top" xlink:title="Position.h">
<polygon fill="none" stroke="#000000" points="279.4603,-280.5 279.4603,-299.5 344.4603,-299.5 344.4603,-280.5 279.4603,-280.5"/>
<text text-anchor="middle" x="311.9603" y="-287.5" font-family="FreeSans.ttf" font-size="10.00" fill="#000000">Position.h</text>
</a>
</g>
</g>
<!-- Node21&#45;&gt;Node22 -->
<g id="edge26" class="edge">
<title>Node21&#45;&gt;Node22</title>
<path fill="none" stroke="#191970" d="M470.1262,-336.3733C438.0908,-326.9807 389.2116,-312.6496 354.2748,-302.4064"/>
<polygon fill="#191970" stroke="#191970" points="354.9467,-298.9561 344.3659,-299.5011 352.9772,-305.6733 354.9467,-298.9561"/>
</g>
<!-- Node24 -->
<g id="node25" class="node">
<title>Node24</title>
<g id="a_node25"><a xlink:href="Rotation_8h.html" target="_top" xlink:title="iDynTree/Core/Rotation.h">
<polygon fill="none" stroke="#000000" points="299.4603,-224.5 299.4603,-243.5 436.4603,-243.5 436.4603,-224.5 299.4603,-224.5"/>
<text text-anchor="middle" x="367.9603" y="-231.5" font-family="FreeSans.ttf" font-size="10.00" fill="#000000">iDynTree/Core/Rotation.h</text>
</a>
</g>
</g>
<!-- Node21&#45;&gt;Node24 -->
<g id="edge44" class="edge">
<title>Node21&#45;&gt;Node24</title>
<path fill="none" stroke="#191970" d="M491.4503,-336.4509C468.3361,-317.2747 416.0495,-273.8962 387.4857,-250.1988"/>
<polygon fill="#191970" stroke="#191970" points="389.3722,-247.2162 379.4412,-243.5249 384.9027,-252.6036 389.3722,-247.2162"/>
</g>
<!-- Node27 -->
<g id="node28" class="node">
<title>Node27</title>
<polygon fill="none" stroke="#bfbfbf" points="279.9603,-56.5 279.9603,-75.5 339.9603,-75.5 339.9603,-56.5 279.9603,-56.5"/>
<text text-anchor="middle" x="309.9603" y="-63.5" font-family="FreeSans.ttf" font-size="10.00" fill="#000000">iostream</text>
</g>
<!-- Node21&#45;&gt;Node27 -->
<g id="edge47" class="edge">
<title>Node21&#45;&gt;Node27</title>
<path fill="none" stroke="#191970" d="M500.1025,-336.3303C493.3415,-314.5846 474.7401,-260.8497 445.9603,-224 421.6498,-192.8728 407.974,-192.455 376.9603,-168 356.2985,-151.7077 344.9409,-153.6316 329.9603,-132 320.3862,-118.1753 315.2974,-99.6535 312.6542,-85.7501"/>
<polygon fill="#191970" stroke="#191970" points="316.0897,-85.071 311.0197,-75.768 309.1817,-86.2022 316.0897,-85.071"/>
</g>
<!-- Node22&#45;&gt;Node15 -->
<g id="edge43" class="edge">
<title>Node22&#45;&gt;Node15</title>
<path fill="none" stroke="#191970" d="M279.2942,-283.8941C207.9889,-269.8328 42.1889,-232.9023 9.9603,-188 -42.8788,-114.3821 129.9813,-80.887 204.4831,-70.1078"/>
<polygon fill="#191970" stroke="#191970" points="205.302,-73.5275 214.7229,-68.6801 204.3353,-66.5946 205.302,-73.5275"/>
</g>
<!-- Node23 -->
<g id="node24" class="node">
<title>Node23</title>
<g id="a_node24"><a xlink:href="PositionRaw_8h.html" target="_top" xlink:title="iDynTree/Core/PositionRaw.h">
<polygon fill="none" stroke="#000000" points="194.9603,-168.5 194.9603,-187.5 350.9603,-187.5 350.9603,-168.5 194.9603,-168.5"/>
<text text-anchor="middle" x="272.9603" y="-175.5" font-family="FreeSans.ttf" font-size="10.00" fill="#000000">iDynTree/Core/PositionRaw.h</text>
</a>
</g>
</g>
<!-- Node22&#45;&gt;Node23 -->
<g id="edge27" class="edge">
<title>Node22&#45;&gt;Node23</title>
<path fill="none" stroke="#191970" d="M306.9842,-280.3214C302.3996,-271.1422 295.6211,-256.8777 290.9603,-244 285.4026,-228.6441 280.6224,-210.7437 277.3877,-197.4621"/>
<polygon fill="#191970" stroke="#191970" points="280.7521,-196.4794 275.051,-187.5492 273.9388,-198.0855 280.7521,-196.4794"/>
</g>
<!-- Node22&#45;&gt;Node24 -->
<g id="edge30" class="edge">
<title>Node22&#45;&gt;Node24</title>
<path fill="none" stroke="#191970" d="M321.7148,-280.2455C329.8251,-272.1352 341.5528,-260.4075 351.1684,-250.7919"/>
<polygon fill="#191970" stroke="#191970" points="353.7214,-253.1887 358.3176,-243.6427 348.7716,-248.2389 353.7214,-253.1887"/>
</g>
<!-- Node23&#45;&gt;Node2 -->
<g id="edge28" class="edge">
<title>Node23&#45;&gt;Node2</title>
<path fill="none" stroke="#191970" d="M335.1205,-168.4369C398.8559,-158.6314 497.8883,-143.3957 564.9849,-133.0731"/>
<polygon fill="#191970" stroke="#191970" points="565.7049,-136.5036 575.0564,-131.5237 564.6405,-129.585 565.7049,-136.5036"/>
</g>
<!-- Node23&#45;&gt;Node15 -->
<g id="edge29" class="edge">
<title>Node23&#45;&gt;Node15</title>
<path fill="none" stroke="#191970" d="M269.8378,-168.4917C266.7897,-159.1943 262.0297,-144.6327 257.9603,-132 252.9485,-116.4417 247.338,-98.7966 243.1777,-85.6679"/>
<polygon fill="#191970" stroke="#191970" points="246.4238,-84.3247 240.0692,-75.847 239.7501,-86.4371 246.4238,-84.3247"/>
</g>
<!-- Node24&#45;&gt;Node2 -->
<g id="edge42" class="edge">
<title>Node24&#45;&gt;Node2</title>
<path fill="none" stroke="#191970" d="M389.9791,-224.4683C419.9793,-211.5173 475.4095,-187.7152 522.9603,-168 549.9226,-156.8211 580.6122,-144.458 603.3518,-135.3665"/>
<polygon fill="#191970" stroke="#191970" points="604.8974,-138.5181 612.8868,-131.5597 602.3018,-132.0171 604.8974,-138.5181"/>
</g>
<!-- Node24&#45;&gt;Node15 -->
<g id="edge31" class="edge">
<title>Node24&#45;&gt;Node15</title>
<path fill="none" stroke="#191970" d="M369.366,-224.1086C370.7884,-210.3148 371.3825,-185.0773 359.9603,-168 341.8162,-140.8729 321.4011,-152.4414 295.9603,-132 278.2996,-117.8099 261.4156,-98.0788 250.2693,-83.8926"/>
<polygon fill="#191970" stroke="#191970" points="252.9805,-81.6765 244.1149,-75.8753 247.4278,-85.9389 252.9805,-81.6765"/>
</g>
<!-- Node24&#45;&gt;Node20 -->
<g id="edge32" class="edge">
<title>Node24&#45;&gt;Node20</title>
<path fill="none" stroke="#191970" d="M409.7989,-224.4369C451.7288,-214.8529 516.3551,-200.0812 561.4227,-189.78"/>
<polygon fill="#191970" stroke="#191970" points="562.3256,-193.164 571.2942,-187.5237 560.7657,-186.34 562.3256,-193.164"/>
</g>
<!-- Node24&#45;&gt;Node25 -->
<g id="edge33" class="edge">
<title>Node24&#45;&gt;Node25</title>
<path fill="none" stroke="#191970" d="M321.8524,-224.4369C275.3528,-214.7925 203.5244,-199.8948 153.8203,-189.5858"/>
<polygon fill="#191970" stroke="#191970" points="154.3804,-186.1275 143.878,-187.5237 152.9588,-192.9817 154.3804,-186.1275"/>
</g>
<!-- Node25&#45;&gt;Node15 -->
<g id="edge41" class="edge">
<title>Node25&#45;&gt;Node15</title>
<path fill="none" stroke="#191970" d="M109.8114,-168.4509C133.713,-149.1921 187.9109,-105.5218 217.2353,-81.8935"/>
<polygon fill="#191970" stroke="#191970" points="219.5484,-84.5245 225.1392,-75.5249 215.1564,-79.0738 219.5484,-84.5245"/>
</g>
<!-- Node26 -->
<g id="node27" class="node">
<title>Node26</title>
<g id="a_node27"><a xlink:href="MatrixFixSize_8h.html" target="_top" xlink:title="iDynTree/Core/MatrixFixSize.h">
<polygon fill="none" stroke="#000000" points="338.4603,-112.5 338.4603,-131.5 499.4603,-131.5 499.4603,-112.5 338.4603,-112.5"/>
<text text-anchor="middle" x="418.9603" y="-119.5" font-family="FreeSans.ttf" font-size="10.00" fill="#000000">iDynTree/Core/MatrixFixSize.h</text>
</a>
</g>
</g>
<!-- Node25&#45;&gt;Node26 -->
<g id="edge34" class="edge">
<title>Node25&#45;&gt;Node26</title>
<path fill="none" stroke="#191970" d="M152.7774,-168.4369C208.6374,-158.6918 295.2424,-143.5832 354.3908,-133.2645"/>
<polygon fill="#191970" stroke="#191970" points="355.1196,-136.6903 364.3693,-131.5237 353.9165,-129.7944 355.1196,-136.6903"/>
</g>
<!-- Node26&#45;&gt;Node3 -->
<g id="edge35" class="edge">
<title>Node26&#45;&gt;Node3</title>
<path fill="none" stroke="#191970" d="M479.7544,-112.4369C542.2438,-102.6071 639.426,-87.32 705.0549,-76.9963"/>
<polygon fill="#191970" stroke="#191970" points="705.9723,-80.3952 715.3069,-75.3837 704.8845,-73.4802 705.9723,-80.3952"/>
</g>
<!-- Node26&#45;&gt;Node7 -->
<g id="edge36" class="edge">
<title>Node26&#45;&gt;Node7</title>
<path fill="none" stroke="#191970" d="M412.0543,-112.4509C398.4847,-93.688 368.1579,-51.7548 350.8031,-27.758"/>
<polygon fill="#191970" stroke="#191970" points="353.5451,-25.5768 344.8488,-19.5249 347.873,-29.679 353.5451,-25.5768"/>
</g>
<!-- Node26&#45;&gt;Node15 -->
<g id="edge38" class="edge">
<title>Node26&#45;&gt;Node15</title>
<path fill="none" stroke="#191970" d="M387.6734,-112.3733C354.4233,-102.1425 302.1304,-86.0523 268.7062,-75.768"/>
<polygon fill="#191970" stroke="#191970" points="269.5681,-72.3713 258.981,-72.7756 267.5095,-79.0618 269.5681,-72.3713"/>
</g>
<!-- Node26&#45;&gt;Node16 -->
<g id="edge40" class="edge">
<title>Node26&#45;&gt;Node16</title>
<path fill="none" stroke="#191970" d="M431.6759,-112.2455C442.5623,-103.8943 458.4486,-91.7076 471.1803,-81.9408"/>
<polygon fill="#191970" stroke="#191970" points="473.5864,-84.5063 479.3904,-75.6427 469.3257,-78.9523 473.5864,-84.5063"/>
</g>
<!-- Node26&#45;&gt;Node17 -->
<g id="edge37" class="edge">
<title>Node26&#45;&gt;Node17</title>
<path fill="none" stroke="#191970" d="M419.3087,-112.2455C419.5696,-104.9382 419.9355,-94.6944 420.2566,-85.7046"/>
<polygon fill="#191970" stroke="#191970" points="423.7567,-85.7613 420.6159,-75.6427 416.7611,-85.5113 423.7567,-85.7613"/>
</g>
<!-- Node26&#45;&gt;Node27 -->
<g id="edge39" class="edge">
<title>Node26&#45;&gt;Node27</title>
<path fill="none" stroke="#191970" d="M399.9739,-112.2455C382.7811,-103.4125 357.2365,-90.2887 337.7471,-80.2758"/>
<polygon fill="#191970" stroke="#191970" points="339.2233,-77.0993 328.7291,-75.6427 336.0244,-83.3257 339.2233,-77.0993"/>
</g>
<!-- Node28&#45;&gt;Node19 -->
<g id="edge50" class="edge">
<title>Node28&#45;&gt;Node19</title>
<path fill="none" stroke="#191970" d="M516.7728,-459.3906C532.6299,-450.8361 556.3294,-438.0509 576.2355,-427.3121"/>
<polygon fill="#191970" stroke="#191970" points="577.9335,-430.3729 585.0728,-422.5446 574.61,-424.2122 577.9335,-430.3729"/>
</g>
</g>
</svg>
