<?xml version="1.0" encoding="UTF-8" standalone="no"?>
<!DOCTYPE svg PUBLIC "-//W3C//DTD SVG 1.1//EN"
 "http://www.w3.org/Graphics/SVG/1.1/DTD/svg11.dtd">
<!-- Generated by graphviz version 2.40.1 (20161225.0304)
 -->
<!-- Title: ContactWrench.h Pages: 1 -->
<svg width="1262pt" height="610pt"
 viewBox="0.00 0.00 1262.00 610.00" xmlns="http://www.w3.org/2000/svg" xmlns:xlink="http://www.w3.org/1999/xlink">
<g id="graph0" class="graph" transform="scale(1 1) rotate(0) translate(4 606)">
<title>ContactWrench.h</title>
<!-- Node0 -->
<g id="node1" class="node">
<title>Node0</title>
<polygon fill="#bfbfbf" stroke="#000000" points="605.5,-582.5 605.5,-601.5 704.5,-601.5 704.5,-582.5 605.5,-582.5"/>
<text text-anchor="middle" x="655" y="-589.5" font-family="FreeSans.ttf" font-size="10.00" fill="#000000">ContactWrench.h</text>
</g>
<!-- Node1 -->
<g id="node2" class="node">
<title>Node1</title>
<g id="a_node2"><a xlink:href="Position_8h.html" target="_top" xlink:title="iDynTree/Core/Position.h">
<polygon fill="none" stroke="#000000" points="492,-291.5 492,-310.5 628,-310.5 628,-291.5 492,-291.5"/>
<text text-anchor="middle" x="560" y="-298.5" font-family="FreeSans.ttf" font-size="10.00" fill="#000000">iDynTree/Core/Position.h</text>
</a>
</g>
</g>
<!-- Node0&#45;&gt;Node1 -->
<g id="edge1" class="edge">
<title>Node0&#45;&gt;Node1</title>
<path fill="none" stroke="#191970" d="M624.9462,-582.3699C606.8355,-575.0982 584.6979,-563.3604 571,-546 552.1664,-522.1308 553,-510.4047 553,-480 553,-480 553,-480 553,-418.5 553,-384.079 556.0304,-344.0863 558.1034,-320.755"/>
<polygon fill="#191970" stroke="#191970" points="561.5941,-321.0163 559.0267,-310.7373 554.6236,-320.3738 561.5941,-321.0163"/>
</g>
<!-- Node24 -->
<g id="node25" class="node">
<title>Node24</title>
<g id="a_node25"><a xlink:href="Wrench_8h.html" target="_top" xlink:title="iDynTree/Core/Wrench.h">
<polygon fill="none" stroke="#000000" points="887.5,-470.5 887.5,-489.5 1020.5,-489.5 1020.5,-470.5 887.5,-470.5"/>
<text text-anchor="middle" x="954" y="-477.5" font-family="FreeSans.ttf" font-size="10.00" fill="#000000">iDynTree/Core/Wrench.h</text>
</a>
</g>
</g>
<!-- Node0&#45;&gt;Node24 -->
<g id="edge37" class="edge">
<title>Node0&#45;&gt;Node24</title>
<path fill="none" stroke="#191970" d="M680.4926,-582.4509C734.0031,-562.4069 858.106,-515.9202 919.0109,-493.1063"/>
<polygon fill="#191970" stroke="#191970" points="920.4351,-496.3104 928.572,-489.5249 917.9796,-489.7551 920.4351,-496.3104"/>
</g>
<!-- Node27 -->
<g id="node28" class="node">
<title>Node27</title>
<g id="a_node28"><a xlink:href="Indices_8h.html" target="_top" xlink:title="iDynTree/Model/Indices.h">
<polygon fill="none" stroke="#000000" points="80,-470.5 80,-489.5 218,-489.5 218,-470.5 80,-470.5"/>
<text text-anchor="middle" x="149" y="-477.5" font-family="FreeSans.ttf" font-size="10.00" fill="#000000">iDynTree/Model/Indices.h</text>
</a>
</g>
</g>
<!-- Node0&#45;&gt;Node27 -->
<g id="edge48" class="edge">
<title>Node0&#45;&gt;Node27</title>
<path fill="none" stroke="#191970" d="M611.8587,-582.4509C519.4352,-561.9936 302.5707,-513.9919 201.9753,-491.7258"/>
<polygon fill="#191970" stroke="#191970" points="202.5522,-488.2688 192.0321,-489.5249 201.0393,-495.1034 202.5522,-488.2688"/>
</g>
<!-- Node29 -->
<g id="node30" class="node">
<title>Node29</title>
<g id="a_node30"><a xlink:href="LinkState_8h.html" target="_top" xlink:title="iDynTree/Model/LinkState.h">
<polygon fill="none" stroke="#000000" points="580.5,-526.5 580.5,-545.5 729.5,-545.5 729.5,-526.5 580.5,-526.5"/>
<text text-anchor="middle" x="655" y="-533.5" font-family="FreeSans.ttf" font-size="10.00" fill="#000000">iDynTree/Model/LinkState.h</text>
</a>
</g>
</g>
<!-- Node0&#45;&gt;Node29 -->
<g id="edge51" class="edge">
<title>Node0&#45;&gt;Node29</title>
<path fill="none" stroke="#191970" d="M655,-582.2455C655,-574.9382 655,-564.6944 655,-555.7046"/>
<polygon fill="#191970" stroke="#191970" points="658.5001,-555.6426 655,-545.6427 651.5001,-555.6427 658.5001,-555.6426"/>
</g>
<!-- Node35 -->
<g id="node36" class="node">
<title>Node35</title>
<polygon fill="none" stroke="#bfbfbf" points="1038.5,-470.5 1038.5,-489.5 1085.5,-489.5 1085.5,-470.5 1038.5,-470.5"/>
<text text-anchor="middle" x="1062" y="-477.5" font-family="FreeSans.ttf" font-size="10.00" fill="#000000">vector</text>
</g>
<!-- Node0&#45;&gt;Node35 -->
<g id="edge70" class="edge">
<title>Node0&#45;&gt;Node35</title>
<path fill="none" stroke="#191970" d="M691.8554,-582.4633C757.569,-565.3536 899.4772,-527.9279 1028.5961,-490.3469"/>
<polygon fill="#191970" stroke="#191970" points="1029.6451,-493.6869 1038.2642,-487.5256 1027.6841,-486.9671 1029.6451,-493.6869"/>
</g>
<!-- Node2 -->
<g id="node3" class="node">
<title>Node2</title>
<g id="a_node3"><a xlink:href="PositionRaw_8h.html" target="_top" xlink:title="iDynTree/Core/PositionRaw.h">
<polygon fill="none" stroke="#000000" points="630,-174 630,-193 786,-193 786,-174 630,-174"/>
<text text-anchor="middle" x="708" y="-181" font-family="FreeSans.ttf" font-size="10.00" fill="#000000">iDynTree/Core/PositionRaw.h</text>
</a>
</g>
</g>
<!-- Node1&#45;&gt;Node2 -->
<g id="edge2" class="edge">
<title>Node1&#45;&gt;Node2</title>
<path fill="none" stroke="#191970" d="M560.2213,-291.2105C561.0552,-277.0775 564.5974,-250.9126 579,-235 596.4227,-215.7506 622.0079,-203.5834 645.8081,-195.946"/>
<polygon fill="#191970" stroke="#191970" points="646.9409,-199.2605 655.5178,-193.0406 644.9342,-192.5543 646.9409,-199.2605"/>
</g>
<!-- Node16 -->
<g id="node17" class="node">
<title>Node16</title>
<polygon fill="none" stroke="#bfbfbf" points="366,-56.5 366,-75.5 410,-75.5 410,-56.5 366,-56.5"/>
<text text-anchor="middle" x="388" y="-63.5" font-family="FreeSans.ttf" font-size="10.00" fill="#000000">string</text>
</g>
<!-- Node1&#45;&gt;Node16 -->
<g id="edge36" class="edge">
<title>Node1&#45;&gt;Node16</title>
<path fill="none" stroke="#191970" d="M539.4547,-291.4545C508.6333,-276.1442 450.4816,-243.264 417,-199 391.5632,-165.3716 387.4963,-114.015 387.3674,-85.9759"/>
<polygon fill="#191970" stroke="#191970" points="390.869,-85.8641 387.4929,-75.8216 383.8695,-85.7776 390.869,-85.8641"/>
</g>
<!-- Node19 -->
<g id="node20" class="node">
<title>Node19</title>
<g id="a_node20"><a xlink:href="Rotation_8h.html" target="_top" xlink:title="iDynTree/Core/Rotation.h">
<polygon fill="none" stroke="#000000" points="588.5,-235.5 588.5,-254.5 725.5,-254.5 725.5,-235.5 588.5,-235.5"/>
<text text-anchor="middle" x="657" y="-242.5" font-family="FreeSans.ttf" font-size="10.00" fill="#000000">iDynTree/Core/Rotation.h</text>
</a>
</g>
</g>
<!-- Node1&#45;&gt;Node19 -->
<g id="edge22" class="edge">
<title>Node1&#45;&gt;Node19</title>
<path fill="none" stroke="#191970" d="M576.8961,-291.2455C591.918,-282.5731 614.1043,-269.7645 631.321,-259.825"/>
<polygon fill="#191970" stroke="#191970" points="633.3871,-262.6737 640.2975,-254.6427 629.8872,-256.6114 633.3871,-262.6737"/>
</g>
<!-- Node3 -->
<g id="node4" class="node">
<title>Node3</title>
<g id="a_node4"><a xlink:href="VectorFixSize_8h.html" target="_top" xlink:title="iDynTree/Core/VectorFixSize.h">
<polygon fill="none" stroke="#000000" points="743.5,-112.5 743.5,-131.5 904.5,-131.5 904.5,-112.5 743.5,-112.5"/>
<text text-anchor="middle" x="824" y="-119.5" font-family="FreeSans.ttf" font-size="10.00" fill="#000000">iDynTree/Core/VectorFixSize.h</text>
</a>
</g>
</g>
<!-- Node2&#45;&gt;Node3 -->
<g id="edge3" class="edge">
<title>Node2&#45;&gt;Node3</title>
<path fill="none" stroke="#191970" d="M726.125,-173.8906C745.1083,-163.8262 775.1373,-147.9057 796.9307,-136.3514"/>
<polygon fill="#191970" stroke="#191970" points="798.8066,-139.3184 806.0023,-131.5419 795.5277,-133.1338 798.8066,-139.3184"/>
</g>
<!-- Node2&#45;&gt;Node16 -->
<g id="edge21" class="edge">
<title>Node2&#45;&gt;Node16</title>
<path fill="none" stroke="#191970" d="M655.915,-173.9617C599.5127,-163.2133 513.5139,-145.4842 483,-132 467.6076,-125.1981 431.6549,-99.0167 408.658,-81.7443"/>
<polygon fill="#191970" stroke="#191970" points="410.6377,-78.8535 400.5484,-75.6197 406.419,-84.4394 410.6377,-78.8535"/>
</g>
<!-- Node4 -->
<g id="node5" class="node">
<title>Node4</title>
<g id="a_node5"><a xlink:href="Utils_8h.html" target="_top" xlink:title="iDynTree/Core/Utils.h">
<polygon fill="none" stroke="#000000" points="1069.5,-56.5 1069.5,-75.5 1188.5,-75.5 1188.5,-56.5 1069.5,-56.5"/>
<text text-anchor="middle" x="1129" y="-63.5" font-family="FreeSans.ttf" font-size="10.00" fill="#000000">iDynTree/Core/Utils.h</text>
</a>
</g>
</g>
<!-- Node3&#45;&gt;Node4 -->
<g id="edge4" class="edge">
<title>Node3&#45;&gt;Node4</title>
<path fill="none" stroke="#191970" d="M876.0848,-112.4369C928.9412,-102.7321 1010.7691,-87.708 1066.9509,-77.3926"/>
<polygon fill="#191970" stroke="#191970" points="1067.9265,-80.7721 1077.13,-75.5237 1066.6623,-73.8872 1067.9265,-80.7721"/>
</g>
<!-- Node7 -->
<g id="node8" class="node">
<title>Node7</title>
<g id="a_node8"><a xlink:href="Span_8h.html" target="_top" xlink:title="iDynTree/Core/Span.h">
<polygon fill="none" stroke="#000000" points="763.5,-56.5 763.5,-75.5 884.5,-75.5 884.5,-56.5 763.5,-56.5"/>
<text text-anchor="middle" x="824" y="-63.5" font-family="FreeSans.ttf" font-size="10.00" fill="#000000">iDynTree/Core/Span.h</text>
</a>
</g>
</g>
<!-- Node3&#45;&gt;Node7 -->
<g id="edge7" class="edge">
<title>Node3&#45;&gt;Node7</title>
<path fill="none" stroke="#191970" d="M824,-112.2455C824,-104.9382 824,-94.6944 824,-85.7046"/>
<polygon fill="#191970" stroke="#191970" points="827.5001,-85.6426 824,-75.6427 820.5001,-85.6427 827.5001,-85.6426"/>
</g>
<!-- Node8 -->
<g id="node9" class="node">
<title>Node8</title>
<polygon fill="none" stroke="#bfbfbf" points="523,-.5 523,-19.5 575,-19.5 575,-.5 523,-.5"/>
<text text-anchor="middle" x="549" y="-7.5" font-family="FreeSans.ttf" font-size="10.00" fill="#000000">cassert</text>
</g>
<!-- Node3&#45;&gt;Node8 -->
<g id="edge19" class="edge">
<title>Node3&#45;&gt;Node8</title>
<path fill="none" stroke="#191970" d="M800.5537,-112.4509C751.5412,-92.4895 638.1371,-46.3031 581.8766,-23.3897"/>
<polygon fill="#191970" stroke="#191970" points="582.9686,-20.0554 572.387,-19.5249 580.3282,-26.5383 582.9686,-20.0554"/>
</g>
<!-- Node3&#45;&gt;Node16 -->
<g id="edge17" class="edge">
<title>Node3&#45;&gt;Node16</title>
<path fill="none" stroke="#191970" d="M749.5443,-112.4369C653.2734,-100.0718 489.7696,-79.0713 420.5263,-70.1777"/>
<polygon fill="#191970" stroke="#191970" points="420.6117,-66.66 410.2472,-68.8574 419.7198,-73.6029 420.6117,-66.66"/>
</g>
<!-- Node17 -->
<g id="node18" class="node">
<title>Node17</title>
<polygon fill="none" stroke="#bfbfbf" points="903,-56.5 903,-75.5 959,-75.5 959,-56.5 903,-56.5"/>
<text text-anchor="middle" x="931" y="-63.5" font-family="FreeSans.ttf" font-size="10.00" fill="#000000">sstream</text>
</g>
<!-- Node3&#45;&gt;Node17 -->
<g id="edge18" class="edge">
<title>Node3&#45;&gt;Node17</title>
<path fill="none" stroke="#191970" d="M842.638,-112.2455C859.4386,-103.4527 884.3634,-90.4079 903.4618,-80.4125"/>
<polygon fill="#191970" stroke="#191970" points="905.3386,-83.3807 912.5756,-75.6427 902.0927,-77.1787 905.3386,-83.3807"/>
</g>
<!-- Node18 -->
<g id="node19" class="node">
<title>Node18</title>
<polygon fill="none" stroke="#bfbfbf" points="601,-56.5 601,-75.5 651,-75.5 651,-56.5 601,-56.5"/>
<text text-anchor="middle" x="626" y="-63.5" font-family="FreeSans.ttf" font-size="10.00" fill="#000000">cstring</text>
</g>
<!-- Node3&#45;&gt;Node18 -->
<g id="edge20" class="edge">
<title>Node3&#45;&gt;Node18</title>
<path fill="none" stroke="#191970" d="M789.9626,-112.3733C753.8818,-102.1686 697.1899,-86.1345 660.8159,-75.8469"/>
<polygon fill="#191970" stroke="#191970" points="661.7045,-72.461 651.1294,-73.1073 659.7994,-79.1968 661.7045,-72.461"/>
</g>
<!-- Node5 -->
<g id="node6" class="node">
<title>Node5</title>
<polygon fill="none" stroke="#bfbfbf" points="1102.5,-.5 1102.5,-19.5 1155.5,-19.5 1155.5,-.5 1102.5,-.5"/>
<text text-anchor="middle" x="1129" y="-7.5" font-family="FreeSans.ttf" font-size="10.00" fill="#000000">cstddef</text>
</g>
<!-- Node4&#45;&gt;Node5 -->
<g id="edge5" class="edge">
<title>Node4&#45;&gt;Node5</title>
<path fill="none" stroke="#191970" d="M1129,-56.2455C1129,-48.9382 1129,-38.6944 1129,-29.7046"/>
<polygon fill="#191970" stroke="#191970" points="1132.5001,-29.6426 1129,-19.6427 1125.5001,-29.6427 1132.5001,-29.6426"/>
</g>
<!-- Node6 -->
<g id="node7" class="node">
<title>Node6</title>
<polygon fill="none" stroke="#bfbfbf" points="1174,-.5 1174,-19.5 1254,-19.5 1254,-.5 1174,-.5"/>
<text text-anchor="middle" x="1214" y="-7.5" font-family="FreeSans.ttf" font-size="10.00" fill="#000000">CoreExport.h</text>
</g>
<!-- Node4&#45;&gt;Node6 -->
<g id="edge6" class="edge">
<title>Node4&#45;&gt;Node6</title>
<path fill="none" stroke="#191970" d="M1143.8059,-56.2455C1156.7256,-47.7337 1175.6931,-35.2375 1190.6552,-25.3801"/>
<polygon fill="#191970" stroke="#191970" points="1192.9387,-28.067 1199.3638,-19.6427 1189.0876,-22.2216 1192.9387,-28.067"/>
</g>
<!-- Node7&#45;&gt;Node5 -->
<g id="edge11" class="edge">
<title>Node7&#45;&gt;Node5</title>
<path fill="none" stroke="#191970" d="M884.5706,-56.4735C947.2448,-46.4844 1041.964,-30.9888 1092.5279,-20.1236"/>
<polygon fill="#191970" stroke="#191970" points="1093.3218,-23.5326 1102.3248,-17.9472 1091.8037,-16.6992 1093.3218,-23.5326"/>
</g>
<!-- Node7&#45;&gt;Node8 -->
<g id="edge8" class="edge">
<title>Node7&#45;&gt;Node8</title>
<path fill="none" stroke="#191970" d="M766.4737,-56.4555C719.9512,-48.4001 652.5826,-35.9779 585.2403,-20.1478"/>
<polygon fill="#191970" stroke="#191970" points="585.8454,-16.6942 575.3072,-17.7876 584.2272,-23.5046 585.8454,-16.6942"/>
</g>
<!-- Node9 -->
<g id="node10" class="node">
<title>Node9</title>
<polygon fill="none" stroke="#bfbfbf" points="593,-.5 593,-19.5 657,-19.5 657,-.5 593,-.5"/>
<text text-anchor="middle" x="625" y="-7.5" font-family="FreeSans.ttf" font-size="10.00" fill="#000000">algorithm</text>
</g>
<!-- Node7&#45;&gt;Node9 -->
<g id="edge9" class="edge">
<title>Node7&#45;&gt;Node9</title>
<path fill="none" stroke="#191970" d="M789.7907,-56.3733C755.7624,-46.7975 703.4933,-32.0886 666.9734,-21.8116"/>
<polygon fill="#191970" stroke="#191970" points="667.693,-18.3782 657.1187,-19.0384 665.7967,-25.1165 667.693,-18.3782"/>
</g>
<!-- Node10 -->
<g id="node11" class="node">
<title>Node10</title>
<polygon fill="none" stroke="#bfbfbf" points="675,-.5 675,-19.5 717,-19.5 717,-.5 675,-.5"/>
<text text-anchor="middle" x="696" y="-7.5" font-family="FreeSans.ttf" font-size="10.00" fill="#000000">array</text>
</g>
<!-- Node7&#45;&gt;Node10 -->
<g id="edge10" class="edge">
<title>Node7&#45;&gt;Node10</title>
<path fill="none" stroke="#191970" d="M801.996,-56.3733C781.2315,-47.2888 749.9072,-33.5844 726.6907,-23.4272"/>
<polygon fill="#191970" stroke="#191970" points="727.856,-20.1167 717.2915,-19.315 725.0502,-26.5298 727.856,-20.1167"/>
</g>
<!-- Node11 -->
<g id="node12" class="node">
<title>Node11</title>
<polygon fill="none" stroke="#bfbfbf" points="735.5,-.5 735.5,-19.5 788.5,-19.5 788.5,-.5 735.5,-.5"/>
<text text-anchor="middle" x="762" y="-7.5" font-family="FreeSans.ttf" font-size="10.00" fill="#000000">iterator</text>
</g>
<!-- Node7&#45;&gt;Node11 -->
<g id="edge12" class="edge">
<title>Node7&#45;&gt;Node11</title>
<path fill="none" stroke="#191970" d="M813.2004,-56.2455C804.1322,-48.0549 790.9794,-36.1749 780.2755,-26.5069"/>
<polygon fill="#191970" stroke="#191970" points="782.4429,-23.7482 772.6758,-19.6427 777.7509,-28.9429 782.4429,-23.7482"/>
</g>
<!-- Node12 -->
<g id="node13" class="node">
<title>Node12</title>
<polygon fill="none" stroke="#bfbfbf" points="807,-.5 807,-19.5 851,-19.5 851,-.5 807,-.5"/>
<text text-anchor="middle" x="829" y="-7.5" font-family="FreeSans.ttf" font-size="10.00" fill="#000000">limits</text>
</g>
<!-- Node7&#45;&gt;Node12 -->
<g id="edge13" class="edge">
<title>Node7&#45;&gt;Node12</title>
<path fill="none" stroke="#191970" d="M824.8709,-56.2455C825.5234,-48.9382 826.438,-38.6944 827.2407,-29.7046"/>
<polygon fill="#191970" stroke="#191970" points="830.7358,-29.9143 828.139,-19.6427 823.7635,-29.2918 830.7358,-29.9143"/>
</g>
<!-- Node13 -->
<g id="node14" class="node">
<title>Node13</title>
<polygon fill="none" stroke="#bfbfbf" points="869.5,-.5 869.5,-19.5 934.5,-19.5 934.5,-.5 869.5,-.5"/>
<text text-anchor="middle" x="902" y="-7.5" font-family="FreeSans.ttf" font-size="10.00" fill="#000000">stdexcept</text>
</g>
<!-- Node7&#45;&gt;Node13 -->
<g id="edge14" class="edge">
<title>Node7&#45;&gt;Node13</title>
<path fill="none" stroke="#191970" d="M837.5866,-56.2455C849.3305,-47.814 866.5199,-35.4729 880.1882,-25.6598"/>
<polygon fill="#191970" stroke="#191970" points="882.4871,-28.3179 888.5691,-19.6427 878.4046,-22.6316 882.4871,-28.3179"/>
</g>
<!-- Node14 -->
<g id="node15" class="node">
<title>Node14</title>
<polygon fill="none" stroke="#bfbfbf" points="952.5,-.5 952.5,-19.5 1021.5,-19.5 1021.5,-.5 952.5,-.5"/>
<text text-anchor="middle" x="987" y="-7.5" font-family="FreeSans.ttf" font-size="10.00" fill="#000000">type_traits</text>
</g>
<!-- Node7&#45;&gt;Node14 -->
<g id="edge15" class="edge">
<title>Node7&#45;&gt;Node14</title>
<path fill="none" stroke="#191970" d="M852.0207,-56.3733C879.0078,-47.1016 920.0017,-33.0178 949.7311,-22.804"/>
<polygon fill="#191970" stroke="#191970" points="951.0248,-26.0605 959.3449,-19.5011 948.7503,-19.4403 951.0248,-26.0605"/>
</g>
<!-- Node15 -->
<g id="node16" class="node">
<title>Node15</title>
<polygon fill="none" stroke="#bfbfbf" points="1039.5,-.5 1039.5,-19.5 1084.5,-19.5 1084.5,-.5 1039.5,-.5"/>
<text text-anchor="middle" x="1062" y="-7.5" font-family="FreeSans.ttf" font-size="10.00" fill="#000000">utility</text>
</g>
<!-- Node7&#45;&gt;Node15 -->
<g id="edge16" class="edge">
<title>Node7&#45;&gt;Node15</title>
<path fill="none" stroke="#191970" d="M872.8306,-56.49C912.7543,-48.4127 970.8335,-35.9766 1029.5729,-20.2254"/>
<polygon fill="#191970" stroke="#191970" points="1030.6508,-23.5596 1039.3861,-17.5641 1028.8186,-16.8036 1030.6508,-23.5596"/>
</g>
<!-- Node19&#45;&gt;Node3 -->
<g id="edge35" class="edge">
<title>Node19&#45;&gt;Node3</title>
<path fill="none" stroke="#191970" d="M723.0399,-235.4324C748.226,-228.8468 775.5288,-217.7367 795,-199 810.7895,-183.8062 818.069,-159.1737 821.3679,-141.8695"/>
<polygon fill="#191970" stroke="#191970" points="824.8664,-142.1603 823.0103,-131.7293 817.9564,-141.0411 824.8664,-142.1603"/>
</g>
<!-- Node19&#45;&gt;Node16 -->
<g id="edge23" class="edge">
<title>Node19&#45;&gt;Node16</title>
<path fill="none" stroke="#191970" d="M588.4632,-237.0048C535.1391,-229.5515 466.6799,-216.8854 445,-199 409.7747,-169.9399 395.8349,-115.091 390.7128,-85.7289"/>
<polygon fill="#191970" stroke="#191970" points="394.1672,-85.1648 389.1554,-75.8304 387.2523,-86.2528 394.1672,-85.1648"/>
</g>
<!-- Node20 -->
<g id="node21" class="node">
<title>Node20</title>
<g id="a_node21"><a xlink:href="GeomVector3_8h.html" target="_top" xlink:title="iDynTree/Core/GeomVector3.h">
<polygon fill="none" stroke="#000000" points="880.5,-174 880.5,-193 1043.5,-193 1043.5,-174 880.5,-174"/>
<text text-anchor="middle" x="962" y="-181" font-family="FreeSans.ttf" font-size="10.00" fill="#000000">iDynTree/Core/GeomVector3.h</text>
</a>
</g>
</g>
<!-- Node19&#45;&gt;Node20 -->
<g id="edge24" class="edge">
<title>Node19&#45;&gt;Node20</title>
<path fill="none" stroke="#191970" d="M704.3216,-235.4581C758.3834,-224.5571 846.8288,-206.723 904.7328,-195.0473"/>
<polygon fill="#191970" stroke="#191970" points="905.7075,-198.4213 914.8183,-193.0137 904.3238,-191.5594 905.7075,-198.4213"/>
</g>
<!-- Node21 -->
<g id="node22" class="node">
<title>Node21</title>
<g id="a_node22"><a xlink:href="RotationRaw_8h.html" target="_top" xlink:title="iDynTree/Core/RotationRaw.h">
<polygon fill="none" stroke="#000000" points="454,-174 454,-193 612,-193 612,-174 454,-174"/>
<text text-anchor="middle" x="533" y="-181" font-family="FreeSans.ttf" font-size="10.00" fill="#000000">iDynTree/Core/RotationRaw.h</text>
</a>
</g>
</g>
<!-- Node19&#45;&gt;Node21 -->
<g id="edge26" class="edge">
<title>Node19&#45;&gt;Node21</title>
<path fill="none" stroke="#191970" d="M637.625,-235.3906C617.1505,-225.2359 584.6558,-209.1196 561.3115,-197.5416"/>
<polygon fill="#191970" stroke="#191970" points="562.7528,-194.3496 552.2389,-193.0419 559.6425,-200.6207 562.7528,-194.3496"/>
</g>
<!-- Node20&#45;&gt;Node3 -->
<g id="edge25" class="edge">
<title>Node20&#45;&gt;Node3</title>
<path fill="none" stroke="#191970" d="M940.4375,-173.8906C917.4488,-163.6457 880.844,-147.3326 854.8176,-135.7339"/>
<polygon fill="#191970" stroke="#191970" points="855.9698,-132.4156 845.4111,-131.5419 853.1204,-138.8095 855.9698,-132.4156"/>
</g>
<!-- Node21&#45;&gt;Node16 -->
<g id="edge34" class="edge">
<title>Node21&#45;&gt;Node16</title>
<path fill="none" stroke="#191970" d="M514.6053,-173.9178C497.1516,-164.4139 470.6017,-148.865 450,-132 432.0682,-117.3207 414.2306,-97.6638 402.3241,-83.6285"/>
<polygon fill="#191970" stroke="#191970" points="404.8186,-81.1546 395.7292,-75.7108 399.4399,-85.6346 404.8186,-81.1546"/>
</g>
<!-- Node22 -->
<g id="node23" class="node">
<title>Node22</title>
<g id="a_node23"><a xlink:href="MatrixFixSize_8h.html" target="_top" xlink:title="iDynTree/Core/MatrixFixSize.h">
<polygon fill="none" stroke="#000000" points="492.5,-112.5 492.5,-131.5 653.5,-131.5 653.5,-112.5 492.5,-112.5"/>
<text text-anchor="middle" x="573" y="-119.5" font-family="FreeSans.ttf" font-size="10.00" fill="#000000">iDynTree/Core/MatrixFixSize.h</text>
</a>
</g>
</g>
<!-- Node21&#45;&gt;Node22 -->
<g id="edge27" class="edge">
<title>Node21&#45;&gt;Node22</title>
<path fill="none" stroke="#191970" d="M539.25,-173.8906C545.0865,-164.917 553.9509,-151.2879 561.1306,-140.2491"/>
<polygon fill="#191970" stroke="#191970" points="564.1436,-142.0361 566.6619,-131.7449 558.2755,-138.2194 564.1436,-142.0361"/>
</g>
<!-- Node22&#45;&gt;Node4 -->
<g id="edge28" class="edge">
<title>Node22&#45;&gt;Node4</title>
<path fill="none" stroke="#191970" d="M653.867,-115.323C749.8827,-107.1583 914.8036,-92.3876 1056,-76 1057.0801,-75.8746 1058.1689,-75.7466 1059.2647,-75.6162"/>
<polygon fill="#191970" stroke="#191970" points="1059.7695,-79.0805 1069.2677,-74.3865 1058.9153,-72.1328 1059.7695,-79.0805"/>
</g>
<!-- Node22&#45;&gt;Node8 -->
<g id="edge29" class="edge">
<title>Node22&#45;&gt;Node8</title>
<path fill="none" stroke="#191970" d="M570.9538,-112.4509C567.0217,-94.1013 558.3409,-53.5908 553.1506,-29.3693"/>
<polygon fill="#191970" stroke="#191970" points="556.5587,-28.5695 551.041,-19.5249 549.7141,-30.0363 556.5587,-28.5695"/>
</g>
<!-- Node22&#45;&gt;Node16 -->
<g id="edge31" class="edge">
<title>Node22&#45;&gt;Node16</title>
<path fill="none" stroke="#191970" d="M541.1974,-112.3733C507.3055,-102.1141 453.9497,-85.9631 419.9873,-75.6827"/>
<polygon fill="#191970" stroke="#191970" points="420.6981,-72.241 410.1129,-72.6936 418.67,-78.9408 420.6981,-72.241"/>
</g>
<!-- Node22&#45;&gt;Node17 -->
<g id="edge33" class="edge">
<title>Node22&#45;&gt;Node17</title>
<path fill="none" stroke="#191970" d="M653.6094,-113.2041C716.3937,-105.7176 805.8689,-93.6614 892.7689,-76.0599"/>
<polygon fill="#191970" stroke="#191970" points="893.7111,-79.4395 902.803,-74 892.3035,-72.5825 893.7111,-79.4395"/>
</g>
<!-- Node22&#45;&gt;Node18 -->
<g id="edge30" class="edge">
<title>Node22&#45;&gt;Node18</title>
<path fill="none" stroke="#191970" d="M582.2319,-112.2455C589.8317,-104.2155 600.7877,-92.6394 609.8368,-83.0781"/>
<polygon fill="#191970" stroke="#191970" points="612.5421,-85.3115 616.8739,-75.6427 607.458,-80.4998 612.5421,-85.3115"/>
</g>
<!-- Node23 -->
<g id="node24" class="node">
<title>Node23</title>
<polygon fill="none" stroke="#bfbfbf" points="987,-56.5 987,-75.5 1047,-75.5 1047,-56.5 987,-56.5"/>
<text text-anchor="middle" x="1017" y="-63.5" font-family="FreeSans.ttf" font-size="10.00" fill="#000000">iostream</text>
</g>
<!-- Node22&#45;&gt;Node23 -->
<g id="edge32" class="edge">
<title>Node22&#45;&gt;Node23</title>
<path fill="none" stroke="#191970" d="M653.8456,-114.6239C733.8792,-106.8426 859.7753,-93.3126 968,-76 970.8533,-75.5436 973.7929,-75.0368 976.7481,-74.5005"/>
<polygon fill="#191970" stroke="#191970" points="977.5852,-77.904 986.7531,-72.5935 976.2746,-71.0278 977.5852,-77.904"/>
</g>
<!-- Node25 -->
<g id="node26" class="node">
<title>Node25</title>
<g id="a_node26"><a xlink:href="SpatialForceVector_8h.html" target="_top" xlink:title="iDynTree/Core/SpatialForce\lVector.h">
<polygon fill="none" stroke="#000000" points="934,-403.5 934,-433.5 1082,-433.5 1082,-403.5 934,-403.5"/>
<text text-anchor="start" x="942" y="-421.5" font-family="FreeSans.ttf" font-size="10.00" fill="#000000">iDynTree/Core/SpatialForce</text>
<text text-anchor="middle" x="1008" y="-410.5" font-family="FreeSans.ttf" font-size="10.00" fill="#000000">Vector.h</text>
</a>
</g>
</g>
<!-- Node24&#45;&gt;Node25 -->
<g id="edge38" class="edge">
<title>Node24&#45;&gt;Node25</title>
<path fill="none" stroke="#191970" d="M962.4375,-470.3906C969.2721,-462.6068 979.1823,-451.3202 988.0159,-441.2597"/>
<polygon fill="#191970" stroke="#191970" points="990.8221,-443.3683 994.7901,-433.5446 985.562,-438.7497 990.8221,-443.3683"/>
</g>
<!-- Node25&#45;&gt;Node3 -->
<g id="edge39" class="edge">
<title>Node25&#45;&gt;Node3</title>
<path fill="none" stroke="#191970" d="M1019.7929,-403.1829C1026.6554,-393.3908 1034.765,-380.1081 1039,-367 1066.2579,-282.6309 1109.1826,-236.5905 1053,-168 1035.3651,-146.4705 970.8089,-134.804 914.7163,-128.6132"/>
<polygon fill="#191970" stroke="#191970" points="915.0287,-125.1268 904.7162,-127.5564 914.2929,-132.088 915.0287,-125.1268"/>
</g>
<!-- Node25&#45;&gt;Node20 -->
<g id="edge40" class="edge">
<title>Node25&#45;&gt;Node20</title>
<path fill="none" stroke="#191970" d="M1015.4216,-403.2512C1021.5308,-388.8388 1028.6397,-366.5688 1025,-347 1014.7995,-292.1572 986.8862,-231.9897 971.8703,-202.2669"/>
<polygon fill="#191970" stroke="#191970" points="974.8328,-200.3743 967.1471,-193.0818 968.6077,-203.5755 974.8328,-200.3743"/>
</g>
<!-- Node26 -->
<g id="node27" class="node">
<title>Node26</title>
<g id="a_node27"><a xlink:href="SpatialVector_8h.html" target="_top" xlink:title="iDynTree/Core/SpatialVector.h">
<polygon fill="none" stroke="#000000" points="854.5,-347.5 854.5,-366.5 1015.5,-366.5 1015.5,-347.5 854.5,-347.5"/>
<text text-anchor="middle" x="935" y="-354.5" font-family="FreeSans.ttf" font-size="10.00" fill="#000000">iDynTree/Core/SpatialVector.h</text>
</a>
</g>
</g>
<!-- Node25&#45;&gt;Node26 -->
<g id="edge41" class="edge">
<title>Node25&#45;&gt;Node26</title>
<path fill="none" stroke="#191970" d="M989.9551,-403.2977C979.1886,-394.2274 965.5149,-382.7077 954.5005,-373.4285"/>
<polygon fill="#191970" stroke="#191970" points="956.5911,-370.6132 946.6882,-366.8469 952.0809,-375.9667 956.5911,-370.6132"/>
</g>
<!-- Node26&#45;&gt;Node1 -->
<g id="edge42" class="edge">
<title>Node26&#45;&gt;Node1</title>
<path fill="none" stroke="#191970" d="M870.9613,-347.4369C805.165,-337.6113 702.8556,-322.3331 633.7251,-312.0096"/>
<polygon fill="#191970" stroke="#191970" points="634.1819,-308.5391 623.7746,-310.5237 633.1479,-315.4623 634.1819,-308.5391"/>
</g>
<!-- Node26&#45;&gt;Node4 -->
<g id="edge44" class="edge">
<title>Node26&#45;&gt;Node4</title>
<path fill="none" stroke="#191970" d="M996.9037,-347.4526C1046.8332,-338.9022 1112.3457,-325.5044 1135,-311 1166.2199,-291.0115 1186,-282.0705 1186,-245 1186,-245 1186,-245 1186,-183.5 1186,-144.841 1160.7138,-105.5543 1143.825,-83.6259"/>
<polygon fill="#191970" stroke="#191970" points="1146.3871,-81.2255 1137.4105,-75.5977 1140.9183,-85.595 1146.3871,-81.2255"/>
</g>
<!-- Node26&#45;&gt;Node17 -->
<g id="edge47" class="edge">
<title>Node26&#45;&gt;Node17</title>
<path fill="none" stroke="#191970" d="M949.207,-347.4407C987.3997,-320.4845 1087.1507,-241.0662 1053,-168 1034.013,-127.3768 990.0091,-97.2421 960.3758,-80.6394"/>
<polygon fill="#191970" stroke="#191970" points="961.7694,-77.4138 951.3095,-75.7282 958.4352,-83.5687 961.7694,-77.4138"/>
</g>
<!-- Node26&#45;&gt;Node19 -->
<g id="edge43" class="edge">
<title>Node26&#45;&gt;Node19</title>
<path fill="none" stroke="#191970" d="M911.2979,-347.4509C861.7507,-327.4895 747.1095,-281.3031 690.2352,-258.3897"/>
<polygon fill="#191970" stroke="#191970" points="691.2256,-255.0154 680.6421,-254.5249 688.6097,-261.5083 691.2256,-255.0154"/>
</g>
<!-- Node26&#45;&gt;Node20 -->
<g id="edge45" class="edge">
<title>Node26&#45;&gt;Node20</title>
<path fill="none" stroke="#191970" d="M936.4901,-347.4248C940.7581,-319.999 953.0936,-240.732 958.9037,-203.3964"/>
<polygon fill="#191970" stroke="#191970" points="962.4018,-203.6788 960.4812,-193.2595 955.4851,-202.6024 962.4018,-203.6788"/>
</g>
<!-- Node26&#45;&gt;Node23 -->
<g id="edge46" class="edge">
<title>Node26&#45;&gt;Node23</title>
<path fill="none" stroke="#191970" d="M1014.6162,-347.468C1075.1158,-335.258 1148,-307.5651 1148,-245 1148,-245 1148,-245 1148,-183.5 1148,-131.9591 1091.1098,-97.3213 1052.3103,-79.6914"/>
<polygon fill="#191970" stroke="#191970" points="1053.4465,-76.3685 1042.8814,-75.5757 1050.6462,-82.784 1053.4465,-76.3685"/>
</g>
<!-- Node27&#45;&gt;Node16 -->
<g id="edge49" class="edge">
<title>Node27&#45;&gt;Node16</title>
<path fill="none" stroke="#191970" d="M144.2797,-470.3812C134.7262,-449.9983 114,-400.7377 114,-357 114,-357 114,-357 114,-183.5 114,-143.4081 135.0547,-133.3325 169,-112 199.7741,-92.6604 302.5546,-77.0176 355.6434,-69.9991"/>
<polygon fill="#191970" stroke="#191970" points="356.4017,-73.4302 365.8684,-68.6729 355.5013,-66.4883 356.4017,-73.4302"/>
</g>
<!-- Node28 -->
<g id="node29" class="node">
<title>Node28</title>
<polygon fill="none" stroke="#bfbfbf" points="0,-409 0,-428 86,-428 86,-409 0,-409"/>
<text text-anchor="middle" x="43" y="-416" font-family="FreeSans.ttf" font-size="10.00" fill="#000000">ModelExport.h</text>
</g>
<!-- Node27&#45;&gt;Node28 -->
<g id="edge50" class="edge">
<title>Node27&#45;&gt;Node28</title>
<path fill="none" stroke="#191970" d="M132.4375,-470.3906C115.2463,-460.4165 88.1418,-444.6908 68.2734,-433.1633"/>
<polygon fill="#191970" stroke="#191970" points="69.8523,-430.033 59.4462,-428.0419 66.3394,-436.0877 69.8523,-430.033"/>
</g>
<!-- Node29&#45;&gt;Node24 -->
<g id="edge64" class="edge">
<title>Node29&#45;&gt;Node24</title>
<path fill="none" stroke="#191970" d="M706.0602,-526.4369C757.8768,-516.7321 838.095,-501.708 893.1715,-491.3926"/>
<polygon fill="#191970" stroke="#191970" points="893.9656,-494.8048 903.1504,-489.5237 892.677,-487.9245 893.9656,-494.8048"/>
</g>
<!-- Node29&#45;&gt;Node27 -->
<g id="edge68" class="edge">
<title>Node29&#45;&gt;Node27</title>
<path fill="none" stroke="#191970" d="M580.338,-527.737C486.0816,-517.3055 324.6333,-499.4377 228.2535,-488.7711"/>
<polygon fill="#191970" stroke="#191970" points="228.5957,-485.2877 218.2714,-487.6664 227.8257,-492.2453 228.5957,-485.2877"/>
</g>
<!-- Node30 -->
<g id="node31" class="node">
<title>Node30</title>
<g id="a_node31"><a xlink:href="Transform_8h.html" target="_top" xlink:title="iDynTree/Core/Transform.h">
<polygon fill="none" stroke="#000000" points="379,-347.5 379,-366.5 525,-366.5 525,-347.5 379,-347.5"/>
<text text-anchor="middle" x="452" y="-354.5" font-family="FreeSans.ttf" font-size="10.00" fill="#000000">iDynTree/Core/Transform.h</text>
</a>
</g>
</g>
<!-- Node29&#45;&gt;Node30 -->
<g id="edge52" class="edge">
<title>Node29&#45;&gt;Node30</title>
<path fill="none" stroke="#191970" d="M633.3404,-526.4456C615.8485,-518.1726 591.0904,-505.1681 572,-490 527.5909,-454.7149 485.5515,-402.2008 465.0456,-374.916"/>
<polygon fill="#191970" stroke="#191970" points="467.7135,-372.6377 458.9447,-366.6914 462.0914,-376.8082 467.7135,-372.6377"/>
</g>
<!-- Node31 -->
<g id="node32" class="node">
<title>Node31</title>
<g id="a_node32"><a xlink:href="Twist_8h.html" target="_top" xlink:title="iDynTree/Core/Twist.h">
<polygon fill="none" stroke="#000000" points="581,-470.5 581,-489.5 703,-489.5 703,-470.5 581,-470.5"/>
<text text-anchor="middle" x="642" y="-477.5" font-family="FreeSans.ttf" font-size="10.00" fill="#000000">iDynTree/Core/Twist.h</text>
</a>
</g>
</g>
<!-- Node29&#45;&gt;Node31 -->
<g id="edge57" class="edge">
<title>Node29&#45;&gt;Node31</title>
<path fill="none" stroke="#191970" d="M652.7356,-526.2455C651.0206,-518.8579 648.6088,-508.4689 646.5056,-499.4087"/>
<polygon fill="#191970" stroke="#191970" points="649.9092,-498.5922 644.2385,-489.6427 643.0905,-500.1751 649.9092,-498.5922"/>
</g>
<!-- Node33 -->
<g id="node34" class="node">
<title>Node33</title>
<g id="a_node34"><a xlink:href="SpatialAcc_8h.html" target="_top" xlink:title="iDynTree/Core/SpatialAcc.h">
<polygon fill="none" stroke="#000000" points="721,-470.5 721,-489.5 869,-489.5 869,-470.5 721,-470.5"/>
<text text-anchor="middle" x="795" y="-477.5" font-family="FreeSans.ttf" font-size="10.00" fill="#000000">iDynTree/Core/SpatialAcc.h</text>
</a>
</g>
</g>
<!-- Node29&#45;&gt;Node33 -->
<g id="edge62" class="edge">
<title>Node29&#45;&gt;Node33</title>
<path fill="none" stroke="#191970" d="M679.0669,-526.3733C701.8428,-517.2629 736.2344,-503.5062 761.649,-493.3404"/>
<polygon fill="#191970" stroke="#191970" points="763.2623,-496.4648 771.2472,-489.5011 760.6625,-489.9654 763.2623,-496.4648"/>
</g>
<!-- Node34 -->
<g id="node35" class="node">
<title>Node34</title>
<g id="a_node35"><a xlink:href="ArticulatedBodyInertia_8h.html" target="_top" xlink:title="iDynTree/Core/Articulated\lBodyInertia.h">
<polygon fill="none" stroke="#000000" points="180.5,-168.5 180.5,-198.5 321.5,-198.5 321.5,-168.5 180.5,-168.5"/>
<text text-anchor="start" x="188.5" y="-186.5" font-family="FreeSans.ttf" font-size="10.00" fill="#000000">iDynTree/Core/Articulated</text>
<text text-anchor="middle" x="251" y="-175.5" font-family="FreeSans.ttf" font-size="10.00" fill="#000000">BodyInertia.h</text>
</a>
</g>
</g>
<!-- Node29&#45;&gt;Node34 -->
<g id="edge65" class="edge">
<title>Node29&#45;&gt;Node34</title>
<path fill="none" stroke="#191970" d="M580.2144,-527.8627C471.0717,-513.8765 281,-480.6044 281,-418.5 281,-418.5 281,-418.5 281,-301 281,-268.1718 269.8705,-231.7433 261.1691,-208.2789"/>
<polygon fill="#191970" stroke="#191970" points="264.367,-206.8437 257.5096,-198.7674 257.8339,-209.3573 264.367,-206.8437"/>
</g>
<!-- Node29&#45;&gt;Node35 -->
<g id="edge69" class="edge">
<title>Node29&#45;&gt;Node35</title>
<path fill="none" stroke="#191970" d="M729.6602,-530.8399C803.5884,-524.826 920.0249,-512.9238 1028.5579,-490.0148"/>
<polygon fill="#191970" stroke="#191970" points="1029.3191,-493.4312 1038.3618,-487.9103 1027.8499,-486.5871 1029.3191,-493.4312"/>
</g>
<!-- Node30&#45;&gt;Node1 -->
<g id="edge53" class="edge">
<title>Node30&#45;&gt;Node1</title>
<path fill="none" stroke="#191970" d="M470.8122,-347.2455C487.8473,-338.4125 513.1575,-325.2887 532.4681,-315.2758"/>
<polygon fill="#191970" stroke="#191970" points="534.137,-318.353 541.4034,-310.6427 530.9147,-312.1388 534.137,-318.353"/>
</g>
<!-- Node30&#45;&gt;Node16 -->
<g id="edge56" class="edge">
<title>Node30&#45;&gt;Node16</title>
<path fill="none" stroke="#191970" d="M393.8013,-347.4777C306.5596,-331.5331 152,-296.0775 152,-245 152,-245 152,-245 152,-183.5 152,-93.5364 291.1271,-72.4527 355.7369,-67.5119"/>
<polygon fill="#191970" stroke="#191970" points="356.0582,-70.9983 365.7977,-66.8278 355.5832,-64.0144 356.0582,-70.9983"/>
</g>
<!-- Node30&#45;&gt;Node19 -->
<g id="edge54" class="edge">
<title>Node30&#45;&gt;Node19</title>
<path fill="none" stroke="#191970" d="M453.8377,-347.3427C457.1017,-332.8892 465.3051,-305.7557 483,-291 499.5511,-277.1981 548.7851,-264.9143 590.6752,-256.5199"/>
<polygon fill="#191970" stroke="#191970" points="591.4477,-259.9352 600.5878,-254.5772 590.1013,-253.0659 591.4477,-259.9352"/>
</g>
<!-- Node30&#45;&gt;Node22 -->
<g id="edge55" class="edge">
<title>Node30&#45;&gt;Node22</title>
<path fill="none" stroke="#191970" d="M447.902,-347.2157C436.0359,-317.1877 404.9575,-224.9401 445,-168 454.254,-154.8409 489.9173,-142.6585 521.2561,-134.1408"/>
<polygon fill="#191970" stroke="#191970" points="522.4635,-137.4422 531.2402,-131.5075 520.6782,-130.6736 522.4635,-137.4422"/>
</g>
<!-- Node32 -->
<g id="node33" class="node">
<title>Node32</title>
<g id="a_node33"><a xlink:href="SpatialMotionVector_8h.html" target="_top" xlink:title="iDynTree/Core/SpatialMotion\lVector.h">
<polygon fill="none" stroke="#000000" points="717.5,-403.5 717.5,-433.5 872.5,-433.5 872.5,-403.5 717.5,-403.5"/>
<text text-anchor="start" x="725.5" y="-421.5" font-family="FreeSans.ttf" font-size="10.00" fill="#000000">iDynTree/Core/SpatialMotion</text>
<text text-anchor="middle" x="795" y="-410.5" font-family="FreeSans.ttf" font-size="10.00" fill="#000000">Vector.h</text>
</a>
</g>
</g>
<!-- Node31&#45;&gt;Node32 -->
<g id="edge58" class="edge">
<title>Node31&#45;&gt;Node32</title>
<path fill="none" stroke="#191970" d="M665.9063,-470.3906C687.8592,-461.5664 721.0117,-448.2404 748.2229,-437.3026"/>
<polygon fill="#191970" stroke="#191970" points="749.5989,-440.5217 757.572,-433.5446 746.9881,-434.0268 749.5989,-440.5217"/>
</g>
<!-- Node32&#45;&gt;Node3 -->
<g id="edge59" class="edge">
<title>Node32&#45;&gt;Node3</title>
<path fill="none" stroke="#191970" d="M796.7286,-403.3451C800.7605,-367.7264 810.9774,-275.8872 818,-199 819.7665,-179.659 821.4548,-157.5545 822.5879,-142.0052"/>
<polygon fill="#191970" stroke="#191970" points="826.0829,-142.1996 823.308,-131.9747 819.1008,-141.6983 826.0829,-142.1996"/>
</g>
<!-- Node32&#45;&gt;Node20 -->
<g id="edge60" class="edge">
<title>Node32&#45;&gt;Node20</title>
<path fill="none" stroke="#191970" d="M805.7006,-403.4422C835.1998,-361.9315 917.5952,-245.9858 949.3227,-201.3393"/>
<polygon fill="#191970" stroke="#191970" points="952.1851,-203.3535 955.1248,-193.1746 946.4791,-199.2986 952.1851,-203.3535"/>
</g>
<!-- Node32&#45;&gt;Node26 -->
<g id="edge61" class="edge">
<title>Node32&#45;&gt;Node26</title>
<path fill="none" stroke="#191970" d="M829.2479,-403.4554C852.0949,-393.419 881.8879,-380.3314 904.0267,-370.6061"/>
<polygon fill="#191970" stroke="#191970" points="905.5571,-373.7567 913.305,-366.5303 902.7417,-367.3478 905.5571,-373.7567"/>
</g>
<!-- Node33&#45;&gt;Node32 -->
<g id="edge63" class="edge">
<title>Node33&#45;&gt;Node32</title>
<path fill="none" stroke="#191970" d="M795,-470.3906C795,-463.2234 795,-453.0862 795,-443.671"/>
<polygon fill="#191970" stroke="#191970" points="798.5001,-443.5446 795,-433.5446 791.5001,-443.5446 798.5001,-443.5446"/>
</g>
<!-- Node34&#45;&gt;Node16 -->
<g id="edge67" class="edge">
<title>Node34&#45;&gt;Node16</title>
<path fill="none" stroke="#191970" d="M268.6299,-168.3795C294.4535,-146.2315 342.3742,-105.1316 368.9706,-82.3209"/>
<polygon fill="#191970" stroke="#191970" points="371.4894,-84.7716 376.8014,-75.6046 366.9322,-79.4581 371.4894,-84.7716"/>
</g>
<!-- Node34&#45;&gt;Node22 -->
<g id="edge66" class="edge">
<title>Node34&#45;&gt;Node22</title>
<path fill="none" stroke="#191970" d="M321.6643,-170.0036C378.8839,-159.075 458.6115,-143.8475 512.8202,-133.494"/>
<polygon fill="#191970" stroke="#191970" points="513.8047,-136.8693 522.9705,-131.5553 512.4914,-129.9936 513.8047,-136.8693"/>
</g>
</g>
</svg>
