<?xml version="1.0" encoding="UTF-8" standalone="no"?>
<!DOCTYPE svg PUBLIC "-//W3C//DTD SVG 1.1//EN"
 "http://www.w3.org/Graphics/SVG/1.1/DTD/svg11.dtd">
<!-- Generated by graphviz version 2.40.1 (20161225.0304)
 -->
<!-- Title: ConvexHullHelpers.h Pages: 1 -->
<svg width="1030pt" height="420pt"
 viewBox="0.00 0.00 1029.50 420.00" xmlns="http://www.w3.org/2000/svg" xmlns:xlink="http://www.w3.org/1999/xlink">
<g id="graph0" class="graph" transform="scale(1 1) rotate(0) translate(4 416)">
<title>ConvexHullHelpers.h</title>
<!-- Node0 -->
<g id="node1" class="node">
<title>Node0</title>
<polygon fill="#bfbfbf" stroke="#000000" points="251,-392.5 251,-411.5 370,-411.5 370,-392.5 251,-392.5"/>
<text text-anchor="middle" x="310.5" y="-399.5" font-family="FreeSans.ttf" font-size="10.00" fill="#000000">ConvexHullHelpers.h</text>
</g>
<!-- Node1 -->
<g id="node2" class="node">
<title>Node1</title>
<polygon fill="none" stroke="#bfbfbf" points="496.5,-56.5 496.5,-75.5 540.5,-75.5 540.5,-56.5 496.5,-56.5"/>
<text text-anchor="middle" x="518.5" y="-63.5" font-family="FreeSans.ttf" font-size="10.00" fill="#000000">string</text>
</g>
<!-- Node0&#45;&gt;Node1 -->
<g id="edge1" class="edge">
<title>Node0&#45;&gt;Node1</title>
<path fill="none" stroke="#191970" d="M282.4912,-392.3663C237.0518,-374.9519 154.4477,-334.8829 176.5,-280 215.0579,-184.0386 247.8088,-163.4858 337.5,-112 394.2887,-79.4014 419.2192,-93.1424 486.4377,-76.041"/>
<polygon fill="#191970" stroke="#191970" points="487.4615,-79.3901 496.2108,-73.4151 485.6452,-72.6298 487.4615,-79.3901"/>
</g>
<!-- Node2 -->
<g id="node3" class="node">
<title>Node2</title>
<polygon fill="none" stroke="#bfbfbf" points="578,-336.5 578,-355.5 625,-355.5 625,-336.5 578,-336.5"/>
<text text-anchor="middle" x="601.5" y="-343.5" font-family="FreeSans.ttf" font-size="10.00" fill="#000000">vector</text>
</g>
<!-- Node0&#45;&gt;Node2 -->
<g id="edge2" class="edge">
<title>Node0&#45;&gt;Node2</title>
<path fill="none" stroke="#191970" d="M370.0878,-393.4166C420.3876,-385.7082 494.4411,-373.2777 567.9085,-355.9155"/>
<polygon fill="#191970" stroke="#191970" points="568.8885,-359.2798 577.7984,-353.5471 567.2582,-352.4723 568.8885,-359.2798"/>
</g>
<!-- Node3 -->
<g id="node4" class="node">
<title>Node3</title>
<g id="a_node4"><a xlink:href="MatrixDynSize_8h.html" target="_top" xlink:title="iDynTree/Core/MatrixDynSize.h">
<polygon fill="none" stroke="#000000" points="185,-280.5 185,-299.5 352,-299.5 352,-280.5 185,-280.5"/>
<text text-anchor="middle" x="268.5" y="-287.5" font-family="FreeSans.ttf" font-size="10.00" fill="#000000">iDynTree/Core/MatrixDynSize.h</text>
</a>
</g>
</g>
<!-- Node0&#45;&gt;Node3 -->
<g id="edge3" class="edge">
<title>Node0&#45;&gt;Node3</title>
<path fill="none" stroke="#191970" d="M306.9191,-392.4509C300.007,-374.0186 284.7095,-333.2254 275.6411,-309.043"/>
<polygon fill="#191970" stroke="#191970" points="278.8603,-307.6592 272.0718,-299.5249 272.306,-310.1171 278.8603,-307.6592"/>
</g>
<!-- Node4 -->
<g id="node5" class="node">
<title>Node4</title>
<g id="a_node5"><a xlink:href="Position_8h.html" target="_top" xlink:title="iDynTree/Core/Position.h">
<polygon fill="none" stroke="#000000" points="370.5,-280.5 370.5,-299.5 506.5,-299.5 506.5,-280.5 370.5,-280.5"/>
<text text-anchor="middle" x="438.5" y="-287.5" font-family="FreeSans.ttf" font-size="10.00" fill="#000000">iDynTree/Core/Position.h</text>
</a>
</g>
</g>
<!-- Node0&#45;&gt;Node4 -->
<g id="edge5" class="edge">
<title>Node0&#45;&gt;Node4</title>
<path fill="none" stroke="#191970" d="M321.4132,-392.4509C343.3289,-373.2747 392.9043,-329.8962 419.9871,-306.1988"/>
<polygon fill="#191970" stroke="#191970" points="422.3934,-308.744 427.6144,-299.5249 417.7838,-303.4759 422.3934,-308.744"/>
</g>
<!-- Node26 -->
<g id="node27" class="node">
<title>Node26</title>
<g id="a_node27"><a xlink:href="Transform_8h.html" target="_top" xlink:title="iDynTree/Core/Transform.h">
<polygon fill="none" stroke="#000000" points="413.5,-336.5 413.5,-355.5 559.5,-355.5 559.5,-336.5 413.5,-336.5"/>
<text text-anchor="middle" x="486.5" y="-343.5" font-family="FreeSans.ttf" font-size="10.00" fill="#000000">iDynTree/Core/Transform.h</text>
</a>
</g>
</g>
<!-- Node0&#45;&gt;Node26 -->
<g id="edge41" class="edge">
<title>Node0&#45;&gt;Node26</title>
<path fill="none" stroke="#191970" d="M340.7555,-392.3733C370.1483,-383.021 414.9292,-368.7725 447.0934,-358.5385"/>
<polygon fill="#191970" stroke="#191970" points="448.1713,-361.8685 456.6393,-355.5011 446.0488,-355.198 448.1713,-361.8685"/>
</g>
<!-- Node27 -->
<g id="node28" class="node">
<title>Node27</title>
<g id="a_node28"><a xlink:href="VectorDynSize_8h.html" target="_top" xlink:title="iDynTree/Core/VectorDynSize.h">
<polygon fill="none" stroke="#000000" points="0,-112.5 0,-131.5 167,-131.5 167,-112.5 0,-112.5"/>
<text text-anchor="middle" x="83.5" y="-119.5" font-family="FreeSans.ttf" font-size="10.00" fill="#000000">iDynTree/Core/VectorDynSize.h</text>
</a>
</g>
</g>
<!-- Node0&#45;&gt;Node27 -->
<g id="edge46" class="edge">
<title>Node0&#45;&gt;Node27</title>
<path fill="none" stroke="#191970" d="M250.8887,-395.496C189.114,-385.0608 101.5,-358.2332 101.5,-290 101.5,-290 101.5,-290 101.5,-234 101.5,-201.1472 93.8569,-163.5528 88.5316,-141.3462"/>
<polygon fill="#191970" stroke="#191970" points="91.8935,-140.3622 86.079,-131.5055 85.1013,-142.0551 91.8935,-140.3622"/>
</g>
<!-- Node3&#45;&gt;Node1 -->
<g id="edge4" class="edge">
<title>Node3&#45;&gt;Node1</title>
<path fill="none" stroke="#191970" d="M270.7452,-280.211C275.9825,-258.674 290.4239,-206.0719 314.5,-168 332.9798,-138.7775 338.9997,-130.033 368.5,-112 413.0672,-84.7569 432.5851,-91.5792 486.4582,-76.1677"/>
<polygon fill="#191970" stroke="#191970" points="487.5902,-79.4823 496.1645,-73.2588 485.5806,-72.7769 487.5902,-79.4823"/>
</g>
<!-- Node4&#45;&gt;Node1 -->
<g id="edge40" class="edge">
<title>Node4&#45;&gt;Node1</title>
<path fill="none" stroke="#191970" d="M416.74,-280.4399C376.3921,-261.2986 296.5936,-215.9721 325.5,-168 343.654,-137.8722 436.9541,-97.8074 486.879,-78.0564"/>
<polygon fill="#191970" stroke="#191970" points="488.2156,-81.2918 496.2506,-74.386 485.6628,-74.7739 488.2156,-81.2918"/>
</g>
<!-- Node5 -->
<g id="node6" class="node">
<title>Node5</title>
<g id="a_node6"><a xlink:href="PositionRaw_8h.html" target="_top" xlink:title="iDynTree/Core/PositionRaw.h">
<polygon fill="none" stroke="#000000" points="334.5,-168.5 334.5,-187.5 490.5,-187.5 490.5,-168.5 334.5,-168.5"/>
<text text-anchor="middle" x="412.5" y="-175.5" font-family="FreeSans.ttf" font-size="10.00" fill="#000000">iDynTree/Core/PositionRaw.h</text>
</a>
</g>
</g>
<!-- Node4&#45;&gt;Node5 -->
<g id="edge6" class="edge">
<title>Node4&#45;&gt;Node5</title>
<path fill="none" stroke="#191970" d="M436.2833,-280.4509C432.0235,-262.1013 422.6193,-221.5908 416.9965,-197.3693"/>
<polygon fill="#191970" stroke="#191970" points="420.3818,-196.4744 414.7111,-187.5249 413.5632,-198.0573 420.3818,-196.4744"/>
</g>
<!-- Node21 -->
<g id="node22" class="node">
<title>Node21</title>
<g id="a_node22"><a xlink:href="Rotation_8h.html" target="_top" xlink:title="iDynTree/Core/Rotation.h">
<polygon fill="none" stroke="#000000" points="571,-224.5 571,-243.5 708,-243.5 708,-224.5 571,-224.5"/>
<text text-anchor="middle" x="639.5" y="-231.5" font-family="FreeSans.ttf" font-size="10.00" fill="#000000">iDynTree/Core/Rotation.h</text>
</a>
</g>
</g>
<!-- Node4&#45;&gt;Node21 -->
<g id="edge26" class="edge">
<title>Node4&#45;&gt;Node21</title>
<path fill="none" stroke="#191970" d="M473.0531,-280.3733C506.9104,-270.9404 558.646,-256.5265 595.4426,-246.2747"/>
<polygon fill="#191970" stroke="#191970" points="596.704,-249.5566 605.3978,-243.5011 594.8253,-242.8135 596.704,-249.5566"/>
</g>
<!-- Node5&#45;&gt;Node1 -->
<g id="edge25" class="edge">
<title>Node5&#45;&gt;Node1</title>
<path fill="none" stroke="#191970" d="M421.5375,-168.4509C439.5299,-149.4401 480.0349,-106.6423 502.5848,-82.816"/>
<polygon fill="#191970" stroke="#191970" points="505.1535,-85.1937 509.4854,-75.5249 500.0695,-80.382 505.1535,-85.1937"/>
</g>
<!-- Node6 -->
<g id="node7" class="node">
<title>Node6</title>
<g id="a_node7"><a xlink:href="VectorFixSize_8h.html" target="_top" xlink:title="iDynTree/Core/VectorFixSize.h">
<polygon fill="none" stroke="#000000" points="623,-112.5 623,-131.5 784,-131.5 784,-112.5 623,-112.5"/>
<text text-anchor="middle" x="703.5" y="-119.5" font-family="FreeSans.ttf" font-size="10.00" fill="#000000">iDynTree/Core/VectorFixSize.h</text>
</a>
</g>
</g>
<!-- Node5&#45;&gt;Node6 -->
<g id="edge7" class="edge">
<title>Node5&#45;&gt;Node6</title>
<path fill="none" stroke="#191970" d="M462.194,-168.4369C512.5196,-158.7522 590.3723,-143.7703 643.9651,-133.4569"/>
<polygon fill="#191970" stroke="#191970" points="644.8525,-136.8504 654.0109,-131.5237 643.5297,-129.9765 644.8525,-136.8504"/>
</g>
<!-- Node6&#45;&gt;Node1 -->
<g id="edge21" class="edge">
<title>Node6&#45;&gt;Node1</title>
<path fill="none" stroke="#191970" d="M671.6974,-112.3733C637.8055,-102.1141 584.4497,-85.9631 550.4873,-75.6827"/>
<polygon fill="#191970" stroke="#191970" points="551.1981,-72.241 540.6129,-72.6936 549.17,-78.9408 551.1981,-72.241"/>
</g>
<!-- Node7 -->
<g id="node8" class="node">
<title>Node7</title>
<g id="a_node8"><a xlink:href="Utils_8h.html" target="_top" xlink:title="iDynTree/Core/Utils.h">
<polygon fill="none" stroke="#000000" points="718,-56.5 718,-75.5 837,-75.5 837,-56.5 718,-56.5"/>
<text text-anchor="middle" x="777.5" y="-63.5" font-family="FreeSans.ttf" font-size="10.00" fill="#000000">iDynTree/Core/Utils.h</text>
</a>
</g>
</g>
<!-- Node6&#45;&gt;Node7 -->
<g id="edge8" class="edge">
<title>Node6&#45;&gt;Node7</title>
<path fill="none" stroke="#191970" d="M716.3898,-112.2455C727.4254,-103.8943 743.5292,-91.7076 756.4353,-81.9408"/>
<polygon fill="#191970" stroke="#191970" points="758.8959,-84.4681 764.7579,-75.6427 754.6717,-78.8862 758.8959,-84.4681"/>
</g>
<!-- Node10 -->
<g id="node11" class="node">
<title>Node10</title>
<g id="a_node11"><a xlink:href="Span_8h.html" target="_top" xlink:title="iDynTree/Core/Span.h">
<polygon fill="none" stroke="#000000" points="357,-56.5 357,-75.5 478,-75.5 478,-56.5 357,-56.5"/>
<text text-anchor="middle" x="417.5" y="-63.5" font-family="FreeSans.ttf" font-size="10.00" fill="#000000">iDynTree/Core/Span.h</text>
</a>
</g>
</g>
<!-- Node6&#45;&gt;Node10 -->
<g id="edge11" class="edge">
<title>Node6&#45;&gt;Node10</title>
<path fill="none" stroke="#191970" d="M654.6598,-112.4369C605.199,-102.7522 528.684,-87.7703 476.012,-77.4569"/>
<polygon fill="#191970" stroke="#191970" points="476.625,-74.0105 466.1387,-75.5237 475.2798,-80.8801 476.625,-74.0105"/>
</g>
<!-- Node11 -->
<g id="node12" class="node">
<title>Node11</title>
<polygon fill="none" stroke="#bfbfbf" points="665.5,-.5 665.5,-19.5 717.5,-19.5 717.5,-.5 665.5,-.5"/>
<text text-anchor="middle" x="691.5" y="-7.5" font-family="FreeSans.ttf" font-size="10.00" fill="#000000">cassert</text>
</g>
<!-- Node6&#45;&gt;Node11 -->
<g id="edge23" class="edge">
<title>Node6&#45;&gt;Node11</title>
<path fill="none" stroke="#191970" d="M677.9738,-112.3698C662.3579,-104.9914 643.6711,-93.1364 634.5,-76 623.9683,-56.3213 644.4688,-37.4201 663.7532,-24.9269"/>
<polygon fill="#191970" stroke="#191970" points="665.6888,-27.8461 672.4122,-19.6579 662.05,-21.8662 665.6888,-27.8461"/>
</g>
<!-- Node19 -->
<g id="node20" class="node">
<title>Node19</title>
<polygon fill="none" stroke="#bfbfbf" points="643.5,-56.5 643.5,-75.5 699.5,-75.5 699.5,-56.5 643.5,-56.5"/>
<text text-anchor="middle" x="671.5" y="-63.5" font-family="FreeSans.ttf" font-size="10.00" fill="#000000">sstream</text>
</g>
<!-- Node6&#45;&gt;Node19 -->
<g id="edge22" class="edge">
<title>Node6&#45;&gt;Node19</title>
<path fill="none" stroke="#191970" d="M697.926,-112.2455C693.5669,-104.617 687.3789,-93.7881 682.0867,-84.5267"/>
<polygon fill="#191970" stroke="#191970" points="685.0104,-82.5886 677.0101,-75.6427 678.9327,-86.0616 685.0104,-82.5886"/>
</g>
<!-- Node20 -->
<g id="node21" class="node">
<title>Node20</title>
<polygon fill="none" stroke="#bfbfbf" points="855.5,-56.5 855.5,-75.5 905.5,-75.5 905.5,-56.5 855.5,-56.5"/>
<text text-anchor="middle" x="880.5" y="-63.5" font-family="FreeSans.ttf" font-size="10.00" fill="#000000">cstring</text>
</g>
<!-- Node6&#45;&gt;Node20 -->
<g id="edge24" class="edge">
<title>Node6&#45;&gt;Node20</title>
<path fill="none" stroke="#191970" d="M733.9274,-112.3733C765.01,-102.5392 813.2036,-87.2915 845.7637,-76.99"/>
<polygon fill="#191970" stroke="#191970" points="846.852,-80.3168 855.3304,-73.9633 844.7404,-73.6428 846.852,-80.3168"/>
</g>
<!-- Node8 -->
<g id="node9" class="node">
<title>Node8</title>
<polygon fill="none" stroke="#bfbfbf" points="594,-.5 594,-19.5 647,-19.5 647,-.5 594,-.5"/>
<text text-anchor="middle" x="620.5" y="-7.5" font-family="FreeSans.ttf" font-size="10.00" fill="#000000">cstddef</text>
</g>
<!-- Node7&#45;&gt;Node8 -->
<g id="edge9" class="edge">
<title>Node7&#45;&gt;Node8</title>
<path fill="none" stroke="#191970" d="M750.5107,-56.3733C724.6301,-47.1419 685.3752,-33.1402 656.7711,-22.9375"/>
<polygon fill="#191970" stroke="#191970" points="657.7317,-19.5642 647.1371,-19.5011 655.38,-26.1573 657.7317,-19.5642"/>
</g>
<!-- Node9 -->
<g id="node10" class="node">
<title>Node9</title>
<polygon fill="none" stroke="#bfbfbf" points="737.5,-.5 737.5,-19.5 817.5,-19.5 817.5,-.5 737.5,-.5"/>
<text text-anchor="middle" x="777.5" y="-7.5" font-family="FreeSans.ttf" font-size="10.00" fill="#000000">CoreExport.h</text>
</g>
<!-- Node7&#45;&gt;Node9 -->
<g id="edge10" class="edge">
<title>Node7&#45;&gt;Node9</title>
<path fill="none" stroke="#191970" d="M777.5,-56.2455C777.5,-48.9382 777.5,-38.6944 777.5,-29.7046"/>
<polygon fill="#191970" stroke="#191970" points="781.0001,-29.6426 777.5,-19.6427 774.0001,-29.6427 781.0001,-29.6426"/>
</g>
<!-- Node10&#45;&gt;Node8 -->
<g id="edge15" class="edge">
<title>Node10&#45;&gt;Node8</title>
<path fill="none" stroke="#191970" d="M452.37,-56.4187C484.113,-47.6913 532.5383,-34.3644 583.8187,-20.1845"/>
<polygon fill="#191970" stroke="#191970" points="585.0604,-23.4725 593.7655,-17.4332 583.1943,-16.7258 585.0604,-23.4725"/>
</g>
<!-- Node10&#45;&gt;Node11 -->
<g id="edge12" class="edge">
<title>Node10&#45;&gt;Node11</title>
<path fill="none" stroke="#191970" d="M474.7849,-56.4373C521.1125,-48.3713 588.1998,-35.943 655.2953,-20.1412"/>
<polygon fill="#191970" stroke="#191970" points="656.2746,-23.506 665.1923,-17.7854 654.6536,-16.6962 656.2746,-23.506"/>
</g>
<!-- Node12 -->
<g id="node13" class="node">
<title>Node12</title>
<polygon fill="none" stroke="#bfbfbf" points="317.5,-.5 317.5,-19.5 381.5,-19.5 381.5,-.5 317.5,-.5"/>
<text text-anchor="middle" x="349.5" y="-7.5" font-family="FreeSans.ttf" font-size="10.00" fill="#000000">algorithm</text>
</g>
<!-- Node10&#45;&gt;Node12 -->
<g id="edge13" class="edge">
<title>Node10&#45;&gt;Node12</title>
<path fill="none" stroke="#191970" d="M405.6553,-56.2455C395.612,-47.9746 381.0005,-35.9416 369.1996,-26.2232"/>
<polygon fill="#191970" stroke="#191970" points="371.1533,-23.298 361.209,-19.6427 366.7033,-28.7015 371.1533,-23.298"/>
</g>
<!-- Node13 -->
<g id="node14" class="node">
<title>Node13</title>
<polygon fill="none" stroke="#bfbfbf" points="399.5,-.5 399.5,-19.5 441.5,-19.5 441.5,-.5 399.5,-.5"/>
<text text-anchor="middle" x="420.5" y="-7.5" font-family="FreeSans.ttf" font-size="10.00" fill="#000000">array</text>
</g>
<!-- Node10&#45;&gt;Node13 -->
<g id="edge14" class="edge">
<title>Node10&#45;&gt;Node13</title>
<path fill="none" stroke="#191970" d="M418.0226,-56.2455C418.414,-48.9382 418.9628,-38.6944 419.4444,-29.7046"/>
<polygon fill="#191970" stroke="#191970" points="422.9434,-29.8156 419.9834,-19.6427 415.9534,-29.4411 422.9434,-29.8156"/>
</g>
<!-- Node14 -->
<g id="node15" class="node">
<title>Node14</title>
<polygon fill="none" stroke="#bfbfbf" points="460,-.5 460,-19.5 513,-19.5 513,-.5 460,-.5"/>
<text text-anchor="middle" x="486.5" y="-7.5" font-family="FreeSans.ttf" font-size="10.00" fill="#000000">iterator</text>
</g>
<!-- Node10&#45;&gt;Node14 -->
<g id="edge16" class="edge">
<title>Node10&#45;&gt;Node14</title>
<path fill="none" stroke="#191970" d="M429.5189,-56.2455C439.7098,-47.9746 454.5362,-35.9416 466.5107,-26.2232"/>
<polygon fill="#191970" stroke="#191970" points="469.0598,-28.662 474.6188,-19.6427 464.6486,-23.2268 469.0598,-28.662"/>
</g>
<!-- Node15 -->
<g id="node16" class="node">
<title>Node15</title>
<polygon fill="none" stroke="#bfbfbf" points="531.5,-.5 531.5,-19.5 575.5,-19.5 575.5,-.5 531.5,-.5"/>
<text text-anchor="middle" x="553.5" y="-7.5" font-family="FreeSans.ttf" font-size="10.00" fill="#000000">limits</text>
</g>
<!-- Node10&#45;&gt;Node15 -->
<g id="edge17" class="edge">
<title>Node10&#45;&gt;Node15</title>
<path fill="none" stroke="#191970" d="M440.8792,-56.3733C463.2727,-47.1524 497.225,-33.1721 521.9958,-22.9723"/>
<polygon fill="#191970" stroke="#191970" points="523.4123,-26.1742 531.3264,-19.1303 520.747,-19.7015 523.4123,-26.1742"/>
</g>
<!-- Node16 -->
<g id="node17" class="node">
<title>Node16</title>
<polygon fill="none" stroke="#bfbfbf" points="84,-.5 84,-19.5 149,-19.5 149,-.5 84,-.5"/>
<text text-anchor="middle" x="116.5" y="-7.5" font-family="FreeSans.ttf" font-size="10.00" fill="#000000">stdexcept</text>
</g>
<!-- Node10&#45;&gt;Node16 -->
<g id="edge18" class="edge">
<title>Node10&#45;&gt;Node16</title>
<path fill="none" stroke="#191970" d="M357.3945,-56.4889C306.832,-48.2322 232.417,-35.4856 159.0099,-20.2286"/>
<polygon fill="#191970" stroke="#191970" points="159.636,-16.7838 149.1307,-18.1586 158.2003,-23.6351 159.636,-16.7838"/>
</g>
<!-- Node17 -->
<g id="node18" class="node">
<title>Node17</title>
<polygon fill="none" stroke="#bfbfbf" points="167,-.5 167,-19.5 236,-19.5 236,-.5 167,-.5"/>
<text text-anchor="middle" x="201.5" y="-7.5" font-family="FreeSans.ttf" font-size="10.00" fill="#000000">type_traits</text>
</g>
<!-- Node10&#45;&gt;Node17 -->
<g id="edge19" class="edge">
<title>Node10&#45;&gt;Node17</title>
<path fill="none" stroke="#191970" d="M380.3683,-56.3733C343.0061,-46.6868 285.3847,-31.7479 245.6915,-21.4571"/>
<polygon fill="#191970" stroke="#191970" points="246.5679,-18.0686 236.0095,-18.9469 244.8111,-24.8446 246.5679,-18.0686"/>
</g>
<!-- Node18 -->
<g id="node19" class="node">
<title>Node18</title>
<polygon fill="none" stroke="#bfbfbf" points="254,-.5 254,-19.5 299,-19.5 299,-.5 254,-.5"/>
<text text-anchor="middle" x="276.5" y="-7.5" font-family="FreeSans.ttf" font-size="10.00" fill="#000000">utility</text>
</g>
<!-- Node10&#45;&gt;Node18 -->
<g id="edge20" class="edge">
<title>Node10&#45;&gt;Node18</title>
<path fill="none" stroke="#191970" d="M393.2612,-56.3733C369.8022,-47.0562 334.1077,-32.8797 308.3613,-22.6541"/>
<polygon fill="#191970" stroke="#191970" points="309.6128,-19.3853 299.0271,-18.9469 307.029,-25.891 309.6128,-19.3853"/>
</g>
<!-- Node21&#45;&gt;Node1 -->
<g id="edge27" class="edge">
<title>Node21&#45;&gt;Node1</title>
<path fill="none" stroke="#191970" d="M621.2691,-224.3374C607.2756,-216.1773 588.2525,-203.378 575.5,-188 549.3844,-156.5077 532.3376,-111.0607 524.1647,-85.454"/>
<polygon fill="#191970" stroke="#191970" points="527.4806,-84.3289 521.2047,-75.7929 520.7877,-86.3795 527.4806,-84.3289"/>
</g>
<!-- Node21&#45;&gt;Node6 -->
<g id="edge39" class="edge">
<title>Node21&#45;&gt;Node6</title>
<path fill="none" stroke="#191970" d="M696.1366,-224.4697C717.153,-217.8875 738.9176,-206.77 751.5,-188 763.2966,-170.4022 744.9356,-150.8445 727.6227,-137.6205"/>
<polygon fill="#191970" stroke="#191970" points="729.5083,-134.6655 719.3446,-131.6738 725.4243,-140.3507 729.5083,-134.6655"/>
</g>
<!-- Node22 -->
<g id="node23" class="node">
<title>Node22</title>
<g id="a_node23"><a xlink:href="GeomVector3_8h.html" target="_top" xlink:title="iDynTree/Core/GeomVector3.h">
<polygon fill="none" stroke="#000000" points="799,-168.5 799,-187.5 962,-187.5 962,-168.5 799,-168.5"/>
<text text-anchor="middle" x="880.5" y="-175.5" font-family="FreeSans.ttf" font-size="10.00" fill="#000000">iDynTree/Core/GeomVector3.h</text>
</a>
</g>
</g>
<!-- Node21&#45;&gt;Node22 -->
<g id="edge28" class="edge">
<title>Node21&#45;&gt;Node22</title>
<path fill="none" stroke="#191970" d="M680.6555,-224.4369C721.8142,-214.8731 785.205,-200.1432 829.5242,-189.845"/>
<polygon fill="#191970" stroke="#191970" points="830.5659,-193.1963 839.5142,-187.5237 828.9815,-186.3779 830.5659,-193.1963"/>
</g>
<!-- Node23 -->
<g id="node24" class="node">
<title>Node23</title>
<g id="a_node24"><a xlink:href="RotationRaw_8h.html" target="_top" xlink:title="iDynTree/Core/RotationRaw.h">
<polygon fill="none" stroke="#000000" points="584.5,-168.5 584.5,-187.5 742.5,-187.5 742.5,-168.5 584.5,-168.5"/>
<text text-anchor="middle" x="663.5" y="-175.5" font-family="FreeSans.ttf" font-size="10.00" fill="#000000">iDynTree/Core/RotationRaw.h</text>
</a>
</g>
</g>
<!-- Node21&#45;&gt;Node23 -->
<g id="edge30" class="edge">
<title>Node21&#45;&gt;Node23</title>
<path fill="none" stroke="#191970" d="M643.6805,-224.2455C646.881,-216.7776 651.396,-206.2427 655.3084,-197.1137"/>
<polygon fill="#191970" stroke="#191970" points="658.6452,-198.2129 659.3674,-187.6427 652.2112,-195.4554 658.6452,-198.2129"/>
</g>
<!-- Node22&#45;&gt;Node6 -->
<g id="edge29" class="edge">
<title>Node22&#45;&gt;Node6</title>
<path fill="none" stroke="#191970" d="M850.0726,-168.3733C820.5128,-159.021 775.4774,-144.7725 743.1305,-134.5385"/>
<polygon fill="#191970" stroke="#191970" points="744.1203,-131.1807 733.5303,-131.5011 742.0087,-137.8546 744.1203,-131.1807"/>
</g>
<!-- Node23&#45;&gt;Node1 -->
<g id="edge38" class="edge">
<title>Node23&#45;&gt;Node1</title>
<path fill="none" stroke="#191970" d="M651.1374,-168.4509C626.204,-149.1921 569.6667,-105.5218 539.0764,-81.8935"/>
<polygon fill="#191970" stroke="#191970" points="540.8849,-78.8679 530.8313,-75.5249 536.6059,-84.4078 540.8849,-78.8679"/>
</g>
<!-- Node24 -->
<g id="node25" class="node">
<title>Node24</title>
<g id="a_node25"><a xlink:href="MatrixFixSize_8h.html" target="_top" xlink:title="iDynTree/Core/MatrixFixSize.h">
<polygon fill="none" stroke="#000000" points="802,-112.5 802,-131.5 963,-131.5 963,-112.5 802,-112.5"/>
<text text-anchor="middle" x="882.5" y="-119.5" font-family="FreeSans.ttf" font-size="10.00" fill="#000000">iDynTree/Core/MatrixFixSize.h</text>
</a>
</g>
</g>
<!-- Node23&#45;&gt;Node24 -->
<g id="edge31" class="edge">
<title>Node23&#45;&gt;Node24</title>
<path fill="none" stroke="#191970" d="M701.1474,-168.3733C738.352,-158.8598 795.3703,-144.2797 835.5216,-134.0127"/>
<polygon fill="#191970" stroke="#191970" points="836.5227,-137.3695 845.3438,-131.5011 834.7884,-130.5877 836.5227,-137.3695"/>
</g>
<!-- Node24&#45;&gt;Node1 -->
<g id="edge35" class="edge">
<title>Node24&#45;&gt;Node1</title>
<path fill="none" stroke="#191970" d="M820.3398,-112.4369C742.1869,-100.4134 610.9619,-80.2249 550.6227,-70.942"/>
<polygon fill="#191970" stroke="#191970" points="550.9636,-67.4533 540.5476,-69.3919 549.8991,-74.3719 550.9636,-67.4533"/>
</g>
<!-- Node24&#45;&gt;Node7 -->
<g id="edge32" class="edge">
<title>Node24&#45;&gt;Node7</title>
<path fill="none" stroke="#191970" d="M864.2104,-112.2455C847.7238,-103.4527 823.2648,-90.4079 804.5235,-80.4125"/>
<polygon fill="#191970" stroke="#191970" points="806.0506,-77.2604 795.58,-75.6427 802.7565,-83.4368 806.0506,-77.2604"/>
</g>
<!-- Node24&#45;&gt;Node11 -->
<g id="edge33" class="edge">
<title>Node24&#45;&gt;Node11</title>
<path fill="none" stroke="#191970" d="M893.6192,-112.2219C907.8194,-98.5629 928.9248,-73.4844 914.5,-56 860.9157,8.9499 810.5298,-38.997 728.5,-20 728.1718,-19.924 727.8422,-19.8471 727.5112,-19.7693"/>
<polygon fill="#191970" stroke="#191970" points="728.2657,-16.3505 717.7171,-17.3386 726.5796,-23.1444 728.2657,-16.3505"/>
</g>
<!-- Node24&#45;&gt;Node19 -->
<g id="edge37" class="edge">
<title>Node24&#45;&gt;Node19</title>
<path fill="none" stroke="#191970" d="M846.2278,-112.3733C808.0464,-102.2398 748.2062,-86.358 709.4165,-76.0632"/>
<polygon fill="#191970" stroke="#191970" points="710.1156,-72.6276 699.5524,-73.4452 708.3199,-79.3934 710.1156,-72.6276"/>
</g>
<!-- Node24&#45;&gt;Node20 -->
<g id="edge34" class="edge">
<title>Node24&#45;&gt;Node20</title>
<path fill="none" stroke="#191970" d="M882.1516,-112.2455C881.8907,-104.9382 881.5248,-94.6944 881.2037,-85.7046"/>
<polygon fill="#191970" stroke="#191970" points="884.6992,-85.5113 880.8444,-75.6427 877.7036,-85.7613 884.6992,-85.5113"/>
</g>
<!-- Node25 -->
<g id="node26" class="node">
<title>Node25</title>
<polygon fill="none" stroke="#bfbfbf" points="961.5,-56.5 961.5,-75.5 1021.5,-75.5 1021.5,-56.5 961.5,-56.5"/>
<text text-anchor="middle" x="991.5" y="-63.5" font-family="FreeSans.ttf" font-size="10.00" fill="#000000">iostream</text>
</g>
<!-- Node24&#45;&gt;Node25 -->
<g id="edge36" class="edge">
<title>Node24&#45;&gt;Node25</title>
<path fill="none" stroke="#191970" d="M901.4864,-112.2455C918.6792,-103.4125 944.2238,-90.2887 963.7132,-80.2758"/>
<polygon fill="#191970" stroke="#191970" points="965.4359,-83.3257 972.7312,-75.6427 962.237,-77.0993 965.4359,-83.3257"/>
</g>
<!-- Node26&#45;&gt;Node1 -->
<g id="edge45" class="edge">
<title>Node26&#45;&gt;Node1</title>
<path fill="none" stroke="#191970" d="M494.954,-336.2059C501.9685,-327.397 511.4288,-313.7602 515.5,-300 538.1524,-223.4365 527.7937,-126.5239 521.7576,-85.625"/>
<polygon fill="#191970" stroke="#191970" points="525.1994,-84.9798 520.2008,-75.6383 518.2829,-86.0581 525.1994,-84.9798"/>
</g>
<!-- Node26&#45;&gt;Node4 -->
<g id="edge42" class="edge">
<title>Node26&#45;&gt;Node4</title>
<path fill="none" stroke="#191970" d="M478.139,-336.2455C471.325,-328.2958 461.5319,-316.8706 453.3848,-307.3656"/>
<polygon fill="#191970" stroke="#191970" points="455.9305,-304.9575 446.7651,-299.6427 450.6157,-309.513 455.9305,-304.9575"/>
</g>
<!-- Node26&#45;&gt;Node21 -->
<g id="edge43" class="edge">
<title>Node26&#45;&gt;Node21</title>
<path fill="none" stroke="#191970" d="M499.5447,-336.4509C525.9666,-317.1094 586.023,-273.1465 618.2024,-249.5904"/>
<polygon fill="#191970" stroke="#191970" points="620.4866,-252.2559 626.4883,-243.5249 616.3518,-246.6075 620.4866,-252.2559"/>
</g>
<!-- Node26&#45;&gt;Node24 -->
<g id="edge44" class="edge">
<title>Node26&#45;&gt;Node24</title>
<path fill="none" stroke="#191970" d="M541.0976,-336.4326C656.7079,-314.9458 919.8654,-259.1266 971.5,-188 988.2235,-164.9634 955.8724,-146.5056 925.595,-135.0308"/>
<polygon fill="#191970" stroke="#191970" points="926.4969,-131.636 915.9024,-131.5537 924.1331,-138.2249 926.4969,-131.636"/>
</g>
<!-- Node27&#45;&gt;Node1 -->
<g id="edge48" class="edge">
<title>Node27&#45;&gt;Node1</title>
<path fill="none" stroke="#191970" d="M167.377,-113.3491C269.0871,-102.7293 432.7084,-85.1873 486.3335,-75.6997"/>
<polygon fill="#191970" stroke="#191970" points="487.1534,-79.1057 496.2933,-73.7472 485.8067,-72.2364 487.1534,-79.1057"/>
</g>
<!-- Node27&#45;&gt;Node10 -->
<g id="edge47" class="edge">
<title>Node27&#45;&gt;Node10</title>
<path fill="none" stroke="#191970" d="M140.5371,-112.4369C198.7794,-102.6717 289.1442,-87.5207 350.6966,-77.2006"/>
<polygon fill="#191970" stroke="#191970" points="351.4145,-80.6291 360.6981,-75.5237 350.257,-73.7255 351.4145,-80.6291"/>
</g>
</g>
</svg>
