<?xml version="1.0" encoding="UTF-8" standalone="no"?>
<!DOCTYPE svg PUBLIC "-//W3C//DTD SVG 1.1//EN"
 "http://www.w3.org/Graphics/SVG/1.1/DTD/svg11.dtd">
<!-- Generated by graphviz version 2.40.1 (20161225.0304)
 -->
<!-- Title: CubicSpline.cpp Pages: 1 -->
<svg width="1745pt" height="543pt"
 viewBox="0.00 0.00 1744.50 543.00" xmlns="http://www.w3.org/2000/svg" xmlns:xlink="http://www.w3.org/1999/xlink">
<g id="graph0" class="graph" transform="scale(1 1) rotate(0) translate(4 539)">
<title>CubicSpline.cpp</title>
<!-- Node0 -->
<g id="node1" class="node">
<title>Node0</title>
<polygon fill="#bfbfbf" stroke="#000000" points="1406,-515.5 1406,-534.5 1500,-534.5 1500,-515.5 1406,-515.5"/>
<text text-anchor="middle" x="1453" y="-522.5" font-family="FreeSans.ttf" font-size="10.00" fill="#000000">CubicSpline.cpp</text>
</g>
<!-- Node1 -->
<g id="node2" class="node">
<title>Node1</title>
<g id="a_node2"><a xlink:href="CubicSpline_8h.html" target="_top" xlink:title="iDynTree/Core/CubicSpline.h">
<polygon fill="none" stroke="#000000" points="0,-168.5 0,-187.5 154,-187.5 154,-168.5 0,-168.5"/>
<text text-anchor="middle" x="77" y="-175.5" font-family="FreeSans.ttf" font-size="10.00" fill="#000000">iDynTree/Core/CubicSpline.h</text>
</a>
</g>
</g>
<!-- Node0&#45;&gt;Node1 -->
<g id="edge1" class="edge">
<title>Node0&#45;&gt;Node1</title>
<path fill="none" stroke="#191970" d="M1405.6317,-523.3869C1167.3369,-514.9673 111,-473.8993 111,-407.5 111,-407.5 111,-407.5 111,-290 111,-255.9677 96.4485,-218.5293 86.3849,-196.7067"/>
<polygon fill="#191970" stroke="#191970" points="89.4939,-195.0954 82.0168,-187.5891 83.181,-198.1198 89.4939,-195.0954"/>
</g>
<!-- Node20 -->
<g id="node21" class="node">
<title>Node20</title>
<g id="a_node21"><a xlink:href="EigenHelpers_8h.html" target="_top" xlink:title="iDynTree/Core/EigenHelpers.h">
<polygon fill="none" stroke="#000000" points="1074.5,-459.5 1074.5,-478.5 1235.5,-478.5 1235.5,-459.5 1074.5,-459.5"/>
<text text-anchor="middle" x="1155" y="-466.5" font-family="FreeSans.ttf" font-size="10.00" fill="#000000">iDynTree/Core/EigenHelpers.h</text>
</a>
</g>
</g>
<!-- Node0&#45;&gt;Node20 -->
<g id="edge24" class="edge">
<title>Node0&#45;&gt;Node20</title>
<path fill="none" stroke="#191970" d="M1405.781,-516.1266C1354.3029,-506.4529 1271.7767,-490.9446 1215.565,-480.3813"/>
<polygon fill="#191970" stroke="#191970" points="1216.2113,-476.9416 1205.7369,-478.5345 1214.9185,-483.8212 1216.2113,-476.9416"/>
</g>
<!-- Node21 -->
<g id="node22" class="node">
<title>Node21</title>
<polygon fill="none" stroke="#bfbfbf" points="1347.5,-398 1347.5,-417 1424.5,-417 1424.5,-398 1347.5,-398"/>
<text text-anchor="middle" x="1386" y="-405" font-family="FreeSans.ttf" font-size="10.00" fill="#000000">Eigen/Dense</text>
</g>
<!-- Node0&#45;&gt;Node21 -->
<g id="edge69" class="edge">
<title>Node0&#45;&gt;Node21</title>
<path fill="none" stroke="#191970" d="M1447.5171,-515.3845C1436.4257,-495.9331 1411.1543,-451.6138 1396.6893,-426.2462"/>
<polygon fill="#191970" stroke="#191970" points="1399.5526,-424.2017 1391.5587,-417.2484 1393.4717,-427.6691 1399.5526,-424.2017"/>
</g>
<!-- Node24 -->
<g id="node25" class="node">
<title>Node24</title>
<polygon fill="none" stroke="#bfbfbf" points="1289,-56.5 1289,-75.5 1349,-75.5 1349,-56.5 1289,-56.5"/>
<text text-anchor="middle" x="1319" y="-63.5" font-family="FreeSans.ttf" font-size="10.00" fill="#000000">iostream</text>
</g>
<!-- Node0&#45;&gt;Node24 -->
<g id="edge72" class="edge">
<title>Node0&#45;&gt;Node24</title>
<path fill="none" stroke="#191970" d="M1453,-515.2511C1453,-495.1182 1453,-447.4826 1453,-407.5 1453,-407.5 1453,-407.5 1453,-178 1453,-127.8615 1397.0869,-95.7644 1357.4958,-79.3216"/>
<polygon fill="#191970" stroke="#191970" points="1358.6614,-76.0186 1348.076,-75.5723 1356.0727,-82.5223 1358.6614,-76.0186"/>
</g>
<!-- Node34 -->
<g id="node35" class="node">
<title>Node34</title>
<polygon fill="none" stroke="#bfbfbf" points="1481,-459.5 1481,-478.5 1561,-478.5 1561,-459.5 1481,-459.5"/>
<text text-anchor="middle" x="1521" y="-466.5" font-family="FreeSans.ttf" font-size="10.00" fill="#000000">Eigen/Sparse</text>
</g>
<!-- Node0&#45;&gt;Node34 -->
<g id="edge70" class="edge">
<title>Node0&#45;&gt;Node34</title>
<path fill="none" stroke="#191970" d="M1464.8447,-515.2455C1474.888,-506.9746 1489.4995,-494.9416 1501.3004,-485.2232"/>
<polygon fill="#191970" stroke="#191970" points="1503.7967,-487.7015 1509.291,-478.6427 1499.3467,-482.298 1503.7967,-487.7015"/>
</g>
<!-- Node35 -->
<g id="node36" class="node">
<title>Node35</title>
<polygon fill="none" stroke="#bfbfbf" points="1579,-459.5 1579,-478.5 1671,-478.5 1671,-459.5 1579,-459.5"/>
<text text-anchor="middle" x="1625" y="-466.5" font-family="FreeSans.ttf" font-size="10.00" fill="#000000">Eigen/SparseLU</text>
</g>
<!-- Node0&#45;&gt;Node35 -->
<g id="edge71" class="edge">
<title>Node0&#45;&gt;Node35</title>
<path fill="none" stroke="#191970" d="M1482.5679,-515.3733C1511.1688,-506.0613 1554.6788,-491.8953 1586.0819,-481.671"/>
<polygon fill="#191970" stroke="#191970" points="1587.3928,-484.9251 1595.818,-478.5011 1585.2257,-478.269 1587.3928,-484.9251"/>
</g>
<!-- Node36 -->
<g id="node37" class="node">
<title>Node36</title>
<polygon fill="none" stroke="#bfbfbf" points="1689.5,-459.5 1689.5,-478.5 1736.5,-478.5 1736.5,-459.5 1689.5,-459.5"/>
<text text-anchor="middle" x="1713" y="-466.5" font-family="FreeSans.ttf" font-size="10.00" fill="#000000">cmath</text>
</g>
<!-- Node0&#45;&gt;Node36 -->
<g id="edge73" class="edge">
<title>Node0&#45;&gt;Node36</title>
<path fill="none" stroke="#191970" d="M1500.2452,-516.7693C1544.204,-508.8107 1611.7006,-495.828 1679.3087,-478.9913"/>
<polygon fill="#191970" stroke="#191970" points="1680.4395,-482.3159 1689.2817,-476.4794 1678.7297,-475.5279 1680.4395,-482.3159"/>
</g>
<!-- Node2 -->
<g id="node3" class="node">
<title>Node2</title>
<polygon fill="none" stroke="#bfbfbf" points="33.5,-112.5 33.5,-131.5 80.5,-131.5 80.5,-112.5 33.5,-112.5"/>
<text text-anchor="middle" x="57" y="-119.5" font-family="FreeSans.ttf" font-size="10.00" fill="#000000">vector</text>
</g>
<!-- Node1&#45;&gt;Node2 -->
<g id="edge2" class="edge">
<title>Node1&#45;&gt;Node2</title>
<path fill="none" stroke="#191970" d="M73.5163,-168.2455C70.8492,-160.7776 67.0867,-150.2427 63.8263,-141.1137"/>
<polygon fill="#191970" stroke="#191970" points="67.1033,-139.8829 60.4438,-131.6427 60.5111,-142.2373 67.1033,-139.8829"/>
</g>
<!-- Node3 -->
<g id="node4" class="node">
<title>Node3</title>
<g id="a_node4"><a xlink:href="VectorFixSize_8h.html" target="_top" xlink:title="iDynTree/Core/VectorFixSize.h">
<polygon fill="none" stroke="#000000" points="793.5,-112.5 793.5,-131.5 954.5,-131.5 954.5,-112.5 793.5,-112.5"/>
<text text-anchor="middle" x="874" y="-119.5" font-family="FreeSans.ttf" font-size="10.00" fill="#000000">iDynTree/Core/VectorFixSize.h</text>
</a>
</g>
</g>
<!-- Node1&#45;&gt;Node3 -->
<g id="edge3" class="edge">
<title>Node1&#45;&gt;Node3</title>
<path fill="none" stroke="#191970" d="M154.1439,-172.5796C302.0801,-162.1851 624.9718,-139.4976 783.091,-128.3876"/>
<polygon fill="#191970" stroke="#191970" points="783.5341,-131.8652 793.2641,-127.6728 783.0434,-124.8824 783.5341,-131.8652"/>
</g>
<!-- Node19 -->
<g id="node20" class="node">
<title>Node19</title>
<g id="a_node20"><a xlink:href="VectorDynSize_8h.html" target="_top" xlink:title="iDynTree/Core/VectorDynSize.h">
<polygon fill="none" stroke="#000000" points="98.5,-112.5 98.5,-131.5 265.5,-131.5 265.5,-112.5 98.5,-112.5"/>
<text text-anchor="middle" x="182" y="-119.5" font-family="FreeSans.ttf" font-size="10.00" fill="#000000">iDynTree/Core/VectorDynSize.h</text>
</a>
</g>
</g>
<!-- Node1&#45;&gt;Node19 -->
<g id="edge21" class="edge">
<title>Node1&#45;&gt;Node19</title>
<path fill="none" stroke="#191970" d="M95.2896,-168.2455C111.7762,-159.4527 136.2352,-146.4079 154.9765,-136.4125"/>
<polygon fill="#191970" stroke="#191970" points="156.7435,-139.4368 163.92,-131.6427 153.4494,-133.2604 156.7435,-139.4368"/>
</g>
<!-- Node4 -->
<g id="node5" class="node">
<title>Node4</title>
<g id="a_node5"><a xlink:href="Utils_8h.html" target="_top" xlink:title="iDynTree/Core/Utils.h">
<polygon fill="none" stroke="#000000" points="1138.5,-56.5 1138.5,-75.5 1257.5,-75.5 1257.5,-56.5 1138.5,-56.5"/>
<text text-anchor="middle" x="1198" y="-63.5" font-family="FreeSans.ttf" font-size="10.00" fill="#000000">iDynTree/Core/Utils.h</text>
</a>
</g>
</g>
<!-- Node3&#45;&gt;Node4 -->
<g id="edge4" class="edge">
<title>Node3&#45;&gt;Node4</title>
<path fill="none" stroke="#191970" d="M929.3294,-112.4369C985.7115,-102.6918 1073.1258,-87.5832 1132.827,-77.2645"/>
<polygon fill="#191970" stroke="#191970" points="1133.641,-80.6758 1142.8988,-75.5237 1132.4487,-73.778 1133.641,-80.6758"/>
</g>
<!-- Node7 -->
<g id="node8" class="node">
<title>Node7</title>
<g id="a_node8"><a xlink:href="Span_8h.html" target="_top" xlink:title="iDynTree/Core/Span.h">
<polygon fill="none" stroke="#000000" points="419.5,-56.5 419.5,-75.5 540.5,-75.5 540.5,-56.5 419.5,-56.5"/>
<text text-anchor="middle" x="480" y="-63.5" font-family="FreeSans.ttf" font-size="10.00" fill="#000000">iDynTree/Core/Span.h</text>
</a>
</g>
</g>
<!-- Node3&#45;&gt;Node7 -->
<g id="edge7" class="edge">
<title>Node3&#45;&gt;Node7</title>
<path fill="none" stroke="#191970" d="M806.6693,-112.458C743.3743,-103.484 645.6862,-89.6236 550.7708,-76.1088"/>
<polygon fill="#191970" stroke="#191970" points="551.0995,-72.6204 540.7059,-74.6755 550.1125,-79.5505 551.0995,-72.6204"/>
</g>
<!-- Node8 -->
<g id="node9" class="node">
<title>Node8</title>
<polygon fill="none" stroke="#bfbfbf" points="848,-.5 848,-19.5 900,-19.5 900,-.5 848,-.5"/>
<text text-anchor="middle" x="874" y="-7.5" font-family="FreeSans.ttf" font-size="10.00" fill="#000000">cassert</text>
</g>
<!-- Node3&#45;&gt;Node8 -->
<g id="edge19" class="edge">
<title>Node3&#45;&gt;Node8</title>
<path fill="none" stroke="#191970" d="M874,-112.4509C874,-94.184 874,-53.9553 874,-29.6976"/>
<polygon fill="#191970" stroke="#191970" points="877.5001,-29.5249 874,-19.5249 870.5001,-29.5249 877.5001,-29.5249"/>
</g>
<!-- Node16 -->
<g id="node17" class="node">
<title>Node16</title>
<polygon fill="none" stroke="#bfbfbf" points="559,-56.5 559,-75.5 603,-75.5 603,-56.5 559,-56.5"/>
<text text-anchor="middle" x="581" y="-63.5" font-family="FreeSans.ttf" font-size="10.00" fill="#000000">string</text>
</g>
<!-- Node3&#45;&gt;Node16 -->
<g id="edge17" class="edge">
<title>Node3&#45;&gt;Node16</title>
<path fill="none" stroke="#191970" d="M823.9644,-112.4369C763.6906,-100.917 664.2003,-81.9018 613.253,-72.1644"/>
<polygon fill="#191970" stroke="#191970" points="613.6291,-68.673 603.1498,-70.2334 612.3149,-75.5485 613.6291,-68.673"/>
</g>
<!-- Node17 -->
<g id="node18" class="node">
<title>Node17</title>
<polygon fill="none" stroke="#bfbfbf" points="958,-56.5 958,-75.5 1014,-75.5 1014,-56.5 958,-56.5"/>
<text text-anchor="middle" x="986" y="-63.5" font-family="FreeSans.ttf" font-size="10.00" fill="#000000">sstream</text>
</g>
<!-- Node3&#45;&gt;Node17 -->
<g id="edge18" class="edge">
<title>Node3&#45;&gt;Node17</title>
<path fill="none" stroke="#191970" d="M893.2535,-112.3733C911.0712,-103.4644 937.7747,-90.1127 957.9594,-80.0203"/>
<polygon fill="#191970" stroke="#191970" points="959.6187,-83.1038 966.9978,-75.5011 956.4882,-76.8428 959.6187,-83.1038"/>
</g>
<!-- Node18 -->
<g id="node19" class="node">
<title>Node18</title>
<polygon fill="none" stroke="#bfbfbf" points="1032,-56.5 1032,-75.5 1082,-75.5 1082,-56.5 1032,-56.5"/>
<text text-anchor="middle" x="1057" y="-63.5" font-family="FreeSans.ttf" font-size="10.00" fill="#000000">cstring</text>
</g>
<!-- Node3&#45;&gt;Node18 -->
<g id="edge20" class="edge">
<title>Node3&#45;&gt;Node18</title>
<path fill="none" stroke="#191970" d="M905.4588,-112.3733C937.8729,-102.4542 988.2853,-87.0275 1021.9557,-76.7239"/>
<polygon fill="#191970" stroke="#191970" points="1023.291,-79.9756 1031.8292,-73.7026 1021.2427,-73.282 1023.291,-79.9756"/>
</g>
<!-- Node5 -->
<g id="node6" class="node">
<title>Node5</title>
<polygon fill="none" stroke="#bfbfbf" points="1017.5,-.5 1017.5,-19.5 1070.5,-19.5 1070.5,-.5 1017.5,-.5"/>
<text text-anchor="middle" x="1044" y="-7.5" font-family="FreeSans.ttf" font-size="10.00" fill="#000000">cstddef</text>
</g>
<!-- Node4&#45;&gt;Node5 -->
<g id="edge5" class="edge">
<title>Node4&#45;&gt;Node5</title>
<path fill="none" stroke="#191970" d="M1171.5265,-56.3733C1146.1403,-47.1419 1107.6355,-33.1402 1079.578,-22.9375"/>
<polygon fill="#191970" stroke="#191970" points="1080.7222,-19.6293 1070.1281,-19.5011 1078.3299,-26.2079 1080.7222,-19.6293"/>
</g>
<!-- Node6 -->
<g id="node7" class="node">
<title>Node6</title>
<polygon fill="none" stroke="#bfbfbf" points="1158,-.5 1158,-19.5 1238,-19.5 1238,-.5 1158,-.5"/>
<text text-anchor="middle" x="1198" y="-7.5" font-family="FreeSans.ttf" font-size="10.00" fill="#000000">CoreExport.h</text>
</g>
<!-- Node4&#45;&gt;Node6 -->
<g id="edge6" class="edge">
<title>Node4&#45;&gt;Node6</title>
<path fill="none" stroke="#191970" d="M1198,-56.2455C1198,-48.9382 1198,-38.6944 1198,-29.7046"/>
<polygon fill="#191970" stroke="#191970" points="1201.5001,-29.6426 1198,-19.6427 1194.5001,-29.6427 1201.5001,-29.6426"/>
</g>
<!-- Node7&#45;&gt;Node5 -->
<g id="edge11" class="edge">
<title>Node7&#45;&gt;Node5</title>
<path fill="none" stroke="#191970" d="M540.6826,-57.1454C543.8319,-56.744 546.9521,-56.3594 550,-56 720.6612,-35.8764 925.3475,-19.1807 1007.3777,-12.7919"/>
<polygon fill="#191970" stroke="#191970" points="1007.7448,-16.274 1017.4444,-12.0117 1007.2038,-9.2949 1007.7448,-16.274"/>
</g>
<!-- Node7&#45;&gt;Node8 -->
<g id="edge8" class="edge">
<title>Node7&#45;&gt;Node8</title>
<path fill="none" stroke="#191970" d="M540.7059,-57.3245C543.8491,-56.8763 546.9616,-56.4327 550,-56 654.5296,-41.1133 778.0403,-23.5986 837.8871,-15.1168"/>
<polygon fill="#191970" stroke="#191970" points="838.5506,-18.5578 847.9605,-13.6892 837.5683,-11.627 838.5506,-18.5578"/>
</g>
<!-- Node9 -->
<g id="node10" class="node">
<title>Node9</title>
<polygon fill="none" stroke="#bfbfbf" points="521,-.5 521,-19.5 585,-19.5 585,-.5 521,-.5"/>
<text text-anchor="middle" x="553" y="-7.5" font-family="FreeSans.ttf" font-size="10.00" fill="#000000">algorithm</text>
</g>
<!-- Node7&#45;&gt;Node9 -->
<g id="edge9" class="edge">
<title>Node7&#45;&gt;Node9</title>
<path fill="none" stroke="#191970" d="M492.7156,-56.2455C503.602,-47.8943 519.4883,-35.7076 532.22,-25.9408"/>
<polygon fill="#191970" stroke="#191970" points="534.6261,-28.5063 540.4301,-19.6427 530.3654,-22.9523 534.6261,-28.5063"/>
</g>
<!-- Node10 -->
<g id="node11" class="node">
<title>Node10</title>
<polygon fill="none" stroke="#bfbfbf" points="603,-.5 603,-19.5 645,-19.5 645,-.5 603,-.5"/>
<text text-anchor="middle" x="624" y="-7.5" font-family="FreeSans.ttf" font-size="10.00" fill="#000000">array</text>
</g>
<!-- Node7&#45;&gt;Node10 -->
<g id="edge10" class="edge">
<title>Node7&#45;&gt;Node10</title>
<path fill="none" stroke="#191970" d="M504.7545,-56.3733C529.2831,-46.8343 566.9096,-32.2018 593.3214,-21.9306"/>
<polygon fill="#191970" stroke="#191970" points="594.7927,-25.1138 602.8442,-18.2273 592.2555,-18.5898 594.7927,-25.1138"/>
</g>
<!-- Node11 -->
<g id="node12" class="node">
<title>Node11</title>
<polygon fill="none" stroke="#bfbfbf" points="663.5,-.5 663.5,-19.5 716.5,-19.5 716.5,-.5 663.5,-.5"/>
<text text-anchor="middle" x="690" y="-7.5" font-family="FreeSans.ttf" font-size="10.00" fill="#000000">iterator</text>
</g>
<!-- Node7&#45;&gt;Node11 -->
<g id="edge12" class="edge">
<title>Node7&#45;&gt;Node11</title>
<path fill="none" stroke="#191970" d="M516.6967,-56.4408C549.8708,-47.7675 600.3069,-34.5031 653.344,-20.1548"/>
<polygon fill="#191970" stroke="#191970" points="654.5375,-23.4577 663.2739,-17.4639 652.7065,-16.7014 654.5375,-23.4577"/>
</g>
<!-- Node12 -->
<g id="node13" class="node">
<title>Node12</title>
<polygon fill="none" stroke="#bfbfbf" points="225,-.5 225,-19.5 269,-19.5 269,-.5 225,-.5"/>
<text text-anchor="middle" x="247" y="-7.5" font-family="FreeSans.ttf" font-size="10.00" fill="#000000">limits</text>
</g>
<!-- Node7&#45;&gt;Node12 -->
<g id="edge13" class="edge">
<title>Node7&#45;&gt;Node12</title>
<path fill="none" stroke="#191970" d="M432.7689,-56.4751C393.8124,-48.342 336.934,-35.834 278.9685,-20.1035"/>
<polygon fill="#191970" stroke="#191970" points="279.8501,-16.7161 269.2804,-17.4466 277.9986,-23.4668 279.8501,-16.7161"/>
</g>
<!-- Node13 -->
<g id="node14" class="node">
<title>Node13</title>
<polygon fill="none" stroke="#bfbfbf" points="287.5,-.5 287.5,-19.5 352.5,-19.5 352.5,-.5 287.5,-.5"/>
<text text-anchor="middle" x="320" y="-7.5" font-family="FreeSans.ttf" font-size="10.00" fill="#000000">stdexcept</text>
</g>
<!-- Node7&#45;&gt;Node13 -->
<g id="edge14" class="edge">
<title>Node7&#45;&gt;Node13</title>
<path fill="none" stroke="#191970" d="M452.495,-56.3733C426.1198,-47.1419 386.1149,-33.1402 356.9642,-22.9375"/>
<polygon fill="#191970" stroke="#191970" points="357.7409,-19.5012 347.1461,-19.5011 355.4284,-26.1082 357.7409,-19.5012"/>
</g>
<!-- Node14 -->
<g id="node15" class="node">
<title>Node14</title>
<polygon fill="none" stroke="#bfbfbf" points="370.5,-.5 370.5,-19.5 439.5,-19.5 439.5,-.5 370.5,-.5"/>
<text text-anchor="middle" x="405" y="-7.5" font-family="FreeSans.ttf" font-size="10.00" fill="#000000">type_traits</text>
</g>
<!-- Node7&#45;&gt;Node14 -->
<g id="edge15" class="edge">
<title>Node7&#45;&gt;Node14</title>
<path fill="none" stroke="#191970" d="M466.936,-56.2455C455.6438,-47.814 439.1155,-35.4729 425.9729,-25.6598"/>
<polygon fill="#191970" stroke="#191970" points="428.0211,-22.8211 417.9143,-19.6427 423.8331,-28.4301 428.0211,-22.8211"/>
</g>
<!-- Node15 -->
<g id="node16" class="node">
<title>Node15</title>
<polygon fill="none" stroke="#bfbfbf" points="457.5,-.5 457.5,-19.5 502.5,-19.5 502.5,-.5 457.5,-.5"/>
<text text-anchor="middle" x="480" y="-7.5" font-family="FreeSans.ttf" font-size="10.00" fill="#000000">utility</text>
</g>
<!-- Node7&#45;&gt;Node15 -->
<g id="edge16" class="edge">
<title>Node7&#45;&gt;Node15</title>
<path fill="none" stroke="#191970" d="M480,-56.2455C480,-48.9382 480,-38.6944 480,-29.7046"/>
<polygon fill="#191970" stroke="#191970" points="483.5001,-29.6426 480,-19.6427 476.5001,-29.6427 483.5001,-29.6426"/>
</g>
<!-- Node19&#45;&gt;Node7 -->
<g id="edge22" class="edge">
<title>Node19&#45;&gt;Node7</title>
<path fill="none" stroke="#191970" d="M232.8894,-112.4369C284.5327,-102.7321 364.4826,-87.708 419.3749,-77.3926"/>
<polygon fill="#191970" stroke="#191970" points="420.1389,-80.8104 429.3205,-75.5237 418.8461,-73.9308 420.1389,-80.8104"/>
</g>
<!-- Node19&#45;&gt;Node16 -->
<g id="edge23" class="edge">
<title>Node19&#45;&gt;Node16</title>
<path fill="none" stroke="#191970" d="M265.6405,-113.2671C356.809,-103.437 496.6806,-87.3588 549,-76 549.0995,-75.9784 549.1992,-75.9566 549.299,-75.9347"/>
<polygon fill="#191970" stroke="#191970" points="549.9402,-79.3836 558.7562,-73.5076 548.2001,-72.6033 549.9402,-79.3836"/>
</g>
<!-- Node20&#45;&gt;Node3 -->
<g id="edge27" class="edge">
<title>Node20&#45;&gt;Node3</title>
<path fill="none" stroke="#191970" d="M1161.3815,-459.4814C1175.3404,-437.4173 1206.0974,-381.2114 1190,-336 1157.6834,-245.2354 1134.1598,-219.9196 1053,-168 1026.6523,-151.1449 994.4159,-140.4562 964.5957,-133.6818"/>
<polygon fill="#191970" stroke="#191970" points="965.0996,-130.2102 954.5874,-131.5312 963.6289,-137.054 965.0996,-130.2102"/>
</g>
<!-- Node20&#45;&gt;Node4 -->
<g id="edge68" class="edge">
<title>Node20&#45;&gt;Node4</title>
<path fill="none" stroke="#191970" d="M1190.9905,-459.474C1239.2666,-444.2647 1319,-409.5286 1319,-346 1319,-346 1319,-346 1319,-234 1319,-167.0651 1254.9746,-108.6146 1220.0701,-81.7228"/>
<polygon fill="#191970" stroke="#191970" points="1221.9801,-78.7803 1211.8802,-75.5798 1217.7799,-84.3801 1221.9801,-78.7803"/>
</g>
<!-- Node20&#45;&gt;Node19 -->
<g id="edge26" class="edge">
<title>Node20&#45;&gt;Node19</title>
<path fill="none" stroke="#191970" d="M1074.1323,-467.2273C840.647,-461.0443 182,-435.6567 182,-346 182,-346 182,-346 182,-234 182,-201.7116 182,-164.1872 182,-141.8048"/>
<polygon fill="#191970" stroke="#191970" points="185.5001,-141.5883 182,-131.5884 178.5001,-141.5884 185.5001,-141.5883"/>
</g>
<!-- Node20&#45;&gt;Node21 -->
<g id="edge25" class="edge">
<title>Node20&#45;&gt;Node21</title>
<path fill="none" stroke="#191970" d="M1193.2876,-459.4777C1229.3977,-450.4089 1284.9947,-436.219 1333,-423 1336.6336,-421.9994 1340.401,-420.9407 1344.1755,-419.8651"/>
<polygon fill="#191970" stroke="#191970" points="1345.4558,-423.1387 1354.0963,-417.0075 1343.5182,-416.4122 1345.4558,-423.1387"/>
</g>
<!-- Node22 -->
<g id="node23" class="node">
<title>Node22</title>
<g id="a_node23"><a xlink:href="MatrixDynSize_8h.html" target="_top" xlink:title="iDynTree/Core/MatrixDynSize.h">
<polygon fill="none" stroke="#000000" points="209.5,-280.5 209.5,-299.5 376.5,-299.5 376.5,-280.5 209.5,-280.5"/>
<text text-anchor="middle" x="293" y="-287.5" font-family="FreeSans.ttf" font-size="10.00" fill="#000000">iDynTree/Core/MatrixDynSize.h</text>
</a>
</g>
</g>
<!-- Node20&#45;&gt;Node22 -->
<g id="edge28" class="edge">
<title>Node20&#45;&gt;Node22</title>
<path fill="none" stroke="#191970" d="M1074.2343,-464.9217C981.0581,-459.3145 823.5287,-447.0574 690,-423 575.0997,-402.2988 545.8646,-395.5017 436,-356 394.57,-341.1039 348.6854,-318.8365 320.3396,-304.3633"/>
<polygon fill="#191970" stroke="#191970" points="321.5734,-301.0619 311.0808,-299.5939 318.3679,-307.2848 321.5734,-301.0619"/>
</g>
<!-- Node23 -->
<g id="node24" class="node">
<title>Node23</title>
<g id="a_node24"><a xlink:href="MatrixFixSize_8h.html" target="_top" xlink:title="iDynTree/Core/MatrixFixSize.h">
<polygon fill="none" stroke="#000000" points="1051.5,-112.5 1051.5,-131.5 1212.5,-131.5 1212.5,-112.5 1051.5,-112.5"/>
<text text-anchor="middle" x="1132" y="-119.5" font-family="FreeSans.ttf" font-size="10.00" fill="#000000">iDynTree/Core/MatrixFixSize.h</text>
</a>
</g>
</g>
<!-- Node20&#45;&gt;Node23 -->
<g id="edge30" class="edge">
<title>Node20&#45;&gt;Node23</title>
<path fill="none" stroke="#191970" d="M1177.5263,-459.4688C1213.7683,-442.4468 1281,-403.1656 1281,-346 1281,-346 1281,-346 1281,-290 1281,-217.5411 1202.4603,-161.7413 1159.4245,-136.6047"/>
<polygon fill="#191970" stroke="#191970" points="1160.9931,-133.4705 1150.5697,-131.5723 1157.5343,-139.5563 1160.9931,-133.4705"/>
</g>
<!-- Node25 -->
<g id="node26" class="node">
<title>Node25</title>
<g id="a_node26"><a xlink:href="SpatialMotionVector_8h.html" target="_top" xlink:title="iDynTree/Core/SpatialMotion\lVector.h">
<polygon fill="none" stroke="#000000" points="841.5,-392.5 841.5,-422.5 996.5,-422.5 996.5,-392.5 841.5,-392.5"/>
<text text-anchor="start" x="849.5" y="-410.5" font-family="FreeSans.ttf" font-size="10.00" fill="#000000">iDynTree/Core/SpatialMotion</text>
<text text-anchor="middle" x="919" y="-399.5" font-family="FreeSans.ttf" font-size="10.00" fill="#000000">Vector.h</text>
</a>
</g>
</g>
<!-- Node20&#45;&gt;Node25 -->
<g id="edge37" class="edge">
<title>Node20&#45;&gt;Node25</title>
<path fill="none" stroke="#191970" d="M1118.3839,-459.4581C1083.3111,-450.3183 1029.5356,-436.3048 986.6671,-425.1336"/>
<polygon fill="#191970" stroke="#191970" points="987.4214,-421.7133 976.8619,-422.5784 985.6561,-428.4871 987.4214,-421.7133"/>
</g>
<!-- Node32 -->
<g id="node33" class="node">
<title>Node32</title>
<g id="a_node33"><a xlink:href="SpatialForceVector_8h.html" target="_top" xlink:title="iDynTree/Core/SpatialForce\lVector.h">
<polygon fill="none" stroke="#000000" points="1019,-392.5 1019,-422.5 1167,-422.5 1167,-392.5 1019,-392.5"/>
<text text-anchor="start" x="1027" y="-410.5" font-family="FreeSans.ttf" font-size="10.00" fill="#000000">iDynTree/Core/SpatialForce</text>
<text text-anchor="middle" x="1093" y="-399.5" font-family="FreeSans.ttf" font-size="10.00" fill="#000000">Vector.h</text>
</a>
</g>
</g>
<!-- Node20&#45;&gt;Node32 -->
<g id="edge59" class="edge">
<title>Node20&#45;&gt;Node32</title>
<path fill="none" stroke="#191970" d="M1145.3125,-459.3906C1137.31,-451.4527 1125.635,-439.8718 1115.3437,-429.6635"/>
<polygon fill="#191970" stroke="#191970" points="1117.7314,-427.1021 1108.1669,-422.5446 1112.8017,-432.0719 1117.7314,-427.1021"/>
</g>
<!-- Node33 -->
<g id="node34" class="node">
<title>Node33</title>
<g id="a_node34"><a xlink:href="Transform_8h.html" target="_top" xlink:title="iDynTree/Core/Transform.h">
<polygon fill="none" stroke="#000000" points="445,-336.5 445,-355.5 591,-355.5 591,-336.5 445,-336.5"/>
<text text-anchor="middle" x="518" y="-343.5" font-family="FreeSans.ttf" font-size="10.00" fill="#000000">iDynTree/Core/Transform.h</text>
</a>
</g>
</g>
<!-- Node20&#45;&gt;Node33 -->
<g id="edge63" class="edge">
<title>Node20&#45;&gt;Node33</title>
<path fill="none" stroke="#191970" d="M1074.3241,-459.7611C1008.7595,-451.7132 914.0284,-438.8583 832,-423 734.843,-404.217 622.5834,-374.7857 562.1017,-358.2809"/>
<polygon fill="#191970" stroke="#191970" points="562.7072,-354.8178 552.1377,-355.5507 560.8573,-361.569 562.7072,-354.8178"/>
</g>
<!-- Node22&#45;&gt;Node16 -->
<g id="edge29" class="edge">
<title>Node22&#45;&gt;Node16</title>
<path fill="none" stroke="#191970" d="M290.7821,-280.2163C284.6334,-250.2985 270.7234,-159.2078 317,-112 353.5223,-74.7428 498.1825,-87.8136 549,-76 549.0992,-75.9769 549.1986,-75.9537 549.298,-75.9304"/>
<polygon fill="#191970" stroke="#191970" points="549.9712,-79.373 558.7371,-73.4224 548.1736,-72.6077 549.9712,-79.373"/>
</g>
<!-- Node23&#45;&gt;Node4 -->
<g id="edge31" class="edge">
<title>Node23&#45;&gt;Node4</title>
<path fill="none" stroke="#191970" d="M1143.4963,-112.2455C1153.2442,-103.9746 1167.4259,-91.9416 1178.8798,-82.2232"/>
<polygon fill="#191970" stroke="#191970" points="1181.2747,-84.7813 1186.6354,-75.6427 1176.7459,-79.4437 1181.2747,-84.7813"/>
</g>
<!-- Node23&#45;&gt;Node8 -->
<g id="edge32" class="edge">
<title>Node23&#45;&gt;Node8</title>
<path fill="none" stroke="#191970" d="M1128.7405,-112.179C1123.3406,-97.5115 1111.0959,-70.1025 1091,-56 1062.2598,-35.8312 964.3683,-21.0563 910.4168,-14.2239"/>
<polygon fill="#191970" stroke="#191970" points="910.6003,-10.7199 900.2459,-12.964 909.7398,-17.6668 910.6003,-10.7199"/>
</g>
<!-- Node23&#45;&gt;Node16 -->
<g id="edge34" class="edge">
<title>Node23&#45;&gt;Node16</title>
<path fill="none" stroke="#191970" d="M1051.2898,-113.7971C927.884,-101.255 697.7206,-77.8627 613.1992,-69.2725"/>
<polygon fill="#191970" stroke="#191970" points="613.476,-65.7827 603.1734,-68.2536 612.7682,-72.7468 613.476,-65.7827"/>
</g>
<!-- Node23&#45;&gt;Node17 -->
<g id="edge36" class="edge">
<title>Node23&#45;&gt;Node17</title>
<path fill="none" stroke="#191970" d="M1106.9017,-112.3733C1083.0445,-103.2226 1046.9665,-89.3844 1020.429,-79.2057"/>
<polygon fill="#191970" stroke="#191970" points="1021.361,-75.8145 1010.7708,-75.5011 1018.8541,-82.3503 1021.361,-75.8145"/>
</g>
<!-- Node23&#45;&gt;Node18 -->
<g id="edge33" class="edge">
<title>Node23&#45;&gt;Node18</title>
<path fill="none" stroke="#191970" d="M1118.936,-112.2455C1107.6438,-103.814 1091.1155,-91.4729 1077.9729,-81.6598"/>
<polygon fill="#191970" stroke="#191970" points="1080.0211,-78.8211 1069.9143,-75.6427 1075.8331,-84.4301 1080.0211,-78.8211"/>
</g>
<!-- Node23&#45;&gt;Node24 -->
<g id="edge35" class="edge">
<title>Node23&#45;&gt;Node24</title>
<path fill="none" stroke="#191970" d="M1164.1464,-112.3733C1195.9861,-102.8384 1244.8205,-88.2142 1279.1169,-77.9436"/>
<polygon fill="#191970" stroke="#191970" points="1280.2425,-81.2602 1288.8181,-75.0384 1278.2343,-74.5544 1280.2425,-81.2602"/>
</g>
<!-- Node25&#45;&gt;Node3 -->
<g id="edge38" class="edge">
<title>Node25&#45;&gt;Node3</title>
<path fill="none" stroke="#191970" d="M841.3524,-392.9753C752.4636,-374.0789 619,-337.7551 619,-290 619,-290 619,-290 619,-234 619,-203.4754 615.4894,-188.6162 638,-168 659.2357,-148.5515 726.1276,-136.7052 783.2968,-129.9158"/>
<polygon fill="#191970" stroke="#191970" points="783.9418,-133.3649 793.4773,-128.747 783.1433,-126.4105 783.9418,-133.3649"/>
</g>
<!-- Node26 -->
<g id="node27" class="node">
<title>Node26</title>
<g id="a_node27"><a xlink:href="GeomVector3_8h.html" target="_top" xlink:title="iDynTree/Core/GeomVector3.h">
<polygon fill="none" stroke="#000000" points="861.5,-168.5 861.5,-187.5 1024.5,-187.5 1024.5,-168.5 861.5,-168.5"/>
<text text-anchor="middle" x="943" y="-175.5" font-family="FreeSans.ttf" font-size="10.00" fill="#000000">iDynTree/Core/GeomVector3.h</text>
</a>
</g>
</g>
<!-- Node25&#45;&gt;Node26 -->
<g id="edge39" class="edge">
<title>Node25&#45;&gt;Node26</title>
<path fill="none" stroke="#191970" d="M920.5747,-392.4419C924.7663,-352.3599 936.197,-243.0534 940.9178,-197.9113"/>
<polygon fill="#191970" stroke="#191970" points="944.4058,-198.208 941.9649,-187.8981 937.4437,-197.4798 944.4058,-198.208"/>
</g>
<!-- Node27 -->
<g id="node28" class="node">
<title>Node27</title>
<g id="a_node28"><a xlink:href="SpatialVector_8h.html" target="_top" xlink:title="iDynTree/Core/SpatialVector.h">
<polygon fill="none" stroke="#000000" points="1019.5,-336.5 1019.5,-355.5 1180.5,-355.5 1180.5,-336.5 1019.5,-336.5"/>
<text text-anchor="middle" x="1100" y="-343.5" font-family="FreeSans.ttf" font-size="10.00" fill="#000000">iDynTree/Core/SpatialVector.h</text>
</a>
</g>
</g>
<!-- Node25&#45;&gt;Node27 -->
<g id="edge41" class="edge">
<title>Node25&#45;&gt;Node27</title>
<path fill="none" stroke="#191970" d="M963.2776,-392.4554C993.6104,-382.149 1033.4129,-368.6249 1062.2444,-358.8286"/>
<polygon fill="#191970" stroke="#191970" points="1063.6091,-362.0615 1071.9514,-355.5303 1061.357,-355.4336 1063.6091,-362.0615"/>
</g>
<!-- Node26&#45;&gt;Node3 -->
<g id="edge40" class="edge">
<title>Node26&#45;&gt;Node3</title>
<path fill="none" stroke="#191970" d="M930.9811,-168.2455C920.7902,-159.9746 905.9638,-147.9416 893.9893,-138.2232"/>
<polygon fill="#191970" stroke="#191970" points="895.8514,-135.2268 885.8812,-131.6427 891.4402,-140.662 895.8514,-135.2268"/>
</g>
<!-- Node27&#45;&gt;Node4 -->
<g id="edge55" class="edge">
<title>Node27&#45;&gt;Node4</title>
<path fill="none" stroke="#191970" d="M1110.9083,-336.2034C1120.2664,-327.3929 1133.6776,-313.7552 1143,-300 1189.2906,-231.6986 1204.0118,-212.5253 1222,-132 1223.9379,-123.3249 1224.1167,-120.6332 1222,-112 1219.6257,-102.3164 1214.8179,-92.4071 1210.1247,-84.2776"/>
<polygon fill="#191970" stroke="#191970" points="1213.0472,-82.3486 1204.8208,-75.672 1207.0881,-86.0214 1213.0472,-82.3486"/>
</g>
<!-- Node27&#45;&gt;Node17 -->
<g id="edge58" class="edge">
<title>Node27&#45;&gt;Node17</title>
<path fill="none" stroke="#191970" d="M1099.8237,-336.249C1098.9891,-308.5921 1094.2175,-227.7833 1067,-168 1058.6186,-149.5903 1022.3919,-107.0956 1001.3329,-83.1709"/>
<polygon fill="#191970" stroke="#191970" points="1003.8369,-80.7192 994.5871,-75.5528 998.5962,-85.3598 1003.8369,-80.7192"/>
</g>
<!-- Node27&#45;&gt;Node24 -->
<g id="edge57" class="edge">
<title>Node27&#45;&gt;Node24</title>
<path fill="none" stroke="#191970" d="M1116.23,-336.4154C1129.7318,-327.9394 1148.9455,-314.6675 1163,-300 1230.4071,-229.6529 1287.5131,-126.7983 1309.4212,-84.8562"/>
<polygon fill="#191970" stroke="#191970" points="1312.6314,-86.2676 1314.1085,-75.7762 1306.4113,-83.0566 1312.6314,-86.2676"/>
</g>
<!-- Node27&#45;&gt;Node26 -->
<g id="edge56" class="edge">
<title>Node27&#45;&gt;Node26</title>
<path fill="none" stroke="#191970" d="M1091.1092,-336.4862C1065.6465,-309.2396 992.172,-230.6172 959.2697,-195.4096"/>
<polygon fill="#191970" stroke="#191970" points="961.5694,-192.7444 952.1844,-187.8279 956.4551,-197.5239 961.5694,-192.7444"/>
</g>
<!-- Node28 -->
<g id="node29" class="node">
<title>Node28</title>
<g id="a_node29"><a xlink:href="Position_8h.html" target="_top" xlink:title="Position.h">
<polygon fill="none" stroke="#000000" points="485.5,-280.5 485.5,-299.5 550.5,-299.5 550.5,-280.5 485.5,-280.5"/>
<text text-anchor="middle" x="518" y="-287.5" font-family="FreeSans.ttf" font-size="10.00" fill="#000000">Position.h</text>
</a>
</g>
</g>
<!-- Node27&#45;&gt;Node28 -->
<g id="edge42" class="edge">
<title>Node27&#45;&gt;Node28</title>
<path fill="none" stroke="#191970" d="M1019.3811,-338.2429C894.1175,-326.19 657.1249,-303.3866 560.5613,-294.0952"/>
<polygon fill="#191970" stroke="#191970" points="560.8665,-290.6085 550.5773,-293.1346 560.196,-297.5764 560.8665,-290.6085"/>
</g>
<!-- Node30 -->
<g id="node31" class="node">
<title>Node30</title>
<g id="a_node31"><a xlink:href="Rotation_8h.html" target="_top" xlink:title="iDynTree/Core/Rotation.h">
<polygon fill="none" stroke="#000000" points="657.5,-224.5 657.5,-243.5 794.5,-243.5 794.5,-224.5 657.5,-224.5"/>
<text text-anchor="middle" x="726" y="-231.5" font-family="FreeSans.ttf" font-size="10.00" fill="#000000">iDynTree/Core/Rotation.h</text>
</a>
</g>
</g>
<!-- Node27&#45;&gt;Node30 -->
<g id="edge54" class="edge">
<title>Node27&#45;&gt;Node30</title>
<path fill="none" stroke="#191970" d="M1068.113,-336.4509C1000.49,-316.2002 842.7376,-268.9589 767.4349,-246.4083"/>
<polygon fill="#191970" stroke="#191970" points="768.3901,-243.0409 757.8063,-243.5249 766.3819,-249.7466 768.3901,-243.0409"/>
</g>
<!-- Node28&#45;&gt;Node16 -->
<g id="edge53" class="edge">
<title>Node28&#45;&gt;Node16</title>
<path fill="none" stroke="#191970" d="M491.9367,-280.4813C445.7895,-262.0752 357.329,-218.9004 388,-168 406.154,-137.8722 499.4541,-97.8074 549.379,-78.0564"/>
<polygon fill="#191970" stroke="#191970" points="550.7156,-81.2918 558.7506,-74.386 548.1628,-74.7739 550.7156,-81.2918"/>
</g>
<!-- Node29 -->
<g id="node30" class="node">
<title>Node29</title>
<g id="a_node30"><a xlink:href="PositionRaw_8h.html" target="_top" xlink:title="iDynTree/Core/PositionRaw.h">
<polygon fill="none" stroke="#000000" points="397,-168.5 397,-187.5 553,-187.5 553,-168.5 397,-168.5"/>
<text text-anchor="middle" x="475" y="-175.5" font-family="FreeSans.ttf" font-size="10.00" fill="#000000">iDynTree/Core/PositionRaw.h</text>
</a>
</g>
</g>
<!-- Node28&#45;&gt;Node29 -->
<g id="edge43" class="edge">
<title>Node28&#45;&gt;Node29</title>
<path fill="none" stroke="#191970" d="M514.3338,-280.4509C507.2572,-262.0186 491.5955,-221.2254 482.3112,-197.043"/>
<polygon fill="#191970" stroke="#191970" points="485.5086,-195.606 478.6569,-187.5249 478.9737,-198.115 485.5086,-195.606"/>
</g>
<!-- Node28&#45;&gt;Node30 -->
<g id="edge46" class="edge">
<title>Node28&#45;&gt;Node30</title>
<path fill="none" stroke="#191970" d="M550.9582,-281.1266C585.9439,-271.7074 641.4753,-256.7567 680.5921,-246.2252"/>
<polygon fill="#191970" stroke="#191970" points="681.6635,-249.5615 690.4098,-243.582 679.8437,-242.8021 681.6635,-249.5615"/>
</g>
<!-- Node29&#45;&gt;Node3 -->
<g id="edge44" class="edge">
<title>Node29&#45;&gt;Node3</title>
<path fill="none" stroke="#191970" d="M543.1372,-168.4369C613.2879,-158.5912 722.448,-143.2705 796.0082,-132.9462"/>
<polygon fill="#191970" stroke="#191970" points="796.7274,-136.3797 806.1438,-131.5237 795.7544,-129.4476 796.7274,-136.3797"/>
</g>
<!-- Node29&#45;&gt;Node16 -->
<g id="edge45" class="edge">
<title>Node29&#45;&gt;Node16</title>
<path fill="none" stroke="#191970" d="M484.0375,-168.4509C502.0299,-149.4401 542.5349,-106.6423 565.0848,-82.816"/>
<polygon fill="#191970" stroke="#191970" points="567.6535,-85.1937 571.9854,-75.5249 562.5695,-80.382 567.6535,-85.1937"/>
</g>
<!-- Node30&#45;&gt;Node3 -->
<g id="edge52" class="edge">
<title>Node30&#45;&gt;Node3</title>
<path fill="none" stroke="#191970" d="M749.7438,-224.3376C768.2547,-216.1776 794.0753,-203.3783 814,-188 832.0702,-174.053 849.2237,-154.2851 860.525,-140.0238"/>
<polygon fill="#191970" stroke="#191970" points="863.414,-142.0093 866.7612,-131.9571 857.8759,-137.7279 863.414,-142.0093"/>
</g>
<!-- Node30&#45;&gt;Node16 -->
<g id="edge47" class="edge">
<title>Node30&#45;&gt;Node16</title>
<path fill="none" stroke="#191970" d="M697.2147,-224.4861C678.3785,-217.0423 654.3238,-205.0683 638,-188 609.5816,-158.2853 593.3076,-111.8171 585.9044,-85.64"/>
<polygon fill="#191970" stroke="#191970" points="589.23,-84.5278 583.2651,-75.7716 582.4676,-86.3364 589.23,-84.5278"/>
</g>
<!-- Node30&#45;&gt;Node26 -->
<g id="edge48" class="edge">
<title>Node30&#45;&gt;Node26</title>
<path fill="none" stroke="#191970" d="M763.3036,-224.3733C800.1685,-214.8598 856.666,-200.2797 896.4506,-190.0127"/>
<polygon fill="#191970" stroke="#191970" points="897.375,-193.3889 906.1831,-187.5011 895.6258,-186.611 897.375,-193.3889"/>
</g>
<!-- Node31 -->
<g id="node32" class="node">
<title>Node31</title>
<g id="a_node32"><a xlink:href="RotationRaw_8h.html" target="_top" xlink:title="iDynTree/Core/RotationRaw.h">
<polygon fill="none" stroke="#000000" points="647,-168.5 647,-187.5 805,-187.5 805,-168.5 647,-168.5"/>
<text text-anchor="middle" x="726" y="-175.5" font-family="FreeSans.ttf" font-size="10.00" fill="#000000">iDynTree/Core/RotationRaw.h</text>
</a>
</g>
</g>
<!-- Node30&#45;&gt;Node31 -->
<g id="edge49" class="edge">
<title>Node30&#45;&gt;Node31</title>
<path fill="none" stroke="#191970" d="M726,-224.2455C726,-216.9382 726,-206.6944 726,-197.7046"/>
<polygon fill="#191970" stroke="#191970" points="729.5001,-197.6426 726,-187.6427 722.5001,-197.6427 729.5001,-197.6426"/>
</g>
<!-- Node31&#45;&gt;Node16 -->
<g id="edge51" class="edge">
<title>Node31&#45;&gt;Node16</title>
<path fill="none" stroke="#191970" d="M713.6374,-168.4509C688.704,-149.1921 632.1667,-105.5218 601.5764,-81.8935"/>
<polygon fill="#191970" stroke="#191970" points="603.3849,-78.8679 593.3313,-75.5249 599.1059,-84.4078 603.3849,-78.8679"/>
</g>
<!-- Node31&#45;&gt;Node23 -->
<g id="edge50" class="edge">
<title>Node31&#45;&gt;Node23</title>
<path fill="none" stroke="#191970" d="M795.3326,-168.4369C866.714,-158.5912 977.7892,-143.2705 1052.6399,-132.9462"/>
<polygon fill="#191970" stroke="#191970" points="1053.5254,-136.3573 1062.9534,-131.5237 1052.5689,-129.423 1053.5254,-136.3573"/>
</g>
<!-- Node32&#45;&gt;Node3 -->
<g id="edge60" class="edge">
<title>Node32&#45;&gt;Node3</title>
<path fill="none" stroke="#191970" d="M1052.569,-392.3679C1036.6433,-384.182 1020.028,-372.3309 1011,-356 970.2735,-282.3293 1084.6365,-235.2456 1034,-168 1022.7083,-153.0045 981.6837,-141.3837 944.0056,-133.5735"/>
<polygon fill="#191970" stroke="#191970" points="944.5012,-130.1033 934.0085,-131.5713 943.1265,-136.967 944.5012,-130.1033"/>
</g>
<!-- Node32&#45;&gt;Node26 -->
<g id="edge61" class="edge">
<title>Node32&#45;&gt;Node26</title>
<path fill="none" stroke="#191970" d="M1030.9276,-392.4285C1010.9812,-384.6599 990.5608,-373.0868 977,-356 939.7622,-309.0802 939.1076,-233.494 941.2176,-197.8344"/>
<polygon fill="#191970" stroke="#191970" points="944.7165,-197.9756 941.957,-187.7464 937.7353,-197.4638 944.7165,-197.9756"/>
</g>
<!-- Node32&#45;&gt;Node27 -->
<g id="edge62" class="edge">
<title>Node32&#45;&gt;Node27</title>
<path fill="none" stroke="#191970" d="M1094.7303,-392.2977C1095.6413,-384.2945 1096.7693,-374.3843 1097.7476,-365.7889"/>
<polygon fill="#191970" stroke="#191970" points="1101.2258,-366.1786 1098.8792,-355.8469 1094.2707,-365.3869 1101.2258,-366.1786"/>
</g>
<!-- Node33&#45;&gt;Node16 -->
<g id="edge67" class="edge">
<title>Node33&#45;&gt;Node16</title>
<path fill="none" stroke="#191970" d="M499.6287,-336.3394C455.2305,-311.5842 347.9083,-242.5575 378,-168 410.2999,-87.9712 466.571,-101.5608 549,-76 549.1008,-75.9688 549.2017,-75.9374 549.3028,-75.9061"/>
<polygon fill="#191970" stroke="#191970" points="550.4614,-79.2112 558.97,-72.8983 548.3817,-72.5272 550.4614,-79.2112"/>
</g>
<!-- Node33&#45;&gt;Node23 -->
<g id="edge66" class="edge">
<title>Node33&#45;&gt;Node23</title>
<path fill="none" stroke="#191970" d="M591.1157,-337.0273C700.9938,-320.9846 912.2893,-280.0303 1067,-188 1088.0284,-175.4912 1107.0199,-154.5397 1118.9686,-139.5985"/>
<polygon fill="#191970" stroke="#191970" points="1121.8017,-141.6563 1125.152,-131.6051 1116.265,-137.3732 1121.8017,-141.6563"/>
</g>
<!-- Node33&#45;&gt;Node28 -->
<g id="edge64" class="edge">
<title>Node33&#45;&gt;Node28</title>
<path fill="none" stroke="#191970" d="M518,-336.2455C518,-328.9382 518,-318.6944 518,-309.7046"/>
<polygon fill="#191970" stroke="#191970" points="521.5001,-309.6426 518,-299.6427 514.5001,-309.6427 521.5001,-309.6426"/>
</g>
<!-- Node33&#45;&gt;Node30 -->
<g id="edge65" class="edge">
<title>Node33&#45;&gt;Node30</title>
<path fill="none" stroke="#191970" d="M535.734,-336.4509C572.2679,-316.7788 656.104,-271.6363 699.2563,-248.4005"/>
<polygon fill="#191970" stroke="#191970" points="701.1656,-251.3476 708.3109,-243.5249 697.8468,-245.1843 701.1656,-251.3476"/>
</g>
</g>
</svg>
