<?xml version="1.0" encoding="UTF-8" standalone="no"?>
<!DOCTYPE svg PUBLIC "-//W3C//DTD SVG 1.1//EN"
 "http://www.w3.org/Graphics/SVG/1.1/DTD/svg11.dtd">
<!-- Generated by graphviz version 2.40.1 (20161225.0304)
 -->
<!-- Title: DenavitHartenberg.cpp Pages: 1 -->
<svg width="2319pt" height="789pt"
 viewBox="0.00 0.00 2318.50 789.00" xmlns="http://www.w3.org/2000/svg" xmlns:xlink="http://www.w3.org/1999/xlink">
<g id="graph0" class="graph" transform="scale(1 1) rotate(0) translate(4 785)">
<title>DenavitHartenberg.cpp</title>
<!-- Node0 -->
<g id="node1" class="node">
<title>Node0</title>
<polygon fill="#bfbfbf" stroke="#000000" points="961.5,-761.5 961.5,-780.5 1091.5,-780.5 1091.5,-761.5 961.5,-761.5"/>
<text text-anchor="middle" x="1026.5" y="-768.5" font-family="FreeSans.ttf" font-size="10.00" fill="#000000">DenavitHartenberg.cpp</text>
</g>
<!-- Node1 -->
<g id="node2" class="node">
<title>Node1</title>
<g id="a_node2"><a xlink:href="DenavitHartenberg_8h.html" target="_top" xlink:title="iDynTree/Model/DenavitHartenberg.h">
<polygon fill="none" stroke="#000000" points="853,-705.5 853,-724.5 1050,-724.5 1050,-705.5 853,-705.5"/>
<text text-anchor="middle" x="951.5" y="-712.5" font-family="FreeSans.ttf" font-size="10.00" fill="#000000">iDynTree/Model/DenavitHartenberg.h</text>
</a>
</g>
</g>
<!-- Node0&#45;&gt;Node1 -->
<g id="edge1" class="edge">
<title>Node0&#45;&gt;Node1</title>
<path fill="none" stroke="#191970" d="M1013.436,-761.2455C1002.1438,-752.814 985.6155,-740.4729 972.4729,-730.6598"/>
<polygon fill="#191970" stroke="#191970" points="974.5211,-727.8211 964.4143,-724.6427 970.3331,-733.4301 974.5211,-727.8211"/>
</g>
<!-- Node44 -->
<g id="node36" class="node">
<title>Node44</title>
<g id="a_node36"><a xlink:href="ForwardKinematics_8h.html" target="_top" xlink:title="iDynTree/Model/ForwardKinematics.h">
<polygon fill="none" stroke="#000000" points="0,-705.5 0,-724.5 197,-724.5 197,-705.5 0,-705.5"/>
<text text-anchor="middle" x="98.5" y="-712.5" font-family="FreeSans.ttf" font-size="10.00" fill="#000000">iDynTree/Model/ForwardKinematics.h</text>
</a>
</g>
</g>
<!-- Node0&#45;&gt;Node44 -->
<g id="edge74" class="edge">
<title>Node0&#45;&gt;Node44</title>
<path fill="none" stroke="#191970" d="M961.3536,-767.4317C826.8208,-760.008 508.5255,-742.1597 241.5,-725 230.4549,-724.2902 218.9317,-723.5252 207.4298,-722.7457"/>
<polygon fill="#191970" stroke="#191970" points="207.5552,-719.2462 197.3402,-722.0579 207.079,-726.23 207.5552,-719.2462"/>
</g>
<!-- Node45 -->
<g id="node37" class="node">
<title>Node45</title>
<g id="a_node37"><a xlink:href="Traversal_8h.html" target="_top" xlink:title="iDynTree/Model/Traversal.h">
<polygon fill="none" stroke="#000000" points="327.5,-526.5 327.5,-545.5 475.5,-545.5 475.5,-526.5 327.5,-526.5"/>
<text text-anchor="middle" x="401.5" y="-533.5" font-family="FreeSans.ttf" font-size="10.00" fill="#000000">iDynTree/Model/Traversal.h</text>
</a>
</g>
</g>
<!-- Node0&#45;&gt;Node45 -->
<g id="edge76" class="edge">
<title>Node0&#45;&gt;Node45</title>
<path fill="none" stroke="#191970" d="M973.1228,-761.4946C847.1327,-738.2565 535.5425,-675.8599 451.5,-613 431.4408,-597.9966 417.1668,-572.3957 409.1346,-554.8629"/>
<polygon fill="#191970" stroke="#191970" points="412.3151,-553.3996 405.1301,-545.6133 405.8913,-556.1808 412.3151,-553.3996"/>
</g>
<!-- Node46 -->
<g id="node38" class="node">
<title>Node46</title>
<g id="a_node38"><a xlink:href="RevoluteJoint_8h.html" target="_top" xlink:title="iDynTree/Model/RevoluteJoint.h">
<polygon fill="none" stroke="#000000" points="1017.5,-649.5 1017.5,-668.5 1185.5,-668.5 1185.5,-649.5 1017.5,-649.5"/>
<text text-anchor="middle" x="1101.5" y="-656.5" font-family="FreeSans.ttf" font-size="10.00" fill="#000000">iDynTree/Model/RevoluteJoint.h</text>
</a>
</g>
</g>
<!-- Node0&#45;&gt;Node46 -->
<g id="edge79" class="edge">
<title>Node0&#45;&gt;Node46</title>
<path fill="none" stroke="#191970" d="M1033.7411,-761.2409C1040.5365,-752.0049 1050.9121,-737.7018 1059.5,-725 1070.2737,-709.0653 1081.9812,-690.5618 1090.292,-677.2087"/>
<polygon fill="#191970" stroke="#191970" points="1093.3919,-678.8507 1095.6813,-668.5062 1087.4406,-675.1652 1093.3919,-678.8507"/>
</g>
<!-- Node50 -->
<g id="node42" class="node">
<title>Node50</title>
<g id="a_node42"><a xlink:href="FixedJoint_8h.html" target="_top" xlink:title="iDynTree/Model/FixedJoint.h">
<polygon fill="none" stroke="#000000" points="68,-588 68,-607 219,-607 219,-588 68,-588"/>
<text text-anchor="middle" x="143.5" y="-595" font-family="FreeSans.ttf" font-size="10.00" fill="#000000">iDynTree/Model/FixedJoint.h</text>
</a>
</g>
</g>
<!-- Node0&#45;&gt;Node50 -->
<g id="edge93" class="edge">
<title>Node0&#45;&gt;Node50</title>
<path fill="none" stroke="#191970" d="M961.4105,-768.9879C796.2248,-763.5755 369.5586,-747.5732 309.5,-725 245.7228,-701.0292 186.3234,-643.7798 159.0992,-614.8556"/>
<polygon fill="#191970" stroke="#191970" points="161.3616,-612.1466 152.0044,-607.1773 156.2203,-616.8972 161.3616,-612.1466"/>
</g>
<!-- Node51 -->
<g id="node43" class="node">
<title>Node51</title>
<g id="a_node43"><a xlink:href="LinkState_8h.html" target="_top" xlink:title="iDynTree/Model/LinkState.h">
<polygon fill="none" stroke="#000000" points="1169,-526.5 1169,-545.5 1318,-545.5 1318,-526.5 1169,-526.5"/>
<text text-anchor="middle" x="1243.5" y="-533.5" font-family="FreeSans.ttf" font-size="10.00" fill="#000000">iDynTree/Model/LinkState.h</text>
</a>
</g>
</g>
<!-- Node0&#45;&gt;Node51 -->
<g id="edge97" class="edge">
<title>Node0&#45;&gt;Node51</title>
<path fill="none" stroke="#191970" d="M1053.0296,-761.4188C1089.7465,-746.8796 1155.8828,-715.8788 1194.5,-669 1209.1894,-651.168 1228.6921,-587.9402 1238.0441,-555.5051"/>
<polygon fill="#191970" stroke="#191970" points="1241.4363,-556.3719 1240.8049,-545.7959 1234.7032,-554.4573 1241.4363,-556.3719"/>
</g>
<!-- Node53 -->
<g id="node45" class="node">
<title>Node53</title>
<g id="a_node45"><a xlink:href="FreeFloatingState_8h.html" target="_top" xlink:title="iDynTree/Model/FreeFloating\lState.h">
<polygon fill="none" stroke="#000000" points="1241.5,-582.5 1241.5,-612.5 1395.5,-612.5 1395.5,-582.5 1241.5,-582.5"/>
<text text-anchor="start" x="1249.5" y="-600.5" font-family="FreeSans.ttf" font-size="10.00" fill="#000000">iDynTree/Model/FreeFloating</text>
<text text-anchor="middle" x="1318.5" y="-589.5" font-family="FreeSans.ttf" font-size="10.00" fill="#000000">State.h</text>
</a>
</g>
</g>
<!-- Node0&#45;&gt;Node53 -->
<g id="edge107" class="edge">
<title>Node0&#45;&gt;Node53</title>
<path fill="none" stroke="#191970" d="M1090.1053,-761.4887C1140.2088,-753.0809 1205.1971,-739.8669 1227.5,-725 1266.1275,-699.2513 1293.7024,-651.1506 1307.7895,-621.9558"/>
<polygon fill="#191970" stroke="#191970" points="1310.9867,-623.381 1312.0463,-612.8393 1304.6441,-620.4194 1310.9867,-623.381"/>
</g>
<!-- Node56 -->
<g id="node48" class="node">
<title>Node56</title>
<g id="a_node48"><a xlink:href="EigenHelpers_8h.html" target="_top" xlink:title="iDynTree/Core/EigenHelpers.h">
<polygon fill="none" stroke="#000000" points="1856,-470.5 1856,-489.5 2017,-489.5 2017,-470.5 1856,-470.5"/>
<text text-anchor="middle" x="1936.5" y="-477.5" font-family="FreeSans.ttf" font-size="10.00" fill="#000000">iDynTree/Core/EigenHelpers.h</text>
</a>
</g>
</g>
<!-- Node0&#45;&gt;Node56 -->
<g id="edge121" class="edge">
<title>Node0&#45;&gt;Node56</title>
<path fill="none" stroke="#191970" d="M1091.7359,-770.0286C1303.7137,-766.0178 1959.5,-746.5359 1959.5,-659 1959.5,-659 1959.5,-659 1959.5,-597.5 1959.5,-562.3287 1949.4523,-522.3199 1942.639,-499.2331"/>
<polygon fill="#191970" stroke="#191970" points="1945.9715,-498.1617 1939.6981,-489.6239 1939.278,-500.2104 1945.9715,-498.1617"/>
</g>
<!-- Node2 -->
<g id="node3" class="node">
<title>Node2</title>
<g id="a_node3"><a xlink:href="Indices_8h.html" target="_top" xlink:title="iDynTree/Model/Indices.h">
<polygon fill="none" stroke="#000000" points="426.5,-470.5 426.5,-489.5 564.5,-489.5 564.5,-470.5 426.5,-470.5"/>
<text text-anchor="middle" x="495.5" y="-477.5" font-family="FreeSans.ttf" font-size="10.00" fill="#000000">iDynTree/Model/Indices.h</text>
</a>
</g>
</g>
<!-- Node1&#45;&gt;Node2 -->
<g id="edge2" class="edge">
<title>Node1&#45;&gt;Node2</title>
<path fill="none" stroke="#191970" d="M881.3626,-705.476C818.0459,-696.684 722.3842,-682.9183 639.5,-669 507.0288,-646.7548 471.5614,-650.2372 342.5,-613 303.4855,-601.7434 195.3502,-579.5665 172.5,-546 167.4979,-538.6521 166.6745,-532.7139 172.5,-526 188.2719,-507.8228 325.4557,-493.5069 415.8974,-485.9367"/>
<polygon fill="#191970" stroke="#191970" points="416.458,-489.4024 426.1362,-485.0916 415.8822,-482.4261 416.458,-489.4024"/>
</g>
<!-- Node5 -->
<g id="node6" class="node">
<title>Node5</title>
<g id="a_node6"><a xlink:href="Model_8h.html" target="_top" xlink:title="iDynTree/Model/Model.h">
<polygon fill="none" stroke="#000000" points="648,-649.5 648,-668.5 781,-668.5 781,-649.5 648,-649.5"/>
<text text-anchor="middle" x="714.5" y="-656.5" font-family="FreeSans.ttf" font-size="10.00" fill="#000000">iDynTree/Model/Model.h</text>
</a>
</g>
</g>
<!-- Node1&#45;&gt;Node5 -->
<g id="edge5" class="edge">
<title>Node1&#45;&gt;Node5</title>
<path fill="none" stroke="#191970" d="M911.0275,-705.4369C870.552,-695.8731 808.2133,-681.1432 764.6297,-670.845"/>
<polygon fill="#191970" stroke="#191970" points="765.3424,-667.4171 754.8055,-668.5237 763.7327,-674.2295 765.3424,-667.4171"/>
</g>
<!-- Node40 -->
<g id="node32" class="node">
<title>Node40</title>
<g id="a_node32"><a xlink:href="Transform_8h.html" target="_top" xlink:title="iDynTree/Core/Transform.h">
<polygon fill="none" stroke="#000000" points="929.5,-409 929.5,-428 1075.5,-428 1075.5,-409 929.5,-409"/>
<text text-anchor="middle" x="1002.5" y="-416" font-family="FreeSans.ttf" font-size="10.00" fill="#000000">iDynTree/Core/Transform.h</text>
</a>
</g>
</g>
<!-- Node1&#45;&gt;Node40 -->
<g id="edge72" class="edge">
<title>Node1&#45;&gt;Node40</title>
<path fill="none" stroke="#191970" d="M953.7939,-705.1597C955.9236,-695.8662 959.1154,-681.5243 961.5,-669 977.8086,-583.3456 993.3993,-480.456 999.6398,-438.1392"/>
<polygon fill="#191970" stroke="#191970" points="1003.1258,-438.4893 1001.1139,-428.0873 996.1999,-437.4736 1003.1258,-438.4893"/>
</g>
<!-- Node43 -->
<g id="node35" class="node">
<title>Node43</title>
<polygon fill="none" stroke="#bfbfbf" points="914,-470.5 914,-489.5 961,-489.5 961,-470.5 914,-470.5"/>
<text text-anchor="middle" x="937.5" y="-477.5" font-family="FreeSans.ttf" font-size="10.00" fill="#000000">vector</text>
</g>
<!-- Node1&#45;&gt;Node43 -->
<g id="edge73" class="edge">
<title>Node1&#45;&gt;Node43</title>
<path fill="none" stroke="#191970" d="M950.9338,-705.4967C948.8453,-670.4391 941.5457,-547.9096 938.6736,-499.7"/>
<polygon fill="#191970" stroke="#191970" points="942.1618,-499.3957 938.0732,-489.6216 935.1742,-499.8121 942.1618,-499.3957"/>
</g>
<!-- Node3 -->
<g id="node4" class="node">
<title>Node3</title>
<polygon fill="none" stroke="#bfbfbf" points="963.5,-56.5 963.5,-75.5 1007.5,-75.5 1007.5,-56.5 963.5,-56.5"/>
<text text-anchor="middle" x="985.5" y="-63.5" font-family="FreeSans.ttf" font-size="10.00" fill="#000000">string</text>
</g>
<!-- Node2&#45;&gt;Node3 -->
<g id="edge3" class="edge">
<title>Node2&#45;&gt;Node3</title>
<path fill="none" stroke="#191970" d="M495.5,-470.4309C495.5,-449.738 495.5,-399.2813 495.5,-357 495.5,-357 495.5,-357 495.5,-183.5 495.5,-88.9962 844.5169,-70.3156 953.4336,-66.7869"/>
<polygon fill="#191970" stroke="#191970" points="953.6042,-70.2834 963.4938,-66.4825 953.3925,-63.2866 953.6042,-70.2834"/>
</g>
<!-- Node4 -->
<g id="node5" class="node">
<title>Node4</title>
<polygon fill="none" stroke="#bfbfbf" points="523.5,-409 523.5,-428 609.5,-428 609.5,-409 523.5,-409"/>
<text text-anchor="middle" x="566.5" y="-416" font-family="FreeSans.ttf" font-size="10.00" fill="#000000">ModelExport.h</text>
</g>
<!-- Node2&#45;&gt;Node4 -->
<g id="edge4" class="edge">
<title>Node2&#45;&gt;Node4</title>
<path fill="none" stroke="#191970" d="M506.5938,-470.3906C517.4715,-460.9683 534.2748,-446.4134 547.32,-435.1137"/>
<polygon fill="#191970" stroke="#191970" points="549.9827,-437.4377 555.2498,-428.2449 545.3996,-432.1466 549.9827,-437.4377"/>
</g>
<!-- Node5&#45;&gt;Node2 -->
<g id="edge64" class="edge">
<title>Node5&#45;&gt;Node2</title>
<path fill="none" stroke="#191970" d="M647.7763,-656.1991C581.2365,-651.8393 485.6788,-640.7929 462.5,-613 442.4261,-588.9301 473.5515,-575.3675 484.5,-546 490.0796,-531.0337 492.8388,-513.1044 494.1978,-499.7125"/>
<polygon fill="#191970" stroke="#191970" points="497.6897,-499.9537 495.0411,-489.6953 490.7144,-499.3664 497.6897,-499.9537"/>
</g>
<!-- Node6 -->
<g id="node7" class="node">
<title>Node6</title>
<g id="a_node7"><a xlink:href="IJoint_8h.html" target="_top" xlink:title="iDynTree/Model/IJoint.h">
<polygon fill="none" stroke="#000000" points="181.5,-526.5 181.5,-545.5 309.5,-545.5 309.5,-526.5 181.5,-526.5"/>
<text text-anchor="middle" x="245.5" y="-533.5" font-family="FreeSans.ttf" font-size="10.00" fill="#000000">iDynTree/Model/IJoint.h</text>
</a>
</g>
</g>
<!-- Node5&#45;&gt;Node6 -->
<g id="edge6" class="edge">
<title>Node5&#45;&gt;Node6</title>
<path fill="none" stroke="#191970" d="M647.8773,-652.7507C589.4917,-646.2142 502.753,-633.9198 429.5,-613 372.2802,-596.659 308.97,-567.5604 273.5289,-550.1948"/>
<polygon fill="#191970" stroke="#191970" points="274.815,-546.9262 264.2999,-545.6283 271.7106,-553.2001 274.815,-546.9262"/>
</g>
<!-- Node7 -->
<g id="node8" class="node">
<title>Node7</title>
<g id="a_node8"><a xlink:href="Link_8h.html" target="_top" xlink:title="iDynTree/Model/Link.h">
<polygon fill="none" stroke="#000000" points="799.5,-588 799.5,-607 923.5,-607 923.5,-588 799.5,-588"/>
<text text-anchor="middle" x="861.5" y="-595" font-family="FreeSans.ttf" font-size="10.00" fill="#000000">iDynTree/Model/Link.h</text>
</a>
</g>
</g>
<!-- Node5&#45;&gt;Node7 -->
<g id="edge8" class="edge">
<title>Node5&#45;&gt;Node7</title>
<path fill="none" stroke="#191970" d="M737.4688,-649.3906C762.1724,-639.0554 801.637,-622.5447 829.4027,-610.9284"/>
<polygon fill="#191970" stroke="#191970" points="830.8182,-614.1303 838.6925,-607.0419 828.1165,-607.6727 830.8182,-614.1303"/>
</g>
<!-- Node5&#45;&gt;Node40 -->
<g id="edge59" class="edge">
<title>Node5&#45;&gt;Node40</title>
<path fill="none" stroke="#191970" d="M716.4562,-649.2466C720.2102,-633.0109 729.9445,-600.4114 750.5,-582 787.5611,-548.8047 817.2793,-576.6136 856.5,-546 888.1813,-521.2713 875.9055,-497.1915 905.5,-470 923.3572,-453.5927 947.4137,-440.7765 967.1017,-432.033"/>
<polygon fill="#191970" stroke="#191970" points="968.551,-435.2199 976.3695,-428.07 965.7987,-428.7837 968.551,-435.2199"/>
</g>
<!-- Node41 -->
<g id="node33" class="node">
<title>Node41</title>
<g id="a_node33"><a xlink:href="SolidShapes_8h.html" target="_top" xlink:title="iDynTree/Model/SolidShapes.h">
<polygon fill="none" stroke="#000000" points="684,-526.5 684,-545.5 847,-545.5 847,-526.5 684,-526.5"/>
<text text-anchor="middle" x="765.5" y="-533.5" font-family="FreeSans.ttf" font-size="10.00" fill="#000000">iDynTree/Model/SolidShapes.h</text>
</a>
</g>
</g>
<!-- Node5&#45;&gt;Node41 -->
<g id="edge65" class="edge">
<title>Node5&#45;&gt;Node41</title>
<path fill="none" stroke="#191970" d="M713.0516,-649.4823C711.1986,-634.4092 709.334,-604.455 719.5,-582 724.832,-570.2226 734.5928,-559.7804 743.7557,-551.8342"/>
<polygon fill="#191970" stroke="#191970" points="745.9712,-554.5437 751.5276,-545.5228 741.5585,-549.1098 745.9712,-554.5437"/>
</g>
<!-- Node42 -->
<g id="node34" class="node">
<title>Node42</title>
<polygon fill="none" stroke="#bfbfbf" points="583,-470.5 583,-489.5 632,-489.5 632,-470.5 583,-470.5"/>
<text text-anchor="middle" x="607.5" y="-477.5" font-family="FreeSans.ttf" font-size="10.00" fill="#000000">cstdlib</text>
</g>
<!-- Node5&#45;&gt;Node42 -->
<g id="edge70" class="edge">
<title>Node5&#45;&gt;Node42</title>
<path fill="none" stroke="#191970" d="M708.7472,-649.3762C691.6925,-620.8455 641.1929,-536.3648 618.6199,-498.6024"/>
<polygon fill="#191970" stroke="#191970" points="621.4163,-496.459 613.2812,-489.6714 615.4079,-500.0506 621.4163,-496.459"/>
</g>
<!-- Node5&#45;&gt;Node43 -->
<g id="edge71" class="edge">
<title>Node5&#45;&gt;Node43</title>
<path fill="none" stroke="#191970" d="M721.644,-649.3671C734.0106,-633.3091 760.9357,-600.9645 790.5,-582 829.9079,-556.7212 852.098,-574.1618 889.5,-546 906.0533,-533.5362 919.359,-513.7728 927.7252,-499.1179"/>
<polygon fill="#191970" stroke="#191970" points="931.012,-500.3993 932.7072,-489.9409 924.8601,-497.0595 931.012,-500.3993"/>
</g>
<!-- Node6&#45;&gt;Node2 -->
<g id="edge7" class="edge">
<title>Node6&#45;&gt;Node2</title>
<path fill="none" stroke="#191970" d="M288.1925,-526.4369C331.0679,-516.8328 397.2005,-502.0191 443.2002,-491.7152"/>
<polygon fill="#191970" stroke="#191970" points="443.9905,-495.1249 452.9836,-489.5237 442.4604,-488.2942 443.9905,-495.1249"/>
</g>
<!-- Node7&#45;&gt;Node2 -->
<g id="edge58" class="edge">
<title>Node7&#45;&gt;Node2</title>
<path fill="none" stroke="#191970" d="M799.3125,-591.2932C745.9531,-584.5236 667.7326,-571.1196 603.5,-546 570.9099,-533.2549 537.0736,-510.8264 516.1529,-495.694"/>
<polygon fill="#191970" stroke="#191970" points="518.1468,-492.8157 508.019,-489.7049 513.9963,-498.4525 518.1468,-492.8157"/>
</g>
<!-- Node8 -->
<g id="node9" class="node">
<title>Node8</title>
<g id="a_node9"><a xlink:href="SpatialInertia_8h.html" target="_top" xlink:title="iDynTree/Core/SpatialInertia.h">
<polygon fill="none" stroke="#ff0000" points="1340.5,-526.5 1340.5,-545.5 1502.5,-545.5 1502.5,-526.5 1340.5,-526.5"/>
<text text-anchor="middle" x="1421.5" y="-533.5" font-family="FreeSans.ttf" font-size="10.00" fill="#000000">iDynTree/Core/SpatialInertia.h</text>
</a>
</g>
</g>
<!-- Node7&#45;&gt;Node8 -->
<g id="edge9" class="edge">
<title>Node7&#45;&gt;Node8</title>
<path fill="none" stroke="#191970" d="M923.5694,-590.6834C1022.2544,-579.8457 1215.4586,-558.6278 1330.0252,-546.0459"/>
<polygon fill="#191970" stroke="#191970" points="1330.6207,-549.5016 1340.1788,-544.9308 1329.8564,-542.5435 1330.6207,-549.5016"/>
</g>
<!-- Node19 -->
<g id="node10" class="node">
<title>Node19</title>
<g id="a_node10"><a xlink:href="VectorFixSize_8h.html" target="_top" xlink:title="iDynTree/Core/VectorFixSize.h">
<polygon fill="none" stroke="#000000" points="1705,-112.5 1705,-131.5 1866,-131.5 1866,-112.5 1705,-112.5"/>
<text text-anchor="middle" x="1785.5" y="-119.5" font-family="FreeSans.ttf" font-size="10.00" fill="#000000">iDynTree/Core/VectorFixSize.h</text>
</a>
</g>
</g>
<!-- Node8&#45;&gt;Node19 -->
<g id="edge10" class="edge">
<title>Node8&#45;&gt;Node19</title>
<path fill="none" stroke="#191970" d="M1422.6267,-526.4431C1425.7423,-503.3253 1436.1968,-443.3199 1464.5,-403 1524.7977,-317.1017 1569.8751,-324.5158 1648.5,-255 1693.7376,-215.0035 1743.9609,-164.5879 1769.171,-138.8308"/>
<polygon fill="#191970" stroke="#191970" points="1771.6811,-141.27 1776.1585,-131.6677 1766.6703,-136.382 1771.6811,-141.27"/>
</g>
<!-- Node28 -->
<g id="node19" class="node">
<title>Node28</title>
<g id="a_node19"><a xlink:href="Twist_8h.html" target="_top" xlink:title="iDynTree/Core/Twist.h">
<polygon fill="none" stroke="#000000" points="1601.5,-470.5 1601.5,-489.5 1723.5,-489.5 1723.5,-470.5 1601.5,-470.5"/>
<text text-anchor="middle" x="1662.5" y="-477.5" font-family="FreeSans.ttf" font-size="10.00" fill="#000000">iDynTree/Core/Twist.h</text>
</a>
</g>
</g>
<!-- Node8&#45;&gt;Node28 -->
<g id="edge22" class="edge">
<title>Node8&#45;&gt;Node28</title>
<path fill="none" stroke="#191970" d="M1462.6555,-526.4369C1503.8142,-516.8731 1567.205,-502.1432 1611.5242,-491.845"/>
<polygon fill="#191970" stroke="#191970" points="1612.5659,-495.1963 1621.5142,-489.5237 1610.9815,-488.3779 1612.5659,-495.1963"/>
</g>
<!-- Node38 -->
<g id="node29" class="node">
<title>Node38</title>
<g id="a_node29"><a xlink:href="SpatialAcc_8h.html" target="_top" xlink:title="iDynTree/Core/SpatialAcc.h">
<polygon fill="none" stroke="#000000" points="1245.5,-470.5 1245.5,-489.5 1393.5,-489.5 1393.5,-470.5 1245.5,-470.5"/>
<text text-anchor="middle" x="1319.5" y="-477.5" font-family="FreeSans.ttf" font-size="10.00" fill="#000000">iDynTree/Core/SpatialAcc.h</text>
</a>
</g>
</g>
<!-- Node8&#45;&gt;Node38 -->
<g id="edge51" class="edge">
<title>Node8&#45;&gt;Node38</title>
<path fill="none" stroke="#191970" d="M1403.733,-526.2455C1387.7905,-517.4928 1364.1741,-504.527 1346.0011,-494.5496"/>
<polygon fill="#191970" stroke="#191970" points="1347.5137,-491.3873 1337.0634,-489.6427 1344.1448,-497.5233 1347.5137,-491.3873"/>
</g>
<!-- Node39 -->
<g id="node30" class="node">
<title>Node39</title>
<g id="a_node30"><a xlink:href="Wrench_8h.html" target="_top" xlink:title="iDynTree/Core/Wrench.h">
<polygon fill="none" stroke="#000000" points="1450,-470.5 1450,-489.5 1583,-489.5 1583,-470.5 1450,-470.5"/>
<text text-anchor="middle" x="1516.5" y="-477.5" font-family="FreeSans.ttf" font-size="10.00" fill="#000000">iDynTree/Core/Wrench.h</text>
</a>
</g>
</g>
<!-- Node8&#45;&gt;Node39 -->
<g id="edge53" class="edge">
<title>Node8&#45;&gt;Node39</title>
<path fill="none" stroke="#191970" d="M1438.0477,-526.2455C1452.7599,-517.5731 1474.4888,-504.7645 1491.3505,-494.825"/>
<polygon fill="#191970" stroke="#191970" points="1493.3046,-497.736 1500.1419,-489.6427 1489.7498,-491.7057 1493.3046,-497.736"/>
</g>
<!-- Node19&#45;&gt;Node3 -->
<g id="edge18" class="edge">
<title>Node19&#45;&gt;Node3</title>
<path fill="none" stroke="#191970" d="M1704.76,-116.3482C1532.2125,-104.2699 1133.8061,-76.3814 1017.7625,-68.2584"/>
<polygon fill="#191970" stroke="#191970" points="1017.9555,-64.7634 1007.7354,-67.5565 1017.4666,-71.7463 1017.9555,-64.7634"/>
</g>
<!-- Node12 -->
<g id="node11" class="node">
<title>Node12</title>
<g id="a_node11"><a xlink:href="Utils_8h.html" target="_top" xlink:title="iDynTree/Core/Utils.h">
<polygon fill="none" stroke="#000000" points="1814,-56.5 1814,-75.5 1933,-75.5 1933,-56.5 1814,-56.5"/>
<text text-anchor="middle" x="1873.5" y="-63.5" font-family="FreeSans.ttf" font-size="10.00" fill="#000000">iDynTree/Core/Utils.h</text>
</a>
</g>
</g>
<!-- Node19&#45;&gt;Node12 -->
<g id="edge11" class="edge">
<title>Node19&#45;&gt;Node12</title>
<path fill="none" stroke="#191970" d="M1800.8284,-112.2455C1814.3303,-103.6534 1834.2122,-91.0014 1849.7686,-81.1018"/>
<polygon fill="#191970" stroke="#191970" points="1851.7897,-83.9643 1858.3472,-75.6427 1848.0315,-78.0587 1851.7897,-83.9643"/>
</g>
<!-- Node20 -->
<g id="node14" class="node">
<title>Node20</title>
<g id="a_node14"><a xlink:href="Span_8h.html" target="_top" xlink:title="iDynTree/Core/Span.h">
<polygon fill="none" stroke="#ff0000" points="1951,-56.5 1951,-75.5 2072,-75.5 2072,-56.5 1951,-56.5"/>
<text text-anchor="middle" x="2011.5" y="-63.5" font-family="FreeSans.ttf" font-size="10.00" fill="#000000">iDynTree/Core/Span.h</text>
</a>
</g>
</g>
<!-- Node19&#45;&gt;Node20 -->
<g id="edge14" class="edge">
<title>Node19&#45;&gt;Node20</title>
<path fill="none" stroke="#191970" d="M1824.094,-112.4369C1862.5284,-102.9133 1921.636,-88.2672 1963.171,-77.9753"/>
<polygon fill="#191970" stroke="#191970" points="1964.2006,-81.3261 1973.0652,-75.5237 1962.5169,-74.5316 1964.2006,-81.3261"/>
</g>
<!-- Node15 -->
<g id="node15" class="node">
<title>Node15</title>
<polygon fill="none" stroke="#bfbfbf" points="1759.5,-.5 1759.5,-19.5 1811.5,-19.5 1811.5,-.5 1759.5,-.5"/>
<text text-anchor="middle" x="1785.5" y="-7.5" font-family="FreeSans.ttf" font-size="10.00" fill="#000000">cassert</text>
</g>
<!-- Node19&#45;&gt;Node15 -->
<g id="edge20" class="edge">
<title>Node19&#45;&gt;Node15</title>
<path fill="none" stroke="#191970" d="M1785.5,-112.4509C1785.5,-94.184 1785.5,-53.9553 1785.5,-29.6976"/>
<polygon fill="#191970" stroke="#191970" points="1789.0001,-29.5249 1785.5,-19.5249 1782.0001,-29.5249 1789.0001,-29.5249"/>
</g>
<!-- Node18 -->
<g id="node17" class="node">
<title>Node18</title>
<polygon fill="none" stroke="#bfbfbf" points="1701.5,-56.5 1701.5,-75.5 1757.5,-75.5 1757.5,-56.5 1701.5,-56.5"/>
<text text-anchor="middle" x="1729.5" y="-63.5" font-family="FreeSans.ttf" font-size="10.00" fill="#000000">sstream</text>
</g>
<!-- Node19&#45;&gt;Node18 -->
<g id="edge19" class="edge">
<title>Node19&#45;&gt;Node18</title>
<path fill="none" stroke="#191970" d="M1775.7455,-112.2455C1767.6352,-104.1352 1755.9075,-92.4075 1746.2919,-82.7919"/>
<polygon fill="#191970" stroke="#191970" points="1748.6887,-80.2389 1739.1427,-75.6427 1743.7389,-85.1887 1748.6887,-80.2389"/>
</g>
<!-- Node16 -->
<g id="node18" class="node">
<title>Node16</title>
<polygon fill="none" stroke="#bfbfbf" points="1633.5,-56.5 1633.5,-75.5 1683.5,-75.5 1683.5,-56.5 1633.5,-56.5"/>
<text text-anchor="middle" x="1658.5" y="-63.5" font-family="FreeSans.ttf" font-size="10.00" fill="#000000">cstring</text>
</g>
<!-- Node19&#45;&gt;Node16 -->
<g id="edge21" class="edge">
<title>Node19&#45;&gt;Node16</title>
<path fill="none" stroke="#191970" d="M1763.6679,-112.3733C1743.1897,-103.3435 1712.3601,-89.7494 1689.3681,-79.6111"/>
<polygon fill="#191970" stroke="#191970" points="1690.6093,-76.3333 1680.0472,-75.5011 1687.785,-82.7383 1690.6093,-76.3333"/>
</g>
<!-- Node13 -->
<g id="node12" class="node">
<title>Node13</title>
<polygon fill="none" stroke="#bfbfbf" points="1930,-.5 1930,-19.5 1983,-19.5 1983,-.5 1930,-.5"/>
<text text-anchor="middle" x="1956.5" y="-7.5" font-family="FreeSans.ttf" font-size="10.00" fill="#000000">cstddef</text>
</g>
<!-- Node12&#45;&gt;Node13 -->
<g id="edge12" class="edge">
<title>Node12&#45;&gt;Node13</title>
<path fill="none" stroke="#191970" d="M1887.9575,-56.2455C1900.5732,-47.7337 1919.0944,-35.2375 1933.7045,-25.3801"/>
<polygon fill="#191970" stroke="#191970" points="1935.8761,-28.1371 1942.2082,-19.6427 1931.9609,-22.3343 1935.8761,-28.1371"/>
</g>
<!-- Node14 -->
<g id="node13" class="node">
<title>Node14</title>
<polygon fill="none" stroke="#bfbfbf" points="1831.5,-.5 1831.5,-19.5 1911.5,-19.5 1911.5,-.5 1831.5,-.5"/>
<text text-anchor="middle" x="1871.5" y="-7.5" font-family="FreeSans.ttf" font-size="10.00" fill="#000000">CoreExport.h</text>
</g>
<!-- Node12&#45;&gt;Node14 -->
<g id="edge13" class="edge">
<title>Node12&#45;&gt;Node14</title>
<path fill="none" stroke="#191970" d="M1873.1516,-56.2455C1872.8907,-48.9382 1872.5248,-38.6944 1872.2037,-29.7046"/>
<polygon fill="#191970" stroke="#191970" points="1875.6992,-29.5113 1871.8444,-19.6427 1868.7036,-29.7613 1875.6992,-29.5113"/>
</g>
<!-- Node20&#45;&gt;Node13 -->
<g id="edge17" class="edge">
<title>Node20&#45;&gt;Node13</title>
<path fill="none" stroke="#191970" d="M2001.9197,-56.2455C1993.9542,-48.1352 1982.4359,-36.4075 1972.9921,-26.7919"/>
<polygon fill="#191970" stroke="#191970" points="1975.4747,-24.3247 1965.9705,-19.6427 1970.4805,-29.2297 1975.4747,-24.3247"/>
</g>
<!-- Node20&#45;&gt;Node15 -->
<g id="edge15" class="edge">
<title>Node20&#45;&gt;Node15</title>
<path fill="none" stroke="#191970" d="M1970.8712,-56.4245C1932.5472,-47.3181 1873.5263,-33.1028 1822.5,-20 1822.1737,-19.9162 1821.8459,-19.8318 1821.5167,-19.7469"/>
<polygon fill="#191970" stroke="#191970" points="1822.316,-16.3382 1811.7549,-17.1836 1820.5381,-23.1087 1822.316,-16.3382"/>
</g>
<!-- Node21 -->
<g id="node16" class="node">
<title>Node21</title>
<polygon fill="none" stroke="#bfbfbf" points="2001.5,-.5 2001.5,-19.5 2065.5,-19.5 2065.5,-.5 2001.5,-.5"/>
<text text-anchor="middle" x="2033.5" y="-7.5" font-family="FreeSans.ttf" font-size="10.00" fill="#000000">algorithm</text>
</g>
<!-- Node20&#45;&gt;Node21 -->
<g id="edge16" class="edge">
<title>Node20&#45;&gt;Node21</title>
<path fill="none" stroke="#191970" d="M2015.3321,-56.2455C2018.2659,-48.7776 2022.4047,-38.2427 2025.991,-29.1137"/>
<polygon fill="#191970" stroke="#191970" points="2029.3129,-30.23 2029.7118,-19.6427 2022.7976,-27.6704 2029.3129,-30.23"/>
</g>
<!-- Node29 -->
<g id="node20" class="node">
<title>Node29</title>
<g id="a_node20"><a xlink:href="SpatialMotionVector_8h.html" target="_top" xlink:title="iDynTree/Core/SpatialMotion\lVector.h">
<polygon fill="none" stroke="#000000" points="1473,-403.5 1473,-433.5 1628,-433.5 1628,-403.5 1473,-403.5"/>
<text text-anchor="start" x="1481" y="-421.5" font-family="FreeSans.ttf" font-size="10.00" fill="#000000">iDynTree/Core/SpatialMotion</text>
<text text-anchor="middle" x="1550.5" y="-410.5" font-family="FreeSans.ttf" font-size="10.00" fill="#000000">Vector.h</text>
</a>
</g>
</g>
<!-- Node28&#45;&gt;Node29 -->
<g id="edge23" class="edge">
<title>Node28&#45;&gt;Node29</title>
<path fill="none" stroke="#191970" d="M1645,-470.3906C1629.4913,-461.8747 1606.347,-449.166 1586.8451,-438.4573"/>
<polygon fill="#191970" stroke="#191970" points="1588.3484,-435.2899 1577.8983,-433.5446 1584.9791,-441.4257 1588.3484,-435.2899"/>
</g>
<!-- Node29&#45;&gt;Node19 -->
<g id="edge24" class="edge">
<title>Node29&#45;&gt;Node19</title>
<path fill="none" stroke="#191970" d="M1617.4495,-403.4273C1641.2355,-395.5697 1666.9357,-383.9391 1686.5,-367 1756.8297,-306.1077 1777.8581,-187.9597 1783.5617,-141.4679"/>
<polygon fill="#191970" stroke="#191970" points="1787.0431,-141.8292 1784.6791,-131.5015 1780.0866,-141.0493 1787.0431,-141.8292"/>
</g>
<!-- Node30 -->
<g id="node21" class="node">
<title>Node30</title>
<g id="a_node21"><a xlink:href="GeomVector3_8h.html" target="_top" xlink:title="iDynTree/Core/GeomVector3.h">
<polygon fill="none" stroke="#000000" points="1815,-174 1815,-193 1978,-193 1978,-174 1815,-174"/>
<text text-anchor="middle" x="1896.5" y="-181" font-family="FreeSans.ttf" font-size="10.00" fill="#000000">iDynTree/Core/GeomVector3.h</text>
</a>
</g>
</g>
<!-- Node29&#45;&gt;Node30 -->
<g id="edge25" class="edge">
<title>Node29&#45;&gt;Node30</title>
<path fill="none" stroke="#191970" d="M1621.8998,-403.49C1666.4407,-393.2636 1718.9046,-379.3853 1738.5,-367 1807.9838,-323.0827 1863.4976,-239.2054 1885.8475,-202.0288"/>
<polygon fill="#191970" stroke="#191970" points="1888.9641,-203.6342 1891.031,-193.243 1882.9351,-200.0773 1888.9641,-203.6342"/>
</g>
<!-- Node31 -->
<g id="node22" class="node">
<title>Node31</title>
<g id="a_node22"><a xlink:href="SpatialVector_8h.html" target="_top" xlink:title="iDynTree/Core/SpatialVector.h">
<polygon fill="none" stroke="#000000" points="1791,-347.5 1791,-366.5 1952,-366.5 1952,-347.5 1791,-347.5"/>
<text text-anchor="middle" x="1871.5" y="-354.5" font-family="FreeSans.ttf" font-size="10.00" fill="#000000">iDynTree/Core/SpatialVector.h</text>
</a>
</g>
</g>
<!-- Node29&#45;&gt;Node31 -->
<g id="edge27" class="edge">
<title>Node29&#45;&gt;Node31</title>
<path fill="none" stroke="#191970" d="M1628.2051,-403.6126C1684.5655,-392.8146 1759.6829,-378.4229 1811.4651,-368.502"/>
<polygon fill="#191970" stroke="#191970" points="1812.3352,-371.8991 1821.498,-366.5798 1811.018,-365.0241 1812.3352,-371.8991"/>
</g>
<!-- Node30&#45;&gt;Node19 -->
<g id="edge26" class="edge">
<title>Node30&#45;&gt;Node19</title>
<path fill="none" stroke="#191970" d="M1879.1563,-173.8906C1861.0727,-163.8713 1832.5141,-148.0483 1811.6835,-136.5071"/>
<polygon fill="#191970" stroke="#191970" points="1813.1654,-133.3268 1802.722,-131.5419 1809.7729,-139.4498 1813.1654,-133.3268"/>
</g>
<!-- Node31&#45;&gt;Node12 -->
<g id="edge47" class="edge">
<title>Node31&#45;&gt;Node12</title>
<path fill="none" stroke="#191970" d="M1952.0707,-348.5601C2017.4498,-340.6818 2103.6515,-327.6487 2134.5,-311 2169.9174,-291.8855 2196.5,-285.2462 2196.5,-245 2196.5,-245 2196.5,-245 2196.5,-183.5 2196.5,-141.4389 2171.0962,-132.7329 2134.5,-112 2126.1482,-107.2684 2017.7503,-89.1544 1943.3068,-77.1185"/>
<polygon fill="#191970" stroke="#191970" points="1943.4716,-73.6 1933.0418,-75.4626 1942.3567,-80.5106 1943.4716,-73.6"/>
</g>
<!-- Node31&#45;&gt;Node18 -->
<g id="edge50" class="edge">
<title>Node31&#45;&gt;Node18</title>
<path fill="none" stroke="#191970" d="M1912.6173,-347.4847C1983.3403,-329.9134 2120.5,-290.0309 2120.5,-245 2120.5,-245 2120.5,-245 2120.5,-183.5 2120.5,-146.8749 1865.631,-92.7984 1767.4378,-73.3235"/>
<polygon fill="#191970" stroke="#191970" points="1768.1079,-69.8883 1757.6198,-71.3882 1766.7541,-76.7561 1768.1079,-69.8883"/>
</g>
<!-- Node31&#45;&gt;Node30 -->
<g id="edge48" class="edge">
<title>Node31&#45;&gt;Node30</title>
<path fill="none" stroke="#191970" d="M1872.8797,-347.4248C1876.8316,-319.999 1888.2533,-240.732 1893.6331,-203.3964"/>
<polygon fill="#191970" stroke="#191970" points="1897.1317,-203.6565 1895.0937,-193.2595 1890.2032,-202.6581 1897.1317,-203.6565"/>
</g>
<!-- Node32 -->
<g id="node23" class="node">
<title>Node32</title>
<g id="a_node23"><a xlink:href="Position_8h.html" target="_top" xlink:title="Position.h">
<polygon fill="none" stroke="#000000" points="1177,-291.5 1177,-310.5 1242,-310.5 1242,-291.5 1177,-291.5"/>
<text text-anchor="middle" x="1209.5" y="-298.5" font-family="FreeSans.ttf" font-size="10.00" fill="#000000">Position.h</text>
</a>
</g>
</g>
<!-- Node31&#45;&gt;Node32 -->
<g id="edge28" class="edge">
<title>Node31&#45;&gt;Node32</title>
<path fill="none" stroke="#191970" d="M1790.9876,-350.1893C1649.5947,-338.2286 1361.3464,-313.845 1252.4504,-304.6333"/>
<polygon fill="#191970" stroke="#191970" points="1252.4399,-301.12 1242.1804,-303.7645 1251.8498,-308.0951 1252.4399,-301.12"/>
</g>
<!-- Node34 -->
<g id="node25" class="node">
<title>Node34</title>
<g id="a_node25"><a xlink:href="Rotation_8h.html" target="_top" xlink:title="iDynTree/Core/Rotation.h">
<polygon fill="none" stroke="#000000" points="1233,-235.5 1233,-254.5 1370,-254.5 1370,-235.5 1233,-235.5"/>
<text text-anchor="middle" x="1301.5" y="-242.5" font-family="FreeSans.ttf" font-size="10.00" fill="#000000">iDynTree/Core/Rotation.h</text>
</a>
</g>
</g>
<!-- Node31&#45;&gt;Node34 -->
<g id="edge46" class="edge">
<title>Node31&#45;&gt;Node34</title>
<path fill="none" stroke="#191970" d="M1822.9021,-347.4509C1718.3681,-326.9109 1472.5183,-278.6036 1359.8086,-256.4571"/>
<polygon fill="#191970" stroke="#191970" points="1360.4621,-253.0187 1349.9749,-254.5249 1359.1124,-259.8873 1360.4621,-253.0187"/>
</g>
<!-- Node17 -->
<g id="node28" class="node">
<title>Node17</title>
<polygon fill="none" stroke="#bfbfbf" points="1554.5,-56.5 1554.5,-75.5 1614.5,-75.5 1614.5,-56.5 1554.5,-56.5"/>
<text text-anchor="middle" x="1584.5" y="-63.5" font-family="FreeSans.ttf" font-size="10.00" fill="#000000">iostream</text>
</g>
<!-- Node31&#45;&gt;Node17 -->
<g id="edge49" class="edge">
<title>Node31&#45;&gt;Node17</title>
<path fill="none" stroke="#191970" d="M1861.951,-347.3179C1820.3268,-305.1136 1654.4475,-136.9224 1601.1096,-82.8411"/>
<polygon fill="#191970" stroke="#191970" points="1603.5988,-80.3806 1594.0849,-75.7185 1598.6149,-85.296 1603.5988,-80.3806"/>
</g>
<!-- Node32&#45;&gt;Node3 -->
<g id="edge45" class="edge">
<title>Node32&#45;&gt;Node3</title>
<path fill="none" stroke="#191970" d="M1176.8061,-297.5486C1090.8403,-287.7331 862.0162,-256.5818 817.5,-199 792.6557,-166.8638 814.7565,-138.5483 845.5,-112 876.0719,-85.5999 922.1852,-74.2669 953.0415,-69.4577"/>
<polygon fill="#191970" stroke="#191970" points="953.8561,-72.8775 963.269,-68.0147 952.8781,-65.9462 953.8561,-72.8775"/>
</g>
<!-- Node33 -->
<g id="node24" class="node">
<title>Node33</title>
<g id="a_node24"><a xlink:href="PositionRaw_8h.html" target="_top" xlink:title="iDynTree/Core/PositionRaw.h">
<polygon fill="none" stroke="#000000" points="1214.5,-174 1214.5,-193 1370.5,-193 1370.5,-174 1214.5,-174"/>
<text text-anchor="middle" x="1292.5" y="-181" font-family="FreeSans.ttf" font-size="10.00" fill="#000000">iDynTree/Core/PositionRaw.h</text>
</a>
</g>
</g>
<!-- Node32&#45;&gt;Node33 -->
<g id="edge29" class="edge">
<title>Node32&#45;&gt;Node33</title>
<path fill="none" stroke="#191970" d="M1209.6706,-291.2471C1210.3375,-277.6179 1213.1596,-252.5748 1224.5,-235 1234.3799,-219.6886 1250.472,-207.1983 1264.522,-198.3545"/>
<polygon fill="#191970" stroke="#191970" points="1266.5775,-201.2039 1273.3741,-193.0763 1262.9925,-195.1915 1266.5775,-201.2039"/>
</g>
<!-- Node32&#45;&gt;Node34 -->
<g id="edge32" class="edge">
<title>Node32&#45;&gt;Node34</title>
<path fill="none" stroke="#191970" d="M1225.5252,-291.2455C1239.6408,-282.6534 1260.4263,-270.0014 1276.6899,-260.1018"/>
<polygon fill="#191970" stroke="#191970" points="1278.9363,-262.8319 1285.6585,-254.6427 1275.2966,-256.8525 1278.9363,-262.8319"/>
</g>
<!-- Node33&#45;&gt;Node3 -->
<g id="edge31" class="edge">
<title>Node33&#45;&gt;Node3</title>
<path fill="none" stroke="#191970" d="M1267.6369,-173.984C1212.1973,-152.7652 1078.5233,-101.6034 1017.2047,-78.1345"/>
<polygon fill="#191970" stroke="#191970" points="1018.253,-74.7882 1007.6626,-74.4824 1015.7508,-81.3258 1018.253,-74.7882"/>
</g>
<!-- Node33&#45;&gt;Node19 -->
<g id="edge30" class="edge">
<title>Node33&#45;&gt;Node19</title>
<path fill="none" stroke="#191970" d="M1368.7204,-173.9918C1458.0365,-162.8499 1605.6792,-144.432 1699.1502,-132.7718"/>
<polygon fill="#191970" stroke="#191970" points="1699.6567,-136.2359 1709.1465,-131.5248 1698.7902,-129.2897 1699.6567,-136.2359"/>
</g>
<!-- Node34&#45;&gt;Node3 -->
<g id="edge33" class="edge">
<title>Node34&#45;&gt;Node3</title>
<path fill="none" stroke="#191970" d="M1232.6778,-240.6702C1105.5931,-232.342 845.758,-213.622 832.5,-199 787.0036,-148.823 896.3723,-98.9261 953.4802,-77.2439"/>
<polygon fill="#191970" stroke="#191970" points="955.0012,-80.4126 963.1567,-73.6495 952.5638,-73.8507 955.0012,-80.4126"/>
</g>
<!-- Node34&#45;&gt;Node19 -->
<g id="edge44" class="edge">
<title>Node34&#45;&gt;Node19</title>
<path fill="none" stroke="#191970" d="M1370.0529,-240.5028C1434.4678,-234.9851 1533.0269,-223.1966 1615.5,-199 1668.9805,-183.3095 1727.3466,-153.9386 1759.885,-136.3569"/>
<polygon fill="#191970" stroke="#191970" points="1761.6399,-139.3865 1768.7364,-131.5195 1758.2828,-133.244 1761.6399,-139.3865"/>
</g>
<!-- Node34&#45;&gt;Node30 -->
<g id="edge34" class="edge">
<title>Node34&#45;&gt;Node30</title>
<path fill="none" stroke="#191970" d="M1370.0444,-237.9152C1477.2335,-226.8359 1684.6555,-205.3965 1804.6572,-192.993"/>
<polygon fill="#191970" stroke="#191970" points="1805.3353,-196.4416 1814.9224,-191.932 1804.6155,-189.4787 1805.3353,-196.4416"/>
</g>
<!-- Node35 -->
<g id="node26" class="node">
<title>Node35</title>
<g id="a_node26"><a xlink:href="RotationRaw_8h.html" target="_top" xlink:title="iDynTree/Core/RotationRaw.h">
<polygon fill="none" stroke="#000000" points="1038.5,-174 1038.5,-193 1196.5,-193 1196.5,-174 1038.5,-174"/>
<text text-anchor="middle" x="1117.5" y="-181" font-family="FreeSans.ttf" font-size="10.00" fill="#000000">iDynTree/Core/RotationRaw.h</text>
</a>
</g>
</g>
<!-- Node34&#45;&gt;Node35 -->
<g id="edge35" class="edge">
<title>Node34&#45;&gt;Node35</title>
<path fill="none" stroke="#191970" d="M1272.75,-235.3906C1241.2883,-224.8749 1190.6992,-207.966 1155.8686,-196.3243"/>
<polygon fill="#191970" stroke="#191970" points="1156.6419,-192.8925 1146.0481,-193.0419 1154.4228,-199.5315 1156.6419,-192.8925"/>
</g>
<!-- Node35&#45;&gt;Node3 -->
<g id="edge43" class="edge">
<title>Node35&#45;&gt;Node3</title>
<path fill="none" stroke="#191970" d="M1106.6979,-173.8845C1084.1693,-153.8306 1031.9466,-107.3445 1003.9742,-82.4449"/>
<polygon fill="#191970" stroke="#191970" points="1006.2479,-79.783 996.4514,-75.7484 1001.5937,-85.0116 1006.2479,-79.783"/>
</g>
<!-- Node11 -->
<g id="node27" class="node">
<title>Node11</title>
<g id="a_node27"><a xlink:href="MatrixFixSize_8h.html" target="_top" xlink:title="iDynTree/Core/MatrixFixSize.h">
<polygon fill="none" stroke="#000000" points="1445,-112.5 1445,-131.5 1606,-131.5 1606,-112.5 1445,-112.5"/>
<text text-anchor="middle" x="1525.5" y="-119.5" font-family="FreeSans.ttf" font-size="10.00" fill="#000000">iDynTree/Core/MatrixFixSize.h</text>
</a>
</g>
</g>
<!-- Node35&#45;&gt;Node11 -->
<g id="edge36" class="edge">
<title>Node35&#45;&gt;Node11</title>
<path fill="none" stroke="#191970" d="M1170.0369,-173.9666C1181.7011,-171.9281 1194.0112,-169.8371 1205.5,-168 1286.7796,-155.0032 1379.9511,-141.8011 1444.7155,-132.8942"/>
<polygon fill="#191970" stroke="#191970" points="1445.4283,-136.3293 1454.8597,-131.5023 1444.4767,-129.3943 1445.4283,-136.3293"/>
</g>
<!-- Node11&#45;&gt;Node3 -->
<g id="edge40" class="edge">
<title>Node11&#45;&gt;Node3</title>
<path fill="none" stroke="#191970" d="M1444.9077,-113.5061C1440.0327,-112.9955 1435.201,-112.4904 1430.5,-112 1275.8804,-95.8706 1091.0117,-76.843 1017.7148,-69.3092"/>
<polygon fill="#191970" stroke="#191970" points="1018.0324,-65.8235 1007.727,-68.2828 1017.3168,-72.7868 1018.0324,-65.8235"/>
</g>
<!-- Node11&#45;&gt;Node12 -->
<g id="edge37" class="edge">
<title>Node11&#45;&gt;Node12</title>
<path fill="none" stroke="#191970" d="M1584.9279,-112.4369C1645.7366,-102.6516 1740.1524,-87.4582 1804.2928,-77.1368"/>
<polygon fill="#191970" stroke="#191970" points="1805.0003,-80.5681 1814.3172,-75.5237 1803.8881,-73.657 1805.0003,-80.5681"/>
</g>
<!-- Node11&#45;&gt;Node15 -->
<g id="edge38" class="edge">
<title>Node11&#45;&gt;Node15</title>
<path fill="none" stroke="#191970" d="M1525.4878,-112.2986C1526.0288,-97.7874 1529.3053,-70.5796 1545.5,-56 1575.0211,-29.423 1689.7668,-17.1143 1749.263,-12.4202"/>
<polygon fill="#191970" stroke="#191970" points="1749.6449,-15.9014 1759.3517,-11.6556 1749.1158,-8.9214 1749.6449,-15.9014"/>
</g>
<!-- Node11&#45;&gt;Node18 -->
<g id="edge42" class="edge">
<title>Node11&#45;&gt;Node18</title>
<path fill="none" stroke="#191970" d="M1560.5689,-112.3733C1597.0141,-102.3687 1653.8704,-86.7611 1691.4007,-76.4586"/>
<polygon fill="#191970" stroke="#191970" points="1692.724,-79.7249 1701.4407,-73.7026 1690.8709,-72.9747 1692.724,-79.7249"/>
</g>
<!-- Node11&#45;&gt;Node16 -->
<g id="edge39" class="edge">
<title>Node11&#45;&gt;Node16</title>
<path fill="none" stroke="#191970" d="M1548.3635,-112.3733C1569.905,-103.3032 1602.3838,-89.6279 1626.4956,-79.4755"/>
<polygon fill="#191970" stroke="#191970" points="1628.0767,-82.6075 1635.9348,-75.5011 1625.3603,-76.156 1628.0767,-82.6075"/>
</g>
<!-- Node11&#45;&gt;Node17 -->
<g id="edge41" class="edge">
<title>Node11&#45;&gt;Node17</title>
<path fill="none" stroke="#191970" d="M1535.777,-112.2455C1544.3218,-104.1352 1556.6778,-92.4075 1566.8085,-82.7919"/>
<polygon fill="#191970" stroke="#191970" points="1569.4972,-85.0655 1574.3408,-75.6427 1564.6782,-79.9884 1569.4972,-85.0655"/>
</g>
<!-- Node38&#45;&gt;Node29 -->
<g id="edge52" class="edge">
<title>Node38&#45;&gt;Node29</title>
<path fill="none" stroke="#191970" d="M1355.3403,-470.4581C1389.5978,-461.3376 1442.0847,-447.3638 1484.0014,-436.2042"/>
<polygon fill="#191970" stroke="#191970" points="1485.1011,-439.5334 1493.864,-433.5784 1483.3001,-432.769 1485.1011,-439.5334"/>
</g>
<!-- Node37 -->
<g id="node31" class="node">
<title>Node37</title>
<g id="a_node31"><a xlink:href="SpatialForceVector_8h.html" target="_top" xlink:title="iDynTree/Core/SpatialForce\lVector.h">
<polygon fill="none" stroke="#000000" points="1906.5,-403.5 1906.5,-433.5 2054.5,-433.5 2054.5,-403.5 1906.5,-403.5"/>
<text text-anchor="start" x="1914.5" y="-421.5" font-family="FreeSans.ttf" font-size="10.00" fill="#000000">iDynTree/Core/SpatialForce</text>
<text text-anchor="middle" x="1980.5" y="-410.5" font-family="FreeSans.ttf" font-size="10.00" fill="#000000">Vector.h</text>
</a>
</g>
</g>
<!-- Node39&#45;&gt;Node37 -->
<g id="edge54" class="edge">
<title>Node39&#45;&gt;Node37</title>
<path fill="none" stroke="#191970" d="M1583.474,-471.1231C1665.9993,-460.1849 1806.2849,-441.591 1896.0993,-429.6867"/>
<polygon fill="#191970" stroke="#191970" points="1896.799,-433.1247 1906.2524,-428.341 1895.8792,-426.1854 1896.799,-433.1247"/>
</g>
<!-- Node37&#45;&gt;Node19 -->
<g id="edge55" class="edge">
<title>Node37&#45;&gt;Node19</title>
<path fill="none" stroke="#191970" d="M1986.8558,-403.4571C2003.6578,-361.0616 2044.2107,-239.0769 1987.5,-168 1973.1805,-150.0531 1922.9044,-138.5661 1876.0966,-131.5593"/>
<polygon fill="#191970" stroke="#191970" points="1876.5718,-128.0917 1866.1752,-130.1314 1875.5746,-135.0203 1876.5718,-128.0917"/>
</g>
<!-- Node37&#45;&gt;Node30 -->
<g id="edge56" class="edge">
<title>Node37&#45;&gt;Node30</title>
<path fill="none" stroke="#191970" d="M1977.0112,-403.2821C1973.5384,-388.7014 1967.8253,-366.1473 1961.5,-347 1943.9292,-293.8116 1918.1784,-232.9284 1904.9825,-202.6663"/>
<polygon fill="#191970" stroke="#191970" points="1908.0965,-201.0523 1900.8726,-193.3021 1901.6867,-203.8656 1908.0965,-201.0523"/>
</g>
<!-- Node37&#45;&gt;Node31 -->
<g id="edge57" class="edge">
<title>Node37&#45;&gt;Node31</title>
<path fill="none" stroke="#191970" d="M1953.8356,-403.4554C1936.6059,-393.734 1914.3025,-381.15 1897.2554,-371.5317"/>
<polygon fill="#191970" stroke="#191970" points="1898.8204,-368.3961 1888.3911,-366.5303 1895.3806,-374.4926 1898.8204,-368.3961"/>
</g>
<!-- Node40&#45;&gt;Node3 -->
<g id="edge63" class="edge">
<title>Node40&#45;&gt;Node3</title>
<path fill="none" stroke="#191970" d="M947.7998,-408.956C860.2763,-392.1128 698.5,-353.8343 698.5,-301 698.5,-301 698.5,-301 698.5,-183.5 698.5,-128.5015 749.4907,-134.889 799.5,-112 850.648,-88.5898 915.3815,-76.0358 953.4352,-70.2103"/>
<polygon fill="#191970" stroke="#191970" points="954.0424,-73.6588 963.4273,-68.7423 953.0248,-66.7331 954.0424,-73.6588"/>
</g>
<!-- Node40&#45;&gt;Node32 -->
<g id="edge60" class="edge">
<title>Node40&#45;&gt;Node32</title>
<path fill="none" stroke="#191970" d="M1019.4397,-408.8845C1055.6925,-388.3062 1140.9785,-339.8951 1183.8909,-315.5365"/>
<polygon fill="#191970" stroke="#191970" points="1185.6477,-318.5639 1192.6166,-310.5836 1182.1922,-312.4763 1185.6477,-318.5639"/>
</g>
<!-- Node40&#45;&gt;Node34 -->
<g id="edge61" class="edge">
<title>Node40&#45;&gt;Node34</title>
<path fill="none" stroke="#191970" d="M1039.8429,-408.9414C1091.4914,-394.3494 1185.7838,-362.6387 1251.5,-311 1268.1897,-297.8855 1282.2606,-277.9427 1291.1814,-263.4114"/>
<polygon fill="#191970" stroke="#191970" points="1294.2124,-265.1618 1296.2757,-254.7698 1288.1822,-261.6069 1294.2124,-265.1618"/>
</g>
<!-- Node40&#45;&gt;Node11 -->
<g id="edge62" class="edge">
<title>Node40&#45;&gt;Node11</title>
<path fill="none" stroke="#191970" d="M1051.2118,-408.9196C1089.8874,-400.4272 1144.8585,-386.3597 1190.5,-367 1280.3892,-328.8718 1304.2335,-317.1995 1379.5,-255 1419.3034,-222.1068 1417.5829,-201.9372 1456.5,-168 1469.8127,-156.3908 1486.213,-145.3438 1499.6839,-136.9864"/>
<polygon fill="#191970" stroke="#191970" points="1501.7343,-139.8363 1508.4679,-131.6565 1498.103,-133.8518 1501.7343,-139.8363"/>
</g>
<!-- Node41&#45;&gt;Node3 -->
<g id="edge67" class="edge">
<title>Node41&#45;&gt;Node3</title>
<path fill="none" stroke="#191970" d="M747.2104,-526.4197C717.1272,-509.1919 660.5,-469.9321 660.5,-418.5 660.5,-418.5 660.5,-418.5 660.5,-183.5 660.5,-136.799 695.7762,-132.9789 737.5,-112 774.883,-93.2036 894.6559,-76.836 952.9772,-69.7456"/>
<polygon fill="#191970" stroke="#191970" points="953.6054,-73.1955 963.1182,-68.5312 952.773,-66.2452 953.6054,-73.1955"/>
</g>
<!-- Node41&#45;&gt;Node40 -->
<g id="edge69" class="edge">
<title>Node41&#45;&gt;Node40</title>
<path fill="none" stroke="#191970" d="M777.3044,-526.416C794.8284,-512.5391 829.1452,-486.69 861.5,-470 893.0953,-453.7018 931.0556,-440.1497 959.6259,-431.045"/>
<polygon fill="#191970" stroke="#191970" points="960.816,-434.34 969.314,-428.0128 958.7251,-427.6596 960.816,-434.34"/>
</g>
<!-- Node41&#45;&gt;Node42 -->
<g id="edge66" class="edge">
<title>Node41&#45;&gt;Node42</title>
<path fill="none" stroke="#191970" d="M738.3388,-526.3733C711.6619,-516.9181 670.8651,-502.4585 641.9278,-492.2023"/>
<polygon fill="#191970" stroke="#191970" points="642.8243,-488.8067 632.2296,-488.7649 640.4858,-495.4046 642.8243,-488.8067"/>
</g>
<!-- Node41&#45;&gt;Node43 -->
<g id="edge68" class="edge">
<title>Node41&#45;&gt;Node43</title>
<path fill="none" stroke="#191970" d="M795.0679,-526.3733C825.4022,-516.4969 872.5075,-501.1603 904.1521,-490.8575"/>
<polygon fill="#191970" stroke="#191970" points="905.417,-494.1265 913.8422,-487.7026 903.2499,-487.4704 905.417,-494.1265"/>
</g>
<!-- Node44&#45;&gt;Node2 -->
<g id="edge75" class="edge">
<title>Node44&#45;&gt;Node2</title>
<path fill="none" stroke="#191970" d="M90.8472,-705.2696C74.1377,-682.76 37.5055,-625.6817 58.5,-582 75.759,-546.0906 91.799,-541.5046 128.5,-526 178.8154,-504.7439 324.3302,-491.4246 416.2965,-484.8805"/>
<polygon fill="#191970" stroke="#191970" points="416.6744,-488.3627 426.4057,-484.173 416.1857,-481.3798 416.6744,-488.3627"/>
</g>
<!-- Node45&#45;&gt;Node2 -->
<g id="edge77" class="edge">
<title>Node45&#45;&gt;Node2</title>
<path fill="none" stroke="#191970" d="M417.8736,-526.2455C432.4308,-517.5731 453.931,-504.7645 470.6152,-494.825"/>
<polygon fill="#191970" stroke="#191970" points="472.5144,-497.7676 479.3141,-489.6427 468.9317,-491.7539 472.5144,-497.7676"/>
</g>
<!-- Node45&#45;&gt;Node43 -->
<g id="edge78" class="edge">
<title>Node45&#45;&gt;Node43</title>
<path fill="none" stroke="#191970" d="M475.7469,-528.2429C593.5791,-515.932 818.7615,-492.4055 903.833,-483.5174"/>
<polygon fill="#191970" stroke="#191970" points="904.3781,-486.9796 913.9602,-482.4594 903.6506,-480.0175 904.3781,-486.9796"/>
</g>
<!-- Node46&#45;&gt;Node2 -->
<g id="edge90" class="edge">
<title>Node46&#45;&gt;Node2</title>
<path fill="none" stroke="#191970" d="M1084.8889,-649.3176C1055.3284,-632.5782 991.1764,-598.4464 932.5,-582 802.7685,-545.6376 759.4301,-588.2657 631.5,-546 614.4883,-540.3796 612.4469,-534.166 596.5,-526 573.8031,-514.3775 547.5805,-502.4782 527.5435,-493.6944"/>
<polygon fill="#191970" stroke="#191970" points="528.8124,-490.4296 518.2465,-489.6475 526.0186,-496.8479 528.8124,-490.4296"/>
</g>
<!-- Node46&#45;&gt;Node29 -->
<g id="edge81" class="edge">
<title>Node46&#45;&gt;Node29</title>
<path fill="none" stroke="#191970" d="M1185.7044,-649.7131C1342.7506,-630.3937 1670.123,-580.0101 1732.5,-490 1737.5631,-482.694 1737.8619,-477.0896 1732.5,-470 1725.7502,-461.0751 1674.5924,-447.0543 1628.2295,-435.8943"/>
<polygon fill="#191970" stroke="#191970" points="1628.9655,-432.4717 1618.4266,-433.5591 1627.3433,-439.2812 1628.9655,-432.4717"/>
</g>
<!-- Node46&#45;&gt;Node40 -->
<g id="edge80" class="edge">
<title>Node46&#45;&gt;Node40</title>
<path fill="none" stroke="#191970" d="M1097.4965,-649.2742C1082.6004,-613.0872 1030.217,-485.8327 1010.2815,-437.4035"/>
<polygon fill="#191970" stroke="#191970" points="1013.488,-435.9982 1006.4449,-428.0833 1007.015,-438.6628 1013.488,-435.9982"/>
</g>
<!-- Node47 -->
<g id="node39" class="node">
<title>Node47</title>
<g id="a_node39"><a xlink:href="Axis_8h.html" target="_top" xlink:title="iDynTree/Core/Axis.h">
<polygon fill="none" stroke="#000000" points="1356.5,-347.5 1356.5,-366.5 1474.5,-366.5 1474.5,-347.5 1356.5,-347.5"/>
<text text-anchor="middle" x="1415.5" y="-354.5" font-family="FreeSans.ttf" font-size="10.00" fill="#000000">iDynTree/Core/Axis.h</text>
</a>
</g>
</g>
<!-- Node46&#45;&gt;Node47 -->
<g id="edge82" class="edge">
<title>Node46&#45;&gt;Node47</title>
<path fill="none" stroke="#191970" d="M1106.8946,-649.4606C1117.8129,-629.2281 1141.5,-580.2363 1141.5,-536 1141.5,-536 1141.5,-536 1141.5,-480 1141.5,-431.7462 1284.7215,-388.973 1364.0708,-368.9782"/>
<polygon fill="#191970" stroke="#191970" points="1365.0247,-372.3477 1373.8853,-366.539 1363.3363,-365.5543 1365.0247,-372.3477"/>
</g>
<!-- Node49 -->
<g id="node41" class="node">
<title>Node49</title>
<g id="a_node41"><a xlink:href="MovableJointImpl_8h.html" target="_top" xlink:title="iDynTree/Model/MovableJoint\lImpl.h">
<polygon fill="none" stroke="#000000" points="471.5,-582.5 471.5,-612.5 629.5,-612.5 629.5,-582.5 471.5,-582.5"/>
<text text-anchor="start" x="479.5" y="-600.5" font-family="FreeSans.ttf" font-size="10.00" fill="#000000">iDynTree/Model/MovableJoint</text>
<text text-anchor="middle" x="550.5" y="-589.5" font-family="FreeSans.ttf" font-size="10.00" fill="#000000">Impl.h</text>
</a>
</g>
</g>
<!-- Node46&#45;&gt;Node49 -->
<g id="edge91" class="edge">
<title>Node46&#45;&gt;Node49</title>
<path fill="none" stroke="#191970" d="M1017.2152,-649.5925C915.2476,-638.2114 744.3209,-619.1334 640.0469,-607.4948"/>
<polygon fill="#191970" stroke="#191970" points="640.1833,-603.9884 629.8567,-606.3574 639.4067,-610.9452 640.1833,-603.9884"/>
</g>
<!-- Node47&#45;&gt;Node3 -->
<g id="edge83" class="edge">
<title>Node47&#45;&gt;Node3</title>
<path fill="none" stroke="#191970" d="M1356.3509,-352.6842C1212.082,-340.6146 850.4013,-300.5021 802.5,-199 785.6481,-163.2911 792.0388,-139.3692 820.5,-112 839.4208,-93.8051 910.7126,-78.8293 953.1468,-71.2854"/>
<polygon fill="#191970" stroke="#191970" points="954.0094,-74.6881 963.2639,-69.5301 952.8128,-67.7911 954.0094,-74.6881"/>
</g>
<!-- Node47&#45;&gt;Node12 -->
<g id="edge89" class="edge">
<title>Node47&#45;&gt;Node12</title>
<path fill="none" stroke="#191970" d="M1474.6779,-349.6631C1607.9316,-331.8024 1924.786,-281.3856 1987.5,-199 2021.8083,-153.9301 1945.8519,-104.041 1901.916,-80.2017"/>
<polygon fill="#191970" stroke="#191970" points="1903.5531,-77.1082 1893.0777,-75.5211 1900.277,-83.2943 1903.5531,-77.1082"/>
</g>
<!-- Node47&#45;&gt;Node32 -->
<g id="edge88" class="edge">
<title>Node47&#45;&gt;Node32</title>
<path fill="none" stroke="#191970" d="M1380.0873,-347.3733C1344.5003,-337.6991 1289.6411,-322.7859 1251.7903,-312.4964"/>
<polygon fill="#191970" stroke="#191970" points="1252.6444,-309.1016 1242.0765,-309.8557 1250.8081,-315.8565 1252.6444,-309.1016"/>
</g>
<!-- Node48 -->
<g id="node40" class="node">
<title>Node48</title>
<g id="a_node40"><a xlink:href="Direction_8h.html" target="_top" xlink:title="iDynTree/Core/Direction.h">
<polygon fill="none" stroke="#000000" points="1465,-174 1465,-193 1606,-193 1606,-174 1465,-174"/>
<text text-anchor="middle" x="1535.5" y="-181" font-family="FreeSans.ttf" font-size="10.00" fill="#000000">iDynTree/Core/Direction.h</text>
</a>
</g>
</g>
<!-- Node47&#45;&gt;Node48 -->
<g id="edge84" class="edge">
<title>Node47&#45;&gt;Node48</title>
<path fill="none" stroke="#191970" d="M1474.6735,-347.8461C1496.4898,-341.3207 1519.124,-330.1438 1532.5,-311 1555.0149,-278.7766 1547.744,-229.9256 1541.1721,-203.008"/>
<polygon fill="#191970" stroke="#191970" points="1544.5254,-201.9982 1538.5753,-193.2319 1537.76,-203.7954 1544.5254,-201.9982"/>
</g>
<!-- Node48&#45;&gt;Node3 -->
<g id="edge85" class="edge">
<title>Node48&#45;&gt;Node3</title>
<path fill="none" stroke="#191970" d="M1517.2215,-173.9107C1481.6536,-155.3176 1405.4737,-115.8446 1392.5,-112 1322.2037,-91.1684 1101.0744,-74.0499 1017.7196,-68.1792"/>
<polygon fill="#191970" stroke="#191970" points="1017.7961,-64.6761 1007.577,-67.4727 1017.3096,-71.6592 1017.7961,-64.6761"/>
</g>
<!-- Node48&#45;&gt;Node19 -->
<g id="edge86" class="edge">
<title>Node48&#45;&gt;Node19</title>
<path fill="none" stroke="#191970" d="M1574.2882,-173.9581C1618.0784,-163.1857 1689.3909,-145.6428 1736.8696,-133.9631"/>
<polygon fill="#191970" stroke="#191970" points="1737.7464,-137.3518 1746.6208,-131.5643 1736.0742,-130.5545 1737.7464,-137.3518"/>
</g>
<!-- Node48&#45;&gt;Node12 -->
<g id="edge87" class="edge">
<title>Node48&#45;&gt;Node12</title>
<path fill="none" stroke="#191970" d="M1554.4193,-173.8768C1584.0953,-159.0639 1643.6632,-130.4587 1696.5,-112 1736.6024,-97.9901 1783.1334,-86.0596 1818.4199,-77.8618"/>
<polygon fill="#191970" stroke="#191970" points="1819.5591,-81.1915 1828.5238,-75.5448 1817.9944,-74.3686 1819.5591,-81.1915"/>
</g>
<!-- Node49&#45;&gt;Node6 -->
<g id="edge92" class="edge">
<title>Node49&#45;&gt;Node6</title>
<path fill="none" stroke="#191970" d="M475.8886,-582.4554C422.5433,-571.6989 351.8166,-557.4376 302.8653,-547.5671"/>
<polygon fill="#191970" stroke="#191970" points="303.2587,-544.0761 292.7642,-545.5303 301.875,-550.938 303.2587,-544.0761"/>
</g>
<!-- Node50&#45;&gt;Node2 -->
<g id="edge95" class="edge">
<title>Node50&#45;&gt;Node2</title>
<path fill="none" stroke="#191970" d="M139.1446,-587.7912C133.0705,-572.6013 124.3962,-543.181 139.5,-526 157.4756,-505.5523 316.7917,-491.5862 416.1111,-484.7806"/>
<polygon fill="#191970" stroke="#191970" points="416.382,-488.2704 426.1236,-484.1048 415.9105,-481.2863 416.382,-488.2704"/>
</g>
<!-- Node50&#45;&gt;Node6 -->
<g id="edge96" class="edge">
<title>Node50&#45;&gt;Node6</title>
<path fill="none" stroke="#191970" d="M159.4375,-587.8906C175.9051,-577.9616 201.8258,-562.333 220.9204,-550.8201"/>
<polygon fill="#191970" stroke="#191970" points="222.9178,-553.7027 229.6744,-545.5419 219.3034,-547.7081 222.9178,-553.7027"/>
</g>
<!-- Node50&#45;&gt;Node40 -->
<g id="edge94" class="edge">
<title>Node50&#45;&gt;Node40</title>
<path fill="none" stroke="#191970" d="M137.0839,-587.9864C127.896,-573.0639 113.6503,-544.0034 128.5,-526 178.4241,-465.4734 710.29,-432.8926 919.0641,-422.359"/>
<polygon fill="#191970" stroke="#191970" points="919.5448,-425.8394 929.3575,-421.8444 919.1951,-418.8482 919.5448,-425.8394"/>
</g>
<!-- Node51&#45;&gt;Node2 -->
<g id="edge105" class="edge">
<title>Node51&#45;&gt;Node2</title>
<path fill="none" stroke="#191970" d="M1168.8872,-532.2674C1047.0507,-525.8637 797.5715,-511.4628 575.0761,-489.9995"/>
<polygon fill="#191970" stroke="#191970" points="575.1285,-486.4882 564.8369,-489.0048 574.4516,-493.4554 575.1285,-486.4882"/>
</g>
<!-- Node51&#45;&gt;Node28 -->
<g id="edge99" class="edge">
<title>Node51&#45;&gt;Node28</title>
<path fill="none" stroke="#191970" d="M1317.4019,-526.4957C1385.7875,-517.6466 1490.5749,-503.9507 1591.3678,-490.1446"/>
<polygon fill="#191970" stroke="#191970" points="1591.9906,-493.592 1601.4221,-488.7652 1591.0391,-486.657 1591.9906,-493.592"/>
</g>
<!-- Node51&#45;&gt;Node38 -->
<g id="edge100" class="edge">
<title>Node51&#45;&gt;Node38</title>
<path fill="none" stroke="#191970" d="M1256.7382,-526.2455C1268.181,-517.814 1284.9296,-505.4729 1298.2475,-495.6598"/>
<polygon fill="#191970" stroke="#191970" points="1300.4391,-498.3924 1306.4135,-489.6427 1296.2867,-492.757 1300.4391,-498.3924"/>
</g>
<!-- Node51&#45;&gt;Node39 -->
<g id="edge101" class="edge">
<title>Node51&#45;&gt;Node39</title>
<path fill="none" stroke="#191970" d="M1290.1202,-526.4369C1337.1365,-516.7925 1409.7629,-501.8948 1460.0193,-491.5858"/>
<polygon fill="#191970" stroke="#191970" points="1460.9794,-494.9618 1470.0721,-489.5237 1459.5727,-488.1046 1460.9794,-494.9618"/>
</g>
<!-- Node51&#45;&gt;Node40 -->
<g id="edge98" class="edge">
<title>Node51&#45;&gt;Node40</title>
<path fill="none" stroke="#191970" d="M1226.143,-526.4751C1202.0035,-513.3279 1156.8237,-489.0819 1117.5,-470 1089.7743,-456.5461 1057.7385,-442.304 1034.5323,-432.2153"/>
<polygon fill="#191970" stroke="#191970" points="1035.7331,-428.9213 1025.1656,-428.1603 1032.952,-435.3452 1035.7331,-428.9213"/>
</g>
<!-- Node51&#45;&gt;Node43 -->
<g id="edge106" class="edge">
<title>Node51&#45;&gt;Node43</title>
<path fill="none" stroke="#191970" d="M1191.2444,-526.4369C1128.1929,-514.8981 1024.0504,-495.8393 970.9223,-486.1165"/>
<polygon fill="#191970" stroke="#191970" points="971.4709,-482.6588 961.0042,-484.3014 970.2107,-489.5445 971.4709,-482.6588"/>
</g>
<!-- Node52 -->
<g id="node44" class="node">
<title>Node52</title>
<g id="a_node44"><a xlink:href="ArticulatedBodyInertia_8h.html" target="_top" xlink:title="iDynTree/Core/Articulated\lBodyInertia.h">
<polygon fill="none" stroke="#000000" points="841,-168.5 841,-198.5 982,-198.5 982,-168.5 841,-168.5"/>
<text text-anchor="start" x="849" y="-186.5" font-family="FreeSans.ttf" font-size="10.00" fill="#000000">iDynTree/Core/Articulated</text>
<text text-anchor="middle" x="911.5" y="-175.5" font-family="FreeSans.ttf" font-size="10.00" fill="#000000">BodyInertia.h</text>
</a>
</g>
</g>
<!-- Node51&#45;&gt;Node52 -->
<g id="edge102" class="edge">
<title>Node51&#45;&gt;Node52</title>
<path fill="none" stroke="#191970" d="M1234.267,-526.4579C1211.0102,-502.8533 1147.3766,-440.9003 1084.5,-403 1048.309,-381.1851 1027.052,-396.1934 996.5,-367 949.8626,-322.4365 926.3861,-247.323 916.8476,-208.463"/>
<polygon fill="#191970" stroke="#191970" points="920.207,-207.458 914.5192,-198.5194 913.3914,-209.054 920.207,-207.458"/>
</g>
<!-- Node52&#45;&gt;Node3 -->
<g id="edge104" class="edge">
<title>Node52&#45;&gt;Node3</title>
<path fill="none" stroke="#191970" d="M921.1742,-168.1389C934.8096,-146.4881 959.6318,-107.0745 974.1308,-84.0525"/>
<polygon fill="#191970" stroke="#191970" points="977.112,-85.8864 979.4796,-75.5595 971.1888,-82.156 977.112,-85.8864"/>
</g>
<!-- Node52&#45;&gt;Node11 -->
<g id="edge103" class="edge">
<title>Node52&#45;&gt;Node11</title>
<path fill="none" stroke="#191970" d="M982.2678,-173.7579C997.8151,-171.7423 1014.2024,-169.7134 1029.5,-168 1170.7524,-152.1786 1335.0748,-137.712 1434.6232,-129.3818"/>
<polygon fill="#191970" stroke="#191970" points="1434.9726,-132.8649 1444.6469,-128.5455 1434.3905,-125.8892 1434.9726,-132.8649"/>
</g>
<!-- Node53&#45;&gt;Node2 -->
<g id="edge113" class="edge">
<title>Node53&#45;&gt;Node2</title>
<path fill="none" stroke="#191970" d="M1241.1988,-592.8131C1082.2237,-582.9553 728.9968,-559.8468 675.5,-546 654.7043,-540.6174 651.4772,-533.8957 631.5,-526 599.9132,-513.5158 563.42,-501.2888 536.1932,-492.5823"/>
<polygon fill="#191970" stroke="#191970" points="537.198,-489.2292 526.6077,-489.54 535.0804,-495.9012 537.198,-489.2292"/>
</g>
<!-- Node53&#45;&gt;Node28 -->
<g id="edge109" class="edge">
<title>Node53&#45;&gt;Node28</title>
<path fill="none" stroke="#191970" d="M1384.9063,-582.4145C1422.4787,-573.2261 1470.0898,-560.4814 1511.5,-546 1555.3641,-530.6604 1604.3517,-508.2179 1634.3044,-493.8603"/>
<polygon fill="#191970" stroke="#191970" points="1635.8467,-497.0023 1643.3298,-489.5021 1632.8028,-490.6988 1635.8467,-497.0023"/>
</g>
<!-- Node53&#45;&gt;Node40 -->
<g id="edge108" class="edge">
<title>Node53&#45;&gt;Node40</title>
<path fill="none" stroke="#191970" d="M1250.771,-582.4572C1221.7264,-574.2637 1188.1848,-562.3823 1160.5,-546 1118.0156,-520.8601 1118.1467,-500.7144 1079.5,-470 1062.6602,-456.6166 1042.3984,-443.1601 1026.8869,-433.3601"/>
<polygon fill="#191970" stroke="#191970" points="1028.7011,-430.3666 1018.3647,-428.0407 1024.9946,-436.3048 1028.7011,-430.3666"/>
</g>
<!-- Node53&#45;&gt;Node43 -->
<g id="edge120" class="edge">
<title>Node53&#45;&gt;Node43</title>
<path fill="none" stroke="#191970" d="M1241.4526,-583.9376C1196.5602,-575.1065 1139.1834,-562.2128 1089.5,-546 1044.8311,-531.4235 995.2906,-508.5825 965.2758,-493.9553"/>
<polygon fill="#191970" stroke="#191970" points="966.766,-490.7878 956.2478,-489.5157 963.677,-497.0694 966.766,-490.7878"/>
</g>
<!-- Node53&#45;&gt;Node51 -->
<g id="edge114" class="edge">
<title>Node53&#45;&gt;Node51</title>
<path fill="none" stroke="#191970" d="M1299.9607,-582.2977C1288.8992,-573.2274 1274.8509,-561.7077 1263.5347,-552.4285"/>
<polygon fill="#191970" stroke="#191970" points="1265.4604,-549.4813 1255.5084,-545.8469 1261.0219,-554.8942 1265.4604,-549.4813"/>
</g>
<!-- Node54 -->
<g id="node46" class="node">
<title>Node54</title>
<g id="a_node46"><a xlink:href="VectorDynSize_8h.html" target="_top" xlink:title="iDynTree/Core/VectorDynSize.h">
<polygon fill="none" stroke="#000000" points="1646,-409 1646,-428 1813,-428 1813,-409 1646,-409"/>
<text text-anchor="middle" x="1729.5" y="-416" font-family="FreeSans.ttf" font-size="10.00" fill="#000000">iDynTree/Core/VectorDynSize.h</text>
</a>
</g>
</g>
<!-- Node53&#45;&gt;Node54 -->
<g id="edge110" class="edge">
<title>Node53&#45;&gt;Node54</title>
<path fill="none" stroke="#191970" d="M1395.8005,-588.9163C1504.2496,-575.0661 1692.7946,-543.7595 1732.5,-490 1743.4149,-475.2216 1740.7191,-453.6593 1736.4948,-438.0814"/>
<polygon fill="#191970" stroke="#191970" points="1739.7963,-436.9118 1733.4746,-428.4097 1733.1145,-438.9984 1739.7963,-436.9118"/>
</g>
<!-- Node55 -->
<g id="node47" class="node">
<title>Node55</title>
<g id="a_node47"><a xlink:href="JointState_8h.html" target="_top" xlink:title="iDynTree/Model/JointState.h">
<polygon fill="none" stroke="#000000" points="1780,-526.5 1780,-545.5 1931,-545.5 1931,-526.5 1780,-526.5"/>
<text text-anchor="middle" x="1855.5" y="-533.5" font-family="FreeSans.ttf" font-size="10.00" fill="#000000">iDynTree/Model/JointState.h</text>
</a>
</g>
</g>
<!-- Node53&#45;&gt;Node55 -->
<g id="edge115" class="edge">
<title>Node53&#45;&gt;Node55</title>
<path fill="none" stroke="#191970" d="M1395.7248,-588.6558C1494.875,-577.3006 1666.4051,-557.6561 1769.5845,-545.8395"/>
<polygon fill="#191970" stroke="#191970" points="1770.1227,-549.3008 1779.6595,-544.6856 1769.3262,-542.3463 1770.1227,-549.3008"/>
</g>
<!-- Node54&#45;&gt;Node3 -->
<g id="edge112" class="edge">
<title>Node54&#45;&gt;Node3</title>
<path fill="none" stroke="#191970" d="M1675.0763,-408.929C1662.7371,-406.871 1649.6804,-404.7812 1637.5,-403 1497.8207,-382.5736 1010.5,-442.165 1010.5,-301 1010.5,-301 1010.5,-301 1010.5,-183.5 1010.5,-148.2111 999.5786,-108.2402 992.1729,-85.1925"/>
<polygon fill="#191970" stroke="#191970" points="995.4586,-83.9817 988.9761,-75.6014 988.8178,-86.1951 995.4586,-83.9817"/>
</g>
<!-- Node54&#45;&gt;Node20 -->
<g id="edge111" class="edge">
<title>Node54&#45;&gt;Node20</title>
<path fill="none" stroke="#191970" d="M1802.9313,-408.9927C1942.9919,-389.8563 2234.5,-344.77 2234.5,-301 2234.5,-301 2234.5,-301 2234.5,-245 2234.5,-178.4074 2220.7575,-149.1641 2165.5,-112 2140.7544,-95.357 2109.8297,-84.5929 2082.1982,-77.6998"/>
<polygon fill="#191970" stroke="#191970" points="2082.7218,-74.2272 2072.1847,-75.3317 2081.1107,-81.0393 2082.7218,-74.2272"/>
</g>
<!-- Node55&#45;&gt;Node19 -->
<g id="edge116" class="edge">
<title>Node55&#45;&gt;Node19</title>
<path fill="none" stroke="#191970" d="M1931.1448,-532.0169C2060.5259,-523.116 2310.5,-495.9033 2310.5,-418.5 2310.5,-418.5 2310.5,-418.5 2310.5,-357 2310.5,-213.7799 2181.4353,-223.7233 2049.5,-168 2018.2768,-154.8128 1937.0745,-141.7354 1872.8999,-132.9148"/>
<polygon fill="#191970" stroke="#191970" points="1873.137,-129.4149 1862.7567,-131.5363 1872.1943,-136.3512 1873.137,-129.4149"/>
</g>
<!-- Node55&#45;&gt;Node37 -->
<g id="edge118" class="edge">
<title>Node55&#45;&gt;Node37</title>
<path fill="none" stroke="#191970" d="M1922.7753,-526.4206C1964.9125,-518.8872 2013.5949,-506.8354 2026.5,-490 2038.6928,-474.0939 2025.0109,-454.9465 2009.4718,-440.4708"/>
<polygon fill="#191970" stroke="#191970" points="2011.6351,-437.7133 2001.7997,-433.7746 2007.0322,-442.9871 2011.6351,-437.7133"/>
</g>
<!-- Node55&#45;&gt;Node43 -->
<g id="edge119" class="edge">
<title>Node55&#45;&gt;Node43</title>
<path fill="none" stroke="#191970" d="M1779.9861,-531.3935C1591.2182,-519.8782 1104.4323,-490.1832 971.4849,-482.0732"/>
<polygon fill="#191970" stroke="#191970" points="971.3205,-478.5567 961.1259,-481.4412 970.8942,-485.5437 971.3205,-478.5567"/>
</g>
<!-- Node55&#45;&gt;Node54 -->
<g id="edge117" class="edge">
<title>Node55&#45;&gt;Node54</title>
<path fill="none" stroke="#191970" d="M1849.2223,-526.3121C1840.1551,-512.7601 1822.3968,-487.8081 1803.5,-470 1788.6898,-456.0431 1769.8358,-442.9792 1754.8655,-433.5012"/>
<polygon fill="#191970" stroke="#191970" points="1756.4625,-430.3735 1746.1172,-428.0873 1752.7788,-436.3259 1756.4625,-430.3735"/>
</g>
<!-- Node56&#45;&gt;Node19 -->
<g id="edge124" class="edge">
<title>Node56&#45;&gt;Node19</title>
<path fill="none" stroke="#191970" d="M1998.1047,-470.4407C2021.5452,-463.8543 2046.6399,-452.7413 2063.5,-434 2087.0746,-407.7949 2082.5,-392.2487 2082.5,-357 2082.5,-357 2082.5,-357 2082.5,-245 2082.5,-197.8428 2050.7182,-190.9099 2009.5,-168 1984.8362,-154.2914 1918.4953,-141.6235 1864.3672,-133.0674"/>
<polygon fill="#191970" stroke="#191970" points="1864.8346,-129.5981 1854.4152,-131.5184 1863.7579,-136.5148 1864.8346,-129.5981"/>
</g>
<!-- Node56&#45;&gt;Node12 -->
<g id="edge131" class="edge">
<title>Node56&#45;&gt;Node12</title>
<path fill="none" stroke="#191970" d="M2017.0291,-471.2895C2081.7864,-463.2839 2166.8432,-450.2146 2197.5,-434 2239.7301,-411.6642 2272.5,-404.7731 2272.5,-357 2272.5,-357 2272.5,-357 2272.5,-245 2272.5,-169.134 2231.157,-150.0106 2165.5,-112 2160.6786,-109.2088 2027.984,-89.03 1943.1529,-76.3426"/>
<polygon fill="#191970" stroke="#191970" points="1943.4642,-72.8504 1933.0568,-74.8342 1942.4298,-79.7735 1943.4642,-72.8504"/>
</g>
<!-- Node56&#45;&gt;Node29 -->
<g id="edge128" class="edge">
<title>Node56&#45;&gt;Node29</title>
<path fill="none" stroke="#191970" d="M1871.6878,-470.4809C1813.3264,-461.806 1724.9255,-448.4119 1638.2806,-434.1077"/>
<polygon fill="#191970" stroke="#191970" points="1638.71,-430.6312 1628.2725,-432.45 1637.5661,-437.5371 1638.71,-430.6312"/>
</g>
<!-- Node56&#45;&gt;Node11 -->
<g id="edge127" class="edge">
<title>Node56&#45;&gt;Node11</title>
<path fill="none" stroke="#191970" d="M1928.6015,-470.394C1915.2738,-454.6605 1886.8855,-423.1376 1857.5,-403 1767.5976,-341.3909 1634.5,-409.9868 1634.5,-301 1634.5,-301 1634.5,-301 1634.5,-245 1634.5,-209.7513 1637.392,-195.6263 1615.5,-168 1603.7477,-153.1693 1585.9269,-142.6709 1569.2354,-135.4864"/>
<polygon fill="#191970" stroke="#191970" points="1570.1774,-132.0937 1559.5926,-131.6315 1567.5789,-138.5936 1570.1774,-132.0937"/>
</g>
<!-- Node56&#45;&gt;Node37 -->
<g id="edge129" class="edge">
<title>Node56&#45;&gt;Node37</title>
<path fill="none" stroke="#191970" d="M1943.375,-470.3906C1948.8336,-462.761 1956.7001,-451.7658 1963.788,-441.8588"/>
<polygon fill="#191970" stroke="#191970" points="1966.7642,-443.714 1969.7364,-433.5446 1961.0712,-439.6409 1966.7642,-443.714"/>
</g>
<!-- Node56&#45;&gt;Node40 -->
<g id="edge130" class="edge">
<title>Node56&#45;&gt;Node40</title>
<path fill="none" stroke="#191970" d="M1855.6538,-474.6766C1679.7019,-463.0909 1263.5904,-435.6917 1085.6042,-423.9721"/>
<polygon fill="#191970" stroke="#191970" points="1085.7198,-420.4722 1075.5114,-423.3075 1085.2598,-427.4571 1085.7198,-420.4722"/>
</g>
<!-- Node56&#45;&gt;Node54 -->
<g id="edge123" class="edge">
<title>Node56&#45;&gt;Node54</title>
<path fill="none" stroke="#191970" d="M1904.1563,-470.3906C1868.382,-459.7621 1810.6253,-442.6025 1771.4095,-430.9514"/>
<polygon fill="#191970" stroke="#191970" points="1772.1993,-427.5349 1761.6166,-428.0419 1770.2057,-434.245 1772.1993,-427.5349"/>
</g>
<!-- Node57 -->
<g id="node49" class="node">
<title>Node57</title>
<polygon fill="none" stroke="#bfbfbf" points="2111,-409 2111,-428 2188,-428 2188,-409 2111,-409"/>
<text text-anchor="middle" x="2149.5" y="-416" font-family="FreeSans.ttf" font-size="10.00" fill="#000000">Eigen/Dense</text>
</g>
<!-- Node56&#45;&gt;Node57 -->
<g id="edge122" class="edge">
<title>Node56&#45;&gt;Node57</title>
<path fill="none" stroke="#191970" d="M1969.9154,-470.4411C2002.2931,-461.1678 2052.7788,-446.678 2096.5,-434 2100.0219,-432.9787 2103.6745,-431.9166 2107.3402,-430.8487"/>
<polygon fill="#191970" stroke="#191970" points="2108.3739,-434.1931 2116.9932,-428.0322 2106.4131,-427.4733 2108.3739,-434.1931"/>
</g>
<!-- Node58 -->
<g id="node50" class="node">
<title>Node58</title>
<g id="a_node50"><a xlink:href="MatrixDynSize_8h.html" target="_top" xlink:title="iDynTree/Core/MatrixDynSize.h">
<polygon fill="none" stroke="#000000" points="1356,-291.5 1356,-310.5 1523,-310.5 1523,-291.5 1356,-291.5"/>
<text text-anchor="middle" x="1439.5" y="-298.5" font-family="FreeSans.ttf" font-size="10.00" fill="#000000">iDynTree/Core/MatrixDynSize.h</text>
</a>
</g>
</g>
<!-- Node56&#45;&gt;Node58 -->
<g id="edge125" class="edge">
<title>Node56&#45;&gt;Node58</title>
<path fill="none" stroke="#191970" d="M1920.8535,-470.4266C1906.1346,-461.3217 1883.5697,-447.1075 1864.5,-434 1845.3803,-420.8582 1843.8137,-412.165 1822.5,-403 1738.7245,-366.9761 1708.5564,-390.7091 1620.5,-367 1566.918,-352.5731 1506.7685,-329.1266 1471.0669,-314.4099"/>
<polygon fill="#191970" stroke="#191970" points="1472.2488,-311.1109 1461.6713,-310.5053 1469.5625,-317.575 1472.2488,-311.1109"/>
</g>
<!-- Node58&#45;&gt;Node3 -->
<g id="edge126" class="edge">
<title>Node58&#45;&gt;Node3</title>
<path fill="none" stroke="#191970" d="M1438.0332,-291.2515C1433.7978,-266.618 1419.2119,-201.46 1379.5,-168 1323.6657,-120.9558 1101.2143,-83.3945 1017.5421,-70.6636"/>
<polygon fill="#191970" stroke="#191970" points="1018.0009,-67.1933 1007.5916,-69.1675 1016.9601,-74.1155 1018.0009,-67.1933"/>
</g>
</g>
</svg>
