<?xml version="1.0" encoding="UTF-8" standalone="no"?>
<!DOCTYPE svg PUBLIC "-//W3C//DTD SVG 1.1//EN"
 "http://www.w3.org/Graphics/SVG/1.1/DTD/svg11.dtd">
<!-- Generated by graphviz version 2.40.1 (20161225.0304)
 -->
<!-- Title: DynamicsLinearizationHelpers.h Pages: 1 -->
<svg width="1681pt" height="666pt"
 viewBox="0.00 0.00 1681.00 666.00" xmlns="http://www.w3.org/2000/svg" xmlns:xlink="http://www.w3.org/1999/xlink">
<g id="graph0" class="graph" transform="scale(1 1) rotate(0) translate(4 662)">
<title>DynamicsLinearizationHelpers.h</title>
<!-- Node0 -->
<g id="node1" class="node">
<title>Node0</title>
<polygon fill="#bfbfbf" stroke="#000000" points="1357,-638.5 1357,-657.5 1532,-657.5 1532,-638.5 1357,-638.5"/>
<text text-anchor="middle" x="1444.5" y="-645.5" font-family="FreeSans.ttf" font-size="10.00" fill="#000000">DynamicsLinearizationHelpers.h</text>
</g>
<!-- Node1 -->
<g id="node2" class="node">
<title>Node1</title>
<g id="a_node2"><a xlink:href="MatrixFixSize_8h.html" target="_top" xlink:title="iDynTree/Core/MatrixFixSize.h">
<polygon fill="none" stroke="#000000" points="849,-112.5 849,-131.5 1010,-131.5 1010,-112.5 849,-112.5"/>
<text text-anchor="middle" x="929.5" y="-119.5" font-family="FreeSans.ttf" font-size="10.00" fill="#000000">iDynTree/Core/MatrixFixSize.h</text>
</a>
</g>
</g>
<!-- Node0&#45;&gt;Node1 -->
<g id="edge1" class="edge">
<title>Node0&#45;&gt;Node1</title>
<path fill="none" stroke="#191970" d="M1455.4254,-638.4083C1474.6474,-620.4089 1512.5,-579.4481 1512.5,-536 1512.5,-536 1512.5,-536 1512.5,-418.5 1512.5,-215.4739 1317.2855,-247.5662 1130.5,-168 1091.8021,-151.5156 1046.2836,-140.4727 1008.358,-133.3489"/>
<polygon fill="#191970" stroke="#191970" points="1008.8483,-129.8807 998.383,-131.5319 1007.5938,-136.7673 1008.8483,-129.8807"/>
</g>
<!-- Node10 -->
<g id="node11" class="node">
<title>Node10</title>
<g id="a_node11"><a xlink:href="Dynamics_8h.html" target="_top" xlink:title="iDynTree/Model/Dynamics.h">
<polygon fill="none" stroke="#000000" points="1301.5,-582.5 1301.5,-601.5 1453.5,-601.5 1453.5,-582.5 1301.5,-582.5"/>
<text text-anchor="middle" x="1377.5" y="-589.5" font-family="FreeSans.ttf" font-size="10.00" fill="#000000">iDynTree/Model/Dynamics.h</text>
</a>
</g>
</g>
<!-- Node0&#45;&gt;Node10 -->
<g id="edge10" class="edge">
<title>Node0&#45;&gt;Node10</title>
<path fill="none" stroke="#191970" d="M1432.8295,-638.2455C1422.9339,-629.9746 1408.5373,-617.9416 1396.9099,-608.2232"/>
<polygon fill="#191970" stroke="#191970" points="1398.9542,-605.3703 1389.0368,-601.6427 1394.465,-610.7413 1398.9542,-605.3703"/>
</g>
<!-- Node2 -->
<g id="node3" class="node">
<title>Node2</title>
<g id="a_node3"><a xlink:href="Utils_8h.html" target="_top" xlink:title="iDynTree/Core/Utils.h">
<polygon fill="none" stroke="#000000" points="478,-56.5 478,-75.5 597,-75.5 597,-56.5 478,-56.5"/>
<text text-anchor="middle" x="537.5" y="-63.5" font-family="FreeSans.ttf" font-size="10.00" fill="#000000">iDynTree/Core/Utils.h</text>
</a>
</g>
</g>
<!-- Node1&#45;&gt;Node2 -->
<g id="edge2" class="edge">
<title>Node1&#45;&gt;Node2</title>
<path fill="none" stroke="#191970" d="M862.3726,-112.4892C799.2698,-103.5373 701.8809,-89.693 607.3604,-76.121"/>
<polygon fill="#191970" stroke="#191970" points="607.7339,-72.6388 597.3378,-74.6813 606.7386,-79.5677 607.7339,-72.6388"/>
</g>
<!-- Node5 -->
<g id="node6" class="node">
<title>Node5</title>
<polygon fill="none" stroke="#bfbfbf" points="679.5,-.5 679.5,-19.5 731.5,-19.5 731.5,-.5 679.5,-.5"/>
<text text-anchor="middle" x="705.5" y="-7.5" font-family="FreeSans.ttf" font-size="10.00" fill="#000000">cassert</text>
</g>
<!-- Node1&#45;&gt;Node5 -->
<g id="edge5" class="edge">
<title>Node1&#45;&gt;Node5</title>
<path fill="none" stroke="#191970" d="M927.0882,-112.2763C922.9627,-97.736 913.1337,-70.4908 894.5,-56 870.9059,-37.6517 789.5782,-22.6845 741.6374,-15.1951"/>
<polygon fill="#191970" stroke="#191970" points="742.0739,-11.7212 731.6596,-13.6688 741.0154,-18.6407 742.0739,-11.7212"/>
</g>
<!-- Node6 -->
<g id="node7" class="node">
<title>Node6</title>
<polygon fill="none" stroke="#bfbfbf" points="835.5,-56.5 835.5,-75.5 885.5,-75.5 885.5,-56.5 835.5,-56.5"/>
<text text-anchor="middle" x="860.5" y="-63.5" font-family="FreeSans.ttf" font-size="10.00" fill="#000000">cstring</text>
</g>
<!-- Node1&#45;&gt;Node6 -->
<g id="edge6" class="edge">
<title>Node1&#45;&gt;Node6</title>
<path fill="none" stroke="#191970" d="M917.4811,-112.2455C907.2902,-103.9746 892.4638,-91.9416 880.4893,-82.2232"/>
<polygon fill="#191970" stroke="#191970" points="882.3514,-79.2268 872.3812,-75.6427 877.9402,-84.662 882.3514,-79.2268"/>
</g>
<!-- Node7 -->
<g id="node8" class="node">
<title>Node7</title>
<polygon fill="none" stroke="#bfbfbf" points="1106.5,-56.5 1106.5,-75.5 1150.5,-75.5 1150.5,-56.5 1106.5,-56.5"/>
<text text-anchor="middle" x="1128.5" y="-63.5" font-family="FreeSans.ttf" font-size="10.00" fill="#000000">string</text>
</g>
<!-- Node1&#45;&gt;Node7 -->
<g id="edge7" class="edge">
<title>Node1&#45;&gt;Node7</title>
<path fill="none" stroke="#191970" d="M963.7093,-112.3733C1000.9299,-101.8991 1059.9743,-85.2836 1096.3609,-75.0442"/>
<polygon fill="#191970" stroke="#191970" points="1097.7532,-78.2884 1106.4312,-72.2103 1095.857,-71.5501 1097.7532,-78.2884"/>
</g>
<!-- Node8 -->
<g id="node9" class="node">
<title>Node8</title>
<polygon fill="none" stroke="#bfbfbf" points="615.5,-56.5 615.5,-75.5 675.5,-75.5 675.5,-56.5 615.5,-56.5"/>
<text text-anchor="middle" x="645.5" y="-63.5" font-family="FreeSans.ttf" font-size="10.00" fill="#000000">iostream</text>
</g>
<!-- Node1&#45;&gt;Node8 -->
<g id="edge8" class="edge">
<title>Node1&#45;&gt;Node8</title>
<path fill="none" stroke="#191970" d="M881.0014,-112.4369C826.0138,-101.5943 737.3529,-84.1118 685.9432,-73.9747"/>
<polygon fill="#191970" stroke="#191970" points="686.3596,-70.4895 675.8714,-71.9887 685.0054,-77.3573 686.3596,-70.4895"/>
</g>
<!-- Node9 -->
<g id="node10" class="node">
<title>Node9</title>
<polygon fill="none" stroke="#bfbfbf" points="731.5,-56.5 731.5,-75.5 787.5,-75.5 787.5,-56.5 731.5,-56.5"/>
<text text-anchor="middle" x="759.5" y="-63.5" font-family="FreeSans.ttf" font-size="10.00" fill="#000000">sstream</text>
</g>
<!-- Node1&#45;&gt;Node9 -->
<g id="edge9" class="edge">
<title>Node1&#45;&gt;Node9</title>
<path fill="none" stroke="#191970" d="M900.276,-112.3733C871.8362,-103.0049 828.4817,-88.7234 797.4026,-78.4856"/>
<polygon fill="#191970" stroke="#191970" points="798.3708,-75.1196 787.7778,-75.315 796.1807,-81.7681 798.3708,-75.1196"/>
</g>
<!-- Node3 -->
<g id="node4" class="node">
<title>Node3</title>
<polygon fill="none" stroke="#bfbfbf" points="510,-.5 510,-19.5 563,-19.5 563,-.5 510,-.5"/>
<text text-anchor="middle" x="536.5" y="-7.5" font-family="FreeSans.ttf" font-size="10.00" fill="#000000">cstddef</text>
</g>
<!-- Node2&#45;&gt;Node3 -->
<g id="edge3" class="edge">
<title>Node2&#45;&gt;Node3</title>
<path fill="none" stroke="#191970" d="M537.3258,-56.2455C537.1953,-48.9382 537.0124,-38.6944 536.8519,-29.7046"/>
<polygon fill="#191970" stroke="#191970" points="540.3503,-29.5786 536.6722,-19.6427 533.3514,-29.7036 540.3503,-29.5786"/>
</g>
<!-- Node4 -->
<g id="node5" class="node">
<title>Node4</title>
<polygon fill="none" stroke="#bfbfbf" points="581.5,-.5 581.5,-19.5 661.5,-19.5 661.5,-.5 581.5,-.5"/>
<text text-anchor="middle" x="621.5" y="-7.5" font-family="FreeSans.ttf" font-size="10.00" fill="#000000">CoreExport.h</text>
</g>
<!-- Node2&#45;&gt;Node4 -->
<g id="edge4" class="edge">
<title>Node2&#45;&gt;Node4</title>
<path fill="none" stroke="#191970" d="M552.1317,-56.2455C564.8994,-47.7337 583.6438,-35.2375 598.4299,-25.3801"/>
<polygon fill="#191970" stroke="#191970" points="600.6569,-28.1019 607.036,-19.6427 596.774,-22.2775 600.6569,-28.1019"/>
</g>
<!-- Node11 -->
<g id="node12" class="node">
<title>Node11</title>
<g id="a_node12"><a xlink:href="MatrixDynSize_8h.html" target="_top" xlink:title="iDynTree/Core/MatrixDynSize.h">
<polygon fill="none" stroke="#000000" points="1506,-291.5 1506,-310.5 1673,-310.5 1673,-291.5 1506,-291.5"/>
<text text-anchor="middle" x="1589.5" y="-298.5" font-family="FreeSans.ttf" font-size="10.00" fill="#000000">iDynTree/Core/MatrixDynSize.h</text>
</a>
</g>
</g>
<!-- Node10&#45;&gt;Node11 -->
<g id="edge11" class="edge">
<title>Node10&#45;&gt;Node11</title>
<path fill="none" stroke="#191970" d="M1394.8417,-582.4601C1422.7423,-565.6916 1474.5,-528.1023 1474.5,-480 1474.5,-480 1474.5,-480 1474.5,-418.5 1474.5,-369.8408 1525.495,-333.8832 1559.5689,-315.2882"/>
<polygon fill="#191970" stroke="#191970" points="1561.4474,-318.2551 1568.6744,-310.5077 1558.1935,-312.0573 1561.4474,-318.2551"/>
</g>
<!-- Node12 -->
<g id="node13" class="node">
<title>Node12</title>
<g id="a_node13"><a xlink:href="Indices_8h.html" target="_top" xlink:title="iDynTree/Model/Indices.h">
<polygon fill="none" stroke="#000000" points="1308.5,-470.5 1308.5,-489.5 1446.5,-489.5 1446.5,-470.5 1308.5,-470.5"/>
<text text-anchor="middle" x="1377.5" y="-477.5" font-family="FreeSans.ttf" font-size="10.00" fill="#000000">iDynTree/Model/Indices.h</text>
</a>
</g>
</g>
<!-- Node10&#45;&gt;Node12 -->
<g id="edge13" class="edge">
<title>Node10&#45;&gt;Node12</title>
<path fill="none" stroke="#191970" d="M1377.5,-582.4509C1377.5,-564.184 1377.5,-523.9553 1377.5,-499.6976"/>
<polygon fill="#191970" stroke="#191970" points="1381.0001,-499.5249 1377.5,-489.5249 1374.0001,-499.5249 1381.0001,-499.5249"/>
</g>
<!-- Node14 -->
<g id="node15" class="node">
<title>Node14</title>
<g id="a_node15"><a xlink:href="LinkState_8h.html" target="_top" xlink:title="iDynTree/Model/LinkState.h">
<polygon fill="none" stroke="#000000" points="852,-526.5 852,-545.5 1001,-545.5 1001,-526.5 852,-526.5"/>
<text text-anchor="middle" x="926.5" y="-533.5" font-family="FreeSans.ttf" font-size="10.00" fill="#000000">iDynTree/Model/LinkState.h</text>
</a>
</g>
</g>
<!-- Node10&#45;&gt;Node14 -->
<g id="edge16" class="edge">
<title>Node10&#45;&gt;Node14</title>
<path fill="none" stroke="#191970" d="M1301.2491,-582.532C1220.8747,-572.5521 1094.5867,-556.8711 1011.1703,-546.5134"/>
<polygon fill="#191970" stroke="#191970" points="1011.5712,-543.0364 1001.2161,-545.2774 1010.7086,-549.983 1011.5712,-543.0364"/>
</g>
<!-- Node38 -->
<g id="node39" class="node">
<title>Node38</title>
<g id="a_node39"><a xlink:href="JointState_8h.html" target="_top" xlink:title="iDynTree/Model/JointState.h">
<polygon fill="none" stroke="#000000" points="296,-470.5 296,-489.5 447,-489.5 447,-470.5 296,-470.5"/>
<text text-anchor="middle" x="371.5" y="-477.5" font-family="FreeSans.ttf" font-size="10.00" fill="#000000">iDynTree/Model/JointState.h</text>
</a>
</g>
</g>
<!-- Node10&#45;&gt;Node38 -->
<g id="edge72" class="edge">
<title>Node10&#45;&gt;Node38</title>
<path fill="none" stroke="#191970" d="M1301.1806,-586.7272C1197.27,-579.254 1005.5383,-564.4189 842.5,-546 699.9525,-529.896 533.9546,-505.252 441.9904,-491.0767"/>
<polygon fill="#191970" stroke="#191970" points="442.3824,-487.5959 431.9652,-489.5277 441.3135,-494.5138 442.3824,-487.5959"/>
</g>
<!-- Node11&#45;&gt;Node7 -->
<g id="edge12" class="edge">
<title>Node11&#45;&gt;Node7</title>
<path fill="none" stroke="#191970" d="M1587.7436,-291.0647C1581.4926,-258.9323 1557.1394,-157.2899 1492.5,-112 1465.5167,-93.094 1244.3855,-74.7008 1160.5551,-68.3409"/>
<polygon fill="#191970" stroke="#191970" points="1160.8123,-64.8504 1150.5783,-67.5918 1160.2881,-71.8308 1160.8123,-64.8504"/>
</g>
<!-- Node12&#45;&gt;Node7 -->
<g id="edge14" class="edge">
<title>Node12&#45;&gt;Node7</title>
<path fill="none" stroke="#191970" d="M1388.0252,-470.3286C1396.9726,-461.5983 1409.5913,-448.008 1417.5,-434 1460.8953,-357.1374 1478.5,-333.2667 1478.5,-245 1478.5,-245 1478.5,-245 1478.5,-183.5 1478.5,-139.9507 1449.9351,-132.4765 1411.5,-112 1368.4289,-89.0537 1225.3071,-74.2715 1160.672,-68.609"/>
<polygon fill="#191970" stroke="#191970" points="1160.9004,-65.1158 1150.6378,-67.7483 1160.302,-72.0902 1160.9004,-65.1158"/>
</g>
<!-- Node13 -->
<g id="node14" class="node">
<title>Node13</title>
<polygon fill="none" stroke="#bfbfbf" points="1322.5,-409 1322.5,-428 1408.5,-428 1408.5,-409 1322.5,-409"/>
<text text-anchor="middle" x="1365.5" y="-416" font-family="FreeSans.ttf" font-size="10.00" fill="#000000">ModelExport.h</text>
</g>
<!-- Node12&#45;&gt;Node13 -->
<g id="edge15" class="edge">
<title>Node12&#45;&gt;Node13</title>
<path fill="none" stroke="#191970" d="M1375.625,-470.3906C1373.9441,-461.776 1371.426,-448.8708 1369.3216,-438.0858"/>
<polygon fill="#191970" stroke="#191970" points="1372.7518,-437.3895 1367.4014,-428.2449 1365.8814,-438.7301 1372.7518,-437.3895"/>
</g>
<!-- Node14&#45;&gt;Node12 -->
<g id="edge70" class="edge">
<title>Node14&#45;&gt;Node12</title>
<path fill="none" stroke="#191970" d="M1001.2265,-526.7213C1083.2555,-516.5359 1214.4088,-500.2508 1298.2084,-489.8455"/>
<polygon fill="#191970" stroke="#191970" points="1298.6941,-493.3122 1308.1866,-488.6065 1297.8315,-486.3655 1298.6941,-493.3122"/>
</g>
<!-- Node15 -->
<g id="node16" class="node">
<title>Node15</title>
<g id="a_node16"><a xlink:href="Transform_8h.html" target="_top" xlink:title="iDynTree/Core/Transform.h">
<polygon fill="none" stroke="#000000" points="897.5,-347.5 897.5,-366.5 1043.5,-366.5 1043.5,-347.5 897.5,-347.5"/>
<text text-anchor="middle" x="970.5" y="-354.5" font-family="FreeSans.ttf" font-size="10.00" fill="#000000">iDynTree/Core/Transform.h</text>
</a>
</g>
</g>
<!-- Node14&#45;&gt;Node15 -->
<g id="edge17" class="edge">
<title>Node14&#45;&gt;Node15</title>
<path fill="none" stroke="#191970" d="M933.1476,-526.2398C938.9458,-517.2349 947.0987,-503.2876 951.5,-490 964.3412,-451.2322 968.5049,-403.2797 969.8541,-376.8409"/>
<polygon fill="#191970" stroke="#191970" points="973.3607,-376.7556 970.2871,-366.6164 966.367,-376.4593 973.3607,-376.7556"/>
</g>
<!-- Node30 -->
<g id="node31" class="node">
<title>Node30</title>
<g id="a_node31"><a xlink:href="Twist_8h.html" target="_top" xlink:title="iDynTree/Core/Twist.h">
<polygon fill="none" stroke="#000000" points="820.5,-470.5 820.5,-489.5 942.5,-489.5 942.5,-470.5 820.5,-470.5"/>
<text text-anchor="middle" x="881.5" y="-477.5" font-family="FreeSans.ttf" font-size="10.00" fill="#000000">iDynTree/Core/Twist.h</text>
</a>
</g>
</g>
<!-- Node14&#45;&gt;Node30 -->
<g id="edge49" class="edge">
<title>Node14&#45;&gt;Node30</title>
<path fill="none" stroke="#191970" d="M918.6616,-526.2455C912.338,-518.3761 903.2776,-507.101 895.6864,-497.6542"/>
<polygon fill="#191970" stroke="#191970" points="898.2408,-495.2454 889.2486,-489.6427 892.7842,-499.6302 898.2408,-495.2454"/>
</g>
<!-- Node33 -->
<g id="node34" class="node">
<title>Node33</title>
<g id="a_node34"><a xlink:href="SpatialAcc_8h.html" target="_top" xlink:title="iDynTree/Core/SpatialAcc.h">
<polygon fill="none" stroke="#000000" points="654.5,-470.5 654.5,-489.5 802.5,-489.5 802.5,-470.5 654.5,-470.5"/>
<text text-anchor="middle" x="728.5" y="-477.5" font-family="FreeSans.ttf" font-size="10.00" fill="#000000">iDynTree/Core/SpatialAcc.h</text>
</a>
</g>
</g>
<!-- Node14&#45;&gt;Node33 -->
<g id="edge60" class="edge">
<title>Node14&#45;&gt;Node33</title>
<path fill="none" stroke="#191970" d="M892.4626,-526.3733C859.1106,-516.9404 808.1473,-502.5265 771.8998,-492.2747"/>
<polygon fill="#191970" stroke="#191970" points="772.6684,-488.8548 762.0933,-489.5011 770.7632,-495.5906 772.6684,-488.8548"/>
</g>
<!-- Node34 -->
<g id="node35" class="node">
<title>Node34</title>
<g id="a_node35"><a xlink:href="Wrench_8h.html" target="_top" xlink:title="iDynTree/Core/Wrench.h">
<polygon fill="none" stroke="#000000" points="465,-470.5 465,-489.5 598,-489.5 598,-470.5 465,-470.5"/>
<text text-anchor="middle" x="531.5" y="-477.5" font-family="FreeSans.ttf" font-size="10.00" fill="#000000">iDynTree/Core/Wrench.h</text>
</a>
</g>
</g>
<!-- Node14&#45;&gt;Node34 -->
<g id="edge62" class="edge">
<title>Node14&#45;&gt;Node34</title>
<path fill="none" stroke="#191970" d="M859.0459,-526.4369C789.388,-516.5613 680.8774,-501.1776 608.0489,-490.8525"/>
<polygon fill="#191970" stroke="#191970" points="608.4093,-487.3687 598.017,-489.4303 607.4267,-494.2994 608.4093,-487.3687"/>
</g>
<!-- Node36 -->
<g id="node37" class="node">
<title>Node36</title>
<g id="a_node37"><a xlink:href="ArticulatedBodyInertia_8h.html" target="_top" xlink:title="iDynTree/Core/Articulated\lBodyInertia.h">
<polygon fill="none" stroke="#000000" points="1271,-168.5 1271,-198.5 1412,-198.5 1412,-168.5 1271,-168.5"/>
<text text-anchor="start" x="1279" y="-186.5" font-family="FreeSans.ttf" font-size="10.00" fill="#000000">iDynTree/Core/Articulated</text>
<text text-anchor="middle" x="1341.5" y="-175.5" font-family="FreeSans.ttf" font-size="10.00" fill="#000000">BodyInertia.h</text>
</a>
</g>
</g>
<!-- Node14&#45;&gt;Node36 -->
<g id="edge67" class="edge">
<title>Node14&#45;&gt;Node36</title>
<path fill="none" stroke="#191970" d="M1001.1417,-526.5543C1105.0013,-511.2894 1280.5,-476.8608 1280.5,-418.5 1280.5,-418.5 1280.5,-418.5 1280.5,-301 1280.5,-264.9261 1303.4281,-228.92 1321.1707,-206.4576"/>
<polygon fill="#191970" stroke="#191970" points="1324.0275,-208.4933 1327.6582,-198.54 1318.613,-204.0568 1324.0275,-208.4933"/>
</g>
<!-- Node37 -->
<g id="node38" class="node">
<title>Node37</title>
<polygon fill="none" stroke="#bfbfbf" points="525,-409 525,-428 572,-428 572,-409 525,-409"/>
<text text-anchor="middle" x="548.5" y="-416" font-family="FreeSans.ttf" font-size="10.00" fill="#000000">vector</text>
</g>
<!-- Node14&#45;&gt;Node37 -->
<g id="edge71" class="edge">
<title>Node14&#45;&gt;Node37</title>
<path fill="none" stroke="#191970" d="M851.9735,-527.8038C781.6571,-519.3519 681.7741,-505.2823 645.5,-490 614.4024,-476.8986 583.9846,-451.9224 565.7351,-435.2363"/>
<polygon fill="#191970" stroke="#191970" points="567.9395,-432.5056 558.2477,-428.2254 563.155,-437.6153 567.9395,-432.5056"/>
</g>
<!-- Node15&#45;&gt;Node1 -->
<g id="edge47" class="edge">
<title>Node15&#45;&gt;Node1</title>
<path fill="none" stroke="#191970" d="M987.4328,-347.4297C1034.8191,-319.4586 1161.9631,-235.5564 1109.5,-168 1097.1178,-152.0555 1053.8067,-140.7054 1012.7745,-133.269"/>
<polygon fill="#191970" stroke="#191970" points="1013.1429,-129.7804 1002.69,-131.5089 1011.9393,-136.6762 1013.1429,-129.7804"/>
</g>
<!-- Node15&#45;&gt;Node7 -->
<g id="edge48" class="edge">
<title>Node15&#45;&gt;Node7</title>
<path fill="none" stroke="#191970" d="M1018.5133,-347.4241C1124.6119,-325.1877 1373.4434,-266.7561 1421.5,-199 1489.2013,-103.5463 1249.9065,-75.2534 1160.7108,-68.1231"/>
<polygon fill="#191970" stroke="#191970" points="1160.8446,-64.6233 1150.6081,-67.3554 1160.3141,-71.6031 1160.8446,-64.6233"/>
</g>
<!-- Node16 -->
<g id="node17" class="node">
<title>Node16</title>
<g id="a_node17"><a xlink:href="Position_8h.html" target="_top" xlink:title="iDynTree/Core/Position.h">
<polygon fill="none" stroke="#000000" points="865.5,-291.5 865.5,-310.5 1001.5,-310.5 1001.5,-291.5 865.5,-291.5"/>
<text text-anchor="middle" x="933.5" y="-298.5" font-family="FreeSans.ttf" font-size="10.00" fill="#000000">iDynTree/Core/Position.h</text>
</a>
</g>
</g>
<!-- Node15&#45;&gt;Node16 -->
<g id="edge18" class="edge">
<title>Node15&#45;&gt;Node16</title>
<path fill="none" stroke="#191970" d="M964.0551,-347.2455C958.9618,-339.5367 951.7092,-328.5598 945.548,-319.2348"/>
<polygon fill="#191970" stroke="#191970" points="948.3038,-317.0566 939.8711,-310.6427 942.4635,-320.9155 948.3038,-317.0566"/>
</g>
<!-- Node27 -->
<g id="node28" class="node">
<title>Node27</title>
<g id="a_node28"><a xlink:href="Rotation_8h.html" target="_top" xlink:title="iDynTree/Core/Rotation.h">
<polygon fill="none" stroke="#000000" points="768,-235.5 768,-254.5 905,-254.5 905,-235.5 768,-235.5"/>
<text text-anchor="middle" x="836.5" y="-242.5" font-family="FreeSans.ttf" font-size="10.00" fill="#000000">iDynTree/Core/Rotation.h</text>
</a>
</g>
</g>
<!-- Node15&#45;&gt;Node27 -->
<g id="edge46" class="edge">
<title>Node15&#45;&gt;Node27</title>
<path fill="none" stroke="#191970" d="M921.3621,-347.4262C898.8273,-340.7146 873.4231,-329.5059 856.5,-311 845.0241,-298.4508 840.1258,-279.5107 838.0389,-265.134"/>
<polygon fill="#191970" stroke="#191970" points="841.4734,-264.3469 836.8961,-254.7918 834.5157,-265.1158 841.4734,-264.3469"/>
</g>
<!-- Node16&#45;&gt;Node7 -->
<g id="edge45" class="edge">
<title>Node16&#45;&gt;Node7</title>
<path fill="none" stroke="#191970" d="M972.6615,-291.4444C1017.9837,-278.3281 1091.6123,-250.3116 1132.5,-199 1157.0525,-168.1881 1157.872,-150.4981 1149.5,-112 1147.4575,-102.6079 1143.3211,-92.8357 1139.2553,-84.7264"/>
<polygon fill="#191970" stroke="#191970" points="1142.2809,-82.9622 1134.4765,-75.7968 1136.1091,-86.2651 1142.2809,-82.9622"/>
</g>
<!-- Node17 -->
<g id="node18" class="node">
<title>Node17</title>
<g id="a_node18"><a xlink:href="PositionRaw_8h.html" target="_top" xlink:title="iDynTree/Core/PositionRaw.h">
<polygon fill="none" stroke="#000000" points="768.5,-174 768.5,-193 924.5,-193 924.5,-174 768.5,-174"/>
<text text-anchor="middle" x="846.5" y="-181" font-family="FreeSans.ttf" font-size="10.00" fill="#000000">iDynTree/Core/PositionRaw.h</text>
</a>
</g>
</g>
<!-- Node16&#45;&gt;Node17 -->
<g id="edge19" class="edge">
<title>Node16&#45;&gt;Node17</title>
<path fill="none" stroke="#191970" d="M932.4364,-291.2348C930.554,-277.5911 925.6186,-252.5308 913.5,-235 903.0979,-219.9523 886.9344,-207.3456 873.0895,-198.3719"/>
<polygon fill="#191970" stroke="#191970" points="874.7572,-195.2882 864.4101,-193.0103 871.0783,-201.2435 874.7572,-195.2882"/>
</g>
<!-- Node16&#45;&gt;Node27 -->
<g id="edge37" class="edge">
<title>Node16&#45;&gt;Node27</title>
<path fill="none" stroke="#191970" d="M916.6039,-291.2455C901.582,-282.5731 879.3957,-269.7645 862.179,-259.825"/>
<polygon fill="#191970" stroke="#191970" points="863.6128,-256.6114 853.2025,-254.6427 860.1129,-262.6737 863.6128,-256.6114"/>
</g>
<!-- Node17&#45;&gt;Node7 -->
<g id="edge36" class="edge">
<title>Node17&#45;&gt;Node7</title>
<path fill="none" stroke="#191970" d="M888.9008,-173.947C924.3701,-165.2202 975.8677,-150.8175 1018.5,-132 1050.5899,-117.8358 1084.8306,-96.1183 1106.4292,-81.503"/>
<polygon fill="#191970" stroke="#191970" points="1108.6001,-84.2583 1114.8686,-75.7168 1104.6418,-78.4849 1108.6001,-84.2583"/>
</g>
<!-- Node18 -->
<g id="node19" class="node">
<title>Node18</title>
<g id="a_node19"><a xlink:href="VectorFixSize_8h.html" target="_top" xlink:title="iDynTree/Core/VectorFixSize.h">
<polygon fill="none" stroke="#000000" points="622,-112.5 622,-131.5 783,-131.5 783,-112.5 622,-112.5"/>
<text text-anchor="middle" x="702.5" y="-119.5" font-family="FreeSans.ttf" font-size="10.00" fill="#000000">iDynTree/Core/VectorFixSize.h</text>
</a>
</g>
</g>
<!-- Node17&#45;&gt;Node18 -->
<g id="edge20" class="edge">
<title>Node17&#45;&gt;Node18</title>
<path fill="none" stroke="#191970" d="M824,-173.8906C799.9062,-163.6005 761.4787,-147.1888 734.2992,-135.5809"/>
<polygon fill="#191970" stroke="#191970" points="735.4131,-132.2508 724.842,-131.5419 732.6637,-138.6883 735.4131,-132.2508"/>
</g>
<!-- Node18&#45;&gt;Node2 -->
<g id="edge21" class="edge">
<title>Node18&#45;&gt;Node2</title>
<path fill="none" stroke="#191970" d="M674.1355,-112.3733C646.8173,-103.1016 605.3204,-89.0178 575.2262,-78.804"/>
<polygon fill="#191970" stroke="#191970" points="576.0887,-75.4008 565.4944,-75.5011 573.839,-82.0294 576.0887,-75.4008"/>
</g>
<!-- Node18&#45;&gt;Node5 -->
<g id="edge34" class="edge">
<title>Node18&#45;&gt;Node5</title>
<path fill="none" stroke="#191970" d="M702.7558,-112.4509C703.2451,-94.184 704.3226,-53.9553 704.9724,-29.6976"/>
<polygon fill="#191970" stroke="#191970" points="708.4758,-29.6151 705.2449,-19.5249 701.4783,-29.4276 708.4758,-29.6151"/>
</g>
<!-- Node18&#45;&gt;Node6 -->
<g id="edge35" class="edge">
<title>Node18&#45;&gt;Node6</title>
<path fill="none" stroke="#191970" d="M729.6612,-112.3733C756.1803,-102.9741 796.6526,-88.6295 825.5572,-78.3848"/>
<polygon fill="#191970" stroke="#191970" points="827.0007,-81.5866 835.2569,-74.9469 824.6622,-74.9887 827.0007,-81.5866"/>
</g>
<!-- Node18&#45;&gt;Node7 -->
<g id="edge32" class="edge">
<title>Node18&#45;&gt;Node7</title>
<path fill="none" stroke="#191970" d="M775.248,-112.4369C869.0853,-100.1015 1028.2987,-79.172 1096.2314,-70.2419"/>
<polygon fill="#191970" stroke="#191970" points="1096.8679,-73.6884 1106.3265,-68.9148 1095.9555,-66.7481 1096.8679,-73.6884"/>
</g>
<!-- Node18&#45;&gt;Node9 -->
<g id="edge33" class="edge">
<title>Node18&#45;&gt;Node9</title>
<path fill="none" stroke="#191970" d="M712.4286,-112.2455C720.6838,-104.1352 732.6209,-92.4075 742.4082,-82.7919"/>
<polygon fill="#191970" stroke="#191970" points="745.0046,-85.1476 749.6851,-75.6427 740.0989,-80.1542 745.0046,-85.1476"/>
</g>
<!-- Node19 -->
<g id="node20" class="node">
<title>Node19</title>
<g id="a_node20"><a xlink:href="Span_8h.html" target="_top" xlink:title="iDynTree/Core/Span.h">
<polygon fill="none" stroke="#000000" points="239,-56.5 239,-75.5 360,-75.5 360,-56.5 239,-56.5"/>
<text text-anchor="middle" x="299.5" y="-63.5" font-family="FreeSans.ttf" font-size="10.00" fill="#000000">iDynTree/Core/Span.h</text>
</a>
</g>
</g>
<!-- Node18&#45;&gt;Node19 -->
<g id="edge22" class="edge">
<title>Node18&#45;&gt;Node19</title>
<path fill="none" stroke="#191970" d="M633.6797,-112.4369C560.2492,-102.2331 444.5007,-86.149 370.3147,-75.8403"/>
<polygon fill="#191970" stroke="#191970" points="370.5179,-72.3349 360.1313,-74.4252 369.5544,-79.2683 370.5179,-72.3349"/>
</g>
<!-- Node19&#45;&gt;Node3 -->
<g id="edge26" class="edge">
<title>Node19&#45;&gt;Node3</title>
<path fill="none" stroke="#191970" d="M343.9505,-56.4421C382.6207,-47.9892 440.3922,-35.031 499.8562,-20.079"/>
<polygon fill="#191970" stroke="#191970" points="500.9637,-23.4092 509.8,-17.5637 499.2471,-16.6229 500.9637,-23.4092"/>
</g>
<!-- Node19&#45;&gt;Node5 -->
<g id="edge23" class="edge">
<title>Node19&#45;&gt;Node5</title>
<path fill="none" stroke="#191970" d="M360.0458,-61.3935C431.7876,-55.2892 554.9978,-42.777 669.2674,-19.995"/>
<polygon fill="#191970" stroke="#191970" points="670.1281,-23.3919 679.2346,-17.9768 668.7388,-16.5311 670.1281,-23.3919"/>
</g>
<!-- Node20 -->
<g id="node21" class="node">
<title>Node20</title>
<polygon fill="none" stroke="#bfbfbf" points="63.5,-.5 63.5,-19.5 127.5,-19.5 127.5,-.5 63.5,-.5"/>
<text text-anchor="middle" x="95.5" y="-7.5" font-family="FreeSans.ttf" font-size="10.00" fill="#000000">algorithm</text>
</g>
<!-- Node19&#45;&gt;Node20 -->
<g id="edge24" class="edge">
<title>Node19&#45;&gt;Node20</title>
<path fill="none" stroke="#191970" d="M264.4311,-56.3733C229.3396,-46.7403 175.325,-31.9128 137.8592,-21.628"/>
<polygon fill="#191970" stroke="#191970" points="138.33,-18.1278 127.7602,-18.8557 136.4769,-24.8781 138.33,-18.1278"/>
</g>
<!-- Node21 -->
<g id="node22" class="node">
<title>Node21</title>
<polygon fill="none" stroke="#bfbfbf" points="145.5,-.5 145.5,-19.5 187.5,-19.5 187.5,-.5 145.5,-.5"/>
<text text-anchor="middle" x="166.5" y="-7.5" font-family="FreeSans.ttf" font-size="10.00" fill="#000000">array</text>
</g>
<!-- Node19&#45;&gt;Node21 -->
<g id="edge25" class="edge">
<title>Node19&#45;&gt;Node21</title>
<path fill="none" stroke="#191970" d="M276.6365,-56.3733C254.7034,-47.1383 221.4316,-33.1291 197.1976,-22.9253"/>
<polygon fill="#191970" stroke="#191970" points="198.3235,-19.6018 187.7489,-18.9469 195.6071,-26.0533 198.3235,-19.6018"/>
</g>
<!-- Node22 -->
<g id="node23" class="node">
<title>Node22</title>
<polygon fill="none" stroke="#bfbfbf" points="206,-.5 206,-19.5 259,-19.5 259,-.5 206,-.5"/>
<text text-anchor="middle" x="232.5" y="-7.5" font-family="FreeSans.ttf" font-size="10.00" fill="#000000">iterator</text>
</g>
<!-- Node19&#45;&gt;Node22 -->
<g id="edge27" class="edge">
<title>Node19&#45;&gt;Node22</title>
<path fill="none" stroke="#191970" d="M287.8295,-56.2455C277.9339,-47.9746 263.5373,-35.9416 251.9099,-26.2232"/>
<polygon fill="#191970" stroke="#191970" points="253.9542,-23.3703 244.0368,-19.6427 249.465,-28.7413 253.9542,-23.3703"/>
</g>
<!-- Node23 -->
<g id="node24" class="node">
<title>Node23</title>
<polygon fill="none" stroke="#bfbfbf" points="277.5,-.5 277.5,-19.5 321.5,-19.5 321.5,-.5 277.5,-.5"/>
<text text-anchor="middle" x="299.5" y="-7.5" font-family="FreeSans.ttf" font-size="10.00" fill="#000000">limits</text>
</g>
<!-- Node19&#45;&gt;Node23 -->
<g id="edge28" class="edge">
<title>Node19&#45;&gt;Node23</title>
<path fill="none" stroke="#191970" d="M299.5,-56.2455C299.5,-48.9382 299.5,-38.6944 299.5,-29.7046"/>
<polygon fill="#191970" stroke="#191970" points="303.0001,-29.6426 299.5,-19.6427 296.0001,-29.6427 303.0001,-29.6426"/>
</g>
<!-- Node24 -->
<g id="node25" class="node">
<title>Node24</title>
<polygon fill="none" stroke="#bfbfbf" points="340,-.5 340,-19.5 405,-19.5 405,-.5 340,-.5"/>
<text text-anchor="middle" x="372.5" y="-7.5" font-family="FreeSans.ttf" font-size="10.00" fill="#000000">stdexcept</text>
</g>
<!-- Node19&#45;&gt;Node24 -->
<g id="edge29" class="edge">
<title>Node19&#45;&gt;Node24</title>
<path fill="none" stroke="#191970" d="M312.2156,-56.2455C323.102,-47.8943 338.9883,-35.7076 351.72,-25.9408"/>
<polygon fill="#191970" stroke="#191970" points="354.1261,-28.5063 359.9301,-19.6427 349.8654,-22.9523 354.1261,-28.5063"/>
</g>
<!-- Node25 -->
<g id="node26" class="node">
<title>Node25</title>
<polygon fill="none" stroke="#bfbfbf" points="423,-.5 423,-19.5 492,-19.5 492,-.5 423,-.5"/>
<text text-anchor="middle" x="457.5" y="-7.5" font-family="FreeSans.ttf" font-size="10.00" fill="#000000">type_traits</text>
</g>
<!-- Node19&#45;&gt;Node25 -->
<g id="edge30" class="edge">
<title>Node19&#45;&gt;Node25</title>
<path fill="none" stroke="#191970" d="M326.6612,-56.3733C352.7067,-47.1419 392.2116,-33.1402 420.9979,-22.9375"/>
<polygon fill="#191970" stroke="#191970" points="422.437,-26.1408 430.6933,-19.5011 420.0985,-19.5429 422.437,-26.1408"/>
</g>
<!-- Node26 -->
<g id="node27" class="node">
<title>Node26</title>
<polygon fill="none" stroke="#bfbfbf" points="0,-.5 0,-19.5 45,-19.5 45,-.5 0,-.5"/>
<text text-anchor="middle" x="22.5" y="-7.5" font-family="FreeSans.ttf" font-size="10.00" fill="#000000">utility</text>
</g>
<!-- Node19&#45;&gt;Node26 -->
<g id="edge31" class="edge">
<title>Node19&#45;&gt;Node26</title>
<path fill="none" stroke="#191970" d="M238.914,-56.6582C191.4057,-48.87 123.4854,-36.7205 55.2067,-19.9423"/>
<polygon fill="#191970" stroke="#191970" points="55.6821,-16.4538 45.1326,-17.4332 53.9903,-23.2463 55.6821,-16.4538"/>
</g>
<!-- Node27&#45;&gt;Node7 -->
<g id="edge38" class="edge">
<title>Node27&#45;&gt;Node7</title>
<path fill="none" stroke="#191970" d="M905.293,-242.4369C976.7267,-238.258 1081.8564,-227.3445 1109.5,-199 1138.9726,-168.7802 1136.27,-114.819 1132.1547,-85.7866"/>
<polygon fill="#191970" stroke="#191970" points="1135.5678,-84.968 1130.5132,-75.6567 1128.658,-86.0878 1135.5678,-84.968"/>
</g>
<!-- Node27&#45;&gt;Node18 -->
<g id="edge44" class="edge">
<title>Node27&#45;&gt;Node18</title>
<path fill="none" stroke="#191970" d="M815.7361,-235.4415C799.3358,-227.254 776.4651,-214.3677 759.5,-199 740.5398,-181.8251 723.7865,-157.4918 713.4327,-140.8022"/>
<polygon fill="#191970" stroke="#191970" points="716.2687,-138.7273 708.1078,-131.9708 710.2741,-142.3418 716.2687,-138.7273"/>
</g>
<!-- Node28 -->
<g id="node29" class="node">
<title>Node28</title>
<g id="a_node29"><a xlink:href="GeomVector3_8h.html" target="_top" xlink:title="iDynTree/Core/GeomVector3.h">
<polygon fill="none" stroke="#000000" points="511,-174 511,-193 674,-193 674,-174 511,-174"/>
<text text-anchor="middle" x="592.5" y="-181" font-family="FreeSans.ttf" font-size="10.00" fill="#000000">iDynTree/Core/GeomVector3.h</text>
</a>
</g>
</g>
<!-- Node27&#45;&gt;Node28 -->
<g id="edge39" class="edge">
<title>Node27&#45;&gt;Node28</title>
<path fill="none" stroke="#191970" d="M798.6427,-235.4581C755.9929,-224.7082 686.5936,-207.2162 640.2544,-195.5365"/>
<polygon fill="#191970" stroke="#191970" points="640.9983,-192.1146 630.4461,-193.0643 639.2874,-198.9023 640.9983,-192.1146"/>
</g>
<!-- Node29 -->
<g id="node30" class="node">
<title>Node29</title>
<g id="a_node30"><a xlink:href="RotationRaw_8h.html" target="_top" xlink:title="iDynTree/Core/RotationRaw.h">
<polygon fill="none" stroke="#000000" points="942.5,-174 942.5,-193 1100.5,-193 1100.5,-174 942.5,-174"/>
<text text-anchor="middle" x="1021.5" y="-181" font-family="FreeSans.ttf" font-size="10.00" fill="#000000">iDynTree/Core/RotationRaw.h</text>
</a>
</g>
</g>
<!-- Node27&#45;&gt;Node29 -->
<g id="edge41" class="edge">
<title>Node27&#45;&gt;Node29</title>
<path fill="none" stroke="#191970" d="M865.4063,-235.3906C897.039,-224.8749 947.903,-207.966 982.9229,-196.3243"/>
<polygon fill="#191970" stroke="#191970" points="984.4115,-199.5178 992.7967,-193.0419 982.2032,-192.8753 984.4115,-199.5178"/>
</g>
<!-- Node28&#45;&gt;Node18 -->
<g id="edge40" class="edge">
<title>Node28&#45;&gt;Node18</title>
<path fill="none" stroke="#191970" d="M609.6875,-173.8906C627.6082,-163.8713 655.9095,-148.0483 676.5523,-136.5071"/>
<polygon fill="#191970" stroke="#191970" points="678.4128,-139.4769 685.4332,-131.5419 674.9967,-133.367 678.4128,-139.4769"/>
</g>
<!-- Node29&#45;&gt;Node1 -->
<g id="edge42" class="edge">
<title>Node29&#45;&gt;Node1</title>
<path fill="none" stroke="#191970" d="M1007.125,-173.8906C992.4069,-164.0519 969.3168,-148.6167 952.1411,-137.1351"/>
<polygon fill="#191970" stroke="#191970" points="954.0327,-134.1896 943.7741,-131.5419 950.1425,-140.0091 954.0327,-134.1896"/>
</g>
<!-- Node29&#45;&gt;Node7 -->
<g id="edge43" class="edge">
<title>Node29&#45;&gt;Node7</title>
<path fill="none" stroke="#191970" d="M1030.2563,-173.8845C1048.2829,-154.0889 1089.764,-108.5372 1112.6391,-83.4173"/>
<polygon fill="#191970" stroke="#191970" points="1115.4775,-85.4987 1119.6228,-75.7484 1110.3019,-80.7856 1115.4775,-85.4987"/>
</g>
<!-- Node31 -->
<g id="node32" class="node">
<title>Node31</title>
<g id="a_node32"><a xlink:href="SpatialMotionVector_8h.html" target="_top" xlink:title="iDynTree/Core/SpatialMotion\lVector.h">
<polygon fill="none" stroke="#000000" points="625,-403.5 625,-433.5 780,-433.5 780,-403.5 625,-403.5"/>
<text text-anchor="start" x="633" y="-421.5" font-family="FreeSans.ttf" font-size="10.00" fill="#000000">iDynTree/Core/SpatialMotion</text>
<text text-anchor="middle" x="702.5" y="-410.5" font-family="FreeSans.ttf" font-size="10.00" fill="#000000">Vector.h</text>
</a>
</g>
</g>
<!-- Node30&#45;&gt;Node31 -->
<g id="edge50" class="edge">
<title>Node30&#45;&gt;Node31</title>
<path fill="none" stroke="#191970" d="M853.5313,-470.3906C827.5113,-461.4508 788.043,-447.8905 755.9786,-436.8739"/>
<polygon fill="#191970" stroke="#191970" points="756.883,-433.4839 746.2883,-433.5446 754.6084,-440.1041 756.883,-433.4839"/>
</g>
<!-- Node31&#45;&gt;Node18 -->
<g id="edge51" class="edge">
<title>Node31&#45;&gt;Node18</title>
<path fill="none" stroke="#191970" d="M702.5,-403.2899C702.5,-380.892 702.5,-337.7188 702.5,-301 702.5,-301 702.5,-301 702.5,-245 702.5,-208.4994 702.5,-165.906 702.5,-141.6285"/>
<polygon fill="#191970" stroke="#191970" points="706.0001,-141.5691 702.5,-131.5691 699.0001,-141.5692 706.0001,-141.5691"/>
</g>
<!-- Node31&#45;&gt;Node28 -->
<g id="edge52" class="edge">
<title>Node31&#45;&gt;Node28</title>
<path fill="none" stroke="#191970" d="M695.4517,-403.4422C676.1834,-362.2781 622.6527,-247.9171 601.3808,-202.4726"/>
<polygon fill="#191970" stroke="#191970" points="604.4379,-200.7477 597.0285,-193.1746 598.0981,-203.7153 604.4379,-200.7477"/>
</g>
<!-- Node32 -->
<g id="node33" class="node">
<title>Node32</title>
<g id="a_node33"><a xlink:href="SpatialVector_8h.html" target="_top" xlink:title="iDynTree/Core/SpatialVector.h">
<polygon fill="none" stroke="#000000" points="409,-347.5 409,-366.5 570,-366.5 570,-347.5 409,-347.5"/>
<text text-anchor="middle" x="489.5" y="-354.5" font-family="FreeSans.ttf" font-size="10.00" fill="#000000">iDynTree/Core/SpatialVector.h</text>
</a>
</g>
</g>
<!-- Node31&#45;&gt;Node32 -->
<g id="edge53" class="edge">
<title>Node31&#45;&gt;Node32</title>
<path fill="none" stroke="#191970" d="M650.3943,-403.4554C614.0754,-392.9689 566.2197,-379.1515 532.1646,-369.3187"/>
<polygon fill="#191970" stroke="#191970" points="533.0859,-365.9418 522.5074,-366.5303 531.1441,-372.667 533.0859,-365.9418"/>
</g>
<!-- Node32&#45;&gt;Node2 -->
<g id="edge56" class="edge">
<title>Node32&#45;&gt;Node2</title>
<path fill="none" stroke="#191970" d="M474.7319,-347.2983C452.0157,-331.3139 409.6426,-296.992 395.5,-255 388.4122,-233.9549 390.9187,-114.1607 392.5,-112 402.8633,-97.84 441.5364,-85.9861 476.3373,-77.8594"/>
<polygon fill="#191970" stroke="#191970" points="477.5164,-81.1812 486.499,-75.5631 475.9734,-74.3534 477.5164,-81.1812"/>
</g>
<!-- Node32&#45;&gt;Node8 -->
<g id="edge58" class="edge">
<title>Node32&#45;&gt;Node8</title>
<path fill="none" stroke="#191970" d="M482.0024,-347.2943C455.3932,-311.6102 370.235,-185.9243 430.5,-112 480.6741,-50.4537 528.0762,-93.6334 605.5,-76 605.6003,-75.9771 605.7008,-75.9542 605.8014,-75.9313"/>
<polygon fill="#191970" stroke="#191970" points="606.4611,-79.3718 615.3916,-73.6713 604.8554,-72.5584 606.4611,-79.3718"/>
</g>
<!-- Node32&#45;&gt;Node9 -->
<g id="edge59" class="edge">
<title>Node32&#45;&gt;Node9</title>
<path fill="none" stroke="#191970" d="M487.0384,-347.3247C480.0701,-317.6106 463.0987,-226.1703 501.5,-168 526.6252,-129.9404 655.7541,-92.3745 721.2706,-75.3978"/>
<polygon fill="#191970" stroke="#191970" points="722.3938,-78.7232 731.2137,-72.853 720.6582,-71.9418 722.3938,-78.7232"/>
</g>
<!-- Node32&#45;&gt;Node16 -->
<g id="edge54" class="edge">
<title>Node32&#45;&gt;Node16</title>
<path fill="none" stroke="#191970" d="M565.07,-347.4686C645.8658,-337.2782 773.3712,-321.1964 855.2007,-310.8756"/>
<polygon fill="#191970" stroke="#191970" points="855.7113,-314.339 865.1947,-309.6151 854.8353,-307.394 855.7113,-314.339"/>
</g>
<!-- Node32&#45;&gt;Node27 -->
<g id="edge55" class="edge">
<title>Node32&#45;&gt;Node27</title>
<path fill="none" stroke="#191970" d="M519.085,-347.4509C581.57,-327.2829 726.9965,-280.3441 797.1971,-257.6857"/>
<polygon fill="#191970" stroke="#191970" points="798.5484,-260.9274 806.9899,-254.5249 796.3982,-254.2658 798.5484,-260.9274"/>
</g>
<!-- Node32&#45;&gt;Node28 -->
<g id="edge57" class="edge">
<title>Node32&#45;&gt;Node28</title>
<path fill="none" stroke="#191970" d="M495.1844,-347.4248C511.6766,-319.6443 559.7458,-238.6733 581.5355,-201.9693"/>
<polygon fill="#191970" stroke="#191970" points="584.6109,-203.6451 586.7062,-193.2595 578.5917,-200.0717 584.6109,-203.6451"/>
</g>
<!-- Node33&#45;&gt;Node31 -->
<g id="edge61" class="edge">
<title>Node33&#45;&gt;Node31</title>
<path fill="none" stroke="#191970" d="M724.4375,-470.3906C721.3097,-462.9922 716.844,-452.4291 712.7572,-442.7623"/>
<polygon fill="#191970" stroke="#191970" points="715.9781,-441.3924 708.8603,-433.5446 709.5306,-444.1182 715.9781,-441.3924"/>
</g>
<!-- Node35 -->
<g id="node36" class="node">
<title>Node35</title>
<g id="a_node36"><a xlink:href="SpatialForceVector_8h.html" target="_top" xlink:title="iDynTree/Core/SpatialForce\lVector.h">
<polygon fill="none" stroke="#000000" points="323.5,-403.5 323.5,-433.5 471.5,-433.5 471.5,-403.5 323.5,-403.5"/>
<text text-anchor="start" x="331.5" y="-421.5" font-family="FreeSans.ttf" font-size="10.00" fill="#000000">iDynTree/Core/SpatialForce</text>
<text text-anchor="middle" x="397.5" y="-410.5" font-family="FreeSans.ttf" font-size="10.00" fill="#000000">Vector.h</text>
</a>
</g>
</g>
<!-- Node34&#45;&gt;Node35 -->
<g id="edge63" class="edge">
<title>Node34&#45;&gt;Node35</title>
<path fill="none" stroke="#191970" d="M510.5625,-470.3906C491.5876,-461.682 463.0593,-448.5888 439.4074,-437.7336"/>
<polygon fill="#191970" stroke="#191970" points="440.8285,-434.5349 430.2801,-433.5446 437.9087,-440.8968 440.8285,-434.5349"/>
</g>
<!-- Node35&#45;&gt;Node18 -->
<g id="edge64" class="edge">
<title>Node35&#45;&gt;Node18</title>
<path fill="none" stroke="#191970" d="M393.0989,-403.4913C389.4935,-388.8698 385.7027,-366.1138 390.5,-347 402.4191,-299.5106 488.2764,-177.1777 501.5,-168 521.8861,-153.8513 579.1419,-141.5362 627.3543,-133.2182"/>
<polygon fill="#191970" stroke="#191970" points="628.212,-136.623 637.4885,-131.5047 627.045,-129.721 628.212,-136.623"/>
</g>
<!-- Node35&#45;&gt;Node28 -->
<g id="edge65" class="edge">
<title>Node35&#45;&gt;Node28</title>
<path fill="none" stroke="#191970" d="M394.5022,-403.4321C392.2644,-388.361 390.8942,-364.9085 399.5,-347 434.4821,-274.2031 518.8151,-221.616 563.533,-197.7736"/>
<polygon fill="#191970" stroke="#191970" points="565.1952,-200.8541 572.442,-193.1252 561.9571,-194.6481 565.1952,-200.8541"/>
</g>
<!-- Node35&#45;&gt;Node32 -->
<g id="edge66" class="edge">
<title>Node35&#45;&gt;Node32</title>
<path fill="none" stroke="#191970" d="M420.2416,-403.2977C434.2967,-393.9022 452.283,-381.8787 466.4036,-372.4395"/>
<polygon fill="#191970" stroke="#191970" points="468.6759,-375.1305 475.0444,-366.6633 464.7857,-369.311 468.6759,-375.1305"/>
</g>
<!-- Node36&#45;&gt;Node1 -->
<g id="edge68" class="edge">
<title>Node36&#45;&gt;Node1</title>
<path fill="none" stroke="#191970" d="M1270.6747,-172.9278C1196.0316,-161.7857 1078.9952,-144.3154 1003.2623,-133.0106"/>
<polygon fill="#191970" stroke="#191970" points="1003.7261,-129.5412 993.3189,-131.5264 1002.6926,-136.4645 1003.7261,-129.5412"/>
</g>
<!-- Node36&#45;&gt;Node7 -->
<g id="edge69" class="edge">
<title>Node36&#45;&gt;Node7</title>
<path fill="none" stroke="#191970" d="M1326.7834,-168.2546C1310.7539,-152.3774 1283.7434,-127.6773 1256.5,-112 1225.9645,-94.4282 1187.5457,-81.714 1160.8037,-74.1637"/>
<polygon fill="#191970" stroke="#191970" points="1161.3865,-70.6946 1150.8172,-71.4307 1159.5386,-77.4463 1161.3865,-70.6946"/>
</g>
<!-- Node38&#45;&gt;Node18 -->
<g id="edge73" class="edge">
<title>Node38&#45;&gt;Node18</title>
<path fill="none" stroke="#191970" d="M354.4942,-470.4947C341.6072,-462.4214 324.4695,-449.662 314.5,-434 295.5721,-404.2644 295.5,-392.2487 295.5,-357 295.5,-357 295.5,-357 295.5,-245 295.5,-179.4608 491.3283,-145.6627 611.3122,-131.1054"/>
<polygon fill="#191970" stroke="#191970" points="612.0867,-134.538 621.6033,-129.8813 611.2598,-127.587 612.0867,-134.538"/>
</g>
<!-- Node38&#45;&gt;Node35 -->
<g id="edge77" class="edge">
<title>Node38&#45;&gt;Node35</title>
<path fill="none" stroke="#191970" d="M375.5625,-470.3906C378.6903,-462.9922 383.156,-452.4291 387.2428,-442.7623"/>
<polygon fill="#191970" stroke="#191970" points="390.4694,-444.1182 391.1397,-433.5446 384.0219,-441.3924 390.4694,-444.1182"/>
</g>
<!-- Node38&#45;&gt;Node37 -->
<g id="edge78" class="edge">
<title>Node38&#45;&gt;Node37</title>
<path fill="none" stroke="#191970" d="M399.1563,-470.3906C430.5248,-459.4914 481.6594,-441.7243 515.1947,-430.0722"/>
<polygon fill="#191970" stroke="#191970" points="516.6985,-433.255 524.9958,-426.6667 514.401,-426.6428 516.6985,-433.255"/>
</g>
<!-- Node39 -->
<g id="node40" class="node">
<title>Node39</title>
<g id="a_node40"><a xlink:href="VectorDynSize_8h.html" target="_top" xlink:title="iDynTree/Core/VectorDynSize.h">
<polygon fill="none" stroke="#000000" points="174,-112.5 174,-131.5 341,-131.5 341,-112.5 174,-112.5"/>
<text text-anchor="middle" x="257.5" y="-119.5" font-family="FreeSans.ttf" font-size="10.00" fill="#000000">iDynTree/Core/VectorDynSize.h</text>
</a>
</g>
</g>
<!-- Node38&#45;&gt;Node39 -->
<g id="edge74" class="edge">
<title>Node38&#45;&gt;Node39</title>
<path fill="none" stroke="#191970" d="M338.6767,-470.3815C319.5327,-463.2118 296.3128,-451.5784 281.5,-434 258.4013,-406.5886 257.5,-392.846 257.5,-357 257.5,-357 257.5,-357 257.5,-245 257.5,-208.4994 257.5,-165.906 257.5,-141.6285"/>
<polygon fill="#191970" stroke="#191970" points="261.0001,-141.5691 257.5,-131.5691 254.0001,-141.5692 261.0001,-141.5691"/>
</g>
<!-- Node39&#45;&gt;Node7 -->
<g id="edge76" class="edge">
<title>Node39&#45;&gt;Node7</title>
<path fill="none" stroke="#191970" d="M341.0151,-116.6305C527.627,-104.6325 971.7787,-76.0762 1095.8241,-68.1009"/>
<polygon fill="#191970" stroke="#191970" points="1096.4101,-71.5705 1106.1649,-67.436 1095.961,-64.5849 1096.4101,-71.5705"/>
</g>
<!-- Node39&#45;&gt;Node19 -->
<g id="edge75" class="edge">
<title>Node39&#45;&gt;Node19</title>
<path fill="none" stroke="#191970" d="M264.8158,-112.2455C270.7179,-104.3761 279.1742,-93.101 286.2594,-83.6542"/>
<polygon fill="#191970" stroke="#191970" points="289.068,-85.7427 292.268,-75.6427 283.4679,-81.5427 289.068,-85.7427"/>
</g>
</g>
</svg>
