<?xml version="1.0" encoding="UTF-8" standalone="no"?>
<!DOCTYPE svg PUBLIC "-//W3C//DTD SVG 1.1//EN"
 "http://www.w3.org/Graphics/SVG/1.1/DTD/svg11.dtd">
<!-- Generated by graphviz version 2.40.1 (20161225.0304)
 -->
<!-- Title: DynamicsLinearization.h Pages: 1 -->
<svg width="1633pt" height="733pt"
 viewBox="0.00 0.00 1632.50 733.00" xmlns="http://www.w3.org/2000/svg" xmlns:xlink="http://www.w3.org/1999/xlink">
<g id="graph0" class="graph" transform="scale(1 1) rotate(0) translate(4 729)">
<title>DynamicsLinearization.h</title>
<!-- Node0 -->
<g id="node1" class="node">
<title>Node0</title>
<polygon fill="#bfbfbf" stroke="#000000" points="368.5,-705.5 368.5,-724.5 505.5,-724.5 505.5,-705.5 368.5,-705.5"/>
<text text-anchor="middle" x="437" y="-712.5" font-family="FreeSans.ttf" font-size="10.00" fill="#000000">DynamicsLinearization.h</text>
</g>
<!-- Node1 -->
<g id="node2" class="node">
<title>Node1</title>
<g id="a_node2"><a xlink:href="MatrixFixSize_8h.html" target="_top" xlink:title="iDynTree/Core/MatrixFixSize.h">
<polygon fill="none" stroke="#000000" points="662.5,-112.5 662.5,-131.5 823.5,-131.5 823.5,-112.5 662.5,-112.5"/>
<text text-anchor="middle" x="743" y="-119.5" font-family="FreeSans.ttf" font-size="10.00" fill="#000000">iDynTree/Core/MatrixFixSize.h</text>
</a>
</g>
</g>
<!-- Node0&#45;&gt;Node1 -->
<g id="edge1" class="edge">
<title>Node0&#45;&gt;Node1</title>
<path fill="none" stroke="#191970" d="M434.4376,-705.1946C429.2514,-684.4585 418,-634.5666 418,-592 418,-592 418,-592 418,-536 418,-473.5971 414.2369,-441.9395 463,-403 548.3149,-334.8724 628.6906,-444.0925 706,-367 767.6269,-305.546 754.9551,-188.2039 746.931,-141.6943"/>
<polygon fill="#191970" stroke="#191970" points="750.3441,-140.903 745.0852,-131.7055 743.4606,-142.175 750.3441,-140.903"/>
</g>
<!-- Node10 -->
<g id="node11" class="node">
<title>Node10</title>
<g id="a_node11"><a xlink:href="MatrixDynSize_8h.html" target="_top" xlink:title="iDynTree/Core/MatrixDynSize.h">
<polygon fill="none" stroke="#000000" points="223.5,-526.5 223.5,-545.5 390.5,-545.5 390.5,-526.5 223.5,-526.5"/>
<text text-anchor="middle" x="307" y="-533.5" font-family="FreeSans.ttf" font-size="10.00" fill="#000000">iDynTree/Core/MatrixDynSize.h</text>
</a>
</g>
</g>
<!-- Node0&#45;&gt;Node10 -->
<g id="edge10" class="edge">
<title>Node0&#45;&gt;Node10</title>
<path fill="none" stroke="#191970" d="M430.0106,-705.3762C409.2018,-676.7241 347.4124,-591.6448 320.1619,-554.1229"/>
<polygon fill="#191970" stroke="#191970" points="322.7323,-551.706 314.0239,-545.6714 317.0684,-555.8194 322.7323,-551.706"/>
</g>
<!-- Node11 -->
<g id="node12" class="node">
<title>Node11</title>
<g id="a_node12"><a xlink:href="Dynamics_8h.html" target="_top" xlink:title="iDynTree/Model/Dynamics.h">
<polygon fill="none" stroke="#000000" points="458,-582.5 458,-601.5 610,-601.5 610,-582.5 458,-582.5"/>
<text text-anchor="middle" x="534" y="-589.5" font-family="FreeSans.ttf" font-size="10.00" fill="#000000">iDynTree/Model/Dynamics.h</text>
</a>
</g>
</g>
<!-- Node0&#45;&gt;Node11 -->
<g id="edge12" class="edge">
<title>Node0&#45;&gt;Node11</title>
<path fill="none" stroke="#191970" d="M440.2161,-705.2006C445.6254,-689.7414 457.6778,-659.2677 475,-638 484.7391,-626.0426 498.1359,-615.2817 509.7025,-607.1796"/>
<polygon fill="#191970" stroke="#191970" points="511.7591,-610.0144 518.0999,-601.5264 507.8499,-604.2076 511.7591,-610.0144"/>
</g>
<!-- Node40 -->
<g id="node41" class="node">
<title>Node40</title>
<g id="a_node41"><a xlink:href="DynamicsLinearizationHelpers_8h.html" target="_top" xlink:title="iDynTree/Model/DynamicsLinearization\lHelpers.h">
<polygon fill="none" stroke="#000000" points="484,-638.5 484,-668.5 690,-668.5 690,-638.5 484,-638.5"/>
<text text-anchor="start" x="492" y="-656.5" font-family="FreeSans.ttf" font-size="10.00" fill="#000000">iDynTree/Model/DynamicsLinearization</text>
<text text-anchor="middle" x="587" y="-645.5" font-family="FreeSans.ttf" font-size="10.00" fill="#000000">Helpers.h</text>
</a>
</g>
</g>
<!-- Node0&#45;&gt;Node40 -->
<g id="edge80" class="edge">
<title>Node0&#45;&gt;Node40</title>
<path fill="none" stroke="#191970" d="M460.4375,-705.3906C481.866,-696.6049 514.1788,-683.3567 540.7903,-672.446"/>
<polygon fill="#191970" stroke="#191970" points="542.3811,-675.5766 550.3059,-668.5446 539.7256,-669.0998 542.3811,-675.5766"/>
</g>
<!-- Node2 -->
<g id="node3" class="node">
<title>Node2</title>
<g id="a_node3"><a xlink:href="Utils_8h.html" target="_top" xlink:title="iDynTree/Core/Utils.h">
<polygon fill="none" stroke="#000000" points="1028.5,-56.5 1028.5,-75.5 1147.5,-75.5 1147.5,-56.5 1028.5,-56.5"/>
<text text-anchor="middle" x="1088" y="-63.5" font-family="FreeSans.ttf" font-size="10.00" fill="#000000">iDynTree/Core/Utils.h</text>
</a>
</g>
</g>
<!-- Node1&#45;&gt;Node2 -->
<g id="edge2" class="edge">
<title>Node1&#45;&gt;Node2</title>
<path fill="none" stroke="#191970" d="M801.9156,-112.4369C862.2001,-102.6516 955.8019,-87.4582 1019.3894,-77.1368"/>
<polygon fill="#191970" stroke="#191970" points="1020.0174,-80.5808 1029.3274,-75.5237 1018.8958,-73.6712 1020.0174,-80.5808"/>
</g>
<!-- Node5 -->
<g id="node6" class="node">
<title>Node5</title>
<polygon fill="none" stroke="#bfbfbf" points="893,-.5 893,-19.5 945,-19.5 945,-.5 893,-.5"/>
<text text-anchor="middle" x="919" y="-7.5" font-family="FreeSans.ttf" font-size="10.00" fill="#000000">cassert</text>
</g>
<!-- Node1&#45;&gt;Node5 -->
<g id="edge5" class="edge">
<title>Node1&#45;&gt;Node5</title>
<path fill="none" stroke="#191970" d="M742.8546,-112.034C743.2024,-97.6812 746.0127,-71.2451 761,-56 777.9868,-38.721 841.8304,-24.1444 882.9786,-16.2751"/>
<polygon fill="#191970" stroke="#191970" points="883.7208,-19.6971 892.9087,-14.4214 882.4362,-12.816 883.7208,-19.6971"/>
</g>
<!-- Node6 -->
<g id="node7" class="node">
<title>Node6</title>
<polygon fill="none" stroke="#bfbfbf" points="922,-56.5 922,-75.5 972,-75.5 972,-56.5 922,-56.5"/>
<text text-anchor="middle" x="947" y="-63.5" font-family="FreeSans.ttf" font-size="10.00" fill="#000000">cstring</text>
</g>
<!-- Node1&#45;&gt;Node6 -->
<g id="edge6" class="edge">
<title>Node1&#45;&gt;Node6</title>
<path fill="none" stroke="#191970" d="M779.2106,-112.4466C811.5839,-103.8513 860.5669,-90.7131 911.8304,-76.2915"/>
<polygon fill="#191970" stroke="#191970" points="913.0929,-79.572 921.7667,-73.488 911.192,-72.835 913.0929,-79.572"/>
</g>
<!-- Node7 -->
<g id="node8" class="node">
<title>Node7</title>
<polygon fill="none" stroke="#bfbfbf" points="290,-56.5 290,-75.5 334,-75.5 334,-56.5 290,-56.5"/>
<text text-anchor="middle" x="312" y="-63.5" font-family="FreeSans.ttf" font-size="10.00" fill="#000000">string</text>
</g>
<!-- Node1&#45;&gt;Node7 -->
<g id="edge7" class="edge">
<title>Node1&#45;&gt;Node7</title>
<path fill="none" stroke="#191970" d="M669.3982,-112.4369C574.4595,-100.1015 413.3773,-79.172 344.6473,-70.2419"/>
<polygon fill="#191970" stroke="#191970" points="344.8014,-66.7326 334.4338,-68.9148 343.8995,-73.6742 344.8014,-66.7326"/>
</g>
<!-- Node8 -->
<g id="node9" class="node">
<title>Node8</title>
<polygon fill="none" stroke="#bfbfbf" points="770,-56.5 770,-75.5 830,-75.5 830,-56.5 770,-56.5"/>
<text text-anchor="middle" x="800" y="-63.5" font-family="FreeSans.ttf" font-size="10.00" fill="#000000">iostream</text>
</g>
<!-- Node1&#45;&gt;Node8 -->
<g id="edge8" class="edge">
<title>Node1&#45;&gt;Node8</title>
<path fill="none" stroke="#191970" d="M752.9286,-112.2455C761.1838,-104.1352 773.1209,-92.4075 782.9082,-82.7919"/>
<polygon fill="#191970" stroke="#191970" points="785.5046,-85.1476 790.1851,-75.6427 780.5989,-80.1542 785.5046,-85.1476"/>
</g>
<!-- Node9 -->
<g id="node10" class="node">
<title>Node9</title>
<polygon fill="none" stroke="#bfbfbf" points="848,-56.5 848,-75.5 904,-75.5 904,-56.5 848,-56.5"/>
<text text-anchor="middle" x="876" y="-63.5" font-family="FreeSans.ttf" font-size="10.00" fill="#000000">sstream</text>
</g>
<!-- Node1&#45;&gt;Node9 -->
<g id="edge9" class="edge">
<title>Node1&#45;&gt;Node9</title>
<path fill="none" stroke="#191970" d="M765.8635,-112.3733C787.405,-103.3032 819.8838,-89.6279 843.9956,-79.4755"/>
<polygon fill="#191970" stroke="#191970" points="845.5767,-82.6075 853.4348,-75.5011 842.8603,-76.156 845.5767,-82.6075"/>
</g>
<!-- Node3 -->
<g id="node4" class="node">
<title>Node3</title>
<polygon fill="none" stroke="#bfbfbf" points="1061.5,-.5 1061.5,-19.5 1114.5,-19.5 1114.5,-.5 1061.5,-.5"/>
<text text-anchor="middle" x="1088" y="-7.5" font-family="FreeSans.ttf" font-size="10.00" fill="#000000">cstddef</text>
</g>
<!-- Node2&#45;&gt;Node3 -->
<g id="edge3" class="edge">
<title>Node2&#45;&gt;Node3</title>
<path fill="none" stroke="#191970" d="M1088,-56.2455C1088,-48.9382 1088,-38.6944 1088,-29.7046"/>
<polygon fill="#191970" stroke="#191970" points="1091.5001,-29.6426 1088,-19.6427 1084.5001,-29.6427 1091.5001,-29.6426"/>
</g>
<!-- Node4 -->
<g id="node5" class="node">
<title>Node4</title>
<polygon fill="none" stroke="#bfbfbf" points="963,-.5 963,-19.5 1043,-19.5 1043,-.5 963,-.5"/>
<text text-anchor="middle" x="1003" y="-7.5" font-family="FreeSans.ttf" font-size="10.00" fill="#000000">CoreExport.h</text>
</g>
<!-- Node2&#45;&gt;Node4 -->
<g id="edge4" class="edge">
<title>Node2&#45;&gt;Node4</title>
<path fill="none" stroke="#191970" d="M1073.1941,-56.2455C1060.2744,-47.7337 1041.3069,-35.2375 1026.3448,-25.3801"/>
<polygon fill="#191970" stroke="#191970" points="1027.9124,-22.2216 1017.6362,-19.6427 1024.0613,-28.067 1027.9124,-22.2216"/>
</g>
<!-- Node10&#45;&gt;Node7 -->
<g id="edge11" class="edge">
<title>Node10&#45;&gt;Node7</title>
<path fill="none" stroke="#191970" d="M251.4046,-526.4885C162.9356,-509.7565 0,-471.7169 0,-418.5 0,-418.5 0,-418.5 0,-183.5 0,-142.0158 24.1358,-132.8495 60,-112 96.9191,-90.5372 220.2652,-75.3888 279.5891,-69.1597"/>
<polygon fill="#191970" stroke="#191970" points="280.2963,-72.6055 289.8858,-68.1008 279.5802,-65.6422 280.2963,-72.6055"/>
</g>
<!-- Node11&#45;&gt;Node10 -->
<g id="edge13" class="edge">
<title>Node11&#45;&gt;Node10</title>
<path fill="none" stroke="#191970" d="M495.2352,-582.4369C456.6308,-572.9133 397.2616,-558.2672 355.5428,-547.9753"/>
<polygon fill="#191970" stroke="#191970" points="356.1521,-544.5208 345.6049,-545.5237 354.4755,-551.317 356.1521,-544.5208"/>
</g>
<!-- Node12 -->
<g id="node13" class="node">
<title>Node12</title>
<g id="a_node13"><a xlink:href="Indices_8h.html" target="_top" xlink:title="iDynTree/Model/Indices.h">
<polygon fill="none" stroke="#000000" points="446,-470.5 446,-489.5 584,-489.5 584,-470.5 446,-470.5"/>
<text text-anchor="middle" x="515" y="-477.5" font-family="FreeSans.ttf" font-size="10.00" fill="#000000">iDynTree/Model/Indices.h</text>
</a>
</g>
</g>
<!-- Node11&#45;&gt;Node12 -->
<g id="edge14" class="edge">
<title>Node11&#45;&gt;Node12</title>
<path fill="none" stroke="#191970" d="M532.3801,-582.4509C529.2812,-564.184 522.4567,-523.9553 518.3416,-499.6976"/>
<polygon fill="#191970" stroke="#191970" points="521.7391,-498.7986 516.6158,-489.5249 514.8377,-499.9694 521.7391,-498.7986"/>
</g>
<!-- Node14 -->
<g id="node15" class="node">
<title>Node14</title>
<g id="a_node15"><a xlink:href="LinkState_8h.html" target="_top" xlink:title="iDynTree/Model/LinkState.h">
<polygon fill="none" stroke="#000000" points="696.5,-526.5 696.5,-545.5 845.5,-545.5 845.5,-526.5 696.5,-526.5"/>
<text text-anchor="middle" x="771" y="-533.5" font-family="FreeSans.ttf" font-size="10.00" fill="#000000">iDynTree/Model/LinkState.h</text>
</a>
</g>
</g>
<!-- Node11&#45;&gt;Node14 -->
<g id="edge17" class="edge">
<title>Node11&#45;&gt;Node14</title>
<path fill="none" stroke="#191970" d="M574.4725,-582.4369C614.948,-572.8731 677.2867,-558.1432 720.8703,-547.845"/>
<polygon fill="#191970" stroke="#191970" points="721.7673,-551.2295 730.6945,-545.5237 720.1576,-544.4171 721.7673,-551.2295"/>
</g>
<!-- Node38 -->
<g id="node39" class="node">
<title>Node38</title>
<g id="a_node39"><a xlink:href="JointState_8h.html" target="_top" xlink:title="iDynTree/Model/JointState.h">
<polygon fill="none" stroke="#000000" points="1211.5,-470.5 1211.5,-489.5 1362.5,-489.5 1362.5,-470.5 1211.5,-470.5"/>
<text text-anchor="middle" x="1287" y="-477.5" font-family="FreeSans.ttf" font-size="10.00" fill="#000000">iDynTree/Model/JointState.h</text>
</a>
</g>
</g>
<!-- Node11&#45;&gt;Node38 -->
<g id="edge73" class="edge">
<title>Node11&#45;&gt;Node38</title>
<path fill="none" stroke="#191970" d="M601.447,-582.474C666.2244,-573.285 766.8318,-558.9083 854,-546 981.5287,-527.115 1130.0503,-504.2969 1215.8277,-491.0378"/>
<polygon fill="#191970" stroke="#191970" points="1216.3686,-494.4959 1225.7162,-489.5087 1215.2988,-487.5781 1216.3686,-494.4959"/>
</g>
<!-- Node12&#45;&gt;Node7 -->
<g id="edge15" class="edge">
<title>Node12&#45;&gt;Node7</title>
<path fill="none" stroke="#191970" d="M445.895,-476.531C313.6993,-467.9971 38,-440.223 38,-357 38,-357 38,-357 38,-183.5 38,-143.4081 59.0547,-133.3325 93,-112 123.7741,-92.6604 226.5546,-77.0176 279.6434,-69.9991"/>
<polygon fill="#191970" stroke="#191970" points="280.4017,-73.4302 289.8684,-68.6729 279.5013,-66.4883 280.4017,-73.4302"/>
</g>
<!-- Node13 -->
<g id="node14" class="node">
<title>Node13</title>
<polygon fill="none" stroke="#bfbfbf" points="472,-409 472,-428 558,-428 558,-409 472,-409"/>
<text text-anchor="middle" x="515" y="-416" font-family="FreeSans.ttf" font-size="10.00" fill="#000000">ModelExport.h</text>
</g>
<!-- Node12&#45;&gt;Node13 -->
<g id="edge16" class="edge">
<title>Node12&#45;&gt;Node13</title>
<path fill="none" stroke="#191970" d="M515,-470.3906C515,-461.8657 515,-449.1392 515,-438.4235"/>
<polygon fill="#191970" stroke="#191970" points="518.5001,-438.2448 515,-428.2449 511.5001,-438.2449 518.5001,-438.2448"/>
</g>
<!-- Node14&#45;&gt;Node12 -->
<g id="edge71" class="edge">
<title>Node14&#45;&gt;Node12</title>
<path fill="none" stroke="#191970" d="M727.2829,-526.4369C683.3784,-516.8328 615.6587,-502.0191 568.555,-491.7152"/>
<polygon fill="#191970" stroke="#191970" points="569.0537,-488.2416 558.5368,-489.5237 567.5578,-495.0799 569.0537,-488.2416"/>
</g>
<!-- Node15 -->
<g id="node16" class="node">
<title>Node15</title>
<g id="a_node16"><a xlink:href="Transform_8h.html" target="_top" xlink:title="iDynTree/Core/Transform.h">
<polygon fill="none" stroke="#000000" points="551,-347.5 551,-366.5 697,-366.5 697,-347.5 551,-347.5"/>
<text text-anchor="middle" x="624" y="-354.5" font-family="FreeSans.ttf" font-size="10.00" fill="#000000">iDynTree/Core/Transform.h</text>
</a>
</g>
</g>
<!-- Node14&#45;&gt;Node15 -->
<g id="edge18" class="edge">
<title>Node14&#45;&gt;Node15</title>
<path fill="none" stroke="#191970" d="M754.1094,-526.4076C740.3324,-518.0212 720.9385,-504.8794 707,-490 673.5058,-454.2448 646.0781,-403.0154 632.7455,-375.7505"/>
<polygon fill="#191970" stroke="#191970" points="635.8185,-374.0639 628.3425,-366.5565 629.5051,-377.0874 635.8185,-374.0639"/>
</g>
<!-- Node30 -->
<g id="node31" class="node">
<title>Node30</title>
<g id="a_node31"><a xlink:href="Twist_8h.html" target="_top" xlink:title="iDynTree/Core/Twist.h">
<polygon fill="none" stroke="#000000" points="882,-470.5 882,-489.5 1004,-489.5 1004,-470.5 882,-470.5"/>
<text text-anchor="middle" x="943" y="-477.5" font-family="FreeSans.ttf" font-size="10.00" fill="#000000">iDynTree/Core/Twist.h</text>
</a>
</g>
</g>
<!-- Node14&#45;&gt;Node30 -->
<g id="edge50" class="edge">
<title>Node14&#45;&gt;Node30</title>
<path fill="none" stroke="#191970" d="M800.5679,-526.3733C829.1688,-517.0613 872.6788,-502.8953 904.0819,-492.671"/>
<polygon fill="#191970" stroke="#191970" points="905.3928,-495.9251 913.818,-489.5011 903.2257,-489.269 905.3928,-495.9251"/>
</g>
<!-- Node33 -->
<g id="node34" class="node">
<title>Node33</title>
<g id="a_node34"><a xlink:href="SpatialAcc_8h.html" target="_top" xlink:title="iDynTree/Core/SpatialAcc.h">
<polygon fill="none" stroke="#000000" points="716,-470.5 716,-489.5 864,-489.5 864,-470.5 716,-470.5"/>
<text text-anchor="middle" x="790" y="-477.5" font-family="FreeSans.ttf" font-size="10.00" fill="#000000">iDynTree/Core/SpatialAcc.h</text>
</a>
</g>
</g>
<!-- Node14&#45;&gt;Node33 -->
<g id="edge61" class="edge">
<title>Node14&#45;&gt;Node33</title>
<path fill="none" stroke="#191970" d="M774.3095,-526.2455C776.8433,-518.7776 780.4177,-508.2427 783.515,-499.1137"/>
<polygon fill="#191970" stroke="#191970" points="786.8298,-500.237 786.7284,-489.6427 780.2009,-497.9879 786.8298,-500.237"/>
</g>
<!-- Node34 -->
<g id="node35" class="node">
<title>Node34</title>
<g id="a_node35"><a xlink:href="Wrench_8h.html" target="_top" xlink:title="iDynTree/Core/Wrench.h">
<polygon fill="none" stroke="#000000" points="1060.5,-470.5 1060.5,-489.5 1193.5,-489.5 1193.5,-470.5 1060.5,-470.5"/>
<text text-anchor="middle" x="1127" y="-477.5" font-family="FreeSans.ttf" font-size="10.00" fill="#000000">iDynTree/Core/Wrench.h</text>
</a>
</g>
</g>
<!-- Node14&#45;&gt;Node34 -->
<g id="edge63" class="edge">
<title>Node14&#45;&gt;Node34</title>
<path fill="none" stroke="#191970" d="M831.7941,-526.4369C894.0007,-516.6516 990.5869,-501.4582 1056.2018,-491.1368"/>
<polygon fill="#191970" stroke="#191970" points="1057.122,-494.5352 1066.4567,-489.5237 1056.0342,-487.6202 1057.122,-494.5352"/>
</g>
<!-- Node36 -->
<g id="node37" class="node">
<title>Node36</title>
<g id="a_node37"><a xlink:href="ArticulatedBodyInertia_8h.html" target="_top" xlink:title="iDynTree/Core/Articulated\lBodyInertia.h">
<polygon fill="none" stroke="#000000" points="104.5,-168.5 104.5,-198.5 245.5,-198.5 245.5,-168.5 104.5,-168.5"/>
<text text-anchor="start" x="112.5" y="-186.5" font-family="FreeSans.ttf" font-size="10.00" fill="#000000">iDynTree/Core/Articulated</text>
<text text-anchor="middle" x="175" y="-175.5" font-family="FreeSans.ttf" font-size="10.00" fill="#000000">BodyInertia.h</text>
</a>
</g>
</g>
<!-- Node14&#45;&gt;Node36 -->
<g id="edge68" class="edge">
<title>Node14&#45;&gt;Node36</title>
<path fill="none" stroke="#191970" d="M752.1778,-526.3781C735.1144,-517.4665 709.432,-503.5782 688,-490 632.0483,-454.5519 622.874,-438.5704 567,-403 441.2184,-322.9253 284.6998,-240.0418 213.4892,-203.1965"/>
<polygon fill="#191970" stroke="#191970" points="214.9153,-199.9939 204.424,-198.5165 211.7041,-206.2139 214.9153,-199.9939"/>
</g>
<!-- Node37 -->
<g id="node38" class="node">
<title>Node37</title>
<polygon fill="none" stroke="#bfbfbf" points="1008.5,-409 1008.5,-428 1055.5,-428 1055.5,-409 1008.5,-409"/>
<text text-anchor="middle" x="1032" y="-416" font-family="FreeSans.ttf" font-size="10.00" fill="#000000">vector</text>
</g>
<!-- Node14&#45;&gt;Node37 -->
<g id="edge72" class="edge">
<title>Node14&#45;&gt;Node37</title>
<path fill="none" stroke="#191970" d="M845.674,-530.4463C907.5539,-524.3258 989.0889,-512.2511 1013,-490 1027.0569,-476.919 1031.1755,-454.732 1032.1695,-438.5356"/>
<polygon fill="#191970" stroke="#191970" points="1035.6701,-438.5565 1032.4422,-428.4654 1028.6727,-438.367 1035.6701,-438.5565"/>
</g>
<!-- Node15&#45;&gt;Node1 -->
<g id="edge48" class="edge">
<title>Node15&#45;&gt;Node1</title>
<path fill="none" stroke="#191970" d="M629.6028,-347.2578C639.9144,-329.2285 662.4486,-289.3622 680,-255 700.4292,-215.0037 722.5065,-167.2268 734.3366,-141.2119"/>
<polygon fill="#191970" stroke="#191970" points="737.673,-142.3289 738.6117,-131.7757 731.2969,-139.4401 737.673,-142.3289"/>
</g>
<!-- Node15&#45;&gt;Node7 -->
<g id="edge49" class="edge">
<title>Node15&#45;&gt;Node7</title>
<path fill="none" stroke="#191970" d="M550.9466,-349.6078C401.7504,-333.5224 76,-292.9155 76,-245 76,-245 76,-245 76,-183.5 76,-93.5364 215.1271,-72.4527 279.7369,-67.5119"/>
<polygon fill="#191970" stroke="#191970" points="280.0582,-70.9983 289.7977,-66.8278 279.5832,-64.0144 280.0582,-70.9983"/>
</g>
<!-- Node16 -->
<g id="node17" class="node">
<title>Node16</title>
<g id="a_node17"><a xlink:href="Position_8h.html" target="_top" xlink:title="iDynTree/Core/Position.h">
<polygon fill="none" stroke="#000000" points="460,-291.5 460,-310.5 596,-310.5 596,-291.5 460,-291.5"/>
<text text-anchor="middle" x="528" y="-298.5" font-family="FreeSans.ttf" font-size="10.00" fill="#000000">iDynTree/Core/Position.h</text>
</a>
</g>
</g>
<!-- Node15&#45;&gt;Node16 -->
<g id="edge19" class="edge">
<title>Node15&#45;&gt;Node16</title>
<path fill="none" stroke="#191970" d="M607.2781,-347.2455C592.4111,-338.5731 570.4534,-325.7645 553.4142,-315.825"/>
<polygon fill="#191970" stroke="#191970" points="554.9317,-312.6582 544.5303,-310.6427 551.4045,-318.7047 554.9317,-312.6582"/>
</g>
<!-- Node27 -->
<g id="node28" class="node">
<title>Node27</title>
<g id="a_node28"><a xlink:href="Rotation_8h.html" target="_top" xlink:title="iDynTree/Core/Rotation.h">
<polygon fill="none" stroke="#000000" points="534.5,-235.5 534.5,-254.5 671.5,-254.5 671.5,-235.5 534.5,-235.5"/>
<text text-anchor="middle" x="603" y="-242.5" font-family="FreeSans.ttf" font-size="10.00" fill="#000000">iDynTree/Core/Rotation.h</text>
</a>
</g>
</g>
<!-- Node15&#45;&gt;Node27 -->
<g id="edge47" class="edge">
<title>Node15&#45;&gt;Node27</title>
<path fill="none" stroke="#191970" d="M622.2096,-347.4509C618.769,-329.1013 611.1733,-288.5908 606.6317,-264.3693"/>
<polygon fill="#191970" stroke="#191970" points="610.0689,-263.7086 604.7859,-254.5249 603.1888,-264.9986 610.0689,-263.7086"/>
</g>
<!-- Node16&#45;&gt;Node7 -->
<g id="edge46" class="edge">
<title>Node16&#45;&gt;Node7</title>
<path fill="none" stroke="#191970" d="M499.1829,-291.4453C445.5338,-273.0572 333.6255,-231.6765 310,-199 285.6327,-165.2974 296.5395,-113.1921 305.1498,-85.2558"/>
<polygon fill="#191970" stroke="#191970" points="308.5565,-86.1011 308.3694,-75.5079 301.9097,-83.9057 308.5565,-86.1011"/>
</g>
<!-- Node17 -->
<g id="node18" class="node">
<title>Node17</title>
<g id="a_node18"><a xlink:href="PositionRaw_8h.html" target="_top" xlink:title="iDynTree/Core/PositionRaw.h">
<polygon fill="none" stroke="#000000" points="516,-174 516,-193 672,-193 672,-174 516,-174"/>
<text text-anchor="middle" x="594" y="-181" font-family="FreeSans.ttf" font-size="10.00" fill="#000000">iDynTree/Core/PositionRaw.h</text>
</a>
</g>
</g>
<!-- Node16&#45;&gt;Node17 -->
<g id="edge20" class="edge">
<title>Node16&#45;&gt;Node17</title>
<path fill="none" stroke="#191970" d="M524.7854,-291.4354C520.8734,-278.0299 515.8481,-253.2508 525,-235 533.0248,-218.9968 548.6431,-206.6956 562.9934,-198.135"/>
<polygon fill="#191970" stroke="#191970" points="565.1066,-200.9649 572.1479,-193.0484 561.7067,-194.846 565.1066,-200.9649"/>
</g>
<!-- Node16&#45;&gt;Node27 -->
<g id="edge38" class="edge">
<title>Node16&#45;&gt;Node27</title>
<path fill="none" stroke="#191970" d="M541.064,-291.2455C552.3562,-282.814 568.8845,-270.4729 582.0271,-260.6598"/>
<polygon fill="#191970" stroke="#191970" points="584.1669,-263.4301 590.0857,-254.6427 579.9789,-257.8211 584.1669,-263.4301"/>
</g>
<!-- Node17&#45;&gt;Node7 -->
<g id="edge37" class="edge">
<title>Node17&#45;&gt;Node7</title>
<path fill="none" stroke="#191970" d="M570.9228,-173.8845C520.5614,-152.9006 400.742,-102.9758 343.499,-79.1246"/>
<polygon fill="#191970" stroke="#191970" points="344.7951,-75.873 334.2182,-75.2576 342.1028,-82.3346 344.7951,-75.873"/>
</g>
<!-- Node18 -->
<g id="node19" class="node">
<title>Node18</title>
<g id="a_node19"><a xlink:href="VectorFixSize_8h.html" target="_top" xlink:title="iDynTree/Core/VectorFixSize.h">
<polygon fill="none" stroke="#000000" points="919.5,-112.5 919.5,-131.5 1080.5,-131.5 1080.5,-112.5 919.5,-112.5"/>
<text text-anchor="middle" x="1000" y="-119.5" font-family="FreeSans.ttf" font-size="10.00" fill="#000000">iDynTree/Core/VectorFixSize.h</text>
</a>
</g>
</g>
<!-- Node17&#45;&gt;Node18 -->
<g id="edge21" class="edge">
<title>Node17&#45;&gt;Node18</title>
<path fill="none" stroke="#191970" d="M656.992,-173.9581C729.9992,-162.8991 850.1124,-144.7047 927.0943,-133.0436"/>
<polygon fill="#191970" stroke="#191970" points="927.8313,-136.472 937.1942,-131.5137 926.7828,-129.5509 927.8313,-136.472"/>
</g>
<!-- Node18&#45;&gt;Node2 -->
<g id="edge22" class="edge">
<title>Node18&#45;&gt;Node2</title>
<path fill="none" stroke="#191970" d="M1015.3284,-112.2455C1028.8303,-103.6534 1048.7122,-91.0014 1064.2686,-81.1018"/>
<polygon fill="#191970" stroke="#191970" points="1066.2897,-83.9643 1072.8472,-75.6427 1062.5315,-78.0587 1066.2897,-83.9643"/>
</g>
<!-- Node18&#45;&gt;Node5 -->
<g id="edge35" class="edge">
<title>Node18&#45;&gt;Node5</title>
<path fill="none" stroke="#191970" d="M999.152,-112.2096C997.5566,-98.5359 993.0957,-73.4401 981,-56 972.2349,-43.3622 958.8705,-32.8116 946.7911,-25.0163"/>
<polygon fill="#191970" stroke="#191970" points="948.2632,-21.8149 937.9018,-19.6033 944.6225,-27.7937 948.2632,-21.8149"/>
</g>
<!-- Node18&#45;&gt;Node6 -->
<g id="edge36" class="edge">
<title>Node18&#45;&gt;Node6</title>
<path fill="none" stroke="#191970" d="M990.7681,-112.2455C983.1683,-104.2155 972.2123,-92.6394 963.1632,-83.0781"/>
<polygon fill="#191970" stroke="#191970" points="965.542,-80.4998 956.1261,-75.6427 960.4579,-85.3115 965.542,-80.4998"/>
</g>
<!-- Node18&#45;&gt;Node7 -->
<g id="edge33" class="edge">
<title>Node18&#45;&gt;Node7</title>
<path fill="none" stroke="#191970" d="M919.3931,-115.439C767.9151,-103.1094 446.7865,-76.971 344.2126,-68.622"/>
<polygon fill="#191970" stroke="#191970" points="344.4119,-65.1267 334.1609,-67.8038 343.8439,-72.1036 344.4119,-65.1267"/>
</g>
<!-- Node18&#45;&gt;Node9 -->
<g id="edge34" class="edge">
<title>Node18&#45;&gt;Node9</title>
<path fill="none" stroke="#191970" d="M978.6836,-112.3733C958.7784,-103.3838 928.8564,-89.8706 906.44,-79.7471"/>
<polygon fill="#191970" stroke="#191970" points="907.5925,-76.4272 897.0382,-75.5011 904.7113,-82.8068 907.5925,-76.4272"/>
</g>
<!-- Node19 -->
<g id="node20" class="node">
<title>Node19</title>
<g id="a_node20"><a xlink:href="Span_8h.html" target="_top" xlink:title="iDynTree/Core/Span.h">
<polygon fill="none" stroke="#000000" points="1236.5,-56.5 1236.5,-75.5 1357.5,-75.5 1357.5,-56.5 1236.5,-56.5"/>
<text text-anchor="middle" x="1297" y="-63.5" font-family="FreeSans.ttf" font-size="10.00" fill="#000000">iDynTree/Core/Span.h</text>
</a>
</g>
</g>
<!-- Node18&#45;&gt;Node19 -->
<g id="edge23" class="edge">
<title>Node18&#45;&gt;Node19</title>
<path fill="none" stroke="#191970" d="M1050.7187,-112.4369C1102.1886,-102.7321 1181.8702,-87.708 1236.5784,-77.3926"/>
<polygon fill="#191970" stroke="#191970" points="1237.3122,-80.816 1246.4905,-75.5237 1236.0152,-73.9372 1237.3122,-80.816"/>
</g>
<!-- Node19&#45;&gt;Node3 -->
<g id="edge27" class="edge">
<title>Node19&#45;&gt;Node3</title>
<path fill="none" stroke="#191970" d="M1260.5181,-56.4249C1227.5373,-47.7409 1177.393,-34.4688 1124.6102,-20.1455"/>
<polygon fill="#191970" stroke="#191970" points="1125.2952,-16.7048 1114.7273,-17.4597 1123.4594,-23.4598 1125.2952,-16.7048"/>
</g>
<!-- Node19&#45;&gt;Node5 -->
<g id="edge24" class="edge">
<title>Node19&#45;&gt;Node5</title>
<path fill="none" stroke="#191970" d="M1236.4497,-60.5601C1169.7154,-53.9653 1059.1067,-41.2686 955.2947,-20.0302"/>
<polygon fill="#191970" stroke="#191970" points="955.7742,-16.5552 945.2713,-17.9481 954.3505,-23.4089 955.7742,-16.5552"/>
</g>
<!-- Node20 -->
<g id="node21" class="node">
<title>Node20</title>
<polygon fill="none" stroke="#bfbfbf" points="1133,-.5 1133,-19.5 1197,-19.5 1197,-.5 1133,-.5"/>
<text text-anchor="middle" x="1165" y="-7.5" font-family="FreeSans.ttf" font-size="10.00" fill="#000000">algorithm</text>
</g>
<!-- Node19&#45;&gt;Node20 -->
<g id="edge25" class="edge">
<title>Node19&#45;&gt;Node20</title>
<path fill="none" stroke="#191970" d="M1274.3084,-56.3733C1252.9289,-47.3032 1220.6943,-33.6279 1196.7638,-23.4755"/>
<polygon fill="#191970" stroke="#191970" points="1197.9683,-20.1846 1187.3955,-19.5011 1195.2344,-26.6287 1197.9683,-20.1846"/>
</g>
<!-- Node21 -->
<g id="node22" class="node">
<title>Node21</title>
<polygon fill="none" stroke="#bfbfbf" points="1215,-.5 1215,-19.5 1257,-19.5 1257,-.5 1215,-.5"/>
<text text-anchor="middle" x="1236" y="-7.5" font-family="FreeSans.ttf" font-size="10.00" fill="#000000">array</text>
</g>
<!-- Node19&#45;&gt;Node21 -->
<g id="edge26" class="edge">
<title>Node19&#45;&gt;Node21</title>
<path fill="none" stroke="#191970" d="M1286.3746,-56.2455C1277.4527,-48.0549 1264.512,-36.1749 1253.9808,-26.5069"/>
<polygon fill="#191970" stroke="#191970" points="1256.2371,-23.8271 1246.5036,-19.6427 1251.5032,-28.9837 1256.2371,-23.8271"/>
</g>
<!-- Node22 -->
<g id="node23" class="node">
<title>Node22</title>
<polygon fill="none" stroke="#bfbfbf" points="1275.5,-.5 1275.5,-19.5 1328.5,-19.5 1328.5,-.5 1275.5,-.5"/>
<text text-anchor="middle" x="1302" y="-7.5" font-family="FreeSans.ttf" font-size="10.00" fill="#000000">iterator</text>
</g>
<!-- Node19&#45;&gt;Node22 -->
<g id="edge28" class="edge">
<title>Node19&#45;&gt;Node22</title>
<path fill="none" stroke="#191970" d="M1297.8709,-56.2455C1298.5234,-48.9382 1299.438,-38.6944 1300.2407,-29.7046"/>
<polygon fill="#191970" stroke="#191970" points="1303.7358,-29.9143 1301.139,-19.6427 1296.7635,-29.2918 1303.7358,-29.9143"/>
</g>
<!-- Node23 -->
<g id="node24" class="node">
<title>Node23</title>
<polygon fill="none" stroke="#bfbfbf" points="1347,-.5 1347,-19.5 1391,-19.5 1391,-.5 1347,-.5"/>
<text text-anchor="middle" x="1369" y="-7.5" font-family="FreeSans.ttf" font-size="10.00" fill="#000000">limits</text>
</g>
<!-- Node19&#45;&gt;Node23 -->
<g id="edge29" class="edge">
<title>Node19&#45;&gt;Node23</title>
<path fill="none" stroke="#191970" d="M1309.5414,-56.2455C1320.2787,-47.8943 1335.9473,-35.7076 1348.5047,-25.9408"/>
<polygon fill="#191970" stroke="#191970" points="1350.8575,-28.5449 1356.6023,-19.6427 1346.5599,-23.0194 1350.8575,-28.5449"/>
</g>
<!-- Node24 -->
<g id="node25" class="node">
<title>Node24</title>
<polygon fill="none" stroke="#bfbfbf" points="1409.5,-.5 1409.5,-19.5 1474.5,-19.5 1474.5,-.5 1409.5,-.5"/>
<text text-anchor="middle" x="1442" y="-7.5" font-family="FreeSans.ttf" font-size="10.00" fill="#000000">stdexcept</text>
</g>
<!-- Node19&#45;&gt;Node24 -->
<g id="edge30" class="edge">
<title>Node19&#45;&gt;Node24</title>
<path fill="none" stroke="#191970" d="M1321.9264,-56.3733C1345.6202,-47.2226 1381.4511,-33.3844 1407.8068,-23.2057"/>
<polygon fill="#191970" stroke="#191970" points="1409.3314,-26.3689 1417.3989,-19.5011 1406.8094,-19.8389 1409.3314,-26.3689"/>
</g>
<!-- Node25 -->
<g id="node26" class="node">
<title>Node25</title>
<polygon fill="none" stroke="#bfbfbf" points="1492.5,-.5 1492.5,-19.5 1561.5,-19.5 1561.5,-.5 1492.5,-.5"/>
<text text-anchor="middle" x="1527" y="-7.5" font-family="FreeSans.ttf" font-size="10.00" fill="#000000">type_traits</text>
</g>
<!-- Node19&#45;&gt;Node25 -->
<g id="edge31" class="edge">
<title>Node19&#45;&gt;Node25</title>
<path fill="none" stroke="#191970" d="M1336.2771,-56.4369C1376.8998,-46.5461 1440.2152,-31.1302 1482.6228,-20.8049"/>
<polygon fill="#191970" stroke="#191970" points="1483.5084,-24.1916 1492.3965,-18.4252 1481.8523,-17.3903 1483.5084,-24.1916"/>
</g>
<!-- Node26 -->
<g id="node27" class="node">
<title>Node26</title>
<polygon fill="none" stroke="#bfbfbf" points="1579.5,-.5 1579.5,-19.5 1624.5,-19.5 1624.5,-.5 1579.5,-.5"/>
<text text-anchor="middle" x="1602" y="-7.5" font-family="FreeSans.ttf" font-size="10.00" fill="#000000">utility</text>
</g>
<!-- Node19&#45;&gt;Node26 -->
<g id="edge32" class="edge">
<title>Node19&#45;&gt;Node26</title>
<path fill="none" stroke="#191970" d="M1357.6473,-58.4038C1411.2225,-51.1093 1491.5601,-38.7505 1569.4444,-20.1273"/>
<polygon fill="#191970" stroke="#191970" points="1570.531,-23.4653 1579.422,-17.7033 1568.8784,-16.6631 1570.531,-23.4653"/>
</g>
<!-- Node27&#45;&gt;Node7 -->
<g id="edge39" class="edge">
<title>Node27&#45;&gt;Node7</title>
<path fill="none" stroke="#191970" d="M534.4568,-242.4016C463.2829,-238.1919 358.5367,-227.2518 331,-199 301.5365,-168.7713 304.2353,-114.8138 308.3476,-85.7843"/>
<polygon fill="#191970" stroke="#191970" points="311.8442,-86.0864 309.988,-75.6555 304.9342,-84.9673 311.8442,-86.0864"/>
</g>
<!-- Node27&#45;&gt;Node18 -->
<g id="edge45" class="edge">
<title>Node27&#45;&gt;Node18</title>
<path fill="none" stroke="#191970" d="M633.8216,-235.4507C704.8408,-213.4473 879.9887,-159.1823 959.5322,-134.5379"/>
<polygon fill="#191970" stroke="#191970" points="960.6818,-137.8459 969.1981,-131.5432 958.6102,-131.1595 960.6818,-137.8459"/>
</g>
<!-- Node28 -->
<g id="node29" class="node">
<title>Node28</title>
<g id="a_node29"><a xlink:href="GeomVector3_8h.html" target="_top" xlink:title="iDynTree/Core/GeomVector3.h">
<polygon fill="none" stroke="#000000" points="918.5,-174 918.5,-193 1081.5,-193 1081.5,-174 918.5,-174"/>
<text text-anchor="middle" x="1000" y="-181" font-family="FreeSans.ttf" font-size="10.00" fill="#000000">iDynTree/Core/GeomVector3.h</text>
</a>
</g>
</g>
<!-- Node27&#45;&gt;Node28 -->
<g id="edge40" class="edge">
<title>Node27&#45;&gt;Node28</title>
<path fill="none" stroke="#191970" d="M664.5957,-235.4581C735.8388,-224.4217 852.9558,-206.2789 928.249,-194.6151"/>
<polygon fill="#191970" stroke="#191970" points="929.2402,-198.0034 938.5865,-193.0137 928.1685,-191.0859 929.2402,-198.0034"/>
</g>
<!-- Node29 -->
<g id="node30" class="node">
<title>Node29</title>
<g id="a_node30"><a xlink:href="RotationRaw_8h.html" target="_top" xlink:title="iDynTree/Core/RotationRaw.h">
<polygon fill="none" stroke="#000000" points="340,-174 340,-193 498,-193 498,-174 340,-174"/>
<text text-anchor="middle" x="419" y="-181" font-family="FreeSans.ttf" font-size="10.00" fill="#000000">iDynTree/Core/RotationRaw.h</text>
</a>
</g>
</g>
<!-- Node27&#45;&gt;Node29 -->
<g id="edge42" class="edge">
<title>Node27&#45;&gt;Node29</title>
<path fill="none" stroke="#191970" d="M574.25,-235.3906C542.7883,-224.8749 492.1992,-207.966 457.3686,-196.3243"/>
<polygon fill="#191970" stroke="#191970" points="458.1419,-192.8925 447.5481,-193.0419 455.9228,-199.5315 458.1419,-192.8925"/>
</g>
<!-- Node28&#45;&gt;Node18 -->
<g id="edge41" class="edge">
<title>Node28&#45;&gt;Node18</title>
<path fill="none" stroke="#191970" d="M1000,-173.8906C1000,-165.3657 1000,-152.6392 1000,-141.9235"/>
<polygon fill="#191970" stroke="#191970" points="1003.5001,-141.7448 1000,-131.7449 996.5001,-141.7449 1003.5001,-141.7448"/>
</g>
<!-- Node29&#45;&gt;Node1 -->
<g id="edge43" class="edge">
<title>Node29&#45;&gt;Node1</title>
<path fill="none" stroke="#191970" d="M469.2695,-173.9581C526.9369,-163.012 621.433,-145.0752 682.9278,-133.4026"/>
<polygon fill="#191970" stroke="#191970" points="683.7073,-136.8172 692.8791,-131.5137 682.4018,-129.94 683.7073,-136.8172"/>
</g>
<!-- Node29&#45;&gt;Node7 -->
<g id="edge44" class="edge">
<title>Node29&#45;&gt;Node7</title>
<path fill="none" stroke="#191970" d="M410.2437,-173.8845C392.2171,-154.0889 350.736,-108.5372 327.8609,-83.4173"/>
<polygon fill="#191970" stroke="#191970" points="330.1981,-80.7856 320.8772,-75.7484 325.0225,-85.4987 330.1981,-80.7856"/>
</g>
<!-- Node31 -->
<g id="node32" class="node">
<title>Node31</title>
<g id="a_node32"><a xlink:href="SpatialMotionVector_8h.html" target="_top" xlink:title="iDynTree/Core/SpatialMotion\lVector.h">
<polygon fill="none" stroke="#000000" points="835.5,-403.5 835.5,-433.5 990.5,-433.5 990.5,-403.5 835.5,-403.5"/>
<text text-anchor="start" x="843.5" y="-421.5" font-family="FreeSans.ttf" font-size="10.00" fill="#000000">iDynTree/Core/SpatialMotion</text>
<text text-anchor="middle" x="913" y="-410.5" font-family="FreeSans.ttf" font-size="10.00" fill="#000000">Vector.h</text>
</a>
</g>
</g>
<!-- Node30&#45;&gt;Node31 -->
<g id="edge51" class="edge">
<title>Node30&#45;&gt;Node31</title>
<path fill="none" stroke="#191970" d="M938.3125,-470.3906C934.7035,-462.9922 929.5508,-452.4291 924.8353,-442.7623"/>
<polygon fill="#191970" stroke="#191970" points="927.8688,-440.9978 920.3388,-433.5446 921.5774,-444.0668 927.8688,-440.9978"/>
</g>
<!-- Node31&#45;&gt;Node18 -->
<g id="edge52" class="edge">
<title>Node31&#45;&gt;Node18</title>
<path fill="none" stroke="#191970" d="M944.8109,-403.3252C961.1976,-394.3941 980.6864,-381.9224 995,-367 1054.5301,-304.9378 1068.9272,-282.1165 1091,-199 1094.5363,-185.6838 1098.2177,-179.7359 1091,-168 1081.6199,-152.7479 1065.4458,-142.3672 1049.311,-135.3894"/>
<polygon fill="#191970" stroke="#191970" points="1050.4539,-132.0778 1039.8672,-131.6631 1047.8846,-138.5893 1050.4539,-132.0778"/>
</g>
<!-- Node31&#45;&gt;Node28 -->
<g id="edge53" class="edge">
<title>Node31&#45;&gt;Node28</title>
<path fill="none" stroke="#191970" d="M940.2798,-403.4297C953.5895,-394.6026 968.522,-382.1941 977,-367 1006.657,-313.849 1005.0036,-238.7927 1002.1485,-203.4188"/>
<polygon fill="#191970" stroke="#191970" points="1005.5933,-202.6635 1001.1777,-193.0327 998.6237,-203.315 1005.5933,-202.6635"/>
</g>
<!-- Node32 -->
<g id="node33" class="node">
<title>Node32</title>
<g id="a_node33"><a xlink:href="SpatialVector_8h.html" target="_top" xlink:title="iDynTree/Core/SpatialVector.h">
<polygon fill="none" stroke="#000000" points="806.5,-347.5 806.5,-366.5 967.5,-366.5 967.5,-347.5 806.5,-347.5"/>
<text text-anchor="middle" x="887" y="-354.5" font-family="FreeSans.ttf" font-size="10.00" fill="#000000">iDynTree/Core/SpatialVector.h</text>
</a>
</g>
</g>
<!-- Node31&#45;&gt;Node32 -->
<g id="edge54" class="edge">
<title>Node31&#45;&gt;Node32</title>
<path fill="none" stroke="#191970" d="M906.573,-403.2977C903.1143,-395.1166 898.8133,-384.943 895.1246,-376.2179"/>
<polygon fill="#191970" stroke="#191970" points="898.2807,-374.6947 891.1629,-366.8469 891.8332,-377.4205 898.2807,-374.6947"/>
</g>
<!-- Node32&#45;&gt;Node2 -->
<g id="edge57" class="edge">
<title>Node32&#45;&gt;Node2</title>
<path fill="none" stroke="#191970" d="M910.3682,-347.4171C955.3138,-327.5321 1052.738,-277.0303 1091,-199 1109.053,-162.1833 1100.6232,-112.4647 1093.7601,-85.4468"/>
<polygon fill="#191970" stroke="#191970" points="1097.0992,-84.3883 1091.0859,-75.6652 1090.347,-86.2343 1097.0992,-84.3883"/>
</g>
<!-- Node32&#45;&gt;Node8 -->
<g id="edge59" class="edge">
<title>Node32&#45;&gt;Node8</title>
<path fill="none" stroke="#191970" d="M881.8356,-347.4283C872.0998,-328.4624 852,-284.5212 852,-245 852,-245 852,-245 852,-183.5 852,-150.6194 847.0354,-141.7345 833,-112 828.2552,-101.948 821.2623,-91.7999 814.9336,-83.6024"/>
<polygon fill="#191970" stroke="#191970" points="817.4629,-81.1629 808.4647,-75.5697 812.0109,-85.5534 817.4629,-81.1629"/>
</g>
<!-- Node32&#45;&gt;Node9 -->
<g id="edge60" class="edge">
<title>Node32&#45;&gt;Node9</title>
<path fill="none" stroke="#191970" d="M887.4298,-347.4139C888.2594,-328.0603 890,-282.9303 890,-245 890,-245 890,-245 890,-183.5 890,-148.8969 883.9393,-108.9617 879.7932,-85.6911"/>
<polygon fill="#191970" stroke="#191970" points="883.2063,-84.8994 877.9466,-75.7023 876.3229,-86.172 883.2063,-84.8994"/>
</g>
<!-- Node32&#45;&gt;Node16 -->
<g id="edge55" class="edge">
<title>Node32&#45;&gt;Node16</title>
<path fill="none" stroke="#191970" d="M825.6936,-347.4369C762.8337,-337.6314 665.1617,-322.3957 598.9868,-312.0731"/>
<polygon fill="#191970" stroke="#191970" points="599.4735,-308.6068 589.0535,-310.5237 598.3946,-315.5232 599.4735,-308.6068"/>
</g>
<!-- Node32&#45;&gt;Node27 -->
<g id="edge56" class="edge">
<title>Node32&#45;&gt;Node27</title>
<path fill="none" stroke="#191970" d="M862.7863,-347.4509C812.065,-327.4482 694.5691,-281.1117 636.5924,-258.2477"/>
<polygon fill="#191970" stroke="#191970" points="637.7392,-254.9377 627.1524,-254.5249 635.1711,-261.4496 637.7392,-254.9377"/>
</g>
<!-- Node32&#45;&gt;Node28 -->
<g id="edge58" class="edge">
<title>Node32&#45;&gt;Node28</title>
<path fill="none" stroke="#191970" d="M893.2363,-347.4248C911.3296,-319.6443 964.0658,-238.6733 987.971,-201.9693"/>
<polygon fill="#191970" stroke="#191970" points="991.1189,-203.5492 993.6437,-193.2595 985.2533,-199.7289 991.1189,-203.5492"/>
</g>
<!-- Node33&#45;&gt;Node31 -->
<g id="edge62" class="edge">
<title>Node33&#45;&gt;Node31</title>
<path fill="none" stroke="#191970" d="M809.2188,-470.3906C826.4818,-461.7591 852.3596,-448.8202 873.9553,-438.0224"/>
<polygon fill="#191970" stroke="#191970" points="875.5318,-441.1473 882.9108,-433.5446 872.4013,-434.8863 875.5318,-441.1473"/>
</g>
<!-- Node35 -->
<g id="node36" class="node">
<title>Node35</title>
<g id="a_node36"><a xlink:href="SpatialForceVector_8h.html" target="_top" xlink:title="iDynTree/Core/SpatialForce\lVector.h">
<polygon fill="none" stroke="#000000" points="1074,-403.5 1074,-433.5 1222,-433.5 1222,-403.5 1074,-403.5"/>
<text text-anchor="start" x="1082" y="-421.5" font-family="FreeSans.ttf" font-size="10.00" fill="#000000">iDynTree/Core/SpatialForce</text>
<text text-anchor="middle" x="1148" y="-410.5" font-family="FreeSans.ttf" font-size="10.00" fill="#000000">Vector.h</text>
</a>
</g>
</g>
<!-- Node34&#45;&gt;Node35 -->
<g id="edge64" class="edge">
<title>Node34&#45;&gt;Node35</title>
<path fill="none" stroke="#191970" d="M1130.2813,-470.3906C1132.7812,-463.0692 1136.3394,-452.6488 1139.6121,-443.0647"/>
<polygon fill="#191970" stroke="#191970" points="1142.9435,-444.1391 1142.8628,-433.5446 1136.3191,-441.8771 1142.9435,-444.1391"/>
</g>
<!-- Node35&#45;&gt;Node18 -->
<g id="edge65" class="edge">
<title>Node35&#45;&gt;Node18</title>
<path fill="none" stroke="#191970" d="M1148,-403.2899C1148,-380.892 1148,-337.7188 1148,-301 1148,-301 1148,-301 1148,-245 1148,-206.2287 1135.5327,-194.2506 1107,-168 1090.3756,-152.7052 1067.8833,-141.9992 1047.8106,-134.7898"/>
<polygon fill="#191970" stroke="#191970" points="1048.7818,-131.4234 1038.1875,-131.5267 1046.5339,-138.0527 1048.7818,-131.4234"/>
</g>
<!-- Node35&#45;&gt;Node28 -->
<g id="edge66" class="edge">
<title>Node35&#45;&gt;Node28</title>
<path fill="none" stroke="#191970" d="M1138.5168,-403.4422C1112.483,-362.1048 1039.9617,-246.9528 1011.5895,-201.9023"/>
<polygon fill="#191970" stroke="#191970" points="1014.3837,-199.7712 1006.093,-193.1746 1008.4605,-203.5016 1014.3837,-199.7712"/>
</g>
<!-- Node35&#45;&gt;Node32 -->
<g id="edge67" class="edge">
<title>Node35&#45;&gt;Node32</title>
<path fill="none" stroke="#191970" d="M1084.1522,-403.4554C1038.9802,-392.8114 979.2437,-378.7356 937.4102,-368.8783"/>
<polygon fill="#191970" stroke="#191970" points="937.9819,-365.4172 927.4457,-366.5303 936.3764,-372.2306 937.9819,-365.4172"/>
</g>
<!-- Node36&#45;&gt;Node1 -->
<g id="edge69" class="edge">
<title>Node36&#45;&gt;Node1</title>
<path fill="none" stroke="#191970" d="M245.5032,-175.8663C348.1726,-164.7498 538.8833,-144.1007 652.019,-131.8509"/>
<polygon fill="#191970" stroke="#191970" points="652.481,-135.3215 662.0461,-130.7653 651.7274,-128.3621 652.481,-135.3215"/>
</g>
<!-- Node36&#45;&gt;Node7 -->
<g id="edge70" class="edge">
<title>Node36&#45;&gt;Node7</title>
<path fill="none" stroke="#191970" d="M192.6299,-168.3795C218.4535,-146.2315 266.3742,-105.1316 292.9706,-82.3209"/>
<polygon fill="#191970" stroke="#191970" points="295.4894,-84.7716 300.8014,-75.6046 290.9322,-79.4581 295.4894,-84.7716"/>
</g>
<!-- Node38&#45;&gt;Node18 -->
<g id="edge74" class="edge">
<title>Node38&#45;&gt;Node18</title>
<path fill="none" stroke="#191970" d="M1282.4146,-470.3664C1273.1341,-449.9557 1253,-400.6453 1253,-357 1253,-357 1253,-357 1253,-245 1253,-199.5207 1119.0978,-155.1152 1046.1214,-134.2914"/>
<polygon fill="#191970" stroke="#191970" points="1046.8231,-130.8529 1036.2487,-131.5119 1044.926,-137.591 1046.8231,-130.8529"/>
</g>
<!-- Node38&#45;&gt;Node35 -->
<g id="edge78" class="edge">
<title>Node38&#45;&gt;Node35</title>
<path fill="none" stroke="#191970" d="M1265.2813,-470.3906C1245.5984,-461.682 1216.0056,-448.5888 1191.4712,-437.7336"/>
<polygon fill="#191970" stroke="#191970" points="1192.5643,-434.3901 1182.0032,-433.5446 1189.732,-440.7915 1192.5643,-434.3901"/>
</g>
<!-- Node38&#45;&gt;Node37 -->
<g id="edge79" class="edge">
<title>Node38&#45;&gt;Node37</title>
<path fill="none" stroke="#191970" d="M1220.8498,-470.4745C1176.1392,-463.0255 1116.1571,-451.0503 1065,-434 1063.3486,-433.4496 1061.6713,-432.8386 1059.9925,-432.1864"/>
<polygon fill="#191970" stroke="#191970" points="1061.1047,-428.8552 1050.5344,-428.1347 1058.3482,-435.2897 1061.1047,-428.8552"/>
</g>
<!-- Node39 -->
<g id="node40" class="node">
<title>Node39</title>
<g id="a_node40"><a xlink:href="VectorDynSize_8h.html" target="_top" xlink:title="iDynTree/Core/VectorDynSize.h">
<polygon fill="none" stroke="#000000" points="1213.5,-112.5 1213.5,-131.5 1380.5,-131.5 1380.5,-112.5 1213.5,-112.5"/>
<text text-anchor="middle" x="1297" y="-119.5" font-family="FreeSans.ttf" font-size="10.00" fill="#000000">iDynTree/Core/VectorDynSize.h</text>
</a>
</g>
</g>
<!-- Node38&#45;&gt;Node39 -->
<g id="edge75" class="edge">
<title>Node38&#45;&gt;Node39</title>
<path fill="none" stroke="#191970" d="M1288.0459,-470.4446C1290.2144,-449.7785 1295,-399.3706 1295,-357 1295,-357 1295,-357 1295,-245 1295,-208.4946 1295.8916,-165.9028 1296.4842,-141.6269"/>
<polygon fill="#191970" stroke="#191970" points="1299.9846,-141.6536 1296.7385,-131.5683 1292.9868,-141.4766 1299.9846,-141.6536"/>
</g>
<!-- Node39&#45;&gt;Node7 -->
<g id="edge77" class="edge">
<title>Node39&#45;&gt;Node7</title>
<path fill="none" stroke="#191970" d="M1213.4444,-117.2496C1006.9806,-105.5116 479.6615,-75.532 344.1392,-67.8272"/>
<polygon fill="#191970" stroke="#191970" points="344.1877,-64.3244 334.0051,-67.2511 343.7903,-71.3131 344.1877,-64.3244"/>
</g>
<!-- Node39&#45;&gt;Node19 -->
<g id="edge76" class="edge">
<title>Node39&#45;&gt;Node19</title>
<path fill="none" stroke="#191970" d="M1297,-112.2455C1297,-104.9382 1297,-94.6944 1297,-85.7046"/>
<polygon fill="#191970" stroke="#191970" points="1300.5001,-85.6426 1297,-75.6427 1293.5001,-85.6427 1300.5001,-85.6426"/>
</g>
<!-- Node40&#45;&gt;Node1 -->
<g id="edge81" class="edge">
<title>Node40&#45;&gt;Node1</title>
<path fill="none" stroke="#191970" d="M601.6118,-638.1827C620.2227,-616.9983 650,-576.7378 650,-536 650,-536 650,-536 650,-480 650,-414.1007 714.2005,-424.7192 746,-367 771.1657,-321.3219 769.0538,-305.7651 781,-255 789.9045,-217.1606 805.0689,-203.8335 790,-168 785.0022,-156.1153 775.2686,-145.765 765.9497,-137.908"/>
<polygon fill="#191970" stroke="#191970" points="768.0248,-135.0874 757.9965,-131.6692 763.7043,-140.5951 768.0248,-135.0874"/>
</g>
<!-- Node40&#45;&gt;Node11 -->
<g id="edge82" class="edge">
<title>Node40&#45;&gt;Node11</title>
<path fill="none" stroke="#191970" d="M573.8989,-638.2977C566.3887,-629.5831 556.93,-618.6075 549.1073,-609.5302"/>
<polygon fill="#191970" stroke="#191970" points="551.6655,-607.1372 542.486,-601.8469 546.3629,-611.707 551.6655,-607.1372"/>
</g>
</g>
</svg>
