<?xml version="1.0" encoding="UTF-8" standalone="no"?>
<!DOCTYPE svg PUBLIC "-//W3C//DTD SVG 1.1//EN"
 "http://www.w3.org/Graphics/SVG/1.1/DTD/svg11.dtd">
<!-- Generated by graphviz version 2.40.1 (20161225.0304)
 -->
<!-- Title: Dynamics.cpp Pages: 1 -->
<svg width="2182pt" height="766pt"
 viewBox="0.00 0.00 2182.25 766.00" xmlns="http://www.w3.org/2000/svg" xmlns:xlink="http://www.w3.org/1999/xlink">
<g id="graph0" class="graph" transform="scale(1 1) rotate(0) translate(4 762)">
<title>Dynamics.cpp</title>
<!-- Node0 -->
<g id="node1" class="node">
<title>Node0</title>
<polygon fill="#bfbfbf" stroke="#000000" points="1098.7524,-738.5 1098.7524,-757.5 1184.7524,-757.5 1184.7524,-738.5 1098.7524,-738.5"/>
<text text-anchor="middle" x="1141.7524" y="-745.5" font-family="FreeSans.ttf" font-size="10.00" fill="#000000">Dynamics.cpp</text>
</g>
<!-- Node1 -->
<g id="node2" class="node">
<title>Node1</title>
<g id="a_node2"><a xlink:href="Model_8h.html" target="_top" xlink:title="iDynTree/Model/Model.h">
<polygon fill="none" stroke="#000000" points="1430.2524,-677 1430.2524,-696 1563.2524,-696 1563.2524,-677 1430.2524,-677"/>
<text text-anchor="middle" x="1496.7524" y="-684" font-family="FreeSans.ttf" font-size="10.00" fill="#000000">iDynTree/Model/Model.h</text>
</a>
</g>
</g>
<!-- Node0&#45;&gt;Node1 -->
<g id="edge1" class="edge">
<title>Node0&#45;&gt;Node1</title>
<path fill="none" stroke="#191970" d="M1184.9274,-740.5204C1246.3933,-729.8721 1359.6117,-710.2582 1431.3921,-697.823"/>
<polygon fill="#191970" stroke="#191970" points="1432.4151,-701.198 1441.6709,-696.0423 1431.2202,-694.3007 1432.4151,-701.198"/>
</g>
<!-- Node7 -->
<g id="node8" class="node">
<title>Node7</title>
<g id="a_node8"><a xlink:href="SpatialInertia_8h.html" target="_top" xlink:title="iDynTree/Core/SpatialInertia.h">
<polygon fill="none" stroke="#000000" points="779.7524,-548.5 779.7524,-567.5 941.7524,-567.5 941.7524,-548.5 779.7524,-548.5"/>
<text text-anchor="middle" x="860.7524" y="-555.5" font-family="FreeSans.ttf" font-size="10.00" fill="#000000">iDynTree/Core/SpatialInertia.h</text>
</a>
</g>
</g>
<!-- Node0&#45;&gt;Node7 -->
<g id="edge108" class="edge">
<title>Node0&#45;&gt;Node7</title>
<path fill="none" stroke="#191970" d="M1101.4871,-738.4809C1048.8045,-724.1723 956.4284,-692.4694 898.7524,-635 882.6402,-618.9455 872.2354,-594.6759 866.4582,-577.6866"/>
<polygon fill="#191970" stroke="#191970" points="869.6642,-576.2158 863.3165,-567.7331 862.9889,-578.3229 869.6642,-576.2158"/>
</g>
<!-- Node35 -->
<g id="node31" class="node">
<title>Node35</title>
<g id="a_node31"><a xlink:href="SpatialMomentum_8h.html" target="_top" xlink:title="iDynTree/Core/SpatialMomentum.h">
<polygon fill="none" stroke="#000000" points="85.7524,-487 85.7524,-506 271.7524,-506 271.7524,-487 85.7524,-487"/>
<text text-anchor="middle" x="178.7524" y="-494" font-family="FreeSans.ttf" font-size="10.00" fill="#000000">iDynTree/Core/SpatialMomentum.h</text>
</a>
</g>
</g>
<!-- Node0&#45;&gt;Node35 -->
<g id="edge109" class="edge">
<title>Node0&#45;&gt;Node35</title>
<path fill="none" stroke="#191970" d="M1098.6624,-745.5162C997.3497,-739.4068 746.4228,-722.634 664.7524,-702 590.4042,-683.2159 576.3917,-664.8426 505.7524,-635 397.573,-589.298 269.3409,-534.9285 210.7886,-510.0919"/>
<polygon fill="#191970" stroke="#191970" points="211.9164,-506.7685 201.3436,-506.0853 209.1828,-513.2126 211.9164,-506.7685"/>
</g>
<!-- Node43 -->
<g id="node39" class="node">
<title>Node43</title>
<g id="a_node39"><a xlink:href="Traversal_8h.html" target="_top" xlink:title="iDynTree/Model/Traversal.h">
<polygon fill="none" stroke="#000000" points="1710.7524,-548.5 1710.7524,-567.5 1858.7524,-567.5 1858.7524,-548.5 1710.7524,-548.5"/>
<text text-anchor="middle" x="1784.7524" y="-555.5" font-family="FreeSans.ttf" font-size="10.00" fill="#000000">iDynTree/Model/Traversal.h</text>
</a>
</g>
</g>
<!-- Node0&#45;&gt;Node43 -->
<g id="edge76" class="edge">
<title>Node0&#45;&gt;Node43</title>
<path fill="none" stroke="#191970" d="M1184.7854,-744.4668C1331.6449,-731.9638 1806.2971,-687.7226 1847.7524,-635 1856.2684,-624.1693 1853.9929,-616.2835 1847.7524,-604 1840.8914,-590.4951 1827.9991,-580.0099 1815.6558,-572.4839"/>
<polygon fill="#191970" stroke="#191970" points="1817.2891,-569.3868 1806.859,-567.5258 1813.852,-575.4849 1817.2891,-569.3868"/>
</g>
<!-- Node44 -->
<g id="node40" class="node">
<title>Node44</title>
<g id="a_node40"><a xlink:href="FreeFloatingState_8h.html" target="_top" xlink:title="iDynTree/Model/FreeFloating\lState.h">
<polygon fill="none" stroke="#000000" points="907.7524,-604.5 907.7524,-634.5 1061.7524,-634.5 1061.7524,-604.5 907.7524,-604.5"/>
<text text-anchor="start" x="915.7524" y="-622.5" font-family="FreeSans.ttf" font-size="10.00" fill="#000000">iDynTree/Model/FreeFloating</text>
<text text-anchor="middle" x="984.7524" y="-611.5" font-family="FreeSans.ttf" font-size="10.00" fill="#000000">State.h</text>
</a>
</g>
</g>
<!-- Node0&#45;&gt;Node44 -->
<g id="edge79" class="edge">
<title>Node0&#45;&gt;Node44</title>
<path fill="none" stroke="#191970" d="M1126.9465,-738.4673C1113.3095,-729.5053 1092.6864,-715.487 1075.7524,-702 1051.74,-682.8755 1025.9585,-659.1726 1007.9903,-642.0874"/>
<polygon fill="#191970" stroke="#191970" points="1009.9627,-639.1304 1000.3188,-634.7434 1005.122,-644.1869 1009.9627,-639.1304"/>
</g>
<!-- Node46 -->
<g id="node42" class="node">
<title>Node46</title>
<g id="a_node42"><a xlink:href="LinkState_8h.html" target="_top" xlink:title="iDynTree/Model/LinkState.h">
<polygon fill="none" stroke="#000000" points="1134.2524,-548.5 1134.2524,-567.5 1283.2524,-567.5 1283.2524,-548.5 1134.2524,-548.5"/>
<text text-anchor="middle" x="1208.7524" y="-555.5" font-family="FreeSans.ttf" font-size="10.00" fill="#000000">iDynTree/Model/LinkState.h</text>
</a>
</g>
</g>
<!-- Node0&#45;&gt;Node46 -->
<g id="edge105" class="edge">
<title>Node0&#45;&gt;Node46</title>
<path fill="none" stroke="#191970" d="M1134.9678,-738.4029C1118.6118,-713.9792 1080.3869,-648.2708 1108.7524,-604 1118.7993,-588.3194 1135.6885,-577.9113 1152.7545,-571.0336"/>
<polygon fill="#191970" stroke="#191970" points="1154.0284,-574.2945 1162.2115,-567.5649 1151.6178,-567.7226 1154.0284,-574.2945"/>
</g>
<!-- Node47 -->
<g id="node43" class="node">
<title>Node47</title>
<g id="a_node43"><a xlink:href="ArticulatedBodyInertia_8h.html" target="_top" xlink:title="iDynTree/Core/Articulated\lBodyInertia.h">
<polygon fill="none" stroke="#000000" points="1348.2524,-280.5 1348.2524,-310.5 1489.2524,-310.5 1489.2524,-280.5 1348.2524,-280.5"/>
<text text-anchor="start" x="1356.2524" y="-298.5" font-family="FreeSans.ttf" font-size="10.00" fill="#000000">iDynTree/Core/Articulated</text>
<text text-anchor="middle" x="1418.7524" y="-287.5" font-family="FreeSans.ttf" font-size="10.00" fill="#000000">BodyInertia.h</text>
</a>
</g>
</g>
<!-- Node0&#45;&gt;Node47 -->
<g id="edge107" class="edge">
<title>Node0&#45;&gt;Node47</title>
<path fill="none" stroke="#191970" d="M1185.0355,-747.2667C1362.1516,-744.083 2023.9379,-730.3263 2057.7524,-702 2086.5959,-677.8379 2076.7524,-657.1265 2076.7524,-619.5 2076.7524,-619.5 2076.7524,-619.5 2076.7524,-558 2076.7524,-457.6185 1993.3395,-457.2483 1902.7524,-414 1769.3475,-350.3095 1598.3869,-318.8473 1499.4482,-304.9663"/>
<polygon fill="#191970" stroke="#191970" points="1499.8979,-301.4953 1489.5138,-303.5978 1498.9426,-308.4298 1499.8979,-301.4953"/>
</g>
<!-- Node48 -->
<g id="node44" class="node">
<title>Node48</title>
<g id="a_node44"><a xlink:href="JointState_8h.html" target="_top" xlink:title="iDynTree/Model/JointState.h">
<polygon fill="none" stroke="#000000" points="479.2524,-548.5 479.2524,-567.5 630.2524,-567.5 630.2524,-548.5 479.2524,-548.5"/>
<text text-anchor="middle" x="554.7524" y="-555.5" font-family="FreeSans.ttf" font-size="10.00" fill="#000000">iDynTree/Model/JointState.h</text>
</a>
</g>
</g>
<!-- Node0&#45;&gt;Node48 -->
<g id="edge106" class="edge">
<title>Node0&#45;&gt;Node48</title>
<path fill="none" stroke="#191970" d="M1098.4685,-739.5875C1058.077,-731.351 996.3155,-717.766 943.7524,-702 808.9251,-661.5593 653.206,-598.924 587.1015,-571.5635"/>
<polygon fill="#191970" stroke="#191970" points="588.2223,-568.2391 577.6446,-567.6365 585.5378,-574.7039 588.2223,-568.2391"/>
</g>
<!-- Node49 -->
<g id="node45" class="node">
<title>Node49</title>
<g id="a_node45"><a xlink:href="FreeFloatingMatrices_8h.html" target="_top" xlink:title="iDynTree/Model/FreeFloating\lMatrices.h">
<polygon fill="none" stroke="#000000" points="1894.7524,-671.5 1894.7524,-701.5 2048.7524,-701.5 2048.7524,-671.5 1894.7524,-671.5"/>
<text text-anchor="start" x="1902.7524" y="-689.5" font-family="FreeSans.ttf" font-size="10.00" fill="#000000">iDynTree/Model/FreeFloating</text>
<text text-anchor="middle" x="1971.7524" y="-678.5" font-family="FreeSans.ttf" font-size="10.00" fill="#000000">Matrices.h</text>
</a>
</g>
</g>
<!-- Node0&#45;&gt;Node49 -->
<g id="edge102" class="edge">
<title>Node0&#45;&gt;Node49</title>
<path fill="none" stroke="#191970" d="M1184.7941,-746.9234C1298.7095,-743.7276 1617.3889,-732.538 1880.7524,-702 1881.8667,-701.8708 1882.9882,-701.737 1884.1155,-701.5991"/>
<polygon fill="#191970" stroke="#191970" points="1884.9262,-705.023 1894.3872,-700.2543 1884.0175,-698.0822 1884.9262,-705.023"/>
</g>
<!-- Node51 -->
<g id="node47" class="node">
<title>Node51</title>
<g id="a_node47"><a xlink:href="EigenHelpers_8h.html" target="_top" xlink:title="iDynTree/Core/EigenHelpers.h">
<polygon fill="none" stroke="#000000" points="366.2524,-487 366.2524,-506 527.2524,-506 527.2524,-487 366.2524,-487"/>
<text text-anchor="middle" x="446.7524" y="-494" font-family="FreeSans.ttf" font-size="10.00" fill="#000000">iDynTree/Core/EigenHelpers.h</text>
</a>
</g>
</g>
<!-- Node0&#45;&gt;Node51 -->
<g id="edge110" class="edge">
<title>Node0&#45;&gt;Node51</title>
<path fill="none" stroke="#191970" d="M1098.4017,-743.7623C1040.6015,-737.5362 935.3973,-724.1872 847.7524,-702 674.9592,-658.2576 593.9202,-695.8797 469.7524,-568 456.3029,-554.1485 450.7172,-532.402 448.398,-516.5265"/>
<polygon fill="#191970" stroke="#191970" points="451.8311,-515.7402 447.2207,-506.2011 444.8761,-516.5332 451.8311,-515.7402"/>
</g>
<!-- Node53 -->
<g id="node49" class="node">
<title>Node53</title>
<g id="a_node49"><a xlink:href="Dynamics_8h.html" target="_top" xlink:title="iDynTree/Model/Dynamics.h">
<polygon fill="none" stroke="#000000" points="1117.7524,-610 1117.7524,-629 1269.7524,-629 1269.7524,-610 1117.7524,-610"/>
<text text-anchor="middle" x="1193.7524" y="-617" font-family="FreeSans.ttf" font-size="10.00" fill="#000000">iDynTree/Model/Dynamics.h</text>
</a>
</g>
</g>
<!-- Node0&#45;&gt;Node53 -->
<g id="edge120" class="edge">
<title>Node0&#45;&gt;Node53</title>
<path fill="none" stroke="#191970" d="M1145.6608,-738.3416C1154.2059,-717.2254 1174.6866,-666.6144 1185.969,-638.7341"/>
<polygon fill="#191970" stroke="#191970" points="1189.2917,-639.8532 1189.7986,-629.2705 1182.8029,-637.2273 1189.2917,-639.8532"/>
</g>
<!-- Node54 -->
<g id="node50" class="node">
<title>Node54</title>
<polygon fill="none" stroke="#bfbfbf" points="2105.2524,-677 2105.2524,-696 2174.2524,-696 2174.2524,-677 2105.2524,-677"/>
<text text-anchor="middle" x="2139.7524" y="-684" font-family="FreeSans.ttf" font-size="10.00" fill="#000000">Eigen/Core</text>
</g>
<!-- Node0&#45;&gt;Node54 -->
<g id="edge125" class="edge">
<title>Node0&#45;&gt;Node54</title>
<path fill="none" stroke="#191970" d="M1184.9036,-747.3839C1346.1541,-744.8526 1913.1694,-733.838 2090.7524,-702 2095.1696,-701.208 2099.7426,-700.129 2104.2396,-698.9062"/>
<polygon fill="#191970" stroke="#191970" points="2105.2773,-702.2492 2113.873,-696.0553 2103.2909,-695.5369 2105.2773,-702.2492"/>
</g>
<!-- Node2 -->
<g id="node3" class="node">
<title>Node2</title>
<g id="a_node3"><a xlink:href="IJoint_8h.html" target="_top" xlink:title="iDynTree/Model/IJoint.h">
<polygon fill="none" stroke="#000000" points="1710.7524,-610 1710.7524,-629 1838.7524,-629 1838.7524,-610 1710.7524,-610"/>
<text text-anchor="middle" x="1774.7524" y="-617" font-family="FreeSans.ttf" font-size="10.00" fill="#000000">iDynTree/Model/IJoint.h</text>
</a>
</g>
</g>
<!-- Node1&#45;&gt;Node2 -->
<g id="edge2" class="edge">
<title>Node1&#45;&gt;Node2</title>
<path fill="none" stroke="#191970" d="M1536.2878,-676.9717C1585.8592,-665.0246 1670.8731,-644.5357 1724.8679,-631.5225"/>
<polygon fill="#191970" stroke="#191970" points="1726.0017,-634.8496 1734.9033,-629.1039 1724.3616,-628.0444 1726.0017,-634.8496"/>
</g>
<!-- Node3 -->
<g id="node4" class="node">
<title>Node3</title>
<g id="a_node4"><a xlink:href="Indices_8h.html" target="_top" xlink:title="iDynTree/Model/Indices.h">
<polygon fill="none" stroke="#000000" points="1817.7524,-487 1817.7524,-506 1955.7524,-506 1955.7524,-487 1817.7524,-487"/>
<text text-anchor="middle" x="1886.7524" y="-494" font-family="FreeSans.ttf" font-size="10.00" fill="#000000">iDynTree/Model/Indices.h</text>
</a>
</g>
</g>
<!-- Node1&#45;&gt;Node3 -->
<g id="edge68" class="edge">
<title>Node1&#45;&gt;Node3</title>
<path fill="none" stroke="#191970" d="M1516.3258,-676.9382C1552.2263,-659.7856 1631.385,-623.7405 1701.7524,-604 1748.8168,-590.7968 1887.1428,-605.2856 1918.7524,-568 1932.3823,-551.9226 1917.7803,-529.1059 1904.1344,-513.6026"/>
<polygon fill="#191970" stroke="#191970" points="1906.629,-511.1459 1897.2402,-506.2365 1901.5182,-515.9292 1906.629,-511.1459"/>
</g>
<!-- Node6 -->
<g id="node7" class="node">
<title>Node6</title>
<g id="a_node7"><a xlink:href="Link_8h.html" target="_top" xlink:title="iDynTree/Model/Link.h">
<polygon fill="none" stroke="#000000" points="1287.7524,-610 1287.7524,-629 1411.7524,-629 1411.7524,-610 1287.7524,-610"/>
<text text-anchor="middle" x="1349.7524" y="-617" font-family="FreeSans.ttf" font-size="10.00" fill="#000000">iDynTree/Model/Link.h</text>
</a>
</g>
</g>
<!-- Node1&#45;&gt;Node6 -->
<g id="edge6" class="edge">
<title>Node1&#45;&gt;Node6</title>
<path fill="none" stroke="#191970" d="M1475.6909,-676.9005C1450.5843,-665.4574 1408.4447,-646.2509 1379.8926,-633.2374"/>
<polygon fill="#191970" stroke="#191970" points="1381.3259,-630.0443 1370.7748,-629.0817 1378.4227,-636.4139 1381.3259,-630.0443"/>
</g>
<!-- Node39 -->
<g id="node35" class="node">
<title>Node39</title>
<g id="a_node35"><a xlink:href="Transform_8h.html" target="_top" xlink:title="iDynTree/Core/Transform.h">
<polygon fill="none" stroke="#000000" points="1186.7524,-420 1186.7524,-439 1332.7524,-439 1332.7524,-420 1186.7524,-420"/>
<text text-anchor="middle" x="1259.7524" y="-427" font-family="FreeSans.ttf" font-size="10.00" fill="#000000">iDynTree/Core/Transform.h</text>
</a>
</g>
</g>
<!-- Node1&#45;&gt;Node39 -->
<g id="edge63" class="edge">
<title>Node1&#45;&gt;Node39</title>
<path fill="none" stroke="#191970" d="M1492.846,-676.8523C1485.9764,-660.6392 1470.5629,-627.4082 1450.7524,-604 1434.2064,-584.4493 1416.8474,-591.0846 1405.7524,-568 1388.7215,-532.5652 1444.9623,-512.7329 1421.7524,-481 1409.4796,-464.2205 1361.6516,-450.3121 1321.1193,-441.1966"/>
<polygon fill="#191970" stroke="#191970" points="1321.7832,-437.7591 1311.2661,-439.0406 1320.2869,-444.5973 1321.7832,-437.7591"/>
</g>
<!-- Node40 -->
<g id="node36" class="node">
<title>Node40</title>
<g id="a_node36"><a xlink:href="SolidShapes_8h.html" target="_top" xlink:title="iDynTree/Model/SolidShapes.h">
<polygon fill="none" stroke="#000000" points="1415.2524,-548.5 1415.2524,-567.5 1578.2524,-567.5 1578.2524,-548.5 1415.2524,-548.5"/>
<text text-anchor="middle" x="1496.7524" y="-555.5" font-family="FreeSans.ttf" font-size="10.00" fill="#000000">iDynTree/Model/SolidShapes.h</text>
</a>
</g>
</g>
<!-- Node1&#45;&gt;Node40 -->
<g id="edge69" class="edge">
<title>Node1&#45;&gt;Node40</title>
<path fill="none" stroke="#191970" d="M1496.7524,-676.8416C1496.7524,-655.9114 1496.7524,-606.004 1496.7524,-577.9762"/>
<polygon fill="#191970" stroke="#191970" points="1500.2525,-577.7704 1496.7524,-567.7705 1493.2525,-577.7705 1500.2525,-577.7704"/>
</g>
<!-- Node41 -->
<g id="node37" class="node">
<title>Node41</title>
<polygon fill="none" stroke="#bfbfbf" points="1546.2524,-487 1546.2524,-506 1595.2524,-506 1595.2524,-487 1546.2524,-487"/>
<text text-anchor="middle" x="1570.7524" y="-494" font-family="FreeSans.ttf" font-size="10.00" fill="#000000">cstdlib</text>
</g>
<!-- Node1&#45;&gt;Node41 -->
<g id="edge74" class="edge">
<title>Node1&#45;&gt;Node41</title>
<path fill="none" stroke="#191970" d="M1507.8472,-676.7984C1528.2137,-658.1602 1570.925,-615.0079 1586.7524,-568 1592.5662,-550.7328 1586.8654,-530.4048 1580.7151,-515.8466"/>
<polygon fill="#191970" stroke="#191970" points="1583.7078,-513.9817 1576.3155,-506.392 1577.3613,-516.9351 1583.7078,-513.9817"/>
</g>
<!-- Node42 -->
<g id="node38" class="node">
<title>Node42</title>
<polygon fill="none" stroke="#bfbfbf" points="1366.2524,-487 1366.2524,-506 1413.2524,-506 1413.2524,-487 1366.2524,-487"/>
<text text-anchor="middle" x="1389.7524" y="-494" font-family="FreeSans.ttf" font-size="10.00" fill="#000000">vector</text>
</g>
<!-- Node1&#45;&gt;Node42 -->
<g id="edge75" class="edge">
<title>Node1&#45;&gt;Node42</title>
<path fill="none" stroke="#191970" d="M1488.8403,-676.8162C1475.5678,-660.8339 1447.6242,-628.2883 1420.7524,-604 1400.9692,-586.1188 1384.6781,-591.8514 1372.7524,-568 1364.327,-551.1492 1371.2763,-529.9504 1378.6676,-515.0252"/>
<polygon fill="#191970" stroke="#191970" points="1381.7454,-516.6918 1383.4314,-506.2319 1375.5905,-513.3573 1381.7454,-516.6918"/>
</g>
<!-- Node2&#45;&gt;Node3 -->
<g id="edge3" class="edge">
<title>Node2&#45;&gt;Node3</title>
<path fill="none" stroke="#191970" d="M1838.8055,-611.7382C1891.379,-603.8952 1959.8202,-589.7906 1976.7524,-568 1995.7272,-543.5805 1958.7494,-522.5247 1926.6071,-509.7087"/>
<polygon fill="#191970" stroke="#191970" points="1927.4455,-506.2831 1916.8545,-506.0012 1924.9581,-512.8262 1927.4455,-506.2831"/>
</g>
<!-- Node4 -->
<g id="node5" class="node">
<title>Node4</title>
<polygon fill="none" stroke="#bfbfbf" points="1263.7524,-56.5 1263.7524,-75.5 1307.7524,-75.5 1307.7524,-56.5 1263.7524,-56.5"/>
<text text-anchor="middle" x="1285.7524" y="-63.5" font-family="FreeSans.ttf" font-size="10.00" fill="#000000">string</text>
</g>
<!-- Node3&#45;&gt;Node4 -->
<g id="edge4" class="edge">
<title>Node3&#45;&gt;Node4</title>
<path fill="none" stroke="#191970" d="M1891.0441,-486.9723C1900.3901,-465.3259 1921.7524,-410.5887 1921.7524,-362.5 1921.7524,-362.5 1921.7524,-362.5 1921.7524,-178 1921.7524,-165.7064 2124.584,-200.2108 1751.7524,-112 1668.8047,-92.3748 1409.073,-74.036 1317.8312,-68.0441"/>
<polygon fill="#191970" stroke="#191970" points="1318.0136,-64.5487 1307.8072,-67.3911 1317.5585,-71.5339 1318.0136,-64.5487"/>
</g>
<!-- Node5 -->
<g id="node6" class="node">
<title>Node5</title>
<polygon fill="none" stroke="#bfbfbf" points="1807.7524,-420 1807.7524,-439 1893.7524,-439 1893.7524,-420 1807.7524,-420"/>
<text text-anchor="middle" x="1850.7524" y="-427" font-family="FreeSans.ttf" font-size="10.00" fill="#000000">ModelExport.h</text>
</g>
<!-- Node3&#45;&gt;Node5 -->
<g id="edge5" class="edge">
<title>Node3&#45;&gt;Node5</title>
<path fill="none" stroke="#191970" d="M1881.5945,-486.9005C1876.1944,-476.8505 1867.5769,-460.8122 1860.8218,-448.2403"/>
<polygon fill="#191970" stroke="#191970" points="1863.7171,-446.234 1855.9007,-439.0817 1857.5508,-449.5472 1863.7171,-446.234"/>
</g>
<!-- Node6&#45;&gt;Node3 -->
<g id="edge62" class="edge">
<title>Node6&#45;&gt;Node3</title>
<path fill="none" stroke="#191970" d="M1411.8217,-615.924C1552.4467,-607.5236 1884.4565,-585.89 1900.7524,-568 1913.7314,-553.7513 1906.2999,-531.1336 1898.1569,-515.1577"/>
<polygon fill="#191970" stroke="#191970" points="1901.0936,-513.2372 1893.1709,-506.2029 1894.9777,-516.6425 1901.0936,-513.2372"/>
</g>
<!-- Node6&#45;&gt;Node7 -->
<g id="edge7" class="edge">
<title>Node6&#45;&gt;Node7</title>
<path fill="none" stroke="#191970" d="M1309.7169,-609.9879C1299.6489,-607.8091 1288.8377,-605.6511 1278.7524,-604 1166.9394,-585.6949 1037.0778,-572.6786 952.1415,-565.2658"/>
<polygon fill="#191970" stroke="#191970" points="952.2747,-561.7644 942.0103,-564.3897 951.6715,-568.7384 952.2747,-561.7644"/>
</g>
<!-- Node8 -->
<g id="node9" class="node">
<title>Node8</title>
<g id="a_node9"><a xlink:href="SpatialInertiaRaw_8h.html" target="_top" xlink:title="iDynTree/Core/SpatialInertia\lRaw.h">
<polygon fill="none" stroke="#000000" points="940.2524,-481.5 940.2524,-511.5 1093.2524,-511.5 1093.2524,-481.5 940.2524,-481.5"/>
<text text-anchor="start" x="948.2524" y="-499.5" font-family="FreeSans.ttf" font-size="10.00" fill="#000000">iDynTree/Core/SpatialInertia</text>
<text text-anchor="middle" x="1016.7524" y="-488.5" font-family="FreeSans.ttf" font-size="10.00" fill="#000000">Raw.h</text>
</a>
</g>
</g>
<!-- Node7&#45;&gt;Node8 -->
<g id="edge8" class="edge">
<title>Node7&#45;&gt;Node8</title>
<path fill="none" stroke="#191970" d="M885.1274,-548.3906C907.5108,-539.5664 941.3133,-526.2404 969.0581,-515.3026"/>
<polygon fill="#191970" stroke="#191970" points="970.571,-518.4684 978.5905,-511.5446 968.0036,-511.9561 970.571,-518.4684"/>
</g>
<!-- Node18 -->
<g id="node19" class="node">
<title>Node18</title>
<g id="a_node19"><a xlink:href="VectorFixSize_8h.html" target="_top" xlink:title="iDynTree/Core/VectorFixSize.h">
<polygon fill="none" stroke="#000000" points="351.2524,-112.5 351.2524,-131.5 512.2524,-131.5 512.2524,-112.5 351.2524,-112.5"/>
<text text-anchor="middle" x="431.7524" y="-119.5" font-family="FreeSans.ttf" font-size="10.00" fill="#000000">iDynTree/Core/VectorFixSize.h</text>
</a>
</g>
</g>
<!-- Node7&#45;&gt;Node18 -->
<g id="edge19" class="edge">
<title>Node7&#45;&gt;Node18</title>
<path fill="none" stroke="#191970" d="M779.6546,-553.8415C658.0465,-547.0556 434.4306,-532.2942 356.7524,-512 347.9219,-509.693 211.7186,-452.6574 206.7524,-445 128.1191,-323.7562 332.9002,-182.432 406.5446,-136.9219"/>
<polygon fill="#191970" stroke="#191970" points="408.5269,-139.8126 415.2419,-131.6174 404.882,-133.8364 408.5269,-139.8126"/>
</g>
<!-- Node27 -->
<g id="node23" class="node">
<title>Node27</title>
<g id="a_node23"><a xlink:href="Twist_8h.html" target="_top" xlink:title="iDynTree/Core/Twist.h">
<polygon fill="none" stroke="#000000" points="1111.7524,-487 1111.7524,-506 1233.7524,-506 1233.7524,-487 1111.7524,-487"/>
<text text-anchor="middle" x="1172.7524" y="-494" font-family="FreeSans.ttf" font-size="10.00" fill="#000000">iDynTree/Core/Twist.h</text>
</a>
</g>
</g>
<!-- Node7&#45;&gt;Node27 -->
<g id="edge30" class="edge">
<title>Node7&#45;&gt;Node27</title>
<path fill="none" stroke="#191970" d="M913.0136,-548.4353C961.882,-539.3944 1036.8599,-525.274 1101.7524,-512 1107.6122,-510.8014 1113.7364,-509.5151 1119.8263,-508.2148"/>
<polygon fill="#191970" stroke="#191970" points="1120.9507,-511.553 1129.9898,-506.0263 1119.4771,-504.7099 1120.9507,-511.553"/>
</g>
<!-- Node7&#45;&gt;Node35 -->
<g id="edge53" class="edge">
<title>Node7&#45;&gt;Node35</title>
<path fill="none" stroke="#191970" d="M779.7357,-551.5941C674.5642,-543.1557 485.3503,-527.5567 323.7524,-512 307.9961,-510.4832 291.2871,-508.7827 275.0305,-507.0788"/>
<polygon fill="#191970" stroke="#191970" points="275.2915,-503.587 264.9796,-506.019 274.5574,-510.5484 275.2915,-503.587"/>
</g>
<!-- Node37 -->
<g id="node33" class="node">
<title>Node37</title>
<g id="a_node33"><a xlink:href="SpatialAcc_8h.html" target="_top" xlink:title="iDynTree/Core/SpatialAcc.h">
<polygon fill="none" stroke="#000000" points="773.7524,-487 773.7524,-506 921.7524,-506 921.7524,-487 773.7524,-487"/>
<text text-anchor="middle" x="847.7524" y="-494" font-family="FreeSans.ttf" font-size="10.00" fill="#000000">iDynTree/Core/SpatialAcc.h</text>
</a>
</g>
</g>
<!-- Node7&#45;&gt;Node37 -->
<g id="edge58" class="edge">
<title>Node7&#45;&gt;Node37</title>
<path fill="none" stroke="#191970" d="M858.7211,-548.3906C856.9001,-539.776 854.1722,-526.8708 851.8925,-516.0858"/>
<polygon fill="#191970" stroke="#191970" points="855.3048,-515.3048 849.8123,-506.2449 848.4561,-516.7525 855.3048,-515.3048"/>
</g>
<!-- Node38 -->
<g id="node34" class="node">
<title>Node38</title>
<g id="a_node34"><a xlink:href="Wrench_8h.html" target="_top" xlink:title="iDynTree/Core/Wrench.h">
<polygon fill="none" stroke="#000000" points="622.2524,-487 622.2524,-506 755.2524,-506 755.2524,-487 622.2524,-487"/>
<text text-anchor="middle" x="688.7524" y="-494" font-family="FreeSans.ttf" font-size="10.00" fill="#000000">iDynTree/Core/Wrench.h</text>
</a>
</g>
</g>
<!-- Node7&#45;&gt;Node38 -->
<g id="edge60" class="edge">
<title>Node7&#45;&gt;Node38</title>
<path fill="none" stroke="#191970" d="M833.8774,-548.3906C804.5937,-537.92 757.5833,-521.1111 725.0387,-509.4745"/>
<polygon fill="#191970" stroke="#191970" points="726.0333,-506.1131 715.4387,-506.0419 723.6764,-512.7045 726.0333,-506.1131"/>
</g>
<!-- Node9 -->
<g id="node10" class="node">
<title>Node9</title>
<g id="a_node10"><a xlink:href="RotationalInertiaRaw_8h.html" target="_top" xlink:title="iDynTree/Core/Rotational\lInertiaRaw.h">
<polygon fill="none" stroke="#000000" points="793.2524,-347.5 793.2524,-377.5 930.2524,-377.5 930.2524,-347.5 793.2524,-347.5"/>
<text text-anchor="start" x="801.2524" y="-365.5" font-family="FreeSans.ttf" font-size="10.00" fill="#000000">iDynTree/Core/Rotational</text>
<text text-anchor="middle" x="861.7524" y="-354.5" font-family="FreeSans.ttf" font-size="10.00" fill="#000000">InertiaRaw.h</text>
</a>
</g>
</g>
<!-- Node8&#45;&gt;Node9 -->
<g id="edge9" class="edge">
<title>Node8&#45;&gt;Node9</title>
<path fill="none" stroke="#191970" d="M999.2732,-481.389C971.9462,-457.7644 918.9662,-411.9623 887.3391,-384.6202"/>
<polygon fill="#191970" stroke="#191970" points="889.2595,-381.6537 879.4055,-377.7614 884.6814,-386.9492 889.2595,-381.6537"/>
</g>
<!-- Node10 -->
<g id="node11" class="node">
<title>Node10</title>
<g id="a_node11"><a xlink:href="MatrixFixSize_8h.html" target="_top" xlink:title="iDynTree/Core/MatrixFixSize.h">
<polygon fill="none" stroke="#000000" points="717.2524,-112.5 717.2524,-131.5 878.2524,-131.5 878.2524,-112.5 717.2524,-112.5"/>
<text text-anchor="middle" x="797.7524" y="-119.5" font-family="FreeSans.ttf" font-size="10.00" fill="#000000">iDynTree/Core/MatrixFixSize.h</text>
</a>
</g>
</g>
<!-- Node9&#45;&gt;Node10 -->
<g id="edge10" class="edge">
<title>Node9&#45;&gt;Node10</title>
<path fill="none" stroke="#191970" d="M855.925,-347.3562C847.4912,-325.0114 831.7961,-281.7715 821.7524,-244 812.2705,-208.3414 804.7511,-165.9114 800.8006,-141.6496"/>
<polygon fill="#191970" stroke="#191970" points="804.2276,-140.9138 799.1986,-131.5886 797.3147,-142.0146 804.2276,-140.9138"/>
</g>
<!-- Node10&#45;&gt;Node4 -->
<g id="edge16" class="edge">
<title>Node10&#45;&gt;Node4</title>
<path fill="none" stroke="#191970" d="M878.3357,-112.7527C987.48,-100.228 1177.3608,-78.4384 1253.1499,-69.7413"/>
<polygon fill="#191970" stroke="#191970" points="1253.9451,-73.1731 1263.4808,-68.5558 1253.147,-66.2187 1253.9451,-73.1731"/>
</g>
<!-- Node11 -->
<g id="node12" class="node">
<title>Node11</title>
<g id="a_node12"><a xlink:href="Utils_8h.html" target="_top" xlink:title="iDynTree/Core/Utils.h">
<polygon fill="none" stroke="#000000" points="372.2524,-56.5 372.2524,-75.5 491.2524,-75.5 491.2524,-56.5 372.2524,-56.5"/>
<text text-anchor="middle" x="431.7524" y="-63.5" font-family="FreeSans.ttf" font-size="10.00" fill="#000000">iDynTree/Core/Utils.h</text>
</a>
</g>
</g>
<!-- Node10&#45;&gt;Node11 -->
<g id="edge11" class="edge">
<title>Node10&#45;&gt;Node11</title>
<path fill="none" stroke="#191970" d="M735.2506,-112.4369C670.2911,-102.4977 568.8662,-86.9792 501.3814,-76.6536"/>
<polygon fill="#191970" stroke="#191970" points="501.6807,-73.1588 491.2663,-75.106 500.6219,-80.0782 501.6807,-73.1588"/>
</g>
<!-- Node14 -->
<g id="node15" class="node">
<title>Node14</title>
<polygon fill="none" stroke="#bfbfbf" points="502.7524,-.5 502.7524,-19.5 554.7524,-19.5 554.7524,-.5 502.7524,-.5"/>
<text text-anchor="middle" x="528.7524" y="-7.5" font-family="FreeSans.ttf" font-size="10.00" fill="#000000">cassert</text>
</g>
<!-- Node10&#45;&gt;Node14 -->
<g id="edge14" class="edge">
<title>Node10&#45;&gt;Node14</title>
<path fill="none" stroke="#191970" d="M796.5049,-112.2105C794.0954,-97.5841 787.38,-70.2281 769.7524,-56 738.7186,-30.9511 624.1381,-17.935 564.8398,-12.7508"/>
<polygon fill="#191970" stroke="#191970" points="565.046,-9.2558 554.7866,-11.9008 564.4562,-16.2309 565.046,-9.2558"/>
</g>
<!-- Node15 -->
<g id="node16" class="node">
<title>Node15</title>
<polygon fill="none" stroke="#bfbfbf" points="552.7524,-56.5 552.7524,-75.5 602.7524,-75.5 602.7524,-56.5 552.7524,-56.5"/>
<text text-anchor="middle" x="577.7524" y="-63.5" font-family="FreeSans.ttf" font-size="10.00" fill="#000000">cstring</text>
</g>
<!-- Node10&#45;&gt;Node15 -->
<g id="edge15" class="edge">
<title>Node10&#45;&gt;Node15</title>
<path fill="none" stroke="#191970" d="M758.1943,-112.4252C720.8812,-103.3193 663.4198,-89.1043 613.7524,-76 613.4231,-75.9131 613.0922,-75.8256 612.7598,-75.7375"/>
<polygon fill="#191970" stroke="#191970" points="613.4735,-72.3049 602.9068,-73.077 611.6486,-79.0629 613.4735,-72.3049"/>
</g>
<!-- Node16 -->
<g id="node17" class="node">
<title>Node16</title>
<polygon fill="none" stroke="#bfbfbf" points="700.7524,-56.5 700.7524,-75.5 760.7524,-75.5 760.7524,-56.5 700.7524,-56.5"/>
<text text-anchor="middle" x="730.7524" y="-63.5" font-family="FreeSans.ttf" font-size="10.00" fill="#000000">iostream</text>
</g>
<!-- Node10&#45;&gt;Node16 -->
<g id="edge17" class="edge">
<title>Node10&#45;&gt;Node16</title>
<path fill="none" stroke="#191970" d="M786.0819,-112.2455C776.1863,-103.9746 761.7897,-91.9416 750.1623,-82.2232"/>
<polygon fill="#191970" stroke="#191970" points="752.2066,-79.3703 742.2892,-75.6427 747.7174,-84.7413 752.2066,-79.3703"/>
</g>
<!-- Node17 -->
<g id="node18" class="node">
<title>Node17</title>
<polygon fill="none" stroke="#bfbfbf" points="622.7524,-56.5 622.7524,-75.5 678.7524,-75.5 678.7524,-56.5 622.7524,-56.5"/>
<text text-anchor="middle" x="650.7524" y="-63.5" font-family="FreeSans.ttf" font-size="10.00" fill="#000000">sstream</text>
</g>
<!-- Node10&#45;&gt;Node17 -->
<g id="edge18" class="edge">
<title>Node10&#45;&gt;Node17</title>
<path fill="none" stroke="#191970" d="M772.4822,-112.3733C748.3558,-103.1822 711.8162,-89.2624 685.0647,-79.0713"/>
<polygon fill="#191970" stroke="#191970" points="686.2837,-75.7904 675.6928,-75.5011 683.7917,-82.3318 686.2837,-75.7904"/>
</g>
<!-- Node12 -->
<g id="node13" class="node">
<title>Node12</title>
<polygon fill="none" stroke="#bfbfbf" points="333.2524,-.5 333.2524,-19.5 386.2524,-19.5 386.2524,-.5 333.2524,-.5"/>
<text text-anchor="middle" x="359.7524" y="-7.5" font-family="FreeSans.ttf" font-size="10.00" fill="#000000">cstddef</text>
</g>
<!-- Node11&#45;&gt;Node12 -->
<g id="edge12" class="edge">
<title>Node11&#45;&gt;Node12</title>
<path fill="none" stroke="#191970" d="M419.2109,-56.2455C408.4737,-47.8943 392.805,-35.7076 380.2477,-25.9408"/>
<polygon fill="#191970" stroke="#191970" points="382.1925,-23.0194 372.1501,-19.6427 377.8948,-28.5449 382.1925,-23.0194"/>
</g>
<!-- Node13 -->
<g id="node14" class="node">
<title>Node13</title>
<polygon fill="none" stroke="#bfbfbf" points="404.7524,-.5 404.7524,-19.5 484.7524,-19.5 484.7524,-.5 404.7524,-.5"/>
<text text-anchor="middle" x="444.7524" y="-7.5" font-family="FreeSans.ttf" font-size="10.00" fill="#000000">CoreExport.h</text>
</g>
<!-- Node11&#45;&gt;Node13 -->
<g id="edge13" class="edge">
<title>Node11&#45;&gt;Node13</title>
<path fill="none" stroke="#191970" d="M434.0168,-56.2455C435.7318,-48.8579 438.1435,-38.4689 440.2468,-29.4087"/>
<polygon fill="#191970" stroke="#191970" points="443.6619,-30.1751 442.5139,-19.6427 436.8432,-28.5922 443.6619,-30.1751"/>
</g>
<!-- Node18&#45;&gt;Node4 -->
<g id="edge26" class="edge">
<title>Node18&#45;&gt;Node4</title>
<path fill="none" stroke="#191970" d="M512.4792,-116.7064C694.5052,-104.7703 1130.5995,-76.174 1253.1964,-68.1348"/>
<polygon fill="#191970" stroke="#191970" points="1253.6749,-71.6111 1263.4244,-67.4641 1253.2168,-64.6261 1253.6749,-71.6111"/>
</g>
<!-- Node18&#45;&gt;Node11 -->
<g id="edge20" class="edge">
<title>Node18&#45;&gt;Node11</title>
<path fill="none" stroke="#191970" d="M431.7524,-112.2455C431.7524,-104.9382 431.7524,-94.6944 431.7524,-85.7046"/>
<polygon fill="#191970" stroke="#191970" points="435.2525,-85.6426 431.7524,-75.6427 428.2525,-85.6427 435.2525,-85.6426"/>
</g>
<!-- Node18&#45;&gt;Node14 -->
<g id="edge28" class="edge">
<title>Node18&#45;&gt;Node14</title>
<path fill="none" stroke="#191970" d="M451.8632,-112.3418C466.7359,-104.3478 486.6086,-91.7636 499.7524,-76 511.1212,-62.3652 518.7946,-43.5778 523.3775,-29.5335"/>
<polygon fill="#191970" stroke="#191970" points="526.7517,-30.467 526.2897,-19.8822 520.0501,-28.4448 526.7517,-30.467"/>
</g>
<!-- Node18&#45;&gt;Node15 -->
<g id="edge29" class="edge">
<title>Node18&#45;&gt;Node15</title>
<path fill="none" stroke="#191970" d="M456.8507,-112.3733C480.7079,-103.2226 516.7859,-89.3844 543.3234,-79.2057"/>
<polygon fill="#191970" stroke="#191970" points="544.8983,-82.3503 552.9816,-75.5011 542.3914,-75.8145 544.8983,-82.3503"/>
</g>
<!-- Node18&#45;&gt;Node17 -->
<g id="edge27" class="edge">
<title>Node18&#45;&gt;Node17</title>
<path fill="none" stroke="#191970" d="M468.9863,-112.4939C505.3879,-103.1982 562.3824,-88.6379 611.7524,-76 612.0825,-75.9155 612.4142,-75.8306 612.7472,-75.7453"/>
<polygon fill="#191970" stroke="#191970" points="613.8154,-79.0848 622.634,-73.2127 612.0783,-72.3037 613.8154,-79.0848"/>
</g>
<!-- Node19 -->
<g id="node20" class="node">
<title>Node19</title>
<g id="a_node20"><a xlink:href="Span_8h.html" target="_top" xlink:title="iDynTree/Core/Span.h">
<polygon fill="none" stroke="#ff0000" points="233.2524,-56.5 233.2524,-75.5 354.2524,-75.5 354.2524,-56.5 233.2524,-56.5"/>
<text text-anchor="middle" x="293.7524" y="-63.5" font-family="FreeSans.ttf" font-size="10.00" fill="#000000">iDynTree/Core/Span.h</text>
</a>
</g>
</g>
<!-- Node18&#45;&gt;Node19 -->
<g id="edge21" class="edge">
<title>Node18&#45;&gt;Node19</title>
<path fill="none" stroke="#191970" d="M408.0293,-112.3733C385.5787,-103.2629 351.6785,-89.5062 326.6269,-79.3404"/>
<polygon fill="#191970" stroke="#191970" points="327.7481,-76.0182 317.1659,-75.5011 325.1159,-82.5045 327.7481,-76.0182"/>
</g>
<!-- Node19&#45;&gt;Node12 -->
<g id="edge25" class="edge">
<title>Node19&#45;&gt;Node12</title>
<path fill="none" stroke="#191970" d="M305.2487,-56.2455C314.9966,-47.9746 329.1783,-35.9416 340.6322,-26.2232"/>
<polygon fill="#191970" stroke="#191970" points="343.0271,-28.7813 348.3878,-19.6427 338.4983,-23.4437 343.0271,-28.7813"/>
</g>
<!-- Node19&#45;&gt;Node14 -->
<g id="edge22" class="edge">
<title>Node19&#45;&gt;Node14</title>
<path fill="none" stroke="#191970" d="M338.3978,-56.4317C376.8936,-48.0242 434.1827,-35.1392 492.6472,-20.1973"/>
<polygon fill="#191970" stroke="#191970" points="493.6068,-23.5645 502.4193,-17.6831 491.8626,-16.7852 493.6068,-23.5645"/>
</g>
<!-- Node20 -->
<g id="node21" class="node">
<title>Node20</title>
<polygon fill="none" stroke="#bfbfbf" points="190.7524,-.5 190.7524,-19.5 254.7524,-19.5 254.7524,-.5 190.7524,-.5"/>
<text text-anchor="middle" x="222.7524" y="-7.5" font-family="FreeSans.ttf" font-size="10.00" fill="#000000">algorithm</text>
</g>
<!-- Node19&#45;&gt;Node20 -->
<g id="edge23" class="edge">
<title>Node19&#45;&gt;Node20</title>
<path fill="none" stroke="#191970" d="M281.3851,-56.2455C270.797,-47.8943 255.346,-35.7076 242.9631,-25.9408"/>
<polygon fill="#191970" stroke="#191970" points="244.9971,-23.0875 234.9779,-19.6427 240.6621,-28.5837 244.9971,-23.0875"/>
</g>
<!-- Node21 -->
<g id="node22" class="node">
<title>Node21</title>
<polygon fill="none" stroke="#bfbfbf" points="272.7524,-.5 272.7524,-19.5 314.7524,-19.5 314.7524,-.5 272.7524,-.5"/>
<text text-anchor="middle" x="293.7524" y="-7.5" font-family="FreeSans.ttf" font-size="10.00" fill="#000000">array</text>
</g>
<!-- Node19&#45;&gt;Node21 -->
<g id="edge24" class="edge">
<title>Node19&#45;&gt;Node21</title>
<path fill="none" stroke="#191970" d="M293.7524,-56.2455C293.7524,-48.9382 293.7524,-38.6944 293.7524,-29.7046"/>
<polygon fill="#191970" stroke="#191970" points="297.2525,-29.6426 293.7524,-19.6427 290.2525,-29.6427 297.2525,-29.6426"/>
</g>
<!-- Node28 -->
<g id="node24" class="node">
<title>Node28</title>
<g id="a_node24"><a xlink:href="SpatialMotionVector_8h.html" target="_top" xlink:title="iDynTree/Core/SpatialMotion\lVector.h">
<polygon fill="none" stroke="#000000" points="695.2524,-414.5 695.2524,-444.5 850.2524,-444.5 850.2524,-414.5 695.2524,-414.5"/>
<text text-anchor="start" x="703.2524" y="-432.5" font-family="FreeSans.ttf" font-size="10.00" fill="#000000">iDynTree/Core/SpatialMotion</text>
<text text-anchor="middle" x="772.7524" y="-421.5" font-family="FreeSans.ttf" font-size="10.00" fill="#000000">Vector.h</text>
</a>
</g>
</g>
<!-- Node27&#45;&gt;Node28 -->
<g id="edge31" class="edge">
<title>Node27&#45;&gt;Node28</title>
<path fill="none" stroke="#191970" d="M1131.1639,-486.9858C1121.5292,-484.9027 1111.3013,-482.788 1101.7524,-481 1020.2701,-465.7425 926.8502,-451.4199 860.4287,-441.7716"/>
<polygon fill="#191970" stroke="#191970" points="860.8164,-438.2913 850.4182,-440.3232 859.814,-445.2192 860.8164,-438.2913"/>
</g>
<!-- Node28&#45;&gt;Node18 -->
<g id="edge32" class="edge">
<title>Node28&#45;&gt;Node18</title>
<path fill="none" stroke="#191970" d="M695.1759,-415.6782C639.4668,-405.0873 569.655,-390.2593 542.7524,-378 486.4937,-352.3634 430.7524,-357.3245 430.7524,-295.5 430.7524,-295.5 430.7524,-295.5 430.7524,-234 430.7524,-201.7103 431.1731,-164.1863 431.4688,-141.8043"/>
<polygon fill="#191970" stroke="#191970" points="434.9713,-141.6353 431.6091,-131.5881 427.972,-141.5391 434.9713,-141.6353"/>
</g>
<!-- Node29 -->
<g id="node25" class="node">
<title>Node29</title>
<g id="a_node25"><a xlink:href="GeomVector3_8h.html" target="_top" xlink:title="iDynTree/Core/GeomVector3.h">
<polygon fill="none" stroke="#000000" points="459.2524,-168.5 459.2524,-187.5 622.2524,-187.5 622.2524,-168.5 459.2524,-168.5"/>
<text text-anchor="middle" x="540.7524" y="-175.5" font-family="FreeSans.ttf" font-size="10.00" fill="#000000">iDynTree/Core/GeomVector3.h</text>
</a>
</g>
</g>
<!-- Node28&#45;&gt;Node29 -->
<g id="edge33" class="edge">
<title>Node28&#45;&gt;Node29</title>
<path fill="none" stroke="#191970" d="M695.2411,-414.7235C639.9058,-403.4422 573.7287,-388.1573 564.7524,-378 519.5497,-326.8503 529.3256,-237.4295 536.5202,-197.8345"/>
<polygon fill="#191970" stroke="#191970" points="539.9873,-198.3418 538.4766,-187.8552 533.118,-196.995 539.9873,-198.3418"/>
</g>
<!-- Node30 -->
<g id="node26" class="node">
<title>Node30</title>
<g id="a_node26"><a xlink:href="SpatialVector_8h.html" target="_top" xlink:title="iDynTree/Core/SpatialVector.h">
<polygon fill="none" stroke="#000000" points="574.2524,-353 574.2524,-372 735.2524,-372 735.2524,-353 574.2524,-353"/>
<text text-anchor="middle" x="654.7524" y="-360" font-family="FreeSans.ttf" font-size="10.00" fill="#000000">iDynTree/Core/SpatialVector.h</text>
</a>
</g>
</g>
<!-- Node28&#45;&gt;Node30 -->
<g id="edge35" class="edge">
<title>Node28&#45;&gt;Node30</title>
<path fill="none" stroke="#191970" d="M746.2709,-414.4639C726.6504,-403.3234 700.0524,-388.2212 680.5874,-377.1691"/>
<polygon fill="#191970" stroke="#191970" points="682.0909,-373.9979 671.6667,-372.1039 678.6346,-380.0851 682.0909,-373.9979"/>
</g>
<!-- Node29&#45;&gt;Node18 -->
<g id="edge34" class="edge">
<title>Node29&#45;&gt;Node18</title>
<path fill="none" stroke="#191970" d="M521.766,-168.2455C504.5732,-159.4125 479.0286,-146.2887 459.5392,-136.2758"/>
<polygon fill="#191970" stroke="#191970" points="461.0154,-133.0993 450.5212,-131.6427 457.8165,-139.3257 461.0154,-133.0993"/>
</g>
<!-- Node30&#45;&gt;Node11 -->
<g id="edge49" class="edge">
<title>Node30&#45;&gt;Node11</title>
<path fill="none" stroke="#191970" d="M628.4768,-352.8577C564.948,-327.9236 403.7059,-254.5641 341.7524,-132 329.305,-107.3751 358.5538,-89.7239 386.9624,-78.9075"/>
<polygon fill="#191970" stroke="#191970" points="388.2622,-82.1599 396.503,-75.5012 385.9084,-75.5675 388.2622,-82.1599"/>
</g>
<!-- Node30&#45;&gt;Node16 -->
<g id="edge51" class="edge">
<title>Node30&#45;&gt;Node16</title>
<path fill="none" stroke="#191970" d="M659.1973,-352.737C668.4134,-331.5736 688.7524,-279.6919 688.7524,-234 688.7524,-234 688.7524,-234 688.7524,-178 688.7524,-143.2434 706.7043,-106.0613 719.1349,-84.4811"/>
<polygon fill="#191970" stroke="#191970" points="722.2411,-86.1065 724.3735,-75.7285 716.2347,-82.5116 722.2411,-86.1065"/>
</g>
<!-- Node30&#45;&gt;Node17 -->
<g id="edge52" class="edge">
<title>Node30&#45;&gt;Node17</title>
<path fill="none" stroke="#191970" d="M654.2458,-352.8313C653.1694,-331.427 650.7524,-278.4165 650.7524,-234 650.7524,-234 650.7524,-234 650.7524,-178 650.7524,-145.7116 650.7524,-108.1872 650.7524,-85.8048"/>
<polygon fill="#191970" stroke="#191970" points="654.2525,-85.5883 650.7524,-75.5884 647.2525,-85.5884 654.2525,-85.5883"/>
</g>
<!-- Node30&#45;&gt;Node29 -->
<g id="edge50" class="edge">
<title>Node30&#45;&gt;Node29</title>
<path fill="none" stroke="#191970" d="M648.7838,-352.8402C630.6231,-323.4487 575.8259,-234.7637 552.0086,-196.2172"/>
<polygon fill="#191970" stroke="#191970" points="554.8959,-194.2315 546.6619,-187.5641 548.9409,-197.911 554.8959,-194.2315"/>
</g>
<!-- Node31 -->
<g id="node27" class="node">
<title>Node31</title>
<g id="a_node27"><a xlink:href="Position_8h.html" target="_top" xlink:title="Position.h">
<polygon fill="none" stroke="#000000" points="1090.2524,-286 1090.2524,-305 1155.2524,-305 1155.2524,-286 1090.2524,-286"/>
<text text-anchor="middle" x="1122.7524" y="-293" font-family="FreeSans.ttf" font-size="10.00" fill="#000000">Position.h</text>
</a>
</g>
</g>
<!-- Node30&#45;&gt;Node31 -->
<g id="edge36" class="edge">
<title>Node30&#45;&gt;Node31</title>
<path fill="none" stroke="#191970" d="M721.3084,-352.9717C818.9577,-338.992 998.303,-313.3165 1080.0839,-301.6085"/>
<polygon fill="#191970" stroke="#191970" points="1080.6247,-305.0669 1090.0277,-300.1849 1079.6326,-298.1375 1080.6247,-305.0669"/>
</g>
<!-- Node33 -->
<g id="node29" class="node">
<title>Node33</title>
<g id="a_node29"><a xlink:href="Rotation_8h.html" target="_top" xlink:title="iDynTree/Core/Rotation.h">
<polygon fill="none" stroke="#000000" points="831.2524,-224.5 831.2524,-243.5 968.2524,-243.5 968.2524,-224.5 831.2524,-224.5"/>
<text text-anchor="middle" x="899.7524" y="-231.5" font-family="FreeSans.ttf" font-size="10.00" fill="#000000">iDynTree/Core/Rotation.h</text>
</a>
</g>
</g>
<!-- Node30&#45;&gt;Node33 -->
<g id="edge48" class="edge">
<title>Node30&#45;&gt;Node33</title>
<path fill="none" stroke="#191970" d="M673.1672,-352.8416C715.9267,-330.4147 822.1186,-274.7181 872.4539,-248.3178"/>
<polygon fill="#191970" stroke="#191970" points="874.2279,-251.3396 881.4581,-243.5952 870.9765,-245.1405 874.2279,-251.3396"/>
</g>
<!-- Node31&#45;&gt;Node4 -->
<g id="edge47" class="edge">
<title>Node31&#45;&gt;Node4</title>
<path fill="none" stroke="#191970" d="M1135.6805,-285.8504C1158.218,-268.4656 1205.033,-229.7847 1233.7524,-188 1256.4732,-154.9427 1272.3522,-110.3764 1280.1789,-85.2759"/>
<polygon fill="#191970" stroke="#191970" points="1283.587,-86.0964 1283.1205,-75.5118 1276.8846,-84.0771 1283.587,-86.0964"/>
</g>
<!-- Node32 -->
<g id="node28" class="node">
<title>Node32</title>
<g id="a_node28"><a xlink:href="PositionRaw_8h.html" target="_top" xlink:title="iDynTree/Core/PositionRaw.h">
<polygon fill="none" stroke="#000000" points="1044.7524,-168.5 1044.7524,-187.5 1200.7524,-187.5 1200.7524,-168.5 1044.7524,-168.5"/>
<text text-anchor="middle" x="1122.7524" y="-175.5" font-family="FreeSans.ttf" font-size="10.00" fill="#000000">iDynTree/Core/PositionRaw.h</text>
</a>
</g>
</g>
<!-- Node31&#45;&gt;Node32 -->
<g id="edge37" class="edge">
<title>Node31&#45;&gt;Node32</title>
<path fill="none" stroke="#191970" d="M1122.7524,-285.8845C1122.7524,-266.6913 1122.7524,-223.286 1122.7524,-197.7663"/>
<polygon fill="#191970" stroke="#191970" points="1126.2525,-197.7483 1122.7524,-187.7484 1119.2525,-197.7484 1126.2525,-197.7483"/>
</g>
<!-- Node31&#45;&gt;Node33 -->
<g id="edge40" class="edge">
<title>Node31&#45;&gt;Node33</title>
<path fill="none" stroke="#191970" d="M1089.848,-286.4255C1051.264,-275.7846 987.1321,-258.098 944.1623,-246.2476"/>
<polygon fill="#191970" stroke="#191970" points="944.8305,-242.8013 934.2599,-243.5166 942.9695,-249.5493 944.8305,-242.8013"/>
</g>
<!-- Node32&#45;&gt;Node4 -->
<g id="edge39" class="edge">
<title>Node32&#45;&gt;Node4</title>
<path fill="none" stroke="#191970" d="M1135.7169,-168.4037C1153.4047,-155.3795 1186.1711,-131.4946 1214.7524,-112 1230.2796,-101.4092 1248.0247,-89.9123 1261.8905,-81.0615"/>
<polygon fill="#191970" stroke="#191970" points="1263.8192,-83.9827 1270.3798,-75.6635 1260.0632,-78.0758 1263.8192,-83.9827"/>
</g>
<!-- Node32&#45;&gt;Node18 -->
<g id="edge38" class="edge">
<title>Node32&#45;&gt;Node18</title>
<path fill="none" stroke="#191970" d="M1044.5127,-168.8633C1041.556,-168.5636 1038.628,-168.2747 1035.7524,-168 853.9216,-150.6324 640.7911,-135.6569 522.5326,-127.8221"/>
<polygon fill="#191970" stroke="#191970" points="522.6463,-124.3221 512.4374,-127.1554 522.1849,-131.3069 522.6463,-124.3221"/>
</g>
<!-- Node33&#45;&gt;Node4 -->
<g id="edge41" class="edge">
<title>Node33&#45;&gt;Node4</title>
<path fill="none" stroke="#191970" d="M968.2927,-230.7758C1047.432,-225.8712 1171.6249,-214.1748 1209.7524,-188 1241.7478,-166.0349 1231.8555,-144.7031 1252.7524,-112 1258.8152,-102.5118 1266.0605,-92.3035 1272.2156,-83.9198"/>
<polygon fill="#191970" stroke="#191970" points="1275.2,-85.772 1278.3593,-75.6591 1269.5831,-81.5945 1275.2,-85.772"/>
</g>
<!-- Node33&#45;&gt;Node18 -->
<g id="edge46" class="edge">
<title>Node33&#45;&gt;Node18</title>
<path fill="none" stroke="#191970" d="M861.4818,-224.4387C809.3519,-211.4541 713.0804,-187.6141 630.7524,-168 580.8274,-156.1057 523.7458,-142.9572 483.5579,-133.7746"/>
<polygon fill="#191970" stroke="#191970" points="484.2474,-130.3421 473.7192,-131.5287 482.6895,-137.1665 484.2474,-130.3421"/>
</g>
<!-- Node33&#45;&gt;Node29 -->
<g id="edge42" class="edge">
<title>Node33&#45;&gt;Node29</title>
<path fill="none" stroke="#191970" d="M838.446,-224.4369C775.5861,-214.6314 677.914,-199.3957 611.7391,-189.0731"/>
<polygon fill="#191970" stroke="#191970" points="612.2259,-185.6068 601.8059,-187.5237 611.147,-192.5232 612.2259,-185.6068"/>
</g>
<!-- Node34 -->
<g id="node30" class="node">
<title>Node34</title>
<g id="a_node30"><a xlink:href="RotationRaw_8h.html" target="_top" xlink:title="iDynTree/Core/RotationRaw.h">
<polygon fill="none" stroke="#000000" points="868.7524,-168.5 868.7524,-187.5 1026.7524,-187.5 1026.7524,-168.5 868.7524,-168.5"/>
<text text-anchor="middle" x="947.7524" y="-175.5" font-family="FreeSans.ttf" font-size="10.00" fill="#000000">iDynTree/Core/RotationRaw.h</text>
</a>
</g>
</g>
<!-- Node33&#45;&gt;Node34 -->
<g id="edge43" class="edge">
<title>Node33&#45;&gt;Node34</title>
<path fill="none" stroke="#191970" d="M908.1133,-224.2455C914.9274,-216.2958 924.7205,-204.8706 932.8676,-195.3656"/>
<polygon fill="#191970" stroke="#191970" points="935.6367,-197.513 939.4872,-187.6427 930.3219,-192.9575 935.6367,-197.513"/>
</g>
<!-- Node34&#45;&gt;Node4 -->
<g id="edge45" class="edge">
<title>Node34&#45;&gt;Node4</title>
<path fill="none" stroke="#191970" d="M976.5701,-168.4509C1039.3065,-147.6625 1187.8796,-98.4312 1253.5661,-76.6653"/>
<polygon fill="#191970" stroke="#191970" points="1254.9794,-79.8842 1263.3709,-73.4164 1252.7775,-73.2395 1254.9794,-79.8842"/>
</g>
<!-- Node34&#45;&gt;Node10 -->
<g id="edge44" class="edge">
<title>Node34&#45;&gt;Node10</title>
<path fill="none" stroke="#191970" d="M921.9665,-168.3733C897.3477,-159.1822 860.0624,-145.2624 832.7649,-135.0713"/>
<polygon fill="#191970" stroke="#191970" points="833.7944,-131.7198 823.2018,-131.5011 831.3461,-138.2777 833.7944,-131.7198"/>
</g>
<!-- Node36 -->
<g id="node32" class="node">
<title>Node36</title>
<g id="a_node32"><a xlink:href="SpatialForceVector_8h.html" target="_top" xlink:title="iDynTree/Core/SpatialForce\lVector.h">
<polygon fill="none" stroke="#000000" points="248.7524,-414.5 248.7524,-444.5 396.7524,-444.5 396.7524,-414.5 248.7524,-414.5"/>
<text text-anchor="start" x="256.7524" y="-432.5" font-family="FreeSans.ttf" font-size="10.00" fill="#000000">iDynTree/Core/SpatialForce</text>
<text text-anchor="middle" x="322.7524" y="-421.5" font-family="FreeSans.ttf" font-size="10.00" fill="#000000">Vector.h</text>
</a>
</g>
</g>
<!-- Node35&#45;&gt;Node36 -->
<g id="edge54" class="edge">
<title>Node35&#45;&gt;Node36</title>
<path fill="none" stroke="#191970" d="M199.3841,-486.9005C220.6713,-476.9961 254.4585,-461.2756 281.2958,-448.7888"/>
<polygon fill="#191970" stroke="#191970" points="282.8766,-451.9137 290.4668,-444.5218 279.9236,-445.567 282.8766,-451.9137"/>
</g>
<!-- Node36&#45;&gt;Node18 -->
<g id="edge55" class="edge">
<title>Node36&#45;&gt;Node18</title>
<path fill="none" stroke="#191970" d="M336.9179,-414.3575C357.3721,-390.8445 392.7524,-343.2693 392.7524,-295.5 392.7524,-295.5 392.7524,-295.5 392.7524,-234 392.7524,-199.5398 409.422,-162.2666 420.9648,-140.5877"/>
<polygon fill="#191970" stroke="#191970" points="424.053,-142.2355 425.8291,-131.7906 417.9271,-138.8481 424.053,-142.2355"/>
</g>
<!-- Node36&#45;&gt;Node29 -->
<g id="edge56" class="edge">
<title>Node36&#45;&gt;Node29</title>
<path fill="none" stroke="#191970" d="M354.1141,-414.4806C370.9424,-405.4376 391.331,-392.8119 406.7524,-378 465.4401,-321.6318 512.3665,-235.3221 531.4761,-197.2172"/>
<polygon fill="#191970" stroke="#191970" points="534.83,-198.3295 536.115,-187.8129 528.5522,-195.2328 534.83,-198.3295"/>
</g>
<!-- Node36&#45;&gt;Node30 -->
<g id="edge57" class="edge">
<title>Node36&#45;&gt;Node30</title>
<path fill="none" stroke="#191970" d="M396.8464,-414.5473C457.4766,-402.3117 541.9923,-385.2558 597.5139,-374.0511"/>
<polygon fill="#191970" stroke="#191970" points="598.4213,-377.4387 607.5313,-372.0296 597.0365,-370.577 598.4213,-377.4387"/>
</g>
<!-- Node37&#45;&gt;Node28 -->
<g id="edge59" class="edge">
<title>Node37&#45;&gt;Node28</title>
<path fill="none" stroke="#191970" d="M837.0067,-486.9005C826.6459,-477.6448 810.5995,-463.3101 797.1348,-451.2816"/>
<polygon fill="#191970" stroke="#191970" points="799.3572,-448.5738 789.5678,-444.5218 794.6937,-453.7941 799.3572,-448.5738"/>
</g>
<!-- Node38&#45;&gt;Node36 -->
<g id="edge61" class="edge">
<title>Node38&#45;&gt;Node36</title>
<path fill="none" stroke="#191970" d="M636.0594,-486.986C581.325,-477.0864 492.9139,-461.0489 406.8937,-445.2062"/>
<polygon fill="#191970" stroke="#191970" points="407.4297,-441.7461 396.9609,-443.3758 406.161,-448.6302 407.4297,-441.7461"/>
</g>
<!-- Node39&#45;&gt;Node4 -->
<g id="edge67" class="edge">
<title>Node39&#45;&gt;Node4</title>
<path fill="none" stroke="#191970" d="M1262.9543,-419.9901C1273.585,-387.8491 1307.6616,-280.1292 1318.7524,-188 1322.7895,-154.4643 1329.0936,-144.1558 1318.7524,-112 1315.3578,-101.4445 1308.5466,-91.2592 1301.9893,-83.1676"/>
<polygon fill="#191970" stroke="#191970" points="1304.5955,-80.8307 1295.4016,-75.5654 1299.3054,-85.4149 1304.5955,-80.8307"/>
</g>
<!-- Node39&#45;&gt;Node10 -->
<g id="edge66" class="edge">
<title>Node39&#45;&gt;Node10</title>
<path fill="none" stroke="#191970" d="M1243.4559,-419.931C1226.3893,-409.8121 1198.8999,-393.2358 1175.7524,-378 1132.5954,-349.5939 1121.7126,-342.4911 1080.7524,-311 1032.9772,-274.2694 1029.7082,-252.7626 976.7524,-224 928.9433,-198.0329 905.9182,-216.7875 859.7524,-188 839.6464,-175.4625 821.7245,-154.8108 810.3841,-139.9451"/>
<polygon fill="#191970" stroke="#191970" points="812.9597,-137.5398 804.213,-131.561 807.3221,-141.6894 812.9597,-137.5398"/>
</g>
<!-- Node39&#45;&gt;Node31 -->
<g id="edge64" class="edge">
<title>Node39&#45;&gt;Node31</title>
<path fill="none" stroke="#191970" d="M1249.8997,-419.8631C1226.7944,-397.2638 1168.8905,-340.6278 1139.8793,-312.2519"/>
<polygon fill="#191970" stroke="#191970" points="1142.1121,-309.5399 1132.5158,-305.0496 1137.2174,-314.5441 1142.1121,-309.5399"/>
</g>
<!-- Node39&#45;&gt;Node33 -->
<g id="edge65" class="edge">
<title>Node39&#45;&gt;Node33</title>
<path fill="none" stroke="#191970" d="M1186.5752,-422.849C1115.853,-415.2064 1014.844,-400.711 982.7524,-378 938.9274,-346.9854 914.9624,-284.9863 905.1391,-253.4256"/>
<polygon fill="#191970" stroke="#191970" points="908.4356,-252.2303 902.2449,-243.6323 901.7226,-254.2143 908.4356,-252.2303"/>
</g>
<!-- Node40&#45;&gt;Node4 -->
<g id="edge71" class="edge">
<title>Node40&#45;&gt;Node4</title>
<path fill="none" stroke="#191970" d="M1499.412,-548.4157C1505.0629,-527.1797 1517.7524,-474.4839 1517.7524,-429.5 1517.7524,-429.5 1517.7524,-429.5 1517.7524,-178 1517.7524,-134.1501 1381.6417,-91.7655 1317.9291,-74.3275"/>
<polygon fill="#191970" stroke="#191970" points="1318.5638,-70.8738 1307.9975,-71.6512 1316.7424,-77.6327 1318.5638,-70.8738"/>
</g>
<!-- Node40&#45;&gt;Node39 -->
<g id="edge73" class="edge">
<title>Node40&#45;&gt;Node39</title>
<path fill="none" stroke="#191970" d="M1494.3375,-548.3265C1489.7273,-531.9106 1478.0835,-498.6639 1455.7524,-481 1435.5519,-465.0214 1374.3463,-450.4743 1325.6469,-440.9479"/>
<polygon fill="#191970" stroke="#191970" points="1326.2581,-437.5014 1315.7773,-439.0516 1324.9372,-444.3757 1326.2581,-437.5014"/>
</g>
<!-- Node40&#45;&gt;Node41 -->
<g id="edge70" class="edge">
<title>Node40&#45;&gt;Node41</title>
<path fill="none" stroke="#191970" d="M1508.3149,-548.3906C1519.7602,-538.8786 1537.4997,-524.1357 1551.1494,-512.7917"/>
<polygon fill="#191970" stroke="#191970" points="1553.5732,-515.3283 1559.0269,-506.2449 1549.099,-509.9447 1553.5732,-515.3283"/>
</g>
<!-- Node40&#45;&gt;Node42 -->
<g id="edge72" class="edge">
<title>Node40&#45;&gt;Node42</title>
<path fill="none" stroke="#191970" d="M1480.0336,-548.3906C1462.6802,-538.4165 1435.3201,-522.6908 1415.2642,-511.1633"/>
<polygon fill="#191970" stroke="#191970" points="1416.7678,-507.9907 1406.3537,-506.0419 1413.2795,-514.0596 1416.7678,-507.9907"/>
</g>
<!-- Node43&#45;&gt;Node3 -->
<g id="edge77" class="edge">
<title>Node43&#45;&gt;Node3</title>
<path fill="none" stroke="#191970" d="M1800.6899,-548.3906C1817.1575,-538.4616 1843.0782,-522.833 1862.1728,-511.3201"/>
<polygon fill="#191970" stroke="#191970" points="1864.1702,-514.2027 1870.9268,-506.0419 1860.5558,-508.2081 1864.1702,-514.2027"/>
</g>
<!-- Node43&#45;&gt;Node42 -->
<g id="edge78" class="edge">
<title>Node43&#45;&gt;Node42</title>
<path fill="none" stroke="#191970" d="M1723.467,-548.4581C1639.1335,-535.3277 1490.1939,-512.1384 1423.5905,-501.7685"/>
<polygon fill="#191970" stroke="#191970" points="1424.0499,-498.2979 1413.6305,-500.2177 1422.973,-505.2146 1424.0499,-498.2979"/>
</g>
<!-- Node44&#45;&gt;Node3 -->
<g id="edge85" class="edge">
<title>Node44&#45;&gt;Node3</title>
<path fill="none" stroke="#191970" d="M1062.0776,-609.2384C1077.5227,-607.3569 1093.6412,-605.5126 1108.7524,-604 1320.7392,-582.781 1376.2463,-600.7996 1586.7524,-568 1679.8295,-553.4974 1786.6663,-525.1581 1844.3884,-508.8505"/>
<polygon fill="#191970" stroke="#191970" points="1845.5794,-512.1507 1854.2407,-506.0489 1843.6647,-505.4176 1845.5794,-512.1507"/>
</g>
<!-- Node44&#45;&gt;Node27 -->
<g id="edge81" class="edge">
<title>Node44&#45;&gt;Node27</title>
<path fill="none" stroke="#191970" d="M1007.4518,-604.3504C1029.2679,-589.8192 1063.1905,-567.2996 1092.7524,-548 1111.5986,-535.6962 1133.0465,-521.9001 1148.9876,-511.686"/>
<polygon fill="#191970" stroke="#191970" points="1151.1406,-514.4635 1157.6758,-506.1243 1147.3666,-508.568 1151.1406,-514.4635"/>
</g>
<!-- Node44&#45;&gt;Node39 -->
<g id="edge80" class="edge">
<title>Node44&#45;&gt;Node39</title>
<path fill="none" stroke="#191970" d="M1018.815,-604.461C1040.326,-594.6699 1068.5304,-581.2885 1092.7524,-568 1107.4565,-559.9331 1109.4892,-554.9512 1124.7524,-548 1174.652,-525.2744 1205.8232,-552.5297 1242.7524,-512 1258.2497,-494.9918 1261.1189,-467.7254 1261.0288,-449.2359"/>
<polygon fill="#191970" stroke="#191970" points="1264.5194,-448.9012 1260.6767,-439.0278 1257.5236,-449.1426 1264.5194,-448.9012"/>
</g>
<!-- Node44&#45;&gt;Node42 -->
<g id="edge101" class="edge">
<title>Node44&#45;&gt;Node42</title>
<path fill="none" stroke="#191970" d="M1061.9753,-608.4377C1145.9019,-596.1155 1270.8929,-576.7765 1291.7524,-568 1323.0643,-554.8258 1353.8234,-529.8685 1372.296,-513.2064"/>
<polygon fill="#191970" stroke="#191970" points="1374.9041,-515.562 1379.8767,-506.2066 1370.1553,-510.4191 1374.9041,-515.562"/>
</g>
<!-- Node45 -->
<g id="node41" class="node">
<title>Node45</title>
<g id="a_node41"><a xlink:href="VectorDynSize_8h.html" target="_top" xlink:title="iDynTree/Core/VectorDynSize.h">
<polygon fill="none" stroke="#000000" points="510.2524,-420 510.2524,-439 677.2524,-439 677.2524,-420 510.2524,-420"/>
<text text-anchor="middle" x="593.7524" y="-427" font-family="FreeSans.ttf" font-size="10.00" fill="#000000">iDynTree/Core/VectorDynSize.h</text>
</a>
</g>
</g>
<!-- Node44&#45;&gt;Node45 -->
<g id="edge82" class="edge">
<title>Node44&#45;&gt;Node45</title>
<path fill="none" stroke="#191970" d="M907.5193,-607.0614C810.4532,-589.8209 651.7916,-555.7756 612.7524,-512 597.4411,-494.8311 593.75,-467.8178 593.1935,-449.4152"/>
<polygon fill="#191970" stroke="#191970" points="596.6933,-449.2287 593.1762,-439.2347 589.6933,-449.2407 596.6933,-449.2287"/>
</g>
<!-- Node44&#45;&gt;Node46 -->
<g id="edge86" class="edge">
<title>Node44&#45;&gt;Node46</title>
<path fill="none" stroke="#191970" d="M1039.5489,-604.4554C1077.9075,-593.9239 1128.5029,-580.0328 1164.3447,-570.1923"/>
<polygon fill="#191970" stroke="#191970" points="1165.3238,-573.5531 1174.0403,-567.5303 1163.4705,-566.8028 1165.3238,-573.5531"/>
</g>
<!-- Node44&#45;&gt;Node48 -->
<g id="edge96" class="edge">
<title>Node44&#45;&gt;Node48</title>
<path fill="none" stroke="#191970" d="M907.3804,-608.434C829.2807,-597.2639 709.3818,-580.1156 631.5042,-568.9773"/>
<polygon fill="#191970" stroke="#191970" points="631.6711,-565.4656 621.2763,-567.5145 630.68,-572.3951 631.6711,-565.4656"/>
</g>
<!-- Node45&#45;&gt;Node4 -->
<g id="edge84" class="edge">
<title>Node45&#45;&gt;Node4</title>
<path fill="none" stroke="#191970" d="M649.1759,-419.9267C661.2245,-417.9115 673.9084,-415.8401 685.7524,-414 900.4968,-380.6374 986.1581,-436.2538 1163.7524,-311 1241.6204,-256.0812 1257.0637,-224.0325 1281.7524,-132 1285.8011,-116.9074 1286.6751,-99.2042 1286.6059,-85.9341"/>
<polygon fill="#191970" stroke="#191970" points="1290.0967,-85.5041 1286.3583,-75.5907 1283.0987,-85.6716 1290.0967,-85.5041"/>
</g>
<!-- Node45&#45;&gt;Node19 -->
<g id="edge83" class="edge">
<title>Node45&#45;&gt;Node19</title>
<path fill="none" stroke="#191970" d="M546.9663,-419.9647C518.7226,-412.3486 483.3648,-399.3226 457.7524,-378 359.4162,-296.134 312.3091,-139.8579 298.348,-85.3392"/>
<polygon fill="#191970" stroke="#191970" points="301.7317,-84.4421 295.9286,-75.5778 294.9373,-86.1261 301.7317,-84.4421"/>
</g>
<!-- Node46&#45;&gt;Node3 -->
<g id="edge94" class="edge">
<title>Node46&#45;&gt;Node3</title>
<path fill="none" stroke="#191970" d="M1283.5749,-551.213C1412.4618,-539.5219 1675.2038,-515.6891 1807.2522,-503.7113"/>
<polygon fill="#191970" stroke="#191970" points="1807.6589,-507.1889 1817.3018,-502.7997 1807.0265,-500.2175 1807.6589,-507.1889"/>
</g>
<!-- Node46&#45;&gt;Node27 -->
<g id="edge88" class="edge">
<title>Node46&#45;&gt;Node27</title>
<path fill="none" stroke="#191970" d="M1203.1274,-548.3906C1197.9271,-539.5068 1190.0558,-526.0601 1183.6291,-515.0811"/>
<polygon fill="#191970" stroke="#191970" points="1186.5291,-513.1069 1178.4567,-506.2449 1180.488,-516.6432 1186.5291,-513.1069"/>
</g>
<!-- Node46&#45;&gt;Node37 -->
<g id="edge89" class="edge">
<title>Node46&#45;&gt;Node37</title>
<path fill="none" stroke="#191970" d="M1149.0394,-548.4848C1092.7024,-539.4211 1005.9115,-525.2346 930.7524,-512 923.3242,-510.692 915.5291,-509.2836 907.8146,-507.8681"/>
<polygon fill="#191970" stroke="#191970" points="908.2266,-504.3851 897.7572,-506.0109 906.9554,-511.2687 908.2266,-504.3851"/>
</g>
<!-- Node46&#45;&gt;Node38 -->
<g id="edge90" class="edge">
<title>Node46&#45;&gt;Node38</title>
<path fill="none" stroke="#191970" d="M1134.2292,-552.5221C1045.7888,-545.5038 894.0148,-531.8286 764.7524,-512 757.2559,-510.8501 749.3795,-509.4559 741.6531,-507.9806"/>
<polygon fill="#191970" stroke="#191970" points="742.1146,-504.5044 731.627,-506.0082 740.7633,-511.3727 742.1146,-504.5044"/>
</g>
<!-- Node46&#45;&gt;Node39 -->
<g id="edge87" class="edge">
<title>Node46&#45;&gt;Node39</title>
<path fill="none" stroke="#191970" d="M1233.2236,-548.3462C1248.4631,-540.9011 1266.8136,-528.9799 1275.7524,-512 1286.3196,-491.9268 1278.1484,-465.8037 1270.1026,-448.3845"/>
<polygon fill="#191970" stroke="#191970" points="1273.1321,-446.6175 1265.5225,-439.2456 1266.874,-449.7539 1273.1321,-446.6175"/>
</g>
<!-- Node46&#45;&gt;Node42 -->
<g id="edge95" class="edge">
<title>Node46&#45;&gt;Node42</title>
<path fill="none" stroke="#191970" d="M1240.7942,-548.4569C1269.932,-539.5982 1314.0151,-525.7435 1351.7524,-512 1353.6102,-511.3234 1355.5117,-510.6114 1357.4257,-509.8795"/>
<polygon fill="#191970" stroke="#191970" points="1358.9319,-513.0481 1366.9542,-506.1276 1356.3672,-506.5348 1358.9319,-513.0481"/>
</g>
<!-- Node46&#45;&gt;Node47 -->
<g id="edge91" class="edge">
<title>Node46&#45;&gt;Node47</title>
<path fill="none" stroke="#191970" d="M1232.584,-548.3573C1250.4265,-540.3715 1274.755,-527.7906 1292.7524,-512 1354.9446,-457.4336 1394.2872,-364.401 1410.3942,-320.211"/>
<polygon fill="#191970" stroke="#191970" points="1413.7698,-321.1645 1413.8199,-310.5698 1407.1738,-318.8208 1413.7698,-321.1645"/>
</g>
<!-- Node47&#45;&gt;Node4 -->
<g id="edge93" class="edge">
<title>Node47&#45;&gt;Node4</title>
<path fill="none" stroke="#191970" d="M1421.3976,-280.3386C1426.4312,-246.3669 1433.6789,-163.1254 1394.7524,-112 1376.4616,-87.9773 1343.2364,-76.3757 1318.259,-70.8513"/>
<polygon fill="#191970" stroke="#191970" points="1318.6174,-67.3541 1308.1269,-68.8373 1317.2526,-74.2198 1318.6174,-67.3541"/>
</g>
<!-- Node47&#45;&gt;Node10 -->
<g id="edge92" class="edge">
<title>Node47&#45;&gt;Node10</title>
<path fill="none" stroke="#191970" d="M1400.3028,-280.3126C1365.5123,-252.6163 1286.7686,-194.3354 1209.7524,-168 1152.2492,-148.337 991.3229,-134.5985 888.4482,-127.5248"/>
<polygon fill="#191970" stroke="#191970" points="888.5843,-124.0261 878.3701,-126.8404 888.11,-131.01 888.5843,-124.0261"/>
</g>
<!-- Node48&#45;&gt;Node18 -->
<g id="edge97" class="edge">
<title>Node48&#45;&gt;Node18</title>
<path fill="none" stroke="#191970" d="M479.109,-556.1884C351.1548,-552.3351 103.2391,-541.158 76.7524,-512 31.7017,-462.4058 -96.1334,-564.2646 130.7524,-280 196.1504,-198.063 315.7118,-153.7631 382.7852,-134.319"/>
<polygon fill="#191970" stroke="#191970" points="384.0152,-137.6085 392.6854,-131.5193 382.1103,-130.8726 384.0152,-137.6085"/>
</g>
<!-- Node48&#45;&gt;Node36 -->
<g id="edge99" class="edge">
<title>Node48&#45;&gt;Node36</title>
<path fill="none" stroke="#191970" d="M483.8045,-548.49C435.0967,-540.686 375.9177,-528.2768 356.7524,-512 339.6956,-497.514 331.0625,-473.1079 326.7775,-454.5894"/>
<polygon fill="#191970" stroke="#191970" points="330.1982,-453.8469 324.7721,-444.747 323.3391,-455.2445 330.1982,-453.8469"/>
</g>
<!-- Node48&#45;&gt;Node42 -->
<g id="edge100" class="edge">
<title>Node48&#45;&gt;Node42</title>
<path fill="none" stroke="#191970" d="M630.4153,-553.8911C757.183,-546.7941 1020.4636,-531.1434 1242.7524,-512 1281.5773,-508.6564 1326.0647,-503.8258 1355.8364,-500.4487"/>
<polygon fill="#191970" stroke="#191970" points="1356.5634,-503.8885 1366.1014,-499.2757 1355.7686,-496.9337 1356.5634,-503.8885"/>
</g>
<!-- Node48&#45;&gt;Node45 -->
<g id="edge98" class="edge">
<title>Node48&#45;&gt;Node45</title>
<path fill="none" stroke="#191970" d="M557.6837,-548.3416C564.0643,-527.3184 579.3179,-477.0598 587.8026,-449.1038"/>
<polygon fill="#191970" stroke="#191970" points="591.2319,-449.856 590.787,-439.2705 584.5336,-447.823 591.2319,-449.856"/>
</g>
<!-- Node50 -->
<g id="node46" class="node">
<title>Node50</title>
<g id="a_node46"><a xlink:href="MatrixDynSize_8h.html" target="_top" xlink:title="iDynTree/Core/MatrixDynSize.h">
<polygon fill="none" stroke="#000000" points="1610.2524,-420 1610.2524,-439 1777.2524,-439 1777.2524,-420 1610.2524,-420"/>
<text text-anchor="middle" x="1693.7524" y="-427" font-family="FreeSans.ttf" font-size="10.00" fill="#000000">iDynTree/Core/MatrixDynSize.h</text>
</a>
</g>
</g>
<!-- Node49&#45;&gt;Node50 -->
<g id="edge103" class="edge">
<title>Node49&#45;&gt;Node50</title>
<path fill="none" stroke="#191970" d="M1977.6255,-671.3039C1991.7103,-632.0175 2022.1611,-526.9563 1964.7524,-481 1956.78,-474.6181 1839.0953,-453.873 1761.4565,-440.7411"/>
<polygon fill="#191970" stroke="#191970" points="1761.6977,-437.2324 1751.2548,-439.0203 1760.5334,-444.1349 1761.6977,-437.2324"/>
</g>
<!-- Node50&#45;&gt;Node4 -->
<g id="edge104" class="edge">
<title>Node50&#45;&gt;Node4</title>
<path fill="none" stroke="#191970" d="M1735.4487,-419.903C1791.3783,-404.2724 1883.7524,-367.5506 1883.7524,-295.5 1883.7524,-295.5 1883.7524,-295.5 1883.7524,-178 1883.7524,-119.948 1442.7462,-79.005 1318.1707,-68.5975"/>
<polygon fill="#191970" stroke="#191970" points="1318.3576,-65.1011 1308.1033,-67.7656 1317.7811,-72.0773 1318.3576,-65.1011"/>
</g>
<!-- Node51&#45;&gt;Node10 -->
<g id="edge115" class="edge">
<title>Node51&#45;&gt;Node10</title>
<path fill="none" stroke="#191970" d="M527.4062,-489.16C644.2399,-478.1373 847.8993,-457.2941 858.7524,-445 905.154,-392.437 795.8563,-393.1275 783.7524,-378 760.2451,-348.6204 764.7524,-333.1265 764.7524,-295.5 764.7524,-295.5 764.7524,-295.5 764.7524,-234 764.7524,-200.051 778.8759,-162.5869 788.6435,-140.7366"/>
<polygon fill="#191970" stroke="#191970" points="791.8461,-142.1501 792.8831,-131.6061 785.4971,-139.202 791.8461,-142.1501"/>
</g>
<!-- Node51&#45;&gt;Node11 -->
<g id="edge119" class="edge">
<title>Node51&#45;&gt;Node11</title>
<path fill="none" stroke="#191970" d="M389.2207,-486.9887C326.0067,-475.9843 231.8885,-457.7476 220.7524,-445 201.0831,-422.4845 216.087,-407.8671 214.7524,-378 208.9543,-248.2505 242.608,-202.5134 335.7524,-112 350.8071,-97.3705 371.4015,-86.6673 389.6559,-79.2862"/>
<polygon fill="#191970" stroke="#191970" points="391.1366,-82.4672 399.2257,-75.625 388.6353,-75.9294 391.1366,-82.4672"/>
</g>
<!-- Node51&#45;&gt;Node18 -->
<g id="edge113" class="edge">
<title>Node51&#45;&gt;Node18</title>
<path fill="none" stroke="#191970" d="M394.6189,-486.9701C336.5138,-475.8226 249.3884,-457.3271 239.7524,-445 154.3942,-335.8032 342.9629,-185.3821 409.5734,-137.375"/>
<polygon fill="#191970" stroke="#191970" points="411.6535,-140.1906 417.7721,-131.5411 407.5951,-134.4871 411.6535,-140.1906"/>
</g>
<!-- Node51&#45;&gt;Node28 -->
<g id="edge116" class="edge">
<title>Node51&#45;&gt;Node28</title>
<path fill="none" stroke="#191970" d="M493.114,-486.9717C544.1732,-476.4779 627.2979,-459.394 689.6734,-446.5745"/>
<polygon fill="#191970" stroke="#191970" points="690.4074,-449.9969 699.498,-444.5553 688.9981,-443.1402 690.4074,-449.9969"/>
</g>
<!-- Node51&#45;&gt;Node36 -->
<g id="edge117" class="edge">
<title>Node51&#45;&gt;Node36</title>
<path fill="none" stroke="#191970" d="M428.9862,-486.9005C410.8957,-477.1258 382.3215,-461.6865 359.3624,-449.2812"/>
<polygon fill="#191970" stroke="#191970" points="361.0155,-446.1962 350.5539,-444.5218 357.6879,-452.3548 361.0155,-446.1962"/>
</g>
<!-- Node51&#45;&gt;Node39 -->
<g id="edge118" class="edge">
<title>Node51&#45;&gt;Node39</title>
<path fill="none" stroke="#191970" d="M527.3653,-488.7496C554.4887,-486.2013 584.9245,-483.4066 612.7524,-481 815.0323,-463.5065 1053.0877,-445.1254 1176.3484,-435.7724"/>
<polygon fill="#191970" stroke="#191970" points="1176.7615,-439.2512 1186.4683,-435.0053 1176.2323,-432.2713 1176.7615,-439.2512"/>
</g>
<!-- Node51&#45;&gt;Node45 -->
<g id="edge112" class="edge">
<title>Node51&#45;&gt;Node45</title>
<path fill="none" stroke="#191970" d="M467.8139,-486.9005C492.9204,-475.4574 535.0601,-456.2509 563.6122,-443.2374"/>
<polygon fill="#191970" stroke="#191970" points="565.0821,-446.4139 572.7299,-439.0817 562.1789,-440.0443 565.0821,-446.4139"/>
</g>
<!-- Node51&#45;&gt;Node50 -->
<g id="edge114" class="edge">
<title>Node51&#45;&gt;Node50</title>
<path fill="none" stroke="#191970" d="M527.3248,-488.2335C554.4454,-485.6492 584.8897,-482.9635 612.7524,-481 709.5822,-474.1763 1354.5208,-444.8092 1599.5438,-433.7418"/>
<polygon fill="#191970" stroke="#191970" points="1600.0198,-437.224 1609.8517,-433.2764 1599.704,-430.2311 1600.0198,-437.224"/>
</g>
<!-- Node52 -->
<g id="node48" class="node">
<title>Node52</title>
<polygon fill="none" stroke="#bfbfbf" points="415.2524,-420 415.2524,-439 492.2524,-439 492.2524,-420 415.2524,-420"/>
<text text-anchor="middle" x="453.7524" y="-427" font-family="FreeSans.ttf" font-size="10.00" fill="#000000">Eigen/Dense</text>
</g>
<!-- Node51&#45;&gt;Node52 -->
<g id="edge111" class="edge">
<title>Node51&#45;&gt;Node52</title>
<path fill="none" stroke="#191970" d="M447.7553,-486.9005C448.7741,-477.149 450.382,-461.7597 451.6765,-449.3695"/>
<polygon fill="#191970" stroke="#191970" points="455.1932,-449.3912 452.7513,-439.0817 448.2311,-448.6638 455.1932,-449.3912"/>
</g>
<!-- Node53&#45;&gt;Node3 -->
<g id="edge122" class="edge">
<title>Node53&#45;&gt;Node3</title>
<path fill="none" stroke="#191970" d="M1240.3636,-609.966C1252.7924,-607.7076 1266.2438,-605.5173 1278.7524,-604 1343.8419,-596.1048 1817.0202,-609.5357 1867.7524,-568 1882.7713,-555.7037 1886.6792,-533.008 1887.3606,-516.4763"/>
<polygon fill="#191970" stroke="#191970" points="1890.8618,-516.2376 1887.4137,-506.2196 1883.8619,-516.2013 1890.8618,-516.2376"/>
</g>
<!-- Node53&#45;&gt;Node46 -->
<g id="edge123" class="edge">
<title>Node53&#45;&gt;Node46</title>
<path fill="none" stroke="#191970" d="M1196.0961,-609.8906C1198.1973,-601.276 1201.3449,-588.3708 1203.9754,-577.5858"/>
<polygon fill="#191970" stroke="#191970" points="1207.4063,-578.2894 1206.3756,-567.7449 1200.6056,-576.6307 1207.4063,-578.2894"/>
</g>
<!-- Node53&#45;&gt;Node48 -->
<g id="edge124" class="edge">
<title>Node53&#45;&gt;Node48</title>
<path fill="none" stroke="#191970" d="M1121.6098,-609.9625C1104.9232,-607.8805 1087.2301,-605.7721 1070.7524,-604 919.5217,-587.7358 742.9114,-572.8853 640.4537,-564.6786"/>
<polygon fill="#191970" stroke="#191970" points="640.7156,-561.1885 630.4686,-563.8811 640.1581,-568.1662 640.7156,-561.1885"/>
</g>
<!-- Node53&#45;&gt;Node50 -->
<g id="edge121" class="edge">
<title>Node53&#45;&gt;Node50</title>
<path fill="none" stroke="#191970" d="M1243.1048,-609.9484C1254.7696,-607.844 1267.1807,-605.7295 1278.7524,-604 1346.9057,-593.8137 1526.7694,-601.9217 1586.7524,-568 1636.1783,-540.0485 1670.4615,-479.1024 1685.3722,-448.2271"/>
<polygon fill="#191970" stroke="#191970" points="1688.6209,-449.542 1689.68,-439.0002 1682.2781,-446.5806 1688.6209,-449.542"/>
</g>
</g>
</svg>
