<?xml version="1.0" encoding="UTF-8" standalone="no"?>
<!DOCTYPE svg PUBLIC "-//W3C//DTD SVG 1.1//EN"
 "http://www.w3.org/Graphics/SVG/1.1/DTD/svg11.dtd">
<!-- Generated by graphviz version 2.40.1 (20161225.0304)
 -->
<!-- Title: DynamicsUtils.h Pages: 1 -->
<svg width="1074pt" height="621pt"
 viewBox="0.00 0.00 1073.50 621.00" xmlns="http://www.w3.org/2000/svg" xmlns:xlink="http://www.w3.org/1999/xlink">
<g id="graph0" class="graph" transform="scale(1 1) rotate(0) translate(4 617)">
<title>DynamicsUtils.h</title>
<!-- Node0 -->
<g id="node1" class="node">
<title>Node0</title>
<polygon fill="#bfbfbf" stroke="#000000" points="545,-593.5 545,-612.5 642,-612.5 642,-593.5 545,-593.5"/>
<text text-anchor="middle" x="593.5" y="-600.5" font-family="FreeSans.ttf" font-size="10.00" fill="#000000">DynamicsUtils.h</text>
</g>
<!-- Node1 -->
<g id="node2" class="node">
<title>Node1</title>
<g id="a_node2"><a xlink:href="SpatialMotionVector_8h.html" target="_top" xlink:title="iDynTree/Core/SpatialMotion\lVector.h">
<polygon fill="none" stroke="#000000" points="440,-403.5 440,-433.5 595,-433.5 595,-403.5 440,-403.5"/>
<text text-anchor="start" x="448" y="-421.5" font-family="FreeSans.ttf" font-size="10.00" fill="#000000">iDynTree/Core/SpatialMotion</text>
<text text-anchor="middle" x="517.5" y="-410.5" font-family="FreeSans.ttf" font-size="10.00" fill="#000000">Vector.h</text>
</a>
</g>
</g>
<!-- Node0&#45;&gt;Node1 -->
<g id="edge1" class="edge">
<title>Node0&#45;&gt;Node1</title>
<path fill="none" stroke="#191970" d="M544.8399,-593.6701C467.3355,-577.7107 321.5101,-542.8114 291.5,-501 283.4662,-489.8069 282.9078,-480.7704 291.5,-470 308.9303,-448.1509 373.9864,-434.8499 429.8511,-427.2534"/>
<polygon fill="#191970" stroke="#191970" points="430.3431,-430.7189 439.802,-425.9461 429.4313,-423.7785 430.3431,-430.7189"/>
</g>
<!-- Node26 -->
<g id="node27" class="node">
<title>Node26</title>
<g id="a_node27"><a xlink:href="SpatialForceVector_8h.html" target="_top" xlink:title="iDynTree/Core/SpatialForce\lVector.h">
<polygon fill="none" stroke="#000000" points="724.5,-403.5 724.5,-433.5 872.5,-433.5 872.5,-403.5 724.5,-403.5"/>
<text text-anchor="start" x="732.5" y="-421.5" font-family="FreeSans.ttf" font-size="10.00" fill="#000000">iDynTree/Core/SpatialForce</text>
<text text-anchor="middle" x="798.5" y="-410.5" font-family="FreeSans.ttf" font-size="10.00" fill="#000000">Vector.h</text>
</a>
</g>
</g>
<!-- Node0&#45;&gt;Node26 -->
<g id="edge46" class="edge">
<title>Node0&#45;&gt;Node26</title>
<path fill="none" stroke="#191970" d="M642.0011,-596.492C731.2378,-583.4167 915.7932,-550.8747 953.5,-501 979.008,-467.2606 931.3336,-445.8593 882.3123,-433.333"/>
<polygon fill="#191970" stroke="#191970" points="883.0557,-429.9118 872.5114,-430.9451 881.3986,-436.7129 883.0557,-429.9118"/>
</g>
<!-- Node27 -->
<g id="node28" class="node">
<title>Node27</title>
<g id="a_node28"><a xlink:href="SpatialInertia_8h.html" target="_top" xlink:title="iDynTree/Core/SpatialInertia.h">
<polygon fill="none" stroke="#000000" points="512.5,-537.5 512.5,-556.5 674.5,-556.5 674.5,-537.5 512.5,-537.5"/>
<text text-anchor="middle" x="593.5" y="-544.5" font-family="FreeSans.ttf" font-size="10.00" fill="#000000">iDynTree/Core/SpatialInertia.h</text>
</a>
</g>
</g>
<!-- Node0&#45;&gt;Node27 -->
<g id="edge50" class="edge">
<title>Node0&#45;&gt;Node27</title>
<path fill="none" stroke="#191970" d="M593.5,-593.2455C593.5,-585.9382 593.5,-575.6944 593.5,-566.7046"/>
<polygon fill="#191970" stroke="#191970" points="597.0001,-566.6426 593.5,-556.6427 590.0001,-566.6427 597.0001,-566.6426"/>
</g>
<!-- Node2 -->
<g id="node3" class="node">
<title>Node2</title>
<g id="a_node3"><a xlink:href="VectorFixSize_8h.html" target="_top" xlink:title="iDynTree/Core/VectorFixSize.h">
<polygon fill="none" stroke="#000000" points="575,-112.5 575,-131.5 736,-131.5 736,-112.5 575,-112.5"/>
<text text-anchor="middle" x="655.5" y="-119.5" font-family="FreeSans.ttf" font-size="10.00" fill="#000000">iDynTree/Core/VectorFixSize.h</text>
</a>
</g>
</g>
<!-- Node1&#45;&gt;Node2 -->
<g id="edge2" class="edge">
<title>Node1&#45;&gt;Node2</title>
<path fill="none" stroke="#191970" d="M552.3656,-403.4541C571.215,-394.403 594.2915,-381.7781 612.5,-367 693.5377,-301.2297 728.5158,-285.9693 764.5,-188 774.4452,-160.9237 745.983,-144.3074 715.6577,-134.52"/>
<polygon fill="#191970" stroke="#191970" points="716.3759,-131.0819 705.7926,-131.5776 714.3751,-137.7899 716.3759,-131.0819"/>
</g>
<!-- Node18 -->
<g id="node19" class="node">
<title>Node18</title>
<g id="a_node19"><a xlink:href="GeomVector3_8h.html" target="_top" xlink:title="iDynTree/Core/GeomVector3.h">
<polygon fill="none" stroke="#000000" points="592,-168.5 592,-187.5 755,-187.5 755,-168.5 592,-168.5"/>
<text text-anchor="middle" x="673.5" y="-175.5" font-family="FreeSans.ttf" font-size="10.00" fill="#000000">iDynTree/Core/GeomVector3.h</text>
</a>
</g>
</g>
<!-- Node1&#45;&gt;Node18 -->
<g id="edge20" class="edge">
<title>Node1&#45;&gt;Node18</title>
<path fill="none" stroke="#191970" d="M561.1163,-403.2898C579.2129,-395.0415 599.0747,-383.1636 612.5,-367 654.8252,-316.0419 667.9785,-235.1197 671.9072,-197.9101"/>
<polygon fill="#191970" stroke="#191970" points="675.4018,-198.1308 672.8525,-187.8473 668.4325,-197.4761 675.4018,-198.1308"/>
</g>
<!-- Node19 -->
<g id="node20" class="node">
<title>Node19</title>
<g id="a_node20"><a xlink:href="SpatialVector_8h.html" target="_top" xlink:title="iDynTree/Core/SpatialVector.h">
<polygon fill="none" stroke="#000000" points="442,-342 442,-361 603,-361 603,-342 442,-342"/>
<text text-anchor="middle" x="522.5" y="-349" font-family="FreeSans.ttf" font-size="10.00" fill="#000000">iDynTree/Core/SpatialVector.h</text>
</a>
</g>
</g>
<!-- Node1&#45;&gt;Node19 -->
<g id="edge22" class="edge">
<title>Node1&#45;&gt;Node19</title>
<path fill="none" stroke="#191970" d="M518.6346,-403.2967C519.3455,-393.7699 520.269,-381.3954 521.035,-371.1306"/>
<polygon fill="#191970" stroke="#191970" points="524.5329,-371.2877 521.7869,-361.055 517.5524,-370.7667 524.5329,-371.2877"/>
</g>
<!-- Node3 -->
<g id="node4" class="node">
<title>Node3</title>
<g id="a_node4"><a xlink:href="Utils_8h.html" target="_top" xlink:title="iDynTree/Core/Utils.h">
<polygon fill="none" stroke="#000000" points="762,-56.5 762,-75.5 881,-75.5 881,-56.5 762,-56.5"/>
<text text-anchor="middle" x="821.5" y="-63.5" font-family="FreeSans.ttf" font-size="10.00" fill="#000000">iDynTree/Core/Utils.h</text>
</a>
</g>
</g>
<!-- Node2&#45;&gt;Node3 -->
<g id="edge3" class="edge">
<title>Node2&#45;&gt;Node3</title>
<path fill="none" stroke="#191970" d="M684.0364,-112.3733C711.5202,-103.1016 753.2686,-89.0178 783.5452,-78.804"/>
<polygon fill="#191970" stroke="#191970" points="784.9794,-82.0141 793.336,-75.5011 782.7418,-75.3813 784.9794,-82.0141"/>
</g>
<!-- Node6 -->
<g id="node7" class="node">
<title>Node6</title>
<g id="a_node7"><a xlink:href="Span_8h.html" target="_top" xlink:title="iDynTree/Core/Span.h">
<polygon fill="none" stroke="#000000" points="609,-56.5 609,-75.5 730,-75.5 730,-56.5 609,-56.5"/>
<text text-anchor="middle" x="669.5" y="-63.5" font-family="FreeSans.ttf" font-size="10.00" fill="#000000">iDynTree/Core/Span.h</text>
</a>
</g>
</g>
<!-- Node2&#45;&gt;Node6 -->
<g id="edge6" class="edge">
<title>Node2&#45;&gt;Node6</title>
<path fill="none" stroke="#191970" d="M657.9386,-112.2455C659.7855,-104.8579 662.3828,-94.4689 664.6478,-85.4087"/>
<polygon fill="#191970" stroke="#191970" points="668.0594,-86.193 667.0893,-75.6427 661.2684,-84.4952 668.0594,-86.193"/>
</g>
<!-- Node7 -->
<g id="node8" class="node">
<title>Node7</title>
<polygon fill="none" stroke="#bfbfbf" points="333.5,-.5 333.5,-19.5 385.5,-19.5 385.5,-.5 333.5,-.5"/>
<text text-anchor="middle" x="359.5" y="-7.5" font-family="FreeSans.ttf" font-size="10.00" fill="#000000">cassert</text>
</g>
<!-- Node2&#45;&gt;Node7 -->
<g id="edge18" class="edge">
<title>Node2&#45;&gt;Node7</title>
<path fill="none" stroke="#191970" d="M644.8128,-112.2888C628.234,-97.7647 594.7512,-70.5405 561.5,-56 494.7868,-26.8268 470.1818,-37.4573 395.6654,-20.1072"/>
<polygon fill="#191970" stroke="#191970" points="396.3662,-16.6758 385.8232,-17.7222 394.7176,-23.4789 396.3662,-16.6758"/>
</g>
<!-- Node15 -->
<g id="node16" class="node">
<title>Node15</title>
<polygon fill="none" stroke="#bfbfbf" points="267.5,-56.5 267.5,-75.5 311.5,-75.5 311.5,-56.5 267.5,-56.5"/>
<text text-anchor="middle" x="289.5" y="-63.5" font-family="FreeSans.ttf" font-size="10.00" fill="#000000">string</text>
</g>
<!-- Node2&#45;&gt;Node15 -->
<g id="edge16" class="edge">
<title>Node2&#45;&gt;Node15</title>
<path fill="none" stroke="#191970" d="M592.9982,-112.4369C514.4159,-100.4134 382.4699,-80.2249 321.7992,-70.942"/>
<polygon fill="#191970" stroke="#191970" points="322.0831,-67.4447 311.6687,-69.3919 321.0243,-74.3642 322.0831,-67.4447"/>
</g>
<!-- Node16 -->
<g id="node17" class="node">
<title>Node16</title>
<polygon fill="none" stroke="#bfbfbf" points="428.5,-56.5 428.5,-75.5 484.5,-75.5 484.5,-56.5 428.5,-56.5"/>
<text text-anchor="middle" x="456.5" y="-63.5" font-family="FreeSans.ttf" font-size="10.00" fill="#000000">sstream</text>
</g>
<!-- Node2&#45;&gt;Node16 -->
<g id="edge17" class="edge">
<title>Node2&#45;&gt;Node16</title>
<path fill="none" stroke="#191970" d="M621.2907,-112.3733C586.0434,-102.4544 531.2253,-87.0282 494.611,-76.7247"/>
<polygon fill="#191970" stroke="#191970" points="495.3723,-73.3031 484.798,-73.9633 493.476,-80.0413 495.3723,-73.3031"/>
</g>
<!-- Node17 -->
<g id="node18" class="node">
<title>Node17</title>
<polygon fill="none" stroke="#bfbfbf" points="502.5,-56.5 502.5,-75.5 552.5,-75.5 552.5,-56.5 502.5,-56.5"/>
<text text-anchor="middle" x="527.5" y="-63.5" font-family="FreeSans.ttf" font-size="10.00" fill="#000000">cstring</text>
</g>
<!-- Node2&#45;&gt;Node17 -->
<g id="edge19" class="edge">
<title>Node2&#45;&gt;Node17</title>
<path fill="none" stroke="#191970" d="M633.496,-112.3733C612.8565,-103.3435 581.7842,-89.7494 558.6111,-79.6111"/>
<polygon fill="#191970" stroke="#191970" points="559.7813,-76.3028 549.2169,-75.5011 556.9755,-82.7159 559.7813,-76.3028"/>
</g>
<!-- Node4 -->
<g id="node5" class="node">
<title>Node4</title>
<polygon fill="none" stroke="#bfbfbf" points="914,-.5 914,-19.5 967,-19.5 967,-.5 914,-.5"/>
<text text-anchor="middle" x="940.5" y="-7.5" font-family="FreeSans.ttf" font-size="10.00" fill="#000000">cstddef</text>
</g>
<!-- Node3&#45;&gt;Node4 -->
<g id="edge4" class="edge">
<title>Node3&#45;&gt;Node4</title>
<path fill="none" stroke="#191970" d="M841.9568,-56.3733C860.9738,-47.4241 889.5175,-33.9917 910.9976,-23.8835"/>
<polygon fill="#191970" stroke="#191970" points="912.7522,-26.926 920.3101,-19.5011 909.7716,-20.5923 912.7522,-26.926"/>
</g>
<!-- Node5 -->
<g id="node6" class="node">
<title>Node5</title>
<polygon fill="none" stroke="#bfbfbf" points="985.5,-.5 985.5,-19.5 1065.5,-19.5 1065.5,-.5 985.5,-.5"/>
<text text-anchor="middle" x="1025.5" y="-7.5" font-family="FreeSans.ttf" font-size="10.00" fill="#000000">CoreExport.h</text>
</g>
<!-- Node3&#45;&gt;Node5 -->
<g id="edge5" class="edge">
<title>Node3&#45;&gt;Node5</title>
<path fill="none" stroke="#191970" d="M856.5689,-56.3733C890.9315,-46.9404 943.4392,-32.5265 980.7851,-22.2747"/>
<polygon fill="#191970" stroke="#191970" points="982.172,-25.5235 990.8888,-19.5011 980.319,-18.7732 982.172,-25.5235"/>
</g>
<!-- Node6&#45;&gt;Node4 -->
<g id="edge10" class="edge">
<title>Node6&#45;&gt;Node4</title>
<path fill="none" stroke="#191970" d="M724.839,-56.4207C770.3858,-48.2521 836.8232,-35.6876 903.9212,-19.9963"/>
<polygon fill="#191970" stroke="#191970" points="904.895,-23.3627 913.8233,-17.6586 903.2866,-16.5499 904.895,-23.3627"/>
</g>
<!-- Node6&#45;&gt;Node7 -->
<g id="edge7" class="edge">
<title>Node6&#45;&gt;Node7</title>
<path fill="none" stroke="#191970" d="M608.7659,-57.8457C555.0836,-50.1843 474.5115,-37.5819 395.8692,-20.1221"/>
<polygon fill="#191970" stroke="#191970" points="396.3159,-16.6352 385.7915,-17.8552 394.7796,-23.4645 396.3159,-16.6352"/>
</g>
<!-- Node8 -->
<g id="node9" class="node">
<title>Node8</title>
<polygon fill="none" stroke="#bfbfbf" points="637.5,-.5 637.5,-19.5 701.5,-19.5 701.5,-.5 637.5,-.5"/>
<text text-anchor="middle" x="669.5" y="-7.5" font-family="FreeSans.ttf" font-size="10.00" fill="#000000">algorithm</text>
</g>
<!-- Node6&#45;&gt;Node8 -->
<g id="edge8" class="edge">
<title>Node6&#45;&gt;Node8</title>
<path fill="none" stroke="#191970" d="M669.5,-56.2455C669.5,-48.9382 669.5,-38.6944 669.5,-29.7046"/>
<polygon fill="#191970" stroke="#191970" points="673.0001,-29.6426 669.5,-19.6427 666.0001,-29.6427 673.0001,-29.6426"/>
</g>
<!-- Node9 -->
<g id="node10" class="node">
<title>Node9</title>
<polygon fill="none" stroke="#bfbfbf" points="719.5,-.5 719.5,-19.5 761.5,-19.5 761.5,-.5 719.5,-.5"/>
<text text-anchor="middle" x="740.5" y="-7.5" font-family="FreeSans.ttf" font-size="10.00" fill="#000000">array</text>
</g>
<!-- Node6&#45;&gt;Node9 -->
<g id="edge9" class="edge">
<title>Node6&#45;&gt;Node9</title>
<path fill="none" stroke="#191970" d="M681.8673,-56.2455C692.4554,-47.8943 707.9064,-35.7076 720.2893,-25.9408"/>
<polygon fill="#191970" stroke="#191970" points="722.5903,-28.5837 728.2745,-19.6427 718.2553,-23.0875 722.5903,-28.5837"/>
</g>
<!-- Node10 -->
<g id="node11" class="node">
<title>Node10</title>
<polygon fill="none" stroke="#bfbfbf" points="780,-.5 780,-19.5 833,-19.5 833,-.5 780,-.5"/>
<text text-anchor="middle" x="806.5" y="-7.5" font-family="FreeSans.ttf" font-size="10.00" fill="#000000">iterator</text>
</g>
<!-- Node6&#45;&gt;Node10 -->
<g id="edge11" class="edge">
<title>Node6&#45;&gt;Node10</title>
<path fill="none" stroke="#191970" d="M693.0511,-56.3733C715.3391,-47.2629 748.9937,-33.5062 773.8637,-23.3404"/>
<polygon fill="#191970" stroke="#191970" points="775.3239,-26.5247 783.2562,-19.5011 772.6753,-20.0451 775.3239,-26.5247"/>
</g>
<!-- Node11 -->
<g id="node12" class="node">
<title>Node11</title>
<polygon fill="none" stroke="#bfbfbf" points="851.5,-.5 851.5,-19.5 895.5,-19.5 895.5,-.5 851.5,-.5"/>
<text text-anchor="middle" x="873.5" y="-7.5" font-family="FreeSans.ttf" font-size="10.00" fill="#000000">limits</text>
</g>
<!-- Node6&#45;&gt;Node11 -->
<g id="edge12" class="edge">
<title>Node6&#45;&gt;Node11</title>
<path fill="none" stroke="#191970" d="M707.7967,-56.4281C740.8987,-48.0183 790.2302,-35.162 841.5832,-20.1727"/>
<polygon fill="#191970" stroke="#191970" points="842.5842,-23.5266 851.192,-17.3496 840.6109,-16.8105 842.5842,-23.5266"/>
</g>
<!-- Node12 -->
<g id="node13" class="node">
<title>Node12</title>
<polygon fill="none" stroke="#bfbfbf" points="404,-.5 404,-19.5 469,-19.5 469,-.5 404,-.5"/>
<text text-anchor="middle" x="436.5" y="-7.5" font-family="FreeSans.ttf" font-size="10.00" fill="#000000">stdexcept</text>
</g>
<!-- Node6&#45;&gt;Node12 -->
<g id="edge13" class="edge">
<title>Node6&#45;&gt;Node12</title>
<path fill="none" stroke="#191970" d="M629.4055,-56.4443C592.6797,-47.6803 536.5353,-34.2542 479.1408,-20.3908"/>
<polygon fill="#191970" stroke="#191970" points="479.7132,-16.9284 469.1708,-17.9812 478.0687,-23.7325 479.7132,-16.9284"/>
</g>
<!-- Node13 -->
<g id="node14" class="node">
<title>Node13</title>
<polygon fill="none" stroke="#bfbfbf" points="487,-.5 487,-19.5 556,-19.5 556,-.5 487,-.5"/>
<text text-anchor="middle" x="521.5" y="-7.5" font-family="FreeSans.ttf" font-size="10.00" fill="#000000">type_traits</text>
</g>
<!-- Node6&#45;&gt;Node13 -->
<g id="edge14" class="edge">
<title>Node6&#45;&gt;Node13</title>
<path fill="none" stroke="#191970" d="M644.0579,-56.3733C619.7674,-47.1822 582.9792,-33.2624 556.0457,-23.0713"/>
<polygon fill="#191970" stroke="#191970" points="557.2016,-19.7666 546.6101,-19.5011 554.7243,-26.3136 557.2016,-19.7666"/>
</g>
<!-- Node14 -->
<g id="node15" class="node">
<title>Node14</title>
<polygon fill="none" stroke="#bfbfbf" points="574,-.5 574,-19.5 619,-19.5 619,-.5 574,-.5"/>
<text text-anchor="middle" x="596.5" y="-7.5" font-family="FreeSans.ttf" font-size="10.00" fill="#000000">utility</text>
</g>
<!-- Node6&#45;&gt;Node14 -->
<g id="edge15" class="edge">
<title>Node6&#45;&gt;Node14</title>
<path fill="none" stroke="#191970" d="M656.7844,-56.2455C645.898,-47.8943 630.0117,-35.7076 617.28,-25.9408"/>
<polygon fill="#191970" stroke="#191970" points="619.1346,-22.9523 609.0699,-19.6427 614.8739,-28.5063 619.1346,-22.9523"/>
</g>
<!-- Node18&#45;&gt;Node2 -->
<g id="edge21" class="edge">
<title>Node18&#45;&gt;Node2</title>
<path fill="none" stroke="#191970" d="M670.3646,-168.2455C667.99,-160.8579 664.6507,-150.4689 661.7385,-141.4087"/>
<polygon fill="#191970" stroke="#191970" points="664.9917,-140.0919 658.5994,-131.6427 658.3275,-142.234 664.9917,-140.0919"/>
</g>
<!-- Node19&#45;&gt;Node3 -->
<g id="edge42" class="edge">
<title>Node19&#45;&gt;Node3</title>
<path fill="none" stroke="#191970" d="M575.2669,-341.995C661.1039,-325.0143 821.5,-286.2882 821.5,-234 821.5,-234 821.5,-234 821.5,-178 821.5,-145.7116 821.5,-108.1872 821.5,-85.8048"/>
<polygon fill="#191970" stroke="#191970" points="825.0001,-85.5883 821.5,-75.5884 818.0001,-85.5884 825.0001,-85.5883"/>
</g>
<!-- Node19&#45;&gt;Node16 -->
<g id="edge45" class="edge">
<title>Node19&#45;&gt;Node16</title>
<path fill="none" stroke="#191970" d="M524.381,-341.7213C530.4036,-307.8286 546.6195,-193.0407 507.5,-112 501.6686,-99.9197 491.1134,-89.5733 481.1123,-81.7699"/>
<polygon fill="#191970" stroke="#191970" points="483.1016,-78.8888 472.9576,-75.8309 478.9806,-84.5473 483.1016,-78.8888"/>
</g>
<!-- Node19&#45;&gt;Node18 -->
<g id="edge43" class="edge">
<title>Node19&#45;&gt;Node18</title>
<path fill="none" stroke="#191970" d="M530.8335,-341.9248C555.2171,-313.9079 626.6846,-231.7912 658.233,-195.5418"/>
<polygon fill="#191970" stroke="#191970" points="661.0812,-197.6006 665.0061,-187.7595 655.8009,-193.005 661.0812,-197.6006"/>
</g>
<!-- Node20 -->
<g id="node21" class="node">
<title>Node20</title>
<g id="a_node21"><a xlink:href="Position_8h.html" target="_top" xlink:title="Position.h">
<polygon fill="none" stroke="#000000" points="264,-280.5 264,-299.5 329,-299.5 329,-280.5 264,-280.5"/>
<text text-anchor="middle" x="296.5" y="-287.5" font-family="FreeSans.ttf" font-size="10.00" fill="#000000">Position.h</text>
</a>
</g>
</g>
<!-- Node19&#45;&gt;Node20 -->
<g id="edge23" class="edge">
<title>Node19&#45;&gt;Node20</title>
<path fill="none" stroke="#191970" d="M487.1875,-341.8906C447.0764,-330.9754 381.6531,-313.1722 338.8374,-301.521"/>
<polygon fill="#191970" stroke="#191970" points="339.5687,-298.0928 329.0005,-298.8442 337.7306,-304.8472 339.5687,-298.0928"/>
</g>
<!-- Node22 -->
<g id="node23" class="node">
<title>Node22</title>
<g id="a_node23"><a xlink:href="Rotation_8h.html" target="_top" xlink:title="iDynTree/Core/Rotation.h">
<polygon fill="none" stroke="#000000" points="355,-224.5 355,-243.5 492,-243.5 492,-224.5 355,-224.5"/>
<text text-anchor="middle" x="423.5" y="-231.5" font-family="FreeSans.ttf" font-size="10.00" fill="#000000">iDynTree/Core/Rotation.h</text>
</a>
</g>
</g>
<!-- Node19&#45;&gt;Node22 -->
<g id="edge41" class="edge">
<title>Node19&#45;&gt;Node22</title>
<path fill="none" stroke="#191970" d="M514.3984,-341.8845C497.7195,-322.0889 459.3398,-276.5372 438.175,-251.4173"/>
<polygon fill="#191970" stroke="#191970" points="440.8335,-249.1406 431.7135,-243.7484 435.4803,-253.651 440.8335,-249.1406"/>
</g>
<!-- Node25 -->
<g id="node26" class="node">
<title>Node25</title>
<polygon fill="none" stroke="#bfbfbf" points="100.5,-56.5 100.5,-75.5 160.5,-75.5 160.5,-56.5 100.5,-56.5"/>
<text text-anchor="middle" x="130.5" y="-63.5" font-family="FreeSans.ttf" font-size="10.00" fill="#000000">iostream</text>
</g>
<!-- Node19&#45;&gt;Node25 -->
<g id="edge44" class="edge">
<title>Node19&#45;&gt;Node25</title>
<path fill="none" stroke="#191970" d="M441.7666,-342.1744C387.7331,-334.4408 315.5964,-321.2074 254.5,-300 203.4207,-282.2697 186.9177,-279.9147 146.5,-244 124.016,-224.021 117.3341,-216.7515 108.5,-188 97.5486,-152.3573 111.4961,-109.0814 121.6572,-84.8284"/>
<polygon fill="#191970" stroke="#191970" points="124.8606,-86.2384 125.6965,-75.6766 118.4566,-83.4119 124.8606,-86.2384"/>
</g>
<!-- Node20&#45;&gt;Node15 -->
<g id="edge40" class="edge">
<title>Node20&#45;&gt;Node15</title>
<path fill="none" stroke="#191970" d="M263.7028,-282.0242C221.4563,-269.7912 149.7523,-241.9285 118.5,-188 83.1379,-126.9797 198.7865,-88.5306 257.4714,-73.3732"/>
<polygon fill="#191970" stroke="#191970" points="258.5288,-76.7167 267.3809,-70.8951 256.8305,-69.9258 258.5288,-76.7167"/>
</g>
<!-- Node21 -->
<g id="node22" class="node">
<title>Node21</title>
<g id="a_node22"><a xlink:href="PositionRaw_8h.html" target="_top" xlink:title="iDynTree/Core/PositionRaw.h">
<polygon fill="none" stroke="#000000" points="127.5,-168.5 127.5,-187.5 283.5,-187.5 283.5,-168.5 127.5,-168.5"/>
<text text-anchor="middle" x="205.5" y="-175.5" font-family="FreeSans.ttf" font-size="10.00" fill="#000000">iDynTree/Core/PositionRaw.h</text>
</a>
</g>
</g>
<!-- Node20&#45;&gt;Node21 -->
<g id="edge24" class="edge">
<title>Node20&#45;&gt;Node21</title>
<path fill="none" stroke="#191970" d="M288.7414,-280.4509C273.4294,-261.6054 239.1252,-219.3849 219.6715,-195.4419"/>
<polygon fill="#191970" stroke="#191970" points="222.2613,-193.079 213.239,-187.5249 216.8285,-197.4931 222.2613,-193.079"/>
</g>
<!-- Node20&#45;&gt;Node22 -->
<g id="edge27" class="edge">
<title>Node20&#45;&gt;Node22</title>
<path fill="none" stroke="#191970" d="M318.3321,-280.3733C338.8103,-271.3435 369.6399,-257.7494 392.6319,-247.6111"/>
<polygon fill="#191970" stroke="#191970" points="394.215,-250.7383 401.9528,-243.5011 391.3907,-244.3333 394.215,-250.7383"/>
</g>
<!-- Node21&#45;&gt;Node2 -->
<g id="edge25" class="edge">
<title>Node21&#45;&gt;Node2</title>
<path fill="none" stroke="#191970" d="M282.0913,-168.4686C361.5704,-158.5779 485.6466,-143.1373 568.707,-132.8009"/>
<polygon fill="#191970" stroke="#191970" points="569.3886,-136.2432 578.8799,-131.535 568.5241,-129.2967 569.3886,-136.2432"/>
</g>
<!-- Node21&#45;&gt;Node15 -->
<g id="edge26" class="edge">
<title>Node21&#45;&gt;Node15</title>
<path fill="none" stroke="#191970" d="M212.6618,-168.4509C226.734,-149.688 258.1839,-107.7548 276.1815,-83.758"/>
<polygon fill="#191970" stroke="#191970" points="279.1563,-85.6249 282.3563,-75.5249 273.5563,-81.4249 279.1563,-85.6249"/>
</g>
<!-- Node22&#45;&gt;Node2 -->
<g id="edge39" class="edge">
<title>Node22&#45;&gt;Node2</title>
<path fill="none" stroke="#191970" d="M443.2802,-224.4509C484.2864,-204.6548 578.7198,-159.0663 626.5751,-135.9638"/>
<polygon fill="#191970" stroke="#191970" points="628.286,-139.0244 635.7699,-131.5249 625.2427,-132.7205 628.286,-139.0244"/>
</g>
<!-- Node22&#45;&gt;Node15 -->
<g id="edge28" class="edge">
<title>Node22&#45;&gt;Node15</title>
<path fill="none" stroke="#191970" d="M390.4994,-224.4038C370.8066,-217.1948 346.5834,-205.5121 330.5,-188 303.9045,-159.0419 294.4994,-112.2539 291.2181,-85.8278"/>
<polygon fill="#191970" stroke="#191970" points="294.664,-85.1321 290.1278,-75.5575 287.7031,-85.8711 294.664,-85.1321"/>
</g>
<!-- Node22&#45;&gt;Node18 -->
<g id="edge29" class="edge">
<title>Node22&#45;&gt;Node18</title>
<path fill="none" stroke="#191970" d="M466.1925,-224.4369C509.0679,-214.8328 575.2005,-200.0191 621.2002,-189.7152"/>
<polygon fill="#191970" stroke="#191970" points="621.9905,-193.1249 630.9836,-187.5237 620.4604,-186.2942 621.9905,-193.1249"/>
</g>
<!-- Node23 -->
<g id="node24" class="node">
<title>Node23</title>
<g id="a_node24"><a xlink:href="RotationRaw_8h.html" target="_top" xlink:title="iDynTree/Core/RotationRaw.h">
<polygon fill="none" stroke="#000000" points="339.5,-168.5 339.5,-187.5 497.5,-187.5 497.5,-168.5 339.5,-168.5"/>
<text text-anchor="middle" x="418.5" y="-175.5" font-family="FreeSans.ttf" font-size="10.00" fill="#000000">iDynTree/Core/RotationRaw.h</text>
</a>
</g>
</g>
<!-- Node22&#45;&gt;Node23 -->
<g id="edge30" class="edge">
<title>Node22&#45;&gt;Node23</title>
<path fill="none" stroke="#191970" d="M422.6291,-224.2455C421.9766,-216.9382 421.062,-206.6944 420.2593,-197.7046"/>
<polygon fill="#191970" stroke="#191970" points="423.7365,-197.2918 419.361,-187.6427 416.7642,-197.9143 423.7365,-197.2918"/>
</g>
<!-- Node23&#45;&gt;Node15 -->
<g id="edge38" class="edge">
<title>Node23&#45;&gt;Node15</title>
<path fill="none" stroke="#191970" d="M389.6267,-168.3968C370.2951,-160.8529 345.2373,-148.7982 327.5,-132 313.5951,-118.8313 303.2601,-99.4359 296.9067,-85.0756"/>
<polygon fill="#191970" stroke="#191970" points="300.0653,-83.556 292.99,-75.6699 293.6032,-86.247 300.0653,-83.556"/>
</g>
<!-- Node24 -->
<g id="node25" class="node">
<title>Node24</title>
<g id="a_node25"><a xlink:href="MatrixFixSize_8h.html" target="_top" xlink:title="iDynTree/Core/MatrixFixSize.h">
<polygon fill="none" stroke="#000000" points="337,-112.5 337,-131.5 498,-131.5 498,-112.5 337,-112.5"/>
<text text-anchor="middle" x="417.5" y="-119.5" font-family="FreeSans.ttf" font-size="10.00" fill="#000000">iDynTree/Core/MatrixFixSize.h</text>
</a>
</g>
</g>
<!-- Node23&#45;&gt;Node24 -->
<g id="edge31" class="edge">
<title>Node23&#45;&gt;Node24</title>
<path fill="none" stroke="#191970" d="M418.3258,-168.2455C418.1953,-160.9382 418.0124,-150.6944 417.8519,-141.7046"/>
<polygon fill="#191970" stroke="#191970" points="421.3503,-141.5786 417.6722,-131.6427 414.3514,-141.7036 421.3503,-141.5786"/>
</g>
<!-- Node24&#45;&gt;Node3 -->
<g id="edge32" class="edge">
<title>Node24&#45;&gt;Node3</title>
<path fill="none" stroke="#191970" d="M486.491,-112.4369C560.4266,-102.1884 677.1581,-86.0078 751.4857,-75.705"/>
<polygon fill="#191970" stroke="#191970" points="752.2586,-79.1314 761.6834,-74.2914 751.2975,-72.1977 752.2586,-79.1314"/>
</g>
<!-- Node24&#45;&gt;Node7 -->
<g id="edge33" class="edge">
<title>Node24&#45;&gt;Node7</title>
<path fill="none" stroke="#191970" d="M412.555,-112.4509C402.9669,-93.936 381.6949,-52.8591 369.1936,-28.7187"/>
<polygon fill="#191970" stroke="#191970" points="372.1391,-26.7953 364.4325,-19.5249 365.9231,-30.0144 372.1391,-26.7953"/>
</g>
<!-- Node24&#45;&gt;Node15 -->
<g id="edge35" class="edge">
<title>Node24&#45;&gt;Node15</title>
<path fill="none" stroke="#191970" d="M395.496,-112.3733C374.8565,-103.3435 343.7842,-89.7494 320.6111,-79.6111"/>
<polygon fill="#191970" stroke="#191970" points="321.7813,-76.3028 311.2169,-75.5011 318.9755,-82.7159 321.7813,-76.3028"/>
</g>
<!-- Node24&#45;&gt;Node16 -->
<g id="edge37" class="edge">
<title>Node24&#45;&gt;Node16</title>
<path fill="none" stroke="#191970" d="M424.2933,-112.2455C429.7178,-104.4564 437.4661,-93.3308 444.0033,-83.9439"/>
<polygon fill="#191970" stroke="#191970" points="446.9417,-85.849 449.7846,-75.6427 441.1975,-81.8485 446.9417,-85.849"/>
</g>
<!-- Node24&#45;&gt;Node17 -->
<g id="edge34" class="edge">
<title>Node24&#45;&gt;Node17</title>
<path fill="none" stroke="#191970" d="M436.6605,-112.2455C454.0111,-103.4125 479.7901,-90.2887 499.4583,-80.2758"/>
<polygon fill="#191970" stroke="#191970" points="501.2353,-83.2986 508.559,-75.6427 498.0595,-77.0605 501.2353,-83.2986"/>
</g>
<!-- Node24&#45;&gt;Node25 -->
<g id="edge36" class="edge">
<title>Node24&#45;&gt;Node25</title>
<path fill="none" stroke="#191970" d="M368.489,-112.4369C312.6546,-101.5424 222.4642,-83.9442 170.6266,-73.8296"/>
<polygon fill="#191970" stroke="#191970" points="171.2772,-70.3906 160.792,-71.9106 169.9366,-77.261 171.2772,-70.3906"/>
</g>
<!-- Node26&#45;&gt;Node2 -->
<g id="edge47" class="edge">
<title>Node26&#45;&gt;Node2</title>
<path fill="none" stroke="#191970" d="M811.1392,-403.3841C829.0065,-380.4266 859.5,-334.6981 859.5,-290 859.5,-290 859.5,-290 859.5,-234 859.5,-175.1816 793.5306,-147.0406 736.6207,-133.7074"/>
<polygon fill="#191970" stroke="#191970" points="737.3701,-130.2886 726.8493,-131.5389 735.8535,-137.1223 737.3701,-130.2886"/>
</g>
<!-- Node26&#45;&gt;Node18 -->
<g id="edge48" class="edge">
<title>Node26&#45;&gt;Node18</title>
<path fill="none" stroke="#191970" d="M794.8752,-403.3042C786.2247,-369.0865 762.0203,-284.2815 721.5,-224 714.0297,-212.8866 703.4722,-202.3987 694.1598,-194.2518"/>
<polygon fill="#191970" stroke="#191970" points="696.3139,-191.4903 686.4056,-187.7382 691.8114,-196.8502 696.3139,-191.4903"/>
</g>
<!-- Node26&#45;&gt;Node19 -->
<g id="edge49" class="edge">
<title>Node26&#45;&gt;Node19</title>
<path fill="none" stroke="#191970" d="M736.5602,-403.4639C686.661,-391.3507 617.467,-374.5536 571.4051,-363.3719"/>
<polygon fill="#191970" stroke="#191970" points="572.1996,-359.9632 561.6561,-361.0053 570.5482,-366.7656 572.1996,-359.9632"/>
</g>
<!-- Node27&#45;&gt;Node2 -->
<g id="edge54" class="edge">
<title>Node27&#45;&gt;Node2</title>
<path fill="none" stroke="#191970" d="M674.6206,-544.2426C766.1163,-539.8252 908.0841,-528.6354 953.5,-501 991.5725,-477.833 1010.5,-463.0671 1010.5,-418.5 1010.5,-418.5 1010.5,-418.5 1010.5,-234 1010.5,-178.5929 851.2357,-147.1624 746.0575,-132.4468"/>
<polygon fill="#191970" stroke="#191970" points="746.4379,-128.9663 736.055,-131.0746 745.4865,-135.9013 746.4379,-128.9663"/>
</g>
<!-- Node28 -->
<g id="node29" class="node">
<title>Node28</title>
<g id="a_node29"><a xlink:href="SpatialInertiaRaw_8h.html" target="_top" xlink:title="iDynTree/Core/SpatialInertia\lRaw.h">
<polygon fill="none" stroke="#000000" points="77,-470.5 77,-500.5 230,-500.5 230,-470.5 77,-470.5"/>
<text text-anchor="start" x="85" y="-488.5" font-family="FreeSans.ttf" font-size="10.00" fill="#000000">iDynTree/Core/SpatialInertia</text>
<text text-anchor="middle" x="153.5" y="-477.5" font-family="FreeSans.ttf" font-size="10.00" fill="#000000">Raw.h</text>
</a>
</g>
</g>
<!-- Node27&#45;&gt;Node28 -->
<g id="edge51" class="edge">
<title>Node27&#45;&gt;Node28</title>
<path fill="none" stroke="#191970" d="M525.2328,-537.4581C448.4562,-526.7268 323.6095,-509.2767 240.0482,-497.5971"/>
<polygon fill="#191970" stroke="#191970" points="240.4567,-494.1202 230.0685,-496.2022 239.4877,-501.0528 240.4567,-494.1202"/>
</g>
<!-- Node30 -->
<g id="node31" class="node">
<title>Node30</title>
<g id="a_node31"><a xlink:href="Twist_8h.html" target="_top" xlink:title="iDynTree/Core/Twist.h">
<polygon fill="none" stroke="#000000" points="300.5,-476 300.5,-495 422.5,-495 422.5,-476 300.5,-476"/>
<text text-anchor="middle" x="361.5" y="-483" font-family="FreeSans.ttf" font-size="10.00" fill="#000000">iDynTree/Core/Twist.h</text>
</a>
</g>
</g>
<!-- Node27&#45;&gt;Node30 -->
<g id="edge55" class="edge">
<title>Node27&#45;&gt;Node30</title>
<path fill="none" stroke="#191970" d="M557.5046,-537.4581C517.1223,-526.7533 451.5189,-509.3628 407.4612,-497.6837"/>
<polygon fill="#191970" stroke="#191970" points="408.1429,-494.2436 397.5799,-495.0643 406.3492,-501.0099 408.1429,-494.2436"/>
</g>
<!-- Node31 -->
<g id="node32" class="node">
<title>Node31</title>
<g id="a_node32"><a xlink:href="SpatialMomentum_8h.html" target="_top" xlink:title="iDynTree/Core/SpatialMomentum.h">
<polygon fill="none" stroke="#000000" points="758.5,-476 758.5,-495 944.5,-495 944.5,-476 758.5,-476"/>
<text text-anchor="middle" x="851.5" y="-483" font-family="FreeSans.ttf" font-size="10.00" fill="#000000">iDynTree/Core/SpatialMomentum.h</text>
</a>
</g>
</g>
<!-- Node27&#45;&gt;Node31 -->
<g id="edge57" class="edge">
<title>Node27&#45;&gt;Node31</title>
<path fill="none" stroke="#191970" d="M633.5294,-537.4581C678.8155,-526.6632 752.6234,-509.0694 801.6206,-497.3899"/>
<polygon fill="#191970" stroke="#191970" points="802.4608,-500.7877 811.3767,-495.0643 800.8376,-493.9785 802.4608,-500.7877"/>
</g>
<!-- Node32 -->
<g id="node33" class="node">
<title>Node32</title>
<g id="a_node33"><a xlink:href="SpatialAcc_8h.html" target="_top" xlink:title="iDynTree/Core/SpatialAcc.h">
<polygon fill="none" stroke="#000000" points="440.5,-476 440.5,-495 588.5,-495 588.5,-476 440.5,-476"/>
<text text-anchor="middle" x="514.5" y="-483" font-family="FreeSans.ttf" font-size="10.00" fill="#000000">iDynTree/Core/SpatialAcc.h</text>
</a>
</g>
</g>
<!-- Node27&#45;&gt;Node32 -->
<g id="edge59" class="edge">
<title>Node27&#45;&gt;Node32</title>
<path fill="none" stroke="#191970" d="M581.1563,-537.3906C568.7497,-527.7324 549.4157,-512.6812 534.7587,-501.271"/>
<polygon fill="#191970" stroke="#191970" points="536.7979,-498.423 526.7571,-495.0419 532.4979,-503.9466 536.7979,-498.423"/>
</g>
<!-- Node33 -->
<g id="node34" class="node">
<title>Node33</title>
<g id="a_node34"><a xlink:href="Wrench_8h.html" target="_top" xlink:title="iDynTree/Core/Wrench.h">
<polygon fill="none" stroke="#000000" points="607,-476 607,-495 740,-495 740,-476 607,-476"/>
<text text-anchor="middle" x="673.5" y="-483" font-family="FreeSans.ttf" font-size="10.00" fill="#000000">iDynTree/Core/Wrench.h</text>
</a>
</g>
</g>
<!-- Node27&#45;&gt;Node33 -->
<g id="edge61" class="edge">
<title>Node27&#45;&gt;Node33</title>
<path fill="none" stroke="#191970" d="M606,-537.3906C618.5636,-527.7324 638.1423,-512.6812 652.9849,-501.271"/>
<polygon fill="#191970" stroke="#191970" points="655.2928,-503.9115 661.0878,-495.0419 651.0265,-498.3618 655.2928,-503.9115"/>
</g>
<!-- Node29 -->
<g id="node30" class="node">
<title>Node29</title>
<g id="a_node30"><a xlink:href="RotationalInertiaRaw_8h.html" target="_top" xlink:title="iDynTree/Core/Rotational\lInertiaRaw.h">
<polygon fill="none" stroke="#000000" points="0,-336.5 0,-366.5 137,-366.5 137,-336.5 0,-336.5"/>
<text text-anchor="start" x="8" y="-354.5" font-family="FreeSans.ttf" font-size="10.00" fill="#000000">iDynTree/Core/Rotational</text>
<text text-anchor="middle" x="68.5" y="-343.5" font-family="FreeSans.ttf" font-size="10.00" fill="#000000">InertiaRaw.h</text>
</a>
</g>
</g>
<!-- Node28&#45;&gt;Node29 -->
<g id="edge52" class="edge">
<title>Node28&#45;&gt;Node29</title>
<path fill="none" stroke="#191970" d="M143.9146,-470.389C129.2477,-447.267 101.1053,-402.9012 83.6542,-375.3901"/>
<polygon fill="#191970" stroke="#191970" points="86.4928,-373.331 78.1807,-366.7614 80.5818,-377.0806 86.4928,-373.331"/>
</g>
<!-- Node29&#45;&gt;Node24 -->
<g id="edge53" class="edge">
<title>Node29&#45;&gt;Node24</title>
<path fill="none" stroke="#191970" d="M67.5936,-336.3789C66.3768,-300.9884 68.7407,-212.4152 118.5,-168 148.5924,-141.1395 250.2181,-129.9516 326.7013,-125.2989"/>
<polygon fill="#191970" stroke="#191970" points="327.0617,-128.784 336.8423,-124.7109 326.6565,-121.7957 327.0617,-128.784"/>
</g>
<!-- Node30&#45;&gt;Node1 -->
<g id="edge56" class="edge">
<title>Node30&#45;&gt;Node1</title>
<path fill="none" stroke="#191970" d="M383.851,-475.9005C407.0128,-465.9528 443.8349,-450.1382 472.9692,-437.6254"/>
<polygon fill="#191970" stroke="#191970" points="474.7168,-440.6841 482.524,-433.5218 471.9543,-434.2522 474.7168,-440.6841"/>
</g>
<!-- Node31&#45;&gt;Node26 -->
<g id="edge58" class="edge">
<title>Node31&#45;&gt;Node26</title>
<path fill="none" stroke="#191970" d="M843.9064,-475.9005C836.8584,-466.9908 826.0875,-453.3748 816.8047,-441.6399"/>
<polygon fill="#191970" stroke="#191970" points="819.332,-439.1932 810.3829,-433.5218 813.842,-443.536 819.332,-439.1932"/>
</g>
<!-- Node32&#45;&gt;Node1 -->
<g id="edge60" class="edge">
<title>Node32&#45;&gt;Node1</title>
<path fill="none" stroke="#191970" d="M514.9298,-475.9005C515.3055,-467.5099 515.8681,-454.9451 516.3713,-443.7085"/>
<polygon fill="#191970" stroke="#191970" points="519.8765,-443.6683 516.8274,-433.5218 512.8835,-443.3552 519.8765,-443.6683"/>
</g>
<!-- Node33&#45;&gt;Node26 -->
<g id="edge62" class="edge">
<title>Node33&#45;&gt;Node26</title>
<path fill="none" stroke="#191970" d="M691.4095,-475.9005C709.6459,-466.1258 738.4505,-450.6865 761.5948,-438.2812"/>
<polygon fill="#191970" stroke="#191970" points="763.314,-441.3308 770.4743,-433.5218 760.0071,-435.1612 763.314,-441.3308"/>
</g>
</g>
</svg>
