<?xml version="1.0" encoding="UTF-8" standalone="no"?>
<!DOCTYPE svg PUBLIC "-//W3C//DTD SVG 1.1//EN"
 "http://www.w3.org/Graphics/SVG/1.1/DTD/svg11.dtd">
<!-- Generated by graphviz version 2.40.1 (20161225.0304)
 -->
<!-- Title: ExternalWrenchesEstimation.h Pages: 1 -->
<svg width="1509pt" height="610pt"
 viewBox="0.00 0.00 1508.50 610.00" xmlns="http://www.w3.org/2000/svg" xmlns:xlink="http://www.w3.org/1999/xlink">
<g id="graph0" class="graph" transform="scale(1 1) rotate(0) translate(4 606)">
<title>ExternalWrenchesEstimation.h</title>
<!-- Node0 -->
<g id="node1" class="node">
<title>Node0</title>
<polygon fill="#bfbfbf" stroke="#000000" points="696.5,-582.5 696.5,-601.5 862.5,-601.5 862.5,-582.5 696.5,-582.5"/>
<text text-anchor="middle" x="779.5" y="-589.5" font-family="FreeSans.ttf" font-size="10.00" fill="#000000">ExternalWrenchesEstimation.h</text>
</g>
<!-- Node1 -->
<g id="node2" class="node">
<title>Node1</title>
<g id="a_node2"><a xlink:href="Direction_8h.html" target="_top" xlink:title="iDynTree/Core/Direction.h">
<polygon fill="none" stroke="#000000" points="923,-174 923,-193 1064,-193 1064,-174 923,-174"/>
<text text-anchor="middle" x="993.5" y="-181" font-family="FreeSans.ttf" font-size="10.00" fill="#000000">iDynTree/Core/Direction.h</text>
</a>
</g>
</g>
<!-- Node0&#45;&gt;Node1 -->
<g id="edge1" class="edge">
<title>Node0&#45;&gt;Node1</title>
<path fill="none" stroke="#191970" d="M784.5788,-582.3051C812.3296,-529.3322 945.7528,-274.6436 983.5196,-202.5514"/>
<polygon fill="#191970" stroke="#191970" points="986.8335,-203.7678 988.3737,-193.2855 980.6328,-200.5194 986.8335,-203.7678"/>
</g>
<!-- Node3 -->
<g id="node4" class="node">
<title>Node3</title>
<g id="a_node4"><a xlink:href="VectorFixSize_8h.html" target="_top" xlink:title="iDynTree/Core/VectorFixSize.h">
<polygon fill="none" stroke="#000000" points="1022,-112.5 1022,-131.5 1183,-131.5 1183,-112.5 1022,-112.5"/>
<text text-anchor="middle" x="1102.5" y="-119.5" font-family="FreeSans.ttf" font-size="10.00" fill="#000000">iDynTree/Core/VectorFixSize.h</text>
</a>
</g>
</g>
<!-- Node0&#45;&gt;Node3 -->
<g id="edge46" class="edge">
<title>Node0&#45;&gt;Node3</title>
<path fill="none" stroke="#191970" d="M862.5597,-587.6709C1052.1467,-576.6805 1500.5,-543.9312 1500.5,-480 1500.5,-480 1500.5,-480 1500.5,-301 1500.5,-215.8184 1439.123,-205.2132 1362.5,-168 1333.0959,-153.7194 1255.7579,-141.0735 1193.021,-132.6731"/>
<polygon fill="#191970" stroke="#191970" points="1193.4592,-129.2006 1183.0871,-131.3617 1192.543,-136.1404 1193.4592,-129.2006"/>
</g>
<!-- Node18 -->
<g id="node19" class="node">
<title>Node18</title>
<g id="a_node19"><a xlink:href="Position_8h.html" target="_top" xlink:title="iDynTree/Core/Position.h">
<polygon fill="none" stroke="#000000" points="633.5,-291.5 633.5,-310.5 769.5,-310.5 769.5,-291.5 633.5,-291.5"/>
<text text-anchor="middle" x="701.5" y="-298.5" font-family="FreeSans.ttf" font-size="10.00" fill="#000000">iDynTree/Core/Position.h</text>
</a>
</g>
</g>
<!-- Node0&#45;&gt;Node18 -->
<g id="edge22" class="edge">
<title>Node0&#45;&gt;Node18</title>
<path fill="none" stroke="#191970" d="M696.361,-582.4482C592.0564,-568.5518 422.234,-538.9371 384.5,-490 309.6812,-392.968 523.5221,-335.4393 636.521,-312.5398"/>
<polygon fill="#191970" stroke="#191970" points="637.3413,-315.9453 646.466,-310.5609 635.9752,-309.0799 637.3413,-315.9453"/>
</g>
<!-- Node25 -->
<g id="node26" class="node">
<title>Node25</title>
<g id="a_node26"><a xlink:href="MatrixDynSize_8h.html" target="_top" xlink:title="iDynTree/Core/MatrixDynSize.h">
<polygon fill="none" stroke="#000000" points="0,-291.5 0,-310.5 167,-310.5 167,-291.5 0,-291.5"/>
<text text-anchor="middle" x="83.5" y="-298.5" font-family="FreeSans.ttf" font-size="10.00" fill="#000000">iDynTree/Core/MatrixDynSize.h</text>
</a>
</g>
</g>
<!-- Node0&#45;&gt;Node25 -->
<g id="edge41" class="edge">
<title>Node0&#45;&gt;Node25</title>
<path fill="none" stroke="#191970" d="M696.243,-586.8235C578.2885,-579.0241 368.6253,-563.3177 294.5,-546 214.3637,-527.2779 121.5,-562.2943 121.5,-480 121.5,-480 121.5,-480 121.5,-418.5 121.5,-382.2454 104.9195,-342.6181 93.663,-319.8929"/>
<polygon fill="#191970" stroke="#191970" points="96.6292,-318.0073 88.9445,-310.7137 90.4035,-321.2076 96.6292,-318.0073"/>
</g>
<!-- Node26 -->
<g id="node27" class="node">
<title>Node26</title>
<g id="a_node27"><a xlink:href="VectorDynSize_8h.html" target="_top" xlink:title="iDynTree/Core/VectorDynSize.h">
<polygon fill="none" stroke="#000000" points="298,-112.5 298,-131.5 465,-131.5 465,-112.5 298,-112.5"/>
<text text-anchor="middle" x="381.5" y="-119.5" font-family="FreeSans.ttf" font-size="10.00" fill="#000000">iDynTree/Core/VectorDynSize.h</text>
</a>
</g>
</g>
<!-- Node0&#45;&gt;Node26 -->
<g id="edge43" class="edge">
<title>Node0&#45;&gt;Node26</title>
<path fill="none" stroke="#191970" d="M696.3789,-589.1598C561.1641,-582.2506 308.5,-558.7977 308.5,-480 308.5,-480 308.5,-480 308.5,-245 308.5,-209.7513 308.9687,-197.9843 327.5,-168 334.8851,-156.0507 346.4093,-145.6176 356.9182,-137.7218"/>
<polygon fill="#191970" stroke="#191970" points="359.2631,-140.3496 365.3937,-131.7086 355.2126,-134.6405 359.2631,-140.3496"/>
</g>
<!-- Node27 -->
<g id="node28" class="node">
<title>Node27</title>
<g id="a_node28"><a xlink:href="Indices_8h.html" target="_top" xlink:title="iDynTree/Model/Indices.h">
<polygon fill="none" stroke="#000000" points="393.5,-470.5 393.5,-489.5 531.5,-489.5 531.5,-470.5 393.5,-470.5"/>
<text text-anchor="middle" x="462.5" y="-477.5" font-family="FreeSans.ttf" font-size="10.00" fill="#000000">iDynTree/Model/Indices.h</text>
</a>
</g>
</g>
<!-- Node0&#45;&gt;Node27 -->
<g id="edge47" class="edge">
<title>Node0&#45;&gt;Node27</title>
<path fill="none" stroke="#191970" d="M752.4728,-582.4509C695.6239,-562.3655 563.624,-515.7284 499.1969,-492.9655"/>
<polygon fill="#191970" stroke="#191970" points="500.0536,-489.5562 489.4588,-489.5249 497.7217,-496.1563 500.0536,-489.5562"/>
</g>
<!-- Node29 -->
<g id="node30" class="node">
<title>Node29</title>
<g id="a_node30"><a xlink:href="LinkState_8h.html" target="_top" xlink:title="iDynTree/Model/LinkState.h">
<polygon fill="none" stroke="#000000" points="920,-526.5 920,-545.5 1069,-545.5 1069,-526.5 920,-526.5"/>
<text text-anchor="middle" x="994.5" y="-533.5" font-family="FreeSans.ttf" font-size="10.00" fill="#000000">iDynTree/Model/LinkState.h</text>
</a>
</g>
</g>
<!-- Node0&#45;&gt;Node29 -->
<g id="edge50" class="edge">
<title>Node0&#45;&gt;Node29</title>
<path fill="none" stroke="#191970" d="M816.4598,-582.3733C852.9075,-572.8799 908.7246,-558.3415 948.1289,-548.0781"/>
<polygon fill="#191970" stroke="#191970" points="949.2276,-551.4087 958.0225,-545.5011 947.4631,-544.6348 949.2276,-551.4087"/>
</g>
<!-- Node38 -->
<g id="node39" class="node">
<title>Node38</title>
<polygon fill="none" stroke="#bfbfbf" points="1401,-470.5 1401,-489.5 1448,-489.5 1448,-470.5 1401,-470.5"/>
<text text-anchor="middle" x="1424.5" y="-477.5" font-family="FreeSans.ttf" font-size="10.00" fill="#000000">vector</text>
</g>
<!-- Node0&#45;&gt;Node38 -->
<g id="edge79" class="edge">
<title>Node0&#45;&gt;Node38</title>
<path fill="none" stroke="#191970" d="M858.4642,-582.4617C973.7941,-567.7303 1194.9491,-536.4522 1390.8963,-489.9153"/>
<polygon fill="#191970" stroke="#191970" points="1391.8874,-493.277 1400.798,-487.5453 1390.2579,-486.4693 1391.8874,-493.277"/>
</g>
<!-- Node2 -->
<g id="node3" class="node">
<title>Node2</title>
<polygon fill="none" stroke="#bfbfbf" points="496.5,-56.5 496.5,-75.5 540.5,-75.5 540.5,-56.5 496.5,-56.5"/>
<text text-anchor="middle" x="518.5" y="-63.5" font-family="FreeSans.ttf" font-size="10.00" fill="#000000">string</text>
</g>
<!-- Node1&#45;&gt;Node2 -->
<g id="edge2" class="edge">
<title>Node1&#45;&gt;Node2</title>
<path fill="none" stroke="#191970" d="M955.0311,-173.984C863.6511,-151.3795 634.8976,-94.7931 550.4638,-73.9068"/>
<polygon fill="#191970" stroke="#191970" points="551.2204,-70.4886 540.6725,-71.4848 549.5394,-77.2837 551.2204,-70.4886"/>
</g>
<!-- Node1&#45;&gt;Node3 -->
<g id="edge3" class="edge">
<title>Node1&#45;&gt;Node3</title>
<path fill="none" stroke="#191970" d="M1010.5313,-173.8906C1028.289,-163.8713 1056.333,-148.0483 1076.7882,-136.5071"/>
<polygon fill="#191970" stroke="#191970" points="1078.5989,-139.5042 1085.5883,-131.5419 1075.1591,-133.4077 1078.5989,-139.5042"/>
</g>
<!-- Node4 -->
<g id="node5" class="node">
<title>Node4</title>
<g id="a_node5"><a xlink:href="Utils_8h.html" target="_top" xlink:title="iDynTree/Core/Utils.h">
<polygon fill="none" stroke="#000000" points="934,-56.5 934,-75.5 1053,-75.5 1053,-56.5 934,-56.5"/>
<text text-anchor="middle" x="993.5" y="-63.5" font-family="FreeSans.ttf" font-size="10.00" fill="#000000">iDynTree/Core/Utils.h</text>
</a>
</g>
</g>
<!-- Node1&#45;&gt;Node4 -->
<g id="edge21" class="edge">
<title>Node1&#45;&gt;Node4</title>
<path fill="none" stroke="#191970" d="M993.5,-173.8845C993.5,-154.6913 993.5,-111.286 993.5,-85.7663"/>
<polygon fill="#191970" stroke="#191970" points="997.0001,-85.7483 993.5,-75.7484 990.0001,-85.7484 997.0001,-85.7483"/>
</g>
<!-- Node3&#45;&gt;Node2 -->
<g id="edge17" class="edge">
<title>Node3&#45;&gt;Node2</title>
<path fill="none" stroke="#191970" d="M1021.891,-115.6847C882.8329,-104.7043 608.4724,-82.6313 564.5,-76 560.0149,-75.3236 555.3125,-74.4705 550.6977,-73.5491"/>
<polygon fill="#191970" stroke="#191970" points="551.362,-70.1122 540.8539,-71.4649 549.912,-76.9604 551.362,-70.1122"/>
</g>
<!-- Node3&#45;&gt;Node4 -->
<g id="edge4" class="edge">
<title>Node3&#45;&gt;Node4</title>
<path fill="none" stroke="#191970" d="M1083.5136,-112.2455C1066.3208,-103.4125 1040.7762,-90.2887 1021.2868,-80.2758"/>
<polygon fill="#191970" stroke="#191970" points="1022.763,-77.0993 1012.2688,-75.6427 1019.5641,-83.3257 1022.763,-77.0993"/>
</g>
<!-- Node7 -->
<g id="node8" class="node">
<title>Node7</title>
<g id="a_node8"><a xlink:href="Span_8h.html" target="_top" xlink:title="iDynTree/Core/Span.h">
<polygon fill="none" stroke="#000000" points="573,-56.5 573,-75.5 694,-75.5 694,-56.5 573,-56.5"/>
<text text-anchor="middle" x="633.5" y="-63.5" font-family="FreeSans.ttf" font-size="10.00" fill="#000000">iDynTree/Core/Span.h</text>
</a>
</g>
</g>
<!-- Node3&#45;&gt;Node7 -->
<g id="edge7" class="edge">
<title>Node3&#45;&gt;Node7</title>
<path fill="none" stroke="#191970" d="M1022.6749,-112.4686C933.3483,-101.8028 789.971,-84.6831 704.4356,-74.4699"/>
<polygon fill="#191970" stroke="#191970" points="704.6432,-70.9699 694.2988,-73.2596 703.8132,-77.9206 704.6432,-70.9699"/>
</g>
<!-- Node8 -->
<g id="node9" class="node">
<title>Node8</title>
<polygon fill="none" stroke="#bfbfbf" points="895.5,-.5 895.5,-19.5 947.5,-19.5 947.5,-.5 895.5,-.5"/>
<text text-anchor="middle" x="921.5" y="-7.5" font-family="FreeSans.ttf" font-size="10.00" fill="#000000">cassert</text>
</g>
<!-- Node3&#45;&gt;Node8 -->
<g id="edge19" class="edge">
<title>Node3&#45;&gt;Node8</title>
<path fill="none" stroke="#191970" d="M1148.6999,-112.4138C1189.1464,-101.9751 1238.0563,-83.0715 1214.5,-56 1178.3555,-14.4619 1028.7901,-30.2127 958.0239,-19.7609"/>
<polygon fill="#191970" stroke="#191970" points="958.2338,-16.2432 947.7745,-17.9329 957.0046,-23.1344 958.2338,-16.2432"/>
</g>
<!-- Node16 -->
<g id="node17" class="node">
<title>Node16</title>
<polygon fill="none" stroke="#bfbfbf" points="1149.5,-56.5 1149.5,-75.5 1205.5,-75.5 1205.5,-56.5 1149.5,-56.5"/>
<text text-anchor="middle" x="1177.5" y="-63.5" font-family="FreeSans.ttf" font-size="10.00" fill="#000000">sstream</text>
</g>
<!-- Node3&#45;&gt;Node16 -->
<g id="edge18" class="edge">
<title>Node3&#45;&gt;Node16</title>
<path fill="none" stroke="#191970" d="M1115.564,-112.2455C1126.8562,-103.814 1143.3845,-91.4729 1156.5271,-81.6598"/>
<polygon fill="#191970" stroke="#191970" points="1158.6669,-84.4301 1164.5857,-75.6427 1154.4789,-78.8211 1158.6669,-84.4301"/>
</g>
<!-- Node17 -->
<g id="node18" class="node">
<title>Node17</title>
<polygon fill="none" stroke="#bfbfbf" points="865.5,-56.5 865.5,-75.5 915.5,-75.5 915.5,-56.5 865.5,-56.5"/>
<text text-anchor="middle" x="890.5" y="-63.5" font-family="FreeSans.ttf" font-size="10.00" fill="#000000">cstring</text>
</g>
<!-- Node3&#45;&gt;Node17 -->
<g id="edge20" class="edge">
<title>Node3&#45;&gt;Node17</title>
<path fill="none" stroke="#191970" d="M1064.7943,-112.4804C1028.9127,-103.3553 973.4375,-89.0753 925.5,-76 925.4009,-75.973 925.3017,-75.9459 925.2023,-75.9188"/>
<polygon fill="#191970" stroke="#191970" points="926.2868,-72.5876 915.7148,-73.2825 924.4127,-79.332 926.2868,-72.5876"/>
</g>
<!-- Node5 -->
<g id="node6" class="node">
<title>Node5</title>
<polygon fill="none" stroke="#bfbfbf" points="824,-.5 824,-19.5 877,-19.5 877,-.5 824,-.5"/>
<text text-anchor="middle" x="850.5" y="-7.5" font-family="FreeSans.ttf" font-size="10.00" fill="#000000">cstddef</text>
</g>
<!-- Node4&#45;&gt;Node5 -->
<g id="edge5" class="edge">
<title>Node4&#45;&gt;Node5</title>
<path fill="none" stroke="#191970" d="M968.9174,-56.3733C945.5504,-47.2226 910.2138,-33.3844 884.2216,-23.2057"/>
<polygon fill="#191970" stroke="#191970" points="885.3495,-19.8886 874.7618,-19.5011 882.797,-26.4066 885.3495,-19.8886"/>
</g>
<!-- Node6 -->
<g id="node7" class="node">
<title>Node6</title>
<polygon fill="none" stroke="#bfbfbf" points="965.5,-.5 965.5,-19.5 1045.5,-19.5 1045.5,-.5 965.5,-.5"/>
<text text-anchor="middle" x="1005.5" y="-7.5" font-family="FreeSans.ttf" font-size="10.00" fill="#000000">CoreExport.h</text>
</g>
<!-- Node4&#45;&gt;Node6 -->
<g id="edge6" class="edge">
<title>Node4&#45;&gt;Node6</title>
<path fill="none" stroke="#191970" d="M995.5902,-56.2455C997.1561,-48.9382 999.3512,-38.6944 1001.2776,-29.7046"/>
<polygon fill="#191970" stroke="#191970" points="1004.7607,-30.1541 1003.4337,-19.6427 997.916,-28.6873 1004.7607,-30.1541"/>
</g>
<!-- Node7&#45;&gt;Node5 -->
<g id="edge11" class="edge">
<title>Node7&#45;&gt;Node5</title>
<path fill="none" stroke="#191970" d="M672.6433,-56.4756C707.4704,-47.919 760.0302,-34.8055 814.0315,-20.3467"/>
<polygon fill="#191970" stroke="#191970" points="815.0221,-23.7047 823.7705,-17.7284 813.2047,-16.9447 815.0221,-23.7047"/>
</g>
<!-- Node7&#45;&gt;Node8 -->
<g id="edge8" class="edge">
<title>Node7&#45;&gt;Node8</title>
<path fill="none" stroke="#191970" d="M694.1643,-56.6926C743.3201,-48.7588 814.5358,-36.3807 885.2298,-20.133"/>
<polygon fill="#191970" stroke="#191970" points="886.2518,-23.4888 895.1992,-17.8148 884.6663,-16.6708 886.2518,-23.4888"/>
</g>
<!-- Node9 -->
<g id="node10" class="node">
<title>Node9</title>
<polygon fill="none" stroke="#bfbfbf" points="464.5,-.5 464.5,-19.5 528.5,-19.5 528.5,-.5 464.5,-.5"/>
<text text-anchor="middle" x="496.5" y="-7.5" font-family="FreeSans.ttf" font-size="10.00" fill="#000000">algorithm</text>
</g>
<!-- Node7&#45;&gt;Node9 -->
<g id="edge9" class="edge">
<title>Node7&#45;&gt;Node9</title>
<path fill="none" stroke="#191970" d="M609.9489,-56.3733C587.6609,-47.2629 554.0063,-33.5062 529.1363,-23.3404"/>
<polygon fill="#191970" stroke="#191970" points="530.3247,-20.0451 519.7438,-19.5011 527.6761,-26.5247 530.3247,-20.0451"/>
</g>
<!-- Node10 -->
<g id="node11" class="node">
<title>Node10</title>
<polygon fill="none" stroke="#bfbfbf" points="546.5,-.5 546.5,-19.5 588.5,-19.5 588.5,-.5 546.5,-.5"/>
<text text-anchor="middle" x="567.5" y="-7.5" font-family="FreeSans.ttf" font-size="10.00" fill="#000000">array</text>
</g>
<!-- Node7&#45;&gt;Node10 -->
<g id="edge10" class="edge">
<title>Node7&#45;&gt;Node10</title>
<path fill="none" stroke="#191970" d="M622.0037,-56.2455C612.2558,-47.9746 598.0741,-35.9416 586.6202,-26.2232"/>
<polygon fill="#191970" stroke="#191970" points="588.7541,-23.4437 578.8646,-19.6427 584.2253,-28.7813 588.7541,-23.4437"/>
</g>
<!-- Node11 -->
<g id="node12" class="node">
<title>Node11</title>
<polygon fill="none" stroke="#bfbfbf" points="607,-.5 607,-19.5 660,-19.5 660,-.5 607,-.5"/>
<text text-anchor="middle" x="633.5" y="-7.5" font-family="FreeSans.ttf" font-size="10.00" fill="#000000">iterator</text>
</g>
<!-- Node7&#45;&gt;Node11 -->
<g id="edge12" class="edge">
<title>Node7&#45;&gt;Node11</title>
<path fill="none" stroke="#191970" d="M633.5,-56.2455C633.5,-48.9382 633.5,-38.6944 633.5,-29.7046"/>
<polygon fill="#191970" stroke="#191970" points="637.0001,-29.6426 633.5,-19.6427 630.0001,-29.6427 637.0001,-29.6426"/>
</g>
<!-- Node12 -->
<g id="node13" class="node">
<title>Node12</title>
<polygon fill="none" stroke="#bfbfbf" points="678.5,-.5 678.5,-19.5 722.5,-19.5 722.5,-.5 678.5,-.5"/>
<text text-anchor="middle" x="700.5" y="-7.5" font-family="FreeSans.ttf" font-size="10.00" fill="#000000">limits</text>
</g>
<!-- Node7&#45;&gt;Node12 -->
<g id="edge13" class="edge">
<title>Node7&#45;&gt;Node12</title>
<path fill="none" stroke="#191970" d="M645.1705,-56.2455C655.0661,-47.9746 669.4627,-35.9416 681.0901,-26.2232"/>
<polygon fill="#191970" stroke="#191970" points="683.535,-28.7413 688.9632,-19.6427 679.0458,-23.3703 683.535,-28.7413"/>
</g>
<!-- Node13 -->
<g id="node14" class="node">
<title>Node13</title>
<polygon fill="none" stroke="#bfbfbf" points="741,-.5 741,-19.5 806,-19.5 806,-.5 741,-.5"/>
<text text-anchor="middle" x="773.5" y="-7.5" font-family="FreeSans.ttf" font-size="10.00" fill="#000000">stdexcept</text>
</g>
<!-- Node7&#45;&gt;Node13 -->
<g id="edge14" class="edge">
<title>Node7&#45;&gt;Node13</title>
<path fill="none" stroke="#191970" d="M657.5669,-56.3733C680.3428,-47.2629 714.7344,-33.5062 740.149,-23.3404"/>
<polygon fill="#191970" stroke="#191970" points="741.7623,-26.4648 749.7472,-19.5011 739.1625,-19.9654 741.7623,-26.4648"/>
</g>
<!-- Node14 -->
<g id="node15" class="node">
<title>Node14</title>
<polygon fill="none" stroke="#bfbfbf" points="314,-.5 314,-19.5 383,-19.5 383,-.5 314,-.5"/>
<text text-anchor="middle" x="348.5" y="-7.5" font-family="FreeSans.ttf" font-size="10.00" fill="#000000">type_traits</text>
</g>
<!-- Node7&#45;&gt;Node14 -->
<g id="edge15" class="edge">
<title>Node7&#45;&gt;Node14</title>
<path fill="none" stroke="#191970" d="M580.0269,-56.4804C533.1137,-47.9826 462.8122,-34.8965 393.0452,-20.2724"/>
<polygon fill="#191970" stroke="#191970" points="393.7137,-16.8364 383.2069,-18.1989 392.2701,-23.686 393.7137,-16.8364"/>
</g>
<!-- Node15 -->
<g id="node16" class="node">
<title>Node15</title>
<polygon fill="none" stroke="#bfbfbf" points="401,-.5 401,-19.5 446,-19.5 446,-.5 401,-.5"/>
<text text-anchor="middle" x="423.5" y="-7.5" font-family="FreeSans.ttf" font-size="10.00" fill="#000000">utility</text>
</g>
<!-- Node7&#45;&gt;Node15 -->
<g id="edge16" class="edge">
<title>Node7&#45;&gt;Node15</title>
<path fill="none" stroke="#191970" d="M594.1078,-56.4203C559.9856,-47.9882 509.0933,-35.0926 455.8049,-19.9867"/>
<polygon fill="#191970" stroke="#191970" points="456.7601,-16.6196 446.1836,-17.2424 454.84,-23.3511 456.7601,-16.6196"/>
</g>
<!-- Node18&#45;&gt;Node2 -->
<g id="edge40" class="edge">
<title>Node18&#45;&gt;Node2</title>
<path fill="none" stroke="#191970" d="M647.3374,-291.4571C556.3293,-274.5794 377.7399,-237.5866 327.5,-199 300.1744,-178.0126 297.4767,-165.2653 288.5,-132 286.1842,-123.4181 282.8645,-118.8742 288.5,-112 313.1176,-81.9714 428.6981,-71.1546 486.0528,-67.5904"/>
<polygon fill="#191970" stroke="#191970" points="486.5974,-71.0647 496.3767,-66.9885 486.1899,-64.0766 486.5974,-71.0647"/>
</g>
<!-- Node19 -->
<g id="node20" class="node">
<title>Node19</title>
<g id="a_node20"><a xlink:href="PositionRaw_8h.html" target="_top" xlink:title="iDynTree/Core/PositionRaw.h">
<polygon fill="none" stroke="#000000" points="710.5,-174 710.5,-193 866.5,-193 866.5,-174 710.5,-174"/>
<text text-anchor="middle" x="788.5" y="-181" font-family="FreeSans.ttf" font-size="10.00" fill="#000000">iDynTree/Core/PositionRaw.h</text>
</a>
</g>
</g>
<!-- Node18&#45;&gt;Node19 -->
<g id="edge23" class="edge">
<title>Node18&#45;&gt;Node19</title>
<path fill="none" stroke="#191970" d="M702.372,-291.2262C703.996,-277.5722 708.4905,-252.4996 720.5,-235 730.8796,-219.8753 747.1347,-207.33 761.1494,-198.4088"/>
<polygon fill="#191970" stroke="#191970" points="763.2102,-201.2527 769.9513,-193.0791 759.5844,-195.2649 763.2102,-201.2527"/>
</g>
<!-- Node20 -->
<g id="node21" class="node">
<title>Node20</title>
<g id="a_node21"><a xlink:href="Rotation_8h.html" target="_top" xlink:title="iDynTree/Core/Rotation.h">
<polygon fill="none" stroke="#000000" points="729,-235.5 729,-254.5 866,-254.5 866,-235.5 729,-235.5"/>
<text text-anchor="middle" x="797.5" y="-242.5" font-family="FreeSans.ttf" font-size="10.00" fill="#000000">iDynTree/Core/Rotation.h</text>
</a>
</g>
</g>
<!-- Node18&#45;&gt;Node20 -->
<g id="edge26" class="edge">
<title>Node18&#45;&gt;Node20</title>
<path fill="none" stroke="#191970" d="M718.2219,-291.2455C733.0889,-282.5731 755.0466,-269.7645 772.0858,-259.825"/>
<polygon fill="#191970" stroke="#191970" points="774.0955,-262.7047 780.9697,-254.6427 770.5683,-256.6582 774.0955,-262.7047"/>
</g>
<!-- Node19&#45;&gt;Node2 -->
<g id="edge25" class="edge">
<title>Node19&#45;&gt;Node2</title>
<path fill="none" stroke="#191970" d="M766.4048,-173.8845C718.5237,-153.0474 605.0672,-103.6728 549.8174,-79.6289"/>
<polygon fill="#191970" stroke="#191970" points="551.0879,-76.3647 540.5219,-75.5836 548.2946,-82.7833 551.0879,-76.3647"/>
</g>
<!-- Node19&#45;&gt;Node3 -->
<g id="edge24" class="edge">
<title>Node19&#45;&gt;Node3</title>
<path fill="none" stroke="#191970" d="M837.218,-173.9581C892.9903,-163.0345 984.3075,-145.1492 1043.9128,-133.4749"/>
<polygon fill="#191970" stroke="#191970" points="1044.7853,-136.8706 1053.9261,-131.5137 1043.4398,-130.0011 1044.7853,-136.8706"/>
</g>
<!-- Node20&#45;&gt;Node2 -->
<g id="edge27" class="edge">
<title>Node20&#45;&gt;Node2</title>
<path fill="none" stroke="#191970" d="M728.7914,-242.8767C657.1834,-239.0803 551.7878,-228.4976 525.5,-199 497.6591,-167.7597 505.6835,-114.2208 512.7779,-85.5237"/>
<polygon fill="#191970" stroke="#191970" points="516.2513,-86.0849 515.4679,-75.519 509.4913,-84.2673 516.2513,-86.0849"/>
</g>
<!-- Node20&#45;&gt;Node3 -->
<g id="edge39" class="edge">
<title>Node20&#45;&gt;Node3</title>
<path fill="none" stroke="#191970" d="M866.2419,-241.2933C937.4711,-236.1274 1042.6308,-224.3674 1073.5,-199 1090.6921,-184.872 1097.6993,-159.4265 1100.5509,-141.6683"/>
<polygon fill="#191970" stroke="#191970" points="1104.0492,-141.9073 1101.8668,-131.5397 1097.1075,-141.0054 1104.0492,-141.9073"/>
</g>
<!-- Node21 -->
<g id="node22" class="node">
<title>Node21</title>
<g id="a_node22"><a xlink:href="GeomVector3_8h.html" target="_top" xlink:title="iDynTree/Core/GeomVector3.h">
<polygon fill="none" stroke="#000000" points="1159,-174 1159,-193 1322,-193 1322,-174 1159,-174"/>
<text text-anchor="middle" x="1240.5" y="-181" font-family="FreeSans.ttf" font-size="10.00" fill="#000000">iDynTree/Core/GeomVector3.h</text>
</a>
</g>
</g>
<!-- Node20&#45;&gt;Node21 -->
<g id="edge28" class="edge">
<title>Node20&#45;&gt;Node21</title>
<path fill="none" stroke="#191970" d="M866.2327,-235.4581C946.2184,-224.354 1078.0234,-206.056 1161.9763,-194.4011"/>
<polygon fill="#191970" stroke="#191970" points="1162.5469,-197.8556 1171.9706,-193.0137 1161.5843,-190.9221 1162.5469,-197.8556"/>
</g>
<!-- Node22 -->
<g id="node23" class="node">
<title>Node22</title>
<g id="a_node23"><a xlink:href="RotationRaw_8h.html" target="_top" xlink:title="iDynTree/Core/RotationRaw.h">
<polygon fill="none" stroke="#000000" points="534.5,-174 534.5,-193 692.5,-193 692.5,-174 534.5,-174"/>
<text text-anchor="middle" x="613.5" y="-181" font-family="FreeSans.ttf" font-size="10.00" fill="#000000">iDynTree/Core/RotationRaw.h</text>
</a>
</g>
</g>
<!-- Node20&#45;&gt;Node22 -->
<g id="edge30" class="edge">
<title>Node20&#45;&gt;Node22</title>
<path fill="none" stroke="#191970" d="M768.75,-235.3906C737.2883,-224.8749 686.6992,-207.966 651.8686,-196.3243"/>
<polygon fill="#191970" stroke="#191970" points="652.6419,-192.8925 642.0481,-193.0419 650.4228,-199.5315 652.6419,-192.8925"/>
</g>
<!-- Node21&#45;&gt;Node3 -->
<g id="edge29" class="edge">
<title>Node21&#45;&gt;Node3</title>
<path fill="none" stroke="#191970" d="M1218.9375,-173.8906C1195.9488,-163.6457 1159.344,-147.3326 1133.3176,-135.7339"/>
<polygon fill="#191970" stroke="#191970" points="1134.4698,-132.4156 1123.9111,-131.5419 1131.6204,-138.8095 1134.4698,-132.4156"/>
</g>
<!-- Node22&#45;&gt;Node2 -->
<g id="edge38" class="edge">
<title>Node22&#45;&gt;Node2</title>
<path fill="none" stroke="#191970" d="M605.7258,-173.8845C589.7904,-154.1749 553.2116,-108.9328 532.8479,-83.7461"/>
<polygon fill="#191970" stroke="#191970" points="535.3906,-81.3242 526.3817,-75.7484 529.9472,-85.7252 535.3906,-81.3242"/>
</g>
<!-- Node23 -->
<g id="node24" class="node">
<title>Node23</title>
<g id="a_node24"><a xlink:href="MatrixFixSize_8h.html" target="_top" xlink:title="iDynTree/Core/MatrixFixSize.h">
<polygon fill="none" stroke="#000000" points="804,-112.5 804,-131.5 965,-131.5 965,-112.5 804,-112.5"/>
<text text-anchor="middle" x="884.5" y="-119.5" font-family="FreeSans.ttf" font-size="10.00" fill="#000000">iDynTree/Core/MatrixFixSize.h</text>
</a>
</g>
</g>
<!-- Node22&#45;&gt;Node23 -->
<g id="edge31" class="edge">
<title>Node22&#45;&gt;Node23</title>
<path fill="none" stroke="#191970" d="M655.5464,-173.9581C703.2136,-163.1406 780.9651,-145.4959 832.4293,-133.8168"/>
<polygon fill="#191970" stroke="#191970" points="833.3775,-137.1907 842.355,-131.5643 831.8283,-130.3642 833.3775,-137.1907"/>
</g>
<!-- Node23&#45;&gt;Node2 -->
<g id="edge35" class="edge">
<title>Node23&#45;&gt;Node2</title>
<path fill="none" stroke="#191970" d="M807.3081,-112.4722C742.339,-104.0779 647.0773,-90.8915 564.5,-76 560.0362,-75.195 555.3458,-74.2691 550.7369,-73.3124"/>
<polygon fill="#191970" stroke="#191970" points="551.4084,-69.8769 540.897,-71.2042 549.9419,-76.7216 551.4084,-69.8769"/>
</g>
<!-- Node23&#45;&gt;Node4 -->
<g id="edge32" class="edge">
<title>Node23&#45;&gt;Node4</title>
<path fill="none" stroke="#191970" d="M903.4864,-112.2455C920.6792,-103.4125 946.2238,-90.2887 965.7132,-80.2758"/>
<polygon fill="#191970" stroke="#191970" points="967.4359,-83.3257 974.7312,-75.6427 964.237,-77.0993 967.4359,-83.3257"/>
</g>
<!-- Node23&#45;&gt;Node8 -->
<g id="edge33" class="edge">
<title>Node23&#45;&gt;Node8</title>
<path fill="none" stroke="#191970" d="M875.0567,-112.3925C863.4427,-99.3556 846.4334,-75.4565 856.5,-56 863.5546,-42.365 876.7195,-31.9036 889.3663,-24.4282"/>
<polygon fill="#191970" stroke="#191970" points="891.2837,-27.3692 898.3888,-19.5099 887.9334,-21.2231 891.2837,-27.3692"/>
</g>
<!-- Node23&#45;&gt;Node16 -->
<g id="edge37" class="edge">
<title>Node23&#45;&gt;Node16</title>
<path fill="none" stroke="#191970" d="M946.0931,-112.4618C995.7968,-104.4162 1067.7076,-91.9932 1139.1981,-76.1533"/>
<polygon fill="#191970" stroke="#191970" points="1140.287,-79.4962 1149.2806,-73.8956 1138.7574,-72.6654 1140.287,-79.4962"/>
</g>
<!-- Node23&#45;&gt;Node17 -->
<g id="edge34" class="edge">
<title>Node23&#45;&gt;Node17</title>
<path fill="none" stroke="#191970" d="M885.5451,-112.2455C886.328,-104.9382 887.4256,-94.6944 888.3888,-85.7046"/>
<polygon fill="#191970" stroke="#191970" points="891.8815,-85.9587 889.4669,-75.6427 884.9214,-85.2129 891.8815,-85.9587"/>
</g>
<!-- Node24 -->
<g id="node25" class="node">
<title>Node24</title>
<polygon fill="none" stroke="#bfbfbf" points="1071.5,-56.5 1071.5,-75.5 1131.5,-75.5 1131.5,-56.5 1071.5,-56.5"/>
<text text-anchor="middle" x="1101.5" y="-63.5" font-family="FreeSans.ttf" font-size="10.00" fill="#000000">iostream</text>
</g>
<!-- Node23&#45;&gt;Node24 -->
<g id="edge36" class="edge">
<title>Node23&#45;&gt;Node24</title>
<path fill="none" stroke="#191970" d="M921.8036,-112.3733C960.7084,-102.3333 1021.4787,-86.6507 1061.3954,-76.3496"/>
<polygon fill="#191970" stroke="#191970" points="1062.5091,-79.6769 1071.3173,-73.7891 1060.7599,-72.899 1062.5091,-79.6769"/>
</g>
<!-- Node25&#45;&gt;Node2 -->
<g id="edge42" class="edge">
<title>Node25&#45;&gt;Node2</title>
<path fill="none" stroke="#191970" d="M85.2739,-291.0896C91.5787,-259.0335 116.0777,-157.5982 180.5,-112 229.2216,-77.5147 410.7956,-68.8168 485.7833,-66.6772"/>
<polygon fill="#191970" stroke="#191970" points="486.1408,-70.1691 496.0452,-66.4068 485.9564,-63.1715 486.1408,-70.1691"/>
</g>
<!-- Node26&#45;&gt;Node2 -->
<g id="edge45" class="edge">
<title>Node26&#45;&gt;Node2</title>
<path fill="none" stroke="#191970" d="M405.0511,-112.3733C427.6092,-103.1524 461.8112,-89.1721 486.7642,-78.9723"/>
<polygon fill="#191970" stroke="#191970" points="488.2311,-82.1539 496.1634,-75.1303 485.5825,-75.6743 488.2311,-82.1539"/>
</g>
<!-- Node26&#45;&gt;Node7 -->
<g id="edge44" class="edge">
<title>Node26&#45;&gt;Node7</title>
<path fill="none" stroke="#191970" d="M424.534,-112.4369C467.7525,-102.8328 534.4141,-88.0191 580.7818,-77.7152"/>
<polygon fill="#191970" stroke="#191970" points="581.6409,-81.1097 590.6435,-75.5237 580.1223,-74.2764 581.6409,-81.1097"/>
</g>
<!-- Node27&#45;&gt;Node2 -->
<g id="edge48" class="edge">
<title>Node27&#45;&gt;Node2</title>
<path fill="none" stroke="#191970" d="M433.8193,-470.4766C364.6826,-445.5119 194.5,-371.2389 194.5,-245 194.5,-245 194.5,-245 194.5,-183.5 194.5,-143.1356 215.8414,-132.6897 250.5,-112 289.872,-88.4966 423.8128,-74.1754 486.1267,-68.6348"/>
<polygon fill="#191970" stroke="#191970" points="486.5303,-72.113 496.1901,-67.7613 485.9249,-65.1393 486.5303,-72.113"/>
</g>
<!-- Node28 -->
<g id="node29" class="node">
<title>Node28</title>
<polygon fill="none" stroke="#bfbfbf" points="431.5,-409 431.5,-428 517.5,-428 517.5,-409 431.5,-409"/>
<text text-anchor="middle" x="474.5" y="-416" font-family="FreeSans.ttf" font-size="10.00" fill="#000000">ModelExport.h</text>
</g>
<!-- Node27&#45;&gt;Node28 -->
<g id="edge49" class="edge">
<title>Node27&#45;&gt;Node28</title>
<path fill="none" stroke="#191970" d="M464.375,-470.3906C466.0559,-461.776 468.574,-448.8708 470.6784,-438.0858"/>
<polygon fill="#191970" stroke="#191970" points="474.1186,-438.7301 472.5986,-428.2449 467.2482,-437.3895 474.1186,-438.7301"/>
</g>
<!-- Node29&#45;&gt;Node27 -->
<g id="edge77" class="edge">
<title>Node29&#45;&gt;Node27</title>
<path fill="none" stroke="#191970" d="M919.7775,-528.7554C830.6323,-520.0175 677.1124,-504.6691 545.5,-490 544.3821,-489.8754 543.2558,-489.7492 542.1227,-489.6216"/>
<polygon fill="#191970" stroke="#191970" points="542.1134,-486.0978 531.7808,-488.4406 541.3191,-493.0526 542.1134,-486.0978"/>
</g>
<!-- Node30 -->
<g id="node31" class="node">
<title>Node30</title>
<g id="a_node31"><a xlink:href="Transform_8h.html" target="_top" xlink:title="iDynTree/Core/Transform.h">
<polygon fill="none" stroke="#000000" points="724.5,-347.5 724.5,-366.5 870.5,-366.5 870.5,-347.5 724.5,-347.5"/>
<text text-anchor="middle" x="797.5" y="-354.5" font-family="FreeSans.ttf" font-size="10.00" fill="#000000">iDynTree/Core/Transform.h</text>
</a>
</g>
</g>
<!-- Node29&#45;&gt;Node30 -->
<g id="edge51" class="edge">
<title>Node29&#45;&gt;Node30</title>
<path fill="none" stroke="#191970" d="M980.8009,-526.2036C968.4036,-517.1744 949.7985,-503.2117 934.5,-490 888.7995,-450.5333 838.772,-399.8935 813.7135,-373.9631"/>
<polygon fill="#191970" stroke="#191970" points="816.2268,-371.5272 806.7707,-366.7487 811.183,-376.3811 816.2268,-371.5272"/>
</g>
<!-- Node31 -->
<g id="node32" class="node">
<title>Node31</title>
<g id="a_node32"><a xlink:href="Twist_8h.html" target="_top" xlink:title="iDynTree/Core/Twist.h">
<polygon fill="none" stroke="#000000" points="1094.5,-470.5 1094.5,-489.5 1216.5,-489.5 1216.5,-470.5 1094.5,-470.5"/>
<text text-anchor="middle" x="1155.5" y="-477.5" font-family="FreeSans.ttf" font-size="10.00" fill="#000000">iDynTree/Core/Twist.h</text>
</a>
</g>
</g>
<!-- Node29&#45;&gt;Node31 -->
<g id="edge56" class="edge">
<title>Node29&#45;&gt;Node31</title>
<path fill="none" stroke="#191970" d="M1022.1769,-526.3733C1048.8328,-517.1016 1089.3238,-503.0178 1118.6884,-492.804"/>
<polygon fill="#191970" stroke="#191970" points="1119.8891,-496.0921 1128.1843,-489.5011 1117.5895,-489.4807 1119.8891,-496.0921"/>
</g>
<!-- Node34 -->
<g id="node35" class="node">
<title>Node34</title>
<g id="a_node35"><a xlink:href="SpatialAcc_8h.html" target="_top" xlink:title="iDynTree/Core/SpatialAcc.h">
<polygon fill="none" stroke="#000000" points="1234.5,-470.5 1234.5,-489.5 1382.5,-489.5 1382.5,-470.5 1234.5,-470.5"/>
<text text-anchor="middle" x="1308.5" y="-477.5" font-family="FreeSans.ttf" font-size="10.00" fill="#000000">iDynTree/Core/SpatialAcc.h</text>
</a>
</g>
</g>
<!-- Node29&#45;&gt;Node34 -->
<g id="edge67" class="edge">
<title>Node29&#45;&gt;Node34</title>
<path fill="none" stroke="#191970" d="M1048.1217,-526.4369C1102.6507,-516.712 1187.13,-501.6456 1244.9796,-491.3285"/>
<polygon fill="#191970" stroke="#191970" points="1245.8693,-494.7251 1255.0994,-489.5237 1244.6402,-487.8339 1245.8693,-494.7251"/>
</g>
<!-- Node35 -->
<g id="node36" class="node">
<title>Node35</title>
<g id="a_node36"><a xlink:href="Wrench_8h.html" target="_top" xlink:title="iDynTree/Core/Wrench.h">
<polygon fill="none" stroke="#000000" points="943,-470.5 943,-489.5 1076,-489.5 1076,-470.5 943,-470.5"/>
<text text-anchor="middle" x="1009.5" y="-477.5" font-family="FreeSans.ttf" font-size="10.00" fill="#000000">iDynTree/Core/Wrench.h</text>
</a>
</g>
</g>
<!-- Node29&#45;&gt;Node35 -->
<g id="edge69" class="edge">
<title>Node29&#45;&gt;Node35</title>
<path fill="none" stroke="#191970" d="M997.1128,-526.2455C999.0916,-518.8579 1001.8744,-508.4689 1004.3012,-499.4087"/>
<polygon fill="#191970" stroke="#191970" points="1007.7105,-500.2078 1006.9171,-489.6427 1000.9489,-498.3966 1007.7105,-500.2078"/>
</g>
<!-- Node37 -->
<g id="node38" class="node">
<title>Node37</title>
<g id="a_node38"><a xlink:href="ArticulatedBodyInertia_8h.html" target="_top" xlink:title="iDynTree/Core/Articulated\lBodyInertia.h">
<polygon fill="none" stroke="#000000" points="337,-168.5 337,-198.5 478,-198.5 478,-168.5 337,-168.5"/>
<text text-anchor="start" x="345" y="-186.5" font-family="FreeSans.ttf" font-size="10.00" fill="#000000">iDynTree/Core/Articulated</text>
<text text-anchor="middle" x="407.5" y="-175.5" font-family="FreeSans.ttf" font-size="10.00" fill="#000000">BodyInertia.h</text>
</a>
</g>
</g>
<!-- Node29&#45;&gt;Node37 -->
<g id="edge74" class="edge">
<title>Node29&#45;&gt;Node37</title>
<path fill="none" stroke="#191970" d="M975.6452,-526.4693C957.8961,-517.3945 930.6548,-503.2006 907.5,-490 727.5786,-387.426 517.9055,-254.3495 439.3532,-204.0031"/>
<polygon fill="#191970" stroke="#191970" points="441.1713,-201.0111 430.8645,-198.5572 437.3914,-206.9029 441.1713,-201.0111"/>
</g>
<!-- Node29&#45;&gt;Node38 -->
<g id="edge78" class="edge">
<title>Node29&#45;&gt;Node38</title>
<path fill="none" stroke="#191970" d="M1069.0337,-531.3592C1147.1005,-525.5976 1273.2934,-513.7421 1390.9376,-489.7741"/>
<polygon fill="#191970" stroke="#191970" points="1391.7555,-493.179 1400.8379,-487.7238 1390.3359,-486.3245 1391.7555,-493.179"/>
</g>
<!-- Node30&#45;&gt;Node2 -->
<g id="edge55" class="edge">
<title>Node30&#45;&gt;Node2</title>
<path fill="none" stroke="#191970" d="M724.2153,-350.0393C571.3402,-334.5293 232.5,-294.562 232.5,-245 232.5,-245 232.5,-245 232.5,-183.5 232.5,-144.976 249.2941,-133.1395 281.5,-112 314.8296,-90.1229 429.5019,-75.3579 486.2162,-69.2159"/>
<polygon fill="#191970" stroke="#191970" points="486.8459,-72.6689 496.4222,-68.1362 486.1094,-65.7077 486.8459,-72.6689"/>
</g>
<!-- Node30&#45;&gt;Node18 -->
<g id="edge52" class="edge">
<title>Node30&#45;&gt;Node18</title>
<path fill="none" stroke="#191970" d="M780.7781,-347.2455C765.9111,-338.5731 743.9534,-325.7645 726.9142,-315.825"/>
<polygon fill="#191970" stroke="#191970" points="728.4317,-312.6582 718.0303,-310.6427 724.9045,-318.7047 728.4317,-312.6582"/>
</g>
<!-- Node30&#45;&gt;Node20 -->
<g id="edge53" class="edge">
<title>Node30&#45;&gt;Node20</title>
<path fill="none" stroke="#191970" d="M797.5,-347.4509C797.5,-329.184 797.5,-288.9553 797.5,-264.6976"/>
<polygon fill="#191970" stroke="#191970" points="801.0001,-264.5249 797.5,-254.5249 794.0001,-264.5249 801.0001,-264.5249"/>
</g>
<!-- Node30&#45;&gt;Node23 -->
<g id="edge54" class="edge">
<title>Node30&#45;&gt;Node23</title>
<path fill="none" stroke="#191970" d="M808.2425,-347.2668C825.9597,-330.4555 860.8066,-294.0119 875.5,-255 889.8464,-216.9092 888.7284,-168.3821 886.6231,-141.7366"/>
<polygon fill="#191970" stroke="#191970" points="890.1059,-141.3875 885.7026,-131.7511 883.1354,-142.0301 890.1059,-141.3875"/>
</g>
<!-- Node32 -->
<g id="node33" class="node">
<title>Node32</title>
<g id="a_node33"><a xlink:href="SpatialMotionVector_8h.html" target="_top" xlink:title="iDynTree/Core/SpatialMotion\lVector.h">
<polygon fill="none" stroke="#000000" points="1231,-403.5 1231,-433.5 1386,-433.5 1386,-403.5 1231,-403.5"/>
<text text-anchor="start" x="1239" y="-421.5" font-family="FreeSans.ttf" font-size="10.00" fill="#000000">iDynTree/Core/SpatialMotion</text>
<text text-anchor="middle" x="1308.5" y="-410.5" font-family="FreeSans.ttf" font-size="10.00" fill="#000000">Vector.h</text>
</a>
</g>
</g>
<!-- Node31&#45;&gt;Node32 -->
<g id="edge57" class="edge">
<title>Node31&#45;&gt;Node32</title>
<path fill="none" stroke="#191970" d="M1179.4063,-470.3906C1201.3592,-461.5664 1234.5117,-448.2404 1261.7229,-437.3026"/>
<polygon fill="#191970" stroke="#191970" points="1263.0989,-440.5217 1271.072,-433.5446 1260.4881,-434.0268 1263.0989,-440.5217"/>
</g>
<!-- Node32&#45;&gt;Node3 -->
<g id="edge58" class="edge">
<title>Node32&#45;&gt;Node3</title>
<path fill="none" stroke="#191970" d="M1359.9291,-403.4517C1377.5295,-395.5673 1395.3311,-383.9122 1405.5,-367 1444.0894,-302.8207 1603.1625,-391.5333 1331.5,-168 1310.3491,-150.5963 1247.7514,-138.751 1193.3399,-131.4441"/>
<polygon fill="#191970" stroke="#191970" points="1193.6561,-127.9557 1183.2872,-130.1322 1192.7502,-134.8969 1193.6561,-127.9557"/>
</g>
<!-- Node32&#45;&gt;Node21 -->
<g id="edge59" class="edge">
<title>Node32&#45;&gt;Node21</title>
<path fill="none" stroke="#191970" d="M1268.069,-403.3679C1252.1433,-395.182 1235.528,-383.3309 1226.5,-367 1196.9417,-313.5315 1219.3515,-237.5589 1232.5859,-202.5328"/>
<polygon fill="#191970" stroke="#191970" points="1235.914,-203.6341 1236.3309,-193.0475 1229.4031,-201.0634 1235.914,-203.6341"/>
</g>
<!-- Node33 -->
<g id="node34" class="node">
<title>Node33</title>
<g id="a_node34"><a xlink:href="SpatialVector_8h.html" target="_top" xlink:title="iDynTree/Core/SpatialVector.h">
<polygon fill="none" stroke="#000000" points="1235,-347.5 1235,-366.5 1396,-366.5 1396,-347.5 1235,-347.5"/>
<text text-anchor="middle" x="1315.5" y="-354.5" font-family="FreeSans.ttf" font-size="10.00" fill="#000000">iDynTree/Core/SpatialVector.h</text>
</a>
</g>
</g>
<!-- Node32&#45;&gt;Node33 -->
<g id="edge60" class="edge">
<title>Node32&#45;&gt;Node33</title>
<path fill="none" stroke="#191970" d="M1310.2303,-403.2977C1311.1413,-395.2945 1312.2693,-385.3843 1313.2476,-376.7889"/>
<polygon fill="#191970" stroke="#191970" points="1316.7258,-377.1786 1314.3792,-366.8469 1309.7707,-376.3869 1316.7258,-377.1786"/>
</g>
<!-- Node33&#45;&gt;Node4 -->
<g id="edge63" class="edge">
<title>Node33&#45;&gt;Node4</title>
<path fill="none" stroke="#191970" d="M1320.2177,-347.2969C1333.9565,-317.5028 1370.5666,-225.8569 1331.5,-168 1301.3623,-123.3667 1153.3363,-91.9474 1063.4681,-76.6319"/>
<polygon fill="#191970" stroke="#191970" points="1063.7883,-73.1368 1053.3469,-74.9331 1062.6295,-80.0402 1063.7883,-73.1368"/>
</g>
<!-- Node33&#45;&gt;Node16 -->
<g id="edge66" class="edge">
<title>Node33&#45;&gt;Node16</title>
<path fill="none" stroke="#191970" d="M1340.1622,-347.4329C1358.2684,-339.563 1382.7054,-327.0961 1400.5,-311 1467.4037,-250.4826 1498.5357,-181.0675 1440.5,-112 1412.2655,-78.3985 1281.8914,-69.3379 1215.9373,-66.8976"/>
<polygon fill="#191970" stroke="#191970" points="1216.0431,-63.3993 1205.9307,-66.5601 1215.807,-70.3953 1216.0431,-63.3993"/>
</g>
<!-- Node33&#45;&gt;Node18 -->
<g id="edge61" class="edge">
<title>Node33&#45;&gt;Node18</title>
<path fill="none" stroke="#191970" d="M1234.9148,-349.6502C1116.5212,-338.8521 896.9714,-318.828 779.8602,-308.1469"/>
<polygon fill="#191970" stroke="#191970" points="780.163,-304.66 769.8864,-307.2372 779.5271,-311.6311 780.163,-304.66"/>
</g>
<!-- Node33&#45;&gt;Node20 -->
<g id="edge62" class="edge">
<title>Node33&#45;&gt;Node20</title>
<path fill="none" stroke="#191970" d="M1271.3356,-347.4509C1176.6247,-326.9729 954.2641,-278.8949 851.4199,-256.6584"/>
<polygon fill="#191970" stroke="#191970" points="852.0664,-253.2173 841.5526,-254.5249 850.5871,-260.0592 852.0664,-253.2173"/>
</g>
<!-- Node33&#45;&gt;Node21 -->
<g id="edge64" class="edge">
<title>Node33&#45;&gt;Node21</title>
<path fill="none" stroke="#191970" d="M1311.3608,-347.4248C1299.4031,-319.7625 1264.6476,-239.3614 1248.6874,-202.4403"/>
<polygon fill="#191970" stroke="#191970" points="1251.8995,-201.0498 1244.7188,-193.2595 1245.4741,-203.8274 1251.8995,-201.0498"/>
</g>
<!-- Node33&#45;&gt;Node24 -->
<g id="edge65" class="edge">
<title>Node33&#45;&gt;Node24</title>
<path fill="none" stroke="#191970" d="M1328.2506,-347.2894C1338.7153,-338.7364 1353.2641,-325.4224 1362.5,-311 1411.1507,-235.0291 1461.79,-179.9938 1402.5,-112 1365.6862,-69.7819 1213.4251,-85.6188 1141.64,-75.7485"/>
<polygon fill="#191970" stroke="#191970" points="1142.0934,-72.276 1131.656,-74.0957 1140.9501,-79.182 1142.0934,-72.276"/>
</g>
<!-- Node34&#45;&gt;Node32 -->
<g id="edge68" class="edge">
<title>Node34&#45;&gt;Node32</title>
<path fill="none" stroke="#191970" d="M1308.5,-470.3906C1308.5,-463.2234 1308.5,-453.0862 1308.5,-443.671"/>
<polygon fill="#191970" stroke="#191970" points="1312.0001,-443.5446 1308.5,-433.5446 1305.0001,-443.5446 1312.0001,-443.5446"/>
</g>
<!-- Node36 -->
<g id="node37" class="node">
<title>Node36</title>
<g id="a_node37"><a xlink:href="SpatialForceVector_8h.html" target="_top" xlink:title="iDynTree/Core/SpatialForce\lVector.h">
<polygon fill="none" stroke="#000000" points="1060.5,-403.5 1060.5,-433.5 1208.5,-433.5 1208.5,-403.5 1060.5,-403.5"/>
<text text-anchor="start" x="1068.5" y="-421.5" font-family="FreeSans.ttf" font-size="10.00" fill="#000000">iDynTree/Core/SpatialForce</text>
<text text-anchor="middle" x="1134.5" y="-410.5" font-family="FreeSans.ttf" font-size="10.00" fill="#000000">Vector.h</text>
</a>
</g>
</g>
<!-- Node35&#45;&gt;Node36 -->
<g id="edge70" class="edge">
<title>Node35&#45;&gt;Node36</title>
<path fill="none" stroke="#191970" d="M1029.0313,-470.3906C1046.575,-461.7591 1072.8736,-448.8202 1094.8204,-438.0224"/>
<polygon fill="#191970" stroke="#191970" points="1096.4939,-441.0997 1103.9216,-433.5446 1093.4036,-434.8188 1096.4939,-441.0997"/>
</g>
<!-- Node36&#45;&gt;Node3 -->
<g id="edge71" class="edge">
<title>Node36&#45;&gt;Node3</title>
<path fill="none" stroke="#191970" d="M1133.6517,-403.2955C1132.4775,-380.9046 1130.5,-337.74 1130.5,-301 1130.5,-301 1130.5,-301 1130.5,-245 1130.5,-207.5861 1118.0309,-165.3317 1109.7346,-141.3586"/>
<polygon fill="#191970" stroke="#191970" points="1112.9461,-139.9453 1106.2762,-131.7134 1106.3568,-142.308 1112.9461,-139.9453"/>
</g>
<!-- Node36&#45;&gt;Node21 -->
<g id="edge72" class="edge">
<title>Node36&#45;&gt;Node21</title>
<path fill="none" stroke="#191970" d="M1140.6652,-403.0985C1153.483,-371.3313 1184.2548,-296.3696 1213.5,-235 1218.7216,-224.0426 1224.9942,-212.0177 1230.1788,-202.345"/>
<polygon fill="#191970" stroke="#191970" points="1233.4143,-203.7201 1235.0981,-193.2599 1227.2588,-200.3871 1233.4143,-203.7201"/>
</g>
<!-- Node36&#45;&gt;Node33 -->
<g id="edge73" class="edge">
<title>Node36&#45;&gt;Node33</title>
<path fill="none" stroke="#191970" d="M1178.7776,-403.4554C1209.1104,-393.149 1248.9129,-379.6249 1277.7444,-369.8286"/>
<polygon fill="#191970" stroke="#191970" points="1279.1091,-373.0615 1287.4514,-366.5303 1276.857,-366.4336 1279.1091,-373.0615"/>
</g>
<!-- Node37&#45;&gt;Node2 -->
<g id="edge76" class="edge">
<title>Node37&#45;&gt;Node2</title>
<path fill="none" stroke="#191970" d="M430.3338,-168.3695C443.7578,-158.8471 460.5755,-145.782 473.5,-132 487.22,-117.3697 499.8001,-98.2055 508.1495,-84.2995"/>
<polygon fill="#191970" stroke="#191970" points="511.1907,-86.0322 513.2159,-75.6327 505.1475,-82.4994 511.1907,-86.0322"/>
</g>
<!-- Node37&#45;&gt;Node23 -->
<g id="edge75" class="edge">
<title>Node37&#45;&gt;Node23</title>
<path fill="none" stroke="#191970" d="M478.0036,-174.2018C493.641,-172.1498 510.1322,-169.9939 525.5,-168 619.2352,-155.8384 726.7653,-142.0866 799.5147,-132.8124"/>
<polygon fill="#191970" stroke="#191970" points="800.0669,-136.2705 809.5441,-131.5342 799.1818,-129.3266 800.0669,-136.2705"/>
</g>
</g>
</svg>
