<?xml version="1.0" encoding="UTF-8" standalone="no"?>
<!DOCTYPE svg PUBLIC "-//W3C//DTD SVG 1.1//EN"
 "http://www.w3.org/Graphics/SVG/1.1/DTD/svg11.dtd">
<!-- Generated by graphviz version 2.40.1 (20161225.0304)
 -->
<!-- Title: ExternalWrenchesEstimation.cpp Pages: 1 -->
<svg width="2569pt" height="867pt"
 viewBox="0.00 0.00 2569.08 867.00" xmlns="http://www.w3.org/2000/svg" xmlns:xlink="http://www.w3.org/1999/xlink">
<g id="graph0" class="graph" transform="scale(1 1) rotate(0) translate(4 863)">
<title>ExternalWrenchesEstimation.cpp</title>
<!-- Node0 -->
<g id="node1" class="node">
<title>Node0</title>
<polygon fill="#bfbfbf" stroke="#000000" points="936.5757,-839.5 936.5757,-858.5 1113.5757,-858.5 1113.5757,-839.5 936.5757,-839.5"/>
<text text-anchor="middle" x="1025.0757" y="-846.5" font-family="FreeSans.ttf" font-size="10.00" fill="#000000">ExternalWrenchesEstimation.cpp</text>
</g>
<!-- Node1 -->
<g id="node2" class="node">
<title>Node1</title>
<g id="a_node2"><a xlink:href="ExternalWrenchesEstimation_8h.html" target="_top" xlink:title="iDynTree/Estimation\l/ExternalWrenchesEstimation.h">
<polygon fill="none" stroke="#000000" points="707.5757,-593.5 707.5757,-623.5 876.5757,-623.5 876.5757,-593.5 707.5757,-593.5"/>
<text text-anchor="start" x="715.5757" y="-611.5" font-family="FreeSans.ttf" font-size="10.00" fill="#000000">iDynTree/Estimation</text>
<text text-anchor="middle" x="792.0757" y="-600.5" font-family="FreeSans.ttf" font-size="10.00" fill="#000000">/ExternalWrenchesEstimation.h</text>
</a>
</g>
</g>
<!-- Node0&#45;&gt;Node1 -->
<g id="edge1" class="edge">
<title>Node0&#45;&gt;Node1</title>
<path fill="none" stroke="#191970" d="M998.7223,-839.3608C979.6735,-831.5288 954.0588,-819.141 935.0757,-803 875.6383,-752.4612 827.0296,-672.579 804.929,-632.7502"/>
<polygon fill="#191970" stroke="#191970" points="807.8791,-630.8501 800.0116,-623.7541 801.7368,-634.2075 807.8791,-630.8501"/>
</g>
<!-- Node30 -->
<g id="node22" class="node">
<title>Node30</title>
<g id="a_node22"><a xlink:href="LinkState_8h.html" target="_top" xlink:title="iDynTree/Model/LinkState.h">
<polygon fill="none" stroke="#000000" points="1038.5757,-532 1038.5757,-551 1187.5757,-551 1187.5757,-532 1038.5757,-532"/>
<text text-anchor="middle" x="1113.0757" y="-539" font-family="FreeSans.ttf" font-size="10.00" fill="#000000">iDynTree/Model/LinkState.h</text>
</a>
</g>
</g>
<!-- Node0&#45;&gt;Node30 -->
<g id="edge114" class="edge">
<title>Node0&#45;&gt;Node30</title>
<path fill="none" stroke="#191970" d="M1013.8617,-839.4199C992.721,-820.2241 949.0757,-774.6972 949.0757,-726 949.0757,-726 949.0757,-726 949.0757,-670 949.0757,-608.4114 1021.6258,-571.9042 1070.2176,-554.3598"/>
<polygon fill="#191970" stroke="#191970" points="1071.5894,-557.5886 1079.8879,-551.0018 1069.2931,-550.9759 1071.5894,-557.5886"/>
</g>
<!-- Node40 -->
<g id="node34" class="node">
<title>Node40</title>
<g id="a_node34"><a xlink:href="EigenHelpers_8h.html" target="_top" xlink:title="iDynTree/Core/EigenHelpers.h">
<polygon fill="none" stroke="#000000" points="322.5757,-470.5 322.5757,-489.5 483.5757,-489.5 483.5757,-470.5 322.5757,-470.5"/>
<text text-anchor="middle" x="403.0757" y="-477.5" font-family="FreeSans.ttf" font-size="10.00" fill="#000000">iDynTree/Core/EigenHelpers.h</text>
</a>
</g>
</g>
<!-- Node0&#45;&gt;Node40 -->
<g id="edge72" class="edge">
<title>Node0&#45;&gt;Node40</title>
<path fill="none" stroke="#191970" d="M936.5554,-845.3257C815.934,-839.5286 606.637,-826.4357 534.0757,-803 469.8095,-782.2434 403.0757,-793.5351 403.0757,-726 403.0757,-726 403.0757,-726 403.0757,-608.5 403.0757,-570.0012 403.0757,-525.0145 403.0757,-499.7812"/>
<polygon fill="#191970" stroke="#191970" points="406.5758,-499.6718 403.0757,-489.6719 399.5758,-499.6719 406.5758,-499.6718"/>
</g>
<!-- Node42 -->
<g id="node36" class="node">
<title>Node42</title>
<g id="a_node36"><a xlink:href="EigenMathHelpers_8h.html" target="_top" xlink:title="iDynTree/Core/EigenMathHelpers.h">
<polygon fill="none" stroke="#000000" points="41.5757,-778 41.5757,-797 226.5757,-797 226.5757,-778 41.5757,-778"/>
<text text-anchor="middle" x="134.0757" y="-785" font-family="FreeSans.ttf" font-size="10.00" fill="#000000">iDynTree/Core/EigenMathHelpers.h</text>
</a>
</g>
</g>
<!-- Node0&#45;&gt;Node42 -->
<g id="edge82" class="edge">
<title>Node0&#45;&gt;Node42</title>
<path fill="none" stroke="#191970" d="M936.5664,-844.004C801.2806,-836.2117 534.9643,-820.2573 309.0757,-803 285.6583,-801.211 260.4958,-799.0959 236.7565,-797.0127"/>
<polygon fill="#191970" stroke="#191970" points="236.948,-793.5161 226.6789,-796.1229 236.3323,-800.489 236.948,-793.5161"/>
</g>
<!-- Node43 -->
<g id="node37" class="node">
<title>Node43</title>
<g id="a_node37"><a xlink:href="SpatialMomentum_8h.html" target="_top" xlink:title="iDynTree/Core/SpatialMomentum.h">
<polygon fill="none" stroke="#000000" points="540.0757,-470.5 540.0757,-489.5 726.0757,-489.5 726.0757,-470.5 540.0757,-470.5"/>
<text text-anchor="middle" x="633.0757" y="-477.5" font-family="FreeSans.ttf" font-size="10.00" fill="#000000">iDynTree/Core/SpatialMomentum.h</text>
</a>
</g>
</g>
<!-- Node0&#45;&gt;Node43 -->
<g id="edge84" class="edge">
<title>Node0&#45;&gt;Node43</title>
<path fill="none" stroke="#191970" d="M937.0127,-839.4753C773.867,-820.6315 441.0757,-776.0582 441.0757,-726 441.0757,-726 441.0757,-726 441.0757,-608.5 441.0757,-542.6618 520.0116,-508.4237 576.6575,-492.33"/>
<polygon fill="#191970" stroke="#191970" points="577.8681,-495.628 586.5979,-489.6245 576.0297,-488.8737 577.8681,-495.628"/>
</g>
<!-- Node44 -->
<g id="node38" class="node">
<title>Node44</title>
<g id="a_node38"><a xlink:href="Model_8h.html" target="_top" xlink:title="iDynTree/Model/Model.h">
<polygon fill="none" stroke="#000000" points="1459.5757,-660.5 1459.5757,-679.5 1592.5757,-679.5 1592.5757,-660.5 1459.5757,-660.5"/>
<text text-anchor="middle" x="1526.0757" y="-667.5" font-family="FreeSans.ttf" font-size="10.00" fill="#000000">iDynTree/Model/Model.h</text>
</a>
</g>
</g>
<!-- Node0&#45;&gt;Node44 -->
<g id="edge86" class="edge">
<title>Node0&#45;&gt;Node44</title>
<path fill="none" stroke="#191970" d="M1052.0117,-839.3762C1136.1266,-809.3232 1393.9957,-717.1903 1489.7674,-682.9724"/>
<polygon fill="#191970" stroke="#191970" points="1491.072,-686.2231 1499.3114,-679.5625 1488.7168,-679.6312 1491.072,-686.2231"/>
</g>
<!-- Node52 -->
<g id="node44" class="node">
<title>Node52</title>
<g id="a_node44"><a xlink:href="Traversal_8h.html" target="_top" xlink:title="iDynTree/Model/Traversal.h">
<polygon fill="none" stroke="#000000" points="1547.0757,-532 1547.0757,-551 1695.0757,-551 1695.0757,-532 1547.0757,-532"/>
<text text-anchor="middle" x="1621.0757" y="-539" font-family="FreeSans.ttf" font-size="10.00" fill="#000000">iDynTree/Model/Traversal.h</text>
</a>
</g>
</g>
<!-- Node0&#45;&gt;Node52 -->
<g id="edge106" class="edge">
<title>Node0&#45;&gt;Node52</title>
<path fill="none" stroke="#191970" d="M1113.6594,-839.7963C1279.6866,-821.3426 1621.0757,-777.1755 1621.0757,-726 1621.0757,-726 1621.0757,-726 1621.0757,-670 1621.0757,-631.5012 1621.0757,-586.5145 1621.0757,-561.2812"/>
<polygon fill="#191970" stroke="#191970" points="1624.5758,-561.1718 1621.0757,-551.1719 1617.5758,-561.1719 1624.5758,-561.1718"/>
</g>
<!-- Node53 -->
<g id="node45" class="node">
<title>Node53</title>
<g id="a_node45"><a xlink:href="SubModel_8h.html" target="_top" xlink:title="iDynTree/Model/SubModel.h">
<polygon fill="none" stroke="#000000" points="2381.5757,-532 2381.5757,-551 2532.5757,-551 2532.5757,-532 2381.5757,-532"/>
<text text-anchor="middle" x="2457.0757" y="-539" font-family="FreeSans.ttf" font-size="10.00" fill="#000000">iDynTree/Model/SubModel.h</text>
</a>
</g>
</g>
<!-- Node0&#45;&gt;Node53 -->
<g id="edge109" class="edge">
<title>Node0&#45;&gt;Node53</title>
<path fill="none" stroke="#191970" d="M1113.7398,-847.1389C1332.477,-842.2237 1893.5273,-827.5606 2079.0757,-803 2234.8231,-782.3841 2424.0757,-883.1059 2424.0757,-726 2424.0757,-726 2424.0757,-726 2424.0757,-670 2424.0757,-630.0954 2439.1898,-585.3492 2448.9608,-560.5909"/>
<polygon fill="#191970" stroke="#191970" points="2452.224,-561.8575 2452.7616,-551.2763 2445.7428,-559.2128 2452.224,-561.8575"/>
</g>
<!-- Node54 -->
<g id="node46" class="node">
<title>Node54</title>
<g id="a_node46"><a xlink:href="JointState_8h.html" target="_top" xlink:title="iDynTree/Model/JointState.h">
<polygon fill="none" stroke="#000000" points="128.5757,-532 128.5757,-551 279.5757,-551 279.5757,-532 128.5757,-532"/>
<text text-anchor="middle" x="204.0757" y="-539" font-family="FreeSans.ttf" font-size="10.00" fill="#000000">iDynTree/Model/JointState.h</text>
</a>
</g>
</g>
<!-- Node0&#45;&gt;Node54 -->
<g id="edge115" class="edge">
<title>Node0&#45;&gt;Node54</title>
<path fill="none" stroke="#191970" d="M936.5111,-846.3634C773.1617,-840.9496 436.7052,-827.0257 389.0757,-803 348.8325,-782.7001 323.0757,-771.0733 323.0757,-726 323.0757,-726 323.0757,-726 323.0757,-670 323.0757,-616.8283 267.5476,-576.3386 232.3537,-556.0158"/>
<polygon fill="#191970" stroke="#191970" points="233.8984,-552.8699 223.46,-551.0561 230.489,-558.9835 233.8984,-552.8699"/>
</g>
<!-- Node55 -->
<g id="node47" class="node">
<title>Node55</title>
<g id="a_node47"><a xlink:href="ContactWrench_8h.html" target="_top" xlink:title="iDynTree/Model/ContactWrench.h">
<polygon fill="none" stroke="#000000" points="1014.5757,-599 1014.5757,-618 1191.5757,-618 1191.5757,-599 1014.5757,-599"/>
<text text-anchor="middle" x="1103.0757" y="-606" font-family="FreeSans.ttf" font-size="10.00" fill="#000000">iDynTree/Model/ContactWrench.h</text>
</a>
</g>
</g>
<!-- Node0&#45;&gt;Node55 -->
<g id="edge120" class="edge">
<title>Node0&#45;&gt;Node55</title>
<path fill="none" stroke="#191970" d="M1028.23,-839.2742C1039.9418,-803.1631 1081.0652,-676.3659 1096.8457,-627.7091"/>
<polygon fill="#191970" stroke="#191970" points="1100.2118,-628.6753 1099.9676,-618.0833 1093.5532,-626.5157 1100.2118,-628.6753"/>
</g>
<!-- Node56 -->
<g id="node48" class="node">
<title>Node56</title>
<g id="a_node48"><a xlink:href="LinkTraversalsCache_8h.html" target="_top" xlink:title="iDynTree/Model/LinkTraversals\lCache.h">
<polygon fill="none" stroke="#000000" points="1789.0757,-526.5 1789.0757,-556.5 1953.0757,-556.5 1953.0757,-526.5 1789.0757,-526.5"/>
<text text-anchor="start" x="1797.0757" y="-544.5" font-family="FreeSans.ttf" font-size="10.00" fill="#000000">iDynTree/Model/LinkTraversals</text>
<text text-anchor="middle" x="1871.0757" y="-533.5" font-family="FreeSans.ttf" font-size="10.00" fill="#000000">Cache.h</text>
</a>
</g>
</g>
<!-- Node0&#45;&gt;Node56 -->
<g id="edge126" class="edge">
<title>Node0&#45;&gt;Node56</title>
<path fill="none" stroke="#191970" d="M1113.6517,-845.4223C1332.1153,-835.4217 1879.0757,-802.7225 1879.0757,-726 1879.0757,-726 1879.0757,-726 1879.0757,-670 1879.0757,-634.0129 1875.9115,-592.4661 1873.5631,-566.5864"/>
<polygon fill="#191970" stroke="#191970" points="1877.0372,-566.1455 1872.6182,-556.5162 1870.0678,-566.7995 1877.0372,-566.1455"/>
</g>
<!-- Node57 -->
<g id="node49" class="node">
<title>Node57</title>
<g id="a_node49"><a xlink:href="Sensors_8h.html" target="_top" xlink:title="iDynTree/Sensors/Sensors.h">
<polygon fill="none" stroke="#000000" points="2005.5757,-716.5 2005.5757,-735.5 2156.5757,-735.5 2156.5757,-716.5 2005.5757,-716.5"/>
<text text-anchor="middle" x="2081.0757" y="-723.5" font-family="FreeSans.ttf" font-size="10.00" fill="#000000">iDynTree/Sensors/Sensors.h</text>
</a>
</g>
</g>
<!-- Node0&#45;&gt;Node57 -->
<g id="edge129" class="edge">
<title>Node0&#45;&gt;Node57</title>
<path fill="none" stroke="#191970" d="M1113.6758,-847.7717C1356.806,-844.041 2018.8773,-831.3208 2056.0757,-803 2073.5786,-789.6743 2079.0242,-763.8606 2080.6135,-745.8101"/>
<polygon fill="#191970" stroke="#191970" points="2084.1118,-745.9359 2081.178,-735.7554 2077.1228,-745.5434 2084.1118,-745.9359"/>
</g>
<!-- Node58 -->
<g id="node50" class="node">
<title>Node58</title>
<g id="a_node50"><a xlink:href="SixAxisForceTorqueSensor_8h.html" target="_top" xlink:title="iDynTree/Sensors/SixAxis\lForceTorqueSensor.h">
<polygon fill="none" stroke="#000000" points="1907.0757,-772.5 1907.0757,-802.5 2047.0757,-802.5 2047.0757,-772.5 1907.0757,-772.5"/>
<text text-anchor="start" x="1915.0757" y="-790.5" font-family="FreeSans.ttf" font-size="10.00" fill="#000000">iDynTree/Sensors/SixAxis</text>
<text text-anchor="middle" x="1977.0757" y="-779.5" font-family="FreeSans.ttf" font-size="10.00" fill="#000000">ForceTorqueSensor.h</text>
</a>
</g>
</g>
<!-- Node0&#45;&gt;Node58 -->
<g id="edge137" class="edge">
<title>Node0&#45;&gt;Node58</title>
<path fill="none" stroke="#191970" d="M1113.8049,-848.0844C1271.2594,-845.617 1609.6498,-836.5166 1893.0757,-803 1894.3597,-802.8482 1895.6537,-802.6887 1896.9555,-802.5223"/>
<polygon fill="#191970" stroke="#191970" points="1897.6281,-805.9626 1907.0525,-801.1221 1896.6665,-799.0289 1897.6281,-805.9626"/>
</g>
<!-- Node2 -->
<g id="node3" class="node">
<title>Node2</title>
<g id="a_node3"><a xlink:href="Direction_8h.html" target="_top" xlink:title="iDynTree/Core/Direction.h">
<polygon fill="none" stroke="#000000" points="662.5757,-174 662.5757,-193 803.5757,-193 803.5757,-174 662.5757,-174"/>
<text text-anchor="middle" x="733.0757" y="-181" font-family="FreeSans.ttf" font-size="10.00" fill="#000000">iDynTree/Core/Direction.h</text>
</a>
</g>
</g>
<!-- Node1&#45;&gt;Node2 -->
<g id="edge2" class="edge">
<title>Node1&#45;&gt;Node2</title>
<path fill="none" stroke="#191970" d="M787.9515,-593.3118C785.4044,-583.1271 782.3816,-569.3652 781.0757,-557 779.6288,-543.2984 779.5078,-539.6883 781.0757,-526 783.9835,-500.6153 782.1632,-492.6038 794.0757,-470 804.1953,-450.7983 819.2071,-454.2286 827.0757,-434 832.0705,-421.1595 829.8441,-416.4968 827.0757,-403 810.9345,-324.3063 765.3691,-238.978 744.174,-202.1496"/>
<polygon fill="#191970" stroke="#191970" points="746.9515,-199.9651 738.8868,-193.094 740.9064,-203.4946 746.9515,-199.9651"/>
</g>
<!-- Node4 -->
<g id="node5" class="node">
<title>Node4</title>
<g id="a_node5"><a xlink:href="VectorFixSize_8h.html" target="_top" xlink:title="iDynTree/Core/VectorFixSize.h">
<polygon fill="none" stroke="#000000" points="642.5757,-112.5 642.5757,-131.5 803.5757,-131.5 803.5757,-112.5 642.5757,-112.5"/>
<text text-anchor="middle" x="723.0757" y="-119.5" font-family="FreeSans.ttf" font-size="10.00" fill="#000000">iDynTree/Core/VectorFixSize.h</text>
</a>
</g>
</g>
<!-- Node1&#45;&gt;Node4 -->
<g id="edge32" class="edge">
<title>Node1&#45;&gt;Node4</title>
<path fill="none" stroke="#191970" d="M707.3414,-606.2958C537.8429,-601.269 169.0212,-586.9993 120.0757,-557 65.4858,-523.5411 62.3872,-495.6431 45.0757,-434 -29.0587,-170.0195 -93.8319,-410.6909 564.0757,-168 600.4454,-154.5839 642.636,-142.5338 674.4137,-134.1355"/>
<polygon fill="#191970" stroke="#191970" points="675.5547,-137.4549 684.3446,-131.54 673.7846,-130.6824 675.5547,-137.4549"/>
</g>
<!-- Node19 -->
<g id="node14" class="node">
<title>Node19</title>
<g id="a_node14"><a xlink:href="Position_8h.html" target="_top" xlink:title="iDynTree/Core/Position.h">
<polygon fill="none" stroke="#000000" points="1354.0757,-291.5 1354.0757,-310.5 1490.0757,-310.5 1490.0757,-291.5 1354.0757,-291.5"/>
<text text-anchor="middle" x="1422.0757" y="-298.5" font-family="FreeSans.ttf" font-size="10.00" fill="#000000">iDynTree/Core/Position.h</text>
</a>
</g>
</g>
<!-- Node1&#45;&gt;Node19 -->
<g id="edge17" class="edge">
<title>Node1&#45;&gt;Node19</title>
<path fill="none" stroke="#191970" d="M788.9988,-593.3966C784.1441,-564.7891 778.4216,-502.6485 812.0757,-470 862.9622,-420.6341 1060.7394,-452.883 1129.0757,-434 1233.5345,-405.1355 1347.9342,-343.6412 1397.2216,-315.5467"/>
<polygon fill="#191970" stroke="#191970" points="1398.9931,-318.5655 1405.9198,-310.5486 1395.5055,-312.4962 1398.9931,-318.5655"/>
</g>
<!-- Node26 -->
<g id="node18" class="node">
<title>Node26</title>
<g id="a_node18"><a xlink:href="MatrixDynSize_8h.html" target="_top" xlink:title="iDynTree/Core/MatrixDynSize.h">
<polygon fill="none" stroke="#000000" points="409.5757,-409 409.5757,-428 576.5757,-428 576.5757,-409 409.5757,-409"/>
<text text-anchor="middle" x="493.0757" y="-416" font-family="FreeSans.ttf" font-size="10.00" fill="#000000">iDynTree/Core/MatrixDynSize.h</text>
</a>
</g>
</g>
<!-- Node1&#45;&gt;Node26 -->
<g id="edge27" class="edge">
<title>Node1&#45;&gt;Node26</title>
<path fill="none" stroke="#191970" d="M707.3629,-599.8804C583.3885,-585.32 362.0172,-551.2778 314.0757,-490 308.5985,-482.9991 308.7294,-477.1014 314.0757,-470 327.4563,-452.2269 378.1629,-438.6817 422.2066,-429.9539"/>
<polygon fill="#191970" stroke="#191970" points="422.9079,-433.3832 432.0663,-428.0566 421.585,-426.5094 422.9079,-433.3832"/>
</g>
<!-- Node27 -->
<g id="node19" class="node">
<title>Node27</title>
<g id="a_node19"><a xlink:href="VectorDynSize_8h.html" target="_top" xlink:title="iDynTree/Core/VectorDynSize.h">
<polygon fill="none" stroke="#000000" points="224.5757,-409 224.5757,-428 391.5757,-428 391.5757,-409 224.5757,-409"/>
<text text-anchor="middle" x="308.0757" y="-416" font-family="FreeSans.ttf" font-size="10.00" fill="#000000">iDynTree/Core/VectorDynSize.h</text>
</a>
</g>
</g>
<!-- Node1&#45;&gt;Node27 -->
<g id="edge29" class="edge">
<title>Node1&#45;&gt;Node27</title>
<path fill="none" stroke="#191970" d="M707.1308,-605.4082C599.7354,-600.2858 421.8663,-587.4014 364.0757,-557 328.9605,-538.5273 319.0901,-527.1203 305.0757,-490 298.7813,-473.3278 300.4823,-452.8919 303.195,-438.144"/>
<polygon fill="#191970" stroke="#191970" points="306.6675,-438.6442 305.351,-428.1314 299.8243,-437.1706 306.6675,-438.6442"/>
</g>
<!-- Node28 -->
<g id="node20" class="node">
<title>Node28</title>
<g id="a_node20"><a xlink:href="Indices_8h.html" target="_top" xlink:title="iDynTree/Model/Indices.h">
<polygon fill="none" stroke="#000000" points="1510.0757,-470.5 1510.0757,-489.5 1648.0757,-489.5 1648.0757,-470.5 1510.0757,-470.5"/>
<text text-anchor="middle" x="1579.0757" y="-477.5" font-family="FreeSans.ttf" font-size="10.00" fill="#000000">iDynTree/Model/Indices.h</text>
</a>
</g>
</g>
<!-- Node1&#45;&gt;Node28 -->
<g id="edge33" class="edge">
<title>Node1&#45;&gt;Node28</title>
<path fill="none" stroke="#191970" d="M876.7669,-604.5118C959.6251,-599.034 1088.7972,-586.2723 1197.0757,-557 1231.1029,-547.801 1236.1485,-535.5609 1270.0757,-526 1346.4773,-504.4697 1436.513,-492.5226 1499.6237,-486.2381"/>
<polygon fill="#191970" stroke="#191970" points="1500.2912,-489.6899 1509.9065,-485.2405 1499.6152,-482.7226 1500.2912,-489.6899"/>
</g>
<!-- Node1&#45;&gt;Node30 -->
<g id="edge36" class="edge">
<title>Node1&#45;&gt;Node30</title>
<path fill="none" stroke="#191970" d="M864.1144,-593.4639C922.636,-581.2491 1003.9762,-564.2716 1057.539,-553.0918"/>
<polygon fill="#191970" stroke="#191970" points="1058.4616,-556.4747 1067.5355,-551.0053 1057.0313,-549.6224 1058.4616,-556.4747"/>
</g>
<!-- Node39 -->
<g id="node33" class="node">
<title>Node39</title>
<polygon fill="none" stroke="#bfbfbf" points="1737.5757,-470.5 1737.5757,-489.5 1784.5757,-489.5 1784.5757,-470.5 1737.5757,-470.5"/>
<text text-anchor="middle" x="1761.0757" y="-477.5" font-family="FreeSans.ttf" font-size="10.00" fill="#000000">vector</text>
</g>
<!-- Node1&#45;&gt;Node39 -->
<g id="edge71" class="edge">
<title>Node1&#45;&gt;Node39</title>
<path fill="none" stroke="#191970" d="M876.7634,-601.8381C968.4462,-593.9461 1118.7758,-579.0269 1247.0757,-557 1307.3228,-546.6566 1320.8693,-536.5771 1381.0757,-526 1447.4732,-514.3353 1647.3115,-492.2665 1727.3702,-483.6118"/>
<polygon fill="#191970" stroke="#191970" points="1727.8393,-487.0816 1737.4063,-482.5294 1727.0886,-480.122 1727.8393,-487.0816"/>
</g>
<!-- Node3 -->
<g id="node4" class="node">
<title>Node3</title>
<polygon fill="none" stroke="#bfbfbf" points="1416.0757,-56.5 1416.0757,-75.5 1460.0757,-75.5 1460.0757,-56.5 1416.0757,-56.5"/>
<text text-anchor="middle" x="1438.0757" y="-63.5" font-family="FreeSans.ttf" font-size="10.00" fill="#000000">string</text>
</g>
<!-- Node2&#45;&gt;Node3 -->
<g id="edge3" class="edge">
<title>Node2&#45;&gt;Node3</title>
<path fill="none" stroke="#191970" d="M790.1717,-173.984C931.6612,-150.4024 1295.0491,-89.8378 1405.6507,-71.4042"/>
<polygon fill="#191970" stroke="#191970" points="1406.5527,-74.8022 1415.8412,-69.7057 1405.4019,-67.8974 1406.5527,-74.8022"/>
</g>
<!-- Node2&#45;&gt;Node4 -->
<g id="edge4" class="edge">
<title>Node2&#45;&gt;Node4</title>
<path fill="none" stroke="#191970" d="M731.5132,-173.8906C730.1271,-165.3657 728.0577,-152.6392 726.3153,-141.9235"/>
<polygon fill="#191970" stroke="#191970" points="729.7199,-141.0535 724.6603,-131.7449 722.8107,-142.177 729.7199,-141.0535"/>
</g>
<!-- Node5 -->
<g id="node6" class="node">
<title>Node5</title>
<g id="a_node6"><a xlink:href="Utils_8h.html" target="_top" xlink:title="iDynTree/Core/Utils.h">
<polygon fill="none" stroke="#000000" points="436.5757,-56.5 436.5757,-75.5 555.5757,-75.5 555.5757,-56.5 436.5757,-56.5"/>
<text text-anchor="middle" x="496.0757" y="-63.5" font-family="FreeSans.ttf" font-size="10.00" fill="#000000">iDynTree/Core/Utils.h</text>
</a>
</g>
</g>
<!-- Node2&#45;&gt;Node5 -->
<g id="edge16" class="edge">
<title>Node2&#45;&gt;Node5</title>
<path fill="none" stroke="#191970" d="M713.681,-173.8845C671.9132,-153.1768 573.2974,-104.285 524.475,-80.0798"/>
<polygon fill="#191970" stroke="#191970" points="525.9201,-76.8897 515.406,-75.5836 522.8107,-83.1613 525.9201,-76.8897"/>
</g>
<!-- Node4&#45;&gt;Node3 -->
<g id="edge12" class="edge">
<title>Node4&#45;&gt;Node3</title>
<path fill="none" stroke="#191970" d="M803.7055,-115.6849C960.4774,-103.4063 1300.2779,-76.7926 1406.011,-68.5114"/>
<polygon fill="#191970" stroke="#191970" points="1406.3635,-71.9946 1416.0596,-67.7243 1405.8168,-65.0159 1406.3635,-71.9946"/>
</g>
<!-- Node4&#45;&gt;Node5 -->
<g id="edge5" class="edge">
<title>Node4&#45;&gt;Node5</title>
<path fill="none" stroke="#191970" d="M684.311,-112.4369C645.7065,-102.9133 586.3373,-88.2672 544.6185,-77.9753"/>
<polygon fill="#191970" stroke="#191970" points="545.2279,-74.5208 534.6806,-75.5237 543.5512,-81.317 545.2279,-74.5208"/>
</g>
<!-- Node8 -->
<g id="node9" class="node">
<title>Node8</title>
<g id="a_node9"><a xlink:href="Span_8h.html" target="_top" xlink:title="iDynTree/Core/Span.h">
<polygon fill="none" stroke="#ff0000" points="618.5757,-56.5 618.5757,-75.5 739.5757,-75.5 739.5757,-56.5 618.5757,-56.5"/>
<text text-anchor="middle" x="679.0757" y="-63.5" font-family="FreeSans.ttf" font-size="10.00" fill="#000000">iDynTree/Core/Span.h</text>
</a>
</g>
</g>
<!-- Node4&#45;&gt;Node8 -->
<g id="edge8" class="edge">
<title>Node4&#45;&gt;Node8</title>
<path fill="none" stroke="#191970" d="M715.4115,-112.2455C709.2284,-104.3761 700.3694,-93.101 692.9469,-83.6542"/>
<polygon fill="#191970" stroke="#191970" points="695.5825,-81.3435 686.6521,-75.6427 690.0783,-85.6683 695.5825,-81.3435"/>
</g>
<!-- Node9 -->
<g id="node10" class="node">
<title>Node9</title>
<polygon fill="none" stroke="#bfbfbf" points="742.0757,-.5 742.0757,-19.5 794.0757,-19.5 794.0757,-.5 742.0757,-.5"/>
<text text-anchor="middle" x="768.0757" y="-7.5" font-family="FreeSans.ttf" font-size="10.00" fill="#000000">cassert</text>
</g>
<!-- Node4&#45;&gt;Node9 -->
<g id="edge14" class="edge">
<title>Node4&#45;&gt;Node9</title>
<path fill="none" stroke="#191970" d="M729.3429,-112.467C735.0942,-103.3906 743.5375,-89.1956 749.0757,-76 755.4206,-60.8824 760.431,-42.9643 763.7099,-29.6153"/>
<polygon fill="#191970" stroke="#191970" points="767.1739,-30.1734 766.0483,-19.6385 760.3586,-28.5759 767.1739,-30.1734"/>
</g>
<!-- Node17 -->
<g id="node12" class="node">
<title>Node17</title>
<polygon fill="none" stroke="#bfbfbf" points="796.0757,-56.5 796.0757,-75.5 852.0757,-75.5 852.0757,-56.5 796.0757,-56.5"/>
<text text-anchor="middle" x="824.0757" y="-63.5" font-family="FreeSans.ttf" font-size="10.00" fill="#000000">sstream</text>
</g>
<!-- Node4&#45;&gt;Node17 -->
<g id="edge13" class="edge">
<title>Node4&#45;&gt;Node17</title>
<path fill="none" stroke="#191970" d="M740.6686,-112.2455C756.4547,-103.4928 779.8396,-90.527 797.8344,-80.5496"/>
<polygon fill="#191970" stroke="#191970" points="799.636,-83.5528 806.6845,-75.6427 796.2416,-77.4308 799.636,-83.5528"/>
</g>
<!-- Node18 -->
<g id="node13" class="node">
<title>Node18</title>
<polygon fill="none" stroke="#bfbfbf" points="870.0757,-56.5 870.0757,-75.5 920.0757,-75.5 920.0757,-56.5 870.0757,-56.5"/>
<text text-anchor="middle" x="895.0757" y="-63.5" font-family="FreeSans.ttf" font-size="10.00" fill="#000000">cstring</text>
</g>
<!-- Node4&#45;&gt;Node18 -->
<g id="edge15" class="edge">
<title>Node4&#45;&gt;Node18</title>
<path fill="none" stroke="#191970" d="M752.6436,-112.3733C782.4579,-102.6663 828.4732,-87.6846 860.0869,-77.3917"/>
<polygon fill="#191970" stroke="#191970" points="861.3811,-80.6512 869.8063,-74.2273 859.214,-73.9951 861.3811,-80.6512"/>
</g>
<!-- Node6 -->
<g id="node7" class="node">
<title>Node6</title>
<polygon fill="none" stroke="#bfbfbf" points="652.5757,-.5 652.5757,-19.5 705.5757,-19.5 705.5757,-.5 652.5757,-.5"/>
<text text-anchor="middle" x="679.0757" y="-7.5" font-family="FreeSans.ttf" font-size="10.00" fill="#000000">cstddef</text>
</g>
<!-- Node5&#45;&gt;Node6 -->
<g id="edge6" class="edge">
<title>Node5&#45;&gt;Node6</title>
<path fill="none" stroke="#191970" d="M527.5346,-56.3733C559.4856,-46.5959 608.9243,-31.4671 642.5782,-21.1686"/>
<polygon fill="#191970" stroke="#191970" points="643.9408,-24.4119 652.479,-18.1389 641.8925,-17.7183 643.9408,-24.4119"/>
</g>
<!-- Node7 -->
<g id="node8" class="node">
<title>Node7</title>
<polygon fill="none" stroke="#bfbfbf" points="456.0757,-.5 456.0757,-19.5 536.0757,-19.5 536.0757,-.5 456.0757,-.5"/>
<text text-anchor="middle" x="496.0757" y="-7.5" font-family="FreeSans.ttf" font-size="10.00" fill="#000000">CoreExport.h</text>
</g>
<!-- Node5&#45;&gt;Node7 -->
<g id="edge7" class="edge">
<title>Node5&#45;&gt;Node7</title>
<path fill="none" stroke="#191970" d="M496.0757,-56.2455C496.0757,-48.9382 496.0757,-38.6944 496.0757,-29.7046"/>
<polygon fill="#191970" stroke="#191970" points="499.5758,-29.6426 496.0757,-19.6427 492.5758,-29.6427 499.5758,-29.6426"/>
</g>
<!-- Node8&#45;&gt;Node6 -->
<g id="edge10" class="edge">
<title>Node8&#45;&gt;Node6</title>
<path fill="none" stroke="#191970" d="M679.0757,-56.2455C679.0757,-48.9382 679.0757,-38.6944 679.0757,-29.7046"/>
<polygon fill="#191970" stroke="#191970" points="682.5758,-29.6426 679.0757,-19.6427 675.5758,-29.6427 682.5758,-29.6426"/>
</g>
<!-- Node8&#45;&gt;Node9 -->
<g id="edge9" class="edge">
<title>Node8&#45;&gt;Node9</title>
<path fill="none" stroke="#191970" d="M694.5783,-56.2455C708.2337,-47.6534 728.3414,-35.0014 744.0746,-25.1018"/>
<polygon fill="#191970" stroke="#191970" points="746.1508,-27.9307 752.7508,-19.6427 742.4229,-22.006 746.1508,-27.9307"/>
</g>
<!-- Node12 -->
<g id="node11" class="node">
<title>Node12</title>
<polygon fill="none" stroke="#bfbfbf" points="1676.5757,-.5 1676.5757,-19.5 1729.5757,-19.5 1729.5757,-.5 1676.5757,-.5"/>
<text text-anchor="middle" x="1703.0757" y="-7.5" font-family="FreeSans.ttf" font-size="10.00" fill="#000000">iterator</text>
</g>
<!-- Node8&#45;&gt;Node12 -->
<g id="edge11" class="edge">
<title>Node8&#45;&gt;Node12</title>
<path fill="none" stroke="#191970" d="M739.5865,-59.9442C755.0584,-58.5203 771.6741,-57.0993 787.0757,-56 1128.5225,-31.6297 1542.4815,-15.7501 1666.3642,-11.2873"/>
<polygon fill="#191970" stroke="#191970" points="1666.5796,-14.7819 1676.4479,-10.9263 1666.3291,-7.7864 1666.5796,-14.7819"/>
</g>
<!-- Node19&#45;&gt;Node3 -->
<g id="edge26" class="edge">
<title>Node19&#45;&gt;Node3</title>
<path fill="none" stroke="#191970" d="M1458.3093,-291.3932C1499.8148,-278.2278 1565.847,-250.164 1595.0757,-199 1628.9392,-139.7231 1524.7526,-94.8303 1469.7552,-75.8792"/>
<polygon fill="#191970" stroke="#191970" points="1470.6966,-72.5035 1460.1027,-72.6449 1468.4726,-79.1408 1470.6966,-72.5035"/>
</g>
<!-- Node20 -->
<g id="node15" class="node">
<title>Node20</title>
<g id="a_node15"><a xlink:href="PositionRaw_8h.html" target="_top" xlink:title="iDynTree/Core/PositionRaw.h">
<polygon fill="none" stroke="#000000" points="1430.0757,-174 1430.0757,-193 1586.0757,-193 1586.0757,-174 1430.0757,-174"/>
<text text-anchor="middle" x="1508.0757" y="-181" font-family="FreeSans.ttf" font-size="10.00" fill="#000000">iDynTree/Core/PositionRaw.h</text>
</a>
</g>
</g>
<!-- Node19&#45;&gt;Node20 -->
<g id="edge18" class="edge">
<title>Node19&#45;&gt;Node20</title>
<path fill="none" stroke="#191970" d="M1429.1135,-291.3845C1443.4762,-271.761 1476.3637,-226.8274 1494.8448,-201.5772"/>
<polygon fill="#191970" stroke="#191970" points="1497.8589,-203.3851 1500.9407,-193.2484 1492.2102,-199.2507 1497.8589,-203.3851"/>
</g>
<!-- Node21 -->
<g id="node16" class="node">
<title>Node21</title>
<g id="a_node16"><a xlink:href="Rotation_8h.html" target="_top" xlink:title="iDynTree/Core/Rotation.h">
<polygon fill="none" stroke="#ff0000" points="1194.5757,-235.5 1194.5757,-254.5 1331.5757,-254.5 1331.5757,-235.5 1194.5757,-235.5"/>
<text text-anchor="middle" x="1263.0757" y="-242.5" font-family="FreeSans.ttf" font-size="10.00" fill="#000000">iDynTree/Core/Rotation.h</text>
</a>
</g>
</g>
<!-- Node19&#45;&gt;Node21 -->
<g id="edge21" class="edge">
<title>Node19&#45;&gt;Node21</title>
<path fill="none" stroke="#191970" d="M1394.7427,-291.3733C1368.5323,-282.1419 1328.7774,-268.1402 1299.8089,-257.9375"/>
<polygon fill="#191970" stroke="#191970" points="1300.647,-254.5219 1290.0521,-254.5011 1298.3215,-261.1244 1300.647,-254.5219"/>
</g>
<!-- Node20&#45;&gt;Node3 -->
<g id="edge20" class="edge">
<title>Node20&#45;&gt;Node3</title>
<path fill="none" stroke="#191970" d="M1502.3473,-173.8845C1490.708,-154.3471 1464.1224,-109.7211 1449.0437,-84.4106"/>
<polygon fill="#191970" stroke="#191970" points="1452.0082,-82.5481 1443.8833,-75.7484 1445.9945,-86.1307 1452.0082,-82.5481"/>
</g>
<!-- Node20&#45;&gt;Node4 -->
<g id="edge19" class="edge">
<title>Node20&#45;&gt;Node4</title>
<path fill="none" stroke="#191970" d="M1436.7604,-173.9611C1419.2274,-171.8081 1400.49,-169.6687 1383.0757,-168 1147.6125,-145.4371 1087.9956,-149.1411 852.0757,-132 839.701,-131.1009 826.661,-130.1243 813.8189,-129.1454"/>
<polygon fill="#191970" stroke="#191970" points="813.8167,-125.6351 803.5787,-128.3613 813.2822,-132.6146 813.8167,-125.6351"/>
</g>
<!-- Node21&#45;&gt;Node3 -->
<g id="edge22" class="edge">
<title>Node21&#45;&gt;Node3</title>
<path fill="none" stroke="#191970" d="M1313.0542,-235.497C1336.7917,-228.7704 1364.0585,-217.528 1383.0757,-199 1415.3071,-167.5978 1429.409,-114.5563 1434.938,-85.8625"/>
<polygon fill="#191970" stroke="#191970" points="1438.4171,-86.2866 1436.7089,-75.8304 1431.5237,-85.0697 1438.4171,-86.2866"/>
</g>
<!-- Node21&#45;&gt;Node4 -->
<g id="edge25" class="edge">
<title>Node21&#45;&gt;Node4</title>
<path fill="none" stroke="#191970" d="M1256.157,-235.3495C1243.346,-218.3392 1214.1127,-183.3684 1180.0757,-168 1163.6461,-160.5817 942.3516,-140.6872 813.8472,-129.6466"/>
<polygon fill="#191970" stroke="#191970" points="813.8795,-126.1366 803.617,-128.7695 813.2815,-133.111 813.8795,-126.1366"/>
</g>
<!-- Node22 -->
<g id="node17" class="node">
<title>Node22</title>
<g id="a_node17"><a xlink:href="GeomVector3_8h.html" target="_top" xlink:title="iDynTree/Core/GeomVector3.h">
<polygon fill="none" stroke="#000000" points="936.5757,-174 936.5757,-193 1099.5757,-193 1099.5757,-174 936.5757,-174"/>
<text text-anchor="middle" x="1018.0757" y="-181" font-family="FreeSans.ttf" font-size="10.00" fill="#000000">iDynTree/Core/GeomVector3.h</text>
</a>
</g>
</g>
<!-- Node21&#45;&gt;Node22 -->
<g id="edge23" class="edge">
<title>Node21&#45;&gt;Node22</title>
<path fill="none" stroke="#191970" d="M1225.0633,-235.4581C1182.2387,-224.7082 1112.555,-207.2162 1066.0259,-195.5365"/>
<polygon fill="#191970" stroke="#191970" points="1066.7286,-192.1043 1056.1773,-193.0643 1065.0243,-198.8937 1066.7286,-192.1043"/>
</g>
<!-- Node22&#45;&gt;Node4 -->
<g id="edge24" class="edge">
<title>Node22&#45;&gt;Node4</title>
<path fill="none" stroke="#191970" d="M972.3057,-173.9581C920.2008,-163.0956 835.0739,-145.3488 779.0591,-133.6711"/>
<polygon fill="#191970" stroke="#191970" points="779.457,-130.1789 768.9532,-131.5643 778.0284,-137.0316 779.457,-130.1789"/>
</g>
<!-- Node26&#45;&gt;Node3 -->
<g id="edge28" class="edge">
<title>Node26&#45;&gt;Node3</title>
<path fill="none" stroke="#191970" d="M496.83,-408.9228C504.2488,-389.1066 520.0757,-342.0246 520.0757,-301 520.0757,-301 520.0757,-301 520.0757,-183.5 520.0757,-123.6925 577.0947,-130.1686 634.0757,-112 708.48,-88.2759 1265.4379,-70.9237 1405.9567,-66.8923"/>
<polygon fill="#191970" stroke="#191970" points="1406.1789,-70.3875 1416.0753,-66.6045 1405.9798,-63.3903 1406.1789,-70.3875"/>
</g>
<!-- Node27&#45;&gt;Node3 -->
<g id="edge31" class="edge">
<title>Node27&#45;&gt;Node3</title>
<path fill="none" stroke="#191970" d="M335.5974,-408.9575C375.337,-393.2195 444.0757,-357.7891 444.0757,-301 444.0757,-301 444.0757,-301 444.0757,-245 444.0757,-168.2912 485.2414,-145.8539 554.0757,-112 593.0043,-92.8543 1251.1681,-71.6907 1405.7583,-66.9683"/>
<polygon fill="#191970" stroke="#191970" points="1406.114,-70.4592 1416.0031,-66.657 1405.9013,-63.4625 1406.114,-70.4592"/>
</g>
<!-- Node27&#45;&gt;Node8 -->
<g id="edge30" class="edge">
<title>Node27&#45;&gt;Node8</title>
<path fill="none" stroke="#191970" d="M308.771,-408.757C310.1448,-388.6352 313.0757,-341.0188 313.0757,-301 313.0757,-301 313.0757,-301 313.0757,-183.5 313.0757,-122.163 501.7828,-88.3296 608.1954,-74.127"/>
<polygon fill="#191970" stroke="#191970" points="608.7664,-77.5822 618.2274,-72.8135 607.8577,-70.6414 608.7664,-77.5822"/>
</g>
<!-- Node28&#45;&gt;Node3 -->
<g id="edge34" class="edge">
<title>Node28&#45;&gt;Node3</title>
<path fill="none" stroke="#191970" d="M1609.2281,-470.4123C1652.7663,-454.4621 1728.0757,-418.0489 1728.0757,-357 1728.0757,-357 1728.0757,-357 1728.0757,-183.5 1728.0757,-128.8636 1677.7582,-134.733 1628.0757,-112 1575.7469,-88.0561 1509.3854,-75.6503 1470.5362,-70.0023"/>
<polygon fill="#191970" stroke="#191970" points="1470.7296,-66.4956 1460.3428,-68.5845 1469.7652,-73.4289 1470.7296,-66.4956"/>
</g>
<!-- Node29 -->
<g id="node21" class="node">
<title>Node29</title>
<polygon fill="none" stroke="#bfbfbf" points="1756.0757,-409 1756.0757,-428 1842.0757,-428 1842.0757,-409 1756.0757,-409"/>
<text text-anchor="middle" x="1799.0757" y="-416" font-family="FreeSans.ttf" font-size="10.00" fill="#000000">ModelExport.h</text>
</g>
<!-- Node28&#45;&gt;Node29 -->
<g id="edge35" class="edge">
<title>Node28&#45;&gt;Node29</title>
<path fill="none" stroke="#191970" d="M1613.4507,-470.3906C1651.6331,-459.7169 1713.3773,-442.4566 1755.0641,-430.8033"/>
<polygon fill="#191970" stroke="#191970" points="1756.2536,-434.105 1764.9421,-428.0419 1754.369,-427.3634 1756.2536,-434.105"/>
</g>
<!-- Node30&#45;&gt;Node28 -->
<g id="edge69" class="edge">
<title>Node30&#45;&gt;Node28</title>
<path fill="none" stroke="#191970" d="M1185.1218,-531.9918C1270.3594,-520.7426 1411.7963,-502.0766 1499.9935,-490.4368"/>
<polygon fill="#191970" stroke="#191970" points="1500.4911,-493.9016 1509.9472,-489.1232 1499.5752,-486.9618 1500.4911,-493.9016"/>
</g>
<!-- Node31 -->
<g id="node23" class="node">
<title>Node31</title>
<g id="a_node23"><a xlink:href="Transform_8h.html" target="_top" xlink:title="iDynTree/Core/Transform.h">
<polygon fill="none" stroke="#000000" points="1437.0757,-347.5 1437.0757,-366.5 1583.0757,-366.5 1583.0757,-347.5 1437.0757,-347.5"/>
<text text-anchor="middle" x="1510.0757" y="-354.5" font-family="FreeSans.ttf" font-size="10.00" fill="#000000">iDynTree/Core/Transform.h</text>
</a>
</g>
</g>
<!-- Node30&#45;&gt;Node31 -->
<g id="edge37" class="edge">
<title>Node30&#45;&gt;Node31</title>
<path fill="none" stroke="#191970" d="M1161.6995,-531.98C1223.6442,-519.6194 1324.5769,-498.6113 1340.0757,-490 1387.6023,-463.594 1382.6649,-435.7345 1426.0757,-403 1442.611,-390.5314 1462.9408,-379.3065 1479.4585,-371.0667"/>
<polygon fill="#191970" stroke="#191970" points="1481.2275,-374.0983 1488.6858,-366.5734 1478.1628,-367.8048 1481.2275,-374.0983"/>
</g>
<!-- Node32 -->
<g id="node26" class="node">
<title>Node32</title>
<g id="a_node26"><a xlink:href="Twist_8h.html" target="_top" xlink:title="iDynTree/Core/Twist.h">
<polygon fill="none" stroke="#000000" points="972.0757,-470.5 972.0757,-489.5 1094.0757,-489.5 1094.0757,-470.5 972.0757,-470.5"/>
<text text-anchor="middle" x="1033.0757" y="-477.5" font-family="FreeSans.ttf" font-size="10.00" fill="#000000">iDynTree/Core/Twist.h</text>
</a>
</g>
</g>
<!-- Node30&#45;&gt;Node32 -->
<g id="edge48" class="edge">
<title>Node30&#45;&gt;Node32</title>
<path fill="none" stroke="#191970" d="M1100.5757,-531.8906C1088.0122,-522.2324 1068.4334,-507.1812 1053.5909,-495.771"/>
<polygon fill="#191970" stroke="#191970" points="1055.5492,-492.8618 1045.488,-489.5419 1051.2829,-498.4115 1055.5492,-492.8618"/>
</g>
<!-- Node35 -->
<g id="node29" class="node">
<title>Node35</title>
<g id="a_node29"><a xlink:href="SpatialAcc_8h.html" target="_top" xlink:title="iDynTree/Core/SpatialAcc.h">
<polygon fill="none" stroke="#000000" points="1112.0757,-470.5 1112.0757,-489.5 1260.0757,-489.5 1260.0757,-470.5 1112.0757,-470.5"/>
<text text-anchor="middle" x="1186.0757" y="-477.5" font-family="FreeSans.ttf" font-size="10.00" fill="#000000">iDynTree/Core/SpatialAcc.h</text>
</a>
</g>
</g>
<!-- Node30&#45;&gt;Node35 -->
<g id="edge59" class="edge">
<title>Node30&#45;&gt;Node35</title>
<path fill="none" stroke="#191970" d="M1124.482,-531.8906C1135.7727,-522.3786 1153.2724,-507.6357 1166.7376,-496.2917"/>
<polygon fill="#191970" stroke="#191970" points="1169.1159,-498.8646 1174.5087,-489.7449 1164.6058,-493.5111 1169.1159,-498.8646"/>
</g>
<!-- Node36 -->
<g id="node30" class="node">
<title>Node36</title>
<g id="a_node30"><a xlink:href="Wrench_8h.html" target="_top" xlink:title="iDynTree/Core/Wrench.h">
<polygon fill="none" stroke="#000000" points="820.5757,-470.5 820.5757,-489.5 953.5757,-489.5 953.5757,-470.5 820.5757,-470.5"/>
<text text-anchor="middle" x="887.0757" y="-477.5" font-family="FreeSans.ttf" font-size="10.00" fill="#000000">iDynTree/Core/Wrench.h</text>
</a>
</g>
</g>
<!-- Node30&#45;&gt;Node36 -->
<g id="edge61" class="edge">
<title>Node30&#45;&gt;Node36</title>
<path fill="none" stroke="#191970" d="M1077.7632,-531.8906C1038.4566,-521.1944 974.8431,-503.8836 932.0163,-492.2294"/>
<polygon fill="#191970" stroke="#191970" points="932.7084,-488.7905 922.1403,-489.5419 930.8703,-495.5449 932.7084,-488.7905"/>
</g>
<!-- Node38 -->
<g id="node32" class="node">
<title>Node38</title>
<g id="a_node32"><a xlink:href="ArticulatedBodyInertia_8h.html" target="_top" xlink:title="iDynTree/Core/Articulated\lBodyInertia.h">
<polygon fill="none" stroke="#000000" points="1232.5757,-168.5 1232.5757,-198.5 1373.5757,-198.5 1373.5757,-168.5 1232.5757,-168.5"/>
<text text-anchor="start" x="1240.5757" y="-186.5" font-family="FreeSans.ttf" font-size="10.00" fill="#000000">iDynTree/Core/Articulated</text>
<text text-anchor="middle" x="1303.0757" y="-175.5" font-family="FreeSans.ttf" font-size="10.00" fill="#000000">BodyInertia.h</text>
</a>
</g>
</g>
<!-- Node30&#45;&gt;Node38 -->
<g id="edge66" class="edge">
<title>Node30&#45;&gt;Node38</title>
<path fill="none" stroke="#191970" d="M1170.5806,-531.9593C1218.9234,-522.8623 1283.0932,-507.9155 1302.0757,-490 1326.4533,-466.9927 1326.0757,-452.0202 1326.0757,-418.5 1326.0757,-418.5 1326.0757,-418.5 1326.0757,-357 1326.0757,-302.3695 1358.1488,-286.8941 1341.0757,-235 1337.69,-224.709 1331.3712,-214.7865 1324.8446,-206.4447"/>
<polygon fill="#191970" stroke="#191970" points="1327.4485,-204.1025 1318.3497,-198.6746 1322.0777,-208.5919 1327.4485,-204.1025"/>
</g>
<!-- Node30&#45;&gt;Node39 -->
<g id="edge70" class="edge">
<title>Node30&#45;&gt;Node39</title>
<path fill="none" stroke="#191970" d="M1187.8748,-534.4539C1292.7466,-524.567 1489.4486,-505.9935 1657.0757,-490 1680.6018,-487.7553 1707.1193,-485.2053 1727.4896,-483.2421"/>
<polygon fill="#191970" stroke="#191970" points="1727.9153,-486.7174 1737.5332,-482.2737 1727.2434,-479.7497 1727.9153,-486.7174"/>
</g>
<!-- Node31&#45;&gt;Node3 -->
<g id="edge47" class="edge">
<title>Node31&#45;&gt;Node3</title>
<path fill="none" stroke="#191970" d="M1563.1081,-347.3891C1616.2037,-334.3494 1690.0757,-305.3611 1690.0757,-245 1690.0757,-245 1690.0757,-245 1690.0757,-183.5 1690.0757,-135.5188 1538.1151,-91.2018 1470.2016,-73.7918"/>
<polygon fill="#191970" stroke="#191970" points="1470.9917,-70.3815 1460.4391,-71.3264 1469.2777,-77.1684 1470.9917,-70.3815"/>
</g>
<!-- Node31&#45;&gt;Node19 -->
<g id="edge38" class="edge">
<title>Node31&#45;&gt;Node19</title>
<path fill="none" stroke="#191970" d="M1494.7473,-347.2455C1481.2454,-338.6534 1461.3636,-326.0014 1445.8071,-316.1018"/>
<polygon fill="#191970" stroke="#191970" points="1447.5442,-313.0587 1437.2285,-310.6427 1443.7861,-318.9643 1447.5442,-313.0587"/>
</g>
<!-- Node31&#45;&gt;Node21 -->
<g id="edge39" class="edge">
<title>Node31&#45;&gt;Node21</title>
<path fill="none" stroke="#191970" d="M1511.5455,-347.4422C1513.1592,-333.1186 1513.8194,-306.1526 1499.0757,-291 1477.5081,-268.8342 1401.8405,-256.9169 1341.927,-250.8103"/>
<polygon fill="#191970" stroke="#191970" points="1341.9942,-247.3002 1331.7005,-249.808 1341.3113,-254.2668 1341.9942,-247.3002"/>
</g>
<!-- Node24 -->
<g id="node24" class="node">
<title>Node24</title>
<g id="a_node24"><a xlink:href="MatrixFixSize_8h.html" target="_top" xlink:title="iDynTree/Core/MatrixFixSize.h">
<polygon fill="none" stroke="#000000" points="860.5757,-112.5 860.5757,-131.5 1021.5757,-131.5 1021.5757,-112.5 860.5757,-112.5"/>
<text text-anchor="middle" x="941.0757" y="-119.5" font-family="FreeSans.ttf" font-size="10.00" fill="#000000">iDynTree/Core/MatrixFixSize.h</text>
</a>
</g>
</g>
<!-- Node31&#45;&gt;Node24 -->
<g id="edge40" class="edge">
<title>Node31&#45;&gt;Node24</title>
<path fill="none" stroke="#191970" d="M1521.3546,-347.1141C1554.661,-316.7936 1647.0829,-223.7936 1595.0757,-168 1576.1712,-147.7191 1207.0991,-131.6601 1031.911,-125.147"/>
<polygon fill="#191970" stroke="#191970" points="1031.7991,-121.6406 1021.6767,-124.7692 1031.5408,-128.6358 1031.7991,-121.6406"/>
</g>
<!-- Node24&#45;&gt;Node3 -->
<g id="edge44" class="edge">
<title>Node24&#45;&gt;Node3</title>
<path fill="none" stroke="#191970" d="M1021.7564,-112.9092C1133.0763,-100.3661 1328.7381,-78.3197 1405.6884,-69.6493"/>
<polygon fill="#191970" stroke="#191970" points="1406.1922,-73.1148 1415.7374,-68.517 1405.4083,-66.1588 1406.1922,-73.1148"/>
</g>
<!-- Node24&#45;&gt;Node5 -->
<g id="edge41" class="edge">
<title>Node24&#45;&gt;Node5</title>
<path fill="none" stroke="#191970" d="M865.3355,-112.4686C781.466,-101.9143 647.3785,-85.0403 565.9446,-74.7925"/>
<polygon fill="#191970" stroke="#191970" points="566.1516,-71.291 555.7929,-73.515 565.2776,-78.2362 566.1516,-71.291"/>
</g>
<!-- Node24&#45;&gt;Node9 -->
<g id="edge42" class="edge">
<title>Node24&#45;&gt;Node9</title>
<path fill="none" stroke="#191970" d="M942.2526,-112.1105C943.3659,-97.853 943.1516,-71.5346 929.0757,-56 912.3958,-37.5915 846.229,-23.26 804.0855,-15.7666"/>
<polygon fill="#191970" stroke="#191970" points="804.6427,-12.3111 794.1922,-14.0541 803.4487,-19.2085 804.6427,-12.3111"/>
</g>
<!-- Node24&#45;&gt;Node17 -->
<g id="edge46" class="edge">
<title>Node24&#45;&gt;Node17</title>
<path fill="none" stroke="#191970" d="M920.9627,-112.3733C902.2654,-103.4241 874.2013,-89.9917 853.0823,-79.8835"/>
<polygon fill="#191970" stroke="#191970" points="854.4574,-76.6614 843.9263,-75.5011 851.4353,-82.9755 854.4574,-76.6614"/>
</g>
<!-- Node24&#45;&gt;Node18 -->
<g id="edge43" class="edge">
<title>Node24&#45;&gt;Node18</title>
<path fill="none" stroke="#191970" d="M933.0631,-112.2455C926.599,-104.3761 917.3373,-93.101 909.5774,-83.6542"/>
<polygon fill="#191970" stroke="#191970" points="912.0485,-81.1484 902.9965,-75.6427 906.6394,-85.5916 912.0485,-81.1484"/>
</g>
<!-- Node25 -->
<g id="node25" class="node">
<title>Node25</title>
<polygon fill="none" stroke="#bfbfbf" points="1014.0757,-56.5 1014.0757,-75.5 1074.0757,-75.5 1074.0757,-56.5 1014.0757,-56.5"/>
<text text-anchor="middle" x="1044.0757" y="-63.5" font-family="FreeSans.ttf" font-size="10.00" fill="#000000">iostream</text>
</g>
<!-- Node24&#45;&gt;Node25 -->
<g id="edge45" class="edge">
<title>Node24&#45;&gt;Node25</title>
<path fill="none" stroke="#191970" d="M959.017,-112.2455C975.1157,-103.4928 998.9636,-90.527 1017.3148,-80.5496"/>
<polygon fill="#191970" stroke="#191970" points="1019.2264,-83.4942 1026.3401,-75.6427 1015.8828,-77.3444 1019.2264,-83.4942"/>
</g>
<!-- Node33 -->
<g id="node27" class="node">
<title>Node33</title>
<g id="a_node27"><a xlink:href="SpatialMotionVector_8h.html" target="_top" xlink:title="iDynTree/Core/SpatialMotion\lVector.h">
<polygon fill="none" stroke="#000000" points="964.5757,-403.5 964.5757,-433.5 1119.5757,-433.5 1119.5757,-403.5 964.5757,-403.5"/>
<text text-anchor="start" x="972.5757" y="-421.5" font-family="FreeSans.ttf" font-size="10.00" fill="#000000">iDynTree/Core/SpatialMotion</text>
<text text-anchor="middle" x="1042.0757" y="-410.5" font-family="FreeSans.ttf" font-size="10.00" fill="#000000">Vector.h</text>
</a>
</g>
</g>
<!-- Node32&#45;&gt;Node33 -->
<g id="edge49" class="edge">
<title>Node32&#45;&gt;Node33</title>
<path fill="none" stroke="#191970" d="M1034.482,-470.3906C1035.5309,-463.2234 1037.0143,-453.0862 1038.3922,-443.671"/>
<polygon fill="#191970" stroke="#191970" points="1041.8891,-443.946 1039.8741,-433.5446 1034.9629,-442.9324 1041.8891,-443.946"/>
</g>
<!-- Node33&#45;&gt;Node4 -->
<g id="edge50" class="edge">
<title>Node33&#45;&gt;Node4</title>
<path fill="none" stroke="#191970" d="M1063.3342,-403.2466C1088.8012,-383.0184 1128.0757,-344.7335 1128.0757,-301 1128.0757,-301 1128.0757,-301 1128.0757,-245 1128.0757,-209.7513 1135.4887,-191.3415 1109.0757,-168 1098.103,-158.3033 924.5457,-140.6077 813.9298,-130.2186"/>
<polygon fill="#191970" stroke="#191970" points="814.0435,-126.714 803.7609,-129.2674 813.3915,-133.6836 814.0435,-126.714"/>
</g>
<!-- Node33&#45;&gt;Node22 -->
<g id="edge51" class="edge">
<title>Node33&#45;&gt;Node22</title>
<path fill="none" stroke="#191970" d="M1040.5379,-403.4422C1036.3605,-362.5381 1024.8017,-249.3587 1020.1021,-203.3419"/>
<polygon fill="#191970" stroke="#191970" points="1023.5617,-202.7672 1019.0638,-193.1746 1016.598,-203.4785 1023.5617,-202.7672"/>
</g>
<!-- Node34 -->
<g id="node28" class="node">
<title>Node34</title>
<g id="a_node28"><a xlink:href="SpatialVector_8h.html" target="_top" xlink:title="iDynTree/Core/SpatialVector.h">
<polygon fill="none" stroke="#000000" points="860.5757,-347.5 860.5757,-366.5 1021.5757,-366.5 1021.5757,-347.5 860.5757,-347.5"/>
<text text-anchor="middle" x="941.0757" y="-354.5" font-family="FreeSans.ttf" font-size="10.00" fill="#000000">iDynTree/Core/SpatialVector.h</text>
</a>
</g>
</g>
<!-- Node33&#45;&gt;Node34 -->
<g id="edge52" class="edge">
<title>Node33&#45;&gt;Node34</title>
<path fill="none" stroke="#191970" d="M1017.3684,-403.4554C1001.551,-393.8241 981.119,-381.3828 965.3808,-371.7996"/>
<polygon fill="#191970" stroke="#191970" points="967.0886,-368.7418 956.7271,-366.5303 963.448,-374.7206 967.0886,-368.7418"/>
</g>
<!-- Node34&#45;&gt;Node5 -->
<g id="edge55" class="edge">
<title>Node34&#45;&gt;Node5</title>
<path fill="none" stroke="#191970" d="M920.088,-347.4057C900.6822,-338.4012 871.1436,-324.355 846.0757,-311 758.8865,-264.5496 734.8288,-255.9082 654.0757,-199 600.1914,-161.0267 542.2119,-108.9988 513.8111,-82.6889"/>
<polygon fill="#191970" stroke="#191970" points="515.9998,-79.9443 506.2976,-75.6876 511.2276,-85.0656 515.9998,-79.9443"/>
</g>
<!-- Node34&#45;&gt;Node17 -->
<g id="edge58" class="edge">
<title>Node34&#45;&gt;Node17</title>
<path fill="none" stroke="#191970" d="M920.3171,-347.3851C888.6917,-331.1375 832.0757,-295.06 832.0757,-245 832.0757,-245 832.0757,-245 832.0757,-183.5 832.0757,-149.0604 828.6125,-109.0735 826.2433,-85.7484"/>
<polygon fill="#191970" stroke="#191970" points="829.7168,-85.3119 825.1881,-75.7337 822.7553,-86.0454 829.7168,-85.3119"/>
</g>
<!-- Node34&#45;&gt;Node19 -->
<g id="edge53" class="edge">
<title>Node34&#45;&gt;Node19</title>
<path fill="none" stroke="#191970" d="M1021.5843,-347.6269C1111.1995,-337.1935 1255.0548,-320.4453 1343.7695,-310.1167"/>
<polygon fill="#191970" stroke="#191970" points="1344.2464,-313.5849 1353.7746,-308.9519 1343.4369,-306.6319 1344.2464,-313.5849"/>
</g>
<!-- Node34&#45;&gt;Node21 -->
<g id="edge54" class="edge">
<title>Node34&#45;&gt;Node21</title>
<path fill="none" stroke="#191970" d="M968.5293,-347.4509C1026.3937,-327.3242 1160.9088,-280.5363 1226.2031,-257.8253"/>
<polygon fill="#191970" stroke="#191970" points="1227.3966,-261.1159 1235.6917,-254.5249 1225.0969,-254.5044 1227.3966,-261.1159"/>
</g>
<!-- Node34&#45;&gt;Node22 -->
<g id="edge56" class="edge">
<title>Node34&#45;&gt;Node22</title>
<path fill="none" stroke="#191970" d="M945.3253,-347.4248C957.6019,-319.7625 993.2842,-239.3614 1009.67,-202.4403"/>
<polygon fill="#191970" stroke="#191970" points="1012.887,-203.8196 1013.7444,-193.2595 1006.4888,-200.98 1012.887,-203.8196"/>
</g>
<!-- Node34&#45;&gt;Node25 -->
<g id="edge57" class="edge">
<title>Node34&#45;&gt;Node25</title>
<path fill="none" stroke="#191970" d="M936.4789,-347.2085C923.1176,-317.1599 887.7167,-224.8593 928.0757,-168 956.1445,-128.4557 999.3003,-168.6323 1031.0757,-132 1041.9445,-119.4699 1044.7546,-100.5278 1045.1026,-86.1454"/>
<polygon fill="#191970" stroke="#191970" points="1048.5976,-85.7493 1044.9607,-75.7982 1041.5983,-85.8453 1048.5976,-85.7493"/>
</g>
<!-- Node35&#45;&gt;Node33 -->
<g id="edge60" class="edge">
<title>Node35&#45;&gt;Node33</title>
<path fill="none" stroke="#191970" d="M1163.5757,-470.3906C1143.0946,-461.6435 1112.256,-448.4728 1086.7735,-437.5897"/>
<polygon fill="#191970" stroke="#191970" points="1087.8732,-434.2535 1077.3021,-433.5446 1085.1238,-440.691 1087.8732,-434.2535"/>
</g>
<!-- Node37 -->
<g id="node31" class="node">
<title>Node37</title>
<g id="a_node31"><a xlink:href="SpatialForceVector_8h.html" target="_top" xlink:title="iDynTree/Core/SpatialForce\lVector.h">
<polygon fill="none" stroke="#000000" points="670.0757,-403.5 670.0757,-433.5 818.0757,-433.5 818.0757,-403.5 670.0757,-403.5"/>
<text text-anchor="start" x="678.0757" y="-421.5" font-family="FreeSans.ttf" font-size="10.00" fill="#000000">iDynTree/Core/SpatialForce</text>
<text text-anchor="middle" x="744.0757" y="-410.5" font-family="FreeSans.ttf" font-size="10.00" fill="#000000">Vector.h</text>
</a>
</g>
</g>
<!-- Node36&#45;&gt;Node37 -->
<g id="edge62" class="edge">
<title>Node36&#45;&gt;Node37</title>
<path fill="none" stroke="#191970" d="M864.732,-470.3906C844.3931,-461.6435 813.7687,-448.4728 788.4631,-437.5897"/>
<polygon fill="#191970" stroke="#191970" points="789.6267,-434.2802 779.0575,-433.5446 786.8611,-440.7107 789.6267,-434.2802"/>
</g>
<!-- Node37&#45;&gt;Node4 -->
<g id="edge63" class="edge">
<title>Node37&#45;&gt;Node4</title>
<path fill="none" stroke="#191970" d="M735.4708,-403.4474C716.2048,-368.7731 670.041,-280.021 654.0757,-199 651.412,-185.4822 647.5746,-180.1475 654.0757,-168 661.5273,-154.0767 675.2606,-143.6399 688.5247,-136.258"/>
<polygon fill="#191970" stroke="#191970" points="690.2483,-139.3075 697.5496,-131.6302 687.0542,-133.0787 690.2483,-139.3075"/>
</g>
<!-- Node37&#45;&gt;Node22 -->
<g id="edge64" class="edge">
<title>Node37&#45;&gt;Node22</title>
<path fill="none" stroke="#191970" d="M761.6325,-403.4422C810.6385,-361.4115 948.6203,-243.0695 999.1926,-199.6954"/>
<polygon fill="#191970" stroke="#191970" points="1001.4835,-202.3416 1006.7955,-193.1746 996.9263,-197.0281 1001.4835,-202.3416"/>
</g>
<!-- Node37&#45;&gt;Node34 -->
<g id="edge65" class="edge">
<title>Node37&#45;&gt;Node34</title>
<path fill="none" stroke="#191970" d="M792.2674,-403.4554C825.5698,-393.059 869.36,-379.3884 900.8021,-369.5727"/>
<polygon fill="#191970" stroke="#191970" points="902.0451,-372.8514 910.5477,-366.5303 899.959,-366.1694 902.0451,-372.8514"/>
</g>
<!-- Node38&#45;&gt;Node3 -->
<g id="edge68" class="edge">
<title>Node38&#45;&gt;Node3</title>
<path fill="none" stroke="#191970" d="M1320.4482,-168.3795C1345.8949,-146.2315 1393.116,-105.1316 1419.3241,-82.3209"/>
<polygon fill="#191970" stroke="#191970" points="1421.7954,-84.81 1427.0406,-75.6046 1417.1997,-79.5298 1421.7954,-84.81"/>
</g>
<!-- Node38&#45;&gt;Node24 -->
<g id="edge67" class="edge">
<title>Node38&#45;&gt;Node24</title>
<path fill="none" stroke="#191970" d="M1232.1295,-170.4762C1227.3749,-169.6301 1222.6568,-168.798 1218.0757,-168 1147.3195,-155.6744 1066.2598,-142.3001 1010.1912,-133.1666"/>
<polygon fill="#191970" stroke="#191970" points="1010.4532,-129.6633 1000.0209,-131.5117 1009.329,-136.5724 1010.4532,-129.6633"/>
</g>
<!-- Node40&#45;&gt;Node4 -->
<g id="edge75" class="edge">
<title>Node40&#45;&gt;Node4</title>
<path fill="none" stroke="#191970" d="M471.4696,-470.484C516.5537,-462.8177 570.1171,-450.5812 586.0757,-434 670.1167,-346.6804 572.9853,-264.6716 646.0757,-168 656.6299,-154.0407 672.7568,-143.4726 687.5297,-136.0084"/>
<polygon fill="#191970" stroke="#191970" points="689.4241,-138.9843 696.9699,-131.5471 686.4332,-132.6554 689.4241,-138.9843"/>
</g>
<!-- Node40&#45;&gt;Node5 -->
<g id="edge81" class="edge">
<title>Node40&#45;&gt;Node5</title>
<path fill="none" stroke="#191970" d="M333.3739,-470.4965C287.3936,-462.8362 232.6894,-450.6017 216.0757,-434 191.1422,-409.0844 197.0757,-392.2487 197.0757,-357 197.0757,-357 197.0757,-357 197.0757,-183.5 197.0757,-133.1522 345.7883,-95.3786 433.4567,-77.4848"/>
<polygon fill="#191970" stroke="#191970" points="434.1944,-80.9066 443.3088,-75.505 432.8152,-74.0438 434.1944,-80.9066"/>
</g>
<!-- Node40&#45;&gt;Node26 -->
<g id="edge76" class="edge">
<title>Node40&#45;&gt;Node26</title>
<path fill="none" stroke="#191970" d="M417.1382,-470.3906C431.4043,-460.6421 453.7108,-445.3994 470.463,-433.9521"/>
<polygon fill="#191970" stroke="#191970" points="472.8302,-436.5736 479.112,-428.0419 468.8808,-430.7941 472.8302,-436.5736"/>
</g>
<!-- Node40&#45;&gt;Node27 -->
<g id="edge74" class="edge">
<title>Node40&#45;&gt;Node27</title>
<path fill="none" stroke="#191970" d="M388.232,-470.3906C373.0339,-460.5519 349.1909,-445.1167 331.4551,-433.6351"/>
<polygon fill="#191970" stroke="#191970" points="333.1118,-430.5382 322.8152,-428.0419 329.3077,-436.4144 333.1118,-430.5382"/>
</g>
<!-- Node40&#45;&gt;Node31 -->
<g id="edge80" class="edge">
<title>Node40&#45;&gt;Node31</title>
<path fill="none" stroke="#191970" d="M483.6309,-473.4864C499.3611,-472.2767 515.7323,-471.0611 531.0757,-470 796.7002,-451.6301 865.0556,-468.4558 1129.0757,-434 1249.937,-418.2271 1389.9089,-386.3818 1461.8625,-368.9948"/>
<polygon fill="#191970" stroke="#191970" points="1463.0836,-372.3 1471.9747,-366.5381 1461.431,-365.4979 1463.0836,-372.3"/>
</g>
<!-- Node40&#45;&gt;Node24 -->
<g id="edge77" class="edge">
<title>Node40&#45;&gt;Node24</title>
<path fill="none" stroke="#191970" d="M480.5978,-470.4918C531.183,-462.8792 591.358,-450.7044 611.0757,-434 639.2241,-410.1534 642.0757,-393.8916 642.0757,-357 642.0757,-357 642.0757,-357 642.0757,-301 642.0757,-212.5064 737.1605,-244.4751 813.0757,-199 849.1369,-177.3985 890.8489,-152.2817 916.5983,-136.7617"/>
<polygon fill="#191970" stroke="#191970" points="918.5655,-139.6626 925.3227,-131.5022 914.9515,-133.6677 918.5655,-139.6626"/>
</g>
<!-- Node40&#45;&gt;Node33 -->
<g id="edge78" class="edge">
<title>Node40&#45;&gt;Node33</title>
<path fill="none" stroke="#191970" d="M483.6818,-472.2421C603.9389,-460.6681 829.4743,-438.9616 953.9547,-426.9811"/>
<polygon fill="#191970" stroke="#191970" points="954.5902,-430.4362 964.2089,-425.9942 953.9196,-423.4684 954.5902,-430.4362"/>
</g>
<!-- Node40&#45;&gt;Node37 -->
<g id="edge79" class="edge">
<title>Node40&#45;&gt;Node37</title>
<path fill="none" stroke="#191970" d="M455.9828,-470.4581C510.4086,-460.6423 596.0034,-445.2051 659.7711,-433.7045"/>
<polygon fill="#191970" stroke="#191970" points="660.5899,-437.1134 669.8099,-431.894 659.3475,-430.2245 660.5899,-437.1134"/>
</g>
<!-- Node41 -->
<g id="node35" class="node">
<title>Node41</title>
<polygon fill="none" stroke="#bfbfbf" points="53.5757,-409 53.5757,-428 130.5757,-428 130.5757,-409 53.5757,-409"/>
<text text-anchor="middle" x="92.0757" y="-416" font-family="FreeSans.ttf" font-size="10.00" fill="#000000">Eigen/Dense</text>
</g>
<!-- Node40&#45;&gt;Node41 -->
<g id="edge73" class="edge">
<title>Node40&#45;&gt;Node41</title>
<path fill="none" stroke="#191970" d="M354.8232,-470.4581C296.5594,-458.9365 199.1296,-439.6698 140.6999,-428.1154"/>
<polygon fill="#191970" stroke="#191970" points="141.103,-424.6274 130.6139,-426.1209 139.745,-431.4944 141.103,-424.6274"/>
</g>
<!-- Node42&#45;&gt;Node41 -->
<g id="edge83" class="edge">
<title>Node42&#45;&gt;Node41</title>
<path fill="none" stroke="#191970" d="M129.2044,-777.7187C119.8031,-757.91 100.0757,-711.4105 100.0757,-670 100.0757,-670 100.0757,-670 100.0757,-541.5 100.0757,-504.9223 96.5092,-462.3547 94.1389,-438.103"/>
<polygon fill="#191970" stroke="#191970" points="97.6112,-437.6519 93.1216,-428.0554 90.6468,-438.3571 97.6112,-437.6519"/>
</g>
<!-- Node43&#45;&gt;Node37 -->
<g id="edge85" class="edge">
<title>Node43&#45;&gt;Node37</title>
<path fill="none" stroke="#191970" d="M650.4195,-470.3906C665.7897,-461.8747 688.7274,-449.166 708.0552,-438.4573"/>
<polygon fill="#191970" stroke="#191970" points="709.8712,-441.4525 716.9221,-433.5446 706.4787,-435.3295 709.8712,-441.4525"/>
</g>
<!-- Node44&#45;&gt;Node28 -->
<g id="edge98" class="edge">
<title>Node44&#45;&gt;Node28</title>
<path fill="none" stroke="#191970" d="M1526.0898,-660.4702C1526.2527,-632.3743 1527.6337,-550.3194 1538.0757,-526 1542.8241,-514.9412 1551.3169,-504.7185 1559.3462,-496.7328"/>
<polygon fill="#191970" stroke="#191970" points="1562.1322,-498.9211 1567.0652,-489.5447 1557.3617,-493.7983 1562.1322,-498.9211"/>
</g>
<!-- Node44&#45;&gt;Node31 -->
<g id="edge97" class="edge">
<title>Node44&#45;&gt;Node31</title>
<path fill="none" stroke="#191970" d="M1474.7276,-660.4847C1437.4229,-652.4058 1391.5489,-639.6439 1380.0757,-624 1347.8662,-580.0814 1457.3679,-426.795 1496.6104,-374.5778"/>
<polygon fill="#191970" stroke="#191970" points="1499.4272,-376.6557 1502.6746,-366.5708 1493.8469,-372.4294 1499.4272,-376.6557"/>
</g>
<!-- Node44&#45;&gt;Node39 -->
<g id="edge105" class="edge">
<title>Node44&#45;&gt;Node39</title>
<path fill="none" stroke="#191970" d="M1546.1414,-660.3798C1580.9347,-643.0576 1653.5714,-604.0117 1704.0757,-557 1722.8012,-539.5695 1739.6018,-515.2878 1750.0308,-498.68"/>
<polygon fill="#191970" stroke="#191970" points="1753.1699,-500.2554 1755.4013,-489.8982 1747.1981,-496.6033 1753.1699,-500.2554"/>
</g>
<!-- Node45 -->
<g id="node39" class="node">
<title>Node45</title>
<g id="a_node39"><a xlink:href="IJoint_8h.html" target="_top" xlink:title="iDynTree/Model/IJoint.h">
<polygon fill="none" stroke="#000000" points="1389.0757,-599 1389.0757,-618 1517.0757,-618 1517.0757,-599 1389.0757,-599"/>
<text text-anchor="middle" x="1453.0757" y="-606" font-family="FreeSans.ttf" font-size="10.00" fill="#000000">iDynTree/Model/IJoint.h</text>
</a>
</g>
</g>
<!-- Node44&#45;&gt;Node45 -->
<g id="edge87" class="edge">
<title>Node44&#45;&gt;Node45</title>
<path fill="none" stroke="#191970" d="M1514.6695,-660.3906C1503.3788,-650.8786 1485.8791,-636.1357 1472.4139,-624.7917"/>
<polygon fill="#191970" stroke="#191970" points="1474.5456,-622.0111 1464.6428,-618.2449 1470.0355,-627.3646 1474.5456,-622.0111"/>
</g>
<!-- Node46 -->
<g id="node40" class="node">
<title>Node46</title>
<g id="a_node40"><a xlink:href="Link_8h.html" target="_top" xlink:title="iDynTree/Model/Link.h">
<polygon fill="none" stroke="#000000" points="1209.0757,-599 1209.0757,-618 1333.0757,-618 1333.0757,-599 1209.0757,-599"/>
<text text-anchor="middle" x="1271.0757" y="-606" font-family="FreeSans.ttf" font-size="10.00" fill="#000000">iDynTree/Model/Link.h</text>
</a>
</g>
</g>
<!-- Node44&#45;&gt;Node46 -->
<g id="edge89" class="edge">
<title>Node44&#45;&gt;Node46</title>
<path fill="none" stroke="#191970" d="M1486.5118,-660.4581C1441.8457,-649.6857 1369.107,-632.1428 1320.6787,-620.4631"/>
<polygon fill="#191970" stroke="#191970" points="1321.2744,-617.0065 1310.7325,-618.0643 1319.6332,-623.8113 1321.2744,-617.0065"/>
</g>
<!-- Node50 -->
<g id="node42" class="node">
<title>Node50</title>
<g id="a_node42"><a xlink:href="SolidShapes_8h.html" target="_top" xlink:title="iDynTree/Model/SolidShapes.h">
<polygon fill="none" stroke="#000000" points="2085.5757,-532 2085.5757,-551 2248.5757,-551 2248.5757,-532 2085.5757,-532"/>
<text text-anchor="middle" x="2167.0757" y="-539" font-family="FreeSans.ttf" font-size="10.00" fill="#000000">iDynTree/Model/SolidShapes.h</text>
</a>
</g>
</g>
<!-- Node44&#45;&gt;Node50 -->
<g id="edge99" class="edge">
<title>Node44&#45;&gt;Node50</title>
<path fill="none" stroke="#191970" d="M1592.7808,-660.9018C1651.9246,-652.4911 1740.54,-639.0477 1817.0757,-624 1926.7603,-602.4349 2054.2366,-570.6761 2120.9555,-553.5335"/>
<polygon fill="#191970" stroke="#191970" points="2121.9292,-556.8971 2130.7396,-551.0124 2120.1825,-550.1185 2121.9292,-556.8971"/>
</g>
<!-- Node51 -->
<g id="node43" class="node">
<title>Node51</title>
<polygon fill="none" stroke="#bfbfbf" points="2008.5757,-470.5 2008.5757,-489.5 2057.5757,-489.5 2057.5757,-470.5 2008.5757,-470.5"/>
<text text-anchor="middle" x="2033.0757" y="-477.5" font-family="FreeSans.ttf" font-size="10.00" fill="#000000">cstdlib</text>
</g>
<!-- Node44&#45;&gt;Node51 -->
<g id="edge104" class="edge">
<title>Node44&#45;&gt;Node51</title>
<path fill="none" stroke="#191970" d="M1561.4182,-660.4613C1616.1367,-645.7355 1724.691,-616.6897 1817.0757,-593 1881.3957,-576.5068 1904.9408,-590.8331 1962.0757,-557 1987.1243,-542.1672 2008.6107,-515.7729 2021.1942,-498.0783"/>
<polygon fill="#191970" stroke="#191970" points="2024.1552,-499.9492 2026.9347,-489.7254 2018.3863,-495.9844 2024.1552,-499.9492"/>
</g>
<!-- Node45&#45;&gt;Node28 -->
<g id="edge88" class="edge">
<title>Node45&#45;&gt;Node28</title>
<path fill="none" stroke="#191970" d="M1451.9266,-598.9113C1450.4683,-582.1915 1449.9265,-547.4431 1467.0757,-526 1479.8234,-510.0605 1499.0128,-499.5948 1517.9237,-492.7437"/>
<polygon fill="#191970" stroke="#191970" points="1519.0697,-496.0511 1527.4524,-489.5717 1516.8588,-489.4094 1519.0697,-496.0511"/>
</g>
<!-- Node46&#45;&gt;Node28 -->
<g id="edge96" class="edge">
<title>Node46&#45;&gt;Node28</title>
<path fill="none" stroke="#191970" d="M1290.044,-598.9904C1322.3028,-582.9808 1390.094,-550.0418 1449.0757,-526 1479.2512,-513.7 1514.0885,-501.4758 1540.1002,-492.7238"/>
<polygon fill="#191970" stroke="#191970" points="1541.2338,-496.0353 1549.6092,-489.5466 1539.0154,-489.3961 1541.2338,-496.0353"/>
</g>
<!-- Node47 -->
<g id="node41" class="node">
<title>Node47</title>
<g id="a_node41"><a xlink:href="SpatialInertia_8h.html" target="_top" xlink:title="iDynTree/Core/SpatialInertia.h">
<polygon fill="none" stroke="#ff0000" points="858.0757,-532 858.0757,-551 1020.0757,-551 1020.0757,-532 858.0757,-532"/>
<text text-anchor="middle" x="939.0757" y="-539" font-family="FreeSans.ttf" font-size="10.00" fill="#000000">iDynTree/Core/SpatialInertia.h</text>
</a>
</g>
</g>
<!-- Node46&#45;&gt;Node47 -->
<g id="edge90" class="edge">
<title>Node46&#45;&gt;Node47</title>
<path fill="none" stroke="#191970" d="M1228.9124,-598.9935C1219.7445,-596.974 1210.0919,-594.8841 1201.0757,-593 1132.0168,-578.569 1052.4706,-563.0949 999.3138,-552.9182"/>
<polygon fill="#191970" stroke="#191970" points="999.8541,-549.4582 989.3748,-551.0183 998.5397,-556.3337 999.8541,-549.4582"/>
</g>
<!-- Node47&#45;&gt;Node4 -->
<g id="edge91" class="edge">
<title>Node47&#45;&gt;Node4</title>
<path fill="none" stroke="#191970" d="M993.9054,-531.9857C1005.8225,-529.9668 1018.3662,-527.879 1030.0757,-526 1083.1076,-517.4903 1234.0393,-530.7092 1269.0757,-490 1274.8742,-483.2628 1270.9543,-478.6881 1269.0757,-470 1261.2887,-433.9854 1161.8824,-189.6622 1132.0757,-168 1119.3508,-158.7521 930.5609,-140.4574 813.9787,-129.9404"/>
<polygon fill="#191970" stroke="#191970" points="814.2485,-126.4507 803.9753,-129.0411 813.6217,-133.4225 814.2485,-126.4507"/>
</g>
<!-- Node47&#45;&gt;Node32 -->
<g id="edge92" class="edge">
<title>Node47&#45;&gt;Node32</title>
<path fill="none" stroke="#191970" d="M953.7632,-531.8906C968.8013,-522.0519 992.3934,-506.6167 1009.9425,-495.1351"/>
<polygon fill="#191970" stroke="#191970" points="1012.0395,-497.9457 1018.4914,-489.5419 1008.207,-492.088 1012.0395,-497.9457"/>
</g>
<!-- Node47&#45;&gt;Node35 -->
<g id="edge94" class="edge">
<title>Node47&#45;&gt;Node35</title>
<path fill="none" stroke="#191970" d="M977.3985,-531.9581C1020.5727,-521.2082 1090.8253,-503.7162 1137.7342,-492.0365"/>
<polygon fill="#191970" stroke="#191970" points="1138.805,-495.3768 1147.6631,-489.5643 1137.1137,-488.5842 1138.805,-495.3768"/>
</g>
<!-- Node47&#45;&gt;Node36 -->
<g id="edge95" class="edge">
<title>Node47&#45;&gt;Node36</title>
<path fill="none" stroke="#191970" d="M930.9507,-531.8906C923.2116,-522.7376 911.377,-508.7409 901.9486,-497.59"/>
<polygon fill="#191970" stroke="#191970" points="904.4446,-495.1213 895.3153,-489.7449 899.0993,-499.6409 904.4446,-495.1213"/>
</g>
<!-- Node47&#45;&gt;Node43 -->
<g id="edge93" class="edge">
<title>Node47&#45;&gt;Node43</title>
<path fill="none" stroke="#191970" d="M891.599,-531.9581C837.3599,-521.0571 748.6245,-503.223 690.5307,-491.5473"/>
<polygon fill="#191970" stroke="#191970" points="690.9057,-488.0528 680.4121,-489.5137 689.5264,-494.9155 690.9057,-488.0528"/>
</g>
<!-- Node50&#45;&gt;Node3 -->
<g id="edge101" class="edge">
<title>Node50&#45;&gt;Node3</title>
<path fill="none" stroke="#191970" d="M2166.0299,-531.9446C2163.8614,-511.2785 2159.0757,-460.8706 2159.0757,-418.5 2159.0757,-418.5 2159.0757,-418.5 2159.0757,-183.5 2159.0757,-112.7363 1611.067,-76.0509 1470.5779,-67.8088"/>
<polygon fill="#191970" stroke="#191970" points="1470.63,-64.306 1460.4445,-67.2224 1470.2255,-71.2943 1470.63,-64.306"/>
</g>
<!-- Node50&#45;&gt;Node31 -->
<g id="edge103" class="edge">
<title>Node50&#45;&gt;Node31</title>
<path fill="none" stroke="#191970" d="M2156.1419,-531.8575C2138.5217,-516.7583 2102.2506,-487.4601 2067.0757,-470 1911.5189,-392.7845 1706.5736,-368.3301 1593.6805,-360.5868"/>
<polygon fill="#191970" stroke="#191970" points="1593.5891,-357.0733 1583.3809,-359.9093 1593.1296,-364.0582 1593.5891,-357.0733"/>
</g>
<!-- Node50&#45;&gt;Node39 -->
<g id="edge102" class="edge">
<title>Node50&#45;&gt;Node39</title>
<path fill="none" stroke="#191970" d="M2108.9677,-531.9957C2096.4726,-529.9862 2083.3381,-527.8996 2071.0757,-526 1970.8095,-510.4671 1852.1247,-493.1549 1795.0592,-484.8979"/>
<polygon fill="#191970" stroke="#191970" points="1795.2129,-481.3838 1784.8151,-483.4171 1794.2115,-488.3118 1795.2129,-481.3838"/>
</g>
<!-- Node50&#45;&gt;Node51 -->
<g id="edge100" class="edge">
<title>Node50&#45;&gt;Node51</title>
<path fill="none" stroke="#191970" d="M2146.1382,-531.8906C2123.8159,-521.6457 2088.2721,-505.3326 2063,-493.7339"/>
<polygon fill="#191970" stroke="#191970" points="2064.4147,-490.5322 2053.8662,-489.5419 2061.4948,-496.8942 2064.4147,-490.5322"/>
</g>
<!-- Node52&#45;&gt;Node28 -->
<g id="edge107" class="edge">
<title>Node52&#45;&gt;Node28</title>
<path fill="none" stroke="#191970" d="M1614.5132,-531.8906C1608.3849,-522.917 1599.0772,-509.2879 1591.5386,-498.2491"/>
<polygon fill="#191970" stroke="#191970" points="1594.2607,-496.029 1585.7308,-489.7449 1588.4801,-499.9768 1594.2607,-496.029"/>
</g>
<!-- Node52&#45;&gt;Node39 -->
<g id="edge108" class="edge">
<title>Node52&#45;&gt;Node39</title>
<path fill="none" stroke="#191970" d="M1642.9507,-531.8906C1666.3753,-521.6005 1703.7354,-505.1888 1730.1598,-493.5809"/>
<polygon fill="#191970" stroke="#191970" points="1731.6065,-496.7683 1739.3543,-489.5419 1728.7911,-490.3594 1731.6065,-496.7683"/>
</g>
<!-- Node53&#45;&gt;Node3 -->
<g id="edge112" class="edge">
<title>Node53&#45;&gt;Node3</title>
<path fill="none" stroke="#191970" d="M2449.8454,-531.8858C2435.5572,-511.9007 2405.0757,-463.9408 2405.0757,-418.5 2405.0757,-418.5 2405.0757,-418.5 2405.0757,-183.5 2405.0757,-147.513 2397.4529,-131.2948 2367.0757,-112 2328.4754,-87.482 1630.6754,-70.3345 1470.6089,-66.713"/>
<polygon fill="#191970" stroke="#191970" points="1470.5176,-63.2102 1460.4416,-66.4849 1470.3605,-70.2085 1470.5176,-63.2102"/>
</g>
<!-- Node53&#45;&gt;Node6 -->
<g id="edge113" class="edge">
<title>Node53&#45;&gt;Node6</title>
<path fill="none" stroke="#191970" d="M2456.1606,-531.9414C2454.2632,-511.269 2450.0757,-460.8497 2450.0757,-418.5 2450.0757,-418.5 2450.0757,-418.5 2450.0757,-122 2450.0757,-95.8419 2418.0591,-115.0189 2392.0757,-112 1983.8453,-64.5698 1879.4368,-78.4839 1469.0757,-56 1142.064,-38.0829 1058.3772,-57.9027 733.0757,-20 727.4527,-19.3448 721.5332,-18.4556 715.7572,-17.4762"/>
<polygon fill="#191970" stroke="#191970" points="716.0728,-13.9768 705.6105,-15.6469 714.8308,-20.8657 716.0728,-13.9768"/>
</g>
<!-- Node53&#45;&gt;Node28 -->
<g id="edge110" class="edge">
<title>Node53&#45;&gt;Node28</title>
<path fill="none" stroke="#191970" d="M2381.4924,-535.4325C2344.325,-532.4948 2298.8586,-528.9697 2258.0757,-526 2199.6786,-521.7477 1824.6129,-496.5007 1658.2942,-485.3216"/>
<polygon fill="#191970" stroke="#191970" points="1658.339,-481.8168 1648.1268,-484.6382 1657.8695,-488.801 1658.339,-481.8168"/>
</g>
<!-- Node53&#45;&gt;Node39 -->
<g id="edge111" class="edge">
<title>Node53&#45;&gt;Node39</title>
<path fill="none" stroke="#191970" d="M2381.2666,-534.8013C2231.0523,-521.5281 1900.9497,-492.3596 1794.7197,-482.9728"/>
<polygon fill="#191970" stroke="#191970" points="1794.8525,-479.471 1784.5833,-482.0772 1794.2363,-486.4439 1794.8525,-479.471"/>
</g>
<!-- Node54&#45;&gt;Node4 -->
<g id="edge116" class="edge">
<title>Node54&#45;&gt;Node4</title>
<path fill="none" stroke="#191970" d="M202.0877,-531.8195C197.7159,-507.8231 189.6395,-444.5367 216.0757,-403 223.0853,-391.9866 611.4805,-173.9981 623.0757,-168 645.5389,-156.38 671.5022,-144.4805 691.3432,-135.6961"/>
<polygon fill="#191970" stroke="#191970" points="692.8036,-138.8775 700.5495,-131.6489 689.9864,-132.4694 692.8036,-138.8775"/>
</g>
<!-- Node54&#45;&gt;Node27 -->
<g id="edge117" class="edge">
<title>Node54&#45;&gt;Node27</title>
<path fill="none" stroke="#191970" d="M207.6422,-531.9429C213.3594,-517.467 225.6262,-489.5954 242.0757,-470 253.9572,-455.8463 270.3174,-443.0479 283.7765,-433.75"/>
<polygon fill="#191970" stroke="#191970" points="285.759,-436.6348 292.1258,-428.1663 281.8677,-430.816 285.759,-436.6348"/>
</g>
<!-- Node54&#45;&gt;Node37 -->
<g id="edge118" class="edge">
<title>Node54&#45;&gt;Node37</title>
<path fill="none" stroke="#191970" d="M279.6164,-534.4809C338.8795,-527.4505 422.8136,-514.099 493.0757,-490 511.1286,-483.8081 513.2197,-476.7385 531.0757,-470 572.4209,-454.3972 620.0981,-442.3509 659.8492,-433.8459"/>
<polygon fill="#191970" stroke="#191970" points="660.7095,-437.2416 669.776,-431.7599 659.2699,-430.3912 660.7095,-437.2416"/>
</g>
<!-- Node54&#45;&gt;Node39 -->
<g id="edge119" class="edge">
<title>Node54&#45;&gt;Node39</title>
<path fill="none" stroke="#191970" d="M279.9365,-539.4182C538.6385,-532.2236 1385.2117,-507.8719 1657.0757,-490 1680.6577,-488.4498 1707.1743,-485.8873 1727.5301,-483.7444"/>
<polygon fill="#191970" stroke="#191970" points="1727.9947,-487.2148 1737.5651,-482.6697 1727.2492,-480.2546 1727.9947,-487.2148"/>
</g>
<!-- Node55&#45;&gt;Node19 -->
<g id="edge121" class="edge">
<title>Node55&#45;&gt;Node19</title>
<path fill="none" stroke="#191970" d="M1139.5613,-598.8864C1190.6627,-583.7093 1283.6096,-549.6183 1340.0757,-490 1387.5532,-439.8722 1410.0538,-357.8824 1418.2503,-320.5808"/>
<polygon fill="#191970" stroke="#191970" points="1421.7323,-321.0278 1420.3466,-310.524 1414.8796,-319.5993 1421.7323,-321.0278"/>
</g>
<!-- Node55&#45;&gt;Node28 -->
<g id="edge123" class="edge">
<title>Node55&#45;&gt;Node28</title>
<path fill="none" stroke="#191970" d="M1133.6554,-598.9179C1194.403,-579.9337 1328.4376,-538.3137 1375.0757,-526 1424.5302,-512.9427 1481.3358,-500.3255 1522.4238,-491.6184"/>
<polygon fill="#191970" stroke="#191970" points="1523.1906,-495.0337 1532.2537,-489.5463 1521.7468,-488.1843 1523.1906,-495.0337"/>
</g>
<!-- Node55&#45;&gt;Node30 -->
<g id="edge124" class="edge">
<title>Node55&#45;&gt;Node30</title>
<path fill="none" stroke="#191970" d="M1104.5085,-598.9005C1105.9788,-589.0495 1108.3078,-573.4451 1110.1666,-560.9912"/>
<polygon fill="#191970" stroke="#191970" points="1113.631,-561.4888 1111.6456,-551.0817 1106.7077,-560.4554 1113.631,-561.4888"/>
</g>
<!-- Node55&#45;&gt;Node36 -->
<g id="edge122" class="edge">
<title>Node55&#45;&gt;Node36</title>
<path fill="none" stroke="#191970" d="M1014.5358,-602.2647C949.8306,-595.6486 869.9017,-582.4723 849.0757,-557 834.0743,-538.6517 852.3615,-513.3957 868.3765,-496.8884"/>
<polygon fill="#191970" stroke="#191970" points="871.1813,-499.0422 875.9,-489.5562 866.2957,-494.0291 871.1813,-499.0422"/>
</g>
<!-- Node55&#45;&gt;Node39 -->
<g id="edge125" class="edge">
<title>Node55&#45;&gt;Node39</title>
<path fill="none" stroke="#191970" d="M1155.9028,-598.9856C1211.863,-588.8432 1302.7713,-572.1854 1381.0757,-557 1509.3507,-532.1239 1661.5791,-500.701 1727.6817,-486.9624"/>
<polygon fill="#191970" stroke="#191970" points="1728.4567,-490.3762 1737.5344,-484.913 1727.0311,-483.5229 1728.4567,-490.3762"/>
</g>
<!-- Node56&#45;&gt;Node28 -->
<g id="edge128" class="edge">
<title>Node56&#45;&gt;Node28</title>
<path fill="none" stroke="#191970" d="M1799.6445,-526.4554C1748.6798,-515.7214 1681.1441,-501.4973 1634.2903,-491.6291"/>
<polygon fill="#191970" stroke="#191970" points="1634.8321,-488.1665 1624.3254,-489.5303 1633.3893,-495.0162 1634.8321,-488.1665"/>
</g>
<!-- Node56&#45;&gt;Node39 -->
<g id="edge127" class="edge">
<title>Node56&#45;&gt;Node39</title>
<path fill="none" stroke="#191970" d="M1844.1667,-526.4554C1826.7789,-516.734 1804.2709,-504.15 1787.0674,-494.5317"/>
<polygon fill="#191970" stroke="#191970" points="1788.5583,-491.3554 1778.1218,-489.5303 1785.1423,-497.4653 1788.5583,-491.3554"/>
</g>
<!-- Node57&#45;&gt;Node3 -->
<g id="edge131" class="edge">
<title>Node57&#45;&gt;Node3</title>
<path fill="none" stroke="#191970" d="M2152.3843,-716.4585C2206.2947,-708.2372 2274.9968,-695.2967 2299.0757,-680 2332.689,-658.6464 2353.0757,-648.3224 2353.0757,-608.5 2353.0757,-608.5 2353.0757,-608.5 2353.0757,-183.5 2353.0757,-26.0379 2162.1088,-133.1658 2006.0757,-112 1770.6678,-80.067 1702.6484,-125.0611 1470.4317,-76.9343"/>
<polygon fill="#191970" stroke="#191970" points="1470.8298,-73.4413 1460.3227,-74.8024 1469.3852,-80.2907 1470.8298,-73.4413"/>
</g>
<!-- Node57&#45;&gt;Node12 -->
<g id="edge133" class="edge">
<title>Node57&#45;&gt;Node12</title>
<path fill="none" stroke="#191970" d="M2156.6038,-723.0549C2291.7784,-715.7098 2561.0757,-690.7548 2561.0757,-608.5 2561.0757,-608.5 2561.0757,-608.5 2561.0757,-122 2561.0757,-37.8456 1903.6997,-15.2027 1739.767,-10.8645"/>
<polygon fill="#191970" stroke="#191970" points="1739.7818,-7.3638 1729.6948,-10.6048 1739.6012,-14.3615 1739.7818,-7.3638"/>
</g>
<!-- Node57&#45;&gt;Node22 -->
<g id="edge130" class="edge">
<title>Node57&#45;&gt;Node22</title>
<path fill="none" stroke="#191970" d="M2156.7257,-719.2565C2225.0921,-708.5135 2315.0757,-680.6662 2315.0757,-608.5 2315.0757,-608.5 2315.0757,-608.5 2315.0757,-541.5 2315.0757,-439.1604 1637.9771,-300.0102 1341.0757,-235 1261.3054,-217.5333 1169.2313,-203.4391 1103.8486,-194.4401"/>
<polygon fill="#191970" stroke="#191970" points="1103.9717,-190.9245 1093.5902,-193.0398 1103.025,-197.8602 1103.9717,-190.9245"/>
</g>
<!-- Node57&#45;&gt;Node27 -->
<g id="edge134" class="edge">
<title>Node57&#45;&gt;Node27</title>
<path fill="none" stroke="#191970" d="M2139.3515,-716.4709C2197.127,-703.3049 2277.0757,-673.3669 2277.0757,-608.5 2277.0757,-608.5 2277.0757,-608.5 2277.0757,-541.5 2277.0757,-483.9555 2564.0038,-546.8339 2067.0757,-470 1701.1157,-413.4161 769.7711,-468.5281 401.0757,-434 390.0955,-432.9717 378.4532,-431.4111 367.2578,-429.6695"/>
<polygon fill="#191970" stroke="#191970" points="367.5649,-426.1737 357.1339,-428.0293 366.4454,-433.0836 367.5649,-426.1737"/>
</g>
<!-- Node57&#45;&gt;Node28 -->
<g id="edge136" class="edge">
<title>Node57&#45;&gt;Node28</title>
<path fill="none" stroke="#191970" d="M2064.935,-716.4164C2013.4679,-686.0819 1848.1624,-590.3772 1704.0757,-526 1675.7451,-513.342 1642.7704,-501.3152 1617.8041,-492.7357"/>
<polygon fill="#191970" stroke="#191970" points="1618.9091,-489.4147 1608.3147,-489.5079 1616.6548,-496.0418 1618.9091,-489.4147"/>
</g>
<!-- Node57&#45;&gt;Node39 -->
<g id="edge132" class="edge">
<title>Node57&#45;&gt;Node39</title>
<path fill="none" stroke="#191970" d="M2080.0292,-716.1822C2075.9841,-683.4224 2058.2933,-577.0591 1995.0757,-526 1964.6781,-501.4487 1851.8963,-488.0944 1794.7411,-482.7725"/>
<polygon fill="#191970" stroke="#191970" points="1795.0227,-479.2838 1784.7487,-481.8714 1794.3939,-486.2555 1795.0227,-479.2838"/>
</g>
<!-- Node57&#45;&gt;Node44 -->
<g id="edge135" class="edge">
<title>Node57&#45;&gt;Node44</title>
<path fill="none" stroke="#191970" d="M2005.3589,-718.3601C1899.6105,-707.69 1708.7597,-688.433 1602.587,-677.7201"/>
<polygon fill="#191970" stroke="#191970" points="1602.8831,-674.2323 1592.5823,-676.7106 1602.1803,-681.1969 1602.8831,-674.2323"/>
</g>
<!-- Node58&#45;&gt;Node30 -->
<g id="edge139" class="edge">
<title>Node58&#45;&gt;Node30</title>
<path fill="none" stroke="#191970" d="M1906.8232,-780.8752C1693.571,-760.0652 1064.6506,-693.2625 1006.0757,-624 981.2377,-594.63 1032.1213,-569.0361 1071.9113,-554.4311"/>
<polygon fill="#191970" stroke="#191970" points="1073.2184,-557.6813 1081.4787,-551.0467 1070.8839,-551.0821 1073.2184,-557.6813"/>
</g>
<!-- Node58&#45;&gt;Node39 -->
<g id="edge140" class="edge">
<title>Node58&#45;&gt;Node39</title>
<path fill="none" stroke="#191970" d="M1981.7668,-772.2701C1994.3189,-728.1805 2023.7091,-598.9429 1962.0757,-526 1940.8388,-500.8662 1846.4519,-488.1088 1794.9251,-482.9135"/>
<polygon fill="#191970" stroke="#191970" points="1795.2143,-479.4252 1784.9237,-481.9459 1794.5402,-486.3927 1795.2143,-479.4252"/>
</g>
<!-- Node58&#45;&gt;Node57 -->
<g id="edge138" class="edge">
<title>Node58&#45;&gt;Node57</title>
<path fill="none" stroke="#191970" d="M2002.517,-772.4554C2018.8041,-762.8241 2039.843,-750.3828 2056.0487,-740.7996"/>
<polygon fill="#191970" stroke="#191970" points="2058.1333,-743.6331 2064.9594,-735.5303 2054.5702,-737.6078 2058.1333,-743.6331"/>
</g>
</g>
</svg>
