<?xml version="1.0" encoding="UTF-8" standalone="no"?>
<!DOCTYPE svg PUBLIC "-//W3C//DTD SVG 1.1//EN"
 "http://www.w3.org/Graphics/SVG/1.1/DTD/svg11.dtd">
<!-- Generated by graphviz version 2.40.1 (20161225.0304)
 -->
<!-- Title: ExtWrenchesAndJointTorquesEstimator.cpp Pages: 1 -->
<svg width="3374pt" height="665pt"
 viewBox="0.00 0.00 3373.50 665.00" xmlns="http://www.w3.org/2000/svg" xmlns:xlink="http://www.w3.org/1999/xlink">
<g id="graph0" class="graph" transform="scale(1 1) rotate(0) translate(4 661)">
<title>ExtWrenchesAndJointTorquesEstimator.cpp</title>
<!-- Node0 -->
<g id="node1" class="node">
<title>Node0</title>
<polygon fill="#bfbfbf" stroke="#000000" points="1203,-626.5 1203,-656.5 1361,-656.5 1361,-626.5 1203,-626.5"/>
<text text-anchor="start" x="1211" y="-644.5" font-family="FreeSans.ttf" font-size="10.00" fill="#000000">ExtWrenchesAndJointTorques</text>
<text text-anchor="middle" x="1282" y="-633.5" font-family="FreeSans.ttf" font-size="10.00" fill="#000000">Estimator.cpp</text>
</g>
<!-- Node1 -->
<g id="node2" class="node">
<title>Node1</title>
<g id="a_node2"><a xlink:href="ExtWrenchesAndJointTorquesEstimator_8h.html" target="_top" xlink:title="iDynTree/Estimation\l/ExtWrenchesAndJointTorques\lEstimator.h">
<polygon fill="none" stroke="#000000" points="1606.5,-548.5 1606.5,-589.5 1767.5,-589.5 1767.5,-548.5 1606.5,-548.5"/>
<text text-anchor="start" x="1614.5" y="-577.5" font-family="FreeSans.ttf" font-size="10.00" fill="#000000">iDynTree/Estimation</text>
<text text-anchor="start" x="1614.5" y="-566.5" font-family="FreeSans.ttf" font-size="10.00" fill="#000000">/ExtWrenchesAndJointTorques</text>
<text text-anchor="middle" x="1687" y="-555.5" font-family="FreeSans.ttf" font-size="10.00" fill="#000000">Estimator.h</text>
</a>
</g>
</g>
<!-- Node0&#45;&gt;Node1 -->
<g id="edge1" class="edge">
<title>Node0&#45;&gt;Node1</title>
<path fill="none" stroke="#191970" d="M1361.0422,-627.7613C1419.8092,-617.4976 1501.9462,-603.049 1574,-590 1581.3039,-588.6773 1588.8711,-587.2955 1596.4709,-585.8998"/>
<polygon fill="#191970" stroke="#191970" points="1597.2599,-589.3135 1606.461,-584.0609 1595.9926,-582.4292 1597.2599,-589.3135"/>
</g>
<!-- Node2 -->
<g id="node3" class="node">
<title>Node2</title>
<g id="a_node3"><a xlink:href="ExternalWrenchesEstimation_8h.html" target="_top" xlink:title="iDynTree/Estimation\l/ExternalWrenchesEstimation.h">
<polygon fill="none" stroke="#000000" points="1028.5,-425.5 1028.5,-455.5 1197.5,-455.5 1197.5,-425.5 1028.5,-425.5"/>
<text text-anchor="start" x="1036.5" y="-443.5" font-family="FreeSans.ttf" font-size="10.00" fill="#000000">iDynTree/Estimation</text>
<text text-anchor="middle" x="1113" y="-432.5" font-family="FreeSans.ttf" font-size="10.00" fill="#000000">/ExternalWrenchesEstimation.h</text>
</a>
</g>
</g>
<!-- Node0&#45;&gt;Node2 -->
<g id="edge100" class="edge">
<title>Node0&#45;&gt;Node2</title>
<path fill="none" stroke="#191970" d="M1256.5896,-626.3284C1242.2027,-616.9795 1224.4527,-604.1045 1211,-590 1173.73,-550.9243 1141.8503,-495.9019 1125.2513,-464.6623"/>
<polygon fill="#191970" stroke="#191970" points="1128.3385,-463.0128 1120.6015,-455.7747 1122.1361,-466.2579 1128.3385,-463.0128"/>
</g>
<!-- Node18 -->
<g id="node9" class="node">
<title>Node18</title>
<polygon fill="none" stroke="#bfbfbf" points="781,-56.5 781,-75.5 837,-75.5 837,-56.5 781,-56.5"/>
<text text-anchor="middle" x="809" y="-63.5" font-family="FreeSans.ttf" font-size="10.00" fill="#000000">sstream</text>
</g>
<!-- Node0&#45;&gt;Node18 -->
<g id="edge144" class="edge">
<title>Node0&#45;&gt;Node18</title>
<path fill="none" stroke="#191970" d="M1202.5917,-640.706C956.7225,-637.8707 218.4124,-626.3901 117,-590 55.7568,-568.0239 0,-567.0667 0,-502 0,-502 0,-502 0,-183.5 0,-104.6799 609.1786,-74.1754 770.298,-67.4858"/>
<polygon fill="#191970" stroke="#191970" points="770.8327,-70.967 780.6816,-67.0621 770.5472,-63.9729 770.8327,-70.967"/>
</g>
<!-- Node31 -->
<g id="node15" class="node">
<title>Node31</title>
<g id="a_node15"><a xlink:href="LinkState_8h.html" target="_top" xlink:title="iDynTree/Model/LinkState.h">
<polygon fill="none" stroke="#000000" points="936.5,-364 936.5,-383 1085.5,-383 1085.5,-364 936.5,-364"/>
<text text-anchor="middle" x="1011" y="-371" font-family="FreeSans.ttf" font-size="10.00" fill="#000000">iDynTree/Model/LinkState.h</text>
</a>
</g>
</g>
<!-- Node0&#45;&gt;Node31 -->
<g id="edge120" class="edge">
<title>Node0&#45;&gt;Node31</title>
<path fill="none" stroke="#191970" d="M1219.6405,-626.4398C1105.2721,-597.2188 870.5707,-529.2339 837,-456 817.2291,-412.8701 872.8521,-392.2057 926.3539,-382.3533"/>
<polygon fill="#191970" stroke="#191970" points="927.0415,-385.7865 936.3005,-380.6365 925.8508,-378.8884 927.0415,-385.7865"/>
</g>
<!-- Node41 -->
<g id="node26" class="node">
<title>Node41</title>
<g id="a_node26"><a xlink:href="Model_8h.html" target="_top" xlink:title="iDynTree/Model/Model.h">
<polygon fill="none" stroke="#000000" points="2286.5,-431 2286.5,-450 2419.5,-450 2419.5,-431 2286.5,-431"/>
<text text-anchor="middle" x="2353" y="-438" font-family="FreeSans.ttf" font-size="10.00" fill="#000000">iDynTree/Model/Model.h</text>
</a>
</g>
</g>
<!-- Node0&#45;&gt;Node41 -->
<g id="edge117" class="edge">
<title>Node0&#45;&gt;Node41</title>
<path fill="none" stroke="#191970" d="M1361.4718,-639.7323C1474.3714,-636.0362 1687.2333,-624.6844 1865,-590 2039.5181,-555.9495 2240.2846,-483.4228 2318.9199,-453.6614"/>
<polygon fill="#191970" stroke="#191970" points="2320.2249,-456.9097 2328.3278,-450.0837 2317.7367,-450.3669 2320.2249,-456.9097"/>
</g>
<!-- Node50 -->
<g id="node31" class="node">
<title>Node50</title>
<g id="a_node31"><a xlink:href="SubModel_8h.html" target="_top" xlink:title="iDynTree/Model/SubModel.h">
<polygon fill="none" stroke="#000000" points="2875.5,-364 2875.5,-383 3026.5,-383 3026.5,-364 2875.5,-364"/>
<text text-anchor="middle" x="2951" y="-371" font-family="FreeSans.ttf" font-size="10.00" fill="#000000">iDynTree/Model/SubModel.h</text>
</a>
</g>
</g>
<!-- Node0&#45;&gt;Node50 -->
<g id="edge119" class="edge">
<title>Node0&#45;&gt;Node50</title>
<path fill="none" stroke="#191970" d="M1361.4233,-640.5372C1624.5979,-637.0425 2457.9904,-623.4297 2574,-590 2724.1105,-546.7436 2877.9286,-431.9112 2931.3346,-389.5179"/>
<polygon fill="#191970" stroke="#191970" points="2933.6853,-392.1195 2939.3024,-383.1362 2929.3092,-386.6559 2933.6853,-392.1195"/>
</g>
<!-- Node51 -->
<g id="node32" class="node">
<title>Node51</title>
<g id="a_node32"><a xlink:href="ContactWrench_8h.html" target="_top" xlink:title="iDynTree/Model/ContactWrench.h">
<polygon fill="none" stroke="#000000" points="1290.5,-431 1290.5,-450 1467.5,-450 1467.5,-431 1290.5,-431"/>
<text text-anchor="middle" x="1379" y="-438" font-family="FreeSans.ttf" font-size="10.00" fill="#000000">iDynTree/Model/ContactWrench.h</text>
</a>
</g>
</g>
<!-- Node0&#45;&gt;Node51 -->
<g id="edge122" class="edge">
<title>Node0&#45;&gt;Node51</title>
<path fill="none" stroke="#191970" d="M1289.2908,-626.3923C1306.7192,-590.2777 1350.7647,-499.0083 1369.896,-459.3649"/>
<polygon fill="#191970" stroke="#191970" points="1373.0976,-460.7835 1374.2918,-450.2562 1366.7933,-457.7411 1373.0976,-460.7835"/>
</g>
<!-- Node52 -->
<g id="node33" class="node">
<title>Node52</title>
<g id="a_node33"><a xlink:href="Traversal_8h.html" target="_top" xlink:title="iDynTree/Model/Traversal.h">
<polygon fill="none" stroke="#000000" points="1734,-492.5 1734,-511.5 1882,-511.5 1882,-492.5 1734,-492.5"/>
<text text-anchor="middle" x="1808" y="-499.5" font-family="FreeSans.ttf" font-size="10.00" fill="#000000">iDynTree/Model/Traversal.h</text>
</a>
</g>
</g>
<!-- Node0&#45;&gt;Node52 -->
<g id="edge118" class="edge">
<title>Node0&#45;&gt;Node52</title>
<path fill="none" stroke="#191970" d="M1361.2113,-637.8663C1492.77,-631.1565 1745.0956,-615.1667 1777,-590 1797.8172,-573.5791 1804.6871,-542.1797 1806.9349,-521.6699"/>
<polygon fill="#191970" stroke="#191970" points="1810.4348,-521.8136 1807.7673,-511.5601 1803.4584,-521.2392 1810.4348,-521.8136"/>
</g>
<!-- Node53 -->
<g id="node34" class="node">
<title>Node53</title>
<g id="a_node34"><a xlink:href="JointState_8h.html" target="_top" xlink:title="iDynTree/Model/JointState.h">
<polygon fill="none" stroke="#000000" points="1179.5,-364 1179.5,-383 1330.5,-383 1330.5,-364 1179.5,-364"/>
<text text-anchor="middle" x="1255" y="-371" font-family="FreeSans.ttf" font-size="10.00" fill="#000000">iDynTree/Model/JointState.h</text>
</a>
</g>
</g>
<!-- Node0&#45;&gt;Node53 -->
<g id="edge121" class="edge">
<title>Node0&#45;&gt;Node53</title>
<path fill="none" stroke="#191970" d="M1279.8751,-626.1403C1275.5529,-594.4136 1265.6681,-519.3107 1260,-456 1258.0871,-434.6334 1256.7032,-410.0867 1255.8829,-393.361"/>
<polygon fill="#191970" stroke="#191970" points="1259.3695,-392.9916 1255.4054,-383.1663 1252.3771,-393.3192 1259.3695,-392.9916"/>
</g>
<!-- Node56 -->
<g id="node37" class="node">
<title>Node56</title>
<g id="a_node37"><a xlink:href="Sensors_8h.html" target="_top" xlink:title="iDynTree/Sensors/Sensors.h">
<polygon fill="none" stroke="#000000" points="1900.5,-492.5 1900.5,-511.5 2051.5,-511.5 2051.5,-492.5 1900.5,-492.5"/>
<text text-anchor="middle" x="1976" y="-499.5" font-family="FreeSans.ttf" font-size="10.00" fill="#000000">iDynTree/Sensors/Sensors.h</text>
</a>
</g>
</g>
<!-- Node0&#45;&gt;Node56 -->
<g id="edge130" class="edge">
<title>Node0&#45;&gt;Node56</title>
<path fill="none" stroke="#191970" d="M1361.1224,-637.2743C1485.8376,-630.0086 1722.2509,-613.6176 1803,-590 1860.1066,-573.2974 1920.7375,-537.7716 1952.8641,-517.3341"/>
<polygon fill="#191970" stroke="#191970" points="1955.0071,-520.1169 1961.5139,-511.7555 1951.2131,-514.2342 1955.0071,-520.1169"/>
</g>
<!-- Node57 -->
<g id="node39" class="node">
<title>Node57</title>
<g id="a_node39"><a xlink:href="EigenHelpers_8h.html" target="_top" xlink:title="iDynTree/Core/EigenHelpers.h">
<polygon fill="none" stroke="#000000" points="407.5,-364 407.5,-383 568.5,-383 568.5,-364 407.5,-364"/>
<text text-anchor="middle" x="488" y="-371" font-family="FreeSans.ttf" font-size="10.00" fill="#000000">iDynTree/Core/EigenHelpers.h</text>
</a>
</g>
</g>
<!-- Node0&#45;&gt;Node57 -->
<g id="edge101" class="edge">
<title>Node0&#45;&gt;Node57</title>
<path fill="none" stroke="#191970" d="M1202.8172,-637.635C1053.3601,-629.8885 740.6179,-611.3627 696,-590 600.72,-544.3806 525.9361,-435.2984 498.9137,-391.8316"/>
<polygon fill="#191970" stroke="#191970" points="501.8122,-389.8623 493.614,-383.1511 495.8377,-393.51 501.8122,-389.8623"/>
</g>
<!-- Node59 -->
<g id="node41" class="node">
<title>Node59</title>
<g id="a_node41"><a xlink:href="EigenMathHelpers_8h.html" target="_top" xlink:title="iDynTree/Core/EigenMathHelpers.h">
<polygon fill="none" stroke="#000000" points="340.5,-492.5 340.5,-511.5 525.5,-511.5 525.5,-492.5 340.5,-492.5"/>
<text text-anchor="middle" x="433" y="-499.5" font-family="FreeSans.ttf" font-size="10.00" fill="#000000">iDynTree/Core/EigenMathHelpers.h</text>
</a>
</g>
</g>
<!-- Node0&#45;&gt;Node59 -->
<g id="edge111" class="edge">
<title>Node0&#45;&gt;Node59</title>
<path fill="none" stroke="#191970" d="M1202.8701,-638.7606C1024.0082,-632.1755 599.3894,-614.1933 539,-590 500.7786,-574.6877 466.0288,-540.1759 447.3652,-519.2103"/>
<polygon fill="#191970" stroke="#191970" points="450.0083,-516.9159 440.8126,-511.6538 444.7197,-521.5019 450.0083,-516.9159"/>
</g>
<!-- Node47 -->
<g id="node42" class="node">
<title>Node47</title>
<g id="a_node42"><a xlink:href="SpatialMomentum_8h.html" target="_top" xlink:title="iDynTree/Core/SpatialMomentum.h">
<polygon fill="none" stroke="#000000" points="136,-492.5 136,-511.5 322,-511.5 322,-492.5 136,-492.5"/>
<text text-anchor="middle" x="229" y="-499.5" font-family="FreeSans.ttf" font-size="10.00" fill="#000000">iDynTree/Core/SpatialMomentum.h</text>
</a>
</g>
</g>
<!-- Node0&#45;&gt;Node47 -->
<g id="edge113" class="edge">
<title>Node0&#45;&gt;Node47</title>
<path fill="none" stroke="#191970" d="M1202.6823,-639.2778C1027.3819,-633.906 611.6408,-618.5096 474,-590 393.6004,-573.3468 303.9295,-536.0126 258.6353,-515.7364"/>
<polygon fill="#191970" stroke="#191970" points="259.9569,-512.4929 249.4029,-511.5635 257.0738,-518.8716 259.9569,-512.4929"/>
</g>
<!-- Node60 -->
<g id="node43" class="node">
<title>Node60</title>
<g id="a_node43"><a xlink:href="ClassicalAcc_8h.html" target="_top" xlink:title="iDynTree/Core/ClassicalAcc.h">
<polygon fill="none" stroke="#000000" points="28,-241 28,-260 186,-260 186,-241 28,-241"/>
<text text-anchor="middle" x="107" y="-248" font-family="FreeSans.ttf" font-size="10.00" fill="#000000">iDynTree/Core/ClassicalAcc.h</text>
</a>
</g>
</g>
<!-- Node0&#45;&gt;Node60 -->
<g id="edge115" class="edge">
<title>Node0&#45;&gt;Node60</title>
<path fill="none" stroke="#191970" d="M1202.8108,-640.2844C1006.2219,-636.7703 499.8795,-624.5485 335,-590 228.6896,-567.7239 107,-610.6192 107,-502 107,-502 107,-502 107,-373.5 107,-336.9994 107,-294.406 107,-270.1285"/>
<polygon fill="#191970" stroke="#191970" points="110.5001,-270.0691 107,-260.0691 103.5001,-270.0692 110.5001,-270.0691"/>
</g>
<!-- Node61 -->
<g id="node44" class="node">
<title>Node61</title>
<g id="a_node44"><a xlink:href="Dynamics_8h.html" target="_top" xlink:title="iDynTree/Model/Dynamics.h">
<polygon fill="none" stroke="#000000" points="858,-431 858,-450 1010,-450 1010,-431 858,-431"/>
<text text-anchor="middle" x="934" y="-438" font-family="FreeSans.ttf" font-size="10.00" fill="#000000">iDynTree/Model/Dynamics.h</text>
</a>
</g>
</g>
<!-- Node0&#45;&gt;Node61 -->
<g id="edge123" class="edge">
<title>Node0&#45;&gt;Node61</title>
<path fill="none" stroke="#191970" d="M1247.9443,-626.4484C1226.4359,-616.6525 1198.2319,-603.2703 1174,-590 1091.5689,-544.8575 998.2009,-483.621 956.3579,-455.6106"/>
<polygon fill="#191970" stroke="#191970" points="958.2572,-452.6701 948.004,-450.0009 954.3548,-458.4814 958.2572,-452.6701"/>
</g>
<!-- Node62 -->
<g id="node45" class="node">
<title>Node62</title>
<g id="a_node45"><a xlink:href="ModelTransformers_8h.html" target="_top" xlink:title="Collection of function to modify model in various ways. ">
<polygon fill="none" stroke="#000000" points="2979.5,-559.5 2979.5,-578.5 3176.5,-578.5 3176.5,-559.5 2979.5,-559.5"/>
<text text-anchor="middle" x="3078" y="-566.5" font-family="FreeSans.ttf" font-size="10.00" fill="#000000">iDynTree/Model/ModelTransformers.h</text>
</a>
</g>
</g>
<!-- Node0&#45;&gt;Node62 -->
<g id="edge128" class="edge">
<title>Node0&#45;&gt;Node62</title>
<path fill="none" stroke="#191970" d="M1361.298,-640.6855C1650.5063,-637.4637 2648.1945,-624.0818 2965,-590 2984.8441,-587.8652 3006.4319,-584.1927 3025.3714,-580.5101"/>
<polygon fill="#191970" stroke="#191970" points="3026.1772,-583.9184 3035.3009,-578.5324 3024.8098,-577.0533 3026.1772,-583.9184"/>
</g>
<!-- Node63 -->
<g id="node46" class="node">
<title>Node63</title>
<g id="a_node46"><a xlink:href="ModelSensorsTransformers_8h.html" target="_top" xlink:title="Collection of function to modify model and sensors in various ways. ">
<polygon fill="none" stroke="#000000" points="3194.5,-554 3194.5,-584 3365.5,-584 3365.5,-554 3194.5,-554"/>
<text text-anchor="start" x="3202.5" y="-572" font-family="FreeSans.ttf" font-size="10.00" fill="#000000">iDynTree/Sensors/ModelSensors</text>
<text text-anchor="middle" x="3280" y="-561" font-family="FreeSans.ttf" font-size="10.00" fill="#000000">Transformers.h</text>
</a>
</g>
</g>
<!-- Node0&#45;&gt;Node63 -->
<g id="edge129" class="edge">
<title>Node0&#45;&gt;Node63</title>
<path fill="none" stroke="#191970" d="M1361.0501,-640.2621C1697.7363,-634.8671 3003.3065,-612.6629 3186,-590 3194.0814,-588.9975 3202.4898,-587.6165 3210.8084,-586.0372"/>
<polygon fill="#191970" stroke="#191970" points="3211.762,-589.4159 3220.8826,-584.0247 3210.3906,-582.5516 3211.762,-589.4159"/>
</g>
<!-- Node64 -->
<g id="node47" class="node">
<title>Node64</title>
<g id="a_node47"><a xlink:href="SixAxisForceTorqueSensor_8h.html" target="_top" xlink:title="iDynTree/Sensors/SixAxis\lForceTorqueSensor.h">
<polygon fill="none" stroke="#000000" points="1425,-554 1425,-584 1565,-584 1565,-554 1425,-554"/>
<text text-anchor="start" x="1433" y="-572" font-family="FreeSans.ttf" font-size="10.00" fill="#000000">iDynTree/Sensors/SixAxis</text>
<text text-anchor="middle" x="1495" y="-561" font-family="FreeSans.ttf" font-size="10.00" fill="#000000">ForceTorqueSensor.h</text>
</a>
</g>
</g>
<!-- Node0&#45;&gt;Node64 -->
<g id="edge131" class="edge">
<title>Node0&#45;&gt;Node64</title>
<path fill="none" stroke="#191970" d="M1326.1337,-626.478C1359.5483,-615.1045 1405.6095,-599.4263 1441.1857,-587.3171"/>
<polygon fill="#191970" stroke="#191970" points="1442.584,-590.5384 1450.9228,-584.0028 1440.3284,-583.9118 1442.584,-590.5384"/>
</g>
<!-- Node65 -->
<g id="node48" class="node">
<title>Node65</title>
<g id="a_node48"><a xlink:href="PredictSensorsMeasurements_8h.html" target="_top" xlink:title="iDynTree/Sensors/Predict\lSensorsMeasurements.h">
<polygon fill="none" stroke="#000000" points="586.5,-425.5 586.5,-455.5 723.5,-455.5 723.5,-425.5 586.5,-425.5"/>
<text text-anchor="start" x="594.5" y="-443.5" font-family="FreeSans.ttf" font-size="10.00" fill="#000000">iDynTree/Sensors/Predict</text>
<text text-anchor="middle" x="655" y="-432.5" font-family="FreeSans.ttf" font-size="10.00" fill="#000000">SensorsMeasurements.h</text>
</a>
</g>
</g>
<!-- Node0&#45;&gt;Node65 -->
<g id="edge135" class="edge">
<title>Node0&#45;&gt;Node65</title>
<path fill="none" stroke="#191970" d="M1202.7631,-638.0606C1061.1893,-631.3231 775.9855,-614.8426 738,-590 693.6439,-560.9909 670.7876,-499.7337 661.0163,-465.3159"/>
<polygon fill="#191970" stroke="#191970" points="664.3703,-464.3103 658.3945,-455.5615 657.6102,-466.1273 664.3703,-464.3103"/>
</g>
<!-- Node66 -->
<g id="node49" class="node">
<title>Node66</title>
<g id="a_node49"><a xlink:href="ModelLoader_8h.html" target="_top" xlink:title="iDynTree/ModelIO/ModelLoader.h">
<polygon fill="none" stroke="#000000" points="2389,-559.5 2389,-578.5 2565,-578.5 2565,-559.5 2389,-559.5"/>
<text text-anchor="middle" x="2477" y="-566.5" font-family="FreeSans.ttf" font-size="10.00" fill="#000000">iDynTree/ModelIO/ModelLoader.h</text>
</a>
</g>
</g>
<!-- Node0&#45;&gt;Node66 -->
<g id="edge138" class="edge">
<title>Node0&#45;&gt;Node66</title>
<path fill="none" stroke="#191970" d="M1361.1009,-636.7148C1511.3333,-627.625 1848.3002,-607.2288 2132,-590 2215.2068,-584.9469 2309.7007,-579.1941 2378.7302,-574.989"/>
<polygon fill="#191970" stroke="#191970" points="2378.9571,-578.4817 2388.7257,-574.38 2378.5314,-571.4947 2378.9571,-578.4817"/>
</g>
<!-- Node1&#45;&gt;Node2 -->
<g id="edge2" class="edge">
<title>Node1&#45;&gt;Node2</title>
<path fill="none" stroke="#191970" d="M1606.2376,-553.3929C1595.4165,-551.4772 1584.45,-549.625 1574,-548 1446.9715,-528.2471 1411.3221,-544.7177 1287,-512 1238.932,-499.35 1186.5203,-476.4707 1151.918,-459.9956"/>
<polygon fill="#191970" stroke="#191970" points="1153.1774,-456.7174 1142.6491,-455.5324 1150.1405,-463.0244 1153.1774,-456.7174"/>
</g>
<!-- Node1&#45;&gt;Node41 -->
<g id="edge48" class="edge">
<title>Node1&#45;&gt;Node41</title>
<path fill="none" stroke="#191970" d="M1767.6148,-563.3623C1844.3606,-556.4498 1962.4427,-541.7651 2061,-512 2081.1771,-505.9064 2083.9905,-498.6232 2104,-492 2160.4579,-473.3122 2226.451,-460.0311 2276.3084,-451.6414"/>
<polygon fill="#191970" stroke="#191970" points="2277.0798,-455.0614 2286.3748,-449.9769 2275.9378,-448.1552 2277.0798,-455.0614"/>
</g>
<!-- Node1&#45;&gt;Node50 -->
<g id="edge62" class="edge">
<title>Node1&#45;&gt;Node50</title>
<path fill="none" stroke="#191970" d="M1767.5086,-563.9306C1934.574,-552.4681 2330.5659,-520.3974 2657,-456 2750.275,-437.5991 2857.1463,-404.4921 2912.7893,-386.3136"/>
<polygon fill="#191970" stroke="#191970" points="2914.1607,-389.5472 2922.5681,-383.1 2911.9752,-382.8971 2914.1607,-389.5472"/>
</g>
<!-- Node1&#45;&gt;Node51 -->
<g id="edge67" class="edge">
<title>Node1&#45;&gt;Node51</title>
<path fill="none" stroke="#191970" d="M1637.8559,-548.4967C1574.3811,-522.0145 1465.6459,-476.6493 1411.5484,-454.0794"/>
<polygon fill="#191970" stroke="#191970" points="1412.6829,-450.7604 1402.1062,-450.1401 1409.9876,-457.2207 1412.6829,-450.7604"/>
</g>
<!-- Node1&#45;&gt;Node52 -->
<g id="edge73" class="edge">
<title>Node1&#45;&gt;Node52</title>
<path fill="none" stroke="#191970" d="M1724.2913,-548.3511C1742.7501,-538.1301 1764.6063,-526.0279 1781.3562,-516.7532"/>
<polygon fill="#191970" stroke="#191970" points="1783.5111,-519.5608 1790.564,-511.6546 1780.1201,-513.4369 1783.5111,-519.5608"/>
</g>
<!-- Node1&#45;&gt;Node53 -->
<g id="edge76" class="edge">
<title>Node1&#45;&gt;Node53</title>
<path fill="none" stroke="#191970" d="M1606.2267,-550.8721C1494.7149,-525.1942 1304.6059,-478.8202 1281,-456 1263.9314,-439.4995 1258.0286,-411.9178 1256.0102,-393.2328"/>
<polygon fill="#191970" stroke="#191970" points="1259.4914,-392.8568 1255.2028,-383.1687 1252.5138,-393.4166 1259.4914,-392.8568"/>
</g>
<!-- Node54 -->
<g id="node35" class="node">
<title>Node54</title>
<g id="a_node35"><a xlink:href="FreeFloatingState_8h.html" target="_top" xlink:title="iDynTree/Model/FreeFloating\lState.h">
<polygon fill="none" stroke="#000000" points="1486,-425.5 1486,-455.5 1640,-455.5 1640,-425.5 1486,-425.5"/>
<text text-anchor="start" x="1494" y="-443.5" font-family="FreeSans.ttf" font-size="10.00" fill="#000000">iDynTree/Model/FreeFloating</text>
<text text-anchor="middle" x="1563" y="-432.5" font-family="FreeSans.ttf" font-size="10.00" fill="#000000">State.h</text>
</a>
</g>
</g>
<!-- Node1&#45;&gt;Node54 -->
<g id="edge81" class="edge">
<title>Node1&#45;&gt;Node54</title>
<path fill="none" stroke="#191970" d="M1667.0773,-548.3543C1644.5911,-525.0521 1608.1237,-487.2612 1584.8671,-463.1607"/>
<polygon fill="#191970" stroke="#191970" points="1587.2775,-460.6181 1577.8149,-455.8526 1582.2403,-465.4789 1587.2775,-460.6181"/>
</g>
<!-- Node55 -->
<g id="node36" class="node">
<title>Node55</title>
<g id="a_node36"><a xlink:href="LinkTraversalsCache_8h.html" target="_top" xlink:title="iDynTree/Model/LinkTraversals\lCache.h">
<polygon fill="none" stroke="#000000" points="1957,-358.5 1957,-388.5 2121,-388.5 2121,-358.5 1957,-358.5"/>
<text text-anchor="start" x="1965" y="-376.5" font-family="FreeSans.ttf" font-size="10.00" fill="#000000">iDynTree/Model/LinkTraversals</text>
<text text-anchor="middle" x="2039" y="-365.5" font-family="FreeSans.ttf" font-size="10.00" fill="#000000">Cache.h</text>
</a>
</g>
</g>
<!-- Node1&#45;&gt;Node55 -->
<g id="edge89" class="edge">
<title>Node1&#45;&gt;Node55</title>
<path fill="none" stroke="#191970" d="M1692.5187,-548.397C1698.101,-531.1941 1708.3257,-507.1218 1725,-492 1787.1182,-435.6655 1878.6351,-405.2194 1946.8619,-389.3584"/>
<polygon fill="#191970" stroke="#191970" points="1947.7706,-392.7414 1956.7529,-387.1227 1946.2273,-385.9136 1947.7706,-392.7414"/>
</g>
<!-- Node1&#45;&gt;Node56 -->
<g id="edge92" class="edge">
<title>Node1&#45;&gt;Node56</title>
<path fill="none" stroke="#191970" d="M1767.5026,-550.3368C1818.0155,-538.6262 1881.6036,-523.8843 1925.194,-513.7785"/>
<polygon fill="#191970" stroke="#191970" points="1926.0496,-517.1731 1935.0008,-511.505 1924.4687,-510.354 1926.0496,-517.1731"/>
</g>
<!-- Node3 -->
<g id="node4" class="node">
<title>Node3</title>
<g id="a_node4"><a xlink:href="Direction_8h.html" target="_top" xlink:title="iDynTree/Core/Direction.h">
<polygon fill="none" stroke="#000000" points="875.5,-174 875.5,-193 1016.5,-193 1016.5,-174 875.5,-174"/>
<text text-anchor="middle" x="946" y="-181" font-family="FreeSans.ttf" font-size="10.00" fill="#000000">iDynTree/Core/Direction.h</text>
</a>
</g>
</g>
<!-- Node2&#45;&gt;Node3 -->
<g id="edge3" class="edge">
<title>Node2&#45;&gt;Node3</title>
<path fill="none" stroke="#191970" d="M1043.3338,-425.4785C993.6576,-414.0628 934.392,-398.7168 927,-389 884.3849,-332.9823 918.3606,-241.9282 936.4747,-202.5951"/>
<polygon fill="#191970" stroke="#191970" points="939.7377,-203.884 940.8849,-193.3514 933.4199,-200.8697 939.7377,-203.884"/>
</g>
<!-- Node5 -->
<g id="node6" class="node">
<title>Node5</title>
<g id="a_node6"><a xlink:href="VectorFixSize_8h.html" target="_top" xlink:title="iDynTree/Core/VectorFixSize.h">
<polygon fill="none" stroke="#ff0000" points="728.5,-112.5 728.5,-131.5 889.5,-131.5 889.5,-112.5 728.5,-112.5"/>
<text text-anchor="middle" x="809" y="-119.5" font-family="FreeSans.ttf" font-size="10.00" fill="#000000">iDynTree/Core/VectorFixSize.h</text>
</a>
</g>
</g>
<!-- Node2&#45;&gt;Node5 -->
<g id="edge20" class="edge">
<title>Node2&#45;&gt;Node5</title>
<path fill="none" stroke="#191970" d="M1030.6667,-425.4945C972.7913,-414.4566 900.7556,-399.593 872,-389 813.2201,-367.3466 780.0829,-375.8018 748,-322 743.4474,-314.3655 746.5543,-310.7705 748,-302 758.024,-241.1896 785.8943,-173.2926 800.2322,-141.0233"/>
<polygon fill="#191970" stroke="#191970" points="803.4477,-142.4067 804.372,-131.8522 797.0676,-139.5266 803.4477,-142.4067"/>
</g>
<!-- Node20 -->
<g id="node10" class="node">
<title>Node20</title>
<g id="a_node10"><a xlink:href="Position_8h.html" target="_top" xlink:title="iDynTree/Core/Position.h">
<polygon fill="none" stroke="#ff0000" points="1367,-241 1367,-260 1503,-260 1503,-241 1367,-241"/>
<text text-anchor="middle" x="1435" y="-248" font-family="FreeSans.ttf" font-size="10.00" fill="#000000">iDynTree/Core/Position.h</text>
</a>
</g>
</g>
<!-- Node2&#45;&gt;Node20 -->
<g id="edge11" class="edge">
<title>Node2&#45;&gt;Node20</title>
<path fill="none" stroke="#191970" d="M1112.7984,-425.3539C1113.4159,-406.7661 1117.4072,-375.5608 1136,-358 1190.567,-306.4615 1230.5562,-347.9124 1301,-322 1341.775,-307.0011 1385.5715,-281.691 1411.6094,-265.5558"/>
<polygon fill="#191970" stroke="#191970" points="1413.7517,-268.3435 1420.3603,-260.0624 1410.0299,-262.4148 1413.7517,-268.3435"/>
</g>
<!-- Node27 -->
<g id="node12" class="node">
<title>Node27</title>
<g id="a_node12"><a xlink:href="MatrixDynSize_8h.html" target="_top" xlink:title="iDynTree/Core/MatrixDynSize.h">
<polygon fill="none" stroke="#000000" points="534.5,-302.5 534.5,-321.5 701.5,-321.5 701.5,-302.5 534.5,-302.5"/>
<text text-anchor="middle" x="618" y="-309.5" font-family="FreeSans.ttf" font-size="10.00" fill="#000000">iDynTree/Core/MatrixDynSize.h</text>
</a>
</g>
</g>
<!-- Node2&#45;&gt;Node27 -->
<g id="edge16" class="edge">
<title>Node2&#45;&gt;Node27</title>
<path fill="none" stroke="#191970" d="M1028.4769,-426.3762C1025.279,-425.9011 1022.1115,-425.4405 1019,-425 884.2883,-405.9272 840.6091,-441.2817 715,-389 682.2935,-375.3867 651.5064,-347.4003 633.7164,-329.1815"/>
<polygon fill="#191970" stroke="#191970" points="635.9229,-326.4225 626.497,-321.5847 630.8487,-331.2446 635.9229,-326.4225"/>
</g>
<!-- Node28 -->
<g id="node13" class="node">
<title>Node28</title>
<g id="a_node13"><a xlink:href="VectorDynSize_8h.html" target="_top" xlink:title="iDynTree/Core/VectorDynSize.h">
<polygon fill="none" stroke="#ff0000" points="1442.5,-302.5 1442.5,-321.5 1609.5,-321.5 1609.5,-302.5 1442.5,-302.5"/>
<text text-anchor="middle" x="1526" y="-309.5" font-family="FreeSans.ttf" font-size="10.00" fill="#000000">iDynTree/Core/VectorDynSize.h</text>
</a>
</g>
</g>
<!-- Node2&#45;&gt;Node28 -->
<g id="edge18" class="edge">
<title>Node2&#45;&gt;Node28</title>
<path fill="none" stroke="#191970" d="M1118.8365,-425.3814C1127.0968,-406.2121 1144.1337,-373.7646 1170,-358 1192.0039,-344.5894 1334.177,-329.3061 1432.0563,-320.1678"/>
<polygon fill="#191970" stroke="#191970" points="1432.6398,-323.6288 1442.2742,-319.2211 1431.9939,-316.6587 1432.6398,-323.6288"/>
</g>
<!-- Node29 -->
<g id="node14" class="node">
<title>Node29</title>
<g id="a_node14"><a xlink:href="Indices_8h.html" target="_top" xlink:title="iDynTree/Model/Indices.h">
<polygon fill="none" stroke="#ff0000" points="2080,-302.5 2080,-321.5 2218,-321.5 2218,-302.5 2080,-302.5"/>
<text text-anchor="middle" x="2149" y="-309.5" font-family="FreeSans.ttf" font-size="10.00" fill="#000000">iDynTree/Model/Indices.h</text>
</a>
</g>
</g>
<!-- Node2&#45;&gt;Node29 -->
<g id="edge21" class="edge">
<title>Node2&#45;&gt;Node29</title>
<path fill="none" stroke="#191970" d="M1197.88,-432.0529C1308.2533,-420.8488 1494.9643,-401.0841 1563,-389 1620.6315,-378.7639 1633.299,-367.8369 1691,-358 1822.93,-335.5086 1978.2522,-322.7582 2069.9,-316.6293"/>
<polygon fill="#191970" stroke="#191970" points="2070.1858,-320.1182 2079.9339,-315.9678 2069.7253,-313.1333 2070.1858,-320.1182"/>
</g>
<!-- Node2&#45;&gt;Node31 -->
<g id="edge23" class="edge">
<title>Node2&#45;&gt;Node31</title>
<path fill="none" stroke="#191970" d="M1090.1092,-425.4639C1073.4575,-414.526 1050.9917,-399.769 1034.2558,-388.7759"/>
<polygon fill="#191970" stroke="#191970" points="1035.9006,-385.6688 1025.6209,-383.1039 1032.0575,-391.5195 1035.9006,-385.6688"/>
</g>
<!-- Node40 -->
<g id="node25" class="node">
<title>Node40</title>
<polygon fill="none" stroke="#bfbfbf" points="1792.5,-302.5 1792.5,-321.5 1839.5,-321.5 1839.5,-302.5 1792.5,-302.5"/>
<text text-anchor="middle" x="1816" y="-309.5" font-family="FreeSans.ttf" font-size="10.00" fill="#000000">vector</text>
</g>
<!-- Node2&#45;&gt;Node40 -->
<g id="edge47" class="edge">
<title>Node2&#45;&gt;Node40</title>
<path fill="none" stroke="#191970" d="M1191.0499,-425.4866C1280.0037,-408.5099 1429.8062,-380.3274 1559,-358 1655.2552,-341.3651 1683.0284,-344.453 1782.4592,-321.8641"/>
<polygon fill="#191970" stroke="#191970" points="1783.3501,-325.2506 1792.31,-319.5964 1781.7796,-318.4291 1783.3501,-325.2506"/>
</g>
<!-- Node4 -->
<g id="node5" class="node">
<title>Node4</title>
<polygon fill="none" stroke="#bfbfbf" points="1490,-56.5 1490,-75.5 1534,-75.5 1534,-56.5 1490,-56.5"/>
<text text-anchor="middle" x="1512" y="-63.5" font-family="FreeSans.ttf" font-size="10.00" fill="#000000">string</text>
</g>
<!-- Node3&#45;&gt;Node4 -->
<g id="edge4" class="edge">
<title>Node3&#45;&gt;Node4</title>
<path fill="none" stroke="#191970" d="M953.7085,-173.7573C967.0764,-157.6707 996.2838,-125.9491 1029,-112 1110.6971,-77.1672 1385.5275,-68.5076 1479.8815,-66.5371"/>
<polygon fill="#191970" stroke="#191970" points="1480.0361,-70.0348 1489.965,-66.3379 1479.8978,-63.0362 1480.0361,-70.0348"/>
</g>
<!-- Node3&#45;&gt;Node5 -->
<g id="edge5" class="edge">
<title>Node3&#45;&gt;Node5</title>
<path fill="none" stroke="#191970" d="M924.5938,-173.8906C901.7717,-163.6457 865.4321,-147.3326 839.5943,-135.7339"/>
<polygon fill="#191970" stroke="#191970" points="840.8123,-132.4443 830.2559,-131.5419 837.9455,-138.8303 840.8123,-132.4443"/>
</g>
<!-- Node6 -->
<g id="node7" class="node">
<title>Node6</title>
<g id="a_node7"><a xlink:href="Utils_8h.html" target="_top" xlink:title="iDynTree/Core/Utils.h">
<polygon fill="none" stroke="#ff0000" points="886.5,-56.5 886.5,-75.5 1005.5,-75.5 1005.5,-56.5 886.5,-56.5"/>
<text text-anchor="middle" x="946" y="-63.5" font-family="FreeSans.ttf" font-size="10.00" fill="#000000">iDynTree/Core/Utils.h</text>
</a>
</g>
</g>
<!-- Node3&#45;&gt;Node6 -->
<g id="edge10" class="edge">
<title>Node3&#45;&gt;Node6</title>
<path fill="none" stroke="#191970" d="M946,-173.8845C946,-154.6913 946,-111.286 946,-85.7663"/>
<polygon fill="#191970" stroke="#191970" points="949.5001,-85.7483 946,-75.7484 942.5001,-85.7484 949.5001,-85.7483"/>
</g>
<!-- Node5&#45;&gt;Node4 -->
<g id="edge8" class="edge">
<title>Node5&#45;&gt;Node4</title>
<path fill="none" stroke="#191970" d="M889.643,-115.5761C1043.9523,-103.284 1374.9712,-76.9155 1479.6023,-68.5808"/>
<polygon fill="#191970" stroke="#191970" points="1480.1519,-72.0482 1489.8424,-67.765 1479.596,-65.0703 1480.1519,-72.0482"/>
</g>
<!-- Node5&#45;&gt;Node6 -->
<g id="edge6" class="edge">
<title>Node5&#45;&gt;Node6</title>
<path fill="none" stroke="#191970" d="M832.5511,-112.3733C854.8391,-103.2629 888.4937,-89.5062 913.3637,-79.3404"/>
<polygon fill="#191970" stroke="#191970" points="914.8239,-82.5247 922.7562,-75.5011 912.1753,-76.0451 914.8239,-82.5247"/>
</g>
<!-- Node5&#45;&gt;Node18 -->
<g id="edge9" class="edge">
<title>Node5&#45;&gt;Node18</title>
<path fill="none" stroke="#191970" d="M809,-112.2455C809,-104.9382 809,-94.6944 809,-85.7046"/>
<polygon fill="#191970" stroke="#191970" points="812.5001,-85.6426 809,-75.6427 805.5001,-85.6427 812.5001,-85.6426"/>
</g>
<!-- Node7 -->
<g id="node8" class="node">
<title>Node7</title>
<polygon fill="none" stroke="#bfbfbf" points="1992.5,-.5 1992.5,-19.5 2045.5,-19.5 2045.5,-.5 1992.5,-.5"/>
<text text-anchor="middle" x="2019" y="-7.5" font-family="FreeSans.ttf" font-size="10.00" fill="#000000">cstddef</text>
</g>
<!-- Node6&#45;&gt;Node7 -->
<g id="edge7" class="edge">
<title>Node6&#45;&gt;Node7</title>
<path fill="none" stroke="#191970" d="M1005.6024,-62.8893C1201.889,-52.6451 1824.5288,-20.1495 1982.3565,-11.9124"/>
<polygon fill="#191970" stroke="#191970" points="1982.6848,-15.4002 1992.4888,-11.3836 1982.3199,-8.4097 1982.6848,-15.4002"/>
</g>
<!-- Node20&#45;&gt;Node4 -->
<g id="edge15" class="edge">
<title>Node20&#45;&gt;Node4</title>
<path fill="none" stroke="#191970" d="M1443.9571,-240.9777C1452.7519,-231.1574 1465.9817,-215.0536 1474,-199 1492.872,-161.2158 1503.7489,-112.5739 1508.7088,-85.8267"/>
<polygon fill="#191970" stroke="#191970" points="1512.1871,-86.2557 1510.4783,-75.7996 1505.2936,-85.0391 1512.1871,-86.2557"/>
</g>
<!-- Node21 -->
<g id="node11" class="node">
<title>Node21</title>
<g id="a_node11"><a xlink:href="PositionRaw_8h.html" target="_top" xlink:title="iDynTree/Core/PositionRaw.h">
<polygon fill="none" stroke="#000000" points="1309,-174 1309,-193 1465,-193 1465,-174 1309,-174"/>
<text text-anchor="middle" x="1387" y="-181" font-family="FreeSans.ttf" font-size="10.00" fill="#000000">iDynTree/Core/PositionRaw.h</text>
</a>
</g>
</g>
<!-- Node20&#45;&gt;Node21 -->
<g id="edge12" class="edge">
<title>Node20&#45;&gt;Node21</title>
<path fill="none" stroke="#191970" d="M1428.1228,-240.9005C1420.7802,-230.6515 1408.9759,-214.1747 1399.8938,-201.4976"/>
<polygon fill="#191970" stroke="#191970" points="1402.5336,-199.1724 1393.8645,-193.0817 1396.8432,-203.2492 1402.5336,-199.1724"/>
</g>
<!-- Node21&#45;&gt;Node4 -->
<g id="edge14" class="edge">
<title>Node21&#45;&gt;Node4</title>
<path fill="none" stroke="#191970" d="M1397.2293,-173.8845C1418.4716,-153.9167 1467.5925,-107.743 1494.1631,-82.7667"/>
<polygon fill="#191970" stroke="#191970" points="1496.7403,-85.1477 1501.6294,-75.7484 1491.9459,-80.0473 1496.7403,-85.1477"/>
</g>
<!-- Node21&#45;&gt;Node5 -->
<g id="edge13" class="edge">
<title>Node21&#45;&gt;Node5</title>
<path fill="none" stroke="#191970" d="M1308.7478,-175.1739C1202.3222,-163.85 1012.3376,-143.6354 899.7763,-131.6587"/>
<polygon fill="#191970" stroke="#191970" points="900.1148,-128.1751 889.8006,-130.5973 899.3741,-135.1358 900.1148,-128.1751"/>
</g>
<!-- Node27&#45;&gt;Node4 -->
<g id="edge17" class="edge">
<title>Node27&#45;&gt;Node4</title>
<path fill="none" stroke="#191970" d="M701.7915,-302.9786C820.0603,-288.7642 1041.7541,-256.6546 1223,-199 1275.4583,-182.313 1421.4448,-110.9743 1483.5012,-80.211"/>
<polygon fill="#191970" stroke="#191970" points="1485.3132,-83.2191 1492.7131,-75.6367 1482.1999,-76.9495 1485.3132,-83.2191"/>
</g>
<!-- Node28&#45;&gt;Node4 -->
<g id="edge19" class="edge">
<title>Node28&#45;&gt;Node4</title>
<path fill="none" stroke="#191970" d="M1525.5079,-302.4225C1524.0204,-273.6166 1519.4024,-185.2424 1515,-112 1514.4784,-103.3223 1513.8593,-93.7268 1513.3194,-85.5546"/>
<polygon fill="#191970" stroke="#191970" points="1516.8074,-85.2575 1512.6488,-75.513 1509.823,-85.724 1516.8074,-85.2575"/>
</g>
<!-- Node29&#45;&gt;Node4 -->
<g id="edge22" class="edge">
<title>Node29&#45;&gt;Node4</title>
<path fill="none" stroke="#191970" d="M2124.0288,-302.3565C2024.321,-263.8508 1654.7641,-121.1334 1543.7422,-78.2584"/>
<polygon fill="#191970" stroke="#191970" points="1544.7058,-74.8786 1534.1163,-74.541 1542.1839,-81.4086 1544.7058,-74.8786"/>
</g>
<!-- Node31&#45;&gt;Node29 -->
<g id="edge45" class="edge">
<title>Node31&#45;&gt;Node29</title>
<path fill="none" stroke="#191970" d="M1085.7532,-365.4322C1112.3273,-362.7709 1142.4753,-359.987 1170,-358 1503.916,-333.8947 1902.8567,-319.6703 2069.6219,-314.3776"/>
<polygon fill="#191970" stroke="#191970" points="2069.904,-317.8705 2079.7886,-314.0569 2069.6832,-310.874 2069.904,-317.8705"/>
</g>
<!-- Node32 -->
<g id="node16" class="node">
<title>Node32</title>
<g id="a_node16"><a xlink:href="Transform_8h.html" target="_top" xlink:title="iDynTree/Core/Transform.h">
<polygon fill="none" stroke="#ff0000" points="1628,-302.5 1628,-321.5 1774,-321.5 1774,-302.5 1628,-302.5"/>
<text text-anchor="middle" x="1701" y="-309.5" font-family="FreeSans.ttf" font-size="10.00" fill="#000000">iDynTree/Core/Transform.h</text>
</a>
</g>
</g>
<!-- Node31&#45;&gt;Node32 -->
<g id="edge24" class="edge">
<title>Node31&#45;&gt;Node32</title>
<path fill="none" stroke="#191970" d="M1085.7945,-365.9446C1112.3723,-363.3298 1142.5121,-360.4441 1170,-358 1365.762,-340.594 1417.587,-341.903 1617.7425,-321.9875"/>
<polygon fill="#191970" stroke="#191970" points="1618.0951,-325.4698 1627.6971,-320.9918 1617.3983,-318.5045 1618.0951,-325.4698"/>
</g>
<!-- Node33 -->
<g id="node18" class="node">
<title>Node33</title>
<g id="a_node18"><a xlink:href="Twist_8h.html" target="_top" xlink:title="iDynTree/Core/Twist.h">
<polygon fill="none" stroke="#000000" points="1151,-302.5 1151,-321.5 1273,-321.5 1273,-302.5 1151,-302.5"/>
<text text-anchor="middle" x="1212" y="-309.5" font-family="FreeSans.ttf" font-size="10.00" fill="#000000">iDynTree/Core/Twist.h</text>
</a>
</g>
</g>
<!-- Node31&#45;&gt;Node33 -->
<g id="edge31" class="edge">
<title>Node31&#45;&gt;Node33</title>
<path fill="none" stroke="#191970" d="M1042.4063,-363.8906C1077.0698,-353.2846 1132.9881,-336.1753 1171.0625,-324.5257"/>
<polygon fill="#191970" stroke="#191970" points="1172.2759,-327.8146 1180.8143,-321.5419 1170.2278,-321.1209 1172.2759,-327.8146"/>
</g>
<!-- Node36 -->
<g id="node21" class="node">
<title>Node36</title>
<g id="a_node21"><a xlink:href="SpatialAcc_8h.html" target="_top" xlink:title="iDynTree/Core/SpatialAcc.h">
<polygon fill="none" stroke="#000000" points="947,-302.5 947,-321.5 1095,-321.5 1095,-302.5 947,-302.5"/>
<text text-anchor="middle" x="1021" y="-309.5" font-family="FreeSans.ttf" font-size="10.00" fill="#000000">iDynTree/Core/SpatialAcc.h</text>
</a>
</g>
</g>
<!-- Node31&#45;&gt;Node36 -->
<g id="edge36" class="edge">
<title>Node31&#45;&gt;Node36</title>
<path fill="none" stroke="#191970" d="M1012.5625,-363.8906C1013.9487,-355.3657 1016.018,-342.6392 1017.7604,-331.9235"/>
<polygon fill="#191970" stroke="#191970" points="1021.2651,-332.177 1019.4155,-321.7449 1014.3558,-331.0535 1021.2651,-332.177"/>
</g>
<!-- Node37 -->
<g id="node22" class="node">
<title>Node37</title>
<g id="a_node22"><a xlink:href="Wrench_8h.html" target="_top" xlink:title="iDynTree/Core/Wrench.h">
<polygon fill="none" stroke="#000000" points="757.5,-302.5 757.5,-321.5 890.5,-321.5 890.5,-302.5 757.5,-302.5"/>
<text text-anchor="middle" x="824" y="-309.5" font-family="FreeSans.ttf" font-size="10.00" fill="#000000">iDynTree/Core/Wrench.h</text>
</a>
</g>
</g>
<!-- Node31&#45;&gt;Node37 -->
<g id="edge38" class="edge">
<title>Node31&#45;&gt;Node37</title>
<path fill="none" stroke="#191970" d="M981.7813,-363.8906C949.6693,-353.3298 897.951,-336.3208 862.5392,-324.6747"/>
<polygon fill="#191970" stroke="#191970" points="863.6065,-321.3413 853.0136,-321.5419 861.4196,-327.9909 863.6065,-321.3413"/>
</g>
<!-- Node39 -->
<g id="node24" class="node">
<title>Node39</title>
<g id="a_node24"><a xlink:href="ArticulatedBodyInertia_8h.html" target="_top" xlink:title="iDynTree/Core/Articulated\lBodyInertia.h">
<polygon fill="none" stroke="#000000" points="1073.5,-168.5 1073.5,-198.5 1214.5,-198.5 1214.5,-168.5 1073.5,-168.5"/>
<text text-anchor="start" x="1081.5" y="-186.5" font-family="FreeSans.ttf" font-size="10.00" fill="#000000">iDynTree/Core/Articulated</text>
<text text-anchor="middle" x="1144" y="-175.5" font-family="FreeSans.ttf" font-size="10.00" fill="#000000">BodyInertia.h</text>
</a>
</g>
</g>
<!-- Node31&#45;&gt;Node39 -->
<g id="edge42" class="edge">
<title>Node31&#45;&gt;Node39</title>
<path fill="none" stroke="#191970" d="M1063.4735,-363.957C1141.7689,-349.6588 1280.2487,-324.1154 1282,-322 1319.6741,-276.4921 1242.3313,-228.844 1188.9529,-203.0015"/>
<polygon fill="#191970" stroke="#191970" points="1190.1635,-199.7022 1179.6274,-198.5876 1187.1688,-206.0293 1190.1635,-199.7022"/>
</g>
<!-- Node31&#45;&gt;Node40 -->
<g id="edge46" class="edge">
<title>Node31&#45;&gt;Node40</title>
<path fill="none" stroke="#191970" d="M1085.7668,-365.6128C1112.3421,-362.9679 1142.4874,-360.1481 1170,-358 1438.7644,-337.0157 1512.5301,-369.1043 1782.2787,-321.6836"/>
<polygon fill="#191970" stroke="#191970" points="1783.1372,-325.0859 1792.3698,-319.8889 1781.9114,-318.1941 1783.1372,-325.0859"/>
</g>
<!-- Node32&#45;&gt;Node4 -->
<g id="edge30" class="edge">
<title>Node32&#45;&gt;Node4</title>
<path fill="none" stroke="#191970" d="M1693.591,-302.3565C1665.1283,-265.3099 1562.5532,-131.7993 1525.4844,-83.5511"/>
<polygon fill="#191970" stroke="#191970" points="1528.2257,-81.3743 1519.3578,-75.5768 1522.6748,-85.639 1528.2257,-81.3743"/>
</g>
<!-- Node32&#45;&gt;Node20 -->
<g id="edge25" class="edge">
<title>Node32&#45;&gt;Node20</title>
<path fill="none" stroke="#191970" d="M1659.7294,-302.4581C1613.0391,-291.6632 1536.9425,-274.0694 1486.426,-262.3899"/>
<polygon fill="#191970" stroke="#191970" points="1486.8989,-258.9069 1476.3675,-260.0643 1485.322,-265.727 1486.8989,-258.9069"/>
</g>
<!-- Node25 -->
<g id="node17" class="node">
<title>Node25</title>
<g id="a_node17"><a xlink:href="MatrixFixSize_8h.html" target="_top" xlink:title="iDynTree/Core/MatrixFixSize.h">
<polygon fill="none" stroke="#ff0000" points="1038.5,-112.5 1038.5,-131.5 1199.5,-131.5 1199.5,-112.5 1038.5,-112.5"/>
<text text-anchor="middle" x="1119" y="-119.5" font-family="FreeSans.ttf" font-size="10.00" fill="#000000">iDynTree/Core/MatrixFixSize.h</text>
</a>
</g>
</g>
<!-- Node32&#45;&gt;Node25 -->
<g id="edge26" class="edge">
<title>Node32&#45;&gt;Node25</title>
<path fill="none" stroke="#191970" d="M1681.6386,-302.4508C1647.9616,-286.2223 1576.0615,-253.2507 1512,-235 1420.0863,-208.8143 1391.7101,-225.8902 1300,-199 1284.9013,-194.5729 1197.7299,-156.6109 1150.0864,-135.6943"/>
<polygon fill="#191970" stroke="#191970" points="1151.4019,-132.4494 1140.8388,-131.6305 1148.5857,-138.858 1151.4019,-132.4494"/>
</g>
<!-- Node25&#45;&gt;Node4 -->
<g id="edge28" class="edge">
<title>Node25&#45;&gt;Node4</title>
<path fill="none" stroke="#191970" d="M1186.1126,-112.4369C1271.4956,-100.2703 1415.5502,-79.7435 1479.61,-70.6154"/>
<polygon fill="#191970" stroke="#191970" points="1480.4916,-74.0252 1489.8978,-69.1494 1479.5041,-67.0952 1480.4916,-74.0252"/>
</g>
<!-- Node25&#45;&gt;Node6 -->
<g id="edge27" class="edge">
<title>Node25&#45;&gt;Node6</title>
<path fill="none" stroke="#191970" d="M1089.2602,-112.3733C1060.493,-103.0613 1016.73,-88.8953 985.1444,-78.671"/>
<polygon fill="#191970" stroke="#191970" points="985.9436,-75.251 975.3517,-75.5011 983.7878,-81.9107 985.9436,-75.251"/>
</g>
<!-- Node25&#45;&gt;Node18 -->
<g id="edge29" class="edge">
<title>Node25&#45;&gt;Node18</title>
<path fill="none" stroke="#191970" d="M1066.0613,-112.4369C1003.8396,-101.1968 902.1177,-82.8213 847.1425,-72.8903"/>
<polygon fill="#191970" stroke="#191970" points="847.5818,-69.413 837.1189,-71.0795 846.3374,-76.3016 847.5818,-69.413"/>
</g>
<!-- Node34 -->
<g id="node19" class="node">
<title>Node34</title>
<g id="a_node19"><a xlink:href="SpatialMotionVector_8h.html" target="_top" xlink:title="iDynTree/Core/SpatialMotion\lVector.h">
<polygon fill="none" stroke="#ff0000" points="587.5,-235.5 587.5,-265.5 742.5,-265.5 742.5,-235.5 587.5,-235.5"/>
<text text-anchor="start" x="595.5" y="-253.5" font-family="FreeSans.ttf" font-size="10.00" fill="#000000">iDynTree/Core/SpatialMotion</text>
<text text-anchor="middle" x="665" y="-242.5" font-family="FreeSans.ttf" font-size="10.00" fill="#000000">Vector.h</text>
</a>
</g>
</g>
<!-- Node33&#45;&gt;Node34 -->
<g id="edge32" class="edge">
<title>Node33&#45;&gt;Node34</title>
<path fill="none" stroke="#191970" d="M1150.6203,-303.6947C1146.0128,-303.1084 1141.4338,-302.5374 1137,-302 1003.1713,-285.7794 847.7045,-269.2658 752.8622,-259.4533"/>
<polygon fill="#191970" stroke="#191970" points="753.047,-255.9538 742.7402,-258.4077 752.3276,-262.9168 753.047,-255.9538"/>
</g>
<!-- Node34&#45;&gt;Node5 -->
<g id="edge33" class="edge">
<title>Node34&#45;&gt;Node5</title>
<path fill="none" stroke="#191970" d="M682.0842,-235.2548C709.3425,-210.9305 762.4551,-163.5349 790.5501,-138.464"/>
<polygon fill="#191970" stroke="#191970" points="792.959,-141.0054 798.0899,-131.7358 788.2983,-135.7825 792.959,-141.0054"/>
</g>
<!-- Node23 -->
<g id="node20" class="node">
<title>Node23</title>
<g id="a_node20"><a xlink:href="GeomVector3_8h.html" target="_top" xlink:title="iDynTree/Core/GeomVector3.h">
<polygon fill="none" stroke="#000000" points="421.5,-174 421.5,-193 584.5,-193 584.5,-174 421.5,-174"/>
<text text-anchor="middle" x="503" y="-181" font-family="FreeSans.ttf" font-size="10.00" fill="#000000">iDynTree/Core/GeomVector3.h</text>
</a>
</g>
</g>
<!-- Node34&#45;&gt;Node23 -->
<g id="edge34" class="edge">
<title>Node34&#45;&gt;Node23</title>
<path fill="none" stroke="#191970" d="M628.644,-235.4639C600.7279,-223.9183 562.5231,-208.1176 535.593,-196.9798"/>
<polygon fill="#191970" stroke="#191970" points="536.8,-193.6915 526.2214,-193.1039 534.1246,-200.1601 536.8,-193.6915"/>
</g>
<!-- Node23&#45;&gt;Node5 -->
<g id="edge35" class="edge">
<title>Node23&#45;&gt;Node5</title>
<path fill="none" stroke="#191970" d="M550.4768,-173.9581C604.7158,-163.0571 693.4512,-145.223 751.545,-133.5473"/>
<polygon fill="#191970" stroke="#191970" points="752.5494,-136.9155 761.6636,-131.5137 751.17,-130.0528 752.5494,-136.9155"/>
</g>
<!-- Node36&#45;&gt;Node34 -->
<g id="edge37" class="edge">
<title>Node36&#45;&gt;Node34</title>
<path fill="none" stroke="#191970" d="M965.7656,-302.4581C908.8289,-292.6221 819.2179,-277.1416 752.6024,-265.6336"/>
<polygon fill="#191970" stroke="#191970" points="752.9825,-262.1475 742.5326,-263.894 751.7908,-269.0453 752.9825,-262.1475"/>
</g>
<!-- Node38 -->
<g id="node23" class="node">
<title>Node38</title>
<g id="a_node23"><a xlink:href="SpatialForceVector_8h.html" target="_top" xlink:title="iDynTree/Core/SpatialForce\lVector.h">
<polygon fill="none" stroke="#ff0000" points="421,-235.5 421,-265.5 569,-265.5 569,-235.5 421,-235.5"/>
<text text-anchor="start" x="429" y="-253.5" font-family="FreeSans.ttf" font-size="10.00" fill="#000000">iDynTree/Core/SpatialForce</text>
<text text-anchor="middle" x="495" y="-242.5" font-family="FreeSans.ttf" font-size="10.00" fill="#000000">Vector.h</text>
</a>
</g>
</g>
<!-- Node37&#45;&gt;Node38 -->
<g id="edge39" class="edge">
<title>Node37&#45;&gt;Node38</title>
<path fill="none" stroke="#191970" d="M772.9547,-302.4581C721.2362,-292.7904 640.3457,-277.6695 579.1357,-266.2275"/>
<polygon fill="#191970" stroke="#191970" points="579.5772,-262.7495 569.1044,-264.3523 578.2909,-269.6303 579.5772,-262.7495"/>
</g>
<!-- Node38&#45;&gt;Node5 -->
<g id="edge40" class="edge">
<title>Node38&#45;&gt;Node5</title>
<path fill="none" stroke="#191970" d="M531.9431,-235.3816C593.703,-210.1072 716.9437,-159.6727 775.9816,-135.5123"/>
<polygon fill="#191970" stroke="#191970" points="777.6296,-138.6197 785.5589,-131.5929 774.9783,-132.1412 777.6296,-138.6197"/>
</g>
<!-- Node38&#45;&gt;Node23 -->
<g id="edge41" class="edge">
<title>Node38&#45;&gt;Node23</title>
<path fill="none" stroke="#191970" d="M496.8153,-235.2967C497.9528,-225.7699 499.4304,-213.3954 500.656,-203.1306"/>
<polygon fill="#191970" stroke="#191970" points="504.1487,-203.3994 501.8591,-193.055 497.1981,-202.5694 504.1487,-203.3994"/>
</g>
<!-- Node39&#45;&gt;Node4 -->
<g id="edge44" class="edge">
<title>Node39&#45;&gt;Node4</title>
<path fill="none" stroke="#191970" d="M1165.0967,-168.2048C1188.7466,-151.8029 1228.8015,-126.2071 1267,-112 1340.1596,-84.7898 1431.8415,-73.0878 1479.6332,-68.548"/>
<polygon fill="#191970" stroke="#191970" points="1480.0527,-72.0245 1489.6965,-67.6373 1479.4217,-65.053 1480.0527,-72.0245"/>
</g>
<!-- Node39&#45;&gt;Node25 -->
<g id="edge43" class="edge">
<title>Node39&#45;&gt;Node25</title>
<path fill="none" stroke="#191970" d="M1137.8202,-168.2977C1134.4946,-160.1166 1130.3589,-149.943 1126.8121,-141.2179"/>
<polygon fill="#191970" stroke="#191970" points="1130.011,-139.7927 1123.0028,-131.8469 1123.5263,-142.4288 1130.011,-139.7927"/>
</g>
<!-- Node41&#45;&gt;Node29 -->
<g id="edge54" class="edge">
<title>Node41&#45;&gt;Node29</title>
<path fill="none" stroke="#191970" d="M2372.0209,-430.8905C2399.9588,-415.5466 2446.4666,-384.5368 2424,-358 2411.353,-343.0617 2304.9178,-328.6379 2228.2515,-320.0412"/>
<polygon fill="#191970" stroke="#191970" points="2228.4407,-316.5408 2218.1163,-318.9189 2227.6703,-323.4983 2228.4407,-316.5408"/>
</g>
<!-- Node41&#45;&gt;Node32 -->
<g id="edge53" class="edge">
<title>Node41&#45;&gt;Node32</title>
<path fill="none" stroke="#191970" d="M2286.4522,-435.646C2205.7008,-428.9299 2065.7366,-414.629 1948,-389 1870.9671,-372.2314 1783.4585,-342.2617 1736.0487,-325.0746"/>
<polygon fill="#191970" stroke="#191970" points="1737.1526,-321.7518 1726.5588,-321.6105 1734.7523,-328.3274 1737.1526,-321.7518"/>
</g>
<!-- Node41&#45;&gt;Node40 -->
<g id="edge61" class="edge">
<title>Node41&#45;&gt;Node40</title>
<path fill="none" stroke="#191970" d="M2331.639,-430.8807C2292.4757,-413.6358 2206.1952,-377.4478 2130,-358 2029.7386,-332.4096 1907.5866,-319.6091 1849.6261,-314.6055"/>
<polygon fill="#191970" stroke="#191970" points="1849.8283,-311.1103 1839.5704,-313.7607 1849.2422,-318.0857 1849.8283,-311.1103"/>
</g>
<!-- Node42 -->
<g id="node27" class="node">
<title>Node42</title>
<g id="a_node27"><a xlink:href="IJoint_8h.html" target="_top" xlink:title="iDynTree/Model/IJoint.h">
<polygon fill="none" stroke="#000000" points="2653,-364 2653,-383 2781,-383 2781,-364 2653,-364"/>
<text text-anchor="middle" x="2717" y="-371" font-family="FreeSans.ttf" font-size="10.00" fill="#000000">iDynTree/Model/IJoint.h</text>
</a>
</g>
</g>
<!-- Node41&#45;&gt;Node42 -->
<g id="edge49" class="edge">
<title>Node41&#45;&gt;Node42</title>
<path fill="none" stroke="#191970" d="M2410.2556,-430.9595C2469.0175,-421.029 2563.0443,-404.7535 2644,-389 2650.2594,-387.782 2656.8104,-386.4593 2663.3094,-385.1174"/>
<polygon fill="#191970" stroke="#191970" points="2664.356,-388.4744 2673.4299,-383.0049 2662.9257,-381.6221 2664.356,-388.4744"/>
</g>
<!-- Node43 -->
<g id="node28" class="node">
<title>Node43</title>
<g id="a_node28"><a xlink:href="Link_8h.html" target="_top" xlink:title="iDynTree/Model/Link.h">
<polygon fill="none" stroke="#ff0000" points="2291,-364 2291,-383 2415,-383 2415,-364 2291,-364"/>
<text text-anchor="middle" x="2353" y="-371" font-family="FreeSans.ttf" font-size="10.00" fill="#000000">iDynTree/Model/Link.h</text>
</a>
</g>
</g>
<!-- Node41&#45;&gt;Node43 -->
<g id="edge51" class="edge">
<title>Node41&#45;&gt;Node43</title>
<path fill="none" stroke="#191970" d="M2353,-430.9005C2353,-421.149 2353,-405.7597 2353,-393.3695"/>
<polygon fill="#191970" stroke="#191970" points="2356.5001,-393.0816 2353,-383.0817 2349.5001,-393.0817 2356.5001,-393.0816"/>
</g>
<!-- Node48 -->
<g id="node29" class="node">
<title>Node48</title>
<g id="a_node29"><a xlink:href="SolidShapes_8h.html" target="_top" xlink:title="iDynTree/Model/SolidShapes.h">
<polygon fill="none" stroke="#000000" points="2471.5,-364 2471.5,-383 2634.5,-383 2634.5,-364 2471.5,-364"/>
<text text-anchor="middle" x="2553" y="-371" font-family="FreeSans.ttf" font-size="10.00" fill="#000000">iDynTree/Model/SolidShapes.h</text>
</a>
</g>
</g>
<!-- Node41&#45;&gt;Node48 -->
<g id="edge55" class="edge">
<title>Node41&#45;&gt;Node48</title>
<path fill="none" stroke="#191970" d="M2381.6551,-430.9005C2416.5563,-419.2086 2475.6502,-399.4122 2514.4997,-386.3976"/>
<polygon fill="#191970" stroke="#191970" points="2516.0277,-389.577 2524.398,-383.0817 2513.8041,-382.9395 2516.0277,-389.577"/>
</g>
<!-- Node49 -->
<g id="node30" class="node">
<title>Node49</title>
<polygon fill="none" stroke="#bfbfbf" points="2618.5,-302.5 2618.5,-321.5 2667.5,-321.5 2667.5,-302.5 2618.5,-302.5"/>
<text text-anchor="middle" x="2643" y="-309.5" font-family="FreeSans.ttf" font-size="10.00" fill="#000000">cstdlib</text>
</g>
<!-- Node41&#45;&gt;Node49 -->
<g id="edge60" class="edge">
<title>Node41&#45;&gt;Node49</title>
<path fill="none" stroke="#191970" d="M2419.8947,-437.4272C2536.2469,-431.3915 2765.8579,-416.1543 2790,-389 2825.6231,-348.9323 2731.7767,-326.4286 2677.8669,-317.1261"/>
<polygon fill="#191970" stroke="#191970" points="2678.1046,-313.618 2667.6677,-315.4403 2676.963,-320.5243 2678.1046,-313.618"/>
</g>
<!-- Node42&#45;&gt;Node29 -->
<g id="edge50" class="edge">
<title>Node42&#45;&gt;Node29</title>
<path fill="none" stroke="#191970" d="M2676.228,-363.9662C2665.7677,-361.762 2654.5032,-359.5975 2644,-358 2498.1343,-335.8139 2326.3477,-322.746 2228.3036,-316.5118"/>
<polygon fill="#191970" stroke="#191970" points="2228.3758,-313.0095 2218.176,-315.8755 2227.9368,-319.9957 2228.3758,-313.0095"/>
</g>
<!-- Node43&#45;&gt;Node29 -->
<g id="edge52" class="edge">
<title>Node43&#45;&gt;Node29</title>
<path fill="none" stroke="#191970" d="M2321.125,-363.8906C2285.9441,-353.2846 2229.1912,-336.1753 2190.5485,-324.5257"/>
<polygon fill="#191970" stroke="#191970" points="2191.2358,-321.0773 2180.6512,-321.5419 2189.2153,-327.7794 2191.2358,-321.0773"/>
</g>
<!-- Node48&#45;&gt;Node4 -->
<g id="edge57" class="edge">
<title>Node48&#45;&gt;Node4</title>
<path fill="none" stroke="#191970" d="M2538.9375,-363.8069C2513.625,-345.0893 2463,-301.3035 2463,-250.5 2463,-250.5 2463,-250.5 2463,-183.5 2463,-88.7792 1710.3111,-69.5966 1544.1875,-66.5164"/>
<polygon fill="#191970" stroke="#191970" points="1544.1687,-63.0156 1534.1077,-66.3362 1544.0435,-70.0145 1544.1687,-63.0156"/>
</g>
<!-- Node48&#45;&gt;Node32 -->
<g id="edge59" class="edge">
<title>Node48&#45;&gt;Node32</title>
<path fill="none" stroke="#191970" d="M2480.4252,-363.9619C2462.0402,-361.7708 2442.3129,-359.6136 2424,-358 2143.5312,-333.287 2069.5168,-346.7277 1784.5218,-321.9838"/>
<polygon fill="#191970" stroke="#191970" points="1784.5614,-318.4739 1774.2939,-321.0874 1783.9501,-325.4472 1784.5614,-318.4739"/>
</g>
<!-- Node48&#45;&gt;Node40 -->
<g id="edge58" class="edge">
<title>Node48&#45;&gt;Node40</title>
<path fill="none" stroke="#191970" d="M2478.3667,-363.9657C2460.5678,-361.8489 2441.623,-359.7246 2424,-358 2205.3558,-336.6038 1941.6361,-319.6674 1849.616,-314.0214"/>
<polygon fill="#191970" stroke="#191970" points="1849.7014,-310.5201 1839.5066,-313.4042 1849.2748,-317.5071 1849.7014,-310.5201"/>
</g>
<!-- Node48&#45;&gt;Node49 -->
<g id="edge56" class="edge">
<title>Node48&#45;&gt;Node49</title>
<path fill="none" stroke="#191970" d="M2567.0625,-363.8906C2581.3286,-354.1421 2603.635,-338.8994 2620.3872,-327.4521"/>
<polygon fill="#191970" stroke="#191970" points="2622.7545,-330.0736 2629.0362,-321.5419 2618.8051,-324.2941 2622.7545,-330.0736"/>
</g>
<!-- Node50&#45;&gt;Node4 -->
<g id="edge65" class="edge">
<title>Node50&#45;&gt;Node4</title>
<path fill="none" stroke="#191970" d="M2946.5495,-363.8521C2937.5419,-343.4143 2918,-294.0554 2918,-250.5 2918,-250.5 2918,-250.5 2918,-183.5 2918,-142.8601 2897.308,-130.2575 2861,-112 2800.3229,-81.4885 1742.9829,-68.5121 1544.1071,-66.3361"/>
<polygon fill="#191970" stroke="#191970" points="1544.0505,-62.8353 1534.0132,-66.2269 1543.9747,-69.8349 1544.0505,-62.8353"/>
</g>
<!-- Node50&#45;&gt;Node7 -->
<g id="edge66" class="edge">
<title>Node50&#45;&gt;Node7</title>
<path fill="none" stroke="#191970" d="M2978.7161,-363.8928C3020.0407,-347.596 3093,-310.3491 3093,-250.5 3093,-250.5 3093,-250.5 3093,-122 3093,-68.6692 2244.2099,-21.6453 2055.7655,-11.8625"/>
<polygon fill="#191970" stroke="#191970" points="2055.7156,-8.3553 2045.5485,-11.3351 2055.3547,-15.346 2055.7156,-8.3553"/>
</g>
<!-- Node50&#45;&gt;Node29 -->
<g id="edge63" class="edge">
<title>Node50&#45;&gt;Node29</title>
<path fill="none" stroke="#191970" d="M2875.2742,-365.8267C2848.363,-363.2012 2817.8422,-360.3389 2790,-358 2587.9826,-341.0294 2349.8123,-324.9753 2228.5848,-317.0863"/>
<polygon fill="#191970" stroke="#191970" points="2228.4926,-313.573 2218.2868,-316.4175 2228.0389,-320.5583 2228.4926,-313.573"/>
</g>
<!-- Node50&#45;&gt;Node40 -->
<g id="edge64" class="edge">
<title>Node50&#45;&gt;Node40</title>
<path fill="none" stroke="#191970" d="M2875.304,-365.4449C2848.3954,-362.7849 2817.8687,-359.9984 2790,-358 2601.3844,-344.4748 2000.1854,-319.5231 1850.1675,-313.3892"/>
<polygon fill="#191970" stroke="#191970" points="1849.9006,-309.8754 1839.7661,-312.9645 1849.615,-316.8696 1849.9006,-309.8754"/>
</g>
<!-- Node51&#45;&gt;Node20 -->
<g id="edge68" class="edge">
<title>Node51&#45;&gt;Node20</title>
<path fill="none" stroke="#191970" d="M1381.854,-430.8167C1390.6332,-401.0303 1417.3584,-310.3556 1429.2216,-270.1053"/>
<polygon fill="#191970" stroke="#191970" points="1432.6146,-270.9733 1432.0846,-260.3917 1425.9001,-268.9942 1432.6146,-270.9733"/>
</g>
<!-- Node51&#45;&gt;Node29 -->
<g id="edge70" class="edge">
<title>Node51&#45;&gt;Node29</title>
<path fill="none" stroke="#191970" d="M1435.9326,-430.9989C1575.2067,-407.7564 1932.5804,-348.1168 2081.8808,-323.2011"/>
<polygon fill="#191970" stroke="#191970" points="2082.5501,-326.6379 2091.8376,-321.5394 2081.3978,-319.7333 2082.5501,-326.6379"/>
</g>
<!-- Node51&#45;&gt;Node31 -->
<g id="edge71" class="edge">
<title>Node51&#45;&gt;Node31</title>
<path fill="none" stroke="#191970" d="M1326.6654,-430.9717C1259.9962,-418.8335 1144.8974,-397.8781 1073.6365,-384.9039"/>
<polygon fill="#191970" stroke="#191970" points="1073.9169,-381.3975 1063.4517,-383.0496 1072.663,-388.2843 1073.9169,-381.3975"/>
</g>
<!-- Node51&#45;&gt;Node37 -->
<g id="edge69" class="edge">
<title>Node51&#45;&gt;Node37</title>
<path fill="none" stroke="#191970" d="M1290.41,-431.6062C1163.5926,-418.7012 943.6441,-395.6035 927,-389 892.4985,-375.3117 859.3695,-346.9283 840.3809,-328.7091"/>
<polygon fill="#191970" stroke="#191970" points="842.7305,-326.1108 833.1459,-321.5956 837.8228,-331.1023 842.7305,-326.1108"/>
</g>
<!-- Node51&#45;&gt;Node40 -->
<g id="edge72" class="edge">
<title>Node51&#45;&gt;Node40</title>
<path fill="none" stroke="#191970" d="M1411.7585,-430.9988C1479.0272,-411.4652 1637.8373,-365.231 1782.2819,-322.1963"/>
<polygon fill="#191970" stroke="#191970" points="1783.6313,-325.4464 1792.2146,-319.2353 1781.6314,-318.7381 1783.6313,-325.4464"/>
</g>
<!-- Node52&#45;&gt;Node29 -->
<g id="edge74" class="edge">
<title>Node52&#45;&gt;Node29</title>
<path fill="none" stroke="#191970" d="M1832.011,-492.4017C1870.7735,-477.0871 1949.7039,-446.6478 2018,-425 2076.785,-406.3669 2114.4754,-437.9364 2152,-389 2164.4208,-372.8018 2160.9701,-348.5597 2156.1549,-331.6162"/>
<polygon fill="#191970" stroke="#191970" points="2159.3534,-330.132 2152.9466,-321.6938 2152.6929,-332.2856 2159.3534,-330.132"/>
</g>
<!-- Node52&#45;&gt;Node40 -->
<g id="edge75" class="edge">
<title>Node52&#45;&gt;Node40</title>
<path fill="none" stroke="#191970" d="M1806.1987,-492.4917C1802.0995,-469.3248 1793.0251,-408.1802 1801,-358 1802.4301,-349.0016 1805.3412,-339.3703 1808.2216,-331.2579"/>
<polygon fill="#191970" stroke="#191970" points="1811.592,-332.2407 1811.8632,-321.6493 1805.0463,-329.7599 1811.592,-332.2407"/>
</g>
<!-- Node53&#45;&gt;Node5 -->
<g id="edge77" class="edge">
<title>Node53&#45;&gt;Node5</title>
<path fill="none" stroke="#191970" d="M1264.1946,-363.7981C1276.9577,-349.133 1296.8832,-321.0177 1282,-302 1164.6115,-152.0019 1024.468,-304.676 866,-199 844.2533,-184.498 827.7256,-158.7828 818.2047,-141.0872"/>
<polygon fill="#191970" stroke="#191970" points="821.0931,-139.0483 813.4221,-131.7403 814.8615,-142.2369 821.0931,-139.0483"/>
</g>
<!-- Node53&#45;&gt;Node28 -->
<g id="edge78" class="edge">
<title>Node53&#45;&gt;Node28</title>
<path fill="none" stroke="#191970" d="M1297.0464,-363.9581C1344.7136,-353.1406 1422.4651,-335.4959 1473.9293,-323.8168"/>
<polygon fill="#191970" stroke="#191970" points="1474.8775,-327.1907 1483.855,-321.5643 1473.3283,-320.3642 1474.8775,-327.1907"/>
</g>
<!-- Node53&#45;&gt;Node38 -->
<g id="edge79" class="edge">
<title>Node53&#45;&gt;Node38</title>
<path fill="none" stroke="#191970" d="M1233.1654,-363.9901C1210.2786,-353.9193 1173.3567,-337.3818 1142,-322 1124.8653,-313.5947 1122.3608,-307.2084 1104,-302 881.7619,-238.9583 812.4136,-293.9536 579.292,-266.0427"/>
<polygon fill="#191970" stroke="#191970" points="579.4983,-262.5416 569.1444,-264.7881 578.6393,-269.4888 579.4983,-262.5416"/>
</g>
<!-- Node53&#45;&gt;Node40 -->
<g id="edge80" class="edge">
<title>Node53&#45;&gt;Node40</title>
<path fill="none" stroke="#191970" d="M1330.4233,-363.9756C1347.6884,-361.9041 1365.9704,-359.797 1383,-358 1557.3038,-339.6072 1606.0329,-355.4653 1782.4822,-321.7122"/>
<polygon fill="#191970" stroke="#191970" points="1783.202,-325.1379 1792.3529,-319.7982 1781.8694,-318.2659 1783.202,-325.1379"/>
</g>
<!-- Node54&#45;&gt;Node28 -->
<g id="edge84" class="edge">
<title>Node54&#45;&gt;Node28</title>
<path fill="none" stroke="#191970" d="M1533.0434,-425.3925C1519.3812,-416.7636 1504.5865,-404.5426 1497,-389 1487.3779,-369.287 1499.7344,-345.5174 1511.1639,-329.6511"/>
<polygon fill="#191970" stroke="#191970" points="1513.94,-331.7825 1517.2728,-321.7255 1508.3958,-327.5091 1513.94,-331.7825"/>
</g>
<!-- Node54&#45;&gt;Node29 -->
<g id="edge85" class="edge">
<title>Node54&#45;&gt;Node29</title>
<path fill="none" stroke="#191970" d="M1640.254,-435.8498C1791.0788,-426.4463 2111.6894,-404.7298 2130,-389 2146.2699,-375.0232 2149.7745,-349.5449 2150.0248,-331.7378"/>
<polygon fill="#191970" stroke="#191970" points="2153.5212,-331.5096 2149.8332,-321.5774 2146.5225,-331.6416 2153.5212,-331.5096"/>
</g>
<!-- Node54&#45;&gt;Node31 -->
<g id="edge86" class="edge">
<title>Node54&#45;&gt;Node31</title>
<path fill="none" stroke="#191970" d="M1485.7215,-426.459C1482.4399,-425.9491 1479.1888,-425.4601 1476,-425 1404.7931,-414.7251 1209.4622,-394.0089 1095.8951,-382.2226"/>
<polygon fill="#191970" stroke="#191970" points="1096.1491,-378.7303 1085.8415,-381.1804 1095.4273,-385.693 1096.1491,-378.7303"/>
</g>
<!-- Node54&#45;&gt;Node32 -->
<g id="edge82" class="edge">
<title>Node54&#45;&gt;Node32</title>
<path fill="none" stroke="#191970" d="M1579.3723,-425.2548C1605.3828,-401.0349 1655.958,-353.9413 1682.9709,-328.788"/>
<polygon fill="#191970" stroke="#191970" points="1685.6111,-331.112 1690.5444,-321.7358 1680.8408,-325.989 1685.6111,-331.112"/>
</g>
<!-- Node54&#45;&gt;Node33 -->
<g id="edge83" class="edge">
<title>Node54&#45;&gt;Node33</title>
<path fill="none" stroke="#191970" d="M1522.1494,-425.3797C1477.2664,-408.7843 1403.0354,-381.389 1339,-358 1308.4702,-346.8489 1273.7716,-334.2887 1248.3675,-325.1138"/>
<polygon fill="#191970" stroke="#191970" points="1249.3679,-321.7539 1238.7736,-321.6503 1246.9909,-328.338 1249.3679,-321.7539"/>
</g>
<!-- Node54&#45;&gt;Node40 -->
<g id="edge88" class="edge">
<title>Node54&#45;&gt;Node40</title>
<path fill="none" stroke="#191970" d="M1592.5477,-425.4191C1625.0113,-408.8578 1678.6992,-381.4919 1725,-358 1745.9124,-347.3896 1769.5485,-335.443 1787.49,-326.3842"/>
<polygon fill="#191970" stroke="#191970" points="1789.4683,-329.3062 1796.8182,-321.6754 1786.3139,-323.0573 1789.4683,-329.3062"/>
</g>
<!-- Node54&#45;&gt;Node53 -->
<g id="edge87" class="edge">
<title>Node54&#45;&gt;Node53</title>
<path fill="none" stroke="#191970" d="M1493.8788,-425.4639C1437.8439,-413.2745 1360.0056,-396.3421 1308.6085,-385.1616"/>
<polygon fill="#191970" stroke="#191970" points="1309.2114,-381.711 1298.6959,-383.0053 1307.7234,-388.551 1309.2114,-381.711"/>
</g>
<!-- Node55&#45;&gt;Node29 -->
<g id="edge91" class="edge">
<title>Node55&#45;&gt;Node29</title>
<path fill="none" stroke="#191970" d="M2065.909,-358.4554C2083.2968,-348.734 2105.8049,-336.15 2123.0084,-326.5317"/>
<polygon fill="#191970" stroke="#191970" points="2124.9335,-329.4653 2131.9539,-321.5303 2121.5174,-323.3554 2124.9335,-329.4653"/>
</g>
<!-- Node55&#45;&gt;Node40 -->
<g id="edge90" class="edge">
<title>Node55&#45;&gt;Node40</title>
<path fill="none" stroke="#191970" d="M1984.4481,-358.4554C1942.3164,-346.8361 1885.356,-331.1273 1849.6524,-321.2808"/>
<polygon fill="#191970" stroke="#191970" points="1850.306,-317.8305 1839.7353,-318.5458 1848.4449,-324.5786 1850.306,-317.8305"/>
</g>
<!-- Node56&#45;&gt;Node4 -->
<g id="edge94" class="edge">
<title>Node56&#45;&gt;Node4</title>
<path fill="none" stroke="#191970" d="M2051.5496,-496.0547C2141.6441,-488.5663 2296.6809,-474.419 2429,-456 2471.2473,-450.1191 2772.6235,-414.2522 2807,-389 2838.0801,-366.1693 2847,-350.5644 2847,-312 2847,-312 2847,-312 2847,-183.5 2847,-115.9269 1747.3368,-74.2242 1544.0948,-67.0936"/>
<polygon fill="#191970" stroke="#191970" points="1544.1734,-63.5944 1534.0576,-66.7441 1543.9297,-70.5901 1544.1734,-63.5944"/>
</g>
<!-- Node56&#45;&gt;Node28 -->
<g id="edge97" class="edge">
<title>Node56&#45;&gt;Node28</title>
<path fill="none" stroke="#191970" d="M1953.376,-492.4477C1879.3249,-461.1816 1644.0186,-361.8301 1557.9387,-325.4852"/>
<polygon fill="#191970" stroke="#191970" points="1559.2429,-322.2368 1548.669,-321.5714 1556.5201,-328.6855 1559.2429,-322.2368"/>
</g>
<!-- Node56&#45;&gt;Node29 -->
<g id="edge99" class="edge">
<title>Node56&#45;&gt;Node29</title>
<path fill="none" stroke="#191970" d="M1984.4344,-492.3965C1999.2853,-476.086 2031.7843,-442.9942 2066,-425 2120.9598,-396.0964 2163.1684,-438.242 2201,-389 2209.3939,-378.0744 2206.6592,-370.5619 2201,-358 2195.4303,-345.6369 2184.7137,-335.2563 2174.4494,-327.5033"/>
<polygon fill="#191970" stroke="#191970" points="2176.2549,-324.4948 2166.0567,-321.623 2172.2382,-330.2277 2176.2549,-324.4948"/>
</g>
<!-- Node56&#45;&gt;Node23 -->
<g id="edge93" class="edge">
<title>Node56&#45;&gt;Node23</title>
<path fill="none" stroke="#191970" d="M1900.4876,-492.7884C1897.2842,-492.5012 1894.1114,-492.2364 1891,-492 1428.9439,-456.8987 1307.4053,-523.7677 849,-456 795.7841,-448.1329 784.8942,-434.7994 732,-425 658.597,-411.401 447.8785,-444.5435 398,-389 375.3276,-363.7525 341.6857,-341.2605 412,-235 423.687,-217.3384 443.6208,-205.0788 461.8579,-196.9655"/>
<polygon fill="#191970" stroke="#191970" points="463.2926,-200.1596 471.1874,-193.094 460.6096,-193.6941 463.2926,-200.1596"/>
</g>
<!-- Node56&#45;&gt;Node40 -->
<g id="edge95" class="edge">
<title>Node56&#45;&gt;Node40</title>
<path fill="none" stroke="#191970" d="M1967.3616,-492.4653C1949.9577,-473.1849 1909.5589,-428.0727 1877,-389 1860.3897,-369.0666 1841.9776,-345.6302 1829.7721,-329.8949"/>
<polygon fill="#191970" stroke="#191970" points="1832.2485,-327.3757 1823.3633,-321.6047 1826.7104,-331.657 1832.2485,-327.3757"/>
</g>
<!-- Node56&#45;&gt;Node41 -->
<g id="edge98" class="edge">
<title>Node56&#45;&gt;Node41</title>
<path fill="none" stroke="#191970" d="M2034.4926,-492.4581C2102.0083,-481.4443 2212.9089,-463.3531 2284.4245,-451.6867"/>
<polygon fill="#191970" stroke="#191970" points="2285.3744,-455.0781 2294.6804,-450.0137 2284.2473,-448.1694 2285.3744,-455.0781"/>
</g>
<!-- Node13 -->
<g id="node38" class="node">
<title>Node13</title>
<polygon fill="none" stroke="#bfbfbf" points="2074.5,-431 2074.5,-450 2127.5,-450 2127.5,-431 2074.5,-431"/>
<text text-anchor="middle" x="2101" y="-438" font-family="FreeSans.ttf" font-size="10.00" fill="#000000">iterator</text>
</g>
<!-- Node56&#45;&gt;Node13 -->
<g id="edge96" class="edge">
<title>Node56&#45;&gt;Node13</title>
<path fill="none" stroke="#191970" d="M1995.5313,-492.3906C2016.1708,-482.2359 2048.9276,-466.1196 2072.4602,-454.5416"/>
<polygon fill="#191970" stroke="#191970" points="2074.1782,-457.5971 2081.6059,-450.0419 2071.088,-451.3161 2074.1782,-457.5971"/>
</g>
<!-- Node57&#45;&gt;Node5 -->
<g id="edge104" class="edge">
<title>Node57&#45;&gt;Node5</title>
<path fill="none" stroke="#191970" d="M478.1619,-363.6291C447.3412,-331.5461 357.8532,-228.783 412,-168 432.028,-145.5173 607.418,-132.3748 718.2753,-126.2427"/>
<polygon fill="#191970" stroke="#191970" points="718.6672,-129.7267 728.4624,-125.6888 718.2871,-122.737 718.6672,-129.7267"/>
</g>
<!-- Node57&#45;&gt;Node6 -->
<g id="edge110" class="edge">
<title>Node57&#45;&gt;Node6</title>
<path fill="none" stroke="#191970" d="M463.2954,-363.9268C424.8328,-347.2156 355,-308.8415 355,-250.5 355,-250.5 355,-250.5 355,-183.5 355,-157.189 720.0858,-99.6524 876.3674,-76.2281"/>
<polygon fill="#191970" stroke="#191970" points="876.9808,-79.6754 886.3533,-74.7352 875.9457,-72.7523 876.9808,-79.6754"/>
</g>
<!-- Node57&#45;&gt;Node27 -->
<g id="edge105" class="edge">
<title>Node57&#45;&gt;Node27</title>
<path fill="none" stroke="#191970" d="M508.3125,-363.8906C529.8731,-353.6908 564.1478,-337.4763 588.6444,-325.8875"/>
<polygon fill="#191970" stroke="#191970" points="590.2874,-328.9822 597.8301,-321.5419 587.2939,-322.6545 590.2874,-328.9822"/>
</g>
<!-- Node57&#45;&gt;Node28 -->
<g id="edge103" class="edge">
<title>Node57&#45;&gt;Node28</title>
<path fill="none" stroke="#191970" d="M568.5864,-368.7254C757.9474,-357.506 1230.4423,-329.5114 1432.2375,-317.5553"/>
<polygon fill="#191970" stroke="#191970" points="1432.448,-321.0491 1442.2234,-316.9636 1432.0339,-314.0613 1432.448,-321.0491"/>
</g>
<!-- Node57&#45;&gt;Node32 -->
<g id="edge109" class="edge">
<title>Node57&#45;&gt;Node32</title>
<path fill="none" stroke="#191970" d="M568.7985,-370.6007C788.5951,-362.5907 1395.1124,-339.6361 1617.7205,-321.9419"/>
<polygon fill="#191970" stroke="#191970" points="1618.0262,-325.4286 1627.7097,-321.1298 1617.459,-318.4517 1618.0262,-325.4286"/>
</g>
<!-- Node57&#45;&gt;Node25 -->
<g id="edge106" class="edge">
<title>Node57&#45;&gt;Node25</title>
<path fill="none" stroke="#191970" d="M490.0596,-363.8005C493.9436,-348.0697 503.9269,-317.2236 525,-302 607.4472,-242.4388 651.2943,-286.0964 751,-266 873.8942,-241.2298 912.8369,-254.9998 1025,-199 1029.2152,-196.8955 1073.3316,-160.2238 1099.6016,-138.2593"/>
<polygon fill="#191970" stroke="#191970" points="1102.0081,-140.8094 1107.4305,-131.7073 1097.5154,-135.4413 1102.0081,-140.8094"/>
</g>
<!-- Node57&#45;&gt;Node34 -->
<g id="edge107" class="edge">
<title>Node57&#45;&gt;Node34</title>
<path fill="none" stroke="#191970" d="M485.5694,-363.9565C482.3705,-348.993 478.6951,-319.8773 493,-302 504.3521,-287.8129 541.0354,-275.8669 577.6241,-267.063"/>
<polygon fill="#191970" stroke="#191970" points="578.4697,-270.4598 587.4126,-264.7788 576.8788,-263.643 578.4697,-270.4598"/>
</g>
<!-- Node57&#45;&gt;Node38 -->
<g id="edge108" class="edge">
<title>Node57&#45;&gt;Node38</title>
<path fill="none" stroke="#191970" d="M478.0607,-363.5853C465.7218,-350.0212 447.1987,-324.7621 455,-302 458.5787,-291.5582 465.2336,-281.5999 472.1024,-273.2713"/>
<polygon fill="#191970" stroke="#191970" points="474.9431,-275.342 478.9365,-265.5285 469.695,-270.7098 474.9431,-275.342"/>
</g>
<!-- Node58 -->
<g id="node40" class="node">
<title>Node58</title>
<polygon fill="none" stroke="#bfbfbf" points="211.5,-302.5 211.5,-321.5 288.5,-321.5 288.5,-302.5 211.5,-302.5"/>
<text text-anchor="middle" x="250" y="-309.5" font-family="FreeSans.ttf" font-size="10.00" fill="#000000">Eigen/Dense</text>
</g>
<!-- Node57&#45;&gt;Node58 -->
<g id="edge102" class="edge">
<title>Node57&#45;&gt;Node58</title>
<path fill="none" stroke="#191970" d="M451.0736,-363.9581C409.5598,-353.2308 342.0635,-335.7895 296.8647,-324.11"/>
<polygon fill="#191970" stroke="#191970" points="297.5707,-320.6775 287.013,-321.5643 295.8193,-327.4549 297.5707,-320.6775"/>
</g>
<!-- Node59&#45;&gt;Node58 -->
<g id="edge112" class="edge">
<title>Node59&#45;&gt;Node58</title>
<path fill="none" stroke="#191970" d="M423.6734,-492.3167C394.4339,-461.9587 304.277,-368.3531 266.7056,-329.3446"/>
<polygon fill="#191970" stroke="#191970" points="268.9853,-326.6662 259.5273,-321.8917 263.9435,-331.5222 268.9853,-326.6662"/>
</g>
<!-- Node47&#45;&gt;Node38 -->
<g id="edge114" class="edge">
<title>Node47&#45;&gt;Node38</title>
<path fill="none" stroke="#191970" d="M223.1652,-492.2535C205.048,-460.6008 153.7885,-359.4246 202,-302 228.2602,-270.7216 333.8957,-258.4344 410.8129,-253.6112"/>
<polygon fill="#191970" stroke="#191970" points="411.2154,-257.0935 420.9898,-253.0056 410.7995,-250.1059 411.2154,-257.0935"/>
</g>
<!-- Node60&#45;&gt;Node5 -->
<g id="edge116" class="edge">
<title>Node60&#45;&gt;Node5</title>
<path fill="none" stroke="#191970" d="M132.838,-240.8759C180.6864,-223.4578 286.6368,-186.774 379,-168 494.7124,-144.48 630.5413,-132.4975 718.0973,-126.7533"/>
<polygon fill="#191970" stroke="#191970" points="718.511,-130.2341 728.266,-126.1001 718.0622,-123.2485 718.511,-130.2341"/>
</g>
<!-- Node61&#45;&gt;Node27 -->
<g id="edge124" class="edge">
<title>Node61&#45;&gt;Node27</title>
<path fill="none" stroke="#191970" d="M866.9745,-430.9651C791.3296,-419.7275 676.5897,-401.0608 660,-389 640.6318,-374.9193 629.2104,-349.0828 623.281,-331.2462"/>
<polygon fill="#191970" stroke="#191970" points="626.6007,-330.1326 620.3413,-321.5844 619.9038,-332.1702 626.6007,-330.1326"/>
</g>
<!-- Node61&#45;&gt;Node29 -->
<g id="edge125" class="edge">
<title>Node61&#45;&gt;Node29</title>
<path fill="none" stroke="#191970" d="M982.8987,-430.993C994.6936,-428.8633 1007.2762,-426.7263 1019,-425 1160.5926,-404.1504 1196.9932,-406.8113 1339,-389 1438.7231,-376.4922 1463.0804,-368.8262 1563,-358 1743.7804,-338.4125 1956.8022,-323.8066 2069.5986,-316.7371"/>
<polygon fill="#191970" stroke="#191970" points="2070.1027,-320.2126 2079.8655,-316.0972 2069.6671,-313.2262 2070.1027,-320.2126"/>
</g>
<!-- Node61&#45;&gt;Node31 -->
<g id="edge126" class="edge">
<title>Node61&#45;&gt;Node31</title>
<path fill="none" stroke="#191970" d="M945.0322,-430.9005C957.3828,-420.1539 977.6023,-402.5603 992.4057,-389.6794"/>
<polygon fill="#191970" stroke="#191970" points="994.7418,-392.2863 999.9882,-383.0817 990.1468,-387.0055 994.7418,-392.2863"/>
</g>
<!-- Node61&#45;&gt;Node53 -->
<g id="edge127" class="edge">
<title>Node61&#45;&gt;Node53</title>
<path fill="none" stroke="#191970" d="M979.6506,-430.9717C1037.4475,-418.9082 1136.9708,-398.1354 1199.2126,-385.1441"/>
<polygon fill="#191970" stroke="#191970" points="1200.1734,-388.5191 1209.2473,-383.0496 1198.7431,-381.6667 1200.1734,-388.5191"/>
</g>
<!-- Node64&#45;&gt;Node31 -->
<g id="edge133" class="edge">
<title>Node64&#45;&gt;Node31</title>
<path fill="none" stroke="#191970" d="M1424.881,-567.6143C1273.1275,-562.9807 922.0155,-542.8962 849,-456 818.114,-419.2424 881.1323,-397.0388 937.3633,-385.0715"/>
<polygon fill="#191970" stroke="#191970" points="938.2975,-388.4531 947.3966,-383.0256 936.8989,-381.5942 938.2975,-388.4531"/>
</g>
<!-- Node64&#45;&gt;Node40 -->
<g id="edge134" class="edge">
<title>Node64&#45;&gt;Node40</title>
<path fill="none" stroke="#191970" d="M1516.5698,-553.9814C1546.7216,-532.8064 1602.9472,-492.6585 1649,-456 1704.5779,-411.7594 1767.324,-355.999 1797.6481,-328.661"/>
<polygon fill="#191970" stroke="#191970" points="1800.2366,-331.0392 1805.3084,-321.7372 1795.5428,-325.8461 1800.2366,-331.0392"/>
</g>
<!-- Node64&#45;&gt;Node56 -->
<g id="edge132" class="edge">
<title>Node64&#45;&gt;Node56</title>
<path fill="none" stroke="#191970" d="M1564.9499,-553.9548C1575.9821,-551.8085 1587.282,-549.7419 1598,-548 1612.2429,-545.6852 1782.9233,-525.1264 1890.003,-512.2889"/>
<polygon fill="#191970" stroke="#191970" points="1890.6473,-515.7369 1900.1596,-511.0716 1889.8141,-508.7866 1890.6473,-515.7369"/>
</g>
<!-- Node65&#45;&gt;Node31 -->
<g id="edge136" class="edge">
<title>Node65&#45;&gt;Node31</title>
<path fill="none" stroke="#191970" d="M723.6404,-427.5817C789.2888,-415.2265 887.3395,-396.7732 950.2306,-384.9369"/>
<polygon fill="#191970" stroke="#191970" points="951.2154,-388.3131 960.3955,-383.0239 949.9207,-381.4339 951.2154,-388.3131"/>
</g>
<!-- Node65&#45;&gt;Node23 -->
<g id="edge137" class="edge">
<title>Node65&#45;&gt;Node23</title>
<path fill="none" stroke="#191970" d="M586.4133,-433.8515C469.9486,-420.8588 242.1896,-387.4696 202,-322 150.1068,-237.465 304.6908,-203.9732 411.1372,-191.1158"/>
<polygon fill="#191970" stroke="#191970" points="411.7516,-194.568 421.2797,-189.9349 410.942,-187.6149 411.7516,-194.568"/>
</g>
<!-- Node66&#45;&gt;Node4 -->
<g id="edge142" class="edge">
<title>Node66&#45;&gt;Node4</title>
<path fill="none" stroke="#191970" d="M2513.3678,-559.4949C2631.4574,-528.3338 2998.7083,-428.9819 3036,-389 3060.0423,-363.2233 3055,-347.2487 3055,-312 3055,-312 3055,-312 3055,-183.5 3055,-103.9851 2968.5594,-129.5261 2891,-112 2755.9183,-81.4756 1739.6073,-68.5621 1544.3806,-66.3507"/>
<polygon fill="#191970" stroke="#191970" points="1544.2385,-62.849 1534.1999,-66.2367 1544.1601,-69.8486 1544.2385,-62.849"/>
</g>
<!-- Node66&#45;&gt;Node40 -->
<g id="edge143" class="edge">
<title>Node66&#45;&gt;Node40</title>
<path fill="none" stroke="#191970" d="M2458.3561,-559.4249C2407.9114,-533.8913 2263.9847,-463.5063 2137,-425 2055.1693,-400.186 2028.0844,-418.9748 1948,-389 1906.3963,-373.4282 1862.747,-345.2865 1837.5254,-327.679"/>
<polygon fill="#191970" stroke="#191970" points="1839.2876,-324.6381 1829.1049,-321.7115 1835.2401,-330.3493 1839.2876,-324.6381"/>
</g>
<!-- Node66&#45;&gt;Node41 -->
<g id="edge139" class="edge">
<title>Node66&#45;&gt;Node41</title>
<path fill="none" stroke="#191970" d="M2467.6798,-559.3416C2446.7645,-537.6672 2395.8628,-484.9184 2369.474,-457.5719"/>
<polygon fill="#191970" stroke="#191970" points="2371.8909,-455.036 2362.4283,-450.2705 2366.8537,-459.8968 2371.8909,-455.036"/>
</g>
<!-- Node66&#45;&gt;Node56 -->
<g id="edge140" class="edge">
<title>Node66&#45;&gt;Node56</title>
<path fill="none" stroke="#191970" d="M2405.751,-559.4717C2313.7777,-547.1719 2154.1037,-525.8183 2057.4296,-512.8898"/>
<polygon fill="#191970" stroke="#191970" points="2057.7841,-509.4061 2047.4084,-511.5496 2056.8562,-516.3444 2057.7841,-509.4061"/>
</g>
<!-- Node67 -->
<g id="node50" class="node">
<title>Node67</title>
<polygon fill="none" stroke="#bfbfbf" points="2564,-492.5 2564,-511.5 2622,-511.5 2622,-492.5 2564,-492.5"/>
<text text-anchor="middle" x="2593" y="-499.5" font-family="FreeSans.ttf" font-size="10.00" fill="#000000">memory</text>
</g>
<!-- Node66&#45;&gt;Node67 -->
<g id="edge141" class="edge">
<title>Node66&#45;&gt;Node67</title>
<path fill="none" stroke="#191970" d="M2493.62,-559.4005C2513.0012,-548.2062 2545.2455,-529.5823 2567.7315,-516.5947"/>
<polygon fill="#191970" stroke="#191970" points="2569.502,-519.614 2576.4109,-511.5817 2566.0009,-513.5525 2569.502,-519.614"/>
</g>
</g>
</svg>
