<?xml version="1.0" encoding="UTF-8" standalone="no"?>
<!DOCTYPE svg PUBLIC "-//W3C//DTD SVG 1.1//EN"
 "http://www.w3.org/Graphics/SVG/1.1/DTD/svg11.dtd">
<!-- Generated by graphviz version 2.40.1 (20161225.0304)
 -->
<!-- Title: ExtWrenchesAndJointTorquesEstimator.h Pages: 1 -->
<svg width="2300pt" height="811pt"
 viewBox="0.00 0.00 2299.67 811.00" xmlns="http://www.w3.org/2000/svg" xmlns:xlink="http://www.w3.org/1999/xlink">
<g id="graph0" class="graph" transform="scale(1 1) rotate(0) translate(4 807)">
<title>ExtWrenchesAndJointTorquesEstimator.h</title>
<!-- Node0 -->
<g id="node1" class="node">
<title>Node0</title>
<polygon fill="#bfbfbf" stroke="#000000" points="1077,-772.5 1077,-802.5 1235,-802.5 1235,-772.5 1077,-772.5"/>
<text text-anchor="start" x="1085" y="-790.5" font-family="FreeSans.ttf" font-size="10.00" fill="#000000">ExtWrenchesAndJointTorques</text>
<text text-anchor="middle" x="1156" y="-779.5" font-family="FreeSans.ttf" font-size="10.00" fill="#000000">Estimator.h</text>
</g>
<!-- Node1 -->
<g id="node2" class="node">
<title>Node1</title>
<g id="a_node2"><a xlink:href="ExternalWrenchesEstimation_8h.html" target="_top" xlink:title="iDynTree/Estimation\l/ExternalWrenchesEstimation.h">
<polygon fill="none" stroke="#000000" points="1416.5,-593.5 1416.5,-623.5 1585.5,-623.5 1585.5,-593.5 1416.5,-593.5"/>
<text text-anchor="start" x="1424.5" y="-611.5" font-family="FreeSans.ttf" font-size="10.00" fill="#000000">iDynTree/Estimation</text>
<text text-anchor="middle" x="1501" y="-600.5" font-family="FreeSans.ttf" font-size="10.00" fill="#000000">/ExternalWrenchesEstimation.h</text>
</a>
</g>
</g>
<!-- Node0&#45;&gt;Node1 -->
<g id="edge1" class="edge">
<title>Node0&#45;&gt;Node1</title>
<path fill="none" stroke="#191970" d="M1185.1172,-772.3928C1247.3337,-740.1124 1393.219,-664.4211 1462.789,-628.3254"/>
<polygon fill="#191970" stroke="#191970" points="1464.818,-631.2158 1472.0825,-623.5036 1461.5942,-625.0023 1464.818,-631.2158"/>
</g>
<!-- Node40 -->
<g id="node38" class="node">
<title>Node40</title>
<g id="a_node38"><a xlink:href="Model_8h.html" target="_top" xlink:title="iDynTree/Model/Model.h">
<polygon fill="none" stroke="#000000" points="783.5,-660.5 783.5,-679.5 916.5,-679.5 916.5,-660.5 783.5,-660.5"/>
<text text-anchor="middle" x="850" y="-667.5" font-family="FreeSans.ttf" font-size="10.00" fill="#000000">iDynTree/Model/Model.h</text>
</a>
</g>
</g>
<!-- Node0&#45;&gt;Node40 -->
<g id="edge77" class="edge">
<title>Node0&#45;&gt;Node40</title>
<path fill="none" stroke="#191970" d="M1128.0396,-772.3914C1098.5386,-756.8554 1050.3992,-732.6442 1007,-716 971.4645,-702.3717 930.115,-690.4073 898.7739,-682.0988"/>
<polygon fill="#191970" stroke="#191970" points="899.5304,-678.6789 888.97,-679.5322 897.7576,-685.4507 899.5304,-678.6789"/>
</g>
<!-- Node49 -->
<g id="node44" class="node">
<title>Node49</title>
<g id="a_node44"><a xlink:href="SubModel_8h.html" target="_top" xlink:title="iDynTree/Model/SubModel.h">
<polygon fill="none" stroke="#000000" points="28.5,-532 28.5,-551 179.5,-551 179.5,-532 28.5,-532"/>
<text text-anchor="middle" x="104" y="-539" font-family="FreeSans.ttf" font-size="10.00" fill="#000000">iDynTree/Model/SubModel.h</text>
</a>
</g>
</g>
<!-- Node0&#45;&gt;Node49 -->
<g id="edge96" class="edge">
<title>Node0&#45;&gt;Node49</title>
<path fill="none" stroke="#191970" d="M1076.6315,-782.5219C859.7906,-768.3801 268.5455,-726.0039 194,-680 148.8132,-652.1141 121.9085,-592.1081 110.4794,-561.0371"/>
<polygon fill="#191970" stroke="#191970" points="113.6943,-559.6284 107.0776,-551.3537 107.0899,-561.9485 113.6943,-559.6284"/>
</g>
<!-- Node50 -->
<g id="node45" class="node">
<title>Node50</title>
<g id="a_node45"><a xlink:href="ContactWrench_8h.html" target="_top" xlink:title="iDynTree/Model/ContactWrench.h">
<polygon fill="none" stroke="#000000" points="1221.5,-599 1221.5,-618 1398.5,-618 1398.5,-599 1221.5,-599"/>
<text text-anchor="middle" x="1310" y="-606" font-family="FreeSans.ttf" font-size="10.00" fill="#000000">iDynTree/Model/ContactWrench.h</text>
</a>
</g>
</g>
<!-- Node0&#45;&gt;Node50 -->
<g id="edge101" class="edge">
<title>Node0&#45;&gt;Node50</title>
<path fill="none" stroke="#191970" d="M1169.13,-772.2386C1197.5612,-739.1919 1264.6842,-661.1723 1294.8519,-626.1072"/>
<polygon fill="#191970" stroke="#191970" points="1297.8107,-628.0347 1301.6794,-618.1714 1292.5043,-623.4694 1297.8107,-628.0347"/>
</g>
<!-- Node51 -->
<g id="node46" class="node">
<title>Node51</title>
<g id="a_node46"><a xlink:href="Traversal_8h.html" target="_top" xlink:title="iDynTree/Model/Traversal.h">
<polygon fill="none" stroke="#000000" points="722,-532 722,-551 870,-551 870,-532 722,-532"/>
<text text-anchor="middle" x="796" y="-539" font-family="FreeSans.ttf" font-size="10.00" fill="#000000">iDynTree/Model/Traversal.h</text>
</a>
</g>
</g>
<!-- Node0&#45;&gt;Node51 -->
<g id="edge107" class="edge">
<title>Node0&#45;&gt;Node51</title>
<path fill="none" stroke="#191970" d="M1141.0195,-772.2813C1105.5383,-736.9042 1012.4698,-647.9658 921,-593 894.0928,-576.831 861.182,-563.4999 835.885,-554.4548"/>
<polygon fill="#191970" stroke="#191970" points="836.8402,-551.081 826.2454,-551.0827 834.5288,-557.6884 836.8402,-551.081"/>
</g>
<!-- Node52 -->
<g id="node47" class="node">
<title>Node52</title>
<g id="a_node47"><a xlink:href="JointState_8h.html" target="_top" xlink:title="iDynTree/Model/JointState.h">
<polygon fill="none" stroke="#000000" points="2102.5,-532 2102.5,-551 2253.5,-551 2253.5,-532 2102.5,-532"/>
<text text-anchor="middle" x="2178" y="-539" font-family="FreeSans.ttf" font-size="10.00" fill="#000000">iDynTree/Model/JointState.h</text>
</a>
</g>
</g>
<!-- Node0&#45;&gt;Node52 -->
<g id="edge110" class="edge">
<title>Node0&#45;&gt;Node52</title>
<path fill="none" stroke="#191970" d="M1235.1438,-774.0823C1376.6153,-749.3871 1681.6918,-692.904 1934,-624 2009.9141,-603.2683 2096.7618,-572.0535 2143.6368,-554.5654"/>
<polygon fill="#191970" stroke="#191970" points="2144.8789,-557.8377 2153.0144,-551.0507 2142.4221,-551.283 2144.8789,-557.8377"/>
</g>
<!-- Node53 -->
<g id="node48" class="node">
<title>Node53</title>
<g id="a_node48"><a xlink:href="FreeFloatingState_8h.html" target="_top" xlink:title="iDynTree/Model/FreeFloating\lState.h">
<polygon fill="none" stroke="#000000" points="1604,-593.5 1604,-623.5 1758,-623.5 1758,-593.5 1604,-593.5"/>
<text text-anchor="start" x="1612" y="-611.5" font-family="FreeSans.ttf" font-size="10.00" fill="#000000">iDynTree/Model/FreeFloating</text>
<text text-anchor="middle" x="1681" y="-600.5" font-family="FreeSans.ttf" font-size="10.00" fill="#000000">State.h</text>
</a>
</g>
</g>
<!-- Node0&#45;&gt;Node53 -->
<g id="edge115" class="edge">
<title>Node0&#45;&gt;Node53</title>
<path fill="none" stroke="#191970" d="M1200.3087,-772.3928C1296.3413,-739.6503 1523.3674,-662.2452 1627.3271,-626.7999"/>
<polygon fill="#191970" stroke="#191970" points="1628.6596,-630.0435 1636.9951,-623.5036 1626.4006,-623.418 1628.6596,-630.0435"/>
</g>
<!-- Node54 -->
<g id="node49" class="node">
<title>Node54</title>
<g id="a_node49"><a xlink:href="LinkTraversalsCache_8h.html" target="_top" xlink:title="iDynTree/Model/LinkTraversals\lCache.h">
<polygon fill="none" stroke="#000000" points="888,-526.5 888,-556.5 1052,-556.5 1052,-526.5 888,-526.5"/>
<text text-anchor="start" x="896" y="-544.5" font-family="FreeSans.ttf" font-size="10.00" fill="#000000">iDynTree/Model/LinkTraversals</text>
<text text-anchor="middle" x="970" y="-533.5" font-family="FreeSans.ttf" font-size="10.00" fill="#000000">Cache.h</text>
</a>
</g>
</g>
<!-- Node0&#45;&gt;Node54 -->
<g id="edge123" class="edge">
<title>Node0&#45;&gt;Node54</title>
<path fill="none" stroke="#191970" d="M1151.7631,-772.4325C1141.1262,-736.9945 1110.1968,-647.2696 1056,-593 1043.5757,-580.559 1027.5634,-569.9166 1012.7302,-561.5908"/>
<polygon fill="#191970" stroke="#191970" points="1014.1518,-558.3809 1003.6894,-556.7108 1010.8268,-564.5408 1014.1518,-558.3809"/>
</g>
<!-- Node55 -->
<g id="node50" class="node">
<title>Node55</title>
<g id="a_node50"><a xlink:href="Sensors_8h.html" target="_top" xlink:title="iDynTree/Sensors/Sensors.h">
<polygon fill="none" stroke="#000000" points="846.5,-716.5 846.5,-735.5 997.5,-735.5 997.5,-716.5 846.5,-716.5"/>
<text text-anchor="middle" x="922" y="-723.5" font-family="FreeSans.ttf" font-size="10.00" fill="#000000">iDynTree/Sensors/Sensors.h</text>
</a>
</g>
</g>
<!-- Node0&#45;&gt;Node55 -->
<g id="edge126" class="edge">
<title>Node0&#45;&gt;Node55</title>
<path fill="none" stroke="#191970" d="M1098.7572,-772.4554C1058.6862,-761.9239 1005.8321,-748.0328 968.3901,-738.1923"/>
<polygon fill="#191970" stroke="#191970" points="968.8229,-734.6872 958.2617,-735.5303 967.0436,-741.4573 968.8229,-734.6872"/>
</g>
<!-- Node2 -->
<g id="node3" class="node">
<title>Node2</title>
<g id="a_node3"><a xlink:href="Direction_8h.html" target="_top" xlink:title="iDynTree/Core/Direction.h">
<polygon fill="none" stroke="#000000" points="1462.5,-174 1462.5,-193 1603.5,-193 1603.5,-174 1462.5,-174"/>
<text text-anchor="middle" x="1533" y="-181" font-family="FreeSans.ttf" font-size="10.00" fill="#000000">iDynTree/Core/Direction.h</text>
</a>
</g>
</g>
<!-- Node1&#45;&gt;Node2 -->
<g id="edge2" class="edge">
<title>Node1&#45;&gt;Node2</title>
<path fill="none" stroke="#191970" d="M1532.6421,-593.4839C1546.8158,-584.9409 1562.0935,-572.7673 1570,-557 1576.1759,-544.6839 1577.7459,-537.3942 1570,-526 1545.5476,-490.0301 1504.3896,-525.3146 1479,-490 1444.4464,-441.9391 1472,-416.1929 1472,-357 1472,-357 1472,-357 1472,-301 1472,-261.8384 1499.021,-222.7568 1517.0949,-200.996"/>
<polygon fill="#191970" stroke="#191970" points="1519.8613,-203.1472 1523.7354,-193.2861 1514.5574,-198.579 1519.8613,-203.1472"/>
</g>
<!-- Node4 -->
<g id="node5" class="node">
<title>Node4</title>
<g id="a_node5"><a xlink:href="VectorFixSize_8h.html" target="_top" xlink:title="iDynTree/Core/VectorFixSize.h">
<polygon fill="none" stroke="#000000" points="1660.5,-112.5 1660.5,-131.5 1821.5,-131.5 1821.5,-112.5 1660.5,-112.5"/>
<text text-anchor="middle" x="1741" y="-119.5" font-family="FreeSans.ttf" font-size="10.00" fill="#000000">iDynTree/Core/VectorFixSize.h</text>
</a>
</g>
</g>
<!-- Node1&#45;&gt;Node4 -->
<g id="edge44" class="edge">
<title>Node1&#45;&gt;Node4</title>
<path fill="none" stroke="#191970" d="M1585.5337,-594.4488C1588.7287,-593.9534 1591.8926,-593.4688 1595,-593 1711.6588,-575.401 1746.3127,-595.0127 1858,-557 1972.3431,-518.0834 2042,-477.7843 2042,-357 2042,-357 2042,-357 2042,-245 2042,-201.3403 2018.3324,-190.6376 1981,-168 1956.1035,-152.9033 1888.9103,-140.7714 1831.9338,-132.765"/>
<polygon fill="#191970" stroke="#191970" points="1832.1769,-129.2656 1821.7928,-131.3678 1831.2214,-136.2 1832.1769,-129.2656"/>
</g>
<!-- Node19 -->
<g id="node18" class="node">
<title>Node19</title>
<g id="a_node18"><a xlink:href="Position_8h.html" target="_top" xlink:title="iDynTree/Core/Position.h">
<polygon fill="none" stroke="#000000" points="1164,-291.5 1164,-310.5 1300,-310.5 1300,-291.5 1164,-291.5"/>
<text text-anchor="middle" x="1232" y="-298.5" font-family="FreeSans.ttf" font-size="10.00" fill="#000000">iDynTree/Core/Position.h</text>
</a>
</g>
</g>
<!-- Node1&#45;&gt;Node19 -->
<g id="edge21" class="edge">
<title>Node1&#45;&gt;Node19</title>
<path fill="none" stroke="#191970" d="M1463.8948,-593.4264C1444.5691,-584.5239 1421.2336,-572.0473 1403,-557 1319.5928,-488.1679 1300.6996,-463.0446 1251,-367 1243.4652,-352.4389 1238.5432,-334.4795 1235.6009,-320.973"/>
<polygon fill="#191970" stroke="#191970" points="1238.9698,-319.9694 1233.5812,-310.8472 1232.105,-321.3387 1238.9698,-319.9694"/>
</g>
<!-- Node26 -->
<g id="node24" class="node">
<title>Node26</title>
<g id="a_node24"><a xlink:href="MatrixDynSize_8h.html" target="_top" xlink:title="iDynTree/Core/MatrixDynSize.h">
<polygon fill="none" stroke="#000000" points="649.5,-291.5 649.5,-310.5 816.5,-310.5 816.5,-291.5 649.5,-291.5"/>
<text text-anchor="middle" x="733" y="-298.5" font-family="FreeSans.ttf" font-size="10.00" fill="#000000">iDynTree/Core/MatrixDynSize.h</text>
</a>
</g>
</g>
<!-- Node1&#45;&gt;Node26 -->
<g id="edge39" class="edge">
<title>Node1&#45;&gt;Node26</title>
<path fill="none" stroke="#191970" d="M1459.2054,-593.4067C1431.5398,-583.3196 1394.5027,-569.6317 1362,-557 1131.9178,-467.5815 857.4531,-353.1905 765.1021,-314.4858"/>
<polygon fill="#191970" stroke="#191970" points="766.3189,-311.2008 755.7434,-310.5613 763.6118,-317.6562 766.3189,-311.2008"/>
</g>
<!-- Node27 -->
<g id="node25" class="node">
<title>Node27</title>
<g id="a_node25"><a xlink:href="VectorDynSize_8h.html" target="_top" xlink:title="iDynTree/Core/VectorDynSize.h">
<polygon fill="none" stroke="#000000" points="2021.5,-470.5 2021.5,-489.5 2188.5,-489.5 2188.5,-470.5 2021.5,-470.5"/>
<text text-anchor="middle" x="2105" y="-477.5" font-family="FreeSans.ttf" font-size="10.00" fill="#000000">iDynTree/Core/VectorDynSize.h</text>
</a>
</g>
</g>
<!-- Node1&#45;&gt;Node27 -->
<g id="edge41" class="edge">
<title>Node1&#45;&gt;Node27</title>
<path fill="none" stroke="#191970" d="M1585.5132,-594.3044C1588.7139,-593.8494 1591.8846,-593.4126 1595,-593 1753.9675,-571.9447 1805.815,-618.2796 1954,-557 1974.1416,-548.6707 1973.2546,-537.1208 1992,-526 2015.0094,-512.3496 2042.8217,-500.9711 2065.0963,-492.9457"/>
<polygon fill="#191970" stroke="#191970" points="2066.3159,-496.227 2074.5876,-489.6066 2063.9928,-489.6237 2066.3159,-496.227"/>
</g>
<!-- Node28 -->
<g id="node26" class="node">
<title>Node28</title>
<g id="a_node26"><a xlink:href="Indices_8h.html" target="_top" xlink:title="iDynTree/Model/Indices.h">
<polygon fill="none" stroke="#000000" points="386,-470.5 386,-489.5 524,-489.5 524,-470.5 386,-470.5"/>
<text text-anchor="middle" x="455" y="-477.5" font-family="FreeSans.ttf" font-size="10.00" fill="#000000">iDynTree/Model/Indices.h</text>
</a>
</g>
</g>
<!-- Node1&#45;&gt;Node28 -->
<g id="edge45" class="edge">
<title>Node1&#45;&gt;Node28</title>
<path fill="none" stroke="#191970" d="M1416.4138,-593.9393C1413.5787,-593.5992 1410.7681,-593.2843 1408,-593 1307.3393,-582.6618 584.2397,-609.9355 498,-557 477.2744,-544.2782 465.7143,-517.7031 459.9245,-499.3613"/>
<polygon fill="#191970" stroke="#191970" points="463.2709,-498.333 457.1567,-489.6804 456.5405,-500.2573 463.2709,-498.333"/>
</g>
<!-- Node30 -->
<g id="node28" class="node">
<title>Node30</title>
<g id="a_node28"><a xlink:href="LinkState_8h.html" target="_top" xlink:title="iDynTree/Model/LinkState.h">
<polygon fill="none" stroke="#000000" points="1411.5,-532 1411.5,-551 1560.5,-551 1560.5,-532 1411.5,-532"/>
<text text-anchor="middle" x="1486" y="-539" font-family="FreeSans.ttf" font-size="10.00" fill="#000000">iDynTree/Model/LinkState.h</text>
</a>
</g>
</g>
<!-- Node1&#45;&gt;Node30 -->
<g id="edge48" class="edge">
<title>Node1&#45;&gt;Node30</title>
<path fill="none" stroke="#191970" d="M1497.5963,-593.2967C1495.4634,-583.7699 1492.693,-571.3954 1490.3949,-561.1306"/>
<polygon fill="#191970" stroke="#191970" points="1493.7394,-560.0487 1488.1392,-551.055 1486.9085,-561.5781 1493.7394,-560.0487"/>
</g>
<!-- Node39 -->
<g id="node37" class="node">
<title>Node39</title>
<polygon fill="none" stroke="#bfbfbf" points="1080.5,-470.5 1080.5,-489.5 1127.5,-489.5 1127.5,-470.5 1080.5,-470.5"/>
<text text-anchor="middle" x="1104" y="-477.5" font-family="FreeSans.ttf" font-size="10.00" fill="#000000">vector</text>
</g>
<!-- Node1&#45;&gt;Node39 -->
<g id="edge76" class="edge">
<title>Node1&#45;&gt;Node39</title>
<path fill="none" stroke="#191970" d="M1429.8809,-593.4202C1389.6162,-584.2337 1338.5499,-571.4889 1294,-557 1236.2091,-538.2047 1170.9876,-510.2284 1133.955,-493.6787"/>
<polygon fill="#191970" stroke="#191970" points="1135.2836,-490.4386 1124.7278,-489.5304 1132.4133,-496.8231 1135.2836,-490.4386"/>
</g>
<!-- Node3 -->
<g id="node4" class="node">
<title>Node3</title>
<polygon fill="none" stroke="#bfbfbf" points="894,-56.5 894,-75.5 938,-75.5 938,-56.5 894,-56.5"/>
<text text-anchor="middle" x="916" y="-63.5" font-family="FreeSans.ttf" font-size="10.00" fill="#000000">string</text>
</g>
<!-- Node2&#45;&gt;Node3 -->
<g id="edge3" class="edge">
<title>Node2&#45;&gt;Node3</title>
<path fill="none" stroke="#191970" d="M1506.0153,-173.9614C1478.2334,-163.9999 1433.7893,-147.6706 1396,-132 1376.1575,-123.7717 1372.7262,-117.6441 1352,-112 1275.6841,-91.2178 1035.919,-73.8613 948.3934,-68.0655"/>
<polygon fill="#191970" stroke="#191970" points="948.4665,-64.5629 938.259,-67.4013 948.0086,-71.5479 948.4665,-64.5629"/>
</g>
<!-- Node2&#45;&gt;Node4 -->
<g id="edge4" class="edge">
<title>Node2&#45;&gt;Node4</title>
<path fill="none" stroke="#191970" d="M1565.5,-173.8906C1601.447,-163.2621 1659.4827,-146.1025 1698.888,-134.4514"/>
<polygon fill="#191970" stroke="#191970" points="1700.131,-137.7337 1708.7282,-131.5419 1698.1462,-131.021 1700.131,-137.7337"/>
</g>
<!-- Node5 -->
<g id="node6" class="node">
<title>Node5</title>
<g id="a_node6"><a xlink:href="Utils_8h.html" target="_top" xlink:title="iDynTree/Core/Utils.h">
<polygon fill="none" stroke="#000000" points="1537.5,-56.5 1537.5,-75.5 1656.5,-75.5 1656.5,-56.5 1537.5,-56.5"/>
<text text-anchor="middle" x="1597" y="-63.5" font-family="FreeSans.ttf" font-size="10.00" fill="#000000">iDynTree/Core/Utils.h</text>
</a>
</g>
</g>
<!-- Node2&#45;&gt;Node5 -->
<g id="edge20" class="edge">
<title>Node2&#45;&gt;Node5</title>
<path fill="none" stroke="#191970" d="M1542.8895,-173.6587C1552.2742,-163.8456 1566.2135,-147.9716 1575,-132 1583.085,-117.3036 1588.8723,-99.1294 1592.4756,-85.5756"/>
<polygon fill="#191970" stroke="#191970" points="1595.877,-86.4007 1594.8993,-75.851 1589.0848,-84.7078 1595.877,-86.4007"/>
</g>
<!-- Node4&#45;&gt;Node3 -->
<g id="edge16" class="edge">
<title>Node4&#45;&gt;Node3</title>
<path fill="none" stroke="#191970" d="M1660.3934,-116.5285C1483.4635,-104.5187 1067.3907,-76.2762 948.3416,-68.1953"/>
<polygon fill="#191970" stroke="#191970" points="948.2908,-64.6839 938.0767,-67.4985 947.8167,-71.6678 948.2908,-64.6839"/>
</g>
<!-- Node4&#45;&gt;Node5 -->
<g id="edge5" class="edge">
<title>Node4&#45;&gt;Node5</title>
<path fill="none" stroke="#191970" d="M1716.2455,-112.3733C1692.7151,-103.2226 1657.1313,-89.3844 1630.9574,-79.2057"/>
<polygon fill="#191970" stroke="#191970" points="1632.0201,-75.8636 1621.4315,-75.5011 1629.4829,-82.3877 1632.0201,-75.8636"/>
</g>
<!-- Node8 -->
<g id="node9" class="node">
<title>Node8</title>
<g id="a_node9"><a xlink:href="Span_8h.html" target="_top" xlink:title="iDynTree/Core/Span.h">
<polygon fill="none" stroke="#ff0000" points="1787.5,-56.5 1787.5,-75.5 1908.5,-75.5 1908.5,-56.5 1787.5,-56.5"/>
<text text-anchor="middle" x="1848" y="-63.5" font-family="FreeSans.ttf" font-size="10.00" fill="#000000">iDynTree/Core/Span.h</text>
</a>
</g>
</g>
<!-- Node4&#45;&gt;Node8 -->
<g id="edge8" class="edge">
<title>Node4&#45;&gt;Node8</title>
<path fill="none" stroke="#191970" d="M1759.638,-112.2455C1776.4386,-103.4527 1801.3634,-90.4079 1820.4618,-80.4125"/>
<polygon fill="#191970" stroke="#191970" points="1822.3386,-83.3807 1829.5756,-75.6427 1819.0927,-77.1787 1822.3386,-83.3807"/>
</g>
<!-- Node9 -->
<g id="node10" class="node">
<title>Node9</title>
<polygon fill="none" stroke="#bfbfbf" points="1659,-.5 1659,-19.5 1711,-19.5 1711,-.5 1659,-.5"/>
<text text-anchor="middle" x="1685" y="-7.5" font-family="FreeSans.ttf" font-size="10.00" fill="#000000">cassert</text>
</g>
<!-- Node4&#45;&gt;Node9 -->
<g id="edge18" class="edge">
<title>Node4&#45;&gt;Node9</title>
<path fill="none" stroke="#191970" d="M1731.196,-112.2386C1722.8759,-103.4506 1711.1778,-89.8263 1704,-76 1696.4459,-61.4489 1691.5253,-43.4888 1688.5885,-29.9794"/>
<polygon fill="#191970" stroke="#191970" points="1691.9576,-28.976 1686.574,-19.851 1685.0921,-30.3416 1691.9576,-28.976"/>
</g>
<!-- Node17 -->
<g id="node16" class="node">
<title>Node17</title>
<polygon fill="none" stroke="#bfbfbf" points="1713,-56.5 1713,-75.5 1769,-75.5 1769,-56.5 1713,-56.5"/>
<text text-anchor="middle" x="1741" y="-63.5" font-family="FreeSans.ttf" font-size="10.00" fill="#000000">sstream</text>
</g>
<!-- Node4&#45;&gt;Node17 -->
<g id="edge17" class="edge">
<title>Node4&#45;&gt;Node17</title>
<path fill="none" stroke="#191970" d="M1741,-112.2455C1741,-104.9382 1741,-94.6944 1741,-85.7046"/>
<polygon fill="#191970" stroke="#191970" points="1744.5001,-85.6426 1741,-75.6427 1737.5001,-85.6427 1744.5001,-85.6426"/>
</g>
<!-- Node18 -->
<g id="node17" class="node">
<title>Node18</title>
<polygon fill="none" stroke="#bfbfbf" points="1469,-56.5 1469,-75.5 1519,-75.5 1519,-56.5 1469,-56.5"/>
<text text-anchor="middle" x="1494" y="-63.5" font-family="FreeSans.ttf" font-size="10.00" fill="#000000">cstring</text>
</g>
<!-- Node4&#45;&gt;Node18 -->
<g id="edge19" class="edge">
<title>Node4&#45;&gt;Node18</title>
<path fill="none" stroke="#191970" d="M1692.8015,-112.467C1649.6975,-103.7221 1584.8883,-90.0318 1529,-76 1528.9004,-75.975 1528.8007,-75.9499 1528.7008,-75.9247"/>
<polygon fill="#191970" stroke="#191970" points="1529.7453,-72.5807 1519.1826,-73.4054 1527.9541,-79.3477 1529.7453,-72.5807"/>
</g>
<!-- Node6 -->
<g id="node7" class="node">
<title>Node6</title>
<polygon fill="none" stroke="#bfbfbf" points="1578.5,-.5 1578.5,-19.5 1631.5,-19.5 1631.5,-.5 1578.5,-.5"/>
<text text-anchor="middle" x="1605" y="-7.5" font-family="FreeSans.ttf" font-size="10.00" fill="#000000">cstddef</text>
</g>
<!-- Node5&#45;&gt;Node6 -->
<g id="edge6" class="edge">
<title>Node5&#45;&gt;Node6</title>
<path fill="none" stroke="#191970" d="M1598.3935,-56.2455C1599.4374,-48.9382 1600.9008,-38.6944 1602.1851,-29.7046"/>
<polygon fill="#191970" stroke="#191970" points="1605.673,-30.0372 1603.6225,-19.6427 1598.7434,-29.0472 1605.673,-30.0372"/>
</g>
<!-- Node7 -->
<g id="node8" class="node">
<title>Node7</title>
<polygon fill="none" stroke="#bfbfbf" points="1480,-.5 1480,-19.5 1560,-19.5 1560,-.5 1480,-.5"/>
<text text-anchor="middle" x="1520" y="-7.5" font-family="FreeSans.ttf" font-size="10.00" fill="#000000">CoreExport.h</text>
</g>
<!-- Node5&#45;&gt;Node7 -->
<g id="edge7" class="edge">
<title>Node5&#45;&gt;Node7</title>
<path fill="none" stroke="#191970" d="M1583.5876,-56.2455C1571.9943,-47.814 1555.0252,-35.4729 1541.5322,-25.6598"/>
<polygon fill="#191970" stroke="#191970" points="1543.4047,-22.6938 1533.2587,-19.6427 1539.2874,-28.355 1543.4047,-22.6938"/>
</g>
<!-- Node8&#45;&gt;Node6 -->
<g id="edge12" class="edge">
<title>Node8&#45;&gt;Node6</title>
<path fill="none" stroke="#191970" d="M1806.5029,-56.4369C1760.0981,-45.7428 1685.6651,-28.5895 1641.4298,-18.3953"/>
<polygon fill="#191970" stroke="#191970" points="1642.2005,-14.9813 1631.6699,-16.1461 1640.6285,-21.8025 1642.2005,-14.9813"/>
</g>
<!-- Node8&#45;&gt;Node9 -->
<g id="edge9" class="edge">
<title>Node8&#45;&gt;Node9</title>
<path fill="none" stroke="#191970" d="M1819.9793,-56.3733C1792.5015,-46.933 1750.503,-32.5041 1720.6586,-22.2508"/>
<polygon fill="#191970" stroke="#191970" points="1721.6366,-18.8861 1711.0419,-18.9469 1719.3621,-25.5063 1721.6366,-18.8861"/>
</g>
<!-- Node10 -->
<g id="node11" class="node">
<title>Node10</title>
<polygon fill="none" stroke="#bfbfbf" points="1737,-.5 1737,-19.5 1801,-19.5 1801,-.5 1737,-.5"/>
<text text-anchor="middle" x="1769" y="-7.5" font-family="FreeSans.ttf" font-size="10.00" fill="#000000">algorithm</text>
</g>
<!-- Node8&#45;&gt;Node10 -->
<g id="edge10" class="edge">
<title>Node8&#45;&gt;Node10</title>
<path fill="none" stroke="#191970" d="M1834.2393,-56.2455C1822.3448,-47.814 1804.935,-35.4729 1791.0915,-25.6598"/>
<polygon fill="#191970" stroke="#191970" points="1792.7854,-22.5704 1782.6031,-19.6427 1788.7372,-28.2811 1792.7854,-22.5704"/>
</g>
<!-- Node11 -->
<g id="node12" class="node">
<title>Node11</title>
<polygon fill="none" stroke="#bfbfbf" points="1819,-.5 1819,-19.5 1861,-19.5 1861,-.5 1819,-.5"/>
<text text-anchor="middle" x="1840" y="-7.5" font-family="FreeSans.ttf" font-size="10.00" fill="#000000">array</text>
</g>
<!-- Node8&#45;&gt;Node11 -->
<g id="edge11" class="edge">
<title>Node8&#45;&gt;Node11</title>
<path fill="none" stroke="#191970" d="M1846.6065,-56.2455C1845.5626,-48.9382 1844.0992,-38.6944 1842.8149,-29.7046"/>
<polygon fill="#191970" stroke="#191970" points="1846.2566,-29.0472 1841.3775,-19.6427 1839.327,-30.0372 1846.2566,-29.0472"/>
</g>
<!-- Node12 -->
<g id="node13" class="node">
<title>Node12</title>
<polygon fill="none" stroke="#bfbfbf" points="695.5,-.5 695.5,-19.5 748.5,-19.5 748.5,-.5 695.5,-.5"/>
<text text-anchor="middle" x="722" y="-7.5" font-family="FreeSans.ttf" font-size="10.00" fill="#000000">iterator</text>
</g>
<!-- Node8&#45;&gt;Node12 -->
<g id="edge13" class="edge">
<title>Node8&#45;&gt;Node12</title>
<path fill="none" stroke="#191970" d="M1787.3368,-56.9615C1784.1824,-56.6081 1781.0559,-56.2841 1778,-56 1379.946,-18.9883 894.6458,-11.6574 758.8447,-10.2944"/>
<polygon fill="#191970" stroke="#191970" points="758.6224,-6.7922 748.5893,-10.1963 758.5554,-13.7918 758.6224,-6.7922"/>
</g>
<!-- Node13 -->
<g id="node14" class="node">
<title>Node13</title>
<polygon fill="none" stroke="#bfbfbf" points="1879,-.5 1879,-19.5 1923,-19.5 1923,-.5 1879,-.5"/>
<text text-anchor="middle" x="1901" y="-7.5" font-family="FreeSans.ttf" font-size="10.00" fill="#000000">limits</text>
</g>
<!-- Node8&#45;&gt;Node13 -->
<g id="edge14" class="edge">
<title>Node8&#45;&gt;Node13</title>
<path fill="none" stroke="#191970" d="M1857.2319,-56.2455C1864.8317,-48.2155 1875.7877,-36.6394 1884.8368,-27.0781"/>
<polygon fill="#191970" stroke="#191970" points="1887.5421,-29.3115 1891.8739,-19.6427 1882.458,-24.4998 1887.5421,-29.3115"/>
</g>
<!-- Node14 -->
<g id="node15" class="node">
<title>Node14</title>
<polygon fill="none" stroke="#bfbfbf" points="1941.5,-.5 1941.5,-19.5 2006.5,-19.5 2006.5,-.5 1941.5,-.5"/>
<text text-anchor="middle" x="1974" y="-7.5" font-family="FreeSans.ttf" font-size="10.00" fill="#000000">stdexcept</text>
</g>
<!-- Node8&#45;&gt;Node14 -->
<g id="edge15" class="edge">
<title>Node8&#45;&gt;Node14</title>
<path fill="none" stroke="#191970" d="M1869.6602,-56.3733C1889.9772,-47.3435 1920.564,-33.7494 1943.375,-23.6111"/>
<polygon fill="#191970" stroke="#191970" points="1944.9059,-26.7609 1952.6225,-19.5011 1942.0628,-20.3642 1944.9059,-26.7609"/>
</g>
<!-- Node19&#45;&gt;Node3 -->
<g id="edge38" class="edge">
<title>Node19&#45;&gt;Node3</title>
<path fill="none" stroke="#191970" d="M1163.9762,-293.7669C1060.1323,-281.1653 869.7856,-251.3946 829,-199 797.595,-158.6561 857.233,-107.0353 892.5706,-81.599"/>
<polygon fill="#191970" stroke="#191970" points="894.7804,-84.3244 900.961,-75.7191 890.7631,-78.5919 894.7804,-84.3244"/>
</g>
<!-- Node20 -->
<g id="node19" class="node">
<title>Node20</title>
<g id="a_node19"><a xlink:href="PositionRaw_8h.html" target="_top" xlink:title="iDynTree/Core/PositionRaw.h">
<polygon fill="none" stroke="#000000" points="838,-174 838,-193 994,-193 994,-174 838,-174"/>
<text text-anchor="middle" x="916" y="-181" font-family="FreeSans.ttf" font-size="10.00" fill="#000000">iDynTree/Core/PositionRaw.h</text>
</a>
</g>
</g>
<!-- Node19&#45;&gt;Node20 -->
<g id="edge22" class="edge">
<title>Node19&#45;&gt;Node20</title>
<path fill="none" stroke="#191970" d="M1206.4081,-291.484C1150.2018,-270.5845 1015.8727,-220.6362 951.5333,-196.7125"/>
<polygon fill="#191970" stroke="#191970" points="952.4237,-193.3095 941.8308,-193.1048 949.984,-199.8706 952.4237,-193.3095"/>
</g>
<!-- Node21 -->
<g id="node20" class="node">
<title>Node21</title>
<g id="a_node20"><a xlink:href="Rotation_8h.html" target="_top" xlink:title="iDynTree/Core/Rotation.h">
<polygon fill="none" stroke="#000000" points="1268.5,-235.5 1268.5,-254.5 1405.5,-254.5 1405.5,-235.5 1268.5,-235.5"/>
<text text-anchor="middle" x="1337" y="-242.5" font-family="FreeSans.ttf" font-size="10.00" fill="#000000">iDynTree/Core/Rotation.h</text>
</a>
</g>
</g>
<!-- Node19&#45;&gt;Node21 -->
<g id="edge25" class="edge">
<title>Node19&#45;&gt;Node21</title>
<path fill="none" stroke="#191970" d="M1250.2896,-291.2455C1266.7762,-282.4527 1291.2352,-269.4079 1309.9765,-259.4125"/>
<polygon fill="#191970" stroke="#191970" points="1311.7435,-262.4368 1318.92,-254.6427 1308.4494,-256.2604 1311.7435,-262.4368"/>
</g>
<!-- Node20&#45;&gt;Node3 -->
<g id="edge24" class="edge">
<title>Node20&#45;&gt;Node3</title>
<path fill="none" stroke="#191970" d="M916,-173.8845C916,-154.6913 916,-111.286 916,-85.7663"/>
<polygon fill="#191970" stroke="#191970" points="919.5001,-85.7483 916,-75.7484 912.5001,-85.7484 919.5001,-85.7483"/>
</g>
<!-- Node20&#45;&gt;Node4 -->
<g id="edge23" class="edge">
<title>Node20&#45;&gt;Node4</title>
<path fill="none" stroke="#191970" d="M987.5541,-173.9834C1005.3224,-171.8173 1024.3363,-169.6663 1042,-168 1100.9784,-162.4362 1475.0955,-138.6948 1650.4798,-127.6689"/>
<polygon fill="#191970" stroke="#191970" points="1650.7046,-131.1618 1660.4654,-127.0414 1650.2655,-124.1756 1650.7046,-131.1618"/>
</g>
<!-- Node21&#45;&gt;Node3 -->
<g id="edge26" class="edge">
<title>Node21&#45;&gt;Node3</title>
<path fill="none" stroke="#191970" d="M1268.3854,-239.4517C1193.8411,-232.5268 1080.2619,-219.0926 1042,-199 1014.8573,-184.7464 957.1455,-116.5429 930.294,-83.7227"/>
<polygon fill="#191970" stroke="#191970" points="932.904,-81.3847 923.8786,-75.8355 927.4735,-85.8018 932.904,-81.3847"/>
</g>
<!-- Node21&#45;&gt;Node4 -->
<g id="edge37" class="edge">
<title>Node21&#45;&gt;Node4</title>
<path fill="none" stroke="#191970" d="M1405.7533,-240.7365C1462.7347,-235.521 1545.0913,-224.0474 1613,-199 1653.9559,-183.8939 1696.3927,-155.3625 1720.6558,-137.592"/>
<polygon fill="#191970" stroke="#191970" points="1722.8048,-140.3556 1728.7361,-131.5766 1718.6247,-134.7406 1722.8048,-140.3556"/>
</g>
<!-- Node22 -->
<g id="node21" class="node">
<title>Node22</title>
<g id="a_node21"><a xlink:href="GeomVector3_8h.html" target="_top" xlink:title="iDynTree/Core/GeomVector3.h">
<polygon fill="none" stroke="#000000" points="1774.5,-174 1774.5,-193 1937.5,-193 1937.5,-174 1774.5,-174"/>
<text text-anchor="middle" x="1856" y="-181" font-family="FreeSans.ttf" font-size="10.00" fill="#000000">iDynTree/Core/GeomVector3.h</text>
</a>
</g>
</g>
<!-- Node21&#45;&gt;Node22 -->
<g id="edge27" class="edge">
<title>Node21&#45;&gt;Node22</title>
<path fill="none" stroke="#191970" d="M1405.6513,-236.865C1498.1683,-225.902 1663.061,-206.3627 1765.5874,-194.2136"/>
<polygon fill="#191970" stroke="#191970" points="1766.0986,-197.6776 1775.6173,-193.0251 1765.2749,-190.7263 1766.0986,-197.6776"/>
</g>
<!-- Node23 -->
<g id="node22" class="node">
<title>Node23</title>
<g id="a_node22"><a xlink:href="RotationRaw_8h.html" target="_top" xlink:title="iDynTree/Core/RotationRaw.h">
<polygon fill="none" stroke="#000000" points="1210,-174 1210,-193 1368,-193 1368,-174 1210,-174"/>
<text text-anchor="middle" x="1289" y="-181" font-family="FreeSans.ttf" font-size="10.00" fill="#000000">iDynTree/Core/RotationRaw.h</text>
</a>
</g>
</g>
<!-- Node21&#45;&gt;Node23 -->
<g id="edge29" class="edge">
<title>Node21&#45;&gt;Node23</title>
<path fill="none" stroke="#191970" d="M1329.5,-235.3906C1322.4262,-226.3273 1311.6458,-212.5149 1302.9854,-201.4188"/>
<polygon fill="#191970" stroke="#191970" points="1305.5176,-198.9746 1296.6057,-193.2449 1299.9994,-203.2815 1305.5176,-198.9746"/>
</g>
<!-- Node22&#45;&gt;Node4 -->
<g id="edge28" class="edge">
<title>Node22&#45;&gt;Node4</title>
<path fill="none" stroke="#191970" d="M1838.0313,-173.8906C1819.2116,-163.8262 1789.4415,-147.9057 1767.8359,-136.3514"/>
<polygon fill="#191970" stroke="#191970" points="1769.3114,-133.1714 1758.8426,-131.5419 1766.0102,-139.3442 1769.3114,-133.1714"/>
</g>
<!-- Node23&#45;&gt;Node3 -->
<g id="edge36" class="edge">
<title>Node23&#45;&gt;Node3</title>
<path fill="none" stroke="#191970" d="M1259.0325,-173.9863C1215.7632,-160.2571 1133.2674,-134.1095 1063,-112 1023.5249,-99.5793 978.0577,-85.3656 948.2683,-76.0657"/>
<polygon fill="#191970" stroke="#191970" points="949.0094,-72.6305 938.4208,-72.992 946.9238,-79.3126 949.0094,-72.6305"/>
</g>
<!-- Node24 -->
<g id="node23" class="node">
<title>Node24</title>
<g id="a_node23"><a xlink:href="MatrixFixSize_8h.html" target="_top" xlink:title="iDynTree/Core/MatrixFixSize.h">
<polygon fill="none" stroke="#ff0000" points="1404.5,-112.5 1404.5,-131.5 1565.5,-131.5 1565.5,-112.5 1404.5,-112.5"/>
<text text-anchor="middle" x="1485" y="-119.5" font-family="FreeSans.ttf" font-size="10.00" fill="#000000">iDynTree/Core/MatrixFixSize.h</text>
</a>
</g>
</g>
<!-- Node23&#45;&gt;Node24 -->
<g id="edge30" class="edge">
<title>Node23&#45;&gt;Node24</title>
<path fill="none" stroke="#191970" d="M1319.625,-173.8906C1353.2824,-163.3298 1407.4899,-146.3208 1444.6059,-134.6747"/>
<polygon fill="#191970" stroke="#191970" points="1446.0966,-137.8753 1454.5901,-131.5419 1444.0009,-131.1963 1446.0966,-137.8753"/>
</g>
<!-- Node24&#45;&gt;Node3 -->
<g id="edge34" class="edge">
<title>Node24&#45;&gt;Node3</title>
<path fill="none" stroke="#191970" d="M1404.4113,-113.4712C1399.5354,-112.9694 1394.7025,-112.4757 1390,-112 1223.8386,-95.1923 1024.7805,-76.2689 948.195,-69.0333"/>
<polygon fill="#191970" stroke="#191970" points="948.5021,-65.5468 938.2174,-68.0914 947.8441,-72.5159 948.5021,-65.5468"/>
</g>
<!-- Node24&#45;&gt;Node5 -->
<g id="edge31" class="edge">
<title>Node24&#45;&gt;Node5</title>
<path fill="none" stroke="#191970" d="M1504.2535,-112.3733C1522.0712,-103.4644 1548.7747,-90.1127 1568.9594,-80.0203"/>
<polygon fill="#191970" stroke="#191970" points="1570.6187,-83.1038 1577.9978,-75.5011 1567.4882,-76.8428 1570.6187,-83.1038"/>
</g>
<!-- Node24&#45;&gt;Node9 -->
<g id="edge32" class="edge">
<title>Node24&#45;&gt;Node9</title>
<path fill="none" stroke="#191970" d="M1475.5982,-112.0478C1463.655,-98.1819 1446.1637,-72.8592 1460,-56 1512.0336,7.402 1560.7801,-37.0903 1641,-20 1643.6385,-19.4379 1646.3634,-18.846 1649.1036,-18.2426"/>
<polygon fill="#191970" stroke="#191970" points="1649.9711,-21.6352 1658.9676,-16.0394 1648.4451,-14.8036 1649.9711,-21.6352"/>
</g>
<!-- Node24&#45;&gt;Node17 -->
<g id="edge35" class="edge">
<title>Node24&#45;&gt;Node17</title>
<path fill="none" stroke="#191970" d="M1528.7171,-112.4369C1577.7073,-101.7203 1656.3498,-84.5172 1702.9152,-74.331"/>
<polygon fill="#191970" stroke="#191970" points="1703.8823,-77.7023 1712.9033,-72.1461 1702.3864,-70.864 1703.8823,-77.7023"/>
</g>
<!-- Node24&#45;&gt;Node18 -->
<g id="edge33" class="edge">
<title>Node24&#45;&gt;Node18</title>
<path fill="none" stroke="#191970" d="M1486.5677,-112.2455C1487.7421,-104.9382 1489.3884,-94.6944 1490.8332,-85.7046"/>
<polygon fill="#191970" stroke="#191970" points="1494.3191,-86.0714 1492.4503,-75.6427 1487.4078,-84.9606 1494.3191,-86.0714"/>
</g>
<!-- Node26&#45;&gt;Node3 -->
<g id="edge40" class="edge">
<title>Node26&#45;&gt;Node3</title>
<path fill="none" stroke="#191970" d="M730.9918,-291.3215C725.2644,-260.8085 712.0728,-165.487 758,-112 774.3427,-92.9672 842.6182,-78.3999 883.8834,-71.1282"/>
<polygon fill="#191970" stroke="#191970" points="884.4793,-74.5772 893.7445,-69.4384 883.297,-67.6778 884.4793,-74.5772"/>
</g>
<!-- Node27&#45;&gt;Node3 -->
<g id="edge43" class="edge">
<title>Node27&#45;&gt;Node3</title>
<path fill="none" stroke="#191970" d="M2021.3213,-472.248C1907.8656,-461.5237 1715.6848,-442.5214 1684,-434 1602.3347,-412.0366 1510,-441.5672 1510,-357 1510,-357 1510,-357 1510,-301 1510,-217.4043 1450.299,-208.1934 1377,-168 1231.1291,-88.012 1026.8026,-70.7427 948.3885,-67.0204"/>
<polygon fill="#191970" stroke="#191970" points="948.3203,-63.5143 938.1787,-66.5799 948.0186,-70.5078 948.3203,-63.5143"/>
</g>
<!-- Node27&#45;&gt;Node8 -->
<g id="edge42" class="edge">
<title>Node27&#45;&gt;Node8</title>
<path fill="none" stroke="#191970" d="M2113.343,-470.4714C2139.1574,-439.9709 2216,-341.1074 2216,-245 2216,-245 2216,-245 2216,-183.5 2216,-121.7778 2025.7615,-88.0695 1918.8452,-73.9989"/>
<polygon fill="#191970" stroke="#191970" points="1919.1335,-70.5071 1908.7677,-72.6982 1918.2374,-77.4495 1919.1335,-70.5071"/>
</g>
<!-- Node28&#45;&gt;Node3 -->
<g id="edge46" class="edge">
<title>Node28&#45;&gt;Node3</title>
<path fill="none" stroke="#191970" d="M455,-470.4309C455,-449.738 455,-399.2813 455,-357 455,-357 455,-357 455,-183.5 455,-94.8652 779.0391,-72.2609 883.7723,-67.2697"/>
<polygon fill="#191970" stroke="#191970" points="883.9342,-70.7661 893.765,-66.8159 883.6165,-63.7733 883.9342,-70.7661"/>
</g>
<!-- Node29 -->
<g id="node27" class="node">
<title>Node29</title>
<polygon fill="none" stroke="#bfbfbf" points="483,-409 483,-428 569,-428 569,-409 483,-409"/>
<text text-anchor="middle" x="526" y="-416" font-family="FreeSans.ttf" font-size="10.00" fill="#000000">ModelExport.h</text>
</g>
<!-- Node28&#45;&gt;Node29 -->
<g id="edge47" class="edge">
<title>Node28&#45;&gt;Node29</title>
<path fill="none" stroke="#191970" d="M466.0938,-470.3906C476.9715,-460.9683 493.7748,-446.4134 506.82,-435.1137"/>
<polygon fill="#191970" stroke="#191970" points="509.4827,-437.4377 514.7498,-428.2449 504.8996,-432.1466 509.4827,-437.4377"/>
</g>
<!-- Node30&#45;&gt;Node28 -->
<g id="edge74" class="edge">
<title>Node30&#45;&gt;Node28</title>
<path fill="none" stroke="#191970" d="M1411.4383,-537.0523C1222.8543,-525.8031 728.1388,-496.293 534.4159,-484.7372"/>
<polygon fill="#191970" stroke="#191970" points="534.5005,-481.2361 524.3098,-484.1344 534.0836,-488.2237 534.5005,-481.2361"/>
</g>
<!-- Node31 -->
<g id="node29" class="node">
<title>Node31</title>
<g id="a_node29"><a xlink:href="Transform_8h.html" target="_top" xlink:title="iDynTree/Core/Transform.h">
<polygon fill="none" stroke="#000000" points="1260,-347.5 1260,-366.5 1406,-366.5 1406,-347.5 1260,-347.5"/>
<text text-anchor="middle" x="1333" y="-354.5" font-family="FreeSans.ttf" font-size="10.00" fill="#000000">iDynTree/Core/Transform.h</text>
</a>
</g>
</g>
<!-- Node30&#45;&gt;Node31 -->
<g id="edge49" class="edge">
<title>Node30&#45;&gt;Node31</title>
<path fill="none" stroke="#191970" d="M1442.3936,-531.9376C1417.8841,-524.4249 1388.5744,-511.516 1370,-490 1341.9191,-457.4718 1335.0231,-405.2672 1333.4116,-376.9041"/>
<polygon fill="#191970" stroke="#191970" points="1336.8987,-376.5056 1333.0049,-366.6523 1329.9042,-376.7832 1336.8987,-376.5056"/>
</g>
<!-- Node32 -->
<g id="node30" class="node">
<title>Node32</title>
<g id="a_node30"><a xlink:href="Twist_8h.html" target="_top" xlink:title="iDynTree/Core/Twist.h">
<polygon fill="none" stroke="#000000" points="1692,-470.5 1692,-489.5 1814,-489.5 1814,-470.5 1692,-470.5"/>
<text text-anchor="middle" x="1753" y="-477.5" font-family="FreeSans.ttf" font-size="10.00" fill="#000000">iDynTree/Core/Twist.h</text>
</a>
</g>
</g>
<!-- Node30&#45;&gt;Node32 -->
<g id="edge54" class="edge">
<title>Node30&#45;&gt;Node32</title>
<path fill="none" stroke="#191970" d="M1527.4258,-531.9581C1574.3894,-521.1406 1650.9933,-503.4959 1701.6979,-491.8168"/>
<polygon fill="#191970" stroke="#191970" points="1702.5178,-495.2196 1711.477,-489.5643 1700.9465,-488.3983 1702.5178,-495.2196"/>
</g>
<!-- Node35 -->
<g id="node33" class="node">
<title>Node35</title>
<g id="a_node33"><a xlink:href="SpatialAcc_8h.html" target="_top" xlink:title="iDynTree/Core/SpatialAcc.h">
<polygon fill="none" stroke="#000000" points="1488,-470.5 1488,-489.5 1636,-489.5 1636,-470.5 1488,-470.5"/>
<text text-anchor="middle" x="1562" y="-477.5" font-family="FreeSans.ttf" font-size="10.00" fill="#000000">iDynTree/Core/SpatialAcc.h</text>
</a>
</g>
</g>
<!-- Node30&#45;&gt;Node35 -->
<g id="edge64" class="edge">
<title>Node30&#45;&gt;Node35</title>
<path fill="none" stroke="#191970" d="M1497.875,-531.8906C1509.6297,-522.3786 1527.8486,-507.6357 1541.8672,-496.2917"/>
<polygon fill="#191970" stroke="#191970" points="1544.3856,-498.7562 1549.9576,-489.7449 1539.9822,-493.3146 1544.3856,-498.7562"/>
</g>
<!-- Node36 -->
<g id="node34" class="node">
<title>Node36</title>
<g id="a_node34"><a xlink:href="Wrench_8h.html" target="_top" xlink:title="iDynTree/Core/Wrench.h">
<polygon fill="none" stroke="#000000" points="1832.5,-470.5 1832.5,-489.5 1965.5,-489.5 1965.5,-470.5 1832.5,-470.5"/>
<text text-anchor="middle" x="1899" y="-477.5" font-family="FreeSans.ttf" font-size="10.00" fill="#000000">iDynTree/Core/Wrench.h</text>
</a>
</g>
</g>
<!-- Node30&#45;&gt;Node36 -->
<g id="edge66" class="edge">
<title>Node30&#45;&gt;Node36</title>
<path fill="none" stroke="#191970" d="M1550.0781,-531.9581C1624.3441,-520.8991 1746.5281,-502.7047 1824.8373,-491.0436"/>
<polygon fill="#191970" stroke="#191970" points="1825.736,-494.4485 1835.1114,-489.5137 1824.7049,-487.5248 1825.736,-494.4485"/>
</g>
<!-- Node38 -->
<g id="node36" class="node">
<title>Node38</title>
<g id="a_node36"><a xlink:href="ArticulatedBodyInertia_8h.html" target="_top" xlink:title="iDynTree/Core/Articulated\lBodyInertia.h">
<polygon fill="none" stroke="#000000" points="1050.5,-168.5 1050.5,-198.5 1191.5,-198.5 1191.5,-168.5 1050.5,-168.5"/>
<text text-anchor="start" x="1058.5" y="-186.5" font-family="FreeSans.ttf" font-size="10.00" fill="#000000">iDynTree/Core/Articulated</text>
<text text-anchor="middle" x="1121" y="-175.5" font-family="FreeSans.ttf" font-size="10.00" fill="#000000">BodyInertia.h</text>
</a>
</g>
</g>
<!-- Node30&#45;&gt;Node38 -->
<g id="edge71" class="edge">
<title>Node30&#45;&gt;Node38</title>
<path fill="none" stroke="#191970" d="M1459.4841,-531.8573C1441.4021,-523.7255 1418.8411,-510.1488 1408,-490 1377.8501,-433.9645 1447.2575,-401.8493 1415,-347 1407.6917,-334.5733 1236.7215,-244.0317 1158.9282,-203.2815"/>
<polygon fill="#191970" stroke="#191970" points="1160.4033,-200.1032 1149.9204,-198.5673 1157.1575,-206.3052 1160.4033,-200.1032"/>
</g>
<!-- Node30&#45;&gt;Node39 -->
<g id="edge75" class="edge">
<title>Node30&#45;&gt;Node39</title>
<path fill="none" stroke="#191970" d="M1426.7316,-531.9581C1345.54,-518.8867 1202.4285,-495.8465 1137.5972,-485.409"/>
<polygon fill="#191970" stroke="#191970" points="1137.9509,-481.9209 1127.5217,-483.7869 1136.8382,-488.8319 1137.9509,-481.9209"/>
</g>
<!-- Node31&#45;&gt;Node3 -->
<g id="edge53" class="edge">
<title>Node31&#45;&gt;Node3</title>
<path fill="none" stroke="#191970" d="M1259.8965,-351.0115C1168.0106,-341.1577 1007.3923,-316.1026 884,-255 849.2211,-237.7778 833.4355,-234.1575 817,-199 811.1652,-186.5187 814.977,-181.6284 817,-168 820.8192,-142.2715 817.7026,-132.2716 834,-112 846.91,-95.9419 867.0247,-84.5359 884.1006,-77.0984"/>
<polygon fill="#191970" stroke="#191970" points="885.7883,-80.19 893.7261,-73.1727 883.1448,-73.7083 885.7883,-80.19"/>
</g>
<!-- Node31&#45;&gt;Node19 -->
<g id="edge50" class="edge">
<title>Node31&#45;&gt;Node19</title>
<path fill="none" stroke="#191970" d="M1315.4071,-347.2455C1299.621,-338.4928 1276.2361,-325.527 1258.2413,-315.5496"/>
<polygon fill="#191970" stroke="#191970" points="1259.8341,-312.4308 1249.3913,-310.6427 1256.4397,-318.5528 1259.8341,-312.4308"/>
</g>
<!-- Node31&#45;&gt;Node21 -->
<g id="edge51" class="edge">
<title>Node31&#45;&gt;Node21</title>
<path fill="none" stroke="#191970" d="M1333.341,-347.4509C1333.9934,-329.184 1335.4302,-288.9553 1336.2965,-264.6976"/>
<polygon fill="#191970" stroke="#191970" points="1339.8006,-264.6435 1336.6598,-254.5249 1332.805,-264.3936 1339.8006,-264.6435"/>
</g>
<!-- Node31&#45;&gt;Node24 -->
<g id="edge52" class="edge">
<title>Node31&#45;&gt;Node24</title>
<path fill="none" stroke="#191970" d="M1342.0466,-347.4988C1358.2099,-330.1713 1392.4622,-291.8201 1415,-255 1437.1221,-218.859 1433.4172,-205.0392 1454,-168 1459.3591,-158.3562 1466.1299,-148.1316 1471.9757,-139.7774"/>
<polygon fill="#191970" stroke="#191970" points="1474.8796,-141.7335 1477.8453,-131.5622 1469.184,-137.664 1474.8796,-141.7335"/>
</g>
<!-- Node33 -->
<g id="node31" class="node">
<title>Node33</title>
<g id="a_node31"><a xlink:href="SpatialMotionVector_8h.html" target="_top" xlink:title="iDynTree/Core/SpatialMotion\lVector.h">
<polygon fill="none" stroke="#000000" points="1692.5,-403.5 1692.5,-433.5 1847.5,-433.5 1847.5,-403.5 1692.5,-403.5"/>
<text text-anchor="start" x="1700.5" y="-421.5" font-family="FreeSans.ttf" font-size="10.00" fill="#000000">iDynTree/Core/SpatialMotion</text>
<text text-anchor="middle" x="1770" y="-410.5" font-family="FreeSans.ttf" font-size="10.00" fill="#000000">Vector.h</text>
</a>
</g>
</g>
<!-- Node32&#45;&gt;Node33 -->
<g id="edge55" class="edge">
<title>Node32&#45;&gt;Node33</title>
<path fill="none" stroke="#191970" d="M1755.6563,-470.3906C1757.6587,-463.1463 1760.4999,-452.8679 1763.126,-443.3676"/>
<polygon fill="#191970" stroke="#191970" points="1766.5504,-444.1157 1765.8413,-433.5446 1759.8035,-442.2506 1766.5504,-444.1157"/>
</g>
<!-- Node33&#45;&gt;Node4 -->
<g id="edge56" class="edge">
<title>Node33&#45;&gt;Node4</title>
<path fill="none" stroke="#191970" d="M1749.8026,-403.232C1739.3584,-394.029 1727.6423,-381.3293 1722,-367 1705.9061,-326.128 1727.998,-192.4821 1737.2563,-141.7629"/>
<polygon fill="#191970" stroke="#191970" points="1740.7302,-142.2252 1739.1146,-131.7542 1733.8478,-140.9473 1740.7302,-142.2252"/>
</g>
<!-- Node33&#45;&gt;Node22 -->
<g id="edge57" class="edge">
<title>Node33&#45;&gt;Node22</title>
<path fill="none" stroke="#191970" d="M1825.6824,-403.4486C1857.1111,-393.7051 1891.8838,-380.3792 1901,-367 1936.7749,-314.4957 1892.6543,-236.3963 1869.0577,-201.489"/>
<polygon fill="#191970" stroke="#191970" points="1871.8823,-199.4204 1863.2951,-193.2146 1866.138,-203.421 1871.8823,-199.4204"/>
</g>
<!-- Node34 -->
<g id="node32" class="node">
<title>Node34</title>
<g id="a_node32"><a xlink:href="SpatialVector_8h.html" target="_top" xlink:title="iDynTree/Core/SpatialVector.h">
<polygon fill="none" stroke="#ff0000" points="1730.5,-347.5 1730.5,-366.5 1891.5,-366.5 1891.5,-347.5 1730.5,-347.5"/>
<text text-anchor="middle" x="1811" y="-354.5" font-family="FreeSans.ttf" font-size="10.00" fill="#000000">iDynTree/Core/SpatialVector.h</text>
</a>
</g>
</g>
<!-- Node33&#45;&gt;Node34 -->
<g id="edge58" class="edge">
<title>Node33&#45;&gt;Node34</title>
<path fill="none" stroke="#191970" d="M1780.1348,-403.2977C1785.7668,-394.8498 1792.8151,-384.2773 1798.754,-375.369"/>
<polygon fill="#191970" stroke="#191970" points="1801.8005,-377.1089 1804.4354,-366.8469 1795.9762,-373.226 1801.8005,-377.1089"/>
</g>
<!-- Node34&#45;&gt;Node5 -->
<g id="edge61" class="edge">
<title>Node34&#45;&gt;Node5</title>
<path fill="none" stroke="#191970" d="M1803.8798,-347.3179C1773.0338,-305.373 1650.6732,-138.9855 1610.1278,-83.8514"/>
<polygon fill="#191970" stroke="#191970" points="1612.891,-81.701 1604.1469,-75.7185 1607.2517,-85.8482 1612.891,-81.701"/>
</g>
<!-- Node34&#45;&gt;Node17 -->
<g id="edge63" class="edge">
<title>Node34&#45;&gt;Node17</title>
<path fill="none" stroke="#191970" d="M1827.5747,-347.4862C1872.7143,-320.3298 1991.5574,-239.7827 1947,-168 1927.8799,-137.1971 1832.1338,-98.7384 1778.1608,-79.0071"/>
<polygon fill="#191970" stroke="#191970" points="1779.1911,-75.6579 1768.5969,-75.5468 1776.8095,-82.2403 1779.1911,-75.6579"/>
</g>
<!-- Node34&#45;&gt;Node19 -->
<g id="edge59" class="edge">
<title>Node34&#45;&gt;Node19</title>
<path fill="none" stroke="#191970" d="M1730.4925,-349.2134C1619.3046,-338.4595 1420.048,-319.1877 1310.1312,-308.5567"/>
<polygon fill="#191970" stroke="#191970" points="1310.394,-305.0659 1300.1034,-307.5869 1309.72,-312.0334 1310.394,-305.0659"/>
</g>
<!-- Node34&#45;&gt;Node21 -->
<g id="edge60" class="edge">
<title>Node34&#45;&gt;Node21</title>
<path fill="none" stroke="#191970" d="M1770.587,-347.4509C1684.1834,-327.0349 1481.6791,-279.1858 1387.1975,-256.861"/>
<polygon fill="#191970" stroke="#191970" points="1387.8476,-253.4183 1377.3107,-254.5249 1386.2378,-260.2307 1387.8476,-253.4183"/>
</g>
<!-- Node34&#45;&gt;Node22 -->
<g id="edge62" class="edge">
<title>Node34&#45;&gt;Node22</title>
<path fill="none" stroke="#191970" d="M1813.4835,-347.4248C1820.5968,-319.999 1841.156,-240.732 1850.8395,-203.3964"/>
<polygon fill="#191970" stroke="#191970" points="1854.346,-203.818 1853.4687,-193.2595 1847.5701,-202.0605 1854.346,-203.818"/>
</g>
<!-- Node35&#45;&gt;Node33 -->
<g id="edge65" class="edge">
<title>Node35&#45;&gt;Node33</title>
<path fill="none" stroke="#191970" d="M1594.5,-470.3906C1625.1264,-461.3352 1671.7867,-447.539 1709.2983,-436.4479"/>
<polygon fill="#191970" stroke="#191970" points="1710.5203,-439.7364 1719.1175,-433.5446 1708.5355,-433.0237 1710.5203,-439.7364"/>
</g>
<!-- Node37 -->
<g id="node35" class="node">
<title>Node37</title>
<g id="a_node35"><a xlink:href="SpatialForceVector_8h.html" target="_top" xlink:title="iDynTree/Core/SpatialForce\lVector.h">
<polygon fill="none" stroke="#000000" points="1866,-403.5 1866,-433.5 2014,-433.5 2014,-403.5 1866,-403.5"/>
<text text-anchor="start" x="1874" y="-421.5" font-family="FreeSans.ttf" font-size="10.00" fill="#000000">iDynTree/Core/SpatialForce</text>
<text text-anchor="middle" x="1940" y="-410.5" font-family="FreeSans.ttf" font-size="10.00" fill="#000000">Vector.h</text>
</a>
</g>
</g>
<!-- Node36&#45;&gt;Node37 -->
<g id="edge67" class="edge">
<title>Node36&#45;&gt;Node37</title>
<path fill="none" stroke="#191970" d="M1905.4063,-470.3906C1910.4413,-462.838 1917.6749,-451.9876 1924.2271,-442.1593"/>
<polygon fill="#191970" stroke="#191970" points="1927.3354,-443.8066 1929.9703,-433.5446 1921.511,-439.9236 1927.3354,-443.8066"/>
</g>
<!-- Node37&#45;&gt;Node4 -->
<g id="edge68" class="edge">
<title>Node37&#45;&gt;Node4</title>
<path fill="none" stroke="#191970" d="M1954.8438,-403.2253C1973.75,-382.0891 2004,-341.8831 2004,-301 2004,-301 2004,-301 2004,-245 2004,-202.4214 1982.6939,-191.2139 1947,-168 1925.5172,-154.0285 1866.019,-141.5928 1816.4568,-133.1852"/>
<polygon fill="#191970" stroke="#191970" points="1816.8095,-129.6958 1806.3704,-131.5057 1815.6597,-136.6008 1816.8095,-129.6958"/>
</g>
<!-- Node37&#45;&gt;Node22 -->
<g id="edge69" class="edge">
<title>Node37&#45;&gt;Node22</title>
<path fill="none" stroke="#191970" d="M1940.0911,-403.169C1939.6522,-370.2483 1935.1543,-291.2264 1904,-235 1896.7083,-221.8402 1885.3311,-209.4288 1875.4832,-200.0888"/>
<polygon fill="#191970" stroke="#191970" points="1877.7732,-197.4405 1868.0204,-193.3011 1873.0632,-202.6189 1877.7732,-197.4405"/>
</g>
<!-- Node37&#45;&gt;Node34 -->
<g id="edge70" class="edge">
<title>Node37&#45;&gt;Node34</title>
<path fill="none" stroke="#191970" d="M1908.443,-403.4554C1887.5799,-393.509 1860.4309,-380.5659 1840.0902,-370.8686"/>
<polygon fill="#191970" stroke="#191970" points="1841.5233,-367.6744 1830.9904,-366.5303 1838.5109,-373.9931 1841.5233,-367.6744"/>
</g>
<!-- Node38&#45;&gt;Node3 -->
<g id="edge73" class="edge">
<title>Node38&#45;&gt;Node3</title>
<path fill="none" stroke="#191970" d="M1106.2175,-168.3678C1090.1329,-152.5852 1063.0768,-127.9633 1036,-112 1007.9583,-95.4679 972.9029,-82.8386 947.9364,-75.0333"/>
<polygon fill="#191970" stroke="#191970" points="948.8218,-71.6444 938.2361,-72.0842 946.7856,-78.3417 948.8218,-71.6444"/>
</g>
<!-- Node38&#45;&gt;Node24 -->
<g id="edge72" class="edge">
<title>Node38&#45;&gt;Node24</title>
<path fill="none" stroke="#191970" d="M1191.6483,-169.6895C1194.8072,-169.1106 1197.9357,-168.5449 1201,-168 1272.9065,-155.2138 1355.323,-142.0268 1412.7845,-133.0683"/>
<polygon fill="#191970" stroke="#191970" points="1413.5141,-136.497 1422.8572,-131.5014 1412.438,-129.5802 1413.5141,-136.497"/>
</g>
<!-- Node40&#45;&gt;Node28 -->
<g id="edge88" class="edge">
<title>Node40&#45;&gt;Node28</title>
<path fill="none" stroke="#191970" d="M783.2242,-666.1135C669.4546,-659.0205 447.3348,-642.9487 417,-624 376.8096,-598.895 351.2703,-567.0175 375,-526 383.5707,-511.1854 398.9193,-500.7247 413.8965,-493.5639"/>
<polygon fill="#191970" stroke="#191970" points="415.3583,-496.7446 423.11,-489.5223 412.5463,-490.3342 415.3583,-496.7446"/>
</g>
<!-- Node40&#45;&gt;Node31 -->
<g id="edge87" class="edge">
<title>Node40&#45;&gt;Node31</title>
<path fill="none" stroke="#191970" d="M898.7289,-660.4354C929.7499,-653.1377 970.129,-641.3474 1003,-624 1138.5735,-552.452 1271.7028,-420.8956 1316.8509,-374.0872"/>
<polygon fill="#191970" stroke="#191970" points="1319.6274,-376.2482 1324.0132,-366.6037 1314.5703,-371.4082 1319.6274,-376.2482"/>
</g>
<!-- Node40&#45;&gt;Node39 -->
<g id="edge95" class="edge">
<title>Node40&#45;&gt;Node39</title>
<path fill="none" stroke="#191970" d="M879.176,-660.4195C923.1658,-644.757 1007.0531,-610.0045 1061,-557 1077.8228,-540.4711 1089.9686,-515.9567 1096.9753,-499.0501"/>
<polygon fill="#191970" stroke="#191970" points="1100.2708,-500.2333 1100.6697,-489.646 1093.7556,-497.6738 1100.2708,-500.2333"/>
</g>
<!-- Node41 -->
<g id="node39" class="node">
<title>Node41</title>
<g id="a_node39"><a xlink:href="IJoint_8h.html" target="_top" xlink:title="iDynTree/Model/IJoint.h">
<polygon fill="none" stroke="#000000" points="426,-599 426,-618 554,-618 554,-599 426,-599"/>
<text text-anchor="middle" x="490" y="-606" font-family="FreeSans.ttf" font-size="10.00" fill="#000000">iDynTree/Model/IJoint.h</text>
</a>
</g>
</g>
<!-- Node40&#45;&gt;Node41 -->
<g id="edge78" class="edge">
<title>Node40&#45;&gt;Node41</title>
<path fill="none" stroke="#191970" d="M794.145,-660.4581C729.8059,-649.4668 624.2079,-631.4272 555.9035,-619.7585"/>
<polygon fill="#191970" stroke="#191970" points="556.1364,-616.2477 545.6898,-618.0137 554.9576,-623.1477 556.1364,-616.2477"/>
</g>
<!-- Node42 -->
<g id="node40" class="node">
<title>Node42</title>
<g id="a_node40"><a xlink:href="Link_8h.html" target="_top" xlink:title="iDynTree/Model/Link.h">
<polygon fill="none" stroke="#000000" points="788,-599 788,-618 912,-618 912,-599 788,-599"/>
<text text-anchor="middle" x="850" y="-606" font-family="FreeSans.ttf" font-size="10.00" fill="#000000">iDynTree/Model/Link.h</text>
</a>
</g>
</g>
<!-- Node40&#45;&gt;Node42 -->
<g id="edge80" class="edge">
<title>Node40&#45;&gt;Node42</title>
<path fill="none" stroke="#191970" d="M850,-660.3906C850,-651.8657 850,-639.1392 850,-628.4235"/>
<polygon fill="#191970" stroke="#191970" points="853.5001,-628.2448 850,-618.2449 846.5001,-628.2449 853.5001,-628.2448"/>
</g>
<!-- Node47 -->
<g id="node42" class="node">
<title>Node47</title>
<g id="a_node42"><a xlink:href="SolidShapes_8h.html" target="_top" xlink:title="iDynTree/Model/SolidShapes.h">
<polygon fill="none" stroke="#000000" points="540.5,-532 540.5,-551 703.5,-551 703.5,-532 540.5,-532"/>
<text text-anchor="middle" x="622" y="-539" font-family="FreeSans.ttf" font-size="10.00" fill="#000000">iDynTree/Model/SolidShapes.h</text>
</a>
</g>
</g>
<!-- Node40&#45;&gt;Node47 -->
<g id="edge89" class="edge">
<title>Node40&#45;&gt;Node47</title>
<path fill="none" stroke="#191970" d="M832.8629,-660.3416C793.2359,-638.008 695.0678,-582.6807 647.9913,-556.1486"/>
<polygon fill="#191970" stroke="#191970" points="649.4551,-552.956 639.0249,-551.0952 646.0181,-559.0542 649.4551,-552.956"/>
</g>
<!-- Node48 -->
<g id="node43" class="node">
<title>Node48</title>
<polygon fill="none" stroke="#bfbfbf" points="298.5,-470.5 298.5,-489.5 347.5,-489.5 347.5,-470.5 298.5,-470.5"/>
<text text-anchor="middle" x="323" y="-477.5" font-family="FreeSans.ttf" font-size="10.00" fill="#000000">cstdlib</text>
</g>
<!-- Node40&#45;&gt;Node48 -->
<g id="edge94" class="edge">
<title>Node40&#45;&gt;Node48</title>
<path fill="none" stroke="#191970" d="M783.4229,-667.3957C660.7313,-662.0369 408.5419,-648.2023 377,-624 337.759,-593.8901 327.0333,-531.9524 324.1021,-500.0171"/>
<polygon fill="#191970" stroke="#191970" points="327.5686,-499.4362 323.3364,-489.7234 320.5879,-499.9555 327.5686,-499.4362"/>
</g>
<!-- Node41&#45;&gt;Node28 -->
<g id="edge79" class="edge">
<title>Node41&#45;&gt;Node28</title>
<path fill="none" stroke="#191970" d="M446.068,-598.9633C423.3644,-591.5671 397.6233,-578.765 384,-557 376.69,-545.3213 377.4193,-538.1046 384,-526 391.6377,-511.9511 405.6209,-501.5317 419.1708,-494.1958"/>
<polygon fill="#191970" stroke="#191970" points="421.0059,-497.1921 428.399,-489.603 417.887,-490.9253 421.0059,-497.1921"/>
</g>
<!-- Node42&#45;&gt;Node28 -->
<g id="edge86" class="edge">
<title>Node42&#45;&gt;Node28</title>
<path fill="none" stroke="#191970" d="M787.5943,-605.4925C674.6682,-599.407 445.8365,-583.8766 422,-557 406.5745,-539.6072 423.2775,-513.9147 438.0014,-497.0679"/>
<polygon fill="#191970" stroke="#191970" points="440.7025,-499.3021 444.9211,-489.5833 435.5626,-494.5501 440.7025,-499.3021"/>
</g>
<!-- Node43 -->
<g id="node41" class="node">
<title>Node43</title>
<g id="a_node41"><a xlink:href="SpatialInertia_8h.html" target="_top" xlink:title="iDynTree/Core/SpatialInertia.h">
<polygon fill="none" stroke="#ff0000" points="1654,-532 1654,-551 1816,-551 1816,-532 1654,-532"/>
<text text-anchor="middle" x="1735" y="-539" font-family="FreeSans.ttf" font-size="10.00" fill="#000000">iDynTree/Core/SpatialInertia.h</text>
</a>
</g>
</g>
<!-- Node42&#45;&gt;Node43 -->
<g id="edge81" class="edge">
<title>Node42&#45;&gt;Node43</title>
<path fill="none" stroke="#191970" d="M912.1549,-604.5218C1036.9266,-596.4326 1326.7714,-577.1207 1570,-557 1593.8353,-555.0283 1619.5883,-552.7028 1643.5006,-550.4611"/>
<polygon fill="#191970" stroke="#191970" points="1643.9977,-553.9299 1653.6251,-549.5068 1643.3407,-546.9608 1643.9977,-553.9299"/>
</g>
<!-- Node43&#45;&gt;Node4 -->
<g id="edge82" class="edge">
<title>Node43&#45;&gt;Node4</title>
<path fill="none" stroke="#191970" d="M1721.9428,-531.916C1710.0708,-522.5239 1692.9344,-507.1521 1683,-490 1666.5204,-461.5473 1664,-451.3806 1664,-418.5 1664,-418.5 1664,-418.5 1664,-357 1664,-272.8759 1709.1099,-179.8565 1730.2751,-140.8423"/>
<polygon fill="#191970" stroke="#191970" points="1733.4315,-142.3672 1735.2125,-131.9231 1727.3072,-138.977 1733.4315,-142.3672"/>
</g>
<!-- Node43&#45;&gt;Node32 -->
<g id="edge83" class="edge">
<title>Node43&#45;&gt;Node32</title>
<path fill="none" stroke="#191970" d="M1737.8125,-531.8906C1740.3339,-523.276 1744.111,-510.3708 1747.2676,-499.5858"/>
<polygon fill="#191970" stroke="#191970" points="1750.6979,-500.3254 1750.1478,-489.7449 1743.9797,-498.3591 1750.6979,-500.3254"/>
</g>
<!-- Node43&#45;&gt;Node35 -->
<g id="edge84" class="edge">
<title>Node43&#45;&gt;Node35</title>
<path fill="none" stroke="#191970" d="M1707.9688,-531.8906C1678.5149,-521.42 1631.2311,-504.6111 1598.4973,-492.9745"/>
<polygon fill="#191970" stroke="#191970" points="1599.4361,-489.5937 1588.8414,-489.5419 1597.0914,-496.1893 1599.4361,-489.5937"/>
</g>
<!-- Node43&#45;&gt;Node36 -->
<g id="edge85" class="edge">
<title>Node43&#45;&gt;Node36</title>
<path fill="none" stroke="#191970" d="M1760.625,-531.8906C1788.4263,-521.4652 1832.9844,-504.7559 1863.9994,-493.1252"/>
<polygon fill="#191970" stroke="#191970" points="1865.4206,-496.3303 1873.5549,-489.5419 1862.9627,-489.776 1865.4206,-496.3303"/>
</g>
<!-- Node47&#45;&gt;Node3 -->
<g id="edge91" class="edge">
<title>Node47&#45;&gt;Node3</title>
<path fill="none" stroke="#191970" d="M622,-531.9309C622,-511.238 622,-460.7813 622,-418.5 622,-418.5 622,-418.5 622,-183.5 622,-127.5898 807.654,-86.3397 883.9004,-71.7563"/>
<polygon fill="#191970" stroke="#191970" points="884.7207,-75.1635 893.9022,-69.8767 883.4278,-68.2839 884.7207,-75.1635"/>
</g>
<!-- Node47&#45;&gt;Node31 -->
<g id="edge93" class="edge">
<title>Node47&#45;&gt;Node31</title>
<path fill="none" stroke="#191970" d="M658.7293,-531.969C777.8999,-501.045 1153.7276,-403.52 1286.2134,-369.1408"/>
<polygon fill="#191970" stroke="#191970" points="1287.2635,-372.4843 1296.0637,-366.5847 1285.5052,-365.7088 1287.2635,-372.4843"/>
</g>
<!-- Node47&#45;&gt;Node39 -->
<g id="edge92" class="edge">
<title>Node47&#45;&gt;Node39</title>
<path fill="none" stroke="#191970" d="M674.3593,-531.964C686.9864,-529.8353 700.4548,-527.7061 713,-526 869.2641,-504.748 910.8305,-518.1524 1066,-490 1067.4683,-489.7336 1068.9631,-489.4397 1070.4692,-489.125"/>
<polygon fill="#191970" stroke="#191970" points="1071.462,-492.4876 1080.4108,-486.8158 1069.8782,-485.6692 1071.462,-492.4876"/>
</g>
<!-- Node47&#45;&gt;Node48 -->
<g id="edge90" class="edge">
<title>Node47&#45;&gt;Node48</title>
<path fill="none" stroke="#191970" d="M575.6093,-531.9581C515.3282,-519.5591 411.4394,-498.1907 357.6006,-487.1169"/>
<polygon fill="#191970" stroke="#191970" points="358.0281,-483.6316 347.5279,-485.045 356.6177,-490.488 358.0281,-483.6316"/>
</g>
<!-- Node49&#45;&gt;Node3 -->
<g id="edge99" class="edge">
<title>Node49&#45;&gt;Node3</title>
<path fill="none" stroke="#191970" d="M112.4533,-531.7437C128.7673,-511.8757 163,-464.6833 163,-418.5 163,-418.5 163,-418.5 163,-183.5 163,-148.864 165.6635,-131.9173 194,-112 222.5762,-91.9143 746.7651,-71.9984 883.5671,-67.1266"/>
<polygon fill="#191970" stroke="#191970" points="883.9416,-70.6157 893.8116,-66.7642 883.694,-63.6201 883.9416,-70.6157"/>
</g>
<!-- Node49&#45;&gt;Node6 -->
<g id="edge100" class="edge">
<title>Node49&#45;&gt;Node6</title>
<path fill="none" stroke="#191970" d="M104.9151,-531.9414C106.8126,-511.269 111,-460.8497 111,-418.5 111,-418.5 111,-418.5 111,-122 111,-112.0439 -47.3542,-117.0374 885,-56 1185.5074,-36.327 1266.8137,-68.329 1568.5017,-19.6969"/>
<polygon fill="#191970" stroke="#191970" points="1569.1006,-23.1456 1578.4081,-18.084 1567.9756,-16.2366 1569.1006,-23.1456"/>
</g>
<!-- Node49&#45;&gt;Node28 -->
<g id="edge97" class="edge">
<title>Node49&#45;&gt;Node28</title>
<path fill="none" stroke="#191970" d="M158.4586,-531.9581C221.1893,-520.9668 324.1473,-502.9272 390.7441,-491.2585"/>
<polygon fill="#191970" stroke="#191970" points="391.4565,-494.6871 400.7024,-489.5137 390.2484,-487.7921 391.4565,-494.6871"/>
</g>
<!-- Node49&#45;&gt;Node39 -->
<g id="edge98" class="edge">
<title>Node49&#45;&gt;Node39</title>
<path fill="none" stroke="#191970" d="M179.5724,-536.8523C381.566,-524.4297 928.2563,-490.8082 1070.0408,-482.0885"/>
<polygon fill="#191970" stroke="#191970" points="1070.5182,-485.5658 1080.2845,-481.4585 1070.0885,-478.579 1070.5182,-485.5658"/>
</g>
<!-- Node50&#45;&gt;Node19 -->
<g id="edge102" class="edge">
<title>Node50&#45;&gt;Node19</title>
<path fill="none" stroke="#191970" d="M1291.3626,-598.9565C1258.5721,-580.6807 1194,-537.4039 1194,-480 1194,-480 1194,-480 1194,-418.5 1194,-382.2454 1210.5805,-342.6181 1221.837,-319.8929"/>
<polygon fill="#191970" stroke="#191970" points="1225.0965,-321.2076 1226.5555,-310.7137 1218.8708,-318.0073 1225.0965,-321.2076"/>
</g>
<!-- Node50&#45;&gt;Node28 -->
<g id="edge104" class="edge">
<title>Node50&#45;&gt;Node28</title>
<path fill="none" stroke="#191970" d="M1221.4794,-604.6698C1006.4891,-595.1669 473.3739,-570.3161 460,-557 445.2205,-542.2844 446.5682,-516.9889 449.8936,-499.4246"/>
<polygon fill="#191970" stroke="#191970" points="453.3121,-500.1755 452.0933,-489.651 446.4829,-498.6385 453.3121,-500.1755"/>
</g>
<!-- Node50&#45;&gt;Node30 -->
<g id="edge105" class="edge">
<title>Node50&#45;&gt;Node30</title>
<path fill="none" stroke="#191970" d="M1335.2165,-598.9005C1365.6681,-587.3082 1417.0485,-567.7486 1451.243,-554.7313"/>
<polygon fill="#191970" stroke="#191970" points="1452.7298,-557.9105 1460.8303,-551.0817 1450.2393,-551.3685 1452.7298,-557.9105"/>
</g>
<!-- Node50&#45;&gt;Node36 -->
<g id="edge103" class="edge">
<title>Node50&#45;&gt;Node36</title>
<path fill="none" stroke="#191970" d="M1365.8745,-598.9631C1379.6214,-596.81 1394.3213,-594.6701 1408,-593 1500.3258,-581.7278 1741.0746,-597.0954 1825,-557 1852.1919,-544.009 1874.6855,-516.4741 1887.4853,-498.1007"/>
<polygon fill="#191970" stroke="#191970" points="1890.4634,-499.9436 1893.1186,-489.6869 1884.6467,-496.0492 1890.4634,-499.9436"/>
</g>
<!-- Node50&#45;&gt;Node39 -->
<g id="edge106" class="edge">
<title>Node50&#45;&gt;Node39</title>
<path fill="none" stroke="#191970" d="M1281.9589,-598.9251C1249.1934,-587.4726 1197.2589,-568.4203 1180,-557 1155.0561,-540.4945 1131.7375,-514.7293 1117.6738,-497.6107"/>
<polygon fill="#191970" stroke="#191970" points="1120.1899,-495.1537 1111.2034,-489.5418 1114.7288,-499.5329 1120.1899,-495.1537"/>
</g>
<!-- Node51&#45;&gt;Node28 -->
<g id="edge108" class="edge">
<title>Node51&#45;&gt;Node28</title>
<path fill="none" stroke="#191970" d="M744.477,-531.9477C733.7457,-529.9708 722.5052,-527.9094 712,-526 646.1505,-514.0315 570.7644,-500.5663 518.7496,-491.3125"/>
<polygon fill="#191970" stroke="#191970" points="519.1263,-487.8247 508.6679,-489.5196 517.9006,-494.7166 519.1263,-487.8247"/>
</g>
<!-- Node51&#45;&gt;Node39 -->
<g id="edge109" class="edge">
<title>Node51&#45;&gt;Node39</title>
<path fill="none" stroke="#191970" d="M847.1209,-531.946C919.3862,-518.4102 1044.999,-494.7602 1066,-490 1067.4554,-489.6701 1068.9395,-489.3236 1070.4368,-488.9657"/>
<polygon fill="#191970" stroke="#191970" points="1071.4896,-492.3104 1080.3452,-486.4941 1069.7954,-485.5185 1071.4896,-492.3104"/>
</g>
<!-- Node52&#45;&gt;Node4 -->
<g id="edge111" class="edge">
<title>Node52&#45;&gt;Node4</title>
<path fill="none" stroke="#191970" d="M2189.2141,-531.9199C2210.3547,-512.7241 2254,-467.1972 2254,-418.5 2254,-418.5 2254,-418.5 2254,-301 2254,-260.7538 2224.3486,-258.9441 2192,-235 2137.841,-194.912 2120.3444,-188.0012 2056,-168 1982.4834,-145.1477 1895.7071,-133.545 1831.868,-127.7156"/>
<polygon fill="#191970" stroke="#191970" points="1832.0939,-124.222 1821.8247,-126.8287 1831.4781,-131.1949 1832.0939,-124.222"/>
</g>
<!-- Node52&#45;&gt;Node27 -->
<g id="edge112" class="edge">
<title>Node52&#45;&gt;Node27</title>
<path fill="none" stroke="#191970" d="M2166.5938,-531.8906C2155.3031,-522.3786 2137.8033,-507.6357 2124.3381,-496.2917"/>
<polygon fill="#191970" stroke="#191970" points="2126.4699,-493.5111 2116.5671,-489.7449 2121.9598,-498.8646 2126.4699,-493.5111"/>
</g>
<!-- Node52&#45;&gt;Node37 -->
<g id="edge113" class="edge">
<title>Node52&#45;&gt;Node37</title>
<path fill="none" stroke="#191970" d="M2185.7764,-531.5779C2196.4917,-516.6251 2212.8763,-488.1392 2198,-470 2176.2011,-443.4197 2090.8409,-430.2922 2024.2013,-423.9868"/>
<polygon fill="#191970" stroke="#191970" points="2024.3733,-420.4881 2014.0976,-423.0688 2023.7399,-427.4594 2024.3733,-420.4881"/>
</g>
<!-- Node52&#45;&gt;Node39 -->
<g id="edge114" class="edge">
<title>Node52&#45;&gt;Node39</title>
<path fill="none" stroke="#191970" d="M2102.4784,-537.1754C1889.1355,-524.9589 1287.7253,-490.5206 1138.0544,-481.95"/>
<polygon fill="#191970" stroke="#191970" points="1137.8635,-478.4335 1127.6797,-481.356 1137.4633,-485.422 1137.8635,-478.4335"/>
</g>
<!-- Node53&#45;&gt;Node27 -->
<g id="edge118" class="edge">
<title>Node53&#45;&gt;Node27</title>
<path fill="none" stroke="#191970" d="M1758.2767,-599.5724C1836.1871,-589.8829 1950.6604,-573.5655 1992,-557 2001.8778,-553.0418 2053.3512,-516.8557 2083.308,-495.5279"/>
<polygon fill="#191970" stroke="#191970" points="2085.3813,-498.3483 2091.4897,-489.6916 2081.3161,-492.6496 2085.3813,-498.3483"/>
</g>
<!-- Node53&#45;&gt;Node28 -->
<g id="edge119" class="edge">
<title>Node53&#45;&gt;Node28</title>
<path fill="none" stroke="#191970" d="M1603.7208,-594.0281C1600.7809,-593.6504 1597.8663,-593.3052 1595,-593 1477.3749,-580.4765 639.35,-604.4635 531,-557 527.2076,-555.3387 492.5776,-519.4293 471.394,-497.2432"/>
<polygon fill="#191970" stroke="#191970" points="473.7129,-494.6032 464.28,-489.7792 468.6457,-499.4327 473.7129,-494.6032"/>
</g>
<!-- Node53&#45;&gt;Node30 -->
<g id="edge120" class="edge">
<title>Node53&#45;&gt;Node30</title>
<path fill="none" stroke="#191970" d="M1637.2382,-593.4639C1602.9441,-581.6808 1555.7509,-565.4657 1523.2492,-554.2984"/>
<polygon fill="#191970" stroke="#191970" points="1524.2593,-550.9447 1513.6646,-551.0053 1521.9846,-557.5649 1524.2593,-550.9447"/>
</g>
<!-- Node53&#45;&gt;Node31 -->
<g id="edge116" class="edge">
<title>Node53&#45;&gt;Node31</title>
<path fill="none" stroke="#191970" d="M1663.5385,-593.2297C1642.4728,-575.3684 1605.455,-545.7361 1570,-526 1531.9969,-504.8454 1515.9021,-513.0215 1479,-490 1425.2183,-456.4481 1372.9726,-401.9934 1348.0929,-374.3247"/>
<polygon fill="#191970" stroke="#191970" points="1350.5357,-371.8044 1341.2788,-366.6507 1345.3014,-376.4522 1350.5357,-371.8044"/>
</g>
<!-- Node53&#45;&gt;Node32 -->
<g id="edge117" class="edge">
<title>Node53&#45;&gt;Node32</title>
<path fill="none" stroke="#191970" d="M1744.4824,-593.4981C1778.3672,-584.0687 1815.0999,-571.0549 1825,-557 1832.9342,-545.7361 1831.6191,-538.0836 1825,-526 1817.2413,-511.836 1803.0591,-501.3995 1789.3205,-494.0818"/>
<polygon fill="#191970" stroke="#191970" points="1790.4854,-490.7555 1779.9644,-489.5066 1787.4102,-497.0438 1790.4854,-490.7555"/>
</g>
<!-- Node53&#45;&gt;Node39 -->
<g id="edge122" class="edge">
<title>Node53&#45;&gt;Node39</title>
<path fill="none" stroke="#191970" d="M1603.9315,-594.5045C1528.5802,-580.7752 1422.4106,-561.2919 1403,-557 1305.8888,-535.5274 1192.4812,-504.7325 1137.4117,-489.4079"/>
<polygon fill="#191970" stroke="#191970" points="1138.084,-485.9618 1127.5111,-486.6444 1136.2019,-492.7041 1138.084,-485.9618"/>
</g>
<!-- Node53&#45;&gt;Node52 -->
<g id="edge121" class="edge">
<title>Node53&#45;&gt;Node52</title>
<path fill="none" stroke="#191970" d="M1758.1109,-598.1048C1850.1844,-585.6924 2003.4622,-565.0292 2097.1545,-552.3987"/>
<polygon fill="#191970" stroke="#191970" points="2097.7103,-555.8555 2107.153,-551.0508 2096.775,-548.9183 2097.7103,-555.8555"/>
</g>
<!-- Node54&#45;&gt;Node28 -->
<g id="edge125" class="edge">
<title>Node54&#45;&gt;Node28</title>
<path fill="none" stroke="#191970" d="M887.6948,-527.251C884.7624,-526.8165 881.8571,-526.3979 879,-526 759.2001,-509.3143 619.6413,-495.1924 534.3233,-487.1567"/>
<polygon fill="#191970" stroke="#191970" points="534.4756,-483.6558 524.1926,-486.2072 533.8223,-490.6252 534.4756,-483.6558"/>
</g>
<!-- Node54&#45;&gt;Node39 -->
<g id="edge124" class="edge">
<title>Node54&#45;&gt;Node39</title>
<path fill="none" stroke="#191970" d="M1002.7801,-526.4554C1024.55,-516.464 1052.9086,-503.4487 1074.0686,-493.7372"/>
<polygon fill="#191970" stroke="#191970" points="1075.6062,-496.8826 1083.2348,-489.5303 1072.6863,-490.5206 1075.6062,-496.8826"/>
</g>
<!-- Node55&#45;&gt;Node3 -->
<g id="edge128" class="edge">
<title>Node55&#45;&gt;Node3</title>
<path fill="none" stroke="#191970" d="M846.2655,-721.4007C662.5089,-709.2313 208,-672.6476 208,-608.5 208,-608.5 208,-608.5 208,-183.5 208,-114.0548 744.9535,-76.4516 883.6306,-67.898"/>
<polygon fill="#191970" stroke="#191970" points="883.8728,-71.3898 893.6416,-67.2885 883.4474,-64.4027 883.8728,-71.3898"/>
</g>
<!-- Node55&#45;&gt;Node12 -->
<g id="edge130" class="edge">
<title>Node55&#45;&gt;Node12</title>
<path fill="none" stroke="#191970" d="M846.1571,-724.2641C625.6064,-718.2177 0,-693.5691 0,-608.5 0,-608.5 0,-608.5 0,-122 0,-51.9268 537.9287,-19.377 685.1438,-11.7812"/>
<polygon fill="#191970" stroke="#191970" points="685.6379,-15.2607 695.4474,-11.2576 685.2826,-8.2697 685.6379,-15.2607"/>
</g>
<!-- Node55&#45;&gt;Node22 -->
<g id="edge127" class="edge">
<title>Node55&#45;&gt;Node22</title>
<path fill="none" stroke="#191970" d="M997.7962,-722.3071C1269.1358,-708.3105 2180.3826,-654.3298 2263,-557 2396.995,-399.1433 2015.4859,-241.8889 1892.6881,-196.5005"/>
<polygon fill="#191970" stroke="#191970" points="1893.8899,-193.2133 1883.2962,-193.0613 1891.4829,-199.7865 1893.8899,-193.2133"/>
</g>
<!-- Node55&#45;&gt;Node27 -->
<g id="edge131" class="edge">
<title>Node55&#45;&gt;Node27</title>
<path fill="none" stroke="#191970" d="M997.6806,-720.2166C1146.143,-708.1337 1485.6252,-676.8615 1767,-624 1825.851,-612.9437 1975.9852,-586.6671 2028,-557 2054.2905,-542.005 2077.812,-515.6513 2091.746,-498.01"/>
<polygon fill="#191970" stroke="#191970" points="2094.8203,-499.7522 2098.1226,-489.6851 2089.2632,-495.4956 2094.8203,-499.7522"/>
</g>
<!-- Node55&#45;&gt;Node28 -->
<g id="edge133" class="edge">
<title>Node55&#45;&gt;Node28</title>
<path fill="none" stroke="#191970" d="M846.4414,-721.9088C712.9009,-713.1023 443.0089,-687.7232 377,-624 345.2989,-593.3966 338.7541,-563.432 362,-526 371.5327,-510.6499 387.8742,-500.2666 404.2248,-493.3145"/>
<polygon fill="#191970" stroke="#191970" points="405.7401,-496.481 413.8015,-489.6061 403.2123,-489.9534 405.7401,-496.481"/>
</g>
<!-- Node55&#45;&gt;Node39 -->
<g id="edge129" class="edge">
<title>Node55&#45;&gt;Node39</title>
<path fill="none" stroke="#191970" d="M935.5276,-716.2879C967.1863,-692.7984 1046.4051,-629.4756 1086,-557 1095.84,-538.9886 1100.3259,-515.754 1102.3552,-499.5394"/>
<polygon fill="#191970" stroke="#191970" points="1105.8368,-499.8974 1103.4034,-489.5858 1098.8753,-499.1643 1105.8368,-499.8974"/>
</g>
<!-- Node55&#45;&gt;Node40 -->
<g id="edge132" class="edge">
<title>Node55&#45;&gt;Node40</title>
<path fill="none" stroke="#191970" d="M909.4586,-716.2455C898.7213,-707.8943 883.0527,-695.7076 870.4953,-685.9408"/>
<polygon fill="#191970" stroke="#191970" points="872.4401,-683.0194 862.3977,-679.6427 868.1425,-688.5449 872.4401,-683.0194"/>
</g>
</g>
</svg>
