<?xml version="1.0" encoding="UTF-8" standalone="no"?>
<!DOCTYPE svg PUBLIC "-//W3C//DTD SVG 1.1//EN"
 "http://www.w3.org/Graphics/SVG/1.1/DTD/svg11.dtd">
<!-- Generated by graphviz version 2.40.1 (20161225.0304)
 -->
<!-- Title: FixedJoint.cpp Pages: 1 -->
<svg width="1544pt" height="610pt"
 viewBox="0.00 0.00 1544.00 610.00" xmlns="http://www.w3.org/2000/svg" xmlns:xlink="http://www.w3.org/1999/xlink">
<g id="graph0" class="graph" transform="scale(1 1) rotate(0) translate(4 606)">
<title>FixedJoint.cpp</title>
<!-- Node0 -->
<g id="node1" class="node">
<title>Node0</title>
<polygon fill="#bfbfbf" stroke="#000000" points="670,-582.5 670,-601.5 754,-601.5 754,-582.5 670,-582.5"/>
<text text-anchor="middle" x="712" y="-589.5" font-family="FreeSans.ttf" font-size="10.00" fill="#000000">FixedJoint.cpp</text>
</g>
<!-- Node1 -->
<g id="node2" class="node">
<title>Node1</title>
<g id="a_node2"><a xlink:href="SpatialMotionVector_8h.html" target="_top" xlink:title="iDynTree/Core/SpatialMotion\lVector.h">
<polygon fill="none" stroke="#000000" points="1186.5,-403.5 1186.5,-433.5 1341.5,-433.5 1341.5,-403.5 1186.5,-403.5"/>
<text text-anchor="start" x="1194.5" y="-421.5" font-family="FreeSans.ttf" font-size="10.00" fill="#000000">iDynTree/Core/SpatialMotion</text>
<text text-anchor="middle" x="1264" y="-410.5" font-family="FreeSans.ttf" font-size="10.00" fill="#000000">Vector.h</text>
</a>
</g>
</g>
<!-- Node0&#45;&gt;Node1 -->
<g id="edge1" class="edge">
<title>Node0&#45;&gt;Node1</title>
<path fill="none" stroke="#191970" d="M754.0341,-589.6054C866.9916,-582.3221 1173.3984,-556.7137 1245,-490 1257.5981,-478.2619 1262.212,-459.2096 1263.7491,-443.7227"/>
<polygon fill="#191970" stroke="#191970" points="1267.2445,-443.9052 1264.3821,-433.7043 1260.2584,-443.4637 1267.2445,-443.9052"/>
</g>
<!-- Node3 -->
<g id="node4" class="node">
<title>Node3</title>
<g id="a_node4"><a xlink:href="Utils_8h.html" target="_top" xlink:title="iDynTree/Core/Utils.h">
<polygon fill="none" stroke="#000000" points="1363.5,-56.5 1363.5,-75.5 1482.5,-75.5 1482.5,-56.5 1363.5,-56.5"/>
<text text-anchor="middle" x="1423" y="-63.5" font-family="FreeSans.ttf" font-size="10.00" fill="#000000">iDynTree/Core/Utils.h</text>
</a>
</g>
</g>
<!-- Node0&#45;&gt;Node3 -->
<g id="edge49" class="edge">
<title>Node0&#45;&gt;Node3</title>
<path fill="none" stroke="#191970" d="M754.2658,-590.2346C913.4751,-583.0323 1468,-552.7266 1468,-480 1468,-480 1468,-480 1468,-183.5 1468,-146.3948 1448.1879,-106.7986 1434.8554,-84.3534"/>
<polygon fill="#191970" stroke="#191970" points="1437.674,-82.2557 1429.4474,-75.5793 1431.7149,-85.9287 1437.674,-82.2557"/>
</g>
<!-- Node7 -->
<g id="node8" class="node">
<title>Node7</title>
<polygon fill="none" stroke="#bfbfbf" points="798,-.5 798,-19.5 850,-19.5 850,-.5 798,-.5"/>
<text text-anchor="middle" x="824" y="-7.5" font-family="FreeSans.ttf" font-size="10.00" fill="#000000">cassert</text>
</g>
<!-- Node0&#45;&gt;Node7 -->
<g id="edge77" class="edge">
<title>Node0&#45;&gt;Node7</title>
<path fill="none" stroke="#191970" d="M669.8567,-589.8515C516.9053,-581.5017 0,-548.2356 0,-480 0,-480 0,-480 0,-122 0,-41.2923 628.6917,-16.1252 787.7701,-11.049"/>
<polygon fill="#191970" stroke="#191970" points="788.0924,-14.5407 797.9784,-10.7305 787.8741,-7.5441 788.0924,-14.5407"/>
</g>
<!-- Node26 -->
<g id="node27" class="node">
<title>Node26</title>
<g id="a_node27"><a xlink:href="TransformDerivative_8h.html" target="_top" xlink:title="iDynTree/Core/TransformDerivative.h">
<polygon fill="none" stroke="#000000" points="832.5,-174 832.5,-193 1029.5,-193 1029.5,-174 832.5,-174"/>
<text text-anchor="middle" x="931" y="-181" font-family="FreeSans.ttf" font-size="10.00" fill="#000000">iDynTree/Core/TransformDerivative.h</text>
</a>
</g>
</g>
<!-- Node0&#45;&gt;Node26 -->
<g id="edge46" class="edge">
<title>Node0&#45;&gt;Node26</title>
<path fill="none" stroke="#191970" d="M701.7251,-582.0692C689.9755,-569.4544 673.1889,-546.8167 680,-526 727.6664,-380.3181 863.4823,-245.3437 912.8121,-199.7866"/>
<polygon fill="#191970" stroke="#191970" points="915.1936,-202.3516 920.2164,-193.0231 910.4725,-197.1833 915.1936,-202.3516"/>
</g>
<!-- Node27 -->
<g id="node28" class="node">
<title>Node27</title>
<g id="a_node28"><a xlink:href="FixedJoint_8h.html" target="_top" xlink:title="iDynTree/Model/FixedJoint.h">
<polygon fill="none" stroke="#000000" points="140.5,-409 140.5,-428 291.5,-428 291.5,-409 140.5,-409"/>
<text text-anchor="middle" x="216" y="-416" font-family="FreeSans.ttf" font-size="10.00" fill="#000000">iDynTree/Model/FixedJoint.h</text>
</a>
</g>
</g>
<!-- Node0&#45;&gt;Node27 -->
<g id="edge50" class="edge">
<title>Node0&#45;&gt;Node27</title>
<path fill="none" stroke="#191970" d="M669.9058,-583.1588C601.5598,-568.1326 462.836,-534.827 351,-490 310.7008,-473.847 266.7393,-449.116 240.2773,-433.3823"/>
<polygon fill="#191970" stroke="#191970" points="242.0569,-430.3684 231.6819,-428.2211 238.4534,-436.3696 242.0569,-430.3684"/>
</g>
<!-- Node32 -->
<g id="node33" class="node">
<title>Node32</title>
<g id="a_node33"><a xlink:href="LinkState_8h.html" target="_top" xlink:title="iDynTree/Model/LinkState.h">
<polygon fill="none" stroke="#000000" points="689.5,-526.5 689.5,-545.5 838.5,-545.5 838.5,-526.5 689.5,-526.5"/>
<text text-anchor="middle" x="764" y="-533.5" font-family="FreeSans.ttf" font-size="10.00" fill="#000000">iDynTree/Model/LinkState.h</text>
</a>
</g>
</g>
<!-- Node0&#45;&gt;Node32 -->
<g id="edge61" class="edge">
<title>Node0&#45;&gt;Node32</title>
<path fill="none" stroke="#191970" d="M721.0577,-582.2455C728.5142,-574.2155 739.2634,-562.6394 748.1417,-553.0781"/>
<polygon fill="#191970" stroke="#191970" points="750.8063,-555.3522 755.0461,-545.6427 745.6768,-550.589 750.8063,-555.3522"/>
</g>
<!-- Node2 -->
<g id="node3" class="node">
<title>Node2</title>
<g id="a_node3"><a xlink:href="VectorFixSize_8h.html" target="_top" xlink:title="iDynTree/Core/VectorFixSize.h">
<polygon fill="none" stroke="#000000" points="977.5,-112.5 977.5,-131.5 1138.5,-131.5 1138.5,-112.5 977.5,-112.5"/>
<text text-anchor="middle" x="1058" y="-119.5" font-family="FreeSans.ttf" font-size="10.00" fill="#000000">iDynTree/Core/VectorFixSize.h</text>
</a>
</g>
</g>
<!-- Node1&#45;&gt;Node2 -->
<g id="edge2" class="edge">
<title>Node1&#45;&gt;Node2</title>
<path fill="none" stroke="#191970" d="M1341.7642,-408.3576C1379.8333,-399.0119 1415.6488,-381.1303 1406,-347 1380.5975,-257.145 1372.7843,-221.1356 1296,-168 1272.2501,-151.5648 1205.5489,-139.5298 1148.7821,-131.9012"/>
<polygon fill="#191970" stroke="#191970" points="1149.0464,-128.4059 1138.6759,-130.5747 1148.1354,-135.3464 1149.0464,-128.4059"/>
</g>
<!-- Node18 -->
<g id="node19" class="node">
<title>Node18</title>
<g id="a_node19"><a xlink:href="GeomVector3_8h.html" target="_top" xlink:title="iDynTree/Core/GeomVector3.h">
<polygon fill="none" stroke="#000000" points="1124.5,-174 1124.5,-193 1287.5,-193 1287.5,-174 1124.5,-174"/>
<text text-anchor="middle" x="1206" y="-181" font-family="FreeSans.ttf" font-size="10.00" fill="#000000">iDynTree/Core/GeomVector3.h</text>
</a>
</g>
</g>
<!-- Node1&#45;&gt;Node18 -->
<g id="edge20" class="edge">
<title>Node1&#45;&gt;Node18</title>
<path fill="none" stroke="#191970" d="M1250.0512,-403.4987C1241.908,-393.8254 1232.2344,-380.5568 1227,-367 1205.2089,-310.562 1204.1313,-237.6422 1205.0718,-203.1901"/>
<polygon fill="#191970" stroke="#191970" points="1208.5743,-203.1813 1205.4411,-193.0604 1201.579,-202.9262 1208.5743,-203.1813"/>
</g>
<!-- Node19 -->
<g id="node20" class="node">
<title>Node19</title>
<g id="a_node20"><a xlink:href="SpatialVector_8h.html" target="_top" xlink:title="iDynTree/Core/SpatialVector.h">
<polygon fill="none" stroke="#000000" points="1236.5,-347.5 1236.5,-366.5 1397.5,-366.5 1397.5,-347.5 1236.5,-347.5"/>
<text text-anchor="middle" x="1317" y="-354.5" font-family="FreeSans.ttf" font-size="10.00" fill="#000000">iDynTree/Core/SpatialVector.h</text>
</a>
</g>
</g>
<!-- Node1&#45;&gt;Node19 -->
<g id="edge22" class="edge">
<title>Node1&#45;&gt;Node19</title>
<path fill="none" stroke="#191970" d="M1277.1011,-403.2977C1284.6113,-394.5831 1294.07,-383.6075 1301.8927,-374.5302"/>
<polygon fill="#191970" stroke="#191970" points="1304.6371,-376.707 1308.514,-366.8469 1299.3345,-372.1372 1304.6371,-376.707"/>
</g>
<!-- Node2&#45;&gt;Node3 -->
<g id="edge3" class="edge">
<title>Node2&#45;&gt;Node3</title>
<path fill="none" stroke="#191970" d="M1120.331,-112.4369C1185.0162,-102.5126 1285.9585,-87.0255 1353.2592,-76.7"/>
<polygon fill="#191970" stroke="#191970" points="1353.9948,-80.1281 1363.3483,-75.152 1352.9332,-73.2091 1353.9948,-80.1281"/>
</g>
<!-- Node6 -->
<g id="node7" class="node">
<title>Node6</title>
<g id="a_node7"><a xlink:href="Span_8h.html" target="_top" xlink:title="iDynTree/Core/Span.h">
<polygon fill="none" stroke="#000000" points="1086.5,-56.5 1086.5,-75.5 1207.5,-75.5 1207.5,-56.5 1086.5,-56.5"/>
<text text-anchor="middle" x="1147" y="-63.5" font-family="FreeSans.ttf" font-size="10.00" fill="#000000">iDynTree/Core/Span.h</text>
</a>
</g>
</g>
<!-- Node2&#45;&gt;Node6 -->
<g id="edge6" class="edge">
<title>Node2&#45;&gt;Node6</title>
<path fill="none" stroke="#191970" d="M1073.5026,-112.2455C1087.158,-103.6534 1107.2657,-91.0014 1122.9989,-81.1018"/>
<polygon fill="#191970" stroke="#191970" points="1125.0751,-83.9307 1131.675,-75.6427 1121.3471,-78.006 1125.0751,-83.9307"/>
</g>
<!-- Node2&#45;&gt;Node7 -->
<g id="edge18" class="edge">
<title>Node2&#45;&gt;Node7</title>
<path fill="none" stroke="#191970" d="M1058.1455,-112.341C1057.8064,-97.8851 1054.919,-70.7487 1039,-56 981.0703,-2.3289 942.0397,-37.359 865,-20 863.5258,-19.6678 862.0231,-19.3243 860.5059,-18.9733"/>
<polygon fill="#191970" stroke="#191970" points="860.9711,-15.4869 850.4341,-16.5922 859.3605,-22.2991 860.9711,-15.4869"/>
</g>
<!-- Node15 -->
<g id="node16" class="node">
<title>Node15</title>
<polygon fill="none" stroke="#bfbfbf" points="500,-56.5 500,-75.5 544,-75.5 544,-56.5 500,-56.5"/>
<text text-anchor="middle" x="522" y="-63.5" font-family="FreeSans.ttf" font-size="10.00" fill="#000000">string</text>
</g>
<!-- Node2&#45;&gt;Node15 -->
<g id="edge16" class="edge">
<title>Node2&#45;&gt;Node15</title>
<path fill="none" stroke="#191970" d="M977.4654,-113.5859C857.3553,-101.0371 636.5983,-77.973 554.1655,-69.3606"/>
<polygon fill="#191970" stroke="#191970" points="554.4527,-65.8716 544.1431,-68.3135 553.7252,-72.8337 554.4527,-65.8716"/>
</g>
<!-- Node16 -->
<g id="node17" class="node">
<title>Node16</title>
<polygon fill="none" stroke="#bfbfbf" points="896,-56.5 896,-75.5 952,-75.5 952,-56.5 896,-56.5"/>
<text text-anchor="middle" x="924" y="-63.5" font-family="FreeSans.ttf" font-size="10.00" fill="#000000">sstream</text>
</g>
<!-- Node2&#45;&gt;Node16 -->
<g id="edge17" class="edge">
<title>Node2&#45;&gt;Node16</title>
<path fill="none" stroke="#191970" d="M1034.9646,-112.3733C1013.2612,-103.3032 980.5382,-89.6279 956.245,-79.4755"/>
<polygon fill="#191970" stroke="#191970" points="957.3111,-76.1278 946.7348,-75.5011 954.6119,-82.5865 957.3111,-76.1278"/>
</g>
<!-- Node17 -->
<g id="node18" class="node">
<title>Node17</title>
<polygon fill="none" stroke="#bfbfbf" points="828,-56.5 828,-75.5 878,-75.5 878,-56.5 828,-56.5"/>
<text text-anchor="middle" x="853" y="-63.5" font-family="FreeSans.ttf" font-size="10.00" fill="#000000">cstring</text>
</g>
<!-- Node2&#45;&gt;Node17 -->
<g id="edge19" class="edge">
<title>Node2&#45;&gt;Node17</title>
<path fill="none" stroke="#191970" d="M1021.5724,-112.4634C988.9383,-103.8615 939.528,-90.6946 887.8954,-76.2111"/>
<polygon fill="#191970" stroke="#191970" points="888.8064,-72.8315 878.2322,-73.4921 886.9104,-79.5699 888.8064,-72.8315"/>
</g>
<!-- Node4 -->
<g id="node5" class="node">
<title>Node4</title>
<polygon fill="none" stroke="#bfbfbf" points="1384.5,-.5 1384.5,-19.5 1437.5,-19.5 1437.5,-.5 1384.5,-.5"/>
<text text-anchor="middle" x="1411" y="-7.5" font-family="FreeSans.ttf" font-size="10.00" fill="#000000">cstddef</text>
</g>
<!-- Node3&#45;&gt;Node4 -->
<g id="edge4" class="edge">
<title>Node3&#45;&gt;Node4</title>
<path fill="none" stroke="#191970" d="M1420.9098,-56.2455C1419.3439,-48.9382 1417.1488,-38.6944 1415.2224,-29.7046"/>
<polygon fill="#191970" stroke="#191970" points="1418.584,-28.6873 1413.0663,-19.6427 1411.7393,-30.1541 1418.584,-28.6873"/>
</g>
<!-- Node5 -->
<g id="node6" class="node">
<title>Node5</title>
<polygon fill="none" stroke="#bfbfbf" points="1456,-.5 1456,-19.5 1536,-19.5 1536,-.5 1456,-.5"/>
<text text-anchor="middle" x="1496" y="-7.5" font-family="FreeSans.ttf" font-size="10.00" fill="#000000">CoreExport.h</text>
</g>
<!-- Node3&#45;&gt;Node5 -->
<g id="edge5" class="edge">
<title>Node3&#45;&gt;Node5</title>
<path fill="none" stroke="#191970" d="M1435.7156,-56.2455C1446.602,-47.8943 1462.4883,-35.7076 1475.22,-25.9408"/>
<polygon fill="#191970" stroke="#191970" points="1477.6261,-28.5063 1483.4301,-19.6427 1473.3654,-22.9523 1477.6261,-28.5063"/>
</g>
<!-- Node6&#45;&gt;Node4 -->
<g id="edge10" class="edge">
<title>Node6&#45;&gt;Node4</title>
<path fill="none" stroke="#191970" d="M1199.7588,-56.4694C1243.8577,-48.2513 1308.6062,-35.6028 1374.2115,-20.0579"/>
<polygon fill="#191970" stroke="#191970" points="1375.4072,-23.3708 1384.3191,-17.6413 1373.7793,-16.5627 1375.4072,-23.3708"/>
</g>
<!-- Node6&#45;&gt;Node7 -->
<g id="edge7" class="edge">
<title>Node6&#45;&gt;Node7</title>
<path fill="none" stroke="#191970" d="M1086.2421,-57.4802C1028.9632,-49.1199 940.8348,-35.4091 865,-20 863.5191,-19.6991 862.0107,-19.3818 860.4889,-19.0526"/>
<polygon fill="#191970" stroke="#191970" points="860.9259,-15.5627 850.3987,-16.7575 859.3733,-22.3884 860.9259,-15.5627"/>
</g>
<!-- Node8 -->
<g id="node9" class="node">
<title>Node8</title>
<polygon fill="none" stroke="#bfbfbf" points="1025,-.5 1025,-19.5 1089,-19.5 1089,-.5 1025,-.5"/>
<text text-anchor="middle" x="1057" y="-7.5" font-family="FreeSans.ttf" font-size="10.00" fill="#000000">algorithm</text>
</g>
<!-- Node6&#45;&gt;Node8 -->
<g id="edge8" class="edge">
<title>Node6&#45;&gt;Node8</title>
<path fill="none" stroke="#191970" d="M1131.3232,-56.2455C1117.5144,-47.6534 1097.1807,-35.0014 1081.2708,-25.1018"/>
<polygon fill="#191970" stroke="#191970" points="1082.8368,-21.954 1072.4972,-19.6427 1079.1387,-27.8974 1082.8368,-21.954"/>
</g>
<!-- Node9 -->
<g id="node10" class="node">
<title>Node9</title>
<polygon fill="none" stroke="#bfbfbf" points="1107,-.5 1107,-19.5 1149,-19.5 1149,-.5 1107,-.5"/>
<text text-anchor="middle" x="1128" y="-7.5" font-family="FreeSans.ttf" font-size="10.00" fill="#000000">array</text>
</g>
<!-- Node6&#45;&gt;Node9 -->
<g id="edge9" class="edge">
<title>Node6&#45;&gt;Node9</title>
<path fill="none" stroke="#191970" d="M1143.6905,-56.2455C1141.1567,-48.7776 1137.5823,-38.2427 1134.485,-29.1137"/>
<polygon fill="#191970" stroke="#191970" points="1137.7991,-27.9879 1131.2716,-19.6427 1131.1702,-30.237 1137.7991,-27.9879"/>
</g>
<!-- Node10 -->
<g id="node11" class="node">
<title>Node10</title>
<polygon fill="none" stroke="#bfbfbf" points="1167.5,-.5 1167.5,-19.5 1220.5,-19.5 1220.5,-.5 1167.5,-.5"/>
<text text-anchor="middle" x="1194" y="-7.5" font-family="FreeSans.ttf" font-size="10.00" fill="#000000">iterator</text>
</g>
<!-- Node6&#45;&gt;Node10 -->
<g id="edge11" class="edge">
<title>Node6&#45;&gt;Node10</title>
<path fill="none" stroke="#191970" d="M1155.1868,-56.2455C1161.8589,-48.2958 1171.4479,-36.8706 1179.4253,-27.3656"/>
<polygon fill="#191970" stroke="#191970" points="1182.1592,-29.5525 1185.907,-19.6427 1176.7974,-25.0524 1182.1592,-29.5525"/>
</g>
<!-- Node11 -->
<g id="node12" class="node">
<title>Node11</title>
<polygon fill="none" stroke="#bfbfbf" points="1239,-.5 1239,-19.5 1283,-19.5 1283,-.5 1239,-.5"/>
<text text-anchor="middle" x="1261" y="-7.5" font-family="FreeSans.ttf" font-size="10.00" fill="#000000">limits</text>
</g>
<!-- Node6&#45;&gt;Node11 -->
<g id="edge12" class="edge">
<title>Node6&#45;&gt;Node11</title>
<path fill="none" stroke="#191970" d="M1166.5973,-56.3733C1184.7331,-47.4644 1211.9135,-34.1127 1232.4587,-24.0203"/>
<polygon fill="#191970" stroke="#191970" points="1234.2261,-27.0517 1241.6584,-19.5011 1231.1397,-20.7688 1234.2261,-27.0517"/>
</g>
<!-- Node12 -->
<g id="node13" class="node">
<title>Node12</title>
<polygon fill="none" stroke="#bfbfbf" points="1301.5,-.5 1301.5,-19.5 1366.5,-19.5 1366.5,-.5 1301.5,-.5"/>
<text text-anchor="middle" x="1334" y="-7.5" font-family="FreeSans.ttf" font-size="10.00" fill="#000000">stdexcept</text>
</g>
<!-- Node6&#45;&gt;Node12 -->
<g id="edge13" class="edge">
<title>Node6&#45;&gt;Node12</title>
<path fill="none" stroke="#191970" d="M1179.1464,-56.3733C1210.5109,-46.9807 1258.3665,-32.6496 1292.5716,-22.4064"/>
<polygon fill="#191970" stroke="#191970" points="1293.6975,-25.7229 1302.273,-19.5011 1291.6893,-19.0171 1293.6975,-25.7229"/>
</g>
<!-- Node13 -->
<g id="node14" class="node">
<title>Node13</title>
<polygon fill="none" stroke="#bfbfbf" points="874.5,-.5 874.5,-19.5 943.5,-19.5 943.5,-.5 874.5,-.5"/>
<text text-anchor="middle" x="909" y="-7.5" font-family="FreeSans.ttf" font-size="10.00" fill="#000000">type_traits</text>
</g>
<!-- Node6&#45;&gt;Node13 -->
<g id="edge14" class="edge">
<title>Node6&#45;&gt;Node13</title>
<path fill="none" stroke="#191970" d="M1106.3568,-56.4369C1063.8629,-46.4383 997.3723,-30.7935 953.4935,-20.4691"/>
<polygon fill="#191970" stroke="#191970" points="954.2092,-17.042 943.6734,-18.1584 952.6059,-23.8559 954.2092,-17.042"/>
</g>
<!-- Node14 -->
<g id="node15" class="node">
<title>Node14</title>
<polygon fill="none" stroke="#bfbfbf" points="961.5,-.5 961.5,-19.5 1006.5,-19.5 1006.5,-.5 961.5,-.5"/>
<text text-anchor="middle" x="984" y="-7.5" font-family="FreeSans.ttf" font-size="10.00" fill="#000000">utility</text>
</g>
<!-- Node6&#45;&gt;Node14 -->
<g id="edge15" class="edge">
<title>Node6&#45;&gt;Node14</title>
<path fill="none" stroke="#191970" d="M1118.9793,-56.3733C1090.4384,-46.5678 1046.2314,-31.3801 1016.2506,-21.08"/>
<polygon fill="#191970" stroke="#191970" points="1017.2665,-17.7282 1006.6718,-17.7891 1014.992,-24.3484 1017.2665,-17.7282"/>
</g>
<!-- Node18&#45;&gt;Node2 -->
<g id="edge21" class="edge">
<title>Node18&#45;&gt;Node2</title>
<path fill="none" stroke="#191970" d="M1182.875,-173.8906C1158.0033,-163.5554 1118.2702,-147.0447 1090.3156,-135.4284"/>
<polygon fill="#191970" stroke="#191970" points="1091.5402,-132.1472 1080.9626,-131.5419 1088.854,-138.6113 1091.5402,-132.1472"/>
</g>
<!-- Node19&#45;&gt;Node3 -->
<g id="edge42" class="edge">
<title>Node19&#45;&gt;Node3</title>
<path fill="none" stroke="#191970" d="M1331.818,-347.4819C1343.4417,-339.23 1359.0961,-326.2361 1368,-311 1411.8141,-236.0261 1420.7438,-129.3888 1422.5495,-85.7588"/>
<polygon fill="#191970" stroke="#191970" points="1426.0516,-85.749 1422.8827,-75.6392 1419.0554,-85.5186 1426.0516,-85.749"/>
</g>
<!-- Node19&#45;&gt;Node16 -->
<g id="edge45" class="edge">
<title>Node19&#45;&gt;Node16</title>
<path fill="none" stroke="#191970" d="M1316.8567,-347.4119C1316.5802,-328.0545 1316,-282.9182 1316,-245 1316,-245 1316,-245 1316,-183.5 1316,-21.8667 1129.1221,-109.599 962.1797,-76.0109"/>
<polygon fill="#191970" stroke="#191970" points="962.7426,-72.5518 952.2284,-73.8563 961.2613,-79.3933 962.7426,-72.5518"/>
</g>
<!-- Node19&#45;&gt;Node18 -->
<g id="edge43" class="edge">
<title>Node19&#45;&gt;Node18</title>
<path fill="none" stroke="#191970" d="M1310.874,-347.4248C1293.101,-319.6443 1241.2982,-238.6733 1217.8161,-201.9693"/>
<polygon fill="#191970" stroke="#191970" points="1220.5813,-199.7969 1212.2438,-193.2595 1214.6848,-203.5694 1220.5813,-199.7969"/>
</g>
<!-- Node20 -->
<g id="node21" class="node">
<title>Node20</title>
<g id="a_node21"><a xlink:href="Position_8h.html" target="_top" xlink:title="Position.h">
<polygon fill="none" stroke="#000000" points="489.5,-291.5 489.5,-310.5 554.5,-310.5 554.5,-291.5 489.5,-291.5"/>
<text text-anchor="middle" x="522" y="-298.5" font-family="FreeSans.ttf" font-size="10.00" fill="#000000">Position.h</text>
</a>
</g>
</g>
<!-- Node19&#45;&gt;Node20 -->
<g id="edge23" class="edge">
<title>Node19&#45;&gt;Node20</title>
<path fill="none" stroke="#191970" d="M1236.3961,-351.3222C1069.7592,-339.5843 692.2783,-312.9944 564.8998,-304.0219"/>
<polygon fill="#191970" stroke="#191970" points="564.9815,-300.519 554.7603,-303.3076 564.4896,-307.5017 564.9815,-300.519"/>
</g>
<!-- Node22 -->
<g id="node23" class="node">
<title>Node22</title>
<g id="a_node23"><a xlink:href="Rotation_8h.html" target="_top" xlink:title="iDynTree/Core/Rotation.h">
<polygon fill="none" stroke="#000000" points="555.5,-235.5 555.5,-254.5 692.5,-254.5 692.5,-235.5 555.5,-235.5"/>
<text text-anchor="middle" x="624" y="-242.5" font-family="FreeSans.ttf" font-size="10.00" fill="#000000">iDynTree/Core/Rotation.h</text>
</a>
</g>
</g>
<!-- Node19&#45;&gt;Node22 -->
<g id="edge41" class="edge">
<title>Node19&#45;&gt;Node22</title>
<path fill="none" stroke="#191970" d="M1258.2142,-347.4993C1130.6788,-326.8875 829.1291,-278.1522 692.9113,-256.1372"/>
<polygon fill="#191970" stroke="#191970" points="693.431,-252.6758 683.0006,-254.5355 692.3141,-259.5862 693.431,-252.6758"/>
</g>
<!-- Node25 -->
<g id="node26" class="node">
<title>Node25</title>
<polygon fill="none" stroke="#bfbfbf" points="970,-56.5 970,-75.5 1030,-75.5 1030,-56.5 970,-56.5"/>
<text text-anchor="middle" x="1000" y="-63.5" font-family="FreeSans.ttf" font-size="10.00" fill="#000000">iostream</text>
</g>
<!-- Node19&#45;&gt;Node25 -->
<g id="edge44" class="edge">
<title>Node19&#45;&gt;Node25</title>
<path fill="none" stroke="#191970" d="M1322.4595,-347.4646C1332.7516,-328.5623 1354,-284.7274 1354,-245 1354,-245 1354,-245 1354,-183.5 1354,-149.9798 1355.7941,-133.4072 1330,-112 1327.2197,-109.6925 1127.6166,-82.9471 1040.2289,-71.3308"/>
<polygon fill="#191970" stroke="#191970" points="1040.5228,-67.8392 1030.1489,-69.9919 1039.601,-74.7782 1040.5228,-67.8392"/>
</g>
<!-- Node20&#45;&gt;Node15 -->
<g id="edge40" class="edge">
<title>Node20&#45;&gt;Node15</title>
<path fill="none" stroke="#191970" d="M509.4008,-291.403C489.1137,-275.0594 449.9705,-239.6205 435,-199 417.8188,-152.381 467.8532,-105.541 499.0451,-81.8567"/>
<polygon fill="#191970" stroke="#191970" points="501.287,-84.5526 507.2716,-75.8099 497.1412,-78.9123 501.287,-84.5526"/>
</g>
<!-- Node21 -->
<g id="node22" class="node">
<title>Node21</title>
<g id="a_node22"><a xlink:href="PositionRaw_8h.html" target="_top" xlink:title="iDynTree/Core/PositionRaw.h">
<polygon fill="none" stroke="#000000" points="444,-174 444,-193 600,-193 600,-174 444,-174"/>
<text text-anchor="middle" x="522" y="-181" font-family="FreeSans.ttf" font-size="10.00" fill="#000000">iDynTree/Core/PositionRaw.h</text>
</a>
</g>
</g>
<!-- Node20&#45;&gt;Node21 -->
<g id="edge24" class="edge">
<title>Node20&#45;&gt;Node21</title>
<path fill="none" stroke="#191970" d="M522,-291.3845C522,-272.1913 522,-228.786 522,-203.2663"/>
<polygon fill="#191970" stroke="#191970" points="525.5001,-203.2483 522,-193.2484 518.5001,-203.2484 525.5001,-203.2483"/>
</g>
<!-- Node20&#45;&gt;Node22 -->
<g id="edge27" class="edge">
<title>Node20&#45;&gt;Node22</title>
<path fill="none" stroke="#191970" d="M539.767,-291.2455C555.7095,-282.4928 579.3259,-269.527 597.4989,-259.5496"/>
<polygon fill="#191970" stroke="#191970" points="599.3552,-262.5233 606.4366,-254.6427 595.9863,-256.3873 599.3552,-262.5233"/>
</g>
<!-- Node21&#45;&gt;Node2 -->
<g id="edge25" class="edge">
<title>Node21&#45;&gt;Node2</title>
<path fill="none" stroke="#191970" d="M597.6685,-173.97C613.9377,-171.9622 631.038,-169.8828 647,-168 757.0339,-155.0207 883.7518,-140.9747 967.0587,-131.864"/>
<polygon fill="#191970" stroke="#191970" points="967.6911,-135.3159 977.2517,-130.7502 966.9307,-128.3573 967.6911,-135.3159"/>
</g>
<!-- Node21&#45;&gt;Node15 -->
<g id="edge26" class="edge">
<title>Node21&#45;&gt;Node15</title>
<path fill="none" stroke="#191970" d="M522,-173.8845C522,-154.6913 522,-111.286 522,-85.7663"/>
<polygon fill="#191970" stroke="#191970" points="525.5001,-85.7483 522,-75.7484 518.5001,-85.7484 525.5001,-85.7483"/>
</g>
<!-- Node22&#45;&gt;Node2 -->
<g id="edge39" class="edge">
<title>Node22&#45;&gt;Node2</title>
<path fill="none" stroke="#191970" d="M692.89,-241.5748C803.8774,-235.4366 1012.4761,-221.1016 1038,-199 1054.265,-184.9158 1058.1409,-159.4608 1058.6828,-141.6884"/>
<polygon fill="#191970" stroke="#191970" points="1062.1826,-141.5435 1058.6624,-131.5506 1055.1826,-141.5577 1062.1826,-141.5435"/>
</g>
<!-- Node22&#45;&gt;Node15 -->
<g id="edge28" class="edge">
<title>Node22&#45;&gt;Node15</title>
<path fill="none" stroke="#191970" d="M623.6772,-235.2637C622.8387,-220.1505 619.825,-190.4498 609,-168 592.3852,-133.543 561.2445,-101.2872 541.0778,-82.6088"/>
<polygon fill="#191970" stroke="#191970" points="543.197,-79.8062 533.4339,-75.6913 538.5,-84.9964 543.197,-79.8062"/>
</g>
<!-- Node22&#45;&gt;Node18 -->
<g id="edge29" class="edge">
<title>Node22&#45;&gt;Node18</title>
<path fill="none" stroke="#191970" d="M692.7193,-238.2205C780.6703,-229.4802 937.7302,-213.6583 1072,-199 1085.9975,-197.4719 1100.8116,-195.8066 1115.2865,-194.1528"/>
<polygon fill="#191970" stroke="#191970" points="1115.7031,-197.6281 1125.2392,-193.0116 1114.9056,-190.6736 1115.7031,-197.6281"/>
</g>
<!-- Node23 -->
<g id="node24" class="node">
<title>Node23</title>
<g id="a_node24"><a xlink:href="RotationRaw_8h.html" target="_top" xlink:title="iDynTree/Core/RotationRaw.h">
<polygon fill="none" stroke="#000000" points="656,-174 656,-193 814,-193 814,-174 656,-174"/>
<text text-anchor="middle" x="735" y="-181" font-family="FreeSans.ttf" font-size="10.00" fill="#000000">iDynTree/Core/RotationRaw.h</text>
</a>
</g>
</g>
<!-- Node22&#45;&gt;Node23 -->
<g id="edge30" class="edge">
<title>Node22&#45;&gt;Node23</title>
<path fill="none" stroke="#191970" d="M641.3438,-235.3906C659.4273,-225.3713 687.9859,-209.5483 708.8165,-198.0071"/>
<polygon fill="#191970" stroke="#191970" points="710.7271,-200.9498 717.778,-193.0419 707.3346,-194.8268 710.7271,-200.9498"/>
</g>
<!-- Node23&#45;&gt;Node15 -->
<g id="edge38" class="edge">
<title>Node23&#45;&gt;Node15</title>
<path fill="none" stroke="#191970" d="M724.5576,-173.8182C708.066,-158.9269 674.5135,-130.2186 642,-112 613.6021,-96.0876 578.5965,-83.3716 553.7387,-75.3772"/>
<polygon fill="#191970" stroke="#191970" points="554.6751,-72.0028 544.0858,-72.3456 552.5777,-78.6812 554.6751,-72.0028"/>
</g>
<!-- Node24 -->
<g id="node25" class="node">
<title>Node24</title>
<g id="a_node25"><a xlink:href="MatrixFixSize_8h.html" target="_top" xlink:title="iDynTree/Core/MatrixFixSize.h">
<polygon fill="none" stroke="#000000" points="751.5,-112.5 751.5,-131.5 912.5,-131.5 912.5,-112.5 751.5,-112.5"/>
<text text-anchor="middle" x="832" y="-119.5" font-family="FreeSans.ttf" font-size="10.00" fill="#000000">iDynTree/Core/MatrixFixSize.h</text>
</a>
</g>
</g>
<!-- Node23&#45;&gt;Node24 -->
<g id="edge31" class="edge">
<title>Node23&#45;&gt;Node24</title>
<path fill="none" stroke="#191970" d="M750.1563,-173.8906C765.6743,-164.0519 790.0193,-148.6167 808.1284,-137.1351"/>
<polygon fill="#191970" stroke="#191970" points="810.3787,-139.8526 816.9502,-131.5419 806.6304,-133.9407 810.3787,-139.8526"/>
</g>
<!-- Node24&#45;&gt;Node3 -->
<g id="edge32" class="edge">
<title>Node24&#45;&gt;Node3</title>
<path fill="none" stroke="#191970" d="M912.6282,-114.3601C1029.3314,-103.3019 1243.369,-83.0209 1353.4952,-72.5859"/>
<polygon fill="#191970" stroke="#191970" points="1353.874,-76.0658 1363.4992,-71.638 1353.2136,-69.097 1353.874,-76.0658"/>
</g>
<!-- Node24&#45;&gt;Node7 -->
<g id="edge33" class="edge">
<title>Node24&#45;&gt;Node7</title>
<path fill="none" stroke="#191970" d="M828.4124,-112.2967C825.2159,-103.1001 820.7772,-88.8237 819,-76 816.877,-60.6818 818.3679,-43.2295 820.2598,-30.1202"/>
<polygon fill="#191970" stroke="#191970" points="823.7745,-30.3163 821.9448,-19.8807 816.8674,-29.1796 823.7745,-30.3163"/>
</g>
<!-- Node24&#45;&gt;Node15 -->
<g id="edge35" class="edge">
<title>Node24&#45;&gt;Node15</title>
<path fill="none" stroke="#191970" d="M779.0613,-112.4369C714.5372,-100.7809 607.5353,-81.4515 554.236,-71.8233"/>
<polygon fill="#191970" stroke="#191970" points="554.7837,-68.3656 544.3207,-70.0321 553.5392,-75.2541 554.7837,-68.3656"/>
</g>
<!-- Node24&#45;&gt;Node16 -->
<g id="edge37" class="edge">
<title>Node24&#45;&gt;Node16</title>
<path fill="none" stroke="#191970" d="M848.0252,-112.2455C862.1408,-103.6534 882.9263,-91.0014 899.1899,-81.1018"/>
<polygon fill="#191970" stroke="#191970" points="901.4363,-83.8319 908.1585,-75.6427 897.7966,-77.8525 901.4363,-83.8319"/>
</g>
<!-- Node24&#45;&gt;Node17 -->
<g id="edge34" class="edge">
<title>Node24&#45;&gt;Node17</title>
<path fill="none" stroke="#191970" d="M835.6579,-112.2455C838.4584,-104.7776 842.409,-94.2427 845.8324,-85.1137"/>
<polygon fill="#191970" stroke="#191970" points="849.1499,-86.2349 849.384,-75.6427 842.5955,-83.777 849.1499,-86.2349"/>
</g>
<!-- Node24&#45;&gt;Node25 -->
<g id="edge36" class="edge">
<title>Node24&#45;&gt;Node25</title>
<path fill="none" stroke="#191970" d="M860.8802,-112.3733C888.8161,-103.0613 931.3142,-88.8953 961.9869,-78.671"/>
<polygon fill="#191970" stroke="#191970" points="963.1166,-81.9839 971.4966,-75.5011 960.903,-75.3431 963.1166,-81.9839"/>
</g>
<!-- Node26&#45;&gt;Node2 -->
<g id="edge47" class="edge">
<title>Node26&#45;&gt;Node2</title>
<path fill="none" stroke="#191970" d="M950.8438,-173.8906C971.8136,-163.7359 1005.0944,-147.6196 1029.0036,-136.0416"/>
<polygon fill="#191970" stroke="#191970" points="1030.8208,-139.0504 1038.2956,-131.5419 1027.7699,-132.7502 1030.8208,-139.0504"/>
</g>
<!-- Node26&#45;&gt;Node24 -->
<g id="edge48" class="edge">
<title>Node26&#45;&gt;Node24</title>
<path fill="none" stroke="#191970" d="M915.5313,-173.8906C899.5479,-163.9616 874.3897,-148.333 855.8567,-136.8201"/>
<polygon fill="#191970" stroke="#191970" points="857.7015,-133.8457 847.3601,-131.5419 854.0076,-139.7918 857.7015,-133.8457"/>
</g>
<!-- Node28 -->
<g id="node29" class="node">
<title>Node28</title>
<g id="a_node29"><a xlink:href="Transform_8h.html" target="_top" xlink:title="iDynTree/Core/Transform.h">
<polygon fill="none" stroke="#000000" points="448,-347.5 448,-366.5 594,-366.5 594,-347.5 448,-347.5"/>
<text text-anchor="middle" x="521" y="-354.5" font-family="FreeSans.ttf" font-size="10.00" fill="#000000">iDynTree/Core/Transform.h</text>
</a>
</g>
</g>
<!-- Node27&#45;&gt;Node28 -->
<g id="edge51" class="edge">
<title>Node27&#45;&gt;Node28</title>
<path fill="none" stroke="#191970" d="M263.3216,-408.9581C317.3834,-398.0571 405.8288,-380.223 463.7328,-368.5473"/>
<polygon fill="#191970" stroke="#191970" points="464.7075,-371.9213 473.8183,-366.5137 463.3238,-365.0594 464.7075,-371.9213"/>
</g>
<!-- Node29 -->
<g id="node30" class="node">
<title>Node29</title>
<g id="a_node30"><a xlink:href="Indices_8h.html" target="_top" xlink:title="iDynTree/Model/Indices.h">
<polygon fill="none" stroke="#000000" points="31,-291.5 31,-310.5 169,-310.5 169,-291.5 31,-291.5"/>
<text text-anchor="middle" x="100" y="-298.5" font-family="FreeSans.ttf" font-size="10.00" fill="#000000">iDynTree/Model/Indices.h</text>
</a>
</g>
</g>
<!-- Node27&#45;&gt;Node29 -->
<g id="edge56" class="edge">
<title>Node27&#45;&gt;Node29</title>
<path fill="none" stroke="#191970" d="M198.3772,-408.951C182.3821,-399.6924 158.7975,-384.5054 142,-367 128.531,-352.9633 116.9859,-333.9726 109.4283,-319.9657"/>
<polygon fill="#191970" stroke="#191970" points="112.3766,-318.0487 104.6595,-310.7894 106.1653,-321.2767 112.3766,-318.0487"/>
</g>
<!-- Node31 -->
<g id="node32" class="node">
<title>Node31</title>
<g id="a_node32"><a xlink:href="IJoint_8h.html" target="_top" xlink:title="iDynTree/Model/IJoint.h">
<polygon fill="none" stroke="#000000" points="151,-347.5 151,-366.5 279,-366.5 279,-347.5 151,-347.5"/>
<text text-anchor="middle" x="215" y="-354.5" font-family="FreeSans.ttf" font-size="10.00" fill="#000000">iDynTree/Model/IJoint.h</text>
</a>
</g>
</g>
<!-- Node27&#45;&gt;Node31 -->
<g id="edge59" class="edge">
<title>Node27&#45;&gt;Node31</title>
<path fill="none" stroke="#191970" d="M215.8438,-408.8906C215.7051,-400.3657 215.4982,-387.6392 215.324,-376.9235"/>
<polygon fill="#191970" stroke="#191970" points="218.8207,-376.6866 215.1585,-366.7449 211.8216,-376.8005 218.8207,-376.6866"/>
</g>
<!-- Node28&#45;&gt;Node15 -->
<g id="edge55" class="edge">
<title>Node28&#45;&gt;Node15</title>
<path fill="none" stroke="#191970" d="M460.818,-347.4684C349.6565,-327.1428 129.5297,-272.6278 199,-168 231.8638,-118.5045 414.079,-83.5967 489.4032,-71.0843"/>
<polygon fill="#191970" stroke="#191970" points="490.405,-74.4671 499.7105,-69.4016 489.2772,-67.5586 490.405,-74.4671"/>
</g>
<!-- Node28&#45;&gt;Node20 -->
<g id="edge52" class="edge">
<title>Node28&#45;&gt;Node20</title>
<path fill="none" stroke="#191970" d="M521.1742,-347.2455C521.3047,-339.9382 521.4876,-329.6944 521.6481,-320.7046"/>
<polygon fill="#191970" stroke="#191970" points="525.1486,-320.7036 521.8278,-310.6427 518.1497,-320.5786 525.1486,-320.7036"/>
</g>
<!-- Node28&#45;&gt;Node22 -->
<g id="edge53" class="edge">
<title>Node28&#45;&gt;Node22</title>
<path fill="none" stroke="#191970" d="M529.7817,-347.4509C547.1889,-328.5227 586.2817,-286.014 608.2485,-262.1279"/>
<polygon fill="#191970" stroke="#191970" points="611.0476,-264.2547 615.2405,-254.5249 605.8951,-259.5163 611.0476,-264.2547"/>
</g>
<!-- Node28&#45;&gt;Node24 -->
<g id="edge54" class="edge">
<title>Node28&#45;&gt;Node24</title>
<path fill="none" stroke="#191970" d="M509.7465,-347.2269C476.5032,-317.231 384.1642,-225.0663 435,-168 455.028,-145.5173 630.418,-132.3748 741.2753,-126.2427"/>
<polygon fill="#191970" stroke="#191970" points="741.6672,-129.7267 751.4624,-125.6888 741.2871,-122.737 741.6672,-129.7267"/>
</g>
<!-- Node29&#45;&gt;Node15 -->
<g id="edge57" class="edge">
<title>Node29&#45;&gt;Node15</title>
<path fill="none" stroke="#191970" d="M105.4343,-291.3528C110.4444,-282.1957 117.861,-267.9462 123,-255 147.4856,-193.3153 115.3942,-154.9371 166,-112 190.4977,-91.2147 406.5197,-74.0679 489.6202,-68.1845"/>
<polygon fill="#191970" stroke="#191970" points="490.0227,-71.665 499.7544,-67.4764 489.5347,-64.682 490.0227,-71.665"/>
</g>
<!-- Node30 -->
<g id="node31" class="node">
<title>Node30</title>
<polygon fill="none" stroke="#bfbfbf" points="28,-235.5 28,-254.5 114,-254.5 114,-235.5 28,-235.5"/>
<text text-anchor="middle" x="71" y="-242.5" font-family="FreeSans.ttf" font-size="10.00" fill="#000000">ModelExport.h</text>
</g>
<!-- Node29&#45;&gt;Node30 -->
<g id="edge58" class="edge">
<title>Node29&#45;&gt;Node30</title>
<path fill="none" stroke="#191970" d="M94.9486,-291.2455C90.9981,-283.617 85.3903,-272.7881 80.5942,-263.5267"/>
<polygon fill="#191970" stroke="#191970" points="83.7001,-261.9131 75.9935,-254.6427 77.4841,-265.1321 83.7001,-261.9131"/>
</g>
<!-- Node31&#45;&gt;Node29 -->
<g id="edge60" class="edge">
<title>Node31&#45;&gt;Node29</title>
<path fill="none" stroke="#191970" d="M195.2308,-347.3733C176.8531,-338.4241 149.2688,-324.9917 128.5107,-314.8835"/>
<polygon fill="#191970" stroke="#191970" points="130.0343,-311.7325 119.5112,-310.5011 126.9696,-318.026 130.0343,-311.7325"/>
</g>
<!-- Node32&#45;&gt;Node28 -->
<g id="edge62" class="edge">
<title>Node32&#45;&gt;Node28</title>
<path fill="none" stroke="#191970" d="M753.7857,-526.4598C744.6868,-517.6031 731.3967,-503.7496 722,-490 697.6635,-454.3899 712.0574,-430.7047 679,-403 663.6233,-390.1131 617.5617,-377.5207 579.1128,-368.7786"/>
<polygon fill="#191970" stroke="#191970" points="579.5366,-365.2873 569.0149,-366.5297 578.0149,-372.1199 579.5366,-365.2873"/>
</g>
<!-- Node32&#45;&gt;Node29 -->
<g id="edge75" class="edge">
<title>Node32&#45;&gt;Node29</title>
<path fill="none" stroke="#191970" d="M740.5649,-526.4741C651.1965,-490.1783 334.4816,-361.8364 288,-347 244.6957,-333.1777 194.6598,-321.1184 157.0996,-312.8188"/>
<polygon fill="#191970" stroke="#191970" points="157.3692,-309.2951 146.8525,-310.5792 155.8745,-316.1337 157.3692,-309.2951"/>
</g>
<!-- Node33 -->
<g id="node34" class="node">
<title>Node33</title>
<g id="a_node34"><a xlink:href="Twist_8h.html" target="_top" xlink:title="iDynTree/Core/Twist.h">
<polygon fill="none" stroke="#000000" points="1114,-470.5 1114,-489.5 1236,-489.5 1236,-470.5 1114,-470.5"/>
<text text-anchor="middle" x="1175" y="-477.5" font-family="FreeSans.ttf" font-size="10.00" fill="#000000">iDynTree/Core/Twist.h</text>
</a>
</g>
</g>
<!-- Node32&#45;&gt;Node33 -->
<g id="edge63" class="edge">
<title>Node32&#45;&gt;Node33</title>
<path fill="none" stroke="#191970" d="M835.8697,-526.4708C902.6036,-517.5845 1005.0263,-503.8501 1103.7624,-490.164"/>
<polygon fill="#191970" stroke="#191970" points="1104.4966,-493.5957 1113.9206,-488.7543 1103.5344,-486.6622 1104.4966,-493.5957"/>
</g>
<!-- Node34 -->
<g id="node35" class="node">
<title>Node34</title>
<g id="a_node35"><a xlink:href="SpatialAcc_8h.html" target="_top" xlink:title="iDynTree/Core/SpatialAcc.h">
<polygon fill="none" stroke="#000000" points="948,-470.5 948,-489.5 1096,-489.5 1096,-470.5 948,-470.5"/>
<text text-anchor="middle" x="1022" y="-477.5" font-family="FreeSans.ttf" font-size="10.00" fill="#000000">iDynTree/Core/SpatialAcc.h</text>
</a>
</g>
</g>
<!-- Node32&#45;&gt;Node34 -->
<g id="edge65" class="edge">
<title>Node32&#45;&gt;Node34</title>
<path fill="none" stroke="#191970" d="M808.0586,-526.4369C852.3989,-516.8127 920.8411,-501.957 968.3249,-491.6504"/>
<polygon fill="#191970" stroke="#191970" points="969.0931,-495.0653 978.1231,-489.5237 967.6082,-488.2245 969.0931,-495.0653"/>
</g>
<!-- Node35 -->
<g id="node36" class="node">
<title>Node35</title>
<g id="a_node36"><a xlink:href="Wrench_8h.html" target="_top" xlink:title="iDynTree/Core/Wrench.h">
<polygon fill="none" stroke="#000000" points="731.5,-470.5 731.5,-489.5 864.5,-489.5 864.5,-470.5 731.5,-470.5"/>
<text text-anchor="middle" x="798" y="-477.5" font-family="FreeSans.ttf" font-size="10.00" fill="#000000">iDynTree/Core/Wrench.h</text>
</a>
</g>
</g>
<!-- Node32&#45;&gt;Node35 -->
<g id="edge67" class="edge">
<title>Node32&#45;&gt;Node35</title>
<path fill="none" stroke="#191970" d="M769.9223,-526.2455C774.6027,-518.5367 781.2673,-507.5598 786.9289,-498.2348"/>
<polygon fill="#191970" stroke="#191970" points="789.9475,-500.007 792.1455,-489.6427 783.9639,-496.3741 789.9475,-500.007"/>
</g>
<!-- Node37 -->
<g id="node38" class="node">
<title>Node37</title>
<g id="a_node38"><a xlink:href="ArticulatedBodyInertia_8h.html" target="_top" xlink:title="iDynTree/Core/Articulated\lBodyInertia.h">
<polygon fill="none" stroke="#000000" points="208.5,-168.5 208.5,-198.5 349.5,-198.5 349.5,-168.5 208.5,-168.5"/>
<text text-anchor="start" x="216.5" y="-186.5" font-family="FreeSans.ttf" font-size="10.00" fill="#000000">iDynTree/Core/Articulated</text>
<text text-anchor="middle" x="279" y="-175.5" font-family="FreeSans.ttf" font-size="10.00" fill="#000000">BodyInertia.h</text>
</a>
</g>
</g>
<!-- Node32&#45;&gt;Node37 -->
<g id="edge72" class="edge">
<title>Node32&#45;&gt;Node37</title>
<path fill="none" stroke="#191970" d="M745.9751,-526.2931C721.8837,-513.345 677.8286,-489.7582 640,-470 551.0258,-423.5281 518.0753,-428.8316 439,-367 377.3494,-318.7934 321.1801,-244.3277 294.8136,-206.8052"/>
<polygon fill="#191970" stroke="#191970" points="297.6405,-204.7398 289.0594,-198.5256 291.8923,-208.7347 297.6405,-204.7398"/>
</g>
<!-- Node38 -->
<g id="node39" class="node">
<title>Node38</title>
<polygon fill="none" stroke="#bfbfbf" points="882.5,-470.5 882.5,-489.5 929.5,-489.5 929.5,-470.5 882.5,-470.5"/>
<text text-anchor="middle" x="906" y="-477.5" font-family="FreeSans.ttf" font-size="10.00" fill="#000000">vector</text>
</g>
<!-- Node32&#45;&gt;Node38 -->
<g id="edge76" class="edge">
<title>Node32&#45;&gt;Node38</title>
<path fill="none" stroke="#191970" d="M788.4107,-526.3733C811.7549,-517.1671 847.1296,-503.2165 872.9825,-493.021"/>
<polygon fill="#191970" stroke="#191970" points="874.361,-496.2397 882.3797,-489.315 871.7929,-489.7278 874.361,-496.2397"/>
</g>
<!-- Node33&#45;&gt;Node1 -->
<g id="edge64" class="edge">
<title>Node33&#45;&gt;Node1</title>
<path fill="none" stroke="#191970" d="M1188.9063,-470.3906C1200.8398,-462.1444 1218.4626,-449.9669 1233.6377,-439.4807"/>
<polygon fill="#191970" stroke="#191970" points="1235.9909,-442.1089 1242.2282,-433.5446 1232.0115,-436.3501 1235.9909,-442.1089"/>
</g>
<!-- Node34&#45;&gt;Node1 -->
<g id="edge66" class="edge">
<title>Node34&#45;&gt;Node1</title>
<path fill="none" stroke="#191970" d="M1059.547,-470.4581C1095.5873,-461.2991 1150.8864,-447.2458 1194.8901,-436.0631"/>
<polygon fill="#191970" stroke="#191970" points="1195.8372,-439.4337 1204.667,-433.5784 1194.113,-432.6494 1195.8372,-439.4337"/>
</g>
<!-- Node36 -->
<g id="node37" class="node">
<title>Node36</title>
<g id="a_node37"><a xlink:href="SpatialForceVector_8h.html" target="_top" xlink:title="iDynTree/Core/SpatialForce\lVector.h">
<polygon fill="none" stroke="#000000" points="1020,-403.5 1020,-433.5 1168,-433.5 1168,-403.5 1020,-403.5"/>
<text text-anchor="start" x="1028" y="-421.5" font-family="FreeSans.ttf" font-size="10.00" fill="#000000">iDynTree/Core/SpatialForce</text>
<text text-anchor="middle" x="1094" y="-410.5" font-family="FreeSans.ttf" font-size="10.00" fill="#000000">Vector.h</text>
</a>
</g>
</g>
<!-- Node35&#45;&gt;Node36 -->
<g id="edge68" class="edge">
<title>Node35&#45;&gt;Node36</title>
<path fill="none" stroke="#191970" d="M843.9252,-470.4581C888.6397,-461.1678 957.5908,-446.8418 1011.7755,-435.5838"/>
<polygon fill="#191970" stroke="#191970" points="1012.633,-438.9805 1021.7119,-433.5193 1011.209,-432.1268 1012.633,-438.9805"/>
</g>
<!-- Node36&#45;&gt;Node2 -->
<g id="edge69" class="edge">
<title>Node36&#45;&gt;Node2</title>
<path fill="none" stroke="#191970" d="M1092.1653,-403.3889C1086.1724,-354.0314 1067.1716,-197.5381 1060.4142,-141.8834"/>
<polygon fill="#191970" stroke="#191970" points="1063.847,-141.1179 1059.1671,-131.6127 1056.8981,-141.9617 1063.847,-141.1179"/>
</g>
<!-- Node36&#45;&gt;Node18 -->
<g id="edge70" class="edge">
<title>Node36&#45;&gt;Node18</title>
<path fill="none" stroke="#191970" d="M1101.1765,-403.4422C1120.7951,-362.2781 1175.2991,-247.9171 1196.9577,-202.4726"/>
<polygon fill="#191970" stroke="#191970" points="1200.2463,-203.7076 1201.3891,-193.1746 1193.9272,-200.696 1200.2463,-203.7076"/>
</g>
<!-- Node36&#45;&gt;Node19 -->
<g id="edge71" class="edge">
<title>Node36&#45;&gt;Node19</title>
<path fill="none" stroke="#191970" d="M1148.5519,-403.4554C1186.7392,-392.9239 1237.1088,-379.0328 1272.7906,-369.1923"/>
<polygon fill="#191970" stroke="#191970" points="1273.7333,-372.563 1282.4429,-366.5303 1271.8723,-365.8149 1273.7333,-372.563"/>
</g>
<!-- Node37&#45;&gt;Node15 -->
<g id="edge74" class="edge">
<title>Node37&#45;&gt;Node15</title>
<path fill="none" stroke="#191970" d="M293.2394,-168.2154C309.0744,-152.0678 336.116,-126.9206 364,-112 404.6866,-90.2288 456.9285,-77.6184 489.948,-71.2757"/>
<polygon fill="#191970" stroke="#191970" points="490.7534,-74.6863 499.9541,-69.4329 489.4856,-67.8021 490.7534,-74.6863"/>
</g>
<!-- Node37&#45;&gt;Node24 -->
<g id="edge73" class="edge">
<title>Node37&#45;&gt;Node24</title>
<path fill="none" stroke="#191970" d="M349.5445,-174.3793C366.7022,-172.2248 385.0041,-169.9798 402,-168 518.9268,-154.3797 653.9263,-140.188 740.9992,-131.234"/>
<polygon fill="#191970" stroke="#191970" points="741.5223,-134.6988 751.1124,-130.1954 740.8071,-127.7354 741.5223,-134.6988"/>
</g>
</g>
</svg>
