<?xml version="1.0" encoding="UTF-8" standalone="no"?>
<!DOCTYPE svg PUBLIC "-//W3C//DTD SVG 1.1//EN"
 "http://www.w3.org/Graphics/SVG/1.1/DTD/svg11.dtd">
<!-- Generated by graphviz version 2.40.1 (20161225.0304)
 -->
<!-- Title: FixedStepIntegrator.cpp Pages: 1 -->
<svg width="1940pt" height="554pt"
 viewBox="0.00 0.00 1940.00 554.00" xmlns="http://www.w3.org/2000/svg" xmlns:xlink="http://www.w3.org/1999/xlink">
<g id="graph0" class="graph" transform="scale(1 1) rotate(0) translate(4 550)">
<title>FixedStepIntegrator.cpp</title>
<!-- Node0 -->
<g id="node1" class="node">
<title>Node0</title>
<polygon fill="#bfbfbf" stroke="#000000" points="906,-526.5 906,-545.5 1037,-545.5 1037,-526.5 906,-526.5"/>
<text text-anchor="middle" x="971.5" y="-533.5" font-family="FreeSans.ttf" font-size="10.00" fill="#000000">FixedStepIntegrator.cpp</text>
</g>
<!-- Node1 -->
<g id="node2" class="node">
<title>Node1</title>
<g id="a_node2"><a xlink:href="FixedStepIntegrator_8h.html" target="_top" xlink:title="iDynTree/Integrators\l/FixedStepIntegrator.h">
<polygon fill="none" stroke="#000000" points="455,-224.5 455,-254.5 578,-254.5 578,-224.5 455,-224.5"/>
<text text-anchor="start" x="463" y="-242.5" font-family="FreeSans.ttf" font-size="10.00" fill="#000000">iDynTree/Integrators</text>
<text text-anchor="middle" x="516.5" y="-231.5" font-family="FreeSans.ttf" font-size="10.00" fill="#000000">/FixedStepIntegrator.h</text>
</a>
</g>
</g>
<!-- Node0&#45;&gt;Node1 -->
<g id="edge1" class="edge">
<title>Node0&#45;&gt;Node1</title>
<path fill="none" stroke="#191970" d="M905.8229,-531.3877C821.0197,-524.7054 678.6127,-510.8085 630.5,-490 584.247,-469.9958 542.5,-468.8935 542.5,-418.5 542.5,-418.5 542.5,-418.5 542.5,-357 542.5,-324.4228 532.8544,-287.9395 525.3132,-264.394"/>
<polygon fill="#191970" stroke="#191970" points="528.6155,-263.2325 522.1416,-254.8456 521.9724,-265.4391 528.6155,-263.2325"/>
</g>
<!-- Node14 -->
<g id="node15" class="node">
<title>Node14</title>
<polygon fill="none" stroke="#bfbfbf" points="752.5,-56.5 752.5,-75.5 796.5,-75.5 796.5,-56.5 752.5,-56.5"/>
<text text-anchor="middle" x="774.5" y="-63.5" font-family="FreeSans.ttf" font-size="10.00" fill="#000000">string</text>
</g>
<!-- Node0&#45;&gt;Node14 -->
<g id="edge87" class="edge">
<title>Node0&#45;&gt;Node14</title>
<path fill="none" stroke="#191970" d="M905.7265,-534.9409C687.8555,-530.5721 3.5,-509.5987 3.5,-418.5 3.5,-418.5 3.5,-418.5 3.5,-178 3.5,-147.4754 -1.3156,-131.0937 22.5,-112 50.9704,-89.1744 601.3696,-71.1853 742.0037,-66.9485"/>
<polygon fill="#191970" stroke="#191970" points="742.2534,-70.4427 752.1444,-66.6456 742.0443,-63.4459 742.2534,-70.4427"/>
</g>
<!-- Node17 -->
<g id="node18" class="node">
<title>Node17</title>
<g id="a_node18"><a xlink:href="Utils_8h.html" target="_top" xlink:title="iDynTree/Core/Utils.h">
<polygon fill="none" stroke="#000000" points="948,-56.5 948,-75.5 1067,-75.5 1067,-56.5 948,-56.5"/>
<text text-anchor="middle" x="1007.5" y="-63.5" font-family="FreeSans.ttf" font-size="10.00" fill="#000000">iDynTree/Core/Utils.h</text>
</a>
</g>
</g>
<!-- Node0&#45;&gt;Node17 -->
<g id="edge83" class="edge">
<title>Node0&#45;&gt;Node17</title>
<path fill="none" stroke="#191970" d="M908.0634,-526.4492C812.97,-510.3197 644.5,-473.9232 644.5,-418.5 644.5,-418.5 644.5,-418.5 644.5,-301 644.5,-160.9981 837.1245,-100.2644 941.7371,-77.6038"/>
<polygon fill="#191970" stroke="#191970" points="942.5145,-81.017 951.5768,-75.5283 941.0697,-74.1677 942.5145,-81.017"/>
</g>
<!-- Node23 -->
<g id="node24" class="node">
<title>Node23</title>
<g id="a_node24"><a xlink:href="DynamicalSystem_8h.html" target="_top" xlink:title="iDynTree/DynamicalSystem.h">
<polygon fill="none" stroke="#000000" points="349,-168.5 349,-187.5 510,-187.5 510,-168.5 349,-168.5"/>
<text text-anchor="middle" x="429.5" y="-175.5" font-family="FreeSans.ttf" font-size="10.00" fill="#000000">iDynTree/DynamicalSystem.h</text>
</a>
</g>
</g>
<!-- Node0&#45;&gt;Node23 -->
<g id="edge30" class="edge">
<title>Node0&#45;&gt;Node23</title>
<path fill="none" stroke="#191970" d="M905.9096,-530.985C810.0927,-523.213 636.7072,-507.337 576.5,-490 505.5307,-469.564 426.5,-492.353 426.5,-418.5 426.5,-418.5 426.5,-418.5 426.5,-301 426.5,-264.4885 427.8374,-221.8988 428.7263,-197.6249"/>
<polygon fill="#191970" stroke="#191970" points="432.2262,-197.6927 429.1078,-187.5672 425.2312,-197.4273 432.2262,-197.6927"/>
</g>
<!-- Node24 -->
<g id="node25" class="node">
<title>Node24</title>
<g id="a_node25"><a xlink:href="EigenHelpers_8h.html" target="_top" xlink:title="iDynTree/Core/EigenHelpers.h">
<polygon fill="none" stroke="#000000" points="1072,-470.5 1072,-489.5 1233,-489.5 1233,-470.5 1072,-470.5"/>
<text text-anchor="middle" x="1152.5" y="-477.5" font-family="FreeSans.ttf" font-size="10.00" fill="#000000">iDynTree/Core/EigenHelpers.h</text>
</a>
</g>
</g>
<!-- Node0&#45;&gt;Node24 -->
<g id="edge33" class="edge">
<title>Node0&#45;&gt;Node24</title>
<path fill="none" stroke="#191970" d="M1002.615,-526.3733C1032.8429,-517.021 1078.896,-502.7725 1111.9739,-492.5385"/>
<polygon fill="#191970" stroke="#191970" points="1113.2723,-495.8005 1121.791,-489.5011 1111.2033,-489.1133 1113.2723,-495.8005"/>
</g>
<!-- Node27 -->
<g id="node28" class="node">
<title>Node27</title>
<polygon fill="none" stroke="#bfbfbf" points="1711.5,-56.5 1711.5,-75.5 1767.5,-75.5 1767.5,-56.5 1711.5,-56.5"/>
<text text-anchor="middle" x="1739.5" y="-63.5" font-family="FreeSans.ttf" font-size="10.00" fill="#000000">sstream</text>
</g>
<!-- Node0&#45;&gt;Node27 -->
<g id="edge86" class="edge">
<title>Node0&#45;&gt;Node27</title>
<path fill="none" stroke="#191970" d="M1037.3425,-533.3883C1230.8898,-524.8429 1784.5,-493.8171 1784.5,-418.5 1784.5,-418.5 1784.5,-418.5 1784.5,-178 1784.5,-142.7698 1765.0922,-105.5087 1751.7676,-84.0783"/>
<polygon fill="#191970" stroke="#191970" points="1754.6988,-82.1655 1746.3345,-75.6623 1748.8178,-85.9621 1754.6988,-82.1655"/>
</g>
<!-- Node40 -->
<g id="node41" class="node">
<title>Node40</title>
<polygon fill="none" stroke="#bfbfbf" points="1812.5,-470.5 1812.5,-489.5 1862.5,-489.5 1862.5,-470.5 1812.5,-470.5"/>
<text text-anchor="middle" x="1837.5" y="-477.5" font-family="FreeSans.ttf" font-size="10.00" fill="#000000">stdio.h</text>
</g>
<!-- Node0&#45;&gt;Node40 -->
<g id="edge84" class="edge">
<title>Node0&#45;&gt;Node40</title>
<path fill="none" stroke="#191970" d="M1037.068,-534.0092C1205.8213,-528.6198 1652.1243,-512.6145 1798.5,-490 1799.7823,-489.8019 1801.0837,-489.5799 1802.3946,-489.3386"/>
<polygon fill="#191970" stroke="#191970" points="1803.4265,-492.6972 1812.4743,-487.1847 1801.9636,-485.8518 1803.4265,-492.6972"/>
</g>
<!-- Node41 -->
<g id="node42" class="node">
<title>Node41</title>
<polygon fill="none" stroke="#bfbfbf" points="1881,-470.5 1881,-489.5 1932,-489.5 1932,-470.5 1881,-470.5"/>
<text text-anchor="middle" x="1906.5" y="-477.5" font-family="FreeSans.ttf" font-size="10.00" fill="#000000">math.h</text>
</g>
<!-- Node0&#45;&gt;Node41 -->
<g id="edge85" class="edge">
<title>Node0&#45;&gt;Node41</title>
<path fill="none" stroke="#191970" d="M1037.3044,-534.5758C1213.1604,-530.4665 1692.1805,-517.2092 1870.6092,-489.7099"/>
<polygon fill="#191970" stroke="#191970" points="1871.3397,-493.1374 1880.6562,-488.0923 1870.227,-486.2265 1871.3397,-493.1374"/>
</g>
<!-- Node2 -->
<g id="node3" class="node">
<title>Node2</title>
<g id="a_node3"><a xlink:href="Integrator_8h.html" target="_top" xlink:title="iDynTree/Integrator.h">
<polygon fill="none" stroke="#000000" points="212,-168.5 212,-187.5 331,-187.5 331,-168.5 212,-168.5"/>
<text text-anchor="middle" x="271.5" y="-175.5" font-family="FreeSans.ttf" font-size="10.00" fill="#000000">iDynTree/Integrator.h</text>
</a>
</g>
</g>
<!-- Node1&#45;&gt;Node2 -->
<g id="edge2" class="edge">
<title>Node1&#45;&gt;Node2</title>
<path fill="none" stroke="#191970" d="M456.5663,-224.4554C414.3427,-213.8564 358.5629,-199.8546 319.319,-190.0035"/>
<polygon fill="#191970" stroke="#191970" points="320.0176,-186.5704 309.4663,-187.5303 318.3132,-193.3597 320.0176,-186.5704"/>
</g>
<!-- Node3 -->
<g id="node4" class="node">
<title>Node3</title>
<g id="a_node4"><a xlink:href="VectorDynSize_8h.html" target="_top" xlink:title="iDynTree/Core/VectorDynSize.h">
<polygon fill="none" stroke="#000000" points="561,-112.5 561,-131.5 728,-131.5 728,-112.5 561,-112.5"/>
<text text-anchor="middle" x="644.5" y="-119.5" font-family="FreeSans.ttf" font-size="10.00" fill="#000000">iDynTree/Core/VectorDynSize.h</text>
</a>
</g>
</g>
<!-- Node1&#45;&gt;Node3 -->
<g id="edge29" class="edge">
<title>Node1&#45;&gt;Node3</title>
<path fill="none" stroke="#191970" d="M532.9717,-224.3795C556.9944,-202.3274 601.4842,-161.4871 626.3969,-138.6181"/>
<polygon fill="#191970" stroke="#191970" points="629.0372,-140.9455 634.0371,-131.6046 624.3034,-135.7887 629.0372,-140.9455"/>
</g>
<!-- Node2&#45;&gt;Node3 -->
<g id="edge3" class="edge">
<title>Node2&#45;&gt;Node3</title>
<path fill="none" stroke="#191970" d="M331.0154,-169.0647C396.1982,-159.2786 500.7928,-143.5753 571.0362,-133.0294"/>
<polygon fill="#191970" stroke="#191970" points="571.7724,-136.4582 581.1419,-131.5122 570.7331,-129.5358 571.7724,-136.4582"/>
</g>
<!-- Node2&#45;&gt;Node14 -->
<g id="edge26" class="edge">
<title>Node2&#45;&gt;Node14</title>
<path fill="none" stroke="#191970" d="M271.1586,-168.1176C271.2418,-153.3699 273.7995,-125.8575 290.5,-112 325.2404,-83.1738 639.9097,-70.4023 742.3964,-66.9831"/>
<polygon fill="#191970" stroke="#191970" points="742.5776,-70.4792 752.4582,-66.655 742.3494,-63.4829 742.5776,-70.4792"/>
</g>
<!-- Node15 -->
<g id="node16" class="node">
<title>Node15</title>
<g id="a_node16"><a xlink:href="MatrixDynSize_8h.html" target="_top" xlink:title="iDynTree/Core/MatrixDynSize.h">
<polygon fill="none" stroke="#000000" points="376,-112.5 376,-131.5 543,-131.5 543,-112.5 376,-112.5"/>
<text text-anchor="middle" x="459.5" y="-119.5" font-family="FreeSans.ttf" font-size="10.00" fill="#000000">iDynTree/Core/MatrixDynSize.h</text>
</a>
</g>
</g>
<!-- Node2&#45;&gt;Node15 -->
<g id="edge15" class="edge">
<title>Node2&#45;&gt;Node15</title>
<path fill="none" stroke="#191970" d="M303.8184,-168.3733C335.3506,-158.9807 383.4621,-144.6496 417.8501,-134.4064"/>
<polygon fill="#191970" stroke="#191970" points="419.0187,-137.7103 427.6034,-131.5011 417.0203,-131.0016 419.0187,-137.7103"/>
</g>
<!-- Node16 -->
<g id="node17" class="node">
<title>Node16</title>
<g id="a_node17"><a xlink:href="SparsityStructure_8h.html" target="_top" xlink:title="iDynTree/SparsityStructure.h">
<polygon fill="none" stroke="#000000" points="88,-112.5 88,-131.5 243,-131.5 243,-112.5 88,-112.5"/>
<text text-anchor="middle" x="165.5" y="-119.5" font-family="FreeSans.ttf" font-size="10.00" fill="#000000">iDynTree/SparsityStructure.h</text>
</a>
</g>
</g>
<!-- Node2&#45;&gt;Node16 -->
<g id="edge17" class="edge">
<title>Node2&#45;&gt;Node16</title>
<path fill="none" stroke="#191970" d="M253.0362,-168.2455C236.3926,-159.4527 211.7007,-146.4079 192.7808,-136.4125"/>
<polygon fill="#191970" stroke="#191970" points="194.2291,-133.2193 183.7522,-131.6427 190.9592,-139.4086 194.2291,-133.2193"/>
</g>
<!-- Node19 -->
<g id="node20" class="node">
<title>Node19</title>
<polygon fill="none" stroke="#bfbfbf" points="0,-56.5 0,-75.5 47,-75.5 47,-56.5 0,-56.5"/>
<text text-anchor="middle" x="23.5" y="-63.5" font-family="FreeSans.ttf" font-size="10.00" fill="#000000">vector</text>
</g>
<!-- Node2&#45;&gt;Node19 -->
<g id="edge25" class="edge">
<title>Node2&#45;&gt;Node19</title>
<path fill="none" stroke="#191970" d="M211.833,-175.4923C145.9746,-171.3246 46.1208,-160.3841 22.5,-132 11.9856,-119.3653 13.5676,-100.1691 16.9917,-85.7308"/>
<polygon fill="#191970" stroke="#191970" points="20.4453,-86.3798 19.7992,-75.8047 13.7096,-84.4746 20.4453,-86.3798"/>
</g>
<!-- Node21 -->
<g id="node22" class="node">
<title>Node21</title>
<polygon fill="none" stroke="#bfbfbf" points="299.5,-112.5 299.5,-131.5 357.5,-131.5 357.5,-112.5 299.5,-112.5"/>
<text text-anchor="middle" x="328.5" y="-119.5" font-family="FreeSans.ttf" font-size="10.00" fill="#000000">memory</text>
</g>
<!-- Node2&#45;&gt;Node21 -->
<g id="edge27" class="edge">
<title>Node2&#45;&gt;Node21</title>
<path fill="none" stroke="#191970" d="M281.4286,-168.2455C289.6838,-160.1352 301.6209,-148.4075 311.4082,-138.7919"/>
<polygon fill="#191970" stroke="#191970" points="314.0046,-141.1476 318.6851,-131.6427 309.0989,-136.1542 314.0046,-141.1476"/>
</g>
<!-- Node22 -->
<g id="node23" class="node">
<title>Node22</title>
<polygon fill="none" stroke="#bfbfbf" points="31.5,-112.5 31.5,-131.5 69.5,-131.5 69.5,-112.5 31.5,-112.5"/>
<text text-anchor="middle" x="50.5" y="-119.5" font-family="FreeSans.ttf" font-size="10.00" fill="#000000">map</text>
</g>
<!-- Node2&#45;&gt;Node22 -->
<g id="edge28" class="edge">
<title>Node2&#45;&gt;Node22</title>
<path fill="none" stroke="#191970" d="M225.1108,-168.4323C188.0084,-160.4461 134.5156,-148.1878 79.5937,-132.1026"/>
<polygon fill="#191970" stroke="#191970" points="80.2712,-128.6529 69.6887,-129.164 78.2802,-135.3638 80.2712,-128.6529"/>
</g>
<!-- Node4 -->
<g id="node5" class="node">
<title>Node4</title>
<g id="a_node5"><a xlink:href="Span_8h.html" target="_top" xlink:title="iDynTree/Core/Span.h">
<polygon fill="none" stroke="#000000" points="1242,-56.5 1242,-75.5 1363,-75.5 1363,-56.5 1242,-56.5"/>
<text text-anchor="middle" x="1302.5" y="-63.5" font-family="FreeSans.ttf" font-size="10.00" fill="#000000">iDynTree/Core/Span.h</text>
</a>
</g>
</g>
<!-- Node3&#45;&gt;Node4 -->
<g id="edge4" class="edge">
<title>Node3&#45;&gt;Node4</title>
<path fill="none" stroke="#191970" d="M728.1701,-114.8791C858.9687,-103.7473 1109.5379,-82.4223 1231.8399,-72.0136"/>
<polygon fill="#191970" stroke="#191970" points="1232.1777,-75.4976 1241.8449,-71.1621 1231.5841,-68.5228 1232.1777,-75.4976"/>
</g>
<!-- Node3&#45;&gt;Node14 -->
<g id="edge14" class="edge">
<title>Node3&#45;&gt;Node14</title>
<path fill="none" stroke="#191970" d="M666.8478,-112.3733C687.9033,-103.3032 719.6495,-89.6279 743.2175,-79.4755"/>
<polygon fill="#191970" stroke="#191970" points="744.6444,-82.6719 752.4438,-75.5011 741.875,-76.243 744.6444,-82.6719"/>
</g>
<!-- Node5 -->
<g id="node6" class="node">
<title>Node5</title>
<polygon fill="none" stroke="#bfbfbf" points="1560.5,-.5 1560.5,-19.5 1612.5,-19.5 1612.5,-.5 1560.5,-.5"/>
<text text-anchor="middle" x="1586.5" y="-7.5" font-family="FreeSans.ttf" font-size="10.00" fill="#000000">cassert</text>
</g>
<!-- Node4&#45;&gt;Node5 -->
<g id="edge5" class="edge">
<title>Node4&#45;&gt;Node5</title>
<path fill="none" stroke="#191970" d="M1362.9606,-56.494C1411.3191,-48.5115 1481.0199,-36.1607 1550.4104,-20.0978"/>
<polygon fill="#191970" stroke="#191970" points="1551.2584,-23.494 1560.1973,-17.8067 1549.6628,-16.6783 1551.2584,-23.494"/>
</g>
<!-- Node6 -->
<g id="node7" class="node">
<title>Node6</title>
<polygon fill="none" stroke="#bfbfbf" points="1418.5,-.5 1418.5,-19.5 1482.5,-19.5 1482.5,-.5 1418.5,-.5"/>
<text text-anchor="middle" x="1450.5" y="-7.5" font-family="FreeSans.ttf" font-size="10.00" fill="#000000">algorithm</text>
</g>
<!-- Node4&#45;&gt;Node6 -->
<g id="edge6" class="edge">
<title>Node4&#45;&gt;Node6</title>
<path fill="none" stroke="#191970" d="M1327.9421,-56.3733C1352.2326,-47.1822 1389.0208,-33.2624 1415.9543,-23.0713"/>
<polygon fill="#191970" stroke="#191970" points="1417.2757,-26.3136 1425.3899,-19.5011 1414.7984,-19.7666 1417.2757,-26.3136"/>
</g>
<!-- Node7 -->
<g id="node8" class="node">
<title>Node7</title>
<polygon fill="none" stroke="#bfbfbf" points="1500.5,-.5 1500.5,-19.5 1542.5,-19.5 1542.5,-.5 1500.5,-.5"/>
<text text-anchor="middle" x="1521.5" y="-7.5" font-family="FreeSans.ttf" font-size="10.00" fill="#000000">array</text>
</g>
<!-- Node4&#45;&gt;Node7 -->
<g id="edge7" class="edge">
<title>Node4&#45;&gt;Node7</title>
<path fill="none" stroke="#191970" d="M1346.31,-56.4225C1382.6112,-48.2436 1435.7321,-35.7176 1490.402,-20.1567"/>
<polygon fill="#191970" stroke="#191970" points="1491.6195,-23.4485 1500.2629,-17.3212 1489.685,-16.7211 1491.6195,-23.4485"/>
</g>
<!-- Node8 -->
<g id="node9" class="node">
<title>Node8</title>
<polygon fill="none" stroke="#bfbfbf" points="980,-.5 980,-19.5 1033,-19.5 1033,-.5 980,-.5"/>
<text text-anchor="middle" x="1006.5" y="-7.5" font-family="FreeSans.ttf" font-size="10.00" fill="#000000">cstddef</text>
</g>
<!-- Node4&#45;&gt;Node8 -->
<g id="edge8" class="edge">
<title>Node4&#45;&gt;Node8</title>
<path fill="none" stroke="#191970" d="M1241.754,-57.1244C1190.9086,-49.2793 1116.2886,-36.8011 1043.0351,-20.1932"/>
<polygon fill="#191970" stroke="#191970" points="1043.7084,-16.7568 1033.1788,-17.9313 1042.1426,-23.5795 1043.7084,-16.7568"/>
</g>
<!-- Node9 -->
<g id="node10" class="node">
<title>Node9</title>
<polygon fill="none" stroke="#bfbfbf" points="1051,-.5 1051,-19.5 1104,-19.5 1104,-.5 1051,-.5"/>
<text text-anchor="middle" x="1077.5" y="-7.5" font-family="FreeSans.ttf" font-size="10.00" fill="#000000">iterator</text>
</g>
<!-- Node4&#45;&gt;Node9 -->
<g id="edge9" class="edge">
<title>Node4&#45;&gt;Node9</title>
<path fill="none" stroke="#191970" d="M1261.4809,-56.4188C1225.23,-47.8614 1170.6887,-34.7684 1114.057,-20.0862"/>
<polygon fill="#191970" stroke="#191970" points="1114.7698,-16.6551 1104.2105,-17.5226 1113.0061,-23.4293 1114.7698,-16.6551"/>
</g>
<!-- Node10 -->
<g id="node11" class="node">
<title>Node10</title>
<polygon fill="none" stroke="#bfbfbf" points="1122.5,-.5 1122.5,-19.5 1166.5,-19.5 1166.5,-.5 1122.5,-.5"/>
<text text-anchor="middle" x="1144.5" y="-7.5" font-family="FreeSans.ttf" font-size="10.00" fill="#000000">limits</text>
</g>
<!-- Node4&#45;&gt;Node10 -->
<g id="edge10" class="edge">
<title>Node4&#45;&gt;Node10</title>
<path fill="none" stroke="#191970" d="M1275.3388,-56.3733C1247.8726,-46.6384 1205.4388,-31.5985 1176.3913,-21.3032"/>
<polygon fill="#191970" stroke="#191970" points="1177.3163,-17.9178 1166.7216,-17.876 1174.9778,-24.5157 1177.3163,-17.9178"/>
</g>
<!-- Node11 -->
<g id="node12" class="node">
<title>Node11</title>
<polygon fill="none" stroke="#bfbfbf" points="1185,-.5 1185,-19.5 1250,-19.5 1250,-.5 1185,-.5"/>
<text text-anchor="middle" x="1217.5" y="-7.5" font-family="FreeSans.ttf" font-size="10.00" fill="#000000">stdexcept</text>
</g>
<!-- Node4&#45;&gt;Node11 -->
<g id="edge11" class="edge">
<title>Node4&#45;&gt;Node11</title>
<path fill="none" stroke="#191970" d="M1287.6941,-56.2455C1274.7744,-47.7337 1255.8069,-35.2375 1240.8448,-25.3801"/>
<polygon fill="#191970" stroke="#191970" points="1242.4124,-22.2216 1232.1362,-19.6427 1238.5613,-28.067 1242.4124,-22.2216"/>
</g>
<!-- Node12 -->
<g id="node13" class="node">
<title>Node12</title>
<polygon fill="none" stroke="#bfbfbf" points="1268,-.5 1268,-19.5 1337,-19.5 1337,-.5 1268,-.5"/>
<text text-anchor="middle" x="1302.5" y="-7.5" font-family="FreeSans.ttf" font-size="10.00" fill="#000000">type_traits</text>
</g>
<!-- Node4&#45;&gt;Node12 -->
<g id="edge12" class="edge">
<title>Node4&#45;&gt;Node12</title>
<path fill="none" stroke="#191970" d="M1302.5,-56.2455C1302.5,-48.9382 1302.5,-38.6944 1302.5,-29.7046"/>
<polygon fill="#191970" stroke="#191970" points="1306.0001,-29.6426 1302.5,-19.6427 1299.0001,-29.6427 1306.0001,-29.6426"/>
</g>
<!-- Node13 -->
<g id="node14" class="node">
<title>Node13</title>
<polygon fill="none" stroke="#bfbfbf" points="1355,-.5 1355,-19.5 1400,-19.5 1400,-.5 1355,-.5"/>
<text text-anchor="middle" x="1377.5" y="-7.5" font-family="FreeSans.ttf" font-size="10.00" fill="#000000">utility</text>
</g>
<!-- Node4&#45;&gt;Node13 -->
<g id="edge13" class="edge">
<title>Node4&#45;&gt;Node13</title>
<path fill="none" stroke="#191970" d="M1315.564,-56.2455C1326.8562,-47.814 1343.3845,-35.4729 1356.5271,-25.6598"/>
<polygon fill="#191970" stroke="#191970" points="1358.6669,-28.4301 1364.5857,-19.6427 1354.4789,-22.8211 1358.6669,-28.4301"/>
</g>
<!-- Node15&#45;&gt;Node14 -->
<g id="edge16" class="edge">
<title>Node15&#45;&gt;Node14</title>
<path fill="none" stroke="#191970" d="M513.2925,-112.4369C579.0221,-100.7516 688.1317,-81.3544 742.1512,-71.7509"/>
<polygon fill="#191970" stroke="#191970" points="742.9584,-75.1624 752.1914,-69.966 741.7331,-68.2704 742.9584,-75.1624"/>
</g>
<!-- Node16&#45;&gt;Node8 -->
<g id="edge22" class="edge">
<title>Node16&#45;&gt;Node8</title>
<path fill="none" stroke="#191970" d="M243.0795,-113.6231C412.9451,-95.0503 814.31,-49.8464 969.9746,-19.8168"/>
<polygon fill="#191970" stroke="#191970" points="970.7362,-23.2341 979.8676,-17.8612 969.3786,-16.367 970.7362,-23.2341"/>
</g>
<!-- Node16&#45;&gt;Node14 -->
<g id="edge24" class="edge">
<title>Node16&#45;&gt;Node14</title>
<path fill="none" stroke="#191970" d="M243.2887,-113.4368C248.0966,-112.9409 252.8634,-112.4582 257.5,-112 440.7289,-93.8923 660.8205,-75.3859 742.2065,-68.6527"/>
<polygon fill="#191970" stroke="#191970" points="742.636,-72.1292 752.314,-67.8181 742.0598,-65.153 742.636,-72.1292"/>
</g>
<!-- Node16&#45;&gt;Node17 -->
<g id="edge18" class="edge">
<title>Node16&#45;&gt;Node17</title>
<path fill="none" stroke="#191970" d="M243.1676,-115.5955C258.8344,-114.3574 275.1914,-113.1033 290.5,-112 527.9186,-94.8884 809.7963,-77.7269 937.922,-70.0984"/>
<polygon fill="#191970" stroke="#191970" points="938.2146,-73.5873 947.9892,-69.4998 937.799,-66.5996 938.2146,-73.5873"/>
</g>
<!-- Node16&#45;&gt;Node19 -->
<g id="edge21" class="edge">
<title>Node16&#45;&gt;Node19</title>
<path fill="none" stroke="#191970" d="M141.0893,-112.3733C117.7451,-103.1671 82.3704,-89.2165 56.5175,-79.021"/>
<polygon fill="#191970" stroke="#191970" points="57.7071,-75.7278 47.1203,-75.315 55.139,-82.2397 57.7071,-75.7278"/>
</g>
<!-- Node20 -->
<g id="node21" class="node">
<title>Node20</title>
<polygon fill="none" stroke="#bfbfbf" points="122.5,-56.5 122.5,-75.5 208.5,-75.5 208.5,-56.5 122.5,-56.5"/>
<text text-anchor="middle" x="165.5" y="-63.5" font-family="FreeSans.ttf" font-size="10.00" fill="#000000">unordered_set</text>
</g>
<!-- Node16&#45;&gt;Node20 -->
<g id="edge23" class="edge">
<title>Node16&#45;&gt;Node20</title>
<path fill="none" stroke="#191970" d="M165.5,-112.2455C165.5,-104.9382 165.5,-94.6944 165.5,-85.7046"/>
<polygon fill="#191970" stroke="#191970" points="169.0001,-85.6426 165.5,-75.6427 162.0001,-85.6427 169.0001,-85.6426"/>
</g>
<!-- Node17&#45;&gt;Node8 -->
<g id="edge19" class="edge">
<title>Node17&#45;&gt;Node8</title>
<path fill="none" stroke="#191970" d="M1007.3258,-56.2455C1007.1953,-48.9382 1007.0124,-38.6944 1006.8519,-29.7046"/>
<polygon fill="#191970" stroke="#191970" points="1010.3503,-29.5786 1006.6722,-19.6427 1003.3514,-29.7036 1010.3503,-29.5786"/>
</g>
<!-- Node18 -->
<g id="node19" class="node">
<title>Node18</title>
<polygon fill="none" stroke="#bfbfbf" points="881.5,-.5 881.5,-19.5 961.5,-19.5 961.5,-.5 881.5,-.5"/>
<text text-anchor="middle" x="921.5" y="-7.5" font-family="FreeSans.ttf" font-size="10.00" fill="#000000">CoreExport.h</text>
</g>
<!-- Node17&#45;&gt;Node18 -->
<g id="edge20" class="edge">
<title>Node17&#45;&gt;Node18</title>
<path fill="none" stroke="#191970" d="M992.5199,-56.2455C979.3249,-47.6534 959.8949,-35.0014 944.6921,-25.1018"/>
<polygon fill="#191970" stroke="#191970" points="946.5983,-22.1665 936.3084,-19.6427 942.7785,-28.0325 946.5983,-22.1665"/>
</g>
<!-- Node23&#45;&gt;Node3 -->
<g id="edge31" class="edge">
<title>Node23&#45;&gt;Node3</title>
<path fill="none" stroke="#191970" d="M466.4598,-168.3733C502.9075,-158.8799 558.7246,-144.3415 598.1289,-134.0781"/>
<polygon fill="#191970" stroke="#191970" points="599.2276,-137.4087 608.0225,-131.5011 597.4631,-130.6348 599.2276,-137.4087"/>
</g>
<!-- Node23&#45;&gt;Node16 -->
<g id="edge32" class="edge">
<title>Node23&#45;&gt;Node16</title>
<path fill="none" stroke="#191970" d="M384.4167,-168.4369C339.0454,-158.8127 269.0114,-143.957 220.4234,-133.6504"/>
<polygon fill="#191970" stroke="#191970" points="220.9059,-130.175 210.3973,-131.5237 219.4534,-137.0226 220.9059,-130.175"/>
</g>
<!-- Node24&#45;&gt;Node3 -->
<g id="edge35" class="edge">
<title>Node24&#45;&gt;Node3</title>
<path fill="none" stroke="#191970" d="M1071.7509,-473.5594C946.7144,-461.3321 720.5,-429.2297 720.5,-357 720.5,-357 720.5,-357 720.5,-239.5 720.5,-197.9563 686.5901,-159.486 664.0719,-138.5193"/>
<polygon fill="#191970" stroke="#191970" points="666.1556,-135.6865 656.375,-131.6133 661.4808,-140.8968 666.1556,-135.6865"/>
</g>
<!-- Node24&#45;&gt;Node15 -->
<g id="edge43" class="edge">
<title>Node24&#45;&gt;Node15</title>
<path fill="none" stroke="#191970" d="M1071.6203,-474.1922C972.6276,-466.4722 811.063,-451.721 753.5,-434 683.011,-412.2996 606.5,-430.7537 606.5,-357 606.5,-357 606.5,-357 606.5,-239.5 606.5,-185.1296 544.382,-151.7945 500.9062,-135.122"/>
<polygon fill="#191970" stroke="#191970" points="501.9903,-131.7915 491.3968,-131.6231 499.5732,-138.3609 501.9903,-131.7915"/>
</g>
<!-- Node24&#45;&gt;Node17 -->
<g id="edge82" class="edge">
<title>Node24&#45;&gt;Node17</title>
<path fill="none" stroke="#191970" d="M1124.0502,-470.3766C1082.0842,-454.1676 1008.5,-417.1678 1008.5,-357 1008.5,-357 1008.5,-357 1008.5,-178 1008.5,-145.7103 1008.0793,-108.1863 1007.7836,-85.8043"/>
<polygon fill="#191970" stroke="#191970" points="1011.2804,-85.5391 1007.6433,-75.5881 1004.281,-85.6353 1011.2804,-85.5391"/>
</g>
<!-- Node25 -->
<g id="node26" class="node">
<title>Node25</title>
<polygon fill="none" stroke="#bfbfbf" points="1603,-409 1603,-428 1680,-428 1680,-409 1603,-409"/>
<text text-anchor="middle" x="1641.5" y="-416" font-family="FreeSans.ttf" font-size="10.00" fill="#000000">Eigen/Dense</text>
</g>
<!-- Node24&#45;&gt;Node25 -->
<g id="edge34" class="edge">
<title>Node24&#45;&gt;Node25</title>
<path fill="none" stroke="#191970" d="M1233.1042,-475.8355C1321.102,-470.2839 1465.8468,-458.2019 1588.5,-434 1593.0131,-433.1095 1597.6965,-432.0082 1602.3277,-430.8065"/>
<polygon fill="#191970" stroke="#191970" points="1603.5863,-434.0902 1612.2964,-428.0582 1601.7258,-427.3419 1603.5863,-434.0902"/>
</g>
<!-- Node26 -->
<g id="node27" class="node">
<title>Node26</title>
<g id="a_node27"><a xlink:href="VectorFixSize_8h.html" target="_top" xlink:title="iDynTree/Core/VectorFixSize.h">
<polygon fill="none" stroke="#000000" points="1327,-112.5 1327,-131.5 1488,-131.5 1488,-112.5 1327,-112.5"/>
<text text-anchor="middle" x="1407.5" y="-119.5" font-family="FreeSans.ttf" font-size="10.00" fill="#000000">iDynTree/Core/VectorFixSize.h</text>
</a>
</g>
</g>
<!-- Node24&#45;&gt;Node26 -->
<g id="edge36" class="edge">
<title>Node24&#45;&gt;Node26</title>
<path fill="none" stroke="#191970" d="M1233.0376,-474.6411C1342.6315,-466.7644 1528.1933,-451.1287 1554.5,-434 1583.2132,-415.3043 1632.5,-335.2633 1632.5,-301 1632.5,-301 1632.5,-301 1632.5,-239.5 1632.5,-203.9215 1624.3529,-190.1369 1596.5,-168 1578.4348,-153.6421 1525.7946,-141.5045 1480.6431,-133.3084"/>
<polygon fill="#191970" stroke="#191970" points="1481.003,-129.8176 1470.5453,-131.5171 1479.7803,-136.71 1481.003,-129.8176"/>
</g>
<!-- Node29 -->
<g id="node30" class="node">
<title>Node29</title>
<g id="a_node30"><a xlink:href="MatrixFixSize_8h.html" target="_top" xlink:title="iDynTree/Core/MatrixFixSize.h">
<polygon fill="none" stroke="#000000" points="1506,-112.5 1506,-131.5 1667,-131.5 1667,-112.5 1506,-112.5"/>
<text text-anchor="middle" x="1586.5" y="-119.5" font-family="FreeSans.ttf" font-size="10.00" fill="#000000">iDynTree/Core/MatrixFixSize.h</text>
</a>
</g>
</g>
<!-- Node24&#45;&gt;Node29 -->
<g id="edge44" class="edge">
<title>Node24&#45;&gt;Node29</title>
<path fill="none" stroke="#191970" d="M1233.2141,-478.9698C1375.6038,-476.3081 1659.3046,-466.8926 1689.5,-434 1770.9863,-345.2351 1647.8635,-190.5243 1602.3182,-139.1377"/>
<polygon fill="#191970" stroke="#191970" points="1604.7741,-136.6346 1595.4816,-131.5454 1599.5723,-141.3187 1604.7741,-136.6346"/>
</g>
<!-- Node31 -->
<g id="node32" class="node">
<title>Node31</title>
<g id="a_node32"><a xlink:href="SpatialMotionVector_8h.html" target="_top" xlink:title="iDynTree/Core/SpatialMotion\lVector.h">
<polygon fill="none" stroke="#000000" points="1390,-403.5 1390,-433.5 1545,-433.5 1545,-403.5 1390,-403.5"/>
<text text-anchor="start" x="1398" y="-421.5" font-family="FreeSans.ttf" font-size="10.00" fill="#000000">iDynTree/Core/SpatialMotion</text>
<text text-anchor="middle" x="1467.5" y="-410.5" font-family="FreeSans.ttf" font-size="10.00" fill="#000000">Vector.h</text>
</a>
</g>
</g>
<!-- Node24&#45;&gt;Node31 -->
<g id="edge51" class="edge">
<title>Node24&#45;&gt;Node31</title>
<path fill="none" stroke="#191970" d="M1201.3731,-470.4581C1249.1552,-461.1292 1322.9442,-446.7228 1380.7145,-435.4438"/>
<polygon fill="#191970" stroke="#191970" points="1381.4278,-438.8707 1390.5718,-433.5193 1380.0864,-432.0005 1381.4278,-438.8707"/>
</g>
<!-- Node38 -->
<g id="node39" class="node">
<title>Node38</title>
<g id="a_node39"><a xlink:href="SpatialForceVector_8h.html" target="_top" xlink:title="iDynTree/Core/SpatialForce\lVector.h">
<polygon fill="none" stroke="#000000" points="1221.5,-403.5 1221.5,-433.5 1369.5,-433.5 1369.5,-403.5 1221.5,-403.5"/>
<text text-anchor="start" x="1229.5" y="-421.5" font-family="FreeSans.ttf" font-size="10.00" fill="#000000">iDynTree/Core/SpatialForce</text>
<text text-anchor="middle" x="1295.5" y="-410.5" font-family="FreeSans.ttf" font-size="10.00" fill="#000000">Vector.h</text>
</a>
</g>
</g>
<!-- Node24&#45;&gt;Node38 -->
<g id="edge73" class="edge">
<title>Node24&#45;&gt;Node38</title>
<path fill="none" stroke="#191970" d="M1174.8438,-470.3906C1195.1826,-461.6435 1225.8071,-448.4728 1251.1126,-437.5897"/>
<polygon fill="#191970" stroke="#191970" points="1252.7146,-440.7107 1260.5183,-433.5446 1249.949,-434.2802 1252.7146,-440.7107"/>
</g>
<!-- Node39 -->
<g id="node40" class="node">
<title>Node39</title>
<g id="a_node40"><a xlink:href="Transform_8h.html" target="_top" xlink:title="iDynTree/Core/Transform.h">
<polygon fill="none" stroke="#000000" points="834.5,-347.5 834.5,-366.5 980.5,-366.5 980.5,-347.5 834.5,-347.5"/>
<text text-anchor="middle" x="907.5" y="-354.5" font-family="FreeSans.ttf" font-size="10.00" fill="#000000">iDynTree/Core/Transform.h</text>
</a>
</g>
</g>
<!-- Node24&#45;&gt;Node39 -->
<g id="edge77" class="edge">
<title>Node24&#45;&gt;Node39</title>
<path fill="none" stroke="#191970" d="M1098.6216,-470.4902C1066.9504,-463.4259 1026.8988,-451.8641 994.5,-434 965.9629,-418.2652 938.7941,-391.7225 922.6327,-374.2808"/>
<polygon fill="#191970" stroke="#191970" points="924.9302,-371.6034 915.6254,-366.5368 919.7397,-376.3001 924.9302,-371.6034"/>
</g>
<!-- Node26&#45;&gt;Node4 -->
<g id="edge38" class="edge">
<title>Node26&#45;&gt;Node4</title>
<path fill="none" stroke="#191970" d="M1389.2104,-112.2455C1372.7238,-103.4527 1348.2648,-90.4079 1329.5235,-80.4125"/>
<polygon fill="#191970" stroke="#191970" points="1331.0506,-77.2604 1320.58,-75.6427 1327.7565,-83.4368 1331.0506,-77.2604"/>
</g>
<!-- Node26&#45;&gt;Node5 -->
<g id="edge41" class="edge">
<title>Node26&#45;&gt;Node5</title>
<path fill="none" stroke="#191970" d="M1416.2986,-112.4285C1429.4322,-98.5671 1455.4228,-72.7373 1481.5,-56 1503.1883,-42.0797 1529.8011,-30.4723 1550.8072,-22.3996"/>
<polygon fill="#191970" stroke="#191970" points="1552.1869,-25.6204 1560.3238,-18.835 1549.7314,-19.0651 1552.1869,-25.6204"/>
</g>
<!-- Node26&#45;&gt;Node14 -->
<g id="edge39" class="edge">
<title>Node26&#45;&gt;Node14</title>
<path fill="none" stroke="#191970" d="M1326.6872,-114.8507C1186.1197,-102.415 902.4599,-77.3203 806.8223,-68.8595"/>
<polygon fill="#191970" stroke="#191970" points="806.8911,-65.352 796.6215,-67.957 806.2742,-72.3247 806.8911,-65.352"/>
</g>
<!-- Node26&#45;&gt;Node17 -->
<g id="edge37" class="edge">
<title>Node26&#45;&gt;Node17</title>
<path fill="none" stroke="#191970" d="M1339.192,-112.4369C1266.0951,-102.2033 1150.7491,-86.0549 1077.1427,-75.75"/>
<polygon fill="#191970" stroke="#191970" points="1077.431,-72.2563 1067.0423,-74.3359 1076.4604,-79.1887 1077.431,-72.2563"/>
</g>
<!-- Node26&#45;&gt;Node27 -->
<g id="edge40" class="edge">
<title>Node26&#45;&gt;Node27</title>
<path fill="none" stroke="#191970" d="M1476.0589,-112.4807C1534.768,-103.9966 1621.4603,-90.6785 1696.5,-76 1698.1548,-75.6763 1699.8428,-75.3344 1701.546,-74.9798"/>
<polygon fill="#191970" stroke="#191970" points="1702.3151,-78.3944 1711.3424,-72.8484 1700.8269,-71.5544 1702.3151,-78.3944"/>
</g>
<!-- Node28 -->
<g id="node29" class="node">
<title>Node28</title>
<polygon fill="none" stroke="#bfbfbf" points="1490.5,-56.5 1490.5,-75.5 1540.5,-75.5 1540.5,-56.5 1490.5,-56.5"/>
<text text-anchor="middle" x="1515.5" y="-63.5" font-family="FreeSans.ttf" font-size="10.00" fill="#000000">cstring</text>
</g>
<!-- Node26&#45;&gt;Node28 -->
<g id="edge42" class="edge">
<title>Node26&#45;&gt;Node28</title>
<path fill="none" stroke="#191970" d="M1426.3122,-112.2455C1443.3473,-103.4125 1468.6575,-90.2887 1487.9681,-80.2758"/>
<polygon fill="#191970" stroke="#191970" points="1489.637,-83.353 1496.9034,-75.6427 1486.4147,-77.1388 1489.637,-83.353"/>
</g>
<!-- Node29&#45;&gt;Node5 -->
<g id="edge46" class="edge">
<title>Node29&#45;&gt;Node5</title>
<path fill="none" stroke="#191970" d="M1586.5,-112.4509C1586.5,-94.184 1586.5,-53.9553 1586.5,-29.6976"/>
<polygon fill="#191970" stroke="#191970" points="1590.0001,-29.5249 1586.5,-19.5249 1583.0001,-29.5249 1590.0001,-29.5249"/>
</g>
<!-- Node29&#45;&gt;Node14 -->
<g id="edge48" class="edge">
<title>Node29&#45;&gt;Node14</title>
<path fill="none" stroke="#191970" d="M1505.9873,-112.7771C1503.1239,-112.5053 1500.288,-112.2452 1497.5,-112 1428.1892,-105.9048 938.5173,-75.9782 806.9661,-67.9726"/>
<polygon fill="#191970" stroke="#191970" points="806.9318,-64.4641 796.7377,-67.3504 806.5068,-71.4512 806.9318,-64.4641"/>
</g>
<!-- Node29&#45;&gt;Node17 -->
<g id="edge45" class="edge">
<title>Node29&#45;&gt;Node17</title>
<path fill="none" stroke="#191970" d="M1505.9769,-112.8857C1503.1165,-112.5832 1500.284,-112.2871 1497.5,-112 1347.8412,-96.5687 1172.2388,-80.6026 1077.187,-72.1381"/>
<polygon fill="#191970" stroke="#191970" points="1077.3934,-68.6427 1067.1227,-71.2431 1076.7733,-75.6152 1077.3934,-68.6427"/>
</g>
<!-- Node29&#45;&gt;Node27 -->
<g id="edge50" class="edge">
<title>Node29&#45;&gt;Node27</title>
<path fill="none" stroke="#191970" d="M1612.8016,-112.3733C1637.9128,-103.1822 1675.9438,-89.2624 1703.7872,-79.0713"/>
<polygon fill="#191970" stroke="#191970" points="1705.3538,-82.2251 1713.5416,-75.5011 1702.9478,-75.6516 1705.3538,-82.2251"/>
</g>
<!-- Node29&#45;&gt;Node28 -->
<g id="edge47" class="edge">
<title>Node29&#45;&gt;Node28</title>
<path fill="none" stroke="#191970" d="M1574.1327,-112.2455C1563.5446,-103.8943 1548.0936,-91.7076 1535.7107,-81.9408"/>
<polygon fill="#191970" stroke="#191970" points="1537.7447,-79.0875 1527.7255,-75.6427 1533.4097,-84.5837 1537.7447,-79.0875"/>
</g>
<!-- Node30 -->
<g id="node31" class="node">
<title>Node30</title>
<polygon fill="none" stroke="#bfbfbf" points="1627.5,-56.5 1627.5,-75.5 1687.5,-75.5 1687.5,-56.5 1627.5,-56.5"/>
<text text-anchor="middle" x="1657.5" y="-63.5" font-family="FreeSans.ttf" font-size="10.00" fill="#000000">iostream</text>
</g>
<!-- Node29&#45;&gt;Node30 -->
<g id="edge49" class="edge">
<title>Node29&#45;&gt;Node30</title>
<path fill="none" stroke="#191970" d="M1598.8673,-112.2455C1609.4554,-103.8943 1624.9064,-91.7076 1637.2893,-81.9408"/>
<polygon fill="#191970" stroke="#191970" points="1639.5903,-84.5837 1645.2745,-75.6427 1635.2553,-79.0875 1639.5903,-84.5837"/>
</g>
<!-- Node31&#45;&gt;Node26 -->
<g id="edge52" class="edge">
<title>Node31&#45;&gt;Node26</title>
<path fill="none" stroke="#191970" d="M1503.8931,-403.4675C1541.4214,-385.2566 1594.5,-350.7127 1594.5,-301 1594.5,-301 1594.5,-301 1594.5,-239.5 1594.5,-206.6194 1598.6624,-191.3375 1575.5,-168 1561.1641,-153.5558 1515.464,-141.5845 1475.3423,-133.4786"/>
<polygon fill="#191970" stroke="#191970" points="1475.7718,-129.9961 1465.2846,-131.5018 1474.4219,-136.8647 1475.7718,-129.9961"/>
</g>
<!-- Node32 -->
<g id="node33" class="node">
<title>Node32</title>
<g id="a_node33"><a xlink:href="GeomVector3_8h.html" target="_top" xlink:title="iDynTree/Core/GeomVector3.h">
<polygon fill="none" stroke="#000000" points="1403,-168.5 1403,-187.5 1566,-187.5 1566,-168.5 1403,-168.5"/>
<text text-anchor="middle" x="1484.5" y="-175.5" font-family="FreeSans.ttf" font-size="10.00" fill="#000000">iDynTree/Core/GeomVector3.h</text>
</a>
</g>
</g>
<!-- Node31&#45;&gt;Node32 -->
<g id="edge53" class="edge">
<title>Node31&#45;&gt;Node32</title>
<path fill="none" stroke="#191970" d="M1499.9543,-403.3708C1514.227,-394.8631 1529.5331,-382.7522 1537.5,-367 1567.2905,-308.0984 1521.6615,-230.1337 1497.6852,-195.6709"/>
<polygon fill="#191970" stroke="#191970" points="1500.5143,-193.61 1491.8455,-187.5187 1494.8236,-197.6864 1500.5143,-193.61"/>
</g>
<!-- Node33 -->
<g id="node34" class="node">
<title>Node33</title>
<g id="a_node34"><a xlink:href="SpatialVector_8h.html" target="_top" xlink:title="iDynTree/Core/SpatialVector.h">
<polygon fill="none" stroke="#000000" points="1367,-347.5 1367,-366.5 1528,-366.5 1528,-347.5 1367,-347.5"/>
<text text-anchor="middle" x="1447.5" y="-354.5" font-family="FreeSans.ttf" font-size="10.00" fill="#000000">iDynTree/Core/SpatialVector.h</text>
</a>
</g>
</g>
<!-- Node31&#45;&gt;Node33 -->
<g id="edge55" class="edge">
<title>Node31&#45;&gt;Node33</title>
<path fill="none" stroke="#191970" d="M1462.5562,-403.2977C1459.9246,-395.2055 1456.659,-385.1639 1453.8424,-376.5029"/>
<polygon fill="#191970" stroke="#191970" points="1457.1234,-375.2743 1450.7023,-366.8469 1450.4665,-377.4391 1457.1234,-375.2743"/>
</g>
<!-- Node32&#45;&gt;Node26 -->
<g id="edge54" class="edge">
<title>Node32&#45;&gt;Node26</title>
<path fill="none" stroke="#191970" d="M1471.0876,-168.2455C1459.4943,-159.814 1442.5252,-147.4729 1429.0322,-137.6598"/>
<polygon fill="#191970" stroke="#191970" points="1430.9047,-134.6938 1420.7587,-131.6427 1426.7874,-140.355 1430.9047,-134.6938"/>
</g>
<!-- Node33&#45;&gt;Node17 -->
<g id="edge69" class="edge">
<title>Node33&#45;&gt;Node17</title>
<path fill="none" stroke="#191970" d="M1441.3985,-347.2728C1421.7032,-316.6156 1356.6003,-220.9128 1279.5,-168 1211.4403,-121.2916 1119.2242,-92.615 1061.5607,-78.0057"/>
<polygon fill="#191970" stroke="#191970" points="1062.109,-74.5357 1051.5605,-75.5255 1060.4239,-81.3299 1062.109,-74.5357"/>
</g>
<!-- Node33&#45;&gt;Node27 -->
<g id="edge72" class="edge">
<title>Node33&#45;&gt;Node27</title>
<path fill="none" stroke="#191970" d="M1500.2669,-347.495C1586.1039,-330.5143 1746.5,-291.7882 1746.5,-239.5 1746.5,-239.5 1746.5,-239.5 1746.5,-178 1746.5,-145.6486 1743.5548,-108.1429 1741.4851,-85.7814"/>
<polygon fill="#191970" stroke="#191970" points="1744.9449,-85.1945 1740.5029,-75.5758 1737.9771,-85.8651 1744.9449,-85.1945"/>
</g>
<!-- Node33&#45;&gt;Node30 -->
<g id="edge71" class="edge">
<title>Node33&#45;&gt;Node30</title>
<path fill="none" stroke="#191970" d="M1462.124,-347.4735C1497.4342,-323.909 1588.6954,-259.588 1646.5,-188 1669.3136,-159.7466 1683.5667,-147.6199 1676.5,-112 1674.6352,-102.6003 1670.8201,-92.7115 1667.0946,-84.5215"/>
<polygon fill="#191970" stroke="#191970" points="1670.2433,-82.993 1662.7318,-75.5212 1663.9443,-86.0464 1670.2433,-82.993"/>
</g>
<!-- Node33&#45;&gt;Node32 -->
<g id="edge70" class="edge">
<title>Node33&#45;&gt;Node32</title>
<path fill="none" stroke="#191970" d="M1450.5676,-347.2008C1453.3965,-337.9364 1457.5866,-323.6142 1460.5,-311 1469.6988,-271.1712 1477.4925,-223.9554 1481.5333,-197.8532"/>
<polygon fill="#191970" stroke="#191970" points="1485.0273,-198.1577 1483.0731,-187.7447 1478.1071,-197.1036 1485.0273,-198.1577"/>
</g>
<!-- Node34 -->
<g id="node35" class="node">
<title>Node34</title>
<g id="a_node35"><a xlink:href="Position_8h.html" target="_top" xlink:title="Position.h">
<polygon fill="none" stroke="#000000" points="875,-291.5 875,-310.5 940,-310.5 940,-291.5 875,-291.5"/>
<text text-anchor="middle" x="907.5" y="-298.5" font-family="FreeSans.ttf" font-size="10.00" fill="#000000">Position.h</text>
</a>
</g>
</g>
<!-- Node33&#45;&gt;Node34 -->
<g id="edge56" class="edge">
<title>Node33&#45;&gt;Node34</title>
<path fill="none" stroke="#191970" d="M1366.9483,-348.6465C1250.8524,-336.6069 1040.5557,-314.7984 950.4096,-305.4499"/>
<polygon fill="#191970" stroke="#191970" points="950.5879,-301.9497 940.2802,-304.3994 949.8658,-308.9124 950.5879,-301.9497"/>
</g>
<!-- Node36 -->
<g id="node37" class="node">
<title>Node36</title>
<g id="a_node37"><a xlink:href="Rotation_8h.html" target="_top" xlink:title="iDynTree/Core/Rotation.h">
<polygon fill="none" stroke="#000000" points="1037,-230 1037,-249 1174,-249 1174,-230 1037,-230"/>
<text text-anchor="middle" x="1105.5" y="-237" font-family="FreeSans.ttf" font-size="10.00" fill="#000000">iDynTree/Core/Rotation.h</text>
</a>
</g>
</g>
<!-- Node33&#45;&gt;Node36 -->
<g id="edge68" class="edge">
<title>Node33&#45;&gt;Node36</title>
<path fill="none" stroke="#191970" d="M1419.8024,-347.484C1358.7212,-326.4985 1212.3921,-276.2246 1143.1011,-252.4185"/>
<polygon fill="#191970" stroke="#191970" points="1144.0508,-249.044 1133.4561,-249.1048 1141.7763,-255.6642 1144.0508,-249.044"/>
</g>
<!-- Node34&#45;&gt;Node14 -->
<g id="edge67" class="edge">
<title>Node34&#45;&gt;Node14</title>
<path fill="none" stroke="#191970" d="M897.5213,-291.3196C878.9734,-272.8314 838.9467,-230.5379 815.5,-188 796.8861,-154.23 784.7366,-110.5503 778.7945,-85.6668"/>
<polygon fill="#191970" stroke="#191970" points="782.1465,-84.6246 776.5003,-75.6596 775.3235,-86.1889 782.1465,-84.6246"/>
</g>
<!-- Node35 -->
<g id="node36" class="node">
<title>Node35</title>
<g id="a_node36"><a xlink:href="PositionRaw_8h.html" target="_top" xlink:title="iDynTree/Core/PositionRaw.h">
<polygon fill="none" stroke="#000000" points="824.5,-168.5 824.5,-187.5 980.5,-187.5 980.5,-168.5 824.5,-168.5"/>
<text text-anchor="middle" x="902.5" y="-175.5" font-family="FreeSans.ttf" font-size="10.00" fill="#000000">iDynTree/Core/PositionRaw.h</text>
</a>
</g>
</g>
<!-- Node34&#45;&gt;Node35 -->
<g id="edge57" class="edge">
<title>Node34&#45;&gt;Node35</title>
<path fill="none" stroke="#191970" d="M907.1077,-291.3484C906.2898,-271.2295 904.3887,-224.4608 903.3012,-197.7098"/>
<polygon fill="#191970" stroke="#191970" points="906.7939,-197.4563 902.8905,-187.6068 899.7997,-197.7407 906.7939,-197.4563"/>
</g>
<!-- Node34&#45;&gt;Node36 -->
<g id="edge60" class="edge">
<title>Node34&#45;&gt;Node36</title>
<path fill="none" stroke="#191970" d="M938.4375,-291.3906C972.5837,-280.7846 1027.6674,-263.6753 1065.1735,-252.0257"/>
<polygon fill="#191970" stroke="#191970" points="1066.268,-255.3507 1074.7797,-249.0419 1064.1916,-248.6658 1066.268,-255.3507"/>
</g>
<!-- Node35&#45;&gt;Node14 -->
<g id="edge59" class="edge">
<title>Node35&#45;&gt;Node14</title>
<path fill="none" stroke="#191970" d="M891.5868,-168.4509C869.6711,-149.2747 820.0957,-105.8962 793.0129,-82.1988"/>
<polygon fill="#191970" stroke="#191970" points="795.2162,-79.4759 785.3856,-75.5249 790.6066,-84.744 795.2162,-79.4759"/>
</g>
<!-- Node35&#45;&gt;Node26 -->
<g id="edge58" class="edge">
<title>Node35&#45;&gt;Node26</title>
<path fill="none" stroke="#191970" d="M980.5757,-169.3421C1071.3562,-159.2754 1220.9599,-142.6856 1316.8107,-132.0566"/>
<polygon fill="#191970" stroke="#191970" points="1317.2267,-135.532 1326.78,-130.9511 1316.4552,-128.5747 1317.2267,-135.532"/>
</g>
<!-- Node36&#45;&gt;Node14 -->
<g id="edge61" class="edge">
<title>Node36&#45;&gt;Node14</title>
<path fill="none" stroke="#191970" d="M1091.1529,-229.9486C1069.5337,-215.7197 1027.1253,-188.4413 989.5,-168 925.6784,-133.3265 848.1178,-98.1719 805.7876,-79.5494"/>
<polygon fill="#191970" stroke="#191970" points="807.1241,-76.3139 796.5601,-75.5066 804.315,-82.7255 807.1241,-76.3139"/>
</g>
<!-- Node36&#45;&gt;Node26 -->
<g id="edge66" class="edge">
<title>Node36&#45;&gt;Node26</title>
<path fill="none" stroke="#191970" d="M1101.5787,-229.825C1096.1524,-214.6814 1088.6007,-185.3234 1103.5,-168 1117.4014,-151.8369 1232.3404,-137.9329 1316.7991,-129.7629"/>
<polygon fill="#191970" stroke="#191970" points="1317.3168,-133.2295 1326.939,-128.7952 1316.6517,-126.2611 1317.3168,-133.2295"/>
</g>
<!-- Node36&#45;&gt;Node32 -->
<g id="edge62" class="edge">
<title>Node36&#45;&gt;Node32</title>
<path fill="none" stroke="#191970" d="M1164.3029,-229.9581C1232.1768,-218.9443 1343.6657,-200.8531 1415.5607,-189.1867"/>
<polygon fill="#191970" stroke="#191970" points="1416.5607,-192.5703 1425.871,-187.5137 1415.4395,-185.6607 1416.5607,-192.5703"/>
</g>
<!-- Node37 -->
<g id="node38" class="node">
<title>Node37</title>
<g id="a_node38"><a xlink:href="RotationRaw_8h.html" target="_top" xlink:title="iDynTree/Core/RotationRaw.h">
<polygon fill="none" stroke="#000000" points="1112.5,-168.5 1112.5,-187.5 1270.5,-187.5 1270.5,-168.5 1112.5,-168.5"/>
<text text-anchor="middle" x="1191.5" y="-175.5" font-family="FreeSans.ttf" font-size="10.00" fill="#000000">iDynTree/Core/RotationRaw.h</text>
</a>
</g>
</g>
<!-- Node36&#45;&gt;Node37 -->
<g id="edge63" class="edge">
<title>Node36&#45;&gt;Node37</title>
<path fill="none" stroke="#191970" d="M1118.9375,-229.8906C1132.5695,-220.1421 1153.8846,-204.8994 1169.8922,-193.4521"/>
<polygon fill="#191970" stroke="#191970" points="1172.0586,-196.2057 1178.1569,-187.5419 1167.9868,-190.5118 1172.0586,-196.2057"/>
</g>
<!-- Node37&#45;&gt;Node14 -->
<g id="edge65" class="edge">
<title>Node37&#45;&gt;Node14</title>
<path fill="none" stroke="#191970" d="M1176.4346,-168.462C1152.7278,-153.9122 1104.8381,-126.3537 1060.5,-112 971.4229,-83.1629 860.6472,-71.9404 806.8443,-67.9637"/>
<polygon fill="#191970" stroke="#191970" points="806.7818,-64.4508 796.5612,-67.2416 806.2914,-71.4336 806.7818,-64.4508"/>
</g>
<!-- Node37&#45;&gt;Node29 -->
<g id="edge64" class="edge">
<title>Node37&#45;&gt;Node29</title>
<path fill="none" stroke="#191970" d="M1258.9541,-168.4369C1328.4016,-158.5912 1436.4673,-143.2705 1509.2901,-132.9462"/>
<polygon fill="#191970" stroke="#191970" points="1509.9144,-136.3928 1519.3241,-131.5237 1508.9318,-129.4621 1509.9144,-136.3928"/>
</g>
<!-- Node38&#45;&gt;Node26 -->
<g id="edge74" class="edge">
<title>Node38&#45;&gt;Node26</title>
<path fill="none" stroke="#191970" d="M1295.4408,-403.3941C1295.9498,-362.3469 1301.8971,-246.5732 1350.5,-168 1358.1538,-155.6266 1370.3517,-145.1249 1381.5031,-137.2935"/>
<polygon fill="#191970" stroke="#191970" points="1383.7032,-140.0348 1390.1152,-131.6006 1379.843,-134.1954 1383.7032,-140.0348"/>
</g>
<!-- Node38&#45;&gt;Node32 -->
<g id="edge75" class="edge">
<title>Node38&#45;&gt;Node32</title>
<path fill="none" stroke="#191970" d="M1307.3228,-403.4556C1340.5828,-361.1328 1434.8544,-241.1733 1470.5605,-195.7378"/>
<polygon fill="#191970" stroke="#191970" points="1473.4584,-197.7147 1476.8854,-187.6895 1467.9545,-193.3895 1473.4584,-197.7147"/>
</g>
<!-- Node38&#45;&gt;Node33 -->
<g id="edge76" class="edge">
<title>Node38&#45;&gt;Node33</title>
<path fill="none" stroke="#191970" d="M1332.6834,-403.4554C1357.7113,-393.329 1390.4163,-380.0964 1414.5166,-370.3453"/>
<polygon fill="#191970" stroke="#191970" points="1415.9882,-373.5256 1423.9454,-366.5303 1413.3627,-367.0366 1415.9882,-373.5256"/>
</g>
<!-- Node39&#45;&gt;Node14 -->
<g id="edge81" class="edge">
<title>Node39&#45;&gt;Node14</title>
<path fill="none" stroke="#191970" d="M897.347,-347.4175C888.2895,-338.5323 875.0255,-324.6607 865.5,-311 815.343,-239.0684 802.6475,-217.3461 782.5,-132 778.8902,-116.7085 776.8573,-99.0179 775.7451,-85.8033"/>
<polygon fill="#191970" stroke="#191970" points="779.2126,-85.2316 774.9881,-75.5154 772.2314,-85.7453 779.2126,-85.2316"/>
</g>
<!-- Node39&#45;&gt;Node29 -->
<g id="edge80" class="edge">
<title>Node39&#45;&gt;Node29</title>
<path fill="none" stroke="#191970" d="M935.0492,-347.4219C1005.1592,-322.8465 1195.7532,-254.783 1350.5,-188 1369.8519,-179.6484 1373.5922,-174.9229 1393.5,-168 1436.2079,-153.1485 1485.8634,-141.4329 1524.112,-133.5421"/>
<polygon fill="#191970" stroke="#191970" points="1524.9757,-136.9383 1534.0796,-131.5188 1523.5831,-130.0782 1524.9757,-136.9383"/>
</g>
<!-- Node39&#45;&gt;Node34 -->
<g id="edge78" class="edge">
<title>Node39&#45;&gt;Node34</title>
<path fill="none" stroke="#191970" d="M907.5,-347.2455C907.5,-339.9382 907.5,-329.6944 907.5,-320.7046"/>
<polygon fill="#191970" stroke="#191970" points="911.0001,-320.6426 907.5,-310.6427 904.0001,-320.6427 911.0001,-320.6426"/>
</g>
<!-- Node39&#45;&gt;Node36 -->
<g id="edge79" class="edge">
<title>Node39&#45;&gt;Node36</title>
<path fill="none" stroke="#191970" d="M923.7032,-347.3845C958.3071,-326.8494 1039.6158,-278.5979 1080.7457,-254.1901"/>
<polygon fill="#191970" stroke="#191970" points="1082.5371,-257.1969 1089.3506,-249.0836 1078.9647,-251.1771 1082.5371,-257.1969"/>
</g>
</g>
</svg>
