<?xml version="1.0" encoding="UTF-8" standalone="no"?>
<!DOCTYPE svg PUBLIC "-//W3C//DTD SVG 1.1//EN"
 "http://www.w3.org/Graphics/SVG/1.1/DTD/svg11.dtd">
<!-- Generated by graphviz version 2.40.1 (20161225.0304)
 -->
<!-- Title: FixedStepIntegrator.h Pages: 1 -->
<svg width="1026pt" height="252pt"
 viewBox="0.00 0.00 1026.00 252.00" xmlns="http://www.w3.org/2000/svg" xmlns:xlink="http://www.w3.org/1999/xlink">
<g id="graph0" class="graph" transform="scale(1 1) rotate(0) translate(4 248)">
<title>FixedStepIntegrator.h</title>
<!-- Node0 -->
<g id="node1" class="node">
<title>Node0</title>
<polygon fill="#bfbfbf" stroke="#000000" points="509,-224.5 509,-243.5 629,-243.5 629,-224.5 509,-224.5"/>
<text text-anchor="middle" x="569" y="-231.5" font-family="FreeSans.ttf" font-size="10.00" fill="#000000">FixedStepIntegrator.h</text>
</g>
<!-- Node1 -->
<g id="node2" class="node">
<title>Node1</title>
<g id="a_node2"><a xlink:href="Integrator_8h.html" target="_top" xlink:title="iDynTree/Integrator.h">
<polygon fill="none" stroke="#000000" points="620.5,-168.5 620.5,-187.5 739.5,-187.5 739.5,-168.5 620.5,-168.5"/>
<text text-anchor="middle" x="680" y="-175.5" font-family="FreeSans.ttf" font-size="10.00" fill="#000000">iDynTree/Integrator.h</text>
</a>
</g>
</g>
<!-- Node0&#45;&gt;Node1 -->
<g id="edge1" class="edge">
<title>Node0&#45;&gt;Node1</title>
<path fill="none" stroke="#191970" d="M588.0816,-224.3733C605.7402,-215.4644 632.2053,-202.1127 652.2098,-192.0203"/>
<polygon fill="#191970" stroke="#191970" points="653.8158,-195.1303 661.1674,-187.5011 650.6628,-188.8806 653.8158,-195.1303"/>
</g>
<!-- Node2 -->
<g id="node3" class="node">
<title>Node2</title>
<g id="a_node3"><a xlink:href="VectorDynSize_8h.html" target="_top" xlink:title="iDynTree/Core/VectorDynSize.h">
<polygon fill="none" stroke="#000000" points="285.5,-112.5 285.5,-131.5 452.5,-131.5 452.5,-112.5 285.5,-112.5"/>
<text text-anchor="middle" x="369" y="-119.5" font-family="FreeSans.ttf" font-size="10.00" fill="#000000">iDynTree/Core/VectorDynSize.h</text>
</a>
</g>
</g>
<!-- Node0&#45;&gt;Node2 -->
<g id="edge28" class="edge">
<title>Node0&#45;&gt;Node2</title>
<path fill="none" stroke="#191970" d="M551.9481,-224.4509C516.8931,-204.8201 436.5462,-159.8259 394.9772,-136.5472"/>
<polygon fill="#191970" stroke="#191970" points="396.4439,-133.3572 386.0087,-131.5249 393.0237,-139.4647 396.4439,-133.3572"/>
</g>
<!-- Node1&#45;&gt;Node2 -->
<g id="edge2" class="edge">
<title>Node1&#45;&gt;Node2</title>
<path fill="none" stroke="#191970" d="M626.8906,-168.4369C572.8826,-158.712 489.2104,-143.6456 431.9136,-133.3285"/>
<polygon fill="#191970" stroke="#191970" points="432.3524,-129.8513 421.8904,-131.5237 431.1118,-136.7405 432.3524,-129.8513"/>
</g>
<!-- Node13 -->
<g id="node14" class="node">
<title>Node13</title>
<polygon fill="none" stroke="#bfbfbf" points="484,-56.5 484,-75.5 528,-75.5 528,-56.5 484,-56.5"/>
<text text-anchor="middle" x="506" y="-63.5" font-family="FreeSans.ttf" font-size="10.00" fill="#000000">string</text>
</g>
<!-- Node1&#45;&gt;Node13 -->
<g id="edge25" class="edge">
<title>Node1&#45;&gt;Node13</title>
<path fill="none" stroke="#191970" d="M620.4241,-170.8608C573.3211,-163.8469 513.0678,-151.3499 498,-132 487.7285,-118.8094 491.6411,-99.4169 496.9754,-85.0632"/>
<polygon fill="#191970" stroke="#191970" points="500.2784,-86.2376 500.9284,-75.6627 493.8257,-83.5242 500.2784,-86.2376"/>
</g>
<!-- Node14 -->
<g id="node15" class="node">
<title>Node14</title>
<g id="a_node15"><a xlink:href="MatrixDynSize_8h.html" target="_top" xlink:title="iDynTree/Core/MatrixDynSize.h">
<polygon fill="none" stroke="#000000" points="507.5,-112.5 507.5,-131.5 674.5,-131.5 674.5,-112.5 507.5,-112.5"/>
<text text-anchor="middle" x="591" y="-119.5" font-family="FreeSans.ttf" font-size="10.00" fill="#000000">iDynTree/Core/MatrixDynSize.h</text>
</a>
</g>
</g>
<!-- Node1&#45;&gt;Node14 -->
<g id="edge14" class="edge">
<title>Node1&#45;&gt;Node14</title>
<path fill="none" stroke="#191970" d="M664.4974,-168.2455C650.842,-159.6534 630.7343,-147.0014 615.0011,-137.1018"/>
<polygon fill="#191970" stroke="#191970" points="616.6529,-134.006 606.325,-131.6427 612.9249,-139.9307 616.6529,-134.006"/>
</g>
<!-- Node15 -->
<g id="node16" class="node">
<title>Node15</title>
<g id="a_node16"><a xlink:href="SparsityStructure_8h.html" target="_top" xlink:title="iDynTree/SparsityStructure.h">
<polygon fill="none" stroke="#000000" points="692.5,-112.5 692.5,-131.5 847.5,-131.5 847.5,-112.5 692.5,-112.5"/>
<text text-anchor="middle" x="770" y="-119.5" font-family="FreeSans.ttf" font-size="10.00" fill="#000000">iDynTree/SparsityStructure.h</text>
</a>
</g>
</g>
<!-- Node1&#45;&gt;Node15 -->
<g id="edge16" class="edge">
<title>Node1&#45;&gt;Node15</title>
<path fill="none" stroke="#191970" d="M695.6768,-168.2455C709.4856,-159.6534 729.8193,-147.0014 745.7292,-137.1018"/>
<polygon fill="#191970" stroke="#191970" points="747.8613,-139.8974 754.5028,-131.6427 744.1632,-133.954 747.8613,-139.8974"/>
</g>
<!-- Node18 -->
<g id="node19" class="node">
<title>Node18</title>
<polygon fill="none" stroke="#bfbfbf" points="862.5,-56.5 862.5,-75.5 909.5,-75.5 909.5,-56.5 862.5,-56.5"/>
<text text-anchor="middle" x="886" y="-63.5" font-family="FreeSans.ttf" font-size="10.00" fill="#000000">vector</text>
</g>
<!-- Node1&#45;&gt;Node18 -->
<g id="edge24" class="edge">
<title>Node1&#45;&gt;Node18</title>
<path fill="none" stroke="#191970" d="M738.3767,-168.4813C782.7503,-160.2291 839.114,-147.235 857,-132 870.8183,-120.2298 878.2873,-100.6129 882.1662,-85.8178"/>
<polygon fill="#191970" stroke="#191970" points="885.6729,-86.1808 884.4782,-75.6536 878.8473,-84.6281 885.6729,-86.1808"/>
</g>
<!-- Node20 -->
<g id="node21" class="node">
<title>Node20</title>
<polygon fill="none" stroke="#bfbfbf" points="904,-112.5 904,-131.5 962,-131.5 962,-112.5 904,-112.5"/>
<text text-anchor="middle" x="933" y="-119.5" font-family="FreeSans.ttf" font-size="10.00" fill="#000000">memory</text>
</g>
<!-- Node1&#45;&gt;Node20 -->
<g id="edge26" class="edge">
<title>Node1&#45;&gt;Node20</title>
<path fill="none" stroke="#191970" d="M724.2829,-168.4729C766.8081,-159.2831 832.8422,-144.9058 890,-132 891.2616,-131.7151 892.5438,-131.4244 893.8382,-131.1297"/>
<polygon fill="#191970" stroke="#191970" points="894.9035,-134.4763 903.8674,-128.8284 893.3379,-127.6536 894.9035,-134.4763"/>
</g>
<!-- Node21 -->
<g id="node22" class="node">
<title>Node21</title>
<polygon fill="none" stroke="#bfbfbf" points="980,-112.5 980,-131.5 1018,-131.5 1018,-112.5 980,-112.5"/>
<text text-anchor="middle" x="999" y="-119.5" font-family="FreeSans.ttf" font-size="10.00" fill="#000000">map</text>
</g>
<!-- Node1&#45;&gt;Node21 -->
<g id="edge27" class="edge">
<title>Node1&#45;&gt;Node21</title>
<path fill="none" stroke="#191970" d="M739.7364,-171.8547C796.8291,-165.2412 885.3323,-153.0597 970.086,-131.8559"/>
<polygon fill="#191970" stroke="#191970" points="971.0402,-135.2247 979.8664,-129.3639 969.3119,-128.4414 971.0402,-135.2247"/>
</g>
<!-- Node3 -->
<g id="node4" class="node">
<title>Node3</title>
<g id="a_node4"><a xlink:href="Span_8h.html" target="_top" xlink:title="iDynTree/Core/Span.h">
<polygon fill="none" stroke="#000000" points="266.5,-56.5 266.5,-75.5 387.5,-75.5 387.5,-56.5 266.5,-56.5"/>
<text text-anchor="middle" x="327" y="-63.5" font-family="FreeSans.ttf" font-size="10.00" fill="#000000">iDynTree/Core/Span.h</text>
</a>
</g>
</g>
<!-- Node2&#45;&gt;Node3 -->
<g id="edge3" class="edge">
<title>Node2&#45;&gt;Node3</title>
<path fill="none" stroke="#191970" d="M361.6842,-112.2455C355.7821,-104.3761 347.3258,-93.101 340.2406,-83.6542"/>
<polygon fill="#191970" stroke="#191970" points="343.0321,-81.5427 334.232,-75.6427 337.432,-85.7427 343.0321,-81.5427"/>
</g>
<!-- Node2&#45;&gt;Node13 -->
<g id="edge13" class="edge">
<title>Node2&#45;&gt;Node13</title>
<path fill="none" stroke="#191970" d="M392.5511,-112.3733C415.1092,-103.1524 449.3112,-89.1721 474.2642,-78.9723"/>
<polygon fill="#191970" stroke="#191970" points="475.7311,-82.1539 483.6634,-75.1303 473.0825,-75.6743 475.7311,-82.1539"/>
</g>
<!-- Node4 -->
<g id="node5" class="node">
<title>Node4</title>
<polygon fill="none" stroke="#bfbfbf" points="0,-.5 0,-19.5 52,-19.5 52,-.5 0,-.5"/>
<text text-anchor="middle" x="26" y="-7.5" font-family="FreeSans.ttf" font-size="10.00" fill="#000000">cassert</text>
</g>
<!-- Node3&#45;&gt;Node4 -->
<g id="edge4" class="edge">
<title>Node3&#45;&gt;Node4</title>
<path fill="none" stroke="#191970" d="M266.4163,-57.414C214.589,-49.6402 137.843,-37.1159 62.4408,-20.1513"/>
<polygon fill="#191970" stroke="#191970" points="62.8228,-16.6487 52.2951,-17.8394 61.2675,-23.4737 62.8228,-16.6487"/>
</g>
<!-- Node5 -->
<g id="node6" class="node">
<title>Node5</title>
<polygon fill="none" stroke="#bfbfbf" points="70,-.5 70,-19.5 134,-19.5 134,-.5 70,-.5"/>
<text text-anchor="middle" x="102" y="-7.5" font-family="FreeSans.ttf" font-size="10.00" fill="#000000">algorithm</text>
</g>
<!-- Node3&#45;&gt;Node5 -->
<g id="edge5" class="edge">
<title>Node3&#45;&gt;Node5</title>
<path fill="none" stroke="#191970" d="M288.5768,-56.4369C248.3413,-46.4227 185.3488,-30.7446 143.869,-20.4207"/>
<polygon fill="#191970" stroke="#191970" points="144.6215,-17.0013 134.0722,-17.9824 142.9308,-23.7941 144.6215,-17.0013"/>
</g>
<!-- Node6 -->
<g id="node7" class="node">
<title>Node6</title>
<polygon fill="none" stroke="#bfbfbf" points="152,-.5 152,-19.5 194,-19.5 194,-.5 152,-.5"/>
<text text-anchor="middle" x="173" y="-7.5" font-family="FreeSans.ttf" font-size="10.00" fill="#000000">array</text>
</g>
<!-- Node3&#45;&gt;Node6 -->
<g id="edge6" class="edge">
<title>Node3&#45;&gt;Node6</title>
<path fill="none" stroke="#191970" d="M300.5265,-56.3733C273.6018,-46.5825 231.9201,-31.4255 203.597,-21.1262"/>
<polygon fill="#191970" stroke="#191970" points="204.7761,-17.8308 194.182,-17.7026 202.3838,-24.4093 204.7761,-17.8308"/>
</g>
<!-- Node7 -->
<g id="node8" class="node">
<title>Node7</title>
<polygon fill="none" stroke="#bfbfbf" points="579.5,-.5 579.5,-19.5 632.5,-19.5 632.5,-.5 579.5,-.5"/>
<text text-anchor="middle" x="606" y="-7.5" font-family="FreeSans.ttf" font-size="10.00" fill="#000000">cstddef</text>
</g>
<!-- Node3&#45;&gt;Node7 -->
<g id="edge7" class="edge">
<title>Node3&#45;&gt;Node7</title>
<path fill="none" stroke="#191970" d="M384.7295,-56.4764C431.9254,-48.3708 500.5633,-35.8569 569.5876,-19.945"/>
<polygon fill="#191970" stroke="#191970" points="570.3818,-23.3537 579.3276,-17.6773 568.7944,-16.5361 570.3818,-23.3537"/>
</g>
<!-- Node8 -->
<g id="node9" class="node">
<title>Node8</title>
<polygon fill="none" stroke="#bfbfbf" points="212.5,-.5 212.5,-19.5 265.5,-19.5 265.5,-.5 212.5,-.5"/>
<text text-anchor="middle" x="239" y="-7.5" font-family="FreeSans.ttf" font-size="10.00" fill="#000000">iterator</text>
</g>
<!-- Node3&#45;&gt;Node8 -->
<g id="edge8" class="edge">
<title>Node3&#45;&gt;Node8</title>
<path fill="none" stroke="#191970" d="M311.6716,-56.2455C298.1697,-47.6534 278.2878,-35.0014 262.7314,-25.1018"/>
<polygon fill="#191970" stroke="#191970" points="264.4685,-22.0587 254.1528,-19.6427 260.7103,-27.9643 264.4685,-22.0587"/>
</g>
<!-- Node9 -->
<g id="node10" class="node">
<title>Node9</title>
<polygon fill="none" stroke="#bfbfbf" points="284,-.5 284,-19.5 328,-19.5 328,-.5 284,-.5"/>
<text text-anchor="middle" x="306" y="-7.5" font-family="FreeSans.ttf" font-size="10.00" fill="#000000">limits</text>
</g>
<!-- Node3&#45;&gt;Node9 -->
<g id="edge9" class="edge">
<title>Node3&#45;&gt;Node9</title>
<path fill="none" stroke="#191970" d="M323.3421,-56.2455C320.5416,-48.7776 316.591,-38.2427 313.1676,-29.1137"/>
<polygon fill="#191970" stroke="#191970" points="316.4045,-27.777 309.616,-19.6427 309.8501,-30.2349 316.4045,-27.777"/>
</g>
<!-- Node10 -->
<g id="node11" class="node">
<title>Node10</title>
<polygon fill="none" stroke="#bfbfbf" points="346.5,-.5 346.5,-19.5 411.5,-19.5 411.5,-.5 346.5,-.5"/>
<text text-anchor="middle" x="379" y="-7.5" font-family="FreeSans.ttf" font-size="10.00" fill="#000000">stdexcept</text>
</g>
<!-- Node3&#45;&gt;Node10 -->
<g id="edge10" class="edge">
<title>Node3&#45;&gt;Node10</title>
<path fill="none" stroke="#191970" d="M336.0577,-56.2455C343.5142,-48.2155 354.2634,-36.6394 363.1417,-27.0781"/>
<polygon fill="#191970" stroke="#191970" points="365.8063,-29.3522 370.0461,-19.6427 360.6768,-24.589 365.8063,-29.3522"/>
</g>
<!-- Node11 -->
<g id="node12" class="node">
<title>Node11</title>
<polygon fill="none" stroke="#bfbfbf" points="429.5,-.5 429.5,-19.5 498.5,-19.5 498.5,-.5 429.5,-.5"/>
<text text-anchor="middle" x="464" y="-7.5" font-family="FreeSans.ttf" font-size="10.00" fill="#000000">type_traits</text>
</g>
<!-- Node3&#45;&gt;Node11 -->
<g id="edge11" class="edge">
<title>Node3&#45;&gt;Node11</title>
<path fill="none" stroke="#191970" d="M350.5511,-56.3733C372.8391,-47.2629 406.4937,-33.5062 431.3637,-23.3404"/>
<polygon fill="#191970" stroke="#191970" points="432.8239,-26.5247 440.7562,-19.5011 430.1753,-20.0451 432.8239,-26.5247"/>
</g>
<!-- Node12 -->
<g id="node13" class="node">
<title>Node12</title>
<polygon fill="none" stroke="#bfbfbf" points="516.5,-.5 516.5,-19.5 561.5,-19.5 561.5,-.5 516.5,-.5"/>
<text text-anchor="middle" x="539" y="-7.5" font-family="FreeSans.ttf" font-size="10.00" fill="#000000">utility</text>
</g>
<!-- Node3&#45;&gt;Node12 -->
<g id="edge12" class="edge">
<title>Node3&#45;&gt;Node12</title>
<path fill="none" stroke="#191970" d="M366.8418,-56.4571C401.3518,-48.0486 452.819,-35.1687 506.6079,-20.0054"/>
<polygon fill="#191970" stroke="#191970" points="507.6538,-23.3469 516.3186,-17.25 505.7429,-16.6128 507.6538,-23.3469"/>
</g>
<!-- Node14&#45;&gt;Node13 -->
<g id="edge15" class="edge">
<title>Node14&#45;&gt;Node13</title>
<path fill="none" stroke="#191970" d="M576.1941,-112.2455C563.2744,-103.7337 544.3069,-91.2375 529.3448,-81.3801"/>
<polygon fill="#191970" stroke="#191970" points="530.9124,-78.2216 520.6362,-75.6427 527.0613,-84.067 530.9124,-78.2216"/>
</g>
<!-- Node15&#45;&gt;Node7 -->
<g id="edge21" class="edge">
<title>Node15&#45;&gt;Node7</title>
<path fill="none" stroke="#191970" d="M712.4032,-112.4276C672.3882,-104.5172 624.0029,-92.0011 611,-76 600.6052,-63.2084 600.2891,-44.0312 602.0209,-29.6398"/>
<polygon fill="#191970" stroke="#191970" points="605.4787,-30.1816 603.6113,-19.7526 598.5675,-29.0698 605.4787,-30.1816"/>
</g>
<!-- Node15&#45;&gt;Node13 -->
<g id="edge23" class="edge">
<title>Node15&#45;&gt;Node13</title>
<path fill="none" stroke="#191970" d="M724.9167,-112.4369C671.7942,-101.1685 584.8627,-82.7284 538.1289,-72.8152"/>
<polygon fill="#191970" stroke="#191970" points="538.7559,-69.3704 528.2473,-70.7191 537.3033,-76.2181 538.7559,-69.3704"/>
</g>
<!-- Node16 -->
<g id="node17" class="node">
<title>Node16</title>
<g id="a_node17"><a xlink:href="Utils_8h.html" target="_top" xlink:title="iDynTree/Core/Utils.h">
<polygon fill="none" stroke="#000000" points="620.5,-56.5 620.5,-75.5 739.5,-75.5 739.5,-56.5 620.5,-56.5"/>
<text text-anchor="middle" x="680" y="-63.5" font-family="FreeSans.ttf" font-size="10.00" fill="#000000">iDynTree/Core/Utils.h</text>
</a>
</g>
</g>
<!-- Node15&#45;&gt;Node16 -->
<g id="edge17" class="edge">
<title>Node15&#45;&gt;Node16</title>
<path fill="none" stroke="#191970" d="M754.3232,-112.2455C740.5144,-103.6534 720.1807,-91.0014 704.2708,-81.1018"/>
<polygon fill="#191970" stroke="#191970" points="705.8368,-77.954 695.4972,-75.6427 702.1387,-83.8974 705.8368,-77.954"/>
</g>
<!-- Node15&#45;&gt;Node18 -->
<g id="edge20" class="edge">
<title>Node15&#45;&gt;Node18</title>
<path fill="none" stroke="#191970" d="M789.9411,-112.3733C808.4786,-103.4241 836.3028,-89.9917 857.2413,-79.8835"/>
<polygon fill="#191970" stroke="#191970" points="858.8352,-83.0006 866.3191,-75.5011 855.7919,-76.6967 858.8352,-83.0006"/>
</g>
<!-- Node19 -->
<g id="node20" class="node">
<title>Node19</title>
<polygon fill="none" stroke="#bfbfbf" points="758,-56.5 758,-75.5 844,-75.5 844,-56.5 758,-56.5"/>
<text text-anchor="middle" x="801" y="-63.5" font-family="FreeSans.ttf" font-size="10.00" fill="#000000">unordered_set</text>
</g>
<!-- Node15&#45;&gt;Node19 -->
<g id="edge22" class="edge">
<title>Node15&#45;&gt;Node19</title>
<path fill="none" stroke="#191970" d="M775.3998,-112.2455C779.6227,-104.617 785.6173,-93.7881 790.7441,-84.5267"/>
<polygon fill="#191970" stroke="#191970" points="793.881,-86.0867 795.6621,-75.6427 787.7568,-82.6965 793.881,-86.0867"/>
</g>
<!-- Node16&#45;&gt;Node7 -->
<g id="edge18" class="edge">
<title>Node16&#45;&gt;Node7</title>
<path fill="none" stroke="#191970" d="M667.1102,-56.2455C656.0746,-47.8943 639.9708,-35.7076 627.0647,-25.9408"/>
<polygon fill="#191970" stroke="#191970" points="628.8283,-22.8862 618.7421,-19.6427 624.6041,-28.4681 628.8283,-22.8862"/>
</g>
<!-- Node17 -->
<g id="node18" class="node">
<title>Node17</title>
<polygon fill="none" stroke="#bfbfbf" points="651,-.5 651,-19.5 731,-19.5 731,-.5 651,-.5"/>
<text text-anchor="middle" x="691" y="-7.5" font-family="FreeSans.ttf" font-size="10.00" fill="#000000">CoreExport.h</text>
</g>
<!-- Node16&#45;&gt;Node17 -->
<g id="edge19" class="edge">
<title>Node16&#45;&gt;Node17</title>
<path fill="none" stroke="#191970" d="M681.9161,-56.2455C683.3514,-48.9382 685.3636,-38.6944 687.1295,-29.7046"/>
<polygon fill="#191970" stroke="#191970" points="690.6127,-30.1298 689.1059,-19.6427 683.744,-28.7805 690.6127,-30.1298"/>
</g>
</g>
</svg>
