<?xml version="1.0" encoding="UTF-8" standalone="no"?>
<!DOCTYPE svg PUBLIC "-//W3C//DTD SVG 1.1//EN"
 "http://www.w3.org/Graphics/SVG/1.1/DTD/svg11.dtd">
<!-- Generated by graphviz version 2.40.1 (20161225.0304)
 -->
<!-- Title: FixedJoint.h Pages: 1 -->
<svg width="960pt" height="420pt"
 viewBox="0.00 0.00 960.00 420.00" xmlns="http://www.w3.org/2000/svg" xmlns:xlink="http://www.w3.org/1999/xlink">
<g id="graph0" class="graph" transform="scale(1 1) rotate(0) translate(4 416)">
<title>FixedJoint.h</title>
<!-- Node0 -->
<g id="node1" class="node">
<title>Node0</title>
<polygon fill="#bfbfbf" stroke="#000000" points="754.5,-392.5 754.5,-411.5 827.5,-411.5 827.5,-392.5 754.5,-392.5"/>
<text text-anchor="middle" x="791" y="-399.5" font-family="FreeSans.ttf" font-size="10.00" fill="#000000">FixedJoint.h</text>
</g>
<!-- Node1 -->
<g id="node2" class="node">
<title>Node1</title>
<g id="a_node2"><a xlink:href="Transform_8h.html" target="_top" xlink:title="iDynTree/Core/Transform.h">
<polygon fill="none" stroke="#000000" points="563,-336.5 563,-355.5 709,-355.5 709,-336.5 563,-336.5"/>
<text text-anchor="middle" x="636" y="-343.5" font-family="FreeSans.ttf" font-size="10.00" fill="#000000">iDynTree/Core/Transform.h</text>
</a>
</g>
</g>
<!-- Node0&#45;&gt;Node1 -->
<g id="edge1" class="edge">
<title>Node0&#45;&gt;Node1</title>
<path fill="none" stroke="#191970" d="M764.3546,-392.3733C738.8036,-383.1419 700.0488,-369.1402 671.8091,-358.9375"/>
<polygon fill="#191970" stroke="#191970" points="672.8921,-355.6074 662.2978,-355.5011 670.5135,-362.1909 672.8921,-355.6074"/>
</g>
<!-- Node25 -->
<g id="node26" class="node">
<title>Node25</title>
<g id="a_node26"><a xlink:href="Indices_8h.html" target="_top" xlink:title="iDynTree/Model/Indices.h">
<polygon fill="none" stroke="#000000" points="814,-280.5 814,-299.5 952,-299.5 952,-280.5 814,-280.5"/>
<text text-anchor="middle" x="883" y="-287.5" font-family="FreeSans.ttf" font-size="10.00" fill="#000000">iDynTree/Model/Indices.h</text>
</a>
</g>
</g>
<!-- Node0&#45;&gt;Node25 -->
<g id="edge41" class="edge">
<title>Node0&#45;&gt;Node25</title>
<path fill="none" stroke="#191970" d="M814.9684,-392.3887C831.0451,-384.7773 851.4917,-372.6464 864,-356 874.0604,-342.6113 878.8009,-324.0472 881.0306,-310.0167"/>
<polygon fill="#191970" stroke="#191970" points="884.5245,-310.2879 882.3342,-299.9219 877.5822,-309.3913 884.5245,-310.2879"/>
</g>
<!-- Node27 -->
<g id="node28" class="node">
<title>Node27</title>
<g id="a_node28"><a xlink:href="IJoint_8h.html" target="_top" xlink:title="iDynTree/Model/IJoint.h">
<polygon fill="none" stroke="#000000" points="727,-336.5 727,-355.5 855,-355.5 855,-336.5 727,-336.5"/>
<text text-anchor="middle" x="791" y="-343.5" font-family="FreeSans.ttf" font-size="10.00" fill="#000000">iDynTree/Model/IJoint.h</text>
</a>
</g>
</g>
<!-- Node0&#45;&gt;Node27 -->
<g id="edge44" class="edge">
<title>Node0&#45;&gt;Node27</title>
<path fill="none" stroke="#191970" d="M791,-392.2455C791,-384.9382 791,-374.6944 791,-365.7046"/>
<polygon fill="#191970" stroke="#191970" points="794.5001,-365.6426 791,-355.6427 787.5001,-365.6427 794.5001,-365.6426"/>
</g>
<!-- Node2 -->
<g id="node3" class="node">
<title>Node2</title>
<g id="a_node3"><a xlink:href="Position_8h.html" target="_top" xlink:title="iDynTree/Core/Position.h">
<polygon fill="none" stroke="#000000" points="569,-280.5 569,-299.5 705,-299.5 705,-280.5 569,-280.5"/>
<text text-anchor="middle" x="637" y="-287.5" font-family="FreeSans.ttf" font-size="10.00" fill="#000000">iDynTree/Core/Position.h</text>
</a>
</g>
</g>
<!-- Node1&#45;&gt;Node2 -->
<g id="edge2" class="edge">
<title>Node1&#45;&gt;Node2</title>
<path fill="none" stroke="#191970" d="M636.1742,-336.2455C636.3047,-328.9382 636.4876,-318.6944 636.6481,-309.7046"/>
<polygon fill="#191970" stroke="#191970" points="640.1486,-309.7036 636.8278,-299.6427 633.1497,-309.5786 640.1486,-309.7036"/>
</g>
<!-- Node17 -->
<g id="node18" class="node">
<title>Node17</title>
<polygon fill="none" stroke="#bfbfbf" points="613,-56.5 613,-75.5 657,-75.5 657,-56.5 613,-56.5"/>
<text text-anchor="middle" x="635" y="-63.5" font-family="FreeSans.ttf" font-size="10.00" fill="#000000">string</text>
</g>
<!-- Node1&#45;&gt;Node17 -->
<g id="edge40" class="edge">
<title>Node1&#45;&gt;Node17</title>
<path fill="none" stroke="#191970" d="M670.465,-336.4443C713.9137,-322.0495 783,-290.3079 783,-234 783,-234 783,-234 783,-178 783,-120.1552 710.2235,-88.3621 666.7376,-74.5281"/>
<polygon fill="#191970" stroke="#191970" points="667.7427,-71.1755 657.1571,-71.6184 665.7084,-77.8734 667.7427,-71.1755"/>
</g>
<!-- Node20 -->
<g id="node21" class="node">
<title>Node20</title>
<g id="a_node21"><a xlink:href="Rotation_8h.html" target="_top" xlink:title="iDynTree/Core/Rotation.h">
<polygon fill="none" stroke="#000000" points="438.5,-224.5 438.5,-243.5 575.5,-243.5 575.5,-224.5 438.5,-224.5"/>
<text text-anchor="middle" x="507" y="-231.5" font-family="FreeSans.ttf" font-size="10.00" fill="#000000">iDynTree/Core/Rotation.h</text>
</a>
</g>
</g>
<!-- Node1&#45;&gt;Node20 -->
<g id="edge38" class="edge">
<title>Node1&#45;&gt;Node20</title>
<path fill="none" stroke="#191970" d="M616.0026,-336.3762C599.8904,-328.063 577.1722,-315.0383 560,-300 543.8572,-285.8632 528.887,-266.3814 519.0034,-252.251"/>
<polygon fill="#191970" stroke="#191970" points="521.8031,-250.1439 513.2818,-243.848 516.017,-254.0837 521.8031,-250.1439"/>
</g>
<!-- Node23 -->
<g id="node24" class="node">
<title>Node23</title>
<g id="a_node24"><a xlink:href="MatrixFixSize_8h.html" target="_top" xlink:title="iDynTree/Core/MatrixFixSize.h">
<polygon fill="none" stroke="#000000" points="125.5,-112.5 125.5,-131.5 286.5,-131.5 286.5,-112.5 125.5,-112.5"/>
<text text-anchor="middle" x="206" y="-119.5" font-family="FreeSans.ttf" font-size="10.00" fill="#000000">iDynTree/Core/MatrixFixSize.h</text>
</a>
</g>
</g>
<!-- Node1&#45;&gt;Node23 -->
<g id="edge39" class="edge">
<title>Node1&#45;&gt;Node23</title>
<path fill="none" stroke="#191970" d="M574.4463,-336.4724C449.4484,-315.7351 173.0412,-262.3333 118,-188 101.1311,-165.2185 133.4097,-146.6665 163.5132,-135.0984"/>
<polygon fill="#191970" stroke="#191970" points="164.9463,-138.3014 173.1455,-131.5914 162.5515,-131.7238 164.9463,-138.3014"/>
</g>
<!-- Node3 -->
<g id="node4" class="node">
<title>Node3</title>
<g id="a_node4"><a xlink:href="PositionRaw_8h.html" target="_top" xlink:title="iDynTree/Core/PositionRaw.h">
<polygon fill="none" stroke="#000000" points="561,-168.5 561,-187.5 717,-187.5 717,-168.5 561,-168.5"/>
<text text-anchor="middle" x="639" y="-175.5" font-family="FreeSans.ttf" font-size="10.00" fill="#000000">iDynTree/Core/PositionRaw.h</text>
</a>
</g>
</g>
<!-- Node2&#45;&gt;Node3 -->
<g id="edge3" class="edge">
<title>Node2&#45;&gt;Node3</title>
<path fill="none" stroke="#191970" d="M637.1705,-280.4509C637.4967,-262.184 638.2151,-221.9553 638.6483,-197.6976"/>
<polygon fill="#191970" stroke="#191970" points="642.1507,-197.5858 638.8299,-187.5249 635.1518,-197.4608 642.1507,-197.5858"/>
</g>
<!-- Node2&#45;&gt;Node17 -->
<g id="edge37" class="edge">
<title>Node2&#45;&gt;Node17</title>
<path fill="none" stroke="#191970" d="M653.3205,-280.3613C683.6654,-261.0823 744.1187,-215.5254 726,-168 712.132,-131.6241 678.671,-99.9843 656.4215,-81.9473"/>
<polygon fill="#191970" stroke="#191970" points="658.5303,-79.153 648.5074,-75.719 654.2012,-84.6539 658.5303,-79.153"/>
</g>
<!-- Node2&#45;&gt;Node20 -->
<g id="edge23" class="edge">
<title>Node2&#45;&gt;Node20</title>
<path fill="none" stroke="#191970" d="M614.6522,-280.3733C593.5967,-271.3032 561.8505,-257.6279 538.2825,-247.4755"/>
<polygon fill="#191970" stroke="#191970" points="539.625,-244.243 529.0562,-243.5011 536.8556,-250.6719 539.625,-244.243"/>
</g>
<!-- Node4 -->
<g id="node5" class="node">
<title>Node4</title>
<g id="a_node5"><a xlink:href="VectorFixSize_8h.html" target="_top" xlink:title="iDynTree/Core/VectorFixSize.h">
<polygon fill="none" stroke="#000000" points="305.5,-112.5 305.5,-131.5 466.5,-131.5 466.5,-112.5 305.5,-112.5"/>
<text text-anchor="middle" x="386" y="-119.5" font-family="FreeSans.ttf" font-size="10.00" fill="#000000">iDynTree/Core/VectorFixSize.h</text>
</a>
</g>
</g>
<!-- Node3&#45;&gt;Node4 -->
<g id="edge4" class="edge">
<title>Node3&#45;&gt;Node4</title>
<path fill="none" stroke="#191970" d="M595.7952,-168.4369C552.4053,-158.8328 485.4791,-144.0191 438.9274,-133.7152"/>
<polygon fill="#191970" stroke="#191970" points="439.5467,-130.2676 429.0266,-131.5237 438.0338,-137.1022 439.5467,-130.2676"/>
</g>
<!-- Node3&#45;&gt;Node17 -->
<g id="edge22" class="edge">
<title>Node3&#45;&gt;Node17</title>
<path fill="none" stroke="#191970" d="M638.659,-168.4509C638.0066,-150.184 636.5698,-109.9553 635.7035,-85.6976"/>
<polygon fill="#191970" stroke="#191970" points="639.195,-85.3936 635.3402,-75.5249 632.1994,-85.6435 639.195,-85.3936"/>
</g>
<!-- Node5 -->
<g id="node6" class="node">
<title>Node5</title>
<g id="a_node6"><a xlink:href="Utils_8h.html" target="_top" xlink:title="iDynTree/Core/Utils.h">
<polygon fill="none" stroke="#000000" points="148.5,-56.5 148.5,-75.5 267.5,-75.5 267.5,-56.5 148.5,-56.5"/>
<text text-anchor="middle" x="208" y="-63.5" font-family="FreeSans.ttf" font-size="10.00" fill="#000000">iDynTree/Core/Utils.h</text>
</a>
</g>
</g>
<!-- Node4&#45;&gt;Node5 -->
<g id="edge5" class="edge">
<title>Node4&#45;&gt;Node5</title>
<path fill="none" stroke="#191970" d="M355.4007,-112.3733C325.6739,-103.021 280.3841,-88.7725 247.8544,-78.5385"/>
<polygon fill="#191970" stroke="#191970" points="248.7895,-75.1636 238.2,-75.5011 246.6887,-81.8409 248.7895,-75.1636"/>
</g>
<!-- Node8 -->
<g id="node9" class="node">
<title>Node8</title>
<g id="a_node9"><a xlink:href="Span_8h.html" target="_top" xlink:title="iDynTree/Core/Span.h">
<polygon fill="none" stroke="#000000" points="360.5,-56.5 360.5,-75.5 481.5,-75.5 481.5,-56.5 360.5,-56.5"/>
<text text-anchor="middle" x="421" y="-63.5" font-family="FreeSans.ttf" font-size="10.00" fill="#000000">iDynTree/Core/Span.h</text>
</a>
</g>
</g>
<!-- Node4&#45;&gt;Node8 -->
<g id="edge8" class="edge">
<title>Node4&#45;&gt;Node8</title>
<path fill="none" stroke="#191970" d="M392.0965,-112.2455C396.9145,-104.5367 403.7751,-93.5598 409.6032,-84.2348"/>
<polygon fill="#191970" stroke="#191970" points="412.6413,-85.9777 414.9733,-75.6427 406.7053,-82.2677 412.6413,-85.9777"/>
</g>
<!-- Node9 -->
<g id="node10" class="node">
<title>Node9</title>
<polygon fill="none" stroke="#bfbfbf" points="679,-.5 679,-19.5 731,-19.5 731,-.5 679,-.5"/>
<text text-anchor="middle" x="705" y="-7.5" font-family="FreeSans.ttf" font-size="10.00" fill="#000000">cassert</text>
</g>
<!-- Node4&#45;&gt;Node9 -->
<g id="edge20" class="edge">
<title>Node4&#45;&gt;Node9</title>
<path fill="none" stroke="#191970" d="M423.3096,-112.4471C455.7645,-103.8435 503.9053,-90.3717 545,-76 591.0113,-59.9088 642.9564,-37.7093 674.84,-23.6039"/>
<polygon fill="#191970" stroke="#191970" points="676.3476,-26.764 684.0621,-19.502 673.5027,-20.3682 676.3476,-26.764"/>
</g>
<!-- Node4&#45;&gt;Node17 -->
<g id="edge18" class="edge">
<title>Node4&#45;&gt;Node17</title>
<path fill="none" stroke="#191970" d="M430.2903,-112.4949C472.4425,-103.3801 537.6243,-89.1073 594,-76 596.9727,-75.3088 600.0636,-74.5778 603.1555,-73.8382"/>
<polygon fill="#191970" stroke="#191970" points="603.9938,-77.2365 612.8915,-71.4849 602.3491,-70.4324 603.9938,-77.2365"/>
</g>
<!-- Node18 -->
<g id="node19" class="node">
<title>Node18</title>
<polygon fill="none" stroke="#bfbfbf" points="286,-56.5 286,-75.5 342,-75.5 342,-56.5 286,-56.5"/>
<text text-anchor="middle" x="314" y="-63.5" font-family="FreeSans.ttf" font-size="10.00" fill="#000000">sstream</text>
</g>
<!-- Node4&#45;&gt;Node18 -->
<g id="edge19" class="edge">
<title>Node4&#45;&gt;Node18</title>
<path fill="none" stroke="#191970" d="M373.4586,-112.2455C362.7213,-103.8943 347.0527,-91.7076 334.4953,-81.9408"/>
<polygon fill="#191970" stroke="#191970" points="336.4401,-79.0194 326.3977,-75.6427 332.1425,-84.5449 336.4401,-79.0194"/>
</g>
<!-- Node19 -->
<g id="node20" class="node">
<title>Node19</title>
<polygon fill="none" stroke="#bfbfbf" points="80,-56.5 80,-75.5 130,-75.5 130,-56.5 80,-56.5"/>
<text text-anchor="middle" x="105" y="-63.5" font-family="FreeSans.ttf" font-size="10.00" fill="#000000">cstring</text>
</g>
<!-- Node4&#45;&gt;Node19 -->
<g id="edge21" class="edge">
<title>Node4&#45;&gt;Node19</title>
<path fill="none" stroke="#191970" d="M325.2387,-112.4597C277.3715,-104.5395 208.7888,-92.302 140.2792,-76.1294"/>
<polygon fill="#191970" stroke="#191970" points="140.7138,-72.6348 130.1742,-73.7147 139.0869,-79.4431 140.7138,-72.6348"/>
</g>
<!-- Node6 -->
<g id="node7" class="node">
<title>Node6</title>
<polygon fill="none" stroke="#bfbfbf" points="98.5,-.5 98.5,-19.5 151.5,-19.5 151.5,-.5 98.5,-.5"/>
<text text-anchor="middle" x="125" y="-7.5" font-family="FreeSans.ttf" font-size="10.00" fill="#000000">cstddef</text>
</g>
<!-- Node5&#45;&gt;Node6 -->
<g id="edge6" class="edge">
<title>Node5&#45;&gt;Node6</title>
<path fill="none" stroke="#191970" d="M193.5425,-56.2455C180.9268,-47.7337 162.4056,-35.2375 147.7955,-25.3801"/>
<polygon fill="#191970" stroke="#191970" points="149.5391,-22.3343 139.2918,-19.6427 145.6239,-28.1371 149.5391,-22.3343"/>
</g>
<!-- Node7 -->
<g id="node8" class="node">
<title>Node7</title>
<polygon fill="none" stroke="#bfbfbf" points="0,-.5 0,-19.5 80,-19.5 80,-.5 0,-.5"/>
<text text-anchor="middle" x="40" y="-7.5" font-family="FreeSans.ttf" font-size="10.00" fill="#000000">CoreExport.h</text>
</g>
<!-- Node5&#45;&gt;Node7 -->
<g id="edge7" class="edge">
<title>Node5&#45;&gt;Node7</title>
<path fill="none" stroke="#191970" d="M179.1198,-56.3733C151.1839,-47.0613 108.6858,-32.8953 78.0131,-22.671"/>
<polygon fill="#191970" stroke="#191970" points="79.097,-19.3431 68.5034,-19.5011 76.8834,-25.9839 79.097,-19.3431"/>
</g>
<!-- Node8&#45;&gt;Node6 -->
<g id="edge12" class="edge">
<title>Node8&#45;&gt;Node6</title>
<path fill="none" stroke="#191970" d="M360.254,-57.1244C309.4086,-49.2793 234.7886,-36.8011 161.5351,-20.1932"/>
<polygon fill="#191970" stroke="#191970" points="162.2084,-16.7568 151.6788,-17.9313 160.6426,-23.5795 162.2084,-16.7568"/>
</g>
<!-- Node8&#45;&gt;Node9 -->
<g id="edge9" class="edge">
<title>Node8&#45;&gt;Node9</title>
<path fill="none" stroke="#191970" d="M481.4606,-56.494C529.8191,-48.5115 599.5199,-36.1607 668.9104,-20.0978"/>
<polygon fill="#191970" stroke="#191970" points="669.7584,-23.494 678.6973,-17.8067 668.1628,-16.6783 669.7584,-23.494"/>
</g>
<!-- Node10 -->
<g id="node11" class="node">
<title>Node10</title>
<polygon fill="none" stroke="#bfbfbf" points="537,-.5 537,-19.5 601,-19.5 601,-.5 537,-.5"/>
<text text-anchor="middle" x="569" y="-7.5" font-family="FreeSans.ttf" font-size="10.00" fill="#000000">algorithm</text>
</g>
<!-- Node8&#45;&gt;Node10 -->
<g id="edge10" class="edge">
<title>Node8&#45;&gt;Node10</title>
<path fill="none" stroke="#191970" d="M446.4421,-56.3733C470.7326,-47.1822 507.5208,-33.2624 534.4543,-23.0713"/>
<polygon fill="#191970" stroke="#191970" points="535.7757,-26.3136 543.8899,-19.5011 533.2984,-19.7666 535.7757,-26.3136"/>
</g>
<!-- Node11 -->
<g id="node12" class="node">
<title>Node11</title>
<polygon fill="none" stroke="#bfbfbf" points="619,-.5 619,-19.5 661,-19.5 661,-.5 619,-.5"/>
<text text-anchor="middle" x="640" y="-7.5" font-family="FreeSans.ttf" font-size="10.00" fill="#000000">array</text>
</g>
<!-- Node8&#45;&gt;Node11 -->
<g id="edge11" class="edge">
<title>Node8&#45;&gt;Node11</title>
<path fill="none" stroke="#191970" d="M464.81,-56.4225C501.1112,-48.2436 554.2321,-35.7176 608.902,-20.1567"/>
<polygon fill="#191970" stroke="#191970" points="610.1195,-23.4485 618.7629,-17.3212 608.185,-16.7211 610.1195,-23.4485"/>
</g>
<!-- Node12 -->
<g id="node13" class="node">
<title>Node12</title>
<polygon fill="none" stroke="#bfbfbf" points="169.5,-.5 169.5,-19.5 222.5,-19.5 222.5,-.5 169.5,-.5"/>
<text text-anchor="middle" x="196" y="-7.5" font-family="FreeSans.ttf" font-size="10.00" fill="#000000">iterator</text>
</g>
<!-- Node8&#45;&gt;Node12 -->
<g id="edge13" class="edge">
<title>Node8&#45;&gt;Node12</title>
<path fill="none" stroke="#191970" d="M379.9809,-56.4188C343.73,-47.8614 289.1887,-34.7684 232.557,-20.0862"/>
<polygon fill="#191970" stroke="#191970" points="233.2698,-16.6551 222.7105,-17.5226 231.5061,-23.4293 233.2698,-16.6551"/>
</g>
<!-- Node13 -->
<g id="node14" class="node">
<title>Node13</title>
<polygon fill="none" stroke="#bfbfbf" points="241,-.5 241,-19.5 285,-19.5 285,-.5 241,-.5"/>
<text text-anchor="middle" x="263" y="-7.5" font-family="FreeSans.ttf" font-size="10.00" fill="#000000">limits</text>
</g>
<!-- Node8&#45;&gt;Node13 -->
<g id="edge14" class="edge">
<title>Node8&#45;&gt;Node13</title>
<path fill="none" stroke="#191970" d="M393.8388,-56.3733C366.3726,-46.6384 323.9388,-31.5985 294.8913,-21.3032"/>
<polygon fill="#191970" stroke="#191970" points="295.8163,-17.9178 285.2216,-17.876 293.4778,-24.5157 295.8163,-17.9178"/>
</g>
<!-- Node14 -->
<g id="node15" class="node">
<title>Node14</title>
<polygon fill="none" stroke="#bfbfbf" points="303.5,-.5 303.5,-19.5 368.5,-19.5 368.5,-.5 303.5,-.5"/>
<text text-anchor="middle" x="336" y="-7.5" font-family="FreeSans.ttf" font-size="10.00" fill="#000000">stdexcept</text>
</g>
<!-- Node8&#45;&gt;Node14 -->
<g id="edge15" class="edge">
<title>Node8&#45;&gt;Node14</title>
<path fill="none" stroke="#191970" d="M406.1941,-56.2455C393.2744,-47.7337 374.3069,-35.2375 359.3448,-25.3801"/>
<polygon fill="#191970" stroke="#191970" points="360.9124,-22.2216 350.6362,-19.6427 357.0613,-28.067 360.9124,-22.2216"/>
</g>
<!-- Node15 -->
<g id="node16" class="node">
<title>Node15</title>
<polygon fill="none" stroke="#bfbfbf" points="386.5,-.5 386.5,-19.5 455.5,-19.5 455.5,-.5 386.5,-.5"/>
<text text-anchor="middle" x="421" y="-7.5" font-family="FreeSans.ttf" font-size="10.00" fill="#000000">type_traits</text>
</g>
<!-- Node8&#45;&gt;Node15 -->
<g id="edge16" class="edge">
<title>Node8&#45;&gt;Node15</title>
<path fill="none" stroke="#191970" d="M421,-56.2455C421,-48.9382 421,-38.6944 421,-29.7046"/>
<polygon fill="#191970" stroke="#191970" points="424.5001,-29.6426 421,-19.6427 417.5001,-29.6427 424.5001,-29.6426"/>
</g>
<!-- Node16 -->
<g id="node17" class="node">
<title>Node16</title>
<polygon fill="none" stroke="#bfbfbf" points="473.5,-.5 473.5,-19.5 518.5,-19.5 518.5,-.5 473.5,-.5"/>
<text text-anchor="middle" x="496" y="-7.5" font-family="FreeSans.ttf" font-size="10.00" fill="#000000">utility</text>
</g>
<!-- Node8&#45;&gt;Node16 -->
<g id="edge17" class="edge">
<title>Node8&#45;&gt;Node16</title>
<path fill="none" stroke="#191970" d="M434.064,-56.2455C445.3562,-47.814 461.8845,-35.4729 475.0271,-25.6598"/>
<polygon fill="#191970" stroke="#191970" points="477.1669,-28.4301 483.0857,-19.6427 472.9789,-22.8211 477.1669,-28.4301"/>
</g>
<!-- Node20&#45;&gt;Node4 -->
<g id="edge36" class="edge">
<title>Node20&#45;&gt;Node4</title>
<path fill="none" stroke="#191970" d="M504.6143,-224.3339C500.7318,-210.3547 491.8415,-184.3794 476,-168 462.0014,-153.5261 442.4695,-142.7855 425.1773,-135.3394"/>
<polygon fill="#191970" stroke="#191970" points="426.4318,-132.0712 415.8504,-131.5388 423.7903,-138.5537 426.4318,-132.0712"/>
</g>
<!-- Node20&#45;&gt;Node17 -->
<g id="edge24" class="edge">
<title>Node20&#45;&gt;Node17</title>
<path fill="none" stroke="#191970" d="M513.1624,-224.4249C521.6112,-211.4246 537.4092,-187.5669 552,-168 574.8087,-137.4126 603.2106,-103.2908 620.1821,-83.2853"/>
<polygon fill="#191970" stroke="#191970" points="622.8854,-85.5092 626.7061,-75.6272 617.5569,-80.9697 622.8854,-85.5092"/>
</g>
<!-- Node21 -->
<g id="node22" class="node">
<title>Node21</title>
<g id="a_node22"><a xlink:href="GeomVector3_8h.html" target="_top" xlink:title="iDynTree/Core/GeomVector3.h">
<polygon fill="none" stroke="#000000" points="303.5,-168.5 303.5,-187.5 466.5,-187.5 466.5,-168.5 303.5,-168.5"/>
<text text-anchor="middle" x="385" y="-175.5" font-family="FreeSans.ttf" font-size="10.00" fill="#000000">iDynTree/Core/GeomVector3.h</text>
</a>
</g>
</g>
<!-- Node20&#45;&gt;Node21 -->
<g id="edge25" class="edge">
<title>Node20&#45;&gt;Node21</title>
<path fill="none" stroke="#191970" d="M486.0275,-224.3733C466.4433,-215.3838 437.0039,-201.8706 414.949,-191.7471"/>
<polygon fill="#191970" stroke="#191970" points="416.2473,-188.4919 405.6989,-187.5011 413.3271,-194.8538 416.2473,-188.4919"/>
</g>
<!-- Node22 -->
<g id="node23" class="node">
<title>Node22</title>
<g id="a_node23"><a xlink:href="RotationRaw_8h.html" target="_top" xlink:title="iDynTree/Core/RotationRaw.h">
<polygon fill="none" stroke="#000000" points="127,-168.5 127,-187.5 285,-187.5 285,-168.5 127,-168.5"/>
<text text-anchor="middle" x="206" y="-175.5" font-family="FreeSans.ttf" font-size="10.00" fill="#000000">iDynTree/Core/RotationRaw.h</text>
</a>
</g>
</g>
<!-- Node20&#45;&gt;Node22 -->
<g id="edge27" class="edge">
<title>Node20&#45;&gt;Node22</title>
<path fill="none" stroke="#191970" d="M455.5983,-224.4369C403.4351,-214.7321 322.6803,-199.708 267.2354,-189.3926"/>
<polygon fill="#191970" stroke="#191970" points="267.6612,-185.9119 257.1897,-187.5237 266.3808,-192.7938 267.6612,-185.9119"/>
</g>
<!-- Node21&#45;&gt;Node4 -->
<g id="edge26" class="edge">
<title>Node21&#45;&gt;Node4</title>
<path fill="none" stroke="#191970" d="M385.1742,-168.2455C385.3047,-160.9382 385.4876,-150.6944 385.6481,-141.7046"/>
<polygon fill="#191970" stroke="#191970" points="389.1486,-141.7036 385.8278,-131.6427 382.1497,-141.5786 389.1486,-141.7036"/>
</g>
<!-- Node22&#45;&gt;Node17 -->
<g id="edge35" class="edge">
<title>Node22&#45;&gt;Node17</title>
<path fill="none" stroke="#191970" d="M274.2262,-168.4925C341.48,-158.7401 439.3413,-143.4223 476,-132 496.123,-125.73 499.6399,-120.3327 519,-112 547.2077,-99.8592 579.7427,-87.06 603.1645,-78.0538"/>
<polygon fill="#191970" stroke="#191970" points="604.5178,-81.2835 612.6052,-74.4392 602.0149,-74.7463 604.5178,-81.2835"/>
</g>
<!-- Node22&#45;&gt;Node23 -->
<g id="edge28" class="edge">
<title>Node22&#45;&gt;Node23</title>
<path fill="none" stroke="#191970" d="M206,-168.2455C206,-160.9382 206,-150.6944 206,-141.7046"/>
<polygon fill="#191970" stroke="#191970" points="209.5001,-141.6426 206,-131.6427 202.5001,-141.6427 209.5001,-141.6426"/>
</g>
<!-- Node23&#45;&gt;Node5 -->
<g id="edge29" class="edge">
<title>Node23&#45;&gt;Node5</title>
<path fill="none" stroke="#191970" d="M206.3484,-112.2455C206.6093,-104.9382 206.9752,-94.6944 207.2963,-85.7046"/>
<polygon fill="#191970" stroke="#191970" points="210.7964,-85.7613 207.6556,-75.6427 203.8008,-85.5113 210.7964,-85.7613"/>
</g>
<!-- Node23&#45;&gt;Node9 -->
<g id="edge30" class="edge">
<title>Node23&#45;&gt;Node9</title>
<path fill="none" stroke="#191970" d="M286.7224,-113.226C344.2696,-105.9428 423.1437,-93.8599 491,-76 515.7503,-69.4857 520.6846,-63.9858 545,-56 548.03,-55.0049 622.9757,-33.505 669.2052,-20.2552"/>
<polygon fill="#191970" stroke="#191970" points="670.2292,-23.6027 678.878,-17.4831 668.3007,-16.8736 670.2292,-23.6027"/>
</g>
<!-- Node23&#45;&gt;Node17 -->
<g id="edge32" class="edge">
<title>Node23&#45;&gt;Node17</title>
<path fill="none" stroke="#191970" d="M279.2603,-112.4369C373.7584,-100.1015 534.0931,-79.172 602.5042,-70.2419"/>
<polygon fill="#191970" stroke="#191970" points="603.2075,-73.6799 612.6703,-68.9148 602.3014,-66.7387 603.2075,-73.6799"/>
</g>
<!-- Node23&#45;&gt;Node18 -->
<g id="edge34" class="edge">
<title>Node23&#45;&gt;Node18</title>
<path fill="none" stroke="#191970" d="M224.8122,-112.2455C241.8473,-103.4125 267.1575,-90.2887 286.4681,-80.2758"/>
<polygon fill="#191970" stroke="#191970" points="288.137,-83.353 295.4034,-75.6427 284.9147,-77.1388 288.137,-83.353"/>
</g>
<!-- Node23&#45;&gt;Node19 -->
<g id="edge31" class="edge">
<title>Node23&#45;&gt;Node19</title>
<path fill="none" stroke="#191970" d="M188.4071,-112.2455C172.621,-103.4928 149.2361,-90.527 131.2413,-80.5496"/>
<polygon fill="#191970" stroke="#191970" points="132.8341,-77.4308 122.3913,-75.6427 129.4397,-83.5528 132.8341,-77.4308"/>
</g>
<!-- Node24 -->
<g id="node25" class="node">
<title>Node24</title>
<polygon fill="none" stroke="#bfbfbf" points="2,-56.5 2,-75.5 62,-75.5 62,-56.5 2,-56.5"/>
<text text-anchor="middle" x="32" y="-63.5" font-family="FreeSans.ttf" font-size="10.00" fill="#000000">iostream</text>
</g>
<!-- Node23&#45;&gt;Node24 -->
<g id="edge33" class="edge">
<title>Node23&#45;&gt;Node24</title>
<path fill="none" stroke="#191970" d="M176.0883,-112.3733C147.1548,-103.0613 103.1389,-88.8953 71.3707,-78.671"/>
<polygon fill="#191970" stroke="#191970" points="72.1128,-75.2331 61.5213,-75.5011 69.9682,-81.8965 72.1128,-75.2331"/>
</g>
<!-- Node25&#45;&gt;Node17 -->
<g id="edge42" class="edge">
<title>Node25&#45;&gt;Node17</title>
<path fill="none" stroke="#191970" d="M890.6895,-280.4889C900.153,-267.5612 914.0385,-243.7855 906,-224 879.855,-159.6484 856.6541,-147.5819 797,-112 755.9265,-87.5009 701.1998,-75.5291 667.038,-70.0781"/>
<polygon fill="#191970" stroke="#191970" points="667.5435,-66.6148 657.1342,-68.5891 666.5027,-73.537 667.5435,-66.6148"/>
</g>
<!-- Node26 -->
<g id="node27" class="node">
<title>Node26</title>
<polygon fill="none" stroke="#bfbfbf" points="811,-224.5 811,-243.5 897,-243.5 897,-224.5 811,-224.5"/>
<text text-anchor="middle" x="854" y="-231.5" font-family="FreeSans.ttf" font-size="10.00" fill="#000000">ModelExport.h</text>
</g>
<!-- Node25&#45;&gt;Node26 -->
<g id="edge43" class="edge">
<title>Node25&#45;&gt;Node26</title>
<path fill="none" stroke="#191970" d="M877.9486,-280.2455C873.9981,-272.617 868.3903,-261.7881 863.5942,-252.5267"/>
<polygon fill="#191970" stroke="#191970" points="866.7001,-250.9131 858.9935,-243.6427 860.4841,-254.1321 866.7001,-250.9131"/>
</g>
<!-- Node27&#45;&gt;Node25 -->
<g id="edge45" class="edge">
<title>Node27&#45;&gt;Node25</title>
<path fill="none" stroke="#191970" d="M807.0252,-336.2455C821.1408,-327.6534 841.9263,-315.0014 858.1899,-305.1018"/>
<polygon fill="#191970" stroke="#191970" points="860.4363,-307.8319 867.1585,-299.6427 856.7966,-301.8525 860.4363,-307.8319"/>
</g>
</g>
</svg>
