<?xml version="1.0" encoding="UTF-8" standalone="no"?>
<!DOCTYPE svg PUBLIC "-//W3C//DTD SVG 1.1//EN"
 "http://www.w3.org/Graphics/SVG/1.1/DTD/svg11.dtd">
<!-- Generated by graphviz version 2.40.1 (20161225.0304)
 -->
<!-- Title: ForwardEuler.cpp Pages: 1 -->
<svg width="1717pt" height="565pt"
 viewBox="0.00 0.00 1717.00 565.00" xmlns="http://www.w3.org/2000/svg" xmlns:xlink="http://www.w3.org/1999/xlink">
<g id="graph0" class="graph" transform="scale(1 1) rotate(0) translate(4 561)">
<title>ForwardEuler.cpp</title>
<!-- Node0 -->
<g id="node1" class="node">
<title>Node0</title>
<polygon fill="#bfbfbf" stroke="#000000" points="395,-537.5 395,-556.5 495,-556.5 495,-537.5 395,-537.5"/>
<text text-anchor="middle" x="445" y="-544.5" font-family="FreeSans.ttf" font-size="10.00" fill="#000000">ForwardEuler.cpp</text>
</g>
<!-- Node1 -->
<g id="node2" class="node">
<title>Node1</title>
<g id="a_node2"><a xlink:href="ForwardEuler_8h.html" target="_top" xlink:title="iDynTree/Integrators\l/ForwardEuler.h">
<polygon fill="none" stroke="#000000" points="344,-470.5 344,-500.5 460,-500.5 460,-470.5 344,-470.5"/>
<text text-anchor="start" x="352" y="-488.5" font-family="FreeSans.ttf" font-size="10.00" fill="#000000">iDynTree/Integrators</text>
<text text-anchor="middle" x="402" y="-477.5" font-family="FreeSans.ttf" font-size="10.00" fill="#000000">/ForwardEuler.h</text>
</a>
</g>
</g>
<!-- Node0&#45;&gt;Node1 -->
<g id="edge1" class="edge">
<title>Node0&#45;&gt;Node1</title>
<path fill="none" stroke="#191970" d="M438.2813,-537.3906C432.9467,-529.761 425.259,-518.7658 418.3321,-508.8588"/>
<polygon fill="#191970" stroke="#191970" points="421.1176,-506.7345 412.519,-500.5446 415.3808,-510.7456 421.1176,-506.7345"/>
</g>
<!-- Node4 -->
<g id="node5" class="node">
<title>Node4</title>
<g id="a_node5"><a xlink:href="VectorDynSize_8h.html" target="_top" xlink:title="iDynTree/Core/VectorDynSize.h">
<polygon fill="none" stroke="#000000" points="632.5,-112.5 632.5,-131.5 799.5,-131.5 799.5,-112.5 632.5,-112.5"/>
<text text-anchor="middle" x="716" y="-119.5" font-family="FreeSans.ttf" font-size="10.00" fill="#000000">iDynTree/Core/VectorDynSize.h</text>
</a>
</g>
</g>
<!-- Node0&#45;&gt;Node4 -->
<g id="edge35" class="edge">
<title>Node0&#45;&gt;Node4</title>
<path fill="none" stroke="#191970" d="M450.4448,-537.2739C455.5132,-528.0612 463.1445,-513.7739 469,-501 488.5342,-458.3861 477.7308,-438.7954 508,-403 564.4029,-336.2997 676,-388.3511 676,-301 676,-301 676,-301 676,-239.5 676,-202.8963 693.6108,-163.136 705.4619,-140.5237"/>
<polygon fill="#191970" stroke="#191970" points="708.5696,-142.1351 710.269,-131.6774 702.419,-138.7928 708.5696,-142.1351"/>
</g>
<!-- Node18 -->
<g id="node19" class="node">
<title>Node18</title>
<g id="a_node19"><a xlink:href="Utils_8h.html" target="_top" xlink:title="iDynTree/Core/Utils.h">
<polygon fill="none" stroke="#000000" points="499.5,-56.5 499.5,-75.5 618.5,-75.5 618.5,-56.5 499.5,-56.5"/>
<text text-anchor="middle" x="559" y="-63.5" font-family="FreeSans.ttf" font-size="10.00" fill="#000000">iDynTree/Core/Utils.h</text>
</a>
</g>
</g>
<!-- Node0&#45;&gt;Node18 -->
<g id="edge34" class="edge">
<title>Node0&#45;&gt;Node18</title>
<path fill="none" stroke="#191970" d="M394.8179,-543.177C278.439,-532.9336 0,-499.9187 0,-418.5 0,-418.5 0,-418.5 0,-178 0,-129.1111 42.4271,-129.6985 88,-112 106.4089,-104.8508 362.9077,-82.4878 489.4309,-71.8002"/>
<polygon fill="#191970" stroke="#191970" points="489.7463,-75.2861 499.4168,-70.9581 489.1581,-68.3109 489.7463,-75.2861"/>
</g>
<!-- Node24 -->
<g id="node25" class="node">
<title>Node24</title>
<g id="a_node25"><a xlink:href="DynamicalSystem_8h.html" target="_top" xlink:title="iDynTree/DynamicalSystem.h">
<polygon fill="none" stroke="#000000" points="391.5,-168.5 391.5,-187.5 552.5,-187.5 552.5,-168.5 391.5,-168.5"/>
<text text-anchor="middle" x="472" y="-175.5" font-family="FreeSans.ttf" font-size="10.00" fill="#000000">iDynTree/DynamicalSystem.h</text>
</a>
</g>
</g>
<!-- Node0&#45;&gt;Node24 -->
<g id="edge31" class="edge">
<title>Node0&#45;&gt;Node24</title>
<path fill="none" stroke="#191970" d="M396.7356,-537.4181C374.9303,-530.7147 350.6121,-519.5152 335,-501 310.7449,-472.2347 316,-456.1265 316,-418.5 316,-418.5 316,-418.5 316,-301 316,-265.6422 311.9147,-249.8858 336,-224 347.771,-211.3491 386.6878,-198.9078 419.8916,-190.1603"/>
<polygon fill="#191970" stroke="#191970" points="421.1626,-193.4474 429.9764,-187.568 419.4199,-186.6678 421.1626,-193.4474"/>
</g>
<!-- Node25 -->
<g id="node26" class="node">
<title>Node25</title>
<polygon fill="none" stroke="#bfbfbf" points="516.5,-409 516.5,-428 593.5,-428 593.5,-409 516.5,-409"/>
<text text-anchor="middle" x="555" y="-416" font-family="FreeSans.ttf" font-size="10.00" fill="#000000">Eigen/Dense</text>
</g>
<!-- Node0&#45;&gt;Node25 -->
<g id="edge36" class="edge">
<title>Node0&#45;&gt;Node25</title>
<path fill="none" stroke="#191970" d="M459.6718,-537.1729C471.8801,-528.5488 489.2597,-515.1959 502,-501 519.7745,-481.1947 535.6037,-454.8153 545.2358,-437.2752"/>
<polygon fill="#191970" stroke="#191970" points="548.5216,-438.5534 550.1587,-428.0858 542.3512,-435.2478 548.5216,-438.5534"/>
</g>
<!-- Node26 -->
<g id="node27" class="node">
<title>Node26</title>
<g id="a_node27"><a xlink:href="EigenHelpers_8h.html" target="_top" xlink:title="iDynTree/Core/EigenHelpers.h">
<polygon fill="none" stroke="#000000" points="776.5,-476 776.5,-495 937.5,-495 937.5,-476 776.5,-476"/>
<text text-anchor="middle" x="857" y="-483" font-family="FreeSans.ttf" font-size="10.00" fill="#000000">iDynTree/Core/EigenHelpers.h</text>
</a>
</g>
</g>
<!-- Node0&#45;&gt;Node26 -->
<g id="edge37" class="edge">
<title>Node0&#45;&gt;Node26</title>
<path fill="none" stroke="#191970" d="M495.1074,-539.5204C567.0271,-528.7848 699.9976,-508.936 783.184,-496.5187"/>
<polygon fill="#191970" stroke="#191970" points="783.7007,-499.9804 793.0744,-495.0423 782.6672,-493.0571 783.7007,-499.9804"/>
</g>
<!-- Node2 -->
<g id="node3" class="node">
<title>Node2</title>
<g id="a_node3"><a xlink:href="FixedStepIntegrator_8h.html" target="_top" xlink:title="iDynTree/Integrators\l/FixedStepIntegrator.h">
<polygon fill="none" stroke="#000000" points="344.5,-224.5 344.5,-254.5 467.5,-254.5 467.5,-224.5 344.5,-224.5"/>
<text text-anchor="start" x="352.5" y="-242.5" font-family="FreeSans.ttf" font-size="10.00" fill="#000000">iDynTree/Integrators</text>
<text text-anchor="middle" x="406" y="-231.5" font-family="FreeSans.ttf" font-size="10.00" fill="#000000">/FixedStepIntegrator.h</text>
</a>
</g>
</g>
<!-- Node1&#45;&gt;Node2 -->
<g id="edge2" class="edge">
<title>Node1&#45;&gt;Node2</title>
<path fill="none" stroke="#191970" d="M402.2442,-470.4819C402.9095,-429.5667 404.7595,-315.7883 405.5887,-264.7921"/>
<polygon fill="#191970" stroke="#191970" points="409.0908,-264.6897 405.7539,-254.6341 402.0917,-264.5759 409.0908,-264.6897"/>
</g>
<!-- Node3 -->
<g id="node4" class="node">
<title>Node3</title>
<g id="a_node4"><a xlink:href="Integrator_8h.html" target="_top" xlink:title="iDynTree/Integrator.h">
<polygon fill="none" stroke="#000000" points="254.5,-168.5 254.5,-187.5 373.5,-187.5 373.5,-168.5 254.5,-168.5"/>
<text text-anchor="middle" x="314" y="-175.5" font-family="FreeSans.ttf" font-size="10.00" fill="#000000">iDynTree/Integrator.h</text>
</a>
</g>
</g>
<!-- Node2&#45;&gt;Node3 -->
<g id="edge3" class="edge">
<title>Node2&#45;&gt;Node3</title>
<path fill="none" stroke="#191970" d="M383.2584,-224.2977C369.2033,-214.9022 351.217,-202.8787 337.0964,-193.4395"/>
<polygon fill="#191970" stroke="#191970" points="338.7143,-190.311 328.4556,-187.6633 334.8241,-196.1305 338.7143,-190.311"/>
</g>
<!-- Node2&#45;&gt;Node4 -->
<g id="edge30" class="edge">
<title>Node2&#45;&gt;Node4</title>
<path fill="none" stroke="#191970" d="M455.2123,-224.4484C486.1093,-214.7048 526.6572,-201.3789 562,-188 605.6945,-171.4596 655.1814,-149.6939 685.9922,-135.7708"/>
<polygon fill="#191970" stroke="#191970" points="687.649,-138.8625 695.3085,-131.5424 684.7559,-132.4883 687.649,-138.8625"/>
</g>
<!-- Node3&#45;&gt;Node4 -->
<g id="edge4" class="edge">
<title>Node3&#45;&gt;Node4</title>
<path fill="none" stroke="#191970" d="M373.8356,-169.3033C376.9347,-168.8607 380.0038,-168.4241 383,-168 469.431,-155.7673 568.5394,-142.1261 636.0068,-132.898"/>
<polygon fill="#191970" stroke="#191970" points="636.7072,-136.3349 646.141,-131.5126 635.759,-129.3994 636.7072,-136.3349"/>
</g>
<!-- Node15 -->
<g id="node16" class="node">
<title>Node15</title>
<polygon fill="none" stroke="#bfbfbf" points="862,-56.5 862,-75.5 906,-75.5 906,-56.5 862,-56.5"/>
<text text-anchor="middle" x="884" y="-63.5" font-family="FreeSans.ttf" font-size="10.00" fill="#000000">string</text>
</g>
<!-- Node3&#45;&gt;Node15 -->
<g id="edge27" class="edge">
<title>Node3&#45;&gt;Node15</title>
<path fill="none" stroke="#191970" d="M332.1143,-168.4218C366.6731,-150.1501 438.6431,-112.1082 439,-112 516.4946,-88.5027 762.9935,-72.7644 851.7573,-67.735"/>
<polygon fill="#191970" stroke="#191970" points="851.9891,-71.2276 861.7782,-67.175 851.5985,-64.2385 851.9891,-71.2276"/>
</g>
<!-- Node16 -->
<g id="node17" class="node">
<title>Node16</title>
<g id="a_node17"><a xlink:href="MatrixDynSize_8h.html" target="_top" xlink:title="iDynTree/Core/MatrixDynSize.h">
<polygon fill="none" stroke="#000000" points="447.5,-112.5 447.5,-131.5 614.5,-131.5 614.5,-112.5 447.5,-112.5"/>
<text text-anchor="middle" x="531" y="-119.5" font-family="FreeSans.ttf" font-size="10.00" fill="#000000">iDynTree/Core/MatrixDynSize.h</text>
</a>
</g>
</g>
<!-- Node3&#45;&gt;Node16 -->
<g id="edge16" class="edge">
<title>Node3&#45;&gt;Node16</title>
<path fill="none" stroke="#191970" d="M351.3036,-168.3733C388.1685,-158.8598 444.666,-144.2797 484.4506,-134.0127"/>
<polygon fill="#191970" stroke="#191970" points="485.375,-137.3889 494.1831,-131.5011 483.6258,-130.611 485.375,-137.3889"/>
</g>
<!-- Node17 -->
<g id="node18" class="node">
<title>Node17</title>
<g id="a_node18"><a xlink:href="SparsityStructure_8h.html" target="_top" xlink:title="iDynTree/SparsityStructure.h">
<polygon fill="none" stroke="#000000" points="236.5,-112.5 236.5,-131.5 391.5,-131.5 391.5,-112.5 236.5,-112.5"/>
<text text-anchor="middle" x="314" y="-119.5" font-family="FreeSans.ttf" font-size="10.00" fill="#000000">iDynTree/SparsityStructure.h</text>
</a>
</g>
</g>
<!-- Node3&#45;&gt;Node17 -->
<g id="edge18" class="edge">
<title>Node3&#45;&gt;Node17</title>
<path fill="none" stroke="#191970" d="M314,-168.2455C314,-160.9382 314,-150.6944 314,-141.7046"/>
<polygon fill="#191970" stroke="#191970" points="317.5001,-141.6426 314,-131.6427 310.5001,-141.6427 317.5001,-141.6426"/>
</g>
<!-- Node20 -->
<g id="node21" class="node">
<title>Node20</title>
<polygon fill="none" stroke="#bfbfbf" points="126.5,-56.5 126.5,-75.5 173.5,-75.5 173.5,-56.5 126.5,-56.5"/>
<text text-anchor="middle" x="150" y="-63.5" font-family="FreeSans.ttf" font-size="10.00" fill="#000000">vector</text>
</g>
<!-- Node3&#45;&gt;Node20 -->
<g id="edge26" class="edge">
<title>Node3&#45;&gt;Node20</title>
<path fill="none" stroke="#191970" d="M254.3198,-173.7545C196.5022,-168.2524 114.7416,-156.319 95,-132 80.6055,-114.2679 103.1087,-94.1352 123.5193,-80.8179"/>
<polygon fill="#191970" stroke="#191970" points="125.3631,-83.793 132.0249,-75.5546 121.6796,-77.8404 125.3631,-83.793"/>
</g>
<!-- Node22 -->
<g id="node23" class="node">
<title>Node22</title>
<polygon fill="none" stroke="#bfbfbf" points="104,-112.5 104,-131.5 162,-131.5 162,-112.5 104,-112.5"/>
<text text-anchor="middle" x="133" y="-119.5" font-family="FreeSans.ttf" font-size="10.00" fill="#000000">memory</text>
</g>
<!-- Node3&#45;&gt;Node22 -->
<g id="edge28" class="edge">
<title>Node3&#45;&gt;Node22</title>
<path fill="none" stroke="#191970" d="M282.885,-168.3733C252.1992,-158.8793 205.2049,-144.3396 172.0316,-134.0761"/>
<polygon fill="#191970" stroke="#191970" points="172.8013,-130.6506 162.2135,-131.0384 170.7322,-137.3378 172.8013,-130.6506"/>
</g>
<!-- Node23 -->
<g id="node24" class="node">
<title>Node23</title>
<polygon fill="none" stroke="#bfbfbf" points="180,-112.5 180,-131.5 218,-131.5 218,-112.5 180,-112.5"/>
<text text-anchor="middle" x="199" y="-119.5" font-family="FreeSans.ttf" font-size="10.00" fill="#000000">map</text>
</g>
<!-- Node3&#45;&gt;Node23 -->
<g id="edge29" class="edge">
<title>Node3&#45;&gt;Node23</title>
<path fill="none" stroke="#191970" d="M294.2308,-168.3733C275.7417,-159.3699 247.9341,-145.8288 227.1341,-135.7001"/>
<polygon fill="#191970" stroke="#191970" points="228.6521,-132.5464 218.1291,-131.315 225.5875,-138.8399 228.6521,-132.5464"/>
</g>
<!-- Node5 -->
<g id="node6" class="node">
<title>Node5</title>
<g id="a_node6"><a xlink:href="Span_8h.html" target="_top" xlink:title="iDynTree/Core/Span.h">
<polygon fill="none" stroke="#000000" points="924.5,-56.5 924.5,-75.5 1045.5,-75.5 1045.5,-56.5 924.5,-56.5"/>
<text text-anchor="middle" x="985" y="-63.5" font-family="FreeSans.ttf" font-size="10.00" fill="#000000">iDynTree/Core/Span.h</text>
</a>
</g>
</g>
<!-- Node4&#45;&gt;Node5 -->
<g id="edge5" class="edge">
<title>Node4&#45;&gt;Node5</title>
<path fill="none" stroke="#191970" d="M761.9371,-112.4369C808.2645,-102.7925 879.8268,-87.8948 929.3469,-77.5858"/>
<polygon fill="#191970" stroke="#191970" points="930.1756,-80.9884 939.2524,-75.5237 928.7489,-74.1353 930.1756,-80.9884"/>
</g>
<!-- Node4&#45;&gt;Node15 -->
<g id="edge15" class="edge">
<title>Node4&#45;&gt;Node15</title>
<path fill="none" stroke="#191970" d="M744.8802,-112.3733C774.718,-102.4273 821.1685,-86.9438 852.0791,-76.6403"/>
<polygon fill="#191970" stroke="#191970" points="853.5396,-79.8429 861.9196,-73.3601 851.3259,-73.2021 853.5396,-79.8429"/>
</g>
<!-- Node6 -->
<g id="node7" class="node">
<title>Node6</title>
<polygon fill="none" stroke="#bfbfbf" points="1215,-.5 1215,-19.5 1267,-19.5 1267,-.5 1215,-.5"/>
<text text-anchor="middle" x="1241" y="-7.5" font-family="FreeSans.ttf" font-size="10.00" fill="#000000">cassert</text>
</g>
<!-- Node5&#45;&gt;Node6 -->
<g id="edge6" class="edge">
<title>Node5&#45;&gt;Node6</title>
<path fill="none" stroke="#191970" d="M1036.15,-56.454C1078.9016,-48.2266 1141.6662,-35.5723 1204.9366,-20.1407"/>
<polygon fill="#191970" stroke="#191970" points="1205.808,-23.5308 1214.6819,-17.7424 1204.1352,-16.7336 1205.808,-23.5308"/>
</g>
<!-- Node7 -->
<g id="node8" class="node">
<title>Node7</title>
<polygon fill="none" stroke="#bfbfbf" points="1073,-.5 1073,-19.5 1137,-19.5 1137,-.5 1073,-.5"/>
<text text-anchor="middle" x="1105" y="-7.5" font-family="FreeSans.ttf" font-size="10.00" fill="#000000">algorithm</text>
</g>
<!-- Node5&#45;&gt;Node7 -->
<g id="edge7" class="edge">
<title>Node5&#45;&gt;Node7</title>
<path fill="none" stroke="#191970" d="M1005.6287,-56.3733C1024.8919,-47.3838 1053.8486,-33.8706 1075.5419,-23.7471"/>
<polygon fill="#191970" stroke="#191970" points="1077.0587,-26.9017 1084.6405,-19.5011 1074.0985,-20.5584 1077.0587,-26.9017"/>
</g>
<!-- Node8 -->
<g id="node9" class="node">
<title>Node8</title>
<polygon fill="none" stroke="#bfbfbf" points="1155,-.5 1155,-19.5 1197,-19.5 1197,-.5 1155,-.5"/>
<text text-anchor="middle" x="1176" y="-7.5" font-family="FreeSans.ttf" font-size="10.00" fill="#000000">array</text>
</g>
<!-- Node5&#45;&gt;Node8 -->
<g id="edge8" class="edge">
<title>Node5&#45;&gt;Node8</title>
<path fill="none" stroke="#191970" d="M1019.9903,-56.475C1050.647,-48.025 1096.6181,-35.1026 1145.0221,-20.2185"/>
<polygon fill="#191970" stroke="#191970" points="1146.2118,-23.5142 1154.7315,-17.2163 1144.1439,-16.8266 1146.2118,-23.5142"/>
</g>
<!-- Node9 -->
<g id="node10" class="node">
<title>Node9</title>
<polygon fill="none" stroke="#bfbfbf" points="566.5,-.5 566.5,-19.5 619.5,-19.5 619.5,-.5 566.5,-.5"/>
<text text-anchor="middle" x="593" y="-7.5" font-family="FreeSans.ttf" font-size="10.00" fill="#000000">cstddef</text>
</g>
<!-- Node5&#45;&gt;Node9 -->
<g id="edge9" class="edge">
<title>Node5&#45;&gt;Node9</title>
<path fill="none" stroke="#191970" d="M924.1801,-57.3114C841.916,-45.5594 697.7071,-24.9582 630.0373,-15.291"/>
<polygon fill="#191970" stroke="#191970" points="630.2496,-11.7859 619.8551,-13.8364 629.2596,-18.7156 630.2496,-11.7859"/>
</g>
<!-- Node10 -->
<g id="node11" class="node">
<title>Node10</title>
<polygon fill="none" stroke="#bfbfbf" points="705.5,-.5 705.5,-19.5 758.5,-19.5 758.5,-.5 705.5,-.5"/>
<text text-anchor="middle" x="732" y="-7.5" font-family="FreeSans.ttf" font-size="10.00" fill="#000000">iterator</text>
</g>
<!-- Node5&#45;&gt;Node10 -->
<g id="edge10" class="edge">
<title>Node5&#45;&gt;Node10</title>
<path fill="none" stroke="#191970" d="M935.678,-56.4521C893.7201,-48.1249 831.6586,-35.3268 768.4318,-19.9931"/>
<polygon fill="#191970" stroke="#191970" points="769.233,-16.586 758.688,-17.6119 767.5712,-23.3859 769.233,-16.586"/>
</g>
<!-- Node11 -->
<g id="node12" class="node">
<title>Node11</title>
<polygon fill="none" stroke="#bfbfbf" points="777,-.5 777,-19.5 821,-19.5 821,-.5 777,-.5"/>
<text text-anchor="middle" x="799" y="-7.5" font-family="FreeSans.ttf" font-size="10.00" fill="#000000">limits</text>
</g>
<!-- Node5&#45;&gt;Node11 -->
<g id="edge11" class="edge">
<title>Node5&#45;&gt;Node11</title>
<path fill="none" stroke="#191970" d="M952.5169,-56.4267C921.3253,-47.2034 872.8957,-32.8028 831,-20 830.8991,-19.9692 830.798,-19.9383 830.6968,-19.9073"/>
<polygon fill="#191970" stroke="#191970" points="831.6101,-16.5263 821.0226,-16.9221 829.546,-23.2151 831.6101,-16.5263"/>
</g>
<!-- Node12 -->
<g id="node13" class="node">
<title>Node12</title>
<polygon fill="none" stroke="#bfbfbf" points="839.5,-.5 839.5,-19.5 904.5,-19.5 904.5,-.5 839.5,-.5"/>
<text text-anchor="middle" x="872" y="-7.5" font-family="FreeSans.ttf" font-size="10.00" fill="#000000">stdexcept</text>
</g>
<!-- Node5&#45;&gt;Node12 -->
<g id="edge12" class="edge">
<title>Node5&#45;&gt;Node12</title>
<path fill="none" stroke="#191970" d="M965.5746,-56.3733C947.5979,-47.4644 920.6559,-34.1127 900.291,-24.0203"/>
<polygon fill="#191970" stroke="#191970" points="901.6861,-20.8055 891.1719,-19.5011 898.5778,-27.0776 901.6861,-20.8055"/>
</g>
<!-- Node13 -->
<g id="node14" class="node">
<title>Node13</title>
<polygon fill="none" stroke="#bfbfbf" points="922.5,-.5 922.5,-19.5 991.5,-19.5 991.5,-.5 922.5,-.5"/>
<text text-anchor="middle" x="957" y="-7.5" font-family="FreeSans.ttf" font-size="10.00" fill="#000000">type_traits</text>
</g>
<!-- Node5&#45;&gt;Node13 -->
<g id="edge13" class="edge">
<title>Node5&#45;&gt;Node13</title>
<path fill="none" stroke="#191970" d="M980.1228,-56.2455C976.3487,-48.6973 971.0079,-38.0158 966.4099,-28.8197"/>
<polygon fill="#191970" stroke="#191970" points="969.424,-27.0217 961.8213,-19.6427 963.163,-30.1522 969.424,-27.0217"/>
</g>
<!-- Node14 -->
<g id="node15" class="node">
<title>Node14</title>
<polygon fill="none" stroke="#bfbfbf" points="1009.5,-.5 1009.5,-19.5 1054.5,-19.5 1054.5,-.5 1009.5,-.5"/>
<text text-anchor="middle" x="1032" y="-7.5" font-family="FreeSans.ttf" font-size="10.00" fill="#000000">utility</text>
</g>
<!-- Node5&#45;&gt;Node14 -->
<g id="edge14" class="edge">
<title>Node5&#45;&gt;Node14</title>
<path fill="none" stroke="#191970" d="M993.1868,-56.2455C999.8589,-48.2958 1009.4479,-36.8706 1017.4253,-27.3656"/>
<polygon fill="#191970" stroke="#191970" points="1020.1592,-29.5525 1023.907,-19.6427 1014.7974,-25.0524 1020.1592,-29.5525"/>
</g>
<!-- Node16&#45;&gt;Node15 -->
<g id="edge17" class="edge">
<title>Node16&#45;&gt;Node15</title>
<path fill="none" stroke="#191970" d="M591.2818,-112.4369C666.5452,-100.4971 792.5628,-80.5056 851.6159,-71.1374"/>
<polygon fill="#191970" stroke="#191970" points="852.5077,-74.5398 861.8358,-69.5161 851.4109,-67.6263 852.5077,-74.5398"/>
</g>
<!-- Node17&#45;&gt;Node9 -->
<g id="edge23" class="edge">
<title>Node17&#45;&gt;Node9</title>
<path fill="none" stroke="#191970" d="M313.7729,-112.251C314.0055,-97.6775 316.7556,-70.3895 333,-56 406.1199,8.7709 455.341,-38.3694 556.402,-19.7716"/>
<polygon fill="#191970" stroke="#191970" points="557.2386,-23.1734 566.3465,-17.7607 555.8511,-16.3123 557.2386,-23.1734"/>
</g>
<!-- Node17&#45;&gt;Node15 -->
<g id="edge25" class="edge">
<title>Node17&#45;&gt;Node15</title>
<path fill="none" stroke="#191970" d="M391.7927,-113.4761C396.5996,-112.9705 401.365,-112.4749 406,-112 573.5285,-94.8349 774.2867,-76.1181 851.5287,-68.9856"/>
<polygon fill="#191970" stroke="#191970" points="851.9555,-72.4612 861.5918,-68.0574 851.3126,-65.4908 851.9555,-72.4612"/>
</g>
<!-- Node17&#45;&gt;Node18 -->
<g id="edge19" class="edge">
<title>Node17&#45;&gt;Node18</title>
<path fill="none" stroke="#191970" d="M355.8386,-112.4369C397.7685,-102.8529 462.3948,-88.0812 507.4624,-77.78"/>
<polygon fill="#191970" stroke="#191970" points="508.3653,-81.164 517.3339,-75.5237 506.8054,-74.34 508.3653,-81.164"/>
</g>
<!-- Node17&#45;&gt;Node20 -->
<g id="edge22" class="edge">
<title>Node17&#45;&gt;Node20</title>
<path fill="none" stroke="#191970" d="M285.8074,-112.3733C257.3382,-102.6521 213.3767,-87.6408 183.2295,-77.3467"/>
<polygon fill="#191970" stroke="#191970" points="184.1722,-73.9702 173.5776,-74.0509 181.9101,-80.5946 184.1722,-73.9702"/>
</g>
<!-- Node21 -->
<g id="node22" class="node">
<title>Node21</title>
<polygon fill="none" stroke="#bfbfbf" points="342,-56.5 342,-75.5 428,-75.5 428,-56.5 342,-56.5"/>
<text text-anchor="middle" x="385" y="-63.5" font-family="FreeSans.ttf" font-size="10.00" fill="#000000">unordered_set</text>
</g>
<!-- Node17&#45;&gt;Node21 -->
<g id="edge24" class="edge">
<title>Node17&#45;&gt;Node21</title>
<path fill="none" stroke="#191970" d="M326.3673,-112.2455C336.9554,-103.8943 352.4064,-91.7076 364.7893,-81.9408"/>
<polygon fill="#191970" stroke="#191970" points="367.0903,-84.5837 372.7745,-75.6427 362.7553,-79.0875 367.0903,-84.5837"/>
</g>
<!-- Node18&#45;&gt;Node9 -->
<g id="edge20" class="edge">
<title>Node18&#45;&gt;Node9</title>
<path fill="none" stroke="#191970" d="M564.9223,-56.2455C569.6027,-48.5367 576.2673,-37.5598 581.9289,-28.2348"/>
<polygon fill="#191970" stroke="#191970" points="584.9475,-30.007 587.1455,-19.6427 578.9639,-26.3741 584.9475,-30.007"/>
</g>
<!-- Node19 -->
<g id="node20" class="node">
<title>Node19</title>
<polygon fill="none" stroke="#bfbfbf" points="468,-.5 468,-19.5 548,-19.5 548,-.5 468,-.5"/>
<text text-anchor="middle" x="508" y="-7.5" font-family="FreeSans.ttf" font-size="10.00" fill="#000000">CoreExport.h</text>
</g>
<!-- Node18&#45;&gt;Node19 -->
<g id="edge21" class="edge">
<title>Node18&#45;&gt;Node19</title>
<path fill="none" stroke="#191970" d="M550.1165,-56.2455C542.8034,-48.2155 532.2609,-36.6394 523.5533,-27.0781"/>
<polygon fill="#191970" stroke="#191970" points="526.1028,-24.6795 516.7817,-19.6427 520.9273,-29.3928 526.1028,-24.6795"/>
</g>
<!-- Node24&#45;&gt;Node4 -->
<g id="edge32" class="edge">
<title>Node24&#45;&gt;Node4</title>
<path fill="none" stroke="#191970" d="M513.6679,-168.4369C555.4266,-158.8529 619.7891,-144.0812 664.6728,-133.78"/>
<polygon fill="#191970" stroke="#191970" points="665.5404,-137.172 674.504,-131.5237 663.9745,-130.3494 665.5404,-137.172"/>
</g>
<!-- Node24&#45;&gt;Node17 -->
<g id="edge33" class="edge">
<title>Node24&#45;&gt;Node17</title>
<path fill="none" stroke="#191970" d="M444.8388,-168.3733C418.7933,-159.1419 379.2884,-145.1402 350.5021,-134.9375"/>
<polygon fill="#191970" stroke="#191970" points="351.4015,-131.5429 340.8067,-131.5011 349.063,-138.1408 351.4015,-131.5429"/>
</g>
<!-- Node26&#45;&gt;Node4 -->
<g id="edge39" class="edge">
<title>Node26&#45;&gt;Node4</title>
<path fill="none" stroke="#191970" d="M832.3284,-475.8686C792.6347,-458.5658 719,-418.2177 719,-357 719,-357 719,-357 719,-239.5 719,-205.1287 717.7013,-165.1203 716.8128,-141.7724"/>
<polygon fill="#191970" stroke="#191970" points="720.3089,-141.6009 716.4171,-131.7468 713.3143,-141.8771 720.3089,-141.6009"/>
</g>
<!-- Node26&#45;&gt;Node16 -->
<g id="edge47" class="edge">
<title>Node26&#45;&gt;Node16</title>
<path fill="none" stroke="#191970" d="M819.0882,-475.9798C792.6666,-467.9685 757.6911,-454.487 732,-434 675.4065,-388.8703 638,-373.3844 638,-301 638,-301 638,-301 638,-239.5 638,-192.5419 590.7046,-156.0865 559.0016,-136.9247"/>
<polygon fill="#191970" stroke="#191970" points="560.533,-133.7665 550.1295,-131.7623 557.0125,-139.8168 560.533,-133.7665"/>
</g>
<!-- Node26&#45;&gt;Node18 -->
<g id="edge86" class="edge">
<title>Node26&#45;&gt;Node18</title>
<path fill="none" stroke="#191970" d="M819.0946,-475.9865C784.4086,-466.805 731.9533,-451.7146 688,-434 550.8383,-378.7193 172.226,-258.1167 95,-132 90.3581,-124.4194 89.0327,-118.5881 95,-112 101.5477,-104.7711 361.357,-82.3441 489.2805,-71.708"/>
<polygon fill="#191970" stroke="#191970" points="489.6994,-75.1854 499.3757,-70.8704 489.1205,-68.2093 489.6994,-75.1854"/>
</g>
<!-- Node26&#45;&gt;Node25 -->
<g id="edge38" class="edge">
<title>Node26&#45;&gt;Node25</title>
<path fill="none" stroke="#191970" d="M804.7409,-475.9613C754.1652,-466.4313 675.4636,-450.8126 608,-434 603.9709,-432.9959 599.7881,-431.8879 595.6189,-430.7399"/>
<polygon fill="#191970" stroke="#191970" points="596.5691,-427.3714 585.994,-428.0186 594.6645,-434.1073 596.5691,-427.3714"/>
</g>
<!-- Node27 -->
<g id="node28" class="node">
<title>Node27</title>
<g id="a_node28"><a xlink:href="VectorFixSize_8h.html" target="_top" xlink:title="iDynTree/Core/VectorFixSize.h">
<polygon fill="none" stroke="#000000" points="1133.5,-112.5 1133.5,-131.5 1294.5,-131.5 1294.5,-112.5 1133.5,-112.5"/>
<text text-anchor="middle" x="1214" y="-119.5" font-family="FreeSans.ttf" font-size="10.00" fill="#000000">iDynTree/Core/VectorFixSize.h</text>
</a>
</g>
</g>
<!-- Node26&#45;&gt;Node27 -->
<g id="edge40" class="edge">
<title>Node26&#45;&gt;Node27</title>
<path fill="none" stroke="#191970" d="M937.6536,-483.9009C1121.0332,-479.7145 1557.9067,-466.43 1616,-434 1652.7215,-413.5006 1671,-399.0558 1671,-357 1671,-357 1671,-357 1671,-239.5 1671,-166.4484 1592.8123,-189.5123 1523,-168 1483.3781,-155.7907 1380.8736,-141.7581 1304.7262,-132.4345"/>
<polygon fill="#191970" stroke="#191970" points="1304.9864,-128.9405 1294.637,-131.2078 1304.1414,-135.8893 1304.9864,-128.9405"/>
</g>
<!-- Node30 -->
<g id="node31" class="node">
<title>Node30</title>
<g id="a_node31"><a xlink:href="MatrixFixSize_8h.html" target="_top" xlink:title="iDynTree/Core/MatrixFixSize.h">
<polygon fill="none" stroke="#000000" points="1312.5,-112.5 1312.5,-131.5 1473.5,-131.5 1473.5,-112.5 1312.5,-112.5"/>
<text text-anchor="middle" x="1393" y="-119.5" font-family="FreeSans.ttf" font-size="10.00" fill="#000000">iDynTree/Core/MatrixFixSize.h</text>
</a>
</g>
</g>
<!-- Node26&#45;&gt;Node30 -->
<g id="edge48" class="edge">
<title>Node26&#45;&gt;Node30</title>
<path fill="none" stroke="#191970" d="M937.6538,-484.0215C1126.9331,-480.0185 1588.3285,-466.9677 1650,-434 1688.0217,-413.6748 1709,-400.1134 1709,-357 1709,-357 1709,-357 1709,-239.5 1709,-187.1917 1554.9586,-150.6479 1461.9769,-133.3541"/>
<polygon fill="#191970" stroke="#191970" points="1462.5332,-129.8979 1452.0665,-131.5405 1461.2731,-136.7835 1462.5332,-129.8979"/>
</g>
<!-- Node32 -->
<g id="node33" class="node">
<title>Node32</title>
<g id="a_node33"><a xlink:href="SpatialMotionVector_8h.html" target="_top" xlink:title="iDynTree/Core/SpatialMotion\lVector.h">
<polygon fill="none" stroke="#000000" points="1451.5,-403.5 1451.5,-433.5 1606.5,-433.5 1606.5,-403.5 1451.5,-403.5"/>
<text text-anchor="start" x="1459.5" y="-421.5" font-family="FreeSans.ttf" font-size="10.00" fill="#000000">iDynTree/Core/SpatialMotion</text>
<text text-anchor="middle" x="1529" y="-410.5" font-family="FreeSans.ttf" font-size="10.00" fill="#000000">Vector.h</text>
</a>
</g>
</g>
<!-- Node26&#45;&gt;Node32 -->
<g id="edge55" class="edge">
<title>Node26&#45;&gt;Node32</title>
<path fill="none" stroke="#191970" d="M937.5499,-478.7517C1044.6301,-469.596 1239.7111,-452.2724 1406,-434 1417.3348,-432.7545 1429.2461,-431.3606 1441.0099,-429.9332"/>
<polygon fill="#191970" stroke="#191970" points="1441.7917,-433.3637 1451.2916,-428.673 1440.94,-426.4157 1441.7917,-433.3637"/>
</g>
<!-- Node39 -->
<g id="node40" class="node">
<title>Node39</title>
<g id="a_node40"><a xlink:href="SpatialForceVector_8h.html" target="_top" xlink:title="iDynTree/Core/SpatialForce\lVector.h">
<polygon fill="none" stroke="#000000" points="1249,-403.5 1249,-433.5 1397,-433.5 1397,-403.5 1249,-403.5"/>
<text text-anchor="start" x="1257" y="-421.5" font-family="FreeSans.ttf" font-size="10.00" fill="#000000">iDynTree/Core/SpatialForce</text>
<text text-anchor="middle" x="1323" y="-410.5" font-family="FreeSans.ttf" font-size="10.00" fill="#000000">Vector.h</text>
</a>
</g>
</g>
<!-- Node26&#45;&gt;Node39 -->
<g id="edge77" class="edge">
<title>Node26&#45;&gt;Node39</title>
<path fill="none" stroke="#191970" d="M923.2715,-475.9717C1006.2246,-464.045 1148.3864,-443.6054 1238.9179,-430.5891"/>
<polygon fill="#191970" stroke="#191970" points="1239.4757,-434.0449 1248.8758,-429.1573 1238.4794,-427.1162 1239.4757,-434.0449"/>
</g>
<!-- Node40 -->
<g id="node41" class="node">
<title>Node40</title>
<g id="a_node41"><a xlink:href="Transform_8h.html" target="_top" xlink:title="iDynTree/Core/Transform.h">
<polygon fill="none" stroke="#000000" points="907,-347.5 907,-366.5 1053,-366.5 1053,-347.5 907,-347.5"/>
<text text-anchor="middle" x="980" y="-354.5" font-family="FreeSans.ttf" font-size="10.00" fill="#000000">iDynTree/Core/Transform.h</text>
</a>
</g>
</g>
<!-- Node26&#45;&gt;Node40 -->
<g id="edge81" class="edge">
<title>Node26&#45;&gt;Node40</title>
<path fill="none" stroke="#191970" d="M866.245,-475.8416C886.9917,-454.1672 937.4828,-401.4184 963.6588,-374.0719"/>
<polygon fill="#191970" stroke="#191970" points="966.2613,-376.4146 970.6477,-366.7705 961.2045,-371.5743 966.2613,-376.4146"/>
</g>
<!-- Node27&#45;&gt;Node5 -->
<g id="edge42" class="edge">
<title>Node27&#45;&gt;Node5</title>
<path fill="none" stroke="#191970" d="M1174.8937,-112.4369C1135.8668,-102.8932 1075.8035,-88.2052 1033.7038,-77.9101"/>
<polygon fill="#191970" stroke="#191970" points="1034.4902,-74.4993 1023.945,-75.5237 1032.8274,-81.299 1034.4902,-74.4993"/>
</g>
<!-- Node27&#45;&gt;Node6 -->
<g id="edge45" class="edge">
<title>Node27&#45;&gt;Node6</title>
<path fill="none" stroke="#191970" d="M1216.302,-112.4509C1220.7256,-94.1013 1230.4915,-53.5908 1236.3306,-29.3693"/>
<polygon fill="#191970" stroke="#191970" points="1239.7627,-30.0667 1238.7038,-19.5249 1232.9576,-28.4261 1239.7627,-30.0667"/>
</g>
<!-- Node27&#45;&gt;Node15 -->
<g id="edge43" class="edge">
<title>Node27&#45;&gt;Node15</title>
<path fill="none" stroke="#191970" d="M1133.3786,-112.8755C1073.0646,-105.2487 988.7937,-92.8922 916,-76 915.9008,-75.977 915.8014,-75.9538 915.7019,-75.9305"/>
<polygon fill="#191970" stroke="#191970" points="916.8256,-72.6076 906.2624,-73.4247 915.0296,-79.3733 916.8256,-72.6076"/>
</g>
<!-- Node27&#45;&gt;Node18 -->
<g id="edge41" class="edge">
<title>Node27&#45;&gt;Node18</title>
<path fill="none" stroke="#191970" d="M1133.3559,-115.1052C1003.6444,-104.0154 750.8622,-82.4035 628.5742,-71.9483"/>
<polygon fill="#191970" stroke="#191970" points="628.8376,-68.4582 618.5758,-71.0935 628.2413,-75.4327 628.8376,-68.4582"/>
</g>
<!-- Node28 -->
<g id="node29" class="node">
<title>Node28</title>
<polygon fill="none" stroke="#bfbfbf" points="1365,-56.5 1365,-75.5 1421,-75.5 1421,-56.5 1365,-56.5"/>
<text text-anchor="middle" x="1393" y="-63.5" font-family="FreeSans.ttf" font-size="10.00" fill="#000000">sstream</text>
</g>
<!-- Node27&#45;&gt;Node28 -->
<g id="edge44" class="edge">
<title>Node27&#45;&gt;Node28</title>
<path fill="none" stroke="#191970" d="M1244.7712,-112.3733C1275.3897,-102.7943 1322.4267,-88.0788 1355.2778,-77.8014"/>
<polygon fill="#191970" stroke="#191970" points="1356.4848,-81.0911 1364.9836,-74.7649 1354.3947,-74.4104 1356.4848,-81.0911"/>
</g>
<!-- Node29 -->
<g id="node30" class="node">
<title>Node29</title>
<polygon fill="none" stroke="#bfbfbf" points="1247,-56.5 1247,-75.5 1297,-75.5 1297,-56.5 1247,-56.5"/>
<text text-anchor="middle" x="1272" y="-63.5" font-family="FreeSans.ttf" font-size="10.00" fill="#000000">cstring</text>
</g>
<!-- Node27&#45;&gt;Node29 -->
<g id="edge46" class="edge">
<title>Node27&#45;&gt;Node29</title>
<path fill="none" stroke="#191970" d="M1224.1028,-112.2455C1232.5028,-104.1352 1244.6494,-92.4075 1254.6084,-82.7919"/>
<polygon fill="#191970" stroke="#191970" points="1257.25,-85.1066 1262.0129,-75.6427 1252.3878,-80.0707 1257.25,-85.1066"/>
</g>
<!-- Node30&#45;&gt;Node6 -->
<g id="edge50" class="edge">
<title>Node30&#45;&gt;Node6</title>
<path fill="none" stroke="#191970" d="M1380.7066,-112.4708C1363.9421,-99.5226 1332.9137,-75.7236 1306,-56 1291.9124,-45.6759 1275.899,-34.3388 1263.2915,-25.5028"/>
<polygon fill="#191970" stroke="#191970" points="1264.9912,-22.4206 1254.7895,-19.5611 1260.9813,-28.1584 1264.9912,-22.4206"/>
</g>
<!-- Node30&#45;&gt;Node15 -->
<g id="edge52" class="edge">
<title>Node30&#45;&gt;Node15</title>
<path fill="none" stroke="#191970" d="M1312.4773,-112.8818C1309.6168,-112.5804 1306.7841,-112.2855 1304,-112 1131.7186,-94.3305 1085.8116,-110.0164 916,-76 915.9001,-75.98 915.8001,-75.9598 915.7,-75.9394"/>
<polygon fill="#191970" stroke="#191970" points="916.7714,-72.5989 906.2241,-73.6015 915.0946,-79.3951 916.7714,-72.5989"/>
</g>
<!-- Node30&#45;&gt;Node18 -->
<g id="edge49" class="edge">
<title>Node30&#45;&gt;Node18</title>
<path fill="none" stroke="#191970" d="M1312.4879,-112.7703C1309.6243,-112.5005 1306.7882,-112.2426 1304,-112 1056.3809,-90.4579 761.5999,-75.3736 629.3322,-69.1631"/>
<polygon fill="#191970" stroke="#191970" points="629.1004,-65.6486 618.948,-68.6781 628.7737,-72.6409 629.1004,-65.6486"/>
</g>
<!-- Node30&#45;&gt;Node28 -->
<g id="edge54" class="edge">
<title>Node30&#45;&gt;Node28</title>
<path fill="none" stroke="#191970" d="M1393,-112.2455C1393,-104.9382 1393,-94.6944 1393,-85.7046"/>
<polygon fill="#191970" stroke="#191970" points="1396.5001,-85.6426 1393,-75.6427 1389.5001,-85.6427 1396.5001,-85.6426"/>
</g>
<!-- Node30&#45;&gt;Node29 -->
<g id="edge51" class="edge">
<title>Node30&#45;&gt;Node29</title>
<path fill="none" stroke="#191970" d="M1372.1994,-112.3733C1352.7757,-103.3838 1323.5776,-89.8706 1301.7036,-79.7471"/>
<polygon fill="#191970" stroke="#191970" points="1303.0745,-76.5249 1292.5292,-75.5011 1300.1344,-82.8776 1303.0745,-76.5249"/>
</g>
<!-- Node31 -->
<g id="node32" class="node">
<title>Node31</title>
<polygon fill="none" stroke="#bfbfbf" points="1524,-56.5 1524,-75.5 1584,-75.5 1584,-56.5 1524,-56.5"/>
<text text-anchor="middle" x="1554" y="-63.5" font-family="FreeSans.ttf" font-size="10.00" fill="#000000">iostream</text>
</g>
<!-- Node30&#45;&gt;Node31 -->
<g id="edge53" class="edge">
<title>Node30&#45;&gt;Node31</title>
<path fill="none" stroke="#191970" d="M1420.6769,-112.3733C1447.3328,-103.1016 1487.8238,-89.0178 1517.1884,-78.804"/>
<polygon fill="#191970" stroke="#191970" points="1518.3891,-82.0921 1526.6843,-75.5011 1516.0895,-75.4807 1518.3891,-82.0921"/>
</g>
<!-- Node32&#45;&gt;Node27 -->
<g id="edge56" class="edge">
<title>Node32&#45;&gt;Node27</title>
<path fill="none" stroke="#191970" d="M1541.5664,-403.3612C1548.7983,-393.6361 1557.1869,-380.3614 1561,-367 1563.4393,-358.4524 1562.4532,-355.7693 1561,-347 1547.2596,-264.0826 1564.234,-222.2041 1500,-168 1492.1019,-161.3352 1376.4094,-144.2611 1294.6222,-132.8949"/>
<polygon fill="#191970" stroke="#191970" points="1294.9612,-129.4086 1284.5756,-131.5037 1294.0009,-136.3424 1294.9612,-129.4086"/>
</g>
<!-- Node33 -->
<g id="node34" class="node">
<title>Node33</title>
<g id="a_node34"><a xlink:href="GeomVector3_8h.html" target="_top" xlink:title="iDynTree/Core/GeomVector3.h">
<polygon fill="none" stroke="#000000" points="1327.5,-168.5 1327.5,-187.5 1490.5,-187.5 1490.5,-168.5 1327.5,-168.5"/>
<text text-anchor="middle" x="1409" y="-175.5" font-family="FreeSans.ttf" font-size="10.00" fill="#000000">iDynTree/Core/GeomVector3.h</text>
</a>
</g>
</g>
<!-- Node32&#45;&gt;Node33 -->
<g id="edge57" class="edge">
<title>Node32&#45;&gt;Node33</title>
<path fill="none" stroke="#191970" d="M1537.5271,-403.442C1544.6804,-388.7838 1552.7344,-366.0015 1546,-347 1522.604,-280.9867 1461.2226,-221.9372 1429.159,-194.3978"/>
<polygon fill="#191970" stroke="#191970" points="1431.2161,-191.5544 1421.3136,-187.7873 1426.7056,-196.9075 1431.2161,-191.5544"/>
</g>
<!-- Node34 -->
<g id="node35" class="node">
<title>Node34</title>
<g id="a_node35"><a xlink:href="SpatialVector_8h.html" target="_top" xlink:title="iDynTree/Core/SpatialVector.h">
<polygon fill="none" stroke="#000000" points="1375.5,-347.5 1375.5,-366.5 1536.5,-366.5 1536.5,-347.5 1375.5,-347.5"/>
<text text-anchor="middle" x="1456" y="-354.5" font-family="FreeSans.ttf" font-size="10.00" fill="#000000">iDynTree/Core/SpatialVector.h</text>
</a>
</g>
</g>
<!-- Node32&#45;&gt;Node34 -->
<g id="edge59" class="edge">
<title>Node32&#45;&gt;Node34</title>
<path fill="none" stroke="#191970" d="M1510.9551,-403.2977C1500.1886,-394.2274 1486.5149,-382.7077 1475.5005,-373.4285"/>
<polygon fill="#191970" stroke="#191970" points="1477.5911,-370.6132 1467.6882,-366.8469 1473.0809,-375.9667 1477.5911,-370.6132"/>
</g>
<!-- Node33&#45;&gt;Node27 -->
<g id="edge58" class="edge">
<title>Node33&#45;&gt;Node27</title>
<path fill="none" stroke="#191970" d="M1375.4783,-168.3733C1342.6317,-158.9404 1292.4405,-144.5265 1256.7422,-134.2747"/>
<polygon fill="#191970" stroke="#191970" points="1257.6619,-130.8974 1247.0843,-131.5011 1255.7297,-137.6255 1257.6619,-130.8974"/>
</g>
<!-- Node34&#45;&gt;Node18 -->
<g id="edge73" class="edge">
<title>Node34&#45;&gt;Node18</title>
<path fill="none" stroke="#191970" d="M1375.4861,-355.7465C1250.3745,-352.8119 1015.689,-343.0786 939,-311 903.5103,-296.1548 896.097,-285.7641 873,-255 852.097,-227.1582 836.3758,-133.5097 809,-112 781.5782,-90.4542 692.7306,-77.9792 628.7526,-71.587"/>
<polygon fill="#191970" stroke="#191970" points="629.0026,-68.0949 618.7113,-70.6129 628.3266,-75.0622 629.0026,-68.0949"/>
</g>
<!-- Node34&#45;&gt;Node28 -->
<g id="edge76" class="edge">
<title>Node34&#45;&gt;Node28</title>
<path fill="none" stroke="#191970" d="M1460.6533,-347.2264C1476.3423,-313.7612 1525.7828,-203.8703 1516,-168 1508.3988,-140.129 1504.0311,-131.8055 1483,-112 1468.0177,-97.8908 1447.8736,-87.0547 1430.4418,-79.4539"/>
<polygon fill="#191970" stroke="#191970" points="1431.6639,-76.1716 1421.0865,-75.5639 1428.9763,-82.6351 1431.6639,-76.1716"/>
</g>
<!-- Node34&#45;&gt;Node31 -->
<g id="edge75" class="edge">
<title>Node34&#45;&gt;Node31</title>
<path fill="none" stroke="#191970" d="M1465.9216,-347.2013C1474.372,-338.3894 1486.3305,-324.7509 1494,-311 1536.4915,-234.816 1549.1843,-128.8518 1552.7249,-85.5801"/>
<polygon fill="#191970" stroke="#191970" points="1556.2197,-85.7791 1553.4696,-75.5475 1549.2389,-85.2609 1556.2197,-85.7791"/>
</g>
<!-- Node34&#45;&gt;Node33 -->
<g id="edge74" class="edge">
<title>Node34&#45;&gt;Node33</title>
<path fill="none" stroke="#191970" d="M1453.4731,-347.3762C1446.0455,-319.0883 1424.1762,-235.7987 1414.1402,-197.5767"/>
<polygon fill="#191970" stroke="#191970" points="1417.4644,-196.4547 1411.5394,-187.6714 1410.6939,-198.2324 1417.4644,-196.4547"/>
</g>
<!-- Node35 -->
<g id="node36" class="node">
<title>Node35</title>
<g id="a_node36"><a xlink:href="Position_8h.html" target="_top" xlink:title="Position.h">
<polygon fill="none" stroke="#000000" points="947.5,-291.5 947.5,-310.5 1012.5,-310.5 1012.5,-291.5 947.5,-291.5"/>
<text text-anchor="middle" x="980" y="-298.5" font-family="FreeSans.ttf" font-size="10.00" fill="#000000">Position.h</text>
</a>
</g>
</g>
<!-- Node34&#45;&gt;Node35 -->
<g id="edge60" class="edge">
<title>Node34&#45;&gt;Node35</title>
<path fill="none" stroke="#191970" d="M1375.2531,-347.5004C1273.4605,-335.5248 1102.2021,-315.3767 1022.8037,-306.0357"/>
<polygon fill="#191970" stroke="#191970" points="1023.0198,-302.5371 1012.6793,-304.8446 1022.2018,-309.4892 1023.0198,-302.5371"/>
</g>
<!-- Node37 -->
<g id="node38" class="node">
<title>Node37</title>
<g id="a_node38"><a xlink:href="Rotation_8h.html" target="_top" xlink:title="iDynTree/Core/Rotation.h">
<polygon fill="none" stroke="#000000" points="1016.5,-230 1016.5,-249 1153.5,-249 1153.5,-230 1016.5,-230"/>
<text text-anchor="middle" x="1085" y="-237" font-family="FreeSans.ttf" font-size="10.00" fill="#000000">iDynTree/Core/Rotation.h</text>
</a>
</g>
</g>
<!-- Node34&#45;&gt;Node37 -->
<g id="edge72" class="edge">
<title>Node34&#45;&gt;Node37</title>
<path fill="none" stroke="#191970" d="M1425.9538,-347.484C1359.475,-326.4294 1199.9098,-275.8932 1125.0498,-252.1842"/>
<polygon fill="#191970" stroke="#191970" points="1125.6574,-248.7054 1115.0674,-249.0227 1123.5439,-255.3787 1125.6574,-248.7054"/>
</g>
<!-- Node35&#45;&gt;Node15 -->
<g id="edge71" class="edge">
<title>Node35&#45;&gt;Node15</title>
<path fill="none" stroke="#191970" d="M961.8869,-291.4682C932.6983,-274.9443 876.2788,-237.9061 854,-188 842.8892,-163.111 869.8769,-157.6843 879,-132 884.2886,-117.111 885.3385,-99.1759 885.1773,-85.7622"/>
<polygon fill="#191970" stroke="#191970" points="888.6737,-85.5947 884.8235,-75.7242 881.678,-85.8414 888.6737,-85.5947"/>
</g>
<!-- Node36 -->
<g id="node37" class="node">
<title>Node36</title>
<g id="a_node37"><a xlink:href="PositionRaw_8h.html" target="_top" xlink:title="iDynTree/Core/PositionRaw.h">
<polygon fill="none" stroke="#000000" points="863,-168.5 863,-187.5 1019,-187.5 1019,-168.5 863,-168.5"/>
<text text-anchor="middle" x="941" y="-175.5" font-family="FreeSans.ttf" font-size="10.00" fill="#000000">iDynTree/Core/PositionRaw.h</text>
</a>
</g>
</g>
<!-- Node35&#45;&gt;Node36 -->
<g id="edge61" class="edge">
<title>Node35&#45;&gt;Node36</title>
<path fill="none" stroke="#191970" d="M976.9397,-291.3484C970.5321,-271.1397 955.5989,-224.0427 947.1362,-197.3528"/>
<polygon fill="#191970" stroke="#191970" points="950.4049,-196.0812 944.046,-187.6068 943.7322,-198.197 950.4049,-196.0812"/>
</g>
<!-- Node35&#45;&gt;Node37 -->
<g id="edge64" class="edge">
<title>Node35&#45;&gt;Node37</title>
<path fill="none" stroke="#191970" d="M996.4063,-291.3906C1013.4353,-281.4165 1040.2841,-265.6908 1059.9651,-254.1633"/>
<polygon fill="#191970" stroke="#191970" points="1061.849,-257.1161 1068.709,-249.0419 1058.3112,-251.0759 1061.849,-257.1161"/>
</g>
<!-- Node36&#45;&gt;Node15 -->
<g id="edge63" class="edge">
<title>Node36&#45;&gt;Node15</title>
<path fill="none" stroke="#191970" d="M938.3675,-168.2525C934.6027,-155.0569 927.0144,-130.9785 917,-112 911.8126,-102.1692 904.7681,-92.0468 898.5197,-83.8091"/>
<polygon fill="#191970" stroke="#191970" points="901.0997,-81.4269 892.1776,-75.7131 895.5891,-85.7436 901.0997,-81.4269"/>
</g>
<!-- Node36&#45;&gt;Node27 -->
<g id="edge62" class="edge">
<title>Node36&#45;&gt;Node27</title>
<path fill="none" stroke="#191970" d="M987.6202,-168.4369C1034.6365,-158.7925 1107.2629,-143.8948 1157.5193,-133.5858"/>
<polygon fill="#191970" stroke="#191970" points="1158.4794,-136.9618 1167.5721,-131.5237 1157.0727,-130.1046 1158.4794,-136.9618"/>
</g>
<!-- Node37&#45;&gt;Node15 -->
<g id="edge65" class="edge">
<title>Node37&#45;&gt;Node15</title>
<path fill="none" stroke="#191970" d="M1078.4036,-229.5254C1068.5124,-215.0004 1048.7705,-187.6243 1028,-168 990.2612,-132.3438 939.3829,-99.1963 909.2996,-80.8616"/>
<polygon fill="#191970" stroke="#191970" points="911.0402,-77.8242 900.6686,-75.6607 907.4273,-83.8198 911.0402,-77.8242"/>
</g>
<!-- Node37&#45;&gt;Node27 -->
<g id="edge70" class="edge">
<title>Node37&#45;&gt;Node27</title>
<path fill="none" stroke="#191970" d="M1084.9771,-229.9406C1085.4468,-214.9555 1088.4662,-185.8106 1104,-168 1117.7927,-152.1857 1137.9106,-141.6829 1157.1816,-134.7647"/>
<polygon fill="#191970" stroke="#191970" points="1158.4545,-138.03 1166.842,-131.5569 1156.2485,-131.3867 1158.4545,-138.03"/>
</g>
<!-- Node37&#45;&gt;Node33 -->
<g id="edge66" class="edge">
<title>Node37&#45;&gt;Node33</title>
<path fill="none" stroke="#191970" d="M1135.2695,-229.9581C1192.9369,-219.012 1287.433,-201.0752 1348.9278,-189.4026"/>
<polygon fill="#191970" stroke="#191970" points="1349.7073,-192.8172 1358.8791,-187.5137 1348.4018,-185.94 1349.7073,-192.8172"/>
</g>
<!-- Node38 -->
<g id="node39" class="node">
<title>Node38</title>
<g id="a_node39"><a xlink:href="RotationRaw_8h.html" target="_top" xlink:title="iDynTree/Core/RotationRaw.h">
<polygon fill="none" stroke="#000000" points="1113,-168.5 1113,-187.5 1271,-187.5 1271,-168.5 1113,-168.5"/>
<text text-anchor="middle" x="1192" y="-175.5" font-family="FreeSans.ttf" font-size="10.00" fill="#000000">iDynTree/Core/RotationRaw.h</text>
</a>
</g>
</g>
<!-- Node37&#45;&gt;Node38 -->
<g id="edge67" class="edge">
<title>Node37&#45;&gt;Node38</title>
<path fill="none" stroke="#191970" d="M1101.7188,-229.8906C1119.0722,-219.9165 1146.4323,-204.1908 1166.4882,-192.6633"/>
<polygon fill="#191970" stroke="#191970" points="1168.4728,-195.5596 1175.3987,-187.5419 1164.9846,-189.4907 1168.4728,-195.5596"/>
</g>
<!-- Node38&#45;&gt;Node15 -->
<g id="edge69" class="edge">
<title>Node38&#45;&gt;Node15</title>
<path fill="none" stroke="#191970" d="M1175.9854,-168.4506C1151.8101,-154.3815 1104.2197,-128.023 1061,-112 998.74,-88.9181 979.9397,-93.9108 916,-76 915.9019,-75.9725 915.8037,-75.945 915.7053,-75.9173"/>
<polygon fill="#191970" stroke="#191970" points="916.9101,-72.6234 906.3291,-73.1639 914.9378,-79.3398 916.9101,-72.6234"/>
</g>
<!-- Node38&#45;&gt;Node30 -->
<g id="edge68" class="edge">
<title>Node38&#45;&gt;Node30</title>
<path fill="none" stroke="#191970" d="M1226.5531,-168.3733C1260.4104,-158.9404 1312.146,-144.5265 1348.9426,-134.2747"/>
<polygon fill="#191970" stroke="#191970" points="1350.204,-137.5566 1358.8978,-131.5011 1348.3253,-130.8135 1350.204,-137.5566"/>
</g>
<!-- Node39&#45;&gt;Node27 -->
<g id="edge78" class="edge">
<title>Node39&#45;&gt;Node27</title>
<path fill="none" stroke="#191970" d="M1317.9102,-403.4903C1310.8652,-381.3421 1299,-338.4769 1299,-301 1299,-301 1299,-301 1299,-239.5 1299,-206.6194 1298.861,-194.9332 1280,-168 1270.8454,-154.9274 1256.7141,-144.3603 1243.8726,-136.6663"/>
<polygon fill="#191970" stroke="#191970" points="1245.2699,-133.4364 1234.8395,-131.577 1241.8339,-139.535 1245.2699,-133.4364"/>
</g>
<!-- Node39&#45;&gt;Node33 -->
<g id="edge79" class="edge">
<title>Node39&#45;&gt;Node33</title>
<path fill="none" stroke="#191970" d="M1328.3797,-403.4556C1343.3562,-361.5736 1385.5193,-243.6641 1402.1408,-197.1818"/>
<polygon fill="#191970" stroke="#191970" points="1405.4636,-198.2841 1405.5352,-187.6895 1398.8724,-195.9271 1405.4636,-198.2841"/>
</g>
<!-- Node39&#45;&gt;Node34 -->
<g id="edge80" class="edge">
<title>Node39&#45;&gt;Node34</title>
<path fill="none" stroke="#191970" d="M1355.5355,-403.4554C1377.1429,-393.464 1405.2898,-380.4487 1426.292,-370.7372"/>
<polygon fill="#191970" stroke="#191970" points="1427.7821,-373.9043 1435.3897,-366.5303 1424.8441,-367.5506 1427.7821,-373.9043"/>
</g>
<!-- Node40&#45;&gt;Node15 -->
<g id="edge85" class="edge">
<title>Node40&#45;&gt;Node15</title>
<path fill="none" stroke="#191970" d="M906.8161,-349.3797C857.4162,-342.5513 798.4987,-330.5347 783,-311 724.4497,-237.2031 824.1718,-124.7234 866.4411,-82.6497"/>
<polygon fill="#191970" stroke="#191970" points="868.9095,-85.1312 873.614,-75.6381 864.0164,-80.1255 868.9095,-85.1312"/>
</g>
<!-- Node40&#45;&gt;Node30 -->
<g id="edge84" class="edge">
<title>Node40&#45;&gt;Node30</title>
<path fill="none" stroke="#191970" d="M1034.8375,-347.4705C1156.7762,-325.0485 1444.0673,-264.9907 1500,-188 1518.4097,-162.6593 1482.5549,-144.9891 1447.4892,-134.3529"/>
<polygon fill="#191970" stroke="#191970" points="1448.2428,-130.928 1437.6656,-131.5389 1446.3151,-137.6574 1448.2428,-130.928"/>
</g>
<!-- Node40&#45;&gt;Node35 -->
<g id="edge82" class="edge">
<title>Node40&#45;&gt;Node35</title>
<path fill="none" stroke="#191970" d="M980,-347.2455C980,-339.9382 980,-329.6944 980,-320.7046"/>
<polygon fill="#191970" stroke="#191970" points="983.5001,-320.6426 980,-310.6427 976.5001,-320.6427 983.5001,-320.6426"/>
</g>
<!-- Node40&#45;&gt;Node37 -->
<g id="edge83" class="edge">
<title>Node40&#45;&gt;Node37</title>
<path fill="none" stroke="#191970" d="M989.0629,-347.1753C997.6035,-337.8928 1010.7356,-323.5585 1022,-311 1038.4374,-292.6742 1057.0505,-271.4963 1069.7569,-256.973"/>
<polygon fill="#191970" stroke="#191970" points="1072.5499,-259.0958 1076.4946,-249.2627 1067.2789,-254.4897 1072.5499,-259.0958"/>
</g>
</g>
</svg>
