<?xml version="1.0" encoding="UTF-8" standalone="no"?>
<!DOCTYPE svg PUBLIC "-//W3C//DTD SVG 1.1//EN"
 "http://www.w3.org/Graphics/SVG/1.1/DTD/svg11.dtd">
<!-- Generated by graphviz version 2.40.1 (20161225.0304)
 -->
<!-- Title: FreeFloatingMatrices.cpp Pages: 1 -->
<svg width="1556pt" height="744pt"
 viewBox="0.00 0.00 1555.50 744.00" xmlns="http://www.w3.org/2000/svg" xmlns:xlink="http://www.w3.org/1999/xlink">
<g id="graph0" class="graph" transform="scale(1 1) rotate(0) translate(4 740)">
<title>FreeFloatingMatrices.cpp</title>
<!-- Node0 -->
<g id="node1" class="node">
<title>Node0</title>
<polygon fill="#bfbfbf" stroke="#000000" points="1368,-716.5 1368,-735.5 1505,-735.5 1505,-716.5 1368,-716.5"/>
<text text-anchor="middle" x="1436.5" y="-723.5" font-family="FreeSans.ttf" font-size="10.00" fill="#000000">FreeFloatingMatrices.cpp</text>
</g>
<!-- Node1 -->
<g id="node2" class="node">
<title>Node1</title>
<g id="a_node2"><a xlink:href="FreeFloatingMatrices_8h.html" target="_top" xlink:title="iDynTree/Model/FreeFloating\lMatrices.h">
<polygon fill="none" stroke="#000000" points="1359.5,-649.5 1359.5,-679.5 1513.5,-679.5 1513.5,-649.5 1359.5,-649.5"/>
<text text-anchor="start" x="1367.5" y="-667.5" font-family="FreeSans.ttf" font-size="10.00" fill="#000000">iDynTree/Model/FreeFloating</text>
<text text-anchor="middle" x="1436.5" y="-656.5" font-family="FreeSans.ttf" font-size="10.00" fill="#000000">Matrices.h</text>
</a>
</g>
</g>
<!-- Node0&#45;&gt;Node1 -->
<g id="edge1" class="edge">
<title>Node0&#45;&gt;Node1</title>
<path fill="none" stroke="#191970" d="M1436.5,-716.3906C1436.5,-709.2234 1436.5,-699.0862 1436.5,-689.671"/>
<polygon fill="#191970" stroke="#191970" points="1440.0001,-689.5446 1436.5,-679.5446 1433.0001,-689.5446 1440.0001,-689.5446"/>
</g>
<!-- Node4 -->
<g id="node5" class="node">
<title>Node4</title>
<g id="a_node5"><a xlink:href="Model_8h.html" target="_top" xlink:title="iDynTree/Model/Model.h">
<polygon fill="none" stroke="#000000" points="1093,-655 1093,-674 1226,-674 1226,-655 1093,-655"/>
<text text-anchor="middle" x="1159.5" y="-662" font-family="FreeSans.ttf" font-size="10.00" fill="#000000">iDynTree/Model/Model.h</text>
</a>
</g>
</g>
<!-- Node0&#45;&gt;Node4 -->
<g id="edge4" class="edge">
<title>Node0&#45;&gt;Node4</title>
<path fill="none" stroke="#191970" d="M1393.5227,-716.4581C1344.6986,-705.6181 1264.9959,-687.9224 1212.3951,-676.2439"/>
<polygon fill="#191970" stroke="#191970" points="1213.0991,-672.815 1202.5781,-674.0643 1211.5818,-679.6486 1213.0991,-672.815"/>
</g>
<!-- Node16 -->
<g id="node17" class="node">
<title>Node16</title>
<polygon fill="none" stroke="#bfbfbf" points="803.5,-.5 803.5,-19.5 855.5,-19.5 855.5,-.5 803.5,-.5"/>
<text text-anchor="middle" x="829.5" y="-7.5" font-family="FreeSans.ttf" font-size="10.00" fill="#000000">cassert</text>
</g>
<!-- Node0&#45;&gt;Node16 -->
<g id="edge84" class="edge">
<title>Node0&#45;&gt;Node16</title>
<path fill="none" stroke="#191970" d="M1466.5579,-716.4716C1485.0588,-709.1883 1507.9391,-697.4005 1522.5,-680 1545.5909,-652.406 1547.5,-638.9808 1547.5,-603 1547.5,-603 1547.5,-603 1547.5,-122 1547.5,-52.3059 1012.5515,-19.4808 866.152,-11.8025"/>
<polygon fill="#191970" stroke="#191970" points="866.0728,-8.2938 855.9055,-11.2731 865.7116,-15.2845 866.0728,-8.2938"/>
</g>
<!-- Node2 -->
<g id="node3" class="node">
<title>Node2</title>
<g id="a_node3"><a xlink:href="MatrixDynSize_8h.html" target="_top" xlink:title="iDynTree/Core/MatrixDynSize.h">
<polygon fill="none" stroke="#000000" points="1353,-291.5 1353,-310.5 1520,-310.5 1520,-291.5 1353,-291.5"/>
<text text-anchor="middle" x="1436.5" y="-298.5" font-family="FreeSans.ttf" font-size="10.00" fill="#000000">iDynTree/Core/MatrixDynSize.h</text>
</a>
</g>
</g>
<!-- Node1&#45;&gt;Node2 -->
<g id="edge2" class="edge">
<title>Node1&#45;&gt;Node2</title>
<path fill="none" stroke="#191970" d="M1436.5,-649.2899C1436.5,-626.892 1436.5,-583.7188 1436.5,-547 1436.5,-547 1436.5,-547 1436.5,-418.5 1436.5,-384.1399 1436.5,-344.128 1436.5,-320.7764"/>
<polygon fill="#191970" stroke="#191970" points="1440.0001,-320.7489 1436.5,-310.7489 1433.0001,-320.749 1440.0001,-320.7489"/>
</g>
<!-- Node3 -->
<g id="node4" class="node">
<title>Node3</title>
<polygon fill="none" stroke="#bfbfbf" points="1170.5,-56.5 1170.5,-75.5 1214.5,-75.5 1214.5,-56.5 1170.5,-56.5"/>
<text text-anchor="middle" x="1192.5" y="-63.5" font-family="FreeSans.ttf" font-size="10.00" fill="#000000">string</text>
</g>
<!-- Node2&#45;&gt;Node3 -->
<g id="edge3" class="edge">
<title>Node2&#45;&gt;Node3</title>
<path fill="none" stroke="#191970" d="M1434.295,-291.0775C1426.8363,-259.8404 1399.587,-162.6052 1339.5,-112 1306.6982,-84.3744 1257.3052,-73.3087 1224.9808,-68.8964"/>
<polygon fill="#191970" stroke="#191970" points="1225.0728,-65.3816 1214.7216,-67.6408 1224.2223,-72.3297 1225.0728,-65.3816"/>
</g>
<!-- Node5 -->
<g id="node6" class="node">
<title>Node5</title>
<g id="a_node6"><a xlink:href="IJoint_8h.html" target="_top" xlink:title="iDynTree/Model/IJoint.h">
<polygon fill="none" stroke="#000000" points="984.5,-593.5 984.5,-612.5 1112.5,-612.5 1112.5,-593.5 984.5,-593.5"/>
<text text-anchor="middle" x="1048.5" y="-600.5" font-family="FreeSans.ttf" font-size="10.00" fill="#000000">iDynTree/Model/IJoint.h</text>
</a>
</g>
</g>
<!-- Node4&#45;&gt;Node5 -->
<g id="edge5" class="edge">
<title>Node4&#45;&gt;Node5</title>
<path fill="none" stroke="#191970" d="M1142.1563,-654.8906C1124.0727,-644.8713 1095.5141,-629.0483 1074.6835,-617.5071"/>
<polygon fill="#191970" stroke="#191970" points="1076.1654,-614.3268 1065.722,-612.5419 1072.7729,-620.4498 1076.1654,-614.3268"/>
</g>
<!-- Node6 -->
<g id="node7" class="node">
<title>Node6</title>
<g id="a_node7"><a xlink:href="Indices_8h.html" target="_top" xlink:title="iDynTree/Model/Indices.h">
<polygon fill="none" stroke="#000000" points="930.5,-537.5 930.5,-556.5 1068.5,-556.5 1068.5,-537.5 930.5,-537.5"/>
<text text-anchor="middle" x="999.5" y="-544.5" font-family="FreeSans.ttf" font-size="10.00" fill="#000000">iDynTree/Model/Indices.h</text>
</a>
</g>
</g>
<!-- Node4&#45;&gt;Node6 -->
<g id="edge76" class="edge">
<title>Node4&#45;&gt;Node6</title>
<path fill="none" stroke="#191970" d="M1095.3664,-654.9193C1048.3201,-646.4268 990.1847,-632.3592 975.5,-613 964.6385,-598.681 974.2425,-578.9695 984.3448,-564.823"/>
<polygon fill="#191970" stroke="#191970" points="987.1749,-566.8846 990.5208,-556.832 981.6363,-562.604 987.1749,-566.8846"/>
</g>
<!-- Node8 -->
<g id="node9" class="node">
<title>Node8</title>
<g id="a_node9"><a xlink:href="Link_8h.html" target="_top" xlink:title="iDynTree/Model/Link.h">
<polygon fill="none" stroke="#000000" points="804.5,-593.5 804.5,-612.5 928.5,-612.5 928.5,-593.5 804.5,-593.5"/>
<text text-anchor="middle" x="866.5" y="-600.5" font-family="FreeSans.ttf" font-size="10.00" fill="#000000">iDynTree/Model/Link.h</text>
</a>
</g>
</g>
<!-- Node4&#45;&gt;Node8 -->
<g id="edge9" class="edge">
<title>Node4&#45;&gt;Node8</title>
<path fill="none" stroke="#191970" d="M1114.0402,-654.9581C1062.2886,-644.0956 977.7388,-626.3488 922.1038,-614.6711"/>
<polygon fill="#191970" stroke="#191970" points="922.5722,-611.1932 912.0664,-612.5643 921.1342,-618.0439 922.5722,-611.1932"/>
</g>
<!-- Node41 -->
<g id="node42" class="node">
<title>Node41</title>
<g id="a_node42"><a xlink:href="Transform_8h.html" target="_top" xlink:title="iDynTree/Core/Transform.h">
<polygon fill="none" stroke="#000000" points="1062.5,-347.5 1062.5,-366.5 1208.5,-366.5 1208.5,-347.5 1062.5,-347.5"/>
<text text-anchor="middle" x="1135.5" y="-354.5" font-family="FreeSans.ttf" font-size="10.00" fill="#000000">iDynTree/Core/Transform.h</text>
</a>
</g>
</g>
<!-- Node4&#45;&gt;Node41 -->
<g id="edge71" class="edge">
<title>Node4&#45;&gt;Node41</title>
<path fill="none" stroke="#191970" d="M1156.8581,-654.8367C1151.6375,-634.8617 1140.5,-587.502 1140.5,-547 1140.5,-547 1140.5,-547 1140.5,-485.5 1140.5,-446.9721 1138.2279,-401.9955 1136.747,-376.7719"/>
<polygon fill="#191970" stroke="#191970" points="1140.2332,-376.4363 1136.1333,-366.6669 1133.246,-376.8607 1140.2332,-376.4363"/>
</g>
<!-- Node42 -->
<g id="node43" class="node">
<title>Node42</title>
<g id="a_node43"><a xlink:href="SolidShapes_8h.html" target="_top" xlink:title="iDynTree/Model/SolidShapes.h">
<polygon fill="none" stroke="#000000" points="1207,-593.5 1207,-612.5 1370,-612.5 1370,-593.5 1207,-593.5"/>
<text text-anchor="middle" x="1288.5" y="-600.5" font-family="FreeSans.ttf" font-size="10.00" fill="#000000">iDynTree/Model/SolidShapes.h</text>
</a>
</g>
</g>
<!-- Node4&#45;&gt;Node42 -->
<g id="edge77" class="edge">
<title>Node4&#45;&gt;Node42</title>
<path fill="none" stroke="#191970" d="M1179.6563,-654.8906C1201.051,-644.6908 1235.062,-628.4763 1259.3702,-616.8875"/>
<polygon fill="#191970" stroke="#191970" points="1260.9648,-620.0047 1268.4853,-612.5419 1257.9524,-613.686 1260.9648,-620.0047"/>
</g>
<!-- Node43 -->
<g id="node44" class="node">
<title>Node43</title>
<polygon fill="none" stroke="#bfbfbf" points="1190,-537.5 1190,-556.5 1239,-556.5 1239,-537.5 1190,-537.5"/>
<text text-anchor="middle" x="1214.5" y="-544.5" font-family="FreeSans.ttf" font-size="10.00" fill="#000000">cstdlib</text>
</g>
<!-- Node4&#45;&gt;Node43 -->
<g id="edge82" class="edge">
<title>Node4&#45;&gt;Node43</title>
<path fill="none" stroke="#191970" d="M1164.0009,-654.8845C1173.0655,-635.5192 1193.6676,-591.5055 1205.567,-566.084"/>
<polygon fill="#191970" stroke="#191970" points="1208.8674,-567.2891 1209.9369,-556.7484 1202.5276,-564.3215 1208.8674,-567.2891"/>
</g>
<!-- Node44 -->
<g id="node45" class="node">
<title>Node44</title>
<polygon fill="none" stroke="#bfbfbf" points="1358,-537.5 1358,-556.5 1405,-556.5 1405,-537.5 1358,-537.5"/>
<text text-anchor="middle" x="1381.5" y="-544.5" font-family="FreeSans.ttf" font-size="10.00" fill="#000000">vector</text>
</g>
<!-- Node4&#45;&gt;Node44 -->
<g id="edge83" class="edge">
<title>Node4&#45;&gt;Node44</title>
<path fill="none" stroke="#191970" d="M1226.2237,-657.7653C1283.6624,-650.4478 1360.2527,-636.5321 1379.5,-613 1389.9104,-600.2721 1389.2827,-581.0872 1386.718,-566.6768"/>
<polygon fill="#191970" stroke="#191970" points="1390.1051,-565.7831 1384.53,-556.7738 1383.2699,-567.2934 1390.1051,-565.7831"/>
</g>
<!-- Node5&#45;&gt;Node6 -->
<g id="edge6" class="edge">
<title>Node5&#45;&gt;Node6</title>
<path fill="none" stroke="#191970" d="M1039.9649,-593.2455C1033.0088,-585.2958 1023.0117,-573.8706 1014.6949,-564.3656"/>
<polygon fill="#191970" stroke="#191970" points="1017.1564,-561.8637 1007.9373,-556.6427 1011.8884,-566.4732 1017.1564,-561.8637"/>
</g>
<!-- Node6&#45;&gt;Node3 -->
<g id="edge7" class="edge">
<title>Node6&#45;&gt;Node3</title>
<path fill="none" stroke="#191970" d="M1020.6773,-537.3008C1087.1874,-505.2261 1287.5,-395.6618 1287.5,-239.5 1287.5,-239.5 1287.5,-239.5 1287.5,-178 1287.5,-134.9765 1246.2265,-100.0102 1218.0891,-81.1715"/>
<polygon fill="#191970" stroke="#191970" points="1219.787,-78.102 1209.4841,-75.632 1215.9979,-83.9879 1219.787,-78.102"/>
</g>
<!-- Node7 -->
<g id="node8" class="node">
<title>Node7</title>
<polygon fill="none" stroke="#bfbfbf" points="956.5,-476 956.5,-495 1042.5,-495 1042.5,-476 956.5,-476"/>
<text text-anchor="middle" x="999.5" y="-483" font-family="FreeSans.ttf" font-size="10.00" fill="#000000">ModelExport.h</text>
</g>
<!-- Node6&#45;&gt;Node7 -->
<g id="edge8" class="edge">
<title>Node6&#45;&gt;Node7</title>
<path fill="none" stroke="#191970" d="M999.5,-537.3906C999.5,-528.8657 999.5,-516.1392 999.5,-505.4235"/>
<polygon fill="#191970" stroke="#191970" points="1003.0001,-505.2448 999.5,-495.2449 996.0001,-505.2449 1003.0001,-505.2448"/>
</g>
<!-- Node8&#45;&gt;Node6 -->
<g id="edge70" class="edge">
<title>Node8&#45;&gt;Node6</title>
<path fill="none" stroke="#191970" d="M889.3635,-593.3733C910.905,-584.3032 943.3838,-570.6279 967.4956,-560.4755"/>
<polygon fill="#191970" stroke="#191970" points="969.0767,-563.6075 976.9348,-556.5011 966.3603,-557.156 969.0767,-563.6075"/>
</g>
<!-- Node9 -->
<g id="node10" class="node">
<title>Node9</title>
<g id="a_node10"><a xlink:href="SpatialInertia_8h.html" target="_top" xlink:title="iDynTree/Core/SpatialInertia.h">
<polygon fill="none" stroke="#000000" points="501.5,-537.5 501.5,-556.5 663.5,-556.5 663.5,-537.5 501.5,-537.5"/>
<text text-anchor="middle" x="582.5" y="-544.5" font-family="FreeSans.ttf" font-size="10.00" fill="#000000">iDynTree/Core/SpatialInertia.h</text>
</a>
</g>
</g>
<!-- Node8&#45;&gt;Node9 -->
<g id="edge10" class="edge">
<title>Node8&#45;&gt;Node9</title>
<path fill="none" stroke="#191970" d="M818.0014,-593.4369C768.9885,-583.7724 693.2223,-568.8326 640.9293,-558.5213"/>
<polygon fill="#191970" stroke="#191970" points="641.2868,-555.0244 630.7986,-556.5237 639.9326,-561.8922 641.2868,-555.0244"/>
</g>
<!-- Node10 -->
<g id="node11" class="node">
<title>Node10</title>
<g id="a_node11"><a xlink:href="SpatialInertiaRaw_8h.html" target="_top" xlink:title="iDynTree/Core/SpatialInertia\lRaw.h">
<polygon fill="none" stroke="#000000" points="700,-470.5 700,-500.5 853,-500.5 853,-470.5 700,-470.5"/>
<text text-anchor="start" x="708" y="-488.5" font-family="FreeSans.ttf" font-size="10.00" fill="#000000">iDynTree/Core/SpatialInertia</text>
<text text-anchor="middle" x="776.5" y="-477.5" font-family="FreeSans.ttf" font-size="10.00" fill="#000000">Raw.h</text>
</a>
</g>
</g>
<!-- Node9&#45;&gt;Node10 -->
<g id="edge11" class="edge">
<title>Node9&#45;&gt;Node10</title>
<path fill="none" stroke="#191970" d="M612.8125,-537.3906C641.256,-528.3737 684.5271,-514.6563 719.4369,-503.5896"/>
<polygon fill="#191970" stroke="#191970" points="720.5675,-506.9029 729.0423,-500.5446 718.4521,-500.2302 720.5675,-506.9029"/>
</g>
<!-- Node20 -->
<g id="node21" class="node">
<title>Node20</title>
<g id="a_node21"><a xlink:href="VectorFixSize_8h.html" target="_top" xlink:title="iDynTree/Core/VectorFixSize.h">
<polygon fill="none" stroke="#000000" points="591,-112.5 591,-131.5 752,-131.5 752,-112.5 591,-112.5"/>
<text text-anchor="middle" x="671.5" y="-119.5" font-family="FreeSans.ttf" font-size="10.00" fill="#000000">iDynTree/Core/VectorFixSize.h</text>
</a>
</g>
</g>
<!-- Node9&#45;&gt;Node20 -->
<g id="edge22" class="edge">
<title>Node9&#45;&gt;Node20</title>
<path fill="none" stroke="#191970" d="M605.7652,-537.3548C621.3106,-529.7278 640.9555,-517.5922 652.5,-501 673.9898,-470.114 671.5,-456.1265 671.5,-418.5 671.5,-418.5 671.5,-418.5 671.5,-239.5 671.5,-205.1399 671.5,-165.128 671.5,-141.7764"/>
<polygon fill="#191970" stroke="#191970" points="675.0001,-141.7489 671.5,-131.7489 668.0001,-141.749 675.0001,-141.7489"/>
</g>
<!-- Node29 -->
<g id="node30" class="node">
<title>Node29</title>
<g id="a_node30"><a xlink:href="Twist_8h.html" target="_top" xlink:title="iDynTree/Core/Twist.h">
<polygon fill="none" stroke="#000000" points="521.5,-476 521.5,-495 643.5,-495 643.5,-476 521.5,-476"/>
<text text-anchor="middle" x="582.5" y="-483" font-family="FreeSans.ttf" font-size="10.00" fill="#000000">iDynTree/Core/Twist.h</text>
</a>
</g>
</g>
<!-- Node9&#45;&gt;Node29 -->
<g id="edge38" class="edge">
<title>Node9&#45;&gt;Node29</title>
<path fill="none" stroke="#191970" d="M582.5,-537.3906C582.5,-528.8657 582.5,-516.1392 582.5,-505.4235"/>
<polygon fill="#191970" stroke="#191970" points="586.0001,-505.2448 582.5,-495.2449 579.0001,-505.2449 586.0001,-505.2448"/>
</g>
<!-- Node37 -->
<g id="node38" class="node">
<title>Node37</title>
<g id="a_node38"><a xlink:href="SpatialMomentum_8h.html" target="_top" xlink:title="iDynTree/Core/SpatialMomentum.h">
<polygon fill="none" stroke="#000000" points="151.5,-476 151.5,-495 337.5,-495 337.5,-476 151.5,-476"/>
<text text-anchor="middle" x="244.5" y="-483" font-family="FreeSans.ttf" font-size="10.00" fill="#000000">iDynTree/Core/SpatialMomentum.h</text>
</a>
</g>
</g>
<!-- Node9&#45;&gt;Node37 -->
<g id="edge61" class="edge">
<title>Node9&#45;&gt;Node37</title>
<path fill="none" stroke="#191970" d="M530.0584,-537.4581C469.7751,-526.4894 370.9133,-508.5012 306.7716,-496.8305"/>
<polygon fill="#191970" stroke="#191970" points="307.2516,-493.3604 296.7866,-495.0137 305.9985,-500.2474 307.2516,-493.3604"/>
</g>
<!-- Node39 -->
<g id="node40" class="node">
<title>Node39</title>
<g id="a_node40"><a xlink:href="SpatialAcc_8h.html" target="_top" xlink:title="iDynTree/Core/SpatialAcc.h">
<polygon fill="none" stroke="#000000" points="355.5,-476 355.5,-495 503.5,-495 503.5,-476 355.5,-476"/>
<text text-anchor="middle" x="429.5" y="-483" font-family="FreeSans.ttf" font-size="10.00" fill="#000000">iDynTree/Core/SpatialAcc.h</text>
</a>
</g>
</g>
<!-- Node9&#45;&gt;Node39 -->
<g id="edge66" class="edge">
<title>Node9&#45;&gt;Node39</title>
<path fill="none" stroke="#191970" d="M558.5938,-537.3906C532.7695,-527.0103 491.4473,-510.4004 462.5295,-498.7766"/>
<polygon fill="#191970" stroke="#191970" points="463.8222,-495.5241 453.2384,-495.0419 461.2115,-502.019 463.8222,-495.5241"/>
</g>
<!-- Node40 -->
<g id="node41" class="node">
<title>Node40</title>
<g id="a_node41"><a xlink:href="Wrench_8h.html" target="_top" xlink:title="iDynTree/Core/Wrench.h">
<polygon fill="none" stroke="#000000" points="0,-476 0,-495 133,-495 133,-476 0,-476"/>
<text text-anchor="middle" x="66.5" y="-483" font-family="FreeSans.ttf" font-size="10.00" fill="#000000">iDynTree/Core/Wrench.h</text>
</a>
</g>
</g>
<!-- Node9&#45;&gt;Node40 -->
<g id="edge68" class="edge">
<title>Node9&#45;&gt;Node40</title>
<path fill="none" stroke="#191970" d="M501.1011,-540.8696C412.5572,-533.6473 266.9953,-520.1567 142.5,-501 135.0041,-499.8466 127.128,-498.4504 119.4017,-496.9742"/>
<polygon fill="#191970" stroke="#191970" points="119.8634,-493.498 109.3757,-495.0011 118.5116,-500.3663 119.8634,-493.498"/>
</g>
<!-- Node11 -->
<g id="node12" class="node">
<title>Node11</title>
<g id="a_node12"><a xlink:href="RotationalInertiaRaw_8h.html" target="_top" xlink:title="iDynTree/Core/Rotational\lInertiaRaw.h">
<polygon fill="none" stroke="#000000" points="704,-224.5 704,-254.5 841,-254.5 841,-224.5 704,-224.5"/>
<text text-anchor="start" x="712" y="-242.5" font-family="FreeSans.ttf" font-size="10.00" fill="#000000">iDynTree/Core/Rotational</text>
<text text-anchor="middle" x="772.5" y="-231.5" font-family="FreeSans.ttf" font-size="10.00" fill="#000000">InertiaRaw.h</text>
</a>
</g>
</g>
<!-- Node10&#45;&gt;Node11 -->
<g id="edge12" class="edge">
<title>Node10&#45;&gt;Node11</title>
<path fill="none" stroke="#191970" d="M776.2558,-470.4819C775.5905,-429.5667 773.7405,-315.7883 772.9113,-264.7921"/>
<polygon fill="#191970" stroke="#191970" points="776.4083,-264.5759 772.7461,-254.6341 769.4092,-264.6897 776.4083,-264.5759"/>
</g>
<!-- Node12 -->
<g id="node13" class="node">
<title>Node12</title>
<g id="a_node13"><a xlink:href="MatrixFixSize_8h.html" target="_top" xlink:title="iDynTree/Core/MatrixFixSize.h">
<polygon fill="none" stroke="#000000" points="770,-112.5 770,-131.5 931,-131.5 931,-112.5 770,-112.5"/>
<text text-anchor="middle" x="850.5" y="-119.5" font-family="FreeSans.ttf" font-size="10.00" fill="#000000">iDynTree/Core/MatrixFixSize.h</text>
</a>
</g>
</g>
<!-- Node11&#45;&gt;Node12 -->
<g id="edge13" class="edge">
<title>Node11&#45;&gt;Node12</title>
<path fill="none" stroke="#191970" d="M766.4109,-224.3972C761.2856,-209.0858 756.2768,-185.2542 766.5,-168 775.3436,-153.0742 790.9332,-142.6736 806.3002,-135.589"/>
<polygon fill="#191970" stroke="#191970" points="807.9211,-138.7041 815.7773,-131.5956 805.2029,-132.2534 807.9211,-138.7041"/>
</g>
<!-- Node12&#45;&gt;Node3 -->
<g id="edge19" class="edge">
<title>Node12&#45;&gt;Node3</title>
<path fill="none" stroke="#191970" d="M908.9033,-112.4369C981.4622,-100.5559 1102.7105,-80.7024 1160.2748,-71.2766"/>
<polygon fill="#191970" stroke="#191970" points="1160.9531,-74.7123 1170.2561,-69.6423 1159.822,-67.8043 1160.9531,-74.7123"/>
</g>
<!-- Node13 -->
<g id="node14" class="node">
<title>Node13</title>
<g id="a_node14"><a xlink:href="Utils_8h.html" target="_top" xlink:title="iDynTree/Core/Utils.h">
<polygon fill="none" stroke="#000000" points="550,-56.5 550,-75.5 669,-75.5 669,-56.5 550,-56.5"/>
<text text-anchor="middle" x="609.5" y="-63.5" font-family="FreeSans.ttf" font-size="10.00" fill="#000000">iDynTree/Core/Utils.h</text>
</a>
</g>
</g>
<!-- Node12&#45;&gt;Node13 -->
<g id="edge14" class="edge">
<title>Node12&#45;&gt;Node13</title>
<path fill="none" stroke="#191970" d="M809.3445,-112.4369C768.1858,-102.8731 704.795,-88.1432 660.4758,-77.845"/>
<polygon fill="#191970" stroke="#191970" points="661.0185,-74.3779 650.4858,-75.5237 659.4341,-81.1963 661.0185,-74.3779"/>
</g>
<!-- Node12&#45;&gt;Node16 -->
<g id="edge17" class="edge">
<title>Node12&#45;&gt;Node16</title>
<path fill="none" stroke="#191970" d="M854.0073,-112.41C858.2427,-99.3929 864.1383,-75.5161 858.5,-56 855.6062,-45.9836 849.8122,-36.0485 844.1587,-27.9887"/>
<polygon fill="#191970" stroke="#191970" points="846.8003,-25.6776 837.9977,-19.7814 841.2021,-29.88 846.8003,-25.6776"/>
</g>
<!-- Node17 -->
<g id="node18" class="node">
<title>Node17</title>
<polygon fill="none" stroke="#bfbfbf" points="799.5,-56.5 799.5,-75.5 849.5,-75.5 849.5,-56.5 799.5,-56.5"/>
<text text-anchor="middle" x="824.5" y="-63.5" font-family="FreeSans.ttf" font-size="10.00" fill="#000000">cstring</text>
</g>
<!-- Node12&#45;&gt;Node17 -->
<g id="edge18" class="edge">
<title>Node12&#45;&gt;Node17</title>
<path fill="none" stroke="#191970" d="M845.9711,-112.2455C842.4666,-104.6973 837.5073,-94.0158 833.2377,-84.8197"/>
<polygon fill="#191970" stroke="#191970" points="836.3627,-83.2389 828.977,-75.6427 830.0136,-86.1867 836.3627,-83.2389"/>
</g>
<!-- Node18 -->
<g id="node19" class="node">
<title>Node18</title>
<polygon fill="none" stroke="#bfbfbf" points="469.5,-56.5 469.5,-75.5 529.5,-75.5 529.5,-56.5 469.5,-56.5"/>
<text text-anchor="middle" x="499.5" y="-63.5" font-family="FreeSans.ttf" font-size="10.00" fill="#000000">iostream</text>
</g>
<!-- Node12&#45;&gt;Node18 -->
<g id="edge20" class="edge">
<title>Node12&#45;&gt;Node18</title>
<path fill="none" stroke="#191970" d="M772.7681,-112.4801C709.8641,-104.293 619.1252,-91.3881 540.5,-76 540.2843,-75.9578 540.068,-75.9152 539.8512,-75.8722"/>
<polygon fill="#191970" stroke="#191970" points="540.392,-72.4088 529.881,-73.7394 538.9276,-79.2539 540.392,-72.4088"/>
</g>
<!-- Node19 -->
<g id="node20" class="node">
<title>Node19</title>
<polygon fill="none" stroke="#bfbfbf" points="725.5,-56.5 725.5,-75.5 781.5,-75.5 781.5,-56.5 725.5,-56.5"/>
<text text-anchor="middle" x="753.5" y="-63.5" font-family="FreeSans.ttf" font-size="10.00" fill="#000000">sstream</text>
</g>
<!-- Node12&#45;&gt;Node19 -->
<g id="edge21" class="edge">
<title>Node12&#45;&gt;Node19</title>
<path fill="none" stroke="#191970" d="M833.6039,-112.2455C818.582,-103.5731 796.3957,-90.7645 779.179,-80.825"/>
<polygon fill="#191970" stroke="#191970" points="780.6128,-77.6114 770.2025,-75.6427 777.1129,-83.6737 780.6128,-77.6114"/>
</g>
<!-- Node14 -->
<g id="node15" class="node">
<title>Node14</title>
<polygon fill="none" stroke="#bfbfbf" points="586,-.5 586,-19.5 639,-19.5 639,-.5 586,-.5"/>
<text text-anchor="middle" x="612.5" y="-7.5" font-family="FreeSans.ttf" font-size="10.00" fill="#000000">cstddef</text>
</g>
<!-- Node13&#45;&gt;Node14 -->
<g id="edge15" class="edge">
<title>Node13&#45;&gt;Node14</title>
<path fill="none" stroke="#191970" d="M610.0226,-56.2455C610.414,-48.9382 610.9628,-38.6944 611.4444,-29.7046"/>
<polygon fill="#191970" stroke="#191970" points="614.9434,-29.8156 611.9834,-19.6427 607.9534,-29.4411 614.9434,-29.8156"/>
</g>
<!-- Node15 -->
<g id="node16" class="node">
<title>Node15</title>
<polygon fill="none" stroke="#bfbfbf" points="657.5,-.5 657.5,-19.5 737.5,-19.5 737.5,-.5 657.5,-.5"/>
<text text-anchor="middle" x="697.5" y="-7.5" font-family="FreeSans.ttf" font-size="10.00" fill="#000000">CoreExport.h</text>
</g>
<!-- Node13&#45;&gt;Node15 -->
<g id="edge16" class="edge">
<title>Node13&#45;&gt;Node15</title>
<path fill="none" stroke="#191970" d="M624.8284,-56.2455C638.3303,-47.6534 658.2122,-35.0014 673.7686,-25.1018"/>
<polygon fill="#191970" stroke="#191970" points="675.7897,-27.9643 682.3472,-19.6427 672.0315,-22.0587 675.7897,-27.9643"/>
</g>
<!-- Node20&#45;&gt;Node3 -->
<g id="edge34" class="edge">
<title>Node20&#45;&gt;Node3</title>
<path fill="none" stroke="#191970" d="M752.4512,-112.9887C755.5061,-112.6539 758.5305,-112.3234 761.5,-112 910.2163,-95.8019 1087.8645,-77.022 1159.8322,-69.4378"/>
<polygon fill="#191970" stroke="#191970" points="1160.4835,-72.8886 1170.0618,-68.3602 1159.7501,-65.9271 1160.4835,-72.8886"/>
</g>
<!-- Node20&#45;&gt;Node13 -->
<g id="edge23" class="edge">
<title>Node20&#45;&gt;Node13</title>
<path fill="none" stroke="#191970" d="M660.7004,-112.2455C651.6322,-104.0549 638.4794,-92.1749 627.7755,-82.5069"/>
<polygon fill="#191970" stroke="#191970" points="629.9429,-79.7482 620.1758,-75.6427 625.2509,-84.9429 629.9429,-79.7482"/>
</g>
<!-- Node20&#45;&gt;Node16 -->
<g id="edge36" class="edge">
<title>Node20&#45;&gt;Node16</title>
<path fill="none" stroke="#191970" d="M675.909,-112.1507C682.7229,-97.9433 697.0815,-71.6865 716.5,-56 739.135,-37.7152 770.0169,-25.8081 793.7768,-18.6993"/>
<polygon fill="#191970" stroke="#191970" points="794.8166,-22.0425 803.4787,-15.9418 792.9028,-15.3091 794.8166,-22.0425"/>
</g>
<!-- Node20&#45;&gt;Node17 -->
<g id="edge37" class="edge">
<title>Node20&#45;&gt;Node17</title>
<path fill="none" stroke="#191970" d="M697.8016,-112.3733C723.2522,-103.058 761.9743,-88.8852 789.9106,-78.6602"/>
<polygon fill="#191970" stroke="#191970" points="791.1151,-81.9465 799.3028,-75.2225 788.709,-75.3729 791.1151,-81.9465"/>
</g>
<!-- Node20&#45;&gt;Node19 -->
<g id="edge35" class="edge">
<title>Node20&#45;&gt;Node19</title>
<path fill="none" stroke="#191970" d="M685.7833,-112.2455C698.247,-103.7337 716.5451,-91.2375 730.9792,-81.3801"/>
<polygon fill="#191970" stroke="#191970" points="733.0962,-84.1726 739.3804,-75.6427 729.1485,-78.392 733.0962,-84.1726"/>
</g>
<!-- Node21 -->
<g id="node22" class="node">
<title>Node21</title>
<g id="a_node22"><a xlink:href="Span_8h.html" target="_top" xlink:title="iDynTree/Core/Span.h">
<polygon fill="none" stroke="#000000" points="325,-56.5 325,-75.5 446,-75.5 446,-56.5 325,-56.5"/>
<text text-anchor="middle" x="385.5" y="-63.5" font-family="FreeSans.ttf" font-size="10.00" fill="#000000">iDynTree/Core/Span.h</text>
</a>
</g>
</g>
<!-- Node20&#45;&gt;Node21 -->
<g id="edge24" class="edge">
<title>Node20&#45;&gt;Node21</title>
<path fill="none" stroke="#191970" d="M622.6598,-112.4369C573.199,-102.7522 496.684,-87.7703 444.012,-77.4569"/>
<polygon fill="#191970" stroke="#191970" points="444.625,-74.0105 434.1387,-75.5237 443.2798,-80.8801 444.625,-74.0105"/>
</g>
<!-- Node21&#45;&gt;Node14 -->
<g id="edge28" class="edge">
<title>Node21&#45;&gt;Node14</title>
<path fill="none" stroke="#191970" d="M426.9596,-56.4514C463.5983,-47.9155 518.7197,-34.8372 575.8578,-20.103"/>
<polygon fill="#191970" stroke="#191970" points="576.9886,-23.4257 585.7913,-17.5298 575.2332,-16.6494 576.9886,-23.4257"/>
</g>
<!-- Node21&#45;&gt;Node16 -->
<g id="edge25" class="edge">
<title>Node21&#45;&gt;Node16</title>
<path fill="none" stroke="#191970" d="M446.0763,-57.8781C450.9557,-57.2376 455.8099,-56.605 460.5,-56 582.3568,-40.2811 726.9718,-22.5103 793.1578,-14.4262"/>
<polygon fill="#191970" stroke="#191970" points="793.5891,-17.8996 803.0913,-13.2137 792.7409,-10.9512 793.5891,-17.8996"/>
</g>
<!-- Node22 -->
<g id="node23" class="node">
<title>Node22</title>
<polygon fill="none" stroke="#bfbfbf" points="139.5,-.5 139.5,-19.5 203.5,-19.5 203.5,-.5 139.5,-.5"/>
<text text-anchor="middle" x="171.5" y="-7.5" font-family="FreeSans.ttf" font-size="10.00" fill="#000000">algorithm</text>
</g>
<!-- Node21&#45;&gt;Node22 -->
<g id="edge26" class="edge">
<title>Node21&#45;&gt;Node22</title>
<path fill="none" stroke="#191970" d="M348.7121,-56.3733C311.1147,-46.5347 252.8104,-31.2775 213.4433,-20.9758"/>
<polygon fill="#191970" stroke="#191970" points="214.1797,-17.5507 203.6193,-18.4051 212.4075,-24.3227 214.1797,-17.5507"/>
</g>
<!-- Node23 -->
<g id="node24" class="node">
<title>Node23</title>
<polygon fill="none" stroke="#bfbfbf" points="221.5,-.5 221.5,-19.5 263.5,-19.5 263.5,-.5 221.5,-.5"/>
<text text-anchor="middle" x="242.5" y="-7.5" font-family="FreeSans.ttf" font-size="10.00" fill="#000000">array</text>
</g>
<!-- Node21&#45;&gt;Node23 -->
<g id="edge27" class="edge">
<title>Node21&#45;&gt;Node23</title>
<path fill="none" stroke="#191970" d="M360.9174,-56.3733C336.5591,-46.8343 299.1939,-32.2018 272.9656,-21.9306"/>
<polygon fill="#191970" stroke="#191970" points="274.0967,-18.6148 263.5089,-18.2273 271.5441,-25.1328 274.0967,-18.6148"/>
</g>
<!-- Node24 -->
<g id="node25" class="node">
<title>Node24</title>
<polygon fill="none" stroke="#bfbfbf" points="282,-.5 282,-19.5 335,-19.5 335,-.5 282,-.5"/>
<text text-anchor="middle" x="308.5" y="-7.5" font-family="FreeSans.ttf" font-size="10.00" fill="#000000">iterator</text>
</g>
<!-- Node21&#45;&gt;Node24 -->
<g id="edge29" class="edge">
<title>Node21&#45;&gt;Node24</title>
<path fill="none" stroke="#191970" d="M372.0876,-56.2455C360.4943,-47.814 343.5252,-35.4729 330.0322,-25.6598"/>
<polygon fill="#191970" stroke="#191970" points="331.9047,-22.6938 321.7587,-19.6427 327.7874,-28.355 331.9047,-22.6938"/>
</g>
<!-- Node25 -->
<g id="node26" class="node">
<title>Node25</title>
<polygon fill="none" stroke="#bfbfbf" points="353.5,-.5 353.5,-19.5 397.5,-19.5 397.5,-.5 353.5,-.5"/>
<text text-anchor="middle" x="375.5" y="-7.5" font-family="FreeSans.ttf" font-size="10.00" fill="#000000">limits</text>
</g>
<!-- Node21&#45;&gt;Node25 -->
<g id="edge30" class="edge">
<title>Node21&#45;&gt;Node25</title>
<path fill="none" stroke="#191970" d="M383.7581,-56.2455C382.4533,-48.9382 380.624,-38.6944 379.0187,-29.7046"/>
<polygon fill="#191970" stroke="#191970" points="382.4254,-28.8717 377.2219,-19.6427 375.5344,-30.1022 382.4254,-28.8717"/>
</g>
<!-- Node26 -->
<g id="node27" class="node">
<title>Node26</title>
<polygon fill="none" stroke="#bfbfbf" points="416,-.5 416,-19.5 481,-19.5 481,-.5 416,-.5"/>
<text text-anchor="middle" x="448.5" y="-7.5" font-family="FreeSans.ttf" font-size="10.00" fill="#000000">stdexcept</text>
</g>
<!-- Node21&#45;&gt;Node26 -->
<g id="edge31" class="edge">
<title>Node21&#45;&gt;Node26</title>
<path fill="none" stroke="#191970" d="M396.4738,-56.2455C405.6882,-48.0549 419.0532,-36.1749 429.9297,-26.5069"/>
<polygon fill="#191970" stroke="#191970" points="432.5032,-28.9023 437.652,-19.6427 427.8526,-23.6704 432.5032,-28.9023"/>
</g>
<!-- Node27 -->
<g id="node28" class="node">
<title>Node27</title>
<polygon fill="none" stroke="#bfbfbf" points="499,-.5 499,-19.5 568,-19.5 568,-.5 499,-.5"/>
<text text-anchor="middle" x="533.5" y="-7.5" font-family="FreeSans.ttf" font-size="10.00" fill="#000000">type_traits</text>
</g>
<!-- Node21&#45;&gt;Node27 -->
<g id="edge32" class="edge">
<title>Node21&#45;&gt;Node27</title>
<path fill="none" stroke="#191970" d="M410.9421,-56.3733C435.2326,-47.1822 472.0208,-33.2624 498.9543,-23.0713"/>
<polygon fill="#191970" stroke="#191970" points="500.2757,-26.3136 508.3899,-19.5011 497.7984,-19.7666 500.2757,-26.3136"/>
</g>
<!-- Node28 -->
<g id="node29" class="node">
<title>Node28</title>
<polygon fill="none" stroke="#bfbfbf" points="76,-.5 76,-19.5 121,-19.5 121,-.5 76,-.5"/>
<text text-anchor="middle" x="98.5" y="-7.5" font-family="FreeSans.ttf" font-size="10.00" fill="#000000">utility</text>
</g>
<!-- Node21&#45;&gt;Node28 -->
<g id="edge33" class="edge">
<title>Node21&#45;&gt;Node28</title>
<path fill="none" stroke="#191970" d="M324.7725,-57.2242C275.1591,-49.5599 203.0816,-37.3012 131.2581,-19.9375"/>
<polygon fill="#191970" stroke="#191970" points="131.6734,-16.4357 121.1276,-17.4535 130.0064,-23.2343 131.6734,-16.4357"/>
</g>
<!-- Node30 -->
<g id="node31" class="node">
<title>Node30</title>
<g id="a_node31"><a xlink:href="SpatialMotionVector_8h.html" target="_top" xlink:title="iDynTree/Core/SpatialMotion\lVector.h">
<polygon fill="none" stroke="#000000" points="478,-403.5 478,-433.5 633,-433.5 633,-403.5 478,-403.5"/>
<text text-anchor="start" x="486" y="-421.5" font-family="FreeSans.ttf" font-size="10.00" fill="#000000">iDynTree/Core/SpatialMotion</text>
<text text-anchor="middle" x="555.5" y="-410.5" font-family="FreeSans.ttf" font-size="10.00" fill="#000000">Vector.h</text>
</a>
</g>
</g>
<!-- Node29&#45;&gt;Node30 -->
<g id="edge39" class="edge">
<title>Node29&#45;&gt;Node30</title>
<path fill="none" stroke="#191970" d="M578.6316,-475.9005C575.1805,-467.3368 569.9773,-454.4252 565.3793,-443.0152"/>
<polygon fill="#191970" stroke="#191970" points="568.5377,-441.4887 561.5535,-433.5218 562.0451,-444.1052 568.5377,-441.4887"/>
</g>
<!-- Node30&#45;&gt;Node20 -->
<g id="edge40" class="edge">
<title>Node30&#45;&gt;Node20</title>
<path fill="none" stroke="#191970" d="M574.3816,-403.1699C597.4659,-382.575 633.5,-343.6037 633.5,-301 633.5,-301 633.5,-301 633.5,-239.5 633.5,-203.2454 650.0805,-163.6181 661.337,-140.8929"/>
<polygon fill="#191970" stroke="#191970" points="664.5965,-142.2076 666.0555,-131.7137 658.3708,-139.0073 664.5965,-142.2076"/>
</g>
<!-- Node31 -->
<g id="node32" class="node">
<title>Node31</title>
<g id="a_node32"><a xlink:href="GeomVector3_8h.html" target="_top" xlink:title="iDynTree/Core/GeomVector3.h">
<polygon fill="none" stroke="#000000" points="442,-168.5 442,-187.5 605,-187.5 605,-168.5 442,-168.5"/>
<text text-anchor="middle" x="523.5" y="-175.5" font-family="FreeSans.ttf" font-size="10.00" fill="#000000">iDynTree/Core/GeomVector3.h</text>
</a>
</g>
</g>
<!-- Node30&#45;&gt;Node31 -->
<g id="edge41" class="edge">
<title>Node30&#45;&gt;Node31</title>
<path fill="none" stroke="#191970" d="M553.4983,-403.4556C547.9491,-361.75 532.3689,-244.6556 526.1309,-197.7727"/>
<polygon fill="#191970" stroke="#191970" points="529.5777,-197.1404 524.7892,-187.6895 522.6388,-198.0638 529.5777,-197.1404"/>
</g>
<!-- Node32 -->
<g id="node33" class="node">
<title>Node32</title>
<g id="a_node33"><a xlink:href="SpatialVector_8h.html" target="_top" xlink:title="iDynTree/Core/SpatialVector.h">
<polygon fill="none" stroke="#000000" points="366,-347.5 366,-366.5 527,-366.5 527,-347.5 366,-347.5"/>
<text text-anchor="middle" x="446.5" y="-354.5" font-family="FreeSans.ttf" font-size="10.00" fill="#000000">iDynTree/Core/SpatialVector.h</text>
</a>
</g>
</g>
<!-- Node30&#45;&gt;Node32 -->
<g id="edge43" class="edge">
<title>Node30&#45;&gt;Node32</title>
<path fill="none" stroke="#191970" d="M528.8356,-403.4554C511.6059,-393.734 489.3025,-381.15 472.2554,-371.5317"/>
<polygon fill="#191970" stroke="#191970" points="473.8204,-368.3961 463.3911,-366.5303 470.3806,-374.4926 473.8204,-368.3961"/>
</g>
<!-- Node31&#45;&gt;Node20 -->
<g id="edge42" class="edge">
<title>Node31&#45;&gt;Node20</title>
<path fill="none" stroke="#191970" d="M548.9421,-168.3733C573.2326,-159.1822 610.0208,-145.2624 636.9543,-135.0713"/>
<polygon fill="#191970" stroke="#191970" points="638.2757,-138.3136 646.3899,-131.5011 635.7984,-131.7666 638.2757,-138.3136"/>
</g>
<!-- Node32&#45;&gt;Node13 -->
<g id="edge57" class="edge">
<title>Node32&#45;&gt;Node13</title>
<path fill="none" stroke="#191970" d="M433.678,-347.3346C423.1698,-338.8092 408.5972,-325.5103 399.5,-311 381.6946,-282.5998 375.5,-273.0202 375.5,-239.5 375.5,-239.5 375.5,-239.5 375.5,-178 375.5,-146.7875 376.0102,-132.5537 399.5,-112 410.4135,-102.4506 485.4764,-87.5417 542.7756,-77.3005"/>
<polygon fill="#191970" stroke="#191970" points="543.6511,-80.7 552.8868,-75.5085 542.4294,-73.8074 543.6511,-80.7"/>
</g>
<!-- Node32&#45;&gt;Node18 -->
<g id="edge59" class="edge">
<title>Node32&#45;&gt;Node18</title>
<path fill="none" stroke="#191970" d="M395.4582,-347.4314C340.6993,-333.8666 261.5,-303.2315 261.5,-239.5 261.5,-239.5 261.5,-239.5 261.5,-178 261.5,-134.781 391.6131,-94.2434 459.4314,-76.0497"/>
<polygon fill="#191970" stroke="#191970" points="460.583,-79.3656 469.3571,-73.4271 458.7948,-72.5978 460.583,-79.3656"/>
</g>
<!-- Node32&#45;&gt;Node19 -->
<g id="edge60" class="edge">
<title>Node32&#45;&gt;Node19</title>
<path fill="none" stroke="#191970" d="M441.7719,-347.2029C432.6471,-327.3658 413.5,-280.8177 413.5,-239.5 413.5,-239.5 413.5,-239.5 413.5,-178 413.5,-146.5029 626.7096,-94.6564 715.4524,-74.4409"/>
<polygon fill="#191970" stroke="#191970" points="716.4068,-77.8134 725.3871,-72.1916 714.8611,-70.9862 716.4068,-77.8134"/>
</g>
<!-- Node32&#45;&gt;Node31 -->
<g id="edge58" class="edge">
<title>Node32&#45;&gt;Node31</title>
<path fill="none" stroke="#191970" d="M450.6399,-347.3762C462.8606,-318.9669 498.9448,-235.0828 515.2894,-197.0871"/>
<polygon fill="#191970" stroke="#191970" points="518.6032,-198.2406 519.3397,-187.6714 512.1729,-195.4745 518.6032,-198.2406"/>
</g>
<!-- Node33 -->
<g id="node34" class="node">
<title>Node33</title>
<g id="a_node34"><a xlink:href="Position_8h.html" target="_top" xlink:title="Position.h">
<polygon fill="none" stroke="#000000" points="1012,-291.5 1012,-310.5 1077,-310.5 1077,-291.5 1012,-291.5"/>
<text text-anchor="middle" x="1044.5" y="-298.5" font-family="FreeSans.ttf" font-size="10.00" fill="#000000">Position.h</text>
</a>
</g>
</g>
<!-- Node32&#45;&gt;Node33 -->
<g id="edge44" class="edge">
<title>Node32&#45;&gt;Node33</title>
<path fill="none" stroke="#191970" d="M527.1489,-349.4476C655.7009,-337.4093 902.6547,-314.2832 1001.7794,-305.0006"/>
<polygon fill="#191970" stroke="#191970" points="1002.1059,-308.4854 1011.736,-304.0682 1001.4532,-301.5159 1002.1059,-308.4854"/>
</g>
<!-- Node35 -->
<g id="node36" class="node">
<title>Node35</title>
<g id="a_node36"><a xlink:href="Rotation_8h.html" target="_top" xlink:title="iDynTree/Core/Rotation.h">
<polygon fill="none" stroke="#000000" points="879,-230 879,-249 1016,-249 1016,-230 879,-230"/>
<text text-anchor="middle" x="947.5" y="-237" font-family="FreeSans.ttf" font-size="10.00" fill="#000000">iDynTree/Core/Rotation.h</text>
</a>
</g>
</g>
<!-- Node32&#45;&gt;Node35 -->
<g id="edge56" class="edge">
<title>Node32&#45;&gt;Node35</title>
<path fill="none" stroke="#191970" d="M487.0746,-347.484C577.9493,-326.1711 797.6321,-274.6487 897.0857,-251.3237"/>
<polygon fill="#191970" stroke="#191970" points="897.9603,-254.7137 906.8969,-249.0227 896.3619,-247.8986 897.9603,-254.7137"/>
</g>
<!-- Node33&#45;&gt;Node3 -->
<g id="edge55" class="edge">
<title>Node33&#45;&gt;Node3</title>
<path fill="none" stroke="#191970" d="M1059.9761,-291.3474C1086.9128,-273.8322 1142.67,-234.3102 1175.5,-188 1195.8368,-159.3128 1199.4027,-147.113 1197.5,-112 1197.0338,-103.3971 1196.0807,-93.9288 1195.1304,-85.8301"/>
<polygon fill="#191970" stroke="#191970" points="1198.5957,-85.334 1193.8824,-75.8453 1191.6498,-86.2023 1198.5957,-85.334"/>
</g>
<!-- Node34 -->
<g id="node35" class="node">
<title>Node34</title>
<g id="a_node35"><a xlink:href="PositionRaw_8h.html" target="_top" xlink:title="iDynTree/Core/PositionRaw.h">
<polygon fill="none" stroke="#000000" points="775.5,-168.5 775.5,-187.5 931.5,-187.5 931.5,-168.5 775.5,-168.5"/>
<text text-anchor="middle" x="853.5" y="-175.5" font-family="FreeSans.ttf" font-size="10.00" fill="#000000">iDynTree/Core/PositionRaw.h</text>
</a>
</g>
</g>
<!-- Node33&#45;&gt;Node34 -->
<g id="edge45" class="edge">
<title>Node33&#45;&gt;Node34</title>
<path fill="none" stroke="#191970" d="M1045.0271,-291.4994C1045.376,-275.3445 1043.6255,-242.4807 1025.5,-224 1011.0534,-209.2703 964.9034,-197.3942 924.0424,-189.4009"/>
<polygon fill="#191970" stroke="#191970" points="924.5415,-185.9332 914.0637,-187.5035 923.2338,-192.8099 924.5415,-185.9332"/>
</g>
<!-- Node33&#45;&gt;Node35 -->
<g id="edge48" class="edge">
<title>Node33&#45;&gt;Node35</title>
<path fill="none" stroke="#191970" d="M1029.3438,-291.3906C1013.8257,-281.5519 989.4807,-266.1167 971.3716,-254.6351"/>
<polygon fill="#191970" stroke="#191970" points="972.8696,-251.4407 962.5498,-249.0419 969.1213,-257.3526 972.8696,-251.4407"/>
</g>
<!-- Node34&#45;&gt;Node3 -->
<g id="edge47" class="edge">
<title>Node34&#45;&gt;Node3</title>
<path fill="none" stroke="#191970" d="M882.4029,-168.4509C945.477,-147.6123 1095.058,-98.1932 1160.6944,-76.508"/>
<polygon fill="#191970" stroke="#191970" points="1162.0846,-79.7349 1170.4818,-73.2744 1159.8886,-73.0882 1162.0846,-79.7349"/>
</g>
<!-- Node34&#45;&gt;Node20 -->
<g id="edge46" class="edge">
<title>Node34&#45;&gt;Node20</title>
<path fill="none" stroke="#191970" d="M822.2131,-168.3733C791.8182,-159.021 745.5107,-144.7725 712.25,-134.5385"/>
<polygon fill="#191970" stroke="#191970" points="712.9658,-131.0968 702.3786,-131.5011 710.9071,-137.7873 712.9658,-131.0968"/>
</g>
<!-- Node35&#45;&gt;Node3 -->
<g id="edge49" class="edge">
<title>Node35&#45;&gt;Node3</title>
<path fill="none" stroke="#191970" d="M1014.9772,-229.9968C1067.3772,-221.3218 1134.399,-206.9656 1154.5,-188 1183.161,-160.9579 1190.3434,-112.7082 1192.0548,-85.6993"/>
<polygon fill="#191970" stroke="#191970" points="1195.5584,-85.6921 1192.5,-75.5483 1188.5652,-85.3853 1195.5584,-85.6921"/>
</g>
<!-- Node35&#45;&gt;Node20 -->
<g id="edge54" class="edge">
<title>Node35&#45;&gt;Node20</title>
<path fill="none" stroke="#191970" d="M897.517,-229.9415C860.2542,-221.7189 808.7256,-207.9923 766.5,-188 738.2666,-174.6325 709.2703,-153.1432 690.8614,-138.3368"/>
<polygon fill="#191970" stroke="#191970" points="692.678,-135.3004 682.7246,-131.67 688.2416,-140.7151 692.678,-135.3004"/>
</g>
<!-- Node35&#45;&gt;Node31 -->
<g id="edge50" class="edge">
<title>Node35&#45;&gt;Node31</title>
<path fill="none" stroke="#191970" d="M889.0526,-229.9793C876.3499,-227.9608 862.9799,-225.8747 850.5,-224 766.5111,-211.3832 670.2225,-197.9642 603.9962,-188.8966"/>
<polygon fill="#191970" stroke="#191970" points="604.4225,-185.4224 594.0405,-187.5353 603.4741,-192.3579 604.4225,-185.4224"/>
</g>
<!-- Node36 -->
<g id="node37" class="node">
<title>Node36</title>
<g id="a_node37"><a xlink:href="RotationRaw_8h.html" target="_top" xlink:title="iDynTree/Core/RotationRaw.h">
<polygon fill="none" stroke="#000000" points="987.5,-168.5 987.5,-187.5 1145.5,-187.5 1145.5,-168.5 987.5,-168.5"/>
<text text-anchor="middle" x="1066.5" y="-175.5" font-family="FreeSans.ttf" font-size="10.00" fill="#000000">iDynTree/Core/RotationRaw.h</text>
</a>
</g>
</g>
<!-- Node35&#45;&gt;Node36 -->
<g id="edge51" class="edge">
<title>Node35&#45;&gt;Node36</title>
<path fill="none" stroke="#191970" d="M966.0938,-229.8906C985.6553,-219.7811 1016.6501,-203.7628 1039.0309,-192.1962"/>
<polygon fill="#191970" stroke="#191970" points="1040.76,-195.2425 1048.0368,-187.5419 1037.5461,-189.0238 1040.76,-195.2425"/>
</g>
<!-- Node36&#45;&gt;Node3 -->
<g id="edge53" class="edge">
<title>Node36&#45;&gt;Node3</title>
<path fill="none" stroke="#191970" d="M1077.2427,-168.4509C1098.8159,-149.2747 1147.6167,-105.8962 1174.2763,-82.1988"/>
<polygon fill="#191970" stroke="#191970" points="1176.6357,-84.7845 1181.7845,-75.5249 1171.9851,-79.5526 1176.6357,-84.7845"/>
</g>
<!-- Node36&#45;&gt;Node12 -->
<g id="edge52" class="edge">
<title>Node36&#45;&gt;Node12</title>
<path fill="none" stroke="#191970" d="M1029.3683,-168.3733C992.6733,-158.8598 936.4361,-144.2797 896.8349,-134.0127"/>
<polygon fill="#191970" stroke="#191970" points="897.7056,-130.6228 887.1472,-131.5011 895.9488,-137.3988 897.7056,-130.6228"/>
</g>
<!-- Node38 -->
<g id="node39" class="node">
<title>Node38</title>
<g id="a_node39"><a xlink:href="SpatialForceVector_8h.html" target="_top" xlink:title="iDynTree/Core/SpatialForce\lVector.h">
<polygon fill="none" stroke="#000000" points="225.5,-403.5 225.5,-433.5 373.5,-433.5 373.5,-403.5 225.5,-403.5"/>
<text text-anchor="start" x="233.5" y="-421.5" font-family="FreeSans.ttf" font-size="10.00" fill="#000000">iDynTree/Core/SpatialForce</text>
<text text-anchor="middle" x="299.5" y="-410.5" font-family="FreeSans.ttf" font-size="10.00" fill="#000000">Vector.h</text>
</a>
</g>
</g>
<!-- Node37&#45;&gt;Node38 -->
<g id="edge62" class="edge">
<title>Node37&#45;&gt;Node38</title>
<path fill="none" stroke="#191970" d="M252.3802,-475.9005C259.7651,-466.9043 271.0889,-453.1099 280.7847,-441.2986"/>
<polygon fill="#191970" stroke="#191970" points="283.529,-443.4718 287.1687,-433.5218 278.1185,-439.0303 283.529,-443.4718"/>
</g>
<!-- Node38&#45;&gt;Node20 -->
<g id="edge63" class="edge">
<title>Node38&#45;&gt;Node20</title>
<path fill="none" stroke="#191970" d="M299.5,-403.2899C299.5,-380.892 299.5,-337.7188 299.5,-301 299.5,-301 299.5,-301 299.5,-239.5 299.5,-180.7181 470.5282,-147.6295 580.6529,-132.4166"/>
<polygon fill="#191970" stroke="#191970" points="581.3422,-135.8552 590.7815,-131.0438 580.402,-128.9186 581.3422,-135.8552"/>
</g>
<!-- Node38&#45;&gt;Node31 -->
<g id="edge64" class="edge">
<title>Node38&#45;&gt;Node31</title>
<path fill="none" stroke="#191970" d="M310.8412,-403.333C322.035,-388.594 339.8437,-365.7536 356.5,-347 408.2981,-288.6799 474.6947,-224.3053 505.8592,-194.6429"/>
<polygon fill="#191970" stroke="#191970" points="508.4884,-196.9732 513.3344,-187.5516 503.6707,-191.8948 508.4884,-196.9732"/>
</g>
<!-- Node38&#45;&gt;Node32 -->
<g id="edge65" class="edge">
<title>Node38&#45;&gt;Node32</title>
<path fill="none" stroke="#191970" d="M335.4602,-403.4554C359.5573,-393.374 391.013,-380.2139 414.2903,-370.4755"/>
<polygon fill="#191970" stroke="#191970" points="415.8459,-373.6187 423.7202,-366.5303 413.1442,-367.1611 415.8459,-373.6187"/>
</g>
<!-- Node39&#45;&gt;Node30 -->
<g id="edge67" class="edge">
<title>Node39&#45;&gt;Node30</title>
<path fill="none" stroke="#191970" d="M447.5527,-475.9005C465.935,-466.1258 494.9701,-450.6865 518.2995,-438.2812"/>
<polygon fill="#191970" stroke="#191970" points="520.064,-441.3071 527.2501,-433.5218 516.7775,-435.1265 520.064,-441.3071"/>
</g>
<!-- Node40&#45;&gt;Node38 -->
<g id="edge69" class="edge">
<title>Node40&#45;&gt;Node38</title>
<path fill="none" stroke="#191970" d="M99.8832,-475.9005C135.6808,-465.6068 193.3251,-449.031 237.4869,-436.3321"/>
<polygon fill="#191970" stroke="#191970" points="238.6168,-439.6491 247.2601,-433.5218 236.6823,-432.9217 238.6168,-439.6491"/>
</g>
<!-- Node41&#45;&gt;Node3 -->
<g id="edge75" class="edge">
<title>Node41&#45;&gt;Node3</title>
<path fill="none" stroke="#191970" d="M1156.1445,-347.4423C1188.9962,-330.6431 1249.5,-292.5081 1249.5,-239.5 1249.5,-239.5 1249.5,-239.5 1249.5,-178 1249.5,-141.1826 1224.7325,-104.2377 1207.8499,-83.3313"/>
<polygon fill="#191970" stroke="#191970" points="1210.5131,-81.06 1201.4063,-75.6456 1205.1489,-85.5574 1210.5131,-81.06"/>
</g>
<!-- Node41&#45;&gt;Node12 -->
<g id="edge74" class="edge">
<title>Node41&#45;&gt;Node12</title>
<path fill="none" stroke="#191970" d="M1131.1866,-347.4636C1120.1192,-323.8719 1088.6005,-261.9462 1046.5,-224 1045.8816,-223.4426 941.2387,-168.3839 940.5,-168 919.8738,-157.2811 896.4955,-145.3383 878.7361,-136.3084"/>
<polygon fill="#191970" stroke="#191970" points="880.0018,-133.0257 869.501,-131.6177 876.8318,-139.2668 880.0018,-133.0257"/>
</g>
<!-- Node41&#45;&gt;Node33 -->
<g id="edge72" class="edge">
<title>Node41&#45;&gt;Node33</title>
<path fill="none" stroke="#191970" d="M1119.649,-347.2455C1105.6868,-338.6534 1085.1272,-326.0014 1069.0404,-316.1018"/>
<polygon fill="#191970" stroke="#191970" points="1070.5203,-312.9029 1060.1693,-310.6427 1066.8516,-318.8645 1070.5203,-312.9029"/>
</g>
<!-- Node41&#45;&gt;Node35 -->
<g id="edge73" class="edge">
<title>Node41&#45;&gt;Node35</title>
<path fill="none" stroke="#191970" d="M1088.1369,-347.4708C1061.5089,-340.4805 1028.6679,-328.9998 1003.5,-311 983.958,-297.0238 967.8397,-274.3542 957.9927,-258.2916"/>
<polygon fill="#191970" stroke="#191970" points="960.7816,-256.1291 952.6975,-249.2809 954.7465,-259.6757 960.7816,-256.1291"/>
</g>
<!-- Node42&#45;&gt;Node3 -->
<g id="edge79" class="edge">
<title>Node42&#45;&gt;Node3</title>
<path fill="none" stroke="#191970" d="M1293.8012,-593.2688C1304.032,-573.55 1325.5,-527.2042 1325.5,-485.5 1325.5,-485.5 1325.5,-485.5 1325.5,-178 1325.5,-125.2649 1263.5653,-92.3475 1224.2248,-76.7578"/>
<polygon fill="#191970" stroke="#191970" points="1225.3525,-73.4423 1214.7612,-73.1662 1222.8686,-79.9868 1225.3525,-73.4423"/>
</g>
<!-- Node42&#45;&gt;Node41 -->
<g id="edge81" class="edge">
<title>Node42&#45;&gt;Node41</title>
<path fill="none" stroke="#191970" d="M1282.5845,-593.1306C1274.8201,-580.2015 1260.7398,-556.8418 1248.5,-537 1211.827,-477.5496 1167.598,-407.5912 1147.0434,-375.1774"/>
<polygon fill="#191970" stroke="#191970" points="1149.9915,-373.2908 1141.6786,-366.7222 1144.0809,-377.0411 1149.9915,-373.2908"/>
</g>
<!-- Node42&#45;&gt;Node43 -->
<g id="edge78" class="edge">
<title>Node42&#45;&gt;Node43</title>
<path fill="none" stroke="#191970" d="M1275.6102,-593.2455C1264.5746,-584.8943 1248.4708,-572.7076 1235.5647,-562.9408"/>
<polygon fill="#191970" stroke="#191970" points="1237.3283,-559.8862 1227.2421,-556.6427 1233.1041,-565.4681 1237.3283,-559.8862"/>
</g>
<!-- Node42&#45;&gt;Node44 -->
<g id="edge80" class="edge">
<title>Node42&#45;&gt;Node44</title>
<path fill="none" stroke="#191970" d="M1304.6994,-593.2455C1319.1018,-584.5731 1340.3732,-571.7645 1356.8799,-561.825"/>
<polygon fill="#191970" stroke="#191970" points="1358.725,-564.7996 1365.4863,-556.6427 1355.114,-558.8028 1358.725,-564.7996"/>
</g>
</g>
</svg>
