<?xml version="1.0" encoding="UTF-8" standalone="no"?>
<!DOCTYPE svg PUBLIC "-//W3C//DTD SVG 1.1//EN"
 "http://www.w3.org/Graphics/SVG/1.1/DTD/svg11.dtd">
<!-- Generated by graphviz version 2.40.1 (20161225.0304)
 -->
<!-- Title: FreeFloatingState.h Pages: 1 -->
<svg width="1515pt" height="610pt"
 viewBox="0.00 0.00 1514.50 610.00" xmlns="http://www.w3.org/2000/svg" xmlns:xlink="http://www.w3.org/1999/xlink">
<g id="graph0" class="graph" transform="scale(1 1) rotate(0) translate(4 606)">
<title>FreeFloatingState.h</title>
<!-- Node0 -->
<g id="node1" class="node">
<title>Node0</title>
<polygon fill="#bfbfbf" stroke="#000000" points="679,-582.5 679,-601.5 789,-601.5 789,-582.5 679,-582.5"/>
<text text-anchor="middle" x="734" y="-589.5" font-family="FreeSans.ttf" font-size="10.00" fill="#000000">FreeFloatingState.h</text>
</g>
<!-- Node1 -->
<g id="node2" class="node">
<title>Node1</title>
<g id="a_node2"><a xlink:href="Transform_8h.html" target="_top" xlink:title="iDynTree/Core/Transform.h">
<polygon fill="none" stroke="#000000" points="380,-347.5 380,-366.5 526,-366.5 526,-347.5 380,-347.5"/>
<text text-anchor="middle" x="453" y="-354.5" font-family="FreeSans.ttf" font-size="10.00" fill="#000000">iDynTree/Core/Transform.h</text>
</a>
</g>
</g>
<!-- Node0&#45;&gt;Node1 -->
<g id="edge1" class="edge">
<title>Node0&#45;&gt;Node1</title>
<path fill="none" stroke="#191970" d="M678.7238,-584.2162C625.4753,-575.9559 549.3728,-561.9158 524,-546 474.6681,-515.0553 468.8173,-490.806 456,-434 451.6876,-414.8877 451.3275,-392.4426 451.8089,-376.733"/>
<polygon fill="#191970" stroke="#191970" points="455.3105,-376.7756 452.2637,-366.6283 448.3175,-376.4608 455.3105,-376.7756"/>
</g>
<!-- Node25 -->
<g id="node26" class="node">
<title>Node25</title>
<g id="a_node26"><a xlink:href="Twist_8h.html" target="_top" xlink:title="iDynTree/Core/Twist.h">
<polygon fill="none" stroke="#000000" points="673,-470.5 673,-489.5 795,-489.5 795,-470.5 673,-470.5"/>
<text text-anchor="middle" x="734" y="-477.5" font-family="FreeSans.ttf" font-size="10.00" fill="#000000">iDynTree/Core/Twist.h</text>
</a>
</g>
</g>
<!-- Node0&#45;&gt;Node25 -->
<g id="edge41" class="edge">
<title>Node0&#45;&gt;Node25</title>
<path fill="none" stroke="#191970" d="M734,-582.4509C734,-564.184 734,-523.9553 734,-499.6976"/>
<polygon fill="#191970" stroke="#191970" points="737.5001,-499.5249 734,-489.5249 730.5001,-499.5249 737.5001,-499.5249"/>
</g>
<!-- Node28 -->
<g id="node29" class="node">
<title>Node28</title>
<g id="a_node29"><a xlink:href="VectorDynSize_8h.html" target="_top" xlink:title="iDynTree/Core/VectorDynSize.h">
<polygon fill="none" stroke="#000000" points="1137.5,-291.5 1137.5,-310.5 1304.5,-310.5 1304.5,-291.5 1137.5,-291.5"/>
<text text-anchor="middle" x="1221" y="-298.5" font-family="FreeSans.ttf" font-size="10.00" fill="#000000">iDynTree/Core/VectorDynSize.h</text>
</a>
</g>
</g>
<!-- Node0&#45;&gt;Node28 -->
<g id="edge52" class="edge">
<title>Node0&#45;&gt;Node28</title>
<path fill="none" stroke="#191970" d="M789.2996,-590.6262C915.124,-586.0014 1212,-565.9795 1212,-480 1212,-480 1212,-480 1212,-418.5 1212,-384.0393 1215.8962,-344.0591 1218.5615,-320.741"/>
<polygon fill="#191970" stroke="#191970" points="1222.0467,-321.0722 1219.7486,-310.7296 1215.0954,-320.2479 1222.0467,-321.0722"/>
</g>
<!-- Node29 -->
<g id="node30" class="node">
<title>Node29</title>
<g id="a_node30"><a xlink:href="Indices_8h.html" target="_top" xlink:title="iDynTree/Model/Indices.h">
<polygon fill="none" stroke="#000000" points="101,-470.5 101,-489.5 239,-489.5 239,-470.5 101,-470.5"/>
<text text-anchor="middle" x="170" y="-477.5" font-family="FreeSans.ttf" font-size="10.00" fill="#000000">iDynTree/Model/Indices.h</text>
</a>
</g>
</g>
<!-- Node0&#45;&gt;Node29 -->
<g id="edge55" class="edge">
<title>Node0&#45;&gt;Node29</title>
<path fill="none" stroke="#191970" d="M678.7858,-590.3505C570.5311,-586.5144 334.3914,-575.0088 259,-546 230.6114,-535.0768 203.3372,-512.467 186.6315,-496.7752"/>
<polygon fill="#191970" stroke="#191970" points="188.9437,-494.1424 179.321,-489.7092 184.0789,-499.1756 188.9437,-494.1424"/>
</g>
<!-- Node31 -->
<g id="node32" class="node">
<title>Node31</title>
<g id="a_node32"><a xlink:href="LinkState_8h.html" target="_top" xlink:title="iDynTree/Model/LinkState.h">
<polygon fill="none" stroke="#000000" points="532.5,-526.5 532.5,-545.5 681.5,-545.5 681.5,-526.5 532.5,-526.5"/>
<text text-anchor="middle" x="607" y="-533.5" font-family="FreeSans.ttf" font-size="10.00" fill="#000000">iDynTree/Model/LinkState.h</text>
</a>
</g>
</g>
<!-- Node0&#45;&gt;Node31 -->
<g id="edge58" class="edge">
<title>Node0&#45;&gt;Node31</title>
<path fill="none" stroke="#191970" d="M712.1679,-582.3733C691.6897,-573.3435 660.8601,-559.7494 637.8681,-549.6111"/>
<polygon fill="#191970" stroke="#191970" points="639.1093,-546.3333 628.5472,-545.5011 636.285,-552.7383 639.1093,-546.3333"/>
</g>
<!-- Node36 -->
<g id="node37" class="node">
<title>Node36</title>
<polygon fill="none" stroke="#bfbfbf" points="964.5,-470.5 964.5,-489.5 1011.5,-489.5 1011.5,-470.5 964.5,-470.5"/>
<text text-anchor="middle" x="988" y="-477.5" font-family="FreeSans.ttf" font-size="10.00" fill="#000000">vector</text>
</g>
<!-- Node0&#45;&gt;Node36 -->
<g id="edge78" class="edge">
<title>Node0&#45;&gt;Node36</title>
<path fill="none" stroke="#191970" d="M755.6559,-582.4509C800.7381,-562.5722 904.8033,-516.6852 956.9858,-493.6756"/>
<polygon fill="#191970" stroke="#191970" points="958.6611,-496.7621 966.3989,-489.5249 955.8368,-490.3571 958.6611,-496.7621"/>
</g>
<!-- Node37 -->
<g id="node38" class="node">
<title>Node37</title>
<g id="a_node38"><a xlink:href="JointState_8h.html" target="_top" xlink:title="iDynTree/Model/JointState.h">
<polygon fill="none" stroke="#000000" points="964.5,-526.5 964.5,-545.5 1115.5,-545.5 1115.5,-526.5 964.5,-526.5"/>
<text text-anchor="middle" x="1040" y="-533.5" font-family="FreeSans.ttf" font-size="10.00" fill="#000000">iDynTree/Model/JointState.h</text>
</a>
</g>
</g>
<!-- Node0&#45;&gt;Node37 -->
<g id="edge73" class="edge">
<title>Node0&#45;&gt;Node37</title>
<path fill="none" stroke="#191970" d="M786.2556,-582.4369C839.3953,-572.712 921.7222,-557.6456 978.0979,-547.3285"/>
<polygon fill="#191970" stroke="#191970" points="978.7534,-550.7667 987.9599,-545.5237 977.4932,-543.8811 978.7534,-550.7667"/>
</g>
<!-- Node2 -->
<g id="node3" class="node">
<title>Node2</title>
<g id="a_node3"><a xlink:href="Position_8h.html" target="_top" xlink:title="iDynTree/Core/Position.h">
<polygon fill="none" stroke="#000000" points="375,-291.5 375,-310.5 511,-310.5 511,-291.5 375,-291.5"/>
<text text-anchor="middle" x="443" y="-298.5" font-family="FreeSans.ttf" font-size="10.00" fill="#000000">iDynTree/Core/Position.h</text>
</a>
</g>
</g>
<!-- Node1&#45;&gt;Node2 -->
<g id="edge2" class="edge">
<title>Node1&#45;&gt;Node2</title>
<path fill="none" stroke="#191970" d="M451.2581,-347.2455C449.9533,-339.9382 448.124,-329.6944 446.5187,-320.7046"/>
<polygon fill="#191970" stroke="#191970" points="449.9254,-319.8717 444.7219,-310.6427 443.0344,-321.1022 449.9254,-319.8717"/>
</g>
<!-- Node17 -->
<g id="node18" class="node">
<title>Node17</title>
<polygon fill="none" stroke="#bfbfbf" points="288,-56.5 288,-75.5 332,-75.5 332,-56.5 288,-56.5"/>
<text text-anchor="middle" x="310" y="-63.5" font-family="FreeSans.ttf" font-size="10.00" fill="#000000">string</text>
</g>
<!-- Node1&#45;&gt;Node17 -->
<g id="edge40" class="edge">
<title>Node1&#45;&gt;Node17</title>
<path fill="none" stroke="#191970" d="M414.7541,-347.4871C326.0956,-324.473 111.7376,-262.9534 81,-199 63.4619,-162.5099 76.3348,-137.2274 108,-112 134.0003,-91.2857 227.7739,-76.5019 277.8893,-69.8843"/>
<polygon fill="#191970" stroke="#191970" points="278.4099,-73.3463 287.8807,-68.597 277.5153,-66.4037 278.4099,-73.3463"/>
</g>
<!-- Node20 -->
<g id="node21" class="node">
<title>Node20</title>
<g id="a_node21"><a xlink:href="Rotation_8h.html" target="_top" xlink:title="iDynTree/Core/Rotation.h">
<polygon fill="none" stroke="#000000" points="567.5,-235.5 567.5,-254.5 704.5,-254.5 704.5,-235.5 567.5,-235.5"/>
<text text-anchor="middle" x="636" y="-242.5" font-family="FreeSans.ttf" font-size="10.00" fill="#000000">iDynTree/Core/Rotation.h</text>
</a>
</g>
</g>
<!-- Node1&#45;&gt;Node20 -->
<g id="edge38" class="edge">
<title>Node1&#45;&gt;Node20</title>
<path fill="none" stroke="#191970" d="M478.0951,-347.428C498.8503,-339.0538 528.7474,-325.9184 553,-311 576.9024,-296.297 601.7669,-275.7038 617.9735,-261.4476"/>
<polygon fill="#191970" stroke="#191970" points="620.4772,-263.9043 625.6084,-254.6349 615.8167,-258.6814 620.4772,-263.9043"/>
</g>
<!-- Node23 -->
<g id="node24" class="node">
<title>Node23</title>
<g id="a_node24"><a xlink:href="MatrixFixSize_8h.html" target="_top" xlink:title="iDynTree/Core/MatrixFixSize.h">
<polygon fill="none" stroke="#000000" points="590.5,-112.5 590.5,-131.5 751.5,-131.5 751.5,-112.5 590.5,-112.5"/>
<text text-anchor="middle" x="671" y="-119.5" font-family="FreeSans.ttf" font-size="10.00" fill="#000000">iDynTree/Core/MatrixFixSize.h</text>
</a>
</g>
</g>
<!-- Node1&#45;&gt;Node23 -->
<g id="edge39" class="edge">
<title>Node1&#45;&gt;Node23</title>
<path fill="none" stroke="#191970" d="M471.9425,-347.3856C486.513,-339.252 506.3915,-326.465 520,-311 545.0804,-282.4981 529.763,-259.2194 559,-235 602.5362,-198.9355 647.151,-244.2802 681,-199 693.4322,-182.3693 687.2836,-157.8756 680.4131,-141.0017"/>
<polygon fill="#191970" stroke="#191970" points="683.4895,-139.3084 676.2015,-131.6184 677.1033,-142.1748 683.4895,-139.3084"/>
</g>
<!-- Node3 -->
<g id="node4" class="node">
<title>Node3</title>
<g id="a_node4"><a xlink:href="PositionRaw_8h.html" target="_top" xlink:title="iDynTree/Core/PositionRaw.h">
<polygon fill="none" stroke="#000000" points="302,-174 302,-193 458,-193 458,-174 302,-174"/>
<text text-anchor="middle" x="380" y="-181" font-family="FreeSans.ttf" font-size="10.00" fill="#000000">iDynTree/Core/PositionRaw.h</text>
</a>
</g>
</g>
<!-- Node2&#45;&gt;Node3 -->
<g id="edge3" class="edge">
<title>Node2&#45;&gt;Node3</title>
<path fill="none" stroke="#191970" d="M437.8444,-291.3845C427.4152,-271.9331 403.6525,-227.6138 390.0512,-202.2462"/>
<polygon fill="#191970" stroke="#191970" points="393.0368,-200.4076 385.2268,-193.2484 386.8676,-203.7154 393.0368,-200.4076"/>
</g>
<!-- Node2&#45;&gt;Node17 -->
<g id="edge37" class="edge">
<title>Node2&#45;&gt;Node17</title>
<path fill="none" stroke="#191970" d="M378.9358,-291.4845C288.0942,-276.533 129.0619,-244.4785 95,-199 41.96,-128.1824 205.7672,-86.4255 277.7995,-71.8737"/>
<polygon fill="#191970" stroke="#191970" points="278.5869,-75.286 287.7246,-69.9239 277.2375,-68.4173 278.5869,-75.286"/>
</g>
<!-- Node2&#45;&gt;Node20 -->
<g id="edge23" class="edge">
<title>Node2&#45;&gt;Node20</title>
<path fill="none" stroke="#191970" d="M476.1779,-291.3733C508.5487,-281.9807 557.9398,-267.6496 593.2424,-257.4064"/>
<polygon fill="#191970" stroke="#191970" points="594.6265,-260.6492 603.2551,-254.5011 592.6758,-253.9264 594.6265,-260.6492"/>
</g>
<!-- Node4 -->
<g id="node5" class="node">
<title>Node4</title>
<g id="a_node5"><a xlink:href="VectorFixSize_8h.html" target="_top" xlink:title="iDynTree/Core/VectorFixSize.h">
<polygon fill="none" stroke="#000000" points="808.5,-112.5 808.5,-131.5 969.5,-131.5 969.5,-112.5 808.5,-112.5"/>
<text text-anchor="middle" x="889" y="-119.5" font-family="FreeSans.ttf" font-size="10.00" fill="#000000">iDynTree/Core/VectorFixSize.h</text>
</a>
</g>
</g>
<!-- Node3&#45;&gt;Node4 -->
<g id="edge4" class="edge">
<title>Node3&#45;&gt;Node4</title>
<path fill="none" stroke="#191970" d="M456.3443,-173.9823C472.4133,-171.9933 489.2625,-169.9183 505,-168 605.4631,-155.754 720.7477,-141.9814 798.5711,-132.7254"/>
<polygon fill="#191970" stroke="#191970" points="799.3054,-136.1629 808.8222,-131.5066 798.4788,-129.2118 799.3054,-136.1629"/>
</g>
<!-- Node3&#45;&gt;Node17 -->
<g id="edge22" class="edge">
<title>Node3&#45;&gt;Node17</title>
<path fill="none" stroke="#191970" d="M374.2716,-173.8845C362.6323,-154.3471 336.0466,-109.7211 320.968,-84.4106"/>
<polygon fill="#191970" stroke="#191970" points="323.9325,-82.5481 315.8075,-75.7484 317.9188,-86.1307 323.9325,-82.5481"/>
</g>
<!-- Node5 -->
<g id="node6" class="node">
<title>Node5</title>
<g id="a_node6"><a xlink:href="Utils_8h.html" target="_top" xlink:title="iDynTree/Core/Utils.h">
<polygon fill="none" stroke="#000000" points="901.5,-56.5 901.5,-75.5 1020.5,-75.5 1020.5,-56.5 901.5,-56.5"/>
<text text-anchor="middle" x="961" y="-63.5" font-family="FreeSans.ttf" font-size="10.00" fill="#000000">iDynTree/Core/Utils.h</text>
</a>
</g>
</g>
<!-- Node4&#45;&gt;Node5 -->
<g id="edge5" class="edge">
<title>Node4&#45;&gt;Node5</title>
<path fill="none" stroke="#191970" d="M901.5414,-112.2455C912.2787,-103.8943 927.9473,-91.7076 940.5047,-81.9408"/>
<polygon fill="#191970" stroke="#191970" points="942.8575,-84.5449 948.6023,-75.6427 938.5599,-79.0194 942.8575,-84.5449"/>
</g>
<!-- Node8 -->
<g id="node9" class="node">
<title>Node8</title>
<g id="a_node9"><a xlink:href="Span_8h.html" target="_top" xlink:title="iDynTree/Core/Span.h">
<polygon fill="none" stroke="#000000" points="1120.5,-56.5 1120.5,-75.5 1241.5,-75.5 1241.5,-56.5 1120.5,-56.5"/>
<text text-anchor="middle" x="1181" y="-63.5" font-family="FreeSans.ttf" font-size="10.00" fill="#000000">iDynTree/Core/Span.h</text>
</a>
</g>
</g>
<!-- Node4&#45;&gt;Node8 -->
<g id="edge8" class="edge">
<title>Node4&#45;&gt;Node8</title>
<path fill="none" stroke="#191970" d="M938.8648,-112.4369C989.3633,-102.7522 1067.4835,-87.7703 1121.2605,-77.4569"/>
<polygon fill="#191970" stroke="#191970" points="1122.1791,-80.8446 1131.3409,-75.5237 1120.8606,-73.9699 1122.1791,-80.8446"/>
</g>
<!-- Node9 -->
<g id="node10" class="node">
<title>Node9</title>
<polygon fill="none" stroke="#bfbfbf" points="775,-.5 775,-19.5 827,-19.5 827,-.5 775,-.5"/>
<text text-anchor="middle" x="801" y="-7.5" font-family="FreeSans.ttf" font-size="10.00" fill="#000000">cassert</text>
</g>
<!-- Node4&#45;&gt;Node9 -->
<g id="edge20" class="edge">
<title>Node4&#45;&gt;Node9</title>
<path fill="none" stroke="#191970" d="M885.2341,-112.385C879.677,-98.9196 868.3686,-74.0698 854,-56 845.1136,-44.8246 833.257,-34.2414 823.0115,-26.05"/>
<polygon fill="#191970" stroke="#191970" points="824.938,-23.1156 814.8848,-19.7713 820.6583,-28.6549 824.938,-23.1156"/>
</g>
<!-- Node4&#45;&gt;Node17 -->
<g id="edge18" class="edge">
<title>Node4&#45;&gt;Node17</title>
<path fill="none" stroke="#191970" d="M808.4925,-114.2134C679.1847,-101.707 430.765,-77.6802 342.2789,-69.122"/>
<polygon fill="#191970" stroke="#191970" points="342.3523,-65.6128 332.0618,-68.1338 341.6784,-72.5803 342.3523,-65.6128"/>
</g>
<!-- Node18 -->
<g id="node19" class="node">
<title>Node18</title>
<polygon fill="none" stroke="#bfbfbf" points="721,-56.5 721,-75.5 777,-75.5 777,-56.5 721,-56.5"/>
<text text-anchor="middle" x="749" y="-63.5" font-family="FreeSans.ttf" font-size="10.00" fill="#000000">sstream</text>
</g>
<!-- Node4&#45;&gt;Node18 -->
<g id="edge19" class="edge">
<title>Node4&#45;&gt;Node18</title>
<path fill="none" stroke="#191970" d="M864.9331,-112.3733C842.1572,-103.2629 807.7656,-89.5062 782.351,-79.3404"/>
<polygon fill="#191970" stroke="#191970" points="783.3375,-75.9654 772.7528,-75.5011 780.7377,-82.4648 783.3375,-75.9654"/>
</g>
<!-- Node19 -->
<g id="node20" class="node">
<title>Node19</title>
<polygon fill="none" stroke="#bfbfbf" points="795,-56.5 795,-75.5 845,-75.5 845,-56.5 795,-56.5"/>
<text text-anchor="middle" x="820" y="-63.5" font-family="FreeSans.ttf" font-size="10.00" fill="#000000">cstring</text>
</g>
<!-- Node4&#45;&gt;Node19 -->
<g id="edge21" class="edge">
<title>Node4&#45;&gt;Node19</title>
<path fill="none" stroke="#191970" d="M876.9811,-112.2455C866.7902,-103.9746 851.9638,-91.9416 839.9893,-82.2232"/>
<polygon fill="#191970" stroke="#191970" points="841.8514,-79.2268 831.8812,-75.6427 837.4402,-84.662 841.8514,-79.2268"/>
</g>
<!-- Node6 -->
<g id="node7" class="node">
<title>Node6</title>
<polygon fill="none" stroke="#bfbfbf" points="943.5,-.5 943.5,-19.5 996.5,-19.5 996.5,-.5 943.5,-.5"/>
<text text-anchor="middle" x="970" y="-7.5" font-family="FreeSans.ttf" font-size="10.00" fill="#000000">cstddef</text>
</g>
<!-- Node5&#45;&gt;Node6 -->
<g id="edge6" class="edge">
<title>Node5&#45;&gt;Node6</title>
<path fill="none" stroke="#191970" d="M962.5677,-56.2455C963.7421,-48.9382 965.3884,-38.6944 966.8332,-29.7046"/>
<polygon fill="#191970" stroke="#191970" points="970.3191,-30.0714 968.4503,-19.6427 963.4078,-28.9606 970.3191,-30.0714"/>
</g>
<!-- Node7 -->
<g id="node8" class="node">
<title>Node7</title>
<polygon fill="none" stroke="#bfbfbf" points="845,-.5 845,-19.5 925,-19.5 925,-.5 845,-.5"/>
<text text-anchor="middle" x="885" y="-7.5" font-family="FreeSans.ttf" font-size="10.00" fill="#000000">CoreExport.h</text>
</g>
<!-- Node5&#45;&gt;Node7 -->
<g id="edge7" class="edge">
<title>Node5&#45;&gt;Node7</title>
<path fill="none" stroke="#191970" d="M947.7618,-56.2455C936.319,-47.814 919.5704,-35.4729 906.2525,-25.6598"/>
<polygon fill="#191970" stroke="#191970" points="908.2133,-22.757 898.0865,-19.6427 904.0609,-28.3924 908.2133,-22.757"/>
</g>
<!-- Node8&#45;&gt;Node6 -->
<g id="edge12" class="edge">
<title>Node8&#45;&gt;Node6</title>
<path fill="none" stroke="#191970" d="M1144.0886,-56.4566C1110.7211,-47.7942 1059.9933,-34.5375 1006.7019,-20.1641"/>
<polygon fill="#191970" stroke="#191970" points="1007.2918,-16.698 996.725,-17.4681 1005.4657,-23.4556 1007.2918,-16.698"/>
</g>
<!-- Node8&#45;&gt;Node9 -->
<g id="edge9" class="edge">
<title>Node8&#45;&gt;Node9</title>
<path fill="none" stroke="#191970" d="M1120.4077,-60.6198C1053.3199,-54.0597 941.8776,-41.378 837.3619,-20.0422"/>
<polygon fill="#191970" stroke="#191970" points="837.7732,-16.5531 827.2709,-17.9503 836.3522,-23.4074 837.7732,-16.5531"/>
</g>
<!-- Node10 -->
<g id="node11" class="node">
<title>Node10</title>
<polygon fill="none" stroke="#bfbfbf" points="1078,-.5 1078,-19.5 1142,-19.5 1142,-.5 1078,-.5"/>
<text text-anchor="middle" x="1110" y="-7.5" font-family="FreeSans.ttf" font-size="10.00" fill="#000000">algorithm</text>
</g>
<!-- Node8&#45;&gt;Node10 -->
<g id="edge10" class="edge">
<title>Node8&#45;&gt;Node10</title>
<path fill="none" stroke="#191970" d="M1168.6327,-56.2455C1158.0446,-47.8943 1142.5936,-35.7076 1130.2107,-25.9408"/>
<polygon fill="#191970" stroke="#191970" points="1132.2447,-23.0875 1122.2255,-19.6427 1127.9097,-28.5837 1132.2447,-23.0875"/>
</g>
<!-- Node11 -->
<g id="node12" class="node">
<title>Node11</title>
<polygon fill="none" stroke="#bfbfbf" points="1160,-.5 1160,-19.5 1202,-19.5 1202,-.5 1160,-.5"/>
<text text-anchor="middle" x="1181" y="-7.5" font-family="FreeSans.ttf" font-size="10.00" fill="#000000">array</text>
</g>
<!-- Node8&#45;&gt;Node11 -->
<g id="edge11" class="edge">
<title>Node8&#45;&gt;Node11</title>
<path fill="none" stroke="#191970" d="M1181,-56.2455C1181,-48.9382 1181,-38.6944 1181,-29.7046"/>
<polygon fill="#191970" stroke="#191970" points="1184.5001,-29.6426 1181,-19.6427 1177.5001,-29.6427 1184.5001,-29.6426"/>
</g>
<!-- Node12 -->
<g id="node13" class="node">
<title>Node12</title>
<polygon fill="none" stroke="#bfbfbf" points="1220.5,-.5 1220.5,-19.5 1273.5,-19.5 1273.5,-.5 1220.5,-.5"/>
<text text-anchor="middle" x="1247" y="-7.5" font-family="FreeSans.ttf" font-size="10.00" fill="#000000">iterator</text>
</g>
<!-- Node8&#45;&gt;Node12 -->
<g id="edge13" class="edge">
<title>Node8&#45;&gt;Node12</title>
<path fill="none" stroke="#191970" d="M1192.4963,-56.2455C1202.2442,-47.9746 1216.4259,-35.9416 1227.8798,-26.2232"/>
<polygon fill="#191970" stroke="#191970" points="1230.2747,-28.7813 1235.6354,-19.6427 1225.7459,-23.4437 1230.2747,-28.7813"/>
</g>
<!-- Node13 -->
<g id="node14" class="node">
<title>Node13</title>
<polygon fill="none" stroke="#bfbfbf" points="1292,-.5 1292,-19.5 1336,-19.5 1336,-.5 1292,-.5"/>
<text text-anchor="middle" x="1314" y="-7.5" font-family="FreeSans.ttf" font-size="10.00" fill="#000000">limits</text>
</g>
<!-- Node8&#45;&gt;Node13 -->
<g id="edge14" class="edge">
<title>Node8&#45;&gt;Node13</title>
<path fill="none" stroke="#191970" d="M1203.8635,-56.3733C1225.5355,-47.2482 1258.2779,-33.462 1282.4331,-23.2913"/>
<polygon fill="#191970" stroke="#191970" points="1284.0186,-26.4214 1291.8768,-19.315 1281.3022,-19.9699 1284.0186,-26.4214"/>
</g>
<!-- Node14 -->
<g id="node15" class="node">
<title>Node14</title>
<polygon fill="none" stroke="#bfbfbf" points="1354.5,-.5 1354.5,-19.5 1419.5,-19.5 1419.5,-.5 1354.5,-.5"/>
<text text-anchor="middle" x="1387" y="-7.5" font-family="FreeSans.ttf" font-size="10.00" fill="#000000">stdexcept</text>
</g>
<!-- Node8&#45;&gt;Node14 -->
<g id="edge15" class="edge">
<title>Node8&#45;&gt;Node14</title>
<path fill="none" stroke="#191970" d="M1216.4127,-56.3733C1251.9997,-46.6991 1306.8589,-31.7859 1344.7097,-21.4964"/>
<polygon fill="#191970" stroke="#191970" points="1345.6919,-24.8565 1354.4235,-18.8557 1343.8556,-18.1016 1345.6919,-24.8565"/>
</g>
<!-- Node15 -->
<g id="node16" class="node">
<title>Node15</title>
<polygon fill="none" stroke="#bfbfbf" points="1437.5,-.5 1437.5,-19.5 1506.5,-19.5 1506.5,-.5 1437.5,-.5"/>
<text text-anchor="middle" x="1472" y="-7.5" font-family="FreeSans.ttf" font-size="10.00" fill="#000000">type_traits</text>
</g>
<!-- Node8&#45;&gt;Node15 -->
<g id="edge16" class="edge">
<title>Node8&#45;&gt;Node15</title>
<path fill="none" stroke="#191970" d="M1236.2999,-56.4792C1284.3897,-48.0329 1356.1826,-35.0243 1427.2721,-20.3008"/>
<polygon fill="#191970" stroke="#191970" points="1428.2202,-23.6786 1437.2959,-18.2122 1426.7922,-16.8257 1428.2202,-23.6786"/>
</g>
<!-- Node16 -->
<g id="node17" class="node">
<title>Node16</title>
<polygon fill="none" stroke="#bfbfbf" points="1014.5,-.5 1014.5,-19.5 1059.5,-19.5 1059.5,-.5 1014.5,-.5"/>
<text text-anchor="middle" x="1037" y="-7.5" font-family="FreeSans.ttf" font-size="10.00" fill="#000000">utility</text>
</g>
<!-- Node8&#45;&gt;Node16 -->
<g id="edge17" class="edge">
<title>Node8&#45;&gt;Node16</title>
<path fill="none" stroke="#191970" d="M1156.2455,-56.3733C1132.1447,-47.0007 1095.399,-32.7107 1069.0707,-22.472"/>
<polygon fill="#191970" stroke="#191970" points="1070.127,-19.1274 1059.5383,-18.7649 1067.5898,-25.6514 1070.127,-19.1274"/>
</g>
<!-- Node20&#45;&gt;Node4 -->
<g id="edge36" class="edge">
<title>Node20&#45;&gt;Node4</title>
<path fill="none" stroke="#191970" d="M655.8525,-235.3484C700.3759,-213.7026 808.3516,-161.2085 860.2331,-135.9855"/>
<polygon fill="#191970" stroke="#191970" points="861.7766,-139.1269 869.2397,-131.6068 858.7159,-132.8314 861.7766,-139.1269"/>
</g>
<!-- Node20&#45;&gt;Node17 -->
<g id="edge24" class="edge">
<title>Node20&#45;&gt;Node17</title>
<path fill="none" stroke="#191970" d="M567.1737,-240.5681C472.2431,-233.7434 310.7526,-219.2923 293,-199 265.0303,-167.0288 285.574,-113.0569 299.6797,-84.6952"/>
<polygon fill="#191970" stroke="#191970" points="302.7927,-86.2949 304.3104,-75.8094 296.5851,-83.0598 302.7927,-86.2949"/>
</g>
<!-- Node21 -->
<g id="node22" class="node">
<title>Node21</title>
<g id="a_node22"><a xlink:href="GeomVector3_8h.html" target="_top" xlink:title="iDynTree/Core/GeomVector3.h">
<polygon fill="none" stroke="#000000" points="804.5,-174 804.5,-193 967.5,-193 967.5,-174 804.5,-174"/>
<text text-anchor="middle" x="886" y="-181" font-family="FreeSans.ttf" font-size="10.00" fill="#000000">iDynTree/Core/GeomVector3.h</text>
</a>
</g>
</g>
<!-- Node20&#45;&gt;Node21 -->
<g id="edge25" class="edge">
<title>Node20&#45;&gt;Node21</title>
<path fill="none" stroke="#191970" d="M674.7882,-235.4581C718.5784,-224.6857 789.8909,-207.1428 837.3696,-195.4631"/>
<polygon fill="#191970" stroke="#191970" points="838.2464,-198.8518 847.1208,-193.0643 836.5742,-192.0545 838.2464,-198.8518"/>
</g>
<!-- Node22 -->
<g id="node23" class="node">
<title>Node22</title>
<g id="a_node23"><a xlink:href="RotationRaw_8h.html" target="_top" xlink:title="iDynTree/Core/RotationRaw.h">
<polygon fill="none" stroke="#000000" points="514,-174 514,-193 672,-193 672,-174 514,-174"/>
<text text-anchor="middle" x="593" y="-181" font-family="FreeSans.ttf" font-size="10.00" fill="#000000">iDynTree/Core/RotationRaw.h</text>
</a>
</g>
</g>
<!-- Node20&#45;&gt;Node22 -->
<g id="edge27" class="edge">
<title>Node20&#45;&gt;Node22</title>
<path fill="none" stroke="#191970" d="M629.2813,-235.3906C623.007,-226.417 613.4777,-212.7879 605.7596,-201.7491"/>
<polygon fill="#191970" stroke="#191970" points="608.4121,-199.4348 599.8135,-193.2449 602.6753,-203.4459 608.4121,-199.4348"/>
</g>
<!-- Node21&#45;&gt;Node4 -->
<g id="edge26" class="edge">
<title>Node21&#45;&gt;Node4</title>
<path fill="none" stroke="#191970" d="M886.4688,-173.8906C886.8846,-165.3657 887.5054,-152.6392 888.0281,-141.9235"/>
<polygon fill="#191970" stroke="#191970" points="891.5332,-141.9035 888.5246,-131.7449 884.5415,-141.5624 891.5332,-141.9035"/>
</g>
<!-- Node22&#45;&gt;Node17 -->
<g id="edge35" class="edge">
<title>Node22&#45;&gt;Node17</title>
<path fill="none" stroke="#191970" d="M569.8409,-173.8845C519.301,-152.9006 399.0567,-102.9758 341.6107,-79.1246"/>
<polygon fill="#191970" stroke="#191970" points="342.8747,-75.8597 332.297,-75.2576 340.1904,-82.3247 342.8747,-75.8597"/>
</g>
<!-- Node22&#45;&gt;Node23 -->
<g id="edge28" class="edge">
<title>Node22&#45;&gt;Node23</title>
<path fill="none" stroke="#191970" d="M605.1875,-173.8906C617.437,-164.2324 636.5263,-149.1812 650.9977,-137.771"/>
<polygon fill="#191970" stroke="#191970" points="653.2124,-140.4819 658.8981,-131.5419 648.8783,-134.985 653.2124,-140.4819"/>
</g>
<!-- Node23&#45;&gt;Node5 -->
<g id="edge29" class="edge">
<title>Node23&#45;&gt;Node5</title>
<path fill="none" stroke="#191970" d="M720.5233,-112.4369C770.6759,-102.7522 848.261,-87.7703 901.6697,-77.4569"/>
<polygon fill="#191970" stroke="#191970" points="902.526,-80.8563 911.681,-75.5237 901.1987,-73.9832 902.526,-80.8563"/>
</g>
<!-- Node23&#45;&gt;Node9 -->
<g id="edge30" class="edge">
<title>Node23&#45;&gt;Node9</title>
<path fill="none" stroke="#191970" d="M674.9801,-112.3603C681.1423,-98.4139 694.1678,-72.4791 712,-56 727.4126,-41.7569 748.067,-30.7215 765.5984,-23.034"/>
<polygon fill="#191970" stroke="#191970" points="767.0941,-26.2022 774.9637,-19.1085 764.3881,-19.7463 767.0941,-26.2022"/>
</g>
<!-- Node23&#45;&gt;Node17 -->
<g id="edge32" class="edge">
<title>Node23&#45;&gt;Node17</title>
<path fill="none" stroke="#191970" d="M609.3521,-112.4369C532.0333,-100.4428 402.3374,-80.3238 342.2992,-71.0104"/>
<polygon fill="#191970" stroke="#191970" points="342.683,-67.5282 332.2646,-69.4538 341.6099,-74.4454 342.683,-67.5282"/>
</g>
<!-- Node23&#45;&gt;Node18 -->
<g id="edge34" class="edge">
<title>Node23&#45;&gt;Node18</title>
<path fill="none" stroke="#191970" d="M684.5866,-112.2455C696.3305,-103.814 713.5199,-91.4729 727.1882,-81.6598"/>
<polygon fill="#191970" stroke="#191970" points="729.4871,-84.3179 735.5691,-75.6427 725.4046,-78.6316 729.4871,-84.3179"/>
</g>
<!-- Node23&#45;&gt;Node19 -->
<g id="edge31" class="edge">
<title>Node23&#45;&gt;Node19</title>
<path fill="none" stroke="#191970" d="M696.614,-112.3733C721.0687,-103.1822 758.1054,-89.2624 785.2209,-79.0713"/>
<polygon fill="#191970" stroke="#191970" points="786.5909,-82.2956 794.7202,-75.5011 784.1281,-75.7431 786.5909,-82.2956"/>
</g>
<!-- Node24 -->
<g id="node25" class="node">
<title>Node24</title>
<polygon fill="none" stroke="#bfbfbf" points="521,-56.5 521,-75.5 581,-75.5 581,-56.5 521,-56.5"/>
<text text-anchor="middle" x="551" y="-63.5" font-family="FreeSans.ttf" font-size="10.00" fill="#000000">iostream</text>
</g>
<!-- Node23&#45;&gt;Node24 -->
<g id="edge33" class="edge">
<title>Node23&#45;&gt;Node24</title>
<path fill="none" stroke="#191970" d="M650.3713,-112.3733C631.1081,-103.3838 602.1514,-89.8706 580.4581,-79.7471"/>
<polygon fill="#191970" stroke="#191970" points="581.9015,-76.5584 571.3595,-75.5011 578.9413,-82.9017 581.9015,-76.5584"/>
</g>
<!-- Node26 -->
<g id="node27" class="node">
<title>Node26</title>
<g id="a_node27"><a xlink:href="SpatialMotionVector_8h.html" target="_top" xlink:title="iDynTree/Core/SpatialMotion\lVector.h">
<polygon fill="none" stroke="#000000" points="660.5,-403.5 660.5,-433.5 815.5,-433.5 815.5,-403.5 660.5,-403.5"/>
<text text-anchor="start" x="668.5" y="-421.5" font-family="FreeSans.ttf" font-size="10.00" fill="#000000">iDynTree/Core/SpatialMotion</text>
<text text-anchor="middle" x="738" y="-410.5" font-family="FreeSans.ttf" font-size="10.00" fill="#000000">Vector.h</text>
</a>
</g>
</g>
<!-- Node25&#45;&gt;Node26 -->
<g id="edge42" class="edge">
<title>Node25&#45;&gt;Node26</title>
<path fill="none" stroke="#191970" d="M734.625,-470.3906C735.0912,-463.2234 735.7505,-453.0862 736.3629,-443.671"/>
<polygon fill="#191970" stroke="#191970" points="739.865,-443.7507 737.0215,-433.5446 732.8797,-443.2963 739.865,-443.7507"/>
</g>
<!-- Node26&#45;&gt;Node4 -->
<g id="edge43" class="edge">
<title>Node26&#45;&gt;Node4</title>
<path fill="none" stroke="#191970" d="M782.2544,-403.4348C803.5069,-394.8485 828.522,-382.6521 848,-367 921.3823,-308.0317 946.725,-288.1384 977,-199 981.4309,-185.9541 984.1375,-179.7849 977,-168 967.8174,-152.8386 951.8152,-142.4355 935.9528,-135.4143"/>
<polygon fill="#191970" stroke="#191970" points="937.2647,-132.1695 926.682,-131.6607 934.6376,-138.6579 937.2647,-132.1695"/>
</g>
<!-- Node26&#45;&gt;Node21 -->
<g id="edge44" class="edge">
<title>Node26&#45;&gt;Node21</title>
<path fill="none" stroke="#191970" d="M778.4628,-403.2886C795.8617,-394.9359 815.118,-382.9759 828,-367 868.1191,-317.2455 880.6664,-239.3853 884.4462,-203.2059"/>
<polygon fill="#191970" stroke="#191970" points="887.953,-203.2922 885.3891,-193.0123 880.9828,-202.6474 887.953,-203.2922"/>
</g>
<!-- Node27 -->
<g id="node28" class="node">
<title>Node27</title>
<g id="a_node28"><a xlink:href="SpatialVector_8h.html" target="_top" xlink:title="iDynTree/Core/SpatialVector.h">
<polygon fill="none" stroke="#000000" points="657.5,-347.5 657.5,-366.5 818.5,-366.5 818.5,-347.5 657.5,-347.5"/>
<text text-anchor="middle" x="738" y="-354.5" font-family="FreeSans.ttf" font-size="10.00" fill="#000000">iDynTree/Core/SpatialVector.h</text>
</a>
</g>
</g>
<!-- Node26&#45;&gt;Node27 -->
<g id="edge45" class="edge">
<title>Node26&#45;&gt;Node27</title>
<path fill="none" stroke="#191970" d="M738,-403.2977C738,-395.3834 738,-385.6043 738,-377.0759"/>
<polygon fill="#191970" stroke="#191970" points="741.5001,-376.8469 738,-366.8469 734.5001,-376.847 741.5001,-376.8469"/>
</g>
<!-- Node27&#45;&gt;Node2 -->
<g id="edge46" class="edge">
<title>Node27&#45;&gt;Node2</title>
<path fill="none" stroke="#191970" d="M687.6229,-347.4369C636.4995,-337.7321 557.3545,-322.708 503.0147,-312.3926"/>
<polygon fill="#191970" stroke="#191970" points="503.6467,-308.9502 493.1693,-310.5237 502.3411,-315.8273 503.6467,-308.9502"/>
</g>
<!-- Node27&#45;&gt;Node5 -->
<g id="edge48" class="edge">
<title>Node27&#45;&gt;Node5</title>
<path fill="none" stroke="#191970" d="M768.2951,-347.3723C821.6341,-328.6034 931.008,-281.5607 977,-199 997.2724,-162.6088 981.3438,-112.0319 969.9479,-84.9354"/>
<polygon fill="#191970" stroke="#191970" points="973.1406,-83.5011 965.8872,-75.7786 966.7416,-86.3389 973.1406,-83.5011"/>
</g>
<!-- Node27&#45;&gt;Node18 -->
<g id="edge51" class="edge">
<title>Node27&#45;&gt;Node18</title>
<path fill="none" stroke="#191970" d="M739.3683,-347.1583C743.6472,-315.8224 756.7419,-215.5282 761,-132 761.4526,-123.1226 762.1311,-120.8166 761,-112 759.8609,-103.1204 757.5327,-93.5073 755.2277,-85.3763"/>
<polygon fill="#191970" stroke="#191970" points="758.5552,-84.2881 752.3127,-75.7276 751.8543,-86.3125 758.5552,-84.2881"/>
</g>
<!-- Node27&#45;&gt;Node20 -->
<g id="edge47" class="edge">
<title>Node27&#45;&gt;Node20</title>
<path fill="none" stroke="#191970" d="M729.3035,-347.4509C712.0653,-328.5227 673.3521,-286.014 651.5986,-262.1279"/>
<polygon fill="#191970" stroke="#191970" points="653.9955,-259.5617 644.6745,-254.5249 648.8201,-264.275 653.9955,-259.5617"/>
</g>
<!-- Node27&#45;&gt;Node21 -->
<g id="edge49" class="edge">
<title>Node27&#45;&gt;Node21</title>
<path fill="none" stroke="#191970" d="M746.1679,-347.4248C770.067,-319.4079 840.1147,-237.2912 871.0363,-201.0418"/>
<polygon fill="#191970" stroke="#191970" points="873.8478,-203.139 877.6749,-193.2595 868.5222,-198.5961 873.8478,-203.139"/>
</g>
<!-- Node27&#45;&gt;Node24 -->
<g id="edge50" class="edge">
<title>Node27&#45;&gt;Node24</title>
<path fill="none" stroke="#191970" d="M704.2477,-347.3697C648.3458,-329.2353 539.2982,-283.9799 505,-199 488.6403,-158.4659 517.6128,-109.63 536.5464,-83.8924"/>
<polygon fill="#191970" stroke="#191970" points="539.4383,-85.8727 542.7341,-75.8035 533.8784,-81.6196 539.4383,-85.8727"/>
</g>
<!-- Node28&#45;&gt;Node8 -->
<g id="edge53" class="edge">
<title>Node28&#45;&gt;Node8</title>
<path fill="none" stroke="#191970" d="M1219.3824,-291.4967C1213.4152,-256.4391 1192.5591,-133.9096 1184.3532,-85.7"/>
<polygon fill="#191970" stroke="#191970" points="1187.7662,-84.8925 1182.6377,-75.6216 1180.8654,-86.0671 1187.7662,-84.8925"/>
</g>
<!-- Node28&#45;&gt;Node17 -->
<g id="edge54" class="edge">
<title>Node28&#45;&gt;Node17</title>
<path fill="none" stroke="#191970" d="M1208.1066,-291.4384C1173.1126,-266.0728 1072.5548,-197.0331 977,-168 808.3306,-116.7519 755.9043,-160.8623 582,-132 494.0997,-117.4115 392.5707,-89.8603 342.0346,-75.4008"/>
<polygon fill="#191970" stroke="#191970" points="342.9151,-72.0122 332.3369,-72.6073 340.9773,-78.7387 342.9151,-72.0122"/>
</g>
<!-- Node29&#45;&gt;Node17 -->
<g id="edge56" class="edge">
<title>Node29&#45;&gt;Node17</title>
<path fill="none" stroke="#191970" d="M130.9986,-470.3836C80.8088,-455.4021 0,-421.2971 0,-357 0,-357 0,-357 0,-183.5 0,-134.4734 39.9181,-133.4568 84,-112 148.1606,-80.7699 232.5145,-70.7287 277.8535,-67.51"/>
<polygon fill="#191970" stroke="#191970" points="278.22,-70.9938 287.9751,-66.86 277.7713,-64.0082 278.22,-70.9938"/>
</g>
<!-- Node30 -->
<g id="node31" class="node">
<title>Node30</title>
<polygon fill="none" stroke="#bfbfbf" points="121,-409 121,-428 207,-428 207,-409 121,-409"/>
<text text-anchor="middle" x="164" y="-416" font-family="FreeSans.ttf" font-size="10.00" fill="#000000">ModelExport.h</text>
</g>
<!-- Node29&#45;&gt;Node30 -->
<g id="edge57" class="edge">
<title>Node29&#45;&gt;Node30</title>
<path fill="none" stroke="#191970" d="M169.0625,-470.3906C168.2308,-461.8657 166.9892,-449.1392 165.9438,-438.4235"/>
<polygon fill="#191970" stroke="#191970" points="169.4053,-437.8577 164.9507,-428.2449 162.4383,-438.5375 169.4053,-437.8577"/>
</g>
<!-- Node31&#45;&gt;Node1 -->
<g id="edge59" class="edge">
<title>Node31&#45;&gt;Node1</title>
<path fill="none" stroke="#191970" d="M562.6933,-526.4707C540.6147,-519.6621 515.0598,-508.3546 498,-490 468.2452,-457.987 458.0958,-405.5759 454.685,-377.0429"/>
<polygon fill="#191970" stroke="#191970" points="458.1287,-376.3149 453.6253,-366.7248 451.1654,-377.0301 458.1287,-376.3149"/>
</g>
<!-- Node31&#45;&gt;Node25 -->
<g id="edge60" class="edge">
<title>Node31&#45;&gt;Node25</title>
<path fill="none" stroke="#191970" d="M628.8321,-526.3733C649.3103,-517.3435 680.1399,-503.7494 703.1319,-493.6111"/>
<polygon fill="#191970" stroke="#191970" points="704.715,-496.7383 712.4528,-489.5011 701.8907,-490.3333 704.715,-496.7383"/>
</g>
<!-- Node31&#45;&gt;Node29 -->
<g id="edge71" class="edge">
<title>Node31&#45;&gt;Node29</title>
<path fill="none" stroke="#191970" d="M532.3736,-526.4369C453.5912,-516.3412 329.8872,-500.489 249.3599,-490.1697"/>
<polygon fill="#191970" stroke="#191970" points="249.6351,-486.6764 239.2713,-488.8769 248.7453,-493.6196 249.6351,-486.6764"/>
</g>
<!-- Node32 -->
<g id="node33" class="node">
<title>Node32</title>
<g id="a_node33"><a xlink:href="SpatialAcc_8h.html" target="_top" xlink:title="iDynTree/Core/SpatialAcc.h">
<polygon fill="none" stroke="#000000" points="507,-470.5 507,-489.5 655,-489.5 655,-470.5 507,-470.5"/>
<text text-anchor="middle" x="581" y="-477.5" font-family="FreeSans.ttf" font-size="10.00" fill="#000000">iDynTree/Core/SpatialAcc.h</text>
</a>
</g>
</g>
<!-- Node31&#45;&gt;Node32 -->
<g id="edge61" class="edge">
<title>Node31&#45;&gt;Node32</title>
<path fill="none" stroke="#191970" d="M602.4711,-526.2455C598.9666,-518.6973 594.0073,-508.0158 589.7377,-498.8197"/>
<polygon fill="#191970" stroke="#191970" points="592.8627,-497.2389 585.477,-489.6427 586.5136,-500.1867 592.8627,-497.2389"/>
</g>
<!-- Node33 -->
<g id="node34" class="node">
<title>Node33</title>
<g id="a_node34"><a xlink:href="Wrench_8h.html" target="_top" xlink:title="iDynTree/Core/Wrench.h">
<polygon fill="none" stroke="#000000" points="813.5,-470.5 813.5,-489.5 946.5,-489.5 946.5,-470.5 813.5,-470.5"/>
<text text-anchor="middle" x="880" y="-477.5" font-family="FreeSans.ttf" font-size="10.00" fill="#000000">iDynTree/Core/Wrench.h</text>
</a>
</g>
</g>
<!-- Node31&#45;&gt;Node33 -->
<g id="edge63" class="edge">
<title>Node31&#45;&gt;Node33</title>
<path fill="none" stroke="#191970" d="M653.6202,-526.4369C700.6365,-516.7925 773.2629,-501.8948 823.5193,-491.5858"/>
<polygon fill="#191970" stroke="#191970" points="824.4794,-494.9618 833.5721,-489.5237 823.0727,-488.1046 824.4794,-494.9618"/>
</g>
<!-- Node35 -->
<g id="node36" class="node">
<title>Node35</title>
<g id="a_node36"><a xlink:href="ArticulatedBodyInertia_8h.html" target="_top" xlink:title="iDynTree/Core/Articulated\lBodyInertia.h">
<polygon fill="none" stroke="#000000" points="104.5,-168.5 104.5,-198.5 245.5,-198.5 245.5,-168.5 104.5,-168.5"/>
<text text-anchor="start" x="112.5" y="-186.5" font-family="FreeSans.ttf" font-size="10.00" fill="#000000">iDynTree/Core/Articulated</text>
<text text-anchor="middle" x="175" y="-175.5" font-family="FreeSans.ttf" font-size="10.00" fill="#000000">BodyInertia.h</text>
</a>
</g>
</g>
<!-- Node31&#45;&gt;Node35 -->
<g id="edge68" class="edge">
<title>Node31&#45;&gt;Node35</title>
<path fill="none" stroke="#191970" d="M567.1708,-526.4569C541.0523,-519.0585 506.8902,-507.1478 480,-490 351.4281,-408.0099 234.8618,-263.1568 192.2002,-206.8255"/>
<polygon fill="#191970" stroke="#191970" points="194.8018,-204.4613 185.9973,-198.5679 189.2049,-208.6655 194.8018,-204.4613"/>
</g>
<!-- Node31&#45;&gt;Node36 -->
<g id="edge72" class="edge">
<title>Node31&#45;&gt;Node36</title>
<path fill="none" stroke="#191970" d="M681.513,-529.9177C750.3242,-523.4517 855.4104,-511.4289 954.481,-490.0528"/>
<polygon fill="#191970" stroke="#191970" points="955.3389,-493.4479 964.3565,-487.886 953.8388,-486.6105 955.3389,-493.4479"/>
</g>
<!-- Node32&#45;&gt;Node26 -->
<g id="edge62" class="edge">
<title>Node32&#45;&gt;Node26</title>
<path fill="none" stroke="#191970" d="M605.5313,-470.3906C628.0581,-461.5664 662.0773,-448.2404 690,-437.3026"/>
<polygon fill="#191970" stroke="#191970" points="691.559,-440.4509 699.5935,-433.5446 689.0058,-433.9331 691.559,-440.4509"/>
</g>
<!-- Node34 -->
<g id="node35" class="node">
<title>Node34</title>
<g id="a_node35"><a xlink:href="SpatialForceVector_8h.html" target="_top" xlink:title="iDynTree/Core/SpatialForce\lVector.h">
<polygon fill="none" stroke="#000000" points="922,-403.5 922,-433.5 1070,-433.5 1070,-403.5 922,-403.5"/>
<text text-anchor="start" x="930" y="-421.5" font-family="FreeSans.ttf" font-size="10.00" fill="#000000">iDynTree/Core/SpatialForce</text>
<text text-anchor="middle" x="996" y="-410.5" font-family="FreeSans.ttf" font-size="10.00" fill="#000000">Vector.h</text>
</a>
</g>
</g>
<!-- Node33&#45;&gt;Node34 -->
<g id="edge64" class="edge">
<title>Node33&#45;&gt;Node34</title>
<path fill="none" stroke="#191970" d="M898.125,-470.3906C914.2603,-461.8361 938.3755,-449.0509 958.6309,-438.3121"/>
<polygon fill="#191970" stroke="#191970" points="960.4276,-441.3211 967.6232,-433.5446 957.1486,-435.1365 960.4276,-441.3211"/>
</g>
<!-- Node34&#45;&gt;Node4 -->
<g id="edge65" class="edge">
<title>Node34&#45;&gt;Node4</title>
<path fill="none" stroke="#191970" d="M1014.0109,-403.4232C1036.4852,-382.8121 1072,-343.5155 1072,-301 1072,-301 1072,-301 1072,-245 1072,-209.154 1073.6058,-193.0855 1048,-168 1033.9618,-154.2471 989.536,-142.0589 951.2013,-133.6894"/>
<polygon fill="#191970" stroke="#191970" points="951.6059,-130.1971 941.0963,-131.5387 950.1486,-137.0438 951.6059,-130.1971"/>
</g>
<!-- Node34&#45;&gt;Node21 -->
<g id="edge66" class="edge">
<title>Node34&#45;&gt;Node21</title>
<path fill="none" stroke="#191970" d="M988.9517,-403.4422C969.6834,-362.2781 916.1527,-247.9171 894.8808,-202.4726"/>
<polygon fill="#191970" stroke="#191970" points="897.9379,-200.7477 890.5285,-193.1746 891.5981,-203.7153 897.9379,-200.7477"/>
</g>
<!-- Node34&#45;&gt;Node27 -->
<g id="edge67" class="edge">
<title>Node34&#45;&gt;Node27</title>
<path fill="none" stroke="#191970" d="M932.8861,-403.4554C888.2333,-392.8114 829.1834,-378.7356 787.8308,-368.8783"/>
<polygon fill="#191970" stroke="#191970" points="788.5199,-365.4445 777.9808,-366.5303 786.8967,-372.2538 788.5199,-365.4445"/>
</g>
<!-- Node35&#45;&gt;Node17 -->
<g id="edge70" class="edge">
<title>Node35&#45;&gt;Node17</title>
<path fill="none" stroke="#191970" d="M192.3725,-168.3795C217.8191,-146.2315 265.0403,-105.1316 291.2484,-82.3209"/>
<polygon fill="#191970" stroke="#191970" points="293.7197,-84.81 298.9649,-75.6046 289.124,-79.5298 293.7197,-84.81"/>
</g>
<!-- Node35&#45;&gt;Node23 -->
<g id="edge69" class="edge">
<title>Node35&#45;&gt;Node23</title>
<path fill="none" stroke="#191970" d="M245.8071,-174.0877C261.352,-172.0525 277.7285,-169.9322 293,-168 391.389,-155.5517 504.2685,-141.8967 580.87,-132.7239"/>
<polygon fill="#191970" stroke="#191970" points="581.4505,-136.1795 590.9638,-131.516 580.6187,-129.2291 581.4505,-136.1795"/>
</g>
<!-- Node37&#45;&gt;Node4 -->
<g id="edge74" class="edge">
<title>Node37&#45;&gt;Node4</title>
<path fill="none" stroke="#191970" d="M1050.6315,-526.4806C1070.2138,-507.8398 1110,-464.3277 1110,-418.5 1110,-418.5 1110,-418.5 1110,-301 1110,-239.5235 1116.1611,-210.7686 1072,-168 1056.4449,-152.9354 1008.1524,-141.1625 965.0829,-133.299"/>
<polygon fill="#191970" stroke="#191970" points="965.589,-129.8342 955.1313,-131.5329 964.3658,-136.7265 965.589,-129.8342"/>
</g>
<!-- Node37&#45;&gt;Node28 -->
<g id="edge75" class="edge">
<title>Node37&#45;&gt;Node28</title>
<path fill="none" stroke="#191970" d="M1066.1094,-526.4987C1084.1628,-518.8728 1107.7626,-506.6791 1124,-490 1127.3031,-486.607 1187.7656,-366.9579 1211.5257,-319.8166"/>
<polygon fill="#191970" stroke="#191970" points="1214.7524,-321.1907 1216.126,-310.6853 1208.501,-318.0412 1214.7524,-321.1907"/>
</g>
<!-- Node37&#45;&gt;Node34 -->
<g id="edge76" class="edge">
<title>Node37&#45;&gt;Node34</title>
<path fill="none" stroke="#191970" d="M1037.7942,-526.4331C1034.6759,-513.4421 1028.5127,-489.5949 1021,-470 1017.4843,-460.8301 1012.958,-451.0664 1008.725,-442.5334"/>
<polygon fill="#191970" stroke="#191970" points="1011.7935,-440.846 1004.14,-433.5196 1005.5542,-444.0197 1011.7935,-440.846"/>
</g>
<!-- Node37&#45;&gt;Node36 -->
<g id="edge77" class="edge">
<title>Node37&#45;&gt;Node36</title>
<path fill="none" stroke="#191970" d="M1030.9423,-526.2455C1023.4858,-518.2155 1012.7366,-506.6394 1003.8583,-497.0781"/>
<polygon fill="#191970" stroke="#191970" points="1006.3232,-494.589 996.9539,-489.6427 1001.1937,-499.3522 1006.3232,-494.589"/>
</g>
</g>
</svg>
