<?xml version="1.0" encoding="UTF-8" standalone="no"?>
<!DOCTYPE svg PUBLIC "-//W3C//DTD SVG 1.1//EN"
 "http://www.w3.org/Graphics/SVG/1.1/DTD/svg11.dtd">
<!-- Generated by graphviz version 2.40.1 (20161225.0304)
 -->
<!-- Title: GeometryElement.cpp Pages: 1 -->
<svg width="1699pt" height="476pt"
 viewBox="0.00 0.00 1698.50 476.00" xmlns="http://www.w3.org/2000/svg" xmlns:xlink="http://www.w3.org/1999/xlink">
<g id="graph0" class="graph" transform="scale(1 1) rotate(0) translate(4 472)">
<title>GeometryElement.cpp</title>
<!-- Node0 -->
<g id="node1" class="node">
<title>Node0</title>
<polygon fill="#bfbfbf" stroke="#000000" points="436.5,-448.5 436.5,-467.5 562.5,-467.5 562.5,-448.5 436.5,-448.5"/>
<text text-anchor="middle" x="499.5" y="-455.5" font-family="FreeSans.ttf" font-size="10.00" fill="#000000">GeometryElement.cpp</text>
</g>
<!-- Node1 -->
<g id="node2" class="node">
<title>Node1</title>
<g id="a_node2"><a xlink:href="GeometryElement_8h.html" target="_top" xlink:title="GeometryElement.h">
<polygon fill="none" stroke="#000000" points="219,-392.5 219,-411.5 334,-411.5 334,-392.5 219,-392.5"/>
<text text-anchor="middle" x="276.5" y="-399.5" font-family="FreeSans.ttf" font-size="10.00" fill="#000000">GeometryElement.h</text>
</a>
</g>
</g>
<!-- Node0&#45;&gt;Node1 -->
<g id="edge1" class="edge">
<title>Node0&#45;&gt;Node1</title>
<path fill="none" stroke="#191970" d="M461.4183,-448.4369C423.4941,-438.9133 365.1711,-424.2672 324.1874,-413.9753"/>
<polygon fill="#191970" stroke="#191970" points="324.976,-410.5647 314.4246,-411.5237 323.271,-417.3539 324.976,-410.5647"/>
</g>
<!-- Node8 -->
<g id="node9" class="node">
<title>Node8</title>
<g id="a_node9"><a xlink:href="URDFParsingUtils_8h.html" target="_top" xlink:title="URDFParsingUtils.h">
<polygon fill="none" stroke="#000000" points="917.5,-392.5 917.5,-411.5 1027.5,-411.5 1027.5,-392.5 917.5,-392.5"/>
<text text-anchor="middle" x="972.5" y="-399.5" font-family="FreeSans.ttf" font-size="10.00" fill="#000000">URDFParsingUtils.h</text>
</a>
</g>
</g>
<!-- Node0&#45;&gt;Node8 -->
<g id="edge8" class="edge">
<title>Node0&#45;&gt;Node8</title>
<path fill="none" stroke="#191970" d="M562.8001,-450.5057C652.6067,-439.8732 816.1724,-420.5081 907.1083,-409.7419"/>
<polygon fill="#191970" stroke="#191970" points="907.7711,-413.188 917.2902,-408.5365 906.9481,-406.2365 907.7711,-413.188"/>
</g>
<!-- Node16 -->
<g id="node17" class="node">
<title>Node16</title>
<g id="a_node17"><a xlink:href="Utils_8h.html" target="_top" xlink:title="iDynTree/Core/Utils.h">
<polygon fill="none" stroke="#000000" points="1334,-56.5 1334,-75.5 1453,-75.5 1453,-56.5 1334,-56.5"/>
<text text-anchor="middle" x="1393.5" y="-63.5" font-family="FreeSans.ttf" font-size="10.00" fill="#000000">iDynTree/Core/Utils.h</text>
</a>
</g>
</g>
<!-- Node0&#45;&gt;Node16 -->
<g id="edge58" class="edge">
<title>Node0&#45;&gt;Node16</title>
<path fill="none" stroke="#191970" d="M562.769,-456.5048C762.971,-450.9433 1369.5,-427.379 1369.5,-346 1369.5,-346 1369.5,-346 1369.5,-178 1369.5,-144.8465 1379.6789,-107.3737 1386.7788,-85.2684"/>
<polygon fill="#191970" stroke="#191970" points="1390.1138,-86.3312 1389.9587,-75.7375 1383.4736,-84.1157 1390.1138,-86.3312"/>
</g>
<!-- Node35 -->
<g id="node36" class="node">
<title>Node35</title>
<g id="a_node36"><a xlink:href="XMLAttribute_8h.html" target="_top" xlink:title="iDynTree/XMLAttribute.h">
<polygon fill="none" stroke="#000000" points="308.5,-224.5 308.5,-243.5 442.5,-243.5 442.5,-224.5 308.5,-224.5"/>
<text text-anchor="middle" x="375.5" y="-231.5" font-family="FreeSans.ttf" font-size="10.00" fill="#000000">iDynTree/XMLAttribute.h</text>
</a>
</g>
</g>
<!-- Node0&#45;&gt;Node35 -->
<g id="edge56" class="edge">
<title>Node0&#45;&gt;Node35</title>
<path fill="none" stroke="#191970" d="M464.7004,-448.4063C445.6006,-441.3751 423.1006,-429.8751 409.5,-412 373.2287,-364.3291 372.1029,-289.1091 373.908,-253.6864"/>
<polygon fill="#191970" stroke="#191970" points="377.4031,-253.8745 374.5562,-243.6693 370.4177,-253.4224 377.4031,-253.8745"/>
</g>
<!-- Node36 -->
<g id="node37" class="node">
<title>Node36</title>
<g id="a_node37"><a xlink:href="SolidShapes_8h.html" target="_top" xlink:title="iDynTree/Model/SolidShapes.h">
<polygon fill="none" stroke="#000000" points="418,-392.5 418,-411.5 581,-411.5 581,-392.5 418,-392.5"/>
<text text-anchor="middle" x="499.5" y="-399.5" font-family="FreeSans.ttf" font-size="10.00" fill="#000000">iDynTree/Model/SolidShapes.h</text>
</a>
</g>
</g>
<!-- Node0&#45;&gt;Node36 -->
<g id="edge59" class="edge">
<title>Node0&#45;&gt;Node36</title>
<path fill="none" stroke="#191970" d="M499.5,-448.2455C499.5,-440.9382 499.5,-430.6944 499.5,-421.7046"/>
<polygon fill="#191970" stroke="#191970" points="503.0001,-421.6426 499.5,-411.6427 496.0001,-421.6427 503.0001,-421.6426"/>
</g>
<!-- Node2 -->
<g id="node3" class="node">
<title>Node2</title>
<g id="a_node3"><a xlink:href="XMLElement_8h.html" target="_top" xlink:title="iDynTree/XMLElement.h">
<polygon fill="none" stroke="#000000" points="182.5,-336.5 182.5,-355.5 314.5,-355.5 314.5,-336.5 182.5,-336.5"/>
<text text-anchor="middle" x="248.5" y="-343.5" font-family="FreeSans.ttf" font-size="10.00" fill="#000000">iDynTree/XMLElement.h</text>
</a>
</g>
</g>
<!-- Node1&#45;&gt;Node2 -->
<g id="edge2" class="edge">
<title>Node1&#45;&gt;Node2</title>
<path fill="none" stroke="#191970" d="M271.6228,-392.2455C267.8487,-384.6973 262.5079,-374.0158 257.9099,-364.8197"/>
<polygon fill="#191970" stroke="#191970" points="260.924,-363.0217 253.3213,-355.6427 254.663,-366.1522 260.924,-363.0217"/>
</g>
<!-- Node3 -->
<g id="node4" class="node">
<title>Node3</title>
<polygon fill="none" stroke="#bfbfbf" points="111,-280.5 111,-299.5 176,-299.5 176,-280.5 111,-280.5"/>
<text text-anchor="middle" x="143.5" y="-287.5" font-family="FreeSans.ttf" font-size="10.00" fill="#000000">functional</text>
</g>
<!-- Node2&#45;&gt;Node3 -->
<g id="edge3" class="edge">
<title>Node2&#45;&gt;Node3</title>
<path fill="none" stroke="#191970" d="M230.2104,-336.2455C213.7238,-327.4527 189.2648,-314.4079 170.5235,-304.4125"/>
<polygon fill="#191970" stroke="#191970" points="172.0506,-301.2604 161.58,-299.6427 168.7565,-307.4368 172.0506,-301.2604"/>
</g>
<!-- Node4 -->
<g id="node5" class="node">
<title>Node4</title>
<polygon fill="none" stroke="#bfbfbf" points="194.5,-280.5 194.5,-299.5 252.5,-299.5 252.5,-280.5 194.5,-280.5"/>
<text text-anchor="middle" x="223.5" y="-287.5" font-family="FreeSans.ttf" font-size="10.00" fill="#000000">memory</text>
</g>
<!-- Node2&#45;&gt;Node4 -->
<g id="edge4" class="edge">
<title>Node2&#45;&gt;Node4</title>
<path fill="none" stroke="#191970" d="M244.1453,-336.2455C240.7756,-328.6973 236.007,-318.0158 231.9017,-308.8197"/>
<polygon fill="#191970" stroke="#191970" points="235.0773,-307.3473 227.8048,-299.6427 228.6853,-310.2009 235.0773,-307.3473"/>
</g>
<!-- Node5 -->
<g id="node6" class="node">
<title>Node5</title>
<polygon fill="none" stroke="#bfbfbf" points="630.5,-56.5 630.5,-75.5 674.5,-75.5 674.5,-56.5 630.5,-56.5"/>
<text text-anchor="middle" x="652.5" y="-63.5" font-family="FreeSans.ttf" font-size="10.00" fill="#000000">string</text>
</g>
<!-- Node2&#45;&gt;Node5 -->
<g id="edge5" class="edge">
<title>Node2&#45;&gt;Node5</title>
<path fill="none" stroke="#191970" d="M253.2217,-336.3774C262.123,-317.3222 280.5,-273.2317 280.5,-234 280.5,-234 280.5,-234 280.5,-178 280.5,-107.3546 529.5957,-77.3307 620.1179,-68.7523"/>
<polygon fill="#191970" stroke="#191970" points="620.7066,-72.213 630.3437,-67.8111 620.065,-65.2424 620.7066,-72.213"/>
</g>
<!-- Node6 -->
<g id="node7" class="node">
<title>Node6</title>
<polygon fill="none" stroke="#bfbfbf" points="0,-280.5 0,-299.5 93,-299.5 93,-280.5 0,-280.5"/>
<text text-anchor="middle" x="46.5" y="-287.5" font-family="FreeSans.ttf" font-size="10.00" fill="#000000">unordered_map</text>
</g>
<!-- Node2&#45;&gt;Node6 -->
<g id="edge6" class="edge">
<title>Node2&#45;&gt;Node6</title>
<path fill="none" stroke="#191970" d="M213.775,-336.3733C179.7492,-326.9404 127.7563,-312.5265 90.7766,-302.2747"/>
<polygon fill="#191970" stroke="#191970" points="91.3435,-298.7999 80.7719,-299.5011 89.4734,-305.5455 91.3435,-298.7999"/>
</g>
<!-- Node7 -->
<g id="node8" class="node">
<title>Node7</title>
<polygon fill="none" stroke="#bfbfbf" points="395,-280.5 395,-299.5 442,-299.5 442,-280.5 395,-280.5"/>
<text text-anchor="middle" x="418.5" y="-287.5" font-family="FreeSans.ttf" font-size="10.00" fill="#000000">vector</text>
</g>
<!-- Node2&#45;&gt;Node7 -->
<g id="edge7" class="edge">
<title>Node2&#45;&gt;Node7</title>
<path fill="none" stroke="#191970" d="M277.724,-336.3733C307.62,-326.5252 353.9974,-311.2479 385.2714,-300.9459"/>
<polygon fill="#191970" stroke="#191970" points="386.4517,-304.2422 394.8545,-297.7891 384.2615,-297.5936 386.4517,-304.2422"/>
</g>
<!-- Node8&#45;&gt;Node5 -->
<g id="edge12" class="edge">
<title>Node8&#45;&gt;Node5</title>
<path fill="none" stroke="#191970" d="M972.5,-392.4116C972.5,-373.0538 972.5,-327.9167 972.5,-290 972.5,-290 972.5,-290 972.5,-234 972.5,-203.4754 974.2616,-190.3765 953.5,-168 916.1085,-127.7001 754.5501,-88.3366 684.7836,-72.8697"/>
<polygon fill="#191970" stroke="#191970" points="685.3118,-69.4024 674.7942,-70.6797 683.8127,-76.24 685.3118,-69.4024"/>
</g>
<!-- Node8&#45;&gt;Node7 -->
<g id="edge13" class="edge">
<title>Node8&#45;&gt;Node7</title>
<path fill="none" stroke="#191970" d="M917.2589,-394.8319C859.0621,-386.8946 764.885,-372.9532 684.5,-356 650.324,-348.7923 642.3641,-344.5542 608.5,-336 553.909,-322.21 490.2785,-306.9745 452.2517,-297.9585"/>
<polygon fill="#191970" stroke="#191970" points="452.7712,-294.4848 442.2339,-295.5868 451.1585,-301.2965 452.7712,-294.4848"/>
</g>
<!-- Node9 -->
<g id="node10" class="node">
<title>Node9</title>
<polygon fill="none" stroke="#bfbfbf" points="1001,-336.5 1001,-355.5 1048,-355.5 1048,-336.5 1001,-336.5"/>
<text text-anchor="middle" x="1024.5" y="-343.5" font-family="FreeSans.ttf" font-size="10.00" fill="#000000">cmath</text>
</g>
<!-- Node8&#45;&gt;Node9 -->
<g id="edge9" class="edge">
<title>Node8&#45;&gt;Node9</title>
<path fill="none" stroke="#191970" d="M981.5577,-392.2455C989.0142,-384.2155 999.7634,-372.6394 1008.6417,-363.0781"/>
<polygon fill="#191970" stroke="#191970" points="1011.3063,-365.3522 1015.5461,-355.6427 1006.1768,-360.589 1011.3063,-365.3522"/>
</g>
<!-- Node10 -->
<g id="node11" class="node">
<title>Node10</title>
<polygon fill="none" stroke="#bfbfbf" points="550,-336.5 550,-355.5 599,-355.5 599,-336.5 550,-336.5"/>
<text text-anchor="middle" x="574.5" y="-343.5" font-family="FreeSans.ttf" font-size="10.00" fill="#000000">cstdlib</text>
</g>
<!-- Node8&#45;&gt;Node10 -->
<g id="edge10" class="edge">
<title>Node8&#45;&gt;Node10</title>
<path fill="none" stroke="#191970" d="M917.4917,-394.735C851.2563,-385.9154 736.6597,-370.427 638.5,-356 628.94,-354.5949 618.5877,-353.0065 609.052,-351.5162"/>
<polygon fill="#191970" stroke="#191970" points="609.5237,-348.0474 599.1012,-349.9507 608.4358,-354.9624 609.5237,-348.0474"/>
</g>
<!-- Node11 -->
<g id="node12" class="node">
<title>Node11</title>
<polygon fill="none" stroke="#bfbfbf" points="1082.5,-56.5 1082.5,-75.5 1138.5,-75.5 1138.5,-56.5 1082.5,-56.5"/>
<text text-anchor="middle" x="1110.5" y="-63.5" font-family="FreeSans.ttf" font-size="10.00" fill="#000000">sstream</text>
</g>
<!-- Node8&#45;&gt;Node11 -->
<g id="edge11" class="edge">
<title>Node8&#45;&gt;Node11</title>
<path fill="none" stroke="#191970" d="M1027.5628,-398.2093C1077.7134,-393.2158 1152.9593,-381.8032 1213.5,-356 1260.1259,-336.1275 1306.5,-340.6842 1306.5,-290 1306.5,-290 1306.5,-290 1306.5,-178 1306.5,-146.7875 1305.5142,-133.0848 1282.5,-112 1263.0471,-94.1779 1193.0598,-79.6705 1148.5812,-71.9816"/>
<polygon fill="#191970" stroke="#191970" points="1149.1307,-68.5249 1138.6875,-70.3105 1147.9649,-75.4271 1149.1307,-68.5249"/>
</g>
<!-- Node12 -->
<g id="node13" class="node">
<title>Node12</title>
<g id="a_node13"><a xlink:href="Transform_8h.html" target="_top" xlink:title="iDynTree/Core/Transform.h">
<polygon fill="none" stroke="#000000" points="693.5,-336.5 693.5,-355.5 839.5,-355.5 839.5,-336.5 693.5,-336.5"/>
<text text-anchor="middle" x="766.5" y="-343.5" font-family="FreeSans.ttf" font-size="10.00" fill="#000000">iDynTree/Core/Transform.h</text>
</a>
</g>
</g>
<!-- Node8&#45;&gt;Node12 -->
<g id="edge14" class="edge">
<title>Node8&#45;&gt;Node12</title>
<path fill="none" stroke="#191970" d="M937.0873,-392.3733C902.2395,-382.9001 848.9118,-368.4032 811.1707,-358.1435"/>
<polygon fill="#191970" stroke="#191970" points="812.0185,-354.747 801.4506,-355.5011 810.1822,-361.5019 812.0185,-354.747"/>
</g>
<!-- Node15 -->
<g id="node16" class="node">
<title>Node15</title>
<g id="a_node16"><a xlink:href="VectorFixSize_8h.html" target="_top" xlink:title="iDynTree/Core/VectorFixSize.h">
<polygon fill="none" stroke="#000000" points="1112,-112.5 1112,-131.5 1273,-131.5 1273,-112.5 1112,-112.5"/>
<text text-anchor="middle" x="1192.5" y="-119.5" font-family="FreeSans.ttf" font-size="10.00" fill="#000000">iDynTree/Core/VectorFixSize.h</text>
</a>
</g>
</g>
<!-- Node8&#45;&gt;Node15 -->
<g id="edge54" class="edge">
<title>Node8&#45;&gt;Node15</title>
<path fill="none" stroke="#191970" d="M1027.8281,-392.7263C1113.5012,-376.7782 1268.5,-340.8924 1268.5,-290 1268.5,-290 1268.5,-290 1268.5,-234 1268.5,-194.2361 1235.2929,-158.1042 1212.7792,-138.177"/>
<polygon fill="#191970" stroke="#191970" points="1214.9317,-135.4128 1205.0499,-131.5918 1210.3921,-140.7412 1214.9317,-135.4128"/>
</g>
<!-- Node34 -->
<g id="node35" class="node">
<title>Node34</title>
<polygon fill="none" stroke="#bfbfbf" points="1066.5,-336.5 1066.5,-355.5 1124.5,-355.5 1124.5,-336.5 1066.5,-336.5"/>
<text text-anchor="middle" x="1095.5" y="-343.5" font-family="FreeSans.ttf" font-size="10.00" fill="#000000">fpconv.h</text>
</g>
<!-- Node8&#45;&gt;Node34 -->
<g id="edge55" class="edge">
<title>Node8&#45;&gt;Node34</title>
<path fill="none" stroke="#191970" d="M993.6445,-392.3733C1013.3892,-383.3838 1043.0698,-369.8706 1065.3055,-359.7471"/>
<polygon fill="#191970" stroke="#191970" points="1066.9806,-362.8302 1074.6315,-355.5011 1064.08,-356.4594 1066.9806,-362.8302"/>
</g>
<!-- Node12&#45;&gt;Node5 -->
<g id="edge53" class="edge">
<title>Node12&#45;&gt;Node5</title>
<path fill="none" stroke="#191970" d="M722.7338,-336.483C649.1253,-319.2004 508.5,-280.1445 508.5,-234 508.5,-234 508.5,-234 508.5,-178 508.5,-121.5572 578.2848,-89.422 620.6938,-75.1043"/>
<polygon fill="#191970" stroke="#191970" points="621.8727,-78.4017 630.3156,-72.001 619.724,-71.7396 621.8727,-78.4017"/>
</g>
<!-- Node13 -->
<g id="node14" class="node">
<title>Node13</title>
<g id="a_node14"><a xlink:href="Position_8h.html" target="_top" xlink:title="iDynTree/Core/Position.h">
<polygon fill="none" stroke="#000000" points="608.5,-280.5 608.5,-299.5 744.5,-299.5 744.5,-280.5 608.5,-280.5"/>
<text text-anchor="middle" x="676.5" y="-287.5" font-family="FreeSans.ttf" font-size="10.00" fill="#000000">iDynTree/Core/Position.h</text>
</a>
</g>
</g>
<!-- Node12&#45;&gt;Node13 -->
<g id="edge15" class="edge">
<title>Node12&#45;&gt;Node13</title>
<path fill="none" stroke="#191970" d="M750.8232,-336.2455C737.0144,-327.6534 716.6807,-315.0014 700.7708,-305.1018"/>
<polygon fill="#191970" stroke="#191970" points="702.3368,-301.954 691.9972,-299.6427 698.6387,-307.8974 702.3368,-301.954"/>
</g>
<!-- Node29 -->
<g id="node30" class="node">
<title>Node29</title>
<g id="a_node30"><a xlink:href="Rotation_8h.html" target="_top" xlink:title="iDynTree/Core/Rotation.h">
<polygon fill="none" stroke="#000000" points="743,-224.5 743,-243.5 880,-243.5 880,-224.5 743,-224.5"/>
<text text-anchor="middle" x="811.5" y="-231.5" font-family="FreeSans.ttf" font-size="10.00" fill="#000000">iDynTree/Core/Rotation.h</text>
</a>
</g>
</g>
<!-- Node12&#45;&gt;Node29 -->
<g id="edge51" class="edge">
<title>Node12&#45;&gt;Node29</title>
<path fill="none" stroke="#191970" d="M770.3367,-336.4509C777.7425,-318.0186 794.1327,-277.2254 803.8488,-253.043"/>
<polygon fill="#191970" stroke="#191970" points="807.1925,-254.1088 807.673,-243.5249 800.6971,-251.499 807.1925,-254.1088"/>
</g>
<!-- Node32 -->
<g id="node33" class="node">
<title>Node32</title>
<g id="a_node33"><a xlink:href="MatrixFixSize_8h.html" target="_top" xlink:title="iDynTree/Core/MatrixFixSize.h">
<polygon fill="none" stroke="#000000" points="933,-112.5 933,-131.5 1094,-131.5 1094,-112.5 933,-112.5"/>
<text text-anchor="middle" x="1013.5" y="-119.5" font-family="FreeSans.ttf" font-size="10.00" fill="#000000">iDynTree/Core/MatrixFixSize.h</text>
</a>
</g>
</g>
<!-- Node12&#45;&gt;Node32 -->
<g id="edge52" class="edge">
<title>Node12&#45;&gt;Node32</title>
<path fill="none" stroke="#191970" d="M806.7172,-336.4802C900.7192,-313.3312 1130.1509,-251.3294 1173.5,-188 1178.5209,-180.6649 1178.847,-175.1008 1173.5,-168 1162.2083,-153.0045 1121.1837,-141.3837 1083.5056,-133.5735"/>
<polygon fill="#191970" stroke="#191970" points="1084.0012,-130.1033 1073.5085,-131.5713 1082.6265,-136.967 1084.0012,-130.1033"/>
</g>
<!-- Node13&#45;&gt;Node5 -->
<g id="edge50" class="edge">
<title>Node13&#45;&gt;Node5</title>
<path fill="none" stroke="#191970" d="M658.8386,-280.291C632.6758,-264.7671 584.6531,-231.6118 565.5,-188 546.855,-145.5451 596.349,-103.0667 628.1359,-81.1786"/>
<polygon fill="#191970" stroke="#191970" points="630.1773,-84.0243 636.5606,-75.5682 626.2973,-78.198 630.1773,-84.0243"/>
</g>
<!-- Node14 -->
<g id="node15" class="node">
<title>Node14</title>
<g id="a_node15"><a xlink:href="PositionRaw_8h.html" target="_top" xlink:title="iDynTree/Core/PositionRaw.h">
<polygon fill="none" stroke="#000000" points="574.5,-168.5 574.5,-187.5 730.5,-187.5 730.5,-168.5 574.5,-168.5"/>
<text text-anchor="middle" x="652.5" y="-175.5" font-family="FreeSans.ttf" font-size="10.00" fill="#000000">iDynTree/Core/PositionRaw.h</text>
</a>
</g>
</g>
<!-- Node13&#45;&gt;Node14 -->
<g id="edge16" class="edge">
<title>Node13&#45;&gt;Node14</title>
<path fill="none" stroke="#191970" d="M674.4538,-280.4509C670.5217,-262.1013 661.8409,-221.5908 656.6506,-197.3693"/>
<polygon fill="#191970" stroke="#191970" points="660.0587,-196.5695 654.541,-187.5249 653.2141,-198.0363 660.0587,-196.5695"/>
</g>
<!-- Node13&#45;&gt;Node29 -->
<g id="edge36" class="edge">
<title>Node13&#45;&gt;Node29</title>
<path fill="none" stroke="#191970" d="M699.7073,-280.3733C721.6699,-271.2629 754.8332,-257.5062 779.3401,-247.3404"/>
<polygon fill="#191970" stroke="#191970" points="780.6997,-250.5657 788.5955,-243.5011 778.0176,-244.0999 780.6997,-250.5657"/>
</g>
<!-- Node14&#45;&gt;Node5 -->
<g id="edge35" class="edge">
<title>Node14&#45;&gt;Node5</title>
<path fill="none" stroke="#191970" d="M652.5,-168.4509C652.5,-150.184 652.5,-109.9553 652.5,-85.6976"/>
<polygon fill="#191970" stroke="#191970" points="656.0001,-85.5249 652.5,-75.5249 649.0001,-85.5249 656.0001,-85.5249"/>
</g>
<!-- Node14&#45;&gt;Node15 -->
<g id="edge17" class="edge">
<title>Node14&#45;&gt;Node15</title>
<path fill="none" stroke="#191970" d="M730.7416,-170.2651C818.51,-161.5328 965.4214,-146.7502 1101.7592,-132.1788"/>
<polygon fill="#191970" stroke="#191970" points="1102.4032,-135.6299 1111.9738,-131.0853 1101.6581,-128.6697 1102.4032,-135.6299"/>
</g>
<!-- Node15&#45;&gt;Node5 -->
<g id="edge31" class="edge">
<title>Node15&#45;&gt;Node5</title>
<path fill="none" stroke="#191970" d="M1111.9738,-112.9147C1109.1143,-112.604 1106.2828,-112.2982 1103.5,-112 946.4914,-95.1727 758.5717,-76.4671 684.6302,-69.163"/>
<polygon fill="#191970" stroke="#191970" points="684.8605,-65.6688 674.565,-68.1697 684.1729,-72.635 684.8605,-65.6688"/>
</g>
<!-- Node15&#45;&gt;Node11 -->
<g id="edge32" class="edge">
<title>Node15&#45;&gt;Node11</title>
<path fill="none" stroke="#191970" d="M1178.2167,-112.2455C1165.753,-103.7337 1147.4549,-91.2375 1133.0208,-81.3801"/>
<polygon fill="#191970" stroke="#191970" points="1134.8515,-78.392 1124.6196,-75.6427 1130.9038,-84.1726 1134.8515,-78.392"/>
</g>
<!-- Node15&#45;&gt;Node16 -->
<g id="edge18" class="edge">
<title>Node15&#45;&gt;Node16</title>
<path fill="none" stroke="#191970" d="M1227.0531,-112.3733C1260.9104,-102.9404 1312.646,-88.5265 1349.4426,-78.2747"/>
<polygon fill="#191970" stroke="#191970" points="1350.704,-81.5566 1359.3978,-75.5011 1348.8253,-74.8135 1350.704,-81.5566"/>
</g>
<!-- Node19 -->
<g id="node20" class="node">
<title>Node19</title>
<g id="a_node20"><a xlink:href="Span_8h.html" target="_top" xlink:title="iDynTree/Core/Span.h">
<polygon fill="none" stroke="#000000" points="1195,-56.5 1195,-75.5 1316,-75.5 1316,-56.5 1195,-56.5"/>
<text text-anchor="middle" x="1255.5" y="-63.5" font-family="FreeSans.ttf" font-size="10.00" fill="#000000">iDynTree/Core/Span.h</text>
</a>
</g>
</g>
<!-- Node15&#45;&gt;Node19 -->
<g id="edge21" class="edge">
<title>Node15&#45;&gt;Node19</title>
<path fill="none" stroke="#191970" d="M1203.4738,-112.2455C1212.6882,-104.0549 1226.0532,-92.1749 1236.9297,-82.5069"/>
<polygon fill="#191970" stroke="#191970" points="1239.5032,-84.9023 1244.652,-75.6427 1234.8526,-79.6704 1239.5032,-84.9023"/>
</g>
<!-- Node20 -->
<g id="node21" class="node">
<title>Node20</title>
<polygon fill="none" stroke="#bfbfbf" points="958.5,-.5 958.5,-19.5 1010.5,-19.5 1010.5,-.5 958.5,-.5"/>
<text text-anchor="middle" x="984.5" y="-7.5" font-family="FreeSans.ttf" font-size="10.00" fill="#000000">cassert</text>
</g>
<!-- Node15&#45;&gt;Node20 -->
<g id="edge33" class="edge">
<title>Node15&#45;&gt;Node20</title>
<path fill="none" stroke="#191970" d="M1188.5309,-112.337C1182.0928,-97.8758 1167.9944,-70.7326 1147.5,-56 1102.046,-23.3249 1078.8674,-34.713 1020.8867,-20.22"/>
<polygon fill="#191970" stroke="#191970" points="1021.4343,-16.7437 1010.8699,-17.5469 1019.6293,-23.5071 1021.4343,-16.7437"/>
</g>
<!-- Node28 -->
<g id="node29" class="node">
<title>Node28</title>
<polygon fill="none" stroke="#bfbfbf" points="1014.5,-56.5 1014.5,-75.5 1064.5,-75.5 1064.5,-56.5 1014.5,-56.5"/>
<text text-anchor="middle" x="1039.5" y="-63.5" font-family="FreeSans.ttf" font-size="10.00" fill="#000000">cstring</text>
</g>
<!-- Node15&#45;&gt;Node28 -->
<g id="edge34" class="edge">
<title>Node15&#45;&gt;Node28</title>
<path fill="none" stroke="#191970" d="M1166.1984,-112.3733C1140.7478,-103.058 1102.0257,-88.8852 1074.0894,-78.6602"/>
<polygon fill="#191970" stroke="#191970" points="1075.291,-75.3729 1064.6972,-75.2225 1072.8849,-81.9465 1075.291,-75.3729"/>
</g>
<!-- Node17 -->
<g id="node18" class="node">
<title>Node17</title>
<polygon fill="none" stroke="#bfbfbf" points="1539,-.5 1539,-19.5 1592,-19.5 1592,-.5 1539,-.5"/>
<text text-anchor="middle" x="1565.5" y="-7.5" font-family="FreeSans.ttf" font-size="10.00" fill="#000000">cstddef</text>
</g>
<!-- Node16&#45;&gt;Node17 -->
<g id="edge19" class="edge">
<title>Node16&#45;&gt;Node17</title>
<path fill="none" stroke="#191970" d="M1423.0679,-56.3733C1452.4489,-46.8073 1497.5632,-32.119 1529.1236,-21.8435"/>
<polygon fill="#191970" stroke="#191970" points="1530.432,-25.0984 1538.8571,-18.6744 1528.2648,-18.4423 1530.432,-25.0984"/>
</g>
<!-- Node18 -->
<g id="node19" class="node">
<title>Node18</title>
<polygon fill="none" stroke="#bfbfbf" points="1610.5,-.5 1610.5,-19.5 1690.5,-19.5 1690.5,-.5 1610.5,-.5"/>
<text text-anchor="middle" x="1650.5" y="-7.5" font-family="FreeSans.ttf" font-size="10.00" fill="#000000">CoreExport.h</text>
</g>
<!-- Node16&#45;&gt;Node18 -->
<g id="edge20" class="edge">
<title>Node16&#45;&gt;Node18</title>
<path fill="none" stroke="#191970" d="M1437.3879,-56.4369C1482.5323,-46.6 1552.7583,-31.2978 1600.1378,-20.9739"/>
<polygon fill="#191970" stroke="#191970" points="1601.1537,-24.3347 1610.1793,-18.7858 1599.6634,-17.4952 1601.1537,-24.3347"/>
</g>
<!-- Node19&#45;&gt;Node17 -->
<g id="edge25" class="edge">
<title>Node19&#45;&gt;Node17</title>
<path fill="none" stroke="#191970" d="M1316.0474,-56.5934C1379.7444,-46.5715 1476.7993,-30.9141 1529.0189,-19.8815"/>
<polygon fill="#191970" stroke="#191970" points="1529.817,-23.2898 1538.8418,-17.7397 1528.3257,-16.4504 1529.817,-23.2898"/>
</g>
<!-- Node19&#45;&gt;Node20 -->
<g id="edge22" class="edge">
<title>Node19&#45;&gt;Node20</title>
<path fill="none" stroke="#191970" d="M1199.4188,-56.4675C1153.6676,-48.3733 1087.1809,-35.8909 1020.6268,-20.128"/>
<polygon fill="#191970" stroke="#191970" points="1021.3493,-16.7022 1010.8093,-17.7787 1019.7201,-23.51 1021.3493,-16.7022"/>
</g>
<!-- Node21 -->
<g id="node22" class="node">
<title>Node21</title>
<polygon fill="none" stroke="#bfbfbf" points="1456.5,-.5 1456.5,-19.5 1520.5,-19.5 1520.5,-.5 1456.5,-.5"/>
<text text-anchor="middle" x="1488.5" y="-7.5" font-family="FreeSans.ttf" font-size="10.00" fill="#000000">algorithm</text>
</g>
<!-- Node19&#45;&gt;Node21 -->
<g id="edge23" class="edge">
<title>Node19&#45;&gt;Node21</title>
<path fill="none" stroke="#191970" d="M1295.5945,-56.4443C1332.3203,-47.6803 1388.4647,-34.2542 1446.235,-20.2995"/>
<polygon fill="#191970" stroke="#191970" points="1447.3762,-23.6245 1456.2741,-17.8731 1445.7317,-16.8205 1447.3762,-23.6245"/>
</g>
<!-- Node22 -->
<g id="node23" class="node">
<title>Node22</title>
<polygon fill="none" stroke="#bfbfbf" points="1028.5,-.5 1028.5,-19.5 1070.5,-19.5 1070.5,-.5 1028.5,-.5"/>
<text text-anchor="middle" x="1049.5" y="-7.5" font-family="FreeSans.ttf" font-size="10.00" fill="#000000">array</text>
</g>
<!-- Node19&#45;&gt;Node22 -->
<g id="edge24" class="edge">
<title>Node19&#45;&gt;Node22</title>
<path fill="none" stroke="#191970" d="M1216.7532,-56.4659C1181.1794,-47.5585 1127.0831,-33.6246 1080.5,-20 1080.4016,-19.9712 1080.3031,-19.9424 1080.2044,-19.9134"/>
<polygon fill="#191970" stroke="#191970" points="1081.384,-16.6141 1070.7978,-17.0403 1079.3392,-23.3088 1081.384,-16.6141"/>
</g>
<!-- Node23 -->
<g id="node24" class="node">
<title>Node23</title>
<polygon fill="none" stroke="#bfbfbf" points="1089,-.5 1089,-19.5 1142,-19.5 1142,-.5 1089,-.5"/>
<text text-anchor="middle" x="1115.5" y="-7.5" font-family="FreeSans.ttf" font-size="10.00" fill="#000000">iterator</text>
</g>
<!-- Node19&#45;&gt;Node23 -->
<g id="edge26" class="edge">
<title>Node19&#45;&gt;Node23</title>
<path fill="none" stroke="#191970" d="M1231.4331,-56.3733C1208.6572,-47.2629 1174.2656,-33.5062 1148.851,-23.3404"/>
<polygon fill="#191970" stroke="#191970" points="1149.8375,-19.9654 1139.2528,-19.5011 1147.2377,-26.4648 1149.8375,-19.9654"/>
</g>
<!-- Node24 -->
<g id="node25" class="node">
<title>Node24</title>
<polygon fill="none" stroke="#bfbfbf" points="1160.5,-.5 1160.5,-19.5 1204.5,-19.5 1204.5,-.5 1160.5,-.5"/>
<text text-anchor="middle" x="1182.5" y="-7.5" font-family="FreeSans.ttf" font-size="10.00" fill="#000000">limits</text>
</g>
<!-- Node19&#45;&gt;Node24 -->
<g id="edge27" class="edge">
<title>Node19&#45;&gt;Node24</title>
<path fill="none" stroke="#191970" d="M1242.7844,-56.2455C1231.898,-47.8943 1216.0117,-35.7076 1203.28,-25.9408"/>
<polygon fill="#191970" stroke="#191970" points="1205.1346,-22.9523 1195.0699,-19.6427 1200.8739,-28.5063 1205.1346,-22.9523"/>
</g>
<!-- Node25 -->
<g id="node26" class="node">
<title>Node25</title>
<polygon fill="none" stroke="#bfbfbf" points="1223,-.5 1223,-19.5 1288,-19.5 1288,-.5 1223,-.5"/>
<text text-anchor="middle" x="1255.5" y="-7.5" font-family="FreeSans.ttf" font-size="10.00" fill="#000000">stdexcept</text>
</g>
<!-- Node19&#45;&gt;Node25 -->
<g id="edge28" class="edge">
<title>Node19&#45;&gt;Node25</title>
<path fill="none" stroke="#191970" d="M1255.5,-56.2455C1255.5,-48.9382 1255.5,-38.6944 1255.5,-29.7046"/>
<polygon fill="#191970" stroke="#191970" points="1259.0001,-29.6426 1255.5,-19.6427 1252.0001,-29.6427 1259.0001,-29.6426"/>
</g>
<!-- Node26 -->
<g id="node27" class="node">
<title>Node26</title>
<polygon fill="none" stroke="#bfbfbf" points="1306,-.5 1306,-19.5 1375,-19.5 1375,-.5 1306,-.5"/>
<text text-anchor="middle" x="1340.5" y="-7.5" font-family="FreeSans.ttf" font-size="10.00" fill="#000000">type_traits</text>
</g>
<!-- Node19&#45;&gt;Node26 -->
<g id="edge29" class="edge">
<title>Node19&#45;&gt;Node26</title>
<path fill="none" stroke="#191970" d="M1270.3059,-56.2455C1283.2256,-47.7337 1302.1931,-35.2375 1317.1552,-25.3801"/>
<polygon fill="#191970" stroke="#191970" points="1319.4387,-28.067 1325.8638,-19.6427 1315.5876,-22.2216 1319.4387,-28.067"/>
</g>
<!-- Node27 -->
<g id="node28" class="node">
<title>Node27</title>
<polygon fill="none" stroke="#bfbfbf" points="1393,-.5 1393,-19.5 1438,-19.5 1438,-.5 1393,-.5"/>
<text text-anchor="middle" x="1415.5" y="-7.5" font-family="FreeSans.ttf" font-size="10.00" fill="#000000">utility</text>
</g>
<!-- Node19&#45;&gt;Node27 -->
<g id="edge30" class="edge">
<title>Node19&#45;&gt;Node27</title>
<path fill="none" stroke="#191970" d="M1283.005,-56.3733C1310.8188,-46.6384 1353.7899,-31.5985 1383.2051,-21.3032"/>
<polygon fill="#191970" stroke="#191970" points="1384.7148,-24.4831 1392.9972,-17.876 1382.4023,-17.8761 1384.7148,-24.4831"/>
</g>
<!-- Node29&#45;&gt;Node5 -->
<g id="edge37" class="edge">
<title>Node29&#45;&gt;Node5</title>
<path fill="none" stroke="#191970" d="M802.4959,-224.4862C776.7089,-197.2396 702.2984,-118.6172 668.9769,-83.4096"/>
<polygon fill="#191970" stroke="#191970" points="671.2173,-80.685 661.8014,-75.8279 666.1332,-85.4967 671.2173,-80.685"/>
</g>
<!-- Node29&#45;&gt;Node15 -->
<g id="edge49" class="edge">
<title>Node29&#45;&gt;Node15</title>
<path fill="none" stroke="#191970" d="M880.0835,-229.3323C978.8322,-222.0085 1151.6708,-206.7039 1173.5,-188 1186.6319,-176.7482 1190.9828,-157.0623 1192.2872,-142.11"/>
<polygon fill="#191970" stroke="#191970" points="1195.7978,-141.9743 1192.7859,-131.8166 1188.806,-141.6355 1195.7978,-141.9743"/>
</g>
<!-- Node30 -->
<g id="node31" class="node">
<title>Node30</title>
<g id="a_node31"><a xlink:href="GeomVector3_8h.html" target="_top" xlink:title="iDynTree/Core/GeomVector3.h">
<polygon fill="none" stroke="#000000" points="1001,-168.5 1001,-187.5 1164,-187.5 1164,-168.5 1001,-168.5"/>
<text text-anchor="middle" x="1082.5" y="-175.5" font-family="FreeSans.ttf" font-size="10.00" fill="#000000">iDynTree/Core/GeomVector3.h</text>
</a>
</g>
</g>
<!-- Node29&#45;&gt;Node30 -->
<g id="edge38" class="edge">
<title>Node29&#45;&gt;Node30</title>
<path fill="none" stroke="#191970" d="M857.7786,-224.4369C904.4505,-214.7925 976.5449,-199.8948 1026.4331,-189.5858"/>
<polygon fill="#191970" stroke="#191970" points="1027.3274,-192.975 1036.4122,-187.5237 1025.9108,-186.1198 1027.3274,-192.975"/>
</g>
<!-- Node31 -->
<g id="node32" class="node">
<title>Node31</title>
<g id="a_node32"><a xlink:href="RotationRaw_8h.html" target="_top" xlink:title="iDynTree/Core/RotationRaw.h">
<polygon fill="none" stroke="#000000" points="786.5,-168.5 786.5,-187.5 944.5,-187.5 944.5,-168.5 786.5,-168.5"/>
<text text-anchor="middle" x="865.5" y="-175.5" font-family="FreeSans.ttf" font-size="10.00" fill="#000000">iDynTree/Core/RotationRaw.h</text>
</a>
</g>
</g>
<!-- Node29&#45;&gt;Node31 -->
<g id="edge40" class="edge">
<title>Node29&#45;&gt;Node31</title>
<path fill="none" stroke="#191970" d="M820.9061,-224.2455C828.6493,-216.2155 839.812,-204.6394 849.0318,-195.0781"/>
<polygon fill="#191970" stroke="#191970" points="851.7798,-197.2706 856.2017,-187.6427 846.7409,-192.4117 851.7798,-197.2706"/>
</g>
<!-- Node30&#45;&gt;Node15 -->
<g id="edge39" class="edge">
<title>Node30&#45;&gt;Node15</title>
<path fill="none" stroke="#191970" d="M1101.6605,-168.2455C1119.0111,-159.4125 1144.7901,-146.2887 1164.4583,-136.2758"/>
<polygon fill="#191970" stroke="#191970" points="1166.2353,-139.2986 1173.559,-131.6427 1163.0595,-133.0605 1166.2353,-139.2986"/>
</g>
<!-- Node31&#45;&gt;Node5 -->
<g id="edge48" class="edge">
<title>Node31&#45;&gt;Node5</title>
<path fill="none" stroke="#191970" d="M854.0838,-168.4511C837.1315,-154.618 803.9167,-128.8229 772.5,-112 743.9759,-96.726 709.2603,-83.9954 684.5214,-75.8281"/>
<polygon fill="#191970" stroke="#191970" points="685.4983,-72.4656 674.9065,-72.7174 683.3435,-79.1257 685.4983,-72.4656"/>
</g>
<!-- Node31&#45;&gt;Node32 -->
<g id="edge41" class="edge">
<title>Node31&#45;&gt;Node32</title>
<path fill="none" stroke="#191970" d="M890.9421,-168.3733C915.2326,-159.1822 952.0208,-145.2624 978.9543,-135.0713"/>
<polygon fill="#191970" stroke="#191970" points="980.2757,-138.3136 988.3899,-131.5011 977.7984,-131.7666 980.2757,-138.3136"/>
</g>
<!-- Node32&#45;&gt;Node5 -->
<g id="edge45" class="edge">
<title>Node32&#45;&gt;Node5</title>
<path fill="none" stroke="#191970" d="M951.8521,-112.4369C874.5333,-100.4428 744.8374,-80.3238 684.7992,-71.0104"/>
<polygon fill="#191970" stroke="#191970" points="685.183,-67.5282 674.7646,-69.4538 684.1099,-74.4454 685.183,-67.5282"/>
</g>
<!-- Node32&#45;&gt;Node11 -->
<g id="edge47" class="edge">
<title>Node32&#45;&gt;Node11</title>
<path fill="none" stroke="#191970" d="M1030.3961,-112.2455C1045.418,-103.5731 1067.6043,-90.7645 1084.821,-80.825"/>
<polygon fill="#191970" stroke="#191970" points="1086.8871,-83.6737 1093.7975,-75.6427 1083.3872,-77.6114 1086.8871,-83.6737"/>
</g>
<!-- Node32&#45;&gt;Node16 -->
<g id="edge42" class="edge">
<title>Node32&#45;&gt;Node16</title>
<path fill="none" stroke="#191970" d="M1078.3926,-112.4369C1146.6825,-102.3731 1253.788,-86.5891 1323.8263,-76.2677"/>
<polygon fill="#191970" stroke="#191970" points="1324.499,-79.7065 1333.8818,-74.7858 1323.4784,-72.7813 1324.499,-79.7065"/>
</g>
<!-- Node32&#45;&gt;Node20 -->
<g id="edge43" class="edge">
<title>Node32&#45;&gt;Node20</title>
<path fill="none" stroke="#191970" d="M1011.0275,-112.4509C1006.2762,-94.1013 995.7869,-53.5908 989.5153,-29.3693"/>
<polygon fill="#191970" stroke="#191970" points="992.8612,-28.3283 986.9663,-19.5249 986.0847,-30.083 992.8612,-28.3283"/>
</g>
<!-- Node32&#45;&gt;Node28 -->
<g id="edge44" class="edge">
<title>Node32&#45;&gt;Node28</title>
<path fill="none" stroke="#191970" d="M1018.0289,-112.2455C1021.5334,-104.6973 1026.4927,-94.0158 1030.7623,-84.8197"/>
<polygon fill="#191970" stroke="#191970" points="1033.9864,-86.1867 1035.023,-75.6427 1027.6373,-83.2389 1033.9864,-86.1867"/>
</g>
<!-- Node33 -->
<g id="node34" class="node">
<title>Node33</title>
<polygon fill="none" stroke="#bfbfbf" points="898.5,-56.5 898.5,-75.5 958.5,-75.5 958.5,-56.5 898.5,-56.5"/>
<text text-anchor="middle" x="928.5" y="-63.5" font-family="FreeSans.ttf" font-size="10.00" fill="#000000">iostream</text>
</g>
<!-- Node32&#45;&gt;Node33 -->
<g id="edge46" class="edge">
<title>Node32&#45;&gt;Node33</title>
<path fill="none" stroke="#191970" d="M998.6941,-112.2455C985.7744,-103.7337 966.8069,-91.2375 951.8448,-81.3801"/>
<polygon fill="#191970" stroke="#191970" points="953.4124,-78.2216 943.1362,-75.6427 949.5613,-84.067 953.4124,-78.2216"/>
</g>
<!-- Node35&#45;&gt;Node5 -->
<g id="edge57" class="edge">
<title>Node35&#45;&gt;Node5</title>
<path fill="none" stroke="#191970" d="M379.0293,-224.2664C388.0222,-200.9137 414.127,-141.4645 456.5,-112 482.767,-93.735 571.6966,-78.0695 620.2356,-70.6259"/>
<polygon fill="#191970" stroke="#191970" points="620.8593,-74.0716 630.2272,-69.1224 619.8177,-67.1495 620.8593,-74.0716"/>
</g>
<!-- Node36&#45;&gt;Node5 -->
<g id="edge61" class="edge">
<title>Node36&#45;&gt;Node5</title>
<path fill="none" stroke="#191970" d="M495.221,-392.3307C487.1541,-373.1936 470.5,-328.9662 470.5,-290 470.5,-290 470.5,-290 470.5,-178 470.5,-108.5809 567.726,-80.8067 620.0539,-70.8855"/>
<polygon fill="#191970" stroke="#191970" points="620.9519,-74.2807 630.1832,-69.0814 619.7244,-67.3892 620.9519,-74.2807"/>
</g>
<!-- Node36&#45;&gt;Node7 -->
<g id="edge62" class="edge">
<title>Node36&#45;&gt;Node7</title>
<path fill="none" stroke="#191970" d="M489.23,-392.3567C480.0407,-383.4305 466.5141,-369.5331 456.5,-356 445.3616,-340.9475 434.9171,-322.3502 427.8077,-308.737"/>
<polygon fill="#191970" stroke="#191970" points="430.9231,-307.1417 423.2582,-299.8274 424.6888,-310.3252 430.9231,-307.1417"/>
</g>
<!-- Node36&#45;&gt;Node10 -->
<g id="edge60" class="edge">
<title>Node36&#45;&gt;Node10</title>
<path fill="none" stroke="#191970" d="M512.564,-392.2455C523.8562,-383.814 540.3845,-371.4729 553.5271,-361.6598"/>
<polygon fill="#191970" stroke="#191970" points="555.6669,-364.4301 561.5857,-355.6427 551.4789,-358.8211 555.6669,-364.4301"/>
</g>
<!-- Node36&#45;&gt;Node12 -->
<g id="edge63" class="edge">
<title>Node36&#45;&gt;Node12</title>
<path fill="none" stroke="#191970" d="M545.0956,-392.4369C591.0785,-382.7925 662.1088,-367.8948 711.2606,-357.5858"/>
<polygon fill="#191970" stroke="#191970" points="712.0239,-361.0019 721.0925,-355.5237 710.587,-354.151 712.0239,-361.0019"/>
</g>
</g>
</svg>
