<?xml version="1.0" encoding="UTF-8" standalone="no"?>
<!DOCTYPE svg PUBLIC "-//W3C//DTD SVG 1.1//EN"
 "http://www.w3.org/Graphics/SVG/1.1/DTD/svg11.dtd">
<!-- Generated by graphviz version 2.40.1 (20161225.0304)
 -->
<!-- Title: GeomVector3.cpp Pages: 1 -->
<svg width="892pt" height="308pt"
 viewBox="0.00 0.00 891.50 308.00" xmlns="http://www.w3.org/2000/svg" xmlns:xlink="http://www.w3.org/1999/xlink">
<g id="graph0" class="graph" transform="scale(1 1) rotate(0) translate(4 304)">
<title>GeomVector3.cpp</title>
<!-- Node0 -->
<g id="node1" class="node">
<title>Node0</title>
<polygon fill="#bfbfbf" stroke="#000000" points="603,-280.5 603,-299.5 706,-299.5 706,-280.5 603,-280.5"/>
<text text-anchor="middle" x="654.5" y="-287.5" font-family="FreeSans.ttf" font-size="10.00" fill="#000000">GeomVector3.cpp</text>
</g>
<!-- Node1 -->
<g id="node2" class="node">
<title>Node1</title>
<g id="a_node2"><a xlink:href="GeomVector3_8h.html" target="_top" xlink:title="iDynTree/Core/GeomVector3.h">
<polygon fill="none" stroke="#000000" points="463,-168.5 463,-187.5 626,-187.5 626,-168.5 463,-168.5"/>
<text text-anchor="middle" x="544.5" y="-175.5" font-family="FreeSans.ttf" font-size="10.00" fill="#000000">iDynTree/Core/GeomVector3.h</text>
</a>
</g>
</g>
<!-- Node0&#45;&gt;Node1 -->
<g id="edge1" class="edge">
<title>Node0&#45;&gt;Node1</title>
<path fill="none" stroke="#191970" d="M630.5162,-280.3592C613.6599,-272.5982 591.5236,-260.299 576.5,-244 564.1205,-230.5696 555.5675,-211.4694 550.4394,-197.2693"/>
<polygon fill="#191970" stroke="#191970" points="553.6753,-195.9101 547.1788,-187.5407 547.0381,-198.1346 553.6753,-195.9101"/>
</g>
<!-- Node18 -->
<g id="node19" class="node">
<title>Node18</title>
<g id="a_node19"><a xlink:href="Rotation_8h.html" target="_top" xlink:title="iDynTree/Core/Rotation.h">
<polygon fill="none" stroke="#000000" points="586,-224.5 586,-243.5 723,-243.5 723,-224.5 586,-224.5"/>
<text text-anchor="middle" x="654.5" y="-231.5" font-family="FreeSans.ttf" font-size="10.00" fill="#000000">iDynTree/Core/Rotation.h</text>
</a>
</g>
</g>
<!-- Node0&#45;&gt;Node18 -->
<g id="edge20" class="edge">
<title>Node0&#45;&gt;Node18</title>
<path fill="none" stroke="#191970" d="M654.5,-280.2455C654.5,-272.9382 654.5,-262.6944 654.5,-253.7046"/>
<polygon fill="#191970" stroke="#191970" points="658.0001,-253.6426 654.5,-243.6427 651.0001,-253.6427 658.0001,-253.6426"/>
</g>
<!-- Node22 -->
<g id="node23" class="node">
<title>Node22</title>
<polygon fill="none" stroke="#bfbfbf" points="741,-224.5 741,-243.5 818,-243.5 818,-224.5 741,-224.5"/>
<text text-anchor="middle" x="779.5" y="-231.5" font-family="FreeSans.ttf" font-size="10.00" fill="#000000">Eigen/Dense</text>
</g>
<!-- Node0&#45;&gt;Node22 -->
<g id="edge33" class="edge">
<title>Node0&#45;&gt;Node22</title>
<path fill="none" stroke="#191970" d="M675.9883,-280.3733C696.144,-271.3435 726.488,-257.7494 749.118,-247.6111"/>
<polygon fill="#191970" stroke="#191970" points="750.5971,-250.7838 758.2921,-243.5011 747.7351,-244.3955 750.5971,-250.7838"/>
</g>
<!-- Node2 -->
<g id="node3" class="node">
<title>Node2</title>
<g id="a_node3"><a xlink:href="VectorFixSize_8h.html" target="_top" xlink:title="iDynTree/Core/VectorFixSize.h">
<polygon fill="none" stroke="#000000" points="464,-112.5 464,-131.5 625,-131.5 625,-112.5 464,-112.5"/>
<text text-anchor="middle" x="544.5" y="-119.5" font-family="FreeSans.ttf" font-size="10.00" fill="#000000">iDynTree/Core/VectorFixSize.h</text>
</a>
</g>
</g>
<!-- Node1&#45;&gt;Node2 -->
<g id="edge2" class="edge">
<title>Node1&#45;&gt;Node2</title>
<path fill="none" stroke="#191970" d="M544.5,-168.2455C544.5,-160.9382 544.5,-150.6944 544.5,-141.7046"/>
<polygon fill="#191970" stroke="#191970" points="548.0001,-141.6426 544.5,-131.6427 541.0001,-141.6427 548.0001,-141.6426"/>
</g>
<!-- Node3 -->
<g id="node4" class="node">
<title>Node3</title>
<g id="a_node4"><a xlink:href="Utils_8h.html" target="_top" xlink:title="iDynTree/Core/Utils.h">
<polygon fill="none" stroke="#000000" points="518,-56.5 518,-75.5 637,-75.5 637,-56.5 518,-56.5"/>
<text text-anchor="middle" x="577.5" y="-63.5" font-family="FreeSans.ttf" font-size="10.00" fill="#000000">iDynTree/Core/Utils.h</text>
</a>
</g>
</g>
<!-- Node2&#45;&gt;Node3 -->
<g id="edge3" class="edge">
<title>Node2&#45;&gt;Node3</title>
<path fill="none" stroke="#191970" d="M550.2482,-112.2455C554.7435,-104.617 561.1248,-93.7881 566.5825,-84.5267"/>
<polygon fill="#191970" stroke="#191970" points="569.7561,-86.035 571.8177,-75.6427 563.7253,-82.4811 569.7561,-86.035"/>
</g>
<!-- Node6 -->
<g id="node7" class="node">
<title>Node6</title>
<g id="a_node7"><a xlink:href="Span_8h.html" target="_top" xlink:title="iDynTree/Core/Span.h">
<polygon fill="none" stroke="#000000" points="266,-56.5 266,-75.5 387,-75.5 387,-56.5 266,-56.5"/>
<text text-anchor="middle" x="326.5" y="-63.5" font-family="FreeSans.ttf" font-size="10.00" fill="#000000">iDynTree/Core/Span.h</text>
</a>
</g>
</g>
<!-- Node2&#45;&gt;Node6 -->
<g id="edge6" class="edge">
<title>Node2&#45;&gt;Node6</title>
<path fill="none" stroke="#191970" d="M507.0245,-112.3733C469.9897,-102.8598 413.2318,-88.2797 373.2639,-78.0127"/>
<polygon fill="#191970" stroke="#191970" points="374.0429,-74.5993 363.4865,-75.5011 372.3012,-81.3792 374.0429,-74.5993"/>
</g>
<!-- Node7 -->
<g id="node8" class="node">
<title>Node7</title>
<polygon fill="none" stroke="#bfbfbf" points="581.5,-.5 581.5,-19.5 633.5,-19.5 633.5,-.5 581.5,-.5"/>
<text text-anchor="middle" x="607.5" y="-7.5" font-family="FreeSans.ttf" font-size="10.00" fill="#000000">cassert</text>
</g>
<!-- Node2&#45;&gt;Node7 -->
<g id="edge18" class="edge">
<title>Node2&#45;&gt;Node7</title>
<path fill="none" stroke="#191970" d="M498.2916,-112.4455C459.3576,-102.2388 413.1474,-83.6884 434.5,-56 472.9458,-6.1465 510.7245,-36.4253 571.5,-20 571.5978,-19.9736 571.6958,-19.9471 571.794,-19.9205"/>
<polygon fill="#191970" stroke="#191970" points="572.4412,-23.372 581.1656,-17.3608 570.5967,-16.6194 572.4412,-23.372"/>
</g>
<!-- Node15 -->
<g id="node16" class="node">
<title>Node15</title>
<polygon fill="none" stroke="#bfbfbf" points="839.5,-56.5 839.5,-75.5 883.5,-75.5 883.5,-56.5 839.5,-56.5"/>
<text text-anchor="middle" x="861.5" y="-63.5" font-family="FreeSans.ttf" font-size="10.00" fill="#000000">string</text>
</g>
<!-- Node2&#45;&gt;Node15 -->
<g id="edge16" class="edge">
<title>Node2&#45;&gt;Node15</title>
<path fill="none" stroke="#191970" d="M624.3561,-112.4782C679.5956,-105.1223 754.8736,-93.5788 829.2534,-76.0226"/>
<polygon fill="#191970" stroke="#191970" points="830.3567,-79.3573 839.2645,-73.6213 828.724,-72.5503 830.3567,-79.3573"/>
</g>
<!-- Node16 -->
<g id="node17" class="node">
<title>Node16</title>
<polygon fill="none" stroke="#bfbfbf" points="443.5,-56.5 443.5,-75.5 499.5,-75.5 499.5,-56.5 443.5,-56.5"/>
<text text-anchor="middle" x="471.5" y="-63.5" font-family="FreeSans.ttf" font-size="10.00" fill="#000000">sstream</text>
</g>
<!-- Node2&#45;&gt;Node16 -->
<g id="edge17" class="edge">
<title>Node2&#45;&gt;Node16</title>
<path fill="none" stroke="#191970" d="M531.7844,-112.2455C520.898,-103.8943 505.0117,-91.7076 492.28,-81.9408"/>
<polygon fill="#191970" stroke="#191970" points="494.1346,-78.9523 484.0699,-75.6427 489.8739,-84.5063 494.1346,-78.9523"/>
</g>
<!-- Node17 -->
<g id="node18" class="node">
<title>Node17</title>
<polygon fill="none" stroke="#bfbfbf" points="655.5,-56.5 655.5,-75.5 705.5,-75.5 705.5,-56.5 655.5,-56.5"/>
<text text-anchor="middle" x="680.5" y="-63.5" font-family="FreeSans.ttf" font-size="10.00" fill="#000000">cstring</text>
</g>
<!-- Node2&#45;&gt;Node17 -->
<g id="edge19" class="edge">
<title>Node2&#45;&gt;Node17</title>
<path fill="none" stroke="#191970" d="M567.8792,-112.3733C590.0045,-103.2629 623.4134,-89.5062 648.1019,-79.3404"/>
<polygon fill="#191970" stroke="#191970" points="649.5117,-82.5451 657.4258,-75.5011 646.8464,-76.0723 649.5117,-82.5451"/>
</g>
<!-- Node4 -->
<g id="node5" class="node">
<title>Node4</title>
<polygon fill="none" stroke="#bfbfbf" points="510,-.5 510,-19.5 563,-19.5 563,-.5 510,-.5"/>
<text text-anchor="middle" x="536.5" y="-7.5" font-family="FreeSans.ttf" font-size="10.00" fill="#000000">cstddef</text>
</g>
<!-- Node3&#45;&gt;Node4 -->
<g id="edge4" class="edge">
<title>Node3&#45;&gt;Node4</title>
<path fill="none" stroke="#191970" d="M570.3583,-56.2455C564.6556,-48.4564 556.51,-37.3308 549.6375,-27.9439"/>
<polygon fill="#191970" stroke="#191970" points="552.2913,-25.6437 543.5598,-19.6427 546.6432,-29.7789 552.2913,-25.6437"/>
</g>
<!-- Node5 -->
<g id="node6" class="node">
<title>Node5</title>
<polygon fill="none" stroke="#bfbfbf" points="651.5,-.5 651.5,-19.5 731.5,-19.5 731.5,-.5 651.5,-.5"/>
<text text-anchor="middle" x="691.5" y="-7.5" font-family="FreeSans.ttf" font-size="10.00" fill="#000000">CoreExport.h</text>
</g>
<!-- Node3&#45;&gt;Node5 -->
<g id="edge5" class="edge">
<title>Node3&#45;&gt;Node5</title>
<path fill="none" stroke="#191970" d="M597.0973,-56.3733C615.2331,-47.4644 642.4135,-34.1127 662.9587,-24.0203"/>
<polygon fill="#191970" stroke="#191970" points="664.7261,-27.0517 672.1584,-19.5011 661.6397,-20.7688 664.7261,-27.0517"/>
</g>
<!-- Node6&#45;&gt;Node4 -->
<g id="edge10" class="edge">
<title>Node6&#45;&gt;Node4</title>
<path fill="none" stroke="#191970" d="M363.1967,-56.4408C396.3708,-47.7675 446.8069,-34.5031 499.844,-20.1548"/>
<polygon fill="#191970" stroke="#191970" points="501.0375,-23.4577 509.7739,-17.4639 499.2065,-16.7014 501.0375,-23.4577"/>
</g>
<!-- Node6&#45;&gt;Node7 -->
<g id="edge7" class="edge">
<title>Node6&#45;&gt;Node7</title>
<path fill="none" stroke="#191970" d="M385.2055,-56.4271C435.0212,-47.9582 508.2671,-34.6903 571.5,-20 571.5987,-19.9771 571.6976,-19.954 571.7966,-19.9309"/>
<polygon fill="#191970" stroke="#191970" points="572.3656,-23.3964 581.2204,-17.5789 570.6704,-16.6047 572.3656,-23.3964"/>
</g>
<!-- Node8 -->
<g id="node9" class="node">
<title>Node8</title>
<polygon fill="none" stroke="#bfbfbf" points="367.5,-.5 367.5,-19.5 431.5,-19.5 431.5,-.5 367.5,-.5"/>
<text text-anchor="middle" x="399.5" y="-7.5" font-family="FreeSans.ttf" font-size="10.00" fill="#000000">algorithm</text>
</g>
<!-- Node6&#45;&gt;Node8 -->
<g id="edge8" class="edge">
<title>Node6&#45;&gt;Node8</title>
<path fill="none" stroke="#191970" d="M339.2156,-56.2455C350.102,-47.8943 365.9883,-35.7076 378.72,-25.9408"/>
<polygon fill="#191970" stroke="#191970" points="381.1261,-28.5063 386.9301,-19.6427 376.8654,-22.9523 381.1261,-28.5063"/>
</g>
<!-- Node9 -->
<g id="node10" class="node">
<title>Node9</title>
<polygon fill="none" stroke="#bfbfbf" points="449.5,-.5 449.5,-19.5 491.5,-19.5 491.5,-.5 449.5,-.5"/>
<text text-anchor="middle" x="470.5" y="-7.5" font-family="FreeSans.ttf" font-size="10.00" fill="#000000">array</text>
</g>
<!-- Node6&#45;&gt;Node9 -->
<g id="edge9" class="edge">
<title>Node6&#45;&gt;Node9</title>
<path fill="none" stroke="#191970" d="M351.2545,-56.3733C375.7831,-46.8343 413.4096,-32.2018 439.8214,-21.9306"/>
<polygon fill="#191970" stroke="#191970" points="441.2927,-25.1138 449.3442,-18.2273 438.7555,-18.5898 441.2927,-25.1138"/>
</g>
<!-- Node10 -->
<g id="node11" class="node">
<title>Node10</title>
<polygon fill="none" stroke="#bfbfbf" points="0,-.5 0,-19.5 53,-19.5 53,-.5 0,-.5"/>
<text text-anchor="middle" x="26.5" y="-7.5" font-family="FreeSans.ttf" font-size="10.00" fill="#000000">iterator</text>
</g>
<!-- Node6&#45;&gt;Node10 -->
<g id="edge11" class="edge">
<title>Node6&#45;&gt;Node10</title>
<path fill="none" stroke="#191970" d="M265.875,-57.174C214.4566,-49.2938 138.5752,-36.7396 63.2961,-20.0009"/>
<polygon fill="#191970" stroke="#191970" points="63.6867,-16.5014 53.1623,-17.7211 62.1502,-23.3307 63.6867,-16.5014"/>
</g>
<!-- Node11 -->
<g id="node12" class="node">
<title>Node11</title>
<polygon fill="none" stroke="#bfbfbf" points="71.5,-.5 71.5,-19.5 115.5,-19.5 115.5,-.5 71.5,-.5"/>
<text text-anchor="middle" x="93.5" y="-7.5" font-family="FreeSans.ttf" font-size="10.00" fill="#000000">limits</text>
</g>
<!-- Node6&#45;&gt;Node11 -->
<g id="edge12" class="edge">
<title>Node6&#45;&gt;Node11</title>
<path fill="none" stroke="#191970" d="M279.2689,-56.4751C240.3124,-48.342 183.434,-35.834 125.4685,-20.1035"/>
<polygon fill="#191970" stroke="#191970" points="126.3501,-16.7161 115.7804,-17.4466 124.4986,-23.4668 126.3501,-16.7161"/>
</g>
<!-- Node12 -->
<g id="node13" class="node">
<title>Node12</title>
<polygon fill="none" stroke="#bfbfbf" points="134,-.5 134,-19.5 199,-19.5 199,-.5 134,-.5"/>
<text text-anchor="middle" x="166.5" y="-7.5" font-family="FreeSans.ttf" font-size="10.00" fill="#000000">stdexcept</text>
</g>
<!-- Node6&#45;&gt;Node12 -->
<g id="edge13" class="edge">
<title>Node6&#45;&gt;Node12</title>
<path fill="none" stroke="#191970" d="M298.995,-56.3733C272.6198,-47.1419 232.6149,-33.1402 203.4642,-22.9375"/>
<polygon fill="#191970" stroke="#191970" points="204.2409,-19.5012 193.6461,-19.5011 201.9284,-26.1082 204.2409,-19.5012"/>
</g>
<!-- Node13 -->
<g id="node14" class="node">
<title>Node13</title>
<polygon fill="none" stroke="#bfbfbf" points="217,-.5 217,-19.5 286,-19.5 286,-.5 217,-.5"/>
<text text-anchor="middle" x="251.5" y="-7.5" font-family="FreeSans.ttf" font-size="10.00" fill="#000000">type_traits</text>
</g>
<!-- Node6&#45;&gt;Node13 -->
<g id="edge14" class="edge">
<title>Node6&#45;&gt;Node13</title>
<path fill="none" stroke="#191970" d="M313.436,-56.2455C302.1438,-47.814 285.6155,-35.4729 272.4729,-25.6598"/>
<polygon fill="#191970" stroke="#191970" points="274.5211,-22.8211 264.4143,-19.6427 270.3331,-28.4301 274.5211,-22.8211"/>
</g>
<!-- Node14 -->
<g id="node15" class="node">
<title>Node14</title>
<polygon fill="none" stroke="#bfbfbf" points="304,-.5 304,-19.5 349,-19.5 349,-.5 304,-.5"/>
<text text-anchor="middle" x="326.5" y="-7.5" font-family="FreeSans.ttf" font-size="10.00" fill="#000000">utility</text>
</g>
<!-- Node6&#45;&gt;Node14 -->
<g id="edge15" class="edge">
<title>Node6&#45;&gt;Node14</title>
<path fill="none" stroke="#191970" d="M326.5,-56.2455C326.5,-48.9382 326.5,-38.6944 326.5,-29.7046"/>
<polygon fill="#191970" stroke="#191970" points="330.0001,-29.6426 326.5,-19.6427 323.0001,-29.6427 330.0001,-29.6426"/>
</g>
<!-- Node18&#45;&gt;Node1 -->
<g id="edge22" class="edge">
<title>Node18&#45;&gt;Node1</title>
<path fill="none" stroke="#191970" d="M635.3395,-224.2455C617.9889,-215.4125 592.2099,-202.2887 572.5417,-192.2758"/>
<polygon fill="#191970" stroke="#191970" points="573.9405,-189.0605 563.441,-187.6427 570.7647,-195.2986 573.9405,-189.0605"/>
</g>
<!-- Node18&#45;&gt;Node2 -->
<g id="edge32" class="edge">
<title>Node18&#45;&gt;Node2</title>
<path fill="none" stroke="#191970" d="M653.9131,-224.375C652.5945,-210.447 648.322,-184.535 634.5,-168 622.1757,-153.2567 603.9267,-142.7095 587.077,-135.4663"/>
<polygon fill="#191970" stroke="#191970" points="587.9575,-132.0486 577.3731,-131.5767 585.353,-138.5461 587.9575,-132.0486"/>
</g>
<!-- Node18&#45;&gt;Node15 -->
<g id="edge21" class="edge">
<title>Node18&#45;&gt;Node15</title>
<path fill="none" stroke="#191970" d="M709.312,-224.4227C763.6652,-214.4009 840.1688,-198.6694 849.5,-188 874.2644,-159.6842 870.5529,-112.3119 865.8818,-85.6955"/>
<polygon fill="#191970" stroke="#191970" points="869.2739,-84.8068 863.9013,-75.6753 862.4068,-86.1642 869.2739,-84.8068"/>
</g>
<!-- Node19 -->
<g id="node20" class="node">
<title>Node19</title>
<g id="a_node20"><a xlink:href="RotationRaw_8h.html" target="_top" xlink:title="iDynTree/Core/RotationRaw.h">
<polygon fill="none" stroke="#000000" points="682.5,-168.5 682.5,-187.5 840.5,-187.5 840.5,-168.5 682.5,-168.5"/>
<text text-anchor="middle" x="761.5" y="-175.5" font-family="FreeSans.ttf" font-size="10.00" fill="#000000">iDynTree/Core/RotationRaw.h</text>
</a>
</g>
</g>
<!-- Node18&#45;&gt;Node19 -->
<g id="edge23" class="edge">
<title>Node18&#45;&gt;Node19</title>
<path fill="none" stroke="#191970" d="M673.138,-224.2455C689.9386,-215.4527 714.8634,-202.4079 733.9618,-192.4125"/>
<polygon fill="#191970" stroke="#191970" points="735.8386,-195.3807 743.0756,-187.6427 732.5927,-189.1787 735.8386,-195.3807"/>
</g>
<!-- Node19&#45;&gt;Node15 -->
<g id="edge31" class="edge">
<title>Node19&#45;&gt;Node15</title>
<path fill="none" stroke="#191970" d="M773.7414,-168.4535C784.7341,-159.5926 801.0159,-145.7365 813.5,-132 827.1265,-117.0065 840.507,-98.1697 849.6644,-84.4618"/>
<polygon fill="#191970" stroke="#191970" points="852.7215,-86.1824 855.2806,-75.9013 846.8687,-82.3426 852.7215,-86.1824"/>
</g>
<!-- Node20 -->
<g id="node21" class="node">
<title>Node20</title>
<g id="a_node21"><a xlink:href="MatrixFixSize_8h.html" target="_top" xlink:title="iDynTree/Core/MatrixFixSize.h">
<polygon fill="none" stroke="#000000" points="643,-112.5 643,-131.5 804,-131.5 804,-112.5 643,-112.5"/>
<text text-anchor="middle" x="723.5" y="-119.5" font-family="FreeSans.ttf" font-size="10.00" fill="#000000">iDynTree/Core/MatrixFixSize.h</text>
</a>
</g>
</g>
<!-- Node19&#45;&gt;Node20 -->
<g id="edge24" class="edge">
<title>Node19&#45;&gt;Node20</title>
<path fill="none" stroke="#191970" d="M754.8809,-168.2455C749.5954,-160.4564 742.0459,-149.3308 735.6762,-139.9439"/>
<polygon fill="#191970" stroke="#191970" points="738.5545,-137.9522 730.0432,-131.6427 732.7621,-141.8827 738.5545,-137.9522"/>
</g>
<!-- Node20&#45;&gt;Node3 -->
<g id="edge25" class="edge">
<title>Node20&#45;&gt;Node3</title>
<path fill="none" stroke="#191970" d="M698.4017,-112.3733C674.5445,-103.2226 638.4665,-89.3844 611.929,-79.2057"/>
<polygon fill="#191970" stroke="#191970" points="612.861,-75.8145 602.2708,-75.5011 610.3541,-82.3503 612.861,-75.8145"/>
</g>
<!-- Node20&#45;&gt;Node7 -->
<g id="edge26" class="edge">
<title>Node20&#45;&gt;Node7</title>
<path fill="none" stroke="#191970" d="M724.9228,-112.3841C726.4307,-98.4674 727.1,-72.5693 714.5,-56 705.3978,-44.0305 670.754,-30.4419 643.3201,-21.156"/>
<polygon fill="#191970" stroke="#191970" points="644.193,-17.7583 633.5998,-17.9405 641.9945,-24.4041 644.193,-17.7583"/>
</g>
<!-- Node20&#45;&gt;Node15 -->
<g id="edge28" class="edge">
<title>Node20&#45;&gt;Node15</title>
<path fill="none" stroke="#191970" d="M747.223,-112.3733C770.0818,-103.0972 804.8104,-89.0045 829.983,-78.7895"/>
<polygon fill="#191970" stroke="#191970" points="831.5022,-81.9503 839.4522,-74.9469 828.87,-75.464 831.5022,-81.9503"/>
</g>
<!-- Node20&#45;&gt;Node16 -->
<g id="edge30" class="edge">
<title>Node20&#45;&gt;Node16</title>
<path fill="none" stroke="#191970" d="M675.5145,-112.4946C634.0515,-104.11 572.3005,-91.2154 509.7798,-76.2228"/>
<polygon fill="#191970" stroke="#191970" points="510.2842,-72.744 499.742,-73.7989 508.641,-79.5485 510.2842,-72.744"/>
</g>
<!-- Node20&#45;&gt;Node17 -->
<g id="edge27" class="edge">
<title>Node20&#45;&gt;Node17</title>
<path fill="none" stroke="#191970" d="M716.01,-112.2455C709.9674,-104.3761 701.3097,-93.101 694.0559,-83.6542"/>
<polygon fill="#191970" stroke="#191970" points="696.7705,-81.4426 687.9042,-75.6427 691.2185,-85.7058 696.7705,-81.4426"/>
</g>
<!-- Node21 -->
<g id="node22" class="node">
<title>Node21</title>
<polygon fill="none" stroke="#bfbfbf" points="761.5,-56.5 761.5,-75.5 821.5,-75.5 821.5,-56.5 761.5,-56.5"/>
<text text-anchor="middle" x="791.5" y="-63.5" font-family="FreeSans.ttf" font-size="10.00" fill="#000000">iostream</text>
</g>
<!-- Node20&#45;&gt;Node21 -->
<g id="edge29" class="edge">
<title>Node20&#45;&gt;Node21</title>
<path fill="none" stroke="#191970" d="M735.3447,-112.2455C745.388,-103.9746 759.9995,-91.9416 771.8004,-82.2232"/>
<polygon fill="#191970" stroke="#191970" points="774.2967,-84.7015 779.791,-75.6427 769.8467,-79.298 774.2967,-84.7015"/>
</g>
</g>
</svg>
