<?xml version="1.0" encoding="UTF-8" standalone="no"?>
<!DOCTYPE svg PUBLIC "-//W3C//DTD SVG 1.1//EN"
 "http://www.w3.org/Graphics/SVG/1.1/DTD/svg11.dtd">
<!-- Generated by graphviz version 2.40.1 (20161225.0304)
 -->
<!-- Title: GravityCompensationHelpers.h Pages: 1 -->
<svg width="2016pt" height="733pt"
 viewBox="0.00 0.00 2015.50 733.00" xmlns="http://www.w3.org/2000/svg" xmlns:xlink="http://www.w3.org/1999/xlink">
<g id="graph0" class="graph" transform="scale(1 1) rotate(0) translate(4 729)">
<title>GravityCompensationHelpers.h</title>
<!-- Node0 -->
<g id="node1" class="node">
<title>Node0</title>
<polygon fill="#bfbfbf" stroke="#000000" points="889,-705.5 889,-724.5 1059,-724.5 1059,-705.5 889,-705.5"/>
<text text-anchor="middle" x="974" y="-712.5" font-family="FreeSans.ttf" font-size="10.00" fill="#000000">GravityCompensationHelpers.h</text>
</g>
<!-- Node1 -->
<g id="node2" class="node">
<title>Node1</title>
<g id="a_node2"><a xlink:href="FreeFloatingState_8h.html" target="_top" xlink:title="iDynTree/Model/FreeFloating\lState.h">
<polygon fill="none" stroke="#000000" points="965,-582.5 965,-612.5 1119,-612.5 1119,-582.5 965,-582.5"/>
<text text-anchor="start" x="973" y="-600.5" font-family="FreeSans.ttf" font-size="10.00" fill="#000000">iDynTree/Model/FreeFloating</text>
<text text-anchor="middle" x="1042" y="-589.5" font-family="FreeSans.ttf" font-size="10.00" fill="#000000">State.h</text>
</a>
</g>
</g>
<!-- Node0&#45;&gt;Node1 -->
<g id="edge1" class="edge">
<title>Node0&#45;&gt;Node1</title>
<path fill="none" stroke="#191970" d="M979.5647,-705.3845C990.0738,-687.2254 1013.1258,-647.393 1028.0873,-621.5404"/>
<polygon fill="#191970" stroke="#191970" points="1031.2155,-623.1226 1033.1951,-612.7143 1025.1569,-619.6163 1031.2155,-623.1226"/>
</g>
<!-- Node6 -->
<g id="node7" class="node">
<title>Node6</title>
<g id="a_node7"><a xlink:href="Utils_8h.html" target="_top" xlink:title="iDynTree/Core/Utils.h">
<polygon fill="none" stroke="#000000" points="165.5,-56.5 165.5,-75.5 284.5,-75.5 284.5,-56.5 165.5,-56.5"/>
<text text-anchor="middle" x="225" y="-63.5" font-family="FreeSans.ttf" font-size="10.00" fill="#000000">iDynTree/Core/Utils.h</text>
</a>
</g>
</g>
<!-- Node0&#45;&gt;Node6 -->
<g id="edge115" class="edge">
<title>Node0&#45;&gt;Node6</title>
<path fill="none" stroke="#191970" d="M888.7494,-713.4158C712.9301,-709.5966 315.4513,-697.963 183,-669 97.6948,-650.3464 0,-684.8209 0,-597.5 0,-597.5 0,-597.5 0,-183.5 0,-112.4516 89.2401,-84.2897 155.3171,-73.1757"/>
<polygon fill="#191970" stroke="#191970" points="155.9655,-76.6167 165.2948,-71.5953 154.8704,-69.7028 155.9655,-76.6167"/>
</g>
<!-- Node39 -->
<g id="node37" class="node">
<title>Node39</title>
<g id="a_node37"><a xlink:href="Model_8h.html" target="_top" xlink:title="iDynTree/Model/Model.h">
<polygon fill="none" stroke="#000000" points="1645.5,-649.5 1645.5,-668.5 1778.5,-668.5 1778.5,-649.5 1645.5,-649.5"/>
<text text-anchor="middle" x="1712" y="-656.5" font-family="FreeSans.ttf" font-size="10.00" fill="#000000">iDynTree/Model/Model.h</text>
</a>
</g>
</g>
<!-- Node0&#45;&gt;Node39 -->
<g id="edge77" class="edge">
<title>Node0&#45;&gt;Node39</title>
<path fill="none" stroke="#191970" d="M1059.0182,-708.5488C1203.8733,-697.557 1496.3121,-675.3666 1635.2921,-664.8207"/>
<polygon fill="#191970" stroke="#191970" points="1635.7265,-668.2978 1645.433,-664.0512 1635.1968,-661.3179 1635.7265,-668.2978"/>
</g>
<!-- Node48 -->
<g id="node43" class="node">
<title>Node48</title>
<g id="a_node43"><a xlink:href="Traversal_8h.html" target="_top" xlink:title="iDynTree/Model/Traversal.h">
<polygon fill="none" stroke="#000000" points="1430,-526.5 1430,-545.5 1578,-545.5 1578,-526.5 1430,-526.5"/>
<text text-anchor="middle" x="1504" y="-533.5" font-family="FreeSans.ttf" font-size="10.00" fill="#000000">iDynTree/Model/Traversal.h</text>
</a>
</g>
</g>
<!-- Node0&#45;&gt;Node48 -->
<g id="edge96" class="edge">
<title>Node0&#45;&gt;Node48</title>
<path fill="none" stroke="#191970" d="M989.6461,-705.3602C1017.8705,-687.8131 1078.9337,-649.1254 1128,-613 1145.5518,-600.0773 1146.0086,-590.6836 1166,-582 1188.8075,-572.0931 1327.1729,-555.3858 1419.6511,-545.0653"/>
<polygon fill="#191970" stroke="#191970" points="1420.2971,-548.5152 1429.8494,-543.9323 1419.5241,-541.558 1420.2971,-548.5152"/>
</g>
<!-- Node49 -->
<g id="node44" class="node">
<title>Node49</title>
<g id="a_node44"><a xlink:href="Dynamics_8h.html" target="_top" xlink:title="iDynTree/Model/Dynamics.h">
<polygon fill="none" stroke="#000000" points="1175,-588 1175,-607 1327,-607 1327,-588 1175,-588"/>
<text text-anchor="middle" x="1251" y="-595" font-family="FreeSans.ttf" font-size="10.00" fill="#000000">iDynTree/Model/Dynamics.h</text>
</a>
</g>
</g>
<!-- Node0&#45;&gt;Node49 -->
<g id="edge99" class="edge">
<title>Node0&#45;&gt;Node49</title>
<path fill="none" stroke="#191970" d="M1042.1976,-705.4915C1078.7472,-698.6295 1123.784,-687.2662 1161,-669 1189.3268,-655.0968 1216.9972,-631.09 1234.0147,-614.7655"/>
<polygon fill="#191970" stroke="#191970" points="1236.7855,-616.9501 1241.4692,-607.4467 1231.8814,-611.9551 1236.7855,-616.9501"/>
</g>
<!-- Node51 -->
<g id="node46" class="node">
<title>Node51</title>
<g id="a_node46"><a xlink:href="EigenHelpers_8h.html" target="_top" xlink:title="iDynTree/Core/EigenHelpers.h">
<polygon fill="none" stroke="#000000" points="276.5,-470.5 276.5,-489.5 437.5,-489.5 437.5,-470.5 276.5,-470.5"/>
<text text-anchor="middle" x="357" y="-477.5" font-family="FreeSans.ttf" font-size="10.00" fill="#000000">iDynTree/Core/EigenHelpers.h</text>
</a>
</g>
</g>
<!-- Node0&#45;&gt;Node51 -->
<g id="edge105" class="edge">
<title>Node0&#45;&gt;Node51</title>
<path fill="none" stroke="#191970" d="M937.7832,-705.4537C853.8944,-682.7773 640.5557,-621.8546 472,-546 438.7901,-531.0547 402.7078,-509.3758 379.9862,-494.9934"/>
<polygon fill="#191970" stroke="#191970" points="381.7081,-491.9401 371.3979,-489.5008 377.9367,-497.8372 381.7081,-491.9401"/>
</g>
<!-- Node53 -->
<g id="node48" class="node">
<title>Node53</title>
<g id="a_node48"><a xlink:href="ClassicalAcc_8h.html" target="_top" xlink:title="iDynTree/Core/ClassicalAcc.h">
<polygon fill="none" stroke="#000000" points="66,-347.5 66,-366.5 224,-366.5 224,-347.5 66,-347.5"/>
<text text-anchor="middle" x="145" y="-354.5" font-family="FreeSans.ttf" font-size="10.00" fill="#000000">iDynTree/Core/ClassicalAcc.h</text>
</a>
</g>
</g>
<!-- Node0&#45;&gt;Node53 -->
<g id="edge116" class="edge">
<title>Node0&#45;&gt;Node53</title>
<path fill="none" stroke="#191970" d="M888.7088,-712.7026C664.5529,-705.5369 76,-678.9657 76,-597.5 76,-597.5 76,-597.5 76,-480 76,-437.695 107.4313,-396.4659 127.8663,-374.1313"/>
<polygon fill="#191970" stroke="#191970" points="130.4834,-376.4579 134.8188,-366.7907 125.4011,-371.6443 130.4834,-376.4579"/>
</g>
<!-- Node54 -->
<g id="node49" class="node">
<title>Node54</title>
<g id="a_node49"><a xlink:href="ExternalWrenchesEstimation_8h.html" target="_top" xlink:title="iDynTree/Estimation\l/ExternalWrenchesEstimation.h">
<polygon fill="none" stroke="#000000" points="777.5,-582.5 777.5,-612.5 946.5,-612.5 946.5,-582.5 777.5,-582.5"/>
<text text-anchor="start" x="785.5" y="-600.5" font-family="FreeSans.ttf" font-size="10.00" fill="#000000">iDynTree/Estimation</text>
<text text-anchor="middle" x="862" y="-589.5" font-family="FreeSans.ttf" font-size="10.00" fill="#000000">/ExternalWrenchesEstimation.h</text>
</a>
</g>
</g>
<!-- Node0&#45;&gt;Node54 -->
<g id="edge118" class="edge">
<title>Node0&#45;&gt;Node54</title>
<path fill="none" stroke="#191970" d="M964.8346,-705.3845C947.2218,-686.9068 908.219,-645.9887 883.6306,-620.1928"/>
<polygon fill="#191970" stroke="#191970" points="885.9353,-617.5379 876.5022,-612.7143 880.8683,-622.3677 885.9353,-617.5379"/>
</g>
<!-- Node2 -->
<g id="node3" class="node">
<title>Node2</title>
<g id="a_node3"><a xlink:href="Transform_8h.html" target="_top" xlink:title="iDynTree/Core/Transform.h">
<polygon fill="none" stroke="#000000" points="1189,-409 1189,-428 1335,-428 1335,-409 1189,-409"/>
<text text-anchor="middle" x="1262" y="-416" font-family="FreeSans.ttf" font-size="10.00" fill="#000000">iDynTree/Core/Transform.h</text>
</a>
</g>
</g>
<!-- Node1&#45;&gt;Node2 -->
<g id="edge2" class="edge">
<title>Node1&#45;&gt;Node2</title>
<path fill="none" stroke="#191970" d="M1103.7009,-582.4809C1176.7725,-563.1946 1291.3514,-527.6909 1313,-490 1324.6564,-469.7058 1304.0007,-448.0436 1285.5898,-433.9496"/>
<polygon fill="#191970" stroke="#191970" points="1287.5676,-431.0606 1277.4128,-428.0386 1283.4666,-436.7336 1287.5676,-431.0606"/>
</g>
<!-- Node26 -->
<g id="node24" class="node">
<title>Node26</title>
<g id="a_node24"><a xlink:href="Twist_8h.html" target="_top" xlink:title="iDynTree/Core/Twist.h">
<polygon fill="none" stroke="#000000" points="646,-470.5 646,-489.5 768,-489.5 768,-470.5 646,-470.5"/>
<text text-anchor="middle" x="707" y="-477.5" font-family="FreeSans.ttf" font-size="10.00" fill="#000000">iDynTree/Core/Twist.h</text>
</a>
</g>
</g>
<!-- Node1&#45;&gt;Node26 -->
<g id="edge39" class="edge">
<title>Node1&#45;&gt;Node26</title>
<path fill="none" stroke="#191970" d="M964.977,-583.5013C886.0902,-569.0769 774.3546,-548.367 770,-546 748.826,-534.4906 730.5683,-513.3506 719.2391,-498.092"/>
<polygon fill="#191970" stroke="#191970" points="722.0559,-496.0137 713.3996,-489.9048 716.3569,-500.0785 722.0559,-496.0137"/>
</g>
<!-- Node29 -->
<g id="node27" class="node">
<title>Node29</title>
<g id="a_node27"><a xlink:href="VectorDynSize_8h.html" target="_top" xlink:title="iDynTree/Core/VectorDynSize.h">
<polygon fill="none" stroke="#000000" points="389.5,-409 389.5,-428 556.5,-428 556.5,-409 389.5,-409"/>
<text text-anchor="middle" x="473" y="-416" font-family="FreeSans.ttf" font-size="10.00" fill="#000000">iDynTree/Core/VectorDynSize.h</text>
</a>
</g>
</g>
<!-- Node1&#45;&gt;Node29 -->
<g id="edge50" class="edge">
<title>Node1&#45;&gt;Node29</title>
<path fill="none" stroke="#191970" d="M964.6974,-583.2228C961.7641,-582.7906 958.8572,-582.3809 956,-582 864.4626,-569.7972 619.2072,-596.666 542,-546 503.7493,-520.8986 485.0302,-467.1596 477.3911,-438.1083"/>
<polygon fill="#191970" stroke="#191970" points="480.766,-437.1748 474.9882,-428.294 473.9668,-438.8395 480.766,-437.1748"/>
</g>
<!-- Node30 -->
<g id="node28" class="node">
<title>Node30</title>
<g id="a_node28"><a xlink:href="Indices_8h.html" target="_top" xlink:title="iDynTree/Model/Indices.h">
<polygon fill="none" stroke="#000000" points="1613,-470.5 1613,-489.5 1751,-489.5 1751,-470.5 1613,-470.5"/>
<text text-anchor="middle" x="1682" y="-477.5" font-family="FreeSans.ttf" font-size="10.00" fill="#000000">iDynTree/Model/Indices.h</text>
</a>
</g>
</g>
<!-- Node1&#45;&gt;Node30 -->
<g id="edge53" class="edge">
<title>Node1&#45;&gt;Node30</title>
<path fill="none" stroke="#191970" d="M1119.2268,-584.2938C1203.871,-569.7981 1329.1928,-548.2651 1340,-546 1376.2926,-538.3934 1384.7201,-533.6669 1421,-526 1485.0709,-512.4601 1558.5739,-499.7571 1611.2169,-491.1457"/>
<polygon fill="#191970" stroke="#191970" points="1611.8195,-494.5937 1621.1273,-489.5325 1610.6948,-487.6847 1611.8195,-494.5937"/>
</g>
<!-- Node32 -->
<g id="node30" class="node">
<title>Node32</title>
<g id="a_node30"><a xlink:href="LinkState_8h.html" target="_top" xlink:title="iDynTree/Model/LinkState.h">
<polygon fill="none" stroke="#000000" points="959.5,-526.5 959.5,-545.5 1108.5,-545.5 1108.5,-526.5 959.5,-526.5"/>
<text text-anchor="middle" x="1034" y="-533.5" font-family="FreeSans.ttf" font-size="10.00" fill="#000000">iDynTree/Model/LinkState.h</text>
</a>
</g>
</g>
<!-- Node1&#45;&gt;Node32 -->
<g id="edge56" class="edge">
<title>Node1&#45;&gt;Node32</title>
<path fill="none" stroke="#191970" d="M1040.0225,-582.2977C1038.9814,-574.2945 1037.6923,-564.3843 1036.5742,-555.7889"/>
<polygon fill="#191970" stroke="#191970" points="1040.0417,-555.3119 1035.2809,-545.8469 1033.1002,-556.2149 1040.0417,-555.3119"/>
</g>
<!-- Node37 -->
<g id="node35" class="node">
<title>Node37</title>
<polygon fill="none" stroke="#bfbfbf" points="1256.5,-470.5 1256.5,-489.5 1303.5,-489.5 1303.5,-470.5 1256.5,-470.5"/>
<text text-anchor="middle" x="1280" y="-477.5" font-family="FreeSans.ttf" font-size="10.00" fill="#000000">vector</text>
</g>
<!-- Node1&#45;&gt;Node37 -->
<g id="edge76" class="edge">
<title>Node1&#45;&gt;Node37</title>
<path fill="none" stroke="#191970" d="M1096.2307,-582.404C1124.404,-573.5698 1158.9252,-561.1628 1188,-546 1214.9611,-531.9395 1242.9305,-510.7734 1260.8457,-496.2225"/>
<polygon fill="#191970" stroke="#191970" points="1263.2994,-498.7355 1268.7843,-489.6709 1258.8438,-493.3366 1263.2994,-498.7355"/>
</g>
<!-- Node38 -->
<g id="node36" class="node">
<title>Node38</title>
<g id="a_node36"><a xlink:href="JointState_8h.html" target="_top" xlink:title="iDynTree/Model/JointState.h">
<polygon fill="none" stroke="#000000" points="550.5,-526.5 550.5,-545.5 701.5,-545.5 701.5,-526.5 550.5,-526.5"/>
<text text-anchor="middle" x="626" y="-533.5" font-family="FreeSans.ttf" font-size="10.00" fill="#000000">iDynTree/Model/JointState.h</text>
</a>
</g>
</g>
<!-- Node1&#45;&gt;Node38 -->
<g id="edge71" class="edge">
<title>Node1&#45;&gt;Node38</title>
<path fill="none" stroke="#191970" d="M964.6696,-583.4126C961.7441,-582.9273 958.8464,-582.4547 956,-582 872.7359,-568.6987 777.301,-555.6309 710.5513,-546.8432"/>
<polygon fill="#191970" stroke="#191970" points="710.8744,-543.3557 700.5039,-545.5243 709.9632,-550.2961 710.8744,-543.3557"/>
</g>
<!-- Node3 -->
<g id="node4" class="node">
<title>Node3</title>
<g id="a_node4"><a xlink:href="Position_8h.html" target="_top" xlink:title="iDynTree/Core/Position.h">
<polygon fill="none" stroke="#000000" points="1315,-291.5 1315,-310.5 1451,-310.5 1451,-291.5 1315,-291.5"/>
<text text-anchor="middle" x="1383" y="-298.5" font-family="FreeSans.ttf" font-size="10.00" fill="#000000">iDynTree/Core/Position.h</text>
</a>
</g>
</g>
<!-- Node2&#45;&gt;Node3 -->
<g id="edge3" class="edge">
<title>Node2&#45;&gt;Node3</title>
<path fill="none" stroke="#191970" d="M1271.9019,-408.8845C1292.4645,-388.9167 1340.0135,-342.743 1365.7339,-317.7667"/>
<polygon fill="#191970" stroke="#191970" points="1368.2255,-320.2259 1372.9612,-310.7484 1363.3488,-315.204 1368.2255,-320.2259"/>
</g>
<!-- Node18 -->
<g id="node16" class="node">
<title>Node18</title>
<polygon fill="none" stroke="#bfbfbf" points="1329,-56.5 1329,-75.5 1373,-75.5 1373,-56.5 1329,-56.5"/>
<text text-anchor="middle" x="1351" y="-63.5" font-family="FreeSans.ttf" font-size="10.00" fill="#000000">string</text>
</g>
<!-- Node2&#45;&gt;Node18 -->
<g id="edge38" class="edge">
<title>Node2&#45;&gt;Node18</title>
<path fill="none" stroke="#191970" d="M1264.5915,-408.9765C1270.5996,-387.4424 1286.4688,-333.5658 1306,-291 1313.725,-274.1644 1318.4238,-271.4183 1327,-255 1353.6152,-204.0478 1361.0898,-189.1801 1367,-132 1367.9139,-123.1582 1368.4808,-120.7647 1367,-112 1365.455,-102.8551 1362.2966,-93.1019 1359.191,-84.9405"/>
<polygon fill="#191970" stroke="#191970" points="1362.4127,-83.5713 1355.411,-75.6198 1355.9258,-86.2021 1362.4127,-83.5713"/>
</g>
<!-- Node21 -->
<g id="node19" class="node">
<title>Node21</title>
<g id="a_node19"><a xlink:href="Rotation_8h.html" target="_top" xlink:title="iDynTree/Core/Rotation.h">
<polygon fill="none" stroke="#000000" points="1180.5,-235.5 1180.5,-254.5 1317.5,-254.5 1317.5,-235.5 1180.5,-235.5"/>
<text text-anchor="middle" x="1249" y="-242.5" font-family="FreeSans.ttf" font-size="10.00" fill="#000000">iDynTree/Core/Rotation.h</text>
</a>
</g>
</g>
<!-- Node2&#45;&gt;Node21 -->
<g id="edge36" class="edge">
<title>Node2&#45;&gt;Node21</title>
<path fill="none" stroke="#191970" d="M1261.2825,-408.9248C1259.2276,-381.499 1253.2883,-302.232 1250.4908,-264.8964"/>
<polygon fill="#191970" stroke="#191970" points="1253.9688,-264.47 1249.7313,-254.7595 1246.9883,-264.9931 1253.9688,-264.47"/>
</g>
<!-- Node24 -->
<g id="node22" class="node">
<title>Node24</title>
<g id="a_node22"><a xlink:href="MatrixFixSize_8h.html" target="_top" xlink:title="iDynTree/Core/MatrixFixSize.h">
<polygon fill="none" stroke="#000000" points="711.5,-112.5 711.5,-131.5 872.5,-131.5 872.5,-112.5 711.5,-112.5"/>
<text text-anchor="middle" x="792" y="-119.5" font-family="FreeSans.ttf" font-size="10.00" fill="#000000">iDynTree/Core/MatrixFixSize.h</text>
</a>
</g>
</g>
<!-- Node2&#45;&gt;Node24 -->
<g id="edge37" class="edge">
<title>Node2&#45;&gt;Node24</title>
<path fill="none" stroke="#191970" d="M1246.8946,-408.9707C1178.7435,-365.9775 899.6004,-189.8798 815.858,-137.0509"/>
<polygon fill="#191970" stroke="#191970" points="817.6105,-134.0182 807.2854,-131.6428 813.8756,-139.9386 817.6105,-134.0182"/>
</g>
<!-- Node4 -->
<g id="node5" class="node">
<title>Node4</title>
<g id="a_node5"><a xlink:href="PositionRaw_8h.html" target="_top" xlink:title="iDynTree/Core/PositionRaw.h">
<polygon fill="none" stroke="#000000" points="1417,-174 1417,-193 1573,-193 1573,-174 1417,-174"/>
<text text-anchor="middle" x="1495" y="-181" font-family="FreeSans.ttf" font-size="10.00" fill="#000000">iDynTree/Core/PositionRaw.h</text>
</a>
</g>
</g>
<!-- Node3&#45;&gt;Node4 -->
<g id="edge4" class="edge">
<title>Node3&#45;&gt;Node4</title>
<path fill="none" stroke="#191970" d="M1392.1654,-291.3845C1411.1165,-271.5028 1454.8319,-225.6406 1478.7092,-200.5908"/>
<polygon fill="#191970" stroke="#191970" points="1481.3417,-202.9017 1485.7079,-193.2484 1476.2748,-198.072 1481.3417,-202.9017"/>
</g>
<!-- Node3&#45;&gt;Node18 -->
<g id="edge35" class="edge">
<title>Node3&#45;&gt;Node18</title>
<path fill="none" stroke="#191970" d="M1427.5388,-291.4809C1498.3483,-274.1721 1624.4787,-233.1924 1582,-168 1537.4426,-99.6174 1435.5218,-76.7504 1383.2373,-69.3635"/>
<polygon fill="#191970" stroke="#191970" points="1383.5423,-65.8736 1373.1728,-68.0473 1382.6346,-72.8145 1383.5423,-65.8736"/>
</g>
<!-- Node3&#45;&gt;Node21 -->
<g id="edge21" class="edge">
<title>Node3&#45;&gt;Node21</title>
<path fill="none" stroke="#191970" d="M1359.9646,-291.3733C1338.2612,-282.3032 1305.5382,-268.6279 1281.245,-258.4755"/>
<polygon fill="#191970" stroke="#191970" points="1282.3111,-255.1278 1271.7348,-254.5011 1279.6119,-261.5865 1282.3111,-255.1278"/>
</g>
<!-- Node5 -->
<g id="node6" class="node">
<title>Node5</title>
<g id="a_node6"><a xlink:href="VectorFixSize_8h.html" target="_top" xlink:title="iDynTree/Core/VectorFixSize.h">
<polygon fill="none" stroke="#000000" points="532.5,-112.5 532.5,-131.5 693.5,-131.5 693.5,-112.5 532.5,-112.5"/>
<text text-anchor="middle" x="613" y="-119.5" font-family="FreeSans.ttf" font-size="10.00" fill="#000000">iDynTree/Core/VectorFixSize.h</text>
</a>
</g>
</g>
<!-- Node4&#45;&gt;Node5 -->
<g id="edge5" class="edge">
<title>Node4&#45;&gt;Node5</title>
<path fill="none" stroke="#191970" d="M1416.7026,-175.4521C1389.8645,-172.8538 1359.6356,-170.1041 1332,-168 1056.0669,-146.9916 983.715,-155.2691 703.9726,-132.039"/>
<polygon fill="#191970" stroke="#191970" points="704.1901,-128.545 693.9331,-131.1992 703.6065,-135.5207 704.1901,-128.545"/>
</g>
<!-- Node4&#45;&gt;Node18 -->
<g id="edge20" class="edge">
<title>Node4&#45;&gt;Node18</title>
<path fill="none" stroke="#191970" d="M1483.2159,-173.8845C1458.5338,-153.7446 1401.1794,-106.945 1370.7623,-82.1255"/>
<polygon fill="#191970" stroke="#191970" points="1372.9077,-79.3587 1362.947,-75.7484 1368.4822,-84.7823 1372.9077,-79.3587"/>
</g>
<!-- Node5&#45;&gt;Node6 -->
<g id="edge6" class="edge">
<title>Node5&#45;&gt;Node6</title>
<path fill="none" stroke="#191970" d="M546.7413,-112.4369C476.6011,-102.3136 366.3577,-86.4021 294.875,-76.0851"/>
<polygon fill="#191970" stroke="#191970" points="295.0165,-72.5693 284.6191,-74.6048 294.0165,-79.4975 295.0165,-72.5693"/>
</g>
<!-- Node9 -->
<g id="node10" class="node">
<title>Node9</title>
<g id="a_node10"><a xlink:href="Span_8h.html" target="_top" xlink:title="iDynTree/Core/Span.h">
<polygon fill="none" stroke="#ff0000" points="439.5,-56.5 439.5,-75.5 560.5,-75.5 560.5,-56.5 439.5,-56.5"/>
<text text-anchor="middle" x="500" y="-63.5" font-family="FreeSans.ttf" font-size="10.00" fill="#000000">iDynTree/Core/Span.h</text>
</a>
</g>
</g>
<!-- Node5&#45;&gt;Node9 -->
<g id="edge9" class="edge">
<title>Node5&#45;&gt;Node9</title>
<path fill="none" stroke="#191970" d="M593.5746,-112.3733C575.5979,-103.4644 548.6559,-90.1127 528.291,-80.0203"/>
<polygon fill="#191970" stroke="#191970" points="529.6861,-76.8055 519.1719,-75.5011 526.5778,-83.0776 529.6861,-76.8055"/>
</g>
<!-- Node10 -->
<g id="node11" class="node">
<title>Node10</title>
<polygon fill="none" stroke="#bfbfbf" points="624,-.5 624,-19.5 676,-19.5 676,-.5 624,-.5"/>
<text text-anchor="middle" x="650" y="-7.5" font-family="FreeSans.ttf" font-size="10.00" fill="#000000">cassert</text>
</g>
<!-- Node5&#45;&gt;Node10 -->
<g id="edge18" class="edge">
<title>Node5&#45;&gt;Node10</title>
<path fill="none" stroke="#191970" d="M615.1963,-112.488C618.2714,-99.5592 624.2467,-75.7823 631,-56 634.062,-47.0307 637.9881,-37.3026 641.4758,-29.1126"/>
<polygon fill="#191970" stroke="#191970" points="644.7762,-30.2998 645.5609,-19.7341 638.3586,-27.5044 644.7762,-30.2998"/>
</g>
<!-- Node5&#45;&gt;Node18 -->
<g id="edge16" class="edge">
<title>Node5&#45;&gt;Node18</title>
<path fill="none" stroke="#191970" d="M693.9377,-112.8532C696.9964,-112.5564 700.0253,-112.2707 703,-112 939.0391,-90.5174 1224.2225,-73.3065 1318.8029,-67.8307"/>
<polygon fill="#191970" stroke="#191970" points="1319.093,-71.3199 1328.8751,-67.2504 1318.6903,-64.3315 1319.093,-71.3199"/>
</g>
<!-- Node19 -->
<g id="node17" class="node">
<title>Node19</title>
<polygon fill="none" stroke="#bfbfbf" points="640,-56.5 640,-75.5 696,-75.5 696,-56.5 640,-56.5"/>
<text text-anchor="middle" x="668" y="-63.5" font-family="FreeSans.ttf" font-size="10.00" fill="#000000">sstream</text>
</g>
<!-- Node5&#45;&gt;Node19 -->
<g id="edge17" class="edge">
<title>Node5&#45;&gt;Node19</title>
<path fill="none" stroke="#191970" d="M622.5803,-112.2455C630.5458,-104.1352 642.0641,-92.4075 651.5079,-82.7919"/>
<polygon fill="#191970" stroke="#191970" points="654.0195,-85.2297 658.5295,-75.6427 649.0253,-80.3247 654.0195,-85.2297"/>
</g>
<!-- Node20 -->
<g id="node18" class="node">
<title>Node20</title>
<polygon fill="none" stroke="#bfbfbf" points="714,-56.5 714,-75.5 764,-75.5 764,-56.5 714,-56.5"/>
<text text-anchor="middle" x="739" y="-63.5" font-family="FreeSans.ttf" font-size="10.00" fill="#000000">cstring</text>
</g>
<!-- Node5&#45;&gt;Node20 -->
<g id="edge19" class="edge">
<title>Node5&#45;&gt;Node20</title>
<path fill="none" stroke="#191970" d="M634.6602,-112.3733C654.9772,-103.3435 685.564,-89.7494 708.375,-79.6111"/>
<polygon fill="#191970" stroke="#191970" points="709.9059,-82.7609 717.6225,-75.5011 707.0628,-76.3642 709.9059,-82.7609"/>
</g>
<!-- Node7 -->
<g id="node8" class="node">
<title>Node7</title>
<polygon fill="none" stroke="#bfbfbf" points="277.5,-.5 277.5,-19.5 330.5,-19.5 330.5,-.5 277.5,-.5"/>
<text text-anchor="middle" x="304" y="-7.5" font-family="FreeSans.ttf" font-size="10.00" fill="#000000">cstddef</text>
</g>
<!-- Node6&#45;&gt;Node7 -->
<g id="edge7" class="edge">
<title>Node6&#45;&gt;Node7</title>
<path fill="none" stroke="#191970" d="M238.7607,-56.2455C250.6552,-47.814 268.065,-35.4729 281.9085,-25.6598"/>
<polygon fill="#191970" stroke="#191970" points="284.2628,-28.2811 290.3969,-19.6427 280.2146,-22.5704 284.2628,-28.2811"/>
</g>
<!-- Node8 -->
<g id="node9" class="node">
<title>Node8</title>
<polygon fill="none" stroke="#bfbfbf" points="179,-.5 179,-19.5 259,-19.5 259,-.5 179,-.5"/>
<text text-anchor="middle" x="219" y="-7.5" font-family="FreeSans.ttf" font-size="10.00" fill="#000000">CoreExport.h</text>
</g>
<!-- Node6&#45;&gt;Node8 -->
<g id="edge8" class="edge">
<title>Node6&#45;&gt;Node8</title>
<path fill="none" stroke="#191970" d="M223.9549,-56.2455C223.172,-48.9382 222.0744,-38.6944 221.1112,-29.7046"/>
<polygon fill="#191970" stroke="#191970" points="224.5786,-29.2129 220.0331,-19.6427 217.6185,-29.9587 224.5786,-29.2129"/>
</g>
<!-- Node9&#45;&gt;Node7 -->
<g id="edge13" class="edge">
<title>Node9&#45;&gt;Node7</title>
<path fill="none" stroke="#191970" d="M466.3064,-56.3733C431.1903,-46.3401 376.3514,-30.6718 340.2966,-20.3704"/>
<polygon fill="#191970" stroke="#191970" points="341.2342,-16.9983 330.6574,-17.6164 339.3111,-23.729 341.2342,-16.9983"/>
</g>
<!-- Node9&#45;&gt;Node10 -->
<g id="edge10" class="edge">
<title>Node9&#45;&gt;Node10</title>
<path fill="none" stroke="#191970" d="M525.7859,-56.3733C550.4047,-47.1822 587.69,-33.2624 614.9875,-23.0713"/>
<polygon fill="#191970" stroke="#191970" points="616.4063,-26.2777 624.5506,-19.5011 613.958,-19.7198 616.4063,-26.2777"/>
</g>
<!-- Node11 -->
<g id="node12" class="node">
<title>Node11</title>
<polygon fill="none" stroke="#bfbfbf" points="482,-.5 482,-19.5 546,-19.5 546,-.5 482,-.5"/>
<text text-anchor="middle" x="514" y="-7.5" font-family="FreeSans.ttf" font-size="10.00" fill="#000000">algorithm</text>
</g>
<!-- Node9&#45;&gt;Node11 -->
<g id="edge11" class="edge">
<title>Node9&#45;&gt;Node11</title>
<path fill="none" stroke="#191970" d="M502.4386,-56.2455C504.2855,-48.8579 506.8828,-38.4689 509.1478,-29.4087"/>
<polygon fill="#191970" stroke="#191970" points="512.5594,-30.193 511.5893,-19.6427 505.7684,-28.4952 512.5594,-30.193"/>
</g>
<!-- Node12 -->
<g id="node13" class="node">
<title>Node12</title>
<polygon fill="none" stroke="#bfbfbf" points="564,-.5 564,-19.5 606,-19.5 606,-.5 564,-.5"/>
<text text-anchor="middle" x="585" y="-7.5" font-family="FreeSans.ttf" font-size="10.00" fill="#000000">array</text>
</g>
<!-- Node9&#45;&gt;Node12 -->
<g id="edge12" class="edge">
<title>Node9&#45;&gt;Node12</title>
<path fill="none" stroke="#191970" d="M514.8059,-56.2455C527.7256,-47.7337 546.6931,-35.2375 561.6552,-25.3801"/>
<polygon fill="#191970" stroke="#191970" points="563.9387,-28.067 570.3638,-19.6427 560.0876,-22.2216 563.9387,-28.067"/>
</g>
<!-- Node13 -->
<g id="node14" class="node">
<title>Node13</title>
<polygon fill="none" stroke="#bfbfbf" points="348.5,-.5 348.5,-19.5 401.5,-19.5 401.5,-.5 348.5,-.5"/>
<text text-anchor="middle" x="375" y="-7.5" font-family="FreeSans.ttf" font-size="10.00" fill="#000000">iterator</text>
</g>
<!-- Node9&#45;&gt;Node13 -->
<g id="edge14" class="edge">
<title>Node9&#45;&gt;Node13</title>
<path fill="none" stroke="#191970" d="M478.5117,-56.3733C458.356,-47.3435 428.012,-33.7494 405.382,-23.6111"/>
<polygon fill="#191970" stroke="#191970" points="406.7649,-20.3955 396.2079,-19.5011 403.9029,-26.7838 406.7649,-20.3955"/>
</g>
<!-- Node14 -->
<g id="node15" class="node">
<title>Node14</title>
<polygon fill="none" stroke="#bfbfbf" points="420,-.5 420,-19.5 464,-19.5 464,-.5 420,-.5"/>
<text text-anchor="middle" x="442" y="-7.5" font-family="FreeSans.ttf" font-size="10.00" fill="#000000">limits</text>
</g>
<!-- Node9&#45;&gt;Node14 -->
<g id="edge15" class="edge">
<title>Node9&#45;&gt;Node14</title>
<path fill="none" stroke="#191970" d="M489.8972,-56.2455C481.4972,-48.1352 469.3506,-36.4075 459.3916,-26.7919"/>
<polygon fill="#191970" stroke="#191970" points="461.6122,-24.0707 451.9871,-19.6427 456.75,-29.1066 461.6122,-24.0707"/>
</g>
<!-- Node21&#45;&gt;Node5 -->
<g id="edge34" class="edge">
<title>Node21&#45;&gt;Node5</title>
<path fill="none" stroke="#191970" d="M1195.3662,-235.4878C1144.3155,-226.3679 1065.3578,-212.0916 997,-199 880.2822,-176.6468 743.9473,-148.9246 669.1864,-133.584"/>
<polygon fill="#191970" stroke="#191970" points="669.5541,-130.0865 659.0545,-131.5033 668.146,-136.9434 669.5541,-130.0865"/>
</g>
<!-- Node21&#45;&gt;Node18 -->
<g id="edge22" class="edge">
<title>Node21&#45;&gt;Node18</title>
<path fill="none" stroke="#191970" d="M1280.6964,-235.3561C1298.6349,-228.2229 1319.8485,-216.6363 1332,-199 1355.6114,-164.7312 1355.54,-113.6269 1353.3282,-85.7994"/>
<polygon fill="#191970" stroke="#191970" points="1356.8003,-85.342 1352.3485,-75.7279 1349.8332,-86.0198 1356.8003,-85.342"/>
</g>
<!-- Node22 -->
<g id="node20" class="node">
<title>Node22</title>
<g id="a_node20"><a xlink:href="GeomVector3_8h.html" target="_top" xlink:title="iDynTree/Core/GeomVector3.h">
<polygon fill="none" stroke="#000000" points="557.5,-174 557.5,-193 720.5,-193 720.5,-174 557.5,-174"/>
<text text-anchor="middle" x="639" y="-181" font-family="FreeSans.ttf" font-size="10.00" fill="#000000">iDynTree/Core/GeomVector3.h</text>
</a>
</g>
</g>
<!-- Node21&#45;&gt;Node22 -->
<g id="edge23" class="edge">
<title>Node21&#45;&gt;Node22</title>
<path fill="none" stroke="#191970" d="M1180.211,-238.0647C1070.0475,-226.9581 853.9504,-205.1712 730.7563,-192.7508"/>
<polygon fill="#191970" stroke="#191970" points="730.8918,-189.2468 720.5912,-191.726 730.1896,-196.2115 730.8918,-189.2468"/>
</g>
<!-- Node23 -->
<g id="node21" class="node">
<title>Node23</title>
<g id="a_node21"><a xlink:href="RotationRaw_8h.html" target="_top" xlink:title="iDynTree/Core/RotationRaw.h">
<polygon fill="none" stroke="#000000" points="1165,-174 1165,-193 1323,-193 1323,-174 1165,-174"/>
<text text-anchor="middle" x="1244" y="-181" font-family="FreeSans.ttf" font-size="10.00" fill="#000000">iDynTree/Core/RotationRaw.h</text>
</a>
</g>
</g>
<!-- Node21&#45;&gt;Node23 -->
<g id="edge25" class="edge">
<title>Node21&#45;&gt;Node23</title>
<path fill="none" stroke="#191970" d="M1248.2188,-235.3906C1247.5257,-226.8657 1246.491,-214.1392 1245.6198,-203.4235"/>
<polygon fill="#191970" stroke="#191970" points="1249.0912,-202.9283 1244.7923,-193.2449 1242.1142,-203.4956 1249.0912,-202.9283"/>
</g>
<!-- Node22&#45;&gt;Node5 -->
<g id="edge24" class="edge">
<title>Node22&#45;&gt;Node5</title>
<path fill="none" stroke="#191970" d="M634.9375,-173.8906C631.2576,-165.1862 625.7258,-152.1015 621.138,-141.2494"/>
<polygon fill="#191970" stroke="#191970" points="624.2375,-139.5927 617.1198,-131.7449 617.79,-142.3185 624.2375,-139.5927"/>
</g>
<!-- Node23&#45;&gt;Node18 -->
<g id="edge33" class="edge">
<title>Node23&#45;&gt;Node18</title>
<path fill="none" stroke="#191970" d="M1252.7563,-173.8845C1270.7829,-154.0889 1312.264,-108.5372 1335.1391,-83.4173"/>
<polygon fill="#191970" stroke="#191970" points="1337.9775,-85.4987 1342.1228,-75.7484 1332.8019,-80.7856 1337.9775,-85.4987"/>
</g>
<!-- Node23&#45;&gt;Node24 -->
<g id="edge26" class="edge">
<title>Node23&#45;&gt;Node24</title>
<path fill="none" stroke="#191970" d="M1192.4178,-173.9819C1180.478,-171.899 1167.8108,-169.7854 1156,-168 1063.2151,-153.9743 956.6753,-140.8577 882.9391,-132.2487"/>
<polygon fill="#191970" stroke="#191970" points="883.0946,-128.7433 872.7571,-131.0642 882.2857,-135.6964 883.0946,-128.7433"/>
</g>
<!-- Node24&#45;&gt;Node6 -->
<g id="edge27" class="edge">
<title>Node24&#45;&gt;Node6</title>
<path fill="none" stroke="#191970" d="M711.476,-112.8941C708.6159,-112.5892 705.7837,-112.2903 703,-112 557.9386,-96.8715 387.9162,-80.9381 294.7901,-72.3647"/>
<polygon fill="#191970" stroke="#191970" points="294.925,-68.8624 284.6465,-71.432 294.2839,-75.833 294.925,-68.8624"/>
</g>
<!-- Node24&#45;&gt;Node10 -->
<g id="edge28" class="edge">
<title>Node24&#45;&gt;Node10</title>
<path fill="none" stroke="#191970" d="M791.8247,-112.1684C791.0481,-97.983 787.5764,-71.7535 773,-56 750.4146,-31.5907 713.6341,-20.0634 686.1675,-14.6627"/>
<polygon fill="#191970" stroke="#191970" points="686.6043,-11.1855 676.1456,-12.8788 685.3774,-18.0772 686.6043,-11.1855"/>
</g>
<!-- Node24&#45;&gt;Node18 -->
<g id="edge30" class="edge">
<title>Node24&#45;&gt;Node18</title>
<path fill="none" stroke="#191970" d="M872.5898,-113.4827C877.4655,-112.978 882.298,-112.4805 887,-112 1048.9554,-95.4482 1242.8054,-76.5135 1318.4889,-69.1547"/>
<polygon fill="#191970" stroke="#191970" points="1319.1655,-72.6055 1328.7801,-68.1546 1318.4884,-65.6383 1319.1655,-72.6055"/>
</g>
<!-- Node24&#45;&gt;Node19 -->
<g id="edge32" class="edge">
<title>Node24&#45;&gt;Node19</title>
<path fill="none" stroke="#191970" d="M770.6836,-112.3733C750.7784,-103.3838 720.8564,-89.8706 698.44,-79.7471"/>
<polygon fill="#191970" stroke="#191970" points="699.5925,-76.4272 689.0382,-75.5011 696.7113,-82.8068 699.5925,-76.4272"/>
</g>
<!-- Node24&#45;&gt;Node20 -->
<g id="edge29" class="edge">
<title>Node24&#45;&gt;Node20</title>
<path fill="none" stroke="#191970" d="M782.7681,-112.2455C775.1683,-104.2155 764.2123,-92.6394 755.1632,-83.0781"/>
<polygon fill="#191970" stroke="#191970" points="757.542,-80.4998 748.1261,-75.6427 752.4579,-85.3115 757.542,-80.4998"/>
</g>
<!-- Node25 -->
<g id="node23" class="node">
<title>Node25</title>
<polygon fill="none" stroke="#bfbfbf" points="883,-56.5 883,-75.5 943,-75.5 943,-56.5 883,-56.5"/>
<text text-anchor="middle" x="913" y="-63.5" font-family="FreeSans.ttf" font-size="10.00" fill="#000000">iostream</text>
</g>
<!-- Node24&#45;&gt;Node25 -->
<g id="edge31" class="edge">
<title>Node24&#45;&gt;Node25</title>
<path fill="none" stroke="#191970" d="M812.8006,-112.3733C832.2243,-103.3838 861.4224,-89.8706 883.2964,-79.7471"/>
<polygon fill="#191970" stroke="#191970" points="884.8656,-82.8776 892.4708,-75.5011 881.9255,-76.5249 884.8656,-82.8776"/>
</g>
<!-- Node27 -->
<g id="node25" class="node">
<title>Node27</title>
<g id="a_node25"><a xlink:href="SpatialMotionVector_8h.html" target="_top" xlink:title="iDynTree/Core/SpatialMotion\lVector.h">
<polygon fill="none" stroke="#000000" points="574.5,-403.5 574.5,-433.5 729.5,-433.5 729.5,-403.5 574.5,-403.5"/>
<text text-anchor="start" x="582.5" y="-421.5" font-family="FreeSans.ttf" font-size="10.00" fill="#000000">iDynTree/Core/SpatialMotion</text>
<text text-anchor="middle" x="652" y="-410.5" font-family="FreeSans.ttf" font-size="10.00" fill="#000000">Vector.h</text>
</a>
</g>
</g>
<!-- Node26&#45;&gt;Node27 -->
<g id="edge40" class="edge">
<title>Node26&#45;&gt;Node27</title>
<path fill="none" stroke="#191970" d="M698.4063,-470.3906C691.4451,-462.6068 681.3514,-451.3202 672.3542,-441.2597"/>
<polygon fill="#191970" stroke="#191970" points="674.7296,-438.6654 665.4545,-433.5446 669.5118,-443.3318 674.7296,-438.6654"/>
</g>
<!-- Node27&#45;&gt;Node5 -->
<g id="edge41" class="edge">
<title>Node27&#45;&gt;Node5</title>
<path fill="none" stroke="#191970" d="M634.0264,-403.3794C623.6981,-393.8606 611.1903,-380.7957 603,-367 562.9622,-299.5605 561.1466,-276.4827 549,-199 546.8662,-185.3885 542.7136,-180.26 549,-168 555.933,-154.4789 568.8936,-144.0326 581.3481,-136.5377"/>
<polygon fill="#191970" stroke="#191970" points="583.1928,-139.5168 590.234,-131.6001 579.7928,-133.3979 583.1928,-139.5168"/>
</g>
<!-- Node27&#45;&gt;Node22 -->
<g id="edge42" class="edge">
<title>Node27&#45;&gt;Node22</title>
<path fill="none" stroke="#191970" d="M635.9365,-403.4715C627.012,-393.9853 616.7716,-380.9224 612,-367 592.2259,-309.3045 616.4922,-236.5343 630.4551,-202.5788"/>
<polygon fill="#191970" stroke="#191970" points="633.6891,-203.9178 634.3975,-193.3467 627.2515,-201.1687 633.6891,-203.9178"/>
</g>
<!-- Node28 -->
<g id="node26" class="node">
<title>Node28</title>
<g id="a_node26"><a xlink:href="SpatialVector_8h.html" target="_top" xlink:title="iDynTree/Core/SpatialVector.h">
<polygon fill="none" stroke="#000000" points="620.5,-347.5 620.5,-366.5 781.5,-366.5 781.5,-347.5 620.5,-347.5"/>
<text text-anchor="middle" x="701" y="-354.5" font-family="FreeSans.ttf" font-size="10.00" fill="#000000">iDynTree/Core/SpatialVector.h</text>
</a>
</g>
</g>
<!-- Node27&#45;&gt;Node28 -->
<g id="edge43" class="edge">
<title>Node27&#45;&gt;Node28</title>
<path fill="none" stroke="#191970" d="M664.1124,-403.2977C670.9849,-394.672 679.6223,-383.8312 686.811,-374.8087"/>
<polygon fill="#191970" stroke="#191970" points="689.6604,-376.849 693.1545,-366.8469 684.1856,-372.487 689.6604,-376.849"/>
</g>
<!-- Node28&#45;&gt;Node3 -->
<g id="edge44" class="edge">
<title>Node28&#45;&gt;Node3</title>
<path fill="none" stroke="#191970" d="M781.5758,-350.3838C913.5298,-339.5489 1174.0527,-318.157 1304.5867,-307.4386"/>
<polygon fill="#191970" stroke="#191970" points="1305.2206,-310.8984 1314.9006,-306.5917 1304.6477,-303.9219 1305.2206,-310.8984"/>
</g>
<!-- Node28&#45;&gt;Node6 -->
<g id="edge46" class="edge">
<title>Node28&#45;&gt;Node6</title>
<path fill="none" stroke="#191970" d="M650.0748,-347.4602C530.6857,-324.2676 237.0932,-262.1771 161,-199 129.0594,-172.481 104.7385,-147.0412 127,-112 136.9494,-96.339 153.7982,-85.9161 170.746,-79.0202"/>
<polygon fill="#191970" stroke="#191970" points="171.9691,-82.2996 180.1284,-75.5412 169.5353,-75.7363 171.9691,-82.2996"/>
</g>
<!-- Node28&#45;&gt;Node19 -->
<g id="edge49" class="edge">
<title>Node28&#45;&gt;Node19</title>
<path fill="none" stroke="#191970" d="M687.1581,-347.3695C648.7486,-319.5017 542.4501,-234.2228 524,-132 522.4212,-123.2525 518.7574,-119.1783 524,-112 536.646,-94.6847 591.8137,-80.7331 630.07,-72.9054"/>
<polygon fill="#191970" stroke="#191970" points="630.7528,-76.3382 639.8784,-70.9556 629.3879,-69.4726 630.7528,-76.3382"/>
</g>
<!-- Node28&#45;&gt;Node21 -->
<g id="edge45" class="edge">
<title>Node28&#45;&gt;Node21</title>
<path fill="none" stroke="#191970" d="M747.7222,-347.4509C848.0194,-326.9522 1083.6318,-278.7979 1192.2863,-256.5911"/>
<polygon fill="#191970" stroke="#191970" points="1193.2995,-259.9565 1202.3961,-254.5249 1191.8978,-253.0983 1193.2995,-259.9565"/>
</g>
<!-- Node28&#45;&gt;Node22 -->
<g id="edge47" class="edge">
<title>Node28&#45;&gt;Node22</title>
<path fill="none" stroke="#191970" d="M697.5783,-347.4248C687.7355,-319.8807 659.2072,-240.0477 645.9383,-202.916"/>
<polygon fill="#191970" stroke="#191970" points="649.1486,-201.4985 642.4876,-193.2595 642.5568,-203.8541 649.1486,-201.4985"/>
</g>
<!-- Node28&#45;&gt;Node25 -->
<g id="edge48" class="edge">
<title>Node28&#45;&gt;Node25</title>
<path fill="none" stroke="#191970" d="M710.2542,-347.359C738.6775,-317.3891 826.1619,-222.4322 882,-132 891.3279,-116.893 899.7396,-98.5295 905.4392,-85.0118"/>
<polygon fill="#191970" stroke="#191970" points="908.68,-86.3337 909.2394,-75.7536 902.2043,-83.6756 908.68,-86.3337"/>
</g>
<!-- Node29&#45;&gt;Node9 -->
<g id="edge51" class="edge">
<title>Node29&#45;&gt;Node9</title>
<path fill="none" stroke="#191970" d="M460.2302,-408.8831C441.7712,-395.0285 406.4993,-368.7296 376,-347 328.76,-313.3433 187.9882,-250.3423 161,-199 154.5894,-186.8045 152.7801,-179.0572 161,-168 193.0852,-124.84 339.7271,-93.022 429.3061,-77.2089"/>
<polygon fill="#191970" stroke="#191970" points="430.1473,-80.6152 439.399,-75.4522 428.9469,-73.7189 430.1473,-80.6152"/>
</g>
<!-- Node29&#45;&gt;Node18 -->
<g id="edge52" class="edge">
<title>Node29&#45;&gt;Node18</title>
<path fill="none" stroke="#191970" d="M486.9072,-408.9489C530.0547,-379.6462 666.1336,-289.7013 789,-235 982.1944,-148.9881 1231.5569,-91.354 1319.0039,-72.6234"/>
<polygon fill="#191970" stroke="#191970" points="1319.7958,-76.0334 1328.8508,-70.5328 1318.3419,-69.186 1319.7958,-76.0334"/>
</g>
<!-- Node30&#45;&gt;Node18 -->
<g id="edge54" class="edge">
<title>Node30&#45;&gt;Node18</title>
<path fill="none" stroke="#191970" d="M1681.3463,-470.4362C1679.991,-449.7538 1677,-399.3162 1677,-357 1677,-357 1677,-357 1677,-183.5 1677,-132.7608 1634.0299,-133.3476 1588,-112 1519.7415,-80.3433 1430.673,-70.4646 1383.545,-67.3874"/>
<polygon fill="#191970" stroke="#191970" points="1383.5136,-63.8796 1373.325,-66.7851 1383.1017,-70.8675 1383.5136,-63.8796"/>
</g>
<!-- Node31 -->
<g id="node29" class="node">
<title>Node31</title>
<polygon fill="none" stroke="#bfbfbf" points="1705,-409 1705,-428 1791,-428 1791,-409 1705,-409"/>
<text text-anchor="middle" x="1748" y="-416" font-family="FreeSans.ttf" font-size="10.00" fill="#000000">ModelExport.h</text>
</g>
<!-- Node30&#45;&gt;Node31 -->
<g id="edge55" class="edge">
<title>Node30&#45;&gt;Node31</title>
<path fill="none" stroke="#191970" d="M1692.3125,-470.3906C1702.4242,-460.9683 1718.0442,-446.4134 1730.1707,-435.1137"/>
<polygon fill="#191970" stroke="#191970" points="1732.612,-437.6228 1737.5421,-428.2449 1727.8399,-432.5015 1732.612,-437.6228"/>
</g>
<!-- Node32&#45;&gt;Node2 -->
<g id="edge57" class="edge">
<title>Node32&#45;&gt;Node2</title>
<path fill="none" stroke="#191970" d="M1070.8178,-526.4484C1098.0109,-518.6236 1135.4502,-506.2064 1166,-490 1195.2927,-474.4605 1225.3648,-450.5151 1243.8648,-434.6794"/>
<polygon fill="#191970" stroke="#191970" points="1246.2575,-437.237 1251.5061,-428.0336 1241.6638,-431.9552 1246.2575,-437.237"/>
</g>
<!-- Node32&#45;&gt;Node26 -->
<g id="edge58" class="edge">
<title>Node32&#45;&gt;Node26</title>
<path fill="none" stroke="#191970" d="M978.1582,-526.4369C921.2542,-516.6918 833.0304,-501.5832 772.7764,-491.2645"/>
<polygon fill="#191970" stroke="#191970" points="773.0588,-487.7619 762.6114,-489.5237 771.8771,-494.6615 773.0588,-487.7619"/>
</g>
<!-- Node32&#45;&gt;Node30 -->
<g id="edge69" class="edge">
<title>Node32&#45;&gt;Node30</title>
<path fill="none" stroke="#191970" d="M1108.6501,-529.5488C1231.7781,-518.9081 1476.3472,-497.7725 1602.5516,-486.8659"/>
<polygon fill="#191970" stroke="#191970" points="1602.8783,-490.3508 1612.5398,-486.0027 1602.2755,-483.3768 1602.8783,-490.3508"/>
</g>
<!-- Node33 -->
<g id="node31" class="node">
<title>Node33</title>
<g id="a_node31"><a xlink:href="SpatialAcc_8h.html" target="_top" xlink:title="iDynTree/Core/SpatialAcc.h">
<polygon fill="none" stroke="#000000" points="786,-470.5 786,-489.5 934,-489.5 934,-470.5 786,-470.5"/>
<text text-anchor="middle" x="860" y="-477.5" font-family="FreeSans.ttf" font-size="10.00" fill="#000000">iDynTree/Core/SpatialAcc.h</text>
</a>
</g>
</g>
<!-- Node32&#45;&gt;Node33 -->
<g id="edge59" class="edge">
<title>Node32&#45;&gt;Node33</title>
<path fill="none" stroke="#191970" d="M1004.0883,-526.3733C975.1548,-517.0613 931.1389,-502.8953 899.3707,-492.671"/>
<polygon fill="#191970" stroke="#191970" points="900.1128,-489.2331 889.5213,-489.5011 897.9682,-495.8965 900.1128,-489.2331"/>
</g>
<!-- Node34 -->
<g id="node32" class="node">
<title>Node34</title>
<g id="a_node32"><a xlink:href="Wrench_8h.html" target="_top" xlink:title="iDynTree/Core/Wrench.h">
<polygon fill="none" stroke="#000000" points="990.5,-470.5 990.5,-489.5 1123.5,-489.5 1123.5,-470.5 990.5,-470.5"/>
<text text-anchor="middle" x="1057" y="-477.5" font-family="FreeSans.ttf" font-size="10.00" fill="#000000">iDynTree/Core/Wrench.h</text>
</a>
</g>
</g>
<!-- Node32&#45;&gt;Node34 -->
<g id="edge61" class="edge">
<title>Node32&#45;&gt;Node34</title>
<path fill="none" stroke="#191970" d="M1038.0063,-526.2455C1041.0735,-518.7776 1045.4003,-508.2427 1049.1497,-499.1137"/>
<polygon fill="#191970" stroke="#191970" points="1052.4779,-500.2226 1053.0396,-489.6427 1046.0028,-497.5631 1052.4779,-500.2226"/>
</g>
<!-- Node36 -->
<g id="node34" class="node">
<title>Node36</title>
<g id="a_node34"><a xlink:href="ArticulatedBodyInertia_8h.html" target="_top" xlink:title="iDynTree/Core/Articulated\lBodyInertia.h">
<polygon fill="none" stroke="#000000" points="1005.5,-168.5 1005.5,-198.5 1146.5,-198.5 1146.5,-168.5 1005.5,-168.5"/>
<text text-anchor="start" x="1013.5" y="-186.5" font-family="FreeSans.ttf" font-size="10.00" fill="#000000">iDynTree/Core/Articulated</text>
<text text-anchor="middle" x="1076" y="-175.5" font-family="FreeSans.ttf" font-size="10.00" fill="#000000">BodyInertia.h</text>
</a>
</g>
</g>
<!-- Node32&#45;&gt;Node36 -->
<g id="edge66" class="edge">
<title>Node32&#45;&gt;Node36</title>
<path fill="none" stroke="#191970" d="M1073.2824,-526.4521C1093.8183,-519.5459 1117.7785,-508.1532 1133,-490 1154.1264,-464.8046 1152,-451.3806 1152,-418.5 1152,-418.5 1152,-418.5 1152,-301 1152,-262.9686 1123.5815,-227.5128 1101.5001,-205.7037"/>
<polygon fill="#191970" stroke="#191970" points="1103.6679,-202.9351 1094.0109,-198.5768 1098.8423,-208.006 1103.6679,-202.9351"/>
</g>
<!-- Node32&#45;&gt;Node37 -->
<g id="edge70" class="edge">
<title>Node32&#45;&gt;Node37</title>
<path fill="none" stroke="#191970" d="M1076.0094,-526.4369C1124.1586,-515.4761 1202.115,-497.7299 1246.4128,-487.6459"/>
<polygon fill="#191970" stroke="#191970" points="1247.4114,-491.0082 1256.385,-485.3758 1245.8576,-484.1828 1247.4114,-491.0082"/>
</g>
<!-- Node33&#45;&gt;Node27 -->
<g id="edge60" class="edge">
<title>Node33&#45;&gt;Node27</title>
<path fill="none" stroke="#191970" d="M827.5,-470.3906C796.8736,-461.3352 750.2133,-447.539 712.7017,-436.4479"/>
<polygon fill="#191970" stroke="#191970" points="713.4645,-433.0237 702.8825,-433.5446 711.4797,-439.7364 713.4645,-433.0237"/>
</g>
<!-- Node35 -->
<g id="node33" class="node">
<title>Node35</title>
<g id="a_node33"><a xlink:href="SpatialForceVector_8h.html" target="_top" xlink:title="iDynTree/Core/SpatialForce\lVector.h">
<polygon fill="none" stroke="#000000" points="748,-403.5 748,-433.5 896,-433.5 896,-403.5 748,-403.5"/>
<text text-anchor="start" x="756" y="-421.5" font-family="FreeSans.ttf" font-size="10.00" fill="#000000">iDynTree/Core/SpatialForce</text>
<text text-anchor="middle" x="822" y="-410.5" font-family="FreeSans.ttf" font-size="10.00" fill="#000000">Vector.h</text>
</a>
</g>
</g>
<!-- Node34&#45;&gt;Node35 -->
<g id="edge62" class="edge">
<title>Node34&#45;&gt;Node35</title>
<path fill="none" stroke="#191970" d="M1020.5391,-470.4581C985.6148,-461.3183 932.0672,-447.3048 889.3804,-436.1336"/>
<polygon fill="#191970" stroke="#191970" points="890.1771,-432.7243 879.6167,-433.5784 888.4048,-439.4962 890.1771,-432.7243"/>
</g>
<!-- Node35&#45;&gt;Node5 -->
<g id="edge63" class="edge">
<title>Node35&#45;&gt;Node5</title>
<path fill="none" stroke="#191970" d="M820.9432,-403.3442C817.1096,-360.1196 800.1827,-235.0466 730,-168 713.4466,-152.1862 690.8167,-141.6089 669.8686,-134.6316"/>
<polygon fill="#191970" stroke="#191970" points="670.6617,-131.2129 660.0733,-131.581 668.5802,-137.8963 670.6617,-131.2129"/>
</g>
<!-- Node35&#45;&gt;Node22 -->
<g id="edge64" class="edge">
<title>Node35&#45;&gt;Node22</title>
<path fill="none" stroke="#191970" d="M817.091,-403.2385C811.8793,-388.2265 802.7718,-365.0055 791,-347 751.4786,-286.5502 688.9541,-227.4722 657.8565,-199.7994"/>
<polygon fill="#191970" stroke="#191970" points="660.1292,-197.1371 650.3114,-193.1545 655.5027,-202.3903 660.1292,-197.1371"/>
</g>
<!-- Node35&#45;&gt;Node28 -->
<g id="edge65" class="edge">
<title>Node35&#45;&gt;Node28</title>
<path fill="none" stroke="#191970" d="M792.4001,-403.4554C773.0078,-393.599 747.8258,-380.7999 728.8057,-371.1327"/>
<polygon fill="#191970" stroke="#191970" points="730.2512,-367.9412 719.7507,-366.5303 727.0795,-374.1815 730.2512,-367.9412"/>
</g>
<!-- Node36&#45;&gt;Node18 -->
<g id="edge68" class="edge">
<title>Node36&#45;&gt;Node18</title>
<path fill="none" stroke="#191970" d="M1111.1083,-168.4992C1165.1126,-145.4246 1267.7323,-101.578 1319.4841,-79.4659"/>
<polygon fill="#191970" stroke="#191970" points="1321.0091,-82.6205 1328.8297,-75.4728 1318.2587,-76.1834 1321.0091,-82.6205"/>
</g>
<!-- Node36&#45;&gt;Node24 -->
<g id="edge67" class="edge">
<title>Node36&#45;&gt;Node24</title>
<path fill="none" stroke="#191970" d="M1006.5258,-168.4554C957.0613,-157.7439 891.5473,-143.5569 845.9887,-133.6912"/>
<polygon fill="#191970" stroke="#191970" points="846.5242,-130.2261 836.0099,-131.5303 845.0426,-137.0675 846.5242,-130.2261"/>
</g>
<!-- Node38&#45;&gt;Node5 -->
<g id="edge72" class="edge">
<title>Node38&#45;&gt;Node5</title>
<path fill="none" stroke="#191970" d="M624.4198,-526.3316C622.662,-511.8635 621.816,-484.7113 637,-470 723.3136,-386.3733 825.8781,-524.4609 905,-434 943.2263,-390.2955 996.0963,-353.7531 756,-168 734.7858,-151.5874 707.5367,-140.9378 682.5257,-134.0697"/>
<polygon fill="#191970" stroke="#191970" points="683.261,-130.6448 672.7032,-131.5298 681.5086,-137.4219 683.261,-130.6448"/>
</g>
<!-- Node38&#45;&gt;Node29 -->
<g id="edge73" class="edge">
<title>Node38&#45;&gt;Node29</title>
<path fill="none" stroke="#191970" d="M613.5857,-526.4901C601.4496,-517.1916 582.4498,-502.6292 566,-490 541.1768,-470.9422 512.6459,-449.0018 493.8022,-434.5059"/>
<polygon fill="#191970" stroke="#191970" points="495.6915,-431.5435 485.6315,-428.2199 491.4232,-437.0916 495.6915,-431.5435"/>
</g>
<!-- Node38&#45;&gt;Node35 -->
<g id="edge74" class="edge">
<title>Node38&#45;&gt;Node35</title>
<path fill="none" stroke="#191970" d="M617.4021,-526.0479C606.5067,-512.182 590.6594,-486.8594 604,-470 608.4218,-464.4119 679.2591,-448.3373 739.0011,-435.6178"/>
<polygon fill="#191970" stroke="#191970" points="739.8055,-439.0252 748.8621,-433.5271 738.3536,-432.1774 739.8055,-439.0252"/>
</g>
<!-- Node38&#45;&gt;Node37 -->
<g id="edge75" class="edge">
<title>Node38&#45;&gt;Node37</title>
<path fill="none" stroke="#191970" d="M701.661,-529.5214C843.755,-517.3543 1145.2898,-491.5348 1246.2574,-482.8893"/>
<polygon fill="#191970" stroke="#191970" points="1246.8132,-486.3546 1256.4781,-482.0141 1246.2159,-479.3801 1246.8132,-486.3546"/>
</g>
<!-- Node39&#45;&gt;Node2 -->
<g id="edge87" class="edge">
<title>Node39&#45;&gt;Node2</title>
<path fill="none" stroke="#191970" d="M1749.6371,-649.4397C1780.7843,-640.6768 1821.419,-626.9756 1831,-613 1838.7905,-601.6362 1834.8406,-595.2317 1831,-582 1822.7855,-553.6995 1785.0543,-485.5138 1760,-470 1755.6349,-467.2971 1486.2195,-440.5092 1345.5379,-426.6766"/>
<polygon fill="#191970" stroke="#191970" points="1345.5186,-423.1579 1335.2242,-425.663 1344.8339,-430.1243 1345.5186,-423.1579"/>
</g>
<!-- Node39&#45;&gt;Node30 -->
<g id="edge88" class="edge">
<title>Node39&#45;&gt;Node30</title>
<path fill="none" stroke="#191970" d="M1704.4119,-649.4449C1697.8747,-640.5782 1688.8953,-626.7184 1685,-613 1679.1566,-592.4207 1680.1992,-531.9804 1681.2218,-500.1448"/>
<polygon fill="#191970" stroke="#191970" points="1684.7306,-499.9539 1681.5849,-489.8369 1677.735,-499.7075 1684.7306,-499.9539"/>
</g>
<!-- Node39&#45;&gt;Node37 -->
<g id="edge95" class="edge">
<title>Node39&#45;&gt;Node37</title>
<path fill="none" stroke="#191970" d="M1645.161,-649.6459C1603.8178,-642.528 1550.1952,-630.856 1505,-613 1424.9063,-581.3561 1339.9079,-523.5341 1301.2962,-495.7395"/>
<polygon fill="#191970" stroke="#191970" points="1303.0784,-492.7082 1292.9307,-489.6627 1298.9643,-498.3716 1303.0784,-492.7082"/>
</g>
<!-- Node40 -->
<g id="node38" class="node">
<title>Node40</title>
<g id="a_node38"><a xlink:href="IJoint_8h.html" target="_top" xlink:title="iDynTree/Model/IJoint.h">
<polygon fill="none" stroke="#000000" points="1694,-588 1694,-607 1822,-607 1822,-588 1694,-588"/>
<text text-anchor="middle" x="1758" y="-595" font-family="FreeSans.ttf" font-size="10.00" fill="#000000">iDynTree/Model/IJoint.h</text>
</a>
</g>
</g>
<!-- Node39&#45;&gt;Node40 -->
<g id="edge78" class="edge">
<title>Node39&#45;&gt;Node40</title>
<path fill="none" stroke="#191970" d="M1719.1875,-649.3906C1725.9666,-640.3273 1736.2978,-626.5149 1744.5973,-615.4188"/>
<polygon fill="#191970" stroke="#191970" points="1747.5243,-617.349 1750.7112,-607.2449 1741.9188,-613.1563 1747.5243,-617.349"/>
</g>
<!-- Node41 -->
<g id="node39" class="node">
<title>Node41</title>
<g id="a_node39"><a xlink:href="Link_8h.html" target="_top" xlink:title="iDynTree/Model/Link.h">
<polygon fill="none" stroke="#000000" points="1514,-588 1514,-607 1638,-607 1638,-588 1514,-588"/>
<text text-anchor="middle" x="1576" y="-595" font-family="FreeSans.ttf" font-size="10.00" fill="#000000">iDynTree/Model/Link.h</text>
</a>
</g>
</g>
<!-- Node39&#45;&gt;Node41 -->
<g id="edge80" class="edge">
<title>Node39&#45;&gt;Node41</title>
<path fill="none" stroke="#191970" d="M1690.75,-649.3906C1668.0945,-639.1457 1632.0202,-622.8326 1606.3709,-611.2339"/>
<polygon fill="#191970" stroke="#191970" points="1607.6546,-607.9732 1597.1008,-607.0419 1604.7703,-614.3514 1607.6546,-607.9732"/>
</g>
<!-- Node46 -->
<g id="node41" class="node">
<title>Node46</title>
<g id="a_node41"><a xlink:href="SolidShapes_8h.html" target="_top" xlink:title="iDynTree/Model/SolidShapes.h">
<polygon fill="none" stroke="#000000" points="1824.5,-526.5 1824.5,-545.5 1987.5,-545.5 1987.5,-526.5 1824.5,-526.5"/>
<text text-anchor="middle" x="1906" y="-533.5" font-family="FreeSans.ttf" font-size="10.00" fill="#000000">iDynTree/Model/SolidShapes.h</text>
</a>
</g>
</g>
<!-- Node39&#45;&gt;Node46 -->
<g id="edge89" class="edge">
<title>Node39&#45;&gt;Node46</title>
<path fill="none" stroke="#191970" d="M1778.6702,-650.3737C1807.3785,-643.9203 1839.8269,-632.6544 1864,-613 1882.3943,-598.0441 1893.9492,-572.8006 1900.1804,-555.3139"/>
<polygon fill="#191970" stroke="#191970" points="1903.5792,-556.1827 1903.3858,-545.5896 1896.9311,-553.9913 1903.5792,-556.1827"/>
</g>
<!-- Node47 -->
<g id="node42" class="node">
<title>Node47</title>
<polygon fill="none" stroke="#bfbfbf" points="1958.5,-470.5 1958.5,-489.5 2007.5,-489.5 2007.5,-470.5 1958.5,-470.5"/>
<text text-anchor="middle" x="1983" y="-477.5" font-family="FreeSans.ttf" font-size="10.00" fill="#000000">cstdlib</text>
</g>
<!-- Node39&#45;&gt;Node47 -->
<g id="edge94" class="edge">
<title>Node39&#45;&gt;Node47</title>
<path fill="none" stroke="#191970" d="M1765.6563,-649.4442C1801.4866,-642.0115 1849.1633,-630.0668 1889,-613 1940.9221,-590.7556 1969.5348,-595.3597 1997,-546 2005.1576,-531.3393 1999.804,-512.4229 1993.5047,-498.6025"/>
<polygon fill="#191970" stroke="#191970" points="1996.572,-496.9122 1988.9304,-489.5735 1990.3276,-500.0758 1996.572,-496.9122"/>
</g>
<!-- Node40&#45;&gt;Node30 -->
<g id="edge79" class="edge">
<title>Node40&#45;&gt;Node30</title>
<path fill="none" stroke="#191970" d="M1756.3524,-587.5315C1753.595,-573.014 1747.0186,-545.6471 1734,-526 1726.302,-514.3825 1714.9499,-503.8755 1704.8149,-495.8457"/>
<polygon fill="#191970" stroke="#191970" points="1706.7841,-492.9469 1696.6947,-489.7134 1702.5655,-498.533 1706.7841,-492.9469"/>
</g>
<!-- Node41&#45;&gt;Node30 -->
<g id="edge86" class="edge">
<title>Node41&#45;&gt;Node30</title>
<path fill="none" stroke="#191970" d="M1599.4935,-587.8971C1617.7401,-579.3522 1642.4729,-565.2249 1658,-546 1668.7597,-532.6778 1674.9372,-514.1072 1678.3216,-500.0573"/>
<polygon fill="#191970" stroke="#191970" points="1681.8153,-500.4546 1680.4713,-489.9454 1674.9683,-498.999 1681.8153,-500.4546"/>
</g>
<!-- Node42 -->
<g id="node40" class="node">
<title>Node42</title>
<g id="a_node40"><a xlink:href="SpatialInertia_8h.html" target="_top" xlink:title="iDynTree/Core/SpatialInertia.h">
<polygon fill="none" stroke="#ff0000" points="779,-526.5 779,-545.5 941,-545.5 941,-526.5 779,-526.5"/>
<text text-anchor="middle" x="860" y="-533.5" font-family="FreeSans.ttf" font-size="10.00" fill="#000000">iDynTree/Core/SpatialInertia.h</text>
</a>
</g>
</g>
<!-- Node41&#45;&gt;Node42 -->
<g id="edge81" class="edge">
<title>Node41&#45;&gt;Node42</title>
<path fill="none" stroke="#191970" d="M1513.8533,-592.9427C1403.2065,-584.7053 1164.5223,-566.3781 951.4783,-546.0218"/>
<polygon fill="#191970" stroke="#191970" points="951.6418,-542.5215 941.3533,-545.051 950.9736,-549.4896 951.6418,-542.5215"/>
</g>
<!-- Node42&#45;&gt;Node5 -->
<g id="edge82" class="edge">
<title>Node42&#45;&gt;Node5</title>
<path fill="none" stroke="#191970" d="M889.3357,-526.4779C907.3213,-519.1971 929.4259,-507.4098 943,-490 963.2175,-464.0695 962,-451.3806 962,-418.5 962,-418.5 962,-418.5 962,-357 962,-299.7606 837.4907,-194.9636 787,-168 756.1605,-151.5308 719.0396,-140.6706 687.0194,-133.6624"/>
<polygon fill="#191970" stroke="#191970" points="687.3228,-130.1499 676.8169,-131.5202 685.8843,-137.0005 687.3228,-130.1499"/>
</g>
<!-- Node42&#45;&gt;Node26 -->
<g id="edge83" class="edge">
<title>Node42&#45;&gt;Node26</title>
<path fill="none" stroke="#191970" d="M833.6984,-526.3733C808.5872,-517.1822 770.5562,-503.2624 742.7128,-493.0713"/>
<polygon fill="#191970" stroke="#191970" points="743.5522,-489.6516 732.9584,-489.5011 741.1462,-496.2251 743.5522,-489.6516"/>
</g>
<!-- Node42&#45;&gt;Node33 -->
<g id="edge84" class="edge">
<title>Node42&#45;&gt;Node33</title>
<path fill="none" stroke="#191970" d="M860,-526.2455C860,-518.9382 860,-508.6944 860,-499.7046"/>
<polygon fill="#191970" stroke="#191970" points="863.5001,-499.6426 860,-489.6427 856.5001,-499.6427 863.5001,-499.6426"/>
</g>
<!-- Node42&#45;&gt;Node34 -->
<g id="edge85" class="edge">
<title>Node42&#45;&gt;Node34</title>
<path fill="none" stroke="#191970" d="M893.8655,-526.3733C927.049,-516.9404 977.755,-502.5265 1013.8194,-492.2747"/>
<polygon fill="#191970" stroke="#191970" points="1014.9145,-495.6021 1023.5764,-489.5011 1013.0005,-488.8689 1014.9145,-495.6021"/>
</g>
<!-- Node46&#45;&gt;Node2 -->
<g id="edge93" class="edge">
<title>Node46&#45;&gt;Node2</title>
<path fill="none" stroke="#191970" d="M1895.7925,-526.2852C1879.2732,-511.2321 1844.9856,-482.6869 1810,-470 1648.8533,-411.5633 1596.6606,-450.0645 1426,-434 1399.7323,-431.5274 1371.0989,-428.824 1345.2161,-426.3772"/>
<polygon fill="#191970" stroke="#191970" points="1345.3512,-422.8745 1335.0661,-425.4176 1344.6922,-429.8434 1345.3512,-422.8745"/>
</g>
<!-- Node46&#45;&gt;Node18 -->
<g id="edge91" class="edge">
<title>Node46&#45;&gt;Node18</title>
<path fill="none" stroke="#191970" d="M1904.7486,-526.2704C1902.2756,-506.1731 1897,-458.5998 1897,-418.5 1897,-418.5 1897,-418.5 1897,-183.5 1897,-130.6101 1500.3784,-82.5227 1383.2154,-69.4713"/>
<polygon fill="#191970" stroke="#191970" points="1383.4038,-65.9709 1373.0801,-68.3523 1382.6356,-72.9287 1383.4038,-65.9709"/>
</g>
<!-- Node46&#45;&gt;Node37 -->
<g id="edge92" class="edge">
<title>Node46&#45;&gt;Node37</title>
<path fill="none" stroke="#191970" d="M1824.4826,-528.7077C1685.8098,-516.3025 1409.6982,-491.6024 1313.7715,-483.0211"/>
<polygon fill="#191970" stroke="#191970" points="1314.0319,-479.5305 1303.7598,-482.1255 1313.4081,-486.5027 1314.0319,-479.5305"/>
</g>
<!-- Node46&#45;&gt;Node47 -->
<g id="edge90" class="edge">
<title>Node46&#45;&gt;Node47</title>
<path fill="none" stroke="#191970" d="M1919.4124,-526.2455C1931.0057,-517.814 1947.9748,-505.4729 1961.4678,-495.6598"/>
<polygon fill="#191970" stroke="#191970" points="1963.7126,-498.355 1969.7413,-489.6427 1959.5953,-492.6938 1963.7126,-498.355"/>
</g>
<!-- Node48&#45;&gt;Node30 -->
<g id="edge97" class="edge">
<title>Node48&#45;&gt;Node30</title>
<path fill="none" stroke="#191970" d="M1534.5993,-526.3733C1564.3261,-517.021 1609.6159,-502.7725 1642.1456,-492.5385"/>
<polygon fill="#191970" stroke="#191970" points="1643.3113,-495.8409 1651.8,-489.5011 1641.2105,-489.1636 1643.3113,-495.8409"/>
</g>
<!-- Node48&#45;&gt;Node37 -->
<g id="edge98" class="edge">
<title>Node48&#45;&gt;Node37</title>
<path fill="none" stroke="#191970" d="M1465.7475,-526.4369C1422.8957,-515.7239 1354.1159,-498.529 1313.366,-488.3415"/>
<polygon fill="#191970" stroke="#191970" points="1314.1929,-484.9406 1303.6426,-485.9106 1312.4951,-491.7316 1314.1929,-484.9406"/>
</g>
<!-- Node49&#45;&gt;Node30 -->
<g id="edge102" class="edge">
<title>Node49&#45;&gt;Node30</title>
<path fill="none" stroke="#191970" d="M1327.3494,-592.8226C1420.1371,-586.1135 1570.4547,-571.6463 1620,-546 1641.4746,-534.884 1659.5259,-513.2999 1670.5152,-497.8396"/>
<polygon fill="#191970" stroke="#191970" points="1673.4102,-499.8065 1676.142,-489.5699 1667.6228,-495.8687 1673.4102,-499.8065"/>
</g>
<!-- Node49&#45;&gt;Node32 -->
<g id="edge103" class="edge">
<title>Node49&#45;&gt;Node32</title>
<path fill="none" stroke="#191970" d="M1217.0938,-587.8906C1179.4321,-577.2169 1118.5298,-559.9566 1077.4115,-548.3033"/>
<polygon fill="#191970" stroke="#191970" points="1078.2436,-544.9013 1067.6682,-545.5419 1076.3349,-551.6361 1078.2436,-544.9013"/>
</g>
<!-- Node49&#45;&gt;Node38 -->
<g id="edge104" class="edge">
<title>Node49&#45;&gt;Node38</title>
<path fill="none" stroke="#191970" d="M1178.8542,-587.9923C1162.1677,-585.9089 1144.4755,-583.7924 1128,-582 982.0592,-566.1227 811.8456,-551.3029 711.8244,-542.9714"/>
<polygon fill="#191970" stroke="#191970" points="712.0268,-539.4762 701.7713,-542.1361 711.4472,-546.4522 712.0268,-539.4762"/>
</g>
<!-- Node50 -->
<g id="node45" class="node">
<title>Node50</title>
<g id="a_node45"><a xlink:href="MatrixDynSize_8h.html" target="_top" xlink:title="iDynTree/Core/MatrixDynSize.h">
<polygon fill="none" stroke="#000000" points="1434.5,-409 1434.5,-428 1601.5,-428 1601.5,-409 1434.5,-409"/>
<text text-anchor="middle" x="1518" y="-416" font-family="FreeSans.ttf" font-size="10.00" fill="#000000">iDynTree/Core/MatrixDynSize.h</text>
</a>
</g>
</g>
<!-- Node49&#45;&gt;Node50 -->
<g id="edge100" class="edge">
<title>Node49&#45;&gt;Node50</title>
<path fill="none" stroke="#191970" d="M1327.1895,-591.0289C1421.0646,-582.2704 1570.2792,-565.479 1587,-546 1617.1195,-510.9123 1568.4669,-460.5171 1538.5953,-434.8588"/>
<polygon fill="#191970" stroke="#191970" points="1540.6694,-432.031 1530.749,-428.3111 1536.1843,-437.4055 1540.6694,-432.031"/>
</g>
<!-- Node50&#45;&gt;Node18 -->
<g id="edge101" class="edge">
<title>Node50&#45;&gt;Node18</title>
<path fill="none" stroke="#191970" d="M1540.7592,-408.8996C1575.8099,-392.4104 1639,-355.1713 1639,-301 1639,-301 1639,-301 1639,-183.5 1639,-132.0648 1594.3664,-134.2651 1548,-112 1493.5065,-85.8324 1423.2372,-74.0579 1383.0388,-69.1513"/>
<polygon fill="#191970" stroke="#191970" points="1383.3506,-65.6641 1373.0153,-67.9951 1382.5483,-72.618 1383.3506,-65.6641"/>
</g>
<!-- Node51&#45;&gt;Node2 -->
<g id="edge113" class="edge">
<title>Node51&#45;&gt;Node2</title>
<path fill="none" stroke="#191970" d="M437.7105,-474.5153C608.6777,-462.897 1005.7993,-435.9103 1178.8738,-424.1489"/>
<polygon fill="#191970" stroke="#191970" points="1179.207,-427.6344 1188.9466,-423.4644 1178.7323,-420.6505 1179.207,-427.6344"/>
</g>
<!-- Node51&#45;&gt;Node5 -->
<g id="edge108" class="edge">
<title>Node51&#45;&gt;Node5</title>
<path fill="none" stroke="#191970" d="M357.168,-470.3686C357.8137,-448.067 360.9348,-391.3962 376,-347 405.3531,-260.4986 406.5796,-226.1813 477,-168 496.7594,-151.6748 522.5886,-141.0426 546.4231,-134.1639"/>
<polygon fill="#191970" stroke="#191970" points="547.4043,-137.5243 556.1399,-131.5294 545.5725,-130.7682 547.4043,-137.5243"/>
</g>
<!-- Node51&#45;&gt;Node6 -->
<g id="edge114" class="edge">
<title>Node51&#45;&gt;Node6</title>
<path fill="none" stroke="#191970" d="M295.9302,-470.4866C274.1756,-463.9129 251.6956,-452.7968 238,-434 215.1924,-402.6972 246.0586,-383.4626 233,-347 205.5449,-270.3389 156.4522,-274.1098 125,-199 109.946,-163.0502 92.3497,-144.408 114,-112 124.5593,-96.1939 141.6656,-85.8119 159.3201,-78.9953"/>
<polygon fill="#191970" stroke="#191970" points="160.8598,-82.165 169.1464,-75.5633 158.5516,-75.5564 160.8598,-82.165"/>
</g>
<!-- Node51&#45;&gt;Node24 -->
<g id="edge110" class="edge">
<title>Node51&#45;&gt;Node24</title>
<path fill="none" stroke="#191970" d="M302.982,-470.4617C282.1724,-463.8668 260.4332,-452.742 248,-434 240.3836,-422.5188 241.3979,-415.0929 248,-403 262.1783,-377.0301 280.0355,-384.3539 304,-367 360.8101,-325.861 485.3799,-197.5344 549,-168 577.3016,-154.8616 651.7934,-141.8144 710.9049,-132.9898"/>
<polygon fill="#191970" stroke="#191970" points="711.6152,-136.423 720.9976,-131.5014 710.5939,-129.4979 711.6152,-136.423"/>
</g>
<!-- Node51&#45;&gt;Node27 -->
<g id="edge111" class="edge">
<title>Node51&#45;&gt;Node27</title>
<path fill="none" stroke="#191970" d="M402.7701,-470.4581C447.3334,-461.1678 516.0516,-446.8418 570.0533,-435.5838"/>
<polygon fill="#191970" stroke="#191970" points="570.8809,-438.9866 579.9561,-433.5193 569.4523,-432.1339 570.8809,-438.9866"/>
</g>
<!-- Node51&#45;&gt;Node29 -->
<g id="edge107" class="edge">
<title>Node51&#45;&gt;Node29</title>
<path fill="none" stroke="#191970" d="M375.125,-470.3906C394.1083,-460.3262 424.1373,-444.4057 445.9307,-432.8514"/>
<polygon fill="#191970" stroke="#191970" points="447.8066,-435.8184 455.0023,-428.0419 444.5277,-429.6338 447.8066,-435.8184"/>
</g>
<!-- Node51&#45;&gt;Node35 -->
<g id="edge112" class="edge">
<title>Node51&#45;&gt;Node35</title>
<path fill="none" stroke="#191970" d="M437.6926,-471.8178C512.88,-463.8423 628.3334,-450.7014 737.9235,-434.1092"/>
<polygon fill="#191970" stroke="#191970" points="738.4714,-437.5662 747.8289,-432.5975 737.4153,-430.6463 738.4714,-437.5662"/>
</g>
<!-- Node51&#45;&gt;Node50 -->
<g id="edge109" class="edge">
<title>Node51&#45;&gt;Node50</title>
<path fill="none" stroke="#191970" d="M437.6506,-476.6823C640.5462,-468.2646 1168.4673,-445.9034 1344,-434 1370.0447,-432.2338 1398.2461,-429.9031 1424.2095,-427.5871"/>
<polygon fill="#191970" stroke="#191970" points="1424.7748,-431.0504 1434.4203,-426.6669 1424.1465,-424.0786 1424.7748,-431.0504"/>
</g>
<!-- Node52 -->
<g id="node47" class="node">
<title>Node52</title>
<polygon fill="none" stroke="#bfbfbf" points="256.5,-409 256.5,-428 333.5,-428 333.5,-409 256.5,-409"/>
<text text-anchor="middle" x="295" y="-416" font-family="FreeSans.ttf" font-size="10.00" fill="#000000">Eigen/Dense</text>
</g>
<!-- Node51&#45;&gt;Node52 -->
<g id="edge106" class="edge">
<title>Node51&#45;&gt;Node52</title>
<path fill="none" stroke="#191970" d="M347.3125,-470.3906C337.9041,-461.0581 323.4193,-446.6902 312.0751,-435.4374"/>
<polygon fill="#191970" stroke="#191970" points="314.3886,-432.8024 304.8241,-428.2449 309.4589,-437.7722 314.3886,-432.8024"/>
</g>
<!-- Node53&#45;&gt;Node5 -->
<g id="edge117" class="edge">
<title>Node53&#45;&gt;Node5</title>
<path fill="none" stroke="#191970" d="M154.0829,-347.3357C184.9974,-315.1554 290.3699,-211.2285 401,-168 443.0401,-151.5729 492.1797,-140.4451 532.5585,-133.2549"/>
<polygon fill="#191970" stroke="#191970" points="533.37,-136.6666 542.6258,-131.511 532.1751,-129.7693 533.37,-136.6666"/>
</g>
<!-- Node54&#45;&gt;Node3 -->
<g id="edge123" class="edge">
<title>Node54&#45;&gt;Node3</title>
<path fill="none" stroke="#191970" d="M944.1467,-582.4977C1012.7254,-569.7208 1101.8082,-552.4402 1118,-546 1133.5841,-539.8015 1135.6052,-534.6066 1150,-526 1193.0561,-500.2568 1202.5908,-491.32 1248,-470 1289.2479,-450.6337 1312.9847,-467.3841 1344,-434 1373.365,-402.3923 1380.7274,-349.8188 1382.5031,-321.152"/>
<polygon fill="#191970" stroke="#191970" points="1386.0164,-320.9268 1382.9619,-310.7819 1379.0233,-320.6174 1386.0164,-320.9268"/>
</g>
<!-- Node54&#45;&gt;Node5 -->
<g id="edge126" class="edge">
<title>Node54&#45;&gt;Node5</title>
<path fill="none" stroke="#191970" d="M777.4311,-591.9786C632.6662,-580.9638 345.4653,-551.8083 268,-490 245.9291,-472.39 244.8734,-461.386 238,-434 202.4085,-292.1922 362.5309,-216.6044 440,-168 466.7269,-151.2314 499.4635,-140.5283 529.2397,-133.7171"/>
<polygon fill="#191970" stroke="#191970" points="530.181,-137.0944 539.2113,-131.5533 528.6965,-130.2536 530.181,-137.0944"/>
</g>
<!-- Node54&#45;&gt;Node29 -->
<g id="edge125" class="edge">
<title>Node54&#45;&gt;Node29</title>
<path fill="none" stroke="#191970" d="M777.2133,-591.1477C673.7249,-582.5762 509.9469,-566.0472 490,-546 461.759,-517.617 464.7378,-466.4491 469.058,-438.3351"/>
<polygon fill="#191970" stroke="#191970" points="472.5646,-438.6013 470.842,-428.1475 465.6695,-437.3939 472.5646,-438.6013"/>
</g>
<!-- Node54&#45;&gt;Node30 -->
<g id="edge127" class="edge">
<title>Node54&#45;&gt;Node30</title>
<path fill="none" stroke="#191970" d="M946.5222,-583.3701C949.7204,-582.8967 952.8881,-582.4382 956,-582 1092.4745,-562.7832 1128.5778,-571.6008 1264,-546 1298.3199,-539.512 1305.7376,-532.7854 1340,-526 1429.3416,-508.3066 1533.1792,-495.4056 1602.7901,-487.8446"/>
<polygon fill="#191970" stroke="#191970" points="1603.2378,-491.3167 1612.8064,-486.7679 1602.4895,-484.3568 1603.2378,-491.3167"/>
</g>
<!-- Node54&#45;&gt;Node32 -->
<g id="edge128" class="edge">
<title>Node54&#45;&gt;Node32</title>
<path fill="none" stroke="#191970" d="M904.0759,-582.4554C932.7746,-572.194 970.3937,-558.7429 997.7623,-548.9571"/>
<polygon fill="#191970" stroke="#191970" points="999.1083,-552.1929 1007.3461,-545.5303 996.7515,-545.6015 999.1083,-552.1929"/>
</g>
<!-- Node54&#45;&gt;Node37 -->
<g id="edge129" class="edge">
<title>Node54&#45;&gt;Node37</title>
<path fill="none" stroke="#191970" d="M946.7949,-582.9892C1028.2207,-568.9543 1140.3018,-549.3296 1150,-546 1168.051,-539.8027 1171.0194,-534.7125 1188,-526 1209.1443,-515.1511 1233.1674,-503.1505 1251.3621,-494.1276"/>
<polygon fill="#191970" stroke="#191970" points="1253.148,-497.1489 1260.5568,-489.5752 1250.042,-490.8757 1253.148,-497.1489"/>
</g>
<!-- Node54&#45;&gt;Node50 -->
<g id="edge124" class="edge">
<title>Node54&#45;&gt;Node50</title>
<path fill="none" stroke="#191970" d="M946.5469,-583.5336C949.7382,-583.0144 952.8977,-582.5018 956,-582 1056.8393,-565.6902 1084.296,-572.3075 1183,-546 1298.9579,-515.0938 1430.3119,-458.4001 1488.0655,-432.3081"/>
<polygon fill="#191970" stroke="#191970" points="1489.6759,-435.4208 1497.3327,-428.0979 1486.7805,-429.0477 1489.6759,-435.4208"/>
</g>
<!-- Node55 -->
<g id="node50" class="node">
<title>Node55</title>
<g id="a_node50"><a xlink:href="Direction_8h.html" target="_top" xlink:title="iDynTree/Core/Direction.h">
<polygon fill="none" stroke="#000000" points="169.5,-174 169.5,-193 310.5,-193 310.5,-174 169.5,-174"/>
<text text-anchor="middle" x="240" y="-181" font-family="FreeSans.ttf" font-size="10.00" fill="#000000">iDynTree/Core/Direction.h</text>
</a>
</g>
</g>
<!-- Node54&#45;&gt;Node55 -->
<g id="edge119" class="edge">
<title>Node54&#45;&gt;Node55</title>
<path fill="none" stroke="#191970" d="M777.2777,-596.2946C597.3669,-593.0482 189.3761,-581.7881 138,-546 59.6459,-491.4193 17.9923,-434.1598 57,-347 89.0365,-275.4169 169.6193,-222.2421 212.3694,-198.0138"/>
<polygon fill="#191970" stroke="#191970" points="214.333,-200.9271 221.3824,-193.0179 210.9393,-194.8048 214.333,-200.9271"/>
</g>
<!-- Node55&#45;&gt;Node5 -->
<g id="edge121" class="edge">
<title>Node55&#45;&gt;Node5</title>
<path fill="none" stroke="#191970" d="M297.872,-173.9581C364.6714,-162.9443 474.3953,-144.8531 545.1521,-133.1867"/>
<polygon fill="#191970" stroke="#191970" points="546.0018,-136.594 555.2991,-131.5137 544.8629,-129.6872 546.0018,-136.594"/>
</g>
<!-- Node55&#45;&gt;Node6 -->
<g id="edge122" class="edge">
<title>Node55&#45;&gt;Node6</title>
<path fill="none" stroke="#191970" d="M238.7725,-173.8845C236.3223,-154.6913 230.7812,-111.286 227.5234,-85.7663"/>
<polygon fill="#191970" stroke="#191970" points="230.9827,-85.2246 226.2445,-75.7484 224.0391,-86.1111 230.9827,-85.2246"/>
</g>
<!-- Node55&#45;&gt;Node18 -->
<g id="edge120" class="edge">
<title>Node55&#45;&gt;Node18</title>
<path fill="none" stroke="#191970" d="M310.6695,-179.2485C466.0502,-169.6961 827.9042,-146.2575 882,-132 902.3812,-126.6283 904.6947,-117.6516 925,-112 999.3088,-91.3177 1232.779,-73.9575 1318.7803,-68.1094"/>
<polygon fill="#191970" stroke="#191970" points="1319.2394,-71.5865 1328.9818,-67.4228 1318.7693,-64.6023 1319.2394,-71.5865"/>
</g>
</g>
</svg>
