<?xml version="1.0" encoding="UTF-8" standalone="no"?>
<!DOCTYPE svg PUBLIC "-//W3C//DTD SVG 1.1//EN"
 "http://www.w3.org/Graphics/SVG/1.1/DTD/svg11.dtd">
<!-- Generated by graphviz version 2.40.1 (20161225.0304)
 -->
<!-- Title: skinDynLibConversions.h Pages: 1 -->
<svg width="1662pt" height="733pt"
 viewBox="0.00 0.00 1662.00 733.00" xmlns="http://www.w3.org/2000/svg" xmlns:xlink="http://www.w3.org/1999/xlink">
<g id="graph0" class="graph" transform="scale(1 1) rotate(0) translate(4 729)">
<title>skinDynLibConversions.h</title>
<!-- Node0 -->
<g id="node1" class="node">
<title>Node0</title>
<polygon fill="#bfbfbf" stroke="#000000" points="319,-705.5 319,-724.5 459,-724.5 459,-705.5 319,-705.5"/>
<text text-anchor="middle" x="389" y="-712.5" font-family="FreeSans.ttf" font-size="10.00" fill="#000000">skinDynLibConversions.h</text>
</g>
<!-- Node1 -->
<g id="node2" class="node">
<title>Node1</title>
<g id="a_node2"><a xlink:href="skinDynLibConversions_8h.html" target="_top" xlink:title="iDynTree/skinDynLibConversions.h">
<polygon fill="none" stroke="#000000" points="296.5,-649.5 296.5,-668.5 481.5,-668.5 481.5,-649.5 296.5,-649.5"/>
<text text-anchor="middle" x="389" y="-656.5" font-family="FreeSans.ttf" font-size="10.00" fill="#000000">iDynTree/skinDynLibConversions.h</text>
</a>
</g>
</g>
<!-- Node0&#45;&gt;Node1 -->
<g id="edge1" class="edge">
<title>Node0&#45;&gt;Node1</title>
<path fill="none" stroke="#191970" d="M389,-705.2455C389,-697.9382 389,-687.6944 389,-678.7046"/>
<polygon fill="#191970" stroke="#191970" points="392.5001,-678.6426 389,-668.6427 385.5001,-678.6427 392.5001,-678.6426"/>
</g>
<!-- Node2 -->
<g id="node3" class="node">
<title>Node2</title>
<polygon fill="none" stroke="#bfbfbf" points="0,-588 0,-607 38,-607 38,-588 0,-588"/>
<text text-anchor="middle" x="19" y="-595" font-family="FreeSans.ttf" font-size="10.00" fill="#000000">map</text>
</g>
<!-- Node1&#45;&gt;Node2 -->
<g id="edge2" class="edge">
<title>Node1&#45;&gt;Node2</title>
<path fill="none" stroke="#191970" d="M296.2337,-653.9271C227.6381,-648.3614 132.553,-636.8089 52,-613 50.0879,-612.4349 48.1468,-611.7741 46.2126,-611.0498"/>
<polygon fill="#191970" stroke="#191970" points="47.3407,-607.7266 36.7676,-607.0478 44.6096,-614.1719 47.3407,-607.7266"/>
</g>
<!-- Node3 -->
<g id="node4" class="node">
<title>Node3</title>
<polygon fill="none" stroke="#bfbfbf" points="541,-56.5 541,-75.5 585,-75.5 585,-56.5 541,-56.5"/>
<text text-anchor="middle" x="563" y="-63.5" font-family="FreeSans.ttf" font-size="10.00" fill="#000000">string</text>
</g>
<!-- Node1&#45;&gt;Node3 -->
<g id="edge3" class="edge">
<title>Node1&#45;&gt;Node3</title>
<path fill="none" stroke="#191970" d="M332.3681,-649.4454C239.7331,-632.1934 66,-592.3294 66,-536 66,-536 66,-536 66,-183.5 66,-87.719 420.0029,-69.9171 530.4755,-66.6936"/>
<polygon fill="#191970" stroke="#191970" points="530.7777,-70.1868 540.6794,-66.4177 530.5885,-63.1894 530.7777,-70.1868"/>
</g>
<!-- Node4 -->
<g id="node5" class="node">
<title>Node4</title>
<g id="a_node5"><a xlink:href="Indices_8h.html" target="_top" xlink:title="iDynTree/Model/Indices.h">
<polygon fill="none" stroke="#000000" points="264,-470.5 264,-489.5 402,-489.5 402,-470.5 264,-470.5"/>
<text text-anchor="middle" x="333" y="-477.5" font-family="FreeSans.ttf" font-size="10.00" fill="#000000">iDynTree/Model/Indices.h</text>
</a>
</g>
</g>
<!-- Node1&#45;&gt;Node4 -->
<g id="edge4" class="edge">
<title>Node1&#45;&gt;Node4</title>
<path fill="none" stroke="#191970" d="M378.7141,-649.4679C370.0852,-640.827 358.2046,-627.2895 352,-613 335.6616,-575.3717 332.8048,-526.6716 332.6171,-499.8725"/>
<polygon fill="#191970" stroke="#191970" points="336.1172,-499.8421 332.6685,-489.8242 329.1173,-499.8062 336.1172,-499.8421"/>
</g>
<!-- Node6 -->
<g id="node7" class="node">
<title>Node6</title>
<g id="a_node7"><a xlink:href="ExternalWrenchesEstimation_8h.html" target="_top" xlink:title="iDynTree/Estimation\l/ExternalWrenchesEstimation.h">
<polygon fill="none" stroke="#000000" points="360.5,-582.5 360.5,-612.5 529.5,-612.5 529.5,-582.5 360.5,-582.5"/>
<text text-anchor="start" x="368.5" y="-600.5" font-family="FreeSans.ttf" font-size="10.00" fill="#000000">iDynTree/Estimation</text>
<text text-anchor="middle" x="445" y="-589.5" font-family="FreeSans.ttf" font-size="10.00" fill="#000000">/ExternalWrenchesEstimation.h</text>
</a>
</g>
</g>
<!-- Node1&#45;&gt;Node6 -->
<g id="edge7" class="edge">
<title>Node1&#45;&gt;Node6</title>
<path fill="none" stroke="#191970" d="M397.75,-649.3906C404.9079,-641.5298 415.3188,-630.0964 424.5475,-619.9612"/>
<polygon fill="#191970" stroke="#191970" points="427.156,-622.295 431.3009,-612.5446 421.9802,-617.5821 427.156,-622.295"/>
</g>
<!-- Node42 -->
<g id="node43" class="node">
<title>Node42</title>
<polygon fill="none" stroke="#bfbfbf" points="548,-582.5 548,-612.5 702,-612.5 702,-582.5 548,-582.5"/>
<text text-anchor="start" x="556" y="-600.5" font-family="FreeSans.ttf" font-size="10.00" fill="#000000">iCub/skinDynLib/dynContact</text>
<text text-anchor="middle" x="625" y="-589.5" font-family="FreeSans.ttf" font-size="10.00" fill="#000000">List.h</text>
</g>
<!-- Node1&#45;&gt;Node42 -->
<g id="edge85" class="edge">
<title>Node1&#45;&gt;Node42</title>
<path fill="none" stroke="#191970" d="M425.6161,-649.4581C460.6889,-640.3183 514.4644,-626.3048 557.3329,-615.1336"/>
<polygon fill="#191970" stroke="#191970" points="558.3439,-618.4871 567.1381,-612.5784 556.5786,-611.7133 558.3439,-618.4871"/>
</g>
<!-- Node43 -->
<g id="node44" class="node">
<title>Node43</title>
<polygon fill="none" stroke="#bfbfbf" points="720,-582.5 720,-612.5 876,-612.5 876,-582.5 720,-582.5"/>
<text text-anchor="start" x="728" y="-600.5" font-family="FreeSans.ttf" font-size="10.00" fill="#000000">iCub/skinDynLib/skinContact</text>
<text text-anchor="middle" x="798" y="-589.5" font-family="FreeSans.ttf" font-size="10.00" fill="#000000">List.h</text>
</g>
<!-- Node1&#45;&gt;Node43 -->
<g id="edge86" class="edge">
<title>Node1&#45;&gt;Node43</title>
<path fill="none" stroke="#191970" d="M460.7257,-649.4733C523.7545,-640.9368 618.209,-627.7456 709.7713,-613.1679"/>
<polygon fill="#191970" stroke="#191970" points="710.4453,-616.6047 719.7669,-611.5691 709.3396,-609.6926 710.4453,-616.6047"/>
</g>
<!-- Node4&#45;&gt;Node3 -->
<g id="edge5" class="edge">
<title>Node4&#45;&gt;Node3</title>
<path fill="none" stroke="#191970" d="M325.8641,-470.3485C319.6843,-461.4169 311.1105,-447.516 307,-434 286.127,-365.3659 237.5827,-166.697 284,-112 299.8619,-93.3087 460.827,-75.7806 530.8027,-68.9798"/>
<polygon fill="#191970" stroke="#191970" points="531.2077,-72.4571 540.8279,-68.0185 530.5395,-65.489 531.2077,-72.4571"/>
</g>
<!-- Node5 -->
<g id="node6" class="node">
<title>Node5</title>
<polygon fill="none" stroke="#bfbfbf" points="316,-409 316,-428 402,-428 402,-409 316,-409"/>
<text text-anchor="middle" x="359" y="-416" font-family="FreeSans.ttf" font-size="10.00" fill="#000000">ModelExport.h</text>
</g>
<!-- Node4&#45;&gt;Node5 -->
<g id="edge6" class="edge">
<title>Node4&#45;&gt;Node5</title>
<path fill="none" stroke="#191970" d="M337.0625,-470.3906C340.7424,-461.6862 346.2742,-448.6015 350.862,-437.7494"/>
<polygon fill="#191970" stroke="#191970" points="354.21,-438.8185 354.8802,-428.2449 347.7625,-436.0927 354.21,-438.8185"/>
</g>
<!-- Node6&#45;&gt;Node4 -->
<g id="edge54" class="edge">
<title>Node6&#45;&gt;Node4</title>
<path fill="none" stroke="#191970" d="M430.358,-582.1389C409.3537,-560.1032 370.8107,-519.6675 349.0521,-496.8403"/>
<polygon fill="#191970" stroke="#191970" points="351.5451,-494.3831 342.112,-489.5595 346.4782,-499.2128 351.5451,-494.3831"/>
</g>
<!-- Node7 -->
<g id="node8" class="node">
<title>Node7</title>
<g id="a_node8"><a xlink:href="Direction_8h.html" target="_top" xlink:title="iDynTree/Core/Direction.h">
<polygon fill="none" stroke="#000000" points="1351.5,-174 1351.5,-193 1492.5,-193 1492.5,-174 1351.5,-174"/>
<text text-anchor="middle" x="1422" y="-181" font-family="FreeSans.ttf" font-size="10.00" fill="#000000">iDynTree/Core/Direction.h</text>
</a>
</g>
</g>
<!-- Node6&#45;&gt;Node7 -->
<g id="edge8" class="edge">
<title>Node6&#45;&gt;Node7</title>
<path fill="none" stroke="#191970" d="M529.7388,-583.0381C532.8613,-582.6608 535.9561,-582.3125 539,-582 925.2988,-542.336 1028.2501,-605.4642 1412,-546 1522.169,-528.9287 1654,-591.4838 1654,-480 1654,-480 1654,-480 1654,-301 1654,-231.3226 1569.6868,-202.9525 1502.7156,-191.4081"/>
<polygon fill="#191970" stroke="#191970" points="1502.9839,-187.906 1492.5526,-189.76 1501.8633,-194.8157 1502.9839,-187.906"/>
</g>
<!-- Node8 -->
<g id="node9" class="node">
<title>Node8</title>
<g id="a_node9"><a xlink:href="VectorFixSize_8h.html" target="_top" xlink:title="iDynTree/Core/VectorFixSize.h">
<polygon fill="none" stroke="#000000" points="1090.5,-112.5 1090.5,-131.5 1251.5,-131.5 1251.5,-112.5 1090.5,-112.5"/>
<text text-anchor="middle" x="1171" y="-119.5" font-family="FreeSans.ttf" font-size="10.00" fill="#000000">iDynTree/Core/VectorFixSize.h</text>
</a>
</g>
</g>
<!-- Node6&#45;&gt;Node8 -->
<g id="edge53" class="edge">
<title>Node6&#45;&gt;Node8</title>
<path fill="none" stroke="#191970" d="M529.5232,-583.3775C532.7211,-582.902 535.8885,-582.441 539,-582 634.1637,-568.5111 1398,-576.115 1398,-480 1398,-480 1398,-480 1398,-301 1398,-208.8662 1281.2711,-156.8235 1215.2245,-134.7511"/>
<polygon fill="#191970" stroke="#191970" points="1216.0685,-131.3454 1205.4764,-131.5875 1213.9076,-138.0035 1216.0685,-131.3454"/>
</g>
<!-- Node23 -->
<g id="node24" class="node">
<title>Node23</title>
<g id="a_node24"><a xlink:href="Position_8h.html" target="_top" xlink:title="iDynTree/Core/Position.h">
<polygon fill="none" stroke="#000000" points="601,-291.5 601,-310.5 737,-310.5 737,-291.5 601,-291.5"/>
<text text-anchor="middle" x="669" y="-298.5" font-family="FreeSans.ttf" font-size="10.00" fill="#000000">iDynTree/Core/Position.h</text>
</a>
</g>
</g>
<!-- Node6&#45;&gt;Node23 -->
<g id="edge29" class="edge">
<title>Node6&#45;&gt;Node23</title>
<path fill="none" stroke="#191970" d="M450.2228,-582.4232C465.3949,-540.4545 513.1328,-420.5378 587,-347 600.7315,-333.3297 619.3591,-322.4467 635.39,-314.7052"/>
<polygon fill="#191970" stroke="#191970" points="636.8596,-317.8818 644.472,-310.5129 633.9258,-311.5263 636.8596,-317.8818"/>
</g>
<!-- Node30 -->
<g id="node31" class="node">
<title>Node30</title>
<g id="a_node31"><a xlink:href="MatrixDynSize_8h.html" target="_top" xlink:title="iDynTree/Core/MatrixDynSize.h">
<polygon fill="none" stroke="#000000" points="93.5,-291.5 93.5,-310.5 260.5,-310.5 260.5,-291.5 93.5,-291.5"/>
<text text-anchor="middle" x="177" y="-298.5" font-family="FreeSans.ttf" font-size="10.00" fill="#000000">iDynTree/Core/MatrixDynSize.h</text>
</a>
</g>
</g>
<!-- Node6&#45;&gt;Node30 -->
<g id="edge48" class="edge">
<title>Node6&#45;&gt;Node30</title>
<path fill="none" stroke="#191970" d="M390.9941,-582.4883C320.7741,-561.3398 207,-520.7814 207,-480 207,-480 207,-480 207,-418.5 207,-382.8765 193.8944,-343.0133 185.0074,-320.0771"/>
<polygon fill="#191970" stroke="#191970" points="188.1496,-318.5097 181.1714,-310.5376 181.655,-321.1214 188.1496,-318.5097"/>
</g>
<!-- Node31 -->
<g id="node32" class="node">
<title>Node31</title>
<g id="a_node32"><a xlink:href="VectorDynSize_8h.html" target="_top" xlink:title="iDynTree/Core/VectorDynSize.h">
<polygon fill="none" stroke="#000000" points="292.5,-112.5 292.5,-131.5 459.5,-131.5 459.5,-112.5 292.5,-112.5"/>
<text text-anchor="middle" x="376" y="-119.5" font-family="FreeSans.ttf" font-size="10.00" fill="#000000">iDynTree/Core/VectorDynSize.h</text>
</a>
</g>
</g>
<!-- Node6&#45;&gt;Node31 -->
<g id="edge50" class="edge">
<title>Node6&#45;&gt;Node31</title>
<path fill="none" stroke="#191970" d="M443.0246,-582.2285C438.6056,-549.2352 427.0367,-468.9515 411,-403 388.5483,-310.6666 361.3881,-292.9282 347,-199 344.9138,-185.3811 343.1759,-181.2364 347,-168 349.8938,-157.9836 355.6878,-148.0485 361.3413,-139.9887"/>
<polygon fill="#191970" stroke="#191970" points="364.2979,-141.88 367.5023,-131.7814 358.6997,-137.6776 364.2979,-141.88"/>
</g>
<!-- Node32 -->
<g id="node33" class="node">
<title>Node32</title>
<g id="a_node33"><a xlink:href="LinkState_8h.html" target="_top" xlink:title="iDynTree/Model/LinkState.h">
<polygon fill="none" stroke="#000000" points="573.5,-526.5 573.5,-545.5 722.5,-545.5 722.5,-526.5 573.5,-526.5"/>
<text text-anchor="middle" x="648" y="-533.5" font-family="FreeSans.ttf" font-size="10.00" fill="#000000">iDynTree/Model/LinkState.h</text>
</a>
</g>
</g>
<!-- Node6&#45;&gt;Node32 -->
<g id="edge55" class="edge">
<title>Node6&#45;&gt;Node32</title>
<path fill="none" stroke="#191970" d="M494.6594,-582.4554C529.1247,-572.0139 574.4909,-558.27 606.9198,-548.4455"/>
<polygon fill="#191970" stroke="#191970" points="607.9866,-551.7795 616.5422,-545.5303 605.9569,-545.0802 607.9866,-551.7795"/>
</g>
<!-- Node41 -->
<g id="node42" class="node">
<title>Node41</title>
<polygon fill="none" stroke="#bfbfbf" points="1075.5,-470.5 1075.5,-489.5 1122.5,-489.5 1122.5,-470.5 1075.5,-470.5"/>
<text text-anchor="middle" x="1099" y="-477.5" font-family="FreeSans.ttf" font-size="10.00" fill="#000000">vector</text>
</g>
<!-- Node6&#45;&gt;Node41 -->
<g id="edge84" class="edge">
<title>Node6&#45;&gt;Node41</title>
<path fill="none" stroke="#191970" d="M529.5169,-583.5305C679.9278,-558.58 985.1405,-507.517 1065.1987,-490.0969"/>
<polygon fill="#191970" stroke="#191970" points="1066.3644,-493.4207 1075.3316,-487.778 1064.8027,-486.5971 1066.3644,-493.4207"/>
</g>
<!-- Node7&#45;&gt;Node3 -->
<g id="edge9" class="edge">
<title>Node7&#45;&gt;Node3</title>
<path fill="none" stroke="#191970" d="M1405.7722,-173.9607C1377.4848,-157.8767 1316.8238,-125.7718 1261,-112 1195.9167,-95.9438 723.885,-73.3662 595.2814,-67.4597"/>
<polygon fill="#191970" stroke="#191970" points="595.4157,-63.9623 585.2662,-67.0017 595.0958,-70.955 595.4157,-63.9623"/>
</g>
<!-- Node7&#45;&gt;Node8 -->
<g id="edge10" class="edge">
<title>Node7&#45;&gt;Node8</title>
<path fill="none" stroke="#191970" d="M1383.0566,-173.9581C1339.0913,-163.1857 1267.4935,-145.6428 1219.8249,-133.9631"/>
<polygon fill="#191970" stroke="#191970" points="1220.5804,-130.5447 1210.0347,-131.5643 1218.9145,-137.3436 1220.5804,-130.5447"/>
</g>
<!-- Node9 -->
<g id="node10" class="node">
<title>Node9</title>
<g id="a_node10"><a xlink:href="Utils_8h.html" target="_top" xlink:title="iDynTree/Core/Utils.h">
<polygon fill="none" stroke="#000000" points="1255.5,-56.5 1255.5,-75.5 1374.5,-75.5 1374.5,-56.5 1255.5,-56.5"/>
<text text-anchor="middle" x="1315" y="-63.5" font-family="FreeSans.ttf" font-size="10.00" fill="#000000">iDynTree/Core/Utils.h</text>
</a>
</g>
</g>
<!-- Node7&#45;&gt;Node9 -->
<g id="edge28" class="edge">
<title>Node7&#45;&gt;Node9</title>
<path fill="none" stroke="#191970" d="M1415.062,-173.8647C1404.7453,-159.7622 1384.4786,-132.9073 1365,-112 1355.423,-101.7206 1343.934,-91.0487 1334.3853,-82.5747"/>
<polygon fill="#191970" stroke="#191970" points="1336.4223,-79.7066 1326.5904,-75.7589 1331.8145,-84.9762 1336.4223,-79.7066"/>
</g>
<!-- Node8&#45;&gt;Node3 -->
<g id="edge24" class="edge">
<title>Node8&#45;&gt;Node3</title>
<path fill="none" stroke="#191970" d="M1090.2331,-113.1316C1086.4365,-112.7428 1082.6773,-112.3637 1079,-112 896.1243,-93.9114 676.4591,-75.3937 595.2309,-68.655"/>
<polygon fill="#191970" stroke="#191970" points="595.3978,-65.1569 585.143,-67.8197 594.82,-72.1331 595.3978,-65.1569"/>
</g>
<!-- Node8&#45;&gt;Node9 -->
<g id="edge11" class="edge">
<title>Node8&#45;&gt;Node9</title>
<path fill="none" stroke="#191970" d="M1195.7545,-112.3733C1219.2849,-103.2226 1254.8687,-89.3844 1281.0426,-79.2057"/>
<polygon fill="#191970" stroke="#191970" points="1282.5171,-82.3877 1290.5685,-75.5011 1279.9799,-75.8636 1282.5171,-82.3877"/>
</g>
<!-- Node12 -->
<g id="node13" class="node">
<title>Node12</title>
<g id="a_node13"><a xlink:href="Span_8h.html" target="_top" xlink:title="iDynTree/Core/Span.h">
<polygon fill="none" stroke="#000000" points="819.5,-56.5 819.5,-75.5 940.5,-75.5 940.5,-56.5 819.5,-56.5"/>
<text text-anchor="middle" x="880" y="-63.5" font-family="FreeSans.ttf" font-size="10.00" fill="#000000">iDynTree/Core/Span.h</text>
</a>
</g>
</g>
<!-- Node8&#45;&gt;Node12 -->
<g id="edge14" class="edge">
<title>Node8&#45;&gt;Node12</title>
<path fill="none" stroke="#191970" d="M1121.306,-112.4369C1070.9804,-102.7522 993.1277,-87.7703 939.5349,-77.4569"/>
<polygon fill="#191970" stroke="#191970" points="939.9703,-73.9765 929.4891,-75.5237 938.6475,-80.8504 939.9703,-73.9765"/>
</g>
<!-- Node13 -->
<g id="node14" class="node">
<title>Node13</title>
<polygon fill="none" stroke="#bfbfbf" points="1080,-.5 1080,-19.5 1132,-19.5 1132,-.5 1080,-.5"/>
<text text-anchor="middle" x="1106" y="-7.5" font-family="FreeSans.ttf" font-size="10.00" fill="#000000">cassert</text>
</g>
<!-- Node8&#45;&gt;Node13 -->
<g id="edge26" class="edge">
<title>Node8&#45;&gt;Node13</title>
<path fill="none" stroke="#191970" d="M1183.2569,-112.3818C1198.3525,-99.3326 1220.5453,-75.4197 1208,-56 1193.4921,-33.5422 1165.1014,-21.9363 1141.9489,-16.005"/>
<polygon fill="#191970" stroke="#191970" points="1142.6074,-12.565 1132.0766,-13.7278 1141.034,-19.3859 1142.6074,-12.565"/>
</g>
<!-- Node21 -->
<g id="node22" class="node">
<title>Node21</title>
<polygon fill="none" stroke="#bfbfbf" points="1143,-56.5 1143,-75.5 1199,-75.5 1199,-56.5 1143,-56.5"/>
<text text-anchor="middle" x="1171" y="-63.5" font-family="FreeSans.ttf" font-size="10.00" fill="#000000">sstream</text>
</g>
<!-- Node8&#45;&gt;Node21 -->
<g id="edge25" class="edge">
<title>Node8&#45;&gt;Node21</title>
<path fill="none" stroke="#191970" d="M1171,-112.2455C1171,-104.9382 1171,-94.6944 1171,-85.7046"/>
<polygon fill="#191970" stroke="#191970" points="1174.5001,-85.6426 1171,-75.6427 1167.5001,-85.6427 1174.5001,-85.6426"/>
</g>
<!-- Node22 -->
<g id="node23" class="node">
<title>Node22</title>
<polygon fill="none" stroke="#bfbfbf" points="997,-56.5 997,-75.5 1047,-75.5 1047,-56.5 997,-56.5"/>
<text text-anchor="middle" x="1022" y="-63.5" font-family="FreeSans.ttf" font-size="10.00" fill="#000000">cstring</text>
</g>
<!-- Node8&#45;&gt;Node22 -->
<g id="edge27" class="edge">
<title>Node8&#45;&gt;Node22</title>
<path fill="none" stroke="#191970" d="M1145.386,-112.3733C1120.9313,-103.1822 1083.8946,-89.2624 1056.7791,-79.0713"/>
<polygon fill="#191970" stroke="#191970" points="1057.8719,-75.7431 1047.2798,-75.5011 1055.4091,-82.2956 1057.8719,-75.7431"/>
</g>
<!-- Node10 -->
<g id="node11" class="node">
<title>Node10</title>
<polygon fill="none" stroke="#bfbfbf" points="1185.5,-.5 1185.5,-19.5 1238.5,-19.5 1238.5,-.5 1185.5,-.5"/>
<text text-anchor="middle" x="1212" y="-7.5" font-family="FreeSans.ttf" font-size="10.00" fill="#000000">cstddef</text>
</g>
<!-- Node9&#45;&gt;Node10 -->
<g id="edge12" class="edge">
<title>Node9&#45;&gt;Node10</title>
<path fill="none" stroke="#191970" d="M1297.0588,-56.2455C1280.96,-47.4928 1257.1121,-34.527 1238.7609,-24.5496"/>
<polygon fill="#191970" stroke="#191970" points="1240.1929,-21.3444 1229.7356,-19.6427 1236.8493,-27.4942 1240.1929,-21.3444"/>
</g>
<!-- Node11 -->
<g id="node12" class="node">
<title>Node11</title>
<polygon fill="none" stroke="#bfbfbf" points="1275,-.5 1275,-19.5 1355,-19.5 1355,-.5 1275,-.5"/>
<text text-anchor="middle" x="1315" y="-7.5" font-family="FreeSans.ttf" font-size="10.00" fill="#000000">CoreExport.h</text>
</g>
<!-- Node9&#45;&gt;Node11 -->
<g id="edge13" class="edge">
<title>Node9&#45;&gt;Node11</title>
<path fill="none" stroke="#191970" d="M1315,-56.2455C1315,-48.9382 1315,-38.6944 1315,-29.7046"/>
<polygon fill="#191970" stroke="#191970" points="1318.5001,-29.6426 1315,-19.6427 1311.5001,-29.6427 1318.5001,-29.6426"/>
</g>
<!-- Node12&#45;&gt;Node10 -->
<g id="edge18" class="edge">
<title>Node12&#45;&gt;Node10</title>
<path fill="none" stroke="#191970" d="M936.6956,-56.4369C1004.8664,-44.9382 1117.3099,-25.9718 1175.1342,-16.2183"/>
<polygon fill="#191970" stroke="#191970" points="1175.9941,-19.6228 1185.2727,-14.5082 1174.8298,-12.7203 1175.9941,-19.6228"/>
</g>
<!-- Node12&#45;&gt;Node13 -->
<g id="edge15" class="edge">
<title>Node12&#45;&gt;Node13</title>
<path fill="none" stroke="#191970" d="M921.8571,-56.452C958.5179,-47.97 1013.4558,-34.973 1069.8589,-20.2297"/>
<polygon fill="#191970" stroke="#191970" points="1070.8774,-23.5809 1079.6593,-17.654 1069.0981,-16.8109 1070.8774,-23.5809"/>
</g>
<!-- Node14 -->
<g id="node15" class="node">
<title>Node14</title>
<polygon fill="none" stroke="#bfbfbf" points="866,-.5 866,-19.5 930,-19.5 930,-.5 866,-.5"/>
<text text-anchor="middle" x="898" y="-7.5" font-family="FreeSans.ttf" font-size="10.00" fill="#000000">algorithm</text>
</g>
<!-- Node12&#45;&gt;Node14 -->
<g id="edge16" class="edge">
<title>Node12&#45;&gt;Node14</title>
<path fill="none" stroke="#191970" d="M883.1354,-56.2455C885.51,-48.8579 888.8493,-38.4689 891.7615,-29.4087"/>
<polygon fill="#191970" stroke="#191970" points="895.1725,-30.234 894.9006,-19.6427 888.5083,-28.0919 895.1725,-30.234"/>
</g>
<!-- Node15 -->
<g id="node16" class="node">
<title>Node15</title>
<polygon fill="none" stroke="#bfbfbf" points="948,-.5 948,-19.5 990,-19.5 990,-.5 948,-.5"/>
<text text-anchor="middle" x="969" y="-7.5" font-family="FreeSans.ttf" font-size="10.00" fill="#000000">array</text>
</g>
<!-- Node12&#45;&gt;Node15 -->
<g id="edge17" class="edge">
<title>Node12&#45;&gt;Node15</title>
<path fill="none" stroke="#191970" d="M895.5026,-56.2455C909.158,-47.6534 929.2657,-35.0014 944.9989,-25.1018"/>
<polygon fill="#191970" stroke="#191970" points="947.0751,-27.9307 953.675,-19.6427 943.3471,-22.006 947.0751,-27.9307"/>
</g>
<!-- Node16 -->
<g id="node17" class="node">
<title>Node16</title>
<polygon fill="none" stroke="#bfbfbf" points="1008.5,-.5 1008.5,-19.5 1061.5,-19.5 1061.5,-.5 1008.5,-.5"/>
<text text-anchor="middle" x="1035" y="-7.5" font-family="FreeSans.ttf" font-size="10.00" fill="#000000">iterator</text>
</g>
<!-- Node12&#45;&gt;Node16 -->
<g id="edge19" class="edge">
<title>Node12&#45;&gt;Node16</title>
<path fill="none" stroke="#191970" d="M906.6454,-56.3733C932.1964,-47.1419 970.9512,-33.1402 999.1909,-22.9375"/>
<polygon fill="#191970" stroke="#191970" points="1000.4865,-26.1909 1008.7022,-19.5011 998.1079,-19.6074 1000.4865,-26.1909"/>
</g>
<!-- Node17 -->
<g id="node18" class="node">
<title>Node17</title>
<polygon fill="none" stroke="#bfbfbf" points="570,-.5 570,-19.5 614,-19.5 614,-.5 570,-.5"/>
<text text-anchor="middle" x="592" y="-7.5" font-family="FreeSans.ttf" font-size="10.00" fill="#000000">limits</text>
</g>
<!-- Node12&#45;&gt;Node17 -->
<g id="edge20" class="edge">
<title>Node12&#45;&gt;Node17</title>
<path fill="none" stroke="#191970" d="M819.2927,-57.2839C767.137,-49.2747 690.1165,-36.2035 624,-20 623.9011,-19.9758 623.802,-19.9514 623.7028,-19.9269"/>
<polygon fill="#191970" stroke="#191970" points="624.8483,-16.6116 614.2794,-17.3532 623.0039,-23.3643 624.8483,-16.6116"/>
</g>
<!-- Node18 -->
<g id="node19" class="node">
<title>Node18</title>
<polygon fill="none" stroke="#bfbfbf" points="632.5,-.5 632.5,-19.5 697.5,-19.5 697.5,-.5 632.5,-.5"/>
<text text-anchor="middle" x="665" y="-7.5" font-family="FreeSans.ttf" font-size="10.00" fill="#000000">stdexcept</text>
</g>
<!-- Node12&#45;&gt;Node18 -->
<g id="edge21" class="edge">
<title>Node12&#45;&gt;Node18</title>
<path fill="none" stroke="#191970" d="M843.0402,-56.3733C805.3776,-46.5635 747.0327,-31.3667 707.4867,-21.0663"/>
<polygon fill="#191970" stroke="#191970" points="708.1721,-17.6281 697.6128,-18.4945 706.4077,-24.4021 708.1721,-17.6281"/>
</g>
<!-- Node19 -->
<g id="node20" class="node">
<title>Node19</title>
<polygon fill="none" stroke="#bfbfbf" points="715.5,-.5 715.5,-19.5 784.5,-19.5 784.5,-.5 715.5,-.5"/>
<text text-anchor="middle" x="750" y="-7.5" font-family="FreeSans.ttf" font-size="10.00" fill="#000000">type_traits</text>
</g>
<!-- Node12&#45;&gt;Node19 -->
<g id="edge22" class="edge">
<title>Node12&#45;&gt;Node19</title>
<path fill="none" stroke="#191970" d="M857.6522,-56.3733C836.5967,-47.3032 804.8505,-33.6279 781.2825,-23.4755"/>
<polygon fill="#191970" stroke="#191970" points="782.625,-20.243 772.0562,-19.5011 779.8556,-26.6719 782.625,-20.243"/>
</g>
<!-- Node20 -->
<g id="node21" class="node">
<title>Node20</title>
<polygon fill="none" stroke="#bfbfbf" points="802.5,-.5 802.5,-19.5 847.5,-19.5 847.5,-.5 802.5,-.5"/>
<text text-anchor="middle" x="825" y="-7.5" font-family="FreeSans.ttf" font-size="10.00" fill="#000000">utility</text>
</g>
<!-- Node12&#45;&gt;Node20 -->
<g id="edge23" class="edge">
<title>Node12&#45;&gt;Node20</title>
<path fill="none" stroke="#191970" d="M870.4197,-56.2455C862.4542,-48.1352 850.9359,-36.4075 841.4921,-26.7919"/>
<polygon fill="#191970" stroke="#191970" points="843.9747,-24.3247 834.4705,-19.6427 838.9805,-29.2297 843.9747,-24.3247"/>
</g>
<!-- Node23&#45;&gt;Node3 -->
<g id="edge47" class="edge">
<title>Node23&#45;&gt;Node3</title>
<path fill="none" stroke="#191970" d="M657.3491,-291.41C638.0755,-274.8098 599.9081,-238.6692 582,-199 565.0373,-161.425 562.4405,-112.3356 562.4584,-85.5433"/>
<polygon fill="#191970" stroke="#191970" points="565.9582,-85.5704 562.5918,-75.5246 558.9588,-85.4771 565.9582,-85.5704"/>
</g>
<!-- Node24 -->
<g id="node25" class="node">
<title>Node24</title>
<g id="a_node25"><a xlink:href="PositionRaw_8h.html" target="_top" xlink:title="iDynTree/Core/PositionRaw.h">
<polygon fill="none" stroke="#000000" points="591,-174 591,-193 747,-193 747,-174 591,-174"/>
<text text-anchor="middle" x="669" y="-181" font-family="FreeSans.ttf" font-size="10.00" fill="#000000">iDynTree/Core/PositionRaw.h</text>
</a>
</g>
</g>
<!-- Node23&#45;&gt;Node24 -->
<g id="edge30" class="edge">
<title>Node23&#45;&gt;Node24</title>
<path fill="none" stroke="#191970" d="M669,-291.3845C669,-272.1913 669,-228.786 669,-203.2663"/>
<polygon fill="#191970" stroke="#191970" points="672.5001,-203.2483 669,-193.2484 665.5001,-203.2484 672.5001,-203.2483"/>
</g>
<!-- Node25 -->
<g id="node26" class="node">
<title>Node25</title>
<g id="a_node26"><a xlink:href="Rotation_8h.html" target="_top" xlink:title="iDynTree/Core/Rotation.h">
<polygon fill="none" stroke="#000000" points="899.5,-235.5 899.5,-254.5 1036.5,-254.5 1036.5,-235.5 899.5,-235.5"/>
<text text-anchor="middle" x="968" y="-242.5" font-family="FreeSans.ttf" font-size="10.00" fill="#000000">iDynTree/Core/Rotation.h</text>
</a>
</g>
</g>
<!-- Node23&#45;&gt;Node25 -->
<g id="edge33" class="edge">
<title>Node23&#45;&gt;Node25</title>
<path fill="none" stroke="#191970" d="M720.0602,-291.4369C771.8768,-281.7321 852.095,-266.708 907.1715,-256.3926"/>
<polygon fill="#191970" stroke="#191970" points="907.9656,-259.8048 917.1504,-254.5237 906.677,-252.9245 907.9656,-259.8048"/>
</g>
<!-- Node24&#45;&gt;Node3 -->
<g id="edge32" class="edge">
<title>Node24&#45;&gt;Node3</title>
<path fill="none" stroke="#191970" d="M660.3256,-173.8845C642.4674,-154.0889 601.374,-108.5372 578.7126,-83.4173"/>
<polygon fill="#191970" stroke="#191970" points="581.0915,-80.829 571.7943,-75.7484 575.8939,-85.5179 581.0915,-80.829"/>
</g>
<!-- Node24&#45;&gt;Node8 -->
<g id="edge31" class="edge">
<title>Node24&#45;&gt;Node8</title>
<path fill="none" stroke="#191970" d="M745.6801,-173.9676C761.6487,-171.9893 778.3731,-169.9222 794,-168 892.8012,-155.8467 1006.1847,-142.0297 1082.5896,-132.738"/>
<polygon fill="#191970" stroke="#191970" points="1083.1482,-136.1959 1092.6526,-131.5144 1082.3032,-129.2471 1083.1482,-136.1959"/>
</g>
<!-- Node25&#45;&gt;Node3 -->
<g id="edge34" class="edge">
<title>Node25&#45;&gt;Node3</title>
<path fill="none" stroke="#191970" d="M906.9127,-235.4577C872.4542,-228.4821 829.355,-217.0203 794,-199 774.581,-189.1022 774.1686,-180.04 756,-168 701.3937,-131.8133 632.5398,-97.9917 593.5731,-79.8388"/>
<polygon fill="#191970" stroke="#191970" points="594.8829,-76.5884 584.3371,-75.5694 591.9456,-82.9424 594.8829,-76.5884"/>
</g>
<!-- Node25&#45;&gt;Node8 -->
<g id="edge46" class="edge">
<title>Node25&#45;&gt;Node8</title>
<path fill="none" stroke="#191970" d="M976.0389,-235.4686C989.8935,-219.5602 1019.7995,-187.4304 1051,-168 1074.2834,-153.5001 1102.8782,-142.3182 1126.3135,-134.6116"/>
<polygon fill="#191970" stroke="#191970" points="1127.5452,-137.8926 1136.0108,-131.522 1125.4201,-131.2229 1127.5452,-137.8926"/>
</g>
<!-- Node26 -->
<g id="node27" class="node">
<title>Node26</title>
<g id="a_node27"><a xlink:href="GeomVector3_8h.html" target="_top" xlink:title="iDynTree/Core/GeomVector3.h">
<polygon fill="none" stroke="#000000" points="1093.5,-174 1093.5,-193 1256.5,-193 1256.5,-174 1093.5,-174"/>
<text text-anchor="middle" x="1175" y="-181" font-family="FreeSans.ttf" font-size="10.00" fill="#000000">iDynTree/Core/GeomVector3.h</text>
</a>
</g>
</g>
<!-- Node25&#45;&gt;Node26 -->
<g id="edge35" class="edge">
<title>Node25&#45;&gt;Node26</title>
<path fill="none" stroke="#191970" d="M1000.3438,-235.3906C1036.118,-224.7621 1093.8747,-207.6025 1133.0905,-195.9514"/>
<polygon fill="#191970" stroke="#191970" points="1134.2943,-199.245 1142.8834,-193.0419 1132.3007,-192.5349 1134.2943,-199.245"/>
</g>
<!-- Node27 -->
<g id="node28" class="node">
<title>Node27</title>
<g id="a_node28"><a xlink:href="RotationRaw_8h.html" target="_top" xlink:title="iDynTree/Core/RotationRaw.h">
<polygon fill="none" stroke="#000000" points="803,-174 803,-193 961,-193 961,-174 803,-174"/>
<text text-anchor="middle" x="882" y="-181" font-family="FreeSans.ttf" font-size="10.00" fill="#000000">iDynTree/Core/RotationRaw.h</text>
</a>
</g>
</g>
<!-- Node25&#45;&gt;Node27 -->
<g id="edge37" class="edge">
<title>Node25&#45;&gt;Node27</title>
<path fill="none" stroke="#191970" d="M954.5625,-235.3906C940.9305,-225.6421 919.6154,-210.3994 903.6078,-198.9521"/>
<polygon fill="#191970" stroke="#191970" points="905.5132,-196.0118 895.3431,-193.0419 901.4414,-201.7057 905.5132,-196.0118"/>
</g>
<!-- Node26&#45;&gt;Node8 -->
<g id="edge36" class="edge">
<title>Node26&#45;&gt;Node8</title>
<path fill="none" stroke="#191970" d="M1174.375,-173.8906C1173.8205,-165.3657 1172.9928,-152.6392 1172.2958,-141.9235"/>
<polygon fill="#191970" stroke="#191970" points="1175.7756,-141.4966 1171.6338,-131.7449 1168.7903,-141.951 1175.7756,-141.4966"/>
</g>
<!-- Node27&#45;&gt;Node3 -->
<g id="edge45" class="edge">
<title>Node27&#45;&gt;Node3</title>
<path fill="none" stroke="#191970" d="M872.6724,-173.9133C856.9405,-158.3448 823.4621,-127.7265 789,-112 724.2512,-82.4523 640.4621,-71.76 595.289,-67.9841"/>
<polygon fill="#191970" stroke="#191970" points="595.4391,-64.4853 585.1988,-67.2032 594.8989,-71.4644 595.4391,-64.4853"/>
</g>
<!-- Node28 -->
<g id="node29" class="node">
<title>Node28</title>
<g id="a_node29"><a xlink:href="MatrixFixSize_8h.html" target="_top" xlink:title="iDynTree/Core/MatrixFixSize.h">
<polygon fill="none" stroke="#000000" points="908.5,-112.5 908.5,-131.5 1069.5,-131.5 1069.5,-112.5 908.5,-112.5"/>
<text text-anchor="middle" x="989" y="-119.5" font-family="FreeSans.ttf" font-size="10.00" fill="#000000">iDynTree/Core/MatrixFixSize.h</text>
</a>
</g>
</g>
<!-- Node27&#45;&gt;Node28 -->
<g id="edge38" class="edge">
<title>Node27&#45;&gt;Node28</title>
<path fill="none" stroke="#191970" d="M898.7188,-173.8906C916.0722,-163.9165 943.4323,-148.1908 963.4882,-136.6633"/>
<polygon fill="#191970" stroke="#191970" points="965.4728,-139.5596 972.3987,-131.5419 961.9846,-133.4907 965.4728,-139.5596"/>
</g>
<!-- Node28&#45;&gt;Node3 -->
<g id="edge42" class="edge">
<title>Node28&#45;&gt;Node3</title>
<path fill="none" stroke="#191970" d="M916.252,-112.4369C822.4147,-100.1015 663.2013,-79.172 595.2686,-70.2419"/>
<polygon fill="#191970" stroke="#191970" points="595.5445,-66.7481 585.1735,-68.9148 594.6321,-73.6884 595.5445,-66.7481"/>
</g>
<!-- Node28&#45;&gt;Node9 -->
<g id="edge39" class="edge">
<title>Node28&#45;&gt;Node9</title>
<path fill="none" stroke="#191970" d="M1044.671,-112.4369C1101.4011,-102.6918 1189.355,-87.5832 1249.4247,-77.2645"/>
<polygon fill="#191970" stroke="#191970" points="1250.2956,-80.6662 1259.5586,-75.5237 1249.1104,-73.7673 1250.2956,-80.6662"/>
</g>
<!-- Node28&#45;&gt;Node13 -->
<g id="edge40" class="edge">
<title>Node28&#45;&gt;Node13</title>
<path fill="none" stroke="#191970" d="M985.5725,-112.0426C981.4696,-98.1706 976.49,-72.8406 988,-56 992.9332,-48.7821 1037.2829,-32.7775 1070.1678,-21.6902"/>
<polygon fill="#191970" stroke="#191970" points="1071.5734,-24.9108 1079.949,-18.4223 1069.3553,-18.2715 1071.5734,-24.9108"/>
</g>
<!-- Node28&#45;&gt;Node21 -->
<g id="edge44" class="edge">
<title>Node28&#45;&gt;Node21</title>
<path fill="none" stroke="#191970" d="M1020.2869,-112.3733C1051.5107,-102.7659 1099.527,-87.9917 1132.9416,-77.7103"/>
<polygon fill="#191970" stroke="#191970" points="1134.2797,-80.9606 1142.8081,-74.6744 1132.221,-74.2701 1134.2797,-80.9606"/>
</g>
<!-- Node28&#45;&gt;Node22 -->
<g id="edge41" class="edge">
<title>Node28&#45;&gt;Node22</title>
<path fill="none" stroke="#191970" d="M994.7482,-112.2455C999.2435,-104.617 1005.6248,-93.7881 1011.0825,-84.5267"/>
<polygon fill="#191970" stroke="#191970" points="1014.2561,-86.035 1016.3177,-75.6427 1008.2253,-82.4811 1014.2561,-86.035"/>
</g>
<!-- Node29 -->
<g id="node30" class="node">
<title>Node29</title>
<polygon fill="none" stroke="#bfbfbf" points="1065,-56.5 1065,-75.5 1125,-75.5 1125,-56.5 1065,-56.5"/>
<text text-anchor="middle" x="1095" y="-63.5" font-family="FreeSans.ttf" font-size="10.00" fill="#000000">iostream</text>
</g>
<!-- Node28&#45;&gt;Node29 -->
<g id="edge43" class="edge">
<title>Node28&#45;&gt;Node29</title>
<path fill="none" stroke="#191970" d="M1007.4638,-112.2455C1024.1074,-103.4527 1048.7993,-90.4079 1067.7192,-80.4125"/>
<polygon fill="#191970" stroke="#191970" points="1069.5408,-83.4086 1076.7478,-75.6427 1066.2709,-77.2193 1069.5408,-83.4086"/>
</g>
<!-- Node30&#45;&gt;Node3 -->
<g id="edge49" class="edge">
<title>Node30&#45;&gt;Node3</title>
<path fill="none" stroke="#191970" d="M177.5566,-291.1984C179.9255,-259.4757 191.9862,-158.9459 251,-112 293.7937,-77.9574 459.7536,-69.0339 530.6239,-66.756"/>
<polygon fill="#191970" stroke="#191970" points="530.8652,-70.2504 540.757,-66.4552 530.6575,-63.2535 530.8652,-70.2504"/>
</g>
<!-- Node31&#45;&gt;Node3 -->
<g id="edge52" class="edge">
<title>Node31&#45;&gt;Node3</title>
<path fill="none" stroke="#191970" d="M408.1464,-112.3733C442.4993,-102.0858 496.6355,-85.8739 530.9509,-75.5976"/>
<polygon fill="#191970" stroke="#191970" points="532.3448,-78.8338 540.9203,-72.6121 530.3366,-72.1281 532.3448,-78.8338"/>
</g>
<!-- Node31&#45;&gt;Node12 -->
<g id="edge51" class="edge">
<title>Node31&#45;&gt;Node12</title>
<path fill="none" stroke="#191970" d="M459.5081,-112.7213C557.2536,-101.8607 717.4161,-84.0649 809.2851,-73.8572"/>
<polygon fill="#191970" stroke="#191970" points="809.7698,-77.325 819.3221,-72.742 808.9967,-70.3678 809.7698,-77.325"/>
</g>
<!-- Node32&#45;&gt;Node4 -->
<g id="edge82" class="edge">
<title>Node32&#45;&gt;Node4</title>
<path fill="none" stroke="#191970" d="M594.2075,-526.4369C539.5049,-516.712 454.7565,-501.6456 396.7227,-491.3285"/>
<polygon fill="#191970" stroke="#191970" points="397.0289,-487.8281 386.5706,-489.5237 395.8036,-494.7201 397.0289,-487.8281"/>
</g>
<!-- Node33 -->
<g id="node34" class="node">
<title>Node33</title>
<g id="a_node34"><a xlink:href="Transform_8h.html" target="_top" xlink:title="iDynTree/Core/Transform.h">
<polygon fill="none" stroke="#000000" points="596,-347.5 596,-366.5 742,-366.5 742,-347.5 596,-347.5"/>
<text text-anchor="middle" x="669" y="-354.5" font-family="FreeSans.ttf" font-size="10.00" fill="#000000">iDynTree/Core/Transform.h</text>
</a>
</g>
</g>
<!-- Node32&#45;&gt;Node33 -->
<g id="edge56" class="edge">
<title>Node32&#45;&gt;Node33</title>
<path fill="none" stroke="#191970" d="M636.26,-526.4549C626.869,-518.0029 614.4091,-504.7442 609,-490 605.9385,-481.655 606.8521,-478.6255 609,-470 618.0237,-433.7635 641.0724,-396.3865 655.8332,-374.9952"/>
<polygon fill="#191970" stroke="#191970" points="658.8512,-376.7894 661.7694,-366.6043 653.1367,-372.7465 658.8512,-376.7894"/>
</g>
<!-- Node34 -->
<g id="node35" class="node">
<title>Node34</title>
<g id="a_node35"><a xlink:href="Twist_8h.html" target="_top" xlink:title="iDynTree/Core/Twist.h">
<polygon fill="none" stroke="#000000" points="618,-470.5 618,-489.5 740,-489.5 740,-470.5 618,-470.5"/>
<text text-anchor="middle" x="679" y="-477.5" font-family="FreeSans.ttf" font-size="10.00" fill="#000000">iDynTree/Core/Twist.h</text>
</a>
</g>
</g>
<!-- Node32&#45;&gt;Node34 -->
<g id="edge61" class="edge">
<title>Node32&#45;&gt;Node34</title>
<path fill="none" stroke="#191970" d="M653.3998,-526.2455C657.6227,-518.617 663.6173,-507.7881 668.7441,-498.5267"/>
<polygon fill="#191970" stroke="#191970" points="671.881,-500.0867 673.6621,-489.6427 665.7568,-496.6965 671.881,-500.0867"/>
</g>
<!-- Node37 -->
<g id="node38" class="node">
<title>Node37</title>
<g id="a_node38"><a xlink:href="SpatialAcc_8h.html" target="_top" xlink:title="iDynTree/Core/SpatialAcc.h">
<polygon fill="none" stroke="#000000" points="758,-470.5 758,-489.5 906,-489.5 906,-470.5 758,-470.5"/>
<text text-anchor="middle" x="832" y="-477.5" font-family="FreeSans.ttf" font-size="10.00" fill="#000000">iDynTree/Core/SpatialAcc.h</text>
</a>
</g>
</g>
<!-- Node32&#45;&gt;Node37 -->
<g id="edge72" class="edge">
<title>Node32&#45;&gt;Node37</title>
<path fill="none" stroke="#191970" d="M679.6307,-526.3733C710.3596,-517.021 757.176,-502.7725 790.8022,-492.5385"/>
<polygon fill="#191970" stroke="#191970" points="792.2344,-495.7612 800.782,-489.5011 790.1962,-489.0644 792.2344,-495.7612"/>
</g>
<!-- Node38 -->
<g id="node39" class="node">
<title>Node38</title>
<g id="a_node39"><a xlink:href="Wrench_8h.html" target="_top" xlink:title="iDynTree/Core/Wrench.h">
<polygon fill="none" stroke="#000000" points="924.5,-470.5 924.5,-489.5 1057.5,-489.5 1057.5,-470.5 924.5,-470.5"/>
<text text-anchor="middle" x="991" y="-477.5" font-family="FreeSans.ttf" font-size="10.00" fill="#000000">iDynTree/Core/Wrench.h</text>
</a>
</g>
</g>
<!-- Node32&#45;&gt;Node38 -->
<g id="edge74" class="edge">
<title>Node32&#45;&gt;Node38</title>
<path fill="none" stroke="#191970" d="M706.5741,-526.4369C766.5091,-516.6516 859.5683,-501.4582 922.7871,-491.1368"/>
<polygon fill="#191970" stroke="#191970" points="923.3622,-494.5893 932.6675,-489.5237 922.2342,-487.6808 923.3622,-494.5893"/>
</g>
<!-- Node40 -->
<g id="node41" class="node">
<title>Node40</title>
<g id="a_node41"><a xlink:href="ArticulatedBodyInertia_8h.html" target="_top" xlink:title="iDynTree/Core/Articulated\lBodyInertia.h">
<polygon fill="none" stroke="#000000" points="355.5,-168.5 355.5,-198.5 496.5,-198.5 496.5,-168.5 355.5,-168.5"/>
<text text-anchor="start" x="363.5" y="-186.5" font-family="FreeSans.ttf" font-size="10.00" fill="#000000">iDynTree/Core/Articulated</text>
<text text-anchor="middle" x="426" y="-175.5" font-family="FreeSans.ttf" font-size="10.00" fill="#000000">BodyInertia.h</text>
</a>
</g>
</g>
<!-- Node32&#45;&gt;Node40 -->
<g id="edge79" class="edge">
<title>Node32&#45;&gt;Node40</title>
<path fill="none" stroke="#191970" d="M637.2139,-526.4392C627.5713,-517.5686 613.3992,-503.7063 603,-490 529.0497,-392.5323 463.061,-261.2715 437.3831,-207.7434"/>
<polygon fill="#191970" stroke="#191970" points="440.5254,-206.2014 433.0647,-198.6788 434.2059,-209.212 440.5254,-206.2014"/>
</g>
<!-- Node32&#45;&gt;Node41 -->
<g id="edge83" class="edge">
<title>Node32&#45;&gt;Node41</title>
<path fill="none" stroke="#191970" d="M722.8582,-532.1598C804.9913,-526.9634 940.7026,-515.488 1065.2743,-490.0429"/>
<polygon fill="#191970" stroke="#191970" points="1066.2906,-493.4065 1075.3691,-487.9447 1064.8661,-486.553 1066.2906,-493.4065"/>
</g>
<!-- Node33&#45;&gt;Node3 -->
<g id="edge60" class="edge">
<title>Node33&#45;&gt;Node3</title>
<path fill="none" stroke="#191970" d="M635.9635,-347.4779C593.4498,-332.958 525,-300.9003 525,-245 525,-245 525,-245 525,-183.5 525,-147.2454 541.5805,-107.6181 552.837,-84.8929"/>
<polygon fill="#191970" stroke="#191970" points="556.0965,-86.2076 557.5555,-75.7137 549.8708,-83.0073 556.0965,-86.2076"/>
</g>
<!-- Node33&#45;&gt;Node23 -->
<g id="edge57" class="edge">
<title>Node33&#45;&gt;Node23</title>
<path fill="none" stroke="#191970" d="M669,-347.2455C669,-339.9382 669,-329.6944 669,-320.7046"/>
<polygon fill="#191970" stroke="#191970" points="672.5001,-320.6426 669,-310.6427 665.5001,-320.6427 672.5001,-320.6426"/>
</g>
<!-- Node33&#45;&gt;Node25 -->
<g id="edge58" class="edge">
<title>Node33&#45;&gt;Node25</title>
<path fill="none" stroke="#191970" d="M742.2075,-349.9228C785.3481,-343.7079 840.0949,-332.185 885,-311 910.8053,-298.8258 935.7862,-277.2021 951.4827,-262.0325"/>
<polygon fill="#191970" stroke="#191970" points="954.1664,-264.3003 958.7999,-254.7724 949.236,-259.3312 954.1664,-264.3003"/>
</g>
<!-- Node33&#45;&gt;Node28 -->
<g id="edge59" class="edge">
<title>Node33&#45;&gt;Node28</title>
<path fill="none" stroke="#191970" d="M685.4826,-347.3858C722.0201,-326.1975 812.7774,-274.2474 891,-235 925.4873,-217.6963 945.363,-228.6952 970,-199 983.2865,-182.9857 987.5075,-159.045 988.736,-142.1172"/>
<polygon fill="#191970" stroke="#191970" points="992.2509,-141.8429 989.1831,-131.702 985.2573,-141.5426 992.2509,-141.8429"/>
</g>
<!-- Node35 -->
<g id="node36" class="node">
<title>Node35</title>
<g id="a_node36"><a xlink:href="SpatialMotionVector_8h.html" target="_top" xlink:title="iDynTree/Core/SpatialMotion\lVector.h">
<polygon fill="none" stroke="#000000" points="950.5,-403.5 950.5,-433.5 1105.5,-433.5 1105.5,-403.5 950.5,-403.5"/>
<text text-anchor="start" x="958.5" y="-421.5" font-family="FreeSans.ttf" font-size="10.00" fill="#000000">iDynTree/Core/SpatialMotion</text>
<text text-anchor="middle" x="1028" y="-410.5" font-family="FreeSans.ttf" font-size="10.00" fill="#000000">Vector.h</text>
</a>
</g>
</g>
<!-- Node34&#45;&gt;Node35 -->
<g id="edge62" class="edge">
<title>Node34&#45;&gt;Node35</title>
<path fill="none" stroke="#191970" d="M733.1483,-470.4581C788.5102,-460.7024 875.3835,-445.3937 940.5177,-433.9159"/>
<polygon fill="#191970" stroke="#191970" points="941.1287,-437.3623 950.3695,-432.1799 939.9138,-430.4685 941.1287,-437.3623"/>
</g>
<!-- Node35&#45;&gt;Node8 -->
<g id="edge63" class="edge">
<title>Node35&#45;&gt;Node8</title>
<path fill="none" stroke="#191970" d="M1029.8036,-403.2101C1035.7665,-354.7991 1056.1222,-205.8544 1085,-168 1096.2463,-153.2579 1113.6075,-142.7109 1129.7944,-135.4675"/>
<polygon fill="#191970" stroke="#191970" points="1131.2484,-138.6534 1139.1341,-131.5777 1128.5571,-132.1914 1131.2484,-138.6534"/>
</g>
<!-- Node35&#45;&gt;Node26 -->
<g id="edge64" class="edge">
<title>Node35&#45;&gt;Node26</title>
<path fill="none" stroke="#191970" d="M1037.4191,-403.4422C1063.277,-362.1048 1135.3083,-246.9528 1163.4888,-201.9023"/>
<polygon fill="#191970" stroke="#191970" points="1166.6122,-203.5087 1168.9482,-193.1746 1160.6777,-199.7964 1166.6122,-203.5087"/>
</g>
<!-- Node36 -->
<g id="node37" class="node">
<title>Node36</title>
<g id="a_node37"><a xlink:href="SpatialVector_8h.html" target="_top" xlink:title="iDynTree/Core/SpatialVector.h">
<polygon fill="none" stroke="#000000" points="1094.5,-347.5 1094.5,-366.5 1255.5,-366.5 1255.5,-347.5 1094.5,-347.5"/>
<text text-anchor="middle" x="1175" y="-354.5" font-family="FreeSans.ttf" font-size="10.00" fill="#000000">iDynTree/Core/SpatialVector.h</text>
</a>
</g>
</g>
<!-- Node35&#45;&gt;Node36 -->
<g id="edge65" class="edge">
<title>Node35&#45;&gt;Node36</title>
<path fill="none" stroke="#191970" d="M1063.9602,-403.4554C1088.0573,-393.374 1119.513,-380.2139 1142.7903,-370.4755"/>
<polygon fill="#191970" stroke="#191970" points="1144.3459,-373.6187 1152.2202,-366.5303 1141.6442,-367.1611 1144.3459,-373.6187"/>
</g>
<!-- Node36&#45;&gt;Node9 -->
<g id="edge68" class="edge">
<title>Node36&#45;&gt;Node9</title>
<path fill="none" stroke="#191970" d="M1255.6297,-352.953C1382.8861,-344.3341 1616,-318.5129 1616,-245 1616,-245 1616,-245 1616,-183.5 1616,-132.9278 1466.6916,-95.307 1378.3912,-77.48"/>
<polygon fill="#191970" stroke="#191970" points="1378.9564,-74.024 1368.4659,-75.5075 1377.5918,-80.8897 1378.9564,-74.024"/>
</g>
<!-- Node36&#45;&gt;Node21 -->
<g id="edge71" class="edge">
<title>Node36&#45;&gt;Node21</title>
<path fill="none" stroke="#191970" d="M1255.8811,-350.1829C1368.2681,-336.1103 1555.7457,-293.7142 1535,-168 1530.7207,-142.0683 1536.3015,-128.6917 1516,-112 1515.2599,-111.3915 1298.8348,-82.8334 1209.1919,-71.0266"/>
<polygon fill="#191970" stroke="#191970" points="1209.5329,-67.5414 1199.1615,-69.7057 1208.6189,-74.4815 1209.5329,-67.5414"/>
</g>
<!-- Node36&#45;&gt;Node23 -->
<g id="edge66" class="edge">
<title>Node36&#45;&gt;Node23</title>
<path fill="none" stroke="#191970" d="M1094.2633,-348.0647C998.9631,-337.5177 841.5611,-320.0977 747.324,-309.6683"/>
<polygon fill="#191970" stroke="#191970" points="747.6048,-306.1781 737.2804,-308.5567 746.8347,-313.1356 747.6048,-306.1781"/>
</g>
<!-- Node36&#45;&gt;Node25 -->
<g id="edge67" class="edge">
<title>Node36&#45;&gt;Node25</title>
<path fill="none" stroke="#191970" d="M1157.3513,-347.4509C1120.993,-327.7788 1037.56,-282.6363 994.6152,-259.4005"/>
<polygon fill="#191970" stroke="#191970" points="996.0648,-256.2054 985.604,-254.5249 992.7336,-262.362 996.0648,-256.2054"/>
</g>
<!-- Node36&#45;&gt;Node26 -->
<g id="edge69" class="edge">
<title>Node36&#45;&gt;Node26</title>
<path fill="none" stroke="#191970" d="M1175,-347.4248C1175,-319.999 1175,-240.732 1175,-203.3964"/>
<polygon fill="#191970" stroke="#191970" points="1178.5001,-203.2595 1175,-193.2595 1171.5001,-203.2596 1178.5001,-203.2595"/>
</g>
<!-- Node36&#45;&gt;Node29 -->
<g id="edge70" class="edge">
<title>Node36&#45;&gt;Node29</title>
<path fill="none" stroke="#191970" d="M1235.5448,-347.4925C1312.8325,-331.7526 1443.5249,-292.1973 1502,-199 1509.3226,-187.3293 1510.3116,-178.9884 1502,-168 1402.2831,-36.1688 1302.1454,-111.332 1135.2561,-76.1171"/>
<polygon fill="#191970" stroke="#191970" points="1135.7243,-72.6357 1125.2026,-73.8787 1134.203,-79.4684 1135.7243,-72.6357"/>
</g>
<!-- Node37&#45;&gt;Node35 -->
<g id="edge73" class="edge">
<title>Node37&#45;&gt;Node35</title>
<path fill="none" stroke="#191970" d="M862.625,-470.3906C891.3617,-461.3737 935.079,-447.6563 970.3486,-436.5896"/>
<polygon fill="#191970" stroke="#191970" points="971.5595,-439.878 980.053,-433.5446 969.4638,-433.199 971.5595,-439.878"/>
</g>
<!-- Node39 -->
<g id="node40" class="node">
<title>Node39</title>
<g id="a_node40"><a xlink:href="SpatialForceVector_8h.html" target="_top" xlink:title="iDynTree/Core/SpatialForce\lVector.h">
<polygon fill="none" stroke="#000000" points="1167,-403.5 1167,-433.5 1315,-433.5 1315,-403.5 1167,-403.5"/>
<text text-anchor="start" x="1175" y="-421.5" font-family="FreeSans.ttf" font-size="10.00" fill="#000000">iDynTree/Core/SpatialForce</text>
<text text-anchor="middle" x="1241" y="-410.5" font-family="FreeSans.ttf" font-size="10.00" fill="#000000">Vector.h</text>
</a>
</g>
</g>
<!-- Node38&#45;&gt;Node39 -->
<g id="edge75" class="edge">
<title>Node38&#45;&gt;Node39</title>
<path fill="none" stroke="#191970" d="M1029.7882,-470.4581C1067.0981,-461.2799 1124.3873,-447.1867 1169.8918,-435.9926"/>
<polygon fill="#191970" stroke="#191970" points="1170.8312,-439.366 1179.7056,-433.5784 1169.159,-432.5686 1170.8312,-439.366"/>
</g>
<!-- Node39&#45;&gt;Node8 -->
<g id="edge76" class="edge">
<title>Node39&#45;&gt;Node8</title>
<path fill="none" stroke="#191970" d="M1256.274,-403.3254C1264.757,-393.7875 1274.4857,-380.7214 1279,-367 1297.1242,-311.9109 1410.6619,-381.1952 1266,-168 1255.5927,-152.6623 1238.5788,-142.2636 1221.8037,-135.2954"/>
<polygon fill="#191970" stroke="#191970" points="1222.5973,-131.8531 1212.006,-131.5777 1220.1138,-138.3978 1222.5973,-131.8531"/>
</g>
<!-- Node39&#45;&gt;Node26 -->
<g id="edge77" class="edge">
<title>Node39&#45;&gt;Node26</title>
<path fill="none" stroke="#191970" d="M1251.4531,-403.3494C1260.0607,-389.0063 1270.0852,-366.7833 1265,-347 1250.1514,-289.2333 1210.1231,-230.0054 1188.8036,-201.2854"/>
<polygon fill="#191970" stroke="#191970" points="1191.4175,-198.9391 1182.5947,-193.0732 1185.8338,-203.1608 1191.4175,-198.9391"/>
</g>
<!-- Node39&#45;&gt;Node36 -->
<g id="edge78" class="edge">
<title>Node39&#45;&gt;Node36</title>
<path fill="none" stroke="#191970" d="M1224.6854,-403.2977C1215.0467,-394.3163 1202.8309,-382.9334 1192.9241,-373.702"/>
<polygon fill="#191970" stroke="#191970" points="1195.2696,-371.1036 1185.5674,-366.8469 1190.4975,-376.2249 1195.2696,-371.1036"/>
</g>
<!-- Node40&#45;&gt;Node3 -->
<g id="edge81" class="edge">
<title>Node40&#45;&gt;Node3</title>
<path fill="none" stroke="#191970" d="M443.6299,-168.3795C469.4535,-146.2315 517.3742,-105.1316 543.9706,-82.3209"/>
<polygon fill="#191970" stroke="#191970" points="546.4894,-84.7716 551.8014,-75.6046 541.9322,-79.4581 546.4894,-84.7716"/>
</g>
<!-- Node40&#45;&gt;Node28 -->
<g id="edge80" class="edge">
<title>Node40&#45;&gt;Node28</title>
<path fill="none" stroke="#191970" d="M496.7343,-175.7733C598.4033,-164.6673 785.8977,-144.1861 897.8422,-131.9577"/>
<polygon fill="#191970" stroke="#191970" points="898.5399,-135.4024 908.1006,-130.8371 897.7797,-128.4438 898.5399,-135.4024"/>
</g>
</g>
</svg>
