<?xml version="1.0" encoding="UTF-8" standalone="no"?>
<!DOCTYPE svg PUBLIC "-//W3C//DTD SVG 1.1//EN"
 "http://www.w3.org/Graphics/SVG/1.1/DTD/svg11.dtd">
<!-- Generated by graphviz version 2.40.1 (20161225.0304)
 -->
<!-- Title: idyntree&#45;model&#45;info.cpp Pages: 1 -->
<svg width="2303pt" height="677pt"
 viewBox="0.00 0.00 2302.98 677.00" xmlns="http://www.w3.org/2000/svg" xmlns:xlink="http://www.w3.org/1999/xlink">
<g id="graph0" class="graph" transform="scale(1 1) rotate(0) translate(4 673)">
<title>idyntree&#45;model&#45;info.cpp</title>
<!-- Node0 -->
<g id="node1" class="node">
<title>Node0</title>
<polygon fill="#bfbfbf" stroke="#000000" points="1671.9134,-649.5 1671.9134,-668.5 1805.9134,-668.5 1805.9134,-649.5 1671.9134,-649.5"/>
<text text-anchor="middle" x="1738.9134" y="-656.5" font-family="FreeSans.ttf" font-size="10.00" fill="#000000">idyntree&#45;model&#45;info.cpp</text>
</g>
<!-- Node1 -->
<g id="node2" class="node">
<title>Node1</title>
<g id="a_node2"><a xlink:href="Model_8h.html" target="_top" xlink:title="iDynTree/Model/Model.h">
<polygon fill="none" stroke="#000000" points="1390.4134,-481.5 1390.4134,-500.5 1523.4134,-500.5 1523.4134,-481.5 1390.4134,-481.5"/>
<text text-anchor="middle" x="1456.9134" y="-488.5" font-family="FreeSans.ttf" font-size="10.00" fill="#000000">iDynTree/Model/Model.h</text>
</a>
</g>
</g>
<!-- Node0&#45;&gt;Node1 -->
<g id="edge1" class="edge">
<title>Node0&#45;&gt;Node1</title>
<path fill="none" stroke="#191970" d="M1671.743,-655.9574C1602.9852,-651.3754 1502.5382,-640.1262 1475.9134,-613 1449.2423,-585.8266 1450.4355,-537.6278 1453.6659,-510.6624"/>
<polygon fill="#191970" stroke="#191970" points="1457.1641,-510.9208 1455.0998,-500.529 1450.2332,-509.94 1457.1641,-510.9208"/>
</g>
<!-- Node16 -->
<g id="node35" class="node">
<title>Node16</title>
<polygon fill="none" stroke="#bfbfbf" points="2094.9134,-56.5 2094.9134,-75.5 2154.9134,-75.5 2154.9134,-56.5 2094.9134,-56.5"/>
<text text-anchor="middle" x="2124.9134" y="-63.5" font-family="FreeSans.ttf" font-size="10.00" fill="#000000">iostream</text>
</g>
<!-- Node0&#45;&gt;Node16 -->
<g id="edge108" class="edge">
<title>Node0&#45;&gt;Node16</title>
<path fill="none" stroke="#191970" d="M1806.1607,-657.2263C1938.2635,-651.908 2218.9134,-630.7534 2218.9134,-547 2218.9134,-547 2218.9134,-547 2218.9134,-183.5 2218.9134,-138.7119 2176.7535,-101.2139 2148.9034,-81.3294"/>
<polygon fill="#191970" stroke="#191970" points="2150.6583,-78.2885 2140.4356,-75.5054 2146.6915,-84.056 2150.6583,-78.2885"/>
</g>
<!-- Node41 -->
<g id="node37" class="node">
<title>Node41</title>
<polygon fill="none" stroke="#bfbfbf" points="1857.4134,-358.5 1857.4134,-377.5 1906.4134,-377.5 1906.4134,-358.5 1857.4134,-358.5"/>
<text text-anchor="middle" x="1881.9134" y="-365.5" font-family="FreeSans.ttf" font-size="10.00" fill="#000000">cstdlib</text>
</g>
<!-- Node0&#45;&gt;Node41 -->
<g id="edge109" class="edge">
<title>Node0&#45;&gt;Node41</title>
<path fill="none" stroke="#191970" d="M1782.9625,-649.4634C1832.1408,-635.9218 1904.9134,-605.9277 1904.9134,-547 1904.9134,-547 1904.9134,-547 1904.9134,-491 1904.9134,-453.8871 1894.6709,-411.532 1887.8561,-387.4586"/>
<polygon fill="#191970" stroke="#191970" points="1891.1873,-386.3802 1885.0153,-377.7688 1884.47,-388.3496 1891.1873,-386.3802"/>
</g>
<!-- Node43 -->
<g id="node39" class="node">
<title>Node43</title>
<g id="a_node39"><a xlink:href="ModelLoader_8h.html" target="_top" xlink:title="iDynTree/ModelIO/ModelLoader.h">
<polygon fill="none" stroke="#000000" points="1484.9134,-593.5 1484.9134,-612.5 1660.9134,-612.5 1660.9134,-593.5 1484.9134,-593.5"/>
<text text-anchor="middle" x="1572.9134" y="-600.5" font-family="FreeSans.ttf" font-size="10.00" fill="#000000">iDynTree/ModelIO/ModelLoader.h</text>
</a>
</g>
</g>
<!-- Node0&#45;&gt;Node43 -->
<g id="edge62" class="edge">
<title>Node0&#45;&gt;Node43</title>
<path fill="none" stroke="#191970" d="M1710.377,-649.3733C1682.8932,-640.1016 1641.1448,-626.0178 1610.8682,-615.804"/>
<polygon fill="#191970" stroke="#191970" points="1611.6716,-612.3813 1601.0774,-612.5011 1609.434,-619.0141 1611.6716,-612.3813"/>
</g>
<!-- Node47 -->
<g id="node43" class="node">
<title>Node47</title>
<g id="a_node43"><a xlink:href="KinDynComputations_8h.html" target="_top" xlink:title="iDynTree/KinDynComputations.h">
<polygon fill="none" stroke="#000000" points="671.4134,-481.5 671.4134,-500.5 846.4134,-500.5 846.4134,-481.5 671.4134,-481.5"/>
<text text-anchor="middle" x="758.9134" y="-488.5" font-family="FreeSans.ttf" font-size="10.00" fill="#000000">iDynTree/KinDynComputations.h</text>
</a>
</g>
</g>
<!-- Node0&#45;&gt;Node47 -->
<g id="edge77" class="edge">
<title>Node0&#45;&gt;Node47</title>
<path fill="none" stroke="#191970" d="M1671.8612,-650.5451C1549.3201,-634.7441 1281.1625,-598.5504 1056.9134,-557 968.5032,-540.6188 866.3712,-516.957 807.5498,-502.8631"/>
<polygon fill="#191970" stroke="#191970" points="808.3281,-499.4505 797.787,-500.5163 806.692,-506.2567 808.3281,-499.4505"/>
</g>
<!-- Node52 -->
<g id="node48" class="node">
<title>Node52</title>
<g id="a_node48"><a xlink:href="cmdline_8h.html" target="_top" xlink:title="cmdline.h">
<polygon fill="none" stroke="#000000" points="1997.4134,-420 1997.4134,-439 2062.4134,-439 2062.4134,-420 1997.4134,-420"/>
<text text-anchor="middle" x="2029.9134" y="-427" font-family="FreeSans.ttf" font-size="10.00" fill="#000000">cmdline.h</text>
</a>
</g>
</g>
<!-- Node0&#45;&gt;Node52 -->
<g id="edge97" class="edge">
<title>Node0&#45;&gt;Node52</title>
<path fill="none" stroke="#191970" d="M1795.0477,-649.4572C1840.2477,-640.9096 1899.3588,-627.5134 1918.9134,-613 1976.8741,-569.9816 2010.7053,-486.8852 2023.7137,-449.0809"/>
<polygon fill="#191970" stroke="#191970" points="2027.1343,-449.8852 2026.9604,-439.2918 2020.4902,-447.6815 2027.1343,-449.8852"/>
</g>
<!-- Node2 -->
<g id="node3" class="node">
<title>Node2</title>
<g id="a_node3"><a xlink:href="IJoint_8h.html" target="_top" xlink:title="iDynTree/Model/IJoint.h">
<polygon fill="none" stroke="#000000" points="876.9134,-420 876.9134,-439 1004.9134,-439 1004.9134,-420 876.9134,-420"/>
<text text-anchor="middle" x="940.9134" y="-427" font-family="FreeSans.ttf" font-size="10.00" fill="#000000">iDynTree/Model/IJoint.h</text>
</a>
</g>
</g>
<!-- Node1&#45;&gt;Node2 -->
<g id="edge2" class="edge">
<title>Node1&#45;&gt;Node2</title>
<path fill="none" stroke="#191970" d="M1390.2594,-485.9097C1304.1888,-478.8995 1149.8847,-464.8481 1018.9134,-445 1011.2349,-443.8364 1003.165,-442.4358 995.2463,-440.9585"/>
<polygon fill="#191970" stroke="#191970" points="995.8179,-437.5044 985.3377,-439.0584 994.4995,-444.3792 995.8179,-437.5044"/>
</g>
<!-- Node3 -->
<g id="node4" class="node">
<title>Node3</title>
<g id="a_node4"><a xlink:href="Indices_8h.html" target="_top" xlink:title="iDynTree/Model/Indices.h">
<polygon fill="none" stroke="#000000" points="722.9134,-358.5 722.9134,-377.5 860.9134,-377.5 860.9134,-358.5 722.9134,-358.5"/>
<text text-anchor="middle" x="791.9134" y="-365.5" font-family="FreeSans.ttf" font-size="10.00" fill="#000000">iDynTree/Model/Indices.h</text>
</a>
</g>
</g>
<!-- Node1&#45;&gt;Node3 -->
<g id="edge54" class="edge">
<title>Node1&#45;&gt;Node3</title>
<path fill="none" stroke="#191970" d="M1390.2388,-487.9795C1291.4161,-482.7376 1111.34,-470.0338 1051.9134,-445 1031.8269,-436.5385 1033.5931,-423.3686 1013.9134,-414 987.8173,-401.5769 918.6028,-388.2689 864.3295,-379.1796"/>
<polygon fill="#191970" stroke="#191970" points="864.8205,-375.7134 854.3831,-377.5327 863.677,-382.6193 864.8205,-375.7134"/>
</g>
<!-- Node6 -->
<g id="node7" class="node">
<title>Node6</title>
<g id="a_node7"><a xlink:href="Link_8h.html" target="_top" xlink:title="iDynTree/Model/Link.h">
<polygon fill="none" stroke="#000000" points="1060.9134,-420 1060.9134,-439 1184.9134,-439 1184.9134,-420 1060.9134,-420"/>
<text text-anchor="middle" x="1122.9134" y="-427" font-family="FreeSans.ttf" font-size="10.00" fill="#000000">iDynTree/Model/Link.h</text>
</a>
</g>
</g>
<!-- Node1&#45;&gt;Node6 -->
<g id="edge6" class="edge">
<title>Node1&#45;&gt;Node6</title>
<path fill="none" stroke="#191970" d="M1399.0386,-481.492C1345.8714,-472.6024 1264.9407,-458.6799 1194.9134,-445 1188.7368,-443.7934 1182.2739,-442.4778 1175.863,-441.1398"/>
<polygon fill="#191970" stroke="#191970" points="1176.3876,-437.6734 1165.8801,-439.0311 1174.9408,-444.5223 1176.3876,-437.6734"/>
</g>
<!-- Node39 -->
<g id="node28" class="node">
<title>Node39</title>
<g id="a_node28"><a xlink:href="Transform_8h.html" target="_top" xlink:title="iDynTree/Core/Transform.h">
<polygon fill="none" stroke="#000000" points="1483.9134,-358.5 1483.9134,-377.5 1629.9134,-377.5 1629.9134,-358.5 1483.9134,-358.5"/>
<text text-anchor="middle" x="1556.9134" y="-365.5" font-family="FreeSans.ttf" font-size="10.00" fill="#000000">iDynTree/Core/Transform.h</text>
</a>
</g>
</g>
<!-- Node1&#45;&gt;Node39 -->
<g id="edge31" class="edge">
<title>Node1&#45;&gt;Node39</title>
<path fill="none" stroke="#191970" d="M1463.774,-481.2932C1474.3515,-466.4684 1495.4595,-437.4381 1514.9134,-414 1523.0784,-404.1627 1532.659,-393.6014 1540.6064,-385.0826"/>
<polygon fill="#191970" stroke="#191970" points="1543.3166,-387.3099 1547.6263,-377.6312 1538.2215,-382.5099 1543.3166,-387.3099"/>
</g>
<!-- Node40 -->
<g id="node36" class="node">
<title>Node40</title>
<g id="a_node36"><a xlink:href="SolidShapes_8h.html" target="_top" xlink:title="iDynTree/Model/SolidShapes.h">
<polygon fill="none" stroke="#000000" points="1523.4134,-420 1523.4134,-439 1686.4134,-439 1686.4134,-420 1523.4134,-420"/>
<text text-anchor="middle" x="1604.9134" y="-427" font-family="FreeSans.ttf" font-size="10.00" fill="#000000">iDynTree/Model/SolidShapes.h</text>
</a>
</g>
</g>
<!-- Node1&#45;&gt;Node40 -->
<g id="edge55" class="edge">
<title>Node1&#45;&gt;Node40</title>
<path fill="none" stroke="#191970" d="M1480.0384,-481.3906C1504.9101,-471.0554 1544.6431,-454.5447 1572.5978,-442.9284"/>
<polygon fill="#191970" stroke="#191970" points="1574.0594,-446.1113 1581.9508,-439.0419 1571.3732,-439.6472 1574.0594,-446.1113"/>
</g>
<!-- Node1&#45;&gt;Node41 -->
<g id="edge60" class="edge">
<title>Node1&#45;&gt;Node41</title>
<path fill="none" stroke="#191970" d="M1523.505,-484.085C1576.7245,-477.4051 1652.7656,-465.2565 1716.9134,-445 1768.2717,-428.7821 1824.3522,-400.0458 1856.1214,-382.6371"/>
<polygon fill="#191970" stroke="#191970" points="1858.1174,-385.5325 1865.1682,-377.6244 1854.7248,-379.4096 1858.1174,-385.5325"/>
</g>
<!-- Node42 -->
<g id="node38" class="node">
<title>Node42</title>
<polygon fill="none" stroke="#bfbfbf" points="1691.4134,-358.5 1691.4134,-377.5 1738.4134,-377.5 1738.4134,-358.5 1691.4134,-358.5"/>
<text text-anchor="middle" x="1714.9134" y="-365.5" font-family="FreeSans.ttf" font-size="10.00" fill="#000000">vector</text>
</g>
<!-- Node1&#45;&gt;Node42 -->
<g id="edge61" class="edge">
<title>Node1&#45;&gt;Node42</title>
<path fill="none" stroke="#191970" d="M1523.65,-486.1269C1585.528,-480.2353 1671.5913,-468.0942 1695.9134,-445 1711.312,-430.3787 1715.0531,-405.4299 1715.5937,-387.9026"/>
<polygon fill="#191970" stroke="#191970" points="1719.0934,-387.6339 1715.5772,-377.6396 1712.0934,-387.6452 1719.0934,-387.6339"/>
</g>
<!-- Node2&#45;&gt;Node3 -->
<g id="edge3" class="edge">
<title>Node2&#45;&gt;Node3</title>
<path fill="none" stroke="#191970" d="M917.6321,-419.8906C892.5923,-409.5554 852.5908,-393.0447 824.4473,-381.4284"/>
<polygon fill="#191970" stroke="#191970" points="825.6101,-378.122 815.0311,-377.5419 822.9393,-384.5925 825.6101,-378.122"/>
</g>
<!-- Node4 -->
<g id="node5" class="node">
<title>Node4</title>
<polygon fill="none" stroke="#bfbfbf" points="1293.9134,-56.5 1293.9134,-75.5 1337.9134,-75.5 1337.9134,-56.5 1293.9134,-56.5"/>
<text text-anchor="middle" x="1315.9134" y="-63.5" font-family="FreeSans.ttf" font-size="10.00" fill="#000000">string</text>
</g>
<!-- Node3&#45;&gt;Node4 -->
<g id="edge4" class="edge">
<title>Node3&#45;&gt;Node4</title>
<path fill="none" stroke="#191970" d="M722.5586,-359.1602C719.2986,-358.7638 716.0708,-358.3752 712.9134,-358 640.9765,-349.451 443.3876,-369.7551 388.9134,-322 362.4078,-298.7638 369.9134,-280.2487 369.9134,-245 369.9134,-245 369.9134,-245 369.9134,-183.5 369.9134,-83.8332 1142.4824,-96.9936 1283.6524,-75.558"/>
<polygon fill="#191970" stroke="#191970" points="1284.4883,-78.9636 1293.7045,-73.7374 1283.2408,-72.0757 1284.4883,-78.9636"/>
</g>
<!-- Node5 -->
<g id="node6" class="node">
<title>Node5</title>
<polygon fill="none" stroke="#bfbfbf" points="397.9134,-297 397.9134,-316 483.9134,-316 483.9134,-297 397.9134,-297"/>
<text text-anchor="middle" x="440.9134" y="-304" font-family="FreeSans.ttf" font-size="10.00" fill="#000000">ModelExport.h</text>
</g>
<!-- Node3&#45;&gt;Node5 -->
<g id="edge5" class="edge">
<title>Node3&#45;&gt;Node5</title>
<path fill="none" stroke="#191970" d="M725.3149,-358.4526C652.3592,-347.8386 540.1008,-331.0077 497.9134,-322 493.2091,-320.9956 488.3151,-319.8388 483.4588,-318.6193"/>
<polygon fill="#191970" stroke="#191970" points="484.1759,-315.1894 473.6166,-316.0567 482.412,-321.9636 484.1759,-315.1894"/>
</g>
<!-- Node6&#45;&gt;Node3 -->
<g id="edge30" class="edge">
<title>Node6&#45;&gt;Node3</title>
<path fill="none" stroke="#191970" d="M1077.1314,-419.9877C1067.178,-417.9687 1056.6992,-415.8803 1046.9134,-414 982.3041,-401.5857 908.2913,-388.3426 856.7059,-379.2694"/>
<polygon fill="#191970" stroke="#191970" points="857.1519,-375.7943 846.6972,-377.5118 855.9411,-382.6888 857.1519,-375.7943"/>
</g>
<!-- Node7 -->
<g id="node8" class="node">
<title>Node7</title>
<g id="a_node8"><a xlink:href="SpatialInertia_8h.html" target="_top" xlink:title="iDynTree/Core/SpatialInertia.h">
<polygon fill="none" stroke="#000000" points="1041.9134,-358.5 1041.9134,-377.5 1203.9134,-377.5 1203.9134,-358.5 1041.9134,-358.5"/>
<text text-anchor="middle" x="1122.9134" y="-365.5" font-family="FreeSans.ttf" font-size="10.00" fill="#000000">iDynTree/Core/SpatialInertia.h</text>
</a>
</g>
</g>
<!-- Node6&#45;&gt;Node7 -->
<g id="edge7" class="edge">
<title>Node6&#45;&gt;Node7</title>
<path fill="none" stroke="#191970" d="M1122.9134,-419.8906C1122.9134,-411.3657 1122.9134,-398.6392 1122.9134,-387.9235"/>
<polygon fill="#191970" stroke="#191970" points="1126.4135,-387.7448 1122.9134,-377.7449 1119.4135,-387.7449 1126.4135,-387.7448"/>
</g>
<!-- Node8 -->
<g id="node9" class="node">
<title>Node8</title>
<g id="a_node9"><a xlink:href="SpatialInertiaRaw_8h.html" target="_top" xlink:title="iDynTree/Core/SpatialInertia\lRaw.h">
<polygon fill="none" stroke="#ff0000" points="858.4134,-291.5 858.4134,-321.5 1011.4134,-321.5 1011.4134,-291.5 858.4134,-291.5"/>
<text text-anchor="start" x="866.4134" y="-309.5" font-family="FreeSans.ttf" font-size="10.00" fill="#000000">iDynTree/Core/SpatialInertia</text>
<text text-anchor="middle" x="934.9134" y="-298.5" font-family="FreeSans.ttf" font-size="10.00" fill="#000000">Raw.h</text>
</a>
</g>
</g>
<!-- Node7&#45;&gt;Node8 -->
<g id="edge8" class="edge">
<title>Node7&#45;&gt;Node8</title>
<path fill="none" stroke="#191970" d="M1093.5384,-358.3906C1066.0924,-349.4123 1024.3999,-335.7735 990.6458,-324.7316"/>
<polygon fill="#191970" stroke="#191970" points="991.4959,-321.3273 980.9033,-321.5446 989.3195,-327.9803 991.4959,-321.3273"/>
</g>
<!-- Node18 -->
<g id="node10" class="node">
<title>Node18</title>
<g id="a_node10"><a xlink:href="VectorFixSize_8h.html" target="_top" xlink:title="iDynTree/Core/VectorFixSize.h">
<polygon fill="none" stroke="#000000" points="1461.4134,-112.5 1461.4134,-131.5 1622.4134,-131.5 1622.4134,-112.5 1461.4134,-112.5"/>
<text text-anchor="middle" x="1541.9134" y="-119.5" font-family="FreeSans.ttf" font-size="10.00" fill="#000000">iDynTree/Core/VectorFixSize.h</text>
</a>
</g>
</g>
<!-- Node7&#45;&gt;Node18 -->
<g id="edge9" class="edge">
<title>Node7&#45;&gt;Node18</title>
<path fill="none" stroke="#191970" d="M1202.6133,-358.4931C1262.1091,-350.3561 1337.6362,-337.5125 1364.9134,-322 1444.9689,-276.4725 1507.3487,-181.1967 1531.2894,-140.7756"/>
<polygon fill="#191970" stroke="#191970" points="1534.4171,-142.3593 1536.4157,-131.9546 1528.3649,-138.842 1534.4171,-142.3593"/>
</g>
<!-- Node27 -->
<g id="node24" class="node">
<title>Node27</title>
<g id="a_node24"><a xlink:href="Twist_8h.html" target="_top" xlink:title="iDynTree/Core/Twist.h">
<polygon fill="none" stroke="#ff0000" points="1233.9134,-297 1233.9134,-316 1355.9134,-316 1355.9134,-297 1233.9134,-297"/>
<text text-anchor="middle" x="1294.9134" y="-304" font-family="FreeSans.ttf" font-size="10.00" fill="#000000">iDynTree/Core/Twist.h</text>
</a>
</g>
</g>
<!-- Node7&#45;&gt;Node27 -->
<g id="edge26" class="edge">
<title>Node7&#45;&gt;Node27</title>
<path fill="none" stroke="#191970" d="M1149.7884,-358.3906C1179.072,-347.92 1226.0824,-331.1111 1258.6271,-319.4745"/>
<polygon fill="#191970" stroke="#191970" points="1259.9893,-322.7045 1268.2271,-316.0419 1257.6325,-316.1131 1259.9893,-322.7045"/>
</g>
<!-- Node35 -->
<g id="node25" class="node">
<title>Node35</title>
<g id="a_node25"><a xlink:href="SpatialMomentum_8h.html" target="_top" xlink:title="iDynTree/Core/SpatialMomentum.h">
<polygon fill="none" stroke="#ff0000" points="1029.9134,-297 1029.9134,-316 1215.9134,-316 1215.9134,-297 1029.9134,-297"/>
<text text-anchor="middle" x="1122.9134" y="-304" font-family="FreeSans.ttf" font-size="10.00" fill="#000000">iDynTree/Core/SpatialMomentum.h</text>
</a>
</g>
</g>
<!-- Node7&#45;&gt;Node35 -->
<g id="edge27" class="edge">
<title>Node7&#45;&gt;Node35</title>
<path fill="none" stroke="#191970" d="M1122.9134,-358.3906C1122.9134,-349.8657 1122.9134,-337.1392 1122.9134,-326.4235"/>
<polygon fill="#191970" stroke="#191970" points="1126.4135,-326.2448 1122.9134,-316.2449 1119.4135,-326.2449 1126.4135,-326.2448"/>
</g>
<!-- Node37 -->
<g id="node26" class="node">
<title>Node37</title>
<g id="a_node26"><a xlink:href="SpatialAcc_8h.html" target="_top" xlink:title="iDynTree/Core/SpatialAcc.h">
<polygon fill="none" stroke="#ff0000" points="691.9134,-297 691.9134,-316 839.9134,-316 839.9134,-297 691.9134,-297"/>
<text text-anchor="middle" x="765.9134" y="-304" font-family="FreeSans.ttf" font-size="10.00" fill="#000000">iDynTree/Core/SpatialAcc.h</text>
</a>
</g>
</g>
<!-- Node7&#45;&gt;Node37 -->
<g id="edge28" class="edge">
<title>Node7&#45;&gt;Node37</title>
<path fill="none" stroke="#191970" d="M1064.8195,-358.4799C1009.5213,-349.3544 923.9885,-335.0743 849.9134,-322 842.5008,-320.6917 834.7254,-319.2928 827.0225,-317.8908"/>
<polygon fill="#191970" stroke="#191970" points="827.4412,-314.4094 816.9746,-316.0532 826.1818,-321.2952 827.4412,-314.4094"/>
</g>
<!-- Node38 -->
<g id="node27" class="node">
<title>Node38</title>
<g id="a_node27"><a xlink:href="Wrench_8h.html" target="_top" xlink:title="iDynTree/Core/Wrench.h">
<polygon fill="none" stroke="#ff0000" points="540.4134,-297 540.4134,-316 673.4134,-316 673.4134,-297 540.4134,-297"/>
<text text-anchor="middle" x="606.9134" y="-304" font-family="FreeSans.ttf" font-size="10.00" fill="#000000">iDynTree/Core/Wrench.h</text>
</a>
</g>
</g>
<!-- Node7&#45;&gt;Node38 -->
<g id="edge29" class="edge">
<title>Node7&#45;&gt;Node38</title>
<path fill="none" stroke="#191970" d="M1041.5145,-361.8696C952.9705,-354.6473 807.4087,-341.1567 682.9134,-322 675.4175,-320.8466 667.5413,-319.4504 659.8151,-317.9742"/>
<polygon fill="#191970" stroke="#191970" points="660.2767,-314.498 649.7891,-316.0011 658.925,-321.3663 660.2767,-314.498"/>
</g>
<!-- Node18&#45;&gt;Node4 -->
<g id="edge22" class="edge">
<title>Node18&#45;&gt;Node4</title>
<path fill="none" stroke="#191970" d="M1503.3194,-112.4369C1459.5038,-101.5799 1388.8209,-84.0656 1347.9349,-73.9345"/>
<polygon fill="#191970" stroke="#191970" points="1348.7649,-70.5344 1338.2166,-71.5265 1347.0812,-77.3289 1348.7649,-70.5344"/>
</g>
<!-- Node11 -->
<g id="node11" class="node">
<title>Node11</title>
<g id="a_node11"><a xlink:href="Utils_8h.html" target="_top" xlink:title="iDynTree/Core/Utils.h">
<polygon fill="none" stroke="#000000" points="1394.4134,-56.5 1394.4134,-75.5 1513.4134,-75.5 1513.4134,-56.5 1394.4134,-56.5"/>
<text text-anchor="middle" x="1453.9134" y="-63.5" font-family="FreeSans.ttf" font-size="10.00" fill="#000000">iDynTree/Core/Utils.h</text>
</a>
</g>
</g>
<!-- Node18&#45;&gt;Node11 -->
<g id="edge10" class="edge">
<title>Node18&#45;&gt;Node11</title>
<path fill="none" stroke="#191970" d="M1526.5849,-112.2455C1513.083,-103.6534 1493.2012,-91.0014 1477.6448,-81.1018"/>
<polygon fill="#191970" stroke="#191970" points="1479.3819,-78.0587 1469.0661,-75.6427 1475.6237,-83.9643 1479.3819,-78.0587"/>
</g>
<!-- Node19 -->
<g id="node14" class="node">
<title>Node19</title>
<g id="a_node14"><a xlink:href="Span_8h.html" target="_top" xlink:title="iDynTree/Core/Span.h">
<polygon fill="none" stroke="#ff0000" points="1154.4134,-56.5 1154.4134,-75.5 1275.4134,-75.5 1275.4134,-56.5 1154.4134,-56.5"/>
<text text-anchor="middle" x="1214.9134" y="-63.5" font-family="FreeSans.ttf" font-size="10.00" fill="#000000">iDynTree/Core/Span.h</text>
</a>
</g>
</g>
<!-- Node18&#45;&gt;Node19 -->
<g id="edge13" class="edge">
<title>Node18&#45;&gt;Node19</title>
<path fill="none" stroke="#191970" d="M1486.0716,-112.4369C1429.1675,-102.6918 1340.9438,-87.5832 1280.6898,-77.2645"/>
<polygon fill="#191970" stroke="#191970" points="1280.9721,-73.7619 1270.5248,-75.5237 1279.7905,-80.6615 1280.9721,-73.7619"/>
</g>
<!-- Node14 -->
<g id="node15" class="node">
<title>Node14</title>
<polygon fill="none" stroke="#bfbfbf" points="1515.9134,-.5 1515.9134,-19.5 1567.9134,-19.5 1567.9134,-.5 1515.9134,-.5"/>
<text text-anchor="middle" x="1541.9134" y="-7.5" font-family="FreeSans.ttf" font-size="10.00" fill="#000000">cassert</text>
</g>
<!-- Node18&#45;&gt;Node14 -->
<g id="edge24" class="edge">
<title>Node18&#45;&gt;Node14</title>
<path fill="none" stroke="#191970" d="M1541.9134,-112.4509C1541.9134,-94.184 1541.9134,-53.9553 1541.9134,-29.6976"/>
<polygon fill="#191970" stroke="#191970" points="1545.4135,-29.5249 1541.9134,-19.5249 1538.4135,-29.5249 1545.4135,-29.5249"/>
</g>
<!-- Node17 -->
<g id="node22" class="node">
<title>Node17</title>
<polygon fill="none" stroke="#bfbfbf" points="1800.9134,-56.5 1800.9134,-75.5 1856.9134,-75.5 1856.9134,-56.5 1800.9134,-56.5"/>
<text text-anchor="middle" x="1828.9134" y="-63.5" font-family="FreeSans.ttf" font-size="10.00" fill="#000000">sstream</text>
</g>
<!-- Node18&#45;&gt;Node17 -->
<g id="edge23" class="edge">
<title>Node18&#45;&gt;Node17</title>
<path fill="none" stroke="#191970" d="M1590.9243,-112.4369C1647.3914,-101.4189 1738.9972,-83.5446 1790.5337,-73.4887"/>
<polygon fill="#191970" stroke="#191970" points="1791.4456,-76.8769 1800.5902,-71.5265 1790.105,-70.0064 1791.4456,-76.8769"/>
</g>
<!-- Node15 -->
<g id="node23" class="node">
<title>Node15</title>
<polygon fill="none" stroke="#bfbfbf" points="1874.9134,-56.5 1874.9134,-75.5 1924.9134,-75.5 1924.9134,-56.5 1874.9134,-56.5"/>
<text text-anchor="middle" x="1899.9134" y="-63.5" font-family="FreeSans.ttf" font-size="10.00" fill="#000000">cstring</text>
</g>
<!-- Node18&#45;&gt;Node15 -->
<g id="edge25" class="edge">
<title>Node18&#45;&gt;Node15</title>
<path fill="none" stroke="#191970" d="M1622.7117,-113.8234C1686.2295,-106.6366 1777.031,-94.6917 1864.8993,-75.9716"/>
<polygon fill="#191970" stroke="#191970" points="1865.733,-79.3723 1874.7672,-73.8376 1864.2533,-72.5304 1865.733,-79.3723"/>
</g>
<!-- Node12 -->
<g id="node12" class="node">
<title>Node12</title>
<polygon fill="none" stroke="#bfbfbf" points="1342.4134,-.5 1342.4134,-19.5 1395.4134,-19.5 1395.4134,-.5 1342.4134,-.5"/>
<text text-anchor="middle" x="1368.9134" y="-7.5" font-family="FreeSans.ttf" font-size="10.00" fill="#000000">cstddef</text>
</g>
<!-- Node11&#45;&gt;Node12 -->
<g id="edge11" class="edge">
<title>Node11&#45;&gt;Node12</title>
<path fill="none" stroke="#191970" d="M1439.1075,-56.2455C1426.1878,-47.7337 1407.2203,-35.2375 1392.2581,-25.3801"/>
<polygon fill="#191970" stroke="#191970" points="1393.8258,-22.2216 1383.5496,-19.6427 1389.9746,-28.067 1393.8258,-22.2216"/>
</g>
<!-- Node13 -->
<g id="node13" class="node">
<title>Node13</title>
<polygon fill="none" stroke="#bfbfbf" points="1413.9134,-.5 1413.9134,-19.5 1493.9134,-19.5 1493.9134,-.5 1413.9134,-.5"/>
<text text-anchor="middle" x="1453.9134" y="-7.5" font-family="FreeSans.ttf" font-size="10.00" fill="#000000">CoreExport.h</text>
</g>
<!-- Node11&#45;&gt;Node13 -->
<g id="edge12" class="edge">
<title>Node11&#45;&gt;Node13</title>
<path fill="none" stroke="#191970" d="M1453.9134,-56.2455C1453.9134,-48.9382 1453.9134,-38.6944 1453.9134,-29.7046"/>
<polygon fill="#191970" stroke="#191970" points="1457.4135,-29.6426 1453.9134,-19.6427 1450.4135,-29.6427 1457.4135,-29.6426"/>
</g>
<!-- Node19&#45;&gt;Node12 -->
<g id="edge17" class="edge">
<title>Node19&#45;&gt;Node12</title>
<path fill="none" stroke="#191970" d="M1241.3869,-56.3733C1266.7731,-47.1419 1305.2778,-33.1402 1333.3353,-22.9375"/>
<polygon fill="#191970" stroke="#191970" points="1334.5835,-26.2079 1342.7853,-19.5011 1332.1912,-19.6293 1334.5835,-26.2079"/>
</g>
<!-- Node19&#45;&gt;Node14 -->
<g id="edge14" class="edge">
<title>Node19&#45;&gt;Node14</title>
<path fill="none" stroke="#191970" d="M1275.687,-56.9703C1346.9321,-46.2653 1460.6492,-28.7741 1502.9134,-20 1503.8116,-19.8135 1504.7203,-19.6199 1505.636,-19.4203"/>
<polygon fill="#191970" stroke="#191970" points="1506.6115,-22.7868 1515.5574,-17.1104 1505.0242,-15.9692 1506.6115,-22.7868"/>
</g>
<!-- Node20 -->
<g id="node16" class="node">
<title>Node20</title>
<polygon fill="none" stroke="#bfbfbf" points="1881.9134,-.5 1881.9134,-19.5 1945.9134,-19.5 1945.9134,-.5 1881.9134,-.5"/>
<text text-anchor="middle" x="1913.9134" y="-7.5" font-family="FreeSans.ttf" font-size="10.00" fill="#000000">algorithm</text>
</g>
<!-- Node19&#45;&gt;Node20 -->
<g id="edge15" class="edge">
<title>Node19&#45;&gt;Node20</title>
<path fill="none" stroke="#191970" d="M1275.5876,-57.0714C1278.7391,-56.6893 1281.862,-56.3291 1284.9134,-56 1505.1831,-32.2406 1770.2004,-17.3027 1871.6239,-12.0843"/>
<polygon fill="#191970" stroke="#191970" points="1871.9593,-15.5718 1881.7679,-11.5668 1871.6026,-8.5809 1871.9593,-15.5718"/>
</g>
<!-- Node21 -->
<g id="node17" class="node">
<title>Node21</title>
<polygon fill="none" stroke="#bfbfbf" points="1132.9134,-.5 1132.9134,-19.5 1174.9134,-19.5 1174.9134,-.5 1132.9134,-.5"/>
<text text-anchor="middle" x="1153.9134" y="-7.5" font-family="FreeSans.ttf" font-size="10.00" fill="#000000">array</text>
</g>
<!-- Node19&#45;&gt;Node21 -->
<g id="edge16" class="edge">
<title>Node19&#45;&gt;Node21</title>
<path fill="none" stroke="#191970" d="M1204.288,-56.2455C1195.3661,-48.0549 1182.4253,-36.1749 1171.8941,-26.5069"/>
<polygon fill="#191970" stroke="#191970" points="1174.1505,-23.8271 1164.417,-19.6427 1169.4166,-28.9837 1174.1505,-23.8271"/>
</g>
<!-- Node22 -->
<g id="node18" class="node">
<title>Node22</title>
<polygon fill="none" stroke="#bfbfbf" points="515.4134,-.5 515.4134,-19.5 568.4134,-19.5 568.4134,-.5 515.4134,-.5"/>
<text text-anchor="middle" x="541.9134" y="-7.5" font-family="FreeSans.ttf" font-size="10.00" fill="#000000">iterator</text>
</g>
<!-- Node19&#45;&gt;Node22 -->
<g id="edge18" class="edge">
<title>Node19&#45;&gt;Node22</title>
<path fill="none" stroke="#191970" d="M1154.2998,-60.9564C1017.6739,-49.5878 689.0133,-22.2401 578.7132,-13.0621"/>
<polygon fill="#191970" stroke="#191970" points="578.9903,-9.5731 568.7345,-12.2318 578.4098,-16.549 578.9903,-9.5731"/>
</g>
<!-- Node23 -->
<g id="node19" class="node">
<title>Node23</title>
<polygon fill="none" stroke="#bfbfbf" points="1192.9134,-.5 1192.9134,-19.5 1236.9134,-19.5 1236.9134,-.5 1192.9134,-.5"/>
<text text-anchor="middle" x="1214.9134" y="-7.5" font-family="FreeSans.ttf" font-size="10.00" fill="#000000">limits</text>
</g>
<!-- Node19&#45;&gt;Node23 -->
<g id="edge19" class="edge">
<title>Node19&#45;&gt;Node23</title>
<path fill="none" stroke="#191970" d="M1214.9134,-56.2455C1214.9134,-48.9382 1214.9134,-38.6944 1214.9134,-29.7046"/>
<polygon fill="#191970" stroke="#191970" points="1218.4135,-29.6426 1214.9134,-19.6427 1211.4135,-29.6427 1218.4135,-29.6426"/>
</g>
<!-- Node24 -->
<g id="node20" class="node">
<title>Node24</title>
<polygon fill="none" stroke="#bfbfbf" points="2112.4134,-.5 2112.4134,-19.5 2177.4134,-19.5 2177.4134,-.5 2112.4134,-.5"/>
<text text-anchor="middle" x="2144.9134" y="-7.5" font-family="FreeSans.ttf" font-size="10.00" fill="#000000">stdexcept</text>
</g>
<!-- Node19&#45;&gt;Node24 -->
<g id="edge20" class="edge">
<title>Node19&#45;&gt;Node24</title>
<path fill="none" stroke="#191970" d="M1275.5801,-56.9985C1278.7335,-56.6355 1281.859,-56.2993 1284.9134,-56 1295.1959,-54.9925 1929.3325,-21.4064 2101.9421,-12.273"/>
<polygon fill="#191970" stroke="#191970" points="2102.366,-15.7555 2112.167,-11.732 2101.996,-8.7653 2102.366,-15.7555"/>
</g>
<!-- Node25 -->
<g id="node21" class="node">
<title>Node25</title>
<polygon fill="none" stroke="#bfbfbf" points="1255.4134,-.5 1255.4134,-19.5 1324.4134,-19.5 1324.4134,-.5 1255.4134,-.5"/>
<text text-anchor="middle" x="1289.9134" y="-7.5" font-family="FreeSans.ttf" font-size="10.00" fill="#000000">type_traits</text>
</g>
<!-- Node19&#45;&gt;Node25 -->
<g id="edge21" class="edge">
<title>Node19&#45;&gt;Node25</title>
<path fill="none" stroke="#191970" d="M1227.9774,-56.2455C1239.2696,-47.814 1255.7979,-35.4729 1268.9405,-25.6598"/>
<polygon fill="#191970" stroke="#191970" points="1271.0803,-28.4301 1276.9991,-19.6427 1266.8922,-22.8211 1271.0803,-28.4301"/>
</g>
<!-- Node39&#45;&gt;Node4 -->
<g id="edge53" class="edge">
<title>Node39&#45;&gt;Node4</title>
<path fill="none" stroke="#191970" d="M1532.8265,-358.3153C1468.0601,-332.2413 1294.2839,-262.0497 1282.9134,-255 1250.7903,-235.0838 1234.5313,-233.4183 1218.9134,-199 1202.6335,-163.1229 1211.3908,-142.8357 1235.9134,-112 1248.4175,-96.2768 1267.8652,-84.9204 1284.4547,-77.4251"/>
<polygon fill="#191970" stroke="#191970" points="1285.9781,-80.5809 1293.818,-73.4544 1283.2451,-74.1364 1285.9781,-80.5809"/>
</g>
<!-- Node31 -->
<g id="node29" class="node">
<title>Node31</title>
<g id="a_node29"><a xlink:href="Position_8h.html" target="_top" xlink:title="Position.h">
<polygon fill="none" stroke="#000000" points="1526.4134,-297 1526.4134,-316 1591.4134,-316 1591.4134,-297 1526.4134,-297"/>
<text text-anchor="middle" x="1558.9134" y="-304" font-family="FreeSans.ttf" font-size="10.00" fill="#000000">Position.h</text>
</a>
</g>
</g>
<!-- Node39&#45;&gt;Node31 -->
<g id="edge32" class="edge">
<title>Node39&#45;&gt;Node31</title>
<path fill="none" stroke="#191970" d="M1557.2259,-358.3906C1557.5031,-349.8657 1557.917,-337.1392 1558.2654,-326.4235"/>
<polygon fill="#191970" stroke="#191970" points="1561.7695,-326.3534 1558.5965,-316.2449 1554.7732,-326.1258 1561.7695,-326.3534"/>
</g>
<!-- Node33 -->
<g id="node31" class="node">
<title>Node33</title>
<g id="a_node31"><a xlink:href="Rotation_8h.html" target="_top" xlink:title="iDynTree/Core/Rotation.h">
<polygon fill="none" stroke="#000000" points="1539.4134,-235.5 1539.4134,-254.5 1676.4134,-254.5 1676.4134,-235.5 1539.4134,-235.5"/>
<text text-anchor="middle" x="1607.9134" y="-242.5" font-family="FreeSans.ttf" font-size="10.00" fill="#000000">iDynTree/Core/Rotation.h</text>
</a>
</g>
</g>
<!-- Node39&#45;&gt;Node33 -->
<g id="edge51" class="edge">
<title>Node39&#45;&gt;Node33</title>
<path fill="none" stroke="#191970" d="M1570.183,-358.2959C1580.493,-349.9361 1594.1409,-336.8879 1600.9134,-322 1609.1429,-303.9091 1610.1946,-280.9873 1609.6184,-264.8743"/>
<polygon fill="#191970" stroke="#191970" points="1613.089,-264.2813 1608.9906,-254.5113 1606.1018,-264.7047 1613.089,-264.2813"/>
</g>
<!-- Node10 -->
<g id="node34" class="node">
<title>Node10</title>
<g id="a_node34"><a xlink:href="MatrixFixSize_8h.html" target="_top" xlink:title="iDynTree/Core/MatrixFixSize.h">
<polygon fill="none" stroke="#000000" points="1784.4134,-112.5 1784.4134,-131.5 1945.4134,-131.5 1945.4134,-112.5 1784.4134,-112.5"/>
<text text-anchor="middle" x="1864.9134" y="-119.5" font-family="FreeSans.ttf" font-size="10.00" fill="#000000">iDynTree/Core/MatrixFixSize.h</text>
</a>
</g>
</g>
<!-- Node39&#45;&gt;Node10 -->
<g id="edge52" class="edge">
<title>Node39&#45;&gt;Node10</title>
<path fill="none" stroke="#191970" d="M1622.9566,-358.4518C1707.6922,-342.2692 1851.4183,-300.6453 1915.9134,-199 1923.295,-187.3665 1921.5119,-180.589 1915.9134,-168 1910.4626,-155.7432 1899.9535,-145.3755 1889.8845,-137.6036"/>
<polygon fill="#191970" stroke="#191970" points="1891.8174,-134.6828 1881.6507,-131.7012 1887.739,-140.3721 1891.8174,-134.6828"/>
</g>
<!-- Node31&#45;&gt;Node4 -->
<g id="edge50" class="edge">
<title>Node31&#45;&gt;Node4</title>
<path fill="none" stroke="#191970" d="M1526.4072,-300.747C1450.8948,-286.6534 1267.3499,-247.952 1231.9134,-199 1202.3653,-158.1824 1259.047,-107.1126 1293.008,-81.773"/>
<polygon fill="#191970" stroke="#191970" points="1295.4495,-84.3259 1301.4903,-75.6219 1291.3401,-78.659 1295.4495,-84.3259"/>
</g>
<!-- Node32 -->
<g id="node30" class="node">
<title>Node32</title>
<g id="a_node30"><a xlink:href="PositionRaw_8h.html" target="_top" xlink:title="iDynTree/Core/PositionRaw.h">
<polygon fill="none" stroke="#000000" points="1240.9134,-174 1240.9134,-193 1396.9134,-193 1396.9134,-174 1240.9134,-174"/>
<text text-anchor="middle" x="1318.9134" y="-181" font-family="FreeSans.ttf" font-size="10.00" fill="#000000">iDynTree/Core/PositionRaw.h</text>
</a>
</g>
</g>
<!-- Node31&#45;&gt;Node32 -->
<g id="edge33" class="edge">
<title>Node31&#45;&gt;Node32</title>
<path fill="none" stroke="#191970" d="M1540.081,-296.8484C1498.0206,-275.2925 1396.2667,-223.1436 1346.8175,-197.8009"/>
<polygon fill="#191970" stroke="#191970" points="1348.154,-194.553 1337.6583,-193.1068 1344.9613,-200.7825 1348.154,-194.553"/>
</g>
<!-- Node31&#45;&gt;Node33 -->
<g id="edge36" class="edge">
<title>Node31&#45;&gt;Node33</title>
<path fill="none" stroke="#191970" d="M1566.5696,-296.8906C1573.8623,-287.7376 1585.0141,-273.7409 1593.8986,-262.59"/>
<polygon fill="#191970" stroke="#191970" points="1596.6551,-264.747 1600.1492,-254.7449 1591.1803,-260.3849 1596.6551,-264.747"/>
</g>
<!-- Node32&#45;&gt;Node4 -->
<g id="edge35" class="edge">
<title>Node32&#45;&gt;Node4</title>
<path fill="none" stroke="#191970" d="M1318.6679,-173.8845C1318.1778,-154.6913 1317.0696,-111.286 1316.418,-85.7663"/>
<polygon fill="#191970" stroke="#191970" points="1319.9165,-85.6558 1316.1623,-75.7484 1312.9187,-85.8345 1319.9165,-85.6558"/>
</g>
<!-- Node32&#45;&gt;Node18 -->
<g id="edge34" class="edge">
<title>Node32&#45;&gt;Node18</title>
<path fill="none" stroke="#191970" d="M1353.7571,-173.8906C1392.542,-163.1944 1455.311,-145.8836 1497.5693,-134.2294"/>
<polygon fill="#191970" stroke="#191970" points="1498.6047,-137.5746 1507.3143,-131.5419 1496.7436,-130.8265 1498.6047,-137.5746"/>
</g>
<!-- Node33&#45;&gt;Node4 -->
<g id="edge37" class="edge">
<title>Node33&#45;&gt;Node4</title>
<path fill="none" stroke="#191970" d="M1592.2142,-235.3762C1544.0881,-205.8742 1398.3717,-116.5481 1340.2397,-80.9123"/>
<polygon fill="#191970" stroke="#191970" points="1342.045,-77.9138 1331.6902,-75.6714 1338.3866,-83.8817 1342.045,-77.9138"/>
</g>
<!-- Node33&#45;&gt;Node18 -->
<g id="edge49" class="edge">
<title>Node33&#45;&gt;Node18</title>
<path fill="none" stroke="#191970" d="M1593.6673,-235.3616C1582.4941,-227.0399 1567.4509,-214.0108 1558.9134,-199 1548.795,-181.2096 1544.6969,-157.938 1543.0384,-141.6542"/>
<polygon fill="#191970" stroke="#191970" points="1546.5244,-141.3385 1542.2359,-131.6504 1539.5468,-141.8983 1546.5244,-141.3385"/>
</g>
<!-- Node29 -->
<g id="node32" class="node">
<title>Node29</title>
<g id="a_node32"><a xlink:href="GeomVector3_8h.html" target="_top" xlink:title="iDynTree/Core/GeomVector3.h">
<polygon fill="none" stroke="#000000" points="1567.4134,-174 1567.4134,-193 1730.4134,-193 1730.4134,-174 1567.4134,-174"/>
<text text-anchor="middle" x="1648.9134" y="-181" font-family="FreeSans.ttf" font-size="10.00" fill="#000000">iDynTree/Core/GeomVector3.h</text>
</a>
</g>
</g>
<!-- Node33&#45;&gt;Node29 -->
<g id="edge38" class="edge">
<title>Node33&#45;&gt;Node29</title>
<path fill="none" stroke="#191970" d="M1614.3196,-235.3906C1620.302,-226.417 1629.3881,-212.7879 1636.7473,-201.7491"/>
<polygon fill="#191970" stroke="#191970" points="1639.7819,-203.5068 1642.4168,-193.2449 1633.9576,-199.6239 1639.7819,-203.5068"/>
</g>
<!-- Node34 -->
<g id="node33" class="node">
<title>Node34</title>
<g id="a_node33"><a xlink:href="RotationRaw_8h.html" target="_top" xlink:title="iDynTree/Core/RotationRaw.h">
<polygon fill="none" stroke="#000000" points="1748.9134,-174 1748.9134,-193 1906.9134,-193 1906.9134,-174 1748.9134,-174"/>
<text text-anchor="middle" x="1827.9134" y="-181" font-family="FreeSans.ttf" font-size="10.00" fill="#000000">iDynTree/Core/RotationRaw.h</text>
</a>
</g>
</g>
<!-- Node33&#45;&gt;Node34 -->
<g id="edge40" class="edge">
<title>Node33&#45;&gt;Node34</title>
<path fill="none" stroke="#191970" d="M1642.2884,-235.3906C1680.4707,-224.7169 1742.2149,-207.4566 1783.9017,-195.8033"/>
<polygon fill="#191970" stroke="#191970" points="1785.0913,-199.105 1793.7798,-193.0419 1783.2067,-192.3634 1785.0913,-199.105"/>
</g>
<!-- Node29&#45;&gt;Node18 -->
<g id="edge39" class="edge">
<title>Node29&#45;&gt;Node18</title>
<path fill="none" stroke="#191970" d="M1632.1946,-173.8906C1614.8412,-163.9165 1587.481,-148.1908 1567.4252,-136.6633"/>
<polygon fill="#191970" stroke="#191970" points="1568.9288,-133.4907 1558.5147,-131.5419 1565.4405,-139.5596 1568.9288,-133.4907"/>
</g>
<!-- Node34&#45;&gt;Node4 -->
<g id="edge48" class="edge">
<title>Node34&#45;&gt;Node4</title>
<path fill="none" stroke="#191970" d="M1806.3292,-173.9592C1770.7073,-158.5961 1697.0617,-128.4392 1631.9134,-112 1625.0467,-110.2673 1427.7199,-81.98 1348.4312,-70.6442"/>
<polygon fill="#191970" stroke="#191970" points="1348.4534,-67.1119 1338.0587,-69.1617 1347.4629,-74.0415 1348.4534,-67.1119"/>
</g>
<!-- Node34&#45;&gt;Node10 -->
<g id="edge41" class="edge">
<title>Node34&#45;&gt;Node10</title>
<path fill="none" stroke="#191970" d="M1833.6946,-173.8906C1839.0394,-165.0068 1847.1293,-151.5601 1853.7345,-140.5811"/>
<polygon fill="#191970" stroke="#191970" points="1856.8944,-142.118 1859.0506,-131.7449 1850.8963,-138.5093 1856.8944,-142.118"/>
</g>
<!-- Node10&#45;&gt;Node4 -->
<g id="edge45" class="edge">
<title>Node10&#45;&gt;Node4</title>
<path fill="none" stroke="#191970" d="M1784.3265,-113.453C1779.4501,-112.9557 1774.6166,-112.468 1769.9134,-112 1599.3407,-95.0275 1556.1427,-96.1268 1385.9134,-76 1373.4669,-74.5284 1359.8147,-72.6401 1347.898,-70.9016"/>
<polygon fill="#191970" stroke="#191970" points="1348.3516,-67.4306 1337.9465,-69.4265 1347.3252,-74.355 1348.3516,-67.4306"/>
</g>
<!-- Node10&#45;&gt;Node11 -->
<g id="edge42" class="edge">
<title>Node10&#45;&gt;Node11</title>
<path fill="none" stroke="#191970" d="M1794.7269,-112.4369C1719.0724,-102.1287 1599.3719,-85.8192 1523.8244,-75.5256"/>
<polygon fill="#191970" stroke="#191970" points="1523.8475,-71.9965 1513.4665,-74.1143 1522.9024,-78.9324 1523.8475,-71.9965"/>
</g>
<!-- Node10&#45;&gt;Node14 -->
<g id="edge43" class="edge">
<title>Node10&#45;&gt;Node14</title>
<path fill="none" stroke="#191970" d="M1837.3746,-112.4509C1779.0152,-92.2149 1642.9296,-45.0273 1577.8395,-22.4574"/>
<polygon fill="#191970" stroke="#191970" points="1578.6201,-19.0236 1568.0253,-19.0543 1576.3268,-25.6373 1578.6201,-19.0236"/>
</g>
<!-- Node10&#45;&gt;Node17 -->
<g id="edge47" class="edge">
<title>Node10&#45;&gt;Node17</title>
<path fill="none" stroke="#191970" d="M1858.6426,-112.2455C1853.687,-104.5367 1846.6304,-93.5598 1840.6357,-84.2348"/>
<polygon fill="#191970" stroke="#191970" points="1843.464,-82.1618 1835.1122,-75.6427 1837.5757,-85.9471 1843.464,-82.1618"/>
</g>
<!-- Node10&#45;&gt;Node15 -->
<g id="edge44" class="edge">
<title>Node10&#45;&gt;Node15</title>
<path fill="none" stroke="#191970" d="M1871.0099,-112.2455C1875.8279,-104.5367 1882.6885,-93.5598 1888.5166,-84.2348"/>
<polygon fill="#191970" stroke="#191970" points="1891.5547,-85.9777 1893.8867,-75.6427 1885.6187,-82.2677 1891.5547,-85.9777"/>
</g>
<!-- Node10&#45;&gt;Node16 -->
<g id="edge46" class="edge">
<title>Node10&#45;&gt;Node16</title>
<path fill="none" stroke="#191970" d="M1909.3135,-112.4369C1958.6333,-101.8142 2037.5432,-84.8182 2084.9829,-74.6004"/>
<polygon fill="#191970" stroke="#191970" points="2085.8543,-77.9931 2094.8932,-72.4659 2084.3804,-71.15 2085.8543,-77.9931"/>
</g>
<!-- Node40&#45;&gt;Node4 -->
<g id="edge57" class="edge">
<title>Node40&#45;&gt;Node4</title>
<path fill="none" stroke="#191970" d="M1613.9057,-419.7645C1622.2343,-410.03 1634.0444,-394.2123 1638.9134,-378 1651.0498,-337.5889 1631.3532,-320.2192 1600.9134,-291 1575.6749,-266.7736 1559.828,-274.6938 1530.9134,-255 1462.4579,-208.3749 1453.1136,-186.6917 1390.9134,-132 1371.6805,-115.0888 1349.6831,-95.729 1334.5087,-82.3713"/>
<polygon fill="#191970" stroke="#191970" points="1336.6599,-79.602 1326.8412,-75.6214 1332.0345,-84.8562 1336.6599,-79.602"/>
</g>
<!-- Node40&#45;&gt;Node39 -->
<g id="edge59" class="edge">
<title>Node40&#45;&gt;Node39</title>
<path fill="none" stroke="#191970" d="M1597.4134,-419.8906C1590.3395,-410.8273 1579.5591,-397.0149 1570.8987,-385.9188"/>
<polygon fill="#191970" stroke="#191970" points="1573.431,-383.4746 1564.5191,-377.7449 1567.9127,-387.7815 1573.431,-383.4746"/>
</g>
<!-- Node40&#45;&gt;Node41 -->
<g id="edge56" class="edge">
<title>Node40&#45;&gt;Node41</title>
<path fill="none" stroke="#191970" d="M1647.8907,-419.9581C1702.9093,-407.7428 1797.1389,-386.8218 1847.612,-375.6156"/>
<polygon fill="#191970" stroke="#191970" points="1848.39,-379.0282 1857.3937,-373.4439 1846.8728,-372.1946 1848.39,-379.0282"/>
</g>
<!-- Node40&#45;&gt;Node42 -->
<g id="edge58" class="edge">
<title>Node40&#45;&gt;Node42</title>
<path fill="none" stroke="#191970" d="M1622.1009,-419.8906C1640.0215,-409.8713 1668.3228,-394.0483 1688.9657,-382.5071"/>
<polygon fill="#191970" stroke="#191970" points="1690.8261,-385.4769 1697.8466,-377.5419 1687.4101,-379.367 1690.8261,-385.4769"/>
</g>
<!-- Node43&#45;&gt;Node1 -->
<g id="edge63" class="edge">
<title>Node43&#45;&gt;Node1</title>
<path fill="none" stroke="#191970" d="M1572.5577,-593.3283C1571.5565,-579.342 1567.8078,-553.3582 1553.9134,-537 1540.9841,-521.7782 1521.8835,-511.2398 1504.0432,-504.1312"/>
<polygon fill="#191970" stroke="#191970" points="1504.9019,-500.7169 1494.3088,-500.5268 1502.4712,-507.2814 1504.9019,-500.7169"/>
</g>
<!-- Node43&#45;&gt;Node4 -->
<g id="edge75" class="edge">
<title>Node43&#45;&gt;Node4</title>
<path fill="none" stroke="#191970" d="M1484.8752,-600.9226C1167.9502,-592.8726 103.9134,-560.6587 103.9134,-491 103.9134,-491 103.9134,-491 103.9134,-306.5 103.9134,-189.6193 174.8762,-161.1652 280.9134,-112 379.6131,-66.2369 1135.1577,-93.8313 1283.4196,-75.4895"/>
<polygon fill="#191970" stroke="#191970" points="1284.3688,-78.8872 1293.7483,-73.9603 1283.3435,-71.9627 1284.3688,-78.8872"/>
</g>
<!-- Node43&#45;&gt;Node42 -->
<g id="edge76" class="edge">
<title>Node43&#45;&gt;Node42</title>
<path fill="none" stroke="#191970" d="M1589.4389,-593.3823C1624.3121,-571.9961 1704.6967,-516.6791 1734.9134,-445 1742.9996,-425.818 1734.632,-402.5328 1726.3819,-386.6248"/>
<polygon fill="#191970" stroke="#191970" points="1729.3591,-384.7784 1721.4084,-377.7758 1723.2569,-388.2081 1729.3591,-384.7784"/>
</g>
<!-- Node44 -->
<g id="node40" class="node">
<title>Node44</title>
<g id="a_node40"><a xlink:href="Sensors_8h.html" target="_top" xlink:title="iDynTree/Sensors/Sensors.h">
<polygon fill="none" stroke="#000000" points="1065.4134,-537.5 1065.4134,-556.5 1216.4134,-556.5 1216.4134,-537.5 1065.4134,-537.5"/>
<text text-anchor="middle" x="1140.9134" y="-544.5" font-family="FreeSans.ttf" font-size="10.00" fill="#000000">iDynTree/Sensors/Sensors.h</text>
</a>
</g>
</g>
<!-- Node43&#45;&gt;Node44 -->
<g id="edge64" class="edge">
<title>Node43&#45;&gt;Node44</title>
<path fill="none" stroke="#191970" d="M1499.1408,-593.4369C1422.8775,-583.5509 1304.0323,-568.145 1224.3803,-557.8198"/>
<polygon fill="#191970" stroke="#191970" points="1224.7487,-554.3383 1214.3817,-556.5237 1223.8487,-561.2803 1224.7487,-554.3383"/>
</g>
<!-- Node46 -->
<g id="node42" class="node">
<title>Node46</title>
<polygon fill="none" stroke="#bfbfbf" points="1486.9134,-537.5 1486.9134,-556.5 1544.9134,-556.5 1544.9134,-537.5 1486.9134,-537.5"/>
<text text-anchor="middle" x="1515.9134" y="-544.5" font-family="FreeSans.ttf" font-size="10.00" fill="#000000">memory</text>
</g>
<!-- Node43&#45;&gt;Node46 -->
<g id="edge74" class="edge">
<title>Node43&#45;&gt;Node46</title>
<path fill="none" stroke="#191970" d="M1562.9847,-593.2455C1554.7296,-585.1352 1542.7924,-573.4075 1533.0051,-563.7919"/>
<polygon fill="#191970" stroke="#191970" points="1535.3145,-561.1542 1525.7282,-556.6427 1530.4087,-566.1476 1535.3145,-561.1542"/>
</g>
<!-- Node44&#45;&gt;Node1 -->
<g id="edge72" class="edge">
<title>Node44&#45;&gt;Node1</title>
<path fill="none" stroke="#191970" d="M1194.8767,-537.4369C1249.7529,-527.712 1334.7703,-512.6456 1392.9883,-502.3285"/>
<polygon fill="#191970" stroke="#191970" points="1393.9368,-505.715 1403.1727,-500.5237 1392.7153,-498.8224 1393.9368,-505.715"/>
</g>
<!-- Node44&#45;&gt;Node3 -->
<g id="edge73" class="edge">
<title>Node44&#45;&gt;Node3</title>
<path fill="none" stroke="#191970" d="M1099.0154,-537.4049C1043.0881,-523.2957 942.4423,-493.2717 867.9134,-445 842.8088,-428.74 819.5293,-402.9148 805.5182,-385.7159"/>
<polygon fill="#191970" stroke="#191970" points="808.0359,-383.2582 799.0756,-377.6046 802.5546,-387.612 808.0359,-383.2582"/>
</g>
<!-- Node44&#45;&gt;Node4 -->
<g id="edge66" class="edge">
<title>Node44&#45;&gt;Node4</title>
<path fill="none" stroke="#191970" d="M1065.0762,-544.8513C850.7323,-537.7782 255.9134,-510.8235 255.9134,-429.5 255.9134,-429.5 255.9134,-429.5 255.9134,-183.5 255.9134,-138.402 286.5487,-129.9664 327.9134,-112 422.9397,-70.726 1140.7894,-93.2416 1283.4468,-75.4885"/>
<polygon fill="#191970" stroke="#191970" points="1284.3717,-78.8894 1293.7475,-73.9555 1283.3412,-71.9657 1284.3717,-78.8894"/>
</g>
<!-- Node44&#45;&gt;Node22 -->
<g id="edge68" class="edge">
<title>Node44&#45;&gt;Node22</title>
<path fill="none" stroke="#191970" d="M1065.3453,-544.9452C849.0163,-538.845 240.3348,-520.0736 201.9134,-501 164.7559,-482.5539 141.9134,-470.9842 141.9134,-429.5 141.9134,-429.5 141.9134,-429.5 141.9134,-306.5 141.9134,-203.0158 -51.9568,-191.813 13.9134,-112 76.673,-35.956 395.2974,-15.9598 504.8542,-11.2908"/>
<polygon fill="#191970" stroke="#191970" points="505.237,-14.7782 515.0862,-10.8739 504.9519,-7.7841 505.237,-14.7782"/>
</g>
<!-- Node44&#45;&gt;Node29 -->
<g id="edge65" class="edge">
<title>Node44&#45;&gt;Node29</title>
<path fill="none" stroke="#191970" d="M1216.5027,-545.0761C1311.2569,-541.442 1478.2049,-530.9865 1617.9134,-501 1714.7241,-480.2209 1828.9134,-528.5156 1828.9134,-429.5 1828.9134,-429.5 1828.9134,-429.5 1828.9134,-306.5 1828.9134,-244.5012 1755.2171,-211.4847 1702.1355,-195.7449"/>
<polygon fill="#191970" stroke="#191970" points="1703.0622,-192.3697 1692.4863,-193.0039 1701.1493,-199.1033 1703.0622,-192.3697"/>
</g>
<!-- Node44&#45;&gt;Node42 -->
<g id="edge67" class="edge">
<title>Node44&#45;&gt;Node42</title>
<path fill="none" stroke="#191970" d="M1216.7069,-542.1382C1296.1416,-536.1056 1424.2568,-523.7197 1532.9134,-501 1616.5852,-483.5045 1666.0237,-513.6826 1716.9134,-445 1729.0603,-428.6061 1726.0174,-404.4016 1721.5763,-387.5204"/>
<polygon fill="#191970" stroke="#191970" points="1724.8361,-386.2066 1718.6016,-377.6403 1718.1333,-388.2248 1724.8361,-386.2066"/>
</g>
<!-- Node45 -->
<g id="node41" class="node">
<title>Node45</title>
<g id="a_node41"><a xlink:href="VectorDynSize_8h.html" target="_top" xlink:title="iDynTree/Core/VectorDynSize.h">
<polygon fill="none" stroke="#000000" points="23.4134,-112.5 23.4134,-131.5 190.4134,-131.5 190.4134,-112.5 23.4134,-112.5"/>
<text text-anchor="middle" x="106.9134" y="-119.5" font-family="FreeSans.ttf" font-size="10.00" fill="#000000">iDynTree/Core/VectorDynSize.h</text>
</a>
</g>
</g>
<!-- Node44&#45;&gt;Node45 -->
<g id="edge69" class="edge">
<title>Node44&#45;&gt;Node45</title>
<path fill="none" stroke="#191970" d="M1065.2865,-546.5089C862.1261,-544.7166 314.9109,-536.6029 241.9134,-501 204.109,-482.5618 179.9134,-471.5611 179.9134,-429.5 179.9134,-429.5 179.9134,-429.5 179.9134,-245 179.9134,-202.0952 146.66,-161.0759 125.0404,-138.9412"/>
<polygon fill="#191970" stroke="#191970" points="127.2578,-136.2118 117.6848,-131.6722 122.3374,-141.1908 127.2578,-136.2118"/>
</g>
<!-- Node45&#45;&gt;Node4 -->
<g id="edge71" class="edge">
<title>Node45&#45;&gt;Node4</title>
<path fill="none" stroke="#191970" d="M190.4806,-113.0129C195.0218,-112.6406 199.5219,-112.2991 203.9134,-112 440.5517,-95.8814 1032.2586,-116.7316 1283.8498,-75.6474"/>
<polygon fill="#191970" stroke="#191970" points="1284.4761,-79.0912 1293.7496,-73.9674 1283.3049,-72.1899 1284.4761,-79.0912"/>
</g>
<!-- Node45&#45;&gt;Node19 -->
<g id="edge70" class="edge">
<title>Node45&#45;&gt;Node19</title>
<path fill="none" stroke="#191970" d="M190.4852,-113.0776C195.0253,-112.6887 199.5238,-112.3259 203.9134,-112 556.3921,-85.8338 979.1837,-72.3864 1144.1396,-67.8259"/>
<polygon fill="#191970" stroke="#191970" points="1144.2584,-71.3241 1154.1587,-67.5511 1144.0665,-64.3267 1144.2584,-71.3241"/>
</g>
<!-- Node47&#45;&gt;Node3 -->
<g id="edge84" class="edge">
<title>Node47&#45;&gt;Node3</title>
<path fill="none" stroke="#191970" d="M761.5028,-481.3484C766.9247,-461.1397 779.5604,-414.0427 786.7212,-387.3528"/>
<polygon fill="#191970" stroke="#191970" points="790.125,-388.1722 789.3359,-377.6068 783.3641,-386.3582 790.125,-388.1722"/>
</g>
<!-- Node47&#45;&gt;Node4 -->
<g id="edge78" class="edge">
<title>Node47&#45;&gt;Node4</title>
<path fill="none" stroke="#191970" d="M671.1772,-485.6675C536.4232,-475.0398 293.9134,-445.1906 293.9134,-368 293.9134,-368 293.9134,-368 293.9134,-183.5 293.9134,-129.2245 341.6179,-129.737 392.9134,-112 577.3836,-48.2138 1073.2749,-108.7562 1283.6428,-75.6507"/>
<polygon fill="#191970" stroke="#191970" points="1284.4669,-79.0613 1293.7461,-73.9479 1283.3035,-72.1586 1284.4669,-79.0613"/>
</g>
<!-- Node47&#45;&gt;Node18 -->
<g id="edge80" class="edge">
<title>Node47&#45;&gt;Node18</title>
<path fill="none" stroke="#191970" d="M846.5291,-487.7405C1016.537,-480.9948 1376.2289,-464.4931 1394.9134,-445 1442.2841,-395.579 1432.6602,-349.9837 1397.9134,-291 1351.3065,-211.8836 1171.9383,-237.5313 1231.9134,-168 1246.2065,-151.4295 1364.9646,-137.5191 1451.2433,-129.4696"/>
<polygon fill="#191970" stroke="#191970" points="1451.6932,-132.9431 1461.3303,-128.5412 1451.0516,-125.9725 1451.6932,-132.9431"/>
</g>
<!-- Node47&#45;&gt;Node11 -->
<g id="edge83" class="edge">
<title>Node47&#45;&gt;Node11</title>
<path fill="none" stroke="#191970" d="M846.6937,-487.3786C1009.7337,-480.2292 1344.4497,-463.3917 1361.9134,-445 1409.0514,-395.3571 1398.8584,-350.4488 1364.9134,-291 1349.3036,-263.6623 1330.794,-271.3843 1303.9134,-255 1264.0076,-230.6766 1237.5069,-239.9101 1214.9134,-199 1208.2526,-186.9393 1207.3201,-179.4965 1214.9134,-168 1252.2655,-111.4473 1328.0844,-86.1426 1384.3596,-74.8863"/>
<polygon fill="#191970" stroke="#191970" points="1385.0992,-78.3085 1394.2722,-73.007 1383.7952,-71.431 1385.0992,-78.3085"/>
</g>
<!-- Node47&#45;&gt;Node42 -->
<g id="edge79" class="edge">
<title>Node47&#45;&gt;Node42</title>
<path fill="none" stroke="#191970" d="M846.6518,-488.205C1002.996,-482.6934 1323.6223,-468.8427 1432.9134,-445 1470.9799,-436.6955 1477.6205,-425.2813 1514.9134,-414 1572.5148,-396.5752 1641.1711,-382.119 1681.2193,-374.2995"/>
<polygon fill="#191970" stroke="#191970" points="1682.0866,-377.6967 1691.2419,-372.3648 1680.7598,-370.8236 1682.0866,-377.6967"/>
</g>
<!-- Node48 -->
<g id="node44" class="node">
<title>Node48</title>
<g id="a_node44"><a xlink:href="MatrixDynSize_8h.html" target="_top" xlink:title="iDynTree/Core/MatrixDynSize.h">
<polygon fill="none" stroke="#000000" points="537.4134,-358.5 537.4134,-377.5 704.4134,-377.5 704.4134,-358.5 537.4134,-358.5"/>
<text text-anchor="middle" x="620.9134" y="-365.5" font-family="FreeSans.ttf" font-size="10.00" fill="#000000">iDynTree/Core/MatrixDynSize.h</text>
</a>
</g>
</g>
<!-- Node47&#45;&gt;Node48 -->
<g id="edge81" class="edge">
<title>Node47&#45;&gt;Node48</title>
<path fill="none" stroke="#191970" d="M754.8054,-481.3373C747.6765,-465.5223 731.6667,-433.8848 709.9134,-414 694.7487,-400.1379 674.6294,-389.2744 657.3567,-381.5937"/>
<polygon fill="#191970" stroke="#191970" points="658.6751,-378.3511 648.1031,-377.6553 655.9337,-384.792 658.6751,-378.3511"/>
</g>
<!-- Node49 -->
<g id="node45" class="node">
<title>Node49</title>
<g id="a_node45"><a xlink:href="FreeFloatingMatrices_8h.html" target="_top" xlink:title="iDynTree/Model/FreeFloating\lMatrices.h">
<polygon fill="none" stroke="#000000" points="546.9134,-414.5 546.9134,-444.5 700.9134,-444.5 700.9134,-414.5 546.9134,-414.5"/>
<text text-anchor="start" x="554.9134" y="-432.5" font-family="FreeSans.ttf" font-size="10.00" fill="#000000">iDynTree/Model/FreeFloating</text>
<text text-anchor="middle" x="623.9134" y="-421.5" font-family="FreeSans.ttf" font-size="10.00" fill="#000000">Matrices.h</text>
</a>
</g>
</g>
<!-- Node47&#45;&gt;Node49 -->
<g id="edge85" class="edge">
<title>Node47&#45;&gt;Node49</title>
<path fill="none" stroke="#191970" d="M737.8196,-481.3906C718.7031,-472.682 689.9619,-459.5888 666.1336,-448.7336"/>
<polygon fill="#191970" stroke="#191970" points="667.4893,-445.5052 656.9381,-444.5446 664.5873,-451.8754 667.4893,-445.5052"/>
</g>
<!-- Node50 -->
<g id="node46" class="node">
<title>Node50</title>
<g id="a_node46"><a xlink:href="LinkState_8h.html" target="_top" xlink:title="iDynTree/Model/LinkState.h">
<polygon fill="none" stroke="#000000" points="1203.4134,-420 1203.4134,-439 1352.4134,-439 1352.4134,-420 1203.4134,-420"/>
<text text-anchor="middle" x="1277.9134" y="-427" font-family="FreeSans.ttf" font-size="10.00" fill="#000000">iDynTree/Model/LinkState.h</text>
</a>
</g>
</g>
<!-- Node47&#45;&gt;Node50 -->
<g id="edge87" class="edge">
<title>Node47&#45;&gt;Node50</title>
<path fill="none" stroke="#191970" d="M846.6456,-483.7241C934.6772,-475.9533 1074.0382,-462.3717 1193.9134,-445 1202.2467,-443.7924 1211.0158,-442.3579 1219.6174,-440.8567"/>
<polygon fill="#191970" stroke="#191970" points="1220.3731,-444.2772 1229.6019,-439.0732 1219.1422,-437.3862 1220.3731,-444.2772"/>
</g>
<!-- Node48&#45;&gt;Node4 -->
<g id="edge82" class="edge">
<title>Node48&#45;&gt;Node4</title>
<path fill="none" stroke="#191970" d="M537.4069,-361.2263C473.8837,-354.567 393.0778,-342.3762 366.9134,-322 337.2546,-298.9025 331.9134,-282.5917 331.9134,-245 331.9134,-245 331.9134,-245 331.9134,-183.5 331.9134,-161.5314 281.8571,-160.181 468.9134,-112 817.2829,-22.2687 925.6777,-138.1701 1283.8859,-75.6909"/>
<polygon fill="#191970" stroke="#191970" points="1284.5117,-79.1346 1293.7443,-73.9376 1283.2859,-72.2428 1284.5117,-79.1346"/>
</g>
<!-- Node49&#45;&gt;Node48 -->
<g id="edge86" class="edge">
<title>Node49&#45;&gt;Node48</title>
<path fill="none" stroke="#191970" d="M623.1718,-414.2977C622.7857,-406.3834 622.3087,-396.6043 621.8927,-388.0759"/>
<polygon fill="#191970" stroke="#191970" points="625.3769,-387.6645 621.3937,-377.8469 618.3852,-388.0056 625.3769,-387.6645"/>
</g>
<!-- Node50&#45;&gt;Node3 -->
<g id="edge95" class="edge">
<title>Node50&#45;&gt;Node3</title>
<path fill="none" stroke="#191970" d="M1229.5933,-419.9851C1217.9371,-417.8557 1205.5016,-415.7209 1193.9134,-414 1052.7833,-393.042 1016.6299,-394.5335 874.9134,-378 873.7961,-377.8697 872.6704,-377.738 871.5379,-377.6053"/>
<polygon fill="#191970" stroke="#191970" points="871.5411,-374.0816 861.2003,-376.3873 870.722,-381.0335 871.5411,-374.0816"/>
</g>
<!-- Node50&#45;&gt;Node27 -->
<g id="edge89" class="edge">
<title>Node50&#45;&gt;Node27</title>
<path fill="none" stroke="#191970" d="M1279.2473,-419.8484C1282.028,-399.7295 1288.492,-352.9608 1292.1892,-326.2098"/>
<polygon fill="#191970" stroke="#191970" points="1295.6835,-326.4918 1293.5856,-316.1068 1288.7494,-325.5334 1295.6835,-326.4918"/>
</g>
<!-- Node50&#45;&gt;Node37 -->
<g id="edge90" class="edge">
<title>Node50&#45;&gt;Node37</title>
<path fill="none" stroke="#191970" d="M1228.4641,-419.9278C1178.8548,-410.1317 1100.3428,-394.1028 1032.9134,-378 953.3275,-358.9941 861.3093,-333.5865 808.7269,-318.7367"/>
<polygon fill="#191970" stroke="#191970" points="809.6408,-315.3579 799.0655,-316.0016 807.734,-322.0932 809.6408,-315.3579"/>
</g>
<!-- Node50&#45;&gt;Node38 -->
<g id="edge91" class="edge">
<title>Node50&#45;&gt;Node38</title>
<path fill="none" stroke="#191970" d="M1227.7686,-419.9675C1216.6344,-417.929 1204.8826,-415.8377 1193.9134,-414 1087.9693,-396.2513 1058.7692,-405.4432 954.9134,-378 930.9735,-371.674 926.8126,-364.4778 902.9134,-358 807.2856,-332.0805 780.3607,-339.903 682.9134,-322 676.2394,-320.7739 669.2482,-319.4299 662.3232,-318.0619"/>
<polygon fill="#191970" stroke="#191970" points="662.7615,-314.5804 652.2694,-316.0516 661.3889,-321.4445 662.7615,-314.5804"/>
</g>
<!-- Node50&#45;&gt;Node39 -->
<g id="edge88" class="edge">
<title>Node50&#45;&gt;Node39</title>
<path fill="none" stroke="#191970" d="M1321.201,-419.9581C1370.3776,-409.1181 1450.6558,-391.4224 1503.6363,-379.7439"/>
<polygon fill="#191970" stroke="#191970" points="1504.5121,-383.1349 1513.5242,-377.5643 1503.0052,-376.299 1504.5121,-383.1349"/>
</g>
<!-- Node50&#45;&gt;Node42 -->
<g id="edge96" class="edge">
<title>Node50&#45;&gt;Node42</title>
<path fill="none" stroke="#191970" d="M1345.7151,-419.9581C1440.5759,-406.6081 1609.3227,-382.86 1681.0966,-372.7591"/>
<polygon fill="#191970" stroke="#191970" points="1681.9457,-376.1742 1691.3603,-371.3147 1680.9701,-369.2425 1681.9457,-376.1742"/>
</g>
<!-- Node51 -->
<g id="node47" class="node">
<title>Node51</title>
<g id="a_node47"><a xlink:href="ArticulatedBodyInertia_8h.html" target="_top" xlink:title="iDynTree/Core/Articulated\lBodyInertia.h">
<polygon fill="none" stroke="#000000" points="929.4134,-168.5 929.4134,-198.5 1070.4134,-198.5 1070.4134,-168.5 929.4134,-168.5"/>
<text text-anchor="start" x="937.4134" y="-186.5" font-family="FreeSans.ttf" font-size="10.00" fill="#000000">iDynTree/Core/Articulated</text>
<text text-anchor="middle" x="999.9134" y="-175.5" font-family="FreeSans.ttf" font-size="10.00" fill="#000000">BodyInertia.h</text>
</a>
</g>
</g>
<!-- Node50&#45;&gt;Node51 -->
<g id="edge92" class="edge">
<title>Node50&#45;&gt;Node51</title>
<path fill="none" stroke="#191970" d="M1229.1369,-419.9931C1217.6095,-417.8869 1205.3457,-415.7603 1193.9134,-414 1065.1121,-394.1674 1026.0321,-420.7188 902.9134,-378 886.7109,-372.3782 886.1638,-363.4815 869.9134,-358 798.1303,-333.7864 581.5743,-378.3257 530.9134,-322 521.6998,-311.7561 522.328,-301.7758 530.9134,-291 578.5688,-231.1856 797.9821,-201.9408 919.0763,-190.1356"/>
<polygon fill="#191970" stroke="#191970" points="919.4289,-193.6179 929.0499,-189.181 918.7619,-186.6498 919.4289,-193.6179"/>
</g>
<!-- Node51&#45;&gt;Node4 -->
<g id="edge94" class="edge">
<title>Node51&#45;&gt;Node4</title>
<path fill="none" stroke="#191970" d="M1013.2985,-168.244C1028.7974,-151.6245 1055.9342,-125.5976 1084.9134,-112 1163.8028,-74.9836 1195.0786,-96.2833 1283.7401,-75.9626"/>
<polygon fill="#191970" stroke="#191970" points="1284.7638,-79.3162 1293.6655,-73.5707 1283.1238,-72.511 1284.7638,-79.3162"/>
</g>
<!-- Node51&#45;&gt;Node10 -->
<g id="edge93" class="edge">
<title>Node51&#45;&gt;Node10</title>
<path fill="none" stroke="#191970" d="M1070.6999,-178.4672C1226.8671,-167.364 1600.7756,-140.7797 1773.9873,-128.4647"/>
<polygon fill="#191970" stroke="#191970" points="1774.3698,-131.9464 1784.0964,-127.7459 1773.8733,-124.964 1774.3698,-131.9464"/>
</g>
<!-- Node52&#45;&gt;Node4 -->
<g id="edge102" class="edge">
<title>Node52&#45;&gt;Node4</title>
<path fill="none" stroke="#191970" d="M2015.0696,-419.9947C1988.3509,-401.5901 1934.9134,-358.3052 1934.9134,-306.5 1934.9134,-306.5 1934.9134,-306.5 1934.9134,-245 1934.9134,-209.7513 1940.9725,-192.7892 1915.9134,-168 1906.2567,-158.4473 1691.2847,-114.3901 1677.9134,-112 1549.1932,-88.9916 1515.5313,-93.247 1385.9134,-76 1373.4897,-74.3469 1359.8421,-72.4219 1347.9227,-70.7047"/>
<polygon fill="#191970" stroke="#191970" points="1348.366,-67.2325 1337.9672,-69.2613 1347.3615,-74.1601 1348.366,-67.2325"/>
</g>
<!-- Node52&#45;&gt;Node20 -->
<g id="edge106" class="edge">
<title>Node52&#45;&gt;Node20</title>
<path fill="none" stroke="#191970" d="M2062.4369,-426.7652C2125.2045,-419.5206 2256.9134,-393.9054 2256.9134,-306.5 2256.9134,-306.5 2256.9134,-306.5 2256.9134,-122 2256.9134,-71.3158 2210.6049,-75.7177 2163.9134,-56 2094.6904,-26.7674 2006.9553,-16.0715 1955.9563,-12.1861"/>
<polygon fill="#191970" stroke="#191970" points="1956.1797,-8.6932 1945.9569,-11.4762 1955.6839,-15.6756 1956.1797,-8.6932"/>
</g>
<!-- Node52&#45;&gt;Node24 -->
<g id="edge103" class="edge">
<title>Node52&#45;&gt;Node24</title>
<path fill="none" stroke="#191970" d="M2062.7388,-426.4881C2121.2802,-420.4851 2240.4315,-405.2096 2270.9134,-378 2295.92,-355.6779 2294.9134,-340.0202 2294.9134,-306.5 2294.9134,-306.5 2294.9134,-306.5 2294.9134,-122 2294.9134,-90.7875 2292.9699,-78.0846 2270.9134,-56 2248.5878,-33.646 2214.5381,-22.066 2187.4609,-16.1187"/>
<polygon fill="#191970" stroke="#191970" points="2187.958,-12.6486 2177.4637,-14.1045 2186.5753,-19.5107 2187.958,-12.6486"/>
</g>
<!-- Node52&#45;&gt;Node17 -->
<g id="edge99" class="edge">
<title>Node52&#45;&gt;Node17</title>
<path fill="none" stroke="#191970" d="M2020.6521,-419.7318C2011.9775,-409.973 1999.4049,-394.1379 1992.9134,-378 1948.3458,-267.2053 2030.1283,-204.7601 1954.9134,-112 1949.0898,-104.818 1901.9953,-88.8422 1867.0802,-77.7483"/>
<polygon fill="#191970" stroke="#191970" points="1867.7376,-74.2859 1857.148,-74.6188 1865.634,-80.9623 1867.7376,-74.2859"/>
</g>
<!-- Node52&#45;&gt;Node15 -->
<g id="edge105" class="edge">
<title>Node52&#45;&gt;Node15</title>
<path fill="none" stroke="#191970" d="M2038.6899,-419.9661C2047.2974,-410.1368 2060.2171,-394.0261 2067.9134,-378 2082.1475,-348.3601 2086.9134,-339.3806 2086.9134,-306.5 2086.9134,-306.5 2086.9134,-306.5 2086.9134,-183.5 2086.9134,-112.5392 1989.1797,-82.7688 1935.0232,-71.7195"/>
<polygon fill="#191970" stroke="#191970" points="1935.6152,-68.2692 1925.133,-69.8104 1934.2884,-75.1423 1935.6152,-68.2692"/>
</g>
<!-- Node52&#45;&gt;Node16 -->
<g id="edge98" class="edge">
<title>Node52&#45;&gt;Node16</title>
<path fill="none" stroke="#191970" d="M2049.0779,-419.9682C2065.0448,-411.1191 2087.3008,-396.5313 2100.9134,-378 2120.7577,-350.9851 2124.9134,-340.0202 2124.9134,-306.5 2124.9134,-306.5 2124.9134,-306.5 2124.9134,-183.5 2124.9134,-149.1399 2124.9134,-109.128 2124.9134,-85.7764"/>
<polygon fill="#191970" stroke="#191970" points="2128.4135,-85.7489 2124.9134,-75.7489 2121.4135,-85.749 2128.4135,-85.7489"/>
</g>
<!-- Node52&#45;&gt;Node41 -->
<g id="edge107" class="edge">
<title>Node52&#45;&gt;Node41</title>
<path fill="none" stroke="#191970" d="M2006.7884,-419.8906C1981.9166,-409.5554 1942.1836,-393.0447 1914.229,-381.4284"/>
<polygon fill="#191970" stroke="#191970" points="1915.4535,-378.1472 1904.876,-377.5419 1912.7674,-384.6113 1915.4535,-378.1472"/>
</g>
<!-- Node52&#45;&gt;Node42 -->
<g id="edge100" class="edge">
<title>Node52&#45;&gt;Node42</title>
<path fill="none" stroke="#191970" d="M1997.3893,-423.1501C1937.2083,-411.4004 1809.0851,-386.3859 1748.2778,-374.514"/>
<polygon fill="#191970" stroke="#191970" points="1748.912,-371.0718 1738.4266,-372.5907 1747.5706,-377.9421 1748.912,-371.0718"/>
</g>
<!-- Node53 -->
<g id="node49" class="node">
<title>Node53</title>
<polygon fill="none" stroke="#bfbfbf" points="2152.9134,-358.5 2152.9134,-377.5 2190.9134,-377.5 2190.9134,-358.5 2152.9134,-358.5"/>
<text text-anchor="middle" x="2171.9134" y="-365.5" font-family="FreeSans.ttf" font-size="10.00" fill="#000000">map</text>
</g>
<!-- Node52&#45;&gt;Node53 -->
<g id="edge101" class="edge">
<title>Node52&#45;&gt;Node53</title>
<path fill="none" stroke="#191970" d="M2052.1009,-419.8906C2076.6937,-409.2395 2116.4305,-392.0296 2143.335,-380.3772"/>
<polygon fill="#191970" stroke="#191970" points="2144.8295,-383.5442 2152.6148,-376.3582 2142.0475,-377.1208 2144.8295,-383.5442"/>
</g>
<!-- Node54 -->
<g id="node50" class="node">
<title>Node54</title>
<polygon fill="none" stroke="#bfbfbf" points="2001.4134,-358.5 2001.4134,-377.5 2058.4134,-377.5 2058.4134,-358.5 2001.4134,-358.5"/>
<text text-anchor="middle" x="2029.9134" y="-365.5" font-family="FreeSans.ttf" font-size="10.00" fill="#000000">typeinfo</text>
</g>
<!-- Node52&#45;&gt;Node54 -->
<g id="edge104" class="edge">
<title>Node52&#45;&gt;Node54</title>
<path fill="none" stroke="#191970" d="M2029.9134,-419.8906C2029.9134,-411.3657 2029.9134,-398.6392 2029.9134,-387.9235"/>
<polygon fill="#191970" stroke="#191970" points="2033.4135,-387.7448 2029.9134,-377.7449 2026.4135,-387.7449 2033.4135,-387.7448"/>
</g>
</g>
</svg>
