<?xml version="1.0" encoding="UTF-8" standalone="no"?>
<!DOCTYPE svg PUBLIC "-//W3C//DTD SVG 1.1//EN"
 "http://www.w3.org/Graphics/SVG/1.1/DTD/svg11.dtd">
<!-- Generated by graphviz version 2.40.1 (20161225.0304)
 -->
<!-- Title: idyntree&#45;model&#45;view.cpp Pages: 1 -->
<svg width="2200pt" height="845pt"
 viewBox="0.00 0.00 2200.00 845.00" xmlns="http://www.w3.org/2000/svg" xmlns:xlink="http://www.w3.org/1999/xlink">
<g id="graph0" class="graph" transform="scale(1 1) rotate(0) translate(4 841)">
<title>idyntree&#45;model&#45;view.cpp</title>
<!-- Node0 -->
<g id="node1" class="node">
<title>Node0</title>
<polygon fill="#bfbfbf" stroke="#000000" points="1297,-817.5 1297,-836.5 1435,-836.5 1435,-817.5 1297,-817.5"/>
<text text-anchor="middle" x="1366" y="-824.5" font-family="FreeSans.ttf" font-size="10.00" fill="#000000">idyntree&#45;model&#45;view.cpp</text>
</g>
<!-- Node1 -->
<g id="node2" class="node">
<title>Node1</title>
<g id="a_node2"><a xlink:href="Model_8h.html" target="_top" xlink:title="iDynTree/Model/Model.h">
<polygon fill="none" stroke="#000000" points="590.5,-649.5 590.5,-668.5 723.5,-668.5 723.5,-649.5 590.5,-649.5"/>
<text text-anchor="middle" x="657" y="-656.5" font-family="FreeSans.ttf" font-size="10.00" fill="#000000">iDynTree/Model/Model.h</text>
</a>
</g>
</g>
<!-- Node0&#45;&gt;Node1 -->
<g id="edge1" class="edge">
<title>Node0&#45;&gt;Node1</title>
<path fill="none" stroke="#191970" d="M1296.805,-821.6498C1186.1976,-811.603 963.8181,-785.2382 785,-725 746.7618,-712.1187 705.8664,-689.2494 680.8602,-674.1041"/>
<polygon fill="#191970" stroke="#191970" points="682.445,-670.9699 672.0929,-668.7146 678.7791,-676.9333 682.445,-670.9699"/>
</g>
<!-- Node16 -->
<g id="node30" class="node">
<title>Node16</title>
<polygon fill="none" stroke="#bfbfbf" points="1813,-56.5 1813,-75.5 1873,-75.5 1873,-56.5 1813,-56.5"/>
<text text-anchor="middle" x="1843" y="-63.5" font-family="FreeSans.ttf" font-size="10.00" fill="#000000">iostream</text>
</g>
<!-- Node0&#45;&gt;Node16 -->
<g id="edge123" class="edge">
<title>Node0&#45;&gt;Node16</title>
<path fill="none" stroke="#191970" d="M1435.0326,-825.4121C1583.9148,-821.4854 1930.9443,-809.4952 2045,-781 2114.4807,-763.6412 2192,-786.6163 2192,-715 2192,-715 2192,-715 2192,-357 2192,-228.1494 2141.8864,-186.8419 2037,-112 2012.6016,-94.5905 1932.4317,-79.6843 1883.1137,-71.8618"/>
<polygon fill="#191970" stroke="#191970" points="1883.5086,-68.3812 1873.0893,-70.3017 1882.4321,-75.2979 1883.5086,-68.3812"/>
</g>
<!-- Node41 -->
<g id="node37" class="node">
<title>Node41</title>
<polygon fill="none" stroke="#bfbfbf" points="1716.5,-409 1716.5,-428 1765.5,-428 1765.5,-409 1716.5,-409"/>
<text text-anchor="middle" x="1741" y="-416" font-family="FreeSans.ttf" font-size="10.00" fill="#000000">cstdlib</text>
</g>
<!-- Node0&#45;&gt;Node41 -->
<g id="edge124" class="edge">
<title>Node0&#45;&gt;Node41</title>
<path fill="none" stroke="#191970" d="M1435.0105,-821.1473C1591.5358,-806.9458 1960,-767.8974 1960,-715 1960,-715 1960,-715 1960,-547 1960,-504.6843 1938.6287,-494.3202 1904,-470 1857.0381,-437.018 1834.2824,-452.6188 1780,-434 1777.8721,-433.2701 1775.6903,-432.4909 1773.4984,-431.6847"/>
<polygon fill="#191970" stroke="#191970" points="1774.5514,-428.3405 1763.9606,-428.0483 1772.0576,-434.8813 1774.5514,-428.3405"/>
</g>
<!-- Node43 -->
<g id="node39" class="node">
<title>Node43</title>
<g id="a_node39"><a xlink:href="ModelLoader_8h.html" target="_top" xlink:title="iDynTree/ModelIO/ModelLoader.h">
<polygon fill="none" stroke="#000000" points="561,-761.5 561,-780.5 737,-780.5 737,-761.5 561,-761.5"/>
<text text-anchor="middle" x="649" y="-768.5" font-family="FreeSans.ttf" font-size="10.00" fill="#000000">iDynTree/ModelIO/ModelLoader.h</text>
</a>
</g>
</g>
<!-- Node0&#45;&gt;Node43 -->
<g id="edge75" class="edge">
<title>Node0&#45;&gt;Node43</title>
<path fill="none" stroke="#191970" d="M1296.7852,-822.3456C1182.8974,-814.5698 948.8758,-798.0977 751,-781 749.7286,-780.8901 748.4484,-780.7786 747.1609,-780.6655"/>
<polygon fill="#191970" stroke="#191970" points="747.4433,-777.1769 737.1713,-779.7721 746.8197,-784.1491 747.4433,-777.1769"/>
</g>
<!-- Node47 -->
<g id="node43" class="node">
<title>Node47</title>
<g id="a_node43"><a xlink:href="Visualizer_8h.html" target="_top" xlink:title="iDynTree/Visualizer.h">
<polygon fill="none" stroke="#000000" points="326.5,-593.5 326.5,-612.5 445.5,-612.5 445.5,-593.5 326.5,-593.5"/>
<text text-anchor="middle" x="386" y="-600.5" font-family="FreeSans.ttf" font-size="10.00" fill="#000000">iDynTree/Visualizer.h</text>
</a>
</g>
</g>
<!-- Node0&#45;&gt;Node47 -->
<g id="edge90" class="edge">
<title>Node0&#45;&gt;Node47</title>
<path fill="none" stroke="#191970" d="M1296.913,-826.0337C1112.5727,-823.0435 618.524,-812.185 552,-781 476.8393,-745.7663 419.2811,-659.7918 396.5686,-621.6972"/>
<polygon fill="#191970" stroke="#191970" points="399.3857,-619.5798 391.3268,-612.702 393.3376,-623.1042 399.3857,-619.5798"/>
</g>
<!-- Node52 -->
<g id="node48" class="node">
<title>Node52</title>
<g id="a_node48"><a xlink:href="cmdline_8h.html" target="_top" xlink:title="cmdline.h">
<polygon fill="none" stroke="#000000" points="2026.5,-476 2026.5,-495 2091.5,-495 2091.5,-476 2026.5,-476"/>
<text text-anchor="middle" x="2059" y="-483" font-family="FreeSans.ttf" font-size="10.00" fill="#000000">cmdline.h</text>
</a>
</g>
</g>
<!-- Node0&#45;&gt;Node52 -->
<g id="edge112" class="edge">
<title>Node0&#45;&gt;Node52</title>
<path fill="none" stroke="#191970" d="M1435.0464,-824.8852C1572.0945,-820.178 1873.8784,-807.1311 1974,-781 2041.3392,-763.4249 2116,-784.5949 2116,-715 2116,-715 2116,-715 2116,-603 2116,-564.341 2090.7138,-525.0543 2073.825,-503.1259"/>
<polygon fill="#191970" stroke="#191970" points="2076.3871,-500.7255 2067.4105,-495.0977 2070.9183,-505.095 2076.3871,-500.7255"/>
</g>
<!-- Node2 -->
<g id="node3" class="node">
<title>Node2</title>
<g id="a_node3"><a xlink:href="IJoint_8h.html" target="_top" xlink:title="iDynTree/Model/IJoint.h">
<polygon fill="none" stroke="#000000" points="142,-593.5 142,-612.5 270,-612.5 270,-593.5 142,-593.5"/>
<text text-anchor="middle" x="206" y="-600.5" font-family="FreeSans.ttf" font-size="10.00" fill="#000000">iDynTree/Model/IJoint.h</text>
</a>
</g>
</g>
<!-- Node1&#45;&gt;Node2 -->
<g id="edge2" class="edge">
<title>Node1&#45;&gt;Node2</title>
<path fill="none" stroke="#191970" d="M590.2823,-650.8701C515.6442,-641.7522 391.1407,-626.4744 284,-613 282.7428,-612.8419 281.4742,-612.6821 280.1967,-612.521"/>
<polygon fill="#191970" stroke="#191970" points="280.6304,-609.048 270.27,-611.2646 279.7514,-615.9926 280.6304,-609.048"/>
</g>
<!-- Node3 -->
<g id="node4" class="node">
<title>Node3</title>
<g id="a_node4"><a xlink:href="Indices_8h.html" target="_top" xlink:title="iDynTree/Model/Indices.h">
<polygon fill="none" stroke="#000000" points="154,-476 154,-495 292,-495 292,-476 154,-476"/>
<text text-anchor="middle" x="223" y="-483" font-family="FreeSans.ttf" font-size="10.00" fill="#000000">iDynTree/Model/Indices.h</text>
</a>
</g>
</g>
<!-- Node1&#45;&gt;Node3 -->
<g id="edge67" class="edge">
<title>Node1&#45;&gt;Node3</title>
<path fill="none" stroke="#191970" d="M590.4733,-656.0456C505.1515,-651.2302 362.8336,-639.4289 318,-613 274.5828,-587.4061 244.774,-533.4665 231.2467,-504.6315"/>
<polygon fill="#191970" stroke="#191970" points="234.3117,-502.9147 227.0046,-495.243 227.9327,-505.7971 234.3117,-502.9147"/>
</g>
<!-- Node6 -->
<g id="node7" class="node">
<title>Node6</title>
<g id="a_node7"><a xlink:href="Link_8h.html" target="_top" xlink:title="iDynTree/Model/Link.h">
<polygon fill="none" stroke="#000000" points="505,-593.5 505,-612.5 629,-612.5 629,-593.5 505,-593.5"/>
<text text-anchor="middle" x="567" y="-600.5" font-family="FreeSans.ttf" font-size="10.00" fill="#000000">iDynTree/Model/Link.h</text>
</a>
</g>
</g>
<!-- Node1&#45;&gt;Node6 -->
<g id="edge6" class="edge">
<title>Node1&#45;&gt;Node6</title>
<path fill="none" stroke="#191970" d="M641.3232,-649.2455C627.5144,-640.6534 607.1807,-628.0014 591.2708,-618.1018"/>
<polygon fill="#191970" stroke="#191970" points="592.8368,-614.954 582.4972,-612.6427 589.1387,-620.8974 592.8368,-614.954"/>
</g>
<!-- Node39 -->
<g id="node35" class="node">
<title>Node39</title>
<g id="a_node35"><a xlink:href="Transform_8h.html" target="_top" xlink:title="iDynTree/Core/Transform.h">
<polygon fill="none" stroke="#000000" points="459,-347.5 459,-366.5 605,-366.5 605,-347.5 459,-347.5"/>
<text text-anchor="middle" x="532" y="-354.5" font-family="FreeSans.ttf" font-size="10.00" fill="#000000">iDynTree/Core/Transform.h</text>
</a>
</g>
</g>
<!-- Node1&#45;&gt;Node39 -->
<g id="edge62" class="edge">
<title>Node1&#45;&gt;Node39</title>
<path fill="none" stroke="#191970" d="M600.8292,-649.4595C560.2457,-641.4079 510.1756,-628.6941 496,-613 433.28,-543.5611 439.8207,-487.0227 481,-403 486.9854,-390.7874 497.7616,-380.3257 507.8714,-372.479"/>
<polygon fill="#191970" stroke="#191970" points="510.0458,-375.2256 516.087,-366.5219 505.9367,-369.5586 510.0458,-375.2256"/>
</g>
<!-- Node40 -->
<g id="node36" class="node">
<title>Node40</title>
<g id="a_node36"><a xlink:href="SolidShapes_8h.html" target="_top" xlink:title="iDynTree/Model/SolidShapes.h">
<polygon fill="none" stroke="#000000" points="669.5,-476 669.5,-495 832.5,-495 832.5,-476 669.5,-476"/>
<text text-anchor="middle" x="751" y="-483" font-family="FreeSans.ttf" font-size="10.00" fill="#000000">iDynTree/Model/SolidShapes.h</text>
</a>
</g>
</g>
<!-- Node1&#45;&gt;Node40 -->
<g id="edge68" class="edge">
<title>Node1&#45;&gt;Node40</title>
<path fill="none" stroke="#191970" d="M656.0513,-649.2489C654.4118,-627.3365 653.1623,-573.2826 676,-537 686.173,-520.838 703.4662,-508.4548 718.8847,-499.8861"/>
<polygon fill="#191970" stroke="#191970" points="720.9164,-502.7738 728.1623,-495.0441 717.6776,-496.5681 720.9164,-502.7738"/>
</g>
<!-- Node1&#45;&gt;Node41 -->
<g id="edge73" class="edge">
<title>Node1&#45;&gt;Node41</title>
<path fill="none" stroke="#191970" d="M723.5155,-656.2876C843.1514,-650.9857 1102.4471,-637.5637 1320,-613 1479.5928,-594.9806 1523.0946,-602.9097 1677,-557 1734.9474,-539.7144 1768.2003,-551.8022 1801,-501 1808.4732,-489.4251 1806.7528,-482.5193 1801,-470 1794.0142,-454.7977 1780.0812,-442.3979 1767.3989,-433.5778"/>
<polygon fill="#191970" stroke="#191970" points="1769.2087,-430.5796 1758.9195,-428.0531 1765.3874,-436.4446 1769.2087,-430.5796"/>
</g>
<!-- Node42 -->
<g id="node38" class="node">
<title>Node42</title>
<polygon fill="none" stroke="#bfbfbf" points="1651.5,-409 1651.5,-428 1698.5,-428 1698.5,-409 1651.5,-409"/>
<text text-anchor="middle" x="1675" y="-416" font-family="FreeSans.ttf" font-size="10.00" fill="#000000">vector</text>
</g>
<!-- Node1&#45;&gt;Node42 -->
<g id="edge74" class="edge">
<title>Node1&#45;&gt;Node42</title>
<path fill="none" stroke="#191970" d="M723.8055,-654.6714C955.4486,-638.992 1713.8659,-581.8073 1784,-501 1793.0309,-490.5947 1791.3734,-481.6387 1784,-470 1783.8529,-469.7678 1736.8955,-447.6325 1704.6697,-432.4607"/>
<polygon fill="#191970" stroke="#191970" points="1705.7481,-429.1 1695.2097,-428.0078 1702.7668,-435.4334 1705.7481,-429.1"/>
</g>
<!-- Node2&#45;&gt;Node3 -->
<g id="edge3" class="edge">
<title>Node2&#45;&gt;Node3</title>
<path fill="none" stroke="#191970" d="M207.3912,-593.3845C210.1681,-574.1913 216.448,-530.786 220.1402,-505.2663"/>
<polygon fill="#191970" stroke="#191970" points="223.6215,-505.6465 221.5896,-495.2484 216.6937,-504.6441 223.6215,-505.6465"/>
</g>
<!-- Node4 -->
<g id="node5" class="node">
<title>Node4</title>
<polygon fill="none" stroke="#bfbfbf" points="423,-56.5 423,-75.5 467,-75.5 467,-56.5 423,-56.5"/>
<text text-anchor="middle" x="445" y="-63.5" font-family="FreeSans.ttf" font-size="10.00" fill="#000000">string</text>
</g>
<!-- Node3&#45;&gt;Node4 -->
<g id="edge4" class="edge">
<title>Node3&#45;&gt;Node4</title>
<path fill="none" stroke="#191970" d="M209.8727,-475.9562C197.9512,-466.5925 180.7812,-451.2398 171,-434 153.6058,-403.342 152,-392.2487 152,-357 152,-357 152,-357 152,-183.5 152,-139.0283 182.9663,-133.3096 222,-112 254.5281,-94.242 359.0341,-77.8204 412.6322,-70.3037"/>
<polygon fill="#191970" stroke="#191970" points="413.2099,-73.7572 422.6367,-68.9213 412.2517,-66.8231 413.2099,-73.7572"/>
</g>
<!-- Node5 -->
<g id="node6" class="node">
<title>Node5</title>
<polygon fill="none" stroke="#bfbfbf" points="180,-409 180,-428 266,-428 266,-409 180,-409"/>
<text text-anchor="middle" x="223" y="-416" font-family="FreeSans.ttf" font-size="10.00" fill="#000000">ModelExport.h</text>
</g>
<!-- Node3&#45;&gt;Node5 -->
<g id="edge5" class="edge">
<title>Node3&#45;&gt;Node5</title>
<path fill="none" stroke="#191970" d="M223,-475.9005C223,-466.149 223,-450.7597 223,-438.3695"/>
<polygon fill="#191970" stroke="#191970" points="226.5001,-438.0816 223,-428.0817 219.5001,-438.0817 226.5001,-438.0816"/>
</g>
<!-- Node6&#45;&gt;Node3 -->
<g id="edge61" class="edge">
<title>Node6&#45;&gt;Node3</title>
<path fill="none" stroke="#191970" d="M539.1404,-593.484C477.702,-572.4985 330.5172,-522.2246 260.821,-498.4185"/>
<polygon fill="#191970" stroke="#191970" points="261.7141,-495.0251 251.1196,-495.1048 259.4515,-501.6493 261.7141,-495.0251"/>
</g>
<!-- Node7 -->
<g id="node8" class="node">
<title>Node7</title>
<g id="a_node8"><a xlink:href="SpatialInertia_8h.html" target="_top" xlink:title="iDynTree/Core/SpatialInertia.h">
<polygon fill="none" stroke="#000000" points="1219,-537.5 1219,-556.5 1381,-556.5 1381,-537.5 1219,-537.5"/>
<text text-anchor="middle" x="1300" y="-544.5" font-family="FreeSans.ttf" font-size="10.00" fill="#000000">iDynTree/Core/SpatialInertia.h</text>
</a>
</g>
</g>
<!-- Node6&#45;&gt;Node7 -->
<g id="edge7" class="edge">
<title>Node6&#45;&gt;Node7</title>
<path fill="none" stroke="#191970" d="M629.179,-598.2496C758.6011,-588.362 1057.4456,-565.5308 1208.7294,-553.9729"/>
<polygon fill="#191970" stroke="#191970" points="1209.2157,-557.4461 1218.92,-553.1944 1208.6824,-550.4664 1209.2157,-557.4461"/>
</g>
<!-- Node8 -->
<g id="node9" class="node">
<title>Node8</title>
<g id="a_node9"><a xlink:href="SpatialInertiaRaw_8h.html" target="_top" xlink:title="iDynTree/Core/SpatialInertia\lRaw.h">
<polygon fill="none" stroke="#ff0000" points="1384.5,-470.5 1384.5,-500.5 1537.5,-500.5 1537.5,-470.5 1384.5,-470.5"/>
<text text-anchor="start" x="1392.5" y="-488.5" font-family="FreeSans.ttf" font-size="10.00" fill="#000000">iDynTree/Core/SpatialInertia</text>
<text text-anchor="middle" x="1461" y="-477.5" font-family="FreeSans.ttf" font-size="10.00" fill="#000000">Raw.h</text>
</a>
</g>
</g>
<!-- Node7&#45;&gt;Node8 -->
<g id="edge8" class="edge">
<title>Node7&#45;&gt;Node8</title>
<path fill="none" stroke="#191970" d="M1325.1563,-537.3906C1348.3579,-528.5279 1383.4479,-515.1239 1412.1518,-504.1594"/>
<polygon fill="#191970" stroke="#191970" points="1413.5223,-507.3826 1421.615,-500.5446 1411.0243,-500.8435 1413.5223,-507.3826"/>
</g>
<!-- Node18 -->
<g id="node10" class="node">
<title>Node18</title>
<g id="a_node10"><a xlink:href="VectorFixSize_8h.html" target="_top" xlink:title="iDynTree/Core/VectorFixSize.h">
<polygon fill="none" stroke="#000000" points="1157.5,-112.5 1157.5,-131.5 1318.5,-131.5 1318.5,-112.5 1157.5,-112.5"/>
<text text-anchor="middle" x="1238" y="-119.5" font-family="FreeSans.ttf" font-size="10.00" fill="#000000">iDynTree/Core/VectorFixSize.h</text>
</a>
</g>
</g>
<!-- Node7&#45;&gt;Node18 -->
<g id="edge9" class="edge">
<title>Node7&#45;&gt;Node18</title>
<path fill="none" stroke="#191970" d="M1381.1987,-544.5066C1504.3627,-539.8767 1726.7333,-527.8677 1751,-501 1807.2458,-438.7255 1692.4821,-490.547 1643,-434 1583.7042,-366.2382 1651.7549,-311.9522 1605,-235 1580.0225,-193.8904 1564.0272,-187.3774 1520,-168 1486.4625,-153.2393 1397.7187,-140.1957 1328.6553,-131.803"/>
<polygon fill="#191970" stroke="#191970" points="1328.9631,-128.3149 1318.6173,-130.5989 1328.1293,-135.2651 1328.9631,-128.3149"/>
</g>
<!-- Node27 -->
<g id="node21" class="node">
<title>Node27</title>
<g id="a_node21"><a xlink:href="Twist_8h.html" target="_top" xlink:title="iDynTree/Core/Twist.h">
<polygon fill="none" stroke="#000000" points="927,-476 927,-495 1049,-495 1049,-476 927,-476"/>
<text text-anchor="middle" x="988" y="-483" font-family="FreeSans.ttf" font-size="10.00" fill="#000000">iDynTree/Core/Twist.h</text>
</a>
</g>
</g>
<!-- Node7&#45;&gt;Node27 -->
<g id="edge23" class="edge">
<title>Node7&#45;&gt;Node27</title>
<path fill="none" stroke="#191970" d="M1247.5107,-537.4932C1198.4318,-528.4927 1123.1375,-514.3992 1058,-501 1052.2203,-499.8111 1046.1807,-498.531 1040.1758,-497.2342"/>
<polygon fill="#191970" stroke="#191970" points="1040.6705,-493.7599 1030.1545,-495.0493 1039.1793,-500.5992 1040.6705,-493.7599"/>
</g>
<!-- Node35 -->
<g id="node31" class="node">
<title>Node35</title>
<g id="a_node31"><a xlink:href="SpatialMomentum_8h.html" target="_top" xlink:title="iDynTree/Core/SpatialMomentum.h">
<polygon fill="none" stroke="#000000" points="1556,-476 1556,-495 1742,-495 1742,-476 1556,-476"/>
<text text-anchor="middle" x="1649" y="-483" font-family="FreeSans.ttf" font-size="10.00" fill="#000000">iDynTree/Core/SpatialMomentum.h</text>
</a>
</g>
</g>
<!-- Node7&#45;&gt;Node35 -->
<g id="edge52" class="edge">
<title>Node7&#45;&gt;Node35</title>
<path fill="none" stroke="#191970" d="M1354.1483,-537.4581C1416.5215,-526.4668 1518.8929,-508.4272 1585.1102,-496.7585"/>
<polygon fill="#191970" stroke="#191970" points="1585.771,-500.1961 1595.0118,-495.0137 1584.5561,-493.3023 1585.771,-500.1961"/>
</g>
<!-- Node37 -->
<g id="node33" class="node">
<title>Node37</title>
<g id="a_node33"><a xlink:href="SpatialAcc_8h.html" target="_top" xlink:title="iDynTree/Core/SpatialAcc.h">
<polygon fill="none" stroke="#000000" points="1067,-476 1067,-495 1215,-495 1215,-476 1067,-476"/>
<text text-anchor="middle" x="1141" y="-483" font-family="FreeSans.ttf" font-size="10.00" fill="#000000">iDynTree/Core/SpatialAcc.h</text>
</a>
</g>
</g>
<!-- Node7&#45;&gt;Node37 -->
<g id="edge57" class="edge">
<title>Node7&#45;&gt;Node37</title>
<path fill="none" stroke="#191970" d="M1275.1563,-537.3906C1248.3193,-527.0103 1205.3767,-510.4004 1175.3247,-498.7766"/>
<polygon fill="#191970" stroke="#191970" points="1176.2586,-495.3851 1165.6693,-495.0419 1173.7333,-501.9138 1176.2586,-495.3851"/>
</g>
<!-- Node38 -->
<g id="node34" class="node">
<title>Node38</title>
<g id="a_node34"><a xlink:href="Wrench_8h.html" target="_top" xlink:title="iDynTree/Core/Wrench.h">
<polygon fill="none" stroke="#000000" points="1233.5,-476 1233.5,-495 1366.5,-495 1366.5,-476 1233.5,-476"/>
<text text-anchor="middle" x="1300" y="-483" font-family="FreeSans.ttf" font-size="10.00" fill="#000000">iDynTree/Core/Wrench.h</text>
</a>
</g>
</g>
<!-- Node7&#45;&gt;Node38 -->
<g id="edge59" class="edge">
<title>Node7&#45;&gt;Node38</title>
<path fill="none" stroke="#191970" d="M1300,-537.3906C1300,-528.8657 1300,-516.1392 1300,-505.4235"/>
<polygon fill="#191970" stroke="#191970" points="1303.5001,-505.2448 1300,-495.2449 1296.5001,-505.2449 1303.5001,-505.2448"/>
</g>
<!-- Node18&#45;&gt;Node4 -->
<g id="edge19" class="edge">
<title>Node18&#45;&gt;Node4</title>
<path fill="none" stroke="#191970" d="M1157.4867,-112.7833C1154.6235,-112.5097 1151.7878,-112.2476 1149,-112 890.3244,-89.0292 577.2215,-72.5545 477.2852,-67.5723"/>
<polygon fill="#191970" stroke="#191970" points="477.384,-64.073 467.223,-67.0737 477.0375,-71.0644 477.384,-64.073"/>
</g>
<!-- Node11 -->
<g id="node11" class="node">
<title>Node11</title>
<g id="a_node11"><a xlink:href="Utils_8h.html" target="_top" xlink:title="iDynTree/Core/Utils.h">
<polygon fill="none" stroke="#000000" points="999.5,-56.5 999.5,-75.5 1118.5,-75.5 1118.5,-56.5 999.5,-56.5"/>
<text text-anchor="middle" x="1059" y="-63.5" font-family="FreeSans.ttf" font-size="10.00" fill="#000000">iDynTree/Core/Utils.h</text>
</a>
</g>
</g>
<!-- Node18&#45;&gt;Node11 -->
<g id="edge10" class="edge">
<title>Node18&#45;&gt;Node11</title>
<path fill="none" stroke="#191970" d="M1207.2288,-112.3733C1177.335,-103.021 1131.7907,-88.7725 1099.0783,-78.5385"/>
<polygon fill="#191970" stroke="#191970" points="1099.9586,-75.1466 1089.3697,-75.5011 1097.8685,-81.8273 1099.9586,-75.1466"/>
</g>
<!-- Node19 -->
<g id="node14" class="node">
<title>Node19</title>
<g id="a_node14"><a xlink:href="Span_8h.html" target="_top" xlink:title="iDynTree/Core/Span.h">
<polygon fill="none" stroke="#ff0000" points="1286.5,-56.5 1286.5,-75.5 1407.5,-75.5 1407.5,-56.5 1286.5,-56.5"/>
<text text-anchor="middle" x="1347" y="-63.5" font-family="FreeSans.ttf" font-size="10.00" fill="#000000">iDynTree/Core/Span.h</text>
</a>
</g>
</g>
<!-- Node18&#45;&gt;Node19 -->
<g id="edge13" class="edge">
<title>Node18&#45;&gt;Node19</title>
<path fill="none" stroke="#191970" d="M1256.9864,-112.2455C1274.1792,-103.4125 1299.7238,-90.2887 1319.2132,-80.2758"/>
<polygon fill="#191970" stroke="#191970" points="1320.9359,-83.3257 1328.2312,-75.6427 1317.737,-77.0993 1320.9359,-83.3257"/>
</g>
<!-- Node14 -->
<g id="node15" class="node">
<title>Node14</title>
<polygon fill="none" stroke="#bfbfbf" points="1230,-.5 1230,-19.5 1282,-19.5 1282,-.5 1230,-.5"/>
<text text-anchor="middle" x="1256" y="-7.5" font-family="FreeSans.ttf" font-size="10.00" fill="#000000">cassert</text>
</g>
<!-- Node18&#45;&gt;Node14 -->
<g id="edge21" class="edge">
<title>Node18&#45;&gt;Node14</title>
<path fill="none" stroke="#191970" d="M1239.5347,-112.4509C1242.4704,-94.184 1248.9358,-53.9553 1252.8343,-29.6976"/>
<polygon fill="#191970" stroke="#191970" points="1256.338,-29.9536 1254.4692,-19.5249 1249.4267,-28.8428 1256.338,-29.9536"/>
</g>
<!-- Node17 -->
<g id="node19" class="node">
<title>Node17</title>
<polygon fill="none" stroke="#bfbfbf" points="1504,-56.5 1504,-75.5 1560,-75.5 1560,-56.5 1504,-56.5"/>
<text text-anchor="middle" x="1532" y="-63.5" font-family="FreeSans.ttf" font-size="10.00" fill="#000000">sstream</text>
</g>
<!-- Node18&#45;&gt;Node17 -->
<g id="edge20" class="edge">
<title>Node18&#45;&gt;Node17</title>
<path fill="none" stroke="#191970" d="M1288.2063,-112.4369C1346.4789,-101.3373 1441.2822,-83.2796 1493.8501,-73.2666"/>
<polygon fill="#191970" stroke="#191970" points="1494.6088,-76.6852 1503.7772,-71.3758 1493.2989,-69.8088 1494.6088,-76.6852"/>
</g>
<!-- Node15 -->
<g id="node20" class="node">
<title>Node15</title>
<polygon fill="none" stroke="#bfbfbf" points="1178,-56.5 1178,-75.5 1228,-75.5 1228,-56.5 1178,-56.5"/>
<text text-anchor="middle" x="1203" y="-63.5" font-family="FreeSans.ttf" font-size="10.00" fill="#000000">cstring</text>
</g>
<!-- Node18&#45;&gt;Node15 -->
<g id="edge22" class="edge">
<title>Node18&#45;&gt;Node15</title>
<path fill="none" stroke="#191970" d="M1231.9035,-112.2455C1227.0855,-104.5367 1220.2249,-93.5598 1214.3968,-84.2348"/>
<polygon fill="#191970" stroke="#191970" points="1217.2947,-82.2677 1209.0267,-75.6427 1211.3587,-85.9777 1217.2947,-82.2677"/>
</g>
<!-- Node12 -->
<g id="node12" class="node">
<title>Node12</title>
<polygon fill="none" stroke="#bfbfbf" points="1138.5,-.5 1138.5,-19.5 1191.5,-19.5 1191.5,-.5 1138.5,-.5"/>
<text text-anchor="middle" x="1165" y="-7.5" font-family="FreeSans.ttf" font-size="10.00" fill="#000000">cstddef</text>
</g>
<!-- Node11&#45;&gt;Node12 -->
<g id="edge11" class="edge">
<title>Node11&#45;&gt;Node12</title>
<path fill="none" stroke="#191970" d="M1077.4638,-56.2455C1094.1074,-47.4527 1118.7993,-34.4079 1137.7192,-24.4125"/>
<polygon fill="#191970" stroke="#191970" points="1139.5408,-27.4086 1146.7478,-19.6427 1136.2709,-21.2193 1139.5408,-27.4086"/>
</g>
<!-- Node13 -->
<g id="node13" class="node">
<title>Node13</title>
<polygon fill="none" stroke="#bfbfbf" points="1019,-.5 1019,-19.5 1099,-19.5 1099,-.5 1019,-.5"/>
<text text-anchor="middle" x="1059" y="-7.5" font-family="FreeSans.ttf" font-size="10.00" fill="#000000">CoreExport.h</text>
</g>
<!-- Node11&#45;&gt;Node13 -->
<g id="edge12" class="edge">
<title>Node11&#45;&gt;Node13</title>
<path fill="none" stroke="#191970" d="M1059,-56.2455C1059,-48.9382 1059,-38.6944 1059,-29.7046"/>
<polygon fill="#191970" stroke="#191970" points="1062.5001,-29.6426 1059,-19.6427 1055.5001,-29.6427 1062.5001,-29.6426"/>
</g>
<!-- Node19&#45;&gt;Node12 -->
<g id="edge16" class="edge">
<title>Node19&#45;&gt;Node12</title>
<path fill="none" stroke="#191970" d="M1315.7131,-56.3733C1284.0288,-46.6242 1235.0529,-31.5547 1201.5895,-21.2583"/>
<polygon fill="#191970" stroke="#191970" points="1202.3257,-17.823 1191.7386,-18.2273 1200.2671,-24.5134 1202.3257,-17.823"/>
</g>
<!-- Node19&#45;&gt;Node14 -->
<g id="edge14" class="edge">
<title>Node19&#45;&gt;Node14</title>
<path fill="none" stroke="#191970" d="M1331.149,-56.2455C1317.1868,-47.6534 1296.6272,-35.0014 1280.5404,-25.1018"/>
<polygon fill="#191970" stroke="#191970" points="1282.0203,-21.9029 1271.6693,-19.6427 1278.3516,-27.8645 1282.0203,-21.9029"/>
</g>
<!-- Node20 -->
<g id="node16" class="node">
<title>Node20</title>
<polygon fill="none" stroke="#bfbfbf" points="1398,-.5 1398,-19.5 1462,-19.5 1462,-.5 1398,-.5"/>
<text text-anchor="middle" x="1430" y="-7.5" font-family="FreeSans.ttf" font-size="10.00" fill="#000000">algorithm</text>
</g>
<!-- Node19&#45;&gt;Node20 -->
<g id="edge15" class="edge">
<title>Node19&#45;&gt;Node20</title>
<path fill="none" stroke="#191970" d="M1361.4575,-56.2455C1374.0732,-47.7337 1392.5944,-35.2375 1407.2045,-25.3801"/>
<polygon fill="#191970" stroke="#191970" points="1409.3761,-28.1371 1415.7082,-19.6427 1405.4609,-22.3343 1409.3761,-28.1371"/>
</g>
<!-- Node22 -->
<g id="node17" class="node">
<title>Node22</title>
<polygon fill="none" stroke="#bfbfbf" points="2062.5,-.5 2062.5,-19.5 2115.5,-19.5 2115.5,-.5 2062.5,-.5"/>
<text text-anchor="middle" x="2089" y="-7.5" font-family="FreeSans.ttf" font-size="10.00" fill="#000000">iterator</text>
</g>
<!-- Node19&#45;&gt;Node22 -->
<g id="edge17" class="edge">
<title>Node19&#45;&gt;Node22</title>
<path fill="none" stroke="#191970" d="M1407.721,-61.4173C1556.0543,-50.2223 1933.3959,-21.7437 2052.4387,-12.7593"/>
<polygon fill="#191970" stroke="#191970" points="2052.7897,-16.2429 2062.4979,-12.0002 2052.2629,-9.2628 2052.7897,-16.2429"/>
</g>
<!-- Node24 -->
<g id="node18" class="node">
<title>Node24</title>
<polygon fill="none" stroke="#bfbfbf" points="1813.5,-.5 1813.5,-19.5 1878.5,-19.5 1878.5,-.5 1813.5,-.5"/>
<text text-anchor="middle" x="1846" y="-7.5" font-family="FreeSans.ttf" font-size="10.00" fill="#000000">stdexcept</text>
</g>
<!-- Node19&#45;&gt;Node24 -->
<g id="edge18" class="edge">
<title>Node19&#45;&gt;Node24</title>
<path fill="none" stroke="#191970" d="M1407.6883,-59.1893C1510.1239,-47.6935 1714.8166,-24.722 1803.454,-14.7747"/>
<polygon fill="#191970" stroke="#191970" points="1803.8759,-18.2494 1813.4232,-13.6559 1803.0952,-11.2931 1803.8759,-18.2494"/>
</g>
<!-- Node28 -->
<g id="node22" class="node">
<title>Node28</title>
<g id="a_node22"><a xlink:href="SpatialMotionVector_8h.html" target="_top" xlink:title="iDynTree/Core/SpatialMotion\lVector.h">
<polygon fill="none" stroke="#000000" points="1162.5,-403.5 1162.5,-433.5 1317.5,-433.5 1317.5,-403.5 1162.5,-403.5"/>
<text text-anchor="start" x="1170.5" y="-421.5" font-family="FreeSans.ttf" font-size="10.00" fill="#000000">iDynTree/Core/SpatialMotion</text>
<text text-anchor="middle" x="1240" y="-410.5" font-family="FreeSans.ttf" font-size="10.00" fill="#000000">Vector.h</text>
</a>
</g>
</g>
<!-- Node27&#45;&gt;Node28 -->
<g id="edge24" class="edge">
<title>Node27&#45;&gt;Node28</title>
<path fill="none" stroke="#191970" d="M1023.8378,-475.9717C1062.7384,-465.6291 1125.7169,-448.8848 1173.6861,-436.1311"/>
<polygon fill="#191970" stroke="#191970" points="1174.609,-439.5074 1183.3739,-433.5553 1172.8103,-432.7424 1174.609,-439.5074"/>
</g>
<!-- Node28&#45;&gt;Node18 -->
<g id="edge25" class="edge">
<title>Node28&#45;&gt;Node18</title>
<path fill="none" stroke="#191970" d="M1240,-403.2899C1240,-380.892 1240,-337.7188 1240,-301 1240,-301 1240,-301 1240,-245 1240,-208.4946 1239.1084,-165.9028 1238.5158,-141.6269"/>
<polygon fill="#191970" stroke="#191970" points="1242.0132,-141.4766 1238.2615,-131.5683 1235.0154,-141.6536 1242.0132,-141.4766"/>
</g>
<!-- Node29 -->
<g id="node23" class="node">
<title>Node29</title>
<g id="a_node23"><a xlink:href="GeomVector3_8h.html" target="_top" xlink:title="iDynTree/Core/GeomVector3.h">
<polygon fill="none" stroke="#000000" points="1306.5,-174 1306.5,-193 1469.5,-193 1469.5,-174 1306.5,-174"/>
<text text-anchor="middle" x="1388" y="-181" font-family="FreeSans.ttf" font-size="10.00" fill="#000000">iDynTree/Core/GeomVector3.h</text>
</a>
</g>
</g>
<!-- Node28&#45;&gt;Node29 -->
<g id="edge26" class="edge">
<title>Node28&#45;&gt;Node29</title>
<path fill="none" stroke="#191970" d="M1249.4832,-403.4422C1275.517,-362.1048 1348.0383,-246.9528 1376.4105,-201.9023"/>
<polygon fill="#191970" stroke="#191970" points="1379.5395,-203.5016 1381.907,-193.1746 1373.6163,-199.7712 1379.5395,-203.5016"/>
</g>
<!-- Node30 -->
<g id="node24" class="node">
<title>Node30</title>
<g id="a_node24"><a xlink:href="SpatialVector_8h.html" target="_top" xlink:title="iDynTree/Core/SpatialVector.h">
<polygon fill="none" stroke="#000000" points="1306.5,-347.5 1306.5,-366.5 1467.5,-366.5 1467.5,-347.5 1306.5,-347.5"/>
<text text-anchor="middle" x="1387" y="-354.5" font-family="FreeSans.ttf" font-size="10.00" fill="#000000">iDynTree/Core/SpatialVector.h</text>
</a>
</g>
</g>
<!-- Node28&#45;&gt;Node30 -->
<g id="edge28" class="edge">
<title>Node28&#45;&gt;Node30</title>
<path fill="none" stroke="#191970" d="M1275.9602,-403.4554C1300.0573,-393.374 1331.513,-380.2139 1354.7903,-370.4755"/>
<polygon fill="#191970" stroke="#191970" points="1356.3459,-373.6187 1364.2202,-366.5303 1353.6442,-367.1611 1356.3459,-373.6187"/>
</g>
<!-- Node29&#45;&gt;Node18 -->
<g id="edge27" class="edge">
<title>Node29&#45;&gt;Node18</title>
<path fill="none" stroke="#191970" d="M1364.5625,-173.8906C1339.3547,-163.5554 1299.0847,-147.0447 1270.7523,-135.4284"/>
<polygon fill="#191970" stroke="#191970" points="1271.8532,-132.0971 1261.2729,-131.5419 1269.1977,-138.5739 1271.8532,-132.0971"/>
</g>
<!-- Node30&#45;&gt;Node11 -->
<g id="edge48" class="edge">
<title>Node30&#45;&gt;Node11</title>
<path fill="none" stroke="#191970" d="M1306.164,-349.0295C1191.887,-336.0653 991.4667,-306.5344 942,-255 897.153,-208.2783 921.3008,-154.6915 970,-112 985.6704,-98.2628 1006.1674,-87.3082 1023.5406,-79.5406"/>
<polygon fill="#191970" stroke="#191970" points="1025.0129,-82.7176 1032.8205,-75.5558 1022.2508,-76.2855 1025.0129,-82.7176"/>
</g>
<!-- Node30&#45;&gt;Node17 -->
<g id="edge51" class="edge">
<title>Node30&#45;&gt;Node17</title>
<path fill="none" stroke="#191970" d="M1393.3359,-347.2971C1409.06,-322.9815 1450.6452,-257.2153 1479,-199 1498.228,-159.5228 1516.1574,-111.1946 1525.4239,-85.0306"/>
<polygon fill="#191970" stroke="#191970" points="1528.7388,-86.1543 1528.7415,-75.5594 1522.1323,-83.8401 1528.7388,-86.1543"/>
</g>
<!-- Node30&#45;&gt;Node29 -->
<g id="edge49" class="edge">
<title>Node30&#45;&gt;Node29</title>
<path fill="none" stroke="#191970" d="M1387.0552,-347.4248C1387.2133,-319.999 1387.6701,-240.732 1387.8853,-203.3964"/>
<polygon fill="#191970" stroke="#191970" points="1391.386,-203.2796 1387.9437,-193.2595 1384.3861,-203.2392 1391.386,-203.2796"/>
</g>
<!-- Node31 -->
<g id="node25" class="node">
<title>Node31</title>
<g id="a_node25"><a xlink:href="Position_8h.html" target="_top" xlink:title="Position.h">
<polygon fill="none" stroke="#000000" points="499.5,-291.5 499.5,-310.5 564.5,-310.5 564.5,-291.5 499.5,-291.5"/>
<text text-anchor="middle" x="532" y="-298.5" font-family="FreeSans.ttf" font-size="10.00" fill="#000000">Position.h</text>
</a>
</g>
</g>
<!-- Node30&#45;&gt;Node31 -->
<g id="edge29" class="edge">
<title>Node30&#45;&gt;Node31</title>
<path fill="none" stroke="#191970" d="M1306.1786,-351.7064C1128.861,-340.0927 710.7307,-312.7063 575.2137,-303.8304"/>
<polygon fill="#191970" stroke="#191970" points="575.0434,-300.3118 564.836,-303.1507 574.5859,-307.2968 575.0434,-300.3118"/>
</g>
<!-- Node33 -->
<g id="node27" class="node">
<title>Node33</title>
<g id="a_node27"><a xlink:href="Rotation_8h.html" target="_top" xlink:title="iDynTree/Core/Rotation.h">
<polygon fill="none" stroke="#000000" points="950.5,-235.5 950.5,-254.5 1087.5,-254.5 1087.5,-235.5 950.5,-235.5"/>
<text text-anchor="middle" x="1019" y="-242.5" font-family="FreeSans.ttf" font-size="10.00" fill="#000000">iDynTree/Core/Rotation.h</text>
</a>
</g>
</g>
<!-- Node30&#45;&gt;Node33 -->
<g id="edge47" class="edge">
<title>Node30&#45;&gt;Node33</title>
<path fill="none" stroke="#191970" d="M1355.6245,-347.4509C1289.2222,-327.2415 1134.498,-280.1516 1060.2248,-257.5467"/>
<polygon fill="#191970" stroke="#191970" points="1060.8819,-254.0882 1050.2961,-254.5249 1058.8437,-260.7849 1060.8819,-254.0882"/>
</g>
<!-- Node30&#45;&gt;Node16 -->
<g id="edge50" class="edge">
<title>Node30&#45;&gt;Node16</title>
<path fill="none" stroke="#191970" d="M1401.9127,-347.4834C1468.2737,-305.1346 1737.0706,-133.5997 1819.1083,-81.2466"/>
<polygon fill="#191970" stroke="#191970" points="1821.1921,-84.0689 1827.739,-75.7389 1817.4264,-78.1681 1821.1921,-84.0689"/>
</g>
<!-- Node31&#45;&gt;Node4 -->
<g id="edge46" class="edge">
<title>Node31&#45;&gt;Node4</title>
<path fill="none" stroke="#191970" d="M519.4008,-291.403C499.1137,-275.0594 459.9705,-239.6205 445,-199 430.9567,-160.8954 436.2092,-112.3734 440.8729,-85.7325"/>
<polygon fill="#191970" stroke="#191970" points="444.3415,-86.2276 442.7776,-75.7489 437.4655,-84.9158 444.3415,-86.2276"/>
</g>
<!-- Node32 -->
<g id="node26" class="node">
<title>Node32</title>
<g id="a_node26"><a xlink:href="PositionRaw_8h.html" target="_top" xlink:title="iDynTree/Core/PositionRaw.h">
<polygon fill="none" stroke="#000000" points="454,-174 454,-193 610,-193 610,-174 454,-174"/>
<text text-anchor="middle" x="532" y="-181" font-family="FreeSans.ttf" font-size="10.00" fill="#000000">iDynTree/Core/PositionRaw.h</text>
</a>
</g>
</g>
<!-- Node31&#45;&gt;Node32 -->
<g id="edge30" class="edge">
<title>Node31&#45;&gt;Node32</title>
<path fill="none" stroke="#191970" d="M532,-291.3845C532,-272.1913 532,-228.786 532,-203.2663"/>
<polygon fill="#191970" stroke="#191970" points="535.5001,-203.2483 532,-193.2484 528.5001,-203.2484 535.5001,-203.2483"/>
</g>
<!-- Node31&#45;&gt;Node33 -->
<g id="edge33" class="edge">
<title>Node31&#45;&gt;Node33</title>
<path fill="none" stroke="#191970" d="M564.7096,-297.2387C640.8418,-288.4843 831.6572,-266.5425 940.2228,-254.0586"/>
<polygon fill="#191970" stroke="#191970" points="940.9311,-257.5003 950.4658,-252.8807 940.1314,-250.5461 940.9311,-257.5003"/>
</g>
<!-- Node32&#45;&gt;Node4 -->
<g id="edge32" class="edge">
<title>Node32&#45;&gt;Node4</title>
<path fill="none" stroke="#191970" d="M524.8804,-173.8845C510.3507,-154.261 477.0807,-109.3274 458.3848,-84.0772"/>
<polygon fill="#191970" stroke="#191970" points="460.9815,-81.7024 452.2179,-75.7484 455.3557,-85.8679 460.9815,-81.7024"/>
</g>
<!-- Node32&#45;&gt;Node18 -->
<g id="edge31" class="edge">
<title>Node32&#45;&gt;Node18</title>
<path fill="none" stroke="#191970" d="M610.2581,-177.2493C747.9701,-166.2043 1029.446,-143.4139 1147.2683,-132.1402"/>
<polygon fill="#191970" stroke="#191970" points="1147.8645,-135.599 1157.4806,-131.1516 1147.1899,-128.6316 1147.8645,-135.599"/>
</g>
<!-- Node33&#45;&gt;Node4 -->
<g id="edge34" class="edge">
<title>Node33&#45;&gt;Node4</title>
<path fill="none" stroke="#191970" d="M950.2139,-241.02C877.1156,-235.568 767.531,-223.5144 734,-199 699.0208,-173.4268 724.6494,-138.0183 690,-112 656.8503,-87.1078 536.1106,-73.7106 477.4404,-68.5441"/>
<polygon fill="#191970" stroke="#191970" points="477.5041,-65.0369 467.2428,-67.6742 476.9091,-72.0115 477.5041,-65.0369"/>
</g>
<!-- Node33&#45;&gt;Node18 -->
<g id="edge45" class="edge">
<title>Node33&#45;&gt;Node18</title>
<path fill="none" stroke="#191970" d="M1038.0279,-235.3989C1055.9502,-226.2745 1083.4838,-212.047 1107,-199 1144.3924,-178.2544 1186.9525,-152.9097 1213.1451,-137.1072"/>
<polygon fill="#191970" stroke="#191970" points="1215.2689,-139.9131 1222.0145,-131.7431 1211.6464,-133.9233 1215.2689,-139.9131"/>
</g>
<!-- Node33&#45;&gt;Node29 -->
<g id="edge35" class="edge">
<title>Node33&#45;&gt;Node29</title>
<path fill="none" stroke="#191970" d="M1076.2514,-235.4581C1142.3344,-224.4443 1250.8816,-206.3531 1320.8797,-194.6867"/>
<polygon fill="#191970" stroke="#191970" points="1321.6294,-198.1101 1330.9179,-193.0137 1320.4786,-191.2054 1321.6294,-198.1101"/>
</g>
<!-- Node34 -->
<g id="node28" class="node">
<title>Node34</title>
<g id="a_node28"><a xlink:href="RotationRaw_8h.html" target="_top" xlink:title="iDynTree/Core/RotationRaw.h">
<polygon fill="none" stroke="#000000" points="940,-174 940,-193 1098,-193 1098,-174 940,-174"/>
<text text-anchor="middle" x="1019" y="-181" font-family="FreeSans.ttf" font-size="10.00" fill="#000000">iDynTree/Core/RotationRaw.h</text>
</a>
</g>
</g>
<!-- Node33&#45;&gt;Node34 -->
<g id="edge36" class="edge">
<title>Node33&#45;&gt;Node34</title>
<path fill="none" stroke="#191970" d="M1019,-235.3906C1019,-226.8657 1019,-214.1392 1019,-203.4235"/>
<polygon fill="#191970" stroke="#191970" points="1022.5001,-203.2448 1019,-193.2449 1015.5001,-203.2449 1022.5001,-203.2448"/>
</g>
<!-- Node34&#45;&gt;Node4 -->
<g id="edge44" class="edge">
<title>Node34&#45;&gt;Node4</title>
<path fill="none" stroke="#191970" d="M988.6342,-173.9332C940.1136,-158.9378 841.9137,-129.7792 757,-112 655.8057,-90.812 534.1439,-75.8536 477.2668,-69.4627"/>
<polygon fill="#191970" stroke="#191970" points="477.4249,-65.9588 467.0999,-68.3344 476.6528,-72.9161 477.4249,-65.9588"/>
</g>
<!-- Node10 -->
<g id="node29" class="node">
<title>Node10</title>
<g id="a_node29"><a xlink:href="MatrixFixSize_8h.html" target="_top" xlink:title="iDynTree/Core/MatrixFixSize.h">
<polygon fill="none" stroke="#000000" points="978.5,-112.5 978.5,-131.5 1139.5,-131.5 1139.5,-112.5 978.5,-112.5"/>
<text text-anchor="middle" x="1059" y="-119.5" font-family="FreeSans.ttf" font-size="10.00" fill="#000000">iDynTree/Core/MatrixFixSize.h</text>
</a>
</g>
</g>
<!-- Node34&#45;&gt;Node10 -->
<g id="edge37" class="edge">
<title>Node34&#45;&gt;Node10</title>
<path fill="none" stroke="#191970" d="M1025.25,-173.8906C1031.0865,-164.917 1039.9509,-151.2879 1047.1306,-140.2491"/>
<polygon fill="#191970" stroke="#191970" points="1050.1436,-142.0361 1052.6619,-131.7449 1044.2755,-138.2194 1050.1436,-142.0361"/>
</g>
<!-- Node10&#45;&gt;Node4 -->
<g id="edge41" class="edge">
<title>Node10&#45;&gt;Node4</title>
<path fill="none" stroke="#191970" d="M978.4159,-113.4247C973.5388,-112.9345 968.7044,-112.4561 964,-112 779.8189,-94.1453 558.5905,-75.4528 477.1286,-68.6623"/>
<polygon fill="#191970" stroke="#191970" points="477.2733,-65.1623 467.0174,-67.8208 476.6927,-72.1382 477.2733,-65.1623"/>
</g>
<!-- Node10&#45;&gt;Node11 -->
<g id="edge38" class="edge">
<title>Node10&#45;&gt;Node11</title>
<path fill="none" stroke="#191970" d="M1059,-112.2455C1059,-104.9382 1059,-94.6944 1059,-85.7046"/>
<polygon fill="#191970" stroke="#191970" points="1062.5001,-85.6426 1059,-75.6427 1055.5001,-85.6427 1062.5001,-85.6426"/>
</g>
<!-- Node10&#45;&gt;Node14 -->
<g id="edge39" class="edge">
<title>Node10&#45;&gt;Node14</title>
<path fill="none" stroke="#191970" d="M1074.5096,-112.3324C1095.668,-99.2272 1134.8562,-75.2511 1169,-56 1188.5896,-44.9549 1211.0342,-33.1071 1228.2192,-24.202"/>
<polygon fill="#191970" stroke="#191970" points="1229.8922,-27.2772 1237.1738,-19.5812 1226.6822,-21.0566 1229.8922,-27.2772"/>
</g>
<!-- Node10&#45;&gt;Node17 -->
<g id="edge43" class="edge">
<title>Node10&#45;&gt;Node17</title>
<path fill="none" stroke="#191970" d="M1139.5059,-112.4686C1242.52,-100.2725 1416.8102,-79.6377 1493.6546,-70.5398"/>
<polygon fill="#191970" stroke="#191970" points="1494.3142,-73.9863 1503.8333,-69.3347 1493.4912,-67.0348 1494.3142,-73.9863"/>
</g>
<!-- Node10&#45;&gt;Node15 -->
<g id="edge40" class="edge">
<title>Node10&#45;&gt;Node15</title>
<path fill="none" stroke="#191970" d="M1083.7545,-112.3733C1107.2849,-103.2226 1142.8687,-89.3844 1169.0426,-79.2057"/>
<polygon fill="#191970" stroke="#191970" points="1170.5171,-82.3877 1178.5685,-75.5011 1167.9799,-75.8636 1170.5171,-82.3877"/>
</g>
<!-- Node10&#45;&gt;Node16 -->
<g id="edge42" class="edge">
<title>Node10&#45;&gt;Node16</title>
<path fill="none" stroke="#191970" d="M1139.9361,-112.8353C1142.9952,-112.5435 1146.0246,-112.2638 1149,-112 1397.2285,-89.9939 1696.2614,-73.5735 1802.8621,-68.0345"/>
<polygon fill="#191970" stroke="#191970" points="1803.0564,-71.5292 1812.8623,-67.5176 1802.6949,-64.5386 1803.0564,-71.5292"/>
</g>
<!-- Node36 -->
<g id="node32" class="node">
<title>Node36</title>
<g id="a_node32"><a xlink:href="SpatialForceVector_8h.html" target="_top" xlink:title="iDynTree/Core/SpatialForce\lVector.h">
<polygon fill="none" stroke="#000000" points="1379,-403.5 1379,-433.5 1527,-433.5 1527,-403.5 1379,-403.5"/>
<text text-anchor="start" x="1387" y="-421.5" font-family="FreeSans.ttf" font-size="10.00" fill="#000000">iDynTree/Core/SpatialForce</text>
<text text-anchor="middle" x="1453" y="-410.5" font-family="FreeSans.ttf" font-size="10.00" fill="#000000">Vector.h</text>
</a>
</g>
</g>
<!-- Node35&#45;&gt;Node36 -->
<g id="edge53" class="edge">
<title>Node35&#45;&gt;Node36</title>
<path fill="none" stroke="#191970" d="M1620.918,-475.9005C1591.1846,-465.7366 1543.534,-449.4479 1506.5757,-436.8141"/>
<polygon fill="#191970" stroke="#191970" points="1507.5388,-433.4446 1496.9443,-433.5218 1505.2746,-440.0683 1507.5388,-433.4446"/>
</g>
<!-- Node36&#45;&gt;Node18 -->
<g id="edge54" class="edge">
<title>Node36&#45;&gt;Node18</title>
<path fill="none" stroke="#191970" d="M1478.7525,-403.3903C1508.3818,-383.8442 1553,-346.8057 1553,-301 1553,-301 1553,-301 1553,-245 1553,-197.5359 1520.7233,-190.6276 1479,-168 1452.6743,-153.7229 1382.5576,-141.2515 1324.6994,-132.9096"/>
<polygon fill="#191970" stroke="#191970" points="1325.1844,-129.4434 1314.7918,-131.5038 1324.2009,-136.374 1325.1844,-129.4434"/>
</g>
<!-- Node36&#45;&gt;Node29 -->
<g id="edge55" class="edge">
<title>Node36&#45;&gt;Node29</title>
<path fill="none" stroke="#191970" d="M1463.4318,-403.3549C1472.0243,-389.0156 1482.0386,-366.7952 1477,-347 1462.3252,-289.3473 1422.7378,-230.0694 1401.6523,-201.3124"/>
<polygon fill="#191970" stroke="#191970" points="1404.2992,-199.0073 1395.5115,-193.0888 1398.6904,-203.1955 1404.2992,-199.0073"/>
</g>
<!-- Node36&#45;&gt;Node30 -->
<g id="edge56" class="edge">
<title>Node36&#45;&gt;Node30</title>
<path fill="none" stroke="#191970" d="M1436.6854,-403.2977C1427.0467,-394.3163 1414.8309,-382.9334 1404.9241,-373.702"/>
<polygon fill="#191970" stroke="#191970" points="1407.2696,-371.1036 1397.5674,-366.8469 1402.4975,-376.2249 1407.2696,-371.1036"/>
</g>
<!-- Node37&#45;&gt;Node28 -->
<g id="edge58" class="edge">
<title>Node37&#45;&gt;Node28</title>
<path fill="none" stroke="#191970" d="M1155.1843,-475.9005C1169.2441,-466.3853 1191.2354,-451.5023 1209.3019,-439.2755"/>
<polygon fill="#191970" stroke="#191970" points="1211.4836,-442.0252 1217.8037,-433.5218 1207.5603,-436.228 1211.4836,-442.0252"/>
</g>
<!-- Node38&#45;&gt;Node36 -->
<g id="edge60" class="edge">
<title>Node38&#45;&gt;Node36</title>
<path fill="none" stroke="#191970" d="M1321.9212,-475.9005C1344.6376,-465.9528 1380.7515,-450.1382 1409.3255,-437.6254"/>
<polygon fill="#191970" stroke="#191970" points="1410.9403,-440.7392 1418.6966,-433.5218 1408.1324,-434.3271 1410.9403,-440.7392"/>
</g>
<!-- Node39&#45;&gt;Node4 -->
<g id="edge66" class="edge">
<title>Node39&#45;&gt;Node4</title>
<path fill="none" stroke="#191970" d="M498.9635,-347.4779C456.4498,-332.958 388,-300.9003 388,-245 388,-245 388,-245 388,-183.5 388,-144.841 413.2862,-105.5543 430.175,-83.6259"/>
<polygon fill="#191970" stroke="#191970" points="433.0817,-85.595 436.5895,-75.5977 427.6129,-81.2255 433.0817,-85.595"/>
</g>
<!-- Node39&#45;&gt;Node31 -->
<g id="edge63" class="edge">
<title>Node39&#45;&gt;Node31</title>
<path fill="none" stroke="#191970" d="M532,-347.2455C532,-339.9382 532,-329.6944 532,-320.7046"/>
<polygon fill="#191970" stroke="#191970" points="535.5001,-320.6426 532,-310.6427 528.5001,-320.6427 535.5001,-320.6426"/>
</g>
<!-- Node39&#45;&gt;Node33 -->
<g id="edge64" class="edge">
<title>Node39&#45;&gt;Node33</title>
<path fill="none" stroke="#191970" d="M551.9217,-347.4216C582.8744,-332.9455 644.7147,-305.6345 700,-291 780.3548,-269.7294 874.8691,-257.6552 940.052,-251.2668"/>
<polygon fill="#191970" stroke="#191970" points="940.6342,-254.7272 950.255,-250.2898 939.9669,-247.7591 940.6342,-254.7272"/>
</g>
<!-- Node39&#45;&gt;Node10 -->
<g id="edge65" class="edge">
<title>Node39&#45;&gt;Node10</title>
<path fill="none" stroke="#191970" d="M565.1512,-347.4511C595.8524,-338.4778 642.709,-324.4521 683,-311 707.6717,-302.7628 712.6415,-296.7868 738,-291 816.1684,-273.162 1038.1719,-309.4771 1097,-255 1125.5573,-228.5549 1122.2762,-203.7981 1107,-168 1101.8844,-156.0122 1091.9425,-145.6498 1082.4273,-137.8114"/>
<polygon fill="#191970" stroke="#191970" points="1084.3754,-134.8949 1074.3074,-131.5954 1080.1203,-140.4532 1084.3754,-134.8949"/>
</g>
<!-- Node40&#45;&gt;Node4 -->
<g id="edge70" class="edge">
<title>Node40&#45;&gt;Node4</title>
<path fill="none" stroke="#191970" d="M739.752,-475.99C711.17,-450.6931 638,-378.3768 638,-301 638,-301 638,-301 638,-183.5 638,-109.0569 531.9452,-80.4142 477.0697,-70.5764"/>
<polygon fill="#191970" stroke="#191970" points="477.5824,-67.1135 467.1396,-68.9014 476.4181,-74.016 477.5824,-67.1135"/>
</g>
<!-- Node40&#45;&gt;Node39 -->
<g id="edge72" class="edge">
<title>Node40&#45;&gt;Node39</title>
<path fill="none" stroke="#191970" d="M734.5394,-475.8416C696.5561,-453.5546 602.577,-398.4116 557.2492,-371.8152"/>
<polygon fill="#191970" stroke="#191970" points="558.7491,-368.6372 548.3529,-366.5952 555.2065,-374.6747 558.7491,-368.6372"/>
</g>
<!-- Node40&#45;&gt;Node41 -->
<g id="edge69" class="edge">
<title>Node40&#45;&gt;Node41</title>
<path fill="none" stroke="#191970" d="M832.9057,-477.124C859.9749,-474.5625 890.2589,-471.9184 918,-470 1093.319,-457.8761 1537.3969,-476.1702 1708,-434 1710.1967,-433.457 1712.4235,-432.7634 1714.629,-431.9718"/>
<polygon fill="#191970" stroke="#191970" points="1716.1371,-435.1347 1724.0037,-428.0377 1713.4283,-428.68 1716.1371,-435.1347"/>
</g>
<!-- Node40&#45;&gt;Node42 -->
<g id="edge71" class="edge">
<title>Node40&#45;&gt;Node42</title>
<path fill="none" stroke="#191970" d="M826.3955,-475.9767C845.4929,-473.7853 865.9827,-471.6242 885,-470 1173.7242,-445.3405 1247.2257,-458.0664 1536,-434 1572.0469,-430.9959 1613.2097,-426.2394 1641.3283,-422.7873"/>
<polygon fill="#191970" stroke="#191970" points="1641.9354,-426.2389 1651.4285,-421.5344 1641.0736,-419.2921 1641.9354,-426.2389"/>
</g>
<!-- Node43&#45;&gt;Node1 -->
<g id="edge76" class="edge">
<title>Node43&#45;&gt;Node1</title>
<path fill="none" stroke="#191970" d="M649.6821,-761.4509C650.9869,-743.184 653.8603,-702.9553 655.593,-678.6976"/>
<polygon fill="#191970" stroke="#191970" points="659.0982,-678.7489 656.3197,-668.5249 652.116,-678.2501 659.0982,-678.7489"/>
</g>
<!-- Node43&#45;&gt;Node4 -->
<g id="edge88" class="edge">
<title>Node43&#45;&gt;Node4</title>
<path fill="none" stroke="#191970" d="M560.7975,-766.5676C383.3489,-755.2328 0,-717.4961 0,-603 0,-603 0,-603 0,-183.5 0,-98.0302 310.7565,-73.3543 412.8954,-67.5521"/>
<polygon fill="#191970" stroke="#191970" points="413.1377,-71.0442 422.9324,-67.0052 412.7567,-64.0546 413.1377,-71.0442"/>
</g>
<!-- Node43&#45;&gt;Node42 -->
<g id="edge89" class="edge">
<title>Node43&#45;&gt;Node42</title>
<path fill="none" stroke="#191970" d="M737.0007,-767.8711C1025.1491,-757.0517 1922,-718.5904 1922,-659 1922,-659 1922,-659 1922,-547 1922,-439.4435 1808.5467,-472.1938 1708,-434 1706.4135,-433.3973 1704.7973,-432.7509 1703.175,-432.0764"/>
<polygon fill="#191970" stroke="#191970" points="1704.5439,-428.8549 1693.9822,-428.0172 1701.7163,-435.2584 1704.5439,-428.8549"/>
</g>
<!-- Node44 -->
<g id="node40" class="node">
<title>Node44</title>
<g id="a_node40"><a xlink:href="Sensors_8h.html" target="_top" xlink:title="iDynTree/Sensors/Sensors.h">
<polygon fill="none" stroke="#000000" points="793.5,-705.5 793.5,-724.5 944.5,-724.5 944.5,-705.5 793.5,-705.5"/>
<text text-anchor="middle" x="869" y="-712.5" font-family="FreeSans.ttf" font-size="10.00" fill="#000000">iDynTree/Sensors/Sensors.h</text>
</a>
</g>
</g>
<!-- Node43&#45;&gt;Node44 -->
<g id="edge77" class="edge">
<title>Node43&#45;&gt;Node44</title>
<path fill="none" stroke="#191970" d="M686.8193,-761.3733C724.1938,-751.8598 781.4724,-737.2797 821.8071,-727.0127"/>
<polygon fill="#191970" stroke="#191970" points="822.8466,-730.3598 831.6742,-724.5011 821.1198,-723.5761 822.8466,-730.3598"/>
</g>
<!-- Node46 -->
<g id="node42" class="node">
<title>Node46</title>
<polygon fill="none" stroke="#bfbfbf" points="571,-705.5 571,-724.5 629,-724.5 629,-705.5 571,-705.5"/>
<text text-anchor="middle" x="600" y="-712.5" font-family="FreeSans.ttf" font-size="10.00" fill="#000000">memory</text>
</g>
<!-- Node43&#45;&gt;Node46 -->
<g id="edge87" class="edge">
<title>Node43&#45;&gt;Node46</title>
<path fill="none" stroke="#191970" d="M640.4649,-761.2455C633.5088,-753.2958 623.5117,-741.8706 615.1949,-732.3656"/>
<polygon fill="#191970" stroke="#191970" points="617.6564,-729.8637 608.4373,-724.6427 612.3884,-734.4732 617.6564,-729.8637"/>
</g>
<!-- Node44&#45;&gt;Node1 -->
<g id="edge85" class="edge">
<title>Node44&#45;&gt;Node1</title>
<path fill="none" stroke="#191970" d="M832.5559,-705.3733C796.6931,-695.9001 741.8122,-681.4032 702.9718,-671.1435"/>
<polygon fill="#191970" stroke="#191970" points="703.5308,-667.6712 692.9685,-668.5011 701.743,-674.439 703.5308,-667.6712"/>
</g>
<!-- Node44&#45;&gt;Node3 -->
<g id="edge86" class="edge">
<title>Node44&#45;&gt;Node3</title>
<path fill="none" stroke="#191970" d="M793.2829,-710.0654C614.1391,-697.6221 176.024,-662.3978 133,-613 100.108,-575.2352 161.6306,-525.5374 198.377,-500.8252"/>
<polygon fill="#191970" stroke="#191970" points="200.6654,-503.5104 207.113,-495.1033 196.8299,-497.6546 200.6654,-503.5104"/>
</g>
<!-- Node44&#45;&gt;Node4 -->
<g id="edge79" class="edge">
<title>Node44&#45;&gt;Node4</title>
<path fill="none" stroke="#191970" d="M793.291,-710.8905C636.6493,-702.1881 287.1214,-681.6625 234,-669 159.9715,-651.3539 76,-679.1026 76,-603 76,-603 76,-603 76,-183.5 76,-140.5536 103.1389,-132.2715 141,-112 187.6784,-87.0076 344.5757,-73.1258 412.8315,-68.1433"/>
<polygon fill="#191970" stroke="#191970" points="413.2685,-71.6212 422.9947,-67.4198 412.7713,-64.6389 413.2685,-71.6212"/>
</g>
<!-- Node44&#45;&gt;Node22 -->
<g id="edge81" class="edge">
<title>Node44&#45;&gt;Node22</title>
<path fill="none" stroke="#191970" d="M944.6314,-712.9683C1149.2807,-707.221 1703.9245,-689.9006 1784,-669 1961.6071,-622.6426 2154,-669.0573 2154,-485.5 2154,-485.5 2154,-485.5 2154,-357 2154,-278.061 2192,-262.439 2192,-183.5 2192,-183.5 2192,-183.5 2192,-122 2192,-77.4711 2147.3441,-43.0241 2116.8393,-24.6879"/>
<polygon fill="#191970" stroke="#191970" points="2118.3019,-21.4909 2107.8918,-19.5213 2114.8015,-27.5529 2118.3019,-21.4909"/>
</g>
<!-- Node44&#45;&gt;Node29 -->
<g id="edge78" class="edge">
<title>Node44&#45;&gt;Node29</title>
<path fill="none" stroke="#191970" d="M944.6389,-714.5917C1127.0411,-713.0278 1587.03,-705.4749 1736,-669 1849.0878,-641.3107 1902.1304,-612.084 1937,-501 1941.1264,-487.8546 1945.3196,-480.9823 1937,-470 1901.3152,-422.8944 1860.6701,-462.6802 1809,-434 1791.1204,-424.0757 1791.5523,-415.008 1775,-403 1650.1554,-312.4304 1484.618,-229.6058 1417.8237,-197.5464"/>
<polygon fill="#191970" stroke="#191970" points="1419.234,-194.3412 1408.7019,-193.1898 1416.2171,-200.6578 1419.234,-194.3412"/>
</g>
<!-- Node44&#45;&gt;Node42 -->
<g id="edge80" class="edge">
<title>Node44&#45;&gt;Node42</title>
<path fill="none" stroke="#191970" d="M944.8506,-714.2424C1174.401,-710.9543 1846,-693.593 1846,-603 1846,-603 1846,-603 1846,-547 1846,-507.3621 1831.1726,-495.7055 1801,-470 1767.2617,-441.2567 1748.7501,-451.4321 1708,-434 1706.6542,-433.4243 1705.2823,-432.8261 1703.9,-432.2143"/>
<polygon fill="#191970" stroke="#191970" points="1705.3437,-429.0259 1694.7921,-428.07 1702.4445,-435.3974 1705.3437,-429.0259"/>
</g>
<!-- Node45 -->
<g id="node41" class="node">
<title>Node45</title>
<g id="a_node41"><a xlink:href="VectorDynSize_8h.html" target="_top" xlink:title="iDynTree/Core/VectorDynSize.h">
<polygon fill="none" stroke="#000000" points="779.5,-291.5 779.5,-310.5 946.5,-310.5 946.5,-291.5 779.5,-291.5"/>
<text text-anchor="middle" x="863" y="-298.5" font-family="FreeSans.ttf" font-size="10.00" fill="#000000">iDynTree/Core/VectorDynSize.h</text>
</a>
</g>
</g>
<!-- Node44&#45;&gt;Node45 -->
<g id="edge82" class="edge">
<title>Node44&#45;&gt;Node45</title>
<path fill="none" stroke="#191970" d="M867.8538,-705.4281C865.6417,-686.0998 861,-641.0133 861,-603 861,-603 861,-603 861,-418.5 861,-384.1349 861.8658,-344.1246 862.4581,-320.7746"/>
<polygon fill="#191970" stroke="#191970" points="865.9576,-320.8366 862.7219,-310.748 858.96,-320.6524 865.9576,-320.8366"/>
</g>
<!-- Node45&#45;&gt;Node4 -->
<g id="edge84" class="edge">
<title>Node45&#45;&gt;Node4</title>
<path fill="none" stroke="#191970" d="M779.3851,-293.9808C611.3871,-279.0298 245.7131,-241.8828 209,-199 146.4859,-125.9802 334.2235,-84.7795 412.4658,-71.1343"/>
<polygon fill="#191970" stroke="#191970" points="413.4682,-74.5144 422.742,-69.3914 412.2975,-67.613 413.4682,-74.5144"/>
</g>
<!-- Node45&#45;&gt;Node19 -->
<g id="edge83" class="edge">
<title>Node45&#45;&gt;Node19</title>
<path fill="none" stroke="#191970" d="M946.5335,-293.7425C1024.9522,-286.0295 1136.0089,-272.5302 1176,-255 1215.7961,-237.5553 1303.9922,-168.217 1328,-132 1337.2531,-118.0412 1342.0721,-99.5325 1344.5372,-85.6682"/>
<polygon fill="#191970" stroke="#191970" points="1348.0066,-86.1332 1346.0492,-75.7207 1341.0861,-85.0812 1348.0066,-86.1332"/>
</g>
<!-- Node47&#45;&gt;Node4 -->
<g id="edge91" class="edge">
<title>Node47&#45;&gt;Node4</title>
<path fill="none" stroke="#191970" d="M341.6931,-593.4826C264.6187,-575.6375 114,-534.4966 114,-485.5 114,-485.5 114,-485.5 114,-183.5 114,-139.9507 142.682,-132.6947 181,-112 220.5821,-90.6226 351.0175,-75.2926 412.4524,-69.0726"/>
<polygon fill="#191970" stroke="#191970" points="413.1323,-72.5224 422.7375,-68.0514 412.4406,-65.5567 413.1323,-72.5224"/>
</g>
<!-- Node47&#45;&gt;Node31 -->
<g id="edge96" class="edge">
<title>Node47&#45;&gt;Node31</title>
<path fill="none" stroke="#191970" d="M382.1067,-593.4356C374.4131,-573.643 358,-526.6022 358,-485.5 358,-485.5 358,-485.5 358,-418.5 358,-355.2803 437.8648,-323.7904 489.3791,-310.0544"/>
<polygon fill="#191970" stroke="#191970" points="490.4424,-313.3955 499.2719,-307.5398 488.7179,-306.6113 490.4424,-313.3955"/>
</g>
<!-- Node48 -->
<g id="node44" class="node">
<title>Node48</title>
<g id="a_node44"><a xlink:href="Direction_8h.html" target="_top" xlink:title="iDynTree/Core/Direction.h">
<polygon fill="none" stroke="#000000" points="742.5,-174 742.5,-193 883.5,-193 883.5,-174 742.5,-174"/>
<text text-anchor="middle" x="813" y="-181" font-family="FreeSans.ttf" font-size="10.00" fill="#000000">iDynTree/Core/Direction.h</text>
</a>
</g>
</g>
<!-- Node47&#45;&gt;Node48 -->
<g id="edge92" class="edge">
<title>Node47&#45;&gt;Node48</title>
<path fill="none" stroke="#191970" d="M375.976,-593.3586C357.5127,-574.5095 320,-530.6564 320,-485.5 320,-485.5 320,-485.5 320,-418.5 320,-320.7424 639.8582,-228.0007 764.2952,-195.6195"/>
<polygon fill="#191970" stroke="#191970" points="765.5074,-198.9214 774.3151,-193.0329 763.7577,-192.1436 765.5074,-198.9214"/>
</g>
<!-- Node49 -->
<g id="node45" class="node">
<title>Node49</title>
<g id="a_node45"><a xlink:href="JointState_8h.html" target="_top" xlink:title="iDynTree/Model/JointState.h">
<polygon fill="none" stroke="#000000" points="500.5,-476 500.5,-495 651.5,-495 651.5,-476 500.5,-476"/>
<text text-anchor="middle" x="576" y="-483" font-family="FreeSans.ttf" font-size="10.00" fill="#000000">iDynTree/Model/JointState.h</text>
</a>
</g>
</g>
<!-- Node47&#45;&gt;Node49 -->
<g id="edge97" class="edge">
<title>Node47&#45;&gt;Node49</title>
<path fill="none" stroke="#191970" d="M401.5485,-593.3845C434.6147,-572.9356 512.1229,-525.0029 551.7463,-500.499"/>
<polygon fill="#191970" stroke="#191970" points="553.839,-503.3201 560.5031,-495.0836 550.1572,-497.3666 553.839,-503.3201"/>
</g>
<!-- Node50 -->
<g id="node46" class="node">
<title>Node50</title>
<g id="a_node46"><a xlink:href="LinkState_8h.html" target="_top" xlink:title="iDynTree/Model/LinkState.h">
<polygon fill="none" stroke="#000000" points="684.5,-537.5 684.5,-556.5 833.5,-556.5 833.5,-537.5 684.5,-537.5"/>
<text text-anchor="middle" x="759" y="-544.5" font-family="FreeSans.ttf" font-size="10.00" fill="#000000">iDynTree/Model/LinkState.h</text>
</a>
</g>
</g>
<!-- Node47&#45;&gt;Node50 -->
<g id="edge102" class="edge">
<title>Node47&#45;&gt;Node50</title>
<path fill="none" stroke="#191970" d="M445.5154,-594.0647C510.6982,-584.2786 615.2928,-568.5753 685.5362,-558.0294"/>
<polygon fill="#191970" stroke="#191970" points="686.2724,-561.4582 695.6419,-556.5122 685.2331,-554.5358 686.2724,-561.4582"/>
</g>
<!-- Node48&#45;&gt;Node4 -->
<g id="edge93" class="edge">
<title>Node48&#45;&gt;Node4</title>
<path fill="none" stroke="#191970" d="M804.9465,-173.9952C791.0218,-158.259 760.7739,-127.0404 728,-112 683.7526,-91.6942 541.8939,-75.5626 477.428,-69.0818"/>
<polygon fill="#191970" stroke="#191970" points="477.7075,-65.5924 467.4113,-68.0901 477.0178,-72.5584 477.7075,-65.5924"/>
</g>
<!-- Node48&#45;&gt;Node18 -->
<g id="edge94" class="edge">
<title>Node48&#45;&gt;Node18</title>
<path fill="none" stroke="#191970" d="M878.9399,-173.9581C955.5197,-162.8766 1081.6113,-144.6304 1162.1752,-132.9723"/>
<polygon fill="#191970" stroke="#191970" points="1162.8594,-136.4098 1172.2551,-131.5137 1161.8569,-129.482 1162.8594,-136.4098"/>
</g>
<!-- Node48&#45;&gt;Node11 -->
<g id="edge95" class="edge">
<title>Node48&#45;&gt;Node11</title>
<path fill="none" stroke="#191970" d="M821.955,-173.668C836.4678,-158.3093 866.6737,-128.6618 898,-112 927.9764,-96.0562 964.1126,-85.0857 994.5484,-77.8692"/>
<polygon fill="#191970" stroke="#191970" points="995.6656,-81.2042 1004.6344,-75.5641 994.1059,-74.3802 995.6656,-81.2042"/>
</g>
<!-- Node49&#45;&gt;Node18 -->
<g id="edge98" class="edge">
<title>Node49&#45;&gt;Node18</title>
<path fill="none" stroke="#191970" d="M581.9364,-475.9303C602.9154,-443.0866 677.3636,-334.5818 771,-291 911.5699,-225.5737 979.7663,-325.2278 1118,-255 1169.5651,-228.803 1209.5403,-170.4766 1227.5511,-140.5287"/>
<polygon fill="#191970" stroke="#191970" points="1230.7761,-141.9472 1232.802,-131.5478 1224.7331,-138.414 1230.7761,-141.9472"/>
</g>
<!-- Node49&#45;&gt;Node36 -->
<g id="edge100" class="edge">
<title>Node49&#45;&gt;Node36</title>
<path fill="none" stroke="#191970" d="M622.1606,-475.9871C634.7125,-473.7003 648.3372,-471.4907 661,-470 955.399,-435.3417 1031.7202,-460.1118 1327,-434 1340.5147,-432.8049 1354.8155,-431.2883 1368.7428,-429.6739"/>
<polygon fill="#191970" stroke="#191970" points="1369.2818,-433.1346 1378.8015,-428.4843 1368.4596,-426.1831 1369.2818,-433.1346"/>
</g>
<!-- Node49&#45;&gt;Node42 -->
<g id="edge101" class="edge">
<title>Node49&#45;&gt;Node42</title>
<path fill="none" stroke="#191970" d="M621.7056,-475.9586C634.3792,-473.6428 648.1788,-471.4257 661,-470 1047.8335,-426.984 1147.9082,-463.5854 1536,-434 1572.0672,-431.2505 1613.2267,-426.4523 1641.3389,-422.9208"/>
<polygon fill="#191970" stroke="#191970" points="1641.9582,-426.3703 1651.4366,-421.6362 1641.0748,-419.4263 1641.9582,-426.3703"/>
</g>
<!-- Node49&#45;&gt;Node45 -->
<g id="edge99" class="edge">
<title>Node49&#45;&gt;Node45</title>
<path fill="none" stroke="#191970" d="M591.0263,-475.8402C638.0057,-445.6392 782.37,-352.8336 839.4355,-316.1486"/>
<polygon fill="#191970" stroke="#191970" points="841.6033,-318.9159 848.1225,-310.5641 837.818,-313.0276 841.6033,-318.9159"/>
</g>
<!-- Node50&#45;&gt;Node3 -->
<g id="edge110" class="edge">
<title>Node50&#45;&gt;Node3</title>
<path fill="none" stroke="#191970" d="M684.4715,-538.4487C583.8362,-526.9019 405.2682,-506.4132 302.257,-494.5939"/>
<polygon fill="#191970" stroke="#191970" points="302.5572,-491.1054 292.2233,-493.4426 301.7592,-498.0598 302.5572,-491.1054"/>
</g>
<!-- Node50&#45;&gt;Node27 -->
<g id="edge104" class="edge">
<title>Node50&#45;&gt;Node27</title>
<path fill="none" stroke="#191970" d="M794.7813,-537.3906C834.6936,-526.6718 899.3397,-509.3105 942.7372,-497.6557"/>
<polygon fill="#191970" stroke="#191970" points="943.72,-501.0159 952.47,-495.0419 941.9044,-494.2554 943.72,-501.0159"/>
</g>
<!-- Node50&#45;&gt;Node37 -->
<g id="edge105" class="edge">
<title>Node50&#45;&gt;Node37</title>
<path fill="none" stroke="#191970" d="M825.0119,-537.4632C885.6629,-528.554 978.007,-514.619 1058,-501 1065.6206,-499.7026 1073.6236,-498.282 1081.528,-496.844"/>
<polygon fill="#191970" stroke="#191970" points="1082.2483,-500.2703 1091.4514,-495.0212 1080.9836,-493.3855 1082.2483,-500.2703"/>
</g>
<!-- Node50&#45;&gt;Node38 -->
<g id="edge106" class="edge">
<title>Node50&#45;&gt;Node38</title>
<path fill="none" stroke="#191970" d="M833.788,-541.9758C925.9109,-535.2414 1087.0354,-521.6856 1224,-501 1231.4991,-499.8674 1239.377,-498.483 1247.1041,-497.0123"/>
<polygon fill="#191970" stroke="#191970" points="1247.9927,-500.4047 1257.1307,-495.0432 1246.6437,-493.5359 1247.9927,-500.4047"/>
</g>
<!-- Node50&#45;&gt;Node39 -->
<g id="edge103" class="edge">
<title>Node50&#45;&gt;Node39</title>
<path fill="none" stroke="#191970" d="M684.4659,-539.0822C609.8616,-530.3894 504.3874,-515.704 492,-501 460.7913,-463.9547 496.3725,-404.3602 517.9276,-374.8053"/>
<polygon fill="#191970" stroke="#191970" points="520.8476,-376.7462 524.0774,-366.6557 515.26,-372.5297 520.8476,-376.7462"/>
</g>
<!-- Node50&#45;&gt;Node42 -->
<g id="edge111" class="edge">
<title>Node50&#45;&gt;Node42</title>
<path fill="none" stroke="#191970" d="M776.5822,-537.3962C811.5583,-518.4748 888.9857,-477.5505 918,-470 1184.264,-400.7087 1261.8522,-457.2537 1536,-434 1572.0424,-430.9428 1613.206,-426.1951 1641.3259,-422.7595"/>
<polygon fill="#191970" stroke="#191970" points="1641.9305,-426.2115 1651.4267,-421.5132 1641.0733,-419.2642 1641.9305,-426.2115"/>
</g>
<!-- Node51 -->
<g id="node47" class="node">
<title>Node51</title>
<g id="a_node47"><a xlink:href="ArticulatedBodyInertia_8h.html" target="_top" xlink:title="iDynTree/Core/Articulated\lBodyInertia.h">
<polygon fill="none" stroke="#000000" points="218.5,-168.5 218.5,-198.5 359.5,-198.5 359.5,-168.5 218.5,-168.5"/>
<text text-anchor="start" x="226.5" y="-186.5" font-family="FreeSans.ttf" font-size="10.00" fill="#000000">iDynTree/Core/Articulated</text>
<text text-anchor="middle" x="289" y="-175.5" font-family="FreeSans.ttf" font-size="10.00" fill="#000000">BodyInertia.h</text>
</a>
</g>
</g>
<!-- Node50&#45;&gt;Node51 -->
<g id="edge107" class="edge">
<title>Node50&#45;&gt;Node51</title>
<path fill="none" stroke="#191970" d="M684.3363,-542.0141C612.1602,-535.9437 509.024,-523.5846 476,-501 368.403,-427.416 313.6176,-269.8192 295.7402,-208.5704"/>
<polygon fill="#191970" stroke="#191970" points="299.0133,-207.2834 292.9158,-198.619 292.2792,-209.1947 299.0133,-207.2834"/>
</g>
<!-- Node51&#45;&gt;Node4 -->
<g id="edge109" class="edge">
<title>Node51&#45;&gt;Node4</title>
<path fill="none" stroke="#191970" d="M305.7473,-168.3393C322.5339,-153.4038 349.3544,-130.2396 374,-112 389.011,-100.8907 406.6255,-89.4693 420.5543,-80.7863"/>
<polygon fill="#191970" stroke="#191970" points="422.4385,-83.7364 429.1109,-75.5066 418.7626,-77.7792 422.4385,-83.7364"/>
</g>
<!-- Node51&#45;&gt;Node10 -->
<g id="edge108" class="edge">
<title>Node51&#45;&gt;Node10</title>
<path fill="none" stroke="#191970" d="M359.6346,-176.1157C386.3647,-173.4176 417.0726,-170.4332 445,-168 630.7406,-151.8172 848.3979,-136.3328 968.2626,-128.1071"/>
<polygon fill="#191970" stroke="#191970" points="968.7534,-131.5818 978.4908,-127.4065 968.2749,-124.5981 968.7534,-131.5818"/>
</g>
<!-- Node52&#45;&gt;Node4 -->
<g id="edge117" class="edge">
<title>Node52&#45;&gt;Node4</title>
<path fill="none" stroke="#191970" d="M2026.2894,-483.8899C1866.5178,-475.9945 1174.9824,-441.4498 1154,-434 1051.7053,-397.6805 1051.692,-342.2479 956,-291 853.0987,-235.8911 808.8742,-261.0449 710,-199 662.6046,-169.2588 667.8147,-139.3493 619,-112 573.5972,-86.5623 513.6191,-74.753 477.2509,-69.6063"/>
<polygon fill="#191970" stroke="#191970" points="477.5821,-66.1196 467.2078,-68.2702 476.6589,-73.0585 477.5821,-66.1196"/>
</g>
<!-- Node52&#45;&gt;Node20 -->
<g id="edge121" class="edge">
<title>Node52&#45;&gt;Node20</title>
<path fill="none" stroke="#191970" d="M2061.4064,-475.8999C2066.519,-454.6324 2078,-401.8776 2078,-357 2078,-357 2078,-357 2078,-122 2078,-60.3229 1616.2854,-22.9679 1472.3325,-12.8202"/>
<polygon fill="#191970" stroke="#191970" points="1472.3536,-9.3133 1462.1344,-12.1095 1471.8669,-16.2963 1472.3536,-9.3133"/>
</g>
<!-- Node52&#45;&gt;Node24 -->
<g id="edge118" class="edge">
<title>Node52&#45;&gt;Node24</title>
<path fill="none" stroke="#191970" d="M2066.6873,-475.8311C2082.2458,-455.2561 2116,-405.0785 2116,-357 2116,-357 2116,-357 2116,-301 2116,-191.5899 2165.9187,-136.6635 2092,-56 2065.2364,-26.7943 1951.7871,-15.856 1888.7235,-11.9794"/>
<polygon fill="#191970" stroke="#191970" points="1888.8696,-8.4821 1878.6833,-11.3957 1888.4633,-15.4703 1888.8696,-8.4821"/>
</g>
<!-- Node52&#45;&gt;Node17 -->
<g id="edge114" class="edge">
<title>Node52&#45;&gt;Node17</title>
<path fill="none" stroke="#191970" d="M2051.3127,-475.8311C2035.7542,-455.2561 2002,-405.0785 2002,-357 2002,-357 2002,-357 2002,-183.5 2002,-94.7885 1682.8773,-72.4938 1570.5494,-67.3941"/>
<polygon fill="#191970" stroke="#191970" points="1570.4841,-63.888 1560.3422,-66.9526 1570.1815,-70.8815 1570.4841,-63.888"/>
</g>
<!-- Node52&#45;&gt;Node15 -->
<g id="edge120" class="edge">
<title>Node52&#45;&gt;Node15</title>
<path fill="none" stroke="#191970" d="M2031.3034,-475.8636C2024.9941,-473.8089 2018.2946,-471.7371 2012,-470 1941.3196,-450.4942 1915.9695,-467.9877 1851,-434 1812.3295,-413.7702 1600.08,-189.3206 1562,-168 1453.0616,-107.0066 1304.7247,-80.0438 1238.0199,-70.4382"/>
<polygon fill="#191970" stroke="#191970" points="1238.4217,-66.9604 1228.0336,-69.043 1237.4531,-73.8931 1238.4217,-66.9604"/>
</g>
<!-- Node52&#45;&gt;Node16 -->
<g id="edge113" class="edge">
<title>Node52&#45;&gt;Node16</title>
<path fill="none" stroke="#191970" d="M2056.5936,-475.8999C2051.481,-454.6324 2040,-401.8776 2040,-357 2040,-357 2040,-357 2040,-183.5 2040,-149.9798 2040.4482,-134.9323 2016,-112 1996.9161,-94.0993 1928.0913,-79.8458 1883.2161,-72.186"/>
<polygon fill="#191970" stroke="#191970" points="1883.6395,-68.7084 1873.2003,-70.5175 1882.4891,-75.6133 1883.6395,-68.7084"/>
</g>
<!-- Node52&#45;&gt;Node41 -->
<g id="edge122" class="edge">
<title>Node52&#45;&gt;Node41</title>
<path fill="none" stroke="#191970" d="M2026.4629,-478.6447C1966.1583,-465.939 1837.5534,-438.843 1775.6744,-425.8056"/>
<polygon fill="#191970" stroke="#191970" points="1776.1379,-422.3265 1765.6311,-423.6896 1774.6947,-429.1761 1776.1379,-422.3265"/>
</g>
<!-- Node52&#45;&gt;Node42 -->
<g id="edge115" class="edge">
<title>Node52&#45;&gt;Node42</title>
<path fill="none" stroke="#191970" d="M2026.3576,-481.2659C1945.1218,-470.6496 1738.2251,-443.0986 1708,-434 1706.0908,-433.4253 1704.1518,-432.7573 1702.2192,-432.0277"/>
<polygon fill="#191970" stroke="#191970" points="1703.3501,-428.7054 1692.7779,-428.0132 1700.6109,-435.1472 1703.3501,-428.7054"/>
</g>
<!-- Node53 -->
<g id="node49" class="node">
<title>Node53</title>
<polygon fill="none" stroke="#bfbfbf" points="1860,-409 1860,-428 1898,-428 1898,-409 1860,-409"/>
<text text-anchor="middle" x="1879" y="-416" font-family="FreeSans.ttf" font-size="10.00" fill="#000000">map</text>
</g>
<!-- Node52&#45;&gt;Node53 -->
<g id="edge116" class="edge">
<title>Node52&#45;&gt;Node53</title>
<path fill="none" stroke="#191970" d="M2029.9995,-475.8911C1989.44,-462.4092 1919.4322,-438.9657 1908,-434 1907.0051,-433.5679 1905.9982,-433.1145 1904.9865,-432.6454"/>
<polygon fill="#191970" stroke="#191970" points="1906.46,-429.4693 1895.9477,-428.1492 1903.3423,-435.7367 1906.46,-429.4693"/>
</g>
<!-- Node54 -->
<g id="node50" class="node">
<title>Node54</title>
<polygon fill="none" stroke="#bfbfbf" points="1916.5,-409 1916.5,-428 1973.5,-428 1973.5,-409 1916.5,-409"/>
<text text-anchor="middle" x="1945" y="-416" font-family="FreeSans.ttf" font-size="10.00" fill="#000000">typeinfo</text>
</g>
<!-- Node52&#45;&gt;Node54 -->
<g id="edge119" class="edge">
<title>Node52&#45;&gt;Node54</title>
<path fill="none" stroke="#191970" d="M2042.6666,-475.9005C2023.7041,-464.7559 1992.2125,-446.2477 1970.128,-433.2682"/>
<polygon fill="#191970" stroke="#191970" points="1971.6979,-430.1311 1961.3031,-428.0817 1968.151,-436.1661 1971.6979,-430.1311"/>
</g>
</g>
</svg>
