<?xml version="1.0" encoding="UTF-8" standalone="no"?>
<!DOCTYPE svg PUBLIC "-//W3C//DTD SVG 1.1//EN"
 "http://www.w3.org/Graphics/SVG/1.1/DTD/svg11.dtd">
<!-- Generated by graphviz version 2.40.1 (20161225.0304)
 -->
<!-- Title: ImplicitTrapezoidal.cpp Pages: 1 -->
<svg width="1956pt" height="565pt"
 viewBox="0.00 0.00 1956.00 565.00" xmlns="http://www.w3.org/2000/svg" xmlns:xlink="http://www.w3.org/1999/xlink">
<g id="graph0" class="graph" transform="scale(1 1) rotate(0) translate(4 561)">
<title>ImplicitTrapezoidal.cpp</title>
<!-- Node0 -->
<g id="node1" class="node">
<title>Node0</title>
<polygon fill="#bfbfbf" stroke="#000000" points="647.5,-537.5 647.5,-556.5 776.5,-556.5 776.5,-537.5 647.5,-537.5"/>
<text text-anchor="middle" x="712" y="-544.5" font-family="FreeSans.ttf" font-size="10.00" fill="#000000">ImplicitTrapezoidal.cpp</text>
</g>
<!-- Node1 -->
<g id="node2" class="node">
<title>Node1</title>
<g id="a_node2"><a xlink:href="ImplicitTrapezoidal_8h.html" target="_top" xlink:title="iDynTree/Integrators\l/ImplicitTrapezoidal.h">
<polygon fill="none" stroke="#000000" points="486.5,-470.5 486.5,-500.5 607.5,-500.5 607.5,-470.5 486.5,-470.5"/>
<text text-anchor="start" x="494.5" y="-488.5" font-family="FreeSans.ttf" font-size="10.00" fill="#000000">iDynTree/Integrators</text>
<text text-anchor="middle" x="547" y="-477.5" font-family="FreeSans.ttf" font-size="10.00" fill="#000000">/ImplicitTrapezoidal.h</text>
</a>
</g>
</g>
<!-- Node0&#45;&gt;Node1 -->
<g id="edge1" class="edge">
<title>Node0&#45;&gt;Node1</title>
<path fill="none" stroke="#191970" d="M686.2188,-537.3906C662.4406,-528.5279 626.4789,-515.1239 597.0618,-504.1594"/>
<polygon fill="#191970" stroke="#191970" points="597.9562,-500.7576 587.3635,-500.5446 595.5114,-507.3168 597.9562,-500.7576"/>
</g>
<!-- Node9 -->
<g id="node10" class="node">
<title>Node9</title>
<polygon fill="none" stroke="#bfbfbf" points="590.5,-.5 590.5,-19.5 643.5,-19.5 643.5,-.5 590.5,-.5"/>
<text text-anchor="middle" x="617" y="-7.5" font-family="FreeSans.ttf" font-size="10.00" fill="#000000">cstddef</text>
</g>
<!-- Node0&#45;&gt;Node9 -->
<g id="edge86" class="edge">
<title>Node0&#45;&gt;Node9</title>
<path fill="none" stroke="#191970" d="M647.2434,-542.1067C471.7276,-527.9823 0,-483.934 0,-418.5 0,-418.5 0,-418.5 0,-122 0,-65.3669 55.1954,-73.674 109,-56 196.7574,-27.173 478.8384,-14.7812 580.2522,-11.1816"/>
<polygon fill="#191970" stroke="#191970" points="580.4511,-14.6769 590.3237,-10.8321 580.2083,-7.6811 580.4511,-14.6769"/>
</g>
<!-- Node15 -->
<g id="node16" class="node">
<title>Node15</title>
<polygon fill="none" stroke="#bfbfbf" points="823,-56.5 823,-75.5 867,-75.5 867,-56.5 823,-56.5"/>
<text text-anchor="middle" x="845" y="-63.5" font-family="FreeSans.ttf" font-size="10.00" fill="#000000">string</text>
</g>
<!-- Node0&#45;&gt;Node15 -->
<g id="edge88" class="edge">
<title>Node0&#45;&gt;Node15</title>
<path fill="none" stroke="#191970" d="M647.2676,-542.029C586.3859,-536.0297 501.0903,-523.7787 477,-501 449.5081,-475.0048 456,-456.3359 456,-418.5 456,-418.5 456,-418.5 456,-239.5 456,-206.6194 452.4165,-191.8982 475,-168 510.331,-130.6122 537.7396,-152.312 585,-132 602.1741,-124.6188 604.4369,-118.4008 622,-112 687.5352,-88.1158 768.6719,-75.3028 812.7685,-69.646"/>
<polygon fill="#191970" stroke="#191970" points="813.398,-73.0948 822.8911,-68.3905 812.5363,-66.148 813.398,-73.0948"/>
</g>
<!-- Node18 -->
<g id="node19" class="node">
<title>Node18</title>
<g id="a_node19"><a xlink:href="Utils_8h.html" target="_top" xlink:title="iDynTree/Core/Utils.h">
<polygon fill="none" stroke="#000000" points="920.5,-56.5 920.5,-75.5 1039.5,-75.5 1039.5,-56.5 920.5,-56.5"/>
<text text-anchor="middle" x="980" y="-63.5" font-family="FreeSans.ttf" font-size="10.00" fill="#000000">iDynTree/Core/Utils.h</text>
</a>
</g>
</g>
<!-- Node0&#45;&gt;Node18 -->
<g id="edge34" class="edge">
<title>Node0&#45;&gt;Node18</title>
<path fill="none" stroke="#191970" d="M715.022,-537.3054C729.2364,-492.562 792.5605,-302.4741 883,-168 905.6344,-134.3451 939.6907,-101.4562 960.8454,-82.4858"/>
<polygon fill="#191970" stroke="#191970" points="963.3527,-84.9409 968.5309,-75.6977 958.7188,-79.6943 963.3527,-84.9409"/>
</g>
<!-- Node24 -->
<g id="node25" class="node">
<title>Node24</title>
<g id="a_node25"><a xlink:href="DynamicalSystem_8h.html" target="_top" xlink:title="iDynTree/DynamicalSystem.h">
<polygon fill="none" stroke="#000000" points="484.5,-168.5 484.5,-187.5 645.5,-187.5 645.5,-168.5 484.5,-168.5"/>
<text text-anchor="middle" x="565" y="-175.5" font-family="FreeSans.ttf" font-size="10.00" fill="#000000">iDynTree/DynamicalSystem.h</text>
</a>
</g>
</g>
<!-- Node0&#45;&gt;Node24 -->
<g id="edge31" class="edge">
<title>Node0&#45;&gt;Node24</title>
<path fill="none" stroke="#191970" d="M701.1111,-537.1981C680.0964,-517.144 636,-469.0417 636,-418.5 636,-418.5 636,-418.5 636,-301 636,-265.6422 634.3456,-254.226 616,-224 608.8467,-212.2142 597.7512,-201.6909 587.734,-193.6939"/>
<polygon fill="#191970" stroke="#191970" points="589.7686,-190.8444 579.6832,-187.5984 585.5431,-196.4252 589.7686,-190.8444"/>
</g>
<!-- Node25 -->
<g id="node26" class="node">
<title>Node25</title>
<polygon fill="none" stroke="#bfbfbf" points="1842.5,-409 1842.5,-428 1919.5,-428 1919.5,-409 1842.5,-409"/>
<text text-anchor="middle" x="1881" y="-416" font-family="FreeSans.ttf" font-size="10.00" fill="#000000">Eigen/Dense</text>
</g>
<!-- Node0&#45;&gt;Node25 -->
<g id="edge35" class="edge">
<title>Node0&#45;&gt;Node25</title>
<path fill="none" stroke="#191970" d="M776.5977,-545.3103C949.1227,-539.7585 1434.34,-517.3298 1828,-434 1832.392,-433.0703 1836.9506,-431.9621 1841.468,-430.7718"/>
<polygon fill="#191970" stroke="#191970" points="1842.5082,-434.1155 1851.2105,-428.0723 1840.639,-427.3697 1842.5082,-434.1155"/>
</g>
<!-- Node26 -->
<g id="node27" class="node">
<title>Node26</title>
<g id="a_node27"><a xlink:href="EigenHelpers_8h.html" target="_top" xlink:title="iDynTree/Core/EigenHelpers.h">
<polygon fill="none" stroke="#000000" points="1156.5,-476 1156.5,-495 1317.5,-495 1317.5,-476 1156.5,-476"/>
<text text-anchor="middle" x="1237" y="-483" font-family="FreeSans.ttf" font-size="10.00" fill="#000000">iDynTree/Core/EigenHelpers.h</text>
</a>
</g>
</g>
<!-- Node0&#45;&gt;Node26 -->
<g id="edge36" class="edge">
<title>Node0&#45;&gt;Node26</title>
<path fill="none" stroke="#191970" d="M776.6384,-539.4281C869.4349,-528.5576 1040.8168,-508.4815 1146.2697,-496.1284"/>
<polygon fill="#191970" stroke="#191970" points="1146.7393,-499.5974 1156.2641,-494.9576 1145.9248,-492.645 1146.7393,-499.5974"/>
</g>
<!-- Node28 -->
<g id="node29" class="node">
<title>Node28</title>
<polygon fill="none" stroke="#bfbfbf" points="1462,-56.5 1462,-75.5 1518,-75.5 1518,-56.5 1462,-56.5"/>
<text text-anchor="middle" x="1490" y="-63.5" font-family="FreeSans.ttf" font-size="10.00" fill="#000000">sstream</text>
</g>
<!-- Node0&#45;&gt;Node28 -->
<g id="edge87" class="edge">
<title>Node0&#45;&gt;Node28</title>
<path fill="none" stroke="#191970" d="M776.5869,-545.6798C914.1997,-542.3525 1246.3376,-531.5856 1523,-501 1714.2496,-479.8569 1948,-610.9148 1948,-418.5 1948,-418.5 1948,-418.5 1948,-178 1948,-134.9308 1638.4516,-86.9797 1528.3224,-71.2828"/>
<polygon fill="#191970" stroke="#191970" points="1528.696,-67.8009 1518.3043,-69.8657 1527.7155,-74.7319 1528.696,-67.8009"/>
</g>
<!-- Node2 -->
<g id="node3" class="node">
<title>Node2</title>
<g id="a_node3"><a xlink:href="FixedStepIntegrator_8h.html" target="_top" xlink:title="iDynTree/Integrators\l/FixedStepIntegrator.h">
<polygon fill="none" stroke="#000000" points="484.5,-224.5 484.5,-254.5 607.5,-254.5 607.5,-224.5 484.5,-224.5"/>
<text text-anchor="start" x="492.5" y="-242.5" font-family="FreeSans.ttf" font-size="10.00" fill="#000000">iDynTree/Integrators</text>
<text text-anchor="middle" x="546" y="-231.5" font-family="FreeSans.ttf" font-size="10.00" fill="#000000">/FixedStepIntegrator.h</text>
</a>
</g>
</g>
<!-- Node1&#45;&gt;Node2 -->
<g id="edge2" class="edge">
<title>Node1&#45;&gt;Node2</title>
<path fill="none" stroke="#191970" d="M546.939,-470.4819C546.7726,-429.5667 546.3101,-315.7883 546.1028,-264.7921"/>
<polygon fill="#191970" stroke="#191970" points="549.6022,-264.6198 546.0615,-254.6341 542.6023,-264.6483 549.6022,-264.6198"/>
</g>
<!-- Node3 -->
<g id="node4" class="node">
<title>Node3</title>
<g id="a_node4"><a xlink:href="Integrator_8h.html" target="_top" xlink:title="iDynTree/Integrator.h">
<polygon fill="none" stroke="#000000" points="262.5,-168.5 262.5,-187.5 381.5,-187.5 381.5,-168.5 262.5,-168.5"/>
<text text-anchor="middle" x="322" y="-175.5" font-family="FreeSans.ttf" font-size="10.00" fill="#000000">iDynTree/Integrator.h</text>
</a>
</g>
</g>
<!-- Node2&#45;&gt;Node3 -->
<g id="edge3" class="edge">
<title>Node2&#45;&gt;Node3</title>
<path fill="none" stroke="#191970" d="M491.2034,-224.4554C452.8449,-213.9239 402.2495,-200.0328 366.4076,-190.1923"/>
<polygon fill="#191970" stroke="#191970" points="367.2819,-186.8028 356.712,-187.5303 365.4285,-193.5531 367.2819,-186.8028"/>
</g>
<!-- Node4 -->
<g id="node5" class="node">
<title>Node4</title>
<g id="a_node5"><a xlink:href="VectorDynSize_8h.html" target="_top" xlink:title="iDynTree/Core/VectorDynSize.h">
<polygon fill="none" stroke="#000000" points="631.5,-112.5 631.5,-131.5 798.5,-131.5 798.5,-112.5 631.5,-112.5"/>
<text text-anchor="middle" x="715" y="-119.5" font-family="FreeSans.ttf" font-size="10.00" fill="#000000">iDynTree/Core/VectorDynSize.h</text>
</a>
</g>
</g>
<!-- Node2&#45;&gt;Node4 -->
<g id="edge30" class="edge">
<title>Node2&#45;&gt;Node4</title>
<path fill="none" stroke="#191970" d="M586.763,-224.4034C607.9016,-215.5321 633.5115,-203.0913 654,-188 672.7263,-174.2067 690.3266,-154.0994 701.7631,-139.7077"/>
<polygon fill="#191970" stroke="#191970" points="704.6906,-141.6436 708.0424,-131.593 699.1545,-137.3597 704.6906,-141.6436"/>
</g>
<!-- Node3&#45;&gt;Node4 -->
<g id="edge4" class="edge">
<title>Node3&#45;&gt;Node4</title>
<path fill="none" stroke="#191970" d="M381.6882,-169.4948C450.1855,-159.7344 562.7141,-143.6998 637.8183,-132.9979"/>
<polygon fill="#191970" stroke="#191970" points="638.7528,-136.4002 648.159,-131.5244 637.7653,-129.4702 638.7528,-136.4002"/>
</g>
<!-- Node3&#45;&gt;Node15 -->
<g id="edge27" class="edge">
<title>Node3&#45;&gt;Node15</title>
<path fill="none" stroke="#191970" d="M329.913,-168.3096C342.8134,-153.2898 369.9704,-124.7895 400,-112 474.5889,-80.2328 723.4565,-69.6862 812.7575,-66.8758"/>
<polygon fill="#191970" stroke="#191970" points="812.945,-70.3718 822.8344,-66.5705 812.733,-63.375 812.945,-70.3718"/>
</g>
<!-- Node16 -->
<g id="node17" class="node">
<title>Node16</title>
<g id="a_node17"><a xlink:href="MatrixDynSize_8h.html" target="_top" xlink:title="iDynTree/Core/MatrixDynSize.h">
<polygon fill="none" stroke="#000000" points="409.5,-112.5 409.5,-131.5 576.5,-131.5 576.5,-112.5 409.5,-112.5"/>
<text text-anchor="middle" x="493" y="-119.5" font-family="FreeSans.ttf" font-size="10.00" fill="#000000">iDynTree/Core/MatrixDynSize.h</text>
</a>
</g>
</g>
<!-- Node3&#45;&gt;Node16 -->
<g id="edge16" class="edge">
<title>Node3&#45;&gt;Node16</title>
<path fill="none" stroke="#191970" d="M351.3959,-168.3733C379.8307,-159.0613 423.0877,-144.8953 454.3081,-134.671"/>
<polygon fill="#191970" stroke="#191970" points="455.5736,-137.9396 463.9876,-131.5011 453.395,-131.2872 455.5736,-137.9396"/>
</g>
<!-- Node17 -->
<g id="node18" class="node">
<title>Node17</title>
<g id="a_node18"><a xlink:href="SparsityStructure_8h.html" target="_top" xlink:title="iDynTree/SparsityStructure.h">
<polygon fill="none" stroke="#000000" points="198.5,-112.5 198.5,-131.5 353.5,-131.5 353.5,-112.5 198.5,-112.5"/>
<text text-anchor="middle" x="276" y="-119.5" font-family="FreeSans.ttf" font-size="10.00" fill="#000000">iDynTree/SparsityStructure.h</text>
</a>
</g>
</g>
<!-- Node3&#45;&gt;Node17 -->
<g id="edge18" class="edge">
<title>Node3&#45;&gt;Node17</title>
<path fill="none" stroke="#191970" d="M313.9874,-168.2455C307.5232,-160.3761 298.2615,-149.101 290.5017,-139.6542"/>
<polygon fill="#191970" stroke="#191970" points="292.9727,-137.1484 283.9208,-131.6427 287.5636,-141.5916 292.9727,-137.1484"/>
</g>
<!-- Node20 -->
<g id="node21" class="node">
<title>Node20</title>
<polygon fill="none" stroke="#bfbfbf" points="118.5,-56.5 118.5,-75.5 165.5,-75.5 165.5,-56.5 118.5,-56.5"/>
<text text-anchor="middle" x="142" y="-63.5" font-family="FreeSans.ttf" font-size="10.00" fill="#000000">vector</text>
</g>
<!-- Node3&#45;&gt;Node20 -->
<g id="edge26" class="edge">
<title>Node3&#45;&gt;Node20</title>
<path fill="none" stroke="#191970" d="M262.4313,-173.0796C207.4076,-167.1523 131.4762,-154.985 113,-132 101.3324,-117.4852 113.0254,-97.5462 124.8646,-83.3922"/>
<polygon fill="#191970" stroke="#191970" points="127.5959,-85.5891 131.6768,-75.8117 122.3893,-80.9103 127.5959,-85.5891"/>
</g>
<!-- Node22 -->
<g id="node23" class="node">
<title>Node22</title>
<polygon fill="none" stroke="#bfbfbf" points="122,-112.5 122,-131.5 180,-131.5 180,-112.5 122,-112.5"/>
<text text-anchor="middle" x="151" y="-119.5" font-family="FreeSans.ttf" font-size="10.00" fill="#000000">memory</text>
</g>
<!-- Node3&#45;&gt;Node22 -->
<g id="edge28" class="edge">
<title>Node3&#45;&gt;Node22</title>
<path fill="none" stroke="#191970" d="M292.6041,-168.3733C264.1693,-159.0613 220.9123,-144.8953 189.6919,-134.671"/>
<polygon fill="#191970" stroke="#191970" points="190.605,-131.2872 180.0124,-131.5011 188.4264,-137.9396 190.605,-131.2872"/>
</g>
<!-- Node23 -->
<g id="node24" class="node">
<title>Node23</title>
<polygon fill="none" stroke="#bfbfbf" points="28,-112.5 28,-131.5 66,-131.5 66,-112.5 28,-112.5"/>
<text text-anchor="middle" x="47" y="-119.5" font-family="FreeSans.ttf" font-size="10.00" fill="#000000">map</text>
</g>
<!-- Node3&#45;&gt;Node23 -->
<g id="edge29" class="edge">
<title>Node3&#45;&gt;Node23</title>
<path fill="none" stroke="#191970" d="M262.4444,-168.4978C213.2254,-160.2106 141.6718,-147.16 80,-132 78.7247,-131.6865 77.4256,-131.3533 76.1162,-131.0061"/>
<polygon fill="#191970" stroke="#191970" points="76.6752,-127.5266 66.0996,-128.164 74.7645,-134.2608 76.6752,-127.5266"/>
</g>
<!-- Node5 -->
<g id="node6" class="node">
<title>Node5</title>
<g id="a_node6"><a xlink:href="Span_8h.html" target="_top" xlink:title="iDynTree/Core/Span.h">
<polygon fill="none" stroke="#000000" points="1066.5,-56.5 1066.5,-75.5 1187.5,-75.5 1187.5,-56.5 1066.5,-56.5"/>
<text text-anchor="middle" x="1127" y="-63.5" font-family="FreeSans.ttf" font-size="10.00" fill="#000000">iDynTree/Core/Span.h</text>
</a>
</g>
</g>
<!-- Node4&#45;&gt;Node5 -->
<g id="edge5" class="edge">
<title>Node4&#45;&gt;Node5</title>
<path fill="none" stroke="#191970" d="M785.3572,-112.4369C861.021,-102.1525 980.6346,-85.8943 1056.3944,-75.5969"/>
<polygon fill="#191970" stroke="#191970" points="1056.8882,-79.062 1066.3256,-74.247 1055.9453,-72.1258 1056.8882,-79.062"/>
</g>
<!-- Node4&#45;&gt;Node15 -->
<g id="edge15" class="edge">
<title>Node4&#45;&gt;Node15</title>
<path fill="none" stroke="#191970" d="M737.3478,-112.3733C758.4033,-103.3032 790.1495,-89.6279 813.7175,-79.4755"/>
<polygon fill="#191970" stroke="#191970" points="815.1444,-82.6719 822.9438,-75.5011 812.375,-76.243 815.1444,-82.6719"/>
</g>
<!-- Node6 -->
<g id="node7" class="node">
<title>Node6</title>
<polygon fill="none" stroke="#bfbfbf" points="1385,-.5 1385,-19.5 1437,-19.5 1437,-.5 1385,-.5"/>
<text text-anchor="middle" x="1411" y="-7.5" font-family="FreeSans.ttf" font-size="10.00" fill="#000000">cassert</text>
</g>
<!-- Node5&#45;&gt;Node6 -->
<g id="edge6" class="edge">
<title>Node5&#45;&gt;Node6</title>
<path fill="none" stroke="#191970" d="M1187.4606,-56.494C1235.8191,-48.5115 1305.5199,-36.1607 1374.9104,-20.0978"/>
<polygon fill="#191970" stroke="#191970" points="1375.7584,-23.494 1384.6973,-17.8067 1374.1628,-16.6783 1375.7584,-23.494"/>
</g>
<!-- Node7 -->
<g id="node8" class="node">
<title>Node7</title>
<polygon fill="none" stroke="#bfbfbf" points="1243,-.5 1243,-19.5 1307,-19.5 1307,-.5 1243,-.5"/>
<text text-anchor="middle" x="1275" y="-7.5" font-family="FreeSans.ttf" font-size="10.00" fill="#000000">algorithm</text>
</g>
<!-- Node5&#45;&gt;Node7 -->
<g id="edge7" class="edge">
<title>Node5&#45;&gt;Node7</title>
<path fill="none" stroke="#191970" d="M1152.4421,-56.3733C1176.7326,-47.1822 1213.5208,-33.2624 1240.4543,-23.0713"/>
<polygon fill="#191970" stroke="#191970" points="1241.7757,-26.3136 1249.8899,-19.5011 1239.2984,-19.7666 1241.7757,-26.3136"/>
</g>
<!-- Node8 -->
<g id="node9" class="node">
<title>Node8</title>
<polygon fill="none" stroke="#bfbfbf" points="1325,-.5 1325,-19.5 1367,-19.5 1367,-.5 1325,-.5"/>
<text text-anchor="middle" x="1346" y="-7.5" font-family="FreeSans.ttf" font-size="10.00" fill="#000000">array</text>
</g>
<!-- Node5&#45;&gt;Node8 -->
<g id="edge8" class="edge">
<title>Node5&#45;&gt;Node8</title>
<path fill="none" stroke="#191970" d="M1170.81,-56.4225C1207.1112,-48.2436 1260.2321,-35.7176 1314.902,-20.1567"/>
<polygon fill="#191970" stroke="#191970" points="1316.1195,-23.4485 1324.7629,-17.3212 1314.185,-16.7211 1316.1195,-23.4485"/>
</g>
<!-- Node5&#45;&gt;Node9 -->
<g id="edge9" class="edge">
<title>Node5&#45;&gt;Node9</title>
<path fill="none" stroke="#191970" d="M1066.2007,-58.182C1060.0545,-57.4282 1053.9046,-56.6887 1048,-56 902.3123,-39.0064 728.6204,-21.2237 654.0239,-13.7048"/>
<polygon fill="#191970" stroke="#191970" points="654.0522,-10.19 643.752,-12.6712 653.3514,-17.1548 654.0522,-10.19"/>
</g>
<!-- Node10 -->
<g id="node11" class="node">
<title>Node10</title>
<polygon fill="none" stroke="#bfbfbf" points="875.5,-.5 875.5,-19.5 928.5,-19.5 928.5,-.5 875.5,-.5"/>
<text text-anchor="middle" x="902" y="-7.5" font-family="FreeSans.ttf" font-size="10.00" fill="#000000">iterator</text>
</g>
<!-- Node5&#45;&gt;Node10 -->
<g id="edge10" class="edge">
<title>Node5&#45;&gt;Node10</title>
<path fill="none" stroke="#191970" d="M1085.9809,-56.4188C1049.73,-47.8614 995.1887,-34.7684 938.557,-20.0862"/>
<polygon fill="#191970" stroke="#191970" points="939.2698,-16.6551 928.7105,-17.5226 937.5061,-23.4293 939.2698,-16.6551"/>
</g>
<!-- Node11 -->
<g id="node12" class="node">
<title>Node11</title>
<polygon fill="none" stroke="#bfbfbf" points="947,-.5 947,-19.5 991,-19.5 991,-.5 947,-.5"/>
<text text-anchor="middle" x="969" y="-7.5" font-family="FreeSans.ttf" font-size="10.00" fill="#000000">limits</text>
</g>
<!-- Node5&#45;&gt;Node11 -->
<g id="edge11" class="edge">
<title>Node5&#45;&gt;Node11</title>
<path fill="none" stroke="#191970" d="M1099.8388,-56.3733C1072.3726,-46.6384 1029.9388,-31.5985 1000.8913,-21.3032"/>
<polygon fill="#191970" stroke="#191970" points="1001.8163,-17.9178 991.2216,-17.876 999.4778,-24.5157 1001.8163,-17.9178"/>
</g>
<!-- Node12 -->
<g id="node13" class="node">
<title>Node12</title>
<polygon fill="none" stroke="#bfbfbf" points="1009.5,-.5 1009.5,-19.5 1074.5,-19.5 1074.5,-.5 1009.5,-.5"/>
<text text-anchor="middle" x="1042" y="-7.5" font-family="FreeSans.ttf" font-size="10.00" fill="#000000">stdexcept</text>
</g>
<!-- Node5&#45;&gt;Node12 -->
<g id="edge12" class="edge">
<title>Node5&#45;&gt;Node12</title>
<path fill="none" stroke="#191970" d="M1112.1941,-56.2455C1099.2744,-47.7337 1080.3069,-35.2375 1065.3448,-25.3801"/>
<polygon fill="#191970" stroke="#191970" points="1066.9124,-22.2216 1056.6362,-19.6427 1063.0613,-28.067 1066.9124,-22.2216"/>
</g>
<!-- Node13 -->
<g id="node14" class="node">
<title>Node13</title>
<polygon fill="none" stroke="#bfbfbf" points="1092.5,-.5 1092.5,-19.5 1161.5,-19.5 1161.5,-.5 1092.5,-.5"/>
<text text-anchor="middle" x="1127" y="-7.5" font-family="FreeSans.ttf" font-size="10.00" fill="#000000">type_traits</text>
</g>
<!-- Node5&#45;&gt;Node13 -->
<g id="edge13" class="edge">
<title>Node5&#45;&gt;Node13</title>
<path fill="none" stroke="#191970" d="M1127,-56.2455C1127,-48.9382 1127,-38.6944 1127,-29.7046"/>
<polygon fill="#191970" stroke="#191970" points="1130.5001,-29.6426 1127,-19.6427 1123.5001,-29.6427 1130.5001,-29.6426"/>
</g>
<!-- Node14 -->
<g id="node15" class="node">
<title>Node14</title>
<polygon fill="none" stroke="#bfbfbf" points="1179.5,-.5 1179.5,-19.5 1224.5,-19.5 1224.5,-.5 1179.5,-.5"/>
<text text-anchor="middle" x="1202" y="-7.5" font-family="FreeSans.ttf" font-size="10.00" fill="#000000">utility</text>
</g>
<!-- Node5&#45;&gt;Node14 -->
<g id="edge14" class="edge">
<title>Node5&#45;&gt;Node14</title>
<path fill="none" stroke="#191970" d="M1140.064,-56.2455C1151.3562,-47.814 1167.8845,-35.4729 1181.0271,-25.6598"/>
<polygon fill="#191970" stroke="#191970" points="1183.1669,-28.4301 1189.0857,-19.6427 1178.9789,-22.8211 1183.1669,-28.4301"/>
</g>
<!-- Node16&#45;&gt;Node15 -->
<g id="edge17" class="edge">
<title>Node16&#45;&gt;Node15</title>
<path fill="none" stroke="#191970" d="M553.111,-112.4369C628.1612,-100.4971 753.8218,-80.5056 812.7076,-71.1374"/>
<polygon fill="#191970" stroke="#191970" points="813.5727,-74.5439 822.8986,-69.5161 812.4728,-67.6308 813.5727,-74.5439"/>
</g>
<!-- Node17&#45;&gt;Node9 -->
<g id="edge23" class="edge">
<title>Node17&#45;&gt;Node9</title>
<path fill="none" stroke="#191970" d="M305.0735,-112.4509C367.1182,-92.0726 512.3786,-44.3625 580.51,-21.985"/>
<polygon fill="#191970" stroke="#191970" points="581.9625,-25.1919 590.371,-18.7462 579.7782,-18.5415 581.9625,-25.1919"/>
</g>
<!-- Node17&#45;&gt;Node15 -->
<g id="edge25" class="edge">
<title>Node17&#45;&gt;Node15</title>
<path fill="none" stroke="#191970" d="M353.7928,-113.4772C358.5997,-112.9714 363.3651,-112.4754 368,-112 535.1795,-94.8537 735.5168,-76.1261 812.5968,-68.9881"/>
<polygon fill="#191970" stroke="#191970" points="813.0037,-72.4655 822.6388,-68.0592 812.3589,-65.4953 813.0037,-72.4655"/>
</g>
<!-- Node17&#45;&gt;Node18 -->
<g id="edge19" class="edge">
<title>Node17&#45;&gt;Node18</title>
<path fill="none" stroke="#191970" d="M353.7176,-115.6727C369.0566,-114.4408 385.0352,-113.1693 400,-112 611.515,-95.4728 664.6184,-94.1541 876,-76 887.1123,-75.0456 898.8864,-73.9728 910.3632,-72.8935"/>
<polygon fill="#191970" stroke="#191970" points="910.7236,-76.3751 920.3483,-71.9462 910.0624,-69.4064 910.7236,-76.3751"/>
</g>
<!-- Node17&#45;&gt;Node20 -->
<g id="edge22" class="edge">
<title>Node17&#45;&gt;Node20</title>
<path fill="none" stroke="#191970" d="M252.9646,-112.3733C231.2612,-103.3032 198.5382,-89.6279 174.245,-79.4755"/>
<polygon fill="#191970" stroke="#191970" points="175.3111,-76.1278 164.7348,-75.5011 172.6119,-82.5865 175.3111,-76.1278"/>
</g>
<!-- Node21 -->
<g id="node22" class="node">
<title>Node21</title>
<polygon fill="none" stroke="#bfbfbf" points="233,-56.5 233,-75.5 319,-75.5 319,-56.5 233,-56.5"/>
<text text-anchor="middle" x="276" y="-63.5" font-family="FreeSans.ttf" font-size="10.00" fill="#000000">unordered_set</text>
</g>
<!-- Node17&#45;&gt;Node21 -->
<g id="edge24" class="edge">
<title>Node17&#45;&gt;Node21</title>
<path fill="none" stroke="#191970" d="M276,-112.2455C276,-104.9382 276,-94.6944 276,-85.7046"/>
<polygon fill="#191970" stroke="#191970" points="279.5001,-85.6426 276,-75.6427 272.5001,-85.6427 279.5001,-85.6426"/>
</g>
<!-- Node18&#45;&gt;Node9 -->
<g id="edge20" class="edge">
<title>Node18&#45;&gt;Node9</title>
<path fill="none" stroke="#191970" d="M920.4644,-56.8154C844.7898,-45.1411 716.4671,-25.3448 653.7341,-15.667"/>
<polygon fill="#191970" stroke="#191970" points="653.9447,-12.1581 643.528,-14.0925 652.8774,-19.0763 653.9447,-12.1581"/>
</g>
<!-- Node19 -->
<g id="node20" class="node">
<title>Node19</title>
<polygon fill="none" stroke="#bfbfbf" points="777,-.5 777,-19.5 857,-19.5 857,-.5 777,-.5"/>
<text text-anchor="middle" x="817" y="-7.5" font-family="FreeSans.ttf" font-size="10.00" fill="#000000">CoreExport.h</text>
</g>
<!-- Node18&#45;&gt;Node19 -->
<g id="edge21" class="edge">
<title>Node18&#45;&gt;Node19</title>
<path fill="none" stroke="#191970" d="M951.9793,-56.3733C924.9922,-47.1016 883.9983,-33.0178 854.2689,-22.804"/>
<polygon fill="#191970" stroke="#191970" points="855.2497,-19.4403 844.6551,-19.5011 852.9752,-26.0605 855.2497,-19.4403"/>
</g>
<!-- Node24&#45;&gt;Node4 -->
<g id="edge32" class="edge">
<title>Node24&#45;&gt;Node4</title>
<path fill="none" stroke="#191970" d="M590.7859,-168.3733C615.4047,-159.1822 652.69,-145.2624 679.9875,-135.0713"/>
<polygon fill="#191970" stroke="#191970" points="681.4063,-138.2777 689.5506,-131.5011 678.958,-131.7198 681.4063,-138.2777"/>
</g>
<!-- Node24&#45;&gt;Node17 -->
<g id="edge33" class="edge">
<title>Node24&#45;&gt;Node17</title>
<path fill="none" stroke="#191970" d="M515.6475,-168.4369C465.6678,-158.7522 388.3502,-143.7703 335.1258,-133.4569"/>
<polygon fill="#191970" stroke="#191970" points="335.6322,-129.99 325.1489,-131.5237 334.3005,-136.8622 335.6322,-129.99"/>
</g>
<!-- Node26&#45;&gt;Node4 -->
<g id="edge38" class="edge">
<title>Node26&#45;&gt;Node4</title>
<path fill="none" stroke="#191970" d="M1177.7711,-475.9408C1047.9848,-453.3198 750,-391.5258 750,-301 750,-301 750,-301 750,-239.5 750,-203.5066 734.7284,-163.7955 724.3607,-140.9832"/>
<polygon fill="#191970" stroke="#191970" points="727.445,-139.3176 720.0146,-131.765 721.1134,-142.3027 727.445,-139.3176"/>
</g>
<!-- Node26&#45;&gt;Node16 -->
<g id="edge46" class="edge">
<title>Node26&#45;&gt;Node16</title>
<path fill="none" stroke="#191970" d="M1156.4112,-478.2042C1085.0975,-470.6636 978.59,-456.7409 888,-434 789.9613,-409.3893 674,-458.0806 674,-357 674,-357 674,-357 674,-239.5 674,-206.5024 677.268,-191.3975 654,-168 640.0755,-153.998 595.5859,-141.9022 556.8948,-133.6328"/>
<polygon fill="#191970" stroke="#191970" points="557.1905,-130.1195 546.6872,-131.509 555.7645,-136.9727 557.1905,-130.1195"/>
</g>
<!-- Node26&#45;&gt;Node18 -->
<g id="edge85" class="edge">
<title>Node26&#45;&gt;Node18</title>
<path fill="none" stroke="#191970" d="M1231.4955,-475.8458C1213.4571,-444.202 1154.5043,-340.7312 1106,-255 1084.1474,-216.3756 1081.312,-205.1256 1057,-168 1036.7761,-137.1172 1010.3157,-103.2929 994.2676,-83.3952"/>
<polygon fill="#191970" stroke="#191970" points="996.9023,-81.0874 987.8812,-75.5313 991.4685,-85.5003 996.9023,-81.0874"/>
</g>
<!-- Node26&#45;&gt;Node25 -->
<g id="edge37" class="edge">
<title>Node26&#45;&gt;Node25</title>
<path fill="none" stroke="#191970" d="M1317.599,-480.4568C1455.8008,-471.4778 1732.3453,-451.9721 1828,-434 1832.6992,-433.1171 1837.5791,-431.9899 1842.3908,-430.7471"/>
<polygon fill="#191970" stroke="#191970" points="1843.3807,-434.1048 1852.0922,-428.0749 1841.5218,-427.3562 1843.3807,-434.1048"/>
</g>
<!-- Node27 -->
<g id="node28" class="node">
<title>Node27</title>
<g id="a_node28"><a xlink:href="VectorFixSize_8h.html" target="_top" xlink:title="iDynTree/Core/VectorFixSize.h">
<polygon fill="none" stroke="#000000" points="1200.5,-112.5 1200.5,-131.5 1361.5,-131.5 1361.5,-112.5 1200.5,-112.5"/>
<text text-anchor="middle" x="1281" y="-119.5" font-family="FreeSans.ttf" font-size="10.00" fill="#000000">iDynTree/Core/VectorFixSize.h</text>
</a>
</g>
</g>
<!-- Node26&#45;&gt;Node27 -->
<g id="edge39" class="edge">
<title>Node26&#45;&gt;Node27</title>
<path fill="none" stroke="#191970" d="M1317.7069,-477.5459C1444.5755,-464.8535 1676.9755,-440.7601 1683,-434 1761.8556,-345.515 1751.5564,-247.8854 1664,-168 1661.3024,-165.5388 1484.3601,-145.0634 1371.9489,-132.2733"/>
<polygon fill="#191970" stroke="#191970" points="1372.2851,-128.789 1361.9537,-131.1369 1371.4943,-135.7442 1372.2851,-128.789"/>
</g>
<!-- Node30 -->
<g id="node31" class="node">
<title>Node30</title>
<g id="a_node31"><a xlink:href="MatrixFixSize_8h.html" target="_top" xlink:title="iDynTree/Core/MatrixFixSize.h">
<polygon fill="none" stroke="#000000" points="1379.5,-112.5 1379.5,-131.5 1540.5,-131.5 1540.5,-112.5 1379.5,-112.5"/>
<text text-anchor="middle" x="1460" y="-119.5" font-family="FreeSans.ttf" font-size="10.00" fill="#000000">iDynTree/Core/MatrixFixSize.h</text>
</a>
</g>
</g>
<!-- Node26&#45;&gt;Node30 -->
<g id="edge47" class="edge">
<title>Node26&#45;&gt;Node30</title>
<path fill="none" stroke="#191970" d="M1317.5565,-477.7774C1447.3376,-465.1815 1690.0754,-440.9229 1708,-434 1762.3185,-413.021 1814,-415.229 1814,-357 1814,-357 1814,-357 1814,-239.5 1814,-183.0414 1649.7551,-148.9803 1545.017,-132.9995"/>
<polygon fill="#191970" stroke="#191970" points="1545.4827,-129.5303 1535.0743,-131.5093 1544.445,-136.453 1545.4827,-129.5303"/>
</g>
<!-- Node32 -->
<g id="node33" class="node">
<title>Node32</title>
<g id="a_node33"><a xlink:href="SpatialMotionVector_8h.html" target="_top" xlink:title="iDynTree/Core/SpatialMotion\lVector.h">
<polygon fill="none" stroke="#000000" points="1309.5,-403.5 1309.5,-433.5 1464.5,-433.5 1464.5,-403.5 1309.5,-403.5"/>
<text text-anchor="start" x="1317.5" y="-421.5" font-family="FreeSans.ttf" font-size="10.00" fill="#000000">iDynTree/Core/SpatialMotion</text>
<text text-anchor="middle" x="1387" y="-410.5" font-family="FreeSans.ttf" font-size="10.00" fill="#000000">Vector.h</text>
</a>
</g>
</g>
<!-- Node26&#45;&gt;Node32 -->
<g id="edge54" class="edge">
<title>Node26&#45;&gt;Node32</title>
<path fill="none" stroke="#191970" d="M1258.4913,-475.9005C1280.7623,-465.9528 1316.1682,-450.1382 1344.1819,-437.6254"/>
<polygon fill="#191970" stroke="#191970" points="1345.666,-440.7958 1353.3692,-433.5218 1342.8112,-434.4044 1345.666,-440.7958"/>
</g>
<!-- Node39 -->
<g id="node40" class="node">
<title>Node39</title>
<g id="a_node40"><a xlink:href="SpatialForceVector_8h.html" target="_top" xlink:title="iDynTree/Core/SpatialForce\lVector.h">
<polygon fill="none" stroke="#000000" points="1526,-403.5 1526,-433.5 1674,-433.5 1674,-403.5 1526,-403.5"/>
<text text-anchor="start" x="1534" y="-421.5" font-family="FreeSans.ttf" font-size="10.00" fill="#000000">iDynTree/Core/SpatialForce</text>
<text text-anchor="middle" x="1600" y="-410.5" font-family="FreeSans.ttf" font-size="10.00" fill="#000000">Vector.h</text>
</a>
</g>
</g>
<!-- Node26&#45;&gt;Node39 -->
<g id="edge76" class="edge">
<title>Node26&#45;&gt;Node39</title>
<path fill="none" stroke="#191970" d="M1288.6235,-475.9717C1347.7639,-465.056 1445.5383,-447.0095 1515.7544,-434.0495"/>
<polygon fill="#191970" stroke="#191970" points="1516.7077,-437.4327 1525.9063,-432.1757 1515.4371,-430.549 1516.7077,-437.4327"/>
</g>
<!-- Node40 -->
<g id="node41" class="node">
<title>Node40</title>
<g id="a_node41"><a xlink:href="Transform_8h.html" target="_top" xlink:title="iDynTree/Core/Transform.h">
<polygon fill="none" stroke="#000000" points="933,-347.5 933,-366.5 1079,-366.5 1079,-347.5 933,-347.5"/>
<text text-anchor="middle" x="1006" y="-354.5" font-family="FreeSans.ttf" font-size="10.00" fill="#000000">iDynTree/Core/Transform.h</text>
</a>
</g>
</g>
<!-- Node26&#45;&gt;Node40 -->
<g id="edge80" class="edge">
<title>Node26&#45;&gt;Node40</title>
<path fill="none" stroke="#191970" d="M1198.2603,-475.9877C1168.2237,-467.61 1126.2534,-453.6619 1093,-434 1065.0982,-417.5023 1037.9432,-391.3743 1021.5925,-374.2079"/>
<polygon fill="#191970" stroke="#191970" points="1023.8588,-371.5064 1014.4778,-366.5822 1018.7405,-376.2817 1023.8588,-371.5064"/>
</g>
<!-- Node27&#45;&gt;Node5 -->
<g id="edge41" class="edge">
<title>Node27&#45;&gt;Node5</title>
<path fill="none" stroke="#191970" d="M1254.5265,-112.3733C1229.1403,-103.1419 1190.6355,-89.1402 1162.578,-78.9375"/>
<polygon fill="#191970" stroke="#191970" points="1163.7222,-75.6293 1153.1281,-75.5011 1161.3299,-82.2079 1163.7222,-75.6293"/>
</g>
<!-- Node27&#45;&gt;Node6 -->
<g id="edge44" class="edge">
<title>Node27&#45;&gt;Node6</title>
<path fill="none" stroke="#191970" d="M1287.4409,-112.1624C1296.764,-98.4327 1315.0956,-73.2708 1335,-56 1349.1428,-43.7285 1366.9643,-32.7506 1381.7944,-24.5993"/>
<polygon fill="#191970" stroke="#191970" points="1383.8647,-27.4618 1391.0392,-19.6658 1380.569,-21.2861 1383.8647,-27.4618"/>
</g>
<!-- Node27&#45;&gt;Node15 -->
<g id="edge42" class="edge">
<title>Node27&#45;&gt;Node15</title>
<path fill="none" stroke="#191970" d="M1200.4422,-112.6124C1125.4356,-103.7229 1010.5523,-89.7277 911,-76 900.0648,-74.4921 888.1302,-72.7219 877.4536,-71.0934"/>
<polygon fill="#191970" stroke="#191970" points="877.6962,-67.5896 867.28,-69.527 876.631,-74.5081 877.6962,-67.5896"/>
</g>
<!-- Node27&#45;&gt;Node18 -->
<g id="edge40" class="edge">
<title>Node27&#45;&gt;Node18</title>
<path fill="none" stroke="#191970" d="M1229.5983,-112.4369C1177.4351,-102.7321 1096.6803,-87.708 1041.2354,-77.3926"/>
<polygon fill="#191970" stroke="#191970" points="1041.6612,-73.9119 1031.1897,-75.5237 1040.3808,-80.7938 1041.6612,-73.9119"/>
</g>
<!-- Node27&#45;&gt;Node28 -->
<g id="edge43" class="edge">
<title>Node27&#45;&gt;Node28</title>
<path fill="none" stroke="#191970" d="M1316.9284,-112.3733C1354.6407,-102.2685 1413.6853,-86.448 1452.1158,-76.1508"/>
<polygon fill="#191970" stroke="#191970" points="1453.1413,-79.4995 1461.8947,-73.5306 1451.3296,-72.7381 1453.1413,-79.4995"/>
</g>
<!-- Node29 -->
<g id="node30" class="node">
<title>Node29</title>
<polygon fill="none" stroke="#bfbfbf" points="1344,-56.5 1344,-75.5 1394,-75.5 1394,-56.5 1344,-56.5"/>
<text text-anchor="middle" x="1369" y="-63.5" font-family="FreeSans.ttf" font-size="10.00" fill="#000000">cstring</text>
</g>
<!-- Node27&#45;&gt;Node29 -->
<g id="edge45" class="edge">
<title>Node27&#45;&gt;Node29</title>
<path fill="none" stroke="#191970" d="M1296.3284,-112.2455C1309.8303,-103.6534 1329.7122,-91.0014 1345.2686,-81.1018"/>
<polygon fill="#191970" stroke="#191970" points="1347.2897,-83.9643 1353.8472,-75.6427 1343.5315,-78.0587 1347.2897,-83.9643"/>
</g>
<!-- Node30&#45;&gt;Node6 -->
<g id="edge49" class="edge">
<title>Node30&#45;&gt;Node6</title>
<path fill="none" stroke="#191970" d="M1455.8223,-112.4509C1447.722,-93.936 1429.7508,-52.8591 1419.1894,-28.7187"/>
<polygon fill="#191970" stroke="#191970" points="1422.3819,-27.2836 1415.1671,-19.5249 1415.9688,-30.0894 1422.3819,-27.2836"/>
</g>
<!-- Node30&#45;&gt;Node15 -->
<g id="edge51" class="edge">
<title>Node30&#45;&gt;Node15</title>
<path fill="none" stroke="#191970" d="M1379.0597,-112.8815C1376.0018,-112.5768 1372.9737,-112.2817 1370,-112 1166.2858,-92.6989 1114.2908,-99.3422 911,-76 900.0334,-74.7408 888.0907,-73.0343 877.4165,-71.3876"/>
<polygon fill="#191970" stroke="#191970" points="877.6721,-67.8846 867.2481,-69.7796 876.5787,-74.7987 877.6721,-67.8846"/>
</g>
<!-- Node30&#45;&gt;Node18 -->
<g id="edge48" class="edge">
<title>Node30&#45;&gt;Node18</title>
<path fill="none" stroke="#191970" d="M1379.4497,-112.9555C1280.2497,-101.7906 1117.4646,-83.3767 1057,-76 1054.629,-75.7107 1052.2174,-75.4136 1049.7821,-75.1111"/>
<polygon fill="#191970" stroke="#191970" points="1050.0386,-71.6159 1039.6806,-73.8435 1049.1669,-78.5615 1050.0386,-71.6159"/>
</g>
<!-- Node30&#45;&gt;Node28 -->
<g id="edge53" class="edge">
<title>Node30&#45;&gt;Node28</title>
<path fill="none" stroke="#191970" d="M1465.2256,-112.2455C1469.3123,-104.617 1475.1135,-93.7881 1480.075,-84.5267"/>
<polygon fill="#191970" stroke="#191970" points="1483.1972,-86.1103 1484.8343,-75.6427 1477.0268,-82.8047 1483.1972,-86.1103"/>
</g>
<!-- Node30&#45;&gt;Node29 -->
<g id="edge50" class="edge">
<title>Node30&#45;&gt;Node29</title>
<path fill="none" stroke="#191970" d="M1444.149,-112.2455C1430.1868,-103.6534 1409.6272,-91.0014 1393.5404,-81.1018"/>
<polygon fill="#191970" stroke="#191970" points="1395.0203,-77.9029 1384.6693,-75.6427 1391.3516,-83.8645 1395.0203,-77.9029"/>
</g>
<!-- Node31 -->
<g id="node32" class="node">
<title>Node31</title>
<polygon fill="none" stroke="#bfbfbf" points="1665,-56.5 1665,-75.5 1725,-75.5 1725,-56.5 1665,-56.5"/>
<text text-anchor="middle" x="1695" y="-63.5" font-family="FreeSans.ttf" font-size="10.00" fill="#000000">iostream</text>
</g>
<!-- Node30&#45;&gt;Node31 -->
<g id="edge52" class="edge">
<title>Node30&#45;&gt;Node31</title>
<path fill="none" stroke="#191970" d="M1500.1309,-112.4369C1543.3358,-102.1413 1611.6638,-85.8588 1654.8688,-75.5632"/>
<polygon fill="#191970" stroke="#191970" points="1655.8333,-78.9314 1664.7496,-73.2086 1654.2106,-72.1221 1655.8333,-78.9314"/>
</g>
<!-- Node32&#45;&gt;Node27 -->
<g id="edge55" class="edge">
<title>Node32&#45;&gt;Node27</title>
<path fill="none" stroke="#191970" d="M1392.0534,-403.357C1404.9441,-361.7226 1434.6635,-243.6093 1385,-168 1374.6658,-152.2669 1357.6035,-141.8723 1340.2582,-135.0221"/>
<polygon fill="#191970" stroke="#191970" points="1341.2282,-131.6517 1330.6337,-131.5696 1338.8647,-138.2406 1341.2282,-131.6517"/>
</g>
<!-- Node33 -->
<g id="node34" class="node">
<title>Node33</title>
<g id="a_node34"><a xlink:href="GeomVector3_8h.html" target="_top" xlink:title="iDynTree/Core/GeomVector3.h">
<polygon fill="none" stroke="#000000" points="1470.5,-168.5 1470.5,-187.5 1633.5,-187.5 1633.5,-168.5 1470.5,-168.5"/>
<text text-anchor="middle" x="1552" y="-175.5" font-family="FreeSans.ttf" font-size="10.00" fill="#000000">iDynTree/Core/GeomVector3.h</text>
</a>
</g>
</g>
<!-- Node32&#45;&gt;Node33 -->
<g id="edge56" class="edge">
<title>Node32&#45;&gt;Node33</title>
<path fill="none" stroke="#191970" d="M1394.2023,-403.3276C1401.3991,-388.5846 1413.0804,-365.7413 1425,-347 1461.9289,-288.9364 1512.8874,-225.2722 1537.5167,-195.3563"/>
<polygon fill="#191970" stroke="#191970" points="1540.3216,-197.4566 1544.0018,-187.5214 1534.9292,-192.9931 1540.3216,-197.4566"/>
</g>
<!-- Node34 -->
<g id="node35" class="node">
<title>Node34</title>
<g id="a_node35"><a xlink:href="SpatialVector_8h.html" target="_top" xlink:title="iDynTree/Core/SpatialVector.h">
<polygon fill="none" stroke="#000000" points="1434.5,-347.5 1434.5,-366.5 1595.5,-366.5 1595.5,-347.5 1434.5,-347.5"/>
<text text-anchor="middle" x="1515" y="-354.5" font-family="FreeSans.ttf" font-size="10.00" fill="#000000">iDynTree/Core/SpatialVector.h</text>
</a>
</g>
</g>
<!-- Node32&#45;&gt;Node34 -->
<g id="edge58" class="edge">
<title>Node32&#45;&gt;Node34</title>
<path fill="none" stroke="#191970" d="M1418.3123,-403.4554C1439.0138,-393.509 1465.9523,-380.5659 1486.1353,-370.8686"/>
<polygon fill="#191970" stroke="#191970" points="1487.6667,-374.0159 1495.1645,-366.5303 1484.6352,-367.7064 1487.6667,-374.0159"/>
</g>
<!-- Node33&#45;&gt;Node27 -->
<g id="edge57" class="edge">
<title>Node33&#45;&gt;Node27</title>
<path fill="none" stroke="#191970" d="M1505.7214,-168.4369C1459.0495,-158.7925 1386.9551,-143.8948 1337.0669,-133.5858"/>
<polygon fill="#191970" stroke="#191970" points="1337.5892,-130.1198 1327.0878,-131.5237 1336.1726,-136.975 1337.5892,-130.1198"/>
</g>
<!-- Node34&#45;&gt;Node18 -->
<g id="edge72" class="edge">
<title>Node34&#45;&gt;Node18</title>
<path fill="none" stroke="#191970" d="M1454.5947,-347.4889C1359.5617,-331.46 1180.997,-296.6986 1133,-255 1080.8391,-209.6838 1119.3599,-162.3127 1072,-112 1058.1614,-97.2985 1038.6013,-86.6104 1021.0729,-79.2581"/>
<polygon fill="#191970" stroke="#191970" points="1022.1797,-75.9322 1011.5932,-75.5124 1019.6073,-82.4424 1022.1797,-75.9322"/>
</g>
<!-- Node34&#45;&gt;Node28 -->
<g id="edge75" class="edge">
<title>Node34&#45;&gt;Node28</title>
<path fill="none" stroke="#191970" d="M1566.0418,-347.4314C1620.8007,-333.8666 1700,-303.2315 1700,-239.5 1700,-239.5 1700,-239.5 1700,-178 1700,-101.0522 1588.8722,-76.7872 1528.2959,-69.2763"/>
<polygon fill="#191970" stroke="#191970" points="1528.6549,-65.7946 1518.3215,-68.134 1527.8583,-72.7492 1528.6549,-65.7946"/>
</g>
<!-- Node34&#45;&gt;Node31 -->
<g id="edge74" class="edge">
<title>Node34&#45;&gt;Node31</title>
<path fill="none" stroke="#191970" d="M1565.9846,-347.479C1608.1703,-338.794 1663.9839,-325.1855 1682,-311 1750.4479,-257.1053 1717.8211,-132.9402 1701.9351,-85.192"/>
<polygon fill="#191970" stroke="#191970" points="1705.2412,-84.0431 1698.6689,-75.7331 1698.6246,-86.3278 1705.2412,-84.0431"/>
</g>
<!-- Node34&#45;&gt;Node33 -->
<g id="edge73" class="edge">
<title>Node34&#45;&gt;Node33</title>
<path fill="none" stroke="#191970" d="M1516.9893,-347.3762C1522.8365,-319.0883 1540.0528,-235.7987 1547.9534,-197.5767"/>
<polygon fill="#191970" stroke="#191970" points="1551.4041,-198.1729 1550.0009,-187.6714 1544.549,-196.7559 1551.4041,-198.1729"/>
</g>
<!-- Node35 -->
<g id="node36" class="node">
<title>Node35</title>
<g id="a_node36"><a xlink:href="Position_8h.html" target="_top" xlink:title="Position.h">
<polygon fill="none" stroke="#000000" points="937.5,-291.5 937.5,-310.5 1002.5,-310.5 1002.5,-291.5 937.5,-291.5"/>
<text text-anchor="middle" x="970" y="-298.5" font-family="FreeSans.ttf" font-size="10.00" fill="#000000">Position.h</text>
</a>
</g>
</g>
<!-- Node34&#45;&gt;Node35 -->
<g id="edge59" class="edge">
<title>Node34&#45;&gt;Node35</title>
<path fill="none" stroke="#191970" d="M1434.2901,-348.7069C1317.0023,-336.6553 1103.5659,-314.7242 1012.7472,-305.3924"/>
<polygon fill="#191970" stroke="#191970" points="1012.8552,-301.8851 1002.5498,-304.3446 1012.1397,-308.8485 1012.8552,-301.8851"/>
</g>
<!-- Node37 -->
<g id="node38" class="node">
<title>Node37</title>
<g id="a_node38"><a xlink:href="Rotation_8h.html" target="_top" xlink:title="iDynTree/Core/Rotation.h">
<polygon fill="none" stroke="#000000" points="1142.5,-230 1142.5,-249 1279.5,-249 1279.5,-230 1142.5,-230"/>
<text text-anchor="middle" x="1211" y="-237" font-family="FreeSans.ttf" font-size="10.00" fill="#000000">iDynTree/Core/Rotation.h</text>
</a>
</g>
</g>
<!-- Node34&#45;&gt;Node37 -->
<g id="edge71" class="edge">
<title>Node34&#45;&gt;Node37</title>
<path fill="none" stroke="#191970" d="M1490.3799,-347.484C1436.308,-326.5845 1307.08,-276.6362 1245.1839,-252.7125"/>
<polygon fill="#191970" stroke="#191970" points="1246.4392,-249.4454 1235.8499,-249.1048 1243.9156,-255.9747 1246.4392,-249.4454"/>
</g>
<!-- Node35&#45;&gt;Node15 -->
<g id="edge70" class="edge">
<title>Node35&#45;&gt;Node15</title>
<path fill="none" stroke="#191970" d="M960.5146,-291.2537C942.893,-272.6557 904.911,-230.1863 883,-188 865.3542,-154.0258 854.2308,-110.4173 848.8548,-85.6018"/>
<polygon fill="#191970" stroke="#191970" points="852.2436,-84.7059 846.7864,-75.6246 845.3893,-86.1269 852.2436,-84.7059"/>
</g>
<!-- Node36 -->
<g id="node37" class="node">
<title>Node36</title>
<g id="a_node37"><a xlink:href="PositionRaw_8h.html" target="_top" xlink:title="iDynTree/Core/PositionRaw.h">
<polygon fill="none" stroke="#000000" points="892,-168.5 892,-187.5 1048,-187.5 1048,-168.5 892,-168.5"/>
<text text-anchor="middle" x="970" y="-175.5" font-family="FreeSans.ttf" font-size="10.00" fill="#000000">iDynTree/Core/PositionRaw.h</text>
</a>
</g>
</g>
<!-- Node35&#45;&gt;Node36 -->
<g id="edge60" class="edge">
<title>Node35&#45;&gt;Node36</title>
<path fill="none" stroke="#191970" d="M970,-291.3484C970,-271.2295 970,-224.4608 970,-197.7098"/>
<polygon fill="#191970" stroke="#191970" points="973.5001,-197.6067 970,-187.6068 966.5001,-197.6068 973.5001,-197.6067"/>
</g>
<!-- Node35&#45;&gt;Node37 -->
<g id="edge63" class="edge">
<title>Node35&#45;&gt;Node37</title>
<path fill="none" stroke="#191970" d="M1002.5023,-292.7058C1044.005,-282.1149 1116.1298,-263.7096 1163.7177,-251.5658"/>
<polygon fill="#191970" stroke="#191970" points="1164.6561,-254.9386 1173.4802,-249.0746 1162.9252,-248.1559 1164.6561,-254.9386"/>
</g>
<!-- Node36&#45;&gt;Node15 -->
<g id="edge62" class="edge">
<title>Node36&#45;&gt;Node15</title>
<path fill="none" stroke="#191970" d="M959.3426,-168.4509C937.9406,-149.2747 889.5271,-105.8962 863.079,-82.1988"/>
<polygon fill="#191970" stroke="#191970" points="865.4138,-79.5914 855.6305,-75.5249 860.7426,-84.8048 865.4138,-79.5914"/>
</g>
<!-- Node36&#45;&gt;Node27 -->
<g id="edge61" class="edge">
<title>Node36&#45;&gt;Node27</title>
<path fill="none" stroke="#191970" d="M1023.1094,-168.4369C1077.1174,-158.712 1160.7896,-143.6456 1218.0864,-133.3285"/>
<polygon fill="#191970" stroke="#191970" points="1218.8882,-136.7405 1228.1096,-131.5237 1217.6476,-129.8513 1218.8882,-136.7405"/>
</g>
<!-- Node37&#45;&gt;Node15 -->
<g id="edge64" class="edge">
<title>Node37&#45;&gt;Node15</title>
<path fill="none" stroke="#191970" d="M1190.8009,-229.9248C1129.6856,-200.9534 946.538,-114.1334 874.5347,-80.0007"/>
<polygon fill="#191970" stroke="#191970" points="875.672,-76.6666 865.1367,-75.5457 872.6735,-82.9919 875.672,-76.6666"/>
</g>
<!-- Node37&#45;&gt;Node27 -->
<g id="edge69" class="edge">
<title>Node37&#45;&gt;Node27</title>
<path fill="none" stroke="#191970" d="M1207.8735,-229.9997C1203.7336,-215.5979 1198.1421,-187.8218 1209,-168 1216.7587,-153.836 1230.9409,-143.3995 1244.6795,-136.0818"/>
<polygon fill="#191970" stroke="#191970" points="1246.5898,-139.0438 1254.0356,-131.5066 1243.5146,-132.7555 1246.5898,-139.0438"/>
</g>
<!-- Node37&#45;&gt;Node33 -->
<g id="edge65" class="edge">
<title>Node37&#45;&gt;Node33</title>
<path fill="none" stroke="#191970" d="M1263.9071,-229.9581C1324.7254,-218.9894 1424.4647,-201.0012 1489.1757,-189.3305"/>
<polygon fill="#191970" stroke="#191970" points="1490.0294,-192.7331 1499.2494,-187.5137 1488.7869,-185.8442 1490.0294,-192.7331"/>
</g>
<!-- Node38 -->
<g id="node39" class="node">
<title>Node38</title>
<g id="a_node39"><a xlink:href="RotationRaw_8h.html" target="_top" xlink:title="iDynTree/Core/RotationRaw.h">
<polygon fill="none" stroke="#000000" points="1218,-168.5 1218,-187.5 1376,-187.5 1376,-168.5 1218,-168.5"/>
<text text-anchor="middle" x="1297" y="-175.5" font-family="FreeSans.ttf" font-size="10.00" fill="#000000">iDynTree/Core/RotationRaw.h</text>
</a>
</g>
</g>
<!-- Node37&#45;&gt;Node38 -->
<g id="edge66" class="edge">
<title>Node37&#45;&gt;Node38</title>
<path fill="none" stroke="#191970" d="M1224.4375,-229.8906C1238.0695,-220.1421 1259.3846,-204.8994 1275.3922,-193.4521"/>
<polygon fill="#191970" stroke="#191970" points="1277.5586,-196.2057 1283.6569,-187.5419 1273.4868,-190.5118 1277.5586,-196.2057"/>
</g>
<!-- Node38&#45;&gt;Node15 -->
<g id="edge68" class="edge">
<title>Node38&#45;&gt;Node15</title>
<path fill="none" stroke="#191970" d="M1274.0668,-168.4983C1239.1851,-154.37 1170.457,-127.7972 1110,-112 1066.4219,-100.6132 938.0334,-80.2654 877.4051,-70.9287"/>
<polygon fill="#191970" stroke="#191970" points="877.6655,-67.4278 867.2503,-69.3704 876.6036,-74.3468 877.6655,-67.4278"/>
</g>
<!-- Node38&#45;&gt;Node30 -->
<g id="edge67" class="edge">
<title>Node38&#45;&gt;Node30</title>
<path fill="none" stroke="#191970" d="M1325.0207,-168.3733C1352.0078,-159.1016 1393.0017,-145.0178 1422.7311,-134.804"/>
<polygon fill="#191970" stroke="#191970" points="1424.0248,-138.0605 1432.3449,-131.5011 1421.7503,-131.4403 1424.0248,-138.0605"/>
</g>
<!-- Node39&#45;&gt;Node27 -->
<g id="edge77" class="edge">
<title>Node39&#45;&gt;Node27</title>
<path fill="none" stroke="#191970" d="M1614.3799,-403.1407C1632.6953,-381.9086 1662,-341.5944 1662,-301 1662,-301 1662,-301 1662,-239.5 1662,-206.6194 1667.7474,-189.6496 1643,-168 1637.89,-163.5297 1477.2207,-144.4107 1371.6717,-132.272"/>
<polygon fill="#191970" stroke="#191970" points="1371.9704,-128.7834 1361.6364,-131.1198 1371.1719,-135.7377 1371.9704,-128.7834"/>
</g>
<!-- Node39&#45;&gt;Node33 -->
<g id="edge78" class="edge">
<title>Node39&#45;&gt;Node33</title>
<path fill="none" stroke="#191970" d="M1602.9916,-403.3556C1605.4066,-388.8282 1607.9571,-366.3112 1605,-347 1596.4233,-290.9901 1572.7326,-228.0488 1560.1305,-197.1756"/>
<polygon fill="#191970" stroke="#191970" points="1563.2454,-195.5502 1556.1784,-187.6567 1556.7805,-198.2344 1563.2454,-195.5502"/>
</g>
<!-- Node39&#45;&gt;Node34 -->
<g id="edge79" class="edge">
<title>Node39&#45;&gt;Node34</title>
<path fill="none" stroke="#191970" d="M1578.9888,-403.2977C1566.2066,-394.0495 1549.9054,-382.2551 1536.9552,-372.8853"/>
<polygon fill="#191970" stroke="#191970" points="1538.763,-369.8732 1528.6096,-366.8469 1534.6597,-375.5445 1538.763,-369.8732"/>
</g>
<!-- Node40&#45;&gt;Node15 -->
<g id="edge84" class="edge">
<title>Node40&#45;&gt;Node15</title>
<path fill="none" stroke="#191970" d="M981.9331,-347.4351C965.0365,-339.711 942.8863,-327.4245 928,-311 869.9576,-246.9601 870.5561,-216.4138 852,-132 848.6324,-116.6806 846.867,-98.9918 845.952,-85.7849"/>
<polygon fill="#191970" stroke="#191970" points="849.4286,-85.2823 845.3479,-75.5048 842.4406,-85.6929 849.4286,-85.2823"/>
</g>
<!-- Node40&#45;&gt;Node30 -->
<g id="edge83" class="edge">
<title>Node40&#45;&gt;Node30</title>
<path fill="none" stroke="#191970" d="M1041.0538,-347.4931C1095.5959,-332.0092 1203.3066,-298.6376 1288,-255 1334.5765,-231.0018 1343.7066,-220.2512 1385,-188 1405.2992,-172.1458 1427.2849,-152.4766 1442.1701,-138.7532"/>
<polygon fill="#191970" stroke="#191970" points="1444.7081,-141.1727 1449.6533,-131.8027 1439.9443,-136.0437 1444.7081,-141.1727"/>
</g>
<!-- Node40&#45;&gt;Node35 -->
<g id="edge81" class="edge">
<title>Node40&#45;&gt;Node35</title>
<path fill="none" stroke="#191970" d="M999.7293,-347.2455C994.7736,-339.5367 987.717,-328.5598 981.7224,-319.2348"/>
<polygon fill="#191970" stroke="#191970" points="984.5506,-317.1618 976.1989,-310.6427 978.6624,-320.9471 984.5506,-317.1618"/>
</g>
<!-- Node40&#45;&gt;Node37 -->
<g id="edge82" class="edge">
<title>Node40&#45;&gt;Node37</title>
<path fill="none" stroke="#191970" d="M1010.6379,-347.456C1018.0611,-333.1504 1033.9445,-306.2077 1055,-291 1081.7968,-271.6456 1116.3045,-259.2602 1146.0488,-251.5006"/>
<polygon fill="#191970" stroke="#191970" points="1147.0751,-254.8521 1155.9354,-249.043 1145.3864,-248.0588 1147.0751,-254.8521"/>
</g>
</g>
</svg>
