<?xml version="1.0" encoding="UTF-8" standalone="no"?>
<!DOCTYPE svg PUBLIC "-//W3C//DTD SVG 1.1//EN"
 "http://www.w3.org/Graphics/SVG/1.1/DTD/svg11.dtd">
<!-- Generated by graphviz version 2.40.1 (20161225.0304)
 -->
<!-- Title: InertiaNonLinearParametrization.cpp Pages: 1 -->
<svg width="1488pt" height="621pt"
 viewBox="0.00 0.00 1488.00 621.00" xmlns="http://www.w3.org/2000/svg" xmlns:xlink="http://www.w3.org/1999/xlink">
<g id="graph0" class="graph" transform="scale(1 1) rotate(0) translate(4 617)">
<title>InertiaNonLinearParametrization.cpp</title>
<!-- Node0 -->
<g id="node1" class="node">
<title>Node0</title>
<polygon fill="#bfbfbf" stroke="#000000" points="936,-593.5 936,-612.5 1131,-612.5 1131,-593.5 936,-593.5"/>
<text text-anchor="middle" x="1033.5" y="-600.5" font-family="FreeSans.ttf" font-size="10.00" fill="#000000">InertiaNonLinearParametrization.cpp</text>
</g>
<!-- Node1 -->
<g id="node2" class="node">
<title>Node1</title>
<g id="a_node2"><a xlink:href="InertiaNonLinearParametrization_8h.html" target="_top" xlink:title="iDynTree/Core/InertiaNon\lLinearParametrization.h">
<polygon fill="none" stroke="#000000" points="789,-403.5 789,-433.5 928,-433.5 928,-403.5 789,-403.5"/>
<text text-anchor="start" x="797" y="-421.5" font-family="FreeSans.ttf" font-size="10.00" fill="#000000">iDynTree/Core/InertiaNon</text>
<text text-anchor="middle" x="858.5" y="-410.5" font-family="FreeSans.ttf" font-size="10.00" fill="#000000">LinearParametrization.h</text>
</a>
</g>
</g>
<!-- Node0&#45;&gt;Node1 -->
<g id="edge1" class="edge">
<title>Node0&#45;&gt;Node1</title>
<path fill="none" stroke="#191970" d="M1037.9949,-593.4226C1048.3762,-569.7373 1071.0323,-507.6148 1042.5,-470 1029.4344,-452.7754 981.9718,-439.7397 938.5271,-431.0928"/>
<polygon fill="#191970" stroke="#191970" points="938.948,-427.6096 928.466,-429.1521 937.6221,-434.4829 938.948,-427.6096"/>
</g>
<!-- Node26 -->
<g id="node27" class="node">
<title>Node26</title>
<g id="a_node27"><a xlink:href="SpatialInertia_8h.html" target="_top" xlink:title="iDynTree/Core/SpatialInertia.h">
<polygon fill="none" stroke="#000000" points="342.5,-537.5 342.5,-556.5 504.5,-556.5 504.5,-537.5 342.5,-537.5"/>
<text text-anchor="middle" x="423.5" y="-544.5" font-family="FreeSans.ttf" font-size="10.00" fill="#000000">iDynTree/Core/SpatialInertia.h</text>
</a>
</g>
</g>
<!-- Node0&#45;&gt;Node26 -->
<g id="edge44" class="edge">
<title>Node0&#45;&gt;Node26</title>
<path fill="none" stroke="#191970" d="M935.8313,-594.0337C819.8475,-583.386 627.9071,-565.7652 514.7943,-555.3811"/>
<polygon fill="#191970" stroke="#191970" points="515.0505,-551.89 504.7724,-554.4611 514.4105,-558.8607 515.0505,-551.89"/>
</g>
<!-- Node36 -->
<g id="node37" class="node">
<title>Node36</title>
<polygon fill="none" stroke="#bfbfbf" points="1350,-409 1350,-428 1427,-428 1427,-409 1350,-409"/>
<text text-anchor="middle" x="1388.5" y="-416" font-family="FreeSans.ttf" font-size="10.00" fill="#000000">Eigen/Dense</text>
</g>
<!-- Node0&#45;&gt;Node36 -->
<g id="edge69" class="edge">
<title>Node0&#45;&gt;Node36</title>
<path fill="none" stroke="#191970" d="M1052.0865,-593.3402C1110.6762,-562.8901 1291.7197,-468.7985 1361.0765,-432.7525"/>
<polygon fill="#191970" stroke="#191970" points="1362.8383,-435.7814 1370.0975,-428.0641 1359.6102,-429.5701 1362.8383,-435.7814"/>
</g>
<!-- Node37 -->
<g id="node38" class="node">
<title>Node37</title>
<g id="a_node38"><a xlink:href="EigenHelpers_8h.html" target="_top" xlink:title="iDynTree/Core/EigenHelpers.h">
<polygon fill="none" stroke="#000000" points="872,-476 872,-495 1033,-495 1033,-476 872,-476"/>
<text text-anchor="middle" x="952.5" y="-483" font-family="FreeSans.ttf" font-size="10.00" fill="#000000">iDynTree/Core/EigenHelpers.h</text>
</a>
</g>
</g>
<!-- Node0&#45;&gt;Node37 -->
<g id="edge70" class="edge">
<title>Node0&#45;&gt;Node37</title>
<path fill="none" stroke="#191970" d="M1026.8714,-593.3845C1013.3437,-573.761 982.3683,-528.8274 964.9617,-503.5772"/>
<polygon fill="#191970" stroke="#191970" points="967.7775,-501.4951 959.2202,-495.2484 962.0142,-505.4682 967.7775,-501.4951"/>
</g>
<!-- Node2 -->
<g id="node3" class="node">
<title>Node2</title>
<g id="a_node3"><a xlink:href="VectorFixSize_8h.html" target="_top" xlink:title="iDynTree/Core/VectorFixSize.h">
<polygon fill="none" stroke="#000000" points="665,-112.5 665,-131.5 826,-131.5 826,-112.5 665,-112.5"/>
<text text-anchor="middle" x="745.5" y="-119.5" font-family="FreeSans.ttf" font-size="10.00" fill="#000000">iDynTree/Core/VectorFixSize.h</text>
</a>
</g>
</g>
<!-- Node1&#45;&gt;Node2 -->
<g id="edge2" class="edge">
<title>Node1&#45;&gt;Node2</title>
<path fill="none" stroke="#191970" d="M852.741,-403.3889C833.8515,-353.8248 773.7888,-196.2267 752.8136,-141.1901"/>
<polygon fill="#191970" stroke="#191970" points="755.9954,-139.7106 749.1635,-131.6127 749.4543,-142.2036 755.9954,-139.7106"/>
</g>
<!-- Node18 -->
<g id="node19" class="node">
<title>Node18</title>
<g id="a_node19"><a xlink:href="Rotation_8h.html" target="_top" xlink:title="iDynTree/Core/Rotation.h">
<polygon fill="none" stroke="#000000" points="821,-224.5 821,-243.5 958,-243.5 958,-224.5 821,-224.5"/>
<text text-anchor="middle" x="889.5" y="-231.5" font-family="FreeSans.ttf" font-size="10.00" fill="#000000">iDynTree/Core/Rotation.h</text>
</a>
</g>
</g>
<!-- Node1&#45;&gt;Node18 -->
<g id="edge20" class="edge">
<title>Node1&#45;&gt;Node18</title>
<path fill="none" stroke="#191970" d="M861.0369,-403.4016C866.6195,-370.1761 879.9662,-290.7418 886.1942,-253.6748"/>
<polygon fill="#191970" stroke="#191970" points="889.6766,-254.0712 887.882,-243.6295 882.7733,-252.9113 889.6766,-254.0712"/>
</g>
<!-- Node23 -->
<g id="node24" class="node">
<title>Node23</title>
<g id="a_node24"><a xlink:href="Transform_8h.html" target="_top" xlink:title="iDynTree/Core/Transform.h">
<polygon fill="none" stroke="#000000" points="885.5,-347.5 885.5,-366.5 1031.5,-366.5 1031.5,-347.5 885.5,-347.5"/>
<text text-anchor="middle" x="958.5" y="-354.5" font-family="FreeSans.ttf" font-size="10.00" fill="#000000">iDynTree/Core/Transform.h</text>
</a>
</g>
</g>
<!-- Node1&#45;&gt;Node23 -->
<g id="edge34" class="edge">
<title>Node1&#45;&gt;Node23</title>
<path fill="none" stroke="#191970" d="M882.9628,-403.4554C898.6235,-393.8241 918.8532,-381.3828 934.4356,-371.7996"/>
<polygon fill="#191970" stroke="#191970" points="936.319,-374.7503 943.0035,-366.5303 932.652,-368.7876 936.319,-374.7503"/>
</g>
<!-- Node3 -->
<g id="node4" class="node">
<title>Node3</title>
<g id="a_node4"><a xlink:href="Utils_8h.html" target="_top" xlink:title="iDynTree/Core/Utils.h">
<polygon fill="none" stroke="#000000" points="403,-56.5 403,-75.5 522,-75.5 522,-56.5 403,-56.5"/>
<text text-anchor="middle" x="462.5" y="-63.5" font-family="FreeSans.ttf" font-size="10.00" fill="#000000">iDynTree/Core/Utils.h</text>
</a>
</g>
</g>
<!-- Node2&#45;&gt;Node3 -->
<g id="edge3" class="edge">
<title>Node2&#45;&gt;Node3</title>
<path fill="none" stroke="#191970" d="M697.1721,-112.4369C648.3319,-102.7724 572.8324,-87.8326 520.7236,-77.5213"/>
<polygon fill="#191970" stroke="#191970" points="521.1178,-74.0315 510.6285,-75.5237 519.7589,-80.8983 521.1178,-74.0315"/>
</g>
<!-- Node6 -->
<g id="node7" class="node">
<title>Node6</title>
<g id="a_node7"><a xlink:href="Span_8h.html" target="_top" xlink:title="iDynTree/Core/Span.h">
<polygon fill="none" stroke="#000000" points="1106,-56.5 1106,-75.5 1227,-75.5 1227,-56.5 1106,-56.5"/>
<text text-anchor="middle" x="1166.5" y="-63.5" font-family="FreeSans.ttf" font-size="10.00" fill="#000000">iDynTree/Core/Span.h</text>
</a>
</g>
</g>
<!-- Node2&#45;&gt;Node6 -->
<g id="edge6" class="edge">
<title>Node2&#45;&gt;Node6</title>
<path fill="none" stroke="#191970" d="M820.1677,-112.4692C888.9573,-103.6303 994.16,-89.9659 1095.6724,-76.1009"/>
<polygon fill="#191970" stroke="#191970" points="1096.3664,-79.5387 1105.7997,-74.7153 1095.4175,-72.6033 1096.3664,-79.5387"/>
</g>
<!-- Node7 -->
<g id="node8" class="node">
<title>Node7</title>
<polygon fill="none" stroke="#bfbfbf" points="719.5,-.5 719.5,-19.5 771.5,-19.5 771.5,-.5 719.5,-.5"/>
<text text-anchor="middle" x="745.5" y="-7.5" font-family="FreeSans.ttf" font-size="10.00" fill="#000000">cassert</text>
</g>
<!-- Node2&#45;&gt;Node7 -->
<g id="edge18" class="edge">
<title>Node2&#45;&gt;Node7</title>
<path fill="none" stroke="#191970" d="M745.5,-112.4509C745.5,-94.184 745.5,-53.9553 745.5,-29.6976"/>
<polygon fill="#191970" stroke="#191970" points="749.0001,-29.5249 745.5,-19.5249 742.0001,-29.5249 749.0001,-29.5249"/>
</g>
<!-- Node15 -->
<g id="node16" class="node">
<title>Node15</title>
<polygon fill="none" stroke="#bfbfbf" points="1043.5,-56.5 1043.5,-75.5 1087.5,-75.5 1087.5,-56.5 1043.5,-56.5"/>
<text text-anchor="middle" x="1065.5" y="-63.5" font-family="FreeSans.ttf" font-size="10.00" fill="#000000">string</text>
</g>
<!-- Node2&#45;&gt;Node15 -->
<g id="edge16" class="edge">
<title>Node2&#45;&gt;Node15</title>
<path fill="none" stroke="#191970" d="M800.1464,-112.4369C867.0867,-100.7223 978.3167,-81.2571 1033.0493,-71.6789"/>
<polygon fill="#191970" stroke="#191970" points="1033.9657,-75.0718 1043.2127,-69.9003 1032.759,-68.1766 1033.9657,-75.0718"/>
</g>
<!-- Node16 -->
<g id="node17" class="node">
<title>Node16</title>
<polygon fill="none" stroke="#bfbfbf" points="540.5,-56.5 540.5,-75.5 596.5,-75.5 596.5,-56.5 540.5,-56.5"/>
<text text-anchor="middle" x="568.5" y="-63.5" font-family="FreeSans.ttf" font-size="10.00" fill="#000000">sstream</text>
</g>
<!-- Node2&#45;&gt;Node16 -->
<g id="edge17" class="edge">
<title>Node2&#45;&gt;Node16</title>
<path fill="none" stroke="#191970" d="M715.0726,-112.3733C684.9753,-102.851 638.8347,-88.2528 606.3789,-77.9843"/>
<polygon fill="#191970" stroke="#191970" points="607.3686,-74.6265 596.7786,-74.9469 605.2571,-81.3004 607.3686,-74.6265"/>
</g>
<!-- Node17 -->
<g id="node18" class="node">
<title>Node17</title>
<polygon fill="none" stroke="#bfbfbf" points="663.5,-56.5 663.5,-75.5 713.5,-75.5 713.5,-56.5 663.5,-56.5"/>
<text text-anchor="middle" x="688.5" y="-63.5" font-family="FreeSans.ttf" font-size="10.00" fill="#000000">cstring</text>
</g>
<!-- Node2&#45;&gt;Node17 -->
<g id="edge19" class="edge">
<title>Node2&#45;&gt;Node17</title>
<path fill="none" stroke="#191970" d="M735.5714,-112.2455C727.3162,-104.1352 715.3791,-92.4075 705.5918,-82.7919"/>
<polygon fill="#191970" stroke="#191970" points="707.9011,-80.1542 698.3149,-75.6427 702.9954,-85.1476 707.9011,-80.1542"/>
</g>
<!-- Node4 -->
<g id="node5" class="node">
<title>Node4</title>
<polygon fill="none" stroke="#bfbfbf" points="584,-.5 584,-19.5 637,-19.5 637,-.5 584,-.5"/>
<text text-anchor="middle" x="610.5" y="-7.5" font-family="FreeSans.ttf" font-size="10.00" fill="#000000">cstddef</text>
</g>
<!-- Node3&#45;&gt;Node4 -->
<g id="edge4" class="edge">
<title>Node3&#45;&gt;Node4</title>
<path fill="none" stroke="#191970" d="M487.9421,-56.3733C512.2326,-47.1822 549.0208,-33.2624 575.9543,-23.0713"/>
<polygon fill="#191970" stroke="#191970" points="577.2757,-26.3136 585.3899,-19.5011 574.7984,-19.7666 577.2757,-26.3136"/>
</g>
<!-- Node5 -->
<g id="node6" class="node">
<title>Node5</title>
<polygon fill="none" stroke="#bfbfbf" points="422.5,-.5 422.5,-19.5 502.5,-19.5 502.5,-.5 422.5,-.5"/>
<text text-anchor="middle" x="462.5" y="-7.5" font-family="FreeSans.ttf" font-size="10.00" fill="#000000">CoreExport.h</text>
</g>
<!-- Node3&#45;&gt;Node5 -->
<g id="edge5" class="edge">
<title>Node3&#45;&gt;Node5</title>
<path fill="none" stroke="#191970" d="M462.5,-56.2455C462.5,-48.9382 462.5,-38.6944 462.5,-29.7046"/>
<polygon fill="#191970" stroke="#191970" points="466.0001,-29.6426 462.5,-19.6427 459.0001,-29.6427 466.0001,-29.6426"/>
</g>
<!-- Node6&#45;&gt;Node4 -->
<g id="edge10" class="edge">
<title>Node6&#45;&gt;Node4</title>
<path fill="none" stroke="#191970" d="M1105.8173,-57.1459C1102.6681,-56.7444 1099.5479,-56.3596 1096.5,-56 925.3869,-35.8105 882.0012,-36.5723 710.5,-20 689.5459,-17.9752 666.13,-15.6376 647.2276,-13.732"/>
<polygon fill="#191970" stroke="#191970" points="647.5361,-10.2454 637.2349,-12.7224 646.8324,-17.2099 647.5361,-10.2454"/>
</g>
<!-- Node6&#45;&gt;Node7 -->
<g id="edge7" class="edge">
<title>Node6&#45;&gt;Node7</title>
<path fill="none" stroke="#191970" d="M1105.7997,-57.2847C1102.655,-56.8469 1099.5407,-56.4164 1096.5,-56 981.7184,-40.2805 845.6592,-22.7694 781.894,-14.6284"/>
<polygon fill="#191970" stroke="#191970" points="782.2954,-11.1514 771.9329,-13.3579 781.4096,-18.0951 782.2954,-11.1514"/>
</g>
<!-- Node8 -->
<g id="node9" class="node">
<title>Node8</title>
<polygon fill="none" stroke="#bfbfbf" points="1207.5,-.5 1207.5,-19.5 1271.5,-19.5 1271.5,-.5 1207.5,-.5"/>
<text text-anchor="middle" x="1239.5" y="-7.5" font-family="FreeSans.ttf" font-size="10.00" fill="#000000">algorithm</text>
</g>
<!-- Node6&#45;&gt;Node8 -->
<g id="edge8" class="edge">
<title>Node6&#45;&gt;Node8</title>
<path fill="none" stroke="#191970" d="M1179.2156,-56.2455C1190.102,-47.8943 1205.9883,-35.7076 1218.72,-25.9408"/>
<polygon fill="#191970" stroke="#191970" points="1221.1261,-28.5063 1226.9301,-19.6427 1216.8654,-22.9523 1221.1261,-28.5063"/>
</g>
<!-- Node9 -->
<g id="node10" class="node">
<title>Node9</title>
<polygon fill="none" stroke="#bfbfbf" points="1289.5,-.5 1289.5,-19.5 1331.5,-19.5 1331.5,-.5 1289.5,-.5"/>
<text text-anchor="middle" x="1310.5" y="-7.5" font-family="FreeSans.ttf" font-size="10.00" fill="#000000">array</text>
</g>
<!-- Node6&#45;&gt;Node9 -->
<g id="edge9" class="edge">
<title>Node6&#45;&gt;Node9</title>
<path fill="none" stroke="#191970" d="M1191.2545,-56.3733C1215.7831,-46.8343 1253.4096,-32.2018 1279.8214,-21.9306"/>
<polygon fill="#191970" stroke="#191970" points="1281.2927,-25.1138 1289.3442,-18.2273 1278.7555,-18.5898 1281.2927,-25.1138"/>
</g>
<!-- Node10 -->
<g id="node11" class="node">
<title>Node10</title>
<polygon fill="none" stroke="#bfbfbf" points="1350,-.5 1350,-19.5 1403,-19.5 1403,-.5 1350,-.5"/>
<text text-anchor="middle" x="1376.5" y="-7.5" font-family="FreeSans.ttf" font-size="10.00" fill="#000000">iterator</text>
</g>
<!-- Node6&#45;&gt;Node10 -->
<g id="edge11" class="edge">
<title>Node6&#45;&gt;Node10</title>
<path fill="none" stroke="#191970" d="M1203.1967,-56.4408C1236.3708,-47.7675 1286.8069,-34.5031 1339.844,-20.1548"/>
<polygon fill="#191970" stroke="#191970" points="1341.0375,-23.4577 1349.7739,-17.4639 1339.2065,-16.7014 1341.0375,-23.4577"/>
</g>
<!-- Node11 -->
<g id="node12" class="node">
<title>Node11</title>
<polygon fill="none" stroke="#bfbfbf" points="911.5,-.5 911.5,-19.5 955.5,-19.5 955.5,-.5 911.5,-.5"/>
<text text-anchor="middle" x="933.5" y="-7.5" font-family="FreeSans.ttf" font-size="10.00" fill="#000000">limits</text>
</g>
<!-- Node6&#45;&gt;Node11 -->
<g id="edge12" class="edge">
<title>Node6&#45;&gt;Node11</title>
<path fill="none" stroke="#191970" d="M1119.9423,-56.4212C1079.0399,-47.7504 1018.0287,-34.1952 965.5,-20 965.4017,-19.9734 965.3032,-19.9468 965.2046,-19.92"/>
<polygon fill="#191970" stroke="#191970" points="966.3926,-16.6199 955.8146,-17.2168 964.456,-23.3467 966.3926,-16.6199"/>
</g>
<!-- Node12 -->
<g id="node13" class="node">
<title>Node12</title>
<polygon fill="none" stroke="#bfbfbf" points="974,-.5 974,-19.5 1039,-19.5 1039,-.5 974,-.5"/>
<text text-anchor="middle" x="1006.5" y="-7.5" font-family="FreeSans.ttf" font-size="10.00" fill="#000000">stdexcept</text>
</g>
<!-- Node6&#45;&gt;Node12 -->
<g id="edge13" class="edge">
<title>Node6&#45;&gt;Node12</title>
<path fill="none" stroke="#191970" d="M1138.995,-56.3733C1112.6198,-47.1419 1072.6149,-33.1402 1043.4642,-22.9375"/>
<polygon fill="#191970" stroke="#191970" points="1044.2409,-19.5012 1033.6461,-19.5011 1041.9284,-26.1082 1044.2409,-19.5012"/>
</g>
<!-- Node13 -->
<g id="node14" class="node">
<title>Node13</title>
<polygon fill="none" stroke="#bfbfbf" points="1057,-.5 1057,-19.5 1126,-19.5 1126,-.5 1057,-.5"/>
<text text-anchor="middle" x="1091.5" y="-7.5" font-family="FreeSans.ttf" font-size="10.00" fill="#000000">type_traits</text>
</g>
<!-- Node6&#45;&gt;Node13 -->
<g id="edge14" class="edge">
<title>Node6&#45;&gt;Node13</title>
<path fill="none" stroke="#191970" d="M1153.436,-56.2455C1142.1438,-47.814 1125.6155,-35.4729 1112.4729,-25.6598"/>
<polygon fill="#191970" stroke="#191970" points="1114.5211,-22.8211 1104.4143,-19.6427 1110.3331,-28.4301 1114.5211,-22.8211"/>
</g>
<!-- Node14 -->
<g id="node15" class="node">
<title>Node14</title>
<polygon fill="none" stroke="#bfbfbf" points="1144,-.5 1144,-19.5 1189,-19.5 1189,-.5 1144,-.5"/>
<text text-anchor="middle" x="1166.5" y="-7.5" font-family="FreeSans.ttf" font-size="10.00" fill="#000000">utility</text>
</g>
<!-- Node6&#45;&gt;Node14 -->
<g id="edge15" class="edge">
<title>Node6&#45;&gt;Node14</title>
<path fill="none" stroke="#191970" d="M1166.5,-56.2455C1166.5,-48.9382 1166.5,-38.6944 1166.5,-29.7046"/>
<polygon fill="#191970" stroke="#191970" points="1170.0001,-29.6426 1166.5,-19.6427 1163.0001,-29.6427 1170.0001,-29.6426"/>
</g>
<!-- Node18&#45;&gt;Node2 -->
<g id="edge33" class="edge">
<title>Node18&#45;&gt;Node2</title>
<path fill="none" stroke="#191970" d="M865.9245,-224.4256C847.568,-216.3142 822.015,-203.5374 802.5,-188 785.0109,-174.0756 768.734,-154.2572 758.0891,-139.9762"/>
<polygon fill="#191970" stroke="#191970" points="760.6541,-137.5511 751.9511,-131.5088 754.9865,-141.6595 760.6541,-137.5511"/>
</g>
<!-- Node18&#45;&gt;Node15 -->
<g id="edge21" class="edge">
<title>Node18&#45;&gt;Node15</title>
<path fill="none" stroke="#191970" d="M958.1486,-231.686C1027.6053,-227.7287 1128.1225,-217.0113 1152.5,-188 1183.2018,-151.4622 1125.2234,-104.6401 1089.8972,-81.0369"/>
<polygon fill="#191970" stroke="#191970" points="1091.7629,-78.0752 1081.4718,-75.5567 1087.9462,-83.9431 1091.7629,-78.0752"/>
</g>
<!-- Node19 -->
<g id="node20" class="node">
<title>Node19</title>
<g id="a_node20"><a xlink:href="GeomVector3_8h.html" target="_top" xlink:title="iDynTree/Core/GeomVector3.h">
<polygon fill="none" stroke="#000000" points="402,-168.5 402,-187.5 565,-187.5 565,-168.5 402,-168.5"/>
<text text-anchor="middle" x="483.5" y="-175.5" font-family="FreeSans.ttf" font-size="10.00" fill="#000000">iDynTree/Core/GeomVector3.h</text>
</a>
</g>
</g>
<!-- Node18&#45;&gt;Node19 -->
<g id="edge22" class="edge">
<title>Node18&#45;&gt;Node19</title>
<path fill="none" stroke="#191970" d="M820.6276,-224.5004C749.3231,-214.6652 638.0557,-199.318 563.0459,-188.9718"/>
<polygon fill="#191970" stroke="#191970" points="563.0947,-185.4455 552.7102,-187.5462 562.1382,-192.3799 563.0947,-185.4455"/>
</g>
<!-- Node20 -->
<g id="node21" class="node">
<title>Node20</title>
<g id="a_node21"><a xlink:href="RotationRaw_8h.html" target="_top" xlink:title="iDynTree/Core/RotationRaw.h">
<polygon fill="none" stroke="#000000" points="811.5,-168.5 811.5,-187.5 969.5,-187.5 969.5,-168.5 811.5,-168.5"/>
<text text-anchor="middle" x="890.5" y="-175.5" font-family="FreeSans.ttf" font-size="10.00" fill="#000000">iDynTree/Core/RotationRaw.h</text>
</a>
</g>
</g>
<!-- Node18&#45;&gt;Node20 -->
<g id="edge24" class="edge">
<title>Node18&#45;&gt;Node20</title>
<path fill="none" stroke="#191970" d="M889.6742,-224.2455C889.8047,-216.9382 889.9876,-206.6944 890.1481,-197.7046"/>
<polygon fill="#191970" stroke="#191970" points="893.6486,-197.7036 890.3278,-187.6427 886.6497,-197.5786 893.6486,-197.7036"/>
</g>
<!-- Node19&#45;&gt;Node2 -->
<g id="edge23" class="edge">
<title>Node19&#45;&gt;Node2</title>
<path fill="none" stroke="#191970" d="M528.2417,-168.4369C573.2694,-158.8127 642.7728,-143.957 690.9927,-133.6504"/>
<polygon fill="#191970" stroke="#191970" points="691.8953,-137.0366 700.9428,-131.5237 690.4321,-130.1912 691.8953,-137.0366"/>
</g>
<!-- Node20&#45;&gt;Node15 -->
<g id="edge32" class="edge">
<title>Node20&#45;&gt;Node15</title>
<path fill="none" stroke="#191970" d="M905.4204,-168.4509C935.8998,-148.9441 1005.5106,-104.3932 1042.0768,-80.9909"/>
<polygon fill="#191970" stroke="#191970" points="1044.0813,-83.8634 1050.6174,-75.5249 1040.3079,-77.9675 1044.0813,-83.8634"/>
</g>
<!-- Node21 -->
<g id="node22" class="node">
<title>Node21</title>
<g id="a_node22"><a xlink:href="MatrixFixSize_8h.html" target="_top" xlink:title="iDynTree/Core/MatrixFixSize.h">
<polygon fill="none" stroke="#000000" points="486,-112.5 486,-131.5 647,-131.5 647,-112.5 486,-112.5"/>
<text text-anchor="middle" x="566.5" y="-119.5" font-family="FreeSans.ttf" font-size="10.00" fill="#000000">iDynTree/Core/MatrixFixSize.h</text>
</a>
</g>
</g>
<!-- Node20&#45;&gt;Node21 -->
<g id="edge25" class="edge">
<title>Node20&#45;&gt;Node21</title>
<path fill="none" stroke="#191970" d="M835.1706,-168.4369C778.7885,-158.6918 691.3742,-143.5832 631.673,-133.2645"/>
<polygon fill="#191970" stroke="#191970" points="632.0513,-129.778 621.6012,-131.5237 630.859,-136.6758 632.0513,-129.778"/>
</g>
<!-- Node21&#45;&gt;Node3 -->
<g id="edge26" class="edge">
<title>Node21&#45;&gt;Node3</title>
<path fill="none" stroke="#191970" d="M548.3846,-112.2455C532.055,-103.4527 507.829,-90.4079 489.2661,-80.4125"/>
<polygon fill="#191970" stroke="#191970" points="490.8719,-77.3021 480.4078,-75.6427 487.5532,-83.4654 490.8719,-77.3021"/>
</g>
<!-- Node21&#45;&gt;Node7 -->
<g id="edge27" class="edge">
<title>Node21&#45;&gt;Node7</title>
<path fill="none" stroke="#191970" d="M577.9877,-112.3473C594.3587,-98.8372 625.623,-73.9346 654.5,-56 673.7864,-44.0218 696.5876,-32.5003 714.5416,-23.9841"/>
<polygon fill="#191970" stroke="#191970" points="716.3881,-26.9845 723.9643,-19.5782 713.4231,-20.6434 716.3881,-26.9845"/>
</g>
<!-- Node21&#45;&gt;Node15 -->
<g id="edge29" class="edge">
<title>Node21&#45;&gt;Node15</title>
<path fill="none" stroke="#191970" d="M647.0301,-112.9511C649.8886,-112.6301 652.7187,-112.3123 655.5,-112 796.0358,-96.221 963.6706,-77.4195 1033.0124,-69.6431"/>
<polygon fill="#191970" stroke="#191970" points="1033.7306,-73.0846 1043.2782,-68.4919 1032.9504,-66.1282 1033.7306,-73.0846"/>
</g>
<!-- Node21&#45;&gt;Node16 -->
<g id="edge31" class="edge">
<title>Node21&#45;&gt;Node16</title>
<path fill="none" stroke="#191970" d="M566.8484,-112.2455C567.1093,-104.9382 567.4752,-94.6944 567.7963,-85.7046"/>
<polygon fill="#191970" stroke="#191970" points="571.2964,-85.7613 568.1556,-75.6427 564.3008,-85.5113 571.2964,-85.7613"/>
</g>
<!-- Node21&#45;&gt;Node17 -->
<g id="edge28" class="edge">
<title>Node21&#45;&gt;Node17</title>
<path fill="none" stroke="#191970" d="M587.4725,-112.3733C607.0567,-103.3838 636.4961,-89.8706 658.551,-79.7471"/>
<polygon fill="#191970" stroke="#191970" points="660.1729,-82.8538 667.8011,-75.5011 657.2527,-76.4919 660.1729,-82.8538"/>
</g>
<!-- Node22 -->
<g id="node23" class="node">
<title>Node22</title>
<polygon fill="none" stroke="#bfbfbf" points="221.5,-56.5 221.5,-75.5 281.5,-75.5 281.5,-56.5 221.5,-56.5"/>
<text text-anchor="middle" x="251.5" y="-63.5" font-family="FreeSans.ttf" font-size="10.00" fill="#000000">iostream</text>
</g>
<!-- Node21&#45;&gt;Node22 -->
<g id="edge30" class="edge">
<title>Node21&#45;&gt;Node22</title>
<path fill="none" stroke="#191970" d="M512.7075,-112.4369C450.0124,-101.2911 347.8505,-83.129 291.6732,-73.1419"/>
<polygon fill="#191970" stroke="#191970" points="292.197,-69.6802 281.7387,-71.3758 290.9717,-76.5722 292.197,-69.6802"/>
</g>
<!-- Node23&#45;&gt;Node15 -->
<g id="edge43" class="edge">
<title>Node23&#45;&gt;Node15</title>
<path fill="none" stroke="#191970" d="M988.7937,-347.4678C1011.6801,-339.5399 1043.3397,-326.9831 1068.5,-311 1132.1849,-270.5441 1161.236,-259.4402 1185.5,-188 1193.4515,-164.5885 1171.2491,-112.8719 1170.5,-112 1160.5083,-100.3707 1124.5083,-86.0767 1097.4265,-76.5383"/>
<polygon fill="#191970" stroke="#191970" points="1098.512,-73.2104 1087.9172,-73.2531 1096.2261,-79.8267 1098.512,-73.2104"/>
</g>
<!-- Node23&#45;&gt;Node18 -->
<g id="edge41" class="edge">
<title>Node23&#45;&gt;Node18</title>
<path fill="none" stroke="#191970" d="M946.4891,-347.1906C936.6472,-338.5774 923.0023,-325.2304 914.5,-311 903.7228,-292.9621 897.0071,-269.732 893.2846,-253.5256"/>
<polygon fill="#191970" stroke="#191970" points="896.6732,-252.6331 891.1726,-243.5781 889.8259,-254.087 896.6732,-252.6331"/>
</g>
<!-- Node23&#45;&gt;Node21 -->
<g id="edge42" class="edge">
<title>Node23&#45;&gt;Node21</title>
<path fill="none" stroke="#191970" d="M942.6476,-347.4967C882.0713,-311.1818 664.9305,-181.0081 591.1995,-136.8071"/>
<polygon fill="#191970" stroke="#191970" points="592.9261,-133.7615 582.5496,-131.6216 589.3269,-139.7653 592.9261,-133.7615"/>
</g>
<!-- Node24 -->
<g id="node25" class="node">
<title>Node24</title>
<g id="a_node25"><a xlink:href="Position_8h.html" target="_top" xlink:title="iDynTree/Core/Position.h">
<polygon fill="none" stroke="#000000" points="923.5,-286 923.5,-305 1059.5,-305 1059.5,-286 923.5,-286"/>
<text text-anchor="middle" x="991.5" y="-293" font-family="FreeSans.ttf" font-size="10.00" fill="#000000">iDynTree/Core/Position.h</text>
</a>
</g>
</g>
<!-- Node23&#45;&gt;Node24 -->
<g id="edge35" class="edge">
<title>Node23&#45;&gt;Node24</title>
<path fill="none" stroke="#191970" d="M963.6563,-347.3906C968.4232,-338.5068 975.6385,-325.0601 981.5297,-314.0811"/>
<polygon fill="#191970" stroke="#191970" points="984.6269,-315.7114 986.2711,-305.2449 978.4588,-312.4016 984.6269,-315.7114"/>
</g>
<!-- Node24&#45;&gt;Node15 -->
<g id="edge40" class="edge">
<title>Node24&#45;&gt;Node15</title>
<path fill="none" stroke="#191970" d="M1026.7505,-285.9001C1069.544,-272.1374 1139.7914,-242.2632 1170.5,-188 1182.7501,-166.3536 1159.5316,-121.4705 1151.5,-112 1137.204,-95.1426 1115.1261,-83.5162 1096.9198,-76.1693"/>
<polygon fill="#191970" stroke="#191970" points="1098.1377,-72.888 1087.5464,-72.6172 1095.6572,-79.4338 1098.1377,-72.888"/>
</g>
<!-- Node24&#45;&gt;Node18 -->
<g id="edge39" class="edge">
<title>Node24&#45;&gt;Node18</title>
<path fill="none" stroke="#191970" d="M975.5625,-285.8906C959.0949,-275.9616 933.1742,-260.333 914.0796,-248.8201"/>
<polygon fill="#191970" stroke="#191970" points="915.6966,-245.7081 905.3256,-243.5419 912.0822,-251.7027 915.6966,-245.7081"/>
</g>
<!-- Node25 -->
<g id="node26" class="node">
<title>Node25</title>
<g id="a_node26"><a xlink:href="PositionRaw_8h.html" target="_top" xlink:title="iDynTree/Core/PositionRaw.h">
<polygon fill="none" stroke="#000000" points="987.5,-168.5 987.5,-187.5 1143.5,-187.5 1143.5,-168.5 987.5,-168.5"/>
<text text-anchor="middle" x="1065.5" y="-175.5" font-family="FreeSans.ttf" font-size="10.00" fill="#000000">iDynTree/Core/PositionRaw.h</text>
</a>
</g>
</g>
<!-- Node24&#45;&gt;Node25 -->
<g id="edge36" class="edge">
<title>Node24&#45;&gt;Node25</title>
<path fill="none" stroke="#191970" d="M997.5557,-285.8845C1009.8602,-266.3471 1037.965,-221.7211 1053.9053,-196.4106"/>
<polygon fill="#191970" stroke="#191970" points="1056.9931,-198.0753 1059.3606,-187.7484 1051.0699,-194.3449 1056.9931,-198.0753"/>
</g>
<!-- Node25&#45;&gt;Node2 -->
<g id="edge37" class="edge">
<title>Node25&#45;&gt;Node2</title>
<path fill="none" stroke="#191970" d="M1010.8536,-168.4369C955.1677,-158.6918 868.8325,-143.5832 809.8684,-133.2645"/>
<polygon fill="#191970" stroke="#191970" points="810.3746,-129.7999 799.921,-131.5237 809.1679,-136.6952 810.3746,-129.7999"/>
</g>
<!-- Node25&#45;&gt;Node15 -->
<g id="edge38" class="edge">
<title>Node25&#45;&gt;Node15</title>
<path fill="none" stroke="#191970" d="M1065.5,-168.4509C1065.5,-150.184 1065.5,-109.9553 1065.5,-85.6976"/>
<polygon fill="#191970" stroke="#191970" points="1069.0001,-85.5249 1065.5,-75.5249 1062.0001,-85.5249 1069.0001,-85.5249"/>
</g>
<!-- Node26&#45;&gt;Node2 -->
<g id="edge48" class="edge">
<title>Node26&#45;&gt;Node2</title>
<path fill="none" stroke="#191970" d="M342.2396,-540.8645C286.0792,-534.7385 218.3844,-522.9501 200.5,-501 191.7972,-490.3188 196.9235,-483.3055 200.5,-470 240.7693,-320.1889 246.1371,-253.6167 375.5,-168 381.3094,-164.1552 546.707,-144.6704 654.3742,-132.3252"/>
<polygon fill="#191970" stroke="#191970" points="655.0693,-135.7686 664.6061,-131.1536 654.2729,-128.8141 655.0693,-135.7686"/>
</g>
<!-- Node27 -->
<g id="node28" class="node">
<title>Node27</title>
<g id="a_node28"><a xlink:href="SpatialInertiaRaw_8h.html" target="_top" xlink:title="iDynTree/Core/SpatialInertia\lRaw.h">
<polygon fill="none" stroke="#000000" points="0,-470.5 0,-500.5 153,-500.5 153,-470.5 0,-470.5"/>
<text text-anchor="start" x="8" y="-488.5" font-family="FreeSans.ttf" font-size="10.00" fill="#000000">iDynTree/Core/SpatialInertia</text>
<text text-anchor="middle" x="76.5" y="-477.5" font-family="FreeSans.ttf" font-size="10.00" fill="#000000">Raw.h</text>
</a>
</g>
</g>
<!-- Node26&#45;&gt;Node27 -->
<g id="edge45" class="edge">
<title>Node26&#45;&gt;Node27</title>
<path fill="none" stroke="#191970" d="M369.662,-537.4581C314.5497,-527.6904 228.0295,-512.3561 163.2423,-500.8736"/>
<polygon fill="#191970" stroke="#191970" points="163.4964,-497.3642 153.039,-499.0653 162.2748,-504.2568 163.4964,-497.3642"/>
</g>
<!-- Node29 -->
<g id="node30" class="node">
<title>Node29</title>
<g id="a_node30"><a xlink:href="Twist_8h.html" target="_top" xlink:title="iDynTree/Core/Twist.h">
<polygon fill="none" stroke="#000000" points="209.5,-476 209.5,-495 331.5,-495 331.5,-476 209.5,-476"/>
<text text-anchor="middle" x="270.5" y="-483" font-family="FreeSans.ttf" font-size="10.00" fill="#000000">iDynTree/Core/Twist.h</text>
</a>
</g>
</g>
<!-- Node26&#45;&gt;Node29 -->
<g id="edge49" class="edge">
<title>Node26&#45;&gt;Node29</title>
<path fill="none" stroke="#191970" d="M399.5938,-537.3906C373.7695,-527.0103 332.4473,-510.4004 303.5295,-498.7766"/>
<polygon fill="#191970" stroke="#191970" points="304.8222,-495.5241 294.2384,-495.0419 302.2115,-502.019 304.8222,-495.5241"/>
</g>
<!-- Node32 -->
<g id="node33" class="node">
<title>Node32</title>
<g id="a_node33"><a xlink:href="SpatialMomentum_8h.html" target="_top" xlink:title="iDynTree/Core/SpatialMomentum.h">
<polygon fill="none" stroke="#000000" points="667.5,-476 667.5,-495 853.5,-495 853.5,-476 667.5,-476"/>
<text text-anchor="middle" x="760.5" y="-483" font-family="FreeSans.ttf" font-size="10.00" fill="#000000">iDynTree/Core/SpatialMomentum.h</text>
</a>
</g>
</g>
<!-- Node26&#45;&gt;Node32 -->
<g id="edge60" class="edge">
<title>Node26&#45;&gt;Node32</title>
<path fill="none" stroke="#191970" d="M475.7865,-537.4581C535.8914,-526.4894 634.4607,-508.5012 698.4127,-496.8305"/>
<polygon fill="#191970" stroke="#191970" points="699.159,-500.2522 708.3681,-495.0137 697.9022,-493.3659 699.159,-500.2522"/>
</g>
<!-- Node34 -->
<g id="node35" class="node">
<title>Node34</title>
<g id="a_node35"><a xlink:href="SpatialAcc_8h.html" target="_top" xlink:title="iDynTree/Core/SpatialAcc.h">
<polygon fill="none" stroke="#000000" points="349.5,-476 349.5,-495 497.5,-495 497.5,-476 349.5,-476"/>
<text text-anchor="middle" x="423.5" y="-483" font-family="FreeSans.ttf" font-size="10.00" fill="#000000">iDynTree/Core/SpatialAcc.h</text>
</a>
</g>
</g>
<!-- Node26&#45;&gt;Node34 -->
<g id="edge65" class="edge">
<title>Node26&#45;&gt;Node34</title>
<path fill="none" stroke="#191970" d="M423.5,-537.3906C423.5,-528.8657 423.5,-516.1392 423.5,-505.4235"/>
<polygon fill="#191970" stroke="#191970" points="427.0001,-505.2448 423.5,-495.2449 420.0001,-505.2449 427.0001,-505.2448"/>
</g>
<!-- Node35 -->
<g id="node36" class="node">
<title>Node35</title>
<g id="a_node36"><a xlink:href="Wrench_8h.html" target="_top" xlink:title="iDynTree/Core/Wrench.h">
<polygon fill="none" stroke="#000000" points="516,-476 516,-495 649,-495 649,-476 516,-476"/>
<text text-anchor="middle" x="582.5" y="-483" font-family="FreeSans.ttf" font-size="10.00" fill="#000000">iDynTree/Core/Wrench.h</text>
</a>
</g>
</g>
<!-- Node26&#45;&gt;Node35 -->
<g id="edge67" class="edge">
<title>Node26&#45;&gt;Node35</title>
<path fill="none" stroke="#191970" d="M448.3438,-537.3906C475.1807,-527.0103 518.1233,-510.4004 548.1753,-498.7766"/>
<polygon fill="#191970" stroke="#191970" points="549.7667,-501.9138 557.8307,-495.0419 547.2414,-495.3851 549.7667,-501.9138"/>
</g>
<!-- Node28 -->
<g id="node29" class="node">
<title>Node28</title>
<g id="a_node29"><a xlink:href="RotationalInertiaRaw_8h.html" target="_top" xlink:title="iDynTree/Core/Rotational\lInertiaRaw.h">
<polygon fill="none" stroke="#000000" points="94,-280.5 94,-310.5 231,-310.5 231,-280.5 94,-280.5"/>
<text text-anchor="start" x="102" y="-298.5" font-family="FreeSans.ttf" font-size="10.00" fill="#000000">iDynTree/Core/Rotational</text>
<text text-anchor="middle" x="162.5" y="-287.5" font-family="FreeSans.ttf" font-size="10.00" fill="#000000">InertiaRaw.h</text>
</a>
</g>
</g>
<!-- Node27&#45;&gt;Node28 -->
<g id="edge46" class="edge">
<title>Node27&#45;&gt;Node28</title>
<path fill="none" stroke="#191970" d="M83.3924,-470.2727C98.2739,-437.395 133.5178,-359.5305 151.5135,-319.7725"/>
<polygon fill="#191970" stroke="#191970" points="154.7591,-321.0896 155.6942,-310.5361 148.382,-318.2031 154.7591,-321.0896"/>
</g>
<!-- Node28&#45;&gt;Node21 -->
<g id="edge47" class="edge">
<title>Node28&#45;&gt;Node21</title>
<path fill="none" stroke="#191970" d="M176.1694,-280.4725C201.8077,-253.3033 260.0914,-196.2185 321.5,-168 350.0777,-154.868 425.1768,-141.82 484.7616,-132.9934"/>
<polygon fill="#191970" stroke="#191970" points="485.5472,-136.4158 494.935,-131.5047 484.5336,-129.4896 485.5472,-136.4158"/>
</g>
<!-- Node30 -->
<g id="node31" class="node">
<title>Node30</title>
<g id="a_node31"><a xlink:href="SpatialMotionVector_8h.html" target="_top" xlink:title="iDynTree/Core/SpatialMotion\lVector.h">
<polygon fill="none" stroke="#000000" points="318,-403.5 318,-433.5 473,-433.5 473,-403.5 318,-403.5"/>
<text text-anchor="start" x="326" y="-421.5" font-family="FreeSans.ttf" font-size="10.00" fill="#000000">iDynTree/Core/SpatialMotion</text>
<text text-anchor="middle" x="395.5" y="-410.5" font-family="FreeSans.ttf" font-size="10.00" fill="#000000">Vector.h</text>
</a>
</g>
</g>
<!-- Node29&#45;&gt;Node30 -->
<g id="edge50" class="edge">
<title>Node29&#45;&gt;Node30</title>
<path fill="none" stroke="#191970" d="M288.4095,-475.9005C306.6459,-466.1258 335.4505,-450.6865 358.5948,-438.2812"/>
<polygon fill="#191970" stroke="#191970" points="360.314,-441.3308 367.4743,-433.5218 357.0071,-435.1612 360.314,-441.3308"/>
</g>
<!-- Node30&#45;&gt;Node2 -->
<g id="edge51" class="edge">
<title>Node30&#45;&gt;Node2</title>
<path fill="none" stroke="#191970" d="M389.1754,-403.3841C372.254,-360.2659 331.2386,-235.4491 392.5,-168 396.9235,-163.1298 551.7278,-144.3769 654.8447,-132.3708"/>
<polygon fill="#191970" stroke="#191970" points="655.4374,-135.8256 664.9665,-131.1946 654.6293,-128.8723 655.4374,-135.8256"/>
</g>
<!-- Node30&#45;&gt;Node19 -->
<g id="edge52" class="edge">
<title>Node30&#45;&gt;Node19</title>
<path fill="none" stroke="#191970" d="M392.4079,-403.4565C389.9686,-388.8091 387.7011,-366.0345 392.5,-347 407.6347,-286.9699 448.728,-225.0642 470.1324,-195.6202"/>
<polygon fill="#191970" stroke="#191970" points="472.9596,-197.6836 476.0926,-187.5626 467.3318,-193.5208 472.9596,-197.6836"/>
</g>
<!-- Node31 -->
<g id="node32" class="node">
<title>Node31</title>
<g id="a_node32"><a xlink:href="SpatialVector_8h.html" target="_top" xlink:title="iDynTree/Core/SpatialVector.h">
<polygon fill="none" stroke="#000000" points="402,-347.5 402,-366.5 563,-366.5 563,-347.5 402,-347.5"/>
<text text-anchor="middle" x="482.5" y="-354.5" font-family="FreeSans.ttf" font-size="10.00" fill="#000000">iDynTree/Core/SpatialVector.h</text>
</a>
</g>
</g>
<!-- Node30&#45;&gt;Node31 -->
<g id="edge53" class="edge">
<title>Node30&#45;&gt;Node31</title>
<path fill="none" stroke="#191970" d="M417.0056,-403.2977C430.2968,-393.9022 447.3057,-381.8787 460.6588,-372.4395"/>
<polygon fill="#191970" stroke="#191970" points="462.6846,-375.2937 468.83,-366.6633 458.6439,-369.5776 462.6846,-375.2937"/>
</g>
<!-- Node31&#45;&gt;Node3 -->
<g id="edge56" class="edge">
<title>Node31&#45;&gt;Node3</title>
<path fill="none" stroke="#191970" d="M475.1728,-347.4225C456.7897,-322.7142 409.0073,-254.1154 392.5,-188 382.1367,-146.4926 418.7419,-104.6589 442.8827,-82.3853"/>
<polygon fill="#191970" stroke="#191970" points="445.3563,-84.8695 450.5059,-75.6103 440.7062,-79.6372 445.3563,-84.8695"/>
</g>
<!-- Node31&#45;&gt;Node16 -->
<g id="edge59" class="edge">
<title>Node31&#45;&gt;Node16</title>
<path fill="none" stroke="#191970" d="M409.79,-347.4994C344.7143,-334.4346 259.5,-303.9686 259.5,-234 259.5,-234 259.5,-234 259.5,-178 259.5,-163.741 447.9324,-103.4527 530.5014,-77.7196"/>
<polygon fill="#191970" stroke="#191970" points="531.7492,-80.997 540.2592,-74.6858 529.6709,-74.3126 531.7492,-80.997"/>
</g>
<!-- Node31&#45;&gt;Node18 -->
<g id="edge55" class="edge">
<title>Node31&#45;&gt;Node18</title>
<path fill="none" stroke="#191970" d="M514.0979,-347.4507C586.9061,-325.4473 766.4658,-271.1823 848.0128,-246.5379"/>
<polygon fill="#191970" stroke="#191970" points="849.3623,-249.7865 857.9222,-243.5432 847.3372,-243.0858 849.3623,-249.7865"/>
</g>
<!-- Node31&#45;&gt;Node19 -->
<g id="edge57" class="edge">
<title>Node31&#45;&gt;Node19</title>
<path fill="none" stroke="#191970" d="M482.5538,-347.3762C482.7111,-319.2097 483.1731,-236.5126 483.3879,-198.0713"/>
<polygon fill="#191970" stroke="#191970" points="486.89,-197.6908 483.446,-187.6714 479.8901,-197.6517 486.89,-197.6908"/>
</g>
<!-- Node31&#45;&gt;Node22 -->
<g id="edge58" class="edge">
<title>Node31&#45;&gt;Node22</title>
<path fill="none" stroke="#191970" d="M469.2913,-347.2032C457.8535,-338.3927 441.1971,-324.7549 428.5,-311 356.8462,-233.3769 288.4283,-126.3253 262.4694,-84.1344"/>
<polygon fill="#191970" stroke="#191970" points="265.3947,-82.2092 257.1946,-75.5003 259.4212,-85.8585 265.3947,-82.2092"/>
</g>
<!-- Node31&#45;&gt;Node24 -->
<g id="edge54" class="edge">
<title>Node31&#45;&gt;Node24</title>
<path fill="none" stroke="#191970" d="M561.1941,-347.4918C656.909,-335.927 817.5016,-316.5234 913.0886,-304.9741"/>
<polygon fill="#191970" stroke="#191970" points="913.7642,-308.418 923.2722,-303.7436 912.9245,-301.4685 913.7642,-308.418"/>
</g>
<!-- Node33 -->
<g id="node34" class="node">
<title>Node33</title>
<g id="a_node34"><a xlink:href="SpatialForceVector_8h.html" target="_top" xlink:title="iDynTree/Core/SpatialForce\lVector.h">
<polygon fill="none" stroke="#000000" points="508.5,-403.5 508.5,-433.5 656.5,-433.5 656.5,-403.5 508.5,-403.5"/>
<text text-anchor="start" x="516.5" y="-421.5" font-family="FreeSans.ttf" font-size="10.00" fill="#000000">iDynTree/Core/SpatialForce</text>
<text text-anchor="middle" x="582.5" y="-410.5" font-family="FreeSans.ttf" font-size="10.00" fill="#000000">Vector.h</text>
</a>
</g>
</g>
<!-- Node32&#45;&gt;Node33 -->
<g id="edge61" class="edge">
<title>Node32&#45;&gt;Node33</title>
<path fill="none" stroke="#191970" d="M734.9969,-475.9005C708.224,-465.8231 665.4551,-449.7247 632.0145,-437.1375"/>
<polygon fill="#191970" stroke="#191970" points="633.0005,-433.7689 622.4086,-433.5218 630.5346,-440.3202 633.0005,-433.7689"/>
</g>
<!-- Node33&#45;&gt;Node2 -->
<g id="edge62" class="edge">
<title>Node33&#45;&gt;Node2</title>
<path fill="none" stroke="#191970" d="M586.7513,-403.214C598.6627,-362.1999 635.344,-247.4567 693.5,-168 701.8424,-156.602 713.4436,-146 723.5719,-137.8537"/>
<polygon fill="#191970" stroke="#191970" points="725.8585,-140.5099 731.6294,-131.6247 721.5772,-134.9718 725.8585,-140.5099"/>
</g>
<!-- Node33&#45;&gt;Node19 -->
<g id="edge63" class="edge">
<title>Node33&#45;&gt;Node19</title>
<path fill="none" stroke="#191970" d="M581.6123,-403.3792C580.4168,-388.6746 577.6736,-365.8588 571.5,-347 552.4627,-288.8459 514.9906,-226.4952 495.6648,-196.3762"/>
<polygon fill="#191970" stroke="#191970" points="498.4589,-194.2526 490.0741,-187.776 492.5899,-198.0678 498.4589,-194.2526"/>
</g>
<!-- Node33&#45;&gt;Node31 -->
<g id="edge64" class="edge">
<title>Node33&#45;&gt;Node31</title>
<path fill="none" stroke="#191970" d="M558.0372,-403.4554C542.3765,-393.8241 522.1468,-381.3828 506.5644,-371.7996"/>
<polygon fill="#191970" stroke="#191970" points="508.348,-368.7876 497.9965,-366.5303 504.681,-374.7503 508.348,-368.7876"/>
</g>
<!-- Node34&#45;&gt;Node30 -->
<g id="edge66" class="edge">
<title>Node34&#45;&gt;Node30</title>
<path fill="none" stroke="#191970" d="M419.4883,-475.9005C415.9094,-467.3368 410.5135,-454.4252 405.7452,-443.0152"/>
<polygon fill="#191970" stroke="#191970" points="408.8631,-441.3989 401.7778,-433.5218 402.4044,-444.0981 408.8631,-441.3989"/>
</g>
<!-- Node35&#45;&gt;Node33 -->
<g id="edge68" class="edge">
<title>Node35&#45;&gt;Node33</title>
<path fill="none" stroke="#191970" d="M582.5,-475.9005C582.5,-467.5099 582.5,-454.9451 582.5,-443.7085"/>
<polygon fill="#191970" stroke="#191970" points="586.0001,-443.5217 582.5,-433.5218 579.0001,-443.5218 586.0001,-443.5217"/>
</g>
<!-- Node37&#45;&gt;Node2 -->
<g id="edge75" class="edge">
<title>Node37&#45;&gt;Node2</title>
<path fill="none" stroke="#191970" d="M897.5944,-475.9641C852.8813,-467.0181 794.7517,-452.2922 779.5,-434 706.8556,-346.8738 729.8803,-195.11 741.0138,-141.4641"/>
<polygon fill="#191970" stroke="#191970" points="744.4615,-142.0804 743.1703,-131.5645 737.6219,-140.5904 744.4615,-142.0804"/>
</g>
<!-- Node37&#45;&gt;Node3 -->
<g id="edge82" class="edge">
<title>Node37&#45;&gt;Node3</title>
<path fill="none" stroke="#191970" d="M902.6517,-475.949C889.6236,-473.7183 875.5686,-471.5456 862.5,-470 617.4662,-441.0206 545.3905,-503.0237 308.5,-434 199.4574,-402.2279 142.3397,-408.7462 84.5,-311 5.7854,-177.9765 273.9329,-104.3184 400.2654,-77.6507"/>
<polygon fill="#191970" stroke="#191970" points="401.1274,-81.0464 410.2074,-75.5872 399.7048,-74.1925 401.1274,-81.0464"/>
</g>
<!-- Node37&#45;&gt;Node21 -->
<g id="edge78" class="edge">
<title>Node37&#45;&gt;Node21</title>
<path fill="none" stroke="#191970" d="M898.1207,-475.938C848.2243,-466.3322 778.7876,-450.6071 756.5,-434 649.9433,-354.6017 590.5327,-196.163 572.4754,-141.2599"/>
<polygon fill="#191970" stroke="#191970" points="575.8006,-140.1671 569.4136,-131.7139 569.135,-142.3051 575.8006,-140.1671"/>
</g>
<!-- Node37&#45;&gt;Node23 -->
<g id="edge81" class="edge">
<title>Node37&#45;&gt;Node23</title>
<path fill="none" stroke="#191970" d="M952.951,-475.8416C953.9283,-454.9114 956.2586,-405.004 957.5673,-376.9762"/>
<polygon fill="#191970" stroke="#191970" points="961.0735,-376.9229 958.0438,-366.7705 954.0811,-376.5963 961.0735,-376.9229"/>
</g>
<!-- Node37&#45;&gt;Node30 -->
<g id="edge79" class="edge">
<title>Node37&#45;&gt;Node30</title>
<path fill="none" stroke="#191970" d="M900.7228,-475.9295C888.2342,-473.8021 874.912,-471.6821 862.5,-470 701.8438,-448.2278 660.392,-453.9554 499.5,-434 494.1784,-433.34 488.7087,-432.6273 483.195,-431.8828"/>
<polygon fill="#191970" stroke="#191970" points="483.6292,-428.4097 473.2453,-430.5128 482.6743,-435.3442 483.6292,-428.4097"/>
</g>
<!-- Node37&#45;&gt;Node33 -->
<g id="edge80" class="edge">
<title>Node37&#45;&gt;Node33</title>
<path fill="none" stroke="#191970" d="M899.881,-475.9717C839.0955,-464.9646 738.269,-446.7068 666.5787,-433.7251"/>
<polygon fill="#191970" stroke="#191970" points="667.1271,-430.2675 656.6635,-431.9296 665.8798,-437.1555 667.1271,-430.2675"/>
</g>
<!-- Node37&#45;&gt;Node36 -->
<g id="edge71" class="edge">
<title>Node37&#45;&gt;Node36</title>
<path fill="none" stroke="#191970" d="M1033.0609,-478.2358C1110.9848,-470.3722 1232.1324,-455.9338 1335.5,-434 1339.8915,-433.0681 1344.4499,-431.9586 1348.967,-430.7675"/>
<polygon fill="#191970" stroke="#191970" points="1350.0076,-434.1111 1358.7094,-428.0671 1348.1378,-427.3654 1350.0076,-434.1111"/>
</g>
<!-- Node38 -->
<g id="node39" class="node">
<title>Node38</title>
<g id="a_node39"><a xlink:href="VectorDynSize_8h.html" target="_top" xlink:title="iDynTree/Core/VectorDynSize.h">
<polygon fill="none" stroke="#000000" points="1313,-112.5 1313,-131.5 1480,-131.5 1480,-112.5 1313,-112.5"/>
<text text-anchor="middle" x="1396.5" y="-119.5" font-family="FreeSans.ttf" font-size="10.00" fill="#000000">iDynTree/Core/VectorDynSize.h</text>
</a>
</g>
</g>
<!-- Node37&#45;&gt;Node38 -->
<g id="edge72" class="edge">
<title>Node37&#45;&gt;Node38</title>
<path fill="none" stroke="#191970" d="M1006.227,-475.967C1107.3727,-454.7998 1324.0097,-393.4092 1414.5,-244 1433.9964,-211.8093 1418.2319,-166.305 1406.4378,-140.9479"/>
<polygon fill="#191970" stroke="#191970" points="1409.4449,-139.1313 1401.8916,-131.7018 1403.1631,-142.22 1409.4449,-139.1313"/>
</g>
<!-- Node39 -->
<g id="node40" class="node">
<title>Node39</title>
<g id="a_node40"><a xlink:href="MatrixDynSize_8h.html" target="_top" xlink:title="iDynTree/Core/MatrixDynSize.h">
<polygon fill="none" stroke="#000000" points="1238,-224.5 1238,-243.5 1405,-243.5 1405,-224.5 1238,-224.5"/>
<text text-anchor="middle" x="1321.5" y="-231.5" font-family="FreeSans.ttf" font-size="10.00" fill="#000000">iDynTree/Core/MatrixDynSize.h</text>
</a>
</g>
</g>
<!-- Node37&#45;&gt;Node39 -->
<g id="edge76" class="edge">
<title>Node37&#45;&gt;Node39</title>
<path fill="none" stroke="#191970" d="M1033.2777,-478.5761C1129.4177,-469.5531 1279.3268,-452.7034 1297.5,-434 1345.3936,-384.7092 1333.8979,-293.2331 1325.9711,-253.3884"/>
<polygon fill="#191970" stroke="#191970" points="1329.3917,-252.6469 1323.8823,-243.5973 1322.5458,-254.1075 1329.3917,-252.6469"/>
</g>
<!-- Node38&#45;&gt;Node6 -->
<g id="edge73" class="edge">
<title>Node38&#45;&gt;Node6</title>
<path fill="none" stroke="#191970" d="M1357.2229,-112.4369C1318.0256,-102.8932 1257.7,-88.2052 1215.4165,-77.9101"/>
<polygon fill="#191970" stroke="#191970" points="1216.1592,-74.4888 1205.6151,-75.5237 1214.5032,-81.2901 1216.1592,-74.4888"/>
</g>
<!-- Node38&#45;&gt;Node15 -->
<g id="edge74" class="edge">
<title>Node38&#45;&gt;Node15</title>
<path fill="none" stroke="#191970" d="M1312.7279,-112.5335C1252.4278,-104.8909 1169.3854,-92.6623 1097.5,-76 1097.4008,-75.977 1097.3014,-75.9538 1097.2019,-75.9305"/>
<polygon fill="#191970" stroke="#191970" points="1098.3252,-72.6075 1087.762,-73.4261 1096.5301,-79.3735 1098.3252,-72.6075"/>
</g>
<!-- Node39&#45;&gt;Node15 -->
<g id="edge77" class="edge">
<title>Node39&#45;&gt;Node15</title>
<path fill="none" stroke="#191970" d="M1319.6984,-224.2791C1314.8414,-200.9544 1299.2079,-141.5629 1261.5,-112 1202.7725,-65.9579 1169.6261,-95.1473 1097.5,-76 1097.4016,-75.9739 1097.303,-75.9476 1097.2042,-75.9213"/>
<polygon fill="#191970" stroke="#191970" points="1098.3841,-72.6183 1087.8077,-73.2424 1096.4649,-79.35 1098.3841,-72.6183"/>
</g>
</g>
</svg>
