<?xml version="1.0" encoding="UTF-8" standalone="no"?>
<!DOCTYPE svg PUBLIC "-//W3C//DTD SVG 1.1//EN"
 "http://www.w3.org/Graphics/SVG/1.1/DTD/svg11.dtd">
<!-- Generated by graphviz version 2.40.1 (20161225.0304)
 -->
<!-- Title: InertiaNonLinearParametrization.h Pages: 1 -->
<svg width="942pt" height="420pt"
 viewBox="0.00 0.00 941.50 420.00" xmlns="http://www.w3.org/2000/svg" xmlns:xlink="http://www.w3.org/1999/xlink">
<g id="graph0" class="graph" transform="scale(1 1) rotate(0) translate(4 416)">
<title>InertiaNonLinearParametrization.h</title>
<!-- Node0 -->
<g id="node1" class="node">
<title>Node0</title>
<polygon fill="#bfbfbf" stroke="#000000" points="601,-392.5 601,-411.5 785,-411.5 785,-392.5 601,-392.5"/>
<text text-anchor="middle" x="693" y="-399.5" font-family="FreeSans.ttf" font-size="10.00" fill="#000000">InertiaNonLinearParametrization.h</text>
</g>
<!-- Node1 -->
<g id="node2" class="node">
<title>Node1</title>
<g id="a_node2"><a xlink:href="VectorFixSize_8h.html" target="_top" xlink:title="iDynTree/Core/VectorFixSize.h">
<polygon fill="none" stroke="#000000" points="384.5,-112.5 384.5,-131.5 545.5,-131.5 545.5,-112.5 384.5,-112.5"/>
<text text-anchor="middle" x="465" y="-119.5" font-family="FreeSans.ttf" font-size="10.00" fill="#000000">iDynTree/Core/VectorFixSize.h</text>
</a>
</g>
</g>
<!-- Node0&#45;&gt;Node1 -->
<g id="edge1" class="edge">
<title>Node0&#45;&gt;Node1</title>
<path fill="none" stroke="#191970" d="M698.607,-392.4834C709.1774,-373.6141 731,-329.8343 731,-290 731,-290 731,-290 731,-234 731,-197.989 714.1315,-187.7201 684,-168 661.6682,-153.3846 600.2252,-141.2072 548.0855,-133.0608"/>
<polygon fill="#191970" stroke="#191970" points="548.548,-129.5909 538.1334,-131.5364 547.4881,-136.5102 548.548,-129.5909"/>
</g>
<!-- Node17 -->
<g id="node18" class="node">
<title>Node17</title>
<g id="a_node18"><a xlink:href="Rotation_8h.html" target="_top" xlink:title="iDynTree/Core/Rotation.h">
<polygon fill="none" stroke="#000000" points="393.5,-224.5 393.5,-243.5 530.5,-243.5 530.5,-224.5 393.5,-224.5"/>
<text text-anchor="middle" x="462" y="-231.5" font-family="FreeSans.ttf" font-size="10.00" fill="#000000">iDynTree/Core/Rotation.h</text>
</a>
</g>
</g>
<!-- Node0&#45;&gt;Node17 -->
<g id="edge19" class="edge">
<title>Node0&#45;&gt;Node17</title>
<path fill="none" stroke="#191970" d="M679.9186,-392.4862C641.8115,-364.772 530.6174,-283.9036 483.4993,-249.6358"/>
<polygon fill="#191970" stroke="#191970" points="485.3703,-246.6688 475.2243,-243.6177 481.253,-252.33 485.3703,-246.6688"/>
</g>
<!-- Node22 -->
<g id="node23" class="node">
<title>Node22</title>
<g id="a_node23"><a xlink:href="Transform_8h.html" target="_top" xlink:title="iDynTree/Core/Transform.h">
<polygon fill="none" stroke="#000000" points="389,-336.5 389,-355.5 535,-355.5 535,-336.5 389,-336.5"/>
<text text-anchor="middle" x="462" y="-343.5" font-family="FreeSans.ttf" font-size="10.00" fill="#000000">iDynTree/Core/Transform.h</text>
</a>
</g>
</g>
<!-- Node0&#45;&gt;Node22 -->
<g id="edge33" class="edge">
<title>Node0&#45;&gt;Node22</title>
<path fill="none" stroke="#191970" d="M653.5522,-392.4369C614.1844,-382.8932 553.5966,-368.2052 511.1292,-357.9101"/>
<polygon fill="#191970" stroke="#191970" points="511.8283,-354.4783 501.2851,-355.5237 510.179,-361.2812 511.8283,-354.4783"/>
</g>
<!-- Node2 -->
<g id="node3" class="node">
<title>Node2</title>
<g id="a_node3"><a xlink:href="Utils_8h.html" target="_top" xlink:title="iDynTree/Core/Utils.h">
<polygon fill="none" stroke="#000000" points="194.5,-56.5 194.5,-75.5 313.5,-75.5 313.5,-56.5 194.5,-56.5"/>
<text text-anchor="middle" x="254" y="-63.5" font-family="FreeSans.ttf" font-size="10.00" fill="#000000">iDynTree/Core/Utils.h</text>
</a>
</g>
</g>
<!-- Node1&#45;&gt;Node2 -->
<g id="edge2" class="edge">
<title>Node1&#45;&gt;Node2</title>
<path fill="none" stroke="#191970" d="M428.7278,-112.3733C393.0342,-102.9001 338.4121,-88.4032 299.7549,-78.1435"/>
<polygon fill="#191970" stroke="#191970" points="300.3621,-74.6835 289.7989,-75.5011 298.5664,-81.4493 300.3621,-74.6835"/>
</g>
<!-- Node5 -->
<g id="node6" class="node">
<title>Node5</title>
<g id="a_node6"><a xlink:href="Span_8h.html" target="_top" xlink:title="iDynTree/Core/Span.h">
<polygon fill="none" stroke="#000000" points="550.5,-56.5 550.5,-75.5 671.5,-75.5 671.5,-56.5 550.5,-56.5"/>
<text text-anchor="middle" x="611" y="-63.5" font-family="FreeSans.ttf" font-size="10.00" fill="#000000">iDynTree/Core/Span.h</text>
</a>
</g>
</g>
<!-- Node1&#45;&gt;Node5 -->
<g id="edge5" class="edge">
<title>Node1&#45;&gt;Node5</title>
<path fill="none" stroke="#191970" d="M490.0983,-112.3733C513.9555,-103.2226 550.0335,-89.3844 576.571,-79.2057"/>
<polygon fill="#191970" stroke="#191970" points="578.1459,-82.3503 586.2292,-75.5011 575.639,-75.8145 578.1459,-82.3503"/>
</g>
<!-- Node6 -->
<g id="node7" class="node">
<title>Node6</title>
<polygon fill="none" stroke="#bfbfbf" points="372,-.5 372,-19.5 424,-19.5 424,-.5 372,-.5"/>
<text text-anchor="middle" x="398" y="-7.5" font-family="FreeSans.ttf" font-size="10.00" fill="#000000">cassert</text>
</g>
<!-- Node1&#45;&gt;Node6 -->
<g id="edge17" class="edge">
<title>Node1&#45;&gt;Node6</title>
<path fill="none" stroke="#191970" d="M477.5436,-112.3989C492.9967,-99.3693 515.7322,-75.4783 503,-56 494.9264,-43.6486 460.9749,-30.1717 433.8343,-21.0176"/>
<polygon fill="#191970" stroke="#191970" points="434.7967,-17.6498 424.2038,-17.8508 432.61,-24.2995 434.7967,-17.6498"/>
</g>
<!-- Node14 -->
<g id="node15" class="node">
<title>Node14</title>
<polygon fill="none" stroke="#bfbfbf" points="54,-56.5 54,-75.5 98,-75.5 98,-56.5 54,-56.5"/>
<text text-anchor="middle" x="76" y="-63.5" font-family="FreeSans.ttf" font-size="10.00" fill="#000000">string</text>
</g>
<!-- Node1&#45;&gt;Node14 -->
<g id="edge15" class="edge">
<title>Node1&#45;&gt;Node14</title>
<path fill="none" stroke="#191970" d="M384.8465,-112.4937C295.0465,-101.7286 156.609,-84.7537 108.2598,-75.7613"/>
<polygon fill="#191970" stroke="#191970" points="108.7138,-72.2818 98.2154,-73.7078 107.3117,-79.14 108.7138,-72.2818"/>
</g>
<!-- Node15 -->
<g id="node16" class="node">
<title>Node15</title>
<polygon fill="none" stroke="#bfbfbf" points="438,-56.5 438,-75.5 494,-75.5 494,-56.5 438,-56.5"/>
<text text-anchor="middle" x="466" y="-63.5" font-family="FreeSans.ttf" font-size="10.00" fill="#000000">sstream</text>
</g>
<!-- Node1&#45;&gt;Node15 -->
<g id="edge16" class="edge">
<title>Node1&#45;&gt;Node15</title>
<path fill="none" stroke="#191970" d="M465.1742,-112.2455C465.3047,-104.9382 465.4876,-94.6944 465.6481,-85.7046"/>
<polygon fill="#191970" stroke="#191970" points="469.1486,-85.7036 465.8278,-75.6427 462.1497,-85.5786 469.1486,-85.7036"/>
</g>
<!-- Node16 -->
<g id="node17" class="node">
<title>Node16</title>
<polygon fill="none" stroke="#bfbfbf" points="370,-56.5 370,-75.5 420,-75.5 420,-56.5 370,-56.5"/>
<text text-anchor="middle" x="395" y="-63.5" font-family="FreeSans.ttf" font-size="10.00" fill="#000000">cstring</text>
</g>
<!-- Node1&#45;&gt;Node16 -->
<g id="edge18" class="edge">
<title>Node1&#45;&gt;Node16</title>
<path fill="none" stroke="#191970" d="M452.8069,-112.2455C442.3679,-103.8943 427.1345,-91.7076 414.926,-81.9408"/>
<polygon fill="#191970" stroke="#191970" points="417.0485,-79.1566 407.0533,-75.6427 412.6756,-84.6227 417.0485,-79.1566"/>
</g>
<!-- Node3 -->
<g id="node4" class="node">
<title>Node3</title>
<polygon fill="none" stroke="#bfbfbf" points="300.5,-.5 300.5,-19.5 353.5,-19.5 353.5,-.5 300.5,-.5"/>
<text text-anchor="middle" x="327" y="-7.5" font-family="FreeSans.ttf" font-size="10.00" fill="#000000">cstddef</text>
</g>
<!-- Node2&#45;&gt;Node3 -->
<g id="edge3" class="edge">
<title>Node2&#45;&gt;Node3</title>
<path fill="none" stroke="#191970" d="M266.7156,-56.2455C277.602,-47.8943 293.4883,-35.7076 306.22,-25.9408"/>
<polygon fill="#191970" stroke="#191970" points="308.6261,-28.5063 314.4301,-19.6427 304.3654,-22.9523 308.6261,-28.5063"/>
</g>
<!-- Node4 -->
<g id="node5" class="node">
<title>Node4</title>
<polygon fill="none" stroke="#bfbfbf" points="202,-.5 202,-19.5 282,-19.5 282,-.5 202,-.5"/>
<text text-anchor="middle" x="242" y="-7.5" font-family="FreeSans.ttf" font-size="10.00" fill="#000000">CoreExport.h</text>
</g>
<!-- Node2&#45;&gt;Node4 -->
<g id="edge4" class="edge">
<title>Node2&#45;&gt;Node4</title>
<path fill="none" stroke="#191970" d="M251.9098,-56.2455C250.3439,-48.9382 248.1488,-38.6944 246.2224,-29.7046"/>
<polygon fill="#191970" stroke="#191970" points="249.584,-28.6873 244.0663,-19.6427 242.7393,-30.1541 249.584,-28.6873"/>
</g>
<!-- Node5&#45;&gt;Node3 -->
<g id="edge9" class="edge">
<title>Node5&#45;&gt;Node3</title>
<path fill="none" stroke="#191970" d="M551.5705,-56.4804C503.4071,-48.423 433.6108,-35.9746 363.5545,-19.9701"/>
<polygon fill="#191970" stroke="#191970" points="364.2008,-16.5274 353.6698,-17.6883 362.6263,-23.348 364.2008,-16.5274"/>
</g>
<!-- Node5&#45;&gt;Node6 -->
<g id="edge6" class="edge">
<title>Node5&#45;&gt;Node6</title>
<path fill="none" stroke="#191970" d="M573.0776,-56.4968C539.1051,-47.9174 487.6705,-34.7664 434.3312,-20.3189"/>
<polygon fill="#191970" stroke="#191970" points="434.9212,-16.8524 424.3532,-17.607 433.0852,-23.6073 434.9212,-16.8524"/>
</g>
<!-- Node7 -->
<g id="node8" class="node">
<title>Node7</title>
<polygon fill="none" stroke="#bfbfbf" points="442,-.5 442,-19.5 506,-19.5 506,-.5 442,-.5"/>
<text text-anchor="middle" x="474" y="-7.5" font-family="FreeSans.ttf" font-size="10.00" fill="#000000">algorithm</text>
</g>
<!-- Node5&#45;&gt;Node7 -->
<g id="edge7" class="edge">
<title>Node5&#45;&gt;Node7</title>
<path fill="none" stroke="#191970" d="M587.4489,-56.3733C565.1609,-47.2629 531.5063,-33.5062 506.6363,-23.3404"/>
<polygon fill="#191970" stroke="#191970" points="507.8247,-20.0451 497.2438,-19.5011 505.1761,-26.5247 507.8247,-20.0451"/>
</g>
<!-- Node8 -->
<g id="node9" class="node">
<title>Node8</title>
<polygon fill="none" stroke="#bfbfbf" points="524,-.5 524,-19.5 566,-19.5 566,-.5 524,-.5"/>
<text text-anchor="middle" x="545" y="-7.5" font-family="FreeSans.ttf" font-size="10.00" fill="#000000">array</text>
</g>
<!-- Node5&#45;&gt;Node8 -->
<g id="edge8" class="edge">
<title>Node5&#45;&gt;Node8</title>
<path fill="none" stroke="#191970" d="M599.5037,-56.2455C589.7558,-47.9746 575.5741,-35.9416 564.1202,-26.2232"/>
<polygon fill="#191970" stroke="#191970" points="566.2541,-23.4437 556.3646,-19.6427 561.7253,-28.7813 566.2541,-23.4437"/>
</g>
<!-- Node9 -->
<g id="node10" class="node">
<title>Node9</title>
<polygon fill="none" stroke="#bfbfbf" points="584.5,-.5 584.5,-19.5 637.5,-19.5 637.5,-.5 584.5,-.5"/>
<text text-anchor="middle" x="611" y="-7.5" font-family="FreeSans.ttf" font-size="10.00" fill="#000000">iterator</text>
</g>
<!-- Node5&#45;&gt;Node9 -->
<g id="edge10" class="edge">
<title>Node5&#45;&gt;Node9</title>
<path fill="none" stroke="#191970" d="M611,-56.2455C611,-48.9382 611,-38.6944 611,-29.7046"/>
<polygon fill="#191970" stroke="#191970" points="614.5001,-29.6426 611,-19.6427 607.5001,-29.6427 614.5001,-29.6426"/>
</g>
<!-- Node10 -->
<g id="node11" class="node">
<title>Node10</title>
<polygon fill="none" stroke="#bfbfbf" points="656,-.5 656,-19.5 700,-19.5 700,-.5 656,-.5"/>
<text text-anchor="middle" x="678" y="-7.5" font-family="FreeSans.ttf" font-size="10.00" fill="#000000">limits</text>
</g>
<!-- Node5&#45;&gt;Node10 -->
<g id="edge11" class="edge">
<title>Node5&#45;&gt;Node10</title>
<path fill="none" stroke="#191970" d="M622.6705,-56.2455C632.5661,-47.9746 646.9627,-35.9416 658.5901,-26.2232"/>
<polygon fill="#191970" stroke="#191970" points="661.035,-28.7413 666.4632,-19.6427 656.5458,-23.3703 661.035,-28.7413"/>
</g>
<!-- Node11 -->
<g id="node12" class="node">
<title>Node11</title>
<polygon fill="none" stroke="#bfbfbf" points="718.5,-.5 718.5,-19.5 783.5,-19.5 783.5,-.5 718.5,-.5"/>
<text text-anchor="middle" x="751" y="-7.5" font-family="FreeSans.ttf" font-size="10.00" fill="#000000">stdexcept</text>
</g>
<!-- Node5&#45;&gt;Node11 -->
<g id="edge12" class="edge">
<title>Node5&#45;&gt;Node11</title>
<path fill="none" stroke="#191970" d="M635.0669,-56.3733C657.8428,-47.2629 692.2344,-33.5062 717.649,-23.3404"/>
<polygon fill="#191970" stroke="#191970" points="719.2623,-26.4648 727.2472,-19.5011 716.6625,-19.9654 719.2623,-26.4648"/>
</g>
<!-- Node12 -->
<g id="node13" class="node">
<title>Node12</title>
<polygon fill="none" stroke="#bfbfbf" points="801.5,-.5 801.5,-19.5 870.5,-19.5 870.5,-.5 801.5,-.5"/>
<text text-anchor="middle" x="836" y="-7.5" font-family="FreeSans.ttf" font-size="10.00" fill="#000000">type_traits</text>
</g>
<!-- Node5&#45;&gt;Node12 -->
<g id="edge13" class="edge">
<title>Node5&#45;&gt;Node12</title>
<path fill="none" stroke="#191970" d="M649.4232,-56.4369C688.8471,-46.6247 750.119,-31.3748 791.5948,-21.052"/>
<polygon fill="#191970" stroke="#191970" points="792.5685,-24.4165 801.4271,-18.6048 790.8778,-17.6237 792.5685,-24.4165"/>
</g>
<!-- Node13 -->
<g id="node14" class="node">
<title>Node13</title>
<polygon fill="none" stroke="#bfbfbf" points="888.5,-.5 888.5,-19.5 933.5,-19.5 933.5,-.5 888.5,-.5"/>
<text text-anchor="middle" x="911" y="-7.5" font-family="FreeSans.ttf" font-size="10.00" fill="#000000">utility</text>
</g>
<!-- Node5&#45;&gt;Node13 -->
<g id="edge14" class="edge">
<title>Node5&#45;&gt;Node13</title>
<path fill="none" stroke="#191970" d="M671.6026,-58.1578C724.2073,-50.7799 802.5095,-38.4308 878.6628,-20.0825"/>
<polygon fill="#191970" stroke="#191970" points="879.5384,-23.4716 888.42,-17.6952 877.8747,-16.6722 879.5384,-23.4716"/>
</g>
<!-- Node17&#45;&gt;Node1 -->
<g id="edge32" class="edge">
<title>Node17&#45;&gt;Node1</title>
<path fill="none" stroke="#191970" d="M462.2558,-224.4509C462.7451,-206.184 463.8226,-165.9553 464.4724,-141.6976"/>
<polygon fill="#191970" stroke="#191970" points="467.9758,-141.6151 464.7449,-131.5249 460.9783,-141.4276 467.9758,-141.6151"/>
</g>
<!-- Node17&#45;&gt;Node14 -->
<g id="edge20" class="edge">
<title>Node17&#45;&gt;Node14</title>
<path fill="none" stroke="#191970" d="M393.4007,-229.8202C293.0998,-223.0547 115.9941,-208.3775 95,-188 67.6783,-161.4808 69.1237,-113.0284 72.5696,-85.8463"/>
<polygon fill="#191970" stroke="#191970" points="76.0805,-86.0315 74.0909,-75.6251 69.1568,-85.0009 76.0805,-86.0315"/>
</g>
<!-- Node18 -->
<g id="node19" class="node">
<title>Node18</title>
<g id="a_node19"><a xlink:href="GeomVector3_8h.html" target="_top" xlink:title="iDynTree/Core/GeomVector3.h">
<polygon fill="none" stroke="#000000" points="492.5,-168.5 492.5,-187.5 655.5,-187.5 655.5,-168.5 492.5,-168.5"/>
<text text-anchor="middle" x="574" y="-175.5" font-family="FreeSans.ttf" font-size="10.00" fill="#000000">iDynTree/Core/GeomVector3.h</text>
</a>
</g>
</g>
<!-- Node17&#45;&gt;Node18 -->
<g id="edge21" class="edge">
<title>Node17&#45;&gt;Node18</title>
<path fill="none" stroke="#191970" d="M481.2535,-224.3733C499.0712,-215.4644 525.7747,-202.1127 545.9594,-192.0203"/>
<polygon fill="#191970" stroke="#191970" points="547.6187,-195.1038 554.9978,-187.5011 544.4882,-188.8428 547.6187,-195.1038"/>
</g>
<!-- Node19 -->
<g id="node20" class="node">
<title>Node19</title>
<g id="a_node20"><a xlink:href="RotationRaw_8h.html" target="_top" xlink:title="iDynTree/Core/RotationRaw.h">
<polygon fill="none" stroke="#000000" points="104,-168.5 104,-187.5 262,-187.5 262,-168.5 104,-168.5"/>
<text text-anchor="middle" x="183" y="-175.5" font-family="FreeSans.ttf" font-size="10.00" fill="#000000">iDynTree/Core/RotationRaw.h</text>
</a>
</g>
</g>
<!-- Node17&#45;&gt;Node19 -->
<g id="edge23" class="edge">
<title>Node17&#45;&gt;Node19</title>
<path fill="none" stroke="#191970" d="M414.3552,-224.4369C366.2053,-214.7724 291.7729,-199.8326 240.4007,-189.5213"/>
<polygon fill="#191970" stroke="#191970" points="240.9415,-186.0601 230.4483,-187.5237 239.5639,-192.9232 240.9415,-186.0601"/>
</g>
<!-- Node18&#45;&gt;Node1 -->
<g id="edge22" class="edge">
<title>Node18&#45;&gt;Node1</title>
<path fill="none" stroke="#191970" d="M555.0136,-168.2455C537.8208,-159.4125 512.2762,-146.2887 492.7868,-136.2758"/>
<polygon fill="#191970" stroke="#191970" points="494.263,-133.0993 483.7688,-131.6427 491.0641,-139.3257 494.263,-133.0993"/>
</g>
<!-- Node19&#45;&gt;Node14 -->
<g id="edge31" class="edge">
<title>Node19&#45;&gt;Node14</title>
<path fill="none" stroke="#191970" d="M173.8772,-168.4509C155.7151,-149.4401 114.828,-106.6423 92.0653,-82.816"/>
<polygon fill="#191970" stroke="#191970" points="94.5383,-80.3378 85.0997,-75.5249 89.4768,-85.1733 94.5383,-80.3378"/>
</g>
<!-- Node20 -->
<g id="node21" class="node">
<title>Node20</title>
<g id="a_node21"><a xlink:href="MatrixFixSize_8h.html" target="_top" xlink:title="iDynTree/Core/MatrixFixSize.h">
<polygon fill="none" stroke="#000000" points="202.5,-112.5 202.5,-131.5 363.5,-131.5 363.5,-112.5 202.5,-112.5"/>
<text text-anchor="middle" x="283" y="-119.5" font-family="FreeSans.ttf" font-size="10.00" fill="#000000">iDynTree/Core/MatrixFixSize.h</text>
</a>
</g>
</g>
<!-- Node19&#45;&gt;Node20 -->
<g id="edge24" class="edge">
<title>Node19&#45;&gt;Node20</title>
<path fill="none" stroke="#191970" d="M200.4187,-168.2455C216.0485,-159.4928 239.2019,-146.527 257.0185,-136.5496"/>
<polygon fill="#191970" stroke="#191970" points="258.766,-139.5825 265.7809,-131.6427 255.3457,-133.475 258.766,-139.5825"/>
</g>
<!-- Node20&#45;&gt;Node2 -->
<g id="edge25" class="edge">
<title>Node20&#45;&gt;Node2</title>
<path fill="none" stroke="#191970" d="M277.9486,-112.2455C273.9981,-104.617 268.3903,-93.7881 263.5942,-84.5267"/>
<polygon fill="#191970" stroke="#191970" points="266.7001,-82.9131 258.9935,-75.6427 260.4841,-86.1321 266.7001,-82.9131"/>
</g>
<!-- Node20&#45;&gt;Node6 -->
<g id="edge26" class="edge">
<title>Node20&#45;&gt;Node6</title>
<path fill="none" stroke="#191970" d="M292.8048,-112.4509C312.4098,-93.3574 356.6516,-50.2697 381.0515,-26.5063"/>
<polygon fill="#191970" stroke="#191970" points="383.498,-29.0093 388.22,-19.5249 378.6141,-23.9946 383.498,-29.0093"/>
</g>
<!-- Node20&#45;&gt;Node14 -->
<g id="edge28" class="edge">
<title>Node20&#45;&gt;Node14</title>
<path fill="none" stroke="#191970" d="M244.0282,-112.4848C210.3451,-104.1114 160.1535,-91.2793 108.0519,-76.2019"/>
<polygon fill="#191970" stroke="#191970" points="108.8846,-72.799 98.3047,-73.361 106.9258,-79.5194 108.8846,-72.799"/>
</g>
<!-- Node20&#45;&gt;Node15 -->
<g id="edge30" class="edge">
<title>Node20&#45;&gt;Node15</title>
<path fill="none" stroke="#191970" d="M314.4588,-112.3733C345.9468,-102.7376 394.4193,-87.9045 428.0295,-77.6194"/>
<polygon fill="#191970" stroke="#191970" points="429.4097,-80.8573 437.9478,-74.5843 427.3613,-74.1637 429.4097,-80.8573"/>
</g>
<!-- Node20&#45;&gt;Node16 -->
<g id="edge27" class="edge">
<title>Node20&#45;&gt;Node16</title>
<path fill="none" stroke="#191970" d="M302.2535,-112.3733C320.0712,-103.4644 346.7747,-90.1127 366.9594,-80.0203"/>
<polygon fill="#191970" stroke="#191970" points="368.6187,-83.1038 375.9978,-75.5011 365.4882,-76.8428 368.6187,-83.1038"/>
</g>
<!-- Node21 -->
<g id="node22" class="node">
<title>Node21</title>
<polygon fill="none" stroke="#bfbfbf" points="116,-56.5 116,-75.5 176,-75.5 176,-56.5 116,-56.5"/>
<text text-anchor="middle" x="146" y="-63.5" font-family="FreeSans.ttf" font-size="10.00" fill="#000000">iostream</text>
</g>
<!-- Node20&#45;&gt;Node21 -->
<g id="edge29" class="edge">
<title>Node20&#45;&gt;Node21</title>
<path fill="none" stroke="#191970" d="M259.4489,-112.3733C237.1609,-103.2629 203.5063,-89.5062 178.6363,-79.3404"/>
<polygon fill="#191970" stroke="#191970" points="179.8247,-76.0451 169.2438,-75.5011 177.1761,-82.5247 179.8247,-76.0451"/>
</g>
<!-- Node22&#45;&gt;Node14 -->
<g id="edge42" class="edge">
<title>Node22&#45;&gt;Node14</title>
<path fill="none" stroke="#191970" d="M388.7947,-343.3027C258.5232,-336.493 0,-313.024 0,-234 0,-234 0,-234 0,-178 0,-138.2361 33.2071,-102.1042 55.7208,-82.177"/>
<polygon fill="#191970" stroke="#191970" points="58.1079,-84.7412 63.4501,-75.5918 53.5683,-79.4128 58.1079,-84.7412"/>
</g>
<!-- Node22&#45;&gt;Node17 -->
<g id="edge40" class="edge">
<title>Node22&#45;&gt;Node17</title>
<path fill="none" stroke="#191970" d="M462,-336.4509C462,-318.184 462,-277.9553 462,-253.6976"/>
<polygon fill="#191970" stroke="#191970" points="465.5001,-253.5249 462,-243.5249 458.5001,-253.5249 465.5001,-253.5249"/>
</g>
<!-- Node22&#45;&gt;Node20 -->
<g id="edge41" class="edge">
<title>Node22&#45;&gt;Node20</title>
<path fill="none" stroke="#191970" d="M489.7901,-336.458C558.9921,-311.3059 728.9877,-240.1553 665,-168 662.5834,-165.2749 486.0036,-144.8953 373.7947,-132.193"/>
<polygon fill="#191970" stroke="#191970" points="374.1475,-128.7107 363.8175,-131.0646 373.3607,-135.6663 374.1475,-128.7107"/>
</g>
<!-- Node23 -->
<g id="node24" class="node">
<title>Node23</title>
<g id="a_node24"><a xlink:href="Position_8h.html" target="_top" xlink:title="iDynTree/Core/Position.h">
<polygon fill="none" stroke="#000000" points="293,-280.5 293,-299.5 429,-299.5 429,-280.5 293,-280.5"/>
<text text-anchor="middle" x="361" y="-287.5" font-family="FreeSans.ttf" font-size="10.00" fill="#000000">iDynTree/Core/Position.h</text>
</a>
</g>
</g>
<!-- Node22&#45;&gt;Node23 -->
<g id="edge34" class="edge">
<title>Node22&#45;&gt;Node23</title>
<path fill="none" stroke="#191970" d="M444.4071,-336.2455C428.621,-327.4928 405.2361,-314.527 387.2413,-304.5496"/>
<polygon fill="#191970" stroke="#191970" points="388.8341,-301.4308 378.3913,-299.6427 385.4397,-307.5528 388.8341,-301.4308"/>
</g>
<!-- Node23&#45;&gt;Node14 -->
<g id="edge39" class="edge">
<title>Node23&#45;&gt;Node14</title>
<path fill="none" stroke="#191970" d="M292.8896,-284.2586C227.8579,-275.0177 132.0056,-250.9064 78,-188 53.5021,-159.4645 62.0214,-111.8314 69.5448,-85.314"/>
<polygon fill="#191970" stroke="#191970" points="72.9192,-86.248 72.5088,-75.6611 66.2276,-84.1932 72.9192,-86.248"/>
</g>
<!-- Node23&#45;&gt;Node17 -->
<g id="edge38" class="edge">
<title>Node23&#45;&gt;Node17</title>
<path fill="none" stroke="#191970" d="M378.5929,-280.2455C394.379,-271.4928 417.7639,-258.527 435.7587,-248.5496"/>
<polygon fill="#191970" stroke="#191970" points="437.5603,-251.5528 444.6087,-243.6427 434.1659,-245.4308 437.5603,-251.5528"/>
</g>
<!-- Node24 -->
<g id="node25" class="node">
<title>Node24</title>
<g id="a_node25"><a xlink:href="PositionRaw_8h.html" target="_top" xlink:title="iDynTree/Core/PositionRaw.h">
<polygon fill="none" stroke="#000000" points="280,-168.5 280,-187.5 436,-187.5 436,-168.5 280,-168.5"/>
<text text-anchor="middle" x="358" y="-175.5" font-family="FreeSans.ttf" font-size="10.00" fill="#000000">iDynTree/Core/PositionRaw.h</text>
</a>
</g>
</g>
<!-- Node23&#45;&gt;Node24 -->
<g id="edge35" class="edge">
<title>Node23&#45;&gt;Node24</title>
<path fill="none" stroke="#191970" d="M360.7442,-280.4509C360.2549,-262.184 359.1774,-221.9553 358.5276,-197.6976"/>
<polygon fill="#191970" stroke="#191970" points="362.0217,-197.4276 358.2551,-187.5249 355.0242,-197.6151 362.0217,-197.4276"/>
</g>
<!-- Node24&#45;&gt;Node1 -->
<g id="edge36" class="edge">
<title>Node24&#45;&gt;Node1</title>
<path fill="none" stroke="#191970" d="M376.638,-168.2455C393.4386,-159.4527 418.3634,-146.4079 437.4618,-136.4125"/>
<polygon fill="#191970" stroke="#191970" points="439.3386,-139.3807 446.5756,-131.6427 436.0927,-133.1787 439.3386,-139.3807"/>
</g>
<!-- Node24&#45;&gt;Node14 -->
<g id="edge37" class="edge">
<title>Node24&#45;&gt;Node14</title>
<path fill="none" stroke="#191970" d="M312.5457,-168.4557C278.8405,-160.6345 232.1505,-148.2188 193,-132 158.7245,-117.8008 121.8673,-95.7625 98.8728,-81.1108"/>
<polygon fill="#191970" stroke="#191970" points="100.5011,-77.9962 90.2008,-75.5153 96.7059,-83.878 100.5011,-77.9962"/>
</g>
</g>
</svg>
