<?xml version="1.0" encoding="UTF-8" standalone="no"?>
<!DOCTYPE svg PUBLIC "-//W3C//DTD SVG 1.1//EN"
 "http://www.w3.org/Graphics/SVG/1.1/DTD/svg11.dtd">
<!-- Generated by graphviz version 2.40.1 (20161225.0304)
 -->
<!-- Title: InverseKinematics.cpp Pages: 1 -->
<svg width="1178pt" height="532pt"
 viewBox="0.00 0.00 1177.50 532.00" xmlns="http://www.w3.org/2000/svg" xmlns:xlink="http://www.w3.org/1999/xlink">
<g id="graph0" class="graph" transform="scale(1 1) rotate(0) translate(4 528)">
<title>InverseKinematics.cpp</title>
<!-- Node0 -->
<g id="node1" class="node">
<title>Node0</title>
<polygon fill="#bfbfbf" stroke="#000000" points="917.5,-504.5 917.5,-523.5 1045.5,-523.5 1045.5,-504.5 917.5,-504.5"/>
<text text-anchor="middle" x="981.5" y="-511.5" font-family="FreeSans.ttf" font-size="10.00" fill="#000000">InverseKinematics.cpp</text>
</g>
<!-- Node1 -->
<g id="node2" class="node">
<title>Node1</title>
<g id="a_node2"><a xlink:href="InverseKinematics_8h.html" target="_top" xlink:title="iDynTree/InverseKinematics.h">
<polygon fill="none" stroke="#000000" points="900.5,-448.5 900.5,-467.5 1062.5,-467.5 1062.5,-448.5 900.5,-448.5"/>
<text text-anchor="middle" x="981.5" y="-455.5" font-family="FreeSans.ttf" font-size="10.00" fill="#000000">iDynTree/InverseKinematics.h</text>
</a>
</g>
</g>
<!-- Node0&#45;&gt;Node1 -->
<g id="edge1" class="edge">
<title>Node0&#45;&gt;Node1</title>
<path fill="none" stroke="#191970" d="M981.5,-504.2455C981.5,-496.9382 981.5,-486.6944 981.5,-477.7046"/>
<polygon fill="#191970" stroke="#191970" points="985.0001,-477.6426 981.5,-467.6427 978.0001,-477.6427 985.0001,-477.6426"/>
</g>
<!-- Node2 -->
<g id="node3" class="node">
<title>Node2</title>
<polygon fill="none" stroke="#bfbfbf" points="714.5,-56.5 714.5,-75.5 758.5,-75.5 758.5,-56.5 714.5,-56.5"/>
<text text-anchor="middle" x="736.5" y="-63.5" font-family="FreeSans.ttf" font-size="10.00" fill="#000000">string</text>
</g>
<!-- Node1&#45;&gt;Node2 -->
<g id="edge2" class="edge">
<title>Node1&#45;&gt;Node2</title>
<path fill="none" stroke="#191970" d="M1039.9538,-448.4464C1095.1417,-435.6959 1169.5,-407.1669 1169.5,-346 1169.5,-346 1169.5,-346 1169.5,-178 1169.5,-95.2158 869.0955,-72.6359 768.7192,-67.4018"/>
<polygon fill="#191970" stroke="#191970" points="768.7294,-63.8981 758.5678,-66.8967 768.3815,-70.8895 768.7294,-63.8981"/>
</g>
<!-- Node3 -->
<g id="node4" class="node">
<title>Node3</title>
<polygon fill="none" stroke="#bfbfbf" points="1014,-336.5 1014,-355.5 1061,-355.5 1061,-336.5 1014,-336.5"/>
<text text-anchor="middle" x="1037.5" y="-343.5" font-family="FreeSans.ttf" font-size="10.00" fill="#000000">vector</text>
</g>
<!-- Node1&#45;&gt;Node3 -->
<g id="edge3" class="edge">
<title>Node1&#45;&gt;Node3</title>
<path fill="none" stroke="#191970" d="M991.304,-448.2386C999.6241,-439.4506 1011.3222,-425.8263 1018.5,-412 1026.0541,-397.4489 1030.9747,-379.4888 1033.9115,-365.9794"/>
<polygon fill="#191970" stroke="#191970" points="1037.4079,-366.3416 1035.926,-355.851 1030.5424,-364.976 1037.4079,-366.3416"/>
</g>
<!-- Node4 -->
<g id="node5" class="node">
<title>Node4</title>
<g id="a_node5"><a xlink:href="ConvexHullHelpers_8h.html" target="_top" xlink:title="iDynTree/ConvexHullHelpers.h">
<polygon fill="none" stroke="#000000" points="844,-392.5 844,-411.5 1009,-411.5 1009,-392.5 844,-392.5"/>
<text text-anchor="middle" x="926.5" y="-399.5" font-family="FreeSans.ttf" font-size="10.00" fill="#000000">iDynTree/ConvexHullHelpers.h</text>
</a>
</g>
</g>
<!-- Node1&#45;&gt;Node4 -->
<g id="edge4" class="edge">
<title>Node1&#45;&gt;Node4</title>
<path fill="none" stroke="#191970" d="M971.9197,-448.2455C963.9542,-440.1352 952.4359,-428.4075 942.9921,-418.7919"/>
<polygon fill="#191970" stroke="#191970" points="945.4747,-416.3247 935.9705,-411.6427 940.4805,-421.2297 945.4747,-416.3247"/>
</g>
<!-- Node30 -->
<g id="node31" class="node">
<title>Node30</title>
<g id="a_node31"><a xlink:href="Direction_8h.html" target="_top" xlink:title="iDynTree/Core/Direction.h">
<polygon fill="none" stroke="#000000" points="114,-168.5 114,-187.5 255,-187.5 255,-168.5 114,-168.5"/>
<text text-anchor="middle" x="184.5" y="-175.5" font-family="FreeSans.ttf" font-size="10.00" fill="#000000">iDynTree/Core/Direction.h</text>
</a>
</g>
</g>
<!-- Node1&#45;&gt;Node30 -->
<g id="edge53" class="edge">
<title>Node1&#45;&gt;Node30</title>
<path fill="none" stroke="#191970" d="M900.4036,-452.5109C724.8903,-439.5434 325.5,-403.6962 325.5,-346 325.5,-346 325.5,-346 325.5,-290 325.5,-238.6649 267.486,-207.1046 225.8831,-191.0721"/>
<polygon fill="#191970" stroke="#191970" points="227.0884,-187.7862 216.4951,-187.6062 224.664,-194.353 227.0884,-187.7862"/>
</g>
<!-- Node4&#45;&gt;Node2 -->
<g id="edge5" class="edge">
<title>Node4&#45;&gt;Node2</title>
<path fill="none" stroke="#191970" d="M929.3972,-392.4586C940.8703,-354.0164 981.7204,-210.5211 965.5,-168 953.6079,-136.8253 944.0019,-129.3471 915.5,-112 869.4742,-83.9873 806.8109,-72.932 769.1406,-68.6408"/>
<polygon fill="#191970" stroke="#191970" points="769.0648,-65.114 758.7557,-67.5579 768.3387,-72.0762 769.0648,-65.114"/>
</g>
<!-- Node4&#45;&gt;Node3 -->
<g id="edge6" class="edge">
<title>Node4&#45;&gt;Node3</title>
<path fill="none" stroke="#191970" d="M945.5816,-392.3733C963.2402,-383.4644 989.7053,-370.1127 1009.7098,-360.0203"/>
<polygon fill="#191970" stroke="#191970" points="1011.3158,-363.1303 1018.6674,-355.5011 1008.1628,-356.8806 1011.3158,-363.1303"/>
</g>
<!-- Node5 -->
<g id="node6" class="node">
<title>Node5</title>
<g id="a_node6"><a xlink:href="MatrixDynSize_8h.html" target="_top" xlink:title="iDynTree/Core/MatrixDynSize.h">
<polygon fill="none" stroke="#000000" points="975,-280.5 975,-299.5 1142,-299.5 1142,-280.5 975,-280.5"/>
<text text-anchor="middle" x="1058.5" y="-287.5" font-family="FreeSans.ttf" font-size="10.00" fill="#000000">iDynTree/Core/MatrixDynSize.h</text>
</a>
</g>
</g>
<!-- Node4&#45;&gt;Node5 -->
<g id="edge7" class="edge">
<title>Node4&#45;&gt;Node5</title>
<path fill="none" stroke="#191970" d="M937.7542,-392.4509C960.3548,-373.2747 1011.4794,-329.8962 1039.4085,-306.1988"/>
<polygon fill="#191970" stroke="#191970" points="1041.9136,-308.6635 1047.2742,-299.5249 1037.3847,-303.3259 1041.9136,-308.6635"/>
</g>
<!-- Node6 -->
<g id="node7" class="node">
<title>Node6</title>
<g id="a_node7"><a xlink:href="Position_8h.html" target="_top" xlink:title="iDynTree/Core/Position.h">
<polygon fill="none" stroke="#000000" points="783.5,-280.5 783.5,-299.5 919.5,-299.5 919.5,-280.5 783.5,-280.5"/>
<text text-anchor="middle" x="851.5" y="-287.5" font-family="FreeSans.ttf" font-size="10.00" fill="#000000">iDynTree/Core/Position.h</text>
</a>
</g>
</g>
<!-- Node4&#45;&gt;Node6 -->
<g id="edge9" class="edge">
<title>Node4&#45;&gt;Node6</title>
<path fill="none" stroke="#191970" d="M920.1055,-392.4509C907.5964,-373.7707 879.7079,-332.1238 863.6046,-308.0761"/>
<polygon fill="#191970" stroke="#191970" points="866.3506,-305.8865 857.8783,-299.5249 860.5342,-309.7814 866.3506,-305.8865"/>
</g>
<!-- Node28 -->
<g id="node29" class="node">
<title>Node28</title>
<g id="a_node29"><a xlink:href="Transform_8h.html" target="_top" xlink:title="iDynTree/Core/Transform.h">
<polygon fill="none" stroke="#000000" points="682.5,-336.5 682.5,-355.5 828.5,-355.5 828.5,-336.5 682.5,-336.5"/>
<text text-anchor="middle" x="755.5" y="-343.5" font-family="FreeSans.ttf" font-size="10.00" fill="#000000">iDynTree/Core/Transform.h</text>
</a>
</g>
</g>
<!-- Node4&#45;&gt;Node28 -->
<g id="edge45" class="edge">
<title>Node4&#45;&gt;Node28</title>
<path fill="none" stroke="#191970" d="M897.1041,-392.3733C868.6693,-383.0613 825.4123,-368.8953 794.1919,-358.671"/>
<polygon fill="#191970" stroke="#191970" points="795.105,-355.2872 784.5124,-355.5011 792.9264,-361.9396 795.105,-355.2872"/>
</g>
<!-- Node29 -->
<g id="node30" class="node">
<title>Node29</title>
<g id="a_node30"><a xlink:href="VectorDynSize_8h.html" target="_top" xlink:title="iDynTree/Core/VectorDynSize.h">
<polygon fill="none" stroke="#000000" points="447,-112.5 447,-131.5 614,-131.5 614,-112.5 447,-112.5"/>
<text text-anchor="middle" x="530.5" y="-119.5" font-family="FreeSans.ttf" font-size="10.00" fill="#000000">iDynTree/Core/VectorDynSize.h</text>
</a>
</g>
</g>
<!-- Node4&#45;&gt;Node29 -->
<g id="edge50" class="edge">
<title>Node4&#45;&gt;Node29</title>
<path fill="none" stroke="#191970" d="M843.9372,-396.9102C720.8365,-387.0243 503.5,-359.7007 503.5,-290 503.5,-290 503.5,-290 503.5,-234 503.5,-200.6538 514.9512,-163.2392 522.9386,-141.1981"/>
<polygon fill="#191970" stroke="#191970" points="526.2673,-142.29 526.5161,-131.6981 519.7164,-139.823 526.2673,-142.29"/>
</g>
<!-- Node5&#45;&gt;Node2 -->
<g id="edge8" class="edge">
<title>Node5&#45;&gt;Node2</title>
<path fill="none" stroke="#191970" d="M1059.7557,-280.1193C1062.9865,-249.9222 1068.2001,-158.113 1019.5,-112 983.8921,-78.2837 835.456,-69.2183 768.9619,-66.8309"/>
<polygon fill="#191970" stroke="#191970" points="768.762,-63.3225 758.6521,-66.4911 768.5314,-70.3187 768.762,-63.3225"/>
</g>
<!-- Node6&#45;&gt;Node2 -->
<g id="edge44" class="edge">
<title>Node6&#45;&gt;Node2</title>
<path fill="none" stroke="#191970" d="M869.6388,-280.4361C904.8709,-260.562 976.7251,-212.9021 948.5,-168 908.7075,-104.6958 817.4146,-79.7696 768.627,-70.705"/>
<polygon fill="#191970" stroke="#191970" points="769.0641,-67.2285 758.6112,-68.957 767.8605,-74.1242 769.0641,-67.2285"/>
</g>
<!-- Node7 -->
<g id="node8" class="node">
<title>Node7</title>
<g id="a_node8"><a xlink:href="PositionRaw_8h.html" target="_top" xlink:title="iDynTree/Core/PositionRaw.h">
<polygon fill="none" stroke="#000000" points="783.5,-168.5 783.5,-187.5 939.5,-187.5 939.5,-168.5 783.5,-168.5"/>
<text text-anchor="middle" x="861.5" y="-175.5" font-family="FreeSans.ttf" font-size="10.00" fill="#000000">iDynTree/Core/PositionRaw.h</text>
</a>
</g>
</g>
<!-- Node6&#45;&gt;Node7 -->
<g id="edge10" class="edge">
<title>Node6&#45;&gt;Node7</title>
<path fill="none" stroke="#191970" d="M852.3526,-280.4509C853.9836,-262.184 857.5754,-221.9553 859.7413,-197.6976"/>
<polygon fill="#191970" stroke="#191970" points="863.2463,-197.7966 860.6496,-187.5249 856.274,-197.174 863.2463,-197.7966"/>
</g>
<!-- Node23 -->
<g id="node24" class="node">
<title>Node23</title>
<g id="a_node24"><a xlink:href="Rotation_8h.html" target="_top" xlink:title="iDynTree/Core/Rotation.h">
<polygon fill="none" stroke="#000000" points="566,-224.5 566,-243.5 703,-243.5 703,-224.5 566,-224.5"/>
<text text-anchor="middle" x="634.5" y="-231.5" font-family="FreeSans.ttf" font-size="10.00" fill="#000000">iDynTree/Core/Rotation.h</text>
</a>
</g>
</g>
<!-- Node6&#45;&gt;Node23 -->
<g id="edge30" class="edge">
<title>Node6&#45;&gt;Node23</title>
<path fill="none" stroke="#191970" d="M814.1964,-280.3733C777.3315,-270.8598 720.834,-256.2797 681.0494,-246.0127"/>
<polygon fill="#191970" stroke="#191970" points="681.8742,-242.611 671.3169,-243.5011 680.125,-249.3889 681.8742,-242.611"/>
</g>
<!-- Node7&#45;&gt;Node2 -->
<g id="edge29" class="edge">
<title>Node7&#45;&gt;Node2</title>
<path fill="none" stroke="#191970" d="M850.8426,-168.4509C829.4406,-149.2747 781.0271,-105.8962 754.579,-82.1988"/>
<polygon fill="#191970" stroke="#191970" points="756.9138,-79.5914 747.1305,-75.5249 752.2426,-84.8048 756.9138,-79.5914"/>
</g>
<!-- Node8 -->
<g id="node9" class="node">
<title>Node8</title>
<g id="a_node9"><a xlink:href="VectorFixSize_8h.html" target="_top" xlink:title="iDynTree/Core/VectorFixSize.h">
<polygon fill="none" stroke="#000000" points="268,-112.5 268,-131.5 429,-131.5 429,-112.5 268,-112.5"/>
<text text-anchor="middle" x="348.5" y="-119.5" font-family="FreeSans.ttf" font-size="10.00" fill="#000000">iDynTree/Core/VectorFixSize.h</text>
</a>
</g>
</g>
<!-- Node7&#45;&gt;Node8 -->
<g id="edge11" class="edge">
<title>Node7&#45;&gt;Node8</title>
<path fill="none" stroke="#191970" d="M783.1431,-169.5343C700.4658,-160.5892 566.0564,-146.0114 439.6989,-132.1298"/>
<polygon fill="#191970" stroke="#191970" points="439.7746,-128.6172 429.452,-131.0037 439.0098,-135.5753 439.7746,-128.6172"/>
</g>
<!-- Node8&#45;&gt;Node2 -->
<g id="edge25" class="edge">
<title>Node8&#45;&gt;Node2</title>
<path fill="none" stroke="#191970" d="M414.7587,-112.4369C498.8508,-100.2999 640.5873,-79.8431 704.0602,-70.682"/>
<polygon fill="#191970" stroke="#191970" points="704.8666,-74.102 714.2641,-69.2093 703.8666,-67.1738 704.8666,-74.102"/>
</g>
<!-- Node9 -->
<g id="node10" class="node">
<title>Node9</title>
<g id="a_node10"><a xlink:href="Utils_8h.html" target="_top" xlink:title="iDynTree/Core/Utils.h">
<polygon fill="none" stroke="#000000" points="0,-56.5 0,-75.5 119,-75.5 119,-56.5 0,-56.5"/>
<text text-anchor="middle" x="59.5" y="-63.5" font-family="FreeSans.ttf" font-size="10.00" fill="#000000">iDynTree/Core/Utils.h</text>
</a>
</g>
</g>
<!-- Node8&#45;&gt;Node9 -->
<g id="edge12" class="edge">
<title>Node8&#45;&gt;Node9</title>
<path fill="none" stroke="#191970" d="M299.1475,-112.4369C249.1678,-102.7522 171.8502,-87.7703 118.6258,-77.4569"/>
<polygon fill="#191970" stroke="#191970" points="119.1322,-73.99 108.6489,-75.5237 117.8005,-80.8622 119.1322,-73.99"/>
</g>
<!-- Node12 -->
<g id="node13" class="node">
<title>Node12</title>
<g id="a_node13"><a xlink:href="Span_8h.html" target="_top" xlink:title="iDynTree/Core/Span.h">
<polygon fill="none" stroke="#000000" points="434,-56.5 434,-75.5 555,-75.5 555,-56.5 434,-56.5"/>
<text text-anchor="middle" x="494.5" y="-63.5" font-family="FreeSans.ttf" font-size="10.00" fill="#000000">iDynTree/Core/Span.h</text>
</a>
</g>
</g>
<!-- Node8&#45;&gt;Node12 -->
<g id="edge15" class="edge">
<title>Node8&#45;&gt;Node12</title>
<path fill="none" stroke="#191970" d="M373.5983,-112.3733C397.4555,-103.2226 433.5335,-89.3844 460.071,-79.2057"/>
<polygon fill="#191970" stroke="#191970" points="461.6459,-82.3503 469.7292,-75.5011 459.139,-75.8145 461.6459,-82.3503"/>
</g>
<!-- Node13 -->
<g id="node14" class="node">
<title>Node13</title>
<polygon fill="none" stroke="#bfbfbf" points="230.5,-.5 230.5,-19.5 282.5,-19.5 282.5,-.5 230.5,-.5"/>
<text text-anchor="middle" x="256.5" y="-7.5" font-family="FreeSans.ttf" font-size="10.00" fill="#000000">cassert</text>
</g>
<!-- Node8&#45;&gt;Node13 -->
<g id="edge27" class="edge">
<title>Node8&#45;&gt;Node13</title>
<path fill="none" stroke="#191970" d="M360.9822,-112.4831C376.672,-99.3452 400.009,-75.1099 386.5,-56 380.8314,-47.9812 329.0286,-31.3456 292.5563,-20.4324"/>
<polygon fill="#191970" stroke="#191970" points="293.3093,-17.0051 282.7269,-17.518 291.3194,-23.7163 293.3093,-17.0051"/>
</g>
<!-- Node21 -->
<g id="node22" class="node">
<title>Node21</title>
<polygon fill="none" stroke="#bfbfbf" points="321.5,-56.5 321.5,-75.5 377.5,-75.5 377.5,-56.5 321.5,-56.5"/>
<text text-anchor="middle" x="349.5" y="-63.5" font-family="FreeSans.ttf" font-size="10.00" fill="#000000">sstream</text>
</g>
<!-- Node8&#45;&gt;Node21 -->
<g id="edge26" class="edge">
<title>Node8&#45;&gt;Node21</title>
<path fill="none" stroke="#191970" d="M348.6742,-112.2455C348.8047,-104.9382 348.9876,-94.6944 349.1481,-85.7046"/>
<polygon fill="#191970" stroke="#191970" points="352.6486,-85.7036 349.3278,-75.6427 345.6497,-85.5786 352.6486,-85.7036"/>
</g>
<!-- Node22 -->
<g id="node23" class="node">
<title>Node22</title>
<polygon fill="none" stroke="#bfbfbf" points="253.5,-56.5 253.5,-75.5 303.5,-75.5 303.5,-56.5 253.5,-56.5"/>
<text text-anchor="middle" x="278.5" y="-63.5" font-family="FreeSans.ttf" font-size="10.00" fill="#000000">cstring</text>
</g>
<!-- Node8&#45;&gt;Node22 -->
<g id="edge28" class="edge">
<title>Node8&#45;&gt;Node22</title>
<path fill="none" stroke="#191970" d="M336.3069,-112.2455C325.8679,-103.8943 310.6345,-91.7076 298.426,-81.9408"/>
<polygon fill="#191970" stroke="#191970" points="300.5485,-79.1566 290.5533,-75.6427 296.1756,-84.6227 300.5485,-79.1566"/>
</g>
<!-- Node10 -->
<g id="node11" class="node">
<title>Node10</title>
<polygon fill="none" stroke="#bfbfbf" points="145,-.5 145,-19.5 198,-19.5 198,-.5 145,-.5"/>
<text text-anchor="middle" x="171.5" y="-7.5" font-family="FreeSans.ttf" font-size="10.00" fill="#000000">cstddef</text>
</g>
<!-- Node9&#45;&gt;Node10 -->
<g id="edge13" class="edge">
<title>Node9&#45;&gt;Node10</title>
<path fill="none" stroke="#191970" d="M78.7535,-56.3733C96.5712,-47.4644 123.2747,-34.1127 143.4594,-24.0203"/>
<polygon fill="#191970" stroke="#191970" points="145.1187,-27.1038 152.4978,-19.5011 141.9882,-20.8428 145.1187,-27.1038"/>
</g>
<!-- Node11 -->
<g id="node12" class="node">
<title>Node11</title>
<polygon fill="none" stroke="#bfbfbf" points="19.5,-.5 19.5,-19.5 99.5,-19.5 99.5,-.5 19.5,-.5"/>
<text text-anchor="middle" x="59.5" y="-7.5" font-family="FreeSans.ttf" font-size="10.00" fill="#000000">CoreExport.h</text>
</g>
<!-- Node9&#45;&gt;Node11 -->
<g id="edge14" class="edge">
<title>Node9&#45;&gt;Node11</title>
<path fill="none" stroke="#191970" d="M59.5,-56.2455C59.5,-48.9382 59.5,-38.6944 59.5,-29.7046"/>
<polygon fill="#191970" stroke="#191970" points="63.0001,-29.6426 59.5,-19.6427 56.0001,-29.6427 63.0001,-29.6426"/>
</g>
<!-- Node12&#45;&gt;Node10 -->
<g id="edge19" class="edge">
<title>Node12&#45;&gt;Node10</title>
<path fill="none" stroke="#191970" d="M434.7617,-56.4716C379.3915,-47.5125 294.7665,-33.496 221.5,-20 217.2395,-19.2152 212.7808,-18.365 208.3552,-17.5031"/>
<polygon fill="#191970" stroke="#191970" points="208.6871,-14.0011 198.1982,-15.4961 207.33,-20.8683 208.6871,-14.0011"/>
</g>
<!-- Node12&#45;&gt;Node13 -->
<g id="edge16" class="edge">
<title>Node12&#45;&gt;Node13</title>
<path fill="none" stroke="#191970" d="M449.1766,-56.4832C410.0981,-48.1085 351.9462,-35.2449 292.7277,-20.2211"/>
<polygon fill="#191970" stroke="#191970" points="293.386,-16.7769 282.8307,-17.6923 291.653,-23.559 293.386,-16.7769"/>
</g>
<!-- Node14 -->
<g id="node15" class="node">
<title>Node14</title>
<polygon fill="none" stroke="#bfbfbf" points="596.5,-.5 596.5,-19.5 660.5,-19.5 660.5,-.5 596.5,-.5"/>
<text text-anchor="middle" x="628.5" y="-7.5" font-family="FreeSans.ttf" font-size="10.00" fill="#000000">algorithm</text>
</g>
<!-- Node12&#45;&gt;Node14 -->
<g id="edge17" class="edge">
<title>Node12&#45;&gt;Node14</title>
<path fill="none" stroke="#191970" d="M517.5354,-56.3733C539.2388,-47.3032 571.9618,-33.6279 596.255,-23.4755"/>
<polygon fill="#191970" stroke="#191970" points="597.8881,-26.5865 605.7652,-19.5011 595.1889,-20.1278 597.8881,-26.5865"/>
</g>
<!-- Node15 -->
<g id="node16" class="node">
<title>Node15</title>
<polygon fill="none" stroke="#bfbfbf" points="678.5,-.5 678.5,-19.5 720.5,-19.5 720.5,-.5 678.5,-.5"/>
<text text-anchor="middle" x="699.5" y="-7.5" font-family="FreeSans.ttf" font-size="10.00" fill="#000000">array</text>
</g>
<!-- Node12&#45;&gt;Node15 -->
<g id="edge18" class="edge">
<title>Node12&#45;&gt;Node15</title>
<path fill="none" stroke="#191970" d="M533.6244,-56.4865C567.1378,-48.1657 616.8794,-35.4106 668.5764,-20.1506"/>
<polygon fill="#191970" stroke="#191970" points="669.6622,-23.4793 678.2486,-17.2726 667.6657,-16.77 669.6622,-23.4793"/>
</g>
<!-- Node16 -->
<g id="node17" class="node">
<title>Node16</title>
<polygon fill="none" stroke="#bfbfbf" points="739,-.5 739,-19.5 792,-19.5 792,-.5 739,-.5"/>
<text text-anchor="middle" x="765.5" y="-7.5" font-family="FreeSans.ttf" font-size="10.00" fill="#000000">iterator</text>
</g>
<!-- Node12&#45;&gt;Node16 -->
<g id="edge20" class="edge">
<title>Node12&#45;&gt;Node16</title>
<path fill="none" stroke="#191970" d="M549.839,-56.4207C595.3858,-48.2521 661.8232,-35.6876 728.9212,-19.9963"/>
<polygon fill="#191970" stroke="#191970" points="729.895,-23.3627 738.8233,-17.6586 728.2866,-16.5499 729.895,-23.3627"/>
</g>
<!-- Node17 -->
<g id="node18" class="node">
<title>Node17</title>
<polygon fill="none" stroke="#bfbfbf" points="300.5,-.5 300.5,-19.5 344.5,-19.5 344.5,-.5 300.5,-.5"/>
<text text-anchor="middle" x="322.5" y="-7.5" font-family="FreeSans.ttf" font-size="10.00" fill="#000000">limits</text>
</g>
<!-- Node12&#45;&gt;Node17 -->
<g id="edge21" class="edge">
<title>Node12&#45;&gt;Node17</title>
<path fill="none" stroke="#191970" d="M464.9321,-56.3733C434.0777,-46.3276 385.8725,-30.6329 354.2343,-20.3321"/>
<polygon fill="#191970" stroke="#191970" points="355.1796,-16.9591 344.5873,-17.1912 353.0124,-23.6152 355.1796,-16.9591"/>
</g>
<!-- Node18 -->
<g id="node19" class="node">
<title>Node18</title>
<polygon fill="none" stroke="#bfbfbf" points="363,-.5 363,-19.5 428,-19.5 428,-.5 363,-.5"/>
<text text-anchor="middle" x="395.5" y="-7.5" font-family="FreeSans.ttf" font-size="10.00" fill="#000000">stdexcept</text>
</g>
<!-- Node12&#45;&gt;Node18 -->
<g id="edge22" class="edge">
<title>Node12&#45;&gt;Node18</title>
<path fill="none" stroke="#191970" d="M477.2555,-56.2455C461.9239,-47.5731 439.2801,-34.7645 421.7084,-24.825"/>
<polygon fill="#191970" stroke="#191970" points="422.9741,-21.5198 412.5469,-19.6427 419.5276,-27.6126 422.9741,-21.5198"/>
</g>
<!-- Node19 -->
<g id="node20" class="node">
<title>Node19</title>
<polygon fill="none" stroke="#bfbfbf" points="446,-.5 446,-19.5 515,-19.5 515,-.5 446,-.5"/>
<text text-anchor="middle" x="480.5" y="-7.5" font-family="FreeSans.ttf" font-size="10.00" fill="#000000">type_traits</text>
</g>
<!-- Node12&#45;&gt;Node19 -->
<g id="edge23" class="edge">
<title>Node12&#45;&gt;Node19</title>
<path fill="none" stroke="#191970" d="M492.0614,-56.2455C490.2145,-48.8579 487.6172,-38.4689 485.3522,-29.4087"/>
<polygon fill="#191970" stroke="#191970" points="488.7316,-28.4952 482.9107,-19.6427 481.9406,-30.193 488.7316,-28.4952"/>
</g>
<!-- Node20 -->
<g id="node21" class="node">
<title>Node20</title>
<polygon fill="none" stroke="#bfbfbf" points="533,-.5 533,-19.5 578,-19.5 578,-.5 533,-.5"/>
<text text-anchor="middle" x="555.5" y="-7.5" font-family="FreeSans.ttf" font-size="10.00" fill="#000000">utility</text>
</g>
<!-- Node12&#45;&gt;Node20 -->
<g id="edge24" class="edge">
<title>Node12&#45;&gt;Node20</title>
<path fill="none" stroke="#191970" d="M505.1254,-56.2455C514.0473,-48.0549 526.988,-36.1749 537.5192,-26.5069"/>
<polygon fill="#191970" stroke="#191970" points="539.9968,-28.9837 544.9964,-19.6427 535.2629,-23.8271 539.9968,-28.9837"/>
</g>
<!-- Node23&#45;&gt;Node2 -->
<g id="edge31" class="edge">
<title>Node23&#45;&gt;Node2</title>
<path fill="none" stroke="#191970" d="M653.9133,-224.4671C668.1655,-216.5388 686.9748,-203.9819 698.5,-188 721.1064,-156.6519 730.5428,-111.4685 734.2648,-85.7992"/>
<polygon fill="#191970" stroke="#191970" points="737.7471,-86.1614 735.5659,-75.7935 730.8056,-85.2586 737.7471,-86.1614"/>
</g>
<!-- Node23&#45;&gt;Node8 -->
<g id="edge43" class="edge">
<title>Node23&#45;&gt;Node8</title>
<path fill="none" stroke="#191970" d="M565.9431,-229.259C473.8048,-222.1789 319.5311,-207.5536 302.5,-188 288.5465,-171.9799 307.4149,-151.6963 325.0273,-137.8716"/>
<polygon fill="#191970" stroke="#191970" points="327.4721,-140.4163 333.4232,-131.6507 323.3047,-134.7919 327.4721,-140.4163"/>
</g>
<!-- Node24 -->
<g id="node25" class="node">
<title>Node24</title>
<g id="a_node25"><a xlink:href="GeomVector3_8h.html" target="_top" xlink:title="iDynTree/Core/GeomVector3.h">
<polygon fill="none" stroke="#000000" points="312,-168.5 312,-187.5 475,-187.5 475,-168.5 312,-168.5"/>
<text text-anchor="middle" x="393.5" y="-175.5" font-family="FreeSans.ttf" font-size="10.00" fill="#000000">iDynTree/Core/GeomVector3.h</text>
</a>
</g>
</g>
<!-- Node23&#45;&gt;Node24 -->
<g id="edge32" class="edge">
<title>Node23&#45;&gt;Node24</title>
<path fill="none" stroke="#191970" d="M593.3445,-224.4369C552.1858,-214.8731 488.795,-200.1432 444.4758,-189.845"/>
<polygon fill="#191970" stroke="#191970" points="445.0185,-186.3779 434.4858,-187.5237 443.4341,-193.1963 445.0185,-186.3779"/>
</g>
<!-- Node25 -->
<g id="node26" class="node">
<title>Node25</title>
<g id="a_node26"><a xlink:href="RotationRaw_8h.html" target="_top" xlink:title="iDynTree/Core/RotationRaw.h">
<polygon fill="none" stroke="#000000" points="531.5,-168.5 531.5,-187.5 689.5,-187.5 689.5,-168.5 531.5,-168.5"/>
<text text-anchor="middle" x="610.5" y="-175.5" font-family="FreeSans.ttf" font-size="10.00" fill="#000000">iDynTree/Core/RotationRaw.h</text>
</a>
</g>
</g>
<!-- Node23&#45;&gt;Node25 -->
<g id="edge34" class="edge">
<title>Node23&#45;&gt;Node25</title>
<path fill="none" stroke="#191970" d="M630.3195,-224.2455C627.119,-216.7776 622.604,-206.2427 618.6916,-197.1137"/>
<polygon fill="#191970" stroke="#191970" points="621.7888,-195.4554 614.6326,-187.6427 615.3548,-198.2129 621.7888,-195.4554"/>
</g>
<!-- Node24&#45;&gt;Node8 -->
<g id="edge33" class="edge">
<title>Node24&#45;&gt;Node8</title>
<path fill="none" stroke="#191970" d="M385.6616,-168.2455C379.338,-160.3761 370.2776,-149.101 362.6864,-139.6542"/>
<polygon fill="#191970" stroke="#191970" points="365.2408,-137.2454 356.2486,-131.6427 359.7842,-141.6302 365.2408,-137.2454"/>
</g>
<!-- Node25&#45;&gt;Node2 -->
<g id="edge42" class="edge">
<title>Node25&#45;&gt;Node2</title>
<path fill="none" stroke="#191970" d="M621.2427,-168.4509C642.8159,-149.2747 691.6167,-105.8962 718.2763,-82.1988"/>
<polygon fill="#191970" stroke="#191970" points="720.6357,-84.7845 725.7845,-75.5249 715.9851,-79.5526 720.6357,-84.7845"/>
</g>
<!-- Node26 -->
<g id="node27" class="node">
<title>Node26</title>
<g id="a_node27"><a xlink:href="MatrixFixSize_8h.html" target="_top" xlink:title="iDynTree/Core/MatrixFixSize.h">
<polygon fill="none" stroke="#000000" points="89,-112.5 89,-131.5 250,-131.5 250,-112.5 89,-112.5"/>
<text text-anchor="middle" x="169.5" y="-119.5" font-family="FreeSans.ttf" font-size="10.00" fill="#000000">iDynTree/Core/MatrixFixSize.h</text>
</a>
</g>
</g>
<!-- Node25&#45;&gt;Node26 -->
<g id="edge35" class="edge">
<title>Node25&#45;&gt;Node26</title>
<path fill="none" stroke="#191970" d="M535.4406,-168.4686C457.6302,-158.588 336.2037,-143.1687 254.8057,-132.8325"/>
<polygon fill="#191970" stroke="#191970" points="254.949,-129.3226 244.5877,-131.535 254.0672,-136.2669 254.949,-129.3226"/>
</g>
<!-- Node26&#45;&gt;Node2 -->
<g id="edge39" class="edge">
<title>Node26&#45;&gt;Node2</title>
<path fill="none" stroke="#191970" d="M250.024,-112.8941C252.8841,-112.5892 255.7163,-112.2903 258.5,-112 425.9971,-94.5317 626.7734,-75.9902 704.0245,-68.9451"/>
<polygon fill="#191970" stroke="#191970" points="704.4474,-72.4212 714.0888,-68.0287 703.8126,-65.45 704.4474,-72.4212"/>
</g>
<!-- Node26&#45;&gt;Node9 -->
<g id="edge36" class="edge">
<title>Node26&#45;&gt;Node9</title>
<path fill="none" stroke="#191970" d="M150.3395,-112.2455C132.9889,-103.4125 107.2099,-90.2887 87.5417,-80.2758"/>
<polygon fill="#191970" stroke="#191970" points="88.9405,-77.0605 78.441,-75.6427 85.7647,-83.2986 88.9405,-77.0605"/>
</g>
<!-- Node26&#45;&gt;Node13 -->
<g id="edge37" class="edge">
<title>Node26&#45;&gt;Node13</title>
<path fill="none" stroke="#191970" d="M165.8662,-112.2026C161.4564,-98.5206 155.8432,-73.415 166.5,-56 178.3315,-36.6655 201.138,-25.1309 220.8313,-18.4474"/>
<polygon fill="#191970" stroke="#191970" points="221.9606,-21.7618 230.4783,-15.4611 219.8905,-15.0749 221.9606,-21.7618"/>
</g>
<!-- Node26&#45;&gt;Node21 -->
<g id="edge41" class="edge">
<title>Node26&#45;&gt;Node21</title>
<path fill="none" stroke="#191970" d="M200.4431,-112.3733C231.2327,-102.7943 278.5324,-88.0788 311.567,-77.8014"/>
<polygon fill="#191970" stroke="#191970" points="312.8183,-81.0776 321.3271,-74.7649 310.7388,-74.3936 312.8183,-81.0776"/>
</g>
<!-- Node26&#45;&gt;Node22 -->
<g id="edge38" class="edge">
<title>Node26&#45;&gt;Node22</title>
<path fill="none" stroke="#191970" d="M188.4864,-112.2455C205.6792,-103.4125 231.2238,-90.2887 250.7132,-80.2758"/>
<polygon fill="#191970" stroke="#191970" points="252.4359,-83.3257 259.7312,-75.6427 249.237,-77.0993 252.4359,-83.3257"/>
</g>
<!-- Node27 -->
<g id="node28" class="node">
<title>Node27</title>
<polygon fill="none" stroke="#bfbfbf" points="175.5,-56.5 175.5,-75.5 235.5,-75.5 235.5,-56.5 175.5,-56.5"/>
<text text-anchor="middle" x="205.5" y="-63.5" font-family="FreeSans.ttf" font-size="10.00" fill="#000000">iostream</text>
</g>
<!-- Node26&#45;&gt;Node27 -->
<g id="edge40" class="edge">
<title>Node26&#45;&gt;Node27</title>
<path fill="none" stroke="#191970" d="M175.7707,-112.2455C180.7264,-104.5367 187.783,-93.5598 193.7776,-84.2348"/>
<polygon fill="#191970" stroke="#191970" points="196.8376,-85.9471 199.3011,-75.6427 190.9494,-82.1618 196.8376,-85.9471"/>
</g>
<!-- Node28&#45;&gt;Node2 -->
<g id="edge49" class="edge">
<title>Node28&#45;&gt;Node2</title>
<path fill="none" stroke="#191970" d="M755.5,-336.4116C755.5,-317.0538 755.5,-271.9167 755.5,-234 755.5,-234 755.5,-234 755.5,-178 755.5,-145.2688 747.5148,-107.9052 741.8978,-85.6716"/>
<polygon fill="#191970" stroke="#191970" points="745.2289,-84.5763 739.3035,-75.7934 738.4585,-86.3545 745.2289,-84.5763"/>
</g>
<!-- Node28&#45;&gt;Node6 -->
<g id="edge46" class="edge">
<title>Node28&#45;&gt;Node6</title>
<path fill="none" stroke="#191970" d="M772.2219,-336.2455C787.0889,-327.5731 809.0466,-314.7645 826.0858,-304.825"/>
<polygon fill="#191970" stroke="#191970" points="828.0955,-307.7047 834.9697,-299.6427 824.5683,-301.6582 828.0955,-307.7047"/>
</g>
<!-- Node28&#45;&gt;Node23 -->
<g id="edge47" class="edge">
<title>Node28&#45;&gt;Node23</title>
<path fill="none" stroke="#191970" d="M745.1836,-336.4509C724.5558,-317.3574 678.0057,-274.2697 652.3328,-250.5063"/>
<polygon fill="#191970" stroke="#191970" points="654.5065,-247.7492 644.7903,-243.5249 649.7515,-252.8864 654.5065,-247.7492"/>
</g>
<!-- Node28&#45;&gt;Node26 -->
<g id="edge48" class="edge">
<title>Node28&#45;&gt;Node26</title>
<path fill="none" stroke="#191970" d="M682.2322,-339.3711C527.5093,-323.6987 175.8044,-278.6803 104.5,-188 89.4056,-168.8039 115.0853,-149.16 138.4801,-136.3529"/>
<polygon fill="#191970" stroke="#191970" points="140.3125,-139.3452 147.5751,-131.6312 137.0872,-133.1326 140.3125,-139.3452"/>
</g>
<!-- Node29&#45;&gt;Node2 -->
<g id="edge52" class="edge">
<title>Node29&#45;&gt;Node2</title>
<path fill="none" stroke="#191970" d="M565.9127,-112.3733C604.8182,-101.797 666.7578,-84.959 704.3254,-74.7465"/>
<polygon fill="#191970" stroke="#191970" points="705.504,-78.0532 714.2357,-72.0524 703.6677,-71.2983 705.504,-78.0532"/>
</g>
<!-- Node29&#45;&gt;Node12 -->
<g id="edge51" class="edge">
<title>Node29&#45;&gt;Node12</title>
<path fill="none" stroke="#191970" d="M524.2293,-112.2455C519.2736,-104.5367 512.217,-93.5598 506.2224,-84.2348"/>
<polygon fill="#191970" stroke="#191970" points="509.0506,-82.1618 500.6989,-75.6427 503.1624,-85.9471 509.0506,-82.1618"/>
</g>
<!-- Node30&#45;&gt;Node2 -->
<g id="edge54" class="edge">
<title>Node30&#45;&gt;Node2</title>
<path fill="none" stroke="#191970" d="M255.4349,-171.3547C375.2132,-160.0223 606.2949,-137.6351 623.5,-132 632.8919,-128.9239 681.7199,-99.539 712.0367,-81.0299"/>
<polygon fill="#191970" stroke="#191970" points="714.0836,-83.8807 720.7869,-75.6761 710.4302,-77.9097 714.0836,-83.8807"/>
</g>
<!-- Node30&#45;&gt;Node8 -->
<g id="edge55" class="edge">
<title>Node30&#45;&gt;Node8</title>
<path fill="none" stroke="#191970" d="M212.6926,-168.3733C239.8453,-159.1016 281.0907,-145.0178 311.0025,-134.804"/>
<polygon fill="#191970" stroke="#191970" points="312.3428,-138.0449 320.6753,-131.5011 310.0808,-131.4204 312.3428,-138.0449"/>
</g>
<!-- Node30&#45;&gt;Node9 -->
<g id="edge56" class="edge">
<title>Node30&#45;&gt;Node9</title>
<path fill="none" stroke="#191970" d="M142.0856,-168.4756C120.6266,-161.6396 95.7524,-150.3054 79.5,-132 68.2097,-119.2836 63.2911,-100.3618 61.1493,-86.0346"/>
<polygon fill="#191970" stroke="#191970" points="64.584,-85.2675 59.9583,-75.7358 57.6303,-86.0717 64.584,-85.2675"/>
</g>
</g>
</svg>
