<?xml version="1.0" encoding="UTF-8" standalone="no"?>
<!DOCTYPE svg PUBLIC "-//W3C//DTD SVG 1.1//EN"
 "http://www.w3.org/Graphics/SVG/1.1/DTD/svg11.dtd">
<!-- Generated by graphviz version 2.40.1 (20161225.0304)
 -->
<!-- Title: InverseKinematicsNLP.h Pages: 1 -->
<svg width="1051pt" height="543pt"
 viewBox="0.00 0.00 1050.50 543.00" xmlns="http://www.w3.org/2000/svg" xmlns:xlink="http://www.w3.org/1999/xlink">
<g id="graph0" class="graph" transform="scale(1 1) rotate(0) translate(4 539)">
<title>InverseKinematicsNLP.h</title>
<!-- Node0 -->
<g id="node1" class="node">
<title>Node0</title>
<polygon fill="#bfbfbf" stroke="#000000" points="567,-515.5 567,-534.5 701,-534.5 701,-515.5 567,-515.5"/>
<text text-anchor="middle" x="634" y="-522.5" font-family="FreeSans.ttf" font-size="10.00" fill="#000000">InverseKinematicsNLP.h</text>
</g>
<!-- Node1 -->
<g id="node2" class="node">
<title>Node1</title>
<polygon fill="none" stroke="#bfbfbf" points="98,-459.5 98,-478.5 168,-478.5 168,-459.5 98,-459.5"/>
<text text-anchor="middle" x="133" y="-466.5" font-family="FreeSans.ttf" font-size="10.00" fill="#000000">IpTNLP.hpp</text>
</g>
<!-- Node0&#45;&gt;Node1 -->
<g id="edge1" class="edge">
<title>Node0&#45;&gt;Node1</title>
<path fill="none" stroke="#191970" d="M566.6773,-520.8281C479.3391,-514.8361 322.1126,-502.0779 178.7638,-479.1254"/>
<polygon fill="#191970" stroke="#191970" points="178.8993,-475.6017 168.4679,-477.4552 177.7783,-482.5114 178.8993,-475.6017"/>
</g>
<!-- Node2 -->
<g id="node3" class="node">
<title>Node2</title>
<g id="a_node3"><a xlink:href="VectorFixSize_8h.html" target="_top" xlink:title="iDynTree/Core/VectorFixSize.h">
<polygon fill="none" stroke="#000000" points="123.5,-112.5 123.5,-131.5 284.5,-131.5 284.5,-112.5 123.5,-112.5"/>
<text text-anchor="middle" x="204" y="-119.5" font-family="FreeSans.ttf" font-size="10.00" fill="#000000">iDynTree/Core/VectorFixSize.h</text>
</a>
</g>
</g>
<!-- Node0&#45;&gt;Node2 -->
<g id="edge2" class="edge">
<title>Node0&#45;&gt;Node2</title>
<path fill="none" stroke="#191970" d="M581.4096,-515.4625C495.8597,-498.4332 336,-459.6368 336,-407.5 336,-407.5 336,-407.5 336,-290 336,-234.9032 348.497,-210.9606 314,-168 301.1942,-152.0524 281.8871,-141.5626 263.0048,-134.6934"/>
<polygon fill="#191970" stroke="#191970" points="264.098,-131.3685 253.5042,-131.5128 261.8758,-138.0064 264.098,-131.3685"/>
</g>
<!-- Node18 -->
<g id="node19" class="node">
<title>Node18</title>
<g id="a_node19"><a xlink:href="VectorDynSize_8h.html" target="_top" xlink:title="iDynTree/Core/VectorDynSize.h">
<polygon fill="none" stroke="#000000" points="519.5,-112.5 519.5,-131.5 686.5,-131.5 686.5,-112.5 519.5,-112.5"/>
<text text-anchor="middle" x="603" y="-119.5" font-family="FreeSans.ttf" font-size="10.00" fill="#000000">iDynTree/Core/VectorDynSize.h</text>
</a>
</g>
</g>
<!-- Node0&#45;&gt;Node18 -->
<g id="edge20" class="edge">
<title>Node0&#45;&gt;Node18</title>
<path fill="none" stroke="#191970" d="M645.4917,-515.2755C696.1434,-471.2768 892.8235,-287.7948 798,-168 784.8566,-151.3953 740.0999,-140.1795 696.7769,-132.9829"/>
<polygon fill="#191970" stroke="#191970" points="697.1214,-129.4936 686.6947,-131.3736 696.018,-136.4061 697.1214,-129.4936"/>
</g>
<!-- Node19 -->
<g id="node20" class="node">
<title>Node19</title>
<g id="a_node20"><a xlink:href="MatrixDynSize_8h.html" target="_top" xlink:title="iDynTree/Core/MatrixDynSize.h">
<polygon fill="none" stroke="#000000" points="875.5,-398 875.5,-417 1042.5,-417 1042.5,-398 875.5,-398"/>
<text text-anchor="middle" x="959" y="-405" font-family="FreeSans.ttf" font-size="10.00" fill="#000000">iDynTree/Core/MatrixDynSize.h</text>
</a>
</g>
</g>
<!-- Node0&#45;&gt;Node19 -->
<g id="edge23" class="edge">
<title>Node0&#45;&gt;Node19</title>
<path fill="none" stroke="#191970" d="M701.1843,-519.2077C747.8758,-513.348 810.6836,-501.7408 862,-479 892.8511,-465.3284 923.3331,-440.5005 941.6638,-424.0021"/>
<polygon fill="#191970" stroke="#191970" points="944.1999,-426.4248 949.1886,-417.0779 939.4599,-421.2737 944.1999,-426.4248"/>
</g>
<!-- Node20 -->
<g id="node21" class="node">
<title>Node20</title>
<g id="a_node21"><a xlink:href="Twist_8h.html" target="_top" xlink:title="iDynTree/Core/Twist.h">
<polygon fill="none" stroke="#000000" points="186,-459.5 186,-478.5 308,-478.5 308,-459.5 186,-459.5"/>
<text text-anchor="middle" x="247" y="-466.5" font-family="FreeSans.ttf" font-size="10.00" fill="#000000">iDynTree/Core/Twist.h</text>
</a>
</g>
</g>
<!-- Node0&#45;&gt;Node20 -->
<g id="edge25" class="edge">
<title>Node0&#45;&gt;Node20</title>
<path fill="none" stroke="#191970" d="M567.9121,-515.4369C498.4671,-505.388 389.6082,-489.6358 318.274,-479.3135"/>
<polygon fill="#191970" stroke="#191970" points="318.4288,-475.7996 308.0307,-477.8313 317.4263,-482.7274 318.4288,-475.7996"/>
</g>
<!-- Node30 -->
<g id="node31" class="node">
<title>Node30</title>
<g id="a_node31"><a xlink:href="Transform_8h.html" target="_top" xlink:title="iDynTree/Core/Transform.h">
<polygon fill="none" stroke="#000000" points="561,-336.5 561,-355.5 707,-355.5 707,-336.5 561,-336.5"/>
<text text-anchor="middle" x="634" y="-343.5" font-family="FreeSans.ttf" font-size="10.00" fill="#000000">iDynTree/Core/Transform.h</text>
</a>
</g>
</g>
<!-- Node0&#45;&gt;Node30 -->
<g id="edge54" class="edge">
<title>Node0&#45;&gt;Node30</title>
<path fill="none" stroke="#191970" d="M634,-515.3762C634,-487.2097 634,-404.5126 634,-366.0713"/>
<polygon fill="#191970" stroke="#191970" points="637.5001,-365.6714 634,-355.6714 630.5001,-365.6714 637.5001,-365.6714"/>
</g>
<!-- Node31 -->
<g id="node32" class="node">
<title>Node31</title>
<polygon fill="none" stroke="#bfbfbf" points="914,-459.5 914,-478.5 952,-478.5 952,-459.5 914,-459.5"/>
<text text-anchor="middle" x="933" y="-466.5" font-family="FreeSans.ttf" font-size="10.00" fill="#000000">map</text>
</g>
<!-- Node0&#45;&gt;Node31 -->
<g id="edge59" class="edge">
<title>Node0&#45;&gt;Node31</title>
<path fill="none" stroke="#191970" d="M701.1456,-515.7253C755.2076,-507.6984 832.9644,-494.8896 900,-479 901.2779,-478.6971 902.5791,-478.3727 903.8902,-478.0327"/>
<polygon fill="#191970" stroke="#191970" points="905.2319,-481.2914 913.9136,-475.2187 903.3398,-474.5519 905.2319,-481.2914"/>
</g>
<!-- Node3 -->
<g id="node4" class="node">
<title>Node3</title>
<g id="a_node4"><a xlink:href="Utils_8h.html" target="_top" xlink:title="iDynTree/Core/Utils.h">
<polygon fill="none" stroke="#000000" points="4.5,-56.5 4.5,-75.5 123.5,-75.5 123.5,-56.5 4.5,-56.5"/>
<text text-anchor="middle" x="64" y="-63.5" font-family="FreeSans.ttf" font-size="10.00" fill="#000000">iDynTree/Core/Utils.h</text>
</a>
</g>
</g>
<!-- Node2&#45;&gt;Node3 -->
<g id="edge3" class="edge">
<title>Node2&#45;&gt;Node3</title>
<path fill="none" stroke="#191970" d="M179.9331,-112.3733C157.1572,-103.2629 122.7656,-89.5062 97.351,-79.3404"/>
<polygon fill="#191970" stroke="#191970" points="98.3375,-75.9654 87.7528,-75.5011 95.7377,-82.4648 98.3375,-75.9654"/>
</g>
<!-- Node6 -->
<g id="node7" class="node">
<title>Node6</title>
<g id="a_node7"><a xlink:href="Span_8h.html" target="_top" xlink:title="iDynTree/Core/Span.h">
<polygon fill="none" stroke="#000000" points="480.5,-56.5 480.5,-75.5 601.5,-75.5 601.5,-56.5 480.5,-56.5"/>
<text text-anchor="middle" x="541" y="-63.5" font-family="FreeSans.ttf" font-size="10.00" fill="#000000">iDynTree/Core/Span.h</text>
</a>
</g>
</g>
<!-- Node2&#45;&gt;Node6 -->
<g id="edge6" class="edge">
<title>Node2&#45;&gt;Node6</title>
<path fill="none" stroke="#191970" d="M261.5495,-112.4369C320.3149,-102.6717 411.4913,-87.5207 473.5966,-77.2006"/>
<polygon fill="#191970" stroke="#191970" points="474.3969,-80.6157 483.6879,-75.5237 473.2494,-73.7103 474.3969,-80.6157"/>
</g>
<!-- Node7 -->
<g id="node8" class="node">
<title>Node7</title>
<polygon fill="none" stroke="#bfbfbf" points="278,-.5 278,-19.5 330,-19.5 330,-.5 278,-.5"/>
<text text-anchor="middle" x="304" y="-7.5" font-family="FreeSans.ttf" font-size="10.00" fill="#000000">cassert</text>
</g>
<!-- Node2&#45;&gt;Node7 -->
<g id="edge18" class="edge">
<title>Node2&#45;&gt;Node7</title>
<path fill="none" stroke="#191970" d="M232.1256,-112.3783C249.7022,-105.0033 271.4887,-93.149 285,-76 295.4808,-62.6974 300.1804,-43.8399 302.2875,-29.6861"/>
<polygon fill="#191970" stroke="#191970" points="305.7888,-29.8802 303.4826,-19.5394 298.8368,-29.0613 305.7888,-29.8802"/>
</g>
<!-- Node15 -->
<g id="node16" class="node">
<title>Node15</title>
<polygon fill="none" stroke="#bfbfbf" points="692,-56.5 692,-75.5 736,-75.5 736,-56.5 692,-56.5"/>
<text text-anchor="middle" x="714" y="-63.5" font-family="FreeSans.ttf" font-size="10.00" fill="#000000">string</text>
</g>
<!-- Node2&#45;&gt;Node15 -->
<g id="edge16" class="edge">
<title>Node2&#45;&gt;Node15</title>
<path fill="none" stroke="#191970" d="M284.529,-112.9406C287.3877,-112.6226 290.2183,-112.3082 293,-112 437.9278,-95.9404 610.9664,-77.1568 681.5853,-69.5076"/>
<polygon fill="#191970" stroke="#191970" points="682.0685,-72.9758 691.6335,-68.4195 681.3148,-66.0165 682.0685,-72.9758"/>
</g>
<!-- Node16 -->
<g id="node17" class="node">
<title>Node16</title>
<polygon fill="none" stroke="#bfbfbf" points="142,-56.5 142,-75.5 198,-75.5 198,-56.5 142,-56.5"/>
<text text-anchor="middle" x="170" y="-63.5" font-family="FreeSans.ttf" font-size="10.00" fill="#000000">sstream</text>
</g>
<!-- Node2&#45;&gt;Node16 -->
<g id="edge17" class="edge">
<title>Node2&#45;&gt;Node16</title>
<path fill="none" stroke="#191970" d="M198.0777,-112.2455C193.3973,-104.5367 186.7327,-93.5598 181.0711,-84.2348"/>
<polygon fill="#191970" stroke="#191970" points="184.0361,-82.3741 175.8545,-75.6427 178.0525,-86.007 184.0361,-82.3741"/>
</g>
<!-- Node17 -->
<g id="node18" class="node">
<title>Node17</title>
<polygon fill="none" stroke="#bfbfbf" points="332,-56.5 332,-75.5 382,-75.5 382,-56.5 332,-56.5"/>
<text text-anchor="middle" x="357" y="-63.5" font-family="FreeSans.ttf" font-size="10.00" fill="#000000">cstring</text>
</g>
<!-- Node2&#45;&gt;Node17 -->
<g id="edge19" class="edge">
<title>Node2&#45;&gt;Node17</title>
<path fill="none" stroke="#191970" d="M230.3016,-112.3733C255.7522,-103.058 294.4743,-88.8852 322.4106,-78.6602"/>
<polygon fill="#191970" stroke="#191970" points="323.6151,-81.9465 331.8028,-75.2225 321.209,-75.3729 323.6151,-81.9465"/>
</g>
<!-- Node4 -->
<g id="node5" class="node">
<title>Node4</title>
<polygon fill="none" stroke="#bfbfbf" points="164.5,-.5 164.5,-19.5 217.5,-19.5 217.5,-.5 164.5,-.5"/>
<text text-anchor="middle" x="191" y="-7.5" font-family="FreeSans.ttf" font-size="10.00" fill="#000000">cstddef</text>
</g>
<!-- Node3&#45;&gt;Node4 -->
<g id="edge4" class="edge">
<title>Node3&#45;&gt;Node4</title>
<path fill="none" stroke="#191970" d="M85.8321,-56.3733C106.3103,-47.3435 137.1399,-33.7494 160.1319,-23.6111"/>
<polygon fill="#191970" stroke="#191970" points="161.715,-26.7383 169.4528,-19.5011 158.8907,-20.3333 161.715,-26.7383"/>
</g>
<!-- Node5 -->
<g id="node6" class="node">
<title>Node5</title>
<polygon fill="none" stroke="#bfbfbf" points="24,-.5 24,-19.5 104,-19.5 104,-.5 24,-.5"/>
<text text-anchor="middle" x="64" y="-7.5" font-family="FreeSans.ttf" font-size="10.00" fill="#000000">CoreExport.h</text>
</g>
<!-- Node3&#45;&gt;Node5 -->
<g id="edge5" class="edge">
<title>Node3&#45;&gt;Node5</title>
<path fill="none" stroke="#191970" d="M64,-56.2455C64,-48.9382 64,-38.6944 64,-29.7046"/>
<polygon fill="#191970" stroke="#191970" points="67.5001,-29.6426 64,-19.6427 60.5001,-29.6427 67.5001,-29.6426"/>
</g>
<!-- Node6&#45;&gt;Node4 -->
<g id="edge10" class="edge">
<title>Node6&#45;&gt;Node4</title>
<path fill="none" stroke="#191970" d="M481.2305,-56.4369C408.6621,-44.8259 288.5048,-25.6008 228.0956,-15.9353"/>
<polygon fill="#191970" stroke="#191970" points="228.3113,-12.4254 217.8839,-14.3014 227.2053,-19.3375 228.3113,-12.4254"/>
</g>
<!-- Node6&#45;&gt;Node7 -->
<g id="edge7" class="edge">
<title>Node6&#45;&gt;Node7</title>
<path fill="none" stroke="#191970" d="M495.9026,-56.466C457.0183,-48.0804 399.154,-35.2097 340.1868,-20.2132"/>
<polygon fill="#191970" stroke="#191970" points="340.8872,-16.7797 330.3315,-17.6893 339.1505,-23.5608 340.8872,-16.7797"/>
</g>
<!-- Node8 -->
<g id="node9" class="node">
<title>Node8</title>
<polygon fill="none" stroke="#bfbfbf" points="582,-.5 582,-19.5 646,-19.5 646,-.5 582,-.5"/>
<text text-anchor="middle" x="614" y="-7.5" font-family="FreeSans.ttf" font-size="10.00" fill="#000000">algorithm</text>
</g>
<!-- Node6&#45;&gt;Node8 -->
<g id="edge8" class="edge">
<title>Node6&#45;&gt;Node8</title>
<path fill="none" stroke="#191970" d="M553.7156,-56.2455C564.602,-47.8943 580.4883,-35.7076 593.22,-25.9408"/>
<polygon fill="#191970" stroke="#191970" points="595.6261,-28.5063 601.4301,-19.6427 591.3654,-22.9523 595.6261,-28.5063"/>
</g>
<!-- Node9 -->
<g id="node10" class="node">
<title>Node9</title>
<polygon fill="none" stroke="#bfbfbf" points="664,-.5 664,-19.5 706,-19.5 706,-.5 664,-.5"/>
<text text-anchor="middle" x="685" y="-7.5" font-family="FreeSans.ttf" font-size="10.00" fill="#000000">array</text>
</g>
<!-- Node6&#45;&gt;Node9 -->
<g id="edge9" class="edge">
<title>Node6&#45;&gt;Node9</title>
<path fill="none" stroke="#191970" d="M565.7545,-56.3733C590.2831,-46.8343 627.9096,-32.2018 654.3214,-21.9306"/>
<polygon fill="#191970" stroke="#191970" points="655.7927,-25.1138 663.8442,-18.2273 653.2555,-18.5898 655.7927,-25.1138"/>
</g>
<!-- Node10 -->
<g id="node11" class="node">
<title>Node10</title>
<polygon fill="none" stroke="#bfbfbf" points="724.5,-.5 724.5,-19.5 777.5,-19.5 777.5,-.5 724.5,-.5"/>
<text text-anchor="middle" x="751" y="-7.5" font-family="FreeSans.ttf" font-size="10.00" fill="#000000">iterator</text>
</g>
<!-- Node6&#45;&gt;Node10 -->
<g id="edge11" class="edge">
<title>Node6&#45;&gt;Node10</title>
<path fill="none" stroke="#191970" d="M577.6967,-56.4408C610.8708,-47.7675 661.3069,-34.5031 714.344,-20.1548"/>
<polygon fill="#191970" stroke="#191970" points="715.5375,-23.4577 724.2739,-17.4639 713.7065,-16.7014 715.5375,-23.4577"/>
</g>
<!-- Node11 -->
<g id="node12" class="node">
<title>Node11</title>
<polygon fill="none" stroke="#bfbfbf" points="796,-.5 796,-19.5 840,-19.5 840,-.5 796,-.5"/>
<text text-anchor="middle" x="818" y="-7.5" font-family="FreeSans.ttf" font-size="10.00" fill="#000000">limits</text>
</g>
<!-- Node6&#45;&gt;Node11 -->
<g id="edge12" class="edge">
<title>Node6&#45;&gt;Node11</title>
<path fill="none" stroke="#191970" d="M601.6199,-56.8712C649.352,-49.1816 717.6885,-37.068 785.7155,-20.0923"/>
<polygon fill="#191970" stroke="#191970" points="786.9124,-23.3997 795.7475,-17.5523 785.1943,-16.6138 786.9124,-23.3997"/>
</g>
<!-- Node12 -->
<g id="node13" class="node">
<title>Node12</title>
<polygon fill="none" stroke="#bfbfbf" points="348.5,-.5 348.5,-19.5 413.5,-19.5 413.5,-.5 348.5,-.5"/>
<text text-anchor="middle" x="381" y="-7.5" font-family="FreeSans.ttf" font-size="10.00" fill="#000000">stdexcept</text>
</g>
<!-- Node6&#45;&gt;Node12 -->
<g id="edge13" class="edge">
<title>Node6&#45;&gt;Node12</title>
<path fill="none" stroke="#191970" d="M513.495,-56.3733C487.1198,-47.1419 447.1149,-33.1402 417.9642,-22.9375"/>
<polygon fill="#191970" stroke="#191970" points="418.7409,-19.5012 408.1461,-19.5011 416.4284,-26.1082 418.7409,-19.5012"/>
</g>
<!-- Node13 -->
<g id="node14" class="node">
<title>Node13</title>
<polygon fill="none" stroke="#bfbfbf" points="431.5,-.5 431.5,-19.5 500.5,-19.5 500.5,-.5 431.5,-.5"/>
<text text-anchor="middle" x="466" y="-7.5" font-family="FreeSans.ttf" font-size="10.00" fill="#000000">type_traits</text>
</g>
<!-- Node6&#45;&gt;Node13 -->
<g id="edge14" class="edge">
<title>Node6&#45;&gt;Node13</title>
<path fill="none" stroke="#191970" d="M527.936,-56.2455C516.6438,-47.814 500.1155,-35.4729 486.9729,-25.6598"/>
<polygon fill="#191970" stroke="#191970" points="489.0211,-22.8211 478.9143,-19.6427 484.8331,-28.4301 489.0211,-22.8211"/>
</g>
<!-- Node14 -->
<g id="node15" class="node">
<title>Node14</title>
<polygon fill="none" stroke="#bfbfbf" points="518.5,-.5 518.5,-19.5 563.5,-19.5 563.5,-.5 518.5,-.5"/>
<text text-anchor="middle" x="541" y="-7.5" font-family="FreeSans.ttf" font-size="10.00" fill="#000000">utility</text>
</g>
<!-- Node6&#45;&gt;Node14 -->
<g id="edge15" class="edge">
<title>Node6&#45;&gt;Node14</title>
<path fill="none" stroke="#191970" d="M541,-56.2455C541,-48.9382 541,-38.6944 541,-29.7046"/>
<polygon fill="#191970" stroke="#191970" points="544.5001,-29.6426 541,-19.6427 537.5001,-29.6427 544.5001,-29.6426"/>
</g>
<!-- Node18&#45;&gt;Node6 -->
<g id="edge21" class="edge">
<title>Node18&#45;&gt;Node6</title>
<path fill="none" stroke="#191970" d="M592.2004,-112.2455C583.1322,-104.0549 569.9794,-92.1749 559.2755,-82.5069"/>
<polygon fill="#191970" stroke="#191970" points="561.4429,-79.7482 551.6758,-75.6427 556.7509,-84.9429 561.4429,-79.7482"/>
</g>
<!-- Node18&#45;&gt;Node15 -->
<g id="edge22" class="edge">
<title>Node18&#45;&gt;Node15</title>
<path fill="none" stroke="#191970" d="M622.0816,-112.3733C639.7402,-103.4644 666.2053,-90.1127 686.2098,-80.0203"/>
<polygon fill="#191970" stroke="#191970" points="687.8158,-83.1303 695.1674,-75.5011 684.6628,-76.8806 687.8158,-83.1303"/>
</g>
<!-- Node19&#45;&gt;Node15 -->
<g id="edge24" class="edge">
<title>Node19&#45;&gt;Node15</title>
<path fill="none" stroke="#191970" d="M957.7486,-397.7704C955.2756,-377.6731 950,-330.0998 950,-290 950,-290 950,-290 950,-178 950,-133.4285 810.8729,-91.2749 746.2631,-74.1021"/>
<polygon fill="#191970" stroke="#191970" points="746.7626,-70.615 736.2023,-71.4702 744.991,-77.3871 746.7626,-70.615"/>
</g>
<!-- Node21 -->
<g id="node22" class="node">
<title>Node21</title>
<g id="a_node22"><a xlink:href="SpatialMotionVector_8h.html" target="_top" xlink:title="iDynTree/Core/SpatialMotion\lVector.h">
<polygon fill="none" stroke="#000000" points="131.5,-392.5 131.5,-422.5 286.5,-422.5 286.5,-392.5 131.5,-392.5"/>
<text text-anchor="start" x="139.5" y="-410.5" font-family="FreeSans.ttf" font-size="10.00" fill="#000000">iDynTree/Core/SpatialMotion</text>
<text text-anchor="middle" x="209" y="-399.5" font-family="FreeSans.ttf" font-size="10.00" fill="#000000">Vector.h</text>
</a>
</g>
</g>
<!-- Node20&#45;&gt;Node21 -->
<g id="edge26" class="edge">
<title>Node20&#45;&gt;Node21</title>
<path fill="none" stroke="#191970" d="M241.0625,-459.3906C236.3959,-451.838 229.6915,-440.9876 223.6188,-431.1593"/>
<polygon fill="#191970" stroke="#191970" points="226.5298,-429.2119 218.2958,-422.5446 220.5748,-432.8914 226.5298,-429.2119"/>
</g>
<!-- Node21&#45;&gt;Node2 -->
<g id="edge27" class="edge">
<title>Node21&#45;&gt;Node2</title>
<path fill="none" stroke="#191970" d="M146.8242,-392.4323C128.2377,-384.7135 109.9201,-373.1702 99,-356 71.4549,-312.6893 -55.9735,-445.5325 133,-168 142.2686,-154.3878 157.0384,-143.8752 170.7123,-136.3583"/>
<polygon fill="#191970" stroke="#191970" points="172.6239,-139.3113 179.9228,-131.6316 169.4279,-133.0835 172.6239,-139.3113"/>
</g>
<!-- Node22 -->
<g id="node23" class="node">
<title>Node22</title>
<g id="a_node23"><a xlink:href="GeomVector3_8h.html" target="_top" xlink:title="iDynTree/Core/GeomVector3.h">
<polygon fill="none" stroke="#000000" points="142.5,-168.5 142.5,-187.5 305.5,-187.5 305.5,-168.5 142.5,-168.5"/>
<text text-anchor="middle" x="224" y="-175.5" font-family="FreeSans.ttf" font-size="10.00" fill="#000000">iDynTree/Core/GeomVector3.h</text>
</a>
</g>
</g>
<!-- Node21&#45;&gt;Node22 -->
<g id="edge28" class="edge">
<title>Node21&#45;&gt;Node22</title>
<path fill="none" stroke="#191970" d="M240.6421,-392.4839C254.8158,-383.9409 270.0935,-371.7673 278,-356 305.6541,-300.8519 261.963,-228.8867 238.0087,-195.9148"/>
<polygon fill="#191970" stroke="#191970" points="240.6481,-193.6004 231.8514,-187.6954 235.0458,-197.7973 240.6481,-193.6004"/>
</g>
<!-- Node23 -->
<g id="node24" class="node">
<title>Node23</title>
<g id="a_node24"><a xlink:href="SpatialVector_8h.html" target="_top" xlink:title="iDynTree/Core/SpatialVector.h">
<polygon fill="none" stroke="#000000" points="108.5,-336.5 108.5,-355.5 269.5,-355.5 269.5,-336.5 108.5,-336.5"/>
<text text-anchor="middle" x="189" y="-343.5" font-family="FreeSans.ttf" font-size="10.00" fill="#000000">iDynTree/Core/SpatialVector.h</text>
</a>
</g>
</g>
<!-- Node21&#45;&gt;Node23 -->
<g id="edge30" class="edge">
<title>Node21&#45;&gt;Node23</title>
<path fill="none" stroke="#191970" d="M204.0562,-392.2977C201.4246,-384.2055 198.159,-374.1639 195.3424,-365.5029"/>
<polygon fill="#191970" stroke="#191970" points="198.6234,-364.2743 192.2023,-355.8469 191.9665,-366.4391 198.6234,-364.2743"/>
</g>
<!-- Node22&#45;&gt;Node2 -->
<g id="edge29" class="edge">
<title>Node22&#45;&gt;Node2</title>
<path fill="none" stroke="#191970" d="M220.5163,-168.2455C217.8492,-160.7776 214.0867,-150.2427 210.8263,-141.1137"/>
<polygon fill="#191970" stroke="#191970" points="214.1033,-139.8829 207.4438,-131.6427 207.5111,-142.2373 214.1033,-139.8829"/>
</g>
<!-- Node23&#45;&gt;Node3 -->
<g id="edge50" class="edge">
<title>Node23&#45;&gt;Node3</title>
<path fill="none" stroke="#191970" d="M129.9766,-336.4866C74.5219,-323.7858 0,-295.3119 0,-234 0,-234 0,-234 0,-178 0,-140.2379 27.7654,-103.6312 46.7202,-83.0404"/>
<polygon fill="#191970" stroke="#191970" points="49.3365,-85.3686 53.7173,-75.7219 44.2769,-80.5312 49.3365,-85.3686"/>
</g>
<!-- Node23&#45;&gt;Node16 -->
<g id="edge53" class="edge">
<title>Node23&#45;&gt;Node16</title>
<path fill="none" stroke="#191970" d="M131.6179,-336.4161C107.4529,-329.7838 80.6664,-318.6428 62,-300 39.9155,-277.9434 38,-265.2125 38,-234 38,-234 38,-234 38,-178 38,-146.7875 40.532,-134.6571 62,-112 72.1434,-101.2948 105.3355,-87.9918 132.2737,-78.4497"/>
<polygon fill="#191970" stroke="#191970" points="133.5653,-81.7062 141.8611,-75.1161 131.2663,-75.0945 133.5653,-81.7062"/>
</g>
<!-- Node23&#45;&gt;Node22 -->
<g id="edge51" class="edge">
<title>Node23&#45;&gt;Node22</title>
<path fill="none" stroke="#191970" d="M190.982,-336.4862C196.5387,-309.8144 212.3517,-233.9117 219.8969,-197.695"/>
<polygon fill="#191970" stroke="#191970" points="223.3393,-198.3316 221.9525,-187.8279 216.4865,-196.9038 223.3393,-198.3316"/>
</g>
<!-- Node24 -->
<g id="node25" class="node">
<title>Node24</title>
<g id="a_node25"><a xlink:href="Position_8h.html" target="_top" xlink:title="Position.h">
<polygon fill="none" stroke="#000000" points="497.5,-280.5 497.5,-299.5 562.5,-299.5 562.5,-280.5 497.5,-280.5"/>
<text text-anchor="middle" x="530" y="-287.5" font-family="FreeSans.ttf" font-size="10.00" fill="#000000">Position.h</text>
</a>
</g>
</g>
<!-- Node23&#45;&gt;Node24 -->
<g id="edge31" class="edge">
<title>Node23&#45;&gt;Node24</title>
<path fill="none" stroke="#191970" d="M247.2325,-336.4369C315.384,-325.2449 426.6153,-306.9781 487.2654,-297.018"/>
<polygon fill="#191970" stroke="#191970" points="487.9648,-300.4501 497.2654,-295.3758 486.8304,-293.5426 487.9648,-300.4501"/>
</g>
<!-- Node26 -->
<g id="node27" class="node">
<title>Node26</title>
<g id="a_node27"><a xlink:href="Rotation_8h.html" target="_top" xlink:title="iDynTree/Core/Rotation.h">
<polygon fill="none" stroke="#000000" points="364.5,-224.5 364.5,-243.5 501.5,-243.5 501.5,-224.5 364.5,-224.5"/>
<text text-anchor="middle" x="433" y="-231.5" font-family="FreeSans.ttf" font-size="10.00" fill="#000000">iDynTree/Core/Rotation.h</text>
</a>
</g>
</g>
<!-- Node23&#45;&gt;Node26 -->
<g id="edge49" class="edge">
<title>Node23&#45;&gt;Node26</title>
<path fill="none" stroke="#191970" d="M209.8033,-336.4509C253.0206,-316.6135 352.6634,-270.8758 402.8935,-247.8194"/>
<polygon fill="#191970" stroke="#191970" points="404.6212,-250.8775 412.2494,-243.5249 401.7009,-244.5157 404.6212,-250.8775"/>
</g>
<!-- Node29 -->
<g id="node30" class="node">
<title>Node29</title>
<polygon fill="none" stroke="#bfbfbf" points="216,-56.5 216,-75.5 276,-75.5 276,-56.5 216,-56.5"/>
<text text-anchor="middle" x="246" y="-63.5" font-family="FreeSans.ttf" font-size="10.00" fill="#000000">iostream</text>
</g>
<!-- Node23&#45;&gt;Node29 -->
<g id="edge52" class="edge">
<title>Node23&#45;&gt;Node29</title>
<path fill="none" stroke="#191970" d="M167.2125,-336.466C134.376,-320.4478 76,-284.8238 76,-234 76,-234 76,-234 76,-178 76,-144.1521 87.935,-133.5939 114,-112 128.2687,-100.1789 172.4816,-86.0931 205.8386,-76.6504"/>
<polygon fill="#191970" stroke="#191970" points="207.1029,-79.9316 215.797,-73.8767 205.2246,-73.1883 207.1029,-79.9316"/>
</g>
<!-- Node24&#45;&gt;Node15 -->
<g id="edge48" class="edge">
<title>Node24&#45;&gt;Node15</title>
<path fill="none" stroke="#191970" d="M562.571,-287.7166C618.1228,-281.8629 729.934,-261.1225 779,-188 803.116,-152.0602 760.9962,-106.2117 733.9945,-82.2513"/>
<polygon fill="#191970" stroke="#191970" points="736.058,-79.41 726.19,-75.5532 731.499,-84.7219 736.058,-79.41"/>
</g>
<!-- Node25 -->
<g id="node26" class="node">
<title>Node25</title>
<g id="a_node26"><a xlink:href="PositionRaw_8h.html" target="_top" xlink:title="iDynTree/Core/PositionRaw.h">
<polygon fill="none" stroke="#000000" points="438,-168.5 438,-187.5 594,-187.5 594,-168.5 438,-168.5"/>
<text text-anchor="middle" x="516" y="-175.5" font-family="FreeSans.ttf" font-size="10.00" fill="#000000">iDynTree/Core/PositionRaw.h</text>
</a>
</g>
</g>
<!-- Node24&#45;&gt;Node25 -->
<g id="edge32" class="edge">
<title>Node24&#45;&gt;Node25</title>
<path fill="none" stroke="#191970" d="M528.8064,-280.4509C526.523,-262.184 521.4944,-221.9553 518.4622,-197.6976"/>
<polygon fill="#191970" stroke="#191970" points="521.904,-197.0135 517.1906,-187.5249 514.9581,-197.8818 521.904,-197.0135"/>
</g>
<!-- Node24&#45;&gt;Node26 -->
<g id="edge35" class="edge">
<title>Node24&#45;&gt;Node26</title>
<path fill="none" stroke="#191970" d="M513.1039,-280.2455C498.082,-271.5731 475.8957,-258.7645 458.679,-248.825"/>
<polygon fill="#191970" stroke="#191970" points="460.1128,-245.6114 449.7025,-243.6427 456.6129,-251.6737 460.1128,-245.6114"/>
</g>
<!-- Node25&#45;&gt;Node2 -->
<g id="edge33" class="edge">
<title>Node25&#45;&gt;Node2</title>
<path fill="none" stroke="#191970" d="M462.7198,-168.4369C408.5382,-158.712 324.5969,-143.6456 267.1159,-133.3285"/>
<polygon fill="#191970" stroke="#191970" points="267.5215,-129.8454 257.0605,-131.5237 266.2848,-136.7353 267.5215,-129.8454"/>
</g>
<!-- Node25&#45;&gt;Node15 -->
<g id="edge34" class="edge">
<title>Node25&#45;&gt;Node15</title>
<path fill="none" stroke="#191970" d="M579.7567,-168.452C624.2441,-160.5542 678.4887,-148.0431 695,-132 707.4026,-119.949 711.8505,-100.3695 713.3761,-85.6595"/>
<polygon fill="#191970" stroke="#191970" points="716.876,-85.778 714.0565,-75.5652 709.8918,-85.3072 716.876,-85.778"/>
</g>
<!-- Node26&#45;&gt;Node2 -->
<g id="edge47" class="edge">
<title>Node26&#45;&gt;Node2</title>
<path fill="none" stroke="#191970" d="M422.8413,-224.1463C407.6902,-209.9334 377.7558,-183.6699 348,-168 319.4594,-152.9701 285.1319,-141.769 257.1526,-134.1847"/>
<polygon fill="#191970" stroke="#191970" points="257.7156,-130.7138 247.1541,-131.5537 255.9342,-137.4833 257.7156,-130.7138"/>
</g>
<!-- Node26&#45;&gt;Node15 -->
<g id="edge36" class="edge">
<title>Node26&#45;&gt;Node15</title>
<path fill="none" stroke="#191970" d="M429.4551,-224.3848C425.1199,-210.9192 419.4592,-186.0691 429,-168 439.3032,-148.487 490.7716,-120.8161 511,-112 568.2917,-87.0306 640.8221,-74.8042 681.8542,-69.4992"/>
<polygon fill="#191970" stroke="#191970" points="682.3275,-72.9674 691.8227,-68.2672 681.4689,-66.0202 682.3275,-72.9674"/>
</g>
<!-- Node26&#45;&gt;Node22 -->
<g id="edge37" class="edge">
<title>Node26&#45;&gt;Node22</title>
<path fill="none" stroke="#191970" d="M397.0716,-224.3733C361.7163,-214.9001 307.612,-200.4032 269.3212,-190.1435"/>
<polygon fill="#191970" stroke="#191970" points="270.0247,-186.7086 259.4595,-187.5011 268.213,-193.4701 270.0247,-186.7086"/>
</g>
<!-- Node27 -->
<g id="node28" class="node">
<title>Node27</title>
<g id="a_node28"><a xlink:href="RotationRaw_8h.html" target="_top" xlink:title="iDynTree/Core/RotationRaw.h">
<polygon fill="none" stroke="#000000" points="612,-168.5 612,-187.5 770,-187.5 770,-168.5 612,-168.5"/>
<text text-anchor="middle" x="691" y="-175.5" font-family="FreeSans.ttf" font-size="10.00" fill="#000000">iDynTree/Core/RotationRaw.h</text>
</a>
</g>
</g>
<!-- Node26&#45;&gt;Node27 -->
<g id="edge38" class="edge">
<title>Node26&#45;&gt;Node27</title>
<path fill="none" stroke="#191970" d="M477.0586,-224.4369C521.3989,-214.8127 589.8411,-199.957 637.3249,-189.6504"/>
<polygon fill="#191970" stroke="#191970" points="638.0931,-193.0653 647.1231,-187.5237 636.6082,-186.2245 638.0931,-193.0653"/>
</g>
<!-- Node27&#45;&gt;Node15 -->
<g id="edge46" class="edge">
<title>Node27&#45;&gt;Node15</title>
<path fill="none" stroke="#191970" d="M702.1502,-168.3293C711.0671,-159.8007 722.8921,-146.5 728,-132 733.4582,-116.5054 728.7339,-98.1789 723.3458,-84.7741"/>
<polygon fill="#191970" stroke="#191970" points="726.5273,-83.3147 719.2538,-75.6111 720.1357,-86.1691 726.5273,-83.3147"/>
</g>
<!-- Node28 -->
<g id="node29" class="node">
<title>Node28</title>
<g id="a_node29"><a xlink:href="MatrixFixSize_8h.html" target="_top" xlink:title="iDynTree/Core/MatrixFixSize.h">
<polygon fill="none" stroke="#000000" points="302.5,-112.5 302.5,-131.5 463.5,-131.5 463.5,-112.5 302.5,-112.5"/>
<text text-anchor="middle" x="383" y="-119.5" font-family="FreeSans.ttf" font-size="10.00" fill="#000000">iDynTree/Core/MatrixFixSize.h</text>
</a>
</g>
</g>
<!-- Node27&#45;&gt;Node28 -->
<g id="edge39" class="edge">
<title>Node27&#45;&gt;Node28</title>
<path fill="none" stroke="#191970" d="M638.4029,-168.4369C584.9159,-158.712 502.0508,-143.6456 445.3067,-133.3285"/>
<polygon fill="#191970" stroke="#191970" points="445.845,-129.8691 435.3802,-131.5237 444.5928,-136.7562 445.845,-129.8691"/>
</g>
<!-- Node28&#45;&gt;Node3 -->
<g id="edge40" class="edge">
<title>Node28&#45;&gt;Node3</title>
<path fill="none" stroke="#191970" d="M328.5244,-112.4369C273.0125,-102.6918 186.9471,-87.5832 128.1672,-77.2645"/>
<polygon fill="#191970" stroke="#191970" points="128.7055,-73.8055 118.2509,-75.5237 127.4951,-80.7001 128.7055,-73.8055"/>
</g>
<!-- Node28&#45;&gt;Node7 -->
<g id="edge41" class="edge">
<title>Node28&#45;&gt;Node7</title>
<path fill="none" stroke="#191970" d="M387.7281,-112.2537C393.5929,-98.6323 401.602,-73.5983 391,-56 384.8559,-45.8013 359.6144,-33.0729 337.8912,-23.5922"/>
<polygon fill="#191970" stroke="#191970" points="339.1236,-20.3129 328.5517,-19.6154 336.3812,-26.7534 339.1236,-20.3129"/>
</g>
<!-- Node28&#45;&gt;Node15 -->
<g id="edge43" class="edge">
<title>Node28&#45;&gt;Node15</title>
<path fill="none" stroke="#191970" d="M439.5248,-112.4369C509.2574,-100.6392 625.4544,-80.9805 681.6298,-71.4765"/>
<polygon fill="#191970" stroke="#191970" points="682.4387,-74.8895 691.7147,-69.7703 681.2709,-67.9876 682.4387,-74.8895"/>
</g>
<!-- Node28&#45;&gt;Node16 -->
<g id="edge45" class="edge">
<title>Node28&#45;&gt;Node16</title>
<path fill="none" stroke="#191970" d="M346.2338,-112.4856C312.6987,-103.7863 261.5124,-90.4556 208.2424,-76.3165"/>
<polygon fill="#191970" stroke="#191970" points="208.8387,-72.8535 198.2752,-73.6679 207.041,-79.6188 208.8387,-72.8535"/>
</g>
<!-- Node28&#45;&gt;Node17 -->
<g id="edge42" class="edge">
<title>Node28&#45;&gt;Node17</title>
<path fill="none" stroke="#191970" d="M378.4711,-112.2455C374.9666,-104.6973 370.0073,-94.0158 365.7377,-84.8197"/>
<polygon fill="#191970" stroke="#191970" points="368.8627,-83.2389 361.477,-75.6427 362.5136,-86.1867 368.8627,-83.2389"/>
</g>
<!-- Node28&#45;&gt;Node29 -->
<g id="edge44" class="edge">
<title>Node28&#45;&gt;Node29</title>
<path fill="none" stroke="#191970" d="M359.4489,-112.3733C337.1609,-103.2629 303.5063,-89.5062 278.6363,-79.3404"/>
<polygon fill="#191970" stroke="#191970" points="279.8247,-76.0451 269.2438,-75.5011 277.1761,-82.5247 279.8247,-76.0451"/>
</g>
<!-- Node30&#45;&gt;Node15 -->
<g id="edge58" class="edge">
<title>Node30&#45;&gt;Node15</title>
<path fill="none" stroke="#191970" d="M671.5952,-336.4443C693.4013,-329.3424 720.184,-317.7577 739,-300 779.6201,-261.6645 782.9741,-242.3133 796,-188 803.9919,-154.6766 802.5032,-140.1771 783,-112 773.6129,-98.4381 758.8092,-87.8021 745.3167,-80.1894"/>
<polygon fill="#191970" stroke="#191970" points="746.744,-76.9849 736.2679,-75.4032 743.4711,-83.1727 746.744,-76.9849"/>
</g>
<!-- Node30&#45;&gt;Node24 -->
<g id="edge55" class="edge">
<title>Node30&#45;&gt;Node24</title>
<path fill="none" stroke="#191970" d="M615.8846,-336.2455C599.555,-327.4527 575.329,-314.4079 556.7661,-304.4125"/>
<polygon fill="#191970" stroke="#191970" points="558.3719,-301.3021 547.9078,-299.6427 555.0532,-307.4654 558.3719,-301.3021"/>
</g>
<!-- Node30&#45;&gt;Node26 -->
<g id="edge56" class="edge">
<title>Node30&#45;&gt;Node26</title>
<path fill="none" stroke="#191970" d="M579.0601,-336.4767C550.1975,-329.6259 515.2604,-318.2777 488,-300 469.5044,-287.599 453.8756,-267.2149 444.0603,-252.3768"/>
<polygon fill="#191970" stroke="#191970" points="446.7869,-250.1405 438.4782,-243.5666 440.8738,-253.887 446.7869,-250.1405"/>
</g>
<!-- Node30&#45;&gt;Node28 -->
<g id="edge57" class="edge">
<title>Node30&#45;&gt;Node28</title>
<path fill="none" stroke="#191970" d="M652.4701,-336.4944C702.6978,-309.4833 834.4023,-230.2105 779,-168 768.9326,-156.6955 587.6409,-139.3554 473.8823,-129.5108"/>
<polygon fill="#191970" stroke="#191970" points="474.0368,-126.0112 463.7733,-128.6403 473.4362,-132.9854 474.0368,-126.0112"/>
</g>
</g>
</svg>
