<?xml version="1.0" encoding="UTF-8" standalone="no"?>
<!DOCTYPE svg PUBLIC "-//W3C//DTD SVG 1.1//EN"
 "http://www.w3.org/Graphics/SVG/1.1/DTD/svg11.dtd">
<!-- Generated by graphviz version 2.40.1 (20161225.0304)
 -->
<!-- Title: JetsVisualization.h Pages: 1 -->
<svg width="1571pt" height="666pt"
 viewBox="0.00 0.00 1570.50 666.00" xmlns="http://www.w3.org/2000/svg" xmlns:xlink="http://www.w3.org/1999/xlink">
<g id="graph0" class="graph" transform="scale(1 1) rotate(0) translate(4 662)">
<title>JetsVisualization.h</title>
<!-- Node0 -->
<g id="node1" class="node">
<title>Node0</title>
<polygon fill="#bfbfbf" stroke="#000000" points="630.5,-638.5 630.5,-657.5 737.5,-657.5 737.5,-638.5 630.5,-638.5"/>
<text text-anchor="middle" x="684" y="-645.5" font-family="FreeSans.ttf" font-size="10.00" fill="#000000">JetsVisualization.h</text>
</g>
<!-- Node1 -->
<g id="node2" class="node">
<title>Node1</title>
<g id="a_node2"><a xlink:href="Visualizer_8h.html" target="_top" xlink:title="iDynTree/Visualizer.h">
<polygon fill="none" stroke="#000000" points="571.5,-582.5 571.5,-601.5 690.5,-601.5 690.5,-582.5 571.5,-582.5"/>
<text text-anchor="middle" x="631" y="-589.5" font-family="FreeSans.ttf" font-size="10.00" fill="#000000">iDynTree/Visualizer.h</text>
</a>
</g>
</g>
<!-- Node0&#45;&gt;Node1 -->
<g id="edge1" class="edge">
<title>Node0&#45;&gt;Node1</title>
<path fill="none" stroke="#191970" d="M674.7681,-638.2455C667.1683,-630.2155 656.2123,-618.6394 647.1632,-609.0781"/>
<polygon fill="#191970" stroke="#191970" points="649.542,-606.4998 640.1261,-601.6427 644.4579,-611.3115 649.542,-606.4998"/>
</g>
<!-- Node40 -->
<g id="node41" class="node">
<title>Node40</title>
<polygon fill="none" stroke="#bfbfbf" points="708.5,-582.5 708.5,-601.5 765.5,-601.5 765.5,-582.5 708.5,-582.5"/>
<text text-anchor="middle" x="737" y="-589.5" font-family="FreeSans.ttf" font-size="10.00" fill="#000000">irrlicht.h</text>
</g>
<!-- Node0&#45;&gt;Node40 -->
<g id="edge81" class="edge">
<title>Node0&#45;&gt;Node40</title>
<path fill="none" stroke="#191970" d="M693.2319,-638.2455C700.8317,-630.2155 711.7877,-618.6394 720.8368,-609.0781"/>
<polygon fill="#191970" stroke="#191970" points="723.5421,-611.3115 727.8739,-601.6427 718.458,-606.4998 723.5421,-611.3115"/>
</g>
<!-- Node2 -->
<g id="node3" class="node">
<title>Node2</title>
<polygon fill="none" stroke="#bfbfbf" points="343,-56.5 343,-75.5 387,-75.5 387,-56.5 343,-56.5"/>
<text text-anchor="middle" x="365" y="-63.5" font-family="FreeSans.ttf" font-size="10.00" fill="#000000">string</text>
</g>
<!-- Node1&#45;&gt;Node2 -->
<g id="edge2" class="edge">
<title>Node1&#45;&gt;Node2</title>
<path fill="none" stroke="#191970" d="M571.3529,-587.656C414.059,-575.4062 0,-537.6818 0,-480 0,-480 0,-480 0,-183.5 0,-138.0856 32.4205,-132.3906 73,-112 118.0667,-89.3546 266.069,-74.3656 332.3706,-68.6258"/>
<polygon fill="#191970" stroke="#191970" points="332.9839,-72.0864 342.6522,-67.7534 332.392,-65.1115 332.9839,-72.0864"/>
</g>
<!-- Node3 -->
<g id="node4" class="node">
<title>Node3</title>
<g id="a_node4"><a xlink:href="Direction_8h.html" target="_top" xlink:title="iDynTree/Core/Direction.h">
<polygon fill="none" stroke="#000000" points="1138.5,-174 1138.5,-193 1279.5,-193 1279.5,-174 1138.5,-174"/>
<text text-anchor="middle" x="1209" y="-181" font-family="FreeSans.ttf" font-size="10.00" fill="#000000">iDynTree/Core/Direction.h</text>
</a>
</g>
</g>
<!-- Node1&#45;&gt;Node3 -->
<g id="edge3" class="edge">
<title>Node1&#45;&gt;Node3</title>
<path fill="none" stroke="#191970" d="M685.6556,-582.4595C738.8531,-573.169 821.9791,-558.6399 894,-546 1044.7552,-519.542 1232,-633.0593 1232,-480 1232,-480 1232,-480 1232,-301 1232,-265.8287 1221.9523,-225.8199 1215.139,-202.7331"/>
<polygon fill="#191970" stroke="#191970" points="1218.4715,-201.6617 1212.1981,-193.1239 1211.778,-203.7104 1218.4715,-201.6617"/>
</g>
<!-- Node19 -->
<g id="node20" class="node">
<title>Node19</title>
<g id="a_node20"><a xlink:href="Position_8h.html" target="_top" xlink:title="iDynTree/Core/Position.h">
<polygon fill="none" stroke="#000000" points="461,-291.5 461,-310.5 597,-310.5 597,-291.5 461,-291.5"/>
<text text-anchor="middle" x="529" y="-298.5" font-family="FreeSans.ttf" font-size="10.00" fill="#000000">iDynTree/Core/Position.h</text>
</a>
</g>
</g>
<!-- Node1&#45;&gt;Node19 -->
<g id="edge24" class="edge">
<title>Node1&#45;&gt;Node19</title>
<path fill="none" stroke="#191970" d="M600.9462,-582.3699C582.8355,-575.0982 560.6979,-563.3604 547,-546 528.1664,-522.1308 529,-510.4047 529,-480 529,-480 529,-480 529,-418.5 529,-384.1399 529,-344.128 529,-320.7764"/>
<polygon fill="#191970" stroke="#191970" points="532.5001,-320.7489 529,-310.7489 525.5001,-320.749 532.5001,-320.7489"/>
</g>
<!-- Node26 -->
<g id="node27" class="node">
<title>Node26</title>
<g id="a_node27"><a xlink:href="JointState_8h.html" target="_top" xlink:title="iDynTree/Model/JointState.h">
<polygon fill="none" stroke="#000000" points="1052.5,-470.5 1052.5,-489.5 1203.5,-489.5 1203.5,-470.5 1052.5,-470.5"/>
<text text-anchor="middle" x="1128" y="-477.5" font-family="FreeSans.ttf" font-size="10.00" fill="#000000">iDynTree/Model/JointState.h</text>
</a>
</g>
</g>
<!-- Node1&#45;&gt;Node26 -->
<g id="edge43" class="edge">
<title>Node1&#45;&gt;Node26</title>
<path fill="none" stroke="#191970" d="M673.3739,-582.4509C764.1535,-561.9936 977.1608,-513.9919 1075.9669,-491.7258"/>
<polygon fill="#191970" stroke="#191970" points="1076.7474,-495.1377 1085.7333,-489.5249 1075.2085,-488.309 1076.7474,-495.1377"/>
</g>
<!-- Node31 -->
<g id="node32" class="node">
<title>Node31</title>
<g id="a_node32"><a xlink:href="LinkState_8h.html" target="_top" xlink:title="iDynTree/Model/LinkState.h">
<polygon fill="none" stroke="#000000" points="556.5,-526.5 556.5,-545.5 705.5,-545.5 705.5,-526.5 556.5,-526.5"/>
<text text-anchor="middle" x="631" y="-533.5" font-family="FreeSans.ttf" font-size="10.00" fill="#000000">iDynTree/Model/LinkState.h</text>
</a>
</g>
</g>
<!-- Node1&#45;&gt;Node31 -->
<g id="edge59" class="edge">
<title>Node1&#45;&gt;Node31</title>
<path fill="none" stroke="#191970" d="M631,-582.2455C631,-574.9382 631,-564.6944 631,-555.7046"/>
<polygon fill="#191970" stroke="#191970" points="634.5001,-555.6426 631,-545.6427 627.5001,-555.6427 634.5001,-555.6426"/>
</g>
<!-- Node3&#45;&gt;Node2 -->
<g id="edge4" class="edge">
<title>Node3&#45;&gt;Node2</title>
<path fill="none" stroke="#191970" d="M1138.1525,-177.7312C1101.1595,-174.7538 1055.1456,-171.1047 1014,-168 790.0659,-151.1027 727.4031,-188.284 510,-132 489.5956,-126.7174 486.1627,-120.7771 467,-112 443.1709,-101.0856 416.127,-88.8984 395.876,-79.8117"/>
<polygon fill="#191970" stroke="#191970" points="397.0809,-76.5163 386.5241,-75.6192 394.2173,-82.9038 397.0809,-76.5163"/>
</g>
<!-- Node4 -->
<g id="node5" class="node">
<title>Node4</title>
<g id="a_node5"><a xlink:href="VectorFixSize_8h.html" target="_top" xlink:title="iDynTree/Core/VectorFixSize.h">
<polygon fill="none" stroke="#000000" points="843.5,-112.5 843.5,-131.5 1004.5,-131.5 1004.5,-112.5 843.5,-112.5"/>
<text text-anchor="middle" x="924" y="-119.5" font-family="FreeSans.ttf" font-size="10.00" fill="#000000">iDynTree/Core/VectorFixSize.h</text>
</a>
</g>
</g>
<!-- Node3&#45;&gt;Node4 -->
<g id="edge5" class="edge">
<title>Node3&#45;&gt;Node4</title>
<path fill="none" stroke="#191970" d="M1164.7815,-173.9581C1114.5473,-163.1181 1032.5427,-145.4224 978.4228,-133.7439"/>
<polygon fill="#191970" stroke="#191970" points="978.8356,-130.2524 968.3223,-131.5643 977.359,-137.095 978.8356,-130.2524"/>
</g>
<!-- Node5 -->
<g id="node6" class="node">
<title>Node5</title>
<g id="a_node6"><a xlink:href="Utils_8h.html" target="_top" xlink:title="iDynTree/Core/Utils.h">
<polygon fill="none" stroke="#000000" points="946.5,-56.5 946.5,-75.5 1065.5,-75.5 1065.5,-56.5 946.5,-56.5"/>
<text text-anchor="middle" x="1006" y="-63.5" font-family="FreeSans.ttf" font-size="10.00" fill="#000000">iDynTree/Core/Utils.h</text>
</a>
</g>
</g>
<!-- Node3&#45;&gt;Node5 -->
<g id="edge23" class="edge">
<title>Node3&#45;&gt;Node5</title>
<path fill="none" stroke="#191970" d="M1192.3877,-173.8845C1156.9099,-153.3494 1073.5479,-105.0979 1031.3794,-80.6901"/>
<polygon fill="#191970" stroke="#191970" points="1032.9653,-77.564 1022.5572,-75.5836 1029.4586,-83.6223 1032.9653,-77.564"/>
</g>
<!-- Node4&#45;&gt;Node2 -->
<g id="edge19" class="edge">
<title>Node4&#45;&gt;Node2</title>
<path fill="none" stroke="#191970" d="M843.3136,-113.9169C718.1998,-101.3832 482.8882,-77.8099 397.228,-69.2286"/>
<polygon fill="#191970" stroke="#191970" points="397.3777,-65.7261 387.0786,-68.2118 396.6798,-72.6913 397.3777,-65.7261"/>
</g>
<!-- Node4&#45;&gt;Node5 -->
<g id="edge6" class="edge">
<title>Node4&#45;&gt;Node5</title>
<path fill="none" stroke="#191970" d="M938.2833,-112.2455C950.747,-103.7337 969.0451,-91.2375 983.4792,-81.3801"/>
<polygon fill="#191970" stroke="#191970" points="985.5962,-84.1726 991.8804,-75.6427 981.6485,-78.392 985.5962,-84.1726"/>
</g>
<!-- Node8 -->
<g id="node9" class="node">
<title>Node8</title>
<g id="a_node9"><a xlink:href="Span_8h.html" target="_top" xlink:title="iDynTree/Core/Span.h">
<polygon fill="none" stroke="#000000" points="1190.5,-56.5 1190.5,-75.5 1311.5,-75.5 1311.5,-56.5 1190.5,-56.5"/>
<text text-anchor="middle" x="1251" y="-63.5" font-family="FreeSans.ttf" font-size="10.00" fill="#000000">iDynTree/Core/Span.h</text>
</a>
</g>
</g>
<!-- Node4&#45;&gt;Node8 -->
<g id="edge9" class="edge">
<title>Node4&#45;&gt;Node8</title>
<path fill="none" stroke="#191970" d="M979.8418,-112.4369C1036.7458,-102.6918 1124.9696,-87.5832 1185.2236,-77.2645"/>
<polygon fill="#191970" stroke="#191970" points="1186.1229,-80.6615 1195.3886,-75.5237 1184.9412,-73.7619 1186.1229,-80.6615"/>
</g>
<!-- Node9 -->
<g id="node10" class="node">
<title>Node9</title>
<polygon fill="none" stroke="#bfbfbf" points="831,-.5 831,-19.5 883,-19.5 883,-.5 831,-.5"/>
<text text-anchor="middle" x="857" y="-7.5" font-family="FreeSans.ttf" font-size="10.00" fill="#000000">cassert</text>
</g>
<!-- Node4&#45;&gt;Node9 -->
<g id="edge21" class="edge">
<title>Node4&#45;&gt;Node9</title>
<path fill="none" stroke="#191970" d="M918.2876,-112.4509C907.1623,-93.8533 882.4192,-52.4919 868.005,-28.3964"/>
<polygon fill="#191970" stroke="#191970" points="870.8352,-26.3098 862.6979,-19.5249 864.8281,-29.9034 870.8352,-26.3098"/>
</g>
<!-- Node17 -->
<g id="node18" class="node">
<title>Node17</title>
<polygon fill="none" stroke="#bfbfbf" points="774,-56.5 774,-75.5 830,-75.5 830,-56.5 774,-56.5"/>
<text text-anchor="middle" x="802" y="-63.5" font-family="FreeSans.ttf" font-size="10.00" fill="#000000">sstream</text>
</g>
<!-- Node4&#45;&gt;Node17 -->
<g id="edge20" class="edge">
<title>Node4&#45;&gt;Node17</title>
<path fill="none" stroke="#191970" d="M903.0275,-112.3733C883.4433,-103.3838 854.0039,-89.8706 831.949,-79.7471"/>
<polygon fill="#191970" stroke="#191970" points="833.2473,-76.4919 822.6989,-75.5011 830.3271,-82.8538 833.2473,-76.4919"/>
</g>
<!-- Node18 -->
<g id="node19" class="node">
<title>Node18</title>
<polygon fill="none" stroke="#bfbfbf" points="706,-56.5 706,-75.5 756,-75.5 756,-56.5 706,-56.5"/>
<text text-anchor="middle" x="731" y="-63.5" font-family="FreeSans.ttf" font-size="10.00" fill="#000000">cstring</text>
</g>
<!-- Node4&#45;&gt;Node18 -->
<g id="edge22" class="edge">
<title>Node4&#45;&gt;Node18</title>
<path fill="none" stroke="#191970" d="M890.7938,-112.4395C860.6296,-103.7447 814.6495,-90.4654 766.0074,-76.286"/>
<polygon fill="#191970" stroke="#191970" points="766.8274,-72.8794 756.2473,-73.4392 764.8672,-79.5994 766.8274,-72.8794"/>
</g>
<!-- Node6 -->
<g id="node7" class="node">
<title>Node6</title>
<polygon fill="none" stroke="#bfbfbf" points="999.5,-.5 999.5,-19.5 1052.5,-19.5 1052.5,-.5 999.5,-.5"/>
<text text-anchor="middle" x="1026" y="-7.5" font-family="FreeSans.ttf" font-size="10.00" fill="#000000">cstddef</text>
</g>
<!-- Node5&#45;&gt;Node6 -->
<g id="edge7" class="edge">
<title>Node5&#45;&gt;Node6</title>
<path fill="none" stroke="#191970" d="M1009.4837,-56.2455C1012.1508,-48.7776 1015.9133,-38.2427 1019.1737,-29.1137"/>
<polygon fill="#191970" stroke="#191970" points="1022.4889,-30.2373 1022.5562,-19.6427 1015.8967,-27.8829 1022.4889,-30.2373"/>
</g>
<!-- Node7 -->
<g id="node8" class="node">
<title>Node7</title>
<polygon fill="none" stroke="#bfbfbf" points="901,-.5 901,-19.5 981,-19.5 981,-.5 901,-.5"/>
<text text-anchor="middle" x="941" y="-7.5" font-family="FreeSans.ttf" font-size="10.00" fill="#000000">CoreExport.h</text>
</g>
<!-- Node5&#45;&gt;Node7 -->
<g id="edge8" class="edge">
<title>Node5&#45;&gt;Node7</title>
<path fill="none" stroke="#191970" d="M994.6779,-56.2455C985.0777,-47.9746 971.1108,-35.9416 959.8305,-26.2232"/>
<polygon fill="#191970" stroke="#191970" points="962.053,-23.5182 952.1924,-19.6427 957.484,-28.8214 962.053,-23.5182"/>
</g>
<!-- Node8&#45;&gt;Node6 -->
<g id="edge13" class="edge">
<title>Node8&#45;&gt;Node6</title>
<path fill="none" stroke="#191970" d="M1209.9809,-56.4188C1173.73,-47.8614 1119.1887,-34.7684 1062.557,-20.0862"/>
<polygon fill="#191970" stroke="#191970" points="1063.2698,-16.6551 1052.7105,-17.5226 1061.5061,-23.4293 1063.2698,-16.6551"/>
</g>
<!-- Node8&#45;&gt;Node9 -->
<g id="edge10" class="edge">
<title>Node8&#45;&gt;Node9</title>
<path fill="none" stroke="#191970" d="M1190.1963,-61.0283C1120.5264,-54.7023 1002.854,-42.099 893.1751,-19.9927"/>
<polygon fill="#191970" stroke="#191970" points="893.7665,-16.5412 883.2678,-17.965 892.363,-23.3991 893.7665,-16.5412"/>
</g>
<!-- Node10 -->
<g id="node11" class="node">
<title>Node10</title>
<polygon fill="none" stroke="#bfbfbf" points="1367,-.5 1367,-19.5 1431,-19.5 1431,-.5 1367,-.5"/>
<text text-anchor="middle" x="1399" y="-7.5" font-family="FreeSans.ttf" font-size="10.00" fill="#000000">algorithm</text>
</g>
<!-- Node8&#45;&gt;Node10 -->
<g id="edge11" class="edge">
<title>Node8&#45;&gt;Node10</title>
<path fill="none" stroke="#191970" d="M1276.4421,-56.3733C1300.7326,-47.1822 1337.5208,-33.2624 1364.4543,-23.0713"/>
<polygon fill="#191970" stroke="#191970" points="1365.7757,-26.3136 1373.8899,-19.5011 1363.2984,-19.7666 1365.7757,-26.3136"/>
</g>
<!-- Node11 -->
<g id="node12" class="node">
<title>Node11</title>
<polygon fill="none" stroke="#bfbfbf" points="1449,-.5 1449,-19.5 1491,-19.5 1491,-.5 1449,-.5"/>
<text text-anchor="middle" x="1470" y="-7.5" font-family="FreeSans.ttf" font-size="10.00" fill="#000000">array</text>
</g>
<!-- Node8&#45;&gt;Node11 -->
<g id="edge12" class="edge">
<title>Node8&#45;&gt;Node11</title>
<path fill="none" stroke="#191970" d="M1294.81,-56.4225C1331.1112,-48.2436 1384.2321,-35.7176 1438.902,-20.1567"/>
<polygon fill="#191970" stroke="#191970" points="1440.1195,-23.4485 1448.7629,-17.3212 1438.185,-16.7211 1440.1195,-23.4485"/>
</g>
<!-- Node12 -->
<g id="node13" class="node">
<title>Node12</title>
<polygon fill="none" stroke="#bfbfbf" points="1509.5,-.5 1509.5,-19.5 1562.5,-19.5 1562.5,-.5 1509.5,-.5"/>
<text text-anchor="middle" x="1536" y="-7.5" font-family="FreeSans.ttf" font-size="10.00" fill="#000000">iterator</text>
</g>
<!-- Node8&#45;&gt;Node12 -->
<g id="edge14" class="edge">
<title>Node8&#45;&gt;Node12</title>
<path fill="none" stroke="#191970" d="M1310.6708,-56.4982C1359.0293,-48.4511 1429.1076,-36.0086 1499.4113,-19.9764"/>
<polygon fill="#191970" stroke="#191970" points="1500.3721,-23.3468 1509.3307,-17.6905 1498.8001,-16.5256 1500.3721,-23.3468"/>
</g>
<!-- Node13 -->
<g id="node14" class="node">
<title>Node13</title>
<polygon fill="none" stroke="#bfbfbf" points="1071,-.5 1071,-19.5 1115,-19.5 1115,-.5 1071,-.5"/>
<text text-anchor="middle" x="1093" y="-7.5" font-family="FreeSans.ttf" font-size="10.00" fill="#000000">limits</text>
</g>
<!-- Node8&#45;&gt;Node13 -->
<g id="edge15" class="edge">
<title>Node8&#45;&gt;Node13</title>
<path fill="none" stroke="#191970" d="M1223.8388,-56.3733C1196.3726,-46.6384 1153.9388,-31.5985 1124.8913,-21.3032"/>
<polygon fill="#191970" stroke="#191970" points="1125.8163,-17.9178 1115.2216,-17.876 1123.4778,-24.5157 1125.8163,-17.9178"/>
</g>
<!-- Node14 -->
<g id="node15" class="node">
<title>Node14</title>
<polygon fill="none" stroke="#bfbfbf" points="1133.5,-.5 1133.5,-19.5 1198.5,-19.5 1198.5,-.5 1133.5,-.5"/>
<text text-anchor="middle" x="1166" y="-7.5" font-family="FreeSans.ttf" font-size="10.00" fill="#000000">stdexcept</text>
</g>
<!-- Node8&#45;&gt;Node14 -->
<g id="edge16" class="edge">
<title>Node8&#45;&gt;Node14</title>
<path fill="none" stroke="#191970" d="M1236.1941,-56.2455C1223.2744,-47.7337 1204.3069,-35.2375 1189.3448,-25.3801"/>
<polygon fill="#191970" stroke="#191970" points="1190.9124,-22.2216 1180.6362,-19.6427 1187.0613,-28.067 1190.9124,-22.2216"/>
</g>
<!-- Node15 -->
<g id="node16" class="node">
<title>Node15</title>
<polygon fill="none" stroke="#bfbfbf" points="1216.5,-.5 1216.5,-19.5 1285.5,-19.5 1285.5,-.5 1216.5,-.5"/>
<text text-anchor="middle" x="1251" y="-7.5" font-family="FreeSans.ttf" font-size="10.00" fill="#000000">type_traits</text>
</g>
<!-- Node8&#45;&gt;Node15 -->
<g id="edge17" class="edge">
<title>Node8&#45;&gt;Node15</title>
<path fill="none" stroke="#191970" d="M1251,-56.2455C1251,-48.9382 1251,-38.6944 1251,-29.7046"/>
<polygon fill="#191970" stroke="#191970" points="1254.5001,-29.6426 1251,-19.6427 1247.5001,-29.6427 1254.5001,-29.6426"/>
</g>
<!-- Node16 -->
<g id="node17" class="node">
<title>Node16</title>
<polygon fill="none" stroke="#bfbfbf" points="1303.5,-.5 1303.5,-19.5 1348.5,-19.5 1348.5,-.5 1303.5,-.5"/>
<text text-anchor="middle" x="1326" y="-7.5" font-family="FreeSans.ttf" font-size="10.00" fill="#000000">utility</text>
</g>
<!-- Node8&#45;&gt;Node16 -->
<g id="edge18" class="edge">
<title>Node8&#45;&gt;Node16</title>
<path fill="none" stroke="#191970" d="M1264.064,-56.2455C1275.3562,-47.814 1291.8845,-35.4729 1305.0271,-25.6598"/>
<polygon fill="#191970" stroke="#191970" points="1307.1669,-28.4301 1313.0857,-19.6427 1302.9789,-22.8211 1307.1669,-28.4301"/>
</g>
<!-- Node19&#45;&gt;Node2 -->
<g id="edge42" class="edge">
<title>Node19&#45;&gt;Node2</title>
<path fill="none" stroke="#191970" d="M481.7083,-291.4757C434.2385,-279.1235 363.6115,-252.4842 331,-199 308.5806,-162.2312 334.7494,-111.1061 352.085,-84.2099"/>
<polygon fill="#191970" stroke="#191970" points="355.0835,-86.0228 357.7543,-75.7701 349.2728,-82.1195 355.0835,-86.0228"/>
</g>
<!-- Node20 -->
<g id="node21" class="node">
<title>Node20</title>
<g id="a_node21"><a xlink:href="PositionRaw_8h.html" target="_top" xlink:title="iDynTree/Core/PositionRaw.h">
<polygon fill="none" stroke="#000000" points="554,-174 554,-193 710,-193 710,-174 554,-174"/>
<text text-anchor="middle" x="632" y="-181" font-family="FreeSans.ttf" font-size="10.00" fill="#000000">iDynTree/Core/PositionRaw.h</text>
</a>
</g>
</g>
<!-- Node19&#45;&gt;Node20 -->
<g id="edge25" class="edge">
<title>Node19&#45;&gt;Node20</title>
<path fill="none" stroke="#191970" d="M529.6369,-291.0561C530.9814,-277.2001 535.1461,-251.8891 548,-235 560.6746,-218.3465 580.4197,-205.8483 597.5825,-197.3373"/>
<polygon fill="#191970" stroke="#191970" points="599.2233,-200.4336 606.7904,-193.0181 596.2506,-194.0962 599.2233,-200.4336"/>
</g>
<!-- Node21 -->
<g id="node22" class="node">
<title>Node21</title>
<g id="a_node22"><a xlink:href="Rotation_8h.html" target="_top" xlink:title="iDynTree/Core/Rotation.h">
<polygon fill="none" stroke="#000000" points="557.5,-235.5 557.5,-254.5 694.5,-254.5 694.5,-235.5 557.5,-235.5"/>
<text text-anchor="middle" x="626" y="-242.5" font-family="FreeSans.ttf" font-size="10.00" fill="#000000">iDynTree/Core/Rotation.h</text>
</a>
</g>
</g>
<!-- Node19&#45;&gt;Node21 -->
<g id="edge28" class="edge">
<title>Node19&#45;&gt;Node21</title>
<path fill="none" stroke="#191970" d="M545.8961,-291.2455C560.918,-282.5731 583.1043,-269.7645 600.321,-259.825"/>
<polygon fill="#191970" stroke="#191970" points="602.3871,-262.6737 609.2975,-254.6427 598.8872,-256.6114 602.3871,-262.6737"/>
</g>
<!-- Node20&#45;&gt;Node2 -->
<g id="edge27" class="edge">
<title>Node20&#45;&gt;Node2</title>
<path fill="none" stroke="#191970" d="M592.9309,-173.9168C559.6837,-165.0818 511.0859,-150.542 471,-132 440.1494,-117.7299 407.325,-96.181 386.5181,-81.6229"/>
<polygon fill="#191970" stroke="#191970" points="388.2977,-78.5943 378.1157,-75.6655 384.2489,-84.3046 388.2977,-78.5943"/>
</g>
<!-- Node20&#45;&gt;Node4 -->
<g id="edge26" class="edge">
<title>Node20&#45;&gt;Node4</title>
<path fill="none" stroke="#191970" d="M677.3046,-173.9581C728.8796,-163.0956 813.1408,-145.3488 868.586,-133.6711"/>
<polygon fill="#191970" stroke="#191970" points="869.5251,-137.0502 878.5891,-131.5643 868.0824,-130.2004 869.5251,-137.0502"/>
</g>
<!-- Node21&#45;&gt;Node2 -->
<g id="edge29" class="edge">
<title>Node21&#45;&gt;Node2</title>
<path fill="none" stroke="#191970" d="M557.3185,-238.965C474.8005,-231.0065 345.5588,-216.005 331,-199 302.5917,-165.8186 332.2883,-111.9769 351.4516,-84.0659"/>
<polygon fill="#191970" stroke="#191970" points="354.4888,-85.8352 357.4475,-75.6619 348.7904,-81.7696 354.4888,-85.8352"/>
</g>
<!-- Node21&#45;&gt;Node4 -->
<g id="edge41" class="edge">
<title>Node21&#45;&gt;Node4</title>
<path fill="none" stroke="#191970" d="M649.3836,-235.3484C702.1525,-213.5679 830.5931,-160.5538 891.2498,-135.5177"/>
<polygon fill="#191970" stroke="#191970" points="892.8169,-138.6574 900.7251,-131.6068 890.1461,-132.1869 892.8169,-138.6574"/>
</g>
<!-- Node22 -->
<g id="node23" class="node">
<title>Node22</title>
<g id="a_node23"><a xlink:href="GeomVector3_8h.html" target="_top" xlink:title="iDynTree/Core/GeomVector3.h">
<polygon fill="none" stroke="#000000" points="842.5,-174 842.5,-193 1005.5,-193 1005.5,-174 842.5,-174"/>
<text text-anchor="middle" x="924" y="-181" font-family="FreeSans.ttf" font-size="10.00" fill="#000000">iDynTree/Core/GeomVector3.h</text>
</a>
</g>
</g>
<!-- Node21&#45;&gt;Node22 -->
<g id="edge30" class="edge">
<title>Node21&#45;&gt;Node22</title>
<path fill="none" stroke="#191970" d="M672.2355,-235.4581C724.9795,-224.573 811.2199,-206.7751 867.7992,-195.0985"/>
<polygon fill="#191970" stroke="#191970" points="868.5698,-198.5133 877.656,-193.0643 867.1549,-191.6578 868.5698,-198.5133"/>
</g>
<!-- Node23 -->
<g id="node24" class="node">
<title>Node23</title>
<g id="a_node24"><a xlink:href="RotationRaw_8h.html" target="_top" xlink:title="iDynTree/Core/RotationRaw.h">
<polygon fill="none" stroke="#000000" points="340,-174 340,-193 498,-193 498,-174 340,-174"/>
<text text-anchor="middle" x="419" y="-181" font-family="FreeSans.ttf" font-size="10.00" fill="#000000">iDynTree/Core/RotationRaw.h</text>
</a>
</g>
</g>
<!-- Node21&#45;&gt;Node23 -->
<g id="edge32" class="edge">
<title>Node21&#45;&gt;Node23</title>
<path fill="none" stroke="#191970" d="M593.6563,-235.3906C557.882,-224.7621 500.1253,-207.6025 460.9095,-195.9514"/>
<polygon fill="#191970" stroke="#191970" points="461.6993,-192.5349 451.1166,-193.0419 459.7057,-199.245 461.6993,-192.5349"/>
</g>
<!-- Node22&#45;&gt;Node4 -->
<g id="edge31" class="edge">
<title>Node22&#45;&gt;Node4</title>
<path fill="none" stroke="#191970" d="M924,-173.8906C924,-165.3657 924,-152.6392 924,-141.9235"/>
<polygon fill="#191970" stroke="#191970" points="927.5001,-141.7448 924,-131.7449 920.5001,-141.7449 927.5001,-141.7448"/>
</g>
<!-- Node23&#45;&gt;Node2 -->
<g id="edge40" class="edge">
<title>Node23&#45;&gt;Node2</title>
<path fill="none" stroke="#191970" d="M414.581,-173.8845C405.6812,-154.5192 385.4536,-110.5055 373.7705,-85.084"/>
<polygon fill="#191970" stroke="#191970" points="376.8363,-83.3732 369.4801,-75.7484 370.4758,-86.2963 376.8363,-83.3732"/>
</g>
<!-- Node24 -->
<g id="node25" class="node">
<title>Node24</title>
<g id="a_node25"><a xlink:href="MatrixFixSize_8h.html" target="_top" xlink:title="iDynTree/Core/MatrixFixSize.h">
<polygon fill="none" stroke="#000000" points="519.5,-112.5 519.5,-131.5 680.5,-131.5 680.5,-112.5 519.5,-112.5"/>
<text text-anchor="middle" x="600" y="-119.5" font-family="FreeSans.ttf" font-size="10.00" fill="#000000">iDynTree/Core/MatrixFixSize.h</text>
</a>
</g>
</g>
<!-- Node23&#45;&gt;Node24 -->
<g id="edge33" class="edge">
<title>Node23&#45;&gt;Node24</title>
<path fill="none" stroke="#191970" d="M447.2813,-173.8906C478.23,-163.3749 527.9942,-146.466 562.257,-134.8243"/>
<polygon fill="#191970" stroke="#191970" points="563.575,-138.073 571.9173,-131.5419 561.3229,-131.4452 563.575,-138.073"/>
</g>
<!-- Node24&#45;&gt;Node2 -->
<g id="edge37" class="edge">
<title>Node24&#45;&gt;Node2</title>
<path fill="none" stroke="#191970" d="M559.8691,-112.4369C513.8488,-101.4704 439.3244,-83.7114 397.0189,-73.63"/>
<polygon fill="#191970" stroke="#191970" points="397.7845,-70.2145 387.2455,-71.3011 396.1618,-77.0239 397.7845,-70.2145"/>
</g>
<!-- Node24&#45;&gt;Node5 -->
<g id="edge34" class="edge">
<title>Node24&#45;&gt;Node5</title>
<path fill="none" stroke="#191970" d="M669.3326,-112.4369C743.7423,-102.1735 861.2852,-85.9607 935.965,-75.66"/>
<polygon fill="#191970" stroke="#191970" points="936.7813,-79.0806 946.2092,-74.247 935.8248,-72.1463 936.7813,-79.0806"/>
</g>
<!-- Node24&#45;&gt;Node9 -->
<g id="edge35" class="edge">
<title>Node24&#45;&gt;Node9</title>
<path fill="none" stroke="#191970" d="M599.8304,-112.3148C600.138,-97.8247 602.9848,-70.6442 619,-56 648.0055,-29.4776 761.386,-17.1697 820.5751,-12.4531"/>
<polygon fill="#191970" stroke="#191970" points="820.9168,-15.9373 830.6205,-11.6842 820.3825,-8.9577 820.9168,-15.9373"/>
</g>
<!-- Node24&#45;&gt;Node17 -->
<g id="edge39" class="edge">
<title>Node24&#45;&gt;Node17</title>
<path fill="none" stroke="#191970" d="M634.725,-112.3733C670.7099,-102.3973 726.7903,-86.8502 763.9552,-76.5471"/>
<polygon fill="#191970" stroke="#191970" points="765.2021,-79.8335 773.9036,-73.7891 763.332,-73.0879 765.2021,-79.8335"/>
</g>
<!-- Node24&#45;&gt;Node18 -->
<g id="edge36" class="edge">
<title>Node24&#45;&gt;Node18</title>
<path fill="none" stroke="#191970" d="M622.5197,-112.3733C643.7372,-103.3032 675.7276,-89.6279 699.4769,-79.4755"/>
<polygon fill="#191970" stroke="#191970" points="700.9548,-82.6502 708.7742,-75.5011 698.2033,-76.2136 700.9548,-82.6502"/>
</g>
<!-- Node25 -->
<g id="node26" class="node">
<title>Node25</title>
<polygon fill="none" stroke="#bfbfbf" points="628,-56.5 628,-75.5 688,-75.5 688,-56.5 628,-56.5"/>
<text text-anchor="middle" x="658" y="-63.5" font-family="FreeSans.ttf" font-size="10.00" fill="#000000">iostream</text>
</g>
<!-- Node24&#45;&gt;Node25 -->
<g id="edge38" class="edge">
<title>Node24&#45;&gt;Node25</title>
<path fill="none" stroke="#191970" d="M610.1028,-112.2455C618.5028,-104.1352 630.6494,-92.4075 640.6084,-82.7919"/>
<polygon fill="#191970" stroke="#191970" points="643.25,-85.1066 648.0129,-75.6427 638.3878,-80.0707 643.25,-85.1066"/>
</g>
<!-- Node26&#45;&gt;Node4 -->
<g id="edge44" class="edge">
<title>Node26&#45;&gt;Node4</title>
<path fill="none" stroke="#191970" d="M1129.4352,-470.3529C1135.101,-428.3798 1151.8051,-259.6667 1070,-168 1057.9098,-154.4523 1017.1257,-142.2608 981.7262,-133.8379"/>
<polygon fill="#191970" stroke="#191970" points="982.4448,-130.4118 971.9129,-131.5642 980.8648,-137.2311 982.4448,-130.4118"/>
</g>
<!-- Node27 -->
<g id="node28" class="node">
<title>Node27</title>
<g id="a_node28"><a xlink:href="VectorDynSize_8h.html" target="_top" xlink:title="iDynTree/Core/VectorDynSize.h">
<polygon fill="none" stroke="#000000" points="1298.5,-112.5 1298.5,-131.5 1465.5,-131.5 1465.5,-112.5 1298.5,-112.5"/>
<text text-anchor="middle" x="1382" y="-119.5" font-family="FreeSans.ttf" font-size="10.00" fill="#000000">iDynTree/Core/VectorDynSize.h</text>
</a>
</g>
</g>
<!-- Node26&#45;&gt;Node27 -->
<g id="edge45" class="edge">
<title>Node26&#45;&gt;Node27</title>
<path fill="none" stroke="#191970" d="M1134.7939,-470.4244C1169.0827,-422.096 1323.2923,-204.7455 1369.1185,-140.1559"/>
<polygon fill="#191970" stroke="#191970" points="1372.1341,-141.954 1375.0661,-131.773 1366.4251,-137.9035 1372.1341,-141.954"/>
</g>
<!-- Node28 -->
<g id="node29" class="node">
<title>Node28</title>
<g id="a_node29"><a xlink:href="SpatialForceVector_8h.html" target="_top" xlink:title="iDynTree/Core/SpatialForce\lVector.h">
<polygon fill="none" stroke="#000000" points="933,-403.5 933,-433.5 1081,-433.5 1081,-403.5 933,-403.5"/>
<text text-anchor="start" x="941" y="-421.5" font-family="FreeSans.ttf" font-size="10.00" fill="#000000">iDynTree/Core/SpatialForce</text>
<text text-anchor="middle" x="1007" y="-410.5" font-family="FreeSans.ttf" font-size="10.00" fill="#000000">Vector.h</text>
</a>
</g>
</g>
<!-- Node26&#45;&gt;Node28 -->
<g id="edge48" class="edge">
<title>Node26&#45;&gt;Node28</title>
<path fill="none" stroke="#191970" d="M1109.0938,-470.3906C1092.1872,-461.7976 1066.8815,-448.9356 1045.6946,-438.1671"/>
<polygon fill="#191970" stroke="#191970" points="1047.1004,-434.9555 1036.5999,-433.5446 1043.9287,-441.1957 1047.1004,-434.9555"/>
</g>
<!-- Node30 -->
<g id="node31" class="node">
<title>Node30</title>
<polygon fill="none" stroke="#bfbfbf" points="867.5,-409 867.5,-428 914.5,-428 914.5,-409 867.5,-409"/>
<text text-anchor="middle" x="891" y="-416" font-family="FreeSans.ttf" font-size="10.00" fill="#000000">vector</text>
</g>
<!-- Node26&#45;&gt;Node30 -->
<g id="edge58" class="edge">
<title>Node26&#45;&gt;Node30</title>
<path fill="none" stroke="#191970" d="M1070.3587,-470.4656C1028.9854,-462.7904 972.25,-450.5509 924,-434 922.3535,-433.4352 920.68,-432.8129 919.0042,-432.152"/>
<polygon fill="#191970" stroke="#191970" points="920.1229,-428.8228 909.5544,-428.0753 917.35,-435.2502 920.1229,-428.8228"/>
</g>
<!-- Node27&#45;&gt;Node2 -->
<g id="edge47" class="edge">
<title>Node27&#45;&gt;Node2</title>
<path fill="none" stroke="#191970" d="M1298.3425,-117.3935C1086.4819,-105.7276 535.7707,-75.4033 397.0734,-67.7661"/>
<polygon fill="#191970" stroke="#191970" points="397.2628,-64.2713 387.0855,-67.2161 396.8779,-71.2607 397.2628,-64.2713"/>
</g>
<!-- Node27&#45;&gt;Node8 -->
<g id="edge46" class="edge">
<title>Node27&#45;&gt;Node8</title>
<path fill="none" stroke="#191970" d="M1359.4803,-112.3733C1338.2628,-103.3032 1306.2724,-89.6279 1282.5231,-79.4755"/>
<polygon fill="#191970" stroke="#191970" points="1283.7967,-76.2136 1273.2258,-75.5011 1281.0452,-82.6502 1283.7967,-76.2136"/>
</g>
<!-- Node28&#45;&gt;Node4 -->
<g id="edge49" class="edge">
<title>Node28&#45;&gt;Node4</title>
<path fill="none" stroke="#191970" d="M1016.3043,-403.3188C1040.5624,-361.5867 1100.3434,-243.2468 1048,-168 1039.008,-155.0735 1004.0575,-142.794 973.5451,-134.1788"/>
<polygon fill="#191970" stroke="#191970" points="974.4026,-130.7848 963.8329,-131.5143 972.5505,-137.5354 974.4026,-130.7848"/>
</g>
<!-- Node28&#45;&gt;Node22 -->
<g id="edge50" class="edge">
<title>Node28&#45;&gt;Node22</title>
<path fill="none" stroke="#191970" d="M1001.6817,-403.4422C987.1735,-362.3648 946.9215,-248.3983 930.8027,-202.7606"/>
<polygon fill="#191970" stroke="#191970" points="934.0476,-201.4382 927.417,-193.1746 927.4471,-203.7694 934.0476,-201.4382"/>
</g>
<!-- Node29 -->
<g id="node30" class="node">
<title>Node29</title>
<g id="a_node30"><a xlink:href="SpatialVector_8h.html" target="_top" xlink:title="iDynTree/Core/SpatialVector.h">
<polygon fill="none" stroke="#000000" points="693.5,-347.5 693.5,-366.5 854.5,-366.5 854.5,-347.5 693.5,-347.5"/>
<text text-anchor="middle" x="774" y="-354.5" font-family="FreeSans.ttf" font-size="10.00" fill="#000000">iDynTree/Core/SpatialVector.h</text>
</a>
</g>
</g>
<!-- Node28&#45;&gt;Node29 -->
<g id="edge51" class="edge">
<title>Node28&#45;&gt;Node29</title>
<path fill="none" stroke="#191970" d="M950.0018,-403.4554C910.1021,-392.9239 857.4738,-379.0328 820.1919,-369.1923"/>
<polygon fill="#191970" stroke="#191970" points="820.6688,-365.6984 810.1067,-366.5303 818.8823,-372.4666 820.6688,-365.6984"/>
</g>
<!-- Node29&#45;&gt;Node5 -->
<g id="edge54" class="edge">
<title>Node29&#45;&gt;Node5</title>
<path fill="none" stroke="#191970" d="M834.6133,-347.477C958.4339,-326.6558 1233.3583,-272.9615 1288,-199 1346.9285,-119.236 1177.0817,-85.5214 1075.7275,-72.7974"/>
<polygon fill="#191970" stroke="#191970" points="1075.8885,-69.2913 1065.5393,-71.5597 1075.0442,-76.2402 1075.8885,-69.2913"/>
</g>
<!-- Node29&#45;&gt;Node17 -->
<g id="edge57" class="edge">
<title>Node29&#45;&gt;Node17</title>
<path fill="none" stroke="#191970" d="M774.2866,-347.4127C774.8396,-328.0567 776,-282.9227 776,-245 776,-245 776,-245 776,-183.5 776,-148.1488 787.3582,-108.1979 795.0602,-85.171"/>
<polygon fill="#191970" stroke="#191970" points="798.4133,-86.1844 798.3848,-75.5896 791.8001,-83.8897 798.4133,-86.1844"/>
</g>
<!-- Node29&#45;&gt;Node19 -->
<g id="edge52" class="edge">
<title>Node29&#45;&gt;Node19</title>
<path fill="none" stroke="#191970" d="M732.1614,-347.4369C690.2315,-337.8529 625.6052,-323.0812 580.5376,-312.78"/>
<polygon fill="#191970" stroke="#191970" points="581.1946,-309.34 570.6661,-310.5237 579.6347,-316.164 581.1946,-309.34"/>
</g>
<!-- Node29&#45;&gt;Node21 -->
<g id="edge53" class="edge">
<title>Node29&#45;&gt;Node21</title>
<path fill="none" stroke="#191970" d="M761.3816,-347.4509C735.8232,-328.1094 677.7293,-284.1465 646.6016,-260.5904"/>
<polygon fill="#191970" stroke="#191970" points="648.6726,-257.7684 638.5865,-254.5249 644.4485,-263.3503 648.6726,-257.7684"/>
</g>
<!-- Node29&#45;&gt;Node22 -->
<g id="edge55" class="edge">
<title>Node29&#45;&gt;Node22</title>
<path fill="none" stroke="#191970" d="M782.2783,-347.4248C806.5004,-319.4079 877.4946,-237.2912 908.8341,-201.0418"/>
<polygon fill="#191970" stroke="#191970" points="911.6699,-203.1134 915.5624,-193.2595 906.3745,-198.5353 911.6699,-203.1134"/>
</g>
<!-- Node29&#45;&gt;Node25 -->
<g id="edge56" class="edge">
<title>Node29&#45;&gt;Node25</title>
<path fill="none" stroke="#191970" d="M768.6881,-347.4462C758.6741,-328.5117 738,-284.623 738,-245 738,-245 738,-245 738,-183.5 738,-141.3353 702.3657,-103.1145 678.6621,-82.3547"/>
<polygon fill="#191970" stroke="#191970" points="680.7522,-79.5387 670.8534,-75.762 676.2365,-84.8874 680.7522,-79.5387"/>
</g>
<!-- Node31&#45;&gt;Node30 -->
<g id="edge80" class="edge">
<title>Node31&#45;&gt;Node30</title>
<path fill="none" stroke="#191970" d="M705.5438,-527.5874C760.9876,-520.0656 830.8802,-507.5154 854,-490 870.9982,-477.1223 880.8777,-454.1963 886.0858,-437.7744"/>
<polygon fill="#191970" stroke="#191970" points="889.4699,-438.6703 888.8616,-428.0929 882.741,-436.741 889.4699,-438.6703"/>
</g>
<!-- Node32 -->
<g id="node33" class="node">
<title>Node32</title>
<g id="a_node33"><a xlink:href="Transform_8h.html" target="_top" xlink:title="iDynTree/Core/Transform.h">
<polygon fill="none" stroke="#000000" points="355,-347.5 355,-366.5 501,-366.5 501,-347.5 355,-347.5"/>
<text text-anchor="middle" x="428" y="-354.5" font-family="FreeSans.ttf" font-size="10.00" fill="#000000">iDynTree/Core/Transform.h</text>
</a>
</g>
</g>
<!-- Node31&#45;&gt;Node32 -->
<g id="edge60" class="edge">
<title>Node31&#45;&gt;Node32</title>
<path fill="none" stroke="#191970" d="M609.3404,-526.4456C591.8485,-518.1726 567.0904,-505.1681 548,-490 503.5909,-454.7149 461.5515,-402.2008 441.0456,-374.916"/>
<polygon fill="#191970" stroke="#191970" points="443.7135,-372.6377 434.9447,-366.6914 438.0914,-376.8082 443.7135,-372.6377"/>
</g>
<!-- Node33 -->
<g id="node34" class="node">
<title>Node33</title>
<g id="a_node34"><a xlink:href="Twist_8h.html" target="_top" xlink:title="iDynTree/Core/Twist.h">
<polygon fill="none" stroke="#000000" points="557,-470.5 557,-489.5 679,-489.5 679,-470.5 557,-470.5"/>
<text text-anchor="middle" x="618" y="-477.5" font-family="FreeSans.ttf" font-size="10.00" fill="#000000">iDynTree/Core/Twist.h</text>
</a>
</g>
</g>
<!-- Node31&#45;&gt;Node33 -->
<g id="edge65" class="edge">
<title>Node31&#45;&gt;Node33</title>
<path fill="none" stroke="#191970" d="M628.7356,-526.2455C627.0206,-518.8579 624.6088,-508.4689 622.5056,-499.4087"/>
<polygon fill="#191970" stroke="#191970" points="625.9092,-498.5922 620.2385,-489.6427 619.0905,-500.1751 625.9092,-498.5922"/>
</g>
<!-- Node35 -->
<g id="node36" class="node">
<title>Node35</title>
<g id="a_node36"><a xlink:href="SpatialAcc_8h.html" target="_top" xlink:title="iDynTree/Core/SpatialAcc.h">
<polygon fill="none" stroke="#000000" points="697,-470.5 697,-489.5 845,-489.5 845,-470.5 697,-470.5"/>
<text text-anchor="middle" x="771" y="-477.5" font-family="FreeSans.ttf" font-size="10.00" fill="#000000">iDynTree/Core/SpatialAcc.h</text>
</a>
</g>
</g>
<!-- Node31&#45;&gt;Node35 -->
<g id="edge70" class="edge">
<title>Node31&#45;&gt;Node35</title>
<path fill="none" stroke="#191970" d="M655.0669,-526.3733C677.8428,-517.2629 712.2344,-503.5062 737.649,-493.3404"/>
<polygon fill="#191970" stroke="#191970" points="739.2623,-496.4648 747.2472,-489.5011 736.6625,-489.9654 739.2623,-496.4648"/>
</g>
<!-- Node36 -->
<g id="node37" class="node">
<title>Node36</title>
<g id="a_node37"><a xlink:href="Wrench_8h.html" target="_top" xlink:title="iDynTree/Core/Wrench.h">
<polygon fill="none" stroke="#000000" points="901.5,-470.5 901.5,-489.5 1034.5,-489.5 1034.5,-470.5 901.5,-470.5"/>
<text text-anchor="middle" x="968" y="-477.5" font-family="FreeSans.ttf" font-size="10.00" fill="#000000">iDynTree/Core/Wrench.h</text>
</a>
</g>
</g>
<!-- Node31&#45;&gt;Node36 -->
<g id="edge72" class="edge">
<title>Node31&#45;&gt;Node36</title>
<path fill="none" stroke="#191970" d="M688.5495,-526.4369C747.3149,-516.6717 838.4913,-501.5207 900.5966,-491.2006"/>
<polygon fill="#191970" stroke="#191970" points="901.3969,-494.6157 910.6879,-489.5237 900.2494,-487.7103 901.3969,-494.6157"/>
</g>
<!-- Node37 -->
<g id="node38" class="node">
<title>Node37</title>
<g id="a_node38"><a xlink:href="ArticulatedBodyInertia_8h.html" target="_top" xlink:title="iDynTree/Core/Articulated\lBodyInertia.h">
<polygon fill="none" stroke="#000000" points="104.5,-168.5 104.5,-198.5 245.5,-198.5 245.5,-168.5 104.5,-168.5"/>
<text text-anchor="start" x="112.5" y="-186.5" font-family="FreeSans.ttf" font-size="10.00" fill="#000000">iDynTree/Core/Articulated</text>
<text text-anchor="middle" x="175" y="-175.5" font-family="FreeSans.ttf" font-size="10.00" fill="#000000">BodyInertia.h</text>
</a>
</g>
</g>
<!-- Node31&#45;&gt;Node37 -->
<g id="edge74" class="edge">
<title>Node31&#45;&gt;Node37</title>
<path fill="none" stroke="#191970" d="M556.3214,-533.8022C448.5048,-529.6826 255.2349,-518.4801 192,-490 149.1206,-470.6877 114,-465.5277 114,-418.5 114,-418.5 114,-418.5 114,-301 114,-264.9261 136.9281,-228.92 154.6707,-206.4576"/>
<polygon fill="#191970" stroke="#191970" points="157.5275,-208.4933 161.1582,-198.54 152.113,-204.0568 157.5275,-208.4933"/>
</g>
<!-- Node38 -->
<g id="node39" class="node">
<title>Node38</title>
<g id="a_node39"><a xlink:href="Indices_8h.html" target="_top" xlink:title="iDynTree/Model/Indices.h">
<polygon fill="none" stroke="#000000" points="201,-470.5 201,-489.5 339,-489.5 339,-470.5 201,-470.5"/>
<text text-anchor="middle" x="270" y="-477.5" font-family="FreeSans.ttf" font-size="10.00" fill="#000000">iDynTree/Model/Indices.h</text>
</a>
</g>
</g>
<!-- Node31&#45;&gt;Node38 -->
<g id="edge77" class="edge">
<title>Node31&#45;&gt;Node38</title>
<path fill="none" stroke="#191970" d="M569.3521,-526.4369C506.142,-516.6314 407.9258,-501.3957 341.3822,-491.0731"/>
<polygon fill="#191970" stroke="#191970" points="341.812,-487.598 331.3937,-489.5237 340.7389,-494.5153 341.812,-487.598"/>
</g>
<!-- Node32&#45;&gt;Node2 -->
<g id="edge64" class="edge">
<title>Node32&#45;&gt;Node2</title>
<path fill="none" stroke="#191970" d="M354.6377,-348.6807C251.4767,-334.9061 76,-302.9575 76,-245 76,-245 76,-245 76,-183.5 76,-128.538 257.6409,-86.8721 332.9167,-71.9647"/>
<polygon fill="#191970" stroke="#191970" points="333.6556,-75.3866 342.8025,-70.0402 332.318,-68.5156 333.6556,-75.3866"/>
</g>
<!-- Node32&#45;&gt;Node19 -->
<g id="edge61" class="edge">
<title>Node32&#45;&gt;Node19</title>
<path fill="none" stroke="#191970" d="M445.5929,-347.2455C461.379,-338.4928 484.7639,-325.527 502.7587,-315.5496"/>
<polygon fill="#191970" stroke="#191970" points="504.5603,-318.5528 511.6087,-310.6427 501.1659,-312.4308 504.5603,-318.5528"/>
</g>
<!-- Node32&#45;&gt;Node21 -->
<g id="edge62" class="edge">
<title>Node32&#45;&gt;Node21</title>
<path fill="none" stroke="#191970" d="M490.8775,-347.4262C535.1701,-339.4765 589.4176,-326.9107 606,-311 618.5297,-298.9779 623.2816,-279.3945 625.0469,-264.6758"/>
<polygon fill="#191970" stroke="#191970" points="628.5461,-264.8319 625.8941,-254.5743 621.5705,-264.2468 628.5461,-264.8319"/>
</g>
<!-- Node32&#45;&gt;Node24 -->
<g id="edge63" class="edge">
<title>Node32&#45;&gt;Node24</title>
<path fill="none" stroke="#191970" d="M430.563,-347.2153C434.249,-333.9774 441.7483,-309.8514 452,-291 484.7414,-230.793 497.7442,-217.6365 545,-168 555.2945,-157.1868 568.0153,-146.4089 578.6293,-138.0065"/>
<polygon fill="#191970" stroke="#191970" points="580.8464,-140.7164 586.6033,-131.8221 576.5563,-135.185 580.8464,-140.7164"/>
</g>
<!-- Node34 -->
<g id="node35" class="node">
<title>Node34</title>
<g id="a_node35"><a xlink:href="SpatialMotionVector_8h.html" target="_top" xlink:title="iDynTree/Core/SpatialMotion\lVector.h">
<polygon fill="none" stroke="#000000" points="694.5,-403.5 694.5,-433.5 849.5,-433.5 849.5,-403.5 694.5,-403.5"/>
<text text-anchor="start" x="702.5" y="-421.5" font-family="FreeSans.ttf" font-size="10.00" fill="#000000">iDynTree/Core/SpatialMotion</text>
<text text-anchor="middle" x="772" y="-410.5" font-family="FreeSans.ttf" font-size="10.00" fill="#000000">Vector.h</text>
</a>
</g>
</g>
<!-- Node33&#45;&gt;Node34 -->
<g id="edge66" class="edge">
<title>Node33&#45;&gt;Node34</title>
<path fill="none" stroke="#191970" d="M642.0625,-470.3906C664.1589,-461.5664 697.5281,-448.2404 724.9172,-437.3026"/>
<polygon fill="#191970" stroke="#191970" points="726.3386,-440.5038 734.3274,-433.5446 723.7424,-434.003 726.3386,-440.5038"/>
</g>
<!-- Node34&#45;&gt;Node4 -->
<g id="edge67" class="edge">
<title>Node34&#45;&gt;Node4</title>
<path fill="none" stroke="#191970" d="M804.3423,-403.4477C822.4911,-394.2268 845.0274,-381.4394 863,-367 941.2644,-304.1216 978.0632,-292.742 1014,-199 1018.9318,-186.1352 1021.1915,-179.752 1014,-168 1004.6591,-152.7354 988.4772,-142.3326 972.3874,-135.3404"/>
<polygon fill="#191970" stroke="#191970" points="973.5629,-132.0414 962.977,-131.6067 970.9813,-138.548 973.5629,-132.0414"/>
</g>
<!-- Node34&#45;&gt;Node22 -->
<g id="edge68" class="edge">
<title>Node34&#45;&gt;Node22</title>
<path fill="none" stroke="#191970" d="M812.8001,-403.2943C830.3697,-394.9428 849.8532,-382.9821 863,-367 903.7986,-317.4026 917.6851,-239.4647 922.0983,-203.236"/>
<polygon fill="#191970" stroke="#191970" points="925.6068,-203.3503 923.2204,-193.0278 918.6487,-202.5854 925.6068,-203.3503"/>
</g>
<!-- Node34&#45;&gt;Node29 -->
<g id="edge69" class="edge">
<title>Node34&#45;&gt;Node29</title>
<path fill="none" stroke="#191970" d="M772.4944,-403.2977C772.7518,-395.3834 773.0698,-385.6043 773.3471,-377.0759"/>
<polygon fill="#191970" stroke="#191970" points="776.8528,-376.9554 773.6798,-366.8469 769.8565,-376.7279 776.8528,-376.9554"/>
</g>
<!-- Node35&#45;&gt;Node34 -->
<g id="edge71" class="edge">
<title>Node35&#45;&gt;Node34</title>
<path fill="none" stroke="#191970" d="M771.1563,-470.3906C771.2728,-463.2234 771.4376,-453.0862 771.5907,-443.671"/>
<polygon fill="#191970" stroke="#191970" points="775.0922,-443.6002 771.7554,-433.5446 768.0932,-443.4863 775.0922,-443.6002"/>
</g>
<!-- Node36&#45;&gt;Node28 -->
<g id="edge73" class="edge">
<title>Node36&#45;&gt;Node28</title>
<path fill="none" stroke="#191970" d="M974.0938,-470.3906C978.8832,-462.838 985.764,-451.9876 991.9965,-442.1593"/>
<polygon fill="#191970" stroke="#191970" points="995.0598,-443.8641 997.4595,-433.5446 989.1483,-440.1153 995.0598,-443.8641"/>
</g>
<!-- Node37&#45;&gt;Node2 -->
<g id="edge76" class="edge">
<title>Node37&#45;&gt;Node2</title>
<path fill="none" stroke="#191970" d="M190.2331,-168.3295C206.4774,-152.7431 233.4683,-128.4913 260,-112 283.2009,-97.579 311.7083,-85.398 333.1618,-77.2009"/>
<polygon fill="#191970" stroke="#191970" points="334.63,-80.3888 342.7748,-73.6129 332.1822,-73.8307 334.63,-80.3888"/>
</g>
<!-- Node37&#45;&gt;Node24 -->
<g id="edge75" class="edge">
<title>Node37&#45;&gt;Node24</title>
<path fill="none" stroke="#191970" d="M245.6572,-173.2755C322.4611,-162.1615 444.7607,-144.464 523.7075,-133.04"/>
<polygon fill="#191970" stroke="#191970" points="524.6753,-136.4365 534.071,-131.5403 523.6728,-129.5086 524.6753,-136.4365"/>
</g>
<!-- Node38&#45;&gt;Node2 -->
<g id="edge78" class="edge">
<title>Node38&#45;&gt;Node2</title>
<path fill="none" stroke="#191970" d="M247.3324,-470.3182C188.9552,-443.6902 38,-363.3882 38,-245 38,-245 38,-245 38,-183.5 38,-132.4135 81.5967,-133.3673 128,-112 196.3445,-80.5294 285.3783,-70.5758 332.4781,-67.4373"/>
<polygon fill="#191970" stroke="#191970" points="332.9206,-70.917 342.6916,-66.8209 332.4989,-63.9297 332.9206,-70.917"/>
</g>
<!-- Node39 -->
<g id="node40" class="node">
<title>Node39</title>
<polygon fill="none" stroke="#bfbfbf" points="227,-409 227,-428 313,-428 313,-409 227,-409"/>
<text text-anchor="middle" x="270" y="-416" font-family="FreeSans.ttf" font-size="10.00" fill="#000000">ModelExport.h</text>
</g>
<!-- Node38&#45;&gt;Node39 -->
<g id="edge79" class="edge">
<title>Node38&#45;&gt;Node39</title>
<path fill="none" stroke="#191970" d="M270,-470.3906C270,-461.8657 270,-449.1392 270,-438.4235"/>
<polygon fill="#191970" stroke="#191970" points="273.5001,-438.2448 270,-428.2449 266.5001,-438.2449 273.5001,-438.2448"/>
</g>
</g>
</svg>
