<?xml version="1.0" encoding="UTF-8" standalone="no"?>
<!DOCTYPE svg PUBLIC "-//W3C//DTD SVG 1.1//EN"
 "http://www.w3.org/Graphics/SVG/1.1/DTD/svg11.dtd">
<!-- Generated by graphviz version 2.40.1 (20161225.0304)
 -->
<!-- Title: JointState.h Pages: 1 -->
<svg width="1057pt" height="487pt"
 viewBox="0.00 0.00 1057.00 487.00" xmlns="http://www.w3.org/2000/svg" xmlns:xlink="http://www.w3.org/1999/xlink">
<g id="graph0" class="graph" transform="scale(1 1) rotate(0) translate(4 483)">
<title>JointState.h</title>
<!-- Node0 -->
<g id="node1" class="node">
<title>Node0</title>
<polygon fill="#bfbfbf" stroke="#000000" points="828,-459.5 828,-478.5 901,-478.5 901,-459.5 828,-459.5"/>
<text text-anchor="middle" x="864.5" y="-466.5" font-family="FreeSans.ttf" font-size="10.00" fill="#000000">JointState.h</text>
</g>
<!-- Node1 -->
<g id="node2" class="node">
<title>Node1</title>
<g id="a_node2"><a xlink:href="VectorFixSize_8h.html" target="_top" xlink:title="iDynTree/Core/VectorFixSize.h">
<polygon fill="none" stroke="#000000" points="491,-112.5 491,-131.5 652,-131.5 652,-112.5 491,-112.5"/>
<text text-anchor="middle" x="571.5" y="-119.5" font-family="FreeSans.ttf" font-size="10.00" fill="#000000">iDynTree/Core/VectorFixSize.h</text>
</a>
</g>
</g>
<!-- Node0&#45;&gt;Node1 -->
<g id="edge1" class="edge">
<title>Node0&#45;&gt;Node1</title>
<path fill="none" stroke="#191970" d="M882.4991,-459.499C913.4582,-441.7065 973.5,-400.2117 973.5,-346 973.5,-346 973.5,-346 973.5,-290 973.5,-203.3755 900.2692,-204.0446 821.5,-168 792.4199,-154.693 716.1381,-141.7096 655.4207,-132.9485"/>
<polygon fill="#191970" stroke="#191970" points="655.8297,-129.4715 645.4358,-131.5252 654.8418,-136.4014 655.8297,-129.4715"/>
</g>
<!-- Node17 -->
<g id="node18" class="node">
<title>Node17</title>
<g id="a_node18"><a xlink:href="VectorDynSize_8h.html" target="_top" xlink:title="iDynTree/Core/VectorDynSize.h">
<polygon fill="none" stroke="#000000" points="0,-112.5 0,-131.5 167,-131.5 167,-112.5 0,-112.5"/>
<text text-anchor="middle" x="83.5" y="-119.5" font-family="FreeSans.ttf" font-size="10.00" fill="#000000">iDynTree/Core/VectorDynSize.h</text>
</a>
</g>
</g>
<!-- Node0&#45;&gt;Node17 -->
<g id="edge19" class="edge">
<title>Node0&#45;&gt;Node17</title>
<path fill="none" stroke="#191970" d="M827.8094,-466.8712C677.8594,-457.6914 119.5,-418.6327 119.5,-346 119.5,-346 119.5,-346 119.5,-234 119.5,-199.7942 104.0926,-162.4094 93.4369,-140.6445"/>
<polygon fill="#191970" stroke="#191970" points="96.4659,-138.8795 88.8119,-131.5538 90.227,-142.0537 96.4659,-138.8795"/>
</g>
<!-- Node18 -->
<g id="node19" class="node">
<title>Node18</title>
<g id="a_node19"><a xlink:href="SpatialForceVector_8h.html" target="_top" xlink:title="iDynTree/Core/SpatialForce\lVector.h">
<polygon fill="none" stroke="#000000" points="736.5,-392.5 736.5,-422.5 884.5,-422.5 884.5,-392.5 736.5,-392.5"/>
<text text-anchor="start" x="744.5" y="-410.5" font-family="FreeSans.ttf" font-size="10.00" fill="#000000">iDynTree/Core/SpatialForce</text>
<text text-anchor="middle" x="810.5" y="-399.5" font-family="FreeSans.ttf" font-size="10.00" fill="#000000">Vector.h</text>
</a>
</g>
</g>
<!-- Node0&#45;&gt;Node18 -->
<g id="edge22" class="edge">
<title>Node0&#45;&gt;Node18</title>
<path fill="none" stroke="#191970" d="M856.0625,-459.3906C849.2279,-451.6068 839.3177,-440.3202 830.4841,-430.2597"/>
<polygon fill="#191970" stroke="#191970" points="832.938,-427.7497 823.7099,-422.5446 827.6779,-432.3683 832.938,-427.7497"/>
</g>
<!-- Node27 -->
<g id="node28" class="node">
<title>Node27</title>
<polygon fill="none" stroke="#bfbfbf" points="1002,-398 1002,-417 1049,-417 1049,-398 1002,-398"/>
<text text-anchor="middle" x="1025.5" y="-405" font-family="FreeSans.ttf" font-size="10.00" fill="#000000">vector</text>
</g>
<!-- Node0&#45;&gt;Node27 -->
<g id="edge50" class="edge">
<title>Node0&#45;&gt;Node27</title>
<path fill="none" stroke="#191970" d="M890.9785,-459.3531C915.946,-450.1963 954.3743,-435.9469 987.5,-423 989.1424,-422.3581 990.8225,-421.6954 992.5175,-421.022"/>
<polygon fill="#191970" stroke="#191970" points="994.2586,-424.0944 1002.2317,-417.1173 991.6479,-417.5994 994.2586,-424.0944"/>
</g>
<!-- Node2 -->
<g id="node3" class="node">
<title>Node2</title>
<g id="a_node3"><a xlink:href="Utils_8h.html" target="_top" xlink:title="iDynTree/Core/Utils.h">
<polygon fill="none" stroke="#000000" points="691,-56.5 691,-75.5 810,-75.5 810,-56.5 691,-56.5"/>
<text text-anchor="middle" x="750.5" y="-63.5" font-family="FreeSans.ttf" font-size="10.00" fill="#000000">iDynTree/Core/Utils.h</text>
</a>
</g>
</g>
<!-- Node1&#45;&gt;Node2 -->
<g id="edge2" class="edge">
<title>Node1&#45;&gt;Node2</title>
<path fill="none" stroke="#191970" d="M602.2712,-112.3733C632.165,-103.021 677.7093,-88.7725 710.4217,-78.5385"/>
<polygon fill="#191970" stroke="#191970" points="711.6315,-81.8273 720.1303,-75.5011 709.5414,-75.1466 711.6315,-81.8273"/>
</g>
<!-- Node5 -->
<g id="node6" class="node">
<title>Node5</title>
<g id="a_node6"><a xlink:href="Span_8h.html" target="_top" xlink:title="iDynTree/Core/Span.h">
<polygon fill="none" stroke="#000000" points="235,-56.5 235,-75.5 356,-75.5 356,-56.5 235,-56.5"/>
<text text-anchor="middle" x="295.5" y="-63.5" font-family="FreeSans.ttf" font-size="10.00" fill="#000000">iDynTree/Core/Span.h</text>
</a>
</g>
</g>
<!-- Node1&#45;&gt;Node5 -->
<g id="edge5" class="edge">
<title>Node1&#45;&gt;Node5</title>
<path fill="none" stroke="#191970" d="M524.3675,-112.4369C476.7353,-102.7724 403.1033,-87.8326 352.2834,-77.5213"/>
<polygon fill="#191970" stroke="#191970" points="352.9344,-74.0821 342.4381,-75.5237 351.5424,-80.9423 352.9344,-74.0821"/>
</g>
<!-- Node6 -->
<g id="node7" class="node">
<title>Node6</title>
<polygon fill="none" stroke="#bfbfbf" points="554.5,-.5 554.5,-19.5 606.5,-19.5 606.5,-.5 554.5,-.5"/>
<text text-anchor="middle" x="580.5" y="-7.5" font-family="FreeSans.ttf" font-size="10.00" fill="#000000">cassert</text>
</g>
<!-- Node1&#45;&gt;Node6 -->
<g id="edge17" class="edge">
<title>Node1&#45;&gt;Node6</title>
<path fill="none" stroke="#191970" d="M571.95,-112.1494C572.5734,-99.2407 573.8162,-75.903 575.5,-56 576.2356,-47.3051 577.2472,-37.7069 578.1681,-29.5375"/>
<polygon fill="#191970" stroke="#191970" points="581.6565,-29.8389 579.3332,-19.502 574.7032,-29.0316 581.6565,-29.8389"/>
</g>
<!-- Node14 -->
<g id="node15" class="node">
<title>Node14</title>
<polygon fill="none" stroke="#bfbfbf" points="374.5,-56.5 374.5,-75.5 418.5,-75.5 418.5,-56.5 374.5,-56.5"/>
<text text-anchor="middle" x="396.5" y="-63.5" font-family="FreeSans.ttf" font-size="10.00" fill="#000000">string</text>
</g>
<!-- Node1&#45;&gt;Node14 -->
<g id="edge15" class="edge">
<title>Node1&#45;&gt;Node14</title>
<path fill="none" stroke="#191970" d="M541.4164,-112.3733C509.9357,-102.2994 460.7022,-86.5447 428.5169,-76.2454"/>
<polygon fill="#191970" stroke="#191970" points="429.3013,-72.8216 418.7103,-73.1073 427.1678,-79.4886 429.3013,-72.8216"/>
</g>
<!-- Node15 -->
<g id="node16" class="node">
<title>Node15</title>
<polygon fill="none" stroke="#bfbfbf" points="828.5,-56.5 828.5,-75.5 884.5,-75.5 884.5,-56.5 828.5,-56.5"/>
<text text-anchor="middle" x="856.5" y="-63.5" font-family="FreeSans.ttf" font-size="10.00" fill="#000000">sstream</text>
</g>
<!-- Node1&#45;&gt;Node15 -->
<g id="edge16" class="edge">
<title>Node1&#45;&gt;Node15</title>
<path fill="none" stroke="#191970" d="M630.1487,-112.4927C678.309,-104.3736 748.4814,-91.8327 818.4131,-76.1176"/>
<polygon fill="#191970" stroke="#191970" points="819.2994,-79.5055 828.2768,-73.8792 817.7502,-72.6791 819.2994,-79.5055"/>
</g>
<!-- Node16 -->
<g id="node17" class="node">
<title>Node16</title>
<polygon fill="none" stroke="#bfbfbf" points="584.5,-56.5 584.5,-75.5 634.5,-75.5 634.5,-56.5 584.5,-56.5"/>
<text text-anchor="middle" x="609.5" y="-63.5" font-family="FreeSans.ttf" font-size="10.00" fill="#000000">cstring</text>
</g>
<!-- Node1&#45;&gt;Node16 -->
<g id="edge18" class="edge">
<title>Node1&#45;&gt;Node16</title>
<path fill="none" stroke="#191970" d="M578.1191,-112.2455C583.4046,-104.4564 590.9541,-93.3308 597.3238,-83.9439"/>
<polygon fill="#191970" stroke="#191970" points="600.2379,-85.8827 602.9568,-75.6427 594.4455,-81.9522 600.2379,-85.8827"/>
</g>
<!-- Node3 -->
<g id="node4" class="node">
<title>Node3</title>
<polygon fill="none" stroke="#bfbfbf" points="635,-.5 635,-19.5 688,-19.5 688,-.5 635,-.5"/>
<text text-anchor="middle" x="661.5" y="-7.5" font-family="FreeSans.ttf" font-size="10.00" fill="#000000">cstddef</text>
</g>
<!-- Node2&#45;&gt;Node3 -->
<g id="edge3" class="edge">
<title>Node2&#45;&gt;Node3</title>
<path fill="none" stroke="#191970" d="M734.9974,-56.2455C721.342,-47.6534 701.2343,-35.0014 685.5011,-25.1018"/>
<polygon fill="#191970" stroke="#191970" points="687.1529,-22.006 676.825,-19.6427 683.4249,-27.9307 687.1529,-22.006"/>
</g>
<!-- Node4 -->
<g id="node5" class="node">
<title>Node4</title>
<polygon fill="none" stroke="#bfbfbf" points="710.5,-.5 710.5,-19.5 790.5,-19.5 790.5,-.5 710.5,-.5"/>
<text text-anchor="middle" x="750.5" y="-7.5" font-family="FreeSans.ttf" font-size="10.00" fill="#000000">CoreExport.h</text>
</g>
<!-- Node2&#45;&gt;Node4 -->
<g id="edge4" class="edge">
<title>Node2&#45;&gt;Node4</title>
<path fill="none" stroke="#191970" d="M750.5,-56.2455C750.5,-48.9382 750.5,-38.6944 750.5,-29.7046"/>
<polygon fill="#191970" stroke="#191970" points="754.0001,-29.6426 750.5,-19.6427 747.0001,-29.6427 754.0001,-29.6426"/>
</g>
<!-- Node5&#45;&gt;Node3 -->
<g id="edge9" class="edge">
<title>Node5&#45;&gt;Node3</title>
<path fill="none" stroke="#191970" d="M356.0628,-57.3495C447.0558,-44.3448 609.1565,-21.1439 615.5,-20 618.5387,-19.452 621.6824,-18.848 624.8339,-18.2164"/>
<polygon fill="#191970" stroke="#191970" points="625.7311,-21.6047 634.8078,-16.1398 624.3043,-14.7516 625.7311,-21.6047"/>
</g>
<!-- Node5&#45;&gt;Node6 -->
<g id="edge6" class="edge">
<title>Node5&#45;&gt;Node6</title>
<path fill="none" stroke="#191970" d="M355.1708,-56.4982C405.8039,-48.0726 480.2479,-34.8284 544.5,-20 544.5988,-19.9772 544.6977,-19.9543 544.7967,-19.9313"/>
<polygon fill="#191970" stroke="#191970" points="545.3624,-23.3973 554.2224,-17.5878 543.6734,-16.6041 545.3624,-23.3973"/>
</g>
<!-- Node7 -->
<g id="node8" class="node">
<title>Node7</title>
<polygon fill="none" stroke="#bfbfbf" points="44.5,-.5 44.5,-19.5 108.5,-19.5 108.5,-.5 44.5,-.5"/>
<text text-anchor="middle" x="76.5" y="-7.5" font-family="FreeSans.ttf" font-size="10.00" fill="#000000">algorithm</text>
</g>
<!-- Node5&#45;&gt;Node7 -->
<g id="edge7" class="edge">
<title>Node5&#45;&gt;Node7</title>
<path fill="none" stroke="#191970" d="M257.8526,-56.3733C219.0696,-46.4561 158.7561,-31.0335 118.4621,-20.73"/>
<polygon fill="#191970" stroke="#191970" points="119.2299,-17.3138 108.6745,-18.2273 117.4957,-24.0956 119.2299,-17.3138"/>
</g>
<!-- Node8 -->
<g id="node9" class="node">
<title>Node8</title>
<polygon fill="none" stroke="#bfbfbf" points="126.5,-.5 126.5,-19.5 168.5,-19.5 168.5,-.5 126.5,-.5"/>
<text text-anchor="middle" x="147.5" y="-7.5" font-family="FreeSans.ttf" font-size="10.00" fill="#000000">array</text>
</g>
<!-- Node5&#45;&gt;Node8 -->
<g id="edge8" class="edge">
<title>Node5&#45;&gt;Node8</title>
<path fill="none" stroke="#191970" d="M270.0579,-56.3733C244.5896,-46.7366 205.3825,-31.9015 178.2001,-21.6163"/>
<polygon fill="#191970" stroke="#191970" points="179.3689,-18.3164 168.7774,-18.0509 176.8916,-24.8634 179.3689,-18.3164"/>
</g>
<!-- Node9 -->
<g id="node10" class="node">
<title>Node9</title>
<polygon fill="none" stroke="#bfbfbf" points="187,-.5 187,-19.5 240,-19.5 240,-.5 187,-.5"/>
<text text-anchor="middle" x="213.5" y="-7.5" font-family="FreeSans.ttf" font-size="10.00" fill="#000000">iterator</text>
</g>
<!-- Node5&#45;&gt;Node9 -->
<g id="edge10" class="edge">
<title>Node5&#45;&gt;Node9</title>
<path fill="none" stroke="#191970" d="M281.2167,-56.2455C268.753,-47.7337 250.4549,-35.2375 236.0208,-25.3801"/>
<polygon fill="#191970" stroke="#191970" points="237.8515,-22.392 227.6196,-19.6427 233.9038,-28.1726 237.8515,-22.392"/>
</g>
<!-- Node10 -->
<g id="node11" class="node">
<title>Node10</title>
<polygon fill="none" stroke="#bfbfbf" points="258.5,-.5 258.5,-19.5 302.5,-19.5 302.5,-.5 258.5,-.5"/>
<text text-anchor="middle" x="280.5" y="-7.5" font-family="FreeSans.ttf" font-size="10.00" fill="#000000">limits</text>
</g>
<!-- Node5&#45;&gt;Node10 -->
<g id="edge11" class="edge">
<title>Node5&#45;&gt;Node10</title>
<path fill="none" stroke="#191970" d="M292.8872,-56.2455C290.9084,-48.8579 288.1256,-38.4689 285.6988,-29.4087"/>
<polygon fill="#191970" stroke="#191970" points="289.0511,-28.3966 283.0829,-19.6427 282.2895,-30.2078 289.0511,-28.3966"/>
</g>
<!-- Node11 -->
<g id="node12" class="node">
<title>Node11</title>
<polygon fill="none" stroke="#bfbfbf" points="321,-.5 321,-19.5 386,-19.5 386,-.5 321,-.5"/>
<text text-anchor="middle" x="353.5" y="-7.5" font-family="FreeSans.ttf" font-size="10.00" fill="#000000">stdexcept</text>
</g>
<!-- Node5&#45;&gt;Node11 -->
<g id="edge12" class="edge">
<title>Node5&#45;&gt;Node11</title>
<path fill="none" stroke="#191970" d="M305.6028,-56.2455C314.0028,-48.1352 326.1494,-36.4075 336.1084,-26.7919"/>
<polygon fill="#191970" stroke="#191970" points="338.75,-29.1066 343.5129,-19.6427 333.8878,-24.0707 338.75,-29.1066"/>
</g>
<!-- Node12 -->
<g id="node13" class="node">
<title>Node12</title>
<polygon fill="none" stroke="#bfbfbf" points="404,-.5 404,-19.5 473,-19.5 473,-.5 404,-.5"/>
<text text-anchor="middle" x="438.5" y="-7.5" font-family="FreeSans.ttf" font-size="10.00" fill="#000000">type_traits</text>
</g>
<!-- Node5&#45;&gt;Node12 -->
<g id="edge13" class="edge">
<title>Node5&#45;&gt;Node12</title>
<path fill="none" stroke="#191970" d="M320.0826,-56.3733C343.4496,-47.2226 378.7862,-33.3844 404.7784,-23.2057"/>
<polygon fill="#191970" stroke="#191970" points="406.203,-26.4066 414.2382,-19.5011 403.6505,-19.8886 406.203,-26.4066"/>
</g>
<!-- Node13 -->
<g id="node14" class="node">
<title>Node13</title>
<polygon fill="none" stroke="#bfbfbf" points="491,-.5 491,-19.5 536,-19.5 536,-.5 491,-.5"/>
<text text-anchor="middle" x="513.5" y="-7.5" font-family="FreeSans.ttf" font-size="10.00" fill="#000000">utility</text>
</g>
<!-- Node5&#45;&gt;Node13 -->
<g id="edge14" class="edge">
<title>Node5&#45;&gt;Node13</title>
<path fill="none" stroke="#191970" d="M337.0577,-56.4817C372.735,-48.1405 425.7379,-35.3478 480.8737,-20.0534"/>
<polygon fill="#191970" stroke="#191970" points="482.1361,-23.3347 490.8247,-17.2719 480.2517,-16.5932 482.1361,-23.3347"/>
</g>
<!-- Node17&#45;&gt;Node5 -->
<g id="edge20" class="edge">
<title>Node17&#45;&gt;Node5</title>
<path fill="none" stroke="#191970" d="M119.9441,-112.3733C155.8069,-102.9001 210.6878,-88.4032 249.5282,-78.1435"/>
<polygon fill="#191970" stroke="#191970" points="250.757,-81.439 259.5315,-75.5011 248.9692,-74.6712 250.757,-81.439"/>
</g>
<!-- Node17&#45;&gt;Node14 -->
<g id="edge21" class="edge">
<title>Node17&#45;&gt;Node14</title>
<path fill="none" stroke="#191970" d="M159.8058,-112.4659C216.6506,-104.6498 295.953,-92.236 364.5,-76 364.5991,-75.9765 364.6984,-75.9529 364.7978,-75.9291"/>
<polygon fill="#191970" stroke="#191970" points="365.4799,-79.37 374.2314,-73.3982 363.666,-72.6091 365.4799,-79.37"/>
</g>
<!-- Node18&#45;&gt;Node1 -->
<g id="edge23" class="edge">
<title>Node18&#45;&gt;Node1</title>
<path fill="none" stroke="#191970" d="M796.4133,-392.1152C788.5933,-382.5028 779.6323,-369.4322 775.5,-356 750.6789,-275.3189 856.044,-233.2577 802.5,-168 792.7594,-156.1285 714.916,-142.3508 652.2452,-132.9913"/>
<polygon fill="#191970" stroke="#191970" points="652.7338,-129.5256 642.33,-131.5281 651.7118,-136.4506 652.7338,-129.5256"/>
</g>
<!-- Node19 -->
<g id="node20" class="node">
<title>Node19</title>
<g id="a_node20"><a xlink:href="GeomVector3_8h.html" target="_top" xlink:title="iDynTree/Core/GeomVector3.h">
<polygon fill="none" stroke="#000000" points="630,-168.5 630,-187.5 793,-187.5 793,-168.5 630,-168.5"/>
<text text-anchor="middle" x="711.5" y="-175.5" font-family="FreeSans.ttf" font-size="10.00" fill="#000000">iDynTree/Core/GeomVector3.h</text>
</a>
</g>
</g>
<!-- Node18&#45;&gt;Node19 -->
<g id="edge24" class="edge">
<title>Node18&#45;&gt;Node19</title>
<path fill="none" stroke="#191970" d="M780.686,-392.3002C766.5951,-383.5809 750.8496,-371.3082 741.5,-356 710.681,-305.54 708.9941,-232.774 710.2386,-197.9894"/>
<polygon fill="#191970" stroke="#191970" points="713.7472,-197.8936 710.7351,-187.736 706.7554,-197.5549 713.7472,-197.8936"/>
</g>
<!-- Node20 -->
<g id="node21" class="node">
<title>Node20</title>
<g id="a_node21"><a xlink:href="SpatialVector_8h.html" target="_top" xlink:title="iDynTree/Core/SpatialVector.h">
<polygon fill="none" stroke="#000000" points="784,-336.5 784,-355.5 945,-355.5 945,-336.5 784,-336.5"/>
<text text-anchor="middle" x="864.5" y="-343.5" font-family="FreeSans.ttf" font-size="10.00" fill="#000000">iDynTree/Core/SpatialVector.h</text>
</a>
</g>
</g>
<!-- Node18&#45;&gt;Node20 -->
<g id="edge26" class="edge">
<title>Node18&#45;&gt;Node20</title>
<path fill="none" stroke="#191970" d="M823.8483,-392.2977C831.5002,-383.5831 841.1373,-372.6075 849.1076,-363.5302"/>
<polygon fill="#191970" stroke="#191970" points="851.8859,-365.6707 855.8539,-355.8469 846.6258,-361.052 851.8859,-365.6707"/>
</g>
<!-- Node19&#45;&gt;Node1 -->
<g id="edge25" class="edge">
<title>Node19&#45;&gt;Node1</title>
<path fill="none" stroke="#191970" d="M687.4331,-168.3733C664.6572,-159.2629 630.2656,-145.5062 604.851,-135.3404"/>
<polygon fill="#191970" stroke="#191970" points="605.8375,-131.9654 595.2528,-131.5011 603.2377,-138.4648 605.8375,-131.9654"/>
</g>
<!-- Node20&#45;&gt;Node2 -->
<g id="edge46" class="edge">
<title>Node20&#45;&gt;Node2</title>
<path fill="none" stroke="#191970" d="M863.7836,-336.4181C862.4011,-317.0718 859.5,-271.9544 859.5,-234 859.5,-234 859.5,-234 859.5,-178 859.5,-147.4754 859.9136,-135.5556 840.5,-112 828.2787,-97.1712 810.0446,-86.6116 793.1782,-79.3823"/>
<polygon fill="#191970" stroke="#191970" points="794.0463,-75.9603 783.4613,-75.5035 791.4511,-82.4615 794.0463,-75.9603"/>
</g>
<!-- Node20&#45;&gt;Node15 -->
<g id="edge49" class="edge">
<title>Node20&#45;&gt;Node15</title>
<path fill="none" stroke="#191970" d="M869.3693,-336.3939C878.5488,-317.3677 897.5,-273.3256 897.5,-234 897.5,-234 897.5,-234 897.5,-178 897.5,-143.3444 879.9755,-106.1312 867.8408,-84.5174"/>
<polygon fill="#191970" stroke="#191970" points="870.7886,-82.6243 862.727,-75.7496 864.7419,-86.1511 870.7886,-82.6243"/>
</g>
<!-- Node20&#45;&gt;Node19 -->
<g id="edge47" class="edge">
<title>Node20&#45;&gt;Node19</title>
<path fill="none" stroke="#191970" d="M855.8357,-336.4862C831.0217,-309.2396 759.4192,-230.6172 727.3552,-195.4096"/>
<polygon fill="#191970" stroke="#191970" points="729.7714,-192.8647 720.4504,-187.8279 724.596,-197.578 729.7714,-192.8647"/>
</g>
<!-- Node21 -->
<g id="node22" class="node">
<title>Node21</title>
<g id="a_node22"><a xlink:href="Position_8h.html" target="_top" xlink:title="Position.h">
<polygon fill="none" stroke="#000000" points="476,-280.5 476,-299.5 541,-299.5 541,-280.5 476,-280.5"/>
<text text-anchor="middle" x="508.5" y="-287.5" font-family="FreeSans.ttf" font-size="10.00" fill="#000000">Position.h</text>
</a>
</g>
</g>
<!-- Node20&#45;&gt;Node21 -->
<g id="edge27" class="edge">
<title>Node20&#45;&gt;Node21</title>
<path fill="none" stroke="#191970" d="M803.7059,-336.4369C731.8452,-325.133 614.1059,-306.6122 551.2312,-296.7218"/>
<polygon fill="#191970" stroke="#191970" points="551.6804,-293.2495 541.258,-295.1529 550.5926,-300.1644 551.6804,-293.2495"/>
</g>
<!-- Node23 -->
<g id="node24" class="node">
<title>Node23</title>
<g id="a_node24"><a xlink:href="Rotation_8h.html" target="_top" xlink:title="iDynTree/Core/Rotation.h">
<polygon fill="none" stroke="#000000" points="487,-224.5 487,-243.5 624,-243.5 624,-224.5 487,-224.5"/>
<text text-anchor="middle" x="555.5" y="-231.5" font-family="FreeSans.ttf" font-size="10.00" fill="#000000">iDynTree/Core/Rotation.h</text>
</a>
</g>
</g>
<!-- Node20&#45;&gt;Node23 -->
<g id="edge45" class="edge">
<title>Node20&#45;&gt;Node23</title>
<path fill="none" stroke="#191970" d="M838.1548,-336.4509C782.7406,-316.3655 654.072,-269.7284 591.2708,-246.9655"/>
<polygon fill="#191970" stroke="#191970" points="592.3727,-243.6421 581.7785,-243.5249 589.9873,-250.2231 592.3727,-243.6421"/>
</g>
<!-- Node26 -->
<g id="node27" class="node">
<title>Node26</title>
<polygon fill="none" stroke="#bfbfbf" points="922.5,-56.5 922.5,-75.5 982.5,-75.5 982.5,-56.5 922.5,-56.5"/>
<text text-anchor="middle" x="952.5" y="-63.5" font-family="FreeSans.ttf" font-size="10.00" fill="#000000">iostream</text>
</g>
<!-- Node20&#45;&gt;Node26 -->
<g id="edge48" class="edge">
<title>Node20&#45;&gt;Node26</title>
<path fill="none" stroke="#191970" d="M874.5308,-336.3516C882.9963,-327.6361 894.7802,-314.0546 901.5,-300 936.7465,-226.2809 947.9328,-127.8455 951.2281,-86.0856"/>
<polygon fill="#191970" stroke="#191970" points="954.7358,-86.1029 951.9618,-75.8777 947.7538,-85.6011 954.7358,-86.1029"/>
</g>
<!-- Node21&#45;&gt;Node14 -->
<g id="edge44" class="edge">
<title>Node21&#45;&gt;Node14</title>
<path fill="none" stroke="#191970" d="M475.9358,-284.3518C402.6212,-270.9042 228.3608,-234.6019 194.5,-188 189.275,-180.8089 189.8418,-175.5706 194.5,-168 213.7933,-136.6444 313.1067,-96.5296 364.9317,-77.2873"/>
<polygon fill="#191970" stroke="#191970" points="366.1471,-80.5695 374.326,-73.8348 363.7324,-73.9992 366.1471,-80.5695"/>
</g>
<!-- Node22 -->
<g id="node23" class="node">
<title>Node22</title>
<g id="a_node23"><a xlink:href="PositionRaw_8h.html" target="_top" xlink:title="iDynTree/Core/PositionRaw.h">
<polygon fill="none" stroke="#000000" points="203.5,-168.5 203.5,-187.5 359.5,-187.5 359.5,-168.5 203.5,-168.5"/>
<text text-anchor="middle" x="281.5" y="-175.5" font-family="FreeSans.ttf" font-size="10.00" fill="#000000">iDynTree/Core/PositionRaw.h</text>
</a>
</g>
</g>
<!-- Node21&#45;&gt;Node22 -->
<g id="edge28" class="edge">
<title>Node21&#45;&gt;Node22</title>
<path fill="none" stroke="#191970" d="M489.1461,-280.4509C449.0236,-260.6548 356.6254,-215.0663 309.8016,-191.9638"/>
<polygon fill="#191970" stroke="#191970" points="311.3214,-188.8109 300.8049,-187.5249 308.2241,-195.0884 311.3214,-188.8109"/>
</g>
<!-- Node21&#45;&gt;Node23 -->
<g id="edge31" class="edge">
<title>Node21&#45;&gt;Node23</title>
<path fill="none" stroke="#191970" d="M516.6868,-280.2455C523.3589,-272.2958 532.9479,-260.8706 540.9253,-251.3656"/>
<polygon fill="#191970" stroke="#191970" points="543.6592,-253.5525 547.407,-243.6427 538.2974,-249.0524 543.6592,-253.5525"/>
</g>
<!-- Node22&#45;&gt;Node1 -->
<g id="edge29" class="edge">
<title>Node22&#45;&gt;Node1</title>
<path fill="none" stroke="#191970" d="M331.0233,-168.4369C381.1759,-158.7522 458.761,-143.7703 512.1697,-133.4569"/>
<polygon fill="#191970" stroke="#191970" points="513.026,-136.8563 522.181,-131.5237 511.6987,-129.9832 513.026,-136.8563"/>
</g>
<!-- Node22&#45;&gt;Node14 -->
<g id="edge30" class="edge">
<title>Node22&#45;&gt;Node14</title>
<path fill="none" stroke="#191970" d="M291.3048,-168.4509C310.9098,-149.3574 355.1516,-106.2697 379.5515,-82.5063"/>
<polygon fill="#191970" stroke="#191970" points="381.998,-85.0093 386.72,-75.5249 377.1141,-79.9946 381.998,-85.0093"/>
</g>
<!-- Node23&#45;&gt;Node1 -->
<g id="edge43" class="edge">
<title>Node23&#45;&gt;Node1</title>
<path fill="none" stroke="#191970" d="M563.1619,-224.4654C569.7487,-215.6125 578.7597,-201.7614 582.5,-188 586.7312,-172.4325 583.1346,-154.3323 578.9578,-141.0286"/>
<polygon fill="#191970" stroke="#191970" points="582.2373,-139.8036 575.6223,-131.5276 575.6325,-142.1224 582.2373,-139.8036"/>
</g>
<!-- Node23&#45;&gt;Node14 -->
<g id="edge32" class="edge">
<title>Node23&#45;&gt;Node14</title>
<path fill="none" stroke="#191970" d="M503.8539,-224.4386C465.9176,-216.2922 418.9165,-203.4626 406.5,-188 382.9815,-158.7118 387.1718,-111.7099 392.0201,-85.416"/>
<polygon fill="#191970" stroke="#191970" points="395.4675,-86.0278 394.0593,-75.527 388.6117,-84.614 395.4675,-86.0278"/>
</g>
<!-- Node23&#45;&gt;Node19 -->
<g id="edge33" class="edge">
<title>Node23&#45;&gt;Node19</title>
<path fill="none" stroke="#191970" d="M582.3174,-224.3733C608.0332,-215.1419 647.038,-201.1402 675.4599,-190.9375"/>
<polygon fill="#191970" stroke="#191970" points="676.8032,-194.174 685.0326,-187.5011 674.4381,-187.5857 676.8032,-194.174"/>
</g>
<!-- Node24 -->
<g id="node25" class="node">
<title>Node24</title>
<g id="a_node25"><a xlink:href="RotationRaw_8h.html" target="_top" xlink:title="iDynTree/Core/RotationRaw.h">
<polygon fill="none" stroke="#000000" points="415.5,-168.5 415.5,-187.5 573.5,-187.5 573.5,-168.5 415.5,-168.5"/>
<text text-anchor="middle" x="494.5" y="-175.5" font-family="FreeSans.ttf" font-size="10.00" fill="#000000">iDynTree/Core/RotationRaw.h</text>
</a>
</g>
</g>
<!-- Node23&#45;&gt;Node24 -->
<g id="edge34" class="edge">
<title>Node23&#45;&gt;Node24</title>
<path fill="none" stroke="#191970" d="M544.8746,-224.2455C535.9527,-216.0549 523.012,-204.1749 512.4808,-194.5069"/>
<polygon fill="#191970" stroke="#191970" points="514.7371,-191.8271 505.0036,-187.6427 510.0032,-196.9837 514.7371,-191.8271"/>
</g>
<!-- Node24&#45;&gt;Node14 -->
<g id="edge42" class="edge">
<title>Node24&#45;&gt;Node14</title>
<path fill="none" stroke="#191970" d="M486.1446,-168.4509C469.5824,-149.5227 432.3873,-107.014 411.4869,-83.1279"/>
<polygon fill="#191970" stroke="#191970" points="414.0534,-80.7459 404.8343,-75.5249 408.7853,-85.3555 414.0534,-80.7459"/>
</g>
<!-- Node25 -->
<g id="node26" class="node">
<title>Node25</title>
<g id="a_node26"><a xlink:href="MatrixFixSize_8h.html" target="_top" xlink:title="iDynTree/Core/MatrixFixSize.h">
<polygon fill="none" stroke="#000000" points="670,-112.5 670,-131.5 831,-131.5 831,-112.5 670,-112.5"/>
<text text-anchor="middle" x="750.5" y="-119.5" font-family="FreeSans.ttf" font-size="10.00" fill="#000000">iDynTree/Core/MatrixFixSize.h</text>
</a>
</g>
</g>
<!-- Node24&#45;&gt;Node25 -->
<g id="edge35" class="edge">
<title>Node24&#45;&gt;Node25</title>
<path fill="none" stroke="#191970" d="M538.2171,-168.4369C582.1216,-158.8328 649.8413,-144.0191 696.945,-133.7152"/>
<polygon fill="#191970" stroke="#191970" points="697.9422,-137.0799 706.9632,-131.5237 696.4463,-130.2416 697.9422,-137.0799"/>
</g>
<!-- Node25&#45;&gt;Node2 -->
<g id="edge36" class="edge">
<title>Node25&#45;&gt;Node2</title>
<path fill="none" stroke="#191970" d="M750.5,-112.2455C750.5,-104.9382 750.5,-94.6944 750.5,-85.7046"/>
<polygon fill="#191970" stroke="#191970" points="754.0001,-85.6426 750.5,-75.6427 747.0001,-85.6427 754.0001,-85.6426"/>
</g>
<!-- Node25&#45;&gt;Node6 -->
<g id="edge37" class="edge">
<title>Node25&#45;&gt;Node6</title>
<path fill="none" stroke="#191970" d="M736.0059,-112.4509C706.5228,-93.0268 639.3478,-48.7703 603.7073,-25.2895"/>
<polygon fill="#191970" stroke="#191970" points="605.2336,-22.1038 594.9574,-19.5249 601.3825,-27.9492 605.2336,-22.1038"/>
</g>
<!-- Node25&#45;&gt;Node14 -->
<g id="edge39" class="edge">
<title>Node25&#45;&gt;Node14</title>
<path fill="none" stroke="#191970" d="M690.0475,-112.4369C614.4142,-100.4723 487.6716,-80.4226 428.6081,-71.0793"/>
<polygon fill="#191970" stroke="#191970" points="429.1511,-67.6217 418.727,-69.5161 428.0573,-74.5357 429.1511,-67.6217"/>
</g>
<!-- Node25&#45;&gt;Node15 -->
<g id="edge41" class="edge">
<title>Node25&#45;&gt;Node15</title>
<path fill="none" stroke="#191970" d="M768.9638,-112.2455C785.6074,-103.4527 810.2993,-90.4079 829.2192,-80.4125"/>
<polygon fill="#191970" stroke="#191970" points="831.0408,-83.4086 838.2478,-75.6427 827.7709,-77.2193 831.0408,-83.4086"/>
</g>
<!-- Node25&#45;&gt;Node16 -->
<g id="edge38" class="edge">
<title>Node25&#45;&gt;Node16</title>
<path fill="none" stroke="#191970" d="M726.2612,-112.3733C703.2211,-103.2226 668.3786,-89.3844 642.7499,-79.2057"/>
<polygon fill="#191970" stroke="#191970" points="644.0082,-75.9395 633.4225,-75.5011 641.4244,-82.4452 644.0082,-75.9395"/>
</g>
<!-- Node25&#45;&gt;Node26 -->
<g id="edge40" class="edge">
<title>Node25&#45;&gt;Node26</title>
<path fill="none" stroke="#191970" d="M785.225,-112.3733C820.4881,-102.5974 875.0488,-87.4716 912.1964,-77.1733"/>
<polygon fill="#191970" stroke="#191970" points="913.4802,-80.4494 922.1817,-74.4051 911.6101,-73.7039 913.4802,-80.4494"/>
</g>
</g>
</svg>
