<?xml version="1.0" encoding="UTF-8" standalone="no"?>
<!DOCTYPE svg PUBLIC "-//W3C//DTD SVG 1.1//EN"
 "http://www.w3.org/Graphics/SVG/1.1/DTD/svg11.dtd">
<!-- Generated by graphviz version 2.40.1 (20161225.0304)
 -->
<!-- Title: KinDynComputations.cpp Pages: 1 -->
<svg width="3358pt" height="699pt"
 viewBox="0.00 0.00 3358.37 699.00" xmlns="http://www.w3.org/2000/svg" xmlns:xlink="http://www.w3.org/1999/xlink">
<g id="graph0" class="graph" transform="scale(1 1) rotate(0) translate(4 695)">
<title>KinDynComputations.cpp</title>
<!-- Node0 -->
<g id="node1" class="node">
<title>Node0</title>
<polygon fill="#bfbfbf" stroke="#000000" points="1067,-671.5 1067,-690.5 1207,-690.5 1207,-671.5 1067,-671.5"/>
<text text-anchor="middle" x="1137" y="-678.5" font-family="FreeSans.ttf" font-size="10.00" fill="#000000">KinDynComputations.cpp</text>
</g>
<!-- Node1 -->
<g id="node2" class="node">
<title>Node1</title>
<g id="a_node2"><a xlink:href="KinDynComputations_8h.html" target="_top" xlink:title="iDynTree/KinDynComputations.h">
<polygon fill="none" stroke="#000000" points="2590.5,-498 2590.5,-517 2765.5,-517 2765.5,-498 2590.5,-498"/>
<text text-anchor="middle" x="2678" y="-505" font-family="FreeSans.ttf" font-size="10.00" fill="#000000">iDynTree/KinDynComputations.h</text>
</a>
</g>
</g>
<!-- Node0&#45;&gt;Node1 -->
<g id="edge1" class="edge">
<title>Node0&#45;&gt;Node1</title>
<path fill="none" stroke="#191970" d="M1207.3077,-679.6585C1465.5781,-674.5837 2353.4392,-655.7914 2479,-635 2563.7526,-620.966 2606.3851,-642.7219 2664,-579 2676.5605,-565.1082 2679.2749,-543.368 2679.331,-527.505"/>
<polygon fill="#191970" stroke="#191970" points="2682.8192,-527.0735 2679.0048,-517.1892 2675.8227,-527.2948 2682.8192,-527.0735"/>
</g>
<!-- Node5 -->
<g id="node6" class="node">
<title>Node5</title>
<g id="a_node6"><a xlink:href="Utils_8h.html" target="_top" xlink:title="iDynTree/Core/Utils.h">
<polygon fill="none" stroke="#000000" points="1286.5,-56.5 1286.5,-75.5 1405.5,-75.5 1405.5,-56.5 1286.5,-56.5"/>
<text text-anchor="middle" x="1346" y="-63.5" font-family="FreeSans.ttf" font-size="10.00" fill="#000000">iDynTree/Core/Utils.h</text>
</a>
</g>
</g>
<!-- Node0&#45;&gt;Node5 -->
<g id="edge63" class="edge">
<title>Node0&#45;&gt;Node5</title>
<path fill="none" stroke="#191970" d="M1207.1493,-680.0081C1511.3887,-675.5887 2708.9196,-656.9429 2876,-635 3001.0513,-618.5768 3152,-695.1252 3152,-569 3152,-569 3152,-569 3152,-507.5 3152,-143.29 1748.5319,-78.116 1416.0244,-67.7859"/>
<polygon fill="#191970" stroke="#191970" points="1415.6761,-64.2738 1405.5745,-67.4685 1415.4635,-71.2706 1415.6761,-64.2738"/>
</g>
<!-- Node9 -->
<g id="node10" class="node">
<title>Node9</title>
<polygon fill="none" stroke="#bfbfbf" points="1027,-.5 1027,-19.5 1079,-19.5 1079,-.5 1027,-.5"/>
<text text-anchor="middle" x="1053" y="-7.5" font-family="FreeSans.ttf" font-size="10.00" fill="#000000">cassert</text>
</g>
<!-- Node0&#45;&gt;Node9 -->
<g id="edge139" class="edge">
<title>Node0&#45;&gt;Node9</title>
<path fill="none" stroke="#191970" d="M1066.8975,-679.9199C831.5618,-676.0528 82.0114,-661.6886 38,-635 9.0577,-617.4494 0,-602.8479 0,-569 0,-569 0,-569 0,-122 0,-69.7006 832.1936,-21.8743 1016.9534,-11.9006"/>
<polygon fill="#191970" stroke="#191970" points="1017.1727,-15.394 1026.9706,-11.3628 1016.7974,-8.404 1017.1727,-15.394"/>
</g>
<!-- Node19 -->
<g id="node11" class="node">
<title>Node19</title>
<g id="a_node11"><a xlink:href="MatrixDynSize_8h.html" target="_top" xlink:title="iDynTree/Core/MatrixDynSize.h">
<polygon fill="none" stroke="#000000" points="2748.5,-369.5 2748.5,-388.5 2915.5,-388.5 2915.5,-369.5 2748.5,-369.5"/>
<text text-anchor="middle" x="2832" y="-376.5" font-family="FreeSans.ttf" font-size="10.00" fill="#000000">iDynTree/Core/MatrixDynSize.h</text>
</a>
</g>
</g>
<!-- Node0&#45;&gt;Node19 -->
<g id="edge56" class="edge">
<title>Node0&#45;&gt;Node19</title>
<path fill="none" stroke="#191970" d="M1207.104,-679.8868C1495.8782,-675.1787 2585.3073,-656.1673 2738,-635 2856.9448,-618.511 3000,-689.0823 3000,-569 3000,-569 3000,-569 3000,-507.5 3000,-466.7508 2990.3061,-452.2403 2960,-425 2942.0246,-408.8431 2917.9616,-398.2525 2895.5523,-391.36"/>
<polygon fill="#191970" stroke="#191970" points="2896.3154,-387.9376 2885.7375,-388.537 2894.3804,-394.6649 2896.3154,-387.9376"/>
</g>
<!-- Node23 -->
<g id="node14" class="node">
<title>Node23</title>
<g id="a_node14"><a xlink:href="LinkState_8h.html" target="_top" xlink:title="iDynTree/Model/LinkState.h">
<polygon fill="none" stroke="#000000" points="1111.5,-431 1111.5,-450 1260.5,-450 1260.5,-431 1111.5,-431"/>
<text text-anchor="middle" x="1186" y="-438" font-family="FreeSans.ttf" font-size="10.00" fill="#000000">iDynTree/Model/LinkState.h</text>
</a>
</g>
</g>
<!-- Node0&#45;&gt;Node23 -->
<g id="edge114" class="edge">
<title>Node0&#45;&gt;Node23</title>
<path fill="none" stroke="#191970" d="M1134.6179,-671.4927C1127.9658,-642.9961 1111.3026,-556.2887 1137,-492 1142.5662,-478.0746 1153.8885,-465.7656 1164.2482,-456.676"/>
<polygon fill="#191970" stroke="#191970" points="1166.7291,-459.167 1172.2218,-450.1072 1162.2781,-453.7643 1166.7291,-459.167"/>
</g>
<!-- Node24 -->
<g id="node15" class="node">
<title>Node24</title>
<g id="a_node15"><a xlink:href="Transform_8h.html" target="_top" xlink:title="iDynTree/Core/Transform.h">
<polygon fill="none" stroke="#000000" points="1432,-369.5 1432,-388.5 1578,-388.5 1578,-369.5 1432,-369.5"/>
<text text-anchor="middle" x="1505" y="-376.5" font-family="FreeSans.ttf" font-size="10.00" fill="#000000">iDynTree/Core/Transform.h</text>
</a>
</g>
</g>
<!-- Node0&#45;&gt;Node24 -->
<g id="edge61" class="edge">
<title>Node0&#45;&gt;Node24</title>
<path fill="none" stroke="#191970" d="M1147.3559,-671.3892C1173.9041,-646.7481 1246.5556,-579.2961 1307,-523 1353.7124,-479.4935 1359.5007,-461.3137 1412,-425 1430.585,-412.1448 1453.2888,-400.8421 1471.6113,-392.6574"/>
<polygon fill="#191970" stroke="#191970" points="1473.2493,-395.7615 1481.0164,-388.5558 1470.451,-389.3452 1473.2493,-395.7615"/>
</g>
<!-- Node27 -->
<g id="node17" class="node">
<title>Node27</title>
<g id="a_node17"><a xlink:href="Rotation_8h.html" target="_top" xlink:title="iDynTree/Core/Rotation.h">
<polygon fill="none" stroke="#000000" points="1470.5,-241 1470.5,-260 1607.5,-260 1607.5,-241 1470.5,-241"/>
<text text-anchor="middle" x="1539" y="-248" font-family="FreeSans.ttf" font-size="10.00" fill="#000000">iDynTree/Core/Rotation.h</text>
</a>
</g>
</g>
<!-- Node0&#45;&gt;Node27 -->
<g id="edge62" class="edge">
<title>Node0&#45;&gt;Node27</title>
<path fill="none" stroke="#191970" d="M1066.7221,-675.8161C983.3114,-668.8804 849.7597,-655.0812 804,-635 761.7916,-616.4773 724,-615.0938 724,-569 724,-569 724,-569 724,-507.5 724,-417.9345 804.0276,-422.7277 887,-389 906.8997,-380.9109 910.4433,-375.2333 931,-369 1025.8151,-340.2496 1053.628,-351.3082 1151,-333 1271.8781,-310.2721 1412.942,-279.1021 1487.1923,-262.3315"/>
<polygon fill="#191970" stroke="#191970" points="1488.2359,-265.6839 1497.2168,-260.063 1486.6909,-258.8565 1488.2359,-265.6839"/>
</g>
<!-- Node31 -->
<g id="node21" class="node">
<title>Node31</title>
<polygon fill="none" stroke="#bfbfbf" points="974,-56.5 974,-75.5 1034,-75.5 1034,-56.5 974,-56.5"/>
<text text-anchor="middle" x="1004" y="-63.5" font-family="FreeSans.ttf" font-size="10.00" fill="#000000">iostream</text>
</g>
<!-- Node0&#45;&gt;Node31 -->
<g id="edge140" class="edge">
<title>Node0&#45;&gt;Node31</title>
<path fill="none" stroke="#191970" d="M1066.6331,-680.2475C833.172,-677.46 96.6876,-666.2192 57,-635 33.0085,-616.1277 38,-599.5246 38,-569 38,-569 38,-569 38,-183.5 38,-88.673 781.0087,-69.7996 963.7624,-66.5916"/>
<polygon fill="#191970" stroke="#191970" points="963.8235,-70.0912 973.7627,-66.4221 963.7048,-63.0922 963.8235,-70.0912"/>
</g>
<!-- Node32 -->
<g id="node22" class="node">
<title>Node32</title>
<g id="a_node22"><a xlink:href="Twist_8h.html" target="_top" xlink:title="iDynTree/Core/Twist.h">
<polygon fill="none" stroke="#000000" points="218,-308 218,-327 340,-327 340,-308 218,-308"/>
<text text-anchor="middle" x="279" y="-315" font-family="FreeSans.ttf" font-size="10.00" fill="#000000">iDynTree/Core/Twist.h</text>
</a>
</g>
</g>
<!-- Node0&#45;&gt;Node32 -->
<g id="edge60" class="edge">
<title>Node0&#45;&gt;Node32</title>
<path fill="none" stroke="#191970" d="M1066.9336,-678.7547C892.5809,-672.8776 448.6498,-656.0324 385,-635 341.6918,-620.6893 324.1925,-617.0228 299,-579 248.1197,-502.2069 265.1698,-383.4653 274.5576,-337.0432"/>
<polygon fill="#191970" stroke="#191970" points="278.0155,-337.6098 276.6811,-327.0994 271.1698,-336.1479 278.0155,-337.6098"/>
</g>
<!-- Node35 -->
<g id="node24" class="node">
<title>Node35</title>
<g id="a_node24"><a xlink:href="SpatialAcc_8h.html" target="_top" xlink:title="iDynTree/Core/SpatialAcc.h">
<polygon fill="none" stroke="#000000" points="358,-308 358,-327 506,-327 506,-308 358,-308"/>
<text text-anchor="middle" x="432" y="-315" font-family="FreeSans.ttf" font-size="10.00" fill="#000000">iDynTree/Core/SpatialAcc.h</text>
</a>
</g>
</g>
<!-- Node0&#45;&gt;Node35 -->
<g id="edge64" class="edge">
<title>Node0&#45;&gt;Node35</title>
<path fill="none" stroke="#191970" d="M1066.9706,-678.9172C866.2152,-672.0231 303,-645.835 303,-569 303,-569 303,-569 303,-440.5 303,-387.2969 361.1851,-350.0775 399.401,-331.3695"/>
<polygon fill="#191970" stroke="#191970" points="401.0868,-334.4442 408.6391,-327.0136 398.1014,-328.1128 401.0868,-334.4442"/>
</g>
<!-- Node36 -->
<g id="node25" class="node">
<title>Node36</title>
<g id="a_node25"><a xlink:href="Wrench_8h.html" target="_top" xlink:title="iDynTree/Core/Wrench.h">
<polygon fill="none" stroke="#000000" points="766.5,-308 766.5,-327 899.5,-327 899.5,-308 766.5,-308"/>
<text text-anchor="middle" x="833" y="-315" font-family="FreeSans.ttf" font-size="10.00" fill="#000000">iDynTree/Core/Wrench.h</text>
</a>
</g>
</g>
<!-- Node0&#45;&gt;Node36 -->
<g id="edge73" class="edge">
<title>Node0&#45;&gt;Node36</title>
<path fill="none" stroke="#191970" d="M1066.7937,-677.2368C948.5025,-670.3916 719.2489,-654.7666 688,-635 659.0125,-616.6638 648,-603.3001 648,-569 648,-569 648,-569 648,-440.5 648,-407.3799 645.7994,-392.6362 669,-369 684.2087,-353.5057 735.1085,-338.9876 776.2147,-329.3413"/>
<polygon fill="#191970" stroke="#191970" points="777.1952,-332.7073 786.1574,-327.0568 775.6276,-325.8851 777.1952,-332.7073"/>
</g>
<!-- Node39 -->
<g id="node28" class="node">
<title>Node39</title>
<g id="a_node28"><a xlink:href="ClassicalAcc_8h.html" target="_top" xlink:title="iDynTree/Core/ClassicalAcc.h">
<polygon fill="none" stroke="#000000" points="66,-615.5 66,-634.5 224,-634.5 224,-615.5 66,-615.5"/>
<text text-anchor="middle" x="145" y="-622.5" font-family="FreeSans.ttf" font-size="10.00" fill="#000000">iDynTree/Core/ClassicalAcc.h</text>
</a>
</g>
</g>
<!-- Node0&#45;&gt;Node39 -->
<g id="edge54" class="edge">
<title>Node0&#45;&gt;Node39</title>
<path fill="none" stroke="#191970" d="M1066.9729,-678.7524C915.5612,-673.5994 546.4675,-659.4568 238,-635 236.7252,-634.8989 235.4408,-634.7946 234.1486,-634.6873"/>
<polygon fill="#191970" stroke="#191970" points="234.3861,-631.1948 224.1196,-633.8121 233.7774,-638.1683 234.3861,-631.1948"/>
</g>
<!-- Node40 -->
<g id="node29" class="node">
<title>Node40</title>
<g id="a_node29"><a xlink:href="VectorDynSize_8h.html" target="_top" xlink:title="iDynTree/Core/VectorDynSize.h">
<polygon fill="none" stroke="#000000" points="939.5,-369.5 939.5,-388.5 1106.5,-388.5 1106.5,-369.5 939.5,-369.5"/>
<text text-anchor="middle" x="1023" y="-376.5" font-family="FreeSans.ttf" font-size="10.00" fill="#000000">iDynTree/Core/VectorDynSize.h</text>
</a>
</g>
</g>
<!-- Node0&#45;&gt;Node40 -->
<g id="edge57" class="edge">
<title>Node0&#45;&gt;Node40</title>
<path fill="none" stroke="#191970" d="M1066.9053,-674.4857C958.3667,-662.4344 762,-631.9348 762,-569 762,-569 762,-569 762,-507.5 762,-449.5392 811.6544,-451.8902 863,-425 893.25,-409.1578 929.6566,-398.1407 960.0944,-390.8693"/>
<polygon fill="#191970" stroke="#191970" points="961.2129,-394.2033 970.1705,-388.5454 959.6397,-387.3824 961.2129,-394.2033"/>
</g>
<!-- Node41 -->
<g id="node30" class="node">
<title>Node41</title>
<g id="a_node30"><a xlink:href="SpatialInertia_8h.html" target="_top" xlink:title="iDynTree/Core/SpatialInertia.h">
<polygon fill="none" stroke="#000000" points="678,-369.5 678,-388.5 840,-388.5 840,-369.5 678,-369.5"/>
<text text-anchor="middle" x="759" y="-376.5" font-family="FreeSans.ttf" font-size="10.00" fill="#000000">iDynTree/Core/SpatialInertia.h</text>
</a>
</g>
</g>
<!-- Node0&#45;&gt;Node41 -->
<g id="edge65" class="edge">
<title>Node0&#45;&gt;Node41</title>
<path fill="none" stroke="#191970" d="M1066.6406,-677.4618C952.6308,-671.1347 737.4368,-656.4999 710,-635 685.432,-615.7481 686,-600.2125 686,-569 686,-569 686,-569 686,-507.5 686,-469.3133 690.0393,-457.5545 710,-425 716.9816,-413.6136 727.5165,-403.2127 737.0313,-395.1927"/>
<polygon fill="#191970" stroke="#191970" points="739.4017,-397.7783 745.0151,-388.7927 735.0234,-392.3165 739.4017,-397.7783"/>
</g>
<!-- Node45 -->
<g id="node33" class="node">
<title>Node45</title>
<g id="a_node33"><a xlink:href="EigenHelpers_8h.html" target="_top" xlink:title="iDynTree/Core/EigenHelpers.h">
<polygon fill="none" stroke="#000000" points="455.5,-431 455.5,-450 616.5,-450 616.5,-431 455.5,-431"/>
<text text-anchor="middle" x="536" y="-438" font-family="FreeSans.ttf" font-size="10.00" fill="#000000">iDynTree/Core/EigenHelpers.h</text>
</a>
</g>
</g>
<!-- Node0&#45;&gt;Node45 -->
<g id="edge74" class="edge">
<title>Node0&#45;&gt;Node45</title>
<path fill="none" stroke="#191970" d="M1066.96,-678.3391C937.1077,-672.8631 668.9771,-658.8078 634,-635 572.5715,-593.1876 547.7036,-500.9493 539.4641,-460.3467"/>
<polygon fill="#191970" stroke="#191970" points="542.8697,-459.5197 537.5646,-450.3488 535.9927,-460.8264 542.8697,-459.5197"/>
</g>
<!-- Node47 -->
<g id="node35" class="node">
<title>Node47</title>
<g id="a_node35"><a xlink:href="Model_8h.html" target="_top" xlink:title="iDynTree/Model/Model.h">
<polygon fill="none" stroke="#000000" points="1548.5,-498 1548.5,-517 1681.5,-517 1681.5,-498 1548.5,-498"/>
<text text-anchor="middle" x="1615" y="-505" font-family="FreeSans.ttf" font-size="10.00" fill="#000000">iDynTree/Model/Model.h</text>
</a>
</g>
</g>
<!-- Node0&#45;&gt;Node47 -->
<g id="edge84" class="edge">
<title>Node0&#45;&gt;Node47</title>
<path fill="none" stroke="#191970" d="M1204.1652,-671.4513C1240.1466,-664.5776 1284.4584,-653.2158 1321,-635 1369.0815,-611.0315 1367.0032,-583.1377 1415,-559 1453.8142,-539.4803 1500.6925,-526.901 1539.3051,-519.0651"/>
<polygon fill="#191970" stroke="#191970" points="1540.3073,-522.4353 1549.4469,-517.0765 1538.9603,-515.5661 1540.3073,-522.4353"/>
</g>
<!-- Node52 -->
<g id="node40" class="node">
<title>Node52</title>
<g id="a_node40"><a xlink:href="Traversal_8h.html" target="_top" xlink:title="iDynTree/Model/Traversal.h">
<polygon fill="none" stroke="#000000" points="1868,-431 1868,-450 2016,-450 2016,-431 1868,-431"/>
<text text-anchor="middle" x="1942" y="-438" font-family="FreeSans.ttf" font-size="10.00" fill="#000000">iDynTree/Model/Traversal.h</text>
</a>
</g>
</g>
<!-- Node0&#45;&gt;Node52 -->
<g id="edge99" class="edge">
<title>Node0&#45;&gt;Node52</title>
<path fill="none" stroke="#191970" d="M1207.3607,-678.9181C1327.8945,-674.6466 1568.5632,-662.8426 1648,-635 1765.1985,-593.922 1881.3238,-495.7587 1924.4396,-456.8189"/>
<polygon fill="#191970" stroke="#191970" points="1926.8197,-459.3853 1931.8469,-450.0591 1922.1011,-454.2147 1926.8197,-459.3853"/>
</g>
<!-- Node53 -->
<g id="node41" class="node">
<title>Node53</title>
<g id="a_node41"><a xlink:href="FreeFloatingState_8h.html" target="_top" xlink:title="iDynTree/Model/FreeFloating\lState.h">
<polygon fill="none" stroke="#000000" points="936,-492.5 936,-522.5 1090,-522.5 1090,-492.5 936,-492.5"/>
<text text-anchor="start" x="944" y="-510.5" font-family="FreeSans.ttf" font-size="10.00" fill="#000000">iDynTree/Model/FreeFloating</text>
<text text-anchor="middle" x="1013" y="-499.5" font-family="FreeSans.ttf" font-size="10.00" fill="#000000">State.h</text>
</a>
</g>
</g>
<!-- Node0&#45;&gt;Node53 -->
<g id="edge102" class="edge">
<title>Node0&#45;&gt;Node53</title>
<path fill="none" stroke="#191970" d="M1130.1675,-671.4901C1123.4892,-662.1914 1113.0368,-647.629 1104,-635 1078.0939,-598.7959 1048.1095,-556.7589 1029.8555,-531.1525"/>
<polygon fill="#191970" stroke="#191970" points="1032.5684,-528.9285 1023.914,-522.8169 1026.8683,-532.9915 1032.5684,-528.9285"/>
</g>
<!-- Node55 -->
<g id="node43" class="node">
<title>Node55</title>
<g id="a_node43"><a xlink:href="LinkTraversalsCache_8h.html" target="_top" xlink:title="iDynTree/Model/LinkTraversals\lCache.h">
<polygon fill="none" stroke="#000000" points="2072,-425.5 2072,-455.5 2236,-455.5 2236,-425.5 2072,-425.5"/>
<text text-anchor="start" x="2080" y="-443.5" font-family="FreeSans.ttf" font-size="10.00" fill="#000000">iDynTree/Model/LinkTraversals</text>
<text text-anchor="middle" x="2154" y="-432.5" font-family="FreeSans.ttf" font-size="10.00" fill="#000000">Cache.h</text>
</a>
</g>
</g>
<!-- Node0&#45;&gt;Node55 -->
<g id="edge115" class="edge">
<title>Node0&#45;&gt;Node55</title>
<path fill="none" stroke="#191970" d="M1207.2823,-677.786C1333.913,-671.5477 1595.4407,-656.4969 1684,-635 1852.8449,-594.0145 2039.7775,-501.14 2117.2601,-460.346"/>
<polygon fill="#191970" stroke="#191970" points="2118.9571,-463.4079 2126.1581,-455.6363 2115.6824,-457.2211 2118.9571,-463.4079"/>
</g>
<!-- Node56 -->
<g id="node44" class="node">
<title>Node56</title>
<g id="a_node44"><a xlink:href="ForwardKinematics_8h.html" target="_top" xlink:title="iDynTree/Model/ForwardKinematics.h">
<polygon fill="none" stroke="#000000" points="2457.5,-559.5 2457.5,-578.5 2654.5,-578.5 2654.5,-559.5 2457.5,-559.5"/>
<text text-anchor="middle" x="2556" y="-566.5" font-family="FreeSans.ttf" font-size="10.00" fill="#000000">iDynTree/Model/ForwardKinematics.h</text>
</a>
</g>
</g>
<!-- Node0&#45;&gt;Node56 -->
<g id="edge118" class="edge">
<title>Node0&#45;&gt;Node56</title>
<path fill="none" stroke="#191970" d="M1207.3716,-680.5306C1461.6739,-678.5588 2324.3014,-669.3787 2443,-635 2478.4826,-624.7232 2514.4774,-600.8758 2536.0196,-584.8422"/>
<polygon fill="#191970" stroke="#191970" points="2538.2278,-587.56 2544.0616,-578.7159 2533.9859,-581.9916 2538.2278,-587.56"/>
</g>
<!-- Node57 -->
<g id="node45" class="node">
<title>Node57</title>
<g id="a_node45"><a xlink:href="Dynamics_8h.html" target="_top" xlink:title="iDynTree/Model/Dynamics.h">
<polygon fill="none" stroke="#000000" points="1146,-498 1146,-517 1298,-517 1298,-498 1146,-498"/>
<text text-anchor="middle" x="1222" y="-505" font-family="FreeSans.ttf" font-size="10.00" fill="#000000">iDynTree/Model/Dynamics.h</text>
</a>
</g>
</g>
<!-- Node0&#45;&gt;Node57 -->
<g id="edge120" class="edge">
<title>Node0&#45;&gt;Node57</title>
<path fill="none" stroke="#191970" d="M1141.691,-671.4248C1155.2431,-643.7625 1194.6327,-563.3614 1212.7209,-526.4403"/>
<polygon fill="#191970" stroke="#191970" points="1215.9622,-527.7796 1217.2187,-517.2595 1209.676,-524.6999 1215.9622,-527.7796"/>
</g>
<!-- Node58 -->
<g id="node46" class="node">
<title>Node58</title>
<g id="a_node46"><a xlink:href="Jacobians_8h.html" target="_top" xlink:title="iDynTree/Model/Jacobians.h">
<polygon fill="none" stroke="#000000" points="2757,-559.5 2757,-578.5 2907,-578.5 2907,-559.5 2757,-559.5"/>
<text text-anchor="middle" x="2832" y="-566.5" font-family="FreeSans.ttf" font-size="10.00" fill="#000000">iDynTree/Model/Jacobians.h</text>
</a>
</g>
</g>
<!-- Node0&#45;&gt;Node58 -->
<g id="edge125" class="edge">
<title>Node0&#45;&gt;Node58</title>
<path fill="none" stroke="#191970" d="M1207.3869,-680.6735C1492.2704,-679.1137 2551.5009,-670.9299 2697,-635 2738.7313,-624.6948 2782.6673,-600.3148 2808.6833,-584.2465"/>
<polygon fill="#191970" stroke="#191970" points="2810.8235,-587.0348 2817.42,-578.744 2807.0931,-581.1117 2810.8235,-587.0348"/>
</g>
<!-- Node59 -->
<g id="node47" class="node">
<title>Node59</title>
<g id="a_node47"><a xlink:href="ModelLoader_8h.html" target="_top" xlink:title="iDynTree/ModelIO/ModelLoader.h">
<polygon fill="none" stroke="#000000" points="1463,-615.5 1463,-634.5 1639,-634.5 1639,-615.5 1463,-615.5"/>
<text text-anchor="middle" x="1551" y="-622.5" font-family="FreeSans.ttf" font-size="10.00" fill="#000000">iDynTree/ModelIO/ModelLoader.h</text>
</a>
</g>
</g>
<!-- Node0&#45;&gt;Node59 -->
<g id="edge127" class="edge">
<title>Node0&#45;&gt;Node59</title>
<path fill="none" stroke="#191970" d="M1207.2295,-671.5004C1280.0877,-661.6451 1393.8631,-646.2552 1470.3555,-635.9084"/>
<polygon fill="#191970" stroke="#191970" points="1470.9855,-639.3552 1480.426,-634.5462 1470.0471,-632.4184 1470.9855,-639.3552"/>
</g>
<!-- Node62 -->
<g id="node50" class="node">
<title>Node62</title>
<polygon fill="none" stroke="#bfbfbf" points="3180.5,-615.5 3180.5,-634.5 3235.5,-634.5 3235.5,-615.5 3180.5,-615.5"/>
<text text-anchor="middle" x="3208" y="-622.5" font-family="FreeSans.ttf" font-size="10.00" fill="#000000">fstream</text>
</g>
<!-- Node0&#45;&gt;Node62 -->
<g id="edge141" class="edge">
<title>Node0&#45;&gt;Node62</title>
<path fill="none" stroke="#191970" d="M1207.0346,-680.2899C1541.5698,-676.7797 2968.7759,-660.4246 3166,-635 3167.2963,-634.8329 3168.6109,-634.6422 3169.9352,-634.4318"/>
<polygon fill="#191970" stroke="#191970" points="3170.9632,-637.7994 3180.1379,-632.5008 3169.6615,-630.9215 3170.9632,-637.7994"/>
</g>
<!-- Node2 -->
<g id="node3" class="node">
<title>Node2</title>
<polygon fill="none" stroke="#bfbfbf" points="1889,-56.5 1889,-75.5 1933,-75.5 1933,-56.5 1889,-56.5"/>
<text text-anchor="middle" x="1911" y="-63.5" font-family="FreeSans.ttf" font-size="10.00" fill="#000000">string</text>
</g>
<!-- Node1&#45;&gt;Node2 -->
<g id="edge2" class="edge">
<title>Node1&#45;&gt;Node2</title>
<path fill="none" stroke="#191970" d="M2741.3522,-497.9546C2818.4816,-486.0196 2940.878,-465.95 2960,-456 3003.2127,-433.5145 3038,-427.7128 3038,-379 3038,-379 3038,-379 3038,-183.5 3038,-126.9023 2126.9909,-77.0956 1943.1168,-67.6192"/>
<polygon fill="#191970" stroke="#191970" points="1943.173,-64.1176 1933.0069,-67.1012 1942.8147,-71.1084 1943.173,-64.1176"/>
</g>
<!-- Node3 -->
<g id="node4" class="node">
<title>Node3</title>
<polygon fill="none" stroke="#bfbfbf" points="1596.5,-369.5 1596.5,-388.5 1643.5,-388.5 1643.5,-369.5 1596.5,-369.5"/>
<text text-anchor="middle" x="1620" y="-376.5" font-family="FreeSans.ttf" font-size="10.00" fill="#000000">vector</text>
</g>
<!-- Node1&#45;&gt;Node3 -->
<g id="edge3" class="edge">
<title>Node1&#45;&gt;Node3</title>
<path fill="none" stroke="#191970" d="M2590.229,-503.0319C2431.9419,-494.55 2110.6234,-475.2382 2063,-456 2042.7908,-447.8362 2045.0864,-433.4615 2025,-425 1958.1608,-396.8436 1738.6966,-384.2851 1653.8791,-380.3978"/>
<polygon fill="#191970" stroke="#191970" points="1653.9037,-376.8955 1643.7576,-379.9461 1653.5915,-383.8886 1653.9037,-376.8955"/>
</g>
<!-- Node4 -->
<g id="node5" class="node">
<title>Node4</title>
<g id="a_node5"><a xlink:href="VectorFixSize_8h.html" target="_top" xlink:title="iDynTree/Core/VectorFixSize.h">
<polygon fill="none" stroke="#ff0000" points="1028.5,-112.5 1028.5,-131.5 1189.5,-131.5 1189.5,-112.5 1028.5,-112.5"/>
<text text-anchor="middle" x="1109" y="-119.5" font-family="FreeSans.ttf" font-size="10.00" fill="#000000">iDynTree/Core/VectorFixSize.h</text>
</a>
</g>
</g>
<!-- Node1&#45;&gt;Node4 -->
<g id="edge4" class="edge">
<title>Node1&#45;&gt;Node4</title>
<path fill="none" stroke="#191970" d="M2672.8834,-497.8879C2663.1043,-480.4891 2640.0341,-443.8357 2610,-425 2520.8693,-369.1023 2484.0673,-384.4541 2380,-369 2097.3184,-327.0215 2020.696,-374.8818 1738,-333 1613.1336,-314.5009 1581.925,-305.3933 1462,-266 1354.8789,-230.8126 1332.5943,-210.1085 1228,-168 1199.9534,-156.7088 1167.9835,-144.3805 1144.248,-135.3313"/>
<polygon fill="#191970" stroke="#191970" points="1145.2062,-131.9511 1134.6152,-131.6664 1142.717,-138.4936 1145.2062,-131.9511"/>
</g>
<!-- Node1&#45;&gt;Node5 -->
<g id="edge15" class="edge">
<title>Node1&#45;&gt;Node5</title>
<path fill="none" stroke="#191970" d="M2676.1823,-497.8551C2672.4577,-480.7318 2662.3528,-444.9511 2640,-425 2580.6523,-372.0288 2546.0697,-392.27 2470,-369 2155.9794,-272.94 2076.447,-252.0466 1759,-168 1628.8351,-133.5378 1474.6028,-96.4288 1396.6001,-77.9215"/>
<polygon fill="#191970" stroke="#191970" points="1397.1013,-74.4434 1386.5637,-75.5431 1395.4871,-81.2548 1397.1013,-74.4434"/>
</g>
<!-- Node1&#45;&gt;Node19 -->
<g id="edge13" class="edge">
<title>Node1&#45;&gt;Node19</title>
<path fill="none" stroke="#191970" d="M2736.8934,-497.9932C2812.9483,-485.4358 2936.4227,-463.9786 2943,-456 2951.764,-445.3689 2950.6535,-436.4565 2943,-425 2932.4407,-409.1939 2915.3344,-398.8119 2897.6799,-391.9953"/>
<polygon fill="#191970" stroke="#191970" points="2898.4484,-388.5564 2887.8536,-388.5633 2896.1402,-395.165 2898.4484,-388.5564"/>
</g>
<!-- Node20 -->
<g id="node12" class="node">
<title>Node20</title>
<g id="a_node12"><a xlink:href="Indices_8h.html" target="_top" xlink:title="iDynTree/Model/Indices.h">
<polygon fill="none" stroke="#ff0000" points="2233,-369.5 2233,-388.5 2371,-388.5 2371,-369.5 2233,-369.5"/>
<text text-anchor="middle" x="2302" y="-376.5" font-family="FreeSans.ttf" font-size="10.00" fill="#000000">iDynTree/Model/Indices.h</text>
</a>
</g>
</g>
<!-- Node1&#45;&gt;Node20 -->
<g id="edge16" class="edge">
<title>Node1&#45;&gt;Node20</title>
<path fill="none" stroke="#191970" d="M2667.5032,-497.8418C2645.8306,-478.1016 2596.4548,-434.2135 2576,-425 2542.116,-409.7375 2449.7523,-396.1826 2381.5846,-387.8093"/>
<polygon fill="#191970" stroke="#191970" points="2381.6375,-384.2901 2371.2889,-386.5612 2380.795,-391.2393 2381.6375,-384.2901"/>
</g>
<!-- Node22 -->
<g id="node13" class="node">
<title>Node22</title>
<g id="a_node13"><a xlink:href="FreeFloatingMatrices_8h.html" target="_top" xlink:title="iDynTree/Model/FreeFloating\lMatrices.h">
<polygon fill="none" stroke="#000000" points="2780,-425.5 2780,-455.5 2934,-455.5 2934,-425.5 2780,-425.5"/>
<text text-anchor="start" x="2788" y="-443.5" font-family="FreeSans.ttf" font-size="10.00" fill="#000000">iDynTree/Model/FreeFloating</text>
<text text-anchor="middle" x="2857" y="-432.5" font-family="FreeSans.ttf" font-size="10.00" fill="#000000">Matrices.h</text>
</a>
</g>
</g>
<!-- Node1&#45;&gt;Node22 -->
<g id="edge18" class="edge">
<title>Node1&#45;&gt;Node22</title>
<path fill="none" stroke="#191970" d="M2703.6463,-497.9005C2730.5697,-487.8231 2773.5789,-471.7247 2807.2073,-459.1375"/>
<polygon fill="#191970" stroke="#191970" points="2808.7287,-462.3052 2816.8672,-455.5218 2806.2748,-455.7494 2808.7287,-462.3052"/>
</g>
<!-- Node1&#45;&gt;Node23 -->
<g id="edge20" class="edge">
<title>Node1&#45;&gt;Node23</title>
<path fill="none" stroke="#191970" d="M2590.3961,-504.235C2390.0328,-496.6718 1882.9166,-476.9879 1459,-456 1395.9712,-452.8795 1324.7886,-448.8203 1270.9152,-445.6387"/>
<polygon fill="#191970" stroke="#191970" points="1270.9109,-442.1325 1260.7214,-445.035 1270.497,-449.1202 1270.9109,-442.1325"/>
</g>
<!-- Node4&#45;&gt;Node2 -->
<g id="edge11" class="edge">
<title>Node4&#45;&gt;Node2</title>
<path fill="none" stroke="#191970" d="M1189.5708,-116.3741C1362.3304,-104.3111 1762.1538,-76.3933 1878.6192,-68.261"/>
<polygon fill="#191970" stroke="#191970" points="1878.9509,-71.7465 1888.6828,-67.5583 1878.4633,-64.7635 1878.9509,-71.7465"/>
</g>
<!-- Node4&#45;&gt;Node5 -->
<g id="edge5" class="edge">
<title>Node4&#45;&gt;Node5</title>
<path fill="none" stroke="#191970" d="M1149.4725,-112.4369C1189.948,-102.8731 1252.2867,-88.1432 1295.8703,-77.845"/>
<polygon fill="#191970" stroke="#191970" points="1296.7673,-81.2295 1305.6945,-75.5237 1295.1576,-74.4171 1296.7673,-81.2295"/>
</g>
<!-- Node8 -->
<g id="node9" class="node">
<title>Node8</title>
<g id="a_node9"><a xlink:href="Span_8h.html" target="_top" xlink:title="iDynTree/Core/Span.h">
<polygon fill="none" stroke="#ff0000" points="1052.5,-56.5 1052.5,-75.5 1173.5,-75.5 1173.5,-56.5 1052.5,-56.5"/>
<text text-anchor="middle" x="1113" y="-63.5" font-family="FreeSans.ttf" font-size="10.00" fill="#000000">iDynTree/Core/Span.h</text>
</a>
</g>
</g>
<!-- Node4&#45;&gt;Node8 -->
<g id="edge8" class="edge">
<title>Node4&#45;&gt;Node8</title>
<path fill="none" stroke="#191970" d="M1109.6967,-112.2455C1110.2187,-104.9382 1110.9504,-94.6944 1111.5925,-85.7046"/>
<polygon fill="#191970" stroke="#191970" points="1115.0898,-85.8667 1112.3112,-75.6427 1108.1076,-85.3679 1115.0898,-85.8667"/>
</g>
<!-- Node4&#45;&gt;Node9 -->
<g id="edge12" class="edge">
<title>Node4&#45;&gt;Node9</title>
<path fill="none" stroke="#191970" d="M1058.7239,-112.4726C1021.8578,-104.3453 976.3382,-91.5246 965,-76 947.035,-51.4018 985.6165,-31.8349 1017.2561,-20.5785"/>
<polygon fill="#191970" stroke="#191970" points="1018.4313,-23.8759 1026.7822,-17.3556 1016.1879,-17.2451 1018.4313,-23.8759"/>
</g>
<!-- Node6 -->
<g id="node7" class="node">
<title>Node6</title>
<polygon fill="none" stroke="#bfbfbf" points="1145.5,-.5 1145.5,-19.5 1198.5,-19.5 1198.5,-.5 1145.5,-.5"/>
<text text-anchor="middle" x="1172" y="-7.5" font-family="FreeSans.ttf" font-size="10.00" fill="#000000">cstddef</text>
</g>
<!-- Node5&#45;&gt;Node6 -->
<g id="edge6" class="edge">
<title>Node5&#45;&gt;Node6</title>
<path fill="none" stroke="#191970" d="M1316.0883,-56.3733C1286.278,-46.7791 1240.4574,-32.0323 1208.5172,-21.7527"/>
<polygon fill="#191970" stroke="#191970" points="1209.264,-18.3163 1198.6726,-18.5843 1207.1194,-24.9797 1209.264,-18.3163"/>
</g>
<!-- Node7 -->
<g id="node8" class="node">
<title>Node7</title>
<polygon fill="none" stroke="#bfbfbf" points="1306,-.5 1306,-19.5 1386,-19.5 1386,-.5 1306,-.5"/>
<text text-anchor="middle" x="1346" y="-7.5" font-family="FreeSans.ttf" font-size="10.00" fill="#000000">CoreExport.h</text>
</g>
<!-- Node5&#45;&gt;Node7 -->
<g id="edge7" class="edge">
<title>Node5&#45;&gt;Node7</title>
<path fill="none" stroke="#191970" d="M1346,-56.2455C1346,-48.9382 1346,-38.6944 1346,-29.7046"/>
<polygon fill="#191970" stroke="#191970" points="1349.5001,-29.6426 1346,-19.6427 1342.5001,-29.6427 1349.5001,-29.6426"/>
</g>
<!-- Node8&#45;&gt;Node6 -->
<g id="edge10" class="edge">
<title>Node8&#45;&gt;Node6</title>
<path fill="none" stroke="#191970" d="M1123.277,-56.2455C1131.8218,-48.1352 1144.1778,-36.4075 1154.3085,-26.7919"/>
<polygon fill="#191970" stroke="#191970" points="1156.9972,-29.0655 1161.8408,-19.6427 1152.1782,-23.9884 1156.9972,-29.0655"/>
</g>
<!-- Node8&#45;&gt;Node9 -->
<g id="edge9" class="edge">
<title>Node8&#45;&gt;Node9</title>
<path fill="none" stroke="#191970" d="M1102.5488,-56.2455C1093.7731,-48.0549 1081.0446,-36.1749 1070.686,-26.5069"/>
<polygon fill="#191970" stroke="#191970" points="1073.0301,-23.9072 1063.3314,-19.6427 1068.2539,-29.0246 1073.0301,-23.9072"/>
</g>
<!-- Node19&#45;&gt;Node2 -->
<g id="edge14" class="edge">
<title>Node19&#45;&gt;Node2</title>
<path fill="none" stroke="#191970" d="M2804.8807,-369.3824C2762.6586,-352.4692 2686,-313.1368 2686,-250.5 2686,-250.5 2686,-250.5 2686,-183.5 2686,-107.1608 2090.6004,-74.3744 1943.5403,-67.4407"/>
<polygon fill="#191970" stroke="#191970" points="1943.5099,-63.9356 1933.3584,-66.9684 1943.1855,-70.9281 1943.5099,-63.9356"/>
</g>
<!-- Node20&#45;&gt;Node2 -->
<g id="edge17" class="edge">
<title>Node20&#45;&gt;Node2</title>
<path fill="none" stroke="#191970" d="M2280.1169,-369.4788C2243.3126,-351.8129 2173,-310.2451 2173,-250.5 2173,-250.5 2173,-250.5 2173,-183.5 2173,-133.7123 2013.4937,-90.0848 1943.3932,-73.3153"/>
<polygon fill="#191970" stroke="#191970" points="1943.874,-69.8328 1933.338,-70.9478 1942.2697,-76.6465 1943.874,-69.8328"/>
</g>
<!-- Node22&#45;&gt;Node19 -->
<g id="edge19" class="edge">
<title>Node22&#45;&gt;Node19</title>
<path fill="none" stroke="#191970" d="M2850.8202,-425.2977C2847.4946,-417.1166 2843.3589,-406.943 2839.8121,-398.2179"/>
<polygon fill="#191970" stroke="#191970" points="2843.011,-396.7927 2836.0028,-388.8469 2836.5263,-399.4288 2843.011,-396.7927"/>
</g>
<!-- Node23&#45;&gt;Node3 -->
<g id="edge53" class="edge">
<title>Node23&#45;&gt;Node3</title>
<path fill="none" stroke="#191970" d="M1237.1029,-430.9659C1249.1791,-428.8608 1262.0259,-426.7416 1274,-425 1409.3225,-405.3183 1448.0812,-416.8479 1586.2181,-388.814"/>
<polygon fill="#191970" stroke="#191970" points="1587.2518,-392.1746 1596.3384,-386.7263 1585.8375,-385.3189 1587.2518,-392.1746"/>
</g>
<!-- Node23&#45;&gt;Node20 -->
<g id="edge52" class="edge">
<title>Node23&#45;&gt;Node20</title>
<path fill="none" stroke="#191970" d="M1260.7344,-436.2124C1315.5988,-433.0755 1391.9307,-428.7339 1459,-425 1739.9306,-409.3601 2073.5546,-391.3103 2222.8821,-383.259"/>
<polygon fill="#191970" stroke="#191970" points="2223.0836,-386.7533 2232.8806,-382.72 2222.7067,-379.7634 2223.0836,-386.7533"/>
</g>
<!-- Node23&#45;&gt;Node24 -->
<g id="edge21" class="edge">
<title>Node23&#45;&gt;Node24</title>
<path fill="none" stroke="#191970" d="M1235.4937,-430.9581C1292.1541,-420.0345 1384.9255,-402.1492 1445.4799,-390.4749"/>
<polygon fill="#191970" stroke="#191970" points="1446.496,-393.8435 1455.6526,-388.5137 1445.1708,-386.9701 1446.496,-393.8435"/>
</g>
<!-- Node23&#45;&gt;Node32 -->
<g id="edge39" class="edge">
<title>Node23&#45;&gt;Node32</title>
<path fill="none" stroke="#191970" d="M1116.6471,-430.9819C1099.767,-428.8406 1081.7508,-426.7012 1065,-425 852.6032,-403.4295 796.2362,-426.1272 586,-389 553.7159,-383.2987 546.812,-376.9222 515,-369 441.7446,-350.757 422.7428,-349.1605 349,-333 343.5286,-331.801 337.8179,-330.5445 332.1209,-329.2879"/>
<polygon fill="#191970" stroke="#191970" points="332.4556,-325.7776 321.936,-327.0382 330.9457,-332.6128 332.4556,-325.7776"/>
</g>
<!-- Node23&#45;&gt;Node35 -->
<g id="edge43" class="edge">
<title>Node23&#45;&gt;Node35</title>
<path fill="none" stroke="#191970" d="M1115.0317,-430.966C1098.6164,-428.8838 1081.2107,-426.7745 1065,-425 889.3237,-405.7693 842.484,-422.6941 669,-389 595.6959,-374.7628 512.722,-346.9149 466.9722,-330.4902"/>
<polygon fill="#191970" stroke="#191970" points="468.1155,-327.1819 457.5213,-327.0691 465.7329,-333.7639 468.1155,-327.1819"/>
</g>
<!-- Node23&#45;&gt;Node36 -->
<g id="edge45" class="edge">
<title>Node23&#45;&gt;Node36</title>
<path fill="none" stroke="#191970" d="M1179.5625,-430.7839C1168.5602,-415.0293 1144.5397,-384.1497 1116,-369 1097.7424,-359.3084 984.7282,-340.6114 907.1607,-328.6113"/>
<polygon fill="#191970" stroke="#191970" points="907.3553,-325.1 896.939,-327.0368 906.2896,-332.0184 907.3553,-325.1"/>
</g>
<!-- Node38 -->
<g id="node27" class="node">
<title>Node38</title>
<g id="a_node27"><a xlink:href="ArticulatedBodyInertia_8h.html" target="_top" xlink:title="iDynTree/Core/Articulated\lBodyInertia.h">
<polygon fill="none" stroke="#000000" points="1432.5,-168.5 1432.5,-198.5 1573.5,-198.5 1573.5,-168.5 1432.5,-168.5"/>
<text text-anchor="start" x="1440.5" y="-186.5" font-family="FreeSans.ttf" font-size="10.00" fill="#000000">iDynTree/Core/Articulated</text>
<text text-anchor="middle" x="1503" y="-175.5" font-family="FreeSans.ttf" font-size="10.00" fill="#000000">BodyInertia.h</text>
</a>
</g>
</g>
<!-- Node23&#45;&gt;Node38 -->
<g id="edge49" class="edge">
<title>Node23&#45;&gt;Node38</title>
<path fill="none" stroke="#191970" d="M1201.5851,-430.8291C1230.2732,-412.7977 1292.9889,-372.3002 1342,-333 1394.3975,-290.9844 1450.8817,-236.041 1481.0429,-205.83"/>
<polygon fill="#191970" stroke="#191970" points="1483.5577,-208.2648 1488.1253,-198.7051 1478.5931,-203.3298 1483.5577,-208.2648"/>
</g>
<!-- Node24&#45;&gt;Node2 -->
<g id="edge38" class="edge">
<title>Node24&#45;&gt;Node2</title>
<path fill="none" stroke="#191970" d="M1578.3194,-370.1581C1581.5909,-369.7662 1584.8295,-369.3787 1588,-369 1655.5474,-360.9314 1845.0367,-382.2158 1892,-333 1957.7666,-264.0791 1930.3892,-134.3298 1916.8696,-85.3647"/>
<polygon fill="#191970" stroke="#191970" points="1920.2176,-84.3428 1914.0862,-75.7024 1913.4912,-86.2805 1920.2176,-84.3428"/>
</g>
<!-- Node25 -->
<g id="node16" class="node">
<title>Node25</title>
<g id="a_node16"><a xlink:href="Position_8h.html" target="_top" xlink:title="iDynTree/Core/Position.h">
<polygon fill="none" stroke="#ff0000" points="1747,-308 1747,-327 1883,-327 1883,-308 1747,-308"/>
<text text-anchor="middle" x="1815" y="-315" font-family="FreeSans.ttf" font-size="10.00" fill="#000000">iDynTree/Core/Position.h</text>
</a>
</g>
</g>
<!-- Node24&#45;&gt;Node25 -->
<g id="edge22" class="edge">
<title>Node24&#45;&gt;Node25</title>
<path fill="none" stroke="#191970" d="M1553.0974,-369.4581C1608.1592,-358.5345 1698.3132,-340.6492 1757.1591,-328.9749"/>
<polygon fill="#191970" stroke="#191970" points="1757.9171,-332.3928 1767.0449,-327.0137 1756.5549,-325.5266 1757.9171,-332.3928"/>
</g>
<!-- Node24&#45;&gt;Node27 -->
<g id="edge36" class="edge">
<title>Node24&#45;&gt;Node27</title>
<path fill="none" stroke="#191970" d="M1507.5555,-369.3416C1513.1181,-348.3184 1526.4161,-298.0598 1533.813,-270.1038"/>
<polygon fill="#191970" stroke="#191970" points="1537.2404,-270.8331 1536.4148,-260.2705 1530.4733,-269.0425 1537.2404,-270.8331"/>
</g>
<!-- Node30 -->
<g id="node20" class="node">
<title>Node30</title>
<g id="a_node20"><a xlink:href="MatrixFixSize_8h.html" target="_top" xlink:title="iDynTree/Core/MatrixFixSize.h">
<polygon fill="none" stroke="#ff0000" points="1278.5,-112.5 1278.5,-131.5 1439.5,-131.5 1439.5,-112.5 1278.5,-112.5"/>
<text text-anchor="middle" x="1359" y="-119.5" font-family="FreeSans.ttf" font-size="10.00" fill="#000000">iDynTree/Core/MatrixFixSize.h</text>
</a>
</g>
</g>
<!-- Node24&#45;&gt;Node30 -->
<g id="edge37" class="edge">
<title>Node24&#45;&gt;Node30</title>
<path fill="none" stroke="#191970" d="M1499.4549,-369.2391C1477.7736,-331.0741 1398.5119,-191.5518 1369.6245,-140.702"/>
<polygon fill="#191970" stroke="#191970" points="1372.5334,-138.7367 1364.5506,-131.7706 1366.447,-142.1944 1372.5334,-138.7367"/>
</g>
<!-- Node25&#45;&gt;Node2 -->
<g id="edge35" class="edge">
<title>Node25&#45;&gt;Node2</title>
<path fill="none" stroke="#191970" d="M1818.6461,-307.948C1832.8429,-270.7554 1884.5859,-135.1994 1903.7749,-84.9283"/>
<polygon fill="#191970" stroke="#191970" points="1907.054,-86.1522 1907.3503,-75.5615 1900.5142,-83.6559 1907.054,-86.1522"/>
</g>
<!-- Node25&#45;&gt;Node27 -->
<g id="edge23" class="edge">
<title>Node25&#45;&gt;Node27</title>
<path fill="none" stroke="#191970" d="M1775.749,-307.9717C1726.5343,-296.0246 1642.132,-275.5357 1588.5256,-262.5225"/>
<polygon fill="#191970" stroke="#191970" points="1589.1059,-259.0618 1578.5624,-260.1039 1587.4545,-265.8642 1589.1059,-259.0618"/>
</g>
<!-- Node27&#45;&gt;Node2 -->
<g id="edge24" class="edge">
<title>Node27&#45;&gt;Node2</title>
<path fill="none" stroke="#191970" d="M1607.7801,-244.8706C1653.2091,-238.7196 1712.6804,-225.8616 1759,-199 1804.702,-172.4965 1799.5244,-145.9535 1840,-112 1854.0304,-100.2304 1871.2367,-89.0133 1885.1968,-80.6026"/>
<polygon fill="#191970" stroke="#191970" points="1887.0032,-83.6006 1893.8357,-75.5033 1883.4449,-77.5725 1887.0032,-83.6006"/>
</g>
<!-- Node27&#45;&gt;Node4 -->
<g id="edge34" class="edge">
<title>Node27&#45;&gt;Node4</title>
<path fill="none" stroke="#191970" d="M1517.6686,-240.9225C1474.2669,-221.5428 1376.8488,-178.6181 1342,-168 1290.8315,-152.4094 1231.6874,-140.8071 1185.7916,-133.1547"/>
<polygon fill="#191970" stroke="#191970" points="1186.3458,-129.6989 1175.9111,-131.5339 1185.2126,-136.6066 1186.3458,-129.6989"/>
</g>
<!-- Node28 -->
<g id="node18" class="node">
<title>Node28</title>
<g id="a_node18"><a xlink:href="GeomVector3_8h.html" target="_top" xlink:title="iDynTree/Core/GeomVector3.h">
<polygon fill="none" stroke="#000000" points="1027.5,-174 1027.5,-193 1190.5,-193 1190.5,-174 1027.5,-174"/>
<text text-anchor="middle" x="1109" y="-181" font-family="FreeSans.ttf" font-size="10.00" fill="#000000">iDynTree/Core/GeomVector3.h</text>
</a>
</g>
</g>
<!-- Node27&#45;&gt;Node28 -->
<g id="edge25" class="edge">
<title>Node27&#45;&gt;Node28</title>
<path fill="none" stroke="#191970" d="M1477.8481,-240.9717C1399.3879,-228.7465 1263.5242,-207.577 1180.4057,-194.626"/>
<polygon fill="#191970" stroke="#191970" points="1180.7083,-191.131 1170.2886,-193.0496 1179.6305,-198.0475 1180.7083,-191.131"/>
</g>
<!-- Node29 -->
<g id="node19" class="node">
<title>Node29</title>
<g id="a_node19"><a xlink:href="RotationRaw_8h.html" target="_top" xlink:title="iDynTree/Core/RotationRaw.h">
<polygon fill="none" stroke="#000000" points="1592,-174 1592,-193 1750,-193 1750,-174 1592,-174"/>
<text text-anchor="middle" x="1671" y="-181" font-family="FreeSans.ttf" font-size="10.00" fill="#000000">iDynTree/Core/RotationRaw.h</text>
</a>
</g>
</g>
<!-- Node27&#45;&gt;Node29 -->
<g id="edge27" class="edge">
<title>Node27&#45;&gt;Node29</title>
<path fill="none" stroke="#191970" d="M1557.9124,-240.9005C1580.163,-229.6067 1617.3122,-210.7506 1642.9259,-197.7497"/>
<polygon fill="#191970" stroke="#191970" points="1644.7898,-200.7288 1652.1227,-193.0817 1641.6215,-194.4868 1644.7898,-200.7288"/>
</g>
<!-- Node28&#45;&gt;Node4 -->
<g id="edge26" class="edge">
<title>Node28&#45;&gt;Node4</title>
<path fill="none" stroke="#191970" d="M1109,-173.8906C1109,-165.3657 1109,-152.6392 1109,-141.9235"/>
<polygon fill="#191970" stroke="#191970" points="1112.5001,-141.7448 1109,-131.7449 1105.5001,-141.7449 1112.5001,-141.7448"/>
</g>
<!-- Node29&#45;&gt;Node2 -->
<g id="edge33" class="edge">
<title>Node29&#45;&gt;Node2</title>
<path fill="none" stroke="#191970" d="M1681.041,-173.8154C1697.2529,-158.6587 1730.75,-129.283 1764,-112 1801.2495,-92.6381 1848.0949,-79.7242 1878.7586,-72.6313"/>
<polygon fill="#191970" stroke="#191970" points="1879.8936,-75.964 1888.8876,-70.3642 1878.3646,-69.133 1879.8936,-75.964"/>
</g>
<!-- Node29&#45;&gt;Node30 -->
<g id="edge28" class="edge">
<title>Node29&#45;&gt;Node30</title>
<path fill="none" stroke="#191970" d="M1622.5923,-173.9581C1567.1753,-163.0345 1476.4397,-145.1492 1417.214,-133.4749"/>
<polygon fill="#191970" stroke="#191970" points="1417.7526,-130.0138 1407.2645,-131.5137 1416.3988,-136.8816 1417.7526,-130.0138"/>
</g>
<!-- Node30&#45;&gt;Node2 -->
<g id="edge31" class="edge">
<title>Node30&#45;&gt;Node2</title>
<path fill="none" stroke="#191970" d="M1439.5609,-113.8272C1563.0992,-101.2943 1793.9287,-77.8768 1878.703,-69.2765"/>
<polygon fill="#191970" stroke="#191970" points="1879.1634,-72.7479 1888.7591,-68.2563 1878.4568,-65.7836 1879.1634,-72.7479"/>
</g>
<!-- Node30&#45;&gt;Node5 -->
<g id="edge29" class="edge">
<title>Node30&#45;&gt;Node5</title>
<path fill="none" stroke="#191970" d="M1356.7356,-112.2455C1355.0206,-104.8579 1352.6088,-94.4689 1350.5056,-85.4087"/>
<polygon fill="#191970" stroke="#191970" points="1353.9092,-84.5922 1348.2385,-75.6427 1347.0905,-86.1751 1353.9092,-84.5922"/>
</g>
<!-- Node30&#45;&gt;Node9 -->
<g id="edge30" class="edge">
<title>Node30&#45;&gt;Node9</title>
<path fill="none" stroke="#191970" d="M1333.9894,-112.4532C1299.9148,-99.4851 1236.9637,-75.6637 1183,-56 1151.2862,-44.4439 1115.074,-31.6643 1088.9374,-22.5139"/>
<polygon fill="#191970" stroke="#191970" points="1090.0388,-19.1913 1079.4439,-19.1947 1087.7285,-25.799 1090.0388,-19.1913"/>
</g>
<!-- Node30&#45;&gt;Node31 -->
<g id="edge32" class="edge">
<title>Node30&#45;&gt;Node31</title>
<path fill="none" stroke="#191970" d="M1278.3507,-112.4795C1214.4851,-104.3977 1123.1614,-91.6346 1044,-76 1043.8991,-75.9801 1043.798,-75.96 1043.6968,-75.9399"/>
<polygon fill="#191970" stroke="#191970" points="1044.582,-72.5505 1034.0684,-73.8594 1043.1036,-79.3926 1044.582,-72.5505"/>
</g>
<!-- Node33 -->
<g id="node23" class="node">
<title>Node33</title>
<g id="a_node23"><a xlink:href="SpatialMotionVector_8h.html" target="_top" xlink:title="iDynTree/Core/SpatialMotion\lVector.h">
<polygon fill="none" stroke="#ff0000" points="354.5,-235.5 354.5,-265.5 509.5,-265.5 509.5,-235.5 354.5,-235.5"/>
<text text-anchor="start" x="362.5" y="-253.5" font-family="FreeSans.ttf" font-size="10.00" fill="#000000">iDynTree/Core/SpatialMotion</text>
<text text-anchor="middle" x="432" y="-242.5" font-family="FreeSans.ttf" font-size="10.00" fill="#000000">Vector.h</text>
</a>
</g>
</g>
<!-- Node32&#45;&gt;Node33 -->
<g id="edge40" class="edge">
<title>Node32&#45;&gt;Node33</title>
<path fill="none" stroke="#191970" d="M300.9212,-307.9005C323.6376,-297.9528 359.7515,-282.1382 388.3255,-269.6254"/>
<polygon fill="#191970" stroke="#191970" points="389.9403,-272.7392 397.6966,-265.5218 387.1324,-266.3271 389.9403,-272.7392"/>
</g>
<!-- Node33&#45;&gt;Node4 -->
<g id="edge41" class="edge">
<title>Node33&#45;&gt;Node4</title>
<path fill="none" stroke="#191970" d="M509.6605,-235.7594C645.9707,-209.8867 925.4664,-156.8361 1048.5407,-133.4757"/>
<polygon fill="#191970" stroke="#191970" points="1049.3711,-136.8806 1058.543,-131.5771 1048.0657,-130.0034 1049.3711,-136.8806"/>
</g>
<!-- Node33&#45;&gt;Node28 -->
<g id="edge42" class="edge">
<title>Node33&#45;&gt;Node28</title>
<path fill="none" stroke="#191970" d="M509.6605,-242.8142C635.3278,-230.3775 882.6943,-205.8966 1016.9944,-192.6054"/>
<polygon fill="#191970" stroke="#191970" points="1017.6497,-196.0578 1027.2564,-191.5898 1016.9603,-189.0918 1017.6497,-196.0578"/>
</g>
<!-- Node35&#45;&gt;Node33 -->
<g id="edge44" class="edge">
<title>Node35&#45;&gt;Node33</title>
<path fill="none" stroke="#191970" d="M432,-307.9005C432,-299.5099 432,-286.9451 432,-275.7085"/>
<polygon fill="#191970" stroke="#191970" points="435.5001,-275.5217 432,-265.5218 428.5001,-275.5218 435.5001,-275.5217"/>
</g>
<!-- Node37 -->
<g id="node26" class="node">
<title>Node37</title>
<g id="a_node26"><a xlink:href="SpatialForceVector_8h.html" target="_top" xlink:title="iDynTree/Core/SpatialForce\lVector.h">
<polygon fill="none" stroke="#ff0000" points="759,-235.5 759,-265.5 907,-265.5 907,-235.5 759,-235.5"/>
<text text-anchor="start" x="767" y="-253.5" font-family="FreeSans.ttf" font-size="10.00" fill="#000000">iDynTree/Core/SpatialForce</text>
<text text-anchor="middle" x="833" y="-242.5" font-family="FreeSans.ttf" font-size="10.00" fill="#000000">Vector.h</text>
</a>
</g>
</g>
<!-- Node36&#45;&gt;Node37 -->
<g id="edge46" class="edge">
<title>Node36&#45;&gt;Node37</title>
<path fill="none" stroke="#191970" d="M833,-307.9005C833,-299.5099 833,-286.9451 833,-275.7085"/>
<polygon fill="#191970" stroke="#191970" points="836.5001,-275.5217 833,-265.5218 829.5001,-275.5218 836.5001,-275.5217"/>
</g>
<!-- Node37&#45;&gt;Node4 -->
<g id="edge47" class="edge">
<title>Node37&#45;&gt;Node4</title>
<path fill="none" stroke="#191970" d="M852.4807,-235.2155C876.3992,-217.0645 918.7583,-186.8781 959,-168 990.35,-153.2931 1027.5547,-141.849 1057.068,-134.054"/>
<polygon fill="#191970" stroke="#191970" points="1057.955,-137.4398 1066.7625,-131.5509 1056.205,-130.6621 1057.955,-137.4398"/>
</g>
<!-- Node37&#45;&gt;Node28 -->
<g id="edge48" class="edge">
<title>Node37&#45;&gt;Node28</title>
<path fill="none" stroke="#191970" d="M894.9398,-235.4639C944.839,-223.3507 1014.033,-206.5536 1060.0949,-195.3719"/>
<polygon fill="#191970" stroke="#191970" points="1060.9518,-198.7656 1069.8439,-193.0053 1059.3004,-191.9632 1060.9518,-198.7656"/>
</g>
<!-- Node38&#45;&gt;Node2 -->
<g id="edge51" class="edge">
<title>Node38&#45;&gt;Node2</title>
<path fill="none" stroke="#191970" d="M1547.7884,-168.4731C1593.2176,-153.434 1665.6651,-130.0057 1729,-112 1781.0711,-97.1965 1842.1916,-82.2375 1878.6966,-73.5569"/>
<polygon fill="#191970" stroke="#191970" points="1879.8302,-76.8854 1888.7551,-71.176 1878.2178,-70.0736 1879.8302,-76.8854"/>
</g>
<!-- Node38&#45;&gt;Node30 -->
<g id="edge50" class="edge">
<title>Node38&#45;&gt;Node30</title>
<path fill="none" stroke="#191970" d="M1467.7736,-168.4554C1444.1684,-158.374 1413.3546,-145.2139 1390.5524,-135.4755"/>
<polygon fill="#191970" stroke="#191970" points="1391.886,-132.2393 1381.3149,-131.5303 1389.1366,-138.6767 1391.886,-132.2393"/>
</g>
<!-- Node39&#45;&gt;Node4 -->
<g id="edge55" class="edge">
<title>Node39&#45;&gt;Node4</title>
<path fill="none" stroke="#191970" d="M134.5204,-615.4496C115.2178,-596.7559 76,-553.1571 76,-507.5 76,-507.5 76,-507.5 76,-250.5 76,-155.9709 765.9966,-130.124 1018.1426,-123.8347"/>
<polygon fill="#191970" stroke="#191970" points="1018.4612,-127.328 1028.3725,-123.5843 1018.2898,-120.3301 1018.4612,-127.328"/>
</g>
<!-- Node40&#45;&gt;Node2 -->
<g id="edge59" class="edge">
<title>Node40&#45;&gt;Node2</title>
<path fill="none" stroke="#191970" d="M1091.1444,-369.4581C1256.7165,-345.2706 1675.0083,-277.8477 1790,-199 1837.1863,-166.6452 1878.8287,-112.4465 1898.6789,-84.266"/>
<polygon fill="#191970" stroke="#191970" points="1901.7414,-85.9911 1904.5518,-75.7758 1895.9845,-82.0088 1901.7414,-85.9911"/>
</g>
<!-- Node40&#45;&gt;Node8 -->
<g id="edge58" class="edge">
<title>Node40&#45;&gt;Node8</title>
<path fill="none" stroke="#191970" d="M1066.4832,-369.3976C1086.0751,-362.6689 1107.3795,-351.4539 1119,-333 1155.8671,-274.4535 1046.7979,-267.5382 1019,-199 1014.3873,-187.627 1013.2454,-122.6631 1020,-112 1029.7499,-96.6084 1046.3137,-86.1984 1062.7848,-79.2363"/>
<polygon fill="#191970" stroke="#191970" points="1064.3469,-82.3853 1072.4198,-75.5239 1061.8301,-75.8533 1064.3469,-82.3853"/>
</g>
<!-- Node41&#45;&gt;Node4 -->
<g id="edge67" class="edge">
<title>Node41&#45;&gt;Node4</title>
<path fill="none" stroke="#191970" d="M822.896,-369.45C851.3423,-362.797 883.9873,-351.63 909,-333 979.6839,-280.3532 953.1853,-226.6202 1019,-168 1034.5891,-154.115 1055.126,-143.2009 1072.6453,-135.495"/>
<polygon fill="#191970" stroke="#191970" points="1074.1612,-138.6544 1082.0171,-131.5456 1071.4427,-132.2038 1074.1612,-138.6544"/>
</g>
<!-- Node41&#45;&gt;Node32 -->
<g id="edge68" class="edge">
<title>Node41&#45;&gt;Node32</title>
<path fill="none" stroke="#191970" d="M677.7434,-372.4464C594.7685,-365.1543 462.4036,-351.8623 349,-333 342.3178,-331.8886 335.3132,-330.5492 328.4253,-329.129"/>
<polygon fill="#191970" stroke="#191970" points="328.9781,-325.6683 318.4683,-327.0076 327.5194,-332.5147 328.9781,-325.6683"/>
</g>
<!-- Node41&#45;&gt;Node35 -->
<g id="edge71" class="edge">
<title>Node41&#45;&gt;Node35</title>
<path fill="none" stroke="#191970" d="M708.265,-369.4581C650.0637,-358.512 554.6927,-340.5752 492.6285,-328.9026"/>
<polygon fill="#191970" stroke="#191970" points="493.0596,-325.4224 482.5849,-327.0137 491.7657,-332.3018 493.0596,-325.4224"/>
</g>
<!-- Node41&#45;&gt;Node36 -->
<g id="edge72" class="edge">
<title>Node41&#45;&gt;Node36</title>
<path fill="none" stroke="#191970" d="M770.5625,-369.3906C782.0079,-359.8786 799.7473,-345.1357 813.397,-333.7917"/>
<polygon fill="#191970" stroke="#191970" points="815.8208,-336.3283 821.2745,-327.2449 811.3467,-330.9447 815.8208,-336.3283"/>
</g>
<!-- Node42 -->
<g id="node31" class="node">
<title>Node42</title>
<g id="a_node31"><a xlink:href="SpatialInertiaRaw_8h.html" target="_top" xlink:title="iDynTree/Core/SpatialInertia\lRaw.h">
<polygon fill="none" stroke="#ff0000" points="956.5,-302.5 956.5,-332.5 1109.5,-332.5 1109.5,-302.5 956.5,-302.5"/>
<text text-anchor="start" x="964.5" y="-320.5" font-family="FreeSans.ttf" font-size="10.00" fill="#000000">iDynTree/Core/SpatialInertia</text>
<text text-anchor="middle" x="1033" y="-309.5" font-family="FreeSans.ttf" font-size="10.00" fill="#000000">Raw.h</text>
</a>
</g>
</g>
<!-- Node41&#45;&gt;Node42 -->
<g id="edge66" class="edge">
<title>Node41&#45;&gt;Node42</title>
<path fill="none" stroke="#191970" d="M801.5119,-369.4581C842.7312,-360.2063 906.2,-345.9606 956.2617,-334.7241"/>
<polygon fill="#191970" stroke="#191970" points="957.094,-338.1245 966.0847,-332.5193 955.5609,-331.2944 957.094,-338.1245"/>
</g>
<!-- Node44 -->
<g id="node32" class="node">
<title>Node44</title>
<g id="a_node32"><a xlink:href="SpatialMomentum_8h.html" target="_top" xlink:title="iDynTree/Core/SpatialMomentum.h">
<polygon fill="none" stroke="#000000" points="562,-308 562,-327 748,-327 748,-308 562,-308"/>
<text text-anchor="middle" x="655" y="-315" font-family="FreeSans.ttf" font-size="10.00" fill="#000000">iDynTree/Core/SpatialMomentum.h</text>
</a>
</g>
</g>
<!-- Node41&#45;&gt;Node44 -->
<g id="edge69" class="edge">
<title>Node41&#45;&gt;Node44</title>
<path fill="none" stroke="#191970" d="M742.75,-369.3906C725.8831,-359.4165 699.2901,-343.6908 679.7965,-332.1633"/>
<polygon fill="#191970" stroke="#191970" points="681.5251,-329.1194 671.1359,-327.0419 677.962,-335.1447 681.5251,-329.1194"/>
</g>
<!-- Node44&#45;&gt;Node37 -->
<g id="edge70" class="edge">
<title>Node44&#45;&gt;Node37</title>
<path fill="none" stroke="#191970" d="M680.5031,-307.9005C707.276,-297.8231 750.0449,-281.7247 783.4855,-269.1375"/>
<polygon fill="#191970" stroke="#191970" points="784.9654,-272.3202 793.0914,-265.5218 782.4995,-265.7689 784.9654,-272.3202"/>
</g>
<!-- Node45&#45;&gt;Node4 -->
<g id="edge77" class="edge">
<title>Node45&#45;&gt;Node4</title>
<path fill="none" stroke="#191970" d="M455.3368,-437.0312C336.4859,-428.6288 134.8393,-399.9244 198,-302 286.5019,-164.7867 805.2938,-132.0198 1018.0419,-124.3188"/>
<polygon fill="#191970" stroke="#191970" points="1018.3742,-127.8093 1028.2451,-123.9602 1018.1283,-120.8137 1018.3742,-127.8093"/>
</g>
<!-- Node45&#45;&gt;Node5 -->
<g id="edge83" class="edge">
<title>Node45&#45;&gt;Node5</title>
<path fill="none" stroke="#191970" d="M616.5201,-432.2916C680.3885,-424.5805 771.4917,-410.894 849,-389 871.6362,-382.6059 875.3587,-375.376 898,-369 993.791,-342.0243 1035.0258,-386.4036 1119,-333 1219.3808,-269.1626 1183.5964,-193.7675 1270,-112 1283.4163,-99.3035 1300.9135,-88.4188 1315.7367,-80.4294"/>
<polygon fill="#191970" stroke="#191970" points="1317.7603,-83.3224 1325.0218,-75.6075 1314.5341,-77.1102 1317.7603,-83.3224"/>
</g>
<!-- Node45&#45;&gt;Node19 -->
<g id="edge78" class="edge">
<title>Node45&#45;&gt;Node19</title>
<path fill="none" stroke="#191970" d="M616.7655,-436.5771C689.7154,-433.14 800.0271,-428.206 896,-425 1080.7146,-418.8296 2376.4219,-389.3221 2738.3153,-381.1196"/>
<polygon fill="#191970" stroke="#191970" points="2738.5732,-384.6148 2748.4913,-380.889 2738.4145,-377.6166 2738.5732,-384.6148"/>
</g>
<!-- Node45&#45;&gt;Node24 -->
<g id="edge82" class="edge">
<title>Node45&#45;&gt;Node24</title>
<path fill="none" stroke="#191970" d="M616.5353,-435.3886C798.0566,-423.8679 1237.6135,-395.9704 1421.7121,-384.2861"/>
<polygon fill="#191970" stroke="#191970" points="1422.1179,-387.7675 1431.8761,-383.641 1421.6745,-380.7815 1422.1179,-387.7675"/>
</g>
<!-- Node45&#45;&gt;Node30 -->
<g id="edge79" class="edge">
<title>Node45&#45;&gt;Node30</title>
<path fill="none" stroke="#191970" d="M455.3368,-437.0312C336.4859,-428.6288 134.8393,-399.9244 198,-302 237.1366,-241.3225 276.3752,-254.1265 346,-235 519.0103,-187.4726 1053.5346,-144.3382 1268.2976,-128.4581"/>
<polygon fill="#191970" stroke="#191970" points="1268.5642,-131.948 1278.28,-127.7226 1268.0498,-124.9669 1268.5642,-131.948"/>
</g>
<!-- Node45&#45;&gt;Node33 -->
<g id="edge80" class="edge">
<title>Node45&#45;&gt;Node33</title>
<path fill="none" stroke="#191970" d="M514.6088,-430.9604C481.0835,-416.2594 413.9014,-387.8017 355,-369 291.3326,-348.677 250.2144,-385.6112 209,-333 200.5035,-322.154 200.4235,-312.7829 209,-302 226.0561,-280.556 289.4572,-267.2701 344.3176,-259.5761"/>
<polygon fill="#191970" stroke="#191970" points="345.0091,-263.0145 354.4488,-258.2038 344.0695,-256.0778 345.0091,-263.0145"/>
</g>
<!-- Node45&#45;&gt;Node37 -->
<g id="edge81" class="edge">
<title>Node45&#45;&gt;Node37</title>
<path fill="none" stroke="#191970" d="M533.7762,-430.871C528.6258,-405.8718 518.7821,-338.3265 553,-302 579.2582,-274.1237 676.3221,-261.1253 748.8504,-255.2073"/>
<polygon fill="#191970" stroke="#191970" points="749.216,-258.6895 758.9118,-254.4184 748.6687,-251.7109 749.216,-258.6895"/>
</g>
<!-- Node45&#45;&gt;Node40 -->
<g id="edge76" class="edge">
<title>Node45&#45;&gt;Node40</title>
<path fill="none" stroke="#191970" d="M611.2928,-430.9918C699.4325,-419.8612 845.0725,-401.4693 937.4206,-389.8073"/>
<polygon fill="#191970" stroke="#191970" points="938.0931,-393.2502 947.5758,-388.5248 937.216,-386.3054 938.0931,-393.2502"/>
</g>
<!-- Node46 -->
<g id="node34" class="node">
<title>Node46</title>
<polygon fill="none" stroke="#bfbfbf" points="428.5,-369.5 428.5,-388.5 505.5,-388.5 505.5,-369.5 428.5,-369.5"/>
<text text-anchor="middle" x="467" y="-376.5" font-family="FreeSans.ttf" font-size="10.00" fill="#000000">Eigen/Dense</text>
</g>
<!-- Node45&#45;&gt;Node46 -->
<g id="edge75" class="edge">
<title>Node45&#45;&gt;Node46</title>
<path fill="none" stroke="#191970" d="M525.2188,-430.8906C514.6474,-421.4683 498.3175,-406.9134 485.6397,-395.6137"/>
<polygon fill="#191970" stroke="#191970" points="487.7272,-392.7858 477.9333,-388.7449 483.0696,-398.0114 487.7272,-392.7858"/>
</g>
<!-- Node47&#45;&gt;Node3 -->
<g id="edge98" class="edge">
<title>Node47&#45;&gt;Node3</title>
<path fill="none" stroke="#191970" d="M1615.3758,-497.8416C1616.1902,-476.9114 1618.1321,-427.004 1619.2227,-398.9762"/>
<polygon fill="#191970" stroke="#191970" points="1622.7283,-398.899 1619.6198,-388.7705 1615.7336,-398.6268 1622.7283,-398.899"/>
</g>
<!-- Node47&#45;&gt;Node20 -->
<g id="edge91" class="edge">
<title>Node47&#45;&gt;Node20</title>
<path fill="none" stroke="#191970" d="M1681.7067,-505.0322C1852.6611,-498.386 2294.5844,-479.0466 2316,-456 2330.458,-440.4409 2322.039,-415.1728 2313.2908,-397.8543"/>
<polygon fill="#191970" stroke="#191970" points="2316.1517,-395.7924 2308.2723,-388.7096 2310.015,-399.1601 2316.1517,-395.7924"/>
</g>
<!-- Node47&#45;&gt;Node24 -->
<g id="edge90" class="edge">
<title>Node47&#45;&gt;Node24</title>
<path fill="none" stroke="#191970" d="M1566.5666,-497.9639C1525.706,-488.8189 1471.8666,-473.7973 1459,-456 1444.5218,-435.9736 1465.6707,-411.1865 1483.8396,-395.2368"/>
<polygon fill="#191970" stroke="#191970" points="1486.3917,-397.6664 1491.8391,-388.5792 1481.9138,-392.2859 1486.3917,-397.6664"/>
</g>
<!-- Node48 -->
<g id="node36" class="node">
<title>Node48</title>
<g id="a_node36"><a xlink:href="IJoint_8h.html" target="_top" xlink:title="iDynTree/Model/IJoint.h">
<polygon fill="none" stroke="#000000" points="2368,-431 2368,-450 2496,-450 2496,-431 2368,-431"/>
<text text-anchor="middle" x="2432" y="-438" font-family="FreeSans.ttf" font-size="10.00" fill="#000000">iDynTree/Model/IJoint.h</text>
</a>
</g>
</g>
<!-- Node47&#45;&gt;Node48 -->
<g id="edge85" class="edge">
<title>Node47&#45;&gt;Node48</title>
<path fill="none" stroke="#191970" d="M1681.5284,-505.6852C1811.3494,-501.5211 2107.3336,-488.9687 2354,-456 2362.1724,-454.9077 2370.7765,-453.4815 2379.1662,-451.9367"/>
<polygon fill="#191970" stroke="#191970" points="2380.0856,-455.3244 2389.25,-450.008 2378.7705,-448.449 2380.0856,-455.3244"/>
</g>
<!-- Node49 -->
<g id="node37" class="node">
<title>Node49</title>
<g id="a_node37"><a xlink:href="Link_8h.html" target="_top" xlink:title="iDynTree/Model/Link.h">
<polygon fill="none" stroke="#000000" points="1468,-431 1468,-450 1592,-450 1592,-431 1468,-431"/>
<text text-anchor="middle" x="1530" y="-438" font-family="FreeSans.ttf" font-size="10.00" fill="#000000">iDynTree/Model/Link.h</text>
</a>
</g>
</g>
<!-- Node47&#45;&gt;Node49 -->
<g id="edge87" class="edge">
<title>Node47&#45;&gt;Node49</title>
<path fill="none" stroke="#191970" d="M1602.8216,-497.9005C1589.0616,-487.0544 1566.4535,-469.2339 1550.0738,-456.3229"/>
<polygon fill="#191970" stroke="#191970" points="1552.1761,-453.5234 1542.1558,-450.0817 1547.8427,-459.0209 1552.1761,-453.5234"/>
</g>
<!-- Node50 -->
<g id="node38" class="node">
<title>Node50</title>
<g id="a_node38"><a xlink:href="SolidShapes_8h.html" target="_top" xlink:title="iDynTree/Model/SolidShapes.h">
<polygon fill="none" stroke="#000000" points="1648.5,-431 1648.5,-450 1811.5,-450 1811.5,-431 1648.5,-431"/>
<text text-anchor="middle" x="1730" y="-438" font-family="FreeSans.ttf" font-size="10.00" fill="#000000">iDynTree/Model/SolidShapes.h</text>
</a>
</g>
</g>
<!-- Node47&#45;&gt;Node50 -->
<g id="edge92" class="edge">
<title>Node47&#45;&gt;Node50</title>
<path fill="none" stroke="#191970" d="M1631.4767,-497.9005C1650.6055,-486.7559 1682.3733,-468.2477 1704.6516,-455.2682"/>
<polygon fill="#191970" stroke="#191970" points="1706.6753,-458.1399 1713.5539,-450.0817 1703.1514,-452.0916 1706.6753,-458.1399"/>
</g>
<!-- Node51 -->
<g id="node39" class="node">
<title>Node51</title>
<polygon fill="none" stroke="#bfbfbf" points="2034.5,-369.5 2034.5,-388.5 2083.5,-388.5 2083.5,-369.5 2034.5,-369.5"/>
<text text-anchor="middle" x="2059" y="-376.5" font-family="FreeSans.ttf" font-size="10.00" fill="#000000">cstdlib</text>
</g>
<!-- Node47&#45;&gt;Node51 -->
<g id="edge97" class="edge">
<title>Node47&#45;&gt;Node51</title>
<path fill="none" stroke="#191970" d="M1681.6121,-498.4735C1723.2782,-491.0125 1777.1681,-477.9702 1821,-456 1840.4852,-446.2333 1839.3943,-434.5224 1859,-425 1924.9547,-392.966 1948.7012,-406.1078 2020,-389 2021.4444,-388.6534 2022.9176,-388.2955 2024.4051,-387.9305"/>
<polygon fill="#191970" stroke="#191970" points="2025.4187,-391.2849 2034.2712,-385.4638 2023.7208,-384.4939 2025.4187,-391.2849"/>
</g>
<!-- Node48&#45;&gt;Node20 -->
<g id="edge86" class="edge">
<title>Node48&#45;&gt;Node20</title>
<path fill="none" stroke="#191970" d="M2411.6875,-430.8906C2390.1269,-420.6908 2355.8522,-404.4763 2331.3556,-392.8875"/>
<polygon fill="#191970" stroke="#191970" points="2332.7061,-389.6545 2322.1699,-388.5419 2329.7126,-395.9822 2332.7061,-389.6545"/>
</g>
<!-- Node49&#45;&gt;Node20 -->
<g id="edge89" class="edge">
<title>Node49&#45;&gt;Node20</title>
<path fill="none" stroke="#191970" d="M1592.1515,-430.9616C1607.7469,-428.7834 1624.4639,-426.6323 1640,-425 1849.7934,-402.958 2098.142,-388.9144 2222.5681,-382.7037"/>
<polygon fill="#191970" stroke="#191970" points="2222.9499,-386.1892 2232.7644,-382.1985 2222.6034,-379.1978 2222.9499,-386.1892"/>
</g>
<!-- Node49&#45;&gt;Node41 -->
<g id="edge88" class="edge">
<title>Node49&#45;&gt;Node41</title>
<path fill="none" stroke="#191970" d="M1467.8844,-435.5453C1332.2596,-424.7269 1009.0981,-398.9495 850.2789,-386.281"/>
<polygon fill="#191970" stroke="#191970" points="850.3058,-382.7721 840.0591,-385.4658 849.7491,-389.75 850.3058,-382.7721"/>
</g>
<!-- Node50&#45;&gt;Node2 -->
<g id="edge94" class="edge">
<title>Node50&#45;&gt;Node2</title>
<path fill="none" stroke="#191970" d="M1772.2189,-430.9438C1849.5347,-412.2118 2006,-368.0579 2006,-317.5 2006,-317.5 2006,-317.5 2006,-183.5 2006,-138.762 1963.839,-101.4849 1935.6909,-81.5828"/>
<polygon fill="#191970" stroke="#191970" points="1937.3512,-78.479 1927.1155,-75.7441 1933.4116,-84.2652 1937.3512,-78.479"/>
</g>
<!-- Node50&#45;&gt;Node3 -->
<g id="edge95" class="edge">
<title>Node50&#45;&gt;Node3</title>
<path fill="none" stroke="#191970" d="M1712.8125,-430.8906C1694.8918,-420.8713 1666.5905,-405.0483 1645.9477,-393.5071"/>
<polygon fill="#191970" stroke="#191970" points="1647.5033,-390.367 1637.0668,-388.5419 1644.0872,-396.4769 1647.5033,-390.367"/>
</g>
<!-- Node50&#45;&gt;Node24 -->
<g id="edge96" class="edge">
<title>Node50&#45;&gt;Node24</title>
<path fill="none" stroke="#191970" d="M1694.8438,-430.8906C1655.7111,-420.1944 1592.379,-402.8836 1549.7418,-391.2294"/>
<polygon fill="#191970" stroke="#191970" points="1550.4784,-387.8024 1539.9094,-388.5419 1548.6327,-394.5547 1550.4784,-387.8024"/>
</g>
<!-- Node50&#45;&gt;Node51 -->
<g id="edge93" class="edge">
<title>Node50&#45;&gt;Node51</title>
<path fill="none" stroke="#191970" d="M1786.5109,-430.9851C1857.8336,-418.8856 1976.459,-398.4343 2020,-389 2021.4517,-388.6855 2022.931,-388.3542 2024.4235,-388.0113"/>
<polygon fill="#191970" stroke="#191970" points="2025.407,-391.3746 2034.309,-385.6296 2023.7674,-384.5693 2025.407,-391.3746"/>
</g>
<!-- Node52&#45;&gt;Node3 -->
<g id="edge101" class="edge">
<title>Node52&#45;&gt;Node3</title>
<path fill="none" stroke="#191970" d="M1892.0408,-430.9581C1825.6881,-418.2851 1710.2748,-396.2419 1653.4985,-385.398"/>
<polygon fill="#191970" stroke="#191970" points="1654.0836,-381.9466 1643.6045,-383.5083 1652.7703,-388.8223 1654.0836,-381.9466"/>
</g>
<!-- Node52&#45;&gt;Node20 -->
<g id="edge100" class="edge">
<title>Node52&#45;&gt;Node20</title>
<path fill="none" stroke="#191970" d="M1997.855,-430.9581C2062.1941,-419.9668 2167.7921,-401.9272 2236.0965,-390.2585"/>
<polygon fill="#191970" stroke="#191970" points="2237.0424,-393.6477 2246.3102,-388.5137 2235.8636,-386.7477 2237.0424,-393.6477"/>
</g>
<!-- Node53&#45;&gt;Node3 -->
<g id="edge113" class="edge">
<title>Node53&#45;&gt;Node3</title>
<path fill="none" stroke="#191970" d="M1090.0216,-495.6293C1141.5154,-486.8257 1210.4782,-473.3562 1270,-456 1306.6071,-445.3256 1313.152,-434.8108 1350,-425 1449.838,-398.4179 1481.1936,-411.6448 1586.2561,-388.8625"/>
<polygon fill="#191970" stroke="#191970" points="1587.3162,-392.2123 1596.3157,-386.6213 1585.7938,-385.3798 1587.3162,-392.2123"/>
</g>
<!-- Node53&#45;&gt;Node20 -->
<g id="edge106" class="edge">
<title>Node53&#45;&gt;Node20</title>
<path fill="none" stroke="#191970" d="M1090.2795,-496.727C1105.7284,-494.8877 1121.86,-493.1897 1137,-492 1259.7975,-482.3508 2135.9157,-513.2097 2245,-456 2257.4539,-449.4685 2278.3257,-417.9684 2291.0605,-397.3357"/>
<polygon fill="#191970" stroke="#191970" points="2294.0763,-399.1125 2296.2795,-388.7493 2288.0945,-395.4767 2294.0763,-399.1125"/>
</g>
<!-- Node53&#45;&gt;Node23 -->
<g id="edge107" class="edge">
<title>Node53&#45;&gt;Node23</title>
<path fill="none" stroke="#191970" d="M1051.8246,-492.4639C1081.8561,-480.8332 1123.0376,-464.8843 1151.8282,-453.7342"/>
<polygon fill="#191970" stroke="#191970" points="1153.3954,-456.8806 1161.4565,-450.0053 1150.8674,-450.353 1153.3954,-456.8806"/>
</g>
<!-- Node53&#45;&gt;Node24 -->
<g id="edge103" class="edge">
<title>Node53&#45;&gt;Node24</title>
<path fill="none" stroke="#191970" d="M1028.6288,-492.1824C1051.9781,-469.4528 1094.1771,-429.0244 1103,-425 1131.2773,-412.1019 1312.5769,-395.0532 1421.8135,-385.7567"/>
<polygon fill="#191970" stroke="#191970" points="1422.1575,-389.2401 1431.8266,-384.909 1421.567,-382.2651 1422.1575,-389.2401"/>
</g>
<!-- Node53&#45;&gt;Node32 -->
<g id="edge104" class="edge">
<title>Node53&#45;&gt;Node32</title>
<path fill="none" stroke="#191970" d="M935.7681,-506.0769C802.0598,-502.6895 533.4661,-491.5517 447,-456 380.5313,-428.6705 320.1287,-365.5429 293.4438,-334.8639"/>
<polygon fill="#191970" stroke="#191970" points="295.9913,-332.4575 286.8344,-327.1281 290.6693,-337.0046 295.9913,-332.4575"/>
</g>
<!-- Node53&#45;&gt;Node40 -->
<g id="edge105" class="edge">
<title>Node53&#45;&gt;Node40</title>
<path fill="none" stroke="#191970" d="M958.4226,-492.4792C918.4405,-478.6007 874.5923,-455.5227 896,-425 905.1737,-411.9204 940.5588,-399.7328 971.6551,-391.193"/>
<polygon fill="#191970" stroke="#191970" points="972.8009,-394.5099 981.5619,-388.552 970.9978,-387.7461 972.8009,-394.5099"/>
</g>
<!-- Node54 -->
<g id="node42" class="node">
<title>Node54</title>
<g id="a_node42"><a xlink:href="JointState_8h.html" target="_top" xlink:title="iDynTree/Model/JointState.h">
<polygon fill="none" stroke="#000000" points="904.5,-431 904.5,-450 1055.5,-450 1055.5,-431 904.5,-431"/>
<text text-anchor="middle" x="980" y="-438" font-family="FreeSans.ttf" font-size="10.00" fill="#000000">iDynTree/Model/JointState.h</text>
</a>
</g>
</g>
<!-- Node53&#45;&gt;Node54 -->
<g id="edge108" class="edge">
<title>Node53&#45;&gt;Node54</title>
<path fill="none" stroke="#191970" d="M1005.5118,-492.2967C1000.6697,-482.4658 994.3341,-469.6026 989.188,-459.1545"/>
<polygon fill="#191970" stroke="#191970" points="992.2645,-457.4794 984.7062,-450.055 985.9849,-460.5724 992.2645,-457.4794"/>
</g>
<!-- Node54&#45;&gt;Node3 -->
<g id="edge112" class="edge">
<title>Node54&#45;&gt;Node3</title>
<path fill="none" stroke="#191970" d="M1050.5021,-430.9871C1067.6611,-428.8456 1085.9743,-426.7048 1103,-425 1314.3832,-403.8338 1373.1742,-427.7705 1586.4186,-388.6904"/>
<polygon fill="#191970" stroke="#191970" points="1587.1689,-392.111 1596.3615,-386.8434 1585.8904,-385.2287 1587.1689,-392.111"/>
</g>
<!-- Node54&#45;&gt;Node4 -->
<g id="edge109" class="edge">
<title>Node54&#45;&gt;Node4</title>
<path fill="none" stroke="#191970" d="M1022.5649,-430.9375C1095.3116,-413.6143 1238.4079,-374.929 1266,-333 1300.7056,-280.2612 1273.1395,-241.9022 1200,-168 1185.7109,-153.5619 1165.9479,-142.825 1148.4893,-135.3721"/>
<polygon fill="#191970" stroke="#191970" points="1149.6595,-132.07 1139.0766,-131.5668 1147.0358,-138.5597 1149.6595,-132.07"/>
</g>
<!-- Node54&#45;&gt;Node37 -->
<g id="edge111" class="edge">
<title>Node54&#45;&gt;Node37</title>
<path fill="none" stroke="#191970" d="M1018.3405,-430.9929C1054.2492,-421.2468 1104.1188,-405.2556 1116,-389 1138.8302,-357.7642 1143.8154,-331.6831 1119,-302 1093.696,-271.7325 992.5693,-259.226 917.7061,-254.076"/>
<polygon fill="#191970" stroke="#191970" points="917.5347,-250.5574 907.3275,-253.3971 917.0777,-257.5425 917.5347,-250.5574"/>
</g>
<!-- Node54&#45;&gt;Node40 -->
<g id="edge110" class="edge">
<title>Node54&#45;&gt;Node40</title>
<path fill="none" stroke="#191970" d="M986.7188,-430.8906C992.993,-421.917 1002.5223,-408.2879 1010.2404,-397.2491"/>
<polygon fill="#191970" stroke="#191970" points="1013.3247,-398.9459 1016.1865,-388.7449 1007.5879,-394.9348 1013.3247,-398.9459"/>
</g>
<!-- Node55&#45;&gt;Node3 -->
<g id="edge116" class="edge">
<title>Node55&#45;&gt;Node3</title>
<path fill="none" stroke="#191970" d="M2071.8251,-426.925C2067.1516,-426.2487 2062.5184,-425.6016 2058,-425 1907.7441,-404.9955 1727.5327,-388.3875 1653.8727,-381.9125"/>
<polygon fill="#191970" stroke="#191970" points="1654.0611,-378.4157 1643.7942,-381.0315 1653.4514,-385.3891 1654.0611,-378.4157"/>
</g>
<!-- Node55&#45;&gt;Node20 -->
<g id="edge117" class="edge">
<title>Node55&#45;&gt;Node20</title>
<path fill="none" stroke="#191970" d="M2190.2049,-425.4554C2214.4658,-415.374 2246.1356,-402.2139 2269.5712,-392.4755"/>
<polygon fill="#191970" stroke="#191970" points="2271.1739,-395.5997 2279.0653,-388.5303 2268.4877,-389.1356 2271.1739,-395.5997"/>
</g>
<!-- Node56&#45;&gt;Node20 -->
<g id="edge119" class="edge">
<title>Node56&#45;&gt;Node20</title>
<path fill="none" stroke="#191970" d="M2558.1868,-559.3816C2563.3969,-533.7406 2573.5998,-463.1124 2538,-425 2516.9226,-402.435 2441.3908,-390.5881 2381.3817,-384.6073"/>
<polygon fill="#191970" stroke="#191970" points="2381.4241,-381.0955 2371.1363,-383.6273 2380.7575,-388.0637 2381.4241,-381.0955"/>
</g>
<!-- Node57&#45;&gt;Node19 -->
<g id="edge121" class="edge">
<title>Node57&#45;&gt;Node19</title>
<path fill="none" stroke="#191970" d="M1298.1286,-503.5449C1362.5427,-500.257 1457.3039,-495.5578 1540,-492 1968.7906,-473.5524 2079.676,-513.456 2505,-456 2609.2998,-441.9104 2729.0385,-409.4243 2790.6257,-391.478"/>
<polygon fill="#191970" stroke="#191970" points="2791.7484,-394.7962 2800.358,-388.6216 2789.7771,-388.0795 2791.7484,-394.7962"/>
</g>
<!-- Node57&#45;&gt;Node20 -->
<g id="edge122" class="edge">
<title>Node57&#45;&gt;Node20</title>
<path fill="none" stroke="#191970" d="M1298.3697,-503.7755C1540.938,-491.9457 2278,-456 2278,-456 2295.331,-442.5857 2300.4411,-416.7918 2301.7955,-398.77"/>
<polygon fill="#191970" stroke="#191970" points="2305.2942,-398.8752 2302.2292,-388.7334 2298.3007,-398.5729 2305.2942,-398.8752"/>
</g>
<!-- Node57&#45;&gt;Node23 -->
<g id="edge123" class="edge">
<title>Node57&#45;&gt;Node23</title>
<path fill="none" stroke="#191970" d="M1216.8421,-497.9005C1211.4421,-487.8505 1202.8245,-471.8122 1196.0694,-459.2403"/>
<polygon fill="#191970" stroke="#191970" points="1198.9647,-457.234 1191.1484,-450.0817 1192.7984,-460.5472 1198.9647,-457.234"/>
</g>
<!-- Node57&#45;&gt;Node54 -->
<g id="edge124" class="edge">
<title>Node57&#45;&gt;Node54</title>
<path fill="none" stroke="#191970" d="M1187.5843,-497.9717C1144.7911,-486.124 1071.656,-465.8758 1024.6028,-452.8487"/>
<polygon fill="#191970" stroke="#191970" points="1025.2602,-449.3991 1014.6888,-450.1039 1023.3923,-456.1453 1025.2602,-449.3991"/>
</g>
<!-- Node58&#45;&gt;Node20 -->
<g id="edge126" class="edge">
<title>Node58&#45;&gt;Node20</title>
<path fill="none" stroke="#191970" d="M2827.166,-559.388C2818.6631,-543.3608 2799.5775,-511.0605 2775,-492 2712.4557,-443.4953 2686.3443,-445.8815 2610,-425 2533.801,-404.1582 2444.2475,-392.1224 2381.4076,-385.63"/>
<polygon fill="#191970" stroke="#191970" points="2381.4689,-382.1185 2371.168,-384.5967 2380.766,-389.0831 2381.4689,-382.1185"/>
</g>
<!-- Node59&#45;&gt;Node2 -->
<g id="edge137" class="edge">
<title>Node59&#45;&gt;Node2</title>
<path fill="none" stroke="#191970" d="M1639.1868,-618.8834C1906.3594,-600.2086 2695.606,-543.9335 2810,-523 2957.0605,-496.0887 3114,-528.5025 3114,-379 3114,-379 3114,-379 3114,-183.5 3114,-114.1933 3809.5446,-236.8461 2810,-112 2637.1358,-90.4087 2083.5453,-71.5369 1943.4541,-67.023"/>
<polygon fill="#191970" stroke="#191970" points="1943.468,-63.5217 1933.361,-66.6996 1943.2438,-70.5181 1943.468,-63.5217"/>
</g>
<!-- Node59&#45;&gt;Node3 -->
<g id="edge138" class="edge">
<title>Node59&#45;&gt;Node3</title>
<path fill="none" stroke="#191970" d="M1504.9032,-615.433C1469.823,-607.1076 1425.7881,-594.0374 1415,-579 1387.8467,-541.1513 1296.295,-577.5391 1443,-425 1486.5859,-379.6808 1520.1375,-404.0097 1586.2517,-388.8816"/>
<polygon fill="#191970" stroke="#191970" points="1587.4128,-392.1981 1596.2476,-386.3503 1585.6944,-385.4123 1587.4128,-392.1981"/>
</g>
<!-- Node59&#45;&gt;Node47 -->
<g id="edge128" class="edge">
<title>Node59&#45;&gt;Node47</title>
<path fill="none" stroke="#191970" d="M1558.9869,-615.1826C1566.1099,-606.1392 1576.5357,-592.1675 1584,-579 1593.6642,-561.9517 1602.3163,-541.3062 1608.0079,-526.5916"/>
<polygon fill="#191970" stroke="#191970" points="1611.348,-527.6534 1611.6011,-517.0616 1604.7981,-525.1838 1611.348,-527.6534"/>
</g>
<!-- Node60 -->
<g id="node48" class="node">
<title>Node60</title>
<g id="a_node48"><a xlink:href="Sensors_8h.html" target="_top" xlink:title="iDynTree/Sensors/Sensors.h">
<polygon fill="none" stroke="#ff0000" points="1423.5,-559.5 1423.5,-578.5 1574.5,-578.5 1574.5,-559.5 1423.5,-559.5"/>
<text text-anchor="middle" x="1499" y="-566.5" font-family="FreeSans.ttf" font-size="10.00" fill="#000000">iDynTree/Sensors/Sensors.h</text>
</a>
</g>
</g>
<!-- Node59&#45;&gt;Node60 -->
<g id="edge129" class="edge">
<title>Node59&#45;&gt;Node60</title>
<path fill="none" stroke="#191970" d="M1541.9423,-615.2455C1534.4858,-607.2155 1523.7366,-595.6394 1514.8583,-586.0781"/>
<polygon fill="#191970" stroke="#191970" points="1517.3232,-583.589 1507.9539,-578.6427 1512.1937,-588.3522 1517.3232,-583.589"/>
</g>
<!-- Node61 -->
<g id="node49" class="node">
<title>Node61</title>
<polygon fill="none" stroke="#bfbfbf" points="1631,-559.5 1631,-578.5 1689,-578.5 1689,-559.5 1631,-559.5"/>
<text text-anchor="middle" x="1660" y="-566.5" font-family="FreeSans.ttf" font-size="10.00" fill="#000000">memory</text>
</g>
<!-- Node59&#45;&gt;Node61 -->
<g id="edge136" class="edge">
<title>Node59&#45;&gt;Node61</title>
<path fill="none" stroke="#191970" d="M1569.9864,-615.2455C1587.1792,-606.4125 1612.7238,-593.2887 1632.2132,-583.2758"/>
<polygon fill="#191970" stroke="#191970" points="1633.9359,-586.3257 1641.2312,-578.6427 1630.737,-580.0993 1633.9359,-586.3257"/>
</g>
<!-- Node60&#45;&gt;Node2 -->
<g id="edge131" class="edge">
<title>Node60&#45;&gt;Node2</title>
<path fill="none" stroke="#191970" d="M1574.7427,-562.2445C1590.3597,-561.0196 1606.7056,-559.86 1622,-559 1749.9714,-551.8046 2653.6564,-564.2819 2775,-523 2797.3043,-515.4119 2796.3828,-501.3679 2818,-492 2894.4578,-458.8669 2928.8421,-495.8939 3002,-456 3043.671,-433.2763 3076,-426.4641 3076,-379 3076,-379 3076,-379 3076,-183.5 3076,-162.7114 3076.4656,-152.2552 2715,-112 2416.1302,-78.7159 2051.9191,-68.8895 1943.1404,-66.5988"/>
<polygon fill="#191970" stroke="#191970" points="1943.2045,-63.0995 1933.1351,-66.3944 1943.0615,-70.098 1943.2045,-63.0995"/>
</g>
<!-- Node60&#45;&gt;Node3 -->
<g id="edge132" class="edge">
<title>Node60&#45;&gt;Node3</title>
<path fill="none" stroke="#191970" d="M1491.0458,-559.18C1471.8527,-534.2332 1426.8813,-467.3983 1459,-425 1492.8727,-380.2864 1526.6597,-402.952 1586.4078,-388.8602"/>
<polygon fill="#191970" stroke="#191970" points="1587.4496,-392.2052 1596.2239,-386.267 1585.6617,-385.4373 1587.4496,-392.2052"/>
</g>
<!-- Node60&#45;&gt;Node20 -->
<g id="edge135" class="edge">
<title>Node60&#45;&gt;Node20</title>
<path fill="none" stroke="#191970" d="M1574.5129,-561.867C1805.7456,-539.8524 2489.434,-473.4123 2505,-456 2545.5482,-410.6421 2454.2662,-391.8707 2381.273,-384.1913"/>
<polygon fill="#191970" stroke="#191970" points="2381.4078,-380.6875 2371.1103,-383.1797 2380.7144,-387.6531 2381.4078,-380.6875"/>
</g>
<!-- Node60&#45;&gt;Node28 -->
<g id="edge130" class="edge">
<title>Node60&#45;&gt;Node28</title>
<path fill="none" stroke="#191970" d="M1423.2703,-567.1244C1277.0727,-562.8961 966.7895,-550.7413 927,-523 889.526,-496.8731 866.4204,-459.8133 896,-425 960.1531,-349.4959 1039.9017,-452.4472 1116,-389 1170.5964,-343.4801 1136.024,-244.4417 1117.9674,-202.6822"/>
<polygon fill="#191970" stroke="#191970" points="1121.0777,-201.0638 1113.7969,-193.3669 1114.6887,-203.9242 1121.0777,-201.0638"/>
</g>
<!-- Node60&#45;&gt;Node40 -->
<g id="edge133" class="edge">
<title>Node60&#45;&gt;Node40</title>
<path fill="none" stroke="#191970" d="M1423.2931,-566.261C1258.5821,-559.9341 880.8698,-543.2816 862,-523 840.5654,-499.9617 873.4373,-437.3136 886,-425 902.7007,-408.6305 925.4012,-398.0831 947.5187,-391.2883"/>
<polygon fill="#191970" stroke="#191970" points="948.6176,-394.6146 957.2781,-388.5115 946.702,-387.8818 948.6176,-394.6146"/>
</g>
<!-- Node60&#45;&gt;Node47 -->
<g id="edge134" class="edge">
<title>Node60&#45;&gt;Node47</title>
<path fill="none" stroke="#191970" d="M1517.125,-559.3906C1536.1083,-549.3262 1566.1373,-533.4057 1587.9307,-521.8514"/>
<polygon fill="#191970" stroke="#191970" points="1589.8066,-524.8184 1597.0023,-517.0419 1586.5277,-518.6338 1589.8066,-524.8184"/>
</g>
</g>
</svg>
