<?xml version="1.0" encoding="UTF-8" standalone="no"?>
<!DOCTYPE svg PUBLIC "-//W3C//DTD SVG 1.1//EN"
 "http://www.w3.org/Graphics/SVG/1.1/DTD/svg11.dtd">
<!-- Generated by graphviz version 2.40.1 (20161225.0304)
 -->
<!-- Title: KinDynComputations.h Pages: 1 -->
<svg width="1343pt" height="621pt"
 viewBox="0.00 0.00 1343.00 621.00" xmlns="http://www.w3.org/2000/svg" xmlns:xlink="http://www.w3.org/1999/xlink">
<g id="graph0" class="graph" transform="scale(1 1) rotate(0) translate(4 617)">
<title>KinDynComputations.h</title>
<!-- Node0 -->
<g id="node1" class="node">
<title>Node0</title>
<polygon fill="#bfbfbf" stroke="#000000" points="936.5,-593.5 936.5,-612.5 1065.5,-612.5 1065.5,-593.5 936.5,-593.5"/>
<text text-anchor="middle" x="1001" y="-600.5" font-family="FreeSans.ttf" font-size="10.00" fill="#000000">KinDynComputations.h</text>
</g>
<!-- Node1 -->
<g id="node2" class="node">
<title>Node1</title>
<polygon fill="none" stroke="#bfbfbf" points="939,-56.5 939,-75.5 983,-75.5 983,-56.5 939,-56.5"/>
<text text-anchor="middle" x="961" y="-63.5" font-family="FreeSans.ttf" font-size="10.00" fill="#000000">string</text>
</g>
<!-- Node0&#45;&gt;Node1 -->
<g id="edge1" class="edge">
<title>Node0&#45;&gt;Node1</title>
<path fill="none" stroke="#191970" d="M1065.5717,-597.8797C1113.2303,-592.2867 1178.7761,-580.7207 1232,-557 1284.2055,-533.7331 1335,-537.1556 1335,-480 1335,-480 1335,-480 1335,-183.5 1335,-112.1404 1084.0558,-78.847 993.2792,-69.1378"/>
<polygon fill="#191970" stroke="#191970" points="993.5845,-65.6508 983.2754,-68.0946 992.8584,-72.613 993.5845,-65.6508"/>
</g>
<!-- Node2 -->
<g id="node3" class="node">
<title>Node2</title>
<polygon fill="none" stroke="#bfbfbf" points="1075.5,-470.5 1075.5,-489.5 1122.5,-489.5 1122.5,-470.5 1075.5,-470.5"/>
<text text-anchor="middle" x="1099" y="-477.5" font-family="FreeSans.ttf" font-size="10.00" fill="#000000">vector</text>
</g>
<!-- Node0&#45;&gt;Node2 -->
<g id="edge2" class="edge">
<title>Node0&#45;&gt;Node2</title>
<path fill="none" stroke="#191970" d="M1004.1956,-593.1838C1009.5768,-577.7017 1021.5914,-547.1971 1039,-526 1048.8247,-514.0371 1062.3314,-503.3337 1074.0423,-495.2683"/>
<polygon fill="#191970" stroke="#191970" points="1076.1464,-498.073 1082.557,-489.6377 1072.2852,-492.2342 1076.1464,-498.073"/>
</g>
<!-- Node3 -->
<g id="node4" class="node">
<title>Node3</title>
<g id="a_node4"><a xlink:href="VectorFixSize_8h.html" target="_top" xlink:title="iDynTree/Core/VectorFixSize.h">
<polygon fill="none" stroke="#000000" points="307.5,-112.5 307.5,-131.5 468.5,-131.5 468.5,-112.5 307.5,-112.5"/>
<text text-anchor="middle" x="388" y="-119.5" font-family="FreeSans.ttf" font-size="10.00" fill="#000000">iDynTree/Core/VectorFixSize.h</text>
</a>
</g>
</g>
<!-- Node0&#45;&gt;Node3 -->
<g id="edge3" class="edge">
<title>Node0&#45;&gt;Node3</title>
<path fill="none" stroke="#191970" d="M936.3651,-601.1078C727.9358,-594.1577 87,-565.8095 87,-480 87,-480 87,-480 87,-245 87,-187.4878 138.8041,-192.1504 191,-168 226.9825,-151.3513 269.5375,-140.4409 305.8717,-133.4454"/>
<polygon fill="#191970" stroke="#191970" points="306.7516,-136.8419 315.9443,-131.5746 305.4733,-129.9596 306.7516,-136.8419"/>
</g>
<!-- Node4 -->
<g id="node5" class="node">
<title>Node4</title>
<g id="a_node5"><a xlink:href="Utils_8h.html" target="_top" xlink:title="iDynTree/Core/Utils.h">
<polygon fill="none" stroke="#000000" points="65.5,-56.5 65.5,-75.5 184.5,-75.5 184.5,-56.5 65.5,-56.5"/>
<text text-anchor="middle" x="125" y="-63.5" font-family="FreeSans.ttf" font-size="10.00" fill="#000000">iDynTree/Core/Utils.h</text>
</a>
</g>
</g>
<!-- Node0&#45;&gt;Node4 -->
<g id="edge23" class="edge">
<title>Node0&#45;&gt;Node4</title>
<path fill="none" stroke="#191970" d="M936.4939,-601.4571C752.6432,-596.7804 234.5412,-581.5605 162,-557 104.4362,-537.5105 49,-540.7736 49,-480 49,-480 49,-480 49,-183.5 49,-141.9563 82.9099,-103.486 105.4281,-82.5193"/>
<polygon fill="#191970" stroke="#191970" points="108.0192,-84.8968 113.125,-75.6133 103.3444,-79.6865 108.0192,-84.8968"/>
</g>
<!-- Node18 -->
<g id="node19" class="node">
<title>Node18</title>
<g id="a_node19"><a xlink:href="MatrixDynSize_8h.html" target="_top" xlink:title="iDynTree/Core/MatrixDynSize.h">
<polygon fill="none" stroke="#000000" points="1140.5,-470.5 1140.5,-489.5 1307.5,-489.5 1307.5,-470.5 1140.5,-470.5"/>
<text text-anchor="middle" x="1224" y="-477.5" font-family="FreeSans.ttf" font-size="10.00" fill="#000000">iDynTree/Core/MatrixDynSize.h</text>
</a>
</g>
</g>
<!-- Node0&#45;&gt;Node18 -->
<g id="edge21" class="edge">
<title>Node0&#45;&gt;Node18</title>
<path fill="none" stroke="#191970" d="M1065.5352,-596.7564C1119.6755,-590.1461 1191.2407,-577.7393 1211,-557 1225.4221,-541.8626 1227.1857,-517.0195 1226.3084,-499.6579"/>
<polygon fill="#191970" stroke="#191970" points="1229.7806,-499.1789 1225.457,-489.5064 1222.8051,-499.764 1229.7806,-499.1789"/>
</g>
<!-- Node19 -->
<g id="node20" class="node">
<title>Node19</title>
<g id="a_node20"><a xlink:href="Indices_8h.html" target="_top" xlink:title="iDynTree/Model/Indices.h">
<polygon fill="none" stroke="#000000" points="919,-470.5 919,-489.5 1057,-489.5 1057,-470.5 919,-470.5"/>
<text text-anchor="middle" x="988" y="-477.5" font-family="FreeSans.ttf" font-size="10.00" fill="#000000">iDynTree/Model/Indices.h</text>
</a>
</g>
</g>
<!-- Node0&#45;&gt;Node19 -->
<g id="edge24" class="edge">
<title>Node0&#45;&gt;Node19</title>
<path fill="none" stroke="#191970" d="M999.9799,-593.3484C997.8535,-573.2295 992.9105,-526.4608 990.0832,-499.7098"/>
<polygon fill="#191970" stroke="#191970" points="993.5471,-499.1835 989.0153,-489.6068 986.5859,-499.9193 993.5471,-499.1835"/>
</g>
<!-- Node21 -->
<g id="node22" class="node">
<title>Node21</title>
<g id="a_node22"><a xlink:href="FreeFloatingMatrices_8h.html" target="_top" xlink:title="iDynTree/Model/FreeFloating\lMatrices.h">
<polygon fill="none" stroke="#000000" points="1048,-526.5 1048,-556.5 1202,-556.5 1202,-526.5 1048,-526.5"/>
<text text-anchor="start" x="1056" y="-544.5" font-family="FreeSans.ttf" font-size="10.00" fill="#000000">iDynTree/Model/FreeFloating</text>
<text text-anchor="middle" x="1125" y="-533.5" font-family="FreeSans.ttf" font-size="10.00" fill="#000000">Matrices.h</text>
</a>
</g>
</g>
<!-- Node0&#45;&gt;Node21 -->
<g id="edge27" class="edge">
<title>Node0&#45;&gt;Node21</title>
<path fill="none" stroke="#191970" d="M1020.375,-593.3906C1037.7784,-584.7591 1063.8666,-571.8202 1085.6379,-561.0224"/>
<polygon fill="#191970" stroke="#191970" points="1087.2626,-564.1234 1094.6662,-556.5446 1084.1524,-557.8523 1087.2626,-564.1234"/>
</g>
<!-- Node22 -->
<g id="node23" class="node">
<title>Node22</title>
<g id="a_node23"><a xlink:href="LinkState_8h.html" target="_top" xlink:title="iDynTree/Model/LinkState.h">
<polygon fill="none" stroke="#000000" points="748.5,-532 748.5,-551 897.5,-551 897.5,-532 748.5,-532"/>
<text text-anchor="middle" x="823" y="-539" font-family="FreeSans.ttf" font-size="10.00" fill="#000000">iDynTree/Model/LinkState.h</text>
</a>
</g>
</g>
<!-- Node0&#45;&gt;Node22 -->
<g id="edge29" class="edge">
<title>Node0&#45;&gt;Node22</title>
<path fill="none" stroke="#191970" d="M973.1875,-593.3906C942.7517,-582.8749 893.8123,-565.966 860.1174,-554.3243"/>
<polygon fill="#191970" stroke="#191970" points="861.212,-550.9995 850.6172,-551.0419 858.926,-557.6157 861.212,-550.9995"/>
</g>
<!-- Node3&#45;&gt;Node1 -->
<g id="edge17" class="edge">
<title>Node3&#45;&gt;Node1</title>
<path fill="none" stroke="#191970" d="M468.5789,-114.1249C596.7063,-101.6029 841.3438,-77.6941 928.8687,-69.1402"/>
<polygon fill="#191970" stroke="#191970" points="929.3685,-72.6082 938.9806,-68.152 928.6876,-65.6413 929.3685,-72.6082"/>
</g>
<!-- Node3&#45;&gt;Node4 -->
<g id="edge4" class="edge">
<title>Node3&#45;&gt;Node4</title>
<path fill="none" stroke="#191970" d="M343.0875,-112.4369C297.888,-102.8127 228.1193,-87.957 179.7153,-77.6504"/>
<polygon fill="#191970" stroke="#191970" points="180.2369,-74.1831 169.7272,-75.5237 178.779,-81.0296 180.2369,-74.1831"/>
</g>
<!-- Node7 -->
<g id="node8" class="node">
<title>Node7</title>
<g id="a_node8"><a xlink:href="Span_8h.html" target="_top" xlink:title="iDynTree/Core/Span.h">
<polygon fill="none" stroke="#000000" points="299.5,-56.5 299.5,-75.5 420.5,-75.5 420.5,-56.5 299.5,-56.5"/>
<text text-anchor="middle" x="360" y="-63.5" font-family="FreeSans.ttf" font-size="10.00" fill="#000000">iDynTree/Core/Span.h</text>
</a>
</g>
</g>
<!-- Node3&#45;&gt;Node7 -->
<g id="edge7" class="edge">
<title>Node3&#45;&gt;Node7</title>
<path fill="none" stroke="#191970" d="M383.1228,-112.2455C379.3487,-104.6973 374.0079,-94.0158 369.4099,-84.8197"/>
<polygon fill="#191970" stroke="#191970" points="372.424,-83.0217 364.8213,-75.6427 366.163,-86.1522 372.424,-83.0217"/>
</g>
<!-- Node8 -->
<g id="node9" class="node">
<title>Node8</title>
<polygon fill="none" stroke="#bfbfbf" points="679,-.5 679,-19.5 731,-19.5 731,-.5 679,-.5"/>
<text text-anchor="middle" x="705" y="-7.5" font-family="FreeSans.ttf" font-size="10.00" fill="#000000">cassert</text>
</g>
<!-- Node3&#45;&gt;Node8 -->
<g id="edge19" class="edge">
<title>Node3&#45;&gt;Node8</title>
<path fill="none" stroke="#191970" d="M396.7331,-112.0913C410.3694,-97.3092 438.2556,-69.7526 468,-56 547.944,-19.0373 579.0159,-39.0641 668.9297,-19.9999"/>
<polygon fill="#191970" stroke="#191970" points="669.7009,-23.414 678.7015,-17.8248 668.1799,-16.5812 669.7009,-23.414"/>
</g>
<!-- Node16 -->
<g id="node17" class="node">
<title>Node16</title>
<polygon fill="none" stroke="#bfbfbf" points="477,-56.5 477,-75.5 533,-75.5 533,-56.5 477,-56.5"/>
<text text-anchor="middle" x="505" y="-63.5" font-family="FreeSans.ttf" font-size="10.00" fill="#000000">sstream</text>
</g>
<!-- Node3&#45;&gt;Node16 -->
<g id="edge18" class="edge">
<title>Node3&#45;&gt;Node16</title>
<path fill="none" stroke="#191970" d="M408.113,-112.3733C426.8103,-103.4241 454.8744,-89.9917 475.9934,-79.8835"/>
<polygon fill="#191970" stroke="#191970" points="477.6405,-82.9755 485.1494,-75.5011 474.6183,-76.6614 477.6405,-82.9755"/>
</g>
<!-- Node17 -->
<g id="node18" class="node">
<title>Node17</title>
<polygon fill="none" stroke="#bfbfbf" points="551,-56.5 551,-75.5 601,-75.5 601,-56.5 551,-56.5"/>
<text text-anchor="middle" x="576" y="-63.5" font-family="FreeSans.ttf" font-size="10.00" fill="#000000">cstring</text>
</g>
<!-- Node3&#45;&gt;Node17 -->
<g id="edge20" class="edge">
<title>Node3&#45;&gt;Node17</title>
<path fill="none" stroke="#191970" d="M420.3184,-112.3733C453.9527,-102.3545 506.4506,-86.7168 541.0358,-76.4149"/>
<polygon fill="#191970" stroke="#191970" points="542.134,-79.7398 550.7187,-73.5306 540.1357,-73.0311 542.134,-79.7398"/>
</g>
<!-- Node5 -->
<g id="node6" class="node">
<title>Node5</title>
<polygon fill="none" stroke="#bfbfbf" points="98.5,-.5 98.5,-19.5 151.5,-19.5 151.5,-.5 98.5,-.5"/>
<text text-anchor="middle" x="125" y="-7.5" font-family="FreeSans.ttf" font-size="10.00" fill="#000000">cstddef</text>
</g>
<!-- Node4&#45;&gt;Node5 -->
<g id="edge5" class="edge">
<title>Node4&#45;&gt;Node5</title>
<path fill="none" stroke="#191970" d="M125,-56.2455C125,-48.9382 125,-38.6944 125,-29.7046"/>
<polygon fill="#191970" stroke="#191970" points="128.5001,-29.6426 125,-19.6427 121.5001,-29.6427 128.5001,-29.6426"/>
</g>
<!-- Node6 -->
<g id="node7" class="node">
<title>Node6</title>
<polygon fill="none" stroke="#bfbfbf" points="0,-.5 0,-19.5 80,-19.5 80,-.5 0,-.5"/>
<text text-anchor="middle" x="40" y="-7.5" font-family="FreeSans.ttf" font-size="10.00" fill="#000000">CoreExport.h</text>
</g>
<!-- Node4&#45;&gt;Node6 -->
<g id="edge6" class="edge">
<title>Node4&#45;&gt;Node6</title>
<path fill="none" stroke="#191970" d="M110.1941,-56.2455C97.2744,-47.7337 78.3069,-35.2375 63.3448,-25.3801"/>
<polygon fill="#191970" stroke="#191970" points="64.9124,-22.2216 54.6362,-19.6427 61.0613,-28.067 64.9124,-22.2216"/>
</g>
<!-- Node7&#45;&gt;Node5 -->
<g id="edge11" class="edge">
<title>Node7&#45;&gt;Node5</title>
<path fill="none" stroke="#191970" d="M315.3546,-56.4317C276.8588,-48.0242 219.5697,-35.1392 161.4288,-20.2863"/>
<polygon fill="#191970" stroke="#191970" points="162.2705,-16.889 151.7138,-17.7879 160.5269,-23.6684 162.2705,-16.889"/>
</g>
<!-- Node7&#45;&gt;Node8 -->
<g id="edge8" class="edge">
<title>Node7&#45;&gt;Node8</title>
<path fill="none" stroke="#191970" d="M420.8062,-57.4144C497.4507,-46.5306 623.8233,-28.3609 668.8868,-19.8888"/>
<polygon fill="#191970" stroke="#191970" points="669.6082,-23.3138 678.7201,-17.908 668.2259,-16.4517 669.6082,-23.3138"/>
</g>
<!-- Node9 -->
<g id="node10" class="node">
<title>Node9</title>
<polygon fill="none" stroke="#bfbfbf" points="537,-.5 537,-19.5 601,-19.5 601,-.5 537,-.5"/>
<text text-anchor="middle" x="569" y="-7.5" font-family="FreeSans.ttf" font-size="10.00" fill="#000000">algorithm</text>
</g>
<!-- Node7&#45;&gt;Node9 -->
<g id="edge9" class="edge">
<title>Node7&#45;&gt;Node9</title>
<path fill="none" stroke="#191970" d="M395.9284,-56.3733C432.3551,-46.613 488.6843,-31.52 527.1152,-21.2227"/>
<polygon fill="#191970" stroke="#191970" points="528.2088,-24.5532 536.9622,-18.5843 526.3971,-17.7917 528.2088,-24.5532"/>
</g>
<!-- Node10 -->
<g id="node11" class="node">
<title>Node10</title>
<polygon fill="none" stroke="#bfbfbf" points="619,-.5 619,-19.5 661,-19.5 661,-.5 619,-.5"/>
<text text-anchor="middle" x="640" y="-7.5" font-family="FreeSans.ttf" font-size="10.00" fill="#000000">array</text>
</g>
<!-- Node7&#45;&gt;Node10 -->
<g id="edge10" class="edge">
<title>Node7&#45;&gt;Node10</title>
<path fill="none" stroke="#191970" d="M420.6273,-57.277C469.2892,-49.7229 539.4568,-37.5928 608.9981,-19.9927"/>
<polygon fill="#191970" stroke="#191970" points="609.99,-23.3516 618.8042,-17.4729 608.2477,-16.5719 609.99,-23.3516"/>
</g>
<!-- Node11 -->
<g id="node12" class="node">
<title>Node11</title>
<polygon fill="none" stroke="#bfbfbf" points="169.5,-.5 169.5,-19.5 222.5,-19.5 222.5,-.5 169.5,-.5"/>
<text text-anchor="middle" x="196" y="-7.5" font-family="FreeSans.ttf" font-size="10.00" fill="#000000">iterator</text>
</g>
<!-- Node7&#45;&gt;Node11 -->
<g id="edge12" class="edge">
<title>Node7&#45;&gt;Node11</title>
<path fill="none" stroke="#191970" d="M331.8074,-56.3733C304.3256,-46.9892 262.4074,-32.6757 232.4148,-22.4343"/>
<polygon fill="#191970" stroke="#191970" points="233.3333,-19.0496 222.7387,-19.1303 231.0712,-25.674 233.3333,-19.0496"/>
</g>
<!-- Node12 -->
<g id="node13" class="node">
<title>Node12</title>
<polygon fill="none" stroke="#bfbfbf" points="241,-.5 241,-19.5 285,-19.5 285,-.5 241,-.5"/>
<text text-anchor="middle" x="263" y="-7.5" font-family="FreeSans.ttf" font-size="10.00" fill="#000000">limits</text>
</g>
<!-- Node7&#45;&gt;Node12 -->
<g id="edge13" class="edge">
<title>Node7&#45;&gt;Node12</title>
<path fill="none" stroke="#191970" d="M343.1039,-56.2455C328.082,-47.5731 305.8957,-34.7645 288.679,-24.825"/>
<polygon fill="#191970" stroke="#191970" points="290.1128,-21.6114 279.7025,-19.6427 286.6129,-27.6737 290.1128,-21.6114"/>
</g>
<!-- Node13 -->
<g id="node14" class="node">
<title>Node13</title>
<polygon fill="none" stroke="#bfbfbf" points="303.5,-.5 303.5,-19.5 368.5,-19.5 368.5,-.5 303.5,-.5"/>
<text text-anchor="middle" x="336" y="-7.5" font-family="FreeSans.ttf" font-size="10.00" fill="#000000">stdexcept</text>
</g>
<!-- Node7&#45;&gt;Node13 -->
<g id="edge14" class="edge">
<title>Node7&#45;&gt;Node13</title>
<path fill="none" stroke="#191970" d="M355.8195,-56.2455C352.619,-48.7776 348.104,-38.2427 344.1916,-29.1137"/>
<polygon fill="#191970" stroke="#191970" points="347.2888,-27.4554 340.1326,-19.6427 340.8548,-30.2129 347.2888,-27.4554"/>
</g>
<!-- Node14 -->
<g id="node15" class="node">
<title>Node14</title>
<polygon fill="none" stroke="#bfbfbf" points="386.5,-.5 386.5,-19.5 455.5,-19.5 455.5,-.5 386.5,-.5"/>
<text text-anchor="middle" x="421" y="-7.5" font-family="FreeSans.ttf" font-size="10.00" fill="#000000">type_traits</text>
</g>
<!-- Node7&#45;&gt;Node14 -->
<g id="edge15" class="edge">
<title>Node7&#45;&gt;Node14</title>
<path fill="none" stroke="#191970" d="M370.6254,-56.2455C379.5473,-48.0549 392.488,-36.1749 403.0192,-26.5069"/>
<polygon fill="#191970" stroke="#191970" points="405.4968,-28.9837 410.4964,-19.6427 400.7629,-23.8271 405.4968,-28.9837"/>
</g>
<!-- Node15 -->
<g id="node16" class="node">
<title>Node15</title>
<polygon fill="none" stroke="#bfbfbf" points="473.5,-.5 473.5,-19.5 518.5,-19.5 518.5,-.5 473.5,-.5"/>
<text text-anchor="middle" x="496" y="-7.5" font-family="FreeSans.ttf" font-size="10.00" fill="#000000">utility</text>
</g>
<!-- Node7&#45;&gt;Node15 -->
<g id="edge16" class="edge">
<title>Node7&#45;&gt;Node15</title>
<path fill="none" stroke="#191970" d="M383.3792,-56.3733C405.6386,-47.2077 439.3188,-33.3393 464.0498,-23.156"/>
<polygon fill="#191970" stroke="#191970" points="465.4636,-26.359 473.3778,-19.315 462.7983,-19.8862 465.4636,-26.359"/>
</g>
<!-- Node18&#45;&gt;Node1 -->
<g id="edge22" class="edge">
<title>Node18&#45;&gt;Node1</title>
<path fill="none" stroke="#191970" d="M1228.99,-470.4118C1239.0894,-450.0868 1261,-400.9298 1261,-357 1261,-357 1261,-357 1261,-183.5 1261,-126.471 1070.6667,-85.7443 993.2087,-71.5314"/>
<polygon fill="#191970" stroke="#191970" points="993.5219,-68.0315 983.0597,-69.7029 992.2807,-74.9206 993.5219,-68.0315"/>
</g>
<!-- Node19&#45;&gt;Node1 -->
<g id="edge25" class="edge">
<title>Node19&#45;&gt;Node1</title>
<path fill="none" stroke="#191970" d="M1002.2073,-470.4696C1057.5134,-432.1825 1251.7443,-285.9549 1177,-168 1136.2603,-103.7081 1042.9149,-79.175 993.3321,-70.4374"/>
<polygon fill="#191970" stroke="#191970" points="993.599,-66.9342 983.1626,-68.7597 992.4595,-73.8409 993.599,-66.9342"/>
</g>
<!-- Node20 -->
<g id="node21" class="node">
<title>Node20</title>
<polygon fill="none" stroke="#bfbfbf" points="1147,-409 1147,-428 1233,-428 1233,-409 1147,-409"/>
<text text-anchor="middle" x="1190" y="-416" font-family="FreeSans.ttf" font-size="10.00" fill="#000000">ModelExport.h</text>
</g>
<!-- Node19&#45;&gt;Node20 -->
<g id="edge26" class="edge">
<title>Node19&#45;&gt;Node20</title>
<path fill="none" stroke="#191970" d="M1019.5625,-470.3906C1054.3985,-459.7846 1110.595,-442.6753 1148.8588,-431.0257"/>
<polygon fill="#191970" stroke="#191970" points="1150.1121,-434.3028 1158.6591,-428.0419 1148.0733,-427.6063 1150.1121,-434.3028"/>
</g>
<!-- Node21&#45;&gt;Node18 -->
<g id="edge28" class="edge">
<title>Node21&#45;&gt;Node18</title>
<path fill="none" stroke="#191970" d="M1149.2181,-526.4554C1164.5773,-516.9141 1184.3757,-504.6151 1199.7425,-495.0691"/>
<polygon fill="#191970" stroke="#191970" points="1202.011,-497.7802 1208.6585,-489.5303 1198.3172,-491.8341 1202.011,-497.7802"/>
</g>
<!-- Node22&#45;&gt;Node2 -->
<g id="edge75" class="edge">
<title>Node22&#45;&gt;Node2</title>
<path fill="none" stroke="#191970" d="M874.495,-531.9118C921.6675,-522.8306 993.6034,-508.2366 1065.1804,-490.0445"/>
<polygon fill="#191970" stroke="#191970" points="1066.4591,-493.3298 1075.2752,-487.4538 1064.719,-486.5495 1066.4591,-493.3298"/>
</g>
<!-- Node22&#45;&gt;Node19 -->
<g id="edge74" class="edge">
<title>Node22&#45;&gt;Node19</title>
<path fill="none" stroke="#191970" d="M848.7813,-531.8906C876.752,-521.4652 921.5819,-504.7559 952.786,-493.1252"/>
<polygon fill="#191970" stroke="#191970" points="954.2519,-496.3141 962.3998,-489.5419 951.8071,-489.7549 954.2519,-496.3141"/>
</g>
<!-- Node23 -->
<g id="node24" class="node">
<title>Node23</title>
<g id="a_node24"><a xlink:href="Transform_8h.html" target="_top" xlink:title="iDynTree/Core/Transform.h">
<polygon fill="none" stroke="#000000" points="636,-347.5 636,-366.5 782,-366.5 782,-347.5 636,-347.5"/>
<text text-anchor="middle" x="709" y="-354.5" font-family="FreeSans.ttf" font-size="10.00" fill="#000000">iDynTree/Core/Transform.h</text>
</a>
</g>
</g>
<!-- Node22&#45;&gt;Node23 -->
<g id="edge30" class="edge">
<title>Node22&#45;&gt;Node23</title>
<path fill="none" stroke="#191970" d="M817.0314,-531.8402C798.8707,-502.4487 744.0735,-413.7637 720.2562,-375.2172"/>
<polygon fill="#191970" stroke="#191970" points="723.1435,-373.2315 714.9095,-366.5641 717.1885,-376.911 723.1435,-373.2315"/>
</g>
<!-- Node31 -->
<g id="node32" class="node">
<title>Node31</title>
<g id="a_node32"><a xlink:href="Twist_8h.html" target="_top" xlink:title="iDynTree/Core/Twist.h">
<polygon fill="none" stroke="#000000" points="608,-470.5 608,-489.5 730,-489.5 730,-470.5 608,-470.5"/>
<text text-anchor="middle" x="669" y="-477.5" font-family="FreeSans.ttf" font-size="10.00" fill="#000000">iDynTree/Core/Twist.h</text>
</a>
</g>
</g>
<!-- Node22&#45;&gt;Node31 -->
<g id="edge53" class="edge">
<title>Node22&#45;&gt;Node31</title>
<path fill="none" stroke="#191970" d="M798.9375,-531.8906C772.9444,-521.5103 731.3522,-504.9004 702.2453,-493.2766"/>
<polygon fill="#191970" stroke="#191970" points="703.4785,-490.0003 692.8935,-489.5419 700.8823,-496.5011 703.4785,-490.0003"/>
</g>
<!-- Node34 -->
<g id="node35" class="node">
<title>Node34</title>
<g id="a_node35"><a xlink:href="SpatialAcc_8h.html" target="_top" xlink:title="iDynTree/Core/SpatialAcc.h">
<polygon fill="none" stroke="#000000" points="420,-470.5 420,-489.5 568,-489.5 568,-470.5 420,-470.5"/>
<text text-anchor="middle" x="494" y="-477.5" font-family="FreeSans.ttf" font-size="10.00" fill="#000000">iDynTree/Core/SpatialAcc.h</text>
</a>
</g>
</g>
<!-- Node22&#45;&gt;Node34 -->
<g id="edge64" class="edge">
<title>Node22&#45;&gt;Node34</title>
<path fill="none" stroke="#191970" d="M771.9547,-531.9581C713.3974,-521.012 617.4431,-503.0752 554.9993,-491.4026"/>
<polygon fill="#191970" stroke="#191970" points="555.3672,-487.9108 544.8943,-489.5137 554.0809,-494.7916 555.3672,-487.9108"/>
</g>
<!-- Node35 -->
<g id="node36" class="node">
<title>Node35</title>
<g id="a_node36"><a xlink:href="Wrench_8h.html" target="_top" xlink:title="iDynTree/Core/Wrench.h">
<polygon fill="none" stroke="#000000" points="224.5,-470.5 224.5,-489.5 357.5,-489.5 357.5,-470.5 224.5,-470.5"/>
<text text-anchor="middle" x="291" y="-477.5" font-family="FreeSans.ttf" font-size="10.00" fill="#000000">iDynTree/Core/Wrench.h</text>
</a>
</g>
</g>
<!-- Node22&#45;&gt;Node35 -->
<g id="edge66" class="edge">
<title>Node22&#45;&gt;Node35</title>
<path fill="none" stroke="#191970" d="M748.4675,-532.8839C647.9708,-521.2664 469.9076,-500.682 368.1061,-488.9136"/>
<polygon fill="#191970" stroke="#191970" points="368.2294,-485.4046 357.8936,-487.733 367.4255,-492.3583 368.2294,-485.4046"/>
</g>
<!-- Node37 -->
<g id="node38" class="node">
<title>Node37</title>
<g id="a_node38"><a xlink:href="ArticulatedBodyInertia_8h.html" target="_top" xlink:title="iDynTree/Core/Articulated\lBodyInertia.h">
<polygon fill="none" stroke="#000000" points="1027.5,-168.5 1027.5,-198.5 1168.5,-198.5 1168.5,-168.5 1027.5,-168.5"/>
<text text-anchor="start" x="1035.5" y="-186.5" font-family="FreeSans.ttf" font-size="10.00" fill="#000000">iDynTree/Core/Articulated</text>
<text text-anchor="middle" x="1098" y="-175.5" font-family="FreeSans.ttf" font-size="10.00" fill="#000000">BodyInertia.h</text>
</a>
</g>
</g>
<!-- Node22&#45;&gt;Node37 -->
<g id="edge71" class="edge">
<title>Node22&#45;&gt;Node37</title>
<path fill="none" stroke="#191970" d="M830.3556,-531.9244C866.5608,-484.7918 1026.2559,-276.8978 1080.1588,-206.726"/>
<polygon fill="#191970" stroke="#191970" points="1083.1604,-208.5639 1086.4766,-198.5014 1077.6092,-204.2996 1083.1604,-208.5639"/>
</g>
<!-- Node23&#45;&gt;Node1 -->
<g id="edge52" class="edge">
<title>Node23&#45;&gt;Node1</title>
<path fill="none" stroke="#191970" d="M763.5468,-347.454C847.5527,-331.182 999,-294.9237 999,-245 999,-245 999,-245 999,-183.5 999,-147.2454 982.4195,-107.6181 971.163,-84.8929"/>
<polygon fill="#191970" stroke="#191970" points="974.1292,-83.0073 966.4445,-75.7137 967.9035,-86.2076 974.1292,-83.0073"/>
</g>
<!-- Node24 -->
<g id="node25" class="node">
<title>Node24</title>
<g id="a_node25"><a xlink:href="Position_8h.html" target="_top" xlink:title="iDynTree/Core/Position.h">
<polygon fill="none" stroke="#000000" points="545,-291.5 545,-310.5 681,-310.5 681,-291.5 545,-291.5"/>
<text text-anchor="middle" x="613" y="-298.5" font-family="FreeSans.ttf" font-size="10.00" fill="#000000">iDynTree/Core/Position.h</text>
</a>
</g>
</g>
<!-- Node23&#45;&gt;Node24 -->
<g id="edge31" class="edge">
<title>Node23&#45;&gt;Node24</title>
<path fill="none" stroke="#191970" d="M692.2781,-347.2455C677.4111,-338.5731 655.4534,-325.7645 638.4142,-315.825"/>
<polygon fill="#191970" stroke="#191970" points="639.9317,-312.6582 629.5303,-310.6427 636.4045,-318.7047 639.9317,-312.6582"/>
</g>
<!-- Node26 -->
<g id="node27" class="node">
<title>Node26</title>
<g id="a_node27"><a xlink:href="Rotation_8h.html" target="_top" xlink:title="iDynTree/Core/Rotation.h">
<polygon fill="none" stroke="#000000" points="449.5,-235.5 449.5,-254.5 586.5,-254.5 586.5,-235.5 449.5,-235.5"/>
<text text-anchor="middle" x="518" y="-242.5" font-family="FreeSans.ttf" font-size="10.00" fill="#000000">iDynTree/Core/Rotation.h</text>
</a>
</g>
</g>
<!-- Node23&#45;&gt;Node26 -->
<g id="edge50" class="edge">
<title>Node23&#45;&gt;Node26</title>
<path fill="none" stroke="#191970" d="M648.1976,-347.4297C604.9938,-339.4426 551.9279,-326.8268 536,-311 523.7813,-298.8589 519.6299,-279.2913 518.3267,-264.6087"/>
<polygon fill="#191970" stroke="#191970" points="521.8175,-264.34 517.7989,-254.5369 514.8271,-264.7064 521.8175,-264.34"/>
</g>
<!-- Node29 -->
<g id="node30" class="node">
<title>Node29</title>
<g id="a_node30"><a xlink:href="MatrixFixSize_8h.html" target="_top" xlink:title="iDynTree/Core/MatrixFixSize.h">
<polygon fill="none" stroke="#000000" points="626.5,-112.5 626.5,-131.5 787.5,-131.5 787.5,-112.5 626.5,-112.5"/>
<text text-anchor="middle" x="707" y="-119.5" font-family="FreeSans.ttf" font-size="10.00" fill="#000000">iDynTree/Core/MatrixFixSize.h</text>
</a>
</g>
</g>
<!-- Node23&#45;&gt;Node29 -->
<g id="edge51" class="edge">
<title>Node23&#45;&gt;Node29</title>
<path fill="none" stroke="#191970" d="M708.9191,-347.4967C708.6208,-312.4391 707.578,-189.9096 707.1677,-141.7"/>
<polygon fill="#191970" stroke="#191970" points="710.667,-141.5914 707.0819,-131.6216 703.6672,-141.651 710.667,-141.5914"/>
</g>
<!-- Node24&#45;&gt;Node1 -->
<g id="edge49" class="edge">
<title>Node24&#45;&gt;Node1</title>
<path fill="none" stroke="#191970" d="M660.4506,-291.4763C739.1421,-274.7684 891.6972,-238.207 929,-199 958.6262,-167.8614 962.357,-114.2805 961.9992,-85.5499"/>
<polygon fill="#191970" stroke="#191970" points="965.497,-85.4206 961.6916,-75.5328 958.5003,-85.6355 965.497,-85.4206"/>
</g>
<!-- Node25 -->
<g id="node26" class="node">
<title>Node25</title>
<g id="a_node26"><a xlink:href="PositionRaw_8h.html" target="_top" xlink:title="iDynTree/Core/PositionRaw.h">
<polygon fill="none" stroke="#000000" points="525,-174 525,-193 681,-193 681,-174 525,-174"/>
<text text-anchor="middle" x="603" y="-181" font-family="FreeSans.ttf" font-size="10.00" fill="#000000">iDynTree/Core/PositionRaw.h</text>
</a>
</g>
</g>
<!-- Node24&#45;&gt;Node25 -->
<g id="edge32" class="edge">
<title>Node24&#45;&gt;Node25</title>
<path fill="none" stroke="#191970" d="M612.1817,-291.3845C610.5482,-272.1913 606.8541,-228.786 604.6822,-203.2663"/>
<polygon fill="#191970" stroke="#191970" points="608.1651,-202.9155 603.8296,-193.2484 601.1903,-203.5092 608.1651,-202.9155"/>
</g>
<!-- Node24&#45;&gt;Node26 -->
<g id="edge35" class="edge">
<title>Node24&#45;&gt;Node26</title>
<path fill="none" stroke="#191970" d="M596.4523,-291.2455C581.7401,-282.5731 560.0112,-269.7645 543.1495,-259.825"/>
<polygon fill="#191970" stroke="#191970" points="544.7502,-256.7057 534.3581,-254.6427 541.1954,-262.736 544.7502,-256.7057"/>
</g>
<!-- Node25&#45;&gt;Node1 -->
<g id="edge34" class="edge">
<title>Node25&#45;&gt;Node1</title>
<path fill="none" stroke="#191970" d="M644.4602,-173.96C683.8329,-164.5433 744.4928,-149.1052 796,-132 843.4979,-116.2262 897.0531,-93.9419 929.9171,-79.7317"/>
<polygon fill="#191970" stroke="#191970" points="931.6484,-82.7954 939.4223,-75.597 928.8562,-76.3764 931.6484,-82.7954"/>
</g>
<!-- Node25&#45;&gt;Node3 -->
<g id="edge33" class="edge">
<title>Node25&#45;&gt;Node3</title>
<path fill="none" stroke="#191970" d="M569.4063,-173.8906C532.0917,-163.2169 471.7508,-145.9566 431.0114,-134.3033"/>
<polygon fill="#191970" stroke="#191970" points="431.9348,-130.9271 421.3579,-131.5419 430.0097,-137.6572 431.9348,-130.9271"/>
</g>
<!-- Node26&#45;&gt;Node1 -->
<g id="edge36" class="edge">
<title>Node26&#45;&gt;Node1</title>
<path fill="none" stroke="#191970" d="M586.5256,-240.5436C690.6088,-233.2238 879.1413,-217.5958 904,-199 922.9765,-184.8044 944.9423,-119.2917 955.1837,-85.8139"/>
<polygon fill="#191970" stroke="#191970" points="958.664,-86.3931 958.1861,-75.809 951.9594,-84.381 958.664,-86.3931"/>
</g>
<!-- Node26&#45;&gt;Node3 -->
<g id="edge48" class="edge">
<title>Node26&#45;&gt;Node3</title>
<path fill="none" stroke="#191970" d="M507.7991,-235.3484C485.6809,-214.4212 433.0874,-164.6596 405.5292,-138.5854"/>
<polygon fill="#191970" stroke="#191970" points="407.8229,-135.9372 398.1535,-131.6068 403.012,-141.022 407.8229,-135.9372"/>
</g>
<!-- Node27 -->
<g id="node28" class="node">
<title>Node27</title>
<g id="a_node28"><a xlink:href="GeomVector3_8h.html" target="_top" xlink:title="iDynTree/Core/GeomVector3.h">
<polygon fill="none" stroke="#000000" points="229.5,-174 229.5,-193 392.5,-193 392.5,-174 229.5,-174"/>
<text text-anchor="middle" x="311" y="-181" font-family="FreeSans.ttf" font-size="10.00" fill="#000000">iDynTree/Core/GeomVector3.h</text>
</a>
</g>
</g>
<!-- Node26&#45;&gt;Node27 -->
<g id="edge37" class="edge">
<title>Node26&#45;&gt;Node27</title>
<path fill="none" stroke="#191970" d="M485.6563,-235.3906C449.882,-224.7621 392.1253,-207.6025 352.9095,-195.9514"/>
<polygon fill="#191970" stroke="#191970" points="353.6993,-192.5349 343.1166,-193.0419 351.7057,-199.245 353.6993,-192.5349"/>
</g>
<!-- Node28 -->
<g id="node29" class="node">
<title>Node28</title>
<g id="a_node29"><a xlink:href="RotationRaw_8h.html" target="_top" xlink:title="iDynTree/Core/RotationRaw.h">
<polygon fill="none" stroke="#000000" points="737,-174 737,-193 895,-193 895,-174 737,-174"/>
<text text-anchor="middle" x="816" y="-181" font-family="FreeSans.ttf" font-size="10.00" fill="#000000">iDynTree/Core/RotationRaw.h</text>
</a>
</g>
</g>
<!-- Node26&#45;&gt;Node28 -->
<g id="edge39" class="edge">
<title>Node26&#45;&gt;Node28</title>
<path fill="none" stroke="#191970" d="M564.2355,-235.4581C616.9795,-224.573 703.2199,-206.7751 759.7992,-195.0985"/>
<polygon fill="#191970" stroke="#191970" points="760.5698,-198.5133 769.656,-193.0643 759.1549,-191.6578 760.5698,-198.5133"/>
</g>
<!-- Node27&#45;&gt;Node3 -->
<g id="edge38" class="edge">
<title>Node27&#45;&gt;Node3</title>
<path fill="none" stroke="#191970" d="M323.0313,-173.8906C335.0107,-164.3227 353.6166,-149.4621 367.8525,-138.0919"/>
<polygon fill="#191970" stroke="#191970" points="370.4239,-140.5175 376.0532,-131.5419 366.0553,-135.0479 370.4239,-140.5175"/>
</g>
<!-- Node28&#45;&gt;Node1 -->
<g id="edge47" class="edge">
<title>Node28&#45;&gt;Node1</title>
<path fill="none" stroke="#191970" d="M827.866,-173.8845C852.7195,-153.7446 910.4721,-106.945 941.1005,-82.1255"/>
<polygon fill="#191970" stroke="#191970" points="943.4043,-84.7635 948.9701,-75.7484 938.9972,-79.325 943.4043,-84.7635"/>
</g>
<!-- Node28&#45;&gt;Node29 -->
<g id="edge40" class="edge">
<title>Node28&#45;&gt;Node29</title>
<path fill="none" stroke="#191970" d="M798.9688,-173.8906C781.211,-163.8713 753.167,-148.0483 732.7118,-136.5071"/>
<polygon fill="#191970" stroke="#191970" points="734.3409,-133.4077 723.9117,-131.5419 730.9011,-139.5042 734.3409,-133.4077"/>
</g>
<!-- Node29&#45;&gt;Node1 -->
<g id="edge44" class="edge">
<title>Node29&#45;&gt;Node1</title>
<path fill="none" stroke="#191970" d="M750.3756,-112.4369C801.1156,-101.2501 883.9144,-82.9953 929.1048,-73.032"/>
<polygon fill="#191970" stroke="#191970" points="929.9357,-76.433 938.9476,-70.862 928.4285,-69.5971 929.9357,-76.433"/>
</g>
<!-- Node29&#45;&gt;Node4 -->
<g id="edge41" class="edge">
<title>Node29&#45;&gt;Node4</title>
<path fill="none" stroke="#191970" d="M626.3811,-114.2429C511.6456,-103.203 303.1727,-83.1438 194.7351,-72.7099"/>
<polygon fill="#191970" stroke="#191970" points="194.8493,-69.2048 184.56,-71.7309 194.1787,-76.1726 194.8493,-69.2048"/>
</g>
<!-- Node29&#45;&gt;Node8 -->
<g id="edge42" class="edge">
<title>Node29&#45;&gt;Node8</title>
<path fill="none" stroke="#191970" d="M706.8295,-112.4509C706.5033,-94.184 705.7849,-53.9553 705.3517,-29.6976"/>
<polygon fill="#191970" stroke="#191970" points="708.8482,-29.4608 705.1701,-19.5249 701.8493,-29.5858 708.8482,-29.4608"/>
</g>
<!-- Node29&#45;&gt;Node16 -->
<g id="edge46" class="edge">
<title>Node29&#45;&gt;Node16</title>
<path fill="none" stroke="#191970" d="M672.275,-112.3733C636.2901,-102.3973 580.2097,-86.8502 543.0448,-76.5471"/>
<polygon fill="#191970" stroke="#191970" points="543.668,-73.0879 533.0964,-73.7891 541.7979,-79.8335 543.668,-73.0879"/>
</g>
<!-- Node29&#45;&gt;Node17 -->
<g id="edge43" class="edge">
<title>Node29&#45;&gt;Node17</title>
<path fill="none" stroke="#191970" d="M684.4803,-112.3733C663.2628,-103.3032 631.2724,-89.6279 607.5231,-79.4755"/>
<polygon fill="#191970" stroke="#191970" points="608.7967,-76.2136 598.2258,-75.5011 606.0452,-82.6502 608.7967,-76.2136"/>
</g>
<!-- Node30 -->
<g id="node31" class="node">
<title>Node30</title>
<polygon fill="none" stroke="#bfbfbf" points="619,-56.5 619,-75.5 679,-75.5 679,-56.5 619,-56.5"/>
<text text-anchor="middle" x="649" y="-63.5" font-family="FreeSans.ttf" font-size="10.00" fill="#000000">iostream</text>
</g>
<!-- Node29&#45;&gt;Node30 -->
<g id="edge45" class="edge">
<title>Node29&#45;&gt;Node30</title>
<path fill="none" stroke="#191970" d="M696.8972,-112.2455C688.4972,-104.1352 676.3506,-92.4075 666.3916,-82.7919"/>
<polygon fill="#191970" stroke="#191970" points="668.6122,-80.0707 658.9871,-75.6427 663.75,-85.1066 668.6122,-80.0707"/>
</g>
<!-- Node32 -->
<g id="node33" class="node">
<title>Node32</title>
<g id="a_node33"><a xlink:href="SpatialMotionVector_8h.html" target="_top" xlink:title="iDynTree/Core/SpatialMotion\lVector.h">
<polygon fill="none" stroke="#000000" points="343.5,-403.5 343.5,-433.5 498.5,-433.5 498.5,-403.5 343.5,-403.5"/>
<text text-anchor="start" x="351.5" y="-421.5" font-family="FreeSans.ttf" font-size="10.00" fill="#000000">iDynTree/Core/SpatialMotion</text>
<text text-anchor="middle" x="421" y="-410.5" font-family="FreeSans.ttf" font-size="10.00" fill="#000000">Vector.h</text>
</a>
</g>
</g>
<!-- Node31&#45;&gt;Node32 -->
<g id="edge54" class="edge">
<title>Node31&#45;&gt;Node32</title>
<path fill="none" stroke="#191970" d="M630.5221,-470.4581C593.5107,-461.2799 536.6798,-447.1867 491.5394,-435.9926"/>
<polygon fill="#191970" stroke="#191970" points="492.3525,-432.5883 481.804,-433.5784 490.6676,-439.3825 492.3525,-432.5883"/>
</g>
<!-- Node32&#45;&gt;Node3 -->
<g id="edge55" class="edge">
<title>Node32&#45;&gt;Node3</title>
<path fill="none" stroke="#191970" d="M421,-403.2899C421,-380.892 421,-337.7188 421,-301 421,-301 421,-301 421,-245 421,-207.0591 406.1715,-164.7146 396.3946,-140.9189"/>
<polygon fill="#191970" stroke="#191970" points="399.586,-139.4796 392.4505,-131.6479 393.1446,-142.22 399.586,-139.4796"/>
</g>
<!-- Node32&#45;&gt;Node27 -->
<g id="edge56" class="edge">
<title>Node32&#45;&gt;Node27</title>
<path fill="none" stroke="#191970" d="M413.9517,-403.4422C394.6834,-362.2781 341.1527,-247.9171 319.8808,-202.4726"/>
<polygon fill="#191970" stroke="#191970" points="322.9379,-200.7477 315.5285,-193.1746 316.5981,-203.7153 322.9379,-200.7477"/>
</g>
<!-- Node33 -->
<g id="node34" class="node">
<title>Node33</title>
<g id="a_node34"><a xlink:href="SpatialVector_8h.html" target="_top" xlink:title="iDynTree/Core/SpatialVector.h">
<polygon fill="none" stroke="#000000" points="193.5,-347.5 193.5,-366.5 354.5,-366.5 354.5,-347.5 193.5,-347.5"/>
<text text-anchor="middle" x="274" y="-354.5" font-family="FreeSans.ttf" font-size="10.00" fill="#000000">iDynTree/Core/SpatialVector.h</text>
</a>
</g>
</g>
<!-- Node32&#45;&gt;Node33 -->
<g id="edge57" class="edge">
<title>Node32&#45;&gt;Node33</title>
<path fill="none" stroke="#191970" d="M385.0398,-403.4554C360.9427,-393.374 329.487,-380.2139 306.2097,-370.4755"/>
<polygon fill="#191970" stroke="#191970" points="307.3558,-367.1611 296.7798,-366.5303 304.6541,-373.6187 307.3558,-367.1611"/>
</g>
<!-- Node33&#45;&gt;Node4 -->
<g id="edge60" class="edge">
<title>Node33&#45;&gt;Node4</title>
<path fill="none" stroke="#191970" d="M262.902,-347.2463C237.6394,-324.303 175.9513,-263.9325 149,-199 133.2511,-161.0569 127.8182,-112.801 125.9572,-86.0881"/>
<polygon fill="#191970" stroke="#191970" points="129.4299,-85.5227 125.3438,-75.7475 122.4422,-85.9372 129.4299,-85.5227"/>
</g>
<!-- Node33&#45;&gt;Node16 -->
<g id="edge63" class="edge">
<title>Node33&#45;&gt;Node16</title>
<path fill="none" stroke="#191970" d="M266.5339,-347.4719C245.1281,-318.9172 187.1294,-232.0642 220,-168 239.4818,-130.0303 259.0448,-129.4277 298,-112 327.7881,-98.6735 415.5933,-81.7437 466.773,-72.5926"/>
<polygon fill="#191970" stroke="#191970" points="467.5627,-76.0073 476.7984,-70.8158 466.341,-69.1147 467.5627,-76.0073"/>
</g>
<!-- Node33&#45;&gt;Node24 -->
<g id="edge58" class="edge">
<title>Node33&#45;&gt;Node24</title>
<path fill="none" stroke="#191970" d="M331.891,-347.4369C391.0052,-337.6717 482.7227,-322.5207 545.1966,-312.2006"/>
<polygon fill="#191970" stroke="#191970" points="546.052,-315.6068 555.3478,-310.5237 544.911,-308.7004 546.052,-315.6068"/>
</g>
<!-- Node33&#45;&gt;Node26 -->
<g id="edge59" class="edge">
<title>Node33&#45;&gt;Node26</title>
<path fill="none" stroke="#191970" d="M294.8033,-347.4509C338.0206,-327.6135 437.6634,-281.8758 487.8935,-258.8194"/>
<polygon fill="#191970" stroke="#191970" points="489.6212,-261.8775 497.2494,-254.5249 486.7009,-255.5157 489.6212,-261.8775"/>
</g>
<!-- Node33&#45;&gt;Node27 -->
<g id="edge61" class="edge">
<title>Node33&#45;&gt;Node27</title>
<path fill="none" stroke="#191970" d="M276.042,-347.4248C281.8907,-319.999 298.7949,-240.732 306.757,-203.3964"/>
<polygon fill="#191970" stroke="#191970" points="310.256,-203.7696 308.9187,-193.2595 303.4099,-202.3096 310.256,-203.7696"/>
</g>
<!-- Node33&#45;&gt;Node30 -->
<g id="edge62" class="edge">
<title>Node33&#45;&gt;Node30</title>
<path fill="none" stroke="#191970" d="M286.3106,-347.3238C321.8444,-319.4074 427.6792,-236.3541 516,-168 555.6959,-137.2781 602.2833,-101.6463 628.4511,-81.6705"/>
<polygon fill="#191970" stroke="#191970" points="630.6766,-84.3749 636.5031,-75.526 626.4301,-78.81 630.6766,-84.3749"/>
</g>
<!-- Node34&#45;&gt;Node32 -->
<g id="edge65" class="edge">
<title>Node34&#45;&gt;Node32</title>
<path fill="none" stroke="#191970" d="M482.5938,-470.3906C472.9885,-462.2986 458.8896,-450.4207 446.604,-440.0705"/>
<polygon fill="#191970" stroke="#191970" points="448.7606,-437.3109 438.8578,-433.5446 444.2505,-442.6643 448.7606,-437.3109"/>
</g>
<!-- Node36 -->
<g id="node37" class="node">
<title>Node36</title>
<g id="a_node37"><a xlink:href="SpatialForceVector_8h.html" target="_top" xlink:title="iDynTree/Core/SpatialForce\lVector.h">
<polygon fill="none" stroke="#000000" points="146,-403.5 146,-433.5 294,-433.5 294,-403.5 146,-403.5"/>
<text text-anchor="start" x="154" y="-421.5" font-family="FreeSans.ttf" font-size="10.00" fill="#000000">iDynTree/Core/SpatialForce</text>
<text text-anchor="middle" x="220" y="-410.5" font-family="FreeSans.ttf" font-size="10.00" fill="#000000">Vector.h</text>
</a>
</g>
</g>
<!-- Node35&#45;&gt;Node36 -->
<g id="edge67" class="edge">
<title>Node35&#45;&gt;Node36</title>
<path fill="none" stroke="#191970" d="M279.9063,-470.3906C270.6532,-462.3756 257.1124,-450.6466 245.2444,-440.3666"/>
<polygon fill="#191970" stroke="#191970" points="247.2188,-437.4464 237.3686,-433.5446 242.6357,-442.7374 247.2188,-437.4464"/>
</g>
<!-- Node36&#45;&gt;Node3 -->
<g id="edge68" class="edge">
<title>Node36&#45;&gt;Node3</title>
<path fill="none" stroke="#191970" d="M203.1193,-403.1071C194.0757,-393.6844 183.8257,-380.8094 179,-367 156.519,-302.6673 70.2354,-324.2051 220,-168 233.9877,-153.4108 279.1725,-141.5155 319.1612,-133.4786"/>
<polygon fill="#191970" stroke="#191970" points="320.0501,-136.8712 329.1937,-131.5191 318.7082,-130.001 320.0501,-136.8712"/>
</g>
<!-- Node36&#45;&gt;Node27 -->
<g id="edge69" class="edge">
<title>Node36&#45;&gt;Node27</title>
<path fill="none" stroke="#191970" d="M204.3493,-403.4095C191.6861,-389.2908 177.0154,-367.3779 184,-347 205.5178,-284.2206 262.0621,-226.9472 291.9134,-199.8956"/>
<polygon fill="#191970" stroke="#191970" points="294.4241,-202.3467 299.5738,-193.0876 289.774,-197.1144 294.4241,-202.3467"/>
</g>
<!-- Node36&#45;&gt;Node33 -->
<g id="edge70" class="edge">
<title>Node36&#45;&gt;Node33</title>
<path fill="none" stroke="#191970" d="M233.3483,-403.2977C241.0002,-394.5831 250.6373,-383.6075 258.6076,-374.5302"/>
<polygon fill="#191970" stroke="#191970" points="261.3859,-376.6707 265.3539,-366.8469 256.1258,-372.052 261.3859,-376.6707"/>
</g>
<!-- Node37&#45;&gt;Node1 -->
<g id="edge73" class="edge">
<title>Node37&#45;&gt;Node1</title>
<path fill="none" stroke="#191970" d="M1080.3701,-168.3795C1054.5465,-146.2315 1006.6258,-105.1316 980.0294,-82.3209"/>
<polygon fill="#191970" stroke="#191970" points="982.0678,-79.4581 972.1986,-75.6046 977.5106,-84.7716 982.0678,-79.4581"/>
</g>
<!-- Node37&#45;&gt;Node29 -->
<g id="edge72" class="edge">
<title>Node37&#45;&gt;Node29</title>
<path fill="none" stroke="#191970" d="M1027.1928,-172.3628C956.5059,-161.2445 848.4923,-144.2552 777.8058,-133.137"/>
<polygon fill="#191970" stroke="#191970" points="778.0788,-129.637 767.6564,-131.5406 776.9911,-136.5519 778.0788,-129.637"/>
</g>
</g>
</svg>
