<?xml version="1.0" encoding="UTF-8" standalone="no"?>
<!DOCTYPE svg PUBLIC "-//W3C//DTD SVG 1.1//EN"
 "http://www.w3.org/Graphics/SVG/1.1/DTD/svg11.dtd">
<!-- Generated by graphviz version 2.40.1 (20161225.0304)
 -->
<!-- Title: L2NormCost.cpp Pages: 1 -->
<svg width="1741pt" height="543pt"
 viewBox="0.00 0.00 1741.00 543.00" xmlns="http://www.w3.org/2000/svg" xmlns:xlink="http://www.w3.org/1999/xlink">
<g id="graph0" class="graph" transform="scale(1 1) rotate(0) translate(4 539)">
<title>L2NormCost.cpp</title>
<!-- Node0 -->
<g id="node1" class="node">
<title>Node0</title>
<polygon fill="#bfbfbf" stroke="#000000" points="833.5,-515.5 833.5,-534.5 930.5,-534.5 930.5,-515.5 833.5,-515.5"/>
<text text-anchor="middle" x="882" y="-522.5" font-family="FreeSans.ttf" font-size="10.00" fill="#000000">L2NormCost.cpp</text>
</g>
<!-- Node1 -->
<g id="node2" class="node">
<title>Node1</title>
<g id="a_node2"><a xlink:href="L2NormCost_8h.html" target="_top" xlink:title="iDynTree/L2NormCost.h">
<polygon fill="none" stroke="#000000" points="501.5,-459.5 501.5,-478.5 632.5,-478.5 632.5,-459.5 501.5,-459.5"/>
<text text-anchor="middle" x="567" y="-466.5" font-family="FreeSans.ttf" font-size="10.00" fill="#000000">iDynTree/L2NormCost.h</text>
</a>
</g>
</g>
<!-- Node0&#45;&gt;Node1 -->
<g id="edge1" class="edge">
<title>Node0&#45;&gt;Node1</title>
<path fill="none" stroke="#191970" d="M833.4716,-516.3727C779.0643,-506.7003 690.6284,-490.9784 630.6979,-480.3241"/>
<polygon fill="#191970" stroke="#191970" points="631.0533,-476.8325 620.5951,-478.528 629.828,-483.7244 631.0533,-476.8325"/>
</g>
<!-- Node5 -->
<g id="node6" class="node">
<title>Node5</title>
<g id="a_node6"><a xlink:href="Utils_8h.html" target="_top" xlink:title="iDynTree/Core/Utils.h">
<polygon fill="none" stroke="#000000" points="697.5,-56.5 697.5,-75.5 816.5,-75.5 816.5,-56.5 697.5,-56.5"/>
<text text-anchor="middle" x="757" y="-63.5" font-family="FreeSans.ttf" font-size="10.00" fill="#000000">iDynTree/Core/Utils.h</text>
</a>
</g>
</g>
<!-- Node0&#45;&gt;Node5 -->
<g id="edge61" class="edge">
<title>Node0&#45;&gt;Node5</title>
<path fill="none" stroke="#191970" d="M882.0511,-515.117C882.0037,-502.1732 881.5253,-478.7977 879,-459 871.9302,-403.5744 871.2786,-388.8003 853,-336 829.0065,-266.6915 808.6038,-255.5365 780,-188 769.693,-163.6641 765.1008,-157.9317 760,-132 756.9865,-116.6798 756.3295,-98.9911 756.375,-85.7844"/>
<polygon fill="#191970" stroke="#191970" points="759.8793,-85.5641 756.5543,-75.5045 752.8804,-85.4419 759.8793,-85.5641"/>
</g>
<!-- Node11 -->
<g id="node12" class="node">
<title>Node11</title>
<g id="a_node12"><a xlink:href="VectorDynSize_8h.html" target="_top" xlink:title="iDynTree/Core/VectorDynSize.h">
<polygon fill="none" stroke="#000000" points="353.5,-336.5 353.5,-355.5 520.5,-355.5 520.5,-336.5 353.5,-336.5"/>
<text text-anchor="middle" x="437" y="-343.5" font-family="FreeSans.ttf" font-size="10.00" fill="#000000">iDynTree/Core/VectorDynSize.h</text>
</a>
</g>
</g>
<!-- Node0&#45;&gt;Node11 -->
<g id="edge60" class="edge">
<title>Node0&#45;&gt;Node11</title>
<path fill="none" stroke="#191970" d="M833.3757,-524.1678C741.9415,-521.8153 548.5051,-512.8661 492,-479 452.4879,-455.3185 441.3612,-396.769 438.228,-365.8539"/>
<polygon fill="#191970" stroke="#191970" points="441.7114,-365.507 437.3976,-355.8301 434.7353,-366.085 441.7114,-365.507"/>
</g>
<!-- Node12 -->
<g id="node13" class="node">
<title>Node12</title>
<g id="a_node13"><a xlink:href="Span_8h.html" target="_top" xlink:title="iDynTree/Core/Span.h">
<polygon fill="none" stroke="#000000" points="191.5,-56.5 191.5,-75.5 312.5,-75.5 312.5,-56.5 191.5,-56.5"/>
<text text-anchor="middle" x="252" y="-63.5" font-family="FreeSans.ttf" font-size="10.00" fill="#000000">iDynTree/Core/Span.h</text>
</a>
</g>
</g>
<!-- Node0&#45;&gt;Node12 -->
<g id="edge62" class="edge">
<title>Node0&#45;&gt;Node12</title>
<path fill="none" stroke="#191970" d="M833.4686,-521.4963C681.0498,-509.8507 222,-469.6205 222,-407.5 222,-407.5 222,-407.5 222,-178 222,-144.4397 234.7236,-107.0899 243.5984,-85.12"/>
<polygon fill="#191970" stroke="#191970" points="246.9286,-86.2294 247.5734,-75.6542 240.4745,-83.5191 246.9286,-86.2294"/>
</g>
<!-- Node13 -->
<g id="node14" class="node">
<title>Node13</title>
<polygon fill="none" stroke="#bfbfbf" points="1295,-.5 1295,-19.5 1347,-19.5 1347,-.5 1295,-.5"/>
<text text-anchor="middle" x="1321" y="-7.5" font-family="FreeSans.ttf" font-size="10.00" fill="#000000">cassert</text>
</g>
<!-- Node0&#45;&gt;Node13 -->
<g id="edge63" class="edge">
<title>Node0&#45;&gt;Node13</title>
<path fill="none" stroke="#191970" d="M930.5004,-523.4524C1110.9261,-517.0616 1733,-489.1101 1733,-407.5 1733,-407.5 1733,-407.5 1733,-122 1733,-73.1111 1690.1755,-74.6894 1645,-56 1593.461,-34.6779 1430.3899,-19.0035 1357.187,-12.8561"/>
<polygon fill="#191970" stroke="#191970" points="1357.3171,-9.355 1347.0626,-12.0187 1356.7401,-16.3312 1357.3171,-9.355"/>
</g>
<!-- Node21 -->
<g id="node22" class="node">
<title>Node21</title>
<g id="a_node22"><a xlink:href="MatrixDynSize_8h.html" target="_top" xlink:title="iDynTree/Core/MatrixDynSize.h">
<polygon fill="none" stroke="#000000" points="676.5,-336.5 676.5,-355.5 843.5,-355.5 843.5,-336.5 676.5,-336.5"/>
<text text-anchor="middle" x="760" y="-343.5" font-family="FreeSans.ttf" font-size="10.00" fill="#000000">iDynTree/Core/MatrixDynSize.h</text>
</a>
</g>
</g>
<!-- Node0&#45;&gt;Node21 -->
<g id="edge59" class="edge">
<title>Node0&#45;&gt;Node21</title>
<path fill="none" stroke="#191970" d="M879.805,-515.3578C874.1175,-492.0506 857.0627,-431.6565 825,-392 814.8583,-379.4563 800.4586,-368.7911 787.789,-360.8978"/>
<polygon fill="#191970" stroke="#191970" points="789.3406,-357.7487 778.9551,-355.653 785.7669,-363.7677 789.3406,-357.7487"/>
</g>
<!-- Node34 -->
<g id="node35" class="node">
<title>Node34</title>
<polygon fill="none" stroke="#bfbfbf" points="1627.5,-398 1627.5,-417 1704.5,-417 1704.5,-398 1627.5,-398"/>
<text text-anchor="middle" x="1666" y="-405" font-family="FreeSans.ttf" font-size="10.00" fill="#000000">Eigen/Dense</text>
</g>
<!-- Node0&#45;&gt;Node34 -->
<g id="edge64" class="edge">
<title>Node0&#45;&gt;Node34</title>
<path fill="none" stroke="#191970" d="M930.7617,-520.7028C1048.8244,-509.7562 1359.032,-477.7492 1613,-423 1617.3885,-422.0539 1621.9449,-420.9354 1626.461,-419.739"/>
<polygon fill="#191970" stroke="#191970" points="1627.5039,-423.0819 1636.202,-417.0326 1625.63,-416.3374 1627.5039,-423.0819"/>
</g>
<!-- Node35 -->
<g id="node36" class="node">
<title>Node35</title>
<g id="a_node36"><a xlink:href="EigenHelpers_8h.html" target="_top" xlink:title="iDynTree/Core/EigenHelpers.h">
<polygon fill="none" stroke="#000000" points="1045.5,-459.5 1045.5,-478.5 1206.5,-478.5 1206.5,-459.5 1045.5,-459.5"/>
<text text-anchor="middle" x="1126" y="-466.5" font-family="FreeSans.ttf" font-size="10.00" fill="#000000">iDynTree/Core/EigenHelpers.h</text>
</a>
</g>
</g>
<!-- Node0&#45;&gt;Node35 -->
<g id="edge65" class="edge">
<title>Node0&#45;&gt;Node35</title>
<path fill="none" stroke="#191970" d="M923.6679,-515.4369C965.4266,-505.8529 1029.7891,-491.0812 1074.6728,-480.78"/>
<polygon fill="#191970" stroke="#191970" points="1075.5404,-484.172 1084.504,-478.5237 1073.9745,-477.3494 1075.5404,-484.172"/>
</g>
<!-- Node2 -->
<g id="node3" class="node">
<title>Node2</title>
<g id="a_node3"><a xlink:href="Cost_8h.html" target="_top" xlink:title="iDynTree/Cost.h">
<polygon fill="none" stroke="#000000" points="319.5,-168.5 319.5,-187.5 412.5,-187.5 412.5,-168.5 319.5,-168.5"/>
<text text-anchor="middle" x="366" y="-175.5" font-family="FreeSans.ttf" font-size="10.00" fill="#000000">iDynTree/Cost.h</text>
</a>
</g>
</g>
<!-- Node1&#45;&gt;Node2 -->
<g id="edge2" class="edge">
<title>Node1&#45;&gt;Node2</title>
<path fill="none" stroke="#191970" d="M501.464,-463.4104C430.0992,-453.3114 326,-425.0347 326,-346 326,-346 326,-346 326,-290 326,-255.4432 343.097,-218.1996 354.9358,-196.5529"/>
<polygon fill="#191970" stroke="#191970" points="358.0287,-198.1941 359.9249,-187.7703 351.9422,-194.7365 358.0287,-198.1941"/>
</g>
<!-- Node3 -->
<g id="node4" class="node">
<title>Node3</title>
<polygon fill="none" stroke="#bfbfbf" points="618,-56.5 618,-75.5 662,-75.5 662,-56.5 618,-56.5"/>
<text text-anchor="middle" x="640" y="-63.5" font-family="FreeSans.ttf" font-size="10.00" fill="#000000">string</text>
</g>
<!-- Node1&#45;&gt;Node3 -->
<g id="edge58" class="edge">
<title>Node1&#45;&gt;Node3</title>
<path fill="none" stroke="#191970" d="M564.4376,-459.1946C559.2514,-438.4585 548,-388.5666 548,-346 548,-346 548,-346 548,-178 548,-135.5397 587.9701,-100.3942 615.219,-81.3678"/>
<polygon fill="#191970" stroke="#191970" points="617.2043,-84.2506 623.5522,-75.768 613.3,-78.4405 617.2043,-84.2506"/>
</g>
<!-- Node1&#45;&gt;Node5 -->
<g id="edge56" class="edge">
<title>Node1&#45;&gt;Node5</title>
<path fill="none" stroke="#191970" d="M569.5624,-459.1946C574.7486,-438.4585 586,-388.5666 586,-346 586,-346 586,-346 586,-290 586,-193.9371 686.591,-113.4617 733.4713,-81.1724"/>
<polygon fill="#191970" stroke="#191970" points="735.4912,-84.0318 741.8249,-75.5386 731.5772,-78.2283 735.4912,-84.0318"/>
</g>
<!-- Node10 -->
<g id="node11" class="node">
<title>Node10</title>
<g id="a_node11"><a xlink:href="TimeVaryingObject_8h.html" target="_top" xlink:title="iDynTree/TimeVaryingObject.h">
<polygon fill="none" stroke="#000000" points="652,-398 652,-417 816,-417 816,-398 652,-398"/>
<text text-anchor="middle" x="734" y="-405" font-family="FreeSans.ttf" font-size="10.00" fill="#000000">iDynTree/TimeVaryingObject.h</text>
</a>
</g>
</g>
<!-- Node1&#45;&gt;Node10 -->
<g id="edge12" class="edge">
<title>Node1&#45;&gt;Node10</title>
<path fill="none" stroke="#191970" d="M593.0938,-459.3906C621.4036,-448.9652 666.7768,-432.2559 698.3592,-420.6252"/>
<polygon fill="#191970" stroke="#191970" points="699.9151,-423.7821 708.0895,-417.0419 697.496,-417.2133 699.9151,-423.7821"/>
</g>
<!-- Node33 -->
<g id="node34" class="node">
<title>Node33</title>
<polygon fill="none" stroke="#bfbfbf" points="462,-398 462,-417 520,-417 520,-398 462,-398"/>
<text text-anchor="middle" x="491" y="-405" font-family="FreeSans.ttf" font-size="10.00" fill="#000000">memory</text>
</g>
<!-- Node1&#45;&gt;Node33 -->
<g id="edge57" class="edge">
<title>Node1&#45;&gt;Node33</title>
<path fill="none" stroke="#191970" d="M555.125,-459.3906C543.3703,-449.8786 525.1514,-435.1357 511.1328,-423.7917"/>
<polygon fill="#191970" stroke="#191970" points="513.0178,-420.8146 503.0424,-417.2449 508.6144,-426.2562 513.0178,-420.8146"/>
</g>
<!-- Node2&#45;&gt;Node3 -->
<g id="edge3" class="edge">
<title>Node2&#45;&gt;Node3</title>
<path fill="none" stroke="#191970" d="M383.9852,-168.416C414.1969,-152.3938 473.9892,-121.0346 496,-112 533.5726,-96.578 578.3412,-82.9917 607.8756,-74.6573"/>
<polygon fill="#191970" stroke="#191970" points="608.9564,-77.9896 617.6501,-71.934 607.0776,-71.2464 608.9564,-77.9896"/>
</g>
<!-- Node4 -->
<g id="node5" class="node">
<title>Node4</title>
<g id="a_node5"><a xlink:href="SparsityStructure_8h.html" target="_top" xlink:title="iDynTree/SparsityStructure.h">
<polygon fill="none" stroke="#000000" points="288.5,-112.5 288.5,-131.5 443.5,-131.5 443.5,-112.5 288.5,-112.5"/>
<text text-anchor="middle" x="366" y="-119.5" font-family="FreeSans.ttf" font-size="10.00" fill="#000000">iDynTree/SparsityStructure.h</text>
</a>
</g>
</g>
<!-- Node2&#45;&gt;Node4 -->
<g id="edge4" class="edge">
<title>Node2&#45;&gt;Node4</title>
<path fill="none" stroke="#191970" d="M366,-168.2455C366,-160.9382 366,-150.6944 366,-141.7046"/>
<polygon fill="#191970" stroke="#191970" points="369.5001,-141.6426 366,-131.6427 362.5001,-141.6427 369.5001,-141.6426"/>
</g>
<!-- Node4&#45;&gt;Node3 -->
<g id="edge11" class="edge">
<title>Node4&#45;&gt;Node3</title>
<path fill="none" stroke="#191970" d="M412.791,-112.4369C468.4688,-101.0575 559.9308,-82.3645 608.075,-72.5248"/>
<polygon fill="#191970" stroke="#191970" points="608.8453,-75.9398 617.9419,-70.5082 607.4435,-69.0816 608.8453,-75.9398"/>
</g>
<!-- Node4&#45;&gt;Node5 -->
<g id="edge5" class="edge">
<title>Node4&#45;&gt;Node5</title>
<path fill="none" stroke="#191970" d="M432.771,-112.4369C503.5575,-102.2987 614.8762,-86.3553 686.9022,-76.0396"/>
<polygon fill="#191970" stroke="#191970" points="687.8317,-79.4423 697.2344,-74.5598 686.8392,-72.513 687.8317,-79.4423"/>
</g>
<!-- Node6 -->
<g id="node7" class="node">
<title>Node6</title>
<polygon fill="none" stroke="#bfbfbf" points="510.5,-.5 510.5,-19.5 563.5,-19.5 563.5,-.5 510.5,-.5"/>
<text text-anchor="middle" x="537" y="-7.5" font-family="FreeSans.ttf" font-size="10.00" fill="#000000">cstddef</text>
</g>
<!-- Node4&#45;&gt;Node6 -->
<g id="edge9" class="edge">
<title>Node4&#45;&gt;Node6</title>
<path fill="none" stroke="#191970" d="M411.2248,-112.4824C436.5633,-105.496 467.6608,-94.0153 491,-76 507.1697,-63.5188 519.8773,-43.7578 527.8012,-29.1083"/>
<polygon fill="#191970" stroke="#191970" points="531.0566,-30.4304 532.5065,-19.9353 524.8282,-27.2356 531.0566,-30.4304"/>
</g>
<!-- Node8 -->
<g id="node9" class="node">
<title>Node8</title>
<polygon fill="none" stroke="#bfbfbf" points="435.5,-56.5 435.5,-75.5 482.5,-75.5 482.5,-56.5 435.5,-56.5"/>
<text text-anchor="middle" x="459" y="-63.5" font-family="FreeSans.ttf" font-size="10.00" fill="#000000">vector</text>
</g>
<!-- Node4&#45;&gt;Node8 -->
<g id="edge8" class="edge">
<title>Node4&#45;&gt;Node8</title>
<path fill="none" stroke="#191970" d="M382.1994,-112.2455C396.6018,-103.5731 417.8732,-90.7645 434.3799,-80.825"/>
<polygon fill="#191970" stroke="#191970" points="436.225,-83.7996 442.9863,-75.6427 432.614,-77.8028 436.225,-83.7996"/>
</g>
<!-- Node9 -->
<g id="node10" class="node">
<title>Node9</title>
<polygon fill="none" stroke="#bfbfbf" points="331,-56.5 331,-75.5 417,-75.5 417,-56.5 331,-56.5"/>
<text text-anchor="middle" x="374" y="-63.5" font-family="FreeSans.ttf" font-size="10.00" fill="#000000">unordered_set</text>
</g>
<!-- Node4&#45;&gt;Node9 -->
<g id="edge10" class="edge">
<title>Node4&#45;&gt;Node9</title>
<path fill="none" stroke="#191970" d="M367.3935,-112.2455C368.4374,-104.9382 369.9008,-94.6944 371.1851,-85.7046"/>
<polygon fill="#191970" stroke="#191970" points="374.673,-86.0372 372.6225,-75.6427 367.7434,-85.0472 374.673,-86.0372"/>
</g>
<!-- Node5&#45;&gt;Node6 -->
<g id="edge6" class="edge">
<title>Node5&#45;&gt;Node6</title>
<path fill="none" stroke="#191970" d="M719.1807,-56.3733C678.3818,-45.9881 613.8645,-29.5655 573.5614,-19.3065"/>
<polygon fill="#191970" stroke="#191970" points="574.1728,-15.8506 563.6184,-16.7756 572.446,-22.6343 574.1728,-15.8506"/>
</g>
<!-- Node7 -->
<g id="node8" class="node">
<title>Node7</title>
<polygon fill="none" stroke="#bfbfbf" points="717,-.5 717,-19.5 797,-19.5 797,-.5 717,-.5"/>
<text text-anchor="middle" x="757" y="-7.5" font-family="FreeSans.ttf" font-size="10.00" fill="#000000">CoreExport.h</text>
</g>
<!-- Node5&#45;&gt;Node7 -->
<g id="edge7" class="edge">
<title>Node5&#45;&gt;Node7</title>
<path fill="none" stroke="#191970" d="M757,-56.2455C757,-48.9382 757,-38.6944 757,-29.7046"/>
<polygon fill="#191970" stroke="#191970" points="760.5001,-29.6426 757,-19.6427 753.5001,-29.6427 760.5001,-29.6426"/>
</g>
<!-- Node10&#45;&gt;Node11 -->
<g id="edge13" class="edge">
<title>Node10&#45;&gt;Node11</title>
<path fill="none" stroke="#191970" d="M687.9196,-397.9581C635.3527,-387.073 549.4017,-369.2751 493.0123,-357.5985"/>
<polygon fill="#191970" stroke="#191970" points="493.6905,-354.1648 483.1885,-355.5643 492.271,-361.0193 493.6905,-354.1648"/>
</g>
<!-- Node10&#45;&gt;Node21 -->
<g id="edge25" class="edge">
<title>Node10&#45;&gt;Node21</title>
<path fill="none" stroke="#191970" d="M738.0625,-397.8906C741.7424,-389.1862 747.2742,-376.1015 751.862,-365.2494"/>
<polygon fill="#191970" stroke="#191970" points="755.21,-366.3185 755.8802,-355.7449 748.7625,-363.5927 755.21,-366.3185"/>
</g>
<!-- Node22 -->
<g id="node23" class="node">
<title>Node22</title>
<g id="a_node23"><a xlink:href="Transform_8h.html" target="_top" xlink:title="iDynTree/Core/Transform.h">
<polygon fill="none" stroke="#000000" points="1003,-336.5 1003,-355.5 1149,-355.5 1149,-336.5 1003,-336.5"/>
<text text-anchor="middle" x="1076" y="-343.5" font-family="FreeSans.ttf" font-size="10.00" fill="#000000">iDynTree/Core/Transform.h</text>
</a>
</g>
</g>
<!-- Node10&#45;&gt;Node22 -->
<g id="edge27" class="edge">
<title>Node10&#45;&gt;Node22</title>
<path fill="none" stroke="#191970" d="M787.0623,-397.9581C848.0589,-386.9894 948.0907,-369.0012 1012.9915,-357.3305"/>
<polygon fill="#191970" stroke="#191970" points="1013.872,-360.7284 1023.0947,-355.5137 1012.633,-353.8389 1013.872,-360.7284"/>
</g>
<!-- Node11&#45;&gt;Node3 -->
<g id="edge24" class="edge">
<title>Node11&#45;&gt;Node3</title>
<path fill="none" stroke="#191970" d="M449.0545,-336.2989C469.7885,-318.4329 510,-278.0991 510,-234 510,-234 510,-234 510,-178 510,-146.7875 512.6089,-134.7298 534,-112 553.7607,-91.0026 584.7459,-79.0828 608.1226,-72.6663"/>
<polygon fill="#191970" stroke="#191970" points="609.112,-76.0261 617.9397,-70.1676 607.3853,-69.2424 609.112,-76.0261"/>
</g>
<!-- Node11&#45;&gt;Node12 -->
<g id="edge14" class="edge">
<title>Node11&#45;&gt;Node12</title>
<path fill="none" stroke="#191970" d="M428.3627,-336.469C406.9053,-312.5458 350.0222,-247.6044 310,-188 294.1416,-164.3823 291.2957,-157.6535 279,-132 271.569,-116.496 264.2546,-98.3905 259.1172,-85.0685"/>
<polygon fill="#191970" stroke="#191970" points="262.3253,-83.6573 255.5032,-75.5512 255.7812,-86.1424 262.3253,-83.6573"/>
</g>
<!-- Node12&#45;&gt;Node6 -->
<g id="edge18" class="edge">
<title>Node12&#45;&gt;Node6</title>
<path fill="none" stroke="#191970" d="M311.6708,-56.4982C360.0293,-48.4511 430.1076,-36.0086 500.4113,-19.9764"/>
<polygon fill="#191970" stroke="#191970" points="501.3721,-23.3468 510.3307,-17.6905 499.8001,-16.5256 501.3721,-23.3468"/>
</g>
<!-- Node12&#45;&gt;Node13 -->
<g id="edge15" class="edge">
<title>Node12&#45;&gt;Node13</title>
<path fill="none" stroke="#191970" d="M312.6641,-56.9708C315.8182,-56.615 318.9445,-56.2879 322,-56 696.9276,-20.6695 1153.6785,-12.1861 1284.4481,-10.4189"/>
<polygon fill="#191970" stroke="#191970" points="1284.7414,-13.9154 1294.6949,-10.2853 1284.6501,-6.916 1284.7414,-13.9154"/>
</g>
<!-- Node14 -->
<g id="node15" class="node">
<title>Node14</title>
<polygon fill="none" stroke="#bfbfbf" points="428,-.5 428,-19.5 492,-19.5 492,-.5 428,-.5"/>
<text text-anchor="middle" x="460" y="-7.5" font-family="FreeSans.ttf" font-size="10.00" fill="#000000">algorithm</text>
</g>
<!-- Node12&#45;&gt;Node14 -->
<g id="edge16" class="edge">
<title>Node12&#45;&gt;Node14</title>
<path fill="none" stroke="#191970" d="M287.7565,-56.3733C323.9023,-46.6417 379.739,-31.6087 417.9777,-21.3137"/>
<polygon fill="#191970" stroke="#191970" points="419.0345,-24.6539 427.7807,-18.6744 417.2146,-17.8946 419.0345,-24.6539"/>
</g>
<!-- Node15 -->
<g id="node16" class="node">
<title>Node15</title>
<polygon fill="none" stroke="#bfbfbf" points="0,-.5 0,-19.5 42,-19.5 42,-.5 0,-.5"/>
<text text-anchor="middle" x="21" y="-7.5" font-family="FreeSans.ttf" font-size="10.00" fill="#000000">array</text>
</g>
<!-- Node12&#45;&gt;Node15 -->
<g id="edge17" class="edge">
<title>Node12&#45;&gt;Node15</title>
<path fill="none" stroke="#191970" d="M204.5641,-56.4976C165.8653,-48.4414 109.6149,-36.0425 52.1998,-20.1509"/>
<polygon fill="#191970" stroke="#191970" points="52.8001,-16.6844 42.2267,-17.3579 50.9124,-23.425 52.8001,-16.6844"/>
</g>
<!-- Node16 -->
<g id="node17" class="node">
<title>Node16</title>
<polygon fill="none" stroke="#bfbfbf" points="60.5,-.5 60.5,-19.5 113.5,-19.5 113.5,-.5 60.5,-.5"/>
<text text-anchor="middle" x="87" y="-7.5" font-family="FreeSans.ttf" font-size="10.00" fill="#000000">iterator</text>
</g>
<!-- Node12&#45;&gt;Node16 -->
<g id="edge19" class="edge">
<title>Node12&#45;&gt;Node16</title>
<path fill="none" stroke="#191970" d="M223.6355,-56.3733C195.9034,-46.9611 153.5596,-32.5899 123.3662,-22.3425"/>
<polygon fill="#191970" stroke="#191970" points="124.2255,-18.9381 113.6311,-19.0384 121.9757,-25.5667 124.2255,-18.9381"/>
</g>
<!-- Node17 -->
<g id="node18" class="node">
<title>Node17</title>
<polygon fill="none" stroke="#bfbfbf" points="132,-.5 132,-19.5 176,-19.5 176,-.5 132,-.5"/>
<text text-anchor="middle" x="154" y="-7.5" font-family="FreeSans.ttf" font-size="10.00" fill="#000000">limits</text>
</g>
<!-- Node12&#45;&gt;Node17 -->
<g id="edge20" class="edge">
<title>Node12&#45;&gt;Node17</title>
<path fill="none" stroke="#191970" d="M234.9297,-56.2455C219.753,-47.5731 197.3379,-34.7645 179.9437,-24.825"/>
<polygon fill="#191970" stroke="#191970" points="181.2936,-21.5653 170.8747,-19.6427 177.8206,-27.643 181.2936,-21.5653"/>
</g>
<!-- Node18 -->
<g id="node19" class="node">
<title>Node18</title>
<polygon fill="none" stroke="#bfbfbf" points="194.5,-.5 194.5,-19.5 259.5,-19.5 259.5,-.5 194.5,-.5"/>
<text text-anchor="middle" x="227" y="-7.5" font-family="FreeSans.ttf" font-size="10.00" fill="#000000">stdexcept</text>
</g>
<!-- Node12&#45;&gt;Node18 -->
<g id="edge21" class="edge">
<title>Node12&#45;&gt;Node18</title>
<path fill="none" stroke="#191970" d="M247.6453,-56.2455C244.2756,-48.6973 239.507,-38.0158 235.4017,-28.8197"/>
<polygon fill="#191970" stroke="#191970" points="238.5773,-27.3473 231.3048,-19.6427 232.1853,-30.2009 238.5773,-27.3473"/>
</g>
<!-- Node19 -->
<g id="node20" class="node">
<title>Node19</title>
<polygon fill="none" stroke="#bfbfbf" points="277.5,-.5 277.5,-19.5 346.5,-19.5 346.5,-.5 277.5,-.5"/>
<text text-anchor="middle" x="312" y="-7.5" font-family="FreeSans.ttf" font-size="10.00" fill="#000000">type_traits</text>
</g>
<!-- Node12&#45;&gt;Node19 -->
<g id="edge22" class="edge">
<title>Node12&#45;&gt;Node19</title>
<path fill="none" stroke="#191970" d="M262.4512,-56.2455C271.2269,-48.0549 283.9554,-36.1749 294.314,-26.5069"/>
<polygon fill="#191970" stroke="#191970" points="296.7461,-29.0246 301.6686,-19.6427 291.9699,-23.9072 296.7461,-29.0246"/>
</g>
<!-- Node20 -->
<g id="node21" class="node">
<title>Node20</title>
<polygon fill="none" stroke="#bfbfbf" points="364.5,-.5 364.5,-19.5 409.5,-19.5 409.5,-.5 364.5,-.5"/>
<text text-anchor="middle" x="387" y="-7.5" font-family="FreeSans.ttf" font-size="10.00" fill="#000000">utility</text>
</g>
<!-- Node12&#45;&gt;Node20 -->
<g id="edge23" class="edge">
<title>Node12&#45;&gt;Node20</title>
<path fill="none" stroke="#191970" d="M275.2073,-56.3733C297.1699,-47.2629 330.3332,-33.5062 354.8401,-23.3404"/>
<polygon fill="#191970" stroke="#191970" points="356.1997,-26.5657 364.0955,-19.5011 353.5176,-20.0999 356.1997,-26.5657"/>
</g>
<!-- Node21&#45;&gt;Node3 -->
<g id="edge26" class="edge">
<title>Node21&#45;&gt;Node3</title>
<path fill="none" stroke="#191970" d="M739.8989,-336.4623C724.0549,-328.2866 702.0354,-315.406 686,-300 642.6203,-258.3231 627.6681,-245.5031 610,-188 600.0793,-155.7119 600.3751,-144.3775 610,-112 613.0326,-101.7984 619.1244,-91.7475 625.0309,-83.6555"/>
<polygon fill="#191970" stroke="#191970" points="627.823,-85.7667 631.2139,-75.7291 622.3036,-81.4613 627.823,-85.7667"/>
</g>
<!-- Node22&#45;&gt;Node3 -->
<g id="edge55" class="edge">
<title>Node22&#45;&gt;Node3</title>
<path fill="none" stroke="#191970" d="M1038.4649,-336.4484C1009.6944,-328.4712 969.3941,-315.8596 936,-300 816.0737,-243.0442 781.8206,-226.9242 689,-132 674.5701,-117.2431 660.8056,-98.0953 651.56,-84.2276"/>
<polygon fill="#191970" stroke="#191970" points="654.3217,-82.055 645.9285,-75.5893 648.4577,-85.8778 654.3217,-82.055"/>
</g>
<!-- Node23 -->
<g id="node24" class="node">
<title>Node23</title>
<g id="a_node24"><a xlink:href="Position_8h.html" target="_top" xlink:title="iDynTree/Core/Position.h">
<polygon fill="none" stroke="#000000" points="945,-280.5 945,-299.5 1081,-299.5 1081,-280.5 945,-280.5"/>
<text text-anchor="middle" x="1013" y="-287.5" font-family="FreeSans.ttf" font-size="10.00" fill="#000000">iDynTree/Core/Position.h</text>
</a>
</g>
</g>
<!-- Node22&#45;&gt;Node23 -->
<g id="edge28" class="edge">
<title>Node22&#45;&gt;Node23</title>
<path fill="none" stroke="#191970" d="M1065.0262,-336.2455C1055.8118,-328.0549 1042.4468,-316.1749 1031.5703,-306.5069"/>
<polygon fill="#191970" stroke="#191970" points="1033.6474,-303.6704 1023.848,-299.6427 1028.9968,-308.9023 1033.6474,-303.6704"/>
</g>
<!-- Node28 -->
<g id="node29" class="node">
<title>Node28</title>
<g id="a_node29"><a xlink:href="Rotation_8h.html" target="_top" xlink:title="iDynTree/Core/Rotation.h">
<polygon fill="none" stroke="#000000" points="1040.5,-224.5 1040.5,-243.5 1177.5,-243.5 1177.5,-224.5 1040.5,-224.5"/>
<text text-anchor="middle" x="1109" y="-231.5" font-family="FreeSans.ttf" font-size="10.00" fill="#000000">iDynTree/Core/Rotation.h</text>
</a>
</g>
</g>
<!-- Node22&#45;&gt;Node28 -->
<g id="edge53" class="edge">
<title>Node22&#45;&gt;Node28</title>
<path fill="none" stroke="#191970" d="M1078.9378,-336.4979C1081.8001,-327.205 1086.2554,-312.6468 1090,-300 1094.6018,-284.4582 1099.6738,-266.8122 1103.4191,-253.6789"/>
<polygon fill="#191970" stroke="#191970" points="1106.8444,-254.4296 1106.2137,-243.8535 1100.1114,-252.5145 1106.8444,-254.4296"/>
</g>
<!-- Node31 -->
<g id="node32" class="node">
<title>Node31</title>
<g id="a_node32"><a xlink:href="MatrixFixSize_8h.html" target="_top" xlink:title="iDynTree/Core/MatrixFixSize.h">
<polygon fill="none" stroke="#000000" points="1377.5,-112.5 1377.5,-131.5 1538.5,-131.5 1538.5,-112.5 1377.5,-112.5"/>
<text text-anchor="middle" x="1458" y="-119.5" font-family="FreeSans.ttf" font-size="10.00" fill="#000000">iDynTree/Core/MatrixFixSize.h</text>
</a>
</g>
</g>
<!-- Node22&#45;&gt;Node31 -->
<g id="edge54" class="edge">
<title>Node22&#45;&gt;Node31</title>
<path fill="none" stroke="#191970" d="M1087.7886,-336.3786C1123.3874,-307.6765 1233.6425,-221.3465 1336,-168 1361.9348,-154.4834 1392.766,-142.8935 1416.9455,-134.7284"/>
<polygon fill="#191970" stroke="#191970" points="1418.1391,-138.0201 1426.5308,-131.5524 1415.9374,-131.3754 1418.1391,-138.0201"/>
</g>
<!-- Node23&#45;&gt;Node3 -->
<g id="edge52" class="edge">
<title>Node23&#45;&gt;Node3</title>
<path fill="none" stroke="#191970" d="M987.8572,-280.4367C946.2662,-264.1417 861.1679,-228.7709 795,-188 742.1563,-155.4391 686.4425,-107.8294 658.4119,-82.8022"/>
<polygon fill="#191970" stroke="#191970" points="660.4093,-79.891 650.6353,-75.8018 655.7259,-85.0935 660.4093,-79.891"/>
</g>
<!-- Node24 -->
<g id="node25" class="node">
<title>Node24</title>
<g id="a_node25"><a xlink:href="PositionRaw_8h.html" target="_top" xlink:title="iDynTree/Core/PositionRaw.h">
<polygon fill="none" stroke="#000000" points="804,-168.5 804,-187.5 960,-187.5 960,-168.5 804,-168.5"/>
<text text-anchor="middle" x="882" y="-175.5" font-family="FreeSans.ttf" font-size="10.00" fill="#000000">iDynTree/Core/PositionRaw.h</text>
</a>
</g>
</g>
<!-- Node23&#45;&gt;Node24 -->
<g id="edge29" class="edge">
<title>Node23&#45;&gt;Node24</title>
<path fill="none" stroke="#191970" d="M1001.831,-280.4509C979.4017,-261.2747 928.6643,-217.8962 900.9468,-194.1988"/>
<polygon fill="#191970" stroke="#191970" points="903.0159,-191.363 893.1407,-187.5249 898.4671,-196.6835 903.0159,-191.363"/>
</g>
<!-- Node23&#45;&gt;Node28 -->
<g id="edge38" class="edge">
<title>Node23&#45;&gt;Node28</title>
<path fill="none" stroke="#191970" d="M1029.7219,-280.2455C1044.5889,-271.5731 1066.5466,-258.7645 1083.5858,-248.825"/>
<polygon fill="#191970" stroke="#191970" points="1085.5955,-251.7047 1092.4697,-243.6427 1082.0683,-245.6582 1085.5955,-251.7047"/>
</g>
<!-- Node24&#45;&gt;Node3 -->
<g id="edge37" class="edge">
<title>Node24&#45;&gt;Node3</title>
<path fill="none" stroke="#191970" d="M861.3672,-168.4509C818.5042,-148.6135 719.6782,-102.8758 669.8597,-79.8194"/>
<polygon fill="#191970" stroke="#191970" points="671.1258,-76.5487 660.5806,-75.5249 668.1857,-82.9014 671.1258,-76.5487"/>
</g>
<!-- Node25 -->
<g id="node26" class="node">
<title>Node25</title>
<g id="a_node26"><a xlink:href="VectorFixSize_8h.html" target="_top" xlink:title="iDynTree/Core/VectorFixSize.h">
<polygon fill="none" stroke="#000000" points="1159.5,-112.5 1159.5,-131.5 1320.5,-131.5 1320.5,-112.5 1159.5,-112.5"/>
<text text-anchor="middle" x="1240" y="-119.5" font-family="FreeSans.ttf" font-size="10.00" fill="#000000">iDynTree/Core/VectorFixSize.h</text>
</a>
</g>
</g>
<!-- Node24&#45;&gt;Node25 -->
<g id="edge30" class="edge">
<title>Node24&#45;&gt;Node25</title>
<path fill="none" stroke="#191970" d="M943.1356,-168.4369C1005.8204,-158.6314 1103.2204,-143.3957 1169.211,-133.0731"/>
<polygon fill="#191970" stroke="#191970" points="1169.7776,-136.5272 1179.1165,-131.5237 1168.6957,-129.6113 1169.7776,-136.5272"/>
</g>
<!-- Node25&#45;&gt;Node3 -->
<g id="edge33" class="edge">
<title>Node25&#45;&gt;Node3</title>
<path fill="none" stroke="#191970" d="M1159.2858,-116.4399C1028.8713,-107.257 777.4894,-88.6781 689,-76 683.658,-75.2346 678.0214,-74.2514 672.5483,-73.2013"/>
<polygon fill="#191970" stroke="#191970" points="672.8403,-69.6896 662.3451,-71.1389 671.4534,-76.5508 672.8403,-69.6896"/>
</g>
<!-- Node25&#45;&gt;Node5 -->
<g id="edge31" class="edge">
<title>Node25&#45;&gt;Node5</title>
<path fill="none" stroke="#191970" d="M1159.4286,-112.6584C1066.4845,-101.8823 915.1767,-84.3393 826.97,-74.1125"/>
<polygon fill="#191970" stroke="#191970" points="827.1335,-70.6081 816.7969,-72.933 826.3273,-77.5615 827.1335,-70.6081"/>
</g>
<!-- Node25&#45;&gt;Node12 -->
<g id="edge32" class="edge">
<title>Node25&#45;&gt;Node12</title>
<path fill="none" stroke="#191970" d="M1159.3882,-120.4471C1001.1172,-116.855 638.4481,-105.9441 322.9271,-75.9964"/>
<polygon fill="#191970" stroke="#191970" points="322.9536,-72.483 312.6655,-75.0141 322.2864,-79.4512 322.9536,-72.483"/>
</g>
<!-- Node25&#45;&gt;Node13 -->
<g id="edge35" class="edge">
<title>Node25&#45;&gt;Node13</title>
<path fill="none" stroke="#191970" d="M1246.906,-112.4509C1260.4756,-93.688 1290.8024,-51.7548 1308.1572,-27.758"/>
<polygon fill="#191970" stroke="#191970" points="1311.0873,-29.679 1314.1115,-19.5249 1305.4152,-25.5768 1311.0873,-29.679"/>
</g>
<!-- Node26 -->
<g id="node27" class="node">
<title>Node26</title>
<polygon fill="none" stroke="#bfbfbf" points="1430,-56.5 1430,-75.5 1486,-75.5 1486,-56.5 1430,-56.5"/>
<text text-anchor="middle" x="1458" y="-63.5" font-family="FreeSans.ttf" font-size="10.00" fill="#000000">sstream</text>
</g>
<!-- Node25&#45;&gt;Node26 -->
<g id="edge34" class="edge">
<title>Node25&#45;&gt;Node26</title>
<path fill="none" stroke="#191970" d="M1277.4755,-112.3733C1317.2315,-102.1607 1379.7156,-86.1098 1419.76,-75.8231"/>
<polygon fill="#191970" stroke="#191970" points="1420.8629,-79.1535 1429.6776,-73.2755 1419.1212,-72.3736 1420.8629,-79.1535"/>
</g>
<!-- Node27 -->
<g id="node28" class="node">
<title>Node27</title>
<polygon fill="none" stroke="#bfbfbf" points="1303,-56.5 1303,-75.5 1353,-75.5 1353,-56.5 1303,-56.5"/>
<text text-anchor="middle" x="1328" y="-63.5" font-family="FreeSans.ttf" font-size="10.00" fill="#000000">cstring</text>
</g>
<!-- Node25&#45;&gt;Node27 -->
<g id="edge36" class="edge">
<title>Node25&#45;&gt;Node27</title>
<path fill="none" stroke="#191970" d="M1255.3284,-112.2455C1268.8303,-103.6534 1288.7122,-91.0014 1304.2686,-81.1018"/>
<polygon fill="#191970" stroke="#191970" points="1306.2897,-83.9643 1312.8472,-75.6427 1302.5315,-78.0587 1306.2897,-83.9643"/>
</g>
<!-- Node28&#45;&gt;Node3 -->
<g id="edge39" class="edge">
<title>Node28&#45;&gt;Node3</title>
<path fill="none" stroke="#191970" d="M1086.533,-224.3367C1065.7436,-215.2845 1034.0589,-201.2072 1007,-188 989.8487,-179.6286 986.6335,-175.3011 969,-168 863.1925,-124.1909 731.5809,-88.8472 671.9793,-73.8188"/>
<polygon fill="#191970" stroke="#191970" points="672.594,-70.3648 662.0436,-71.334 670.8957,-77.1556 672.594,-70.3648"/>
</g>
<!-- Node28&#45;&gt;Node25 -->
<g id="edge51" class="edge">
<title>Node28&#45;&gt;Node25</title>
<path fill="none" stroke="#191970" d="M1127.6837,-224.4548C1143.311,-216.0028 1165.7524,-202.7441 1183,-188 1199.8038,-173.6353 1215.9823,-154.1856 1226.7821,-140.1248"/>
<polygon fill="#191970" stroke="#191970" points="1229.8493,-141.8689 1233.0549,-131.7706 1224.2516,-137.6658 1229.8493,-141.8689"/>
</g>
<!-- Node29 -->
<g id="node30" class="node">
<title>Node29</title>
<g id="a_node30"><a xlink:href="GeomVector3_8h.html" target="_top" xlink:title="iDynTree/Core/GeomVector3.h">
<polygon fill="none" stroke="#000000" points="1344.5,-168.5 1344.5,-187.5 1507.5,-187.5 1507.5,-168.5 1344.5,-168.5"/>
<text text-anchor="middle" x="1426" y="-175.5" font-family="FreeSans.ttf" font-size="10.00" fill="#000000">iDynTree/Core/GeomVector3.h</text>
</a>
</g>
</g>
<!-- Node28&#45;&gt;Node29 -->
<g id="edge40" class="edge">
<title>Node28&#45;&gt;Node29</title>
<path fill="none" stroke="#191970" d="M1163.1341,-224.4369C1218.298,-214.6918 1303.8237,-199.5832 1362.2351,-189.2645"/>
<polygon fill="#191970" stroke="#191970" points="1362.8506,-192.71 1372.0892,-187.5237 1361.6328,-185.8167 1362.8506,-192.71"/>
</g>
<!-- Node30 -->
<g id="node31" class="node">
<title>Node30</title>
<g id="a_node31"><a xlink:href="RotationRaw_8h.html" target="_top" xlink:title="iDynTree/Core/RotationRaw.h">
<polygon fill="none" stroke="#000000" points="1016,-168.5 1016,-187.5 1174,-187.5 1174,-168.5 1016,-168.5"/>
<text text-anchor="middle" x="1095" y="-175.5" font-family="FreeSans.ttf" font-size="10.00" fill="#000000">iDynTree/Core/RotationRaw.h</text>
</a>
</g>
</g>
<!-- Node28&#45;&gt;Node30 -->
<g id="edge42" class="edge">
<title>Node28&#45;&gt;Node30</title>
<path fill="none" stroke="#191970" d="M1106.5614,-224.2455C1104.7145,-216.8579 1102.1172,-206.4689 1099.8522,-197.4087"/>
<polygon fill="#191970" stroke="#191970" points="1103.2316,-196.4952 1097.4107,-187.6427 1096.4406,-198.193 1103.2316,-196.4952"/>
</g>
<!-- Node29&#45;&gt;Node25 -->
<g id="edge41" class="edge">
<title>Node29&#45;&gt;Node25</title>
<path fill="none" stroke="#191970" d="M1394.0255,-168.3733C1362.8287,-158.9807 1315.229,-144.6496 1281.2068,-134.4064"/>
<polygon fill="#191970" stroke="#191970" points="1282.1418,-131.0327 1271.5573,-131.5011 1280.1237,-137.7355 1282.1418,-131.0327"/>
</g>
<!-- Node30&#45;&gt;Node3 -->
<g id="edge50" class="edge">
<title>Node30&#45;&gt;Node3</title>
<path fill="none" stroke="#191970" d="M1085.1414,-168.3672C1069.1793,-153.4264 1036.0184,-125.0324 1002,-112 871.239,-61.9056 827.2859,-98.0208 689,-76 683.6706,-75.1513 678.0405,-74.1253 672.5699,-73.058"/>
<polygon fill="#191970" stroke="#191970" points="672.8635,-69.5464 662.3675,-70.9905 671.4732,-76.407 672.8635,-69.5464"/>
</g>
<!-- Node30&#45;&gt;Node31 -->
<g id="edge43" class="edge">
<title>Node30&#45;&gt;Node31</title>
<path fill="none" stroke="#191970" d="M1156.9895,-168.4369C1220.5498,-158.6314 1319.3101,-143.3957 1386.2223,-133.0731"/>
<polygon fill="#191970" stroke="#191970" points="1386.9168,-136.5075 1396.2662,-131.5237 1385.8495,-129.5893 1386.9168,-136.5075"/>
</g>
<!-- Node31&#45;&gt;Node3 -->
<g id="edge47" class="edge">
<title>Node31&#45;&gt;Node3</title>
<path fill="none" stroke="#191970" d="M1377.4482,-115.4369C1361.7177,-114.2316 1345.3455,-113.0302 1330,-112 1045.303,-92.8867 971.9776,-112.6246 689,-76 683.6481,-75.3073 678.0064,-74.3615 672.5312,-73.3263"/>
<polygon fill="#191970" stroke="#191970" points="672.822,-69.8145 662.3274,-71.2684 671.4381,-76.6764 672.822,-69.8145"/>
</g>
<!-- Node31&#45;&gt;Node5 -->
<g id="edge44" class="edge">
<title>Node31&#45;&gt;Node5</title>
<path fill="none" stroke="#191970" d="M1377.4225,-113.3543C1372.5438,-112.8816 1367.7072,-112.4263 1363,-112 1169.1357,-94.4425 939.9624,-78.3006 827.0573,-70.6527"/>
<polygon fill="#191970" stroke="#191970" points="827.0409,-67.1437 816.8277,-69.9615 826.569,-74.1278 827.0409,-67.1437"/>
</g>
<!-- Node31&#45;&gt;Node13 -->
<g id="edge45" class="edge">
<title>Node31&#45;&gt;Node13</title>
<path fill="none" stroke="#191970" d="M1446.3195,-112.4509C1422.7617,-93.1921 1369.3437,-49.5218 1340.4411,-25.8935"/>
<polygon fill="#191970" stroke="#191970" points="1342.6084,-23.1445 1332.651,-19.5249 1338.1778,-28.564 1342.6084,-23.1445"/>
</g>
<!-- Node31&#45;&gt;Node26 -->
<g id="edge49" class="edge">
<title>Node31&#45;&gt;Node26</title>
<path fill="none" stroke="#191970" d="M1458,-112.2455C1458,-104.9382 1458,-94.6944 1458,-85.7046"/>
<polygon fill="#191970" stroke="#191970" points="1461.5001,-85.6426 1458,-75.6427 1454.5001,-85.6427 1461.5001,-85.6426"/>
</g>
<!-- Node31&#45;&gt;Node27 -->
<g id="edge46" class="edge">
<title>Node31&#45;&gt;Node27</title>
<path fill="none" stroke="#191970" d="M1435.6522,-112.3733C1414.5967,-103.3032 1382.8505,-89.6279 1359.2825,-79.4755"/>
<polygon fill="#191970" stroke="#191970" points="1360.625,-76.243 1350.0562,-75.5011 1357.8556,-82.6719 1360.625,-76.243"/>
</g>
<!-- Node32 -->
<g id="node33" class="node">
<title>Node32</title>
<polygon fill="none" stroke="#bfbfbf" points="1576,-56.5 1576,-75.5 1636,-75.5 1636,-56.5 1576,-56.5"/>
<text text-anchor="middle" x="1606" y="-63.5" font-family="FreeSans.ttf" font-size="10.00" fill="#000000">iostream</text>
</g>
<!-- Node31&#45;&gt;Node32 -->
<g id="edge48" class="edge">
<title>Node31&#45;&gt;Node32</title>
<path fill="none" stroke="#191970" d="M1483.4421,-112.3733C1507.7326,-103.1822 1544.5208,-89.2624 1571.4543,-79.0713"/>
<polygon fill="#191970" stroke="#191970" points="1572.7757,-82.3136 1580.8899,-75.5011 1570.2984,-75.7666 1572.7757,-82.3136"/>
</g>
<!-- Node35&#45;&gt;Node5 -->
<g id="edge86" class="edge">
<title>Node35&#45;&gt;Node5</title>
<path fill="none" stroke="#191970" d="M1109.0025,-459.4356C1054.7026,-428.011 883.7934,-322.2256 795,-188 773.7719,-155.9103 763.8657,-111.3044 759.684,-85.8704"/>
<polygon fill="#191970" stroke="#191970" points="763.0948,-85.0151 758.1454,-75.6474 756.1728,-86.057 763.0948,-85.0151"/>
</g>
<!-- Node35&#45;&gt;Node11 -->
<g id="edge67" class="edge">
<title>Node35&#45;&gt;Node11</title>
<path fill="none" stroke="#191970" d="M1045.0505,-463.8735C927.9761,-456.0184 717.2873,-440.1065 643,-423 578.0013,-408.0325 505.7843,-377.6358 466.4689,-359.8378"/>
<polygon fill="#191970" stroke="#191970" points="467.7564,-356.578 457.2067,-355.6013 464.8448,-362.9437 467.7564,-356.578"/>
</g>
<!-- Node35&#45;&gt;Node21 -->
<g id="edge69" class="edge">
<title>Node35&#45;&gt;Node21</title>
<path fill="none" stroke="#191970" d="M1080.5854,-459.4957C1043.4364,-451.2519 989.7562,-438.2621 944,-423 888.1506,-404.3713 825.3279,-376.5245 789.4272,-359.9199"/>
<polygon fill="#191970" stroke="#191970" points="790.5864,-356.5989 780.0434,-355.5516 787.6322,-362.945 790.5864,-356.5989"/>
</g>
<!-- Node35&#45;&gt;Node22 -->
<g id="edge85" class="edge">
<title>Node35&#45;&gt;Node22</title>
<path fill="none" stroke="#191970" d="M1122.0766,-459.3484C1113.8252,-439.0499 1094.5462,-391.6235 1083.7228,-364.9981"/>
<polygon fill="#191970" stroke="#191970" points="1086.9134,-363.5526 1079.9052,-355.6068 1080.4287,-366.1887 1086.9134,-363.5526"/>
</g>
<!-- Node35&#45;&gt;Node25 -->
<g id="edge68" class="edge">
<title>Node35&#45;&gt;Node25</title>
<path fill="none" stroke="#191970" d="M1129.168,-459.3571C1144.6353,-412.2769 1212.3319,-206.2179 1233.5893,-141.5132"/>
<polygon fill="#191970" stroke="#191970" points="1236.9972,-142.3537 1236.7933,-131.7608 1230.3469,-140.1688 1236.9972,-142.3537"/>
</g>
<!-- Node35&#45;&gt;Node31 -->
<g id="edge70" class="edge">
<title>Node35&#45;&gt;Node31</title>
<path fill="none" stroke="#191970" d="M1206.7407,-463.3219C1333.5488,-454.0508 1566.4591,-435.4501 1580,-423 1645.1274,-363.1186 1628.5691,-301.0006 1585,-224 1568.7136,-195.2167 1561.4556,-189.1126 1536,-168 1521.0688,-155.6162 1502.4102,-144.4836 1487.0863,-136.273"/>
<polygon fill="#191970" stroke="#191970" points="1488.5239,-133.0754 1478.039,-131.5533 1485.2862,-139.2817 1488.5239,-133.0754"/>
</g>
<!-- Node35&#45;&gt;Node34 -->
<g id="edge66" class="edge">
<title>Node35&#45;&gt;Node34</title>
<path fill="none" stroke="#191970" d="M1206.8061,-466.0734C1303.966,-461.4752 1471.625,-450.0936 1613,-423 1617.696,-422.1001 1622.5738,-420.9624 1627.3845,-419.7139"/>
<polygon fill="#191970" stroke="#191970" points="1628.3768,-423.071 1637.0849,-417.0361 1626.514,-416.3234 1628.3768,-423.071"/>
</g>
<!-- Node36 -->
<g id="node37" class="node">
<title>Node36</title>
<g id="a_node37"><a xlink:href="SpatialMotionVector_8h.html" target="_top" xlink:title="iDynTree/Core/SpatialMotion\lVector.h">
<polygon fill="none" stroke="#000000" points="1415.5,-392.5 1415.5,-422.5 1570.5,-422.5 1570.5,-392.5 1415.5,-392.5"/>
<text text-anchor="start" x="1423.5" y="-410.5" font-family="FreeSans.ttf" font-size="10.00" fill="#000000">iDynTree/Core/SpatialMotion</text>
<text text-anchor="middle" x="1493" y="-399.5" font-family="FreeSans.ttf" font-size="10.00" fill="#000000">Vector.h</text>
</a>
</g>
</g>
<!-- Node35&#45;&gt;Node36 -->
<g id="edge71" class="edge">
<title>Node35&#45;&gt;Node36</title>
<path fill="none" stroke="#191970" d="M1185.3047,-459.4949C1239.7919,-450.7079 1323.07,-437.1423 1405.2113,-423.1224"/>
<polygon fill="#191970" stroke="#191970" points="1405.954,-426.5463 1415.2209,-421.4107 1404.774,-419.6465 1405.954,-426.5463"/>
</g>
<!-- Node38 -->
<g id="node39" class="node">
<title>Node38</title>
<g id="a_node39"><a xlink:href="SpatialForceVector_8h.html" target="_top" xlink:title="iDynTree/Core/SpatialForce\lVector.h">
<polygon fill="none" stroke="#000000" points="1249,-392.5 1249,-422.5 1397,-422.5 1397,-392.5 1249,-392.5"/>
<text text-anchor="start" x="1257" y="-410.5" font-family="FreeSans.ttf" font-size="10.00" fill="#000000">iDynTree/Core/SpatialForce</text>
<text text-anchor="middle" x="1323" y="-399.5" font-family="FreeSans.ttf" font-size="10.00" fill="#000000">Vector.h</text>
</a>
</g>
</g>
<!-- Node35&#45;&gt;Node38 -->
<g id="edge81" class="edge">
<title>Node35&#45;&gt;Node38</title>
<path fill="none" stroke="#191970" d="M1156.7813,-459.3906C1185.6646,-450.3737 1229.6049,-436.6563 1265.0545,-425.5896"/>
<polygon fill="#191970" stroke="#191970" points="1266.3057,-428.8656 1274.8084,-422.5446 1264.2197,-422.1837 1266.3057,-428.8656"/>
</g>
<!-- Node36&#45;&gt;Node25 -->
<g id="edge72" class="edge">
<title>Node36&#45;&gt;Node25</title>
<path fill="none" stroke="#191970" d="M1510.2847,-392.1841C1519.5463,-382.7871 1530.0463,-369.9121 1535,-356 1554.9918,-299.8541 1660.945,-320.5193 1517,-168 1504.1111,-154.3434 1406.3906,-140.4621 1330.625,-131.5738"/>
<polygon fill="#191970" stroke="#191970" points="1330.8988,-128.0822 1320.5623,-130.4072 1330.0927,-135.0356 1330.8988,-128.0822"/>
</g>
<!-- Node36&#45;&gt;Node29 -->
<g id="edge73" class="edge">
<title>Node36&#45;&gt;Node29</title>
<path fill="none" stroke="#191970" d="M1505.025,-392.4666C1514.9468,-378.2064 1526.5606,-356.0393 1521,-336 1505.4008,-279.7836 1463.8546,-223.5216 1441.2183,-195.7779"/>
<polygon fill="#191970" stroke="#191970" points="1443.6755,-193.2589 1434.5901,-187.8085 1438.2936,-197.735 1443.6755,-193.2589"/>
</g>
<!-- Node37 -->
<g id="node38" class="node">
<title>Node37</title>
<g id="a_node38"><a xlink:href="SpatialVector_8h.html" target="_top" xlink:title="iDynTree/Core/SpatialVector.h">
<polygon fill="none" stroke="#000000" points="1350.5,-336.5 1350.5,-355.5 1511.5,-355.5 1511.5,-336.5 1350.5,-336.5"/>
<text text-anchor="middle" x="1431" y="-343.5" font-family="FreeSans.ttf" font-size="10.00" fill="#000000">iDynTree/Core/SpatialVector.h</text>
</a>
</g>
</g>
<!-- Node36&#45;&gt;Node37 -->
<g id="edge74" class="edge">
<title>Node36&#45;&gt;Node37</title>
<path fill="none" stroke="#191970" d="M1477.6742,-392.2977C1468.7093,-383.4052 1457.3712,-372.1586 1448.1149,-362.9769"/>
<polygon fill="#191970" stroke="#191970" points="1450.4915,-360.4045 1440.927,-355.8469 1445.5618,-365.3742 1450.4915,-360.4045"/>
</g>
<!-- Node37&#45;&gt;Node5 -->
<g id="edge77" class="edge">
<title>Node37&#45;&gt;Node5</title>
<path fill="none" stroke="#191970" d="M1442.6461,-336.3127C1475.1344,-308.1431 1561.5354,-224.667 1517,-168 1475.1695,-114.7748 1432.4457,-155.6085 1369,-132 1350.7433,-125.2066 1348.7372,-117.3267 1330,-112 1237.3535,-85.6618 958.6617,-72.89 827.1493,-68.2"/>
<polygon fill="#191970" stroke="#191970" points="826.9118,-64.6896 816.7952,-67.8367 826.6663,-71.6853 826.9118,-64.6896"/>
</g>
<!-- Node37&#45;&gt;Node23 -->
<g id="edge75" class="edge">
<title>Node37&#45;&gt;Node23</title>
<path fill="none" stroke="#191970" d="M1359.6182,-336.4369C1285.0841,-326.4515 1168.5148,-310.8345 1091.4476,-300.5097"/>
<polygon fill="#191970" stroke="#191970" points="1091.6896,-297.011 1081.3134,-299.152 1090.7601,-303.949 1091.6896,-297.011"/>
</g>
<!-- Node37&#45;&gt;Node26 -->
<g id="edge80" class="edge">
<title>Node37&#45;&gt;Node26</title>
<path fill="none" stroke="#191970" d="M1458.297,-336.4608C1477.2523,-328.8171 1502.2011,-316.6176 1520,-300 1525.3207,-295.0324 1586.0386,-195.01 1588,-188 1602.5381,-136.042 1537.0021,-98.2767 1493.7001,-79.4665"/>
<polygon fill="#191970" stroke="#191970" points="1494.8766,-76.1647 1484.301,-75.526 1492.17,-82.6203 1494.8766,-76.1647"/>
</g>
<!-- Node37&#45;&gt;Node28 -->
<g id="edge76" class="edge">
<title>Node37&#45;&gt;Node28</title>
<path fill="none" stroke="#191970" d="M1403.5465,-336.4509C1345.6821,-316.3242 1211.1669,-269.5363 1145.8727,-246.8253"/>
<polygon fill="#191970" stroke="#191970" points="1146.9789,-243.5044 1136.3841,-243.5249 1144.6792,-250.1159 1146.9789,-243.5044"/>
</g>
<!-- Node37&#45;&gt;Node29 -->
<g id="edge78" class="edge">
<title>Node37&#45;&gt;Node29</title>
<path fill="none" stroke="#191970" d="M1430.7169,-336.4862C1429.9265,-309.9293 1427.6835,-234.5651 1426.6002,-198.1655"/>
<polygon fill="#191970" stroke="#191970" points="1430.0885,-197.7193 1426.2925,-187.8279 1423.0916,-197.9276 1430.0885,-197.7193"/>
</g>
<!-- Node37&#45;&gt;Node32 -->
<g id="edge79" class="edge">
<title>Node37&#45;&gt;Node32</title>
<path fill="none" stroke="#191970" d="M1469.7479,-336.4636C1492.2856,-329.3684 1520.0826,-317.7841 1540,-300 1582.6015,-261.9614 1587.8496,-243.0663 1603,-188 1612.6068,-153.0827 1610.7223,-110.404 1608.4089,-85.8952"/>
<polygon fill="#191970" stroke="#191970" points="1611.8645,-85.2922 1607.3215,-75.7208 1604.9041,-86.0362 1611.8645,-85.2922"/>
</g>
<!-- Node38&#45;&gt;Node25 -->
<g id="edge82" class="edge">
<title>Node38&#45;&gt;Node25</title>
<path fill="none" stroke="#191970" d="M1313.013,-392.2519C1299.7557,-370.5006 1278,-328.8826 1278,-290 1278,-290 1278,-290 1278,-234 1278,-199.6118 1261.7366,-162.2832 1250.489,-140.5791"/>
<polygon fill="#191970" stroke="#191970" points="1253.431,-138.6605 1245.607,-131.5166 1247.2683,-141.9804 1253.431,-138.6605"/>
</g>
<!-- Node38&#45;&gt;Node29 -->
<g id="edge83" class="edge">
<title>Node38&#45;&gt;Node29</title>
<path fill="none" stroke="#191970" d="M1325.9603,-392.3926C1329.0834,-377.6979 1334.5824,-354.8893 1342,-336 1362.8119,-283.0013 1396.8798,-224.904 1414.5549,-196.1745"/>
<polygon fill="#191970" stroke="#191970" points="1417.5734,-197.9482 1419.8778,-187.607 1411.6275,-194.2541 1417.5734,-197.9482"/>
</g>
<!-- Node38&#45;&gt;Node37 -->
<g id="edge84" class="edge">
<title>Node38&#45;&gt;Node37</title>
<path fill="none" stroke="#191970" d="M1349.4198,-392.4554C1366.4914,-382.734 1388.5902,-370.15 1405.4809,-360.5317"/>
<polygon fill="#191970" stroke="#191970" points="1407.3059,-363.5202 1414.2638,-355.5303 1403.842,-357.4373 1407.3059,-363.5202"/>
</g>
</g>
</svg>
