<?xml version="1.0" encoding="UTF-8" standalone="no"?>
<!DOCTYPE svg PUBLIC "-//W3C//DTD SVG 1.1//EN"
 "http://www.w3.org/Graphics/SVG/1.1/DTD/svg11.dtd">
<!-- Generated by graphviz version 2.40.1 (20161225.0304)
 -->
<!-- Title: LinearSystem.cpp Pages: 1 -->
<svg width="1407pt" height="543pt"
 viewBox="0.00 0.00 1406.76 543.00" xmlns="http://www.w3.org/2000/svg" xmlns:xlink="http://www.w3.org/1999/xlink">
<g id="graph0" class="graph" transform="scale(1 1) rotate(0) translate(4 539)">
<title>LinearSystem.cpp</title>
<!-- Node0 -->
<g id="node1" class="node">
<title>Node0</title>
<polygon fill="#bfbfbf" stroke="#000000" points="368.7602,-515.5 368.7602,-534.5 472.7602,-534.5 472.7602,-515.5 368.7602,-515.5"/>
<text text-anchor="middle" x="420.7602" y="-522.5" font-family="FreeSans.ttf" font-size="10.00" fill="#000000">LinearSystem.cpp</text>
</g>
<!-- Node1 -->
<g id="node2" class="node">
<title>Node1</title>
<g id="a_node2"><a xlink:href="LinearSystem_8h.html" target="_top" xlink:title="iDynTree/LinearSystem.h">
<polygon fill="none" stroke="#000000" points="204.7602,-459.5 204.7602,-478.5 342.7602,-478.5 342.7602,-459.5 204.7602,-459.5"/>
<text text-anchor="middle" x="273.7602" y="-466.5" font-family="FreeSans.ttf" font-size="10.00" fill="#000000">iDynTree/LinearSystem.h</text>
</a>
</g>
</g>
<!-- Node0&#45;&gt;Node1 -->
<g id="edge1" class="edge">
<title>Node0&#45;&gt;Node1</title>
<path fill="none" stroke="#191970" d="M395.49,-515.3733C371.3636,-506.1822 334.824,-492.2624 308.0725,-482.0713"/>
<polygon fill="#191970" stroke="#191970" points="309.2915,-478.7904 298.7006,-478.5011 306.7995,-485.3318 309.2915,-478.7904"/>
</g>
<!-- Node3 -->
<g id="node4" class="node">
<title>Node3</title>
<g id="a_node4"><a xlink:href="VectorDynSize_8h.html" target="_top" xlink:title="iDynTree/Core/VectorDynSize.h">
<polygon fill="none" stroke="#000000" points="313.2602,-336.5 313.2602,-355.5 480.2602,-355.5 480.2602,-336.5 313.2602,-336.5"/>
<text text-anchor="middle" x="396.7602" y="-343.5" font-family="FreeSans.ttf" font-size="10.00" fill="#000000">iDynTree/Core/VectorDynSize.h</text>
</a>
</g>
</g>
<!-- Node0&#45;&gt;Node3 -->
<g id="edge58" class="edge">
<title>Node0&#45;&gt;Node3</title>
<path fill="none" stroke="#191970" d="M419.4698,-515.3762C415.6933,-487.2097 404.6055,-404.5126 399.4513,-366.0713"/>
<polygon fill="#191970" stroke="#191970" points="402.8548,-365.1176 398.0569,-355.6714 395.9169,-366.0479 402.8548,-365.1176"/>
</g>
<!-- Node5 -->
<g id="node6" class="node">
<title>Node5</title>
<polygon fill="none" stroke="#bfbfbf" points="932.7602,-.5 932.7602,-19.5 984.7602,-19.5 984.7602,-.5 932.7602,-.5"/>
<text text-anchor="middle" x="958.7602" y="-7.5" font-family="FreeSans.ttf" font-size="10.00" fill="#000000">cassert</text>
</g>
<!-- Node0&#45;&gt;Node5 -->
<g id="edge83" class="edge">
<title>Node0&#45;&gt;Node5</title>
<path fill="none" stroke="#191970" d="M472.996,-524.2687C675.6613,-520.752 1398.7602,-501.6104 1398.7602,-407.5 1398.7602,-407.5 1398.7602,-407.5 1398.7602,-122 1398.7602,-38.9338 1100.5268,-16.7284 995.124,-11.4745"/>
<polygon fill="#191970" stroke="#191970" points="995.1215,-7.9705 984.9665,-10.9914 994.7889,-14.9626 995.1215,-7.9705"/>
</g>
<!-- Node8 -->
<g id="node9" class="node">
<title>Node8</title>
<polygon fill="none" stroke="#bfbfbf" points="183.2602,-.5 183.2602,-19.5 236.2602,-19.5 236.2602,-.5 183.2602,-.5"/>
<text text-anchor="middle" x="209.7602" y="-7.5" font-family="FreeSans.ttf" font-size="10.00" fill="#000000">cstddef</text>
</g>
<!-- Node0&#45;&gt;Node8 -->
<g id="edge84" class="edge">
<title>Node0&#45;&gt;Node8</title>
<path fill="none" stroke="#191970" d="M368.4161,-521.3929C255.8277,-512.1963 .7602,-483.0271 .7602,-407.5 .7602,-407.5 .7602,-407.5 .7602,-122 .7602,-91.4754 -2.2805,-77.1178 19.7602,-56 41.4496,-35.2189 123.9847,-21.1832 172.852,-14.5002"/>
<polygon fill="#191970" stroke="#191970" points="173.576,-17.9349 183.0278,-13.1481 172.6539,-10.9958 173.576,-17.9349"/>
</g>
<!-- Node16 -->
<g id="node17" class="node">
<title>Node16</title>
<g id="a_node17"><a xlink:href="Utils_8h.html" target="_top" xlink:title="iDynTree/Core/Utils.h">
<polygon fill="none" stroke="#000000" points="237.2602,-56.5 237.2602,-75.5 356.2602,-75.5 356.2602,-56.5 237.2602,-56.5"/>
<text text-anchor="middle" x="296.7602" y="-63.5" font-family="FreeSans.ttf" font-size="10.00" fill="#000000">iDynTree/Core/Utils.h</text>
</a>
</g>
</g>
<!-- Node0&#45;&gt;Node16 -->
<g id="edge82" class="edge">
<title>Node0&#45;&gt;Node16</title>
<path fill="none" stroke="#191970" d="M368.7218,-519.8144C322.0908,-513.9077 252.4998,-501.9391 195.7602,-479 152.781,-461.624 130.0684,-463.6384 107.7602,-423 71.1727,-356.3495 232.1608,-146.4827 282.2745,-83.8298"/>
<polygon fill="#191970" stroke="#191970" points="285.2835,-85.6734 288.8271,-75.6887 279.8304,-81.2843 285.2835,-85.6734"/>
</g>
<!-- Node21 -->
<g id="node22" class="node">
<title>Node21</title>
<g id="a_node22"><a xlink:href="MatrixDynSize_8h.html" target="_top" xlink:title="iDynTree/Core/MatrixDynSize.h">
<polygon fill="none" stroke="#000000" points="501.2602,-336.5 501.2602,-355.5 668.2602,-355.5 668.2602,-336.5 501.2602,-336.5"/>
<text text-anchor="middle" x="584.7602" y="-343.5" font-family="FreeSans.ttf" font-size="10.00" fill="#000000">iDynTree/Core/MatrixDynSize.h</text>
</a>
</g>
</g>
<!-- Node0&#45;&gt;Node21 -->
<g id="edge59" class="edge">
<title>Node0&#45;&gt;Node21</title>
<path fill="none" stroke="#191970" d="M472.7914,-519.2984C529.7154,-509.972 618.3628,-485.6774 659.7602,-423 667.3534,-411.5035 666.49,-404.0224 659.7602,-392 651.6813,-377.5676 637.0187,-367.1145 622.7873,-359.8565"/>
<polygon fill="#191970" stroke="#191970" points="624.1113,-356.6118 613.571,-355.5387 621.1415,-362.9506 624.1113,-356.6118"/>
</g>
<!-- Node34 -->
<g id="node35" class="node">
<title>Node34</title>
<g id="a_node35"><a xlink:href="EigenHelpers_8h.html" target="_top" xlink:title="iDynTree/Core/EigenHelpers.h">
<polygon fill="none" stroke="#000000" points="738.2602,-459.5 738.2602,-478.5 899.2602,-478.5 899.2602,-459.5 738.2602,-459.5"/>
<text text-anchor="middle" x="818.7602" y="-466.5" font-family="FreeSans.ttf" font-size="10.00" fill="#000000">iDynTree/Core/EigenHelpers.h</text>
</a>
</g>
</g>
<!-- Node0&#45;&gt;Node34 -->
<g id="edge60" class="edge">
<title>Node0&#45;&gt;Node34</title>
<path fill="none" stroke="#191970" d="M472.7917,-517.679C541.1911,-508.055 661.929,-491.0667 741.1436,-479.9209"/>
<polygon fill="#191970" stroke="#191970" points="741.6576,-483.3832 751.0723,-478.5239 740.6822,-476.4515 741.6576,-483.3832"/>
</g>
<!-- Node2 -->
<g id="node3" class="node">
<title>Node2</title>
<g id="a_node3"><a xlink:href="DynamicalSystem_8h.html" target="_top" xlink:title="iDynTree/DynamicalSystem.h">
<polygon fill="none" stroke="#000000" points="193.2602,-398 193.2602,-417 354.2602,-417 354.2602,-398 193.2602,-398"/>
<text text-anchor="middle" x="273.7602" y="-405" font-family="FreeSans.ttf" font-size="10.00" fill="#000000">iDynTree/DynamicalSystem.h</text>
</a>
</g>
</g>
<!-- Node1&#45;&gt;Node2 -->
<g id="edge2" class="edge">
<title>Node1&#45;&gt;Node2</title>
<path fill="none" stroke="#191970" d="M273.7602,-459.3906C273.7602,-450.8657 273.7602,-438.1392 273.7602,-427.4235"/>
<polygon fill="#191970" stroke="#191970" points="277.2603,-427.2448 273.7602,-417.2449 270.2603,-427.2449 277.2603,-427.2448"/>
</g>
<!-- Node15 -->
<g id="node16" class="node">
<title>Node15</title>
<g id="a_node16"><a xlink:href="SparsityStructure_8h.html" target="_top" xlink:title="iDynTree/SparsityStructure.h">
<polygon fill="none" stroke="#000000" points="33.2602,-112.5 33.2602,-131.5 188.2602,-131.5 188.2602,-112.5 33.2602,-112.5"/>
<text text-anchor="middle" x="110.7602" y="-119.5" font-family="FreeSans.ttf" font-size="10.00" fill="#000000">iDynTree/SparsityStructure.h</text>
</a>
</g>
</g>
<!-- Node1&#45;&gt;Node15 -->
<g id="edge56" class="edge">
<title>Node1&#45;&gt;Node15</title>
<path fill="none" stroke="#191970" d="M204.7288,-460.2238C139.236,-447.5755 50.7602,-417.295 50.7602,-346 50.7602,-346 50.7602,-346 50.7602,-234 50.7602,-196.7757 76.8313,-159.9604 94.6024,-139.1895"/>
<polygon fill="#191970" stroke="#191970" points="97.3575,-141.3582 101.3852,-131.5588 92.1256,-136.7077 97.3575,-141.3582"/>
</g>
<!-- Node20 -->
<g id="node21" class="node">
<title>Node20</title>
<g id="a_node21"><a xlink:href="TimeVaryingObject_8h.html" target="_top" xlink:title="iDynTree/TimeVaryingObject.h">
<polygon fill="none" stroke="#000000" points="486.7602,-398 486.7602,-417 650.7602,-417 650.7602,-398 486.7602,-398"/>
<text text-anchor="middle" x="568.7602" y="-405" font-family="FreeSans.ttf" font-size="10.00" fill="#000000">iDynTree/TimeVaryingObject.h</text>
</a>
</g>
</g>
<!-- Node1&#45;&gt;Node20 -->
<g id="edge23" class="edge">
<title>Node1&#45;&gt;Node20</title>
<path fill="none" stroke="#191970" d="M319.5303,-459.4581C371.6351,-448.5956 456.7621,-430.8488 512.7768,-419.1711"/>
<polygon fill="#191970" stroke="#191970" points="513.8075,-422.5316 522.8827,-417.0643 512.3789,-415.6789 513.8075,-422.5316"/>
</g>
<!-- Node33 -->
<g id="node34" class="node">
<title>Node33</title>
<polygon fill="none" stroke="#bfbfbf" points="116.7602,-398 116.7602,-417 174.7602,-417 174.7602,-398 116.7602,-398"/>
<text text-anchor="middle" x="145.7602" y="-405" font-family="FreeSans.ttf" font-size="10.00" fill="#000000">memory</text>
</g>
<!-- Node1&#45;&gt;Node33 -->
<g id="edge57" class="edge">
<title>Node1&#45;&gt;Node33</title>
<path fill="none" stroke="#191970" d="M253.7602,-459.3906C232.5313,-449.1908 198.7839,-432.9763 174.6642,-421.3875"/>
<polygon fill="#191970" stroke="#191970" points="176.1491,-418.2179 165.6197,-417.0419 173.1176,-424.5275 176.1491,-418.2179"/>
</g>
<!-- Node2&#45;&gt;Node3 -->
<g id="edge3" class="edge">
<title>Node2&#45;&gt;Node3</title>
<path fill="none" stroke="#191970" d="M292.9789,-397.8906C313.2883,-387.7359 345.5209,-371.6196 368.677,-360.0416"/>
<polygon fill="#191970" stroke="#191970" points="370.2974,-363.1446 377.6764,-355.5419 367.1668,-356.8836 370.2974,-363.1446"/>
</g>
<!-- Node2&#45;&gt;Node15 -->
<g id="edge15" class="edge">
<title>Node2&#45;&gt;Node15</title>
<path fill="none" stroke="#191970" d="M242.4395,-397.9391C199.5399,-382.6727 127.7602,-348.4027 127.7602,-290 127.7602,-290 127.7602,-290 127.7602,-234 127.7602,-201.192 120.5417,-163.584 115.5122,-141.3624"/>
<polygon fill="#191970" stroke="#191970" points="118.8926,-140.4474 113.1959,-131.5144 112.0785,-142.0502 118.8926,-140.4474"/>
</g>
<!-- Node4 -->
<g id="node5" class="node">
<title>Node4</title>
<g id="a_node5"><a xlink:href="Span_8h.html" target="_top" xlink:title="iDynTree/Core/Span.h">
<polygon fill="none" stroke="#000000" points="587.2602,-56.5 587.2602,-75.5 708.2602,-75.5 708.2602,-56.5 587.2602,-56.5"/>
<text text-anchor="middle" x="647.7602" y="-63.5" font-family="FreeSans.ttf" font-size="10.00" fill="#000000">iDynTree/Core/Span.h</text>
</a>
</g>
</g>
<!-- Node3&#45;&gt;Node4 -->
<g id="edge4" class="edge">
<title>Node3&#45;&gt;Node4</title>
<path fill="none" stroke="#191970" d="M394.5363,-336.1661C392.0159,-322.8725 389.1694,-298.6835 396.7602,-280 438.3269,-177.6905 559.7007,-108.0843 617.0576,-79.9669"/>
<polygon fill="#191970" stroke="#191970" points="618.8444,-82.9915 626.3415,-75.5053 615.8123,-76.6823 618.8444,-82.9915"/>
</g>
<!-- Node14 -->
<g id="node15" class="node">
<title>Node14</title>
<polygon fill="none" stroke="#bfbfbf" points="483.7602,-56.5 483.7602,-75.5 527.7602,-75.5 527.7602,-56.5 483.7602,-56.5"/>
<text text-anchor="middle" x="505.7602" y="-63.5" font-family="FreeSans.ttf" font-size="10.00" fill="#000000">string</text>
</g>
<!-- Node3&#45;&gt;Node14 -->
<g id="edge14" class="edge">
<title>Node3&#45;&gt;Node14</title>
<path fill="none" stroke="#191970" d="M367.1917,-336.3976C350.3494,-329.2338 330.6808,-317.6009 320.7602,-300 304.1747,-270.5745 308.8001,-255.5895 320.7602,-224 344.2842,-161.8675 367.6464,-153.2066 419.7602,-112 436.3033,-98.9192 457.1068,-87.6779 474.1088,-79.5826"/>
<polygon fill="#191970" stroke="#191970" points="476.0085,-82.5605 483.619,-75.1896 473.073,-76.2057 476.0085,-82.5605"/>
</g>
<!-- Node4&#45;&gt;Node5 -->
<g id="edge5" class="edge">
<title>Node4&#45;&gt;Node5</title>
<path fill="none" stroke="#191970" d="M700.8696,-56.4369C764.107,-45.0501 868.0134,-26.3403 922.6304,-16.5057"/>
<polygon fill="#191970" stroke="#191970" points="923.3308,-19.9359 932.5522,-14.7191 922.0902,-13.0467 923.3308,-19.9359"/>
</g>
<!-- Node6 -->
<g id="node7" class="node">
<title>Node6</title>
<polygon fill="none" stroke="#bfbfbf" points="763.7602,-.5 763.7602,-19.5 827.7602,-19.5 827.7602,-.5 763.7602,-.5"/>
<text text-anchor="middle" x="795.7602" y="-7.5" font-family="FreeSans.ttf" font-size="10.00" fill="#000000">algorithm</text>
</g>
<!-- Node4&#45;&gt;Node6 -->
<g id="edge6" class="edge">
<title>Node4&#45;&gt;Node6</title>
<path fill="none" stroke="#191970" d="M673.2023,-56.3733C697.4928,-47.1822 734.281,-33.2624 761.2145,-23.0713"/>
<polygon fill="#191970" stroke="#191970" points="762.5358,-26.3136 770.6501,-19.5011 760.0586,-19.7666 762.5358,-26.3136"/>
</g>
<!-- Node7 -->
<g id="node8" class="node">
<title>Node7</title>
<polygon fill="none" stroke="#bfbfbf" points="845.7602,-.5 845.7602,-19.5 887.7602,-19.5 887.7602,-.5 845.7602,-.5"/>
<text text-anchor="middle" x="866.7602" y="-7.5" font-family="FreeSans.ttf" font-size="10.00" fill="#000000">array</text>
</g>
<!-- Node4&#45;&gt;Node7 -->
<g id="edge7" class="edge">
<title>Node4&#45;&gt;Node7</title>
<path fill="none" stroke="#191970" d="M691.5702,-56.4225C727.8714,-48.2436 780.9923,-35.7176 835.6622,-20.1567"/>
<polygon fill="#191970" stroke="#191970" points="836.8797,-23.4485 845.523,-17.3212 834.9452,-16.7211 836.8797,-23.4485"/>
</g>
<!-- Node4&#45;&gt;Node8 -->
<g id="edge8" class="edge">
<title>Node4&#45;&gt;Node8</title>
<path fill="none" stroke="#191970" d="M587.1869,-60.1057C491.9008,-50.6522 311.3055,-31.9517 247.7602,-20 247.4208,-19.9362 247.0799,-19.8709 246.7378,-19.8044"/>
<polygon fill="#191970" stroke="#191970" points="247.1575,-16.3131 236.6389,-17.581 245.6524,-23.1493 247.1575,-16.3131"/>
</g>
<!-- Node9 -->
<g id="node10" class="node">
<title>Node9</title>
<polygon fill="none" stroke="#bfbfbf" points="396.2602,-.5 396.2602,-19.5 449.2602,-19.5 449.2602,-.5 396.2602,-.5"/>
<text text-anchor="middle" x="422.7602" y="-7.5" font-family="FreeSans.ttf" font-size="10.00" fill="#000000">iterator</text>
</g>
<!-- Node4&#45;&gt;Node9 -->
<g id="edge9" class="edge">
<title>Node4&#45;&gt;Node9</title>
<path fill="none" stroke="#191970" d="M606.741,-56.4188C570.4902,-47.8614 515.9488,-34.7684 459.3172,-20.0862"/>
<polygon fill="#191970" stroke="#191970" points="460.03,-16.6551 449.4707,-17.5226 458.2663,-23.4293 460.03,-16.6551"/>
</g>
<!-- Node10 -->
<g id="node11" class="node">
<title>Node10</title>
<polygon fill="none" stroke="#bfbfbf" points="467.7602,-.5 467.7602,-19.5 511.7602,-19.5 511.7602,-.5 467.7602,-.5"/>
<text text-anchor="middle" x="489.7602" y="-7.5" font-family="FreeSans.ttf" font-size="10.00" fill="#000000">limits</text>
</g>
<!-- Node4&#45;&gt;Node10 -->
<g id="edge10" class="edge">
<title>Node4&#45;&gt;Node10</title>
<path fill="none" stroke="#191970" d="M620.599,-56.3733C593.1328,-46.6384 550.6989,-31.5985 521.6514,-21.3032"/>
<polygon fill="#191970" stroke="#191970" points="522.5765,-17.9178 511.9817,-17.876 520.238,-24.5157 522.5765,-17.9178"/>
</g>
<!-- Node11 -->
<g id="node12" class="node">
<title>Node11</title>
<polygon fill="none" stroke="#bfbfbf" points="530.2602,-.5 530.2602,-19.5 595.2602,-19.5 595.2602,-.5 530.2602,-.5"/>
<text text-anchor="middle" x="562.7602" y="-7.5" font-family="FreeSans.ttf" font-size="10.00" fill="#000000">stdexcept</text>
</g>
<!-- Node4&#45;&gt;Node11 -->
<g id="edge11" class="edge">
<title>Node4&#45;&gt;Node11</title>
<path fill="none" stroke="#191970" d="M632.9543,-56.2455C620.0346,-47.7337 601.0671,-35.2375 586.1049,-25.3801"/>
<polygon fill="#191970" stroke="#191970" points="587.6726,-22.2216 577.3964,-19.6427 583.8214,-28.067 587.6726,-22.2216"/>
</g>
<!-- Node12 -->
<g id="node13" class="node">
<title>Node12</title>
<polygon fill="none" stroke="#bfbfbf" points="613.2602,-.5 613.2602,-19.5 682.2602,-19.5 682.2602,-.5 613.2602,-.5"/>
<text text-anchor="middle" x="647.7602" y="-7.5" font-family="FreeSans.ttf" font-size="10.00" fill="#000000">type_traits</text>
</g>
<!-- Node4&#45;&gt;Node12 -->
<g id="edge12" class="edge">
<title>Node4&#45;&gt;Node12</title>
<path fill="none" stroke="#191970" d="M647.7602,-56.2455C647.7602,-48.9382 647.7602,-38.6944 647.7602,-29.7046"/>
<polygon fill="#191970" stroke="#191970" points="651.2603,-29.6426 647.7602,-19.6427 644.2603,-29.6427 651.2603,-29.6426"/>
</g>
<!-- Node13 -->
<g id="node14" class="node">
<title>Node13</title>
<polygon fill="none" stroke="#bfbfbf" points="700.2602,-.5 700.2602,-19.5 745.2602,-19.5 745.2602,-.5 700.2602,-.5"/>
<text text-anchor="middle" x="722.7602" y="-7.5" font-family="FreeSans.ttf" font-size="10.00" fill="#000000">utility</text>
</g>
<!-- Node4&#45;&gt;Node13 -->
<g id="edge13" class="edge">
<title>Node4&#45;&gt;Node13</title>
<path fill="none" stroke="#191970" d="M660.8242,-56.2455C672.1164,-47.814 688.6447,-35.4729 701.7873,-25.6598"/>
<polygon fill="#191970" stroke="#191970" points="703.9271,-28.4301 709.8459,-19.6427 699.739,-22.8211 703.9271,-28.4301"/>
</g>
<!-- Node15&#45;&gt;Node8 -->
<g id="edge20" class="edge">
<title>Node15&#45;&gt;Node8</title>
<path fill="none" stroke="#191970" d="M137.3608,-112.4795C154.6002,-105.0327 176.2772,-93.058 189.7602,-76 200.3051,-62.659 205.3055,-43.8058 207.6677,-29.6633"/>
<polygon fill="#191970" stroke="#191970" points="211.1667,-29.9082 209.0522,-19.5265 204.2311,-28.9609 211.1667,-29.9082"/>
</g>
<!-- Node15&#45;&gt;Node14 -->
<g id="edge22" class="edge">
<title>Node15&#45;&gt;Node14</title>
<path fill="none" stroke="#191970" d="M178.2143,-112.4369C264.2091,-100.2452 409.4181,-79.6586 473.6034,-70.5589"/>
<polygon fill="#191970" stroke="#191970" points="474.1359,-74.0185 483.5455,-69.1494 473.1532,-67.0878 474.1359,-74.0185"/>
</g>
<!-- Node15&#45;&gt;Node16 -->
<g id="edge16" class="edge">
<title>Node15&#45;&gt;Node16</title>
<path fill="none" stroke="#191970" d="M142.7347,-112.3733C173.9315,-102.9807 221.5312,-88.6496 255.5534,-78.4064"/>
<polygon fill="#191970" stroke="#191970" points="256.6365,-81.7355 265.2029,-75.5011 254.6184,-75.0327 256.6365,-81.7355"/>
</g>
<!-- Node18 -->
<g id="node19" class="node">
<title>Node18</title>
<polygon fill="none" stroke="#bfbfbf" points="29.2602,-56.5 29.2602,-75.5 76.2602,-75.5 76.2602,-56.5 29.2602,-56.5"/>
<text text-anchor="middle" x="52.7602" y="-63.5" font-family="FreeSans.ttf" font-size="10.00" fill="#000000">vector</text>
</g>
<!-- Node15&#45;&gt;Node18 -->
<g id="edge19" class="edge">
<title>Node15&#45;&gt;Node18</title>
<path fill="none" stroke="#191970" d="M100.6574,-112.2455C92.2574,-104.1352 80.1108,-92.4075 70.1518,-82.7919"/>
<polygon fill="#191970" stroke="#191970" points="72.3724,-80.0707 62.7472,-75.6427 67.5102,-85.1066 72.3724,-80.0707"/>
</g>
<!-- Node19 -->
<g id="node20" class="node">
<title>Node19</title>
<polygon fill="none" stroke="#bfbfbf" points="94.7602,-56.5 94.7602,-75.5 180.7602,-75.5 180.7602,-56.5 94.7602,-56.5"/>
<text text-anchor="middle" x="137.7602" y="-63.5" font-family="FreeSans.ttf" font-size="10.00" fill="#000000">unordered_set</text>
</g>
<!-- Node15&#45;&gt;Node19 -->
<g id="edge21" class="edge">
<title>Node15&#45;&gt;Node19</title>
<path fill="none" stroke="#191970" d="M115.4632,-112.2455C119.1025,-104.6973 124.2526,-94.0158 128.6864,-84.8197"/>
<polygon fill="#191970" stroke="#191970" points="131.9207,-86.1704 133.111,-75.6427 125.6153,-83.1303 131.9207,-86.1704"/>
</g>
<!-- Node16&#45;&gt;Node8 -->
<g id="edge17" class="edge">
<title>Node16&#45;&gt;Node8</title>
<path fill="none" stroke="#191970" d="M281.6059,-56.2455C268.2575,-47.6534 248.6016,-35.0014 233.2219,-25.1018"/>
<polygon fill="#191970" stroke="#191970" points="235.0438,-22.1121 224.7408,-19.6427 231.255,-27.9982 235.0438,-22.1121"/>
</g>
<!-- Node17 -->
<g id="node18" class="node">
<title>Node17</title>
<polygon fill="none" stroke="#bfbfbf" points="256.7602,-.5 256.7602,-19.5 336.7602,-19.5 336.7602,-.5 256.7602,-.5"/>
<text text-anchor="middle" x="296.7602" y="-7.5" font-family="FreeSans.ttf" font-size="10.00" fill="#000000">CoreExport.h</text>
</g>
<!-- Node16&#45;&gt;Node17 -->
<g id="edge18" class="edge">
<title>Node16&#45;&gt;Node17</title>
<path fill="none" stroke="#191970" d="M296.7602,-56.2455C296.7602,-48.9382 296.7602,-38.6944 296.7602,-29.7046"/>
<polygon fill="#191970" stroke="#191970" points="300.2603,-29.6426 296.7602,-19.6427 293.2603,-29.6427 300.2603,-29.6426"/>
</g>
<!-- Node20&#45;&gt;Node3 -->
<g id="edge24" class="edge">
<title>Node20&#45;&gt;Node3</title>
<path fill="none" stroke="#191970" d="M541.8852,-397.8906C512.6015,-387.42 465.5911,-370.6111 433.0465,-358.9745"/>
<polygon fill="#191970" stroke="#191970" points="434.0411,-355.6131 423.4465,-355.5419 431.6842,-362.2045 434.0411,-355.6131"/>
</g>
<!-- Node20&#45;&gt;Node21 -->
<g id="edge25" class="edge">
<title>Node20&#45;&gt;Node21</title>
<path fill="none" stroke="#191970" d="M571.2602,-397.8906C573.5014,-389.276 576.8588,-376.3708 579.6647,-365.5858"/>
<polygon fill="#191970" stroke="#191970" points="583.0943,-366.304 582.2249,-355.7449 576.3198,-364.5414 583.0943,-366.304"/>
</g>
<!-- Node22 -->
<g id="node23" class="node">
<title>Node22</title>
<g id="a_node23"><a xlink:href="Transform_8h.html" target="_top" xlink:title="iDynTree/Core/Transform.h">
<polygon fill="none" stroke="#000000" points="703.7602,-336.5 703.7602,-355.5 849.7602,-355.5 849.7602,-336.5 703.7602,-336.5"/>
<text text-anchor="middle" x="776.7602" y="-343.5" font-family="FreeSans.ttf" font-size="10.00" fill="#000000">iDynTree/Core/Transform.h</text>
</a>
</g>
</g>
<!-- Node20&#45;&gt;Node22 -->
<g id="edge27" class="edge">
<title>Node20&#45;&gt;Node22</title>
<path fill="none" stroke="#191970" d="M601.2602,-397.8906C637.2072,-387.2621 695.2429,-370.1025 734.6482,-358.4514"/>
<polygon fill="#191970" stroke="#191970" points="735.8912,-361.7337 744.4884,-355.5419 733.9064,-355.021 735.8912,-361.7337"/>
</g>
<!-- Node21&#45;&gt;Node14 -->
<g id="edge26" class="edge">
<title>Node21&#45;&gt;Node14</title>
<path fill="none" stroke="#191970" d="M505.5652,-336.4799C460.5718,-329.2633 410.5298,-317.545 396.7602,-300 365.3797,-260.0156 217.1325,-423.9237 434.7602,-112 444.6185,-97.8702 460.3498,-87.0311 474.502,-79.4337"/>
<polygon fill="#191970" stroke="#191970" points="476.1372,-82.5291 483.4964,-74.9073 472.9904,-76.2763 476.1372,-82.5291"/>
</g>
<!-- Node22&#45;&gt;Node14 -->
<g id="edge55" class="edge">
<title>Node22&#45;&gt;Node14</title>
<path fill="none" stroke="#191970" d="M706.396,-336.4408C610.0188,-321.3403 448.7602,-288.005 448.7602,-234 448.7602,-234 448.7602,-234 448.7602,-178 448.7602,-141.1826 473.5277,-104.2377 490.4102,-83.3313"/>
<polygon fill="#191970" stroke="#191970" points="493.1113,-85.5574 496.8539,-75.6456 487.7471,-81.06 493.1113,-85.5574"/>
</g>
<!-- Node23 -->
<g id="node24" class="node">
<title>Node23</title>
<g id="a_node24"><a xlink:href="Position_8h.html" target="_top" xlink:title="iDynTree/Core/Position.h">
<polygon fill="none" stroke="#000000" points="644.7602,-280.5 644.7602,-299.5 780.7602,-299.5 780.7602,-280.5 644.7602,-280.5"/>
<text text-anchor="middle" x="712.7602" y="-287.5" font-family="FreeSans.ttf" font-size="10.00" fill="#000000">iDynTree/Core/Position.h</text>
</a>
</g>
</g>
<!-- Node22&#45;&gt;Node23 -->
<g id="edge28" class="edge">
<title>Node22&#45;&gt;Node23</title>
<path fill="none" stroke="#191970" d="M765.6122,-336.2455C756.2515,-328.0549 742.6744,-316.1749 731.6252,-306.5069"/>
<polygon fill="#191970" stroke="#191970" points="733.6109,-303.5937 723.7804,-299.6427 729.0014,-308.8618 733.6109,-303.5937"/>
</g>
<!-- Node28 -->
<g id="node29" class="node">
<title>Node28</title>
<g id="a_node29"><a xlink:href="Rotation_8h.html" target="_top" xlink:title="iDynTree/Core/Rotation.h">
<polygon fill="none" stroke="#000000" points="740.2602,-224.5 740.2602,-243.5 877.2602,-243.5 877.2602,-224.5 740.2602,-224.5"/>
<text text-anchor="middle" x="808.7602" y="-231.5" font-family="FreeSans.ttf" font-size="10.00" fill="#000000">iDynTree/Core/Rotation.h</text>
</a>
</g>
</g>
<!-- Node22&#45;&gt;Node28 -->
<g id="edge53" class="edge">
<title>Node22&#45;&gt;Node28</title>
<path fill="none" stroke="#191970" d="M779.4885,-336.4509C784.7312,-318.1013 796.3057,-277.5908 803.2261,-253.3693"/>
<polygon fill="#191970" stroke="#191970" points="806.6568,-254.1017 806.0388,-243.5249 799.9262,-252.1786 806.6568,-254.1017"/>
</g>
<!-- Node31 -->
<g id="node32" class="node">
<title>Node31</title>
<g id="a_node32"><a xlink:href="MatrixFixSize_8h.html" target="_top" xlink:title="iDynTree/Core/MatrixFixSize.h">
<polygon fill="none" stroke="#000000" points="994.2602,-112.5 994.2602,-131.5 1155.2602,-131.5 1155.2602,-112.5 994.2602,-112.5"/>
<text text-anchor="middle" x="1074.7602" y="-119.5" font-family="FreeSans.ttf" font-size="10.00" fill="#000000">iDynTree/Core/MatrixFixSize.h</text>
</a>
</g>
</g>
<!-- Node22&#45;&gt;Node31 -->
<g id="edge54" class="edge">
<title>Node22&#45;&gt;Node31</title>
<path fill="none" stroke="#191970" d="M789.1816,-336.1486C823.6441,-308.887 923.5339,-230.3445 1008.7602,-168 1023.1399,-157.481 1039.5764,-146.0235 1052.4496,-137.1747"/>
<polygon fill="#191970" stroke="#191970" points="1054.4501,-140.0468 1060.7234,-131.5089 1050.495,-134.2712 1054.4501,-140.0468"/>
</g>
<!-- Node23&#45;&gt;Node14 -->
<g id="edge52" class="edge">
<title>Node23&#45;&gt;Node14</title>
<path fill="none" stroke="#191970" d="M660.6168,-280.4621C611.1101,-268.3372 539.4072,-242.0898 505.7602,-188 486.1819,-156.5266 493.3708,-111.0726 499.8801,-85.4596"/>
<polygon fill="#191970" stroke="#191970" points="503.2605,-86.3668 502.5481,-75.796 496.5129,-84.5038 503.2605,-86.3668"/>
</g>
<!-- Node24 -->
<g id="node25" class="node">
<title>Node24</title>
<g id="a_node25"><a xlink:href="PositionRaw_8h.html" target="_top" xlink:title="iDynTree/Core/PositionRaw.h">
<polygon fill="none" stroke="#000000" points="514.7602,-168.5 514.7602,-187.5 670.7602,-187.5 670.7602,-168.5 514.7602,-168.5"/>
<text text-anchor="middle" x="592.7602" y="-175.5" font-family="FreeSans.ttf" font-size="10.00" fill="#000000">iDynTree/Core/PositionRaw.h</text>
</a>
</g>
</g>
<!-- Node23&#45;&gt;Node24 -->
<g id="edge29" class="edge">
<title>Node23&#45;&gt;Node24</title>
<path fill="none" stroke="#191970" d="M702.529,-280.4509C682.0717,-261.3574 635.9063,-218.2697 610.4456,-194.5063"/>
<polygon fill="#191970" stroke="#191970" points="612.6641,-191.7894 602.9654,-187.5249 607.8879,-196.9068 612.6641,-191.7894"/>
</g>
<!-- Node23&#45;&gt;Node28 -->
<g id="edge38" class="edge">
<title>Node23&#45;&gt;Node28</title>
<path fill="none" stroke="#191970" d="M729.4821,-280.2455C744.3491,-271.5731 766.3067,-258.7645 783.3459,-248.825"/>
<polygon fill="#191970" stroke="#191970" points="785.3556,-251.7047 792.2299,-243.6427 781.8285,-245.6582 785.3556,-251.7047"/>
</g>
<!-- Node24&#45;&gt;Node14 -->
<g id="edge37" class="edge">
<title>Node24&#45;&gt;Node14</title>
<path fill="none" stroke="#191970" d="M585.3426,-168.4509C570.7036,-149.6054 537.9073,-107.3849 519.3088,-83.4419"/>
<polygon fill="#191970" stroke="#191970" points="522.0576,-81.2751 513.159,-75.5249 516.5295,-85.5693 522.0576,-81.2751"/>
</g>
<!-- Node25 -->
<g id="node26" class="node">
<title>Node25</title>
<g id="a_node26"><a xlink:href="VectorFixSize_8h.html" target="_top" xlink:title="iDynTree/Core/VectorFixSize.h">
<polygon fill="none" stroke="#000000" points="815.2602,-112.5 815.2602,-131.5 976.2602,-131.5 976.2602,-112.5 815.2602,-112.5"/>
<text text-anchor="middle" x="895.7602" y="-119.5" font-family="FreeSans.ttf" font-size="10.00" fill="#000000">iDynTree/Core/VectorFixSize.h</text>
</a>
</g>
</g>
<!-- Node24&#45;&gt;Node25 -->
<g id="edge30" class="edge">
<title>Node24&#45;&gt;Node25</title>
<path fill="none" stroke="#191970" d="M644.5035,-168.4369C697.0132,-158.7321 778.3046,-143.708 834.1179,-133.3926"/>
<polygon fill="#191970" stroke="#191970" points="835.033,-136.7829 844.2303,-131.5237 833.7607,-129.8994 835.033,-136.7829"/>
</g>
<!-- Node25&#45;&gt;Node4 -->
<g id="edge32" class="edge">
<title>Node25&#45;&gt;Node4</title>
<path fill="none" stroke="#191970" d="M853.4092,-112.4369C810.966,-102.8529 745.5483,-88.0812 699.9288,-77.78"/>
<polygon fill="#191970" stroke="#191970" points="700.4618,-74.3123 689.9364,-75.5237 698.9199,-81.1404 700.4618,-74.3123"/>
</g>
<!-- Node25&#45;&gt;Node5 -->
<g id="edge35" class="edge">
<title>Node25&#45;&gt;Node5</title>
<path fill="none" stroke="#191970" d="M898.1702,-112.1293C901.6827,-98.794 908.9863,-74.5579 919.7602,-56 925.7529,-45.6776 934.1422,-35.4266 941.6052,-27.2305"/>
<polygon fill="#191970" stroke="#191970" points="944.3102,-29.464 948.6364,-19.7927 939.2233,-24.6552 944.3102,-29.464"/>
</g>
<!-- Node25&#45;&gt;Node14 -->
<g id="edge33" class="edge">
<title>Node25&#45;&gt;Node14</title>
<path fill="none" stroke="#191970" d="M829.1599,-112.4369C744.6343,-100.2999 602.1673,-79.8431 538.3672,-70.682"/>
<polygon fill="#191970" stroke="#191970" points="538.5067,-67.1662 528.1107,-69.2093 537.5117,-74.0952 538.5067,-67.1662"/>
</g>
<!-- Node25&#45;&gt;Node16 -->
<g id="edge31" class="edge">
<title>Node25&#45;&gt;Node16</title>
<path fill="none" stroke="#191970" d="M814.9764,-114.4476C696.682,-103.3884 478.2946,-82.9715 366.5728,-72.5267"/>
<polygon fill="#191970" stroke="#191970" points="366.71,-69.0244 356.4276,-71.5783 366.0584,-75.994 366.71,-69.0244"/>
</g>
<!-- Node26 -->
<g id="node27" class="node">
<title>Node26</title>
<polygon fill="none" stroke="#bfbfbf" points="1046.7602,-56.5 1046.7602,-75.5 1102.7602,-75.5 1102.7602,-56.5 1046.7602,-56.5"/>
<text text-anchor="middle" x="1074.7602" y="-63.5" font-family="FreeSans.ttf" font-size="10.00" fill="#000000">sstream</text>
</g>
<!-- Node25&#45;&gt;Node26 -->
<g id="edge34" class="edge">
<title>Node25&#45;&gt;Node26</title>
<path fill="none" stroke="#191970" d="M926.5314,-112.3733C957.1499,-102.7943 1004.1868,-88.0788 1037.0379,-77.8014"/>
<polygon fill="#191970" stroke="#191970" points="1038.245,-81.0911 1046.7438,-74.7649 1036.1549,-74.4104 1038.245,-81.0911"/>
</g>
<!-- Node27 -->
<g id="node28" class="node">
<title>Node27</title>
<polygon fill="none" stroke="#bfbfbf" points="928.7602,-56.5 928.7602,-75.5 978.7602,-75.5 978.7602,-56.5 928.7602,-56.5"/>
<text text-anchor="middle" x="953.7602" y="-63.5" font-family="FreeSans.ttf" font-size="10.00" fill="#000000">cstring</text>
</g>
<!-- Node25&#45;&gt;Node27 -->
<g id="edge36" class="edge">
<title>Node25&#45;&gt;Node27</title>
<path fill="none" stroke="#191970" d="M905.863,-112.2455C914.263,-104.1352 926.4095,-92.4075 936.3686,-82.7919"/>
<polygon fill="#191970" stroke="#191970" points="939.0102,-85.1066 943.7731,-75.6427 934.148,-80.0707 939.0102,-85.1066"/>
</g>
<!-- Node28&#45;&gt;Node14 -->
<g id="edge39" class="edge">
<title>Node28&#45;&gt;Node14</title>
<path fill="none" stroke="#191970" d="M789.0752,-224.4328C770.5359,-215.3324 742.0597,-201.121 717.7602,-188 649.0945,-150.9225 569.768,-104.2103 530.4695,-80.8017"/>
<polygon fill="#191970" stroke="#191970" points="532.1968,-77.7567 521.8159,-75.6381 528.6099,-83.7679 532.1968,-77.7567"/>
</g>
<!-- Node28&#45;&gt;Node25 -->
<g id="edge51" class="edge">
<title>Node28&#45;&gt;Node25</title>
<path fill="none" stroke="#191970" d="M843.6721,-224.3831C861.8996,-217.4207 882.6641,-205.9961 893.7602,-188 902.2106,-174.2948 901.9904,-155.7614 900.0702,-141.8232"/>
<polygon fill="#191970" stroke="#191970" points="903.4875,-141.0476 898.2989,-131.8102 896.5945,-142.267 903.4875,-141.0476"/>
</g>
<!-- Node29 -->
<g id="node30" class="node">
<title>Node29</title>
<g id="a_node30"><a xlink:href="GeomVector3_8h.html" target="_top" xlink:title="iDynTree/Core/GeomVector3.h">
<polygon fill="none" stroke="#000000" points="1017.2602,-168.5 1017.2602,-187.5 1180.2602,-187.5 1180.2602,-168.5 1017.2602,-168.5"/>
<text text-anchor="middle" x="1098.7602" y="-175.5" font-family="FreeSans.ttf" font-size="10.00" fill="#000000">iDynTree/Core/GeomVector3.h</text>
</a>
</g>
</g>
<!-- Node28&#45;&gt;Node29 -->
<g id="edge40" class="edge">
<title>Node28&#45;&gt;Node29</title>
<path fill="none" stroke="#191970" d="M858.2835,-224.4369C908.436,-214.7522 986.0212,-199.7703 1039.4298,-189.4569"/>
<polygon fill="#191970" stroke="#191970" points="1040.2862,-192.8563 1049.4412,-187.5237 1038.9589,-185.9832 1040.2862,-192.8563"/>
</g>
<!-- Node30 -->
<g id="node31" class="node">
<title>Node30</title>
<g id="a_node31"><a xlink:href="RotationRaw_8h.html" target="_top" xlink:title="iDynTree/Core/RotationRaw.h">
<polygon fill="none" stroke="#000000" points="726.7602,-168.5 726.7602,-187.5 884.7602,-187.5 884.7602,-168.5 726.7602,-168.5"/>
<text text-anchor="middle" x="805.7602" y="-175.5" font-family="FreeSans.ttf" font-size="10.00" fill="#000000">iDynTree/Core/RotationRaw.h</text>
</a>
</g>
</g>
<!-- Node28&#45;&gt;Node30 -->
<g id="edge42" class="edge">
<title>Node28&#45;&gt;Node30</title>
<path fill="none" stroke="#191970" d="M808.2376,-224.2455C807.8462,-216.9382 807.2974,-206.6944 806.8158,-197.7046"/>
<polygon fill="#191970" stroke="#191970" points="810.3068,-197.4411 806.2768,-187.6427 803.3168,-197.8156 810.3068,-197.4411"/>
</g>
<!-- Node29&#45;&gt;Node25 -->
<g id="edge41" class="edge">
<title>Node29&#45;&gt;Node25</title>
<path fill="none" stroke="#191970" d="M1063.8632,-168.3733C1029.669,-158.9404 977.4187,-144.5265 940.2559,-134.2747"/>
<polygon fill="#191970" stroke="#191970" points="940.7725,-130.7865 930.2018,-131.5011 938.9109,-137.5345 940.7725,-130.7865"/>
</g>
<!-- Node30&#45;&gt;Node14 -->
<g id="edge50" class="edge">
<title>Node30&#45;&gt;Node14</title>
<path fill="none" stroke="#191970" d="M795.1953,-168.3099C778.8042,-153.8135 745.6921,-126.6248 712.7602,-112 681.7415,-98.2248 588.0212,-80.4297 538.0127,-71.5515"/>
<polygon fill="#191970" stroke="#191970" points="538.4985,-68.0833 528.0432,-69.797 537.2852,-74.9773 538.4985,-68.0833"/>
</g>
<!-- Node30&#45;&gt;Node31 -->
<g id="edge43" class="edge">
<title>Node30&#45;&gt;Node31</title>
<path fill="none" stroke="#191970" d="M851.6973,-168.4369C898.0247,-158.7925 969.587,-143.8948 1019.107,-133.5858"/>
<polygon fill="#191970" stroke="#191970" points="1019.9358,-136.9884 1029.0125,-131.5237 1018.5091,-130.1353 1019.9358,-136.9884"/>
</g>
<!-- Node31&#45;&gt;Node5 -->
<g id="edge45" class="edge">
<title>Node31&#45;&gt;Node5</title>
<path fill="none" stroke="#191970" d="M1064.8701,-112.4509C1045.0946,-93.3574 1000.4681,-50.2697 975.856,-26.5063"/>
<polygon fill="#191970" stroke="#191970" points="978.2504,-23.9529 968.6252,-19.5249 973.3882,-28.9888 978.2504,-23.9529"/>
</g>
<!-- Node31&#45;&gt;Node14 -->
<g id="edge47" class="edge">
<title>Node31&#45;&gt;Node14</title>
<path fill="none" stroke="#191970" d="M994.2391,-112.8663C991.3781,-112.5693 988.5449,-112.2796 985.7602,-112 805.0733,-93.8606 759.2139,-96.3288 578.7602,-76 565.3535,-74.4897 550.603,-72.5265 537.8915,-70.7399"/>
<polygon fill="#191970" stroke="#191970" points="538.1621,-67.2432 527.7678,-69.2946 537.1727,-74.1729 538.1621,-67.2432"/>
</g>
<!-- Node31&#45;&gt;Node16 -->
<g id="edge44" class="edge">
<title>Node31&#45;&gt;Node16</title>
<path fill="none" stroke="#191970" d="M994.2465,-112.7884C991.3834,-112.5134 988.5478,-112.2495 985.7602,-112 866.9926,-101.3685 516.7646,-79.4834 366.5126,-70.254"/>
<polygon fill="#191970" stroke="#191970" points="366.6732,-66.7574 356.4775,-69.6382 366.2443,-73.7442 366.6732,-66.7574"/>
</g>
<!-- Node31&#45;&gt;Node26 -->
<g id="edge49" class="edge">
<title>Node31&#45;&gt;Node26</title>
<path fill="none" stroke="#191970" d="M1074.7602,-112.2455C1074.7602,-104.9382 1074.7602,-94.6944 1074.7602,-85.7046"/>
<polygon fill="#191970" stroke="#191970" points="1078.2603,-85.6426 1074.7602,-75.6427 1071.2603,-85.6427 1078.2603,-85.6426"/>
</g>
<!-- Node31&#45;&gt;Node27 -->
<g id="edge46" class="edge">
<title>Node31&#45;&gt;Node27</title>
<path fill="none" stroke="#191970" d="M1053.9595,-112.3733C1034.5359,-103.3838 1005.3378,-89.8706 983.4637,-79.7471"/>
<polygon fill="#191970" stroke="#191970" points="984.8347,-76.5249 974.2894,-75.5011 981.8945,-82.8776 984.8347,-76.5249"/>
</g>
<!-- Node32 -->
<g id="node33" class="node">
<title>Node32</title>
<polygon fill="none" stroke="#bfbfbf" points="1224.7602,-56.5 1224.7602,-75.5 1284.7602,-75.5 1284.7602,-56.5 1224.7602,-56.5"/>
<text text-anchor="middle" x="1254.7602" y="-63.5" font-family="FreeSans.ttf" font-size="10.00" fill="#000000">iostream</text>
</g>
<!-- Node31&#45;&gt;Node32 -->
<g id="edge48" class="edge">
<title>Node31&#45;&gt;Node32</title>
<path fill="none" stroke="#191970" d="M1105.7033,-112.3733C1135.8552,-102.9927 1181.8405,-88.6861 1214.7567,-78.4455"/>
<polygon fill="#191970" stroke="#191970" points="1216.0116,-81.7206 1224.5205,-75.4079 1213.9321,-75.0366 1216.0116,-81.7206"/>
</g>
<!-- Node34&#45;&gt;Node3 -->
<g id="edge62" class="edge">
<title>Node34&#45;&gt;Node3</title>
<path fill="none" stroke="#191970" d="M738.1442,-463.8604C652.185,-457.3751 522.4016,-444.4042 477.7602,-423 449.1934,-409.3031 424.1157,-381.754 409.6976,-363.5951"/>
<polygon fill="#191970" stroke="#191970" points="412.3748,-361.3349 403.5073,-355.5369 406.8237,-365.5993 412.3748,-361.3349"/>
</g>
<!-- Node34&#45;&gt;Node16 -->
<g id="edge81" class="edge">
<title>Node34&#45;&gt;Node16</title>
<path fill="none" stroke="#191970" d="M738.0146,-462.807C642.056,-454.8483 487.986,-440.012 432.7602,-423 417.3246,-418.2452 314.4412,-368.1152 303.7602,-356 265.5408,-312.6488 258.7602,-291.7932 258.7602,-234 258.7602,-234 258.7602,-234 258.7602,-178 258.7602,-143.6118 275.0236,-106.2832 286.2712,-84.5791"/>
<polygon fill="#191970" stroke="#191970" points="289.4918,-85.9804 291.1532,-75.5166 283.3291,-82.6605 289.4918,-85.9804"/>
</g>
<!-- Node34&#45;&gt;Node21 -->
<g id="edge64" class="edge">
<title>Node34&#45;&gt;Node21</title>
<path fill="none" stroke="#191970" d="M800.5347,-459.4702C783.7088,-450.5101 758.1628,-436.493 736.7602,-423 716.5242,-410.2425 713.6585,-403.6407 692.7602,-392 669.7552,-379.1859 642.4596,-367.5885 621.0651,-359.244"/>
<polygon fill="#191970" stroke="#191970" points="622.2772,-355.9604 611.6871,-355.6463 619.7699,-362.496 622.2772,-355.9604"/>
</g>
<!-- Node34&#45;&gt;Node22 -->
<g id="edge80" class="edge">
<title>Node34&#45;&gt;Node22</title>
<path fill="none" stroke="#191970" d="M823.8907,-459.2703C831.1072,-444.1659 842.2633,-414.4768 831.7602,-392 825.8139,-379.2749 814.4244,-368.8307 803.5452,-361.129"/>
<polygon fill="#191970" stroke="#191970" points="805.3241,-358.1101 795.0435,-355.5491 801.4832,-363.9622 805.3241,-358.1101"/>
</g>
<!-- Node34&#45;&gt;Node25 -->
<g id="edge63" class="edge">
<title>Node34&#45;&gt;Node25</title>
<path fill="none" stroke="#191970" d="M899.3498,-464.2493C1008.9461,-457.1083 1194.2418,-442.3555 1218.7602,-423 1247.342,-400.4367 1246.7602,-382.4146 1246.7602,-346 1246.7602,-346 1246.7602,-346 1246.7602,-234 1246.7602,-200.5868 1238.1811,-187.0928 1210.7602,-168 1201.3883,-161.4745 1072.7807,-144.1966 982.8297,-132.7731"/>
<polygon fill="#191970" stroke="#191970" points="983.2454,-129.2979 972.885,-131.5139 982.3661,-136.2424 983.2454,-129.2979"/>
</g>
<!-- Node34&#45;&gt;Node31 -->
<g id="edge65" class="edge">
<title>Node34&#45;&gt;Node31</title>
<path fill="none" stroke="#191970" d="M899.3703,-465.2353C1015.4218,-459.0772 1218.4895,-445.2581 1243.7602,-423 1328.8497,-348.0543 1321.4087,-242.3063 1235.7602,-168 1220.4915,-154.7533 1174.2977,-142.3236 1135.2851,-133.7325"/>
<polygon fill="#191970" stroke="#191970" points="1135.5383,-130.2069 1125.0256,-131.5235 1134.0648,-137.0501 1135.5383,-130.2069"/>
</g>
<!-- Node35 -->
<g id="node36" class="node">
<title>Node35</title>
<polygon fill="none" stroke="#bfbfbf" points="745.2602,-398 745.2602,-417 822.2602,-417 822.2602,-398 745.2602,-398"/>
<text text-anchor="middle" x="783.7602" y="-405" font-family="FreeSans.ttf" font-size="10.00" fill="#000000">Eigen/Dense</text>
</g>
<!-- Node34&#45;&gt;Node35 -->
<g id="edge61" class="edge">
<title>Node34&#45;&gt;Node35</title>
<path fill="none" stroke="#191970" d="M813.2914,-459.3906C808.2356,-450.5068 800.583,-437.0601 794.3348,-426.0811"/>
<polygon fill="#191970" stroke="#191970" points="797.2941,-424.2048 789.306,-417.2449 791.2104,-427.6672 797.2941,-424.2048"/>
</g>
<!-- Node36 -->
<g id="node37" class="node">
<title>Node36</title>
<g id="a_node37"><a xlink:href="SpatialMotionVector_8h.html" target="_top" xlink:title="iDynTree/Core/SpatialMotion\lVector.h">
<polygon fill="none" stroke="#000000" points="1054.2602,-392.5 1054.2602,-422.5 1209.2602,-422.5 1209.2602,-392.5 1054.2602,-392.5"/>
<text text-anchor="start" x="1062.2602" y="-410.5" font-family="FreeSans.ttf" font-size="10.00" fill="#000000">iDynTree/Core/SpatialMotion</text>
<text text-anchor="middle" x="1131.7602" y="-399.5" font-family="FreeSans.ttf" font-size="10.00" fill="#000000">Vector.h</text>
</a>
</g>
</g>
<!-- Node34&#45;&gt;Node36 -->
<g id="edge66" class="edge">
<title>Node34&#45;&gt;Node36</title>
<path fill="none" stroke="#191970" d="M867.323,-459.4581C914.7036,-450.1485 987.8193,-435.7823 1045.1697,-424.5138"/>
<polygon fill="#191970" stroke="#191970" points="1046.1829,-427.8817 1055.3204,-422.5193 1044.8332,-421.013 1046.1829,-427.8817"/>
</g>
<!-- Node38 -->
<g id="node39" class="node">
<title>Node38</title>
<g id="a_node39"><a xlink:href="SpatialForceVector_8h.html" target="_top" xlink:title="iDynTree/Core/SpatialForce\lVector.h">
<polygon fill="none" stroke="#000000" points="878.7602,-392.5 878.7602,-422.5 1026.7602,-422.5 1026.7602,-392.5 878.7602,-392.5"/>
<text text-anchor="start" x="886.7602" y="-410.5" font-family="FreeSans.ttf" font-size="10.00" fill="#000000">iDynTree/Core/SpatialForce</text>
<text text-anchor="middle" x="952.7602" y="-399.5" font-family="FreeSans.ttf" font-size="10.00" fill="#000000">Vector.h</text>
</a>
</g>
</g>
<!-- Node34&#45;&gt;Node38 -->
<g id="edge76" class="edge">
<title>Node34&#45;&gt;Node38</title>
<path fill="none" stroke="#191970" d="M839.6977,-459.3906C858.6725,-450.682 887.2009,-437.5888 910.8527,-426.7336"/>
<polygon fill="#191970" stroke="#191970" points="912.3515,-429.8968 919.9801,-422.5446 909.4316,-423.5349 912.3515,-429.8968"/>
</g>
<!-- Node36&#45;&gt;Node25 -->
<g id="edge67" class="edge">
<title>Node36&#45;&gt;Node25</title>
<path fill="none" stroke="#191970" d="M1150.0081,-392.473C1172.7781,-371.917 1208.7602,-332.6812 1208.7602,-290 1208.7602,-290 1208.7602,-290 1208.7602,-234 1208.7602,-203.4754 1212.6513,-188.1928 1189.7602,-168 1181.8256,-161.0007 1063.6251,-144.119 979.5489,-132.8712"/>
<polygon fill="#191970" stroke="#191970" points="979.8494,-129.3803 969.4746,-131.5285 978.9245,-136.319 979.8494,-129.3803"/>
</g>
<!-- Node36&#45;&gt;Node29 -->
<g id="edge68" class="edge">
<title>Node36&#45;&gt;Node29</title>
<path fill="none" stroke="#191970" d="M1139.4449,-392.1664C1144.0245,-382.151 1149.3933,-368.6328 1151.7602,-356 1153.3971,-347.2631 1153.1923,-344.7728 1151.7602,-336 1143.2906,-284.1197 1120.1471,-226.2958 1107.4244,-197.0968"/>
<polygon fill="#191970" stroke="#191970" points="1110.5095,-195.42 1103.255,-187.6984 1104.1109,-198.2586 1110.5095,-195.42"/>
</g>
<!-- Node37 -->
<g id="node38" class="node">
<title>Node37</title>
<g id="a_node38"><a xlink:href="SpatialVector_8h.html" target="_top" xlink:title="iDynTree/Core/SpatialVector.h">
<polygon fill="none" stroke="#000000" points="981.2602,-336.5 981.2602,-355.5 1142.2602,-355.5 1142.2602,-336.5 981.2602,-336.5"/>
<text text-anchor="middle" x="1061.7602" y="-343.5" font-family="FreeSans.ttf" font-size="10.00" fill="#000000">iDynTree/Core/SpatialVector.h</text>
</a>
</g>
</g>
<!-- Node36&#45;&gt;Node37 -->
<g id="edge69" class="edge">
<title>Node36&#45;&gt;Node37</title>
<path fill="none" stroke="#191970" d="M1114.4568,-392.2977C1104.234,-383.3163 1091.2779,-371.9334 1080.7706,-362.702"/>
<polygon fill="#191970" stroke="#191970" points="1082.7906,-359.8178 1072.9681,-355.8469 1078.1705,-365.0766 1082.7906,-359.8178"/>
</g>
<!-- Node37&#45;&gt;Node16 -->
<g id="edge72" class="edge">
<title>Node37&#45;&gt;Node16</title>
<path fill="none" stroke="#191970" d="M981.2324,-341.1444C876.1004,-334.1439 698.142,-319.8427 635.7602,-300 494.3241,-255.0113 359.4101,-129.1746 313.3999,-83.1448"/>
<polygon fill="#191970" stroke="#191970" points="315.6109,-80.4029 306.0916,-75.7516 310.6326,-85.324 315.6109,-80.4029"/>
</g>
<!-- Node37&#45;&gt;Node23 -->
<g id="edge70" class="edge">
<title>Node37&#45;&gt;Node23</title>
<path fill="none" stroke="#191970" d="M1002.1615,-336.4369C941.178,-326.6516 846.491,-311.4582 782.1663,-301.1368"/>
<polygon fill="#191970" stroke="#191970" points="782.5413,-297.6523 772.1131,-299.5237 781.4322,-304.5639 782.5413,-297.6523"/>
</g>
<!-- Node37&#45;&gt;Node26 -->
<g id="edge75" class="edge">
<title>Node37&#45;&gt;Node26</title>
<path fill="none" stroke="#191970" d="M1084.2366,-336.4029C1127.962,-316.3278 1223.4493,-265.2647 1260.7602,-188 1292.4958,-122.2808 1176.0178,-87.1068 1112.8552,-73.1941"/>
<polygon fill="#191970" stroke="#191970" points="1113.3458,-69.7203 1102.8368,-71.0666 1111.8916,-76.5676 1113.3458,-69.7203"/>
</g>
<!-- Node37&#45;&gt;Node28 -->
<g id="edge71" class="edge">
<title>Node37&#45;&gt;Node28</title>
<path fill="none" stroke="#191970" d="M1040.1895,-336.4509C995.2848,-316.5722 891.6293,-270.6852 839.6523,-247.6756"/>
<polygon fill="#191970" stroke="#191970" points="840.8371,-244.3725 830.2762,-243.5249 838.0035,-250.7733 840.8371,-244.3725"/>
</g>
<!-- Node37&#45;&gt;Node29 -->
<g id="edge73" class="edge">
<title>Node37&#45;&gt;Node29</title>
<path fill="none" stroke="#191970" d="M1063.8555,-336.4862C1069.7296,-309.8144 1086.4463,-233.9117 1094.4226,-197.695"/>
<polygon fill="#191970" stroke="#191970" points="1097.8629,-198.3467 1096.5957,-187.8279 1091.0267,-196.841 1097.8629,-198.3467"/>
</g>
<!-- Node37&#45;&gt;Node32 -->
<g id="edge74" class="edge">
<title>Node37&#45;&gt;Node32</title>
<path fill="none" stroke="#191970" d="M1119.7649,-336.442C1206.7158,-320.4488 1360.7602,-284.9281 1360.7602,-234 1360.7602,-234 1360.7602,-234 1360.7602,-178 1360.7602,-132.9213 1314.9036,-98.6897 1283.513,-80.5376"/>
<polygon fill="#191970" stroke="#191970" points="1285.1388,-77.437 1274.698,-75.6372 1281.7376,-83.5552 1285.1388,-77.437"/>
</g>
<!-- Node38&#45;&gt;Node25 -->
<g id="edge77" class="edge">
<title>Node38&#45;&gt;Node25</title>
<path fill="none" stroke="#191970" d="M950.8811,-392.4916C945.9664,-354.5327 931.65,-251.7628 910.7602,-168 908.5554,-159.1594 905.5261,-149.5522 902.7668,-141.4152"/>
<polygon fill="#191970" stroke="#191970" points="905.9926,-140.0367 899.387,-131.7533 899.3852,-142.3481 905.9926,-140.0367"/>
</g>
<!-- Node38&#45;&gt;Node29 -->
<g id="edge78" class="edge">
<title>Node38&#45;&gt;Node29</title>
<path fill="none" stroke="#191970" d="M955.1773,-392.3415C957.9701,-377.4077 963.4242,-354.2447 972.7602,-336 1002.144,-278.5772 1054.3095,-222.1417 1081.3792,-194.8922"/>
<polygon fill="#191970" stroke="#191970" points="1083.9883,-197.2338 1088.6158,-187.703 1079.0548,-192.2678 1083.9883,-197.2338"/>
</g>
<!-- Node38&#45;&gt;Node37 -->
<g id="edge79" class="edge">
<title>Node38&#45;&gt;Node37</title>
<path fill="none" stroke="#191970" d="M979.4246,-392.4554C996.6543,-382.734 1018.9577,-370.15 1036.0048,-360.5317"/>
<polygon fill="#191970" stroke="#191970" points="1037.8796,-363.4926 1044.8691,-355.5303 1034.4398,-357.3961 1037.8796,-363.4926"/>
</g>
</g>
</svg>
