<?xml version="1.0" encoding="UTF-8" standalone="no"?>
<!DOCTYPE svg PUBLIC "-//W3C//DTD SVG 1.1//EN"
 "http://www.w3.org/Graphics/SVG/1.1/DTD/svg11.dtd">
<!-- Generated by graphviz version 2.40.1 (20161225.0304)
 -->
<!-- Title: LinearCost.h Pages: 1 -->
<svg width="999pt" height="532pt"
 viewBox="0.00 0.00 998.50 532.00" xmlns="http://www.w3.org/2000/svg" xmlns:xlink="http://www.w3.org/1999/xlink">
<g id="graph0" class="graph" transform="scale(1 1) rotate(0) translate(4 528)">
<title>LinearCost.h</title>
<!-- Node0 -->
<g id="node1" class="node">
<title>Node0</title>
<polygon fill="#bfbfbf" stroke="#000000" points="186.5,-504.5 186.5,-523.5 263.5,-523.5 263.5,-504.5 186.5,-504.5"/>
<text text-anchor="middle" x="225" y="-511.5" font-family="FreeSans.ttf" font-size="10.00" fill="#000000">LinearCost.h</text>
</g>
<!-- Node1 -->
<g id="node2" class="node">
<title>Node1</title>
<g id="a_node2"><a xlink:href="QuadraticLikeCost_8h.html" target="_top" xlink:title="iDynTree/QuadraticLikeCost.h">
<polygon fill="none" stroke="#000000" points="90.5,-448.5 90.5,-467.5 251.5,-467.5 251.5,-448.5 90.5,-448.5"/>
<text text-anchor="middle" x="171" y="-455.5" font-family="FreeSans.ttf" font-size="10.00" fill="#000000">iDynTree/QuadraticLikeCost.h</text>
</a>
</g>
</g>
<!-- Node0&#45;&gt;Node1 -->
<g id="edge1" class="edge">
<title>Node0&#45;&gt;Node1</title>
<path fill="none" stroke="#191970" d="M215.5939,-504.2455C207.8507,-496.2155 196.688,-484.6394 187.4682,-475.0781"/>
<polygon fill="#191970" stroke="#191970" points="189.7591,-472.4117 180.2983,-467.6427 184.7202,-477.2706 189.7591,-472.4117"/>
</g>
<!-- Node10 -->
<g id="node11" class="node">
<title>Node10</title>
<g id="a_node11"><a xlink:href="TimeVaryingObject_8h.html" target="_top" xlink:title="iDynTree/TimeVaryingObject.h">
<polygon fill="none" stroke="#000000" points="208,-392.5 208,-411.5 372,-411.5 372,-392.5 208,-392.5"/>
<text text-anchor="middle" x="290" y="-399.5" font-family="FreeSans.ttf" font-size="10.00" fill="#000000">iDynTree/TimeVaryingObject.h</text>
</a>
</g>
</g>
<!-- Node0&#45;&gt;Node10 -->
<g id="edge57" class="edge">
<title>Node0&#45;&gt;Node10</title>
<path fill="none" stroke="#191970" d="M233.4666,-504.2297C241.0184,-495.2182 252.0742,-481.2666 260,-468 268.9647,-452.9944 277.0316,-434.8465 282.5366,-421.3815"/>
<polygon fill="#191970" stroke="#191970" points="285.9291,-422.3219 286.3705,-411.7362 279.4242,-419.7362 285.9291,-422.3219"/>
</g>
<!-- Node2 -->
<g id="node3" class="node">
<title>Node2</title>
<g id="a_node3"><a xlink:href="Cost_8h.html" target="_top" xlink:title="iDynTree/Cost.h">
<polygon fill="none" stroke="#000000" points="42.5,-168.5 42.5,-187.5 135.5,-187.5 135.5,-168.5 42.5,-168.5"/>
<text text-anchor="middle" x="89" y="-175.5" font-family="FreeSans.ttf" font-size="10.00" fill="#000000">iDynTree/Cost.h</text>
</a>
</g>
</g>
<!-- Node1&#45;&gt;Node2 -->
<g id="edge2" class="edge">
<title>Node1&#45;&gt;Node2</title>
<path fill="none" stroke="#191970" d="M157.0898,-448.3601C133.6949,-430.8875 89,-391.5468 89,-346 89,-346 89,-346 89,-290 89,-257.7116 89,-220.1872 89,-197.8048"/>
<polygon fill="#191970" stroke="#191970" points="92.5001,-197.5883 89,-187.5884 85.5001,-197.5884 92.5001,-197.5883"/>
</g>
<!-- Node1&#45;&gt;Node10 -->
<g id="edge12" class="edge">
<title>Node1&#45;&gt;Node10</title>
<path fill="none" stroke="#191970" d="M191.4568,-448.3733C210.4738,-439.4241 239.0175,-425.9917 260.4976,-415.8835"/>
<polygon fill="#191970" stroke="#191970" points="262.2522,-418.926 269.8101,-411.5011 259.2716,-412.5923 262.2522,-418.926"/>
</g>
<!-- Node33 -->
<g id="node34" class="node">
<title>Node33</title>
<polygon fill="none" stroke="#bfbfbf" points="132,-392.5 132,-411.5 190,-411.5 190,-392.5 132,-392.5"/>
<text text-anchor="middle" x="161" y="-399.5" font-family="FreeSans.ttf" font-size="10.00" fill="#000000">memory</text>
</g>
<!-- Node1&#45;&gt;Node33 -->
<g id="edge56" class="edge">
<title>Node1&#45;&gt;Node33</title>
<path fill="none" stroke="#191970" d="M169.2581,-448.2455C167.9533,-440.9382 166.124,-430.6944 164.5187,-421.7046"/>
<polygon fill="#191970" stroke="#191970" points="167.9254,-420.8717 162.7219,-411.6427 161.0344,-422.1022 167.9254,-420.8717"/>
</g>
<!-- Node3 -->
<g id="node4" class="node">
<title>Node3</title>
<polygon fill="none" stroke="#bfbfbf" points="303,-56.5 303,-75.5 347,-75.5 347,-56.5 303,-56.5"/>
<text text-anchor="middle" x="325" y="-63.5" font-family="FreeSans.ttf" font-size="10.00" fill="#000000">string</text>
</g>
<!-- Node2&#45;&gt;Node3 -->
<g id="edge3" class="edge">
<title>Node2&#45;&gt;Node3</title>
<path fill="none" stroke="#191970" d="M106.2898,-168.3344C130.3514,-155.0241 175.4412,-130.5896 215,-112 240.9939,-99.7849 271.124,-87.298 293.2708,-78.4222"/>
<polygon fill="#191970" stroke="#191970" points="294.8448,-81.5628 302.841,-74.6122 292.2556,-75.0592 294.8448,-81.5628"/>
</g>
<!-- Node4 -->
<g id="node5" class="node">
<title>Node4</title>
<g id="a_node5"><a xlink:href="SparsityStructure_8h.html" target="_top" xlink:title="iDynTree/SparsityStructure.h">
<polygon fill="none" stroke="#000000" points="7.5,-112.5 7.5,-131.5 162.5,-131.5 162.5,-112.5 7.5,-112.5"/>
<text text-anchor="middle" x="85" y="-119.5" font-family="FreeSans.ttf" font-size="10.00" fill="#000000">iDynTree/SparsityStructure.h</text>
</a>
</g>
</g>
<!-- Node2&#45;&gt;Node4 -->
<g id="edge4" class="edge">
<title>Node2&#45;&gt;Node4</title>
<path fill="none" stroke="#191970" d="M88.3033,-168.2455C87.7813,-160.9382 87.0496,-150.6944 86.4075,-141.7046"/>
<polygon fill="#191970" stroke="#191970" points="89.8924,-141.3679 85.6888,-131.6427 82.9102,-141.8667 89.8924,-141.3679"/>
</g>
<!-- Node4&#45;&gt;Node3 -->
<g id="edge11" class="edge">
<title>Node4&#45;&gt;Node3</title>
<path fill="none" stroke="#191970" d="M125.9848,-112.4369C173.2315,-101.4126 249.8962,-83.5242 292.9793,-73.4715"/>
<polygon fill="#191970" stroke="#191970" points="293.9729,-76.8338 302.916,-71.1529 292.3822,-70.0169 293.9729,-76.8338"/>
</g>
<!-- Node5 -->
<g id="node6" class="node">
<title>Node5</title>
<g id="a_node6"><a xlink:href="Utils_8h.html" target="_top" xlink:title="iDynTree/Core/Utils.h">
<polygon fill="none" stroke="#000000" points="365.5,-56.5 365.5,-75.5 484.5,-75.5 484.5,-56.5 365.5,-56.5"/>
<text text-anchor="middle" x="425" y="-63.5" font-family="FreeSans.ttf" font-size="10.00" fill="#000000">iDynTree/Core/Utils.h</text>
</a>
</g>
</g>
<!-- Node4&#45;&gt;Node5 -->
<g id="edge5" class="edge">
<title>Node4&#45;&gt;Node5</title>
<path fill="none" stroke="#191970" d="M143.0618,-112.4369C202.3503,-102.6717 294.3384,-87.5207 356.9965,-77.2006"/>
<polygon fill="#191970" stroke="#191970" points="357.8795,-80.6024 367.1777,-75.5237 356.7418,-73.6954 357.8795,-80.6024"/>
</g>
<!-- Node6 -->
<g id="node7" class="node">
<title>Node6</title>
<polygon fill="none" stroke="#bfbfbf" points="249.5,-.5 249.5,-19.5 302.5,-19.5 302.5,-.5 249.5,-.5"/>
<text text-anchor="middle" x="276" y="-7.5" font-family="FreeSans.ttf" font-size="10.00" fill="#000000">cstddef</text>
</g>
<!-- Node4&#45;&gt;Node6 -->
<g id="edge9" class="edge">
<title>Node4&#45;&gt;Node6</title>
<path fill="none" stroke="#191970" d="M101.2846,-112.4509C134.6916,-92.8615 211.1705,-48.0152 250.9406,-24.6945"/>
<polygon fill="#191970" stroke="#191970" points="252.9008,-27.6025 259.7567,-19.5249 249.3599,-21.5641 252.9008,-27.6025"/>
</g>
<!-- Node8 -->
<g id="node9" class="node">
<title>Node8</title>
<polygon fill="none" stroke="#bfbfbf" points="104.5,-56.5 104.5,-75.5 151.5,-75.5 151.5,-56.5 104.5,-56.5"/>
<text text-anchor="middle" x="128" y="-63.5" font-family="FreeSans.ttf" font-size="10.00" fill="#000000">vector</text>
</g>
<!-- Node4&#45;&gt;Node8 -->
<g id="edge8" class="edge">
<title>Node4&#45;&gt;Node8</title>
<path fill="none" stroke="#191970" d="M92.49,-112.2455C98.5326,-104.3761 107.1903,-93.101 114.4441,-83.6542"/>
<polygon fill="#191970" stroke="#191970" points="117.2815,-85.7058 120.5958,-75.6427 111.7295,-81.4426 117.2815,-85.7058"/>
</g>
<!-- Node9 -->
<g id="node10" class="node">
<title>Node9</title>
<polygon fill="none" stroke="#bfbfbf" points="0,-56.5 0,-75.5 86,-75.5 86,-56.5 0,-56.5"/>
<text text-anchor="middle" x="43" y="-63.5" font-family="FreeSans.ttf" font-size="10.00" fill="#000000">unordered_set</text>
</g>
<!-- Node4&#45;&gt;Node9 -->
<g id="edge10" class="edge">
<title>Node4&#45;&gt;Node9</title>
<path fill="none" stroke="#191970" d="M77.6842,-112.2455C71.7821,-104.3761 63.3258,-93.101 56.2406,-83.6542"/>
<polygon fill="#191970" stroke="#191970" points="59.0321,-81.5427 50.232,-75.6427 53.432,-85.7427 59.0321,-81.5427"/>
</g>
<!-- Node5&#45;&gt;Node6 -->
<g id="edge6" class="edge">
<title>Node5&#45;&gt;Node6</title>
<path fill="none" stroke="#191970" d="M399.386,-56.3733C374.9313,-47.1822 337.8946,-33.2624 310.7791,-23.0713"/>
<polygon fill="#191970" stroke="#191970" points="311.8719,-19.7431 301.2798,-19.5011 309.4091,-26.2956 311.8719,-19.7431"/>
</g>
<!-- Node7 -->
<g id="node8" class="node">
<title>Node7</title>
<polygon fill="none" stroke="#bfbfbf" points="321,-.5 321,-19.5 401,-19.5 401,-.5 321,-.5"/>
<text text-anchor="middle" x="361" y="-7.5" font-family="FreeSans.ttf" font-size="10.00" fill="#000000">CoreExport.h</text>
</g>
<!-- Node5&#45;&gt;Node7 -->
<g id="edge7" class="edge">
<title>Node5&#45;&gt;Node7</title>
<path fill="none" stroke="#191970" d="M413.8521,-56.2455C404.4913,-48.0549 390.9142,-36.1749 379.8651,-26.5069"/>
<polygon fill="#191970" stroke="#191970" points="381.8508,-23.5937 372.0202,-19.6427 377.2412,-28.8618 381.8508,-23.5937"/>
</g>
<!-- Node11 -->
<g id="node12" class="node">
<title>Node11</title>
<g id="a_node12"><a xlink:href="VectorDynSize_8h.html" target="_top" xlink:title="iDynTree/Core/VectorDynSize.h">
<polygon fill="none" stroke="#000000" points="465.5,-112.5 465.5,-131.5 632.5,-131.5 632.5,-112.5 465.5,-112.5"/>
<text text-anchor="middle" x="549" y="-119.5" font-family="FreeSans.ttf" font-size="10.00" fill="#000000">iDynTree/Core/VectorDynSize.h</text>
</a>
</g>
</g>
<!-- Node10&#45;&gt;Node11 -->
<g id="edge13" class="edge">
<title>Node10&#45;&gt;Node11</title>
<path fill="none" stroke="#191970" d="M372.2397,-397.3077C557.0146,-385.6655 989,-351.8351 989,-290 989,-290 989,-290 989,-234 989,-195.2415 966.2164,-186.206 932,-168 925.6307,-164.611 754.2037,-144.9314 642.8786,-132.4351"/>
<polygon fill="#191970" stroke="#191970" points="642.9627,-128.9227 632.635,-131.2865 642.1826,-135.8791 642.9627,-128.9227"/>
</g>
<!-- Node21 -->
<g id="node22" class="node">
<title>Node21</title>
<g id="a_node22"><a xlink:href="MatrixDynSize_8h.html" target="_top" xlink:title="iDynTree/Core/MatrixDynSize.h">
<polygon fill="none" stroke="#000000" points="116.5,-280.5 116.5,-299.5 283.5,-299.5 283.5,-280.5 116.5,-280.5"/>
<text text-anchor="middle" x="200" y="-287.5" font-family="FreeSans.ttf" font-size="10.00" fill="#000000">iDynTree/Core/MatrixDynSize.h</text>
</a>
</g>
</g>
<!-- Node10&#45;&gt;Node21 -->
<g id="edge25" class="edge">
<title>Node10&#45;&gt;Node21</title>
<path fill="none" stroke="#191970" d="M282.3267,-392.4509C267.1829,-373.6054 233.2557,-331.3849 214.0158,-307.4419"/>
<polygon fill="#191970" stroke="#191970" points="216.6462,-305.1276 207.6539,-299.5249 211.1896,-309.5124 216.6462,-305.1276"/>
</g>
<!-- Node22 -->
<g id="node23" class="node">
<title>Node22</title>
<g id="a_node23"><a xlink:href="Transform_8h.html" target="_top" xlink:title="iDynTree/Core/Transform.h">
<polygon fill="none" stroke="#000000" points="338,-336.5 338,-355.5 484,-355.5 484,-336.5 338,-336.5"/>
<text text-anchor="middle" x="411" y="-343.5" font-family="FreeSans.ttf" font-size="10.00" fill="#000000">iDynTree/Core/Transform.h</text>
</a>
</g>
</g>
<!-- Node10&#45;&gt;Node22 -->
<g id="edge27" class="edge">
<title>Node10&#45;&gt;Node22</title>
<path fill="none" stroke="#191970" d="M310.8006,-392.3733C330.2243,-383.3838 359.4224,-369.8706 381.2964,-359.7471"/>
<polygon fill="#191970" stroke="#191970" points="382.8656,-362.8776 390.4708,-355.5011 379.9255,-356.5249 382.8656,-362.8776"/>
</g>
<!-- Node11&#45;&gt;Node3 -->
<g id="edge24" class="edge">
<title>Node11&#45;&gt;Node3</title>
<path fill="none" stroke="#191970" d="M505.32,-112.4218C466.2637,-103.6471 407.557,-89.9386 357,-76 356.9018,-75.9729 356.8035,-75.9458 356.705,-75.9185"/>
<polygon fill="#191970" stroke="#191970" points="357.9023,-72.6218 347.3225,-73.1875 355.9459,-79.3429 357.9023,-72.6218"/>
</g>
<!-- Node12 -->
<g id="node13" class="node">
<title>Node12</title>
<g id="a_node13"><a xlink:href="Span_8h.html" target="_top" xlink:title="iDynTree/Core/Span.h">
<polygon fill="none" stroke="#000000" points="570.5,-56.5 570.5,-75.5 691.5,-75.5 691.5,-56.5 570.5,-56.5"/>
<text text-anchor="middle" x="631" y="-63.5" font-family="FreeSans.ttf" font-size="10.00" fill="#000000">iDynTree/Core/Span.h</text>
</a>
</g>
</g>
<!-- Node11&#45;&gt;Node12 -->
<g id="edge14" class="edge">
<title>Node11&#45;&gt;Node12</title>
<path fill="none" stroke="#191970" d="M563.2833,-112.2455C575.747,-103.7337 594.0451,-91.2375 608.4792,-81.3801"/>
<polygon fill="#191970" stroke="#191970" points="610.5962,-84.1726 616.8804,-75.6427 606.6485,-78.392 610.5962,-84.1726"/>
</g>
<!-- Node12&#45;&gt;Node6 -->
<g id="edge18" class="edge">
<title>Node12&#45;&gt;Node6</title>
<path fill="none" stroke="#191970" d="M570.3315,-59.589C507.9963,-52.4764 408.0315,-39.6138 312.4714,-19.8681"/>
<polygon fill="#191970" stroke="#191970" points="313.1483,-16.434 302.6431,-17.8093 311.713,-23.2853 313.1483,-16.434"/>
</g>
<!-- Node13 -->
<g id="node14" class="node">
<title>Node13</title>
<polygon fill="none" stroke="#bfbfbf" points="930,-.5 930,-19.5 982,-19.5 982,-.5 930,-.5"/>
<text text-anchor="middle" x="956" y="-7.5" font-family="FreeSans.ttf" font-size="10.00" fill="#000000">cassert</text>
</g>
<!-- Node12&#45;&gt;Node13 -->
<g id="edge15" class="edge">
<title>Node12&#45;&gt;Node13</title>
<path fill="none" stroke="#191970" d="M691.6077,-57.2688C759.0041,-47.4138 864.6661,-31.4952 919.7231,-20.0364"/>
<polygon fill="#191970" stroke="#191970" points="920.6778,-23.411 929.7139,-17.8793 919.2004,-16.5687 920.6778,-23.411"/>
</g>
<!-- Node14 -->
<g id="node15" class="node">
<title>Node14</title>
<polygon fill="none" stroke="#bfbfbf" points="483,-.5 483,-19.5 547,-19.5 547,-.5 483,-.5"/>
<text text-anchor="middle" x="515" y="-7.5" font-family="FreeSans.ttf" font-size="10.00" fill="#000000">algorithm</text>
</g>
<!-- Node12&#45;&gt;Node14 -->
<g id="edge16" class="edge">
<title>Node12&#45;&gt;Node14</title>
<path fill="none" stroke="#191970" d="M611.0589,-56.3733C592.5214,-47.4241 564.6972,-33.9917 543.7587,-23.8835"/>
<polygon fill="#191970" stroke="#191970" points="545.2081,-20.6967 534.6809,-19.5011 542.1648,-27.0006 545.2081,-20.6967"/>
</g>
<!-- Node15 -->
<g id="node16" class="node">
<title>Node15</title>
<polygon fill="none" stroke="#bfbfbf" points="565,-.5 565,-19.5 607,-19.5 607,-.5 565,-.5"/>
<text text-anchor="middle" x="586" y="-7.5" font-family="FreeSans.ttf" font-size="10.00" fill="#000000">array</text>
</g>
<!-- Node12&#45;&gt;Node15 -->
<g id="edge17" class="edge">
<title>Node12&#45;&gt;Node15</title>
<path fill="none" stroke="#191970" d="M623.1616,-56.2455C616.838,-48.3761 607.7776,-37.101 600.1864,-27.6542"/>
<polygon fill="#191970" stroke="#191970" points="602.7408,-25.2454 593.7486,-19.6427 597.2842,-29.6302 602.7408,-25.2454"/>
</g>
<!-- Node16 -->
<g id="node17" class="node">
<title>Node16</title>
<polygon fill="none" stroke="#bfbfbf" points="625.5,-.5 625.5,-19.5 678.5,-19.5 678.5,-.5 625.5,-.5"/>
<text text-anchor="middle" x="652" y="-7.5" font-family="FreeSans.ttf" font-size="10.00" fill="#000000">iterator</text>
</g>
<!-- Node12&#45;&gt;Node16 -->
<g id="edge19" class="edge">
<title>Node12&#45;&gt;Node16</title>
<path fill="none" stroke="#191970" d="M634.6579,-56.2455C637.4584,-48.7776 641.409,-38.2427 644.8324,-29.1137"/>
<polygon fill="#191970" stroke="#191970" points="648.1499,-30.2349 648.384,-19.6427 641.5955,-27.777 648.1499,-30.2349"/>
</g>
<!-- Node17 -->
<g id="node18" class="node">
<title>Node17</title>
<polygon fill="none" stroke="#bfbfbf" points="697,-.5 697,-19.5 741,-19.5 741,-.5 697,-.5"/>
<text text-anchor="middle" x="719" y="-7.5" font-family="FreeSans.ttf" font-size="10.00" fill="#000000">limits</text>
</g>
<!-- Node12&#45;&gt;Node17 -->
<g id="edge20" class="edge">
<title>Node12&#45;&gt;Node17</title>
<path fill="none" stroke="#191970" d="M646.3284,-56.2455C659.8303,-47.6534 679.7122,-35.0014 695.2686,-25.1018"/>
<polygon fill="#191970" stroke="#191970" points="697.2897,-27.9643 703.8472,-19.6427 693.5315,-22.0587 697.2897,-27.9643"/>
</g>
<!-- Node18 -->
<g id="node19" class="node">
<title>Node18</title>
<polygon fill="none" stroke="#bfbfbf" points="759.5,-.5 759.5,-19.5 824.5,-19.5 824.5,-.5 759.5,-.5"/>
<text text-anchor="middle" x="792" y="-7.5" font-family="FreeSans.ttf" font-size="10.00" fill="#000000">stdexcept</text>
</g>
<!-- Node12&#45;&gt;Node18 -->
<g id="edge21" class="edge">
<title>Node12&#45;&gt;Node18</title>
<path fill="none" stroke="#191970" d="M658.6769,-56.3733C685.3328,-47.1016 725.8238,-33.0178 755.1884,-22.804"/>
<polygon fill="#191970" stroke="#191970" points="756.3891,-26.0921 764.6843,-19.5011 754.0895,-19.4807 756.3891,-26.0921"/>
</g>
<!-- Node19 -->
<g id="node20" class="node">
<title>Node19</title>
<polygon fill="none" stroke="#bfbfbf" points="842.5,-.5 842.5,-19.5 911.5,-19.5 911.5,-.5 842.5,-.5"/>
<text text-anchor="middle" x="877" y="-7.5" font-family="FreeSans.ttf" font-size="10.00" fill="#000000">type_traits</text>
</g>
<!-- Node12&#45;&gt;Node19 -->
<g id="edge22" class="edge">
<title>Node12&#45;&gt;Node19</title>
<path fill="none" stroke="#191970" d="M673.3954,-56.4665C712.3081,-47.6997 771.8362,-34.2474 832.1867,-20.4086"/>
<polygon fill="#191970" stroke="#191970" points="833.3064,-23.7427 842.2701,-18.0945 831.7406,-16.92 833.3064,-23.7427"/>
</g>
<!-- Node20 -->
<g id="node21" class="node">
<title>Node20</title>
<polygon fill="none" stroke="#bfbfbf" points="419.5,-.5 419.5,-19.5 464.5,-19.5 464.5,-.5 419.5,-.5"/>
<text text-anchor="middle" x="442" y="-7.5" font-family="FreeSans.ttf" font-size="10.00" fill="#000000">utility</text>
</g>
<!-- Node12&#45;&gt;Node20 -->
<g id="edge23" class="edge">
<title>Node12&#45;&gt;Node20</title>
<path fill="none" stroke="#191970" d="M597.8697,-56.4793C568.0481,-47.8681 522.7836,-34.6965 474.4205,-20.0911"/>
<polygon fill="#191970" stroke="#191970" points="475.2954,-16.6992 464.7102,-17.1519 473.2673,-23.399 475.2954,-16.6992"/>
</g>
<!-- Node21&#45;&gt;Node3 -->
<g id="edge26" class="edge">
<title>Node21&#45;&gt;Node3</title>
<path fill="none" stroke="#191970" d="M200.5415,-280.4699C202.5997,-252.0229 212.0529,-166.3318 253,-112 263.4726,-98.1042 279.4652,-87.2847 293.7203,-79.6398"/>
<polygon fill="#191970" stroke="#191970" points="295.4128,-82.7061 302.7614,-75.074 292.2573,-76.4576 295.4128,-82.7061"/>
</g>
<!-- Node22&#45;&gt;Node3 -->
<g id="edge55" class="edge">
<title>Node22&#45;&gt;Node3</title>
<path fill="none" stroke="#191970" d="M383.2345,-336.3484C366.3294,-329.016 345.7849,-317.2197 334,-300 286.4875,-230.5759 300.4514,-195.3293 312,-112 313.2357,-103.0835 315.7581,-93.4647 318.255,-85.3395"/>
<polygon fill="#191970" stroke="#191970" points="321.6247,-86.296 321.4124,-75.7033 314.9726,-84.1164 321.6247,-86.296"/>
</g>
<!-- Node23 -->
<g id="node24" class="node">
<title>Node23</title>
<g id="a_node24"><a xlink:href="Position_8h.html" target="_top" xlink:title="iDynTree/Core/Position.h">
<polygon fill="none" stroke="#000000" points="343,-280.5 343,-299.5 479,-299.5 479,-280.5 343,-280.5"/>
<text text-anchor="middle" x="411" y="-287.5" font-family="FreeSans.ttf" font-size="10.00" fill="#000000">iDynTree/Core/Position.h</text>
</a>
</g>
</g>
<!-- Node22&#45;&gt;Node23 -->
<g id="edge28" class="edge">
<title>Node22&#45;&gt;Node23</title>
<path fill="none" stroke="#191970" d="M411,-336.2455C411,-328.9382 411,-318.6944 411,-309.7046"/>
<polygon fill="#191970" stroke="#191970" points="414.5001,-309.6426 411,-299.6427 407.5001,-309.6427 414.5001,-309.6426"/>
</g>
<!-- Node28 -->
<g id="node29" class="node">
<title>Node28</title>
<g id="a_node29"><a xlink:href="Rotation_8h.html" target="_top" xlink:title="iDynTree/Core/Rotation.h">
<polygon fill="none" stroke="#000000" points="501.5,-224.5 501.5,-243.5 638.5,-243.5 638.5,-224.5 501.5,-224.5"/>
<text text-anchor="middle" x="570" y="-231.5" font-family="FreeSans.ttf" font-size="10.00" fill="#000000">iDynTree/Core/Rotation.h</text>
</a>
</g>
</g>
<!-- Node22&#45;&gt;Node28 -->
<g id="edge53" class="edge">
<title>Node22&#45;&gt;Node28</title>
<path fill="none" stroke="#191970" d="M428.5573,-336.4364C444.4516,-327.564 468.3183,-313.7005 488,-300 510.6067,-284.2633 535.0187,-264.178 551.2734,-250.3201"/>
<polygon fill="#191970" stroke="#191970" points="553.6761,-252.8702 558.9773,-243.6969 549.1126,-247.5621 553.6761,-252.8702"/>
</g>
<!-- Node31 -->
<g id="node32" class="node">
<title>Node31</title>
<g id="a_node32"><a xlink:href="MatrixFixSize_8h.html" target="_top" xlink:title="iDynTree/Core/MatrixFixSize.h">
<polygon fill="none" stroke="#000000" points="829.5,-112.5 829.5,-131.5 990.5,-131.5 990.5,-112.5 829.5,-112.5"/>
<text text-anchor="middle" x="910" y="-119.5" font-family="FreeSans.ttf" font-size="10.00" fill="#000000">iDynTree/Core/MatrixFixSize.h</text>
</a>
</g>
</g>
<!-- Node22&#45;&gt;Node31 -->
<g id="edge54" class="edge">
<title>Node22&#45;&gt;Node31</title>
<path fill="none" stroke="#191970" d="M473.3848,-336.4498C599.3229,-315.7615 876.6774,-262.5879 932,-188 942.5063,-173.8351 933.8704,-154.3572 924.5107,-140.2354"/>
<polygon fill="#191970" stroke="#191970" points="927.1403,-137.8982 918.4495,-131.8384 921.4645,-141.9952 927.1403,-137.8982"/>
</g>
<!-- Node23&#45;&gt;Node3 -->
<g id="edge52" class="edge">
<title>Node23&#45;&gt;Node3</title>
<path fill="none" stroke="#191970" d="M398.4008,-280.403C378.1137,-264.0594 338.9705,-228.6205 324,-188 311.3598,-153.7025 316.2156,-110.2065 320.7231,-85.4988"/>
<polygon fill="#191970" stroke="#191970" points="324.1799,-86.0609 322.7055,-75.5692 317.3153,-84.6904 324.1799,-86.0609"/>
</g>
<!-- Node24 -->
<g id="node25" class="node">
<title>Node24</title>
<g id="a_node25"><a xlink:href="PositionRaw_8h.html" target="_top" xlink:title="iDynTree/Core/PositionRaw.h">
<polygon fill="none" stroke="#000000" points="333,-168.5 333,-187.5 489,-187.5 489,-168.5 333,-168.5"/>
<text text-anchor="middle" x="411" y="-175.5" font-family="FreeSans.ttf" font-size="10.00" fill="#000000">iDynTree/Core/PositionRaw.h</text>
</a>
</g>
</g>
<!-- Node23&#45;&gt;Node24 -->
<g id="edge29" class="edge">
<title>Node23&#45;&gt;Node24</title>
<path fill="none" stroke="#191970" d="M411,-280.4509C411,-262.184 411,-221.9553 411,-197.6976"/>
<polygon fill="#191970" stroke="#191970" points="414.5001,-197.5249 411,-187.5249 407.5001,-197.5249 414.5001,-197.5249"/>
</g>
<!-- Node23&#45;&gt;Node28 -->
<g id="edge38" class="edge">
<title>Node23&#45;&gt;Node28</title>
<path fill="none" stroke="#191970" d="M438.3331,-280.3733C464.5434,-271.1419 504.2984,-257.1402 533.2668,-246.9375"/>
<polygon fill="#191970" stroke="#191970" points="534.7542,-250.1244 543.0236,-243.5011 532.4288,-243.5219 534.7542,-250.1244"/>
</g>
<!-- Node24&#45;&gt;Node3 -->
<g id="edge37" class="edge">
<title>Node24&#45;&gt;Node3</title>
<path fill="none" stroke="#191970" d="M403.6677,-168.4509C389.2604,-149.688 357.0617,-107.7548 338.6356,-83.758"/>
<polygon fill="#191970" stroke="#191970" points="341.1801,-81.3248 332.3138,-75.5249 335.628,-85.588 341.1801,-81.3248"/>
</g>
<!-- Node25 -->
<g id="node26" class="node">
<title>Node25</title>
<g id="a_node26"><a xlink:href="VectorFixSize_8h.html" target="_top" xlink:title="iDynTree/Core/VectorFixSize.h">
<polygon fill="none" stroke="#000000" points="650.5,-112.5 650.5,-131.5 811.5,-131.5 811.5,-112.5 650.5,-112.5"/>
<text text-anchor="middle" x="731" y="-119.5" font-family="FreeSans.ttf" font-size="10.00" fill="#000000">iDynTree/Core/VectorFixSize.h</text>
</a>
</g>
</g>
<!-- Node24&#45;&gt;Node25 -->
<g id="edge30" class="edge">
<title>Node24&#45;&gt;Node25</title>
<path fill="none" stroke="#191970" d="M465.6464,-168.4369C521.3323,-158.6918 607.6675,-143.5832 666.6316,-133.2645"/>
<polygon fill="#191970" stroke="#191970" points="667.3321,-136.6952 676.579,-131.5237 666.1254,-129.7999 667.3321,-136.6952"/>
</g>
<!-- Node25&#45;&gt;Node3 -->
<g id="edge33" class="edge">
<title>Node25&#45;&gt;Node3</title>
<path fill="none" stroke="#191970" d="M650.3352,-112.863C549.0046,-101.263 384.9366,-82.0314 357,-76 356.9004,-75.9785 356.8007,-75.9568 356.7009,-75.935"/>
<polygon fill="#191970" stroke="#191970" points="357.7979,-72.603 347.2423,-73.5143 356.0623,-79.3844 357.7979,-72.603"/>
</g>
<!-- Node25&#45;&gt;Node5 -->
<g id="edge31" class="edge">
<title>Node25&#45;&gt;Node5</title>
<path fill="none" stroke="#191970" d="M678.7444,-112.4369C625.6047,-102.712 543.2778,-87.6456 486.9021,-77.3285"/>
<polygon fill="#191970" stroke="#191970" points="487.5068,-73.8811 477.0401,-75.5237 486.2466,-80.7667 487.5068,-73.8811"/>
</g>
<!-- Node25&#45;&gt;Node12 -->
<g id="edge32" class="edge">
<title>Node25&#45;&gt;Node12</title>
<path fill="none" stroke="#191970" d="M713.5813,-112.2455C697.9515,-103.4928 674.7981,-90.527 656.9815,-80.5496"/>
<polygon fill="#191970" stroke="#191970" points="658.6543,-77.475 648.2191,-75.6427 655.234,-83.5825 658.6543,-77.475"/>
</g>
<!-- Node25&#45;&gt;Node13 -->
<g id="edge35" class="edge">
<title>Node25&#45;&gt;Node13</title>
<path fill="none" stroke="#191970" d="M728.9599,-112.0297C726.6539,-97.6715 724.8677,-71.2289 739,-56 792.9525,2.1387 837.3444,-36.159 919.7222,-19.9605"/>
<polygon fill="#191970" stroke="#191970" points="920.6728,-23.3352 929.6888,-17.7708 919.1706,-16.4983 920.6728,-23.3352"/>
</g>
<!-- Node26 -->
<g id="node27" class="node">
<title>Node26</title>
<polygon fill="none" stroke="#bfbfbf" points="748,-56.5 748,-75.5 804,-75.5 804,-56.5 748,-56.5"/>
<text text-anchor="middle" x="776" y="-63.5" font-family="FreeSans.ttf" font-size="10.00" fill="#000000">sstream</text>
</g>
<!-- Node25&#45;&gt;Node26 -->
<g id="edge34" class="edge">
<title>Node25&#45;&gt;Node26</title>
<path fill="none" stroke="#191970" d="M738.8384,-112.2455C745.162,-104.3761 754.2224,-93.101 761.8136,-83.6542"/>
<polygon fill="#191970" stroke="#191970" points="764.7158,-85.6302 768.2514,-75.6427 759.2592,-81.2454 764.7158,-85.6302"/>
</g>
<!-- Node27 -->
<g id="node28" class="node">
<title>Node27</title>
<polygon fill="none" stroke="#bfbfbf" points="822,-56.5 822,-75.5 872,-75.5 872,-56.5 822,-56.5"/>
<text text-anchor="middle" x="847" y="-63.5" font-family="FreeSans.ttf" font-size="10.00" fill="#000000">cstring</text>
</g>
<!-- Node25&#45;&gt;Node27 -->
<g id="edge36" class="edge">
<title>Node25&#45;&gt;Node27</title>
<path fill="none" stroke="#191970" d="M750.9411,-112.3733C769.4786,-103.4241 797.3028,-89.9917 818.2413,-79.8835"/>
<polygon fill="#191970" stroke="#191970" points="819.8352,-83.0006 827.3191,-75.5011 816.7919,-76.6967 819.8352,-83.0006"/>
</g>
<!-- Node28&#45;&gt;Node3 -->
<g id="edge39" class="edge">
<title>Node28&#45;&gt;Node3</title>
<path fill="none" stroke="#191970" d="M561.5102,-224.3813C548.8199,-210.4612 523.6407,-184.5589 498,-168 463.8793,-145.9647 449.2185,-152.2345 414,-132 388.3423,-117.2586 361.3843,-96.4025 343.953,-82.103"/>
<polygon fill="#191970" stroke="#191970" points="346.1359,-79.3662 336.2085,-75.6654 341.6612,-84.7493 346.1359,-79.3662"/>
</g>
<!-- Node28&#45;&gt;Node25 -->
<g id="edge51" class="edge">
<title>Node28&#45;&gt;Node25</title>
<path fill="none" stroke="#191970" d="M614.1266,-224.4863C650.4997,-215.8061 698.2602,-202.2005 712,-188 723.8926,-175.7086 728.4232,-156.471 730.108,-141.9299"/>
<polygon fill="#191970" stroke="#191970" points="733.6001,-142.1679 730.9166,-131.9186 726.6228,-141.6044 733.6001,-142.1679"/>
</g>
<!-- Node29 -->
<g id="node30" class="node">
<title>Node29</title>
<g id="a_node30"><a xlink:href="GeomVector3_8h.html" target="_top" xlink:title="iDynTree/Core/GeomVector3.h">
<polygon fill="none" stroke="#000000" points="759.5,-168.5 759.5,-187.5 922.5,-187.5 922.5,-168.5 759.5,-168.5"/>
<text text-anchor="middle" x="841" y="-175.5" font-family="FreeSans.ttf" font-size="10.00" fill="#000000">iDynTree/Core/GeomVector3.h</text>
</a>
</g>
</g>
<!-- Node28&#45;&gt;Node29 -->
<g id="edge40" class="edge">
<title>Node28&#45;&gt;Node29</title>
<path fill="none" stroke="#191970" d="M616.2786,-224.4369C662.9505,-214.7925 735.0449,-199.8948 784.9331,-189.5858"/>
<polygon fill="#191970" stroke="#191970" points="785.8274,-192.975 794.9122,-187.5237 784.4108,-186.1198 785.8274,-192.975"/>
</g>
<!-- Node30 -->
<g id="node31" class="node">
<title>Node30</title>
<g id="a_node31"><a xlink:href="RotationRaw_8h.html" target="_top" xlink:title="iDynTree/Core/RotationRaw.h">
<polygon fill="none" stroke="#000000" points="545,-168.5 545,-187.5 703,-187.5 703,-168.5 545,-168.5"/>
<text text-anchor="middle" x="624" y="-175.5" font-family="FreeSans.ttf" font-size="10.00" fill="#000000">iDynTree/Core/RotationRaw.h</text>
</a>
</g>
</g>
<!-- Node28&#45;&gt;Node30 -->
<g id="edge42" class="edge">
<title>Node28&#45;&gt;Node30</title>
<path fill="none" stroke="#191970" d="M579.4061,-224.2455C587.1493,-216.2155 598.312,-204.6394 607.5318,-195.0781"/>
<polygon fill="#191970" stroke="#191970" points="610.2798,-197.2706 614.7017,-187.6427 605.2409,-192.4117 610.2798,-197.2706"/>
</g>
<!-- Node29&#45;&gt;Node25 -->
<g id="edge41" class="edge">
<title>Node29&#45;&gt;Node25</title>
<path fill="none" stroke="#191970" d="M821.8395,-168.2455C804.4889,-159.4125 778.7099,-146.2887 759.0417,-136.2758"/>
<polygon fill="#191970" stroke="#191970" points="760.4405,-133.0605 749.941,-131.6427 757.2647,-139.2986 760.4405,-133.0605"/>
</g>
<!-- Node30&#45;&gt;Node3 -->
<g id="edge50" class="edge">
<title>Node30&#45;&gt;Node3</title>
<path fill="none" stroke="#191970" d="M580.3526,-168.4451C546.2153,-160.3857 497.8545,-147.6683 457,-132 446.4865,-127.9679 388.1694,-98.3521 352.658,-80.1897"/>
<polygon fill="#191970" stroke="#191970" points="354.231,-77.063 343.7347,-75.6214 351.0411,-83.2939 354.231,-77.063"/>
</g>
<!-- Node30&#45;&gt;Node31 -->
<g id="edge43" class="edge">
<title>Node30&#45;&gt;Node31</title>
<path fill="none" stroke="#191970" d="M672.8402,-168.4369C722.301,-158.7522 798.816,-143.7703 851.488,-133.4569"/>
<polygon fill="#191970" stroke="#191970" points="852.2202,-136.8801 861.3613,-131.5237 850.875,-130.0105 852.2202,-136.8801"/>
</g>
<!-- Node31&#45;&gt;Node3 -->
<g id="edge47" class="edge">
<title>Node31&#45;&gt;Node3</title>
<path fill="none" stroke="#191970" d="M829.4827,-112.8273C826.6206,-112.5413 823.7862,-112.2645 821,-112 615.084,-92.4494 560.1135,-115.096 357,-76 356.9,-75.9807 356.7998,-75.9613 356.6996,-75.9416"/>
<polygon fill="#191970" stroke="#191970" points="357.7583,-72.5969 347.2155,-73.6457 356.1112,-79.4004 357.7583,-72.5969"/>
</g>
<!-- Node31&#45;&gt;Node5 -->
<g id="edge44" class="edge">
<title>Node31&#45;&gt;Node5</title>
<path fill="none" stroke="#191970" d="M829.3677,-112.6899C735.8673,-101.894 583.2819,-84.2758 494.7047,-74.0484"/>
<polygon fill="#191970" stroke="#191970" points="495.0913,-70.5698 484.7558,-72.8996 494.2883,-77.5236 495.0913,-70.5698"/>
</g>
<!-- Node31&#45;&gt;Node13 -->
<g id="edge45" class="edge">
<title>Node31&#45;&gt;Node13</title>
<path fill="none" stroke="#191970" d="M925.618,-112.4791C937.2472,-104.3972 952.2332,-91.6339 959,-76 965.2647,-61.5261 963.9343,-43.5603 961.3603,-30.0291"/>
<polygon fill="#191970" stroke="#191970" points="964.6815,-28.851 959.0451,-19.8799 957.8569,-30.4079 964.6815,-28.851"/>
</g>
<!-- Node31&#45;&gt;Node26 -->
<g id="edge49" class="edge">
<title>Node31&#45;&gt;Node26</title>
<path fill="none" stroke="#191970" d="M886.9646,-112.3733C865.2612,-103.3032 832.5382,-89.6279 808.245,-79.4755"/>
<polygon fill="#191970" stroke="#191970" points="809.3111,-76.1278 798.7348,-75.5011 806.6119,-82.5865 809.3111,-76.1278"/>
</g>
<!-- Node31&#45;&gt;Node27 -->
<g id="edge46" class="edge">
<title>Node31&#45;&gt;Node27</title>
<path fill="none" stroke="#191970" d="M899.0262,-112.2455C889.8118,-104.0549 876.4468,-92.1749 865.5703,-82.5069"/>
<polygon fill="#191970" stroke="#191970" points="867.6474,-79.6704 857.848,-75.6427 862.9968,-84.9023 867.6474,-79.6704"/>
</g>
<!-- Node32 -->
<g id="node33" class="node">
<title>Node32</title>
<polygon fill="none" stroke="#bfbfbf" points="890,-56.5 890,-75.5 950,-75.5 950,-56.5 890,-56.5"/>
<text text-anchor="middle" x="920" y="-63.5" font-family="FreeSans.ttf" font-size="10.00" fill="#000000">iostream</text>
</g>
<!-- Node31&#45;&gt;Node32 -->
<g id="edge48" class="edge">
<title>Node31&#45;&gt;Node32</title>
<path fill="none" stroke="#191970" d="M911.7419,-112.2455C913.0467,-104.9382 914.876,-94.6944 916.4813,-85.7046"/>
<polygon fill="#191970" stroke="#191970" points="919.9656,-86.1022 918.2781,-75.6427 913.0746,-84.8717 919.9656,-86.1022"/>
</g>
</g>
</svg>
