<?xml version="1.0" encoding="UTF-8" standalone="no"?>
<!DOCTYPE svg PUBLIC "-//W3C//DTD SVG 1.1//EN"
 "http://www.w3.org/Graphics/SVG/1.1/DTD/svg11.dtd">
<!-- Generated by graphviz version 2.40.1 (20161225.0304)
 -->
<!-- Title: Link.cpp Pages: 1 -->
<svg width="1116pt" height="677pt"
 viewBox="0.00 0.00 1116.00 677.00" xmlns="http://www.w3.org/2000/svg" xmlns:xlink="http://www.w3.org/1999/xlink">
<g id="graph0" class="graph" transform="scale(1 1) rotate(0) translate(4 673)">
<title>Link.cpp</title>
<!-- Node0 -->
<g id="node1" class="node">
<title>Node0</title>
<polygon fill="#bfbfbf" stroke="#000000" points="794.5,-649.5 794.5,-668.5 851.5,-668.5 851.5,-649.5 794.5,-649.5"/>
<text text-anchor="middle" x="823" y="-656.5" font-family="FreeSans.ttf" font-size="10.00" fill="#000000">Link.cpp</text>
</g>
<!-- Node1 -->
<g id="node2" class="node">
<title>Node1</title>
<g id="a_node2"><a xlink:href="Link_8h.html" target="_top" xlink:title="iDynTree/Model/Link.h">
<polygon fill="none" stroke="#000000" points="761,-593.5 761,-612.5 885,-612.5 885,-593.5 761,-593.5"/>
<text text-anchor="middle" x="823" y="-600.5" font-family="FreeSans.ttf" font-size="10.00" fill="#000000">iDynTree/Model/Link.h</text>
</a>
</g>
</g>
<!-- Node0&#45;&gt;Node1 -->
<g id="edge1" class="edge">
<title>Node0&#45;&gt;Node1</title>
<path fill="none" stroke="#191970" d="M823,-649.2455C823,-641.9382 823,-631.6944 823,-622.7046"/>
<polygon fill="#191970" stroke="#191970" points="826.5001,-622.6426 823,-612.6427 819.5001,-622.6427 826.5001,-622.6426"/>
</g>
<!-- Node2 -->
<g id="node3" class="node">
<title>Node2</title>
<g id="a_node3"><a xlink:href="SpatialInertia_8h.html" target="_top" xlink:title="iDynTree/Core/SpatialInertia.h">
<polygon fill="none" stroke="#000000" points="571,-537.5 571,-556.5 733,-556.5 733,-537.5 571,-537.5"/>
<text text-anchor="middle" x="652" y="-544.5" font-family="FreeSans.ttf" font-size="10.00" fill="#000000">iDynTree/Core/SpatialInertia.h</text>
</a>
</g>
</g>
<!-- Node1&#45;&gt;Node2 -->
<g id="edge2" class="edge">
<title>Node1&#45;&gt;Node2</title>
<path fill="none" stroke="#191970" d="M793.6041,-593.3733C765.1693,-584.0613 721.9123,-569.8953 690.6919,-559.671"/>
<polygon fill="#191970" stroke="#191970" points="691.605,-556.2872 681.0124,-556.5011 689.4264,-562.9396 691.605,-556.2872"/>
</g>
<!-- Node35 -->
<g id="node36" class="node">
<title>Node35</title>
<g id="a_node36"><a xlink:href="Indices_8h.html" target="_top" xlink:title="iDynTree/Model/Indices.h">
<polygon fill="none" stroke="#000000" points="925,-537.5 925,-556.5 1063,-556.5 1063,-537.5 925,-537.5"/>
<text text-anchor="middle" x="994" y="-544.5" font-family="FreeSans.ttf" font-size="10.00" fill="#000000">iDynTree/Model/Indices.h</text>
</a>
</g>
</g>
<!-- Node1&#45;&gt;Node35 -->
<g id="edge62" class="edge">
<title>Node1&#45;&gt;Node35</title>
<path fill="none" stroke="#191970" d="M852.3959,-593.3733C880.8307,-584.0613 924.0877,-569.8953 955.3081,-559.671"/>
<polygon fill="#191970" stroke="#191970" points="956.5736,-562.9396 964.9876,-556.5011 954.395,-556.2872 956.5736,-562.9396"/>
</g>
<!-- Node3 -->
<g id="node4" class="node">
<title>Node3</title>
<g id="a_node4"><a xlink:href="SpatialInertiaRaw_8h.html" target="_top" xlink:title="iDynTree/Core/SpatialInertia\lRaw.h">
<polygon fill="none" stroke="#000000" points="81.5,-470.5 81.5,-500.5 234.5,-500.5 234.5,-470.5 81.5,-470.5"/>
<text text-anchor="start" x="89.5" y="-488.5" font-family="FreeSans.ttf" font-size="10.00" fill="#000000">iDynTree/Core/SpatialInertia</text>
<text text-anchor="middle" x="158" y="-477.5" font-family="FreeSans.ttf" font-size="10.00" fill="#000000">Raw.h</text>
</a>
</g>
</g>
<!-- Node2&#45;&gt;Node3 -->
<g id="edge3" class="edge">
<title>Node2&#45;&gt;Node3</title>
<path fill="none" stroke="#191970" d="M570.9011,-539.4494C490.6774,-531.6168 364.1751,-518.2921 244.8944,-501.0724"/>
<polygon fill="#191970" stroke="#191970" points="245.2527,-497.5878 234.8529,-499.6109 244.2445,-504.5148 245.2527,-497.5878"/>
</g>
<!-- Node14 -->
<g id="node15" class="node">
<title>Node14</title>
<g id="a_node15"><a xlink:href="VectorFixSize_8h.html" target="_top" xlink:title="iDynTree/Core/VectorFixSize.h">
<polygon fill="none" stroke="#000000" points="350.5,-112.5 350.5,-131.5 511.5,-131.5 511.5,-112.5 350.5,-112.5"/>
<text text-anchor="middle" x="431" y="-119.5" font-family="FreeSans.ttf" font-size="10.00" fill="#000000">iDynTree/Core/VectorFixSize.h</text>
</a>
</g>
</g>
<!-- Node2&#45;&gt;Node14 -->
<g id="edge14" class="edge">
<title>Node2&#45;&gt;Node14</title>
<path fill="none" stroke="#191970" d="M733.0402,-541.7492C797.4208,-535.9017 880.5666,-524.0563 905,-501 932.4404,-475.1063 925,-456.2287 925,-418.5 925,-418.5 925,-418.5 925,-290 925,-234.5601 940.3346,-204.9464 899,-168 871.5159,-143.4337 649.872,-130.6348 521.7089,-125.2269"/>
<polygon fill="#191970" stroke="#191970" points="521.6444,-121.7213 511.5079,-124.8038 521.3542,-128.7153 521.6444,-121.7213"/>
</g>
<!-- Node23 -->
<g id="node24" class="node">
<title>Node23</title>
<g id="a_node24"><a xlink:href="Twist_8h.html" target="_top" xlink:title="iDynTree/Core/Twist.h">
<polygon fill="none" stroke="#000000" points="253,-476 253,-495 375,-495 375,-476 253,-476"/>
<text text-anchor="middle" x="314" y="-483" font-family="FreeSans.ttf" font-size="10.00" fill="#000000">iDynTree/Core/Twist.h</text>
</a>
</g>
</g>
<!-- Node2&#45;&gt;Node23 -->
<g id="edge30" class="edge">
<title>Node2&#45;&gt;Node23</title>
<path fill="none" stroke="#191970" d="M591.7108,-537.4991C537.2947,-528.7225 455.1059,-514.9665 384,-501 377.9084,-499.8035 371.5334,-498.4849 365.2167,-497.1372"/>
<polygon fill="#191970" stroke="#191970" points="365.9017,-493.7044 355.3875,-495.0087 364.4202,-500.5459 365.9017,-493.7044"/>
</g>
<!-- Node31 -->
<g id="node32" class="node">
<title>Node31</title>
<g id="a_node32"><a xlink:href="SpatialMomentum_8h.html" target="_top" xlink:title="iDynTree/Core/SpatialMomentum.h">
<polygon fill="none" stroke="#000000" points="559,-476 559,-495 745,-495 745,-476 559,-476"/>
<text text-anchor="middle" x="652" y="-483" font-family="FreeSans.ttf" font-size="10.00" fill="#000000">iDynTree/Core/SpatialMomentum.h</text>
</a>
</g>
</g>
<!-- Node2&#45;&gt;Node31 -->
<g id="edge53" class="edge">
<title>Node2&#45;&gt;Node31</title>
<path fill="none" stroke="#191970" d="M652,-537.3906C652,-528.8657 652,-516.1392 652,-505.4235"/>
<polygon fill="#191970" stroke="#191970" points="655.5001,-505.2448 652,-495.2449 648.5001,-505.2449 655.5001,-505.2448"/>
</g>
<!-- Node33 -->
<g id="node34" class="node">
<title>Node33</title>
<g id="a_node34"><a xlink:href="SpatialAcc_8h.html" target="_top" xlink:title="iDynTree/Core/SpatialAcc.h">
<polygon fill="none" stroke="#000000" points="393,-476 393,-495 541,-495 541,-476 393,-476"/>
<text text-anchor="middle" x="467" y="-483" font-family="FreeSans.ttf" font-size="10.00" fill="#000000">iDynTree/Core/SpatialAcc.h</text>
</a>
</g>
</g>
<!-- Node2&#45;&gt;Node33 -->
<g id="edge58" class="edge">
<title>Node2&#45;&gt;Node33</title>
<path fill="none" stroke="#191970" d="M623.0938,-537.3906C591.461,-526.8749 540.597,-509.966 505.5771,-498.3243"/>
<polygon fill="#191970" stroke="#191970" points="506.2968,-494.8753 495.7033,-495.0419 504.0885,-501.5178 506.2968,-494.8753"/>
</g>
<!-- Node34 -->
<g id="node35" class="node">
<title>Node34</title>
<g id="a_node35"><a xlink:href="Wrench_8h.html" target="_top" xlink:title="iDynTree/Core/Wrench.h">
<polygon fill="none" stroke="#000000" points="763.5,-476 763.5,-495 896.5,-495 896.5,-476 763.5,-476"/>
<text text-anchor="middle" x="830" y="-483" font-family="FreeSans.ttf" font-size="10.00" fill="#000000">iDynTree/Core/Wrench.h</text>
</a>
</g>
</g>
<!-- Node2&#45;&gt;Node34 -->
<g id="edge60" class="edge">
<title>Node2&#45;&gt;Node34</title>
<path fill="none" stroke="#191970" d="M679.8125,-537.3906C710.2483,-526.8749 759.1877,-509.966 792.8826,-498.3243"/>
<polygon fill="#191970" stroke="#191970" points="794.074,-501.6157 802.3828,-495.0419 791.788,-494.9995 794.074,-501.6157"/>
</g>
<!-- Node4 -->
<g id="node5" class="node">
<title>Node4</title>
<g id="a_node5"><a xlink:href="RotationalInertiaRaw_8h.html" target="_top" xlink:title="iDynTree/Core/Rotational\lInertiaRaw.h">
<polygon fill="none" stroke="#000000" points="89.5,-336.5 89.5,-366.5 226.5,-366.5 226.5,-336.5 89.5,-336.5"/>
<text text-anchor="start" x="97.5" y="-354.5" font-family="FreeSans.ttf" font-size="10.00" fill="#000000">iDynTree/Core/Rotational</text>
<text text-anchor="middle" x="158" y="-343.5" font-family="FreeSans.ttf" font-size="10.00" fill="#000000">InertiaRaw.h</text>
</a>
</g>
</g>
<!-- Node3&#45;&gt;Node4 -->
<g id="edge4" class="edge">
<title>Node3&#45;&gt;Node4</title>
<path fill="none" stroke="#191970" d="M158,-470.389C158,-447.6691 158,-404.438 158,-376.8405"/>
<polygon fill="#191970" stroke="#191970" points="161.5001,-376.7614 158,-366.7614 154.5001,-376.7614 161.5001,-376.7614"/>
</g>
<!-- Node5 -->
<g id="node6" class="node">
<title>Node5</title>
<g id="a_node6"><a xlink:href="MatrixFixSize_8h.html" target="_top" xlink:title="iDynTree/Core/MatrixFixSize.h">
<polygon fill="none" stroke="#000000" points="94.5,-112.5 94.5,-131.5 255.5,-131.5 255.5,-112.5 94.5,-112.5"/>
<text text-anchor="middle" x="175" y="-119.5" font-family="FreeSans.ttf" font-size="10.00" fill="#000000">iDynTree/Core/MatrixFixSize.h</text>
</a>
</g>
</g>
<!-- Node4&#45;&gt;Node5 -->
<g id="edge5" class="edge">
<title>Node4&#45;&gt;Node5</title>
<path fill="none" stroke="#191970" d="M159.1154,-336.4419C162.0845,-296.3599 170.1812,-187.0534 173.5251,-141.9113"/>
<polygon fill="#191970" stroke="#191970" points="177.0184,-142.1294 174.2668,-131.8981 170.0376,-141.6122 177.0184,-142.1294"/>
</g>
<!-- Node6 -->
<g id="node7" class="node">
<title>Node6</title>
<g id="a_node7"><a xlink:href="Utils_8h.html" target="_top" xlink:title="iDynTree/Core/Utils.h">
<polygon fill="none" stroke="#000000" points="79.5,-56.5 79.5,-75.5 198.5,-75.5 198.5,-56.5 79.5,-56.5"/>
<text text-anchor="middle" x="139" y="-63.5" font-family="FreeSans.ttf" font-size="10.00" fill="#000000">iDynTree/Core/Utils.h</text>
</a>
</g>
</g>
<!-- Node5&#45;&gt;Node6 -->
<g id="edge6" class="edge">
<title>Node5&#45;&gt;Node6</title>
<path fill="none" stroke="#191970" d="M168.7293,-112.2455C163.7736,-104.5367 156.717,-93.5598 150.7224,-84.2348"/>
<polygon fill="#191970" stroke="#191970" points="153.5506,-82.1618 145.1989,-75.6427 147.6624,-85.9471 153.5506,-82.1618"/>
</g>
<!-- Node9 -->
<g id="node10" class="node">
<title>Node9</title>
<polygon fill="none" stroke="#bfbfbf" points="246,-.5 246,-19.5 298,-19.5 298,-.5 246,-.5"/>
<text text-anchor="middle" x="272" y="-7.5" font-family="FreeSans.ttf" font-size="10.00" fill="#000000">cassert</text>
</g>
<!-- Node5&#45;&gt;Node9 -->
<g id="edge9" class="edge">
<title>Node5&#45;&gt;Node9</title>
<path fill="none" stroke="#191970" d="M183.2702,-112.4509C199.6634,-93.5227 236.4789,-51.014 257.166,-27.1279"/>
<polygon fill="#191970" stroke="#191970" points="259.8497,-29.3754 263.7508,-19.5249 254.5583,-24.7927 259.8497,-29.3754"/>
</g>
<!-- Node10 -->
<g id="node11" class="node">
<title>Node10</title>
<polygon fill="none" stroke="#bfbfbf" points="329,-56.5 329,-75.5 379,-75.5 379,-56.5 329,-56.5"/>
<text text-anchor="middle" x="354" y="-63.5" font-family="FreeSans.ttf" font-size="10.00" fill="#000000">cstring</text>
</g>
<!-- Node5&#45;&gt;Node10 -->
<g id="edge10" class="edge">
<title>Node5&#45;&gt;Node10</title>
<path fill="none" stroke="#191970" d="M205.7712,-112.3733C237.2956,-102.5109 286.2243,-87.2036 319.1555,-76.9011"/>
<polygon fill="#191970" stroke="#191970" points="320.3261,-80.2022 328.8249,-73.876 318.236,-73.5215 320.3261,-80.2022"/>
</g>
<!-- Node11 -->
<g id="node12" class="node">
<title>Node11</title>
<polygon fill="none" stroke="#bfbfbf" points="575,-56.5 575,-75.5 619,-75.5 619,-56.5 575,-56.5"/>
<text text-anchor="middle" x="597" y="-63.5" font-family="FreeSans.ttf" font-size="10.00" fill="#000000">string</text>
</g>
<!-- Node5&#45;&gt;Node11 -->
<g id="edge11" class="edge">
<title>Node5&#45;&gt;Node11</title>
<path fill="none" stroke="#191970" d="M255.7342,-114.2594C352.2246,-104.6954 507.8238,-88.1954 565,-76 565.0996,-75.9788 565.1994,-75.9573 565.2992,-75.9357"/>
<polygon fill="#191970" stroke="#191970" points="565.9324,-79.3862 574.7608,-73.5288 564.2066,-72.6023 565.9324,-79.3862"/>
</g>
<!-- Node12 -->
<g id="node13" class="node">
<title>Node12</title>
<polygon fill="none" stroke="#bfbfbf" points="0,-56.5 0,-75.5 60,-75.5 60,-56.5 0,-56.5"/>
<text text-anchor="middle" x="30" y="-63.5" font-family="FreeSans.ttf" font-size="10.00" fill="#000000">iostream</text>
</g>
<!-- Node5&#45;&gt;Node12 -->
<g id="edge12" class="edge">
<title>Node5&#45;&gt;Node12</title>
<path fill="none" stroke="#191970" d="M150.0736,-112.3733C126.3798,-103.2226 90.5489,-89.3844 64.1932,-79.2057"/>
<polygon fill="#191970" stroke="#191970" points="65.1906,-75.8389 54.6011,-75.5011 62.6686,-82.3689 65.1906,-75.8389"/>
</g>
<!-- Node13 -->
<g id="node14" class="node">
<title>Node13</title>
<polygon fill="none" stroke="#bfbfbf" points="255,-56.5 255,-75.5 311,-75.5 311,-56.5 255,-56.5"/>
<text text-anchor="middle" x="283" y="-63.5" font-family="FreeSans.ttf" font-size="10.00" fill="#000000">sstream</text>
</g>
<!-- Node5&#45;&gt;Node13 -->
<g id="edge13" class="edge">
<title>Node5&#45;&gt;Node13</title>
<path fill="none" stroke="#191970" d="M193.8122,-112.2455C210.8473,-103.4125 236.1575,-90.2887 255.4681,-80.2758"/>
<polygon fill="#191970" stroke="#191970" points="257.137,-83.353 264.4034,-75.6427 253.9147,-77.1388 257.137,-83.353"/>
</g>
<!-- Node7 -->
<g id="node8" class="node">
<title>Node7</title>
<polygon fill="none" stroke="#bfbfbf" points="174.5,-.5 174.5,-19.5 227.5,-19.5 227.5,-.5 174.5,-.5"/>
<text text-anchor="middle" x="201" y="-7.5" font-family="FreeSans.ttf" font-size="10.00" fill="#000000">cstddef</text>
</g>
<!-- Node6&#45;&gt;Node7 -->
<g id="edge7" class="edge">
<title>Node6&#45;&gt;Node7</title>
<path fill="none" stroke="#191970" d="M149.7996,-56.2455C158.8678,-48.0549 172.0206,-36.1749 182.7245,-26.5069"/>
<polygon fill="#191970" stroke="#191970" points="185.2491,-28.9429 190.3242,-19.6427 180.5571,-23.7482 185.2491,-28.9429"/>
</g>
<!-- Node8 -->
<g id="node9" class="node">
<title>Node8</title>
<polygon fill="none" stroke="#bfbfbf" points="76,-.5 76,-19.5 156,-19.5 156,-.5 76,-.5"/>
<text text-anchor="middle" x="116" y="-7.5" font-family="FreeSans.ttf" font-size="10.00" fill="#000000">CoreExport.h</text>
</g>
<!-- Node6&#45;&gt;Node8 -->
<g id="edge8" class="edge">
<title>Node6&#45;&gt;Node8</title>
<path fill="none" stroke="#191970" d="M134.9937,-56.2455C131.9265,-48.7776 127.5997,-38.2427 123.8503,-29.1137"/>
<polygon fill="#191970" stroke="#191970" points="126.9972,-27.5631 119.9604,-19.6427 120.5221,-30.2226 126.9972,-27.5631"/>
</g>
<!-- Node14&#45;&gt;Node6 -->
<g id="edge15" class="edge">
<title>Node14&#45;&gt;Node6</title>
<path fill="none" stroke="#191970" d="M381.1352,-112.4369C330.6367,-102.7522 252.5165,-87.7703 198.7395,-77.4569"/>
<polygon fill="#191970" stroke="#191970" points="199.1394,-73.9699 188.6591,-75.5237 197.8209,-80.8446 199.1394,-73.9699"/>
</g>
<!-- Node14&#45;&gt;Node9 -->
<g id="edge28" class="edge">
<title>Node14&#45;&gt;Node9</title>
<path fill="none" stroke="#191970" d="M426.9194,-112.1232C420.5732,-97.8815 407.0563,-71.5825 388,-56 375.2675,-45.5886 336.8322,-31.3456 307.6623,-21.4786"/>
<polygon fill="#191970" stroke="#191970" points="308.7693,-18.1583 298.1756,-18.312 306.553,-24.7982 308.7693,-18.1583"/>
</g>
<!-- Node14&#45;&gt;Node10 -->
<g id="edge29" class="edge">
<title>Node14&#45;&gt;Node10</title>
<path fill="none" stroke="#191970" d="M417.5876,-112.2455C405.9943,-103.814 389.0252,-91.4729 375.5322,-81.6598"/>
<polygon fill="#191970" stroke="#191970" points="377.4047,-78.6938 367.2587,-75.6427 373.2874,-84.355 377.4047,-78.6938"/>
</g>
<!-- Node14&#45;&gt;Node11 -->
<g id="edge26" class="edge">
<title>Node14&#45;&gt;Node11</title>
<path fill="none" stroke="#191970" d="M459.5364,-112.3733C488.9357,-102.4554 534.6574,-87.0313 565.1999,-76.7278"/>
<polygon fill="#191970" stroke="#191970" points="566.5738,-79.9581 574.9304,-73.4452 564.3362,-73.3254 566.5738,-79.9581"/>
</g>
<!-- Node14&#45;&gt;Node13 -->
<g id="edge27" class="edge">
<title>Node14&#45;&gt;Node13</title>
<path fill="none" stroke="#191970" d="M405.5579,-112.3733C381.2674,-103.1822 344.4792,-89.2624 317.5457,-79.0713"/>
<polygon fill="#191970" stroke="#191970" points="318.7016,-75.7666 308.1101,-75.5011 316.2243,-82.3136 318.7016,-75.7666"/>
</g>
<!-- Node15 -->
<g id="node16" class="node">
<title>Node15</title>
<g id="a_node16"><a xlink:href="Span_8h.html" target="_top" xlink:title="iDynTree/Core/Span.h">
<polygon fill="none" stroke="#000000" points="435.5,-56.5 435.5,-75.5 556.5,-75.5 556.5,-56.5 435.5,-56.5"/>
<text text-anchor="middle" x="496" y="-63.5" font-family="FreeSans.ttf" font-size="10.00" fill="#000000">iDynTree/Core/Span.h</text>
</a>
</g>
</g>
<!-- Node14&#45;&gt;Node15 -->
<g id="edge16" class="edge">
<title>Node14&#45;&gt;Node15</title>
<path fill="none" stroke="#191970" d="M442.3221,-112.2455C451.9223,-103.9746 465.8892,-91.9416 477.1695,-82.2232"/>
<polygon fill="#191970" stroke="#191970" points="479.516,-84.8214 484.8076,-75.6427 474.947,-79.5182 479.516,-84.8214"/>
</g>
<!-- Node15&#45;&gt;Node7 -->
<g id="edge20" class="edge">
<title>Node15&#45;&gt;Node7</title>
<path fill="none" stroke="#191970" d="M435.4898,-56.924C385.055,-48.979 311.1531,-36.4592 237.5715,-19.9579"/>
<polygon fill="#191970" stroke="#191970" points="238.191,-16.5096 227.6645,-17.7113 236.6428,-23.3363 238.191,-16.5096"/>
</g>
<!-- Node15&#45;&gt;Node9 -->
<g id="edge17" class="edge">
<title>Node15&#45;&gt;Node9</title>
<path fill="none" stroke="#191970" d="M454.5875,-56.4183C418.3146,-47.9143 363.9547,-34.9025 308.0561,-20.2129"/>
<polygon fill="#191970" stroke="#191970" points="308.9048,-16.817 298.3425,-17.6471 307.1171,-23.5849 308.9048,-16.817"/>
</g>
<!-- Node16 -->
<g id="node17" class="node">
<title>Node16</title>
<polygon fill="none" stroke="#bfbfbf" points="612,-.5 612,-19.5 676,-19.5 676,-.5 612,-.5"/>
<text text-anchor="middle" x="644" y="-7.5" font-family="FreeSans.ttf" font-size="10.00" fill="#000000">algorithm</text>
</g>
<!-- Node15&#45;&gt;Node16 -->
<g id="edge18" class="edge">
<title>Node15&#45;&gt;Node16</title>
<path fill="none" stroke="#191970" d="M521.4421,-56.3733C545.7326,-47.1822 582.5208,-33.2624 609.4543,-23.0713"/>
<polygon fill="#191970" stroke="#191970" points="610.7757,-26.3136 618.8899,-19.5011 608.2984,-19.7666 610.7757,-26.3136"/>
</g>
<!-- Node17 -->
<g id="node18" class="node">
<title>Node17</title>
<polygon fill="none" stroke="#bfbfbf" points="694,-.5 694,-19.5 736,-19.5 736,-.5 694,-.5"/>
<text text-anchor="middle" x="715" y="-7.5" font-family="FreeSans.ttf" font-size="10.00" fill="#000000">array</text>
</g>
<!-- Node15&#45;&gt;Node17 -->
<g id="edge19" class="edge">
<title>Node15&#45;&gt;Node17</title>
<path fill="none" stroke="#191970" d="M539.81,-56.4225C576.1112,-48.2436 629.2321,-35.7176 683.902,-20.1567"/>
<polygon fill="#191970" stroke="#191970" points="685.1195,-23.4485 693.7629,-17.3212 683.185,-16.7211 685.1195,-23.4485"/>
</g>
<!-- Node18 -->
<g id="node19" class="node">
<title>Node18</title>
<polygon fill="none" stroke="#bfbfbf" points="754.5,-.5 754.5,-19.5 807.5,-19.5 807.5,-.5 754.5,-.5"/>
<text text-anchor="middle" x="781" y="-7.5" font-family="FreeSans.ttf" font-size="10.00" fill="#000000">iterator</text>
</g>
<!-- Node15&#45;&gt;Node18 -->
<g id="edge21" class="edge">
<title>Node15&#45;&gt;Node18</title>
<path fill="none" stroke="#191970" d="M555.6708,-56.4982C604.0293,-48.4511 674.1076,-36.0086 744.4113,-19.9764"/>
<polygon fill="#191970" stroke="#191970" points="745.3721,-23.3468 754.3307,-17.6905 743.8001,-16.5256 745.3721,-23.3468"/>
</g>
<!-- Node19 -->
<g id="node20" class="node">
<title>Node19</title>
<polygon fill="none" stroke="#bfbfbf" points="316,-.5 316,-19.5 360,-19.5 360,-.5 316,-.5"/>
<text text-anchor="middle" x="338" y="-7.5" font-family="FreeSans.ttf" font-size="10.00" fill="#000000">limits</text>
</g>
<!-- Node15&#45;&gt;Node19 -->
<g id="edge22" class="edge">
<title>Node15&#45;&gt;Node19</title>
<path fill="none" stroke="#191970" d="M468.8388,-56.3733C441.3726,-46.6384 398.9388,-31.5985 369.8913,-21.3032"/>
<polygon fill="#191970" stroke="#191970" points="370.8163,-17.9178 360.2216,-17.876 368.4778,-24.5157 370.8163,-17.9178"/>
</g>
<!-- Node20 -->
<g id="node21" class="node">
<title>Node20</title>
<polygon fill="none" stroke="#bfbfbf" points="378.5,-.5 378.5,-19.5 443.5,-19.5 443.5,-.5 378.5,-.5"/>
<text text-anchor="middle" x="411" y="-7.5" font-family="FreeSans.ttf" font-size="10.00" fill="#000000">stdexcept</text>
</g>
<!-- Node15&#45;&gt;Node20 -->
<g id="edge23" class="edge">
<title>Node15&#45;&gt;Node20</title>
<path fill="none" stroke="#191970" d="M481.1941,-56.2455C468.2744,-47.7337 449.3069,-35.2375 434.3448,-25.3801"/>
<polygon fill="#191970" stroke="#191970" points="435.9124,-22.2216 425.6362,-19.6427 432.0613,-28.067 435.9124,-22.2216"/>
</g>
<!-- Node21 -->
<g id="node22" class="node">
<title>Node21</title>
<polygon fill="none" stroke="#bfbfbf" points="461.5,-.5 461.5,-19.5 530.5,-19.5 530.5,-.5 461.5,-.5"/>
<text text-anchor="middle" x="496" y="-7.5" font-family="FreeSans.ttf" font-size="10.00" fill="#000000">type_traits</text>
</g>
<!-- Node15&#45;&gt;Node21 -->
<g id="edge24" class="edge">
<title>Node15&#45;&gt;Node21</title>
<path fill="none" stroke="#191970" d="M496,-56.2455C496,-48.9382 496,-38.6944 496,-29.7046"/>
<polygon fill="#191970" stroke="#191970" points="499.5001,-29.6426 496,-19.6427 492.5001,-29.6427 499.5001,-29.6426"/>
</g>
<!-- Node22 -->
<g id="node23" class="node">
<title>Node22</title>
<polygon fill="none" stroke="#bfbfbf" points="548.5,-.5 548.5,-19.5 593.5,-19.5 593.5,-.5 548.5,-.5"/>
<text text-anchor="middle" x="571" y="-7.5" font-family="FreeSans.ttf" font-size="10.00" fill="#000000">utility</text>
</g>
<!-- Node15&#45;&gt;Node22 -->
<g id="edge25" class="edge">
<title>Node15&#45;&gt;Node22</title>
<path fill="none" stroke="#191970" d="M509.064,-56.2455C520.3562,-47.814 536.8845,-35.4729 550.0271,-25.6598"/>
<polygon fill="#191970" stroke="#191970" points="552.1669,-28.4301 558.0857,-19.6427 547.9789,-22.8211 552.1669,-28.4301"/>
</g>
<!-- Node24 -->
<g id="node25" class="node">
<title>Node24</title>
<g id="a_node25"><a xlink:href="SpatialMotionVector_8h.html" target="_top" xlink:title="iDynTree/Core/SpatialMotion\lVector.h">
<polygon fill="none" stroke="#000000" points="381.5,-403.5 381.5,-433.5 536.5,-433.5 536.5,-403.5 381.5,-403.5"/>
<text text-anchor="start" x="389.5" y="-421.5" font-family="FreeSans.ttf" font-size="10.00" fill="#000000">iDynTree/Core/SpatialMotion</text>
<text text-anchor="middle" x="459" y="-410.5" font-family="FreeSans.ttf" font-size="10.00" fill="#000000">Vector.h</text>
</a>
</g>
</g>
<!-- Node23&#45;&gt;Node24 -->
<g id="edge31" class="edge">
<title>Node23&#45;&gt;Node24</title>
<path fill="none" stroke="#191970" d="M334.775,-475.9005C356.21,-465.9961 390.2319,-450.2756 417.2556,-437.7888"/>
<polygon fill="#191970" stroke="#191970" points="418.8806,-440.8936 426.4902,-433.5218 415.9443,-434.5392 418.8806,-440.8936"/>
</g>
<!-- Node24&#45;&gt;Node14 -->
<g id="edge32" class="edge">
<title>Node24&#45;&gt;Node14</title>
<path fill="none" stroke="#191970" d="M412.8458,-403.4044C395.9715,-395.3939 378.6633,-383.6632 369,-367 356.8188,-345.9951 354.2064,-316.7392 381,-224 389.9379,-193.0638 407.8148,-160.0961 419.5919,-140.2736"/>
<polygon fill="#191970" stroke="#191970" points="422.6203,-142.0296 424.8174,-131.6651 416.6364,-138.3973 422.6203,-142.0296"/>
</g>
<!-- Node25 -->
<g id="node26" class="node">
<title>Node25</title>
<g id="a_node26"><a xlink:href="GeomVector3_8h.html" target="_top" xlink:title="iDynTree/Core/GeomVector3.h">
<polygon fill="none" stroke="#000000" points="514.5,-168.5 514.5,-187.5 677.5,-187.5 677.5,-168.5 514.5,-168.5"/>
<text text-anchor="middle" x="596" y="-175.5" font-family="FreeSans.ttf" font-size="10.00" fill="#000000">iDynTree/Core/GeomVector3.h</text>
</a>
</g>
</g>
<!-- Node24&#45;&gt;Node25 -->
<g id="edge33" class="edge">
<title>Node24&#45;&gt;Node25</title>
<path fill="none" stroke="#191970" d="M493.3216,-403.4092C529.6813,-385.105 584.2455,-350.3215 602,-300 614.176,-265.4895 607.2098,-222.0676 601.376,-197.4309"/>
<polygon fill="#191970" stroke="#191970" points="604.7138,-196.3556 598.8482,-187.5326 597.9315,-198.0877 604.7138,-196.3556"/>
</g>
<!-- Node26 -->
<g id="node27" class="node">
<title>Node26</title>
<g id="a_node27"><a xlink:href="SpatialVector_8h.html" target="_top" xlink:title="iDynTree/Core/SpatialVector.h">
<polygon fill="none" stroke="#000000" points="378.5,-342 378.5,-361 539.5,-361 539.5,-342 378.5,-342"/>
<text text-anchor="middle" x="459" y="-349" font-family="FreeSans.ttf" font-size="10.00" fill="#000000">iDynTree/Core/SpatialVector.h</text>
</a>
</g>
</g>
<!-- Node24&#45;&gt;Node26 -->
<g id="edge35" class="edge">
<title>Node24&#45;&gt;Node26</title>
<path fill="none" stroke="#191970" d="M459,-403.2967C459,-393.7699 459,-381.3954 459,-371.1306"/>
<polygon fill="#191970" stroke="#191970" points="462.5001,-371.0549 459,-361.055 455.5001,-371.055 462.5001,-371.0549"/>
</g>
<!-- Node25&#45;&gt;Node14 -->
<g id="edge34" class="edge">
<title>Node25&#45;&gt;Node14</title>
<path fill="none" stroke="#191970" d="M567.6355,-168.3733C540.3173,-159.1016 498.8204,-145.0178 468.7262,-134.804"/>
<polygon fill="#191970" stroke="#191970" points="469.5887,-131.4008 458.9944,-131.5011 467.339,-138.0294 469.5887,-131.4008"/>
</g>
<!-- Node26&#45;&gt;Node6 -->
<g id="edge49" class="edge">
<title>Node26&#45;&gt;Node6</title>
<path fill="none" stroke="#191970" d="M378.0467,-343.8036C263.0011,-330.5885 66,-298.5372 66,-234 66,-234 66,-234 66,-178 66,-147.4754 68.457,-137.6531 85,-112 92.613,-100.1946 104.1621,-89.7772 114.6284,-81.8546"/>
<polygon fill="#191970" stroke="#191970" points="116.9691,-84.4829 123.0553,-75.8106 112.8893,-78.7947 116.9691,-84.4829"/>
</g>
<!-- Node26&#45;&gt;Node12 -->
<g id="edge51" class="edge">
<title>Node26&#45;&gt;Node12</title>
<path fill="none" stroke="#191970" d="M378.2035,-345.1889C288.6457,-337.2549 150.5525,-321.9619 103,-300 62.6893,-281.3827 28,-278.4022 28,-234 28,-234 28,-234 28,-178 28,-145.7064 28.8415,-108.1836 29.4328,-85.8029"/>
<polygon fill="#191970" stroke="#191970" points="32.9374,-85.6797 29.7134,-75.5873 25.9401,-85.4874 32.9374,-85.6797"/>
</g>
<!-- Node26&#45;&gt;Node13 -->
<g id="edge52" class="edge">
<title>Node26&#45;&gt;Node13</title>
<path fill="none" stroke="#191970" d="M429.093,-341.9994C374.7033,-322.9018 260.9752,-274.1498 215,-188 210.815,-180.1579 210.9856,-175.9308 215,-168 227.2044,-143.8893 248.5472,-154.1694 264,-132 273.5765,-118.261 278.364,-99.731 280.7348,-85.8026"/>
<polygon fill="#191970" stroke="#191970" points="284.2145,-86.1927 282.1634,-75.7983 277.2848,-85.2031 284.2145,-86.1927"/>
</g>
<!-- Node26&#45;&gt;Node25 -->
<g id="edge50" class="edge">
<title>Node26&#45;&gt;Node25</title>
<path fill="none" stroke="#191970" d="M466.5609,-341.9248C488.5903,-314.0261 552.9787,-232.4832 581.7843,-196.0031"/>
<polygon fill="#191970" stroke="#191970" points="584.8433,-197.7768 588.2936,-187.7595 579.3495,-193.4388 584.8433,-197.7768"/>
</g>
<!-- Node27 -->
<g id="node28" class="node">
<title>Node27</title>
<g id="a_node28"><a xlink:href="Position_8h.html" target="_top" xlink:title="Position.h">
<polygon fill="none" stroke="#000000" points="528.5,-280.5 528.5,-299.5 593.5,-299.5 593.5,-280.5 528.5,-280.5"/>
<text text-anchor="middle" x="561" y="-287.5" font-family="FreeSans.ttf" font-size="10.00" fill="#000000">Position.h</text>
</a>
</g>
</g>
<!-- Node26&#45;&gt;Node27 -->
<g id="edge36" class="edge">
<title>Node26&#45;&gt;Node27</title>
<path fill="none" stroke="#191970" d="M474.9375,-341.8906C491.4051,-331.9616 517.3258,-316.333 536.4204,-304.8201"/>
<polygon fill="#191970" stroke="#191970" points="538.4178,-307.7027 545.1744,-299.5419 534.8034,-301.7081 538.4178,-307.7027"/>
</g>
<!-- Node29 -->
<g id="node30" class="node">
<title>Node29</title>
<g id="a_node30"><a xlink:href="Rotation_8h.html" target="_top" xlink:title="iDynTree/Core/Rotation.h">
<polygon fill="none" stroke="#000000" points="390.5,-224.5 390.5,-243.5 527.5,-243.5 527.5,-224.5 390.5,-224.5"/>
<text text-anchor="middle" x="459" y="-231.5" font-family="FreeSans.ttf" font-size="10.00" fill="#000000">iDynTree/Core/Rotation.h</text>
</a>
</g>
</g>
<!-- Node26&#45;&gt;Node29 -->
<g id="edge48" class="edge">
<title>Node26&#45;&gt;Node29</title>
<path fill="none" stroke="#191970" d="M459,-341.8845C459,-322.6913 459,-279.286 459,-253.7663"/>
<polygon fill="#191970" stroke="#191970" points="462.5001,-253.7483 459,-243.7484 455.5001,-253.7484 462.5001,-253.7483"/>
</g>
<!-- Node27&#45;&gt;Node11 -->
<g id="edge47" class="edge">
<title>Node27&#45;&gt;Node11</title>
<path fill="none" stroke="#191970" d="M593.6932,-285.1166C671.1055,-272.8174 861.9034,-237.9438 899,-188 969.9485,-92.4808 720.2343,-71.5622 629.0608,-67.1412"/>
<polygon fill="#191970" stroke="#191970" points="629.1533,-63.6419 619.0064,-66.6901 628.8395,-70.6349 629.1533,-63.6419"/>
</g>
<!-- Node28 -->
<g id="node29" class="node">
<title>Node28</title>
<g id="a_node29"><a xlink:href="PositionRaw_8h.html" target="_top" xlink:title="iDynTree/Core/PositionRaw.h">
<polygon fill="none" stroke="#000000" points="734,-168.5 734,-187.5 890,-187.5 890,-168.5 734,-168.5"/>
<text text-anchor="middle" x="812" y="-175.5" font-family="FreeSans.ttf" font-size="10.00" fill="#000000">iDynTree/Core/PositionRaw.h</text>
</a>
</g>
</g>
<!-- Node27&#45;&gt;Node28 -->
<g id="edge37" class="edge">
<title>Node27&#45;&gt;Node28</title>
<path fill="none" stroke="#191970" d="M582.4001,-280.4509C626.9499,-260.5722 729.786,-214.6852 781.3521,-191.6756"/>
<polygon fill="#191970" stroke="#191970" points="782.9482,-194.7961 790.654,-187.5249 780.0957,-188.4036 782.9482,-194.7961"/>
</g>
<!-- Node27&#45;&gt;Node29 -->
<g id="edge40" class="edge">
<title>Node27&#45;&gt;Node29</title>
<path fill="none" stroke="#191970" d="M543.233,-280.2455C527.2905,-271.4928 503.6741,-258.527 485.5011,-248.5496"/>
<polygon fill="#191970" stroke="#191970" points="487.0137,-245.3873 476.5634,-243.6427 483.6448,-251.5233 487.0137,-245.3873"/>
</g>
<!-- Node28&#45;&gt;Node11 -->
<g id="edge39" class="edge">
<title>Node28&#45;&gt;Node11</title>
<path fill="none" stroke="#191970" d="M793.6692,-168.4509C755.8264,-148.7375 668.884,-103.4465 624.3632,-80.2543"/>
<polygon fill="#191970" stroke="#191970" points="625.7702,-77.0409 615.2844,-75.5249 622.5362,-83.249 625.7702,-77.0409"/>
</g>
<!-- Node28&#45;&gt;Node14 -->
<g id="edge38" class="edge">
<title>Node28&#45;&gt;Node14</title>
<path fill="none" stroke="#191970" d="M746.9367,-168.4369C680.0876,-158.6113 576.1413,-143.3331 505.9047,-133.0096"/>
<polygon fill="#191970" stroke="#191970" points="506.1977,-129.5152 495.795,-131.5237 505.1797,-136.4407 506.1977,-129.5152"/>
</g>
<!-- Node29&#45;&gt;Node11 -->
<g id="edge41" class="edge">
<title>Node29&#45;&gt;Node11</title>
<path fill="none" stroke="#191970" d="M465.1895,-224.3314C473.7017,-211.2252 489.7103,-187.2478 505,-168 529.77,-136.8177 561.3716,-102.9144 580.3521,-83.1084"/>
<polygon fill="#191970" stroke="#191970" points="583.0071,-85.3973 587.4278,-75.7687 577.9675,-80.539 583.0071,-85.3973"/>
</g>
<!-- Node29&#45;&gt;Node14 -->
<g id="edge46" class="edge">
<title>Node29&#45;&gt;Node14</title>
<path fill="none" stroke="#191970" d="M456.6127,-224.4509C452.0253,-206.1013 441.8977,-165.5908 435.8423,-141.3693"/>
<polygon fill="#191970" stroke="#191970" points="439.2022,-140.3774 433.3812,-131.5249 432.4112,-142.0752 439.2022,-140.3774"/>
</g>
<!-- Node29&#45;&gt;Node25 -->
<g id="edge42" class="edge">
<title>Node29&#45;&gt;Node25</title>
<path fill="none" stroke="#191970" d="M482.5511,-224.3733C504.8391,-215.2629 538.4937,-201.5062 563.3637,-191.3404"/>
<polygon fill="#191970" stroke="#191970" points="564.8239,-194.5247 572.7562,-187.5011 562.1753,-188.0451 564.8239,-194.5247"/>
</g>
<!-- Node30 -->
<g id="node31" class="node">
<title>Node30</title>
<g id="a_node31"><a xlink:href="RotationRaw_8h.html" target="_top" xlink:title="iDynTree/Core/RotationRaw.h">
<polygon fill="none" stroke="#000000" points="224,-168.5 224,-187.5 382,-187.5 382,-168.5 224,-168.5"/>
<text text-anchor="middle" x="303" y="-175.5" font-family="FreeSans.ttf" font-size="10.00" fill="#000000">iDynTree/Core/RotationRaw.h</text>
</a>
</g>
</g>
<!-- Node29&#45;&gt;Node30 -->
<g id="edge43" class="edge">
<title>Node29&#45;&gt;Node30</title>
<path fill="none" stroke="#191970" d="M432.1826,-224.3733C406.4668,-215.1419 367.462,-201.1402 339.0401,-190.9375"/>
<polygon fill="#191970" stroke="#191970" points="340.0619,-187.5857 329.4674,-187.5011 337.6968,-194.174 340.0619,-187.5857"/>
</g>
<!-- Node30&#45;&gt;Node5 -->
<g id="edge44" class="edge">
<title>Node30&#45;&gt;Node5</title>
<path fill="none" stroke="#191970" d="M280.996,-168.3733C260.3565,-159.3435 229.2842,-145.7494 206.1111,-135.6111"/>
<polygon fill="#191970" stroke="#191970" points="207.2813,-132.3028 196.7169,-131.5011 204.4755,-138.7159 207.2813,-132.3028"/>
</g>
<!-- Node30&#45;&gt;Node11 -->
<g id="edge45" class="edge">
<title>Node30&#45;&gt;Node11</title>
<path fill="none" stroke="#191970" d="M305.7246,-168.0691C310.3421,-153.2581 321.1921,-125.6642 341,-112 424,-54.7435 466.848,-99.0974 565,-76 565.0992,-75.9767 565.1984,-75.9532 565.2979,-75.9296"/>
<polygon fill="#191970" stroke="#191970" points="565.9769,-79.371 574.7334,-73.4067 564.1687,-72.6086 565.9769,-79.371"/>
</g>
<!-- Node32 -->
<g id="node33" class="node">
<title>Node32</title>
<g id="a_node33"><a xlink:href="SpatialForceVector_8h.html" target="_top" xlink:title="iDynTree/Core/SpatialForce\lVector.h">
<polygon fill="none" stroke="#000000" points="586,-403.5 586,-433.5 734,-433.5 734,-403.5 586,-403.5"/>
<text text-anchor="start" x="594" y="-421.5" font-family="FreeSans.ttf" font-size="10.00" fill="#000000">iDynTree/Core/SpatialForce</text>
<text text-anchor="middle" x="660" y="-410.5" font-family="FreeSans.ttf" font-size="10.00" fill="#000000">Vector.h</text>
</a>
</g>
</g>
<!-- Node31&#45;&gt;Node32 -->
<g id="edge54" class="edge">
<title>Node31&#45;&gt;Node32</title>
<path fill="none" stroke="#191970" d="M653.1462,-475.9005C654.1481,-467.5099 655.6483,-454.9451 656.99,-443.7085"/>
<polygon fill="#191970" stroke="#191970" points="660.496,-443.8662 658.2064,-433.5218 653.5453,-443.0362 660.496,-443.8662"/>
</g>
<!-- Node32&#45;&gt;Node14 -->
<g id="edge55" class="edge">
<title>Node32&#45;&gt;Node14</title>
<path fill="none" stroke="#191970" d="M669.3088,-403.3065C682.7501,-379.88 706,-333.1256 706,-290 706,-290 706,-290 706,-234 706,-203.3494 708.8907,-188.3832 686,-168 661.9228,-146.5603 584.87,-134.7084 521.7104,-128.429"/>
<polygon fill="#191970" stroke="#191970" points="521.9919,-124.94 511.7032,-127.4684 521.323,-131.908 521.9919,-124.94"/>
</g>
<!-- Node32&#45;&gt;Node25 -->
<g id="edge56" class="edge">
<title>Node32&#45;&gt;Node25</title>
<path fill="none" stroke="#191970" d="M661.0467,-403.3195C662.772,-369.4869 663.6315,-285.9981 636,-224 631.1532,-213.1251 622.8416,-202.9248 615.0463,-194.9062"/>
<polygon fill="#191970" stroke="#191970" points="617.1904,-192.1105 607.5707,-187.6708 612.3221,-197.1405 617.1904,-192.1105"/>
</g>
<!-- Node32&#45;&gt;Node26 -->
<g id="edge57" class="edge">
<title>Node32&#45;&gt;Node26</title>
<path fill="none" stroke="#191970" d="M614.8917,-403.4639C579.5424,-391.6808 530.897,-375.4657 497.3953,-364.2984"/>
<polygon fill="#191970" stroke="#191970" points="498.1095,-360.8472 487.5159,-361.0053 495.8959,-367.488 498.1095,-360.8472"/>
</g>
<!-- Node33&#45;&gt;Node24 -->
<g id="edge59" class="edge">
<title>Node33&#45;&gt;Node24</title>
<path fill="none" stroke="#191970" d="M465.8538,-475.9005C464.8519,-467.5099 463.3517,-454.9451 462.01,-443.7085"/>
<polygon fill="#191970" stroke="#191970" points="465.4547,-443.0362 460.7936,-433.5218 458.504,-443.8662 465.4547,-443.0362"/>
</g>
<!-- Node34&#45;&gt;Node32 -->
<g id="edge61" class="edge">
<title>Node34&#45;&gt;Node32</title>
<path fill="none" stroke="#191970" d="M805.6431,-475.9005C780.1832,-465.8663 739.5771,-449.8627 707.7009,-437.2997"/>
<polygon fill="#191970" stroke="#191970" points="708.7018,-433.9323 698.1149,-433.5218 706.1351,-440.4447 708.7018,-433.9323"/>
</g>
<!-- Node35&#45;&gt;Node11 -->
<g id="edge63" class="edge">
<title>Node35&#45;&gt;Node11</title>
<path fill="none" stroke="#191970" d="M994,-537.3281C994,-515.9175 994,-462.895 994,-418.5 994,-418.5 994,-418.5 994,-178 994,-102.4066 724.0125,-75.3236 629.335,-68.1503"/>
<polygon fill="#191970" stroke="#191970" points="629.424,-64.6475 619.1951,-67.408 628.9129,-71.6289 629.424,-64.6475"/>
</g>
<!-- Node36 -->
<g id="node37" class="node">
<title>Node36</title>
<polygon fill="none" stroke="#bfbfbf" points="1022,-476 1022,-495 1108,-495 1108,-476 1022,-476"/>
<text text-anchor="middle" x="1065" y="-483" font-family="FreeSans.ttf" font-size="10.00" fill="#000000">ModelExport.h</text>
</g>
<!-- Node35&#45;&gt;Node36 -->
<g id="edge64" class="edge">
<title>Node35&#45;&gt;Node36</title>
<path fill="none" stroke="#191970" d="M1005.0938,-537.3906C1015.9715,-527.9683 1032.7748,-513.4134 1045.82,-502.1137"/>
<polygon fill="#191970" stroke="#191970" points="1048.4827,-504.4377 1053.7498,-495.2449 1043.8996,-499.1466 1048.4827,-504.4377"/>
</g>
</g>
</svg>
