<?xml version="1.0" encoding="UTF-8" standalone="no"?>
<!DOCTYPE svg PUBLIC "-//W3C//DTD SVG 1.1//EN"
 "http://www.w3.org/Graphics/SVG/1.1/DTD/svg11.dtd">
<!-- Generated by graphviz version 2.40.1 (20161225.0304)
 -->
<!-- Title: LinkState.h Pages: 1 -->
<svg width="1247pt" height="554pt"
 viewBox="0.00 0.00 1247.00 554.00" xmlns="http://www.w3.org/2000/svg" xmlns:xlink="http://www.w3.org/1999/xlink">
<g id="graph0" class="graph" transform="scale(1 1) rotate(0) translate(4 550)">
<title>LinkState.h</title>
<!-- Node0 -->
<g id="node1" class="node">
<title>Node0</title>
<polygon fill="#bfbfbf" stroke="#000000" points="487.5,-526.5 487.5,-545.5 558.5,-545.5 558.5,-526.5 487.5,-526.5"/>
<text text-anchor="middle" x="523" y="-533.5" font-family="FreeSans.ttf" font-size="10.00" fill="#000000">LinkState.h</text>
</g>
<!-- Node1 -->
<g id="node2" class="node">
<title>Node1</title>
<g id="a_node2"><a xlink:href="Transform_8h.html" target="_top" xlink:title="iDynTree/Core/Transform.h">
<polygon fill="none" stroke="#000000" points="329,-347.5 329,-366.5 475,-366.5 475,-347.5 329,-347.5"/>
<text text-anchor="middle" x="402" y="-354.5" font-family="FreeSans.ttf" font-size="10.00" fill="#000000">iDynTree/Core/Transform.h</text>
</a>
</g>
</g>
<!-- Node0&#45;&gt;Node1 -->
<g id="edge1" class="edge">
<title>Node0&#45;&gt;Node1</title>
<path fill="none" stroke="#191970" d="M501.7463,-526.4928C486.3537,-518.6534 466.04,-506.1984 453,-490 425.3321,-455.6306 411.4579,-404.5659 405.5896,-376.7717"/>
<polygon fill="#191970" stroke="#191970" points="408.9746,-375.8464 403.6049,-366.7132 402.107,-377.2016 408.9746,-375.8464"/>
</g>
<!-- Node25 -->
<g id="node26" class="node">
<title>Node25</title>
<g id="a_node26"><a xlink:href="Twist_8h.html" target="_top" xlink:title="iDynTree/Core/Twist.h">
<polygon fill="none" stroke="#000000" points="462,-470.5 462,-489.5 584,-489.5 584,-470.5 462,-470.5"/>
<text text-anchor="middle" x="523" y="-477.5" font-family="FreeSans.ttf" font-size="10.00" fill="#000000">iDynTree/Core/Twist.h</text>
</a>
</g>
</g>
<!-- Node0&#45;&gt;Node25 -->
<g id="edge41" class="edge">
<title>Node0&#45;&gt;Node25</title>
<path fill="none" stroke="#191970" d="M523,-526.2455C523,-518.9382 523,-508.6944 523,-499.7046"/>
<polygon fill="#191970" stroke="#191970" points="526.5001,-499.6426 523,-489.6427 519.5001,-499.6427 526.5001,-499.6426"/>
</g>
<!-- Node28 -->
<g id="node29" class="node">
<title>Node28</title>
<g id="a_node29"><a xlink:href="SpatialAcc_8h.html" target="_top" xlink:title="iDynTree/Core/SpatialAcc.h">
<polygon fill="none" stroke="#000000" points="602,-470.5 602,-489.5 750,-489.5 750,-470.5 602,-470.5"/>
<text text-anchor="middle" x="676" y="-477.5" font-family="FreeSans.ttf" font-size="10.00" fill="#000000">iDynTree/Core/SpatialAcc.h</text>
</a>
</g>
</g>
<!-- Node0&#45;&gt;Node28 -->
<g id="edge52" class="edge">
<title>Node0&#45;&gt;Node28</title>
<path fill="none" stroke="#191970" d="M549.3016,-526.3733C574.4128,-517.1822 612.4438,-503.2624 640.2872,-493.0713"/>
<polygon fill="#191970" stroke="#191970" points="641.8538,-496.2251 650.0416,-489.5011 639.4478,-489.6516 641.8538,-496.2251"/>
</g>
<!-- Node29 -->
<g id="node30" class="node">
<title>Node29</title>
<g id="a_node30"><a xlink:href="Wrench_8h.html" target="_top" xlink:title="iDynTree/Core/Wrench.h">
<polygon fill="none" stroke="#000000" points="768.5,-470.5 768.5,-489.5 901.5,-489.5 901.5,-470.5 768.5,-470.5"/>
<text text-anchor="middle" x="835" y="-477.5" font-family="FreeSans.ttf" font-size="10.00" fill="#000000">iDynTree/Core/Wrench.h</text>
</a>
</g>
</g>
<!-- Node0&#45;&gt;Node29 -->
<g id="edge54" class="edge">
<title>Node0&#45;&gt;Node29</title>
<path fill="none" stroke="#191970" d="M558.7904,-529.5761C610.7521,-520.2496 707.8624,-502.8196 771.979,-491.3115"/>
<polygon fill="#191970" stroke="#191970" points="772.7497,-494.7291 781.9741,-489.5175 771.513,-487.8392 772.7497,-494.7291"/>
</g>
<!-- Node31 -->
<g id="node32" class="node">
<title>Node31</title>
<g id="a_node32"><a xlink:href="ArticulatedBodyInertia_8h.html" target="_top" xlink:title="iDynTree/Core/Articulated\lBodyInertia.h">
<polygon fill="none" stroke="#000000" points="34.5,-168.5 34.5,-198.5 175.5,-198.5 175.5,-168.5 34.5,-168.5"/>
<text text-anchor="start" x="42.5" y="-186.5" font-family="FreeSans.ttf" font-size="10.00" fill="#000000">iDynTree/Core/Articulated</text>
<text text-anchor="middle" x="105" y="-175.5" font-family="FreeSans.ttf" font-size="10.00" fill="#000000">BodyInertia.h</text>
</a>
</g>
</g>
<!-- Node0&#45;&gt;Node31 -->
<g id="edge59" class="edge">
<title>Node0&#45;&gt;Node31</title>
<path fill="none" stroke="#191970" d="M487.4643,-531.9954C397.1653,-520.8367 166,-485.7074 166,-418.5 166,-418.5 166,-418.5 166,-301 166,-264.9261 143.0719,-228.92 125.3293,-206.4576"/>
<polygon fill="#191970" stroke="#191970" points="127.887,-204.0568 118.8418,-198.54 122.4725,-208.4933 127.887,-204.0568"/>
</g>
<!-- Node32 -->
<g id="node33" class="node">
<title>Node32</title>
<g id="a_node33"><a xlink:href="Indices_8h.html" target="_top" xlink:title="iDynTree/Model/Indices.h">
<polygon fill="none" stroke="#000000" points="0,-470.5 0,-489.5 138,-489.5 138,-470.5 0,-470.5"/>
<text text-anchor="middle" x="69" y="-477.5" font-family="FreeSans.ttf" font-size="10.00" fill="#000000">iDynTree/Model/Indices.h</text>
</a>
</g>
</g>
<!-- Node0&#45;&gt;Node32 -->
<g id="edge62" class="edge">
<title>Node0&#45;&gt;Node32</title>
<path fill="none" stroke="#191970" d="M487.3754,-531.6058C414.7222,-522.6442 247.9136,-502.0686 148.2614,-489.7767"/>
<polygon fill="#191970" stroke="#191970" points="148.5917,-486.291 138.2384,-488.5404 147.7347,-493.2384 148.5917,-486.291"/>
</g>
<!-- Node34 -->
<g id="node35" class="node">
<title>Node34</title>
<polygon fill="none" stroke="#bfbfbf" points="919.5,-470.5 919.5,-489.5 966.5,-489.5 966.5,-470.5 919.5,-470.5"/>
<text text-anchor="middle" x="943" y="-477.5" font-family="FreeSans.ttf" font-size="10.00" fill="#000000">vector</text>
</g>
<!-- Node0&#45;&gt;Node34 -->
<g id="edge65" class="edge">
<title>Node0&#45;&gt;Node34</title>
<path fill="none" stroke="#191970" d="M558.6677,-533.9824C625.7769,-529.7125 775.4291,-517.9419 909.3418,-490.046"/>
<polygon fill="#191970" stroke="#191970" points="910.3075,-493.4192 919.3642,-487.9213 908.8557,-486.5714 910.3075,-493.4192"/>
</g>
<!-- Node2 -->
<g id="node3" class="node">
<title>Node2</title>
<g id="a_node3"><a xlink:href="Position_8h.html" target="_top" xlink:title="iDynTree/Core/Position.h">
<polygon fill="none" stroke="#000000" points="334,-291.5 334,-310.5 470,-310.5 470,-291.5 334,-291.5"/>
<text text-anchor="middle" x="402" y="-298.5" font-family="FreeSans.ttf" font-size="10.00" fill="#000000">iDynTree/Core/Position.h</text>
</a>
</g>
</g>
<!-- Node1&#45;&gt;Node2 -->
<g id="edge2" class="edge">
<title>Node1&#45;&gt;Node2</title>
<path fill="none" stroke="#191970" d="M402,-347.2455C402,-339.9382 402,-329.6944 402,-320.7046"/>
<polygon fill="#191970" stroke="#191970" points="405.5001,-320.6426 402,-310.6427 398.5001,-320.6427 405.5001,-320.6426"/>
</g>
<!-- Node17 -->
<g id="node18" class="node">
<title>Node17</title>
<polygon fill="none" stroke="#bfbfbf" points="364,-56.5 364,-75.5 408,-75.5 408,-56.5 364,-56.5"/>
<text text-anchor="middle" x="386" y="-63.5" font-family="FreeSans.ttf" font-size="10.00" fill="#000000">string</text>
</g>
<!-- Node1&#45;&gt;Node17 -->
<g id="edge40" class="edge">
<title>Node1&#45;&gt;Node17</title>
<path fill="none" stroke="#191970" d="M335.7936,-347.4647C278.2336,-334.9919 204,-306.9059 204,-245 204,-245 204,-245 204,-183.5 204,-112.9811 301.6324,-82.7295 353.881,-71.5891"/>
<polygon fill="#191970" stroke="#191970" points="354.574,-75.0199 363.6832,-69.6096 353.1883,-68.1584 354.574,-75.0199"/>
</g>
<!-- Node20 -->
<g id="node21" class="node">
<title>Node20</title>
<g id="a_node21"><a xlink:href="Rotation_8h.html" target="_top" xlink:title="iDynTree/Core/Rotation.h">
<polygon fill="none" stroke="#000000" points="514.5,-235.5 514.5,-254.5 651.5,-254.5 651.5,-235.5 514.5,-235.5"/>
<text text-anchor="middle" x="583" y="-242.5" font-family="FreeSans.ttf" font-size="10.00" fill="#000000">iDynTree/Core/Rotation.h</text>
</a>
</g>
</g>
<!-- Node1&#45;&gt;Node20 -->
<g id="edge38" class="edge">
<title>Node1&#45;&gt;Node20</title>
<path fill="none" stroke="#191970" d="M418.3003,-347.4345C433.9387,-338.2168 458.1832,-323.8201 479,-311 506.9158,-293.8079 538.6954,-273.5366 559.6987,-260.0402"/>
<polygon fill="#191970" stroke="#191970" points="561.7527,-262.8805 568.2676,-254.5255 557.9644,-256.9941 561.7527,-262.8805"/>
</g>
<!-- Node23 -->
<g id="node24" class="node">
<title>Node23</title>
<g id="a_node24"><a xlink:href="MatrixFixSize_8h.html" target="_top" xlink:title="iDynTree/Core/MatrixFixSize.h">
<polygon fill="none" stroke="#000000" points="518.5,-112.5 518.5,-131.5 679.5,-131.5 679.5,-112.5 518.5,-112.5"/>
<text text-anchor="middle" x="599" y="-119.5" font-family="FreeSans.ttf" font-size="10.00" fill="#000000">iDynTree/Core/MatrixFixSize.h</text>
</a>
</g>
</g>
<!-- Node1&#45;&gt;Node23 -->
<g id="edge39" class="edge">
<title>Node1&#45;&gt;Node23</title>
<path fill="none" stroke="#191970" d="M375.3313,-347.4318C358.4315,-340.0228 337.4801,-328.1097 325,-311 286.9325,-258.8109 256.9263,-217.0167 299,-168 312.645,-152.1033 425.115,-138.205 508.3577,-129.9571"/>
<polygon fill="#191970" stroke="#191970" points="508.7439,-133.4361 518.3558,-128.9795 508.0626,-126.4693 508.7439,-133.4361"/>
</g>
<!-- Node3 -->
<g id="node4" class="node">
<title>Node3</title>
<g id="a_node4"><a xlink:href="PositionRaw_8h.html" target="_top" xlink:title="iDynTree/Core/PositionRaw.h">
<polygon fill="none" stroke="#000000" points="308,-174 308,-193 464,-193 464,-174 308,-174"/>
<text text-anchor="middle" x="386" y="-181" font-family="FreeSans.ttf" font-size="10.00" fill="#000000">iDynTree/Core/PositionRaw.h</text>
</a>
</g>
</g>
<!-- Node2&#45;&gt;Node3 -->
<g id="edge3" class="edge">
<title>Node2&#45;&gt;Node3</title>
<path fill="none" stroke="#191970" d="M400.6907,-291.3845C398.0771,-272.1913 392.1666,-228.786 388.6916,-203.2663"/>
<polygon fill="#191970" stroke="#191970" points="392.1448,-202.6847 387.3274,-193.2484 385.2088,-203.6292 392.1448,-202.6847"/>
</g>
<!-- Node2&#45;&gt;Node17 -->
<g id="edge37" class="edge">
<title>Node2&#45;&gt;Node17</title>
<path fill="none" stroke="#191970" d="M386.3705,-291.4753C362.2365,-275.7335 316.8249,-241.738 299,-199 279.7777,-152.9114 331.2178,-105.515 363.0153,-81.6954"/>
<polygon fill="#191970" stroke="#191970" points="365.3478,-84.3274 371.3879,-75.6229 361.2379,-78.6608 365.3478,-84.3274"/>
</g>
<!-- Node2&#45;&gt;Node20 -->
<g id="edge23" class="edge">
<title>Node2&#45;&gt;Node20</title>
<path fill="none" stroke="#191970" d="M433.115,-291.3733C463.3429,-282.021 509.396,-267.7725 542.4739,-257.5385"/>
<polygon fill="#191970" stroke="#191970" points="543.7723,-260.8005 552.291,-254.5011 541.7033,-254.1133 543.7723,-260.8005"/>
</g>
<!-- Node4 -->
<g id="node5" class="node">
<title>Node4</title>
<g id="a_node5"><a xlink:href="VectorFixSize_8h.html" target="_top" xlink:title="iDynTree/Core/VectorFixSize.h">
<polygon fill="none" stroke="#000000" points="697.5,-112.5 697.5,-131.5 858.5,-131.5 858.5,-112.5 697.5,-112.5"/>
<text text-anchor="middle" x="778" y="-119.5" font-family="FreeSans.ttf" font-size="10.00" fill="#000000">iDynTree/Core/VectorFixSize.h</text>
</a>
</g>
</g>
<!-- Node3&#45;&gt;Node4 -->
<g id="edge4" class="edge">
<title>Node3&#45;&gt;Node4</title>
<path fill="none" stroke="#191970" d="M446.8199,-173.9581C517.1658,-162.9217 632.8077,-144.7789 707.1527,-133.1151"/>
<polygon fill="#191970" stroke="#191970" points="708.0233,-136.5214 717.36,-131.5137 706.9383,-129.606 708.0233,-136.5214"/>
</g>
<!-- Node3&#45;&gt;Node17 -->
<g id="edge22" class="edge">
<title>Node3&#45;&gt;Node17</title>
<path fill="none" stroke="#191970" d="M386,-173.8845C386,-154.6913 386,-111.286 386,-85.7663"/>
<polygon fill="#191970" stroke="#191970" points="389.5001,-85.7483 386,-75.7484 382.5001,-85.7484 389.5001,-85.7483"/>
</g>
<!-- Node5 -->
<g id="node6" class="node">
<title>Node5</title>
<g id="a_node6"><a xlink:href="Utils_8h.html" target="_top" xlink:title="iDynTree/Core/Utils.h">
<polygon fill="none" stroke="#000000" points="1018.5,-56.5 1018.5,-75.5 1137.5,-75.5 1137.5,-56.5 1018.5,-56.5"/>
<text text-anchor="middle" x="1078" y="-63.5" font-family="FreeSans.ttf" font-size="10.00" fill="#000000">iDynTree/Core/Utils.h</text>
</a>
</g>
</g>
<!-- Node4&#45;&gt;Node5 -->
<g id="edge5" class="edge">
<title>Node4&#45;&gt;Node5</title>
<path fill="none" stroke="#191970" d="M829.231,-112.4369C881.2208,-102.7321 961.7073,-87.708 1016.9681,-77.3926"/>
<polygon fill="#191970" stroke="#191970" points="1017.7924,-80.7993 1026.9803,-75.5237 1016.5079,-73.9182 1017.7924,-80.7993"/>
</g>
<!-- Node8 -->
<g id="node9" class="node">
<title>Node8</title>
<g id="a_node9"><a xlink:href="Span_8h.html" target="_top" xlink:title="iDynTree/Core/Span.h">
<polygon fill="none" stroke="#000000" points="819.5,-56.5 819.5,-75.5 940.5,-75.5 940.5,-56.5 819.5,-56.5"/>
<text text-anchor="middle" x="880" y="-63.5" font-family="FreeSans.ttf" font-size="10.00" fill="#000000">iDynTree/Core/Span.h</text>
</a>
</g>
</g>
<!-- Node4&#45;&gt;Node8 -->
<g id="edge8" class="edge">
<title>Node4&#45;&gt;Node8</title>
<path fill="none" stroke="#191970" d="M795.767,-112.2455C811.7095,-103.4928 835.3259,-90.527 853.4989,-80.5496"/>
<polygon fill="#191970" stroke="#191970" points="855.3552,-83.5233 862.4366,-75.6427 851.9863,-77.3873 855.3552,-83.5233"/>
</g>
<!-- Node9 -->
<g id="node10" class="node">
<title>Node9</title>
<polygon fill="none" stroke="#bfbfbf" points="507,-.5 507,-19.5 559,-19.5 559,-.5 507,-.5"/>
<text text-anchor="middle" x="533" y="-7.5" font-family="FreeSans.ttf" font-size="10.00" fill="#000000">cassert</text>
</g>
<!-- Node4&#45;&gt;Node9 -->
<g id="edge20" class="edge">
<title>Node4&#45;&gt;Node9</title>
<path fill="none" stroke="#191970" d="M780.4318,-112.0358C783.2847,-97.6854 786.0099,-71.2522 772,-56 741.0071,-22.259 613.6782,-30.1426 569,-20 568.9012,-19.9776 568.8022,-19.955 568.7031,-19.9324"/>
<polygon fill="#191970" stroke="#191970" points="569.8194,-16.6028 559.2725,-17.6098 568.1454,-23.3997 569.8194,-16.6028"/>
</g>
<!-- Node4&#45;&gt;Node17 -->
<g id="edge18" class="edge">
<title>Node4&#45;&gt;Node17</title>
<path fill="none" stroke="#191970" d="M711.0582,-112.4369C625.8924,-100.2703 482.2043,-79.7435 418.3075,-70.6154"/>
<polygon fill="#191970" stroke="#191970" points="418.4404,-67.0989 408.0459,-69.1494 417.4504,-74.0285 418.4404,-67.0989"/>
</g>
<!-- Node18 -->
<g id="node19" class="node">
<title>Node18</title>
<polygon fill="none" stroke="#bfbfbf" points="707,-56.5 707,-75.5 763,-75.5 763,-56.5 707,-56.5"/>
<text text-anchor="middle" x="735" y="-63.5" font-family="FreeSans.ttf" font-size="10.00" fill="#000000">sstream</text>
</g>
<!-- Node4&#45;&gt;Node18 -->
<g id="edge19" class="edge">
<title>Node4&#45;&gt;Node18</title>
<path fill="none" stroke="#191970" d="M770.51,-112.2455C764.4674,-104.3761 755.8097,-93.101 748.5559,-83.6542"/>
<polygon fill="#191970" stroke="#191970" points="751.2705,-81.4426 742.4042,-75.6427 745.7185,-85.7058 751.2705,-81.4426"/>
</g>
<!-- Node19 -->
<g id="node20" class="node">
<title>Node19</title>
<polygon fill="none" stroke="#bfbfbf" points="561,-56.5 561,-75.5 611,-75.5 611,-56.5 561,-56.5"/>
<text text-anchor="middle" x="586" y="-63.5" font-family="FreeSans.ttf" font-size="10.00" fill="#000000">cstring</text>
</g>
<!-- Node4&#45;&gt;Node19 -->
<g id="edge21" class="edge">
<title>Node4&#45;&gt;Node19</title>
<path fill="none" stroke="#191970" d="M745.0073,-112.4231C715.036,-103.7169 669.3475,-90.4294 620.9586,-76.2757"/>
<polygon fill="#191970" stroke="#191970" points="621.8292,-72.8837 611.2487,-73.4345 619.8634,-79.602 621.8292,-72.8837"/>
</g>
<!-- Node6 -->
<g id="node7" class="node">
<title>Node6</title>
<polygon fill="none" stroke="#bfbfbf" points="1087.5,-.5 1087.5,-19.5 1140.5,-19.5 1140.5,-.5 1087.5,-.5"/>
<text text-anchor="middle" x="1114" y="-7.5" font-family="FreeSans.ttf" font-size="10.00" fill="#000000">cstddef</text>
</g>
<!-- Node5&#45;&gt;Node6 -->
<g id="edge6" class="edge">
<title>Node5&#45;&gt;Node6</title>
<path fill="none" stroke="#191970" d="M1084.2707,-56.2455C1089.2264,-48.5367 1096.283,-37.5598 1102.2776,-28.2348"/>
<polygon fill="#191970" stroke="#191970" points="1105.3376,-29.9471 1107.8011,-19.6427 1099.4494,-26.1618 1105.3376,-29.9471"/>
</g>
<!-- Node7 -->
<g id="node8" class="node">
<title>Node7</title>
<polygon fill="none" stroke="#bfbfbf" points="1159,-.5 1159,-19.5 1239,-19.5 1239,-.5 1159,-.5"/>
<text text-anchor="middle" x="1199" y="-7.5" font-family="FreeSans.ttf" font-size="10.00" fill="#000000">CoreExport.h</text>
</g>
<!-- Node5&#45;&gt;Node7 -->
<g id="edge7" class="edge">
<title>Node5&#45;&gt;Node7</title>
<path fill="none" stroke="#191970" d="M1098.8006,-56.3733C1118.2243,-47.3838 1147.4224,-33.8706 1169.2964,-23.7471"/>
<polygon fill="#191970" stroke="#191970" points="1170.8656,-26.8776 1178.4708,-19.5011 1167.9255,-20.5249 1170.8656,-26.8776"/>
</g>
<!-- Node8&#45;&gt;Node6 -->
<g id="edge12" class="edge">
<title>Node8&#45;&gt;Node6</title>
<path fill="none" stroke="#191970" d="M923.3889,-56.4792C961.4704,-47.9976 1018.5777,-34.9763 1077.4515,-20.0619"/>
<polygon fill="#191970" stroke="#191970" points="1078.4709,-23.4141 1087.2975,-17.5539 1076.743,-16.6307 1078.4709,-23.4141"/>
</g>
<!-- Node8&#45;&gt;Node9 -->
<g id="edge9" class="edge">
<title>Node8&#45;&gt;Node9</title>
<path fill="none" stroke="#191970" d="M819.3435,-57.9402C742.7981,-47.6103 615.5195,-29.8616 569,-20 568.9008,-19.979 568.8016,-19.9578 568.7022,-19.9366"/>
<polygon fill="#191970" stroke="#191970" points="569.7907,-16.5977 559.2532,-17.698 568.1769,-23.4091 569.7907,-16.5977"/>
</g>
<!-- Node10 -->
<g id="node11" class="node">
<title>Node10</title>
<polygon fill="none" stroke="#bfbfbf" points="811,-.5 811,-19.5 875,-19.5 875,-.5 811,-.5"/>
<text text-anchor="middle" x="843" y="-7.5" font-family="FreeSans.ttf" font-size="10.00" fill="#000000">algorithm</text>
</g>
<!-- Node8&#45;&gt;Node10 -->
<g id="edge10" class="edge">
<title>Node8&#45;&gt;Node10</title>
<path fill="none" stroke="#191970" d="M873.5551,-56.2455C868.4618,-48.5367 861.2092,-37.5598 855.048,-28.2348"/>
<polygon fill="#191970" stroke="#191970" points="857.8038,-26.0566 849.3711,-19.6427 851.9635,-29.9155 857.8038,-26.0566"/>
</g>
<!-- Node11 -->
<g id="node12" class="node">
<title>Node11</title>
<polygon fill="none" stroke="#bfbfbf" points="893,-.5 893,-19.5 935,-19.5 935,-.5 893,-.5"/>
<text text-anchor="middle" x="914" y="-7.5" font-family="FreeSans.ttf" font-size="10.00" fill="#000000">array</text>
</g>
<!-- Node8&#45;&gt;Node11 -->
<g id="edge11" class="edge">
<title>Node8&#45;&gt;Node11</title>
<path fill="none" stroke="#191970" d="M885.9223,-56.2455C890.6027,-48.5367 897.2673,-37.5598 902.9289,-28.2348"/>
<polygon fill="#191970" stroke="#191970" points="905.9475,-30.007 908.1455,-19.6427 899.9639,-26.3741 905.9475,-30.007"/>
</g>
<!-- Node12 -->
<g id="node13" class="node">
<title>Node12</title>
<polygon fill="none" stroke="#bfbfbf" points="953.5,-.5 953.5,-19.5 1006.5,-19.5 1006.5,-.5 953.5,-.5"/>
<text text-anchor="middle" x="980" y="-7.5" font-family="FreeSans.ttf" font-size="10.00" fill="#000000">iterator</text>
</g>
<!-- Node8&#45;&gt;Node12 -->
<g id="edge13" class="edge">
<title>Node8&#45;&gt;Node12</title>
<path fill="none" stroke="#191970" d="M897.4187,-56.2455C913.0485,-47.4928 936.2019,-34.527 954.0185,-24.5496"/>
<polygon fill="#191970" stroke="#191970" points="955.766,-27.5825 962.7809,-19.6427 952.3457,-21.475 955.766,-27.5825"/>
</g>
<!-- Node13 -->
<g id="node14" class="node">
<title>Node13</title>
<polygon fill="none" stroke="#bfbfbf" points="1025,-.5 1025,-19.5 1069,-19.5 1069,-.5 1025,-.5"/>
<text text-anchor="middle" x="1047" y="-7.5" font-family="FreeSans.ttf" font-size="10.00" fill="#000000">limits</text>
</g>
<!-- Node8&#45;&gt;Node13 -->
<g id="edge14" class="edge">
<title>Node8&#45;&gt;Node13</title>
<path fill="none" stroke="#191970" d="M908.7083,-56.3733C938.2847,-46.4554 984.2818,-31.0313 1015.0083,-20.7278"/>
<polygon fill="#191970" stroke="#191970" points="1016.429,-23.943 1024.7974,-17.4452 1014.2035,-17.3062 1016.429,-23.943"/>
</g>
<!-- Node14 -->
<g id="node15" class="node">
<title>Node14</title>
<polygon fill="none" stroke="#bfbfbf" points="577.5,-.5 577.5,-19.5 642.5,-19.5 642.5,-.5 577.5,-.5"/>
<text text-anchor="middle" x="610" y="-7.5" font-family="FreeSans.ttf" font-size="10.00" fill="#000000">stdexcept</text>
</g>
<!-- Node8&#45;&gt;Node14 -->
<g id="edge15" class="edge">
<title>Node8&#45;&gt;Node14</title>
<path fill="none" stroke="#191970" d="M830.0811,-56.4454C785.9873,-47.889 719.7038,-34.7439 652.4595,-20.0435"/>
<polygon fill="#191970" stroke="#191970" points="653.0518,-16.5903 642.5338,-17.8637 651.5502,-23.4273 653.0518,-16.5903"/>
</g>
<!-- Node15 -->
<g id="node16" class="node">
<title>Node15</title>
<polygon fill="none" stroke="#bfbfbf" points="660.5,-.5 660.5,-19.5 729.5,-19.5 729.5,-.5 660.5,-.5"/>
<text text-anchor="middle" x="695" y="-7.5" font-family="FreeSans.ttf" font-size="10.00" fill="#000000">type_traits</text>
</g>
<!-- Node8&#45;&gt;Node15 -->
<g id="edge16" class="edge">
<title>Node8&#45;&gt;Node15</title>
<path fill="none" stroke="#191970" d="M848.1974,-56.3733C817.1683,-46.9807 769.8246,-32.6496 735.9853,-22.4064"/>
<polygon fill="#191970" stroke="#191970" points="736.9728,-19.0485 726.3876,-19.5011 734.9447,-25.7483 736.9728,-19.0485"/>
</g>
<!-- Node16 -->
<g id="node17" class="node">
<title>Node16</title>
<polygon fill="none" stroke="#bfbfbf" points="747.5,-.5 747.5,-19.5 792.5,-19.5 792.5,-.5 747.5,-.5"/>
<text text-anchor="middle" x="770" y="-7.5" font-family="FreeSans.ttf" font-size="10.00" fill="#000000">utility</text>
</g>
<!-- Node8&#45;&gt;Node16 -->
<g id="edge17" class="edge">
<title>Node8&#45;&gt;Node16</title>
<path fill="none" stroke="#191970" d="M860.8395,-56.2455C843.4889,-47.4125 817.7099,-34.2887 798.0417,-24.2758"/>
<polygon fill="#191970" stroke="#191970" points="799.4405,-21.0605 788.941,-19.6427 796.2647,-27.2986 799.4405,-21.0605"/>
</g>
<!-- Node20&#45;&gt;Node4 -->
<g id="edge36" class="edge">
<title>Node20&#45;&gt;Node4</title>
<path fill="none" stroke="#191970" d="M610.1282,-235.4591C631.7607,-227.2816 662.4009,-214.4001 687,-199 715.2939,-181.2869 744.0592,-155.3269 761.4697,-138.5441"/>
<polygon fill="#191970" stroke="#191970" points="763.927,-141.0364 768.6276,-131.5414 759.0318,-136.0327 763.927,-141.0364"/>
</g>
<!-- Node20&#45;&gt;Node17 -->
<g id="edge24" class="edge">
<title>Node20&#45;&gt;Node17</title>
<path fill="none" stroke="#191970" d="M565.2992,-235.3494C550.1917,-226.7345 528.2395,-213.2998 511,-199 466.5447,-162.1252 422.0253,-110.3359 400.0697,-83.5643"/>
<polygon fill="#191970" stroke="#191970" points="402.7852,-81.356 393.7628,-75.8019 397.3523,-85.7702 402.7852,-81.356"/>
</g>
<!-- Node21 -->
<g id="node22" class="node">
<title>Node21</title>
<g id="a_node22"><a xlink:href="GeomVector3_8h.html" target="_top" xlink:title="iDynTree/Core/GeomVector3.h">
<polygon fill="none" stroke="#000000" points="772.5,-174 772.5,-193 935.5,-193 935.5,-174 772.5,-174"/>
<text text-anchor="middle" x="854" y="-181" font-family="FreeSans.ttf" font-size="10.00" fill="#000000">iDynTree/Core/GeomVector3.h</text>
</a>
</g>
</g>
<!-- Node20&#45;&gt;Node21 -->
<g id="edge25" class="edge">
<title>Node20&#45;&gt;Node21</title>
<path fill="none" stroke="#191970" d="M625.0464,-235.4581C672.7136,-224.6406 750.4651,-206.9959 801.9293,-195.3168"/>
<polygon fill="#191970" stroke="#191970" points="802.8775,-198.6907 811.855,-193.0643 801.3283,-191.8642 802.8775,-198.6907"/>
</g>
<!-- Node22 -->
<g id="node23" class="node">
<title>Node22</title>
<g id="a_node23"><a xlink:href="RotationRaw_8h.html" target="_top" xlink:title="iDynTree/Core/RotationRaw.h">
<polygon fill="none" stroke="#000000" points="520,-174 520,-193 678,-193 678,-174 520,-174"/>
<text text-anchor="middle" x="599" y="-181" font-family="FreeSans.ttf" font-size="10.00" fill="#000000">iDynTree/Core/RotationRaw.h</text>
</a>
</g>
</g>
<!-- Node20&#45;&gt;Node22 -->
<g id="edge27" class="edge">
<title>Node20&#45;&gt;Node22</title>
<path fill="none" stroke="#191970" d="M585.5,-235.3906C587.7412,-226.776 591.0986,-213.8708 593.9045,-203.0858"/>
<polygon fill="#191970" stroke="#191970" points="597.3341,-203.804 596.4648,-193.2449 590.5596,-202.0414 597.3341,-203.804"/>
</g>
<!-- Node21&#45;&gt;Node4 -->
<g id="edge26" class="edge">
<title>Node21&#45;&gt;Node4</title>
<path fill="none" stroke="#191970" d="M842.125,-173.8906C830.3703,-164.3786 812.1514,-149.6357 798.1328,-138.2917"/>
<polygon fill="#191970" stroke="#191970" points="800.0178,-135.3146 790.0424,-131.7449 795.6144,-140.7562 800.0178,-135.3146"/>
</g>
<!-- Node22&#45;&gt;Node17 -->
<g id="edge35" class="edge">
<title>Node22&#45;&gt;Node17</title>
<path fill="none" stroke="#191970" d="M581.5693,-173.8845C544.2657,-153.3062 456.5077,-104.8951 412.3513,-80.5365"/>
<polygon fill="#191970" stroke="#191970" points="413.8195,-77.3492 403.3728,-75.5836 410.4383,-83.4785 413.8195,-77.3492"/>
</g>
<!-- Node22&#45;&gt;Node23 -->
<g id="edge28" class="edge">
<title>Node22&#45;&gt;Node23</title>
<path fill="none" stroke="#191970" d="M599,-173.8906C599,-165.3657 599,-152.6392 599,-141.9235"/>
<polygon fill="#191970" stroke="#191970" points="602.5001,-141.7448 599,-131.7449 595.5001,-141.7449 602.5001,-141.7448"/>
</g>
<!-- Node23&#45;&gt;Node5 -->
<g id="edge29" class="edge">
<title>Node23&#45;&gt;Node5</title>
<path fill="none" stroke="#191970" d="M679.7142,-112.5637C771.7866,-101.7995 920.8419,-84.3734 1008.1297,-74.1686"/>
<polygon fill="#191970" stroke="#191970" points="1008.6741,-77.6288 1018.2,-72.9912 1007.8612,-70.6762 1008.6741,-77.6288"/>
</g>
<!-- Node23&#45;&gt;Node9 -->
<g id="edge30" class="edge">
<title>Node23&#45;&gt;Node9</title>
<path fill="none" stroke="#191970" d="M586.0144,-112.4347C575.4064,-103.9704 560.7791,-90.7049 552,-76 543.5002,-61.7629 538.6283,-43.5181 535.9509,-29.8207"/>
<polygon fill="#191970" stroke="#191970" points="539.3325,-28.8335 534.1867,-19.5722 532.434,-30.0211 539.3325,-28.8335"/>
</g>
<!-- Node23&#45;&gt;Node17 -->
<g id="edge32" class="edge">
<title>Node23&#45;&gt;Node17</title>
<path fill="none" stroke="#191970" d="M562.384,-112.3733C521.6569,-101.6657 456.518,-84.5399 417.8328,-74.3692"/>
<polygon fill="#191970" stroke="#191970" points="418.6932,-70.9765 408.1319,-71.8187 416.9132,-77.7465 418.6932,-70.9765"/>
</g>
<!-- Node23&#45;&gt;Node18 -->
<g id="edge34" class="edge">
<title>Node23&#45;&gt;Node18</title>
<path fill="none" stroke="#191970" d="M622.3792,-112.3733C644.5045,-103.2629 677.9134,-89.5062 702.6019,-79.3404"/>
<polygon fill="#191970" stroke="#191970" points="704.0117,-82.5451 711.9258,-75.5011 701.3464,-76.0723 704.0117,-82.5451"/>
</g>
<!-- Node23&#45;&gt;Node19 -->
<g id="edge31" class="edge">
<title>Node23&#45;&gt;Node19</title>
<path fill="none" stroke="#191970" d="M596.7356,-112.2455C595.0206,-104.8579 592.6088,-94.4689 590.5056,-85.4087"/>
<polygon fill="#191970" stroke="#191970" points="593.9092,-84.5922 588.2385,-75.6427 587.0905,-86.1751 593.9092,-84.5922"/>
</g>
<!-- Node24 -->
<g id="node25" class="node">
<title>Node24</title>
<polygon fill="none" stroke="#bfbfbf" points="629,-56.5 629,-75.5 689,-75.5 689,-56.5 629,-56.5"/>
<text text-anchor="middle" x="659" y="-63.5" font-family="FreeSans.ttf" font-size="10.00" fill="#000000">iostream</text>
</g>
<!-- Node23&#45;&gt;Node24 -->
<g id="edge33" class="edge">
<title>Node23&#45;&gt;Node24</title>
<path fill="none" stroke="#191970" d="M609.4512,-112.2455C618.2269,-104.0549 630.9554,-92.1749 641.314,-82.5069"/>
<polygon fill="#191970" stroke="#191970" points="643.7461,-85.0246 648.6686,-75.6427 638.9699,-79.9072 643.7461,-85.0246"/>
</g>
<!-- Node26 -->
<g id="node27" class="node">
<title>Node26</title>
<g id="a_node27"><a xlink:href="SpatialMotionVector_8h.html" target="_top" xlink:title="iDynTree/Core/SpatialMotion\lVector.h">
<polygon fill="none" stroke="#000000" points="602.5,-403.5 602.5,-433.5 757.5,-433.5 757.5,-403.5 602.5,-403.5"/>
<text text-anchor="start" x="610.5" y="-421.5" font-family="FreeSans.ttf" font-size="10.00" fill="#000000">iDynTree/Core/SpatialMotion</text>
<text text-anchor="middle" x="680" y="-410.5" font-family="FreeSans.ttf" font-size="10.00" fill="#000000">Vector.h</text>
</a>
</g>
</g>
<!-- Node25&#45;&gt;Node26 -->
<g id="edge42" class="edge">
<title>Node25&#45;&gt;Node26</title>
<path fill="none" stroke="#191970" d="M547.5313,-470.3906C570.0581,-461.5664 604.0773,-448.2404 632,-437.3026"/>
<polygon fill="#191970" stroke="#191970" points="633.559,-440.4509 641.5935,-433.5446 631.0058,-433.9331 633.559,-440.4509"/>
</g>
<!-- Node26&#45;&gt;Node4 -->
<g id="edge43" class="edge">
<title>Node26&#45;&gt;Node4</title>
<path fill="none" stroke="#191970" d="M684.9946,-403.3889C701.3766,-353.8248 753.4664,-196.2267 771.6572,-141.1901"/>
<polygon fill="#191970" stroke="#191970" points="775.0076,-142.206 774.8228,-131.6127 768.3613,-140.0091 775.0076,-142.206"/>
</g>
<!-- Node26&#45;&gt;Node21 -->
<g id="edge44" class="edge">
<title>Node26&#45;&gt;Node21</title>
<path fill="none" stroke="#191970" d="M691.1492,-403.4422C721.8848,-361.9315 807.7339,-245.9858 840.7913,-201.3393"/>
<polygon fill="#191970" stroke="#191970" points="843.6989,-203.2942 846.8367,-193.1746 838.0731,-199.1287 843.6989,-203.2942"/>
</g>
<!-- Node27 -->
<g id="node28" class="node">
<title>Node27</title>
<g id="a_node28"><a xlink:href="SpatialVector_8h.html" target="_top" xlink:title="iDynTree/Core/SpatialVector.h">
<polygon fill="none" stroke="#000000" points="746.5,-347.5 746.5,-366.5 907.5,-366.5 907.5,-347.5 746.5,-347.5"/>
<text text-anchor="middle" x="827" y="-354.5" font-family="FreeSans.ttf" font-size="10.00" fill="#000000">iDynTree/Core/SpatialVector.h</text>
</a>
</g>
</g>
<!-- Node26&#45;&gt;Node27 -->
<g id="edge45" class="edge">
<title>Node26&#45;&gt;Node27</title>
<path fill="none" stroke="#191970" d="M715.9602,-403.4554C740.0573,-393.374 771.513,-380.2139 794.7903,-370.4755"/>
<polygon fill="#191970" stroke="#191970" points="796.3459,-373.6187 804.2202,-366.5303 793.6442,-367.1611 796.3459,-373.6187"/>
</g>
<!-- Node27&#45;&gt;Node2 -->
<g id="edge46" class="edge">
<title>Node27&#45;&gt;Node2</title>
<path fill="none" stroke="#191970" d="M754.4228,-347.4369C678.1867,-337.3917 558.6982,-321.6473 480.3581,-311.3248"/>
<polygon fill="#191970" stroke="#191970" points="480.4342,-307.8047 470.0626,-309.9682 479.5197,-314.7447 480.4342,-307.8047"/>
</g>
<!-- Node27&#45;&gt;Node5 -->
<g id="edge48" class="edge">
<title>Node27&#45;&gt;Node5</title>
<path fill="none" stroke="#191970" d="M888.9037,-347.4526C938.8332,-338.9022 1004.3457,-325.5044 1027,-311 1058.2199,-291.0115 1078,-282.0705 1078,-245 1078,-245 1078,-245 1078,-183.5 1078,-149.1399 1078,-109.128 1078,-85.7764"/>
<polygon fill="#191970" stroke="#191970" points="1081.5001,-85.7489 1078,-75.7489 1074.5001,-85.749 1081.5001,-85.7489"/>
</g>
<!-- Node27&#45;&gt;Node18 -->
<g id="edge51" class="edge">
<title>Node27&#45;&gt;Node18</title>
<path fill="none" stroke="#191970" d="M906.6162,-347.468C967.1158,-335.258 1040,-307.5651 1040,-245 1040,-245 1040,-245 1040,-183.5 1040,-149.9798 1041.5379,-133.7122 1016,-112 1006.7938,-104.173 847.6871,-81.4624 773.0625,-71.1738"/>
<polygon fill="#191970" stroke="#191970" points="773.5011,-67.7012 763.1177,-69.8073 772.5482,-74.6361 773.5011,-67.7012"/>
</g>
<!-- Node27&#45;&gt;Node20 -->
<g id="edge47" class="edge">
<title>Node27&#45;&gt;Node20</title>
<path fill="none" stroke="#191970" d="M806.1967,-347.4509C762.9794,-327.6135 663.3366,-281.8758 613.1065,-258.8194"/>
<polygon fill="#191970" stroke="#191970" points="614.2991,-255.5157 603.7506,-254.5249 611.3788,-261.8775 614.2991,-255.5157"/>
</g>
<!-- Node27&#45;&gt;Node21 -->
<g id="edge49" class="edge">
<title>Node27&#45;&gt;Node21</title>
<path fill="none" stroke="#191970" d="M828.4901,-347.4248C832.7581,-319.999 845.0936,-240.732 850.9037,-203.3964"/>
<polygon fill="#191970" stroke="#191970" points="854.4018,-203.6788 852.4812,-193.2595 847.4851,-202.6024 854.4018,-203.6788"/>
</g>
<!-- Node27&#45;&gt;Node24 -->
<g id="edge50" class="edge">
<title>Node27&#45;&gt;Node24</title>
<path fill="none" stroke="#191970" d="M841.4598,-347.3172C880.3081,-320.0411 981.5986,-239.8712 945,-168 893.2955,-66.4643 816.4077,-100.6587 699.1849,-76.0941"/>
<polygon fill="#191970" stroke="#191970" points="699.7235,-72.6285 689.2026,-73.8787 698.2068,-79.4622 699.7235,-72.6285"/>
</g>
<!-- Node28&#45;&gt;Node26 -->
<g id="edge53" class="edge">
<title>Node28&#45;&gt;Node26</title>
<path fill="none" stroke="#191970" d="M676.625,-470.3906C677.0912,-463.2234 677.7505,-453.0862 678.3629,-443.671"/>
<polygon fill="#191970" stroke="#191970" points="681.865,-443.7507 679.0215,-433.5446 674.8797,-443.2963 681.865,-443.7507"/>
</g>
<!-- Node30 -->
<g id="node31" class="node">
<title>Node30</title>
<g id="a_node31"><a xlink:href="SpatialForceVector_8h.html" target="_top" xlink:title="iDynTree/Core/SpatialForce\lVector.h">
<polygon fill="none" stroke="#000000" points="819,-403.5 819,-433.5 967,-433.5 967,-403.5 819,-403.5"/>
<text text-anchor="start" x="827" y="-421.5" font-family="FreeSans.ttf" font-size="10.00" fill="#000000">iDynTree/Core/SpatialForce</text>
<text text-anchor="middle" x="893" y="-410.5" font-family="FreeSans.ttf" font-size="10.00" fill="#000000">Vector.h</text>
</a>
</g>
</g>
<!-- Node29&#45;&gt;Node30 -->
<g id="edge55" class="edge">
<title>Node29&#45;&gt;Node30</title>
<path fill="none" stroke="#191970" d="M844.0625,-470.3906C851.476,-462.5298 862.2587,-451.0964 871.817,-440.9612"/>
<polygon fill="#191970" stroke="#191970" points="874.4968,-443.221 878.8116,-433.5446 869.4043,-438.4183 874.4968,-443.221"/>
</g>
<!-- Node30&#45;&gt;Node4 -->
<g id="edge56" class="edge">
<title>Node30&#45;&gt;Node4</title>
<path fill="none" stroke="#191970" d="M907.8624,-403.1804C916.1995,-393.5911 925.9193,-380.5219 931,-367 962.1852,-284.0023 998.7287,-238.5292 945,-168 937.9966,-158.8067 879.1893,-144.068 833.3169,-133.7584"/>
<polygon fill="#191970" stroke="#191970" points="833.9751,-130.3193 823.4537,-131.5644 832.4552,-137.1523 833.9751,-130.3193"/>
</g>
<!-- Node30&#45;&gt;Node21 -->
<g id="edge57" class="edge">
<title>Node30&#45;&gt;Node21</title>
<path fill="none" stroke="#191970" d="M902.2087,-403.3519C907.699,-393.4104 914.1406,-379.905 917,-367 918.9229,-358.3216 918.6254,-355.739 917,-347 906.7995,-292.1572 878.8862,-231.9897 863.8703,-202.2669"/>
<polygon fill="#191970" stroke="#191970" points="866.8328,-200.3743 859.1471,-193.0818 860.6077,-203.5755 866.8328,-200.3743"/>
</g>
<!-- Node30&#45;&gt;Node27 -->
<g id="edge58" class="edge">
<title>Node30&#45;&gt;Node27</title>
<path fill="none" stroke="#191970" d="M876.6854,-403.2977C867.0467,-394.3163 854.8309,-382.9334 844.9241,-373.702"/>
<polygon fill="#191970" stroke="#191970" points="847.2696,-371.1036 837.5674,-366.8469 842.4975,-376.2249 847.2696,-371.1036"/>
</g>
<!-- Node31&#45;&gt;Node17 -->
<g id="edge61" class="edge">
<title>Node31&#45;&gt;Node17</title>
<path fill="none" stroke="#191970" d="M118.8045,-168.2271C134.4699,-151.8448 161.5596,-126.266 190,-112 243.7738,-85.0265 313.8391,-73.5298 353.9811,-68.8917"/>
<polygon fill="#191970" stroke="#191970" points="354.4282,-72.3639 363.9928,-67.8065 353.6738,-65.4046 354.4282,-72.3639"/>
</g>
<!-- Node31&#45;&gt;Node23 -->
<g id="edge60" class="edge">
<title>Node31&#45;&gt;Node23</title>
<path fill="none" stroke="#191970" d="M175.5691,-174.5826C192.7259,-172.4214 211.0213,-170.1224 228,-168 325.0299,-155.871 436.3521,-142.0857 511.5357,-132.7947"/>
<polygon fill="#191970" stroke="#191970" points="512.404,-136.2141 521.8993,-131.5142 511.5456,-129.2669 512.404,-136.2141"/>
</g>
<!-- Node32&#45;&gt;Node17 -->
<g id="edge63" class="edge">
<title>Node32&#45;&gt;Node17</title>
<path fill="none" stroke="#191970" d="M56.7228,-470.3433C46.7183,-461.8233 32.9845,-448.5273 25,-434 8.0221,-403.1096 6,-392.2487 6,-357 6,-357 6,-357 6,-183.5 6,-110.9317 262.141,-78.3203 353.835,-68.9709"/>
<polygon fill="#191970" stroke="#191970" points="354.3219,-72.4399 363.9271,-67.9688 353.6301,-65.4742 354.3219,-72.4399"/>
</g>
<!-- Node33 -->
<g id="node34" class="node">
<title>Node33</title>
<polygon fill="none" stroke="#bfbfbf" points="34,-409 34,-428 120,-428 120,-409 34,-409"/>
<text text-anchor="middle" x="77" y="-416" font-family="FreeSans.ttf" font-size="10.00" fill="#000000">ModelExport.h</text>
</g>
<!-- Node32&#45;&gt;Node33 -->
<g id="edge64" class="edge">
<title>Node32&#45;&gt;Node33</title>
<path fill="none" stroke="#191970" d="M70.25,-470.3906C71.3589,-461.8657 73.0144,-449.1392 74.4083,-438.4235"/>
<polygon fill="#191970" stroke="#191970" points="77.9131,-438.6128 75.7324,-428.2449 70.9716,-437.7098 77.9131,-438.6128"/>
</g>
</g>
</svg>
