<?xml version="1.0" encoding="UTF-8" standalone="no"?>
<!DOCTYPE svg PUBLIC "-//W3C//DTD SVG 1.1//EN"
 "http://www.w3.org/Graphics/SVG/1.1/DTD/svg11.dtd">
<!-- Generated by graphviz version 2.40.1 (20161225.0304)
 -->
<!-- Title: MaterialElement.cpp Pages: 1 -->
<svg width="1214pt" height="476pt"
 viewBox="0.00 0.00 1213.50 476.00" xmlns="http://www.w3.org/2000/svg" xmlns:xlink="http://www.w3.org/1999/xlink">
<g id="graph0" class="graph" transform="scale(1 1) rotate(0) translate(4 472)">
<title>MaterialElement.cpp</title>
<!-- Node0 -->
<g id="node1" class="node">
<title>Node0</title>
<polygon fill="#bfbfbf" stroke="#000000" points="316.5,-448.5 316.5,-467.5 433.5,-467.5 433.5,-448.5 316.5,-448.5"/>
<text text-anchor="middle" x="375" y="-455.5" font-family="FreeSans.ttf" font-size="10.00" fill="#000000">MaterialElement.cpp</text>
</g>
<!-- Node1 -->
<g id="node2" class="node">
<title>Node1</title>
<g id="a_node2"><a xlink:href="MaterialElement_8h.html" target="_top" xlink:title="MaterialElement.h">
<polygon fill="none" stroke="#000000" points="140,-168.5 140,-187.5 246,-187.5 246,-168.5 140,-168.5"/>
<text text-anchor="middle" x="193" y="-175.5" font-family="FreeSans.ttf" font-size="10.00" fill="#000000">MaterialElement.h</text>
</a>
</g>
</g>
<!-- Node0&#45;&gt;Node1 -->
<g id="edge1" class="edge">
<title>Node0&#45;&gt;Node1</title>
<path fill="none" stroke="#191970" d="M321.673,-448.4828C268.2825,-435.5233 194,-406.603 194,-346 194,-346 194,-346 194,-290 194,-257.7103 193.5793,-220.1863 193.2836,-197.8043"/>
<polygon fill="#191970" stroke="#191970" points="196.7804,-197.5391 193.1433,-187.5881 189.781,-197.6353 196.7804,-197.5391"/>
</g>
<!-- Node9 -->
<g id="node10" class="node">
<title>Node9</title>
<g id="a_node10"><a xlink:href="Utils_8h.html" target="_top" xlink:title="iDynTree/Core/Utils.h">
<polygon fill="none" stroke="#000000" points="1086.5,-56.5 1086.5,-75.5 1205.5,-75.5 1205.5,-56.5 1086.5,-56.5"/>
<text text-anchor="middle" x="1146" y="-63.5" font-family="FreeSans.ttf" font-size="10.00" fill="#000000">iDynTree/Core/Utils.h</text>
</a>
</g>
</g>
<!-- Node0&#45;&gt;Node9 -->
<g id="edge61" class="edge">
<title>Node0&#45;&gt;Node9</title>
<path fill="none" stroke="#191970" d="M433.6128,-456.1153C620.4849,-449.3368 1190,-422.4102 1190,-346 1190,-346 1190,-346 1190,-178 1190,-143.0351 1171.1933,-105.9171 1158.1707,-84.4062"/>
<polygon fill="#191970" stroke="#191970" points="1160.9709,-82.2845 1152.6827,-75.6848 1155.0463,-86.0126 1160.9709,-82.2845"/>
</g>
<!-- Node23 -->
<g id="node24" class="node">
<title>Node23</title>
<g id="a_node24"><a xlink:href="URDFParsingUtils_8h.html" target="_top" xlink:title="URDFParsingUtils.h">
<polygon fill="none" stroke="#000000" points="463,-392.5 463,-411.5 573,-411.5 573,-392.5 463,-392.5"/>
<text text-anchor="middle" x="518" y="-399.5" font-family="FreeSans.ttf" font-size="10.00" fill="#000000">URDFParsingUtils.h</text>
</a>
</g>
</g>
<!-- Node0&#45;&gt;Node23 -->
<g id="edge28" class="edge">
<title>Node0&#45;&gt;Node23</title>
<path fill="none" stroke="#191970" d="M399.5826,-448.3733C422.9496,-439.2226 458.2862,-425.3844 484.2784,-415.2057"/>
<polygon fill="#191970" stroke="#191970" points="485.703,-418.4066 493.7382,-411.5011 483.1505,-411.8886 485.703,-418.4066"/>
</g>
<!-- Node35 -->
<g id="node36" class="node">
<title>Node35</title>
<g id="a_node36"><a xlink:href="XMLAttribute_8h.html" target="_top" xlink:title="iDynTree/XMLAttribute.h">
<polygon fill="none" stroke="#000000" points="299,-280.5 299,-299.5 433,-299.5 433,-280.5 299,-280.5"/>
<text text-anchor="middle" x="366" y="-287.5" font-family="FreeSans.ttf" font-size="10.00" fill="#000000">iDynTree/XMLAttribute.h</text>
</a>
</g>
</g>
<!-- Node0&#45;&gt;Node35 -->
<g id="edge59" class="edge">
<title>Node0&#45;&gt;Node35</title>
<path fill="none" stroke="#191970" d="M374.4903,-448.4862C373.0676,-421.9293 369.0303,-346.5651 367.0803,-310.1655"/>
<polygon fill="#191970" stroke="#191970" points="370.5565,-309.6263 366.5265,-299.8279 363.5665,-310.0008 370.5565,-309.6263"/>
</g>
<!-- Node2 -->
<g id="node3" class="node">
<title>Node2</title>
<g id="a_node3"><a xlink:href="XMLElement_8h.html" target="_top" xlink:title="iDynTree/XMLElement.h">
<polygon fill="none" stroke="#000000" points="76,-112.5 76,-131.5 208,-131.5 208,-112.5 76,-112.5"/>
<text text-anchor="middle" x="142" y="-119.5" font-family="FreeSans.ttf" font-size="10.00" fill="#000000">iDynTree/XMLElement.h</text>
</a>
</g>
</g>
<!-- Node1&#45;&gt;Node2 -->
<g id="edge2" class="edge">
<title>Node1&#45;&gt;Node2</title>
<path fill="none" stroke="#191970" d="M184.1165,-168.2455C176.8034,-160.2155 166.2609,-148.6394 157.5533,-139.0781"/>
<polygon fill="#191970" stroke="#191970" points="160.1028,-136.6795 150.7817,-131.6427 154.9273,-141.3928 160.1028,-136.6795"/>
</g>
<!-- Node4 -->
<g id="node5" class="node">
<title>Node4</title>
<polygon fill="none" stroke="#bfbfbf" points="0,-56.5 0,-75.5 58,-75.5 58,-56.5 0,-56.5"/>
<text text-anchor="middle" x="29" y="-63.5" font-family="FreeSans.ttf" font-size="10.00" fill="#000000">memory</text>
</g>
<!-- Node1&#45;&gt;Node4 -->
<g id="edge26" class="edge">
<title>Node1&#45;&gt;Node4</title>
<path fill="none" stroke="#191970" d="M143.754,-168.4976C118.6221,-161.6823 88.8329,-150.3604 67,-132 52.3429,-119.674 42.1069,-100.1678 35.9812,-85.5522"/>
<polygon fill="#191970" stroke="#191970" points="39.1315,-83.9964 32.2428,-75.9468 32.6082,-86.5354 39.1315,-83.9964"/>
</g>
<!-- Node5 -->
<g id="node6" class="node">
<title>Node5</title>
<polygon fill="none" stroke="#bfbfbf" points="408,-56.5 408,-75.5 452,-75.5 452,-56.5 408,-56.5"/>
<text text-anchor="middle" x="430" y="-63.5" font-family="FreeSans.ttf" font-size="10.00" fill="#000000">string</text>
</g>
<!-- Node1&#45;&gt;Node5 -->
<g id="edge27" class="edge">
<title>Node1&#45;&gt;Node5</title>
<path fill="none" stroke="#191970" d="M206.9493,-168.3027C227.2051,-154.5161 266.253,-129.036 302,-112 333.6153,-96.933 371.5603,-83.8845 397.8895,-75.5728"/>
<polygon fill="#191970" stroke="#191970" points="399.207,-78.8286 407.7185,-72.5196 397.1304,-72.1437 399.207,-78.8286"/>
</g>
<!-- Node8 -->
<g id="node9" class="node">
<title>Node8</title>
<g id="a_node9"><a xlink:href="VectorFixSize_8h.html" target="_top" xlink:title="iDynTree/Core/VectorFixSize.h">
<polygon fill="none" stroke="#000000" points="709.5,-112.5 709.5,-131.5 870.5,-131.5 870.5,-112.5 709.5,-112.5"/>
<text text-anchor="middle" x="790" y="-119.5" font-family="FreeSans.ttf" font-size="10.00" fill="#000000">iDynTree/Core/VectorFixSize.h</text>
</a>
</g>
</g>
<!-- Node1&#45;&gt;Node8 -->
<g id="edge8" class="edge">
<title>Node1&#45;&gt;Node8</title>
<path fill="none" stroke="#191970" d="M246.2422,-173.0058C348.4292,-163.4204 573.0908,-142.3466 699.3221,-130.5058"/>
<polygon fill="#191970" stroke="#191970" points="699.7273,-133.9832 709.3567,-129.5645 699.0735,-127.0138 699.7273,-133.9832"/>
</g>
<!-- Node3 -->
<g id="node4" class="node">
<title>Node3</title>
<polygon fill="none" stroke="#bfbfbf" points="187.5,-56.5 187.5,-75.5 252.5,-75.5 252.5,-56.5 187.5,-56.5"/>
<text text-anchor="middle" x="220" y="-63.5" font-family="FreeSans.ttf" font-size="10.00" fill="#000000">functional</text>
</g>
<!-- Node2&#45;&gt;Node3 -->
<g id="edge3" class="edge">
<title>Node2&#45;&gt;Node3</title>
<path fill="none" stroke="#191970" d="M155.5866,-112.2455C167.3305,-103.814 184.5199,-91.4729 198.1882,-81.6598"/>
<polygon fill="#191970" stroke="#191970" points="200.4871,-84.3179 206.5691,-75.6427 196.4046,-78.6316 200.4871,-84.3179"/>
</g>
<!-- Node2&#45;&gt;Node4 -->
<g id="edge4" class="edge">
<title>Node2&#45;&gt;Node4</title>
<path fill="none" stroke="#191970" d="M122.5746,-112.3733C104.5979,-103.4644 77.6559,-90.1127 57.291,-80.0203"/>
<polygon fill="#191970" stroke="#191970" points="58.6861,-76.8055 48.1719,-75.5011 55.5778,-83.0776 58.6861,-76.8055"/>
</g>
<!-- Node2&#45;&gt;Node5 -->
<g id="edge5" class="edge">
<title>Node2&#45;&gt;Node5</title>
<path fill="none" stroke="#191970" d="M191.1817,-112.4369C250.277,-100.9461 347.7246,-81.998 397.9162,-72.2385"/>
<polygon fill="#191970" stroke="#191970" points="398.7303,-75.6459 407.8784,-70.3014 397.3942,-68.7745 398.7303,-75.6459"/>
</g>
<!-- Node6 -->
<g id="node7" class="node">
<title>Node6</title>
<polygon fill="none" stroke="#bfbfbf" points="76.5,-56.5 76.5,-75.5 169.5,-75.5 169.5,-56.5 76.5,-56.5"/>
<text text-anchor="middle" x="123" y="-63.5" font-family="FreeSans.ttf" font-size="10.00" fill="#000000">unordered_map</text>
</g>
<!-- Node2&#45;&gt;Node6 -->
<g id="edge6" class="edge">
<title>Node2&#45;&gt;Node6</title>
<path fill="none" stroke="#191970" d="M138.6905,-112.2455C136.1567,-104.7776 132.5823,-94.2427 129.485,-85.1137"/>
<polygon fill="#191970" stroke="#191970" points="132.7991,-83.9879 126.2716,-75.6427 126.1702,-86.237 132.7991,-83.9879"/>
</g>
<!-- Node7 -->
<g id="node8" class="node">
<title>Node7</title>
<polygon fill="none" stroke="#bfbfbf" points="270.5,-56.5 270.5,-75.5 317.5,-75.5 317.5,-56.5 270.5,-56.5"/>
<text text-anchor="middle" x="294" y="-63.5" font-family="FreeSans.ttf" font-size="10.00" fill="#000000">vector</text>
</g>
<!-- Node2&#45;&gt;Node7 -->
<g id="edge7" class="edge">
<title>Node2&#45;&gt;Node7</title>
<path fill="none" stroke="#191970" d="M168.1297,-112.3733C193.6815,-102.9594 232.6986,-88.5847 260.5142,-78.3369"/>
<polygon fill="#191970" stroke="#191970" points="262.0361,-81.5062 270.2095,-74.7649 259.6161,-74.9378 262.0361,-81.5062"/>
</g>
<!-- Node8&#45;&gt;Node5 -->
<g id="edge22" class="edge">
<title>Node8&#45;&gt;Node5</title>
<path fill="none" stroke="#191970" d="M728.5228,-112.4369C651.4182,-100.4428 522.0817,-80.3238 462.2098,-71.0104"/>
<polygon fill="#191970" stroke="#191970" points="462.6221,-67.5325 452.203,-69.4538 461.5461,-74.4494 462.6221,-67.5325"/>
</g>
<!-- Node8&#45;&gt;Node9 -->
<g id="edge9" class="edge">
<title>Node8&#45;&gt;Node9</title>
<path fill="none" stroke="#191970" d="M850.7941,-112.4369C913.2835,-102.6071 1010.4657,-87.32 1076.0946,-76.9963"/>
<polygon fill="#191970" stroke="#191970" points="1077.012,-80.3952 1086.3466,-75.3837 1075.9242,-73.4802 1077.012,-80.3952"/>
</g>
<!-- Node12 -->
<g id="node13" class="node">
<title>Node12</title>
<g id="a_node13"><a xlink:href="Span_8h.html" target="_top" xlink:title="iDynTree/Core/Span.h">
<polygon fill="none" stroke="#000000" points="638.5,-56.5 638.5,-75.5 759.5,-75.5 759.5,-56.5 638.5,-56.5"/>
<text text-anchor="middle" x="699" y="-63.5" font-family="FreeSans.ttf" font-size="10.00" fill="#000000">iDynTree/Core/Span.h</text>
</a>
</g>
</g>
<!-- Node8&#45;&gt;Node12 -->
<g id="edge12" class="edge">
<title>Node8&#45;&gt;Node12</title>
<path fill="none" stroke="#191970" d="M774.149,-112.2455C760.1868,-103.6534 739.6272,-91.0014 723.5404,-81.1018"/>
<polygon fill="#191970" stroke="#191970" points="725.0203,-77.9029 714.6693,-75.6427 721.3516,-83.8645 725.0203,-77.9029"/>
</g>
<!-- Node13 -->
<g id="node14" class="node">
<title>Node13</title>
<polygon fill="none" stroke="#bfbfbf" points="881,-.5 881,-19.5 933,-19.5 933,-.5 881,-.5"/>
<text text-anchor="middle" x="907" y="-7.5" font-family="FreeSans.ttf" font-size="10.00" fill="#000000">cassert</text>
</g>
<!-- Node8&#45;&gt;Node13 -->
<g id="edge24" class="edge">
<title>Node8&#45;&gt;Node13</title>
<path fill="none" stroke="#191970" d="M791.7387,-112.341C794.6977,-98.3706 801.9197,-72.4063 817,-56 831.5955,-40.1211 852.9221,-28.8861 871.1518,-21.496"/>
<polygon fill="#191970" stroke="#191970" points="872.53,-24.7163 880.6237,-17.8794 870.033,-18.1768 872.53,-24.7163"/>
</g>
<!-- Node21 -->
<g id="node22" class="node">
<title>Node21</title>
<polygon fill="none" stroke="#bfbfbf" points="1012,-56.5 1012,-75.5 1068,-75.5 1068,-56.5 1012,-56.5"/>
<text text-anchor="middle" x="1040" y="-63.5" font-family="FreeSans.ttf" font-size="10.00" fill="#000000">sstream</text>
</g>
<!-- Node8&#45;&gt;Node21 -->
<g id="edge23" class="edge">
<title>Node8&#45;&gt;Node21</title>
<path fill="none" stroke="#191970" d="M837.5342,-112.462C878.6085,-104.0564 939.7831,-91.1482 1001.7992,-76.2081"/>
<polygon fill="#191970" stroke="#191970" points="1002.8633,-79.5516 1011.7566,-73.7933 1001.2134,-72.7488 1002.8633,-79.5516"/>
</g>
<!-- Node22 -->
<g id="node23" class="node">
<title>Node22</title>
<polygon fill="none" stroke="#bfbfbf" points="826,-56.5 826,-75.5 876,-75.5 876,-56.5 826,-56.5"/>
<text text-anchor="middle" x="851" y="-63.5" font-family="FreeSans.ttf" font-size="10.00" fill="#000000">cstring</text>
</g>
<!-- Node8&#45;&gt;Node22 -->
<g id="edge25" class="edge">
<title>Node8&#45;&gt;Node22</title>
<path fill="none" stroke="#191970" d="M800.6254,-112.2455C809.5473,-104.0549 822.488,-92.1749 833.0192,-82.5069"/>
<polygon fill="#191970" stroke="#191970" points="835.4968,-84.9837 840.4964,-75.6427 830.7629,-79.8271 835.4968,-84.9837"/>
</g>
<!-- Node10 -->
<g id="node11" class="node">
<title>Node10</title>
<polygon fill="none" stroke="#bfbfbf" points="999.5,-.5 999.5,-19.5 1052.5,-19.5 1052.5,-.5 999.5,-.5"/>
<text text-anchor="middle" x="1026" y="-7.5" font-family="FreeSans.ttf" font-size="10.00" fill="#000000">cstddef</text>
</g>
<!-- Node9&#45;&gt;Node10 -->
<g id="edge10" class="edge">
<title>Node9&#45;&gt;Node10</title>
<path fill="none" stroke="#191970" d="M1125.3713,-56.3733C1106.1081,-47.3838 1077.1514,-33.8706 1055.4581,-23.7471"/>
<polygon fill="#191970" stroke="#191970" points="1056.9015,-20.5584 1046.3595,-19.5011 1053.9413,-26.9017 1056.9015,-20.5584"/>
</g>
<!-- Node11 -->
<g id="node12" class="node">
<title>Node11</title>
<polygon fill="none" stroke="#bfbfbf" points="1106,-.5 1106,-19.5 1186,-19.5 1186,-.5 1106,-.5"/>
<text text-anchor="middle" x="1146" y="-7.5" font-family="FreeSans.ttf" font-size="10.00" fill="#000000">CoreExport.h</text>
</g>
<!-- Node9&#45;&gt;Node11 -->
<g id="edge11" class="edge">
<title>Node9&#45;&gt;Node11</title>
<path fill="none" stroke="#191970" d="M1146,-56.2455C1146,-48.9382 1146,-38.6944 1146,-29.7046"/>
<polygon fill="#191970" stroke="#191970" points="1149.5001,-29.6426 1146,-19.6427 1142.5001,-29.6427 1149.5001,-29.6426"/>
</g>
<!-- Node12&#45;&gt;Node10 -->
<g id="edge16" class="edge">
<title>Node12&#45;&gt;Node10</title>
<path fill="none" stroke="#191970" d="M754.8418,-56.4369C821.8141,-44.9676 932.1697,-26.0688 989.2514,-16.2933"/>
<polygon fill="#191970" stroke="#191970" points="990.0016,-19.7159 999.2673,-14.5781 988.82,-12.8163 990.0016,-19.7159"/>
</g>
<!-- Node12&#45;&gt;Node13 -->
<g id="edge13" class="edge">
<title>Node12&#45;&gt;Node13</title>
<path fill="none" stroke="#191970" d="M735.8386,-56.4148C768.8443,-47.7801 818.8253,-34.5901 870.8976,-20.2729"/>
<polygon fill="#191970" stroke="#191970" points="871.9309,-23.6187 880.6413,-17.5872 870.0708,-16.8703 871.9309,-23.6187"/>
</g>
<!-- Node14 -->
<g id="node15" class="node">
<title>Node14</title>
<polygon fill="none" stroke="#bfbfbf" points="739,-.5 739,-19.5 803,-19.5 803,-.5 739,-.5"/>
<text text-anchor="middle" x="771" y="-7.5" font-family="FreeSans.ttf" font-size="10.00" fill="#000000">algorithm</text>
</g>
<!-- Node12&#45;&gt;Node14 -->
<g id="edge14" class="edge">
<title>Node12&#45;&gt;Node14</title>
<path fill="none" stroke="#191970" d="M711.5414,-56.2455C722.2787,-47.8943 737.9473,-35.7076 750.5047,-25.9408"/>
<polygon fill="#191970" stroke="#191970" points="752.8575,-28.5449 758.6023,-19.6427 748.5599,-23.0194 752.8575,-28.5449"/>
</g>
<!-- Node15 -->
<g id="node16" class="node">
<title>Node15</title>
<polygon fill="none" stroke="#bfbfbf" points="821,-.5 821,-19.5 863,-19.5 863,-.5 821,-.5"/>
<text text-anchor="middle" x="842" y="-7.5" font-family="FreeSans.ttf" font-size="10.00" fill="#000000">array</text>
</g>
<!-- Node12&#45;&gt;Node15 -->
<g id="edge15" class="edge">
<title>Node12&#45;&gt;Node15</title>
<path fill="none" stroke="#191970" d="M723.5826,-56.3733C747.9409,-46.8343 785.3061,-32.2018 811.5344,-21.9306"/>
<polygon fill="#191970" stroke="#191970" points="812.9559,-25.1328 820.9911,-18.2273 810.4033,-18.6148 812.9559,-25.1328"/>
</g>
<!-- Node16 -->
<g id="node17" class="node">
<title>Node16</title>
<polygon fill="none" stroke="#bfbfbf" points="371.5,-.5 371.5,-19.5 424.5,-19.5 424.5,-.5 371.5,-.5"/>
<text text-anchor="middle" x="398" y="-7.5" font-family="FreeSans.ttf" font-size="10.00" fill="#000000">iterator</text>
</g>
<!-- Node12&#45;&gt;Node16 -->
<g id="edge17" class="edge">
<title>Node12&#45;&gt;Node16</title>
<path fill="none" stroke="#191970" d="M638.409,-57.2317C586.7948,-49.3654 510.4872,-36.8013 434.8442,-20.0102"/>
<polygon fill="#191970" stroke="#191970" points="435.1859,-16.4998 424.6619,-17.723 433.6517,-23.3296 435.1859,-16.4998"/>
</g>
<!-- Node17 -->
<g id="node18" class="node">
<title>Node17</title>
<polygon fill="none" stroke="#bfbfbf" points="443,-.5 443,-19.5 487,-19.5 487,-.5 443,-.5"/>
<text text-anchor="middle" x="465" y="-7.5" font-family="FreeSans.ttf" font-size="10.00" fill="#000000">limits</text>
</g>
<!-- Node12&#45;&gt;Node17 -->
<g id="edge18" class="edge">
<title>Node12&#45;&gt;Node17</title>
<path fill="none" stroke="#191970" d="M652.208,-56.4404C611.1005,-47.7819 549.7848,-34.2339 497,-20 496.9017,-19.9735 496.8032,-19.9469 496.7045,-19.9201"/>
<polygon fill="#191970" stroke="#191970" points="497.8915,-16.6197 487.3137,-17.2199 495.9571,-23.3471 497.8915,-16.6197"/>
</g>
<!-- Node18 -->
<g id="node19" class="node">
<title>Node18</title>
<polygon fill="none" stroke="#bfbfbf" points="505.5,-.5 505.5,-19.5 570.5,-19.5 570.5,-.5 505.5,-.5"/>
<text text-anchor="middle" x="538" y="-7.5" font-family="FreeSans.ttf" font-size="10.00" fill="#000000">stdexcept</text>
</g>
<!-- Node12&#45;&gt;Node18 -->
<g id="edge19" class="edge">
<title>Node12&#45;&gt;Node18</title>
<path fill="none" stroke="#191970" d="M671.3231,-56.3733C644.6672,-47.1016 604.1762,-33.0178 574.8116,-22.804"/>
<polygon fill="#191970" stroke="#191970" points="575.9105,-19.4807 565.3157,-19.5011 573.6109,-26.0921 575.9105,-19.4807"/>
</g>
<!-- Node19 -->
<g id="node20" class="node">
<title>Node19</title>
<polygon fill="none" stroke="#bfbfbf" points="588.5,-.5 588.5,-19.5 657.5,-19.5 657.5,-.5 588.5,-.5"/>
<text text-anchor="middle" x="623" y="-7.5" font-family="FreeSans.ttf" font-size="10.00" fill="#000000">type_traits</text>
</g>
<!-- Node12&#45;&gt;Node19 -->
<g id="edge20" class="edge">
<title>Node12&#45;&gt;Node19</title>
<path fill="none" stroke="#191970" d="M685.7618,-56.2455C674.319,-47.814 657.5704,-35.4729 644.2525,-25.6598"/>
<polygon fill="#191970" stroke="#191970" points="646.2133,-22.757 636.0865,-19.6427 642.0609,-28.3924 646.2133,-22.757"/>
</g>
<!-- Node20 -->
<g id="node21" class="node">
<title>Node20</title>
<polygon fill="none" stroke="#bfbfbf" points="675.5,-.5 675.5,-19.5 720.5,-19.5 720.5,-.5 675.5,-.5"/>
<text text-anchor="middle" x="698" y="-7.5" font-family="FreeSans.ttf" font-size="10.00" fill="#000000">utility</text>
</g>
<!-- Node12&#45;&gt;Node20 -->
<g id="edge21" class="edge">
<title>Node12&#45;&gt;Node20</title>
<path fill="none" stroke="#191970" d="M698.8258,-56.2455C698.6953,-48.9382 698.5124,-38.6944 698.3519,-29.7046"/>
<polygon fill="#191970" stroke="#191970" points="701.8503,-29.5786 698.1722,-19.6427 694.8514,-29.7036 701.8503,-29.5786"/>
</g>
<!-- Node23&#45;&gt;Node5 -->
<g id="edge32" class="edge">
<title>Node23&#45;&gt;Node5</title>
<path fill="none" stroke="#191970" d="M508.0784,-392.2013C499.628,-383.3894 487.6695,-369.7509 480,-356 441.5931,-287.1393 439.2879,-265.1466 423,-188 416.0072,-154.8793 413.6926,-145.5756 418,-112 419.1391,-103.1204 421.4673,-93.5073 423.7723,-85.3763"/>
<polygon fill="#191970" stroke="#191970" points="427.1457,-86.3125 426.6873,-75.7276 420.4448,-84.2881 427.1457,-86.3125"/>
</g>
<!-- Node23&#45;&gt;Node7 -->
<g id="edge33" class="edge">
<title>Node23&#45;&gt;Node7</title>
<path fill="none" stroke="#191970" d="M462.8645,-396.0341C406.7895,-386.5647 323.5221,-362.2284 290,-300 251.7921,-229.073 275.1706,-127.639 287.6549,-85.5051"/>
<polygon fill="#191970" stroke="#191970" points="291.0781,-86.282 290.689,-75.6943 284.3906,-84.2138 291.0781,-86.282"/>
</g>
<!-- Node23&#45;&gt;Node8 -->
<g id="edge57" class="edge">
<title>Node23&#45;&gt;Node8</title>
<path fill="none" stroke="#191970" d="M573.002,-397.4382C720.5469,-384.4678 1114,-344.7474 1114,-290 1114,-290 1114,-290 1114,-234 1114,-195.2415 1090.7403,-187.0739 1057,-168 1040.7948,-158.839 942.5336,-143.418 869.896,-132.9821"/>
<polygon fill="#191970" stroke="#191970" points="870.2223,-129.4933 859.8278,-131.5438 869.2323,-136.4229 870.2223,-129.4933"/>
</g>
<!-- Node23&#45;&gt;Node21 -->
<g id="edge31" class="edge">
<title>Node23&#45;&gt;Node21</title>
<path fill="none" stroke="#191970" d="M573.3121,-398.3774C678.7709,-391.1615 904.8736,-374.1209 981,-356 1060.2501,-337.1356 1152,-371.4644 1152,-290 1152,-290 1152,-290 1152,-178 1152,-131.7508 1103.6579,-97.9293 1070.4935,-80.1683"/>
<polygon fill="#191970" stroke="#191970" points="1072.0878,-77.0526 1061.5947,-75.5877 1068.8841,-83.2764 1072.0878,-77.0526"/>
</g>
<!-- Node24 -->
<g id="node25" class="node">
<title>Node24</title>
<polygon fill="none" stroke="#bfbfbf" points="729.5,-336.5 729.5,-355.5 776.5,-355.5 776.5,-336.5 729.5,-336.5"/>
<text text-anchor="middle" x="753" y="-343.5" font-family="FreeSans.ttf" font-size="10.00" fill="#000000">cmath</text>
</g>
<!-- Node23&#45;&gt;Node24 -->
<g id="edge29" class="edge">
<title>Node23&#45;&gt;Node24</title>
<path fill="none" stroke="#191970" d="M563.9534,-392.499C602.8761,-384.2351 660.3499,-371.5264 719.3917,-356.0252"/>
<polygon fill="#191970" stroke="#191970" points="720.4933,-359.3542 729.2639,-353.4106 718.7011,-352.5874 720.4933,-359.3542"/>
</g>
<!-- Node25 -->
<g id="node26" class="node">
<title>Node25</title>
<polygon fill="none" stroke="#bfbfbf" points="383.5,-336.5 383.5,-355.5 432.5,-355.5 432.5,-336.5 383.5,-336.5"/>
<text text-anchor="middle" x="408" y="-343.5" font-family="FreeSans.ttf" font-size="10.00" fill="#000000">cstdlib</text>
</g>
<!-- Node23&#45;&gt;Node25 -->
<g id="edge30" class="edge">
<title>Node23&#45;&gt;Node25</title>
<path fill="none" stroke="#191970" d="M498.8395,-392.2455C481.4889,-383.4125 455.7099,-370.2887 436.0417,-360.2758"/>
<polygon fill="#191970" stroke="#191970" points="437.4405,-357.0605 426.941,-355.6427 434.2647,-363.2986 437.4405,-357.0605"/>
</g>
<!-- Node26 -->
<g id="node27" class="node">
<title>Node26</title>
<g id="a_node27"><a xlink:href="Transform_8h.html" target="_top" xlink:title="iDynTree/Core/Transform.h">
<polygon fill="none" stroke="#000000" points="565,-336.5 565,-355.5 711,-355.5 711,-336.5 565,-336.5"/>
<text text-anchor="middle" x="638" y="-343.5" font-family="FreeSans.ttf" font-size="10.00" fill="#000000">iDynTree/Core/Transform.h</text>
</a>
</g>
</g>
<!-- Node23&#45;&gt;Node26 -->
<g id="edge34" class="edge">
<title>Node23&#45;&gt;Node26</title>
<path fill="none" stroke="#191970" d="M538.6287,-392.3733C557.8919,-383.3838 586.8486,-369.8706 608.5419,-359.7471"/>
<polygon fill="#191970" stroke="#191970" points="610.0587,-362.9017 617.6405,-355.5011 607.0985,-356.5584 610.0587,-362.9017"/>
</g>
<!-- Node34 -->
<g id="node35" class="node">
<title>Node34</title>
<polygon fill="none" stroke="#bfbfbf" points="489,-336.5 489,-355.5 547,-355.5 547,-336.5 489,-336.5"/>
<text text-anchor="middle" x="518" y="-343.5" font-family="FreeSans.ttf" font-size="10.00" fill="#000000">fpconv.h</text>
</g>
<!-- Node23&#45;&gt;Node34 -->
<g id="edge58" class="edge">
<title>Node23&#45;&gt;Node34</title>
<path fill="none" stroke="#191970" d="M518,-392.2455C518,-384.9382 518,-374.6944 518,-365.7046"/>
<polygon fill="#191970" stroke="#191970" points="521.5001,-365.6426 518,-355.6427 514.5001,-365.6427 521.5001,-365.6426"/>
</g>
<!-- Node26&#45;&gt;Node5 -->
<g id="edge56" class="edge">
<title>Node26&#45;&gt;Node5</title>
<path fill="none" stroke="#191970" d="M612.3433,-336.4026C591.9059,-328.1932 563.0079,-315.2962 540,-300 482.9255,-262.0554 462.0303,-250.5427 434,-188 419.0431,-154.6274 422.4335,-110.8094 426.2319,-85.7935"/>
<polygon fill="#191970" stroke="#191970" points="429.7176,-86.1727 427.9414,-75.7278 422.8164,-85.0006 429.7176,-86.1727"/>
</g>
<!-- Node27 -->
<g id="node28" class="node">
<title>Node27</title>
<g id="a_node28"><a xlink:href="Position_8h.html" target="_top" xlink:title="iDynTree/Core/Position.h">
<polygon fill="none" stroke="#000000" points="549,-280.5 549,-299.5 685,-299.5 685,-280.5 549,-280.5"/>
<text text-anchor="middle" x="617" y="-287.5" font-family="FreeSans.ttf" font-size="10.00" fill="#000000">iDynTree/Core/Position.h</text>
</a>
</g>
</g>
<!-- Node26&#45;&gt;Node27 -->
<g id="edge35" class="edge">
<title>Node26&#45;&gt;Node27</title>
<path fill="none" stroke="#191970" d="M634.3421,-336.2455C631.5416,-328.7776 627.591,-318.2427 624.1676,-309.1137"/>
<polygon fill="#191970" stroke="#191970" points="627.4045,-307.777 620.616,-299.6427 620.8501,-310.2349 627.4045,-307.777"/>
</g>
<!-- Node29 -->
<g id="node30" class="node">
<title>Node29</title>
<g id="a_node30"><a xlink:href="Rotation_8h.html" target="_top" xlink:title="iDynTree/Core/Rotation.h">
<polygon fill="none" stroke="#000000" points="663.5,-224.5 663.5,-243.5 800.5,-243.5 800.5,-224.5 663.5,-224.5"/>
<text text-anchor="middle" x="732" y="-231.5" font-family="FreeSans.ttf" font-size="10.00" fill="#000000">iDynTree/Core/Rotation.h</text>
</a>
</g>
</g>
<!-- Node26&#45;&gt;Node29 -->
<g id="edge54" class="edge">
<title>Node26&#45;&gt;Node29</title>
<path fill="none" stroke="#191970" d="M652.5784,-336.2783C664.6725,-327.7186 681.8021,-314.4009 694,-300 706.2403,-285.549 716.6794,-266.6076 723.5011,-252.7246"/>
<polygon fill="#191970" stroke="#191970" points="726.6836,-254.1816 727.803,-243.646 720.3579,-251.1841 726.6836,-254.1816"/>
</g>
<!-- Node32 -->
<g id="node33" class="node">
<title>Node32</title>
<g id="a_node33"><a xlink:href="MatrixFixSize_8h.html" target="_top" xlink:title="iDynTree/Core/MatrixFixSize.h">
<polygon fill="none" stroke="#000000" points="888.5,-112.5 888.5,-131.5 1049.5,-131.5 1049.5,-112.5 888.5,-112.5"/>
<text text-anchor="middle" x="969" y="-119.5" font-family="FreeSans.ttf" font-size="10.00" fill="#000000">iDynTree/Core/MatrixFixSize.h</text>
</a>
</g>
</g>
<!-- Node26&#45;&gt;Node32 -->
<g id="edge55" class="edge">
<title>Node26&#45;&gt;Node32</title>
<path fill="none" stroke="#191970" d="M680.1025,-336.4956C777.279,-313.6181 1012.3342,-252.5789 1057,-188 1073.027,-164.8278 1041.3544,-146.4438 1011.6379,-135.0251"/>
<polygon fill="#191970" stroke="#191970" points="1012.7154,-131.6928 1002.1214,-131.5653 1010.3236,-138.2715 1012.7154,-131.6928"/>
</g>
<!-- Node27&#45;&gt;Node5 -->
<g id="edge53" class="edge">
<title>Node27&#45;&gt;Node5</title>
<path fill="none" stroke="#191970" d="M586.4964,-280.4956C547.7672,-266.73 482.023,-237.3402 449,-188 428.1243,-156.8093 426.9164,-111.2148 428.2382,-85.5097"/>
<polygon fill="#191970" stroke="#191970" points="431.7309,-85.7353 428.9357,-75.5159 424.7479,-85.2479 431.7309,-85.7353"/>
</g>
<!-- Node28 -->
<g id="node29" class="node">
<title>Node28</title>
<g id="a_node29"><a xlink:href="PositionRaw_8h.html" target="_top" xlink:title="iDynTree/Core/PositionRaw.h">
<polygon fill="none" stroke="#000000" points="458,-168.5 458,-187.5 614,-187.5 614,-168.5 458,-168.5"/>
<text text-anchor="middle" x="536" y="-175.5" font-family="FreeSans.ttf" font-size="10.00" fill="#000000">iDynTree/Core/PositionRaw.h</text>
</a>
</g>
</g>
<!-- Node27&#45;&gt;Node28 -->
<g id="edge36" class="edge">
<title>Node27&#45;&gt;Node28</title>
<path fill="none" stroke="#191970" d="M610.094,-280.4509C596.5244,-261.688 566.1976,-219.7548 548.8428,-195.758"/>
<polygon fill="#191970" stroke="#191970" points="551.5848,-193.5768 542.8885,-187.5249 545.9127,-197.679 551.5848,-193.5768"/>
</g>
<!-- Node27&#45;&gt;Node29 -->
<g id="edge39" class="edge">
<title>Node27&#45;&gt;Node29</title>
<path fill="none" stroke="#191970" d="M636.7692,-280.3733C655.1469,-271.4241 682.7312,-257.9917 703.4893,-247.8835"/>
<polygon fill="#191970" stroke="#191970" points="705.0304,-251.026 712.4888,-243.5011 701.9657,-244.7325 705.0304,-251.026"/>
</g>
<!-- Node28&#45;&gt;Node5 -->
<g id="edge38" class="edge">
<title>Node28&#45;&gt;Node5</title>
<path fill="none" stroke="#191970" d="M526.9625,-168.4509C508.9701,-149.4401 468.4651,-106.6423 445.9152,-82.816"/>
<polygon fill="#191970" stroke="#191970" points="448.4305,-80.382 439.0146,-75.5249 443.3465,-85.1937 448.4305,-80.382"/>
</g>
<!-- Node28&#45;&gt;Node8 -->
<g id="edge37" class="edge">
<title>Node28&#45;&gt;Node8</title>
<path fill="none" stroke="#191970" d="M579.3756,-168.4369C622.937,-158.8328 690.1277,-144.0191 736.8634,-133.7152"/>
<polygon fill="#191970" stroke="#191970" points="737.7915,-137.0947 746.8034,-131.5237 736.2843,-130.2588 737.7915,-137.0947"/>
</g>
<!-- Node29&#45;&gt;Node5 -->
<g id="edge40" class="edge">
<title>Node29&#45;&gt;Node5</title>
<path fill="none" stroke="#191970" d="M716.6447,-224.3138C695.6939,-211.1877 656.8789,-187.1878 623,-168 565.3324,-135.3391 496.3918,-99.7038 458.4884,-80.3981"/>
<polygon fill="#191970" stroke="#191970" points="459.6014,-77.0377 449.1008,-75.6275 456.4301,-83.2782 459.6014,-77.0377"/>
</g>
<!-- Node29&#45;&gt;Node8 -->
<g id="edge52" class="edge">
<title>Node29&#45;&gt;Node8</title>
<path fill="none" stroke="#191970" d="M787.8536,-224.4367C808.7742,-217.8472 830.4852,-206.7332 843,-188 855.247,-169.6677 834.938,-150.1556 816.0245,-137.1423"/>
<polygon fill="#191970" stroke="#191970" points="817.849,-134.1539 807.5547,-131.6481 814.0395,-140.0265 817.849,-134.1539"/>
</g>
<!-- Node30 -->
<g id="node31" class="node">
<title>Node30</title>
<g id="a_node31"><a xlink:href="GeomVector3_8h.html" target="_top" xlink:title="iDynTree/Core/GeomVector3.h">
<polygon fill="none" stroke="#000000" points="670.5,-168.5 670.5,-187.5 833.5,-187.5 833.5,-168.5 670.5,-168.5"/>
<text text-anchor="middle" x="752" y="-175.5" font-family="FreeSans.ttf" font-size="10.00" fill="#000000">iDynTree/Core/GeomVector3.h</text>
</a>
</g>
</g>
<!-- Node29&#45;&gt;Node30 -->
<g id="edge41" class="edge">
<title>Node29&#45;&gt;Node30</title>
<path fill="none" stroke="#191970" d="M735.4837,-224.2455C738.1508,-216.7776 741.9133,-206.2427 745.1737,-197.1137"/>
<polygon fill="#191970" stroke="#191970" points="748.4889,-198.2373 748.5562,-187.6427 741.8967,-195.8829 748.4889,-198.2373"/>
</g>
<!-- Node31 -->
<g id="node32" class="node">
<title>Node31</title>
<g id="a_node32"><a xlink:href="RotationRaw_8h.html" target="_top" xlink:title="iDynTree/Core/RotationRaw.h">
<polygon fill="none" stroke="#000000" points="890,-168.5 890,-187.5 1048,-187.5 1048,-168.5 890,-168.5"/>
<text text-anchor="middle" x="969" y="-175.5" font-family="FreeSans.ttf" font-size="10.00" fill="#000000">iDynTree/Core/RotationRaw.h</text>
</a>
</g>
</g>
<!-- Node29&#45;&gt;Node31 -->
<g id="edge43" class="edge">
<title>Node29&#45;&gt;Node31</title>
<path fill="none" stroke="#191970" d="M772.4725,-224.4369C812.948,-214.8731 875.2867,-200.1432 918.8703,-189.845"/>
<polygon fill="#191970" stroke="#191970" points="919.7673,-193.2295 928.6945,-187.5237 918.1576,-186.4171 919.7673,-193.2295"/>
</g>
<!-- Node30&#45;&gt;Node8 -->
<g id="edge42" class="edge">
<title>Node30&#45;&gt;Node8</title>
<path fill="none" stroke="#191970" d="M758.6191,-168.2455C763.9046,-160.4564 771.4541,-149.3308 777.8238,-139.9439"/>
<polygon fill="#191970" stroke="#191970" points="780.7379,-141.8827 783.4568,-131.6427 774.9455,-137.9522 780.7379,-141.8827"/>
</g>
<!-- Node31&#45;&gt;Node5 -->
<g id="edge51" class="edge">
<title>Node31&#45;&gt;Node5</title>
<path fill="none" stroke="#191970" d="M889.8241,-169.6513C835.8277,-162.6905 763.1241,-150.8167 701,-132 680.0534,-125.6555 676.8464,-118.6664 656,-112 588.5628,-90.4344 506.4628,-76.7141 462.1297,-70.29"/>
<polygon fill="#191970" stroke="#191970" points="462.6148,-66.8239 452.2225,-68.8854 461.6321,-73.7546 462.6148,-66.8239"/>
</g>
<!-- Node31&#45;&gt;Node32 -->
<g id="edge44" class="edge">
<title>Node31&#45;&gt;Node32</title>
<path fill="none" stroke="#191970" d="M969,-168.2455C969,-160.9382 969,-150.6944 969,-141.7046"/>
<polygon fill="#191970" stroke="#191970" points="972.5001,-141.6426 969,-131.6427 965.5001,-141.6427 972.5001,-141.6426"/>
</g>
<!-- Node32&#45;&gt;Node5 -->
<g id="edge48" class="edge">
<title>Node32&#45;&gt;Node5</title>
<path fill="none" stroke="#191970" d="M888.4738,-112.9155C885.6142,-112.6046 882.7828,-112.2986 880,-112 723.3379,-95.192 535.8358,-76.4755 462.0587,-69.1657"/>
<polygon fill="#191970" stroke="#191970" points="462.3121,-65.6738 452.0159,-68.1716 461.6225,-72.6398 462.3121,-65.6738"/>
</g>
<!-- Node32&#45;&gt;Node9 -->
<g id="edge45" class="edge">
<title>Node32&#45;&gt;Node9</title>
<path fill="none" stroke="#191970" d="M999.4274,-112.3733C1028.9872,-103.021 1074.0226,-88.7725 1106.3695,-78.5385"/>
<polygon fill="#191970" stroke="#191970" points="1107.4913,-81.8546 1115.9697,-75.5011 1105.3797,-75.1807 1107.4913,-81.8546"/>
</g>
<!-- Node32&#45;&gt;Node13 -->
<g id="edge46" class="edge">
<title>Node32&#45;&gt;Node13</title>
<path fill="none" stroke="#191970" d="M956.8134,-112.2928C946.8642,-103.7419 933.1606,-90.4291 925,-76 916.8693,-61.6237 912.2605,-43.3909 909.7466,-29.7336"/>
<polygon fill="#191970" stroke="#191970" points="913.1471,-28.8361 908.0963,-19.5226 906.2367,-29.953 913.1471,-28.8361"/>
</g>
<!-- Node32&#45;&gt;Node21 -->
<g id="edge50" class="edge">
<title>Node32&#45;&gt;Node21</title>
<path fill="none" stroke="#191970" d="M981.3673,-112.2455C991.9554,-103.8943 1007.4064,-91.7076 1019.7893,-81.9408"/>
<polygon fill="#191970" stroke="#191970" points="1022.0903,-84.5837 1027.7745,-75.6427 1017.7553,-79.0875 1022.0903,-84.5837"/>
</g>
<!-- Node32&#45;&gt;Node22 -->
<g id="edge47" class="edge">
<title>Node32&#45;&gt;Node22</title>
<path fill="none" stroke="#191970" d="M948.7151,-112.3733C929.8579,-103.4241 901.554,-89.9917 880.2545,-79.8835"/>
<polygon fill="#191970" stroke="#191970" points="881.5551,-76.6266 871.0202,-75.5011 878.5539,-82.9506 881.5551,-76.6266"/>
</g>
<!-- Node33 -->
<g id="node34" class="node">
<title>Node33</title>
<polygon fill="none" stroke="#bfbfbf" points="934,-56.5 934,-75.5 994,-75.5 994,-56.5 934,-56.5"/>
<text text-anchor="middle" x="964" y="-63.5" font-family="FreeSans.ttf" font-size="10.00" fill="#000000">iostream</text>
</g>
<!-- Node32&#45;&gt;Node33 -->
<g id="edge49" class="edge">
<title>Node32&#45;&gt;Node33</title>
<path fill="none" stroke="#191970" d="M968.1291,-112.2455C967.4766,-104.9382 966.562,-94.6944 965.7593,-85.7046"/>
<polygon fill="#191970" stroke="#191970" points="969.2365,-85.2918 964.861,-75.6427 962.2642,-85.9143 969.2365,-85.2918"/>
</g>
<!-- Node35&#45;&gt;Node5 -->
<g id="edge60" class="edge">
<title>Node35&#45;&gt;Node5</title>
<path fill="none" stroke="#191970" d="M368.6369,-280.3316C375.9614,-253.5375 397.2513,-176.079 416,-112 418.5427,-103.3096 421.4441,-93.7253 423.9437,-85.5648"/>
<polygon fill="#191970" stroke="#191970" points="427.3365,-86.4393 426.9342,-75.8521 420.6464,-84.3794 427.3365,-86.4393"/>
</g>
</g>
</svg>
