<?xml version="1.0" encoding="UTF-8" standalone="no"?>
<!DOCTYPE svg PUBLIC "-//W3C//DTD SVG 1.1//EN"
 "http://www.w3.org/Graphics/SVG/1.1/DTD/svg11.dtd">
<!-- Generated by graphviz version 2.40.1 (20161225.0304)
 -->
<!-- Title: MatrixFixSize.h Pages: 1 -->
<svg width="489pt" height="140pt"
 viewBox="0.00 0.00 488.50 140.00" xmlns="http://www.w3.org/2000/svg" xmlns:xlink="http://www.w3.org/1999/xlink">
<g id="graph0" class="graph" transform="scale(1 1) rotate(0) translate(4 136)">
<title>MatrixFixSize.h</title>
<!-- Node0 -->
<g id="node1" class="node">
<title>Node0</title>
<polygon fill="#bfbfbf" stroke="#000000" points="228.5,-112.5 228.5,-131.5 318.5,-131.5 318.5,-112.5 228.5,-112.5"/>
<text text-anchor="middle" x="273.5" y="-119.5" font-family="FreeSans.ttf" font-size="10.00" fill="#000000">MatrixFixSize.h</text>
</g>
<!-- Node1 -->
<g id="node2" class="node">
<title>Node1</title>
<g id="a_node2"><a xlink:href="Utils_8h.html" target="_top" xlink:title="iDynTree/Core/Utils.h">
<polygon fill="none" stroke="#000000" points="9,-56.5 9,-75.5 128,-75.5 128,-56.5 9,-56.5"/>
<text text-anchor="middle" x="68.5" y="-63.5" font-family="FreeSans.ttf" font-size="10.00" fill="#000000">iDynTree/Core/Utils.h</text>
</a>
</g>
</g>
<!-- Node0&#45;&gt;Node1 -->
<g id="edge1" class="edge">
<title>Node0&#45;&gt;Node1</title>
<path fill="none" stroke="#191970" d="M238.2592,-112.3733C203.5806,-102.9001 150.5117,-88.4032 112.9538,-78.1435"/>
<polygon fill="#191970" stroke="#191970" points="113.8498,-74.7601 103.2809,-75.5011 112.0051,-81.5126 113.8498,-74.7601"/>
</g>
<!-- Node4 -->
<g id="node5" class="node">
<title>Node4</title>
<polygon fill="none" stroke="#bfbfbf" points="146.5,-56.5 146.5,-75.5 198.5,-75.5 198.5,-56.5 146.5,-56.5"/>
<text text-anchor="middle" x="172.5" y="-63.5" font-family="FreeSans.ttf" font-size="10.00" fill="#000000">cassert</text>
</g>
<!-- Node0&#45;&gt;Node4 -->
<g id="edge4" class="edge">
<title>Node0&#45;&gt;Node4</title>
<path fill="none" stroke="#191970" d="M255.9071,-112.2455C240.121,-103.4928 216.7361,-90.527 198.7413,-80.5496"/>
<polygon fill="#191970" stroke="#191970" points="200.3341,-77.4308 189.8913,-75.6427 196.9397,-83.5528 200.3341,-77.4308"/>
</g>
<!-- Node5 -->
<g id="node6" class="node">
<title>Node5</title>
<polygon fill="none" stroke="#bfbfbf" points="216.5,-56.5 216.5,-75.5 266.5,-75.5 266.5,-56.5 216.5,-56.5"/>
<text text-anchor="middle" x="241.5" y="-63.5" font-family="FreeSans.ttf" font-size="10.00" fill="#000000">cstring</text>
</g>
<!-- Node0&#45;&gt;Node5 -->
<g id="edge5" class="edge">
<title>Node0&#45;&gt;Node5</title>
<path fill="none" stroke="#191970" d="M267.926,-112.2455C263.5669,-104.617 257.3789,-93.7881 252.0867,-84.5267"/>
<polygon fill="#191970" stroke="#191970" points="255.0104,-82.5886 247.0101,-75.6427 248.9327,-86.0616 255.0104,-82.5886"/>
</g>
<!-- Node6 -->
<g id="node7" class="node">
<title>Node6</title>
<polygon fill="none" stroke="#bfbfbf" points="284.5,-56.5 284.5,-75.5 328.5,-75.5 328.5,-56.5 284.5,-56.5"/>
<text text-anchor="middle" x="306.5" y="-63.5" font-family="FreeSans.ttf" font-size="10.00" fill="#000000">string</text>
</g>
<!-- Node0&#45;&gt;Node6 -->
<g id="edge6" class="edge">
<title>Node0&#45;&gt;Node6</title>
<path fill="none" stroke="#191970" d="M279.2482,-112.2455C283.7435,-104.617 290.1248,-93.7881 295.5825,-84.5267"/>
<polygon fill="#191970" stroke="#191970" points="298.7561,-86.035 300.8177,-75.6427 292.7253,-82.4811 298.7561,-86.035"/>
</g>
<!-- Node7 -->
<g id="node8" class="node">
<title>Node7</title>
<polygon fill="none" stroke="#bfbfbf" points="346.5,-56.5 346.5,-75.5 406.5,-75.5 406.5,-56.5 346.5,-56.5"/>
<text text-anchor="middle" x="376.5" y="-63.5" font-family="FreeSans.ttf" font-size="10.00" fill="#000000">iostream</text>
</g>
<!-- Node0&#45;&gt;Node7 -->
<g id="edge7" class="edge">
<title>Node0&#45;&gt;Node7</title>
<path fill="none" stroke="#191970" d="M291.4412,-112.2455C307.54,-103.4928 331.3879,-90.527 349.7391,-80.5496"/>
<polygon fill="#191970" stroke="#191970" points="351.6507,-83.4942 358.7644,-75.6427 348.3071,-77.3444 351.6507,-83.4942"/>
</g>
<!-- Node8 -->
<g id="node9" class="node">
<title>Node8</title>
<polygon fill="none" stroke="#bfbfbf" points="424.5,-56.5 424.5,-75.5 480.5,-75.5 480.5,-56.5 424.5,-56.5"/>
<text text-anchor="middle" x="452.5" y="-63.5" font-family="FreeSans.ttf" font-size="10.00" fill="#000000">sstream</text>
</g>
<!-- Node0&#45;&gt;Node8 -->
<g id="edge8" class="edge">
<title>Node0&#45;&gt;Node8</title>
<path fill="none" stroke="#191970" d="M304.2712,-112.3733C334.8897,-102.7943 381.9267,-88.0788 414.7778,-77.8014"/>
<polygon fill="#191970" stroke="#191970" points="415.9848,-81.0911 424.4836,-74.7649 413.8947,-74.4104 415.9848,-81.0911"/>
</g>
<!-- Node2 -->
<g id="node3" class="node">
<title>Node2</title>
<polygon fill="none" stroke="#bfbfbf" points="0,-.5 0,-19.5 53,-19.5 53,-.5 0,-.5"/>
<text text-anchor="middle" x="26.5" y="-7.5" font-family="FreeSans.ttf" font-size="10.00" fill="#000000">cstddef</text>
</g>
<!-- Node1&#45;&gt;Node2 -->
<g id="edge2" class="edge">
<title>Node1&#45;&gt;Node2</title>
<path fill="none" stroke="#191970" d="M61.1842,-56.2455C55.2821,-48.3761 46.8258,-37.101 39.7406,-27.6542"/>
<polygon fill="#191970" stroke="#191970" points="42.5321,-25.5427 33.732,-19.6427 36.932,-29.7427 42.5321,-25.5427"/>
</g>
<!-- Node3 -->
<g id="node4" class="node">
<title>Node3</title>
<polygon fill="none" stroke="#bfbfbf" points="71.5,-.5 71.5,-19.5 151.5,-19.5 151.5,-.5 71.5,-.5"/>
<text text-anchor="middle" x="111.5" y="-7.5" font-family="FreeSans.ttf" font-size="10.00" fill="#000000">CoreExport.h</text>
</g>
<!-- Node1&#45;&gt;Node3 -->
<g id="edge3" class="edge">
<title>Node1&#45;&gt;Node3</title>
<path fill="none" stroke="#191970" d="M75.99,-56.2455C82.0326,-48.3761 90.6903,-37.101 97.9441,-27.6542"/>
<polygon fill="#191970" stroke="#191970" points="100.7815,-29.7058 104.0958,-19.6427 95.2295,-25.4426 100.7815,-29.7058"/>
</g>
</g>
</svg>
