<?xml version="1.0" encoding="UTF-8" standalone="no"?>
<!DOCTYPE svg PUBLIC "-//W3C//DTD SVG 1.1//EN"
 "http://www.w3.org/Graphics/SVG/1.1/DTD/svg11.dtd">
<!-- Generated by graphviz version 2.40.1 (20161225.0304)
 -->
<!-- Title: ModelTransformers.cpp Pages: 1 -->
<svg width="2081pt" height="755pt"
 viewBox="0.00 0.00 2081.01 755.00" xmlns="http://www.w3.org/2000/svg" xmlns:xlink="http://www.w3.org/1999/xlink">
<g id="graph0" class="graph" transform="scale(1 1) rotate(0) translate(4 751)">
<title>ModelTransformers.cpp</title>
<!-- Node0 -->
<g id="node1" class="node">
<title>Node0</title>
<polygon fill="#bfbfbf" stroke="#000000" points="1215.9097,-727.5 1215.9097,-746.5 1345.9097,-746.5 1345.9097,-727.5 1215.9097,-727.5"/>
<text text-anchor="middle" x="1280.9097" y="-734.5" font-family="FreeSans.ttf" font-size="10.00" fill="#000000">ModelTransformers.cpp</text>
</g>
<!-- Node1 -->
<g id="node2" class="node">
<title>Node1</title>
<g id="a_node2"><a xlink:href="Model_8h.html" target="_top" xlink:title="iDynTree/Model/Model.h">
<polygon fill="none" stroke="#000000" points="1642.4097,-666 1642.4097,-685 1775.4097,-685 1775.4097,-666 1642.4097,-666"/>
<text text-anchor="middle" x="1708.9097" y="-673" font-family="FreeSans.ttf" font-size="10.00" fill="#000000">iDynTree/Model/Model.h</text>
</a>
</g>
</g>
<!-- Node0&#45;&gt;Node1 -->
<g id="edge1" class="edge">
<title>Node0&#45;&gt;Node1</title>
<path fill="none" stroke="#191970" d="M1345.9137,-727.6595C1422.8347,-716.6066 1550.7419,-698.2274 1632.3757,-686.4973"/>
<polygon fill="#191970" stroke="#191970" points="1633.1881,-689.9166 1642.5886,-685.0298 1632.1924,-682.9878 1633.1881,-689.9166"/>
</g>
<!-- Node14 -->
<g id="node14" class="node">
<title>Node14</title>
<polygon fill="none" stroke="#bfbfbf" points="498.9097,-.5 498.9097,-19.5 550.9097,-19.5 550.9097,-.5 498.9097,-.5"/>
<text text-anchor="middle" x="524.9097" y="-7.5" font-family="FreeSans.ttf" font-size="10.00" fill="#000000">cassert</text>
</g>
<!-- Node0&#45;&gt;Node14 -->
<g id="edge128" class="edge">
<title>Node0&#45;&gt;Node14</title>
<path fill="none" stroke="#191970" d="M1215.6746,-733.9108C954.8355,-721.1356 .9097,-670.1975 .9097,-608.5 .9097,-608.5 .9097,-608.5 .9097,-418.5 .9097,-360.6671 -6.9633,-337.8749 26.9097,-291 146.7026,-125.2257 396.2282,-44.2782 489.0824,-18.992"/>
<polygon fill="#191970" stroke="#191970" points="490.0923,-22.345 498.8493,-16.3813 488.2847,-15.5824 490.0923,-22.345"/>
</g>
<!-- Node43 -->
<g id="node37" class="node">
<title>Node43</title>
<g id="a_node37"><a xlink:href="SubModel_8h.html" target="_top" xlink:title="iDynTree/Model/SubModel.h">
<polygon fill="none" stroke="#000000" points="1043.4097,-537.5 1043.4097,-556.5 1194.4097,-556.5 1194.4097,-537.5 1043.4097,-537.5"/>
<text text-anchor="middle" x="1118.9097" y="-544.5" font-family="FreeSans.ttf" font-size="10.00" fill="#000000">iDynTree/Model/SubModel.h</text>
</a>
</g>
</g>
<!-- Node0&#45;&gt;Node43 -->
<g id="edge73" class="edge">
<title>Node0&#45;&gt;Node43</title>
<path fill="none" stroke="#191970" d="M1215.7995,-729.0747C1153.3484,-717.6315 1062.3284,-690.0112 1018.9097,-624 1011.3384,-612.489 1011.4768,-604.6008 1018.9097,-593 1028.9567,-577.3194 1045.8458,-566.9113 1062.9119,-560.0336"/>
<polygon fill="#191970" stroke="#191970" points="1064.1857,-563.2945 1072.3689,-556.5649 1061.7752,-556.7226 1064.1857,-563.2945"/>
</g>
<!-- Node44 -->
<g id="node38" class="node">
<title>Node44</title>
<g id="a_node38"><a xlink:href="Traversal_8h.html" target="_top" xlink:title="iDynTree/Model/Traversal.h">
<polygon fill="none" stroke="#000000" points="876.9097,-537.5 876.9097,-556.5 1024.9097,-556.5 1024.9097,-537.5 876.9097,-537.5"/>
<text text-anchor="middle" x="950.9097" y="-544.5" font-family="FreeSans.ttf" font-size="10.00" fill="#000000">iDynTree/Model/Traversal.h</text>
</a>
</g>
</g>
<!-- Node0&#45;&gt;Node44 -->
<g id="edge78" class="edge">
<title>Node0&#45;&gt;Node44</title>
<path fill="none" stroke="#191970" d="M1215.7011,-729.7553C1156.655,-722.1976 1074.9115,-708.9411 1047.9097,-691 1000.9926,-659.8263 970.8841,-597.4315 958.0451,-566.0088"/>
<polygon fill="#191970" stroke="#191970" points="961.2729,-564.653 954.3537,-556.6295 954.7592,-567.2166 961.2729,-564.653"/>
</g>
<!-- Node45 -->
<g id="node39" class="node">
<title>Node45</title>
<g id="a_node39"><a xlink:href="FreeFloatingState_8h.html" target="_top" xlink:title="iDynTree/Model/FreeFloating\lState.h">
<polygon fill="none" stroke="#000000" points="682.9097,-593.5 682.9097,-623.5 836.9097,-623.5 836.9097,-593.5 682.9097,-593.5"/>
<text text-anchor="start" x="690.9097" y="-611.5" font-family="FreeSans.ttf" font-size="10.00" fill="#000000">iDynTree/Model/FreeFloating</text>
<text text-anchor="middle" x="759.9097" y="-600.5" font-family="FreeSans.ttf" font-size="10.00" fill="#000000">State.h</text>
</a>
</g>
</g>
<!-- Node0&#45;&gt;Node45 -->
<g id="edge81" class="edge">
<title>Node0&#45;&gt;Node45</title>
<path fill="none" stroke="#191970" d="M1215.6282,-733.9237C1146.1089,-729.3311 1033.4379,-718.0895 939.9097,-691 887.3214,-675.7683 830.4973,-647.5569 795.0626,-628.4117"/>
<polygon fill="#191970" stroke="#191970" points="796.5477,-625.2347 786.0938,-623.512 793.1917,-631.3778 796.5477,-625.2347"/>
</g>
<!-- Node50 -->
<g id="node44" class="node">
<title>Node50</title>
<g id="a_node44"><a xlink:href="FixedJoint_8h.html" target="_top" xlink:title="iDynTree/Model/FixedJoint.h">
<polygon fill="none" stroke="#000000" points="1317.4097,-599 1317.4097,-618 1468.4097,-618 1468.4097,-599 1317.4097,-599"/>
<text text-anchor="middle" x="1392.9097" y="-606" font-family="FreeSans.ttf" font-size="10.00" fill="#000000">iDynTree/Model/FixedJoint.h</text>
</a>
</g>
</g>
<!-- Node0&#45;&gt;Node50 -->
<g id="edge104" class="edge">
<title>Node0&#45;&gt;Node50</title>
<path fill="none" stroke="#191970" d="M1317.148,-727.4015C1336.7244,-720.4078 1359.7234,-708.9465 1373.9097,-691 1388.1755,-672.953 1392.0995,-646.1353 1392.995,-628.0174"/>
<polygon fill="#191970" stroke="#191970" points="1396.494,-628.0952 1393.2265,-618.0168 1389.4959,-627.9331 1396.494,-628.0952"/>
</g>
<!-- Node51 -->
<g id="node45" class="node">
<title>Node51</title>
<g id="a_node45"><a xlink:href="RevoluteJoint_8h.html" target="_top" xlink:title="iDynTree/Model/RevoluteJoint.h">
<polygon fill="none" stroke="#000000" points="1196.9097,-666 1196.9097,-685 1364.9097,-685 1364.9097,-666 1196.9097,-666"/>
<text text-anchor="middle" x="1280.9097" y="-673" font-family="FreeSans.ttf" font-size="10.00" fill="#000000">iDynTree/Model/RevoluteJoint.h</text>
</a>
</g>
</g>
<!-- Node0&#45;&gt;Node51 -->
<g id="edge108" class="edge">
<title>Node0&#45;&gt;Node51</title>
<path fill="none" stroke="#191970" d="M1280.9097,-727.3906C1280.9097,-718.8657 1280.9097,-706.1392 1280.9097,-695.4235"/>
<polygon fill="#191970" stroke="#191970" points="1284.4098,-695.2448 1280.9097,-685.2449 1277.4098,-695.2449 1284.4098,-695.2448"/>
</g>
<!-- Node55 -->
<g id="node49" class="node">
<title>Node55</title>
<g id="a_node49"><a xlink:href="PrismaticJoint_8h.html" target="_top" xlink:title="iDynTree/Model/Prismatic\lJoint.h">
<polygon fill="none" stroke="#000000" points="1830.9097,-660.5 1830.9097,-690.5 1970.9097,-690.5 1970.9097,-660.5 1830.9097,-660.5"/>
<text text-anchor="start" x="1838.9097" y="-678.5" font-family="FreeSans.ttf" font-size="10.00" fill="#000000">iDynTree/Model/Prismatic</text>
<text text-anchor="middle" x="1900.9097" y="-667.5" font-family="FreeSans.ttf" font-size="10.00" fill="#000000">Joint.h</text>
</a>
</g>
</g>
<!-- Node0&#45;&gt;Node55 -->
<g id="edge122" class="edge">
<title>Node0&#45;&gt;Node55</title>
<path fill="none" stroke="#191970" d="M1346.1076,-731.8865C1442.0961,-724.1656 1627.0457,-708.556 1783.9097,-691 1795.7615,-689.6736 1808.272,-688.1491 1820.529,-686.5851"/>
<polygon fill="#191970" stroke="#191970" points="1821.276,-690.0178 1830.7452,-685.2656 1820.3793,-683.0755 1821.276,-690.0178"/>
</g>
<!-- Node56 -->
<g id="node50" class="node">
<title>Node56</title>
<polygon fill="none" stroke="#bfbfbf" points="1988.9097,-666 1988.9097,-685 2020.9097,-685 2020.9097,-666 1988.9097,-666"/>
<text text-anchor="middle" x="2004.9097" y="-673" font-family="FreeSans.ttf" font-size="10.00" fill="#000000">set</text>
</g>
<!-- Node0&#45;&gt;Node56 -->
<g id="edge129" class="edge">
<title>Node0&#45;&gt;Node56</title>
<path fill="none" stroke="#191970" d="M1346.0157,-734.5168C1508.028,-728.0817 1920.5589,-710.0349 1979.9097,-691 1980.9552,-690.6647 1982.0015,-690.2764 1983.0409,-689.8463"/>
<polygon fill="#191970" stroke="#191970" points="1984.7728,-692.8903 1992.0107,-685.1532 1981.5277,-686.688 1984.7728,-692.8903"/>
</g>
<!-- Node2 -->
<g id="node3" class="node">
<title>Node2</title>
<g id="a_node3"><a xlink:href="IJoint_8h.html" target="_top" xlink:title="iDynTree/Model/IJoint.h">
<polygon fill="none" stroke="#000000" points="1516.9097,-537.5 1516.9097,-556.5 1644.9097,-556.5 1644.9097,-537.5 1516.9097,-537.5"/>
<text text-anchor="middle" x="1580.9097" y="-544.5" font-family="FreeSans.ttf" font-size="10.00" fill="#000000">iDynTree/Model/IJoint.h</text>
</a>
</g>
</g>
<!-- Node1&#45;&gt;Node2 -->
<g id="edge2" class="edge">
<title>Node1&#45;&gt;Node2</title>
<path fill="none" stroke="#191970" d="M1704.2351,-665.9107C1695.8838,-649.4924 1677.0857,-615.5875 1653.9097,-593 1640.9736,-580.3923 1624.0272,-569.4557 1609.7188,-561.4132"/>
<polygon fill="#191970" stroke="#191970" points="1611.2248,-558.2484 1600.7658,-556.5576 1607.8876,-564.4017 1611.2248,-558.2484"/>
</g>
<!-- Node3 -->
<g id="node4" class="node">
<title>Node3</title>
<g id="a_node4"><a xlink:href="Indices_8h.html" target="_top" xlink:title="iDynTree/Model/Indices.h">
<polygon fill="none" stroke="#000000" points="1269.9097,-476 1269.9097,-495 1407.9097,-495 1407.9097,-476 1269.9097,-476"/>
<text text-anchor="middle" x="1338.9097" y="-483" font-family="FreeSans.ttf" font-size="10.00" fill="#000000">iDynTree/Model/Indices.h</text>
</a>
</g>
</g>
<!-- Node1&#45;&gt;Node3 -->
<g id="edge65" class="edge">
<title>Node1&#45;&gt;Node3</title>
<path fill="none" stroke="#191970" d="M1708.351,-665.7437C1706.292,-639.8274 1696.8079,-569.0596 1653.9097,-537 1617.6215,-509.8803 1499.1879,-496.3945 1418.3445,-490.1898"/>
<polygon fill="#191970" stroke="#191970" points="1418.4196,-486.6858 1408.1872,-489.4332 1417.8995,-493.6665 1418.4196,-486.6858"/>
</g>
<!-- Node6 -->
<g id="node7" class="node">
<title>Node6</title>
<g id="a_node7"><a xlink:href="Link_8h.html" target="_top" xlink:title="iDynTree/Model/Link.h">
<polygon fill="none" stroke="#000000" points="1136.9097,-599 1136.9097,-618 1260.9097,-618 1260.9097,-599 1136.9097,-599"/>
<text text-anchor="middle" x="1198.9097" y="-606" font-family="FreeSans.ttf" font-size="10.00" fill="#000000">iDynTree/Model/Link.h</text>
</a>
</g>
</g>
<!-- Node1&#45;&gt;Node6 -->
<g id="edge6" class="edge">
<title>Node1&#45;&gt;Node6</title>
<path fill="none" stroke="#191970" d="M1642.1778,-667.2099C1562.5651,-657.2548 1425.4594,-639.9055 1307.9097,-624 1296.0714,-622.3982 1283.5166,-620.6546 1271.3007,-618.934"/>
<polygon fill="#191970" stroke="#191970" points="1271.5339,-615.4322 1261.1423,-617.4977 1270.5538,-622.3633 1271.5339,-615.4322"/>
</g>
<!-- Node39 -->
<g id="node33" class="node">
<title>Node39</title>
<g id="a_node33"><a xlink:href="Transform_8h.html" target="_top" xlink:title="iDynTree/Core/Transform.h">
<polygon fill="none" stroke="#000000" points="1675.9097,-476 1675.9097,-495 1821.9097,-495 1821.9097,-476 1675.9097,-476"/>
<text text-anchor="middle" x="1748.9097" y="-483" font-family="FreeSans.ttf" font-size="10.00" fill="#000000">iDynTree/Core/Transform.h</text>
</a>
</g>
</g>
<!-- Node1&#45;&gt;Node39 -->
<g id="edge60" class="edge">
<title>Node1&#45;&gt;Node39</title>
<path fill="none" stroke="#191970" d="M1724.5675,-665.87C1737.5752,-656.8637 1755.1591,-642.1021 1762.9097,-624 1779.957,-584.1849 1766.2758,-532.2411 1756.5344,-504.6615"/>
<polygon fill="#191970" stroke="#191970" points="1759.7228,-503.1947 1752.9445,-495.0518 1753.1654,-505.6444 1759.7228,-503.1947"/>
</g>
<!-- Node40 -->
<g id="node34" class="node">
<title>Node40</title>
<g id="a_node34"><a xlink:href="SolidShapes_8h.html" target="_top" xlink:title="iDynTree/Model/SolidShapes.h">
<polygon fill="none" stroke="#000000" points="1853.4097,-537.5 1853.4097,-556.5 2016.4097,-556.5 2016.4097,-537.5 1853.4097,-537.5"/>
<text text-anchor="middle" x="1934.9097" y="-544.5" font-family="FreeSans.ttf" font-size="10.00" fill="#000000">iDynTree/Model/SolidShapes.h</text>
</a>
</g>
</g>
<!-- Node1&#45;&gt;Node40 -->
<g id="edge66" class="edge">
<title>Node1&#45;&gt;Node40</title>
<path fill="none" stroke="#191970" d="M1726.7368,-665.9544C1745.4113,-655.8545 1775.5046,-639.2936 1800.9097,-624 1822.6672,-610.9022 1827.0278,-605.8887 1848.9097,-593 1867.8134,-581.8655 1889.6122,-570.2182 1906.533,-561.4295"/>
<polygon fill="#191970" stroke="#191970" points="1908.591,-564.3062 1915.8732,-556.6107 1905.3815,-558.0853 1908.591,-564.3062"/>
</g>
<!-- Node41 -->
<g id="node35" class="node">
<title>Node41</title>
<polygon fill="none" stroke="#bfbfbf" points="1991.4097,-476 1991.4097,-495 2040.4097,-495 2040.4097,-476 1991.4097,-476"/>
<text text-anchor="middle" x="2015.9097" y="-483" font-family="FreeSans.ttf" font-size="10.00" fill="#000000">cstdlib</text>
</g>
<!-- Node1&#45;&gt;Node41 -->
<g id="edge71" class="edge">
<title>Node1&#45;&gt;Node41</title>
<path fill="none" stroke="#191970" d="M1751.1833,-665.9662C1829.828,-647.2808 1993.5907,-603.5847 2025.9097,-557 2036.4749,-541.7714 2031.4978,-520.279 2025.4087,-504.8404"/>
<polygon fill="#191970" stroke="#191970" points="2028.4275,-503.0111 2021.1929,-495.2708 2022.0215,-505.8332 2028.4275,-503.0111"/>
</g>
<!-- Node42 -->
<g id="node36" class="node">
<title>Node42</title>
<polygon fill="none" stroke="#bfbfbf" points="1090.4097,-476 1090.4097,-495 1137.4097,-495 1137.4097,-476 1090.4097,-476"/>
<text text-anchor="middle" x="1113.9097" y="-483" font-family="FreeSans.ttf" font-size="10.00" fill="#000000">vector</text>
</g>
<!-- Node1&#45;&gt;Node42 -->
<g id="edge72" class="edge">
<title>Node1&#45;&gt;Node42</title>
<path fill="none" stroke="#191970" d="M1642.2324,-673.14C1533.737,-668.5068 1312.537,-655.7509 1127.9097,-624 1010.3055,-603.7752 941.0069,-651.3218 867.9097,-557 862.4648,-549.974 862.1853,-543.8003 867.9097,-537 898.1192,-501.1129 1030.8186,-513.9338 1075.9097,-501 1078.3667,-500.2952 1080.8813,-499.4836 1083.3892,-498.6089"/>
<polygon fill="#191970" stroke="#191970" points="1084.7763,-501.8263 1092.8918,-495.0153 1082.3002,-495.2789 1084.7763,-501.8263"/>
</g>
<!-- Node2&#45;&gt;Node3 -->
<g id="edge3" class="edge">
<title>Node2&#45;&gt;Node3</title>
<path fill="none" stroke="#191970" d="M1543.3628,-537.4581C1501.0625,-526.7082 1432.2321,-509.2162 1386.2727,-497.5365"/>
<polygon fill="#191970" stroke="#191970" points="1387.0988,-494.1352 1376.5448,-495.0643 1385.3746,-500.9196 1387.0988,-494.1352"/>
</g>
<!-- Node4 -->
<g id="node5" class="node">
<title>Node4</title>
<polygon fill="none" stroke="#bfbfbf" points="1371.9097,-56.5 1371.9097,-75.5 1415.9097,-75.5 1415.9097,-56.5 1371.9097,-56.5"/>
<text text-anchor="middle" x="1393.9097" y="-63.5" font-family="FreeSans.ttf" font-size="10.00" fill="#000000">string</text>
</g>
<!-- Node3&#45;&gt;Node4 -->
<g id="edge4" class="edge">
<title>Node3&#45;&gt;Node4</title>
<path fill="none" stroke="#191970" d="M1404.4652,-475.98C1508.7837,-458.9655 1700.9097,-419.1878 1700.9097,-357 1700.9097,-357 1700.9097,-357 1700.9097,-183.5 1700.9097,-133.1065 1658.4025,-133.6776 1612.9097,-112 1551.0243,-82.5112 1470.4063,-71.8196 1426.2798,-68.0225"/>
<polygon fill="#191970" stroke="#191970" points="1426.3858,-64.52 1416.14,-67.2172 1425.8315,-71.498 1426.3858,-64.52"/>
</g>
<!-- Node5 -->
<g id="node6" class="node">
<title>Node5</title>
<polygon fill="none" stroke="#bfbfbf" points="1234.9097,-409 1234.9097,-428 1320.9097,-428 1320.9097,-409 1234.9097,-409"/>
<text text-anchor="middle" x="1277.9097" y="-416" font-family="FreeSans.ttf" font-size="10.00" fill="#000000">ModelExport.h</text>
</g>
<!-- Node3&#45;&gt;Node5 -->
<g id="edge5" class="edge">
<title>Node3&#45;&gt;Node5</title>
<path fill="none" stroke="#191970" d="M1330.1699,-475.9005C1320.6575,-465.4525 1305.2527,-448.5325 1293.6273,-435.7635"/>
<polygon fill="#191970" stroke="#191970" points="1295.9536,-433.1198 1286.6333,-428.0817 1290.7775,-437.8324 1295.9536,-433.1198"/>
</g>
<!-- Node6&#45;&gt;Node3 -->
<g id="edge59" class="edge">
<title>Node6&#45;&gt;Node3</title>
<path fill="none" stroke="#191970" d="M1238.9709,-598.9269C1263.2683,-591.2541 1293.2713,-578.181 1312.9097,-557 1326.2064,-542.659 1332.8196,-520.9892 1336.0324,-505.2654"/>
<polygon fill="#191970" stroke="#191970" points="1339.5427,-505.5102 1337.8179,-495.0567 1332.6473,-504.3042 1339.5427,-505.5102"/>
</g>
<!-- Node7 -->
<g id="node8" class="node">
<title>Node7</title>
<g id="a_node8"><a xlink:href="SpatialInertia_8h.html" target="_top" xlink:title="iDynTree/Core/SpatialInertia.h">
<polygon fill="none" stroke="#000000" points="453.9097,-537.5 453.9097,-556.5 615.9097,-556.5 615.9097,-537.5 453.9097,-537.5"/>
<text text-anchor="middle" x="534.9097" y="-544.5" font-family="FreeSans.ttf" font-size="10.00" fill="#000000">iDynTree/Core/SpatialInertia.h</text>
</a>
</g>
</g>
<!-- Node6&#45;&gt;Node7 -->
<g id="edge7" class="edge">
<title>Node6&#45;&gt;Node7</title>
<path fill="none" stroke="#191970" d="M1136.8627,-603.3665C1033.3408,-594.7062 818.5749,-576.3335 626.3425,-557.1281"/>
<polygon fill="#191970" stroke="#191970" points="626.6357,-553.64 616.3366,-556.1256 625.9378,-560.6052 626.6357,-553.64"/>
</g>
<!-- Node8 -->
<g id="node9" class="node">
<title>Node8</title>
<g id="a_node9"><a xlink:href="SpatialInertiaRaw_8h.html" target="_top" xlink:title="iDynTree/Core/SpatialInertia\lRaw.h">
<polygon fill="none" stroke="#ff0000" points="563.4097,-470.5 563.4097,-500.5 716.4097,-500.5 716.4097,-470.5 563.4097,-470.5"/>
<text text-anchor="start" x="571.4097" y="-488.5" font-family="FreeSans.ttf" font-size="10.00" fill="#000000">iDynTree/Core/SpatialInertia</text>
<text text-anchor="middle" x="639.9097" y="-477.5" font-family="FreeSans.ttf" font-size="10.00" fill="#000000">Raw.h</text>
</a>
</g>
</g>
<!-- Node7&#45;&gt;Node8 -->
<g id="edge8" class="edge">
<title>Node7&#45;&gt;Node8</title>
<path fill="none" stroke="#191970" d="M551.316,-537.3906C565.7896,-528.9132 587.3569,-516.2809 605.5878,-505.6028"/>
<polygon fill="#191970" stroke="#191970" points="607.3639,-508.6188 614.2238,-500.5446 603.8261,-502.5786 607.3639,-508.6188"/>
</g>
<!-- Node18 -->
<g id="node10" class="node">
<title>Node18</title>
<g id="a_node10"><a xlink:href="VectorFixSize_8h.html" target="_top" xlink:title="iDynTree/Core/VectorFixSize.h">
<polygon fill="none" stroke="#000000" points="609.4097,-112.5 609.4097,-131.5 770.4097,-131.5 770.4097,-112.5 609.4097,-112.5"/>
<text text-anchor="middle" x="689.9097" y="-119.5" font-family="FreeSans.ttf" font-size="10.00" fill="#000000">iDynTree/Core/VectorFixSize.h</text>
</a>
</g>
</g>
<!-- Node7&#45;&gt;Node18 -->
<g id="edge9" class="edge">
<title>Node7&#45;&gt;Node18</title>
<path fill="none" stroke="#191970" d="M534.4573,-537.3172C534.2509,-521.1857 536.248,-488.7357 553.9097,-470 590.9378,-430.7202 632.6427,-473.0531 669.9097,-434 694.3197,-408.4202 689.9097,-392.3578 689.9097,-357 689.9097,-357 689.9097,-357 689.9097,-245 689.9097,-208.4994 689.9097,-165.906 689.9097,-141.6285"/>
<polygon fill="#191970" stroke="#191970" points="693.4098,-141.5691 689.9097,-131.5691 686.4098,-141.5692 693.4098,-141.5691"/>
</g>
<!-- Node27 -->
<g id="node19" class="node">
<title>Node27</title>
<g id="a_node19"><a xlink:href="Twist_8h.html" target="_top" xlink:title="iDynTree/Core/Twist.h">
<polygon fill="none" stroke="#000000" points="384.9097,-476 384.9097,-495 506.9097,-495 506.9097,-476 384.9097,-476"/>
<text text-anchor="middle" x="445.9097" y="-483" font-family="FreeSans.ttf" font-size="10.00" fill="#000000">iDynTree/Core/Twist.h</text>
</a>
</g>
</g>
<!-- Node7&#45;&gt;Node27 -->
<g id="edge21" class="edge">
<title>Node7&#45;&gt;Node27</title>
<path fill="none" stroke="#191970" d="M521.0035,-537.3906C506.8959,-527.6421 484.8373,-512.3994 468.2712,-500.9521"/>
<polygon fill="#191970" stroke="#191970" points="469.935,-497.8474 459.7183,-495.0419 465.9555,-503.6063 469.935,-497.8474"/>
</g>
<!-- Node35 -->
<g id="node29" class="node">
<title>Node35</title>
<g id="a_node29"><a xlink:href="SpatialMomentum_8h.html" target="_top" xlink:title="iDynTree/Core/SpatialMomentum.h">
<polygon fill="none" stroke="#000000" points="180.9097,-476 180.9097,-495 366.9097,-495 366.9097,-476 180.9097,-476"/>
<text text-anchor="middle" x="273.9097" y="-483" font-family="FreeSans.ttf" font-size="10.00" fill="#000000">iDynTree/Core/SpatialMomentum.h</text>
</a>
</g>
</g>
<!-- Node7&#45;&gt;Node35 -->
<g id="edge50" class="edge">
<title>Node7&#45;&gt;Node35</title>
<path fill="none" stroke="#191970" d="M494.4149,-537.4581C448.6022,-526.6632 373.936,-509.0694 324.3691,-497.3899"/>
<polygon fill="#191970" stroke="#191970" points="325.0358,-493.9512 314.4996,-495.0643 323.4303,-500.7646 325.0358,-493.9512"/>
</g>
<!-- Node37 -->
<g id="node31" class="node">
<title>Node37</title>
<g id="a_node31"><a xlink:href="SpatialAcc_8h.html" target="_top" xlink:title="iDynTree/Core/SpatialAcc.h">
<polygon fill="none" stroke="#000000" points="885.9097,-476 885.9097,-495 1033.9097,-495 1033.9097,-476 885.9097,-476"/>
<text text-anchor="middle" x="959.9097" y="-483" font-family="FreeSans.ttf" font-size="10.00" fill="#000000">iDynTree/Core/SpatialAcc.h</text>
</a>
</g>
</g>
<!-- Node7&#45;&gt;Node37 -->
<g id="edge55" class="edge">
<title>Node7&#45;&gt;Node37</title>
<path fill="none" stroke="#191970" d="M613.6233,-537.4791C682.8402,-528.8453 786.2436,-515.312 875.9097,-501 883.8222,-499.7371 892.1365,-498.3168 900.3306,-496.8618"/>
<polygon fill="#191970" stroke="#191970" points="901.0099,-500.2958 910.2308,-495.0781 899.7687,-493.4068 901.0099,-500.2958"/>
</g>
<!-- Node38 -->
<g id="node32" class="node">
<title>Node38</title>
<g id="a_node32"><a xlink:href="Wrench_8h.html" target="_top" xlink:title="iDynTree/Core/Wrench.h">
<polygon fill="none" stroke="#000000" points="734.4097,-476 734.4097,-495 867.4097,-495 867.4097,-476 734.4097,-476"/>
<text text-anchor="middle" x="800.9097" y="-483" font-family="FreeSans.ttf" font-size="10.00" fill="#000000">iDynTree/Core/Wrench.h</text>
</a>
</g>
</g>
<!-- Node7&#45;&gt;Node38 -->
<g id="edge57" class="edge">
<title>Node7&#45;&gt;Node38</title>
<path fill="none" stroke="#191970" d="M576.1804,-537.4581C622.8706,-526.6632 698.9672,-509.0694 749.4837,-497.3899"/>
<polygon fill="#191970" stroke="#191970" points="750.5877,-500.727 759.5423,-495.0643 749.0108,-493.9069 750.5877,-500.727"/>
</g>
<!-- Node18&#45;&gt;Node4 -->
<g id="edge17" class="edge">
<title>Node18&#45;&gt;Node4</title>
<path fill="none" stroke="#191970" d="M770.6675,-115.5761C925.1963,-103.284 1256.686,-76.9155 1361.466,-68.5808"/>
<polygon fill="#191970" stroke="#191970" points="1362.0296,-72.0471 1371.7206,-67.765 1361.4745,-65.0691 1362.0296,-72.0471"/>
</g>
<!-- Node11 -->
<g id="node11" class="node">
<title>Node11</title>
<g id="a_node11"><a xlink:href="Utils_8h.html" target="_top" xlink:title="iDynTree/Core/Utils.h">
<polygon fill="none" stroke="#ff0000" points="446.4097,-56.5 446.4097,-75.5 565.4097,-75.5 565.4097,-56.5 446.4097,-56.5"/>
<text text-anchor="middle" x="505.9097" y="-63.5" font-family="FreeSans.ttf" font-size="10.00" fill="#000000">iDynTree/Core/Utils.h</text>
</a>
</g>
</g>
<!-- Node18&#45;&gt;Node11 -->
<g id="edge10" class="edge">
<title>Node18&#45;&gt;Node11</title>
<path fill="none" stroke="#191970" d="M658.279,-112.3733C627.5501,-103.021 580.7337,-88.7725 547.1075,-78.5385"/>
<polygon fill="#191970" stroke="#191970" points="547.7135,-75.0644 537.1277,-75.5011 545.6754,-81.7612 547.7135,-75.0644"/>
</g>
<!-- Node19 -->
<g id="node13" class="node">
<title>Node19</title>
<g id="a_node13"><a xlink:href="Span_8h.html" target="_top" xlink:title="iDynTree/Core/Span.h">
<polygon fill="none" stroke="#ff0000" points="84.4097,-56.5 84.4097,-75.5 205.4097,-75.5 205.4097,-56.5 84.4097,-56.5"/>
<text text-anchor="middle" x="144.9097" y="-63.5" font-family="FreeSans.ttf" font-size="10.00" fill="#000000">iDynTree/Core/Span.h</text>
</a>
</g>
</g>
<!-- Node18&#45;&gt;Node19 -->
<g id="edge12" class="edge">
<title>Node18&#45;&gt;Node19</title>
<path fill="none" stroke="#191970" d="M609.1999,-113.7069C502.7756,-102.7715 317.1889,-83.7021 215.8745,-73.2918"/>
<polygon fill="#191970" stroke="#191970" points="216.0463,-69.7911 205.7408,-72.2505 215.3307,-76.7544 216.0463,-69.7911"/>
</g>
<!-- Node18&#45;&gt;Node14 -->
<g id="edge19" class="edge">
<title>Node18&#45;&gt;Node14</title>
<path fill="none" stroke="#191970" d="M702.1827,-112.4428C717.9083,-99.0461 741.4928,-74.2773 726.9097,-56 706.6054,-30.5521 614.0071,-18.0925 561.5122,-12.9772"/>
<polygon fill="#191970" stroke="#191970" points="561.552,-9.4659 551.2703,-12.0227 560.9024,-16.4357 561.552,-9.4659"/>
</g>
<!-- Node17 -->
<g id="node17" class="node">
<title>Node17</title>
<polygon fill="none" stroke="#bfbfbf" points="661.9097,-56.5 661.9097,-75.5 717.9097,-75.5 717.9097,-56.5 661.9097,-56.5"/>
<text text-anchor="middle" x="689.9097" y="-63.5" font-family="FreeSans.ttf" font-size="10.00" fill="#000000">sstream</text>
</g>
<!-- Node18&#45;&gt;Node17 -->
<g id="edge18" class="edge">
<title>Node18&#45;&gt;Node17</title>
<path fill="none" stroke="#191970" d="M689.9097,-112.2455C689.9097,-104.9382 689.9097,-94.6944 689.9097,-85.7046"/>
<polygon fill="#191970" stroke="#191970" points="693.4098,-85.6426 689.9097,-75.6427 686.4098,-85.6427 693.4098,-85.6426"/>
</g>
<!-- Node15 -->
<g id="node18" class="node">
<title>Node15</title>
<polygon fill="none" stroke="#bfbfbf" points="787.9097,-56.5 787.9097,-75.5 837.9097,-75.5 837.9097,-56.5 787.9097,-56.5"/>
<text text-anchor="middle" x="812.9097" y="-63.5" font-family="FreeSans.ttf" font-size="10.00" fill="#000000">cstring</text>
</g>
<!-- Node18&#45;&gt;Node15 -->
<g id="edge20" class="edge">
<title>Node18&#45;&gt;Node15</title>
<path fill="none" stroke="#191970" d="M711.0542,-112.3733C730.7989,-103.3838 760.4796,-89.8706 782.7152,-79.7471"/>
<polygon fill="#191970" stroke="#191970" points="784.3903,-82.8302 792.0412,-75.5011 781.4898,-76.4594 784.3903,-82.8302"/>
</g>
<!-- Node12 -->
<g id="node12" class="node">
<title>Node12</title>
<polygon fill="none" stroke="#bfbfbf" points="207.4097,-.5 207.4097,-19.5 260.4097,-19.5 260.4097,-.5 207.4097,-.5"/>
<text text-anchor="middle" x="233.9097" y="-7.5" font-family="FreeSans.ttf" font-size="10.00" fill="#000000">cstddef</text>
</g>
<!-- Node11&#45;&gt;Node12 -->
<g id="edge11" class="edge">
<title>Node11&#45;&gt;Node12</title>
<path fill="none" stroke="#191970" d="M459.4603,-56.4369C406.0562,-45.4419 319.4888,-27.6192 270.5898,-17.5518"/>
<polygon fill="#191970" stroke="#191970" points="271.253,-14.115 260.7526,-15.5265 269.8413,-20.9712 271.253,-14.115"/>
</g>
<!-- Node19&#45;&gt;Node12 -->
<g id="edge16" class="edge">
<title>Node19&#45;&gt;Node12</title>
<path fill="none" stroke="#191970" d="M160.4123,-56.2455C174.0677,-47.6534 194.1754,-35.0014 209.9086,-25.1018"/>
<polygon fill="#191970" stroke="#191970" points="211.9848,-27.9307 218.5848,-19.6427 208.2569,-22.006 211.9848,-27.9307"/>
</g>
<!-- Node19&#45;&gt;Node14 -->
<g id="edge13" class="edge">
<title>Node19&#45;&gt;Node14</title>
<path fill="none" stroke="#191970" d="M205.542,-57.0647C285.3349,-45.3058 423.0991,-25.0037 488.4634,-15.371"/>
<polygon fill="#191970" stroke="#191970" points="489.3014,-18.7854 498.6842,-13.8648 488.2808,-11.8602 489.3014,-18.7854"/>
</g>
<!-- Node20 -->
<g id="node15" class="node">
<title>Node20</title>
<polygon fill="none" stroke="#bfbfbf" points="53.9097,-.5 53.9097,-19.5 117.9097,-19.5 117.9097,-.5 53.9097,-.5"/>
<text text-anchor="middle" x="85.9097" y="-7.5" font-family="FreeSans.ttf" font-size="10.00" fill="#000000">algorithm</text>
</g>
<!-- Node19&#45;&gt;Node20 -->
<g id="edge14" class="edge">
<title>Node19&#45;&gt;Node20</title>
<path fill="none" stroke="#191970" d="M134.6327,-56.2455C126.0879,-48.1352 113.7319,-36.4075 103.6012,-26.7919"/>
<polygon fill="#191970" stroke="#191970" points="105.7316,-23.9884 96.069,-19.6427 100.9126,-29.0655 105.7316,-23.9884"/>
</g>
<!-- Node21 -->
<g id="node16" class="node">
<title>Node21</title>
<polygon fill="none" stroke="#bfbfbf" points="135.9097,-.5 135.9097,-19.5 177.9097,-19.5 177.9097,-.5 135.9097,-.5"/>
<text text-anchor="middle" x="156.9097" y="-7.5" font-family="FreeSans.ttf" font-size="10.00" fill="#000000">array</text>
</g>
<!-- Node19&#45;&gt;Node21 -->
<g id="edge15" class="edge">
<title>Node19&#45;&gt;Node21</title>
<path fill="none" stroke="#191970" d="M147,-56.2455C148.5658,-48.9382 150.7609,-38.6944 152.6873,-29.7046"/>
<polygon fill="#191970" stroke="#191970" points="156.1704,-30.1541 154.8434,-19.6427 149.3258,-28.6873 156.1704,-30.1541"/>
</g>
<!-- Node28 -->
<g id="node20" class="node">
<title>Node28</title>
<g id="a_node20"><a xlink:href="SpatialMotionVector_8h.html" target="_top" xlink:title="iDynTree/Core/SpatialMotion\lVector.h">
<polygon fill="none" stroke="#000000" points="506.4097,-403.5 506.4097,-433.5 661.4097,-433.5 661.4097,-403.5 506.4097,-403.5"/>
<text text-anchor="start" x="514.4097" y="-421.5" font-family="FreeSans.ttf" font-size="10.00" fill="#000000">iDynTree/Core/SpatialMotion</text>
<text text-anchor="middle" x="583.9097" y="-410.5" font-family="FreeSans.ttf" font-size="10.00" fill="#000000">Vector.h</text>
</a>
</g>
</g>
<!-- Node27&#45;&gt;Node28 -->
<g id="edge22" class="edge">
<title>Node27&#45;&gt;Node28</title>
<path fill="none" stroke="#191970" d="M465.6818,-475.9005C485.9929,-466.0393 518.1789,-450.4128 543.8432,-437.9526"/>
<polygon fill="#191970" stroke="#191970" points="545.5022,-441.0379 552.9694,-433.5218 542.4449,-434.7408 545.5022,-441.0379"/>
</g>
<!-- Node28&#45;&gt;Node18 -->
<g id="edge23" class="edge">
<title>Node28&#45;&gt;Node18</title>
<path fill="none" stroke="#191970" d="M599.6812,-403.4006C619.7691,-382.4631 651.9097,-342.4816 651.9097,-301 651.9097,-301 651.9097,-301 651.9097,-245 651.9097,-206.6461 668.9849,-164.4423 680.2432,-140.7843"/>
<polygon fill="#191970" stroke="#191970" points="683.502,-142.0892 684.7849,-131.5723 677.2236,-138.9938 683.502,-142.0892"/>
</g>
<!-- Node29 -->
<g id="node21" class="node">
<title>Node29</title>
<g id="a_node21"><a xlink:href="GeomVector3_8h.html" target="_top" xlink:title="iDynTree/Core/GeomVector3.h">
<polygon fill="none" stroke="#000000" points="460.4097,-174 460.4097,-193 623.4097,-193 623.4097,-174 460.4097,-174"/>
<text text-anchor="middle" x="541.9097" y="-181" font-family="FreeSans.ttf" font-size="10.00" fill="#000000">iDynTree/Core/GeomVector3.h</text>
</a>
</g>
</g>
<!-- Node28&#45;&gt;Node29 -->
<g id="edge24" class="edge">
<title>Node28&#45;&gt;Node29</title>
<path fill="none" stroke="#191970" d="M582.0398,-403.3988C580.1876,-388.9026 577.1636,-366.4075 573.9097,-347 565.135,-294.6641 552.5016,-233.3665 546.0472,-202.8334"/>
<polygon fill="#191970" stroke="#191970" points="549.4704,-202.1035 543.9675,-193.0498 542.6234,-203.5591 549.4704,-202.1035"/>
</g>
<!-- Node30 -->
<g id="node22" class="node">
<title>Node30</title>
<g id="a_node22"><a xlink:href="SpatialVector_8h.html" target="_top" xlink:title="iDynTree/Core/SpatialVector.h">
<polygon fill="none" stroke="#000000" points="404.4097,-347.5 404.4097,-366.5 565.4097,-366.5 565.4097,-347.5 404.4097,-347.5"/>
<text text-anchor="middle" x="484.9097" y="-354.5" font-family="FreeSans.ttf" font-size="10.00" fill="#000000">iDynTree/Core/SpatialVector.h</text>
</a>
</g>
</g>
<!-- Node28&#45;&gt;Node30 -->
<g id="edge26" class="edge">
<title>Node28&#45;&gt;Node30</title>
<path fill="none" stroke="#191970" d="M559.6916,-403.4554C544.3324,-393.9141 524.534,-381.6151 509.1672,-372.0691"/>
<polygon fill="#191970" stroke="#191970" points="510.5926,-368.8341 500.2512,-366.5303 506.8987,-374.7802 510.5926,-368.8341"/>
</g>
<!-- Node29&#45;&gt;Node18 -->
<g id="edge25" class="edge">
<title>Node29&#45;&gt;Node18</title>
<path fill="none" stroke="#191970" d="M565.0347,-173.8906C589.9065,-163.5554 629.6395,-147.0447 657.5941,-135.4284"/>
<polygon fill="#191970" stroke="#191970" points="659.0557,-138.6113 666.9471,-131.5419 656.3696,-132.1472 659.0557,-138.6113"/>
</g>
<!-- Node30&#45;&gt;Node11 -->
<g id="edge46" class="edge">
<title>Node30&#45;&gt;Node11</title>
<path fill="none" stroke="#191970" d="M464.201,-347.3508C448.164,-339.1981 426.0378,-326.4023 409.9097,-311 388.1575,-290.2267 380.7438,-283.7515 371.9097,-255 353.2432,-194.2475 334.9787,-163.7243 371.9097,-112 381.5595,-98.4849 418.3109,-86.4292 450.8888,-78.0535"/>
<polygon fill="#191970" stroke="#191970" points="451.9744,-81.39 460.8306,-75.5747 450.2809,-74.598 451.9744,-81.39"/>
</g>
<!-- Node30&#45;&gt;Node17 -->
<g id="edge49" class="edge">
<title>Node30&#45;&gt;Node17</title>
<path fill="none" stroke="#191970" d="M481.3948,-347.2788C469.2653,-312.9971 430.9739,-198.1836 450.9097,-168 474.1086,-132.876 590.483,-94.7597 651.865,-76.6774"/>
<polygon fill="#191970" stroke="#191970" points="652.9574,-80.0047 661.5796,-73.8477 650.9998,-73.284 652.9574,-80.0047"/>
</g>
<!-- Node30&#45;&gt;Node29 -->
<g id="edge47" class="edge">
<title>Node30&#45;&gt;Node29</title>
<path fill="none" stroke="#191970" d="M492.4243,-347.3174C499.0177,-338.3648 508.3912,-324.4506 513.9097,-311 528.8293,-274.6357 536.3849,-229.0227 539.7067,-203.3838"/>
<polygon fill="#191970" stroke="#191970" points="543.2226,-203.4616 540.9462,-193.1142 536.273,-202.6227 543.2226,-203.4616"/>
</g>
<!-- Node31 -->
<g id="node23" class="node">
<title>Node31</title>
<g id="a_node23"><a xlink:href="Position_8h.html" target="_top" xlink:title="Position.h">
<polygon fill="none" stroke="#000000" points="1468.4097,-291.5 1468.4097,-310.5 1533.4097,-310.5 1533.4097,-291.5 1468.4097,-291.5"/>
<text text-anchor="middle" x="1500.9097" y="-298.5" font-family="FreeSans.ttf" font-size="10.00" fill="#000000">Position.h</text>
</a>
</g>
</g>
<!-- Node30&#45;&gt;Node31 -->
<g id="edge27" class="edge">
<title>Node30&#45;&gt;Node31</title>
<path fill="none" stroke="#191970" d="M565.4828,-352.559C769.8804,-341.293 1303.3259,-311.8904 1458.1839,-303.355"/>
<polygon fill="#191970" stroke="#191970" points="1458.458,-306.8453 1468.2502,-302.8001 1458.0727,-299.8559 1458.458,-306.8453"/>
</g>
<!-- Node33 -->
<g id="node25" class="node">
<title>Node33</title>
<g id="a_node25"><a xlink:href="Rotation_8h.html" target="_top" xlink:title="iDynTree/Core/Rotation.h">
<polygon fill="none" stroke="#000000" points="1199.4097,-235.5 1199.4097,-254.5 1336.4097,-254.5 1336.4097,-235.5 1199.4097,-235.5"/>
<text text-anchor="middle" x="1267.9097" y="-242.5" font-family="FreeSans.ttf" font-size="10.00" fill="#000000">iDynTree/Core/Rotation.h</text>
</a>
</g>
</g>
<!-- Node30&#45;&gt;Node33 -->
<g id="edge45" class="edge">
<title>Node30&#45;&gt;Node33</title>
<path fill="none" stroke="#191970" d="M551.3301,-347.4993C695.7169,-326.8462 1037.5055,-277.9569 1190.9711,-256.0053"/>
<polygon fill="#191970" stroke="#191970" points="1191.843,-259.4163 1201.2467,-254.5355 1190.8518,-252.4868 1191.843,-259.4163"/>
</g>
<!-- Node16 -->
<g id="node28" class="node">
<title>Node16</title>
<polygon fill="none" stroke="#bfbfbf" points="583.9097,-56.5 583.9097,-75.5 643.9097,-75.5 643.9097,-56.5 583.9097,-56.5"/>
<text text-anchor="middle" x="613.9097" y="-63.5" font-family="FreeSans.ttf" font-size="10.00" fill="#000000">iostream</text>
</g>
<!-- Node30&#45;&gt;Node16 -->
<g id="edge48" class="edge">
<title>Node30&#45;&gt;Node16</title>
<path fill="none" stroke="#191970" d="M476.9633,-347.3806C448.7285,-311.9977 358.0636,-187.2297 417.9097,-112 462.2077,-56.3152 504.7247,-92.6296 573.9097,-76 574.0098,-75.976 574.11,-75.9519 574.2103,-75.9277"/>
<polygon fill="#191970" stroke="#191970" points="574.8968,-79.3629 583.7832,-73.5939 573.2388,-72.5621 574.8968,-79.3629"/>
</g>
<!-- Node31&#45;&gt;Node4 -->
<g id="edge44" class="edge">
<title>Node31&#45;&gt;Node4</title>
<path fill="none" stroke="#191970" d="M1519.1252,-291.3675C1556.7411,-270.173 1636.9873,-217.4399 1605.9097,-168 1566.1172,-104.6958 1474.8244,-79.7696 1426.0367,-70.705"/>
<polygon fill="#191970" stroke="#191970" points="1426.4738,-67.2285 1416.021,-68.957 1425.2703,-74.1242 1426.4738,-67.2285"/>
</g>
<!-- Node32 -->
<g id="node24" class="node">
<title>Node32</title>
<g id="a_node24"><a xlink:href="PositionRaw_8h.html" target="_top" xlink:title="iDynTree/Core/PositionRaw.h">
<polygon fill="none" stroke="#000000" points="1440.9097,-174 1440.9097,-193 1596.9097,-193 1596.9097,-174 1440.9097,-174"/>
<text text-anchor="middle" x="1518.9097" y="-181" font-family="FreeSans.ttf" font-size="10.00" fill="#000000">iDynTree/Core/PositionRaw.h</text>
</a>
</g>
</g>
<!-- Node31&#45;&gt;Node32 -->
<g id="edge28" class="edge">
<title>Node31&#45;&gt;Node32</title>
<path fill="none" stroke="#191970" d="M1502.3827,-291.3845C1505.323,-272.1913 1511.9723,-228.786 1515.8817,-203.2663"/>
<polygon fill="#191970" stroke="#191970" points="1519.3617,-203.6631 1517.4164,-193.2484 1512.4424,-202.6031 1519.3617,-203.6631"/>
</g>
<!-- Node31&#45;&gt;Node33 -->
<g id="edge31" class="edge">
<title>Node31&#45;&gt;Node33</title>
<path fill="none" stroke="#191970" d="M1468.0207,-293.0953C1428.8356,-283.6775 1362.9772,-267.8488 1317.5786,-256.9376"/>
<polygon fill="#191970" stroke="#191970" points="1318.1906,-253.4851 1307.6495,-254.5512 1316.5547,-260.2913 1318.1906,-253.4851"/>
</g>
<!-- Node32&#45;&gt;Node4 -->
<g id="edge30" class="edge">
<title>Node32&#45;&gt;Node4</title>
<path fill="none" stroke="#191970" d="M1508.6805,-173.8845C1487.4382,-153.9167 1438.3172,-107.743 1411.7466,-82.7667"/>
<polygon fill="#191970" stroke="#191970" points="1413.9638,-80.0473 1404.2803,-75.7484 1409.1695,-85.1477 1413.9638,-80.0473"/>
</g>
<!-- Node32&#45;&gt;Node18 -->
<g id="edge29" class="edge">
<title>Node32&#45;&gt;Node18</title>
<path fill="none" stroke="#191970" d="M1440.6002,-175.6053C1413.7612,-173.0187 1383.5349,-170.2373 1355.9097,-168 1117.046,-148.6551 1056.9279,-149.333 817.9097,-132 805.8057,-131.1222 793.0605,-130.1655 780.4944,-129.2031"/>
<polygon fill="#191970" stroke="#191970" points="780.7099,-125.7095 770.4707,-128.4315 780.1725,-132.6888 780.7099,-125.7095"/>
</g>
<!-- Node33&#45;&gt;Node4 -->
<g id="edge32" class="edge">
<title>Node33&#45;&gt;Node4</title>
<path fill="none" stroke="#191970" d="M1299.7305,-235.4945C1318.5882,-228.3196 1341.5355,-216.6409 1355.9097,-199 1383.1078,-165.621 1390.8481,-113.7574 1393.0448,-85.675"/>
<polygon fill="#191970" stroke="#191970" points="1396.548,-85.7299 1393.6735,-75.5325 1389.5614,-85.2968 1396.548,-85.7299"/>
</g>
<!-- Node33&#45;&gt;Node18 -->
<g id="edge43" class="edge">
<title>Node33&#45;&gt;Node18</title>
<path fill="none" stroke="#191970" d="M1199.2724,-238.0174C1074.9604,-225.3559 825.0901,-199.8302 822.9097,-199 800.8921,-190.6163 800.0126,-180.2856 779.9097,-168 760.5806,-156.1873 737.8597,-144.5909 720.0828,-135.9965"/>
<polygon fill="#191970" stroke="#191970" points="721.3006,-132.6994 710.7684,-131.5483 718.284,-139.0161 721.3006,-132.6994"/>
</g>
<!-- Node33&#45;&gt;Node29 -->
<g id="edge33" class="edge">
<title>Node33&#45;&gt;Node29</title>
<path fill="none" stroke="#191970" d="M1199.2825,-239.1865C1068.113,-228.0751 781.751,-203.8171 634.0678,-191.3068"/>
<polygon fill="#191970" stroke="#191970" points="633.9381,-187.7833 623.6783,-190.4267 633.3472,-194.7584 633.9381,-187.7833"/>
</g>
<!-- Node34 -->
<g id="node26" class="node">
<title>Node34</title>
<g id="a_node26"><a xlink:href="RotationRaw_8h.html" target="_top" xlink:title="iDynTree/Core/RotationRaw.h">
<polygon fill="none" stroke="#000000" points="1188.9097,-174 1188.9097,-193 1346.9097,-193 1346.9097,-174 1188.9097,-174"/>
<text text-anchor="middle" x="1267.9097" y="-181" font-family="FreeSans.ttf" font-size="10.00" fill="#000000">iDynTree/Core/RotationRaw.h</text>
</a>
</g>
</g>
<!-- Node33&#45;&gt;Node34 -->
<g id="edge34" class="edge">
<title>Node33&#45;&gt;Node34</title>
<path fill="none" stroke="#191970" d="M1267.9097,-235.3906C1267.9097,-226.8657 1267.9097,-214.1392 1267.9097,-203.4235"/>
<polygon fill="#191970" stroke="#191970" points="1271.4098,-203.2448 1267.9097,-193.2449 1264.4098,-203.2449 1271.4098,-203.2448"/>
</g>
<!-- Node34&#45;&gt;Node4 -->
<g id="edge42" class="edge">
<title>Node34&#45;&gt;Node4</title>
<path fill="none" stroke="#191970" d="M1278.2208,-173.8845C1299.6331,-153.9167 1349.147,-107.743 1375.9302,-82.7667"/>
<polygon fill="#191970" stroke="#191970" points="1378.5297,-85.1282 1383.4561,-75.7484 1373.7556,-80.0088 1378.5297,-85.1282"/>
</g>
<!-- Node10 -->
<g id="node27" class="node">
<title>Node10</title>
<g id="a_node27"><a xlink:href="MatrixFixSize_8h.html" target="_top" xlink:title="iDynTree/Core/MatrixFixSize.h">
<polygon fill="none" stroke="#000000" points="827.4097,-112.5 827.4097,-131.5 988.4097,-131.5 988.4097,-112.5 827.4097,-112.5"/>
<text text-anchor="middle" x="907.9097" y="-119.5" font-family="FreeSans.ttf" font-size="10.00" fill="#000000">iDynTree/Core/MatrixFixSize.h</text>
</a>
</g>
</g>
<!-- Node34&#45;&gt;Node10 -->
<g id="edge35" class="edge">
<title>Node34&#45;&gt;Node10</title>
<path fill="none" stroke="#191970" d="M1212.0547,-173.9581C1147.7156,-162.9668 1042.1176,-144.9272 973.8133,-133.2585"/>
<polygon fill="#191970" stroke="#191970" points="974.0462,-129.7477 963.5996,-131.5137 972.8674,-136.6477 974.0462,-129.7477"/>
</g>
<!-- Node10&#45;&gt;Node4 -->
<g id="edge39" class="edge">
<title>Node10&#45;&gt;Node4</title>
<path fill="none" stroke="#191970" d="M988.4354,-112.7213C1097.195,-100.1893 1286.0926,-78.4234 1361.481,-69.7366"/>
<polygon fill="#191970" stroke="#191970" points="1362.2237,-73.1743 1371.7573,-68.5525 1361.4223,-66.2203 1362.2237,-73.1743"/>
</g>
<!-- Node10&#45;&gt;Node11 -->
<g id="edge36" class="edge">
<title>Node10&#45;&gt;Node11</title>
<path fill="none" stroke="#191970" d="M838.0507,-112.4874C772.8956,-103.5839 672.701,-89.8123 575.724,-76.1082"/>
<polygon fill="#191970" stroke="#191970" points="576.137,-72.6319 565.7454,-74.6967 575.1566,-79.5629 576.137,-72.6319"/>
</g>
<!-- Node10&#45;&gt;Node14 -->
<g id="edge37" class="edge">
<title>Node10&#45;&gt;Node14</title>
<path fill="none" stroke="#191970" d="M902.1808,-112.4406C892.7216,-97.6005 872.3304,-69.3418 846.9097,-56 797.8218,-30.2367 634.6185,-16.9336 561.2209,-12.1326"/>
<polygon fill="#191970" stroke="#191970" points="561.27,-8.6287 551.0676,-11.4854 560.8247,-15.6145 561.27,-8.6287"/>
</g>
<!-- Node10&#45;&gt;Node17 -->
<g id="edge41" class="edge">
<title>Node10&#45;&gt;Node17</title>
<path fill="none" stroke="#191970" d="M870.4342,-112.3733C830.6782,-102.1607 768.1941,-86.1098 728.1497,-75.8231"/>
<polygon fill="#191970" stroke="#191970" points="728.7885,-72.3736 718.2321,-73.2755 727.0469,-79.1535 728.7885,-72.3736"/>
</g>
<!-- Node10&#45;&gt;Node15 -->
<g id="edge38" class="edge">
<title>Node10&#45;&gt;Node15</title>
<path fill="none" stroke="#191970" d="M891.362,-112.2455C876.6498,-103.5731 854.921,-90.7645 838.0592,-80.825"/>
<polygon fill="#191970" stroke="#191970" points="839.6599,-77.7057 829.2678,-75.6427 836.1052,-83.736 839.6599,-77.7057"/>
</g>
<!-- Node10&#45;&gt;Node16 -->
<g id="edge40" class="edge">
<title>Node10&#45;&gt;Node16</title>
<path fill="none" stroke="#191970" d="M848.1571,-112.4802C798.6533,-104.3068 726.2491,-91.695 654.2466,-76.178"/>
<polygon fill="#191970" stroke="#191970" points="654.6073,-72.6747 644.0919,-73.9694 653.1196,-79.5148 654.6073,-72.6747"/>
</g>
<!-- Node36 -->
<g id="node30" class="node">
<title>Node36</title>
<g id="a_node30"><a xlink:href="SpatialForceVector_8h.html" target="_top" xlink:title="iDynTree/Core/SpatialForce\lVector.h">
<polygon fill="none" stroke="#000000" points="291.9097,-403.5 291.9097,-433.5 439.9097,-433.5 439.9097,-403.5 291.9097,-403.5"/>
<text text-anchor="start" x="299.9097" y="-421.5" font-family="FreeSans.ttf" font-size="10.00" fill="#000000">iDynTree/Core/SpatialForce</text>
<text text-anchor="middle" x="365.9097" y="-410.5" font-family="FreeSans.ttf" font-size="10.00" fill="#000000">Vector.h</text>
</a>
</g>
</g>
<!-- Node35&#45;&gt;Node36 -->
<g id="edge51" class="edge">
<title>Node35&#45;&gt;Node36</title>
<path fill="none" stroke="#191970" d="M287.0911,-475.9005C300.038,-466.4718 320.2222,-451.7725 336.9234,-439.6096"/>
<polygon fill="#191970" stroke="#191970" points="339.2597,-442.238 345.2828,-433.5218 335.1388,-436.5795 339.2597,-442.238"/>
</g>
<!-- Node36&#45;&gt;Node18 -->
<g id="edge52" class="edge">
<title>Node36&#45;&gt;Node18</title>
<path fill="none" stroke="#191970" d="M365.9687,-403.4338C367.0259,-359.3502 376.6034,-229.8393 450.9097,-168 473.3528,-149.3224 541.2183,-137.4048 598.9225,-130.3919"/>
<polygon fill="#191970" stroke="#191970" points="599.6729,-133.8277 609.1945,-129.1813 598.8536,-126.8758 599.6729,-133.8277"/>
</g>
<!-- Node36&#45;&gt;Node29 -->
<g id="edge53" class="edge">
<title>Node36&#45;&gt;Node29</title>
<path fill="none" stroke="#191970" d="M370.3815,-403.2615C375.1654,-388.2668 383.6176,-365.0588 394.9097,-347 432.4617,-286.9456 492.8057,-228.0511 523.1728,-200.1857"/>
<polygon fill="#191970" stroke="#191970" points="525.8461,-202.4861 530.8991,-193.1739 521.1418,-197.3025 525.8461,-202.4861"/>
</g>
<!-- Node36&#45;&gt;Node30 -->
<g id="edge54" class="edge">
<title>Node36&#45;&gt;Node30</title>
<path fill="none" stroke="#191970" d="M395.0204,-403.4554C414.0921,-393.599 438.8579,-380.7999 457.5636,-371.1327"/>
<polygon fill="#191970" stroke="#191970" points="459.1921,-374.2309 466.469,-366.5303 455.9783,-368.0122 459.1921,-374.2309"/>
</g>
<!-- Node37&#45;&gt;Node28 -->
<g id="edge56" class="edge">
<title>Node37&#45;&gt;Node28</title>
<path fill="none" stroke="#191970" d="M908.3905,-475.927C897.6589,-473.9516 886.4173,-471.896 875.9097,-470 807.3097,-457.6215 729.5803,-443.9286 671.5746,-433.7754"/>
<polygon fill="#191970" stroke="#191970" points="672.1647,-430.3256 661.7112,-432.0498 670.9583,-437.2208 672.1647,-430.3256"/>
</g>
<!-- Node38&#45;&gt;Node36 -->
<g id="edge58" class="edge">
<title>Node38&#45;&gt;Node36</title>
<path fill="none" stroke="#191970" d="M756.3848,-475.9637C746.0721,-473.8817 735.1259,-471.773 724.9097,-470 631.1461,-453.7276 522.9624,-438.7184 450.0685,-429.1527"/>
<polygon fill="#191970" stroke="#191970" points="450.3915,-425.6653 440.0222,-427.8395 449.4842,-432.6062 450.3915,-425.6653"/>
</g>
<!-- Node39&#45;&gt;Node4 -->
<g id="edge64" class="edge">
<title>Node39&#45;&gt;Node4</title>
<path fill="none" stroke="#191970" d="M1776.4005,-475.9927C1819.201,-459.2363 1896.9097,-420.1217 1896.9097,-357 1896.9097,-357 1896.9097,-357 1896.9097,-183.5 1896.9097,-86.5151 1537.8303,-69.5372 1426.4522,-66.6037"/>
<polygon fill="#191970" stroke="#191970" points="1426.2538,-63.098 1416.172,-66.3549 1426.0844,-70.0959 1426.2538,-63.098"/>
</g>
<!-- Node39&#45;&gt;Node31 -->
<g id="edge61" class="edge">
<title>Node39&#45;&gt;Node31</title>
<path fill="none" stroke="#191970" d="M1735.9253,-475.8402C1695.4973,-445.7637 1571.6104,-353.5979 1521.886,-316.6053"/>
<polygon fill="#191970" stroke="#191970" points="1523.878,-313.7249 1513.7656,-310.5641 1519.6997,-319.3412 1523.878,-313.7249"/>
</g>
<!-- Node39&#45;&gt;Node33 -->
<g id="edge62" class="edge">
<title>Node39&#45;&gt;Node33</title>
<path fill="none" stroke="#191970" d="M1705.6194,-475.9934C1638.7679,-460.1164 1507.8009,-424.1902 1408.9097,-367 1357.8332,-337.4617 1308.01,-288.1381 1283.5487,-262.1782"/>
<polygon fill="#191970" stroke="#191970" points="1285.9002,-259.5671 1276.5285,-254.6253 1280.773,-264.3328 1285.9002,-259.5671"/>
</g>
<!-- Node39&#45;&gt;Node10 -->
<g id="edge63" class="edge">
<title>Node39&#45;&gt;Node10</title>
<path fill="none" stroke="#191970" d="M1683.6157,-475.966C1628.5264,-467.2288 1547.8529,-452.8013 1478.9097,-434 1329.5159,-393.2593 912.0494,-325.6193 822.9097,-199 814.9785,-187.734 815.8571,-179.8359 822.9097,-168 831.8008,-153.0789 847.3994,-142.7035 862.8274,-135.6373"/>
<polygon fill="#191970" stroke="#191970" points="864.4751,-138.742 872.35,-131.6541 861.7739,-132.2841 864.4751,-138.742"/>
</g>
<!-- Node40&#45;&gt;Node4 -->
<g id="edge68" class="edge">
<title>Node40&#45;&gt;Node4</title>
<path fill="none" stroke="#191970" d="M1934.9097,-537.3281C1934.9097,-515.9175 1934.9097,-462.895 1934.9097,-418.5 1934.9097,-418.5 1934.9097,-418.5 1934.9097,-183.5 1934.9097,-133.4506 1894.1158,-131.2338 1847.9097,-112 1771.3898,-80.1476 1516.6514,-69.6334 1426.1531,-66.8553"/>
<polygon fill="#191970" stroke="#191970" points="1426.0529,-63.3509 1415.9539,-66.5539 1425.8461,-70.3478 1426.0529,-63.3509"/>
</g>
<!-- Node40&#45;&gt;Node39 -->
<g id="edge70" class="edge">
<title>Node40&#45;&gt;Node39</title>
<path fill="none" stroke="#191970" d="M1905.8472,-537.3906C1874.0435,-526.8749 1822.9046,-509.966 1787.6953,-498.3243"/>
<polygon fill="#191970" stroke="#191970" points="1788.3614,-494.8582 1777.7682,-495.0419 1786.1638,-501.5043 1788.3614,-494.8582"/>
</g>
<!-- Node40&#45;&gt;Node41 -->
<g id="edge67" class="edge">
<title>Node40&#45;&gt;Node41</title>
<path fill="none" stroke="#191970" d="M1947.566,-537.3906C1960.2866,-527.7324 1980.1101,-512.6812 1995.1382,-501.271"/>
<polygon fill="#191970" stroke="#191970" points="1997.4944,-503.8766 2003.3424,-495.0419 1993.2614,-498.3015 1997.4944,-503.8766"/>
</g>
<!-- Node40&#45;&gt;Node42 -->
<g id="edge69" class="edge">
<title>Node40&#45;&gt;Node42</title>
<path fill="none" stroke="#191970" d="M1853.3913,-542.4102C1726.5844,-535.0508 1474.4469,-519.5384 1260.9097,-501 1222.0871,-497.6296 1177.5993,-492.8039 1147.8268,-489.4353"/>
<polygon fill="#191970" stroke="#191970" points="1147.8936,-485.9204 1137.5616,-488.2656 1147.101,-492.8754 1147.8936,-485.9204"/>
</g>
<!-- Node43&#45;&gt;Node3 -->
<g id="edge74" class="edge">
<title>Node43&#45;&gt;Node3</title>
<path fill="none" stroke="#191970" d="M1153.2847,-537.3906C1191.4671,-526.7169 1253.2113,-509.4566 1294.8981,-497.8033"/>
<polygon fill="#191970" stroke="#191970" points="1296.0876,-501.105 1304.7761,-495.0419 1294.203,-494.3634 1296.0876,-501.105"/>
</g>
<!-- Node43&#45;&gt;Node4 -->
<g id="edge76" class="edge">
<title>Node43&#45;&gt;Node4</title>
<path fill="none" stroke="#191970" d="M1135.7144,-537.4852C1149.0841,-529.2353 1167.5392,-516.2424 1179.9097,-501 1210.2303,-463.6406 1200.4319,-443.8159 1225.9097,-403 1285.9219,-306.8596 1332.9173,-302.5816 1378.9097,-199 1395.0106,-162.7386 1401.0565,-151.6171 1398.9097,-112 1398.4436,-103.3971 1397.4904,-93.9288 1396.5401,-85.8301"/>
<polygon fill="#191970" stroke="#191970" points="1400.0055,-85.334 1395.2921,-75.8453 1393.0595,-86.2023 1400.0055,-85.334"/>
</g>
<!-- Node43&#45;&gt;Node12 -->
<g id="edge77" class="edge">
<title>Node43&#45;&gt;Node12</title>
<path fill="none" stroke="#191970" d="M1127.7332,-537.4005C1141.3878,-521.3918 1164.2469,-489.118 1145.9097,-470 1079.4763,-400.7376 360.4722,-490.5221 282.9097,-434 231.9985,-396.8995 233.9097,-363.9952 233.9097,-301 233.9097,-301 233.9097,-301 233.9097,-122 233.9097,-89.7116 233.9097,-52.1872 233.9097,-29.8048"/>
<polygon fill="#191970" stroke="#191970" points="237.4098,-29.5883 233.9097,-19.5884 230.4098,-29.5884 237.4098,-29.5883"/>
</g>
<!-- Node43&#45;&gt;Node42 -->
<g id="edge75" class="edge">
<title>Node43&#45;&gt;Node42</title>
<path fill="none" stroke="#191970" d="M1118.1285,-537.3906C1117.4354,-528.8657 1116.4007,-516.1392 1115.5295,-505.4235"/>
<polygon fill="#191970" stroke="#191970" points="1119.0009,-504.9283 1114.702,-495.2449 1112.0239,-505.4956 1119.0009,-504.9283"/>
</g>
<!-- Node44&#45;&gt;Node3 -->
<g id="edge79" class="edge">
<title>Node44&#45;&gt;Node3</title>
<path fill="none" stroke="#191970" d="M1011.109,-537.4581C1080.7371,-526.4217 1195.199,-508.2789 1268.7853,-496.6151"/>
<polygon fill="#191970" stroke="#191970" points="1269.5597,-500.0361 1278.8885,-495.0137 1268.4638,-493.1224 1269.5597,-500.0361"/>
</g>
<!-- Node44&#45;&gt;Node42 -->
<g id="edge80" class="edge">
<title>Node44&#45;&gt;Node42</title>
<path fill="none" stroke="#191970" d="M977.833,-537.3973C1003.2166,-528.2717 1042.2766,-514.0434 1075.9097,-501 1077.5538,-500.3624 1079.2352,-499.7032 1080.9313,-499.0325"/>
<polygon fill="#191970" stroke="#191970" points="1082.6695,-502.1066 1090.649,-495.1368 1080.0647,-495.6092 1082.6695,-502.1066"/>
</g>
<!-- Node45&#45;&gt;Node3 -->
<g id="edge87" class="edge">
<title>Node45&#45;&gt;Node3</title>
<path fill="none" stroke="#191970" d="M837.1588,-602.9513C945.4339,-594.5883 1136.5196,-577.528 1202.9097,-557 1245.5401,-543.8186 1290.5263,-517.3352 1316.5879,-500.5616"/>
<polygon fill="#191970" stroke="#191970" points="1318.529,-503.4742 1324.982,-495.0713 1314.6973,-497.616 1318.529,-503.4742"/>
</g>
<!-- Node45&#45;&gt;Node27 -->
<g id="edge83" class="edge">
<title>Node45&#45;&gt;Node27</title>
<path fill="none" stroke="#191970" d="M682.6994,-601.0857C594.4586,-591.8175 460.1825,-574.9726 444.9097,-557 432.8914,-542.8573 435.2512,-520.8486 439.2945,-504.9844"/>
<polygon fill="#191970" stroke="#191970" points="442.7217,-505.7376 442.2068,-495.1553 436.0101,-503.749 442.7217,-505.7376"/>
</g>
<!-- Node45&#45;&gt;Node39 -->
<g id="edge82" class="edge">
<title>Node45&#45;&gt;Node39</title>
<path fill="none" stroke="#191970" d="M837.0589,-601.0354C932.1389,-591.6525 1098.5944,-574.6291 1240.9097,-557 1396.0644,-537.7804 1577.2916,-511.3007 1675.8856,-496.5539"/>
<polygon fill="#191970" stroke="#191970" points="1676.6667,-499.9761 1686.0378,-495.0332 1675.6296,-493.0533 1676.6667,-499.9761"/>
</g>
<!-- Node45&#45;&gt;Node42 -->
<g id="edge103" class="edge">
<title>Node45&#45;&gt;Node42</title>
<path fill="none" stroke="#191970" d="M771.0158,-593.3695C784.2285,-576.605 807.9221,-550.1999 834.9097,-537 932.1959,-489.4165 971.4701,-529.6559 1075.9097,-501 1078.3747,-500.3237 1080.8951,-499.5325 1083.4069,-498.672"/>
<polygon fill="#191970" stroke="#191970" points="1084.7829,-501.894 1092.9171,-495.1054 1082.3248,-495.3398 1084.7829,-501.894"/>
</g>
<!-- Node46 -->
<g id="node40" class="node">
<title>Node46</title>
<g id="a_node40"><a xlink:href="VectorDynSize_8h.html" target="_top" xlink:title="iDynTree/Core/VectorDynSize.h">
<polygon fill="none" stroke="#000000" points="36.4097,-291.5 36.4097,-310.5 203.4097,-310.5 203.4097,-291.5 36.4097,-291.5"/>
<text text-anchor="middle" x="119.9097" y="-298.5" font-family="FreeSans.ttf" font-size="10.00" fill="#000000">iDynTree/Core/VectorDynSize.h</text>
</a>
</g>
</g>
<!-- Node45&#45;&gt;Node46 -->
<g id="edge84" class="edge">
<title>Node45&#45;&gt;Node46</title>
<path fill="none" stroke="#191970" d="M682.6829,-607.2911C512.5569,-603.985 116.6468,-592.526 67.9097,-557 40.1983,-536.8003 38.9097,-519.7921 38.9097,-485.5 38.9097,-485.5 38.9097,-485.5 38.9097,-418.5 38.9097,-376.1676 74.9894,-338.003 98.9893,-317.2991"/>
<polygon fill="#191970" stroke="#191970" points="101.4437,-319.8102 106.8957,-310.7258 96.9685,-314.4275 101.4437,-319.8102"/>
</g>
<!-- Node47 -->
<g id="node41" class="node">
<title>Node47</title>
<g id="a_node41"><a xlink:href="LinkState_8h.html" target="_top" xlink:title="iDynTree/Model/LinkState.h">
<polygon fill="none" stroke="#000000" points="634.4097,-537.5 634.4097,-556.5 783.4097,-556.5 783.4097,-537.5 634.4097,-537.5"/>
<text text-anchor="middle" x="708.9097" y="-544.5" font-family="FreeSans.ttf" font-size="10.00" fill="#000000">iDynTree/Model/LinkState.h</text>
</a>
</g>
</g>
<!-- Node45&#45;&gt;Node47 -->
<g id="edge88" class="edge">
<title>Node45&#45;&gt;Node47</title>
<path fill="none" stroke="#191970" d="M747.303,-593.2977C740.1499,-584.672 731.16,-573.8312 723.6779,-564.8087"/>
<polygon fill="#191970" stroke="#191970" points="726.153,-562.3103 717.0755,-556.8469 720.7647,-566.7787 726.153,-562.3103"/>
</g>
<!-- Node49 -->
<g id="node43" class="node">
<title>Node49</title>
<g id="a_node43"><a xlink:href="JointState_8h.html" target="_top" xlink:title="iDynTree/Model/JointState.h">
<polygon fill="none" stroke="#000000" points="77.4097,-537.5 77.4097,-556.5 228.4097,-556.5 228.4097,-537.5 77.4097,-537.5"/>
<text text-anchor="middle" x="152.9097" y="-544.5" font-family="FreeSans.ttf" font-size="10.00" fill="#000000">iDynTree/Model/JointState.h</text>
</a>
</g>
</g>
<!-- Node45&#45;&gt;Node49 -->
<g id="edge98" class="edge">
<title>Node45&#45;&gt;Node49</title>
<path fill="none" stroke="#191970" d="M682.7247,-600.6798C569.0111,-589.1585 357.1664,-567.6949 238.7136,-555.6935"/>
<polygon fill="#191970" stroke="#191970" points="238.901,-552.1946 228.5991,-554.6687 238.1954,-559.159 238.901,-552.1946"/>
</g>
<!-- Node46&#45;&gt;Node4 -->
<g id="edge86" class="edge">
<title>Node46&#45;&gt;Node4</title>
<path fill="none" stroke="#191970" d="M203.6282,-298.695C416.0831,-291.8871 971.3108,-267.8415 1140.9097,-199 1161.4261,-190.6723 1161.1285,-179.7277 1179.9097,-168 1241.4455,-129.5748 1319.6985,-95.7064 1362.4729,-78.3373"/>
<polygon fill="#191970" stroke="#191970" points="1363.828,-81.5648 1371.7981,-74.5843 1361.2145,-75.071 1363.828,-81.5648"/>
</g>
<!-- Node46&#45;&gt;Node19 -->
<g id="edge85" class="edge">
<title>Node46&#45;&gt;Node19</title>
<path fill="none" stroke="#191970" d="M120.9207,-291.4967C124.6503,-256.4391 137.6853,-133.9096 142.814,-85.7"/>
<polygon fill="#191970" stroke="#191970" points="146.3086,-85.9358 143.8862,-75.6216 139.3478,-85.1952 146.3086,-85.9358"/>
</g>
<!-- Node47&#45;&gt;Node3 -->
<g id="edge96" class="edge">
<title>Node47&#45;&gt;Node3</title>
<path fill="none" stroke="#191970" d="M783.653,-539.7036C903.3303,-528.0209 1136.9219,-505.2179 1259.4924,-493.2526"/>
<polygon fill="#191970" stroke="#191970" points="1259.9489,-496.7248 1269.5615,-492.2697 1259.2687,-489.7579 1259.9489,-496.7248"/>
</g>
<!-- Node47&#45;&gt;Node27 -->
<g id="edge90" class="edge">
<title>Node47&#45;&gt;Node27</title>
<path fill="none" stroke="#191970" d="M668.1045,-537.4581C621.9409,-526.6632 546.7025,-509.0694 496.7558,-497.3899"/>
<polygon fill="#191970" stroke="#191970" points="497.3449,-493.9333 486.8106,-495.0643 495.751,-500.7494 497.3449,-493.9333"/>
</g>
<!-- Node47&#45;&gt;Node37 -->
<g id="edge91" class="edge">
<title>Node47&#45;&gt;Node37</title>
<path fill="none" stroke="#191970" d="M747.8531,-537.4581C791.8185,-526.6857 863.4162,-509.1428 911.0848,-497.4631"/>
<polygon fill="#191970" stroke="#191970" points="911.9953,-500.8436 920.875,-495.0643 910.3294,-494.0447 911.9953,-500.8436"/>
</g>
<!-- Node47&#45;&gt;Node38 -->
<g id="edge92" class="edge">
<title>Node47&#45;&gt;Node38</title>
<path fill="none" stroke="#191970" d="M723.2847,-537.3906C738.0029,-527.5519 761.093,-512.1167 778.2687,-500.6351"/>
<polygon fill="#191970" stroke="#191970" points="780.2672,-503.5091 786.6357,-495.0419 776.377,-497.6896 780.2672,-503.5091"/>
</g>
<!-- Node47&#45;&gt;Node39 -->
<g id="edge89" class="edge">
<title>Node47&#45;&gt;Node39</title>
<path fill="none" stroke="#191970" d="M783.7244,-542.2263C810.304,-540.5485 840.4398,-538.6667 867.9097,-537 1161.2151,-519.2039 1509.52,-499.1675 1665.7938,-490.2359"/>
<polygon fill="#191970" stroke="#191970" points="1666.0229,-493.7286 1675.807,-489.6638 1665.6236,-486.74 1666.0229,-493.7286"/>
</g>
<!-- Node47&#45;&gt;Node42 -->
<g id="edge97" class="edge">
<title>Node47&#45;&gt;Node42</title>
<path fill="none" stroke="#191970" d="M783.4755,-538.1606C886.6594,-525.8548 1061.9519,-504.6533 1075.9097,-501 1078.5333,-500.3133 1081.2167,-499.4882 1083.8842,-498.581"/>
<polygon fill="#191970" stroke="#191970" points="1085.2046,-501.8239 1093.3397,-495.0364 1082.7474,-495.2693 1085.2046,-501.8239"/>
</g>
<!-- Node48 -->
<g id="node42" class="node">
<title>Node48</title>
<g id="a_node42"><a xlink:href="ArticulatedBodyInertia_8h.html" target="_top" xlink:title="iDynTree/Core/Articulated\lBodyInertia.h">
<polygon fill="none" stroke="#000000" points="991.4097,-168.5 991.4097,-198.5 1132.4097,-198.5 1132.4097,-168.5 991.4097,-168.5"/>
<text text-anchor="start" x="999.4097" y="-186.5" font-family="FreeSans.ttf" font-size="10.00" fill="#000000">iDynTree/Core/Articulated</text>
<text text-anchor="middle" x="1061.9097" y="-175.5" font-family="FreeSans.ttf" font-size="10.00" fill="#000000">BodyInertia.h</text>
</a>
</g>
</g>
<!-- Node47&#45;&gt;Node48 -->
<g id="edge93" class="edge">
<title>Node47&#45;&gt;Node48</title>
<path fill="none" stroke="#191970" d="M783.5912,-538.8767C879.1026,-528.173 1033.4059,-509.6892 1042.9097,-501 1070.6792,-475.6108 1061.9097,-456.1265 1061.9097,-418.5 1061.9097,-418.5 1061.9097,-418.5 1061.9097,-301 1061.9097,-269.3014 1061.9097,-232.7926 1061.9097,-208.9922"/>
<polygon fill="#191970" stroke="#191970" points="1065.4098,-208.7101 1061.9097,-198.7101 1058.4098,-208.7102 1065.4098,-208.7101"/>
</g>
<!-- Node48&#45;&gt;Node4 -->
<g id="edge95" class="edge">
<title>Node48&#45;&gt;Node4</title>
<path fill="none" stroke="#191970" d="M1075.3101,-168.2764C1090.8227,-151.6859 1117.9718,-125.6849 1146.9097,-112 1184.5883,-94.1816 1303.6582,-77.3318 1361.6041,-69.9342"/>
<polygon fill="#191970" stroke="#191970" points="1362.1952,-73.3875 1371.6792,-68.6648 1361.32,-66.4424 1362.1952,-73.3875"/>
</g>
<!-- Node48&#45;&gt;Node10 -->
<g id="edge94" class="edge">
<title>Node48&#45;&gt;Node10</title>
<path fill="none" stroke="#191970" d="M1024.2371,-168.4554C998.8799,-158.329 965.7445,-145.0964 941.3272,-135.3453"/>
<polygon fill="#191970" stroke="#191970" points="942.3592,-131.9887 931.7743,-131.5303 939.763,-138.4895 942.3592,-131.9887"/>
</g>
<!-- Node49&#45;&gt;Node18 -->
<g id="edge99" class="edge">
<title>Node49&#45;&gt;Node18</title>
<path fill="none" stroke="#191970" d="M150.8016,-537.3702C147.9811,-522.3995 144.2678,-492.8863 152.9097,-470 216.0946,-302.6687 262.6696,-255.0697 418.9097,-168 449.2421,-151.0963 532.6652,-138.5458 599.0153,-130.8617"/>
<polygon fill="#191970" stroke="#191970" points="599.5483,-134.3238 609.0891,-129.7169 598.7578,-127.3685 599.5483,-134.3238"/>
</g>
<!-- Node49&#45;&gt;Node36 -->
<g id="edge101" class="edge">
<title>Node49&#45;&gt;Node36</title>
<path fill="none" stroke="#191970" d="M152.379,-537.4959C152.0247,-521.3356 153.7671,-488.464 171.9097,-470 187.6621,-453.9686 236.796,-441.0173 281.6712,-432.1125"/>
<polygon fill="#191970" stroke="#191970" points="282.6095,-435.496 291.7636,-430.1619 281.2811,-428.6232 282.6095,-435.496"/>
</g>
<!-- Node49&#45;&gt;Node42 -->
<g id="edge102" class="edge">
<title>Node49&#45;&gt;Node42</title>
<path fill="none" stroke="#191970" d="M228.4349,-543.8055C428.6951,-535.2344 963.4085,-511.6598 1042.9097,-501 1055.1928,-499.353 1068.5027,-496.688 1080.2432,-494.0286"/>
<polygon fill="#191970" stroke="#191970" points="1081.1548,-497.4098 1090.0914,-491.7187 1079.5563,-490.5948 1081.1548,-497.4098"/>
</g>
<!-- Node49&#45;&gt;Node46 -->
<g id="edge100" class="edge">
<title>Node49&#45;&gt;Node46</title>
<path fill="none" stroke="#191970" d="M151.6161,-537.3565C146.7186,-500.8479 129.2539,-370.6569 122.5533,-320.7066"/>
<polygon fill="#191970" stroke="#191970" points="125.993,-320.0227 121.1944,-310.5768 119.0551,-320.9534 125.993,-320.0227"/>
</g>
<!-- Node50&#45;&gt;Node2 -->
<g id="edge107" class="edge">
<title>Node50&#45;&gt;Node2</title>
<path fill="none" stroke="#191970" d="M1422.2847,-598.8906C1454.5684,-588.3298 1506.5633,-571.3208 1542.1644,-559.6747"/>
<polygon fill="#191970" stroke="#191970" points="1543.3248,-562.9776 1551.741,-556.5419 1541.1484,-556.3246 1543.3248,-562.9776"/>
</g>
<!-- Node50&#45;&gt;Node3 -->
<g id="edge106" class="edge">
<title>Node50&#45;&gt;Node3</title>
<path fill="none" stroke="#191970" d="M1388.6724,-598.8484C1379.7609,-578.5499 1358.9396,-531.1235 1347.2504,-504.4981"/>
<polygon fill="#191970" stroke="#191970" points="1350.3521,-502.8562 1343.1273,-495.1068 1343.9425,-505.6702 1350.3521,-502.8562"/>
</g>
<!-- Node50&#45;&gt;Node39 -->
<g id="edge105" class="edge">
<title>Node50&#45;&gt;Node39</title>
<path fill="none" stroke="#191970" d="M1405.2326,-598.8056C1425.4796,-583.3639 1467.5745,-553.2691 1507.9097,-537 1558.4747,-516.6048 1618.4175,-503.7531 1665.8716,-495.9887"/>
<polygon fill="#191970" stroke="#191970" points="1666.4749,-499.4368 1675.8004,-494.4082 1665.3744,-492.5238 1666.4749,-499.4368"/>
</g>
<!-- Node51&#45;&gt;Node3 -->
<g id="edge119" class="edge">
<title>Node51&#45;&gt;Node3</title>
<path fill="none" stroke="#191970" d="M1220.9865,-665.9482C1166.7245,-654.6031 1099.3276,-632.1034 1127.9097,-593 1159.0138,-550.4464 1193.9006,-580.8415 1240.9097,-557 1270.8808,-541.7997 1301.5626,-517.7707 1320.4257,-501.8238"/>
<polygon fill="#191970" stroke="#191970" points="1322.9147,-504.2996 1328.2159,-495.1264 1318.3513,-498.9916 1322.9147,-504.2996"/>
</g>
<!-- Node51&#45;&gt;Node28 -->
<g id="edge110" class="edge">
<title>Node51&#45;&gt;Node28</title>
<path fill="none" stroke="#191970" d="M1228.6637,-665.9151C1186.2055,-656.9377 1131.2413,-642.1932 1117.9097,-624 1073.2642,-563.0733 1195.9882,-567.4482 1202.9097,-557 1219.4788,-531.9886 1205.0429,-489.6334 1179.9097,-470 1140.7922,-439.4424 827.7158,-425.8037 671.6739,-420.856"/>
<polygon fill="#191970" stroke="#191970" points="671.7317,-417.3562 661.6274,-420.5426 671.5133,-424.3528 671.7317,-417.3562"/>
</g>
<!-- Node51&#45;&gt;Node39 -->
<g id="edge109" class="edge">
<title>Node51&#45;&gt;Node39</title>
<path fill="none" stroke="#191970" d="M1365.0055,-671.7332C1459.8488,-666.1379 1606.9851,-652.9892 1653.9097,-624 1699.8426,-595.6235 1729.03,-535.8366 1741.6652,-504.9244"/>
<polygon fill="#191970" stroke="#191970" points="1745.0496,-505.8809 1745.4444,-495.2934 1738.5334,-503.3238 1745.0496,-505.8809"/>
</g>
<!-- Node52 -->
<g id="node46" class="node">
<title>Node52</title>
<g id="a_node46"><a xlink:href="Axis_8h.html" target="_top" xlink:title="iDynTree/Core/Axis.h">
<polygon fill="none" stroke="#000000" points="1417.9097,-347.5 1417.9097,-366.5 1535.9097,-366.5 1535.9097,-347.5 1417.9097,-347.5"/>
<text text-anchor="middle" x="1476.9097" y="-354.5" font-family="FreeSans.ttf" font-size="10.00" fill="#000000">iDynTree/Core/Axis.h</text>
</a>
</g>
</g>
<!-- Node51&#45;&gt;Node52 -->
<g id="edge111" class="edge">
<title>Node51&#45;&gt;Node52</title>
<path fill="none" stroke="#191970" d="M1282.3042,-665.8439C1285.0126,-649.6185 1292.1596,-616.3697 1307.9097,-593 1343.339,-540.4307 1379.4448,-552.1385 1416.9097,-501 1446.0049,-461.286 1464.0327,-405.367 1472.0407,-376.28"/>
<polygon fill="#191970" stroke="#191970" points="1475.4446,-377.0984 1474.6214,-366.5356 1468.6778,-375.3062 1475.4446,-377.0984"/>
</g>
<!-- Node54 -->
<g id="node48" class="node">
<title>Node54</title>
<g id="a_node48"><a xlink:href="MovableJointImpl_8h.html" target="_top" xlink:title="iDynTree/Model/MovableJoint\lImpl.h">
<polygon fill="none" stroke="#000000" points="1486.9097,-593.5 1486.9097,-623.5 1644.9097,-623.5 1644.9097,-593.5 1486.9097,-593.5"/>
<text text-anchor="start" x="1494.9097" y="-611.5" font-family="FreeSans.ttf" font-size="10.00" fill="#000000">iDynTree/Model/MovableJoint</text>
<text text-anchor="middle" x="1565.9097" y="-600.5" font-family="FreeSans.ttf" font-size="10.00" fill="#000000">Impl.h</text>
</a>
</g>
</g>
<!-- Node51&#45;&gt;Node54 -->
<g id="edge120" class="edge">
<title>Node51&#45;&gt;Node54</title>
<path fill="none" stroke="#191970" d="M1321.4406,-665.9717C1365.7109,-655.5643 1437.5542,-638.6748 1491.9292,-625.8919"/>
<polygon fill="#191970" stroke="#191970" points="1492.9347,-629.251 1501.8683,-623.5553 1491.3327,-622.4368 1492.9347,-629.251"/>
</g>
<!-- Node52&#45;&gt;Node4 -->
<g id="edge112" class="edge">
<title>Node52&#45;&gt;Node4</title>
<path fill="none" stroke="#191970" d="M1533.7265,-347.487C1588.4257,-334.6947 1662.9097,-306.0643 1662.9097,-245 1662.9097,-245 1662.9097,-245 1662.9097,-183.5 1662.9097,-132.7608 1619.2957,-134.6844 1573.9097,-112 1525.5928,-87.8506 1463.4613,-75.6116 1426.2664,-70.0347"/>
<polygon fill="#191970" stroke="#191970" points="1426.412,-66.5201 1416.0179,-68.5728 1425.4234,-73.4499 1426.412,-66.5201"/>
</g>
<!-- Node52&#45;&gt;Node11 -->
<g id="edge118" class="edge">
<title>Node52&#45;&gt;Node11</title>
<path fill="none" stroke="#191970" d="M1431.0227,-347.4357C1296.5817,-319.2813 905.2105,-236.3403 779.9097,-199 698.1027,-174.6211 675.4577,-171.7394 599.9097,-132 572.6108,-117.6404 543.9817,-96.5367 525.5971,-82.082"/>
<polygon fill="#191970" stroke="#191970" points="527.4455,-79.0793 517.4457,-75.5789 523.0801,-84.5513 527.4455,-79.0793"/>
</g>
<!-- Node52&#45;&gt;Node31 -->
<g id="edge117" class="edge">
<title>Node52&#45;&gt;Node31</title>
<path fill="none" stroke="#191970" d="M1481.0902,-347.2455C1484.2907,-339.7776 1488.8057,-329.2427 1492.7181,-320.1137"/>
<polygon fill="#191970" stroke="#191970" points="1496.0549,-321.2129 1496.7772,-310.6427 1489.6209,-318.4554 1496.0549,-321.2129"/>
</g>
<!-- Node53 -->
<g id="node47" class="node">
<title>Node53</title>
<g id="a_node47"><a xlink:href="Direction_8h.html" target="_top" xlink:title="iDynTree/Core/Direction.h">
<polygon fill="none" stroke="#000000" points="832.4097,-174 832.4097,-193 973.4097,-193 973.4097,-174 832.4097,-174"/>
<text text-anchor="middle" x="902.9097" y="-181" font-family="FreeSans.ttf" font-size="10.00" fill="#000000">iDynTree/Core/Direction.h</text>
</a>
</g>
</g>
<!-- Node52&#45;&gt;Node53 -->
<g id="edge113" class="edge">
<title>Node52&#45;&gt;Node53</title>
<path fill="none" stroke="#191970" d="M1469.9704,-347.1745C1452.3191,-323.0744 1402.9727,-261.1001 1344.9097,-235 1197.0378,-168.5295 1142.3027,-222.6337 981.9097,-199 973.9471,-197.8267 965.5693,-196.397 957.3661,-194.8855"/>
<polygon fill="#191970" stroke="#191970" points="957.963,-191.4364 947.4862,-193.0131 956.6596,-198.314 957.963,-191.4364"/>
</g>
<!-- Node53&#45;&gt;Node4 -->
<g id="edge114" class="edge">
<title>Node53&#45;&gt;Node4</title>
<path fill="none" stroke="#191970" d="M926.772,-173.92C965.3281,-158.7739 1043.9778,-129.2502 1112.9097,-112 1201.7413,-89.7699 1309.1436,-75.6261 1361.7313,-69.5054"/>
<polygon fill="#191970" stroke="#191970" points="1362.258,-72.9681 1371.7956,-68.3546 1361.4627,-66.0134 1362.258,-72.9681"/>
</g>
<!-- Node53&#45;&gt;Node18 -->
<g id="edge115" class="edge">
<title>Node53&#45;&gt;Node18</title>
<path fill="none" stroke="#191970" d="M869.6285,-173.8906C832.7392,-163.2395 773.1341,-146.0296 732.7772,-134.3772"/>
<polygon fill="#191970" stroke="#191970" points="733.5358,-130.9533 722.9573,-131.5419 731.5939,-137.6786 733.5358,-130.9533"/>
</g>
<!-- Node53&#45;&gt;Node11 -->
<g id="edge116" class="edge">
<title>Node53&#45;&gt;Node11</title>
<path fill="none" stroke="#191970" d="M887.0855,-173.9536C856.2896,-155.4379 790.3104,-116.0969 778.9097,-112 760.0907,-105.2372 650.3662,-87.827 575.8824,-76.4709"/>
<polygon fill="#191970" stroke="#191970" points="576.0319,-72.9535 565.6194,-74.9105 574.9796,-79.874 576.0319,-72.9535"/>
</g>
<!-- Node54&#45;&gt;Node2 -->
<g id="edge121" class="edge">
<title>Node54&#45;&gt;Node2</title>
<path fill="none" stroke="#191970" d="M1569.6176,-593.2977C1571.5696,-585.2945 1573.9867,-575.3843 1576.0832,-566.7889"/>
<polygon fill="#191970" stroke="#191970" points="1579.5387,-567.3915 1578.508,-556.8469 1572.7381,-565.7328 1579.5387,-567.3915"/>
</g>
<!-- Node55&#45;&gt;Node3 -->
<g id="edge126" class="edge">
<title>Node55&#45;&gt;Node3</title>
<path fill="none" stroke="#191970" d="M1882.6024,-660.4463C1846.1553,-631.3541 1760.8645,-567.5885 1677.9097,-537 1631.618,-519.9305 1503.1439,-503.3741 1418.3232,-493.823"/>
<polygon fill="#191970" stroke="#191970" points="1418.5306,-490.3245 1408.204,-492.6934 1417.754,-497.2813 1418.5306,-490.3245"/>
</g>
<!-- Node55&#45;&gt;Node28 -->
<g id="edge124" class="edge">
<title>Node55&#45;&gt;Node28</title>
<path fill="none" stroke="#191970" d="M1890.0489,-660.2087C1876.7553,-642.3271 1852.7979,-612.6754 1826.9097,-593 1782.2843,-559.084 1766.7337,-555.7445 1713.9097,-537 1586.3836,-491.7474 1550.8685,-489.1252 1416.9097,-470 1275.0757,-449.7505 855.2725,-430.0533 671.6065,-422.1393"/>
<polygon fill="#191970" stroke="#191970" points="671.5873,-418.6354 661.4463,-421.7032 671.287,-425.6289 671.5873,-418.6354"/>
</g>
<!-- Node55&#45;&gt;Node39 -->
<g id="edge123" class="edge">
<title>Node55&#45;&gt;Node39</title>
<path fill="none" stroke="#191970" d="M1932.4747,-660.489C1980.9835,-635.45 2064.4201,-583.3302 2025.9097,-537 2001.5717,-507.72 1904.3983,-495.0063 1831.9746,-489.5383"/>
<polygon fill="#191970" stroke="#191970" points="1832.1556,-486.0424 1821.9297,-488.8139 1831.652,-493.0243 1832.1556,-486.0424"/>
</g>
<!-- Node55&#45;&gt;Node52 -->
<g id="edge125" class="edge">
<title>Node55&#45;&gt;Node52</title>
<path fill="none" stroke="#191970" d="M1963.1157,-660.4021C1984.1891,-652.5829 2006.3133,-640.9841 2021.9097,-624 2068.963,-572.7604 2094.0864,-523.7395 2049.9097,-470 1986.779,-393.2035 1684.1628,-367.7561 1545.988,-360.0515"/>
<polygon fill="#191970" stroke="#191970" points="1546.1047,-356.5528 1535.9298,-359.5059 1545.7255,-363.5425 1546.1047,-356.5528"/>
</g>
<!-- Node55&#45;&gt;Node54 -->
<g id="edge127" class="edge">
<title>Node55&#45;&gt;Node54</title>
<path fill="none" stroke="#191970" d="M1830.6828,-661.4546C1778.2851,-650.9751 1706.4526,-636.6086 1650.8266,-625.4834"/>
<polygon fill="#191970" stroke="#191970" points="1651.4823,-622.0453 1640.99,-623.5161 1650.1094,-628.9093 1651.4823,-622.0453"/>
</g>
</g>
</svg>
