<?xml version="1.0" encoding="UTF-8" standalone="no"?>
<!DOCTYPE svg PUBLIC "-//W3C//DTD SVG 1.1//EN"
 "http://www.w3.org/Graphics/SVG/1.1/DTD/svg11.dtd">
<!-- Generated by graphviz version 2.40.1 (20161225.0304)
 -->
<!-- Title: ModelLoader.cpp Pages: 1 -->
<svg width="2548pt" height="722pt"
 viewBox="0.00 0.00 2548.00 722.00" xmlns="http://www.w3.org/2000/svg" xmlns:xlink="http://www.w3.org/1999/xlink">
<g id="graph0" class="graph" transform="scale(1 1) rotate(0) translate(4 718)">
<title>ModelLoader.cpp</title>
<!-- Node0 -->
<g id="node1" class="node">
<title>Node0</title>
<polygon fill="#bfbfbf" stroke="#000000" points="1235,-694.5 1235,-713.5 1333,-713.5 1333,-694.5 1235,-694.5"/>
<text text-anchor="middle" x="1284" y="-701.5" font-family="FreeSans.ttf" font-size="10.00" fill="#000000">ModelLoader.cpp</text>
</g>
<!-- Node1 -->
<g id="node2" class="node">
<title>Node1</title>
<g id="a_node2"><a xlink:href="ModelLoader_8h.html" target="_top" xlink:title="iDynTree/ModelIO/ModelLoader.h">
<polygon fill="none" stroke="#000000" points="856,-571.5 856,-590.5 1032,-590.5 1032,-571.5 856,-571.5"/>
<text text-anchor="middle" x="944" y="-578.5" font-family="FreeSans.ttf" font-size="10.00" fill="#000000">iDynTree/ModelIO/ModelLoader.h</text>
</a>
</g>
</g>
<!-- Node0&#45;&gt;Node1 -->
<g id="edge1" class="edge">
<title>Node0&#45;&gt;Node1</title>
<path fill="none" stroke="#191970" d="M1234.6474,-700.9967C1185.1058,-696.5046 1107.516,-685.3812 1046,-658 1012.478,-643.0791 979.7004,-615.303 960.6946,-597.5071"/>
<polygon fill="#191970" stroke="#191970" points="963.0759,-594.9415 953.4304,-590.5579 958.237,-599.9997 963.0759,-594.9415"/>
</g>
<!-- Node5 -->
<g id="node6" class="node">
<title>Node5</title>
<polygon fill="none" stroke="#bfbfbf" points="1570,-56.5 1570,-75.5 1614,-75.5 1614,-56.5 1570,-56.5"/>
<text text-anchor="middle" x="1592" y="-63.5" font-family="FreeSans.ttf" font-size="10.00" fill="#000000">string</text>
</g>
<!-- Node0&#45;&gt;Node5 -->
<g id="edge127" class="edge">
<title>Node0&#45;&gt;Node5</title>
<path fill="none" stroke="#191970" d="M1234.9689,-702.6438C1044.7369,-696.7432 366,-669.4898 366,-581 366,-581 366,-581 366,-525 366,-460.4025 392.1871,-440.1973 445,-403 502.1129,-362.7741 533.335,-393.4281 598,-367 613.8754,-360.5119 614.7521,-352.4892 631,-347 773.2874,-298.9298 834.461,-381.6389 967,-311 992.4733,-297.4236 1108.4818,-125.4919 1134,-112 1171.4946,-92.1761 1461.7607,-73.5974 1559.7851,-67.8313"/>
<polygon fill="#191970" stroke="#191970" points="1560.1958,-71.3134 1569.9752,-67.2374 1559.7884,-64.3252 1560.1958,-71.3134"/>
</g>
<!-- Node43 -->
<g id="node34" class="node">
<title>Node43</title>
<polygon fill="none" stroke="#bfbfbf" points="1048.5,-347.5 1048.5,-366.5 1095.5,-366.5 1095.5,-347.5 1048.5,-347.5"/>
<text text-anchor="middle" x="1072" y="-354.5" font-family="FreeSans.ttf" font-size="10.00" fill="#000000">vector</text>
</g>
<!-- Node0&#45;&gt;Node43 -->
<g id="edge128" class="edge">
<title>Node0&#45;&gt;Node43</title>
<path fill="none" stroke="#191970" d="M1274.6723,-694.2537C1242.5825,-660.1291 1135.9172,-541.6601 1085,-423 1078.6679,-408.2433 1075.3875,-390.2984 1073.7074,-376.8472"/>
<polygon fill="#191970" stroke="#191970" points="1077.1743,-376.3496 1072.6406,-366.7738 1070.2133,-377.0869 1077.1743,-376.3496"/>
</g>
<!-- Node47 -->
<g id="node38" class="node">
<title>Node47</title>
<g id="a_node38"><a xlink:href="URDFDocument_8h.html" target="_top" xlink:title="URDFDocument.h">
<polygon fill="none" stroke="#000000" points="1543.5,-633 1543.5,-652 1646.5,-652 1646.5,-633 1543.5,-633"/>
<text text-anchor="middle" x="1595" y="-640" font-family="FreeSans.ttf" font-size="10.00" fill="#000000">URDFDocument.h</text>
</a>
</g>
</g>
<!-- Node0&#45;&gt;Node47 -->
<g id="edge70" class="edge">
<title>Node0&#45;&gt;Node47</title>
<path fill="none" stroke="#191970" d="M1332.2525,-694.4581C1387.492,-683.5345 1477.9368,-665.6492 1536.9725,-653.9749"/>
<polygon fill="#191970" stroke="#191970" points="1537.7591,-657.3872 1546.8902,-652.0137 1536.4011,-650.5202 1537.7591,-657.3872"/>
</g>
<!-- Node58 -->
<g id="node49" class="node">
<title>Node58</title>
<g id="a_node49"><a xlink:href="XMLParser_8h.html" target="_top" xlink:title="iDynTree/XMLParser.h">
<polygon fill="none" stroke="#000000" points="2352.5,-403.5 2352.5,-422.5 2473.5,-422.5 2473.5,-403.5 2352.5,-403.5"/>
<text text-anchor="middle" x="2413" y="-410.5" font-family="FreeSans.ttf" font-size="10.00" fill="#000000">iDynTree/XMLParser.h</text>
</a>
</g>
</g>
<!-- Node0&#45;&gt;Node58 -->
<g id="edge121" class="edge">
<title>Node0&#45;&gt;Node58</title>
<path fill="none" stroke="#191970" d="M1333.0186,-703.0327C1530.732,-698.4938 2259,-675.37 2259,-581 2259,-581 2259,-581 2259,-525 2259,-471.5633 2320.3955,-440.9557 2365.6557,-425.6521"/>
<polygon fill="#191970" stroke="#191970" points="2366.8876,-428.9324 2375.3274,-422.5276 2364.7356,-422.2713 2366.8876,-428.9324"/>
</g>
<!-- Node59 -->
<g id="node50" class="node">
<title>Node59</title>
<g id="a_node50"><a xlink:href="ModelSensorsTransformers_8h.html" target="_top" xlink:title="Collection of function to modify model and sensors in various ways. ">
<polygon fill="none" stroke="#000000" points="2287.5,-627.5 2287.5,-657.5 2458.5,-657.5 2458.5,-627.5 2287.5,-627.5"/>
<text text-anchor="start" x="2295.5" y="-645.5" font-family="FreeSans.ttf" font-size="10.00" fill="#000000">iDynTree/Sensors/ModelSensors</text>
<text text-anchor="middle" x="2373" y="-634.5" font-family="FreeSans.ttf" font-size="10.00" fill="#000000">Transformers.h</text>
</a>
</g>
</g>
<!-- Node0&#45;&gt;Node59 -->
<g id="edge126" class="edge">
<title>Node0&#45;&gt;Node59</title>
<path fill="none" stroke="#191970" d="M1333.0166,-703.5789C1477.3813,-701.9395 1913.4176,-694.1248 2273,-658 2274.4749,-657.8518 2275.9612,-657.6966 2277.4566,-657.5349"/>
<polygon fill="#191970" stroke="#191970" points="2277.9009,-661.0069 2287.4324,-656.3809 2277.0964,-654.0533 2277.9009,-661.0069"/>
</g>
<!-- Node2 -->
<g id="node3" class="node">
<title>Node2</title>
<g id="a_node3"><a xlink:href="Model_8h.html" target="_top" xlink:title="iDynTree/Model/Model.h">
<polygon fill="none" stroke="#000000" points="758.5,-459.5 758.5,-478.5 891.5,-478.5 891.5,-459.5 758.5,-459.5"/>
<text text-anchor="middle" x="825" y="-466.5" font-family="FreeSans.ttf" font-size="10.00" fill="#000000">iDynTree/Model/Model.h</text>
</a>
</g>
</g>
<!-- Node1&#45;&gt;Node2 -->
<g id="edge2" class="edge">
<title>Node1&#45;&gt;Node2</title>
<path fill="none" stroke="#191970" d="M939.3296,-571.0662C932.4503,-557.2221 918.4959,-531.9251 901,-515 887.7239,-502.157 870.2358,-491.2628 855.3824,-483.3049"/>
<polygon fill="#191970" stroke="#191970" points="856.5654,-479.9772 846.0729,-478.5085 853.3594,-486.1999 856.5654,-479.9772"/>
</g>
<!-- Node1&#45;&gt;Node5 -->
<g id="edge68" class="edge">
<title>Node1&#45;&gt;Node5</title>
<path fill="none" stroke="#191970" d="M855.7871,-578.5433C688.5226,-570.7579 351.3498,-538.3019 461,-403 509.6258,-342.9986 557.7387,-391.4422 631,-367 650.9938,-360.3295 653.7015,-352.6761 674,-347 814.3843,-307.7439 871.9885,-380.7269 1000,-311 1050.0761,-283.7239 1111.8774,-139.1906 1162,-112 1230.6569,-74.7548 1471.7704,-67.6658 1559.6467,-66.3169"/>
<polygon fill="#191970" stroke="#191970" points="1559.8684,-69.8142 1569.8191,-66.1763 1559.7716,-62.8149 1559.8684,-69.8142"/>
</g>
<!-- Node1&#45;&gt;Node43 -->
<g id="edge69" class="edge">
<title>Node1&#45;&gt;Node43</title>
<path fill="none" stroke="#191970" d="M943.3482,-571.3375C941.9192,-542.5209 941.4212,-455.9037 982,-403 996.0055,-384.7407 1019.2795,-373.1175 1038.6508,-366.123"/>
<polygon fill="#191970" stroke="#191970" points="1039.9822,-369.3683 1048.3553,-362.8766 1037.7614,-362.7299 1039.9822,-369.3683"/>
</g>
<!-- Node44 -->
<g id="node35" class="node">
<title>Node44</title>
<g id="a_node35"><a xlink:href="Sensors_8h.html" target="_top" xlink:title="iDynTree/Sensors/Sensors.h">
<polygon fill="none" stroke="#000000" points="740.5,-515.5 740.5,-534.5 891.5,-534.5 891.5,-515.5 740.5,-515.5"/>
<text text-anchor="middle" x="816" y="-522.5" font-family="FreeSans.ttf" font-size="10.00" fill="#000000">iDynTree/Sensors/Sensors.h</text>
</a>
</g>
</g>
<!-- Node1&#45;&gt;Node44 -->
<g id="edge57" class="edge">
<title>Node1&#45;&gt;Node44</title>
<path fill="none" stroke="#191970" d="M921.996,-571.3733C901.3565,-562.3435 870.2842,-548.7494 847.1111,-538.6111"/>
<polygon fill="#191970" stroke="#191970" points="848.2813,-535.3028 837.7169,-534.5011 845.4755,-541.7159 848.2813,-535.3028"/>
</g>
<!-- Node46 -->
<g id="node37" class="node">
<title>Node46</title>
<polygon fill="none" stroke="#bfbfbf" points="1758,-347.5 1758,-366.5 1816,-366.5 1816,-347.5 1758,-347.5"/>
<text text-anchor="middle" x="1787" y="-354.5" font-family="FreeSans.ttf" font-size="10.00" fill="#000000">memory</text>
</g>
<!-- Node1&#45;&gt;Node46 -->
<g id="edge67" class="edge">
<title>Node1&#45;&gt;Node46</title>
<path fill="none" stroke="#191970" d="M979.953,-571.4467C1116.8473,-535.0714 1604.9693,-405.3688 1747.5967,-367.4701"/>
<polygon fill="#191970" stroke="#191970" points="1748.8787,-370.751 1757.6445,-364.8003 1747.081,-363.9858 1748.8787,-370.751"/>
</g>
<!-- Node3 -->
<g id="node4" class="node">
<title>Node3</title>
<g id="a_node4"><a xlink:href="IJoint_8h.html" target="_top" xlink:title="iDynTree/Model/IJoint.h">
<polygon fill="none" stroke="#000000" points="688,-403.5 688,-422.5 816,-422.5 816,-403.5 688,-403.5"/>
<text text-anchor="middle" x="752" y="-410.5" font-family="FreeSans.ttf" font-size="10.00" fill="#000000">iDynTree/Model/IJoint.h</text>
</a>
</g>
</g>
<!-- Node2&#45;&gt;Node3 -->
<g id="edge3" class="edge">
<title>Node2&#45;&gt;Node3</title>
<path fill="none" stroke="#191970" d="M812.2844,-459.2455C801.398,-450.8943 785.5117,-438.7076 772.78,-428.9408"/>
<polygon fill="#191970" stroke="#191970" points="774.6346,-425.9523 764.5699,-422.6427 770.3739,-431.5063 774.6346,-425.9523"/>
</g>
<!-- Node4 -->
<g id="node5" class="node">
<title>Node4</title>
<g id="a_node5"><a xlink:href="Indices_8h.html" target="_top" xlink:title="iDynTree/Model/Indices.h">
<polygon fill="none" stroke="#000000" points="683,-347.5 683,-366.5 821,-366.5 821,-347.5 683,-347.5"/>
<text text-anchor="middle" x="752" y="-354.5" font-family="FreeSans.ttf" font-size="10.00" fill="#000000">iDynTree/Model/Indices.h</text>
</a>
</g>
</g>
<!-- Node2&#45;&gt;Node4 -->
<g id="edge49" class="edge">
<title>Node2&#45;&gt;Node4</title>
<path fill="none" stroke="#191970" d="M773.6518,-459.4847C736.3472,-451.4058 690.4731,-438.6439 679,-423 663.7915,-402.2628 691.7019,-383.0952 717.2849,-370.8201"/>
<polygon fill="#191970" stroke="#191970" points="718.8671,-373.9455 726.5208,-366.6194 715.969,-367.5736 718.8671,-373.9455"/>
</g>
<!-- Node7 -->
<g id="node8" class="node">
<title>Node7</title>
<g id="a_node8"><a xlink:href="Link_8h.html" target="_top" xlink:title="iDynTree/Model/Link.h">
<polygon fill="none" stroke="#000000" points="470,-403.5 470,-422.5 594,-422.5 594,-403.5 470,-403.5"/>
<text text-anchor="middle" x="532" y="-410.5" font-family="FreeSans.ttf" font-size="10.00" fill="#000000">iDynTree/Model/Link.h</text>
</a>
</g>
</g>
<!-- Node2&#45;&gt;Node7 -->
<g id="edge7" class="edge">
<title>Node2&#45;&gt;Node7</title>
<path fill="none" stroke="#191970" d="M774.9644,-459.4369C724.293,-449.7522 645.9052,-434.7703 591.9441,-424.4569"/>
<polygon fill="#191970" stroke="#191970" points="592.3085,-420.9633 581.8292,-422.5237 590.9943,-427.8388 592.3085,-420.9633"/>
</g>
<!-- Node40 -->
<g id="node24" class="node">
<title>Node40</title>
<g id="a_node24"><a xlink:href="Transform_8h.html" target="_top" xlink:title="iDynTree/Core/Transform.h">
<polygon fill="none" stroke="#000000" points="1346,-347.5 1346,-366.5 1492,-366.5 1492,-347.5 1346,-347.5"/>
<text text-anchor="middle" x="1419" y="-354.5" font-family="FreeSans.ttf" font-size="10.00" fill="#000000">iDynTree/Core/Transform.h</text>
</a>
</g>
</g>
<!-- Node2&#45;&gt;Node40 -->
<g id="edge26" class="edge">
<title>Node2&#45;&gt;Node40</title>
<path fill="none" stroke="#191970" d="M873.8227,-459.4648C940.3204,-446.5098 1063.1063,-422.7032 1168,-403 1232.0864,-390.962 1305.4525,-377.5604 1356.2426,-368.3425"/>
<polygon fill="#191970" stroke="#191970" points="1356.8753,-371.785 1366.0901,-366.5564 1355.626,-364.8973 1356.8753,-371.785"/>
</g>
<!-- Node41 -->
<g id="node32" class="node">
<title>Node41</title>
<g id="a_node32"><a xlink:href="SolidShapes_8h.html" target="_top" xlink:title="iDynTree/Model/SolidShapes.h">
<polygon fill="none" stroke="#000000" points="1176.5,-403.5 1176.5,-422.5 1339.5,-422.5 1339.5,-403.5 1176.5,-403.5"/>
<text text-anchor="middle" x="1258" y="-410.5" font-family="FreeSans.ttf" font-size="10.00" fill="#000000">iDynTree/Model/SolidShapes.h</text>
</a>
</g>
</g>
<!-- Node2&#45;&gt;Node41 -->
<g id="edge50" class="edge">
<title>Node2&#45;&gt;Node41</title>
<path fill="none" stroke="#191970" d="M891.7073,-460.3727C967.6547,-450.5504 1091.8388,-434.4897 1174.2418,-423.8325"/>
<polygon fill="#191970" stroke="#191970" points="1174.8596,-427.2818 1184.3281,-422.528 1173.9617,-420.3396 1174.8596,-427.2818"/>
</g>
<!-- Node42 -->
<g id="node33" class="node">
<title>Node42</title>
<polygon fill="none" stroke="#bfbfbf" points="910.5,-347.5 910.5,-366.5 959.5,-366.5 959.5,-347.5 910.5,-347.5"/>
<text text-anchor="middle" x="935" y="-354.5" font-family="FreeSans.ttf" font-size="10.00" fill="#000000">cstdlib</text>
</g>
<!-- Node2&#45;&gt;Node42 -->
<g id="edge55" class="edge">
<title>Node2&#45;&gt;Node42</title>
<path fill="none" stroke="#191970" d="M829.8076,-459.204C836.8499,-445.5236 850.9968,-420.42 868,-403 879.9313,-390.7763 895.5615,-379.8266 908.7239,-371.6795"/>
<polygon fill="#191970" stroke="#191970" points="910.584,-374.6453 917.3663,-366.5059 906.9885,-368.6392 910.584,-374.6453"/>
</g>
<!-- Node2&#45;&gt;Node43 -->
<g id="edge56" class="edge">
<title>Node2&#45;&gt;Node43</title>
<path fill="none" stroke="#191970" d="M834.0397,-459.4436C848.1043,-445.1217 876.6712,-418.1579 906,-403 948.856,-380.8509 1003.6145,-368.3505 1038.259,-362.1336"/>
<polygon fill="#191970" stroke="#191970" points="1039.0672,-365.5461 1048.3295,-360.4022 1037.881,-358.6473 1039.0672,-365.5461"/>
</g>
<!-- Node3&#45;&gt;Node4 -->
<g id="edge4" class="edge">
<title>Node3&#45;&gt;Node4</title>
<path fill="none" stroke="#191970" d="M752,-403.2455C752,-395.9382 752,-385.6944 752,-376.7046"/>
<polygon fill="#191970" stroke="#191970" points="755.5001,-376.6426 752,-366.6427 748.5001,-376.6427 755.5001,-376.6426"/>
</g>
<!-- Node4&#45;&gt;Node5 -->
<g id="edge5" class="edge">
<title>Node4&#45;&gt;Node5</title>
<path fill="none" stroke="#191970" d="M821.3861,-351.0729C931.5505,-341.359 1135.3087,-322.0303 1147,-311 1212.3192,-249.3737 1116.5513,-173.4888 1182,-112 1209.3983,-86.2594 1467.5902,-71.8013 1559.6165,-67.4318"/>
<polygon fill="#191970" stroke="#191970" points="1559.9151,-70.9218 1569.7414,-66.9601 1559.5893,-63.9293 1559.9151,-70.9218"/>
</g>
<!-- Node6 -->
<g id="node7" class="node">
<title>Node6</title>
<polygon fill="none" stroke="#bfbfbf" points="1052,-286 1052,-305 1138,-305 1138,-286 1052,-286"/>
<text text-anchor="middle" x="1095" y="-293" font-family="FreeSans.ttf" font-size="10.00" fill="#000000">ModelExport.h</text>
</g>
<!-- Node4&#45;&gt;Node6 -->
<g id="edge6" class="edge">
<title>Node4&#45;&gt;Node6</title>
<path fill="none" stroke="#191970" d="M821.151,-347.9731C879.314,-339.8806 964.5061,-326.8562 1038,-311 1042.7021,-309.9855 1047.5948,-308.8224 1052.4502,-307.5993"/>
<polygon fill="#191970" stroke="#191970" points="1053.4986,-310.943 1062.2916,-305.0325 1051.732,-304.1696 1053.4986,-310.943"/>
</g>
<!-- Node7&#45;&gt;Node4 -->
<g id="edge25" class="edge">
<title>Node7&#45;&gt;Node4</title>
<path fill="none" stroke="#191970" d="M569.8193,-403.3733C607.1938,-393.8598 664.4724,-379.2797 704.8071,-369.0127"/>
<polygon fill="#191970" stroke="#191970" points="705.8466,-372.3598 714.6742,-366.5011 704.1198,-365.5761 705.8466,-372.3598"/>
</g>
<!-- Node8 -->
<g id="node9" class="node">
<title>Node8</title>
<g id="a_node9"><a xlink:href="SpatialInertia_8h.html" target="_top" xlink:title="iDynTree/Core/SpatialInertia.h">
<polygon fill="none" stroke="#000000" points="427,-347.5 427,-366.5 589,-366.5 589,-347.5 427,-347.5"/>
<text text-anchor="middle" x="508" y="-354.5" font-family="FreeSans.ttf" font-size="10.00" fill="#000000">iDynTree/Core/SpatialInertia.h</text>
</a>
</g>
</g>
<!-- Node7&#45;&gt;Node8 -->
<g id="edge8" class="edge">
<title>Node7&#45;&gt;Node8</title>
<path fill="none" stroke="#191970" d="M527.8195,-403.2455C524.619,-395.7776 520.104,-385.2427 516.1916,-376.1137"/>
<polygon fill="#191970" stroke="#191970" points="519.2888,-374.4554 512.1326,-366.6427 512.8548,-377.2129 519.2888,-374.4554"/>
</g>
<!-- Node9 -->
<g id="node10" class="node">
<title>Node9</title>
<g id="a_node10"><a xlink:href="SpatialInertiaRaw_8h.html" target="_top" xlink:title="iDynTree/Core/SpatialInertia\lRaw.h">
<polygon fill="none" stroke="#ff0000" points="142.5,-280.5 142.5,-310.5 295.5,-310.5 295.5,-280.5 142.5,-280.5"/>
<text text-anchor="start" x="150.5" y="-298.5" font-family="FreeSans.ttf" font-size="10.00" fill="#000000">iDynTree/Core/SpatialInertia</text>
<text text-anchor="middle" x="219" y="-287.5" font-family="FreeSans.ttf" font-size="10.00" fill="#000000">Raw.h</text>
</a>
</g>
</g>
<!-- Node8&#45;&gt;Node9 -->
<g id="edge9" class="edge">
<title>Node8&#45;&gt;Node9</title>
<path fill="none" stroke="#191970" d="M463.1608,-347.4581C419.5944,-338.187 352.4626,-323.9012 299.6095,-312.6539"/>
<polygon fill="#191970" stroke="#191970" points="300.0881,-309.1775 289.5786,-310.5193 298.631,-316.0242 300.0881,-309.1775"/>
</g>
<!-- Node19 -->
<g id="node11" class="node">
<title>Node19</title>
<g id="a_node11"><a xlink:href="VectorFixSize_8h.html" target="_top" xlink:title="iDynTree/Core/VectorFixSize.h">
<polygon fill="none" stroke="#000000" points="892.5,-112.5 892.5,-131.5 1053.5,-131.5 1053.5,-112.5 892.5,-112.5"/>
<text text-anchor="middle" x="973" y="-119.5" font-family="FreeSans.ttf" font-size="10.00" fill="#000000">iDynTree/Core/VectorFixSize.h</text>
</a>
</g>
</g>
<!-- Node8&#45;&gt;Node19 -->
<g id="edge10" class="edge">
<title>Node8&#45;&gt;Node19</title>
<path fill="none" stroke="#191970" d="M426.6279,-352.6633C322.1991,-346.251 152.1248,-332.6142 133,-311 123.87,-300.6816 124.2041,-290.6047 133,-280 180.7984,-222.3728 675.2998,-157.4089 882.473,-132.4921"/>
<polygon fill="#191970" stroke="#191970" points="882.9048,-135.9655 892.4173,-131.3003 882.0718,-129.0152 882.9048,-135.9655"/>
</g>
<!-- Node28 -->
<g id="node20" class="node">
<title>Node28</title>
<g id="a_node20"><a xlink:href="Twist_8h.html" target="_top" xlink:title="iDynTree/Core/Twist.h">
<polygon fill="none" stroke="#ff0000" points="314,-286 314,-305 436,-305 436,-286 314,-286"/>
<text text-anchor="middle" x="375" y="-293" font-family="FreeSans.ttf" font-size="10.00" fill="#000000">iDynTree/Core/Twist.h</text>
</a>
</g>
</g>
<!-- Node8&#45;&gt;Node28 -->
<g id="edge21" class="edge">
<title>Node8&#45;&gt;Node28</title>
<path fill="none" stroke="#191970" d="M487.2188,-347.3906C465.1606,-337.1908 430.095,-320.9763 405.0331,-309.3875"/>
<polygon fill="#191970" stroke="#191970" points="406.1809,-306.0622 395.6353,-305.0419 403.2429,-312.4158 406.1809,-306.0622"/>
</g>
<!-- Node36 -->
<g id="node21" class="node">
<title>Node36</title>
<g id="a_node21"><a xlink:href="SpatialMomentum_8h.html" target="_top" xlink:title="iDynTree/Core/SpatialMomentum.h">
<polygon fill="none" stroke="#ff0000" points="454,-286 454,-305 640,-305 640,-286 454,-286"/>
<text text-anchor="middle" x="547" y="-293" font-family="FreeSans.ttf" font-size="10.00" fill="#000000">iDynTree/Core/SpatialMomentum.h</text>
</a>
</g>
</g>
<!-- Node8&#45;&gt;Node36 -->
<g id="edge22" class="edge">
<title>Node8&#45;&gt;Node36</title>
<path fill="none" stroke="#191970" d="M514.0938,-347.3906C519.7843,-338.417 528.4272,-324.7879 535.4274,-313.7491"/>
<polygon fill="#191970" stroke="#191970" points="538.4207,-315.5644 540.8203,-305.2449 532.5091,-311.8155 538.4207,-315.5644"/>
</g>
<!-- Node38 -->
<g id="node22" class="node">
<title>Node38</title>
<g id="a_node22"><a xlink:href="SpatialAcc_8h.html" target="_top" xlink:title="iDynTree/Core/SpatialAcc.h">
<polygon fill="none" stroke="#ff0000" points="658,-286 658,-305 806,-305 806,-286 658,-286"/>
<text text-anchor="middle" x="732" y="-293" font-family="FreeSans.ttf" font-size="10.00" fill="#000000">iDynTree/Core/SpatialAcc.h</text>
</a>
</g>
</g>
<!-- Node8&#45;&gt;Node38 -->
<g id="edge23" class="edge">
<title>Node8&#45;&gt;Node38</title>
<path fill="none" stroke="#191970" d="M543,-347.3906C581.9588,-336.6944 645.0093,-319.3836 687.4571,-307.7294"/>
<polygon fill="#191970" stroke="#191970" points="688.5293,-311.0646 697.2458,-305.0419 686.6759,-304.3144 688.5293,-311.0646"/>
</g>
<!-- Node39 -->
<g id="node23" class="node">
<title>Node39</title>
<g id="a_node23"><a xlink:href="Wrench_8h.html" target="_top" xlink:title="iDynTree/Core/Wrench.h">
<polygon fill="none" stroke="#ff0000" points="824.5,-286 824.5,-305 957.5,-305 957.5,-286 824.5,-286"/>
<text text-anchor="middle" x="891" y="-293" font-family="FreeSans.ttf" font-size="10.00" fill="#000000">iDynTree/Core/Wrench.h</text>
</a>
</g>
</g>
<!-- Node8&#45;&gt;Node39 -->
<g id="edge24" class="edge">
<title>Node8&#45;&gt;Node39</title>
<path fill="none" stroke="#191970" d="M578.5868,-347.4956C640.9217,-338.8471 734.1997,-325.2828 815,-311 821.7711,-309.8031 828.8648,-308.467 835.8829,-307.0948"/>
<polygon fill="#191970" stroke="#191970" points="836.9392,-310.4534 846.0648,-305.0707 835.5743,-303.5878 836.9392,-310.4534"/>
</g>
<!-- Node19&#45;&gt;Node5 -->
<g id="edge17" class="edge">
<title>Node19&#45;&gt;Node5</title>
<path fill="none" stroke="#191970" d="M1053.5836,-113.42C1058.4608,-112.931 1063.2954,-112.4541 1068,-112 1253.9493,-94.0527 1477.3127,-75.4156 1559.5611,-68.6511"/>
<polygon fill="#191970" stroke="#191970" points="1560.0899,-72.1195 1569.7699,-67.8129 1559.517,-65.143 1560.0899,-72.1195"/>
</g>
<!-- Node12 -->
<g id="node12" class="node">
<title>Node12</title>
<g id="a_node12"><a xlink:href="Utils_8h.html" target="_top" xlink:title="iDynTree/Core/Utils.h">
<polygon fill="none" stroke="#ff0000" points="1217.5,-56.5 1217.5,-75.5 1336.5,-75.5 1336.5,-56.5 1217.5,-56.5"/>
<text text-anchor="middle" x="1277" y="-63.5" font-family="FreeSans.ttf" font-size="10.00" fill="#000000">iDynTree/Core/Utils.h</text>
</a>
</g>
</g>
<!-- Node19&#45;&gt;Node12 -->
<g id="edge11" class="edge">
<title>Node19&#45;&gt;Node12</title>
<path fill="none" stroke="#191970" d="M1024.914,-112.4369C1077.5971,-102.7321 1159.1568,-87.708 1215.1543,-77.3926"/>
<polygon fill="#191970" stroke="#191970" points="1216.0996,-80.7775 1225.3001,-75.5237 1214.8314,-73.8933 1216.0996,-80.7775"/>
</g>
<!-- Node20 -->
<g id="node13" class="node">
<title>Node20</title>
<g id="a_node13"><a xlink:href="Span_8h.html" target="_top" xlink:title="iDynTree/Core/Span.h">
<polygon fill="none" stroke="#ff0000" points="643.5,-56.5 643.5,-75.5 764.5,-75.5 764.5,-56.5 643.5,-56.5"/>
<text text-anchor="middle" x="704" y="-63.5" font-family="FreeSans.ttf" font-size="10.00" fill="#000000">iDynTree/Core/Span.h</text>
</a>
</g>
</g>
<!-- Node19&#45;&gt;Node20 -->
<g id="edge12" class="edge">
<title>Node19&#45;&gt;Node20</title>
<path fill="none" stroke="#191970" d="M927.0629,-112.4369C880.7355,-102.7925 809.1732,-87.8948 759.6531,-77.5858"/>
<polygon fill="#191970" stroke="#191970" points="760.2511,-74.1353 749.7476,-75.5237 758.8244,-80.9884 760.2511,-74.1353"/>
</g>
<!-- Node15 -->
<g id="node14" class="node">
<title>Node15</title>
<polygon fill="none" stroke="#bfbfbf" points="767,-.5 767,-19.5 819,-19.5 819,-.5 767,-.5"/>
<text text-anchor="middle" x="793" y="-7.5" font-family="FreeSans.ttf" font-size="10.00" fill="#000000">cassert</text>
</g>
<!-- Node19&#45;&gt;Node15 -->
<g id="edge19" class="edge">
<title>Node19&#45;&gt;Node15</title>
<path fill="none" stroke="#191970" d="M973.0055,-112.4866C972.4834,-98.221 969.3603,-71.3296 954,-56 936.5015,-38.5365 871.1855,-23.9729 829.316,-16.1646"/>
<polygon fill="#191970" stroke="#191970" points="829.6849,-12.6743 819.2198,-14.3274 828.4316,-19.5612 829.6849,-12.6743"/>
</g>
<!-- Node18 -->
<g id="node18" class="node">
<title>Node18</title>
<polygon fill="none" stroke="#bfbfbf" points="889,-56.5 889,-75.5 945,-75.5 945,-56.5 889,-56.5"/>
<text text-anchor="middle" x="917" y="-63.5" font-family="FreeSans.ttf" font-size="10.00" fill="#000000">sstream</text>
</g>
<!-- Node19&#45;&gt;Node18 -->
<g id="edge18" class="edge">
<title>Node19&#45;&gt;Node18</title>
<path fill="none" stroke="#191970" d="M963.2455,-112.2455C955.1352,-104.1352 943.4075,-92.4075 933.7919,-82.7919"/>
<polygon fill="#191970" stroke="#191970" points="936.1887,-80.2389 926.6427,-75.6427 931.2389,-85.1887 936.1887,-80.2389"/>
</g>
<!-- Node16 -->
<g id="node19" class="node">
<title>Node16</title>
<polygon fill="none" stroke="#bfbfbf" points="821,-56.5 821,-75.5 871,-75.5 871,-56.5 821,-56.5"/>
<text text-anchor="middle" x="846" y="-63.5" font-family="FreeSans.ttf" font-size="10.00" fill="#000000">cstring</text>
</g>
<!-- Node19&#45;&gt;Node16 -->
<g id="edge20" class="edge">
<title>Node19&#45;&gt;Node16</title>
<path fill="none" stroke="#191970" d="M951.1679,-112.3733C930.6897,-103.3435 899.8601,-89.7494 876.8681,-79.6111"/>
<polygon fill="#191970" stroke="#191970" points="878.1093,-76.3333 867.5472,-75.5011 875.285,-82.7383 878.1093,-76.3333"/>
</g>
<!-- Node20&#45;&gt;Node15 -->
<g id="edge13" class="edge">
<title>Node20&#45;&gt;Node15</title>
<path fill="none" stroke="#191970" d="M719.5026,-56.2455C733.158,-47.6534 753.2657,-35.0014 768.9989,-25.1018"/>
<polygon fill="#191970" stroke="#191970" points="771.0751,-27.9307 777.675,-19.6427 767.3471,-22.006 771.0751,-27.9307"/>
</g>
<!-- Node21 -->
<g id="node15" class="node">
<title>Node21</title>
<polygon fill="none" stroke="#bfbfbf" points="613,-.5 613,-19.5 677,-19.5 677,-.5 613,-.5"/>
<text text-anchor="middle" x="645" y="-7.5" font-family="FreeSans.ttf" font-size="10.00" fill="#000000">algorithm</text>
</g>
<!-- Node20&#45;&gt;Node21 -->
<g id="edge14" class="edge">
<title>Node20&#45;&gt;Node21</title>
<path fill="none" stroke="#191970" d="M693.723,-56.2455C685.1782,-48.1352 672.8222,-36.4075 662.6915,-26.7919"/>
<polygon fill="#191970" stroke="#191970" points="664.8218,-23.9884 655.1592,-19.6427 660.0028,-29.0655 664.8218,-23.9884"/>
</g>
<!-- Node22 -->
<g id="node16" class="node">
<title>Node22</title>
<polygon fill="none" stroke="#bfbfbf" points="695,-.5 695,-19.5 737,-19.5 737,-.5 695,-.5"/>
<text text-anchor="middle" x="716" y="-7.5" font-family="FreeSans.ttf" font-size="10.00" fill="#000000">array</text>
</g>
<!-- Node20&#45;&gt;Node22 -->
<g id="edge15" class="edge">
<title>Node20&#45;&gt;Node22</title>
<path fill="none" stroke="#191970" d="M706.0902,-56.2455C707.6561,-48.9382 709.8512,-38.6944 711.7776,-29.7046"/>
<polygon fill="#191970" stroke="#191970" points="715.2607,-30.1541 713.9337,-19.6427 708.416,-28.6873 715.2607,-30.1541"/>
</g>
<!-- Node23 -->
<g id="node17" class="node">
<title>Node23</title>
<polygon fill="none" stroke="#bfbfbf" points="255.5,-.5 255.5,-19.5 308.5,-19.5 308.5,-.5 255.5,-.5"/>
<text text-anchor="middle" x="282" y="-7.5" font-family="FreeSans.ttf" font-size="10.00" fill="#000000">iterator</text>
</g>
<!-- Node20&#45;&gt;Node23 -->
<g id="edge16" class="edge">
<title>Node20&#45;&gt;Node23</title>
<path fill="none" stroke="#191970" d="M643.2998,-57.2833C640.1551,-56.8459 637.0407,-56.4159 634,-56 518.894,-40.2576 382.4459,-22.7573 318.4982,-14.6237"/>
<polygon fill="#191970" stroke="#191970" points="318.87,-11.1428 308.5086,-13.3543 317.9876,-18.087 318.87,-11.1428"/>
</g>
<!-- Node40&#45;&gt;Node5 -->
<g id="edge48" class="edge">
<title>Node40&#45;&gt;Node5</title>
<path fill="none" stroke="#191970" d="M1428.5995,-347.4539C1447.1256,-327.9639 1486,-281.4176 1486,-234 1486,-234 1486,-234 1486,-178 1486,-132.9213 1531.8565,-98.6897 1563.2472,-80.5376"/>
<polygon fill="#191970" stroke="#191970" points="1565.0226,-83.5552 1572.0622,-75.6372 1561.6214,-77.437 1565.0226,-83.5552"/>
</g>
<!-- Node32 -->
<g id="node25" class="node">
<title>Node32</title>
<g id="a_node25"><a xlink:href="Position_8h.html" target="_top" xlink:title="Position.h">
<polygon fill="none" stroke="#000000" points="1559.5,-286 1559.5,-305 1624.5,-305 1624.5,-286 1559.5,-286"/>
<text text-anchor="middle" x="1592" y="-293" font-family="FreeSans.ttf" font-size="10.00" fill="#000000">Position.h</text>
</a>
</g>
</g>
<!-- Node40&#45;&gt;Node32 -->
<g id="edge27" class="edge">
<title>Node40&#45;&gt;Node32</title>
<path fill="none" stroke="#191970" d="M1446.0313,-347.3906C1475.4851,-336.92 1522.7689,-320.1111 1555.5027,-308.4745"/>
<polygon fill="#191970" stroke="#191970" points="1556.9086,-311.6893 1565.1586,-305.0419 1554.5639,-305.0937 1556.9086,-311.6893"/>
</g>
<!-- Node34 -->
<g id="node27" class="node">
<title>Node34</title>
<g id="a_node27"><a xlink:href="Rotation_8h.html" target="_top" xlink:title="iDynTree/Core/Rotation.h">
<polygon fill="none" stroke="#000000" points="1318.5,-224.5 1318.5,-243.5 1455.5,-243.5 1455.5,-224.5 1318.5,-224.5"/>
<text text-anchor="middle" x="1387" y="-231.5" font-family="FreeSans.ttf" font-size="10.00" fill="#000000">iDynTree/Core/Rotation.h</text>
</a>
</g>
</g>
<!-- Node40&#45;&gt;Node34 -->
<g id="edge46" class="edge">
<title>Node40&#45;&gt;Node34</title>
<path fill="none" stroke="#191970" d="M1416.489,-347.3484C1411.2315,-327.1397 1398.9786,-280.0427 1392.0349,-253.3528"/>
<polygon fill="#191970" stroke="#191970" points="1395.4045,-252.4034 1389.4993,-243.6068 1388.63,-254.1659 1395.4045,-252.4034"/>
</g>
<!-- Node11 -->
<g id="node30" class="node">
<title>Node11</title>
<g id="a_node30"><a xlink:href="MatrixFixSize_8h.html" target="_top" xlink:title="iDynTree/Core/MatrixFixSize.h">
<polygon fill="none" stroke="#000000" points="713.5,-112.5 713.5,-131.5 874.5,-131.5 874.5,-112.5 713.5,-112.5"/>
<text text-anchor="middle" x="794" y="-119.5" font-family="FreeSans.ttf" font-size="10.00" fill="#000000">iDynTree/Core/MatrixFixSize.h</text>
</a>
</g>
</g>
<!-- Node40&#45;&gt;Node11 -->
<g id="edge47" class="edge">
<title>Node40&#45;&gt;Node11</title>
<path fill="none" stroke="#191970" d="M1385.5378,-347.3836C1334.2501,-332.6769 1233.093,-303.7987 1147,-280 995.6998,-238.1761 912.2585,-303.5427 806,-188 794.6921,-175.7041 792.2886,-156.4671 792.3612,-141.9273"/>
<polygon fill="#191970" stroke="#191970" points="795.8587,-142.0587 792.7929,-131.9171 788.8652,-141.757 795.8587,-142.0587"/>
</g>
<!-- Node32&#45;&gt;Node5 -->
<g id="edge45" class="edge">
<title>Node32&#45;&gt;Node5</title>
<path fill="none" stroke="#191970" d="M1603.9663,-285.7817C1624.0791,-268.5806 1663.9389,-230.5508 1679,-188 1694.3267,-144.6987 1647.1229,-103.0912 1616.3553,-81.4405"/>
<polygon fill="#191970" stroke="#191970" points="1618.0392,-78.3532 1607.8003,-75.6299 1614.1061,-84.1439 1618.0392,-78.3532"/>
</g>
<!-- Node33 -->
<g id="node26" class="node">
<title>Node33</title>
<g id="a_node26"><a xlink:href="PositionRaw_8h.html" target="_top" xlink:title="iDynTree/Core/PositionRaw.h">
<polygon fill="none" stroke="#000000" points="1514,-168.5 1514,-187.5 1670,-187.5 1670,-168.5 1514,-168.5"/>
<text text-anchor="middle" x="1592" y="-175.5" font-family="FreeSans.ttf" font-size="10.00" fill="#000000">iDynTree/Core/PositionRaw.h</text>
</a>
</g>
</g>
<!-- Node32&#45;&gt;Node33 -->
<g id="edge28" class="edge">
<title>Node32&#45;&gt;Node33</title>
<path fill="none" stroke="#191970" d="M1592,-285.8845C1592,-266.6913 1592,-223.286 1592,-197.7663"/>
<polygon fill="#191970" stroke="#191970" points="1595.5001,-197.7483 1592,-187.7484 1588.5001,-197.7484 1595.5001,-197.7483"/>
</g>
<!-- Node32&#45;&gt;Node34 -->
<g id="edge31" class="edge">
<title>Node32&#45;&gt;Node34</title>
<path fill="none" stroke="#191970" d="M1559.9688,-285.8906C1524.6154,-275.2846 1467.5843,-258.1753 1428.7522,-246.5257"/>
<polygon fill="#191970" stroke="#191970" points="1429.3903,-243.0631 1418.8063,-243.5419 1427.3788,-249.7678 1429.3903,-243.0631"/>
</g>
<!-- Node33&#45;&gt;Node5 -->
<g id="edge30" class="edge">
<title>Node33&#45;&gt;Node5</title>
<path fill="none" stroke="#191970" d="M1592,-168.4509C1592,-150.184 1592,-109.9553 1592,-85.6976"/>
<polygon fill="#191970" stroke="#191970" points="1595.5001,-85.5249 1592,-75.5249 1588.5001,-85.5249 1595.5001,-85.5249"/>
</g>
<!-- Node33&#45;&gt;Node19 -->
<g id="edge29" class="edge">
<title>Node33&#45;&gt;Node19</title>
<path fill="none" stroke="#191970" d="M1513.9169,-170.9359C1399.1623,-160.5543 1185.4462,-141.2197 1063.827,-130.217"/>
<polygon fill="#191970" stroke="#191970" points="1064.0672,-126.7245 1053.7925,-129.3092 1063.4365,-133.696 1064.0672,-126.7245"/>
</g>
<!-- Node34&#45;&gt;Node5 -->
<g id="edge32" class="edge">
<title>Node34&#45;&gt;Node5</title>
<path fill="none" stroke="#191970" d="M1397.0332,-224.3323C1406.0102,-215.3898 1419.2231,-201.4819 1429,-188 1451.7837,-156.5822 1442.5933,-137.3263 1472,-112 1497.2228,-90.2771 1533.8041,-78.2503 1559.9377,-71.9961"/>
<polygon fill="#191970" stroke="#191970" points="1560.7476,-75.4015 1569.7415,-69.8015 1559.2184,-68.5705 1560.7476,-75.4015"/>
</g>
<!-- Node34&#45;&gt;Node19 -->
<g id="edge44" class="edge">
<title>Node34&#45;&gt;Node19</title>
<path fill="none" stroke="#191970" d="M1351.7026,-224.4509C1276.6181,-204.1382 1101.1529,-156.6694 1018.1035,-134.2019"/>
<polygon fill="#191970" stroke="#191970" points="1018.7751,-130.7578 1008.2081,-131.5249 1016.947,-137.5149 1018.7751,-130.7578"/>
</g>
<!-- Node30 -->
<g id="node28" class="node">
<title>Node30</title>
<g id="a_node28"><a xlink:href="GeomVector3_8h.html" target="_top" xlink:title="iDynTree/Core/GeomVector3.h">
<polygon fill="none" stroke="#000000" points="814.5,-168.5 814.5,-187.5 977.5,-187.5 977.5,-168.5 814.5,-168.5"/>
<text text-anchor="middle" x="896" y="-175.5" font-family="FreeSans.ttf" font-size="10.00" fill="#000000">iDynTree/Core/GeomVector3.h</text>
</a>
</g>
</g>
<!-- Node34&#45;&gt;Node30 -->
<g id="edge33" class="edge">
<title>Node34&#45;&gt;Node30</title>
<path fill="none" stroke="#191970" d="M1318.4702,-226.184C1232.2539,-216.3507 1083.8892,-199.4293 987.8967,-188.4811"/>
<polygon fill="#191970" stroke="#191970" points="988.2395,-184.9976 977.9073,-187.3418 987.4462,-191.9525 988.2395,-184.9976"/>
</g>
<!-- Node35 -->
<g id="node29" class="node">
<title>Node35</title>
<g id="a_node29"><a xlink:href="RotationRaw_8h.html" target="_top" xlink:title="iDynTree/Core/RotationRaw.h">
<polygon fill="none" stroke="#000000" points="1262,-168.5 1262,-187.5 1420,-187.5 1420,-168.5 1262,-168.5"/>
<text text-anchor="middle" x="1341" y="-175.5" font-family="FreeSans.ttf" font-size="10.00" fill="#000000">iDynTree/Core/RotationRaw.h</text>
</a>
</g>
</g>
<!-- Node34&#45;&gt;Node35 -->
<g id="edge35" class="edge">
<title>Node34&#45;&gt;Node35</title>
<path fill="none" stroke="#191970" d="M1378.9874,-224.2455C1372.5232,-216.3761 1363.2615,-205.101 1355.5017,-195.6542"/>
<polygon fill="#191970" stroke="#191970" points="1357.9727,-193.1484 1348.9208,-187.6427 1352.5636,-197.5916 1357.9727,-193.1484"/>
</g>
<!-- Node30&#45;&gt;Node19 -->
<g id="edge34" class="edge">
<title>Node30&#45;&gt;Node19</title>
<path fill="none" stroke="#191970" d="M909.4124,-168.2455C921.0057,-159.814 937.9748,-147.4729 951.4678,-137.6598"/>
<polygon fill="#191970" stroke="#191970" points="953.7126,-140.355 959.7413,-131.6427 949.5953,-134.6938 953.7126,-140.355"/>
</g>
<!-- Node35&#45;&gt;Node5 -->
<g id="edge43" class="edge">
<title>Node35&#45;&gt;Node5</title>
<path fill="none" stroke="#191970" d="M1351.962,-168.3404C1368.6053,-154.1308 1401.7361,-127.5952 1434,-112 1475.4303,-91.9741 1527.2726,-78.9382 1560.0245,-72.0239"/>
<polygon fill="#191970" stroke="#191970" points="1560.8547,-75.4267 1569.95,-69.993 1559.4514,-68.5687 1560.8547,-75.4267"/>
</g>
<!-- Node35&#45;&gt;Node11 -->
<g id="edge36" class="edge">
<title>Node35&#45;&gt;Node11</title>
<path fill="none" stroke="#191970" d="M1261.7175,-170.2706C1172.6926,-161.5344 1023.6177,-146.7354 884.9163,-132.0885"/>
<polygon fill="#191970" stroke="#191970" points="885.2614,-128.6055 874.9487,-131.0343 884.5251,-135.5667 885.2614,-128.6055"/>
</g>
<!-- Node11&#45;&gt;Node5 -->
<g id="edge40" class="edge">
<title>Node11&#45;&gt;Node5</title>
<path fill="none" stroke="#191970" d="M874.9356,-112.8303C877.9949,-112.5399 881.0245,-112.2618 884,-112 1144.4535,-89.0814 1459.7479,-72.5438 1559.8746,-67.5622"/>
<polygon fill="#191970" stroke="#191970" points="1560.1347,-71.0537 1569.9496,-67.0639 1559.7889,-64.0623 1560.1347,-71.0537"/>
</g>
<!-- Node11&#45;&gt;Node12 -->
<g id="edge37" class="edge">
<title>Node11&#45;&gt;Node12</title>
<path fill="none" stroke="#191970" d="M874.5714,-112.6584C967.5155,-101.8823 1118.8233,-84.3393 1207.03,-74.1125"/>
<polygon fill="#191970" stroke="#191970" points="1207.6727,-77.5615 1217.2031,-72.933 1206.8665,-70.6081 1207.6727,-77.5615"/>
</g>
<!-- Node11&#45;&gt;Node15 -->
<g id="edge38" class="edge">
<title>Node11&#45;&gt;Node15</title>
<path fill="none" stroke="#191970" d="M793.9147,-112.4509C793.7516,-94.184 793.3925,-53.9553 793.1759,-29.6976"/>
<polygon fill="#191970" stroke="#191970" points="796.6743,-29.4932 793.085,-19.5249 789.6746,-29.5558 796.6743,-29.4932"/>
</g>
<!-- Node11&#45;&gt;Node18 -->
<g id="edge42" class="edge">
<title>Node11&#45;&gt;Node18</title>
<path fill="none" stroke="#191970" d="M815.1445,-112.3733C834.8892,-103.3838 864.5698,-89.8706 886.8055,-79.7471"/>
<polygon fill="#191970" stroke="#191970" points="888.4806,-82.8302 896.1315,-75.5011 885.58,-76.4594 888.4806,-82.8302"/>
</g>
<!-- Node11&#45;&gt;Node16 -->
<g id="edge39" class="edge">
<title>Node11&#45;&gt;Node16</title>
<path fill="none" stroke="#191970" d="M803.0577,-112.2455C810.5142,-104.2155 821.2634,-92.6394 830.1417,-83.0781"/>
<polygon fill="#191970" stroke="#191970" points="832.8063,-85.3522 837.0461,-75.6427 827.6768,-80.589 832.8063,-85.3522"/>
</g>
<!-- Node17 -->
<g id="node31" class="node">
<title>Node17</title>
<polygon fill="none" stroke="#bfbfbf" points="565,-56.5 565,-75.5 625,-75.5 625,-56.5 565,-56.5"/>
<text text-anchor="middle" x="595" y="-63.5" font-family="FreeSans.ttf" font-size="10.00" fill="#000000">iostream</text>
</g>
<!-- Node11&#45;&gt;Node17 -->
<g id="edge41" class="edge">
<title>Node11&#45;&gt;Node17</title>
<path fill="none" stroke="#191970" d="M759.7907,-112.3733C725.1529,-102.6259 671.6151,-87.56 635.0264,-77.2637"/>
<polygon fill="#191970" stroke="#191970" points="635.76,-73.8343 625.1858,-74.4945 633.8638,-80.5726 635.76,-73.8343"/>
</g>
<!-- Node41&#45;&gt;Node5 -->
<g id="edge52" class="edge">
<title>Node41&#45;&gt;Node5</title>
<path fill="none" stroke="#191970" d="M1252.2307,-403.3967C1228.3914,-362.3577 1142.3822,-199.8069 1220,-112 1242.3934,-86.6669 1473.6075,-72.1487 1559.8243,-67.5822"/>
<polygon fill="#191970" stroke="#191970" points="1560.0249,-71.0766 1569.8299,-67.0627 1559.6619,-64.086 1560.0249,-71.0766"/>
</g>
<!-- Node41&#45;&gt;Node40 -->
<g id="edge54" class="edge">
<title>Node41&#45;&gt;Node40</title>
<path fill="none" stroke="#191970" d="M1285.6769,-403.3733C1312.3328,-394.1016 1352.8238,-380.0178 1382.1884,-369.804"/>
<polygon fill="#191970" stroke="#191970" points="1383.3891,-373.0921 1391.6843,-366.5011 1381.0895,-366.4807 1383.3891,-373.0921"/>
</g>
<!-- Node41&#45;&gt;Node42 -->
<g id="edge51" class="edge">
<title>Node41&#45;&gt;Node42</title>
<path fill="none" stroke="#191970" d="M1202.8413,-403.4369C1136.1483,-391.874 1025.9006,-372.7599 969.9293,-363.0559"/>
<polygon fill="#191970" stroke="#191970" points="970.2609,-359.5612 959.81,-361.3014 969.0651,-366.4583 970.2609,-359.5612"/>
</g>
<!-- Node41&#45;&gt;Node43 -->
<g id="edge53" class="edge">
<title>Node41&#45;&gt;Node43</title>
<path fill="none" stroke="#191970" d="M1226.0255,-403.3733C1192.4211,-393.2558 1139.7843,-377.4082 1105.5862,-367.112"/>
<polygon fill="#191970" stroke="#191970" points="1106.1909,-363.6389 1095.6064,-364.1073 1104.1728,-370.3417 1106.1909,-363.6389"/>
</g>
<!-- Node44&#45;&gt;Node2 -->
<g id="edge65" class="edge">
<title>Node44&#45;&gt;Node2</title>
<path fill="none" stroke="#191970" d="M817.5677,-515.2455C818.7421,-507.9382 820.3884,-497.6944 821.8332,-488.7046"/>
<polygon fill="#191970" stroke="#191970" points="825.3191,-489.0714 823.4503,-478.6427 818.4078,-487.9606 825.3191,-489.0714"/>
</g>
<!-- Node44&#45;&gt;Node4 -->
<g id="edge66" class="edge">
<title>Node44&#45;&gt;Node4</title>
<path fill="none" stroke="#191970" d="M789.5005,-515.4841C754.7151,-501.3792 695.1316,-471.2692 670,-423 657.8235,-399.6132 685.4191,-381.6235 711.8236,-370.3759"/>
<polygon fill="#191970" stroke="#191970" points="713.435,-373.5011 721.4218,-366.5396 710.837,-367.0011 713.435,-373.5011"/>
</g>
<!-- Node44&#45;&gt;Node5 -->
<g id="edge59" class="edge">
<title>Node44&#45;&gt;Node5</title>
<path fill="none" stroke="#191970" d="M891.592,-521.9677C1024.593,-514.8734 1291.8187,-492.1617 1349,-423 1354.664,-416.1493 1350.8528,-411.6937 1349,-403 1325.4837,-292.6548 1189.2996,-261.1201 1253,-168 1288.2962,-116.4024 1481.5663,-82.3988 1559.4521,-70.6095"/>
<polygon fill="#191970" stroke="#191970" points="1560.2712,-74.0263 1569.6479,-69.0939 1559.2419,-67.1024 1560.2712,-74.0263"/>
</g>
<!-- Node44&#45;&gt;Node23 -->
<g id="edge61" class="edge">
<title>Node44&#45;&gt;Node23</title>
<path fill="none" stroke="#191970" d="M740.128,-521.2807C629.5896,-513.659 419.5277,-490.7716 255,-423 205.7344,-402.7067 192.752,-397.4085 149,-367 76.1095,-316.3396 0,-322.7666 0,-234 0,-234 0,-234 0,-122 0,-69.8014 168.9986,-31.3004 245.3402,-16.5712"/>
<polygon fill="#191970" stroke="#191970" points="246.2966,-19.9524 255.4701,-14.6517 244.9933,-13.0748 246.2966,-19.9524"/>
</g>
<!-- Node44&#45;&gt;Node30 -->
<g id="edge58" class="edge">
<title>Node44&#45;&gt;Node30</title>
<path fill="none" stroke="#191970" d="M776.0058,-515.431C635.6986,-481.4697 172.2163,-365.8304 133,-311 124.9848,-299.7936 123.926,-290.3677 133,-280 176.6673,-230.1066 611.1378,-196.273 804.2755,-183.5824"/>
<polygon fill="#191970" stroke="#191970" points="804.6564,-187.0651 814.4074,-182.9216 804.2007,-180.08 804.6564,-187.0651"/>
</g>
<!-- Node44&#45;&gt;Node43 -->
<g id="edge60" class="edge">
<title>Node44&#45;&gt;Node43</title>
<path fill="none" stroke="#191970" d="M842.2134,-515.3597C860.3843,-507.6683 884.2336,-495.4535 901,-479 928.6997,-451.8173 914.3283,-428.0153 944,-403 971.0546,-380.1911 1010.2958,-368.3232 1038.1856,-362.4029"/>
<polygon fill="#191970" stroke="#191970" points="1039.1357,-365.783 1048.2698,-360.4147 1037.7816,-358.9153 1039.1357,-365.783"/>
</g>
<!-- Node45 -->
<g id="node36" class="node">
<title>Node45</title>
<g id="a_node36"><a xlink:href="VectorDynSize_8h.html" target="_top" xlink:title="iDynTree/Core/VectorDynSize.h">
<polygon fill="none" stroke="#000000" points="528.5,-112.5 528.5,-131.5 695.5,-131.5 695.5,-112.5 528.5,-112.5"/>
<text text-anchor="middle" x="612" y="-119.5" font-family="FreeSans.ttf" font-size="10.00" fill="#000000">iDynTree/Core/VectorDynSize.h</text>
</a>
</g>
</g>
<!-- Node44&#45;&gt;Node45 -->
<g id="edge62" class="edge">
<title>Node44&#45;&gt;Node45</title>
<path fill="none" stroke="#191970" d="M741.9978,-515.4924C574.7545,-492.1003 177.8873,-425.1999 123,-311 98.9001,-260.8571 161.8328,-245.8409 213,-224 323.0418,-177.0283 459.7119,-147.8811 541.1764,-133.3263"/>
<polygon fill="#191970" stroke="#191970" points="542.079,-136.7212 551.3197,-131.5386 540.864,-129.8275 542.079,-136.7212"/>
</g>
<!-- Node45&#45;&gt;Node5 -->
<g id="edge64" class="edge">
<title>Node45&#45;&gt;Node5</title>
<path fill="none" stroke="#191970" d="M695.631,-112.7868C698.7929,-112.5086 701.9243,-112.2449 705,-112 876.1741,-98.369 1420.8686,-73.6389 1559.6024,-67.4391"/>
<polygon fill="#191970" stroke="#191970" points="1560.1309,-70.9191 1569.965,-66.9768 1559.8189,-63.9261 1560.1309,-70.9191"/>
</g>
<!-- Node45&#45;&gt;Node20 -->
<g id="edge63" class="edge">
<title>Node45&#45;&gt;Node20</title>
<path fill="none" stroke="#191970" d="M628.0252,-112.2455C642.1408,-103.6534 662.9263,-91.0014 679.1899,-81.1018"/>
<polygon fill="#191970" stroke="#191970" points="681.4363,-83.8319 688.1585,-75.6427 677.7966,-77.8525 681.4363,-83.8319"/>
</g>
<!-- Node47&#45;&gt;Node1 -->
<g id="edge115" class="edge">
<title>Node47&#45;&gt;Node1</title>
<path fill="none" stroke="#191970" d="M1543.373,-637.6228C1435.1117,-627.3953 1182.7827,-603.5578 1042.4964,-590.305"/>
<polygon fill="#191970" stroke="#191970" points="1042.4638,-586.7864 1032.1789,-589.3303 1041.8054,-593.7554 1042.4638,-586.7864"/>
</g>
<!-- Node47&#45;&gt;Node2 -->
<g id="edge116" class="edge">
<title>Node47&#45;&gt;Node2</title>
<path fill="none" stroke="#191970" d="M1543.3725,-638.7204C1437.8438,-630.6933 1200.7528,-611.0339 1122,-591 1068.4314,-577.3727 919.6198,-511.6424 855.2803,-482.7142"/>
<polygon fill="#191970" stroke="#191970" points="856.619,-479.4786 846.0638,-478.5621 853.7437,-485.8608 856.619,-479.4786"/>
</g>
<!-- Node47&#45;&gt;Node5 -->
<g id="edge118" class="edge">
<title>Node47&#45;&gt;Node5</title>
<path fill="none" stroke="#191970" d="M1646.5844,-641.7443C1800.955,-639.083 2257.4626,-628.1952 2401,-591 2467.2015,-573.845 2540,-593.3881 2540,-525 2540,-525 2540,-525 2540,-178 2540,-83.6388 1789.6855,-68.5291 1624.0859,-66.3434"/>
<polygon fill="#191970" stroke="#191970" points="1624.0811,-62.8431 1614.0379,-66.2174 1623.9932,-69.8426 1624.0811,-62.8431"/>
</g>
<!-- Node47&#45;&gt;Node43 -->
<g id="edge119" class="edge">
<title>Node47&#45;&gt;Node43</title>
<path fill="none" stroke="#191970" d="M1562.8286,-632.9339C1491.8986,-611.1557 1317.8295,-553.9108 1185,-479 1146.2392,-457.1404 1130.7337,-456.9798 1102,-423 1090.4722,-409.3675 1082.5089,-390.5798 1077.6992,-376.5349"/>
<polygon fill="#191970" stroke="#191970" points="1080.9957,-375.3516 1074.6291,-366.8831 1074.325,-377.4735 1080.9957,-375.3516"/>
</g>
<!-- Node47&#45;&gt;Node44 -->
<g id="edge117" class="edge">
<title>Node47&#45;&gt;Node44</title>
<path fill="none" stroke="#191970" d="M1543.3385,-641.9391C1383.4749,-639.7929 904.166,-630.1272 847,-591 831.5324,-580.4132 823.5869,-559.9948 819.6365,-544.6589"/>
<polygon fill="#191970" stroke="#191970" points="822.99,-543.6132 817.4157,-534.6034 816.1547,-545.1229 822.99,-543.6132"/>
</g>
<!-- Node48 -->
<g id="node39" class="node">
<title>Node48</title>
<g id="a_node39"><a xlink:href="XMLDocument_8h.html" target="_top" xlink:title="iDynTree/XMLDocument.h">
<polygon fill="none" stroke="#000000" points="2192,-403.5 2192,-422.5 2334,-422.5 2334,-403.5 2192,-403.5"/>
<text text-anchor="middle" x="2263" y="-410.5" font-family="FreeSans.ttf" font-size="10.00" fill="#000000">iDynTree/XMLDocument.h</text>
</a>
</g>
</g>
<!-- Node47&#45;&gt;Node48 -->
<g id="edge71" class="edge">
<title>Node47&#45;&gt;Node48</title>
<path fill="none" stroke="#191970" d="M1630.7168,-632.9881C1716.093,-609.8954 1938.275,-547.6914 2118,-479 2159.5495,-463.1197 2206.1187,-441.1452 2235.0038,-427.0004"/>
<polygon fill="#191970" stroke="#191970" points="2236.6657,-430.0834 2244.0888,-422.5237 2233.5716,-423.8043 2236.6657,-430.0834"/>
</g>
<!-- Node49 -->
<g id="node40" class="node">
<title>Node49</title>
<g id="a_node40"><a xlink:href="JointElement_8h.html" target="_top" xlink:title="JointElement.h">
<polygon fill="none" stroke="#000000" points="1968,-459.5 1968,-478.5 2056,-478.5 2056,-459.5 1968,-459.5"/>
<text text-anchor="middle" x="2012" y="-466.5" font-family="FreeSans.ttf" font-size="10.00" fill="#000000">JointElement.h</text>
</a>
</g>
</g>
<!-- Node47&#45;&gt;Node49 -->
<g id="edge74" class="edge">
<title>Node47&#45;&gt;Node49</title>
<path fill="none" stroke="#191970" d="M1618.0137,-632.9248C1687.9299,-603.8349 1898.0225,-516.4223 1979.35,-482.5846"/>
<polygon fill="#191970" stroke="#191970" points="1981.1692,-485.6186 1989.0574,-478.5457 1978.4801,-479.1557 1981.1692,-485.6186"/>
</g>
<!-- Node52 -->
<g id="node43" class="node">
<title>Node52</title>
<polygon fill="none" stroke="#bfbfbf" points="2136.5,-347.5 2136.5,-366.5 2229.5,-366.5 2229.5,-347.5 2136.5,-347.5"/>
<text text-anchor="middle" x="2183" y="-354.5" font-family="FreeSans.ttf" font-size="10.00" fill="#000000">unordered_map</text>
</g>
<!-- Node47&#45;&gt;Node52 -->
<g id="edge120" class="edge">
<title>Node47&#45;&gt;Node52</title>
<path fill="none" stroke="#191970" d="M1646.692,-641.285C1838.9906,-636.091 2502,-611.883 2502,-525 2502,-525 2502,-525 2502,-469 2502,-438.4754 2505.922,-423.1578 2483,-403 2447.8546,-372.0928 2317.0266,-361.9297 2240.2324,-358.6038"/>
<polygon fill="#191970" stroke="#191970" points="2239.9045,-355.0877 2229.7706,-358.1784 2239.6201,-362.0819 2239.9045,-355.0877"/>
</g>
<!-- Node55 -->
<g id="node46" class="node">
<title>Node55</title>
<g id="a_node46"><a xlink:href="MaterialElement_8h.html" target="_top" xlink:title="MaterialElement.h">
<polygon fill="none" stroke="#000000" points="1708,-459.5 1708,-478.5 1814,-478.5 1814,-459.5 1708,-459.5"/>
<text text-anchor="middle" x="1761" y="-466.5" font-family="FreeSans.ttf" font-size="10.00" fill="#000000">MaterialElement.h</text>
</a>
</g>
</g>
<!-- Node47&#45;&gt;Node55 -->
<g id="edge93" class="edge">
<title>Node47&#45;&gt;Node55</title>
<path fill="none" stroke="#191970" d="M1611.3791,-632.7854C1638.7575,-615.8684 1694.2319,-578.6091 1729,-535 1740.26,-520.8767 1748.8663,-502.1421 1754.3027,-488.2421"/>
<polygon fill="#191970" stroke="#191970" points="1757.6414,-489.3046 1757.8335,-478.7115 1751.0774,-486.8728 1757.6414,-489.3046"/>
</g>
<!-- Node56 -->
<g id="node47" class="node">
<title>Node56</title>
<g id="a_node47"><a xlink:href="SensorElement_8h.html" target="_top" xlink:title="SensorElement.h">
<polygon fill="none" stroke="#000000" points="1488.5,-571.5 1488.5,-590.5 1587.5,-590.5 1587.5,-571.5 1488.5,-571.5"/>
<text text-anchor="middle" x="1538" y="-578.5" font-family="FreeSans.ttf" font-size="10.00" fill="#000000">SensorElement.h</text>
</a>
</g>
</g>
<!-- Node47&#45;&gt;Node56 -->
<g id="edge98" class="edge">
<title>Node47&#45;&gt;Node56</title>
<path fill="none" stroke="#191970" d="M1586.0938,-632.8906C1577.5272,-623.6478 1564.3831,-609.466 1553.9997,-598.2628"/>
<polygon fill="#191970" stroke="#191970" points="1556.3965,-595.7 1547.0318,-590.7449 1551.2625,-600.4584 1556.3965,-595.7"/>
</g>
<!-- Node57 -->
<g id="node48" class="node">
<title>Node57</title>
<g id="a_node48"><a xlink:href="VisualElement_8h.html" target="_top" xlink:title="VisualElement.h">
<polygon fill="none" stroke="#000000" points="1624,-515.5 1624,-534.5 1720,-534.5 1720,-515.5 1624,-515.5"/>
<text text-anchor="middle" x="1672" y="-522.5" font-family="FreeSans.ttf" font-size="10.00" fill="#000000">VisualElement.h</text>
</a>
</g>
</g>
<!-- Node47&#45;&gt;Node57 -->
<g id="edge106" class="edge">
<title>Node47&#45;&gt;Node57</title>
<path fill="none" stroke="#191970" d="M1601.3012,-632.8845C1614.1045,-613.3471 1643.3487,-568.7211 1659.9352,-543.4106"/>
<polygon fill="#191970" stroke="#191970" points="1663.058,-545.0309 1665.6117,-534.7484 1657.2031,-541.194 1663.058,-545.0309"/>
</g>
<!-- Node48&#45;&gt;Node5 -->
<g id="edge73" class="edge">
<title>Node48&#45;&gt;Node5</title>
<path fill="none" stroke="#191970" d="M2262.5829,-403.2532C2261.7585,-383.1243 2260,-335.4957 2260,-295.5 2260,-295.5 2260,-295.5 2260,-178 2260,-112.7404 1757.7076,-76.4428 1624.2402,-67.9498"/>
<polygon fill="#191970" stroke="#191970" points="1624.4253,-64.4546 1614.2256,-67.3209 1623.9865,-71.4408 1624.4253,-64.4546"/>
</g>
<!-- Node48&#45;&gt;Node46 -->
<g id="edge72" class="edge">
<title>Node48&#45;&gt;Node46</title>
<path fill="none" stroke="#191970" d="M2191.9952,-404.6465C2090.3023,-392.6826 1906.6141,-371.0722 1826.3355,-361.6277"/>
<polygon fill="#191970" stroke="#191970" points="1826.5051,-358.1236 1816.1646,-360.4311 1825.6871,-365.0757 1826.5051,-358.1236"/>
</g>
<!-- Node49&#45;&gt;Node5 -->
<g id="edge91" class="edge">
<title>Node49&#45;&gt;Node5</title>
<path fill="none" stroke="#191970" d="M2009.4728,-459.3146C2005.3849,-445.3113 1996.1088,-419.3064 1980,-403 1954.8565,-377.548 1930.772,-394.5941 1908,-367 1886.9971,-341.5497 1888,-328.4976 1888,-295.5 1888,-295.5 1888,-295.5 1888,-178 1888,-143.6999 1876.273,-131.4199 1848,-112 1812.0967,-87.339 1684.9268,-73.7234 1624.433,-68.5106"/>
<polygon fill="#191970" stroke="#191970" points="1624.5489,-65.0082 1614.2919,-67.662 1623.9651,-71.9838 1624.5489,-65.0082"/>
</g>
<!-- Node49&#45;&gt;Node40 -->
<g id="edge89" class="edge">
<title>Node49&#45;&gt;Node40</title>
<path fill="none" stroke="#191970" d="M1967.9131,-460.6733C1863.196,-440.8954 1599.3625,-391.0651 1479.6958,-368.4636"/>
<polygon fill="#191970" stroke="#191970" points="1480.0832,-364.975 1469.6074,-366.5582 1478.7841,-371.8534 1480.0832,-364.975"/>
</g>
<!-- Node49&#45;&gt;Node46 -->
<g id="edge90" class="edge">
<title>Node49&#45;&gt;Node46</title>
<path fill="none" stroke="#191970" d="M2006.3069,-459.3296C1997.2824,-444.8588 1978.3042,-417.7032 1955,-403 1915.3118,-377.9597 1862.0079,-366.3744 1826.1789,-361.1329"/>
<polygon fill="#191970" stroke="#191970" points="1826.4906,-357.6431 1816.1093,-359.7593 1825.5445,-364.5789 1826.4906,-357.6431"/>
</g>
<!-- Node50 -->
<g id="node41" class="node">
<title>Node50</title>
<g id="a_node41"><a xlink:href="XMLElement_8h.html" target="_top" xlink:title="iDynTree/XMLElement.h">
<polygon fill="none" stroke="#000000" points="1814,-403.5 1814,-422.5 1946,-422.5 1946,-403.5 1814,-403.5"/>
<text text-anchor="middle" x="1880" y="-410.5" font-family="FreeSans.ttf" font-size="10.00" fill="#000000">iDynTree/XMLElement.h</text>
</a>
</g>
</g>
<!-- Node49&#45;&gt;Node50 -->
<g id="edge75" class="edge">
<title>Node49&#45;&gt;Node50</title>
<path fill="none" stroke="#191970" d="M1989.3084,-459.3733C1967.9289,-450.3032 1935.6943,-436.6279 1911.7638,-426.4755"/>
<polygon fill="#191970" stroke="#191970" points="1912.9683,-423.1846 1902.3955,-422.5011 1910.2344,-429.6287 1912.9683,-423.1846"/>
</g>
<!-- Node49&#45;&gt;Node52 -->
<g id="edge92" class="edge">
<title>Node49&#45;&gt;Node52</title>
<path fill="none" stroke="#191970" d="M2026.5483,-459.3426C2045.9902,-446.4494 2081.5333,-422.923 2112,-403 2127.8313,-392.6475 2145.7032,-381.0691 2159.5558,-372.1184"/>
<polygon fill="#191970" stroke="#191970" points="2161.5143,-375.0201 2168.0166,-366.6552 2157.7171,-369.1394 2161.5143,-375.0201"/>
</g>
<!-- Node53 -->
<g id="node44" class="node">
<title>Node53</title>
<g id="a_node44"><a xlink:href="Axis_8h.html" target="_top" xlink:title="iDynTree/Core/Axis.h">
<polygon fill="none" stroke="#000000" points="2000,-347.5 2000,-366.5 2118,-366.5 2118,-347.5 2000,-347.5"/>
<text text-anchor="middle" x="2059" y="-354.5" font-family="FreeSans.ttf" font-size="10.00" fill="#000000">iDynTree/Core/Axis.h</text>
</a>
</g>
</g>
<!-- Node49&#45;&gt;Node53 -->
<g id="edge81" class="edge">
<title>Node49&#45;&gt;Node53</title>
<path fill="none" stroke="#191970" d="M2016.0072,-459.4509C2023.7422,-441.0186 2040.8608,-400.2254 2051.0087,-376.043"/>
<polygon fill="#191970" stroke="#191970" points="2054.3607,-377.1002 2055.0029,-366.5249 2047.906,-374.3915 2054.3607,-377.1002"/>
</g>
<!-- Node50&#45;&gt;Node5 -->
<g id="edge78" class="edge">
<title>Node50&#45;&gt;Node5</title>
<path fill="none" stroke="#191970" d="M1875.8286,-403.4624C1867.5854,-383.7194 1850,-336.7653 1850,-295.5 1850,-295.5 1850,-295.5 1850,-178 1850,-146.7875 1849.7097,-132.2996 1826,-112 1796.0847,-86.3873 1681.4089,-73.4388 1624.4676,-68.4764"/>
<polygon fill="#191970" stroke="#191970" points="1624.4736,-64.9647 1614.2157,-67.6152 1623.8876,-71.9401 1624.4736,-64.9647"/>
</g>
<!-- Node50&#45;&gt;Node43 -->
<g id="edge80" class="edge">
<title>Node50&#45;&gt;Node43</title>
<path fill="none" stroke="#191970" d="M1813.878,-408.4173C1649.7896,-397.0448 1228.3523,-367.8363 1105.8617,-359.3469"/>
<polygon fill="#191970" stroke="#191970" points="1105.8214,-355.8357 1095.6033,-358.6359 1105.3373,-362.819 1105.8214,-355.8357"/>
</g>
<!-- Node50&#45;&gt;Node46 -->
<g id="edge77" class="edge">
<title>Node50&#45;&gt;Node46</title>
<path fill="none" stroke="#191970" d="M1863.8006,-403.2455C1849.3982,-394.5731 1828.1268,-381.7645 1811.6201,-371.825"/>
<polygon fill="#191970" stroke="#191970" points="1813.386,-368.8028 1803.0137,-366.6427 1809.775,-374.7996 1813.386,-368.8028"/>
</g>
<!-- Node51 -->
<g id="node42" class="node">
<title>Node51</title>
<polygon fill="none" stroke="#bfbfbf" points="1916.5,-347.5 1916.5,-366.5 1981.5,-366.5 1981.5,-347.5 1916.5,-347.5"/>
<text text-anchor="middle" x="1949" y="-354.5" font-family="FreeSans.ttf" font-size="10.00" fill="#000000">functional</text>
</g>
<!-- Node50&#45;&gt;Node51 -->
<g id="edge76" class="edge">
<title>Node50&#45;&gt;Node51</title>
<path fill="none" stroke="#191970" d="M1892.0189,-403.2455C1902.2098,-394.9746 1917.0362,-382.9416 1929.0107,-373.2232"/>
<polygon fill="#191970" stroke="#191970" points="1931.5598,-375.662 1937.1188,-366.6427 1927.1486,-370.2268 1931.5598,-375.662"/>
</g>
<!-- Node50&#45;&gt;Node52 -->
<g id="edge79" class="edge">
<title>Node50&#45;&gt;Node52</title>
<path fill="none" stroke="#191970" d="M1931.7433,-403.4369C1985.8442,-393.438 2070.4976,-377.7925 2126.36,-367.4681"/>
<polygon fill="#191970" stroke="#191970" points="2127.2445,-370.864 2136.4418,-365.6048 2125.9722,-363.9806 2127.2445,-370.864"/>
</g>
<!-- Node53&#45;&gt;Node5 -->
<g id="edge82" class="edge">
<title>Node53&#45;&gt;Node5</title>
<path fill="none" stroke="#191970" d="M2052.9134,-347.262C2024.7235,-302.1911 1907.9652,-115.8582 1902,-112 1856.5743,-82.6196 1694.6615,-71.1273 1624.6473,-67.4609"/>
<polygon fill="#191970" stroke="#191970" points="1624.3943,-63.9439 1614.2314,-66.9381 1624.0433,-70.9351 1624.3943,-63.9439"/>
</g>
<!-- Node53&#45;&gt;Node12 -->
<g id="edge88" class="edge">
<title>Node53&#45;&gt;Node12</title>
<path fill="none" stroke="#191970" d="M2067.047,-347.4024C2091.437,-317.1297 2160.0078,-222.4432 2112,-168 2061.6132,-110.8589 1538.6262,-79.1026 1346.9293,-69.3119"/>
<polygon fill="#191970" stroke="#191970" points="1346.8539,-65.8037 1336.6897,-68.7938 1346.5001,-72.7947 1346.8539,-65.8037"/>
</g>
<!-- Node53&#45;&gt;Node32 -->
<g id="edge87" class="edge">
<title>Node53&#45;&gt;Node32</title>
<path fill="none" stroke="#191970" d="M1999.6707,-348.2122C1996.7395,-347.7978 1993.8369,-347.3916 1991,-347 1861.4161,-329.1103 1707.8799,-309.8321 1634.7961,-300.7723"/>
<polygon fill="#191970" stroke="#191970" points="1634.9638,-297.2664 1624.6095,-299.5111 1634.1037,-304.2133 1634.9638,-297.2664"/>
</g>
<!-- Node54 -->
<g id="node45" class="node">
<title>Node54</title>
<g id="a_node45"><a xlink:href="Direction_8h.html" target="_top" xlink:title="iDynTree/Core/Direction.h">
<polygon fill="none" stroke="#000000" points="1961.5,-168.5 1961.5,-187.5 2102.5,-187.5 2102.5,-168.5 1961.5,-168.5"/>
<text text-anchor="middle" x="2032" y="-175.5" font-family="FreeSans.ttf" font-size="10.00" fill="#000000">iDynTree/Core/Direction.h</text>
</a>
</g>
</g>
<!-- Node53&#45;&gt;Node54 -->
<g id="edge83" class="edge">
<title>Node53&#45;&gt;Node54</title>
<path fill="none" stroke="#191970" d="M2057.5484,-347.3762C2053.2815,-319.0883 2040.7182,-235.7987 2034.9529,-197.5767"/>
<polygon fill="#191970" stroke="#191970" points="2038.4113,-197.0375 2033.4588,-187.6714 2031.4896,-198.0816 2038.4113,-197.0375"/>
</g>
<!-- Node54&#45;&gt;Node5 -->
<g id="edge84" class="edge">
<title>Node54&#45;&gt;Node5</title>
<path fill="none" stroke="#191970" d="M2032.8043,-168.1928C2033.4093,-153.5433 2032.1251,-126.1575 2016,-112 1986.6671,-86.2464 1717.9664,-71.7086 1624.1462,-67.3834"/>
<polygon fill="#191970" stroke="#191970" points="1624.2499,-63.8846 1614.1018,-66.9288 1623.9333,-70.8775 1624.2499,-63.8846"/>
</g>
<!-- Node54&#45;&gt;Node19 -->
<g id="edge85" class="edge">
<title>Node54&#45;&gt;Node19</title>
<path fill="none" stroke="#191970" d="M1961.2843,-174.2605C1775.0048,-164.4101 1270.9437,-137.7553 1063.7795,-126.8004"/>
<polygon fill="#191970" stroke="#191970" points="1063.7153,-123.2922 1053.5444,-126.2592 1063.3456,-130.2825 1063.7153,-123.2922"/>
</g>
<!-- Node54&#45;&gt;Node12 -->
<g id="edge86" class="edge">
<title>Node54&#45;&gt;Node12</title>
<path fill="none" stroke="#191970" d="M1967.9548,-168.4993C1827.3056,-147.6347 1492.3957,-97.9527 1346.6991,-76.3395"/>
<polygon fill="#191970" stroke="#191970" points="1346.9466,-72.838 1336.5412,-74.8326 1345.9193,-79.7622 1346.9466,-72.838"/>
</g>
<!-- Node55&#45;&gt;Node5 -->
<g id="edge97" class="edge">
<title>Node55&#45;&gt;Node5</title>
<path fill="none" stroke="#191970" d="M1757.7987,-459.3311C1751.3749,-438.4616 1738.399,-387.7846 1749,-347 1763.4652,-291.349 1812,-291.5002 1812,-234 1812,-234 1812,-234 1812,-178 1812,-146.7875 1811.3362,-132.7279 1788,-112 1764.0193,-90.6996 1673.6826,-76.2976 1624.4603,-69.8508"/>
<polygon fill="#191970" stroke="#191970" points="1624.6939,-66.3523 1614.3318,-68.5606 1623.8093,-73.2962 1624.6939,-66.3523"/>
</g>
<!-- Node55&#45;&gt;Node19 -->
<g id="edge95" class="edge">
<title>Node55&#45;&gt;Node19</title>
<path fill="none" stroke="#191970" d="M1741.2147,-459.4192C1697.9028,-438.5114 1591.3409,-387.4285 1501,-347 1314.8422,-263.6924 1088.8388,-169.7678 1005.7064,-135.4577"/>
<polygon fill="#191970" stroke="#191970" points="1006.8679,-132.1508 996.2888,-131.5737 1004.1991,-138.6221 1006.8679,-132.1508"/>
</g>
<!-- Node55&#45;&gt;Node46 -->
<g id="edge96" class="edge">
<title>Node55&#45;&gt;Node46</title>
<path fill="none" stroke="#191970" d="M1763.2167,-459.4509C1767.4765,-441.1013 1776.8807,-400.5908 1782.5035,-376.3693"/>
<polygon fill="#191970" stroke="#191970" points="1785.9368,-377.0573 1784.7889,-366.5249 1779.1182,-375.4744 1785.9368,-377.0573"/>
</g>
<!-- Node55&#45;&gt;Node50 -->
<g id="edge94" class="edge">
<title>Node55&#45;&gt;Node50</title>
<path fill="none" stroke="#191970" d="M1781.4568,-459.3733C1800.4738,-450.4241 1829.0175,-436.9917 1850.4976,-426.8835"/>
<polygon fill="#191970" stroke="#191970" points="1852.2522,-429.926 1859.8101,-422.5011 1849.2716,-423.5923 1852.2522,-429.926"/>
</g>
<!-- Node56&#45;&gt;Node5 -->
<g id="edge103" class="edge">
<title>Node56&#45;&gt;Node5</title>
<path fill="none" stroke="#191970" d="M1535.421,-571.4945C1530.4439,-552.2857 1520,-507.4032 1520,-469 1520,-469 1520,-469 1520,-413 1520,-345.0131 1592.9977,-365.2313 1634,-311 1670.6824,-262.4824 1680.3159,-247.2647 1694,-188 1701.858,-153.9676 1696.5357,-138.6851 1674,-112 1660.7061,-96.2583 1640.586,-84.8566 1623.6034,-77.3423"/>
<polygon fill="#191970" stroke="#191970" points="1624.6194,-73.9742 1614.0421,-73.3637 1621.9301,-80.437 1624.6194,-73.9742"/>
</g>
<!-- Node56&#45;&gt;Node40 -->
<g id="edge100" class="edge">
<title>Node56&#45;&gt;Node40</title>
<path fill="none" stroke="#191970" d="M1530.6855,-571.4163C1523.8891,-562.3042 1513.688,-548.085 1506,-535 1473.1392,-479.0709 1441.4796,-408.9455 1427.0848,-375.8925"/>
<polygon fill="#191970" stroke="#191970" points="1430.218,-374.3197 1423.0382,-366.5287 1423.7924,-377.0967 1430.218,-374.3197"/>
</g>
<!-- Node56&#45;&gt;Node43 -->
<g id="edge105" class="edge">
<title>Node56&#45;&gt;Node43</title>
<path fill="none" stroke="#191970" d="M1492.1565,-571.4613C1412.2275,-553.1582 1244.7589,-507.2546 1128,-423 1110.007,-410.0161 1094.1401,-390.0532 1083.9326,-375.4815"/>
<polygon fill="#191970" stroke="#191970" points="1086.5744,-373.1395 1078.0766,-366.8119 1080.7737,-377.0577 1086.5744,-373.1395"/>
</g>
<!-- Node56&#45;&gt;Node44 -->
<g id="edge101" class="edge">
<title>Node56&#45;&gt;Node44</title>
<path fill="none" stroke="#191970" d="M1488.374,-577.1509C1367.0687,-567.7422 1054.3437,-543.4865 901.9842,-531.6691"/>
<polygon fill="#191970" stroke="#191970" points="901.9809,-528.1585 891.7401,-530.8746 901.4395,-535.1375 901.9809,-528.1585"/>
</g>
<!-- Node56&#45;&gt;Node46 -->
<g id="edge102" class="edge">
<title>Node56&#45;&gt;Node46</title>
<path fill="none" stroke="#191970" d="M1547.0166,-571.1669C1572.7971,-543.2941 1649.5655,-461.9718 1721,-403 1734.3473,-391.9813 1750.238,-380.8513 1763.082,-372.2998"/>
<polygon fill="#191970" stroke="#191970" points="1765.3765,-374.9804 1771.8161,-366.5671 1761.5355,-369.1283 1765.3765,-374.9804"/>
</g>
<!-- Node56&#45;&gt;Node50 -->
<g id="edge99" class="edge">
<title>Node56&#45;&gt;Node50</title>
<path fill="none" stroke="#191970" d="M1587.7106,-577.8459C1655.2003,-570.9483 1775.572,-548.9754 1847,-479 1860.1262,-466.1407 1868.9031,-446.9716 1874.0837,-432.6006"/>
<polygon fill="#191970" stroke="#191970" points="1877.5314,-433.3236 1877.3569,-422.7302 1870.8871,-431.1202 1877.5314,-433.3236"/>
</g>
<!-- Node56&#45;&gt;Node52 -->
<g id="edge104" class="edge">
<title>Node56&#45;&gt;Node52</title>
<path fill="none" stroke="#191970" d="M1587.5365,-575.5957C1706.0963,-562.0713 2002.8667,-524.5599 2091,-479 2134.0252,-456.7584 2162.4753,-404.1869 2175.2553,-375.861"/>
<polygon fill="#191970" stroke="#191970" points="2178.4935,-377.1908 2179.2528,-366.6232 2172.0692,-374.4108 2178.4935,-377.1908"/>
</g>
<!-- Node57&#45;&gt;Node5 -->
<g id="edge112" class="edge">
<title>Node57&#45;&gt;Node5</title>
<path fill="none" stroke="#191970" d="M1673.4292,-515.0835C1675.385,-502.1037 1679.2058,-478.6891 1684,-459 1721.1407,-306.4697 1844.2228,-237.5668 1750,-112 1734.9037,-91.8818 1665.8281,-77.6769 1624.1693,-70.7684"/>
<polygon fill="#191970" stroke="#191970" points="1624.6469,-67.3003 1614.2183,-69.17 1623.5367,-74.2117 1624.6469,-67.3003"/>
</g>
<!-- Node57&#45;&gt;Node40 -->
<g id="edge109" class="edge">
<title>Node57&#45;&gt;Node40</title>
<path fill="none" stroke="#191970" d="M1657.6727,-515.4862C1615.7628,-487.6567 1493.1382,-406.2301 1441.9067,-372.2108"/>
<polygon fill="#191970" stroke="#191970" points="1443.7505,-369.2338 1433.4837,-366.6177 1439.8782,-375.0652 1443.7505,-369.2338"/>
</g>
<!-- Node57&#45;&gt;Node41 -->
<g id="edge110" class="edge">
<title>Node57&#45;&gt;Node41</title>
<path fill="none" stroke="#191970" d="M1624.3234,-515.415C1582.805,-506.791 1521.11,-493.3075 1468,-479 1407.0204,-462.5725 1337.2624,-439.8519 1295.4688,-425.8079"/>
<polygon fill="#191970" stroke="#191970" points="1296.5694,-422.4855 1285.9753,-422.6052 1294.3318,-429.1182 1296.5694,-422.4855"/>
</g>
<!-- Node57&#45;&gt;Node43 -->
<g id="edge114" class="edge">
<title>Node57&#45;&gt;Node43</title>
<path fill="none" stroke="#191970" d="M1623.6838,-522.2344C1531.3736,-515.4622 1325.1505,-493.0977 1168,-423 1138.9785,-410.0548 1109.4194,-388.139 1090.9143,-373.1399"/>
<polygon fill="#191970" stroke="#191970" points="1092.9374,-370.2713 1083,-366.5972 1088.4773,-375.6664 1092.9374,-370.2713"/>
</g>
<!-- Node57&#45;&gt;Node46 -->
<g id="edge111" class="edge">
<title>Node57&#45;&gt;Node46</title>
<path fill="none" stroke="#191970" d="M1674.9252,-515.1342C1679.1193,-501.8045 1687.6097,-477.5746 1699,-459 1719.3094,-425.8807 1750.314,-392.7957 1769.5829,-373.6452"/>
<polygon fill="#191970" stroke="#191970" points="1772.1232,-376.0563 1776.8204,-366.5595 1767.2262,-371.0543 1772.1232,-376.0563"/>
</g>
<!-- Node57&#45;&gt;Node50 -->
<g id="edge107" class="edge">
<title>Node57&#45;&gt;Node50</title>
<path fill="none" stroke="#191970" d="M1720.1868,-517.485C1751.3999,-510.959 1791.8798,-499.2589 1823,-479 1842.1237,-466.5507 1858.4868,-445.8833 1868.7112,-430.9898"/>
<polygon fill="#191970" stroke="#191970" points="1871.6689,-432.8624 1874.2539,-422.5877 1865.8257,-429.0077 1871.6689,-432.8624"/>
</g>
<!-- Node57&#45;&gt;Node52 -->
<g id="edge113" class="edge">
<title>Node57&#45;&gt;Node52</title>
<path fill="none" stroke="#191970" d="M1720.1833,-523.3818C1811.3807,-519.6674 2005.4253,-508.4636 2065,-479 2090.109,-466.582 2143.0072,-405.3179 2168.5686,-374.6107"/>
<polygon fill="#191970" stroke="#191970" points="2171.331,-376.7624 2175.0075,-366.8259 2165.937,-372.3009 2171.331,-376.7624"/>
</g>
<!-- Node57&#45;&gt;Node55 -->
<g id="edge108" class="edge">
<title>Node57&#45;&gt;Node55</title>
<path fill="none" stroke="#191970" d="M1687.5026,-515.2455C1701.158,-506.6534 1721.2657,-494.0014 1736.9989,-484.1018"/>
<polygon fill="#191970" stroke="#191970" points="1739.0751,-486.9307 1745.675,-478.6427 1735.3471,-481.006 1739.0751,-486.9307"/>
</g>
<!-- Node58&#45;&gt;Node5 -->
<g id="edge124" class="edge">
<title>Node58&#45;&gt;Node5</title>
<path fill="none" stroke="#191970" d="M2404.2943,-403.4548C2387.8825,-384.4277 2354,-339.7835 2354,-295.5 2354,-295.5 2354,-295.5 2354,-178 2354,-103.0736 1769.8597,-73.493 1624.4675,-67.2908"/>
<polygon fill="#191970" stroke="#191970" points="1624.5303,-63.7905 1614.3925,-66.8688 1624.2373,-70.7843 1624.5303,-63.7905"/>
</g>
<!-- Node58&#45;&gt;Node46 -->
<g id="edge123" class="edge">
<title>Node58&#45;&gt;Node46</title>
<path fill="none" stroke="#191970" d="M2352.3218,-404.107C2349.1714,-403.7156 2346.0497,-403.3437 2343,-403 2341.3873,-402.8183 1952.2376,-370.6551 1826.0214,-360.2246"/>
<polygon fill="#191970" stroke="#191970" points="1826.2688,-356.7332 1816.0145,-359.3976 1825.6922,-363.7094 1826.2688,-356.7332"/>
</g>
<!-- Node58&#45;&gt;Node51 -->
<g id="edge122" class="edge">
<title>Node58&#45;&gt;Node51</title>
<path fill="none" stroke="#191970" d="M2352.3134,-404.1791C2349.1651,-403.7689 2346.0463,-403.3732 2343,-403 2190.1078,-384.2684 2147.7751,-392.8961 1991.8746,-366.95"/>
<polygon fill="#191970" stroke="#191970" points="1992.3735,-363.4848 1981.9309,-365.2742 1991.2102,-370.3874 1992.3735,-363.4848"/>
</g>
<!-- Node58&#45;&gt;Node52 -->
<g id="edge125" class="edge">
<title>Node58&#45;&gt;Node52</title>
<path fill="none" stroke="#191970" d="M2373.7229,-403.4369C2334.5256,-393.8932 2274.2,-379.2052 2231.9165,-368.9101"/>
<polygon fill="#191970" stroke="#191970" points="2232.6592,-365.4888 2222.1151,-366.5237 2231.0032,-372.2901 2232.6592,-365.4888"/>
</g>
</g>
</svg>
