<?xml version="1.0" encoding="UTF-8" standalone="no"?>
<!DOCTYPE svg PUBLIC "-//W3C//DTD SVG 1.1//EN"
 "http://www.w3.org/Graphics/SVG/1.1/DTD/svg11.dtd">
<!-- Generated by graphviz version 2.40.1 (20161225.0304)
 -->
<!-- Title: ModelTestUtils.h Pages: 1 -->
<svg width="2101pt" height="744pt"
 viewBox="0.00 0.00 2100.52 744.00" xmlns="http://www.w3.org/2000/svg" xmlns:xlink="http://www.w3.org/1999/xlink">
<g id="graph0" class="graph" transform="scale(1 1) rotate(0) translate(4 740)">
<title>ModelTestUtils.h</title>
<!-- Node0 -->
<g id="node1" class="node">
<title>Node0</title>
<polygon fill="#bfbfbf" stroke="#000000" points="583.7527,-716.5 583.7527,-735.5 680.7527,-735.5 680.7527,-716.5 583.7527,-716.5"/>
<text text-anchor="middle" x="632.2527" y="-723.5" font-family="FreeSans.ttf" font-size="10.00" fill="#000000">ModelTestUtils.h</text>
</g>
<!-- Node1 -->
<g id="node2" class="node">
<title>Node1</title>
<g id="a_node2"><a xlink:href="Model_8h.html" target="_top" xlink:title="iDynTree/Model/Model.h">
<polygon fill="none" stroke="#000000" points="1088.7527,-660.5 1088.7527,-679.5 1221.7527,-679.5 1221.7527,-660.5 1088.7527,-660.5"/>
<text text-anchor="middle" x="1155.2527" y="-667.5" font-family="FreeSans.ttf" font-size="10.00" fill="#000000">iDynTree/Model/Model.h</text>
</a>
</g>
</g>
<!-- Node0&#45;&gt;Node1 -->
<g id="edge1" class="edge">
<title>Node0&#45;&gt;Node1</title>
<path fill="none" stroke="#191970" d="M680.9856,-720.7819C772.2171,-711.0134 969.4058,-689.8995 1078.5997,-678.2076"/>
<polygon fill="#191970" stroke="#191970" points="1078.9927,-681.6856 1088.5632,-677.1408 1078.2474,-674.7254 1078.9927,-681.6856"/>
</g>
<!-- Node2 -->
<g id="node3" class="node">
<title>Node2</title>
<g id="a_node3"><a xlink:href="IJoint_8h.html" target="_top" xlink:title="iDynTree/Model/IJoint.h">
<polygon fill="none" stroke="#000000" points="222.2527,-537.5 222.2527,-556.5 350.2527,-556.5 350.2527,-537.5 222.2527,-537.5"/>
<text text-anchor="middle" x="286.2527" y="-544.5" font-family="FreeSans.ttf" font-size="10.00" fill="#000000">iDynTree/Model/IJoint.h</text>
</a>
</g>
</g>
<!-- Node0&#45;&gt;Node2 -->
<g id="edge127" class="edge">
<title>Node0&#45;&gt;Node2</title>
<path fill="none" stroke="#191970" d="M601.7822,-716.483C555.4608,-701.21 465.6032,-668.3777 398.2527,-624 381.4494,-612.9282 381.3847,-605.0291 365.2527,-593 349.3428,-581.1365 330.1265,-569.8873 314.6301,-561.4829"/>
<polygon fill="#191970" stroke="#191970" points="315.9969,-558.2456 305.5248,-556.6375 312.7085,-564.4251 315.9969,-558.2456"/>
</g>
<!-- Node14 -->
<g id="node15" class="node">
<title>Node14</title>
<polygon fill="none" stroke="#bfbfbf" points="619.2527,-.5 619.2527,-19.5 671.2527,-19.5 671.2527,-.5 619.2527,-.5"/>
<text text-anchor="middle" x="645.2527" y="-7.5" font-family="FreeSans.ttf" font-size="10.00" fill="#000000">cassert</text>
</g>
<!-- Node0&#45;&gt;Node14 -->
<g id="edge126" class="edge">
<title>Node0&#45;&gt;Node14</title>
<path fill="none" stroke="#191970" d="M583.4252,-724.7014C452.7465,-720.862 101.957,-708.0347 58.2527,-680 27.6038,-660.3398 18.2527,-644.9126 18.2527,-608.5 18.2527,-608.5 18.2527,-608.5 18.2527,-122 18.2527,-61.5749 475.3522,-22.6844 608.9803,-12.6062"/>
<polygon fill="#191970" stroke="#191970" points="609.3975,-16.0849 619.1096,-11.851 608.877,-9.1043 609.3975,-16.0849"/>
</g>
<!-- Node43 -->
<g id="node37" class="node">
<title>Node43</title>
<g id="a_node37"><a xlink:href="FixedJoint_8h.html" target="_top" xlink:title="iDynTree/Model/FixedJoint.h">
<polygon fill="none" stroke="#000000" points="450.7527,-599 450.7527,-618 601.7527,-618 601.7527,-599 450.7527,-599"/>
<text text-anchor="middle" x="526.2527" y="-606" font-family="FreeSans.ttf" font-size="10.00" fill="#000000">iDynTree/Model/FixedJoint.h</text>
</a>
</g>
</g>
<!-- Node0&#45;&gt;Node43 -->
<g id="edge73" class="edge">
<title>Node0&#45;&gt;Node43</title>
<path fill="none" stroke="#191970" d="M623.5783,-716.3845C605.7201,-696.5889 564.6267,-651.0372 541.9653,-625.9173"/>
<polygon fill="#191970" stroke="#191970" points="544.3442,-623.329 535.047,-618.2484 539.1466,-628.0179 544.3442,-623.329"/>
</g>
<!-- Node44 -->
<g id="node38" class="node">
<title>Node44</title>
<g id="a_node38"><a xlink:href="RevoluteJoint_8h.html" target="_top" xlink:title="iDynTree/Model/RevoluteJoint.h">
<polygon fill="none" stroke="#000000" points="67.2527,-660.5 67.2527,-679.5 235.2527,-679.5 235.2527,-660.5 67.2527,-660.5"/>
<text text-anchor="middle" x="151.2527" y="-667.5" font-family="FreeSans.ttf" font-size="10.00" fill="#000000">iDynTree/Model/RevoluteJoint.h</text>
</a>
</g>
</g>
<!-- Node0&#45;&gt;Node44 -->
<g id="edge77" class="edge">
<title>Node0&#45;&gt;Node44</title>
<path fill="none" stroke="#191970" d="M583.4849,-720.3222C503.8222,-711.0476 344.5163,-692.5005 243.1434,-680.6983"/>
<polygon fill="#191970" stroke="#191970" points="243.2472,-677.1868 232.9095,-679.5068 242.4376,-684.1399 243.2472,-677.1868"/>
</g>
<!-- Node48 -->
<g id="node42" class="node">
<title>Node48</title>
<g id="a_node42"><a xlink:href="FreeFloatingState_8h.html" target="_top" xlink:title="iDynTree/Model/FreeFloating\lState.h">
<polygon fill="none" stroke="#000000" points="838.2527,-593.5 838.2527,-623.5 992.2527,-623.5 992.2527,-593.5 838.2527,-593.5"/>
<text text-anchor="start" x="846.2527" y="-611.5" font-family="FreeSans.ttf" font-size="10.00" fill="#000000">iDynTree/Model/FreeFloating</text>
<text text-anchor="middle" x="915.2527" y="-600.5" font-family="FreeSans.ttf" font-size="10.00" fill="#000000">State.h</text>
</a>
</g>
</g>
<!-- Node0&#45;&gt;Node48 -->
<g id="edge91" class="edge">
<title>Node0&#45;&gt;Node48</title>
<path fill="none" stroke="#191970" d="M655.4118,-716.3845C702.1508,-696.9787 808.504,-652.8215 869.6718,-627.4249"/>
<polygon fill="#191970" stroke="#191970" points="871.1914,-630.5838 879.0849,-623.5167 868.5072,-624.1188 871.1914,-630.5838"/>
</g>
<!-- Node50 -->
<g id="node44" class="node">
<title>Node50</title>
<g id="a_node44"><a xlink:href="LinkState_8h.html" target="_top" xlink:title="iDynTree/Model/LinkState.h">
<polygon fill="none" stroke="#000000" points="557.7527,-537.5 557.7527,-556.5 706.7527,-556.5 706.7527,-537.5 557.7527,-537.5"/>
<text text-anchor="middle" x="632.2527" y="-544.5" font-family="FreeSans.ttf" font-size="10.00" fill="#000000">iDynTree/Model/LinkState.h</text>
</a>
</g>
</g>
<!-- Node0&#45;&gt;Node50 -->
<g id="edge114" class="edge">
<title>Node0&#45;&gt;Node50</title>
<path fill="none" stroke="#191970" d="M632.2527,-716.3762C632.2527,-688.2097 632.2527,-605.5126 632.2527,-567.0713"/>
<polygon fill="#191970" stroke="#191970" points="635.7528,-566.6714 632.2527,-556.6714 628.7528,-566.6714 635.7528,-566.6714"/>
</g>
<!-- Node53 -->
<g id="node47" class="node">
<title>Node53</title>
<g id="a_node47"><a xlink:href="TestUtils_8h.html" target="_top" xlink:title="iDynTree/Core/TestUtils.h">
<polygon fill="none" stroke="#000000" points="1928.7527,-476 1928.7527,-495 2067.7527,-495 2067.7527,-476 1928.7527,-476"/>
<text text-anchor="middle" x="1998.2527" y="-483" font-family="FreeSans.ttf" font-size="10.00" fill="#000000">iDynTree/Core/TestUtils.h</text>
</a>
</g>
</g>
<!-- Node0&#45;&gt;Node53 -->
<g id="edge115" class="edge">
<title>Node0&#45;&gt;Node53</title>
<path fill="none" stroke="#191970" d="M681.0764,-724.7282C872.0019,-719.2819 1567.7525,-694.8831 1775.2527,-624 1858.3004,-595.6305 1942.5851,-531.5765 1979.2575,-501.5731"/>
<polygon fill="#191970" stroke="#191970" points="1981.6651,-504.1236 1987.1343,-495.0495 1977.2001,-498.7325 1981.6651,-504.1236"/>
</g>
<!-- Node1&#45;&gt;Node2 -->
<g id="edge2" class="edge">
<title>Node1&#45;&gt;Node2</title>
<path fill="none" stroke="#191970" d="M1088.4699,-667.7575C922.8379,-661.9025 502.1676,-645.1334 442.2527,-624 419.6933,-616.0428 419.226,-604.5052 398.2527,-593 374.4928,-579.9662 346.2591,-568.3938 324.0835,-560.1165"/>
<polygon fill="#191970" stroke="#191970" points="325.2646,-556.8217 314.6709,-556.6642 322.8541,-563.3936 325.2646,-556.8217"/>
</g>
<!-- Node3 -->
<g id="node4" class="node">
<title>Node3</title>
<g id="a_node4"><a xlink:href="Indices_8h.html" target="_top" xlink:title="iDynTree/Model/Indices.h">
<polygon fill="none" stroke="#000000" points="168.2527,-476 168.2527,-495 306.2527,-495 306.2527,-476 168.2527,-476"/>
<text text-anchor="middle" x="237.2527" y="-483" font-family="FreeSans.ttf" font-size="10.00" fill="#000000">iDynTree/Model/Indices.h</text>
</a>
</g>
</g>
<!-- Node1&#45;&gt;Node3 -->
<g id="edge65" class="edge">
<title>Node1&#45;&gt;Node3</title>
<path fill="none" stroke="#191970" d="M1088.6196,-665.8319C978.068,-658.5175 761.5497,-642.3893 687.2527,-624 651.8416,-615.2354 646.1615,-603.5896 611.2527,-593 534.849,-569.8229 510.7162,-583.0764 435.2527,-557 416.4665,-550.5084 413.6411,-544.5451 395.2527,-537 357.56,-521.534 313.3736,-507.4598 281.3274,-497.9482"/>
<polygon fill="#191970" stroke="#191970" points="281.9541,-494.4844 271.373,-495.0243 279.9813,-501.2007 281.9541,-494.4844"/>
</g>
<!-- Node6 -->
<g id="node7" class="node">
<title>Node6</title>
<g id="a_node7"><a xlink:href="Link_8h.html" target="_top" xlink:title="iDynTree/Model/Link.h">
<polygon fill="none" stroke="#000000" points="696.2527,-599 696.2527,-618 820.2527,-618 820.2527,-599 696.2527,-599"/>
<text text-anchor="middle" x="758.2527" y="-606" font-family="FreeSans.ttf" font-size="10.00" fill="#000000">iDynTree/Model/Link.h</text>
</a>
</g>
</g>
<!-- Node1&#45;&gt;Node6 -->
<g id="edge6" class="edge">
<title>Node1&#45;&gt;Node6</title>
<path fill="none" stroke="#191970" d="M1088.526,-662.0672C1022.4703,-653.8657 918.5643,-640.0268 829.2527,-624 822.8961,-622.8593 816.2429,-621.5551 809.6658,-620.1983"/>
<polygon fill="#191970" stroke="#191970" points="809.9543,-616.6821 799.4467,-618.039 808.5071,-623.5309 809.9543,-616.6821"/>
</g>
<!-- Node39 -->
<g id="node33" class="node">
<title>Node39</title>
<g id="a_node33"><a xlink:href="Transform_8h.html" target="_top" xlink:title="iDynTree/Core/Transform.h">
<polygon fill="none" stroke="#000000" points="719.2527,-409 719.2527,-428 865.2527,-428 865.2527,-409 719.2527,-409"/>
<text text-anchor="middle" x="792.2527" y="-416" font-family="FreeSans.ttf" font-size="10.00" fill="#000000">iDynTree/Core/Transform.h</text>
</a>
</g>
</g>
<!-- Node1&#45;&gt;Node39 -->
<g id="edge60" class="edge">
<title>Node1&#45;&gt;Node39</title>
<path fill="none" stroke="#191970" d="M1182.1252,-660.4069C1255.8218,-632.7558 1450.878,-549.7647 1377.2527,-470 1343.3064,-433.223 978.0677,-438.8344 928.2527,-434 911.1497,-432.3402 892.8581,-430.3814 875.4139,-428.425"/>
<polygon fill="#191970" stroke="#191970" points="875.5865,-424.9223 865.2564,-427.2756 874.7994,-431.8779 875.5865,-424.9223"/>
</g>
<!-- Node40 -->
<g id="node34" class="node">
<title>Node40</title>
<g id="a_node34"><a xlink:href="SolidShapes_8h.html" target="_top" xlink:title="iDynTree/Model/SolidShapes.h">
<polygon fill="none" stroke="#000000" points="1708.7527,-476 1708.7527,-495 1871.7527,-495 1871.7527,-476 1708.7527,-476"/>
<text text-anchor="middle" x="1790.2527" y="-483" font-family="FreeSans.ttf" font-size="10.00" fill="#000000">iDynTree/Model/SolidShapes.h</text>
</a>
</g>
</g>
<!-- Node1&#45;&gt;Node40 -->
<g id="edge66" class="edge">
<title>Node1&#45;&gt;Node40</title>
<path fill="none" stroke="#191970" d="M1221.8238,-667.4792C1356.9964,-661.9058 1654.2515,-647.1649 1694.2527,-624 1741.3594,-596.7203 1770.703,-535.9324 1783.2201,-504.7547"/>
<polygon fill="#191970" stroke="#191970" points="1786.6238,-505.655 1786.9474,-495.0651 1780.0905,-503.1418 1786.6238,-505.655"/>
</g>
<!-- Node41 -->
<g id="node35" class="node">
<title>Node41</title>
<polygon fill="none" stroke="#bfbfbf" points="1722.7527,-409 1722.7527,-428 1771.7527,-428 1771.7527,-409 1722.7527,-409"/>
<text text-anchor="middle" x="1747.2527" y="-416" font-family="FreeSans.ttf" font-size="10.00" fill="#000000">cstdlib</text>
</g>
<!-- Node1&#45;&gt;Node41 -->
<g id="edge71" class="edge">
<title>Node1&#45;&gt;Node41</title>
<path fill="none" stroke="#191970" d="M1221.9277,-666.792C1362.3497,-659.722 1679.4213,-641.9926 1725.2527,-624 1807.4387,-591.7352 1842.7241,-580.4425 1881.2527,-501 1887.265,-488.6032 1889.0809,-481.3379 1881.2527,-470 1855.5985,-432.8439 1828.345,-450.3387 1786.2527,-434 1784.4188,-433.2881 1782.5379,-432.554 1780.6404,-431.8103"/>
<polygon fill="#191970" stroke="#191970" points="1781.7408,-428.4819 1771.154,-428.0695 1779.1728,-434.9939 1781.7408,-428.4819"/>
</g>
<!-- Node42 -->
<g id="node36" class="node">
<title>Node42</title>
<polygon fill="none" stroke="#bfbfbf" points="1618.7527,-409 1618.7527,-428 1665.7527,-428 1665.7527,-409 1618.7527,-409"/>
<text text-anchor="middle" x="1642.2527" y="-416" font-family="FreeSans.ttf" font-size="10.00" fill="#000000">vector</text>
</g>
<!-- Node1&#45;&gt;Node42 -->
<g id="edge72" class="edge">
<title>Node1&#45;&gt;Node42</title>
<path fill="none" stroke="#191970" d="M1203.4862,-660.4828C1315.5302,-637.2978 1587.8524,-574.3814 1640.2527,-501 1653.2151,-482.8475 1651.1509,-456.2613 1647.543,-438.2131"/>
<polygon fill="#191970" stroke="#191970" points="1650.8951,-437.1757 1645.2176,-428.2306 1644.0777,-438.7639 1650.8951,-437.1757"/>
</g>
<!-- Node2&#45;&gt;Node3 -->
<g id="edge3" class="edge">
<title>Node2&#45;&gt;Node3</title>
<path fill="none" stroke="#191970" d="M278.5965,-537.3906C271.3038,-528.2376 260.152,-514.2409 251.2675,-503.09"/>
<polygon fill="#191970" stroke="#191970" points="253.9858,-500.8849 245.0169,-495.2449 248.511,-505.247 253.9858,-500.8849"/>
</g>
<!-- Node4 -->
<g id="node5" class="node">
<title>Node4</title>
<polygon fill="none" stroke="#bfbfbf" points="1040.2527,-56.5 1040.2527,-75.5 1084.2527,-75.5 1084.2527,-56.5 1040.2527,-56.5"/>
<text text-anchor="middle" x="1062.2527" y="-63.5" font-family="FreeSans.ttf" font-size="10.00" fill="#000000">string</text>
</g>
<!-- Node3&#45;&gt;Node4 -->
<g id="edge4" class="edge">
<title>Node3&#45;&gt;Node4</title>
<path fill="none" stroke="#191970" d="M247.3826,-475.926C298.4847,-427.7986 528.9283,-212.8346 615.2527,-168 689.0725,-129.66 940.3014,-85.9357 1030.054,-71.1741"/>
<polygon fill="#191970" stroke="#191970" points="1030.8717,-74.587 1040.1762,-69.5198 1029.7426,-67.6787 1030.8717,-74.587"/>
</g>
<!-- Node5 -->
<g id="node6" class="node">
<title>Node5</title>
<polygon fill="none" stroke="#bfbfbf" points="194.2527,-409 194.2527,-428 280.2527,-428 280.2527,-409 194.2527,-409"/>
<text text-anchor="middle" x="237.2527" y="-416" font-family="FreeSans.ttf" font-size="10.00" fill="#000000">ModelExport.h</text>
</g>
<!-- Node3&#45;&gt;Node5 -->
<g id="edge5" class="edge">
<title>Node3&#45;&gt;Node5</title>
<path fill="none" stroke="#191970" d="M237.2527,-475.9005C237.2527,-466.149 237.2527,-450.7597 237.2527,-438.3695"/>
<polygon fill="#191970" stroke="#191970" points="240.7528,-438.0816 237.2527,-428.0817 233.7528,-438.0817 240.7528,-438.0816"/>
</g>
<!-- Node6&#45;&gt;Node3 -->
<g id="edge59" class="edge">
<title>Node6&#45;&gt;Node3</title>
<path fill="none" stroke="#191970" d="M710.3695,-598.916C661.4554,-588.9836 583.3752,-572.7359 516.2527,-557 433.5289,-537.6065 337.7005,-512.4567 282.6111,-497.7367"/>
<polygon fill="#191970" stroke="#191970" points="283.3761,-494.3184 272.8111,-495.1133 281.5659,-501.0803 283.3761,-494.3184"/>
</g>
<!-- Node7 -->
<g id="node8" class="node">
<title>Node7</title>
<g id="a_node8"><a xlink:href="SpatialInertia_8h.html" target="_top" xlink:title="iDynTree/Core/SpatialInertia.h">
<polygon fill="none" stroke="#000000" points="820.2527,-537.5 820.2527,-556.5 982.2527,-556.5 982.2527,-537.5 820.2527,-537.5"/>
<text text-anchor="middle" x="901.2527" y="-544.5" font-family="FreeSans.ttf" font-size="10.00" fill="#000000">iDynTree/Core/SpatialInertia.h</text>
</a>
</g>
</g>
<!-- Node6&#45;&gt;Node7 -->
<g id="edge7" class="edge">
<title>Node6&#45;&gt;Node7</title>
<path fill="none" stroke="#191970" d="M780.5965,-598.8906C804.523,-588.6005 842.6836,-572.1888 869.6744,-560.5809"/>
<polygon fill="#191970" stroke="#191970" points="871.2622,-563.708 879.0659,-556.5419 868.4966,-557.2775 871.2622,-563.708"/>
</g>
<!-- Node8 -->
<g id="node9" class="node">
<title>Node8</title>
<g id="a_node9"><a xlink:href="SpatialInertiaRaw_8h.html" target="_top" xlink:title="iDynTree/Core/SpatialInertia\lRaw.h">
<polygon fill="none" stroke="#ff0000" points="1214.7527,-470.5 1214.7527,-500.5 1367.7527,-500.5 1367.7527,-470.5 1214.7527,-470.5"/>
<text text-anchor="start" x="1222.7527" y="-488.5" font-family="FreeSans.ttf" font-size="10.00" fill="#000000">iDynTree/Core/SpatialInertia</text>
<text text-anchor="middle" x="1291.2527" y="-477.5" font-family="FreeSans.ttf" font-size="10.00" fill="#000000">Raw.h</text>
</a>
</g>
</g>
<!-- Node7&#45;&gt;Node8 -->
<g id="edge8" class="edge">
<title>Node7&#45;&gt;Node8</title>
<path fill="none" stroke="#191970" d="M965.1672,-537.4707C1025.7387,-528.3679 1119.2466,-514.1292 1200.2527,-501 1201.543,-500.7909 1202.8435,-500.5793 1204.1521,-500.3658"/>
<polygon fill="#191970" stroke="#191970" points="1205.0137,-503.7712 1214.313,-498.6944 1203.8775,-496.864 1205.0137,-503.7712"/>
</g>
<!-- Node18 -->
<g id="node10" class="node">
<title>Node18</title>
<g id="a_node10"><a xlink:href="VectorFixSize_8h.html" target="_top" xlink:title="iDynTree/Core/VectorFixSize.h">
<polygon fill="none" stroke="#000000" points="834.7527,-112.5 834.7527,-131.5 995.7527,-131.5 995.7527,-112.5 834.7527,-112.5"/>
<text text-anchor="middle" x="915.2527" y="-119.5" font-family="FreeSans.ttf" font-size="10.00" fill="#000000">iDynTree/Core/VectorFixSize.h</text>
</a>
</g>
</g>
<!-- Node7&#45;&gt;Node18 -->
<g id="edge9" class="edge">
<title>Node7&#45;&gt;Node18</title>
<path fill="none" stroke="#191970" d="M982.2954,-540.229C1049.1294,-533.3435 1137.5948,-520.8302 1167.2527,-501 1208.7662,-473.2429 1272.9447,-358.8446 1287.2527,-311 1296.9313,-278.6355 1290.7529,-268.6881 1288.2527,-235 1286.0244,-204.9749 1299.7761,-189.0527 1278.2527,-168 1259.0992,-149.2654 1107.5425,-135.2459 1006.4103,-127.8632"/>
<polygon fill="#191970" stroke="#191970" points="1006.4021,-124.3536 996.1765,-127.1261 1005.8992,-131.3355 1006.4021,-124.3536"/>
</g>
<!-- Node27 -->
<g id="node19" class="node">
<title>Node27</title>
<g id="a_node19"><a xlink:href="Twist_8h.html" target="_top" xlink:title="iDynTree/Core/Twist.h">
<polygon fill="none" stroke="#000000" points="642.2527,-476 642.2527,-495 764.2527,-495 764.2527,-476 642.2527,-476"/>
<text text-anchor="middle" x="703.2527" y="-483" font-family="FreeSans.ttf" font-size="10.00" fill="#000000">iDynTree/Core/Twist.h</text>
</a>
</g>
</g>
<!-- Node7&#45;&gt;Node27 -->
<g id="edge21" class="edge">
<title>Node7&#45;&gt;Node27</title>
<path fill="none" stroke="#191970" d="M870.3152,-537.3906C836.1691,-526.7846 781.0854,-509.6753 743.5792,-498.0257"/>
<polygon fill="#191970" stroke="#191970" points="744.5611,-494.6658 733.973,-495.0419 742.4847,-501.3507 744.5611,-494.6658"/>
</g>
<!-- Node35 -->
<g id="node29" class="node">
<title>Node35</title>
<g id="a_node29"><a xlink:href="SpatialMomentum_8h.html" target="_top" xlink:title="iDynTree/Core/SpatialMomentum.h">
<polygon fill="none" stroke="#000000" points="972.2527,-476 972.2527,-495 1158.2527,-495 1158.2527,-476 972.2527,-476"/>
<text text-anchor="middle" x="1065.2527" y="-483" font-family="FreeSans.ttf" font-size="10.00" fill="#000000">iDynTree/Core/SpatialMomentum.h</text>
</a>
</g>
</g>
<!-- Node7&#45;&gt;Node35 -->
<g id="edge50" class="edge">
<title>Node7&#45;&gt;Node35</title>
<path fill="none" stroke="#191970" d="M926.8777,-537.3906C954.679,-526.9652 999.2371,-510.2559 1030.2521,-498.6252"/>
<polygon fill="#191970" stroke="#191970" points="1031.6733,-501.8303 1039.8077,-495.0419 1029.2154,-495.276 1031.6733,-501.8303"/>
</g>
<!-- Node37 -->
<g id="node31" class="node">
<title>Node37</title>
<g id="a_node31"><a xlink:href="SpatialAcc_8h.html" target="_top" xlink:title="iDynTree/Core/SpatialAcc.h">
<polygon fill="none" stroke="#000000" points="438.2527,-476 438.2527,-495 586.2527,-495 586.2527,-476 438.2527,-476"/>
<text text-anchor="middle" x="512.2527" y="-483" font-family="FreeSans.ttf" font-size="10.00" fill="#000000">iDynTree/Core/SpatialAcc.h</text>
</a>
</g>
</g>
<!-- Node7&#45;&gt;Node37 -->
<g id="edge55" class="edge">
<title>Node7&#45;&gt;Node37</title>
<path fill="none" stroke="#191970" d="M840.8983,-537.4581C771.0908,-526.4217 656.3338,-508.2789 582.5579,-496.6151"/>
<polygon fill="#191970" stroke="#191970" points="582.8526,-493.1183 572.4287,-495.0137 581.7594,-500.0324 582.8526,-493.1183"/>
</g>
<!-- Node38 -->
<g id="node32" class="node">
<title>Node38</title>
<g id="a_node32"><a xlink:href="Wrench_8h.html" target="_top" xlink:title="iDynTree/Core/Wrench.h">
<polygon fill="none" stroke="#000000" points="820.7527,-476 820.7527,-495 953.7527,-495 953.7527,-476 820.7527,-476"/>
<text text-anchor="middle" x="887.2527" y="-483" font-family="FreeSans.ttf" font-size="10.00" fill="#000000">iDynTree/Core/Wrench.h</text>
</a>
</g>
</g>
<!-- Node7&#45;&gt;Node38 -->
<g id="edge57" class="edge">
<title>Node7&#45;&gt;Node38</title>
<path fill="none" stroke="#191970" d="M899.0652,-537.3906C897.1042,-528.776 894.1664,-515.8708 891.7113,-505.0858"/>
<polygon fill="#191970" stroke="#191970" points="895.1035,-504.2185 889.4711,-495.2449 888.2781,-505.7723 895.1035,-504.2185"/>
</g>
<!-- Node18&#45;&gt;Node4 -->
<g id="edge17" class="edge">
<title>Node18&#45;&gt;Node4</title>
<path fill="none" stroke="#191970" d="M940.5229,-112.3733C965.5267,-102.848 1003.8628,-88.2438 1030.8189,-77.9748"/>
<polygon fill="#191970" stroke="#191970" points="1032.0906,-81.2358 1040.1894,-74.4051 1029.5985,-74.6944 1032.0906,-81.2358"/>
</g>
<!-- Node11 -->
<g id="node11" class="node">
<title>Node11</title>
<g id="a_node11"><a xlink:href="Utils_8h.html" target="_top" xlink:title="iDynTree/Core/Utils.h">
<polygon fill="none" stroke="#000000" points="855.7527,-56.5 855.7527,-75.5 974.7527,-75.5 974.7527,-56.5 855.7527,-56.5"/>
<text text-anchor="middle" x="915.2527" y="-63.5" font-family="FreeSans.ttf" font-size="10.00" fill="#000000">iDynTree/Core/Utils.h</text>
</a>
</g>
</g>
<!-- Node18&#45;&gt;Node11 -->
<g id="edge10" class="edge">
<title>Node18&#45;&gt;Node11</title>
<path fill="none" stroke="#191970" d="M915.2527,-112.2455C915.2527,-104.9382 915.2527,-94.6944 915.2527,-85.7046"/>
<polygon fill="#191970" stroke="#191970" points="918.7528,-85.6426 915.2527,-75.6427 911.7528,-85.6427 918.7528,-85.6426"/>
</g>
<!-- Node19 -->
<g id="node14" class="node">
<title>Node19</title>
<g id="a_node14"><a xlink:href="Span_8h.html" target="_top" xlink:title="iDynTree/Core/Span.h">
<polygon fill="none" stroke="#ff0000" points="1424.7527,-56.5 1424.7527,-75.5 1545.7527,-75.5 1545.7527,-56.5 1424.7527,-56.5"/>
<text text-anchor="middle" x="1485.2527" y="-63.5" font-family="FreeSans.ttf" font-size="10.00" fill="#000000">iDynTree/Core/Span.h</text>
</a>
</g>
</g>
<!-- Node18&#45;&gt;Node19 -->
<g id="edge13" class="edge">
<title>Node18&#45;&gt;Node19</title>
<path fill="none" stroke="#191970" d="M995.919,-115.8311C1092.736,-108.1447 1260.2474,-93.9497 1414.4347,-76.0435"/>
<polygon fill="#191970" stroke="#191970" points="1415.0446,-79.4962 1424.5706,-74.8588 1414.2319,-72.5435 1415.0446,-79.4962"/>
</g>
<!-- Node18&#45;&gt;Node14 -->
<g id="edge19" class="edge">
<title>Node18&#45;&gt;Node14</title>
<path fill="none" stroke="#191970" d="M892.2327,-112.4509C844.1114,-92.4895 732.7691,-46.3031 677.5315,-23.3897"/>
<polygon fill="#191970" stroke="#191970" points="678.7924,-20.1236 668.2145,-19.5249 676.1103,-26.5894 678.7924,-20.1236"/>
</g>
<!-- Node17 -->
<g id="node17" class="node">
<title>Node17</title>
<polygon fill="none" stroke="#bfbfbf" points="536.2527,-56.5 536.2527,-75.5 592.2527,-75.5 592.2527,-56.5 536.2527,-56.5"/>
<text text-anchor="middle" x="564.2527" y="-63.5" font-family="FreeSans.ttf" font-size="10.00" fill="#000000">sstream</text>
</g>
<!-- Node18&#45;&gt;Node17 -->
<g id="edge18" class="edge">
<title>Node18&#45;&gt;Node17</title>
<path fill="none" stroke="#191970" d="M855.3125,-112.4369C782.9413,-100.8905 663.3745,-81.8143 602.4703,-72.0974"/>
<polygon fill="#191970" stroke="#191970" points="602.9362,-68.6275 592.5096,-70.5082 601.8333,-75.5401 602.9362,-68.6275"/>
</g>
<!-- Node15 -->
<g id="node18" class="node">
<title>Node15</title>
<polygon fill="none" stroke="#bfbfbf" points="678.2527,-56.5 678.2527,-75.5 728.2527,-75.5 728.2527,-56.5 678.2527,-56.5"/>
<text text-anchor="middle" x="703.2527" y="-63.5" font-family="FreeSans.ttf" font-size="10.00" fill="#000000">cstring</text>
</g>
<!-- Node18&#45;&gt;Node15 -->
<g id="edge20" class="edge">
<title>Node18&#45;&gt;Node15</title>
<path fill="none" stroke="#191970" d="M878.8086,-112.3733C839.3595,-101.9527 776.8985,-85.4536 738.0887,-75.2019"/>
<polygon fill="#191970" stroke="#191970" points="738.8465,-71.7821 728.2842,-72.6121 737.0587,-78.55 738.8465,-71.7821"/>
</g>
<!-- Node12 -->
<g id="node12" class="node">
<title>Node12</title>
<polygon fill="none" stroke="#bfbfbf" points="1317.7527,-.5 1317.7527,-19.5 1370.7527,-19.5 1370.7527,-.5 1317.7527,-.5"/>
<text text-anchor="middle" x="1344.2527" y="-7.5" font-family="FreeSans.ttf" font-size="10.00" fill="#000000">cstddef</text>
</g>
<!-- Node11&#45;&gt;Node12 -->
<g id="edge11" class="edge">
<title>Node11&#45;&gt;Node12</title>
<path fill="none" stroke="#191970" d="M974.9033,-58.2134C1064.8727,-46.4692 1232.6665,-24.566 1307.0755,-14.853"/>
<polygon fill="#191970" stroke="#191970" points="1307.8931,-18.276 1317.356,-13.511 1306.987,-11.3349 1307.8931,-18.276"/>
</g>
<!-- Node13 -->
<g id="node13" class="node">
<title>Node13</title>
<polygon fill="none" stroke="#bfbfbf" points="875.2527,-.5 875.2527,-19.5 955.2527,-19.5 955.2527,-.5 875.2527,-.5"/>
<text text-anchor="middle" x="915.2527" y="-7.5" font-family="FreeSans.ttf" font-size="10.00" fill="#000000">CoreExport.h</text>
</g>
<!-- Node11&#45;&gt;Node13 -->
<g id="edge12" class="edge">
<title>Node11&#45;&gt;Node13</title>
<path fill="none" stroke="#191970" d="M915.2527,-56.2455C915.2527,-48.9382 915.2527,-38.6944 915.2527,-29.7046"/>
<polygon fill="#191970" stroke="#191970" points="918.7528,-29.6426 915.2527,-19.6427 911.7528,-29.6427 918.7528,-29.6426"/>
</g>
<!-- Node19&#45;&gt;Node12 -->
<g id="edge16" class="edge">
<title>Node19&#45;&gt;Node12</title>
<path fill="none" stroke="#191970" d="M1461.014,-56.3733C1437.9738,-47.2226 1403.1313,-33.3844 1377.5027,-23.2057"/>
<polygon fill="#191970" stroke="#191970" points="1378.761,-19.9395 1368.1752,-19.5011 1376.1771,-26.4452 1378.761,-19.9395"/>
</g>
<!-- Node19&#45;&gt;Node14 -->
<g id="edge14" class="edge">
<title>Node19&#45;&gt;Node14</title>
<path fill="none" stroke="#191970" d="M1424.5837,-57.0217C1421.4308,-56.6526 1418.3062,-56.3088 1415.2527,-56 1269.9594,-41.3071 813.3726,-18.2628 681.3434,-11.7606"/>
<polygon fill="#191970" stroke="#191970" points="681.5034,-8.2643 671.3436,-11.2692 681.1597,-15.2559 681.5034,-8.2643"/>
</g>
<!-- Node20 -->
<g id="node16" class="node">
<title>Node20</title>
<polygon fill="none" stroke="#bfbfbf" points="1593.2527,-.5 1593.2527,-19.5 1657.2527,-19.5 1657.2527,-.5 1593.2527,-.5"/>
<text text-anchor="middle" x="1625.2527" y="-7.5" font-family="FreeSans.ttf" font-size="10.00" fill="#000000">algorithm</text>
</g>
<!-- Node19&#45;&gt;Node20 -->
<g id="edge15" class="edge">
<title>Node19&#45;&gt;Node20</title>
<path fill="none" stroke="#191970" d="M1509.3196,-56.3733C1532.0956,-47.2629 1566.4871,-33.5062 1591.9018,-23.3404"/>
<polygon fill="#191970" stroke="#191970" points="1593.515,-26.4648 1601.4999,-19.5011 1590.9153,-19.9654 1593.515,-26.4648"/>
</g>
<!-- Node28 -->
<g id="node20" class="node">
<title>Node28</title>
<g id="a_node20"><a xlink:href="SpatialMotionVector_8h.html" target="_top" xlink:title="iDynTree/Core/SpatialMotion\lVector.h">
<polygon fill="none" stroke="#000000" points="478.7527,-403.5 478.7527,-433.5 633.7527,-433.5 633.7527,-403.5 478.7527,-403.5"/>
<text text-anchor="start" x="486.7527" y="-421.5" font-family="FreeSans.ttf" font-size="10.00" fill="#000000">iDynTree/Core/SpatialMotion</text>
<text text-anchor="middle" x="556.2527" y="-410.5" font-family="FreeSans.ttf" font-size="10.00" fill="#000000">Vector.h</text>
</a>
</g>
</g>
<!-- Node27&#45;&gt;Node28 -->
<g id="edge22" class="edge">
<title>Node27&#45;&gt;Node28</title>
<path fill="none" stroke="#191970" d="M682.1912,-475.9005C660.4605,-465.9961 625.9694,-450.2756 598.5729,-437.7888"/>
<polygon fill="#191970" stroke="#191970" points="599.7619,-434.4844 589.2109,-433.5218 596.8588,-440.854 599.7619,-434.4844"/>
</g>
<!-- Node28&#45;&gt;Node18 -->
<g id="edge23" class="edge">
<title>Node28&#45;&gt;Node18</title>
<path fill="none" stroke="#191970" d="M556.8381,-403.49C559.4173,-359.5609 573.3311,-230.432 648.2527,-168 674.6325,-146.0178 757.7711,-134.1471 824.3451,-128.0044"/>
<polygon fill="#191970" stroke="#191970" points="824.8071,-131.4772 834.4569,-127.1031 824.1856,-124.5048 824.8071,-131.4772"/>
</g>
<!-- Node29 -->
<g id="node21" class="node">
<title>Node29</title>
<g id="a_node21"><a xlink:href="GeomVector3_8h.html" target="_top" xlink:title="iDynTree/Core/GeomVector3.h">
<polygon fill="none" stroke="#000000" points="656.7527,-174 656.7527,-193 819.7527,-193 819.7527,-174 656.7527,-174"/>
<text text-anchor="middle" x="738.2527" y="-181" font-family="FreeSans.ttf" font-size="10.00" fill="#000000">iDynTree/Core/GeomVector3.h</text>
</a>
</g>
</g>
<!-- Node28&#45;&gt;Node29 -->
<g id="edge24" class="edge">
<title>Node28&#45;&gt;Node29</title>
<path fill="none" stroke="#191970" d="M567.9145,-403.4422C600.0633,-361.9315 689.8594,-245.9858 724.4367,-201.3393"/>
<polygon fill="#191970" stroke="#191970" points="727.4041,-203.2239 730.76,-193.1746 721.8697,-198.9377 727.4041,-203.2239"/>
</g>
<!-- Node30 -->
<g id="node22" class="node">
<title>Node30</title>
<g id="a_node22"><a xlink:href="SpatialVector_8h.html" target="_top" xlink:title="iDynTree/Core/SpatialVector.h">
<polygon fill="none" stroke="#000000" points="858.7527,-347.5 858.7527,-366.5 1019.7527,-366.5 1019.7527,-347.5 858.7527,-347.5"/>
<text text-anchor="middle" x="939.2527" y="-354.5" font-family="FreeSans.ttf" font-size="10.00" fill="#000000">iDynTree/Core/SpatialVector.h</text>
</a>
</g>
</g>
<!-- Node28&#45;&gt;Node30 -->
<g id="edge26" class="edge">
<title>Node28&#45;&gt;Node30</title>
<path fill="none" stroke="#191970" d="M633.7585,-406.0546C702.992,-394.9374 803.4801,-378.8016 870.0563,-368.1112"/>
<polygon fill="#191970" stroke="#191970" points="870.7138,-371.5505 880.0324,-366.5093 869.6039,-364.6391 870.7138,-371.5505"/>
</g>
<!-- Node29&#45;&gt;Node18 -->
<g id="edge25" class="edge">
<title>Node29&#45;&gt;Node18</title>
<path fill="none" stroke="#191970" d="M765.909,-173.8906C796.1738,-163.3749 844.8383,-146.466 878.3438,-134.8243"/>
<polygon fill="#191970" stroke="#191970" points="879.4934,-138.1302 887.7907,-131.5419 877.1959,-131.5179 879.4934,-138.1302"/>
</g>
<!-- Node30&#45;&gt;Node11 -->
<g id="edge46" class="edge">
<title>Node30&#45;&gt;Node11</title>
<path fill="none" stroke="#191970" d="M994.6802,-347.4487C1103.928,-326.2004 1330.2347,-268.7781 1255.2527,-168 1222.9303,-124.5577 1074.7765,-92.6943 985.043,-76.9832"/>
<polygon fill="#191970" stroke="#191970" points="985.3881,-73.4911 974.9384,-75.239 984.1973,-80.3891 985.3881,-73.4911"/>
</g>
<!-- Node30&#45;&gt;Node17 -->
<g id="edge49" class="edge">
<title>Node30&#45;&gt;Node17</title>
<path fill="none" stroke="#191970" d="M865.7279,-347.4805C726.5189,-327.787 433.0087,-277.7216 373.2527,-199 346.8074,-164.1614 383.0344,-136.5219 419.2527,-112 451.6718,-90.0504 495.1669,-78.0967 526.0395,-71.9224"/>
<polygon fill="#191970" stroke="#191970" points="526.8139,-75.3381 535.9912,-70.044 525.5155,-68.4596 526.8139,-75.3381"/>
</g>
<!-- Node30&#45;&gt;Node29 -->
<g id="edge47" class="edge">
<title>Node30&#45;&gt;Node29</title>
<path fill="none" stroke="#191970" d="M928.1598,-347.4248C895.3598,-319.1124 798.5559,-235.5528 757.2639,-199.9101"/>
<polygon fill="#191970" stroke="#191970" points="759.4161,-197.1443 749.5592,-193.2595 754.8421,-202.4433 759.4161,-197.1443"/>
</g>
<!-- Node31 -->
<g id="node23" class="node">
<title>Node31</title>
<g id="a_node23"><a xlink:href="Position_8h.html" target="_top" xlink:title="Position.h">
<polygon fill="none" stroke="#000000" points="991.7527,-291.5 991.7527,-310.5 1056.7527,-310.5 1056.7527,-291.5 991.7527,-291.5"/>
<text text-anchor="middle" x="1024.2527" y="-298.5" font-family="FreeSans.ttf" font-size="10.00" fill="#000000">Position.h</text>
</a>
</g>
</g>
<!-- Node30&#45;&gt;Node31 -->
<g id="edge27" class="edge">
<title>Node30&#45;&gt;Node31</title>
<path fill="none" stroke="#191970" d="M954.0586,-347.2455C966.9783,-338.7337 985.9458,-326.2375 1000.908,-316.3801"/>
<polygon fill="#191970" stroke="#191970" points="1003.1915,-319.067 1009.6165,-310.6427 999.3403,-313.2216 1003.1915,-319.067"/>
</g>
<!-- Node33 -->
<g id="node25" class="node">
<title>Node33</title>
<g id="a_node25"><a xlink:href="Rotation_8h.html" target="_top" xlink:title="iDynTree/Core/Rotation.h">
<polygon fill="none" stroke="#000000" points="870.7527,-235.5 870.7527,-254.5 1007.7527,-254.5 1007.7527,-235.5 870.7527,-235.5"/>
<text text-anchor="middle" x="939.2527" y="-242.5" font-family="FreeSans.ttf" font-size="10.00" fill="#000000">iDynTree/Core/Rotation.h</text>
</a>
</g>
</g>
<!-- Node30&#45;&gt;Node33 -->
<g id="edge45" class="edge">
<title>Node30&#45;&gt;Node33</title>
<path fill="none" stroke="#191970" d="M939.2527,-347.4509C939.2527,-329.184 939.2527,-288.9553 939.2527,-264.6976"/>
<polygon fill="#191970" stroke="#191970" points="942.7528,-264.5249 939.2527,-254.5249 935.7528,-264.5249 942.7528,-264.5249"/>
</g>
<!-- Node16 -->
<g id="node28" class="node">
<title>Node16</title>
<polygon fill="none" stroke="#bfbfbf" points="1346.2527,-56.5 1346.2527,-75.5 1406.2527,-75.5 1406.2527,-56.5 1346.2527,-56.5"/>
<text text-anchor="middle" x="1376.2527" y="-63.5" font-family="FreeSans.ttf" font-size="10.00" fill="#000000">iostream</text>
</g>
<!-- Node30&#45;&gt;Node16 -->
<g id="edge48" class="edge">
<title>Node30&#45;&gt;Node16</title>
<path fill="none" stroke="#191970" d="M1019.9217,-347.7054C1066.5613,-340.7739 1125.8113,-329.2739 1176.2527,-311 1331.2958,-254.8312 1417.3651,-273.9724 1501.2527,-132 1505.7746,-124.3472 1506.3382,-119.2904 1501.2527,-112 1496.0901,-104.599 1450.7512,-89.1216 1416.1491,-78.1683"/>
<polygon fill="#191970" stroke="#191970" points="1416.8541,-74.7213 1406.2649,-75.0689 1414.7596,-81.4007 1416.8541,-74.7213"/>
</g>
<!-- Node31&#45;&gt;Node4 -->
<g id="edge44" class="edge">
<title>Node31&#45;&gt;Node4</title>
<path fill="none" stroke="#191970" d="M1057.0597,-297.5557C1109.5116,-290.0835 1210.8566,-267.1351 1255.2527,-199 1299.2189,-131.5248 1159.8539,-88.8882 1094.3448,-73.0133"/>
<polygon fill="#191970" stroke="#191970" points="1095.0406,-69.5815 1084.5045,-70.6956 1093.4357,-76.3951 1095.0406,-69.5815"/>
</g>
<!-- Node32 -->
<g id="node24" class="node">
<title>Node32</title>
<g id="a_node24"><a xlink:href="PositionRaw_8h.html" target="_top" xlink:title="iDynTree/Core/PositionRaw.h">
<polygon fill="none" stroke="#000000" points="1090.2527,-174 1090.2527,-193 1246.2527,-193 1246.2527,-174 1090.2527,-174"/>
<text text-anchor="middle" x="1168.2527" y="-181" font-family="FreeSans.ttf" font-size="10.00" fill="#000000">iDynTree/Core/PositionRaw.h</text>
</a>
</g>
</g>
<!-- Node31&#45;&gt;Node32 -->
<g id="edge28" class="edge">
<title>Node31&#45;&gt;Node32</title>
<path fill="none" stroke="#191970" d="M1036.0368,-291.3845C1060.7189,-271.2446 1118.0733,-224.445 1148.4904,-199.6255"/>
<polygon fill="#191970" stroke="#191970" points="1150.7705,-202.2823 1156.3058,-193.2484 1146.345,-196.8587 1150.7705,-202.2823"/>
</g>
<!-- Node31&#45;&gt;Node33 -->
<g id="edge31" class="edge">
<title>Node31&#45;&gt;Node33</title>
<path fill="none" stroke="#191970" d="M1009.4469,-291.2455C996.5271,-282.7337 977.5596,-270.2375 962.5975,-260.3801"/>
<polygon fill="#191970" stroke="#191970" points="964.1651,-257.2216 953.8889,-254.6427 960.314,-263.067 964.1651,-257.2216"/>
</g>
<!-- Node32&#45;&gt;Node4 -->
<g id="edge30" class="edge">
<title>Node32&#45;&gt;Node4</title>
<path fill="none" stroke="#191970" d="M1159.5783,-173.8845C1141.7201,-154.0889 1100.6267,-108.5372 1077.9653,-83.4173"/>
<polygon fill="#191970" stroke="#191970" points="1080.3442,-80.829 1071.047,-75.7484 1075.1466,-85.5179 1080.3442,-80.829"/>
</g>
<!-- Node32&#45;&gt;Node18 -->
<g id="edge29" class="edge">
<title>Node32&#45;&gt;Node18</title>
<path fill="none" stroke="#191970" d="M1128.9991,-173.9581C1084.6834,-163.1857 1012.5151,-145.6428 964.4667,-133.9631"/>
<polygon fill="#191970" stroke="#191970" points="965.1422,-130.5254 954.5985,-131.5643 963.4888,-137.3274 965.1422,-130.5254"/>
</g>
<!-- Node33&#45;&gt;Node4 -->
<g id="edge32" class="edge">
<title>Node33&#45;&gt;Node4</title>
<path fill="none" stroke="#191970" d="M967.6143,-235.3753C985.3622,-227.9991 1007.4086,-216.1445 1021.2527,-199 1048.3366,-165.4596 1057.5835,-114.0684 1060.7008,-86.0001"/>
<polygon fill="#191970" stroke="#191970" points="1064.205,-86.1217 1061.6708,-75.8345 1057.2366,-85.4568 1064.205,-86.1217"/>
</g>
<!-- Node33&#45;&gt;Node18 -->
<g id="edge43" class="edge">
<title>Node33&#45;&gt;Node18</title>
<path fill="none" stroke="#191970" d="M963.0386,-235.4178C978.1196,-227.9442 996.3989,-215.9629 1005.2527,-199 1011.6279,-186.7859 1012.4442,-179.752 1005.2527,-168 995.9118,-152.7354 979.7299,-142.3326 963.6401,-135.3404"/>
<polygon fill="#191970" stroke="#191970" points="964.8156,-132.0414 954.2297,-131.6067 962.234,-138.548 964.8156,-132.0414"/>
</g>
<!-- Node33&#45;&gt;Node29 -->
<g id="edge33" class="edge">
<title>Node33&#45;&gt;Node29</title>
<path fill="none" stroke="#191970" d="M907.8465,-235.3906C873.183,-224.7846 817.2647,-207.6753 779.1902,-196.0257"/>
<polygon fill="#191970" stroke="#191970" points="780.0249,-192.6209 769.4384,-193.0419 777.9768,-199.3146 780.0249,-192.6209"/>
</g>
<!-- Node34 -->
<g id="node26" class="node">
<title>Node34</title>
<g id="a_node26"><a xlink:href="RotationRaw_8h.html" target="_top" xlink:title="iDynTree/Core/RotationRaw.h">
<polygon fill="none" stroke="#000000" points="838.2527,-174 838.2527,-193 996.2527,-193 996.2527,-174 838.2527,-174"/>
<text text-anchor="middle" x="917.2527" y="-181" font-family="FreeSans.ttf" font-size="10.00" fill="#000000">iDynTree/Core/RotationRaw.h</text>
</a>
</g>
</g>
<!-- Node33&#45;&gt;Node34 -->
<g id="edge34" class="edge">
<title>Node33&#45;&gt;Node34</title>
<path fill="none" stroke="#191970" d="M935.8152,-235.3906C932.7015,-226.6862 928.0207,-213.6015 924.1387,-202.7494"/>
<polygon fill="#191970" stroke="#191970" points="927.4025,-201.4817 920.7387,-193.2449 920.8115,-203.8394 927.4025,-201.4817"/>
</g>
<!-- Node34&#45;&gt;Node4 -->
<g id="edge42" class="edge">
<title>Node34&#45;&gt;Node4</title>
<path fill="none" stroke="#191970" d="M937.6882,-173.9713C956.3498,-164.7266 984.1609,-149.5488 1005.2527,-132 1022.2466,-117.8607 1038.3984,-98.3793 1049.1401,-84.2496"/>
<polygon fill="#191970" stroke="#191970" points="1052.2261,-85.9641 1055.3722,-75.8471 1046.6037,-81.794 1052.2261,-85.9641"/>
</g>
<!-- Node10 -->
<g id="node27" class="node">
<title>Node10</title>
<g id="a_node27"><a xlink:href="MatrixFixSize_8h.html" target="_top" xlink:title="iDynTree/Core/MatrixFixSize.h">
<polygon fill="none" stroke="#000000" points="427.7527,-112.5 427.7527,-131.5 588.7527,-131.5 588.7527,-112.5 427.7527,-112.5"/>
<text text-anchor="middle" x="508.2527" y="-119.5" font-family="FreeSans.ttf" font-size="10.00" fill="#000000">iDynTree/Core/MatrixFixSize.h</text>
</a>
</g>
</g>
<!-- Node34&#45;&gt;Node10 -->
<g id="edge35" class="edge">
<title>Node34&#45;&gt;Node10</title>
<path fill="none" stroke="#191970" d="M864.7165,-173.9629C853.0522,-171.9246 840.7419,-169.8346 829.2527,-168 747.8534,-155.0024 654.5608,-141.8251 589.6066,-132.9255"/>
<polygon fill="#191970" stroke="#191970" points="589.8132,-129.4212 579.4313,-131.5345 588.8651,-136.3568 589.8132,-129.4212"/>
</g>
<!-- Node10&#45;&gt;Node4 -->
<g id="edge39" class="edge">
<title>Node10&#45;&gt;Node4</title>
<path fill="none" stroke="#191970" d="M588.84,-113.4571C593.7163,-112.9588 598.5496,-112.4697 603.2527,-112 772.4983,-95.097 815.2093,-94.8171 984.2527,-76 999.2822,-74.327 1015.9082,-72.2296 1029.9355,-70.3883"/>
<polygon fill="#191970" stroke="#191970" points="1030.6336,-73.8265 1040.0863,-69.0415 1029.7128,-66.8873 1030.6336,-73.8265"/>
</g>
<!-- Node10&#45;&gt;Node11 -->
<g id="edge36" class="edge">
<title>Node10&#45;&gt;Node11</title>
<path fill="none" stroke="#191970" d="M577.7561,-112.4369C652.4575,-102.1586 770.5241,-85.9135 845.3714,-75.6151"/>
<polygon fill="#191970" stroke="#191970" points="846.2073,-79.0332 855.6368,-74.2027 845.2531,-72.0985 846.2073,-79.0332"/>
</g>
<!-- Node10&#45;&gt;Node14 -->
<g id="edge37" class="edge">
<title>Node10&#45;&gt;Node14</title>
<path fill="none" stroke="#191970" d="M508.457,-112.1949C509.2696,-98.0427 512.7856,-71.8539 527.2527,-56 548.4492,-32.7717 582.7898,-21.1403 608.9733,-15.3978"/>
<polygon fill="#191970" stroke="#191970" points="609.7997,-18.8019 618.9193,-13.4089 608.4271,-11.9378 609.7997,-18.8019"/>
</g>
<!-- Node10&#45;&gt;Node17 -->
<g id="edge41" class="edge">
<title>Node10&#45;&gt;Node17</title>
<path fill="none" stroke="#191970" d="M518.0072,-112.2455C526.1175,-104.1352 537.8452,-92.4075 547.4608,-82.7919"/>
<polygon fill="#191970" stroke="#191970" points="550.0138,-85.1887 554.61,-75.6427 545.0641,-80.2389 550.0138,-85.1887"/>
</g>
<!-- Node10&#45;&gt;Node15 -->
<g id="edge38" class="edge">
<title>Node10&#45;&gt;Node15</title>
<path fill="none" stroke="#191970" d="M541.7744,-112.3733C577.0576,-102.2407 632.3538,-86.3607 668.2023,-76.0658"/>
<polygon fill="#191970" stroke="#191970" points="669.5665,-79.3155 678.2119,-73.1912 667.6343,-72.5875 669.5665,-79.3155"/>
</g>
<!-- Node10&#45;&gt;Node16 -->
<g id="edge40" class="edge">
<title>Node10&#45;&gt;Node16</title>
<path fill="none" stroke="#191970" d="M589.1326,-116.7819C770.0437,-105.1103 1202.0014,-77.242 1335.9446,-68.6005"/>
<polygon fill="#191970" stroke="#191970" points="1336.4062,-72.0781 1346.1601,-67.9415 1335.9555,-65.0926 1336.4062,-72.0781"/>
</g>
<!-- Node36 -->
<g id="node30" class="node">
<title>Node36</title>
<g id="a_node30"><a xlink:href="SpatialForceVector_8h.html" target="_top" xlink:title="iDynTree/Core/SpatialForce\lVector.h">
<polygon fill="none" stroke="#000000" points="937.2527,-403.5 937.2527,-433.5 1085.2527,-433.5 1085.2527,-403.5 937.2527,-403.5"/>
<text text-anchor="start" x="945.2527" y="-421.5" font-family="FreeSans.ttf" font-size="10.00" fill="#000000">iDynTree/Core/SpatialForce</text>
<text text-anchor="middle" x="1011.2527" y="-410.5" font-family="FreeSans.ttf" font-size="10.00" fill="#000000">Vector.h</text>
</a>
</g>
</g>
<!-- Node35&#45;&gt;Node36 -->
<g id="edge51" class="edge">
<title>Node35&#45;&gt;Node36</title>
<path fill="none" stroke="#191970" d="M1057.5158,-475.9005C1050.3349,-466.9908 1039.3608,-453.3748 1029.9028,-441.6399"/>
<polygon fill="#191970" stroke="#191970" points="1032.3602,-439.1114 1023.3598,-433.5218 1026.91,-443.5041 1032.3602,-439.1114"/>
</g>
<!-- Node36&#45;&gt;Node18 -->
<g id="edge52" class="edge">
<title>Node36&#45;&gt;Node18</title>
<path fill="none" stroke="#191970" d="M1074.9177,-403.4484C1152.7533,-383.1545 1274.2527,-344.5082 1274.2527,-301 1274.2527,-301 1274.2527,-301 1274.2527,-245 1274.2527,-209.7513 1281.4797,-191.5503 1255.2527,-168 1236.9453,-151.561 1100.6339,-137.1798 1006.2711,-129.0482"/>
<polygon fill="#191970" stroke="#191970" points="1006.392,-125.5459 996.131,-128.1845 1005.7978,-132.5207 1006.392,-125.5459"/>
</g>
<!-- Node36&#45;&gt;Node29 -->
<g id="edge53" class="edge">
<title>Node36&#45;&gt;Node29</title>
<path fill="none" stroke="#191970" d="M937.0234,-406.4036C907.718,-398.8134 875.1701,-386.587 850.2527,-367 793.3685,-322.2845 758.4099,-240.0613 744.7908,-202.781"/>
<polygon fill="#191970" stroke="#191970" points="748.0135,-201.3959 741.3809,-193.134 741.4137,-203.7288 748.0135,-201.3959"/>
</g>
<!-- Node36&#45;&gt;Node30 -->
<g id="edge54" class="edge">
<title>Node36&#45;&gt;Node30</title>
<path fill="none" stroke="#191970" d="M993.455,-403.2977C982.836,-394.2274 969.3496,-382.7077 958.4861,-373.4285"/>
<polygon fill="#191970" stroke="#191970" points="960.6578,-370.6805 950.7808,-366.8469 956.1114,-376.0031 960.6578,-370.6805"/>
</g>
<!-- Node37&#45;&gt;Node28 -->
<g id="edge56" class="edge">
<title>Node37&#45;&gt;Node28</title>
<path fill="none" stroke="#191970" d="M518.5569,-475.9005C524.3512,-467.0773 533.1765,-453.6387 540.8316,-441.9822"/>
<polygon fill="#191970" stroke="#191970" points="543.8239,-443.8017 546.3877,-433.5218 537.9728,-439.9592 543.8239,-443.8017"/>
</g>
<!-- Node38&#45;&gt;Node36 -->
<g id="edge58" class="edge">
<title>Node38&#45;&gt;Node36</title>
<path fill="none" stroke="#191970" d="M905.0189,-475.9005C923.1094,-466.1258 951.6836,-450.6865 974.6427,-438.2812"/>
<polygon fill="#191970" stroke="#191970" points="976.3172,-441.3548 983.4512,-433.5218 972.9896,-435.1962 976.3172,-441.3548"/>
</g>
<!-- Node39&#45;&gt;Node4 -->
<g id="edge64" class="edge">
<title>Node39&#45;&gt;Node4</title>
<path fill="none" stroke="#191970" d="M858.1822,-408.9735C910.0147,-400.5691 983.6684,-386.5927 1046.2527,-367 1106.2899,-348.2047 1120.4283,-340.0062 1176.2527,-311 1218.3928,-289.1042 1240.8614,-294.4805 1267.2527,-255 1303.3416,-201.0123 1290.489,-149.1886 1237.2527,-112 1214.2457,-95.9283 1138.1052,-79.8828 1094.2081,-71.6561"/>
<polygon fill="#191970" stroke="#191970" points="1094.7852,-68.2036 1084.3163,-69.8323 1093.5159,-75.0876 1094.7852,-68.2036"/>
</g>
<!-- Node39&#45;&gt;Node31 -->
<g id="edge61" class="edge">
<title>Node39&#45;&gt;Node31</title>
<path fill="none" stroke="#191970" d="M855.1675,-408.9727C921.6001,-398.2732 1018.2703,-380.6252 1029.2527,-367 1039.6979,-354.0413 1036.7228,-334.6183 1032.1699,-320.1944"/>
<polygon fill="#191970" stroke="#191970" points="1035.4415,-318.9493 1028.7452,-310.7389 1028.8599,-321.3331 1035.4415,-318.9493"/>
</g>
<!-- Node39&#45;&gt;Node33 -->
<g id="edge62" class="edge">
<title>Node39&#45;&gt;Node33</title>
<path fill="none" stroke="#191970" d="M800.0233,-408.6949C811.0499,-394.8335 831.9353,-368.7701 850.2527,-347 875.5403,-316.946 905.7417,-282.6611 923.6638,-262.4781"/>
<polygon fill="#191970" stroke="#191970" points="926.5114,-264.543 930.5428,-254.7451 921.2812,-259.8905 926.5114,-264.543"/>
</g>
<!-- Node39&#45;&gt;Node10 -->
<g id="edge63" class="edge">
<title>Node39&#45;&gt;Node10</title>
<path fill="none" stroke="#191970" d="M756.3223,-408.935C689.3703,-390.0468 552.2527,-345.8845 552.2527,-301 552.2527,-301 552.2527,-301 552.2527,-245 552.2527,-209.7513 545.995,-200.8649 533.2527,-168 529.5686,-158.4978 524.3158,-148.4949 519.5752,-140.2528"/>
<polygon fill="#191970" stroke="#191970" points="522.4972,-138.319 514.3702,-131.5217 516.4845,-141.9034 522.4972,-138.319"/>
</g>
<!-- Node40&#45;&gt;Node4 -->
<g id="edge68" class="edge">
<title>Node40&#45;&gt;Node4</title>
<path fill="none" stroke="#191970" d="M1770.8063,-475.8525C1754.1597,-466.8351 1730.393,-452.0668 1714.2527,-434 1666.44,-380.4803 1677.9745,-351.4239 1639.2527,-291 1585.0529,-206.4231 1588.9614,-160.9699 1501.2527,-112 1465.9386,-92.2833 1190.3186,-73.8027 1094.7515,-67.9282"/>
<polygon fill="#191970" stroke="#191970" points="1094.7228,-64.42 1084.5285,-67.3058 1094.2973,-71.4071 1094.7228,-64.42"/>
</g>
<!-- Node40&#45;&gt;Node39 -->
<g id="edge70" class="edge">
<title>Node40&#45;&gt;Node39</title>
<path fill="none" stroke="#191970" d="M1708.4809,-478.9269C1670.9483,-476.0103 1625.8553,-472.6471 1585.2527,-470 1293.4342,-450.9749 1219.6569,-458.5681 928.2527,-434 911.2291,-432.5647 893.0415,-430.7132 875.6863,-428.7925"/>
<polygon fill="#191970" stroke="#191970" points="875.9075,-425.2954 865.579,-427.6562 875.1254,-432.2515 875.9075,-425.2954"/>
</g>
<!-- Node40&#45;&gt;Node41 -->
<g id="edge67" class="edge">
<title>Node40&#45;&gt;Node41</title>
<path fill="none" stroke="#191970" d="M1784.0919,-475.9005C1777.5141,-465.6515 1766.9395,-449.1747 1758.8034,-436.4976"/>
<polygon fill="#191970" stroke="#191970" points="1761.749,-434.6071 1753.4021,-428.0817 1755.8579,-438.388 1761.749,-434.6071"/>
</g>
<!-- Node40&#45;&gt;Node42 -->
<g id="edge69" class="edge">
<title>Node40&#45;&gt;Node42</title>
<path fill="none" stroke="#191970" d="M1769.0479,-475.9005C1743.7706,-464.4574 1701.3443,-445.2509 1672.598,-432.2374"/>
<polygon fill="#191970" stroke="#191970" points="1673.9716,-429.0173 1663.4182,-428.0817 1671.0847,-435.3943 1673.9716,-429.0173"/>
</g>
<!-- Node43&#45;&gt;Node2 -->
<g id="edge76" class="edge">
<title>Node43&#45;&gt;Node2</title>
<path fill="none" stroke="#191970" d="M489.0161,-598.9581C447.1533,-588.2308 379.0899,-570.7895 333.5112,-559.11"/>
<polygon fill="#191970" stroke="#191970" points="334.1326,-555.6562 323.5768,-556.5643 332.3949,-562.4371 334.1326,-555.6562"/>
</g>
<!-- Node43&#45;&gt;Node3 -->
<g id="edge75" class="edge">
<title>Node43&#45;&gt;Node3</title>
<path fill="none" stroke="#191970" d="M502.3559,-598.92C477.2927,-588.792 436.8181,-572.2085 402.2527,-557 382.9604,-548.5116 378.5204,-545.5443 359.2527,-537 329.1957,-523.6711 294.6461,-509.1618 270.0041,-498.9509"/>
<polygon fill="#191970" stroke="#191970" points="271.327,-495.7105 260.7484,-495.1246 268.6527,-502.1796 271.327,-495.7105"/>
</g>
<!-- Node43&#45;&gt;Node39 -->
<g id="edge74" class="edge">
<title>Node43&#45;&gt;Node39</title>
<path fill="none" stroke="#191970" d="M508.7576,-598.9798C468.8705,-576.1139 377.6793,-516.5433 418.2527,-470 427.7448,-459.1113 601.5638,-438.7929 708.8566,-427.1985"/>
<polygon fill="#191970" stroke="#191970" points="709.4563,-430.6542 719.0244,-426.1043 708.7073,-423.6944 709.4563,-430.6542"/>
</g>
<!-- Node44&#45;&gt;Node3 -->
<g id="edge88" class="edge">
<title>Node44&#45;&gt;Node3</title>
<path fill="none" stroke="#191970" d="M155.7554,-660.3402C169.3974,-631.0732 210.4439,-543.0142 228.5316,-504.2099"/>
<polygon fill="#191970" stroke="#191970" points="231.7421,-505.6066 232.7946,-495.0641 225.3975,-502.6491 231.7421,-505.6066"/>
</g>
<!-- Node44&#45;&gt;Node28 -->
<g id="edge79" class="edge">
<title>Node44&#45;&gt;Node28</title>
<path fill="none" stroke="#191970" d="M141.6035,-660.4346C133.6027,-651.7723 122.8265,-638.2221 118.2527,-624 97.2981,-558.8421 72.7687,-521.1453 118.2527,-470 141.0798,-444.3317 347.1349,-429.3433 468.3165,-422.6749"/>
<polygon fill="#191970" stroke="#191970" points="468.5336,-426.1684 478.3295,-422.1322 468.1547,-419.1787 468.5336,-426.1684"/>
</g>
<!-- Node44&#45;&gt;Node39 -->
<g id="edge78" class="edge">
<title>Node44&#45;&gt;Node39</title>
<path fill="none" stroke="#191970" d="M147.8076,-660.3875C136.9804,-628.2769 107.3358,-523.727 159.2527,-470 196.7255,-431.2207 589.5396,-438.7904 643.2527,-434 664.6095,-432.0953 687.6638,-429.8099 709.1073,-427.5864"/>
<polygon fill="#191970" stroke="#191970" points="709.5787,-431.0563 719.1611,-426.5365 708.8516,-424.0942 709.5787,-431.0563"/>
</g>
<!-- Node45 -->
<g id="node39" class="node">
<title>Node45</title>
<g id="a_node39"><a xlink:href="Axis_8h.html" target="_top" xlink:title="iDynTree/Core/Axis.h">
<polygon fill="none" stroke="#000000" points="158.2527,-347.5 158.2527,-366.5 276.2527,-366.5 276.2527,-347.5 158.2527,-347.5"/>
<text text-anchor="middle" x="217.2527" y="-354.5" font-family="FreeSans.ttf" font-size="10.00" fill="#000000">iDynTree/Core/Axis.h</text>
</a>
</g>
</g>
<!-- Node44&#45;&gt;Node45 -->
<g id="edge80" class="edge">
<title>Node44&#45;&gt;Node45</title>
<path fill="none" stroke="#191970" d="M136.409,-660.4947C109.6902,-642.0901 56.2527,-598.8052 56.2527,-547 56.2527,-547 56.2527,-547 56.2527,-485.5 56.2527,-424.4397 127.8675,-387.6684 175.5712,-369.9478"/>
<polygon fill="#191970" stroke="#191970" points="176.8215,-373.2178 185.0589,-366.5548 174.4643,-366.6266 176.8215,-373.2178"/>
</g>
<!-- Node47 -->
<g id="node41" class="node">
<title>Node47</title>
<g id="a_node41"><a xlink:href="MovableJointImpl_8h.html" target="_top" xlink:title="iDynTree/Model/MovableJoint\lImpl.h">
<polygon fill="none" stroke="#000000" points="198.2527,-593.5 198.2527,-623.5 356.2527,-623.5 356.2527,-593.5 198.2527,-593.5"/>
<text text-anchor="start" x="206.2527" y="-611.5" font-family="FreeSans.ttf" font-size="10.00" fill="#000000">iDynTree/Model/MovableJoint</text>
<text text-anchor="middle" x="277.2527" y="-600.5" font-family="FreeSans.ttf" font-size="10.00" fill="#000000">Impl.h</text>
</a>
</g>
</g>
<!-- Node44&#45;&gt;Node47 -->
<g id="edge89" class="edge">
<title>Node44&#45;&gt;Node47</title>
<path fill="none" stroke="#191970" d="M170.9402,-660.3906C188.6244,-651.7591 215.1333,-638.8202 237.2557,-628.0224"/>
<polygon fill="#191970" stroke="#191970" points="238.9782,-631.0763 246.4297,-623.5446 235.9078,-624.7857 238.9782,-631.0763"/>
</g>
<!-- Node45&#45;&gt;Node4 -->
<g id="edge81" class="edge">
<title>Node45&#45;&gt;Node4</title>
<path fill="none" stroke="#191970" d="M221.8292,-347.4404C237.6366,-315.5914 293.3824,-212.5895 373.2527,-168 475.1124,-111.1344 522.6031,-168.956 633.2527,-132 650.6134,-126.2017 651.8243,-117.5914 669.2527,-112 803.4282,-68.954 844.3658,-92.9598 984.2527,-76 999.2651,-74.1799 1015.8888,-72.0627 1029.919,-70.2463"/>
<polygon fill="#191970" stroke="#191970" points="1030.6078,-73.6863 1040.0728,-68.9258 1029.7049,-66.7448 1030.6078,-73.6863"/>
</g>
<!-- Node45&#45;&gt;Node11 -->
<g id="edge87" class="edge">
<title>Node45&#45;&gt;Node11</title>
<path fill="none" stroke="#191970" d="M199.0946,-347.2847C170.5141,-330.5219 118.2527,-293.2704 118.2527,-245 118.2527,-245 118.2527,-245 118.2527,-183.5 118.2527,-122.1332 -250.1821,-214.988 347.2527,-112 441.1101,-95.8205 715.0745,-77.9584 845.1414,-70.0964"/>
<polygon fill="#191970" stroke="#191970" points="845.6138,-73.5744 855.3855,-69.4799 845.1932,-66.587 845.6138,-73.5744"/>
</g>
<!-- Node45&#45;&gt;Node31 -->
<g id="edge86" class="edge">
<title>Node45&#45;&gt;Node31</title>
<path fill="none" stroke="#191970" d="M276.2664,-352.9049C431.0414,-342.1646 846.009,-313.3688 981.0996,-303.9945"/>
<polygon fill="#191970" stroke="#191970" points="981.7147,-307.4603 991.4484,-303.2764 981.23,-300.4771 981.7147,-307.4603"/>
</g>
<!-- Node46 -->
<g id="node40" class="node">
<title>Node46</title>
<g id="a_node40"><a xlink:href="Direction_8h.html" target="_top" xlink:title="iDynTree/Core/Direction.h">
<polygon fill="none" stroke="#000000" points="146.7527,-174 146.7527,-193 287.7527,-193 287.7527,-174 146.7527,-174"/>
<text text-anchor="middle" x="217.2527" y="-181" font-family="FreeSans.ttf" font-size="10.00" fill="#000000">iDynTree/Core/Direction.h</text>
</a>
</g>
</g>
<!-- Node45&#45;&gt;Node46 -->
<g id="edge82" class="edge">
<title>Node45&#45;&gt;Node46</title>
<path fill="none" stroke="#191970" d="M217.2527,-347.4248C217.2527,-319.999 217.2527,-240.732 217.2527,-203.3964"/>
<polygon fill="#191970" stroke="#191970" points="220.7528,-203.2595 217.2527,-193.2595 213.7528,-203.2596 220.7528,-203.2595"/>
</g>
<!-- Node46&#45;&gt;Node4 -->
<g id="edge83" class="edge">
<title>Node46&#45;&gt;Node4</title>
<path fill="none" stroke="#191970" d="M266.611,-173.9876C278.2756,-171.8816 290.6851,-169.7565 302.2527,-168 433.2757,-148.1041 470.8228,-168.3935 598.2527,-132 618.5196,-126.2119 620.939,-117.6212 641.2527,-112 788.9828,-71.1203 832.0018,-93.7472 984.2527,-76 999.2733,-74.2491 1015.8981,-72.1413 1029.927,-70.3131"/>
<polygon fill="#191970" stroke="#191970" points="1030.62,-73.7523 1040.0793,-68.9802 1029.7088,-66.8118 1030.62,-73.7523"/>
</g>
<!-- Node46&#45;&gt;Node18 -->
<g id="edge84" class="edge">
<title>Node46&#45;&gt;Node18</title>
<path fill="none" stroke="#191970" d="M287.9006,-176.2637C314.6322,-173.5826 345.3377,-170.5713 373.2527,-168 531.7646,-153.3995 716.5186,-138.0829 824.2335,-129.3233"/>
<polygon fill="#191970" stroke="#191970" points="824.7298,-132.7946 834.4135,-128.4963 824.1629,-125.8176 824.7298,-132.7946"/>
</g>
<!-- Node46&#45;&gt;Node11 -->
<g id="edge85" class="edge">
<title>Node46&#45;&gt;Node11</title>
<path fill="none" stroke="#191970" d="M238.5582,-173.9717C274.8419,-158.201 351.3075,-126.9328 419.2527,-112 498.5783,-94.566 728.5147,-77.9517 845.3471,-70.3395"/>
<polygon fill="#191970" stroke="#191970" points="845.8562,-73.814 855.6091,-69.6751 845.4039,-66.8286 845.8562,-73.814"/>
</g>
<!-- Node47&#45;&gt;Node2 -->
<g id="edge90" class="edge">
<title>Node47&#45;&gt;Node2</title>
<path fill="none" stroke="#191970" d="M279.4774,-593.2977C280.6487,-585.2945 282.0989,-575.3843 283.3568,-566.7889"/>
<polygon fill="#191970" stroke="#191970" points="286.8267,-567.2484 284.8117,-556.8469 279.9005,-566.2347 286.8267,-567.2484"/>
</g>
<!-- Node48&#45;&gt;Node3 -->
<g id="edge97" class="edge">
<title>Node48&#45;&gt;Node3</title>
<path fill="none" stroke="#191970" d="M837.9284,-594.3737C835.0012,-593.8993 832.1015,-593.4396 829.2527,-593 705.2514,-573.8664 671.4185,-585.5998 549.2527,-557 522.7032,-550.7846 517.5607,-544.1692 491.2527,-537 428.9844,-520.0311 356.7538,-505.9098 305.2731,-496.7722"/>
<polygon fill="#191970" stroke="#191970" points="305.7178,-493.2968 295.2627,-495.0118 304.5054,-500.191 305.7178,-493.2968"/>
</g>
<!-- Node48&#45;&gt;Node27 -->
<g id="edge93" class="edge">
<title>Node48&#45;&gt;Node27</title>
<path fill="none" stroke="#191970" d="M860.2145,-593.4179C834.2127,-584.9209 803.4325,-572.8055 778.2527,-557 754.5978,-542.1517 732.0505,-519.0168 717.9671,-503.1069"/>
<polygon fill="#191970" stroke="#191970" points="720.2457,-500.3904 711.0605,-495.1098 714.9479,-504.9657 720.2457,-500.3904"/>
</g>
<!-- Node48&#45;&gt;Node39 -->
<g id="edge92" class="edge">
<title>Node48&#45;&gt;Node39</title>
<path fill="none" stroke="#191970" d="M861.4706,-593.468C842.7618,-585.5854 823.4314,-573.9274 811.2527,-557 785.7257,-521.5193 786.7117,-467.4157 789.5406,-438.4507"/>
<polygon fill="#191970" stroke="#191970" points="793.037,-438.6826 790.7069,-428.3472 786.0832,-437.8798 793.037,-438.6826"/>
</g>
<!-- Node48&#45;&gt;Node42 -->
<g id="edge113" class="edge">
<title>Node48&#45;&gt;Node42</title>
<path fill="none" stroke="#191970" d="M992.4045,-601.6384C1165.4732,-585.5544 1573.1016,-543.5514 1618.2527,-501 1635.4139,-484.827 1640.5322,-457.1683 1641.9371,-438.3766"/>
<polygon fill="#191970" stroke="#191970" points="1645.4397,-438.3973 1642.4024,-428.2472 1638.4471,-438.076 1645.4397,-438.3973"/>
</g>
<!-- Node49 -->
<g id="node43" class="node">
<title>Node49</title>
<g id="a_node43"><a xlink:href="VectorDynSize_8h.html" target="_top" xlink:title="iDynTree/Core/VectorDynSize.h">
<polygon fill="none" stroke="#000000" points="1462.7527,-291.5 1462.7527,-310.5 1629.7527,-310.5 1629.7527,-291.5 1462.7527,-291.5"/>
<text text-anchor="middle" x="1546.2527" y="-298.5" font-family="FreeSans.ttf" font-size="10.00" fill="#000000">iDynTree/Core/VectorDynSize.h</text>
</a>
</g>
</g>
<!-- Node48&#45;&gt;Node49 -->
<g id="edge94" class="edge">
<title>Node48&#45;&gt;Node49</title>
<path fill="none" stroke="#191970" d="M992.4412,-596.7753C1167.5995,-570.0831 1580.4377,-506.6492 1585.2527,-501 1630.5247,-447.8852 1582.8599,-357.86 1558.6123,-319.3563"/>
<polygon fill="#191970" stroke="#191970" points="1561.3984,-317.2197 1553.023,-310.731 1555.524,-321.0265 1561.3984,-317.2197"/>
</g>
<!-- Node48&#45;&gt;Node50 -->
<g id="edge98" class="edge">
<title>Node48&#45;&gt;Node50</title>
<path fill="none" stroke="#191970" d="M846.0231,-593.4554C796.7328,-582.7439 731.4495,-568.5569 686.0514,-558.6912"/>
<polygon fill="#191970" stroke="#191970" points="686.6229,-555.2338 676.1077,-556.5303 685.1363,-562.0741 686.6229,-555.2338"/>
</g>
<!-- Node52 -->
<g id="node46" class="node">
<title>Node52</title>
<g id="a_node46"><a xlink:href="JointState_8h.html" target="_top" xlink:title="iDynTree/Model/JointState.h">
<polygon fill="none" stroke="#000000" points="1424.7527,-476 1424.7527,-495 1575.7527,-495 1575.7527,-476 1424.7527,-476"/>
<text text-anchor="middle" x="1500.2527" y="-483" font-family="FreeSans.ttf" font-size="10.00" fill="#000000">iDynTree/Model/JointState.h</text>
</a>
</g>
</g>
<!-- Node48&#45;&gt;Node52 -->
<g id="edge108" class="edge">
<title>Node48&#45;&gt;Node52</title>
<path fill="none" stroke="#191970" d="M986.6925,-593.4793C1104.8029,-568.6459 1338.3005,-519.5515 1444.8733,-497.1439"/>
<polygon fill="#191970" stroke="#191970" points="1445.7166,-500.5432 1454.7824,-495.0604 1444.2762,-493.693 1445.7166,-500.5432"/>
</g>
<!-- Node49&#45;&gt;Node4 -->
<g id="edge96" class="edge">
<title>Node49&#45;&gt;Node4</title>
<path fill="none" stroke="#191970" d="M1546.0939,-291.1391C1544.9973,-259.2347 1536.8484,-158.2112 1478.2527,-112 1448.2737,-88.3572 1187.1138,-72.5297 1094.5835,-67.6213"/>
<polygon fill="#191970" stroke="#191970" points="1094.5795,-64.1164 1084.4105,-67.0898 1094.2142,-71.1068 1094.5795,-64.1164"/>
</g>
<!-- Node49&#45;&gt;Node19 -->
<g id="edge95" class="edge">
<title>Node49&#45;&gt;Node19</title>
<path fill="none" stroke="#191970" d="M1565.9418,-291.482C1605.187,-272.059 1690.7291,-227.3061 1706.2527,-199 1724.8458,-165.0971 1730.6499,-141.9982 1706.2527,-112 1687.5036,-88.9466 1613.4195,-77.064 1556.1361,-71.2072"/>
<polygon fill="#191970" stroke="#191970" points="1556.3088,-67.7075 1546.0153,-70.2163 1555.6266,-74.6742 1556.3088,-67.7075"/>
</g>
<!-- Node50&#45;&gt;Node3 -->
<g id="edge106" class="edge">
<title>Node50&#45;&gt;Node3</title>
<path fill="none" stroke="#191970" d="M570.9674,-537.4581C500.0831,-526.4217 383.5561,-508.2789 308.6423,-496.6151"/>
<polygon fill="#191970" stroke="#191970" points="308.7763,-493.0939 298.3568,-495.0137 307.6993,-500.0105 308.7763,-493.0939"/>
</g>
<!-- Node50&#45;&gt;Node27 -->
<g id="edge100" class="edge">
<title>Node50&#45;&gt;Node27</title>
<path fill="none" stroke="#191970" d="M643.3465,-537.3906C654.2242,-527.9683 671.0275,-513.4134 684.0727,-502.1137"/>
<polygon fill="#191970" stroke="#191970" points="686.7355,-504.4377 692.0026,-495.2449 682.1523,-499.1466 686.7355,-504.4377"/>
</g>
<!-- Node50&#45;&gt;Node37 -->
<g id="edge101" class="edge">
<title>Node50&#45;&gt;Node37</title>
<path fill="none" stroke="#191970" d="M613.5027,-537.3906C593.7768,-527.2811 562.5215,-511.2628 539.9527,-499.6962"/>
<polygon fill="#191970" stroke="#191970" points="541.3667,-496.4881 530.8711,-495.0419 538.1741,-502.7176 541.3667,-496.4881"/>
</g>
<!-- Node50&#45;&gt;Node38 -->
<g id="edge102" class="edge">
<title>Node50&#45;&gt;Node38</title>
<path fill="none" stroke="#191970" d="M671.8167,-537.4581C716.4827,-526.6857 789.2214,-509.1428 837.6497,-497.4631"/>
<polygon fill="#191970" stroke="#191970" points="838.6953,-500.8113 847.5959,-495.0643 837.0541,-494.0065 838.6953,-500.8113"/>
</g>
<!-- Node50&#45;&gt;Node39 -->
<g id="edge99" class="edge">
<title>Node50&#45;&gt;Node39</title>
<path fill="none" stroke="#191970" d="M573.412,-537.4834C516.766,-527.7236 438.3584,-512.3999 429.2527,-501 420.654,-490.2348 420.2205,-480.4041 429.2527,-470 438.3768,-459.4901 604.5167,-439.2977 708.8342,-427.562"/>
<polygon fill="#191970" stroke="#191970" points="709.4936,-431.0101 719.0417,-426.4184 708.7142,-424.0536 709.4936,-431.0101"/>
</g>
<!-- Node50&#45;&gt;Node42 -->
<g id="edge107" class="edge">
<title>Node50&#45;&gt;Node42</title>
<path fill="none" stroke="#191970" d="M628.7372,-537.4203C623.4529,-521.146 615.8212,-488.107 633.2527,-470 650.5486,-452.0339 1433.8602,-425.3311 1608.1341,-419.6057"/>
<polygon fill="#191970" stroke="#191970" points="1608.3868,-423.0994 1618.2669,-419.2739 1608.1577,-416.1031 1608.3868,-423.0994"/>
</g>
<!-- Node51 -->
<g id="node45" class="node">
<title>Node51</title>
<g id="a_node45"><a xlink:href="ArticulatedBodyInertia_8h.html" target="_top" xlink:title="iDynTree/Core/Articulated\lBodyInertia.h">
<polygon fill="none" stroke="#000000" points="382.7527,-168.5 382.7527,-198.5 523.7527,-198.5 523.7527,-168.5 382.7527,-168.5"/>
<text text-anchor="start" x="390.7527" y="-186.5" font-family="FreeSans.ttf" font-size="10.00" fill="#000000">iDynTree/Core/Articulated</text>
<text text-anchor="middle" x="453.2527" y="-175.5" font-family="FreeSans.ttf" font-size="10.00" fill="#000000">BodyInertia.h</text>
</a>
</g>
</g>
<!-- Node50&#45;&gt;Node51 -->
<g id="edge103" class="edge">
<title>Node50&#45;&gt;Node51</title>
<path fill="none" stroke="#191970" d="M568.8508,-537.4785C509.2648,-527.8837 427.8201,-512.8425 418.2527,-501 409.5944,-490.2827 417.7659,-483.7692 418.2527,-470 420.0316,-419.6835 426.2527,-407.3479 426.2527,-357 426.2527,-357 426.2527,-357 426.2527,-301 426.2527,-268.3633 436.2693,-231.8929 444.1006,-208.3667"/>
<polygon fill="#191970" stroke="#191970" points="447.439,-209.4218 447.3941,-198.8271 440.8222,-207.1373 447.439,-209.4218"/>
</g>
<!-- Node51&#45;&gt;Node4 -->
<g id="edge105" class="edge">
<title>Node51&#45;&gt;Node4</title>
<path fill="none" stroke="#191970" d="M524.0853,-169.6176C566.6372,-160.5378 621.5932,-147.4994 669.2527,-132 691.2308,-124.8525 694.9403,-118.0234 717.2527,-112 724.8053,-109.9611 946.0114,-81.105 1030.1738,-70.1644"/>
<polygon fill="#191970" stroke="#191970" points="1030.7276,-73.622 1040.1931,-68.8625 1029.8255,-66.6804 1030.7276,-73.622"/>
</g>
<!-- Node51&#45;&gt;Node10 -->
<g id="edge104" class="edge">
<title>Node51&#45;&gt;Node10</title>
<path fill="none" stroke="#191970" d="M466.8482,-168.2977C474.6419,-159.5831 484.4574,-148.6075 492.5753,-139.5302"/>
<polygon fill="#191970" stroke="#191970" points="495.3892,-141.6341 499.4465,-131.8469 490.1714,-136.9678 495.3892,-141.6341"/>
</g>
<!-- Node52&#45;&gt;Node18 -->
<g id="edge109" class="edge">
<title>Node52&#45;&gt;Node18</title>
<path fill="none" stroke="#191970" d="M1489.9633,-475.9478C1469.6302,-455.9765 1426.2527,-407.4579 1426.2527,-357 1426.2527,-357 1426.2527,-357 1426.2527,-245 1426.2527,-188.9066 1378.2648,-189.005 1326.2527,-168 1270.0374,-145.2976 1109.135,-132.5298 1006.1273,-126.4687"/>
<polygon fill="#191970" stroke="#191970" points="1006.2209,-122.9684 996.0356,-125.8854 1005.8169,-129.9567 1006.2209,-122.9684"/>
</g>
<!-- Node52&#45;&gt;Node36 -->
<g id="edge111" class="edge">
<title>Node52&#45;&gt;Node36</title>
<path fill="none" stroke="#191970" d="M1447.0119,-475.9483C1434.941,-473.8892 1422.1682,-471.7942 1410.2527,-470 1301.7945,-453.6685 1176.2618,-437.9947 1095.4121,-428.3169"/>
<polygon fill="#191970" stroke="#191970" points="1095.6327,-424.8185 1085.2884,-427.1085 1094.803,-431.7691 1095.6327,-424.8185"/>
</g>
<!-- Node52&#45;&gt;Node42 -->
<g id="edge112" class="edge">
<title>Node52&#45;&gt;Node42</title>
<path fill="none" stroke="#191970" d="M1520.5979,-475.9005C1544.745,-464.5072 1585.2031,-445.4178 1612.7772,-432.4075"/>
<polygon fill="#191970" stroke="#191970" points="1614.395,-435.5142 1621.9453,-428.0817 1611.4079,-429.1835 1614.395,-435.5142"/>
</g>
<!-- Node52&#45;&gt;Node49 -->
<g id="edge110" class="edge">
<title>Node52&#45;&gt;Node49</title>
<path fill="none" stroke="#191970" d="M1502.6611,-475.8402C1509.9115,-446.76 1531.6335,-359.636 1541.4012,-320.459"/>
<polygon fill="#191970" stroke="#191970" points="1544.845,-321.1138 1543.8682,-310.5641 1538.0529,-319.4204 1544.845,-321.1138"/>
</g>
<!-- Node53&#45;&gt;Node4 -->
<g id="edge122" class="edge">
<title>Node53&#45;&gt;Node4</title>
<path fill="none" stroke="#191970" d="M1975.4994,-475.898C1957.0692,-467.1856 1931.4318,-452.8285 1914.2527,-434 1888.5307,-405.8083 1876.2527,-395.1627 1876.2527,-357 1876.2527,-357 1876.2527,-357 1876.2527,-301 1876.2527,-157.7799 1753.0609,-150.9988 1615.2527,-112 1516.2105,-83.9717 1197.2081,-70.6842 1094.4628,-67.0575"/>
<polygon fill="#191970" stroke="#191970" points="1094.5016,-63.5568 1084.3865,-66.7085 1094.2593,-70.5526 1094.5016,-63.5568"/>
</g>
<!-- Node53&#45;&gt;Node11 -->
<g id="edge118" class="edge">
<title>Node53&#45;&gt;Node11</title>
<path fill="none" stroke="#191970" d="M1952.4098,-475.9783C1917.678,-467.7049 1869.4174,-453.8972 1830.2527,-434 1782.9812,-409.9842 1684.6886,-318.3302 1639.2527,-291 1453.3909,-179.2022 1396.6526,-160.5123 1185.2527,-112 1117.735,-96.506 1039.6244,-83.7496 984.8424,-75.6326"/>
<polygon fill="#191970" stroke="#191970" points="985.2952,-72.1617 974.8927,-74.1714 984.278,-79.0874 985.2952,-72.1617"/>
</g>
<!-- Node53&#45;&gt;Node20 -->
<g id="edge119" class="edge">
<title>Node53&#45;&gt;Node20</title>
<path fill="none" stroke="#191970" d="M2019.931,-475.9987C2036.9592,-467.4303 2059.9474,-453.2207 2073.2527,-434 2093.3153,-405.0179 2092.2527,-392.2487 2092.2527,-357 2092.2527,-357 2092.2527,-357 2092.2527,-122 2092.2527,-35.0847 1782.5019,-15.4532 1667.5341,-11.1601"/>
<polygon fill="#191970" stroke="#191970" points="1667.4686,-7.6557 1657.3515,-10.8013 1667.222,-14.6514 1667.4686,-7.6557"/>
</g>
<!-- Node53&#45;&gt;Node16 -->
<g id="edge121" class="edge">
<title>Node53&#45;&gt;Node16</title>
<path fill="none" stroke="#191970" d="M1980.3514,-475.845C1965.511,-466.9189 1945.0089,-452.2873 1933.2527,-434 1914.1916,-404.3497 1914.2527,-392.2487 1914.2527,-357 1914.2527,-357 1914.2527,-357 1914.2527,-183.5 1914.2527,-70.2843 1526.5182,-101.6772 1416.2527,-76 1416.1525,-75.9767 1416.0522,-75.9533 1415.9517,-75.9298"/>
<polygon fill="#191970" stroke="#191970" points="1416.908,-72.5599 1406.3683,-73.6398 1415.281,-79.3682 1416.908,-72.5599"/>
</g>
<!-- Node53&#45;&gt;Node41 -->
<g id="edge124" class="edge">
<title>Node53&#45;&gt;Node41</title>
<path fill="none" stroke="#191970" d="M1950.5752,-475.9173C1907.2601,-466.7409 1841.8315,-451.6994 1786.2527,-434 1783.9682,-433.2725 1781.6266,-432.4759 1779.2804,-431.64"/>
<polygon fill="#191970" stroke="#191970" points="1780.3355,-428.2977 1769.7434,-428.0589 1777.8748,-434.8509 1780.3355,-428.2977"/>
</g>
<!-- Node53&#45;&gt;Node42 -->
<g id="edge123" class="edge">
<title>Node53&#45;&gt;Node42</title>
<path fill="none" stroke="#191970" d="M1942.6439,-475.969C1885.3153,-466.0136 1793.3891,-449.689 1714.2527,-434 1701.7389,-431.5191 1688.0427,-428.6176 1675.9867,-426.0002"/>
<polygon fill="#191970" stroke="#191970" points="1676.402,-422.5084 1665.8851,-423.7909 1674.9063,-429.3467 1676.402,-422.5084"/>
</g>
<!-- Node54 -->
<g id="node48" class="node">
<title>Node54</title>
<g id="a_node48"><a xlink:href="MatrixDynSize_8h.html" target="_top" xlink:title="iDynTree/Core/MatrixDynSize.h">
<polygon fill="none" stroke="#000000" points="1681.7527,-235.5 1681.7527,-254.5 1848.7527,-254.5 1848.7527,-235.5 1681.7527,-235.5"/>
<text text-anchor="middle" x="1765.2527" y="-242.5" font-family="FreeSans.ttf" font-size="10.00" fill="#000000">iDynTree/Core/MatrixDynSize.h</text>
</a>
</g>
</g>
<!-- Node53&#45;&gt;Node54 -->
<g id="edge116" class="edge">
<title>Node53&#45;&gt;Node54</title>
<path fill="none" stroke="#191970" d="M1948.6526,-475.9882C1920.6149,-468.5097 1886.4432,-455.6183 1862.2527,-434 1808.9397,-386.3558 1780.7456,-302.4855 1770.1999,-264.5781"/>
<polygon fill="#191970" stroke="#191970" points="1773.5442,-263.5355 1767.5856,-254.775 1766.7806,-265.3392 1773.5442,-263.5355"/>
</g>
<!-- Node55 -->
<g id="node49" class="node">
<title>Node55</title>
<polygon fill="none" stroke="#bfbfbf" points="1942.2527,-409 1942.2527,-428 1998.2527,-428 1998.2527,-409 1942.2527,-409"/>
<text text-anchor="middle" x="1970.2527" y="-416" font-family="FreeSans.ttf" font-size="10.00" fill="#000000">iomanip</text>
</g>
<!-- Node53&#45;&gt;Node55 -->
<g id="edge120" class="edge">
<title>Node53&#45;&gt;Node55</title>
<path fill="none" stroke="#191970" d="M1994.241,-475.9005C1990.0826,-465.95 1983.4709,-450.1292 1978.241,-437.6147"/>
<polygon fill="#191970" stroke="#191970" points="1981.3423,-435.9588 1974.257,-428.0817 1974.8836,-438.658 1981.3423,-435.9588"/>
</g>
<!-- Node56 -->
<g id="node50" class="node">
<title>Node56</title>
<polygon fill="none" stroke="#bfbfbf" points="2016.7527,-409 2016.7527,-428 2063.7527,-428 2063.7527,-409 2016.7527,-409"/>
<text text-anchor="middle" x="2040.2527" y="-416" font-family="FreeSans.ttf" font-size="10.00" fill="#000000">cmath</text>
</g>
<!-- Node53&#45;&gt;Node56 -->
<g id="edge125" class="edge">
<title>Node53&#45;&gt;Node56</title>
<path fill="none" stroke="#191970" d="M2004.2703,-475.9005C2010.6327,-465.751 2020.8236,-449.4941 2028.7385,-436.8679"/>
<polygon fill="#191970" stroke="#191970" points="2031.9004,-438.4135 2034.2463,-428.0817 2025.9694,-434.6956 2031.9004,-438.4135"/>
</g>
<!-- Node54&#45;&gt;Node4 -->
<g id="edge117" class="edge">
<title>Node54&#45;&gt;Node4</title>
<path fill="none" stroke="#191970" d="M1715.9525,-235.4926C1691.0463,-228.69 1661.6542,-217.3812 1640.2527,-199 1606.7517,-170.2267 1629.274,-136.0758 1592.2527,-112 1550.5251,-84.8635 1203.2541,-70.8108 1094.6102,-67.049"/>
<polygon fill="#191970" stroke="#191970" points="1094.684,-63.5496 1084.5707,-66.7073 1094.4458,-70.5455 1094.684,-63.5496"/>
</g>
</g>
</svg>
