<?xml version="1.0" encoding="UTF-8" standalone="no"?>
<!DOCTYPE svg PUBLIC "-//W3C//DTD SVG 1.1//EN"
 "http://www.w3.org/Graphics/SVG/1.1/DTD/svg11.dtd">
<!-- Generated by graphviz version 2.40.1 (20161225.0304)
 -->
<!-- Title: MultipleShootingSolver.h Pages: 1 -->
<svg width="1262pt" height="476pt"
 viewBox="0.00 0.00 1261.81 476.00" xmlns="http://www.w3.org/2000/svg" xmlns:xlink="http://www.w3.org/1999/xlink">
<g id="graph0" class="graph" transform="scale(1 1) rotate(0) translate(4 472)">
<title>MultipleShootingSolver.h</title>
<!-- Node0 -->
<g id="node1" class="node">
<title>Node0</title>
<polygon fill="#bfbfbf" stroke="#000000" points="256.5,-448.5 256.5,-467.5 393.5,-467.5 393.5,-448.5 256.5,-448.5"/>
<text text-anchor="middle" x="325" y="-455.5" font-family="FreeSans.ttf" font-size="10.00" fill="#000000">MultipleShootingSolver.h</text>
</g>
<!-- Node1 -->
<g id="node2" class="node">
<title>Node1</title>
<g id="a_node2"><a xlink:href="OptimalControlSolver_8h.html" target="_top" xlink:title="iDynTree/OptimalControlSolver.h">
<polygon fill="none" stroke="#000000" points="0,-336.5 0,-355.5 176,-355.5 176,-336.5 0,-336.5"/>
<text text-anchor="middle" x="88" y="-343.5" font-family="FreeSans.ttf" font-size="10.00" fill="#000000">iDynTree/OptimalControlSolver.h</text>
</a>
</g>
</g>
<!-- Node0&#45;&gt;Node1 -->
<g id="edge1" class="edge">
<title>Node0&#45;&gt;Node1</title>
<path fill="none" stroke="#191970" d="M289.3769,-448.4708C261.5961,-440.4254 222.4191,-427.7143 190,-412 160.2401,-397.5746 128.6709,-376.0606 108.673,-361.553"/>
<polygon fill="#191970" stroke="#191970" points="110.729,-358.7205 100.5985,-355.6183 106.5834,-364.3609 110.729,-358.7205"/>
</g>
<!-- Node2 -->
<g id="node3" class="node">
<title>Node2</title>
<polygon fill="none" stroke="#bfbfbf" points="194,-280.5 194,-299.5 252,-299.5 252,-280.5 194,-280.5"/>
<text text-anchor="middle" x="223" y="-287.5" font-family="FreeSans.ttf" font-size="10.00" fill="#000000">memory</text>
</g>
<!-- Node0&#45;&gt;Node2 -->
<g id="edge57" class="edge">
<title>Node0&#45;&gt;Node2</title>
<path fill="none" stroke="#191970" d="M302.9132,-448.4691C287.5805,-440.7613 267.8525,-428.4806 256,-412 233.5692,-380.8105 226.3845,-335.2156 224.0836,-309.5101"/>
<polygon fill="#191970" stroke="#191970" points="227.5728,-309.2327 223.3494,-299.5161 220.5916,-309.7456 227.5728,-309.2327"/>
</g>
<!-- Node4 -->
<g id="node5" class="node">
<title>Node4</title>
<g id="a_node5"><a xlink:href="TimeVaryingObject_8h.html" target="_top" xlink:title="iDynTree/TimeVaryingObject.h">
<polygon fill="none" stroke="#000000" points="502,-392.5 502,-411.5 666,-411.5 666,-392.5 502,-392.5"/>
<text text-anchor="middle" x="584" y="-399.5" font-family="FreeSans.ttf" font-size="10.00" fill="#000000">iDynTree/TimeVaryingObject.h</text>
</a>
</g>
</g>
<!-- Node0&#45;&gt;Node4 -->
<g id="edge4" class="edge">
<title>Node0&#45;&gt;Node4</title>
<path fill="none" stroke="#191970" d="M369.2294,-448.4369C413.7415,-438.8127 482.449,-423.957 530.1169,-413.6504"/>
<polygon fill="#191970" stroke="#191970" points="530.9186,-417.058 539.953,-411.5237 529.4392,-410.2161 530.9186,-417.058"/>
</g>
<!-- Node30 -->
<g id="node31" class="node">
<title>Node30</title>
<g id="a_node31"><a xlink:href="Optimizer_8h.html" target="_top" xlink:title="iDynTree/Optimizer.h">
<polygon fill="none" stroke="#000000" points="265.5,-392.5 265.5,-411.5 384.5,-411.5 384.5,-392.5 265.5,-392.5"/>
<text text-anchor="middle" x="325" y="-399.5" font-family="FreeSans.ttf" font-size="10.00" fill="#000000">iDynTree/Optimizer.h</text>
</a>
</g>
</g>
<!-- Node0&#45;&gt;Node30 -->
<g id="edge50" class="edge">
<title>Node0&#45;&gt;Node30</title>
<path fill="none" stroke="#191970" d="M325,-448.2455C325,-440.9382 325,-430.6944 325,-421.7046"/>
<polygon fill="#191970" stroke="#191970" points="328.5001,-421.6426 325,-411.6427 321.5001,-421.6427 328.5001,-421.6426"/>
</g>
<!-- Node32 -->
<g id="node33" class="node">
<title>Node32</title>
<polygon fill="none" stroke="#bfbfbf" points="401.5,-280.5 401.5,-299.5 448.5,-299.5 448.5,-280.5 401.5,-280.5"/>
<text text-anchor="middle" x="425" y="-287.5" font-family="FreeSans.ttf" font-size="10.00" fill="#000000">vector</text>
</g>
<!-- Node0&#45;&gt;Node32 -->
<g id="edge56" class="edge">
<title>Node0&#45;&gt;Node32</title>
<path fill="none" stroke="#191970" d="M347.8126,-448.482C379.2082,-433.9238 434.2087,-402.7961 455,-356 462.2944,-339.5822 452.1286,-320.9548 441.7052,-307.6854"/>
<polygon fill="#191970" stroke="#191970" points="444.1493,-305.1574 434.9992,-299.8164 438.8215,-309.6978 444.1493,-305.1574"/>
</g>
<!-- Node1&#45;&gt;Node2 -->
<g id="edge2" class="edge">
<title>Node1&#45;&gt;Node2</title>
<path fill="none" stroke="#191970" d="M111.2073,-336.3733C133.1699,-327.2629 166.3332,-313.5062 190.8401,-303.3404"/>
<polygon fill="#191970" stroke="#191970" points="192.1997,-306.5657 200.0955,-299.5011 189.5176,-300.0999 192.1997,-306.5657"/>
</g>
<!-- Node3 -->
<g id="node4" class="node">
<title>Node3</title>
<polygon fill="none" stroke="#bfbfbf" points="412.5,-.5 412.5,-19.5 465.5,-19.5 465.5,-.5 412.5,-.5"/>
<text text-anchor="middle" x="439" y="-7.5" font-family="FreeSans.ttf" font-size="10.00" fill="#000000">cstddef</text>
</g>
<!-- Node1&#45;&gt;Node3 -->
<g id="edge3" class="edge">
<title>Node1&#45;&gt;Node3</title>
<path fill="none" stroke="#191970" d="M93.9233,-336.2094C104.8334,-317.2164 127,-273.7379 127,-234 127,-234 127,-234 127,-122 127,-64.05 320.0796,-27.9641 402.4601,-15.2048"/>
<polygon fill="#191970" stroke="#191970" points="403.0378,-18.6573 412.3991,-13.6958 401.987,-11.7366 403.0378,-18.6573"/>
</g>
<!-- Node5 -->
<g id="node6" class="node">
<title>Node5</title>
<g id="a_node6"><a xlink:href="VectorDynSize_8h.html" target="_top" xlink:title="iDynTree/Core/VectorDynSize.h">
<polygon fill="none" stroke="#000000" points="500.5,-112.5 500.5,-131.5 667.5,-131.5 667.5,-112.5 500.5,-112.5"/>
<text text-anchor="middle" x="584" y="-119.5" font-family="FreeSans.ttf" font-size="10.00" fill="#000000">iDynTree/Core/VectorDynSize.h</text>
</a>
</g>
</g>
<!-- Node4&#45;&gt;Node5 -->
<g id="edge5" class="edge">
<title>Node4&#45;&gt;Node5</title>
<path fill="none" stroke="#191970" d="M584,-392.4116C584,-373.0538 584,-327.9167 584,-290 584,-290 584,-290 584,-234 584,-201.7116 584,-164.1872 584,-141.8048"/>
<polygon fill="#191970" stroke="#191970" points="587.5001,-141.5883 584,-131.5884 580.5001,-141.5884 587.5001,-141.5883"/>
</g>
<!-- Node16 -->
<g id="node17" class="node">
<title>Node16</title>
<g id="a_node17"><a xlink:href="MatrixDynSize_8h.html" target="_top" xlink:title="iDynTree/Core/MatrixDynSize.h">
<polygon fill="none" stroke="#000000" points="351.5,-224.5 351.5,-243.5 518.5,-243.5 518.5,-224.5 351.5,-224.5"/>
<text text-anchor="middle" x="435" y="-231.5" font-family="FreeSans.ttf" font-size="10.00" fill="#000000">iDynTree/Core/MatrixDynSize.h</text>
</a>
</g>
</g>
<!-- Node4&#45;&gt;Node16 -->
<g id="edge17" class="edge">
<title>Node4&#45;&gt;Node16</title>
<path fill="none" stroke="#191970" d="M575.5622,-392.4862C551.397,-365.2396 481.6664,-286.6172 450.4407,-251.4096"/>
<polygon fill="#191970" stroke="#191970" points="452.9703,-248.987 443.7164,-243.8279 447.7333,-253.6317 452.9703,-248.987"/>
</g>
<!-- Node17 -->
<g id="node18" class="node">
<title>Node17</title>
<g id="a_node18"><a xlink:href="Transform_8h.html" target="_top" xlink:title="iDynTree/Core/Transform.h">
<polygon fill="none" stroke="#000000" points="655,-336.5 655,-355.5 801,-355.5 801,-336.5 655,-336.5"/>
<text text-anchor="middle" x="728" y="-343.5" font-family="FreeSans.ttf" font-size="10.00" fill="#000000">iDynTree/Core/Transform.h</text>
</a>
</g>
</g>
<!-- Node4&#45;&gt;Node17 -->
<g id="edge19" class="edge">
<title>Node4&#45;&gt;Node17</title>
<path fill="none" stroke="#191970" d="M608.7545,-392.3733C632.2849,-383.2226 667.8687,-369.3844 694.0426,-359.2057"/>
<polygon fill="#191970" stroke="#191970" points="695.5171,-362.3877 703.5685,-355.5011 692.9799,-355.8636 695.5171,-362.3877"/>
</g>
<!-- Node6 -->
<g id="node7" class="node">
<title>Node6</title>
<g id="a_node7"><a xlink:href="Span_8h.html" target="_top" xlink:title="iDynTree/Core/Span.h">
<polygon fill="none" stroke="#000000" points="851.5,-56.5 851.5,-75.5 972.5,-75.5 972.5,-56.5 851.5,-56.5"/>
<text text-anchor="middle" x="912" y="-63.5" font-family="FreeSans.ttf" font-size="10.00" fill="#000000">iDynTree/Core/Span.h</text>
</a>
</g>
</g>
<!-- Node5&#45;&gt;Node6 -->
<g id="edge6" class="edge">
<title>Node5&#45;&gt;Node6</title>
<path fill="none" stroke="#191970" d="M640.0125,-112.4369C697.0906,-102.6918 785.5842,-87.5832 846.0224,-77.2645"/>
<polygon fill="#191970" stroke="#191970" points="846.9502,-80.6568 856.2185,-75.5237 845.7721,-73.7566 846.9502,-80.6568"/>
</g>
<!-- Node15 -->
<g id="node16" class="node">
<title>Node15</title>
<polygon fill="none" stroke="#bfbfbf" points="652,-56.5 652,-75.5 696,-75.5 696,-56.5 652,-56.5"/>
<text text-anchor="middle" x="674" y="-63.5" font-family="FreeSans.ttf" font-size="10.00" fill="#000000">string</text>
</g>
<!-- Node5&#45;&gt;Node15 -->
<g id="edge16" class="edge">
<title>Node5&#45;&gt;Node15</title>
<path fill="none" stroke="#191970" d="M599.6768,-112.2455C613.4856,-103.6534 633.8193,-91.0014 649.7292,-81.1018"/>
<polygon fill="#191970" stroke="#191970" points="651.8613,-83.8974 658.5028,-75.6427 648.1632,-77.954 651.8613,-83.8974"/>
</g>
<!-- Node6&#45;&gt;Node3 -->
<g id="edge10" class="edge">
<title>Node6&#45;&gt;Node3</title>
<path fill="none" stroke="#191970" d="M851.4323,-57.1153C848.5828,-56.7309 845.761,-56.3572 843,-56 707.8217,-38.5128 546.7272,-21.236 475.713,-13.8005"/>
<polygon fill="#191970" stroke="#191970" points="475.8138,-10.2921 465.5044,-12.7345 475.0868,-17.2542 475.8138,-10.2921"/>
</g>
<!-- Node7 -->
<g id="node8" class="node">
<title>Node7</title>
<polygon fill="none" stroke="#bfbfbf" points="1186,-.5 1186,-19.5 1238,-19.5 1238,-.5 1186,-.5"/>
<text text-anchor="middle" x="1212" y="-7.5" font-family="FreeSans.ttf" font-size="10.00" fill="#000000">cassert</text>
</g>
<!-- Node6&#45;&gt;Node7 -->
<g id="edge7" class="edge">
<title>Node6&#45;&gt;Node7</title>
<path fill="none" stroke="#191970" d="M972.6193,-57.3564C1024.2512,-49.5681 1100.5698,-37.0527 1175.6075,-20.142"/>
<polygon fill="#191970" stroke="#191970" points="1176.7339,-23.4749 1185.7045,-17.8376 1175.1764,-16.6504 1176.7339,-23.4749"/>
</g>
<!-- Node8 -->
<g id="node9" class="node">
<title>Node8</title>
<polygon fill="none" stroke="#bfbfbf" points="676,-.5 676,-19.5 740,-19.5 740,-.5 676,-.5"/>
<text text-anchor="middle" x="708" y="-7.5" font-family="FreeSans.ttf" font-size="10.00" fill="#000000">algorithm</text>
</g>
<!-- Node6&#45;&gt;Node8 -->
<g id="edge8" class="edge">
<title>Node6&#45;&gt;Node8</title>
<path fill="none" stroke="#191970" d="M876.9311,-56.3733C841.8396,-46.7403 787.825,-31.9128 750.3592,-21.628"/>
<polygon fill="#191970" stroke="#191970" points="750.83,-18.1278 740.2602,-18.8557 748.9769,-24.8781 750.83,-18.1278"/>
</g>
<!-- Node9 -->
<g id="node10" class="node">
<title>Node9</title>
<polygon fill="none" stroke="#bfbfbf" points="758,-.5 758,-19.5 800,-19.5 800,-.5 758,-.5"/>
<text text-anchor="middle" x="779" y="-7.5" font-family="FreeSans.ttf" font-size="10.00" fill="#000000">array</text>
</g>
<!-- Node6&#45;&gt;Node9 -->
<g id="edge9" class="edge">
<title>Node6&#45;&gt;Node9</title>
<path fill="none" stroke="#191970" d="M889.1365,-56.3733C867.2034,-47.1383 833.9316,-33.1291 809.6976,-22.9253"/>
<polygon fill="#191970" stroke="#191970" points="810.8235,-19.6018 800.2489,-18.9469 808.1071,-26.0533 810.8235,-19.6018"/>
</g>
<!-- Node10 -->
<g id="node11" class="node">
<title>Node10</title>
<polygon fill="none" stroke="#bfbfbf" points="818.5,-.5 818.5,-19.5 871.5,-19.5 871.5,-.5 818.5,-.5"/>
<text text-anchor="middle" x="845" y="-7.5" font-family="FreeSans.ttf" font-size="10.00" fill="#000000">iterator</text>
</g>
<!-- Node6&#45;&gt;Node10 -->
<g id="edge11" class="edge">
<title>Node6&#45;&gt;Node10</title>
<path fill="none" stroke="#191970" d="M900.3295,-56.2455C890.4339,-47.9746 876.0373,-35.9416 864.4099,-26.2232"/>
<polygon fill="#191970" stroke="#191970" points="866.4542,-23.3703 856.5368,-19.6427 861.965,-28.7413 866.4542,-23.3703"/>
</g>
<!-- Node11 -->
<g id="node12" class="node">
<title>Node11</title>
<polygon fill="none" stroke="#bfbfbf" points="890,-.5 890,-19.5 934,-19.5 934,-.5 890,-.5"/>
<text text-anchor="middle" x="912" y="-7.5" font-family="FreeSans.ttf" font-size="10.00" fill="#000000">limits</text>
</g>
<!-- Node6&#45;&gt;Node11 -->
<g id="edge12" class="edge">
<title>Node6&#45;&gt;Node11</title>
<path fill="none" stroke="#191970" d="M912,-56.2455C912,-48.9382 912,-38.6944 912,-29.7046"/>
<polygon fill="#191970" stroke="#191970" points="915.5001,-29.6426 912,-19.6427 908.5001,-29.6427 915.5001,-29.6426"/>
</g>
<!-- Node12 -->
<g id="node13" class="node">
<title>Node12</title>
<polygon fill="none" stroke="#bfbfbf" points="952.5,-.5 952.5,-19.5 1017.5,-19.5 1017.5,-.5 952.5,-.5"/>
<text text-anchor="middle" x="985" y="-7.5" font-family="FreeSans.ttf" font-size="10.00" fill="#000000">stdexcept</text>
</g>
<!-- Node6&#45;&gt;Node12 -->
<g id="edge13" class="edge">
<title>Node6&#45;&gt;Node12</title>
<path fill="none" stroke="#191970" d="M924.7156,-56.2455C935.602,-47.8943 951.4883,-35.7076 964.22,-25.9408"/>
<polygon fill="#191970" stroke="#191970" points="966.6261,-28.5063 972.4301,-19.6427 962.3654,-22.9523 966.6261,-28.5063"/>
</g>
<!-- Node13 -->
<g id="node14" class="node">
<title>Node13</title>
<polygon fill="none" stroke="#bfbfbf" points="1035.5,-.5 1035.5,-19.5 1104.5,-19.5 1104.5,-.5 1035.5,-.5"/>
<text text-anchor="middle" x="1070" y="-7.5" font-family="FreeSans.ttf" font-size="10.00" fill="#000000">type_traits</text>
</g>
<!-- Node6&#45;&gt;Node13 -->
<g id="edge14" class="edge">
<title>Node6&#45;&gt;Node13</title>
<path fill="none" stroke="#191970" d="M939.1612,-56.3733C965.2067,-47.1419 1004.7116,-33.1402 1033.4979,-22.9375"/>
<polygon fill="#191970" stroke="#191970" points="1034.937,-26.1408 1043.1933,-19.5011 1032.5985,-19.5429 1034.937,-26.1408"/>
</g>
<!-- Node14 -->
<g id="node15" class="node">
<title>Node14</title>
<polygon fill="none" stroke="#bfbfbf" points="1122.5,-.5 1122.5,-19.5 1167.5,-19.5 1167.5,-.5 1122.5,-.5"/>
<text text-anchor="middle" x="1145" y="-7.5" font-family="FreeSans.ttf" font-size="10.00" fill="#000000">utility</text>
</g>
<!-- Node6&#45;&gt;Node14 -->
<g id="edge15" class="edge">
<title>Node6&#45;&gt;Node14</title>
<path fill="none" stroke="#191970" d="M959.2311,-56.4751C998.1072,-48.3588 1054.8315,-35.8856 1112.3881,-20.2884"/>
<polygon fill="#191970" stroke="#191970" points="1113.6626,-23.5683 1122.3823,-17.5503 1111.8129,-16.817 1113.6626,-23.5683"/>
</g>
<!-- Node16&#45;&gt;Node15 -->
<g id="edge18" class="edge">
<title>Node16&#45;&gt;Node15</title>
<path fill="none" stroke="#191970" d="M433.7089,-224.4949C431.1852,-201.6492 428.2714,-143.241 459,-112 484.1568,-86.4237 588.2831,-73.6065 641.849,-68.6005"/>
<polygon fill="#191970" stroke="#191970" points="642.203,-72.0828 651.8496,-67.7019 641.5765,-65.1109 642.203,-72.0828"/>
</g>
<!-- Node17&#45;&gt;Node15 -->
<g id="edge49" class="edge">
<title>Node17&#45;&gt;Node15</title>
<path fill="none" stroke="#191970" d="M708.6268,-336.4464C660.0474,-311.1987 533.9445,-237.3391 492,-132 488.7117,-123.7417 486.5387,-119.0133 492,-112 510.2434,-88.572 594.7257,-75.1899 641.9073,-69.4223"/>
<polygon fill="#191970" stroke="#191970" points="642.405,-72.888 651.9275,-68.2433 641.587,-65.9359 642.405,-72.888"/>
</g>
<!-- Node18 -->
<g id="node19" class="node">
<title>Node18</title>
<g id="a_node19"><a xlink:href="Position_8h.html" target="_top" xlink:title="iDynTree/Core/Position.h">
<polygon fill="none" stroke="#000000" points="660,-280.5 660,-299.5 796,-299.5 796,-280.5 660,-280.5"/>
<text text-anchor="middle" x="728" y="-287.5" font-family="FreeSans.ttf" font-size="10.00" fill="#000000">iDynTree/Core/Position.h</text>
</a>
</g>
</g>
<!-- Node17&#45;&gt;Node18 -->
<g id="edge20" class="edge">
<title>Node17&#45;&gt;Node18</title>
<path fill="none" stroke="#191970" d="M728,-336.2455C728,-328.9382 728,-318.6944 728,-309.7046"/>
<polygon fill="#191970" stroke="#191970" points="731.5001,-309.6426 728,-299.6427 724.5001,-309.6427 731.5001,-309.6426"/>
</g>
<!-- Node25 -->
<g id="node26" class="node">
<title>Node25</title>
<g id="a_node26"><a xlink:href="Rotation_8h.html" target="_top" xlink:title="iDynTree/Core/Rotation.h">
<polygon fill="none" stroke="#000000" points="784.5,-224.5 784.5,-243.5 921.5,-243.5 921.5,-224.5 784.5,-224.5"/>
<text text-anchor="middle" x="853" y="-231.5" font-family="FreeSans.ttf" font-size="10.00" fill="#000000">iDynTree/Core/Rotation.h</text>
</a>
</g>
</g>
<!-- Node17&#45;&gt;Node25 -->
<g id="edge47" class="edge">
<title>Node17&#45;&gt;Node25</title>
<path fill="none" stroke="#191970" d="M748.7993,-336.4804C765.2195,-328.3149 788.0999,-315.4392 805,-300 820.1283,-286.1795 833.483,-266.9101 842.2397,-252.7593"/>
<polygon fill="#191970" stroke="#191970" points="845.4032,-254.2888 847.5328,-243.9102 839.3958,-250.6955 845.4032,-254.2888"/>
</g>
<!-- Node28 -->
<g id="node29" class="node">
<title>Node28</title>
<g id="a_node29"><a xlink:href="MatrixFixSize_8h.html" target="_top" xlink:title="iDynTree/Core/MatrixFixSize.h">
<polygon fill="none" stroke="#000000" points="1080.5,-112.5 1080.5,-131.5 1241.5,-131.5 1241.5,-112.5 1080.5,-112.5"/>
<text text-anchor="middle" x="1161" y="-119.5" font-family="FreeSans.ttf" font-size="10.00" fill="#000000">iDynTree/Core/MatrixFixSize.h</text>
</a>
</g>
</g>
<!-- Node17&#45;&gt;Node28 -->
<g id="edge48" class="edge">
<title>Node17&#45;&gt;Node28</title>
<path fill="none" stroke="#191970" d="M790.3848,-336.4498C916.3229,-315.7615 1193.6774,-262.5879 1249,-188 1265.8872,-165.2321 1233.6056,-146.6779 1203.4965,-135.1056"/>
<polygon fill="#191970" stroke="#191970" points="1204.4563,-131.7303 1193.8623,-131.5972 1202.061,-138.3077 1204.4563,-131.7303"/>
</g>
<!-- Node18&#45;&gt;Node15 -->
<g id="edge46" class="edge">
<title>Node18&#45;&gt;Node15</title>
<path fill="none" stroke="#191970" d="M715.4008,-280.403C695.1137,-264.0594 655.9705,-228.6205 641,-188 637.9262,-179.6595 637.5984,-176.2123 641,-168 649.6591,-147.095 668.3409,-152.905 677,-132 683.0355,-117.4291 681.7221,-99.4704 679.2129,-85.9667"/>
<polygon fill="#191970" stroke="#191970" points="682.5487,-84.8439 676.9591,-75.8435 675.716,-86.3652 682.5487,-84.8439"/>
</g>
<!-- Node19 -->
<g id="node20" class="node">
<title>Node19</title>
<g id="a_node20"><a xlink:href="PositionRaw_8h.html" target="_top" xlink:title="iDynTree/Core/PositionRaw.h">
<polygon fill="none" stroke="#000000" points="650,-168.5 650,-187.5 806,-187.5 806,-168.5 650,-168.5"/>
<text text-anchor="middle" x="728" y="-175.5" font-family="FreeSans.ttf" font-size="10.00" fill="#000000">iDynTree/Core/PositionRaw.h</text>
</a>
</g>
</g>
<!-- Node18&#45;&gt;Node19 -->
<g id="edge21" class="edge">
<title>Node18&#45;&gt;Node19</title>
<path fill="none" stroke="#191970" d="M728,-280.4509C728,-262.184 728,-221.9553 728,-197.6976"/>
<polygon fill="#191970" stroke="#191970" points="731.5001,-197.5249 728,-187.5249 724.5001,-197.5249 731.5001,-197.5249"/>
</g>
<!-- Node18&#45;&gt;Node25 -->
<g id="edge32" class="edge">
<title>Node18&#45;&gt;Node25</title>
<path fill="none" stroke="#191970" d="M749.4883,-280.3733C769.644,-271.3435 799.988,-257.7494 822.618,-247.6111"/>
<polygon fill="#191970" stroke="#191970" points="824.0971,-250.7838 831.7921,-243.5011 821.2351,-244.3955 824.0971,-250.7838"/>
</g>
<!-- Node19&#45;&gt;Node15 -->
<g id="edge31" class="edge">
<title>Node19&#45;&gt;Node15</title>
<path fill="none" stroke="#191970" d="M726.3522,-168.1867C723.8662,-154.9166 718.4172,-130.7541 709,-112 703.8531,-101.75 696.3252,-91.4832 689.5685,-83.2578"/>
<polygon fill="#191970" stroke="#191970" points="692.1,-80.8328 682.9385,-75.5112 686.7818,-85.3844 692.1,-80.8328"/>
</g>
<!-- Node20 -->
<g id="node21" class="node">
<title>Node20</title>
<g id="a_node21"><a xlink:href="VectorFixSize_8h.html" target="_top" xlink:title="iDynTree/Core/VectorFixSize.h">
<polygon fill="none" stroke="#000000" points="900.5,-112.5 900.5,-131.5 1061.5,-131.5 1061.5,-112.5 900.5,-112.5"/>
<text text-anchor="middle" x="981" y="-119.5" font-family="FreeSans.ttf" font-size="10.00" fill="#000000">iDynTree/Core/VectorFixSize.h</text>
</a>
</g>
</g>
<!-- Node19&#45;&gt;Node20 -->
<g id="edge22" class="edge">
<title>Node19&#45;&gt;Node20</title>
<path fill="none" stroke="#191970" d="M771.2048,-168.4369C814.5947,-158.8328 881.5209,-144.0191 928.0726,-133.7152"/>
<polygon fill="#191970" stroke="#191970" points="928.9662,-137.1022 937.9734,-131.5237 927.4533,-130.2676 928.9662,-137.1022"/>
</g>
<!-- Node20&#45;&gt;Node6 -->
<g id="edge26" class="edge">
<title>Node20&#45;&gt;Node6</title>
<path fill="none" stroke="#191970" d="M968.9811,-112.2455C958.7902,-103.9746 943.9638,-91.9416 931.9893,-82.2232"/>
<polygon fill="#191970" stroke="#191970" points="933.8514,-79.2268 923.8812,-75.6427 929.4402,-84.662 933.8514,-79.2268"/>
</g>
<!-- Node20&#45;&gt;Node7 -->
<g id="edge29" class="edge">
<title>Node20&#45;&gt;Node7</title>
<path fill="none" stroke="#191970" d="M983.9904,-112.2273C988.9829,-97.6229 1000.445,-70.2952 1020,-56 1075.3097,-15.5672 1105.0507,-35.8921 1175.8735,-20.0468"/>
<polygon fill="#191970" stroke="#191970" points="1176.7666,-23.4318 1185.6674,-17.685 1175.1255,-16.6269 1176.7666,-23.4318"/>
</g>
<!-- Node20&#45;&gt;Node15 -->
<g id="edge27" class="edge">
<title>Node20&#45;&gt;Node15</title>
<path fill="none" stroke="#191970" d="M907.2064,-112.4597C851.5193,-104.5848 773.4473,-92.0994 706,-76 705.9009,-75.9764 705.8017,-75.9526 705.7024,-75.9286"/>
<polygon fill="#191970" stroke="#191970" points="706.8372,-72.6096 696.271,-73.3881 705.0164,-79.3687 706.8372,-72.6096"/>
</g>
<!-- Node21 -->
<g id="node22" class="node">
<title>Node21</title>
<g id="a_node22"><a xlink:href="Utils_8h.html" target="_top" xlink:title="iDynTree/Core/Utils.h">
<polygon fill="none" stroke="#000000" points="714.5,-56.5 714.5,-75.5 833.5,-75.5 833.5,-56.5 714.5,-56.5"/>
<text text-anchor="middle" x="774" y="-63.5" font-family="FreeSans.ttf" font-size="10.00" fill="#000000">iDynTree/Core/Utils.h</text>
</a>
</g>
</g>
<!-- Node20&#45;&gt;Node21 -->
<g id="edge23" class="edge">
<title>Node20&#45;&gt;Node21</title>
<path fill="none" stroke="#191970" d="M945.4154,-112.3733C910.3984,-102.9001 856.8119,-88.4032 818.8875,-78.1435"/>
<polygon fill="#191970" stroke="#191970" points="819.6873,-74.7341 809.1202,-75.5011 817.8592,-81.4912 819.6873,-74.7341"/>
</g>
<!-- Node23 -->
<g id="node24" class="node">
<title>Node23</title>
<polygon fill="none" stroke="#bfbfbf" points="1029,-56.5 1029,-75.5 1085,-75.5 1085,-56.5 1029,-56.5"/>
<text text-anchor="middle" x="1057" y="-63.5" font-family="FreeSans.ttf" font-size="10.00" fill="#000000">sstream</text>
</g>
<!-- Node20&#45;&gt;Node23 -->
<g id="edge28" class="edge">
<title>Node20&#45;&gt;Node23</title>
<path fill="none" stroke="#191970" d="M994.2382,-112.2455C1005.681,-103.814 1022.4296,-91.4729 1035.7475,-81.6598"/>
<polygon fill="#191970" stroke="#191970" points="1037.9391,-84.3924 1043.9135,-75.6427 1033.7867,-78.757 1037.9391,-84.3924"/>
</g>
<!-- Node24 -->
<g id="node25" class="node">
<title>Node24</title>
<polygon fill="none" stroke="#bfbfbf" points="1103,-56.5 1103,-75.5 1153,-75.5 1153,-56.5 1103,-56.5"/>
<text text-anchor="middle" x="1128" y="-63.5" font-family="FreeSans.ttf" font-size="10.00" fill="#000000">cstring</text>
</g>
<!-- Node20&#45;&gt;Node24 -->
<g id="edge30" class="edge">
<title>Node20&#45;&gt;Node24</title>
<path fill="none" stroke="#191970" d="M1006.2702,-112.3733C1030.3966,-103.1822 1066.9362,-89.2624 1093.6877,-79.0713"/>
<polygon fill="#191970" stroke="#191970" points="1094.9607,-82.3318 1103.0596,-75.5011 1092.4687,-75.7904 1094.9607,-82.3318"/>
</g>
<!-- Node21&#45;&gt;Node3 -->
<g id="edge24" class="edge">
<title>Node21&#45;&gt;Node3</title>
<path fill="none" stroke="#191970" d="M716.7921,-56.4369C647.8294,-44.9088 533.9651,-25.8748 475.7523,-16.1437"/>
<polygon fill="#191970" stroke="#191970" points="475.994,-12.6356 465.5537,-14.4388 474.8398,-19.5398 475.994,-12.6356"/>
</g>
<!-- Node22 -->
<g id="node23" class="node">
<title>Node22</title>
<polygon fill="none" stroke="#bfbfbf" points="578,-.5 578,-19.5 658,-19.5 658,-.5 578,-.5"/>
<text text-anchor="middle" x="618" y="-7.5" font-family="FreeSans.ttf" font-size="10.00" fill="#000000">CoreExport.h</text>
</g>
<!-- Node21&#45;&gt;Node22 -->
<g id="edge25" class="edge">
<title>Node21&#45;&gt;Node22</title>
<path fill="none" stroke="#191970" d="M747.1826,-56.3733C721.4668,-47.1419 682.462,-33.1402 654.0401,-22.9375"/>
<polygon fill="#191970" stroke="#191970" points="655.0619,-19.5857 644.4674,-19.5011 652.6968,-26.174 655.0619,-19.5857"/>
</g>
<!-- Node25&#45;&gt;Node15 -->
<g id="edge33" class="edge">
<title>Node25&#45;&gt;Node15</title>
<path fill="none" stroke="#191970" d="M848.9545,-224.2215C842.9724,-210.562 830.7554,-185.483 815,-168 781.0899,-130.3716 731.1203,-98.2813 700.6704,-80.6141"/>
<polygon fill="#191970" stroke="#191970" points="702.307,-77.5183 691.8865,-75.6041 698.8388,-83.5988 702.307,-77.5183"/>
</g>
<!-- Node25&#45;&gt;Node20 -->
<g id="edge45" class="edge">
<title>Node25&#45;&gt;Node20</title>
<path fill="none" stroke="#191970" d="M856.6668,-224.3534C862.38,-210.3985 874.5869,-184.4533 892,-168 906.8271,-153.9902 926.7483,-143.1624 943.9841,-135.5415"/>
<polygon fill="#191970" stroke="#191970" points="945.3817,-138.7506 953.2339,-131.6377 942.6599,-132.3015 945.3817,-138.7506"/>
</g>
<!-- Node26 -->
<g id="node27" class="node">
<title>Node26</title>
<g id="a_node27"><a xlink:href="GeomVector3_8h.html" target="_top" xlink:title="iDynTree/Core/GeomVector3.h">
<polygon fill="none" stroke="#000000" points="900.5,-168.5 900.5,-187.5 1063.5,-187.5 1063.5,-168.5 900.5,-168.5"/>
<text text-anchor="middle" x="982" y="-175.5" font-family="FreeSans.ttf" font-size="10.00" fill="#000000">iDynTree/Core/GeomVector3.h</text>
</a>
</g>
</g>
<!-- Node25&#45;&gt;Node26 -->
<g id="edge34" class="edge">
<title>Node25&#45;&gt;Node26</title>
<path fill="none" stroke="#191970" d="M875.1759,-224.3733C895.9766,-215.3435 927.2917,-201.7494 950.6458,-191.6111"/>
<polygon fill="#191970" stroke="#191970" points="952.3343,-194.6938 960.1135,-187.5011 949.5468,-188.2727 952.3343,-194.6938"/>
</g>
<!-- Node27 -->
<g id="node28" class="node">
<title>Node27</title>
<g id="a_node28"><a xlink:href="RotationRaw_8h.html" target="_top" xlink:title="iDynTree/Core/RotationRaw.h">
<polygon fill="none" stroke="#000000" points="1082,-168.5 1082,-187.5 1240,-187.5 1240,-168.5 1082,-168.5"/>
<text text-anchor="middle" x="1161" y="-175.5" font-family="FreeSans.ttf" font-size="10.00" fill="#000000">iDynTree/Core/RotationRaw.h</text>
</a>
</g>
</g>
<!-- Node25&#45;&gt;Node27 -->
<g id="edge36" class="edge">
<title>Node25&#45;&gt;Node27</title>
<path fill="none" stroke="#191970" d="M905.5971,-224.4369C959.0841,-214.712 1041.9492,-199.6456 1098.6933,-189.3285"/>
<polygon fill="#191970" stroke="#191970" points="1099.4072,-192.7562 1108.6198,-187.5237 1098.155,-185.8691 1099.4072,-192.7562"/>
</g>
<!-- Node26&#45;&gt;Node20 -->
<g id="edge35" class="edge">
<title>Node26&#45;&gt;Node20</title>
<path fill="none" stroke="#191970" d="M981.8258,-168.2455C981.6953,-160.9382 981.5124,-150.6944 981.3519,-141.7046"/>
<polygon fill="#191970" stroke="#191970" points="984.8503,-141.5786 981.1722,-131.6427 977.8514,-141.7036 984.8503,-141.5786"/>
</g>
<!-- Node27&#45;&gt;Node15 -->
<g id="edge44" class="edge">
<title>Node27&#45;&gt;Node15</title>
<path fill="none" stroke="#191970" d="M1093.3577,-168.4607C1026.3604,-158.6479 928.6292,-143.2504 892,-132 871.4658,-125.6931 868.2694,-119.1121 848,-112 786.5644,-90.4435 768.6509,-93.7166 706,-76 705.902,-75.9723 705.8038,-75.9445 705.7055,-75.9166"/>
<polygon fill="#191970" stroke="#191970" points="706.9149,-72.6244 696.3331,-73.1498 704.9329,-79.3379 706.9149,-72.6244"/>
</g>
<!-- Node27&#45;&gt;Node28 -->
<g id="edge37" class="edge">
<title>Node27&#45;&gt;Node28</title>
<path fill="none" stroke="#191970" d="M1161,-168.2455C1161,-160.9382 1161,-150.6944 1161,-141.7046"/>
<polygon fill="#191970" stroke="#191970" points="1164.5001,-141.6426 1161,-131.6427 1157.5001,-141.6427 1164.5001,-141.6426"/>
</g>
<!-- Node28&#45;&gt;Node7 -->
<g id="edge39" class="edge">
<title>Node28&#45;&gt;Node7</title>
<path fill="none" stroke="#191970" d="M1192.5032,-112.3744C1209.8159,-105.2912 1229.796,-93.7494 1240,-76 1249.0416,-60.2725 1238.7118,-41.06 1228.1375,-27.4287"/>
<polygon fill="#191970" stroke="#191970" points="1230.8003,-25.1571 1221.6928,-19.7436 1225.4366,-29.655 1230.8003,-25.1571"/>
</g>
<!-- Node28&#45;&gt;Node15 -->
<g id="edge41" class="edge">
<title>Node28&#45;&gt;Node15</title>
<path fill="none" stroke="#191970" d="M1080.0521,-112.9581C1076.9962,-112.6319 1073.9707,-112.3115 1071,-112 908.8796,-94.999 865.7406,-108.4806 706,-76 705.9002,-75.9797 705.8002,-75.9592 705.7002,-75.9385"/>
<polygon fill="#191970" stroke="#191970" points="706.7765,-72.5996 696.2276,-73.5846 705.0883,-79.393 706.7765,-72.5996"/>
</g>
<!-- Node28&#45;&gt;Node21 -->
<g id="edge38" class="edge">
<title>Node28&#45;&gt;Node21</title>
<path fill="none" stroke="#191970" d="M1095.2233,-112.4904C1033.1142,-103.5098 937.068,-89.6191 843.736,-76.1063"/>
<polygon fill="#191970" stroke="#191970" points="844.2373,-72.6425 833.839,-74.6733 843.2342,-79.5702 844.2373,-72.6425"/>
</g>
<!-- Node28&#45;&gt;Node23 -->
<g id="edge43" class="edge">
<title>Node28&#45;&gt;Node23</title>
<path fill="none" stroke="#191970" d="M1142.8846,-112.2455C1126.555,-103.4527 1102.329,-90.4079 1083.7661,-80.4125"/>
<polygon fill="#191970" stroke="#191970" points="1085.3719,-77.3021 1074.9078,-75.6427 1082.0532,-83.4654 1085.3719,-77.3021"/>
</g>
<!-- Node28&#45;&gt;Node24 -->
<g id="edge40" class="edge">
<title>Node28&#45;&gt;Node24</title>
<path fill="none" stroke="#191970" d="M1155.2518,-112.2455C1150.7565,-104.617 1144.3752,-93.7881 1138.9175,-84.5267"/>
<polygon fill="#191970" stroke="#191970" points="1141.7747,-82.4811 1133.6823,-75.6427 1135.7439,-86.035 1141.7747,-82.4811"/>
</g>
<!-- Node29 -->
<g id="node30" class="node">
<title>Node29</title>
<polygon fill="none" stroke="#bfbfbf" points="1171,-56.5 1171,-75.5 1231,-75.5 1231,-56.5 1171,-56.5"/>
<text text-anchor="middle" x="1201" y="-63.5" font-family="FreeSans.ttf" font-size="10.00" fill="#000000">iostream</text>
</g>
<!-- Node28&#45;&gt;Node29 -->
<g id="edge42" class="edge">
<title>Node28&#45;&gt;Node29</title>
<path fill="none" stroke="#191970" d="M1167.9675,-112.2455C1173.5311,-104.4564 1181.478,-93.3308 1188.1829,-83.9439"/>
<polygon fill="#191970" stroke="#191970" points="1191.148,-85.8144 1194.1124,-75.6427 1185.4519,-81.7457 1191.148,-85.8144"/>
</g>
<!-- Node30&#45;&gt;Node2 -->
<g id="edge51" class="edge">
<title>Node30&#45;&gt;Node2</title>
<path fill="none" stroke="#191970" d="M307.69,-392.3681C293.849,-384.0503 274.5803,-371.0231 261,-356 248.3003,-341.9511 237.9159,-322.9618 231.2315,-308.9586"/>
<polygon fill="#191970" stroke="#191970" points="234.3788,-307.4248 227.038,-299.7852 228.0125,-310.3351 234.3788,-307.4248"/>
</g>
<!-- Node31 -->
<g id="node32" class="node">
<title>Node31</title>
<g id="a_node32"><a xlink:href="OptimizationProblem_8h.html" target="_top" xlink:title="iDynTree/OptimizationProblem.h">
<polygon fill="none" stroke="#000000" points="270.5,-336.5 270.5,-355.5 445.5,-355.5 445.5,-336.5 270.5,-336.5"/>
<text text-anchor="middle" x="358" y="-343.5" font-family="FreeSans.ttf" font-size="10.00" fill="#000000">iDynTree/OptimizationProblem.h</text>
</a>
</g>
</g>
<!-- Node30&#45;&gt;Node31 -->
<g id="edge52" class="edge">
<title>Node30&#45;&gt;Node31</title>
<path fill="none" stroke="#191970" d="M330.7482,-392.2455C335.2435,-384.617 341.6248,-373.7881 347.0825,-364.5267"/>
<polygon fill="#191970" stroke="#191970" points="350.2561,-366.035 352.3177,-355.6427 344.2253,-362.4811 350.2561,-366.035"/>
</g>
<!-- Node31&#45;&gt;Node2 -->
<g id="edge54" class="edge">
<title>Node31&#45;&gt;Node2</title>
<path fill="none" stroke="#191970" d="M334.7927,-336.3733C312.8301,-327.2629 279.6668,-313.5062 255.1599,-303.3404"/>
<polygon fill="#191970" stroke="#191970" points="256.4824,-300.0999 245.9045,-299.5011 253.8003,-306.5657 256.4824,-300.0999"/>
</g>
<!-- Node31&#45;&gt;Node3 -->
<g id="edge55" class="edge">
<title>Node31&#45;&gt;Node3</title>
<path fill="none" stroke="#191970" d="M352.9832,-336.4109C343.5255,-317.4144 324,-273.4221 324,-234 324,-234 324,-234 324,-122 324,-75.2547 373.3676,-41.6844 407.4117,-24.0917"/>
<polygon fill="#191970" stroke="#191970" points="409.1515,-27.1357 416.5538,-19.5557 406.0402,-20.8651 409.1515,-27.1357"/>
</g>
<!-- Node31&#45;&gt;Node32 -->
<g id="edge53" class="edge">
<title>Node31&#45;&gt;Node32</title>
<path fill="none" stroke="#191970" d="M369.6705,-336.2455C379.5661,-327.9746 393.9627,-315.9416 405.5901,-306.2232"/>
<polygon fill="#191970" stroke="#191970" points="408.035,-308.7413 413.4632,-299.6427 403.5458,-303.3703 408.035,-308.7413"/>
</g>
</g>
</svg>
