<?xml version="1.0" encoding="UTF-8" standalone="no"?>
<!DOCTYPE svg PUBLIC "-//W3C//DTD SVG 1.1//EN"
 "http://www.w3.org/Graphics/SVG/1.1/DTD/svg11.dtd">
<!-- Generated by graphviz version 2.40.1 (20161225.0304)
 -->
<!-- Title: OptimalControlProblem.h Pages: 1 -->
<svg width="1143pt" height="476pt"
 viewBox="0.00 0.00 1142.50 476.00" xmlns="http://www.w3.org/2000/svg" xmlns:xlink="http://www.w3.org/1999/xlink">
<g id="graph0" class="graph" transform="scale(1 1) rotate(0) translate(4 472)">
<title>OptimalControlProblem.h</title>
<!-- Node0 -->
<g id="node1" class="node">
<title>Node0</title>
<polygon fill="#bfbfbf" stroke="#000000" points="196,-448.5 196,-467.5 336,-467.5 336,-448.5 196,-448.5"/>
<text text-anchor="middle" x="266" y="-455.5" font-family="FreeSans.ttf" font-size="10.00" fill="#000000">OptimalControlProblem.h</text>
</g>
<!-- Node1 -->
<g id="node2" class="node">
<title>Node1</title>
<polygon fill="none" stroke="#bfbfbf" points="0,-392.5 0,-411.5 58,-411.5 58,-392.5 0,-392.5"/>
<text text-anchor="middle" x="29" y="-399.5" font-family="FreeSans.ttf" font-size="10.00" fill="#000000">memory</text>
</g>
<!-- Node0&#45;&gt;Node1 -->
<g id="edge1" class="edge">
<title>Node0&#45;&gt;Node1</title>
<path fill="none" stroke="#191970" d="M225.5275,-448.4369C181.4654,-438.0256 111.4937,-421.4922 68.0137,-411.2184"/>
<polygon fill="#191970" stroke="#191970" points="68.6311,-407.768 58.0942,-408.8746 67.0214,-414.5804 68.6311,-407.768"/>
</g>
<!-- Node2 -->
<g id="node3" class="node">
<title>Node2</title>
<polygon fill="none" stroke="#bfbfbf" points="72.5,-56.5 72.5,-75.5 119.5,-75.5 119.5,-56.5 72.5,-56.5"/>
<text text-anchor="middle" x="96" y="-63.5" font-family="FreeSans.ttf" font-size="10.00" fill="#000000">vector</text>
</g>
<!-- Node0&#45;&gt;Node2 -->
<g id="edge2" class="edge">
<title>Node0&#45;&gt;Node2</title>
<path fill="none" stroke="#191970" d="M212.9676,-448.3891C159.8721,-435.3494 86,-406.3611 86,-346 86,-346 86,-346 86,-178 86,-145.5831 90.2075,-108.0969 93.1641,-85.7572"/>
<polygon fill="#191970" stroke="#191970" points="96.6709,-85.9466 94.5672,-75.5627 89.7363,-84.992 96.6709,-85.9466"/>
</g>
<!-- Node3 -->
<g id="node4" class="node">
<title>Node3</title>
<polygon fill="none" stroke="#bfbfbf" points="484,-56.5 484,-75.5 528,-75.5 528,-56.5 484,-56.5"/>
<text text-anchor="middle" x="506" y="-63.5" font-family="FreeSans.ttf" font-size="10.00" fill="#000000">string</text>
</g>
<!-- Node0&#45;&gt;Node3 -->
<g id="edge3" class="edge">
<title>Node0&#45;&gt;Node3</title>
<path fill="none" stroke="#191970" d="M269.3966,-448.1569C287.9775,-394.4986 377.4144,-138.7104 403,-112 422.1491,-92.009 451.5538,-80.07 474.0506,-73.3859"/>
<polygon fill="#191970" stroke="#191970" points="475.1364,-76.717 483.8392,-70.6745 473.2678,-69.971 475.1364,-76.717"/>
</g>
<!-- Node4 -->
<g id="node5" class="node">
<title>Node4</title>
<g id="a_node5"><a xlink:href="Utils_8h.html" target="_top" xlink:title="iDynTree/Core/Utils.h">
<polygon fill="none" stroke="#000000" points="292.5,-56.5 292.5,-75.5 411.5,-75.5 411.5,-56.5 292.5,-56.5"/>
<text text-anchor="middle" x="352" y="-63.5" font-family="FreeSans.ttf" font-size="10.00" fill="#000000">iDynTree/Core/Utils.h</text>
</a>
</g>
</g>
<!-- Node0&#45;&gt;Node4 -->
<g id="edge4" class="edge">
<title>Node0&#45;&gt;Node4</title>
<path fill="none" stroke="#191970" d="M266.116,-448.2627C266.9105,-406.4179 273.143,-238.2714 322,-112 325.891,-101.9437 332.199,-91.7951 338.0291,-83.5984"/>
<polygon fill="#191970" stroke="#191970" points="340.8485,-85.6725 344.0308,-75.5669 335.2411,-81.4822 340.8485,-85.6725"/>
</g>
<!-- Node7 -->
<g id="node8" class="node">
<title>Node7</title>
<g id="a_node8"><a xlink:href="SparsityStructure_8h.html" target="_top" xlink:title="iDynTree/SparsityStructure.h">
<polygon fill="none" stroke="#000000" points="114.5,-112.5 114.5,-131.5 269.5,-131.5 269.5,-112.5 114.5,-112.5"/>
<text text-anchor="middle" x="192" y="-119.5" font-family="FreeSans.ttf" font-size="10.00" fill="#000000">iDynTree/SparsityStructure.h</text>
</a>
</g>
</g>
<!-- Node0&#45;&gt;Node7 -->
<g id="edge7" class="edge">
<title>Node0&#45;&gt;Node7</title>
<path fill="none" stroke="#191970" d="M263.1965,-448.2066C257.9113,-428.8521 247,-384.2612 247,-346 247,-346 247,-346 247,-234 247,-197.6071 223.3135,-160.7455 207.029,-139.7035"/>
<polygon fill="#191970" stroke="#191970" points="209.5882,-137.3008 200.5938,-131.7015 204.1333,-141.6876 209.5882,-137.3008"/>
</g>
<!-- Node9 -->
<g id="node10" class="node">
<title>Node9</title>
<g id="a_node10"><a xlink:href="TimeVaryingObject_8h.html" target="_top" xlink:title="iDynTree/TimeVaryingObject.h">
<polygon fill="none" stroke="#000000" points="455,-392.5 455,-411.5 619,-411.5 619,-392.5 455,-392.5"/>
<text text-anchor="middle" x="537" y="-399.5" font-family="FreeSans.ttf" font-size="10.00" fill="#000000">iDynTree/TimeVaryingObject.h</text>
</a>
</g>
</g>
<!-- Node0&#45;&gt;Node9 -->
<g id="edge13" class="edge">
<title>Node0&#45;&gt;Node9</title>
<path fill="none" stroke="#191970" d="M312.2786,-448.4369C358.9505,-438.7925 431.0449,-423.8948 480.9331,-413.5858"/>
<polygon fill="#191970" stroke="#191970" points="481.8274,-416.975 490.9122,-411.5237 480.4108,-410.1198 481.8274,-416.975"/>
</g>
<!-- Node5 -->
<g id="node6" class="node">
<title>Node5</title>
<polygon fill="none" stroke="#bfbfbf" points="325.5,-.5 325.5,-19.5 378.5,-19.5 378.5,-.5 325.5,-.5"/>
<text text-anchor="middle" x="352" y="-7.5" font-family="FreeSans.ttf" font-size="10.00" fill="#000000">cstddef</text>
</g>
<!-- Node4&#45;&gt;Node5 -->
<g id="edge5" class="edge">
<title>Node4&#45;&gt;Node5</title>
<path fill="none" stroke="#191970" d="M352,-56.2455C352,-48.9382 352,-38.6944 352,-29.7046"/>
<polygon fill="#191970" stroke="#191970" points="355.5001,-29.6426 352,-19.6427 348.5001,-29.6427 355.5001,-29.6426"/>
</g>
<!-- Node6 -->
<g id="node7" class="node">
<title>Node6</title>
<polygon fill="none" stroke="#bfbfbf" points="227,-.5 227,-19.5 307,-19.5 307,-.5 227,-.5"/>
<text text-anchor="middle" x="267" y="-7.5" font-family="FreeSans.ttf" font-size="10.00" fill="#000000">CoreExport.h</text>
</g>
<!-- Node4&#45;&gt;Node6 -->
<g id="edge6" class="edge">
<title>Node4&#45;&gt;Node6</title>
<path fill="none" stroke="#191970" d="M337.1941,-56.2455C324.2744,-47.7337 305.3069,-35.2375 290.3448,-25.3801"/>
<polygon fill="#191970" stroke="#191970" points="291.9124,-22.2216 281.6362,-19.6427 288.0613,-28.067 291.9124,-22.2216"/>
</g>
<!-- Node7&#45;&gt;Node2 -->
<g id="edge9" class="edge">
<title>Node7&#45;&gt;Node2</title>
<path fill="none" stroke="#191970" d="M175.2781,-112.2455C160.4111,-103.5731 138.4534,-90.7645 121.4142,-80.825"/>
<polygon fill="#191970" stroke="#191970" points="122.9317,-77.6582 112.5303,-75.6427 119.4045,-83.7047 122.9317,-77.6582"/>
</g>
<!-- Node7&#45;&gt;Node3 -->
<g id="edge12" class="edge">
<title>Node7&#45;&gt;Node3</title>
<path fill="none" stroke="#191970" d="M245.6217,-112.4369C311.1427,-100.7516 419.9059,-81.3544 473.7539,-71.7509"/>
<polygon fill="#191970" stroke="#191970" points="474.5321,-75.1674 483.7622,-69.966 473.303,-68.2762 474.5321,-75.1674"/>
</g>
<!-- Node7&#45;&gt;Node4 -->
<g id="edge8" class="edge">
<title>Node7&#45;&gt;Node4</title>
<path fill="none" stroke="#191970" d="M219.505,-112.3733C245.8802,-103.1419 285.8851,-89.1402 315.0358,-78.9375"/>
<polygon fill="#191970" stroke="#191970" points="316.5716,-82.1082 324.8539,-75.5011 314.2591,-75.5012 316.5716,-82.1082"/>
</g>
<!-- Node7&#45;&gt;Node5 -->
<g id="edge10" class="edge">
<title>Node7&#45;&gt;Node5</title>
<path fill="none" stroke="#191970" d="M205.0216,-112.4866C222.7743,-99.5563 255.6138,-75.7776 284,-56 298.9177,-45.6063 315.8527,-34.1492 329.0906,-25.2693"/>
<polygon fill="#191970" stroke="#191970" points="331.2305,-28.0487 337.5944,-19.578 327.3372,-22.2313 331.2305,-28.0487"/>
</g>
<!-- Node8 -->
<g id="node9" class="node">
<title>Node8</title>
<polygon fill="none" stroke="#bfbfbf" points="149,-56.5 149,-75.5 235,-75.5 235,-56.5 149,-56.5"/>
<text text-anchor="middle" x="192" y="-63.5" font-family="FreeSans.ttf" font-size="10.00" fill="#000000">unordered_set</text>
</g>
<!-- Node7&#45;&gt;Node8 -->
<g id="edge11" class="edge">
<title>Node7&#45;&gt;Node8</title>
<path fill="none" stroke="#191970" d="M192,-112.2455C192,-104.9382 192,-94.6944 192,-85.7046"/>
<polygon fill="#191970" stroke="#191970" points="195.5001,-85.6426 192,-75.6427 188.5001,-85.6427 195.5001,-85.6426"/>
</g>
<!-- Node10 -->
<g id="node11" class="node">
<title>Node10</title>
<g id="a_node11"><a xlink:href="VectorDynSize_8h.html" target="_top" xlink:title="iDynTree/Core/VectorDynSize.h">
<polygon fill="none" stroke="#000000" points="609.5,-112.5 609.5,-131.5 776.5,-131.5 776.5,-112.5 609.5,-112.5"/>
<text text-anchor="middle" x="693" y="-119.5" font-family="FreeSans.ttf" font-size="10.00" fill="#000000">iDynTree/Core/VectorDynSize.h</text>
</a>
</g>
</g>
<!-- Node9&#45;&gt;Node10 -->
<g id="edge14" class="edge">
<title>Node9&#45;&gt;Node10</title>
<path fill="none" stroke="#191970" d="M619.0573,-394.487C778.3567,-378.7911 1114,-339.8099 1114,-290 1114,-290 1114,-290 1114,-234 1114,-203.4754 1118.3029,-187.7162 1095,-168 1092.0648,-165.5166 904.9791,-144.8998 787.0941,-132.1243"/>
<polygon fill="#191970" stroke="#191970" points="787.2879,-128.6249 776.9692,-131.0279 786.5342,-135.5842 787.2879,-128.6249"/>
</g>
<!-- Node20 -->
<g id="node21" class="node">
<title>Node20</title>
<g id="a_node21"><a xlink:href="MatrixDynSize_8h.html" target="_top" xlink:title="iDynTree/Core/MatrixDynSize.h">
<polygon fill="none" stroke="#000000" points="350.5,-280.5 350.5,-299.5 517.5,-299.5 517.5,-280.5 350.5,-280.5"/>
<text text-anchor="middle" x="434" y="-287.5" font-family="FreeSans.ttf" font-size="10.00" fill="#000000">iDynTree/Core/MatrixDynSize.h</text>
</a>
</g>
</g>
<!-- Node9&#45;&gt;Node20 -->
<g id="edge26" class="edge">
<title>Node9&#45;&gt;Node20</title>
<path fill="none" stroke="#191970" d="M528.2183,-392.4509C510.8111,-373.5227 471.7183,-331.014 449.7515,-307.1279"/>
<polygon fill="#191970" stroke="#191970" points="452.1049,-304.5163 442.7595,-299.5249 446.9524,-309.2547 452.1049,-304.5163"/>
</g>
<!-- Node21 -->
<g id="node22" class="node">
<title>Node21</title>
<g id="a_node22"><a xlink:href="Transform_8h.html" target="_top" xlink:title="iDynTree/Core/Transform.h">
<polygon fill="none" stroke="#000000" points="568,-336.5 568,-355.5 714,-355.5 714,-336.5 568,-336.5"/>
<text text-anchor="middle" x="641" y="-343.5" font-family="FreeSans.ttf" font-size="10.00" fill="#000000">iDynTree/Core/Transform.h</text>
</a>
</g>
</g>
<!-- Node9&#45;&gt;Node21 -->
<g id="edge28" class="edge">
<title>Node9&#45;&gt;Node21</title>
<path fill="none" stroke="#191970" d="M555.1154,-392.2455C571.445,-383.4527 595.671,-370.4079 614.2339,-360.4125"/>
<polygon fill="#191970" stroke="#191970" points="615.9468,-363.4654 623.0922,-355.6427 612.6281,-357.3021 615.9468,-363.4654"/>
</g>
<!-- Node10&#45;&gt;Node3 -->
<g id="edge25" class="edge">
<title>Node10&#45;&gt;Node3</title>
<path fill="none" stroke="#191970" d="M660.8536,-112.3733C626.5007,-102.0858 572.3645,-85.8739 538.0491,-75.5976"/>
<polygon fill="#191970" stroke="#191970" points="538.6634,-72.1281 528.0797,-72.6121 536.6552,-78.8338 538.6634,-72.1281"/>
</g>
<!-- Node11 -->
<g id="node12" class="node">
<title>Node11</title>
<g id="a_node12"><a xlink:href="Span_8h.html" target="_top" xlink:title="iDynTree/Core/Span.h">
<polygon fill="none" stroke="#000000" points="632.5,-56.5 632.5,-75.5 753.5,-75.5 753.5,-56.5 632.5,-56.5"/>
<text text-anchor="middle" x="693" y="-63.5" font-family="FreeSans.ttf" font-size="10.00" fill="#000000">iDynTree/Core/Span.h</text>
</a>
</g>
</g>
<!-- Node10&#45;&gt;Node11 -->
<g id="edge15" class="edge">
<title>Node10&#45;&gt;Node11</title>
<path fill="none" stroke="#191970" d="M693,-112.2455C693,-104.9382 693,-94.6944 693,-85.7046"/>
<polygon fill="#191970" stroke="#191970" points="696.5001,-85.6426 693,-75.6427 689.5001,-85.6427 696.5001,-85.6426"/>
</g>
<!-- Node11&#45;&gt;Node5 -->
<g id="edge19" class="edge">
<title>Node11&#45;&gt;Node5</title>
<path fill="none" stroke="#191970" d="M632.3506,-57.0352C573.6045,-48.1971 482.0555,-34.0157 403,-20 398.4288,-19.1896 393.6349,-18.301 388.8925,-17.3983"/>
<polygon fill="#191970" stroke="#191970" points="389.1822,-13.8895 378.6992,-15.4248 387.8516,-20.7619 389.1822,-13.8895"/>
</g>
<!-- Node12 -->
<g id="node13" class="node">
<title>Node12</title>
<polygon fill="none" stroke="#bfbfbf" points="922,-.5 922,-19.5 974,-19.5 974,-.5 922,-.5"/>
<text text-anchor="middle" x="948" y="-7.5" font-family="FreeSans.ttf" font-size="10.00" fill="#000000">cassert</text>
</g>
<!-- Node11&#45;&gt;Node12 -->
<g id="edge16" class="edge">
<title>Node11&#45;&gt;Node12</title>
<path fill="none" stroke="#191970" d="M743.9163,-56.4363C786.3858,-48.215 848.6965,-35.5892 911.5859,-20.2284"/>
<polygon fill="#191970" stroke="#191970" points="912.8096,-23.5316 921.6812,-17.7399 911.1342,-16.735 912.8096,-23.5316"/>
</g>
<!-- Node13 -->
<g id="node14" class="node">
<title>Node13</title>
<polygon fill="none" stroke="#bfbfbf" points="475,-.5 475,-19.5 539,-19.5 539,-.5 475,-.5"/>
<text text-anchor="middle" x="507" y="-7.5" font-family="FreeSans.ttf" font-size="10.00" fill="#000000">algorithm</text>
</g>
<!-- Node11&#45;&gt;Node13 -->
<g id="edge17" class="edge">
<title>Node11&#45;&gt;Node13</title>
<path fill="none" stroke="#191970" d="M661.0255,-56.3733C629.8287,-46.9807 582.229,-32.6496 548.2068,-22.4064"/>
<polygon fill="#191970" stroke="#191970" points="549.1418,-19.0327 538.5573,-19.5011 547.1237,-25.7355 549.1418,-19.0327"/>
</g>
<!-- Node14 -->
<g id="node15" class="node">
<title>Node14</title>
<polygon fill="none" stroke="#bfbfbf" points="557,-.5 557,-19.5 599,-19.5 599,-.5 557,-.5"/>
<text text-anchor="middle" x="578" y="-7.5" font-family="FreeSans.ttf" font-size="10.00" fill="#000000">array</text>
</g>
<!-- Node11&#45;&gt;Node14 -->
<g id="edge18" class="edge">
<title>Node11&#45;&gt;Node14</title>
<path fill="none" stroke="#191970" d="M673.2308,-56.3733C654.8531,-47.4241 627.2688,-33.9917 606.5107,-23.8835"/>
<polygon fill="#191970" stroke="#191970" points="608.0343,-20.7325 597.5112,-19.5011 604.9696,-27.026 608.0343,-20.7325"/>
</g>
<!-- Node15 -->
<g id="node16" class="node">
<title>Node15</title>
<polygon fill="none" stroke="#bfbfbf" points="617.5,-.5 617.5,-19.5 670.5,-19.5 670.5,-.5 617.5,-.5"/>
<text text-anchor="middle" x="644" y="-7.5" font-family="FreeSans.ttf" font-size="10.00" fill="#000000">iterator</text>
</g>
<!-- Node11&#45;&gt;Node15 -->
<g id="edge20" class="edge">
<title>Node11&#45;&gt;Node15</title>
<path fill="none" stroke="#191970" d="M684.4649,-56.2455C677.5088,-48.2958 667.5117,-36.8706 659.1949,-27.3656"/>
<polygon fill="#191970" stroke="#191970" points="661.6564,-24.8637 652.4373,-19.6427 656.3884,-29.4732 661.6564,-24.8637"/>
</g>
<!-- Node16 -->
<g id="node17" class="node">
<title>Node16</title>
<polygon fill="none" stroke="#bfbfbf" points="689,-.5 689,-19.5 733,-19.5 733,-.5 689,-.5"/>
<text text-anchor="middle" x="711" y="-7.5" font-family="FreeSans.ttf" font-size="10.00" fill="#000000">limits</text>
</g>
<!-- Node11&#45;&gt;Node16 -->
<g id="edge21" class="edge">
<title>Node11&#45;&gt;Node16</title>
<path fill="none" stroke="#191970" d="M696.1354,-56.2455C698.51,-48.8579 701.8493,-38.4689 704.7615,-29.4087"/>
<polygon fill="#191970" stroke="#191970" points="708.1725,-30.234 707.9006,-19.6427 701.5083,-28.0919 708.1725,-30.234"/>
</g>
<!-- Node17 -->
<g id="node18" class="node">
<title>Node17</title>
<polygon fill="none" stroke="#bfbfbf" points="751.5,-.5 751.5,-19.5 816.5,-19.5 816.5,-.5 751.5,-.5"/>
<text text-anchor="middle" x="784" y="-7.5" font-family="FreeSans.ttf" font-size="10.00" fill="#000000">stdexcept</text>
</g>
<!-- Node11&#45;&gt;Node17 -->
<g id="edge22" class="edge">
<title>Node11&#45;&gt;Node17</title>
<path fill="none" stroke="#191970" d="M708.851,-56.2455C722.8132,-47.6534 743.3728,-35.0014 759.4596,-25.1018"/>
<polygon fill="#191970" stroke="#191970" points="761.6484,-27.8645 768.3307,-19.6427 757.9797,-21.9029 761.6484,-27.8645"/>
</g>
<!-- Node18 -->
<g id="node19" class="node">
<title>Node18</title>
<polygon fill="none" stroke="#bfbfbf" points="834.5,-.5 834.5,-19.5 903.5,-19.5 903.5,-.5 834.5,-.5"/>
<text text-anchor="middle" x="869" y="-7.5" font-family="FreeSans.ttf" font-size="10.00" fill="#000000">type_traits</text>
</g>
<!-- Node11&#45;&gt;Node18 -->
<g id="edge23" class="edge">
<title>Node11&#45;&gt;Node18</title>
<path fill="none" stroke="#191970" d="M723.2555,-56.3733C752.6483,-47.021 797.4292,-32.7725 829.5934,-22.5385"/>
<polygon fill="#191970" stroke="#191970" points="830.6713,-25.8685 839.1393,-19.5011 828.5488,-19.198 830.6713,-25.8685"/>
</g>
<!-- Node19 -->
<g id="node20" class="node">
<title>Node19</title>
<polygon fill="none" stroke="#bfbfbf" points="411.5,-.5 411.5,-19.5 456.5,-19.5 456.5,-.5 411.5,-.5"/>
<text text-anchor="middle" x="434" y="-7.5" font-family="FreeSans.ttf" font-size="10.00" fill="#000000">utility</text>
</g>
<!-- Node11&#45;&gt;Node19 -->
<g id="edge24" class="edge">
<title>Node11&#45;&gt;Node19</title>
<path fill="none" stroke="#191970" d="M637.5944,-56.4209C593.6636,-48.4516 530.5598,-36.1764 466.5116,-19.9264"/>
<polygon fill="#191970" stroke="#191970" points="467.1992,-16.4894 456.6429,-17.3924 465.4583,-23.2695 467.1992,-16.4894"/>
</g>
<!-- Node20&#45;&gt;Node3 -->
<g id="edge27" class="edge">
<title>Node20&#45;&gt;Node3</title>
<path fill="none" stroke="#191970" d="M429.1675,-280.2129C415.8772,-251.7728 381.9541,-167.6364 416,-112 428.5366,-91.5132 453.3957,-79.7836 473.8165,-73.3035"/>
<polygon fill="#191970" stroke="#191970" points="475.0673,-76.5855 483.7059,-70.4516 473.1276,-69.8595 475.0673,-76.5855"/>
</g>
<!-- Node21&#45;&gt;Node3 -->
<g id="edge56" class="edge">
<title>Node21&#45;&gt;Node3</title>
<path fill="none" stroke="#191970" d="M621.7021,-336.3854C605.5286,-327.8911 582.2252,-314.6092 564,-300 514.6056,-260.4058 493.452,-248.8517 476,-188 466.6881,-155.5312 466.3751,-144.3775 476,-112 479.0326,-101.7984 485.1244,-91.7475 491.0309,-83.6555"/>
<polygon fill="#191970" stroke="#191970" points="493.823,-85.7667 497.2139,-75.7291 488.3036,-81.4613 493.823,-85.7667"/>
</g>
<!-- Node22 -->
<g id="node23" class="node">
<title>Node22</title>
<g id="a_node23"><a xlink:href="Position_8h.html" target="_top" xlink:title="iDynTree/Core/Position.h">
<polygon fill="none" stroke="#000000" points="573,-280.5 573,-299.5 709,-299.5 709,-280.5 573,-280.5"/>
<text text-anchor="middle" x="641" y="-287.5" font-family="FreeSans.ttf" font-size="10.00" fill="#000000">iDynTree/Core/Position.h</text>
</a>
</g>
</g>
<!-- Node21&#45;&gt;Node22 -->
<g id="edge29" class="edge">
<title>Node21&#45;&gt;Node22</title>
<path fill="none" stroke="#191970" d="M641,-336.2455C641,-328.9382 641,-318.6944 641,-309.7046"/>
<polygon fill="#191970" stroke="#191970" points="644.5001,-309.6426 641,-299.6427 637.5001,-309.6427 644.5001,-309.6426"/>
</g>
<!-- Node27 -->
<g id="node28" class="node">
<title>Node27</title>
<g id="a_node28"><a xlink:href="Rotation_8h.html" target="_top" xlink:title="iDynTree/Core/Rotation.h">
<polygon fill="none" stroke="#000000" points="659.5,-224.5 659.5,-243.5 796.5,-243.5 796.5,-224.5 659.5,-224.5"/>
<text text-anchor="middle" x="728" y="-231.5" font-family="FreeSans.ttf" font-size="10.00" fill="#000000">iDynTree/Core/Rotation.h</text>
</a>
</g>
</g>
<!-- Node21&#45;&gt;Node27 -->
<g id="edge54" class="edge">
<title>Node21&#45;&gt;Node27</title>
<path fill="none" stroke="#191970" d="M668.8695,-336.4189C685.816,-329.1146 706.3678,-317.3232 718,-300 727.074,-286.4866 729.2013,-267.9346 729.2731,-253.9404"/>
<polygon fill="#191970" stroke="#191970" points="732.7698,-253.773 728.9834,-243.8779 725.7727,-253.9745 732.7698,-253.773"/>
</g>
<!-- Node30 -->
<g id="node31" class="node">
<title>Node30</title>
<g id="a_node31"><a xlink:href="MatrixFixSize_8h.html" target="_top" xlink:title="iDynTree/Core/MatrixFixSize.h">
<polygon fill="none" stroke="#000000" points="973.5,-112.5 973.5,-131.5 1134.5,-131.5 1134.5,-112.5 973.5,-112.5"/>
<text text-anchor="middle" x="1054" y="-119.5" font-family="FreeSans.ttf" font-size="10.00" fill="#000000">iDynTree/Core/MatrixFixSize.h</text>
</a>
</g>
</g>
<!-- Node21&#45;&gt;Node30 -->
<g id="edge55" class="edge">
<title>Node21&#45;&gt;Node30</title>
<path fill="none" stroke="#191970" d="M689.3276,-336.4741C796.1216,-314.3409 1046.5883,-256.1078 1095,-188 1106.713,-171.5217 1090.6584,-151.7163 1075.3347,-138.1274"/>
<polygon fill="#191970" stroke="#191970" points="1077.464,-135.3459 1067.539,-131.6385 1072.9858,-140.726 1077.464,-135.3459"/>
</g>
<!-- Node22&#45;&gt;Node3 -->
<g id="edge53" class="edge">
<title>Node22&#45;&gt;Node3</title>
<path fill="none" stroke="#191970" d="M611.8478,-280.4393C575.0588,-266.613 513.4033,-237.1575 487,-188 469.1704,-154.805 484.7842,-109.6756 496.3202,-84.652"/>
<polygon fill="#191970" stroke="#191970" points="499.527,-86.0608 500.7581,-75.5377 493.2335,-82.9964 499.527,-86.0608"/>
</g>
<!-- Node23 -->
<g id="node24" class="node">
<title>Node23</title>
<g id="a_node24"><a xlink:href="PositionRaw_8h.html" target="_top" xlink:title="iDynTree/Core/PositionRaw.h">
<polygon fill="none" stroke="#000000" points="496,-168.5 496,-187.5 652,-187.5 652,-168.5 496,-168.5"/>
<text text-anchor="middle" x="574" y="-175.5" font-family="FreeSans.ttf" font-size="10.00" fill="#000000">iDynTree/Core/PositionRaw.h</text>
</a>
</g>
</g>
<!-- Node22&#45;&gt;Node23 -->
<g id="edge30" class="edge">
<title>Node22&#45;&gt;Node23</title>
<path fill="none" stroke="#191970" d="M635.2876,-280.4509C624.1623,-261.8533 599.4192,-220.4919 585.005,-196.3964"/>
<polygon fill="#191970" stroke="#191970" points="587.8352,-194.3098 579.6979,-187.5249 581.8281,-197.9034 587.8352,-194.3098"/>
</g>
<!-- Node22&#45;&gt;Node27 -->
<g id="edge39" class="edge">
<title>Node22&#45;&gt;Node27</title>
<path fill="none" stroke="#191970" d="M656.1542,-280.2455C669.5027,-271.6534 689.1586,-259.0014 704.5383,-249.1018"/>
<polygon fill="#191970" stroke="#191970" points="706.5051,-251.9982 713.0194,-243.6427 702.7164,-246.1121 706.5051,-251.9982"/>
</g>
<!-- Node23&#45;&gt;Node3 -->
<g id="edge38" class="edge">
<title>Node23&#45;&gt;Node3</title>
<path fill="none" stroke="#191970" d="M562.5044,-168.4572C552.7149,-159.8095 538.8655,-146.2679 530,-132 520.9621,-117.4546 514.6171,-99.003 510.7307,-85.3097"/>
<polygon fill="#191970" stroke="#191970" points="514.0799,-84.2844 508.1364,-75.5137 507.3131,-86.0765 514.0799,-84.2844"/>
</g>
<!-- Node24 -->
<g id="node25" class="node">
<title>Node24</title>
<g id="a_node25"><a xlink:href="VectorFixSize_8h.html" target="_top" xlink:title="iDynTree/Core/VectorFixSize.h">
<polygon fill="none" stroke="#000000" points="794.5,-112.5 794.5,-131.5 955.5,-131.5 955.5,-112.5 794.5,-112.5"/>
<text text-anchor="middle" x="875" y="-119.5" font-family="FreeSans.ttf" font-size="10.00" fill="#000000">iDynTree/Core/VectorFixSize.h</text>
</a>
</g>
</g>
<!-- Node23&#45;&gt;Node24 -->
<g id="edge31" class="edge">
<title>Node23&#45;&gt;Node24</title>
<path fill="none" stroke="#191970" d="M625.4017,-168.4369C677.5649,-158.7321 758.3197,-143.708 813.7646,-133.3926"/>
<polygon fill="#191970" stroke="#191970" points="814.6192,-136.7938 823.8103,-131.5237 813.3388,-129.9119 814.6192,-136.7938"/>
</g>
<!-- Node24&#45;&gt;Node3 -->
<g id="edge34" class="edge">
<title>Node24&#45;&gt;Node3</title>
<path fill="none" stroke="#191970" d="M811.9859,-112.4369C732.7595,-100.4134 599.7319,-80.2249 538.5639,-70.942"/>
<polygon fill="#191970" stroke="#191970" points="538.7624,-67.4321 528.3505,-69.3919 537.7121,-74.3528 538.7624,-67.4321"/>
</g>
<!-- Node24&#45;&gt;Node4 -->
<g id="edge32" class="edge">
<title>Node24&#45;&gt;Node4</title>
<path fill="none" stroke="#191970" d="M794.4723,-112.929C791.6132,-112.6142 788.7822,-112.3037 786,-112 657.5265,-97.974 507.588,-82.2179 421.82,-73.2636"/>
<polygon fill="#191970" stroke="#191970" points="421.9937,-69.7628 411.6844,-72.2059 421.2671,-76.725 421.9937,-69.7628"/>
</g>
<!-- Node24&#45;&gt;Node11 -->
<g id="edge33" class="edge">
<title>Node24&#45;&gt;Node11</title>
<path fill="none" stroke="#191970" d="M843.7131,-112.3733C813.3182,-103.021 767.0107,-88.7725 733.75,-78.5385"/>
<polygon fill="#191970" stroke="#191970" points="734.4658,-75.0968 723.8786,-75.5011 732.4071,-81.7873 734.4658,-75.0968"/>
</g>
<!-- Node24&#45;&gt;Node12 -->
<g id="edge36" class="edge">
<title>Node24&#45;&gt;Node12</title>
<path fill="none" stroke="#191970" d="M871.7803,-112.3113C867.8933,-98.7585 863.033,-73.8054 873,-56 881.5883,-40.6575 897.6169,-29.812 912.6583,-22.5214"/>
<polygon fill="#191970" stroke="#191970" points="914.1149,-25.7041 921.8208,-18.4329 911.2624,-19.3117 914.1149,-25.7041"/>
</g>
<!-- Node25 -->
<g id="node26" class="node">
<title>Node25</title>
<polygon fill="none" stroke="#bfbfbf" points="882,-56.5 882,-75.5 938,-75.5 938,-56.5 882,-56.5"/>
<text text-anchor="middle" x="910" y="-63.5" font-family="FreeSans.ttf" font-size="10.00" fill="#000000">sstream</text>
</g>
<!-- Node24&#45;&gt;Node25 -->
<g id="edge35" class="edge">
<title>Node24&#45;&gt;Node25</title>
<path fill="none" stroke="#191970" d="M881.0965,-112.2455C885.9145,-104.5367 892.7751,-93.5598 898.6032,-84.2348"/>
<polygon fill="#191970" stroke="#191970" points="901.6413,-85.9777 903.9733,-75.6427 895.7053,-82.2677 901.6413,-85.9777"/>
</g>
<!-- Node26 -->
<g id="node27" class="node">
<title>Node26</title>
<polygon fill="none" stroke="#bfbfbf" points="956,-56.5 956,-75.5 1006,-75.5 1006,-56.5 956,-56.5"/>
<text text-anchor="middle" x="981" y="-63.5" font-family="FreeSans.ttf" font-size="10.00" fill="#000000">cstring</text>
</g>
<!-- Node24&#45;&gt;Node26 -->
<g id="edge37" class="edge">
<title>Node24&#45;&gt;Node26</title>
<path fill="none" stroke="#191970" d="M893.4638,-112.2455C910.1074,-103.4527 934.7993,-90.4079 953.7192,-80.4125"/>
<polygon fill="#191970" stroke="#191970" points="955.5408,-83.4086 962.7478,-75.6427 952.2709,-77.2193 955.5408,-83.4086"/>
</g>
<!-- Node27&#45;&gt;Node3 -->
<g id="edge40" class="edge">
<title>Node27&#45;&gt;Node3</title>
<path fill="none" stroke="#191970" d="M720.3743,-224.1318C708.9073,-209.9008 685.8986,-183.615 661,-168 620.6274,-142.6807 598.9583,-159.4457 560,-132 542.1291,-119.4102 526.9088,-99.3868 517.2268,-84.6933"/>
<polygon fill="#191970" stroke="#191970" points="519.9942,-82.5209 511.6918,-75.9389 514.0775,-86.2617 519.9942,-82.5209"/>
</g>
<!-- Node27&#45;&gt;Node24 -->
<g id="edge52" class="edge">
<title>Node27&#45;&gt;Node24</title>
<path fill="none" stroke="#191970" d="M726.5734,-224.2266C725.0901,-210.1137 724.5835,-183.9735 738,-168 749.0886,-154.7981 787.7558,-142.5135 821.1947,-133.9662"/>
<polygon fill="#191970" stroke="#191970" points="822.0545,-137.3591 830.9128,-131.547 820.3635,-130.5664 822.0545,-137.3591"/>
</g>
<!-- Node28 -->
<g id="node29" class="node">
<title>Node28</title>
<g id="a_node29"><a xlink:href="GeomVector3_8h.html" target="_top" xlink:title="iDynTree/Core/GeomVector3.h">
<polygon fill="none" stroke="#000000" points="746.5,-168.5 746.5,-187.5 909.5,-187.5 909.5,-168.5 746.5,-168.5"/>
<text text-anchor="middle" x="828" y="-175.5" font-family="FreeSans.ttf" font-size="10.00" fill="#000000">iDynTree/Core/GeomVector3.h</text>
</a>
</g>
</g>
<!-- Node27&#45;&gt;Node28 -->
<g id="edge41" class="edge">
<title>Node27&#45;&gt;Node28</title>
<path fill="none" stroke="#191970" d="M745.4187,-224.2455C761.0485,-215.4928 784.2019,-202.527 802.0185,-192.5496"/>
<polygon fill="#191970" stroke="#191970" points="803.766,-195.5825 810.7809,-187.6427 800.3457,-189.475 803.766,-195.5825"/>
</g>
<!-- Node29 -->
<g id="node30" class="node">
<title>Node29</title>
<g id="a_node30"><a xlink:href="RotationRaw_8h.html" target="_top" xlink:title="iDynTree/Core/RotationRaw.h">
<polygon fill="none" stroke="#000000" points="928,-168.5 928,-187.5 1086,-187.5 1086,-168.5 928,-168.5"/>
<text text-anchor="middle" x="1007" y="-175.5" font-family="FreeSans.ttf" font-size="10.00" fill="#000000">iDynTree/Core/RotationRaw.h</text>
</a>
</g>
</g>
<!-- Node27&#45;&gt;Node29 -->
<g id="edge43" class="edge">
<title>Node27&#45;&gt;Node29</title>
<path fill="none" stroke="#191970" d="M775.6448,-224.4369C823.7947,-214.7724 898.2271,-199.8326 949.5993,-189.5213"/>
<polygon fill="#191970" stroke="#191970" points="950.4361,-192.9232 959.5517,-187.5237 949.0585,-186.0601 950.4361,-192.9232"/>
</g>
<!-- Node28&#45;&gt;Node24 -->
<g id="edge42" class="edge">
<title>Node28&#45;&gt;Node24</title>
<path fill="none" stroke="#191970" d="M836.1868,-168.2455C842.8589,-160.2958 852.4479,-148.8706 860.4253,-139.3656"/>
<polygon fill="#191970" stroke="#191970" points="863.1592,-141.5525 866.907,-131.6427 857.7974,-137.0524 863.1592,-141.5525"/>
</g>
<!-- Node29&#45;&gt;Node3 -->
<g id="edge51" class="edge">
<title>Node29&#45;&gt;Node3</title>
<path fill="none" stroke="#191970" d="M927.8461,-169.0036C924.8595,-168.6647 921.9028,-168.3292 919,-168 777.6701,-151.9701 734.1205,-182.1003 601,-132 571.2794,-120.8146 542.0295,-98.2665 524.0079,-82.6602"/>
<polygon fill="#191970" stroke="#191970" points="525.9085,-79.6667 516.11,-75.6368 521.2568,-84.8975 525.9085,-79.6667"/>
</g>
<!-- Node29&#45;&gt;Node30 -->
<g id="edge44" class="edge">
<title>Node29&#45;&gt;Node30</title>
<path fill="none" stroke="#191970" d="M1015.1868,-168.2455C1021.8589,-160.2958 1031.4479,-148.8706 1039.4253,-139.3656"/>
<polygon fill="#191970" stroke="#191970" points="1042.1592,-141.5525 1045.907,-131.6427 1036.7974,-137.0524 1042.1592,-141.5525"/>
</g>
<!-- Node30&#45;&gt;Node3 -->
<g id="edge48" class="edge">
<title>Node30&#45;&gt;Node3</title>
<path fill="none" stroke="#191970" d="M973.4745,-112.9084C970.6148,-112.5994 967.7831,-112.2958 965,-112 805.2198,-95.0178 613.9591,-76.4001 538.702,-69.1413"/>
<polygon fill="#191970" stroke="#191970" points="538.7474,-65.6295 528.4578,-68.1543 538.076,-72.5973 538.7474,-65.6295"/>
</g>
<!-- Node30&#45;&gt;Node4 -->
<g id="edge45" class="edge">
<title>Node30&#45;&gt;Node4</title>
<path fill="none" stroke="#191970" d="M973.4841,-112.8125C970.6216,-112.5307 967.7868,-112.2588 965,-112 747.5711,-91.8053 692.7139,-92.8476 475,-76 457.7687,-74.6666 439.1838,-73.1806 421.8092,-71.7705"/>
<polygon fill="#191970" stroke="#191970" points="421.9896,-68.2737 411.7386,-70.9508 421.4216,-75.2506 421.9896,-68.2737"/>
</g>
<!-- Node30&#45;&gt;Node12 -->
<g id="edge46" class="edge">
<title>Node30&#45;&gt;Node12</title>
<path fill="none" stroke="#191970" d="M1066.8245,-112.4546C1082.9433,-99.2836 1106.913,-75.0101 1093,-56 1080.0062,-38.2459 1022.5076,-24.117 983.9377,-16.4148"/>
<polygon fill="#191970" stroke="#191970" points="984.58,-12.9742 974.0965,-14.5059 983.247,-19.8461 984.58,-12.9742"/>
</g>
<!-- Node30&#45;&gt;Node25 -->
<g id="edge50" class="edge">
<title>Node30&#45;&gt;Node25</title>
<path fill="none" stroke="#191970" d="M1029.2455,-112.3733C1005.7151,-103.2226 970.1313,-89.3844 943.9574,-79.2057"/>
<polygon fill="#191970" stroke="#191970" points="945.0201,-75.8636 934.4315,-75.5011 942.4829,-82.3877 945.0201,-75.8636"/>
</g>
<!-- Node30&#45;&gt;Node26 -->
<g id="edge47" class="edge">
<title>Node30&#45;&gt;Node26</title>
<path fill="none" stroke="#191970" d="M1041.2844,-112.2455C1030.398,-103.8943 1014.5117,-91.7076 1001.78,-81.9408"/>
<polygon fill="#191970" stroke="#191970" points="1003.6346,-78.9523 993.5699,-75.6427 999.3739,-84.5063 1003.6346,-78.9523"/>
</g>
<!-- Node31 -->
<g id="node32" class="node">
<title>Node31</title>
<polygon fill="none" stroke="#bfbfbf" points="1024,-56.5 1024,-75.5 1084,-75.5 1084,-56.5 1024,-56.5"/>
<text text-anchor="middle" x="1054" y="-63.5" font-family="FreeSans.ttf" font-size="10.00" fill="#000000">iostream</text>
</g>
<!-- Node30&#45;&gt;Node31 -->
<g id="edge49" class="edge">
<title>Node30&#45;&gt;Node31</title>
<path fill="none" stroke="#191970" d="M1054,-112.2455C1054,-104.9382 1054,-94.6944 1054,-85.7046"/>
<polygon fill="#191970" stroke="#191970" points="1057.5001,-85.6426 1054,-75.6427 1050.5001,-85.6427 1057.5001,-85.6426"/>
</g>
</g>
</svg>
