<?xml version="1.0" encoding="UTF-8" standalone="no"?>
<!DOCTYPE svg PUBLIC "-//W3C//DTD SVG 1.1//EN"
 "http://www.w3.org/Graphics/SVG/1.1/DTD/svg11.dtd">
<!-- Generated by graphviz version 2.40.1 (20161225.0304)
 -->
<!-- Title: OptimalControl.h Pages: 1 -->
<svg width="1364pt" height="532pt"
 viewBox="0.00 0.00 1364.00 532.00" xmlns="http://www.w3.org/2000/svg" xmlns:xlink="http://www.w3.org/1999/xlink">
<g id="graph0" class="graph" transform="scale(1 1) rotate(0) translate(4 528)">
<title>OptimalControl.h</title>
<!-- Node0 -->
<g id="node1" class="node">
<title>Node0</title>
<polygon fill="#bfbfbf" stroke="#000000" points="855.5,-504.5 855.5,-523.5 955.5,-523.5 955.5,-504.5 855.5,-504.5"/>
<text text-anchor="middle" x="905.5" y="-511.5" font-family="FreeSans.ttf" font-size="10.00" fill="#000000">OptimalControl.h</text>
</g>
<!-- Node1 -->
<g id="node2" class="node">
<title>Node1</title>
<g id="a_node2"><a xlink:href="DynamicalSystem_8h.html" target="_top" xlink:title="iDynTree/DynamicalSystem.h">
<polygon fill="none" stroke="#000000" points="483,-392.5 483,-411.5 644,-411.5 644,-392.5 483,-392.5"/>
<text text-anchor="middle" x="563.5" y="-399.5" font-family="FreeSans.ttf" font-size="10.00" fill="#000000">iDynTree/DynamicalSystem.h</text>
</a>
</g>
</g>
<!-- Node0&#45;&gt;Node1 -->
<g id="edge1" class="edge">
<title>Node0&#45;&gt;Node1</title>
<path fill="none" stroke="#191970" d="M855.2693,-507.9873C791.0543,-499.7961 683.8312,-484.277 647.5,-468 621.2684,-456.2477 596.0108,-434.5351 580.1623,-419.2296"/>
<polygon fill="#191970" stroke="#191970" points="582.3392,-416.4588 572.7769,-411.8966 577.4071,-421.4262 582.3392,-416.4588"/>
</g>
<!-- Node19 -->
<g id="node20" class="node">
<title>Node19</title>
<g id="a_node20"><a xlink:href="LinearSystem_8h.html" target="_top" xlink:title="iDynTree/LinearSystem.h">
<polygon fill="none" stroke="#000000" points="656.5,-448.5 656.5,-467.5 794.5,-467.5 794.5,-448.5 656.5,-448.5"/>
<text text-anchor="middle" x="725.5" y="-455.5" font-family="FreeSans.ttf" font-size="10.00" fill="#000000">iDynTree/LinearSystem.h</text>
</a>
</g>
</g>
<!-- Node0&#45;&gt;Node19 -->
<g id="edge22" class="edge">
<title>Node0&#45;&gt;Node19</title>
<path fill="none" stroke="#191970" d="M874.5569,-504.3733C844.4961,-495.021 798.6974,-480.7725 765.8022,-470.5385"/>
<polygon fill="#191970" stroke="#191970" points="766.6277,-467.1299 756.0393,-467.5011 764.5481,-473.8139 766.6277,-467.1299"/>
</g>
<!-- Node34 -->
<g id="node35" class="node">
<title>Node34</title>
<g id="a_node35"><a xlink:href="Constraint_8h.html" target="_top" xlink:title="iDynTree/Constraint.h">
<polygon fill="none" stroke="#000000" points="327.5,-392.5 327.5,-411.5 449.5,-411.5 449.5,-392.5 327.5,-392.5"/>
<text text-anchor="middle" x="388.5" y="-399.5" font-family="FreeSans.ttf" font-size="10.00" fill="#000000">iDynTree/Constraint.h</text>
</a>
</g>
</g>
<!-- Node0&#45;&gt;Node34 -->
<g id="edge59" class="edge">
<title>Node0&#45;&gt;Node34</title>
<path fill="none" stroke="#191970" d="M855.4417,-508.2214C796.6262,-500.9596 696.2992,-487.0943 611.5,-468 545.3578,-453.1067 470.0393,-429.3548 426.0406,-414.7736"/>
<polygon fill="#191970" stroke="#191970" points="426.9417,-411.3846 416.348,-411.5416 424.7274,-418.0252 426.9417,-411.3846"/>
</g>
<!-- Node35 -->
<g id="node36" class="node">
<title>Node35</title>
<g id="a_node36"><a xlink:href="ConstraintsGroup_8h.html" target="_top" xlink:title="iDynTree/ConstraintsGroup.h">
<polygon fill="none" stroke="#000000" points="1016.5,-448.5 1016.5,-467.5 1172.5,-467.5 1172.5,-448.5 1016.5,-448.5"/>
<text text-anchor="middle" x="1094.5" y="-455.5" font-family="FreeSans.ttf" font-size="10.00" fill="#000000">iDynTree/ConstraintsGroup.h</text>
</a>
</g>
</g>
<!-- Node0&#45;&gt;Node35 -->
<g id="edge64" class="edge">
<title>Node0&#45;&gt;Node35</title>
<path fill="none" stroke="#191970" d="M937.9903,-504.3733C969.6902,-494.9807 1018.0576,-480.6496 1052.6286,-470.4064"/>
<polygon fill="#191970" stroke="#191970" points="1053.8401,-473.6979 1062.4337,-467.5011 1051.8514,-466.9863 1053.8401,-473.6979"/>
</g>
<!-- Node36 -->
<g id="node37" class="node">
<title>Node36</title>
<g id="a_node37"><a xlink:href="Cost_8h.html" target="_top" xlink:title="iDynTree/Cost.h">
<polygon fill="none" stroke="#000000" points="1154,-392.5 1154,-411.5 1247,-411.5 1247,-392.5 1154,-392.5"/>
<text text-anchor="middle" x="1200.5" y="-399.5" font-family="FreeSans.ttf" font-size="10.00" fill="#000000">iDynTree/Cost.h</text>
</a>
</g>
</g>
<!-- Node0&#45;&gt;Node36 -->
<g id="edge69" class="edge">
<title>Node0&#45;&gt;Node36</title>
<path fill="none" stroke="#191970" d="M955.6948,-511.9182C1026.0104,-507.9802 1148.903,-497.044 1181.5,-468 1194.4114,-456.4959 1198.7916,-436.8436 1200.163,-421.9678"/>
<polygon fill="#191970" stroke="#191970" points="1203.671,-421.9118 1200.7166,-411.7373 1196.6812,-421.5335 1203.671,-421.9118"/>
</g>
<!-- Node37 -->
<g id="node38" class="node">
<title>Node37</title>
<g id="a_node38"><a xlink:href="OptimalControlProblem_8h.html" target="_top" xlink:title="iDynTree/OptimalControlProblem.h">
<polygon fill="none" stroke="#000000" points="812.5,-448.5 812.5,-467.5 998.5,-467.5 998.5,-448.5 812.5,-448.5"/>
<text text-anchor="middle" x="905.5" y="-455.5" font-family="FreeSans.ttf" font-size="10.00" fill="#000000">iDynTree/OptimalControlProblem.h</text>
</a>
</g>
</g>
<!-- Node0&#45;&gt;Node37 -->
<g id="edge72" class="edge">
<title>Node0&#45;&gt;Node37</title>
<path fill="none" stroke="#191970" d="M905.5,-504.2455C905.5,-496.9382 905.5,-486.6944 905.5,-477.7046"/>
<polygon fill="#191970" stroke="#191970" points="909.0001,-477.6426 905.5,-467.6427 902.0001,-477.6427 909.0001,-477.6426"/>
</g>
<!-- Node38 -->
<g id="node39" class="node">
<title>Node38</title>
<g id="a_node39"><a xlink:href="TimeRange_8h.html" target="_top" xlink:title="iDynTree/TimeRange.h">
<polygon fill="none" stroke="#000000" points="1229,-448.5 1229,-467.5 1356,-467.5 1356,-448.5 1229,-448.5"/>
<text text-anchor="middle" x="1292.5" y="-455.5" font-family="FreeSans.ttf" font-size="10.00" fill="#000000">iDynTree/TimeRange.h</text>
</a>
</g>
</g>
<!-- Node0&#45;&gt;Node38 -->
<g id="edge79" class="edge">
<title>Node0&#45;&gt;Node38</title>
<path fill="none" stroke="#191970" d="M955.6967,-506.7364C1022.6361,-497.0501 1141.63,-479.8313 1218.7694,-468.669"/>
<polygon fill="#191970" stroke="#191970" points="1219.5023,-472.0995 1228.8979,-467.2034 1218.4998,-465.1717 1219.5023,-472.0995"/>
</g>
<!-- Node2 -->
<g id="node3" class="node">
<title>Node2</title>
<g id="a_node3"><a xlink:href="VectorDynSize_8h.html" target="_top" xlink:title="iDynTree/Core/VectorDynSize.h">
<polygon fill="none" stroke="#000000" points="305,-336.5 305,-355.5 472,-355.5 472,-336.5 305,-336.5"/>
<text text-anchor="middle" x="388.5" y="-343.5" font-family="FreeSans.ttf" font-size="10.00" fill="#000000">iDynTree/Core/VectorDynSize.h</text>
</a>
</g>
</g>
<!-- Node1&#45;&gt;Node2 -->
<g id="edge2" class="edge">
<title>Node1&#45;&gt;Node2</title>
<path fill="none" stroke="#191970" d="M533.4164,-392.3733C504.3166,-383.0613 460.0477,-368.8953 428.097,-358.671"/>
<polygon fill="#191970" stroke="#191970" points="428.782,-355.2155 418.191,-355.5011 426.6485,-361.8824 428.782,-355.2155"/>
</g>
<!-- Node14 -->
<g id="node15" class="node">
<title>Node14</title>
<g id="a_node15"><a xlink:href="SparsityStructure_8h.html" target="_top" xlink:title="iDynTree/SparsityStructure.h">
<polygon fill="none" stroke="#000000" points="591,-336.5 591,-355.5 746,-355.5 746,-336.5 591,-336.5"/>
<text text-anchor="middle" x="668.5" y="-343.5" font-family="FreeSans.ttf" font-size="10.00" fill="#000000">iDynTree/SparsityStructure.h</text>
</a>
</g>
</g>
<!-- Node1&#45;&gt;Node14 -->
<g id="edge14" class="edge">
<title>Node1&#45;&gt;Node14</title>
<path fill="none" stroke="#191970" d="M581.7896,-392.2455C598.2762,-383.4527 622.7352,-370.4079 641.4765,-360.4125"/>
<polygon fill="#191970" stroke="#191970" points="643.2435,-363.4368 650.42,-355.6427 639.9494,-357.2604 643.2435,-363.4368"/>
</g>
<!-- Node3 -->
<g id="node4" class="node">
<title>Node3</title>
<g id="a_node4"><a xlink:href="Span_8h.html" target="_top" xlink:title="iDynTree/Core/Span.h">
<polygon fill="none" stroke="#000000" points="289,-56.5 289,-75.5 410,-75.5 410,-56.5 289,-56.5"/>
<text text-anchor="middle" x="349.5" y="-63.5" font-family="FreeSans.ttf" font-size="10.00" fill="#000000">iDynTree/Core/Span.h</text>
</a>
</g>
</g>
<!-- Node2&#45;&gt;Node3 -->
<g id="edge3" class="edge">
<title>Node2&#45;&gt;Node3</title>
<path fill="none" stroke="#191970" d="M332.7946,-336.4119C278.6386,-323.5185 204.5,-294.7701 204.5,-234 204.5,-234 204.5,-234 204.5,-178 204.5,-126.0623 263.4876,-94.8153 306.2162,-78.994"/>
<polygon fill="#191970" stroke="#191970" points="307.6118,-82.2129 315.8696,-75.5752 305.2749,-75.6144 307.6118,-82.2129"/>
</g>
<!-- Node13 -->
<g id="node14" class="node">
<title>Node13</title>
<polygon fill="none" stroke="#bfbfbf" points="842.5,-56.5 842.5,-75.5 886.5,-75.5 886.5,-56.5 842.5,-56.5"/>
<text text-anchor="middle" x="864.5" y="-63.5" font-family="FreeSans.ttf" font-size="10.00" fill="#000000">string</text>
</g>
<!-- Node2&#45;&gt;Node13 -->
<g id="edge13" class="edge">
<title>Node2&#45;&gt;Node13</title>
<path fill="none" stroke="#191970" d="M392.5658,-336.4153C399.4295,-321.5405 414.8208,-293.2351 437.5,-280 548.9122,-214.9821 613.3045,-307.6567 725.5,-244 742.8515,-234.1552 820.4681,-127.4597 851.5597,-84.131"/>
<polygon fill="#191970" stroke="#191970" points="854.4739,-86.073 857.4497,-75.9046 848.7824,-81.9979 854.4739,-86.073"/>
</g>
<!-- Node4 -->
<g id="node5" class="node">
<title>Node4</title>
<polygon fill="none" stroke="#bfbfbf" points="679.5,-.5 679.5,-19.5 731.5,-19.5 731.5,-.5 679.5,-.5"/>
<text text-anchor="middle" x="705.5" y="-7.5" font-family="FreeSans.ttf" font-size="10.00" fill="#000000">cassert</text>
</g>
<!-- Node3&#45;&gt;Node4 -->
<g id="edge4" class="edge">
<title>Node3&#45;&gt;Node4</title>
<path fill="none" stroke="#191970" d="M410.0753,-57.3416C501.9651,-44.2003 666.3372,-20.6637 669.5,-20 669.5992,-19.9792 669.6985,-19.9582 669.798,-19.9372"/>
<polygon fill="#191970" stroke="#191970" points="670.3185,-23.4105 679.2495,-17.7106 668.7133,-16.597 670.3185,-23.4105"/>
</g>
<!-- Node5 -->
<g id="node6" class="node">
<title>Node5</title>
<polygon fill="none" stroke="#bfbfbf" points="465.5,-.5 465.5,-19.5 529.5,-19.5 529.5,-.5 465.5,-.5"/>
<text text-anchor="middle" x="497.5" y="-7.5" font-family="FreeSans.ttf" font-size="10.00" fill="#000000">algorithm</text>
</g>
<!-- Node3&#45;&gt;Node5 -->
<g id="edge5" class="edge">
<title>Node3&#45;&gt;Node5</title>
<path fill="none" stroke="#191970" d="M374.9421,-56.3733C399.2326,-47.1822 436.0208,-33.2624 462.9543,-23.0713"/>
<polygon fill="#191970" stroke="#191970" points="464.2757,-26.3136 472.3899,-19.5011 461.7984,-19.7666 464.2757,-26.3136"/>
</g>
<!-- Node6 -->
<g id="node7" class="node">
<title>Node6</title>
<polygon fill="none" stroke="#bfbfbf" points="547.5,-.5 547.5,-19.5 589.5,-19.5 589.5,-.5 547.5,-.5"/>
<text text-anchor="middle" x="568.5" y="-7.5" font-family="FreeSans.ttf" font-size="10.00" fill="#000000">array</text>
</g>
<!-- Node3&#45;&gt;Node6 -->
<g id="edge6" class="edge">
<title>Node3&#45;&gt;Node6</title>
<path fill="none" stroke="#191970" d="M393.31,-56.4225C429.6112,-48.2436 482.7321,-35.7176 537.402,-20.1567"/>
<polygon fill="#191970" stroke="#191970" points="538.6195,-23.4485 547.2629,-17.3212 536.685,-16.7211 538.6195,-23.4485"/>
</g>
<!-- Node7 -->
<g id="node8" class="node">
<title>Node7</title>
<polygon fill="none" stroke="#bfbfbf" points="0,-.5 0,-19.5 53,-19.5 53,-.5 0,-.5"/>
<text text-anchor="middle" x="26.5" y="-7.5" font-family="FreeSans.ttf" font-size="10.00" fill="#000000">cstddef</text>
</g>
<!-- Node3&#45;&gt;Node7 -->
<g id="edge7" class="edge">
<title>Node3&#45;&gt;Node7</title>
<path fill="none" stroke="#191970" d="M288.9079,-57.1045C222.1812,-47.1734 118.1003,-31.2524 63.1437,-19.8976"/>
<polygon fill="#191970" stroke="#191970" points="63.664,-16.4299 53.1533,-17.7619 62.2006,-23.2752 63.664,-16.4299"/>
</g>
<!-- Node8 -->
<g id="node9" class="node">
<title>Node8</title>
<polygon fill="none" stroke="#bfbfbf" points="608,-.5 608,-19.5 661,-19.5 661,-.5 608,-.5"/>
<text text-anchor="middle" x="634.5" y="-7.5" font-family="FreeSans.ttf" font-size="10.00" fill="#000000">iterator</text>
</g>
<!-- Node3&#45;&gt;Node8 -->
<g id="edge8" class="edge">
<title>Node3&#45;&gt;Node8</title>
<path fill="none" stroke="#191970" d="M409.1708,-56.4982C457.5293,-48.4511 527.6076,-36.0086 597.9113,-19.9764"/>
<polygon fill="#191970" stroke="#191970" points="598.8721,-23.3468 607.8307,-17.6905 597.3001,-16.5256 598.8721,-23.3468"/>
</g>
<!-- Node9 -->
<g id="node10" class="node">
<title>Node9</title>
<polygon fill="none" stroke="#bfbfbf" points="169.5,-.5 169.5,-19.5 213.5,-19.5 213.5,-.5 169.5,-.5"/>
<text text-anchor="middle" x="191.5" y="-7.5" font-family="FreeSans.ttf" font-size="10.00" fill="#000000">limits</text>
</g>
<!-- Node3&#45;&gt;Node9 -->
<g id="edge9" class="edge">
<title>Node3&#45;&gt;Node9</title>
<path fill="none" stroke="#191970" d="M322.3388,-56.3733C294.8726,-46.6384 252.4388,-31.5985 223.3913,-21.3032"/>
<polygon fill="#191970" stroke="#191970" points="224.3163,-17.9178 213.7216,-17.876 221.9778,-24.5157 224.3163,-17.9178"/>
</g>
<!-- Node10 -->
<g id="node11" class="node">
<title>Node10</title>
<polygon fill="none" stroke="#bfbfbf" points="232,-.5 232,-19.5 297,-19.5 297,-.5 232,-.5"/>
<text text-anchor="middle" x="264.5" y="-7.5" font-family="FreeSans.ttf" font-size="10.00" fill="#000000">stdexcept</text>
</g>
<!-- Node3&#45;&gt;Node10 -->
<g id="edge10" class="edge">
<title>Node3&#45;&gt;Node10</title>
<path fill="none" stroke="#191970" d="M334.6941,-56.2455C321.7744,-47.7337 302.8069,-35.2375 287.8448,-25.3801"/>
<polygon fill="#191970" stroke="#191970" points="289.4124,-22.2216 279.1362,-19.6427 285.5613,-28.067 289.4124,-22.2216"/>
</g>
<!-- Node11 -->
<g id="node12" class="node">
<title>Node11</title>
<polygon fill="none" stroke="#bfbfbf" points="315,-.5 315,-19.5 384,-19.5 384,-.5 315,-.5"/>
<text text-anchor="middle" x="349.5" y="-7.5" font-family="FreeSans.ttf" font-size="10.00" fill="#000000">type_traits</text>
</g>
<!-- Node3&#45;&gt;Node11 -->
<g id="edge11" class="edge">
<title>Node3&#45;&gt;Node11</title>
<path fill="none" stroke="#191970" d="M349.5,-56.2455C349.5,-48.9382 349.5,-38.6944 349.5,-29.7046"/>
<polygon fill="#191970" stroke="#191970" points="353.0001,-29.6426 349.5,-19.6427 346.0001,-29.6427 353.0001,-29.6426"/>
</g>
<!-- Node12 -->
<g id="node13" class="node">
<title>Node12</title>
<polygon fill="none" stroke="#bfbfbf" points="402,-.5 402,-19.5 447,-19.5 447,-.5 402,-.5"/>
<text text-anchor="middle" x="424.5" y="-7.5" font-family="FreeSans.ttf" font-size="10.00" fill="#000000">utility</text>
</g>
<!-- Node3&#45;&gt;Node12 -->
<g id="edge12" class="edge">
<title>Node3&#45;&gt;Node12</title>
<path fill="none" stroke="#191970" d="M362.564,-56.2455C373.8562,-47.814 390.3845,-35.4729 403.5271,-25.6598"/>
<polygon fill="#191970" stroke="#191970" points="405.6669,-28.4301 411.5857,-19.6427 401.4789,-22.8211 405.6669,-28.4301"/>
</g>
<!-- Node14&#45;&gt;Node7 -->
<g id="edge19" class="edge">
<title>Node14&#45;&gt;Node7</title>
<path fill="none" stroke="#191970" d="M590.7799,-336.8749C524.932,-328.3482 436.1633,-314.7478 403.5,-300 245.5998,-228.7067 240.5726,-156.567 99.5,-56 83.9907,-44.9438 65.8795,-33.5228 51.577,-24.8267"/>
<polygon fill="#191970" stroke="#191970" points="53.1658,-21.6979 42.7937,-19.5368 49.5544,-27.6943 53.1658,-21.6979"/>
</g>
<!-- Node14&#45;&gt;Node13 -->
<g id="edge21" class="edge">
<title>Node14&#45;&gt;Node13</title>
<path fill="none" stroke="#191970" d="M678.9977,-336.1937C703.695,-312.6638 766.2688,-250.3167 804.5,-188 825.8842,-153.1438 845.8046,-109.5899 856.4485,-85.0749"/>
<polygon fill="#191970" stroke="#191970" points="859.6949,-86.3851 860.4195,-75.815 853.2615,-83.6262 859.6949,-86.3851"/>
</g>
<!-- Node15 -->
<g id="node16" class="node">
<title>Node15</title>
<g id="a_node16"><a xlink:href="Utils_8h.html" target="_top" xlink:title="iDynTree/Core/Utils.h">
<polygon fill="none" stroke="#000000" points="152,-56.5 152,-75.5 271,-75.5 271,-56.5 152,-56.5"/>
<text text-anchor="middle" x="211.5" y="-63.5" font-family="FreeSans.ttf" font-size="10.00" fill="#000000">iDynTree/Core/Utils.h</text>
</a>
</g>
</g>
<!-- Node14&#45;&gt;Node15 -->
<g id="edge15" class="edge">
<title>Node14&#45;&gt;Node15</title>
<path fill="none" stroke="#191970" d="M596.6158,-336.4717C539.349,-328.006 464.4639,-314.7191 437.5,-300 336.1432,-244.6712 252.5297,-128.4614 222.9691,-83.909"/>
<polygon fill="#191970" stroke="#191970" points="225.8969,-81.9912 217.4947,-75.5373 220.0384,-85.8223 225.8969,-81.9912"/>
</g>
<!-- Node17 -->
<g id="node18" class="node">
<title>Node17</title>
<polygon fill="none" stroke="#bfbfbf" points="1004,-280.5 1004,-299.5 1051,-299.5 1051,-280.5 1004,-280.5"/>
<text text-anchor="middle" x="1027.5" y="-287.5" font-family="FreeSans.ttf" font-size="10.00" fill="#000000">vector</text>
</g>
<!-- Node14&#45;&gt;Node17 -->
<g id="edge18" class="edge">
<title>Node14&#45;&gt;Node17</title>
<path fill="none" stroke="#191970" d="M729.8064,-336.4369C805.9412,-324.5607 933.144,-304.7185 993.5994,-295.2881"/>
<polygon fill="#191970" stroke="#191970" points="994.4005,-298.7056 1003.7415,-293.7061 993.3215,-291.7892 994.4005,-298.7056"/>
</g>
<!-- Node18 -->
<g id="node19" class="node">
<title>Node18</title>
<polygon fill="none" stroke="#bfbfbf" points="446.5,-280.5 446.5,-299.5 532.5,-299.5 532.5,-280.5 446.5,-280.5"/>
<text text-anchor="middle" x="489.5" y="-287.5" font-family="FreeSans.ttf" font-size="10.00" fill="#000000">unordered_set</text>
</g>
<!-- Node14&#45;&gt;Node18 -->
<g id="edge20" class="edge">
<title>Node14&#45;&gt;Node18</title>
<path fill="none" stroke="#191970" d="M637.7288,-336.3733C607.835,-327.021 562.2907,-312.7725 529.5783,-302.5385"/>
<polygon fill="#191970" stroke="#191970" points="530.4586,-299.1466 519.8697,-299.5011 528.3685,-305.8273 530.4586,-299.1466"/>
</g>
<!-- Node15&#45;&gt;Node7 -->
<g id="edge16" class="edge">
<title>Node15&#45;&gt;Node7</title>
<path fill="none" stroke="#191970" d="M179.6974,-56.3733C147.3035,-46.5676 97.1282,-31.3793 63.1009,-21.0792"/>
<polygon fill="#191970" stroke="#191970" points="63.6819,-17.5983 53.0967,-18.0509 61.6538,-24.2981 63.6819,-17.5983"/>
</g>
<!-- Node16 -->
<g id="node17" class="node">
<title>Node16</title>
<polygon fill="none" stroke="#bfbfbf" points="71.5,-.5 71.5,-19.5 151.5,-19.5 151.5,-.5 71.5,-.5"/>
<text text-anchor="middle" x="111.5" y="-7.5" font-family="FreeSans.ttf" font-size="10.00" fill="#000000">CoreExport.h</text>
</g>
<!-- Node15&#45;&gt;Node16 -->
<g id="edge17" class="edge">
<title>Node15&#45;&gt;Node16</title>
<path fill="none" stroke="#191970" d="M194.0813,-56.2455C178.4515,-47.4928 155.2981,-34.527 137.4815,-24.5496"/>
<polygon fill="#191970" stroke="#191970" points="139.1543,-21.475 128.7191,-19.6427 135.734,-27.5825 139.1543,-21.475"/>
</g>
<!-- Node19&#45;&gt;Node1 -->
<g id="edge23" class="edge">
<title>Node19&#45;&gt;Node1</title>
<path fill="none" stroke="#191970" d="M697.6512,-448.3733C670.8297,-439.1016 630.0873,-425.0178 600.5402,-414.804"/>
<polygon fill="#191970" stroke="#191970" points="601.5802,-411.4603 590.9854,-411.5011 599.2931,-418.0762 601.5802,-411.4603"/>
</g>
<!-- Node19&#45;&gt;Node14 -->
<g id="edge57" class="edge">
<title>Node19&#45;&gt;Node14</title>
<path fill="none" stroke="#191970" d="M717.01,-448.3519C709.4954,-439.4226 698.6423,-425.5232 691.5,-412 683.6301,-397.0993 677.5302,-378.9424 673.5959,-365.4473"/>
<polygon fill="#191970" stroke="#191970" points="676.9585,-364.4755 670.9125,-355.7752 670.2133,-366.3469 676.9585,-364.4755"/>
</g>
<!-- Node20 -->
<g id="node21" class="node">
<title>Node20</title>
<g id="a_node21"><a xlink:href="TimeVaryingObject_8h.html" target="_top" xlink:title="iDynTree/TimeVaryingObject.h">
<polygon fill="none" stroke="#000000" points="700.5,-392.5 700.5,-411.5 864.5,-411.5 864.5,-392.5 700.5,-392.5"/>
<text text-anchor="middle" x="782.5" y="-399.5" font-family="FreeSans.ttf" font-size="10.00" fill="#000000">iDynTree/TimeVaryingObject.h</text>
</a>
</g>
</g>
<!-- Node19&#45;&gt;Node20 -->
<g id="edge24" class="edge">
<title>Node19&#45;&gt;Node20</title>
<path fill="none" stroke="#191970" d="M735.4286,-448.2455C743.6838,-440.1352 755.6209,-428.4075 765.4082,-418.7919"/>
<polygon fill="#191970" stroke="#191970" points="768.0046,-421.1476 772.6851,-411.6427 763.0989,-416.1542 768.0046,-421.1476"/>
</g>
<!-- Node33 -->
<g id="node34" class="node">
<title>Node33</title>
<polygon fill="none" stroke="#bfbfbf" points="882.5,-392.5 882.5,-411.5 940.5,-411.5 940.5,-392.5 882.5,-392.5"/>
<text text-anchor="middle" x="911.5" y="-399.5" font-family="FreeSans.ttf" font-size="10.00" fill="#000000">memory</text>
</g>
<!-- Node19&#45;&gt;Node33 -->
<g id="edge58" class="edge">
<title>Node19&#45;&gt;Node33</title>
<path fill="none" stroke="#191970" d="M757.4745,-448.3733C789.4276,-438.753 838.5885,-423.9519 872.7432,-413.6687"/>
<polygon fill="#191970" stroke="#191970" points="873.8216,-416.9993 882.388,-410.7649 871.8035,-410.2965 873.8216,-416.9993"/>
</g>
<!-- Node20&#45;&gt;Node2 -->
<g id="edge25" class="edge">
<title>Node20&#45;&gt;Node2</title>
<path fill="none" stroke="#191970" d="M715.2167,-392.4369C645.945,-382.5912 538.1529,-367.2705 465.5144,-356.9462"/>
<polygon fill="#191970" stroke="#191970" points="465.8989,-353.4658 455.5058,-355.5237 464.9138,-360.3961 465.8989,-353.4658"/>
</g>
<!-- Node21 -->
<g id="node22" class="node">
<title>Node21</title>
<g id="a_node22"><a xlink:href="MatrixDynSize_8h.html" target="_top" xlink:title="iDynTree/Core/MatrixDynSize.h">
<polygon fill="none" stroke="#000000" points="965,-224.5 965,-243.5 1132,-243.5 1132,-224.5 965,-224.5"/>
<text text-anchor="middle" x="1048.5" y="-231.5" font-family="FreeSans.ttf" font-size="10.00" fill="#000000">iDynTree/Core/MatrixDynSize.h</text>
</a>
</g>
</g>
<!-- Node20&#45;&gt;Node21 -->
<g id="edge26" class="edge">
<title>Node20&#45;&gt;Node21</title>
<path fill="none" stroke="#191970" d="M828.0151,-392.4201C855.8587,-385.2173 891.4048,-373.5353 919.5,-356 959.758,-330.8734 959.7382,-312.3058 994.5,-280 1005.6045,-269.6801 1018.515,-258.6492 1028.9274,-249.9771"/>
<polygon fill="#191970" stroke="#191970" points="1031.1815,-252.6549 1036.6602,-243.5866 1026.7222,-247.259 1031.1815,-252.6549"/>
</g>
<!-- Node22 -->
<g id="node23" class="node">
<title>Node22</title>
<g id="a_node23"><a xlink:href="Transform_8h.html" target="_top" xlink:title="iDynTree/Core/Transform.h">
<polygon fill="none" stroke="#000000" points="764.5,-336.5 764.5,-355.5 910.5,-355.5 910.5,-336.5 764.5,-336.5"/>
<text text-anchor="middle" x="837.5" y="-343.5" font-family="FreeSans.ttf" font-size="10.00" fill="#000000">iDynTree/Core/Transform.h</text>
</a>
</g>
</g>
<!-- Node20&#45;&gt;Node22 -->
<g id="edge28" class="edge">
<title>Node20&#45;&gt;Node22</title>
<path fill="none" stroke="#191970" d="M792.0803,-392.2455C800.0458,-384.1352 811.5641,-372.4075 821.0079,-362.7919"/>
<polygon fill="#191970" stroke="#191970" points="823.5195,-365.2297 828.0295,-355.6427 818.5253,-360.3247 823.5195,-365.2297"/>
</g>
<!-- Node21&#45;&gt;Node13 -->
<g id="edge27" class="edge">
<title>Node21&#45;&gt;Node13</title>
<path fill="none" stroke="#191970" d="M1062.1336,-224.4516C1072.6548,-216.1822 1086.4091,-203.1795 1092.5,-188 1105.0787,-156.6517 1113.8927,-138.1398 1092.5,-112 1068.1734,-82.2753 954.0935,-71.3261 897.0896,-67.6624"/>
<polygon fill="#191970" stroke="#191970" points="897.0115,-64.1514 886.8185,-67.0417 896.5892,-71.1386 897.0115,-64.1514"/>
</g>
<!-- Node22&#45;&gt;Node13 -->
<g id="edge56" class="edge">
<title>Node22&#45;&gt;Node13</title>
<path fill="none" stroke="#191970" d="M862.7777,-336.3938C880.2339,-328.7185 903.0062,-316.5089 918.5,-300 944.2091,-272.6066 928.3033,-249.9171 955.5,-224 984.9043,-195.9792 1017.1405,-221.9091 1039.5,-188 1055.4739,-163.775 1024.4026,-121.5197 1013.5,-112 980.4694,-83.1591 929.5899,-72.3993 896.6697,-68.386"/>
<polygon fill="#191970" stroke="#191970" points="896.9757,-64.8988 886.6579,-67.3057 896.2246,-71.8584 896.9757,-64.8988"/>
</g>
<!-- Node23 -->
<g id="node24" class="node">
<title>Node23</title>
<g id="a_node24"><a xlink:href="Position_8h.html" target="_top" xlink:title="iDynTree/Core/Position.h">
<polygon fill="none" stroke="#000000" points="773.5,-280.5 773.5,-299.5 909.5,-299.5 909.5,-280.5 773.5,-280.5"/>
<text text-anchor="middle" x="841.5" y="-287.5" font-family="FreeSans.ttf" font-size="10.00" fill="#000000">iDynTree/Core/Position.h</text>
</a>
</g>
</g>
<!-- Node22&#45;&gt;Node23 -->
<g id="edge29" class="edge">
<title>Node22&#45;&gt;Node23</title>
<path fill="none" stroke="#191970" d="M838.1967,-336.2455C838.7187,-328.9382 839.4504,-318.6944 840.0925,-309.7046"/>
<polygon fill="#191970" stroke="#191970" points="843.5898,-309.8667 840.8112,-299.6427 836.6076,-309.3679 843.5898,-309.8667"/>
</g>
<!-- Node28 -->
<g id="node29" class="node">
<title>Node28</title>
<g id="a_node29"><a xlink:href="Rotation_8h.html" target="_top" xlink:title="iDynTree/Core/Rotation.h">
<polygon fill="none" stroke="#000000" points="580,-224.5 580,-243.5 717,-243.5 717,-224.5 580,-224.5"/>
<text text-anchor="middle" x="648.5" y="-231.5" font-family="FreeSans.ttf" font-size="10.00" fill="#000000">iDynTree/Core/Rotation.h</text>
</a>
</g>
</g>
<!-- Node22&#45;&gt;Node28 -->
<g id="edge54" class="edge">
<title>Node22&#45;&gt;Node28</title>
<path fill="none" stroke="#191970" d="M821.386,-336.4509C788.3287,-316.8615 712.6507,-272.0152 673.297,-248.6945"/>
<polygon fill="#191970" stroke="#191970" points="674.9605,-245.6119 664.5732,-243.5249 671.3919,-251.634 674.9605,-245.6119"/>
</g>
<!-- Node31 -->
<g id="node32" class="node">
<title>Node31</title>
<g id="a_node32"><a xlink:href="MatrixFixSize_8h.html" target="_top" xlink:title="iDynTree/Core/MatrixFixSize.h">
<polygon fill="none" stroke="#000000" points="308,-112.5 308,-131.5 469,-131.5 469,-112.5 308,-112.5"/>
<text text-anchor="middle" x="388.5" y="-119.5" font-family="FreeSans.ttf" font-size="10.00" fill="#000000">iDynTree/Core/MatrixFixSize.h</text>
</a>
</g>
</g>
<!-- Node22&#45;&gt;Node31 -->
<g id="edge55" class="edge">
<title>Node22&#45;&gt;Node31</title>
<path fill="none" stroke="#191970" d="M798.4138,-336.463C685.6259,-308.5639 365.8161,-226.6441 337.5,-188 324.5113,-170.2738 344.8443,-150.3704 363.5571,-137.1004"/>
<polygon fill="#191970" stroke="#191970" points="365.5547,-139.975 371.9153,-131.5018 361.6591,-134.1592 365.5547,-139.975"/>
</g>
<!-- Node23&#45;&gt;Node13 -->
<g id="edge53" class="edge">
<title>Node23&#45;&gt;Node13</title>
<path fill="none" stroke="#191970" d="M851.3203,-280.2859C865.9616,-266.247 894.8704,-240.198 923.5,-224 963.8856,-201.1507 994.9419,-226.0494 1021.5,-188 1059.3499,-133.773 952.6272,-92.3846 896.5155,-74.9876"/>
<polygon fill="#191970" stroke="#191970" points="897.2581,-71.5559 886.6734,-72.0207 895.2377,-78.258 897.2581,-71.5559"/>
</g>
<!-- Node24 -->
<g id="node25" class="node">
<title>Node24</title>
<g id="a_node25"><a xlink:href="PositionRaw_8h.html" target="_top" xlink:title="iDynTree/Core/PositionRaw.h">
<polygon fill="none" stroke="#000000" points="856.5,-168.5 856.5,-187.5 1012.5,-187.5 1012.5,-168.5 856.5,-168.5"/>
<text text-anchor="middle" x="934.5" y="-175.5" font-family="FreeSans.ttf" font-size="10.00" fill="#000000">iDynTree/Core/PositionRaw.h</text>
</a>
</g>
</g>
<!-- Node23&#45;&gt;Node24 -->
<g id="edge30" class="edge">
<title>Node23&#45;&gt;Node24</title>
<path fill="none" stroke="#191970" d="M847.1172,-280.112C854.9156,-266.7571 869.8399,-242.4989 885.5,-224 894.4796,-213.3926 905.7107,-202.6979 915.1543,-194.2934"/>
<polygon fill="#191970" stroke="#191970" points="917.6478,-196.7631 922.8915,-187.5569 913.0513,-191.4837 917.6478,-196.7631"/>
</g>
<!-- Node23&#45;&gt;Node28 -->
<g id="edge39" class="edge">
<title>Node23&#45;&gt;Node28</title>
<path fill="none" stroke="#191970" d="M808.3221,-280.3733C775.9513,-270.9807 726.5602,-256.6496 691.2576,-246.4064"/>
<polygon fill="#191970" stroke="#191970" points="691.8242,-242.9264 681.2449,-243.5011 689.8735,-249.6492 691.8242,-242.9264"/>
</g>
<!-- Node24&#45;&gt;Node13 -->
<g id="edge38" class="edge">
<title>Node24&#45;&gt;Node13</title>
<path fill="none" stroke="#191970" d="M928.5318,-168.4509C916.8567,-149.7707 890.8274,-108.1238 875.7976,-84.0761"/>
<polygon fill="#191970" stroke="#191970" points="878.7211,-82.1499 870.4531,-75.5249 872.7851,-85.8599 878.7211,-82.1499"/>
</g>
<!-- Node25 -->
<g id="node26" class="node">
<title>Node25</title>
<g id="a_node26"><a xlink:href="VectorFixSize_8h.html" target="_top" xlink:title="iDynTree/Core/VectorFixSize.h">
<polygon fill="none" stroke="#000000" points="487,-112.5 487,-131.5 648,-131.5 648,-112.5 487,-112.5"/>
<text text-anchor="middle" x="567.5" y="-119.5" font-family="FreeSans.ttf" font-size="10.00" fill="#000000">iDynTree/Core/VectorFixSize.h</text>
</a>
</g>
</g>
<!-- Node24&#45;&gt;Node25 -->
<g id="edge31" class="edge">
<title>Node24&#45;&gt;Node25</title>
<path fill="none" stroke="#191970" d="M871.8275,-168.4369C807.5668,-158.6314 707.7182,-143.3957 640.0686,-133.0731"/>
<polygon fill="#191970" stroke="#191970" points="640.3276,-129.5722 629.9141,-131.5237 639.2717,-136.4921 640.3276,-129.5722"/>
</g>
<!-- Node25&#45;&gt;Node3 -->
<g id="edge33" class="edge">
<title>Node25&#45;&gt;Node3</title>
<path fill="none" stroke="#191970" d="M530.0245,-112.3733C492.9897,-102.8598 436.2318,-88.2797 396.2639,-78.0127"/>
<polygon fill="#191970" stroke="#191970" points="397.0429,-74.5993 386.4865,-75.5011 395.3012,-81.3792 397.0429,-74.5993"/>
</g>
<!-- Node25&#45;&gt;Node4 -->
<g id="edge36" class="edge">
<title>Node25&#45;&gt;Node4</title>
<path fill="none" stroke="#191970" d="M610.2933,-112.4446C632.7139,-105.5528 659.2301,-94.1761 677.5,-76 690.1567,-63.4082 697.4206,-44.2069 701.3614,-29.7557"/>
<polygon fill="#191970" stroke="#191970" points="704.8157,-30.3612 703.7614,-19.8189 698.0114,-28.7176 704.8157,-30.3612"/>
</g>
<!-- Node25&#45;&gt;Node13 -->
<g id="edge34" class="edge">
<title>Node25&#45;&gt;Node13</title>
<path fill="none" stroke="#191970" d="M618.2187,-112.4369C679.5982,-100.8636 781.0984,-81.7256 832.5207,-72.0298"/>
<polygon fill="#191970" stroke="#191970" points="833.2278,-75.4582 842.4061,-70.1658 831.9308,-68.5794 833.2278,-75.4582"/>
</g>
<!-- Node25&#45;&gt;Node15 -->
<g id="edge32" class="edge">
<title>Node25&#45;&gt;Node15</title>
<path fill="none" stroke="#191970" d="M506.7059,-112.4369C444.2165,-102.6071 347.0343,-87.32 281.4054,-76.9963"/>
<polygon fill="#191970" stroke="#191970" points="281.5758,-73.4802 271.1534,-75.3837 280.488,-80.3952 281.5758,-73.4802"/>
</g>
<!-- Node26 -->
<g id="node27" class="node">
<title>Node26</title>
<polygon fill="none" stroke="#bfbfbf" points="544.5,-56.5 544.5,-75.5 600.5,-75.5 600.5,-56.5 544.5,-56.5"/>
<text text-anchor="middle" x="572.5" y="-63.5" font-family="FreeSans.ttf" font-size="10.00" fill="#000000">sstream</text>
</g>
<!-- Node25&#45;&gt;Node26 -->
<g id="edge35" class="edge">
<title>Node25&#45;&gt;Node26</title>
<path fill="none" stroke="#191970" d="M568.3709,-112.2455C569.0234,-104.9382 569.938,-94.6944 570.7407,-85.7046"/>
<polygon fill="#191970" stroke="#191970" points="574.2358,-85.9143 571.639,-75.6427 567.2635,-85.2918 574.2358,-85.9143"/>
</g>
<!-- Node27 -->
<g id="node28" class="node">
<title>Node27</title>
<polygon fill="none" stroke="#bfbfbf" points="618.5,-56.5 618.5,-75.5 668.5,-75.5 668.5,-56.5 618.5,-56.5"/>
<text text-anchor="middle" x="643.5" y="-63.5" font-family="FreeSans.ttf" font-size="10.00" fill="#000000">cstring</text>
</g>
<!-- Node25&#45;&gt;Node27 -->
<g id="edge37" class="edge">
<title>Node25&#45;&gt;Node27</title>
<path fill="none" stroke="#191970" d="M580.7382,-112.2455C592.181,-103.814 608.9296,-91.4729 622.2475,-81.6598"/>
<polygon fill="#191970" stroke="#191970" points="624.4391,-84.3924 630.4135,-75.6427 620.2867,-78.757 624.4391,-84.3924"/>
</g>
<!-- Node28&#45;&gt;Node13 -->
<g id="edge40" class="edge">
<title>Node28&#45;&gt;Node13</title>
<path fill="none" stroke="#191970" d="M674.7134,-224.3597C692.8843,-216.6683 716.7336,-204.4535 733.5,-188 761.1997,-160.8173 748.6056,-138.9828 776.5,-112 785.4046,-103.3864 812.0499,-89.9447 833.708,-79.8116"/>
<polygon fill="#191970" stroke="#191970" points="835.3104,-82.9268 842.9218,-75.5567 832.3757,-76.5717 835.3104,-82.9268"/>
</g>
<!-- Node28&#45;&gt;Node25 -->
<g id="edge52" class="edge">
<title>Node28&#45;&gt;Node25</title>
<path fill="none" stroke="#191970" d="M608.6328,-224.3369C589.6645,-217.5199 568.7211,-206.2455 557.5,-188 548.8885,-173.9977 552.8899,-155.25 558.1709,-141.3143"/>
<polygon fill="#191970" stroke="#191970" points="561.5462,-142.3238 562.271,-131.7538 555.1128,-139.5648 561.5462,-142.3238"/>
</g>
<!-- Node29 -->
<g id="node30" class="node">
<title>Node29</title>
<g id="a_node30"><a xlink:href="GeomVector3_8h.html" target="_top" xlink:title="iDynTree/Core/GeomVector3.h">
<polygon fill="none" stroke="#000000" points="347,-168.5 347,-187.5 510,-187.5 510,-168.5 347,-168.5"/>
<text text-anchor="middle" x="428.5" y="-175.5" font-family="FreeSans.ttf" font-size="10.00" fill="#000000">iDynTree/Core/GeomVector3.h</text>
</a>
</g>
</g>
<!-- Node28&#45;&gt;Node29 -->
<g id="edge41" class="edge">
<title>Node28&#45;&gt;Node29</title>
<path fill="none" stroke="#191970" d="M610.6807,-224.3733C573.3062,-214.8598 516.0276,-200.2797 475.6929,-190.0127"/>
<polygon fill="#191970" stroke="#191970" points="476.3802,-186.5761 465.8258,-187.5011 474.6534,-193.3598 476.3802,-186.5761"/>
</g>
<!-- Node30 -->
<g id="node31" class="node">
<title>Node30</title>
<g id="a_node31"><a xlink:href="RotationRaw_8h.html" target="_top" xlink:title="iDynTree/Core/RotationRaw.h">
<polygon fill="none" stroke="#000000" points="566.5,-168.5 566.5,-187.5 724.5,-187.5 724.5,-168.5 566.5,-168.5"/>
<text text-anchor="middle" x="645.5" y="-175.5" font-family="FreeSans.ttf" font-size="10.00" fill="#000000">iDynTree/Core/RotationRaw.h</text>
</a>
</g>
</g>
<!-- Node28&#45;&gt;Node30 -->
<g id="edge43" class="edge">
<title>Node28&#45;&gt;Node30</title>
<path fill="none" stroke="#191970" d="M647.9774,-224.2455C647.586,-216.9382 647.0372,-206.6944 646.5556,-197.7046"/>
<polygon fill="#191970" stroke="#191970" points="650.0466,-197.4411 646.0166,-187.6427 643.0566,-197.8156 650.0466,-197.4411"/>
</g>
<!-- Node29&#45;&gt;Node25 -->
<g id="edge42" class="edge">
<title>Node29&#45;&gt;Node25</title>
<path fill="none" stroke="#191970" d="M452.395,-168.3733C475.0082,-159.2629 509.1542,-145.5062 534.3873,-135.3404"/>
<polygon fill="#191970" stroke="#191970" points="535.9493,-138.4845 543.9169,-131.5011 533.3334,-131.9917 535.9493,-138.4845"/>
</g>
<!-- Node30&#45;&gt;Node13 -->
<g id="edge51" class="edge">
<title>Node30&#45;&gt;Node13</title>
<path fill="none" stroke="#191970" d="M656.8809,-168.3845C673.7892,-154.4683 706.9496,-128.5708 738.5,-112 769.077,-95.9404 806.5155,-83.0494 832.6022,-75.0459"/>
<polygon fill="#191970" stroke="#191970" points="833.7762,-78.3478 842.3481,-72.121 831.764,-71.6433 833.7762,-78.3478"/>
</g>
<!-- Node30&#45;&gt;Node31 -->
<g id="edge44" class="edge">
<title>Node30&#45;&gt;Node31</title>
<path fill="none" stroke="#191970" d="M601.6121,-168.4369C557.5362,-158.8328 489.5519,-144.0191 442.2642,-133.7152"/>
<polygon fill="#191970" stroke="#191970" points="442.7228,-130.233 432.2068,-131.5237 441.2324,-137.0725 442.7228,-130.233"/>
</g>
<!-- Node31&#45;&gt;Node4 -->
<g id="edge46" class="edge">
<title>Node31&#45;&gt;Node4</title>
<path fill="none" stroke="#191970" d="M413.0055,-112.3541C435.2706,-103.4262 468.9074,-89.5276 497.5,-76 514.7519,-67.8379 517.7303,-62.9632 535.5,-56 592.9165,-33.5008 610.0129,-36.2526 669.5,-20 669.5978,-19.9733 669.6957,-19.9465 669.7937,-19.9197"/>
<polygon fill="#191970" stroke="#191970" points="670.4468,-23.3701 679.1611,-17.3441 668.5909,-16.6206 670.4468,-23.3701"/>
</g>
<!-- Node31&#45;&gt;Node13 -->
<g id="edge48" class="edge">
<title>Node31&#45;&gt;Node13</title>
<path fill="none" stroke="#191970" d="M469.2469,-112.5004C575.6802,-99.9788 758.0577,-78.5226 831.9676,-69.8273"/>
<polygon fill="#191970" stroke="#191970" points="832.5408,-73.2841 842.0634,-68.6396 831.7229,-66.3321 832.5408,-73.2841"/>
</g>
<!-- Node31&#45;&gt;Node15 -->
<g id="edge45" class="edge">
<title>Node31&#45;&gt;Node15</title>
<path fill="none" stroke="#191970" d="M358.0726,-112.3733C328.5128,-103.021 283.4774,-88.7725 251.1305,-78.5385"/>
<polygon fill="#191970" stroke="#191970" points="252.1203,-75.1807 241.5303,-75.5011 250.0087,-81.8546 252.1203,-75.1807"/>
</g>
<!-- Node31&#45;&gt;Node26 -->
<g id="edge50" class="edge">
<title>Node31&#45;&gt;Node26</title>
<path fill="none" stroke="#191970" d="M420.1307,-112.3733C451.7908,-102.7376 500.5281,-87.9045 534.322,-77.6194"/>
<polygon fill="#191970" stroke="#191970" points="535.7468,-80.8443 544.2945,-74.5843 533.7087,-74.1476 535.7468,-80.8443"/>
</g>
<!-- Node31&#45;&gt;Node27 -->
<g id="edge47" class="edge">
<title>Node31&#45;&gt;Node27</title>
<path fill="none" stroke="#191970" d="M440.122,-112.4802C482.8874,-104.3165 545.4349,-91.7406 608.5838,-76.0893"/>
<polygon fill="#191970" stroke="#191970" points="609.4601,-79.4781 618.3111,-73.6548 607.7605,-72.6875 609.4601,-79.4781"/>
</g>
<!-- Node32 -->
<g id="node33" class="node">
<title>Node32</title>
<polygon fill="none" stroke="#bfbfbf" points="428.5,-56.5 428.5,-75.5 488.5,-75.5 488.5,-56.5 428.5,-56.5"/>
<text text-anchor="middle" x="458.5" y="-63.5" font-family="FreeSans.ttf" font-size="10.00" fill="#000000">iostream</text>
</g>
<!-- Node31&#45;&gt;Node32 -->
<g id="edge49" class="edge">
<title>Node31&#45;&gt;Node32</title>
<path fill="none" stroke="#191970" d="M400.6931,-112.2455C411.1321,-103.8943 426.3655,-91.7076 438.574,-81.9408"/>
<polygon fill="#191970" stroke="#191970" points="440.8244,-84.6227 446.4467,-75.6427 436.4515,-79.1566 440.8244,-84.6227"/>
</g>
<!-- Node34&#45;&gt;Node2 -->
<g id="edge62" class="edge">
<title>Node34&#45;&gt;Node2</title>
<path fill="none" stroke="#191970" d="M388.5,-392.2455C388.5,-384.9382 388.5,-374.6944 388.5,-365.7046"/>
<polygon fill="#191970" stroke="#191970" points="392.0001,-365.6426 388.5,-355.6427 385.0001,-365.6427 392.0001,-365.6426"/>
</g>
<!-- Node34&#45;&gt;Node7 -->
<g id="edge60" class="edge">
<title>Node34&#45;&gt;Node7</title>
<path fill="none" stroke="#191970" d="M338.4486,-392.4542C312.3335,-385.597 281.0189,-374.2498 257.5,-356 136.6325,-262.2114 57.635,-86.7528 33.9667,-28.981"/>
<polygon fill="#191970" stroke="#191970" points="37.1752,-27.5786 30.1935,-19.6095 30.6817,-30.1931 37.1752,-27.5786"/>
</g>
<!-- Node34&#45;&gt;Node13 -->
<g id="edge61" class="edge">
<title>Node34&#45;&gt;Node13</title>
<path fill="none" stroke="#191970" d="M354.6377,-392.4958C311.5078,-378.0785 242.5,-346.2255 242.5,-290 242.5,-290 242.5,-290 242.5,-234 242.5,-182.5883 289.38,-186.1005 337.5,-168 471.0426,-117.7675 518.6637,-168.8523 656.5,-132 678.0368,-126.2419 681.5083,-119.5059 702.5,-112 746.8419,-96.1449 799.5155,-82.0315 832.4835,-73.7445"/>
<polygon fill="#191970" stroke="#191970" points="833.5996,-77.0736 842.4594,-71.2638 831.9103,-70.2805 833.5996,-77.0736"/>
</g>
<!-- Node34&#45;&gt;Node14 -->
<g id="edge63" class="edge">
<title>Node34&#45;&gt;Node14</title>
<path fill="none" stroke="#191970" d="M436.3156,-392.4369C484.6381,-382.7724 559.3372,-367.8326 610.8936,-357.5213"/>
<polygon fill="#191970" stroke="#191970" points="611.7623,-360.9169 620.8816,-355.5237 610.3894,-354.0529 611.7623,-360.9169"/>
</g>
<!-- Node35&#45;&gt;Node13 -->
<g id="edge66" class="edge">
<title>Node35&#45;&gt;Node13</title>
<path fill="none" stroke="#191970" d="M1148.9022,-448.4166C1189.7727,-440.1713 1241.2256,-427.2191 1256.5,-412 1278.1233,-390.4551 1275.5,-376.5246 1275.5,-346 1275.5,-346 1275.5,-346 1275.5,-178 1275.5,-131.9062 1237.7008,-130.54 1195.5,-112 1142.3236,-88.6381 969.853,-73.6812 897.2202,-68.2725"/>
<polygon fill="#191970" stroke="#191970" points="897.0819,-64.7532 886.8534,-67.5152 896.5718,-71.7346 897.0819,-64.7532"/>
</g>
<!-- Node35&#45;&gt;Node14 -->
<g id="edge68" class="edge">
<title>Node35&#45;&gt;Node14</title>
<path fill="none" stroke="#191970" d="M1079.8249,-448.4144C1056.7217,-433.8009 1010.0086,-406.1586 966.5,-392 928.5249,-379.6421 829.9642,-365.6752 756.5238,-356.4067"/>
<polygon fill="#191970" stroke="#191970" points="756.6942,-352.9008 746.3367,-355.1307 755.8242,-359.8465 756.6942,-352.9008"/>
</g>
<!-- Node35&#45;&gt;Node17 -->
<g id="edge67" class="edge">
<title>Node35&#45;&gt;Node17</title>
<path fill="none" stroke="#191970" d="M1090.7058,-448.4862C1080.023,-421.6994 1049.5368,-345.2565 1035.1687,-309.2289"/>
<polygon fill="#191970" stroke="#191970" points="1038.3749,-307.8199 1031.4195,-299.8279 1031.8729,-310.413 1038.3749,-307.8199"/>
</g>
<!-- Node35&#45;&gt;Node33 -->
<g id="edge65" class="edge">
<title>Node35&#45;&gt;Node33</title>
<path fill="none" stroke="#191970" d="M1063.0412,-448.3733C1031.9237,-438.851 984.2189,-424.2528 950.6629,-413.9843"/>
<polygon fill="#191970" stroke="#191970" points="951.3237,-410.5263 940.7372,-410.9469 949.2754,-417.22 951.3237,-410.5263"/>
</g>
<!-- Node36&#45;&gt;Node13 -->
<g id="edge70" class="edge">
<title>Node36&#45;&gt;Node13</title>
<path fill="none" stroke="#191970" d="M1200.3567,-392.4119C1200.0802,-373.0545 1199.5,-327.9182 1199.5,-290 1199.5,-290 1199.5,-290 1199.5,-178 1199.5,-146.4726 1198.1794,-131.6189 1173.5,-112 1131.0975,-78.2922 966.7447,-69.181 896.5618,-66.8045"/>
<polygon fill="#191970" stroke="#191970" points="896.6321,-63.305 886.5271,-66.4893 896.4123,-70.3016 896.6321,-63.305"/>
</g>
<!-- Node36&#45;&gt;Node14 -->
<g id="edge71" class="edge">
<title>Node36&#45;&gt;Node14</title>
<path fill="none" stroke="#191970" d="M1153.7118,-397.3411C1074.3475,-389.3996 908.0014,-372.5867 756.2562,-356.0725"/>
<polygon fill="#191970" stroke="#191970" points="756.6037,-352.5897 746.2832,-354.9852 755.845,-359.5484 756.6037,-352.5897"/>
</g>
<!-- Node37&#45;&gt;Node13 -->
<g id="edge75" class="edge">
<title>Node37&#45;&gt;Node13</title>
<path fill="none" stroke="#191970" d="M930.09,-448.3726C993.2105,-421.8902 1155.0267,-342.0022 1140.5,-224 1134.2308,-173.0747 1149.8812,-147.1474 1112.5,-112 1081.7271,-83.0661 956.4983,-71.6176 896.6497,-67.7323"/>
<polygon fill="#191970" stroke="#191970" points="896.808,-64.2355 886.6111,-67.1121 896.3763,-71.2221 896.808,-64.2355"/>
</g>
<!-- Node37&#45;&gt;Node14 -->
<g id="edge77" class="edge">
<title>Node37&#45;&gt;Node14</title>
<path fill="none" stroke="#191970" d="M919.9931,-448.3305C938.2067,-435.0156 965.2822,-410.5759 949.5,-392 943.0062,-384.3567 831.7914,-367.9144 751.2555,-356.903"/>
<polygon fill="#191970" stroke="#191970" points="751.4816,-353.4016 741.101,-355.5211 750.5376,-360.3377 751.4816,-353.4016"/>
</g>
<!-- Node37&#45;&gt;Node15 -->
<g id="edge76" class="edge">
<title>Node37&#45;&gt;Node15</title>
<path fill="none" stroke="#191970" d="M812.397,-448.7807C809.3968,-448.5129 806.4251,-448.2519 803.5,-448 723.7664,-441.1333 90.5,-426.0288 90.5,-346 90.5,-346 90.5,-346 90.5,-290 90.5,-203.6598 160.951,-118.6611 194.3382,-83.2273"/>
<polygon fill="#191970" stroke="#191970" points="197.1843,-85.3175 201.5981,-75.6857 192.1413,-80.4628 197.1843,-85.3175"/>
</g>
<!-- Node37&#45;&gt;Node17 -->
<g id="edge74" class="edge">
<title>Node37&#45;&gt;Node17</title>
<path fill="none" stroke="#191970" d="M922.2043,-448.4027C935.5158,-440.1049 953.9415,-427.0879 966.5,-412 993.0116,-380.1489 1011.7822,-334.8335 1021.0063,-309.3462"/>
<polygon fill="#191970" stroke="#191970" points="1024.3705,-310.3289 1024.3698,-299.734 1017.7633,-308.0168 1024.3705,-310.3289"/>
</g>
<!-- Node37&#45;&gt;Node20 -->
<g id="edge78" class="edge">
<title>Node37&#45;&gt;Node20</title>
<path fill="none" stroke="#191970" d="M884.3555,-448.3733C864.6108,-439.3838 834.9302,-425.8706 812.6945,-415.7471"/>
<polygon fill="#191970" stroke="#191970" points="813.92,-412.4594 803.3685,-411.5011 811.0194,-418.8302 813.92,-412.4594"/>
</g>
<!-- Node37&#45;&gt;Node33 -->
<g id="edge73" class="edge">
<title>Node37&#45;&gt;Node33</title>
<path fill="none" stroke="#191970" d="M906.5451,-448.2455C907.328,-440.9382 908.4256,-430.6944 909.3888,-421.7046"/>
<polygon fill="#191970" stroke="#191970" points="912.8815,-421.9587 910.4669,-411.6427 905.9214,-421.2129 912.8815,-421.9587"/>
</g>
</g>
</svg>
