<?xml version="1.0" encoding="UTF-8" standalone="no"?>
<!DOCTYPE svg PUBLIC "-//W3C//DTD SVG 1.1//EN"
 "http://www.w3.org/Graphics/SVG/1.1/DTD/svg11.dtd">
<!-- Generated by graphviz version 2.40.1 (20161225.0304)
 -->
<!-- Title: OptimalControlSolver.cpp Pages: 1 -->
<svg width="1316pt" height="532pt"
 viewBox="0.00 0.00 1316.00 532.00" xmlns="http://www.w3.org/2000/svg" xmlns:xlink="http://www.w3.org/1999/xlink">
<g id="graph0" class="graph" transform="scale(1 1) rotate(0) translate(4 528)">
<title>OptimalControlSolver.cpp</title>
<!-- Node0 -->
<g id="node1" class="node">
<title>Node0</title>
<polygon fill="#bfbfbf" stroke="#000000" points="347.5,-504.5 347.5,-523.5 488.5,-523.5 488.5,-504.5 347.5,-504.5"/>
<text text-anchor="middle" x="418" y="-511.5" font-family="FreeSans.ttf" font-size="10.00" fill="#000000">OptimalControlSolver.cpp</text>
</g>
<!-- Node1 -->
<g id="node2" class="node">
<title>Node1</title>
<g id="a_node2"><a xlink:href="OptimalControlSolver_8h.html" target="_top" xlink:title="iDynTree/OptimalControlSolver.h">
<polygon fill="none" stroke="#000000" points="0,-448.5 0,-467.5 176,-467.5 176,-448.5 0,-448.5"/>
<text text-anchor="middle" x="88" y="-455.5" font-family="FreeSans.ttf" font-size="10.00" fill="#000000">iDynTree/OptimalControlSolver.h</text>
</a>
</g>
</g>
<!-- Node0&#45;&gt;Node1 -->
<g id="edge1" class="edge">
<title>Node0&#45;&gt;Node1</title>
<path fill="none" stroke="#191970" d="M361.6459,-504.4369C304.1011,-494.6717 214.8186,-479.5207 154.0033,-469.2006"/>
<polygon fill="#191970" stroke="#191970" points="154.5663,-465.7461 144.1216,-467.5237 153.3951,-472.6475 154.5663,-465.7461"/>
</g>
<!-- Node4 -->
<g id="node5" class="node">
<title>Node4</title>
<g id="a_node5"><a xlink:href="OptimalControlProblem_8h.html" target="_top" xlink:title="iDynTree/OptimalControlProblem.h">
<polygon fill="none" stroke="#000000" points="195,-448.5 195,-467.5 381,-467.5 381,-448.5 195,-448.5"/>
<text text-anchor="middle" x="288" y="-455.5" font-family="FreeSans.ttf" font-size="10.00" fill="#000000">iDynTree/OptimalControlProblem.h</text>
</a>
</g>
</g>
<!-- Node0&#45;&gt;Node4 -->
<g id="edge4" class="edge">
<title>Node0&#45;&gt;Node4</title>
<path fill="none" stroke="#191970" d="M395.6522,-504.3733C374.5967,-495.3032 342.8505,-481.6279 319.2825,-471.4755"/>
<polygon fill="#191970" stroke="#191970" points="320.625,-468.243 310.0562,-467.5011 317.8556,-474.6719 320.625,-468.243"/>
</g>
<!-- Node12 -->
<g id="node13" class="node">
<title>Node12</title>
<g id="a_node13"><a xlink:href="VectorDynSize_8h.html" target="_top" xlink:title="iDynTree/Core/VectorDynSize.h">
<polygon fill="none" stroke="#000000" points="464.5,-280.5 464.5,-299.5 631.5,-299.5 631.5,-280.5 464.5,-280.5"/>
<text text-anchor="middle" x="548" y="-287.5" font-family="FreeSans.ttf" font-size="10.00" fill="#000000">iDynTree/Core/VectorDynSize.h</text>
</a>
</g>
</g>
<!-- Node0&#45;&gt;Node12 -->
<g id="edge61" class="edge">
<title>Node0&#45;&gt;Node12</title>
<path fill="none" stroke="#191970" d="M434.0131,-504.4106C458.8838,-488.5801 506.2916,-454.4652 529,-412 546.5317,-379.2154 549.0291,-334.8561 548.8165,-309.6536"/>
<polygon fill="#191970" stroke="#191970" points="552.3126,-309.4451 548.5724,-299.5324 545.3147,-309.6139 552.3126,-309.4451"/>
</g>
<!-- Node14 -->
<g id="node15" class="node">
<title>Node14</title>
<polygon fill="none" stroke="#bfbfbf" points="1076,-.5 1076,-19.5 1128,-19.5 1128,-.5 1076,-.5"/>
<text text-anchor="middle" x="1102" y="-7.5" font-family="FreeSans.ttf" font-size="10.00" fill="#000000">cassert</text>
</g>
<!-- Node0&#45;&gt;Node14 -->
<g id="edge62" class="edge">
<title>Node0&#45;&gt;Node14</title>
<path fill="none" stroke="#191970" d="M488.5807,-512.5074C699.0847,-507.1276 1308,-484.4409 1308,-402 1308,-402 1308,-402 1308,-122 1308,-45.5795 1197.2235,-21.0115 1138.1385,-13.3428"/>
<polygon fill="#191970" stroke="#191970" points="1138.4359,-9.8534 1128.09,-12.1366 1137.6016,-16.8035 1138.4359,-9.8534"/>
</g>
<!-- Node2 -->
<g id="node3" class="node">
<title>Node2</title>
<polygon fill="none" stroke="#bfbfbf" points="59,-392.5 59,-411.5 117,-411.5 117,-392.5 59,-392.5"/>
<text text-anchor="middle" x="88" y="-399.5" font-family="FreeSans.ttf" font-size="10.00" fill="#000000">memory</text>
</g>
<!-- Node1&#45;&gt;Node2 -->
<g id="edge2" class="edge">
<title>Node1&#45;&gt;Node2</title>
<path fill="none" stroke="#191970" d="M88,-448.2455C88,-440.9382 88,-430.6944 88,-421.7046"/>
<polygon fill="#191970" stroke="#191970" points="91.5001,-421.6426 88,-411.6427 84.5001,-421.6427 91.5001,-421.6426"/>
</g>
<!-- Node3 -->
<g id="node4" class="node">
<title>Node3</title>
<polygon fill="none" stroke="#bfbfbf" points="248.5,-.5 248.5,-19.5 301.5,-19.5 301.5,-.5 248.5,-.5"/>
<text text-anchor="middle" x="275" y="-7.5" font-family="FreeSans.ttf" font-size="10.00" fill="#000000">cstddef</text>
</g>
<!-- Node1&#45;&gt;Node3 -->
<g id="edge3" class="edge">
<title>Node1&#45;&gt;Node3</title>
<path fill="none" stroke="#191970" d="M77.9181,-448.2882C69.3649,-439.5321 57.3457,-425.9266 50,-412 35.7591,-385.0009 31,-376.5246 31,-346 31,-346 31,-346 31,-122 31,-76.8894 170.4944,-35.9655 238.5377,-18.6868"/>
<polygon fill="#191970" stroke="#191970" points="239.5707,-22.0363 248.4232,-16.2153 237.8729,-15.2453 239.5707,-22.0363"/>
</g>
<!-- Node4&#45;&gt;Node2 -->
<g id="edge5" class="edge">
<title>Node4&#45;&gt;Node2</title>
<path fill="none" stroke="#191970" d="M253.6188,-448.3733C218.3986,-438.5116 163.7352,-423.2059 126.9406,-412.9034"/>
<polygon fill="#191970" stroke="#191970" points="127.6409,-409.4649 117.0675,-410.1389 125.7534,-416.2056 127.6409,-409.4649"/>
</g>
<!-- Node5 -->
<g id="node6" class="node">
<title>Node5</title>
<polygon fill="none" stroke="#bfbfbf" points="134.5,-56.5 134.5,-75.5 181.5,-75.5 181.5,-56.5 134.5,-56.5"/>
<text text-anchor="middle" x="158" y="-63.5" font-family="FreeSans.ttf" font-size="10.00" fill="#000000">vector</text>
</g>
<!-- Node4&#45;&gt;Node5 -->
<g id="edge6" class="edge">
<title>Node4&#45;&gt;Node5</title>
<path fill="none" stroke="#191970" d="M255.1929,-448.408C212.9744,-433.808 145,-401.6587 145,-346 145,-346 145,-346 145,-234 145,-180.3283 151.6771,-117.2983 155.4607,-85.8907"/>
<polygon fill="#191970" stroke="#191970" points="158.9515,-86.1803 156.706,-75.8261 152.0044,-85.3206 158.9515,-86.1803"/>
</g>
<!-- Node6 -->
<g id="node7" class="node">
<title>Node6</title>
<polygon fill="none" stroke="#bfbfbf" points="602,-56.5 602,-75.5 646,-75.5 646,-56.5 602,-56.5"/>
<text text-anchor="middle" x="624" y="-63.5" font-family="FreeSans.ttf" font-size="10.00" fill="#000000">string</text>
</g>
<!-- Node4&#45;&gt;Node6 -->
<g id="edge7" class="edge">
<title>Node4&#45;&gt;Node6</title>
<path fill="none" stroke="#191970" d="M293.607,-448.4834C304.1774,-429.6141 326,-385.8343 326,-346 326,-346 326,-346 326,-290 326,-187.1152 384.0211,-161.8906 474,-112 511.7753,-91.0547 560.3064,-78.4078 591.7742,-71.8153"/>
<polygon fill="#191970" stroke="#191970" points="592.6381,-75.2117 601.7515,-69.8084 591.2577,-68.3492 592.6381,-75.2117"/>
</g>
<!-- Node7 -->
<g id="node8" class="node">
<title>Node7</title>
<g id="a_node8"><a xlink:href="Utils_8h.html" target="_top" xlink:title="iDynTree/Core/Utils.h">
<polygon fill="none" stroke="#000000" points="354.5,-56.5 354.5,-75.5 473.5,-75.5 473.5,-56.5 354.5,-56.5"/>
<text text-anchor="middle" x="414" y="-63.5" font-family="FreeSans.ttf" font-size="10.00" fill="#000000">iDynTree/Core/Utils.h</text>
</a>
</g>
</g>
<!-- Node4&#45;&gt;Node7 -->
<g id="edge8" class="edge">
<title>Node4&#45;&gt;Node7</title>
<path fill="none" stroke="#191970" d="M288,-448.4116C288,-429.0538 288,-383.9167 288,-346 288,-346 288,-346 288,-290 288,-202.4734 361.9826,-117.5595 396.5671,-82.6467"/>
<polygon fill="#191970" stroke="#191970" points="399.0396,-85.124 403.6889,-75.6038 394.1175,-80.1467 399.0396,-85.124"/>
</g>
<!-- Node9 -->
<g id="node10" class="node">
<title>Node9</title>
<g id="a_node10"><a xlink:href="SparsityStructure_8h.html" target="_top" xlink:title="iDynTree/SparsityStructure.h">
<polygon fill="none" stroke="#000000" points="172.5,-112.5 172.5,-131.5 327.5,-131.5 327.5,-112.5 172.5,-112.5"/>
<text text-anchor="middle" x="250" y="-119.5" font-family="FreeSans.ttf" font-size="10.00" fill="#000000">iDynTree/SparsityStructure.h</text>
</a>
</g>
</g>
<!-- Node4&#45;&gt;Node9 -->
<g id="edge11" class="edge">
<title>Node4&#45;&gt;Node9</title>
<path fill="none" stroke="#191970" d="M282.393,-448.4834C271.8226,-429.6141 250,-385.8343 250,-346 250,-346 250,-346 250,-234 250,-201.7116 250,-164.1872 250,-141.8048"/>
<polygon fill="#191970" stroke="#191970" points="253.5001,-141.5883 250,-131.5884 246.5001,-141.5884 253.5001,-141.5883"/>
</g>
<!-- Node11 -->
<g id="node12" class="node">
<title>Node11</title>
<g id="a_node12"><a xlink:href="TimeVaryingObject_8h.html" target="_top" xlink:title="iDynTree/TimeVaryingObject.h">
<polygon fill="none" stroke="#000000" points="356,-392.5 356,-411.5 520,-411.5 520,-392.5 356,-392.5"/>
<text text-anchor="middle" x="438" y="-399.5" font-family="FreeSans.ttf" font-size="10.00" fill="#000000">iDynTree/TimeVaryingObject.h</text>
</a>
</g>
</g>
<!-- Node4&#45;&gt;Node11 -->
<g id="edge17" class="edge">
<title>Node4&#45;&gt;Node11</title>
<path fill="none" stroke="#191970" d="M313.7859,-448.3733C338.4047,-439.1822 375.69,-425.2624 402.9875,-415.0713"/>
<polygon fill="#191970" stroke="#191970" points="404.4063,-418.2777 412.5506,-411.5011 401.958,-411.7198 404.4063,-418.2777"/>
</g>
<!-- Node7&#45;&gt;Node3 -->
<g id="edge9" class="edge">
<title>Node7&#45;&gt;Node3</title>
<path fill="none" stroke="#191970" d="M390.105,-56.3733C367.4918,-47.2629 333.3458,-33.5062 308.1127,-23.3404"/>
<polygon fill="#191970" stroke="#191970" points="309.1666,-19.9917 298.5831,-19.5011 306.5507,-26.4845 309.1666,-19.9917"/>
</g>
<!-- Node8 -->
<g id="node9" class="node">
<title>Node8</title>
<polygon fill="none" stroke="#bfbfbf" points="374,-.5 374,-19.5 454,-19.5 454,-.5 374,-.5"/>
<text text-anchor="middle" x="414" y="-7.5" font-family="FreeSans.ttf" font-size="10.00" fill="#000000">CoreExport.h</text>
</g>
<!-- Node7&#45;&gt;Node8 -->
<g id="edge10" class="edge">
<title>Node7&#45;&gt;Node8</title>
<path fill="none" stroke="#191970" d="M414,-56.2455C414,-48.9382 414,-38.6944 414,-29.7046"/>
<polygon fill="#191970" stroke="#191970" points="417.5001,-29.6426 414,-19.6427 410.5001,-29.6427 417.5001,-29.6426"/>
</g>
<!-- Node9&#45;&gt;Node3 -->
<g id="edge14" class="edge">
<title>Node9&#45;&gt;Node3</title>
<path fill="none" stroke="#191970" d="M246.0468,-112.3558C241.2735,-99.2773 234.6313,-75.3312 241,-56 244.5056,-45.3594 251.5241,-35.164 258.2787,-27.0877"/>
<polygon fill="#191970" stroke="#191970" points="261.0014,-29.2937 265.0638,-19.5087 255.786,-24.6247 261.0014,-29.2937"/>
</g>
<!-- Node9&#45;&gt;Node5 -->
<g id="edge13" class="edge">
<title>Node9&#45;&gt;Node5</title>
<path fill="none" stroke="#191970" d="M233.9748,-112.2455C219.8592,-103.6534 199.0737,-91.0014 182.8101,-81.1018"/>
<polygon fill="#191970" stroke="#191970" points="184.2034,-77.8525 173.8415,-75.6427 180.5637,-83.8319 184.2034,-77.8525"/>
</g>
<!-- Node9&#45;&gt;Node6 -->
<g id="edge16" class="edge">
<title>Node9&#45;&gt;Node6</title>
<path fill="none" stroke="#191970" d="M313.8679,-112.4369C394.5314,-100.3589 530.2197,-80.042 591.8322,-70.8166"/>
<polygon fill="#191970" stroke="#191970" points="592.3851,-74.2729 601.7565,-69.3306 591.3485,-67.3501 592.3851,-74.2729"/>
</g>
<!-- Node9&#45;&gt;Node7 -->
<g id="edge12" class="edge">
<title>Node9&#45;&gt;Node7</title>
<path fill="none" stroke="#191970" d="M278.1926,-112.3733C305.3453,-103.1016 346.5907,-89.0178 376.5025,-78.804"/>
<polygon fill="#191970" stroke="#191970" points="377.8428,-82.0449 386.1753,-75.5011 375.5808,-75.4204 377.8428,-82.0449"/>
</g>
<!-- Node10 -->
<g id="node11" class="node">
<title>Node10</title>
<polygon fill="none" stroke="#bfbfbf" points="250,-56.5 250,-75.5 336,-75.5 336,-56.5 250,-56.5"/>
<text text-anchor="middle" x="293" y="-63.5" font-family="FreeSans.ttf" font-size="10.00" fill="#000000">unordered_set</text>
</g>
<!-- Node9&#45;&gt;Node10 -->
<g id="edge15" class="edge">
<title>Node9&#45;&gt;Node10</title>
<path fill="none" stroke="#191970" d="M257.49,-112.2455C263.5326,-104.3761 272.1903,-93.101 279.4441,-83.6542"/>
<polygon fill="#191970" stroke="#191970" points="282.2815,-85.7058 285.5958,-75.6427 276.7295,-81.4426 282.2815,-85.7058"/>
</g>
<!-- Node11&#45;&gt;Node12 -->
<g id="edge18" class="edge">
<title>Node11&#45;&gt;Node12</title>
<path fill="none" stroke="#191970" d="M447.3785,-392.4509C466.0499,-373.4401 508.0834,-330.6423 531.4842,-306.816"/>
<polygon fill="#191970" stroke="#191970" points="534.1352,-309.1119 538.6452,-299.5249 529.141,-304.2069 534.1352,-309.1119"/>
</g>
<!-- Node22 -->
<g id="node23" class="node">
<title>Node22</title>
<g id="a_node23"><a xlink:href="MatrixDynSize_8h.html" target="_top" xlink:title="iDynTree/Core/MatrixDynSize.h">
<polygon fill="none" stroke="#000000" points="353.5,-224.5 353.5,-243.5 520.5,-243.5 520.5,-224.5 353.5,-224.5"/>
<text text-anchor="middle" x="437" y="-231.5" font-family="FreeSans.ttf" font-size="10.00" fill="#000000">iDynTree/Core/MatrixDynSize.h</text>
</a>
</g>
</g>
<!-- Node11&#45;&gt;Node22 -->
<g id="edge30" class="edge">
<title>Node11&#45;&gt;Node22</title>
<path fill="none" stroke="#191970" d="M437.9434,-392.4862C437.7853,-365.9293 437.3367,-290.5651 437.12,-254.1655"/>
<polygon fill="#191970" stroke="#191970" points="440.6181,-253.8068 437.0585,-243.8279 433.6182,-253.8486 440.6181,-253.8068"/>
</g>
<!-- Node23 -->
<g id="node24" class="node">
<title>Node23</title>
<g id="a_node24"><a xlink:href="Transform_8h.html" target="_top" xlink:title="iDynTree/Core/Transform.h">
<polygon fill="none" stroke="#000000" points="685,-336.5 685,-355.5 831,-355.5 831,-336.5 685,-336.5"/>
<text text-anchor="middle" x="758" y="-343.5" font-family="FreeSans.ttf" font-size="10.00" fill="#000000">iDynTree/Core/Transform.h</text>
</a>
</g>
</g>
<!-- Node11&#45;&gt;Node23 -->
<g id="edge32" class="edge">
<title>Node11&#45;&gt;Node23</title>
<path fill="none" stroke="#191970" d="M492.6464,-392.4369C548.3323,-382.6918 634.6675,-367.5832 693.6316,-357.2645"/>
<polygon fill="#191970" stroke="#191970" points="694.3321,-360.6952 703.579,-355.5237 693.1254,-353.7999 694.3321,-360.6952"/>
</g>
<!-- Node12&#45;&gt;Node6 -->
<g id="edge29" class="edge">
<title>Node12&#45;&gt;Node6</title>
<path fill="none" stroke="#191970" d="M545.8016,-280.4124C538.5061,-247.6444 516.5257,-140.5557 534,-112 546.5366,-91.5132 571.3957,-79.7836 591.8165,-73.3035"/>
<polygon fill="#191970" stroke="#191970" points="593.0673,-76.5855 601.7059,-70.4516 591.1276,-69.8595 593.0673,-76.5855"/>
</g>
<!-- Node13 -->
<g id="node14" class="node">
<title>Node13</title>
<g id="a_node14"><a xlink:href="Span_8h.html" target="_top" xlink:title="iDynTree/Core/Span.h">
<polygon fill="none" stroke="#000000" points="679.5,-56.5 679.5,-75.5 800.5,-75.5 800.5,-56.5 679.5,-56.5"/>
<text text-anchor="middle" x="740" y="-63.5" font-family="FreeSans.ttf" font-size="10.00" fill="#000000">iDynTree/Core/Span.h</text>
</a>
</g>
</g>
<!-- Node12&#45;&gt;Node13 -->
<g id="edge19" class="edge">
<title>Node12&#45;&gt;Node13</title>
<path fill="none" stroke="#191970" d="M555.0784,-280.2528C570.454,-259.2312 608.3154,-208.2761 643,-168 669.8886,-136.7767 703.4382,-102.4335 723.2089,-82.626"/>
<polygon fill="#191970" stroke="#191970" points="725.6971,-85.0876 730.306,-75.5477 720.7539,-80.1312 725.6971,-85.0876"/>
</g>
<!-- Node13&#45;&gt;Node3 -->
<g id="edge23" class="edge">
<title>Node13&#45;&gt;Node3</title>
<path fill="none" stroke="#191970" d="M679.2094,-58.679C581.1993,-46.8756 391.2098,-23.9952 311.5461,-14.4013"/>
<polygon fill="#191970" stroke="#191970" points="311.8482,-10.9124 301.5014,-13.1916 311.0112,-17.8622 311.8482,-10.9124"/>
</g>
<!-- Node13&#45;&gt;Node14 -->
<g id="edge20" class="edge">
<title>Node13&#45;&gt;Node14</title>
<path fill="none" stroke="#191970" d="M800.5907,-56.6269C876.3171,-44.9123 1003.5057,-25.2367 1065.6337,-15.6257"/>
<polygon fill="#191970" stroke="#191970" points="1066.3931,-19.05 1075.7404,-14.0623 1065.3229,-12.1323 1066.3931,-19.05"/>
</g>
<!-- Node15 -->
<g id="node16" class="node">
<title>Node15</title>
<polygon fill="none" stroke="#bfbfbf" points="781,-.5 781,-19.5 845,-19.5 845,-.5 781,-.5"/>
<text text-anchor="middle" x="813" y="-7.5" font-family="FreeSans.ttf" font-size="10.00" fill="#000000">algorithm</text>
</g>
<!-- Node13&#45;&gt;Node15 -->
<g id="edge21" class="edge">
<title>Node13&#45;&gt;Node15</title>
<path fill="none" stroke="#191970" d="M752.7156,-56.2455C763.602,-47.8943 779.4883,-35.7076 792.22,-25.9408"/>
<polygon fill="#191970" stroke="#191970" points="794.6261,-28.5063 800.4301,-19.6427 790.3654,-22.9523 794.6261,-28.5063"/>
</g>
<!-- Node16 -->
<g id="node17" class="node">
<title>Node16</title>
<polygon fill="none" stroke="#bfbfbf" points="863,-.5 863,-19.5 905,-19.5 905,-.5 863,-.5"/>
<text text-anchor="middle" x="884" y="-7.5" font-family="FreeSans.ttf" font-size="10.00" fill="#000000">array</text>
</g>
<!-- Node13&#45;&gt;Node16 -->
<g id="edge22" class="edge">
<title>Node13&#45;&gt;Node16</title>
<path fill="none" stroke="#191970" d="M764.7545,-56.3733C789.2831,-46.8343 826.9096,-32.2018 853.3214,-21.9306"/>
<polygon fill="#191970" stroke="#191970" points="854.7927,-25.1138 862.8442,-18.2273 852.2555,-18.5898 854.7927,-25.1138"/>
</g>
<!-- Node17 -->
<g id="node18" class="node">
<title>Node17</title>
<polygon fill="none" stroke="#bfbfbf" points="923.5,-.5 923.5,-19.5 976.5,-19.5 976.5,-.5 923.5,-.5"/>
<text text-anchor="middle" x="950" y="-7.5" font-family="FreeSans.ttf" font-size="10.00" fill="#000000">iterator</text>
</g>
<!-- Node13&#45;&gt;Node17 -->
<g id="edge24" class="edge">
<title>Node13&#45;&gt;Node17</title>
<path fill="none" stroke="#191970" d="M776.6967,-56.4408C809.8708,-47.7675 860.3069,-34.5031 913.344,-20.1548"/>
<polygon fill="#191970" stroke="#191970" points="914.5375,-23.4577 923.2739,-17.4639 912.7065,-16.7014 914.5375,-23.4577"/>
</g>
<!-- Node18 -->
<g id="node19" class="node">
<title>Node18</title>
<polygon fill="none" stroke="#bfbfbf" points="485,-.5 485,-19.5 529,-19.5 529,-.5 485,-.5"/>
<text text-anchor="middle" x="507" y="-7.5" font-family="FreeSans.ttf" font-size="10.00" fill="#000000">limits</text>
</g>
<!-- Node13&#45;&gt;Node18 -->
<g id="edge25" class="edge">
<title>Node13&#45;&gt;Node18</title>
<path fill="none" stroke="#191970" d="M693.4423,-56.4212C652.5399,-47.7504 591.5287,-34.1952 539,-20 538.9017,-19.9734 538.8032,-19.9468 538.7046,-19.92"/>
<polygon fill="#191970" stroke="#191970" points="539.8926,-16.6199 529.3146,-17.2168 537.956,-23.3467 539.8926,-16.6199"/>
</g>
<!-- Node19 -->
<g id="node20" class="node">
<title>Node19</title>
<polygon fill="none" stroke="#bfbfbf" points="547.5,-.5 547.5,-19.5 612.5,-19.5 612.5,-.5 547.5,-.5"/>
<text text-anchor="middle" x="580" y="-7.5" font-family="FreeSans.ttf" font-size="10.00" fill="#000000">stdexcept</text>
</g>
<!-- Node13&#45;&gt;Node19 -->
<g id="edge26" class="edge">
<title>Node13&#45;&gt;Node19</title>
<path fill="none" stroke="#191970" d="M712.495,-56.3733C686.1198,-47.1419 646.1149,-33.1402 616.9642,-22.9375"/>
<polygon fill="#191970" stroke="#191970" points="617.7409,-19.5012 607.1461,-19.5011 615.4284,-26.1082 617.7409,-19.5012"/>
</g>
<!-- Node20 -->
<g id="node21" class="node">
<title>Node20</title>
<polygon fill="none" stroke="#bfbfbf" points="630.5,-.5 630.5,-19.5 699.5,-19.5 699.5,-.5 630.5,-.5"/>
<text text-anchor="middle" x="665" y="-7.5" font-family="FreeSans.ttf" font-size="10.00" fill="#000000">type_traits</text>
</g>
<!-- Node13&#45;&gt;Node20 -->
<g id="edge27" class="edge">
<title>Node13&#45;&gt;Node20</title>
<path fill="none" stroke="#191970" d="M726.936,-56.2455C715.6438,-47.814 699.1155,-35.4729 685.9729,-25.6598"/>
<polygon fill="#191970" stroke="#191970" points="688.0211,-22.8211 677.9143,-19.6427 683.8331,-28.4301 688.0211,-22.8211"/>
</g>
<!-- Node21 -->
<g id="node22" class="node">
<title>Node21</title>
<polygon fill="none" stroke="#bfbfbf" points="717.5,-.5 717.5,-19.5 762.5,-19.5 762.5,-.5 717.5,-.5"/>
<text text-anchor="middle" x="740" y="-7.5" font-family="FreeSans.ttf" font-size="10.00" fill="#000000">utility</text>
</g>
<!-- Node13&#45;&gt;Node21 -->
<g id="edge28" class="edge">
<title>Node13&#45;&gt;Node21</title>
<path fill="none" stroke="#191970" d="M740,-56.2455C740,-48.9382 740,-38.6944 740,-29.7046"/>
<polygon fill="#191970" stroke="#191970" points="743.5001,-29.6426 740,-19.6427 736.5001,-29.6427 743.5001,-29.6426"/>
</g>
<!-- Node22&#45;&gt;Node6 -->
<g id="edge31" class="edge">
<title>Node22&#45;&gt;Node6</title>
<path fill="none" stroke="#191970" d="M439.0521,-224.2482C444.3607,-201.3701 460.6703,-143.7878 496,-112 522.9284,-87.7712 563.5458,-76.0622 591.7772,-70.5684"/>
<polygon fill="#191970" stroke="#191970" points="592.7075,-73.9577 601.9364,-68.7541 591.4768,-67.0668 592.7075,-73.9577"/>
</g>
<!-- Node23&#45;&gt;Node6 -->
<g id="edge60" class="edge">
<title>Node23&#45;&gt;Node6</title>
<path fill="none" stroke="#191970" d="M732.6118,-336.3429C715.8272,-328.7749 694.5071,-316.7135 681,-300 628.6471,-235.2192 623.2561,-129.5723 623.4411,-85.8799"/>
<polygon fill="#191970" stroke="#191970" points="626.943,-85.7761 623.5948,-75.7243 619.9438,-85.6701 626.943,-85.7761"/>
</g>
<!-- Node24 -->
<g id="node25" class="node">
<title>Node24</title>
<g id="a_node25"><a xlink:href="Position_8h.html" target="_top" xlink:title="iDynTree/Core/Position.h">
<polygon fill="none" stroke="#000000" points="690,-280.5 690,-299.5 826,-299.5 826,-280.5 690,-280.5"/>
<text text-anchor="middle" x="758" y="-287.5" font-family="FreeSans.ttf" font-size="10.00" fill="#000000">iDynTree/Core/Position.h</text>
</a>
</g>
</g>
<!-- Node23&#45;&gt;Node24 -->
<g id="edge33" class="edge">
<title>Node23&#45;&gt;Node24</title>
<path fill="none" stroke="#191970" d="M758,-336.2455C758,-328.9382 758,-318.6944 758,-309.7046"/>
<polygon fill="#191970" stroke="#191970" points="761.5001,-309.6426 758,-299.6427 754.5001,-309.6427 761.5001,-309.6426"/>
</g>
<!-- Node29 -->
<g id="node30" class="node">
<title>Node29</title>
<g id="a_node30"><a xlink:href="Rotation_8h.html" target="_top" xlink:title="iDynTree/Core/Rotation.h">
<polygon fill="none" stroke="#000000" points="854.5,-224.5 854.5,-243.5 991.5,-243.5 991.5,-224.5 854.5,-224.5"/>
<text text-anchor="middle" x="923" y="-231.5" font-family="FreeSans.ttf" font-size="10.00" fill="#000000">iDynTree/Core/Rotation.h</text>
</a>
</g>
</g>
<!-- Node23&#45;&gt;Node29 -->
<g id="edge58" class="edge">
<title>Node23&#45;&gt;Node29</title>
<path fill="none" stroke="#191970" d="M775.1399,-336.4495C790.9577,-327.4751 814.9576,-313.4487 835,-300 858.9022,-283.9614 885.1641,-263.9297 902.7212,-250.1669"/>
<polygon fill="#191970" stroke="#191970" points="905.3674,-252.5374 911.0504,-243.5956 901.0316,-247.0418 905.3674,-252.5374"/>
</g>
<!-- Node32 -->
<g id="node33" class="node">
<title>Node32</title>
<g id="a_node33"><a xlink:href="MatrixFixSize_8h.html" target="_top" xlink:title="iDynTree/Core/MatrixFixSize.h">
<polygon fill="none" stroke="#000000" points="1044.5,-112.5 1044.5,-131.5 1205.5,-131.5 1205.5,-112.5 1044.5,-112.5"/>
<text text-anchor="middle" x="1125" y="-119.5" font-family="FreeSans.ttf" font-size="10.00" fill="#000000">iDynTree/Core/MatrixFixSize.h</text>
</a>
</g>
</g>
<!-- Node23&#45;&gt;Node32 -->
<g id="edge59" class="edge">
<title>Node23&#45;&gt;Node32</title>
<path fill="none" stroke="#191970" d="M809.7785,-336.4328C921.4309,-314.6399 1178.825,-257.7545 1229,-188 1247.0342,-162.9285 1211.6211,-145.1397 1177.3255,-134.3959"/>
<polygon fill="#191970" stroke="#191970" points="1178.3097,-131.0372 1167.7274,-131.5522 1176.3212,-137.7488 1178.3097,-131.0372"/>
</g>
<!-- Node24&#45;&gt;Node6 -->
<g id="edge57" class="edge">
<title>Node24&#45;&gt;Node6</title>
<path fill="none" stroke="#191970" d="M741.6669,-280.4003C707.407,-259.0492 629.5808,-203.7963 610,-132 605.7686,-116.4847 610.1028,-98.6277 615.032,-85.4035"/>
<polygon fill="#191970" stroke="#191970" points="618.3651,-86.5026 618.9604,-75.9245 611.8984,-83.8226 618.3651,-86.5026"/>
</g>
<!-- Node25 -->
<g id="node26" class="node">
<title>Node25</title>
<g id="a_node26"><a xlink:href="PositionRaw_8h.html" target="_top" xlink:title="iDynTree/Core/PositionRaw.h">
<polygon fill="none" stroke="#000000" points="652,-168.5 652,-187.5 808,-187.5 808,-168.5 652,-168.5"/>
<text text-anchor="middle" x="730" y="-175.5" font-family="FreeSans.ttf" font-size="10.00" fill="#000000">iDynTree/Core/PositionRaw.h</text>
</a>
</g>
</g>
<!-- Node24&#45;&gt;Node25 -->
<g id="edge34" class="edge">
<title>Node24&#45;&gt;Node25</title>
<path fill="none" stroke="#191970" d="M755.6127,-280.4509C751.0253,-262.1013 740.8977,-221.5908 734.8423,-197.3693"/>
<polygon fill="#191970" stroke="#191970" points="738.2022,-196.3774 732.3812,-187.5249 731.4112,-198.0752 738.2022,-196.3774"/>
</g>
<!-- Node24&#45;&gt;Node29 -->
<g id="edge43" class="edge">
<title>Node24&#45;&gt;Node29</title>
<path fill="none" stroke="#191970" d="M786.3645,-280.3733C813.6827,-271.1016 855.1796,-257.0178 885.2738,-246.804"/>
<polygon fill="#191970" stroke="#191970" points="886.661,-250.0294 895.0056,-243.5011 884.4113,-243.4008 886.661,-250.0294"/>
</g>
<!-- Node25&#45;&gt;Node6 -->
<g id="edge42" class="edge">
<title>Node25&#45;&gt;Node6</title>
<path fill="none" stroke="#191970" d="M720.9625,-168.4509C702.9701,-149.4401 662.4651,-106.6423 639.9152,-82.816"/>
<polygon fill="#191970" stroke="#191970" points="642.4305,-80.382 633.0146,-75.5249 637.3465,-85.1937 642.4305,-80.382"/>
</g>
<!-- Node26 -->
<g id="node27" class="node">
<title>Node26</title>
<g id="a_node27"><a xlink:href="VectorFixSize_8h.html" target="_top" xlink:title="iDynTree/Core/VectorFixSize.h">
<polygon fill="none" stroke="#000000" points="865.5,-112.5 865.5,-131.5 1026.5,-131.5 1026.5,-112.5 865.5,-112.5"/>
<text text-anchor="middle" x="946" y="-119.5" font-family="FreeSans.ttf" font-size="10.00" fill="#000000">iDynTree/Core/VectorFixSize.h</text>
</a>
</g>
</g>
<!-- Node25&#45;&gt;Node26 -->
<g id="edge35" class="edge">
<title>Node25&#45;&gt;Node26</title>
<path fill="none" stroke="#191970" d="M767.1317,-168.3733C803.8267,-158.8598 860.0639,-144.2797 899.6651,-134.0127"/>
<polygon fill="#191970" stroke="#191970" points="900.5512,-137.3988 909.3528,-131.5011 898.7944,-130.6228 900.5512,-137.3988"/>
</g>
<!-- Node26&#45;&gt;Node6 -->
<g id="edge38" class="edge">
<title>Node26&#45;&gt;Node6</title>
<path fill="none" stroke="#191970" d="M884.4258,-112.493C828.602,-103.6856 744.1178,-89.8869 671,-76 666.231,-75.0943 661.2018,-74.0836 656.2771,-73.0626"/>
<polygon fill="#191970" stroke="#191970" points="656.9394,-69.6253 646.4318,-70.9824 655.4923,-76.4741 656.9394,-69.6253"/>
</g>
<!-- Node26&#45;&gt;Node7 -->
<g id="edge36" class="edge">
<title>Node26&#45;&gt;Node7</title>
<path fill="none" stroke="#191970" d="M865.4896,-113.5252C761.5476,-102.584 582.3609,-83.7222 483.8779,-73.3556"/>
<polygon fill="#191970" stroke="#191970" points="484.0438,-69.8538 473.7323,-72.2876 483.311,-76.8153 484.0438,-69.8538"/>
</g>
<!-- Node26&#45;&gt;Node13 -->
<g id="edge37" class="edge">
<title>Node26&#45;&gt;Node13</title>
<path fill="none" stroke="#191970" d="M910.5873,-112.3733C875.7395,-102.9001 822.4118,-88.4032 784.6707,-78.1435"/>
<polygon fill="#191970" stroke="#191970" points="785.5185,-74.747 774.9506,-75.5011 783.6822,-81.5019 785.5185,-74.747"/>
</g>
<!-- Node26&#45;&gt;Node14 -->
<g id="edge40" class="edge">
<title>Node26&#45;&gt;Node14</title>
<path fill="none" stroke="#191970" d="M942.3013,-112.367C937.6354,-98.429 931.6153,-72.5046 944,-56 958.622,-36.5138 1023.8854,-22.5752 1065.8261,-15.441"/>
<polygon fill="#191970" stroke="#191970" points="1066.6435,-18.8536 1075.9415,-13.7746 1065.5056,-11.9467 1066.6435,-18.8536"/>
</g>
<!-- Node27 -->
<g id="node28" class="node">
<title>Node27</title>
<polygon fill="none" stroke="#bfbfbf" points="953,-56.5 953,-75.5 1009,-75.5 1009,-56.5 953,-56.5"/>
<text text-anchor="middle" x="981" y="-63.5" font-family="FreeSans.ttf" font-size="10.00" fill="#000000">sstream</text>
</g>
<!-- Node26&#45;&gt;Node27 -->
<g id="edge39" class="edge">
<title>Node26&#45;&gt;Node27</title>
<path fill="none" stroke="#191970" d="M952.0965,-112.2455C956.9145,-104.5367 963.7751,-93.5598 969.6032,-84.2348"/>
<polygon fill="#191970" stroke="#191970" points="972.6413,-85.9777 974.9733,-75.6427 966.7053,-82.2677 972.6413,-85.9777"/>
</g>
<!-- Node28 -->
<g id="node29" class="node">
<title>Node28</title>
<polygon fill="none" stroke="#bfbfbf" points="1027,-56.5 1027,-75.5 1077,-75.5 1077,-56.5 1027,-56.5"/>
<text text-anchor="middle" x="1052" y="-63.5" font-family="FreeSans.ttf" font-size="10.00" fill="#000000">cstring</text>
</g>
<!-- Node26&#45;&gt;Node28 -->
<g id="edge41" class="edge">
<title>Node26&#45;&gt;Node28</title>
<path fill="none" stroke="#191970" d="M964.4638,-112.2455C981.1074,-103.4527 1005.7993,-90.4079 1024.7192,-80.4125"/>
<polygon fill="#191970" stroke="#191970" points="1026.5408,-83.4086 1033.7478,-75.6427 1023.2709,-77.2193 1026.5408,-83.4086"/>
</g>
<!-- Node29&#45;&gt;Node6 -->
<g id="edge44" class="edge">
<title>Node29&#45;&gt;Node6</title>
<path fill="none" stroke="#191970" d="M908.4517,-224.4851C888.206,-211.3496 850.2695,-187.1171 817,-168 759.5367,-134.9809 690.5214,-99.4768 652.55,-80.2902"/>
<polygon fill="#191970" stroke="#191970" points="653.6498,-76.9252 643.1445,-75.5509 650.4999,-83.1765 653.6498,-76.9252"/>
</g>
<!-- Node29&#45;&gt;Node26 -->
<g id="edge56" class="edge">
<title>Node29&#45;&gt;Node26</title>
<path fill="none" stroke="#191970" d="M991.5817,-227.7765C1072.7483,-219.7046 1198.766,-204.6697 1213,-188 1218.7721,-181.2402 1218.727,-174.7981 1213,-168 1206.8459,-160.6949 1100.979,-144.1367 1024.432,-133.0112"/>
<polygon fill="#191970" stroke="#191970" points="1024.7087,-129.5149 1014.3106,-131.5468 1023.7063,-136.4427 1024.7087,-129.5149"/>
</g>
<!-- Node30 -->
<g id="node31" class="node">
<title>Node30</title>
<g id="a_node31"><a xlink:href="GeomVector3_8h.html" target="_top" xlink:title="iDynTree/Core/GeomVector3.h">
<polygon fill="none" stroke="#000000" points="864.5,-168.5 864.5,-187.5 1027.5,-187.5 1027.5,-168.5 864.5,-168.5"/>
<text text-anchor="middle" x="946" y="-175.5" font-family="FreeSans.ttf" font-size="10.00" fill="#000000">iDynTree/Core/GeomVector3.h</text>
</a>
</g>
</g>
<!-- Node29&#45;&gt;Node30 -->
<g id="edge45" class="edge">
<title>Node29&#45;&gt;Node30</title>
<path fill="none" stroke="#191970" d="M927.0063,-224.2455C930.0735,-216.7776 934.4003,-206.2427 938.1497,-197.1137"/>
<polygon fill="#191970" stroke="#191970" points="941.4779,-198.2226 942.0396,-187.6427 935.0028,-195.5631 941.4779,-198.2226"/>
</g>
<!-- Node31 -->
<g id="node32" class="node">
<title>Node31</title>
<g id="a_node32"><a xlink:href="RotationRaw_8h.html" target="_top" xlink:title="iDynTree/Core/RotationRaw.h">
<polygon fill="none" stroke="#000000" points="1046,-168.5 1046,-187.5 1204,-187.5 1204,-168.5 1046,-168.5"/>
<text text-anchor="middle" x="1125" y="-175.5" font-family="FreeSans.ttf" font-size="10.00" fill="#000000">iDynTree/Core/RotationRaw.h</text>
</a>
</g>
</g>
<!-- Node29&#45;&gt;Node31 -->
<g id="edge47" class="edge">
<title>Node29&#45;&gt;Node31</title>
<path fill="none" stroke="#191970" d="M957.725,-224.3733C991.7508,-214.9404 1043.7437,-200.5265 1080.7234,-190.2747"/>
<polygon fill="#191970" stroke="#191970" points="1082.0266,-193.5455 1090.7281,-187.5011 1080.1565,-186.7999 1082.0266,-193.5455"/>
</g>
<!-- Node30&#45;&gt;Node26 -->
<g id="edge46" class="edge">
<title>Node30&#45;&gt;Node26</title>
<path fill="none" stroke="#191970" d="M946,-168.2455C946,-160.9382 946,-150.6944 946,-141.7046"/>
<polygon fill="#191970" stroke="#191970" points="949.5001,-141.6426 946,-131.6427 942.5001,-141.6427 949.5001,-141.6426"/>
</g>
<!-- Node31&#45;&gt;Node6 -->
<g id="edge55" class="edge">
<title>Node31&#45;&gt;Node6</title>
<path fill="none" stroke="#191970" d="M1057.9186,-168.4942C991.1623,-158.674 893.5498,-143.2384 857,-132 836.4677,-125.6867 833.3031,-119.0153 813,-112 784.2023,-102.0496 702.1007,-83.2724 656.1464,-73.0553"/>
<polygon fill="#191970" stroke="#191970" points="656.6282,-69.5773 646.1079,-70.8318 655.1143,-76.4116 656.6282,-69.5773"/>
</g>
<!-- Node31&#45;&gt;Node32 -->
<g id="edge48" class="edge">
<title>Node31&#45;&gt;Node32</title>
<path fill="none" stroke="#191970" d="M1125,-168.2455C1125,-160.9382 1125,-150.6944 1125,-141.7046"/>
<polygon fill="#191970" stroke="#191970" points="1128.5001,-141.6426 1125,-131.6427 1121.5001,-141.6427 1128.5001,-141.6426"/>
</g>
<!-- Node32&#45;&gt;Node6 -->
<g id="edge52" class="edge">
<title>Node32&#45;&gt;Node6</title>
<path fill="none" stroke="#191970" d="M1044.4751,-112.9027C1041.6152,-112.5954 1038.7833,-112.2936 1036,-112 873.8901,-94.899 832.0808,-101.0005 671,-76 666.2032,-75.2555 661.1588,-74.3328 656.2272,-73.3514"/>
<polygon fill="#191970" stroke="#191970" points="656.8829,-69.9129 646.3783,-71.2928 655.4506,-76.7648 656.8829,-69.9129"/>
</g>
<!-- Node32&#45;&gt;Node7 -->
<g id="edge49" class="edge">
<title>Node32&#45;&gt;Node7</title>
<path fill="none" stroke="#191970" d="M1044.4839,-112.8143C1041.6215,-112.532 1038.7867,-112.2595 1036,-112 835.8456,-93.361 598.8843,-77.5644 483.759,-70.2898"/>
<polygon fill="#191970" stroke="#191970" points="483.8727,-66.7901 473.6725,-69.6545 483.4327,-73.7762 483.8727,-66.7901"/>
</g>
<!-- Node32&#45;&gt;Node14 -->
<g id="edge50" class="edge">
<title>Node32&#45;&gt;Node14</title>
<path fill="none" stroke="#191970" d="M1137.6451,-112.3905C1152.6521,-99.7426 1174.4103,-76.6864 1164,-56 1157.3263,-42.7387 1144.8207,-32.3415 1132.7793,-24.8125"/>
<polygon fill="#191970" stroke="#191970" points="1134.177,-21.5783 1123.7658,-19.6143 1130.6799,-27.6422 1134.177,-21.5783"/>
</g>
<!-- Node32&#45;&gt;Node27 -->
<g id="edge54" class="edge">
<title>Node32&#45;&gt;Node27</title>
<path fill="none" stroke="#191970" d="M1100.2455,-112.3733C1076.7151,-103.2226 1041.1313,-89.3844 1014.9574,-79.2057"/>
<polygon fill="#191970" stroke="#191970" points="1016.0201,-75.8636 1005.4315,-75.5011 1013.4829,-82.3877 1016.0201,-75.8636"/>
</g>
<!-- Node32&#45;&gt;Node28 -->
<g id="edge51" class="edge">
<title>Node32&#45;&gt;Node28</title>
<path fill="none" stroke="#191970" d="M1112.2844,-112.2455C1101.398,-103.8943 1085.5117,-91.7076 1072.78,-81.9408"/>
<polygon fill="#191970" stroke="#191970" points="1074.6346,-78.9523 1064.5699,-75.6427 1070.3739,-84.5063 1074.6346,-78.9523"/>
</g>
<!-- Node33 -->
<g id="node34" class="node">
<title>Node33</title>
<polygon fill="none" stroke="#bfbfbf" points="1095,-56.5 1095,-75.5 1155,-75.5 1155,-56.5 1095,-56.5"/>
<text text-anchor="middle" x="1125" y="-63.5" font-family="FreeSans.ttf" font-size="10.00" fill="#000000">iostream</text>
</g>
<!-- Node32&#45;&gt;Node33 -->
<g id="edge53" class="edge">
<title>Node32&#45;&gt;Node33</title>
<path fill="none" stroke="#191970" d="M1125,-112.2455C1125,-104.9382 1125,-94.6944 1125,-85.7046"/>
<polygon fill="#191970" stroke="#191970" points="1128.5001,-85.6426 1125,-75.6427 1121.5001,-85.6427 1128.5001,-85.6426"/>
</g>
</g>
</svg>
