<?xml version="1.0" encoding="UTF-8" standalone="no"?>
<!DOCTYPE svg PUBLIC "-//W3C//DTD SVG 1.1//EN"
 "http://www.w3.org/Graphics/SVG/1.1/DTD/svg11.dtd">
<!-- Generated by graphviz version 2.40.1 (20161225.0304)
 -->
<!-- Title: OriginElement.cpp Pages: 1 -->
<svg width="1405pt" height="476pt"
 viewBox="0.00 0.00 1404.50 476.00" xmlns="http://www.w3.org/2000/svg" xmlns:xlink="http://www.w3.org/1999/xlink">
<g id="graph0" class="graph" transform="scale(1 1) rotate(0) translate(4 472)">
<title>OriginElement.cpp</title>
<!-- Node0 -->
<g id="node1" class="node">
<title>Node0</title>
<polygon fill="#bfbfbf" stroke="#000000" points="589,-448.5 589,-467.5 696,-467.5 696,-448.5 589,-448.5"/>
<text text-anchor="middle" x="642.5" y="-455.5" font-family="FreeSans.ttf" font-size="10.00" fill="#000000">OriginElement.cpp</text>
</g>
<!-- Node1 -->
<g id="node2" class="node">
<title>Node1</title>
<g id="a_node2"><a xlink:href="OriginElement_8h.html" target="_top" xlink:title="OriginElement.h">
<polygon fill="none" stroke="#000000" points="173,-392.5 173,-411.5 268,-411.5 268,-392.5 173,-392.5"/>
<text text-anchor="middle" x="220.5" y="-399.5" font-family="FreeSans.ttf" font-size="10.00" fill="#000000">OriginElement.h</text>
</a>
</g>
</g>
<!-- Node0&#45;&gt;Node1 -->
<g id="edge1" class="edge">
<title>Node0&#45;&gt;Node1</title>
<path fill="none" stroke="#191970" d="M588.6248,-450.8507C508.9308,-440.2752 360.2463,-420.5445 278.3348,-409.6748"/>
<polygon fill="#191970" stroke="#191970" points="278.5754,-406.1761 268.2019,-408.3301 277.6545,-413.1153 278.5754,-406.1761"/>
</g>
<!-- Node8 -->
<g id="node9" class="node">
<title>Node8</title>
<g id="a_node9"><a xlink:href="URDFParsingUtils_8h.html" target="_top" xlink:title="URDFParsingUtils.h">
<polygon fill="none" stroke="#000000" points="1005.5,-392.5 1005.5,-411.5 1115.5,-411.5 1115.5,-392.5 1005.5,-392.5"/>
<text text-anchor="middle" x="1060.5" y="-399.5" font-family="FreeSans.ttf" font-size="10.00" fill="#000000">URDFParsingUtils.h</text>
</a>
</g>
</g>
<!-- Node0&#45;&gt;Node8 -->
<g id="edge9" class="edge">
<title>Node0&#45;&gt;Node8</title>
<path fill="none" stroke="#191970" d="M696.2905,-450.7936C772.8091,-440.5423 912.9165,-421.772 995.2615,-410.7401"/>
<polygon fill="#191970" stroke="#191970" points="995.8082,-414.1982 1005.2549,-409.4013 994.8786,-407.2602 995.8082,-414.1982"/>
</g>
<!-- Node12 -->
<g id="node13" class="node">
<title>Node12</title>
<g id="a_node13"><a xlink:href="Transform_8h.html" target="_top" xlink:title="iDynTree/Core/Transform.h">
<polygon fill="none" stroke="#000000" points="661.5,-336.5 661.5,-355.5 807.5,-355.5 807.5,-336.5 661.5,-336.5"/>
<text text-anchor="middle" x="734.5" y="-343.5" font-family="FreeSans.ttf" font-size="10.00" fill="#000000">iDynTree/Core/Transform.h</text>
</a>
</g>
</g>
<!-- Node0&#45;&gt;Node12 -->
<g id="edge59" class="edge">
<title>Node0&#45;&gt;Node12</title>
<path fill="none" stroke="#191970" d="M650.3439,-448.4509C665.8242,-429.6054 700.5053,-387.3849 720.1727,-363.4419"/>
<polygon fill="#191970" stroke="#191970" points="723.0331,-365.4738 726.676,-355.5249 717.624,-361.0306 723.0331,-365.4738"/>
</g>
<!-- Node35 -->
<g id="node36" class="node">
<title>Node35</title>
<g id="a_node36"><a xlink:href="XMLAttribute_8h.html" target="_top" xlink:title="iDynTree/XMLAttribute.h">
<polygon fill="none" stroke="#000000" points="309.5,-224.5 309.5,-243.5 443.5,-243.5 443.5,-224.5 309.5,-224.5"/>
<text text-anchor="middle" x="376.5" y="-231.5" font-family="FreeSans.ttf" font-size="10.00" fill="#000000">iDynTree/XMLAttribute.h</text>
</a>
</g>
</g>
<!-- Node0&#45;&gt;Node35 -->
<g id="edge57" class="edge">
<title>Node0&#45;&gt;Node35</title>
<path fill="none" stroke="#191970" d="M631.0703,-448.375C589.7176,-413.5517 447.6041,-293.8771 395.6864,-250.1569"/>
<polygon fill="#191970" stroke="#191970" points="397.7907,-247.3533 387.8871,-243.5891 393.2818,-252.7077 397.7907,-247.3533"/>
</g>
<!-- Node2 -->
<g id="node3" class="node">
<title>Node2</title>
<g id="a_node3"><a xlink:href="XMLElement_8h.html" target="_top" xlink:title="iDynTree/XMLElement.h">
<polygon fill="none" stroke="#000000" points="154.5,-336.5 154.5,-355.5 286.5,-355.5 286.5,-336.5 154.5,-336.5"/>
<text text-anchor="middle" x="220.5" y="-343.5" font-family="FreeSans.ttf" font-size="10.00" fill="#000000">iDynTree/XMLElement.h</text>
</a>
</g>
</g>
<!-- Node1&#45;&gt;Node2 -->
<g id="edge2" class="edge">
<title>Node1&#45;&gt;Node2</title>
<path fill="none" stroke="#191970" d="M220.5,-392.2455C220.5,-384.9382 220.5,-374.6944 220.5,-365.7046"/>
<polygon fill="#191970" stroke="#191970" points="224.0001,-365.6426 220.5,-355.6427 217.0001,-365.6427 224.0001,-365.6426"/>
</g>
<!-- Node6 -->
<g id="node7" class="node">
<title>Node6</title>
<polygon fill="none" stroke="#bfbfbf" points="0,-280.5 0,-299.5 93,-299.5 93,-280.5 0,-280.5"/>
<text text-anchor="middle" x="46.5" y="-287.5" font-family="FreeSans.ttf" font-size="10.00" fill="#000000">unordered_map</text>
</g>
<!-- Node1&#45;&gt;Node6 -->
<g id="edge8" class="edge">
<title>Node1&#45;&gt;Node6</title>
<path fill="none" stroke="#191970" d="M204.5897,-392.4805C189.3334,-383.2961 165.7019,-368.9227 145.5,-356 118.9414,-339.0111 88.8619,-318.8202 68.8998,-305.2838"/>
<polygon fill="#191970" stroke="#191970" points="70.7271,-302.294 60.4889,-299.5681 66.7927,-308.0836 70.7271,-302.294"/>
</g>
<!-- Node3 -->
<g id="node4" class="node">
<title>Node3</title>
<polygon fill="none" stroke="#bfbfbf" points="188,-280.5 188,-299.5 253,-299.5 253,-280.5 188,-280.5"/>
<text text-anchor="middle" x="220.5" y="-287.5" font-family="FreeSans.ttf" font-size="10.00" fill="#000000">functional</text>
</g>
<!-- Node2&#45;&gt;Node3 -->
<g id="edge3" class="edge">
<title>Node2&#45;&gt;Node3</title>
<path fill="none" stroke="#191970" d="M220.5,-336.2455C220.5,-328.9382 220.5,-318.6944 220.5,-309.7046"/>
<polygon fill="#191970" stroke="#191970" points="224.0001,-309.6426 220.5,-299.6427 217.0001,-309.6427 224.0001,-309.6426"/>
</g>
<!-- Node4 -->
<g id="node5" class="node">
<title>Node4</title>
<polygon fill="none" stroke="#bfbfbf" points="111.5,-280.5 111.5,-299.5 169.5,-299.5 169.5,-280.5 111.5,-280.5"/>
<text text-anchor="middle" x="140.5" y="-287.5" font-family="FreeSans.ttf" font-size="10.00" fill="#000000">memory</text>
</g>
<!-- Node2&#45;&gt;Node4 -->
<g id="edge4" class="edge">
<title>Node2&#45;&gt;Node4</title>
<path fill="none" stroke="#191970" d="M206.5651,-336.2455C194.4053,-327.7337 176.5536,-315.2375 162.4715,-305.3801"/>
<polygon fill="#191970" stroke="#191970" points="164.4747,-302.51 154.2752,-299.6427 160.4605,-308.2447 164.4747,-302.51"/>
</g>
<!-- Node5 -->
<g id="node6" class="node">
<title>Node5</title>
<polygon fill="none" stroke="#bfbfbf" points="636.5,-56.5 636.5,-75.5 680.5,-75.5 680.5,-56.5 636.5,-56.5"/>
<text text-anchor="middle" x="658.5" y="-63.5" font-family="FreeSans.ttf" font-size="10.00" fill="#000000">string</text>
</g>
<!-- Node2&#45;&gt;Node5 -->
<g id="edge5" class="edge">
<title>Node2&#45;&gt;Node5</title>
<path fill="none" stroke="#191970" d="M231.689,-336.4952C241.1719,-327.8718 254.4736,-314.3447 262.5,-300 277.4051,-273.3618 281.5,-264.5246 281.5,-234 281.5,-234 281.5,-234 281.5,-178 281.5,-106.3287 535.0377,-76.8867 626.2761,-68.6121"/>
<polygon fill="#191970" stroke="#191970" points="626.6699,-72.091 636.3244,-67.7274 626.056,-65.118 626.6699,-72.091"/>
</g>
<!-- Node2&#45;&gt;Node6 -->
<g id="edge6" class="edge">
<title>Node2&#45;&gt;Node6</title>
<path fill="none" stroke="#191970" d="M190.5883,-336.3733C161.6548,-327.0613 117.6389,-312.8953 85.8707,-302.671"/>
<polygon fill="#191970" stroke="#191970" points="86.6128,-299.2331 76.0213,-299.5011 84.4682,-305.8965 86.6128,-299.2331"/>
</g>
<!-- Node7 -->
<g id="node8" class="node">
<title>Node7</title>
<polygon fill="none" stroke="#bfbfbf" points="334,-280.5 334,-299.5 381,-299.5 381,-280.5 334,-280.5"/>
<text text-anchor="middle" x="357.5" y="-287.5" font-family="FreeSans.ttf" font-size="10.00" fill="#000000">vector</text>
</g>
<!-- Node2&#45;&gt;Node7 -->
<g id="edge7" class="edge">
<title>Node2&#45;&gt;Node7</title>
<path fill="none" stroke="#191970" d="M244.0511,-336.3733C266.3391,-327.2629 299.9937,-313.5062 324.8637,-303.3404"/>
<polygon fill="#191970" stroke="#191970" points="326.3239,-306.5247 334.2562,-299.5011 323.6753,-300.0451 326.3239,-306.5247"/>
</g>
<!-- Node8&#45;&gt;Node5 -->
<g id="edge13" class="edge">
<title>Node8&#45;&gt;Node5</title>
<path fill="none" stroke="#191970" d="M1070.5819,-392.2882C1079.1351,-383.5321 1091.1543,-369.9266 1098.5,-356 1112.7409,-329.0009 1117.5,-320.5246 1117.5,-290 1117.5,-290 1117.5,-290 1117.5,-234 1117.5,-203.4754 1121.2104,-188.3958 1098.5,-168 1029.35,-105.8977 983.1219,-152.642 892.5,-132 819.3821,-115.3451 735.051,-90.0199 690.2855,-76.0799"/>
<polygon fill="#191970" stroke="#191970" points="691.1576,-72.6855 680.5687,-73.0391 689.0669,-79.366 691.1576,-72.6855"/>
</g>
<!-- Node8&#45;&gt;Node7 -->
<g id="edge14" class="edge">
<title>Node8&#45;&gt;Node7</title>
<path fill="none" stroke="#191970" d="M1005.4642,-397.6922C926.8388,-391.1083 777.9855,-377.0483 652.5,-356 556.7097,-339.9326 445.2415,-312.6025 390.8277,-298.6916"/>
<polygon fill="#191970" stroke="#191970" points="391.5938,-295.2748 381.0373,-296.1758 389.8515,-302.0545 391.5938,-295.2748"/>
</g>
<!-- Node9 -->
<g id="node10" class="node">
<title>Node9</title>
<polygon fill="none" stroke="#bfbfbf" points="1298,-336.5 1298,-355.5 1345,-355.5 1345,-336.5 1298,-336.5"/>
<text text-anchor="middle" x="1321.5" y="-343.5" font-family="FreeSans.ttf" font-size="10.00" fill="#000000">cmath</text>
</g>
<!-- Node8&#45;&gt;Node9 -->
<g id="edge10" class="edge">
<title>Node8&#45;&gt;Node9</title>
<path fill="none" stroke="#191970" d="M1110.7095,-392.4458C1156.0175,-383.6337 1224.424,-369.8556 1283.5,-356 1284.9529,-355.6593 1286.4349,-355.3037 1287.9305,-354.9384"/>
<polygon fill="#191970" stroke="#191970" points="1288.9932,-358.28 1297.8325,-352.439 1287.28,-351.4929 1288.9932,-358.28"/>
</g>
<!-- Node10 -->
<g id="node11" class="node">
<title>Node10</title>
<polygon fill="none" stroke="#bfbfbf" points="964,-336.5 964,-355.5 1013,-355.5 1013,-336.5 964,-336.5"/>
<text text-anchor="middle" x="988.5" y="-343.5" font-family="FreeSans.ttf" font-size="10.00" fill="#000000">cstdlib</text>
</g>
<!-- Node8&#45;&gt;Node10 -->
<g id="edge11" class="edge">
<title>Node8&#45;&gt;Node10</title>
<path fill="none" stroke="#191970" d="M1047.9586,-392.2455C1037.2213,-383.8943 1021.5527,-371.7076 1008.9953,-361.9408"/>
<polygon fill="#191970" stroke="#191970" points="1010.9401,-359.0194 1000.8977,-355.6427 1006.6425,-364.5449 1010.9401,-359.0194"/>
</g>
<!-- Node11 -->
<g id="node12" class="node">
<title>Node11</title>
<polygon fill="none" stroke="#bfbfbf" points="1241.5,-56.5 1241.5,-75.5 1297.5,-75.5 1297.5,-56.5 1241.5,-56.5"/>
<text text-anchor="middle" x="1269.5" y="-63.5" font-family="FreeSans.ttf" font-size="10.00" fill="#000000">sstream</text>
</g>
<!-- Node8&#45;&gt;Node11 -->
<g id="edge12" class="edge">
<title>Node8&#45;&gt;Node11</title>
<path fill="none" stroke="#191970" d="M1115.6857,-396.2232C1177.6063,-386.3315 1269.5,-359.8799 1269.5,-290 1269.5,-290 1269.5,-290 1269.5,-178 1269.5,-145.7116 1269.5,-108.1872 1269.5,-85.8048"/>
<polygon fill="#191970" stroke="#191970" points="1273.0001,-85.5883 1269.5,-75.5884 1266.0001,-85.5884 1273.0001,-85.5883"/>
</g>
<!-- Node8&#45;&gt;Node12 -->
<g id="edge15" class="edge">
<title>Node8&#45;&gt;Node12</title>
<path fill="none" stroke="#191970" d="M1005.1985,-392.5004C948.5296,-382.7658 860.4251,-367.6313 800.2284,-357.2908"/>
<polygon fill="#191970" stroke="#191970" points="800.521,-353.7898 790.0727,-355.5462 799.3358,-360.6888 800.521,-353.7898"/>
</g>
<!-- Node15 -->
<g id="node16" class="node">
<title>Node15</title>
<g id="a_node16"><a xlink:href="VectorFixSize_8h.html" target="_top" xlink:title="iDynTree/Core/VectorFixSize.h">
<polygon fill="none" stroke="#000000" points="1080,-112.5 1080,-131.5 1241,-131.5 1241,-112.5 1080,-112.5"/>
<text text-anchor="middle" x="1160.5" y="-119.5" font-family="FreeSans.ttf" font-size="10.00" fill="#000000">iDynTree/Core/VectorFixSize.h</text>
</a>
</g>
</g>
<!-- Node8&#45;&gt;Node15 -->
<g id="edge55" class="edge">
<title>Node8&#45;&gt;Node15</title>
<path fill="none" stroke="#191970" d="M1107.6792,-392.4113C1158.2941,-379.0471 1231.5,-349.4432 1231.5,-290 1231.5,-290 1231.5,-290 1231.5,-234 1231.5,-195.2128 1200.7491,-158.9698 1179.7224,-138.7214"/>
<polygon fill="#191970" stroke="#191970" points="1181.9378,-136.0026 1172.2242,-131.7722 1177.1796,-141.1368 1181.9378,-136.0026"/>
</g>
<!-- Node34 -->
<g id="node35" class="node">
<title>Node34</title>
<polygon fill="none" stroke="#bfbfbf" points="1031.5,-336.5 1031.5,-355.5 1089.5,-355.5 1089.5,-336.5 1031.5,-336.5"/>
<text text-anchor="middle" x="1060.5" y="-343.5" font-family="FreeSans.ttf" font-size="10.00" fill="#000000">fpconv.h</text>
</g>
<!-- Node8&#45;&gt;Node34 -->
<g id="edge56" class="edge">
<title>Node8&#45;&gt;Node34</title>
<path fill="none" stroke="#191970" d="M1060.5,-392.2455C1060.5,-384.9382 1060.5,-374.6944 1060.5,-365.7046"/>
<polygon fill="#191970" stroke="#191970" points="1064.0001,-365.6426 1060.5,-355.6427 1057.0001,-365.6427 1064.0001,-365.6426"/>
</g>
<!-- Node12&#45;&gt;Node5 -->
<g id="edge54" class="edge">
<title>Node12&#45;&gt;Node5</title>
<path fill="none" stroke="#191970" d="M688.9891,-336.4339C613.7151,-319.2876 471.5,-280.712 471.5,-234 471.5,-234 471.5,-234 471.5,-178 471.5,-106.6899 572.8203,-79.6764 626.3004,-70.3847"/>
<polygon fill="#191970" stroke="#191970" points="627.0065,-73.816 636.3143,-68.7548 625.8819,-66.9069 627.0065,-73.816"/>
</g>
<!-- Node13 -->
<g id="node14" class="node">
<title>Node13</title>
<g id="a_node14"><a xlink:href="Position_8h.html" target="_top" xlink:title="iDynTree/Core/Position.h">
<polygon fill="none" stroke="#000000" points="613.5,-280.5 613.5,-299.5 749.5,-299.5 749.5,-280.5 613.5,-280.5"/>
<text text-anchor="middle" x="681.5" y="-287.5" font-family="FreeSans.ttf" font-size="10.00" fill="#000000">iDynTree/Core/Position.h</text>
</a>
</g>
</g>
<!-- Node12&#45;&gt;Node13 -->
<g id="edge16" class="edge">
<title>Node12&#45;&gt;Node13</title>
<path fill="none" stroke="#191970" d="M725.2681,-336.2455C717.6683,-328.2155 706.7123,-316.6394 697.6632,-307.0781"/>
<polygon fill="#191970" stroke="#191970" points="700.042,-304.4998 690.6261,-299.6427 694.9579,-309.3115 700.042,-304.4998"/>
</g>
<!-- Node29 -->
<g id="node30" class="node">
<title>Node29</title>
<g id="a_node30"><a xlink:href="Rotation_8h.html" target="_top" xlink:title="iDynTree/Core/Rotation.h">
<polygon fill="none" stroke="#000000" points="731,-224.5 731,-243.5 868,-243.5 868,-224.5 731,-224.5"/>
<text text-anchor="middle" x="799.5" y="-231.5" font-family="FreeSans.ttf" font-size="10.00" fill="#000000">iDynTree/Core/Rotation.h</text>
</a>
</g>
</g>
<!-- Node12&#45;&gt;Node29 -->
<g id="edge52" class="edge">
<title>Node12&#45;&gt;Node29</title>
<path fill="none" stroke="#191970" d="M740.0419,-336.4509C750.8351,-317.8533 774.8395,-276.4919 788.8235,-252.3964"/>
<polygon fill="#191970" stroke="#191970" points="791.9798,-253.9307 793.9722,-243.5249 785.9255,-250.417 791.9798,-253.9307"/>
</g>
<!-- Node32 -->
<g id="node33" class="node">
<title>Node32</title>
<g id="a_node33"><a xlink:href="MatrixFixSize_8h.html" target="_top" xlink:title="iDynTree/Core/MatrixFixSize.h">
<polygon fill="none" stroke="#000000" points="901,-112.5 901,-131.5 1062,-131.5 1062,-112.5 901,-112.5"/>
<text text-anchor="middle" x="981.5" y="-119.5" font-family="FreeSans.ttf" font-size="10.00" fill="#000000">iDynTree/Core/MatrixFixSize.h</text>
</a>
</g>
</g>
<!-- Node12&#45;&gt;Node32 -->
<g id="edge53" class="edge">
<title>Node12&#45;&gt;Node32</title>
<path fill="none" stroke="#191970" d="M807.6249,-337.7642C893.9989,-323.6859 1034.0671,-286.2093 1098.5,-188 1116.1155,-161.1502 1080.9324,-144.0897 1044.6521,-134.0555"/>
<polygon fill="#191970" stroke="#191970" points="1045.4953,-130.6585 1034.9366,-131.5319 1043.7354,-137.4336 1045.4953,-130.6585"/>
</g>
<!-- Node13&#45;&gt;Node5 -->
<g id="edge51" class="edge">
<title>Node13&#45;&gt;Node5</title>
<path fill="none" stroke="#191970" d="M652.5307,-280.3833C615.9735,-266.4963 554.7108,-236.9753 528.5,-188 501.6393,-137.8103 580.472,-96.7669 626.9954,-77.6329"/>
<polygon fill="#191970" stroke="#191970" points="628.3923,-80.8439 636.383,-73.887 625.7979,-74.3424 628.3923,-80.8439"/>
</g>
<!-- Node14 -->
<g id="node15" class="node">
<title>Node14</title>
<g id="a_node15"><a xlink:href="PositionRaw_8h.html" target="_top" xlink:title="iDynTree/Core/PositionRaw.h">
<polygon fill="none" stroke="#000000" points="537.5,-168.5 537.5,-187.5 693.5,-187.5 693.5,-168.5 537.5,-168.5"/>
<text text-anchor="middle" x="615.5" y="-175.5" font-family="FreeSans.ttf" font-size="10.00" fill="#000000">iDynTree/Core/PositionRaw.h</text>
</a>
</g>
</g>
<!-- Node13&#45;&gt;Node14 -->
<g id="edge17" class="edge">
<title>Node13&#45;&gt;Node14</title>
<path fill="none" stroke="#191970" d="M675.8729,-280.4509C664.9136,-261.8533 640.5399,-220.4919 626.3407,-196.3964"/>
<polygon fill="#191970" stroke="#191970" points="629.2052,-194.3633 621.1129,-187.5249 623.1745,-197.9172 629.2052,-194.3633"/>
</g>
<!-- Node13&#45;&gt;Node29 -->
<g id="edge37" class="edge">
<title>Node13&#45;&gt;Node29</title>
<path fill="none" stroke="#191970" d="M701.7849,-280.3733C720.6421,-271.4241 748.946,-257.9917 770.2455,-247.8835"/>
<polygon fill="#191970" stroke="#191970" points="771.9461,-250.9506 779.4798,-243.5011 768.9449,-244.6266 771.9461,-250.9506"/>
</g>
<!-- Node14&#45;&gt;Node5 -->
<g id="edge36" class="edge">
<title>Node14&#45;&gt;Node5</title>
<path fill="none" stroke="#191970" d="M619.1662,-168.4509C626.2428,-150.0186 641.9045,-109.2254 651.1888,-85.043"/>
<polygon fill="#191970" stroke="#191970" points="654.5263,-86.115 654.8431,-75.5249 647.9914,-83.606 654.5263,-86.115"/>
</g>
<!-- Node14&#45;&gt;Node15 -->
<g id="edge18" class="edge">
<title>Node14&#45;&gt;Node15</title>
<path fill="none" stroke="#191970" d="M693.7963,-170.3743C782.4368,-161.6794 931.4766,-146.8741 1069.6244,-132.1913"/>
<polygon fill="#191970" stroke="#191970" points="1070.4011,-135.6285 1079.9743,-131.0893 1069.6599,-128.6678 1070.4011,-135.6285"/>
</g>
<!-- Node15&#45;&gt;Node5 -->
<g id="edge32" class="edge">
<title>Node15&#45;&gt;Node5</title>
<path fill="none" stroke="#191970" d="M1079.9722,-112.9297C1077.1131,-112.6147 1074.2822,-112.304 1071.5,-112 920.8828,-95.5411 882.9232,-94.1471 732.5,-76 718.9255,-74.3624 703.9757,-72.3768 691.088,-70.6079"/>
<polygon fill="#191970" stroke="#191970" points="691.2085,-67.0912 680.8227,-69.1854 690.2476,-74.025 691.2085,-67.0912"/>
</g>
<!-- Node15&#45;&gt;Node11 -->
<g id="edge33" class="edge">
<title>Node15&#45;&gt;Node11</title>
<path fill="none" stroke="#191970" d="M1179.4864,-112.2455C1196.6792,-103.4125 1222.2238,-90.2887 1241.7132,-80.2758"/>
<polygon fill="#191970" stroke="#191970" points="1243.4359,-83.3257 1250.7312,-75.6427 1240.237,-77.0993 1243.4359,-83.3257"/>
</g>
<!-- Node16 -->
<g id="node17" class="node">
<title>Node16</title>
<g id="a_node17"><a xlink:href="Utils_8h.html" target="_top" xlink:title="iDynTree/Core/Utils.h">
<polygon fill="none" stroke="#000000" points="820,-56.5 820,-75.5 939,-75.5 939,-56.5 820,-56.5"/>
<text text-anchor="middle" x="879.5" y="-63.5" font-family="FreeSans.ttf" font-size="10.00" fill="#000000">iDynTree/Core/Utils.h</text>
</a>
</g>
</g>
<!-- Node15&#45;&gt;Node16 -->
<g id="edge19" class="edge">
<title>Node15&#45;&gt;Node16</title>
<path fill="none" stroke="#191970" d="M1112.5137,-112.4369C1064.0186,-102.7724 989.0527,-87.8326 937.3121,-77.5213"/>
<polygon fill="#191970" stroke="#191970" points="937.7797,-74.0457 927.2884,-75.5237 936.4115,-80.9107 937.7797,-74.0457"/>
</g>
<!-- Node19 -->
<g id="node20" class="node">
<title>Node19</title>
<g id="a_node20"><a xlink:href="Span_8h.html" target="_top" xlink:title="iDynTree/Core/Span.h">
<polygon fill="none" stroke="#000000" points="1026,-56.5 1026,-75.5 1147,-75.5 1147,-56.5 1026,-56.5"/>
<text text-anchor="middle" x="1086.5" y="-63.5" font-family="FreeSans.ttf" font-size="10.00" fill="#000000">iDynTree/Core/Span.h</text>
</a>
</g>
</g>
<!-- Node15&#45;&gt;Node19 -->
<g id="edge22" class="edge">
<title>Node15&#45;&gt;Node19</title>
<path fill="none" stroke="#191970" d="M1147.6102,-112.2455C1136.5746,-103.8943 1120.4708,-91.7076 1107.5647,-81.9408"/>
<polygon fill="#191970" stroke="#191970" points="1109.3283,-78.8862 1099.2421,-75.6427 1105.1041,-84.4681 1109.3283,-78.8862"/>
</g>
<!-- Node20 -->
<g id="node21" class="node">
<title>Node20</title>
<polygon fill="none" stroke="#bfbfbf" points="1344.5,-.5 1344.5,-19.5 1396.5,-19.5 1396.5,-.5 1344.5,-.5"/>
<text text-anchor="middle" x="1370.5" y="-7.5" font-family="FreeSans.ttf" font-size="10.00" fill="#000000">cassert</text>
</g>
<!-- Node15&#45;&gt;Node20 -->
<g id="edge34" class="edge">
<title>Node15&#45;&gt;Node20</title>
<path fill="none" stroke="#191970" d="M1168.8137,-112.0958C1181.2847,-97.82 1206.1933,-71.479 1232.5,-56 1241.5412,-50.6802 1296.9779,-32.8886 1334.7772,-21.0554"/>
<polygon fill="#191970" stroke="#191970" points="1335.9392,-24.3593 1344.4424,-18.039 1333.8537,-17.6772 1335.9392,-24.3593"/>
</g>
<!-- Node28 -->
<g id="node29" class="node">
<title>Node28</title>
<polygon fill="none" stroke="#bfbfbf" points="957.5,-56.5 957.5,-75.5 1007.5,-75.5 1007.5,-56.5 957.5,-56.5"/>
<text text-anchor="middle" x="982.5" y="-63.5" font-family="FreeSans.ttf" font-size="10.00" fill="#000000">cstring</text>
</g>
<!-- Node15&#45;&gt;Node28 -->
<g id="edge35" class="edge">
<title>Node15&#45;&gt;Node28</title>
<path fill="none" stroke="#191970" d="M1129.9007,-112.3733C1098.5524,-102.5109 1049.8971,-87.2036 1017.1499,-76.9011"/>
<polygon fill="#191970" stroke="#191970" points="1018.1239,-73.5384 1007.5344,-73.876 1016.0231,-80.2158 1018.1239,-73.5384"/>
</g>
<!-- Node17 -->
<g id="node18" class="node">
<title>Node17</title>
<polygon fill="none" stroke="#bfbfbf" points="764,-.5 764,-19.5 817,-19.5 817,-.5 764,-.5"/>
<text text-anchor="middle" x="790.5" y="-7.5" font-family="FreeSans.ttf" font-size="10.00" fill="#000000">cstddef</text>
</g>
<!-- Node16&#45;&gt;Node17 -->
<g id="edge20" class="edge">
<title>Node16&#45;&gt;Node17</title>
<path fill="none" stroke="#191970" d="M863.9974,-56.2455C850.342,-47.6534 830.2343,-35.0014 814.5011,-25.1018"/>
<polygon fill="#191970" stroke="#191970" points="816.1529,-22.006 805.825,-19.6427 812.4249,-27.9307 816.1529,-22.006"/>
</g>
<!-- Node18 -->
<g id="node19" class="node">
<title>Node18</title>
<polygon fill="none" stroke="#bfbfbf" points="665.5,-.5 665.5,-19.5 745.5,-19.5 745.5,-.5 665.5,-.5"/>
<text text-anchor="middle" x="705.5" y="-7.5" font-family="FreeSans.ttf" font-size="10.00" fill="#000000">CoreExport.h</text>
</g>
<!-- Node16&#45;&gt;Node18 -->
<g id="edge21" class="edge">
<title>Node16&#45;&gt;Node18</title>
<path fill="none" stroke="#191970" d="M849.5883,-56.3733C820.6548,-47.0613 776.6389,-32.8953 744.8707,-22.671"/>
<polygon fill="#191970" stroke="#191970" points="745.6128,-19.2331 735.0213,-19.5011 743.4682,-25.8965 745.6128,-19.2331"/>
</g>
<!-- Node19&#45;&gt;Node17 -->
<g id="edge26" class="edge">
<title>Node19&#45;&gt;Node17</title>
<path fill="none" stroke="#191970" d="M1025.7547,-56.9415C975.1244,-49.0071 900.9366,-36.4936 827.1045,-19.9639"/>
<polygon fill="#191970" stroke="#191970" points="827.6901,-16.508 817.1641,-17.7132 826.1443,-23.3352 827.6901,-16.508"/>
</g>
<!-- Node19&#45;&gt;Node20 -->
<g id="edge23" class="edge">
<title>Node19&#45;&gt;Node20</title>
<path fill="none" stroke="#191970" d="M1146.9606,-56.494C1195.3191,-48.5115 1265.0199,-36.1607 1334.4104,-20.0978"/>
<polygon fill="#191970" stroke="#191970" points="1335.2584,-23.494 1344.1973,-17.8067 1333.6628,-16.6783 1335.2584,-23.494"/>
</g>
<!-- Node21 -->
<g id="node22" class="node">
<title>Node21</title>
<polygon fill="none" stroke="#bfbfbf" points="1202.5,-.5 1202.5,-19.5 1266.5,-19.5 1266.5,-.5 1202.5,-.5"/>
<text text-anchor="middle" x="1234.5" y="-7.5" font-family="FreeSans.ttf" font-size="10.00" fill="#000000">algorithm</text>
</g>
<!-- Node19&#45;&gt;Node21 -->
<g id="edge24" class="edge">
<title>Node19&#45;&gt;Node21</title>
<path fill="none" stroke="#191970" d="M1111.9421,-56.3733C1136.2326,-47.1822 1173.0208,-33.2624 1199.9543,-23.0713"/>
<polygon fill="#191970" stroke="#191970" points="1201.2757,-26.3136 1209.3899,-19.5011 1198.7984,-19.7666 1201.2757,-26.3136"/>
</g>
<!-- Node22 -->
<g id="node23" class="node">
<title>Node22</title>
<polygon fill="none" stroke="#bfbfbf" points="1284.5,-.5 1284.5,-19.5 1326.5,-19.5 1326.5,-.5 1284.5,-.5"/>
<text text-anchor="middle" x="1305.5" y="-7.5" font-family="FreeSans.ttf" font-size="10.00" fill="#000000">array</text>
</g>
<!-- Node19&#45;&gt;Node22 -->
<g id="edge25" class="edge">
<title>Node19&#45;&gt;Node22</title>
<path fill="none" stroke="#191970" d="M1130.31,-56.4225C1166.6112,-48.2436 1219.7321,-35.7176 1274.402,-20.1567"/>
<polygon fill="#191970" stroke="#191970" points="1275.6195,-23.4485 1284.2629,-17.3212 1273.685,-16.7211 1275.6195,-23.4485"/>
</g>
<!-- Node23 -->
<g id="node24" class="node">
<title>Node23</title>
<polygon fill="none" stroke="#bfbfbf" points="835,-.5 835,-19.5 888,-19.5 888,-.5 835,-.5"/>
<text text-anchor="middle" x="861.5" y="-7.5" font-family="FreeSans.ttf" font-size="10.00" fill="#000000">iterator</text>
</g>
<!-- Node19&#45;&gt;Node23 -->
<g id="edge27" class="edge">
<title>Node19&#45;&gt;Node23</title>
<path fill="none" stroke="#191970" d="M1045.4809,-56.4188C1009.23,-47.8614 954.6887,-34.7684 898.057,-20.0862"/>
<polygon fill="#191970" stroke="#191970" points="898.7698,-16.6551 888.2105,-17.5226 897.0061,-23.4293 898.7698,-16.6551"/>
</g>
<!-- Node24 -->
<g id="node25" class="node">
<title>Node24</title>
<polygon fill="none" stroke="#bfbfbf" points="906.5,-.5 906.5,-19.5 950.5,-19.5 950.5,-.5 906.5,-.5"/>
<text text-anchor="middle" x="928.5" y="-7.5" font-family="FreeSans.ttf" font-size="10.00" fill="#000000">limits</text>
</g>
<!-- Node19&#45;&gt;Node24 -->
<g id="edge28" class="edge">
<title>Node19&#45;&gt;Node24</title>
<path fill="none" stroke="#191970" d="M1059.3388,-56.3733C1031.8726,-46.6384 989.4388,-31.5985 960.3913,-21.3032"/>
<polygon fill="#191970" stroke="#191970" points="961.3163,-17.9178 950.7216,-17.876 958.9778,-24.5157 961.3163,-17.9178"/>
</g>
<!-- Node25 -->
<g id="node26" class="node">
<title>Node25</title>
<polygon fill="none" stroke="#bfbfbf" points="969,-.5 969,-19.5 1034,-19.5 1034,-.5 969,-.5"/>
<text text-anchor="middle" x="1001.5" y="-7.5" font-family="FreeSans.ttf" font-size="10.00" fill="#000000">stdexcept</text>
</g>
<!-- Node19&#45;&gt;Node25 -->
<g id="edge29" class="edge">
<title>Node19&#45;&gt;Node25</title>
<path fill="none" stroke="#191970" d="M1071.6941,-56.2455C1058.7744,-47.7337 1039.8069,-35.2375 1024.8448,-25.3801"/>
<polygon fill="#191970" stroke="#191970" points="1026.4124,-22.2216 1016.1362,-19.6427 1022.5613,-28.067 1026.4124,-22.2216"/>
</g>
<!-- Node26 -->
<g id="node27" class="node">
<title>Node26</title>
<polygon fill="none" stroke="#bfbfbf" points="1052,-.5 1052,-19.5 1121,-19.5 1121,-.5 1052,-.5"/>
<text text-anchor="middle" x="1086.5" y="-7.5" font-family="FreeSans.ttf" font-size="10.00" fill="#000000">type_traits</text>
</g>
<!-- Node19&#45;&gt;Node26 -->
<g id="edge30" class="edge">
<title>Node19&#45;&gt;Node26</title>
<path fill="none" stroke="#191970" d="M1086.5,-56.2455C1086.5,-48.9382 1086.5,-38.6944 1086.5,-29.7046"/>
<polygon fill="#191970" stroke="#191970" points="1090.0001,-29.6426 1086.5,-19.6427 1083.0001,-29.6427 1090.0001,-29.6426"/>
</g>
<!-- Node27 -->
<g id="node28" class="node">
<title>Node27</title>
<polygon fill="none" stroke="#bfbfbf" points="1139,-.5 1139,-19.5 1184,-19.5 1184,-.5 1139,-.5"/>
<text text-anchor="middle" x="1161.5" y="-7.5" font-family="FreeSans.ttf" font-size="10.00" fill="#000000">utility</text>
</g>
<!-- Node19&#45;&gt;Node27 -->
<g id="edge31" class="edge">
<title>Node19&#45;&gt;Node27</title>
<path fill="none" stroke="#191970" d="M1099.564,-56.2455C1110.8562,-47.814 1127.3845,-35.4729 1140.5271,-25.6598"/>
<polygon fill="#191970" stroke="#191970" points="1142.6669,-28.4301 1148.5857,-19.6427 1138.4789,-22.8211 1142.6669,-28.4301"/>
</g>
<!-- Node29&#45;&gt;Node5 -->
<g id="edge38" class="edge">
<title>Node29&#45;&gt;Node5</title>
<path fill="none" stroke="#191970" d="M784.6138,-224.3736C771.9956,-215.7738 753.8712,-202.3478 740.5,-188 709.78,-155.0362 682.4291,-109.5092 668.4129,-84.429"/>
<polygon fill="#191970" stroke="#191970" points="671.4437,-82.6767 663.5594,-75.5993 665.3093,-86.0487 671.4437,-82.6767"/>
</g>
<!-- Node29&#45;&gt;Node15 -->
<g id="edge50" class="edge">
<title>Node29&#45;&gt;Node15</title>
<path fill="none" stroke="#191970" d="M868.0403,-228.6558C943.5869,-221.8616 1059.5795,-208.4927 1098.5,-188 1119.6965,-176.8395 1137.6254,-155.5822 1148.6671,-140.2017"/>
<polygon fill="#191970" stroke="#191970" points="1151.8474,-141.753 1154.6198,-131.5273 1146.0757,-137.7923 1151.8474,-141.753"/>
</g>
<!-- Node30 -->
<g id="node31" class="node">
<title>Node30</title>
<g id="a_node31"><a xlink:href="GeomVector3_8h.html" target="_top" xlink:title="iDynTree/Core/GeomVector3.h">
<polygon fill="none" stroke="#000000" points="926,-168.5 926,-187.5 1089,-187.5 1089,-168.5 926,-168.5"/>
<text text-anchor="middle" x="1007.5" y="-175.5" font-family="FreeSans.ttf" font-size="10.00" fill="#000000">iDynTree/Core/GeomVector3.h</text>
</a>
</g>
</g>
<!-- Node29&#45;&gt;Node30 -->
<g id="edge39" class="edge">
<title>Node29&#45;&gt;Node30</title>
<path fill="none" stroke="#191970" d="M835.2565,-224.3733C870.4426,-214.9001 924.2881,-200.4032 962.3956,-190.1435"/>
<polygon fill="#191970" stroke="#191970" points="963.4639,-193.4806 972.2101,-187.5011 961.644,-186.7213 963.4639,-193.4806"/>
</g>
<!-- Node31 -->
<g id="node32" class="node">
<title>Node31</title>
<g id="a_node32"><a xlink:href="RotationRaw_8h.html" target="_top" xlink:title="iDynTree/Core/RotationRaw.h">
<polygon fill="none" stroke="#000000" points="749.5,-168.5 749.5,-187.5 907.5,-187.5 907.5,-168.5 749.5,-168.5"/>
<text text-anchor="middle" x="828.5" y="-175.5" font-family="FreeSans.ttf" font-size="10.00" fill="#000000">iDynTree/Core/RotationRaw.h</text>
</a>
</g>
</g>
<!-- Node29&#45;&gt;Node31 -->
<g id="edge41" class="edge">
<title>Node29&#45;&gt;Node31</title>
<path fill="none" stroke="#191970" d="M804.5514,-224.2455C808.5019,-216.617 814.1097,-205.7881 818.9058,-196.5267"/>
<polygon fill="#191970" stroke="#191970" points="822.0159,-198.1321 823.5065,-187.6427 815.7999,-194.9131 822.0159,-198.1321"/>
</g>
<!-- Node30&#45;&gt;Node15 -->
<g id="edge40" class="edge">
<title>Node30&#45;&gt;Node15</title>
<path fill="none" stroke="#191970" d="M1033.8016,-168.3733C1058.9128,-159.1822 1096.9438,-145.2624 1124.7872,-135.0713"/>
<polygon fill="#191970" stroke="#191970" points="1126.3538,-138.2251 1134.5416,-131.5011 1123.9478,-131.6516 1126.3538,-138.2251"/>
</g>
<!-- Node31&#45;&gt;Node5 -->
<g id="edge49" class="edge">
<title>Node31&#45;&gt;Node5</title>
<path fill="none" stroke="#191970" d="M815.7829,-168.4921C798.0747,-155.3647 764.8537,-131.1415 735.5,-112 718.7573,-101.0821 699.4461,-89.5481 684.3513,-80.7606"/>
<polygon fill="#191970" stroke="#191970" points="685.9668,-77.6518 675.5581,-75.6742 682.4617,-83.7111 685.9668,-77.6518"/>
</g>
<!-- Node31&#45;&gt;Node32 -->
<g id="edge42" class="edge">
<title>Node31&#45;&gt;Node32</title>
<path fill="none" stroke="#191970" d="M854.8016,-168.3733C879.9128,-159.1822 917.9438,-145.2624 945.7872,-135.0713"/>
<polygon fill="#191970" stroke="#191970" points="947.3538,-138.2251 955.5416,-131.5011 944.9478,-131.6516 947.3538,-138.2251"/>
</g>
<!-- Node32&#45;&gt;Node5 -->
<g id="edge46" class="edge">
<title>Node32&#45;&gt;Node5</title>
<path fill="none" stroke="#191970" d="M926.3413,-112.4369C858.4634,-100.6686 745.4694,-81.0783 690.498,-71.5476"/>
<polygon fill="#191970" stroke="#191970" points="691.0711,-68.0949 680.6201,-69.8351 689.8752,-74.992 691.0711,-68.0949"/>
</g>
<!-- Node32&#45;&gt;Node11 -->
<g id="edge48" class="edge">
<title>Node32&#45;&gt;Node11</title>
<path fill="none" stroke="#191970" d="M1030.6817,-112.4369C1087.4958,-101.3897 1179.7584,-83.4498 1231.3973,-73.4089"/>
<polygon fill="#191970" stroke="#191970" points="1232.3187,-76.7953 1241.4668,-71.4509 1230.9826,-69.924 1232.3187,-76.7953"/>
</g>
<!-- Node32&#45;&gt;Node16 -->
<g id="edge43" class="edge">
<title>Node32&#45;&gt;Node16</title>
<path fill="none" stroke="#191970" d="M963.733,-112.2455C947.7905,-103.4928 924.1741,-90.527 906.0011,-80.5496"/>
<polygon fill="#191970" stroke="#191970" points="907.5137,-77.3873 897.0634,-75.6427 904.1448,-83.5233 907.5137,-77.3873"/>
</g>
<!-- Node32&#45;&gt;Node20 -->
<g id="edge44" class="edge">
<title>Node32&#45;&gt;Node20</title>
<path fill="none" stroke="#191970" d="M1025.5995,-112.4866C1061.3453,-104.2814 1112.7804,-91.3489 1156.5,-76 1177.1507,-68.75 1180.869,-63.3059 1201.5,-56 1256.6782,-36.4602 1274.2956,-36.4197 1334.157,-20.309"/>
<polygon fill="#191970" stroke="#191970" points="1335.4163,-23.5933 1344.1393,-17.58 1333.5703,-16.8411 1335.4163,-23.5933"/>
</g>
<!-- Node32&#45;&gt;Node28 -->
<g id="edge45" class="edge">
<title>Node32&#45;&gt;Node28</title>
<path fill="none" stroke="#191970" d="M981.6742,-112.2455C981.8047,-104.9382 981.9876,-94.6944 982.1481,-85.7046"/>
<polygon fill="#191970" stroke="#191970" points="985.6486,-85.7036 982.3278,-75.6427 978.6497,-85.5786 985.6486,-85.7036"/>
</g>
<!-- Node33 -->
<g id="node34" class="node">
<title>Node33</title>
<polygon fill="none" stroke="#bfbfbf" points="741.5,-56.5 741.5,-75.5 801.5,-75.5 801.5,-56.5 741.5,-56.5"/>
<text text-anchor="middle" x="771.5" y="-63.5" font-family="FreeSans.ttf" font-size="10.00" fill="#000000">iostream</text>
</g>
<!-- Node32&#45;&gt;Node33 -->
<g id="edge47" class="edge">
<title>Node32&#45;&gt;Node33</title>
<path fill="none" stroke="#191970" d="M945.3997,-112.3733C908.1528,-102.4408 850.1962,-86.9856 811.5579,-76.6821"/>
<polygon fill="#191970" stroke="#191970" points="812.2551,-73.2458 801.6909,-74.0509 810.4514,-80.0094 812.2551,-73.2458"/>
</g>
<!-- Node35&#45;&gt;Node5 -->
<g id="edge58" class="edge">
<title>Node35&#45;&gt;Node5</title>
<path fill="none" stroke="#191970" d="M380.0189,-224.2513C388.9884,-200.865 415.0455,-141.347 457.5,-112 484.5914,-93.2729 576.5749,-77.7024 626.1733,-70.4253"/>
<polygon fill="#191970" stroke="#191970" points="626.9645,-73.8476 636.3642,-68.9594 625.9678,-66.9189 626.9645,-73.8476"/>
</g>
</g>
</svg>
