<?xml version="1.0" encoding="UTF-8" standalone="no"?>
<!DOCTYPE svg PUBLIC "-//W3C//DTD SVG 1.1//EN"
 "http://www.w3.org/Graphics/SVG/1.1/DTD/svg11.dtd">
<!-- Generated by graphviz version 2.40.1 (20161225.0304)
 -->
<!-- Title: PredictSensorsMeasurements.h Pages: 1 -->
<svg width="1237pt" height="610pt"
 viewBox="0.00 0.00 1237.00 610.00" xmlns="http://www.w3.org/2000/svg" xmlns:xlink="http://www.w3.org/1999/xlink">
<g id="graph0" class="graph" transform="scale(1 1) rotate(0) translate(4 606)">
<title>PredictSensorsMeasurements.h</title>
<!-- Node0 -->
<g id="node1" class="node">
<title>Node0</title>
<polygon fill="#bfbfbf" stroke="#000000" points="230,-582.5 230,-601.5 400,-601.5 400,-582.5 230,-582.5"/>
<text text-anchor="middle" x="315" y="-589.5" font-family="FreeSans.ttf" font-size="10.00" fill="#000000">PredictSensorsMeasurements.h</text>
</g>
<!-- Node1 -->
<g id="node2" class="node">
<title>Node1</title>
<g id="a_node2"><a xlink:href="LinkState_8h.html" target="_top" xlink:title="iDynTree/Model/LinkState.h">
<polygon fill="none" stroke="#000000" points="534.5,-526.5 534.5,-545.5 683.5,-545.5 683.5,-526.5 534.5,-526.5"/>
<text text-anchor="middle" x="609" y="-533.5" font-family="FreeSans.ttf" font-size="10.00" fill="#000000">iDynTree/Model/LinkState.h</text>
</a>
</g>
</g>
<!-- Node0&#45;&gt;Node1 -->
<g id="edge1" class="edge">
<title>Node0&#45;&gt;Node1</title>
<path fill="none" stroke="#191970" d="M365.2063,-582.4369C416.0507,-572.7522 494.706,-557.7703 548.8513,-547.4569"/>
<polygon fill="#191970" stroke="#191970" points="549.8323,-550.8331 559.0007,-545.5237 548.5224,-543.9567 549.8323,-550.8331"/>
</g>
<!-- Node22 -->
<g id="node23" class="node">
<title>Node22</title>
<g id="a_node23"><a xlink:href="GeomVector3_8h.html" target="_top" xlink:title="iDynTree/Core/GeomVector3.h">
<polygon fill="none" stroke="#000000" points="227.5,-174 227.5,-193 390.5,-193 390.5,-174 227.5,-174"/>
<text text-anchor="middle" x="309" y="-181" font-family="FreeSans.ttf" font-size="10.00" fill="#000000">iDynTree/Core/GeomVector3.h</text>
</a>
</g>
</g>
<!-- Node0&#45;&gt;Node22 -->
<g id="edge67" class="edge">
<title>Node0&#45;&gt;Node22</title>
<path fill="none" stroke="#191970" d="M229.7387,-583.313C166.785,-571.6268 92,-544.2277 92,-480 92,-480 92,-480 92,-301 92,-238.2997 162.9219,-208.8872 223.6751,-195.1942"/>
<polygon fill="#191970" stroke="#191970" points="224.6645,-198.5619 233.7129,-193.0505 223.2024,-191.7163 224.6645,-198.5619"/>
</g>
<!-- Node2 -->
<g id="node3" class="node">
<title>Node2</title>
<g id="a_node3"><a xlink:href="Transform_8h.html" target="_top" xlink:title="iDynTree/Core/Transform.h">
<polygon fill="none" stroke="#000000" points="587,-347.5 587,-366.5 733,-366.5 733,-347.5 587,-347.5"/>
<text text-anchor="middle" x="660" y="-354.5" font-family="FreeSans.ttf" font-size="10.00" fill="#000000">iDynTree/Core/Transform.h</text>
</a>
</g>
</g>
<!-- Node1&#45;&gt;Node2 -->
<g id="edge2" class="edge">
<title>Node1&#45;&gt;Node2</title>
<path fill="none" stroke="#191970" d="M617.8721,-526.206C625.3198,-517.3971 635.5859,-503.7604 641,-490 655.9526,-451.9966 659.3395,-403.7628 659.9868,-377.07"/>
<polygon fill="#191970" stroke="#191970" points="663.4908,-376.7831 660.1228,-366.7379 656.4914,-376.691 663.4908,-376.7831"/>
</g>
<!-- Node26 -->
<g id="node27" class="node">
<title>Node26</title>
<g id="a_node27"><a xlink:href="Twist_8h.html" target="_top" xlink:title="iDynTree/Core/Twist.h">
<polygon fill="none" stroke="#000000" points="344,-470.5 344,-489.5 466,-489.5 466,-470.5 344,-470.5"/>
<text text-anchor="middle" x="405" y="-477.5" font-family="FreeSans.ttf" font-size="10.00" fill="#000000">iDynTree/Core/Twist.h</text>
</a>
</g>
</g>
<!-- Node1&#45;&gt;Node26 -->
<g id="edge42" class="edge">
<title>Node1&#45;&gt;Node26</title>
<path fill="none" stroke="#191970" d="M573.9311,-526.3733C539.5685,-516.9404 487.0608,-502.5265 449.7149,-492.2747"/>
<polygon fill="#191970" stroke="#191970" points="450.181,-488.7732 439.6112,-489.5011 448.328,-495.5235 450.181,-488.7732"/>
</g>
<!-- Node29 -->
<g id="node30" class="node">
<title>Node29</title>
<g id="a_node30"><a xlink:href="SpatialAcc_8h.html" target="_top" xlink:title="iDynTree/Core/SpatialAcc.h">
<polygon fill="none" stroke="#000000" points="484,-470.5 484,-489.5 632,-489.5 632,-470.5 484,-470.5"/>
<text text-anchor="middle" x="558" y="-477.5" font-family="FreeSans.ttf" font-size="10.00" fill="#000000">iDynTree/Core/SpatialAcc.h</text>
</a>
</g>
</g>
<!-- Node1&#45;&gt;Node29 -->
<g id="edge53" class="edge">
<title>Node1&#45;&gt;Node29</title>
<path fill="none" stroke="#191970" d="M600.1165,-526.2455C592.8034,-518.2155 582.2609,-506.6394 573.5533,-497.0781"/>
<polygon fill="#191970" stroke="#191970" points="576.1028,-494.6795 566.7817,-489.6427 570.9273,-499.3928 576.1028,-494.6795"/>
</g>
<!-- Node30 -->
<g id="node31" class="node">
<title>Node30</title>
<g id="a_node31"><a xlink:href="Wrench_8h.html" target="_top" xlink:title="iDynTree/Core/Wrench.h">
<polygon fill="none" stroke="#000000" points="174.5,-470.5 174.5,-489.5 307.5,-489.5 307.5,-470.5 174.5,-470.5"/>
<text text-anchor="middle" x="241" y="-477.5" font-family="FreeSans.ttf" font-size="10.00" fill="#000000">iDynTree/Core/Wrench.h</text>
</a>
</g>
</g>
<!-- Node1&#45;&gt;Node30 -->
<g id="edge55" class="edge">
<title>Node1&#45;&gt;Node30</title>
<path fill="none" stroke="#191970" d="M546.1567,-526.4369C481.7209,-516.6314 381.6002,-501.3957 313.7664,-491.0731"/>
<polygon fill="#191970" stroke="#191970" points="313.9969,-487.568 303.5841,-489.5237 312.9437,-494.4883 313.9969,-487.568"/>
</g>
<!-- Node32 -->
<g id="node33" class="node">
<title>Node32</title>
<g id="a_node33"><a xlink:href="ArticulatedBodyInertia_8h.html" target="_top" xlink:title="iDynTree/Core/Articulated\lBodyInertia.h">
<polygon fill="none" stroke="#000000" points="987.5,-168.5 987.5,-198.5 1128.5,-198.5 1128.5,-168.5 987.5,-168.5"/>
<text text-anchor="start" x="995.5" y="-186.5" font-family="FreeSans.ttf" font-size="10.00" fill="#000000">iDynTree/Core/Articulated</text>
<text text-anchor="middle" x="1058" y="-175.5" font-family="FreeSans.ttf" font-size="10.00" fill="#000000">BodyInertia.h</text>
</a>
</g>
</g>
<!-- Node1&#45;&gt;Node32 -->
<g id="edge60" class="edge">
<title>Node1&#45;&gt;Node32</title>
<path fill="none" stroke="#191970" d="M683.8103,-528.7107C796.5586,-515.6235 997,-483.2516 997,-418.5 997,-418.5 997,-418.5 997,-301 997,-264.9261 1019.9281,-228.92 1037.6707,-206.4576"/>
<polygon fill="#191970" stroke="#191970" points="1040.5275,-208.4933 1044.1582,-198.54 1035.113,-204.0568 1040.5275,-208.4933"/>
</g>
<!-- Node33 -->
<g id="node34" class="node">
<title>Node33</title>
<g id="a_node34"><a xlink:href="Indices_8h.html" target="_top" xlink:title="iDynTree/Model/Indices.h">
<polygon fill="none" stroke="#000000" points="1091,-470.5 1091,-489.5 1229,-489.5 1229,-470.5 1091,-470.5"/>
<text text-anchor="middle" x="1160" y="-477.5" font-family="FreeSans.ttf" font-size="10.00" fill="#000000">iDynTree/Model/Indices.h</text>
</a>
</g>
</g>
<!-- Node1&#45;&gt;Node33 -->
<g id="edge63" class="edge">
<title>Node1&#45;&gt;Node33</title>
<path fill="none" stroke="#191970" d="M683.6238,-529.4528C774.8024,-521.2933 934.0397,-506.5286 1080.6086,-490.1303"/>
<polygon fill="#191970" stroke="#191970" points="1081.1441,-493.5923 1090.6907,-488.9975 1080.3624,-486.6361 1081.1441,-493.5923"/>
</g>
<!-- Node35 -->
<g id="node36" class="node">
<title>Node35</title>
<polygon fill="none" stroke="#bfbfbf" points="1025.5,-470.5 1025.5,-489.5 1072.5,-489.5 1072.5,-470.5 1025.5,-470.5"/>
<text text-anchor="middle" x="1049" y="-477.5" font-family="FreeSans.ttf" font-size="10.00" fill="#000000">vector</text>
</g>
<!-- Node1&#45;&gt;Node35 -->
<g id="edge66" class="edge">
<title>Node1&#45;&gt;Node35</title>
<path fill="none" stroke="#191970" d="M683.5694,-530.6855C764.6378,-524.161 897.7739,-511.2627 1011,-490 1012.4666,-489.7246 1013.9601,-489.4232 1015.4651,-489.1023"/>
<polygon fill="#191970" stroke="#191970" points="1016.4667,-492.4625 1025.4024,-486.7701 1014.8672,-485.6476 1016.4667,-492.4625"/>
</g>
<!-- Node3 -->
<g id="node4" class="node">
<title>Node3</title>
<g id="a_node4"><a xlink:href="Position_8h.html" target="_top" xlink:title="iDynTree/Core/Position.h">
<polygon fill="none" stroke="#000000" points="543,-291.5 543,-310.5 679,-310.5 679,-291.5 543,-291.5"/>
<text text-anchor="middle" x="611" y="-298.5" font-family="FreeSans.ttf" font-size="10.00" fill="#000000">iDynTree/Core/Position.h</text>
</a>
</g>
</g>
<!-- Node2&#45;&gt;Node3 -->
<g id="edge3" class="edge">
<title>Node2&#45;&gt;Node3</title>
<path fill="none" stroke="#191970" d="M651.4649,-347.2455C644.5088,-339.2958 634.5117,-327.8706 626.1949,-318.3656"/>
<polygon fill="#191970" stroke="#191970" points="628.6564,-315.8637 619.4373,-310.6427 623.3884,-320.4732 628.6564,-315.8637"/>
</g>
<!-- Node18 -->
<g id="node19" class="node">
<title>Node18</title>
<polygon fill="none" stroke="#bfbfbf" points="899,-56.5 899,-75.5 943,-75.5 943,-56.5 899,-56.5"/>
<text text-anchor="middle" x="921" y="-63.5" font-family="FreeSans.ttf" font-size="10.00" fill="#000000">string</text>
</g>
<!-- Node2&#45;&gt;Node18 -->
<g id="edge41" class="edge">
<title>Node2&#45;&gt;Node18</title>
<path fill="none" stroke="#191970" d="M733.067,-348.0571C871.215,-330.1522 1157,-287.9252 1157,-245 1157,-245 1157,-245 1157,-183.5 1157,-93.5364 1017.8729,-72.4527 953.2631,-67.5119"/>
<polygon fill="#191970" stroke="#191970" points="953.4168,-64.0144 943.2023,-66.8278 952.9418,-70.9983 953.4168,-64.0144"/>
</g>
<!-- Node21 -->
<g id="node22" class="node">
<title>Node21</title>
<g id="a_node22"><a xlink:href="Rotation_8h.html" target="_top" xlink:title="iDynTree/Core/Rotation.h">
<polygon fill="none" stroke="#000000" points="449.5,-235.5 449.5,-254.5 586.5,-254.5 586.5,-235.5 449.5,-235.5"/>
<text text-anchor="middle" x="518" y="-242.5" font-family="FreeSans.ttf" font-size="10.00" fill="#000000">iDynTree/Core/Rotation.h</text>
</a>
</g>
</g>
<!-- Node2&#45;&gt;Node21 -->
<g id="edge39" class="edge">
<title>Node2&#45;&gt;Node21</title>
<path fill="none" stroke="#191970" d="M599.1582,-347.4567C575.8025,-340.8703 550.7586,-329.7531 534,-311 522.8415,-298.5136 519.1397,-279.5666 518.0552,-265.1714"/>
<polygon fill="#191970" stroke="#191970" points="521.5385,-264.6699 517.6541,-254.8129 514.5437,-264.9408 521.5385,-264.6699"/>
</g>
<!-- Node24 -->
<g id="node25" class="node">
<title>Node24</title>
<g id="a_node25"><a xlink:href="MatrixFixSize_8h.html" target="_top" xlink:title="iDynTree/Core/MatrixFixSize.h">
<polygon fill="none" stroke="#000000" points="625.5,-112.5 625.5,-131.5 786.5,-131.5 786.5,-112.5 625.5,-112.5"/>
<text text-anchor="middle" x="706" y="-119.5" font-family="FreeSans.ttf" font-size="10.00" fill="#000000">iDynTree/Core/MatrixFixSize.h</text>
</a>
</g>
</g>
<!-- Node2&#45;&gt;Node24 -->
<g id="edge40" class="edge">
<title>Node2&#45;&gt;Node24</title>
<path fill="none" stroke="#191970" d="M667.6304,-347.4185C674.2488,-338.5341 683.459,-324.663 688,-311 707.6137,-251.9859 708.0938,-177.2997 706.9897,-142.0967"/>
<polygon fill="#191970" stroke="#191970" points="710.4731,-141.6052 706.5799,-131.7516 703.4786,-141.8823 710.4731,-141.6052"/>
</g>
<!-- Node4 -->
<g id="node5" class="node">
<title>Node4</title>
<g id="a_node5"><a xlink:href="PositionRaw_8h.html" target="_top" xlink:title="iDynTree/Core/PositionRaw.h">
<polygon fill="none" stroke="#000000" points="523,-174 523,-193 679,-193 679,-174 523,-174"/>
<text text-anchor="middle" x="601" y="-181" font-family="FreeSans.ttf" font-size="10.00" fill="#000000">iDynTree/Core/PositionRaw.h</text>
</a>
</g>
</g>
<!-- Node3&#45;&gt;Node4 -->
<g id="edge4" class="edge">
<title>Node3&#45;&gt;Node4</title>
<path fill="none" stroke="#191970" d="M610.1817,-291.3845C608.5482,-272.1913 604.8541,-228.786 602.6822,-203.2663"/>
<polygon fill="#191970" stroke="#191970" points="606.1651,-202.9155 601.8296,-193.2484 599.1903,-203.5092 606.1651,-202.9155"/>
</g>
<!-- Node3&#45;&gt;Node18 -->
<g id="edge38" class="edge">
<title>Node3&#45;&gt;Node18</title>
<path fill="none" stroke="#191970" d="M658.5841,-291.4793C737.049,-274.845 888.5466,-238.4799 925,-199 951.6708,-170.1149 949.0057,-150.4914 941,-112 939.0586,-102.6655 935.1196,-92.9017 931.2469,-84.783"/>
<polygon fill="#191970" stroke="#191970" points="934.3486,-83.161 926.6945,-75.8354 928.1097,-86.3353 934.3486,-83.161"/>
</g>
<!-- Node3&#45;&gt;Node21 -->
<g id="edge24" class="edge">
<title>Node3&#45;&gt;Node21</title>
<path fill="none" stroke="#191970" d="M594.8006,-291.2455C580.3982,-282.5731 559.1268,-269.7645 542.6201,-259.825"/>
<polygon fill="#191970" stroke="#191970" points="544.386,-256.8028 534.0137,-254.6427 540.775,-262.7996 544.386,-256.8028"/>
</g>
<!-- Node5 -->
<g id="node6" class="node">
<title>Node5</title>
<g id="a_node6"><a xlink:href="VectorFixSize_8h.html" target="_top" xlink:title="iDynTree/Core/VectorFixSize.h">
<polygon fill="none" stroke="#000000" points="321.5,-112.5 321.5,-131.5 482.5,-131.5 482.5,-112.5 321.5,-112.5"/>
<text text-anchor="middle" x="402" y="-119.5" font-family="FreeSans.ttf" font-size="10.00" fill="#000000">iDynTree/Core/VectorFixSize.h</text>
</a>
</g>
</g>
<!-- Node4&#45;&gt;Node5 -->
<g id="edge5" class="edge">
<title>Node4&#45;&gt;Node5</title>
<path fill="none" stroke="#191970" d="M569.9063,-173.8906C535.5876,-163.2846 480.2257,-146.1753 442.5302,-134.5257"/>
<polygon fill="#191970" stroke="#191970" points="443.463,-131.1507 432.8754,-131.5419 441.3961,-137.8386 443.463,-131.1507"/>
</g>
<!-- Node4&#45;&gt;Node18 -->
<g id="edge23" class="edge">
<title>Node4&#45;&gt;Node18</title>
<path fill="none" stroke="#191970" d="M649.2482,-173.9688C689.312,-165.2985 747.3962,-150.9636 796,-132 832.6928,-117.6837 872.5088,-95.3769 897.1097,-80.7257"/>
<polygon fill="#191970" stroke="#191970" points="898.9951,-83.676 905.7551,-75.518 895.3831,-77.6798 898.9951,-83.676"/>
</g>
<!-- Node6 -->
<g id="node7" class="node">
<title>Node6</title>
<g id="a_node7"><a xlink:href="Utils_8h.html" target="_top" xlink:title="iDynTree/Core/Utils.h">
<polygon fill="none" stroke="#000000" points="65.5,-56.5 65.5,-75.5 184.5,-75.5 184.5,-56.5 65.5,-56.5"/>
<text text-anchor="middle" x="125" y="-63.5" font-family="FreeSans.ttf" font-size="10.00" fill="#000000">iDynTree/Core/Utils.h</text>
</a>
</g>
</g>
<!-- Node5&#45;&gt;Node6 -->
<g id="edge6" class="edge">
<title>Node5&#45;&gt;Node6</title>
<path fill="none" stroke="#191970" d="M354.6967,-112.4369C306.892,-102.7724 232.9932,-87.8326 181.9892,-77.5213"/>
<polygon fill="#191970" stroke="#191970" points="182.6034,-74.0747 172.1082,-75.5237 181.2163,-80.9359 182.6034,-74.0747"/>
</g>
<!-- Node9 -->
<g id="node10" class="node">
<title>Node9</title>
<g id="a_node10"><a xlink:href="Span_8h.html" target="_top" xlink:title="iDynTree/Core/Span.h">
<polygon fill="none" stroke="#000000" points="298.5,-56.5 298.5,-75.5 419.5,-75.5 419.5,-56.5 298.5,-56.5"/>
<text text-anchor="middle" x="359" y="-63.5" font-family="FreeSans.ttf" font-size="10.00" fill="#000000">iDynTree/Core/Span.h</text>
</a>
</g>
</g>
<!-- Node5&#45;&gt;Node9 -->
<g id="edge9" class="edge">
<title>Node5&#45;&gt;Node9</title>
<path fill="none" stroke="#191970" d="M394.51,-112.2455C388.4674,-104.3761 379.8097,-93.101 372.5559,-83.6542"/>
<polygon fill="#191970" stroke="#191970" points="375.2705,-81.4426 366.4042,-75.6427 369.7185,-85.7058 375.2705,-81.4426"/>
</g>
<!-- Node10 -->
<g id="node11" class="node">
<title>Node10</title>
<polygon fill="none" stroke="#bfbfbf" points="679,-.5 679,-19.5 731,-19.5 731,-.5 679,-.5"/>
<text text-anchor="middle" x="705" y="-7.5" font-family="FreeSans.ttf" font-size="10.00" fill="#000000">cassert</text>
</g>
<!-- Node5&#45;&gt;Node10 -->
<g id="edge21" class="edge">
<title>Node5&#45;&gt;Node10</title>
<path fill="none" stroke="#191970" d="M423.8402,-112.4846C444.411,-103.4207 476.0126,-89.2342 503,-76 520.1358,-67.5969 523.2643,-63.0492 541,-56 593.5061,-35.1311 610.9501,-36.0191 668.9613,-20.2349"/>
<polygon fill="#191970" stroke="#191970" points="669.931,-23.5981 678.6317,-17.5526 668.06,-16.8528 669.931,-23.5981"/>
</g>
<!-- Node5&#45;&gt;Node18 -->
<g id="edge19" class="edge">
<title>Node5&#45;&gt;Node18</title>
<path fill="none" stroke="#191970" d="M482.5243,-113.3114C598.8764,-100.7571 808.8233,-78.1038 888.8386,-69.4702"/>
<polygon fill="#191970" stroke="#191970" points="889.2434,-72.9469 898.8102,-68.3943 888.4924,-65.9873 889.2434,-72.9469"/>
</g>
<!-- Node19 -->
<g id="node20" class="node">
<title>Node19</title>
<polygon fill="none" stroke="#bfbfbf" points="438,-56.5 438,-75.5 494,-75.5 494,-56.5 438,-56.5"/>
<text text-anchor="middle" x="466" y="-63.5" font-family="FreeSans.ttf" font-size="10.00" fill="#000000">sstream</text>
</g>
<!-- Node5&#45;&gt;Node19 -->
<g id="edge20" class="edge">
<title>Node5&#45;&gt;Node19</title>
<path fill="none" stroke="#191970" d="M413.1479,-112.2455C422.5087,-104.0549 436.0858,-92.1749 447.1349,-82.5069"/>
<polygon fill="#191970" stroke="#191970" points="449.7588,-84.8618 454.9798,-75.6427 445.1492,-79.5937 449.7588,-84.8618"/>
</g>
<!-- Node20 -->
<g id="node21" class="node">
<title>Node20</title>
<polygon fill="none" stroke="#bfbfbf" points="550,-56.5 550,-75.5 600,-75.5 600,-56.5 550,-56.5"/>
<text text-anchor="middle" x="575" y="-63.5" font-family="FreeSans.ttf" font-size="10.00" fill="#000000">cstring</text>
</g>
<!-- Node5&#45;&gt;Node20 -->
<g id="edge22" class="edge">
<title>Node5&#45;&gt;Node20</title>
<path fill="none" stroke="#191970" d="M431.7398,-112.3733C461.8146,-102.638 508.2794,-87.5974 540.0847,-77.3021"/>
<polygon fill="#191970" stroke="#191970" points="541.4205,-80.5485 549.8566,-74.1389 539.2647,-73.8887 541.4205,-80.5485"/>
</g>
<!-- Node7 -->
<g id="node8" class="node">
<title>Node7</title>
<polygon fill="none" stroke="#bfbfbf" points="98.5,-.5 98.5,-19.5 151.5,-19.5 151.5,-.5 98.5,-.5"/>
<text text-anchor="middle" x="125" y="-7.5" font-family="FreeSans.ttf" font-size="10.00" fill="#000000">cstddef</text>
</g>
<!-- Node6&#45;&gt;Node7 -->
<g id="edge7" class="edge">
<title>Node6&#45;&gt;Node7</title>
<path fill="none" stroke="#191970" d="M125,-56.2455C125,-48.9382 125,-38.6944 125,-29.7046"/>
<polygon fill="#191970" stroke="#191970" points="128.5001,-29.6426 125,-19.6427 121.5001,-29.6427 128.5001,-29.6426"/>
</g>
<!-- Node8 -->
<g id="node9" class="node">
<title>Node8</title>
<polygon fill="none" stroke="#bfbfbf" points="0,-.5 0,-19.5 80,-19.5 80,-.5 0,-.5"/>
<text text-anchor="middle" x="40" y="-7.5" font-family="FreeSans.ttf" font-size="10.00" fill="#000000">CoreExport.h</text>
</g>
<!-- Node6&#45;&gt;Node8 -->
<g id="edge8" class="edge">
<title>Node6&#45;&gt;Node8</title>
<path fill="none" stroke="#191970" d="M110.1941,-56.2455C97.2744,-47.7337 78.3069,-35.2375 63.3448,-25.3801"/>
<polygon fill="#191970" stroke="#191970" points="64.9124,-22.2216 54.6362,-19.6427 61.0613,-28.067 64.9124,-22.2216"/>
</g>
<!-- Node9&#45;&gt;Node7 -->
<g id="edge13" class="edge">
<title>Node9&#45;&gt;Node7</title>
<path fill="none" stroke="#191970" d="M314.5806,-56.4146C276.3581,-48.0135 219.5126,-35.1571 161.746,-20.3701"/>
<polygon fill="#191970" stroke="#191970" points="162.2717,-16.8913 151.7146,-17.7848 160.5247,-23.6698 162.2717,-16.8913"/>
</g>
<!-- Node9&#45;&gt;Node10 -->
<g id="edge10" class="edge">
<title>Node9&#45;&gt;Node10</title>
<path fill="none" stroke="#191970" d="M419.6106,-57.244C497.9603,-45.898 628.3979,-26.9078 668.8071,-19.8041"/>
<polygon fill="#191970" stroke="#191970" points="669.5553,-23.2245 678.7204,-17.9093 668.2411,-16.349 669.5553,-23.2245"/>
</g>
<!-- Node11 -->
<g id="node12" class="node">
<title>Node11</title>
<polygon fill="none" stroke="#bfbfbf" points="537,-.5 537,-19.5 601,-19.5 601,-.5 537,-.5"/>
<text text-anchor="middle" x="569" y="-7.5" font-family="FreeSans.ttf" font-size="10.00" fill="#000000">algorithm</text>
</g>
<!-- Node9&#45;&gt;Node11 -->
<g id="edge11" class="edge">
<title>Node9&#45;&gt;Node11</title>
<path fill="none" stroke="#191970" d="M395.1003,-56.3733C431.7013,-46.613 488.3,-31.52 526.9148,-21.2227"/>
<polygon fill="#191970" stroke="#191970" points="528.0484,-24.5428 536.8089,-18.5843 526.2447,-17.7792 528.0484,-24.5428"/>
</g>
<!-- Node12 -->
<g id="node13" class="node">
<title>Node12</title>
<polygon fill="none" stroke="#bfbfbf" points="619,-.5 619,-19.5 661,-19.5 661,-.5 619,-.5"/>
<text text-anchor="middle" x="640" y="-7.5" font-family="FreeSans.ttf" font-size="10.00" fill="#000000">array</text>
</g>
<!-- Node9&#45;&gt;Node12 -->
<g id="edge12" class="edge">
<title>Node9&#45;&gt;Node12</title>
<path fill="none" stroke="#191970" d="M419.6147,-57.3378C468.4778,-49.7994 539.0573,-37.6619 608.9495,-20.0033"/>
<polygon fill="#191970" stroke="#191970" points="609.9882,-23.3502 618.8047,-17.4748 608.2486,-16.5698 609.9882,-23.3502"/>
</g>
<!-- Node13 -->
<g id="node14" class="node">
<title>Node13</title>
<polygon fill="none" stroke="#bfbfbf" points="169.5,-.5 169.5,-19.5 222.5,-19.5 222.5,-.5 169.5,-.5"/>
<text text-anchor="middle" x="196" y="-7.5" font-family="FreeSans.ttf" font-size="10.00" fill="#000000">iterator</text>
</g>
<!-- Node9&#45;&gt;Node13 -->
<g id="edge14" class="edge">
<title>Node9&#45;&gt;Node13</title>
<path fill="none" stroke="#191970" d="M330.9793,-56.3733C303.6651,-46.9892 262.0025,-32.6757 232.1928,-22.4343"/>
<polygon fill="#191970" stroke="#191970" points="233.1704,-19.0694 222.5757,-19.1303 230.8959,-25.6896 233.1704,-19.0694"/>
</g>
<!-- Node14 -->
<g id="node15" class="node">
<title>Node14</title>
<polygon fill="none" stroke="#bfbfbf" points="241,-.5 241,-19.5 285,-19.5 285,-.5 241,-.5"/>
<text text-anchor="middle" x="263" y="-7.5" font-family="FreeSans.ttf" font-size="10.00" fill="#000000">limits</text>
</g>
<!-- Node9&#45;&gt;Node14 -->
<g id="edge15" class="edge">
<title>Node9&#45;&gt;Node14</title>
<path fill="none" stroke="#191970" d="M342.2781,-56.2455C327.4111,-47.5731 305.4534,-34.7645 288.4142,-24.825"/>
<polygon fill="#191970" stroke="#191970" points="289.9317,-21.6582 279.5303,-19.6427 286.4045,-27.7047 289.9317,-21.6582"/>
</g>
<!-- Node15 -->
<g id="node16" class="node">
<title>Node15</title>
<polygon fill="none" stroke="#bfbfbf" points="303.5,-.5 303.5,-19.5 368.5,-19.5 368.5,-.5 303.5,-.5"/>
<text text-anchor="middle" x="336" y="-7.5" font-family="FreeSans.ttf" font-size="10.00" fill="#000000">stdexcept</text>
</g>
<!-- Node9&#45;&gt;Node15 -->
<g id="edge16" class="edge">
<title>Node9&#45;&gt;Node15</title>
<path fill="none" stroke="#191970" d="M354.9937,-56.2455C351.9265,-48.7776 347.5997,-38.2427 343.8503,-29.1137"/>
<polygon fill="#191970" stroke="#191970" points="346.9972,-27.5631 339.9604,-19.6427 340.5221,-30.2226 346.9972,-27.5631"/>
</g>
<!-- Node16 -->
<g id="node17" class="node">
<title>Node16</title>
<polygon fill="none" stroke="#bfbfbf" points="386.5,-.5 386.5,-19.5 455.5,-19.5 455.5,-.5 386.5,-.5"/>
<text text-anchor="middle" x="421" y="-7.5" font-family="FreeSans.ttf" font-size="10.00" fill="#000000">type_traits</text>
</g>
<!-- Node9&#45;&gt;Node16 -->
<g id="edge17" class="edge">
<title>Node9&#45;&gt;Node16</title>
<path fill="none" stroke="#191970" d="M369.7996,-56.2455C378.8678,-48.0549 392.0206,-36.1749 402.7245,-26.5069"/>
<polygon fill="#191970" stroke="#191970" points="405.2491,-28.9429 410.3242,-19.6427 400.5571,-23.7482 405.2491,-28.9429"/>
</g>
<!-- Node17 -->
<g id="node18" class="node">
<title>Node17</title>
<polygon fill="none" stroke="#bfbfbf" points="473.5,-.5 473.5,-19.5 518.5,-19.5 518.5,-.5 473.5,-.5"/>
<text text-anchor="middle" x="496" y="-7.5" font-family="FreeSans.ttf" font-size="10.00" fill="#000000">utility</text>
</g>
<!-- Node9&#45;&gt;Node17 -->
<g id="edge18" class="edge">
<title>Node9&#45;&gt;Node17</title>
<path fill="none" stroke="#191970" d="M382.5511,-56.3733C404.9741,-47.2077 438.902,-33.3393 463.8149,-23.156"/>
<polygon fill="#191970" stroke="#191970" points="465.2792,-26.3386 473.2114,-19.315 462.6305,-19.859 465.2792,-26.3386"/>
</g>
<!-- Node21&#45;&gt;Node5 -->
<g id="edge37" class="edge">
<title>Node21&#45;&gt;Node5</title>
<path fill="none" stroke="#191970" d="M508.8977,-235.3484C489.2461,-214.511 442.6341,-165.0862 417.9593,-138.9224"/>
<polygon fill="#191970" stroke="#191970" points="420.4674,-136.4805 411.06,-131.6068 415.3748,-141.2832 420.4674,-136.4805"/>
</g>
<!-- Node21&#45;&gt;Node18 -->
<g id="edge25" class="edge">
<title>Node21&#45;&gt;Node18</title>
<path fill="none" stroke="#191970" d="M586.798,-241.2543C691.2017,-234.9084 879.9142,-220.5907 902,-199 932.185,-169.4917 929.1876,-115.236 924.8383,-85.9699"/>
<polygon fill="#191970" stroke="#191970" points="928.2288,-85.0284 923.1093,-75.7526 921.3269,-86.1965 928.2288,-85.0284"/>
</g>
<!-- Node21&#45;&gt;Node22 -->
<g id="edge26" class="edge">
<title>Node21&#45;&gt;Node22</title>
<path fill="none" stroke="#191970" d="M485.3438,-235.3906C449.1472,-224.7395 390.6614,-207.5296 351.0625,-195.8772"/>
<polygon fill="#191970" stroke="#191970" points="352.0083,-192.5072 341.4269,-193.0419 350.0322,-199.2225 352.0083,-192.5072"/>
</g>
<!-- Node23 -->
<g id="node24" class="node">
<title>Node23</title>
<g id="a_node24"><a xlink:href="RotationRaw_8h.html" target="_top" xlink:title="iDynTree/Core/RotationRaw.h">
<polygon fill="none" stroke="#000000" points="735,-174 735,-193 893,-193 893,-174 735,-174"/>
<text text-anchor="middle" x="814" y="-181" font-family="FreeSans.ttf" font-size="10.00" fill="#000000">iDynTree/Core/RotationRaw.h</text>
</a>
</g>
</g>
<!-- Node21&#45;&gt;Node23 -->
<g id="edge28" class="edge">
<title>Node21&#45;&gt;Node23</title>
<path fill="none" stroke="#191970" d="M563.9252,-235.4581C616.2067,-224.5956 701.6222,-206.8488 757.8269,-195.1711"/>
<polygon fill="#191970" stroke="#191970" points="758.8881,-198.5254 767.967,-193.0643 757.4641,-191.6718 758.8881,-198.5254"/>
</g>
<!-- Node22&#45;&gt;Node5 -->
<g id="edge27" class="edge">
<title>Node22&#45;&gt;Node5</title>
<path fill="none" stroke="#191970" d="M323.5313,-173.8906C338.4094,-164.0519 361.7504,-148.6167 379.1128,-137.1351"/>
<polygon fill="#191970" stroke="#191970" points="381.1602,-139.9773 387.5708,-131.5419 377.299,-134.1385 381.1602,-139.9773"/>
</g>
<!-- Node23&#45;&gt;Node18 -->
<g id="edge36" class="edge">
<title>Node23&#45;&gt;Node18</title>
<path fill="none" stroke="#191970" d="M822.7563,-173.8845C840.7829,-154.0889 882.264,-108.5372 905.1391,-83.4173"/>
<polygon fill="#191970" stroke="#191970" points="907.9775,-85.4987 912.1228,-75.7484 902.8019,-80.7856 907.9775,-85.4987"/>
</g>
<!-- Node23&#45;&gt;Node24 -->
<g id="edge29" class="edge">
<title>Node23&#45;&gt;Node24</title>
<path fill="none" stroke="#191970" d="M797.125,-173.8906C779.5302,-163.8713 751.7434,-148.0483 731.4759,-136.5071"/>
<polygon fill="#191970" stroke="#191970" points="733.1783,-133.4489 722.7565,-131.5419 729.7144,-139.5318 733.1783,-133.4489"/>
</g>
<!-- Node24&#45;&gt;Node6 -->
<g id="edge30" class="edge">
<title>Node24&#45;&gt;Node6</title>
<path fill="none" stroke="#191970" d="M625.2144,-114.2134C510.7342,-103.1792 303.214,-83.1773 194.962,-72.7433"/>
<polygon fill="#191970" stroke="#191970" points="195.092,-69.2397 184.8023,-71.7641 194.4204,-76.2074 195.092,-69.2397"/>
</g>
<!-- Node24&#45;&gt;Node10 -->
<g id="edge31" class="edge">
<title>Node24&#45;&gt;Node10</title>
<path fill="none" stroke="#191970" d="M705.9147,-112.4509C705.7516,-94.184 705.3925,-53.9553 705.1759,-29.6976"/>
<polygon fill="#191970" stroke="#191970" points="708.6743,-29.4932 705.085,-19.5249 701.6746,-29.5558 708.6743,-29.4932"/>
</g>
<!-- Node24&#45;&gt;Node18 -->
<g id="edge33" class="edge">
<title>Node24&#45;&gt;Node18</title>
<path fill="none" stroke="#191970" d="M742.9598,-112.3733C784.1795,-101.637 850.1726,-84.4481 889.1818,-74.2875"/>
<polygon fill="#191970" stroke="#191970" points="890.1613,-77.6493 898.9562,-71.7416 888.3969,-70.8753 890.1613,-77.6493"/>
</g>
<!-- Node24&#45;&gt;Node19 -->
<g id="edge35" class="edge">
<title>Node24&#45;&gt;Node19</title>
<path fill="none" stroke="#191970" d="M665.0152,-112.4369C619.8996,-101.9099 547.96,-85.124 504.0498,-74.8783"/>
<polygon fill="#191970" stroke="#191970" points="504.5916,-71.4108 494.0578,-72.5468 503.0009,-78.2276 504.5916,-71.4108"/>
</g>
<!-- Node24&#45;&gt;Node20 -->
<g id="edge32" class="edge">
<title>Node24&#45;&gt;Node20</title>
<path fill="none" stroke="#191970" d="M683.4803,-112.3733C662.2628,-103.3032 630.2724,-89.6279 606.5231,-79.4755"/>
<polygon fill="#191970" stroke="#191970" points="607.7967,-76.2136 597.2258,-75.5011 605.0452,-82.6502 607.7967,-76.2136"/>
</g>
<!-- Node25 -->
<g id="node26" class="node">
<title>Node25</title>
<polygon fill="none" stroke="#bfbfbf" points="618,-56.5 618,-75.5 678,-75.5 678,-56.5 618,-56.5"/>
<text text-anchor="middle" x="648" y="-63.5" font-family="FreeSans.ttf" font-size="10.00" fill="#000000">iostream</text>
</g>
<!-- Node24&#45;&gt;Node25 -->
<g id="edge34" class="edge">
<title>Node24&#45;&gt;Node25</title>
<path fill="none" stroke="#191970" d="M695.8972,-112.2455C687.4972,-104.1352 675.3506,-92.4075 665.3916,-82.7919"/>
<polygon fill="#191970" stroke="#191970" points="667.6122,-80.0707 657.9871,-75.6427 662.75,-85.1066 667.6122,-80.0707"/>
</g>
<!-- Node27 -->
<g id="node28" class="node">
<title>Node27</title>
<g id="a_node28"><a xlink:href="SpatialMotionVector_8h.html" target="_top" xlink:title="iDynTree/Core/SpatialMotion\lVector.h">
<polygon fill="none" stroke="#000000" points="327.5,-403.5 327.5,-433.5 482.5,-433.5 482.5,-403.5 327.5,-403.5"/>
<text text-anchor="start" x="335.5" y="-421.5" font-family="FreeSans.ttf" font-size="10.00" fill="#000000">iDynTree/Core/SpatialMotion</text>
<text text-anchor="middle" x="405" y="-410.5" font-family="FreeSans.ttf" font-size="10.00" fill="#000000">Vector.h</text>
</a>
</g>
</g>
<!-- Node26&#45;&gt;Node27 -->
<g id="edge43" class="edge">
<title>Node26&#45;&gt;Node27</title>
<path fill="none" stroke="#191970" d="M405,-470.3906C405,-463.2234 405,-453.0862 405,-443.671"/>
<polygon fill="#191970" stroke="#191970" points="408.5001,-443.5446 405,-433.5446 401.5001,-443.5446 408.5001,-443.5446"/>
</g>
<!-- Node27&#45;&gt;Node5 -->
<g id="edge44" class="edge">
<title>Node27&#45;&gt;Node5</title>
<path fill="none" stroke="#191970" d="M404.8471,-403.3889C404.3477,-354.0314 402.7643,-197.5381 402.2012,-141.8834"/>
<polygon fill="#191970" stroke="#191970" points="405.6984,-141.5768 402.0973,-131.6127 398.6987,-141.6477 405.6984,-141.5768"/>
</g>
<!-- Node27&#45;&gt;Node22 -->
<g id="edge45" class="edge">
<title>Node27&#45;&gt;Node22</title>
<path fill="none" stroke="#191970" d="M398.8487,-403.4422C382.0328,-362.2781 335.3151,-247.9171 316.7505,-202.4726"/>
<polygon fill="#191970" stroke="#191970" points="319.974,-201.1083 312.9522,-193.1746 313.4939,-203.7556 319.974,-201.1083"/>
</g>
<!-- Node28 -->
<g id="node29" class="node">
<title>Node28</title>
<g id="a_node29"><a xlink:href="SpatialVector_8h.html" target="_top" xlink:title="iDynTree/Core/SpatialVector.h">
<polygon fill="none" stroke="#000000" points="196.5,-347.5 196.5,-366.5 357.5,-366.5 357.5,-347.5 196.5,-347.5"/>
<text text-anchor="middle" x="277" y="-354.5" font-family="FreeSans.ttf" font-size="10.00" fill="#000000">iDynTree/Core/SpatialVector.h</text>
</a>
</g>
</g>
<!-- Node27&#45;&gt;Node28 -->
<g id="edge46" class="edge">
<title>Node27&#45;&gt;Node28</title>
<path fill="none" stroke="#191970" d="M373.6877,-403.4554C352.9862,-393.509 326.0477,-380.5659 305.8647,-370.8686"/>
<polygon fill="#191970" stroke="#191970" points="307.3648,-367.7064 296.8355,-366.5303 304.3333,-374.0159 307.3648,-367.7064"/>
</g>
<!-- Node28&#45;&gt;Node3 -->
<g id="edge47" class="edge">
<title>Node28&#45;&gt;Node3</title>
<path fill="none" stroke="#191970" d="M334.0371,-347.4369C392.2794,-337.6717 482.6442,-322.5207 544.1966,-312.2006"/>
<polygon fill="#191970" stroke="#191970" points="544.9145,-315.6291 554.1981,-310.5237 543.757,-308.7255 544.9145,-315.6291"/>
</g>
<!-- Node28&#45;&gt;Node6 -->
<g id="edge49" class="edge">
<title>Node28&#45;&gt;Node6</title>
<path fill="none" stroke="#191970" d="M265.4346,-347.3581C239.1122,-324.6498 174.8598,-264.7396 147,-199 130.9388,-161.101 126.5624,-112.5021 125.3962,-85.793"/>
<polygon fill="#191970" stroke="#191970" points="128.8939,-85.6614 125.0683,-75.7814 121.8977,-85.8907 128.8939,-85.6614"/>
</g>
<!-- Node28&#45;&gt;Node19 -->
<g id="edge52" class="edge">
<title>Node28&#45;&gt;Node19</title>
<path fill="none" stroke="#191970" d="M268.8501,-347.3787C245.483,-318.5638 182.166,-231.059 218,-168 242.0261,-125.7201 267.4743,-131.5524 312,-112 332.8144,-102.8599 389.5197,-86.7198 427.9959,-76.1931"/>
<polygon fill="#191970" stroke="#191970" points="429.106,-79.5184 437.8355,-73.5146 427.2673,-72.7642 429.106,-79.5184"/>
</g>
<!-- Node28&#45;&gt;Node21 -->
<g id="edge48" class="edge">
<title>Node28&#45;&gt;Node21</title>
<path fill="none" stroke="#191970" d="M297.5475,-347.4509C340.2335,-327.6135 438.6511,-281.8758 488.2637,-258.8194"/>
<polygon fill="#191970" stroke="#191970" points="489.911,-261.9134 497.5045,-254.5249 486.9609,-255.5654 489.911,-261.9134"/>
</g>
<!-- Node28&#45;&gt;Node22 -->
<g id="edge50" class="edge">
<title>Node28&#45;&gt;Node22</title>
<path fill="none" stroke="#191970" d="M278.766,-347.4248C283.8244,-319.999 298.4442,-240.732 305.3303,-203.3964"/>
<polygon fill="#191970" stroke="#191970" points="308.8281,-203.7285 307.2,-193.2595 301.9442,-202.4588 308.8281,-203.7285"/>
</g>
<!-- Node28&#45;&gt;Node25 -->
<g id="edge51" class="edge">
<title>Node28&#45;&gt;Node25</title>
<path fill="none" stroke="#191970" d="M288.7622,-347.4656C323.19,-319.5917 426.8217,-235.9269 514,-168 553.5758,-137.1637 600.3046,-101.8363 626.8144,-81.8944"/>
<polygon fill="#191970" stroke="#191970" points="629.0987,-84.5559 634.99,-75.75 624.8931,-78.96 629.0987,-84.5559"/>
</g>
<!-- Node29&#45;&gt;Node27 -->
<g id="edge54" class="edge">
<title>Node29&#45;&gt;Node27</title>
<path fill="none" stroke="#191970" d="M534.0938,-470.3906C512.1408,-461.5664 478.9883,-448.2404 451.7771,-437.3026"/>
<polygon fill="#191970" stroke="#191970" points="453.0119,-434.0268 442.428,-433.5446 450.4011,-440.5217 453.0119,-434.0268"/>
</g>
<!-- Node31 -->
<g id="node32" class="node">
<title>Node31</title>
<g id="a_node32"><a xlink:href="SpatialForceVector_8h.html" target="_top" xlink:title="iDynTree/Core/SpatialForce\lVector.h">
<polygon fill="none" stroke="#000000" points="150,-403.5 150,-433.5 298,-433.5 298,-403.5 150,-403.5"/>
<text text-anchor="start" x="158" y="-421.5" font-family="FreeSans.ttf" font-size="10.00" fill="#000000">iDynTree/Core/SpatialForce</text>
<text text-anchor="middle" x="224" y="-410.5" font-family="FreeSans.ttf" font-size="10.00" fill="#000000">Vector.h</text>
</a>
</g>
</g>
<!-- Node30&#45;&gt;Node31 -->
<g id="edge56" class="edge">
<title>Node30&#45;&gt;Node31</title>
<path fill="none" stroke="#191970" d="M238.3438,-470.3906C236.3413,-463.1463 233.5001,-452.8679 230.874,-443.3676"/>
<polygon fill="#191970" stroke="#191970" points="234.1965,-442.2506 228.1587,-433.5446 227.4496,-444.1157 234.1965,-442.2506"/>
</g>
<!-- Node31&#45;&gt;Node5 -->
<g id="edge57" class="edge">
<title>Node31&#45;&gt;Node5</title>
<path fill="none" stroke="#191970" d="M206.7153,-403.1841C197.4537,-393.7871 186.9537,-380.9121 182,-367 159.5868,-304.0538 63.1381,-330.2372 218,-168 232.7648,-152.532 279.9109,-140.9187 322.78,-133.2303"/>
<polygon fill="#191970" stroke="#191970" points="323.45,-136.6664 332.7027,-131.5052 322.2509,-129.7699 323.45,-136.6664"/>
</g>
<!-- Node31&#45;&gt;Node22 -->
<g id="edge58" class="edge">
<title>Node31&#45;&gt;Node22</title>
<path fill="none" stroke="#191970" d="M208.0794,-403.4949C195.1781,-389.435 180.1744,-367.5607 187,-347 207.6033,-284.9367 261.9512,-227.3465 290.6491,-200.0626"/>
<polygon fill="#191970" stroke="#191970" points="293.0891,-202.5729 298.0138,-193.1922 288.3141,-197.4543 293.0891,-202.5729"/>
</g>
<!-- Node31&#45;&gt;Node28 -->
<g id="edge59" class="edge">
<title>Node31&#45;&gt;Node28</title>
<path fill="none" stroke="#191970" d="M237.1011,-403.2977C244.6113,-394.5831 254.07,-383.6075 261.8927,-374.5302"/>
<polygon fill="#191970" stroke="#191970" points="264.6371,-376.707 268.514,-366.8469 259.3345,-372.1372 264.6371,-376.707"/>
</g>
<!-- Node32&#45;&gt;Node18 -->
<g id="edge62" class="edge">
<title>Node32&#45;&gt;Node18</title>
<path fill="none" stroke="#191970" d="M1040.3701,-168.3795C1014.5465,-146.2315 966.6258,-105.1316 940.0294,-82.3209"/>
<polygon fill="#191970" stroke="#191970" points="942.0678,-79.4581 932.1986,-75.6046 937.5106,-84.7716 942.0678,-79.4581"/>
</g>
<!-- Node32&#45;&gt;Node24 -->
<g id="edge61" class="edge">
<title>Node32&#45;&gt;Node24</title>
<path fill="none" stroke="#191970" d="M987.191,-171.1285C923.863,-160.0641 831.8351,-143.9854 770.5083,-133.2706"/>
<polygon fill="#191970" stroke="#191970" points="771.015,-129.8062 760.5618,-131.5328 769.8102,-136.7018 771.015,-129.8062"/>
</g>
<!-- Node33&#45;&gt;Node18 -->
<g id="edge64" class="edge">
<title>Node33&#45;&gt;Node18</title>
<path fill="none" stroke="#191970" d="M1164.7203,-470.3812C1174.2738,-449.9983 1195,-400.7377 1195,-357 1195,-357 1195,-357 1195,-183.5 1195,-143.6776 1174.6329,-133.3227 1141,-112 1110.1042,-92.4126 1006.4487,-76.8413 953.1889,-69.9107"/>
<polygon fill="#191970" stroke="#191970" points="953.6082,-66.4359 943.2454,-68.6412 952.7216,-73.3796 953.6082,-66.4359"/>
</g>
<!-- Node34 -->
<g id="node35" class="node">
<title>Node34</title>
<polygon fill="none" stroke="#bfbfbf" points="1081,-409 1081,-428 1167,-428 1167,-409 1081,-409"/>
<text text-anchor="middle" x="1124" y="-416" font-family="FreeSans.ttf" font-size="10.00" fill="#000000">ModelExport.h</text>
</g>
<!-- Node33&#45;&gt;Node34 -->
<g id="edge65" class="edge">
<title>Node33&#45;&gt;Node34</title>
<path fill="none" stroke="#191970" d="M1154.375,-470.3906C1149.1747,-461.5068 1141.3034,-448.0601 1134.8767,-437.0811"/>
<polygon fill="#191970" stroke="#191970" points="1137.7767,-435.1069 1129.7043,-428.2449 1131.7356,-438.6432 1137.7767,-435.1069"/>
</g>
</g>
</svg>
