<?xml version="1.0" encoding="UTF-8" standalone="no"?>
<!DOCTYPE svg PUBLIC "-//W3C//DTD SVG 1.1//EN"
 "http://www.w3.org/Graphics/SVG/1.1/DTD/svg11.dtd">
<!-- Generated by graphviz version 2.40.1 (20161225.0304)
 -->
<!-- Title: PredictSensorsMeasurements.cpp Pages: 1 -->
<svg width="2219pt" height="856pt"
 viewBox="0.00 0.00 2219.00 856.00" xmlns="http://www.w3.org/2000/svg" xmlns:xlink="http://www.w3.org/1999/xlink">
<g id="graph0" class="graph" transform="scale(1 1) rotate(0) translate(4 852)">
<title>PredictSensorsMeasurements.cpp</title>
<!-- Node0 -->
<g id="node1" class="node">
<title>Node0</title>
<polygon fill="#bfbfbf" stroke="#000000" points="1356.5,-828.5 1356.5,-847.5 1537.5,-847.5 1537.5,-828.5 1356.5,-828.5"/>
<text text-anchor="middle" x="1447" y="-835.5" font-family="FreeSans.ttf" font-size="10.00" fill="#000000">PredictSensorsMeasurements.cpp</text>
</g>
<!-- Node1 -->
<g id="node2" class="node">
<title>Node1</title>
<g id="a_node2"><a xlink:href="PredictSensorsMeasurements_8h.html" target="_top" xlink:title="iDynTree/Sensors/Predict\lSensorsMeasurements.h">
<polygon fill="none" stroke="#000000" points="1931.5,-638.5 1931.5,-668.5 2068.5,-668.5 2068.5,-638.5 1931.5,-638.5"/>
<text text-anchor="start" x="1939.5" y="-656.5" font-family="FreeSans.ttf" font-size="10.00" fill="#000000">iDynTree/Sensors/Predict</text>
<text text-anchor="middle" x="2000" y="-645.5" font-family="FreeSans.ttf" font-size="10.00" fill="#000000">SensorsMeasurements.h</text>
</a>
</g>
</g>
<!-- Node0&#45;&gt;Node1 -->
<g id="edge1" class="edge">
<title>Node0&#45;&gt;Node1</title>
<path fill="none" stroke="#191970" d="M1537.7536,-833.8006C1693.4035,-826.155 1996.178,-809.1625 2012,-792 2040.3421,-761.2566 2024.8267,-708.6917 2011.8349,-677.9216"/>
<polygon fill="#191970" stroke="#191970" points="2015.0209,-676.472 2007.7643,-668.7524 2008.623,-679.3124 2015.0209,-676.472"/>
</g>
<!-- Node28 -->
<g id="node22" class="node">
<title>Node28</title>
<g id="a_node22"><a xlink:href="SpatialMotionVector_8h.html" target="_top" xlink:title="iDynTree/Core/SpatialMotion\lVector.h">
<polygon fill="none" stroke="#000000" points="1799.5,-403.5 1799.5,-433.5 1954.5,-433.5 1954.5,-403.5 1799.5,-403.5"/>
<text text-anchor="start" x="1807.5" y="-421.5" font-family="FreeSans.ttf" font-size="10.00" fill="#000000">iDynTree/Core/SpatialMotion</text>
<text text-anchor="middle" x="1877" y="-410.5" font-family="FreeSans.ttf" font-size="10.00" fill="#000000">Vector.h</text>
</a>
</g>
</g>
<!-- Node0&#45;&gt;Node28 -->
<g id="edge58" class="edge">
<title>Node0&#45;&gt;Node28</title>
<path fill="none" stroke="#191970" d="M1537.581,-833.8919C1696.8596,-826.2754 2014.8631,-809.1705 2063,-792 2119.2077,-771.9507 2173,-774.6765 2173,-715 2173,-715 2173,-715 2173,-536 2173,-490.7478 2051.9782,-455.3251 1964.702,-435.6633"/>
<polygon fill="#191970" stroke="#191970" points="1965.2912,-432.209 1954.7705,-433.4606 1963.7754,-439.0429 1965.2912,-432.209"/>
</g>
<!-- Node30 -->
<g id="node24" class="node">
<title>Node30</title>
<g id="a_node24"><a xlink:href="SpatialAcc_8h.html" target="_top" xlink:title="iDynTree/Core/SpatialAcc.h">
<polygon fill="none" stroke="#000000" points="1845,-470.5 1845,-489.5 1993,-489.5 1993,-470.5 1845,-470.5"/>
<text text-anchor="middle" x="1919" y="-477.5" font-family="FreeSans.ttf" font-size="10.00" fill="#000000">iDynTree/Core/SpatialAcc.h</text>
</a>
</g>
</g>
<!-- Node0&#45;&gt;Node30 -->
<g id="edge125" class="edge">
<title>Node0&#45;&gt;Node30</title>
<path fill="none" stroke="#191970" d="M1537.5935,-836.2097C1692.2947,-832.3754 1994.5148,-821.2082 2033,-792 2089.8005,-748.8914 2105.3918,-703.8357 2078,-638 2050.6444,-572.2513 1981.1548,-519.7673 1943.7446,-495.1793"/>
<polygon fill="#191970" stroke="#191970" points="1945.2743,-492.0018 1934.9699,-489.538 1941.4888,-497.89 1945.2743,-492.0018"/>
</g>
<!-- Node37 -->
<g id="node31" class="node">
<title>Node37</title>
<g id="a_node31"><a xlink:href="AccelerometerSensor_8h.html" target="_top" xlink:title="iDynTree/Sensors/Accelerometer\lSensor.h">
<polygon fill="none" stroke="#000000" points="1268.5,-761.5 1268.5,-791.5 1443.5,-791.5 1443.5,-761.5 1268.5,-761.5"/>
<text text-anchor="start" x="1276.5" y="-779.5" font-family="FreeSans.ttf" font-size="10.00" fill="#000000">iDynTree/Sensors/Accelerometer</text>
<text text-anchor="middle" x="1356" y="-768.5" font-family="FreeSans.ttf" font-size="10.00" fill="#000000">Sensor.h</text>
</a>
</g>
</g>
<!-- Node0&#45;&gt;Node37 -->
<g id="edge59" class="edge">
<title>Node0&#45;&gt;Node37</title>
<path fill="none" stroke="#191970" d="M1432.7813,-828.3906C1420.4655,-820.0673 1402.2234,-807.7389 1386.6103,-797.1872"/>
<polygon fill="#191970" stroke="#191970" points="1388.5063,-794.2442 1378.2611,-791.5446 1384.5866,-800.0439 1388.5063,-794.2442"/>
</g>
<!-- Node38 -->
<g id="node32" class="node">
<title>Node38</title>
<g id="a_node32"><a xlink:href="Sensors_8h.html" target="_top" xlink:title="iDynTree/Sensors/Sensors.h">
<polygon fill="none" stroke="#000000" points="1167.5,-705.5 1167.5,-724.5 1318.5,-724.5 1318.5,-705.5 1167.5,-705.5"/>
<text text-anchor="middle" x="1243" y="-712.5" font-family="FreeSans.ttf" font-size="10.00" fill="#000000">iDynTree/Sensors/Sensors.h</text>
</a>
</g>
</g>
<!-- Node0&#45;&gt;Node38 -->
<g id="edge100" class="edge">
<title>Node0&#45;&gt;Node38</title>
<path fill="none" stroke="#191970" d="M1375.2519,-828.4852C1329.2522,-820.9181 1275.221,-808.8004 1259,-792 1244.3744,-776.8519 1241.5637,-752.011 1241.6406,-734.6528"/>
<polygon fill="#191970" stroke="#191970" points="1245.1439,-734.6253 1242.0131,-724.5036 1238.1486,-734.3685 1245.1439,-734.6253"/>
</g>
<!-- Node40 -->
<g id="node34" class="node">
<title>Node40</title>
<g id="a_node34"><a xlink:href="Model_8h.html" target="_top" xlink:title="iDynTree/Model/Model.h">
<polygon fill="none" stroke="#000000" points="451.5,-644 451.5,-663 584.5,-663 584.5,-644 451.5,-644"/>
<text text-anchor="middle" x="518" y="-651" font-family="FreeSans.ttf" font-size="10.00" fill="#000000">iDynTree/Model/Model.h</text>
</a>
</g>
</g>
<!-- Node0&#45;&gt;Node40 -->
<g id="edge101" class="edge">
<title>Node0&#45;&gt;Node40</title>
<path fill="none" stroke="#191970" d="M1356.2806,-834.4038C1180.4386,-827.085 805.4713,-809.6516 749,-792 663.0581,-765.1366 575.7067,-700.323 537.6923,-669.8505"/>
<polygon fill="#191970" stroke="#191970" points="539.4966,-666.8071 529.527,-663.2211 535.0843,-672.2415 539.4966,-666.8071"/>
</g>
<!-- Node49 -->
<g id="node40" class="node">
<title>Node49</title>
<g id="a_node40"><a xlink:href="GyroscopeSensor_8h.html" target="_top" xlink:title="iDynTree/Sensors/Gyroscope\lSensor.h">
<polygon fill="none" stroke="#000000" points="1461.5,-761.5 1461.5,-791.5 1616.5,-791.5 1616.5,-761.5 1461.5,-761.5"/>
<text text-anchor="start" x="1469.5" y="-779.5" font-family="FreeSans.ttf" font-size="10.00" fill="#000000">iDynTree/Sensors/Gyroscope</text>
<text text-anchor="middle" x="1539" y="-768.5" font-family="FreeSans.ttf" font-size="10.00" fill="#000000">Sensor.h</text>
</a>
</g>
</g>
<!-- Node0&#45;&gt;Node49 -->
<g id="edge89" class="edge">
<title>Node0&#45;&gt;Node49</title>
<path fill="none" stroke="#191970" d="M1461.375,-828.3906C1473.8261,-820.0673 1492.2686,-807.7389 1508.0534,-797.1872"/>
<polygon fill="#191970" stroke="#191970" points="1510.1258,-800.0118 1516.4943,-791.5446 1506.2356,-794.1923 1510.1258,-800.0118"/>
</g>
<!-- Node50 -->
<g id="node41" class="node">
<title>Node50</title>
<g id="a_node41"><a xlink:href="ThreeAxisAngularAccelerometerSensor_8h.html" target="_top" xlink:title="iDynTree/Sensors/ThreeAxis\lAngularAccelerometerSensor.h">
<polygon fill="none" stroke="#000000" points="1835.5,-761.5 1835.5,-791.5 2002.5,-791.5 2002.5,-761.5 1835.5,-761.5"/>
<text text-anchor="start" x="1843.5" y="-779.5" font-family="FreeSans.ttf" font-size="10.00" fill="#000000">iDynTree/Sensors/ThreeAxis</text>
<text text-anchor="middle" x="1919" y="-768.5" font-family="FreeSans.ttf" font-size="10.00" fill="#000000">AngularAccelerometerSensor.h</text>
</a>
</g>
</g>
<!-- Node0&#45;&gt;Node50 -->
<g id="edge93" class="edge">
<title>Node0&#45;&gt;Node50</title>
<path fill="none" stroke="#191970" d="M1532.0084,-828.4659C1608.0904,-819.7201 1722.6295,-806.0294 1822,-792 1823.0976,-791.845 1824.202,-791.6879 1825.3122,-791.5289"/>
<polygon fill="#191970" stroke="#191970" points="1826.0408,-794.9598 1835.4303,-790.0518 1825.0295,-788.0332 1826.0408,-794.9598"/>
</g>
<!-- Node51 -->
<g id="node42" class="node">
<title>Node51</title>
<g id="a_node42"><a xlink:href="SixAxisForceTorqueSensor_8h.html" target="_top" xlink:title="iDynTree/Sensors/SixAxis\lForceTorqueSensor.h">
<polygon fill="none" stroke="#000000" points="1072,-761.5 1072,-791.5 1212,-791.5 1212,-761.5 1072,-761.5"/>
<text text-anchor="start" x="1080" y="-779.5" font-family="FreeSans.ttf" font-size="10.00" fill="#000000">iDynTree/Sensors/SixAxis</text>
<text text-anchor="middle" x="1142" y="-768.5" font-family="FreeSans.ttf" font-size="10.00" fill="#000000">ForceTorqueSensor.h</text>
</a>
</g>
</g>
<!-- Node0&#45;&gt;Node51 -->
<g id="edge96" class="edge">
<title>Node0&#45;&gt;Node51</title>
<path fill="none" stroke="#191970" d="M1399.6784,-828.4581C1352.325,-818.9098 1278.5917,-804.0423 1222.1095,-792.6532"/>
<polygon fill="#191970" stroke="#191970" points="1222.6262,-789.187 1212.1317,-790.6413 1221.2425,-796.0489 1222.6262,-789.187"/>
</g>
<!-- Node52 -->
<g id="node43" class="node">
<title>Node52</title>
<g id="a_node43"><a xlink:href="Traversal_8h.html" target="_top" xlink:title="iDynTree/Model/Traversal.h">
<polygon fill="none" stroke="#000000" points="546,-582.5 546,-601.5 694,-601.5 694,-582.5 546,-582.5"/>
<text text-anchor="middle" x="620" y="-589.5" font-family="FreeSans.ttf" font-size="10.00" fill="#000000">iDynTree/Model/Traversal.h</text>
</a>
</g>
</g>
<!-- Node0&#45;&gt;Node52 -->
<g id="edge102" class="edge">
<title>Node0&#45;&gt;Node52</title>
<path fill="none" stroke="#191970" d="M1356.37,-831.2304C1255.2412,-823.0592 1098.2968,-808.3617 1041,-792 881.1404,-746.3503 706.7106,-645.1553 644.061,-606.9734"/>
<polygon fill="#191970" stroke="#191970" points="645.6676,-603.853 635.3135,-601.6074 642.0074,-609.8198 645.6676,-603.853"/>
</g>
<!-- Node53 -->
<g id="node44" class="node">
<title>Node53</title>
<g id="a_node44"><a xlink:href="ForwardKinematics_8h.html" target="_top" xlink:title="iDynTree/Model/ForwardKinematics.h">
<polygon fill="none" stroke="#000000" points="248.5,-705.5 248.5,-724.5 445.5,-724.5 445.5,-705.5 248.5,-705.5"/>
<text text-anchor="middle" x="347" y="-712.5" font-family="FreeSans.ttf" font-size="10.00" fill="#000000">iDynTree/Model/ForwardKinematics.h</text>
</a>
</g>
</g>
<!-- Node0&#45;&gt;Node53 -->
<g id="edge105" class="edge">
<title>Node0&#45;&gt;Node53</title>
<path fill="none" stroke="#191970" d="M1356.4928,-834.777C1179.3587,-828.1269 792.7041,-811.8334 661,-792 561.311,-776.9878 446.9417,-745.1381 387.5624,-727.4669"/>
<polygon fill="#191970" stroke="#191970" points="388.4064,-724.0661 377.8226,-724.5483 386.3971,-730.7715 388.4064,-724.0661"/>
</g>
<!-- Node54 -->
<g id="node45" class="node">
<title>Node54</title>
<g id="a_node45"><a xlink:href="FreeFloatingState_8h.html" target="_top" xlink:title="iDynTree/Model/FreeFloating\lState.h">
<polygon fill="none" stroke="#000000" points="1357,-638.5 1357,-668.5 1511,-668.5 1511,-638.5 1357,-638.5"/>
<text text-anchor="start" x="1365" y="-656.5" font-family="FreeSans.ttf" font-size="10.00" fill="#000000">iDynTree/Model/FreeFloating</text>
<text text-anchor="middle" x="1434" y="-645.5" font-family="FreeSans.ttf" font-size="10.00" fill="#000000">State.h</text>
</a>
</g>
</g>
<!-- Node0&#45;&gt;Node54 -->
<g id="edge107" class="edge">
<title>Node0&#45;&gt;Node54</title>
<path fill="none" stroke="#191970" d="M1537.5153,-830.2576C1593.3705,-821.3304 1650.1218,-802.1511 1626,-761 1599.2724,-715.4036 1545.3581,-687.6937 1501.4478,-671.8546"/>
<polygon fill="#191970" stroke="#191970" points="1502.5531,-668.5334 1491.9583,-668.5573 1500.2555,-675.1456 1502.5531,-668.5334"/>
</g>
<!-- Node56 -->
<g id="node47" class="node">
<title>Node56</title>
<g id="a_node47"><a xlink:href="Dynamics_8h.html" target="_top" xlink:title="iDynTree/Model/Dynamics.h">
<polygon fill="none" stroke="#000000" points="968,-644 968,-663 1120,-663 1120,-644 968,-644"/>
<text text-anchor="middle" x="1044" y="-651" font-family="FreeSans.ttf" font-size="10.00" fill="#000000">iDynTree/Model/Dynamics.h</text>
</a>
</g>
</g>
<!-- Node0&#45;&gt;Node56 -->
<g id="edge119" class="edge">
<title>Node0&#45;&gt;Node56</title>
<path fill="none" stroke="#191970" d="M1356.2844,-832.8997C1249.3724,-826.0074 1083.5593,-812.2105 1063,-792 1031.3847,-760.921 1035.213,-703.6796 1040.0009,-673.4343"/>
<polygon fill="#191970" stroke="#191970" points="1043.5025,-673.7341 1041.8109,-663.2752 1036.611,-672.5062 1043.5025,-673.7341"/>
</g>
<!-- Node58 -->
<g id="node49" class="node">
<title>Node58</title>
<g id="a_node49"><a xlink:href="EigenHelpers_8h.html" target="_top" xlink:title="iDynTree/Core/EigenHelpers.h">
<polygon fill="none" stroke="#000000" points="1665.5,-470.5 1665.5,-489.5 1826.5,-489.5 1826.5,-470.5 1665.5,-470.5"/>
<text text-anchor="middle" x="1746" y="-477.5" font-family="FreeSans.ttf" font-size="10.00" fill="#000000">iDynTree/Core/EigenHelpers.h</text>
</a>
</g>
</g>
<!-- Node0&#45;&gt;Node58 -->
<g id="edge126" class="edge">
<title>Node0&#45;&gt;Node58</title>
<path fill="none" stroke="#191970" d="M1510.0868,-828.4753C1549.0794,-821.2933 1599.5989,-809.6137 1642,-792 1749.7443,-747.2422 1865,-770.1709 1865,-653.5 1865,-653.5 1865,-653.5 1865,-592 1865,-544.6726 1814.4706,-511.4677 1779.2643,-494.0761"/>
<polygon fill="#191970" stroke="#191970" points="1780.3312,-490.7087 1769.7954,-489.5915 1777.3349,-497.035 1780.3312,-490.7087"/>
</g>
<!-- Node2 -->
<g id="node3" class="node">
<title>Node2</title>
<g id="a_node3"><a xlink:href="LinkState_8h.html" target="_top" xlink:title="iDynTree/Model/LinkState.h">
<polygon fill="none" stroke="#000000" points="1195.5,-582.5 1195.5,-601.5 1344.5,-601.5 1344.5,-582.5 1195.5,-582.5"/>
<text text-anchor="middle" x="1270" y="-589.5" font-family="FreeSans.ttf" font-size="10.00" fill="#000000">iDynTree/Model/LinkState.h</text>
</a>
</g>
</g>
<!-- Node1&#45;&gt;Node2 -->
<g id="edge2" class="edge">
<title>Node1&#45;&gt;Node2</title>
<path fill="none" stroke="#191970" d="M1931.3234,-647.7142C1797.272,-636.4209 1501.1303,-611.4719 1354.9801,-599.1593"/>
<polygon fill="#191970" stroke="#191970" points="1354.9793,-595.6469 1344.7207,-598.295 1354.3916,-602.6222 1354.9793,-595.6469"/>
</g>
<!-- Node23 -->
<g id="node8" class="node">
<title>Node23</title>
<g id="a_node8"><a xlink:href="GeomVector3_8h.html" target="_top" xlink:title="iDynTree/Core/GeomVector3.h">
<polygon fill="none" stroke="#000000" points="1791.5,-174 1791.5,-193 1954.5,-193 1954.5,-174 1791.5,-174"/>
<text text-anchor="middle" x="1873" y="-181" font-family="FreeSans.ttf" font-size="10.00" fill="#000000">iDynTree/Core/GeomVector3.h</text>
</a>
</g>
</g>
<!-- Node1&#45;&gt;Node23 -->
<g id="edge57" class="edge">
<title>Node1&#45;&gt;Node23</title>
<path fill="none" stroke="#191970" d="M2053.4149,-638.4891C2073.7163,-630.491 2095.6295,-618.7465 2111,-602 2132.1057,-579.0049 2135,-567.2125 2135,-536 2135,-536 2135,-536 2135,-301 2135,-269.7875 2134.5158,-255.5238 2111,-235 2089.1409,-215.9221 2022.3029,-202.4971 1965.0025,-194.1477"/>
<polygon fill="#191970" stroke="#191970" points="1965.189,-190.6391 1954.7962,-192.6985 1964.2049,-197.5696 1965.189,-190.6391"/>
</g>
<!-- Node3 -->
<g id="node4" class="node">
<title>Node3</title>
<g id="a_node4"><a xlink:href="Transform_8h.html" target="_top" xlink:title="iDynTree/Core/Transform.h">
<polygon fill="none" stroke="#000000" points="981,-409 981,-428 1127,-428 1127,-409 981,-409"/>
<text text-anchor="middle" x="1054" y="-416" font-family="FreeSans.ttf" font-size="10.00" fill="#000000">iDynTree/Core/Transform.h</text>
</a>
</g>
</g>
<!-- Node2&#45;&gt;Node3 -->
<g id="edge3" class="edge">
<title>Node2&#45;&gt;Node3</title>
<path fill="none" stroke="#191970" d="M1215.5645,-582.495C1173.4496,-574.1606 1119.6001,-561.0462 1103,-546 1071.4968,-517.4458 1060.086,-466.3465 1056.0762,-438.289"/>
<polygon fill="#191970" stroke="#191970" points="1059.5191,-437.6127 1054.8072,-428.1234 1052.573,-438.4799 1059.5191,-437.6127"/>
</g>
<!-- Node27 -->
<g id="node21" class="node">
<title>Node27</title>
<g id="a_node21"><a xlink:href="Twist_8h.html" target="_top" xlink:title="iDynTree/Core/Twist.h">
<polygon fill="none" stroke="#000000" points="1411,-470.5 1411,-489.5 1533,-489.5 1533,-470.5 1411,-470.5"/>
<text text-anchor="middle" x="1472" y="-477.5" font-family="FreeSans.ttf" font-size="10.00" fill="#000000">iDynTree/Core/Twist.h</text>
</a>
</g>
</g>
<!-- Node2&#45;&gt;Node27 -->
<g id="edge32" class="edge">
<title>Node2&#45;&gt;Node27</title>
<path fill="none" stroke="#191970" d="M1304.2209,-582.4284C1329.4507,-574.5935 1364.0907,-562.1725 1392,-546 1415.8795,-532.1627 1439.8436,-511.2342 1455.2301,-496.6671"/>
<polygon fill="#191970" stroke="#191970" points="1457.6836,-499.1634 1462.4485,-489.7005 1452.8224,-494.1266 1457.6836,-499.1634"/>
</g>
<!-- Node2&#45;&gt;Node30 -->
<g id="edge43" class="edge">
<title>Node2&#45;&gt;Node30</title>
<path fill="none" stroke="#191970" d="M1325.0534,-582.4993C1444.2521,-561.9288 1725.7649,-513.3472 1853.696,-491.2697"/>
<polygon fill="#191970" stroke="#191970" points="1854.4863,-494.6852 1863.7454,-489.5355 1853.2958,-487.7871 1854.4863,-494.6852"/>
</g>
<!-- Node31 -->
<g id="node25" class="node">
<title>Node31</title>
<g id="a_node25"><a xlink:href="Wrench_8h.html" target="_top" xlink:title="iDynTree/Core/Wrench.h">
<polygon fill="none" stroke="#000000" points="1221.5,-470.5 1221.5,-489.5 1354.5,-489.5 1354.5,-470.5 1221.5,-470.5"/>
<text text-anchor="middle" x="1288" y="-477.5" font-family="FreeSans.ttf" font-size="10.00" fill="#000000">iDynTree/Core/Wrench.h</text>
</a>
</g>
</g>
<!-- Node2&#45;&gt;Node31 -->
<g id="edge45" class="edge">
<title>Node2&#45;&gt;Node31</title>
<path fill="none" stroke="#191970" d="M1250.4503,-582.3076C1229.0218,-570.2827 1199.2669,-548.5906 1212,-526 1220.138,-511.5618 1234.8355,-501.1395 1249.1516,-493.9057"/>
<polygon fill="#191970" stroke="#191970" points="1250.8319,-496.9846 1258.4315,-489.6024 1247.887,-490.6342 1250.8319,-496.9846"/>
</g>
<!-- Node33 -->
<g id="node27" class="node">
<title>Node33</title>
<g id="a_node27"><a xlink:href="ArticulatedBodyInertia_8h.html" target="_top" xlink:title="iDynTree/Core/Articulated\lBodyInertia.h">
<polygon fill="none" stroke="#000000" points="839.5,-168.5 839.5,-198.5 980.5,-198.5 980.5,-168.5 839.5,-168.5"/>
<text text-anchor="start" x="847.5" y="-186.5" font-family="FreeSans.ttf" font-size="10.00" fill="#000000">iDynTree/Core/Articulated</text>
<text text-anchor="middle" x="910" y="-175.5" font-family="FreeSans.ttf" font-size="10.00" fill="#000000">BodyInertia.h</text>
</a>
</g>
</g>
<!-- Node2&#45;&gt;Node33 -->
<g id="edge50" class="edge">
<title>Node2&#45;&gt;Node33</title>
<path fill="none" stroke="#191970" d="M1195.4872,-583.2657C1159.7356,-576.7424 1117.3234,-565.4496 1083,-546 1022.0261,-511.4487 1009.7613,-493.0397 972,-434 925.5299,-361.3442 913.8896,-256.3104 910.9741,-208.6774"/>
<polygon fill="#191970" stroke="#191970" points="914.4662,-208.4334 910.4393,-198.6336 907.4761,-208.8056 914.4662,-208.4334"/>
</g>
<!-- Node34 -->
<g id="node28" class="node">
<title>Node34</title>
<g id="a_node28"><a xlink:href="Indices_8h.html" target="_top" xlink:title="iDynTree/Model/Indices.h">
<polygon fill="none" stroke="#000000" points="647,-526.5 647,-545.5 785,-545.5 785,-526.5 647,-526.5"/>
<text text-anchor="middle" x="716" y="-533.5" font-family="FreeSans.ttf" font-size="10.00" fill="#000000">iDynTree/Model/Indices.h</text>
</a>
</g>
</g>
<!-- Node2&#45;&gt;Node34 -->
<g id="edge53" class="edge">
<title>Node2&#45;&gt;Node34</title>
<path fill="none" stroke="#191970" d="M1195.2851,-584.4476C1090.8518,-573.8912 902.0713,-554.8087 795.2552,-544.0114"/>
<polygon fill="#191970" stroke="#191970" points="795.4809,-540.5164 785.1796,-542.9929 794.7769,-547.4809 795.4809,-540.5164"/>
</g>
<!-- Node36 -->
<g id="node30" class="node">
<title>Node36</title>
<polygon fill="none" stroke="#bfbfbf" points="965.5,-526.5 965.5,-545.5 1012.5,-545.5 1012.5,-526.5 965.5,-526.5"/>
<text text-anchor="middle" x="989" y="-533.5" font-family="FreeSans.ttf" font-size="10.00" fill="#000000">vector</text>
</g>
<!-- Node2&#45;&gt;Node36 -->
<g id="edge56" class="edge">
<title>Node2&#45;&gt;Node36</title>
<path fill="none" stroke="#191970" d="M1213.3019,-582.429C1163.9052,-573.814 1090.4498,-560.3356 1027,-546 1025.5444,-545.6711 1024.0601,-545.3254 1022.5627,-544.9682"/>
<polygon fill="#191970" stroke="#191970" points="1023.2032,-541.5209 1012.6536,-542.4992 1021.5107,-548.3132 1023.2032,-541.5209"/>
</g>
<!-- Node4 -->
<g id="node5" class="node">
<title>Node4</title>
<g id="a_node5"><a xlink:href="Position_8h.html" target="_top" xlink:title="iDynTree/Core/Position.h">
<polygon fill="none" stroke="#ff0000" points="1113,-291.5 1113,-310.5 1249,-310.5 1249,-291.5 1113,-291.5"/>
<text text-anchor="middle" x="1181" y="-298.5" font-family="FreeSans.ttf" font-size="10.00" fill="#000000">iDynTree/Core/Position.h</text>
</a>
</g>
</g>
<!-- Node3&#45;&gt;Node4 -->
<g id="edge4" class="edge">
<title>Node3&#45;&gt;Node4</title>
<path fill="none" stroke="#191970" d="M1064.3929,-408.8845C1085.9751,-388.9167 1135.882,-342.743 1162.8777,-317.7667"/>
<polygon fill="#191970" stroke="#191970" points="1165.5001,-320.1087 1170.4635,-310.7484 1160.7462,-314.9705 1165.5001,-320.1087"/>
</g>
<!-- Node22 -->
<g id="node6" class="node">
<title>Node22</title>
<g id="a_node6"><a xlink:href="Rotation_8h.html" target="_top" xlink:title="iDynTree/Core/Rotation.h">
<polygon fill="none" stroke="#ff0000" points="1336.5,-235.5 1336.5,-254.5 1473.5,-254.5 1473.5,-235.5 1336.5,-235.5"/>
<text text-anchor="middle" x="1405" y="-242.5" font-family="FreeSans.ttf" font-size="10.00" fill="#000000">iDynTree/Core/Rotation.h</text>
</a>
</g>
</g>
<!-- Node3&#45;&gt;Node22 -->
<g id="edge23" class="edge">
<title>Node3&#45;&gt;Node22</title>
<path fill="none" stroke="#191970" d="M1073.3713,-408.9248C1131.9818,-379.9534 1307.6234,-293.1334 1376.6757,-259.0007"/>
<polygon fill="#191970" stroke="#191970" points="1378.2749,-262.1146 1385.6886,-254.5457 1375.173,-255.8393 1378.2749,-262.1146"/>
</g>
<!-- Node19 -->
<g id="node7" class="node">
<title>Node19</title>
<polygon fill="none" stroke="#bfbfbf" points="888,-56.5 888,-75.5 932,-75.5 932,-56.5 888,-56.5"/>
<text text-anchor="middle" x="910" y="-63.5" font-family="FreeSans.ttf" font-size="10.00" fill="#000000">string</text>
</g>
<!-- Node3&#45;&gt;Node19 -->
<g id="edge31" class="edge">
<title>Node3&#45;&gt;Node19</title>
<path fill="none" stroke="#191970" d="M1037.3204,-408.8737C993.1696,-382.2913 873.6586,-302.9071 830,-199 811.19,-154.2324 858.5061,-106.5856 888.1707,-82.2976"/>
<polygon fill="#191970" stroke="#191970" points="890.6923,-84.7652 896.3589,-75.8131 886.3465,-79.2776 890.6923,-84.7652"/>
</g>
<!-- Node25 -->
<g id="node19" class="node">
<title>Node25</title>
<g id="a_node19"><a xlink:href="MatrixFixSize_8h.html" target="_top" xlink:title="iDynTree/Core/MatrixFixSize.h">
<polygon fill="none" stroke="#000000" points="1227.5,-112.5 1227.5,-131.5 1388.5,-131.5 1388.5,-112.5 1227.5,-112.5"/>
<text text-anchor="middle" x="1308" y="-119.5" font-family="FreeSans.ttf" font-size="10.00" fill="#000000">iDynTree/Core/MatrixFixSize.h</text>
</a>
</g>
</g>
<!-- Node3&#45;&gt;Node25 -->
<g id="edge24" class="edge">
<title>Node3&#45;&gt;Node25</title>
<path fill="none" stroke="#191970" d="M1053.0267,-408.7627C1051.1033,-388.6514 1047,-341.0535 1047,-301 1047,-301 1047,-301 1047,-245 1047,-188.9066 1096.919,-193.2658 1147,-168 1178.265,-152.2269 1215.7554,-141.1126 1246.6895,-133.7651"/>
<polygon fill="#191970" stroke="#191970" points="1247.5261,-137.1642 1256.4865,-131.5108 1245.9563,-130.3424 1247.5261,-137.1642"/>
</g>
<!-- Node4&#45;&gt;Node22 -->
<g id="edge5" class="edge">
<title>Node4&#45;&gt;Node22</title>
<path fill="none" stroke="#191970" d="M1219.2525,-291.4369C1257.3467,-281.9133 1315.9313,-267.2672 1357.0987,-256.9753"/>
<polygon fill="#191970" stroke="#191970" points="1358.0528,-260.3446 1366.9053,-254.5237 1356.355,-253.5536 1358.0528,-260.3446"/>
</g>
<!-- Node4&#45;&gt;Node19 -->
<g id="edge22" class="edge">
<title>Node4&#45;&gt;Node19</title>
<path fill="none" stroke="#191970" d="M1175.352,-291.3402C1157.0974,-260.883 1096.5785,-165.7088 1023,-112 998.4497,-94.0795 965.9165,-81.7957 942.0641,-74.4603"/>
<polygon fill="#191970" stroke="#191970" points="943.0033,-71.0883 932.4216,-71.6175 941.0237,-77.8026 943.0033,-71.0883"/>
</g>
<!-- Node22&#45;&gt;Node19 -->
<g id="edge6" class="edge">
<title>Node22&#45;&gt;Node19</title>
<path fill="none" stroke="#191970" d="M1386.1167,-235.4285C1338.8157,-211.7567 1211.0066,-149.6626 1099,-112 1045.0182,-93.8484 980.1381,-79.6494 942.1453,-72.0725"/>
<polygon fill="#191970" stroke="#191970" points="942.661,-68.607 932.1738,-70.1133 941.3114,-75.4757 942.661,-68.607"/>
</g>
<!-- Node22&#45;&gt;Node23 -->
<g id="edge7" class="edge">
<title>Node22&#45;&gt;Node23</title>
<path fill="none" stroke="#191970" d="M1473.5524,-235.9915C1557.6494,-224.9403 1700.1171,-206.2186 1790.233,-194.3764"/>
<polygon fill="#191970" stroke="#191970" points="1790.9538,-197.8119 1800.4125,-193.0387 1790.0417,-190.8716 1790.9538,-197.8119"/>
</g>
<!-- Node6 -->
<g id="node9" class="node">
<title>Node6</title>
<g id="a_node9"><a xlink:href="VectorFixSize_8h.html" target="_top" xlink:title="iDynTree/Core/VectorFixSize.h">
<polygon fill="none" stroke="#000000" points="1532.5,-112.5 1532.5,-131.5 1693.5,-131.5 1693.5,-112.5 1532.5,-112.5"/>
<text text-anchor="middle" x="1613" y="-119.5" font-family="FreeSans.ttf" font-size="10.00" fill="#000000">iDynTree/Core/VectorFixSize.h</text>
</a>
</g>
</g>
<!-- Node22&#45;&gt;Node6 -->
<g id="edge21" class="edge">
<title>Node22&#45;&gt;Node6</title>
<path fill="none" stroke="#191970" d="M1421.3214,-235.3484C1457.5459,-213.9272 1544.8601,-162.2943 1588.0075,-136.7792"/>
<polygon fill="#191970" stroke="#191970" points="1589.9283,-139.7096 1596.7544,-131.6068 1586.3652,-133.6842 1589.9283,-139.7096"/>
</g>
<!-- Node23&#45;&gt;Node6 -->
<g id="edge8" class="edge">
<title>Node23&#45;&gt;Node6</title>
<path fill="none" stroke="#191970" d="M1832.6603,-173.9581C1787.0232,-163.1632 1712.643,-145.5694 1663.266,-133.8899"/>
<polygon fill="#191970" stroke="#191970" points="1663.9715,-130.4602 1653.4344,-131.5643 1662.3602,-137.2722 1663.9715,-130.4602"/>
</g>
<!-- Node6&#45;&gt;Node19 -->
<g id="edge17" class="edge">
<title>Node6&#45;&gt;Node19</title>
<path fill="none" stroke="#191970" d="M1532.357,-115.5761C1378.0477,-103.284 1047.0288,-76.9155 942.3977,-68.5808"/>
<polygon fill="#191970" stroke="#191970" points="942.404,-65.0703 932.1576,-67.765 941.8481,-72.0482 942.404,-65.0703"/>
</g>
<!-- Node7 -->
<g id="node10" class="node">
<title>Node7</title>
<g id="a_node10"><a xlink:href="Utils_8h.html" target="_top" xlink:title="iDynTree/Core/Utils.h">
<polygon fill="none" stroke="#000000" points="1713.5,-56.5 1713.5,-75.5 1832.5,-75.5 1832.5,-56.5 1713.5,-56.5"/>
<text text-anchor="middle" x="1773" y="-63.5" font-family="FreeSans.ttf" font-size="10.00" fill="#000000">iDynTree/Core/Utils.h</text>
</a>
</g>
</g>
<!-- Node6&#45;&gt;Node7 -->
<g id="edge9" class="edge">
<title>Node6&#45;&gt;Node7</title>
<path fill="none" stroke="#191970" d="M1640.505,-112.3733C1666.8802,-103.1419 1706.8851,-89.1402 1736.0358,-78.9375"/>
<polygon fill="#191970" stroke="#191970" points="1737.5716,-82.1082 1745.8539,-75.5011 1735.2591,-75.5012 1737.5716,-82.1082"/>
</g>
<!-- Node10 -->
<g id="node13" class="node">
<title>Node10</title>
<g id="a_node13"><a xlink:href="Span_8h.html" target="_top" xlink:title="iDynTree/Core/Span.h">
<polygon fill="none" stroke="#ff0000" points="1574.5,-56.5 1574.5,-75.5 1695.5,-75.5 1695.5,-56.5 1574.5,-56.5"/>
<text text-anchor="middle" x="1635" y="-63.5" font-family="FreeSans.ttf" font-size="10.00" fill="#000000">iDynTree/Core/Span.h</text>
</a>
</g>
</g>
<!-- Node6&#45;&gt;Node10 -->
<g id="edge12" class="edge">
<title>Node6&#45;&gt;Node10</title>
<path fill="none" stroke="#191970" d="M1616.8321,-112.2455C1619.7659,-104.7776 1623.9047,-94.2427 1627.491,-85.1137"/>
<polygon fill="#191970" stroke="#191970" points="1630.8129,-86.23 1631.2118,-75.6427 1624.2976,-83.6704 1630.8129,-86.23"/>
</g>
<!-- Node11 -->
<g id="node14" class="node">
<title>Node11</title>
<polygon fill="none" stroke="#bfbfbf" points="1520,-.5 1520,-19.5 1572,-19.5 1572,-.5 1520,-.5"/>
<text text-anchor="middle" x="1546" y="-7.5" font-family="FreeSans.ttf" font-size="10.00" fill="#000000">cassert</text>
</g>
<!-- Node6&#45;&gt;Node11 -->
<g id="edge19" class="edge">
<title>Node6&#45;&gt;Node11</title>
<path fill="none" stroke="#191970" d="M1600.067,-112.403C1589.4911,-103.9194 1574.8814,-90.6434 1566,-76 1557.2794,-61.6216 1552.1076,-43.1537 1549.2155,-29.4118"/>
<polygon fill="#191970" stroke="#191970" points="1552.6527,-28.7511 1547.3607,-19.5726 1545.7739,-30.0479 1552.6527,-28.7511"/>
</g>
<!-- Node20 -->
<g id="node17" class="node">
<title>Node20</title>
<polygon fill="none" stroke="#bfbfbf" points="1394,-56.5 1394,-75.5 1450,-75.5 1450,-56.5 1394,-56.5"/>
<text text-anchor="middle" x="1422" y="-63.5" font-family="FreeSans.ttf" font-size="10.00" fill="#000000">sstream</text>
</g>
<!-- Node6&#45;&gt;Node20 -->
<g id="edge18" class="edge">
<title>Node6&#45;&gt;Node20</title>
<path fill="none" stroke="#191970" d="M1580.1659,-112.3733C1546.7715,-102.5822 1495.0737,-87.4247 1459.9457,-77.1254"/>
<polygon fill="#191970" stroke="#191970" points="1460.6417,-73.6822 1450.0609,-74.2273 1458.6722,-80.3995 1460.6417,-73.6822"/>
</g>
<!-- Node21 -->
<g id="node18" class="node">
<title>Node21</title>
<polygon fill="none" stroke="#bfbfbf" points="1468,-56.5 1468,-75.5 1518,-75.5 1518,-56.5 1468,-56.5"/>
<text text-anchor="middle" x="1493" y="-63.5" font-family="FreeSans.ttf" font-size="10.00" fill="#000000">cstring</text>
</g>
<!-- Node6&#45;&gt;Node21 -->
<g id="edge20" class="edge">
<title>Node6&#45;&gt;Node21</title>
<path fill="none" stroke="#191970" d="M1592.3713,-112.3733C1573.1081,-103.3838 1544.1514,-89.8706 1522.4581,-79.7471"/>
<polygon fill="#191970" stroke="#191970" points="1523.9015,-76.5584 1513.3595,-75.5011 1520.9413,-82.9017 1523.9015,-76.5584"/>
</g>
<!-- Node8 -->
<g id="node11" class="node">
<title>Node8</title>
<polygon fill="none" stroke="#bfbfbf" points="1678.5,-.5 1678.5,-19.5 1731.5,-19.5 1731.5,-.5 1678.5,-.5"/>
<text text-anchor="middle" x="1705" y="-7.5" font-family="FreeSans.ttf" font-size="10.00" fill="#000000">cstddef</text>
</g>
<!-- Node7&#45;&gt;Node8 -->
<g id="edge10" class="edge">
<title>Node7&#45;&gt;Node8</title>
<path fill="none" stroke="#191970" d="M1761.1553,-56.2455C1751.112,-47.9746 1736.5005,-35.9416 1724.6996,-26.2232"/>
<polygon fill="#191970" stroke="#191970" points="1726.6533,-23.298 1716.709,-19.6427 1722.2033,-28.7015 1726.6533,-23.298"/>
</g>
<!-- Node9 -->
<g id="node12" class="node">
<title>Node9</title>
<polygon fill="none" stroke="#bfbfbf" points="1750,-.5 1750,-19.5 1830,-19.5 1830,-.5 1750,-.5"/>
<text text-anchor="middle" x="1790" y="-7.5" font-family="FreeSans.ttf" font-size="10.00" fill="#000000">CoreExport.h</text>
</g>
<!-- Node7&#45;&gt;Node9 -->
<g id="edge11" class="edge">
<title>Node7&#45;&gt;Node9</title>
<path fill="none" stroke="#191970" d="M1775.9612,-56.2455C1778.2038,-48.8579 1781.3577,-38.4689 1784.1081,-29.4087"/>
<polygon fill="#191970" stroke="#191970" points="1787.517,-30.2282 1787.0728,-19.6427 1780.8188,-28.1948 1787.517,-30.2282"/>
</g>
<!-- Node10&#45;&gt;Node8 -->
<g id="edge15" class="edge">
<title>Node10&#45;&gt;Node8</title>
<path fill="none" stroke="#191970" d="M1647.1931,-56.2455C1657.6321,-47.8943 1672.8655,-35.7076 1685.074,-25.9408"/>
<polygon fill="#191970" stroke="#191970" points="1687.3244,-28.6227 1692.9467,-19.6427 1682.9515,-23.1566 1687.3244,-28.6227"/>
</g>
<!-- Node10&#45;&gt;Node11 -->
<g id="edge13" class="edge">
<title>Node10&#45;&gt;Node11</title>
<path fill="none" stroke="#191970" d="M1619.4974,-56.2455C1605.842,-47.6534 1585.7343,-35.0014 1570.0011,-25.1018"/>
<polygon fill="#191970" stroke="#191970" points="1571.6529,-22.006 1561.325,-19.6427 1567.9249,-27.9307 1571.6529,-22.006"/>
</g>
<!-- Node12 -->
<g id="node15" class="node">
<title>Node12</title>
<polygon fill="none" stroke="#bfbfbf" points="1596,-.5 1596,-19.5 1660,-19.5 1660,-.5 1596,-.5"/>
<text text-anchor="middle" x="1628" y="-7.5" font-family="FreeSans.ttf" font-size="10.00" fill="#000000">algorithm</text>
</g>
<!-- Node10&#45;&gt;Node12 -->
<g id="edge14" class="edge">
<title>Node10&#45;&gt;Node12</title>
<path fill="none" stroke="#191970" d="M1633.7807,-56.2455C1632.8673,-48.9382 1631.5868,-38.6944 1630.4631,-29.7046"/>
<polygon fill="#191970" stroke="#191970" points="1633.9187,-29.1313 1629.2053,-19.6427 1626.9728,-29.9996 1633.9187,-29.1313"/>
</g>
<!-- Node14 -->
<g id="node16" class="node">
<title>Node14</title>
<polygon fill="none" stroke="#bfbfbf" points="689.5,-.5 689.5,-19.5 742.5,-19.5 742.5,-.5 689.5,-.5"/>
<text text-anchor="middle" x="716" y="-7.5" font-family="FreeSans.ttf" font-size="10.00" fill="#000000">iterator</text>
</g>
<!-- Node10&#45;&gt;Node14 -->
<g id="edge16" class="edge">
<title>Node10&#45;&gt;Node14</title>
<path fill="none" stroke="#191970" d="M1574.4842,-60.0134C1559.0124,-58.5882 1542.3979,-57.1492 1527,-56 1228.6366,-33.7324 867.8051,-16.7798 752.9613,-11.6262"/>
<polygon fill="#191970" stroke="#191970" points="752.7719,-8.1143 742.6256,-11.1645 752.4594,-15.1073 752.7719,-8.1143"/>
</g>
<!-- Node25&#45;&gt;Node19 -->
<g id="edge28" class="edge">
<title>Node25&#45;&gt;Node19</title>
<path fill="none" stroke="#191970" d="M1240.0336,-112.4369C1153.3856,-100.2452 1007.0738,-79.6586 942.401,-70.5589"/>
<polygon fill="#191970" stroke="#191970" points="942.7735,-67.077 932.3834,-69.1494 941.7981,-74.0087 942.7735,-67.077"/>
</g>
<!-- Node25&#45;&gt;Node7 -->
<g id="edge25" class="edge">
<title>Node25&#45;&gt;Node7</title>
<path fill="none" stroke="#191970" d="M1388.6871,-113.3841C1466.6905,-104.887 1588.4823,-91.1797 1703.2909,-76.1968"/>
<polygon fill="#191970" stroke="#191970" points="1703.85,-79.6535 1713.3103,-74.8836 1702.9403,-72.7129 1703.85,-79.6535"/>
</g>
<!-- Node25&#45;&gt;Node11 -->
<g id="edge26" class="edge">
<title>Node25&#45;&gt;Node11</title>
<path fill="none" stroke="#191970" d="M1304.3149,-112.2083C1299.6953,-98.0727 1293.8647,-71.9045 1307,-56 1332.2563,-25.4191 1448.9933,-14.9525 1509.4611,-11.5449"/>
<polygon fill="#191970" stroke="#191970" points="1509.9104,-15.0262 1519.7123,-11.0046 1509.5419,-8.0359 1509.9104,-15.0262"/>
</g>
<!-- Node25&#45;&gt;Node20 -->
<g id="edge30" class="edge">
<title>Node25&#45;&gt;Node20</title>
<path fill="none" stroke="#191970" d="M1327.5973,-112.3733C1345.7331,-103.4644 1372.9135,-90.1127 1393.4587,-80.0203"/>
<polygon fill="#191970" stroke="#191970" points="1395.2261,-83.0517 1402.6584,-75.5011 1392.1397,-76.7688 1395.2261,-83.0517"/>
</g>
<!-- Node25&#45;&gt;Node21 -->
<g id="edge27" class="edge">
<title>Node25&#45;&gt;Node21</title>
<path fill="none" stroke="#191970" d="M1339.8026,-112.3733C1372.6646,-102.4259 1423.8257,-86.9393 1457.864,-76.6358"/>
<polygon fill="#191970" stroke="#191970" points="1459.2816,-79.8636 1467.8387,-73.6164 1457.2535,-73.1638 1459.2816,-79.8636"/>
</g>
<!-- Node26 -->
<g id="node20" class="node">
<title>Node26</title>
<polygon fill="none" stroke="#bfbfbf" points="1316,-56.5 1316,-75.5 1376,-75.5 1376,-56.5 1316,-56.5"/>
<text text-anchor="middle" x="1346" y="-63.5" font-family="FreeSans.ttf" font-size="10.00" fill="#000000">iostream</text>
</g>
<!-- Node25&#45;&gt;Node26 -->
<g id="edge29" class="edge">
<title>Node25&#45;&gt;Node26</title>
<path fill="none" stroke="#191970" d="M1314.6191,-112.2455C1319.9046,-104.4564 1327.4541,-93.3308 1333.8238,-83.9439"/>
<polygon fill="#191970" stroke="#191970" points="1336.7379,-85.8827 1339.4568,-75.6427 1330.9455,-81.9522 1336.7379,-85.8827"/>
</g>
<!-- Node27&#45;&gt;Node28 -->
<g id="edge33" class="edge">
<title>Node27&#45;&gt;Node28</title>
<path fill="none" stroke="#191970" d="M1533.0711,-470.7262C1601.1684,-460.3855 1711.8852,-443.573 1789.2485,-431.8252"/>
<polygon fill="#191970" stroke="#191970" points="1790.0991,-435.2363 1799.4603,-430.2745 1789.0482,-428.3156 1790.0991,-435.2363"/>
</g>
<!-- Node28&#45;&gt;Node23 -->
<g id="edge35" class="edge">
<title>Node28&#45;&gt;Node23</title>
<path fill="none" stroke="#191970" d="M1876.7437,-403.4422C1876.0475,-362.5381 1874.121,-249.3587 1873.3377,-203.3419"/>
<polygon fill="#191970" stroke="#191970" points="1876.8345,-203.1136 1873.1647,-193.1746 1869.8355,-203.2328 1876.8345,-203.1136"/>
</g>
<!-- Node28&#45;&gt;Node6 -->
<g id="edge34" class="edge">
<title>Node28&#45;&gt;Node6</title>
<path fill="none" stroke="#191970" d="M1799.4915,-410.4637C1733.3939,-398.8126 1649,-370.3564 1649,-301 1649,-301 1649,-301 1649,-245 1649,-206.8178 1632.8235,-164.5555 1622.1578,-140.8402"/>
<polygon fill="#191970" stroke="#191970" points="1625.2505,-139.1905 1617.8551,-131.6037 1618.9052,-142.1464 1625.2505,-139.1905"/>
</g>
<!-- Node29 -->
<g id="node23" class="node">
<title>Node29</title>
<g id="a_node23"><a xlink:href="SpatialVector_8h.html" target="_top" xlink:title="iDynTree/Core/SpatialVector.h">
<polygon fill="none" stroke="#000000" points="1421.5,-347.5 1421.5,-366.5 1582.5,-366.5 1582.5,-347.5 1421.5,-347.5"/>
<text text-anchor="middle" x="1502" y="-354.5" font-family="FreeSans.ttf" font-size="10.00" fill="#000000">iDynTree/Core/SpatialVector.h</text>
</a>
</g>
</g>
<!-- Node28&#45;&gt;Node29 -->
<g id="edge36" class="edge">
<title>Node28&#45;&gt;Node29</title>
<path fill="none" stroke="#191970" d="M1799.2998,-405.7572C1731.6924,-394.6695 1634.6785,-378.7593 1570.0712,-368.1637"/>
<polygon fill="#191970" stroke="#191970" points="1570.4244,-364.6749 1559.9898,-366.5103 1569.2915,-371.5827 1570.4244,-364.6749"/>
</g>
<!-- Node29&#45;&gt;Node4 -->
<g id="edge37" class="edge">
<title>Node29&#45;&gt;Node4</title>
<path fill="none" stroke="#191970" d="M1447.1829,-347.4369C1391.3229,-337.6918 1304.7179,-322.5832 1245.5695,-312.2645"/>
<polygon fill="#191970" stroke="#191970" points="1246.0438,-308.7944 1235.591,-310.5237 1244.8407,-315.6903 1246.0438,-308.7944"/>
</g>
<!-- Node29&#45;&gt;Node22 -->
<g id="edge38" class="edge">
<title>Node29&#45;&gt;Node22</title>
<path fill="none" stroke="#191970" d="M1493.7298,-347.4509C1477.3366,-328.5227 1440.5211,-286.014 1419.834,-262.1279"/>
<polygon fill="#191970" stroke="#191970" points="1422.4417,-259.7927 1413.2492,-254.5249 1417.1503,-264.3754 1422.4417,-259.7927"/>
</g>
<!-- Node29&#45;&gt;Node23 -->
<g id="edge40" class="edge">
<title>Node29&#45;&gt;Node23</title>
<path fill="none" stroke="#191970" d="M1575.2625,-347.4569C1613.9153,-340.6155 1661.4013,-329.2822 1701,-311 1763.9287,-281.9466 1826.4395,-227.5718 1855.7539,-200.1779"/>
<polygon fill="#191970" stroke="#191970" points="1858.2583,-202.6267 1863.1146,-193.2104 1853.4461,-197.5431 1858.2583,-202.6267"/>
</g>
<!-- Node29&#45;&gt;Node7 -->
<g id="edge39" class="edge">
<title>Node29&#45;&gt;Node7</title>
<path fill="none" stroke="#191970" d="M1511.2028,-347.4488C1534.7808,-322.9474 1599.2148,-255.7964 1652,-199 1690.1854,-157.9129 1734.3788,-108.9791 1757.3334,-83.4563"/>
<polygon fill="#191970" stroke="#191970" points="1760.1837,-85.5209 1764.2644,-75.7434 1754.977,-80.8421 1760.1837,-85.5209"/>
</g>
<!-- Node29&#45;&gt;Node20 -->
<g id="edge42" class="edge">
<title>Node29&#45;&gt;Node20</title>
<path fill="none" stroke="#191970" d="M1505.8624,-347.3228C1509.3038,-338.1446 1514.0833,-323.8807 1516,-311 1520.9715,-277.5901 1520.7926,-268.4361 1516,-235 1507.9182,-178.6162 1511.8087,-159.2509 1480,-112 1471.65,-99.5963 1458.9102,-88.9659 1447.4953,-81.0588"/>
<polygon fill="#191970" stroke="#191970" points="1449.3993,-78.122 1439.1192,-75.5588 1445.5572,-83.9733 1449.3993,-78.122"/>
</g>
<!-- Node29&#45;&gt;Node26 -->
<g id="edge41" class="edge">
<title>Node29&#45;&gt;Node26</title>
<path fill="none" stroke="#191970" d="M1501.9445,-347.4413C1501.5199,-326.3637 1498.8066,-274.6208 1483,-235 1458.3772,-173.2803 1442.0963,-161.7104 1398,-112 1388.5018,-101.2925 1376.6264,-90.6208 1366.623,-82.2556"/>
<polygon fill="#191970" stroke="#191970" points="1368.7108,-79.4416 1358.7537,-75.8212 1364.2798,-84.8607 1368.7108,-79.4416"/>
</g>
<!-- Node30&#45;&gt;Node28 -->
<g id="edge44" class="edge">
<title>Node30&#45;&gt;Node28</title>
<path fill="none" stroke="#191970" d="M1912.4375,-470.3906C1907.227,-462.761 1899.7181,-451.7658 1892.9523,-441.8588"/>
<polygon fill="#191970" stroke="#191970" points="1895.8043,-439.8287 1887.2744,-433.5446 1890.0237,-443.7765 1895.8043,-439.8287"/>
</g>
<!-- Node32 -->
<g id="node26" class="node">
<title>Node32</title>
<g id="a_node26"><a xlink:href="SpatialForceVector_8h.html" target="_top" xlink:title="iDynTree/Core/SpatialForce\lVector.h">
<polygon fill="none" stroke="#000000" points="1314,-403.5 1314,-433.5 1462,-433.5 1462,-403.5 1314,-403.5"/>
<text text-anchor="start" x="1322" y="-421.5" font-family="FreeSans.ttf" font-size="10.00" fill="#000000">iDynTree/Core/SpatialForce</text>
<text text-anchor="middle" x="1388" y="-410.5" font-family="FreeSans.ttf" font-size="10.00" fill="#000000">Vector.h</text>
</a>
</g>
</g>
<!-- Node31&#45;&gt;Node32 -->
<g id="edge46" class="edge">
<title>Node31&#45;&gt;Node32</title>
<path fill="none" stroke="#191970" d="M1303.625,-470.3906C1317.2841,-461.9903 1337.5768,-449.5103 1354.8382,-438.8945"/>
<polygon fill="#191970" stroke="#191970" points="1356.8527,-441.7646 1363.5372,-433.5446 1353.1857,-435.8019 1356.8527,-441.7646"/>
</g>
<!-- Node32&#45;&gt;Node23 -->
<g id="edge48" class="edge">
<title>Node32&#45;&gt;Node23</title>
<path fill="none" stroke="#191970" d="M1462.1344,-404.6081C1520.0467,-393.3432 1595.4917,-377.6432 1625,-367 1675.8617,-348.6549 1686.436,-338.4818 1733,-311 1771.6411,-288.1943 1784.0839,-285.4921 1817,-255 1834.4336,-238.8503 1850.7501,-216.9333 1861.222,-201.6378"/>
<polygon fill="#191970" stroke="#191970" points="1864.295,-203.3388 1866.9447,-193.0806 1858.4762,-199.4474 1864.295,-203.3388"/>
</g>
<!-- Node32&#45;&gt;Node6 -->
<g id="edge47" class="edge">
<title>Node32&#45;&gt;Node6</title>
<path fill="none" stroke="#191970" d="M1462.2088,-403.5179C1516.5201,-391.9296 1582.3524,-376.3342 1592,-367 1613.9375,-345.7751 1611,-331.5246 1611,-301 1611,-301 1611,-301 1611,-245 1611,-208.4946 1611.8916,-165.9028 1612.4842,-141.6269"/>
<polygon fill="#191970" stroke="#191970" points="1615.9846,-141.6536 1612.7385,-131.5683 1608.9868,-141.4766 1615.9846,-141.6536"/>
</g>
<!-- Node32&#45;&gt;Node29 -->
<g id="edge49" class="edge">
<title>Node32&#45;&gt;Node29</title>
<path fill="none" stroke="#191970" d="M1415.8875,-403.4554C1433.9076,-393.734 1457.2341,-381.15 1475.0632,-371.5317"/>
<polygon fill="#191970" stroke="#191970" points="1477.1948,-374.3586 1484.334,-366.5303 1473.8713,-368.1979 1477.1948,-374.3586"/>
</g>
<!-- Node33&#45;&gt;Node19 -->
<g id="edge52" class="edge">
<title>Node33&#45;&gt;Node19</title>
<path fill="none" stroke="#191970" d="M910,-168.1389C910,-146.9692 910,-108.8174 910,-85.6112"/>
<polygon fill="#191970" stroke="#191970" points="913.5001,-85.5594 910,-75.5595 906.5001,-85.5595 913.5001,-85.5594"/>
</g>
<!-- Node33&#45;&gt;Node25 -->
<g id="edge51" class="edge">
<title>Node33&#45;&gt;Node25</title>
<path fill="none" stroke="#191970" d="M980.6958,-172.5759C1052.8058,-161.4333 1164.0986,-144.236 1236.4987,-133.0486"/>
<polygon fill="#191970" stroke="#191970" points="1237.1002,-136.4973 1246.4484,-131.5111 1236.0312,-129.5794 1237.1002,-136.4973"/>
</g>
<!-- Node34&#45;&gt;Node19 -->
<g id="edge54" class="edge">
<title>Node34&#45;&gt;Node19</title>
<path fill="none" stroke="#191970" d="M646.9369,-532.5788C518.9904,-524.3418 258,-497.8184 258,-418.5 258,-418.5 258,-418.5 258,-183.5 258,-119.8024 746.2061,-78.3608 877.7072,-68.3536"/>
<polygon fill="#191970" stroke="#191970" points="878.2239,-71.8247 887.9332,-67.5843 877.6988,-64.8444 878.2239,-71.8247"/>
</g>
<!-- Node35 -->
<g id="node29" class="node">
<title>Node35</title>
<polygon fill="none" stroke="#bfbfbf" points="673,-470.5 673,-489.5 759,-489.5 759,-470.5 673,-470.5"/>
<text text-anchor="middle" x="716" y="-477.5" font-family="FreeSans.ttf" font-size="10.00" fill="#000000">ModelExport.h</text>
</g>
<!-- Node34&#45;&gt;Node35 -->
<g id="edge55" class="edge">
<title>Node34&#45;&gt;Node35</title>
<path fill="none" stroke="#191970" d="M716,-526.2455C716,-518.9382 716,-508.6944 716,-499.7046"/>
<polygon fill="#191970" stroke="#191970" points="719.5001,-499.6426 716,-489.6427 712.5001,-499.6427 719.5001,-499.6426"/>
</g>
<!-- Node37&#45;&gt;Node23 -->
<g id="edge60" class="edge">
<title>Node37&#45;&gt;Node23</title>
<path fill="none" stroke="#191970" d="M1420.563,-761.4545C1594.3522,-720.0617 2059,-603.1167 2059,-536 2059,-536 2059,-536 2059,-301 2059,-240.9513 1988.8512,-210.3424 1934.7133,-195.6612"/>
<polygon fill="#191970" stroke="#191970" points="1935.3691,-192.2158 1924.8114,-193.1018 1933.6172,-198.993 1935.3691,-192.2158"/>
</g>
<!-- Node37&#45;&gt;Node38 -->
<g id="edge61" class="edge">
<title>Node37&#45;&gt;Node38</title>
<path fill="none" stroke="#191970" d="M1328.3571,-761.4554C1310.4951,-751.734 1287.3732,-739.15 1269.7005,-729.5317"/>
<polygon fill="#191970" stroke="#191970" points="1270.9675,-726.2365 1260.511,-724.5303 1267.6213,-732.3849 1270.9675,-726.2365"/>
</g>
<!-- Node38&#45;&gt;Node19 -->
<g id="edge63" class="edge">
<title>Node38&#45;&gt;Node19</title>
<path fill="none" stroke="#191970" d="M1167.3397,-713.8944C1024.8797,-711.0954 707.2892,-701.4449 442,-669 260.5641,-646.8104 38,-774.7877 38,-592 38,-592 38,-592 38,-183.5 38,-93.2742 139.8254,-131.1291 228,-112 354.3804,-84.5823 759.8859,-70.508 877.6487,-66.9296"/>
<polygon fill="#191970" stroke="#191970" points="877.9286,-70.4229 887.8193,-66.6251 877.719,-63.426 877.9286,-70.4229"/>
</g>
<!-- Node38&#45;&gt;Node23 -->
<g id="edge62" class="edge">
<title>Node38&#45;&gt;Node23</title>
<path fill="none" stroke="#191970" d="M1318.6593,-705.5823C1514.1664,-680.2279 2021,-607.5947 2021,-536 2021,-536 2021,-536 2021,-301 2021,-246.4036 1958.4594,-213.1364 1914.6879,-196.5389"/>
<polygon fill="#191970" stroke="#191970" points="1915.7079,-193.1857 1905.1138,-193.0572 1913.3154,-199.7641 1915.7079,-193.1857"/>
</g>
<!-- Node38&#45;&gt;Node14 -->
<g id="edge65" class="edge">
<title>Node38&#45;&gt;Node14</title>
<path fill="none" stroke="#191970" d="M1167.4092,-714.1117C911.6656,-710.8452 92.0684,-698.1412 44,-669 10.2947,-648.5664 0,-631.4155 0,-592 0,-592 0,-592 0,-122 0,-52.5721 532.2814,-19.6055 678.9652,-11.8388"/>
<polygon fill="#191970" stroke="#191970" points="679.4347,-15.3191 689.2387,-11.3029 679.0699,-8.3286 679.4347,-15.3191"/>
</g>
<!-- Node38&#45;&gt;Node34 -->
<g id="edge88" class="edge">
<title>Node38&#45;&gt;Node34</title>
<path fill="none" stroke="#191970" d="M1167.2067,-708.559C1095.503,-701.4299 993.829,-688.3303 959,-669 914.1081,-644.0847 926.4788,-609.3064 883,-582 856.4588,-565.331 823.85,-554.6103 794.5128,-547.7574"/>
<polygon fill="#191970" stroke="#191970" points="795.2236,-544.33 784.7026,-545.5786 793.7059,-551.1635 795.2236,-544.33"/>
</g>
<!-- Node38&#45;&gt;Node36 -->
<g id="edge64" class="edge">
<title>Node38&#45;&gt;Node36</title>
<path fill="none" stroke="#191970" d="M1229.3439,-705.3762C1187.7391,-676.0563 1062.2891,-587.6486 1011.1056,-551.5784"/>
<polygon fill="#191970" stroke="#191970" points="1012.914,-548.571 1002.7237,-545.6714 1008.8816,-554.2929 1012.914,-548.571"/>
</g>
<!-- Node39 -->
<g id="node33" class="node">
<title>Node39</title>
<g id="a_node33"><a xlink:href="VectorDynSize_8h.html" target="_top" xlink:title="iDynTree/Core/VectorDynSize.h">
<polygon fill="none" stroke="#000000" points="1480.5,-409 1480.5,-428 1647.5,-428 1647.5,-409 1480.5,-409"/>
<text text-anchor="middle" x="1564" y="-416" font-family="FreeSans.ttf" font-size="10.00" fill="#000000">iDynTree/Core/VectorDynSize.h</text>
</a>
</g>
</g>
<!-- Node38&#45;&gt;Node39 -->
<g id="edge66" class="edge">
<title>Node38&#45;&gt;Node39</title>
<path fill="none" stroke="#191970" d="M1318.7138,-707.116C1388.1199,-699.0465 1485.2168,-685.3886 1520,-669 1561.0369,-649.6649 1573.9532,-641.0733 1597,-602 1626.8129,-551.4555 1622.0229,-524.3925 1600,-470 1595.0475,-457.7682 1586.7371,-445.597 1579.348,-436.1602"/>
<polygon fill="#191970" stroke="#191970" points="1581.9874,-433.859 1572.9439,-428.3393 1576.5714,-438.2938 1581.9874,-433.859"/>
</g>
<!-- Node38&#45;&gt;Node40 -->
<g id="edge69" class="edge">
<title>Node38&#45;&gt;Node40</title>
<path fill="none" stroke="#191970" d="M1167.464,-708.5925C1028.6772,-696.8195 734.5474,-671.8692 594.8135,-660.0159"/>
<polygon fill="#191970" stroke="#191970" points="594.8779,-656.5089 584.6179,-659.151 594.2862,-663.4838 594.8779,-656.5089"/>
</g>
<!-- Node39&#45;&gt;Node19 -->
<g id="edge68" class="edge">
<title>Node39&#45;&gt;Node19</title>
<path fill="none" stroke="#191970" d="M1512.1416,-408.9338C1408.0687,-389.321 1177.4403,-343.6539 1104,-311 1057.0227,-290.1124 1009,-296.4117 1009,-245 1009,-245 1009,-245 1009,-183.5 1009,-137.8112 964.6825,-100.6611 935.3503,-81.0765"/>
<polygon fill="#191970" stroke="#191970" points="937.0977,-78.039 926.794,-75.5724 933.3107,-83.9261 937.0977,-78.039"/>
</g>
<!-- Node39&#45;&gt;Node10 -->
<g id="edge67" class="edge">
<title>Node39&#45;&gt;Node10</title>
<path fill="none" stroke="#191970" d="M1575.468,-408.8858C1586.3651,-399.2413 1602.5904,-383.4883 1613,-367 1672.706,-272.4281 1682.6608,-241.9771 1703,-132 1704.6165,-123.2593 1707.1678,-119.8512 1703,-112 1695.6154,-98.0889 1681.9364,-87.6166 1668.7728,-80.2062"/>
<polygon fill="#191970" stroke="#191970" points="1670.3134,-77.0625 1659.8255,-75.5605 1667.0876,-83.275 1670.3134,-77.0625"/>
</g>
<!-- Node40&#45;&gt;Node3 -->
<g id="edge79" class="edge">
<title>Node40&#45;&gt;Node3</title>
<path fill="none" stroke="#191970" d="M451.2317,-647.7946C393.9179,-640.0789 324.6834,-622.2945 353,-582 437.4697,-461.7998 521.2457,-504.7046 664,-470 671.4082,-468.199 858.3215,-443.8422 970.6549,-429.2803"/>
<polygon fill="#191970" stroke="#191970" points="971.1479,-432.7457 980.6151,-427.9894 970.2482,-425.8038 971.1479,-432.7457"/>
</g>
<!-- Node40&#45;&gt;Node34 -->
<g id="edge80" class="edge">
<title>Node40&#45;&gt;Node34</title>
<path fill="none" stroke="#191970" d="M517.6816,-643.6634C517.7462,-628.2984 520.2207,-598.6424 537,-582 552.0795,-567.0435 599.4326,-555.2543 641.6469,-547.3564"/>
<polygon fill="#191970" stroke="#191970" points="642.4686,-550.7645 651.6813,-545.5323 641.2165,-543.8773 642.4686,-550.7645"/>
</g>
<!-- Node40&#45;&gt;Node36 -->
<g id="edge87" class="edge">
<title>Node40&#45;&gt;Node36</title>
<path fill="none" stroke="#191970" d="M562.2232,-643.9923C600.2543,-635.1583 656.2114,-620.5791 703,-602 720.738,-594.9565 722.969,-588.2555 741,-582 815.0394,-556.3134 906.7609,-544.06 955.258,-539.0114"/>
<polygon fill="#191970" stroke="#191970" points="955.8918,-542.4655 965.4934,-537.9868 955.1945,-535.5003 955.8918,-542.4655"/>
</g>
<!-- Node41 -->
<g id="node35" class="node">
<title>Node41</title>
<g id="a_node35"><a xlink:href="IJoint_8h.html" target="_top" xlink:title="iDynTree/Model/IJoint.h">
<polygon fill="none" stroke="#000000" points="362,-582.5 362,-601.5 490,-601.5 490,-582.5 362,-582.5"/>
<text text-anchor="middle" x="426" y="-589.5" font-family="FreeSans.ttf" font-size="10.00" fill="#000000">iDynTree/Model/IJoint.h</text>
</a>
</g>
</g>
<!-- Node40&#45;&gt;Node41 -->
<g id="edge70" class="edge">
<title>Node40&#45;&gt;Node41</title>
<path fill="none" stroke="#191970" d="M503.625,-643.8906C488.9069,-634.0519 465.8168,-618.6167 448.6411,-607.1351"/>
<polygon fill="#191970" stroke="#191970" points="450.5327,-604.1896 440.2741,-601.5419 446.6425,-610.0091 450.5327,-604.1896"/>
</g>
<!-- Node42 -->
<g id="node36" class="node">
<title>Node42</title>
<g id="a_node36"><a xlink:href="Link_8h.html" target="_top" xlink:title="iDynTree/Model/Link.h">
<polygon fill="none" stroke="#000000" points="750,-582.5 750,-601.5 874,-601.5 874,-582.5 750,-582.5"/>
<text text-anchor="middle" x="812" y="-589.5" font-family="FreeSans.ttf" font-size="10.00" fill="#000000">iDynTree/Model/Link.h</text>
</a>
</g>
</g>
<!-- Node40&#45;&gt;Node42 -->
<g id="edge72" class="edge">
<title>Node40&#45;&gt;Node42</title>
<path fill="none" stroke="#191970" d="M563.6149,-643.9581C615.5432,-633.0956 700.3815,-615.3488 756.2064,-603.6711"/>
<polygon fill="#191970" stroke="#191970" points="757.2066,-607.0377 766.2781,-601.5643 755.7733,-600.186 757.2066,-607.0377"/>
</g>
<!-- Node47 -->
<g id="node38" class="node">
<title>Node47</title>
<g id="a_node38"><a xlink:href="SolidShapes_8h.html" target="_top" xlink:title="iDynTree/Model/SolidShapes.h">
<polygon fill="none" stroke="#000000" points="104.5,-582.5 104.5,-601.5 267.5,-601.5 267.5,-582.5 104.5,-582.5"/>
<text text-anchor="middle" x="186" y="-589.5" font-family="FreeSans.ttf" font-size="10.00" fill="#000000">iDynTree/Model/SolidShapes.h</text>
</a>
</g>
</g>
<!-- Node40&#45;&gt;Node47 -->
<g id="edge81" class="edge">
<title>Node40&#45;&gt;Node47</title>
<path fill="none" stroke="#191970" d="M466.4893,-643.9581C407.398,-633.012 310.5687,-615.0752 247.5555,-603.4026"/>
<polygon fill="#191970" stroke="#191970" points="247.8287,-599.8937 237.3584,-601.5137 246.5536,-606.7766 247.8287,-599.8937"/>
</g>
<!-- Node48 -->
<g id="node39" class="node">
<title>Node48</title>
<polygon fill="none" stroke="#bfbfbf" points="104.5,-526.5 104.5,-545.5 153.5,-545.5 153.5,-526.5 104.5,-526.5"/>
<text text-anchor="middle" x="129" y="-533.5" font-family="FreeSans.ttf" font-size="10.00" fill="#000000">cstdlib</text>
</g>
<!-- Node40&#45;&gt;Node48 -->
<g id="edge86" class="edge">
<title>Node40&#45;&gt;Node48</title>
<path fill="none" stroke="#191970" d="M451.4553,-650.1663C338.2721,-643.8093 118.2062,-628.2029 95,-602 82.0933,-587.4267 96.2497,-567.0769 110.0288,-552.8389"/>
<polygon fill="#191970" stroke="#191970" points="112.7213,-555.1038 117.4708,-545.6332 107.852,-550.0749 112.7213,-555.1038"/>
</g>
<!-- Node41&#45;&gt;Node34 -->
<g id="edge71" class="edge">
<title>Node41&#45;&gt;Node34</title>
<path fill="none" stroke="#191970" d="M475.5233,-582.4369C525.6759,-572.7522 603.261,-557.7703 656.6697,-547.4569"/>
<polygon fill="#191970" stroke="#191970" points="657.526,-550.8563 666.681,-545.5237 656.1987,-543.9832 657.526,-550.8563"/>
</g>
<!-- Node42&#45;&gt;Node34 -->
<g id="edge78" class="edge">
<title>Node42&#45;&gt;Node34</title>
<path fill="none" stroke="#191970" d="M795.2781,-582.2455C780.4111,-573.5731 758.4534,-560.7645 741.4142,-550.825"/>
<polygon fill="#191970" stroke="#191970" points="742.9317,-547.6582 732.5303,-545.6427 739.4045,-553.7047 742.9317,-547.6582"/>
</g>
<!-- Node43 -->
<g id="node37" class="node">
<title>Node43</title>
<g id="a_node37"><a xlink:href="SpatialInertia_8h.html" target="_top" xlink:title="iDynTree/Core/SpatialInertia.h">
<polygon fill="none" stroke="#ff0000" points="1221,-526.5 1221,-545.5 1383,-545.5 1383,-526.5 1221,-526.5"/>
<text text-anchor="middle" x="1302" y="-533.5" font-family="FreeSans.ttf" font-size="10.00" fill="#000000">iDynTree/Core/SpatialInertia.h</text>
</a>
</g>
</g>
<!-- Node42&#45;&gt;Node43 -->
<g id="edge73" class="edge">
<title>Node42&#45;&gt;Node43</title>
<path fill="none" stroke="#191970" d="M874.0588,-584.9076C959.1216,-575.1861 1112.5403,-557.6525 1210.7135,-546.4327"/>
<polygon fill="#191970" stroke="#191970" points="1211.3854,-549.8788 1220.9233,-545.2659 1210.5905,-542.9241 1211.3854,-549.8788"/>
</g>
<!-- Node43&#45;&gt;Node6 -->
<g id="edge74" class="edge">
<title>Node43&#45;&gt;Node6</title>
<path fill="none" stroke="#191970" d="M1263.023,-526.3933C1244.1381,-519.5635 1223.1742,-508.2604 1212,-490 1207.3603,-482.4181 1210.1255,-478.689 1212,-470 1236.5206,-356.335 1239.4995,-311.581 1327,-235 1391.7329,-178.3453 1488.2804,-148.2428 1550.9488,-133.7123"/>
<polygon fill="#191970" stroke="#191970" points="1551.7206,-137.1263 1560.7058,-131.5123 1550.1808,-130.2977 1551.7206,-137.1263"/>
</g>
<!-- Node43&#45;&gt;Node27 -->
<g id="edge75" class="edge">
<title>Node43&#45;&gt;Node27</title>
<path fill="none" stroke="#191970" d="M1331.224,-526.3733C1359.4925,-517.0613 1402.4965,-502.8953 1433.5344,-492.671"/>
<polygon fill="#191970" stroke="#191970" points="1434.7544,-495.9542 1443.1573,-489.5011 1432.5643,-489.3056 1434.7544,-495.9542"/>
</g>
<!-- Node43&#45;&gt;Node30 -->
<g id="edge76" class="edge">
<title>Node43&#45;&gt;Node30</title>
<path fill="none" stroke="#191970" d="M1383.0494,-529.8797C1485.6105,-521.9415 1667.9698,-507.1832 1834.3722,-490.1396"/>
<polygon fill="#191970" stroke="#191970" points="1835.2132,-493.5716 1844.8023,-489.0661 1834.4965,-486.6084 1835.2132,-493.5716"/>
</g>
<!-- Node43&#45;&gt;Node31 -->
<g id="edge77" class="edge">
<title>Node43&#45;&gt;Node31</title>
<path fill="none" stroke="#191970" d="M1299.5614,-526.2455C1297.7145,-518.8579 1295.1172,-508.4689 1292.8522,-499.4087"/>
<polygon fill="#191970" stroke="#191970" points="1296.2316,-498.4952 1290.4107,-489.6427 1289.4406,-500.193 1296.2316,-498.4952"/>
</g>
<!-- Node47&#45;&gt;Node3 -->
<g id="edge85" class="edge">
<title>Node47&#45;&gt;Node3</title>
<path fill="none" stroke="#191970" d="M192.7584,-582.3836C210.389,-558.2056 260.5592,-495.0304 320,-470 445.9659,-416.956 797.9184,-446.7622 934,-434 947.8004,-432.7057 962.4589,-431.0489 976.6164,-429.3024"/>
<polygon fill="#191970" stroke="#191970" points="977.3325,-432.74 986.8173,-428.0188 976.4585,-425.7948 977.3325,-432.74"/>
</g>
<!-- Node47&#45;&gt;Node19 -->
<g id="edge83" class="edge">
<title>Node47&#45;&gt;Node19</title>
<path fill="none" stroke="#191970" d="M188.4357,-582.4856C193.1363,-563.2608 203,-518.351 203,-480 203,-480 203,-480 203,-183.5 203,-99.0693 296.9126,-131.7533 379,-112 474.699,-88.9712 778.0667,-72.449 877.8447,-67.5234"/>
<polygon fill="#191970" stroke="#191970" points="878.1034,-71.0151 887.9208,-67.0315 877.7619,-64.0234 878.1034,-71.0151"/>
</g>
<!-- Node47&#45;&gt;Node36 -->
<g id="edge84" class="edge">
<title>Node47&#45;&gt;Node36</title>
<path fill="none" stroke="#191970" d="M267.7878,-586.2962C440.6447,-574.2415 836.9221,-546.6057 955.1202,-538.3627"/>
<polygon fill="#191970" stroke="#191970" points="955.6295,-541.8358 965.3618,-537.6485 955.1425,-534.8528 955.6295,-541.8358"/>
</g>
<!-- Node47&#45;&gt;Node48 -->
<g id="edge82" class="edge">
<title>Node47&#45;&gt;Node48</title>
<path fill="none" stroke="#191970" d="M176.0714,-582.2455C167.8162,-574.1352 155.8791,-562.4075 146.0918,-552.7919"/>
<polygon fill="#191970" stroke="#191970" points="148.4011,-550.1542 138.8149,-545.6427 143.4954,-555.1476 148.4011,-550.1542"/>
</g>
<!-- Node49&#45;&gt;Node23 -->
<g id="edge90" class="edge">
<title>Node49&#45;&gt;Node23</title>
<path fill="none" stroke="#191970" d="M1616.7228,-770.2736C1670.7546,-763.8319 1743.47,-750.8724 1803,-725 1863.4161,-698.7426 1863.1608,-665.5469 1923,-638 1985.2777,-609.3306 2021.8555,-647.6583 2073,-602 2096.2841,-581.2136 2097,-567.2125 2097,-536 2097,-536 2097,-536 2097,-301 2097,-269.7875 2096.112,-255.9776 2073,-235 2054.1229,-217.8662 1994.5057,-203.8766 1945.2338,-194.8249"/>
<polygon fill="#191970" stroke="#191970" points="1945.6756,-191.3483 1935.2143,-193.025 1944.4379,-198.238 1945.6756,-191.3483"/>
</g>
<!-- Node49&#45;&gt;Node36 -->
<g id="edge92" class="edge">
<title>Node49&#45;&gt;Node36</title>
<path fill="none" stroke="#191970" d="M1504.595,-761.4556C1404.7694,-717.8046 1116.0782,-591.5678 1020.2967,-549.6852"/>
<polygon fill="#191970" stroke="#191970" points="1021.4341,-546.3626 1010.8695,-545.5629 1018.6295,-552.7762 1021.4341,-546.3626"/>
</g>
<!-- Node49&#45;&gt;Node38 -->
<g id="edge91" class="edge">
<title>Node49&#45;&gt;Node38</title>
<path fill="none" stroke="#191970" d="M1466.5903,-761.4554C1414.8191,-750.6989 1346.1794,-736.4376 1298.6725,-726.5671"/>
<polygon fill="#191970" stroke="#191970" points="1299.3724,-723.1378 1288.8695,-724.5303 1297.9484,-729.9915 1299.3724,-723.1378"/>
</g>
<!-- Node50&#45;&gt;Node23 -->
<g id="edge94" class="edge">
<title>Node50&#45;&gt;Node23</title>
<path fill="none" stroke="#191970" d="M1967.8742,-761.4397C2050.9995,-732.4396 2211,-660.4552 2211,-536 2211,-536 2211,-536 2211,-301 2211,-255.5883 2173.9125,-254.7076 2133,-235 2080.434,-209.6789 2016.1561,-196.8068 1964.6637,-190.2636"/>
<polygon fill="#191970" stroke="#191970" points="1964.8914,-186.7656 1954.543,-189.0375 1964.0495,-193.7148 1964.8914,-186.7656"/>
</g>
<!-- Node50&#45;&gt;Node38 -->
<g id="edge95" class="edge">
<title>Node50&#45;&gt;Node38</title>
<path fill="none" stroke="#191970" d="M1835.4311,-768.8972C1706.283,-757.1478 1459.5037,-734.6967 1328.9352,-722.8181"/>
<polygon fill="#191970" stroke="#191970" points="1328.8637,-719.2972 1318.5876,-721.8767 1328.2294,-726.2684 1328.8637,-719.2972"/>
</g>
<!-- Node51&#45;&gt;Node2 -->
<g id="edge98" class="edge">
<title>Node51&#45;&gt;Node2</title>
<path fill="none" stroke="#191970" d="M1142.9419,-761.4097C1144.4245,-746.3213 1148.2327,-722.8555 1158,-705 1180.5091,-663.8513 1222.4339,-627.5742 1248.1143,-607.8101"/>
<polygon fill="#191970" stroke="#191970" points="1250.2677,-610.57 1256.149,-601.7574 1246.0558,-604.9789 1250.2677,-610.57"/>
</g>
<!-- Node51&#45;&gt;Node36 -->
<g id="edge99" class="edge">
<title>Node51&#45;&gt;Node36</title>
<path fill="none" stroke="#191970" d="M1088.8451,-761.4522C1045.3403,-746.0131 986.6379,-717.2891 959,-669 937.8467,-632.0408 961.2408,-581.3437 977.0172,-554.4706"/>
<polygon fill="#191970" stroke="#191970" points="980.1413,-556.0713 982.3882,-545.7175 974.175,-552.4103 980.1413,-556.0713"/>
</g>
<!-- Node51&#45;&gt;Node38 -->
<g id="edge97" class="edge">
<title>Node51&#45;&gt;Node38</title>
<path fill="none" stroke="#191970" d="M1166.7074,-761.4554C1182.5247,-751.8241 1202.9567,-739.3828 1218.6949,-729.7996"/>
<polygon fill="#191970" stroke="#191970" points="1220.6277,-732.7206 1227.3486,-724.5303 1216.9871,-726.7418 1220.6277,-732.7206"/>
</g>
<!-- Node52&#45;&gt;Node34 -->
<g id="edge103" class="edge">
<title>Node52&#45;&gt;Node34</title>
<path fill="none" stroke="#191970" d="M636.7219,-582.2455C651.5889,-573.5731 673.5466,-560.7645 690.5858,-550.825"/>
<polygon fill="#191970" stroke="#191970" points="692.5955,-553.7047 699.4697,-545.6427 689.0683,-547.6582 692.5955,-553.7047"/>
</g>
<!-- Node52&#45;&gt;Node36 -->
<g id="edge104" class="edge">
<title>Node52&#45;&gt;Node36</title>
<path fill="none" stroke="#191970" d="M683.0141,-582.4369C761.8208,-570.4771 893.8601,-550.4386 955.4579,-541.0904"/>
<polygon fill="#191970" stroke="#191970" points="956.0556,-544.5399 965.4172,-539.579 955.0052,-537.6191 956.0556,-544.5399"/>
</g>
<!-- Node53&#45;&gt;Node34 -->
<g id="edge106" class="edge">
<title>Node53&#45;&gt;Node34</title>
<path fill="none" stroke="#191970" d="M343.795,-705.415C336.3541,-681.1653 320.8785,-616.8336 353,-582 371.8915,-561.5134 535.4344,-547.4993 636.452,-540.7099"/>
<polygon fill="#191970" stroke="#191970" points="636.8833,-544.1891 646.6302,-540.036 636.4208,-537.2044 636.8833,-544.1891"/>
</g>
<!-- Node54&#45;&gt;Node2 -->
<g id="edge112" class="edge">
<title>Node54&#45;&gt;Node2</title>
<path fill="none" stroke="#191970" d="M1393.8811,-638.4554C1366.6373,-628.239 1330.9623,-614.8609 1304.8962,-605.0861"/>
<polygon fill="#191970" stroke="#191970" points="1306.0064,-601.7645 1295.4142,-601.5303 1303.5485,-608.3188 1306.0064,-601.7645"/>
</g>
<!-- Node54&#45;&gt;Node3 -->
<g id="edge108" class="edge">
<title>Node54&#45;&gt;Node3</title>
<path fill="none" stroke="#191970" d="M1421.6857,-638.4796C1407.1226,-621.8163 1381.2648,-595.5037 1353,-582 1266.7652,-540.8007 1221.4557,-597.582 1141,-546 1119.6356,-532.3028 1082.2606,-469.0797 1064.2615,-437.1139"/>
<polygon fill="#191970" stroke="#191970" points="1067.2653,-435.3142 1059.3368,-428.2864 1061.1523,-438.7246 1067.2653,-435.3142"/>
</g>
<!-- Node54&#45;&gt;Node27 -->
<g id="edge109" class="edge">
<title>Node54&#45;&gt;Node27</title>
<path fill="none" stroke="#191970" d="M1511.1843,-638.5085C1530.6409,-630.8775 1549.303,-619.3653 1561,-602 1587.4873,-562.6769 1532.1412,-518.0308 1497.3595,-495.2047"/>
<polygon fill="#191970" stroke="#191970" points="1498.9158,-492.0464 1488.6008,-489.6275 1495.156,-497.951 1498.9158,-492.0464"/>
</g>
<!-- Node54&#45;&gt;Node34 -->
<g id="edge111" class="edge">
<title>Node54&#45;&gt;Node34</title>
<path fill="none" stroke="#191970" d="M1356.8206,-640.8697C1215.7989,-617.7916 918.6725,-569.1672 784.4179,-547.1965"/>
<polygon fill="#191970" stroke="#191970" points="784.6963,-543.6956 774.2623,-545.5346 783.5657,-550.6037 784.6963,-543.6956"/>
</g>
<!-- Node54&#45;&gt;Node36 -->
<g id="edge118" class="edge">
<title>Node54&#45;&gt;Node36</title>
<path fill="none" stroke="#191970" d="M1356.7639,-642.363C1307.1792,-634.0216 1241.8484,-620.7922 1186,-602 1166.4046,-595.4064 1163.3023,-589.4081 1144,-582 1121.7479,-573.4598 1060.8084,-556.0072 1022.3024,-545.225"/>
<polygon fill="#191970" stroke="#191970" points="1023.1334,-541.8233 1012.5606,-542.5054 1021.2512,-548.5655 1023.1334,-541.8233"/>
</g>
<!-- Node54&#45;&gt;Node39 -->
<g id="edge110" class="edge">
<title>Node54&#45;&gt;Node39</title>
<path fill="none" stroke="#191970" d="M1497.4824,-638.4981C1531.3672,-629.0687 1568.0999,-616.0549 1578,-602 1613.3342,-551.8371 1587.7767,-473.6704 1572.8011,-437.7443"/>
<polygon fill="#191970" stroke="#191970" points="1575.9396,-436.1845 1568.7444,-428.4076 1569.5194,-438.9741 1575.9396,-436.1845"/>
</g>
<!-- Node55 -->
<g id="node46" class="node">
<title>Node55</title>
<g id="a_node46"><a xlink:href="JointState_8h.html" target="_top" xlink:title="iDynTree/Model/JointState.h">
<polygon fill="none" stroke="#000000" points="1400.5,-582.5 1400.5,-601.5 1551.5,-601.5 1551.5,-582.5 1400.5,-582.5"/>
<text text-anchor="middle" x="1476" y="-589.5" font-family="FreeSans.ttf" font-size="10.00" fill="#000000">iDynTree/Model/JointState.h</text>
</a>
</g>
</g>
<!-- Node54&#45;&gt;Node55 -->
<g id="edge113" class="edge">
<title>Node54&#45;&gt;Node55</title>
<path fill="none" stroke="#191970" d="M1444.382,-638.2977C1450.1513,-629.8498 1457.3716,-619.2773 1463.4553,-610.369"/>
<polygon fill="#191970" stroke="#191970" points="1466.5259,-612.0788 1469.2753,-601.8469 1460.7453,-608.1311 1466.5259,-612.0788"/>
</g>
<!-- Node55&#45;&gt;Node6 -->
<g id="edge114" class="edge">
<title>Node55&#45;&gt;Node6</title>
<path fill="none" stroke="#191970" d="M1400.3832,-582.4631C1327.7419,-572.7215 1226.8592,-557.4435 1212,-546 1189.2326,-528.4662 1110.1419,-339.0725 1104,-311 1102.1002,-302.3165 1099.1856,-298.4722 1104,-291 1175.6399,-179.8108 1248.9745,-208.1607 1375,-168 1425.5245,-151.8993 1483.9713,-140.5041 1530.3014,-133.0828"/>
<polygon fill="#191970" stroke="#191970" points="1530.9604,-136.5223 1540.2962,-131.5131 1529.8743,-129.6071 1530.9604,-136.5223"/>
</g>
<!-- Node55&#45;&gt;Node32 -->
<g id="edge116" class="edge">
<title>Node55&#45;&gt;Node32</title>
<path fill="none" stroke="#191970" d="M1466.8377,-582.488C1450.9715,-565.4416 1418.5008,-527.9138 1402,-490 1395.6044,-475.3049 1392.1102,-457.6413 1390.212,-443.5475"/>
<polygon fill="#191970" stroke="#191970" points="1393.6838,-443.1016 1389.0499,-433.5739 1386.7309,-443.9118 1393.6838,-443.1016"/>
</g>
<!-- Node55&#45;&gt;Node36 -->
<g id="edge117" class="edge">
<title>Node55&#45;&gt;Node36</title>
<path fill="none" stroke="#191970" d="M1400.4406,-583.3114C1293.0162,-570.9587 1100.5667,-548.829 1022.8902,-539.897"/>
<polygon fill="#191970" stroke="#191970" points="1023.0466,-536.392 1012.7122,-538.7267 1022.2469,-543.3462 1023.0466,-536.392"/>
</g>
<!-- Node55&#45;&gt;Node39 -->
<g id="edge115" class="edge">
<title>Node55&#45;&gt;Node39</title>
<path fill="none" stroke="#191970" d="M1483.5209,-582.3989C1496.9102,-564.913 1525.061,-526.3192 1542,-490 1549.8741,-473.117 1555.8311,-452.7065 1559.5473,-438.0217"/>
<polygon fill="#191970" stroke="#191970" points="1563.0073,-438.6031 1561.947,-428.0615 1556.2021,-436.9635 1563.0073,-438.6031"/>
</g>
<!-- Node56&#45;&gt;Node2 -->
<g id="edge123" class="edge">
<title>Node56&#45;&gt;Node2</title>
<path fill="none" stroke="#191970" d="M1079.3125,-643.8906C1118.6191,-633.1944 1182.2326,-615.8836 1225.0594,-604.2294"/>
<polygon fill="#191970" stroke="#191970" points="1226.2054,-607.5449 1234.9355,-601.5419 1224.3673,-600.7905 1226.2054,-607.5449"/>
</g>
<!-- Node56&#45;&gt;Node34 -->
<g id="edge122" class="edge">
<title>Node56&#45;&gt;Node34</title>
<path fill="none" stroke="#191970" d="M1035.0564,-643.8651C1019.9515,-628.2272 987.721,-597.5114 954,-582 903.9389,-558.9722 842.826,-547.4668 795.0628,-541.7211"/>
<polygon fill="#191970" stroke="#191970" points="795.4148,-538.2387 785.082,-540.5804 794.6199,-545.1934 795.4148,-538.2387"/>
</g>
<!-- Node56&#45;&gt;Node55 -->
<g id="edge124" class="edge">
<title>Node56&#45;&gt;Node55</title>
<path fill="none" stroke="#191970" d="M1111.026,-643.9581C1188.9464,-632.8653 1317.2966,-614.5932 1399.1764,-602.9367"/>
<polygon fill="#191970" stroke="#191970" points="1399.7653,-606.3882 1409.1722,-601.5137 1398.7787,-599.4581 1399.7653,-606.3882"/>
</g>
<!-- Node57 -->
<g id="node48" class="node">
<title>Node57</title>
<g id="a_node48"><a xlink:href="MatrixDynSize_8h.html" target="_top" xlink:title="iDynTree/Core/MatrixDynSize.h">
<polygon fill="none" stroke="#000000" points="758.5,-409 758.5,-428 925.5,-428 925.5,-409 758.5,-409"/>
<text text-anchor="middle" x="842" y="-416" font-family="FreeSans.ttf" font-size="10.00" fill="#000000">iDynTree/Core/MatrixDynSize.h</text>
</a>
</g>
</g>
<!-- Node56&#45;&gt;Node57 -->
<g id="edge120" class="edge">
<title>Node56&#45;&gt;Node57</title>
<path fill="none" stroke="#191970" d="M1036.0716,-643.712C1024.8267,-629.8709 1003.5479,-603.8315 985,-582 939.4434,-528.3785 884.3315,-466.068 857.7926,-436.2181"/>
<polygon fill="#191970" stroke="#191970" points="860.068,-433.5102 850.8053,-428.3669 854.8389,-438.1639 860.068,-433.5102"/>
</g>
<!-- Node57&#45;&gt;Node19 -->
<g id="edge121" class="edge">
<title>Node57&#45;&gt;Node19</title>
<path fill="none" stroke="#191970" d="M831.5204,-408.9496C812.2178,-390.2559 773,-346.6571 773,-301 773,-301 773,-301 773,-183.5 773,-149.9798 774.0528,-136.4342 797,-112 818.4105,-89.2021 852.7152,-77.3998 877.917,-71.4934"/>
<polygon fill="#191970" stroke="#191970" points="878.7186,-74.9011 887.7578,-69.3745 877.2451,-68.058 878.7186,-74.9011"/>
</g>
<!-- Node58&#45;&gt;Node3 -->
<g id="edge134" class="edge">
<title>Node58&#45;&gt;Node3</title>
<path fill="none" stroke="#191970" d="M1665.2645,-472.8248C1532.9634,-461.0668 1271.3456,-437.8161 1137.3578,-425.9082"/>
<polygon fill="#191970" stroke="#191970" points="1137.4208,-422.4001 1127.1502,-425.0011 1136.8011,-429.3727 1137.4208,-422.4001"/>
</g>
<!-- Node58&#45;&gt;Node6 -->
<g id="edge129" class="edge">
<title>Node58&#45;&gt;Node6</title>
<path fill="none" stroke="#191970" d="M1749.3716,-470.2521C1756.1955,-449.625 1771,-399.9279 1771,-357 1771,-357 1771,-357 1771,-301 1771,-222.8598 1685.3242,-162.7379 1640.152,-136.4694"/>
<polygon fill="#191970" stroke="#191970" points="1641.8594,-133.414 1631.4338,-131.5274 1638.4074,-139.5037 1641.8594,-133.414"/>
</g>
<!-- Node58&#45;&gt;Node7 -->
<g id="edge135" class="edge">
<title>Node58&#45;&gt;Node7</title>
<path fill="none" stroke="#191970" d="M1807.1985,-470.49C1867.6475,-460.5602 1952.6841,-444.938 1964,-434 1989.3442,-409.5022 1983,-392.2487 1983,-357 1983,-357 1983,-357 1983,-183.5 1983,-117.8068 1903.7683,-88.4847 1842.6398,-75.638"/>
<polygon fill="#191970" stroke="#191970" points="1843.1068,-72.1623 1832.6159,-73.6422 1841.7399,-79.0276 1843.1068,-72.1623"/>
</g>
<!-- Node58&#45;&gt;Node25 -->
<g id="edge131" class="edge">
<title>Node58&#45;&gt;Node25</title>
<path fill="none" stroke="#191970" d="M1665.2983,-474.3626C1541.3066,-465.3089 1316.9004,-447.2063 1305,-434 1285.5013,-412.3617 1300.8851,-206.8422 1306.3005,-141.7025"/>
<polygon fill="#191970" stroke="#191970" points="1309.8032,-141.817 1307.1584,-131.5576 1302.8281,-141.2271 1309.8032,-141.817"/>
</g>
<!-- Node58&#45;&gt;Node28 -->
<g id="edge132" class="edge">
<title>Node58&#45;&gt;Node28</title>
<path fill="none" stroke="#191970" d="M1766.4688,-470.3906C1784.9367,-461.7205 1812.6618,-448.7046 1835.7236,-437.8779"/>
<polygon fill="#191970" stroke="#191970" points="1837.3891,-440.9625 1844.9538,-433.5446 1834.4143,-434.6261 1837.3891,-440.9625"/>
</g>
<!-- Node58&#45;&gt;Node32 -->
<g id="edge133" class="edge">
<title>Node58&#45;&gt;Node32</title>
<path fill="none" stroke="#191970" d="M1687.6917,-470.491C1634.3579,-461.7295 1553.0034,-448.2059 1472.0593,-433.9936"/>
<polygon fill="#191970" stroke="#191970" points="1472.6473,-430.5434 1462.192,-432.2573 1471.4341,-437.4375 1472.6473,-430.5434"/>
</g>
<!-- Node58&#45;&gt;Node39 -->
<g id="edge128" class="edge">
<title>Node58&#45;&gt;Node39</title>
<path fill="none" stroke="#191970" d="M1717.5625,-470.3906C1686.4428,-459.8749 1636.4036,-442.966 1601.9515,-431.3243"/>
<polygon fill="#191970" stroke="#191970" points="1602.832,-427.9274 1592.2378,-428.0419 1600.5911,-434.5591 1602.832,-427.9274"/>
</g>
<!-- Node58&#45;&gt;Node57 -->
<g id="edge130" class="edge">
<title>Node58&#45;&gt;Node57</title>
<path fill="none" stroke="#191970" d="M1665.2536,-475.8107C1495.1582,-466.8857 1104.7383,-445.8472 972,-434 956.9572,-432.6574 940.9655,-430.9676 925.5308,-429.2012"/>
<polygon fill="#191970" stroke="#191970" points="925.8215,-425.7115 915.484,-428.0322 925.0124,-432.6646 925.8215,-425.7115"/>
</g>
<!-- Node59 -->
<g id="node50" class="node">
<title>Node59</title>
<polygon fill="none" stroke="#bfbfbf" points="1665.5,-409 1665.5,-428 1742.5,-428 1742.5,-409 1665.5,-409"/>
<text text-anchor="middle" x="1704" y="-416" font-family="FreeSans.ttf" font-size="10.00" fill="#000000">Eigen/Dense</text>
</g>
<!-- Node58&#45;&gt;Node59 -->
<g id="edge127" class="edge">
<title>Node58&#45;&gt;Node59</title>
<path fill="none" stroke="#191970" d="M1739.4375,-470.3906C1733.3092,-461.417 1724.0015,-447.7879 1716.4628,-436.7491"/>
<polygon fill="#191970" stroke="#191970" points="1719.185,-434.529 1710.655,-428.2449 1713.4044,-438.4768 1719.185,-434.529"/>
</g>
</g>
</svg>
