<?xml version="1.0" encoding="UTF-8" standalone="no"?>
<!DOCTYPE svg PUBLIC "-//W3C//DTD SVG 1.1//EN"
 "http://www.w3.org/Graphics/SVG/1.1/DTD/svg11.dtd">
<!-- Generated by graphviz version 2.40.1 (20161225.0304)
 -->
<!-- Title: QuadraticCost.h Pages: 1 -->
<svg width="1262pt" height="532pt"
 viewBox="0.00 0.00 1261.50 532.00" xmlns="http://www.w3.org/2000/svg" xmlns:xlink="http://www.w3.org/1999/xlink">
<g id="graph0" class="graph" transform="scale(1 1) rotate(0) translate(4 528)">
<title>QuadraticCost.h</title>
<!-- Node0 -->
<g id="node1" class="node">
<title>Node0</title>
<polygon fill="#bfbfbf" stroke="#000000" points="384.5,-504.5 384.5,-523.5 479.5,-523.5 479.5,-504.5 384.5,-504.5"/>
<text text-anchor="middle" x="432" y="-511.5" font-family="FreeSans.ttf" font-size="10.00" fill="#000000">QuadraticCost.h</text>
</g>
<!-- Node1 -->
<g id="node2" class="node">
<title>Node1</title>
<g id="a_node2"><a xlink:href="QuadraticLikeCost_8h.html" target="_top" xlink:title="iDynTree/QuadraticLikeCost.h">
<polygon fill="none" stroke="#000000" points="351.5,-448.5 351.5,-467.5 512.5,-467.5 512.5,-448.5 351.5,-448.5"/>
<text text-anchor="middle" x="432" y="-455.5" font-family="FreeSans.ttf" font-size="10.00" fill="#000000">iDynTree/QuadraticLikeCost.h</text>
</a>
</g>
</g>
<!-- Node0&#45;&gt;Node1 -->
<g id="edge1" class="edge">
<title>Node0&#45;&gt;Node1</title>
<path fill="none" stroke="#191970" d="M432,-504.2455C432,-496.9382 432,-486.6944 432,-477.7046"/>
<polygon fill="#191970" stroke="#191970" points="435.5001,-477.6426 432,-467.6427 428.5001,-477.6427 435.5001,-477.6426"/>
</g>
<!-- Node10 -->
<g id="node11" class="node">
<title>Node10</title>
<g id="a_node11"><a xlink:href="TimeVaryingObject_8h.html" target="_top" xlink:title="iDynTree/TimeVaryingObject.h">
<polygon fill="none" stroke="#000000" points="397,-392.5 397,-411.5 561,-411.5 561,-392.5 397,-392.5"/>
<text text-anchor="middle" x="479" y="-399.5" font-family="FreeSans.ttf" font-size="10.00" fill="#000000">iDynTree/TimeVaryingObject.h</text>
</a>
</g>
</g>
<!-- Node0&#45;&gt;Node10 -->
<g id="edge57" class="edge">
<title>Node0&#45;&gt;Node10</title>
<path fill="none" stroke="#191970" d="M470.977,-504.3933C489.8619,-497.5635 510.8258,-486.2604 522,-468 532.6376,-450.6165 516.3191,-431.1065 500.8233,-417.8364"/>
<polygon fill="#191970" stroke="#191970" points="502.9315,-415.0405 492.9422,-411.5101 498.5496,-420.4994 502.9315,-415.0405"/>
</g>
<!-- Node11 -->
<g id="node12" class="node">
<title>Node11</title>
<g id="a_node12"><a xlink:href="VectorDynSize_8h.html" target="_top" xlink:title="iDynTree/Core/VectorDynSize.h">
<polygon fill="none" stroke="#000000" points="720.5,-280.5 720.5,-299.5 887.5,-299.5 887.5,-280.5 720.5,-280.5"/>
<text text-anchor="middle" x="804" y="-287.5" font-family="FreeSans.ttf" font-size="10.00" fill="#000000">iDynTree/Core/VectorDynSize.h</text>
</a>
</g>
</g>
<!-- Node0&#45;&gt;Node11 -->
<g id="edge58" class="edge">
<title>Node0&#45;&gt;Node11</title>
<path fill="none" stroke="#191970" d="M457.1953,-504.4098C478.8403,-495.8327 510.6338,-482.4196 537,-468 633.2579,-415.357 739.423,-338.3715 783.2899,-305.648"/>
<polygon fill="#191970" stroke="#191970" points="785.5414,-308.3346 791.4457,-299.5374 781.3441,-302.7325 785.5414,-308.3346"/>
</g>
<!-- Node21 -->
<g id="node22" class="node">
<title>Node21</title>
<g id="a_node22"><a xlink:href="MatrixDynSize_8h.html" target="_top" xlink:title="iDynTree/Core/MatrixDynSize.h">
<polygon fill="none" stroke="#000000" points="201.5,-336.5 201.5,-355.5 368.5,-355.5 368.5,-336.5 201.5,-336.5"/>
<text text-anchor="middle" x="285" y="-343.5" font-family="FreeSans.ttf" font-size="10.00" fill="#000000">iDynTree/Core/MatrixDynSize.h</text>
</a>
</g>
</g>
<!-- Node0&#45;&gt;Node21 -->
<g id="edge59" class="edge">
<title>Node0&#45;&gt;Node21</title>
<path fill="none" stroke="#191970" d="M396.1294,-504.3891C375.4191,-497.2676 350.1577,-485.6817 333,-468 304.9841,-439.1286 292.7729,-391.968 287.8974,-365.5358"/>
<polygon fill="#191970" stroke="#191970" points="291.3356,-364.8753 286.2323,-355.5905 284.4317,-366.0312 291.3356,-364.8753"/>
</g>
<!-- Node33 -->
<g id="node34" class="node">
<title>Node33</title>
<polygon fill="none" stroke="#bfbfbf" points="318,-392.5 318,-411.5 376,-411.5 376,-392.5 318,-392.5"/>
<text text-anchor="middle" x="347" y="-399.5" font-family="FreeSans.ttf" font-size="10.00" fill="#000000">memory</text>
</g>
<!-- Node0&#45;&gt;Node33 -->
<g id="edge60" class="edge">
<title>Node0&#45;&gt;Node33</title>
<path fill="none" stroke="#191970" d="M393.023,-504.3933C374.1381,-497.5635 353.1742,-486.2604 342,-468 333.4923,-454.097 335.9474,-435.3386 339.8288,-421.3735"/>
<polygon fill="#191970" stroke="#191970" points="343.1816,-422.3801 342.9169,-411.7885 336.5189,-420.2334 343.1816,-422.3801"/>
</g>
<!-- Node2 -->
<g id="node3" class="node">
<title>Node2</title>
<g id="a_node3"><a xlink:href="Cost_8h.html" target="_top" xlink:title="iDynTree/Cost.h">
<polygon fill="none" stroke="#000000" points="107.5,-168.5 107.5,-187.5 200.5,-187.5 200.5,-168.5 107.5,-168.5"/>
<text text-anchor="middle" x="154" y="-175.5" font-family="FreeSans.ttf" font-size="10.00" fill="#000000">iDynTree/Cost.h</text>
</a>
</g>
</g>
<!-- Node1&#45;&gt;Node2 -->
<g id="edge2" class="edge">
<title>Node1&#45;&gt;Node2</title>
<path fill="none" stroke="#191970" d="M387.7706,-448.4454C313.7971,-431.176 173,-392.2338 173,-346 173,-346 173,-346 173,-290 173,-257.2688 165.0148,-219.9052 159.3978,-197.6716"/>
<polygon fill="#191970" stroke="#191970" points="162.7289,-196.5763 156.8035,-187.7934 155.9585,-198.3545 162.7289,-196.5763"/>
</g>
<!-- Node1&#45;&gt;Node10 -->
<g id="edge12" class="edge">
<title>Node1&#45;&gt;Node10</title>
<path fill="none" stroke="#191970" d="M440.1868,-448.2455C446.8589,-440.2958 456.4479,-428.8706 464.4253,-419.3656"/>
<polygon fill="#191970" stroke="#191970" points="467.1592,-421.5525 470.907,-411.6427 461.7974,-417.0524 467.1592,-421.5525"/>
</g>
<!-- Node1&#45;&gt;Node33 -->
<g id="edge56" class="edge">
<title>Node1&#45;&gt;Node33</title>
<path fill="none" stroke="#191970" d="M417.1941,-448.2455C404.2744,-439.7337 385.3069,-427.2375 370.3448,-417.3801"/>
<polygon fill="#191970" stroke="#191970" points="371.9124,-414.2216 361.6362,-411.6427 368.0613,-420.067 371.9124,-414.2216"/>
</g>
<!-- Node3 -->
<g id="node4" class="node">
<title>Node3</title>
<polygon fill="none" stroke="#bfbfbf" points="389,-56.5 389,-75.5 433,-75.5 433,-56.5 389,-56.5"/>
<text text-anchor="middle" x="411" y="-63.5" font-family="FreeSans.ttf" font-size="10.00" fill="#000000">string</text>
</g>
<!-- Node2&#45;&gt;Node3 -->
<g id="edge3" class="edge">
<title>Node2&#45;&gt;Node3</title>
<path fill="none" stroke="#191970" d="M160.194,-168.2279C169.9843,-153.6244 190.4649,-126.2977 215,-112 267.1166,-81.6293 338.0395,-71.3015 378.728,-67.7955"/>
<polygon fill="#191970" stroke="#191970" points="379.1768,-71.2713 388.8767,-67.0096 378.6363,-64.2922 379.1768,-71.2713"/>
</g>
<!-- Node4 -->
<g id="node5" class="node">
<title>Node4</title>
<g id="a_node5"><a xlink:href="SparsityStructure_8h.html" target="_top" xlink:title="iDynTree/SparsityStructure.h">
<polygon fill="none" stroke="#000000" points="7.5,-112.5 7.5,-131.5 162.5,-131.5 162.5,-112.5 7.5,-112.5"/>
<text text-anchor="middle" x="85" y="-119.5" font-family="FreeSans.ttf" font-size="10.00" fill="#000000">iDynTree/SparsityStructure.h</text>
</a>
</g>
</g>
<!-- Node2&#45;&gt;Node4 -->
<g id="edge4" class="edge">
<title>Node2&#45;&gt;Node4</title>
<path fill="none" stroke="#191970" d="M141.9811,-168.2455C131.7902,-159.9746 116.9638,-147.9416 104.9893,-138.2232"/>
<polygon fill="#191970" stroke="#191970" points="106.8514,-135.2268 96.8812,-131.6427 102.4402,-140.662 106.8514,-135.2268"/>
</g>
<!-- Node4&#45;&gt;Node3 -->
<g id="edge11" class="edge">
<title>Node4&#45;&gt;Node3</title>
<path fill="none" stroke="#191970" d="M140.671,-112.4369C209.1793,-100.6686 323.2228,-81.0783 378.7048,-71.5476"/>
<polygon fill="#191970" stroke="#191970" points="379.4114,-74.9776 388.6744,-69.8351 378.2262,-68.0787 379.4114,-74.9776"/>
</g>
<!-- Node5 -->
<g id="node6" class="node">
<title>Node5</title>
<g id="a_node6"><a xlink:href="Utils_8h.html" target="_top" xlink:title="iDynTree/Core/Utils.h">
<polygon fill="none" stroke="#000000" points="496.5,-56.5 496.5,-75.5 615.5,-75.5 615.5,-56.5 496.5,-56.5"/>
<text text-anchor="middle" x="556" y="-63.5" font-family="FreeSans.ttf" font-size="10.00" fill="#000000">iDynTree/Core/Utils.h</text>
</a>
</g>
</g>
<!-- Node4&#45;&gt;Node5 -->
<g id="edge5" class="edge">
<title>Node4&#45;&gt;Node5</title>
<path fill="none" stroke="#191970" d="M162.5122,-112.7841C252.5626,-102.0775 399.8118,-84.5702 486.3594,-74.28"/>
<polygon fill="#191970" stroke="#191970" points="486.83,-77.7488 496.3468,-73.0925 486.0035,-70.7977 486.83,-77.7488"/>
</g>
<!-- Node6 -->
<g id="node7" class="node">
<title>Node6</title>
<polygon fill="none" stroke="#bfbfbf" points="588.5,-.5 588.5,-19.5 641.5,-19.5 641.5,-.5 588.5,-.5"/>
<text text-anchor="middle" x="615" y="-7.5" font-family="FreeSans.ttf" font-size="10.00" fill="#000000">cstddef</text>
</g>
<!-- Node4&#45;&gt;Node6 -->
<g id="edge9" class="edge">
<title>Node4&#45;&gt;Node6</title>
<path fill="none" stroke="#191970" d="M125.4476,-112.3969C182.1832,-99.0533 288.6938,-74.4646 380,-56 464.9995,-38.8107 489.6671,-39.9423 578.3753,-19.9707"/>
<polygon fill="#191970" stroke="#191970" points="579.3608,-23.336 588.3333,-17.7016 577.8056,-16.5109 579.3608,-23.336"/>
</g>
<!-- Node8 -->
<g id="node9" class="node">
<title>Node8</title>
<polygon fill="none" stroke="#bfbfbf" points="104.5,-56.5 104.5,-75.5 151.5,-75.5 151.5,-56.5 104.5,-56.5"/>
<text text-anchor="middle" x="128" y="-63.5" font-family="FreeSans.ttf" font-size="10.00" fill="#000000">vector</text>
</g>
<!-- Node4&#45;&gt;Node8 -->
<g id="edge8" class="edge">
<title>Node4&#45;&gt;Node8</title>
<path fill="none" stroke="#191970" d="M92.49,-112.2455C98.5326,-104.3761 107.1903,-93.101 114.4441,-83.6542"/>
<polygon fill="#191970" stroke="#191970" points="117.2815,-85.7058 120.5958,-75.6427 111.7295,-81.4426 117.2815,-85.7058"/>
</g>
<!-- Node9 -->
<g id="node10" class="node">
<title>Node9</title>
<polygon fill="none" stroke="#bfbfbf" points="0,-56.5 0,-75.5 86,-75.5 86,-56.5 0,-56.5"/>
<text text-anchor="middle" x="43" y="-63.5" font-family="FreeSans.ttf" font-size="10.00" fill="#000000">unordered_set</text>
</g>
<!-- Node4&#45;&gt;Node9 -->
<g id="edge10" class="edge">
<title>Node4&#45;&gt;Node9</title>
<path fill="none" stroke="#191970" d="M77.6842,-112.2455C71.7821,-104.3761 63.3258,-93.101 56.2406,-83.6542"/>
<polygon fill="#191970" stroke="#191970" points="59.0321,-81.5427 50.232,-75.6427 53.432,-85.7427 59.0321,-81.5427"/>
</g>
<!-- Node5&#45;&gt;Node6 -->
<g id="edge6" class="edge">
<title>Node5&#45;&gt;Node6</title>
<path fill="none" stroke="#191970" d="M566.277,-56.2455C574.8218,-48.1352 587.1778,-36.4075 597.3085,-26.7919"/>
<polygon fill="#191970" stroke="#191970" points="599.9972,-29.0655 604.8408,-19.6427 595.1782,-23.9884 599.9972,-29.0655"/>
</g>
<!-- Node7 -->
<g id="node8" class="node">
<title>Node7</title>
<polygon fill="none" stroke="#bfbfbf" points="490,-.5 490,-19.5 570,-19.5 570,-.5 490,-.5"/>
<text text-anchor="middle" x="530" y="-7.5" font-family="FreeSans.ttf" font-size="10.00" fill="#000000">CoreExport.h</text>
</g>
<!-- Node5&#45;&gt;Node7 -->
<g id="edge7" class="edge">
<title>Node5&#45;&gt;Node7</title>
<path fill="none" stroke="#191970" d="M551.4711,-56.2455C547.9666,-48.6973 543.0073,-38.0158 538.7377,-28.8197"/>
<polygon fill="#191970" stroke="#191970" points="541.8627,-27.2389 534.477,-19.6427 535.5136,-30.1867 541.8627,-27.2389"/>
</g>
<!-- Node10&#45;&gt;Node11 -->
<g id="edge13" class="edge">
<title>Node10&#45;&gt;Node11</title>
<path fill="none" stroke="#191970" d="M506.7093,-392.4509C565.1128,-372.3242 700.8812,-325.5363 766.7838,-302.8253"/>
<polygon fill="#191970" stroke="#191970" points="768.0468,-306.0921 776.3608,-299.5249 765.7661,-299.474 768.0468,-306.0921"/>
</g>
<!-- Node10&#45;&gt;Node21 -->
<g id="edge25" class="edge">
<title>Node10&#45;&gt;Node21</title>
<path fill="none" stroke="#191970" d="M445.6502,-392.3733C412.972,-382.9404 363.0382,-368.5265 327.523,-358.2747"/>
<polygon fill="#191970" stroke="#191970" points="328.493,-354.9119 317.9146,-355.5011 326.5516,-361.6373 328.493,-354.9119"/>
</g>
<!-- Node22 -->
<g id="node23" class="node">
<title>Node22</title>
<g id="a_node23"><a xlink:href="Transform_8h.html" target="_top" xlink:title="iDynTree/Core/Transform.h">
<polygon fill="none" stroke="#000000" points="406,-336.5 406,-355.5 552,-355.5 552,-336.5 406,-336.5"/>
<text text-anchor="middle" x="479" y="-343.5" font-family="FreeSans.ttf" font-size="10.00" fill="#000000">iDynTree/Core/Transform.h</text>
</a>
</g>
</g>
<!-- Node10&#45;&gt;Node22 -->
<g id="edge27" class="edge">
<title>Node10&#45;&gt;Node22</title>
<path fill="none" stroke="#191970" d="M479,-392.2455C479,-384.9382 479,-374.6944 479,-365.7046"/>
<polygon fill="#191970" stroke="#191970" points="482.5001,-365.6426 479,-355.6427 475.5001,-365.6427 482.5001,-365.6426"/>
</g>
<!-- Node11&#45;&gt;Node3 -->
<g id="edge24" class="edge">
<title>Node11&#45;&gt;Node3</title>
<path fill="none" stroke="#191970" d="M799.1977,-280.2579C787.4579,-257.4008 755.0859,-199.8605 712,-168 674.3555,-140.1632 656.8509,-148.4042 613,-132 589.8081,-123.3241 584.4064,-120.0793 561,-112 520.5173,-98.0265 473.1808,-83.8659 442.6793,-75.0188"/>
<polygon fill="#191970" stroke="#191970" points="443.5933,-71.6398 433.015,-72.2302 441.6526,-78.3654 443.5933,-71.6398"/>
</g>
<!-- Node12 -->
<g id="node13" class="node">
<title>Node12</title>
<g id="a_node13"><a xlink:href="Span_8h.html" target="_top" xlink:title="iDynTree/Core/Span.h">
<polygon fill="none" stroke="#000000" points="930.5,-56.5 930.5,-75.5 1051.5,-75.5 1051.5,-56.5 930.5,-56.5"/>
<text text-anchor="middle" x="991" y="-63.5" font-family="FreeSans.ttf" font-size="10.00" fill="#000000">iDynTree/Core/Span.h</text>
</a>
</g>
</g>
<!-- Node11&#45;&gt;Node12 -->
<g id="edge14" class="edge">
<title>Node11&#45;&gt;Node12</title>
<path fill="none" stroke="#191970" d="M854.4951,-280.4628C903.3316,-268.2637 974.6922,-241.8932 1008,-188 1027.7628,-156.023 1012.3704,-110.4389 1000.7832,-85.0108"/>
<polygon fill="#191970" stroke="#191970" points="1003.8077,-83.2248 996.3125,-75.7367 997.5022,-86.2645 1003.8077,-83.2248"/>
</g>
<!-- Node12&#45;&gt;Node6 -->
<g id="edge18" class="edge">
<title>Node12&#45;&gt;Node6</title>
<path fill="none" stroke="#191970" d="M930.1712,-56.9404C851.4178,-45.2112 716.6158,-25.1343 651.8543,-15.4889"/>
<polygon fill="#191970" stroke="#191970" points="652.1179,-11.9897 641.7114,-13.9783 651.0867,-18.9133 652.1179,-11.9897"/>
</g>
<!-- Node13 -->
<g id="node14" class="node">
<title>Node13</title>
<polygon fill="none" stroke="#bfbfbf" points="692,-.5 692,-19.5 744,-19.5 744,-.5 692,-.5"/>
<text text-anchor="middle" x="718" y="-7.5" font-family="FreeSans.ttf" font-size="10.00" fill="#000000">cassert</text>
</g>
<!-- Node12&#45;&gt;Node13 -->
<g id="edge15" class="edge">
<title>Node12&#45;&gt;Node13</title>
<path fill="none" stroke="#191970" d="M933.9566,-56.4191C887.8239,-48.3425 821.0179,-35.9082 754.169,-20.1346"/>
<polygon fill="#191970" stroke="#191970" points="754.8474,-16.6983 744.3082,-17.7832 753.2237,-23.5073 754.8474,-16.6983"/>
</g>
<!-- Node14 -->
<g id="node15" class="node">
<title>Node14</title>
<polygon fill="none" stroke="#bfbfbf" points="1058,-.5 1058,-19.5 1122,-19.5 1122,-.5 1058,-.5"/>
<text text-anchor="middle" x="1090" y="-7.5" font-family="FreeSans.ttf" font-size="10.00" fill="#000000">algorithm</text>
</g>
<!-- Node12&#45;&gt;Node14 -->
<g id="edge16" class="edge">
<title>Node12&#45;&gt;Node14</title>
<path fill="none" stroke="#191970" d="M1008.2445,-56.2455C1023.5761,-47.5731 1046.2199,-34.7645 1063.7916,-24.825"/>
<polygon fill="#191970" stroke="#191970" points="1065.9724,-27.6126 1072.9531,-19.6427 1062.5259,-21.5198 1065.9724,-27.6126"/>
</g>
<!-- Node15 -->
<g id="node16" class="node">
<title>Node15</title>
<polygon fill="none" stroke="#bfbfbf" points="1140,-.5 1140,-19.5 1182,-19.5 1182,-.5 1140,-.5"/>
<text text-anchor="middle" x="1161" y="-7.5" font-family="FreeSans.ttf" font-size="10.00" fill="#000000">array</text>
</g>
<!-- Node12&#45;&gt;Node15 -->
<g id="edge17" class="edge">
<title>Node12&#45;&gt;Node15</title>
<path fill="none" stroke="#191970" d="M1020.2393,-56.4332C1046.6337,-47.7884 1086.7803,-34.6175 1130.1126,-20.2853"/>
<polygon fill="#191970" stroke="#191970" points="1131.3045,-23.5777 1139.6985,-17.113 1129.1052,-16.9321 1131.3045,-23.5777"/>
</g>
<!-- Node16 -->
<g id="node17" class="node">
<title>Node16</title>
<polygon fill="none" stroke="#bfbfbf" points="1200.5,-.5 1200.5,-19.5 1253.5,-19.5 1253.5,-.5 1200.5,-.5"/>
<text text-anchor="middle" x="1227" y="-7.5" font-family="FreeSans.ttf" font-size="10.00" fill="#000000">iterator</text>
</g>
<!-- Node12&#45;&gt;Node16 -->
<g id="edge19" class="edge">
<title>Node12&#45;&gt;Node16</title>
<path fill="none" stroke="#191970" d="M1035.2266,-56.4256C1073.7026,-47.9619 1131.1855,-34.9966 1190.3972,-20.071"/>
<polygon fill="#191970" stroke="#191970" points="1191.4661,-23.4108 1200.2992,-17.5605 1189.7457,-16.6255 1191.4661,-23.4108"/>
</g>
<!-- Node17 -->
<g id="node18" class="node">
<title>Node17</title>
<polygon fill="none" stroke="#bfbfbf" points="762,-.5 762,-19.5 806,-19.5 806,-.5 762,-.5"/>
<text text-anchor="middle" x="784" y="-7.5" font-family="FreeSans.ttf" font-size="10.00" fill="#000000">limits</text>
</g>
<!-- Node12&#45;&gt;Node17 -->
<g id="edge20" class="edge">
<title>Node12&#45;&gt;Node17</title>
<path fill="none" stroke="#191970" d="M952.627,-56.4522C917.0786,-47.4797 862.7959,-33.4545 816,-20 815.9021,-19.9719 815.8041,-19.9436 815.7059,-19.9153"/>
<polygon fill="#191970" stroke="#191970" points="816.9234,-16.6261 806.3403,-17.1246 814.9244,-23.3346 816.9234,-16.6261"/>
</g>
<!-- Node18 -->
<g id="node19" class="node">
<title>Node18</title>
<polygon fill="none" stroke="#bfbfbf" points="824.5,-.5 824.5,-19.5 889.5,-19.5 889.5,-.5 824.5,-.5"/>
<text text-anchor="middle" x="857" y="-7.5" font-family="FreeSans.ttf" font-size="10.00" fill="#000000">stdexcept</text>
</g>
<!-- Node12&#45;&gt;Node18 -->
<g id="edge21" class="edge">
<title>Node12&#45;&gt;Node18</title>
<path fill="none" stroke="#191970" d="M967.9646,-56.3733C946.2612,-47.3032 913.5382,-33.6279 889.245,-23.4755"/>
<polygon fill="#191970" stroke="#191970" points="890.3111,-20.1278 879.7348,-19.5011 887.6119,-26.5865 890.3111,-20.1278"/>
</g>
<!-- Node19 -->
<g id="node20" class="node">
<title>Node19</title>
<polygon fill="none" stroke="#bfbfbf" points="907.5,-.5 907.5,-19.5 976.5,-19.5 976.5,-.5 907.5,-.5"/>
<text text-anchor="middle" x="942" y="-7.5" font-family="FreeSans.ttf" font-size="10.00" fill="#000000">type_traits</text>
</g>
<!-- Node12&#45;&gt;Node19 -->
<g id="edge22" class="edge">
<title>Node12&#45;&gt;Node19</title>
<path fill="none" stroke="#191970" d="M982.4649,-56.2455C975.5088,-48.2958 965.5117,-36.8706 957.1949,-27.3656"/>
<polygon fill="#191970" stroke="#191970" points="959.6564,-24.8637 950.4373,-19.6427 954.3884,-29.4732 959.6564,-24.8637"/>
</g>
<!-- Node20 -->
<g id="node21" class="node">
<title>Node20</title>
<polygon fill="none" stroke="#bfbfbf" points="994.5,-.5 994.5,-19.5 1039.5,-19.5 1039.5,-.5 994.5,-.5"/>
<text text-anchor="middle" x="1017" y="-7.5" font-family="FreeSans.ttf" font-size="10.00" fill="#000000">utility</text>
</g>
<!-- Node12&#45;&gt;Node20 -->
<g id="edge23" class="edge">
<title>Node12&#45;&gt;Node20</title>
<path fill="none" stroke="#191970" d="M995.5289,-56.2455C999.0334,-48.6973 1003.9927,-38.0158 1008.2623,-28.8197"/>
<polygon fill="#191970" stroke="#191970" points="1011.4864,-30.1867 1012.523,-19.6427 1005.1373,-27.2389 1011.4864,-30.1867"/>
</g>
<!-- Node21&#45;&gt;Node3 -->
<g id="edge26" class="edge">
<title>Node21&#45;&gt;Node3</title>
<path fill="none" stroke="#191970" d="M276.25,-336.3262C260.5,-317.87 229,-275.7399 229,-234 229,-234 229,-234 229,-178 229,-108.5809 326.226,-80.8067 378.5539,-70.8855"/>
<polygon fill="#191970" stroke="#191970" points="379.4519,-74.2807 388.6832,-69.0814 378.2244,-67.3892 379.4519,-74.2807"/>
</g>
<!-- Node22&#45;&gt;Node3 -->
<g id="edge55" class="edge">
<title>Node22&#45;&gt;Node3</title>
<path fill="none" stroke="#191970" d="M405.7448,-337.5284C344.4671,-325.8804 267,-298.4164 267,-234 267,-234 267,-234 267,-178 267,-121.5572 336.7848,-89.422 379.1938,-75.1043"/>
<polygon fill="#191970" stroke="#191970" points="380.3727,-78.4017 388.8156,-72.001 378.224,-71.7396 380.3727,-78.4017"/>
</g>
<!-- Node23 -->
<g id="node24" class="node">
<title>Node23</title>
<g id="a_node24"><a xlink:href="Position_8h.html" target="_top" xlink:title="iDynTree/Core/Position.h">
<polygon fill="none" stroke="#000000" points="394,-280.5 394,-299.5 530,-299.5 530,-280.5 394,-280.5"/>
<text text-anchor="middle" x="462" y="-287.5" font-family="FreeSans.ttf" font-size="10.00" fill="#000000">iDynTree/Core/Position.h</text>
</a>
</g>
</g>
<!-- Node22&#45;&gt;Node23 -->
<g id="edge28" class="edge">
<title>Node22&#45;&gt;Node23</title>
<path fill="none" stroke="#191970" d="M476.0388,-336.2455C473.7962,-328.8579 470.6423,-318.4689 467.8919,-309.4087"/>
<polygon fill="#191970" stroke="#191970" points="471.1812,-308.1948 464.9272,-299.6427 464.483,-310.2282 471.1812,-308.1948"/>
</g>
<!-- Node28 -->
<g id="node29" class="node">
<title>Node28</title>
<g id="a_node29"><a xlink:href="Rotation_8h.html" target="_top" xlink:title="iDynTree/Core/Rotation.h">
<polygon fill="none" stroke="#000000" points="517.5,-224.5 517.5,-243.5 654.5,-243.5 654.5,-224.5 517.5,-224.5"/>
<text text-anchor="middle" x="586" y="-231.5" font-family="FreeSans.ttf" font-size="10.00" fill="#000000">iDynTree/Core/Rotation.h</text>
</a>
</g>
</g>
<!-- Node22&#45;&gt;Node28 -->
<g id="edge53" class="edge">
<title>Node22&#45;&gt;Node28</title>
<path fill="none" stroke="#191970" d="M493.8007,-336.4999C506.5892,-327.8795 525.1434,-314.3541 539,-300 553.1295,-285.3631 566.2948,-266.1997 575.0758,-252.2957"/>
<polygon fill="#191970" stroke="#191970" points="578.1486,-253.9806 580.4124,-243.6304 572.1883,-250.3098 578.1486,-253.9806"/>
</g>
<!-- Node31 -->
<g id="node32" class="node">
<title>Node31</title>
<g id="a_node32"><a xlink:href="MatrixFixSize_8h.html" target="_top" xlink:title="iDynTree/Core/MatrixFixSize.h">
<polygon fill="none" stroke="#000000" points="621.5,-112.5 621.5,-131.5 782.5,-131.5 782.5,-112.5 621.5,-112.5"/>
<text text-anchor="middle" x="702" y="-119.5" font-family="FreeSans.ttf" font-size="10.00" fill="#000000">iDynTree/Core/MatrixFixSize.h</text>
</a>
</g>
</g>
<!-- Node22&#45;&gt;Node31 -->
<g id="edge54" class="edge">
<title>Node22&#45;&gt;Node31</title>
<path fill="none" stroke="#191970" d="M502.248,-336.4407C538.9844,-320.6515 611.6545,-286.5923 664,-244 689.4268,-223.3108 700.6269,-218.7444 712,-188 717.5839,-172.9053 714.1666,-154.765 709.8709,-141.3255"/>
<polygon fill="#191970" stroke="#191970" points="713.0837,-139.9177 706.3926,-131.7032 706.5006,-142.2974 713.0837,-139.9177"/>
</g>
<!-- Node23&#45;&gt;Node3 -->
<g id="edge52" class="edge">
<title>Node23&#45;&gt;Node3</title>
<path fill="none" stroke="#191970" d="M437.7478,-280.4281C404.9481,-265.9927 347.8146,-235.2157 324,-188 303.1184,-146.5993 353.4903,-103.7071 386.0169,-81.4704"/>
<polygon fill="#191970" stroke="#191970" points="388.2338,-84.2005 394.6438,-75.7647 384.3722,-78.3619 388.2338,-84.2005"/>
</g>
<!-- Node24 -->
<g id="node25" class="node">
<title>Node24</title>
<g id="a_node25"><a xlink:href="PositionRaw_8h.html" target="_top" xlink:title="iDynTree/Core/PositionRaw.h">
<polygon fill="none" stroke="#000000" points="333,-168.5 333,-187.5 489,-187.5 489,-168.5 333,-168.5"/>
<text text-anchor="middle" x="411" y="-175.5" font-family="FreeSans.ttf" font-size="10.00" fill="#000000">iDynTree/Core/PositionRaw.h</text>
</a>
</g>
</g>
<!-- Node23&#45;&gt;Node24 -->
<g id="edge29" class="edge">
<title>Node23&#45;&gt;Node24</title>
<path fill="none" stroke="#191970" d="M457.6518,-280.4509C449.2209,-261.936 430.5162,-220.8591 419.5237,-196.7187"/>
<polygon fill="#191970" stroke="#191970" points="422.6667,-195.1753 415.3372,-187.5249 416.2961,-198.0762 422.6667,-195.1753"/>
</g>
<!-- Node23&#45;&gt;Node28 -->
<g id="edge38" class="edge">
<title>Node23&#45;&gt;Node28</title>
<path fill="none" stroke="#191970" d="M483.3164,-280.3733C503.2216,-271.3838 533.1436,-257.8706 555.56,-247.7471"/>
<polygon fill="#191970" stroke="#191970" points="557.2887,-250.8068 564.9618,-243.5011 554.4075,-244.4272 557.2887,-250.8068"/>
</g>
<!-- Node24&#45;&gt;Node3 -->
<g id="edge37" class="edge">
<title>Node24&#45;&gt;Node3</title>
<path fill="none" stroke="#191970" d="M411,-168.4509C411,-150.184 411,-109.9553 411,-85.6976"/>
<polygon fill="#191970" stroke="#191970" points="414.5001,-85.5249 411,-75.5249 407.5001,-85.5249 414.5001,-85.5249"/>
</g>
<!-- Node25 -->
<g id="node26" class="node">
<title>Node25</title>
<g id="a_node26"><a xlink:href="VectorFixSize_8h.html" target="_top" xlink:title="iDynTree/Core/VectorFixSize.h">
<polygon fill="none" stroke="#000000" points="800.5,-112.5 800.5,-131.5 961.5,-131.5 961.5,-112.5 800.5,-112.5"/>
<text text-anchor="middle" x="881" y="-119.5" font-family="FreeSans.ttf" font-size="10.00" fill="#000000">iDynTree/Core/VectorFixSize.h</text>
</a>
</g>
</g>
<!-- Node24&#45;&gt;Node25 -->
<g id="edge30" class="edge">
<title>Node24&#45;&gt;Node25</title>
<path fill="none" stroke="#191970" d="M489.1385,-168.6899C572.2482,-158.7874 703.5302,-143.1453 790.9318,-132.7315"/>
<polygon fill="#191970" stroke="#191970" points="791.5858,-136.1785 801.1014,-131.5198 790.7576,-129.2276 791.5858,-136.1785"/>
</g>
<!-- Node25&#45;&gt;Node3 -->
<g id="edge33" class="edge">
<title>Node25&#45;&gt;Node3</title>
<path fill="none" stroke="#191970" d="M800.4282,-112.8704C720.9629,-103.7952 596.0611,-89.3406 488,-76 473.2876,-74.1837 457.0065,-72.0826 443.2193,-70.2765"/>
<polygon fill="#191970" stroke="#191970" points="443.6006,-66.7966 433.2295,-68.9625 442.6877,-73.7368 443.6006,-66.7966"/>
</g>
<!-- Node25&#45;&gt;Node5 -->
<g id="edge31" class="edge">
<title>Node25&#45;&gt;Node5</title>
<path fill="none" stroke="#191970" d="M825.4998,-112.4369C768.9437,-102.6918 681.2596,-87.5832 621.3741,-77.2645"/>
<polygon fill="#191970" stroke="#191970" points="621.7204,-73.7726 611.2713,-75.5237 620.5317,-80.671 621.7204,-73.7726"/>
</g>
<!-- Node25&#45;&gt;Node12 -->
<g id="edge32" class="edge">
<title>Node25&#45;&gt;Node12</title>
<path fill="none" stroke="#191970" d="M900.1605,-112.2455C917.5111,-103.4125 943.2901,-90.2887 962.9583,-80.2758"/>
<polygon fill="#191970" stroke="#191970" points="964.7353,-83.2986 972.059,-75.6427 961.5595,-77.0605 964.7353,-83.2986"/>
</g>
<!-- Node25&#45;&gt;Node13 -->
<g id="edge35" class="edge">
<title>Node25&#45;&gt;Node13</title>
<path fill="none" stroke="#191970" d="M884.7273,-112.3453C889.4289,-98.3804 895.493,-72.4227 883,-56 848.5456,-10.7077 814.3682,-33.5916 754.2432,-20.0588"/>
<polygon fill="#191970" stroke="#191970" points="754.9199,-16.6198 744.3667,-17.5582 753.2018,-23.4057 754.9199,-16.6198"/>
</g>
<!-- Node26 -->
<g id="node27" class="node">
<title>Node26</title>
<polygon fill="none" stroke="#bfbfbf" points="818,-56.5 818,-75.5 874,-75.5 874,-56.5 818,-56.5"/>
<text text-anchor="middle" x="846" y="-63.5" font-family="FreeSans.ttf" font-size="10.00" fill="#000000">sstream</text>
</g>
<!-- Node25&#45;&gt;Node26 -->
<g id="edge34" class="edge">
<title>Node25&#45;&gt;Node26</title>
<path fill="none" stroke="#191970" d="M874.9035,-112.2455C870.0855,-104.5367 863.2249,-93.5598 857.3968,-84.2348"/>
<polygon fill="#191970" stroke="#191970" points="860.2947,-82.2677 852.0267,-75.6427 854.3587,-85.9777 860.2947,-82.2677"/>
</g>
<!-- Node27 -->
<g id="node28" class="node">
<title>Node27</title>
<polygon fill="none" stroke="#bfbfbf" points="750,-56.5 750,-75.5 800,-75.5 800,-56.5 750,-56.5"/>
<text text-anchor="middle" x="775" y="-63.5" font-family="FreeSans.ttf" font-size="10.00" fill="#000000">cstring</text>
</g>
<!-- Node25&#45;&gt;Node27 -->
<g id="edge36" class="edge">
<title>Node25&#45;&gt;Node27</title>
<path fill="none" stroke="#191970" d="M862.5362,-112.2455C845.8926,-103.4527 821.2007,-90.4079 802.2808,-80.4125"/>
<polygon fill="#191970" stroke="#191970" points="803.7291,-77.2193 793.2522,-75.6427 800.4592,-83.4086 803.7291,-77.2193"/>
</g>
<!-- Node28&#45;&gt;Node3 -->
<g id="edge39" class="edge">
<title>Node28&#45;&gt;Node3</title>
<path fill="none" stroke="#191970" d="M575.1864,-224.2203C565.0016,-214.9696 549.3565,-200.6567 536,-188 496.8438,-150.8952 451.7475,-106.448 427.8737,-82.7792"/>
<polygon fill="#191970" stroke="#191970" points="430.1933,-80.1502 420.6302,-75.5896 425.262,-85.1184 430.1933,-80.1502"/>
</g>
<!-- Node28&#45;&gt;Node25 -->
<g id="edge51" class="edge">
<title>Node28&#45;&gt;Node25</title>
<path fill="none" stroke="#191970" d="M612.6113,-224.4792C638.1565,-215.294 677.798,-200.9199 712,-188 759.201,-170.1697 813.502,-148.8117 847.5365,-135.3221"/>
<polygon fill="#191970" stroke="#191970" points="848.9926,-138.5098 856.9967,-131.5683 846.4108,-132.0034 848.9926,-138.5098"/>
</g>
<!-- Node29 -->
<g id="node30" class="node">
<title>Node29</title>
<g id="a_node30"><a xlink:href="GeomVector3_8h.html" target="_top" xlink:title="iDynTree/Core/GeomVector3.h">
<polygon fill="none" stroke="#000000" points="835.5,-168.5 835.5,-187.5 998.5,-187.5 998.5,-168.5 835.5,-168.5"/>
<text text-anchor="middle" x="917" y="-175.5" font-family="FreeSans.ttf" font-size="10.00" fill="#000000">iDynTree/Core/GeomVector3.h</text>
</a>
</g>
</g>
<!-- Node28&#45;&gt;Node29 -->
<g id="edge40" class="edge">
<title>Node28&#45;&gt;Node29</title>
<path fill="none" stroke="#191970" d="M642.5248,-224.4369C700.244,-214.6717 789.7971,-199.5207 850.7966,-189.2006"/>
<polygon fill="#191970" stroke="#191970" points="851.4323,-192.6429 860.7083,-187.5237 850.2645,-185.7409 851.4323,-192.6429"/>
</g>
<!-- Node30 -->
<g id="node31" class="node">
<title>Node30</title>
<g id="a_node31"><a xlink:href="RotationRaw_8h.html" target="_top" xlink:title="iDynTree/Core/RotationRaw.h">
<polygon fill="none" stroke="#000000" points="545,-168.5 545,-187.5 703,-187.5 703,-168.5 545,-168.5"/>
<text text-anchor="middle" x="624" y="-175.5" font-family="FreeSans.ttf" font-size="10.00" fill="#000000">iDynTree/Core/RotationRaw.h</text>
</a>
</g>
</g>
<!-- Node28&#45;&gt;Node30 -->
<g id="edge42" class="edge">
<title>Node28&#45;&gt;Node30</title>
<path fill="none" stroke="#191970" d="M592.6191,-224.2455C597.9046,-216.4564 605.4541,-205.3308 611.8238,-195.9439"/>
<polygon fill="#191970" stroke="#191970" points="614.7379,-197.8827 617.4568,-187.6427 608.9455,-193.9522 614.7379,-197.8827"/>
</g>
<!-- Node29&#45;&gt;Node25 -->
<g id="edge41" class="edge">
<title>Node29&#45;&gt;Node25</title>
<path fill="none" stroke="#191970" d="M910.7293,-168.2455C905.7736,-160.5367 898.717,-149.5598 892.7224,-140.2348"/>
<polygon fill="#191970" stroke="#191970" points="895.5506,-138.1618 887.1989,-131.6427 889.6624,-141.9471 895.5506,-138.1618"/>
</g>
<!-- Node30&#45;&gt;Node3 -->
<g id="edge50" class="edge">
<title>Node30&#45;&gt;Node3</title>
<path fill="none" stroke="#191970" d="M612.5838,-168.4511C595.6315,-154.618 562.4167,-128.8229 531,-112 502.4759,-96.726 467.7603,-83.9954 443.0214,-75.8281"/>
<polygon fill="#191970" stroke="#191970" points="443.9983,-72.4656 433.4065,-72.7174 441.8435,-79.1257 443.9983,-72.4656"/>
</g>
<!-- Node30&#45;&gt;Node31 -->
<g id="edge43" class="edge">
<title>Node30&#45;&gt;Node31</title>
<path fill="none" stroke="#191970" d="M637.5866,-168.2455C649.3305,-159.814 666.5199,-147.4729 680.1882,-137.6598"/>
<polygon fill="#191970" stroke="#191970" points="682.4871,-140.3179 688.5691,-131.6427 678.4046,-134.6316 682.4871,-140.3179"/>
</g>
<!-- Node31&#45;&gt;Node3 -->
<g id="edge47" class="edge">
<title>Node31&#45;&gt;Node3</title>
<path fill="none" stroke="#191970" d="M652.306,-112.4369C592.5951,-100.9461 494.1324,-81.998 443.4181,-72.2385"/>
<polygon fill="#191970" stroke="#191970" points="443.8333,-68.7543 433.352,-70.3014 442.5104,-75.6282 443.8333,-68.7543"/>
</g>
<!-- Node31&#45;&gt;Node5 -->
<g id="edge44" class="edge">
<title>Node31&#45;&gt;Node5</title>
<path fill="none" stroke="#191970" d="M676.9017,-112.3733C653.0445,-103.2226 616.9665,-89.3844 590.429,-79.2057"/>
<polygon fill="#191970" stroke="#191970" points="591.361,-75.8145 580.7708,-75.5011 588.8541,-82.3503 591.361,-75.8145"/>
</g>
<!-- Node31&#45;&gt;Node13 -->
<g id="edge45" class="edge">
<title>Node31&#45;&gt;Node13</title>
<path fill="none" stroke="#191970" d="M689.5415,-112.4811C674.7364,-99.931 653.1961,-76.9806 663,-56 668.9463,-43.2749 680.3358,-32.8307 691.215,-25.129"/>
<polygon fill="#191970" stroke="#191970" points="693.277,-27.9622 699.7167,-19.5491 689.436,-22.1101 693.277,-27.9622"/>
</g>
<!-- Node31&#45;&gt;Node26 -->
<g id="edge49" class="edge">
<title>Node31&#45;&gt;Node26</title>
<path fill="none" stroke="#191970" d="M726.7545,-112.3733C750.2849,-103.2226 785.8687,-89.3844 812.0426,-79.2057"/>
<polygon fill="#191970" stroke="#191970" points="813.5171,-82.3877 821.5685,-75.5011 810.9799,-75.8636 813.5171,-82.3877"/>
</g>
<!-- Node31&#45;&gt;Node27 -->
<g id="edge46" class="edge">
<title>Node31&#45;&gt;Node27</title>
<path fill="none" stroke="#191970" d="M714.7156,-112.2455C725.602,-103.8943 741.4883,-91.7076 754.22,-81.9408"/>
<polygon fill="#191970" stroke="#191970" points="756.6261,-84.5063 762.4301,-75.6427 752.3654,-78.9523 756.6261,-84.5063"/>
</g>
<!-- Node32 -->
<g id="node33" class="node">
<title>Node32</title>
<polygon fill="none" stroke="#bfbfbf" points="672,-56.5 672,-75.5 732,-75.5 732,-56.5 672,-56.5"/>
<text text-anchor="middle" x="702" y="-63.5" font-family="FreeSans.ttf" font-size="10.00" fill="#000000">iostream</text>
</g>
<!-- Node31&#45;&gt;Node32 -->
<g id="edge48" class="edge">
<title>Node31&#45;&gt;Node32</title>
<path fill="none" stroke="#191970" d="M702,-112.2455C702,-104.9382 702,-94.6944 702,-85.7046"/>
<polygon fill="#191970" stroke="#191970" points="705.5001,-85.6426 702,-75.6427 698.5001,-85.6427 705.5001,-85.6426"/>
</g>
</g>
</svg>
