<?xml version="1.0" encoding="UTF-8" standalone="no"?>
<!DOCTYPE svg PUBLIC "-//W3C//DTD SVG 1.1//EN"
 "http://www.w3.org/Graphics/SVG/1.1/DTD/svg11.dtd">
<!-- Generated by graphviz version 2.40.1 (20161225.0304)
 -->
<!-- Title: QuadraticLikeCost.cpp Pages: 1 -->
<svg width="1428pt" height="543pt"
 viewBox="0.00 0.00 1427.50 543.00" xmlns="http://www.w3.org/2000/svg" xmlns:xlink="http://www.w3.org/1999/xlink">
<g id="graph0" class="graph" transform="scale(1 1) rotate(0) translate(4 539)">
<title>QuadraticLikeCost.cpp</title>
<!-- Node0 -->
<g id="node1" class="node">
<title>Node0</title>
<polygon fill="#bfbfbf" stroke="#000000" points="760,-515.5 760,-534.5 886,-534.5 886,-515.5 760,-515.5"/>
<text text-anchor="middle" x="823" y="-522.5" font-family="FreeSans.ttf" font-size="10.00" fill="#000000">QuadraticLikeCost.cpp</text>
</g>
<!-- Node1 -->
<g id="node2" class="node">
<title>Node1</title>
<g id="a_node2"><a xlink:href="QuadraticLikeCost_8h.html" target="_top" xlink:title="iDynTree/QuadraticLikeCost.h">
<polygon fill="none" stroke="#000000" points="277.5,-459.5 277.5,-478.5 438.5,-478.5 438.5,-459.5 277.5,-459.5"/>
<text text-anchor="middle" x="358" y="-466.5" font-family="FreeSans.ttf" font-size="10.00" fill="#000000">iDynTree/QuadraticLikeCost.h</text>
</a>
</g>
</g>
<!-- Node0&#45;&gt;Node1 -->
<g id="edge1" class="edge">
<title>Node0&#45;&gt;Node1</title>
<path fill="none" stroke="#191970" d="M759.8041,-517.3893C679.0245,-507.661 538.6913,-490.7607 447.0902,-479.7291"/>
<polygon fill="#191970" stroke="#191970" points="447.3465,-476.2348 436.9997,-478.5139 446.5095,-483.1846 447.3465,-476.2348"/>
</g>
<!-- Node5 -->
<g id="node6" class="node">
<title>Node5</title>
<g id="a_node6"><a xlink:href="Utils_8h.html" target="_top" xlink:title="iDynTree/Core/Utils.h">
<polygon fill="none" stroke="#000000" points="54.5,-56.5 54.5,-75.5 173.5,-75.5 173.5,-56.5 54.5,-56.5"/>
<text text-anchor="middle" x="114" y="-63.5" font-family="FreeSans.ttf" font-size="10.00" fill="#000000">iDynTree/Core/Utils.h</text>
</a>
</g>
</g>
<!-- Node0&#45;&gt;Node5 -->
<g id="edge57" class="edge">
<title>Node0&#45;&gt;Node5</title>
<path fill="none" stroke="#191970" d="M759.7871,-522.6168C567.0714,-514.5188 0,-484.1757 0,-407.5 0,-407.5 0,-407.5 0,-178 0,-131.4628 48.9383,-97.828 82.6864,-80.1659"/>
<polygon fill="#191970" stroke="#191970" points="84.3862,-83.2289 91.749,-75.6105 81.2424,-76.9746 84.3862,-83.2289"/>
</g>
<!-- Node34 -->
<g id="node35" class="node">
<title>Node34</title>
<polygon fill="none" stroke="#bfbfbf" points="1342.5,-398 1342.5,-417 1419.5,-417 1419.5,-398 1342.5,-398"/>
<text text-anchor="middle" x="1381" y="-405" font-family="FreeSans.ttf" font-size="10.00" fill="#000000">Eigen/Dense</text>
</g>
<!-- Node0&#45;&gt;Node34 -->
<g id="edge58" class="edge">
<title>Node0&#45;&gt;Node34</title>
<path fill="none" stroke="#191970" d="M841.6196,-515.4926C859.8223,-506.1958 888.3211,-491.6348 913,-479 930.3393,-470.1229 933.3042,-464.4704 952,-459 1113.1199,-411.8566 1163.1453,-454.7025 1328,-423 1332.6954,-422.0971 1337.5729,-420.9576 1342.3834,-419.7081"/>
<polygon fill="#191970" stroke="#191970" points="1343.3761,-423.065 1352.0836,-417.0292 1341.5127,-416.3176 1343.3761,-423.065"/>
</g>
<!-- Node35 -->
<g id="node36" class="node">
<title>Node35</title>
<g id="a_node36"><a xlink:href="EigenHelpers_8h.html" target="_top" xlink:title="iDynTree/Core/EigenHelpers.h">
<polygon fill="none" stroke="#000000" points="742.5,-459.5 742.5,-478.5 903.5,-478.5 903.5,-459.5 742.5,-459.5"/>
<text text-anchor="middle" x="823" y="-466.5" font-family="FreeSans.ttf" font-size="10.00" fill="#000000">iDynTree/Core/EigenHelpers.h</text>
</a>
</g>
</g>
<!-- Node0&#45;&gt;Node35 -->
<g id="edge59" class="edge">
<title>Node0&#45;&gt;Node35</title>
<path fill="none" stroke="#191970" d="M823,-515.2455C823,-507.9382 823,-497.6944 823,-488.7046"/>
<polygon fill="#191970" stroke="#191970" points="826.5001,-488.6426 823,-478.6427 819.5001,-488.6427 826.5001,-488.6426"/>
</g>
<!-- Node39 -->
<g id="node40" class="node">
<title>Node39</title>
<polygon fill="none" stroke="#bfbfbf" points="960.5,-459.5 960.5,-478.5 1007.5,-478.5 1007.5,-459.5 960.5,-459.5"/>
<text text-anchor="middle" x="984" y="-466.5" font-family="FreeSans.ttf" font-size="10.00" fill="#000000">cmath</text>
</g>
<!-- Node0&#45;&gt;Node39 -->
<g id="edge81" class="edge">
<title>Node0&#45;&gt;Node39</title>
<path fill="none" stroke="#191970" d="M850.6769,-515.3733C878.4637,-505.7083 921.2843,-490.8142 950.8638,-480.5256"/>
<polygon fill="#191970" stroke="#191970" points="952.0515,-483.8183 960.3466,-477.2273 949.7518,-477.2068 952.0515,-483.8183"/>
</g>
<!-- Node2 -->
<g id="node3" class="node">
<title>Node2</title>
<g id="a_node3"><a xlink:href="Cost_8h.html" target="_top" xlink:title="iDynTree/Cost.h">
<polygon fill="none" stroke="#000000" points="200.5,-168.5 200.5,-187.5 293.5,-187.5 293.5,-168.5 200.5,-168.5"/>
<text text-anchor="middle" x="247" y="-175.5" font-family="FreeSans.ttf" font-size="10.00" fill="#000000">iDynTree/Cost.h</text>
</a>
</g>
</g>
<!-- Node1&#45;&gt;Node2 -->
<g id="edge2" class="edge">
<title>Node1&#45;&gt;Node2</title>
<path fill="none" stroke="#191970" d="M339.4211,-459.4468C307.8221,-441.7159 247,-400.5077 247,-346 247,-346 247,-346 247,-290 247,-257.7116 247,-220.1872 247,-197.8048"/>
<polygon fill="#191970" stroke="#191970" points="250.5001,-197.5883 247,-187.5884 243.5001,-197.5884 250.5001,-197.5883"/>
</g>
<!-- Node10 -->
<g id="node11" class="node">
<title>Node10</title>
<g id="a_node11"><a xlink:href="TimeVaryingObject_8h.html" target="_top" xlink:title="iDynTree/TimeVaryingObject.h">
<polygon fill="none" stroke="#000000" points="386,-398 386,-417 550,-417 550,-398 386,-398"/>
<text text-anchor="middle" x="468" y="-405" font-family="FreeSans.ttf" font-size="10.00" fill="#000000">iDynTree/TimeVaryingObject.h</text>
</a>
</g>
</g>
<!-- Node1&#45;&gt;Node10 -->
<g id="edge12" class="edge">
<title>Node1&#45;&gt;Node10</title>
<path fill="none" stroke="#191970" d="M375.1875,-459.3906C393.1082,-449.3713 421.4095,-433.5483 442.0523,-422.0071"/>
<polygon fill="#191970" stroke="#191970" points="443.9128,-424.9769 450.9332,-417.0419 440.4967,-418.867 443.9128,-424.9769"/>
</g>
<!-- Node33 -->
<g id="node34" class="node">
<title>Node33</title>
<polygon fill="none" stroke="#bfbfbf" points="28,-398 28,-417 86,-417 86,-398 28,-398"/>
<text text-anchor="middle" x="57" y="-405" font-family="FreeSans.ttf" font-size="10.00" fill="#000000">memory</text>
</g>
<!-- Node1&#45;&gt;Node33 -->
<g id="edge56" class="edge">
<title>Node1&#45;&gt;Node33</title>
<path fill="none" stroke="#191970" d="M285.8271,-459.4804C233.6934,-451.7954 161.8663,-439.5375 100,-423 97.0293,-422.2059 93.9727,-421.2971 90.9243,-420.3264"/>
<polygon fill="#191970" stroke="#191970" points="91.9247,-416.97 81.3304,-417.0804 89.6811,-423.6008 91.9247,-416.97"/>
</g>
<!-- Node3 -->
<g id="node4" class="node">
<title>Node3</title>
<polygon fill="none" stroke="#bfbfbf" points="456,-56.5 456,-75.5 500,-75.5 500,-56.5 456,-56.5"/>
<text text-anchor="middle" x="478" y="-63.5" font-family="FreeSans.ttf" font-size="10.00" fill="#000000">string</text>
</g>
<!-- Node2&#45;&gt;Node3 -->
<g id="edge3" class="edge">
<title>Node2&#45;&gt;Node3</title>
<path fill="none" stroke="#191970" d="M259.775,-168.4672C278.7138,-154.654 315.7017,-128.8835 350,-112 381.4214,-96.5326 419.3972,-83.5477 445.7865,-75.3603"/>
<polygon fill="#191970" stroke="#191970" points="447.0944,-78.6207 455.6406,-72.3588 445.0547,-71.9245 447.0944,-78.6207"/>
</g>
<!-- Node4 -->
<g id="node5" class="node">
<title>Node4</title>
<g id="a_node5"><a xlink:href="SparsityStructure_8h.html" target="_top" xlink:title="iDynTree/SparsityStructure.h">
<polygon fill="none" stroke="#000000" points="142.5,-112.5 142.5,-131.5 297.5,-131.5 297.5,-112.5 142.5,-112.5"/>
<text text-anchor="middle" x="220" y="-119.5" font-family="FreeSans.ttf" font-size="10.00" fill="#000000">iDynTree/SparsityStructure.h</text>
</a>
</g>
</g>
<!-- Node2&#45;&gt;Node4 -->
<g id="edge4" class="edge">
<title>Node2&#45;&gt;Node4</title>
<path fill="none" stroke="#191970" d="M242.297,-168.2455C238.6576,-160.6973 233.5076,-150.0158 229.0738,-140.8197"/>
<polygon fill="#191970" stroke="#191970" points="232.1449,-139.1303 224.6491,-131.6427 225.8395,-142.1704 232.1449,-139.1303"/>
</g>
<!-- Node4&#45;&gt;Node3 -->
<g id="edge11" class="edge">
<title>Node4&#45;&gt;Node3</title>
<path fill="none" stroke="#191970" d="M264.0586,-112.4369C315.7313,-101.2211 400.1364,-82.9006 445.9585,-72.9548"/>
<polygon fill="#191970" stroke="#191970" points="446.9003,-76.3319 455.9303,-70.7903 445.4155,-69.4912 446.9003,-76.3319"/>
</g>
<!-- Node4&#45;&gt;Node5 -->
<g id="edge5" class="edge">
<title>Node4&#45;&gt;Node5</title>
<path fill="none" stroke="#191970" d="M201.5362,-112.2455C184.8926,-103.4527 160.2007,-90.4079 141.2808,-80.4125"/>
<polygon fill="#191970" stroke="#191970" points="142.7291,-77.2193 132.2522,-75.6427 139.4592,-83.4086 142.7291,-77.2193"/>
</g>
<!-- Node6 -->
<g id="node7" class="node">
<title>Node6</title>
<polygon fill="none" stroke="#bfbfbf" points="340.5,-.5 340.5,-19.5 393.5,-19.5 393.5,-.5 340.5,-.5"/>
<text text-anchor="middle" x="367" y="-7.5" font-family="FreeSans.ttf" font-size="10.00" fill="#000000">cstddef</text>
</g>
<!-- Node4&#45;&gt;Node6 -->
<g id="edge9" class="edge">
<title>Node4&#45;&gt;Node6</title>
<path fill="none" stroke="#191970" d="M260.568,-112.4605C294.6011,-103.6582 339.5862,-89.8861 352,-76 363.1231,-63.5576 366.521,-44.6058 367.3419,-30.1975"/>
<polygon fill="#191970" stroke="#191970" points="370.8485,-29.8946 367.5461,-19.8276 363.8498,-29.7567 370.8485,-29.8946"/>
</g>
<!-- Node8 -->
<g id="node9" class="node">
<title>Node8</title>
<polygon fill="none" stroke="#bfbfbf" points="191.5,-56.5 191.5,-75.5 238.5,-75.5 238.5,-56.5 191.5,-56.5"/>
<text text-anchor="middle" x="215" y="-63.5" font-family="FreeSans.ttf" font-size="10.00" fill="#000000">vector</text>
</g>
<!-- Node4&#45;&gt;Node8 -->
<g id="edge8" class="edge">
<title>Node4&#45;&gt;Node8</title>
<path fill="none" stroke="#191970" d="M219.1291,-112.2455C218.4766,-104.9382 217.562,-94.6944 216.7593,-85.7046"/>
<polygon fill="#191970" stroke="#191970" points="220.2365,-85.2918 215.861,-75.6427 213.2642,-85.9143 220.2365,-85.2918"/>
</g>
<!-- Node9 -->
<g id="node10" class="node">
<title>Node9</title>
<polygon fill="none" stroke="#bfbfbf" points="257,-56.5 257,-75.5 343,-75.5 343,-56.5 257,-56.5"/>
<text text-anchor="middle" x="300" y="-63.5" font-family="FreeSans.ttf" font-size="10.00" fill="#000000">unordered_set</text>
</g>
<!-- Node4&#45;&gt;Node9 -->
<g id="edge10" class="edge">
<title>Node4&#45;&gt;Node9</title>
<path fill="none" stroke="#191970" d="M233.9349,-112.2455C246.0947,-103.7337 263.9464,-91.2375 278.0285,-81.3801"/>
<polygon fill="#191970" stroke="#191970" points="280.0395,-84.2447 286.2248,-75.6427 276.0253,-78.51 280.0395,-84.2447"/>
</g>
<!-- Node5&#45;&gt;Node6 -->
<g id="edge6" class="edge">
<title>Node5&#45;&gt;Node6</title>
<path fill="none" stroke="#191970" d="M157.2048,-56.4369C206.0146,-45.6331 284.6075,-28.2371 330.4776,-18.084"/>
<polygon fill="#191970" stroke="#191970" points="331.2893,-21.4891 340.2966,-15.9106 329.7765,-14.6546 331.2893,-21.4891"/>
</g>
<!-- Node7 -->
<g id="node8" class="node">
<title>Node7</title>
<polygon fill="none" stroke="#bfbfbf" points="74,-.5 74,-19.5 154,-19.5 154,-.5 74,-.5"/>
<text text-anchor="middle" x="114" y="-7.5" font-family="FreeSans.ttf" font-size="10.00" fill="#000000">CoreExport.h</text>
</g>
<!-- Node5&#45;&gt;Node7 -->
<g id="edge7" class="edge">
<title>Node5&#45;&gt;Node7</title>
<path fill="none" stroke="#191970" d="M114,-56.2455C114,-48.9382 114,-38.6944 114,-29.7046"/>
<polygon fill="#191970" stroke="#191970" points="117.5001,-29.6426 114,-19.6427 110.5001,-29.6427 117.5001,-29.6426"/>
</g>
<!-- Node11 -->
<g id="node12" class="node">
<title>Node11</title>
<g id="a_node12"><a xlink:href="VectorDynSize_8h.html" target="_top" xlink:title="iDynTree/Core/VectorDynSize.h">
<polygon fill="none" stroke="#000000" points="315.5,-280.5 315.5,-299.5 482.5,-299.5 482.5,-280.5 315.5,-280.5"/>
<text text-anchor="middle" x="399" y="-287.5" font-family="FreeSans.ttf" font-size="10.00" fill="#000000">iDynTree/Core/VectorDynSize.h</text>
</a>
</g>
</g>
<!-- Node10&#45;&gt;Node11 -->
<g id="edge13" class="edge">
<title>Node10&#45;&gt;Node11</title>
<path fill="none" stroke="#191970" d="M467.324,-397.5564C465.9532,-383.07 461.881,-355.7415 450,-336 442.8909,-324.1875 431.7998,-313.6616 421.7739,-305.6698"/>
<polygon fill="#191970" stroke="#191970" points="423.8022,-302.8156 413.7135,-299.5801 419.5825,-308.4009 423.8022,-302.8156"/>
</g>
<!-- Node21 -->
<g id="node22" class="node">
<title>Node21</title>
<g id="a_node22"><a xlink:href="MatrixDynSize_8h.html" target="_top" xlink:title="iDynTree/Core/MatrixDynSize.h">
<polygon fill="none" stroke="#000000" points="274.5,-336.5 274.5,-355.5 441.5,-355.5 441.5,-336.5 274.5,-336.5"/>
<text text-anchor="middle" x="358" y="-343.5" font-family="FreeSans.ttf" font-size="10.00" fill="#000000">iDynTree/Core/MatrixDynSize.h</text>
</a>
</g>
</g>
<!-- Node10&#45;&gt;Node21 -->
<g id="edge25" class="edge">
<title>Node10&#45;&gt;Node21</title>
<path fill="none" stroke="#191970" d="M450.8125,-397.8906C432.8918,-387.8713 404.5905,-372.0483 383.9477,-360.5071"/>
<polygon fill="#191970" stroke="#191970" points="385.5033,-357.367 375.0668,-355.5419 382.0872,-363.4769 385.5033,-357.367"/>
</g>
<!-- Node22 -->
<g id="node23" class="node">
<title>Node22</title>
<g id="a_node23"><a xlink:href="Transform_8h.html" target="_top" xlink:title="iDynTree/Core/Transform.h">
<polygon fill="none" stroke="#000000" points="616,-336.5 616,-355.5 762,-355.5 762,-336.5 616,-336.5"/>
<text text-anchor="middle" x="689" y="-343.5" font-family="FreeSans.ttf" font-size="10.00" fill="#000000">iDynTree/Core/Transform.h</text>
</a>
</g>
</g>
<!-- Node10&#45;&gt;Node22 -->
<g id="edge27" class="edge">
<title>Node10&#45;&gt;Node22</title>
<path fill="none" stroke="#191970" d="M502.5313,-397.8906C540.9682,-387.1944 603.1744,-369.8836 645.0536,-358.2294"/>
<polygon fill="#191970" stroke="#191970" points="646.0157,-361.5948 654.7112,-355.5419 644.1389,-354.851 646.0157,-361.5948"/>
</g>
<!-- Node11&#45;&gt;Node3 -->
<g id="edge24" class="edge">
<title>Node11&#45;&gt;Node3</title>
<path fill="none" stroke="#191970" d="M395.6575,-280.2489C388.9764,-259.2196 375.6328,-208.2505 388,-168 399.3783,-130.9679 433.1297,-99.5128 455.9091,-81.6933"/>
<polygon fill="#191970" stroke="#191970" points="458.169,-84.3724 464.0328,-75.5482 453.946,-78.7897 458.169,-84.3724"/>
</g>
<!-- Node12 -->
<g id="node13" class="node">
<title>Node12</title>
<g id="a_node13"><a xlink:href="Span_8h.html" target="_top" xlink:title="iDynTree/Core/Span.h">
<polygon fill="none" stroke="#000000" points="578.5,-56.5 578.5,-75.5 699.5,-75.5 699.5,-56.5 578.5,-56.5"/>
<text text-anchor="middle" x="639" y="-63.5" font-family="FreeSans.ttf" font-size="10.00" fill="#000000">iDynTree/Core/Span.h</text>
</a>
</g>
</g>
<!-- Node11&#45;&gt;Node12 -->
<g id="edge14" class="edge">
<title>Node11&#45;&gt;Node12</title>
<path fill="none" stroke="#191970" d="M405.3548,-280.4055C419.9301,-258.8137 457.5589,-205.3732 497,-168 534.1783,-132.771 584.0386,-99.6686 613.7102,-81.1948"/>
<polygon fill="#191970" stroke="#191970" points="615.9119,-83.9496 622.5928,-75.7268 612.2422,-77.9886 615.9119,-83.9496"/>
</g>
<!-- Node12&#45;&gt;Node6 -->
<g id="edge18" class="edge">
<title>Node12&#45;&gt;Node6</title>
<path fill="none" stroke="#191970" d="M583.4236,-56.4382C537.6819,-48.28 470.9611,-35.7216 403.6147,-20.0029"/>
<polygon fill="#191970" stroke="#191970" points="404.2124,-16.548 393.6762,-17.661 402.6068,-23.3614 404.2124,-16.548"/>
</g>
<!-- Node13 -->
<g id="node14" class="node">
<title>Node13</title>
<polygon fill="none" stroke="#bfbfbf" points="922,-.5 922,-19.5 974,-19.5 974,-.5 922,-.5"/>
<text text-anchor="middle" x="948" y="-7.5" font-family="FreeSans.ttf" font-size="10.00" fill="#000000">cassert</text>
</g>
<!-- Node12&#45;&gt;Node13 -->
<g id="edge15" class="edge">
<title>Node12&#45;&gt;Node13</title>
<path fill="none" stroke="#191970" d="M699.5122,-57.8285C752.9985,-50.1557 833.2771,-37.5458 911.6631,-20.1163"/>
<polygon fill="#191970" stroke="#191970" points="912.7217,-23.4656 921.7081,-17.8535 911.1834,-16.6367 912.7217,-23.4656"/>
</g>
<!-- Node14 -->
<g id="node15" class="node">
<title>Node14</title>
<polygon fill="none" stroke="#bfbfbf" points="840,-.5 840,-19.5 904,-19.5 904,-.5 840,-.5"/>
<text text-anchor="middle" x="872" y="-7.5" font-family="FreeSans.ttf" font-size="10.00" fill="#000000">algorithm</text>
</g>
<!-- Node12&#45;&gt;Node14 -->
<g id="edge16" class="edge">
<title>Node12&#45;&gt;Node14</title>
<path fill="none" stroke="#191970" d="M679.0945,-56.4443C715.8203,-47.6803 771.9647,-34.2542 829.735,-20.2995"/>
<polygon fill="#191970" stroke="#191970" points="830.8762,-23.6245 839.7741,-17.8731 829.2317,-16.8205 830.8762,-23.6245"/>
</g>
<!-- Node15 -->
<g id="node16" class="node">
<title>Node15</title>
<polygon fill="none" stroke="#bfbfbf" points="412,-.5 412,-19.5 454,-19.5 454,-.5 412,-.5"/>
<text text-anchor="middle" x="433" y="-7.5" font-family="FreeSans.ttf" font-size="10.00" fill="#000000">array</text>
</g>
<!-- Node12&#45;&gt;Node15 -->
<g id="edge17" class="edge">
<title>Node12&#45;&gt;Node15</title>
<path fill="none" stroke="#191970" d="M599.2992,-56.42C565.5896,-48.1081 515.7399,-35.4008 463.9414,-20.1526"/>
<polygon fill="#191970" stroke="#191970" points="464.8328,-16.7663 454.2503,-17.2763 462.8411,-23.477 464.8328,-16.7663"/>
</g>
<!-- Node16 -->
<g id="node17" class="node">
<title>Node16</title>
<polygon fill="none" stroke="#bfbfbf" points="472.5,-.5 472.5,-19.5 525.5,-19.5 525.5,-.5 472.5,-.5"/>
<text text-anchor="middle" x="499" y="-7.5" font-family="FreeSans.ttf" font-size="10.00" fill="#000000">iterator</text>
</g>
<!-- Node12&#45;&gt;Node16 -->
<g id="edge19" class="edge">
<title>Node12&#45;&gt;Node16</title>
<path fill="none" stroke="#191970" d="M614.9331,-56.3733C592.1572,-47.2629 557.7656,-33.5062 532.351,-23.3404"/>
<polygon fill="#191970" stroke="#191970" points="533.3375,-19.9654 522.7528,-19.5011 530.7377,-26.4648 533.3375,-19.9654"/>
</g>
<!-- Node17 -->
<g id="node18" class="node">
<title>Node17</title>
<polygon fill="none" stroke="#bfbfbf" points="544,-.5 544,-19.5 588,-19.5 588,-.5 544,-.5"/>
<text text-anchor="middle" x="566" y="-7.5" font-family="FreeSans.ttf" font-size="10.00" fill="#000000">limits</text>
</g>
<!-- Node12&#45;&gt;Node17 -->
<g id="edge20" class="edge">
<title>Node12&#45;&gt;Node17</title>
<path fill="none" stroke="#191970" d="M626.2844,-56.2455C615.398,-47.8943 599.5117,-35.7076 586.78,-25.9408"/>
<polygon fill="#191970" stroke="#191970" points="588.6346,-22.9523 578.5699,-19.6427 584.3739,-28.5063 588.6346,-22.9523"/>
</g>
<!-- Node18 -->
<g id="node19" class="node">
<title>Node18</title>
<polygon fill="none" stroke="#bfbfbf" points="606.5,-.5 606.5,-19.5 671.5,-19.5 671.5,-.5 606.5,-.5"/>
<text text-anchor="middle" x="639" y="-7.5" font-family="FreeSans.ttf" font-size="10.00" fill="#000000">stdexcept</text>
</g>
<!-- Node12&#45;&gt;Node18 -->
<g id="edge21" class="edge">
<title>Node12&#45;&gt;Node18</title>
<path fill="none" stroke="#191970" d="M639,-56.2455C639,-48.9382 639,-38.6944 639,-29.7046"/>
<polygon fill="#191970" stroke="#191970" points="642.5001,-29.6426 639,-19.6427 635.5001,-29.6427 642.5001,-29.6426"/>
</g>
<!-- Node19 -->
<g id="node20" class="node">
<title>Node19</title>
<polygon fill="none" stroke="#bfbfbf" points="689.5,-.5 689.5,-19.5 758.5,-19.5 758.5,-.5 689.5,-.5"/>
<text text-anchor="middle" x="724" y="-7.5" font-family="FreeSans.ttf" font-size="10.00" fill="#000000">type_traits</text>
</g>
<!-- Node12&#45;&gt;Node19 -->
<g id="edge22" class="edge">
<title>Node12&#45;&gt;Node19</title>
<path fill="none" stroke="#191970" d="M653.8059,-56.2455C666.7256,-47.7337 685.6931,-35.2375 700.6552,-25.3801"/>
<polygon fill="#191970" stroke="#191970" points="702.9387,-28.067 709.3638,-19.6427 699.0876,-22.2216 702.9387,-28.067"/>
</g>
<!-- Node20 -->
<g id="node21" class="node">
<title>Node20</title>
<polygon fill="none" stroke="#bfbfbf" points="776.5,-.5 776.5,-19.5 821.5,-19.5 821.5,-.5 776.5,-.5"/>
<text text-anchor="middle" x="799" y="-7.5" font-family="FreeSans.ttf" font-size="10.00" fill="#000000">utility</text>
</g>
<!-- Node12&#45;&gt;Node20 -->
<g id="edge23" class="edge">
<title>Node12&#45;&gt;Node20</title>
<path fill="none" stroke="#191970" d="M666.505,-56.3733C694.3188,-46.6384 737.2899,-31.5985 766.7051,-21.3032"/>
<polygon fill="#191970" stroke="#191970" points="768.2148,-24.4831 776.4972,-17.876 765.9023,-17.8761 768.2148,-24.4831"/>
</g>
<!-- Node21&#45;&gt;Node3 -->
<g id="edge26" class="edge">
<title>Node21&#45;&gt;Node3</title>
<path fill="none" stroke="#191970" d="M340.9433,-336.377C328.6911,-328.4014 313.1292,-315.8248 306,-300 302.3489,-291.8956 303.6993,-288.586 306,-280 328.316,-196.7193 342.8486,-173.7696 403,-112 415.5881,-99.0732 432.5278,-88.2819 447.123,-80.4076"/>
<polygon fill="#191970" stroke="#191970" points="449.0298,-83.362 456.3063,-75.6612 445.8157,-77.1435 449.0298,-83.362"/>
</g>
<!-- Node22&#45;&gt;Node3 -->
<g id="edge55" class="edge">
<title>Node22&#45;&gt;Node3</title>
<path fill="none" stroke="#191970" d="M664.8138,-336.4501C618.8627,-316.7833 520.2124,-266.8771 483,-188 467.3913,-154.9151 470.5543,-110.9968 474.2736,-85.8851"/>
<polygon fill="#191970" stroke="#191970" points="477.7666,-86.2161 475.9563,-75.7771 470.8616,-85.0666 477.7666,-86.2161"/>
</g>
<!-- Node23 -->
<g id="node24" class="node">
<title>Node23</title>
<g id="a_node24"><a xlink:href="Position_8h.html" target="_top" xlink:title="iDynTree/Core/Position.h">
<polygon fill="none" stroke="#000000" points="619,-280.5 619,-299.5 755,-299.5 755,-280.5 619,-280.5"/>
<text text-anchor="middle" x="687" y="-287.5" font-family="FreeSans.ttf" font-size="10.00" fill="#000000">iDynTree/Core/Position.h</text>
</a>
</g>
</g>
<!-- Node22&#45;&gt;Node23 -->
<g id="edge28" class="edge">
<title>Node22&#45;&gt;Node23</title>
<path fill="none" stroke="#191970" d="M688.6516,-336.2455C688.3907,-328.9382 688.0248,-318.6944 687.7037,-309.7046"/>
<polygon fill="#191970" stroke="#191970" points="691.1992,-309.5113 687.3444,-299.6427 684.2036,-309.7613 691.1992,-309.5113"/>
</g>
<!-- Node28 -->
<g id="node29" class="node">
<title>Node28</title>
<g id="a_node29"><a xlink:href="Rotation_8h.html" target="_top" xlink:title="iDynTree/Core/Rotation.h">
<polygon fill="none" stroke="#000000" points="714.5,-224.5 714.5,-243.5 851.5,-243.5 851.5,-224.5 714.5,-224.5"/>
<text text-anchor="middle" x="783" y="-231.5" font-family="FreeSans.ttf" font-size="10.00" fill="#000000">iDynTree/Core/Rotation.h</text>
</a>
</g>
</g>
<!-- Node22&#45;&gt;Node28 -->
<g id="edge53" class="edge">
<title>Node22&#45;&gt;Node28</title>
<path fill="none" stroke="#191970" d="M713.9783,-336.382C730.4384,-328.8314 751.2353,-316.7749 764,-300 774.1414,-286.6726 778.8739,-268.1024 781.08,-254.0541"/>
<polygon fill="#191970" stroke="#191970" points="784.5762,-254.3046 782.3627,-243.9436 777.6319,-253.4235 784.5762,-254.3046"/>
</g>
<!-- Node31 -->
<g id="node32" class="node">
<title>Node31</title>
<g id="a_node32"><a xlink:href="MatrixFixSize_8h.html" target="_top" xlink:title="iDynTree/Core/MatrixFixSize.h">
<polygon fill="none" stroke="#000000" points="937.5,-112.5 937.5,-131.5 1098.5,-131.5 1098.5,-112.5 937.5,-112.5"/>
<text text-anchor="middle" x="1018" y="-119.5" font-family="FreeSans.ttf" font-size="10.00" fill="#000000">iDynTree/Core/MatrixFixSize.h</text>
</a>
</g>
</g>
<!-- Node22&#45;&gt;Node31 -->
<g id="edge54" class="edge">
<title>Node22&#45;&gt;Node31</title>
<path fill="none" stroke="#191970" d="M737.3276,-336.4741C844.1216,-314.3409 1094.5883,-256.1078 1143,-188 1162.3985,-160.7093 1125.6142,-143.7612 1087.0232,-133.8832"/>
<polygon fill="#191970" stroke="#191970" points="1087.7473,-130.4576 1077.2061,-131.5222 1086.1104,-137.2636 1087.7473,-130.4576"/>
</g>
<!-- Node23&#45;&gt;Node3 -->
<g id="edge52" class="edge">
<title>Node23&#45;&gt;Node3</title>
<path fill="none" stroke="#191970" d="M648.3631,-280.4392C604.2407,-267.3798 533.4643,-239.4782 497,-188 475.3056,-157.3731 474.3989,-111.5712 475.9929,-85.6787"/>
<polygon fill="#191970" stroke="#191970" points="479.49,-85.8546 476.8055,-75.6055 472.5126,-85.2916 479.49,-85.8546"/>
</g>
<!-- Node24 -->
<g id="node25" class="node">
<title>Node24</title>
<g id="a_node25"><a xlink:href="PositionRaw_8h.html" target="_top" xlink:title="iDynTree/Core/PositionRaw.h">
<polygon fill="none" stroke="#000000" points="506,-168.5 506,-187.5 662,-187.5 662,-168.5 506,-168.5"/>
<text text-anchor="middle" x="584" y="-175.5" font-family="FreeSans.ttf" font-size="10.00" fill="#000000">iDynTree/Core/PositionRaw.h</text>
</a>
</g>
</g>
<!-- Node23&#45;&gt;Node24 -->
<g id="edge29" class="edge">
<title>Node23&#45;&gt;Node24</title>
<path fill="none" stroke="#191970" d="M678.2183,-280.4509C660.8111,-261.5227 621.7183,-219.014 599.7515,-195.1279"/>
<polygon fill="#191970" stroke="#191970" points="602.1049,-192.5163 592.7595,-187.5249 596.9524,-197.2547 602.1049,-192.5163"/>
</g>
<!-- Node23&#45;&gt;Node28 -->
<g id="edge38" class="edge">
<title>Node23&#45;&gt;Node28</title>
<path fill="none" stroke="#191970" d="M703.7219,-280.2455C718.5889,-271.5731 740.5466,-258.7645 757.5858,-248.825"/>
<polygon fill="#191970" stroke="#191970" points="759.5955,-251.7047 766.4697,-243.6427 756.0683,-245.6582 759.5955,-251.7047"/>
</g>
<!-- Node24&#45;&gt;Node3 -->
<g id="edge37" class="edge">
<title>Node24&#45;&gt;Node3</title>
<path fill="none" stroke="#191970" d="M574.9625,-168.4509C556.9701,-149.4401 516.4651,-106.6423 493.9152,-82.816"/>
<polygon fill="#191970" stroke="#191970" points="496.4305,-80.382 487.0146,-75.5249 491.3465,-85.1937 496.4305,-80.382"/>
</g>
<!-- Node25 -->
<g id="node26" class="node">
<title>Node25</title>
<g id="a_node26"><a xlink:href="VectorFixSize_8h.html" target="_top" xlink:title="iDynTree/Core/VectorFixSize.h">
<polygon fill="none" stroke="#000000" points="758.5,-112.5 758.5,-131.5 919.5,-131.5 919.5,-112.5 758.5,-112.5"/>
<text text-anchor="middle" x="839" y="-119.5" font-family="FreeSans.ttf" font-size="10.00" fill="#000000">iDynTree/Core/VectorFixSize.h</text>
</a>
</g>
</g>
<!-- Node24&#45;&gt;Node25 -->
<g id="edge30" class="edge">
<title>Node24&#45;&gt;Node25</title>
<path fill="none" stroke="#191970" d="M627.5463,-168.4369C671.2793,-158.8328 738.7345,-144.0191 785.6542,-133.7152"/>
<polygon fill="#191970" stroke="#191970" points="786.6168,-137.0872 795.6333,-131.5237 785.1153,-130.2502 786.6168,-137.0872"/>
</g>
<!-- Node25&#45;&gt;Node3 -->
<g id="edge33" class="edge">
<title>Node25&#45;&gt;Node3</title>
<path fill="none" stroke="#191970" d="M777.3521,-112.4369C700.0333,-100.4428 570.3374,-80.3238 510.2992,-71.0104"/>
<polygon fill="#191970" stroke="#191970" points="510.683,-67.5282 500.2646,-69.4538 509.6099,-74.4454 510.683,-67.5282"/>
</g>
<!-- Node25&#45;&gt;Node5 -->
<g id="edge31" class="edge">
<title>Node25&#45;&gt;Node5</title>
<path fill="none" stroke="#191970" d="M758.419,-118.337C636.2886,-112.3458 396.8068,-98.8825 183.7941,-76.128"/>
<polygon fill="#191970" stroke="#191970" points="183.9886,-72.6288 173.6712,-75.0375 183.2387,-79.5886 183.9886,-72.6288"/>
</g>
<!-- Node25&#45;&gt;Node12 -->
<g id="edge32" class="edge">
<title>Node25&#45;&gt;Node12</title>
<path fill="none" stroke="#191970" d="M804.6188,-112.3733C770.9299,-102.9404 719.4518,-88.5265 682.8382,-78.2747"/>
<polygon fill="#191970" stroke="#191970" points="683.506,-74.8271 672.9326,-75.5011 681.6185,-81.5679 683.506,-74.8271"/>
</g>
<!-- Node25&#45;&gt;Node13 -->
<g id="edge35" class="edge">
<title>Node25&#45;&gt;Node13</title>
<path fill="none" stroke="#191970" d="M840.8235,-112.4174C843.888,-98.5422 851.2403,-72.6953 866,-56 878.4451,-41.9229 896.2773,-31.2049 912.1358,-23.6713"/>
<polygon fill="#191970" stroke="#191970" points="913.9947,-26.6737 921.6892,-19.3905 911.1322,-20.2857 913.9947,-26.6737"/>
</g>
<!-- Node26 -->
<g id="node27" class="node">
<title>Node26</title>
<polygon fill="none" stroke="#bfbfbf" points="990,-56.5 990,-75.5 1046,-75.5 1046,-56.5 990,-56.5"/>
<text text-anchor="middle" x="1018" y="-63.5" font-family="FreeSans.ttf" font-size="10.00" fill="#000000">sstream</text>
</g>
<!-- Node25&#45;&gt;Node26 -->
<g id="edge34" class="edge">
<title>Node25&#45;&gt;Node26</title>
<path fill="none" stroke="#191970" d="M869.7712,-112.3733C900.3897,-102.7943 947.4267,-88.0788 980.2778,-77.8014"/>
<polygon fill="#191970" stroke="#191970" points="981.4848,-81.0911 989.9836,-74.7649 979.3947,-74.4104 981.4848,-81.0911"/>
</g>
<!-- Node27 -->
<g id="node28" class="node">
<title>Node27</title>
<polygon fill="none" stroke="#bfbfbf" points="875,-56.5 875,-75.5 925,-75.5 925,-56.5 875,-56.5"/>
<text text-anchor="middle" x="900" y="-63.5" font-family="FreeSans.ttf" font-size="10.00" fill="#000000">cstring</text>
</g>
<!-- Node25&#45;&gt;Node27 -->
<g id="edge36" class="edge">
<title>Node25&#45;&gt;Node27</title>
<path fill="none" stroke="#191970" d="M849.6254,-112.2455C858.5473,-104.0549 871.488,-92.1749 882.0192,-82.5069"/>
<polygon fill="#191970" stroke="#191970" points="884.4968,-84.9837 889.4964,-75.6427 879.7629,-79.8271 884.4968,-84.9837"/>
</g>
<!-- Node28&#45;&gt;Node3 -->
<g id="edge39" class="edge">
<title>Node28&#45;&gt;Node3</title>
<path fill="none" stroke="#191970" d="M767.1836,-224.3668C745.6125,-211.3008 705.6801,-187.3688 671,-168 612.9864,-135.5995 543.9072,-99.7349 506.1326,-80.3496"/>
<polygon fill="#191970" stroke="#191970" points="507.282,-77.0059 496.786,-75.5617 504.0905,-83.236 507.282,-77.0059"/>
</g>
<!-- Node28&#45;&gt;Node25 -->
<g id="edge51" class="edge">
<title>Node28&#45;&gt;Node25</title>
<path fill="none" stroke="#191970" d="M771.1122,-224.4172C756.4676,-211.4083 734.9231,-187.5408 747,-168 756.4961,-152.6351 772.8505,-142.2306 789.1612,-135.2655"/>
<polygon fill="#191970" stroke="#191970" points="790.6576,-138.4389 798.7075,-131.5505 788.1189,-131.9155 790.6576,-138.4389"/>
</g>
<!-- Node29 -->
<g id="node30" class="node">
<title>Node29</title>
<g id="a_node30"><a xlink:href="GeomVector3_8h.html" target="_top" xlink:title="iDynTree/Core/GeomVector3.h">
<polygon fill="none" stroke="#000000" points="970.5,-168.5 970.5,-187.5 1133.5,-187.5 1133.5,-168.5 970.5,-168.5"/>
<text text-anchor="middle" x="1052" y="-175.5" font-family="FreeSans.ttf" font-size="10.00" fill="#000000">iDynTree/Core/GeomVector3.h</text>
</a>
</g>
</g>
<!-- Node28&#45;&gt;Node29 -->
<g id="edge40" class="edge">
<title>Node28&#45;&gt;Node29</title>
<path fill="none" stroke="#191970" d="M828.9371,-224.4369C875.2645,-214.7925 946.8268,-199.8948 996.3469,-189.5858"/>
<polygon fill="#191970" stroke="#191970" points="997.1756,-192.9884 1006.2524,-187.5237 995.7489,-186.1353 997.1756,-192.9884"/>
</g>
<!-- Node30 -->
<g id="node31" class="node">
<title>Node30</title>
<g id="a_node31"><a xlink:href="RotationRaw_8h.html" target="_top" xlink:title="iDynTree/Core/RotationRaw.h">
<polygon fill="none" stroke="#000000" points="756,-168.5 756,-187.5 914,-187.5 914,-168.5 756,-168.5"/>
<text text-anchor="middle" x="835" y="-175.5" font-family="FreeSans.ttf" font-size="10.00" fill="#000000">iDynTree/Core/RotationRaw.h</text>
</a>
</g>
</g>
<!-- Node28&#45;&gt;Node30 -->
<g id="edge42" class="edge">
<title>Node28&#45;&gt;Node30</title>
<path fill="none" stroke="#191970" d="M792.0577,-224.2455C799.5142,-216.2155 810.2634,-204.6394 819.1417,-195.0781"/>
<polygon fill="#191970" stroke="#191970" points="821.8063,-197.3522 826.0461,-187.6427 816.6768,-192.589 821.8063,-197.3522"/>
</g>
<!-- Node29&#45;&gt;Node25 -->
<g id="edge41" class="edge">
<title>Node29&#45;&gt;Node25</title>
<path fill="none" stroke="#191970" d="M1015.384,-168.3733C979.352,-158.9001 924.2122,-144.4032 885.1886,-134.1435"/>
<polygon fill="#191970" stroke="#191970" points="885.6995,-130.6589 875.1382,-131.5011 883.9196,-137.4289 885.6995,-130.6589"/>
</g>
<!-- Node30&#45;&gt;Node3 -->
<g id="edge50" class="edge">
<title>Node30&#45;&gt;Node3</title>
<path fill="none" stroke="#191970" d="M817.45,-168.424C787.3046,-152.1005 726.7379,-119.8836 704,-112 636.9301,-88.7458 554.3673,-75.6386 509.9365,-69.7768"/>
<polygon fill="#191970" stroke="#191970" points="510.3773,-66.3048 500.0135,-68.5052 509.4875,-73.248 510.3773,-66.3048"/>
</g>
<!-- Node30&#45;&gt;Node31 -->
<g id="edge43" class="edge">
<title>Node30&#45;&gt;Node31</title>
<path fill="none" stroke="#191970" d="M866.4588,-168.3733C897.0207,-159.021 943.5826,-144.7725 977.0261,-134.5385"/>
<polygon fill="#191970" stroke="#191970" points="978.4136,-137.7742 986.9517,-131.5011 976.3652,-131.0806 978.4136,-137.7742"/>
</g>
<!-- Node31&#45;&gt;Node3 -->
<g id="edge47" class="edge">
<title>Node31&#45;&gt;Node3</title>
<path fill="none" stroke="#191970" d="M937.4746,-112.9076C934.6148,-112.5989 931.7831,-112.2955 929,-112 769.1008,-95.0226 728.9198,-92.7824 569,-76 549.4958,-73.9532 527.6524,-71.5563 510.256,-69.6223"/>
<polygon fill="#191970" stroke="#191970" points="510.3859,-66.1152 500.0596,-68.4852 509.61,-73.072 510.3859,-66.1152"/>
</g>
<!-- Node31&#45;&gt;Node5 -->
<g id="edge44" class="edge">
<title>Node31&#45;&gt;Node5</title>
<path fill="none" stroke="#191970" d="M937.4919,-112.7215C934.6273,-112.4654 931.7898,-112.2237 929,-112 601.0757,-85.7024 514.5863,-107.7564 184.017,-76.1122"/>
<polygon fill="#191970" stroke="#191970" points="183.954,-72.5898 173.6636,-75.1112 183.2804,-79.5573 183.954,-72.5898"/>
</g>
<!-- Node31&#45;&gt;Node13 -->
<g id="edge45" class="edge">
<title>Node31&#45;&gt;Node13</title>
<path fill="none" stroke="#191970" d="M1009.1189,-112.2379C1001.1821,-103.2318 989.5241,-89.2836 981,-76 971.2965,-60.8784 962.3205,-42.5163 956.1873,-29.0029"/>
<polygon fill="#191970" stroke="#191970" points="959.3376,-27.4729 952.0864,-19.7482 952.9378,-30.3088 959.3376,-27.4729"/>
</g>
<!-- Node31&#45;&gt;Node26 -->
<g id="edge49" class="edge">
<title>Node31&#45;&gt;Node26</title>
<path fill="none" stroke="#191970" d="M1018,-112.2455C1018,-104.9382 1018,-94.6944 1018,-85.7046"/>
<polygon fill="#191970" stroke="#191970" points="1021.5001,-85.6426 1018,-75.6427 1014.5001,-85.6427 1021.5001,-85.6426"/>
</g>
<!-- Node31&#45;&gt;Node27 -->
<g id="edge46" class="edge">
<title>Node31&#45;&gt;Node27</title>
<path fill="none" stroke="#191970" d="M997.7151,-112.3733C978.8579,-103.4241 950.554,-89.9917 929.2545,-79.8835"/>
<polygon fill="#191970" stroke="#191970" points="930.5551,-76.6266 920.0202,-75.5011 927.5539,-82.9506 930.5551,-76.6266"/>
</g>
<!-- Node32 -->
<g id="node33" class="node">
<title>Node32</title>
<polygon fill="none" stroke="#bfbfbf" points="1194,-56.5 1194,-75.5 1254,-75.5 1254,-56.5 1194,-56.5"/>
<text text-anchor="middle" x="1224" y="-63.5" font-family="FreeSans.ttf" font-size="10.00" fill="#000000">iostream</text>
</g>
<!-- Node31&#45;&gt;Node32 -->
<g id="edge48" class="edge">
<title>Node31&#45;&gt;Node32</title>
<path fill="none" stroke="#191970" d="M1053.4127,-112.3733C1089.7389,-102.4982 1146.1462,-87.1641 1184.046,-76.8613"/>
<polygon fill="#191970" stroke="#191970" points="1185.0038,-80.228 1193.7354,-74.2273 1183.1675,-73.4732 1185.0038,-80.228"/>
</g>
<!-- Node35&#45;&gt;Node5 -->
<g id="edge80" class="edge">
<title>Node35&#45;&gt;Node5</title>
<path fill="none" stroke="#191970" d="M742.2519,-466.1304C627.9808,-461.2046 425.3747,-449.0427 357,-423 201.3858,-363.7293 176.2968,-289.0702 121,-132 115.7388,-117.0555 114.1098,-99.1246 113.7291,-85.7265"/>
<polygon fill="#191970" stroke="#191970" points="117.2289,-85.6757 113.6506,-75.7034 110.2291,-85.7306 117.2289,-85.6757"/>
</g>
<!-- Node35&#45;&gt;Node11 -->
<g id="edge61" class="edge">
<title>Node35&#45;&gt;Node11</title>
<path fill="none" stroke="#191970" d="M800.2039,-459.3762C729.3768,-429.4751 512.9832,-338.1203 430.9678,-303.4958"/>
<polygon fill="#191970" stroke="#191970" points="432.2248,-300.2274 421.6509,-299.5625 429.5023,-306.6763 432.2248,-300.2274"/>
</g>
<!-- Node35&#45;&gt;Node21 -->
<g id="edge63" class="edge">
<title>Node35&#45;&gt;Node21</title>
<path fill="none" stroke="#191970" d="M742.4312,-465.6601C621.4155,-459.9079 403.9448,-446.4342 377,-423 360.8156,-408.9243 357.2925,-383.4674 357.0145,-365.6923"/>
<polygon fill="#191970" stroke="#191970" points="360.5163,-365.6112 357.1881,-355.5527 353.5173,-365.4913 360.5163,-365.6112"/>
</g>
<!-- Node35&#45;&gt;Node22 -->
<g id="edge79" class="edge">
<title>Node35&#45;&gt;Node22</title>
<path fill="none" stroke="#191970" d="M812.4852,-459.3484C789.6865,-438.4212 735.4747,-388.6596 707.0686,-362.5854"/>
<polygon fill="#191970" stroke="#191970" points="709.1997,-359.7906 699.4659,-355.6068 704.4661,-364.9475 709.1997,-359.7906"/>
</g>
<!-- Node35&#45;&gt;Node25 -->
<g id="edge62" class="edge">
<title>Node35&#45;&gt;Node25</title>
<path fill="none" stroke="#191970" d="M903.6275,-459.5808C1014.186,-446.6171 1199.6703,-424.6758 1203,-423 1245.1234,-401.8004 1276,-393.1572 1276,-346 1276,-346 1276,-346 1276,-234 1276,-175.8389 1217.9312,-187.1122 1163,-168 1141.1381,-160.3936 1015.8072,-143.8298 927.6034,-132.7957"/>
<polygon fill="#191970" stroke="#191970" points="927.9352,-129.31 917.5789,-131.5454 927.0688,-136.2562 927.9352,-129.31"/>
</g>
<!-- Node35&#45;&gt;Node31 -->
<g id="edge64" class="edge">
<title>Node35&#45;&gt;Node31</title>
<path fill="none" stroke="#191970" d="M903.5656,-459.6112C905.394,-459.4048 907.2075,-459.2008 909,-459 983.188,-450.6887 1176.3294,-456.5853 1243,-423 1284.5731,-402.0575 1314,-392.5501 1314,-346 1314,-346 1314,-346 1314,-234 1314,-185.2607 1171.8389,-150.2852 1084.5571,-133.4045"/>
<polygon fill="#191970" stroke="#191970" points="1085.1995,-129.964 1074.7215,-131.5337 1083.8914,-136.8407 1085.1995,-129.964"/>
</g>
<!-- Node35&#45;&gt;Node34 -->
<g id="edge60" class="edge">
<title>Node35&#45;&gt;Node34</title>
<path fill="none" stroke="#191970" d="M903.5836,-460.4201C908.4608,-459.9311 913.2954,-459.4541 918,-459 1100.077,-441.4247 1148.2335,-456.8368 1328,-423 1332.6989,-422.1155 1337.5786,-420.9874 1342.3902,-419.7441"/>
<polygon fill="#191970" stroke="#191970" points="1343.3804,-423.1018 1352.0916,-417.0714 1341.5211,-416.3532 1343.3804,-423.1018"/>
</g>
<!-- Node36 -->
<g id="node37" class="node">
<title>Node36</title>
<g id="a_node37"><a xlink:href="SpatialMotionVector_8h.html" target="_top" xlink:title="iDynTree/Core/SpatialMotion\lVector.h">
<polygon fill="none" stroke="#000000" points="1038.5,-392.5 1038.5,-422.5 1193.5,-422.5 1193.5,-392.5 1038.5,-392.5"/>
<text text-anchor="start" x="1046.5" y="-410.5" font-family="FreeSans.ttf" font-size="10.00" fill="#000000">iDynTree/Core/SpatialMotion</text>
<text text-anchor="middle" x="1116" y="-399.5" font-family="FreeSans.ttf" font-size="10.00" fill="#000000">Vector.h</text>
</a>
</g>
</g>
<!-- Node35&#45;&gt;Node36 -->
<g id="edge65" class="edge">
<title>Node35&#45;&gt;Node36</title>
<path fill="none" stroke="#191970" d="M868.4598,-459.4581C912.721,-450.1678 980.9733,-435.8418 1034.6088,-424.5838"/>
<polygon fill="#191970" stroke="#191970" points="1035.3768,-427.999 1044.4446,-422.5193 1033.9388,-421.1482 1035.3768,-427.999"/>
</g>
<!-- Node38 -->
<g id="node39" class="node">
<title>Node38</title>
<g id="a_node39"><a xlink:href="SpatialForceVector_8h.html" target="_top" xlink:title="iDynTree/Core/SpatialForce\lVector.h">
<polygon fill="none" stroke="#000000" points="829,-392.5 829,-422.5 977,-422.5 977,-392.5 829,-392.5"/>
<text text-anchor="start" x="837" y="-410.5" font-family="FreeSans.ttf" font-size="10.00" fill="#000000">iDynTree/Core/SpatialForce</text>
<text text-anchor="middle" x="903" y="-399.5" font-family="FreeSans.ttf" font-size="10.00" fill="#000000">Vector.h</text>
</a>
</g>
</g>
<!-- Node35&#45;&gt;Node38 -->
<g id="edge75" class="edge">
<title>Node35&#45;&gt;Node38</title>
<path fill="none" stroke="#191970" d="M835.5,-459.3906C846.1265,-451.2215 861.7719,-439.1941 875.325,-428.7752"/>
<polygon fill="#191970" stroke="#191970" points="877.6349,-431.4142 883.4298,-422.5446 873.3685,-425.8645 877.6349,-431.4142"/>
</g>
<!-- Node36&#45;&gt;Node25 -->
<g id="edge66" class="edge">
<title>Node36&#45;&gt;Node25</title>
<path fill="none" stroke="#191970" d="M1124.4773,-392.3571C1146.4578,-350.852 1199.7521,-233.9857 1143,-168 1135.9586,-159.8129 1016.3202,-143.5926 929.2658,-132.7684"/>
<polygon fill="#191970" stroke="#191970" points="929.4417,-129.2636 919.0875,-131.5089 928.582,-136.2106 929.4417,-129.2636"/>
</g>
<!-- Node36&#45;&gt;Node29 -->
<g id="edge67" class="edge">
<title>Node36&#45;&gt;Node29</title>
<path fill="none" stroke="#191970" d="M1119.4567,-392.2715C1122.2083,-377.6832 1124.9936,-355.1238 1121,-336 1109.8342,-282.5319 1079.5263,-225.0072 1063.0401,-196.3777"/>
<polygon fill="#191970" stroke="#191970" points="1065.9174,-194.3653 1057.8392,-187.5102 1059.8793,-197.9068 1065.9174,-194.3653"/>
</g>
<!-- Node37 -->
<g id="node38" class="node">
<title>Node37</title>
<g id="a_node38"><a xlink:href="SpatialVector_8h.html" target="_top" xlink:title="iDynTree/Core/SpatialVector.h">
<polygon fill="none" stroke="#000000" points="950.5,-336.5 950.5,-355.5 1111.5,-355.5 1111.5,-336.5 950.5,-336.5"/>
<text text-anchor="middle" x="1031" y="-343.5" font-family="FreeSans.ttf" font-size="10.00" fill="#000000">iDynTree/Core/SpatialVector.h</text>
</a>
</g>
</g>
<!-- Node36&#45;&gt;Node37 -->
<g id="edge68" class="edge">
<title>Node36&#45;&gt;Node37</title>
<path fill="none" stroke="#191970" d="M1094.9888,-392.2977C1082.2066,-383.0495 1065.9054,-371.2551 1052.9552,-361.8853"/>
<polygon fill="#191970" stroke="#191970" points="1054.763,-358.8732 1044.6096,-355.8469 1050.6597,-364.5445 1054.763,-358.8732"/>
</g>
<!-- Node37&#45;&gt;Node5 -->
<g id="edge71" class="edge">
<title>Node37&#45;&gt;Node5</title>
<path fill="none" stroke="#191970" d="M950.1483,-340.8405C864.9938,-334.5511 727.2588,-321.9455 610,-300 515.2647,-282.2699 274.9014,-235.4308 191,-188 159.8071,-170.3661 151.4724,-162.7038 133,-132 124.4519,-117.7918 119.5841,-99.5445 116.9207,-85.8388"/>
<polygon fill="#191970" stroke="#191970" points="120.3027,-84.8508 115.1694,-75.5826 113.4026,-86.029 120.3027,-84.8508"/>
</g>
<!-- Node37&#45;&gt;Node23 -->
<g id="edge69" class="edge">
<title>Node37&#45;&gt;Node23</title>
<path fill="none" stroke="#191970" d="M972.2552,-336.4369C912.1454,-326.6516 818.8149,-311.4582 755.4117,-301.1368"/>
<polygon fill="#191970" stroke="#191970" points="755.935,-297.676 745.5025,-299.5237 754.8102,-304.585 755.935,-297.676"/>
</g>
<!-- Node37&#45;&gt;Node26 -->
<g id="edge74" class="edge">
<title>Node37&#45;&gt;Node26</title>
<path fill="none" stroke="#191970" d="M1047.2743,-336.4685C1087.6599,-311.4791 1187.2382,-240.9449 1159,-168 1141.6525,-123.188 1091.4363,-94.6869 1055.8884,-79.5262"/>
<polygon fill="#191970" stroke="#191970" points="1056.8714,-76.1469 1046.2906,-75.6014 1054.2218,-82.6261 1056.8714,-76.1469"/>
</g>
<!-- Node37&#45;&gt;Node28 -->
<g id="edge70" class="edge">
<title>Node37&#45;&gt;Node28</title>
<path fill="none" stroke="#191970" d="M1009.8557,-336.4509C965.8384,-316.5722 864.2314,-270.6852 813.2816,-247.6756"/>
<polygon fill="#191970" stroke="#191970" points="814.6451,-244.451 804.0908,-243.5249 811.764,-250.8306 814.6451,-244.451"/>
</g>
<!-- Node37&#45;&gt;Node29 -->
<g id="edge72" class="edge">
<title>Node37&#45;&gt;Node29</title>
<path fill="none" stroke="#191970" d="M1032.1892,-336.4862C1035.5088,-309.9293 1044.9294,-234.5651 1049.4793,-198.1655"/>
<polygon fill="#191970" stroke="#191970" points="1053.0041,-198.1848 1050.7715,-187.8279 1046.0581,-197.3165 1053.0041,-198.1848"/>
</g>
<!-- Node37&#45;&gt;Node32 -->
<g id="edge73" class="edge">
<title>Node37&#45;&gt;Node32</title>
<path fill="none" stroke="#191970" d="M1057.0419,-336.3396C1076.2419,-328.4221 1102.3315,-315.9364 1122,-300 1191.1992,-243.9316 1214.6113,-131.6852 1221.4793,-86.0179"/>
<polygon fill="#191970" stroke="#191970" points="1224.9731,-86.3041 1222.8867,-75.9167 1218.0401,-85.338 1224.9731,-86.3041"/>
</g>
<!-- Node38&#45;&gt;Node25 -->
<g id="edge76" class="edge">
<title>Node38&#45;&gt;Node25</title>
<path fill="none" stroke="#191970" d="M906.4936,-392.4082C916.8993,-345.9843 945.5983,-206.1402 923,-168 914.1564,-153.0742 898.5668,-142.6736 883.1998,-135.589"/>
<polygon fill="#191970" stroke="#191970" points="884.2971,-132.2534 873.7227,-131.5956 881.5789,-138.7041 884.2971,-132.2534"/>
</g>
<!-- Node38&#45;&gt;Node29 -->
<g id="edge77" class="edge">
<title>Node38&#45;&gt;Node29</title>
<path fill="none" stroke="#191970" d="M910.6049,-392.4422C918.149,-377.7842 930.2512,-355.002 942,-336 974.3556,-283.6692 1017.0547,-224.9035 1038.4931,-196.0141"/>
<polygon fill="#191970" stroke="#191970" points="1041.4973,-197.84 1044.6665,-187.7303 1035.8845,-193.6572 1041.4973,-197.84"/>
</g>
<!-- Node38&#45;&gt;Node37 -->
<g id="edge78" class="edge">
<title>Node38&#45;&gt;Node37</title>
<path fill="none" stroke="#191970" d="M934.3123,-392.4554C955.0138,-382.509 981.9523,-369.5659 1002.1353,-359.8686"/>
<polygon fill="#191970" stroke="#191970" points="1003.6667,-363.0159 1011.1645,-355.5303 1000.6352,-356.7064 1003.6667,-363.0159"/>
</g>
</g>
</svg>
