<?xml version="1.0" encoding="UTF-8" standalone="no"?>
<!DOCTYPE svg PUBLIC "-//W3C//DTD SVG 1.1//EN"
 "http://www.w3.org/Graphics/SVG/1.1/DTD/svg11.dtd">
<!-- Generated by graphviz version 2.40.1 (20161225.0304)
 -->
<!-- Title: RK4.h Pages: 1 -->
<svg width="1012pt" height="319pt"
 viewBox="0.00 0.00 1012.00 319.00" xmlns="http://www.w3.org/2000/svg" xmlns:xlink="http://www.w3.org/1999/xlink">
<g id="graph0" class="graph" transform="scale(1 1) rotate(0) translate(4 315)">
<title>RK4.h</title>
<!-- Node0 -->
<g id="node1" class="node">
<title>Node0</title>
<polygon fill="#bfbfbf" stroke="#000000" points="481.5,-291.5 481.5,-310.5 526.5,-310.5 526.5,-291.5 481.5,-291.5"/>
<text text-anchor="middle" x="504" y="-298.5" font-family="FreeSans.ttf" font-size="10.00" fill="#000000">RK4.h</text>
</g>
<!-- Node1 -->
<g id="node2" class="node">
<title>Node1</title>
<g id="a_node2"><a xlink:href="FixedStepIntegrator_8h.html" target="_top" xlink:title="iDynTree/Integrators\l/FixedStepIntegrator.h">
<polygon fill="none" stroke="#000000" points="382.5,-224.5 382.5,-254.5 505.5,-254.5 505.5,-224.5 382.5,-224.5"/>
<text text-anchor="start" x="390.5" y="-242.5" font-family="FreeSans.ttf" font-size="10.00" fill="#000000">iDynTree/Integrators</text>
<text text-anchor="middle" x="444" y="-231.5" font-family="FreeSans.ttf" font-size="10.00" fill="#000000">/FixedStepIntegrator.h</text>
</a>
</g>
</g>
<!-- Node0&#45;&gt;Node1 -->
<g id="edge1" class="edge">
<title>Node0&#45;&gt;Node1</title>
<path fill="none" stroke="#191970" d="M494.625,-291.3906C486.9559,-283.5298 475.8013,-272.0964 465.9134,-261.9612"/>
<polygon fill="#191970" stroke="#191970" points="468.1662,-259.2583 458.6777,-254.5446 463.1557,-264.1466 468.1662,-259.2583"/>
</g>
<!-- Node3 -->
<g id="node4" class="node">
<title>Node3</title>
<g id="a_node4"><a xlink:href="VectorDynSize_8h.html" target="_top" xlink:title="iDynTree/Core/VectorDynSize.h">
<polygon fill="none" stroke="#000000" points="270.5,-112.5 270.5,-131.5 437.5,-131.5 437.5,-112.5 270.5,-112.5"/>
<text text-anchor="middle" x="354" y="-119.5" font-family="FreeSans.ttf" font-size="10.00" fill="#000000">iDynTree/Core/VectorDynSize.h</text>
</a>
</g>
</g>
<!-- Node0&#45;&gt;Node3 -->
<g id="edge32" class="edge">
<title>Node0&#45;&gt;Node3</title>
<path fill="none" stroke="#191970" d="M481.2569,-296.0055C447.5911,-288.1388 386.9584,-271.9988 373,-255 346.4605,-222.6797 347.7763,-170.3918 350.9473,-141.9601"/>
<polygon fill="#191970" stroke="#191970" points="354.4652,-142.0519 352.2957,-131.6815 347.5247,-141.1413 354.4652,-142.0519"/>
</g>
<!-- Node23 -->
<g id="node24" class="node">
<title>Node23</title>
<polygon fill="none" stroke="#bfbfbf" points="524,-230 524,-249 604,-249 604,-230 524,-230"/>
<text text-anchor="middle" x="564" y="-237" font-family="FreeSans.ttf" font-size="10.00" fill="#000000">Eigen/Sparse</text>
</g>
<!-- Node0&#45;&gt;Node23 -->
<g id="edge30" class="edge">
<title>Node0&#45;&gt;Node23</title>
<path fill="none" stroke="#191970" d="M513.375,-291.3906C522.4799,-282.0581 536.4974,-267.6902 547.4757,-256.4374"/>
<polygon fill="#191970" stroke="#191970" points="550.0148,-258.8468 554.4928,-249.2449 545.0043,-253.9586 550.0148,-258.8468"/>
</g>
<!-- Node24 -->
<g id="node25" class="node">
<title>Node24</title>
<polygon fill="none" stroke="#bfbfbf" points="622.5,-230 622.5,-249 699.5,-249 699.5,-230 622.5,-230"/>
<text text-anchor="middle" x="661" y="-237" font-family="FreeSans.ttf" font-size="10.00" fill="#000000">Eigen/Dense</text>
</g>
<!-- Node0&#45;&gt;Node24 -->
<g id="edge31" class="edge">
<title>Node0&#45;&gt;Node24</title>
<path fill="none" stroke="#191970" d="M526.8291,-292.0574C553.228,-281.7164 596.9326,-264.5965 627.2563,-252.7181"/>
<polygon fill="#191970" stroke="#191970" points="628.5581,-255.9672 636.5926,-249.0609 626.0049,-249.4494 628.5581,-255.9672"/>
</g>
<!-- Node2 -->
<g id="node3" class="node">
<title>Node2</title>
<g id="a_node3"><a xlink:href="Integrator_8h.html" target="_top" xlink:title="iDynTree/Integrator.h">
<polygon fill="none" stroke="#000000" points="643.5,-168.5 643.5,-187.5 762.5,-187.5 762.5,-168.5 643.5,-168.5"/>
<text text-anchor="middle" x="703" y="-175.5" font-family="FreeSans.ttf" font-size="10.00" fill="#000000">iDynTree/Integrator.h</text>
</a>
</g>
</g>
<!-- Node1&#45;&gt;Node2 -->
<g id="edge2" class="edge">
<title>Node1&#45;&gt;Node2</title>
<path fill="none" stroke="#191970" d="M505.7079,-224.8474C550.7262,-214.1577 610.9665,-199.8535 652.9917,-189.8746"/>
<polygon fill="#191970" stroke="#191970" points="653.8097,-193.2777 662.7306,-187.562 652.1925,-186.4671 653.8097,-193.2777"/>
</g>
<!-- Node1&#45;&gt;Node3 -->
<g id="edge29" class="edge">
<title>Node1&#45;&gt;Node3</title>
<path fill="none" stroke="#191970" d="M432.2341,-224.1389C415.5768,-202.3919 385.1927,-162.7238 367.593,-139.7465"/>
<polygon fill="#191970" stroke="#191970" points="370.1815,-137.37 361.3222,-131.5595 364.6244,-141.6266 370.1815,-137.37"/>
</g>
<!-- Node2&#45;&gt;Node3 -->
<g id="edge3" class="edge">
<title>Node2&#45;&gt;Node3</title>
<path fill="none" stroke="#191970" d="M643.4013,-168.4369C582.4179,-158.6516 487.7308,-143.4582 423.4061,-133.1368"/>
<polygon fill="#191970" stroke="#191970" points="423.7811,-129.6523 413.3529,-131.5237 422.672,-136.5639 423.7811,-129.6523"/>
</g>
<!-- Node14 -->
<g id="node15" class="node">
<title>Node14</title>
<polygon fill="none" stroke="#bfbfbf" points="521,-56.5 521,-75.5 565,-75.5 565,-56.5 521,-56.5"/>
<text text-anchor="middle" x="543" y="-63.5" font-family="FreeSans.ttf" font-size="10.00" fill="#000000">string</text>
</g>
<!-- Node2&#45;&gt;Node14 -->
<g id="edge26" class="edge">
<title>Node2&#45;&gt;Node14</title>
<path fill="none" stroke="#191970" d="M693.9023,-168.1806C680.866,-154.4724 655.7087,-129.3359 631,-112 613.2583,-99.5523 591.7193,-88.2367 574.3914,-79.9433"/>
<polygon fill="#191970" stroke="#191970" points="575.7891,-76.733 565.2488,-75.6587 572.8186,-83.0715 575.7891,-76.733"/>
</g>
<!-- Node15 -->
<g id="node16" class="node">
<title>Node15</title>
<g id="a_node16"><a xlink:href="MatrixDynSize_8h.html" target="_top" xlink:title="iDynTree/Core/MatrixDynSize.h">
<polygon fill="none" stroke="#000000" points="455.5,-112.5 455.5,-131.5 622.5,-131.5 622.5,-112.5 455.5,-112.5"/>
<text text-anchor="middle" x="539" y="-119.5" font-family="FreeSans.ttf" font-size="10.00" fill="#000000">iDynTree/Core/MatrixDynSize.h</text>
</a>
</g>
</g>
<!-- Node2&#45;&gt;Node15 -->
<g id="edge15" class="edge">
<title>Node2&#45;&gt;Node15</title>
<path fill="none" stroke="#191970" d="M674.8074,-168.3733C647.6547,-159.1016 606.4093,-145.0178 576.4975,-134.804"/>
<polygon fill="#191970" stroke="#191970" points="577.4192,-131.4204 566.8247,-131.5011 575.1572,-138.0449 577.4192,-131.4204"/>
</g>
<!-- Node16 -->
<g id="node17" class="node">
<title>Node16</title>
<g id="a_node17"><a xlink:href="SparsityStructure_8h.html" target="_top" xlink:title="iDynTree/SparsityStructure.h">
<polygon fill="none" stroke="#000000" points="678.5,-112.5 678.5,-131.5 833.5,-131.5 833.5,-112.5 678.5,-112.5"/>
<text text-anchor="middle" x="756" y="-119.5" font-family="FreeSans.ttf" font-size="10.00" fill="#000000">iDynTree/SparsityStructure.h</text>
</a>
</g>
</g>
<!-- Node2&#45;&gt;Node16 -->
<g id="edge17" class="edge">
<title>Node2&#45;&gt;Node16</title>
<path fill="none" stroke="#191970" d="M712.2319,-168.2455C719.8317,-160.2155 730.7877,-148.6394 739.8368,-139.0781"/>
<polygon fill="#191970" stroke="#191970" points="742.5421,-141.3115 746.8739,-131.6427 737.458,-136.4998 742.5421,-141.3115"/>
</g>
<!-- Node19 -->
<g id="node20" class="node">
<title>Node19</title>
<polygon fill="none" stroke="#bfbfbf" points="870.5,-56.5 870.5,-75.5 917.5,-75.5 917.5,-56.5 870.5,-56.5"/>
<text text-anchor="middle" x="894" y="-63.5" font-family="FreeSans.ttf" font-size="10.00" fill="#000000">vector</text>
</g>
<!-- Node2&#45;&gt;Node19 -->
<g id="edge25" class="edge">
<title>Node2&#45;&gt;Node19</title>
<path fill="none" stroke="#191970" d="M755.9526,-168.4419C783.707,-161.5811 817.1964,-150.2344 843,-132 860.6557,-119.5234 875.0638,-99.1519 884.0073,-84.3374"/>
<polygon fill="#191970" stroke="#191970" points="887.1145,-85.9554 889.0746,-75.5435 881.0493,-82.4605 887.1145,-85.9554"/>
</g>
<!-- Node21 -->
<g id="node22" class="node">
<title>Node21</title>
<polygon fill="none" stroke="#bfbfbf" points="890,-112.5 890,-131.5 948,-131.5 948,-112.5 890,-112.5"/>
<text text-anchor="middle" x="919" y="-119.5" font-family="FreeSans.ttf" font-size="10.00" fill="#000000">memory</text>
</g>
<!-- Node2&#45;&gt;Node21 -->
<g id="edge27" class="edge">
<title>Node2&#45;&gt;Node21</title>
<path fill="none" stroke="#191970" d="M740.1317,-168.3733C779.1901,-158.247 840.389,-142.3806 880.1002,-132.0851"/>
<polygon fill="#191970" stroke="#191970" points="881.1518,-135.4283 889.9534,-129.5306 879.395,-128.6523 881.1518,-135.4283"/>
</g>
<!-- Node22 -->
<g id="node23" class="node">
<title>Node22</title>
<polygon fill="none" stroke="#bfbfbf" points="966,-112.5 966,-131.5 1004,-131.5 1004,-112.5 966,-112.5"/>
<text text-anchor="middle" x="985" y="-119.5" font-family="FreeSans.ttf" font-size="10.00" fill="#000000">map</text>
</g>
<!-- Node2&#45;&gt;Node22 -->
<g id="edge28" class="edge">
<title>Node2&#45;&gt;Node22</title>
<path fill="none" stroke="#191970" d="M762.6291,-170.0238C812.1629,-162.7602 884.5473,-150.6735 955.8063,-131.9866"/>
<polygon fill="#191970" stroke="#191970" points="957.0919,-135.266 965.8513,-129.3058 955.2869,-128.5027 957.0919,-135.266"/>
</g>
<!-- Node4 -->
<g id="node5" class="node">
<title>Node4</title>
<g id="a_node5"><a xlink:href="Span_8h.html" target="_top" xlink:title="iDynTree/Core/Span.h">
<polygon fill="none" stroke="#000000" points="265.5,-56.5 265.5,-75.5 386.5,-75.5 386.5,-56.5 265.5,-56.5"/>
<text text-anchor="middle" x="326" y="-63.5" font-family="FreeSans.ttf" font-size="10.00" fill="#000000">iDynTree/Core/Span.h</text>
</a>
</g>
</g>
<!-- Node3&#45;&gt;Node4 -->
<g id="edge4" class="edge">
<title>Node3&#45;&gt;Node4</title>
<path fill="none" stroke="#191970" d="M349.1228,-112.2455C345.3487,-104.6973 340.0079,-94.0158 335.4099,-84.8197"/>
<polygon fill="#191970" stroke="#191970" points="338.424,-83.0217 330.8213,-75.6427 332.163,-86.1522 338.424,-83.0217"/>
</g>
<!-- Node3&#45;&gt;Node14 -->
<g id="edge14" class="edge">
<title>Node3&#45;&gt;Node14</title>
<path fill="none" stroke="#191970" d="M386.4903,-112.3733C421.4562,-102.013 476.7011,-85.6441 511.3415,-75.3803"/>
<polygon fill="#191970" stroke="#191970" points="512.3645,-78.7277 520.9581,-72.5309 510.3758,-72.0161 512.3645,-78.7277"/>
</g>
<!-- Node5 -->
<g id="node6" class="node">
<title>Node5</title>
<polygon fill="none" stroke="#bfbfbf" points="428,-.5 428,-19.5 480,-19.5 480,-.5 428,-.5"/>
<text text-anchor="middle" x="454" y="-7.5" font-family="FreeSans.ttf" font-size="10.00" fill="#000000">cassert</text>
</g>
<!-- Node4&#45;&gt;Node5 -->
<g id="edge5" class="edge">
<title>Node4&#45;&gt;Node5</title>
<path fill="none" stroke="#191970" d="M348.004,-56.3733C368.6435,-47.3435 399.7158,-33.7494 422.8889,-23.6111"/>
<polygon fill="#191970" stroke="#191970" points="424.5245,-26.7159 432.2831,-19.5011 421.7187,-20.3028 424.5245,-26.7159"/>
</g>
<!-- Node6 -->
<g id="node7" class="node">
<title>Node6</title>
<polygon fill="none" stroke="#bfbfbf" points="498,-.5 498,-19.5 562,-19.5 562,-.5 498,-.5"/>
<text text-anchor="middle" x="530" y="-7.5" font-family="FreeSans.ttf" font-size="10.00" fill="#000000">algorithm</text>
</g>
<!-- Node4&#45;&gt;Node6 -->
<g id="edge6" class="edge">
<title>Node4&#45;&gt;Node6</title>
<path fill="none" stroke="#191970" d="M361.0689,-56.3733C396.1604,-46.7403 450.175,-31.9128 487.6408,-21.628"/>
<polygon fill="#191970" stroke="#191970" points="489.0231,-24.8781 497.7398,-18.8557 487.17,-18.1278 489.0231,-24.8781"/>
</g>
<!-- Node7 -->
<g id="node8" class="node">
<title>Node7</title>
<polygon fill="none" stroke="#bfbfbf" points="0,-.5 0,-19.5 42,-19.5 42,-.5 0,-.5"/>
<text text-anchor="middle" x="21" y="-7.5" font-family="FreeSans.ttf" font-size="10.00" fill="#000000">array</text>
</g>
<!-- Node4&#45;&gt;Node7 -->
<g id="edge7" class="edge">
<title>Node4&#45;&gt;Node7</title>
<path fill="none" stroke="#191970" d="M265.3613,-58.625C211.567,-51.4578 130.7726,-39.1682 52.2458,-20.0122"/>
<polygon fill="#191970" stroke="#191970" points="52.7333,-16.5271 42.1848,-17.5165 51.0479,-23.3212 52.7333,-16.5271"/>
</g>
<!-- Node8 -->
<g id="node9" class="node">
<title>Node8</title>
<polygon fill="none" stroke="#bfbfbf" points="580.5,-.5 580.5,-19.5 633.5,-19.5 633.5,-.5 580.5,-.5"/>
<text text-anchor="middle" x="607" y="-7.5" font-family="FreeSans.ttf" font-size="10.00" fill="#000000">cstddef</text>
</g>
<!-- Node4&#45;&gt;Node8 -->
<g id="edge8" class="edge">
<title>Node4&#45;&gt;Node8</title>
<path fill="none" stroke="#191970" d="M384.7055,-56.4271C432.2834,-48.3387 501.2337,-35.8726 570.5479,-19.9512"/>
<polygon fill="#191970" stroke="#191970" points="571.3786,-23.3515 580.3287,-17.6817 569.7963,-16.5326 571.3786,-23.3515"/>
</g>
<!-- Node9 -->
<g id="node10" class="node">
<title>Node9</title>
<polygon fill="none" stroke="#bfbfbf" points="60.5,-.5 60.5,-19.5 113.5,-19.5 113.5,-.5 60.5,-.5"/>
<text text-anchor="middle" x="87" y="-7.5" font-family="FreeSans.ttf" font-size="10.00" fill="#000000">iterator</text>
</g>
<!-- Node4&#45;&gt;Node9 -->
<g id="edge9" class="edge">
<title>Node4&#45;&gt;Node9</title>
<path fill="none" stroke="#191970" d="M281.1016,-56.4753C242.0431,-48.0438 183.6943,-35.0998 123.7257,-20.0949"/>
<polygon fill="#191970" stroke="#191970" points="124.2503,-16.6178 113.6984,-17.5701 122.5411,-23.4059 124.2503,-16.6178"/>
</g>
<!-- Node10 -->
<g id="node11" class="node">
<title>Node10</title>
<polygon fill="none" stroke="#bfbfbf" points="132,-.5 132,-19.5 176,-19.5 176,-.5 132,-.5"/>
<text text-anchor="middle" x="154" y="-7.5" font-family="FreeSans.ttf" font-size="10.00" fill="#000000">limits</text>
</g>
<!-- Node4&#45;&gt;Node10 -->
<g id="edge10" class="edge">
<title>Node4&#45;&gt;Node10</title>
<path fill="none" stroke="#191970" d="M296.4321,-56.3733C265.5777,-46.3276 217.3725,-30.6329 185.7343,-20.3321"/>
<polygon fill="#191970" stroke="#191970" points="186.6796,-16.9591 176.0873,-17.1912 184.5124,-23.6152 186.6796,-16.9591"/>
</g>
<!-- Node11 -->
<g id="node12" class="node">
<title>Node11</title>
<polygon fill="none" stroke="#bfbfbf" points="194.5,-.5 194.5,-19.5 259.5,-19.5 259.5,-.5 194.5,-.5"/>
<text text-anchor="middle" x="227" y="-7.5" font-family="FreeSans.ttf" font-size="10.00" fill="#000000">stdexcept</text>
</g>
<!-- Node4&#45;&gt;Node11 -->
<g id="edge11" class="edge">
<title>Node4&#45;&gt;Node11</title>
<path fill="none" stroke="#191970" d="M308.7555,-56.2455C293.4239,-47.5731 270.7801,-34.7645 253.2084,-24.825"/>
<polygon fill="#191970" stroke="#191970" points="254.4741,-21.5198 244.0469,-19.6427 251.0276,-27.6126 254.4741,-21.5198"/>
</g>
<!-- Node12 -->
<g id="node13" class="node">
<title>Node12</title>
<polygon fill="none" stroke="#bfbfbf" points="277.5,-.5 277.5,-19.5 346.5,-19.5 346.5,-.5 277.5,-.5"/>
<text text-anchor="middle" x="312" y="-7.5" font-family="FreeSans.ttf" font-size="10.00" fill="#000000">type_traits</text>
</g>
<!-- Node4&#45;&gt;Node12 -->
<g id="edge12" class="edge">
<title>Node4&#45;&gt;Node12</title>
<path fill="none" stroke="#191970" d="M323.5614,-56.2455C321.7145,-48.8579 319.1172,-38.4689 316.8522,-29.4087"/>
<polygon fill="#191970" stroke="#191970" points="320.2316,-28.4952 314.4107,-19.6427 313.4406,-30.193 320.2316,-28.4952"/>
</g>
<!-- Node13 -->
<g id="node14" class="node">
<title>Node13</title>
<polygon fill="none" stroke="#bfbfbf" points="364.5,-.5 364.5,-19.5 409.5,-19.5 409.5,-.5 364.5,-.5"/>
<text text-anchor="middle" x="387" y="-7.5" font-family="FreeSans.ttf" font-size="10.00" fill="#000000">utility</text>
</g>
<!-- Node4&#45;&gt;Node13 -->
<g id="edge13" class="edge">
<title>Node4&#45;&gt;Node13</title>
<path fill="none" stroke="#191970" d="M336.6254,-56.2455C345.5473,-48.0549 358.488,-36.1749 369.0192,-26.5069"/>
<polygon fill="#191970" stroke="#191970" points="371.4968,-28.9837 376.4964,-19.6427 366.7629,-23.8271 371.4968,-28.9837"/>
</g>
<!-- Node15&#45;&gt;Node14 -->
<g id="edge16" class="edge">
<title>Node15&#45;&gt;Node14</title>
<path fill="none" stroke="#191970" d="M539.6967,-112.2455C540.2187,-104.9382 540.9504,-94.6944 541.5925,-85.7046"/>
<polygon fill="#191970" stroke="#191970" points="545.0898,-85.8667 542.3112,-75.6427 538.1076,-85.3679 545.0898,-85.8667"/>
</g>
<!-- Node16&#45;&gt;Node8 -->
<g id="edge22" class="edge">
<title>Node16&#45;&gt;Node8</title>
<path fill="none" stroke="#191970" d="M712.3693,-112.4469C677.134,-103.8431 631.4367,-90.3713 619,-76 608.1758,-63.492 605.6686,-44.5474 605.5815,-30.1585"/>
<polygon fill="#191970" stroke="#191970" points="609.0912,-29.9141 605.9179,-19.8056 602.0949,-29.6867 609.0912,-29.9141"/>
</g>
<!-- Node16&#45;&gt;Node14 -->
<g id="edge24" class="edge">
<title>Node16&#45;&gt;Node14</title>
<path fill="none" stroke="#191970" d="M719.384,-112.3733C678.6569,-101.6657 613.518,-84.5399 574.8328,-74.3692"/>
<polygon fill="#191970" stroke="#191970" points="575.6932,-70.9765 565.1319,-71.8187 573.9132,-77.7465 575.6932,-70.9765"/>
</g>
<!-- Node17 -->
<g id="node18" class="node">
<title>Node17</title>
<g id="a_node18"><a xlink:href="Utils_8h.html" target="_top" xlink:title="iDynTree/Core/Utils.h">
<polygon fill="none" stroke="#000000" points="628.5,-56.5 628.5,-75.5 747.5,-75.5 747.5,-56.5 628.5,-56.5"/>
<text text-anchor="middle" x="688" y="-63.5" font-family="FreeSans.ttf" font-size="10.00" fill="#000000">iDynTree/Core/Utils.h</text>
</a>
</g>
</g>
<!-- Node16&#45;&gt;Node17 -->
<g id="edge18" class="edge">
<title>Node16&#45;&gt;Node17</title>
<path fill="none" stroke="#191970" d="M744.1553,-112.2455C734.112,-103.9746 719.5005,-91.9416 707.6996,-82.2232"/>
<polygon fill="#191970" stroke="#191970" points="709.6533,-79.298 699.709,-75.6427 705.2033,-84.7015 709.6533,-79.298"/>
</g>
<!-- Node16&#45;&gt;Node19 -->
<g id="edge21" class="edge">
<title>Node16&#45;&gt;Node19</title>
<path fill="none" stroke="#191970" d="M779.723,-112.3733C802.1737,-103.2629 836.0739,-89.5062 861.1255,-79.3404"/>
<polygon fill="#191970" stroke="#191970" points="862.6365,-82.5045 870.5865,-75.5011 860.0043,-76.0182 862.6365,-82.5045"/>
</g>
<!-- Node20 -->
<g id="node21" class="node">
<title>Node20</title>
<polygon fill="none" stroke="#bfbfbf" points="766,-56.5 766,-75.5 852,-75.5 852,-56.5 766,-56.5"/>
<text text-anchor="middle" x="809" y="-63.5" font-family="FreeSans.ttf" font-size="10.00" fill="#000000">unordered_set</text>
</g>
<!-- Node16&#45;&gt;Node20 -->
<g id="edge23" class="edge">
<title>Node16&#45;&gt;Node20</title>
<path fill="none" stroke="#191970" d="M765.2319,-112.2455C772.8317,-104.2155 783.7877,-92.6394 792.8368,-83.0781"/>
<polygon fill="#191970" stroke="#191970" points="795.5421,-85.3115 799.8739,-75.6427 790.458,-80.4998 795.5421,-85.3115"/>
</g>
<!-- Node17&#45;&gt;Node8 -->
<g id="edge19" class="edge">
<title>Node17&#45;&gt;Node8</title>
<path fill="none" stroke="#191970" d="M673.8909,-56.2455C661.5791,-47.7337 643.5042,-35.2375 629.2462,-25.3801"/>
<polygon fill="#191970" stroke="#191970" points="631.1634,-22.4506 620.9474,-19.6427 627.1826,-28.2085 631.1634,-22.4506"/>
</g>
<!-- Node18 -->
<g id="node19" class="node">
<title>Node18</title>
<polygon fill="none" stroke="#bfbfbf" points="652,-.5 652,-19.5 732,-19.5 732,-.5 652,-.5"/>
<text text-anchor="middle" x="692" y="-7.5" font-family="FreeSans.ttf" font-size="10.00" fill="#000000">CoreExport.h</text>
</g>
<!-- Node17&#45;&gt;Node18 -->
<g id="edge20" class="edge">
<title>Node17&#45;&gt;Node18</title>
<path fill="none" stroke="#191970" d="M688.6967,-56.2455C689.2187,-48.9382 689.9504,-38.6944 690.5925,-29.7046"/>
<polygon fill="#191970" stroke="#191970" points="694.0898,-29.8667 691.3112,-19.6427 687.1076,-29.3679 694.0898,-29.8667"/>
</g>
</g>
</svg>
