<?xml version="1.0" encoding="UTF-8" standalone="no"?>
<!DOCTYPE svg PUBLIC "-//W3C//DTD SVG 1.1//EN"
 "http://www.w3.org/Graphics/SVG/1.1/DTD/svg11.dtd">
<!-- Generated by graphviz version 2.40.1 (20161225.0304)
 -->
<!-- Title: RK4.cpp Pages: 1 -->
<svg width="1741pt" height="565pt"
 viewBox="0.00 0.00 1741.00 565.00" xmlns="http://www.w3.org/2000/svg" xmlns:xlink="http://www.w3.org/1999/xlink">
<g id="graph0" class="graph" transform="scale(1 1) rotate(0) translate(4 561)">
<title>RK4.cpp</title>
<!-- Node0 -->
<g id="node1" class="node">
<title>Node0</title>
<polygon fill="#bfbfbf" stroke="#000000" points="323,-537.5 323,-556.5 379,-556.5 379,-537.5 323,-537.5"/>
<text text-anchor="middle" x="351" y="-544.5" font-family="FreeSans.ttf" font-size="10.00" fill="#000000">RK4.cpp</text>
</g>
<!-- Node1 -->
<g id="node2" class="node">
<title>Node1</title>
<g id="a_node2"><a xlink:href="RK4_8h.html" target="_top" xlink:title="iDynTree/Integrators\l/RK4.h">
<polygon fill="none" stroke="#000000" points="443,-291.5 443,-321.5 559,-321.5 559,-291.5 443,-291.5"/>
<text text-anchor="start" x="451" y="-309.5" font-family="FreeSans.ttf" font-size="10.00" fill="#000000">iDynTree/Integrators</text>
<text text-anchor="middle" x="501" y="-298.5" font-family="FreeSans.ttf" font-size="10.00" fill="#000000">/RK4.h</text>
</a>
</g>
</g>
<!-- Node0&#45;&gt;Node1 -->
<g id="edge1" class="edge">
<title>Node0&#45;&gt;Node1</title>
<path fill="none" stroke="#191970" d="M357.066,-537.2742C378.9373,-502.2072 454.1462,-381.6222 486.2673,-330.1214"/>
<polygon fill="#191970" stroke="#191970" points="489.2439,-331.9627 491.5662,-321.6255 483.3044,-328.2582 489.2439,-331.9627"/>
</g>
<!-- Node26 -->
<g id="node27" class="node">
<title>Node26</title>
<g id="a_node27"><a xlink:href="DynamicalSystem_8h.html" target="_top" xlink:title="iDynTree/DynamicalSystem.h">
<polygon fill="none" stroke="#000000" points="196.5,-168.5 196.5,-187.5 357.5,-187.5 357.5,-168.5 196.5,-168.5"/>
<text text-anchor="middle" x="277" y="-175.5" font-family="FreeSans.ttf" font-size="10.00" fill="#000000">iDynTree/DynamicalSystem.h</text>
</a>
</g>
</g>
<!-- Node0&#45;&gt;Node26 -->
<g id="edge34" class="edge">
<title>Node0&#45;&gt;Node26</title>
<path fill="none" stroke="#191970" d="M339.125,-537.3867C317.75,-518.9165 275,-476.1455 275,-429.5 275,-429.5 275,-429.5 275,-306.5 275,-267.9966 275.9088,-223.0114 276.5012,-197.7797"/>
<polygon fill="#191970" stroke="#191970" points="280.0028,-197.7531 276.7467,-187.6711 273.0048,-197.5831 280.0028,-197.7531"/>
</g>
<!-- Node27 -->
<g id="node28" class="node">
<title>Node27</title>
<g id="a_node28"><a xlink:href="EigenHelpers_8h.html" target="_top" xlink:title="iDynTree/Core/EigenHelpers.h">
<polygon fill="none" stroke="#000000" points="947.5,-481.5 947.5,-500.5 1108.5,-500.5 1108.5,-481.5 947.5,-481.5"/>
<text text-anchor="middle" x="1028" y="-488.5" font-family="FreeSans.ttf" font-size="10.00" fill="#000000">iDynTree/Core/EigenHelpers.h</text>
</a>
</g>
</g>
<!-- Node0&#45;&gt;Node27 -->
<g id="edge37" class="edge">
<title>Node0&#45;&gt;Node27</title>
<path fill="none" stroke="#191970" d="M379.2279,-544.665C473.8099,-536.8414 782.2823,-511.3252 937.3233,-498.5006"/>
<polygon fill="#191970" stroke="#191970" points="937.6324,-501.9871 947.3098,-497.6745 937.0553,-495.0109 937.6324,-501.9871"/>
</g>
<!-- Node2 -->
<g id="node3" class="node">
<title>Node2</title>
<g id="a_node3"><a xlink:href="FixedStepIntegrator_8h.html" target="_top" xlink:title="iDynTree/Integrators\l/FixedStepIntegrator.h">
<polygon fill="none" stroke="#000000" points="439.5,-224.5 439.5,-254.5 562.5,-254.5 562.5,-224.5 439.5,-224.5"/>
<text text-anchor="start" x="447.5" y="-242.5" font-family="FreeSans.ttf" font-size="10.00" fill="#000000">iDynTree/Integrators</text>
<text text-anchor="middle" x="501" y="-231.5" font-family="FreeSans.ttf" font-size="10.00" fill="#000000">/FixedStepIntegrator.h</text>
</a>
</g>
</g>
<!-- Node1&#45;&gt;Node2 -->
<g id="edge2" class="edge">
<title>Node1&#45;&gt;Node2</title>
<path fill="none" stroke="#191970" d="M501,-291.2967C501,-283.5013 501,-273.7991 501,-264.9064"/>
<polygon fill="#191970" stroke="#191970" points="504.5001,-264.6431 501,-254.6432 497.5001,-264.6432 504.5001,-264.6431"/>
</g>
<!-- Node4 -->
<g id="node5" class="node">
<title>Node4</title>
<g id="a_node5"><a xlink:href="VectorDynSize_8h.html" target="_top" xlink:title="iDynTree/Core/VectorDynSize.h">
<polygon fill="none" stroke="#000000" points="566.5,-112.5 566.5,-131.5 733.5,-131.5 733.5,-112.5 566.5,-112.5"/>
<text text-anchor="middle" x="650" y="-119.5" font-family="FreeSans.ttf" font-size="10.00" fill="#000000">iDynTree/Core/VectorDynSize.h</text>
</a>
</g>
</g>
<!-- Node1&#45;&gt;Node4 -->
<g id="edge33" class="edge">
<title>Node1&#45;&gt;Node4</title>
<path fill="none" stroke="#191970" d="M527.017,-291.3587C541.4299,-282.109 559.0052,-269.3225 572,-255 604.3769,-219.315 629.7865,-168.0571 642.0194,-140.769"/>
<polygon fill="#191970" stroke="#191970" points="645.2439,-142.1309 646.0497,-131.5667 638.8319,-139.3226 645.2439,-142.1309"/>
</g>
<!-- Node24 -->
<g id="node25" class="node">
<title>Node24</title>
<polygon fill="none" stroke="#bfbfbf" points="341,-230 341,-249 421,-249 421,-230 341,-230"/>
<text text-anchor="middle" x="381" y="-237" font-family="FreeSans.ttf" font-size="10.00" fill="#000000">Eigen/Sparse</text>
</g>
<!-- Node1&#45;&gt;Node24 -->
<g id="edge31" class="edge">
<title>Node1&#45;&gt;Node24</title>
<path fill="none" stroke="#191970" d="M474.0697,-291.4639C454.0259,-280.2728 426.8217,-265.0838 407.0035,-254.0186"/>
<polygon fill="#191970" stroke="#191970" points="408.6386,-250.923 398.2011,-249.1039 405.2261,-257.0349 408.6386,-250.923"/>
</g>
<!-- Node25 -->
<g id="node26" class="node">
<title>Node25</title>
<polygon fill="none" stroke="#bfbfbf" points="619.5,-230 619.5,-249 696.5,-249 696.5,-230 619.5,-230"/>
<text text-anchor="middle" x="658" y="-237" font-family="FreeSans.ttf" font-size="10.00" fill="#000000">Eigen/Dense</text>
</g>
<!-- Node1&#45;&gt;Node25 -->
<g id="edge32" class="edge">
<title>Node1&#45;&gt;Node25</title>
<path fill="none" stroke="#191970" d="M536.2339,-291.4639C563.1698,-279.969 599.9894,-264.2561 626.0689,-253.1266"/>
<polygon fill="#191970" stroke="#191970" points="627.6716,-256.2482 635.4953,-249.1039 624.924,-249.8099 627.6716,-256.2482"/>
</g>
<!-- Node3 -->
<g id="node4" class="node">
<title>Node3</title>
<g id="a_node4"><a xlink:href="Integrator_8h.html" target="_top" xlink:title="iDynTree/Integrator.h">
<polygon fill="none" stroke="#000000" points="59.5,-168.5 59.5,-187.5 178.5,-187.5 178.5,-168.5 59.5,-168.5"/>
<text text-anchor="middle" x="119" y="-175.5" font-family="FreeSans.ttf" font-size="10.00" fill="#000000">iDynTree/Integrator.h</text>
</a>
</g>
</g>
<!-- Node2&#45;&gt;Node3 -->
<g id="edge3" class="edge">
<title>Node2&#45;&gt;Node3</title>
<path fill="none" stroke="#191970" d="M439.478,-225.8007C436.2765,-225.1719 433.1027,-224.5675 430,-224 424.079,-222.9171 278.5719,-201.4736 188.713,-188.2512"/>
<polygon fill="#191970" stroke="#191970" points="188.9857,-184.7538 178.5827,-186.7608 187.9667,-191.6792 188.9857,-184.7538"/>
</g>
<!-- Node2&#45;&gt;Node4 -->
<g id="edge30" class="edge">
<title>Node2&#45;&gt;Node4</title>
<path fill="none" stroke="#191970" d="M515.3762,-224.3606C530.1202,-209.234 554.0769,-185.7391 577,-168 591.8688,-156.4937 609.7046,-145.2131 624.0243,-136.7026"/>
<polygon fill="#191970" stroke="#191970" points="625.9946,-139.605 632.86,-131.5355 622.4609,-133.5623 625.9946,-139.605"/>
</g>
<!-- Node3&#45;&gt;Node4 -->
<g id="edge4" class="edge">
<title>Node3&#45;&gt;Node4</title>
<path fill="none" stroke="#191970" d="M178.6818,-169.0543C181.4921,-168.6862 184.2758,-168.3326 187,-168 347.7997,-148.3658 390.9656,-148.8066 556.3234,-132.0565"/>
<polygon fill="#191970" stroke="#191970" points="556.759,-135.5303 566.3527,-131.0347 556.0495,-128.5664 556.759,-135.5303"/>
</g>
<!-- Node15 -->
<g id="node16" class="node">
<title>Node15</title>
<polygon fill="none" stroke="#bfbfbf" points="777,-56.5 777,-75.5 821,-75.5 821,-56.5 777,-56.5"/>
<text text-anchor="middle" x="799" y="-63.5" font-family="FreeSans.ttf" font-size="10.00" fill="#000000">string</text>
</g>
<!-- Node3&#45;&gt;Node15 -->
<g id="edge27" class="edge">
<title>Node3&#45;&gt;Node15</title>
<path fill="none" stroke="#191970" d="M171.4339,-168.4867C225.0996,-158.4457 304.6616,-142.6305 334,-132 351.9436,-125.4983 353.7442,-117.5652 372,-112 409.5179,-100.5628 673.8409,-76.8496 766.7779,-68.7679"/>
<polygon fill="#191970" stroke="#191970" points="767.3259,-72.2336 776.9864,-67.8832 766.7215,-65.2597 767.3259,-72.2336"/>
</g>
<!-- Node16 -->
<g id="node17" class="node">
<title>Node16</title>
<g id="a_node17"><a xlink:href="MatrixDynSize_8h.html" target="_top" xlink:title="iDynTree/Core/MatrixDynSize.h">
<polygon fill="none" stroke="#000000" points="381.5,-112.5 381.5,-131.5 548.5,-131.5 548.5,-112.5 381.5,-112.5"/>
<text text-anchor="middle" x="465" y="-119.5" font-family="FreeSans.ttf" font-size="10.00" fill="#000000">iDynTree/Core/MatrixDynSize.h</text>
</a>
</g>
</g>
<!-- Node3&#45;&gt;Node16 -->
<g id="edge16" class="edge">
<title>Node3&#45;&gt;Node16</title>
<path fill="none" stroke="#191970" d="M178.0864,-168.4369C238.5456,-158.6516 332.4188,-143.4582 396.1905,-133.1368"/>
<polygon fill="#191970" stroke="#191970" points="396.845,-136.5765 406.1573,-131.5237 395.7266,-129.6664 396.845,-136.5765"/>
</g>
<!-- Node17 -->
<g id="node18" class="node">
<title>Node17</title>
<g id="a_node18"><a xlink:href="SparsityStructure_8h.html" target="_top" xlink:title="iDynTree/SparsityStructure.h">
<polygon fill="none" stroke="#000000" points="170.5,-112.5 170.5,-131.5 325.5,-131.5 325.5,-112.5 170.5,-112.5"/>
<text text-anchor="middle" x="248" y="-119.5" font-family="FreeSans.ttf" font-size="10.00" fill="#000000">iDynTree/SparsityStructure.h</text>
</a>
</g>
</g>
<!-- Node3&#45;&gt;Node17 -->
<g id="edge18" class="edge">
<title>Node3&#45;&gt;Node17</title>
<path fill="none" stroke="#191970" d="M141.1759,-168.3733C161.9766,-159.3435 193.2917,-145.7494 216.6458,-135.6111"/>
<polygon fill="#191970" stroke="#191970" points="218.3343,-138.6938 226.1135,-131.5011 215.5468,-132.2727 218.3343,-138.6938"/>
</g>
<!-- Node20 -->
<g id="node21" class="node">
<title>Node20</title>
<polygon fill="none" stroke="#bfbfbf" points="91.5,-56.5 91.5,-75.5 138.5,-75.5 138.5,-56.5 91.5,-56.5"/>
<text text-anchor="middle" x="115" y="-63.5" font-family="FreeSans.ttf" font-size="10.00" fill="#000000">vector</text>
</g>
<!-- Node3&#45;&gt;Node20 -->
<g id="edge26" class="edge">
<title>Node3&#45;&gt;Node20</title>
<path fill="none" stroke="#191970" d="M109.0638,-168.4913C100.824,-159.8654 89.7233,-146.3368 85,-132 79.3785,-114.9369 89.3517,-96.3837 99.2773,-83.3065"/>
<polygon fill="#191970" stroke="#191970" points="101.9858,-85.5232 105.6285,-75.5743 96.5766,-81.0801 101.9858,-85.5232"/>
</g>
<!-- Node22 -->
<g id="node23" class="node">
<title>Node22</title>
<polygon fill="none" stroke="#bfbfbf" points="94,-112.5 94,-131.5 152,-131.5 152,-112.5 94,-112.5"/>
<text text-anchor="middle" x="123" y="-119.5" font-family="FreeSans.ttf" font-size="10.00" fill="#000000">memory</text>
</g>
<!-- Node3&#45;&gt;Node22 -->
<g id="edge28" class="edge">
<title>Node3&#45;&gt;Node22</title>
<path fill="none" stroke="#191970" d="M119.6967,-168.2455C120.2187,-160.9382 120.9504,-150.6944 121.5925,-141.7046"/>
<polygon fill="#191970" stroke="#191970" points="125.0898,-141.8667 122.3112,-131.6427 118.1076,-141.3679 125.0898,-141.8667"/>
</g>
<!-- Node23 -->
<g id="node24" class="node">
<title>Node23</title>
<polygon fill="none" stroke="#bfbfbf" points="0,-112.5 0,-131.5 38,-131.5 38,-112.5 0,-112.5"/>
<text text-anchor="middle" x="19" y="-119.5" font-family="FreeSans.ttf" font-size="10.00" fill="#000000">map</text>
</g>
<!-- Node3&#45;&gt;Node23 -->
<g id="edge29" class="edge">
<title>Node3&#45;&gt;Node23</title>
<path fill="none" stroke="#191970" d="M101.5813,-168.2455C85.9515,-159.4928 62.7981,-146.527 44.9815,-136.5496"/>
<polygon fill="#191970" stroke="#191970" points="46.6543,-133.475 36.2191,-131.6427 43.234,-139.5825 46.6543,-133.475"/>
</g>
<!-- Node5 -->
<g id="node6" class="node">
<title>Node5</title>
<g id="a_node6"><a xlink:href="Span_8h.html" target="_top" xlink:title="iDynTree/Core/Span.h">
<polygon fill="none" stroke="#000000" points="1156.5,-56.5 1156.5,-75.5 1277.5,-75.5 1277.5,-56.5 1156.5,-56.5"/>
<text text-anchor="middle" x="1217" y="-63.5" font-family="FreeSans.ttf" font-size="10.00" fill="#000000">iDynTree/Core/Span.h</text>
</a>
</g>
</g>
<!-- Node4&#45;&gt;Node5 -->
<g id="edge5" class="edge">
<title>Node4&#45;&gt;Node5</title>
<path fill="none" stroke="#191970" d="M733.6628,-113.737C845.309,-102.7102 1041.0853,-83.3743 1145.9406,-73.0182"/>
<polygon fill="#191970" stroke="#191970" points="1146.4991,-76.4802 1156.1067,-72.0142 1145.811,-69.5141 1146.4991,-76.4802"/>
</g>
<!-- Node4&#45;&gt;Node15 -->
<g id="edge15" class="edge">
<title>Node4&#45;&gt;Node15</title>
<path fill="none" stroke="#191970" d="M675.614,-112.3733C700.9579,-102.848 739.8156,-88.2438 767.1385,-77.9748"/>
<polygon fill="#191970" stroke="#191970" points="768.5072,-81.1995 776.6365,-74.4051 766.0445,-74.647 768.5072,-81.1995"/>
</g>
<!-- Node6 -->
<g id="node7" class="node">
<title>Node6</title>
<polygon fill="none" stroke="#bfbfbf" points="1472,-.5 1472,-19.5 1524,-19.5 1524,-.5 1472,-.5"/>
<text text-anchor="middle" x="1498" y="-7.5" font-family="FreeSans.ttf" font-size="10.00" fill="#000000">cassert</text>
</g>
<!-- Node5&#45;&gt;Node6 -->
<g id="edge6" class="edge">
<title>Node5&#45;&gt;Node6</title>
<path fill="none" stroke="#191970" d="M1276.4761,-56.4809C1324.1573,-48.4851 1392.9598,-36.1337 1461.576,-20.1803"/>
<polygon fill="#191970" stroke="#191970" points="1462.7627,-23.4968 1471.6959,-17.8005 1461.1602,-16.6827 1462.7627,-23.4968"/>
</g>
<!-- Node7 -->
<g id="node8" class="node">
<title>Node7</title>
<polygon fill="none" stroke="#bfbfbf" points="1258,-.5 1258,-19.5 1322,-19.5 1322,-.5 1258,-.5"/>
<text text-anchor="middle" x="1290" y="-7.5" font-family="FreeSans.ttf" font-size="10.00" fill="#000000">algorithm</text>
</g>
<!-- Node5&#45;&gt;Node7 -->
<g id="edge7" class="edge">
<title>Node5&#45;&gt;Node7</title>
<path fill="none" stroke="#191970" d="M1229.7156,-56.2455C1240.602,-47.8943 1256.4883,-35.7076 1269.22,-25.9408"/>
<polygon fill="#191970" stroke="#191970" points="1271.6261,-28.5063 1277.4301,-19.6427 1267.3654,-22.9523 1271.6261,-28.5063"/>
</g>
<!-- Node8 -->
<g id="node9" class="node">
<title>Node8</title>
<polygon fill="none" stroke="#bfbfbf" points="1340,-.5 1340,-19.5 1382,-19.5 1382,-.5 1340,-.5"/>
<text text-anchor="middle" x="1361" y="-7.5" font-family="FreeSans.ttf" font-size="10.00" fill="#000000">array</text>
</g>
<!-- Node5&#45;&gt;Node8 -->
<g id="edge8" class="edge">
<title>Node5&#45;&gt;Node8</title>
<path fill="none" stroke="#191970" d="M1241.7545,-56.3733C1266.2831,-46.8343 1303.9096,-32.2018 1330.3214,-21.9306"/>
<polygon fill="#191970" stroke="#191970" points="1331.7927,-25.1138 1339.8442,-18.2273 1329.2555,-18.5898 1331.7927,-25.1138"/>
</g>
<!-- Node9 -->
<g id="node10" class="node">
<title>Node9</title>
<polygon fill="none" stroke="#bfbfbf" points="890.5,-.5 890.5,-19.5 943.5,-19.5 943.5,-.5 890.5,-.5"/>
<text text-anchor="middle" x="917" y="-7.5" font-family="FreeSans.ttf" font-size="10.00" fill="#000000">cstddef</text>
</g>
<!-- Node5&#45;&gt;Node9 -->
<g id="edge9" class="edge">
<title>Node5&#45;&gt;Node9</title>
<path fill="none" stroke="#191970" d="M1156.375,-57.174C1104.9566,-49.2938 1029.0752,-36.7396 953.7961,-20.0009"/>
<polygon fill="#191970" stroke="#191970" points="954.1867,-16.5014 943.6623,-17.7211 952.6502,-23.3307 954.1867,-16.5014"/>
</g>
<!-- Node10 -->
<g id="node11" class="node">
<title>Node10</title>
<polygon fill="none" stroke="#bfbfbf" points="1400.5,-.5 1400.5,-19.5 1453.5,-19.5 1453.5,-.5 1400.5,-.5"/>
<text text-anchor="middle" x="1427" y="-7.5" font-family="FreeSans.ttf" font-size="10.00" fill="#000000">iterator</text>
</g>
<!-- Node5&#45;&gt;Node10 -->
<g id="edge10" class="edge">
<title>Node5&#45;&gt;Node10</title>
<path fill="none" stroke="#191970" d="M1253.6967,-56.4408C1286.8708,-47.7675 1337.3069,-34.5031 1390.344,-20.1548"/>
<polygon fill="#191970" stroke="#191970" points="1391.5375,-23.4577 1400.2739,-17.4639 1389.7065,-16.7014 1391.5375,-23.4577"/>
</g>
<!-- Node11 -->
<g id="node12" class="node">
<title>Node11</title>
<polygon fill="none" stroke="#bfbfbf" points="962,-.5 962,-19.5 1006,-19.5 1006,-.5 962,-.5"/>
<text text-anchor="middle" x="984" y="-7.5" font-family="FreeSans.ttf" font-size="10.00" fill="#000000">limits</text>
</g>
<!-- Node5&#45;&gt;Node11 -->
<g id="edge11" class="edge">
<title>Node5&#45;&gt;Node11</title>
<path fill="none" stroke="#191970" d="M1170.4423,-56.4212C1129.5399,-47.7504 1068.5287,-34.1952 1016,-20 1015.9017,-19.9734 1015.8032,-19.9468 1015.7046,-19.92"/>
<polygon fill="#191970" stroke="#191970" points="1016.8926,-16.6199 1006.3146,-17.2168 1014.956,-23.3467 1016.8926,-16.6199"/>
</g>
<!-- Node12 -->
<g id="node13" class="node">
<title>Node12</title>
<polygon fill="none" stroke="#bfbfbf" points="1024.5,-.5 1024.5,-19.5 1089.5,-19.5 1089.5,-.5 1024.5,-.5"/>
<text text-anchor="middle" x="1057" y="-7.5" font-family="FreeSans.ttf" font-size="10.00" fill="#000000">stdexcept</text>
</g>
<!-- Node5&#45;&gt;Node12 -->
<g id="edge12" class="edge">
<title>Node5&#45;&gt;Node12</title>
<path fill="none" stroke="#191970" d="M1189.495,-56.3733C1163.1198,-47.1419 1123.1149,-33.1402 1093.9642,-22.9375"/>
<polygon fill="#191970" stroke="#191970" points="1094.7409,-19.5012 1084.1461,-19.5011 1092.4284,-26.1082 1094.7409,-19.5012"/>
</g>
<!-- Node13 -->
<g id="node14" class="node">
<title>Node13</title>
<polygon fill="none" stroke="#bfbfbf" points="1107.5,-.5 1107.5,-19.5 1176.5,-19.5 1176.5,-.5 1107.5,-.5"/>
<text text-anchor="middle" x="1142" y="-7.5" font-family="FreeSans.ttf" font-size="10.00" fill="#000000">type_traits</text>
</g>
<!-- Node5&#45;&gt;Node13 -->
<g id="edge13" class="edge">
<title>Node5&#45;&gt;Node13</title>
<path fill="none" stroke="#191970" d="M1203.936,-56.2455C1192.6438,-47.814 1176.1155,-35.4729 1162.9729,-25.6598"/>
<polygon fill="#191970" stroke="#191970" points="1165.0211,-22.8211 1154.9143,-19.6427 1160.8331,-28.4301 1165.0211,-22.8211"/>
</g>
<!-- Node14 -->
<g id="node15" class="node">
<title>Node14</title>
<polygon fill="none" stroke="#bfbfbf" points="1194.5,-.5 1194.5,-19.5 1239.5,-19.5 1239.5,-.5 1194.5,-.5"/>
<text text-anchor="middle" x="1217" y="-7.5" font-family="FreeSans.ttf" font-size="10.00" fill="#000000">utility</text>
</g>
<!-- Node5&#45;&gt;Node14 -->
<g id="edge14" class="edge">
<title>Node5&#45;&gt;Node14</title>
<path fill="none" stroke="#191970" d="M1217,-56.2455C1217,-48.9382 1217,-38.6944 1217,-29.7046"/>
<polygon fill="#191970" stroke="#191970" points="1220.5001,-29.6426 1217,-19.6427 1213.5001,-29.6427 1220.5001,-29.6426"/>
</g>
<!-- Node16&#45;&gt;Node15 -->
<g id="edge17" class="edge">
<title>Node16&#45;&gt;Node15</title>
<path fill="none" stroke="#191970" d="M522.0371,-112.4369C592.5767,-100.6099 710.2355,-80.8827 766.7583,-71.4058"/>
<polygon fill="#191970" stroke="#191970" points="767.6124,-74.8115 776.896,-69.7061 766.4549,-67.9079 767.6124,-74.8115"/>
</g>
<!-- Node17&#45;&gt;Node9 -->
<g id="edge23" class="edge">
<title>Node17&#45;&gt;Node9</title>
<path fill="none" stroke="#191970" d="M324.5164,-112.467C442.1772,-97.1906 674.5946,-64.5703 880.5589,-19.8959"/>
<polygon fill="#191970" stroke="#191970" points="881.3227,-23.3116 890.3462,-17.7594 879.8298,-16.4727 881.3227,-23.3116"/>
</g>
<!-- Node17&#45;&gt;Node15 -->
<g id="edge25" class="edge">
<title>Node17&#45;&gt;Node15</title>
<path fill="none" stroke="#191970" d="M325.7949,-113.4977C330.6013,-112.9868 335.366,-112.484 340,-112 499.8107,-95.307 691.0541,-76.5252 766.3023,-69.1819"/>
<polygon fill="#191970" stroke="#191970" points="766.9322,-72.6371 776.5453,-68.183 766.2527,-65.6702 766.9322,-72.6371"/>
</g>
<!-- Node18 -->
<g id="node19" class="node">
<title>Node18</title>
<g id="a_node19"><a xlink:href="Utils_8h.html" target="_top" xlink:title="iDynTree/Core/Utils.h">
<polygon fill="none" stroke="#000000" points="951.5,-56.5 951.5,-75.5 1070.5,-75.5 1070.5,-56.5 951.5,-56.5"/>
<text text-anchor="middle" x="1011" y="-63.5" font-family="FreeSans.ttf" font-size="10.00" fill="#000000">iDynTree/Core/Utils.h</text>
</a>
</g>
</g>
<!-- Node17&#45;&gt;Node18 -->
<g id="edge19" class="edge">
<title>Node17&#45;&gt;Node18</title>
<path fill="none" stroke="#191970" d="M325.7142,-115.6295C341.0536,-114.4013 357.0331,-113.1422 372,-112 578.6938,-96.2262 823.1153,-79.0388 940.7783,-70.8566"/>
<polygon fill="#191970" stroke="#191970" points="941.3477,-74.3256 951.081,-70.1406 940.8624,-67.3424 941.3477,-74.3256"/>
</g>
<!-- Node17&#45;&gt;Node20 -->
<g id="edge22" class="edge">
<title>Node17&#45;&gt;Node20</title>
<path fill="none" stroke="#191970" d="M225.1365,-112.3733C203.595,-103.3032 171.1162,-89.6279 147.0044,-79.4755"/>
<polygon fill="#191970" stroke="#191970" points="148.1397,-76.156 137.5652,-75.5011 145.4233,-82.6075 148.1397,-76.156"/>
</g>
<!-- Node21 -->
<g id="node22" class="node">
<title>Node21</title>
<polygon fill="none" stroke="#bfbfbf" points="205,-56.5 205,-75.5 291,-75.5 291,-56.5 205,-56.5"/>
<text text-anchor="middle" x="248" y="-63.5" font-family="FreeSans.ttf" font-size="10.00" fill="#000000">unordered_set</text>
</g>
<!-- Node17&#45;&gt;Node21 -->
<g id="edge24" class="edge">
<title>Node17&#45;&gt;Node21</title>
<path fill="none" stroke="#191970" d="M248,-112.2455C248,-104.9382 248,-94.6944 248,-85.7046"/>
<polygon fill="#191970" stroke="#191970" points="251.5001,-85.6426 248,-75.6427 244.5001,-85.6427 251.5001,-85.6426"/>
</g>
<!-- Node18&#45;&gt;Node9 -->
<g id="edge20" class="edge">
<title>Node18&#45;&gt;Node9</title>
<path fill="none" stroke="#191970" d="M994.6264,-56.2455C980.0692,-47.5731 958.569,-34.7645 941.8848,-24.825"/>
<polygon fill="#191970" stroke="#191970" points="943.5683,-21.7539 933.1859,-19.6427 939.9856,-27.7676 943.5683,-21.7539"/>
</g>
<!-- Node19 -->
<g id="node20" class="node">
<title>Node19</title>
<polygon fill="none" stroke="#bfbfbf" points="792,-.5 792,-19.5 872,-19.5 872,-.5 792,-.5"/>
<text text-anchor="middle" x="832" y="-7.5" font-family="FreeSans.ttf" font-size="10.00" fill="#000000">CoreExport.h</text>
</g>
<!-- Node18&#45;&gt;Node19 -->
<g id="edge21" class="edge">
<title>Node18&#45;&gt;Node19</title>
<path fill="none" stroke="#191970" d="M980.2288,-56.3733C950.335,-47.021 904.7907,-32.7725 872.0783,-22.5385"/>
<polygon fill="#191970" stroke="#191970" points="872.9586,-19.1466 862.3697,-19.5011 870.8685,-25.8273 872.9586,-19.1466"/>
</g>
<!-- Node26&#45;&gt;Node4 -->
<g id="edge35" class="edge">
<title>Node26&#45;&gt;Node4</title>
<path fill="none" stroke="#191970" d="M340.6972,-168.4369C406.1425,-158.6113 507.9063,-143.3331 576.6681,-133.0096"/>
<polygon fill="#191970" stroke="#191970" points="577.1961,-136.4697 586.5656,-131.5237 576.1567,-129.5472 577.1961,-136.4697"/>
</g>
<!-- Node26&#45;&gt;Node17 -->
<g id="edge36" class="edge">
<title>Node26&#45;&gt;Node17</title>
<path fill="none" stroke="#191970" d="M271.9486,-168.2455C267.9981,-160.617 262.3903,-149.7881 257.5942,-140.5267"/>
<polygon fill="#191970" stroke="#191970" points="260.7001,-138.9131 252.9935,-131.6427 254.4841,-142.1321 260.7001,-138.9131"/>
</g>
<!-- Node27&#45;&gt;Node4 -->
<g id="edge39" class="edge">
<title>Node27&#45;&gt;Node4</title>
<path fill="none" stroke="#191970" d="M977.9657,-481.4437C891.9052,-463.5636 725,-421.9346 725,-368 725,-368 725,-368 725,-306.5 725,-241.3568 684.3787,-172.169 662.9263,-140.1725"/>
<polygon fill="#191970" stroke="#191970" points="665.7385,-138.0848 657.1913,-131.824 659.9687,-142.0484 665.7385,-138.0848"/>
</g>
<!-- Node27&#45;&gt;Node16 -->
<g id="edge47" class="edge">
<title>Node27&#45;&gt;Node16</title>
<path fill="none" stroke="#191970" d="M947.2985,-487.6672C876.3594,-482.9992 771.006,-471.8078 683,-445 513.3091,-393.3098 416.2351,-411.1131 332,-255 325.4575,-242.8747 325.9047,-236.3561 332,-224 343.6402,-200.4037 405.2032,-159.2456 440.3489,-137.112"/>
<polygon fill="#191970" stroke="#191970" points="442.4536,-139.9242 449.0836,-131.6602 438.7472,-133.9859 442.4536,-139.9242"/>
</g>
<!-- Node27&#45;&gt;Node18 -->
<g id="edge86" class="edge">
<title>Node27&#45;&gt;Node18</title>
<path fill="none" stroke="#191970" d="M1028.801,-481.3354C1030.3735,-461.8216 1033.8145,-416.3102 1035,-378 1038.4295,-267.1714 1021.1351,-134.7435 1013.982,-85.6046"/>
<polygon fill="#191970" stroke="#191970" points="1017.4403,-85.0648 1012.5096,-75.6873 1010.5162,-86.0929 1017.4403,-85.0648"/>
</g>
<!-- Node27&#45;&gt;Node25 -->
<g id="edge38" class="edge">
<title>Node27&#45;&gt;Node25</title>
<path fill="none" stroke="#191970" d="M947.1479,-483.9218C859.0831,-475.4894 728.3595,-460.5743 711,-445 656.8529,-396.4211 654.7016,-300.5404 656.551,-259.2153"/>
<polygon fill="#191970" stroke="#191970" points="660.0532,-259.277 657.1388,-249.0909 653.065,-258.8712 660.0532,-259.277"/>
</g>
<!-- Node28 -->
<g id="node29" class="node">
<title>Node28</title>
<g id="a_node29"><a xlink:href="VectorFixSize_8h.html" target="_top" xlink:title="iDynTree/Core/VectorFixSize.h">
<polygon fill="none" stroke="#000000" points="1266.5,-112.5 1266.5,-131.5 1427.5,-131.5 1427.5,-112.5 1266.5,-112.5"/>
<text text-anchor="middle" x="1347" y="-119.5" font-family="FreeSans.ttf" font-size="10.00" fill="#000000">iDynTree/Core/VectorFixSize.h</text>
</a>
</g>
</g>
<!-- Node27&#45;&gt;Node28 -->
<g id="edge40" class="edge">
<title>Node27&#45;&gt;Node28</title>
<path fill="none" stroke="#191970" d="M1074.5911,-481.4696C1157.0307,-463.2571 1320,-420.6018 1320,-368 1320,-368 1320,-368 1320,-306.5 1320,-245.7132 1334.5262,-174.837 1342.269,-141.3761"/>
<polygon fill="#191970" stroke="#191970" points="1345.7016,-142.0693 1344.6039,-131.5315 1338.8905,-140.4538 1345.7016,-142.0693"/>
</g>
<!-- Node31 -->
<g id="node32" class="node">
<title>Node31</title>
<g id="a_node32"><a xlink:href="MatrixFixSize_8h.html" target="_top" xlink:title="iDynTree/Core/MatrixFixSize.h">
<polygon fill="none" stroke="#000000" points="1445.5,-112.5 1445.5,-131.5 1606.5,-131.5 1606.5,-112.5 1445.5,-112.5"/>
<text text-anchor="middle" x="1526" y="-119.5" font-family="FreeSans.ttf" font-size="10.00" fill="#000000">iDynTree/Core/MatrixFixSize.h</text>
</a>
</g>
</g>
<!-- Node27&#45;&gt;Node31 -->
<g id="edge48" class="edge">
<title>Node27&#45;&gt;Node31</title>
<path fill="none" stroke="#191970" d="M1108.6418,-490.3614C1274.7509,-488.3362 1643.3096,-479.9157 1688,-445 1716.3533,-422.8481 1713,-403.9808 1713,-368 1713,-368 1713,-368 1713,-239.5 1713,-179.2203 1642.4741,-148.6642 1588.0451,-134.0581"/>
<polygon fill="#191970" stroke="#191970" points="1588.6453,-130.599 1578.0899,-131.5128 1586.9113,-137.3809 1588.6453,-130.599"/>
</g>
<!-- Node33 -->
<g id="node34" class="node">
<title>Node33</title>
<g id="a_node34"><a xlink:href="SpatialMotionVector_8h.html" target="_top" xlink:title="iDynTree/Core/SpatialMotion\lVector.h">
<polygon fill="none" stroke="#000000" points="1348.5,-414.5 1348.5,-444.5 1503.5,-444.5 1503.5,-414.5 1348.5,-414.5"/>
<text text-anchor="start" x="1356.5" y="-432.5" font-family="FreeSans.ttf" font-size="10.00" fill="#000000">iDynTree/Core/SpatialMotion</text>
<text text-anchor="middle" x="1426" y="-421.5" font-family="FreeSans.ttf" font-size="10.00" fill="#000000">Vector.h</text>
</a>
</g>
</g>
<!-- Node27&#45;&gt;Node33 -->
<g id="edge55" class="edge">
<title>Node27&#45;&gt;Node33</title>
<path fill="none" stroke="#191970" d="M1093.7124,-481.465C1155.7132,-472.3873 1251.2385,-458.1913 1334,-445 1335.3046,-444.7921 1336.6195,-444.5816 1337.9427,-444.3691"/>
<polygon fill="#191970" stroke="#191970" points="1338.9047,-447.7589 1348.2161,-442.7043 1337.785,-440.8491 1338.9047,-447.7589"/>
</g>
<!-- Node40 -->
<g id="node41" class="node">
<title>Node40</title>
<g id="a_node41"><a xlink:href="SpatialForceVector_8h.html" target="_top" xlink:title="iDynTree/Core/SpatialForce\lVector.h">
<polygon fill="none" stroke="#000000" points="1531,-414.5 1531,-444.5 1679,-444.5 1679,-414.5 1531,-414.5"/>
<text text-anchor="start" x="1539" y="-432.5" font-family="FreeSans.ttf" font-size="10.00" fill="#000000">iDynTree/Core/SpatialForce</text>
<text text-anchor="middle" x="1605" y="-421.5" font-family="FreeSans.ttf" font-size="10.00" fill="#000000">Vector.h</text>
</a>
</g>
</g>
<!-- Node27&#45;&gt;Node40 -->
<g id="edge77" class="edge">
<title>Node27&#45;&gt;Node40</title>
<path fill="none" stroke="#191970" d="M1108.8681,-485.1292C1205.3092,-477.7125 1371.2809,-463.6342 1513,-445 1515.5293,-444.6674 1518.0956,-444.3171 1520.6848,-443.9525"/>
<polygon fill="#191970" stroke="#191970" points="1521.3656,-447.3903 1530.7552,-442.4825 1520.3545,-440.4637 1521.3656,-447.3903"/>
</g>
<!-- Node41 -->
<g id="node42" class="node">
<title>Node41</title>
<g id="a_node42"><a xlink:href="Transform_8h.html" target="_top" xlink:title="iDynTree/Core/Transform.h">
<polygon fill="none" stroke="#000000" points="880,-358.5 880,-377.5 1026,-377.5 1026,-358.5 880,-358.5"/>
<text text-anchor="middle" x="953" y="-365.5" font-family="FreeSans.ttf" font-size="10.00" fill="#000000">iDynTree/Core/Transform.h</text>
</a>
</g>
</g>
<!-- Node27&#45;&gt;Node41 -->
<g id="edge81" class="edge">
<title>Node27&#45;&gt;Node41</title>
<path fill="none" stroke="#191970" d="M1022.1149,-481.3484C1009.6282,-460.8703 980.3061,-412.782 964.1562,-386.2962"/>
<polygon fill="#191970" stroke="#191970" points="967.0522,-384.3226 958.8578,-377.6068 961.0756,-387.9669 967.0522,-384.3226"/>
</g>
<!-- Node28&#45;&gt;Node5 -->
<g id="edge42" class="edge">
<title>Node28&#45;&gt;Node5</title>
<path fill="none" stroke="#191970" d="M1324.6522,-112.3733C1303.5967,-103.3032 1271.8505,-89.6279 1248.2825,-79.4755"/>
<polygon fill="#191970" stroke="#191970" points="1249.625,-76.243 1239.0562,-75.5011 1246.8556,-82.6719 1249.625,-76.243"/>
</g>
<!-- Node28&#45;&gt;Node6 -->
<g id="edge45" class="edge">
<title>Node28&#45;&gt;Node6</title>
<path fill="none" stroke="#191970" d="M1353.2221,-112.3827C1362.6177,-98.4643 1381.616,-72.564 1403,-56 1420.8881,-42.1439 1443.6213,-30.9527 1462.3642,-23.0792"/>
<polygon fill="#191970" stroke="#191970" points="1463.8054,-26.2716 1471.755,-19.2677 1461.1728,-19.7855 1463.8054,-26.2716"/>
</g>
<!-- Node28&#45;&gt;Node15 -->
<g id="edge43" class="edge">
<title>Node28&#45;&gt;Node15</title>
<path fill="none" stroke="#191970" d="M1266.4352,-113.7671C1143.6111,-101.2157 914.9473,-77.8486 830.985,-69.2685"/>
<polygon fill="#191970" stroke="#191970" points="831.3295,-65.7856 821.0255,-68.2508 830.6178,-72.7493 831.3295,-65.7856"/>
</g>
<!-- Node28&#45;&gt;Node18 -->
<g id="edge41" class="edge">
<title>Node28&#45;&gt;Node18</title>
<path fill="none" stroke="#191970" d="M1289.6213,-112.4369C1231.0303,-102.6717 1140.1244,-87.5207 1078.2034,-77.2006"/>
<polygon fill="#191970" stroke="#191970" points="1078.5814,-73.7154 1068.142,-75.5237 1077.4305,-80.6201 1078.5814,-73.7154"/>
</g>
<!-- Node29 -->
<g id="node30" class="node">
<title>Node29</title>
<polygon fill="none" stroke="#bfbfbf" points="1526,-56.5 1526,-75.5 1582,-75.5 1582,-56.5 1526,-56.5"/>
<text text-anchor="middle" x="1554" y="-63.5" font-family="FreeSans.ttf" font-size="10.00" fill="#000000">sstream</text>
</g>
<!-- Node28&#45;&gt;Node29 -->
<g id="edge44" class="edge">
<title>Node28&#45;&gt;Node29</title>
<path fill="none" stroke="#191970" d="M1382.5846,-112.3733C1419.8299,-102.2972 1478.0834,-86.5378 1516.1535,-76.2387"/>
<polygon fill="#191970" stroke="#191970" points="1517.1076,-79.6065 1525.8466,-73.6164 1515.2795,-72.8494 1517.1076,-79.6065"/>
</g>
<!-- Node30 -->
<g id="node31" class="node">
<title>Node30</title>
<polygon fill="none" stroke="#bfbfbf" points="1412,-56.5 1412,-75.5 1462,-75.5 1462,-56.5 1412,-56.5"/>
<text text-anchor="middle" x="1437" y="-63.5" font-family="FreeSans.ttf" font-size="10.00" fill="#000000">cstring</text>
</g>
<!-- Node28&#45;&gt;Node30 -->
<g id="edge46" class="edge">
<title>Node28&#45;&gt;Node30</title>
<path fill="none" stroke="#191970" d="M1362.6768,-112.2455C1376.4856,-103.6534 1396.8193,-91.0014 1412.7292,-81.1018"/>
<polygon fill="#191970" stroke="#191970" points="1414.8613,-83.8974 1421.5028,-75.6427 1411.1632,-77.954 1414.8613,-83.8974"/>
</g>
<!-- Node31&#45;&gt;Node6 -->
<g id="edge50" class="edge">
<title>Node31&#45;&gt;Node6</title>
<path fill="none" stroke="#191970" d="M1523.6127,-112.4509C1519.0253,-94.1013 1508.8977,-53.5908 1502.8423,-29.3693"/>
<polygon fill="#191970" stroke="#191970" points="1506.2022,-28.3774 1500.3812,-19.5249 1499.4112,-30.0752 1506.2022,-28.3774"/>
</g>
<!-- Node31&#45;&gt;Node15 -->
<g id="edge52" class="edge">
<title>Node31&#45;&gt;Node15</title>
<path fill="none" stroke="#191970" d="M1445.4845,-112.8076C1442.622,-112.5272 1439.7869,-112.2569 1437,-112 1376.4184,-106.4148 952.0661,-76.6855 831.1096,-68.2394"/>
<polygon fill="#191970" stroke="#191970" points="831.2247,-64.739 821.0052,-67.5341 830.7372,-71.722 831.2247,-64.739"/>
</g>
<!-- Node31&#45;&gt;Node18 -->
<g id="edge49" class="edge">
<title>Node31&#45;&gt;Node18</title>
<path fill="none" stroke="#191970" d="M1445.4715,-112.9361C1442.6126,-112.6193 1439.7819,-112.3065 1437,-112 1311.4146,-98.1643 1164.9547,-82.4392 1080.5992,-73.422"/>
<polygon fill="#191970" stroke="#191970" points="1080.9407,-69.9387 1070.6253,-72.3562 1080.1968,-76.899 1080.9407,-69.9387"/>
</g>
<!-- Node31&#45;&gt;Node29 -->
<g id="edge54" class="edge">
<title>Node31&#45;&gt;Node29</title>
<path fill="none" stroke="#191970" d="M1530.8772,-112.2455C1534.6513,-104.6973 1539.9921,-94.0158 1544.5901,-84.8197"/>
<polygon fill="#191970" stroke="#191970" points="1547.837,-86.1522 1549.1787,-75.6427 1541.576,-83.0217 1547.837,-86.1522"/>
</g>
<!-- Node31&#45;&gt;Node30 -->
<g id="edge51" class="edge">
<title>Node31&#45;&gt;Node30</title>
<path fill="none" stroke="#191970" d="M1510.4974,-112.2455C1496.842,-103.6534 1476.7343,-91.0014 1461.0011,-81.1018"/>
<polygon fill="#191970" stroke="#191970" points="1462.6529,-78.006 1452.325,-75.6427 1458.9249,-83.9307 1462.6529,-78.006"/>
</g>
<!-- Node32 -->
<g id="node33" class="node">
<title>Node32</title>
<polygon fill="none" stroke="#bfbfbf" points="1673,-56.5 1673,-75.5 1733,-75.5 1733,-56.5 1673,-56.5"/>
<text text-anchor="middle" x="1703" y="-63.5" font-family="FreeSans.ttf" font-size="10.00" fill="#000000">iostream</text>
</g>
<!-- Node31&#45;&gt;Node32 -->
<g id="edge53" class="edge">
<title>Node31&#45;&gt;Node32</title>
<path fill="none" stroke="#191970" d="M1556.4274,-112.3733C1585.9872,-103.021 1631.0226,-88.7725 1663.3695,-78.5385"/>
<polygon fill="#191970" stroke="#191970" points="1664.4913,-81.8546 1672.9697,-75.5011 1662.3797,-75.1807 1664.4913,-81.8546"/>
</g>
<!-- Node33&#45;&gt;Node28 -->
<g id="edge56" class="edge">
<title>Node33&#45;&gt;Node28</title>
<path fill="none" stroke="#191970" d="M1419.9907,-414.4299C1416.2084,-404.2949 1411.5712,-390.5443 1409,-378 1390.1903,-286.2323 1429.5683,-253.3674 1391,-168 1385.8442,-156.5882 1376.6322,-146.2664 1367.9649,-138.3056"/>
<polygon fill="#191970" stroke="#191970" points="1370.1511,-135.5694 1360.2902,-131.6948 1365.5826,-140.8731 1370.1511,-135.5694"/>
</g>
<!-- Node34 -->
<g id="node35" class="node">
<title>Node34</title>
<g id="a_node35"><a xlink:href="GeomVector3_8h.html" target="_top" xlink:title="iDynTree/Core/GeomVector3.h">
<polygon fill="none" stroke="#000000" points="1443.5,-168.5 1443.5,-187.5 1606.5,-187.5 1606.5,-168.5 1443.5,-168.5"/>
<text text-anchor="middle" x="1525" y="-175.5" font-family="FreeSans.ttf" font-size="10.00" fill="#000000">iDynTree/Core/GeomVector3.h</text>
</a>
</g>
</g>
<!-- Node33&#45;&gt;Node34 -->
<g id="edge57" class="edge">
<title>Node33&#45;&gt;Node34</title>
<path fill="none" stroke="#191970" d="M1420.3845,-414.474C1415.7321,-399.8396 1410.6748,-377.0743 1416,-358 1434.4185,-292.0261 1484.3252,-226.1382 1509.7171,-195.5985"/>
<polygon fill="#191970" stroke="#191970" points="1512.6789,-197.5166 1516.4661,-187.6218 1507.335,-192.9952 1512.6789,-197.5166"/>
</g>
<!-- Node35 -->
<g id="node36" class="node">
<title>Node35</title>
<g id="a_node36"><a xlink:href="SpatialVector_8h.html" target="_top" xlink:title="iDynTree/Core/SpatialVector.h">
<polygon fill="none" stroke="#000000" points="1424.5,-358.5 1424.5,-377.5 1585.5,-377.5 1585.5,-358.5 1424.5,-358.5"/>
<text text-anchor="middle" x="1505" y="-365.5" font-family="FreeSans.ttf" font-size="10.00" fill="#000000">iDynTree/Core/SpatialVector.h</text>
</a>
</g>
</g>
<!-- Node33&#45;&gt;Node35 -->
<g id="edge59" class="edge">
<title>Node33&#45;&gt;Node35</title>
<path fill="none" stroke="#191970" d="M1445.5281,-414.2977C1457.2937,-405.1384 1472.2675,-393.4816 1484.2465,-384.1562"/>
<polygon fill="#191970" stroke="#191970" points="1486.6103,-386.7516 1492.3511,-377.8469 1482.3102,-381.228 1486.6103,-386.7516"/>
</g>
<!-- Node34&#45;&gt;Node28 -->
<g id="edge58" class="edge">
<title>Node34&#45;&gt;Node28</title>
<path fill="none" stroke="#191970" d="M1494.4007,-168.3733C1464.6739,-159.021 1419.3841,-144.7725 1386.8544,-134.5385"/>
<polygon fill="#191970" stroke="#191970" points="1387.7895,-131.1636 1377.2,-131.5011 1385.6887,-137.8409 1387.7895,-131.1636"/>
</g>
<!-- Node35&#45;&gt;Node18 -->
<g id="edge73" class="edge">
<title>Node35&#45;&gt;Node18</title>
<path fill="none" stroke="#191970" d="M1494.2455,-358.1991C1459.8609,-327.2192 1348.7125,-229.8093 1244,-168 1178.3216,-129.2317 1095.2093,-96.3468 1048.0826,-79.0531"/>
<polygon fill="#191970" stroke="#191970" points="1049.1857,-75.7301 1038.5916,-75.603 1046.7941,-82.3089 1049.1857,-75.7301"/>
</g>
<!-- Node35&#45;&gt;Node29 -->
<g id="edge76" class="edge">
<title>Node35&#45;&gt;Node29</title>
<path fill="none" stroke="#191970" d="M1513.6878,-358.4099C1536.0659,-332.9769 1595.3686,-260.7627 1616,-188 1625.2143,-155.5033 1631.1841,-142.1725 1616,-112 1609.3263,-98.7387 1596.8207,-88.3415 1584.7793,-80.8125"/>
<polygon fill="#191970" stroke="#191970" points="1586.177,-77.5783 1575.7658,-75.6143 1582.6799,-83.6422 1586.177,-77.5783"/>
</g>
<!-- Node35&#45;&gt;Node32 -->
<g id="edge75" class="edge">
<title>Node35&#45;&gt;Node32</title>
<path fill="none" stroke="#191970" d="M1521.6505,-358.386C1535.2265,-349.9867 1554.3248,-336.8382 1568,-322 1636.7231,-247.4326 1680.9932,-131.33 1696.6536,-85.5262"/>
<polygon fill="#191970" stroke="#191970" points="1700.0128,-86.517 1699.8663,-75.9232 1693.3744,-84.2961 1700.0128,-86.517"/>
</g>
<!-- Node35&#45;&gt;Node34 -->
<g id="edge74" class="edge">
<title>Node35&#45;&gt;Node34</title>
<path fill="none" stroke="#191970" d="M1506.0193,-358.3167C1509.148,-328.5938 1518.6587,-238.242 1522.9091,-197.8634"/>
<polygon fill="#191970" stroke="#191970" points="1526.3926,-198.2032 1523.9588,-187.8917 1519.4311,-197.4703 1526.3926,-198.2032"/>
</g>
<!-- Node36 -->
<g id="node37" class="node">
<title>Node36</title>
<g id="a_node37"><a xlink:href="Position_8h.html" target="_top" xlink:title="Position.h">
<polygon fill="none" stroke="#000000" points="884.5,-297 884.5,-316 949.5,-316 949.5,-297 884.5,-297"/>
<text text-anchor="middle" x="917" y="-304" font-family="FreeSans.ttf" font-size="10.00" fill="#000000">Position.h</text>
</a>
</g>
</g>
<!-- Node35&#45;&gt;Node36 -->
<g id="edge60" class="edge">
<title>Node35&#45;&gt;Node36</title>
<path fill="none" stroke="#191970" d="M1424.474,-359.5776C1298.0785,-346.3577 1057.4723,-321.1923 959.802,-310.9767"/>
<polygon fill="#191970" stroke="#191970" points="960.0171,-307.4802 949.7073,-309.9209 959.2889,-314.4423 960.0171,-307.4802"/>
</g>
<!-- Node38 -->
<g id="node39" class="node">
<title>Node38</title>
<g id="a_node39"><a xlink:href="Rotation_8h.html" target="_top" xlink:title="iDynTree/Core/Rotation.h">
<polygon fill="none" stroke="#000000" points="1087.5,-230 1087.5,-249 1224.5,-249 1224.5,-230 1087.5,-230"/>
<text text-anchor="middle" x="1156" y="-237" font-family="FreeSans.ttf" font-size="10.00" fill="#000000">iDynTree/Core/Rotation.h</text>
</a>
</g>
</g>
<!-- Node35&#45;&gt;Node38 -->
<g id="edge72" class="edge">
<title>Node35&#45;&gt;Node38</title>
<path fill="none" stroke="#191970" d="M1479.0534,-358.4466C1417.4715,-335.7725 1262.389,-278.6719 1191.8848,-252.7126"/>
<polygon fill="#191970" stroke="#191970" points="1192.7109,-249.2871 1182.1174,-249.1163 1190.2922,-255.856 1192.7109,-249.2871"/>
</g>
<!-- Node36&#45;&gt;Node15 -->
<g id="edge71" class="edge">
<title>Node36&#45;&gt;Node15</title>
<path fill="none" stroke="#191970" d="M905.5126,-296.7757C884.3044,-278.0997 839.2337,-234.8869 818,-188 802.7394,-154.3025 799.4193,-110.5976 798.8762,-85.6899"/>
<polygon fill="#191970" stroke="#191970" points="802.376,-85.6413 798.7891,-75.6721 795.3762,-85.7022 802.376,-85.6413"/>
</g>
<!-- Node37 -->
<g id="node38" class="node">
<title>Node37</title>
<g id="a_node38"><a xlink:href="PositionRaw_8h.html" target="_top" xlink:title="iDynTree/Core/PositionRaw.h">
<polygon fill="none" stroke="#000000" points="827,-168.5 827,-187.5 983,-187.5 983,-168.5 827,-168.5"/>
<text text-anchor="middle" x="905" y="-175.5" font-family="FreeSans.ttf" font-size="10.00" fill="#000000">iDynTree/Core/PositionRaw.h</text>
</a>
</g>
</g>
<!-- Node36&#45;&gt;Node37 -->
<g id="edge61" class="edge">
<title>Node36&#45;&gt;Node37</title>
<path fill="none" stroke="#191970" d="M916.098,-296.8416C914.1435,-275.9114 909.4829,-226.004 906.8655,-197.9762"/>
<polygon fill="#191970" stroke="#191970" points="910.3271,-197.4017 905.9124,-187.7705 903.3575,-198.0526 910.3271,-197.4017"/>
</g>
<!-- Node36&#45;&gt;Node38 -->
<g id="edge64" class="edge">
<title>Node36&#45;&gt;Node38</title>
<path fill="none" stroke="#191970" d="M945.2515,-296.8963C951.4107,-294.8829 957.908,-292.82 964,-291 1012.7197,-276.4451 1068.9563,-261.5854 1107.9203,-251.5927"/>
<polygon fill="#191970" stroke="#191970" points="1109.1122,-254.9006 1117.9345,-249.034 1107.3793,-248.1185 1109.1122,-254.9006"/>
</g>
<!-- Node37&#45;&gt;Node15 -->
<g id="edge63" class="edge">
<title>Node37&#45;&gt;Node15</title>
<path fill="none" stroke="#191970" d="M895.9625,-168.4509C877.9701,-149.4401 837.4651,-106.6423 814.9152,-82.816"/>
<polygon fill="#191970" stroke="#191970" points="817.4305,-80.382 808.0146,-75.5249 812.3465,-85.1937 817.4305,-80.382"/>
</g>
<!-- Node37&#45;&gt;Node28 -->
<g id="edge62" class="edge">
<title>Node37&#45;&gt;Node28</title>
<path fill="none" stroke="#191970" d="M980.2296,-168.4686C1058.2164,-158.588 1179.9183,-143.1687 1261.5009,-132.8325"/>
<polygon fill="#191970" stroke="#191970" points="1262.2612,-136.2642 1271.742,-131.535 1261.3813,-129.3197 1262.2612,-136.2642"/>
</g>
<!-- Node38&#45;&gt;Node15 -->
<g id="edge65" class="edge">
<title>Node38&#45;&gt;Node15</title>
<path fill="none" stroke="#191970" d="M1136.2976,-229.9248C1076.6852,-200.9534 898.0411,-114.1334 827.8085,-80.0007"/>
<polygon fill="#191970" stroke="#191970" points="829.1655,-76.7689 818.6415,-75.5457 826.1057,-83.0647 829.1655,-76.7689"/>
</g>
<!-- Node38&#45;&gt;Node28 -->
<g id="edge70" class="edge">
<title>Node38&#45;&gt;Node28</title>
<path fill="none" stroke="#191970" d="M1172.9905,-229.828C1190.8029,-219.625 1219.5474,-202.9811 1244,-188 1271.7643,-170.99 1303.2151,-150.6826 1323.9792,-137.1281"/>
<polygon fill="#191970" stroke="#191970" points="1325.9968,-139.9906 1332.4486,-131.5868 1322.1643,-134.1329 1325.9968,-139.9906"/>
</g>
<!-- Node38&#45;&gt;Node34 -->
<g id="edge66" class="edge">
<title>Node38&#45;&gt;Node34</title>
<path fill="none" stroke="#191970" d="M1213.2514,-229.9581C1279.3344,-218.9443 1387.8816,-200.8531 1457.8797,-189.1867"/>
<polygon fill="#191970" stroke="#191970" points="1458.6294,-192.6101 1467.9179,-187.5137 1457.4786,-185.7054 1458.6294,-192.6101"/>
</g>
<!-- Node39 -->
<g id="node40" class="node">
<title>Node39</title>
<g id="a_node40"><a xlink:href="RotationRaw_8h.html" target="_top" xlink:title="iDynTree/Core/RotationRaw.h">
<polygon fill="none" stroke="#000000" points="1077,-168.5 1077,-187.5 1235,-187.5 1235,-168.5 1077,-168.5"/>
<text text-anchor="middle" x="1156" y="-175.5" font-family="FreeSans.ttf" font-size="10.00" fill="#000000">iDynTree/Core/RotationRaw.h</text>
</a>
</g>
</g>
<!-- Node38&#45;&gt;Node39 -->
<g id="edge67" class="edge">
<title>Node38&#45;&gt;Node39</title>
<path fill="none" stroke="#191970" d="M1156,-229.8906C1156,-221.3657 1156,-208.6392 1156,-197.9235"/>
<polygon fill="#191970" stroke="#191970" points="1159.5001,-197.7448 1156,-187.7449 1152.5001,-197.7449 1159.5001,-197.7448"/>
</g>
<!-- Node39&#45;&gt;Node15 -->
<g id="edge69" class="edge">
<title>Node39&#45;&gt;Node15</title>
<path fill="none" stroke="#191970" d="M1134.1876,-168.4063C1102.3075,-154.6324 1040.9106,-129.04 987,-112 933.1138,-94.9677 868.8865,-80.4605 831.1646,-72.512"/>
<polygon fill="#191970" stroke="#191970" points="831.7624,-69.0615 821.2586,-70.4474 830.3341,-75.9142 831.7624,-69.0615"/>
</g>
<!-- Node39&#45;&gt;Node31 -->
<g id="edge68" class="edge">
<title>Node39&#45;&gt;Node31</title>
<path fill="none" stroke="#191970" d="M1219.1849,-168.4369C1283.9708,-158.6314 1384.6356,-143.3957 1452.8382,-133.0731"/>
<polygon fill="#191970" stroke="#191970" points="1453.7121,-136.4808 1463.0757,-131.5237 1452.6646,-129.5596 1453.7121,-136.4808"/>
</g>
<!-- Node40&#45;&gt;Node28 -->
<g id="edge78" class="edge">
<title>Node40&#45;&gt;Node28</title>
<path fill="none" stroke="#191970" d="M1620.5353,-414.3826C1641.1578,-392.6164 1675,-350.2348 1675,-306.5 1675,-306.5 1675,-306.5 1675,-239.5 1675,-198.3001 1651.6486,-188.6545 1616,-168 1599.8246,-158.6281 1501.3509,-143.328 1428.2025,-132.9715"/>
<polygon fill="#191970" stroke="#191970" points="1428.4504,-129.472 1418.0602,-131.5441 1427.4748,-136.4036 1428.4504,-129.472"/>
</g>
<!-- Node40&#45;&gt;Node34 -->
<g id="edge79" class="edge">
<title>Node40&#45;&gt;Node34</title>
<path fill="none" stroke="#191970" d="M1603.8965,-414.235C1602.5992,-399.6203 1599.9624,-377.0424 1595,-358 1579.2067,-297.3952 1549.1948,-229.4038 1534.1206,-197.0683"/>
<polygon fill="#191970" stroke="#191970" points="1537.2179,-195.4304 1529.7882,-187.8773 1530.8861,-198.4151 1537.2179,-195.4304"/>
</g>
<!-- Node40&#45;&gt;Node35 -->
<g id="edge80" class="edge">
<title>Node40&#45;&gt;Node35</title>
<path fill="none" stroke="#191970" d="M1580.5372,-414.4554C1564.8765,-404.8241 1544.6468,-392.3828 1529.0644,-382.7996"/>
<polygon fill="#191970" stroke="#191970" points="1530.848,-379.7876 1520.4965,-377.5303 1527.181,-385.7503 1530.848,-379.7876"/>
</g>
<!-- Node41&#45;&gt;Node15 -->
<g id="edge85" class="edge">
<title>Node41&#45;&gt;Node15</title>
<path fill="none" stroke="#191970" d="M930.8342,-358.3461C914.3108,-350.3545 891.94,-337.7712 876,-322 851.1833,-297.4461 851.0846,-285.9847 835,-255 804.6484,-196.5318 793.8553,-177.8419 796,-112 796.283,-103.3113 796.866,-93.714 797.4434,-85.5436"/>
<polygon fill="#191970" stroke="#191970" points="800.9384,-85.7404 798.1987,-75.5059 793.9582,-85.2151 800.9384,-85.7404"/>
</g>
<!-- Node41&#45;&gt;Node31 -->
<g id="edge84" class="edge">
<title>Node41&#45;&gt;Node31</title>
<path fill="none" stroke="#191970" d="M977.9639,-358.3969C1027.2119,-339.3564 1140.239,-295.1813 1234,-255 1330.9247,-213.4629 1444.1696,-160.6322 1496.6013,-135.9221"/>
<polygon fill="#191970" stroke="#191970" points="1498.4105,-138.9385 1505.9604,-131.5054 1495.423,-132.608 1498.4105,-138.9385"/>
</g>
<!-- Node41&#45;&gt;Node36 -->
<g id="edge82" class="edge">
<title>Node41&#45;&gt;Node36</title>
<path fill="none" stroke="#191970" d="M947.375,-358.3906C942.1747,-349.5068 934.3034,-336.0601 927.8767,-325.0811"/>
<polygon fill="#191970" stroke="#191970" points="930.7767,-323.1069 922.7043,-316.2449 924.7356,-326.6432 930.7767,-323.1069"/>
</g>
<!-- Node41&#45;&gt;Node38 -->
<g id="edge83" class="edge">
<title>Node41&#45;&gt;Node38</title>
<path fill="none" stroke="#191970" d="M956.567,-358.4705C963.105,-342.2719 978.529,-309.344 1002,-291 1026.9363,-271.5108 1059.6175,-259.2109 1088.4553,-251.5428"/>
<polygon fill="#191970" stroke="#191970" points="1089.6337,-254.8554 1098.4764,-249.0195 1087.9244,-248.0673 1089.6337,-254.8554"/>
</g>
</g>
</svg>
