<?xml version="1.0" encoding="UTF-8" standalone="no"?>
<!DOCTYPE svg PUBLIC "-//W3C//DTD SVG 1.1//EN"
 "http://www.w3.org/Graphics/SVG/1.1/DTD/svg11.dtd">
<!-- Generated by graphviz version 2.40.1 (20161225.0304)
 -->
<!-- Title: RobotElement.cpp Pages: 1 -->
<svg width="2112pt" height="655pt"
 viewBox="0.00 0.00 2112.00 655.00" xmlns="http://www.w3.org/2000/svg" xmlns:xlink="http://www.w3.org/1999/xlink">
<g id="graph0" class="graph" transform="scale(1 1) rotate(0) translate(4 651)">
<title>RobotElement.cpp</title>
<!-- Node0 -->
<g id="node1" class="node">
<title>Node0</title>
<polygon fill="#bfbfbf" stroke="#000000" points="572.5,-627.5 572.5,-646.5 677.5,-646.5 677.5,-627.5 572.5,-627.5"/>
<text text-anchor="middle" x="625" y="-634.5" font-family="FreeSans.ttf" font-size="10.00" fill="#000000">RobotElement.cpp</text>
</g>
<!-- Node1 -->
<g id="node2" class="node">
<title>Node1</title>
<g id="a_node2"><a xlink:href="RobotElement_8h.html" target="_top" xlink:title="RobotElement.h">
<polygon fill="none" stroke="#000000" points="250,-571.5 250,-590.5 344,-590.5 344,-571.5 250,-571.5"/>
<text text-anchor="middle" x="297" y="-578.5" font-family="FreeSans.ttf" font-size="10.00" fill="#000000">RobotElement.h</text>
</a>
</g>
</g>
<!-- Node0&#45;&gt;Node1 -->
<g id="edge1" class="edge">
<title>Node0&#45;&gt;Node1</title>
<path fill="none" stroke="#191970" d="M572.3011,-628.0026C512.6051,-617.8106 415.6568,-601.2585 354.1718,-590.761"/>
<polygon fill="#191970" stroke="#191970" points="354.6918,-587.2993 344.2454,-589.0663 353.5137,-594.1994 354.6918,-587.2993"/>
</g>
<!-- Node8 -->
<g id="node9" class="node">
<title>Node8</title>
<g id="a_node9"><a xlink:href="JointElement_8h.html" target="_top" xlink:title="JointElement.h">
<polygon fill="none" stroke="#000000" points="490,-459.5 490,-478.5 578,-478.5 578,-459.5 490,-459.5"/>
<text text-anchor="middle" x="534" y="-466.5" font-family="FreeSans.ttf" font-size="10.00" fill="#000000">JointElement.h</text>
</a>
</g>
</g>
<!-- Node0&#45;&gt;Node8 -->
<g id="edge91" class="edge">
<title>Node0&#45;&gt;Node8</title>
<path fill="none" stroke="#191970" d="M619.8467,-627.4862C605.2749,-600.5845 563.5747,-523.5994 544.1656,-487.7673"/>
<polygon fill="#191970" stroke="#191970" points="547.1638,-485.9538 539.3234,-478.8279 541.0088,-489.2878 547.1638,-485.9538"/>
</g>
<!-- Node34 -->
<g id="node31" class="node">
<title>Node34</title>
<g id="a_node31"><a xlink:href="MaterialElement_8h.html" target="_top" xlink:title="MaterialElement.h">
<polygon fill="none" stroke="#000000" points="66,-459.5 66,-478.5 172,-478.5 172,-459.5 66,-459.5"/>
<text text-anchor="middle" x="119" y="-466.5" font-family="FreeSans.ttf" font-size="10.00" fill="#000000">MaterialElement.h</text>
</a>
</g>
</g>
<!-- Node0&#45;&gt;Node34 -->
<g id="edge117" class="edge">
<title>Node0&#45;&gt;Node34</title>
<path fill="none" stroke="#191970" d="M572.1513,-634.4757C481.1741,-629.5034 299.1365,-616.6274 241,-591 190.5183,-568.7469 149.5263,-515.3653 130.4992,-487.1646"/>
<polygon fill="#191970" stroke="#191970" points="133.3211,-485.0855 124.9066,-478.6476 127.4698,-488.9277 133.3211,-485.0855"/>
</g>
<!-- Node38 -->
<g id="node35" class="node">
<title>Node38</title>
<g id="a_node35"><a xlink:href="LinkElement_8h.html" target="_top" xlink:title="LinkElement.h">
<polygon fill="none" stroke="#000000" points="392,-571.5 392,-590.5 478,-590.5 478,-571.5 392,-571.5"/>
<text text-anchor="middle" x="435" y="-578.5" font-family="FreeSans.ttf" font-size="10.00" fill="#000000">LinkElement.h</text>
</a>
</g>
</g>
<!-- Node0&#45;&gt;Node38 -->
<g id="edge77" class="edge">
<title>Node0&#45;&gt;Node38</title>
<path fill="none" stroke="#191970" d="M592.3378,-627.3733C560.4702,-617.9807 511.8469,-603.6496 477.093,-593.4064"/>
<polygon fill="#191970" stroke="#191970" points="477.8175,-589.9711 467.236,-590.5011 475.8385,-596.6855 477.8175,-589.9711"/>
</g>
<!-- Node52 -->
<g id="node45" class="node">
<title>Node52</title>
<g id="a_node45"><a xlink:href="SensorElement_8h.html" target="_top" xlink:title="SensorElement.h">
<polygon fill="none" stroke="#000000" points="623.5,-571.5 623.5,-590.5 722.5,-590.5 722.5,-571.5 623.5,-571.5"/>
<text text-anchor="middle" x="673" y="-578.5" font-family="FreeSans.ttf" font-size="10.00" fill="#000000">SensorElement.h</text>
</a>
</g>
</g>
<!-- Node0&#45;&gt;Node52 -->
<g id="edge92" class="edge">
<title>Node0&#45;&gt;Node52</title>
<path fill="none" stroke="#191970" d="M633.361,-627.2455C640.175,-619.2958 649.9681,-607.8706 658.1152,-598.3656"/>
<polygon fill="#191970" stroke="#191970" points="660.8843,-600.513 664.7349,-590.6427 655.5695,-595.9575 660.8843,-600.513"/>
</g>
<!-- Node53 -->
<g id="node46" class="node">
<title>Node53</title>
<g id="a_node46"><a xlink:href="Sensors_8h.html" target="_top" xlink:title="iDynTree/Sensors/Sensors.h">
<polygon fill="none" stroke="#000000" points="1494.5,-515.5 1494.5,-534.5 1645.5,-534.5 1645.5,-515.5 1494.5,-515.5"/>
<text text-anchor="middle" x="1570" y="-522.5" font-family="FreeSans.ttf" font-size="10.00" fill="#000000">iDynTree/Sensors/Sensors.h</text>
</a>
</g>
</g>
<!-- Node0&#45;&gt;Node53 -->
<g id="edge119" class="edge">
<title>Node0&#45;&gt;Node53</title>
<path fill="none" stroke="#191970" d="M677.6838,-634.6848C744.8839,-630.6323 864.1214,-619.7299 962,-591 982.2239,-585.0637 984.622,-576.3838 1005,-571 1093.0395,-547.7402 1349.0306,-534.0712 1484.156,-528.2814"/>
<polygon fill="#191970" stroke="#191970" points="1484.6227,-531.7648 1494.4657,-527.8449 1484.3266,-524.7711 1484.6227,-531.7648"/>
</g>
<!-- Node55 -->
<g id="node48" class="node">
<title>Node55</title>
<g id="a_node48"><a xlink:href="Model_8h.html" target="_top" xlink:title="iDynTree/Model/Model.h">
<polygon fill="none" stroke="#000000" points="1139.5,-459.5 1139.5,-478.5 1272.5,-478.5 1272.5,-459.5 1139.5,-459.5"/>
<text text-anchor="middle" x="1206" y="-466.5" font-family="FreeSans.ttf" font-size="10.00" fill="#000000">iDynTree/Model/Model.h</text>
</a>
</g>
</g>
<!-- Node0&#45;&gt;Node55 -->
<g id="edge118" class="edge">
<title>Node0&#45;&gt;Node55</title>
<path fill="none" stroke="#191970" d="M657.9018,-627.4862C756.9519,-598.8452 1052.3261,-513.4358 1163.2611,-481.3582"/>
<polygon fill="#191970" stroke="#191970" points="1164.4657,-484.6534 1173.0999,-478.5133 1162.5212,-477.9289 1164.4657,-484.6534"/>
</g>
<!-- Node57 -->
<g id="node50" class="node">
<title>Node57</title>
<polygon fill="none" stroke="#bfbfbf" points="1014,-571.5 1014,-590.5 1100,-590.5 1100,-571.5 1014,-571.5"/>
<text text-anchor="middle" x="1057" y="-578.5" font-family="FreeSans.ttf" font-size="10.00" fill="#000000">unordered_set</text>
</g>
<!-- Node0&#45;&gt;Node57 -->
<g id="edge120" class="edge">
<title>Node0&#45;&gt;Node57</title>
<path fill="none" stroke="#191970" d="M677.595,-631.4149C750.2438,-623.5029 885.3309,-608.0801 1000,-591 1001.2577,-590.8127 1002.5303,-590.6194 1003.8134,-590.4213"/>
<polygon fill="#191970" stroke="#191970" points="1004.4581,-593.8627 1013.7781,-588.8242 1003.3502,-586.9509 1004.4581,-593.8627"/>
</g>
<!-- Node2 -->
<g id="node3" class="node">
<title>Node2</title>
<g id="a_node3"><a xlink:href="XMLElement_8h.html" target="_top" xlink:title="iDynTree/XMLElement.h">
<polygon fill="none" stroke="#000000" points="218,-403.5 218,-422.5 350,-422.5 350,-403.5 218,-403.5"/>
<text text-anchor="middle" x="284" y="-410.5" font-family="FreeSans.ttf" font-size="10.00" fill="#000000">iDynTree/XMLElement.h</text>
</a>
</g>
</g>
<!-- Node1&#45;&gt;Node2 -->
<g id="edge2" class="edge">
<title>Node1&#45;&gt;Node2</title>
<path fill="none" stroke="#191970" d="M277.79,-571.4505C264.4734,-563.663 247.7875,-551.2917 240,-535 222.8764,-499.1767 250.2219,-454.8171 268.8973,-430.6799"/>
<polygon fill="#191970" stroke="#191970" points="271.7347,-432.737 275.287,-422.7554 266.2854,-428.3431 271.7347,-432.737"/>
</g>
<!-- Node6 -->
<g id="node7" class="node">
<title>Node6</title>
<polygon fill="none" stroke="#bfbfbf" points="146.5,-347.5 146.5,-366.5 239.5,-366.5 239.5,-347.5 146.5,-347.5"/>
<text text-anchor="middle" x="193" y="-354.5" font-family="FreeSans.ttf" font-size="10.00" fill="#000000">unordered_map</text>
</g>
<!-- Node1&#45;&gt;Node6 -->
<g id="edge75" class="edge">
<title>Node1&#45;&gt;Node6</title>
<path fill="none" stroke="#191970" d="M249.9148,-576.4978C192.7215,-568.192 98.7245,-544.7487 57,-479 26.4875,-430.9189 105.658,-390.2745 155.678,-370.2832"/>
<polygon fill="#191970" stroke="#191970" points="157.198,-373.4476 165.2522,-366.5642 154.6634,-366.9226 157.198,-373.4476"/>
</g>
<!-- Node7 -->
<g id="node8" class="node">
<title>Node7</title>
<polygon fill="none" stroke="#bfbfbf" points="716.5,-347.5 716.5,-366.5 763.5,-366.5 763.5,-347.5 716.5,-347.5"/>
<text text-anchor="middle" x="740" y="-354.5" font-family="FreeSans.ttf" font-size="10.00" fill="#000000">vector</text>
</g>
<!-- Node1&#45;&gt;Node7 -->
<g id="edge76" class="edge">
<title>Node1&#45;&gt;Node7</title>
<path fill="none" stroke="#191970" d="M341.6306,-571.4976C405.3749,-556.9105 525.1556,-525.695 619,-479 657.5314,-459.8276 668.3367,-454.1823 698,-423 711.4082,-408.9052 722.9605,-389.9214 730.5362,-375.9319"/>
<polygon fill="#191970" stroke="#191970" points="733.7943,-377.2538 735.3194,-366.7693 727.589,-374.0144 733.7943,-377.2538"/>
</g>
<!-- Node1&#45;&gt;Node8 -->
<g id="edge8" class="edge">
<title>Node1&#45;&gt;Node8</title>
<path fill="none" stroke="#191970" d="M317.2065,-571.4509C359.1839,-551.6135 455.9681,-505.8758 504.7572,-482.8194"/>
<polygon fill="#191970" stroke="#191970" points="506.2988,-485.9621 513.8447,-478.5249 503.3079,-479.6332 506.2988,-485.9621"/>
</g>
<!-- Node1&#45;&gt;Node34 -->
<g id="edge57" class="edge">
<title>Node1&#45;&gt;Node34</title>
<path fill="none" stroke="#191970" d="M275.7108,-571.3854C257.1126,-562.6915 229.6266,-549.1227 207,-535 182.4436,-519.6727 156.1155,-499.3575 138.7229,-485.3345"/>
<polygon fill="#191970" stroke="#191970" points="140.4625,-482.2373 130.4989,-478.6348 136.0412,-487.6643 140.4625,-482.2373"/>
</g>
<!-- Node35 -->
<g id="node32" class="node">
<title>Node35</title>
<g id="a_node32"><a xlink:href="VisualElement_8h.html" target="_top" xlink:title="VisualElement.h">
<polygon fill="none" stroke="#000000" points="249,-515.5 249,-534.5 345,-534.5 345,-515.5 249,-515.5"/>
<text text-anchor="middle" x="297" y="-522.5" font-family="FreeSans.ttf" font-size="10.00" fill="#000000">VisualElement.h</text>
</a>
</g>
</g>
<!-- Node1&#45;&gt;Node35 -->
<g id="edge62" class="edge">
<title>Node1&#45;&gt;Node35</title>
<path fill="none" stroke="#191970" d="M297,-571.2455C297,-563.9382 297,-553.6944 297,-544.7046"/>
<polygon fill="#191970" stroke="#191970" points="300.5001,-544.6426 297,-534.6427 293.5001,-544.6427 300.5001,-544.6426"/>
</g>
<!-- Node3 -->
<g id="node4" class="node">
<title>Node3</title>
<polygon fill="none" stroke="#bfbfbf" points="257.5,-347.5 257.5,-366.5 322.5,-366.5 322.5,-347.5 257.5,-347.5"/>
<text text-anchor="middle" x="290" y="-354.5" font-family="FreeSans.ttf" font-size="10.00" fill="#000000">functional</text>
</g>
<!-- Node2&#45;&gt;Node3 -->
<g id="edge3" class="edge">
<title>Node2&#45;&gt;Node3</title>
<path fill="none" stroke="#191970" d="M285.0451,-403.2455C285.828,-395.9382 286.9256,-385.6944 287.8888,-376.7046"/>
<polygon fill="#191970" stroke="#191970" points="291.3815,-376.9587 288.9669,-366.6427 284.4214,-376.2129 291.3815,-376.9587"/>
</g>
<!-- Node4 -->
<g id="node5" class="node">
<title>Node4</title>
<polygon fill="none" stroke="#bfbfbf" points="415,-347.5 415,-366.5 473,-366.5 473,-347.5 415,-347.5"/>
<text text-anchor="middle" x="444" y="-354.5" font-family="FreeSans.ttf" font-size="10.00" fill="#000000">memory</text>
</g>
<!-- Node2&#45;&gt;Node4 -->
<g id="edge4" class="edge">
<title>Node2&#45;&gt;Node4</title>
<path fill="none" stroke="#191970" d="M311.505,-403.3733C337.8802,-394.1419 377.8851,-380.1402 407.0358,-369.9375"/>
<polygon fill="#191970" stroke="#191970" points="408.5716,-373.1082 416.8539,-366.5011 406.2591,-366.5012 408.5716,-373.1082"/>
</g>
<!-- Node5 -->
<g id="node6" class="node">
<title>Node5</title>
<polygon fill="none" stroke="#bfbfbf" points="752,-56.5 752,-75.5 796,-75.5 796,-56.5 752,-56.5"/>
<text text-anchor="middle" x="774" y="-63.5" font-family="FreeSans.ttf" font-size="10.00" fill="#000000">string</text>
</g>
<!-- Node2&#45;&gt;Node5 -->
<g id="edge5" class="edge">
<title>Node2&#45;&gt;Node5</title>
<path fill="none" stroke="#191970" d="M299.0268,-403.3726C324.8734,-385.5016 375,-344.5232 375,-295.5 375,-295.5 375,-295.5 375,-178 375,-144.7973 382.6804,-130.8695 410,-112 437.1096,-93.2755 658.1629,-74.7704 741.9588,-68.3609"/>
<polygon fill="#191970" stroke="#191970" points="742.2243,-71.8509 751.9315,-67.6058 741.6958,-64.8709 742.2243,-71.8509"/>
</g>
<!-- Node2&#45;&gt;Node6 -->
<g id="edge6" class="edge">
<title>Node2&#45;&gt;Node6</title>
<path fill="none" stroke="#191970" d="M268.149,-403.2455C254.1868,-394.6534 233.6272,-382.0014 217.5404,-372.1018"/>
<polygon fill="#191970" stroke="#191970" points="219.0203,-368.9029 208.6693,-366.6427 215.3516,-374.8645 219.0203,-368.9029"/>
</g>
<!-- Node2&#45;&gt;Node7 -->
<g id="edge7" class="edge">
<title>Node2&#45;&gt;Node7</title>
<path fill="none" stroke="#191970" d="M350.3261,-407.6618C431.6382,-400.634 573.4924,-386.8055 694,-367 697.9692,-366.3477 702.1125,-365.5765 706.2163,-364.7564"/>
<polygon fill="#191970" stroke="#191970" points="707.1471,-368.1373 716.2141,-362.6565 705.7081,-361.2868 707.1471,-368.1373"/>
</g>
<!-- Node8&#45;&gt;Node2 -->
<g id="edge9" class="edge">
<title>Node8&#45;&gt;Node2</title>
<path fill="none" stroke="#191970" d="M491.3075,-459.4369C448.4321,-449.8328 382.2995,-435.0191 336.2998,-424.7152"/>
<polygon fill="#191970" stroke="#191970" points="337.0396,-421.2942 326.5164,-422.5237 335.5095,-428.1249 337.0396,-421.2942"/>
</g>
<!-- Node8&#45;&gt;Node4 -->
<g id="edge54" class="edge">
<title>Node8&#45;&gt;Node4</title>
<path fill="none" stroke="#191970" d="M526.3267,-459.4509C511.1829,-440.6054 477.2557,-398.3849 458.0158,-374.4419"/>
<polygon fill="#191970" stroke="#191970" points="460.6462,-372.1276 451.6539,-366.5249 455.1896,-376.5124 460.6462,-372.1276"/>
</g>
<!-- Node8&#45;&gt;Node5 -->
<g id="edge55" class="edge">
<title>Node8&#45;&gt;Node5</title>
<path fill="none" stroke="#191970" d="M531.1479,-459.2491C524.6011,-437.7883 507.1047,-385.3285 482,-347 469.9415,-328.5897 459.116,-329.9942 448,-311 429.8944,-280.0625 424,-269.846 424,-234 424,-234 424,-234 424,-178 424,-146.7875 423.7516,-131.653 448,-112 470.6364,-93.6536 664.041,-75.3493 741.8116,-68.6598"/>
<polygon fill="#191970" stroke="#191970" points="742.3208,-72.1292 751.9881,-67.7942 741.7274,-65.1544 742.3208,-72.1292"/>
</g>
<!-- Node8&#45;&gt;Node6 -->
<g id="edge56" class="edge">
<title>Node8&#45;&gt;Node6</title>
<path fill="none" stroke="#191970" d="M516.5593,-459.4439C490.2501,-445.3663 438.5328,-418.9972 392,-403 365.9612,-394.0483 298.2797,-379.0288 249.0627,-368.5979"/>
<polygon fill="#191970" stroke="#191970" points="249.6803,-365.1512 239.1731,-366.5109 248.2348,-372.0004 249.6803,-365.1512"/>
</g>
<!-- Node9 -->
<g id="node10" class="node">
<title>Node9</title>
<g id="a_node10"><a xlink:href="Axis_8h.html" target="_top" xlink:title="iDynTree/Core/Axis.h">
<polygon fill="none" stroke="#000000" points="567,-347.5 567,-366.5 685,-366.5 685,-347.5 567,-347.5"/>
<text text-anchor="middle" x="626" y="-354.5" font-family="FreeSans.ttf" font-size="10.00" fill="#000000">iDynTree/Core/Axis.h</text>
</a>
</g>
</g>
<!-- Node8&#45;&gt;Node9 -->
<g id="edge10" class="edge">
<title>Node8&#45;&gt;Node9</title>
<path fill="none" stroke="#191970" d="M541.8439,-459.4509C557.3242,-440.6054 592.0053,-398.3849 611.6727,-374.4419"/>
<polygon fill="#191970" stroke="#191970" points="614.5331,-376.4738 618.176,-366.5249 609.124,-372.0306 614.5331,-376.4738"/>
</g>
<!-- Node33 -->
<g id="node30" class="node">
<title>Node33</title>
<g id="a_node30"><a xlink:href="Transform_8h.html" target="_top" xlink:title="iDynTree/Core/Transform.h">
<polygon fill="none" stroke="#000000" points="827,-347.5 827,-366.5 973,-366.5 973,-347.5 827,-347.5"/>
<text text-anchor="middle" x="900" y="-354.5" font-family="FreeSans.ttf" font-size="10.00" fill="#000000">iDynTree/Core/Transform.h</text>
</a>
</g>
</g>
<!-- Node8&#45;&gt;Node33 -->
<g id="edge49" class="edge">
<title>Node8&#45;&gt;Node33</title>
<path fill="none" stroke="#191970" d="M565.205,-459.4509C631.2464,-439.2415 785.1297,-392.1516 858.9992,-369.5467"/>
<polygon fill="#191970" stroke="#191970" points="860.3359,-372.7979 868.874,-366.5249 858.2875,-366.1043 860.3359,-372.7979"/>
</g>
<!-- Node9&#45;&gt;Node5 -->
<g id="edge11" class="edge">
<title>Node9&#45;&gt;Node5</title>
<path fill="none" stroke="#191970" d="M585.8517,-347.4741C564.7918,-340.5745 540.0958,-329.1811 524,-311 500.239,-284.1606 500,-269.846 500,-234 500,-234 500,-234 500,-178 500,-146.7875 500.1675,-132.1553 524,-112 556.5034,-84.5117 681.9903,-72.33 741.8611,-67.9956"/>
<polygon fill="#191970" stroke="#191970" points="742.168,-71.4828 751.9013,-67.2981 741.6828,-64.4997 742.168,-71.4828"/>
</g>
<!-- Node10 -->
<g id="node11" class="node">
<title>Node10</title>
<g id="a_node11"><a xlink:href="Direction_8h.html" target="_top" xlink:title="iDynTree/Core/Direction.h">
<polygon fill="none" stroke="#000000" points="642.5,-168.5 642.5,-187.5 783.5,-187.5 783.5,-168.5 642.5,-168.5"/>
<text text-anchor="middle" x="713" y="-175.5" font-family="FreeSans.ttf" font-size="10.00" fill="#000000">iDynTree/Core/Direction.h</text>
</a>
</g>
</g>
<!-- Node9&#45;&gt;Node10 -->
<g id="edge12" class="edge">
<title>Node9&#45;&gt;Node10</title>
<path fill="none" stroke="#191970" d="M630.6775,-347.3762C644.4854,-318.9669 685.2559,-235.0828 703.7231,-197.0871"/>
<polygon fill="#191970" stroke="#191970" points="707.0758,-198.1954 708.2994,-187.6714 700.7801,-195.1354 707.0758,-198.1954"/>
</g>
<!-- Node12 -->
<g id="node13" class="node">
<title>Node12</title>
<g id="a_node13"><a xlink:href="Utils_8h.html" target="_top" xlink:title="iDynTree/Core/Utils.h">
<polygon fill="none" stroke="#000000" points="1184.5,-56.5 1184.5,-75.5 1303.5,-75.5 1303.5,-56.5 1184.5,-56.5"/>
<text text-anchor="middle" x="1244" y="-63.5" font-family="FreeSans.ttf" font-size="10.00" fill="#000000">iDynTree/Core/Utils.h</text>
</a>
</g>
</g>
<!-- Node9&#45;&gt;Node12 -->
<g id="edge48" class="edge">
<title>Node9&#45;&gt;Node12</title>
<path fill="none" stroke="#191970" d="M622.6807,-347.2311C612.9009,-316.4499 587.6792,-220.4198 634,-168 669.533,-127.7885 1021.5389,-88.1804 1174.092,-72.7535"/>
<polygon fill="#191970" stroke="#191970" points="1174.6857,-76.2116 1184.2854,-71.7287 1173.9855,-69.2467 1174.6857,-76.2116"/>
</g>
<!-- Node26 -->
<g id="node23" class="node">
<title>Node26</title>
<g id="a_node23"><a xlink:href="Position_8h.html" target="_top" xlink:title="iDynTree/Core/Position.h">
<polygon fill="none" stroke="#000000" points="698,-286 698,-305 834,-305 834,-286 698,-286"/>
<text text-anchor="middle" x="766" y="-293" font-family="FreeSans.ttf" font-size="10.00" fill="#000000">iDynTree/Core/Position.h</text>
</a>
</g>
</g>
<!-- Node9&#45;&gt;Node26 -->
<g id="edge29" class="edge">
<title>Node9&#45;&gt;Node26</title>
<path fill="none" stroke="#191970" d="M647.875,-347.3906C671.2996,-337.1005 708.6596,-320.6888 735.0841,-309.0809"/>
<polygon fill="#191970" stroke="#191970" points="736.5307,-312.2683 744.2786,-305.0419 733.7154,-305.8594 736.5307,-312.2683"/>
</g>
<!-- Node10&#45;&gt;Node5 -->
<g id="edge13" class="edge">
<title>Node10&#45;&gt;Node5</title>
<path fill="none" stroke="#191970" d="M718.2008,-168.4509C728.3299,-149.8533 750.8571,-108.4919 763.9805,-84.3964"/>
<polygon fill="#191970" stroke="#191970" points="767.1029,-85.9809 768.8123,-75.5249 760.9556,-82.6328 767.1029,-85.9809"/>
</g>
<!-- Node11 -->
<g id="node12" class="node">
<title>Node11</title>
<g id="a_node12"><a xlink:href="VectorFixSize_8h.html" target="_top" xlink:title="iDynTree/Core/VectorFixSize.h">
<polygon fill="none" stroke="#000000" points="1204.5,-112.5 1204.5,-131.5 1365.5,-131.5 1365.5,-112.5 1204.5,-112.5"/>
<text text-anchor="middle" x="1285" y="-119.5" font-family="FreeSans.ttf" font-size="10.00" fill="#000000">iDynTree/Core/VectorFixSize.h</text>
</a>
</g>
</g>
<!-- Node10&#45;&gt;Node11 -->
<g id="edge14" class="edge">
<title>Node10&#45;&gt;Node11</title>
<path fill="none" stroke="#191970" d="M783.9461,-169.5162C788.7008,-168.99 793.4189,-168.4798 798,-168 972.0038,-149.7775 1015.888,-149.158 1190,-132 1191.4699,-131.8551 1192.9525,-131.7083 1194.4452,-131.5597"/>
<polygon fill="#191970" stroke="#191970" points="1194.8144,-135.0403 1204.4142,-130.5576 1194.1142,-128.0754 1194.8144,-135.0403"/>
</g>
<!-- Node10&#45;&gt;Node12 -->
<g id="edge28" class="edge">
<title>Node10&#45;&gt;Node12</title>
<path fill="none" stroke="#191970" d="M783.9517,-169.568C788.705,-169.0293 793.4212,-168.5021 798,-168 955.2024,-150.7605 1004.0947,-187.9803 1152,-132 1181.0704,-120.9972 1209.3288,-98.4062 1226.6872,-82.7403"/>
<polygon fill="#191970" stroke="#191970" points="1229.3388,-85.0546 1234.2889,-75.6872 1224.5777,-79.9231 1229.3388,-85.0546"/>
</g>
<!-- Node11&#45;&gt;Node5 -->
<g id="edge24" class="edge">
<title>Node11&#45;&gt;Node5</title>
<path fill="none" stroke="#191970" d="M1204.3125,-113.1575C1089.8848,-100.6175 885.586,-78.2286 806.5075,-69.5625"/>
<polygon fill="#191970" stroke="#191970" points="806.5244,-66.0434 796.2026,-68.4332 805.7618,-73.0018 806.5244,-66.0434"/>
</g>
<!-- Node11&#45;&gt;Node12 -->
<g id="edge15" class="edge">
<title>Node11&#45;&gt;Node12</title>
<path fill="none" stroke="#191970" d="M1277.8583,-112.2455C1272.1556,-104.4564 1264.01,-93.3308 1257.1375,-83.9439"/>
<polygon fill="#191970" stroke="#191970" points="1259.7913,-81.6437 1251.0598,-75.6427 1254.1432,-85.7789 1259.7913,-81.6437"/>
</g>
<!-- Node15 -->
<g id="node16" class="node">
<title>Node15</title>
<g id="a_node16"><a xlink:href="Span_8h.html" target="_top" xlink:title="iDynTree/Core/Span.h">
<polygon fill="none" stroke="#ff0000" points="1618.5,-56.5 1618.5,-75.5 1739.5,-75.5 1739.5,-56.5 1618.5,-56.5"/>
<text text-anchor="middle" x="1679" y="-63.5" font-family="FreeSans.ttf" font-size="10.00" fill="#000000">iDynTree/Core/Span.h</text>
</a>
</g>
</g>
<!-- Node11&#45;&gt;Node15 -->
<g id="edge18" class="edge">
<title>Node11&#45;&gt;Node15</title>
<path fill="none" stroke="#191970" d="M1352.3307,-112.458C1415.6257,-103.484 1513.3138,-89.6236 1608.2292,-76.1088"/>
<polygon fill="#191970" stroke="#191970" points="1608.8875,-79.5505 1618.2941,-74.6755 1607.9005,-72.6204 1608.8875,-79.5505"/>
</g>
<!-- Node16 -->
<g id="node17" class="node">
<title>Node16</title>
<polygon fill="none" stroke="#bfbfbf" points="1486,-.5 1486,-19.5 1538,-19.5 1538,-.5 1486,-.5"/>
<text text-anchor="middle" x="1512" y="-7.5" font-family="FreeSans.ttf" font-size="10.00" fill="#000000">cassert</text>
</g>
<!-- Node11&#45;&gt;Node16 -->
<g id="edge26" class="edge">
<title>Node11&#45;&gt;Node16</title>
<path fill="none" stroke="#191970" d="M1291.9844,-112.393C1302.9464,-98.0052 1325.5815,-70.9563 1351,-56 1390.2807,-32.8871 1441.834,-20.831 1475.8949,-14.9577"/>
<polygon fill="#191970" stroke="#191970" points="1476.5661,-18.3945 1485.871,-13.328 1475.4375,-11.4861 1476.5661,-18.3945"/>
</g>
<!-- Node24 -->
<g id="node21" class="node">
<title>Node24</title>
<polygon fill="none" stroke="#bfbfbf" points="1360,-56.5 1360,-75.5 1416,-75.5 1416,-56.5 1360,-56.5"/>
<text text-anchor="middle" x="1388" y="-63.5" font-family="FreeSans.ttf" font-size="10.00" fill="#000000">sstream</text>
</g>
<!-- Node11&#45;&gt;Node24 -->
<g id="edge25" class="edge">
<title>Node11&#45;&gt;Node24</title>
<path fill="none" stroke="#191970" d="M1302.9412,-112.2455C1319.04,-103.4928 1342.8879,-90.527 1361.2391,-80.5496"/>
<polygon fill="#191970" stroke="#191970" points="1363.1507,-83.4942 1370.2644,-75.6427 1359.8071,-77.3444 1363.1507,-83.4942"/>
</g>
<!-- Node25 -->
<g id="node22" class="node">
<title>Node25</title>
<polygon fill="none" stroke="#bfbfbf" points="1434,-56.5 1434,-75.5 1484,-75.5 1484,-56.5 1434,-56.5"/>
<text text-anchor="middle" x="1459" y="-63.5" font-family="FreeSans.ttf" font-size="10.00" fill="#000000">cstring</text>
</g>
<!-- Node11&#45;&gt;Node25 -->
<g id="edge27" class="edge">
<title>Node11&#45;&gt;Node25</title>
<path fill="none" stroke="#191970" d="M1314.9117,-112.3733C1345.2481,-102.6098 1392.1648,-87.5102 1424.1607,-77.2127"/>
<polygon fill="#191970" stroke="#191970" points="1425.5378,-80.4463 1433.9847,-74.0509 1423.3932,-73.7829 1425.5378,-80.4463"/>
</g>
<!-- Node13 -->
<g id="node14" class="node">
<title>Node13</title>
<polygon fill="none" stroke="#bfbfbf" points="1358.5,-.5 1358.5,-19.5 1411.5,-19.5 1411.5,-.5 1358.5,-.5"/>
<text text-anchor="middle" x="1385" y="-7.5" font-family="FreeSans.ttf" font-size="10.00" fill="#000000">cstddef</text>
</g>
<!-- Node12&#45;&gt;Node13 -->
<g id="edge16" class="edge">
<title>Node12&#45;&gt;Node13</title>
<path fill="none" stroke="#191970" d="M1268.2388,-56.3733C1291.2789,-47.2226 1326.1214,-33.3844 1351.7501,-23.2057"/>
<polygon fill="#191970" stroke="#191970" points="1353.0756,-26.4452 1361.0775,-19.5011 1350.4918,-19.9395 1353.0756,-26.4452"/>
</g>
<!-- Node14 -->
<g id="node15" class="node">
<title>Node14</title>
<polygon fill="none" stroke="#bfbfbf" points="1204,-.5 1204,-19.5 1284,-19.5 1284,-.5 1204,-.5"/>
<text text-anchor="middle" x="1244" y="-7.5" font-family="FreeSans.ttf" font-size="10.00" fill="#000000">CoreExport.h</text>
</g>
<!-- Node12&#45;&gt;Node14 -->
<g id="edge17" class="edge">
<title>Node12&#45;&gt;Node14</title>
<path fill="none" stroke="#191970" d="M1244,-56.2455C1244,-48.9382 1244,-38.6944 1244,-29.7046"/>
<polygon fill="#191970" stroke="#191970" points="1247.5001,-29.6426 1244,-19.6427 1240.5001,-29.6427 1247.5001,-29.6426"/>
</g>
<!-- Node15&#45;&gt;Node13 -->
<g id="edge22" class="edge">
<title>Node15&#45;&gt;Node13</title>
<path fill="none" stroke="#191970" d="M1628.7937,-56.4369C1569.9061,-45.2202 1473.7126,-26.8976 1421.4997,-16.9523"/>
<polygon fill="#191970" stroke="#191970" points="1422.1459,-13.5126 1411.6676,-15.0795 1420.836,-20.3889 1422.1459,-13.5126"/>
</g>
<!-- Node15&#45;&gt;Node16 -->
<g id="edge19" class="edge">
<title>Node15&#45;&gt;Node16</title>
<path fill="none" stroke="#191970" d="M1650.2917,-56.3733C1621.972,-46.8769 1578.5976,-32.3321 1547.989,-22.0682"/>
<polygon fill="#191970" stroke="#191970" points="1548.7321,-18.6259 1538.1382,-18.7649 1546.5066,-25.2627 1548.7321,-18.6259"/>
</g>
<!-- Node17 -->
<g id="node18" class="node">
<title>Node17</title>
<polygon fill="none" stroke="#bfbfbf" points="1611,-.5 1611,-19.5 1675,-19.5 1675,-.5 1611,-.5"/>
<text text-anchor="middle" x="1643" y="-7.5" font-family="FreeSans.ttf" font-size="10.00" fill="#000000">algorithm</text>
</g>
<!-- Node15&#45;&gt;Node17 -->
<g id="edge20" class="edge">
<title>Node15&#45;&gt;Node17</title>
<path fill="none" stroke="#191970" d="M1672.7293,-56.2455C1667.7736,-48.5367 1660.717,-37.5598 1654.7224,-28.2348"/>
<polygon fill="#191970" stroke="#191970" points="1657.5506,-26.1618 1649.1989,-19.6427 1651.6624,-29.9471 1657.5506,-26.1618"/>
</g>
<!-- Node18 -->
<g id="node19" class="node">
<title>Node18</title>
<polygon fill="none" stroke="#bfbfbf" points="1693,-.5 1693,-19.5 1735,-19.5 1735,-.5 1693,-.5"/>
<text text-anchor="middle" x="1714" y="-7.5" font-family="FreeSans.ttf" font-size="10.00" fill="#000000">array</text>
</g>
<!-- Node15&#45;&gt;Node18 -->
<g id="edge21" class="edge">
<title>Node15&#45;&gt;Node18</title>
<path fill="none" stroke="#191970" d="M1685.0965,-56.2455C1689.9145,-48.5367 1696.7751,-37.5598 1702.6032,-28.2348"/>
<polygon fill="#191970" stroke="#191970" points="1705.6413,-29.9777 1707.9733,-19.6427 1699.7053,-26.2677 1705.6413,-29.9777"/>
</g>
<!-- Node19 -->
<g id="node20" class="node">
<title>Node19</title>
<polygon fill="none" stroke="#bfbfbf" points="1944.5,-.5 1944.5,-19.5 1997.5,-19.5 1997.5,-.5 1944.5,-.5"/>
<text text-anchor="middle" x="1971" y="-7.5" font-family="FreeSans.ttf" font-size="10.00" fill="#000000">iterator</text>
</g>
<!-- Node15&#45;&gt;Node19 -->
<g id="edge23" class="edge">
<title>Node15&#45;&gt;Node19</title>
<path fill="none" stroke="#191970" d="M1728.8648,-56.4369C1787.0776,-45.2728 1881.9958,-27.0693 1934.0163,-17.0928"/>
<polygon fill="#191970" stroke="#191970" points="1934.9693,-20.4739 1944.1311,-15.1529 1933.6508,-13.5991 1934.9693,-20.4739"/>
</g>
<!-- Node26&#45;&gt;Node5 -->
<g id="edge47" class="edge">
<title>Node26&#45;&gt;Node5</title>
<path fill="none" stroke="#191970" d="M740.5313,-285.948C694.8416,-267.2126 606.1915,-222.6668 634,-168 656.5858,-123.6001 708.5596,-93.9528 742.433,-78.5562"/>
<polygon fill="#191970" stroke="#191970" points="744.1347,-81.6319 751.8894,-74.4128 741.3254,-75.2203 744.1347,-81.6319"/>
</g>
<!-- Node27 -->
<g id="node24" class="node">
<title>Node27</title>
<g id="a_node24"><a xlink:href="PositionRaw_8h.html" target="_top" xlink:title="iDynTree/Core/PositionRaw.h">
<polygon fill="none" stroke="#000000" points="840,-168.5 840,-187.5 996,-187.5 996,-168.5 840,-168.5"/>
<text text-anchor="middle" x="918" y="-175.5" font-family="FreeSans.ttf" font-size="10.00" fill="#000000">iDynTree/Core/PositionRaw.h</text>
</a>
</g>
</g>
<!-- Node26&#45;&gt;Node27 -->
<g id="edge30" class="edge">
<title>Node26&#45;&gt;Node27</title>
<path fill="none" stroke="#191970" d="M778.4388,-285.8845C804.4921,-265.7446 865.0329,-218.945 897.1398,-194.1255"/>
<polygon fill="#191970" stroke="#191970" points="899.6182,-196.6335 905.3893,-187.7484 895.337,-191.0953 899.6182,-196.6335"/>
</g>
<!-- Node28 -->
<g id="node25" class="node">
<title>Node28</title>
<g id="a_node25"><a xlink:href="Rotation_8h.html" target="_top" xlink:title="iDynTree/Core/Rotation.h">
<polygon fill="none" stroke="#000000" points="1047.5,-224.5 1047.5,-243.5 1184.5,-243.5 1184.5,-224.5 1047.5,-224.5"/>
<text text-anchor="middle" x="1116" y="-231.5" font-family="FreeSans.ttf" font-size="10.00" fill="#000000">iDynTree/Core/Rotation.h</text>
</a>
</g>
</g>
<!-- Node26&#45;&gt;Node28 -->
<g id="edge33" class="edge">
<title>Node26&#45;&gt;Node28</title>
<path fill="none" stroke="#191970" d="M820.3035,-285.9581C882.8554,-274.9668 985.5201,-256.9272 1051.9271,-245.2585"/>
<polygon fill="#191970" stroke="#191970" points="1052.6137,-248.6916 1061.8571,-243.5137 1051.4022,-241.7972 1052.6137,-248.6916"/>
</g>
<!-- Node27&#45;&gt;Node5 -->
<g id="edge32" class="edge">
<title>Node27&#45;&gt;Node5</title>
<path fill="none" stroke="#191970" d="M905.7226,-168.4509C880.9613,-149.1921 824.8138,-105.5218 794.4345,-81.8935"/>
<polygon fill="#191970" stroke="#191970" points="796.2886,-78.9016 786.2463,-75.5249 791.991,-84.4271 796.2886,-78.9016"/>
</g>
<!-- Node27&#45;&gt;Node11 -->
<g id="edge31" class="edge">
<title>Node27&#45;&gt;Node11</title>
<path fill="none" stroke="#191970" d="M980.6725,-168.4369C1044.9332,-158.6314 1144.7818,-143.3957 1212.4314,-133.0731"/>
<polygon fill="#191970" stroke="#191970" points="1213.2283,-136.4921 1222.5859,-131.5237 1212.1724,-129.5722 1213.2283,-136.4921"/>
</g>
<!-- Node28&#45;&gt;Node5 -->
<g id="edge34" class="edge">
<title>Node28&#45;&gt;Node5</title>
<path fill="none" stroke="#191970" d="M1108.0937,-224.4102C1100.7263,-215.2938 1089.6138,-201.0716 1081,-188 1059.6454,-155.5939 1069.7162,-134.3664 1038,-112 1001.0702,-85.9569 868.1684,-72.9504 806.2137,-68.1917"/>
<polygon fill="#191970" stroke="#191970" points="806.4379,-64.6988 796.2059,-67.4477 805.9189,-71.6795 806.4379,-64.6988"/>
</g>
<!-- Node28&#45;&gt;Node11 -->
<g id="edge46" class="edge">
<title>Node28&#45;&gt;Node11</title>
<path fill="none" stroke="#191970" d="M1182.7036,-224.4137C1208.4756,-217.8232 1236.6051,-206.7146 1257,-188 1270.3007,-175.7951 1277.5177,-156.2361 1281.2752,-141.5728"/>
<polygon fill="#191970" stroke="#191970" points="1284.7572,-142.0389 1283.5178,-131.5168 1277.925,-140.5152 1284.7572,-142.0389"/>
</g>
<!-- Node29 -->
<g id="node26" class="node">
<title>Node29</title>
<g id="a_node26"><a xlink:href="GeomVector3_8h.html" target="_top" xlink:title="iDynTree/Core/GeomVector3.h">
<polygon fill="none" stroke="#000000" points="1304.5,-168.5 1304.5,-187.5 1467.5,-187.5 1467.5,-168.5 1304.5,-168.5"/>
<text text-anchor="middle" x="1386" y="-175.5" font-family="FreeSans.ttf" font-size="10.00" fill="#000000">iDynTree/Core/GeomVector3.h</text>
</a>
</g>
</g>
<!-- Node28&#45;&gt;Node29 -->
<g id="edge35" class="edge">
<title>Node28&#45;&gt;Node29</title>
<path fill="none" stroke="#191970" d="M1162.1079,-224.4369C1208.6075,-214.7925 1280.4359,-199.8948 1330.14,-189.5858"/>
<polygon fill="#191970" stroke="#191970" points="1331.0015,-192.9817 1340.0823,-187.5237 1329.5799,-186.1275 1331.0015,-192.9817"/>
</g>
<!-- Node30 -->
<g id="node27" class="node">
<title>Node30</title>
<g id="a_node27"><a xlink:href="RotationRaw_8h.html" target="_top" xlink:title="iDynTree/Core/RotationRaw.h">
<polygon fill="none" stroke="#000000" points="1090,-168.5 1090,-187.5 1248,-187.5 1248,-168.5 1090,-168.5"/>
<text text-anchor="middle" x="1169" y="-175.5" font-family="FreeSans.ttf" font-size="10.00" fill="#000000">iDynTree/Core/RotationRaw.h</text>
</a>
</g>
</g>
<!-- Node28&#45;&gt;Node30 -->
<g id="edge37" class="edge">
<title>Node28&#45;&gt;Node30</title>
<path fill="none" stroke="#191970" d="M1125.2319,-224.2455C1132.8317,-216.2155 1143.7877,-204.6394 1152.8368,-195.0781"/>
<polygon fill="#191970" stroke="#191970" points="1155.5421,-197.3115 1159.8739,-187.6427 1150.458,-192.4998 1155.5421,-197.3115"/>
</g>
<!-- Node29&#45;&gt;Node11 -->
<g id="edge36" class="edge">
<title>Node29&#45;&gt;Node11</title>
<path fill="none" stroke="#191970" d="M1368.4071,-168.2455C1352.621,-159.4928 1329.2361,-146.527 1311.2413,-136.5496"/>
<polygon fill="#191970" stroke="#191970" points="1312.8341,-133.4308 1302.3913,-131.6427 1309.4397,-139.5528 1312.8341,-133.4308"/>
</g>
<!-- Node30&#45;&gt;Node5 -->
<g id="edge45" class="edge">
<title>Node30&#45;&gt;Node5</title>
<path fill="none" stroke="#191970" d="M1158.8203,-168.2731C1142.6801,-153.4705 1109.5903,-125.5792 1076,-112 1027.3438,-92.3302 873.4215,-75.5806 806.0749,-68.9921"/>
<polygon fill="#191970" stroke="#191970" points="806.3291,-65.5005 796.0389,-68.0231 805.6562,-72.4681 806.3291,-65.5005"/>
</g>
<!-- Node31 -->
<g id="node28" class="node">
<title>Node31</title>
<g id="a_node28"><a xlink:href="MatrixFixSize_8h.html" target="_top" xlink:title="iDynTree/Core/MatrixFixSize.h">
<polygon fill="none" stroke="#000000" points="1460.5,-112.5 1460.5,-131.5 1621.5,-131.5 1621.5,-112.5 1460.5,-112.5"/>
<text text-anchor="middle" x="1541" y="-119.5" font-family="FreeSans.ttf" font-size="10.00" fill="#000000">iDynTree/Core/MatrixFixSize.h</text>
</a>
</g>
</g>
<!-- Node30&#45;&gt;Node31 -->
<g id="edge38" class="edge">
<title>Node30&#45;&gt;Node31</title>
<path fill="none" stroke="#191970" d="M1232.5264,-168.4369C1297.6626,-158.6314 1398.8715,-143.3957 1467.4427,-133.0731"/>
<polygon fill="#191970" stroke="#191970" points="1468.3681,-136.4734 1477.7356,-131.5237 1467.326,-129.5514 1468.3681,-136.4734"/>
</g>
<!-- Node31&#45;&gt;Node5 -->
<g id="edge42" class="edge">
<title>Node31&#45;&gt;Node5</title>
<path fill="none" stroke="#191970" d="M1460.4262,-113.3129C1455.5465,-112.8506 1450.7088,-112.4089 1446,-112 1200.0809,-90.6472 902.8207,-73.2324 806.0864,-67.7791"/>
<polygon fill="#191970" stroke="#191970" points="806.2466,-64.2827 796.0661,-67.2167 805.8542,-71.2717 806.2466,-64.2827"/>
</g>
<!-- Node31&#45;&gt;Node12 -->
<g id="edge39" class="edge">
<title>Node31&#45;&gt;Node12</title>
<path fill="none" stroke="#191970" d="M1490.2813,-112.4369C1438.8114,-102.7321 1359.1298,-87.708 1304.4216,-77.3926"/>
<polygon fill="#191970" stroke="#191970" points="1304.9848,-73.9372 1294.5095,-75.5237 1303.6878,-80.816 1304.9848,-73.9372"/>
</g>
<!-- Node31&#45;&gt;Node16 -->
<g id="edge40" class="edge">
<title>Node31&#45;&gt;Node16</title>
<path fill="none" stroke="#191970" d="M1538.5275,-112.4509C1533.7762,-94.1013 1523.2869,-53.5908 1517.0153,-29.3693"/>
<polygon fill="#191970" stroke="#191970" points="1520.3612,-28.3283 1514.4663,-19.5249 1513.5847,-30.083 1520.3612,-28.3283"/>
</g>
<!-- Node31&#45;&gt;Node24 -->
<g id="edge44" class="edge">
<title>Node31&#45;&gt;Node24</title>
<path fill="none" stroke="#191970" d="M1514.6984,-112.3733C1489.5872,-103.1822 1451.5562,-89.2624 1423.7128,-79.0713"/>
<polygon fill="#191970" stroke="#191970" points="1424.5522,-75.6516 1413.9584,-75.5011 1422.1462,-82.2251 1424.5522,-75.6516"/>
</g>
<!-- Node31&#45;&gt;Node25 -->
<g id="edge41" class="edge">
<title>Node31&#45;&gt;Node25</title>
<path fill="none" stroke="#191970" d="M1526.7167,-112.2455C1514.253,-103.7337 1495.9549,-91.2375 1481.5208,-81.3801"/>
<polygon fill="#191970" stroke="#191970" points="1483.3515,-78.392 1473.1196,-75.6427 1479.4038,-84.1726 1483.3515,-78.392"/>
</g>
<!-- Node32 -->
<g id="node29" class="node">
<title>Node32</title>
<polygon fill="none" stroke="#bfbfbf" points="1540,-56.5 1540,-75.5 1600,-75.5 1600,-56.5 1540,-56.5"/>
<text text-anchor="middle" x="1570" y="-63.5" font-family="FreeSans.ttf" font-size="10.00" fill="#000000">iostream</text>
</g>
<!-- Node31&#45;&gt;Node32 -->
<g id="edge43" class="edge">
<title>Node31&#45;&gt;Node32</title>
<path fill="none" stroke="#191970" d="M1546.0514,-112.2455C1550.0019,-104.617 1555.6097,-93.7881 1560.4058,-84.5267"/>
<polygon fill="#191970" stroke="#191970" points="1563.5159,-86.1321 1565.0065,-75.6427 1557.2999,-82.9131 1563.5159,-86.1321"/>
</g>
<!-- Node33&#45;&gt;Node5 -->
<g id="edge53" class="edge">
<title>Node33&#45;&gt;Node5</title>
<path fill="none" stroke="#191970" d="M897.931,-347.4516C895.1486,-332.3366 891.6565,-302.3258 902,-280 930.4288,-218.6385 1041.9193,-224.6604 1005,-168 960.4426,-99.6174 858.5218,-76.7504 806.2373,-69.3635"/>
<polygon fill="#191970" stroke="#191970" points="806.5423,-65.8736 796.1728,-68.0473 805.6346,-72.8145 806.5423,-65.8736"/>
</g>
<!-- Node33&#45;&gt;Node26 -->
<g id="edge50" class="edge">
<title>Node33&#45;&gt;Node26</title>
<path fill="none" stroke="#191970" d="M879.0625,-347.3906C856.7402,-337.1457 821.1963,-320.8326 795.9243,-309.2339"/>
<polygon fill="#191970" stroke="#191970" points="797.3389,-306.0322 786.7905,-305.0419 794.419,-312.3942 797.3389,-306.0322"/>
</g>
<!-- Node33&#45;&gt;Node28 -->
<g id="edge51" class="edge">
<title>Node33&#45;&gt;Node28</title>
<path fill="none" stroke="#191970" d="M900.1107,-347.3935C900.8422,-331.0787 904.7729,-297.9803 924,-280 940.6766,-264.4048 991.9944,-252.5834 1037.3817,-244.8315"/>
<polygon fill="#191970" stroke="#191970" points="1037.9693,-248.282 1047.2608,-243.191 1036.8225,-241.3765 1037.9693,-248.282"/>
</g>
<!-- Node33&#45;&gt;Node31 -->
<g id="edge52" class="edge">
<title>Node33&#45;&gt;Node31</title>
<path fill="none" stroke="#191970" d="M908.7355,-347.3815C924.4435,-330.7411 959.2606,-296.7576 996,-280 1098.1923,-233.388 1398.0495,-248.0029 1493,-188 1510.8815,-176.7 1524.2317,-156.1328 1532.2541,-140.9507"/>
<polygon fill="#191970" stroke="#191970" points="1535.4343,-142.4158 1536.7507,-131.903 1529.1658,-139.3003 1535.4343,-142.4158"/>
</g>
<!-- Node34&#45;&gt;Node2 -->
<g id="edge58" class="edge">
<title>Node34&#45;&gt;Node2</title>
<path fill="none" stroke="#191970" d="M147.3645,-459.3733C174.6827,-450.1016 216.1796,-436.0178 246.2738,-425.804"/>
<polygon fill="#191970" stroke="#191970" points="247.661,-429.0294 256.0056,-422.5011 245.4113,-422.4008 247.661,-429.0294"/>
</g>
<!-- Node34&#45;&gt;Node4 -->
<g id="edge60" class="edge">
<title>Node34&#45;&gt;Node4</title>
<path fill="none" stroke="#191970" d="M128.8587,-459.4324C144.488,-444.843 176.5234,-417.2323 209,-403 273.9586,-374.5331 356.7007,-363.5788 404.6775,-359.4381"/>
<polygon fill="#191970" stroke="#191970" points="405.2571,-362.9029 414.9437,-358.6109 404.6948,-355.9255 405.2571,-362.9029"/>
</g>
<!-- Node34&#45;&gt;Node5 -->
<g id="edge61" class="edge">
<title>Node34&#45;&gt;Node5</title>
<path fill="none" stroke="#191970" d="M112.4692,-459.2931C100.4401,-440.4432 76,-397.1986 76,-357 76,-357 76,-357 76,-178 76,-109.664 604.3091,-75.4602 741.6756,-67.7218"/>
<polygon fill="#191970" stroke="#191970" points="742.1668,-71.2 751.9574,-67.1511 741.7788,-64.2107 742.1668,-71.2"/>
</g>
<!-- Node34&#45;&gt;Node11 -->
<g id="edge59" class="edge">
<title>Node34&#45;&gt;Node11</title>
<path fill="none" stroke="#191970" d="M117.1733,-459.2691C113.4938,-436.4363 107.8466,-378.9447 137,-347 339.2279,-125.4096 512.3536,-294 793,-188 810.8542,-181.2565 812.7266,-173.5073 831,-168 835.3143,-166.6997 1062.9811,-143.9964 1194.2257,-130.9811"/>
<polygon fill="#191970" stroke="#191970" points="1194.6755,-134.4537 1204.2813,-129.9841 1193.9848,-127.4879 1194.6755,-134.4537"/>
</g>
<!-- Node35&#45;&gt;Node2 -->
<g id="edge63" class="edge">
<title>Node35&#45;&gt;Node2</title>
<path fill="none" stroke="#191970" d="M295.8916,-515.4509C293.7714,-497.184 289.102,-456.9553 286.2863,-432.6976"/>
<polygon fill="#191970" stroke="#191970" points="289.7353,-432.0546 285.1056,-422.5249 282.782,-432.8618 289.7353,-432.0546"/>
</g>
<!-- Node35&#45;&gt;Node4 -->
<g id="edge71" class="edge">
<title>Node35&#45;&gt;Node4</title>
<path fill="none" stroke="#191970" d="M305.3245,-515.4862C329.1654,-488.2396 397.96,-409.6172 428.7666,-374.4096"/>
<polygon fill="#191970" stroke="#191970" points="431.4495,-376.6585 435.4006,-366.8279 426.1815,-372.0489 431.4495,-376.6585"/>
</g>
<!-- Node35&#45;&gt;Node5 -->
<g id="edge72" class="edge">
<title>Node35&#45;&gt;Node5</title>
<path fill="none" stroke="#191970" d="M248.9998,-519.5803C188.6336,-512.1218 89.0051,-497.4912 57,-479 23.4401,-459.6105 0,-451.7585 0,-413 0,-413 0,-413 0,-178 0,-95.2903 93.2754,-130.0118 174,-112 283.7804,-87.5051 633.3824,-71.672 741.6933,-67.2594"/>
<polygon fill="#191970" stroke="#191970" points="741.842,-70.7564 751.693,-66.8567 741.5602,-63.762 741.842,-70.7564"/>
</g>
<!-- Node35&#45;&gt;Node6 -->
<g id="edge73" class="edge">
<title>Node35&#45;&gt;Node6</title>
<path fill="none" stroke="#191970" d="M285.6253,-515.2417C266.7344,-498.3934 228.9957,-461.8968 209,-423 201.5881,-408.582 197.5224,-390.612 195.3466,-377.065"/>
<polygon fill="#191970" stroke="#191970" points="198.7771,-376.3227 193.9315,-366.9009 191.844,-377.288 198.7771,-376.3227"/>
</g>
<!-- Node35&#45;&gt;Node7 -->
<g id="edge74" class="edge">
<title>Node35&#45;&gt;Node7</title>
<path fill="none" stroke="#191970" d="M345.0456,-520.3821C415.8851,-513.0684 544.5531,-497.7131 587,-479 644.4709,-453.6634 698.7281,-401.2951 724.4406,-374.1517"/>
<polygon fill="#191970" stroke="#191970" points="727.2232,-376.2994 731.4759,-366.5956 722.1,-371.5294 727.2232,-376.2994"/>
</g>
<!-- Node35&#45;&gt;Node33 -->
<g id="edge65" class="edge">
<title>Node35&#45;&gt;Node33</title>
<path fill="none" stroke="#191970" d="M345.0233,-522.1597C408.6855,-517.4894 524.0462,-505.8682 619,-479 716.6323,-451.3739 824.808,-397.1674 873.5892,-371.341"/>
<polygon fill="#191970" stroke="#191970" points="875.3567,-374.365 882.5328,-366.5704 872.0622,-368.1887 875.3567,-374.365"/>
</g>
<!-- Node35&#45;&gt;Node34 -->
<g id="edge64" class="edge">
<title>Node35&#45;&gt;Node34</title>
<path fill="none" stroke="#191970" d="M266.4007,-515.3733C236.6739,-506.021 191.3841,-491.7725 158.8544,-481.5385"/>
<polygon fill="#191970" stroke="#191970" points="159.7895,-478.1636 149.2,-478.5011 157.6887,-484.8409 159.7895,-478.1636"/>
</g>
<!-- Node36 -->
<g id="node33" class="node">
<title>Node36</title>
<g id="a_node33"><a xlink:href="SolidShapes_8h.html" target="_top" xlink:title="iDynTree/Model/SolidShapes.h">
<polygon fill="none" stroke="#000000" points="938.5,-403.5 938.5,-422.5 1101.5,-422.5 1101.5,-403.5 938.5,-403.5"/>
<text text-anchor="middle" x="1020" y="-410.5" font-family="FreeSans.ttf" font-size="10.00" fill="#000000">iDynTree/Model/SolidShapes.h</text>
</a>
</g>
</g>
<!-- Node35&#45;&gt;Node36 -->
<g id="edge66" class="edge">
<title>Node35&#45;&gt;Node36</title>
<path fill="none" stroke="#191970" d="M345.0883,-520.8057C420.2405,-513.9472 569.9815,-499.0612 696,-479 793.2661,-463.516 905.6872,-439.1416 969.2607,-424.7485"/>
<polygon fill="#191970" stroke="#191970" points="970.0591,-428.1564 979.0347,-422.5271 968.5076,-421.3305 970.0591,-428.1564"/>
</g>
<!-- Node36&#45;&gt;Node5 -->
<g id="edge68" class="edge">
<title>Node36&#45;&gt;Node5</title>
<path fill="none" stroke="#191970" d="M964.7685,-403.4296C923.7144,-395.5952 866.6343,-383.1744 818,-367 797.232,-360.0932 793.0588,-355.7554 773,-347 735.7742,-330.7515 720.7834,-336.2902 689,-311 660.1322,-288.0297 656.2084,-277.1403 640,-244 614.0118,-190.8636 612.0052,-150.397 657,-112 681.5146,-91.08 716.6733,-78.9894 742.042,-72.5025"/>
<polygon fill="#191970" stroke="#191970" points="743.0101,-75.8697 751.9168,-70.132 741.376,-69.0631 743.0101,-75.8697"/>
</g>
<!-- Node36&#45;&gt;Node7 -->
<g id="edge69" class="edge">
<title>Node36&#45;&gt;Node7</title>
<path fill="none" stroke="#191970" d="M964.0233,-403.4977C914.8277,-394.8759 841.4009,-381.3497 778,-367 776.5445,-366.6706 775.0604,-366.3244 773.563,-365.9668"/>
<polygon fill="#191970" stroke="#191970" points="774.204,-362.5196 763.6543,-363.4964 772.5105,-369.3117 774.204,-362.5196"/>
</g>
<!-- Node36&#45;&gt;Node33 -->
<g id="edge70" class="edge">
<title>Node36&#45;&gt;Node33</title>
<path fill="none" stroke="#191970" d="M999.3713,-403.3733C980.1081,-394.3838 951.1514,-380.8706 929.4581,-370.7471"/>
<polygon fill="#191970" stroke="#191970" points="930.9015,-367.5584 920.3595,-366.5011 927.9413,-373.9017 930.9015,-367.5584"/>
</g>
<!-- Node37 -->
<g id="node34" class="node">
<title>Node37</title>
<polygon fill="none" stroke="#bfbfbf" points="1071.5,-347.5 1071.5,-366.5 1120.5,-366.5 1120.5,-347.5 1071.5,-347.5"/>
<text text-anchor="middle" x="1096" y="-354.5" font-family="FreeSans.ttf" font-size="10.00" fill="#000000">cstdlib</text>
</g>
<!-- Node36&#45;&gt;Node37 -->
<g id="edge67" class="edge">
<title>Node36&#45;&gt;Node37</title>
<path fill="none" stroke="#191970" d="M1033.2382,-403.2455C1044.681,-394.814 1061.4296,-382.4729 1074.7475,-372.6598"/>
<polygon fill="#191970" stroke="#191970" points="1076.9391,-375.3924 1082.9135,-366.6427 1072.7867,-369.757 1076.9391,-375.3924"/>
</g>
<!-- Node38&#45;&gt;Node2 -->
<g id="edge78" class="edge">
<title>Node38&#45;&gt;Node2</title>
<path fill="none" stroke="#191970" d="M426.4489,-571.4862C401.9594,-544.2396 331.2928,-465.6172 299.6479,-430.4096"/>
<polygon fill="#191970" stroke="#191970" points="302.1213,-427.9256 292.8334,-422.8279 296.9151,-432.6049 302.1213,-427.9256"/>
</g>
<!-- Node38&#45;&gt;Node35 -->
<g id="edge79" class="edge">
<title>Node38&#45;&gt;Node35</title>
<path fill="none" stroke="#191970" d="M411.277,-571.3733C388.8263,-562.2629 354.9261,-548.5062 329.8745,-538.3404"/>
<polygon fill="#191970" stroke="#191970" points="330.9957,-535.0182 320.4135,-534.5011 328.3635,-541.5045 330.9957,-535.0182"/>
</g>
<!-- Node39 -->
<g id="node36" class="node">
<title>Node39</title>
<g id="a_node36"><a xlink:href="Link_8h.html" target="_top" xlink:title="iDynTree/Model/Link.h">
<polygon fill="none" stroke="#000000" points="1234,-403.5 1234,-422.5 1358,-422.5 1358,-403.5 1234,-403.5"/>
<text text-anchor="middle" x="1296" y="-410.5" font-family="FreeSans.ttf" font-size="10.00" fill="#000000">iDynTree/Model/Link.h</text>
</a>
</g>
</g>
<!-- Node38&#45;&gt;Node39 -->
<g id="edge80" class="edge">
<title>Node38&#45;&gt;Node39</title>
<path fill="none" stroke="#191970" d="M478.2872,-572.5537C620.661,-544.7735 1074.5788,-456.2041 1237.2739,-424.4588"/>
<polygon fill="#191970" stroke="#191970" points="1237.9599,-427.891 1247.1045,-422.5406 1236.6193,-421.0205 1237.9599,-427.891"/>
</g>
<!-- Node40 -->
<g id="node37" class="node">
<title>Node40</title>
<g id="a_node37"><a xlink:href="SpatialInertia_8h.html" target="_top" xlink:title="iDynTree/Core/SpatialInertia.h">
<polygon fill="none" stroke="#000000" points="1215,-347.5 1215,-366.5 1377,-366.5 1377,-347.5 1215,-347.5"/>
<text text-anchor="middle" x="1296" y="-354.5" font-family="FreeSans.ttf" font-size="10.00" fill="#000000">iDynTree/Core/SpatialInertia.h</text>
</a>
</g>
</g>
<!-- Node39&#45;&gt;Node40 -->
<g id="edge81" class="edge">
<title>Node39&#45;&gt;Node40</title>
<path fill="none" stroke="#191970" d="M1296,-403.2455C1296,-395.9382 1296,-385.6944 1296,-376.7046"/>
<polygon fill="#191970" stroke="#191970" points="1299.5001,-376.6426 1296,-366.6427 1292.5001,-376.6427 1299.5001,-376.6426"/>
</g>
<!-- Node50 -->
<g id="node43" class="node">
<title>Node50</title>
<g id="a_node43"><a xlink:href="Indices_8h.html" target="_top" xlink:title="iDynTree/Model/Indices.h">
<polygon fill="none" stroke="#000000" points="1455,-347.5 1455,-366.5 1593,-366.5 1593,-347.5 1455,-347.5"/>
<text text-anchor="middle" x="1524" y="-354.5" font-family="FreeSans.ttf" font-size="10.00" fill="#000000">iDynTree/Model/Indices.h</text>
</a>
</g>
</g>
<!-- Node39&#45;&gt;Node50 -->
<g id="edge88" class="edge">
<title>Node39&#45;&gt;Node50</title>
<path fill="none" stroke="#191970" d="M1334.9355,-403.4369C1373.792,-393.8932 1433.593,-379.2052 1475.5089,-368.9101"/>
<polygon fill="#191970" stroke="#191970" points="1476.3486,-372.308 1485.2251,-366.5237 1474.6788,-365.51 1476.3486,-372.308"/>
</g>
<!-- Node40&#45;&gt;Node11 -->
<g id="edge83" class="edge">
<title>Node40&#45;&gt;Node11</title>
<path fill="none" stroke="#191970" d="M1214.9752,-349.9838C1131.0562,-341.8782 1010.1782,-327.5179 996,-311 987.0262,-300.5454 987.1719,-290.5779 996,-280 1024.6551,-245.6651 1150.0633,-252.3408 1194,-244 1319.9669,-220.0868 1395.611,-287.0724 1477,-188 1482.6425,-181.1316 1482.5047,-174.9793 1477,-168 1463.9043,-151.3962 1418.8287,-140.1117 1375.6433,-132.8761"/>
<polygon fill="#191970" stroke="#191970" points="1376.0314,-129.3935 1365.602,-131.2583 1374.9179,-136.3044 1376.0314,-129.3935"/>
</g>
<!-- Node41 -->
<g id="node38" class="node">
<title>Node41</title>
<g id="a_node38"><a xlink:href="SpatialInertiaRaw_8h.html" target="_top" xlink:title="iDynTree/Core/SpatialInertia\lRaw.h">
<polygon fill="none" stroke="#ff0000" points="1004.5,-280.5 1004.5,-310.5 1157.5,-310.5 1157.5,-280.5 1004.5,-280.5"/>
<text text-anchor="start" x="1012.5" y="-298.5" font-family="FreeSans.ttf" font-size="10.00" fill="#000000">iDynTree/Core/SpatialInertia</text>
<text text-anchor="middle" x="1081" y="-287.5" font-family="FreeSans.ttf" font-size="10.00" fill="#000000">Raw.h</text>
</a>
</g>
</g>
<!-- Node40&#45;&gt;Node41 -->
<g id="edge82" class="edge">
<title>Node40&#45;&gt;Node41</title>
<path fill="none" stroke="#191970" d="M1262.4063,-347.3906C1230.6144,-338.2967 1182.1077,-324.4215 1143.2501,-313.3064"/>
<polygon fill="#191970" stroke="#191970" points="1144.1719,-309.9298 1133.5949,-310.5446 1142.2467,-316.6599 1144.1719,-309.9298"/>
</g>
<!-- Node43 -->
<g id="node39" class="node">
<title>Node43</title>
<g id="a_node39"><a xlink:href="Twist_8h.html" target="_top" xlink:title="iDynTree/Core/Twist.h">
<polygon fill="none" stroke="#ff0000" points="1176,-286 1176,-305 1298,-305 1298,-286 1176,-286"/>
<text text-anchor="middle" x="1237" y="-293" font-family="FreeSans.ttf" font-size="10.00" fill="#000000">iDynTree/Core/Twist.h</text>
</a>
</g>
</g>
<!-- Node40&#45;&gt;Node43 -->
<g id="edge84" class="edge">
<title>Node40&#45;&gt;Node43</title>
<path fill="none" stroke="#191970" d="M1286.7813,-347.3906C1277.9142,-338.1478 1264.3088,-323.966 1253.5611,-312.7628"/>
<polygon fill="#191970" stroke="#191970" points="1255.7973,-310.0381 1246.3487,-305.2449 1250.7459,-314.8841 1255.7973,-310.0381"/>
</g>
<!-- Node46 -->
<g id="node40" class="node">
<title>Node46</title>
<g id="a_node40"><a xlink:href="SpatialMomentum_8h.html" target="_top" xlink:title="iDynTree/Core/SpatialMomentum.h">
<polygon fill="none" stroke="#ff0000" points="1316,-286 1316,-305 1502,-305 1502,-286 1316,-286"/>
<text text-anchor="middle" x="1409" y="-293" font-family="FreeSans.ttf" font-size="10.00" fill="#000000">iDynTree/Core/SpatialMomentum.h</text>
</a>
</g>
</g>
<!-- Node40&#45;&gt;Node46 -->
<g id="edge85" class="edge">
<title>Node40&#45;&gt;Node46</title>
<path fill="none" stroke="#191970" d="M1313.6563,-347.3906C1332.1486,-337.3262 1361.401,-321.4057 1382.6308,-309.8514"/>
<polygon fill="#191970" stroke="#191970" points="1384.3575,-312.8965 1391.4677,-305.0419 1381.0112,-306.7481 1384.3575,-312.8965"/>
</g>
<!-- Node48 -->
<g id="node41" class="node">
<title>Node48</title>
<g id="a_node41"><a xlink:href="SpatialAcc_8h.html" target="_top" xlink:title="iDynTree/Core/SpatialAcc.h">
<polygon fill="none" stroke="#ff0000" points="1520,-286 1520,-305 1668,-305 1668,-286 1520,-286"/>
<text text-anchor="middle" x="1594" y="-293" font-family="FreeSans.ttf" font-size="10.00" fill="#000000">iDynTree/Core/SpatialAcc.h</text>
</a>
</g>
</g>
<!-- Node40&#45;&gt;Node48 -->
<g id="edge86" class="edge">
<title>Node40&#45;&gt;Node48</title>
<path fill="none" stroke="#191970" d="M1342.2355,-347.4581C1394.9795,-336.573 1481.2199,-318.7751 1537.7992,-307.0985"/>
<polygon fill="#191970" stroke="#191970" points="1538.5698,-310.5133 1547.656,-305.0643 1537.1549,-303.6578 1538.5698,-310.5133"/>
</g>
<!-- Node49 -->
<g id="node42" class="node">
<title>Node49</title>
<g id="a_node42"><a xlink:href="Wrench_8h.html" target="_top" xlink:title="iDynTree/Core/Wrench.h">
<polygon fill="none" stroke="#ff0000" points="1686.5,-286 1686.5,-305 1819.5,-305 1819.5,-286 1686.5,-286"/>
<text text-anchor="middle" x="1753" y="-293" font-family="FreeSans.ttf" font-size="10.00" fill="#000000">iDynTree/Core/Wrench.h</text>
</a>
</g>
</g>
<!-- Node40&#45;&gt;Node49 -->
<g id="edge87" class="edge">
<title>Node40&#45;&gt;Node49</title>
<path fill="none" stroke="#191970" d="M1377.2811,-349.1146C1454.6022,-341.1582 1574.073,-327.6812 1677,-311 1684.2196,-309.8299 1691.7966,-308.4587 1699.2544,-307.0243"/>
<polygon fill="#191970" stroke="#191970" points="1700.1718,-310.4109 1709.3056,-305.0421 1698.8173,-303.5431 1700.1718,-310.4109"/>
</g>
<!-- Node50&#45;&gt;Node5 -->
<g id="edge89" class="edge">
<title>Node50&#45;&gt;Node5</title>
<path fill="none" stroke="#191970" d="M1593.1553,-351.2996C1678.3641,-343.5625 1813.8062,-328.6572 1829,-311 1837.9866,-300.5564 1836.9219,-291.2725 1829,-280 1717.3686,-121.1534 1597.5334,-205.9025 1418,-132 1398.5095,-123.977 1395.391,-117.3344 1375,-112 1265.9894,-83.4822 915.0791,-70.3918 806.3967,-66.9539"/>
<polygon fill="#191970" stroke="#191970" points="806.1796,-63.4456 796.0758,-66.6336 805.9624,-70.4422 806.1796,-63.4456"/>
</g>
<!-- Node51 -->
<g id="node44" class="node">
<title>Node51</title>
<polygon fill="none" stroke="#bfbfbf" points="1876,-286 1876,-305 1962,-305 1962,-286 1876,-286"/>
<text text-anchor="middle" x="1919" y="-293" font-family="FreeSans.ttf" font-size="10.00" fill="#000000">ModelExport.h</text>
</g>
<!-- Node50&#45;&gt;Node51 -->
<g id="edge90" class="edge">
<title>Node50&#45;&gt;Node51</title>
<path fill="none" stroke="#191970" d="M1593.0608,-350.2648C1661.6846,-342.9484 1769.722,-329.7428 1862,-311 1866.9606,-309.9924 1872.1273,-308.7972 1877.2362,-307.5241"/>
<polygon fill="#191970" stroke="#191970" points="1878.1214,-310.9104 1886.9204,-305.0088 1876.3616,-304.1352 1878.1214,-310.9104"/>
</g>
<!-- Node52&#45;&gt;Node2 -->
<g id="edge93" class="edge">
<title>Node52&#45;&gt;Node2</title>
<path fill="none" stroke="#191970" d="M646.8341,-571.3626C622.6114,-562.3284 585.6666,-548.2627 554,-535 465.4855,-497.9281 362.5881,-450.0961 313.2804,-426.8757"/>
<polygon fill="#191970" stroke="#191970" points="314.691,-423.6712 304.1535,-422.5702 311.7044,-430.0022 314.691,-423.6712"/>
</g>
<!-- Node52&#45;&gt;Node4 -->
<g id="edge113" class="edge">
<title>Node52&#45;&gt;Node4</title>
<path fill="none" stroke="#191970" d="M667.701,-571.316C655.479,-549.541 623.5458,-495.7499 587,-459 550.754,-422.5516 500.2421,-389.8795 469.9656,-371.8131"/>
<polygon fill="#191970" stroke="#191970" points="471.6506,-368.7436 461.2572,-366.6871 468.0997,-374.7761 471.6506,-368.7436"/>
</g>
<!-- Node52&#45;&gt;Node5 -->
<g id="edge114" class="edge">
<title>Node52&#45;&gt;Node5</title>
<path fill="none" stroke="#191970" d="M671.151,-571.1997C668.4044,-557.9442 662.5221,-533.7982 653,-515 618.8816,-447.6444 462,-309.5039 462,-234 462,-234 462,-234 462,-178 462,-143.6999 473.6278,-131.2747 502,-112 540.5727,-85.7956 677.8513,-72.8403 741.3488,-68.1403"/>
<polygon fill="#191970" stroke="#191970" points="741.8705,-71.612 751.5949,-67.4065 741.3704,-64.6299 741.8705,-71.612"/>
</g>
<!-- Node52&#45;&gt;Node6 -->
<g id="edge115" class="edge">
<title>Node52&#45;&gt;Node6</title>
<path fill="none" stroke="#191970" d="M654.4633,-571.3601C612.9902,-549.7587 513.7864,-497.8913 481,-479 474.081,-475.0134 366.3116,-406.2103 359,-403 323.8864,-387.5828 282.2986,-376.0689 249.5332,-368.4162"/>
<polygon fill="#191970" stroke="#191970" points="250.1928,-364.9768 239.6648,-366.1652 248.636,-371.8015 250.1928,-364.9768"/>
</g>
<!-- Node52&#45;&gt;Node7 -->
<g id="edge116" class="edge">
<title>Node52&#45;&gt;Node7</title>
<path fill="none" stroke="#191970" d="M696.8076,-571.4994C729.3313,-557.0561 786.3122,-526.1684 810,-479 829.5653,-440.0407 787.7969,-396.0862 760.726,-373.0515"/>
<polygon fill="#191970" stroke="#191970" points="762.8285,-370.2491 752.8807,-366.6032 758.3836,-375.6568 762.8285,-370.2491"/>
</g>
<!-- Node52&#45;&gt;Node33 -->
<g id="edge94" class="edge">
<title>Node52&#45;&gt;Node33</title>
<path fill="none" stroke="#191970" d="M718.4985,-571.461C820.9222,-548.9692 1064.3062,-489.4829 1111,-423 1116.1089,-415.726 1116.5759,-409.9225 1111,-403 1094.8217,-382.9147 1035.0925,-371.1322 983.2946,-364.5293"/>
<polygon fill="#191970" stroke="#191970" points="983.4071,-361.0171 973.0561,-363.2769 982.5571,-367.9653 983.4071,-361.0171"/>
</g>
<!-- Node52&#45;&gt;Node53 -->
<g id="edge95" class="edge">
<title>Node52&#45;&gt;Node53</title>
<path fill="none" stroke="#191970" d="M722.5043,-577.9094C868.5819,-568.7898 1299.1259,-541.9108 1484.0293,-530.3672"/>
<polygon fill="#191970" stroke="#191970" points="1484.4869,-533.8455 1494.2494,-529.7291 1484.0507,-526.8591 1484.4869,-533.8455"/>
</g>
<!-- Node53&#45;&gt;Node5 -->
<g id="edge97" class="edge">
<title>Node53&#45;&gt;Node5</title>
<path fill="none" stroke="#191970" d="M1645.6294,-522.0118C1775.7142,-514.7914 2028,-490.764 2028,-413 2028,-413 2028,-413 2028,-357 2028,-173.1348 1838.2642,-213.0368 1660,-168 1569.0392,-145.0196 1541.4068,-160.4325 1452,-132 1432.2973,-125.7343 1429.9891,-117.2814 1410,-112 1293.9996,-81.3512 918.4767,-69.6255 806.0748,-66.7508"/>
<polygon fill="#191970" stroke="#191970" points="806.1205,-63.2509 796.0361,-66.4999 805.9455,-70.2487 806.1205,-63.2509"/>
</g>
<!-- Node53&#45;&gt;Node7 -->
<g id="edge98" class="edge">
<title>Node53&#45;&gt;Node7</title>
<path fill="none" stroke="#191970" d="M1494.2785,-519.8475C1406.4875,-513.2312 1257.6255,-500.0272 1131,-479 1020.8118,-460.7023 990.7481,-461.7824 886,-423 868.1021,-416.3734 865.2383,-411.1907 848,-403 823.2575,-391.2437 794.7236,-379.1514 773.2008,-370.317"/>
<polygon fill="#191970" stroke="#191970" points="774.4253,-367.0365 763.8441,-366.5001 771.7813,-373.518 774.4253,-367.0365"/>
</g>
<!-- Node53&#45;&gt;Node19 -->
<g id="edge99" class="edge">
<title>Node53&#45;&gt;Node19</title>
<path fill="none" stroke="#191970" d="M1645.683,-521.6843C1775.3454,-515.4559 2029.4134,-500.6547 2064,-479 2093.072,-460.798 2104,-447.3001 2104,-413 2104,-413 2104,-413 2104,-122 2104,-71.2129 2046.5564,-38.8064 2007.1726,-22.5565"/>
<polygon fill="#191970" stroke="#191970" points="2008.1814,-19.1918 1997.5949,-18.7719 2005.6089,-25.702 2008.1814,-19.1918"/>
</g>
<!-- Node53&#45;&gt;Node29 -->
<g id="edge96" class="edge">
<title>Node53&#45;&gt;Node29</title>
<path fill="none" stroke="#191970" d="M1645.5727,-520.3161C1766.4933,-510.7246 1990,-483.4652 1990,-413 1990,-413 1990,-413 1990,-357 1990,-321.7513 1996.773,-304.0462 1971,-280 1900.9748,-214.6667 1624.4668,-190.44 1478.0669,-182.0655"/>
<polygon fill="#191970" stroke="#191970" points="1477.9353,-178.5528 1467.7556,-181.4896 1477.5449,-185.5419 1477.9353,-178.5528"/>
</g>
<!-- Node53&#45;&gt;Node50 -->
<g id="edge112" class="edge">
<title>Node53&#45;&gt;Node50</title>
<path fill="none" stroke="#191970" d="M1569.7119,-515.2066C1568.8273,-494.0952 1565.2596,-442.9759 1551,-403 1547.5189,-393.241 1541.9229,-383.2253 1536.7258,-375.0416"/>
<polygon fill="#191970" stroke="#191970" points="1539.6195,-373.0723 1531.1615,-366.6916 1533.7944,-376.9541 1539.6195,-373.0723"/>
</g>
<!-- Node54 -->
<g id="node47" class="node">
<title>Node54</title>
<g id="a_node47"><a xlink:href="VectorDynSize_8h.html" target="_top" xlink:title="iDynTree/Core/VectorDynSize.h">
<polygon fill="none" stroke="#000000" points="1639.5,-112.5 1639.5,-131.5 1806.5,-131.5 1806.5,-112.5 1639.5,-112.5"/>
<text text-anchor="middle" x="1723" y="-119.5" font-family="FreeSans.ttf" font-size="10.00" fill="#000000">iDynTree/Core/VectorDynSize.h</text>
</a>
</g>
</g>
<!-- Node53&#45;&gt;Node54 -->
<g id="edge100" class="edge">
<title>Node53&#45;&gt;Node54</title>
<path fill="none" stroke="#191970" d="M1645.7433,-522.0067C1771.2019,-516.4055 2011.4204,-502.7128 2042,-479 2066.6655,-459.8732 2066,-444.2125 2066,-413 2066,-413 2066,-413 2066,-234 2066,-180.2719 1911.9953,-148.2597 1810.3736,-132.9846"/>
<polygon fill="#191970" stroke="#191970" points="1810.8073,-129.5108 1800.4036,-131.5141 1809.7858,-136.4359 1810.8073,-129.5108"/>
</g>
<!-- Node53&#45;&gt;Node55 -->
<g id="edge103" class="edge">
<title>Node53&#45;&gt;Node55</title>
<path fill="none" stroke="#191970" d="M1507.8398,-515.4369C1444.1044,-505.6314 1345.072,-490.3957 1277.9754,-480.0731"/>
<polygon fill="#191970" stroke="#191970" points="1278.3198,-476.585 1267.9039,-478.5237 1277.2553,-483.5036 1278.3198,-476.585"/>
</g>
<!-- Node54&#45;&gt;Node5 -->
<g id="edge102" class="edge">
<title>Node54&#45;&gt;Node5</title>
<path fill="none" stroke="#191970" d="M1639.2815,-112.7039C1636.4888,-112.4565 1633.7223,-112.2208 1631,-112 1309.8101,-85.9436 919.6583,-71.082 806.304,-67.097"/>
<polygon fill="#191970" stroke="#191970" points="806.3258,-63.5957 796.2099,-66.7453 806.0819,-70.5915 806.3258,-63.5957"/>
</g>
<!-- Node54&#45;&gt;Node15 -->
<g id="edge101" class="edge">
<title>Node54&#45;&gt;Node15</title>
<path fill="none" stroke="#191970" d="M1715.3358,-112.2455C1709.1527,-104.3761 1700.2937,-93.101 1692.8711,-83.6542"/>
<polygon fill="#191970" stroke="#191970" points="1695.5068,-81.3435 1686.5764,-75.6427 1690.0025,-85.6683 1695.5068,-81.3435"/>
</g>
<!-- Node55&#45;&gt;Node7 -->
<g id="edge111" class="edge">
<title>Node55&#45;&gt;Node7</title>
<path fill="none" stroke="#191970" d="M1139.3602,-462.8316C1082.7533,-456.4285 999.8161,-444.2825 930,-423 909.4525,-416.7364 906.0588,-410.6862 886,-403 848.0402,-388.4544 803.3175,-374.868 773.4667,-366.2878"/>
<polygon fill="#191970" stroke="#191970" points="774.14,-362.8404 763.5638,-363.4682 772.2231,-369.5729 774.14,-362.8404"/>
</g>
<!-- Node55&#45;&gt;Node33 -->
<g id="edge107" class="edge">
<title>Node55&#45;&gt;Node33</title>
<path fill="none" stroke="#191970" d="M1199.7426,-459.0919C1189.8416,-444.3106 1169.0894,-416.7549 1144,-403 1116.7541,-388.0628 1042.819,-375.3616 983.4184,-367.1148"/>
<polygon fill="#191970" stroke="#191970" points="983.6486,-363.6138 973.267,-365.7287 982.7015,-370.5495 983.6486,-363.6138"/>
</g>
<!-- Node55&#45;&gt;Node36 -->
<g id="edge109" class="edge">
<title>Node55&#45;&gt;Node36</title>
<path fill="none" stroke="#191970" d="M1174.0255,-459.3733C1142.8287,-449.9807 1095.229,-435.6496 1061.2068,-425.4064"/>
<polygon fill="#191970" stroke="#191970" points="1062.1418,-422.0327 1051.5573,-422.5011 1060.1237,-428.7355 1062.1418,-422.0327"/>
</g>
<!-- Node55&#45;&gt;Node37 -->
<g id="edge110" class="edge">
<title>Node55&#45;&gt;Node37</title>
<path fill="none" stroke="#191970" d="M1204.7111,-459.3877C1202.4005,-445.4755 1196.3752,-419.583 1182,-403 1168.2439,-387.1311 1147.63,-375.8412 1130.0325,-368.4182"/>
<polygon fill="#191970" stroke="#191970" points="1131.215,-365.1221 1120.6291,-364.6877 1128.6336,-371.6287 1131.215,-365.1221"/>
</g>
<!-- Node55&#45;&gt;Node39 -->
<g id="edge106" class="edge">
<title>Node55&#45;&gt;Node39</title>
<path fill="none" stroke="#191970" d="M1221.6768,-459.2455C1235.4856,-450.6534 1255.8193,-438.0014 1271.7292,-428.1018"/>
<polygon fill="#191970" stroke="#191970" points="1273.8613,-430.8974 1280.5028,-422.6427 1270.1632,-424.954 1273.8613,-430.8974"/>
</g>
<!-- Node55&#45;&gt;Node50 -->
<g id="edge108" class="edge">
<title>Node55&#45;&gt;Node50</title>
<path fill="none" stroke="#191970" d="M1248.1514,-459.4869C1281.1014,-451.4503 1327.7424,-438.7432 1367,-423 1384.714,-415.8963 1387.6258,-410.8983 1405,-403 1431.9943,-390.7285 1463.2989,-378.7118 1487.0234,-370.0395"/>
<polygon fill="#191970" stroke="#191970" points="1488.4826,-373.2335 1496.6923,-366.5365 1486.0981,-366.6521 1488.4826,-373.2335"/>
</g>
<!-- Node56 -->
<g id="node49" class="node">
<title>Node56</title>
<g id="a_node49"><a xlink:href="IJoint_8h.html" target="_top" xlink:title="iDynTree/Model/IJoint.h">
<polygon fill="none" stroke="#000000" points="1414,-403.5 1414,-422.5 1542,-422.5 1542,-403.5 1414,-403.5"/>
<text text-anchor="middle" x="1478" y="-410.5" font-family="FreeSans.ttf" font-size="10.00" fill="#000000">iDynTree/Model/IJoint.h</text>
</a>
</g>
</g>
<!-- Node55&#45;&gt;Node56 -->
<g id="edge104" class="edge">
<title>Node55&#45;&gt;Node56</title>
<path fill="none" stroke="#191970" d="M1252.4494,-459.4369C1299.2935,-449.7925 1371.6539,-434.8948 1421.7262,-424.5858"/>
<polygon fill="#191970" stroke="#191970" points="1422.6534,-427.9684 1431.7422,-422.5237 1421.2418,-421.1122 1422.6534,-427.9684"/>
</g>
<!-- Node56&#45;&gt;Node50 -->
<g id="edge105" class="edge">
<title>Node56&#45;&gt;Node50</title>
<path fill="none" stroke="#191970" d="M1486.0126,-403.2455C1492.4768,-395.3761 1501.7385,-384.101 1509.4983,-374.6542"/>
<polygon fill="#191970" stroke="#191970" points="1512.4364,-376.5916 1516.0792,-366.6427 1507.0273,-372.1484 1512.4364,-376.5916"/>
</g>
</g>
</svg>
