<?xml version="1.0" encoding="UTF-8" standalone="no"?>
<!DOCTYPE svg PUBLIC "-//W3C//DTD SVG 1.1//EN"
 "http://www.w3.org/Graphics/SVG/1.1/DTD/svg11.dtd">
<!-- Generated by graphviz version 2.40.1 (20161225.0304)
 -->
<!-- Title: RobotElement.h Pages: 1 -->
<svg width="1317pt" height="532pt"
 viewBox="0.00 0.00 1316.87 532.00" xmlns="http://www.w3.org/2000/svg" xmlns:xlink="http://www.w3.org/1999/xlink">
<g id="graph0" class="graph" transform="scale(1 1) rotate(0) translate(4 528)">
<title>RobotElement.h</title>
<!-- Node0 -->
<g id="node1" class="node">
<title>Node0</title>
<polygon fill="#bfbfbf" stroke="#000000" points="820,-504.5 820,-523.5 914,-523.5 914,-504.5 820,-504.5"/>
<text text-anchor="middle" x="867" y="-511.5" font-family="FreeSans.ttf" font-size="10.00" fill="#000000">RobotElement.h</text>
</g>
<!-- Node1 -->
<g id="node2" class="node">
<title>Node1</title>
<g id="a_node2"><a xlink:href="XMLElement_8h.html" target="_top" xlink:title="iDynTree/XMLElement.h">
<polygon fill="none" stroke="#000000" points="934,-336.5 934,-355.5 1066,-355.5 1066,-336.5 934,-336.5"/>
<text text-anchor="middle" x="1000" y="-343.5" font-family="FreeSans.ttf" font-size="10.00" fill="#000000">iDynTree/XMLElement.h</text>
</a>
</g>
</g>
<!-- Node0&#45;&gt;Node1 -->
<g id="edge1" class="edge">
<title>Node0&#45;&gt;Node1</title>
<path fill="none" stroke="#191970" d="M903.4458,-504.464C923.5945,-497.452 947.5945,-485.952 963,-468 988.2372,-438.5912 996.2606,-392.3412 998.8113,-366.0437"/>
<polygon fill="#191970" stroke="#191970" points="1002.3221,-366.0441 999.6222,-355.7991 995.3439,-365.4917 1002.3221,-366.0441"/>
</g>
<!-- Node5 -->
<g id="node6" class="node">
<title>Node5</title>
<polygon fill="none" stroke="#bfbfbf" points="392.5,-280.5 392.5,-299.5 485.5,-299.5 485.5,-280.5 392.5,-280.5"/>
<text text-anchor="middle" x="439" y="-287.5" font-family="FreeSans.ttf" font-size="10.00" fill="#000000">unordered_map</text>
</g>
<!-- Node0&#45;&gt;Node5 -->
<g id="edge78" class="edge">
<title>Node0&#45;&gt;Node5</title>
<path fill="none" stroke="#191970" d="M826.4791,-504.4868C765.9232,-489.4339 649.0854,-457.1325 557,-412 517.0413,-392.4156 503.756,-389.0882 474,-356 461.6985,-342.3209 452.2839,-323.5383 446.3337,-309.5071"/>
<polygon fill="#191970" stroke="#191970" points="449.4385,-307.8459 442.4683,-299.8668 442.9413,-310.4511 449.4385,-307.8459"/>
</g>
<!-- Node6 -->
<g id="node7" class="node">
<title>Node6</title>
<polygon fill="none" stroke="#bfbfbf" points="1249.5,-280.5 1249.5,-299.5 1296.5,-299.5 1296.5,-280.5 1249.5,-280.5"/>
<text text-anchor="middle" x="1273" y="-287.5" font-family="FreeSans.ttf" font-size="10.00" fill="#000000">vector</text>
</g>
<!-- Node0&#45;&gt;Node6 -->
<g id="edge79" class="edge">
<title>Node0&#45;&gt;Node6</title>
<path fill="none" stroke="#191970" d="M914.3211,-509.1929C1014.0557,-498.0636 1240.8785,-467.1729 1292,-412 1315.1179,-387.05 1310.1838,-368.7505 1301,-336 1298.2122,-326.0584 1292.6188,-316.1336 1287.1593,-308.0613"/>
<polygon fill="#191970" stroke="#191970" points="1289.9048,-305.8849 1281.2089,-299.8323 1284.2324,-309.9866 1289.9048,-305.8849"/>
</g>
<!-- Node7 -->
<g id="node8" class="node">
<title>Node7</title>
<g id="a_node8"><a xlink:href="JointElement_8h.html" target="_top" xlink:title="JointElement.h">
<polygon fill="none" stroke="#000000" points="628,-392.5 628,-411.5 716,-411.5 716,-392.5 628,-392.5"/>
<text text-anchor="middle" x="672" y="-399.5" font-family="FreeSans.ttf" font-size="10.00" fill="#000000">JointElement.h</text>
</a>
</g>
</g>
<!-- Node0&#45;&gt;Node7 -->
<g id="edge7" class="edge">
<title>Node0&#45;&gt;Node7</title>
<path fill="none" stroke="#191970" d="M850.3744,-504.4509C816.1958,-484.8201 737.8576,-439.8259 697.3277,-416.5472"/>
<polygon fill="#191970" stroke="#191970" points="698.9982,-413.4705 688.5835,-411.5249 695.5118,-419.5405 698.9982,-413.4705"/>
</g>
<!-- Node33 -->
<g id="node34" class="node">
<title>Node33</title>
<g id="a_node34"><a xlink:href="MaterialElement_8h.html" target="_top" xlink:title="MaterialElement.h">
<polygon fill="none" stroke="#000000" points="772,-392.5 772,-411.5 878,-411.5 878,-392.5 772,-392.5"/>
<text text-anchor="middle" x="825" y="-399.5" font-family="FreeSans.ttf" font-size="10.00" fill="#000000">MaterialElement.h</text>
</a>
</g>
</g>
<!-- Node0&#45;&gt;Node33 -->
<g id="edge60" class="edge">
<title>Node0&#45;&gt;Node33</title>
<path fill="none" stroke="#191970" d="M863.0684,-504.1561C859.3745,-494.86 853.7238,-480.5164 849,-468 843.0892,-452.3385 836.6153,-434.4921 831.8824,-421.3092"/>
<polygon fill="#191970" stroke="#191970" points="835.1685,-420.1037 828.504,-411.8675 828.5777,-422.462 835.1685,-420.1037"/>
</g>
<!-- Node34 -->
<g id="node35" class="node">
<title>Node34</title>
<g id="a_node35"><a xlink:href="VisualElement_8h.html" target="_top" xlink:title="VisualElement.h">
<polygon fill="none" stroke="#000000" points="858,-448.5 858,-467.5 954,-467.5 954,-448.5 858,-448.5"/>
<text text-anchor="middle" x="906" y="-455.5" font-family="FreeSans.ttf" font-size="10.00" fill="#000000">VisualElement.h</text>
</a>
</g>
</g>
<!-- Node0&#45;&gt;Node34 -->
<g id="edge65" class="edge">
<title>Node0&#45;&gt;Node34</title>
<path fill="none" stroke="#191970" d="M873.7933,-504.2455C879.2178,-496.4564 886.9661,-485.3308 893.5033,-475.9439"/>
<polygon fill="#191970" stroke="#191970" points="896.4417,-477.849 899.2846,-467.6427 890.6975,-473.8485 896.4417,-477.849"/>
</g>
<!-- Node2 -->
<g id="node3" class="node">
<title>Node2</title>
<polygon fill="none" stroke="#bfbfbf" points="962.5,-280.5 962.5,-299.5 1027.5,-299.5 1027.5,-280.5 962.5,-280.5"/>
<text text-anchor="middle" x="995" y="-287.5" font-family="FreeSans.ttf" font-size="10.00" fill="#000000">functional</text>
</g>
<!-- Node1&#45;&gt;Node2 -->
<g id="edge2" class="edge">
<title>Node1&#45;&gt;Node2</title>
<path fill="none" stroke="#191970" d="M999.1291,-336.2455C998.4766,-328.9382 997.562,-318.6944 996.7593,-309.7046"/>
<polygon fill="#191970" stroke="#191970" points="1000.2365,-309.2918 995.861,-299.6427 993.2642,-309.9143 1000.2365,-309.2918"/>
</g>
<!-- Node3 -->
<g id="node4" class="node">
<title>Node3</title>
<polygon fill="none" stroke="#bfbfbf" points="886,-280.5 886,-299.5 944,-299.5 944,-280.5 886,-280.5"/>
<text text-anchor="middle" x="915" y="-287.5" font-family="FreeSans.ttf" font-size="10.00" fill="#000000">memory</text>
</g>
<!-- Node1&#45;&gt;Node3 -->
<g id="edge3" class="edge">
<title>Node1&#45;&gt;Node3</title>
<path fill="none" stroke="#191970" d="M985.1941,-336.2455C972.2744,-327.7337 953.3069,-315.2375 938.3448,-305.3801"/>
<polygon fill="#191970" stroke="#191970" points="939.9124,-302.2216 929.6362,-299.6427 936.0613,-308.067 939.9124,-302.2216"/>
</g>
<!-- Node4 -->
<g id="node5" class="node">
<title>Node4</title>
<polygon fill="none" stroke="#bfbfbf" points="736,-56.5 736,-75.5 780,-75.5 780,-56.5 736,-56.5"/>
<text text-anchor="middle" x="758" y="-63.5" font-family="FreeSans.ttf" font-size="10.00" fill="#000000">string</text>
</g>
<!-- Node1&#45;&gt;Node4 -->
<g id="edge4" class="edge">
<title>Node1&#45;&gt;Node4</title>
<path fill="none" stroke="#191970" d="M1011.1502,-336.3293C1020.0671,-327.8007 1031.8921,-314.5 1037,-300 1053.3403,-253.614 1027.3012,-215.1662 992,-168 967.9183,-135.8242 956.8055,-130.2531 921,-112 898.1666,-100.3599 830.8467,-83.2423 790.2151,-73.5046"/>
<polygon fill="#191970" stroke="#191970" points="790.7962,-70.0453 780.2579,-71.1379 789.1775,-76.8556 790.7962,-70.0453"/>
</g>
<!-- Node1&#45;&gt;Node5 -->
<g id="edge5" class="edge">
<title>Node1&#45;&gt;Node5</title>
<path fill="none" stroke="#191970" d="M933.9965,-339.4114C822.8551,-328.3171 600.2724,-306.0985 495.716,-295.6615"/>
<polygon fill="#191970" stroke="#191970" points="495.9703,-292.1696 485.672,-294.6589 495.2749,-299.1349 495.9703,-292.1696"/>
</g>
<!-- Node1&#45;&gt;Node6 -->
<g id="edge6" class="edge">
<title>Node1&#45;&gt;Node6</title>
<path fill="none" stroke="#191970" d="M1046.6202,-336.4369C1101.3854,-325.203 1190.8982,-306.8414 1239.3303,-296.9066"/>
<polygon fill="#191970" stroke="#191970" points="1240.2053,-300.3001 1249.298,-294.862 1238.7986,-293.4429 1240.2053,-300.3001"/>
</g>
<!-- Node7&#45;&gt;Node1 -->
<g id="edge8" class="edge">
<title>Node7&#45;&gt;Node1</title>
<path fill="none" stroke="#191970" d="M716.2355,-394.4476C772.2549,-384.8833 869.267,-368.3203 934.041,-357.2613"/>
<polygon fill="#191970" stroke="#191970" points="934.8805,-360.6687 944.1488,-355.5356 933.7024,-353.7685 934.8805,-360.6687"/>
</g>
<!-- Node7&#45;&gt;Node3 -->
<g id="edge57" class="edge">
<title>Node7&#45;&gt;Node3</title>
<path fill="none" stroke="#191970" d="M693.3021,-392.3556C713.7577,-383.0808 745.519,-368.6442 773,-356 811.8299,-338.134 856.5262,-317.3182 885.2364,-303.915"/>
<polygon fill="#191970" stroke="#191970" points="886.7489,-307.0715 894.3284,-299.6687 883.7868,-300.7291 886.7489,-307.0715"/>
</g>
<!-- Node7&#45;&gt;Node4 -->
<g id="edge58" class="edge">
<title>Node7&#45;&gt;Node4</title>
<path fill="none" stroke="#191970" d="M650.8827,-392.4306C626.8341,-380.1888 592.8398,-357.9357 609,-336 641.0178,-292.5392 687.2251,-338.562 725,-300 746.3605,-278.1944 744,-264.5246 744,-234 744,-234 744,-234 744,-178 744,-145.311 749.9446,-107.6669 754.0866,-85.4058"/>
<polygon fill="#191970" stroke="#191970" points="757.5324,-86.0207 755.9941,-75.5381 750.6597,-84.692 757.5324,-86.0207"/>
</g>
<!-- Node7&#45;&gt;Node5 -->
<g id="edge59" class="edge">
<title>Node7&#45;&gt;Node5</title>
<path fill="none" stroke="#191970" d="M636.2995,-392.4734C608.7116,-384.4698 569.968,-371.8123 538,-356 509.0983,-341.7044 478.635,-320.3043 459.2597,-305.7783"/>
<polygon fill="#191970" stroke="#191970" points="461.2622,-302.9041 451.1833,-299.6382 457.0257,-308.4766 461.2622,-302.9041"/>
</g>
<!-- Node8 -->
<g id="node9" class="node">
<title>Node8</title>
<g id="a_node9"><a xlink:href="Axis_8h.html" target="_top" xlink:title="iDynTree/Core/Axis.h">
<polygon fill="none" stroke="#000000" points="139,-336.5 139,-355.5 257,-355.5 257,-336.5 139,-336.5"/>
<text text-anchor="middle" x="198" y="-343.5" font-family="FreeSans.ttf" font-size="10.00" fill="#000000">iDynTree/Core/Axis.h</text>
</a>
</g>
</g>
<!-- Node7&#45;&gt;Node8 -->
<g id="edge9" class="edge">
<title>Node7&#45;&gt;Node8</title>
<path fill="none" stroke="#191970" d="M627.8329,-396.7819C545.1491,-387.0134 366.4354,-365.8995 267.4717,-354.2076"/>
<polygon fill="#191970" stroke="#191970" points="267.614,-350.7002 257.2724,-353.0026 266.7927,-357.6518 267.614,-350.7002"/>
</g>
<!-- Node32 -->
<g id="node33" class="node">
<title>Node32</title>
<g id="a_node33"><a xlink:href="Transform_8h.html" target="_top" xlink:title="iDynTree/Core/Transform.h">
<polygon fill="none" stroke="#000000" points="618,-336.5 618,-355.5 764,-355.5 764,-336.5 618,-336.5"/>
<text text-anchor="middle" x="691" y="-343.5" font-family="FreeSans.ttf" font-size="10.00" fill="#000000">iDynTree/Core/Transform.h</text>
</a>
</g>
</g>
<!-- Node7&#45;&gt;Node32 -->
<g id="edge52" class="edge">
<title>Node7&#45;&gt;Node32</title>
<path fill="none" stroke="#191970" d="M675.3095,-392.2455C677.8433,-384.7776 681.4177,-374.2427 684.515,-365.1137"/>
<polygon fill="#191970" stroke="#191970" points="687.8298,-366.237 687.7284,-355.6427 681.2009,-363.9879 687.8298,-366.237"/>
</g>
<!-- Node8&#45;&gt;Node4 -->
<g id="edge10" class="edge">
<title>Node8&#45;&gt;Node4</title>
<path fill="none" stroke="#191970" d="M198,-336.4116C198,-317.0538 198,-271.9167 198,-234 198,-234 198,-234 198,-178 198,-123.8032 606.5174,-80.4824 725.7187,-68.9955"/>
<polygon fill="#191970" stroke="#191970" points="726.0794,-72.477 735.7018,-68.043 725.4145,-65.5087 726.0794,-72.477"/>
</g>
<!-- Node9 -->
<g id="node10" class="node">
<title>Node9</title>
<g id="a_node10"><a xlink:href="Direction_8h.html" target="_top" xlink:title="iDynTree/Core/Direction.h">
<polygon fill="none" stroke="#000000" points="28.5,-168.5 28.5,-187.5 169.5,-187.5 169.5,-168.5 28.5,-168.5"/>
<text text-anchor="middle" x="99" y="-175.5" font-family="FreeSans.ttf" font-size="10.00" fill="#000000">iDynTree/Core/Direction.h</text>
</a>
</g>
</g>
<!-- Node8&#45;&gt;Node9 -->
<g id="edge11" class="edge">
<title>Node8&#45;&gt;Node9</title>
<path fill="none" stroke="#191970" d="M192.3937,-336.4862C176.5408,-309.5845 131.1746,-232.5994 110.0593,-196.7673"/>
<polygon fill="#191970" stroke="#191970" points="112.8838,-194.6663 104.7914,-187.8279 106.853,-198.2202 112.8838,-194.6663"/>
</g>
<!-- Node11 -->
<g id="node12" class="node">
<title>Node11</title>
<g id="a_node12"><a xlink:href="Utils_8h.html" target="_top" xlink:title="iDynTree/Core/Utils.h">
<polygon fill="none" stroke="#000000" points="68.5,-56.5 68.5,-75.5 187.5,-75.5 187.5,-56.5 68.5,-56.5"/>
<text text-anchor="middle" x="128" y="-63.5" font-family="FreeSans.ttf" font-size="10.00" fill="#000000">iDynTree/Core/Utils.h</text>
</a>
</g>
</g>
<!-- Node8&#45;&gt;Node11 -->
<g id="edge51" class="edge">
<title>Node8&#45;&gt;Node11</title>
<path fill="none" stroke="#191970" d="M138.8617,-337.9371C80.5178,-326.2631 0,-298.4729 0,-234 0,-234 0,-234 0,-178 0,-128.8656 54.079,-96.2862 91.9349,-79.4994"/>
<polygon fill="#191970" stroke="#191970" points="93.3356,-82.7072 101.167,-75.5714 90.595,-76.2659 93.3356,-82.7072"/>
</g>
<!-- Node25 -->
<g id="node26" class="node">
<title>Node25</title>
<g id="a_node26"><a xlink:href="Position_8h.html" target="_top" xlink:title="iDynTree/Core/Position.h">
<polygon fill="none" stroke="#000000" points="580,-280.5 580,-299.5 716,-299.5 716,-280.5 580,-280.5"/>
<text text-anchor="middle" x="648" y="-287.5" font-family="FreeSans.ttf" font-size="10.00" fill="#000000">iDynTree/Core/Position.h</text>
</a>
</g>
</g>
<!-- Node8&#45;&gt;Node25 -->
<g id="edge32" class="edge">
<title>Node8&#45;&gt;Node25</title>
<path fill="none" stroke="#191970" d="M257.2924,-338.6214C337.4942,-328.6407 480.7284,-310.816 569.703,-299.7436"/>
<polygon fill="#191970" stroke="#191970" points="570.2504,-303.2026 579.7416,-298.4944 569.3859,-296.2562 570.2504,-303.2026"/>
</g>
<!-- Node9&#45;&gt;Node4 -->
<g id="edge12" class="edge">
<title>Node9&#45;&gt;Node4</title>
<path fill="none" stroke="#191970" d="M107.7834,-168.2253C122.0611,-153.0901 151.9506,-124.4344 184,-112 209.4199,-102.1377 608.4702,-75.6716 725.7962,-68.0687"/>
<polygon fill="#191970" stroke="#191970" points="726.1874,-71.5508 735.9408,-67.4128 725.7358,-64.5653 726.1874,-71.5508"/>
</g>
<!-- Node10 -->
<g id="node11" class="node">
<title>Node10</title>
<g id="a_node11"><a xlink:href="VectorFixSize_8h.html" target="_top" xlink:title="iDynTree/Core/VectorFixSize.h">
<polygon fill="none" stroke="#000000" points="417.5,-112.5 417.5,-131.5 578.5,-131.5 578.5,-112.5 417.5,-112.5"/>
<text text-anchor="middle" x="498" y="-119.5" font-family="FreeSans.ttf" font-size="10.00" fill="#000000">iDynTree/Core/VectorFixSize.h</text>
</a>
</g>
</g>
<!-- Node9&#45;&gt;Node10 -->
<g id="edge13" class="edge">
<title>Node9&#45;&gt;Node10</title>
<path fill="none" stroke="#191970" d="M167.1372,-168.4369C237.2879,-158.5912 346.448,-143.2705 420.0082,-132.9462"/>
<polygon fill="#191970" stroke="#191970" points="420.7274,-136.3797 430.1438,-131.5237 419.7544,-129.4476 420.7274,-136.3797"/>
</g>
<!-- Node9&#45;&gt;Node11 -->
<g id="edge31" class="edge">
<title>Node9&#45;&gt;Node11</title>
<path fill="none" stroke="#191970" d="M101.4725,-168.4509C106.2238,-150.1013 116.7131,-109.5908 122.9847,-85.3693"/>
<polygon fill="#191970" stroke="#191970" points="126.4153,-86.083 125.5337,-75.5249 119.6388,-84.3283 126.4153,-86.083"/>
</g>
<!-- Node10&#45;&gt;Node4 -->
<g id="edge27" class="edge">
<title>Node10&#45;&gt;Node4</title>
<path fill="none" stroke="#191970" d="M542.4002,-112.4369C594.4734,-101.2211 679.5328,-82.9006 725.7101,-72.9548"/>
<polygon fill="#191970" stroke="#191970" points="726.7204,-76.3175 735.7593,-70.7903 725.2465,-69.4744 726.7204,-76.3175"/>
</g>
<!-- Node10&#45;&gt;Node11 -->
<g id="edge14" class="edge">
<title>Node10&#45;&gt;Node11</title>
<path fill="none" stroke="#191970" d="M434.8151,-112.4369C368.9494,-102.468 265.9989,-86.8863 197.7791,-76.5612"/>
<polygon fill="#191970" stroke="#191970" points="197.9684,-73.05 187.5572,-75.0141 196.9208,-79.9712 197.9684,-73.05"/>
</g>
<!-- Node14 -->
<g id="node15" class="node">
<title>Node14</title>
<g id="a_node15"><a xlink:href="Span_8h.html" target="_top" xlink:title="iDynTree/Core/Span.h">
<polygon fill="none" stroke="#000000" points="437.5,-56.5 437.5,-75.5 558.5,-75.5 558.5,-56.5 437.5,-56.5"/>
<text text-anchor="middle" x="498" y="-63.5" font-family="FreeSans.ttf" font-size="10.00" fill="#000000">iDynTree/Core/Span.h</text>
</a>
</g>
</g>
<!-- Node10&#45;&gt;Node14 -->
<g id="edge17" class="edge">
<title>Node10&#45;&gt;Node14</title>
<path fill="none" stroke="#191970" d="M498,-112.2455C498,-104.9382 498,-94.6944 498,-85.7046"/>
<polygon fill="#191970" stroke="#191970" points="501.5001,-85.6426 498,-75.6427 494.5001,-85.6427 501.5001,-85.6426"/>
</g>
<!-- Node15 -->
<g id="node16" class="node">
<title>Node15</title>
<polygon fill="none" stroke="#bfbfbf" points="755,-.5 755,-19.5 807,-19.5 807,-.5 755,-.5"/>
<text text-anchor="middle" x="781" y="-7.5" font-family="FreeSans.ttf" font-size="10.00" fill="#000000">cassert</text>
</g>
<!-- Node10&#45;&gt;Node15 -->
<g id="edge29" class="edge">
<title>Node10&#45;&gt;Node15</title>
<path fill="none" stroke="#191970" d="M522.1284,-112.4509C572.6711,-92.4482 689.7534,-46.1117 747.5259,-23.2477"/>
<polygon fill="#191970" stroke="#191970" points="748.9223,-26.4592 756.9327,-19.5249 746.3464,-19.9504 748.9223,-26.4592"/>
</g>
<!-- Node23 -->
<g id="node24" class="node">
<title>Node23</title>
<polygon fill="none" stroke="#bfbfbf" points="813,-56.5 813,-75.5 869,-75.5 869,-56.5 813,-56.5"/>
<text text-anchor="middle" x="841" y="-63.5" font-family="FreeSans.ttf" font-size="10.00" fill="#000000">sstream</text>
</g>
<!-- Node10&#45;&gt;Node23 -->
<g id="edge28" class="edge">
<title>Node10&#45;&gt;Node23</title>
<path fill="none" stroke="#191970" d="M562.2521,-112.4698C621.2848,-103.5651 711.1609,-89.6329 789,-76 793.5022,-75.2115 798.217,-74.352 802.8921,-73.479"/>
<polygon fill="#191970" stroke="#191970" points="803.7924,-76.8707 812.9649,-71.5682 802.4878,-69.9933 803.7924,-76.8707"/>
</g>
<!-- Node24 -->
<g id="node25" class="node">
<title>Node24</title>
<polygon fill="none" stroke="#bfbfbf" points="999,-56.5 999,-75.5 1049,-75.5 1049,-56.5 999,-56.5"/>
<text text-anchor="middle" x="1024" y="-63.5" font-family="FreeSans.ttf" font-size="10.00" fill="#000000">cstring</text>
</g>
<!-- Node10&#45;&gt;Node24 -->
<g id="edge30" class="edge">
<title>Node10&#45;&gt;Node24</title>
<path fill="none" stroke="#191970" d="M578.7475,-113.4033C695.2924,-100.9955 905.7727,-78.5869 988.8812,-69.7389"/>
<polygon fill="#191970" stroke="#191970" points="989.2553,-73.2189 998.8286,-68.6798 988.5142,-66.2583 989.2553,-73.2189"/>
</g>
<!-- Node12 -->
<g id="node13" class="node">
<title>Node12</title>
<polygon fill="none" stroke="#bfbfbf" points="173.5,-.5 173.5,-19.5 226.5,-19.5 226.5,-.5 173.5,-.5"/>
<text text-anchor="middle" x="200" y="-7.5" font-family="FreeSans.ttf" font-size="10.00" fill="#000000">cstddef</text>
</g>
<!-- Node11&#45;&gt;Node12 -->
<g id="edge15" class="edge">
<title>Node11&#45;&gt;Node12</title>
<path fill="none" stroke="#191970" d="M140.5414,-56.2455C151.2787,-47.8943 166.9473,-35.7076 179.5047,-25.9408"/>
<polygon fill="#191970" stroke="#191970" points="181.8575,-28.5449 187.6023,-19.6427 177.5599,-23.0194 181.8575,-28.5449"/>
</g>
<!-- Node13 -->
<g id="node14" class="node">
<title>Node13</title>
<polygon fill="none" stroke="#bfbfbf" points="75,-.5 75,-19.5 155,-19.5 155,-.5 75,-.5"/>
<text text-anchor="middle" x="115" y="-7.5" font-family="FreeSans.ttf" font-size="10.00" fill="#000000">CoreExport.h</text>
</g>
<!-- Node11&#45;&gt;Node13 -->
<g id="edge16" class="edge">
<title>Node11&#45;&gt;Node13</title>
<path fill="none" stroke="#191970" d="M125.7356,-56.2455C124.0206,-48.8579 121.6088,-38.4689 119.5056,-29.4087"/>
<polygon fill="#191970" stroke="#191970" points="122.9092,-28.5922 117.2385,-19.6427 116.0905,-30.1751 122.9092,-28.5922"/>
</g>
<!-- Node14&#45;&gt;Node12 -->
<g id="edge21" class="edge">
<title>Node14&#45;&gt;Node12</title>
<path fill="none" stroke="#191970" d="M437.3141,-57.2408C386.0746,-49.4238 310.6074,-36.9267 236.6309,-20.2118"/>
<polygon fill="#191970" stroke="#191970" points="237.2067,-16.7532 226.678,-17.9349 235.6456,-23.5769 237.2067,-16.7532"/>
</g>
<!-- Node14&#45;&gt;Node15 -->
<g id="edge18" class="edge">
<title>Node14&#45;&gt;Node15</title>
<path fill="none" stroke="#191970" d="M558.2161,-56.4756C606.3796,-48.4826 675.7999,-36.1259 744.9443,-20.0915"/>
<polygon fill="#191970" stroke="#191970" points="745.76,-23.4953 754.6969,-17.8047 744.1619,-16.6801 745.76,-23.4953"/>
</g>
<!-- Node16 -->
<g id="node17" class="node">
<title>Node16</title>
<polygon fill="none" stroke="#bfbfbf" points="395,-.5 395,-19.5 459,-19.5 459,-.5 395,-.5"/>
<text text-anchor="middle" x="427" y="-7.5" font-family="FreeSans.ttf" font-size="10.00" fill="#000000">algorithm</text>
</g>
<!-- Node14&#45;&gt;Node16 -->
<g id="edge19" class="edge">
<title>Node14&#45;&gt;Node16</title>
<path fill="none" stroke="#191970" d="M485.6327,-56.2455C475.0446,-47.8943 459.5936,-35.7076 447.2107,-25.9408"/>
<polygon fill="#191970" stroke="#191970" points="449.2447,-23.0875 439.2255,-19.6427 444.9097,-28.5837 449.2447,-23.0875"/>
</g>
<!-- Node17 -->
<g id="node18" class="node">
<title>Node17</title>
<polygon fill="none" stroke="#bfbfbf" points="477,-.5 477,-19.5 519,-19.5 519,-.5 477,-.5"/>
<text text-anchor="middle" x="498" y="-7.5" font-family="FreeSans.ttf" font-size="10.00" fill="#000000">array</text>
</g>
<!-- Node14&#45;&gt;Node17 -->
<g id="edge20" class="edge">
<title>Node14&#45;&gt;Node17</title>
<path fill="none" stroke="#191970" d="M498,-56.2455C498,-48.9382 498,-38.6944 498,-29.7046"/>
<polygon fill="#191970" stroke="#191970" points="501.5001,-29.6426 498,-19.6427 494.5001,-29.6427 501.5001,-29.6426"/>
</g>
<!-- Node18 -->
<g id="node19" class="node">
<title>Node18</title>
<polygon fill="none" stroke="#bfbfbf" points="537.5,-.5 537.5,-19.5 590.5,-19.5 590.5,-.5 537.5,-.5"/>
<text text-anchor="middle" x="564" y="-7.5" font-family="FreeSans.ttf" font-size="10.00" fill="#000000">iterator</text>
</g>
<!-- Node14&#45;&gt;Node18 -->
<g id="edge22" class="edge">
<title>Node14&#45;&gt;Node18</title>
<path fill="none" stroke="#191970" d="M509.4963,-56.2455C519.2442,-47.9746 533.4259,-35.9416 544.8798,-26.2232"/>
<polygon fill="#191970" stroke="#191970" points="547.2747,-28.7813 552.6354,-19.6427 542.7459,-23.4437 547.2747,-28.7813"/>
</g>
<!-- Node19 -->
<g id="node20" class="node">
<title>Node19</title>
<polygon fill="none" stroke="#bfbfbf" points="609,-.5 609,-19.5 653,-19.5 653,-.5 609,-.5"/>
<text text-anchor="middle" x="631" y="-7.5" font-family="FreeSans.ttf" font-size="10.00" fill="#000000">limits</text>
</g>
<!-- Node14&#45;&gt;Node19 -->
<g id="edge23" class="edge">
<title>Node14&#45;&gt;Node19</title>
<path fill="none" stroke="#191970" d="M520.8635,-56.3733C542.5355,-47.2482 575.2779,-33.462 599.4331,-23.2913"/>
<polygon fill="#191970" stroke="#191970" points="601.0186,-26.4214 608.8768,-19.315 598.3022,-19.9699 601.0186,-26.4214"/>
</g>
<!-- Node20 -->
<g id="node21" class="node">
<title>Node20</title>
<polygon fill="none" stroke="#bfbfbf" points="671.5,-.5 671.5,-19.5 736.5,-19.5 736.5,-.5 671.5,-.5"/>
<text text-anchor="middle" x="704" y="-7.5" font-family="FreeSans.ttf" font-size="10.00" fill="#000000">stdexcept</text>
</g>
<!-- Node14&#45;&gt;Node20 -->
<g id="edge24" class="edge">
<title>Node14&#45;&gt;Node20</title>
<path fill="none" stroke="#191970" d="M533.4127,-56.3733C568.9997,-46.6991 623.8589,-31.7859 661.7097,-21.4964"/>
<polygon fill="#191970" stroke="#191970" points="662.6919,-24.8565 671.4235,-18.8557 660.8556,-18.1016 662.6919,-24.8565"/>
</g>
<!-- Node21 -->
<g id="node22" class="node">
<title>Node21</title>
<polygon fill="none" stroke="#bfbfbf" points="244.5,-.5 244.5,-19.5 313.5,-19.5 313.5,-.5 244.5,-.5"/>
<text text-anchor="middle" x="279" y="-7.5" font-family="FreeSans.ttf" font-size="10.00" fill="#000000">type_traits</text>
</g>
<!-- Node14&#45;&gt;Node21 -->
<g id="edge25" class="edge">
<title>Node14&#45;&gt;Node21</title>
<path fill="none" stroke="#191970" d="M460.3526,-56.3733C422.3588,-46.6579 363.7018,-31.6589 323.4464,-21.3653"/>
<polygon fill="#191970" stroke="#191970" points="324.1876,-17.9423 313.6323,-18.8557 322.4534,-24.7241 324.1876,-17.9423"/>
</g>
<!-- Node22 -->
<g id="node23" class="node">
<title>Node22</title>
<polygon fill="none" stroke="#bfbfbf" points="331.5,-.5 331.5,-19.5 376.5,-19.5 376.5,-.5 331.5,-.5"/>
<text text-anchor="middle" x="354" y="-7.5" font-family="FreeSans.ttf" font-size="10.00" fill="#000000">utility</text>
</g>
<!-- Node14&#45;&gt;Node22 -->
<g id="edge26" class="edge">
<title>Node14&#45;&gt;Node22</title>
<path fill="none" stroke="#191970" d="M473.2455,-56.3733C449.1447,-47.0007 412.399,-32.7107 386.0707,-22.472"/>
<polygon fill="#191970" stroke="#191970" points="387.127,-19.1274 376.5383,-18.7649 384.5898,-25.6514 387.127,-19.1274"/>
</g>
<!-- Node25&#45;&gt;Node4 -->
<g id="edge50" class="edge">
<title>Node25&#45;&gt;Node4</title>
<path fill="none" stroke="#191970" d="M652.0596,-280.1617C663.395,-252.9334 696.741,-174.4683 730,-112 734.98,-102.6463 741.039,-92.5581 746.2453,-84.2193"/>
<polygon fill="#191970" stroke="#191970" points="749.2603,-86.0003 751.6581,-75.6803 743.348,-82.2525 749.2603,-86.0003"/>
</g>
<!-- Node26 -->
<g id="node27" class="node">
<title>Node26</title>
<g id="a_node27"><a xlink:href="PositionRaw_8h.html" target="_top" xlink:title="iDynTree/Core/PositionRaw.h">
<polygon fill="none" stroke="#000000" points="484,-168.5 484,-187.5 640,-187.5 640,-168.5 484,-168.5"/>
<text text-anchor="middle" x="562" y="-175.5" font-family="FreeSans.ttf" font-size="10.00" fill="#000000">iDynTree/Core/PositionRaw.h</text>
</a>
</g>
</g>
<!-- Node25&#45;&gt;Node26 -->
<g id="edge33" class="edge">
<title>Node25&#45;&gt;Node26</title>
<path fill="none" stroke="#191970" d="M647.0494,-280.1548C645.3011,-266.416 640.5242,-241.2434 628,-224 618.5553,-210.9964 604.2663,-200.3888 591.3962,-192.6506"/>
<polygon fill="#191970" stroke="#191970" points="592.7905,-189.4177 582.3652,-187.5298 589.3377,-195.5069 592.7905,-189.4177"/>
</g>
<!-- Node27 -->
<g id="node28" class="node">
<title>Node27</title>
<g id="a_node28"><a xlink:href="Rotation_8h.html" target="_top" xlink:title="iDynTree/Core/Rotation.h">
<polygon fill="none" stroke="#000000" points="482.5,-224.5 482.5,-243.5 619.5,-243.5 619.5,-224.5 482.5,-224.5"/>
<text text-anchor="middle" x="551" y="-231.5" font-family="FreeSans.ttf" font-size="10.00" fill="#000000">iDynTree/Core/Rotation.h</text>
</a>
</g>
</g>
<!-- Node25&#45;&gt;Node27 -->
<g id="edge36" class="edge">
<title>Node25&#45;&gt;Node27</title>
<path fill="none" stroke="#191970" d="M631.1039,-280.2455C616.082,-271.5731 593.8957,-258.7645 576.679,-248.825"/>
<polygon fill="#191970" stroke="#191970" points="578.1128,-245.6114 567.7025,-243.6427 574.6129,-251.6737 578.1128,-245.6114"/>
</g>
<!-- Node26&#45;&gt;Node4 -->
<g id="edge35" class="edge">
<title>Node26&#45;&gt;Node4</title>
<path fill="none" stroke="#191970" d="M573.6721,-168.4189C590.645,-154.7737 623.4536,-129.4642 654,-112 677.3779,-98.6342 705.3678,-86.4526 726.4185,-77.9876"/>
<polygon fill="#191970" stroke="#191970" points="727.8409,-81.1889 735.852,-74.2554 725.2656,-74.6798 727.8409,-81.1889"/>
</g>
<!-- Node26&#45;&gt;Node10 -->
<g id="edge34" class="edge">
<title>Node26&#45;&gt;Node10</title>
<path fill="none" stroke="#191970" d="M550.8521,-168.2455C541.4913,-160.0549 527.9142,-148.1749 516.8651,-138.5069"/>
<polygon fill="#191970" stroke="#191970" points="518.8508,-135.5937 509.0202,-131.6427 514.2412,-140.8618 518.8508,-135.5937"/>
</g>
<!-- Node27&#45;&gt;Node4 -->
<g id="edge37" class="edge">
<title>Node27&#45;&gt;Node4</title>
<path fill="none" stroke="#191970" d="M583.5115,-224.4438C604.1544,-217.0958 630.3896,-205.2468 649,-188 677.4655,-161.6203 665.8744,-140.6989 692,-112 703.1217,-99.7829 718.0568,-89.0347 730.9067,-81.0065"/>
<polygon fill="#191970" stroke="#191970" points="733.0397,-83.8082 739.8106,-75.6593 729.4357,-77.8072 733.0397,-83.8082"/>
</g>
<!-- Node27&#45;&gt;Node10 -->
<g id="edge49" class="edge">
<title>Node27&#45;&gt;Node10</title>
<path fill="none" stroke="#191970" d="M521.4315,-224.3976C504.5892,-217.2338 484.9206,-205.6009 475,-188 466.4799,-172.8839 474.655,-154.0616 483.5321,-140.3902"/>
<polygon fill="#191970" stroke="#191970" points="486.6557,-142.0366 489.5934,-131.8571 480.9489,-137.9828 486.6557,-142.0366"/>
</g>
<!-- Node28 -->
<g id="node29" class="node">
<title>Node28</title>
<g id="a_node29"><a xlink:href="GeomVector3_8h.html" target="_top" xlink:title="iDynTree/Core/GeomVector3.h">
<polygon fill="none" stroke="#000000" points="264.5,-168.5 264.5,-187.5 427.5,-187.5 427.5,-168.5 264.5,-168.5"/>
<text text-anchor="middle" x="346" y="-175.5" font-family="FreeSans.ttf" font-size="10.00" fill="#000000">iDynTree/Core/GeomVector3.h</text>
</a>
</g>
</g>
<!-- Node27&#45;&gt;Node28 -->
<g id="edge38" class="edge">
<title>Node27&#45;&gt;Node28</title>
<path fill="none" stroke="#191970" d="M515.7592,-224.3733C481.0806,-214.9001 428.0117,-200.4032 390.4538,-190.1435"/>
<polygon fill="#191970" stroke="#191970" points="391.3498,-186.7601 380.7809,-187.5011 389.5051,-193.5126 391.3498,-186.7601"/>
</g>
<!-- Node29 -->
<g id="node30" class="node">
<title>Node29</title>
<g id="a_node30"><a xlink:href="RotationRaw_8h.html" target="_top" xlink:title="iDynTree/Core/RotationRaw.h">
<polygon fill="none" stroke="#000000" points="810,-168.5 810,-187.5 968,-187.5 968,-168.5 810,-168.5"/>
<text text-anchor="middle" x="889" y="-175.5" font-family="FreeSans.ttf" font-size="10.00" fill="#000000">iDynTree/Core/RotationRaw.h</text>
</a>
</g>
</g>
<!-- Node27&#45;&gt;Node29 -->
<g id="edge40" class="edge">
<title>Node27&#45;&gt;Node29</title>
<path fill="none" stroke="#191970" d="M608.7202,-224.4369C667.66,-214.6717 759.107,-199.5207 821.3966,-189.2006"/>
<polygon fill="#191970" stroke="#191970" points="822.2244,-192.6112 831.5178,-187.5237 821.0802,-185.7053 822.2244,-192.6112"/>
</g>
<!-- Node28&#45;&gt;Node10 -->
<g id="edge39" class="edge">
<title>Node28&#45;&gt;Node10</title>
<path fill="none" stroke="#191970" d="M372.1297,-168.3733C397.0768,-159.1822 434.8592,-145.2624 462.5206,-135.0713"/>
<polygon fill="#191970" stroke="#191970" points="464.0378,-138.2424 472.2112,-131.5011 461.6178,-131.674 464.0378,-138.2424"/>
</g>
<!-- Node29&#45;&gt;Node4 -->
<g id="edge48" class="edge">
<title>Node29&#45;&gt;Node4</title>
<path fill="none" stroke="#191970" d="M877.831,-168.4509C855.4017,-149.2747 804.6643,-105.8962 776.9468,-82.1988"/>
<polygon fill="#191970" stroke="#191970" points="779.0159,-79.363 769.1407,-75.5249 774.4671,-84.6835 779.0159,-79.363"/>
</g>
<!-- Node30 -->
<g id="node31" class="node">
<title>Node30</title>
<g id="a_node31"><a xlink:href="MatrixFixSize_8h.html" target="_top" xlink:title="iDynTree/Core/MatrixFixSize.h">
<polygon fill="none" stroke="#000000" points="1138.5,-112.5 1138.5,-131.5 1299.5,-131.5 1299.5,-112.5 1138.5,-112.5"/>
<text text-anchor="middle" x="1219" y="-119.5" font-family="FreeSans.ttf" font-size="10.00" fill="#000000">iDynTree/Core/MatrixFixSize.h</text>
</a>
</g>
</g>
<!-- Node29&#45;&gt;Node30 -->
<g id="edge41" class="edge">
<title>Node29&#45;&gt;Node30</title>
<path fill="none" stroke="#191970" d="M945.3541,-168.4369C1002.8989,-158.6717 1092.1814,-143.5207 1152.9967,-133.2006"/>
<polygon fill="#191970" stroke="#191970" points="1153.6049,-136.6475 1162.8784,-131.5237 1152.4337,-129.7461 1153.6049,-136.6475"/>
</g>
<!-- Node30&#45;&gt;Node4 -->
<g id="edge45" class="edge">
<title>Node30&#45;&gt;Node4</title>
<path fill="none" stroke="#191970" d="M1138.1065,-113.4901C1026.6858,-101.6986 836.058,-81.2468 804,-76 799.5237,-75.2674 794.8263,-74.3824 790.214,-73.4456"/>
<polygon fill="#191970" stroke="#191970" points="790.8814,-70.0093 780.3718,-71.3509 789.4241,-76.856 790.8814,-70.0093"/>
</g>
<!-- Node30&#45;&gt;Node11 -->
<g id="edge42" class="edge">
<title>Node30&#45;&gt;Node11</title>
<path fill="none" stroke="#191970" d="M1138.3331,-117.8594C932.6267,-107.3007 391.1243,-79.5059 197.816,-69.5836"/>
<polygon fill="#191970" stroke="#191970" points="197.9443,-66.0857 187.778,-69.0683 197.5854,-73.0765 197.9443,-66.0857"/>
</g>
<!-- Node30&#45;&gt;Node15 -->
<g id="edge43" class="edge">
<title>Node30&#45;&gt;Node15</title>
<path fill="none" stroke="#191970" d="M1199.6766,-112.4103C1169.95,-98.0449 1110.8872,-71.0251 1058,-56 973.3724,-31.9576 870.4035,-18.9526 817.0097,-13.3714"/>
<polygon fill="#191970" stroke="#191970" points="817.3153,-9.8845 807.0121,-12.353 816.6059,-16.8484 817.3153,-9.8845"/>
</g>
<!-- Node30&#45;&gt;Node23 -->
<g id="edge47" class="edge">
<title>Node30&#45;&gt;Node23</title>
<path fill="none" stroke="#191970" d="M1154.449,-112.4369C1075.3511,-100.7187 943.9032,-81.2449 879.2718,-71.6699"/>
<polygon fill="#191970" stroke="#191970" points="879.5245,-68.1692 869.1195,-70.1658 878.4986,-75.0936 879.5245,-68.1692"/>
</g>
<!-- Node30&#45;&gt;Node24 -->
<g id="edge44" class="edge">
<title>Node30&#45;&gt;Node24</title>
<path fill="none" stroke="#191970" d="M1185.4783,-112.3733C1150.1952,-102.2407 1094.8989,-86.3607 1059.0504,-76.0658"/>
<polygon fill="#191970" stroke="#191970" points="1059.6184,-72.5875 1049.0408,-73.1912 1057.6862,-79.3155 1059.6184,-72.5875"/>
</g>
<!-- Node31 -->
<g id="node32" class="node">
<title>Node31</title>
<polygon fill="none" stroke="#bfbfbf" points="1189,-56.5 1189,-75.5 1249,-75.5 1249,-56.5 1189,-56.5"/>
<text text-anchor="middle" x="1219" y="-63.5" font-family="FreeSans.ttf" font-size="10.00" fill="#000000">iostream</text>
</g>
<!-- Node30&#45;&gt;Node31 -->
<g id="edge46" class="edge">
<title>Node30&#45;&gt;Node31</title>
<path fill="none" stroke="#191970" d="M1219,-112.2455C1219,-104.9382 1219,-94.6944 1219,-85.7046"/>
<polygon fill="#191970" stroke="#191970" points="1222.5001,-85.6426 1219,-75.6427 1215.5001,-85.6427 1222.5001,-85.6426"/>
</g>
<!-- Node32&#45;&gt;Node4 -->
<g id="edge56" class="edge">
<title>Node32&#45;&gt;Node4</title>
<path fill="none" stroke="#191970" d="M711.1973,-336.3263C773.8526,-306.1193 961.6505,-214.0159 977,-188 981.5169,-180.3443 981.7777,-175.4957 977,-168 955.565,-134.3707 845.1322,-94.42 789.7494,-76.0958"/>
<polygon fill="#191970" stroke="#191970" points="790.6754,-72.7162 780.0828,-72.9323 788.4982,-79.369 790.6754,-72.7162"/>
</g>
<!-- Node32&#45;&gt;Node25 -->
<g id="edge53" class="edge">
<title>Node32&#45;&gt;Node25</title>
<path fill="none" stroke="#191970" d="M683.51,-336.2455C677.4674,-328.3761 668.8097,-317.101 661.5559,-307.6542"/>
<polygon fill="#191970" stroke="#191970" points="664.2705,-305.4426 655.4042,-299.6427 658.7185,-309.7058 664.2705,-305.4426"/>
</g>
<!-- Node32&#45;&gt;Node27 -->
<g id="edge54" class="edge">
<title>Node32&#45;&gt;Node27</title>
<path fill="none" stroke="#191970" d="M637.1899,-336.4281C614.0197,-329.778 588.3281,-318.6195 571,-300 559.415,-287.5515 554.5286,-268.6004 552.474,-254.1939"/>
<polygon fill="#191970" stroke="#191970" points="555.9083,-253.3942 551.3595,-243.8256 548.9484,-254.1424 555.9083,-253.3942"/>
</g>
<!-- Node32&#45;&gt;Node30 -->
<g id="edge55" class="edge">
<title>Node32&#45;&gt;Node30</title>
<path fill="none" stroke="#191970" d="M724.6403,-336.4655C753.8832,-327.8735 797.2109,-314.4085 834,-300 853.6256,-292.3136 857.8775,-288.8643 877,-280 992.2313,-226.5844 1129.4321,-163.2924 1188.968,-135.8429"/>
<polygon fill="#191970" stroke="#191970" points="1190.5559,-138.965 1198.1719,-131.5997 1187.6251,-132.608 1190.5559,-138.965"/>
</g>
<!-- Node33&#45;&gt;Node1 -->
<g id="edge61" class="edge">
<title>Node33&#45;&gt;Node1</title>
<path fill="none" stroke="#191970" d="M855.0836,-392.3733C884.1834,-383.0613 928.4523,-368.8953 960.403,-358.671"/>
<polygon fill="#191970" stroke="#191970" points="961.8515,-361.8824 970.309,-355.5011 959.718,-355.2155 961.8515,-361.8824"/>
</g>
<!-- Node33&#45;&gt;Node3 -->
<g id="edge63" class="edge">
<title>Node33&#45;&gt;Node3</title>
<path fill="none" stroke="#191970" d="M832.6733,-392.4509C847.8171,-373.6054 881.7443,-331.3849 900.9842,-307.4419"/>
<polygon fill="#191970" stroke="#191970" points="903.8104,-309.5124 907.3461,-299.5249 898.3538,-305.1276 903.8104,-309.5124"/>
</g>
<!-- Node33&#45;&gt;Node4 -->
<g id="edge64" class="edge">
<title>Node33&#45;&gt;Node4</title>
<path fill="none" stroke="#191970" d="M820.7198,-392.375C809.8434,-367.0103 782,-296.0202 782,-234 782,-234 782,-234 782,-178 782,-144.8465 771.8211,-107.3737 764.7212,-85.2684"/>
<polygon fill="#191970" stroke="#191970" points="768.0264,-84.1157 761.5413,-75.7375 761.3862,-86.3312 768.0264,-84.1157"/>
</g>
<!-- Node33&#45;&gt;Node10 -->
<g id="edge62" class="edge">
<title>Node33&#45;&gt;Node10</title>
<path fill="none" stroke="#191970" d="M771.8507,-396.3061C727.082,-390.2036 662.0406,-378.2319 609,-356 552.4985,-332.3175 548.4616,-308.0574 494,-280 392.8177,-227.8731 319.4247,-281.8324 255,-188 249.9687,-180.6721 249.3292,-174.845 255,-168 274.3959,-144.588 346.6948,-133.0017 407.4306,-127.3219"/>
<polygon fill="#191970" stroke="#191970" points="407.8063,-130.8024 417.4555,-126.4272 407.184,-123.8301 407.8063,-130.8024"/>
</g>
<!-- Node34&#45;&gt;Node1 -->
<g id="edge66" class="edge">
<title>Node34&#45;&gt;Node1</title>
<path fill="none" stroke="#191970" d="M914.0144,-448.4509C929.8312,-429.6054 965.2663,-387.3849 985.3613,-363.4419"/>
<polygon fill="#191970" stroke="#191970" points="988.2581,-365.4347 992.0059,-355.5249 982.8962,-360.9346 988.2581,-365.4347"/>
</g>
<!-- Node34&#45;&gt;Node3 -->
<g id="edge74" class="edge">
<title>Node34&#45;&gt;Node3</title>
<path fill="none" stroke="#191970" d="M906.5097,-448.4862C907.9324,-421.9293 911.9697,-346.5651 913.9197,-310.1655"/>
<polygon fill="#191970" stroke="#191970" points="917.4335,-310.0008 914.4735,-299.8279 910.4435,-309.6263 917.4335,-310.0008"/>
</g>
<!-- Node34&#45;&gt;Node4 -->
<g id="edge75" class="edge">
<title>Node34&#45;&gt;Node4</title>
<path fill="none" stroke="#191970" d="M940.35,-448.4945C980.8499,-435.2335 1046.2777,-406.8836 1075,-356 1091.1725,-327.3492 1100.8642,-350.768 1047,-224 1021.474,-163.9253 1009.5348,-142.8268 952,-112 944.8311,-108.159 843.5991,-85.1587 790.3011,-73.2054"/>
<polygon fill="#191970" stroke="#191970" points="790.8459,-69.7408 780.3227,-70.971 789.3162,-76.5716 790.8459,-69.7408"/>
</g>
<!-- Node34&#45;&gt;Node5 -->
<g id="edge76" class="edge">
<title>Node34&#45;&gt;Node5</title>
<path fill="none" stroke="#191970" d="M857.8358,-454.434C800.0485,-449.2136 700.729,-437.2266 619,-412 563.1476,-394.7605 547.152,-390.5453 500,-356 481.2385,-342.2546 463.644,-322.1395 452.2184,-307.7328"/>
<polygon fill="#191970" stroke="#191970" points="454.8277,-305.3851 445.9463,-299.6083 449.2867,-309.6628 454.8277,-305.3851"/>
</g>
<!-- Node34&#45;&gt;Node6 -->
<g id="edge77" class="edge">
<title>Node34&#45;&gt;Node6</title>
<path fill="none" stroke="#191970" d="M954.3243,-455.4497C1049.1522,-449.9494 1252.2336,-435.5318 1273,-412 1297.8815,-383.8051 1288.2518,-336.0402 1280.0117,-309.41"/>
<polygon fill="#191970" stroke="#191970" points="1283.262,-308.0926 1276.7789,-299.7129 1276.6213,-310.3065 1283.262,-308.0926"/>
</g>
<!-- Node34&#45;&gt;Node32 -->
<g id="edge68" class="edge">
<title>Node34&#45;&gt;Node32</title>
<path fill="none" stroke="#191970" d="M859.4545,-448.4198C830.4127,-441.1674 792.9865,-429.4324 763,-412 740.7353,-399.0566 719.5471,-378.2415 705.9944,-363.4503"/>
<polygon fill="#191970" stroke="#191970" points="708.5622,-361.0711 699.2923,-355.9409 703.3397,-365.7322 708.5622,-361.0711"/>
</g>
<!-- Node34&#45;&gt;Node33 -->
<g id="edge67" class="edge">
<title>Node34&#45;&gt;Node33</title>
<path fill="none" stroke="#191970" d="M891.8909,-448.2455C879.5791,-439.7337 861.5042,-427.2375 847.2462,-417.3801"/>
<polygon fill="#191970" stroke="#191970" points="849.1634,-414.4506 838.9474,-411.6427 845.1826,-420.2085 849.1634,-414.4506"/>
</g>
<!-- Node35 -->
<g id="node36" class="node">
<title>Node35</title>
<g id="a_node36"><a xlink:href="SolidShapes_8h.html" target="_top" xlink:title="iDynTree/Model/SolidShapes.h">
<polygon fill="none" stroke="#000000" points="1100.5,-392.5 1100.5,-411.5 1263.5,-411.5 1263.5,-392.5 1100.5,-392.5"/>
<text text-anchor="middle" x="1182" y="-399.5" font-family="FreeSans.ttf" font-size="10.00" fill="#000000">iDynTree/Model/SolidShapes.h</text>
</a>
</g>
</g>
<!-- Node34&#45;&gt;Node35 -->
<g id="edge69" class="edge">
<title>Node34&#45;&gt;Node35</title>
<path fill="none" stroke="#191970" d="M953.1325,-448.4369C1000.7647,-438.7724 1074.3967,-423.8326 1125.2166,-413.5213"/>
<polygon fill="#191970" stroke="#191970" points="1125.9576,-416.9423 1135.0619,-411.5237 1124.5656,-410.0821 1125.9576,-416.9423"/>
</g>
<!-- Node35&#45;&gt;Node4 -->
<g id="edge71" class="edge">
<title>Node35&#45;&gt;Node4</title>
<path fill="none" stroke="#191970" d="M1176.9832,-392.4109C1167.5255,-373.4144 1148,-329.4221 1148,-290 1148,-290 1148,-290 1148,-234 1148,-173.1777 1135.7204,-147.032 1086,-112 1034.3562,-75.6128 866.259,-86.7203 804,-76 799.53,-75.2303 794.8361,-74.3243 790.2255,-73.3774"/>
<polygon fill="#191970" stroke="#191970" points="790.8949,-69.9415 780.3844,-71.2758 789.4329,-76.7871 790.8949,-69.9415"/>
</g>
<!-- Node35&#45;&gt;Node6 -->
<g id="edge72" class="edge">
<title>Node35&#45;&gt;Node6</title>
<path fill="none" stroke="#191970" d="M1195.3034,-392.4694C1206.7468,-383.8294 1223.2233,-370.2924 1235,-356 1247.0431,-341.3843 1257.5057,-322.4625 1264.3863,-308.6287"/>
<polygon fill="#191970" stroke="#191970" points="1267.5538,-310.1178 1268.7347,-299.589 1261.2457,-307.0833 1267.5538,-310.1178"/>
</g>
<!-- Node35&#45;&gt;Node32 -->
<g id="edge73" class="edge">
<title>Node35&#45;&gt;Node32</title>
<path fill="none" stroke="#191970" d="M1100.3702,-392.6899C1009.9539,-382.3776 864.9613,-365.8408 773.9986,-355.4662"/>
<polygon fill="#191970" stroke="#191970" points="774.3345,-351.9819 764.0023,-354.3261 773.5412,-358.9369 774.3345,-351.9819"/>
</g>
<!-- Node36 -->
<g id="node37" class="node">
<title>Node36</title>
<polygon fill="none" stroke="#bfbfbf" points="1176.5,-336.5 1176.5,-355.5 1225.5,-355.5 1225.5,-336.5 1176.5,-336.5"/>
<text text-anchor="middle" x="1201" y="-343.5" font-family="FreeSans.ttf" font-size="10.00" fill="#000000">cstdlib</text>
</g>
<!-- Node35&#45;&gt;Node36 -->
<g id="edge70" class="edge">
<title>Node35&#45;&gt;Node36</title>
<path fill="none" stroke="#191970" d="M1185.3095,-392.2455C1187.8433,-384.7776 1191.4177,-374.2427 1194.515,-365.1137"/>
<polygon fill="#191970" stroke="#191970" points="1197.8298,-366.237 1197.7284,-355.6427 1191.2009,-363.9879 1197.8298,-366.237"/>
</g>
</g>
</svg>
