<?xml version="1.0" encoding="UTF-8" standalone="no"?>
<!DOCTYPE svg PUBLIC "-//W3C//DTD SVG 1.1//EN"
 "http://www.w3.org/Graphics/SVG/1.1/DTD/svg11.dtd">
<!-- Generated by graphviz version 2.40.1 (20161225.0304)
 -->
<!-- Title: Rotation.h Pages: 1 -->
<svg width="891pt" height="252pt"
 viewBox="0.00 0.00 890.50 252.00" xmlns="http://www.w3.org/2000/svg" xmlns:xlink="http://www.w3.org/1999/xlink">
<g id="graph0" class="graph" transform="scale(1 1) rotate(0) translate(4 248)">
<title>Rotation.h</title>
<!-- Node0 -->
<g id="node1" class="node">
<title>Node0</title>
<polygon fill="#bfbfbf" stroke="#000000" points="182,-224.5 182,-243.5 248,-243.5 248,-224.5 182,-224.5"/>
<text text-anchor="middle" x="215" y="-231.5" font-family="FreeSans.ttf" font-size="10.00" fill="#000000">Rotation.h</text>
</g>
<!-- Node1 -->
<g id="node2" class="node">
<title>Node1</title>
<polygon fill="none" stroke="#bfbfbf" points="0,-56.5 0,-75.5 44,-75.5 44,-56.5 0,-56.5"/>
<text text-anchor="middle" x="22" y="-63.5" font-family="FreeSans.ttf" font-size="10.00" fill="#000000">string</text>
</g>
<!-- Node0&#45;&gt;Node1 -->
<g id="edge1" class="edge">
<title>Node0&#45;&gt;Node1</title>
<path fill="none" stroke="#191970" d="M181.6991,-229.7992C135.8526,-223.302 56.8112,-209.2983 38,-188 13.0052,-159.7004 14.8976,-112.322 18.4646,-85.7002"/>
<polygon fill="#191970" stroke="#191970" points="21.9449,-86.0967 20.0224,-75.6778 15.028,-85.0216 21.9449,-86.0967"/>
</g>
<!-- Node2 -->
<g id="node3" class="node">
<title>Node2</title>
<g id="a_node3"><a xlink:href="GeomVector3_8h.html" target="_top" xlink:title="iDynTree/Core/GeomVector3.h">
<polygon fill="none" stroke="#000000" points="223.5,-168.5 223.5,-187.5 386.5,-187.5 386.5,-168.5 223.5,-168.5"/>
<text text-anchor="middle" x="305" y="-175.5" font-family="FreeSans.ttf" font-size="10.00" fill="#000000">iDynTree/Core/GeomVector3.h</text>
</a>
</g>
</g>
<!-- Node0&#45;&gt;Node2 -->
<g id="edge2" class="edge">
<title>Node0&#45;&gt;Node2</title>
<path fill="none" stroke="#191970" d="M230.6768,-224.2455C244.4856,-215.6534 264.8193,-203.0014 280.7292,-193.1018"/>
<polygon fill="#191970" stroke="#191970" points="282.8613,-195.8974 289.5028,-187.6427 279.1632,-189.954 282.8613,-195.8974"/>
</g>
<!-- Node3 -->
<g id="node4" class="node">
<title>Node3</title>
<g id="a_node4"><a xlink:href="VectorFixSize_8h.html" target="_top" xlink:title="iDynTree/Core/VectorFixSize.h">
<polygon fill="none" stroke="#000000" points="297.5,-112.5 297.5,-131.5 458.5,-131.5 458.5,-112.5 297.5,-112.5"/>
<text text-anchor="middle" x="378" y="-119.5" font-family="FreeSans.ttf" font-size="10.00" fill="#000000">iDynTree/Core/VectorFixSize.h</text>
</a>
</g>
</g>
<!-- Node0&#45;&gt;Node3 -->
<g id="edge30" class="edge">
<title>Node0&#45;&gt;Node3</title>
<path fill="none" stroke="#191970" d="M248.2564,-230.3843C295.4233,-224.493 378.0372,-211.099 396,-188 406.7655,-174.1563 399.1241,-154.3255 390.7279,-140.0196"/>
<polygon fill="#191970" stroke="#191970" points="393.6315,-138.0636 385.2873,-131.5348 387.7388,-141.8421 393.6315,-138.0636"/>
</g>
<!-- Node18 -->
<g id="node19" class="node">
<title>Node18</title>
<g id="a_node19"><a xlink:href="RotationRaw_8h.html" target="_top" xlink:title="iDynTree/Core/RotationRaw.h">
<polygon fill="none" stroke="#000000" points="47,-168.5 47,-187.5 205,-187.5 205,-168.5 47,-168.5"/>
<text text-anchor="middle" x="126" y="-175.5" font-family="FreeSans.ttf" font-size="10.00" fill="#000000">iDynTree/Core/RotationRaw.h</text>
</a>
</g>
</g>
<!-- Node0&#45;&gt;Node18 -->
<g id="edge21" class="edge">
<title>Node0&#45;&gt;Node18</title>
<path fill="none" stroke="#191970" d="M199.4974,-224.2455C185.842,-215.6534 165.7343,-203.0014 150.0011,-193.1018"/>
<polygon fill="#191970" stroke="#191970" points="151.6529,-190.006 141.325,-187.6427 147.9249,-195.9307 151.6529,-190.006"/>
</g>
<!-- Node2&#45;&gt;Node3 -->
<g id="edge3" class="edge">
<title>Node2&#45;&gt;Node3</title>
<path fill="none" stroke="#191970" d="M317.7156,-168.2455C328.602,-159.8943 344.4883,-147.7076 357.22,-137.9408"/>
<polygon fill="#191970" stroke="#191970" points="359.6261,-140.5063 365.4301,-131.6427 355.3654,-134.9523 359.6261,-140.5063"/>
</g>
<!-- Node3&#45;&gt;Node1 -->
<g id="edge17" class="edge">
<title>Node3&#45;&gt;Node1</title>
<path fill="none" stroke="#191970" d="M297.4945,-114.4877C233.6864,-107.6414 142.2235,-95.8485 54.1163,-75.9455"/>
<polygon fill="#191970" stroke="#191970" points="54.7532,-72.5007 44.2234,-73.6728 53.1858,-79.323 54.7532,-72.5007"/>
</g>
<!-- Node4 -->
<g id="node5" class="node">
<title>Node4</title>
<g id="a_node5"><a xlink:href="Utils_8h.html" target="_top" xlink:title="iDynTree/Core/Utils.h">
<polygon fill="none" stroke="#000000" points="178.5,-56.5 178.5,-75.5 297.5,-75.5 297.5,-56.5 178.5,-56.5"/>
<text text-anchor="middle" x="238" y="-63.5" font-family="FreeSans.ttf" font-size="10.00" fill="#000000">iDynTree/Core/Utils.h</text>
</a>
</g>
</g>
<!-- Node3&#45;&gt;Node4 -->
<g id="edge4" class="edge">
<title>Node3&#45;&gt;Node4</title>
<path fill="none" stroke="#191970" d="M353.9331,-112.3733C331.1572,-103.2629 296.7656,-89.5062 271.351,-79.3404"/>
<polygon fill="#191970" stroke="#191970" points="272.3375,-75.9654 261.7528,-75.5011 269.7377,-82.4648 272.3375,-75.9654"/>
</g>
<!-- Node7 -->
<g id="node8" class="node">
<title>Node7</title>
<g id="a_node8"><a xlink:href="Span_8h.html" target="_top" xlink:title="iDynTree/Core/Span.h">
<polygon fill="none" stroke="#000000" points="496.5,-56.5 496.5,-75.5 617.5,-75.5 617.5,-56.5 496.5,-56.5"/>
<text text-anchor="middle" x="557" y="-63.5" font-family="FreeSans.ttf" font-size="10.00" fill="#000000">iDynTree/Core/Span.h</text>
</a>
</g>
</g>
<!-- Node3&#45;&gt;Node7 -->
<g id="edge7" class="edge">
<title>Node3&#45;&gt;Node7</title>
<path fill="none" stroke="#191970" d="M408.7712,-112.3733C438.665,-103.021 484.2093,-88.7725 516.9217,-78.5385"/>
<polygon fill="#191970" stroke="#191970" points="518.1315,-81.8273 526.6303,-75.5011 516.0414,-75.1466 518.1315,-81.8273"/>
</g>
<!-- Node8 -->
<g id="node9" class="node">
<title>Node8</title>
<polygon fill="none" stroke="#bfbfbf" points="249,-.5 249,-19.5 301,-19.5 301,-.5 249,-.5"/>
<text text-anchor="middle" x="275" y="-7.5" font-family="FreeSans.ttf" font-size="10.00" fill="#000000">cassert</text>
</g>
<!-- Node3&#45;&gt;Node8 -->
<g id="edge19" class="edge">
<title>Node3&#45;&gt;Node8</title>
<path fill="none" stroke="#191970" d="M402.5832,-112.3192C429.4562,-100.3057 466.5117,-78.6249 449,-56 411.8468,-7.9986 375.3223,-33.9118 311.4158,-20.0673"/>
<polygon fill="#191970" stroke="#191970" points="311.899,-16.5824 301.3537,-17.6055 310.2354,-23.3818 311.899,-16.5824"/>
</g>
<!-- Node16 -->
<g id="node17" class="node">
<title>Node16</title>
<polygon fill="none" stroke="#bfbfbf" points="384,-56.5 384,-75.5 440,-75.5 440,-56.5 384,-56.5"/>
<text text-anchor="middle" x="412" y="-63.5" font-family="FreeSans.ttf" font-size="10.00" fill="#000000">sstream</text>
</g>
<!-- Node3&#45;&gt;Node16 -->
<g id="edge18" class="edge">
<title>Node3&#45;&gt;Node16</title>
<path fill="none" stroke="#191970" d="M383.9223,-112.2455C388.6027,-104.5367 395.2673,-93.5598 400.9289,-84.2348"/>
<polygon fill="#191970" stroke="#191970" points="403.9475,-86.007 406.1455,-75.6427 397.9639,-82.3741 403.9475,-86.007"/>
</g>
<!-- Node17 -->
<g id="node18" class="node">
<title>Node17</title>
<polygon fill="none" stroke="#bfbfbf" points="316,-56.5 316,-75.5 366,-75.5 366,-56.5 316,-56.5"/>
<text text-anchor="middle" x="341" y="-63.5" font-family="FreeSans.ttf" font-size="10.00" fill="#000000">cstring</text>
</g>
<!-- Node3&#45;&gt;Node17 -->
<g id="edge20" class="edge">
<title>Node3&#45;&gt;Node17</title>
<path fill="none" stroke="#191970" d="M371.5551,-112.2455C366.4618,-104.5367 359.2092,-93.5598 353.048,-84.2348"/>
<polygon fill="#191970" stroke="#191970" points="355.8038,-82.0566 347.3711,-75.6427 349.9635,-85.9155 355.8038,-82.0566"/>
</g>
<!-- Node5 -->
<g id="node6" class="node">
<title>Node5</title>
<polygon fill="none" stroke="#bfbfbf" points="319.5,-.5 319.5,-19.5 372.5,-19.5 372.5,-.5 319.5,-.5"/>
<text text-anchor="middle" x="346" y="-7.5" font-family="FreeSans.ttf" font-size="10.00" fill="#000000">cstddef</text>
</g>
<!-- Node4&#45;&gt;Node5 -->
<g id="edge5" class="edge">
<title>Node4&#45;&gt;Node5</title>
<path fill="none" stroke="#191970" d="M256.8122,-56.2455C273.8473,-47.4125 299.1575,-34.2887 318.4681,-24.2758"/>
<polygon fill="#191970" stroke="#191970" points="320.137,-27.353 327.4034,-19.6427 316.9147,-21.1388 320.137,-27.353"/>
</g>
<!-- Node6 -->
<g id="node7" class="node">
<title>Node6</title>
<polygon fill="none" stroke="#bfbfbf" points="151,-.5 151,-19.5 231,-19.5 231,-.5 151,-.5"/>
<text text-anchor="middle" x="191" y="-7.5" font-family="FreeSans.ttf" font-size="10.00" fill="#000000">CoreExport.h</text>
</g>
<!-- Node4&#45;&gt;Node6 -->
<g id="edge6" class="edge">
<title>Node4&#45;&gt;Node6</title>
<path fill="none" stroke="#191970" d="M229.8132,-56.2455C223.1411,-48.2958 213.5521,-36.8706 205.5747,-27.3656"/>
<polygon fill="#191970" stroke="#191970" points="208.2026,-25.0524 199.093,-19.6427 202.8408,-29.5525 208.2026,-25.0524"/>
</g>
<!-- Node7&#45;&gt;Node5 -->
<g id="edge11" class="edge">
<title>Node7&#45;&gt;Node5</title>
<path fill="none" stroke="#191970" d="M520.0886,-56.4566C486.7211,-47.7942 435.9933,-34.5375 382.7019,-20.1641"/>
<polygon fill="#191970" stroke="#191970" points="383.2918,-16.698 372.725,-17.4681 381.4657,-23.4556 383.2918,-16.698"/>
</g>
<!-- Node7&#45;&gt;Node8 -->
<g id="edge8" class="edge">
<title>Node7&#45;&gt;Node8</title>
<path fill="none" stroke="#191970" d="M497.2805,-56.4992C449.4045,-48.514 380.3218,-36.1684 311.4595,-20.1868"/>
<polygon fill="#191970" stroke="#191970" points="311.8389,-16.6808 301.3036,-17.8026 310.239,-23.4955 311.8389,-16.6808"/>
</g>
<!-- Node9 -->
<g id="node10" class="node">
<title>Node9</title>
<polygon fill="none" stroke="#bfbfbf" points="454,-.5 454,-19.5 518,-19.5 518,-.5 454,-.5"/>
<text text-anchor="middle" x="486" y="-7.5" font-family="FreeSans.ttf" font-size="10.00" fill="#000000">algorithm</text>
</g>
<!-- Node7&#45;&gt;Node9 -->
<g id="edge9" class="edge">
<title>Node7&#45;&gt;Node9</title>
<path fill="none" stroke="#191970" d="M544.6327,-56.2455C534.0446,-47.8943 518.5936,-35.7076 506.2107,-25.9408"/>
<polygon fill="#191970" stroke="#191970" points="508.2447,-23.0875 498.2255,-19.6427 503.9097,-28.5837 508.2447,-23.0875"/>
</g>
<!-- Node10 -->
<g id="node11" class="node">
<title>Node10</title>
<polygon fill="none" stroke="#bfbfbf" points="536,-.5 536,-19.5 578,-19.5 578,-.5 536,-.5"/>
<text text-anchor="middle" x="557" y="-7.5" font-family="FreeSans.ttf" font-size="10.00" fill="#000000">array</text>
</g>
<!-- Node7&#45;&gt;Node10 -->
<g id="edge10" class="edge">
<title>Node7&#45;&gt;Node10</title>
<path fill="none" stroke="#191970" d="M557,-56.2455C557,-48.9382 557,-38.6944 557,-29.7046"/>
<polygon fill="#191970" stroke="#191970" points="560.5001,-29.6426 557,-19.6427 553.5001,-29.6427 560.5001,-29.6426"/>
</g>
<!-- Node11 -->
<g id="node12" class="node">
<title>Node11</title>
<polygon fill="none" stroke="#bfbfbf" points="596.5,-.5 596.5,-19.5 649.5,-19.5 649.5,-.5 596.5,-.5"/>
<text text-anchor="middle" x="623" y="-7.5" font-family="FreeSans.ttf" font-size="10.00" fill="#000000">iterator</text>
</g>
<!-- Node7&#45;&gt;Node11 -->
<g id="edge12" class="edge">
<title>Node7&#45;&gt;Node11</title>
<path fill="none" stroke="#191970" d="M568.4963,-56.2455C578.2442,-47.9746 592.4259,-35.9416 603.8798,-26.2232"/>
<polygon fill="#191970" stroke="#191970" points="606.2747,-28.7813 611.6354,-19.6427 601.7459,-23.4437 606.2747,-28.7813"/>
</g>
<!-- Node12 -->
<g id="node13" class="node">
<title>Node12</title>
<polygon fill="none" stroke="#bfbfbf" points="668,-.5 668,-19.5 712,-19.5 712,-.5 668,-.5"/>
<text text-anchor="middle" x="690" y="-7.5" font-family="FreeSans.ttf" font-size="10.00" fill="#000000">limits</text>
</g>
<!-- Node7&#45;&gt;Node12 -->
<g id="edge13" class="edge">
<title>Node7&#45;&gt;Node12</title>
<path fill="none" stroke="#191970" d="M579.8635,-56.3733C601.5355,-47.2482 634.2779,-33.462 658.4331,-23.2913"/>
<polygon fill="#191970" stroke="#191970" points="660.0186,-26.4214 667.8768,-19.315 657.3022,-19.9699 660.0186,-26.4214"/>
</g>
<!-- Node13 -->
<g id="node14" class="node">
<title>Node13</title>
<polygon fill="none" stroke="#bfbfbf" points="730.5,-.5 730.5,-19.5 795.5,-19.5 795.5,-.5 730.5,-.5"/>
<text text-anchor="middle" x="763" y="-7.5" font-family="FreeSans.ttf" font-size="10.00" fill="#000000">stdexcept</text>
</g>
<!-- Node7&#45;&gt;Node13 -->
<g id="edge14" class="edge">
<title>Node7&#45;&gt;Node13</title>
<path fill="none" stroke="#191970" d="M592.4127,-56.3733C627.9997,-46.6991 682.8589,-31.7859 720.7097,-21.4964"/>
<polygon fill="#191970" stroke="#191970" points="721.6919,-24.8565 730.4235,-18.8557 719.8556,-18.1016 721.6919,-24.8565"/>
</g>
<!-- Node14 -->
<g id="node15" class="node">
<title>Node14</title>
<polygon fill="none" stroke="#bfbfbf" points="813.5,-.5 813.5,-19.5 882.5,-19.5 882.5,-.5 813.5,-.5"/>
<text text-anchor="middle" x="848" y="-7.5" font-family="FreeSans.ttf" font-size="10.00" fill="#000000">type_traits</text>
</g>
<!-- Node7&#45;&gt;Node14 -->
<g id="edge15" class="edge">
<title>Node7&#45;&gt;Node14</title>
<path fill="none" stroke="#191970" d="M612.2999,-56.4792C660.3897,-48.0329 732.1826,-35.0243 803.2721,-20.3008"/>
<polygon fill="#191970" stroke="#191970" points="804.2202,-23.6786 813.2959,-18.2122 802.7922,-16.8257 804.2202,-23.6786"/>
</g>
<!-- Node15 -->
<g id="node16" class="node">
<title>Node15</title>
<polygon fill="none" stroke="#bfbfbf" points="390.5,-.5 390.5,-19.5 435.5,-19.5 435.5,-.5 390.5,-.5"/>
<text text-anchor="middle" x="413" y="-7.5" font-family="FreeSans.ttf" font-size="10.00" fill="#000000">utility</text>
</g>
<!-- Node7&#45;&gt;Node15 -->
<g id="edge16" class="edge">
<title>Node7&#45;&gt;Node15</title>
<path fill="none" stroke="#191970" d="M532.2455,-56.3733C508.1447,-47.0007 471.399,-32.7107 445.0707,-22.472"/>
<polygon fill="#191970" stroke="#191970" points="446.127,-19.1274 435.5383,-18.7649 443.5898,-25.6514 446.127,-19.1274"/>
</g>
<!-- Node18&#45;&gt;Node1 -->
<g id="edge29" class="edge">
<title>Node18&#45;&gt;Node1</title>
<path fill="none" stroke="#191970" d="M114.4497,-168.2036C104.0281,-159.1744 88.4665,-145.2117 76,-132 61.3307,-116.4538 46.0323,-97.4509 35.4801,-83.8348"/>
<polygon fill="#191970" stroke="#191970" points="38.1476,-81.5617 29.2854,-75.7554 32.5925,-85.8209 38.1476,-81.5617"/>
</g>
<!-- Node19 -->
<g id="node20" class="node">
<title>Node19</title>
<g id="a_node20"><a xlink:href="MatrixFixSize_8h.html" target="_top" xlink:title="iDynTree/Core/MatrixFixSize.h">
<polygon fill="none" stroke="#000000" points="85.5,-112.5 85.5,-131.5 246.5,-131.5 246.5,-112.5 85.5,-112.5"/>
<text text-anchor="middle" x="166" y="-119.5" font-family="FreeSans.ttf" font-size="10.00" fill="#000000">iDynTree/Core/MatrixFixSize.h</text>
</a>
</g>
</g>
<!-- Node18&#45;&gt;Node19 -->
<g id="edge22" class="edge">
<title>Node18&#45;&gt;Node19</title>
<path fill="none" stroke="#191970" d="M132.9675,-168.2455C138.5311,-160.4564 146.478,-149.3308 153.1829,-139.9439"/>
<polygon fill="#191970" stroke="#191970" points="156.148,-141.8144 159.1124,-131.6427 150.4519,-137.7457 156.148,-141.8144"/>
</g>
<!-- Node19&#45;&gt;Node1 -->
<g id="edge26" class="edge">
<title>Node19&#45;&gt;Node1</title>
<path fill="none" stroke="#191970" d="M141.2455,-112.3733C117.0021,-102.9453 79.9637,-88.5414 53.6045,-78.2906"/>
<polygon fill="#191970" stroke="#191970" points="54.6625,-74.9468 44.0739,-74.5843 52.1253,-81.4708 54.6625,-74.9468"/>
</g>
<!-- Node19&#45;&gt;Node4 -->
<g id="edge23" class="edge">
<title>Node19&#45;&gt;Node4</title>
<path fill="none" stroke="#191970" d="M178.5414,-112.2455C189.2787,-103.8943 204.9473,-91.7076 217.5047,-81.9408"/>
<polygon fill="#191970" stroke="#191970" points="219.8575,-84.5449 225.6023,-75.6427 215.5599,-79.0194 219.8575,-84.5449"/>
</g>
<!-- Node19&#45;&gt;Node8 -->
<g id="edge24" class="edge">
<title>Node19&#45;&gt;Node8</title>
<path fill="none" stroke="#191970" d="M163.5386,-112.4981C160.5608,-98.7234 157.2845,-73.0005 169,-56 177.4655,-43.7157 211.8748,-30.1781 239.2241,-20.9902"/>
<polygon fill="#191970" stroke="#191970" points="240.5071,-24.2529 248.9196,-17.8123 238.3268,-17.6011 240.5071,-24.2529"/>
</g>
<!-- Node19&#45;&gt;Node16 -->
<g id="edge28" class="edge">
<title>Node19&#45;&gt;Node16</title>
<path fill="none" stroke="#191970" d="M212.2187,-112.4832C252.5104,-104.0394 312.7457,-91.0628 373.929,-76.1854"/>
<polygon fill="#191970" stroke="#191970" points="374.8721,-79.558 383.7538,-73.7817 373.2085,-72.7585 374.8721,-79.558"/>
</g>
<!-- Node19&#45;&gt;Node17 -->
<g id="edge25" class="edge">
<title>Node19&#45;&gt;Node17</title>
<path fill="none" stroke="#191970" d="M196.0836,-112.3733C226.5943,-102.6098 273.7807,-87.5102 305.9604,-77.2127"/>
<polygon fill="#191970" stroke="#191970" points="307.3834,-80.4322 315.8409,-74.0509 305.2499,-73.7652 307.3834,-80.4322"/>
</g>
<!-- Node20 -->
<g id="node21" class="node">
<title>Node20</title>
<polygon fill="none" stroke="#bfbfbf" points="62,-56.5 62,-75.5 122,-75.5 122,-56.5 62,-56.5"/>
<text text-anchor="middle" x="92" y="-63.5" font-family="FreeSans.ttf" font-size="10.00" fill="#000000">iostream</text>
</g>
<!-- Node19&#45;&gt;Node20 -->
<g id="edge27" class="edge">
<title>Node19&#45;&gt;Node20</title>
<path fill="none" stroke="#191970" d="M153.1102,-112.2455C142.0746,-103.8943 125.9708,-91.7076 113.0647,-81.9408"/>
<polygon fill="#191970" stroke="#191970" points="114.8283,-78.8862 104.7421,-75.6427 110.6041,-84.4681 114.8283,-78.8862"/>
</g>
</g>
</svg>
