<?xml version="1.0" encoding="UTF-8" standalone="no"?>
<!DOCTYPE svg PUBLIC "-//W3C//DTD SVG 1.1//EN"
 "http://www.w3.org/Graphics/SVG/1.1/DTD/svg11.dtd">
<!-- Generated by graphviz version 2.40.1 (20161225.0304)
 -->
<!-- Title: SO3Utils.h Pages: 1 -->
<svg width="874pt" height="308pt"
 viewBox="0.00 0.00 874.00 308.00" xmlns="http://www.w3.org/2000/svg" xmlns:xlink="http://www.w3.org/1999/xlink">
<g id="graph0" class="graph" transform="scale(1 1) rotate(0) translate(4 304)">
<title>SO3Utils.h</title>
<!-- Node0 -->
<g id="node1" class="node">
<title>Node0</title>
<polygon fill="#bfbfbf" stroke="#000000" points="567,-280.5 567,-299.5 635,-299.5 635,-280.5 567,-280.5"/>
<text text-anchor="middle" x="601" y="-287.5" font-family="FreeSans.ttf" font-size="10.00" fill="#000000">SO3Utils.h</text>
</g>
<!-- Node1 -->
<g id="node2" class="node">
<title>Node1</title>
<g id="a_node2"><a xlink:href="Rotation_8h.html" target="_top" xlink:title="iDynTree/Core/Rotation.h">
<polygon fill="none" stroke="#000000" points="532.5,-224.5 532.5,-243.5 669.5,-243.5 669.5,-224.5 532.5,-224.5"/>
<text text-anchor="middle" x="601" y="-231.5" font-family="FreeSans.ttf" font-size="10.00" fill="#000000">iDynTree/Core/Rotation.h</text>
</a>
</g>
</g>
<!-- Node0&#45;&gt;Node1 -->
<g id="edge1" class="edge">
<title>Node0&#45;&gt;Node1</title>
<path fill="none" stroke="#191970" d="M601,-280.2455C601,-272.9382 601,-262.6944 601,-253.7046"/>
<polygon fill="#191970" stroke="#191970" points="604.5001,-253.6426 601,-243.6427 597.5001,-253.6427 604.5001,-253.6426"/>
</g>
<!-- Node3 -->
<g id="node4" class="node">
<title>Node3</title>
<g id="a_node4"><a xlink:href="GeomVector3_8h.html" target="_top" xlink:title="iDynTree/Core/GeomVector3.h">
<polygon fill="none" stroke="#000000" points="409.5,-168.5 409.5,-187.5 572.5,-187.5 572.5,-168.5 409.5,-168.5"/>
<text text-anchor="middle" x="491" y="-175.5" font-family="FreeSans.ttf" font-size="10.00" fill="#000000">iDynTree/Core/GeomVector3.h</text>
</a>
</g>
</g>
<!-- Node0&#45;&gt;Node3 -->
<g id="edge32" class="edge">
<title>Node0&#45;&gt;Node3</title>
<path fill="none" stroke="#191970" d="M577.0162,-280.3592C560.1599,-272.5982 538.0236,-260.299 523,-244 510.6205,-230.5696 502.0675,-211.4694 496.9394,-197.2693"/>
<polygon fill="#191970" stroke="#191970" points="500.1753,-195.9101 493.6788,-187.5407 493.5381,-198.1346 500.1753,-195.9101"/>
</g>
<!-- Node22 -->
<g id="node23" class="node">
<title>Node22</title>
<polygon fill="none" stroke="#bfbfbf" points="687.5,-224.5 687.5,-243.5 734.5,-243.5 734.5,-224.5 687.5,-224.5"/>
<text text-anchor="middle" x="711" y="-231.5" font-family="FreeSans.ttf" font-size="10.00" fill="#000000">vector</text>
</g>
<!-- Node0&#45;&gt;Node22 -->
<g id="edge33" class="edge">
<title>Node0&#45;&gt;Node22</title>
<path fill="none" stroke="#191970" d="M620.1605,-280.2455C637.5111,-271.4125 663.2901,-258.2887 682.9583,-248.2758"/>
<polygon fill="#191970" stroke="#191970" points="684.7353,-251.2986 692.059,-243.6427 681.5595,-245.0605 684.7353,-251.2986"/>
</g>
<!-- Node2 -->
<g id="node3" class="node">
<title>Node2</title>
<polygon fill="none" stroke="#bfbfbf" points="822,-56.5 822,-75.5 866,-75.5 866,-56.5 822,-56.5"/>
<text text-anchor="middle" x="844" y="-63.5" font-family="FreeSans.ttf" font-size="10.00" fill="#000000">string</text>
</g>
<!-- Node1&#45;&gt;Node2 -->
<g id="edge2" class="edge">
<title>Node1&#45;&gt;Node2</title>
<path fill="none" stroke="#191970" d="M669.6956,-224.6647C717.9428,-216.8584 777.1027,-204.3683 796,-188 826.5593,-161.5303 837.82,-113.0587 841.8507,-85.8603"/>
<polygon fill="#191970" stroke="#191970" points="845.3618,-85.9982 843.1706,-75.6324 838.4194,-85.1022 845.3618,-85.9982"/>
</g>
<!-- Node1&#45;&gt;Node3 -->
<g id="edge3" class="edge">
<title>Node1&#45;&gt;Node3</title>
<path fill="none" stroke="#191970" d="M581.8395,-224.2455C564.4889,-215.4125 538.7099,-202.2887 519.0417,-192.2758"/>
<polygon fill="#191970" stroke="#191970" points="520.4405,-189.0605 509.941,-187.6427 517.2647,-195.2986 520.4405,-189.0605"/>
</g>
<!-- Node4 -->
<g id="node5" class="node">
<title>Node4</title>
<g id="a_node5"><a xlink:href="VectorFixSize_8h.html" target="_top" xlink:title="iDynTree/Core/VectorFixSize.h">
<polygon fill="none" stroke="#000000" points="410.5,-112.5 410.5,-131.5 571.5,-131.5 571.5,-112.5 410.5,-112.5"/>
<text text-anchor="middle" x="491" y="-119.5" font-family="FreeSans.ttf" font-size="10.00" fill="#000000">iDynTree/Core/VectorFixSize.h</text>
</a>
</g>
</g>
<!-- Node1&#45;&gt;Node4 -->
<g id="edge31" class="edge">
<title>Node1&#45;&gt;Node4</title>
<path fill="none" stroke="#191970" d="M600.4131,-224.375C599.0945,-210.447 594.822,-184.535 581,-168 568.6757,-153.2567 550.4267,-142.7095 533.577,-135.4663"/>
<polygon fill="#191970" stroke="#191970" points="534.4575,-132.0486 523.8731,-131.5767 531.853,-138.5461 534.4575,-132.0486"/>
</g>
<!-- Node19 -->
<g id="node20" class="node">
<title>Node19</title>
<g id="a_node20"><a xlink:href="RotationRaw_8h.html" target="_top" xlink:title="iDynTree/Core/RotationRaw.h">
<polygon fill="none" stroke="#000000" points="629,-168.5 629,-187.5 787,-187.5 787,-168.5 629,-168.5"/>
<text text-anchor="middle" x="708" y="-175.5" font-family="FreeSans.ttf" font-size="10.00" fill="#000000">iDynTree/Core/RotationRaw.h</text>
</a>
</g>
</g>
<!-- Node1&#45;&gt;Node19 -->
<g id="edge22" class="edge">
<title>Node1&#45;&gt;Node19</title>
<path fill="none" stroke="#191970" d="M619.638,-224.2455C636.4386,-215.4527 661.3634,-202.4079 680.4618,-192.4125"/>
<polygon fill="#191970" stroke="#191970" points="682.3386,-195.3807 689.5756,-187.6427 679.0927,-189.1787 682.3386,-195.3807"/>
</g>
<!-- Node3&#45;&gt;Node4 -->
<g id="edge4" class="edge">
<title>Node3&#45;&gt;Node4</title>
<path fill="none" stroke="#191970" d="M491,-168.2455C491,-160.9382 491,-150.6944 491,-141.7046"/>
<polygon fill="#191970" stroke="#191970" points="494.5001,-141.6426 491,-131.6427 487.5001,-141.6427 494.5001,-141.6426"/>
</g>
<!-- Node4&#45;&gt;Node2 -->
<g id="edge18" class="edge">
<title>Node4&#45;&gt;Node2</title>
<path fill="none" stroke="#191970" d="M568.388,-112.4845C643.8893,-102.9408 754.4759,-88.2079 812.0061,-75.865"/>
<polygon fill="#191970" stroke="#191970" points="812.7867,-79.2769 821.7758,-73.6692 811.2517,-72.4473 812.7867,-79.2769"/>
</g>
<!-- Node5 -->
<g id="node6" class="node">
<title>Node5</title>
<g id="a_node6"><a xlink:href="Utils_8h.html" target="_top" xlink:title="iDynTree/Core/Utils.h">
<polygon fill="none" stroke="#000000" points="606.5,-56.5 606.5,-75.5 725.5,-75.5 725.5,-56.5 606.5,-56.5"/>
<text text-anchor="middle" x="666" y="-63.5" font-family="FreeSans.ttf" font-size="10.00" fill="#000000">iDynTree/Core/Utils.h</text>
</a>
</g>
</g>
<!-- Node4&#45;&gt;Node5 -->
<g id="edge5" class="edge">
<title>Node4&#45;&gt;Node5</title>
<path fill="none" stroke="#191970" d="M521.0836,-112.3733C550.1834,-103.0613 594.4523,-88.8953 626.403,-78.671"/>
<polygon fill="#191970" stroke="#191970" points="627.8515,-81.8824 636.309,-75.5011 625.718,-75.2155 627.8515,-81.8824"/>
</g>
<!-- Node8 -->
<g id="node9" class="node">
<title>Node8</title>
<g id="a_node9"><a xlink:href="Span_8h.html" target="_top" xlink:title="iDynTree/Core/Span.h">
<polygon fill="none" stroke="#000000" points="248.5,-56.5 248.5,-75.5 369.5,-75.5 369.5,-56.5 248.5,-56.5"/>
<text text-anchor="middle" x="309" y="-63.5" font-family="FreeSans.ttf" font-size="10.00" fill="#000000">iDynTree/Core/Span.h</text>
</a>
</g>
</g>
<!-- Node4&#45;&gt;Node8 -->
<g id="edge8" class="edge">
<title>Node4&#45;&gt;Node8</title>
<path fill="none" stroke="#191970" d="M459.7131,-112.3733C429.3182,-103.021 383.0107,-88.7725 349.75,-78.5385"/>
<polygon fill="#191970" stroke="#191970" points="350.4658,-75.0968 339.8786,-75.5011 348.4071,-81.7873 350.4658,-75.0968"/>
</g>
<!-- Node9 -->
<g id="node10" class="node">
<title>Node9</title>
<polygon fill="none" stroke="#bfbfbf" points="510,-.5 510,-19.5 562,-19.5 562,-.5 510,-.5"/>
<text text-anchor="middle" x="536" y="-7.5" font-family="FreeSans.ttf" font-size="10.00" fill="#000000">cassert</text>
</g>
<!-- Node4&#45;&gt;Node9 -->
<g id="edge20" class="edge">
<title>Node4&#45;&gt;Node9</title>
<path fill="none" stroke="#191970" d="M464.9822,-112.4211C437.6265,-100.8231 400.6471,-79.8534 417,-56 421.9799,-48.7361 466.7042,-32.7426 499.8662,-21.6704"/>
<polygon fill="#191970" stroke="#191970" points="501.3352,-24.871 509.7298,-18.4073 499.1366,-18.2252 501.3352,-24.871"/>
</g>
<!-- Node17 -->
<g id="node18" class="node">
<title>Node17</title>
<polygon fill="none" stroke="#bfbfbf" points="426,-56.5 426,-75.5 482,-75.5 482,-56.5 426,-56.5"/>
<text text-anchor="middle" x="454" y="-63.5" font-family="FreeSans.ttf" font-size="10.00" fill="#000000">sstream</text>
</g>
<!-- Node4&#45;&gt;Node17 -->
<g id="edge19" class="edge">
<title>Node4&#45;&gt;Node17</title>
<path fill="none" stroke="#191970" d="M484.5551,-112.2455C479.4618,-104.5367 472.2092,-93.5598 466.048,-84.2348"/>
<polygon fill="#191970" stroke="#191970" points="468.8038,-82.0566 460.3711,-75.6427 462.9635,-85.9155 468.8038,-82.0566"/>
</g>
<!-- Node18 -->
<g id="node19" class="node">
<title>Node18</title>
<polygon fill="none" stroke="#bfbfbf" points="500,-56.5 500,-75.5 550,-75.5 550,-56.5 500,-56.5"/>
<text text-anchor="middle" x="525" y="-63.5" font-family="FreeSans.ttf" font-size="10.00" fill="#000000">cstring</text>
</g>
<!-- Node4&#45;&gt;Node18 -->
<g id="edge21" class="edge">
<title>Node4&#45;&gt;Node18</title>
<path fill="none" stroke="#191970" d="M496.9223,-112.2455C501.6027,-104.5367 508.2673,-93.5598 513.9289,-84.2348"/>
<polygon fill="#191970" stroke="#191970" points="516.9475,-86.007 519.1455,-75.6427 510.9639,-82.3741 516.9475,-86.007"/>
</g>
<!-- Node6 -->
<g id="node7" class="node">
<title>Node6</title>
<polygon fill="none" stroke="#bfbfbf" points="580.5,-.5 580.5,-19.5 633.5,-19.5 633.5,-.5 580.5,-.5"/>
<text text-anchor="middle" x="607" y="-7.5" font-family="FreeSans.ttf" font-size="10.00" fill="#000000">cstddef</text>
</g>
<!-- Node5&#45;&gt;Node6 -->
<g id="edge6" class="edge">
<title>Node5&#45;&gt;Node6</title>
<path fill="none" stroke="#191970" d="M655.723,-56.2455C647.1782,-48.1352 634.8222,-36.4075 624.6915,-26.7919"/>
<polygon fill="#191970" stroke="#191970" points="626.8218,-23.9884 617.1592,-19.6427 622.0028,-29.0655 626.8218,-23.9884"/>
</g>
<!-- Node7 -->
<g id="node8" class="node">
<title>Node7</title>
<polygon fill="none" stroke="#bfbfbf" points="652,-.5 652,-19.5 732,-19.5 732,-.5 652,-.5"/>
<text text-anchor="middle" x="692" y="-7.5" font-family="FreeSans.ttf" font-size="10.00" fill="#000000">CoreExport.h</text>
</g>
<!-- Node5&#45;&gt;Node7 -->
<g id="edge7" class="edge">
<title>Node5&#45;&gt;Node7</title>
<path fill="none" stroke="#191970" d="M670.5289,-56.2455C674.0334,-48.6973 678.9927,-38.0158 683.2623,-28.8197"/>
<polygon fill="#191970" stroke="#191970" points="686.4864,-30.1867 687.523,-19.6427 680.1373,-27.2389 686.4864,-30.1867"/>
</g>
<!-- Node8&#45;&gt;Node6 -->
<g id="edge12" class="edge">
<title>Node8&#45;&gt;Node6</title>
<path fill="none" stroke="#191970" d="M369.6884,-57.0581C420.7136,-49.1506 495.746,-36.6164 570.3,-19.9824"/>
<polygon fill="#191970" stroke="#191970" points="571.3527,-23.3329 580.3368,-17.7172 569.8116,-16.5047 571.3527,-23.3329"/>
</g>
<!-- Node8&#45;&gt;Node9 -->
<g id="edge9" class="edge">
<title>Node8&#45;&gt;Node9</title>
<path fill="none" stroke="#191970" d="M350.4596,-56.4514C389.2179,-47.4217 448.6592,-33.3088 500,-20 500.0981,-19.9746 500.1964,-19.9491 500.2948,-19.9235"/>
<polygon fill="#191970" stroke="#191970" points="500.9197,-23.3792 509.6822,-17.4236 499.1183,-16.6149 500.9197,-23.3792"/>
</g>
<!-- Node10 -->
<g id="node11" class="node">
<title>Node10</title>
<polygon fill="none" stroke="#bfbfbf" points="0,-.5 0,-19.5 64,-19.5 64,-.5 0,-.5"/>
<text text-anchor="middle" x="32" y="-7.5" font-family="FreeSans.ttf" font-size="10.00" fill="#000000">algorithm</text>
</g>
<!-- Node8&#45;&gt;Node10 -->
<g id="edge10" class="edge">
<title>Node8&#45;&gt;Node10</title>
<path fill="none" stroke="#191970" d="M256.3641,-56.4692C210.6874,-48.0337 142.5491,-35.0568 74.2685,-20.2074"/>
<polygon fill="#191970" stroke="#191970" points="74.713,-16.7219 64.196,-18.0032 73.2166,-23.5601 74.713,-16.7219"/>
</g>
<!-- Node11 -->
<g id="node12" class="node">
<title>Node11</title>
<polygon fill="none" stroke="#bfbfbf" points="82,-.5 82,-19.5 124,-19.5 124,-.5 82,-.5"/>
<text text-anchor="middle" x="103" y="-7.5" font-family="FreeSans.ttf" font-size="10.00" fill="#000000">array</text>
</g>
<!-- Node8&#45;&gt;Node11 -->
<g id="edge11" class="edge">
<title>Node8&#45;&gt;Node11</title>
<path fill="none" stroke="#191970" d="M269.2992,-56.42C235.5896,-48.1081 185.7399,-35.4008 133.9414,-20.1526"/>
<polygon fill="#191970" stroke="#191970" points="134.8328,-16.7663 124.2503,-17.2763 132.8411,-23.477 134.8328,-16.7663"/>
</g>
<!-- Node12 -->
<g id="node13" class="node">
<title>Node12</title>
<polygon fill="none" stroke="#bfbfbf" points="142.5,-.5 142.5,-19.5 195.5,-19.5 195.5,-.5 142.5,-.5"/>
<text text-anchor="middle" x="169" y="-7.5" font-family="FreeSans.ttf" font-size="10.00" fill="#000000">iterator</text>
</g>
<!-- Node8&#45;&gt;Node12 -->
<g id="edge13" class="edge">
<title>Node8&#45;&gt;Node12</title>
<path fill="none" stroke="#191970" d="M284.9331,-56.3733C262.1572,-47.2629 227.7656,-33.5062 202.351,-23.3404"/>
<polygon fill="#191970" stroke="#191970" points="203.3375,-19.9654 192.7528,-19.5011 200.7377,-26.4648 203.3375,-19.9654"/>
</g>
<!-- Node13 -->
<g id="node14" class="node">
<title>Node13</title>
<polygon fill="none" stroke="#bfbfbf" points="214,-.5 214,-19.5 258,-19.5 258,-.5 214,-.5"/>
<text text-anchor="middle" x="236" y="-7.5" font-family="FreeSans.ttf" font-size="10.00" fill="#000000">limits</text>
</g>
<!-- Node8&#45;&gt;Node13 -->
<g id="edge14" class="edge">
<title>Node8&#45;&gt;Node13</title>
<path fill="none" stroke="#191970" d="M296.2844,-56.2455C285.398,-47.8943 269.5117,-35.7076 256.78,-25.9408"/>
<polygon fill="#191970" stroke="#191970" points="258.6346,-22.9523 248.5699,-19.6427 254.3739,-28.5063 258.6346,-22.9523"/>
</g>
<!-- Node14 -->
<g id="node15" class="node">
<title>Node14</title>
<polygon fill="none" stroke="#bfbfbf" points="276.5,-.5 276.5,-19.5 341.5,-19.5 341.5,-.5 276.5,-.5"/>
<text text-anchor="middle" x="309" y="-7.5" font-family="FreeSans.ttf" font-size="10.00" fill="#000000">stdexcept</text>
</g>
<!-- Node8&#45;&gt;Node14 -->
<g id="edge15" class="edge">
<title>Node8&#45;&gt;Node14</title>
<path fill="none" stroke="#191970" d="M309,-56.2455C309,-48.9382 309,-38.6944 309,-29.7046"/>
<polygon fill="#191970" stroke="#191970" points="312.5001,-29.6426 309,-19.6427 305.5001,-29.6427 312.5001,-29.6426"/>
</g>
<!-- Node15 -->
<g id="node16" class="node">
<title>Node15</title>
<polygon fill="none" stroke="#bfbfbf" points="359.5,-.5 359.5,-19.5 428.5,-19.5 428.5,-.5 359.5,-.5"/>
<text text-anchor="middle" x="394" y="-7.5" font-family="FreeSans.ttf" font-size="10.00" fill="#000000">type_traits</text>
</g>
<!-- Node8&#45;&gt;Node15 -->
<g id="edge16" class="edge">
<title>Node8&#45;&gt;Node15</title>
<path fill="none" stroke="#191970" d="M323.8059,-56.2455C336.7256,-47.7337 355.6931,-35.2375 370.6552,-25.3801"/>
<polygon fill="#191970" stroke="#191970" points="372.9387,-28.067 379.3638,-19.6427 369.0876,-22.2216 372.9387,-28.067"/>
</g>
<!-- Node16 -->
<g id="node17" class="node">
<title>Node16</title>
<polygon fill="none" stroke="#bfbfbf" points="446.5,-.5 446.5,-19.5 491.5,-19.5 491.5,-.5 446.5,-.5"/>
<text text-anchor="middle" x="469" y="-7.5" font-family="FreeSans.ttf" font-size="10.00" fill="#000000">utility</text>
</g>
<!-- Node8&#45;&gt;Node16 -->
<g id="edge17" class="edge">
<title>Node8&#45;&gt;Node16</title>
<path fill="none" stroke="#191970" d="M336.505,-56.3733C364.3188,-46.6384 407.2899,-31.5985 436.7051,-21.3032"/>
<polygon fill="#191970" stroke="#191970" points="438.2148,-24.4831 446.4972,-17.876 435.9023,-17.8761 438.2148,-24.4831"/>
</g>
<!-- Node19&#45;&gt;Node2 -->
<g id="edge30" class="edge">
<title>Node19&#45;&gt;Node2</title>
<path fill="none" stroke="#191970" d="M719.5953,-168.4509C742.981,-149.1921 796.0092,-105.5218 824.7008,-81.8935"/>
<polygon fill="#191970" stroke="#191970" points="826.9397,-84.5838 832.4341,-75.5249 822.4898,-79.1802 826.9397,-84.5838"/>
</g>
<!-- Node20 -->
<g id="node21" class="node">
<title>Node20</title>
<g id="a_node21"><a xlink:href="MatrixFixSize_8h.html" target="_top" xlink:title="iDynTree/Core/MatrixFixSize.h">
<polygon fill="none" stroke="#000000" points="589.5,-112.5 589.5,-131.5 750.5,-131.5 750.5,-112.5 589.5,-112.5"/>
<text text-anchor="middle" x="670" y="-119.5" font-family="FreeSans.ttf" font-size="10.00" fill="#000000">iDynTree/Core/MatrixFixSize.h</text>
</a>
</g>
</g>
<!-- Node19&#45;&gt;Node20 -->
<g id="edge23" class="edge">
<title>Node19&#45;&gt;Node20</title>
<path fill="none" stroke="#191970" d="M701.3809,-168.2455C696.0954,-160.4564 688.5459,-149.3308 682.1762,-139.9439"/>
<polygon fill="#191970" stroke="#191970" points="685.0545,-137.9522 676.5432,-131.6427 679.2621,-141.8827 685.0545,-137.9522"/>
</g>
<!-- Node20&#45;&gt;Node2 -->
<g id="edge27" class="edge">
<title>Node20&#45;&gt;Node2</title>
<path fill="none" stroke="#191970" d="M699.5808,-112.4923C726.5797,-103.8127 767.838,-90.5448 812.4244,-76.1838"/>
<polygon fill="#191970" stroke="#191970" points="813.5401,-79.5016 821.9853,-73.104 811.3938,-72.8387 813.5401,-79.5016"/>
</g>
<!-- Node20&#45;&gt;Node5 -->
<g id="edge24" class="edge">
<title>Node20&#45;&gt;Node5</title>
<path fill="none" stroke="#191970" d="M669.3033,-112.2455C668.7813,-104.9382 668.0496,-94.6944 667.4075,-85.7046"/>
<polygon fill="#191970" stroke="#191970" points="670.8924,-85.3679 666.6888,-75.6427 663.9102,-85.8667 670.8924,-85.3679"/>
</g>
<!-- Node20&#45;&gt;Node9 -->
<g id="edge25" class="edge">
<title>Node20&#45;&gt;Node9</title>
<path fill="none" stroke="#191970" d="M652.0108,-112.43C636.6669,-103.8655 614.3946,-90.4595 597,-76 579.3133,-61.2977 561.7701,-41.6443 550.0693,-27.6161"/>
<polygon fill="#191970" stroke="#191970" points="552.6332,-25.2227 543.5897,-19.7031 547.2172,-29.6576 552.6332,-25.2227"/>
</g>
<!-- Node20&#45;&gt;Node17 -->
<g id="edge29" class="edge">
<title>Node20&#45;&gt;Node17</title>
<path fill="none" stroke="#191970" d="M632.25,-112.4438C598.0526,-103.7547 546.0232,-90.4547 492.0177,-76.2479"/>
<polygon fill="#191970" stroke="#191970" points="492.8339,-72.8435 482.2721,-73.6799 491.0502,-79.6125 492.8339,-72.8435"/>
</g>
<!-- Node20&#45;&gt;Node18 -->
<g id="edge26" class="edge">
<title>Node20&#45;&gt;Node18</title>
<path fill="none" stroke="#191970" d="M645.0736,-112.3733C621.3798,-103.2226 585.5489,-89.3844 559.1932,-79.2057"/>
<polygon fill="#191970" stroke="#191970" points="560.1906,-75.8389 549.6011,-75.5011 557.6686,-82.3689 560.1906,-75.8389"/>
</g>
<!-- Node21 -->
<g id="node22" class="node">
<title>Node21</title>
<polygon fill="none" stroke="#bfbfbf" points="744,-56.5 744,-75.5 804,-75.5 804,-56.5 744,-56.5"/>
<text text-anchor="middle" x="774" y="-63.5" font-family="FreeSans.ttf" font-size="10.00" fill="#000000">iostream</text>
</g>
<!-- Node20&#45;&gt;Node21 -->
<g id="edge28" class="edge">
<title>Node20&#45;&gt;Node21</title>
<path fill="none" stroke="#191970" d="M688.1154,-112.2455C704.445,-103.4527 728.671,-90.4079 747.2339,-80.4125"/>
<polygon fill="#191970" stroke="#191970" points="748.9468,-83.4654 756.0922,-75.6427 745.6281,-77.3021 748.9468,-83.4654"/>
</g>
</g>
</svg>
