<?xml version="1.0" encoding="UTF-8" standalone="no"?>
<!DOCTYPE svg PUBLIC "-//W3C//DTD SVG 1.1//EN"
 "http://www.w3.org/Graphics/SVG/1.1/DTD/svg11.dtd">
<!-- Generated by graphviz version 2.40.1 (20161225.0304)
 -->
<!-- Title: SO3Utils.cpp Pages: 1 -->
<svg width="1442pt" height="543pt"
 viewBox="0.00 0.00 1442.00 543.00" xmlns="http://www.w3.org/2000/svg" xmlns:xlink="http://www.w3.org/1999/xlink">
<g id="graph0" class="graph" transform="scale(1 1) rotate(0) translate(4 539)">
<title>SO3Utils.cpp</title>
<!-- Node0 -->
<g id="node1" class="node">
<title>Node0</title>
<polygon fill="#bfbfbf" stroke="#000000" points="1176.5,-515.5 1176.5,-534.5 1255.5,-534.5 1255.5,-515.5 1176.5,-515.5"/>
<text text-anchor="middle" x="1216" y="-522.5" font-family="FreeSans.ttf" font-size="10.00" fill="#000000">SO3Utils.cpp</text>
</g>
<!-- Node1 -->
<g id="node2" class="node">
<title>Node1</title>
<g id="a_node2"><a xlink:href="SO3Utils_8h.html" target="_top" xlink:title="iDynTree/Core/SO3Utils.h">
<polygon fill="none" stroke="#000000" points="256.5,-280.5 256.5,-299.5 395.5,-299.5 395.5,-280.5 256.5,-280.5"/>
<text text-anchor="middle" x="326" y="-287.5" font-family="FreeSans.ttf" font-size="10.00" fill="#000000">iDynTree/Core/SO3Utils.h</text>
</a>
</g>
</g>
<!-- Node0&#45;&gt;Node1 -->
<g id="edge1" class="edge">
<title>Node0&#45;&gt;Node1</title>
<path fill="none" stroke="#191970" d="M1176.446,-523.649C1010.0701,-517.5563 373.0478,-489.9655 317,-423 290.0124,-390.7554 305.8652,-337.2881 317.3429,-308.9638"/>
<polygon fill="#191970" stroke="#191970" points="320.5684,-310.3225 321.2861,-299.752 314.1332,-307.5678 320.5684,-310.3225"/>
</g>
<!-- Node3 -->
<g id="node4" class="node">
<title>Node3</title>
<polygon fill="none" stroke="#bfbfbf" points="913,-56.5 913,-75.5 957,-75.5 957,-56.5 913,-56.5"/>
<text text-anchor="middle" x="935" y="-63.5" font-family="FreeSans.ttf" font-size="10.00" fill="#000000">string</text>
</g>
<!-- Node0&#45;&gt;Node3 -->
<g id="edge72" class="edge">
<title>Node0&#45;&gt;Node3</title>
<path fill="none" stroke="#191970" d="M1216,-515.2511C1216,-495.1182 1216,-447.4826 1216,-407.5 1216,-407.5 1216,-407.5 1216,-178 1216,-135.2408 1183.8215,-131.9469 1146,-112 1087.9131,-81.3652 1010.5362,-71.1171 967.4585,-67.6996"/>
<polygon fill="#191970" stroke="#191970" points="967.5029,-64.1939 957.2781,-66.9697 967.0022,-71.176 967.5029,-64.1939"/>
</g>
<!-- Node6 -->
<g id="node7" class="node">
<title>Node6</title>
<g id="a_node7"><a xlink:href="Utils_8h.html" target="_top" xlink:title="iDynTree/Core/Utils.h">
<polygon fill="none" stroke="#000000" points="140.5,-56.5 140.5,-75.5 259.5,-75.5 259.5,-56.5 140.5,-56.5"/>
<text text-anchor="middle" x="200" y="-63.5" font-family="FreeSans.ttf" font-size="10.00" fill="#000000">iDynTree/Core/Utils.h</text>
</a>
</g>
</g>
<!-- Node0&#45;&gt;Node6 -->
<g id="edge35" class="edge">
<title>Node0&#45;&gt;Node6</title>
<path fill="none" stroke="#191970" d="M1176.4927,-524.3521C1059.3348,-522.0855 703.7334,-512.7131 411,-479 226.8073,-457.7871 0,-592.9102 0,-407.5 0,-407.5 0,-407.5 0,-178 0,-116.586 72.6787,-88.5152 130.4116,-75.9052"/>
<polygon fill="#191970" stroke="#191970" points="131.1799,-79.3204 140.2643,-73.8684 129.7628,-72.4653 131.1799,-79.3204"/>
</g>
<!-- Node24 -->
<g id="node25" class="node">
<title>Node24</title>
<g id="a_node25"><a xlink:href="EigenHelpers_8h.html" target="_top" xlink:title="iDynTree/Core/EigenHelpers.h">
<polygon fill="none" stroke="#000000" points="638.5,-459.5 638.5,-478.5 799.5,-478.5 799.5,-459.5 638.5,-459.5"/>
<text text-anchor="middle" x="719" y="-466.5" font-family="FreeSans.ttf" font-size="10.00" fill="#000000">iDynTree/Core/EigenHelpers.h</text>
</a>
</g>
</g>
<!-- Node0&#45;&gt;Node24 -->
<g id="edge36" class="edge">
<title>Node0&#45;&gt;Node24</title>
<path fill="none" stroke="#191970" d="M1176.1685,-520.5119C1097.2069,-511.6149 919.0454,-491.5403 809.9142,-479.2439"/>
<polygon fill="#191970" stroke="#191970" points="810.2294,-475.7573 799.9004,-478.1155 809.4456,-482.7133 810.2294,-475.7573"/>
</g>
<!-- Node34 -->
<g id="node35" class="node">
<title>Node34</title>
<polygon fill="none" stroke="#bfbfbf" points="1244.5,-459.5 1244.5,-478.5 1291.5,-478.5 1291.5,-459.5 1244.5,-459.5"/>
<text text-anchor="middle" x="1268" y="-466.5" font-family="FreeSans.ttf" font-size="10.00" fill="#000000">cmath</text>
</g>
<!-- Node0&#45;&gt;Node34 -->
<g id="edge70" class="edge">
<title>Node0&#45;&gt;Node34</title>
<path fill="none" stroke="#191970" d="M1225.0577,-515.2455C1232.5142,-507.2155 1243.2634,-495.6394 1252.1417,-486.0781"/>
<polygon fill="#191970" stroke="#191970" points="1254.8063,-488.3522 1259.0461,-478.6427 1249.6768,-483.589 1254.8063,-488.3522"/>
</g>
<!-- Node35 -->
<g id="node36" class="node">
<title>Node35</title>
<polygon fill="none" stroke="#bfbfbf" points="1310,-459.5 1310,-478.5 1360,-478.5 1360,-459.5 1310,-459.5"/>
<text text-anchor="middle" x="1335" y="-466.5" font-family="FreeSans.ttf" font-size="10.00" fill="#000000">chrono</text>
</g>
<!-- Node0&#45;&gt;Node35 -->
<g id="edge71" class="edge">
<title>Node0&#45;&gt;Node35</title>
<path fill="none" stroke="#191970" d="M1236.4568,-515.3733C1255.4738,-506.4241 1284.0175,-492.9917 1305.4976,-482.8835"/>
<polygon fill="#191970" stroke="#191970" points="1307.2522,-485.926 1314.8101,-478.5011 1304.2716,-479.5923 1307.2522,-485.926"/>
</g>
<!-- Node36 -->
<g id="node37" class="node">
<title>Node36</title>
<polygon fill="none" stroke="#bfbfbf" points="1378,-459.5 1378,-478.5 1434,-478.5 1434,-459.5 1378,-459.5"/>
<text text-anchor="middle" x="1406" y="-466.5" font-family="FreeSans.ttf" font-size="10.00" fill="#000000">numeric</text>
</g>
<!-- Node0&#45;&gt;Node36 -->
<g id="edge73" class="edge">
<title>Node0&#45;&gt;Node36</title>
<path fill="none" stroke="#191970" d="M1248.6622,-515.3733C1281.7852,-505.6107 1333.0101,-490.5128 1367.9479,-480.2154"/>
<polygon fill="#191970" stroke="#191970" points="1369.1825,-483.5004 1377.785,-477.316 1367.2035,-476.786 1369.1825,-483.5004"/>
</g>
<!-- Node2 -->
<g id="node3" class="node">
<title>Node2</title>
<g id="a_node3"><a xlink:href="Rotation_8h.html" target="_top" xlink:title="iDynTree/Core/Rotation.h">
<polygon fill="none" stroke="#000000" points="604.5,-224.5 604.5,-243.5 741.5,-243.5 741.5,-224.5 604.5,-224.5"/>
<text text-anchor="middle" x="673" y="-231.5" font-family="FreeSans.ttf" font-size="10.00" fill="#000000">iDynTree/Core/Rotation.h</text>
</a>
</g>
</g>
<!-- Node1&#45;&gt;Node2 -->
<g id="edge2" class="edge">
<title>Node1&#45;&gt;Node2</title>
<path fill="none" stroke="#191970" d="M385.2572,-280.4369C445.8911,-270.6516 540.0356,-255.4582 603.9917,-245.1368"/>
<polygon fill="#191970" stroke="#191970" points="604.6726,-248.5723 613.9873,-243.5237 603.5573,-241.6617 604.6726,-248.5723"/>
</g>
<!-- Node4 -->
<g id="node5" class="node">
<title>Node4</title>
<g id="a_node5"><a xlink:href="GeomVector3_8h.html" target="_top" xlink:title="iDynTree/Core/GeomVector3.h">
<polygon fill="none" stroke="#000000" points="294.5,-168.5 294.5,-187.5 457.5,-187.5 457.5,-168.5 294.5,-168.5"/>
<text text-anchor="middle" x="376" y="-175.5" font-family="FreeSans.ttf" font-size="10.00" fill="#000000">iDynTree/Core/GeomVector3.h</text>
</a>
</g>
</g>
<!-- Node1&#45;&gt;Node4 -->
<g id="edge33" class="edge">
<title>Node1&#45;&gt;Node4</title>
<path fill="none" stroke="#191970" d="M326.6935,-280.1657C327.9352,-266.8716 331.2838,-242.6821 340,-224 344.837,-213.6325 352.4019,-203.4695 359.3511,-195.344"/>
<polygon fill="#191970" stroke="#191970" points="362.1482,-197.4679 366.23,-187.6908 356.9421,-192.7885 362.1482,-197.4679"/>
</g>
<!-- Node23 -->
<g id="node24" class="node">
<title>Node23</title>
<polygon fill="none" stroke="#bfbfbf" points="348.5,-224.5 348.5,-243.5 395.5,-243.5 395.5,-224.5 348.5,-224.5"/>
<text text-anchor="middle" x="372" y="-231.5" font-family="FreeSans.ttf" font-size="10.00" fill="#000000">vector</text>
</g>
<!-- Node1&#45;&gt;Node23 -->
<g id="edge34" class="edge">
<title>Node1&#45;&gt;Node23</title>
<path fill="none" stroke="#191970" d="M334.0126,-280.2455C340.4768,-272.3761 349.7385,-261.101 357.4983,-251.6542"/>
<polygon fill="#191970" stroke="#191970" points="360.4364,-253.5916 364.0792,-243.6427 355.0273,-249.1484 360.4364,-253.5916"/>
</g>
<!-- Node2&#45;&gt;Node3 -->
<g id="edge3" class="edge">
<title>Node2&#45;&gt;Node3</title>
<path fill="none" stroke="#191970" d="M741.5541,-228.0161C824.3343,-220.084 954.3675,-205.0822 969,-188 1001.2773,-150.3192 924.7966,-174.275 899,-132 888.9974,-115.608 902.3823,-96.2582 915.5766,-82.7644"/>
<polygon fill="#191970" stroke="#191970" points="918.3131,-84.9917 923.1448,-75.5628 913.4877,-79.9207 918.3131,-84.9917"/>
</g>
<!-- Node2&#45;&gt;Node4 -->
<g id="edge4" class="edge">
<title>Node2&#45;&gt;Node4</title>
<path fill="none" stroke="#191970" d="M622.2813,-224.4369C570.8114,-214.7321 491.1298,-199.708 436.4216,-189.3926"/>
<polygon fill="#191970" stroke="#191970" points="436.9848,-185.9372 426.5095,-187.5237 435.6878,-192.816 436.9848,-185.9372"/>
</g>
<!-- Node5 -->
<g id="node6" class="node">
<title>Node5</title>
<g id="a_node6"><a xlink:href="VectorFixSize_8h.html" target="_top" xlink:title="iDynTree/Core/VectorFixSize.h">
<polygon fill="none" stroke="#000000" points="291.5,-112.5 291.5,-131.5 452.5,-131.5 452.5,-112.5 291.5,-112.5"/>
<text text-anchor="middle" x="372" y="-119.5" font-family="FreeSans.ttf" font-size="10.00" fill="#000000">iDynTree/Core/VectorFixSize.h</text>
</a>
</g>
</g>
<!-- Node2&#45;&gt;Node5 -->
<g id="edge32" class="edge">
<title>Node2&#45;&gt;Node5</title>
<path fill="none" stroke="#191970" d="M648.4189,-224.4496C614.9288,-211.4775 553.0548,-187.6514 500,-168 469.3088,-156.632 434.3305,-144.0897 408.7037,-134.9769"/>
<polygon fill="#191970" stroke="#191970" points="409.6193,-131.588 399.0246,-131.54 407.2769,-138.1845 409.6193,-131.588"/>
</g>
<!-- Node20 -->
<g id="node21" class="node">
<title>Node20</title>
<g id="a_node21"><a xlink:href="RotationRaw_8h.html" target="_top" xlink:title="iDynTree/Core/RotationRaw.h">
<polygon fill="none" stroke="#000000" points="628,-168.5 628,-187.5 786,-187.5 786,-168.5 628,-168.5"/>
<text text-anchor="middle" x="707" y="-175.5" font-family="FreeSans.ttf" font-size="10.00" fill="#000000">iDynTree/Core/RotationRaw.h</text>
</a>
</g>
</g>
<!-- Node2&#45;&gt;Node20 -->
<g id="edge23" class="edge">
<title>Node2&#45;&gt;Node20</title>
<path fill="none" stroke="#191970" d="M678.9223,-224.2455C683.6027,-216.5367 690.2673,-205.5598 695.9289,-196.2348"/>
<polygon fill="#191970" stroke="#191970" points="698.9475,-198.007 701.1455,-187.6427 692.9639,-194.3741 698.9475,-198.007"/>
</g>
<!-- Node4&#45;&gt;Node5 -->
<g id="edge5" class="edge">
<title>Node4&#45;&gt;Node5</title>
<path fill="none" stroke="#191970" d="M375.3033,-168.2455C374.7813,-160.9382 374.0496,-150.6944 373.4075,-141.7046"/>
<polygon fill="#191970" stroke="#191970" points="376.8924,-141.3679 372.6888,-131.6427 369.9102,-141.8667 376.8924,-141.3679"/>
</g>
<!-- Node5&#45;&gt;Node3 -->
<g id="edge19" class="edge">
<title>Node5&#45;&gt;Node3</title>
<path fill="none" stroke="#191970" d="M452.9474,-112.9529C456.0034,-112.6281 459.0291,-112.3095 462,-112 627.7632,-94.7314 826.4288,-76.0744 902.8666,-68.9718"/>
<polygon fill="#191970" stroke="#191970" points="903.1912,-72.4568 912.8249,-68.0476 902.5443,-65.4868 903.1912,-72.4568"/>
</g>
<!-- Node5&#45;&gt;Node6 -->
<g id="edge6" class="edge">
<title>Node5&#45;&gt;Node6</title>
<path fill="none" stroke="#191970" d="M342.4321,-112.3733C313.8312,-103.0613 270.3212,-88.8953 238.9181,-78.671"/>
<polygon fill="#191970" stroke="#191970" points="239.7743,-75.269 229.182,-75.5011 237.6072,-81.9251 239.7743,-75.269"/>
</g>
<!-- Node9 -->
<g id="node10" class="node">
<title>Node9</title>
<g id="a_node10"><a xlink:href="Span_8h.html" target="_top" xlink:title="iDynTree/Core/Span.h">
<polygon fill="none" stroke="#000000" points="498.5,-56.5 498.5,-75.5 619.5,-75.5 619.5,-56.5 498.5,-56.5"/>
<text text-anchor="middle" x="559" y="-63.5" font-family="FreeSans.ttf" font-size="10.00" fill="#000000">iDynTree/Core/Span.h</text>
</a>
</g>
</g>
<!-- Node5&#45;&gt;Node9 -->
<g id="edge9" class="edge">
<title>Node5&#45;&gt;Node9</title>
<path fill="none" stroke="#191970" d="M404.1464,-112.3733C435.5109,-102.9807 483.3665,-88.6496 517.5716,-78.4064"/>
<polygon fill="#191970" stroke="#191970" points="518.6975,-81.7229 527.273,-75.5011 516.6893,-75.0171 518.6975,-81.7229"/>
</g>
<!-- Node10 -->
<g id="node11" class="node">
<title>Node10</title>
<polygon fill="none" stroke="#bfbfbf" points="336,-.5 336,-19.5 388,-19.5 388,-.5 336,-.5"/>
<text text-anchor="middle" x="362" y="-7.5" font-family="FreeSans.ttf" font-size="10.00" fill="#000000">cassert</text>
</g>
<!-- Node5&#45;&gt;Node10 -->
<g id="edge21" class="edge">
<title>Node5&#45;&gt;Node10</title>
<path fill="none" stroke="#191970" d="M371.1474,-112.4509C369.5164,-94.184 365.9246,-53.9553 363.7587,-29.6976"/>
<polygon fill="#191970" stroke="#191970" points="367.226,-29.174 362.8504,-19.5249 360.2537,-29.7966 367.226,-29.174"/>
</g>
<!-- Node18 -->
<g id="node19" class="node">
<title>Node18</title>
<polygon fill="none" stroke="#bfbfbf" points="280,-56.5 280,-75.5 336,-75.5 336,-56.5 280,-56.5"/>
<text text-anchor="middle" x="308" y="-63.5" font-family="FreeSans.ttf" font-size="10.00" fill="#000000">sstream</text>
</g>
<!-- Node5&#45;&gt;Node18 -->
<g id="edge20" class="edge">
<title>Node5&#45;&gt;Node18</title>
<path fill="none" stroke="#191970" d="M360.8521,-112.2455C351.4913,-104.0549 337.9142,-92.1749 326.8651,-82.5069"/>
<polygon fill="#191970" stroke="#191970" points="328.8508,-79.5937 319.0202,-75.6427 324.2412,-84.8618 328.8508,-79.5937"/>
</g>
<!-- Node19 -->
<g id="node20" class="node">
<title>Node19</title>
<polygon fill="none" stroke="#bfbfbf" points="392,-56.5 392,-75.5 442,-75.5 442,-56.5 392,-56.5"/>
<text text-anchor="middle" x="417" y="-63.5" font-family="FreeSans.ttf" font-size="10.00" fill="#000000">cstring</text>
</g>
<!-- Node5&#45;&gt;Node19 -->
<g id="edge22" class="edge">
<title>Node5&#45;&gt;Node19</title>
<path fill="none" stroke="#191970" d="M379.8384,-112.2455C386.162,-104.3761 395.2224,-93.101 402.8136,-83.6542"/>
<polygon fill="#191970" stroke="#191970" points="405.7158,-85.6302 409.2514,-75.6427 400.2592,-81.2454 405.7158,-85.6302"/>
</g>
<!-- Node7 -->
<g id="node8" class="node">
<title>Node7</title>
<polygon fill="none" stroke="#bfbfbf" points="263.5,-.5 263.5,-19.5 316.5,-19.5 316.5,-.5 263.5,-.5"/>
<text text-anchor="middle" x="290" y="-7.5" font-family="FreeSans.ttf" font-size="10.00" fill="#000000">cstddef</text>
</g>
<!-- Node6&#45;&gt;Node7 -->
<g id="edge7" class="edge">
<title>Node6&#45;&gt;Node7</title>
<path fill="none" stroke="#191970" d="M215.6768,-56.2455C229.4856,-47.6534 249.8193,-35.0014 265.7292,-25.1018"/>
<polygon fill="#191970" stroke="#191970" points="267.8613,-27.8974 274.5028,-19.6427 264.1632,-21.954 267.8613,-27.8974"/>
</g>
<!-- Node8 -->
<g id="node9" class="node">
<title>Node8</title>
<polygon fill="none" stroke="#bfbfbf" points="160,-.5 160,-19.5 240,-19.5 240,-.5 160,-.5"/>
<text text-anchor="middle" x="200" y="-7.5" font-family="FreeSans.ttf" font-size="10.00" fill="#000000">CoreExport.h</text>
</g>
<!-- Node6&#45;&gt;Node8 -->
<g id="edge8" class="edge">
<title>Node6&#45;&gt;Node8</title>
<path fill="none" stroke="#191970" d="M200,-56.2455C200,-48.9382 200,-38.6944 200,-29.7046"/>
<polygon fill="#191970" stroke="#191970" points="203.5001,-29.6426 200,-19.6427 196.5001,-29.6427 203.5001,-29.6426"/>
</g>
<!-- Node9&#45;&gt;Node7 -->
<g id="edge13" class="edge">
<title>Node9&#45;&gt;Node7</title>
<path fill="none" stroke="#191970" d="M505.3322,-56.4335C458.1668,-47.7705 387.7726,-34.2199 327,-20 326.7894,-19.9507 326.5782,-19.9011 326.3665,-19.8511"/>
<polygon fill="#191970" stroke="#191970" points="327.1712,-16.4447 316.6221,-17.428 325.4819,-23.2378 327.1712,-16.4447"/>
</g>
<!-- Node9&#45;&gt;Node10 -->
<g id="edge10" class="edge">
<title>Node9&#45;&gt;Node10</title>
<path fill="none" stroke="#191970" d="M525.1753,-56.4128C494.4476,-47.6996 447.604,-34.407 398.2683,-20.3585"/>
<polygon fill="#191970" stroke="#191970" points="398.9482,-16.913 388.372,-17.5398 397.0307,-23.6453 398.9482,-16.913"/>
</g>
<!-- Node11 -->
<g id="node12" class="node">
<title>Node11</title>
<polygon fill="none" stroke="#bfbfbf" points="834,-.5 834,-19.5 898,-19.5 898,-.5 834,-.5"/>
<text text-anchor="middle" x="866" y="-7.5" font-family="FreeSans.ttf" font-size="10.00" fill="#000000">algorithm</text>
</g>
<!-- Node9&#45;&gt;Node11 -->
<g id="edge11" class="edge">
<title>Node9&#45;&gt;Node11</title>
<path fill="none" stroke="#191970" d="M619.7037,-56.7074C671.4403,-48.5135 747.9907,-35.7452 823.6367,-20.1814"/>
<polygon fill="#191970" stroke="#191970" points="824.7379,-23.5275 833.818,-18.0683 823.3153,-16.6735 824.7379,-23.5275"/>
</g>
<!-- Node12 -->
<g id="node13" class="node">
<title>Node12</title>
<polygon fill="none" stroke="#bfbfbf" points="406,-.5 406,-19.5 448,-19.5 448,-.5 406,-.5"/>
<text text-anchor="middle" x="427" y="-7.5" font-family="FreeSans.ttf" font-size="10.00" fill="#000000">array</text>
</g>
<!-- Node9&#45;&gt;Node12 -->
<g id="edge12" class="edge">
<title>Node9&#45;&gt;Node12</title>
<path fill="none" stroke="#191970" d="M536.3084,-56.3733C514.5402,-47.1383 481.5186,-33.1291 457.4668,-22.9253"/>
<polygon fill="#191970" stroke="#191970" points="458.6619,-19.6304 448.0892,-18.9469 455.928,-26.0745 458.6619,-19.6304"/>
</g>
<!-- Node13 -->
<g id="node14" class="node">
<title>Node13</title>
<polygon fill="none" stroke="#bfbfbf" points="466.5,-.5 466.5,-19.5 519.5,-19.5 519.5,-.5 466.5,-.5"/>
<text text-anchor="middle" x="493" y="-7.5" font-family="FreeSans.ttf" font-size="10.00" fill="#000000">iterator</text>
</g>
<!-- Node9&#45;&gt;Node13 -->
<g id="edge14" class="edge">
<title>Node9&#45;&gt;Node13</title>
<path fill="none" stroke="#191970" d="M547.5037,-56.2455C537.7558,-47.9746 523.5741,-35.9416 512.1202,-26.2232"/>
<polygon fill="#191970" stroke="#191970" points="514.2541,-23.4437 504.3646,-19.6427 509.7253,-28.7813 514.2541,-23.4437"/>
</g>
<!-- Node14 -->
<g id="node15" class="node">
<title>Node14</title>
<polygon fill="none" stroke="#bfbfbf" points="538,-.5 538,-19.5 582,-19.5 582,-.5 538,-.5"/>
<text text-anchor="middle" x="560" y="-7.5" font-family="FreeSans.ttf" font-size="10.00" fill="#000000">limits</text>
</g>
<!-- Node9&#45;&gt;Node14 -->
<g id="edge15" class="edge">
<title>Node9&#45;&gt;Node14</title>
<path fill="none" stroke="#191970" d="M559.1742,-56.2455C559.3047,-48.9382 559.4876,-38.6944 559.6481,-29.7046"/>
<polygon fill="#191970" stroke="#191970" points="563.1486,-29.7036 559.8278,-19.6427 556.1497,-29.5786 563.1486,-29.7036"/>
</g>
<!-- Node15 -->
<g id="node16" class="node">
<title>Node15</title>
<polygon fill="none" stroke="#bfbfbf" points="600.5,-.5 600.5,-19.5 665.5,-19.5 665.5,-.5 600.5,-.5"/>
<text text-anchor="middle" x="633" y="-7.5" font-family="FreeSans.ttf" font-size="10.00" fill="#000000">stdexcept</text>
</g>
<!-- Node9&#45;&gt;Node15 -->
<g id="edge16" class="edge">
<title>Node9&#45;&gt;Node15</title>
<path fill="none" stroke="#191970" d="M571.8898,-56.2455C582.9254,-47.8943 599.0292,-35.7076 611.9353,-25.9408"/>
<polygon fill="#191970" stroke="#191970" points="614.3959,-28.4681 620.2579,-19.6427 610.1717,-22.8862 614.3959,-28.4681"/>
</g>
<!-- Node16 -->
<g id="node17" class="node">
<title>Node16</title>
<polygon fill="none" stroke="#bfbfbf" points="683.5,-.5 683.5,-19.5 752.5,-19.5 752.5,-.5 683.5,-.5"/>
<text text-anchor="middle" x="718" y="-7.5" font-family="FreeSans.ttf" font-size="10.00" fill="#000000">type_traits</text>
</g>
<!-- Node9&#45;&gt;Node16 -->
<g id="edge17" class="edge">
<title>Node9&#45;&gt;Node16</title>
<path fill="none" stroke="#191970" d="M586.3331,-56.3733C612.5434,-47.1419 652.2984,-33.1402 681.2668,-22.9375"/>
<polygon fill="#191970" stroke="#191970" points="682.7542,-26.1244 691.0236,-19.5011 680.4288,-19.5219 682.7542,-26.1244"/>
</g>
<!-- Node17 -->
<g id="node18" class="node">
<title>Node17</title>
<polygon fill="none" stroke="#bfbfbf" points="770.5,-.5 770.5,-19.5 815.5,-19.5 815.5,-.5 770.5,-.5"/>
<text text-anchor="middle" x="793" y="-7.5" font-family="FreeSans.ttf" font-size="10.00" fill="#000000">utility</text>
</g>
<!-- Node9&#45;&gt;Node17 -->
<g id="edge18" class="edge">
<title>Node9&#45;&gt;Node17</title>
<path fill="none" stroke="#191970" d="M606.4674,-56.495C645.6183,-48.3738 702.7792,-35.873 760.7048,-20.1999"/>
<polygon fill="#191970" stroke="#191970" points="761.6606,-23.5672 770.3831,-17.5531 759.814,-16.8151 761.6606,-23.5672"/>
</g>
<!-- Node20&#45;&gt;Node3 -->
<g id="edge31" class="edge">
<title>Node20&#45;&gt;Node3</title>
<path fill="none" stroke="#191970" d="M726.4392,-168.4509C766.7384,-148.6548 859.5436,-103.0663 906.5738,-79.9638"/>
<polygon fill="#191970" stroke="#191970" points="908.1777,-83.0754 915.6101,-75.5249 905.0913,-76.7925 908.1777,-83.0754"/>
</g>
<!-- Node21 -->
<g id="node22" class="node">
<title>Node21</title>
<g id="a_node22"><a xlink:href="MatrixFixSize_8h.html" target="_top" xlink:title="iDynTree/Core/MatrixFixSize.h">
<polygon fill="none" stroke="#000000" points="470.5,-112.5 470.5,-131.5 631.5,-131.5 631.5,-112.5 470.5,-112.5"/>
<text text-anchor="middle" x="551" y="-119.5" font-family="FreeSans.ttf" font-size="10.00" fill="#000000">iDynTree/Core/MatrixFixSize.h</text>
</a>
</g>
</g>
<!-- Node20&#45;&gt;Node21 -->
<g id="edge24" class="edge">
<title>Node20&#45;&gt;Node21</title>
<path fill="none" stroke="#191970" d="M680.1826,-168.3733C654.4668,-159.1419 615.462,-145.1402 587.0401,-134.9375"/>
<polygon fill="#191970" stroke="#191970" points="588.0619,-131.5857 577.4674,-131.5011 585.6968,-138.174 588.0619,-131.5857"/>
</g>
<!-- Node21&#45;&gt;Node3 -->
<g id="edge28" class="edge">
<title>Node21&#45;&gt;Node3</title>
<path fill="none" stroke="#191970" d="M616.5756,-112.4369C699.8008,-100.2999 840.0761,-79.8431 902.8946,-70.682"/>
<polygon fill="#191970" stroke="#191970" points="903.6031,-74.1158 912.9933,-69.2093 902.5929,-67.1891 903.6031,-74.1158"/>
</g>
<!-- Node21&#45;&gt;Node6 -->
<g id="edge25" class="edge">
<title>Node21&#45;&gt;Node6</title>
<path fill="none" stroke="#191970" d="M491.0598,-112.4369C429.7268,-102.6516 334.4972,-87.4582 269.8038,-77.1368"/>
<polygon fill="#191970" stroke="#191970" points="270.1196,-73.643 259.693,-75.5237 269.0167,-80.5556 270.1196,-73.643"/>
</g>
<!-- Node21&#45;&gt;Node10 -->
<g id="edge26" class="edge">
<title>Node21&#45;&gt;Node10</title>
<path fill="none" stroke="#191970" d="M537.383,-112.343C518.4083,-99.0426 482.7635,-74.6196 451,-56 431.5027,-44.5708 408.8691,-32.893 391.306,-24.1634"/>
<polygon fill="#191970" stroke="#191970" points="392.6396,-20.9187 382.1226,-19.6373 389.545,-27.1976 392.6396,-20.9187"/>
</g>
<!-- Node21&#45;&gt;Node18 -->
<g id="edge30" class="edge">
<title>Node21&#45;&gt;Node18</title>
<path fill="none" stroke="#191970" d="M509.5029,-112.4369C463.6012,-101.8587 390.2755,-84.9606 345.8789,-74.7293"/>
<polygon fill="#191970" stroke="#191970" points="346.5879,-71.301 336.0573,-72.4659 345.0159,-78.1222 346.5879,-71.301"/>
</g>
<!-- Node21&#45;&gt;Node19 -->
<g id="edge27" class="edge">
<title>Node21&#45;&gt;Node19</title>
<path fill="none" stroke="#191970" d="M527.9646,-112.3733C506.2612,-103.3032 473.5382,-89.6279 449.245,-79.4755"/>
<polygon fill="#191970" stroke="#191970" points="450.3111,-76.1278 439.7348,-75.5011 447.6119,-82.5865 450.3111,-76.1278"/>
</g>
<!-- Node22 -->
<g id="node23" class="node">
<title>Node22</title>
<polygon fill="none" stroke="#bfbfbf" points="638,-56.5 638,-75.5 698,-75.5 698,-56.5 638,-56.5"/>
<text text-anchor="middle" x="668" y="-63.5" font-family="FreeSans.ttf" font-size="10.00" fill="#000000">iostream</text>
</g>
<!-- Node21&#45;&gt;Node22 -->
<g id="edge29" class="edge">
<title>Node21&#45;&gt;Node22</title>
<path fill="none" stroke="#191970" d="M571.113,-112.3733C589.8103,-103.4241 617.8744,-89.9917 638.9934,-79.8835"/>
<polygon fill="#191970" stroke="#191970" points="640.6405,-82.9755 648.1494,-75.5011 637.6183,-76.6614 640.6405,-82.9755"/>
</g>
<!-- Node24&#45;&gt;Node5 -->
<g id="edge41" class="edge">
<title>Node24&#45;&gt;Node5</title>
<path fill="none" stroke="#191970" d="M638.2659,-465.6576C556.3523,-460.8974 426.3914,-449.5657 317,-423 223.2309,-400.2281 114,-442.4946 114,-346 114,-346 114,-346 114,-234 114,-189.8383 242.7999,-152.1691 318.3905,-133.8643"/>
<polygon fill="#191970" stroke="#191970" points="319.3184,-137.2413 328.2338,-131.517 317.6947,-130.4322 319.3184,-137.2413"/>
</g>
<!-- Node24&#45;&gt;Node6 -->
<g id="edge69" class="edge">
<title>Node24&#45;&gt;Node6</title>
<path fill="none" stroke="#191970" d="M638.318,-464.5763C481.6638,-455.7308 149.6925,-435.63 128,-423 92.313,-402.222 76,-387.2951 76,-346 76,-346 76,-346 76,-178 76,-129.6674 128.5232,-96.8067 165.2026,-79.7513"/>
<polygon fill="#191970" stroke="#191970" points="166.8996,-82.8269 174.6075,-75.5579 164.0489,-76.4336 166.8996,-82.8269"/>
</g>
<!-- Node24&#45;&gt;Node21 -->
<g id="edge44" class="edge">
<title>Node24&#45;&gt;Node21</title>
<path fill="none" stroke="#191970" d="M727.251,-459.4123C734.4989,-450.5236 744.8246,-436.6498 751,-423 765.5293,-390.8851 770,-381.2487 770,-346 770,-346 770,-346 770,-290 770,-259.4754 772.7352,-245.432 751,-224 707.7003,-181.3044 671.8209,-218.1285 619,-188 597.2582,-175.5987 577.3416,-154.6269 564.7598,-139.6515"/>
<polygon fill="#191970" stroke="#191970" points="567.2665,-137.1865 558.2411,-131.6373 561.836,-141.6036 567.2665,-137.1865"/>
</g>
<!-- Node25 -->
<g id="node26" class="node">
<title>Node25</title>
<polygon fill="none" stroke="#bfbfbf" points="325.5,-398 325.5,-417 402.5,-417 402.5,-398 325.5,-398"/>
<text text-anchor="middle" x="364" y="-405" font-family="FreeSans.ttf" font-size="10.00" fill="#000000">Eigen/Dense</text>
</g>
<!-- Node24&#45;&gt;Node25 -->
<g id="edge37" class="edge">
<title>Node24&#45;&gt;Node25</title>
<path fill="none" stroke="#191970" d="M638.4865,-460.5881C576.1599,-453.1997 487.9471,-440.8257 412,-423 408.3314,-422.1389 404.5399,-421.1294 400.7705,-420.0457"/>
<polygon fill="#191970" stroke="#191970" points="401.5296,-416.6182 390.9438,-417.0545 399.4912,-423.3149 401.5296,-416.6182"/>
</g>
<!-- Node26 -->
<g id="node27" class="node">
<title>Node26</title>
<g id="a_node27"><a xlink:href="VectorDynSize_8h.html" target="_top" xlink:title="iDynTree/Core/VectorDynSize.h">
<polygon fill="none" stroke="#000000" points="907.5,-112.5 907.5,-131.5 1074.5,-131.5 1074.5,-112.5 907.5,-112.5"/>
<text text-anchor="middle" x="991" y="-119.5" font-family="FreeSans.ttf" font-size="10.00" fill="#000000">iDynTree/Core/VectorDynSize.h</text>
</a>
</g>
</g>
<!-- Node24&#45;&gt;Node26 -->
<g id="edge38" class="edge">
<title>Node24&#45;&gt;Node26</title>
<path fill="none" stroke="#191970" d="M766.0207,-459.409C820.4794,-445.8351 909.0842,-415.7172 959,-356 1011.4941,-293.1982 1001.5785,-186.0549 994.6653,-141.9099"/>
<polygon fill="#191970" stroke="#191970" points="998.0886,-141.1616 992.9714,-131.8845 991.1864,-142.3279 998.0886,-141.1616"/>
</g>
<!-- Node27 -->
<g id="node28" class="node">
<title>Node27</title>
<g id="a_node28"><a xlink:href="MatrixDynSize_8h.html" target="_top" xlink:title="iDynTree/Core/MatrixDynSize.h">
<polygon fill="none" stroke="#000000" points="1021.5,-336.5 1021.5,-355.5 1188.5,-355.5 1188.5,-336.5 1021.5,-336.5"/>
<text text-anchor="middle" x="1105" y="-343.5" font-family="FreeSans.ttf" font-size="10.00" fill="#000000">iDynTree/Core/MatrixDynSize.h</text>
</a>
</g>
</g>
<!-- Node24&#45;&gt;Node27 -->
<g id="edge42" class="edge">
<title>Node24&#45;&gt;Node27</title>
<path fill="none" stroke="#191970" d="M799.5449,-460.8091C871.7067,-452.6342 971.6099,-439.0071 1008,-423 1040.2573,-408.8109 1070.97,-381.2286 1088.894,-363.2185"/>
<polygon fill="#191970" stroke="#191970" points="1091.7375,-365.314 1096.189,-355.6997 1086.7135,-360.4396 1091.7375,-365.314"/>
</g>
<!-- Node28 -->
<g id="node29" class="node">
<title>Node28</title>
<g id="a_node29"><a xlink:href="SpatialMotionVector_8h.html" target="_top" xlink:title="iDynTree/Core/SpatialMotion\lVector.h">
<polygon fill="none" stroke="#000000" points="420.5,-392.5 420.5,-422.5 575.5,-422.5 575.5,-392.5 420.5,-392.5"/>
<text text-anchor="start" x="428.5" y="-410.5" font-family="FreeSans.ttf" font-size="10.00" fill="#000000">iDynTree/Core/SpatialMotion</text>
<text text-anchor="middle" x="498" y="-399.5" font-family="FreeSans.ttf" font-size="10.00" fill="#000000">Vector.h</text>
</a>
</g>
</g>
<!-- Node24&#45;&gt;Node28 -->
<g id="edge45" class="edge">
<title>Node24&#45;&gt;Node28</title>
<path fill="none" stroke="#191970" d="M684.4688,-459.3906C651.7204,-450.2774 601.718,-436.3627 561.7335,-425.2358"/>
<polygon fill="#191970" stroke="#191970" points="562.635,-421.8537 552.0627,-422.5446 560.7583,-428.5975 562.635,-421.8537"/>
</g>
<!-- Node32 -->
<g id="node33" class="node">
<title>Node32</title>
<g id="a_node33"><a xlink:href="SpatialForceVector_8h.html" target="_top" xlink:title="iDynTree/Core/SpatialForce\lVector.h">
<polygon fill="none" stroke="#000000" points="594,-392.5 594,-422.5 742,-422.5 742,-392.5 594,-392.5"/>
<text text-anchor="start" x="602" y="-410.5" font-family="FreeSans.ttf" font-size="10.00" fill="#000000">iDynTree/Core/SpatialForce</text>
<text text-anchor="middle" x="668" y="-399.5" font-family="FreeSans.ttf" font-size="10.00" fill="#000000">Vector.h</text>
</a>
</g>
</g>
<!-- Node24&#45;&gt;Node32 -->
<g id="edge60" class="edge">
<title>Node24&#45;&gt;Node32</title>
<path fill="none" stroke="#191970" d="M711.0313,-459.3906C704.5764,-451.6068 695.2168,-440.3202 686.8739,-430.2597"/>
<polygon fill="#191970" stroke="#191970" points="689.5536,-428.008 680.476,-422.5446 684.1652,-432.4764 689.5536,-428.008"/>
</g>
<!-- Node33 -->
<g id="node34" class="node">
<title>Node33</title>
<g id="a_node34"><a xlink:href="Transform_8h.html" target="_top" xlink:title="iDynTree/Core/Transform.h">
<polygon fill="none" stroke="#000000" points="804,-336.5 804,-355.5 950,-355.5 950,-336.5 804,-336.5"/>
<text text-anchor="middle" x="877" y="-343.5" font-family="FreeSans.ttf" font-size="10.00" fill="#000000">iDynTree/Core/Transform.h</text>
</a>
</g>
</g>
<!-- Node24&#45;&gt;Node33 -->
<g id="edge64" class="edge">
<title>Node24&#45;&gt;Node33</title>
<path fill="none" stroke="#191970" d="M733.169,-459.4303C746.4879,-450.328 766.8798,-436.1155 784,-423 810.407,-402.7701 839.8125,-378.0318 858.3512,-362.1486"/>
<polygon fill="#191970" stroke="#191970" points="860.756,-364.6968 866.0545,-355.522 856.191,-359.39 860.756,-364.6968"/>
</g>
<!-- Node26&#45;&gt;Node3 -->
<g id="edge40" class="edge">
<title>Node26&#45;&gt;Node3</title>
<path fill="none" stroke="#191970" d="M981.2455,-112.2455C973.1352,-104.1352 961.4075,-92.4075 951.7919,-82.7919"/>
<polygon fill="#191970" stroke="#191970" points="954.1887,-80.2389 944.6427,-75.6427 949.2389,-85.1887 954.1887,-80.2389"/>
</g>
<!-- Node26&#45;&gt;Node9 -->
<g id="edge39" class="edge">
<title>Node26&#45;&gt;Node9</title>
<path fill="none" stroke="#191970" d="M913.2777,-112.4772C842.2334,-103.6914 733.9659,-90.0998 629.7679,-76.0871"/>
<polygon fill="#191970" stroke="#191970" points="630.0763,-72.5971 619.6984,-74.7299 629.1412,-79.5344 630.0763,-72.5971"/>
</g>
<!-- Node27&#45;&gt;Node3 -->
<g id="edge43" class="edge">
<title>Node27&#45;&gt;Node3</title>
<path fill="none" stroke="#191970" d="M1117.0545,-336.2989C1137.7885,-318.4329 1178,-278.0991 1178,-234 1178,-234 1178,-234 1178,-178 1178,-137.1401 1149.3332,-132.5205 1114,-112 1067.4075,-84.9404 1004.921,-73.5878 967.4394,-68.9792"/>
<polygon fill="#191970" stroke="#191970" points="967.4418,-65.4569 957.11,-67.8029 966.6497,-72.412 967.4418,-65.4569"/>
</g>
<!-- Node28&#45;&gt;Node4 -->
<g id="edge47" class="edge">
<title>Node28&#45;&gt;Node4</title>
<path fill="none" stroke="#191970" d="M479.667,-392.4348C469.1305,-382.9356 456.3675,-369.8719 448,-356 416.1309,-303.1666 431.2087,-279.858 405,-224 400.5131,-214.4371 394.4084,-204.4461 388.9573,-196.228"/>
<polygon fill="#191970" stroke="#191970" points="391.7386,-194.0948 383.2016,-187.8201 385.9624,-198.049 391.7386,-194.0948"/>
</g>
<!-- Node28&#45;&gt;Node5 -->
<g id="edge46" class="edge">
<title>Node28&#45;&gt;Node5</title>
<path fill="none" stroke="#191970" d="M445.8663,-392.4804C379.523,-372.1904 270.7687,-334.5751 248,-300 224.5623,-264.4091 200.9229,-268.32 286,-168 298.2674,-153.5347 316.2649,-142.9211 332.6292,-135.5581"/>
<polygon fill="#191970" stroke="#191970" points="334.1683,-138.7075 342.0199,-131.5939 331.4459,-132.2586 334.1683,-138.7075"/>
</g>
<!-- Node29 -->
<g id="node30" class="node">
<title>Node29</title>
<g id="a_node30"><a xlink:href="SpatialVector_8h.html" target="_top" xlink:title="iDynTree/Core/SpatialVector.h">
<polygon fill="none" stroke="#000000" points="490.5,-336.5 490.5,-355.5 651.5,-355.5 651.5,-336.5 490.5,-336.5"/>
<text text-anchor="middle" x="571" y="-343.5" font-family="FreeSans.ttf" font-size="10.00" fill="#000000">iDynTree/Core/SpatialVector.h</text>
</a>
</g>
</g>
<!-- Node28&#45;&gt;Node29 -->
<g id="edge48" class="edge">
<title>Node28&#45;&gt;Node29</title>
<path fill="none" stroke="#191970" d="M516.0449,-392.2977C526.8114,-383.2274 540.4851,-371.7077 551.4995,-362.4285"/>
<polygon fill="#191970" stroke="#191970" points="553.9191,-364.9667 559.3118,-355.8469 549.4089,-359.6132 553.9191,-364.9667"/>
</g>
<!-- Node29&#45;&gt;Node2 -->
<g id="edge55" class="edge">
<title>Node29&#45;&gt;Node2</title>
<path fill="none" stroke="#191970" d="M579.6965,-336.4509C596.9347,-317.5227 635.6479,-275.014 657.4014,-251.1279"/>
<polygon fill="#191970" stroke="#191970" points="660.1799,-253.275 664.3255,-243.5249 655.0045,-248.5617 660.1799,-253.275"/>
</g>
<!-- Node29&#45;&gt;Node4 -->
<g id="edge57" class="edge">
<title>Node29&#45;&gt;Node4</title>
<path fill="none" stroke="#191970" d="M559.8255,-336.4242C549.8156,-327.5436 535.0524,-313.675 524,-300 498.8876,-268.9288 506.0533,-250.3221 476,-224 459.2749,-209.3514 437.0977,-198.5165 417.8785,-191.0545"/>
<polygon fill="#191970" stroke="#191970" points="419.0243,-187.7466 408.4311,-187.5591 416.5953,-194.3117 419.0243,-187.7466"/>
</g>
<!-- Node29&#45;&gt;Node6 -->
<g id="edge56" class="edge">
<title>Node29&#45;&gt;Node6</title>
<path fill="none" stroke="#191970" d="M490.1683,-343.3005C402.5344,-338.9743 269.6006,-327.9054 228,-300 199.8905,-281.1443 190,-267.8479 190,-234 190,-234 190,-234 190,-178 190,-145.5831 194.2075,-108.0969 197.1641,-85.7572"/>
<polygon fill="#191970" stroke="#191970" points="200.6709,-85.9466 198.5672,-75.5627 193.7363,-84.992 200.6709,-85.9466"/>
</g>
<!-- Node29&#45;&gt;Node18 -->
<g id="edge59" class="edge">
<title>Node29&#45;&gt;Node18</title>
<path fill="none" stroke="#191970" d="M490.3374,-339.034C400.7123,-330.593 266.1371,-315.5583 248,-300 224.7361,-280.0439 228,-264.6506 228,-234 228,-234 228,-234 228,-178 228,-137.601 262.8919,-101.7136 286.5894,-81.9987"/>
<polygon fill="#191970" stroke="#191970" points="288.8125,-84.7024 294.4291,-75.7189 284.4361,-79.2391 288.8125,-84.7024"/>
</g>
<!-- Node29&#45;&gt;Node22 -->
<g id="edge58" class="edge">
<title>Node29&#45;&gt;Node22</title>
<path fill="none" stroke="#191970" d="M572.3459,-336.3563C575.3882,-315.5358 583.5163,-264.9483 596,-224 603.8463,-198.2631 606.8354,-191.9994 619,-168 627.4776,-151.2747 632.5341,-148.7312 641,-132 648.7624,-116.6593 656.0486,-98.5398 661.0909,-85.171"/>
<polygon fill="#191970" stroke="#191970" points="664.4399,-86.2051 664.6199,-75.6118 657.8731,-83.7808 664.4399,-86.2051"/>
</g>
<!-- Node30 -->
<g id="node31" class="node">
<title>Node30</title>
<g id="a_node31"><a xlink:href="Position_8h.html" target="_top" xlink:title="Position.h">
<polygon fill="none" stroke="#000000" points="844.5,-280.5 844.5,-299.5 909.5,-299.5 909.5,-280.5 844.5,-280.5"/>
<text text-anchor="middle" x="877" y="-287.5" font-family="FreeSans.ttf" font-size="10.00" fill="#000000">Position.h</text>
</a>
</g>
</g>
<!-- Node29&#45;&gt;Node30 -->
<g id="edge49" class="edge">
<title>Node29&#45;&gt;Node30</title>
<path fill="none" stroke="#191970" d="M623.2556,-336.4369C682.7501,-325.549 778.8302,-307.9657 834.1156,-297.8481"/>
<polygon fill="#191970" stroke="#191970" points="835.0693,-301.2318 844.2759,-295.9887 833.8092,-294.3462 835.0693,-301.2318"/>
</g>
<!-- Node30&#45;&gt;Node2 -->
<g id="edge53" class="edge">
<title>Node30&#45;&gt;Node2</title>
<path fill="none" stroke="#191970" d="M844.2239,-281.0026C809.8984,-271.58 755.7696,-256.7211 717.5752,-246.2363"/>
<polygon fill="#191970" stroke="#191970" points="718.3128,-242.8094 707.7431,-243.5373 716.4598,-249.5597 718.3128,-242.8094"/>
</g>
<!-- Node30&#45;&gt;Node3 -->
<g id="edge54" class="edge">
<title>Node30&#45;&gt;Node3</title>
<path fill="none" stroke="#191970" d="M901.0535,-280.3666C946.7947,-260.5553 1045.2081,-210.4102 1084,-132 1107.3665,-84.7692 1017.8633,-71.3282 967.3578,-67.5101"/>
<polygon fill="#191970" stroke="#191970" points="967.4384,-64.0078 957.2271,-66.8328 966.9713,-70.9922 967.4384,-64.0078"/>
</g>
<!-- Node31 -->
<g id="node32" class="node">
<title>Node31</title>
<g id="a_node32"><a xlink:href="PositionRaw_8h.html" target="_top" xlink:title="iDynTree/Core/PositionRaw.h">
<polygon fill="none" stroke="#000000" points="804,-168.5 804,-187.5 960,-187.5 960,-168.5 804,-168.5"/>
<text text-anchor="middle" x="882" y="-175.5" font-family="FreeSans.ttf" font-size="10.00" fill="#000000">iDynTree/Core/PositionRaw.h</text>
</a>
</g>
</g>
<!-- Node30&#45;&gt;Node31 -->
<g id="edge50" class="edge">
<title>Node30&#45;&gt;Node31</title>
<path fill="none" stroke="#191970" d="M877.4263,-280.4509C878.2418,-262.184 880.0377,-221.9553 881.1206,-197.6976"/>
<polygon fill="#191970" stroke="#191970" points="884.6252,-197.6711 881.5748,-187.5249 877.6322,-197.3588 884.6252,-197.6711"/>
</g>
<!-- Node31&#45;&gt;Node3 -->
<g id="edge52" class="edge">
<title>Node31&#45;&gt;Node3</title>
<path fill="none" stroke="#191970" d="M875.4205,-168.0524C867.4429,-154.63 856.2086,-130.2955 866,-112 874.0805,-96.9015 889.5479,-85.9029 903.7934,-78.4538"/>
<polygon fill="#191970" stroke="#191970" points="905.404,-81.5629 912.8884,-74.0639 902.3612,-75.2588 905.404,-81.5629"/>
</g>
<!-- Node31&#45;&gt;Node5 -->
<g id="edge51" class="edge">
<title>Node31&#45;&gt;Node5</title>
<path fill="none" stroke="#191970" d="M803.7482,-168.9803C800.7949,-168.6479 797.8709,-168.3202 795,-168 650.2334,-151.855 611.6205,-148.3666 462.9087,-132.0965"/>
<polygon fill="#191970" stroke="#191970" points="463.2734,-128.6156 452.9518,-131.0061 462.5113,-135.574 463.2734,-128.6156"/>
</g>
<!-- Node32&#45;&gt;Node4 -->
<g id="edge62" class="edge">
<title>Node32&#45;&gt;Node4</title>
<path fill="none" stroke="#191970" d="M593.6539,-393.6022C549.6029,-384.1114 499.1302,-370.639 482,-356 433.0091,-314.1338 458.7063,-276.9673 422,-224 414.5135,-213.197 404.3276,-202.7099 395.4437,-194.4839"/>
<polygon fill="#191970" stroke="#191970" points="397.5539,-191.6758 387.7657,-187.621 392.8889,-196.8948 397.5539,-191.6758"/>
</g>
<!-- Node32&#45;&gt;Node5 -->
<g id="edge61" class="edge">
<title>Node32&#45;&gt;Node5</title>
<path fill="none" stroke="#191970" d="M669.653,-392.3548C670.6106,-377.2237 670.1683,-353.7253 661,-336 605.8903,-229.4545 470.7099,-162.2945 406.6938,-135.417"/>
<polygon fill="#191970" stroke="#191970" points="407.9975,-132.1687 397.4181,-131.5963 405.3314,-138.6412 407.9975,-132.1687"/>
</g>
<!-- Node32&#45;&gt;Node29 -->
<g id="edge63" class="edge">
<title>Node32&#45;&gt;Node29</title>
<path fill="none" stroke="#191970" d="M644.0225,-392.2977C629.0624,-382.8127 609.878,-370.6495 594.9274,-361.1705"/>
<polygon fill="#191970" stroke="#191970" points="596.561,-358.062 586.2413,-355.6633 592.8127,-363.9739 596.561,-358.062"/>
</g>
<!-- Node33&#45;&gt;Node2 -->
<g id="edge66" class="edge">
<title>Node33&#45;&gt;Node2</title>
<path fill="none" stroke="#191970" d="M859.6071,-336.4509C823.7757,-316.7788 741.5519,-271.6363 699.2294,-248.4005"/>
<polygon fill="#191970" stroke="#191970" points="700.7991,-245.2695 690.3489,-243.5249 697.4303,-251.4056 700.7991,-245.2695"/>
</g>
<!-- Node33&#45;&gt;Node3 -->
<g id="edge68" class="edge">
<title>Node33&#45;&gt;Node3</title>
<path fill="none" stroke="#191970" d="M896.8411,-336.3258C945.7465,-311.0536 1070.1952,-237.6176 1099,-132 1101.3388,-123.4243 1104.37,-119.0835 1099,-112 1083.1151,-91.0465 1010.1578,-77.0064 967.0873,-70.3861"/>
<polygon fill="#191970" stroke="#191970" points="967.4978,-66.9088 957.0918,-68.9002 966.4684,-73.8327 967.4978,-66.9088"/>
</g>
<!-- Node33&#45;&gt;Node21 -->
<g id="edge67" class="edge">
<title>Node33&#45;&gt;Node21</title>
<path fill="none" stroke="#191970" d="M889.5658,-336.0938C924.6109,-307.331 1017.7482,-222.4071 969,-168 947.6006,-144.1164 758.6835,-131.3488 642.2692,-125.6889"/>
<polygon fill="#191970" stroke="#191970" points="642.0889,-122.1764 631.9334,-125.1958 641.7552,-129.1685 642.0889,-122.1764"/>
</g>
<!-- Node33&#45;&gt;Node30 -->
<g id="edge65" class="edge">
<title>Node33&#45;&gt;Node30</title>
<path fill="none" stroke="#191970" d="M877,-336.2455C877,-328.9382 877,-318.6944 877,-309.7046"/>
<polygon fill="#191970" stroke="#191970" points="880.5001,-309.6426 877,-299.6427 873.5001,-309.6427 880.5001,-309.6426"/>
</g>
</g>
</svg>
