<?xml version="1.0" encoding="UTF-8" standalone="no"?>
<!DOCTYPE svg PUBLIC "-//W3C//DTD SVG 1.1//EN"
 "http://www.w3.org/Graphics/SVG/1.1/DTD/svg11.dtd">
<!-- Generated by graphviz version 2.40.1 (20161225.0304)
 -->
<!-- Title: SolidShapes.h Pages: 1 -->
<svg width="867pt" height="420pt"
 viewBox="0.00 0.00 866.50 420.00" xmlns="http://www.w3.org/2000/svg" xmlns:xlink="http://www.w3.org/1999/xlink">
<g id="graph0" class="graph" transform="scale(1 1) rotate(0) translate(4 416)">
<title>SolidShapes.h</title>
<!-- Node0 -->
<g id="node1" class="node">
<title>Node0</title>
<polygon fill="#bfbfbf" stroke="#000000" points="99,-392.5 99,-411.5 184,-411.5 184,-392.5 99,-392.5"/>
<text text-anchor="middle" x="141.5" y="-399.5" font-family="FreeSans.ttf" font-size="10.00" fill="#000000">SolidShapes.h</text>
</g>
<!-- Node1 -->
<g id="node2" class="node">
<title>Node1</title>
<polygon fill="none" stroke="#bfbfbf" points="0,-336.5 0,-355.5 49,-355.5 49,-336.5 0,-336.5"/>
<text text-anchor="middle" x="24.5" y="-343.5" font-family="FreeSans.ttf" font-size="10.00" fill="#000000">cstdlib</text>
</g>
<!-- Node0&#45;&gt;Node1 -->
<g id="edge1" class="edge">
<title>Node0&#45;&gt;Node1</title>
<path fill="none" stroke="#191970" d="M121.387,-392.3733C102.6897,-383.4241 74.6256,-369.9917 53.5066,-359.8835"/>
<polygon fill="#191970" stroke="#191970" points="54.8817,-356.6614 44.3506,-355.5011 51.8595,-362.9755 54.8817,-356.6614"/>
</g>
<!-- Node2 -->
<g id="node3" class="node">
<title>Node2</title>
<polygon fill="none" stroke="#bfbfbf" points="239.5,-56.5 239.5,-75.5 283.5,-75.5 283.5,-56.5 239.5,-56.5"/>
<text text-anchor="middle" x="261.5" y="-63.5" font-family="FreeSans.ttf" font-size="10.00" fill="#000000">string</text>
</g>
<!-- Node0&#45;&gt;Node2 -->
<g id="edge2" class="edge">
<title>Node0&#45;&gt;Node2</title>
<path fill="none" stroke="#191970" d="M131.2173,-392.2781C113.126,-374.067 77.5,-332.7748 77.5,-290 77.5,-290 77.5,-290 77.5,-178 77.5,-107.7054 176.6994,-80.2566 229.4234,-70.632"/>
<polygon fill="#191970" stroke="#191970" points="230.0408,-74.0773 239.3053,-68.9373 228.8576,-67.178 230.0408,-74.0773"/>
</g>
<!-- Node3 -->
<g id="node4" class="node">
<title>Node3</title>
<polygon fill="none" stroke="#bfbfbf" points="298,-336.5 298,-355.5 345,-355.5 345,-336.5 298,-336.5"/>
<text text-anchor="middle" x="321.5" y="-343.5" font-family="FreeSans.ttf" font-size="10.00" fill="#000000">vector</text>
</g>
<!-- Node0&#45;&gt;Node3 -->
<g id="edge3" class="edge">
<title>Node0&#45;&gt;Node3</title>
<path fill="none" stroke="#191970" d="M172.4431,-392.3733C204.6902,-382.3408 255.0475,-366.6741 288.1592,-356.3727"/>
<polygon fill="#191970" stroke="#191970" points="289.3336,-359.6729 297.8424,-353.3601 287.2541,-352.9889 289.3336,-359.6729"/>
</g>
<!-- Node4 -->
<g id="node5" class="node">
<title>Node4</title>
<g id="a_node5"><a xlink:href="Transform_8h.html" target="_top" xlink:title="iDynTree/Core/Transform.h">
<polygon fill="none" stroke="#000000" points="133.5,-336.5 133.5,-355.5 279.5,-355.5 279.5,-336.5 133.5,-336.5"/>
<text text-anchor="middle" x="206.5" y="-343.5" font-family="FreeSans.ttf" font-size="10.00" fill="#000000">iDynTree/Core/Transform.h</text>
</a>
</g>
</g>
<!-- Node0&#45;&gt;Node4 -->
<g id="edge4" class="edge">
<title>Node0&#45;&gt;Node4</title>
<path fill="none" stroke="#191970" d="M152.8221,-392.2455C162.4223,-383.9746 176.3892,-371.9416 187.6695,-362.2232"/>
<polygon fill="#191970" stroke="#191970" points="190.016,-364.8214 195.3076,-355.6427 185.447,-359.5182 190.016,-364.8214"/>
</g>
<!-- Node4&#45;&gt;Node2 -->
<g id="edge43" class="edge">
<title>Node4&#45;&gt;Node2</title>
<path fill="none" stroke="#191970" d="M190.649,-336.4609C164.5769,-319.4246 115.5,-281.1008 115.5,-234 115.5,-234 115.5,-234 115.5,-178 115.5,-120.9196 186.6221,-88.9586 229.5866,-74.8587"/>
<polygon fill="#191970" stroke="#191970" points="230.8291,-78.1373 239.3257,-71.8083 228.7367,-71.4573 230.8291,-78.1373"/>
</g>
<!-- Node5 -->
<g id="node6" class="node">
<title>Node5</title>
<g id="a_node6"><a xlink:href="Position_8h.html" target="_top" xlink:title="iDynTree/Core/Position.h">
<polygon fill="none" stroke="#000000" points="155.5,-280.5 155.5,-299.5 291.5,-299.5 291.5,-280.5 155.5,-280.5"/>
<text text-anchor="middle" x="223.5" y="-287.5" font-family="FreeSans.ttf" font-size="10.00" fill="#000000">iDynTree/Core/Position.h</text>
</a>
</g>
</g>
<!-- Node4&#45;&gt;Node5 -->
<g id="edge5" class="edge">
<title>Node4&#45;&gt;Node5</title>
<path fill="none" stroke="#191970" d="M209.4612,-336.2455C211.7038,-328.8579 214.8577,-318.4689 217.6081,-309.4087"/>
<polygon fill="#191970" stroke="#191970" points="221.017,-310.2282 220.5728,-299.6427 214.3188,-308.1948 221.017,-310.2282"/>
</g>
<!-- Node22 -->
<g id="node23" class="node">
<title>Node22</title>
<g id="a_node23"><a xlink:href="Rotation_8h.html" target="_top" xlink:title="iDynTree/Core/Rotation.h">
<polygon fill="none" stroke="#000000" points="352,-224.5 352,-243.5 489,-243.5 489,-224.5 352,-224.5"/>
<text text-anchor="middle" x="420.5" y="-231.5" font-family="FreeSans.ttf" font-size="10.00" fill="#000000">iDynTree/Core/Rotation.h</text>
</a>
</g>
</g>
<!-- Node4&#45;&gt;Node22 -->
<g id="edge41" class="edge">
<title>Node4&#45;&gt;Node22</title>
<path fill="none" stroke="#191970" d="M226.8097,-336.406C245.9429,-327.2866 275.3463,-313.0624 300.5,-300 333.2855,-282.9743 370.478,-262.3032 394.6508,-248.6835"/>
<polygon fill="#191970" stroke="#191970" points="396.5627,-251.6234 403.5481,-243.6575 393.1198,-245.5286 396.5627,-251.6234"/>
</g>
<!-- Node25 -->
<g id="node26" class="node">
<title>Node25</title>
<g id="a_node26"><a xlink:href="MatrixFixSize_8h.html" target="_top" xlink:title="iDynTree/Core/MatrixFixSize.h">
<polygon fill="none" stroke="#000000" points="624,-112.5 624,-131.5 785,-131.5 785,-112.5 624,-112.5"/>
<text text-anchor="middle" x="704.5" y="-119.5" font-family="FreeSans.ttf" font-size="10.00" fill="#000000">iDynTree/Core/MatrixFixSize.h</text>
</a>
</g>
</g>
<!-- Node4&#45;&gt;Node25 -->
<g id="edge42" class="edge">
<title>Node4&#45;&gt;Node25</title>
<path fill="none" stroke="#191970" d="M253.6571,-336.4199C385.0337,-309.2702 747.7307,-231.0082 780.5,-188 796.5111,-166.9862 767.1089,-147.775 740.3458,-135.5656"/>
<polygon fill="#191970" stroke="#191970" points="741.6356,-132.3101 731.0682,-131.5475 738.8536,-138.7335 741.6356,-132.3101"/>
</g>
<!-- Node5&#45;&gt;Node2 -->
<g id="edge40" class="edge">
<title>Node5&#45;&gt;Node2</title>
<path fill="none" stroke="#191970" d="M214.0919,-280.2943C195.3826,-259.7647 156.6227,-210.3461 172.5,-168 186.0482,-131.8659 218.8325,-100.1213 240.6021,-82.0015"/>
<polygon fill="#191970" stroke="#191970" points="243.0377,-84.5334 248.6183,-75.5274 238.6395,-79.0875 243.0377,-84.5334"/>
</g>
<!-- Node6 -->
<g id="node7" class="node">
<title>Node6</title>
<g id="a_node7"><a xlink:href="PositionRaw_8h.html" target="_top" xlink:title="iDynTree/Core/PositionRaw.h">
<polygon fill="none" stroke="#000000" points="181.5,-168.5 181.5,-187.5 337.5,-187.5 337.5,-168.5 181.5,-168.5"/>
<text text-anchor="middle" x="259.5" y="-175.5" font-family="FreeSans.ttf" font-size="10.00" fill="#000000">iDynTree/Core/PositionRaw.h</text>
</a>
</g>
</g>
<!-- Node5&#45;&gt;Node6 -->
<g id="edge6" class="edge">
<title>Node5&#45;&gt;Node6</title>
<path fill="none" stroke="#191970" d="M226.5693,-280.4509C232.4674,-262.1013 245.4887,-221.5908 253.2741,-197.3693"/>
<polygon fill="#191970" stroke="#191970" points="256.7104,-198.1162 256.4384,-187.5249 250.0462,-195.9741 256.7104,-198.1162"/>
</g>
<!-- Node5&#45;&gt;Node22 -->
<g id="edge26" class="edge">
<title>Node5&#45;&gt;Node22</title>
<path fill="none" stroke="#191970" d="M257.3655,-280.3733C290.549,-270.9404 341.255,-256.5265 377.3194,-246.2747"/>
<polygon fill="#191970" stroke="#191970" points="378.4145,-249.6021 387.0764,-243.5011 376.5005,-242.8689 378.4145,-249.6021"/>
</g>
<!-- Node6&#45;&gt;Node2 -->
<g id="edge25" class="edge">
<title>Node6&#45;&gt;Node2</title>
<path fill="none" stroke="#191970" d="M259.6705,-168.4509C259.9967,-150.184 260.7151,-109.9553 261.1483,-85.6976"/>
<polygon fill="#191970" stroke="#191970" points="264.6507,-85.5858 261.3299,-75.5249 257.6518,-85.4608 264.6507,-85.5858"/>
</g>
<!-- Node7 -->
<g id="node8" class="node">
<title>Node7</title>
<g id="a_node8"><a xlink:href="VectorFixSize_8h.html" target="_top" xlink:title="iDynTree/Core/VectorFixSize.h">
<polygon fill="none" stroke="#000000" points="431,-112.5 431,-131.5 592,-131.5 592,-112.5 431,-112.5"/>
<text text-anchor="middle" x="511.5" y="-119.5" font-family="FreeSans.ttf" font-size="10.00" fill="#000000">iDynTree/Core/VectorFixSize.h</text>
</a>
</g>
</g>
<!-- Node6&#45;&gt;Node7 -->
<g id="edge7" class="edge">
<title>Node6&#45;&gt;Node7</title>
<path fill="none" stroke="#191970" d="M302.534,-168.4369C345.7525,-158.8328 412.4141,-144.0191 458.7818,-133.7152"/>
<polygon fill="#191970" stroke="#191970" points="459.6409,-137.1097 468.6435,-131.5237 458.1223,-130.2764 459.6409,-137.1097"/>
</g>
<!-- Node7&#45;&gt;Node2 -->
<g id="edge21" class="edge">
<title>Node7&#45;&gt;Node2</title>
<path fill="none" stroke="#191970" d="M459.6423,-112.4958C415.2688,-104.021 349.8257,-90.7081 293.5,-76 293.4014,-75.9743 293.3027,-75.9484 293.2039,-75.9225"/>
<polygon fill="#191970" stroke="#191970" points="294.3764,-72.6168 283.8015,-73.2659 292.4731,-79.3531 294.3764,-72.6168"/>
</g>
<!-- Node8 -->
<g id="node9" class="node">
<title>Node8</title>
<g id="a_node9"><a xlink:href="Utils_8h.html" target="_top" xlink:title="iDynTree/Core/Utils.h">
<polygon fill="none" stroke="#000000" points="555,-56.5 555,-75.5 674,-75.5 674,-56.5 555,-56.5"/>
<text text-anchor="middle" x="614.5" y="-63.5" font-family="FreeSans.ttf" font-size="10.00" fill="#000000">iDynTree/Core/Utils.h</text>
</a>
</g>
</g>
<!-- Node7&#45;&gt;Node8 -->
<g id="edge8" class="edge">
<title>Node7&#45;&gt;Node8</title>
<path fill="none" stroke="#191970" d="M529.4412,-112.2455C545.54,-103.4928 569.3879,-90.527 587.7391,-80.5496"/>
<polygon fill="#191970" stroke="#191970" points="589.6507,-83.4942 596.7644,-75.6427 586.3071,-77.3444 589.6507,-83.4942"/>
</g>
<!-- Node11 -->
<g id="node12" class="node">
<title>Node11</title>
<g id="a_node12"><a xlink:href="Span_8h.html" target="_top" xlink:title="iDynTree/Core/Span.h">
<polygon fill="none" stroke="#000000" points="303,-56.5 303,-75.5 424,-75.5 424,-56.5 303,-56.5"/>
<text text-anchor="middle" x="363.5" y="-63.5" font-family="FreeSans.ttf" font-size="10.00" fill="#000000">iDynTree/Core/Span.h</text>
</a>
</g>
</g>
<!-- Node7&#45;&gt;Node11 -->
<g id="edge11" class="edge">
<title>Node7&#45;&gt;Node11</title>
<path fill="none" stroke="#191970" d="M486.0579,-112.3733C461.7674,-103.1822 424.9792,-89.2624 398.0457,-79.0713"/>
<polygon fill="#191970" stroke="#191970" points="399.2016,-75.7666 388.6101,-75.5011 396.7243,-82.3136 399.2016,-75.7666"/>
</g>
<!-- Node12 -->
<g id="node13" class="node">
<title>Node12</title>
<polygon fill="none" stroke="#bfbfbf" points="618.5,-.5 618.5,-19.5 670.5,-19.5 670.5,-.5 618.5,-.5"/>
<text text-anchor="middle" x="644.5" y="-7.5" font-family="FreeSans.ttf" font-size="10.00" fill="#000000">cassert</text>
</g>
<!-- Node7&#45;&gt;Node12 -->
<g id="edge23" class="edge">
<title>Node7&#45;&gt;Node12</title>
<path fill="none" stroke="#191970" d="M498.2811,-112.385C481.673,-99.1334 457.0009,-74.7667 471.5,-56 508.3608,-8.2897 544.6332,-33.8866 608.1448,-20.0573"/>
<polygon fill="#191970" stroke="#191970" points="609.2688,-23.3853 618.145,-17.6005 607.5987,-16.5874 609.2688,-23.3853"/>
</g>
<!-- Node20 -->
<g id="node21" class="node">
<title>Node20</title>
<polygon fill="none" stroke="#bfbfbf" points="480.5,-56.5 480.5,-75.5 536.5,-75.5 536.5,-56.5 480.5,-56.5"/>
<text text-anchor="middle" x="508.5" y="-63.5" font-family="FreeSans.ttf" font-size="10.00" fill="#000000">sstream</text>
</g>
<!-- Node7&#45;&gt;Node20 -->
<g id="edge22" class="edge">
<title>Node7&#45;&gt;Node20</title>
<path fill="none" stroke="#191970" d="M510.9774,-112.2455C510.586,-104.9382 510.0372,-94.6944 509.5556,-85.7046"/>
<polygon fill="#191970" stroke="#191970" points="513.0466,-85.4411 509.0166,-75.6427 506.0566,-85.8156 513.0466,-85.4411"/>
</g>
<!-- Node21 -->
<g id="node22" class="node">
<title>Node21</title>
<polygon fill="none" stroke="#bfbfbf" points="692.5,-56.5 692.5,-75.5 742.5,-75.5 742.5,-56.5 692.5,-56.5"/>
<text text-anchor="middle" x="717.5" y="-63.5" font-family="FreeSans.ttf" font-size="10.00" fill="#000000">cstring</text>
</g>
<!-- Node7&#45;&gt;Node21 -->
<g id="edge24" class="edge">
<title>Node7&#45;&gt;Node21</title>
<path fill="none" stroke="#191970" d="M548.1445,-112.4803C580.9721,-103.8897 630.6732,-90.7308 682.5589,-76.2206"/>
<polygon fill="#191970" stroke="#191970" points="683.5863,-79.5676 692.269,-73.4963 681.6953,-72.8278 683.5863,-79.5676"/>
</g>
<!-- Node9 -->
<g id="node10" class="node">
<title>Node9</title>
<polygon fill="none" stroke="#bfbfbf" points="547,-.5 547,-19.5 600,-19.5 600,-.5 547,-.5"/>
<text text-anchor="middle" x="573.5" y="-7.5" font-family="FreeSans.ttf" font-size="10.00" fill="#000000">cstddef</text>
</g>
<!-- Node8&#45;&gt;Node9 -->
<g id="edge9" class="edge">
<title>Node8&#45;&gt;Node9</title>
<path fill="none" stroke="#191970" d="M607.3583,-56.2455C601.6556,-48.4564 593.51,-37.3308 586.6375,-27.9439"/>
<polygon fill="#191970" stroke="#191970" points="589.2913,-25.6437 580.5598,-19.6427 583.6432,-29.7789 589.2913,-25.6437"/>
</g>
<!-- Node10 -->
<g id="node11" class="node">
<title>Node10</title>
<polygon fill="none" stroke="#bfbfbf" points="688.5,-.5 688.5,-19.5 768.5,-19.5 768.5,-.5 688.5,-.5"/>
<text text-anchor="middle" x="728.5" y="-7.5" font-family="FreeSans.ttf" font-size="10.00" fill="#000000">CoreExport.h</text>
</g>
<!-- Node8&#45;&gt;Node10 -->
<g id="edge10" class="edge">
<title>Node8&#45;&gt;Node10</title>
<path fill="none" stroke="#191970" d="M634.0973,-56.3733C652.2331,-47.4644 679.4135,-34.1127 699.9587,-24.0203"/>
<polygon fill="#191970" stroke="#191970" points="701.7261,-27.0517 709.1584,-19.5011 698.6397,-20.7688 701.7261,-27.0517"/>
</g>
<!-- Node11&#45;&gt;Node9 -->
<g id="edge15" class="edge">
<title>Node11&#45;&gt;Node9</title>
<path fill="none" stroke="#191970" d="M400.1967,-56.4408C433.3708,-47.7675 483.8069,-34.5031 536.844,-20.1548"/>
<polygon fill="#191970" stroke="#191970" points="538.0375,-23.4577 546.7739,-17.4639 536.2065,-16.7014 538.0375,-23.4577"/>
</g>
<!-- Node11&#45;&gt;Node12 -->
<g id="edge12" class="edge">
<title>Node11&#45;&gt;Node12</title>
<path fill="none" stroke="#191970" d="M422.9761,-56.4809C470.6573,-48.4851 539.4598,-36.1337 608.076,-20.1803"/>
<polygon fill="#191970" stroke="#191970" points="609.2627,-23.4968 618.1959,-17.8005 607.6602,-16.6827 609.2627,-23.4968"/>
</g>
<!-- Node13 -->
<g id="node14" class="node">
<title>Node13</title>
<polygon fill="none" stroke="#bfbfbf" points="404.5,-.5 404.5,-19.5 468.5,-19.5 468.5,-.5 404.5,-.5"/>
<text text-anchor="middle" x="436.5" y="-7.5" font-family="FreeSans.ttf" font-size="10.00" fill="#000000">algorithm</text>
</g>
<!-- Node11&#45;&gt;Node13 -->
<g id="edge13" class="edge">
<title>Node11&#45;&gt;Node13</title>
<path fill="none" stroke="#191970" d="M376.2156,-56.2455C387.102,-47.8943 402.9883,-35.7076 415.72,-25.9408"/>
<polygon fill="#191970" stroke="#191970" points="418.1261,-28.5063 423.9301,-19.6427 413.8654,-22.9523 418.1261,-28.5063"/>
</g>
<!-- Node14 -->
<g id="node15" class="node">
<title>Node14</title>
<polygon fill="none" stroke="#bfbfbf" points="486.5,-.5 486.5,-19.5 528.5,-19.5 528.5,-.5 486.5,-.5"/>
<text text-anchor="middle" x="507.5" y="-7.5" font-family="FreeSans.ttf" font-size="10.00" fill="#000000">array</text>
</g>
<!-- Node11&#45;&gt;Node14 -->
<g id="edge14" class="edge">
<title>Node11&#45;&gt;Node14</title>
<path fill="none" stroke="#191970" d="M388.2545,-56.3733C412.7831,-46.8343 450.4096,-32.2018 476.8214,-21.9306"/>
<polygon fill="#191970" stroke="#191970" points="478.2927,-25.1138 486.3442,-18.2273 475.7555,-18.5898 478.2927,-25.1138"/>
</g>
<!-- Node15 -->
<g id="node16" class="node">
<title>Node15</title>
<polygon fill="none" stroke="#bfbfbf" points="37,-.5 37,-19.5 90,-19.5 90,-.5 37,-.5"/>
<text text-anchor="middle" x="63.5" y="-7.5" font-family="FreeSans.ttf" font-size="10.00" fill="#000000">iterator</text>
</g>
<!-- Node11&#45;&gt;Node15 -->
<g id="edge16" class="edge">
<title>Node11&#45;&gt;Node15</title>
<path fill="none" stroke="#191970" d="M302.875,-57.174C251.4566,-49.2938 175.5752,-36.7396 100.2961,-20.0009"/>
<polygon fill="#191970" stroke="#191970" points="100.6867,-16.5014 90.1623,-17.7211 99.1502,-23.3307 100.6867,-16.5014"/>
</g>
<!-- Node16 -->
<g id="node17" class="node">
<title>Node16</title>
<polygon fill="none" stroke="#bfbfbf" points="108.5,-.5 108.5,-19.5 152.5,-19.5 152.5,-.5 108.5,-.5"/>
<text text-anchor="middle" x="130.5" y="-7.5" font-family="FreeSans.ttf" font-size="10.00" fill="#000000">limits</text>
</g>
<!-- Node11&#45;&gt;Node16 -->
<g id="edge17" class="edge">
<title>Node11&#45;&gt;Node16</title>
<path fill="none" stroke="#191970" d="M316.2689,-56.4751C277.3124,-48.342 220.434,-35.834 162.4685,-20.1035"/>
<polygon fill="#191970" stroke="#191970" points="163.3501,-16.7161 152.7804,-17.4466 161.4986,-23.4668 163.3501,-16.7161"/>
</g>
<!-- Node17 -->
<g id="node18" class="node">
<title>Node17</title>
<polygon fill="none" stroke="#bfbfbf" points="171,-.5 171,-19.5 236,-19.5 236,-.5 171,-.5"/>
<text text-anchor="middle" x="203.5" y="-7.5" font-family="FreeSans.ttf" font-size="10.00" fill="#000000">stdexcept</text>
</g>
<!-- Node11&#45;&gt;Node17 -->
<g id="edge18" class="edge">
<title>Node11&#45;&gt;Node17</title>
<path fill="none" stroke="#191970" d="M335.995,-56.3733C309.6198,-47.1419 269.6149,-33.1402 240.4642,-22.9375"/>
<polygon fill="#191970" stroke="#191970" points="241.2409,-19.5012 230.6461,-19.5011 238.9284,-26.1082 241.2409,-19.5012"/>
</g>
<!-- Node18 -->
<g id="node19" class="node">
<title>Node18</title>
<polygon fill="none" stroke="#bfbfbf" points="254,-.5 254,-19.5 323,-19.5 323,-.5 254,-.5"/>
<text text-anchor="middle" x="288.5" y="-7.5" font-family="FreeSans.ttf" font-size="10.00" fill="#000000">type_traits</text>
</g>
<!-- Node11&#45;&gt;Node18 -->
<g id="edge19" class="edge">
<title>Node11&#45;&gt;Node18</title>
<path fill="none" stroke="#191970" d="M350.436,-56.2455C339.1438,-47.814 322.6155,-35.4729 309.4729,-25.6598"/>
<polygon fill="#191970" stroke="#191970" points="311.5211,-22.8211 301.4143,-19.6427 307.3331,-28.4301 311.5211,-22.8211"/>
</g>
<!-- Node19 -->
<g id="node20" class="node">
<title>Node19</title>
<polygon fill="none" stroke="#bfbfbf" points="341,-.5 341,-19.5 386,-19.5 386,-.5 341,-.5"/>
<text text-anchor="middle" x="363.5" y="-7.5" font-family="FreeSans.ttf" font-size="10.00" fill="#000000">utility</text>
</g>
<!-- Node11&#45;&gt;Node19 -->
<g id="edge20" class="edge">
<title>Node11&#45;&gt;Node19</title>
<path fill="none" stroke="#191970" d="M363.5,-56.2455C363.5,-48.9382 363.5,-38.6944 363.5,-29.7046"/>
<polygon fill="#191970" stroke="#191970" points="367.0001,-29.6426 363.5,-19.6427 360.0001,-29.6427 367.0001,-29.6426"/>
</g>
<!-- Node22&#45;&gt;Node2 -->
<g id="edge27" class="edge">
<title>Node22&#45;&gt;Node2</title>
<path fill="none" stroke="#191970" d="M411.4959,-224.4862C385.7089,-197.2396 311.2984,-118.6172 277.9769,-83.4096"/>
<polygon fill="#191970" stroke="#191970" points="280.2173,-80.685 270.8014,-75.8279 275.1332,-85.4967 280.2173,-80.685"/>
</g>
<!-- Node22&#45;&gt;Node7 -->
<g id="edge39" class="edge">
<title>Node22&#45;&gt;Node7</title>
<path fill="none" stroke="#191970" d="M471.8482,-224.4847C509.1528,-216.4058 555.0269,-203.6439 566.5,-188 579.8698,-169.7698 558.1277,-149.9906 538.1644,-136.8871"/>
<polygon fill="#191970" stroke="#191970" points="539.8808,-133.8332 529.5382,-131.5351 536.1903,-139.7813 539.8808,-133.8332"/>
</g>
<!-- Node23 -->
<g id="node24" class="node">
<title>Node23</title>
<g id="a_node24"><a xlink:href="GeomVector3_8h.html" target="_top" xlink:title="iDynTree/Core/GeomVector3.h">
<polygon fill="none" stroke="#000000" points="394,-168.5 394,-187.5 557,-187.5 557,-168.5 394,-168.5"/>
<text text-anchor="middle" x="475.5" y="-175.5" font-family="FreeSans.ttf" font-size="10.00" fill="#000000">iDynTree/Core/GeomVector3.h</text>
</a>
</g>
</g>
<!-- Node22&#45;&gt;Node23 -->
<g id="edge28" class="edge">
<title>Node22&#45;&gt;Node23</title>
<path fill="none" stroke="#191970" d="M430.0803,-224.2455C438.0458,-216.1352 449.5641,-204.4075 459.0079,-194.7919"/>
<polygon fill="#191970" stroke="#191970" points="461.5195,-197.2297 466.0295,-187.6427 456.5253,-192.3247 461.5195,-197.2297"/>
</g>
<!-- Node24 -->
<g id="node25" class="node">
<title>Node24</title>
<g id="a_node25"><a xlink:href="RotationRaw_8h.html" target="_top" xlink:title="iDynTree/Core/RotationRaw.h">
<polygon fill="none" stroke="#000000" points="613.5,-168.5 613.5,-187.5 771.5,-187.5 771.5,-168.5 613.5,-168.5"/>
<text text-anchor="middle" x="692.5" y="-175.5" font-family="FreeSans.ttf" font-size="10.00" fill="#000000">iDynTree/Core/RotationRaw.h</text>
</a>
</g>
</g>
<!-- Node22&#45;&gt;Node24 -->
<g id="edge30" class="edge">
<title>Node22&#45;&gt;Node24</title>
<path fill="none" stroke="#191970" d="M466.9494,-224.4369C513.7935,-214.7925 586.1539,-199.8948 636.2262,-189.5858"/>
<polygon fill="#191970" stroke="#191970" points="637.1534,-192.9684 646.2422,-187.5237 635.7418,-186.1122 637.1534,-192.9684"/>
</g>
<!-- Node23&#45;&gt;Node7 -->
<g id="edge29" class="edge">
<title>Node23&#45;&gt;Node7</title>
<path fill="none" stroke="#191970" d="M481.7707,-168.2455C486.7264,-160.5367 493.783,-149.5598 499.7776,-140.2348"/>
<polygon fill="#191970" stroke="#191970" points="502.8376,-141.9471 505.3011,-131.6427 496.9494,-138.1618 502.8376,-141.9471"/>
</g>
<!-- Node24&#45;&gt;Node2 -->
<g id="edge38" class="edge">
<title>Node24&#45;&gt;Node2</title>
<path fill="none" stroke="#191970" d="M613.2231,-170.2012C558.4848,-163.4525 484.4943,-151.607 421.5,-132 401.3751,-125.7361 397.8723,-120.3043 378.5,-112 349.8886,-99.7351 316.8418,-86.8584 293.1824,-77.8586"/>
<polygon fill="#191970" stroke="#191970" points="294.2492,-74.52 283.6578,-74.2519 291.7703,-81.0664 294.2492,-74.52"/>
</g>
<!-- Node24&#45;&gt;Node25 -->
<g id="edge31" class="edge">
<title>Node24&#45;&gt;Node25</title>
<path fill="none" stroke="#191970" d="M694.5902,-168.2455C696.1561,-160.9382 698.3512,-150.6944 700.2776,-141.7046"/>
<polygon fill="#191970" stroke="#191970" points="703.7607,-142.1541 702.4337,-131.6427 696.916,-140.6873 703.7607,-142.1541"/>
</g>
<!-- Node25&#45;&gt;Node2 -->
<g id="edge35" class="edge">
<title>Node25&#45;&gt;Node2</title>
<path fill="none" stroke="#191970" d="M623.8531,-113.8124C513.3558,-102.4654 324.9433,-82.609 293.5,-76 293.4003,-75.979 293.3005,-75.9579 293.2006,-75.9366"/>
<polygon fill="#191970" stroke="#191970" points="294.2881,-72.6014 283.7355,-73.5462 292.574,-79.3883 294.2881,-72.6014"/>
</g>
<!-- Node25&#45;&gt;Node8 -->
<g id="edge32" class="edge">
<title>Node25&#45;&gt;Node8</title>
<path fill="none" stroke="#191970" d="M688.8232,-112.2455C675.0144,-103.6534 654.6807,-91.0014 638.7708,-81.1018"/>
<polygon fill="#191970" stroke="#191970" points="640.3368,-77.954 629.9972,-75.6427 636.6387,-83.8974 640.3368,-77.954"/>
</g>
<!-- Node25&#45;&gt;Node12 -->
<g id="edge33" class="edge">
<title>Node25&#45;&gt;Node12</title>
<path fill="none" stroke="#191970" d="M720.0211,-112.3151C738.4115,-99.5856 764.9624,-76.4413 751.5,-56 743.2044,-43.404 708.2422,-29.8676 680.5095,-20.7642"/>
<polygon fill="#191970" stroke="#191970" points="681.2729,-17.3338 670.682,-17.6208 679.1403,-24.001 681.2729,-17.3338"/>
</g>
<!-- Node25&#45;&gt;Node20 -->
<g id="edge37" class="edge">
<title>Node25&#45;&gt;Node20</title>
<path fill="none" stroke="#191970" d="M670.8064,-112.3733C636.1906,-102.483 582.4098,-87.1171 546.3487,-76.8139"/>
<polygon fill="#191970" stroke="#191970" points="547.255,-73.4329 536.6782,-74.0509 545.3319,-80.1635 547.255,-73.4329"/>
</g>
<!-- Node25&#45;&gt;Node21 -->
<g id="edge34" class="edge">
<title>Node25&#45;&gt;Node21</title>
<path fill="none" stroke="#191970" d="M706.7644,-112.2455C708.4794,-104.8579 710.8912,-94.4689 712.9944,-85.4087"/>
<polygon fill="#191970" stroke="#191970" points="716.4095,-86.1751 715.2615,-75.6427 709.5908,-84.5922 716.4095,-86.1751"/>
</g>
<!-- Node26 -->
<g id="node27" class="node">
<title>Node26</title>
<polygon fill="none" stroke="#bfbfbf" points="798.5,-56.5 798.5,-75.5 858.5,-75.5 858.5,-56.5 798.5,-56.5"/>
<text text-anchor="middle" x="828.5" y="-63.5" font-family="FreeSans.ttf" font-size="10.00" fill="#000000">iostream</text>
</g>
<!-- Node25&#45;&gt;Node26 -->
<g id="edge36" class="edge">
<title>Node25&#45;&gt;Node26</title>
<path fill="none" stroke="#191970" d="M725.8164,-112.3733C745.7216,-103.3838 775.6436,-89.8706 798.06,-79.7471"/>
<polygon fill="#191970" stroke="#191970" points="799.7887,-82.8068 807.4618,-75.5011 796.9075,-76.4272 799.7887,-82.8068"/>
</g>
</g>
</svg>
