<?xml version="1.0" encoding="UTF-8" standalone="no"?>
<!DOCTYPE svg PUBLIC "-//W3C//DTD SVG 1.1//EN"
 "http://www.w3.org/Graphics/SVG/1.1/DTD/svg11.dtd">
<!-- Generated by graphviz version 2.40.1 (20161225.0304)
 -->
<!-- Title: SpatialVector.h Pages: 1 -->
<svg width="793pt" height="364pt"
 viewBox="0.00 0.00 793.00 364.00" xmlns="http://www.w3.org/2000/svg" xmlns:xlink="http://www.w3.org/1999/xlink">
<g id="graph0" class="graph" transform="scale(1 1) rotate(0) translate(4 360)">
<title>SpatialVector.h</title>
<!-- Node0 -->
<g id="node1" class="node">
<title>Node0</title>
<polygon fill="#bfbfbf" stroke="#000000" points="453.5,-336.5 453.5,-355.5 542.5,-355.5 542.5,-336.5 453.5,-336.5"/>
<text text-anchor="middle" x="498" y="-343.5" font-family="FreeSans.ttf" font-size="10.00" fill="#000000">SpatialVector.h</text>
</g>
<!-- Node1 -->
<g id="node2" class="node">
<title>Node1</title>
<g id="a_node2"><a xlink:href="Position_8h.html" target="_top" xlink:title="Position.h">
<polygon fill="none" stroke="#000000" points="139.5,-280.5 139.5,-299.5 204.5,-299.5 204.5,-280.5 139.5,-280.5"/>
<text text-anchor="middle" x="172" y="-287.5" font-family="FreeSans.ttf" font-size="10.00" fill="#000000">Position.h</text>
</a>
</g>
</g>
<!-- Node0&#45;&gt;Node1 -->
<g id="edge1" class="edge">
<title>Node0&#45;&gt;Node1</title>
<path fill="none" stroke="#191970" d="M453.3546,-338.3309C390.5488,-327.5421 276.8797,-308.0161 214.9849,-297.3839"/>
<polygon fill="#191970" stroke="#191970" points="215.2308,-293.875 204.7825,-295.6314 214.0456,-300.7739 215.2308,-293.875"/>
</g>
<!-- Node4 -->
<g id="node5" class="node">
<title>Node4</title>
<g id="a_node5"><a xlink:href="Utils_8h.html" target="_top" xlink:title="iDynTree/Core/Utils.h">
<polygon fill="none" stroke="#000000" points="204.5,-56.5 204.5,-75.5 323.5,-75.5 323.5,-56.5 204.5,-56.5"/>
<text text-anchor="middle" x="264" y="-63.5" font-family="FreeSans.ttf" font-size="10.00" fill="#000000">iDynTree/Core/Utils.h</text>
</a>
</g>
</g>
<!-- Node0&#45;&gt;Node4 -->
<g id="edge38" class="edge">
<title>Node0&#45;&gt;Node4</title>
<path fill="none" stroke="#191970" d="M458.417,-336.4456C389.5601,-318.6612 255,-278.2464 255,-234 255,-234 255,-234 255,-178 255,-145.6075 258.7867,-108.1141 261.4477,-85.7662"/>
<polygon fill="#191970" stroke="#191970" points="264.955,-85.9219 262.7105,-75.5676 258.0081,-85.0616 264.955,-85.9219"/>
</g>
<!-- Node17 -->
<g id="node18" class="node">
<title>Node17</title>
<polygon fill="none" stroke="#bfbfbf" points="587,-56.5 587,-75.5 643,-75.5 643,-56.5 587,-56.5"/>
<text text-anchor="middle" x="615" y="-63.5" font-family="FreeSans.ttf" font-size="10.00" fill="#000000">sstream</text>
</g>
<!-- Node0&#45;&gt;Node17 -->
<g id="edge41" class="edge">
<title>Node0&#45;&gt;Node17</title>
<path fill="none" stroke="#191970" d="M533.7813,-336.4663C598.1875,-318.2435 727,-276.4869 727,-234 727,-234 727,-234 727,-178 727,-131.7508 678.6579,-97.9293 645.4935,-80.1683"/>
<polygon fill="#191970" stroke="#191970" points="647.0878,-77.0526 636.5947,-75.5877 643.8841,-83.2764 647.0878,-77.0526"/>
</g>
<!-- Node19 -->
<g id="node20" class="node">
<title>Node19</title>
<g id="a_node20"><a xlink:href="Rotation_8h.html" target="_top" xlink:title="iDynTree/Core/Rotation.h">
<polygon fill="none" stroke="#000000" points="326.5,-224.5 326.5,-243.5 463.5,-243.5 463.5,-224.5 326.5,-224.5"/>
<text text-anchor="middle" x="395" y="-231.5" font-family="FreeSans.ttf" font-size="10.00" fill="#000000">iDynTree/Core/Rotation.h</text>
</a>
</g>
</g>
<!-- Node0&#45;&gt;Node19 -->
<g id="edge37" class="edge">
<title>Node0&#45;&gt;Node19</title>
<path fill="none" stroke="#191970" d="M489.2183,-336.4509C471.8111,-317.5227 432.7183,-275.014 410.7515,-251.1279"/>
<polygon fill="#191970" stroke="#191970" points="413.1049,-248.5163 403.7595,-243.5249 407.9524,-253.2547 413.1049,-248.5163"/>
</g>
<!-- Node20 -->
<g id="node21" class="node">
<title>Node20</title>
<g id="a_node21"><a xlink:href="GeomVector3_8h.html" target="_top" xlink:title="iDynTree/Core/GeomVector3.h">
<polygon fill="none" stroke="#000000" points="535.5,-168.5 535.5,-187.5 698.5,-187.5 698.5,-168.5 535.5,-168.5"/>
<text text-anchor="middle" x="617" y="-175.5" font-family="FreeSans.ttf" font-size="10.00" fill="#000000">iDynTree/Core/GeomVector3.h</text>
</a>
</g>
</g>
<!-- Node0&#45;&gt;Node20 -->
<g id="edge39" class="edge">
<title>Node0&#45;&gt;Node20</title>
<path fill="none" stroke="#191970" d="M504.7389,-336.4862C523.8758,-309.4695 578.7921,-231.9405 604.0303,-196.3102"/>
<polygon fill="#191970" stroke="#191970" points="607.1145,-198.0112 610.0386,-187.8279 601.4023,-193.9651 607.1145,-198.0112"/>
</g>
<!-- Node23 -->
<g id="node24" class="node">
<title>Node23</title>
<polygon fill="none" stroke="#bfbfbf" points="725,-56.5 725,-75.5 785,-75.5 785,-56.5 725,-56.5"/>
<text text-anchor="middle" x="755" y="-63.5" font-family="FreeSans.ttf" font-size="10.00" fill="#000000">iostream</text>
</g>
<!-- Node0&#45;&gt;Node23 -->
<g id="edge40" class="edge">
<title>Node0&#45;&gt;Node23</title>
<path fill="none" stroke="#191970" d="M542.6137,-339.6863C580.1177,-333.2056 634.4266,-321.0268 678,-300 721.7108,-278.9069 765,-282.5341 765,-234 765,-234 765,-234 765,-178 765,-145.5831 760.7925,-108.0969 757.8359,-85.7572"/>
<polygon fill="#191970" stroke="#191970" points="761.2637,-84.992 756.4328,-75.5627 754.3291,-85.9466 761.2637,-84.992"/>
</g>
<!-- Node2 -->
<g id="node3" class="node">
<title>Node2</title>
<g id="a_node3"><a xlink:href="PositionRaw_8h.html" target="_top" xlink:title="iDynTree/Core/PositionRaw.h">
<polygon fill="none" stroke="#000000" points="71,-168.5 71,-187.5 227,-187.5 227,-168.5 71,-168.5"/>
<text text-anchor="middle" x="149" y="-175.5" font-family="FreeSans.ttf" font-size="10.00" fill="#000000">iDynTree/Core/PositionRaw.h</text>
</a>
</g>
</g>
<!-- Node1&#45;&gt;Node2 -->
<g id="edge2" class="edge">
<title>Node1&#45;&gt;Node2</title>
<path fill="none" stroke="#191970" d="M170.039,-280.4509C166.2708,-262.1013 157.9517,-221.5908 152.9776,-197.3693"/>
<polygon fill="#191970" stroke="#191970" points="156.3961,-196.6164 150.956,-187.5249 149.5392,-198.0246 156.3961,-196.6164"/>
</g>
<!-- Node16 -->
<g id="node17" class="node">
<title>Node16</title>
<polygon fill="none" stroke="#bfbfbf" points="142,-56.5 142,-75.5 186,-75.5 186,-56.5 142,-56.5"/>
<text text-anchor="middle" x="164" y="-63.5" font-family="FreeSans.ttf" font-size="10.00" fill="#000000">string</text>
</g>
<!-- Node1&#45;&gt;Node16 -->
<g id="edge36" class="edge">
<title>Node1&#45;&gt;Node16</title>
<path fill="none" stroke="#191970" d="M154.493,-280.2485C128.5598,-264.669 80.9618,-231.4421 62,-188 42.299,-142.8644 99.5788,-101.3944 136.1234,-80.3968"/>
<polygon fill="#191970" stroke="#191970" points="137.871,-83.4299 144.9082,-75.5098 134.4679,-77.3127 137.871,-83.4299"/>
</g>
<!-- Node1&#45;&gt;Node19 -->
<g id="edge22" class="edge">
<title>Node1&#45;&gt;Node19</title>
<path fill="none" stroke="#191970" d="M204.9044,-281.737C242.4789,-272.3013 304.2821,-256.7812 347.1749,-246.0099"/>
<polygon fill="#191970" stroke="#191970" points="348.2576,-249.3467 357.104,-243.5165 346.5527,-242.5575 348.2576,-249.3467"/>
</g>
<!-- Node3 -->
<g id="node4" class="node">
<title>Node3</title>
<g id="a_node4"><a xlink:href="VectorFixSize_8h.html" target="_top" xlink:title="iDynTree/Core/VectorFixSize.h">
<polygon fill="none" stroke="#000000" points="321.5,-112.5 321.5,-131.5 482.5,-131.5 482.5,-112.5 321.5,-112.5"/>
<text text-anchor="middle" x="402" y="-119.5" font-family="FreeSans.ttf" font-size="10.00" fill="#000000">iDynTree/Core/VectorFixSize.h</text>
</a>
</g>
</g>
<!-- Node2&#45;&gt;Node3 -->
<g id="edge3" class="edge">
<title>Node2&#45;&gt;Node3</title>
<path fill="none" stroke="#191970" d="M192.2048,-168.4369C235.5947,-158.8328 302.5209,-144.0191 349.0726,-133.7152"/>
<polygon fill="#191970" stroke="#191970" points="349.9662,-137.1022 358.9734,-131.5237 348.4533,-130.2676 349.9662,-137.1022"/>
</g>
<!-- Node2&#45;&gt;Node16 -->
<g id="edge21" class="edge">
<title>Node2&#45;&gt;Node16</title>
<path fill="none" stroke="#191970" d="M150.2789,-168.4509C152.7254,-150.184 158.1131,-109.9553 161.3619,-85.6976"/>
<polygon fill="#191970" stroke="#191970" points="164.8659,-85.901 162.7243,-75.5249 157.9278,-84.9718 164.8659,-85.901"/>
</g>
<!-- Node3&#45;&gt;Node4 -->
<g id="edge4" class="edge">
<title>Node3&#45;&gt;Node4</title>
<path fill="none" stroke="#191970" d="M378.277,-112.3733C355.8263,-103.2629 321.9261,-89.5062 296.8745,-79.3404"/>
<polygon fill="#191970" stroke="#191970" points="297.9957,-76.0182 287.4135,-75.5011 295.3635,-82.5045 297.9957,-76.0182"/>
</g>
<!-- Node7 -->
<g id="node8" class="node">
<title>Node7</title>
<g id="a_node8"><a xlink:href="Span_8h.html" target="_top" xlink:title="iDynTree/Core/Span.h">
<polygon fill="none" stroke="#000000" points="341.5,-56.5 341.5,-75.5 462.5,-75.5 462.5,-56.5 341.5,-56.5"/>
<text text-anchor="middle" x="402" y="-63.5" font-family="FreeSans.ttf" font-size="10.00" fill="#000000">iDynTree/Core/Span.h</text>
</a>
</g>
</g>
<!-- Node3&#45;&gt;Node7 -->
<g id="edge7" class="edge">
<title>Node3&#45;&gt;Node7</title>
<path fill="none" stroke="#191970" d="M402,-112.2455C402,-104.9382 402,-94.6944 402,-85.7046"/>
<polygon fill="#191970" stroke="#191970" points="405.5001,-85.6426 402,-75.6427 398.5001,-85.6427 405.5001,-85.6426"/>
</g>
<!-- Node8 -->
<g id="node9" class="node">
<title>Node8</title>
<polygon fill="none" stroke="#bfbfbf" points="680,-.5 680,-19.5 732,-19.5 732,-.5 680,-.5"/>
<text text-anchor="middle" x="706" y="-7.5" font-family="FreeSans.ttf" font-size="10.00" fill="#000000">cassert</text>
</g>
<!-- Node3&#45;&gt;Node8 -->
<g id="edge19" class="edge">
<title>Node3&#45;&gt;Node8</title>
<path fill="none" stroke="#191970" d="M416.3648,-112.4036C441.0569,-96.0486 490.7489,-63.7845 510,-56 575.0546,-29.694 597.9687,-37.3256 669.7054,-20.1668"/>
<polygon fill="#191970" stroke="#191970" points="670.805,-23.5003 679.6713,-17.7004 669.1233,-16.7053 670.805,-23.5003"/>
</g>
<!-- Node3&#45;&gt;Node16 -->
<g id="edge17" class="edge">
<title>Node3&#45;&gt;Node16</title>
<path fill="none" stroke="#191970" d="M353.1694,-112.49C313.2457,-104.4127 255.1665,-91.9766 196.1404,-76.1375"/>
<polygon fill="#191970" stroke="#191970" points="196.8442,-72.7019 186.2766,-73.4607 195.0108,-79.4576 196.8442,-72.7019"/>
</g>
<!-- Node3&#45;&gt;Node17 -->
<g id="edge18" class="edge">
<title>Node3&#45;&gt;Node17</title>
<path fill="none" stroke="#191970" d="M438.7662,-112.4856C472.3013,-103.7863 523.4876,-90.4556 576.7576,-76.3165"/>
<polygon fill="#191970" stroke="#191970" points="577.959,-79.6188 586.7248,-73.6679 576.1613,-72.8535 577.959,-79.6188"/>
</g>
<!-- Node18 -->
<g id="node19" class="node">
<title>Node18</title>
<polygon fill="none" stroke="#bfbfbf" points="519,-56.5 519,-75.5 569,-75.5 569,-56.5 519,-56.5"/>
<text text-anchor="middle" x="544" y="-63.5" font-family="FreeSans.ttf" font-size="10.00" fill="#000000">cstring</text>
</g>
<!-- Node3&#45;&gt;Node18 -->
<g id="edge20" class="edge">
<title>Node3&#45;&gt;Node18</title>
<path fill="none" stroke="#191970" d="M426.4107,-112.3733C449.6142,-103.2226 484.7038,-89.3844 510.5142,-79.2057"/>
<polygon fill="#191970" stroke="#191970" points="511.8892,-82.4258 519.9079,-75.5011 509.3211,-75.9139 511.8892,-82.4258"/>
</g>
<!-- Node5 -->
<g id="node6" class="node">
<title>Node5</title>
<polygon fill="none" stroke="#bfbfbf" points="98.5,-.5 98.5,-19.5 151.5,-19.5 151.5,-.5 98.5,-.5"/>
<text text-anchor="middle" x="125" y="-7.5" font-family="FreeSans.ttf" font-size="10.00" fill="#000000">cstddef</text>
</g>
<!-- Node4&#45;&gt;Node5 -->
<g id="edge5" class="edge">
<title>Node4&#45;&gt;Node5</title>
<path fill="none" stroke="#191970" d="M240.105,-56.3733C217.4918,-47.2629 183.3458,-33.5062 158.1127,-23.3404"/>
<polygon fill="#191970" stroke="#191970" points="159.1666,-19.9917 148.5831,-19.5011 156.5507,-26.4845 159.1666,-19.9917"/>
</g>
<!-- Node6 -->
<g id="node7" class="node">
<title>Node6</title>
<polygon fill="none" stroke="#bfbfbf" points="0,-.5 0,-19.5 80,-19.5 80,-.5 0,-.5"/>
<text text-anchor="middle" x="40" y="-7.5" font-family="FreeSans.ttf" font-size="10.00" fill="#000000">CoreExport.h</text>
</g>
<!-- Node4&#45;&gt;Node6 -->
<g id="edge6" class="edge">
<title>Node4&#45;&gt;Node6</title>
<path fill="none" stroke="#191970" d="M225.7475,-56.4369C187.6533,-46.9133 129.0687,-32.2672 87.9013,-21.9753"/>
<polygon fill="#191970" stroke="#191970" points="88.645,-18.5536 78.0947,-19.5237 86.9472,-25.3446 88.645,-18.5536"/>
</g>
<!-- Node7&#45;&gt;Node5 -->
<g id="edge11" class="edge">
<title>Node7&#45;&gt;Node5</title>
<path fill="none" stroke="#191970" d="M343.9907,-56.492C297.0785,-48.4577 229.1474,-36.0476 161.6418,-20.2494"/>
<polygon fill="#191970" stroke="#191970" points="162.2248,-16.7907 151.6876,-17.894 160.6129,-23.6027 162.2248,-16.7907"/>
</g>
<!-- Node7&#45;&gt;Node8 -->
<g id="edge8" class="edge">
<title>Node7&#45;&gt;Node8</title>
<path fill="none" stroke="#191970" d="M462.7346,-57.546C515.254,-49.797 593.3591,-37.2272 669.8964,-20.0712"/>
<polygon fill="#191970" stroke="#191970" points="670.7288,-23.4714 679.7061,-17.8448 669.1795,-16.645 670.7288,-23.4714"/>
</g>
<!-- Node9 -->
<g id="node10" class="node">
<title>Node9</title>
<polygon fill="none" stroke="#bfbfbf" points="233,-.5 233,-19.5 297,-19.5 297,-.5 233,-.5"/>
<text text-anchor="middle" x="265" y="-7.5" font-family="FreeSans.ttf" font-size="10.00" fill="#000000">algorithm</text>
</g>
<!-- Node7&#45;&gt;Node9 -->
<g id="edge9" class="edge">
<title>Node7&#45;&gt;Node9</title>
<path fill="none" stroke="#191970" d="M378.4489,-56.3733C356.1609,-47.2629 322.5063,-33.5062 297.6363,-23.3404"/>
<polygon fill="#191970" stroke="#191970" points="298.8247,-20.0451 288.2438,-19.5011 296.1761,-26.5247 298.8247,-20.0451"/>
</g>
<!-- Node10 -->
<g id="node11" class="node">
<title>Node10</title>
<polygon fill="none" stroke="#bfbfbf" points="315,-.5 315,-19.5 357,-19.5 357,-.5 315,-.5"/>
<text text-anchor="middle" x="336" y="-7.5" font-family="FreeSans.ttf" font-size="10.00" fill="#000000">array</text>
</g>
<!-- Node7&#45;&gt;Node10 -->
<g id="edge10" class="edge">
<title>Node7&#45;&gt;Node10</title>
<path fill="none" stroke="#191970" d="M390.5037,-56.2455C380.7558,-47.9746 366.5741,-35.9416 355.1202,-26.2232"/>
<polygon fill="#191970" stroke="#191970" points="357.2541,-23.4437 347.3646,-19.6427 352.7253,-28.7813 357.2541,-23.4437"/>
</g>
<!-- Node11 -->
<g id="node12" class="node">
<title>Node11</title>
<polygon fill="none" stroke="#bfbfbf" points="375.5,-.5 375.5,-19.5 428.5,-19.5 428.5,-.5 375.5,-.5"/>
<text text-anchor="middle" x="402" y="-7.5" font-family="FreeSans.ttf" font-size="10.00" fill="#000000">iterator</text>
</g>
<!-- Node7&#45;&gt;Node11 -->
<g id="edge12" class="edge">
<title>Node7&#45;&gt;Node11</title>
<path fill="none" stroke="#191970" d="M402,-56.2455C402,-48.9382 402,-38.6944 402,-29.7046"/>
<polygon fill="#191970" stroke="#191970" points="405.5001,-29.6426 402,-19.6427 398.5001,-29.6427 405.5001,-29.6426"/>
</g>
<!-- Node12 -->
<g id="node13" class="node">
<title>Node12</title>
<polygon fill="none" stroke="#bfbfbf" points="447,-.5 447,-19.5 491,-19.5 491,-.5 447,-.5"/>
<text text-anchor="middle" x="469" y="-7.5" font-family="FreeSans.ttf" font-size="10.00" fill="#000000">limits</text>
</g>
<!-- Node7&#45;&gt;Node12 -->
<g id="edge13" class="edge">
<title>Node7&#45;&gt;Node12</title>
<path fill="none" stroke="#191970" d="M413.6705,-56.2455C423.5661,-47.9746 437.9627,-35.9416 449.5901,-26.2232"/>
<polygon fill="#191970" stroke="#191970" points="452.035,-28.7413 457.4632,-19.6427 447.5458,-23.3703 452.035,-28.7413"/>
</g>
<!-- Node13 -->
<g id="node14" class="node">
<title>Node13</title>
<polygon fill="none" stroke="#bfbfbf" points="509.5,-.5 509.5,-19.5 574.5,-19.5 574.5,-.5 509.5,-.5"/>
<text text-anchor="middle" x="542" y="-7.5" font-family="FreeSans.ttf" font-size="10.00" fill="#000000">stdexcept</text>
</g>
<!-- Node7&#45;&gt;Node13 -->
<g id="edge14" class="edge">
<title>Node7&#45;&gt;Node13</title>
<path fill="none" stroke="#191970" d="M426.0669,-56.3733C448.8428,-47.2629 483.2344,-33.5062 508.649,-23.3404"/>
<polygon fill="#191970" stroke="#191970" points="510.2623,-26.4648 518.2472,-19.5011 507.6625,-19.9654 510.2623,-26.4648"/>
</g>
<!-- Node14 -->
<g id="node15" class="node">
<title>Node14</title>
<polygon fill="none" stroke="#bfbfbf" points="592.5,-.5 592.5,-19.5 661.5,-19.5 661.5,-.5 592.5,-.5"/>
<text text-anchor="middle" x="627" y="-7.5" font-family="FreeSans.ttf" font-size="10.00" fill="#000000">type_traits</text>
</g>
<!-- Node7&#45;&gt;Node14 -->
<g id="edge15" class="edge">
<title>Node7&#45;&gt;Node14</title>
<path fill="none" stroke="#191970" d="M440.4232,-56.4369C479.8471,-46.6247 541.119,-31.3748 582.5948,-21.052"/>
<polygon fill="#191970" stroke="#191970" points="583.5685,-24.4165 592.4271,-18.6048 581.8778,-17.6237 583.5685,-24.4165"/>
</g>
<!-- Node15 -->
<g id="node16" class="node">
<title>Node15</title>
<polygon fill="none" stroke="#bfbfbf" points="169.5,-.5 169.5,-19.5 214.5,-19.5 214.5,-.5 169.5,-.5"/>
<text text-anchor="middle" x="192" y="-7.5" font-family="FreeSans.ttf" font-size="10.00" fill="#000000">utility</text>
</g>
<!-- Node7&#45;&gt;Node15 -->
<g id="edge16" class="edge">
<title>Node7&#45;&gt;Node15</title>
<path fill="none" stroke="#191970" d="M362.6078,-56.4203C328.4856,-47.9882 277.5933,-35.0926 224.3049,-19.9867"/>
<polygon fill="#191970" stroke="#191970" points="225.2601,-16.6196 214.6836,-17.2424 223.34,-23.3511 225.2601,-16.6196"/>
</g>
<!-- Node19&#45;&gt;Node3 -->
<g id="edge35" class="edge">
<title>Node19&#45;&gt;Node3</title>
<path fill="none" stroke="#191970" d="M380.48,-224.3701C363.884,-212.0658 340.2023,-189.7483 350,-168 355.5697,-155.6369 366.2863,-145.2563 376.5506,-137.5033"/>
<polygon fill="#191970" stroke="#191970" points="378.7618,-140.2277 384.9433,-131.623 374.7451,-134.4948 378.7618,-140.2277"/>
</g>
<!-- Node19&#45;&gt;Node16 -->
<g id="edge23" class="edge">
<title>Node19&#45;&gt;Node16</title>
<path fill="none" stroke="#191970" d="M381.9186,-224.4862C343.8115,-196.772 232.6174,-115.9036 185.4993,-81.6358"/>
<polygon fill="#191970" stroke="#191970" points="187.3703,-78.6688 177.2243,-75.6177 183.253,-84.33 187.3703,-78.6688"/>
</g>
<!-- Node19&#45;&gt;Node20 -->
<g id="edge24" class="edge">
<title>Node19&#45;&gt;Node20</title>
<path fill="none" stroke="#191970" d="M432.9109,-224.4369C470.665,-214.9133 528.7265,-200.2672 569.5264,-189.9753"/>
<polygon fill="#191970" stroke="#191970" points="570.4053,-193.3633 579.2454,-187.5237 568.6931,-186.576 570.4053,-193.3633"/>
</g>
<!-- Node21 -->
<g id="node22" class="node">
<title>Node21</title>
<g id="a_node22"><a xlink:href="RotationRaw_8h.html" target="_top" xlink:title="iDynTree/Core/RotationRaw.h">
<polygon fill="none" stroke="#000000" points="359,-168.5 359,-187.5 517,-187.5 517,-168.5 359,-168.5"/>
<text text-anchor="middle" x="438" y="-175.5" font-family="FreeSans.ttf" font-size="10.00" fill="#000000">iDynTree/Core/RotationRaw.h</text>
</a>
</g>
</g>
<!-- Node19&#45;&gt;Node21 -->
<g id="edge26" class="edge">
<title>Node19&#45;&gt;Node21</title>
<path fill="none" stroke="#191970" d="M402.49,-224.2455C408.5326,-216.3761 417.1903,-205.101 424.4441,-195.6542"/>
<polygon fill="#191970" stroke="#191970" points="427.2815,-197.7058 430.5958,-187.6427 421.7295,-193.4426 427.2815,-197.7058"/>
</g>
<!-- Node20&#45;&gt;Node3 -->
<g id="edge25" class="edge">
<title>Node20&#45;&gt;Node3</title>
<path fill="none" stroke="#191970" d="M580.0402,-168.3733C543.5925,-158.8799 487.7754,-144.3415 448.3711,-134.0781"/>
<polygon fill="#191970" stroke="#191970" points="449.0369,-130.6348 438.4775,-131.5011 447.2724,-137.4087 449.0369,-130.6348"/>
</g>
<!-- Node21&#45;&gt;Node16 -->
<g id="edge34" class="edge">
<title>Node21&#45;&gt;Node16</title>
<path fill="none" stroke="#191970" d="M410.4953,-168.4521C385.0379,-159.4795 346.2215,-145.4543 313,-132 271.2988,-115.1115 223.9111,-93.7373 193.993,-79.9671"/>
<polygon fill="#191970" stroke="#191970" points="195.0961,-76.6213 184.55,-75.6061 192.1612,-82.9764 195.0961,-76.6213"/>
</g>
<!-- Node22 -->
<g id="node23" class="node">
<title>Node22</title>
<g id="a_node23"><a xlink:href="MatrixFixSize_8h.html" target="_top" xlink:title="iDynTree/Core/MatrixFixSize.h">
<polygon fill="none" stroke="#000000" points="500.5,-112.5 500.5,-131.5 661.5,-131.5 661.5,-112.5 500.5,-112.5"/>
<text text-anchor="middle" x="581" y="-119.5" font-family="FreeSans.ttf" font-size="10.00" fill="#000000">iDynTree/Core/MatrixFixSize.h</text>
</a>
</g>
</g>
<!-- Node21&#45;&gt;Node22 -->
<g id="edge27" class="edge">
<title>Node21&#45;&gt;Node22</title>
<path fill="none" stroke="#191970" d="M462.5826,-168.3733C485.9496,-159.2226 521.2862,-145.3844 547.2784,-135.2057"/>
<polygon fill="#191970" stroke="#191970" points="548.703,-138.4066 556.7382,-131.5011 546.1505,-131.8886 548.703,-138.4066"/>
</g>
<!-- Node22&#45;&gt;Node4 -->
<g id="edge28" class="edge">
<title>Node22&#45;&gt;Node4</title>
<path fill="none" stroke="#191970" d="M526.8659,-112.4369C471.702,-102.6918 386.1763,-87.5832 327.7649,-77.2645"/>
<polygon fill="#191970" stroke="#191970" points="328.3672,-73.8167 317.9108,-75.5237 327.1494,-80.71 328.3672,-73.8167"/>
</g>
<!-- Node22&#45;&gt;Node8 -->
<g id="edge29" class="edge">
<title>Node22&#45;&gt;Node8</title>
<path fill="none" stroke="#191970" d="M598.9937,-112.4277C614.0285,-103.9592 635.5827,-90.6914 652,-76 668.1091,-61.5844 683.4094,-42.1418 693.5828,-28.0966"/>
<polygon fill="#191970" stroke="#191970" points="696.567,-29.9385 699.4848,-19.7533 690.8523,-25.8959 696.567,-29.9385"/>
</g>
<!-- Node22&#45;&gt;Node16 -->
<g id="edge31" class="edge">
<title>Node22&#45;&gt;Node16</title>
<path fill="none" stroke="#191970" d="M500.3352,-112.7897C401.3437,-101.4333 241.7987,-82.9384 196.211,-75.5716"/>
<polygon fill="#191970" stroke="#191970" points="196.6779,-72.0988 186.2099,-73.7329 195.4121,-78.9835 196.6779,-72.0988"/>
</g>
<!-- Node22&#45;&gt;Node17 -->
<g id="edge33" class="edge">
<title>Node22&#45;&gt;Node17</title>
<path fill="none" stroke="#191970" d="M586.9223,-112.2455C591.6027,-104.5367 598.2673,-93.5598 603.9289,-84.2348"/>
<polygon fill="#191970" stroke="#191970" points="606.9475,-86.007 609.1455,-75.6427 600.9639,-82.3741 606.9475,-86.007"/>
</g>
<!-- Node22&#45;&gt;Node18 -->
<g id="edge30" class="edge">
<title>Node22&#45;&gt;Node18</title>
<path fill="none" stroke="#191970" d="M574.5551,-112.2455C569.4618,-104.5367 562.2092,-93.5598 556.048,-84.2348"/>
<polygon fill="#191970" stroke="#191970" points="558.8038,-82.0566 550.3711,-75.6427 552.9635,-85.9155 558.8038,-82.0566"/>
</g>
<!-- Node22&#45;&gt;Node23 -->
<g id="edge32" class="edge">
<title>Node22&#45;&gt;Node23</title>
<path fill="none" stroke="#191970" d="M610.9117,-112.3733C639.8452,-103.0613 683.8611,-88.8953 715.6293,-78.671"/>
<polygon fill="#191970" stroke="#191970" points="717.0318,-81.8965 725.4787,-75.5011 714.8872,-75.2331 717.0318,-81.8965"/>
</g>
</g>
</svg>
