<?xml version="1.0" encoding="UTF-8" standalone="no"?>
<!DOCTYPE svg PUBLIC "-//W3C//DTD SVG 1.1//EN"
 "http://www.w3.org/Graphics/SVG/1.1/DTD/svg11.dtd">
<!-- Generated by graphviz version 2.40.1 (20161225.0304)
 -->
<!-- Title: SpatialMotionVector.cpp Pages: 1 -->
<svg width="1297pt" height="599pt"
 viewBox="0.00 0.00 1296.50 599.00" xmlns="http://www.w3.org/2000/svg" xmlns:xlink="http://www.w3.org/1999/xlink">
<g id="graph0" class="graph" transform="scale(1 1) rotate(0) translate(4 595)">
<title>SpatialMotionVector.cpp</title>
<!-- Node0 -->
<g id="node1" class="node">
<title>Node0</title>
<polygon fill="#bfbfbf" stroke="#000000" points="166,-571.5 166,-590.5 300,-590.5 300,-571.5 166,-571.5"/>
<text text-anchor="middle" x="233" y="-578.5" font-family="FreeSans.ttf" font-size="10.00" fill="#000000">SpatialMotionVector.cpp</text>
</g>
<!-- Node1 -->
<g id="node2" class="node">
<title>Node1</title>
<g id="a_node2"><a xlink:href="SpatialMotionVector_8h.html" target="_top" xlink:title="iDynTree/Core/SpatialMotion\lVector.h">
<polygon fill="none" stroke="#000000" points="238.5,-392.5 238.5,-422.5 393.5,-422.5 393.5,-392.5 238.5,-392.5"/>
<text text-anchor="start" x="246.5" y="-410.5" font-family="FreeSans.ttf" font-size="10.00" fill="#000000">iDynTree/Core/SpatialMotion</text>
<text text-anchor="middle" x="316" y="-399.5" font-family="FreeSans.ttf" font-size="10.00" fill="#000000">Vector.h</text>
</a>
</g>
</g>
<!-- Node0&#45;&gt;Node1 -->
<g id="edge1" class="edge">
<title>Node0&#45;&gt;Node1</title>
<path fill="none" stroke="#191970" d="M222.266,-571.311C209.5307,-558.5772 191.0798,-535.4282 200,-515 216.4582,-477.309 253.3701,-446.9215 281.1656,-428.1947"/>
<polygon fill="#191970" stroke="#191970" points="283.3768,-430.9308 289.8323,-422.5298 279.5468,-425.0714 283.3768,-430.9308"/>
</g>
<!-- Node3 -->
<g id="node4" class="node">
<title>Node3</title>
<g id="a_node4"><a xlink:href="Utils_8h.html" target="_top" xlink:title="iDynTree/Core/Utils.h">
<polygon fill="none" stroke="#000000" points="148.5,-56.5 148.5,-75.5 267.5,-75.5 267.5,-56.5 148.5,-56.5"/>
<text text-anchor="middle" x="208" y="-63.5" font-family="FreeSans.ttf" font-size="10.00" fill="#000000">iDynTree/Core/Utils.h</text>
</a>
</g>
</g>
<!-- Node0&#45;&gt;Node3 -->
<g id="edge55" class="edge">
<title>Node0&#45;&gt;Node3</title>
<path fill="none" stroke="#191970" d="M165.9574,-573.3145C113.113,-565.997 44.9612,-553.3597 24,-535 .5205,-514.4346 0,-500.2125 0,-469 0,-469 0,-469 0,-178 0,-113.7023 78.0051,-86.1527 138.4758,-74.4559"/>
<polygon fill="#191970" stroke="#191970" points="139.1861,-77.8842 148.3955,-72.6462 137.9297,-70.9978 139.1861,-77.8842"/>
</g>
<!-- Node16 -->
<g id="node17" class="node">
<title>Node16</title>
<polygon fill="none" stroke="#bfbfbf" points="336,-56.5 336,-75.5 392,-75.5 392,-56.5 336,-56.5"/>
<text text-anchor="middle" x="364" y="-63.5" font-family="FreeSans.ttf" font-size="10.00" fill="#000000">sstream</text>
</g>
<!-- Node0&#45;&gt;Node16 -->
<g id="edge73" class="edge">
<title>Node0&#45;&gt;Node16</title>
<path fill="none" stroke="#191970" d="M210.4791,-571.4785C156.6646,-547.1507 27.2225,-478.4834 57,-392 109.338,-239.9939 159.8111,-211.6067 286,-112 301.3286,-99.9004 320.1464,-88.7124 335.4581,-80.4001"/>
<polygon fill="#191970" stroke="#191970" points="337.2841,-83.3934 344.4762,-75.6137 334.0023,-77.2104 337.2841,-83.3934"/>
</g>
<!-- Node26 -->
<g id="node27" class="node">
<title>Node26</title>
<g id="a_node27"><a xlink:href="SpatialForceVector_8h.html" target="_top" xlink:title="iDynTree/Core/SpatialForce\lVector.h">
<polygon fill="none" stroke="#000000" points="412,-392.5 412,-422.5 560,-422.5 560,-392.5 412,-392.5"/>
<text text-anchor="start" x="420" y="-410.5" font-family="FreeSans.ttf" font-size="10.00" fill="#000000">iDynTree/Core/SpatialForce</text>
<text text-anchor="middle" x="486" y="-399.5" font-family="FreeSans.ttf" font-size="10.00" fill="#000000">Vector.h</text>
</a>
</g>
</g>
<!-- Node0&#45;&gt;Node26 -->
<g id="edge46" class="edge">
<title>Node0&#45;&gt;Node26</title>
<path fill="none" stroke="#191970" d="M282.035,-571.4962C314.1182,-564.1423 356.3526,-552.2669 391,-535 428.2326,-516.4447 442.4734,-513.3084 466,-479 475.3524,-465.3616 480.3539,-447.4352 483.0166,-432.9442"/>
<polygon fill="#191970" stroke="#191970" points="486.5377,-433.0821 484.6302,-422.6604 479.6223,-431.997 486.5377,-433.0821"/>
</g>
<!-- Node27 -->
<g id="node28" class="node">
<title>Node27</title>
<g id="a_node28"><a xlink:href="Transform_8h.html" target="_top" xlink:title="iDynTree/Core/Transform.h">
<polygon fill="none" stroke="#000000" points="649,-336.5 649,-355.5 795,-355.5 795,-336.5 649,-336.5"/>
<text text-anchor="middle" x="722" y="-343.5" font-family="FreeSans.ttf" font-size="10.00" fill="#000000">iDynTree/Core/Transform.h</text>
</a>
</g>
</g>
<!-- Node0&#45;&gt;Node27 -->
<g id="edge50" class="edge">
<title>Node0&#45;&gt;Node27</title>
<path fill="none" stroke="#191970" d="M287.7944,-571.419C326.7577,-563.7555 379.9568,-551.5497 425,-535 528.3598,-497.0238 557.056,-487.9183 646,-423 670.0304,-405.4607 693.4182,-380.1489 707.7596,-363.3967"/>
<polygon fill="#191970" stroke="#191970" points="710.6382,-365.4114 714.3901,-355.5031 705.2782,-360.9091 710.6382,-365.4114"/>
</g>
<!-- Node28 -->
<g id="node29" class="node">
<title>Node28</title>
<g id="a_node29"><a xlink:href="PrivateUtils_8h.html" target="_top" xlink:title="iDynTree/Core/PrivateUtils.h">
<polygon fill="none" stroke="#000000" points="209,-515.5 209,-534.5 363,-534.5 363,-515.5 209,-515.5"/>
<text text-anchor="middle" x="286" y="-522.5" font-family="FreeSans.ttf" font-size="10.00" fill="#000000">iDynTree/Core/PrivateUtils.h</text>
</a>
</g>
</g>
<!-- Node0&#45;&gt;Node28 -->
<g id="edge56" class="edge">
<title>Node0&#45;&gt;Node28</title>
<path fill="none" stroke="#191970" d="M242.2319,-571.2455C249.8317,-563.2155 260.7877,-551.6394 269.8368,-542.0781"/>
<polygon fill="#191970" stroke="#191970" points="272.5421,-544.3115 276.8739,-534.6427 267.458,-539.4998 272.5421,-544.3115"/>
</g>
<!-- Node29 -->
<g id="node30" class="node">
<title>Node29</title>
<polygon fill="none" stroke="#bfbfbf" points="66.5,-398 66.5,-417 143.5,-417 143.5,-398 66.5,-398"/>
<text text-anchor="middle" x="105" y="-405" font-family="FreeSans.ttf" font-size="10.00" fill="#000000">Eigen/Dense</text>
</g>
<!-- Node0&#45;&gt;Node29 -->
<g id="edge72" class="edge">
<title>Node0&#45;&gt;Node29</title>
<path fill="none" stroke="#191970" d="M224.3588,-571.3499C216.2686,-562.1909 203.9667,-547.9399 194,-535 164.9333,-497.262 133.6519,-450.9715 117.019,-425.8485"/>
<polygon fill="#191970" stroke="#191970" points="119.8222,-423.7416 111.3966,-417.3183 113.9776,-427.5939 119.8222,-423.7416"/>
</g>
<!-- Node30 -->
<g id="node31" class="node">
<title>Node30</title>
<g id="a_node31"><a xlink:href="EigenHelpers_8h.html" target="_top" xlink:title="iDynTree/Core/EigenHelpers.h">
<polygon fill="none" stroke="#000000" points="296.5,-459.5 296.5,-478.5 457.5,-478.5 457.5,-459.5 296.5,-459.5"/>
<text text-anchor="middle" x="377" y="-466.5" font-family="FreeSans.ttf" font-size="10.00" fill="#000000">iDynTree/Core/EigenHelpers.h</text>
</a>
</g>
</g>
<!-- Node0&#45;&gt;Node30 -->
<g id="edge71" class="edge">
<title>Node0&#45;&gt;Node30</title>
<path fill="none" stroke="#191970" d="M279.4381,-571.4291C315.1639,-563.0556 360.3383,-549.9206 372,-535 382.0506,-522.1407 382.4879,-503.2346 380.8854,-488.9497"/>
<polygon fill="#191970" stroke="#191970" points="384.2867,-488.0398 379.3075,-478.6879 377.368,-489.1037 384.2867,-488.0398"/>
</g>
<!-- Node2 -->
<g id="node3" class="node">
<title>Node2</title>
<g id="a_node3"><a xlink:href="VectorFixSize_8h.html" target="_top" xlink:title="iDynTree/Core/VectorFixSize.h">
<polygon fill="none" stroke="#000000" points="364.5,-112.5 364.5,-131.5 525.5,-131.5 525.5,-112.5 364.5,-112.5"/>
<text text-anchor="middle" x="445" y="-119.5" font-family="FreeSans.ttf" font-size="10.00" fill="#000000">iDynTree/Core/VectorFixSize.h</text>
</a>
</g>
</g>
<!-- Node1&#45;&gt;Node2 -->
<g id="edge2" class="edge">
<title>Node1&#45;&gt;Node2</title>
<path fill="none" stroke="#191970" d="M299.1193,-392.1071C290.0757,-382.6844 279.8257,-369.8094 275,-356 257.185,-305.0197 130.1156,-358.1517 277,-168 284.1043,-158.803 343.2518,-144.065 389.3801,-133.7566"/>
<polygon fill="#191970" stroke="#191970" points="390.29,-137.14 399.2981,-131.5629 388.7782,-130.3052 390.29,-137.14"/>
</g>
<!-- Node18 -->
<g id="node19" class="node">
<title>Node18</title>
<g id="a_node19"><a xlink:href="GeomVector3_8h.html" target="_top" xlink:title="iDynTree/Core/GeomVector3.h">
<polygon fill="none" stroke="#000000" points="286.5,-168.5 286.5,-187.5 449.5,-187.5 449.5,-168.5 286.5,-168.5"/>
<text text-anchor="middle" x="368" y="-175.5" font-family="FreeSans.ttf" font-size="10.00" fill="#000000">iDynTree/Core/GeomVector3.h</text>
</a>
</g>
</g>
<!-- Node1&#45;&gt;Node18 -->
<g id="edge20" class="edge">
<title>Node1&#45;&gt;Node18</title>
<path fill="none" stroke="#191970" d="M301.5171,-392.184C293.476,-382.596 284.2591,-369.5269 280,-356 277.3304,-347.5215 277.7657,-344.6035 280,-336 294.4568,-280.3327 333.2796,-223.4353 354.1975,-195.5688"/>
<polygon fill="#191970" stroke="#191970" points="357.0125,-197.6496 360.3063,-187.5797 351.4518,-193.3976 357.0125,-197.6496"/>
</g>
<!-- Node19 -->
<g id="node20" class="node">
<title>Node19</title>
<g id="a_node20"><a xlink:href="SpatialVector_8h.html" target="_top" xlink:title="iDynTree/Core/SpatialVector.h">
<polygon fill="none" stroke="#000000" points="289.5,-336.5 289.5,-355.5 450.5,-355.5 450.5,-336.5 289.5,-336.5"/>
<text text-anchor="middle" x="370" y="-343.5" font-family="FreeSans.ttf" font-size="10.00" fill="#000000">iDynTree/Core/SpatialVector.h</text>
</a>
</g>
</g>
<!-- Node1&#45;&gt;Node19 -->
<g id="edge22" class="edge">
<title>Node1&#45;&gt;Node19</title>
<path fill="none" stroke="#191970" d="M329.3483,-392.2977C337.0002,-383.5831 346.6373,-372.6075 354.6076,-363.5302"/>
<polygon fill="#191970" stroke="#191970" points="357.3859,-365.6707 361.3539,-355.8469 352.1258,-361.052 357.3859,-365.6707"/>
</g>
<!-- Node2&#45;&gt;Node3 -->
<g id="edge3" class="edge">
<title>Node2&#45;&gt;Node3</title>
<path fill="none" stroke="#191970" d="M404.5275,-112.4369C364.052,-102.8731 301.7133,-88.1432 258.1297,-77.845"/>
<polygon fill="#191970" stroke="#191970" points="258.8424,-74.4171 248.3055,-75.5237 257.2327,-81.2295 258.8424,-74.4171"/>
</g>
<!-- Node6 -->
<g id="node7" class="node">
<title>Node6</title>
<g id="a_node7"><a xlink:href="Span_8h.html" target="_top" xlink:title="iDynTree/Core/Span.h">
<polygon fill="none" stroke="#000000" points="657.5,-56.5 657.5,-75.5 778.5,-75.5 778.5,-56.5 657.5,-56.5"/>
<text text-anchor="middle" x="718" y="-63.5" font-family="FreeSans.ttf" font-size="10.00" fill="#000000">iDynTree/Core/Span.h</text>
</a>
</g>
</g>
<!-- Node2&#45;&gt;Node6 -->
<g id="edge6" class="edge">
<title>Node2&#45;&gt;Node6</title>
<path fill="none" stroke="#191970" d="M491.6202,-112.4369C538.6365,-102.7925 611.2629,-87.8948 661.5193,-77.5858"/>
<polygon fill="#191970" stroke="#191970" points="662.4794,-80.9618 671.5721,-75.5237 661.0727,-74.1046 662.4794,-80.9618"/>
</g>
<!-- Node7 -->
<g id="node8" class="node">
<title>Node7</title>
<polygon fill="none" stroke="#bfbfbf" points="450,-.5 450,-19.5 502,-19.5 502,-.5 450,-.5"/>
<text text-anchor="middle" x="476" y="-7.5" font-family="FreeSans.ttf" font-size="10.00" fill="#000000">cassert</text>
</g>
<!-- Node2&#45;&gt;Node7 -->
<g id="edge18" class="edge">
<title>Node2&#45;&gt;Node7</title>
<path fill="none" stroke="#191970" d="M447.643,-112.4509C452.722,-94.1013 463.9347,-53.5908 470.6388,-29.3693"/>
<polygon fill="#191970" stroke="#191970" points="474.0692,-30.0962 473.3636,-19.5249 467.3228,-28.2289 474.0692,-30.0962"/>
</g>
<!-- Node15 -->
<g id="node16" class="node">
<title>Node15</title>
<polygon fill="none" stroke="#bfbfbf" points="844,-56.5 844,-75.5 888,-75.5 888,-56.5 844,-56.5"/>
<text text-anchor="middle" x="866" y="-63.5" font-family="FreeSans.ttf" font-size="10.00" fill="#000000">string</text>
</g>
<!-- Node2&#45;&gt;Node15 -->
<g id="edge16" class="edge">
<title>Node2&#45;&gt;Node15</title>
<path fill="none" stroke="#191970" d="M516.8941,-112.4369C609.4071,-100.1311 766.2187,-79.2726 833.6244,-70.3065"/>
<polygon fill="#191970" stroke="#191970" points="834.2003,-73.7608 843.6515,-68.9727 833.2772,-66.8219 834.2003,-73.7608"/>
</g>
<!-- Node2&#45;&gt;Node16 -->
<g id="edge17" class="edge">
<title>Node2&#45;&gt;Node16</title>
<path fill="none" stroke="#191970" d="M430.8909,-112.2455C418.5791,-103.7337 400.5042,-91.2375 386.2462,-81.3801"/>
<polygon fill="#191970" stroke="#191970" points="388.1634,-78.4506 377.9474,-75.6427 384.1826,-84.2085 388.1634,-78.4506"/>
</g>
<!-- Node17 -->
<g id="node18" class="node">
<title>Node17</title>
<polygon fill="none" stroke="#bfbfbf" points="473,-56.5 473,-75.5 523,-75.5 523,-56.5 473,-56.5"/>
<text text-anchor="middle" x="498" y="-63.5" font-family="FreeSans.ttf" font-size="10.00" fill="#000000">cstring</text>
</g>
<!-- Node2&#45;&gt;Node17 -->
<g id="edge19" class="edge">
<title>Node2&#45;&gt;Node17</title>
<path fill="none" stroke="#191970" d="M454.2319,-112.2455C461.8317,-104.2155 472.7877,-92.6394 481.8368,-83.0781"/>
<polygon fill="#191970" stroke="#191970" points="484.5421,-85.3115 488.8739,-75.6427 479.458,-80.4998 484.5421,-85.3115"/>
</g>
<!-- Node4 -->
<g id="node5" class="node">
<title>Node4</title>
<polygon fill="none" stroke="#bfbfbf" points="375.5,-.5 375.5,-19.5 428.5,-19.5 428.5,-.5 375.5,-.5"/>
<text text-anchor="middle" x="402" y="-7.5" font-family="FreeSans.ttf" font-size="10.00" fill="#000000">cstddef</text>
</g>
<!-- Node3&#45;&gt;Node4 -->
<g id="edge4" class="edge">
<title>Node3&#45;&gt;Node4</title>
<path fill="none" stroke="#191970" d="M241.3498,-56.3733C275.8604,-46.4114 329.616,-30.8944 365.3098,-20.591"/>
<polygon fill="#191970" stroke="#191970" points="366.6791,-23.8387 375.3162,-17.7026 364.7377,-17.1133 366.6791,-23.8387"/>
</g>
<!-- Node5 -->
<g id="node6" class="node">
<title>Node5</title>
<polygon fill="none" stroke="#bfbfbf" points="168,-.5 168,-19.5 248,-19.5 248,-.5 168,-.5"/>
<text text-anchor="middle" x="208" y="-7.5" font-family="FreeSans.ttf" font-size="10.00" fill="#000000">CoreExport.h</text>
</g>
<!-- Node3&#45;&gt;Node5 -->
<g id="edge5" class="edge">
<title>Node3&#45;&gt;Node5</title>
<path fill="none" stroke="#191970" d="M208,-56.2455C208,-48.9382 208,-38.6944 208,-29.7046"/>
<polygon fill="#191970" stroke="#191970" points="211.5001,-29.6426 208,-19.6427 204.5001,-29.6427 211.5001,-29.6426"/>
</g>
<!-- Node6&#45;&gt;Node4 -->
<g id="edge10" class="edge">
<title>Node6&#45;&gt;Node4</title>
<path fill="none" stroke="#191970" d="M657.4698,-57.4883C601.1631,-49.2066 515.0547,-35.6126 441,-20 440.2562,-19.8432 439.5052,-19.6817 438.749,-19.5161"/>
<polygon fill="#191970" stroke="#191970" points="439.3159,-16.0544 428.7823,-17.1918 437.7261,-22.8715 439.3159,-16.0544"/>
</g>
<!-- Node6&#45;&gt;Node7 -->
<g id="edge7" class="edge">
<title>Node6&#45;&gt;Node7</title>
<path fill="none" stroke="#191970" d="M672.023,-56.4389C630.1702,-47.5681 566.7432,-33.7058 512,-20 511.9017,-19.9754 511.8032,-19.9507 511.7046,-19.9259"/>
<polygon fill="#191970" stroke="#191970" points="512.8645,-16.6114 502.3048,-17.4744 511.0979,-23.3849 512.8645,-16.6114"/>
</g>
<!-- Node8 -->
<g id="node9" class="node">
<title>Node8</title>
<polygon fill="none" stroke="#bfbfbf" points="888,-.5 888,-19.5 952,-19.5 952,-.5 888,-.5"/>
<text text-anchor="middle" x="920" y="-7.5" font-family="FreeSans.ttf" font-size="10.00" fill="#000000">algorithm</text>
</g>
<!-- Node6&#45;&gt;Node8 -->
<g id="edge8" class="edge">
<title>Node6&#45;&gt;Node8</title>
<path fill="none" stroke="#191970" d="M752.725,-56.3733C787.3694,-46.7689 840.6403,-32.0007 877.7254,-21.7197"/>
<polygon fill="#191970" stroke="#191970" points="879.0257,-24.9913 887.7272,-18.9469 877.1556,-18.2457 879.0257,-24.9913"/>
</g>
<!-- Node9 -->
<g id="node10" class="node">
<title>Node9</title>
<polygon fill="none" stroke="#bfbfbf" points="970,-.5 970,-19.5 1012,-19.5 1012,-.5 970,-.5"/>
<text text-anchor="middle" x="991" y="-7.5" font-family="FreeSans.ttf" font-size="10.00" fill="#000000">array</text>
</g>
<!-- Node6&#45;&gt;Node9 -->
<g id="edge9" class="edge">
<title>Node6&#45;&gt;Node9</title>
<path fill="none" stroke="#191970" d="M778.6686,-56.8456C825.8144,-49.2015 892.9511,-37.1614 959.9231,-20.0246"/>
<polygon fill="#191970" stroke="#191970" points="961.0016,-23.3607 969.8006,-17.4592 959.2419,-16.5855 961.0016,-23.3607"/>
</g>
<!-- Node10 -->
<g id="node11" class="node">
<title>Node10</title>
<polygon fill="none" stroke="#bfbfbf" points="520.5,-.5 520.5,-19.5 573.5,-19.5 573.5,-.5 520.5,-.5"/>
<text text-anchor="middle" x="547" y="-7.5" font-family="FreeSans.ttf" font-size="10.00" fill="#000000">iterator</text>
</g>
<!-- Node6&#45;&gt;Node10 -->
<g id="edge11" class="edge">
<title>Node6&#45;&gt;Node10</title>
<path fill="none" stroke="#191970" d="M688.6041,-56.3733C659.48,-46.8356 614.8063,-32.2056 583.4429,-21.9345"/>
<polygon fill="#191970" stroke="#191970" points="584.3569,-18.551 573.7643,-18.7649 582.1783,-25.2034 584.3569,-18.551"/>
</g>
<!-- Node11 -->
<g id="node12" class="node">
<title>Node11</title>
<polygon fill="none" stroke="#bfbfbf" points="592,-.5 592,-19.5 636,-19.5 636,-.5 592,-.5"/>
<text text-anchor="middle" x="614" y="-7.5" font-family="FreeSans.ttf" font-size="10.00" fill="#000000">limits</text>
</g>
<!-- Node6&#45;&gt;Node11 -->
<g id="edge12" class="edge">
<title>Node6&#45;&gt;Node11</title>
<path fill="none" stroke="#191970" d="M699.8846,-56.2455C683.555,-47.4527 659.329,-34.4079 640.7661,-24.4125"/>
<polygon fill="#191970" stroke="#191970" points="642.3719,-21.3021 631.9078,-19.6427 639.0532,-27.4654 642.3719,-21.3021"/>
</g>
<!-- Node12 -->
<g id="node13" class="node">
<title>Node12</title>
<polygon fill="none" stroke="#bfbfbf" points="654.5,-.5 654.5,-19.5 719.5,-19.5 719.5,-.5 654.5,-.5"/>
<text text-anchor="middle" x="687" y="-7.5" font-family="FreeSans.ttf" font-size="10.00" fill="#000000">stdexcept</text>
</g>
<!-- Node6&#45;&gt;Node12 -->
<g id="edge13" class="edge">
<title>Node6&#45;&gt;Node12</title>
<path fill="none" stroke="#191970" d="M712.6002,-56.2455C708.3773,-48.617 702.3827,-37.7881 697.2559,-28.5267"/>
<polygon fill="#191970" stroke="#191970" points="700.2432,-26.6965 692.3379,-19.6427 694.119,-30.0867 700.2432,-26.6965"/>
</g>
<!-- Node13 -->
<g id="node14" class="node">
<title>Node13</title>
<polygon fill="none" stroke="#bfbfbf" points="737.5,-.5 737.5,-19.5 806.5,-19.5 806.5,-.5 737.5,-.5"/>
<text text-anchor="middle" x="772" y="-7.5" font-family="FreeSans.ttf" font-size="10.00" fill="#000000">type_traits</text>
</g>
<!-- Node6&#45;&gt;Node13 -->
<g id="edge14" class="edge">
<title>Node6&#45;&gt;Node13</title>
<path fill="none" stroke="#191970" d="M727.4061,-56.2455C735.1493,-48.2155 746.312,-36.6394 755.5318,-27.0781"/>
<polygon fill="#191970" stroke="#191970" points="758.2798,-29.2706 762.7017,-19.6427 753.2409,-24.4117 758.2798,-29.2706"/>
</g>
<!-- Node14 -->
<g id="node15" class="node">
<title>Node14</title>
<polygon fill="none" stroke="#bfbfbf" points="824.5,-.5 824.5,-19.5 869.5,-19.5 869.5,-.5 824.5,-.5"/>
<text text-anchor="middle" x="847" y="-7.5" font-family="FreeSans.ttf" font-size="10.00" fill="#000000">utility</text>
</g>
<!-- Node6&#45;&gt;Node14 -->
<g id="edge15" class="edge">
<title>Node6&#45;&gt;Node14</title>
<path fill="none" stroke="#191970" d="M740.1759,-56.3733C760.9766,-47.3435 792.2917,-33.7494 815.6458,-23.6111"/>
<polygon fill="#191970" stroke="#191970" points="817.3343,-26.6938 825.1135,-19.5011 814.5468,-20.2727 817.3343,-26.6938"/>
</g>
<!-- Node18&#45;&gt;Node2 -->
<g id="edge21" class="edge">
<title>Node18&#45;&gt;Node2</title>
<path fill="none" stroke="#191970" d="M381.4124,-168.2455C393.0057,-159.814 409.9748,-147.4729 423.4678,-137.6598"/>
<polygon fill="#191970" stroke="#191970" points="425.7126,-140.355 431.7413,-131.6427 421.5953,-134.6938 425.7126,-140.355"/>
</g>
<!-- Node19&#45;&gt;Node3 -->
<g id="edge42" class="edge">
<title>Node19&#45;&gt;Node3</title>
<path fill="none" stroke="#191970" d="M356.9027,-336.4687C345.6464,-327.8282 329.4638,-314.291 318,-300 262.1867,-230.4223 226.7454,-127.8787 213.6766,-85.4624"/>
<polygon fill="#191970" stroke="#191970" points="217.0064,-84.3813 210.7737,-75.8138 210.3033,-86.3982 217.0064,-84.3813"/>
</g>
<!-- Node19&#45;&gt;Node16 -->
<g id="edge45" class="edge">
<title>Node19&#45;&gt;Node16</title>
<path fill="none" stroke="#191970" d="M361.5878,-336.156C342.034,-312.5447 293.9017,-250.0345 277,-188 264.9874,-143.9101 310.4227,-102.8852 340.1235,-81.478"/>
<polygon fill="#191970" stroke="#191970" points="342.1786,-84.312 348.3886,-75.7279 338.1809,-78.5658 342.1786,-84.312"/>
</g>
<!-- Node19&#45;&gt;Node18 -->
<g id="edge43" class="edge">
<title>Node19&#45;&gt;Node18</title>
<path fill="none" stroke="#191970" d="M369.8867,-336.4862C369.5706,-309.9293 368.6734,-234.5651 368.2401,-198.1655"/>
<polygon fill="#191970" stroke="#191970" points="371.7359,-197.7855 368.117,-187.8279 364.7364,-197.8689 371.7359,-197.7855"/>
</g>
<!-- Node20 -->
<g id="node21" class="node">
<title>Node20</title>
<g id="a_node21"><a xlink:href="Position_8h.html" target="_top" xlink:title="Position.h">
<polygon fill="none" stroke="#000000" points="717.5,-280.5 717.5,-299.5 782.5,-299.5 782.5,-280.5 717.5,-280.5"/>
<text text-anchor="middle" x="750" y="-287.5" font-family="FreeSans.ttf" font-size="10.00" fill="#000000">Position.h</text>
</a>
</g>
</g>
<!-- Node19&#45;&gt;Node20 -->
<g id="edge23" class="edge">
<title>Node19&#45;&gt;Node20</title>
<path fill="none" stroke="#191970" d="M434.8926,-336.4369C512.762,-324.9614 641.1009,-306.0483 707.4031,-296.2774"/>
<polygon fill="#191970" stroke="#191970" points="708.1114,-299.7109 717.4943,-294.7903 707.0908,-292.7857 708.1114,-299.7109"/>
</g>
<!-- Node22 -->
<g id="node23" class="node">
<title>Node22</title>
<g id="a_node23"><a xlink:href="Rotation_8h.html" target="_top" xlink:title="iDynTree/Core/Rotation.h">
<polygon fill="none" stroke="#000000" points="620.5,-224.5 620.5,-243.5 757.5,-243.5 757.5,-224.5 620.5,-224.5"/>
<text text-anchor="middle" x="689" y="-231.5" font-family="FreeSans.ttf" font-size="10.00" fill="#000000">iDynTree/Core/Rotation.h</text>
</a>
</g>
</g>
<!-- Node19&#45;&gt;Node22 -->
<g id="edge41" class="edge">
<title>Node19&#45;&gt;Node22</title>
<path fill="none" stroke="#191970" d="M397.1978,-336.4509C454.4053,-316.3655 587.238,-269.7284 652.0715,-246.9655"/>
<polygon fill="#191970" stroke="#191970" points="653.5952,-250.1401 661.8711,-243.5249 651.2762,-243.5353 653.5952,-250.1401"/>
</g>
<!-- Node25 -->
<g id="node26" class="node">
<title>Node25</title>
<polygon fill="none" stroke="#bfbfbf" points="541,-56.5 541,-75.5 601,-75.5 601,-56.5 541,-56.5"/>
<text text-anchor="middle" x="571" y="-63.5" font-family="FreeSans.ttf" font-size="10.00" fill="#000000">iostream</text>
</g>
<!-- Node19&#45;&gt;Node25 -->
<g id="edge44" class="edge">
<title>Node19&#45;&gt;Node25</title>
<path fill="none" stroke="#191970" d="M378.385,-336.1333C403.4901,-306.3757 479.6748,-214.4822 534,-132 544.1337,-116.614 554.2691,-98.2772 561.3628,-84.8407"/>
<polygon fill="#191970" stroke="#191970" points="564.6334,-86.1376 566.1441,-75.651 558.4236,-82.9067 564.6334,-86.1376"/>
</g>
<!-- Node20&#45;&gt;Node15 -->
<g id="edge40" class="edge">
<title>Node20&#45;&gt;Node15</title>
<path fill="none" stroke="#191970" d="M782.6192,-285.8356C851.4581,-275.0426 1010.1575,-239.0921 1070,-132 1074.336,-124.2404 1075.5512,-118.9424 1070,-112 1048.8409,-85.5385 950.1003,-73.2106 898.1496,-68.473"/>
<polygon fill="#191970" stroke="#191970" points="898.3852,-64.9803 888.1193,-67.5997 897.778,-71.9539 898.3852,-64.9803"/>
</g>
<!-- Node21 -->
<g id="node22" class="node">
<title>Node21</title>
<g id="a_node22"><a xlink:href="PositionRaw_8h.html" target="_top" xlink:title="iDynTree/Core/PositionRaw.h">
<polygon fill="none" stroke="#000000" points="620,-168.5 620,-187.5 776,-187.5 776,-168.5 620,-168.5"/>
<text text-anchor="middle" x="698" y="-175.5" font-family="FreeSans.ttf" font-size="10.00" fill="#000000">iDynTree/Core/PositionRaw.h</text>
</a>
</g>
</g>
<!-- Node20&#45;&gt;Node21 -->
<g id="edge24" class="edge">
<title>Node20&#45;&gt;Node21</title>
<path fill="none" stroke="#191970" d="M756.8217,-280.0715C765.1063,-266.6708 776.8264,-242.3608 767,-224 759.5485,-210.0767 745.8151,-199.6399 732.551,-192.258"/>
<polygon fill="#191970" stroke="#191970" points="734.0215,-189.0787 723.5262,-187.6302 730.8274,-195.3075 734.0215,-189.0787"/>
</g>
<!-- Node20&#45;&gt;Node22 -->
<g id="edge27" class="edge">
<title>Node20&#45;&gt;Node22</title>
<path fill="none" stroke="#191970" d="M739.3746,-280.2455C730.4527,-272.0549 717.512,-260.1749 706.9808,-250.5069"/>
<polygon fill="#191970" stroke="#191970" points="709.2371,-247.8271 699.5036,-243.6427 704.5032,-252.9837 709.2371,-247.8271"/>
</g>
<!-- Node21&#45;&gt;Node2 -->
<g id="edge25" class="edge">
<title>Node21&#45;&gt;Node2</title>
<path fill="none" stroke="#191970" d="M654.7952,-168.4369C611.4053,-158.8328 544.4791,-144.0191 497.9274,-133.7152"/>
<polygon fill="#191970" stroke="#191970" points="498.5467,-130.2676 488.0266,-131.5237 497.0338,-137.1022 498.5467,-130.2676"/>
</g>
<!-- Node21&#45;&gt;Node15 -->
<g id="edge26" class="edge">
<title>Node21&#45;&gt;Node15</title>
<path fill="none" stroke="#191970" d="M712.3236,-168.4509C741.4598,-149.0268 807.8445,-104.7703 843.0658,-81.2895"/>
<polygon fill="#191970" stroke="#191970" points="845.3336,-83.9841 851.7127,-75.5249 841.4507,-78.1598 845.3336,-83.9841"/>
</g>
<!-- Node22&#45;&gt;Node2 -->
<g id="edge39" class="edge">
<title>Node22&#45;&gt;Node2</title>
<path fill="none" stroke="#191970" d="M668.1967,-224.4509C624.9794,-204.6135 525.3366,-158.8758 475.1065,-135.8194"/>
<polygon fill="#191970" stroke="#191970" points="476.2991,-132.5157 465.7506,-131.5249 473.3788,-138.8775 476.2991,-132.5157"/>
</g>
<!-- Node22&#45;&gt;Node15 -->
<g id="edge28" class="edge">
<title>Node22&#45;&gt;Node15</title>
<path fill="none" stroke="#191970" d="M757.7042,-226.9901C833.9216,-218.507 947.9585,-203.4322 961,-188 995.8841,-146.721 922.3127,-175.9092 885,-132 874.0336,-119.0948 869.3872,-100.1938 867.4237,-85.9224"/>
<polygon fill="#191970" stroke="#191970" points="870.8732,-85.2555 866.3547,-75.6726 863.911,-85.9817 870.8732,-85.2555"/>
</g>
<!-- Node22&#45;&gt;Node18 -->
<g id="edge29" class="edge">
<title>Node22&#45;&gt;Node18</title>
<path fill="none" stroke="#191970" d="M634.1829,-224.4369C578.3229,-214.6918 491.7179,-199.5832 432.5695,-189.2645"/>
<polygon fill="#191970" stroke="#191970" points="433.0438,-185.7944 422.591,-187.5237 431.8407,-192.6903 433.0438,-185.7944"/>
</g>
<!-- Node23 -->
<g id="node24" class="node">
<title>Node23</title>
<g id="a_node24"><a xlink:href="RotationRaw_8h.html" target="_top" xlink:title="iDynTree/Core/RotationRaw.h">
<polygon fill="none" stroke="#000000" points="794,-168.5 794,-187.5 952,-187.5 952,-168.5 794,-168.5"/>
<text text-anchor="middle" x="873" y="-175.5" font-family="FreeSans.ttf" font-size="10.00" fill="#000000">iDynTree/Core/RotationRaw.h</text>
</a>
</g>
</g>
<!-- Node22&#45;&gt;Node23 -->
<g id="edge30" class="edge">
<title>Node22&#45;&gt;Node23</title>
<path fill="none" stroke="#191970" d="M720.6307,-224.3733C751.3596,-215.021 798.176,-200.7725 831.8022,-190.5385"/>
<polygon fill="#191970" stroke="#191970" points="833.2344,-193.7612 841.782,-187.5011 831.1962,-187.0644 833.2344,-193.7612"/>
</g>
<!-- Node23&#45;&gt;Node15 -->
<g id="edge38" class="edge">
<title>Node23&#45;&gt;Node15</title>
<path fill="none" stroke="#191970" d="M867.0235,-168.2032C861.8888,-159.1737 854.8729,-145.2108 852,-132 848.5826,-116.2853 852.8577,-98.4428 857.557,-85.2749"/>
<polygon fill="#191970" stroke="#191970" points="860.8625,-86.4334 861.2779,-75.8467 854.3512,-83.8637 860.8625,-86.4334"/>
</g>
<!-- Node24 -->
<g id="node25" class="node">
<title>Node24</title>
<g id="a_node25"><a xlink:href="MatrixFixSize_8h.html" target="_top" xlink:title="iDynTree/Core/MatrixFixSize.h">
<polygon fill="none" stroke="#000000" points="582.5,-112.5 582.5,-131.5 743.5,-131.5 743.5,-112.5 582.5,-112.5"/>
<text text-anchor="middle" x="663" y="-119.5" font-family="FreeSans.ttf" font-size="10.00" fill="#000000">iDynTree/Core/MatrixFixSize.h</text>
</a>
</g>
</g>
<!-- Node23&#45;&gt;Node24 -->
<g id="edge31" class="edge">
<title>Node23&#45;&gt;Node24</title>
<path fill="none" stroke="#191970" d="M836.8997,-168.3733C801.3752,-158.9001 747.012,-144.4032 708.5381,-134.1435"/>
<polygon fill="#191970" stroke="#191970" points="709.1934,-130.696 698.6292,-131.5011 707.3897,-137.4596 709.1934,-130.696"/>
</g>
<!-- Node24&#45;&gt;Node3 -->
<g id="edge32" class="edge">
<title>Node24&#45;&gt;Node3</title>
<path fill="none" stroke="#191970" d="M585.5577,-112.4686C499.2292,-101.8436 360.864,-84.814 277.7732,-74.5875"/>
<polygon fill="#191970" stroke="#191970" points="278.0252,-71.0922 267.6725,-73.3443 277.1701,-78.0397 278.0252,-71.0922"/>
</g>
<!-- Node24&#45;&gt;Node7 -->
<g id="edge33" class="edge">
<title>Node24&#45;&gt;Node7</title>
<path fill="none" stroke="#191970" d="M657.7605,-112.4981C649.44,-98.2474 631.8847,-71.3754 610,-56 601.7216,-50.1839 548.7338,-32.8429 511.9255,-21.1935"/>
<polygon fill="#191970" stroke="#191970" points="512.6129,-17.7405 502.0233,-18.073 510.509,-24.4169 512.6129,-17.7405"/>
</g>
<!-- Node24&#45;&gt;Node15 -->
<g id="edge35" class="edge">
<title>Node24&#45;&gt;Node15</title>
<path fill="none" stroke="#191970" d="M697.8969,-112.3733C736.1323,-101.8256 796.9437,-85.05 833.9933,-74.8294"/>
<polygon fill="#191970" stroke="#191970" points="835.0654,-78.1645 843.7745,-72.1312 833.2038,-71.4166 835.0654,-78.1645"/>
</g>
<!-- Node24&#45;&gt;Node16 -->
<g id="edge37" class="edge">
<title>Node24&#45;&gt;Node16</title>
<path fill="none" stroke="#191970" d="M611.9398,-112.4369C552.5198,-101.3081 455.7515,-83.1842 402.3764,-73.1876"/>
<polygon fill="#191970" stroke="#191970" points="402.7773,-69.7019 392.3039,-71.3011 401.4886,-76.5822 402.7773,-69.7019"/>
</g>
<!-- Node24&#45;&gt;Node17 -->
<g id="edge34" class="edge">
<title>Node24&#45;&gt;Node17</title>
<path fill="none" stroke="#191970" d="M634.6355,-112.3733C606.4067,-102.7926 563.0382,-88.0736 532.7557,-77.7959"/>
<polygon fill="#191970" stroke="#191970" points="533.6228,-74.3941 523.0284,-74.4945 531.373,-81.0228 533.6228,-74.3941"/>
</g>
<!-- Node24&#45;&gt;Node25 -->
<g id="edge36" class="edge">
<title>Node24&#45;&gt;Node25</title>
<path fill="none" stroke="#191970" d="M646.9748,-112.2455C632.8592,-103.6534 612.0737,-91.0014 595.8101,-81.1018"/>
<polygon fill="#191970" stroke="#191970" points="597.2034,-77.8525 586.8415,-75.6427 593.5637,-83.8319 597.2034,-77.8525"/>
</g>
<!-- Node26&#45;&gt;Node2 -->
<g id="edge47" class="edge">
<title>Node26&#45;&gt;Node2</title>
<path fill="none" stroke="#191970" d="M484.3453,-392.4317C482.7487,-377.9594 480.2494,-355.4809 478,-336 469.3749,-261.3024 472.7145,-241.7401 458,-168 456.2385,-159.1723 453.6358,-149.5671 451.2211,-141.428"/>
<polygon fill="#191970" stroke="#191970" points="454.532,-140.287 448.2415,-131.7617 447.8426,-142.3491 454.532,-140.287"/>
</g>
<!-- Node26&#45;&gt;Node18 -->
<g id="edge48" class="edge">
<title>Node26&#45;&gt;Node18</title>
<path fill="none" stroke="#191970" d="M481.1001,-392.42C476.1479,-377.7456 467.9639,-354.9516 459,-336 434.1932,-283.5534 398.2627,-225.2177 379.8517,-196.3081"/>
<polygon fill="#191970" stroke="#191970" points="382.6652,-194.2118 374.3209,-187.6831 376.7726,-197.9904 382.6652,-194.2118"/>
</g>
<!-- Node26&#45;&gt;Node19 -->
<g id="edge49" class="edge">
<title>Node26&#45;&gt;Node19</title>
<path fill="none" stroke="#191970" d="M457.6232,-392.4554C439.1172,-382.644 415.1112,-369.9167 396.9069,-360.2653"/>
<polygon fill="#191970" stroke="#191970" points="398.4505,-357.1222 387.9759,-355.5303 395.1715,-363.3068 398.4505,-357.1222"/>
</g>
<!-- Node27&#45;&gt;Node15 -->
<g id="edge54" class="edge">
<title>Node27&#45;&gt;Node15</title>
<path fill="none" stroke="#191970" d="M777.5818,-336.4503C869.1446,-317.0997 1045.5218,-263.3657 1085,-132 1087.5583,-123.4872 1090.6023,-118.9012 1085,-112 1061.8725,-83.51 953.6277,-72.0185 898.4776,-67.952"/>
<polygon fill="#191970" stroke="#191970" points="898.4158,-64.4393 888.1965,-67.2349 897.9287,-71.4223 898.4158,-64.4393"/>
</g>
<!-- Node27&#45;&gt;Node20 -->
<g id="edge51" class="edge">
<title>Node27&#45;&gt;Node20</title>
<path fill="none" stroke="#191970" d="M726.8772,-336.2455C730.6513,-328.6973 735.9921,-318.0158 740.5901,-308.8197"/>
<polygon fill="#191970" stroke="#191970" points="743.837,-310.1522 745.1787,-299.6427 737.576,-307.0217 743.837,-310.1522"/>
</g>
<!-- Node27&#45;&gt;Node22 -->
<g id="edge52" class="edge">
<title>Node27&#45;&gt;Node22</title>
<path fill="none" stroke="#191970" d="M719.1864,-336.4509C713.7798,-318.1013 701.8437,-277.5908 694.707,-253.3693"/>
<polygon fill="#191970" stroke="#191970" points="697.9901,-252.128 691.8064,-243.5249 691.2755,-254.1064 697.9901,-252.128"/>
</g>
<!-- Node27&#45;&gt;Node24 -->
<g id="edge53" class="edge">
<title>Node27&#45;&gt;Node24</title>
<path fill="none" stroke="#191970" d="M757.5836,-336.4353C839.4927,-312.7778 1029.2807,-247.6293 961,-168 947.5065,-152.2638 836.63,-138.3906 754.0427,-130.0992"/>
<polygon fill="#191970" stroke="#191970" points="754.1619,-126.5939 743.8656,-129.0911 753.4718,-133.5599 754.1619,-126.5939"/>
</g>
<!-- Node28&#45;&gt;Node29 -->
<g id="edge57" class="edge">
<title>Node28&#45;&gt;Node29</title>
<path fill="none" stroke="#191970" d="M271.188,-515.3845C239.821,-495.0219 166.4736,-447.4069 128.5845,-422.8104"/>
<polygon fill="#191970" stroke="#191970" points="130.0562,-419.593 119.7628,-417.0836 126.2447,-425.4643 130.0562,-419.593"/>
</g>
<!-- Node28&#45;&gt;Node30 -->
<g id="edge58" class="edge">
<title>Node28&#45;&gt;Node30</title>
<path fill="none" stroke="#191970" d="M301.851,-515.2455C315.8132,-506.6534 336.3728,-494.0014 352.4596,-484.1018"/>
<polygon fill="#191970" stroke="#191970" points="354.6484,-486.8645 361.3307,-478.6427 350.9797,-480.9029 354.6484,-486.8645"/>
</g>
<!-- Node30&#45;&gt;Node1 -->
<g id="edge67" class="edge">
<title>Node30&#45;&gt;Node1</title>
<path fill="none" stroke="#191970" d="M367.4688,-459.3906C359.5953,-451.4527 348.1087,-439.8718 337.9833,-429.6635"/>
<polygon fill="#191970" stroke="#191970" points="340.4494,-427.1797 330.9223,-422.5446 335.4795,-432.1093 340.4494,-427.1797"/>
</g>
<!-- Node30&#45;&gt;Node2 -->
<g id="edge63" class="edge">
<title>Node30&#45;&gt;Node2</title>
<path fill="none" stroke="#191970" d="M328.502,-459.4599C290.7437,-451.0583 242.5453,-437.8679 229,-423 185.496,-375.2482 192.4822,-343.7355 203,-280 212.0615,-225.0894 213.5338,-200.0954 259,-168 278.0749,-154.5347 332.1617,-142.0046 377.1253,-133.4333"/>
<polygon fill="#191970" stroke="#191970" points="377.9656,-136.8369 387.1515,-131.5578 376.6785,-129.9563 377.9656,-136.8369"/>
</g>
<!-- Node30&#45;&gt;Node3 -->
<g id="edge70" class="edge">
<title>Node30&#45;&gt;Node3</title>
<path fill="none" stroke="#191970" d="M312.6343,-459.4445C269.4577,-451.6898 217.8659,-439.3618 203,-423 114.5125,-325.6089 176.2192,-144.2493 199.8724,-85.1533"/>
<polygon fill="#191970" stroke="#191970" points="203.2388,-86.1693 203.8014,-75.5894 196.7639,-83.5093 203.2388,-86.1693"/>
</g>
<!-- Node30&#45;&gt;Node24 -->
<g id="edge66" class="edge">
<title>Node30&#45;&gt;Node24</title>
<path fill="none" stroke="#191970" d="M448.302,-459.4656C495.3858,-451.7905 551.5106,-439.5511 569,-423 594.9415,-398.4502 592,-381.7163 592,-346 592,-346 592,-346 592,-234 592,-203.4754 594.6973,-193.8065 611,-168 618.4432,-156.2177 629.7707,-145.6947 639.9553,-137.697"/>
<polygon fill="#191970" stroke="#191970" points="642.2066,-140.3843 648.1311,-131.6008 638.0222,-134.7725 642.2066,-140.3843"/>
</g>
<!-- Node30&#45;&gt;Node26 -->
<g id="edge68" class="edge">
<title>Node30&#45;&gt;Node26</title>
<path fill="none" stroke="#191970" d="M394.0313,-459.3906C409.0563,-450.9132 431.4452,-438.2809 450.3706,-427.6028"/>
<polygon fill="#191970" stroke="#191970" points="452.3462,-430.5069 459.3356,-422.5446 448.9063,-424.4104 452.3462,-430.5069"/>
</g>
<!-- Node30&#45;&gt;Node27 -->
<g id="edge69" class="edge">
<title>Node30&#45;&gt;Node27</title>
<path fill="none" stroke="#191970" d="M457.6559,-460.5665C502.571,-453.9743 558.7837,-442.5258 606,-423 643.0728,-407.669 680.8322,-379.8525 702.8057,-362.1835"/>
<polygon fill="#191970" stroke="#191970" points="705.1612,-364.7785 710.6832,-355.7365 700.7278,-359.3614 705.1612,-364.7785"/>
</g>
<!-- Node30&#45;&gt;Node29 -->
<g id="edge59" class="edge">
<title>Node30&#45;&gt;Node29</title>
<path fill="none" stroke="#191970" d="M325.855,-459.4217C281.3074,-450.8019 215.0897,-437.3209 158,-423 153.9725,-421.9897 149.7907,-420.8776 145.6221,-419.727"/>
<polygon fill="#191970" stroke="#191970" points="146.5733,-416.3588 135.9981,-417.0024 144.6665,-423.0941 146.5733,-416.3588"/>
</g>
<!-- Node31 -->
<g id="node32" class="node">
<title>Node31</title>
<g id="a_node32"><a xlink:href="VectorDynSize_8h.html" target="_top" xlink:title="iDynTree/Core/VectorDynSize.h">
<polygon fill="none" stroke="#000000" points="893.5,-112.5 893.5,-131.5 1060.5,-131.5 1060.5,-112.5 893.5,-112.5"/>
<text text-anchor="middle" x="977" y="-119.5" font-family="FreeSans.ttf" font-size="10.00" fill="#000000">iDynTree/Core/VectorDynSize.h</text>
</a>
</g>
</g>
<!-- Node30&#45;&gt;Node31 -->
<g id="edge60" class="edge">
<title>Node30&#45;&gt;Node31</title>
<path fill="none" stroke="#191970" d="M457.5083,-463.5324C644.815,-449.735 1094,-409.9776 1094,-346 1094,-346 1094,-346 1094,-234 1094,-186.9642 1044.0472,-153.5778 1009.4211,-136.0853"/>
<polygon fill="#191970" stroke="#191970" points="1010.6407,-132.787 1000.1154,-131.5748 1007.5875,-139.0861 1010.6407,-132.787"/>
</g>
<!-- Node32 -->
<g id="node33" class="node">
<title>Node32</title>
<g id="a_node33"><a xlink:href="MatrixDynSize_8h.html" target="_top" xlink:title="iDynTree/Core/MatrixDynSize.h">
<polygon fill="none" stroke="#000000" points="1121.5,-280.5 1121.5,-299.5 1288.5,-299.5 1288.5,-280.5 1121.5,-280.5"/>
<text text-anchor="middle" x="1205" y="-287.5" font-family="FreeSans.ttf" font-size="10.00" fill="#000000">iDynTree/Core/MatrixDynSize.h</text>
</a>
</g>
</g>
<!-- Node30&#45;&gt;Node32 -->
<g id="edge64" class="edge">
<title>Node30&#45;&gt;Node32</title>
<path fill="none" stroke="#191970" d="M457.6294,-467.7678C635.8884,-464.4955 1052.152,-453.6371 1108,-423 1154.3963,-397.5479 1184.4231,-339.3324 1197.4873,-309.0659"/>
<polygon fill="#191970" stroke="#191970" points="1200.8044,-310.2035 1201.3998,-299.6254 1194.3378,-307.5234 1200.8044,-310.2035"/>
</g>
<!-- Node31&#45;&gt;Node6 -->
<g id="edge61" class="edge">
<title>Node31&#45;&gt;Node6</title>
<path fill="none" stroke="#191970" d="M932.7706,-112.4369C888.2585,-102.8127 819.551,-87.957 771.8831,-77.6504"/>
<polygon fill="#191970" stroke="#191970" points="772.5608,-74.2161 762.047,-75.5237 771.0814,-81.058 772.5608,-74.2161"/>
</g>
<!-- Node31&#45;&gt;Node15 -->
<g id="edge62" class="edge">
<title>Node31&#45;&gt;Node15</title>
<path fill="none" stroke="#191970" d="M957.9184,-112.3733C940.2598,-103.4644 913.7947,-90.1127 893.7902,-80.0203"/>
<polygon fill="#191970" stroke="#191970" points="895.3372,-76.8806 884.8326,-75.5011 892.1842,-83.1303 895.3372,-76.8806"/>
</g>
<!-- Node32&#45;&gt;Node15 -->
<g id="edge65" class="edge">
<title>Node32&#45;&gt;Node15</title>
<path fill="none" stroke="#191970" d="M1205.0288,-280.4326C1204.5594,-250.3529 1198.7335,-157.0316 1146,-112 1109.1827,-80.5599 963.8362,-70.2814 898.3232,-67.2033"/>
<polygon fill="#191970" stroke="#191970" points="898.3015,-63.699 888.1566,-66.7537 897.9922,-70.6921 898.3015,-63.699"/>
</g>
</g>
</svg>
