<?xml version="1.0" encoding="UTF-8" standalone="no"?>
<!DOCTYPE svg PUBLIC "-//W3C//DTD SVG 1.1//EN"
 "http://www.w3.org/Graphics/SVG/1.1/DTD/svg11.dtd">
<!-- Generated by graphviz version 2.40.1 (20161225.0304)
 -->
<!-- Title: SpatialInertiaRaw.cpp Pages: 1 -->
<svg width="1548pt" height="621pt"
 viewBox="0.00 0.00 1548.00 621.00" xmlns="http://www.w3.org/2000/svg" xmlns:xlink="http://www.w3.org/1999/xlink">
<g id="graph0" class="graph" transform="scale(1 1) rotate(0) translate(4 617)">
<title>SpatialInertiaRaw.cpp</title>
<!-- Node0 -->
<g id="node1" class="node">
<title>Node0</title>
<polygon fill="#bfbfbf" stroke="#000000" points="438,-593.5 438,-612.5 560,-612.5 560,-593.5 438,-593.5"/>
<text text-anchor="middle" x="499" y="-600.5" font-family="FreeSans.ttf" font-size="10.00" fill="#000000">SpatialInertiaRaw.cpp</text>
</g>
<!-- Node1 -->
<g id="node2" class="node">
<title>Node1</title>
<g id="a_node2"><a xlink:href="SpatialInertiaRaw_8h.html" target="_top" xlink:title="iDynTree/Core/SpatialInertia\lRaw.h">
<polygon fill="none" stroke="#000000" points="235.5,-526.5 235.5,-556.5 388.5,-556.5 388.5,-526.5 235.5,-526.5"/>
<text text-anchor="start" x="243.5" y="-544.5" font-family="FreeSans.ttf" font-size="10.00" fill="#000000">iDynTree/Core/SpatialInertia</text>
<text text-anchor="middle" x="312" y="-533.5" font-family="FreeSans.ttf" font-size="10.00" fill="#000000">Raw.h</text>
</a>
</g>
</g>
<!-- Node0&#45;&gt;Node1 -->
<g id="edge1" class="edge">
<title>Node0&#45;&gt;Node1</title>
<path fill="none" stroke="#191970" d="M469.7813,-593.3906C442.4812,-584.4123 401.0105,-570.7735 367.436,-559.7316"/>
<polygon fill="#191970" stroke="#191970" points="368.3383,-556.344 357.7453,-556.5446 366.1513,-562.9936 368.3383,-556.344"/>
</g>
<!-- Node4 -->
<g id="node5" class="node">
<title>Node4</title>
<g id="a_node5"><a xlink:href="Utils_8h.html" target="_top" xlink:title="iDynTree/Core/Utils.h">
<polygon fill="none" stroke="#000000" points="330.5,-56.5 330.5,-75.5 449.5,-75.5 449.5,-56.5 330.5,-56.5"/>
<text text-anchor="middle" x="390" y="-63.5" font-family="FreeSans.ttf" font-size="10.00" fill="#000000">iDynTree/Core/Utils.h</text>
</a>
</g>
</g>
<!-- Node0&#45;&gt;Node4 -->
<g id="edge54" class="edge">
<title>Node0&#45;&gt;Node4</title>
<path fill="none" stroke="#191970" d="M437.6339,-599.3722C348.0886,-593.3907 186.4601,-579.7967 133,-557 83.0061,-535.6813 38,-534.3496 38,-480 38,-480 38,-480 38,-178 38,-147.1934 236.3113,-99.534 335.2332,-77.6768"/>
<polygon fill="#191970" stroke="#191970" points="336.0452,-81.0819 345.0614,-75.5178 334.5433,-74.2449 336.0452,-81.0819"/>
</g>
<!-- Node7 -->
<g id="node8" class="node">
<title>Node7</title>
<polygon fill="none" stroke="#bfbfbf" points="864,-.5 864,-19.5 916,-19.5 916,-.5 864,-.5"/>
<text text-anchor="middle" x="890" y="-7.5" font-family="FreeSans.ttf" font-size="10.00" fill="#000000">cassert</text>
</g>
<!-- Node0&#45;&gt;Node7 -->
<g id="edge77" class="edge">
<title>Node0&#45;&gt;Node7</title>
<path fill="none" stroke="#191970" d="M560.2692,-598.066C647.4602,-590.5411 802.6813,-575.1417 856,-557 1135.9747,-461.7386 1255.0528,-405.3194 1368,-132 1371.3948,-123.7849 1373.5912,-118.9102 1368,-112 1366.2266,-109.8083 1037.607,-40.8835 926.3396,-17.5984"/>
<polygon fill="#191970" stroke="#191970" points="926.7734,-14.1135 916.2686,-15.4913 925.3398,-20.9651 926.7734,-14.1135"/>
</g>
<!-- Node10 -->
<g id="node11" class="node">
<title>Node10</title>
<polygon fill="none" stroke="#bfbfbf" points="240,-56.5 240,-75.5 300,-75.5 300,-56.5 240,-56.5"/>
<text text-anchor="middle" x="270" y="-63.5" font-family="FreeSans.ttf" font-size="10.00" fill="#000000">iostream</text>
</g>
<!-- Node0&#45;&gt;Node10 -->
<g id="edge75" class="edge">
<title>Node0&#45;&gt;Node10</title>
<path fill="none" stroke="#191970" d="M437.5911,-599.3977C323.7005,-592.3128 88.3262,-575.6263 56,-557 19.3352,-535.8739 0,-522.3157 0,-480 0,-480 0,-480 0,-178 0,-128.8653 154.4839,-89.9808 229.7441,-73.9527"/>
<polygon fill="#191970" stroke="#191970" points="230.7432,-77.3195 239.8135,-71.8441 229.3084,-70.4681 230.7432,-77.3195"/>
</g>
<!-- Node11 -->
<g id="node12" class="node">
<title>Node11</title>
<polygon fill="none" stroke="#bfbfbf" points="497,-56.5 497,-75.5 553,-75.5 553,-56.5 497,-56.5"/>
<text text-anchor="middle" x="525" y="-63.5" font-family="FreeSans.ttf" font-size="10.00" fill="#000000">sstream</text>
</g>
<!-- Node0&#45;&gt;Node11 -->
<g id="edge76" class="edge">
<title>Node0&#45;&gt;Node11</title>
<path fill="none" stroke="#191970" d="M437.8213,-600.1396C381.3227,-595.7797 295.9709,-584.7751 227,-557 170.6259,-534.2977 114,-540.7736 114,-480 114,-480 114,-480 114,-357 114,-175.2696 384.9626,-96.8048 486.8671,-73.7214"/>
<polygon fill="#191970" stroke="#191970" points="487.7413,-77.1128 496.7503,-71.5372 486.2306,-70.2777 487.7413,-77.1128"/>
</g>
<!-- Node12 -->
<g id="node13" class="node">
<title>Node12</title>
<g id="a_node13"><a xlink:href="SpatialForceVector_8h.html" target="_top" xlink:title="iDynTree/Core/SpatialForce\lVector.h">
<polygon fill="none" stroke="#000000" points="372,-403.5 372,-433.5 520,-433.5 520,-403.5 372,-403.5"/>
<text text-anchor="start" x="380" y="-421.5" font-family="FreeSans.ttf" font-size="10.00" fill="#000000">iDynTree/Core/SpatialForce</text>
<text text-anchor="middle" x="446" y="-410.5" font-family="FreeSans.ttf" font-size="10.00" fill="#000000">Vector.h</text>
</a>
</g>
</g>
<!-- Node0&#45;&gt;Node12 -->
<g id="edge12" class="edge">
<title>Node0&#45;&gt;Node12</title>
<path fill="none" stroke="#191970" d="M496.2251,-593.3402C488.2505,-565.5797 465.0812,-484.924 453.2043,-443.579"/>
<polygon fill="#191970" stroke="#191970" points="456.5018,-442.3813 450.3768,-433.7363 449.7739,-444.314 456.5018,-442.3813"/>
</g>
<!-- Node25 -->
<g id="node26" class="node">
<title>Node25</title>
<g id="a_node26"><a xlink:href="PositionRaw_8h.html" target="_top" xlink:title="iDynTree/Core/PositionRaw.h">
<polygon fill="none" stroke="#000000" points="944,-224.5 944,-243.5 1100,-243.5 1100,-224.5 944,-224.5"/>
<text text-anchor="middle" x="1022" y="-231.5" font-family="FreeSans.ttf" font-size="10.00" fill="#000000">iDynTree/Core/PositionRaw.h</text>
</a>
</g>
</g>
<!-- Node0&#45;&gt;Node25 -->
<g id="edge53" class="edge">
<title>Node0&#45;&gt;Node25</title>
<path fill="none" stroke="#191970" d="M560.2523,-602.3751C709.5586,-600.3124 1083.2766,-591.703 1127,-557 1155.0772,-534.7153 1151,-515.846 1151,-480 1151,-480 1151,-480 1151,-418.5 1151,-344.324 1080.102,-278.7278 1043.4261,-249.7571"/>
<polygon fill="#191970" stroke="#191970" points="1045.3768,-246.8416 1035.3194,-243.5101 1041.1041,-252.3864 1045.3768,-246.8416"/>
</g>
<!-- Node28 -->
<g id="node29" class="node">
<title>Node28</title>
<g id="a_node29"><a xlink:href="SpatialMotionVector_8h.html" target="_top" xlink:title="iDynTree/Core/SpatialMotion\lVector.h">
<polygon fill="none" stroke="#000000" points="538.5,-403.5 538.5,-433.5 693.5,-433.5 693.5,-403.5 538.5,-403.5"/>
<text text-anchor="start" x="546.5" y="-421.5" font-family="FreeSans.ttf" font-size="10.00" fill="#000000">iDynTree/Core/SpatialMotion</text>
<text text-anchor="middle" x="616" y="-410.5" font-family="FreeSans.ttf" font-size="10.00" fill="#000000">Vector.h</text>
</a>
</g>
</g>
<!-- Node0&#45;&gt;Node28 -->
<g id="edge49" class="edge">
<title>Node0&#45;&gt;Node28</title>
<path fill="none" stroke="#191970" d="M505.1257,-593.3402C522.9168,-565.285 574.9672,-483.2056 600.9227,-442.2757"/>
<polygon fill="#191970" stroke="#191970" points="603.9383,-444.0558 606.3379,-433.7363 598.0267,-440.307 603.9383,-444.0558"/>
</g>
<!-- Node29 -->
<g id="node30" class="node">
<title>Node29</title>
<g id="a_node30"><a xlink:href="PrivateUtils_8h.html" target="_top" xlink:title="iDynTree/Core/PrivateUtils.h">
<polygon fill="none" stroke="#000000" points="649,-532 649,-551 803,-551 803,-532 649,-532"/>
<text text-anchor="middle" x="726" y="-539" font-family="FreeSans.ttf" font-size="10.00" fill="#000000">iDynTree/Core/PrivateUtils.h</text>
</a>
</g>
</g>
<!-- Node0&#45;&gt;Node29 -->
<g id="edge55" class="edge">
<title>Node0&#45;&gt;Node29</title>
<path fill="none" stroke="#191970" d="M534.4688,-593.3906C573.9493,-582.6944 637.8443,-565.3836 680.8605,-553.7294"/>
<polygon fill="#191970" stroke="#191970" points="682.0435,-557.0352 690.7803,-551.0419 680.213,-550.2787 682.0435,-557.0352"/>
</g>
<!-- Node30 -->
<g id="node31" class="node">
<title>Node30</title>
<polygon fill="none" stroke="#bfbfbf" points="980.5,-409 980.5,-428 1057.5,-428 1057.5,-409 980.5,-409"/>
<text text-anchor="middle" x="1019" y="-416" font-family="FreeSans.ttf" font-size="10.00" fill="#000000">Eigen/Dense</text>
</g>
<!-- Node0&#45;&gt;Node30 -->
<g id="edge74" class="edge">
<title>Node0&#45;&gt;Node30</title>
<path fill="none" stroke="#191970" d="M560.0412,-597.2548C637.7275,-589.3875 767.2196,-574.2552 812,-557 888.9952,-527.3314 966.223,-464.9359 1000.5539,-435.0898"/>
<polygon fill="#191970" stroke="#191970" points="1003.1384,-437.4776 1008.3316,-428.2428 998.513,-432.2234 1003.1384,-437.4776"/>
</g>
<!-- Node2 -->
<g id="node3" class="node">
<title>Node2</title>
<g id="a_node3"><a xlink:href="RotationalInertiaRaw_8h.html" target="_top" xlink:title="iDynTree/Core/Rotational\lInertiaRaw.h">
<polygon fill="none" stroke="#000000" points="142.5,-280.5 142.5,-310.5 279.5,-310.5 279.5,-280.5 142.5,-280.5"/>
<text text-anchor="start" x="150.5" y="-298.5" font-family="FreeSans.ttf" font-size="10.00" fill="#000000">iDynTree/Core/Rotational</text>
<text text-anchor="middle" x="211" y="-287.5" font-family="FreeSans.ttf" font-size="10.00" fill="#000000">InertiaRaw.h</text>
</a>
</g>
</g>
<!-- Node1&#45;&gt;Node2 -->
<g id="edge2" class="edge">
<title>Node1&#45;&gt;Node2</title>
<path fill="none" stroke="#191970" d="M305.834,-526.4819C288.9651,-485.3951 241.9294,-370.8329 221.1221,-320.1539"/>
<polygon fill="#191970" stroke="#191970" points="224.2494,-318.5555 217.2136,-310.6341 217.774,-321.2141 224.2494,-318.5555"/>
</g>
<!-- Node3 -->
<g id="node4" class="node">
<title>Node3</title>
<g id="a_node4"><a xlink:href="MatrixFixSize_8h.html" target="_top" xlink:title="iDynTree/Core/MatrixFixSize.h">
<polygon fill="none" stroke="#000000" points="456.5,-112.5 456.5,-131.5 617.5,-131.5 617.5,-112.5 456.5,-112.5"/>
<text text-anchor="middle" x="537" y="-119.5" font-family="FreeSans.ttf" font-size="10.00" fill="#000000">iDynTree/Core/MatrixFixSize.h</text>
</a>
</g>
</g>
<!-- Node2&#45;&gt;Node3 -->
<g id="edge3" class="edge">
<title>Node2&#45;&gt;Node3</title>
<path fill="none" stroke="#191970" d="M216.2302,-280.4466C226.5164,-253.2352 252.0924,-196.0843 294,-168 318.7402,-151.4204 388.0238,-139.3017 446.3104,-131.6778"/>
<polygon fill="#191970" stroke="#191970" points="446.8298,-135.14 456.305,-130.3998 445.9418,-128.1966 446.8298,-135.14"/>
</g>
<!-- Node3&#45;&gt;Node4 -->
<g id="edge4" class="edge">
<title>Node3&#45;&gt;Node4</title>
<path fill="none" stroke="#191970" d="M511.7298,-112.3733C487.6034,-103.1822 451.0638,-89.2624 424.3123,-79.0713"/>
<polygon fill="#191970" stroke="#191970" points="425.5313,-75.7904 414.9404,-75.5011 423.0393,-82.3318 425.5313,-75.7904"/>
</g>
<!-- Node3&#45;&gt;Node7 -->
<g id="edge7" class="edge">
<title>Node3&#45;&gt;Node7</title>
<path fill="none" stroke="#191970" d="M551.0899,-112.352C572.838,-97.9106 616.3338,-70.7928 657,-56 724.0431,-31.6124 806.8956,-19.1777 853.5622,-13.6789"/>
<polygon fill="#191970" stroke="#191970" points="854.2431,-17.1242 863.7841,-12.5178 853.453,-10.1689 854.2431,-17.1242"/>
</g>
<!-- Node8 -->
<g id="node9" class="node">
<title>Node8</title>
<polygon fill="none" stroke="#bfbfbf" points="666,-56.5 666,-75.5 716,-75.5 716,-56.5 666,-56.5"/>
<text text-anchor="middle" x="691" y="-63.5" font-family="FreeSans.ttf" font-size="10.00" fill="#000000">cstring</text>
</g>
<!-- Node3&#45;&gt;Node8 -->
<g id="edge8" class="edge">
<title>Node3&#45;&gt;Node8</title>
<path fill="none" stroke="#191970" d="M563.4735,-112.3733C589.1674,-103.03 628.2998,-88.8001 656.4376,-78.5682"/>
<polygon fill="#191970" stroke="#191970" points="657.6899,-81.8371 665.8917,-75.1303 655.2976,-75.2585 657.6899,-81.8371"/>
</g>
<!-- Node9 -->
<g id="node10" class="node">
<title>Node9</title>
<polygon fill="none" stroke="#bfbfbf" points="1028,-56.5 1028,-75.5 1072,-75.5 1072,-56.5 1028,-56.5"/>
<text text-anchor="middle" x="1050" y="-63.5" font-family="FreeSans.ttf" font-size="10.00" fill="#000000">string</text>
</g>
<!-- Node3&#45;&gt;Node9 -->
<g id="edge9" class="edge">
<title>Node3&#45;&gt;Node9</title>
<path fill="none" stroke="#191970" d="M617.7206,-113.1884C732.5227,-100.6564 937.8429,-78.2433 1017.3251,-69.5668"/>
<polygon fill="#191970" stroke="#191970" points="1018.1216,-73.0008 1027.6827,-68.4362 1017.3619,-66.0421 1018.1216,-73.0008"/>
</g>
<!-- Node3&#45;&gt;Node10 -->
<g id="edge10" class="edge">
<title>Node3&#45;&gt;Node10</title>
<path fill="none" stroke="#191970" d="M491.4044,-112.4369C440.3726,-101.7336 358.4911,-84.5599 309.9022,-74.369"/>
<polygon fill="#191970" stroke="#191970" points="310.5679,-70.9325 300.0623,-72.3052 309.1309,-77.7835 310.5679,-70.9325"/>
</g>
<!-- Node3&#45;&gt;Node11 -->
<g id="edge11" class="edge">
<title>Node3&#45;&gt;Node11</title>
<path fill="none" stroke="#191970" d="M534.9098,-112.2455C533.3439,-104.9382 531.1488,-94.6944 529.2224,-85.7046"/>
<polygon fill="#191970" stroke="#191970" points="532.584,-84.6873 527.0663,-75.6427 525.7393,-86.1541 532.584,-84.6873"/>
</g>
<!-- Node5 -->
<g id="node6" class="node">
<title>Node5</title>
<polygon fill="none" stroke="#bfbfbf" points="711.5,-.5 711.5,-19.5 764.5,-19.5 764.5,-.5 711.5,-.5"/>
<text text-anchor="middle" x="738" y="-7.5" font-family="FreeSans.ttf" font-size="10.00" fill="#000000">cstddef</text>
</g>
<!-- Node4&#45;&gt;Node5 -->
<g id="edge5" class="edge">
<title>Node4&#45;&gt;Node5</title>
<path fill="none" stroke="#191970" d="M449.4279,-56.4369C521.5817,-44.8259 641.0524,-25.6008 701.1163,-15.9353"/>
<polygon fill="#191970" stroke="#191970" points="701.9528,-19.3458 711.2697,-14.3014 700.8407,-12.4347 701.9528,-19.3458"/>
</g>
<!-- Node6 -->
<g id="node7" class="node">
<title>Node6</title>
<polygon fill="none" stroke="#bfbfbf" points="350,-.5 350,-19.5 430,-19.5 430,-.5 350,-.5"/>
<text text-anchor="middle" x="390" y="-7.5" font-family="FreeSans.ttf" font-size="10.00" fill="#000000">CoreExport.h</text>
</g>
<!-- Node4&#45;&gt;Node6 -->
<g id="edge6" class="edge">
<title>Node4&#45;&gt;Node6</title>
<path fill="none" stroke="#191970" d="M390,-56.2455C390,-48.9382 390,-38.6944 390,-29.7046"/>
<polygon fill="#191970" stroke="#191970" points="393.5001,-29.6426 390,-19.6427 386.5001,-29.6427 393.5001,-29.6426"/>
</g>
<!-- Node13 -->
<g id="node14" class="node">
<title>Node13</title>
<g id="a_node14"><a xlink:href="VectorFixSize_8h.html" target="_top" xlink:title="iDynTree/Core/VectorFixSize.h">
<polygon fill="none" stroke="#000000" points="639.5,-112.5 639.5,-131.5 800.5,-131.5 800.5,-112.5 639.5,-112.5"/>
<text text-anchor="middle" x="720" y="-119.5" font-family="FreeSans.ttf" font-size="10.00" fill="#000000">iDynTree/Core/VectorFixSize.h</text>
</a>
</g>
</g>
<!-- Node12&#45;&gt;Node13 -->
<g id="edge13" class="edge">
<title>Node12&#45;&gt;Node13</title>
<path fill="none" stroke="#191970" d="M429.1193,-403.1071C420.0757,-393.6844 409.8257,-380.8094 405,-367 382.0895,-301.4382 292.2921,-312.9206 446,-168 459.4077,-155.3588 554.4398,-141.4186 628.8718,-132.2346"/>
<polygon fill="#191970" stroke="#191970" points="629.7248,-135.6565 639.2271,-130.9708 628.8767,-128.7081 629.7248,-135.6565"/>
</g>
<!-- Node22 -->
<g id="node23" class="node">
<title>Node22</title>
<g id="a_node23"><a xlink:href="GeomVector3_8h.html" target="_top" xlink:title="iDynTree/Core/GeomVector3.h">
<polygon fill="none" stroke="#000000" points="454.5,-168.5 454.5,-187.5 617.5,-187.5 617.5,-168.5 454.5,-168.5"/>
<text text-anchor="middle" x="536" y="-175.5" font-family="FreeSans.ttf" font-size="10.00" fill="#000000">iDynTree/Core/GeomVector3.h</text>
</a>
</g>
</g>
<!-- Node12&#45;&gt;Node22 -->
<g id="edge29" class="edge">
<title>Node12&#45;&gt;Node22</title>
<path fill="none" stroke="#191970" d="M430.8233,-403.3942C418.5389,-389.2649 404.2935,-367.3451 411,-347 432.1997,-282.6879 488.3384,-222.8183 517.6292,-194.7387"/>
<polygon fill="#191970" stroke="#191970" points="520.2422,-197.0859 525.1275,-187.6846 515.4457,-191.9875 520.2422,-197.0859"/>
</g>
<!-- Node23 -->
<g id="node24" class="node">
<title>Node23</title>
<g id="a_node24"><a xlink:href="SpatialVector_8h.html" target="_top" xlink:title="iDynTree/Core/SpatialVector.h">
<polygon fill="none" stroke="#000000" points="419.5,-347.5 419.5,-366.5 580.5,-366.5 580.5,-347.5 419.5,-347.5"/>
<text text-anchor="middle" x="500" y="-354.5" font-family="FreeSans.ttf" font-size="10.00" fill="#000000">iDynTree/Core/SpatialVector.h</text>
</a>
</g>
</g>
<!-- Node12&#45;&gt;Node23 -->
<g id="edge31" class="edge">
<title>Node12&#45;&gt;Node23</title>
<path fill="none" stroke="#191970" d="M459.3483,-403.2977C467.0002,-394.5831 476.6373,-383.6075 484.6076,-374.5302"/>
<polygon fill="#191970" stroke="#191970" points="487.3859,-376.6707 491.3539,-366.8469 482.1258,-372.052 487.3859,-376.6707"/>
</g>
<!-- Node13&#45;&gt;Node4 -->
<g id="edge14" class="edge">
<title>Node13&#45;&gt;Node4</title>
<path fill="none" stroke="#191970" d="M663.6459,-112.4369C606.1011,-102.6717 516.8186,-87.5207 456.0033,-77.2006"/>
<polygon fill="#191970" stroke="#191970" points="456.5663,-73.7461 446.1216,-75.5237 455.3951,-80.6475 456.5663,-73.7461"/>
</g>
<!-- Node13&#45;&gt;Node7 -->
<g id="edge27" class="edge">
<title>Node13&#45;&gt;Node7</title>
<path fill="none" stroke="#191970" d="M734.4941,-112.4509C763.9772,-93.0268 831.1522,-48.7703 866.7927,-25.2895"/>
<polygon fill="#191970" stroke="#191970" points="869.1175,-27.9492 875.5426,-19.5249 865.2664,-22.1038 869.1175,-27.9492"/>
</g>
<!-- Node13&#45;&gt;Node8 -->
<g id="edge28" class="edge">
<title>Node13&#45;&gt;Node8</title>
<path fill="none" stroke="#191970" d="M714.9486,-112.2455C710.9981,-104.617 705.3903,-93.7881 700.5942,-84.5267"/>
<polygon fill="#191970" stroke="#191970" points="703.7001,-82.9131 695.9935,-75.6427 697.4841,-86.1321 703.7001,-82.9131"/>
</g>
<!-- Node13&#45;&gt;Node9 -->
<g id="edge25" class="edge">
<title>Node13&#45;&gt;Node9</title>
<path fill="none" stroke="#191970" d="M776.3541,-112.4369C845.8759,-100.6392 961.7219,-80.9805 1017.7276,-71.4765"/>
<polygon fill="#191970" stroke="#191970" points="1018.5086,-74.8941 1027.782,-69.7703 1017.3374,-67.9928 1018.5086,-74.8941"/>
</g>
<!-- Node13&#45;&gt;Node11 -->
<g id="edge26" class="edge">
<title>Node13&#45;&gt;Node11</title>
<path fill="none" stroke="#191970" d="M686.4783,-112.3733C652.0391,-102.483 598.5327,-87.1171 562.6556,-76.8139"/>
<polygon fill="#191970" stroke="#191970" points="563.612,-73.4472 553.0344,-74.0509 561.6798,-80.1752 563.612,-73.4472"/>
</g>
<!-- Node14 -->
<g id="node15" class="node">
<title>Node14</title>
<g id="a_node15"><a xlink:href="Span_8h.html" target="_top" xlink:title="iDynTree/Core/Span.h">
<polygon fill="none" stroke="#000000" points="1214.5,-56.5 1214.5,-75.5 1335.5,-75.5 1335.5,-56.5 1214.5,-56.5"/>
<text text-anchor="middle" x="1275" y="-63.5" font-family="FreeSans.ttf" font-size="10.00" fill="#000000">iDynTree/Core/Span.h</text>
</a>
</g>
</g>
<!-- Node13&#45;&gt;Node14 -->
<g id="edge15" class="edge">
<title>Node13&#45;&gt;Node14</title>
<path fill="none" stroke="#191970" d="M800.7018,-113.8571C909.3723,-102.8922 1100.9997,-83.5568 1204.289,-73.1348"/>
<polygon fill="#191970" stroke="#191970" points="1204.7092,-76.6103 1214.3073,-72.1239 1204.0064,-69.6456 1204.7092,-76.6103"/>
</g>
<!-- Node14&#45;&gt;Node5 -->
<g id="edge19" class="edge">
<title>Node14&#45;&gt;Node5</title>
<path fill="none" stroke="#191970" d="M1214.4431,-59.6849C1102.4395,-48.0049 866.0477,-23.3532 774.9124,-13.8493"/>
<polygon fill="#191970" stroke="#191970" points="775.0962,-10.3496 764.7871,-12.7934 774.3701,-17.3119 775.0962,-10.3496"/>
</g>
<!-- Node14&#45;&gt;Node7 -->
<g id="edge16" class="edge">
<title>Node14&#45;&gt;Node7</title>
<path fill="none" stroke="#191970" d="M1214.4202,-57.1884C1133.4144,-45.4057 992.357,-24.8883 926.2006,-15.2655"/>
<polygon fill="#191970" stroke="#191970" points="926.6464,-11.7936 916.2467,-13.8177 925.6387,-18.7207 926.6464,-11.7936"/>
</g>
<!-- Node15 -->
<g id="node16" class="node">
<title>Node15</title>
<polygon fill="none" stroke="#bfbfbf" points="1476,-.5 1476,-19.5 1540,-19.5 1540,-.5 1476,-.5"/>
<text text-anchor="middle" x="1508" y="-7.5" font-family="FreeSans.ttf" font-size="10.00" fill="#000000">algorithm</text>
</g>
<!-- Node14&#45;&gt;Node15 -->
<g id="edge17" class="edge">
<title>Node14&#45;&gt;Node15</title>
<path fill="none" stroke="#191970" d="M1315.0945,-56.4443C1351.8203,-47.6803 1407.9647,-34.2542 1465.735,-20.2995"/>
<polygon fill="#191970" stroke="#191970" points="1466.8762,-23.6245 1475.7741,-17.8731 1465.2317,-16.8205 1466.8762,-23.6245"/>
</g>
<!-- Node16 -->
<g id="node17" class="node">
<title>Node16</title>
<polygon fill="none" stroke="#bfbfbf" points="1048,-.5 1048,-19.5 1090,-19.5 1090,-.5 1048,-.5"/>
<text text-anchor="middle" x="1069" y="-7.5" font-family="FreeSans.ttf" font-size="10.00" fill="#000000">array</text>
</g>
<!-- Node14&#45;&gt;Node16 -->
<g id="edge18" class="edge">
<title>Node14&#45;&gt;Node16</title>
<path fill="none" stroke="#191970" d="M1236.2532,-56.4659C1200.6794,-47.5585 1146.5831,-33.6246 1100,-20 1099.9016,-19.9712 1099.8031,-19.9424 1099.7044,-19.9134"/>
<polygon fill="#191970" stroke="#191970" points="1100.884,-16.6141 1090.2978,-17.0403 1098.8392,-23.3088 1100.884,-16.6141"/>
</g>
<!-- Node17 -->
<g id="node18" class="node">
<title>Node17</title>
<polygon fill="none" stroke="#bfbfbf" points="1108.5,-.5 1108.5,-19.5 1161.5,-19.5 1161.5,-.5 1108.5,-.5"/>
<text text-anchor="middle" x="1135" y="-7.5" font-family="FreeSans.ttf" font-size="10.00" fill="#000000">iterator</text>
</g>
<!-- Node14&#45;&gt;Node17 -->
<g id="edge20" class="edge">
<title>Node14&#45;&gt;Node17</title>
<path fill="none" stroke="#191970" d="M1250.9331,-56.3733C1228.1572,-47.2629 1193.7656,-33.5062 1168.351,-23.3404"/>
<polygon fill="#191970" stroke="#191970" points="1169.3375,-19.9654 1158.7528,-19.5011 1166.7377,-26.4648 1169.3375,-19.9654"/>
</g>
<!-- Node18 -->
<g id="node19" class="node">
<title>Node18</title>
<polygon fill="none" stroke="#bfbfbf" points="1180,-.5 1180,-19.5 1224,-19.5 1224,-.5 1180,-.5"/>
<text text-anchor="middle" x="1202" y="-7.5" font-family="FreeSans.ttf" font-size="10.00" fill="#000000">limits</text>
</g>
<!-- Node14&#45;&gt;Node18 -->
<g id="edge21" class="edge">
<title>Node14&#45;&gt;Node18</title>
<path fill="none" stroke="#191970" d="M1262.2844,-56.2455C1251.398,-47.8943 1235.5117,-35.7076 1222.78,-25.9408"/>
<polygon fill="#191970" stroke="#191970" points="1224.6346,-22.9523 1214.5699,-19.6427 1220.3739,-28.5063 1224.6346,-22.9523"/>
</g>
<!-- Node19 -->
<g id="node20" class="node">
<title>Node19</title>
<polygon fill="none" stroke="#bfbfbf" points="1242.5,-.5 1242.5,-19.5 1307.5,-19.5 1307.5,-.5 1242.5,-.5"/>
<text text-anchor="middle" x="1275" y="-7.5" font-family="FreeSans.ttf" font-size="10.00" fill="#000000">stdexcept</text>
</g>
<!-- Node14&#45;&gt;Node19 -->
<g id="edge22" class="edge">
<title>Node14&#45;&gt;Node19</title>
<path fill="none" stroke="#191970" d="M1275,-56.2455C1275,-48.9382 1275,-38.6944 1275,-29.7046"/>
<polygon fill="#191970" stroke="#191970" points="1278.5001,-29.6426 1275,-19.6427 1271.5001,-29.6427 1278.5001,-29.6426"/>
</g>
<!-- Node20 -->
<g id="node21" class="node">
<title>Node20</title>
<polygon fill="none" stroke="#bfbfbf" points="1325.5,-.5 1325.5,-19.5 1394.5,-19.5 1394.5,-.5 1325.5,-.5"/>
<text text-anchor="middle" x="1360" y="-7.5" font-family="FreeSans.ttf" font-size="10.00" fill="#000000">type_traits</text>
</g>
<!-- Node14&#45;&gt;Node20 -->
<g id="edge23" class="edge">
<title>Node14&#45;&gt;Node20</title>
<path fill="none" stroke="#191970" d="M1289.8059,-56.2455C1302.7256,-47.7337 1321.6931,-35.2375 1336.6552,-25.3801"/>
<polygon fill="#191970" stroke="#191970" points="1338.9387,-28.067 1345.3638,-19.6427 1335.0876,-22.2216 1338.9387,-28.067"/>
</g>
<!-- Node21 -->
<g id="node22" class="node">
<title>Node21</title>
<polygon fill="none" stroke="#bfbfbf" points="1412.5,-.5 1412.5,-19.5 1457.5,-19.5 1457.5,-.5 1412.5,-.5"/>
<text text-anchor="middle" x="1435" y="-7.5" font-family="FreeSans.ttf" font-size="10.00" fill="#000000">utility</text>
</g>
<!-- Node14&#45;&gt;Node21 -->
<g id="edge24" class="edge">
<title>Node14&#45;&gt;Node21</title>
<path fill="none" stroke="#191970" d="M1302.505,-56.3733C1330.3188,-46.6384 1373.2899,-31.5985 1402.7051,-21.3032"/>
<polygon fill="#191970" stroke="#191970" points="1404.2148,-24.4831 1412.4972,-17.876 1401.9023,-17.8761 1404.2148,-24.4831"/>
</g>
<!-- Node22&#45;&gt;Node13 -->
<g id="edge30" class="edge">
<title>Node22&#45;&gt;Node13</title>
<path fill="none" stroke="#191970" d="M567.6307,-168.3733C598.3596,-159.021 645.176,-144.7725 678.8022,-134.5385"/>
<polygon fill="#191970" stroke="#191970" points="680.2344,-137.7612 688.782,-131.5011 678.1962,-131.0644 680.2344,-137.7612"/>
</g>
<!-- Node23&#45;&gt;Node4 -->
<g id="edge45" class="edge">
<title>Node23&#45;&gt;Node4</title>
<path fill="none" stroke="#191970" d="M493.883,-347.4017C488.2379,-338.2792 479.8663,-324.053 474,-311 437.4518,-229.6776 407.1273,-127.3525 395.311,-85.3451"/>
<polygon fill="#191970" stroke="#191970" points="398.6483,-84.2822 392.5954,-75.5866 391.9045,-86.1589 398.6483,-84.2822"/>
</g>
<!-- Node23&#45;&gt;Node10 -->
<g id="edge47" class="edge">
<title>Node23&#45;&gt;Node10</title>
<path fill="none" stroke="#191970" d="M490.4822,-347.3882C481.5692,-338.2562 468.0101,-324.0235 457,-311 387.6278,-228.942 312.025,-124.8669 282.6527,-83.8082"/>
<polygon fill="#191970" stroke="#191970" points="285.4613,-81.7185 276.8043,-75.6105 279.7628,-85.7839 285.4613,-81.7185"/>
</g>
<!-- Node23&#45;&gt;Node11 -->
<g id="edge48" class="edge">
<title>Node23&#45;&gt;Node11</title>
<path fill="none" stroke="#191970" d="M496.6445,-347.1151C485.2439,-313.4492 448.5618,-204.4344 446,-188 444.6309,-179.2172 445.8413,-176.8875 446,-168 446.4445,-143.0992 435.3241,-133.4375 448,-112 456.8607,-97.0148 472.6672,-86.3451 487.6631,-79.0795"/>
<polygon fill="#191970" stroke="#191970" points="489.1225,-82.261 496.8261,-74.9874 486.268,-75.8694 489.1225,-82.261"/>
</g>
<!-- Node23&#45;&gt;Node22 -->
<g id="edge46" class="edge">
<title>Node23&#45;&gt;Node22</title>
<path fill="none" stroke="#191970" d="M502.7945,-347.1823C505.3797,-337.9048 509.2298,-323.5737 512,-311 520.7952,-271.0801 528.7347,-223.8973 532.9098,-197.8254"/>
<polygon fill="#191970" stroke="#191970" points="536.4013,-198.1537 534.5066,-187.7297 529.4872,-197.0601 536.4013,-198.1537"/>
</g>
<!-- Node24 -->
<g id="node25" class="node">
<title>Node24</title>
<g id="a_node25"><a xlink:href="Position_8h.html" target="_top" xlink:title="Position.h">
<polygon fill="none" stroke="#000000" points="847.5,-286 847.5,-305 912.5,-305 912.5,-286 847.5,-286"/>
<text text-anchor="middle" x="880" y="-293" font-family="FreeSans.ttf" font-size="10.00" fill="#000000">Position.h</text>
</a>
</g>
</g>
<!-- Node23&#45;&gt;Node24 -->
<g id="edge32" class="edge">
<title>Node23&#45;&gt;Node24</title>
<path fill="none" stroke="#191970" d="M558.9581,-347.4581C636.092,-334.9746 769.4052,-313.3989 837.4167,-302.3918"/>
<polygon fill="#191970" stroke="#191970" points="838.0457,-305.8356 847.3581,-300.7828 836.9273,-298.9255 838.0457,-305.8356"/>
</g>
<!-- Node26 -->
<g id="node27" class="node">
<title>Node26</title>
<g id="a_node27"><a xlink:href="Rotation_8h.html" target="_top" xlink:title="iDynTree/Core/Rotation.h">
<polygon fill="none" stroke="#000000" points="750.5,-224.5 750.5,-243.5 887.5,-243.5 887.5,-224.5 750.5,-224.5"/>
<text text-anchor="middle" x="819" y="-231.5" font-family="FreeSans.ttf" font-size="10.00" fill="#000000">iDynTree/Core/Rotation.h</text>
</a>
</g>
</g>
<!-- Node23&#45;&gt;Node26 -->
<g id="edge44" class="edge">
<title>Node23&#45;&gt;Node26</title>
<path fill="none" stroke="#191970" d="M524.766,-347.4507C581.2973,-325.6534 719.9387,-272.1961 784.6669,-247.2381"/>
<polygon fill="#191970" stroke="#191970" points="785.9586,-250.4913 794.0299,-243.628 783.4403,-243.96 785.9586,-250.4913"/>
</g>
<!-- Node24&#45;&gt;Node9 -->
<g id="edge43" class="edge">
<title>Node24&#45;&gt;Node9</title>
<path fill="none" stroke="#191970" d="M887.2354,-285.5955C897.5333,-271.616 917.1515,-245.4131 935,-224 970.2598,-181.6983 987.2363,-177.6759 1018,-132 1027.9769,-117.187 1036.6266,-98.7953 1042.4089,-85.1921"/>
<polygon fill="#191970" stroke="#191970" points="1045.6795,-86.4413 1046.2461,-75.8616 1039.2056,-83.7788 1045.6795,-86.4413"/>
</g>
<!-- Node24&#45;&gt;Node25 -->
<g id="edge33" class="edge">
<title>Node24&#45;&gt;Node25</title>
<path fill="none" stroke="#191970" d="M902.1875,-285.8906C925.9467,-275.6005 963.8405,-259.1888 990.6425,-247.5809"/>
<polygon fill="#191970" stroke="#191970" points="992.183,-250.7279 999.9683,-243.5419 989.4009,-244.3045 992.183,-250.7279"/>
</g>
<!-- Node24&#45;&gt;Node26 -->
<g id="edge36" class="edge">
<title>Node24&#45;&gt;Node26</title>
<path fill="none" stroke="#191970" d="M870.4688,-285.8906C861.2121,-276.5581 846.961,-262.1902 835.7997,-250.9374"/>
<polygon fill="#191970" stroke="#191970" points="838.1928,-248.38 828.6656,-243.7449 833.2228,-253.3095 838.1928,-248.38"/>
</g>
<!-- Node25&#45;&gt;Node9 -->
<g id="edge35" class="edge">
<title>Node25&#45;&gt;Node9</title>
<path fill="none" stroke="#191970" d="M1035.028,-224.3141C1045.0792,-215.9649 1058.2125,-202.922 1064,-188 1077.3638,-153.5439 1066.21,-109.8118 1057.6148,-85.1647"/>
<polygon fill="#191970" stroke="#191970" points="1060.8145,-83.7267 1054.0548,-75.5685 1054.2515,-86.1615 1060.8145,-83.7267"/>
</g>
<!-- Node25&#45;&gt;Node13 -->
<g id="edge34" class="edge">
<title>Node25&#45;&gt;Node13</title>
<path fill="none" stroke="#191970" d="M1011.9834,-224.2656C996.4199,-209.7112 964.89,-182.4479 933,-168 894.8029,-150.6946 849.7507,-139.7513 810.9409,-132.905"/>
<polygon fill="#191970" stroke="#191970" points="811.1401,-129.3888 800.6954,-131.1661 809.9688,-136.2901 811.1401,-129.3888"/>
</g>
<!-- Node26&#45;&gt;Node9 -->
<g id="edge37" class="edge">
<title>Node26&#45;&gt;Node9</title>
<path fill="none" stroke="#191970" d="M853.0198,-224.4579C876.7069,-216.8458 908.3428,-204.6857 933,-188 976.9171,-158.281 1017.128,-109.734 1036.9846,-83.7444"/>
<polygon fill="#191970" stroke="#191970" points="1039.9247,-85.6579 1043.132,-75.5602 1034.3277,-81.4539 1039.9247,-85.6579"/>
</g>
<!-- Node26&#45;&gt;Node13 -->
<g id="edge42" class="edge">
<title>Node26&#45;&gt;Node13</title>
<path fill="none" stroke="#191970" d="M856.9601,-224.4687C892.6467,-213.6676 937.7176,-194.1125 917,-168 903.3013,-150.7341 855.6837,-139.3414 810.6984,-132.2131"/>
<polygon fill="#191970" stroke="#191970" points="810.9655,-128.7135 800.5526,-130.6682 809.9118,-135.6337 810.9655,-128.7135"/>
</g>
<!-- Node26&#45;&gt;Node22 -->
<g id="edge38" class="edge">
<title>Node26&#45;&gt;Node22</title>
<path fill="none" stroke="#191970" d="M770.6721,-224.4369C721.8319,-214.7724 646.3324,-199.8326 594.2236,-189.5213"/>
<polygon fill="#191970" stroke="#191970" points="594.6178,-186.0315 584.1285,-187.5237 593.2589,-192.8983 594.6178,-186.0315"/>
</g>
<!-- Node27 -->
<g id="node28" class="node">
<title>Node27</title>
<g id="a_node28"><a xlink:href="RotationRaw_8h.html" target="_top" xlink:title="iDynTree/Core/RotationRaw.h">
<polygon fill="none" stroke="#000000" points="750,-168.5 750,-187.5 908,-187.5 908,-168.5 750,-168.5"/>
<text text-anchor="middle" x="829" y="-175.5" font-family="FreeSans.ttf" font-size="10.00" fill="#000000">iDynTree/Core/RotationRaw.h</text>
</a>
</g>
</g>
<!-- Node26&#45;&gt;Node27 -->
<g id="edge39" class="edge">
<title>Node26&#45;&gt;Node27</title>
<path fill="none" stroke="#191970" d="M820.7419,-224.2455C822.0467,-216.9382 823.876,-206.6944 825.4813,-197.7046"/>
<polygon fill="#191970" stroke="#191970" points="828.9656,-198.1022 827.2781,-187.6427 822.0746,-196.8717 828.9656,-198.1022"/>
</g>
<!-- Node27&#45;&gt;Node3 -->
<g id="edge40" class="edge">
<title>Node27&#45;&gt;Node3</title>
<path fill="none" stroke="#191970" d="M779.1352,-168.4369C728.6367,-158.7522 650.5165,-143.7703 596.7395,-133.4569"/>
<polygon fill="#191970" stroke="#191970" points="597.1394,-129.9699 586.6591,-131.5237 595.8209,-136.8446 597.1394,-129.9699"/>
</g>
<!-- Node27&#45;&gt;Node9 -->
<g id="edge41" class="edge">
<title>Node27&#45;&gt;Node9</title>
<path fill="none" stroke="#191970" d="M847.8423,-168.4509C886.8228,-148.6961 976.4849,-103.2565 1022.1604,-80.1088"/>
<polygon fill="#191970" stroke="#191970" points="1023.8676,-83.1674 1031.2054,-75.5249 1020.7032,-76.9235 1023.8676,-83.1674"/>
</g>
<!-- Node28&#45;&gt;Node13 -->
<g id="edge50" class="edge">
<title>Node28&#45;&gt;Node13</title>
<path fill="none" stroke="#191970" d="M621.3004,-403.3889C638.6854,-353.8248 693.9643,-196.2267 713.2689,-141.1901"/>
<polygon fill="#191970" stroke="#191970" points="716.621,-142.2076 716.6283,-131.6127 710.0156,-139.8906 716.621,-142.2076"/>
</g>
<!-- Node28&#45;&gt;Node22 -->
<g id="edge51" class="edge">
<title>Node28&#45;&gt;Node22</title>
<path fill="none" stroke="#191970" d="M610.9956,-403.4556C597.064,-361.5736 557.8425,-243.6641 542.3806,-197.1818"/>
<polygon fill="#191970" stroke="#191970" points="545.7006,-196.0735 539.2231,-187.6895 539.0584,-198.283 545.7006,-196.0735"/>
</g>
<!-- Node28&#45;&gt;Node23 -->
<g id="edge52" class="edge">
<title>Node28&#45;&gt;Node23</title>
<path fill="none" stroke="#191970" d="M587.6232,-403.4554C569.1172,-393.644 545.1112,-380.9167 526.9069,-371.2653"/>
<polygon fill="#191970" stroke="#191970" points="528.4505,-368.1222 517.9759,-366.5303 525.1715,-374.3068 528.4505,-368.1222"/>
</g>
<!-- Node29&#45;&gt;Node30 -->
<g id="edge56" class="edge">
<title>Node29&#45;&gt;Node30</title>
<path fill="none" stroke="#191970" d="M748.9912,-531.8484C800.8748,-510.0679 927.1604,-457.0538 986.7993,-432.0177"/>
<polygon fill="#191970" stroke="#191970" points="988.2499,-435.2047 996.1156,-428.1068 985.5403,-428.7504 988.2499,-435.2047"/>
</g>
<!-- Node31 -->
<g id="node32" class="node">
<title>Node31</title>
<g id="a_node32"><a xlink:href="EigenHelpers_8h.html" target="_top" xlink:title="iDynTree/Core/EigenHelpers.h">
<polygon fill="none" stroke="#000000" points="645.5,-470.5 645.5,-489.5 806.5,-489.5 806.5,-470.5 645.5,-470.5"/>
<text text-anchor="middle" x="726" y="-477.5" font-family="FreeSans.ttf" font-size="10.00" fill="#000000">iDynTree/Core/EigenHelpers.h</text>
</a>
</g>
</g>
<!-- Node29&#45;&gt;Node31 -->
<g id="edge57" class="edge">
<title>Node29&#45;&gt;Node31</title>
<path fill="none" stroke="#191970" d="M726,-531.8906C726,-523.3657 726,-510.6392 726,-499.9235"/>
<polygon fill="#191970" stroke="#191970" points="729.5001,-499.7448 726,-489.7449 722.5001,-499.7449 729.5001,-499.7448"/>
</g>
<!-- Node31&#45;&gt;Node3 -->
<g id="edge65" class="edge">
<title>Node31&#45;&gt;Node3</title>
<path fill="none" stroke="#191970" d="M645.0998,-477.2276C552.9473,-472.785 409.1556,-461.5604 363,-434 326.8916,-412.439 308,-399.0558 308,-357 308,-357 308,-357 308,-234 308,-193.5876 424.5403,-153.8361 491.3461,-134.3687"/>
<polygon fill="#191970" stroke="#191970" points="492.5732,-137.6579 501.2188,-131.5337 490.6411,-130.9298 492.5732,-137.6579"/>
</g>
<!-- Node31&#45;&gt;Node4 -->
<g id="edge73" class="edge">
<title>Node31&#45;&gt;Node4</title>
<path fill="none" stroke="#191970" d="M645.1925,-474.7716C543.8275,-467.545 376.1292,-453.1909 317,-434 211.5545,-399.7768 155.8105,-406.7871 100,-311 72.9969,-264.6547 115.4431,-201.9401 150,-168 200.2202,-118.6762 277.9661,-91.6411 331.2783,-78.0147"/>
<polygon fill="#191970" stroke="#191970" points="332.4001,-81.3428 341.2677,-75.5448 330.7199,-74.5474 332.4001,-81.3428"/>
</g>
<!-- Node31&#45;&gt;Node12 -->
<g id="edge67" class="edge">
<title>Node31&#45;&gt;Node12</title>
<path fill="none" stroke="#191970" d="M682.5572,-470.4581C640.4353,-461.2063 575.5766,-446.9606 524.4187,-435.7241"/>
<polygon fill="#191970" stroke="#191970" points="524.8987,-432.2462 514.3806,-433.5193 523.3969,-439.0832 524.8987,-432.2462"/>
</g>
<!-- Node31&#45;&gt;Node13 -->
<g id="edge62" class="edge">
<title>Node31&#45;&gt;Node13</title>
<path fill="none" stroke="#191970" d="M725.8395,-470.4244C725.0362,-422.4922 721.4463,-208.2972 720.3314,-141.7747"/>
<polygon fill="#191970" stroke="#191970" points="723.831,-141.7129 720.1638,-131.773 716.832,-141.8302 723.831,-141.7129"/>
</g>
<!-- Node31&#45;&gt;Node28 -->
<g id="edge66" class="edge">
<title>Node31&#45;&gt;Node28</title>
<path fill="none" stroke="#191970" d="M708.8125,-470.3906C693.5807,-461.8747 670.8497,-449.166 651.696,-438.4573"/>
<polygon fill="#191970" stroke="#191970" points="653.3455,-435.3697 642.909,-433.5446 649.9295,-441.4796 653.3455,-435.3697"/>
</g>
<!-- Node31&#45;&gt;Node30 -->
<g id="edge58" class="edge">
<title>Node31&#45;&gt;Node30</title>
<path fill="none" stroke="#191970" d="M784.0391,-470.4704C832.8534,-462.0751 904.3466,-448.8881 966,-434 970.0887,-433.0127 974.3327,-431.9085 978.5586,-430.7565"/>
<polygon fill="#191970" stroke="#191970" points="979.6267,-434.092 988.3049,-428.0142 977.7307,-427.3536 979.6267,-434.092"/>
</g>
<!-- Node32 -->
<g id="node33" class="node">
<title>Node32</title>
<g id="a_node33"><a xlink:href="VectorDynSize_8h.html" target="_top" xlink:title="iDynTree/Core/VectorDynSize.h">
<polygon fill="none" stroke="#000000" points="1191.5,-112.5 1191.5,-131.5 1358.5,-131.5 1358.5,-112.5 1191.5,-112.5"/>
<text text-anchor="middle" x="1275" y="-119.5" font-family="FreeSans.ttf" font-size="10.00" fill="#000000">iDynTree/Core/VectorDynSize.h</text>
</a>
</g>
</g>
<!-- Node31&#45;&gt;Node32 -->
<g id="edge59" class="edge">
<title>Node31&#45;&gt;Node32</title>
<path fill="none" stroke="#191970" d="M758.3916,-470.4495C789.2134,-461.3022 836.8588,-447.0071 878,-434 919.9447,-420.7389 929.9952,-416.0693 972,-403 1026.3883,-386.0778 1048.3437,-399.6747 1095,-367 1183.0224,-305.3554 1244.8888,-186.7947 1266.5269,-140.843"/>
<polygon fill="#191970" stroke="#191970" points="1269.7254,-142.2651 1270.74,-131.7189 1263.3702,-139.3305 1269.7254,-142.2651"/>
</g>
<!-- Node33 -->
<g id="node34" class="node">
<title>Node33</title>
<g id="a_node34"><a xlink:href="MatrixDynSize_8h.html" target="_top" xlink:title="iDynTree/Core/MatrixDynSize.h">
<polygon fill="none" stroke="#000000" points="918.5,-347.5 918.5,-366.5 1085.5,-366.5 1085.5,-347.5 918.5,-347.5"/>
<text text-anchor="middle" x="1002" y="-354.5" font-family="FreeSans.ttf" font-size="10.00" fill="#000000">iDynTree/Core/MatrixDynSize.h</text>
</a>
</g>
</g>
<!-- Node31&#45;&gt;Node33 -->
<g id="edge63" class="edge">
<title>Node31&#45;&gt;Node33</title>
<path fill="none" stroke="#191970" d="M747.6573,-470.3484C796.329,-448.6577 914.509,-395.9905 970.9694,-370.8289"/>
<polygon fill="#191970" stroke="#191970" points="972.7341,-373.8743 980.4433,-366.6068 969.8846,-367.4805 972.7341,-373.8743"/>
</g>
<!-- Node34 -->
<g id="node35" class="node">
<title>Node34</title>
<g id="a_node35"><a xlink:href="Transform_8h.html" target="_top" xlink:title="iDynTree/Core/Transform.h">
<polygon fill="none" stroke="#000000" points="754,-347.5 754,-366.5 900,-366.5 900,-347.5 754,-347.5"/>
<text text-anchor="middle" x="827" y="-354.5" font-family="FreeSans.ttf" font-size="10.00" fill="#000000">iDynTree/Core/Transform.h</text>
</a>
</g>
</g>
<!-- Node31&#45;&gt;Node34 -->
<g id="edge68" class="edge">
<title>Node31&#45;&gt;Node34</title>
<path fill="none" stroke="#191970" d="M733.9253,-470.3484C750.8882,-449.6906 790.9223,-400.9362 812.5445,-374.6042"/>
<polygon fill="#191970" stroke="#191970" points="815.4704,-376.5563 819.1115,-366.6068 810.0605,-372.114 815.4704,-376.5563"/>
</g>
<!-- Node32&#45;&gt;Node9 -->
<g id="edge61" class="edge">
<title>Node32&#45;&gt;Node9</title>
<path fill="none" stroke="#191970" d="M1236.5768,-112.4369C1193.0475,-101.6029 1122.883,-84.1398 1082.1389,-73.999"/>
<polygon fill="#191970" stroke="#191970" points="1082.7539,-70.5454 1072.2046,-71.5265 1081.0632,-77.3381 1082.7539,-70.5454"/>
</g>
<!-- Node32&#45;&gt;Node14 -->
<g id="edge60" class="edge">
<title>Node32&#45;&gt;Node14</title>
<path fill="none" stroke="#191970" d="M1275,-112.2455C1275,-104.9382 1275,-94.6944 1275,-85.7046"/>
<polygon fill="#191970" stroke="#191970" points="1278.5001,-85.6426 1275,-75.6427 1271.5001,-85.6427 1278.5001,-85.6426"/>
</g>
<!-- Node33&#45;&gt;Node9 -->
<g id="edge64" class="edge">
<title>Node33&#45;&gt;Node9</title>
<path fill="none" stroke="#191970" d="M1036.791,-347.4023C1058.1226,-340.1432 1084.9079,-328.4072 1104,-311 1129.2974,-287.9351 1133.2666,-277.101 1142,-244 1151.0896,-209.549 1188.0845,-189.0246 1140,-112 1127.281,-91.6259 1102.4346,-79.8885 1082.065,-73.3767"/>
<polygon fill="#191970" stroke="#191970" points="1082.7838,-69.9407 1072.2042,-70.5072 1080.8279,-76.662 1082.7838,-69.9407"/>
</g>
<!-- Node34&#45;&gt;Node3 -->
<g id="edge71" class="edge">
<title>Node34&#45;&gt;Node3</title>
<path fill="none" stroke="#191970" d="M818.6384,-347.3467C792.5978,-317.6959 709.7334,-226.4186 627,-168 609.1,-155.3607 587.2482,-144.1068 569.5591,-135.8941"/>
<polygon fill="#191970" stroke="#191970" points="570.7644,-132.5977 560.2116,-131.6549 567.8732,-138.9727 570.7644,-132.5977"/>
</g>
<!-- Node34&#45;&gt;Node9 -->
<g id="edge72" class="edge">
<title>Node34&#45;&gt;Node9</title>
<path fill="none" stroke="#191970" d="M864.6478,-347.4966C934.6806,-328.9743 1080.4788,-286.1546 1109,-244 1144.1689,-192.0201 1092.9165,-117.3908 1065.4548,-83.6979"/>
<polygon fill="#191970" stroke="#191970" points="1067.8485,-81.1052 1058.7413,-75.6913 1062.4846,-85.6029 1067.8485,-81.1052"/>
</g>
<!-- Node34&#45;&gt;Node24 -->
<g id="edge69" class="edge">
<title>Node34&#45;&gt;Node24</title>
<path fill="none" stroke="#191970" d="M835.2813,-347.3906C843.1693,-338.2376 855.2314,-324.2409 864.8412,-313.09"/>
<polygon fill="#191970" stroke="#191970" points="867.7251,-315.1049 871.602,-305.2449 862.4225,-310.5352 867.7251,-315.1049"/>
</g>
<!-- Node34&#45;&gt;Node26 -->
<g id="edge70" class="edge">
<title>Node34&#45;&gt;Node26</title>
<path fill="none" stroke="#191970" d="M826.3723,-347.3484C825.0637,-327.2295 822.0218,-280.4608 820.2819,-253.7098"/>
<polygon fill="#191970" stroke="#191970" points="823.7666,-253.3585 819.6248,-243.6068 816.7813,-253.8129 823.7666,-253.3585"/>
</g>
</g>
</svg>
