<?xml version="1.0" encoding="UTF-8" standalone="no"?>
<!DOCTYPE svg PUBLIC "-//W3C//DTD SVG 1.1//EN"
 "http://www.w3.org/Graphics/SVG/1.1/DTD/svg11.dtd">
<!-- Generated by graphviz version 2.40.1 (20161225.0304)
 -->
<!-- Title: iDynTree::KinDynComputations::KinDynComputationsPrivateAttributes Pages: 1 -->
<svg width="1893pt" height="725pt"
 viewBox="0.00 0.00 1893.00 725.41" xmlns="http://www.w3.org/2000/svg" xmlns:xlink="http://www.w3.org/1999/xlink">
<g id="graph0" class="graph" transform="scale(1 1) rotate(0) translate(4 721.4089)">
<title>iDynTree::KinDynComputations::KinDynComputationsPrivateAttributes</title>
<!-- Node1 -->
<g id="node1" class="node">
<title>Node1</title>
<polygon fill="#bfbfbf" stroke="#000000" points="1676,-327.4089 1676,-357.4089 1885,-357.4089 1885,-327.4089 1676,-327.4089"/>
<text text-anchor="start" x="1684" y="-345.4089" font-family="FreeSans.ttf" font-size="10.00" fill="#000000">iDynTree::KinDynComputations</text>
<text text-anchor="middle" x="1780.5" y="-334.4089" font-family="FreeSans.ttf" font-size="10.00" fill="#000000">::KinDynComputationsPrivateAttributes</text>
</g>
<!-- Node2 -->
<g id="node2" class="node">
<title>Node2</title>
<g id="a_node2"><a xlink:href="classiDynTree_1_1FreeFloatingAcc.html" target="_top" xlink:title="Class representing the accelerations of a Free Floating robot. ">
<polygon fill="none" stroke="#000000" points="1347,-661.9089 1347,-680.9089 1489,-680.9089 1489,-661.9089 1347,-661.9089"/>
<text text-anchor="middle" x="1418" y="-668.9089" font-family="FreeSans.ttf" font-size="10.00" fill="#000000">iDynTree::FreeFloatingAcc</text>
</a>
</g>
</g>
<!-- Node2&#45;&gt;Node1 -->
<g id="edge1" class="edge">
<title>Node2&#45;&gt;Node1</title>
<path fill="none" stroke="#9a32cd" stroke-dasharray="5,2" d="M1478.5713,-682.2104C1531.1793,-688.0826 1606.7635,-687.6581 1658,-649.4089 1757.097,-575.4308 1776.1611,-408.4548 1779.7129,-357.4741"/>
<polygon fill="#9a32cd" stroke="#9a32cd" points="1478.7213,-678.7027 1468.37,-680.9614 1477.8705,-685.6508 1478.7213,-678.7027"/>
<text text-anchor="start" x="1515" y="-709.4089" font-family="FreeSans.ttf" font-size="10.00" fill="#000000"> m_invDynGeneralizedProper</text>
<text text-anchor="middle" x="1586.5" y="-698.4089" font-family="FreeSans.ttf" font-size="10.00" fill="#000000">Accs</text>
<text text-anchor="middle" x="1586.5" y="-687.4089" font-family="FreeSans.ttf" font-size="10.00" fill="#000000">m_generalizedAccs</text>
</g>
<!-- Node3 -->
<g id="node3" class="node">
<title>Node3</title>
<g id="a_node3"><a xlink:href="classiDynTree_1_1SpatialAcc.html" target="_top" xlink:title="Class representing a spatial acceleration, i.e. ">
<polygon fill="none" stroke="#000000" points="1360,-611.9089 1360,-630.9089 1476,-630.9089 1476,-611.9089 1360,-611.9089"/>
<text text-anchor="middle" x="1418" y="-618.9089" font-family="FreeSans.ttf" font-size="10.00" fill="#000000">iDynTree::SpatialAcc</text>
</a>
</g>
</g>
<!-- Node3&#45;&gt;Node1 -->
<g id="edge2" class="edge">
<title>Node3&#45;&gt;Node1</title>
<path fill="none" stroke="#9a32cd" stroke-dasharray="5,2" d="M1486.482,-616.4703C1552.4365,-611.1814 1644.1975,-602.2151 1658,-592.4089 1740.94,-533.4829 1770.3074,-402.4324 1778.1265,-357.7094"/>
<polygon fill="#9a32cd" stroke="#9a32cd" points="1485.8277,-613.011 1476.1342,-617.2871 1486.3786,-619.9893 1485.8277,-613.011"/>
<text text-anchor="middle" x="1586.5" y="-638.4089" font-family="FreeSans.ttf" font-size="10.00" fill="#000000"> m_baseAcc</text>
<text text-anchor="middle" x="1586.5" y="-627.4089" font-family="FreeSans.ttf" font-size="10.00" fill="#000000">m_invDynBaseAcc</text>
<text text-anchor="middle" x="1586.5" y="-616.4089" font-family="FreeSans.ttf" font-size="10.00" fill="#000000">m_baseBiasAcc</text>
</g>
<!-- Node4 -->
<g id="node4" class="node">
<title>Node4</title>
<g id="a_node4"><a xlink:href="classiDynTree_1_1SpatialMotionVector.html" target="_top" xlink:title="Class providing the raw coordinates for any motion spatial vector (i.e. ">
<polygon fill="none" stroke="#000000" points="1108,-615.9089 1108,-634.9089 1271,-634.9089 1271,-615.9089 1108,-615.9089"/>
<text text-anchor="middle" x="1189.5" y="-622.9089" font-family="FreeSans.ttf" font-size="10.00" fill="#000000">iDynTree::SpatialMotionVector</text>
</a>
</g>
</g>
<!-- Node4&#45;&gt;Node3 -->
<g id="edge3" class="edge">
<title>Node4&#45;&gt;Node3</title>
<path fill="none" stroke="#191970" d="M1281.1091,-623.8053C1307.668,-623.3403 1335.9274,-622.8456 1359.8312,-622.4272"/>
<polygon fill="#191970" stroke="#191970" points="1280.9632,-620.3072 1271.026,-623.9818 1281.0858,-627.3061 1280.9632,-620.3072"/>
</g>
<!-- Node5 -->
<g id="node5" class="node">
<title>Node5</title>
<g id="a_node5"><a xlink:href="classiDynTree_1_1SpatialVector.html" target="_top" xlink:title="iDynTree::SpatialVector\l\&lt; SpatialMotionVector \&gt;">
<polygon fill="none" stroke="#000000" points="934,-612.4089 934,-642.4089 1071,-642.4089 1071,-612.4089 934,-612.4089"/>
<text text-anchor="start" x="942" y="-630.4089" font-family="FreeSans.ttf" font-size="10.00" fill="#000000">iDynTree::SpatialVector</text>
<text text-anchor="middle" x="1002.5" y="-619.4089" font-family="FreeSans.ttf" font-size="10.00" fill="#000000">&lt; SpatialMotionVector &gt;</text>
</a>
</g>
</g>
<!-- Node5&#45;&gt;Node4 -->
<g id="edge4" class="edge">
<title>Node5&#45;&gt;Node4</title>
<path fill="none" stroke="#191970" d="M1081.305,-626.5661C1090.1099,-626.4719 1099.0931,-626.3758 1107.9317,-626.2813"/>
<polygon fill="#191970" stroke="#191970" points="1081.032,-623.0687 1071.0701,-626.6755 1081.1069,-630.0683 1081.032,-623.0687"/>
</g>
<!-- Node6 -->
<g id="node6" class="node">
<title>Node6</title>
<g id="a_node6"><a xlink:href="classiDynTree_1_1SpatialMotionForceVectorT__traits.html" target="_top" xlink:title="iDynTree::SpatialMotionForce\lVectorT_traits\&lt; DerivedSpatialVecT \&gt;">
<polygon fill="none" stroke="#000000" points="345,-586.4089 345,-616.4089 547,-616.4089 547,-586.4089 345,-586.4089"/>
<text text-anchor="start" x="353" y="-604.4089" font-family="FreeSans.ttf" font-size="10.00" fill="#000000">iDynTree::SpatialMotionForce</text>
<text text-anchor="middle" x="446" y="-593.4089" font-family="FreeSans.ttf" font-size="10.00" fill="#000000">VectorT_traits&lt; DerivedSpatialVecT &gt;</text>
</a>
</g>
</g>
<!-- Node6&#45;&gt;Node5 -->
<g id="edge5" class="edge">
<title>Node6&#45;&gt;Node5</title>
<path fill="none" stroke="#9a32cd" stroke-dasharray="5,2" d="M514.4187,-618.6667C530.8812,-622.1768 548.4844,-625.4046 565,-627.4089 694.6908,-643.1478 847.6041,-637.7376 933.9902,-632.4925"/>
<polygon fill="#9a32cd" stroke="#9a32cd" points="514.8537,-615.1789 504.3357,-616.4531 513.3526,-622.016 514.8537,-615.1789"/>
<text text-anchor="middle" x="709" y="-651.4089" font-family="FreeSans.ttf" font-size="10.00" fill="#000000"> linearVec3</text>
<text text-anchor="middle" x="709" y="-640.4089" font-family="FreeSans.ttf" font-size="10.00" fill="#000000">angularVec3</text>
</g>
<!-- Node8 -->
<g id="node8" class="node">
<title>Node8</title>
<g id="a_node8"><a xlink:href="classiDynTree_1_1SpatialVector.html" target="_top" xlink:title="iDynTree::SpatialVector">
<polygon fill="none" stroke="#000000" points="644,-591.9089 644,-610.9089 774,-610.9089 774,-591.9089 644,-591.9089"/>
<text text-anchor="middle" x="709" y="-598.9089" font-family="FreeSans.ttf" font-size="10.00" fill="#000000">iDynTree::SpatialVector</text>
</a>
</g>
</g>
<!-- Node6&#45;&gt;Node8 -->
<g id="edge8" class="edge">
<title>Node6&#45;&gt;Node8</title>
<path fill="none" stroke="#9a32cd" stroke-dasharray="5,2" d="M557.6387,-601.4089C587.0376,-601.4089 617.7921,-601.4089 643.841,-601.4089"/>
<polygon fill="#9a32cd" stroke="#9a32cd" points="557.3065,-597.909 547.3065,-601.4089 557.3064,-604.909 557.3065,-597.909"/>
<text text-anchor="middle" x="595.5" y="-615.4089" font-family="FreeSans.ttf" font-size="10.00" fill="#000000"> linearVec3</text>
<text text-anchor="middle" x="595.5" y="-604.4089" font-family="FreeSans.ttf" font-size="10.00" fill="#000000">angularVec3</text>
</g>
<!-- Node25 -->
<g id="node25" class="node">
<title>Node25</title>
<g id="a_node25"><a xlink:href="classiDynTree_1_1SpatialVector.html" target="_top" xlink:title="iDynTree::SpatialVector\l\&lt; SpatialForceVector \&gt;">
<polygon fill="none" stroke="#000000" points="937.5,-563.4089 937.5,-593.4089 1067.5,-593.4089 1067.5,-563.4089 937.5,-563.4089"/>
<text text-anchor="start" x="945.5" y="-581.4089" font-family="FreeSans.ttf" font-size="10.00" fill="#000000">iDynTree::SpatialVector</text>
<text text-anchor="middle" x="1002.5" y="-570.4089" font-family="FreeSans.ttf" font-size="10.00" fill="#000000">&lt; SpatialForceVector &gt;</text>
</a>
</g>
</g>
<!-- Node6&#45;&gt;Node25 -->
<g id="edge27" class="edge">
<title>Node6&#45;&gt;Node25</title>
<path fill="none" stroke="#9a32cd" stroke-dasharray="5,2" d="M513.0801,-583.9631C551.1758,-574.9544 599.9219,-564.9247 644,-560.4089 746.1343,-549.9454 865.2879,-560.4045 937.2549,-569.1901"/>
<polygon fill="#9a32cd" stroke="#9a32cd" points="512.041,-580.613 503.1333,-586.3491 513.6739,-587.4199 512.041,-580.613"/>
<text text-anchor="middle" x="709" y="-574.4089" font-family="FreeSans.ttf" font-size="10.00" fill="#000000"> linearVec3</text>
<text text-anchor="middle" x="709" y="-563.4089" font-family="FreeSans.ttf" font-size="10.00" fill="#000000">angularVec3</text>
</g>
<!-- Node7 -->
<g id="node7" class="node">
<title>Node7</title>
<g id="a_node7"><a xlink:href="classiDynTree_1_1SpatialMotionForceVectorT__traits.html" target="_top" xlink:title="Traits class for SpatialMotionVector and SpatialForceVector classes. ">
<polygon fill="none" stroke="#000000" points="0,-580.9089 0,-621.9089 188,-621.9089 188,-580.9089 0,-580.9089"/>
<text text-anchor="start" x="8" y="-609.9089" font-family="FreeSans.ttf" font-size="10.00" fill="#000000">iDynTree::SpatialMotionForce</text>
<text text-anchor="start" x="8" y="-598.9089" font-family="FreeSans.ttf" font-size="10.00" fill="#000000">VectorT_traits&lt; SpatialMotionForce</text>
<text text-anchor="middle" x="94" y="-587.9089" font-family="FreeSans.ttf" font-size="10.00" fill="#000000">VectorT &gt;</text>
</a>
</g>
</g>
<!-- Node7&#45;&gt;Node6 -->
<g id="edge6" class="edge">
<title>Node7&#45;&gt;Node6</title>
<path fill="none" stroke="#ffa500" stroke-dasharray="5,2" d="M198.3901,-601.4089C244.7084,-601.4089 299.0041,-601.4089 344.9302,-601.4089"/>
<polygon fill="#ffa500" stroke="#ffa500" points="198.3296,-597.909 188.3295,-601.4089 198.3295,-604.909 198.3296,-597.909"/>
<text text-anchor="middle" x="266.5" y="-604.4089" font-family="FreeSans.ttf" font-size="10.00" fill="#000000"> &lt; DerivedSpatialVecT &gt;</text>
</g>
<!-- Node8&#45;&gt;Node5 -->
<g id="edge7" class="edge">
<title>Node8&#45;&gt;Node5</title>
<path fill="none" stroke="#ffa500" stroke-dasharray="5,2" d="M784.3836,-608.0869C830.5355,-612.1753 889.1352,-617.3664 933.9709,-621.3382"/>
<polygon fill="#ffa500" stroke="#ffa500" points="784.407,-604.5753 774.1372,-607.1792 783.7893,-611.548 784.407,-604.5753"/>
<text text-anchor="middle" x="854" y="-622.4089" font-family="FreeSans.ttf" font-size="10.00" fill="#000000"> &lt; SpatialMotionVector &gt;</text>
</g>
<!-- Node8&#45;&gt;Node25 -->
<g id="edge28" class="edge">
<title>Node8&#45;&gt;Node25</title>
<path fill="none" stroke="#ffa500" stroke-dasharray="5,2" d="M769.2809,-590.3396C776.9091,-589.2048 784.6234,-588.1857 792,-587.4089 840.5638,-582.295 895.7217,-580.0673 937.3895,-579.1062"/>
<polygon fill="#ffa500" stroke="#ffa500" points="768.6808,-586.8908 759.3382,-591.8875 769.7576,-593.8075 768.6808,-586.8908"/>
<text text-anchor="middle" x="854" y="-590.4089" font-family="FreeSans.ttf" font-size="10.00" fill="#000000"> &lt; SpatialForceVector &gt;</text>
</g>
<!-- Node9 -->
<g id="node9" class="node">
<title>Node9</title>
<g id="a_node9"><a xlink:href="classiDynTree_1_1FreeFloatingPos.html" target="_top" xlink:title="Class representing the position of a Free Floating robot. ">
<polygon fill="none" stroke="#000000" points="1347,-535.9089 1347,-554.9089 1489,-554.9089 1489,-535.9089 1347,-535.9089"/>
<text text-anchor="middle" x="1418" y="-542.9089" font-family="FreeSans.ttf" font-size="10.00" fill="#000000">iDynTree::FreeFloatingPos</text>
</a>
</g>
</g>
<!-- Node9&#45;&gt;Node1 -->
<g id="edge9" class="edge">
<title>Node9&#45;&gt;Node1</title>
<path fill="none" stroke="#9a32cd" stroke-dasharray="5,2" d="M1499.0846,-546.0686C1558.0035,-545.1807 1631.8152,-540.8223 1658,-525.4089 1724.8838,-486.0386 1762.722,-394.0368 1775.5226,-357.6299"/>
<polygon fill="#9a32cd" stroke="#9a32cd" points="1498.9779,-542.5695 1489.0206,-546.1893 1499.0619,-549.569 1498.9779,-542.5695"/>
<text text-anchor="middle" x="1586.5" y="-548.4089" font-family="FreeSans.ttf" font-size="10.00" fill="#000000"> m_pos</text>
</g>
<!-- Node10 -->
<g id="node10" class="node">
<title>Node10</title>
<g id="a_node10"><a xlink:href="classiDynTree_1_1LinkAccArray.html" target="_top" xlink:title="Class for storing a vector of spatial accelerations, one for each link in a model. ">
<polygon fill="none" stroke="#000000" points="1353.5,-486.9089 1353.5,-505.9089 1482.5,-505.9089 1482.5,-486.9089 1353.5,-486.9089"/>
<text text-anchor="middle" x="1418" y="-493.9089" font-family="FreeSans.ttf" font-size="10.00" fill="#000000">iDynTree::LinkAccArray</text>
</a>
</g>
</g>
<!-- Node10&#45;&gt;Node1 -->
<g id="edge10" class="edge">
<title>Node10&#45;&gt;Node1</title>
<path fill="none" stroke="#9a32cd" stroke-dasharray="5,2" d="M1489.5722,-485.3326C1559.602,-474.4571 1656.0752,-459.3568 1658,-458.4089 1707.3992,-434.0822 1750.3084,-382.9258 1769.6185,-357.4653"/>
<polygon fill="#9a32cd" stroke="#9a32cd" points="1488.7911,-481.9119 1479.4463,-486.9044 1489.8648,-488.8291 1488.7911,-481.9119"/>
<text text-anchor="middle" x="1586.5" y="-516.4089" font-family="FreeSans.ttf" font-size="10.00" fill="#000000"> m_invDynLinkProperAccs</text>
<text text-anchor="middle" x="1586.5" y="-505.4089" font-family="FreeSans.ttf" font-size="10.00" fill="#000000">m_linkAccs</text>
<text text-anchor="middle" x="1586.5" y="-494.4089" font-family="FreeSans.ttf" font-size="10.00" fill="#000000">m_linkBiasAcc</text>
<text text-anchor="middle" x="1586.5" y="-483.4089" font-family="FreeSans.ttf" font-size="10.00" fill="#000000">m_invDynZeroLinkProperAcc</text>
</g>
<!-- Node11 -->
<g id="node11" class="node">
<title>Node11</title>
<g id="a_node11"><a xlink:href="classiDynTree_1_1MatrixDynSize.html" target="_top" xlink:title="Class providing a simple form of matrix with dynamic size. ">
<polygon fill="none" stroke="#000000" points="1121.5,-421.9089 1121.5,-440.9089 1257.5,-440.9089 1257.5,-421.9089 1121.5,-421.9089"/>
<text text-anchor="middle" x="1189.5" y="-428.9089" font-family="FreeSans.ttf" font-size="10.00" fill="#000000">iDynTree::MatrixDynSize</text>
</a>
</g>
</g>
<!-- Node11&#45;&gt;Node1 -->
<g id="edge11" class="edge">
<title>Node11&#45;&gt;Node1</title>
<path fill="none" stroke="#9a32cd" stroke-dasharray="5,2" d="M1267.9322,-439.6132C1362.8476,-446.7987 1526.3112,-450.3002 1658,-407.4089 1694.8565,-395.4047 1733.806,-372.7905 1757.6383,-357.6597"/>
<polygon fill="#9a32cd" stroke="#9a32cd" points="1268.0794,-436.114 1257.8347,-438.8151 1267.5278,-443.0922 1268.0794,-436.114"/>
<text text-anchor="middle" x="1418" y="-446.4089" font-family="FreeSans.ttf" font-size="10.00" fill="#000000"> m_jacBuffer</text>
</g>
<!-- Node12 -->
<g id="node12" class="node">
<title>Node12</title>
<g id="a_node12"><a xlink:href="classiDynTree_1_1FreeFloatingMassMatrix.html" target="_top" xlink:title="Class representing the mass matrix of a Free Floating robot. ">
<polygon fill="none" stroke="#000000" points="1343.5,-390.4089 1343.5,-420.4089 1492.5,-420.4089 1492.5,-390.4089 1343.5,-390.4089"/>
<text text-anchor="start" x="1351.5" y="-408.4089" font-family="FreeSans.ttf" font-size="10.00" fill="#000000">iDynTree::FreeFloatingMass</text>
<text text-anchor="middle" x="1418" y="-397.4089" font-family="FreeSans.ttf" font-size="10.00" fill="#000000">Matrix</text>
</a>
</g>
</g>
<!-- Node11&#45;&gt;Node12 -->
<g id="edge13" class="edge">
<title>Node11&#45;&gt;Node12</title>
<path fill="none" stroke="#191970" d="M1267.7086,-422.5099C1292.178,-419.7256 1319.1049,-416.6618 1343.3245,-413.9059"/>
<polygon fill="#191970" stroke="#191970" points="1267.2882,-419.0351 1257.748,-423.6433 1268.0796,-425.9902 1267.2882,-419.0351"/>
</g>
<!-- Node12&#45;&gt;Node1 -->
<g id="edge12" class="edge">
<title>Node12&#45;&gt;Node1</title>
<path fill="none" stroke="#9a32cd" stroke-dasharray="5,2" d="M1502.5291,-394.7609C1548.6312,-388.5319 1606.6171,-380.012 1658,-370.4089 1677.9434,-366.6816 1699.5634,-361.9672 1719.0099,-357.4747"/>
<polygon fill="#9a32cd" stroke="#9a32cd" points="1502.0264,-391.2969 1492.5801,-396.0946 1502.9565,-398.2349 1502.0264,-391.2969"/>
<text text-anchor="middle" x="1586.5" y="-395.4089" font-family="FreeSans.ttf" font-size="10.00" fill="#000000"> m_rawMassMatrix</text>
</g>
<!-- Node13 -->
<g id="node13" class="node">
<title>Node13</title>
<g id="a_node13"><a xlink:href="classiDynTree_1_1LinkInertias.html" target="_top" xlink:title="Class for storing a vector of SpatialInertia objects , one for each link in a model. ">
<polygon fill="none" stroke="#000000" points="1357,-351.9089 1357,-370.9089 1479,-370.9089 1479,-351.9089 1357,-351.9089"/>
<text text-anchor="middle" x="1418" y="-358.9089" font-family="FreeSans.ttf" font-size="10.00" fill="#000000">iDynTree::LinkInertias</text>
</a>
</g>
</g>
<!-- Node13&#45;&gt;Node1 -->
<g id="edge14" class="edge">
<title>Node13&#45;&gt;Node1</title>
<path fill="none" stroke="#9a32cd" stroke-dasharray="5,2" d="M1489.1047,-357.682C1542.297,-354.894 1615.8768,-351.0374 1675.7887,-347.8972"/>
<polygon fill="#9a32cd" stroke="#9a32cd" points="1488.8863,-354.1886 1479.0833,-358.2073 1489.2528,-361.179 1488.8863,-354.1886"/>
<text text-anchor="middle" x="1586.5" y="-358.4089" font-family="FreeSans.ttf" font-size="10.00" fill="#000000"> m_linkCRBIs</text>
</g>
<!-- Node14 -->
<g id="node14" class="node">
<title>Node14</title>
<g id="a_node14"><a xlink:href="classiDynTree_1_1FreeFloatingVel.html" target="_top" xlink:title="iDynTree::FreeFloatingVel">
<polygon fill="none" stroke="#000000" points="1348,-313.9089 1348,-332.9089 1488,-332.9089 1488,-313.9089 1348,-313.9089"/>
<text text-anchor="middle" x="1418" y="-320.9089" font-family="FreeSans.ttf" font-size="10.00" fill="#000000">iDynTree::FreeFloatingVel</text>
</a>
</g>
</g>
<!-- Node14&#45;&gt;Node1 -->
<g id="edge15" class="edge">
<title>Node14&#45;&gt;Node1</title>
<path fill="none" stroke="#9a32cd" stroke-dasharray="5,2" d="M1498.3555,-322.5164C1503.9883,-322.4736 1509.5793,-322.4369 1515,-322.4089 1578.5547,-322.0813 1594.6524,-317.2717 1658,-322.4089 1671.6388,-323.515 1686.0486,-325.3029 1700.0077,-327.3663"/>
<polygon fill="#9a32cd" stroke="#9a32cd" points="1498.17,-319.0177 1488.1991,-322.5996 1498.2274,-326.0175 1498.17,-319.0177"/>
<text text-anchor="middle" x="1586.5" y="-336.4089" font-family="FreeSans.ttf" font-size="10.00" fill="#000000"> m_invDynZeroVel</text>
<text text-anchor="middle" x="1586.5" y="-325.4089" font-family="FreeSans.ttf" font-size="10.00" fill="#000000">m_vel</text>
</g>
<!-- Node15 -->
<g id="node15" class="node">
<title>Node15</title>
<g id="a_node15"><a xlink:href="classiDynTree_1_1LinkTraversalsCache.html" target="_top" xlink:title="Link traversal cache, store a traversal for each link in the model. ">
<polygon fill="none" stroke="#000000" points="1350.5,-264.4089 1350.5,-294.4089 1485.5,-294.4089 1485.5,-264.4089 1350.5,-264.4089"/>
<text text-anchor="start" x="1358.5" y="-282.4089" font-family="FreeSans.ttf" font-size="10.00" fill="#000000">iDynTree::LinkTraversals</text>
<text text-anchor="middle" x="1418" y="-271.4089" font-family="FreeSans.ttf" font-size="10.00" fill="#000000">Cache</text>
</a>
</g>
</g>
<!-- Node15&#45;&gt;Node1 -->
<g id="edge16" class="edge">
<title>Node15&#45;&gt;Node1</title>
<path fill="none" stroke="#9a32cd" stroke-dasharray="5,2" d="M1495.6961,-283.6104C1542.9721,-287.1274 1604.3788,-293.4114 1658,-304.4089 1685.4844,-310.0459 1715.5893,-319.3394 1739.0771,-327.3245"/>
<polygon fill="#9a32cd" stroke="#9a32cd" points="1495.7514,-280.1054 1485.5263,-282.8801 1495.2499,-287.0874 1495.7514,-280.1054"/>
<text text-anchor="middle" x="1586.5" y="-307.4089" font-family="FreeSans.ttf" font-size="10.00" fill="#000000"> m_traversalCache</text>
</g>
<!-- Node16 -->
<g id="node16" class="node">
<title>Node16</title>
<g id="a_node16"><a xlink:href="classiDynTree_1_1Traversal.html" target="_top" xlink:title="Class that represents a traversal of a set of links of a Model. ">
<polygon fill="none" stroke="#000000" points="1363,-225.9089 1363,-244.9089 1473,-244.9089 1473,-225.9089 1363,-225.9089"/>
<text text-anchor="middle" x="1418" y="-232.9089" font-family="FreeSans.ttf" font-size="10.00" fill="#000000">iDynTree::Traversal</text>
</a>
</g>
</g>
<!-- Node16&#45;&gt;Node1 -->
<g id="edge17" class="edge">
<title>Node16&#45;&gt;Node1</title>
<path fill="none" stroke="#9a32cd" stroke-dasharray="5,2" d="M1483.5141,-237.7128C1532.7195,-241.0942 1601.1264,-249.35 1658,-269.4089 1697.2241,-283.243 1737.7229,-310.3583 1760.931,-327.3654"/>
<polygon fill="#9a32cd" stroke="#9a32cd" points="1483.5192,-234.2061 1473.3167,-237.0628 1483.0738,-241.192 1483.5192,-234.2061"/>
<text text-anchor="middle" x="1586.5" y="-272.4089" font-family="FreeSans.ttf" font-size="10.00" fill="#000000"> m_traversal</text>
</g>
<!-- Node17 -->
<g id="node17" class="node">
<title>Node17</title>
<g id="a_node17"><a xlink:href="classiDynTree_1_1Model.html" target="_top" xlink:title="Class that represents a generic multibody model. ">
<polygon fill="none" stroke="#000000" points="1370.5,-187.9089 1370.5,-206.9089 1465.5,-206.9089 1465.5,-187.9089 1370.5,-187.9089"/>
<text text-anchor="middle" x="1418" y="-194.9089" font-family="FreeSans.ttf" font-size="10.00" fill="#000000">iDynTree::Model</text>
</a>
</g>
</g>
<!-- Node17&#45;&gt;Node1 -->
<g id="edge18" class="edge">
<title>Node17&#45;&gt;Node1</title>
<path fill="none" stroke="#9a32cd" stroke-dasharray="5,2" d="M1475.5818,-194.0968C1526.0222,-193.4734 1600.1035,-198.2026 1658,-225.4089 1708.0397,-248.9232 1750.6487,-300.9998 1769.754,-327.0063"/>
<polygon fill="#9a32cd" stroke="#9a32cd" points="1475.4351,-190.5989 1465.5064,-194.2962 1475.5737,-197.5975 1475.4351,-190.5989"/>
<text text-anchor="middle" x="1586.5" y="-228.4089" font-family="FreeSans.ttf" font-size="10.00" fill="#000000"> m_robot_model</text>
</g>
<!-- Node18 -->
<g id="node18" class="node">
<title>Node18</title>
<g id="a_node18"><a xlink:href="classiDynTree_1_1LinkVelArray.html" target="_top" xlink:title="Class for storing a vector of twists, one for each link in a model. ">
<polygon fill="none" stroke="#000000" points="1354.5,-149.9089 1354.5,-168.9089 1481.5,-168.9089 1481.5,-149.9089 1354.5,-149.9089"/>
<text text-anchor="middle" x="1418" y="-156.9089" font-family="FreeSans.ttf" font-size="10.00" fill="#000000">iDynTree::LinkVelArray</text>
</a>
</g>
</g>
<!-- Node18&#45;&gt;Node1 -->
<g id="edge19" class="edge">
<title>Node18&#45;&gt;Node1</title>
<path fill="none" stroke="#9a32cd" stroke-dasharray="5,2" d="M1472.8537,-148.2818C1523.9882,-140.8292 1600.7505,-137.3242 1658,-168.4089 1723.5827,-204.0183 1761.9386,-291.7674 1775.2019,-327.2022"/>
<polygon fill="#9a32cd" stroke="#9a32cd" points="1472.0073,-144.8713 1462.6649,-149.8683 1473.0843,-151.788 1472.0073,-144.8713"/>
<text text-anchor="middle" x="1586.5" y="-182.4089" font-family="FreeSans.ttf" font-size="10.00" fill="#000000"> m_invDynZeroLinkVel</text>
<text text-anchor="middle" x="1586.5" y="-171.4089" font-family="FreeSans.ttf" font-size="10.00" fill="#000000">m_linkVel</text>
</g>
<!-- Node19 -->
<g id="node19" class="node">
<title>Node19</title>
<g id="a_node19"><a xlink:href="classiDynTree_1_1VectorFixSize.html" target="_top" xlink:title="iDynTree::VectorFixSize\&lt; 3 \&gt;">
<polygon fill="none" stroke="#000000" points="1339,-101.9089 1339,-120.9089 1497,-120.9089 1497,-101.9089 1339,-101.9089"/>
<text text-anchor="middle" x="1418" y="-108.9089" font-family="FreeSans.ttf" font-size="10.00" fill="#000000">iDynTree::VectorFixSize&lt; 3 &gt;</text>
</a>
</g>
</g>
<!-- Node19&#45;&gt;Node1 -->
<g id="edge20" class="edge">
<title>Node19&#45;&gt;Node1</title>
<path fill="none" stroke="#9a32cd" stroke-dasharray="5,2" d="M1494.6855,-100.6946C1554.399,-93.9512 1631.4554,-89.2484 1658,-105.4089 1741.0805,-155.9888 1770.2888,-283.0663 1778.1031,-327.1017"/>
<polygon fill="#9a32cd" stroke="#9a32cd" points="1494.0362,-97.2465 1484.5092,-101.8818 1494.8474,-104.1994 1494.0362,-97.2465"/>
<text text-anchor="middle" x="1586.5" y="-130.4089" font-family="FreeSans.ttf" font-size="10.00" fill="#000000"> m_gravityAcc</text>
<text text-anchor="start" x="1526" y="-119.4089" font-family="FreeSans.ttf" font-size="10.00" fill="#000000">m_gravityAccInBaseLink</text>
<text text-anchor="middle" x="1586.5" y="-108.4089" font-family="FreeSans.ttf" font-size="10.00" fill="#000000">Frame</text>
</g>
<!-- Node20 -->
<g id="node20" class="node">
<title>Node20</title>
<g id="a_node20"><a xlink:href="classiDynTree_1_1VectorFixSize.html" target="_top" xlink:title="Class providing a simple vector of N elements. ">
<polygon fill="none" stroke="#000000" points="1124.5,-96.4089 1124.5,-126.4089 1254.5,-126.4089 1254.5,-96.4089 1124.5,-96.4089"/>
<text text-anchor="start" x="1132.5" y="-114.4089" font-family="FreeSans.ttf" font-size="10.00" fill="#000000">iDynTree::VectorFixSize</text>
<text text-anchor="middle" x="1189.5" y="-103.4089" font-family="FreeSans.ttf" font-size="10.00" fill="#000000">&lt; VecSize &gt;</text>
</a>
</g>
</g>
<!-- Node20&#45;&gt;Node19 -->
<g id="edge21" class="edge">
<title>Node20&#45;&gt;Node19</title>
<path fill="none" stroke="#ffa500" stroke-dasharray="5,2" d="M1264.7028,-111.4089C1288.5058,-111.4089 1314.8791,-111.4089 1338.9439,-111.4089"/>
<polygon fill="#ffa500" stroke="#ffa500" points="1264.6732,-107.909 1254.6731,-111.4089 1264.6731,-114.909 1264.6732,-107.909"/>
<text text-anchor="middle" x="1305" y="-114.4089" font-family="FreeSans.ttf" font-size="10.00" fill="#000000"> &lt; 3 &gt;</text>
</g>
<!-- Node21 -->
<g id="node21" class="node">
<title>Node21</title>
<g id="a_node21"><a xlink:href="classiDynTree_1_1LinkPositions.html" target="_top" xlink:title="iDynTree::LinkPositions">
<polygon fill="none" stroke="#000000" points="1353,-63.9089 1353,-82.9089 1483,-82.9089 1483,-63.9089 1353,-63.9089"/>
<text text-anchor="middle" x="1418" y="-70.9089" font-family="FreeSans.ttf" font-size="10.00" fill="#000000">iDynTree::LinkPositions</text>
</a>
</g>
</g>
<!-- Node21&#45;&gt;Node1 -->
<g id="edge22" class="edge">
<title>Node21&#45;&gt;Node1</title>
<path fill="none" stroke="#9a32cd" stroke-dasharray="5,2" d="M1462.129,-61.5938C1513.6119,-50.5301 1599.1658,-40.8671 1658,-79.4089 1747.5345,-138.0622 1772.8339,-280.5567 1778.8465,-327.289"/>
<polygon fill="#9a32cd" stroke="#9a32cd" points="1461.2887,-58.1954 1452.3047,-63.8114 1462.83,-65.0236 1461.2887,-58.1954"/>
<text text-anchor="middle" x="1586.5" y="-82.4089" font-family="FreeSans.ttf" font-size="10.00" fill="#000000"> m_linkPos</text>
</g>
<!-- Node22 -->
<g id="node22" class="node">
<title>Node22</title>
<g id="a_node22"><a xlink:href="classiDynTree_1_1LinkWrenches.html" target="_top" xlink:title="Vector of wrenches connected in some way to the link of a model. ">
<polygon fill="none" stroke="#000000" points="1351.5,-18.9089 1351.5,-37.9089 1484.5,-37.9089 1484.5,-18.9089 1351.5,-18.9089"/>
<text text-anchor="middle" x="1418" y="-25.9089" font-family="FreeSans.ttf" font-size="10.00" fill="#000000">iDynTree::LinkWrenches</text>
</a>
</g>
</g>
<!-- Node22&#45;&gt;Node1 -->
<g id="edge23" class="edge">
<title>Node22&#45;&gt;Node1</title>
<path fill="none" stroke="#9a32cd" stroke-dasharray="5,2" d="M1455.6344,-15.8907C1506.3843,-1.5214 1597.3729,15.1117 1658,-26.4089 1711.279,-62.8972 1763.2515,-269.1282 1776.9886,-327.1945"/>
<polygon fill="#9a32cd" stroke="#9a32cd" points="1454.3428,-12.6225 1445.7414,-18.8086 1456.3231,-19.3366 1454.3428,-12.6225"/>
<text text-anchor="middle" x="1586.5" y="-40.4089" font-family="FreeSans.ttf" font-size="10.00" fill="#000000"> m_invDynNetExtWrenches</text>
<text text-anchor="middle" x="1586.5" y="-29.4089" font-family="FreeSans.ttf" font-size="10.00" fill="#000000">m_invDynInternalWrenches</text>
</g>
<!-- Node23 -->
<g id="node23" class="node">
<title>Node23</title>
<g id="a_node23"><a xlink:href="classiDynTree_1_1SpatialMomentum.html" target="_top" xlink:title="Class representing a spatial momentum, i.e. ">
<polygon fill="none" stroke="#000000" points="1340.5,-573.9089 1340.5,-592.9089 1495.5,-592.9089 1495.5,-573.9089 1340.5,-573.9089"/>
<text text-anchor="middle" x="1418" y="-580.9089" font-family="FreeSans.ttf" font-size="10.00" fill="#000000">iDynTree::SpatialMomentum</text>
</a>
</g>
</g>
<!-- Node23&#45;&gt;Node1 -->
<g id="edge24" class="edge">
<title>Node23&#45;&gt;Node1</title>
<path fill="none" stroke="#9a32cd" stroke-dasharray="5,2" d="M1505.5318,-578.566C1568.7514,-574.4106 1645.1851,-567.7732 1658,-559.4089 1733.173,-510.3433 1766.9643,-398.2516 1777.0699,-357.5405"/>
<polygon fill="#9a32cd" stroke="#9a32cd" points="1505.265,-575.0759 1495.5107,-579.2115 1505.715,-582.0614 1505.265,-575.0759"/>
<text text-anchor="middle" x="1586.5" y="-580.4089" font-family="FreeSans.ttf" font-size="10.00" fill="#000000"> m_totalMomentum</text>
</g>
<!-- Node24 -->
<g id="node24" class="node">
<title>Node24</title>
<g id="a_node24"><a xlink:href="classiDynTree_1_1SpatialForceVector.html" target="_top" xlink:title="Class providing the raw coordinates for any spatial force vector, (i.e. ">
<polygon fill="none" stroke="#000000" points="1111.5,-572.9089 1111.5,-591.9089 1267.5,-591.9089 1267.5,-572.9089 1111.5,-572.9089"/>
<text text-anchor="middle" x="1189.5" y="-579.9089" font-family="FreeSans.ttf" font-size="10.00" fill="#000000">iDynTree::SpatialForceVector</text>
</a>
</g>
</g>
<!-- Node24&#45;&gt;Node23 -->
<g id="edge25" class="edge">
<title>Node24&#45;&gt;Node23</title>
<path fill="none" stroke="#191970" d="M1278.0826,-582.7966C1298.559,-582.8862 1320.1954,-582.9809 1340.1725,-583.0683"/>
<polygon fill="#191970" stroke="#191970" points="1277.8323,-579.2956 1267.8171,-582.7517 1277.8016,-586.2955 1277.8323,-579.2956"/>
</g>
<!-- Node25&#45;&gt;Node24 -->
<g id="edge26" class="edge">
<title>Node25&#45;&gt;Node24</title>
<path fill="none" stroke="#191970" d="M1077.7105,-580.0177C1088.8051,-580.255 1100.2573,-580.5 1111.4087,-580.7385"/>
<polygon fill="#191970" stroke="#191970" points="1077.7136,-576.5171 1067.641,-579.8023 1077.5638,-583.5155 1077.7136,-576.5171"/>
</g>
</g>
</svg>
