<?xml version="1.0" encoding="UTF-8" standalone="no"?>
<!DOCTYPE svg PUBLIC "-//W3C//DTD SVG 1.1//EN"
 "http://www.w3.org/Graphics/SVG/1.1/DTD/svg11.dtd">
<!-- Generated by graphviz version 2.40.1 (20161225.0304)
 -->
<!-- Title: TransformConstraint.cpp Pages: 1 -->
<svg width="1067pt" height="588pt"
 viewBox="0.00 0.00 1067.00 588.00" xmlns="http://www.w3.org/2000/svg" xmlns:xlink="http://www.w3.org/1999/xlink">
<g id="graph0" class="graph" transform="scale(1 1) rotate(0) translate(4 584)">
<title>TransformConstraint.cpp</title>
<!-- Node0 -->
<g id="node1" class="node">
<title>Node0</title>
<polygon fill="#bfbfbf" stroke="#000000" points="468,-560.5 468,-579.5 604,-579.5 604,-560.5 468,-560.5"/>
<text text-anchor="middle" x="536" y="-567.5" font-family="FreeSans.ttf" font-size="10.00" fill="#000000">TransformConstraint.cpp</text>
</g>
<!-- Node1 -->
<g id="node2" class="node">
<title>Node1</title>
<g id="a_node2"><a xlink:href="TransformConstraint_8h.html" target="_top" xlink:title="TransformConstraint.h">
<polygon fill="none" stroke="#000000" points="543.5,-504.5 543.5,-523.5 668.5,-523.5 668.5,-504.5 543.5,-504.5"/>
<text text-anchor="middle" x="606" y="-511.5" font-family="FreeSans.ttf" font-size="10.00" fill="#000000">TransformConstraint.h</text>
</a>
</g>
</g>
<!-- Node0&#45;&gt;Node1 -->
<g id="edge1" class="edge">
<title>Node0&#45;&gt;Node1</title>
<path fill="none" stroke="#191970" d="M548.1931,-560.2455C558.6321,-551.8943 573.8655,-539.7076 586.074,-529.9408"/>
<polygon fill="#191970" stroke="#191970" points="588.3244,-532.6227 593.9467,-523.6427 583.9515,-527.1566 588.3244,-532.6227"/>
</g>
<!-- Node2 -->
<g id="node3" class="node">
<title>Node2</title>
<g id="a_node3"><a xlink:href="Transform_8h.html" target="_top" xlink:title="iDynTree/Core/Transform.h">
<polygon fill="none" stroke="#000000" points="533,-336.5 533,-355.5 679,-355.5 679,-336.5 533,-336.5"/>
<text text-anchor="middle" x="606" y="-343.5" font-family="FreeSans.ttf" font-size="10.00" fill="#000000">iDynTree/Core/Transform.h</text>
</a>
</g>
</g>
<!-- Node0&#45;&gt;Node2 -->
<g id="edge59" class="edge">
<title>Node0&#45;&gt;Node2</title>
<path fill="none" stroke="#191970" d="M534.5296,-560.47C532.8305,-547.5209 530.7726,-523.721 535,-504 546.446,-450.6038 577.378,-393.4605 594.3927,-364.7526"/>
<polygon fill="#191970" stroke="#191970" points="597.6032,-366.2066 599.7758,-355.8369 591.6108,-362.5885 597.6032,-366.2066"/>
</g>
<!-- Node1&#45;&gt;Node2 -->
<g id="edge2" class="edge">
<title>Node1&#45;&gt;Node2</title>
<path fill="none" stroke="#191970" d="M606,-504.4862C606,-477.9293 606,-402.5651 606,-366.1655"/>
<polygon fill="#191970" stroke="#191970" points="609.5001,-365.8278 606,-355.8279 602.5001,-365.8279 609.5001,-365.8278"/>
</g>
<!-- Node26 -->
<g id="node27" class="node">
<title>Node26</title>
<g id="a_node27"><a xlink:href="InverseKinematics_8h.html" target="_top" xlink:title="iDynTree/InverseKinematics.h">
<polygon fill="none" stroke="#000000" points="721,-448.5 721,-467.5 883,-467.5 883,-448.5 721,-448.5"/>
<text text-anchor="middle" x="802" y="-455.5" font-family="FreeSans.ttf" font-size="10.00" fill="#000000">iDynTree/InverseKinematics.h</text>
</a>
</g>
</g>
<!-- Node1&#45;&gt;Node26 -->
<g id="edge42" class="edge">
<title>Node1&#45;&gt;Node26</title>
<path fill="none" stroke="#191970" d="M639.6936,-504.3733C672.7087,-494.9404 723.1573,-480.5265 759.0386,-470.2747"/>
<polygon fill="#191970" stroke="#191970" points="760.0924,-473.6137 768.7461,-467.5011 758.1693,-466.8831 760.0924,-473.6137"/>
</g>
<!-- Node3 -->
<g id="node4" class="node">
<title>Node3</title>
<g id="a_node4"><a xlink:href="Position_8h.html" target="_top" xlink:title="iDynTree/Core/Position.h">
<polygon fill="none" stroke="#000000" points="672,-280.5 672,-299.5 808,-299.5 808,-280.5 672,-280.5"/>
<text text-anchor="middle" x="740" y="-287.5" font-family="FreeSans.ttf" font-size="10.00" fill="#000000">iDynTree/Core/Position.h</text>
</a>
</g>
</g>
<!-- Node2&#45;&gt;Node3 -->
<g id="edge3" class="edge">
<title>Node2&#45;&gt;Node3</title>
<path fill="none" stroke="#191970" d="M629.0354,-336.3733C650.7388,-327.3032 683.4618,-313.6279 707.755,-303.4755"/>
<polygon fill="#191970" stroke="#191970" points="709.3881,-306.5865 717.2652,-299.5011 706.6889,-300.1278 709.3881,-306.5865"/>
</g>
<!-- Node18 -->
<g id="node19" class="node">
<title>Node18</title>
<polygon fill="none" stroke="#bfbfbf" points="679,-56.5 679,-75.5 723,-75.5 723,-56.5 679,-56.5"/>
<text text-anchor="middle" x="701" y="-63.5" font-family="FreeSans.ttf" font-size="10.00" fill="#000000">string</text>
</g>
<!-- Node2&#45;&gt;Node18 -->
<g id="edge41" class="edge">
<title>Node2&#45;&gt;Node18</title>
<path fill="none" stroke="#191970" d="M610.7083,-336.4579C625.0993,-306.8809 668.8664,-213.8082 691,-132 695.1201,-116.7718 697.686,-99.0773 699.1856,-85.8449"/>
<polygon fill="#191970" stroke="#191970" points="702.704,-85.844 700.2413,-75.5394 695.7404,-85.1306 702.704,-85.844"/>
</g>
<!-- Node21 -->
<g id="node22" class="node">
<title>Node21</title>
<g id="a_node22"><a xlink:href="Rotation_8h.html" target="_top" xlink:title="iDynTree/Core/Rotation.h">
<polygon fill="none" stroke="#000000" points="323.5,-224.5 323.5,-243.5 460.5,-243.5 460.5,-224.5 323.5,-224.5"/>
<text text-anchor="middle" x="392" y="-231.5" font-family="FreeSans.ttf" font-size="10.00" fill="#000000">iDynTree/Core/Rotation.h</text>
</a>
</g>
</g>
<!-- Node2&#45;&gt;Node21 -->
<g id="edge39" class="edge">
<title>Node2&#45;&gt;Node21</title>
<path fill="none" stroke="#191970" d="M587.7545,-336.4509C550.0877,-316.7375 463.5497,-271.4465 419.2359,-248.2543"/>
<polygon fill="#191970" stroke="#191970" points="420.6822,-245.0609 410.1993,-243.5249 417.4363,-251.2629 420.6822,-245.0609"/>
</g>
<!-- Node24 -->
<g id="node25" class="node">
<title>Node24</title>
<g id="a_node25"><a xlink:href="MatrixFixSize_8h.html" target="_top" xlink:title="iDynTree/Core/MatrixFixSize.h">
<polygon fill="none" stroke="#000000" points="15.5,-112.5 15.5,-131.5 176.5,-131.5 176.5,-112.5 15.5,-112.5"/>
<text text-anchor="middle" x="96" y="-119.5" font-family="FreeSans.ttf" font-size="10.00" fill="#000000">iDynTree/Core/MatrixFixSize.h</text>
</a>
</g>
</g>
<!-- Node2&#45;&gt;Node24 -->
<g id="edge40" class="edge">
<title>Node2&#45;&gt;Node24</title>
<path fill="none" stroke="#191970" d="M539.9853,-336.4811C409.4352,-316.1627 125.9433,-264.1112 69,-188 58.0678,-173.3879 68.6772,-153.7208 79.6452,-139.6648"/>
<polygon fill="#191970" stroke="#191970" points="82.5619,-141.6351 86.3313,-131.7334 77.2099,-137.1233 82.5619,-141.6351"/>
</g>
<!-- Node4 -->
<g id="node5" class="node">
<title>Node4</title>
<g id="a_node5"><a xlink:href="PositionRaw_8h.html" target="_top" xlink:title="iDynTree/Core/PositionRaw.h">
<polygon fill="none" stroke="#000000" points="748,-168.5 748,-187.5 904,-187.5 904,-168.5 748,-168.5"/>
<text text-anchor="middle" x="826" y="-175.5" font-family="FreeSans.ttf" font-size="10.00" fill="#000000">iDynTree/Core/PositionRaw.h</text>
</a>
</g>
</g>
<!-- Node3&#45;&gt;Node4 -->
<g id="edge4" class="edge">
<title>Node3&#45;&gt;Node4</title>
<path fill="none" stroke="#191970" d="M747.3323,-280.4509C761.7396,-261.688 793.9383,-219.7548 812.3644,-195.758"/>
<polygon fill="#191970" stroke="#191970" points="815.372,-197.588 818.6862,-187.5249 809.8199,-193.3248 815.372,-197.588"/>
</g>
<!-- Node3&#45;&gt;Node18 -->
<g id="edge38" class="edge">
<title>Node3&#45;&gt;Node18</title>
<path fill="none" stroke="#191970" d="M780.3893,-280.4708C842.148,-263.8475 949.2815,-225.7187 913,-168 873.2075,-104.6958 781.9146,-79.7696 733.127,-70.705"/>
<polygon fill="#191970" stroke="#191970" points="733.5641,-67.2285 723.1112,-68.957 732.3605,-74.1242 733.5641,-67.2285"/>
</g>
<!-- Node3&#45;&gt;Node21 -->
<g id="edge24" class="edge">
<title>Node3&#45;&gt;Node21</title>
<path fill="none" stroke="#191970" d="M680.5721,-280.4369C619.7634,-270.6516 525.3476,-255.4582 461.2072,-245.1368"/>
<polygon fill="#191970" stroke="#191970" points="461.6119,-241.657 451.1828,-243.5237 460.4997,-248.5681 461.6119,-241.657"/>
</g>
<!-- Node5 -->
<g id="node6" class="node">
<title>Node5</title>
<g id="a_node6"><a xlink:href="VectorFixSize_8h.html" target="_top" xlink:title="iDynTree/Core/VectorFixSize.h">
<polygon fill="none" stroke="#000000" points="194.5,-112.5 194.5,-131.5 355.5,-131.5 355.5,-112.5 194.5,-112.5"/>
<text text-anchor="middle" x="275" y="-119.5" font-family="FreeSans.ttf" font-size="10.00" fill="#000000">iDynTree/Core/VectorFixSize.h</text>
</a>
</g>
</g>
<!-- Node4&#45;&gt;Node5 -->
<g id="edge5" class="edge">
<title>Node4&#45;&gt;Node5</title>
<path fill="none" stroke="#191970" d="M747.9323,-170.0657C647.2713,-159.8352 472.5273,-142.0754 365.9655,-131.2451"/>
<polygon fill="#191970" stroke="#191970" points="366.1734,-127.7483 355.8707,-130.2192 365.4655,-134.7124 366.1734,-127.7483"/>
</g>
<!-- Node4&#45;&gt;Node18 -->
<g id="edge23" class="edge">
<title>Node4&#45;&gt;Node18</title>
<path fill="none" stroke="#191970" d="M815.3426,-168.4509C793.9406,-149.2747 745.5271,-105.8962 719.079,-82.1988"/>
<polygon fill="#191970" stroke="#191970" points="721.4138,-79.5914 711.6305,-75.5249 716.7426,-84.8048 721.4138,-79.5914"/>
</g>
<!-- Node6 -->
<g id="node7" class="node">
<title>Node6</title>
<g id="a_node7"><a xlink:href="Utils_8h.html" target="_top" xlink:title="iDynTree/Core/Utils.h">
<polygon fill="none" stroke="#000000" points="296.5,-56.5 296.5,-75.5 415.5,-75.5 415.5,-56.5 296.5,-56.5"/>
<text text-anchor="middle" x="356" y="-63.5" font-family="FreeSans.ttf" font-size="10.00" fill="#000000">iDynTree/Core/Utils.h</text>
</a>
</g>
</g>
<!-- Node5&#45;&gt;Node6 -->
<g id="edge6" class="edge">
<title>Node5&#45;&gt;Node6</title>
<path fill="none" stroke="#191970" d="M289.1091,-112.2455C301.4209,-103.7337 319.4958,-91.2375 333.7538,-81.3801"/>
<polygon fill="#191970" stroke="#191970" points="335.8174,-84.2085 342.0526,-75.6427 331.8366,-78.4506 335.8174,-84.2085"/>
</g>
<!-- Node9 -->
<g id="node10" class="node">
<title>Node9</title>
<g id="a_node10"><a xlink:href="Span_8h.html" target="_top" xlink:title="iDynTree/Core/Span.h">
<polygon fill="none" stroke="#000000" points="441.5,-56.5 441.5,-75.5 562.5,-75.5 562.5,-56.5 441.5,-56.5"/>
<text text-anchor="middle" x="502" y="-63.5" font-family="FreeSans.ttf" font-size="10.00" fill="#000000">iDynTree/Core/Span.h</text>
</a>
</g>
</g>
<!-- Node5&#45;&gt;Node9 -->
<g id="edge9" class="edge">
<title>Node5&#45;&gt;Node9</title>
<path fill="none" stroke="#191970" d="M313.7648,-112.4369C352.3692,-102.9133 411.7384,-88.2672 453.4572,-77.9753"/>
<polygon fill="#191970" stroke="#191970" points="454.5245,-81.317 463.3951,-75.5237 452.8479,-74.5208 454.5245,-81.317"/>
</g>
<!-- Node10 -->
<g id="node11" class="node">
<title>Node10</title>
<polygon fill="none" stroke="#bfbfbf" points="153,-.5 153,-19.5 205,-19.5 205,-.5 153,-.5"/>
<text text-anchor="middle" x="179" y="-7.5" font-family="FreeSans.ttf" font-size="10.00" fill="#000000">cassert</text>
</g>
<!-- Node5&#45;&gt;Node10 -->
<g id="edge21" class="edge">
<title>Node5&#45;&gt;Node10</title>
<path fill="none" stroke="#191970" d="M273.0798,-112.0907C269.9939,-98.2757 262.8239,-73.0131 249,-56 238.3452,-42.8871 222.9429,-32.2016 209.2971,-24.4412"/>
<polygon fill="#191970" stroke="#191970" points="210.6739,-21.2072 200.2107,-19.542 207.3517,-27.3687 210.6739,-21.2072"/>
</g>
<!-- Node5&#45;&gt;Node18 -->
<g id="edge19" class="edge">
<title>Node5&#45;&gt;Node18</title>
<path fill="none" stroke="#191970" d="M347.748,-112.4369C441.5853,-100.1015 600.7987,-79.172 668.7314,-70.2419"/>
<polygon fill="#191970" stroke="#191970" points="669.3679,-73.6884 678.8265,-68.9148 668.4555,-66.7481 669.3679,-73.6884"/>
</g>
<!-- Node19 -->
<g id="node20" class="node">
<title>Node19</title>
<polygon fill="none" stroke="#bfbfbf" points="116,-56.5 116,-75.5 172,-75.5 172,-56.5 116,-56.5"/>
<text text-anchor="middle" x="144" y="-63.5" font-family="FreeSans.ttf" font-size="10.00" fill="#000000">sstream</text>
</g>
<!-- Node5&#45;&gt;Node19 -->
<g id="edge20" class="edge">
<title>Node5&#45;&gt;Node19</title>
<path fill="none" stroke="#191970" d="M252.4803,-112.3733C231.2628,-103.3032 199.2724,-89.6279 175.5231,-79.4755"/>
<polygon fill="#191970" stroke="#191970" points="176.7967,-76.2136 166.2258,-75.5011 174.0452,-82.6502 176.7967,-76.2136"/>
</g>
<!-- Node20 -->
<g id="node21" class="node">
<title>Node20</title>
<polygon fill="none" stroke="#bfbfbf" points="190,-56.5 190,-75.5 240,-75.5 240,-56.5 190,-56.5"/>
<text text-anchor="middle" x="215" y="-63.5" font-family="FreeSans.ttf" font-size="10.00" fill="#000000">cstring</text>
</g>
<!-- Node5&#45;&gt;Node20 -->
<g id="edge22" class="edge">
<title>Node5&#45;&gt;Node20</title>
<path fill="none" stroke="#191970" d="M264.5488,-112.2455C255.7731,-104.0549 243.0446,-92.1749 232.686,-82.5069"/>
<polygon fill="#191970" stroke="#191970" points="235.0301,-79.9072 225.3314,-75.6427 230.2539,-85.0246 235.0301,-79.9072"/>
</g>
<!-- Node7 -->
<g id="node8" class="node">
<title>Node7</title>
<polygon fill="none" stroke="#bfbfbf" points="321.5,-.5 321.5,-19.5 374.5,-19.5 374.5,-.5 321.5,-.5"/>
<text text-anchor="middle" x="348" y="-7.5" font-family="FreeSans.ttf" font-size="10.00" fill="#000000">cstddef</text>
</g>
<!-- Node6&#45;&gt;Node7 -->
<g id="edge7" class="edge">
<title>Node6&#45;&gt;Node7</title>
<path fill="none" stroke="#191970" d="M354.6065,-56.2455C353.5626,-48.9382 352.0992,-38.6944 350.8149,-29.7046"/>
<polygon fill="#191970" stroke="#191970" points="354.2566,-29.0472 349.3775,-19.6427 347.327,-30.0372 354.2566,-29.0472"/>
</g>
<!-- Node8 -->
<g id="node9" class="node">
<title>Node8</title>
<polygon fill="none" stroke="#bfbfbf" points="223,-.5 223,-19.5 303,-19.5 303,-.5 223,-.5"/>
<text text-anchor="middle" x="263" y="-7.5" font-family="FreeSans.ttf" font-size="10.00" fill="#000000">CoreExport.h</text>
</g>
<!-- Node6&#45;&gt;Node8 -->
<g id="edge8" class="edge">
<title>Node6&#45;&gt;Node8</title>
<path fill="none" stroke="#191970" d="M339.8006,-56.2455C325.3982,-47.5731 304.1268,-34.7645 287.6201,-24.825"/>
<polygon fill="#191970" stroke="#191970" points="289.386,-21.8028 279.0137,-19.6427 285.775,-27.7996 289.386,-21.8028"/>
</g>
<!-- Node9&#45;&gt;Node7 -->
<g id="edge13" class="edge">
<title>Node9&#45;&gt;Node7</title>
<path fill="none" stroke="#191970" d="M475.5265,-56.3733C450.1403,-47.1419 411.6355,-33.1402 383.578,-22.9375"/>
<polygon fill="#191970" stroke="#191970" points="384.7222,-19.6293 374.1281,-19.5011 382.3299,-26.2079 384.7222,-19.6293"/>
</g>
<!-- Node9&#45;&gt;Node10 -->
<g id="edge10" class="edge">
<title>Node9&#45;&gt;Node10</title>
<path fill="none" stroke="#191970" d="M441.4983,-57.2092C374.5473,-47.3371 269.8538,-31.4382 215.2057,-20.0244"/>
<polygon fill="#191970" stroke="#191970" points="215.8011,-16.5722 205.2868,-17.8762 214.3194,-23.4136 215.8011,-16.5722"/>
</g>
<!-- Node11 -->
<g id="node12" class="node">
<title>Node11</title>
<polygon fill="none" stroke="#bfbfbf" points="543,-.5 543,-19.5 607,-19.5 607,-.5 543,-.5"/>
<text text-anchor="middle" x="575" y="-7.5" font-family="FreeSans.ttf" font-size="10.00" fill="#000000">algorithm</text>
</g>
<!-- Node9&#45;&gt;Node11 -->
<g id="edge11" class="edge">
<title>Node9&#45;&gt;Node11</title>
<path fill="none" stroke="#191970" d="M514.7156,-56.2455C525.602,-47.8943 541.4883,-35.7076 554.22,-25.9408"/>
<polygon fill="#191970" stroke="#191970" points="556.6261,-28.5063 562.4301,-19.6427 552.3654,-22.9523 556.6261,-28.5063"/>
</g>
<!-- Node12 -->
<g id="node13" class="node">
<title>Node12</title>
<polygon fill="none" stroke="#bfbfbf" points="625,-.5 625,-19.5 667,-19.5 667,-.5 625,-.5"/>
<text text-anchor="middle" x="646" y="-7.5" font-family="FreeSans.ttf" font-size="10.00" fill="#000000">array</text>
</g>
<!-- Node9&#45;&gt;Node12 -->
<g id="edge12" class="edge">
<title>Node9&#45;&gt;Node12</title>
<path fill="none" stroke="#191970" d="M526.7545,-56.3733C551.2831,-46.8343 588.9096,-32.2018 615.3214,-21.9306"/>
<polygon fill="#191970" stroke="#191970" points="616.7927,-25.1138 624.8442,-18.2273 614.2555,-18.5898 616.7927,-25.1138"/>
</g>
<!-- Node13 -->
<g id="node14" class="node">
<title>Node13</title>
<polygon fill="none" stroke="#bfbfbf" points="685.5,-.5 685.5,-19.5 738.5,-19.5 738.5,-.5 685.5,-.5"/>
<text text-anchor="middle" x="712" y="-7.5" font-family="FreeSans.ttf" font-size="10.00" fill="#000000">iterator</text>
</g>
<!-- Node9&#45;&gt;Node13 -->
<g id="edge14" class="edge">
<title>Node9&#45;&gt;Node13</title>
<path fill="none" stroke="#191970" d="M538.6967,-56.4408C571.8708,-47.7675 622.3069,-34.5031 675.344,-20.1548"/>
<polygon fill="#191970" stroke="#191970" points="676.5375,-23.4577 685.2739,-17.4639 674.7065,-16.7014 676.5375,-23.4577"/>
</g>
<!-- Node14 -->
<g id="node15" class="node">
<title>Node14</title>
<polygon fill="none" stroke="#bfbfbf" points="757,-.5 757,-19.5 801,-19.5 801,-.5 757,-.5"/>
<text text-anchor="middle" x="779" y="-7.5" font-family="FreeSans.ttf" font-size="10.00" fill="#000000">limits</text>
</g>
<!-- Node9&#45;&gt;Node14 -->
<g id="edge15" class="edge">
<title>Node9&#45;&gt;Node14</title>
<path fill="none" stroke="#191970" d="M562.6199,-56.8712C610.352,-49.1816 678.6885,-37.068 746.7155,-20.0923"/>
<polygon fill="#191970" stroke="#191970" points="747.9124,-23.3997 756.7475,-17.5523 746.1943,-16.6138 747.9124,-23.3997"/>
</g>
<!-- Node15 -->
<g id="node16" class="node">
<title>Node15</title>
<polygon fill="none" stroke="#bfbfbf" points="819.5,-.5 819.5,-19.5 884.5,-19.5 884.5,-.5 819.5,-.5"/>
<text text-anchor="middle" x="852" y="-7.5" font-family="FreeSans.ttf" font-size="10.00" fill="#000000">stdexcept</text>
</g>
<!-- Node9&#45;&gt;Node15 -->
<g id="edge16" class="edge">
<title>Node9&#45;&gt;Node15</title>
<path fill="none" stroke="#191970" d="M562.7481,-58.4867C622.8691,-50.6989 717.7127,-37.4702 809.0718,-20.0492"/>
<polygon fill="#191970" stroke="#191970" points="809.8854,-23.4569 819.0427,-18.1283 808.5611,-16.5833 809.8854,-23.4569"/>
</g>
<!-- Node16 -->
<g id="node17" class="node">
<title>Node16</title>
<polygon fill="none" stroke="#bfbfbf" points="392.5,-.5 392.5,-19.5 461.5,-19.5 461.5,-.5 392.5,-.5"/>
<text text-anchor="middle" x="427" y="-7.5" font-family="FreeSans.ttf" font-size="10.00" fill="#000000">type_traits</text>
</g>
<!-- Node9&#45;&gt;Node16 -->
<g id="edge17" class="edge">
<title>Node9&#45;&gt;Node16</title>
<path fill="none" stroke="#191970" d="M488.936,-56.2455C477.6438,-47.814 461.1155,-35.4729 447.9729,-25.6598"/>
<polygon fill="#191970" stroke="#191970" points="450.0211,-22.8211 439.9143,-19.6427 445.8331,-28.4301 450.0211,-22.8211"/>
</g>
<!-- Node17 -->
<g id="node18" class="node">
<title>Node17</title>
<polygon fill="none" stroke="#bfbfbf" points="479.5,-.5 479.5,-19.5 524.5,-19.5 524.5,-.5 479.5,-.5"/>
<text text-anchor="middle" x="502" y="-7.5" font-family="FreeSans.ttf" font-size="10.00" fill="#000000">utility</text>
</g>
<!-- Node9&#45;&gt;Node17 -->
<g id="edge18" class="edge">
<title>Node9&#45;&gt;Node17</title>
<path fill="none" stroke="#191970" d="M502,-56.2455C502,-48.9382 502,-38.6944 502,-29.7046"/>
<polygon fill="#191970" stroke="#191970" points="505.5001,-29.6426 502,-19.6427 498.5001,-29.6427 505.5001,-29.6426"/>
</g>
<!-- Node21&#45;&gt;Node5 -->
<g id="edge37" class="edge">
<title>Node21&#45;&gt;Node5</title>
<path fill="none" stroke="#191970" d="M348.7091,-224.4888C327.7239,-217.7119 303.8986,-206.4276 289,-188 278.5404,-175.0628 275.3776,-156.1653 274.6345,-141.9034"/>
<polygon fill="#191970" stroke="#191970" points="278.1301,-141.6022 274.4642,-131.6618 271.131,-141.7187 278.1301,-141.6022"/>
</g>
<!-- Node21&#45;&gt;Node18 -->
<g id="edge25" class="edge">
<title>Node21&#45;&gt;Node18</title>
<path fill="none" stroke="#191970" d="M460.763,-226.5391C519.6066,-219.0634 598.8314,-206.0684 625,-188 661.8007,-162.5906 684.3218,-112.9692 694.5214,-85.4868"/>
<polygon fill="#191970" stroke="#191970" points="697.9051,-86.4161 697.9365,-75.8213 691.305,-84.0841 697.9051,-86.4161"/>
</g>
<!-- Node22 -->
<g id="node23" class="node">
<title>Node22</title>
<g id="a_node23"><a xlink:href="GeomVector3_8h.html" target="_top" xlink:title="iDynTree/Core/GeomVector3.h">
<polygon fill="none" stroke="#000000" points="78.5,-168.5 78.5,-187.5 241.5,-187.5 241.5,-168.5 78.5,-168.5"/>
<text text-anchor="middle" x="160" y="-175.5" font-family="FreeSans.ttf" font-size="10.00" fill="#000000">iDynTree/Core/GeomVector3.h</text>
</a>
</g>
</g>
<!-- Node21&#45;&gt;Node22 -->
<g id="edge26" class="edge">
<title>Node21&#45;&gt;Node22</title>
<path fill="none" stroke="#191970" d="M352.3814,-224.4369C312.8432,-214.8932 251.9931,-200.2052 209.3418,-189.9101"/>
<polygon fill="#191970" stroke="#191970" points="209.9973,-186.4679 199.4552,-187.5237 208.3548,-193.2724 209.9973,-186.4679"/>
</g>
<!-- Node23 -->
<g id="node24" class="node">
<title>Node23</title>
<g id="a_node24"><a xlink:href="RotationRaw_8h.html" target="_top" xlink:title="iDynTree/Core/RotationRaw.h">
<polygon fill="none" stroke="#000000" points="298,-168.5 298,-187.5 456,-187.5 456,-168.5 298,-168.5"/>
<text text-anchor="middle" x="377" y="-175.5" font-family="FreeSans.ttf" font-size="10.00" fill="#000000">iDynTree/Core/RotationRaw.h</text>
</a>
</g>
</g>
<!-- Node21&#45;&gt;Node23 -->
<g id="edge28" class="edge">
<title>Node21&#45;&gt;Node23</title>
<path fill="none" stroke="#191970" d="M389.3872,-224.2455C387.4084,-216.8579 384.6256,-206.4689 382.1988,-197.4087"/>
<polygon fill="#191970" stroke="#191970" points="385.5511,-196.3966 379.5829,-187.6427 378.7895,-198.2078 385.5511,-196.3966"/>
</g>
<!-- Node22&#45;&gt;Node5 -->
<g id="edge27" class="edge">
<title>Node22&#45;&gt;Node5</title>
<path fill="none" stroke="#191970" d="M179.7692,-168.3733C198.1469,-159.4241 225.7312,-145.9917 246.4893,-135.8835"/>
<polygon fill="#191970" stroke="#191970" points="248.0304,-139.026 255.4888,-131.5011 244.9657,-132.7325 248.0304,-139.026"/>
</g>
<!-- Node23&#45;&gt;Node18 -->
<g id="edge36" class="edge">
<title>Node23&#45;&gt;Node18</title>
<path fill="none" stroke="#191970" d="M449.6525,-168.4896C491.2141,-161.5055 543.7257,-150.0247 588,-132 603.5336,-125.676 605.5938,-120.5874 620,-112 638.115,-101.2018 658.793,-89.4683 674.7221,-80.5545"/>
<polygon fill="#191970" stroke="#191970" points="676.4684,-83.5881 683.497,-75.6603 673.0586,-77.4747 676.4684,-83.5881"/>
</g>
<!-- Node23&#45;&gt;Node24 -->
<g id="edge29" class="edge">
<title>Node23&#45;&gt;Node24</title>
<path fill="none" stroke="#191970" d="M329.0137,-168.4369C280.5186,-158.7724 205.5527,-143.8326 153.8121,-133.5213"/>
<polygon fill="#191970" stroke="#191970" points="154.2797,-130.0457 143.7884,-131.5237 152.9115,-136.9107 154.2797,-130.0457"/>
</g>
<!-- Node24&#45;&gt;Node6 -->
<g id="edge30" class="edge">
<title>Node24&#45;&gt;Node6</title>
<path fill="none" stroke="#191970" d="M140.4002,-112.4369C185.0841,-102.8127 254.057,-87.957 301.9088,-77.6504"/>
<polygon fill="#191970" stroke="#191970" points="302.7441,-81.0508 311.783,-75.5237 301.2702,-74.2078 302.7441,-81.0508"/>
</g>
<!-- Node24&#45;&gt;Node10 -->
<g id="edge31" class="edge">
<title>Node24&#45;&gt;Node10</title>
<path fill="none" stroke="#191970" d="M95.2675,-112.1576C94.7377,-98.4222 95.6043,-73.2535 107,-56 116.0998,-42.2225 130.8987,-31.7294 144.7202,-24.2693"/>
<polygon fill="#191970" stroke="#191970" points="146.6834,-27.2001 154.0507,-19.5861 143.5433,-20.944 146.6834,-27.2001"/>
</g>
<!-- Node24&#45;&gt;Node18 -->
<g id="edge33" class="edge">
<title>Node24&#45;&gt;Node18</title>
<path fill="none" stroke="#191970" d="M176.5214,-112.8688C179.3823,-112.571 182.2153,-112.2805 185,-112 367.8426,-93.5804 587.5276,-75.2601 668.7651,-68.6146"/>
<polygon fill="#191970" stroke="#191970" points="669.172,-72.0931 678.8541,-67.7911 668.6025,-65.1163 669.172,-72.0931"/>
</g>
<!-- Node24&#45;&gt;Node19 -->
<g id="edge35" class="edge">
<title>Node24&#45;&gt;Node19</title>
<path fill="none" stroke="#191970" d="M104.361,-112.2455C111.175,-104.2958 120.9681,-92.8706 129.1152,-83.3656"/>
<polygon fill="#191970" stroke="#191970" points="131.8843,-85.513 135.7349,-75.6427 126.5695,-80.9575 131.8843,-85.513"/>
</g>
<!-- Node24&#45;&gt;Node20 -->
<g id="edge32" class="edge">
<title>Node24&#45;&gt;Node20</title>
<path fill="none" stroke="#191970" d="M116.4568,-112.3733C135.4738,-103.4241 164.0175,-89.9917 185.4976,-79.8835"/>
<polygon fill="#191970" stroke="#191970" points="187.2522,-82.926 194.8101,-75.5011 184.2716,-76.5923 187.2522,-82.926"/>
</g>
<!-- Node25 -->
<g id="node26" class="node">
<title>Node25</title>
<polygon fill="none" stroke="#bfbfbf" points="0,-56.5 0,-75.5 60,-75.5 60,-56.5 0,-56.5"/>
<text text-anchor="middle" x="30" y="-63.5" font-family="FreeSans.ttf" font-size="10.00" fill="#000000">iostream</text>
</g>
<!-- Node24&#45;&gt;Node25 -->
<g id="edge34" class="edge">
<title>Node24&#45;&gt;Node25</title>
<path fill="none" stroke="#191970" d="M84.5037,-112.2455C74.7558,-103.9746 60.5741,-91.9416 49.1202,-82.2232"/>
<polygon fill="#191970" stroke="#191970" points="51.2541,-79.4437 41.3646,-75.6427 46.7253,-84.7813 51.2541,-79.4437"/>
</g>
<!-- Node26&#45;&gt;Node18 -->
<g id="edge43" class="edge">
<title>Node26&#45;&gt;Node18</title>
<path fill="none" stroke="#191970" d="M845.5965,-448.452C918.9198,-431.1216 1059,-391.994 1059,-346 1059,-346 1059,-346 1059,-178 1059,-128.038 1014.0365,-131.4123 968,-112 926.0913,-94.3282 795.1325,-77.1052 733.5807,-69.7376"/>
<polygon fill="#191970" stroke="#191970" points="733.6205,-66.218 723.2786,-68.5191 732.7983,-73.1696 733.6205,-66.218"/>
</g>
<!-- Node27 -->
<g id="node28" class="node">
<title>Node27</title>
<polygon fill="none" stroke="#bfbfbf" points="983.5,-336.5 983.5,-355.5 1030.5,-355.5 1030.5,-336.5 983.5,-336.5"/>
<text text-anchor="middle" x="1007" y="-343.5" font-family="FreeSans.ttf" font-size="10.00" fill="#000000">vector</text>
</g>
<!-- Node26&#45;&gt;Node27 -->
<g id="edge44" class="edge">
<title>Node26&#45;&gt;Node27</title>
<path fill="none" stroke="#191970" d="M821.9323,-448.497C840.6972,-439.4418 869.5012,-425.2611 894,-412 925.082,-395.1754 960.1164,-374.4266 982.8217,-360.7358"/>
<polygon fill="#191970" stroke="#191970" points="984.7182,-363.6791 991.4618,-355.5076 981.0942,-357.6902 984.7182,-363.6791"/>
</g>
<!-- Node28 -->
<g id="node29" class="node">
<title>Node28</title>
<g id="a_node29"><a xlink:href="ConvexHullHelpers_8h.html" target="_top" xlink:title="iDynTree/ConvexHullHelpers.h">
<polygon fill="none" stroke="#000000" points="719.5,-392.5 719.5,-411.5 884.5,-411.5 884.5,-392.5 719.5,-392.5"/>
<text text-anchor="middle" x="802" y="-399.5" font-family="FreeSans.ttf" font-size="10.00" fill="#000000">iDynTree/ConvexHullHelpers.h</text>
</a>
</g>
</g>
<!-- Node26&#45;&gt;Node28 -->
<g id="edge45" class="edge">
<title>Node26&#45;&gt;Node28</title>
<path fill="none" stroke="#191970" d="M802,-448.2455C802,-440.9382 802,-430.6944 802,-421.7046"/>
<polygon fill="#191970" stroke="#191970" points="805.5001,-421.6426 802,-411.6427 798.5001,-421.6427 805.5001,-421.6426"/>
</g>
<!-- Node31 -->
<g id="node32" class="node">
<title>Node31</title>
<g id="a_node32"><a xlink:href="Direction_8h.html" target="_top" xlink:title="iDynTree/Core/Direction.h">
<polygon fill="none" stroke="#000000" points="474.5,-168.5 474.5,-187.5 615.5,-187.5 615.5,-168.5 474.5,-168.5"/>
<text text-anchor="middle" x="545" y="-175.5" font-family="FreeSans.ttf" font-size="10.00" fill="#000000">iDynTree/Core/Direction.h</text>
</a>
</g>
</g>
<!-- Node26&#45;&gt;Node31 -->
<g id="edge55" class="edge">
<title>Node26&#45;&gt;Node31</title>
<path fill="none" stroke="#191970" d="M744.7354,-448.4362C658.4307,-432.3772 505,-396.6984 505,-346 505,-346 505,-346 505,-290 505,-255.4432 522.097,-218.1996 533.9358,-196.5529"/>
<polygon fill="#191970" stroke="#191970" points="537.0287,-198.1941 538.9249,-187.7703 530.9422,-194.7365 537.0287,-198.1941"/>
</g>
<!-- Node28&#45;&gt;Node2 -->
<g id="edge51" class="edge">
<title>Node28&#45;&gt;Node2</title>
<path fill="none" stroke="#191970" d="M768.3064,-392.3733C735.2913,-382.9404 684.8427,-368.5265 648.9614,-358.2747"/>
<polygon fill="#191970" stroke="#191970" points="649.8307,-354.8831 639.2539,-355.5011 647.9076,-361.6137 649.8307,-354.8831"/>
</g>
<!-- Node28&#45;&gt;Node3 -->
<g id="edge50" class="edge">
<title>Node28&#45;&gt;Node3</title>
<path fill="none" stroke="#191970" d="M796.7139,-392.4509C786.4188,-373.8533 763.5223,-332.4919 750.1837,-308.3964"/>
<polygon fill="#191970" stroke="#191970" points="753.178,-306.5787 745.2727,-299.5249 747.0538,-309.969 753.178,-306.5787"/>
</g>
<!-- Node28&#45;&gt;Node18 -->
<g id="edge46" class="edge">
<title>Node28&#45;&gt;Node18</title>
<path fill="none" stroke="#191970" d="M841.39,-392.4292C887.0089,-379.2984 961.2249,-351.2679 1003,-300 1022.2062,-276.4295 1021,-264.4047 1021,-234 1021,-234 1021,-234 1021,-178 1021,-117.5147 814.7525,-81.9607 733.4176,-70.2913"/>
<polygon fill="#191970" stroke="#191970" points="733.6372,-66.7879 723.2477,-68.8639 732.6641,-73.72 733.6372,-66.7879"/>
</g>
<!-- Node28&#45;&gt;Node27 -->
<g id="edge47" class="edge">
<title>Node28&#45;&gt;Node27</title>
<path fill="none" stroke="#191970" d="M837.2408,-392.3733C875.4342,-381.9399 935.9346,-365.413 973.4528,-355.1641"/>
<polygon fill="#191970" stroke="#191970" points="974.6635,-358.4617 983.3878,-352.4502 972.8189,-351.7091 974.6635,-358.4617"/>
</g>
<!-- Node29 -->
<g id="node30" class="node">
<title>Node29</title>
<g id="a_node30"><a xlink:href="MatrixDynSize_8h.html" target="_top" xlink:title="iDynTree/Core/MatrixDynSize.h">
<polygon fill="none" stroke="#000000" points="826.5,-280.5 826.5,-299.5 993.5,-299.5 993.5,-280.5 826.5,-280.5"/>
<text text-anchor="middle" x="910" y="-287.5" font-family="FreeSans.ttf" font-size="10.00" fill="#000000">iDynTree/Core/MatrixDynSize.h</text>
</a>
</g>
</g>
<!-- Node28&#45;&gt;Node29 -->
<g id="edge48" class="edge">
<title>Node28&#45;&gt;Node29</title>
<path fill="none" stroke="#191970" d="M811.208,-392.4509C829.5399,-373.4401 870.8092,-330.6423 893.7845,-306.816"/>
<polygon fill="#191970" stroke="#191970" points="896.3934,-309.1528 900.8153,-299.5249 891.3544,-304.2939 896.3934,-309.1528"/>
</g>
<!-- Node30 -->
<g id="node31" class="node">
<title>Node30</title>
<g id="a_node31"><a xlink:href="VectorDynSize_8h.html" target="_top" xlink:title="iDynTree/Core/VectorDynSize.h">
<polygon fill="none" stroke="#000000" points="411.5,-112.5 411.5,-131.5 578.5,-131.5 578.5,-112.5 411.5,-112.5"/>
<text text-anchor="middle" x="495" y="-119.5" font-family="FreeSans.ttf" font-size="10.00" fill="#000000">iDynTree/Core/VectorDynSize.h</text>
</a>
</g>
</g>
<!-- Node28&#45;&gt;Node30 -->
<g id="edge52" class="edge">
<title>Node28&#45;&gt;Node30</title>
<path fill="none" stroke="#191970" d="M781.4319,-392.4339C750.9582,-377.2062 694.0784,-344.5595 663,-300 628.076,-249.9268 666.8586,-212.4395 625,-168 609.6975,-151.754 588.3011,-141.2401 567.2781,-134.4379"/>
<polygon fill="#191970" stroke="#191970" points="568.2519,-131.076 557.6685,-131.5665 566.2478,-137.783 568.2519,-131.076"/>
</g>
<!-- Node29&#45;&gt;Node18 -->
<g id="edge49" class="edge">
<title>Node29&#45;&gt;Node18</title>
<path fill="none" stroke="#191970" d="M914.7971,-280.4839C924.6938,-259.4912 945.2231,-207.9069 930,-168 918.1079,-136.8253 908.5019,-129.3471 880,-112 833.9742,-83.9873 771.3109,-72.932 733.6406,-68.6408"/>
<polygon fill="#191970" stroke="#191970" points="733.5648,-65.114 723.2557,-67.5579 732.8387,-72.0762 733.5648,-65.114"/>
</g>
<!-- Node30&#45;&gt;Node9 -->
<g id="edge53" class="edge">
<title>Node30&#45;&gt;Node9</title>
<path fill="none" stroke="#191970" d="M496.2193,-112.2455C497.1327,-104.9382 498.4132,-94.6944 499.5369,-85.7046"/>
<polygon fill="#191970" stroke="#191970" points="503.0272,-85.9996 500.7947,-75.6427 496.0813,-85.1313 503.0272,-85.9996"/>
</g>
<!-- Node30&#45;&gt;Node18 -->
<g id="edge54" class="edge">
<title>Node30&#45;&gt;Node18</title>
<path fill="none" stroke="#191970" d="M530.4127,-112.3733C569.3182,-101.797 631.2578,-84.959 668.8254,-74.7465"/>
<polygon fill="#191970" stroke="#191970" points="670.004,-78.0532 678.7357,-72.0524 668.1677,-71.2983 670.004,-78.0532"/>
</g>
<!-- Node31&#45;&gt;Node5 -->
<g id="edge57" class="edge">
<title>Node31&#45;&gt;Node5</title>
<path fill="none" stroke="#191970" d="M498.8921,-168.4369C452.3925,-158.7925 380.5641,-143.8948 330.86,-133.5858"/>
<polygon fill="#191970" stroke="#191970" points="331.4201,-130.1275 320.9177,-131.5237 329.9985,-136.9817 331.4201,-130.1275"/>
</g>
<!-- Node31&#45;&gt;Node6 -->
<g id="edge58" class="edge">
<title>Node31&#45;&gt;Node6</title>
<path fill="none" stroke="#191970" d="M488.9326,-168.4985C461.1207,-161.7368 428.1834,-150.4631 403,-132 386.2243,-119.7009 373.1469,-99.5888 365.0927,-84.7936"/>
<polygon fill="#191970" stroke="#191970" points="368.0274,-82.8476 360.3355,-75.5616 361.8049,-86.054 368.0274,-82.8476"/>
</g>
<!-- Node31&#45;&gt;Node18 -->
<g id="edge56" class="edge">
<title>Node31&#45;&gt;Node18</title>
<path fill="none" stroke="#191970" d="M562.0935,-168.3929C577.5697,-159.4911 600.8132,-145.6091 620,-132 642.301,-116.182 666.4207,-96.1111 682.4866,-82.2788"/>
<polygon fill="#191970" stroke="#191970" points="684.8435,-84.8676 690.1016,-75.6696 680.2552,-79.5811 684.8435,-84.8676"/>
</g>
</g>
</svg>
