<?xml version="1.0" encoding="UTF-8" standalone="no"?>
<!DOCTYPE svg PUBLIC "-//W3C//DTD SVG 1.1//EN"
 "http://www.w3.org/Graphics/SVG/1.1/DTD/svg11.dtd">
<!-- Generated by graphviz version 2.40.1 (20161225.0304)
 -->
<!-- Title: TransformConstraint.h Pages: 1 -->
<svg width="1101pt" height="532pt"
 viewBox="0.00 0.00 1100.50 532.00" xmlns="http://www.w3.org/2000/svg" xmlns:xlink="http://www.w3.org/1999/xlink">
<g id="graph0" class="graph" transform="scale(1 1) rotate(0) translate(4 528)">
<title>TransformConstraint.h</title>
<!-- Node0 -->
<g id="node1" class="node">
<title>Node0</title>
<polygon fill="#bfbfbf" stroke="#000000" points="491,-504.5 491,-523.5 616,-523.5 616,-504.5 491,-504.5"/>
<text text-anchor="middle" x="553.5" y="-511.5" font-family="FreeSans.ttf" font-size="10.00" fill="#000000">TransformConstraint.h</text>
</g>
<!-- Node1 -->
<g id="node2" class="node">
<title>Node1</title>
<g id="a_node2"><a xlink:href="Transform_8h.html" target="_top" xlink:title="iDynTree/Core/Transform.h">
<polygon fill="none" stroke="#000000" points="533.5,-336.5 533.5,-355.5 679.5,-355.5 679.5,-336.5 533.5,-336.5"/>
<text text-anchor="middle" x="606.5" y="-343.5" font-family="FreeSans.ttf" font-size="10.00" fill="#000000">iDynTree/Core/Transform.h</text>
</a>
</g>
</g>
<!-- Node0&#45;&gt;Node1 -->
<g id="edge1" class="edge">
<title>Node0&#45;&gt;Node1</title>
<path fill="none" stroke="#191970" d="M556.5014,-504.4862C564.9157,-477.8144 588.8612,-401.9117 600.2867,-365.695"/>
<polygon fill="#191970" stroke="#191970" points="603.7287,-366.4176 603.3995,-355.8279 597.053,-364.3115 603.7287,-366.4176"/>
</g>
<!-- Node25 -->
<g id="node26" class="node">
<title>Node25</title>
<g id="a_node26"><a xlink:href="InverseKinematics_8h.html" target="_top" xlink:title="iDynTree/InverseKinematics.h">
<polygon fill="none" stroke="#000000" points="775.5,-448.5 775.5,-467.5 937.5,-467.5 937.5,-448.5 775.5,-448.5"/>
<text text-anchor="middle" x="856.5" y="-455.5" font-family="FreeSans.ttf" font-size="10.00" fill="#000000">iDynTree/InverseKinematics.h</text>
</a>
</g>
</g>
<!-- Node0&#45;&gt;Node25 -->
<g id="edge41" class="edge">
<title>Node0&#45;&gt;Node25</title>
<path fill="none" stroke="#191970" d="M605.2433,-504.4369C657.753,-494.7321 739.0444,-479.708 794.8577,-469.3926"/>
<polygon fill="#191970" stroke="#191970" points="795.7728,-472.7829 804.9701,-467.5237 794.5006,-465.8994 795.7728,-472.7829"/>
</g>
<!-- Node2 -->
<g id="node3" class="node">
<title>Node2</title>
<g id="a_node3"><a xlink:href="Position_8h.html" target="_top" xlink:title="iDynTree/Core/Position.h">
<polygon fill="none" stroke="#000000" points="668.5,-280.5 668.5,-299.5 804.5,-299.5 804.5,-280.5 668.5,-280.5"/>
<text text-anchor="middle" x="736.5" y="-287.5" font-family="FreeSans.ttf" font-size="10.00" fill="#000000">iDynTree/Core/Position.h</text>
</a>
</g>
</g>
<!-- Node1&#45;&gt;Node2 -->
<g id="edge2" class="edge">
<title>Node1&#45;&gt;Node2</title>
<path fill="none" stroke="#191970" d="M628.8478,-336.3733C649.9033,-327.3032 681.6495,-313.6279 705.2175,-303.4755"/>
<polygon fill="#191970" stroke="#191970" points="706.6444,-306.6719 714.4438,-299.5011 703.875,-300.243 706.6444,-306.6719"/>
</g>
<!-- Node17 -->
<g id="node18" class="node">
<title>Node17</title>
<polygon fill="none" stroke="#bfbfbf" points="691.5,-56.5 691.5,-75.5 735.5,-75.5 735.5,-56.5 691.5,-56.5"/>
<text text-anchor="middle" x="713.5" y="-63.5" font-family="FreeSans.ttf" font-size="10.00" fill="#000000">string</text>
</g>
<!-- Node1&#45;&gt;Node17 -->
<g id="edge40" class="edge">
<title>Node1&#45;&gt;Node17</title>
<path fill="none" stroke="#191970" d="M611.5168,-336.4109C620.9745,-317.4144 640.5,-273.4221 640.5,-234 640.5,-234 640.5,-234 640.5,-178 640.5,-147.4754 642.957,-137.6531 659.5,-112 667.113,-100.1946 678.6621,-89.7772 689.1284,-81.8546"/>
<polygon fill="#191970" stroke="#191970" points="691.4691,-84.4829 697.5553,-75.8106 687.3893,-78.7947 691.4691,-84.4829"/>
</g>
<!-- Node20 -->
<g id="node21" class="node">
<title>Node20</title>
<g id="a_node21"><a xlink:href="Rotation_8h.html" target="_top" xlink:title="iDynTree/Core/Rotation.h">
<polygon fill="none" stroke="#000000" points="451,-224.5 451,-243.5 588,-243.5 588,-224.5 451,-224.5"/>
<text text-anchor="middle" x="519.5" y="-231.5" font-family="FreeSans.ttf" font-size="10.00" fill="#000000">iDynTree/Core/Rotation.h</text>
</a>
</g>
</g>
<!-- Node1&#45;&gt;Node20 -->
<g id="edge38" class="edge">
<title>Node1&#45;&gt;Node20</title>
<path fill="none" stroke="#191970" d="M599.0824,-336.4509C584.4435,-317.6054 551.6472,-275.3849 533.0486,-251.4419"/>
<polygon fill="#191970" stroke="#191970" points="535.7974,-249.2751 526.8988,-243.5249 530.2693,-253.5693 535.7974,-249.2751"/>
</g>
<!-- Node23 -->
<g id="node24" class="node">
<title>Node23</title>
<g id="a_node24"><a xlink:href="MatrixFixSize_8h.html" target="_top" xlink:title="iDynTree/Core/MatrixFixSize.h">
<polygon fill="none" stroke="#000000" points="337,-112.5 337,-131.5 498,-131.5 498,-112.5 337,-112.5"/>
<text text-anchor="middle" x="417.5" y="-119.5" font-family="FreeSans.ttf" font-size="10.00" fill="#000000">iDynTree/Core/MatrixFixSize.h</text>
</a>
</g>
</g>
<!-- Node1&#45;&gt;Node23 -->
<g id="edge39" class="edge">
<title>Node1&#45;&gt;Node23</title>
<path fill="none" stroke="#191970" d="M584.6946,-336.4206C551.076,-320.8396 485.9354,-287.3402 442.5,-244 421.7235,-223.2691 415.5913,-216.2128 407.5,-188 403.0631,-172.5293 406.3829,-154.4209 410.3494,-141.0894"/>
<polygon fill="#191970" stroke="#191970" points="413.6827,-142.1573 413.5333,-131.5635 407.0437,-139.9383 413.6827,-142.1573"/>
</g>
<!-- Node3 -->
<g id="node4" class="node">
<title>Node3</title>
<g id="a_node4"><a xlink:href="PositionRaw_8h.html" target="_top" xlink:title="iDynTree/Core/PositionRaw.h">
<polygon fill="none" stroke="#000000" points="668.5,-168.5 668.5,-187.5 824.5,-187.5 824.5,-168.5 668.5,-168.5"/>
<text text-anchor="middle" x="746.5" y="-175.5" font-family="FreeSans.ttf" font-size="10.00" fill="#000000">iDynTree/Core/PositionRaw.h</text>
</a>
</g>
</g>
<!-- Node2&#45;&gt;Node3 -->
<g id="edge3" class="edge">
<title>Node2&#45;&gt;Node3</title>
<path fill="none" stroke="#191970" d="M737.3526,-280.4509C738.9836,-262.184 742.5754,-221.9553 744.7413,-197.6976"/>
<polygon fill="#191970" stroke="#191970" points="748.2463,-197.7966 745.6496,-187.5249 741.274,-197.174 748.2463,-197.7966"/>
</g>
<!-- Node2&#45;&gt;Node17 -->
<g id="edge37" class="edge">
<title>Node2&#45;&gt;Node17</title>
<path fill="none" stroke="#191970" d="M752.5256,-280.4251C795.5029,-253.5548 907.0011,-175.2761 860.5,-112 846.7993,-93.3568 784.4591,-78.9002 745.4924,-71.4881"/>
<polygon fill="#191970" stroke="#191970" points="746.1267,-68.0461 735.6573,-69.6718 744.8554,-74.9297 746.1267,-68.0461"/>
</g>
<!-- Node2&#45;&gt;Node20 -->
<g id="edge23" class="edge">
<title>Node2&#45;&gt;Node20</title>
<path fill="none" stroke="#191970" d="M699.1964,-280.3733C662.3315,-270.8598 605.834,-256.2797 566.0494,-246.0127"/>
<polygon fill="#191970" stroke="#191970" points="566.8742,-242.611 556.3169,-243.5011 565.125,-249.3889 566.8742,-242.611"/>
</g>
<!-- Node4 -->
<g id="node5" class="node">
<title>Node4</title>
<g id="a_node5"><a xlink:href="VectorFixSize_8h.html" target="_top" xlink:title="iDynTree/Core/VectorFixSize.h">
<polygon fill="none" stroke="#000000" points="158,-112.5 158,-131.5 319,-131.5 319,-112.5 158,-112.5"/>
<text text-anchor="middle" x="238.5" y="-119.5" font-family="FreeSans.ttf" font-size="10.00" fill="#000000">iDynTree/Core/VectorFixSize.h</text>
</a>
</g>
</g>
<!-- Node3&#45;&gt;Node4 -->
<g id="edge4" class="edge">
<title>Node3&#45;&gt;Node4</title>
<path fill="none" stroke="#191970" d="M668.4978,-169.4965C586.5666,-160.5509 453.6544,-146.0007 329.1267,-132.1787"/>
<polygon fill="#191970" stroke="#191970" points="329.3544,-128.6826 319.0292,-131.0575 328.5818,-135.6398 329.3544,-128.6826"/>
</g>
<!-- Node3&#45;&gt;Node17 -->
<g id="edge22" class="edge">
<title>Node3&#45;&gt;Node17</title>
<path fill="none" stroke="#191970" d="M785.5139,-168.4138C820.4518,-157.8642 863.4774,-138.7772 844.5,-112 832.8293,-95.5326 780.3672,-80.9248 745.4775,-72.7908"/>
<polygon fill="#191970" stroke="#191970" points="746.2418,-69.3753 735.7152,-70.5757 744.6928,-76.2018 746.2418,-69.3753"/>
</g>
<!-- Node5 -->
<g id="node6" class="node">
<title>Node5</title>
<g id="a_node6"><a xlink:href="Utils_8h.html" target="_top" xlink:title="iDynTree/Core/Utils.h">
<polygon fill="none" stroke="#000000" points="80,-56.5 80,-75.5 199,-75.5 199,-56.5 80,-56.5"/>
<text text-anchor="middle" x="139.5" y="-63.5" font-family="FreeSans.ttf" font-size="10.00" fill="#000000">iDynTree/Core/Utils.h</text>
</a>
</g>
</g>
<!-- Node4&#45;&gt;Node5 -->
<g id="edge5" class="edge">
<title>Node4&#45;&gt;Node5</title>
<path fill="none" stroke="#191970" d="M221.2555,-112.2455C205.9239,-103.5731 183.2801,-90.7645 165.7084,-80.825"/>
<polygon fill="#191970" stroke="#191970" points="166.9741,-77.5198 156.5469,-75.6427 163.5276,-83.6126 166.9741,-77.5198"/>
</g>
<!-- Node8 -->
<g id="node9" class="node">
<title>Node8</title>
<g id="a_node9"><a xlink:href="Span_8h.html" target="_top" xlink:title="iDynTree/Core/Span.h">
<polygon fill="none" stroke="#000000" points="514,-56.5 514,-75.5 635,-75.5 635,-56.5 514,-56.5"/>
<text text-anchor="middle" x="574.5" y="-63.5" font-family="FreeSans.ttf" font-size="10.00" fill="#000000">iDynTree/Core/Span.h</text>
</a>
</g>
</g>
<!-- Node4&#45;&gt;Node8 -->
<g id="edge8" class="edge">
<title>Node4&#45;&gt;Node8</title>
<path fill="none" stroke="#191970" d="M295.8787,-112.4369C354.4697,-102.6717 445.3756,-87.5207 507.2966,-77.2006"/>
<polygon fill="#191970" stroke="#191970" points="508.0695,-80.6201 517.358,-75.5237 506.9186,-73.7154 508.0695,-80.6201"/>
</g>
<!-- Node9 -->
<g id="node10" class="node">
<title>Node9</title>
<polygon fill="none" stroke="#bfbfbf" points="308.5,-.5 308.5,-19.5 360.5,-19.5 360.5,-.5 308.5,-.5"/>
<text text-anchor="middle" x="334.5" y="-7.5" font-family="FreeSans.ttf" font-size="10.00" fill="#000000">cassert</text>
</g>
<!-- Node4&#45;&gt;Node9 -->
<g id="edge20" class="edge">
<title>Node4&#45;&gt;Node9</title>
<path fill="none" stroke="#191970" d="M237.0216,-112.0591C235.5129,-98.2067 234.8168,-72.8998 246.5,-56 258.7985,-38.2102 280.1764,-26.8093 298.7815,-19.8078"/>
<polygon fill="#191970" stroke="#191970" points="300.1732,-23.0297 308.4753,-16.4475 297.8806,-16.4158 300.1732,-23.0297"/>
</g>
<!-- Node4&#45;&gt;Node17 -->
<g id="edge18" class="edge">
<title>Node4&#45;&gt;Node17</title>
<path fill="none" stroke="#191970" d="M319.4689,-112.8915C433.3002,-100.0768 628.6265,-78.049 644.5,-76 656.5404,-74.4458 669.7374,-72.5745 681.3367,-70.8731"/>
<polygon fill="#191970" stroke="#191970" points="682.0822,-74.3009 691.4609,-69.3723 681.0558,-67.3766 682.0822,-74.3009"/>
</g>
<!-- Node18 -->
<g id="node19" class="node">
<title>Node18</title>
<polygon fill="none" stroke="#bfbfbf" points="323.5,-56.5 323.5,-75.5 379.5,-75.5 379.5,-56.5 323.5,-56.5"/>
<text text-anchor="middle" x="351.5" y="-63.5" font-family="FreeSans.ttf" font-size="10.00" fill="#000000">sstream</text>
</g>
<!-- Node4&#45;&gt;Node18 -->
<g id="edge19" class="edge">
<title>Node4&#45;&gt;Node18</title>
<path fill="none" stroke="#191970" d="M257.9254,-112.3733C275.9021,-103.4644 302.8441,-90.1127 323.209,-80.0203"/>
<polygon fill="#191970" stroke="#191970" points="324.9222,-83.0776 332.3281,-75.5011 321.8139,-76.8055 324.9222,-83.0776"/>
</g>
<!-- Node19 -->
<g id="node20" class="node">
<title>Node19</title>
<polygon fill="none" stroke="#bfbfbf" points="255.5,-56.5 255.5,-75.5 305.5,-75.5 305.5,-56.5 255.5,-56.5"/>
<text text-anchor="middle" x="280.5" y="-63.5" font-family="FreeSans.ttf" font-size="10.00" fill="#000000">cstring</text>
</g>
<!-- Node4&#45;&gt;Node19 -->
<g id="edge21" class="edge">
<title>Node4&#45;&gt;Node19</title>
<path fill="none" stroke="#191970" d="M245.8158,-112.2455C251.7179,-104.3761 260.1742,-93.101 267.2594,-83.6542"/>
<polygon fill="#191970" stroke="#191970" points="270.068,-85.7427 273.268,-75.6427 264.4679,-81.5427 270.068,-85.7427"/>
</g>
<!-- Node6 -->
<g id="node7" class="node">
<title>Node6</title>
<polygon fill="none" stroke="#bfbfbf" points="224,-.5 224,-19.5 277,-19.5 277,-.5 224,-.5"/>
<text text-anchor="middle" x="250.5" y="-7.5" font-family="FreeSans.ttf" font-size="10.00" fill="#000000">cstddef</text>
</g>
<!-- Node5&#45;&gt;Node6 -->
<g id="edge6" class="edge">
<title>Node5&#45;&gt;Node6</title>
<path fill="none" stroke="#191970" d="M158.5816,-56.3733C176.2402,-47.4644 202.7053,-34.1127 222.7098,-24.0203"/>
<polygon fill="#191970" stroke="#191970" points="224.3158,-27.1303 231.6674,-19.5011 221.1628,-20.8806 224.3158,-27.1303"/>
</g>
<!-- Node7 -->
<g id="node8" class="node">
<title>Node7</title>
<polygon fill="none" stroke="#bfbfbf" points="99.5,-.5 99.5,-19.5 179.5,-19.5 179.5,-.5 99.5,-.5"/>
<text text-anchor="middle" x="139.5" y="-7.5" font-family="FreeSans.ttf" font-size="10.00" fill="#000000">CoreExport.h</text>
</g>
<!-- Node5&#45;&gt;Node7 -->
<g id="edge7" class="edge">
<title>Node5&#45;&gt;Node7</title>
<path fill="none" stroke="#191970" d="M139.5,-56.2455C139.5,-48.9382 139.5,-38.6944 139.5,-29.7046"/>
<polygon fill="#191970" stroke="#191970" points="143.0001,-29.6426 139.5,-19.6427 136.0001,-29.6427 143.0001,-29.6426"/>
</g>
<!-- Node8&#45;&gt;Node6 -->
<g id="edge12" class="edge">
<title>Node8&#45;&gt;Node6</title>
<path fill="none" stroke="#191970" d="M513.7677,-56.4773C457.972,-47.5776 373.0319,-33.6487 299.5,-20 295.5319,-19.2635 291.3892,-18.4647 287.2663,-17.6506"/>
<polygon fill="#191970" stroke="#191970" points="287.6623,-14.1603 277.1688,-15.622 286.2835,-21.0231 287.6623,-14.1603"/>
</g>
<!-- Node8&#45;&gt;Node9 -->
<g id="edge9" class="edge">
<title>Node8&#45;&gt;Node9</title>
<path fill="none" stroke="#191970" d="M529.3777,-56.4919C487.9398,-47.6023 424.8989,-33.6798 370.5,-20 370.4017,-19.9753 370.3033,-19.9505 370.2047,-19.9256"/>
<polygon fill="#191970" stroke="#191970" points="371.3666,-16.6119 360.8064,-17.4681 369.5957,-23.3841 371.3666,-16.6119"/>
</g>
<!-- Node10 -->
<g id="node11" class="node">
<title>Node10</title>
<polygon fill="none" stroke="#bfbfbf" points="529.5,-.5 529.5,-19.5 593.5,-19.5 593.5,-.5 529.5,-.5"/>
<text text-anchor="middle" x="561.5" y="-7.5" font-family="FreeSans.ttf" font-size="10.00" fill="#000000">algorithm</text>
</g>
<!-- Node8&#45;&gt;Node10 -->
<g id="edge10" class="edge">
<title>Node8&#45;&gt;Node10</title>
<path fill="none" stroke="#191970" d="M572.2356,-56.2455C570.5206,-48.8579 568.1088,-38.4689 566.0056,-29.4087"/>
<polygon fill="#191970" stroke="#191970" points="569.4092,-28.5922 563.7385,-19.6427 562.5905,-30.1751 569.4092,-28.5922"/>
</g>
<!-- Node11 -->
<g id="node12" class="node">
<title>Node11</title>
<polygon fill="none" stroke="#bfbfbf" points="611.5,-.5 611.5,-19.5 653.5,-19.5 653.5,-.5 611.5,-.5"/>
<text text-anchor="middle" x="632.5" y="-7.5" font-family="FreeSans.ttf" font-size="10.00" fill="#000000">array</text>
</g>
<!-- Node8&#45;&gt;Node11 -->
<g id="edge11" class="edge">
<title>Node8&#45;&gt;Node11</title>
<path fill="none" stroke="#191970" d="M584.6028,-56.2455C593.0028,-48.1352 605.1494,-36.4075 615.1084,-26.7919"/>
<polygon fill="#191970" stroke="#191970" points="617.75,-29.1066 622.5129,-19.6427 612.8878,-24.0707 617.75,-29.1066"/>
</g>
<!-- Node12 -->
<g id="node13" class="node">
<title>Node12</title>
<polygon fill="none" stroke="#bfbfbf" points="672,-.5 672,-19.5 725,-19.5 725,-.5 672,-.5"/>
<text text-anchor="middle" x="698.5" y="-7.5" font-family="FreeSans.ttf" font-size="10.00" fill="#000000">iterator</text>
</g>
<!-- Node8&#45;&gt;Node12 -->
<g id="edge13" class="edge">
<title>Node8&#45;&gt;Node12</title>
<path fill="none" stroke="#191970" d="M595.8164,-56.3733C615.7216,-47.3838 645.6436,-33.8706 668.06,-23.7471"/>
<polygon fill="#191970" stroke="#191970" points="669.7887,-26.8068 677.4618,-19.5011 666.9075,-20.4272 669.7887,-26.8068"/>
</g>
<!-- Node13 -->
<g id="node14" class="node">
<title>Node13</title>
<polygon fill="none" stroke="#bfbfbf" points="743.5,-.5 743.5,-19.5 787.5,-19.5 787.5,-.5 743.5,-.5"/>
<text text-anchor="middle" x="765.5" y="-7.5" font-family="FreeSans.ttf" font-size="10.00" fill="#000000">limits</text>
</g>
<!-- Node8&#45;&gt;Node13 -->
<g id="edge14" class="edge">
<title>Node8&#45;&gt;Node13</title>
<path fill="none" stroke="#191970" d="M608.9263,-56.447C639.3632,-47.9247 685.1931,-34.9076 733.4879,-20.2486"/>
<polygon fill="#191970" stroke="#191970" points="734.6308,-23.5593 743.1759,-17.2958 732.5899,-16.8634 734.6308,-23.5593"/>
</g>
<!-- Node14 -->
<g id="node15" class="node">
<title>Node14</title>
<polygon fill="none" stroke="#bfbfbf" points="806,-.5 806,-19.5 871,-19.5 871,-.5 806,-.5"/>
<text text-anchor="middle" x="838.5" y="-7.5" font-family="FreeSans.ttf" font-size="10.00" fill="#000000">stdexcept</text>
</g>
<!-- Node8&#45;&gt;Node14 -->
<g id="edge15" class="edge">
<title>Node8&#45;&gt;Node14</title>
<path fill="none" stroke="#191970" d="M622.6565,-56.4468C665.4844,-47.855 730.0687,-34.6652 795.8287,-20.1003"/>
<polygon fill="#191970" stroke="#191970" points="796.9607,-23.4342 805.9625,-17.8468 795.4411,-16.6011 796.9607,-23.4342"/>
</g>
<!-- Node15 -->
<g id="node16" class="node">
<title>Node15</title>
<polygon fill="none" stroke="#bfbfbf" points="379,-.5 379,-19.5 448,-19.5 448,-.5 379,-.5"/>
<text text-anchor="middle" x="413.5" y="-7.5" font-family="FreeSans.ttf" font-size="10.00" fill="#000000">type_traits</text>
</g>
<!-- Node8&#45;&gt;Node15 -->
<g id="edge16" class="edge">
<title>Node8&#45;&gt;Node15</title>
<path fill="none" stroke="#191970" d="M546.8231,-56.3733C520.1672,-47.1016 479.6762,-33.0178 450.3116,-22.804"/>
<polygon fill="#191970" stroke="#191970" points="451.4105,-19.4807 440.8157,-19.5011 449.1109,-26.0921 451.4105,-19.4807"/>
</g>
<!-- Node16 -->
<g id="node17" class="node">
<title>Node16</title>
<polygon fill="none" stroke="#bfbfbf" points="466,-.5 466,-19.5 511,-19.5 511,-.5 466,-.5"/>
<text text-anchor="middle" x="488.5" y="-7.5" font-family="FreeSans.ttf" font-size="10.00" fill="#000000">utility</text>
</g>
<!-- Node8&#45;&gt;Node16 -->
<g id="edge17" class="edge">
<title>Node8&#45;&gt;Node16</title>
<path fill="none" stroke="#191970" d="M559.5199,-56.2455C546.3249,-47.6534 526.8949,-35.0014 511.6921,-25.1018"/>
<polygon fill="#191970" stroke="#191970" points="513.5983,-22.1665 503.3084,-19.6427 509.7785,-28.0325 513.5983,-22.1665"/>
</g>
<!-- Node20&#45;&gt;Node4 -->
<g id="edge36" class="edge">
<title>Node20&#45;&gt;Node4</title>
<path fill="none" stroke="#191970" d="M495.5421,-224.4509C445.3566,-204.4482 329.1018,-158.1117 271.7376,-135.2477"/>
<polygon fill="#191970" stroke="#191970" points="272.9825,-131.9762 262.3973,-131.5249 270.3907,-138.4787 272.9825,-131.9762"/>
</g>
<!-- Node20&#45;&gt;Node17 -->
<g id="edge24" class="edge">
<title>Node20&#45;&gt;Node17</title>
<path fill="none" stroke="#191970" d="M536.8402,-224.3953C550.6987,-216.0932 569.9762,-203.0741 583.5,-188 609.4167,-159.1123 598.6691,-139.0484 626.5,-112 642.2135,-96.7282 664.0179,-85.2131 681.8666,-77.5235"/>
<polygon fill="#191970" stroke="#191970" points="683.3905,-80.6814 691.3118,-73.6455 680.7318,-74.206 683.3905,-80.6814"/>
</g>
<!-- Node21 -->
<g id="node22" class="node">
<title>Node21</title>
<g id="a_node22"><a xlink:href="GeomVector3_8h.html" target="_top" xlink:title="iDynTree/Core/GeomVector3.h">
<polygon fill="none" stroke="#000000" points="159,-168.5 159,-187.5 322,-187.5 322,-168.5 159,-168.5"/>
<text text-anchor="middle" x="240.5" y="-175.5" font-family="FreeSans.ttf" font-size="10.00" fill="#000000">iDynTree/Core/GeomVector3.h</text>
</a>
</g>
</g>
<!-- Node20&#45;&gt;Node21 -->
<g id="edge25" class="edge">
<title>Node20&#45;&gt;Node21</title>
<path fill="none" stroke="#191970" d="M471.8552,-224.4369C423.7053,-214.7724 349.2729,-199.8326 297.9007,-189.5213"/>
<polygon fill="#191970" stroke="#191970" points="298.4415,-186.0601 287.9483,-187.5237 297.0639,-192.9232 298.4415,-186.0601"/>
</g>
<!-- Node22 -->
<g id="node23" class="node">
<title>Node22</title>
<g id="a_node23"><a xlink:href="RotationRaw_8h.html" target="_top" xlink:title="iDynTree/Core/RotationRaw.h">
<polygon fill="none" stroke="#000000" points="416.5,-168.5 416.5,-187.5 574.5,-187.5 574.5,-168.5 416.5,-168.5"/>
<text text-anchor="middle" x="495.5" y="-175.5" font-family="FreeSans.ttf" font-size="10.00" fill="#000000">iDynTree/Core/RotationRaw.h</text>
</a>
</g>
</g>
<!-- Node20&#45;&gt;Node22 -->
<g id="edge27" class="edge">
<title>Node20&#45;&gt;Node22</title>
<path fill="none" stroke="#191970" d="M515.3195,-224.2455C512.119,-216.7776 507.604,-206.2427 503.6916,-197.1137"/>
<polygon fill="#191970" stroke="#191970" points="506.7888,-195.4554 499.6326,-187.6427 500.3548,-198.2129 506.7888,-195.4554"/>
</g>
<!-- Node21&#45;&gt;Node4 -->
<g id="edge26" class="edge">
<title>Node21&#45;&gt;Node4</title>
<path fill="none" stroke="#191970" d="M240.1516,-168.2455C239.8907,-160.9382 239.5248,-150.6944 239.2037,-141.7046"/>
<polygon fill="#191970" stroke="#191970" points="242.6992,-141.5113 238.8444,-131.6427 235.7036,-141.7613 242.6992,-141.5113"/>
</g>
<!-- Node22&#45;&gt;Node17 -->
<g id="edge35" class="edge">
<title>Node22&#45;&gt;Node17</title>
<path fill="none" stroke="#191970" d="M506.8865,-168.3952C523.8019,-154.4924 556.971,-128.6114 588.5,-112 618.6618,-96.1089 655.5406,-83.2648 681.3964,-75.2286"/>
<polygon fill="#191970" stroke="#191970" points="682.5201,-78.5453 691.0688,-72.2867 680.483,-71.8482 682.5201,-78.5453"/>
</g>
<!-- Node22&#45;&gt;Node23 -->
<g id="edge28" class="edge">
<title>Node22&#45;&gt;Node23</title>
<path fill="none" stroke="#191970" d="M481.9134,-168.2455C470.1695,-159.814 452.9801,-147.4729 439.3118,-137.6598"/>
<polygon fill="#191970" stroke="#191970" points="441.0954,-134.6316 430.9309,-131.6427 437.0129,-140.3179 441.0954,-134.6316"/>
</g>
<!-- Node23&#45;&gt;Node5 -->
<g id="edge29" class="edge">
<title>Node23&#45;&gt;Node5</title>
<path fill="none" stroke="#191970" d="M370.026,-112.4369C322.0486,-102.7724 247.883,-87.8326 196.6949,-77.5213"/>
<polygon fill="#191970" stroke="#191970" points="197.2725,-74.0674 186.7782,-75.5237 195.8901,-80.9296 197.2725,-74.0674"/>
</g>
<!-- Node23&#45;&gt;Node9 -->
<g id="edge30" class="edge">
<title>Node23&#45;&gt;Node9</title>
<path fill="none" stroke="#191970" d="M433.4567,-112.4735C452.7558,-99.7251 480.9649,-76.3588 466.5,-56 460.7023,-47.84 407.55,-31.0913 370.4899,-20.2139"/>
<polygon fill="#191970" stroke="#191970" points="371.096,-16.7453 360.5165,-17.3137 369.1414,-23.4669 371.096,-16.7453"/>
</g>
<!-- Node23&#45;&gt;Node17 -->
<g id="edge32" class="edge">
<title>Node23&#45;&gt;Node17</title>
<path fill="none" stroke="#191970" d="M468.0479,-112.4369C529.2207,-100.8636 630.3792,-81.7256 681.6284,-72.0298"/>
<polygon fill="#191970" stroke="#191970" points="682.3055,-75.4638 691.4805,-70.1658 681.0042,-68.5858 682.3055,-75.4638"/>
</g>
<!-- Node23&#45;&gt;Node18 -->
<g id="edge34" class="edge">
<title>Node23&#45;&gt;Node18</title>
<path fill="none" stroke="#191970" d="M406.0037,-112.2455C396.2558,-103.9746 382.0741,-91.9416 370.6202,-82.2232"/>
<polygon fill="#191970" stroke="#191970" points="372.7541,-79.4437 362.8646,-75.6427 368.2253,-84.7813 372.7541,-79.4437"/>
</g>
<!-- Node23&#45;&gt;Node19 -->
<g id="edge31" class="edge">
<title>Node23&#45;&gt;Node19</title>
<path fill="none" stroke="#191970" d="M393.9489,-112.3733C371.6609,-103.2629 338.0063,-89.5062 313.1363,-79.3404"/>
<polygon fill="#191970" stroke="#191970" points="314.3247,-76.0451 303.7438,-75.5011 311.6761,-82.5247 314.3247,-76.0451"/>
</g>
<!-- Node24 -->
<g id="node25" class="node">
<title>Node24</title>
<polygon fill="none" stroke="#bfbfbf" points="397.5,-56.5 397.5,-75.5 457.5,-75.5 457.5,-56.5 397.5,-56.5"/>
<text text-anchor="middle" x="427.5" y="-63.5" font-family="FreeSans.ttf" font-size="10.00" fill="#000000">iostream</text>
</g>
<!-- Node23&#45;&gt;Node24 -->
<g id="edge33" class="edge">
<title>Node23&#45;&gt;Node24</title>
<path fill="none" stroke="#191970" d="M419.2419,-112.2455C420.5467,-104.9382 422.376,-94.6944 423.9813,-85.7046"/>
<polygon fill="#191970" stroke="#191970" points="427.4656,-86.1022 425.7781,-75.6427 420.5746,-84.8717 427.4656,-86.1022"/>
</g>
<!-- Node25&#45;&gt;Node17 -->
<g id="edge42" class="edge">
<title>Node25&#45;&gt;Node17</title>
<path fill="none" stroke="#191970" d="M894.1559,-448.4526C960.7851,-430.4468 1092.5,-389.3679 1092.5,-346 1092.5,-346 1092.5,-346 1092.5,-178 1092.5,-105.8967 837.0331,-76.6941 745.5803,-68.5501"/>
<polygon fill="#191970" stroke="#191970" points="745.779,-65.0543 735.5148,-67.6804 745.1764,-72.0283 745.779,-65.0543"/>
</g>
<!-- Node26 -->
<g id="node27" class="node">
<title>Node26</title>
<polygon fill="none" stroke="#bfbfbf" points="1017,-336.5 1017,-355.5 1064,-355.5 1064,-336.5 1017,-336.5"/>
<text text-anchor="middle" x="1040.5" y="-343.5" font-family="FreeSans.ttf" font-size="10.00" fill="#000000">vector</text>
</g>
<!-- Node25&#45;&gt;Node26 -->
<g id="edge43" class="edge">
<title>Node25&#45;&gt;Node26</title>
<path fill="none" stroke="#191970" d="M878.2078,-448.3368C897.1843,-439.6118 925.2605,-426.0246 948.5,-412 974.2446,-396.4636 1002.071,-375.9291 1020.2993,-361.9169"/>
<polygon fill="#191970" stroke="#191970" points="1022.6698,-364.5077 1028.4255,-355.6126 1018.379,-358.9769 1022.6698,-364.5077"/>
</g>
<!-- Node27 -->
<g id="node28" class="node">
<title>Node27</title>
<g id="a_node28"><a xlink:href="ConvexHullHelpers_8h.html" target="_top" xlink:title="iDynTree/ConvexHullHelpers.h">
<polygon fill="none" stroke="#000000" points="774,-392.5 774,-411.5 939,-411.5 939,-392.5 774,-392.5"/>
<text text-anchor="middle" x="856.5" y="-399.5" font-family="FreeSans.ttf" font-size="10.00" fill="#000000">iDynTree/ConvexHullHelpers.h</text>
</a>
</g>
</g>
<!-- Node25&#45;&gt;Node27 -->
<g id="edge44" class="edge">
<title>Node25&#45;&gt;Node27</title>
<path fill="none" stroke="#191970" d="M856.5,-448.2455C856.5,-440.9382 856.5,-430.6944 856.5,-421.7046"/>
<polygon fill="#191970" stroke="#191970" points="860.0001,-421.6426 856.5,-411.6427 853.0001,-421.6427 860.0001,-421.6426"/>
</g>
<!-- Node30 -->
<g id="node31" class="node">
<title>Node30</title>
<g id="a_node31"><a xlink:href="Direction_8h.html" target="_top" xlink:title="iDynTree/Core/Direction.h">
<polygon fill="none" stroke="#000000" points="0,-168.5 0,-187.5 141,-187.5 141,-168.5 0,-168.5"/>
<text text-anchor="middle" x="70.5" y="-175.5" font-family="FreeSans.ttf" font-size="10.00" fill="#000000">iDynTree/Core/Direction.h</text>
</a>
</g>
</g>
<!-- Node25&#45;&gt;Node30 -->
<g id="edge54" class="edge">
<title>Node25&#45;&gt;Node30</title>
<path fill="none" stroke="#191970" d="M775.3516,-449.6059C623.7016,-432.8163 312.5,-392.6759 312.5,-346 312.5,-346 312.5,-346 312.5,-290 312.5,-247.9156 190.4426,-209.1176 119.6956,-190.1642"/>
<polygon fill="#191970" stroke="#191970" points="120.2125,-186.6809 109.6504,-187.5138 118.4266,-193.4492 120.2125,-186.6809"/>
</g>
<!-- Node27&#45;&gt;Node1 -->
<g id="edge50" class="edge">
<title>Node27&#45;&gt;Node1</title>
<path fill="none" stroke="#191970" d="M813.8075,-392.4369C770.9321,-382.8328 704.7995,-368.0191 658.7998,-357.7152"/>
<polygon fill="#191970" stroke="#191970" points="659.5396,-354.2942 649.0164,-355.5237 658.0095,-361.1249 659.5396,-354.2942"/>
</g>
<!-- Node27&#45;&gt;Node2 -->
<g id="edge49" class="edge">
<title>Node27&#45;&gt;Node2</title>
<path fill="none" stroke="#191970" d="M846.2689,-392.4509C825.8115,-373.3574 779.6462,-330.2697 754.1854,-306.5063"/>
<polygon fill="#191970" stroke="#191970" points="756.4039,-303.7894 746.7052,-299.5249 751.6277,-308.9068 756.4039,-303.7894"/>
</g>
<!-- Node27&#45;&gt;Node17 -->
<g id="edge45" class="edge">
<title>Node27&#45;&gt;Node17</title>
<path fill="none" stroke="#191970" d="M888.267,-392.4969C928.7728,-378.7328 998.1442,-349.3445 1036.5,-300 1055.1596,-275.9945 1054.5,-264.4047 1054.5,-234 1054.5,-234 1054.5,-234 1054.5,-178 1054.5,-113.3877 830.7259,-79.96 745.7274,-69.5933"/>
<polygon fill="#191970" stroke="#191970" points="745.9549,-66.0958 735.6112,-68.3891 745.1274,-73.0467 745.9549,-66.0958"/>
</g>
<!-- Node27&#45;&gt;Node26 -->
<g id="edge46" class="edge">
<title>Node27&#45;&gt;Node26</title>
<path fill="none" stroke="#191970" d="M888.1307,-392.3733C921.2806,-382.2842 973.153,-366.4969 1006.9902,-356.1986"/>
<polygon fill="#191970" stroke="#191970" points="1008.3241,-359.4512 1016.8718,-353.1912 1006.2859,-352.7545 1008.3241,-359.4512"/>
</g>
<!-- Node28 -->
<g id="node29" class="node">
<title>Node28</title>
<g id="a_node29"><a xlink:href="MatrixDynSize_8h.html" target="_top" xlink:title="iDynTree/Core/MatrixDynSize.h">
<polygon fill="none" stroke="#000000" points="860,-280.5 860,-299.5 1027,-299.5 1027,-280.5 860,-280.5"/>
<text text-anchor="middle" x="943.5" y="-287.5" font-family="FreeSans.ttf" font-size="10.00" fill="#000000">iDynTree/Core/MatrixDynSize.h</text>
</a>
</g>
</g>
<!-- Node27&#45;&gt;Node28 -->
<g id="edge47" class="edge">
<title>Node27&#45;&gt;Node28</title>
<path fill="none" stroke="#191970" d="M863.9176,-392.4509C878.5565,-373.6054 911.3528,-331.3849 929.9514,-307.4419"/>
<polygon fill="#191970" stroke="#191970" points="932.7307,-309.5693 936.1012,-299.5249 927.2026,-305.2751 932.7307,-309.5693"/>
</g>
<!-- Node29 -->
<g id="node30" class="node">
<title>Node29</title>
<g id="a_node30"><a xlink:href="VectorDynSize_8h.html" target="_top" xlink:title="iDynTree/Core/VectorDynSize.h">
<polygon fill="none" stroke="#000000" points="668,-112.5 668,-131.5 835,-131.5 835,-112.5 668,-112.5"/>
<text text-anchor="middle" x="751.5" y="-119.5" font-family="FreeSans.ttf" font-size="10.00" fill="#000000">iDynTree/Core/VectorDynSize.h</text>
</a>
</g>
</g>
<!-- Node27&#45;&gt;Node29 -->
<g id="edge51" class="edge">
<title>Node27&#45;&gt;Node29</title>
<path fill="none" stroke="#191970" d="M856.0725,-392.2872C854.1618,-350.4718 845.9483,-187.0512 833.5,-168 823.8877,-153.2891 807.8585,-142.8161 792.5093,-135.6181"/>
<polygon fill="#191970" stroke="#191970" points="793.6714,-132.3075 783.1036,-131.551 790.8931,-138.7325 793.6714,-132.3075"/>
</g>
<!-- Node28&#45;&gt;Node17 -->
<g id="edge48" class="edge">
<title>Node28&#45;&gt;Node17</title>
<path fill="none" stroke="#191970" d="M942.9378,-280.229C940.6793,-250.3477 929.7084,-159.3509 878.5,-112 859.2269,-94.1787 788.0687,-79.0612 745.7514,-71.3934"/>
<polygon fill="#191970" stroke="#191970" points="746.1204,-67.9043 735.6633,-69.6073 744.9,-74.7971 746.1204,-67.9043"/>
</g>
<!-- Node29&#45;&gt;Node8 -->
<g id="edge52" class="edge">
<title>Node29&#45;&gt;Node8</title>
<path fill="none" stroke="#191970" d="M721.0726,-112.3733C691.5128,-103.021 646.4774,-88.7725 614.1305,-78.5385"/>
<polygon fill="#191970" stroke="#191970" points="615.1203,-75.1807 604.5303,-75.5011 613.0087,-81.8546 615.1203,-75.1807"/>
</g>
<!-- Node29&#45;&gt;Node17 -->
<g id="edge53" class="edge">
<title>Node29&#45;&gt;Node17</title>
<path fill="none" stroke="#191970" d="M744.8809,-112.2455C739.5954,-104.4564 732.0459,-93.3308 725.6762,-83.9439"/>
<polygon fill="#191970" stroke="#191970" points="728.5545,-81.9522 720.0432,-75.6427 722.7621,-85.8827 728.5545,-81.9522"/>
</g>
<!-- Node30&#45;&gt;Node4 -->
<g id="edge56" class="edge">
<title>Node30&#45;&gt;Node4</title>
<path fill="none" stroke="#191970" d="M99.3802,-168.3733C127.3161,-159.0613 169.8142,-144.8953 200.4869,-134.671"/>
<polygon fill="#191970" stroke="#191970" points="201.6166,-137.9839 209.9966,-131.5011 199.403,-131.3431 201.6166,-137.9839"/>
</g>
<!-- Node30&#45;&gt;Node5 -->
<g id="edge57" class="edge">
<title>Node30&#45;&gt;Node5</title>
<path fill="none" stroke="#191970" d="M76.3829,-168.4509C87.8913,-149.7707 113.5488,-108.1238 128.3638,-84.0761"/>
<polygon fill="#191970" stroke="#191970" points="131.3666,-85.8747 133.632,-75.5249 125.4068,-82.203 131.3666,-85.8747"/>
</g>
<!-- Node30&#45;&gt;Node17 -->
<g id="edge55" class="edge">
<title>Node30&#45;&gt;Node17</title>
<path fill="none" stroke="#191970" d="M141.1244,-168.9689C143.9525,-168.6362 146.7527,-168.312 149.5,-168 308.3925,-149.9575 353.1028,-173.6397 507.5,-132 528.24,-126.4066 531.3335,-119.399 551.5,-112 595.7096,-95.7796 648.4174,-81.7606 681.4289,-73.5938"/>
<polygon fill="#191970" stroke="#191970" points="682.5358,-76.9264 691.4191,-71.1525 680.8741,-70.1265 682.5358,-76.9264"/>
</g>
</g>
</svg>
