<?xml version="1.0" encoding="UTF-8" standalone="no"?>
<!DOCTYPE svg PUBLIC "-//W3C//DTD SVG 1.1//EN"
 "http://www.w3.org/Graphics/SVG/1.1/DTD/svg11.dtd">
<!-- Generated by graphviz version 2.40.1 (20161225.0304)
 -->
<!-- Title: TransformDerivative.h Pages: 1 -->
<svg width="925pt" height="196pt"
 viewBox="0.00 0.00 924.50 196.00" xmlns="http://www.w3.org/2000/svg" xmlns:xlink="http://www.w3.org/1999/xlink">
<g id="graph0" class="graph" transform="scale(1 1) rotate(0) translate(4 192)">
<title>TransformDerivative.h</title>
<!-- Node0 -->
<g id="node1" class="node">
<title>Node0</title>
<polygon fill="#bfbfbf" stroke="#000000" points="593,-168.5 593,-187.5 718,-187.5 718,-168.5 593,-168.5"/>
<text text-anchor="middle" x="655.5" y="-175.5" font-family="FreeSans.ttf" font-size="10.00" fill="#000000">TransformDerivative.h</text>
</g>
<!-- Node1 -->
<g id="node2" class="node">
<title>Node1</title>
<g id="a_node2"><a xlink:href="VectorFixSize_8h.html" target="_top" xlink:title="iDynTree/Core/VectorFixSize.h">
<polygon fill="none" stroke="#000000" points="486,-112.5 486,-131.5 647,-131.5 647,-112.5 486,-112.5"/>
<text text-anchor="middle" x="566.5" y="-119.5" font-family="FreeSans.ttf" font-size="10.00" fill="#000000">iDynTree/Core/VectorFixSize.h</text>
</a>
</g>
</g>
<!-- Node0&#45;&gt;Node1 -->
<g id="edge1" class="edge">
<title>Node0&#45;&gt;Node1</title>
<path fill="none" stroke="#191970" d="M639.9974,-168.2455C626.342,-159.6534 606.2343,-147.0014 590.5011,-137.1018"/>
<polygon fill="#191970" stroke="#191970" points="592.1529,-134.006 581.825,-131.6427 588.4249,-139.9307 592.1529,-134.006"/>
</g>
<!-- Node17 -->
<g id="node18" class="node">
<title>Node17</title>
<g id="a_node18"><a xlink:href="MatrixFixSize_8h.html" target="_top" xlink:title="iDynTree/Core/MatrixFixSize.h">
<polygon fill="none" stroke="#000000" points="665,-112.5 665,-131.5 826,-131.5 826,-112.5 665,-112.5"/>
<text text-anchor="middle" x="745.5" y="-119.5" font-family="FreeSans.ttf" font-size="10.00" fill="#000000">iDynTree/Core/MatrixFixSize.h</text>
</a>
</g>
</g>
<!-- Node0&#45;&gt;Node17 -->
<g id="edge19" class="edge">
<title>Node0&#45;&gt;Node17</title>
<path fill="none" stroke="#191970" d="M671.1768,-168.2455C684.9856,-159.6534 705.3193,-147.0014 721.2292,-137.1018"/>
<polygon fill="#191970" stroke="#191970" points="723.3613,-139.8974 730.0028,-131.6427 719.6632,-133.954 723.3613,-139.8974"/>
</g>
<!-- Node2 -->
<g id="node3" class="node">
<title>Node2</title>
<g id="a_node3"><a xlink:href="Utils_8h.html" target="_top" xlink:title="iDynTree/Core/Utils.h">
<polygon fill="none" stroke="#000000" points="477,-56.5 477,-75.5 596,-75.5 596,-56.5 477,-56.5"/>
<text text-anchor="middle" x="536.5" y="-63.5" font-family="FreeSans.ttf" font-size="10.00" fill="#000000">iDynTree/Core/Utils.h</text>
</a>
</g>
</g>
<!-- Node1&#45;&gt;Node2 -->
<g id="edge2" class="edge">
<title>Node1&#45;&gt;Node2</title>
<path fill="none" stroke="#191970" d="M561.2744,-112.2455C557.1877,-104.617 551.3865,-93.7881 546.425,-84.5267"/>
<polygon fill="#191970" stroke="#191970" points="549.4732,-82.8047 541.6657,-75.6427 543.3028,-86.1103 549.4732,-82.8047"/>
</g>
<!-- Node5 -->
<g id="node6" class="node">
<title>Node5</title>
<g id="a_node6"><a xlink:href="Span_8h.html" target="_top" xlink:title="iDynTree/Core/Span.h">
<polygon fill="none" stroke="#000000" points="283,-56.5 283,-75.5 404,-75.5 404,-56.5 283,-56.5"/>
<text text-anchor="middle" x="343.5" y="-63.5" font-family="FreeSans.ttf" font-size="10.00" fill="#000000">iDynTree/Core/Span.h</text>
</a>
</g>
</g>
<!-- Node1&#45;&gt;Node5 -->
<g id="edge5" class="edge">
<title>Node1&#45;&gt;Node5</title>
<path fill="none" stroke="#191970" d="M528.4183,-112.4369C490.4941,-102.9133 432.1711,-88.2672 391.1874,-77.9753"/>
<polygon fill="#191970" stroke="#191970" points="391.976,-74.5647 381.4246,-75.5237 390.271,-81.3539 391.976,-74.5647"/>
</g>
<!-- Node6 -->
<g id="node7" class="node">
<title>Node6</title>
<polygon fill="none" stroke="#bfbfbf" points="581.5,-.5 581.5,-19.5 633.5,-19.5 633.5,-.5 581.5,-.5"/>
<text text-anchor="middle" x="607.5" y="-7.5" font-family="FreeSans.ttf" font-size="10.00" fill="#000000">cassert</text>
</g>
<!-- Node1&#45;&gt;Node6 -->
<g id="edge17" class="edge">
<title>Node1&#45;&gt;Node6</title>
<path fill="none" stroke="#191970" d="M526.9987,-112.4111C491.6349,-101.8593 448.1173,-82.7707 467.5,-56 470.6813,-51.6062 531.1117,-32.8394 571.5283,-20.6757"/>
<polygon fill="#191970" stroke="#191970" points="572.752,-23.9628 581.3255,-17.7382 570.7416,-17.2577 572.752,-23.9628"/>
</g>
<!-- Node14 -->
<g id="node15" class="node">
<title>Node14</title>
<polygon fill="none" stroke="#bfbfbf" points="614.5,-56.5 614.5,-75.5 658.5,-75.5 658.5,-56.5 614.5,-56.5"/>
<text text-anchor="middle" x="636.5" y="-63.5" font-family="FreeSans.ttf" font-size="10.00" fill="#000000">string</text>
</g>
<!-- Node1&#45;&gt;Node14 -->
<g id="edge15" class="edge">
<title>Node1&#45;&gt;Node14</title>
<path fill="none" stroke="#191970" d="M578.6931,-112.2455C589.1321,-103.8943 604.3655,-91.7076 616.574,-81.9408"/>
<polygon fill="#191970" stroke="#191970" points="618.8244,-84.6227 624.4467,-75.6427 614.4515,-79.1566 618.8244,-84.6227"/>
</g>
<!-- Node15 -->
<g id="node16" class="node">
<title>Node15</title>
<polygon fill="none" stroke="#bfbfbf" points="676.5,-56.5 676.5,-75.5 732.5,-75.5 732.5,-56.5 676.5,-56.5"/>
<text text-anchor="middle" x="704.5" y="-63.5" font-family="FreeSans.ttf" font-size="10.00" fill="#000000">sstream</text>
</g>
<!-- Node1&#45;&gt;Node15 -->
<g id="edge16" class="edge">
<title>Node1&#45;&gt;Node15</title>
<path fill="none" stroke="#191970" d="M590.223,-112.3733C612.6737,-103.2629 646.5739,-89.5062 671.6255,-79.3404"/>
<polygon fill="#191970" stroke="#191970" points="673.1365,-82.5045 681.0865,-75.5011 670.5043,-76.0182 673.1365,-82.5045"/>
</g>
<!-- Node16 -->
<g id="node17" class="node">
<title>Node16</title>
<polygon fill="none" stroke="#bfbfbf" points="750.5,-56.5 750.5,-75.5 800.5,-75.5 800.5,-56.5 750.5,-56.5"/>
<text text-anchor="middle" x="775.5" y="-63.5" font-family="FreeSans.ttf" font-size="10.00" fill="#000000">cstring</text>
</g>
<!-- Node1&#45;&gt;Node16 -->
<g id="edge18" class="edge">
<title>Node1&#45;&gt;Node16</title>
<path fill="none" stroke="#191970" d="M604.1359,-112.4436C637.553,-103.8834 687.9505,-90.7917 740.4489,-76.2414"/>
<polygon fill="#191970" stroke="#191970" points="741.5764,-79.5607 750.2724,-73.5083 739.7001,-72.8168 741.5764,-79.5607"/>
</g>
<!-- Node3 -->
<g id="node4" class="node">
<title>Node3</title>
<polygon fill="none" stroke="#bfbfbf" points="510,-.5 510,-19.5 563,-19.5 563,-.5 510,-.5"/>
<text text-anchor="middle" x="536.5" y="-7.5" font-family="FreeSans.ttf" font-size="10.00" fill="#000000">cstddef</text>
</g>
<!-- Node2&#45;&gt;Node3 -->
<g id="edge3" class="edge">
<title>Node2&#45;&gt;Node3</title>
<path fill="none" stroke="#191970" d="M536.5,-56.2455C536.5,-48.9382 536.5,-38.6944 536.5,-29.7046"/>
<polygon fill="#191970" stroke="#191970" points="540.0001,-29.6426 536.5,-19.6427 533.0001,-29.6427 540.0001,-29.6426"/>
</g>
<!-- Node4 -->
<g id="node5" class="node">
<title>Node4</title>
<polygon fill="none" stroke="#bfbfbf" points="651.5,-.5 651.5,-19.5 731.5,-19.5 731.5,-.5 651.5,-.5"/>
<text text-anchor="middle" x="691.5" y="-7.5" font-family="FreeSans.ttf" font-size="10.00" fill="#000000">CoreExport.h</text>
</g>
<!-- Node2&#45;&gt;Node4 -->
<g id="edge4" class="edge">
<title>Node2&#45;&gt;Node4</title>
<path fill="none" stroke="#191970" d="M563.1454,-56.3733C588.6964,-47.1419 627.4512,-33.1402 655.6909,-22.9375"/>
<polygon fill="#191970" stroke="#191970" points="656.9865,-26.1909 665.2022,-19.5011 654.6079,-19.6074 656.9865,-26.1909"/>
</g>
<!-- Node5&#45;&gt;Node3 -->
<g id="edge9" class="edge">
<title>Node5&#45;&gt;Node3</title>
<path fill="none" stroke="#191970" d="M376.6779,-56.3733C411.0106,-46.4114 464.4891,-30.8944 499.9989,-20.591"/>
<polygon fill="#191970" stroke="#191970" points="501.3251,-23.8506 509.9537,-17.7026 499.3745,-17.1279 501.3251,-23.8506"/>
</g>
<!-- Node5&#45;&gt;Node6 -->
<g id="edge6" class="edge">
<title>Node5&#45;&gt;Node6</title>
<path fill="none" stroke="#191970" d="M396.2588,-56.4694C442.6216,-47.8295 511.8083,-34.2925 571.5,-20 571.5986,-19.9764 571.6973,-19.9527 571.7961,-19.9289"/>
<polygon fill="#191970" stroke="#191970" points="572.3801,-23.3918 581.2106,-17.5375 570.6567,-16.6073 572.3801,-23.3918"/>
</g>
<!-- Node7 -->
<g id="node8" class="node">
<title>Node7</title>
<polygon fill="none" stroke="#bfbfbf" points="367.5,-.5 367.5,-19.5 431.5,-19.5 431.5,-.5 367.5,-.5"/>
<text text-anchor="middle" x="399.5" y="-7.5" font-family="FreeSans.ttf" font-size="10.00" fill="#000000">algorithm</text>
</g>
<!-- Node5&#45;&gt;Node7 -->
<g id="edge7" class="edge">
<title>Node5&#45;&gt;Node7</title>
<path fill="none" stroke="#191970" d="M353.2545,-56.2455C361.3648,-48.1352 373.0925,-36.4075 382.7081,-26.7919"/>
<polygon fill="#191970" stroke="#191970" points="385.2611,-29.1887 389.8573,-19.6427 380.3113,-24.2389 385.2611,-29.1887"/>
</g>
<!-- Node8 -->
<g id="node9" class="node">
<title>Node8</title>
<polygon fill="none" stroke="#bfbfbf" points="449.5,-.5 449.5,-19.5 491.5,-19.5 491.5,-.5 449.5,-.5"/>
<text text-anchor="middle" x="470.5" y="-7.5" font-family="FreeSans.ttf" font-size="10.00" fill="#000000">array</text>
</g>
<!-- Node5&#45;&gt;Node8 -->
<g id="edge8" class="edge">
<title>Node5&#45;&gt;Node8</title>
<path fill="none" stroke="#191970" d="M365.3321,-56.3733C385.9344,-47.2888 417.0139,-33.5844 440.0491,-23.4272"/>
<polygon fill="#191970" stroke="#191970" points="441.637,-26.5522 449.3748,-19.315 438.8127,-20.1472 441.637,-26.5522"/>
</g>
<!-- Node9 -->
<g id="node10" class="node">
<title>Node9</title>
<polygon fill="none" stroke="#bfbfbf" points="0,-.5 0,-19.5 53,-19.5 53,-.5 0,-.5"/>
<text text-anchor="middle" x="26.5" y="-7.5" font-family="FreeSans.ttf" font-size="10.00" fill="#000000">iterator</text>
</g>
<!-- Node5&#45;&gt;Node9 -->
<g id="edge10" class="edge">
<title>Node5&#45;&gt;Node9</title>
<path fill="none" stroke="#191970" d="M282.8428,-58.0133C227.9186,-50.3415 144.6332,-37.6165 63.0892,-19.933"/>
<polygon fill="#191970" stroke="#191970" points="63.6734,-16.478 53.1555,-17.7519 62.1722,-23.3151 63.6734,-16.478"/>
</g>
<!-- Node10 -->
<g id="node11" class="node">
<title>Node10</title>
<polygon fill="none" stroke="#bfbfbf" points="71.5,-.5 71.5,-19.5 115.5,-19.5 115.5,-.5 71.5,-.5"/>
<text text-anchor="middle" x="93.5" y="-7.5" font-family="FreeSans.ttf" font-size="10.00" fill="#000000">limits</text>
</g>
<!-- Node5&#45;&gt;Node10 -->
<g id="edge11" class="edge">
<title>Node5&#45;&gt;Node10</title>
<path fill="none" stroke="#191970" d="M290.4757,-56.4796C248.1583,-48.5158 187.2107,-36.2324 125.6506,-20.1122"/>
<polygon fill="#191970" stroke="#191970" points="126.3311,-16.6718 115.7681,-17.4922 124.5372,-23.438 126.3311,-16.6718"/>
</g>
<!-- Node11 -->
<g id="node12" class="node">
<title>Node11</title>
<polygon fill="none" stroke="#bfbfbf" points="134,-.5 134,-19.5 199,-19.5 199,-.5 134,-.5"/>
<text text-anchor="middle" x="166.5" y="-7.5" font-family="FreeSans.ttf" font-size="10.00" fill="#000000">stdexcept</text>
</g>
<!-- Node5&#45;&gt;Node11 -->
<g id="edge12" class="edge">
<title>Node5&#45;&gt;Node11</title>
<path fill="none" stroke="#191970" d="M313.0726,-56.3733C283.5128,-47.021 238.4774,-32.7725 206.1305,-22.5385"/>
<polygon fill="#191970" stroke="#191970" points="207.1203,-19.1807 196.5303,-19.5011 205.0087,-25.8546 207.1203,-19.1807"/>
</g>
<!-- Node12 -->
<g id="node13" class="node">
<title>Node12</title>
<polygon fill="none" stroke="#bfbfbf" points="217,-.5 217,-19.5 286,-19.5 286,-.5 217,-.5"/>
<text text-anchor="middle" x="251.5" y="-7.5" font-family="FreeSans.ttf" font-size="10.00" fill="#000000">type_traits</text>
</g>
<!-- Node5&#45;&gt;Node12 -->
<g id="edge13" class="edge">
<title>Node5&#45;&gt;Node12</title>
<path fill="none" stroke="#191970" d="M327.4748,-56.2455C313.3592,-47.6534 292.5737,-35.0014 276.3101,-25.1018"/>
<polygon fill="#191970" stroke="#191970" points="277.7034,-21.8525 267.3415,-19.6427 274.0637,-27.8319 277.7034,-21.8525"/>
</g>
<!-- Node13 -->
<g id="node14" class="node">
<title>Node13</title>
<polygon fill="none" stroke="#bfbfbf" points="304,-.5 304,-19.5 349,-19.5 349,-.5 304,-.5"/>
<text text-anchor="middle" x="326.5" y="-7.5" font-family="FreeSans.ttf" font-size="10.00" fill="#000000">utility</text>
</g>
<!-- Node5&#45;&gt;Node13 -->
<g id="edge14" class="edge">
<title>Node5&#45;&gt;Node13</title>
<path fill="none" stroke="#191970" d="M340.5388,-56.2455C338.2962,-48.8579 335.1423,-38.4689 332.3919,-29.4087"/>
<polygon fill="#191970" stroke="#191970" points="335.6812,-28.1948 329.4272,-19.6427 328.983,-30.2282 335.6812,-28.1948"/>
</g>
<!-- Node17&#45;&gt;Node2 -->
<g id="edge20" class="edge">
<title>Node17&#45;&gt;Node2</title>
<path fill="none" stroke="#191970" d="M709.5716,-112.3733C674.2163,-102.9001 620.112,-88.4032 581.8212,-78.1435"/>
<polygon fill="#191970" stroke="#191970" points="582.5247,-74.7086 571.9595,-75.5011 580.713,-81.4701 582.5247,-74.7086"/>
</g>
<!-- Node17&#45;&gt;Node6 -->
<g id="edge21" class="edge">
<title>Node17&#45;&gt;Node6</title>
<path fill="none" stroke="#191970" d="M766.7904,-112.4604C791.5203,-100.0718 826.8461,-77.4838 809.5,-56 763.7588,.6523 719.9021,-35.2032 643.7713,-19.9686"/>
<polygon fill="#191970" stroke="#191970" points="644.3485,-16.5109 633.8232,-17.7222 642.8066,-23.3389 644.3485,-16.5109"/>
</g>
<!-- Node17&#45;&gt;Node14 -->
<g id="edge23" class="edge">
<title>Node17&#45;&gt;Node14</title>
<path fill="none" stroke="#191970" d="M726.5136,-112.2455C709.3208,-103.4125 683.7762,-90.2887 664.2868,-80.2758"/>
<polygon fill="#191970" stroke="#191970" points="665.763,-77.0993 655.2688,-75.6427 662.5641,-83.3257 665.763,-77.0993"/>
</g>
<!-- Node17&#45;&gt;Node15 -->
<g id="edge25" class="edge">
<title>Node17&#45;&gt;Node15</title>
<path fill="none" stroke="#191970" d="M738.3583,-112.2455C732.6556,-104.4564 724.51,-93.3308 717.6375,-83.9439"/>
<polygon fill="#191970" stroke="#191970" points="720.2913,-81.6437 711.5598,-75.6427 714.6432,-85.7789 720.2913,-81.6437"/>
</g>
<!-- Node17&#45;&gt;Node16 -->
<g id="edge22" class="edge">
<title>Node17&#45;&gt;Node16</title>
<path fill="none" stroke="#191970" d="M750.7256,-112.2455C754.8123,-104.617 760.6135,-93.7881 765.575,-84.5267"/>
<polygon fill="#191970" stroke="#191970" points="768.6972,-86.1103 770.3343,-75.6427 762.5268,-82.8047 768.6972,-86.1103"/>
</g>
<!-- Node18 -->
<g id="node19" class="node">
<title>Node18</title>
<polygon fill="none" stroke="#bfbfbf" points="856.5,-56.5 856.5,-75.5 916.5,-75.5 916.5,-56.5 856.5,-56.5"/>
<text text-anchor="middle" x="886.5" y="-63.5" font-family="FreeSans.ttf" font-size="10.00" fill="#000000">iostream</text>
</g>
<!-- Node17&#45;&gt;Node18 -->
<g id="edge24" class="edge">
<title>Node17&#45;&gt;Node18</title>
<path fill="none" stroke="#191970" d="M769.7388,-112.3733C792.7789,-103.2226 827.6214,-89.3844 853.2501,-79.2057"/>
<polygon fill="#191970" stroke="#191970" points="854.5756,-82.4452 862.5775,-75.5011 851.9918,-75.9395 854.5756,-82.4452"/>
</g>
</g>
</svg>
