<?xml version="1.0" encoding="UTF-8" standalone="no"?>
<!DOCTYPE svg PUBLIC "-//W3C//DTD SVG 1.1//EN"
 "http://www.w3.org/Graphics/SVG/1.1/DTD/svg11.dtd">
<!-- Generated by graphviz version 2.40.1 (20161225.0304)
 -->
<!-- Title: Transform.h Pages: 1 -->
<svg width="830pt" height="364pt"
 viewBox="0.00 0.00 829.50 364.00" xmlns="http://www.w3.org/2000/svg" xmlns:xlink="http://www.w3.org/1999/xlink">
<g id="graph0" class="graph" transform="scale(1 1) rotate(0) translate(4 360)">
<title>Transform.h</title>
<!-- Node0 -->
<g id="node1" class="node">
<title>Node0</title>
<polygon fill="#bfbfbf" stroke="#000000" points="241.5,-336.5 241.5,-355.5 315.5,-355.5 315.5,-336.5 241.5,-336.5"/>
<text text-anchor="middle" x="278.5" y="-343.5" font-family="FreeSans.ttf" font-size="10.00" fill="#000000">Transform.h</text>
</g>
<!-- Node1 -->
<g id="node2" class="node">
<title>Node1</title>
<g id="a_node2"><a xlink:href="Position_8h.html" target="_top" xlink:title="iDynTree/Core/Position.h">
<polygon fill="none" stroke="#000000" points="157.5,-280.5 157.5,-299.5 293.5,-299.5 293.5,-280.5 157.5,-280.5"/>
<text text-anchor="middle" x="225.5" y="-287.5" font-family="FreeSans.ttf" font-size="10.00" fill="#000000">iDynTree/Core/Position.h</text>
</a>
</g>
</g>
<!-- Node0&#45;&gt;Node1 -->
<g id="edge1" class="edge">
<title>Node0&#45;&gt;Node1</title>
<path fill="none" stroke="#191970" d="M269.2681,-336.2455C261.6683,-328.2155 250.7123,-316.6394 241.6632,-307.0781"/>
<polygon fill="#191970" stroke="#191970" points="244.042,-304.4998 234.6261,-299.6427 238.9579,-309.3115 244.042,-304.4998"/>
</g>
<!-- Node16 -->
<g id="node17" class="node">
<title>Node16</title>
<polygon fill="none" stroke="#bfbfbf" points="203.5,-56.5 203.5,-75.5 247.5,-75.5 247.5,-56.5 203.5,-56.5"/>
<text text-anchor="middle" x="225.5" y="-63.5" font-family="FreeSans.ttf" font-size="10.00" fill="#000000">string</text>
</g>
<!-- Node0&#45;&gt;Node16 -->
<g id="edge39" class="edge">
<title>Node0&#45;&gt;Node16</title>
<path fill="none" stroke="#191970" d="M241.0833,-342.314C182.1902,-334.2218 74.5,-309.1501 74.5,-234 74.5,-234 74.5,-234 74.5,-178 74.5,-119.2555 149.1359,-87.7524 193.4624,-74.2228"/>
<polygon fill="#191970" stroke="#191970" points="194.5954,-77.5383 203.2194,-71.3839 192.6398,-70.817 194.5954,-77.5383"/>
</g>
<!-- Node19 -->
<g id="node20" class="node">
<title>Node19</title>
<g id="a_node20"><a xlink:href="Rotation_8h.html" target="_top" xlink:title="iDynTree/Core/Rotation.h">
<polygon fill="none" stroke="#000000" points="311,-224.5 311,-243.5 448,-243.5 448,-224.5 311,-224.5"/>
<text text-anchor="middle" x="379.5" y="-231.5" font-family="FreeSans.ttf" font-size="10.00" fill="#000000">iDynTree/Core/Rotation.h</text>
</a>
</g>
</g>
<!-- Node0&#45;&gt;Node19 -->
<g id="edge37" class="edge">
<title>Node0&#45;&gt;Node19</title>
<path fill="none" stroke="#191970" d="M287.1112,-336.4509C304.1804,-317.5227 342.5141,-275.014 364.0543,-251.1279"/>
<polygon fill="#191970" stroke="#191970" points="366.8128,-253.2952 370.9106,-243.5249 361.6144,-248.6073 366.8128,-253.2952"/>
</g>
<!-- Node22 -->
<g id="node23" class="node">
<title>Node22</title>
<g id="a_node23"><a xlink:href="MatrixFixSize_8h.html" target="_top" xlink:title="iDynTree/Core/MatrixFixSize.h">
<polygon fill="none" stroke="#000000" points="585,-112.5 585,-131.5 746,-131.5 746,-112.5 585,-112.5"/>
<text text-anchor="middle" x="665.5" y="-119.5" font-family="FreeSans.ttf" font-size="10.00" fill="#000000">iDynTree/Core/MatrixFixSize.h</text>
</a>
</g>
</g>
<!-- Node0&#45;&gt;Node22 -->
<g id="edge38" class="edge">
<title>Node0&#45;&gt;Node22</title>
<path fill="none" stroke="#191970" d="M315.6491,-338.9702C415.988,-319.1535 688.3534,-259.5969 739.5,-188 754.4724,-167.0411 726.6638,-148.0359 700.9683,-135.8603"/>
<polygon fill="#191970" stroke="#191970" points="702.2367,-132.5933 691.6802,-131.6926 699.3709,-138.9798 702.2367,-132.5933"/>
</g>
<!-- Node2 -->
<g id="node3" class="node">
<title>Node2</title>
<g id="a_node3"><a xlink:href="PositionRaw_8h.html" target="_top" xlink:title="iDynTree/Core/PositionRaw.h">
<polygon fill="none" stroke="#000000" points="140.5,-168.5 140.5,-187.5 296.5,-187.5 296.5,-168.5 140.5,-168.5"/>
<text text-anchor="middle" x="218.5" y="-175.5" font-family="FreeSans.ttf" font-size="10.00" fill="#000000">iDynTree/Core/PositionRaw.h</text>
</a>
</g>
</g>
<!-- Node1&#45;&gt;Node2 -->
<g id="edge2" class="edge">
<title>Node1&#45;&gt;Node2</title>
<path fill="none" stroke="#191970" d="M224.9032,-280.4509C223.7615,-262.184 221.2472,-221.9553 219.7311,-197.6976"/>
<polygon fill="#191970" stroke="#191970" points="223.2124,-197.2871 219.0953,-187.5249 216.226,-197.7238 223.2124,-197.2871"/>
</g>
<!-- Node1&#45;&gt;Node16 -->
<g id="edge36" class="edge">
<title>Node1&#45;&gt;Node16</title>
<path fill="none" stroke="#191970" d="M211.5589,-280.3907C189.5789,-264.2863 147.7057,-229.4984 131.5,-188 114.3413,-144.0613 165.4703,-102.7447 198.9189,-81.3021"/>
<polygon fill="#191970" stroke="#191970" points="201.153,-84.0355 207.8128,-75.7956 197.4681,-78.0839 201.153,-84.0355"/>
</g>
<!-- Node1&#45;&gt;Node19 -->
<g id="edge22" class="edge">
<title>Node1&#45;&gt;Node19</title>
<path fill="none" stroke="#191970" d="M251.9735,-280.3733C277.3597,-271.1419 315.8645,-257.1402 343.922,-246.9375"/>
<polygon fill="#191970" stroke="#191970" points="345.1701,-250.2079 353.3719,-243.5011 342.7778,-243.6293 345.1701,-250.2079"/>
</g>
<!-- Node3 -->
<g id="node4" class="node">
<title>Node3</title>
<g id="a_node4"><a xlink:href="VectorFixSize_8h.html" target="_top" xlink:title="iDynTree/Core/VectorFixSize.h">
<polygon fill="none" stroke="#000000" points="391,-112.5 391,-131.5 552,-131.5 552,-112.5 391,-112.5"/>
<text text-anchor="middle" x="471.5" y="-119.5" font-family="FreeSans.ttf" font-size="10.00" fill="#000000">iDynTree/Core/VectorFixSize.h</text>
</a>
</g>
</g>
<!-- Node2&#45;&gt;Node3 -->
<g id="edge3" class="edge">
<title>Node2&#45;&gt;Node3</title>
<path fill="none" stroke="#191970" d="M261.7048,-168.4369C305.0947,-158.8328 372.0209,-144.0191 418.5726,-133.7152"/>
<polygon fill="#191970" stroke="#191970" points="419.4662,-137.1022 428.4734,-131.5237 417.9533,-130.2676 419.4662,-137.1022"/>
</g>
<!-- Node2&#45;&gt;Node16 -->
<g id="edge21" class="edge">
<title>Node2&#45;&gt;Node16</title>
<path fill="none" stroke="#191970" d="M219.0968,-168.4509C220.2385,-150.184 222.7528,-109.9553 224.2689,-85.6976"/>
<polygon fill="#191970" stroke="#191970" points="227.774,-85.7238 224.9047,-75.5249 220.7876,-85.2871 227.774,-85.7238"/>
</g>
<!-- Node4 -->
<g id="node5" class="node">
<title>Node4</title>
<g id="a_node5"><a xlink:href="Utils_8h.html" target="_top" xlink:title="iDynTree/Core/Utils.h">
<polygon fill="none" stroke="#000000" points="518,-56.5 518,-75.5 637,-75.5 637,-56.5 518,-56.5"/>
<text text-anchor="middle" x="577.5" y="-63.5" font-family="FreeSans.ttf" font-size="10.00" fill="#000000">iDynTree/Core/Utils.h</text>
</a>
</g>
</g>
<!-- Node3&#45;&gt;Node4 -->
<g id="edge4" class="edge">
<title>Node3&#45;&gt;Node4</title>
<path fill="none" stroke="#191970" d="M489.9638,-112.2455C506.6074,-103.4527 531.2993,-90.4079 550.2192,-80.4125"/>
<polygon fill="#191970" stroke="#191970" points="552.0408,-83.4086 559.2478,-75.6427 548.7709,-77.2193 552.0408,-83.4086"/>
</g>
<!-- Node7 -->
<g id="node8" class="node">
<title>Node7</title>
<g id="a_node8"><a xlink:href="Span_8h.html" target="_top" xlink:title="iDynTree/Core/Span.h">
<polygon fill="none" stroke="#000000" points="266,-56.5 266,-75.5 387,-75.5 387,-56.5 266,-56.5"/>
<text text-anchor="middle" x="326.5" y="-63.5" font-family="FreeSans.ttf" font-size="10.00" fill="#000000">iDynTree/Core/Span.h</text>
</a>
</g>
</g>
<!-- Node3&#45;&gt;Node7 -->
<g id="edge7" class="edge">
<title>Node3&#45;&gt;Node7</title>
<path fill="none" stroke="#191970" d="M446.5736,-112.3733C422.8798,-103.2226 387.0489,-89.3844 360.6932,-79.2057"/>
<polygon fill="#191970" stroke="#191970" points="361.6906,-75.8389 351.1011,-75.5011 359.1686,-82.3689 361.6906,-75.8389"/>
</g>
<!-- Node8 -->
<g id="node9" class="node">
<title>Node8</title>
<polygon fill="none" stroke="#bfbfbf" points="581.5,-.5 581.5,-19.5 633.5,-19.5 633.5,-.5 581.5,-.5"/>
<text text-anchor="middle" x="607.5" y="-7.5" font-family="FreeSans.ttf" font-size="10.00" fill="#000000">cassert</text>
</g>
<!-- Node3&#45;&gt;Node8 -->
<g id="edge19" class="edge">
<title>Node3&#45;&gt;Node8</title>
<path fill="none" stroke="#191970" d="M459.0477,-112.2837C443.4243,-98.9144 420.3012,-74.4119 434.5,-56 472.9458,-6.1465 510.7245,-36.4253 571.5,-20 571.5978,-19.9736 571.6958,-19.9471 571.794,-19.9205"/>
<polygon fill="#191970" stroke="#191970" points="572.4412,-23.372 581.1656,-17.3608 570.5967,-16.6194 572.4412,-23.372"/>
</g>
<!-- Node3&#45;&gt;Node16 -->
<g id="edge17" class="edge">
<title>Node3&#45;&gt;Node16</title>
<path fill="none" stroke="#191970" d="M419.8911,-112.4823C378.342,-104.4754 318.2898,-92.1308 257.5264,-76.0884"/>
<polygon fill="#191970" stroke="#191970" points="258.3354,-72.6818 247.7708,-73.482 256.5285,-79.4447 258.3354,-72.6818"/>
</g>
<!-- Node17 -->
<g id="node18" class="node">
<title>Node17</title>
<polygon fill="none" stroke="#bfbfbf" points="443.5,-56.5 443.5,-75.5 499.5,-75.5 499.5,-56.5 443.5,-56.5"/>
<text text-anchor="middle" x="471.5" y="-63.5" font-family="FreeSans.ttf" font-size="10.00" fill="#000000">sstream</text>
</g>
<!-- Node3&#45;&gt;Node17 -->
<g id="edge18" class="edge">
<title>Node3&#45;&gt;Node17</title>
<path fill="none" stroke="#191970" d="M471.5,-112.2455C471.5,-104.9382 471.5,-94.6944 471.5,-85.7046"/>
<polygon fill="#191970" stroke="#191970" points="475.0001,-85.6426 471.5,-75.6427 468.0001,-85.6427 475.0001,-85.6426"/>
</g>
<!-- Node18 -->
<g id="node19" class="node">
<title>Node18</title>
<polygon fill="none" stroke="#bfbfbf" points="655.5,-56.5 655.5,-75.5 705.5,-75.5 705.5,-56.5 655.5,-56.5"/>
<text text-anchor="middle" x="680.5" y="-63.5" font-family="FreeSans.ttf" font-size="10.00" fill="#000000">cstring</text>
</g>
<!-- Node3&#45;&gt;Node18 -->
<g id="edge20" class="edge">
<title>Node3&#45;&gt;Node18</title>
<path fill="none" stroke="#191970" d="M508.5554,-112.4312C543.8208,-103.2708 598.3503,-88.9667 645.5,-76 645.599,-75.9728 645.6982,-75.9455 645.7975,-75.9181"/>
<polygon fill="#191970" stroke="#191970" points="646.5915,-79.3304 655.2817,-73.2698 644.7089,-72.5883 646.5915,-79.3304"/>
</g>
<!-- Node5 -->
<g id="node6" class="node">
<title>Node5</title>
<polygon fill="none" stroke="#bfbfbf" points="510,-.5 510,-19.5 563,-19.5 563,-.5 510,-.5"/>
<text text-anchor="middle" x="536.5" y="-7.5" font-family="FreeSans.ttf" font-size="10.00" fill="#000000">cstddef</text>
</g>
<!-- Node4&#45;&gt;Node5 -->
<g id="edge5" class="edge">
<title>Node4&#45;&gt;Node5</title>
<path fill="none" stroke="#191970" d="M570.3583,-56.2455C564.6556,-48.4564 556.51,-37.3308 549.6375,-27.9439"/>
<polygon fill="#191970" stroke="#191970" points="552.2913,-25.6437 543.5598,-19.6427 546.6432,-29.7789 552.2913,-25.6437"/>
</g>
<!-- Node6 -->
<g id="node7" class="node">
<title>Node6</title>
<polygon fill="none" stroke="#bfbfbf" points="651.5,-.5 651.5,-19.5 731.5,-19.5 731.5,-.5 651.5,-.5"/>
<text text-anchor="middle" x="691.5" y="-7.5" font-family="FreeSans.ttf" font-size="10.00" fill="#000000">CoreExport.h</text>
</g>
<!-- Node4&#45;&gt;Node6 -->
<g id="edge6" class="edge">
<title>Node4&#45;&gt;Node6</title>
<path fill="none" stroke="#191970" d="M597.0973,-56.3733C615.2331,-47.4644 642.4135,-34.1127 662.9587,-24.0203"/>
<polygon fill="#191970" stroke="#191970" points="664.7261,-27.0517 672.1584,-19.5011 661.6397,-20.7688 664.7261,-27.0517"/>
</g>
<!-- Node7&#45;&gt;Node5 -->
<g id="edge11" class="edge">
<title>Node7&#45;&gt;Node5</title>
<path fill="none" stroke="#191970" d="M363.1967,-56.4408C396.3708,-47.7675 446.8069,-34.5031 499.844,-20.1548"/>
<polygon fill="#191970" stroke="#191970" points="501.0375,-23.4577 509.7739,-17.4639 499.2065,-16.7014 501.0375,-23.4577"/>
</g>
<!-- Node7&#45;&gt;Node8 -->
<g id="edge8" class="edge">
<title>Node7&#45;&gt;Node8</title>
<path fill="none" stroke="#191970" d="M385.2055,-56.4271C435.0212,-47.9582 508.2671,-34.6903 571.5,-20 571.5987,-19.9771 571.6976,-19.954 571.7966,-19.9309"/>
<polygon fill="#191970" stroke="#191970" points="572.3656,-23.3964 581.2204,-17.5789 570.6704,-16.6047 572.3656,-23.3964"/>
</g>
<!-- Node9 -->
<g id="node10" class="node">
<title>Node9</title>
<polygon fill="none" stroke="#bfbfbf" points="367.5,-.5 367.5,-19.5 431.5,-19.5 431.5,-.5 367.5,-.5"/>
<text text-anchor="middle" x="399.5" y="-7.5" font-family="FreeSans.ttf" font-size="10.00" fill="#000000">algorithm</text>
</g>
<!-- Node7&#45;&gt;Node9 -->
<g id="edge9" class="edge">
<title>Node7&#45;&gt;Node9</title>
<path fill="none" stroke="#191970" d="M339.2156,-56.2455C350.102,-47.8943 365.9883,-35.7076 378.72,-25.9408"/>
<polygon fill="#191970" stroke="#191970" points="381.1261,-28.5063 386.9301,-19.6427 376.8654,-22.9523 381.1261,-28.5063"/>
</g>
<!-- Node10 -->
<g id="node11" class="node">
<title>Node10</title>
<polygon fill="none" stroke="#bfbfbf" points="449.5,-.5 449.5,-19.5 491.5,-19.5 491.5,-.5 449.5,-.5"/>
<text text-anchor="middle" x="470.5" y="-7.5" font-family="FreeSans.ttf" font-size="10.00" fill="#000000">array</text>
</g>
<!-- Node7&#45;&gt;Node10 -->
<g id="edge10" class="edge">
<title>Node7&#45;&gt;Node10</title>
<path fill="none" stroke="#191970" d="M351.2545,-56.3733C375.7831,-46.8343 413.4096,-32.2018 439.8214,-21.9306"/>
<polygon fill="#191970" stroke="#191970" points="441.2927,-25.1138 449.3442,-18.2273 438.7555,-18.5898 441.2927,-25.1138"/>
</g>
<!-- Node11 -->
<g id="node12" class="node">
<title>Node11</title>
<polygon fill="none" stroke="#bfbfbf" points="0,-.5 0,-19.5 53,-19.5 53,-.5 0,-.5"/>
<text text-anchor="middle" x="26.5" y="-7.5" font-family="FreeSans.ttf" font-size="10.00" fill="#000000">iterator</text>
</g>
<!-- Node7&#45;&gt;Node11 -->
<g id="edge12" class="edge">
<title>Node7&#45;&gt;Node11</title>
<path fill="none" stroke="#191970" d="M265.875,-57.174C214.4566,-49.2938 138.5752,-36.7396 63.2961,-20.0009"/>
<polygon fill="#191970" stroke="#191970" points="63.6867,-16.5014 53.1623,-17.7211 62.1502,-23.3307 63.6867,-16.5014"/>
</g>
<!-- Node12 -->
<g id="node13" class="node">
<title>Node12</title>
<polygon fill="none" stroke="#bfbfbf" points="71.5,-.5 71.5,-19.5 115.5,-19.5 115.5,-.5 71.5,-.5"/>
<text text-anchor="middle" x="93.5" y="-7.5" font-family="FreeSans.ttf" font-size="10.00" fill="#000000">limits</text>
</g>
<!-- Node7&#45;&gt;Node12 -->
<g id="edge13" class="edge">
<title>Node7&#45;&gt;Node12</title>
<path fill="none" stroke="#191970" d="M279.2689,-56.4751C240.3124,-48.342 183.434,-35.834 125.4685,-20.1035"/>
<polygon fill="#191970" stroke="#191970" points="126.3501,-16.7161 115.7804,-17.4466 124.4986,-23.4668 126.3501,-16.7161"/>
</g>
<!-- Node13 -->
<g id="node14" class="node">
<title>Node13</title>
<polygon fill="none" stroke="#bfbfbf" points="134,-.5 134,-19.5 199,-19.5 199,-.5 134,-.5"/>
<text text-anchor="middle" x="166.5" y="-7.5" font-family="FreeSans.ttf" font-size="10.00" fill="#000000">stdexcept</text>
</g>
<!-- Node7&#45;&gt;Node13 -->
<g id="edge14" class="edge">
<title>Node7&#45;&gt;Node13</title>
<path fill="none" stroke="#191970" d="M298.995,-56.3733C272.6198,-47.1419 232.6149,-33.1402 203.4642,-22.9375"/>
<polygon fill="#191970" stroke="#191970" points="204.2409,-19.5012 193.6461,-19.5011 201.9284,-26.1082 204.2409,-19.5012"/>
</g>
<!-- Node14 -->
<g id="node15" class="node">
<title>Node14</title>
<polygon fill="none" stroke="#bfbfbf" points="217,-.5 217,-19.5 286,-19.5 286,-.5 217,-.5"/>
<text text-anchor="middle" x="251.5" y="-7.5" font-family="FreeSans.ttf" font-size="10.00" fill="#000000">type_traits</text>
</g>
<!-- Node7&#45;&gt;Node14 -->
<g id="edge15" class="edge">
<title>Node7&#45;&gt;Node14</title>
<path fill="none" stroke="#191970" d="M313.436,-56.2455C302.1438,-47.814 285.6155,-35.4729 272.4729,-25.6598"/>
<polygon fill="#191970" stroke="#191970" points="274.5211,-22.8211 264.4143,-19.6427 270.3331,-28.4301 274.5211,-22.8211"/>
</g>
<!-- Node15 -->
<g id="node16" class="node">
<title>Node15</title>
<polygon fill="none" stroke="#bfbfbf" points="304,-.5 304,-19.5 349,-19.5 349,-.5 304,-.5"/>
<text text-anchor="middle" x="326.5" y="-7.5" font-family="FreeSans.ttf" font-size="10.00" fill="#000000">utility</text>
</g>
<!-- Node7&#45;&gt;Node15 -->
<g id="edge16" class="edge">
<title>Node7&#45;&gt;Node15</title>
<path fill="none" stroke="#191970" d="M326.5,-56.2455C326.5,-48.9382 326.5,-38.6944 326.5,-29.7046"/>
<polygon fill="#191970" stroke="#191970" points="330.0001,-29.6426 326.5,-19.6427 323.0001,-29.6427 330.0001,-29.6426"/>
</g>
<!-- Node19&#45;&gt;Node3 -->
<g id="edge35" class="edge">
<title>Node19&#45;&gt;Node3</title>
<path fill="none" stroke="#191970" d="M430.501,-224.4369C467.5527,-216.3317 513.1137,-203.5578 524.5,-188 537.596,-170.1062 516.8412,-150.377 497.5903,-137.1926"/>
<polygon fill="#191970" stroke="#191970" points="499.2764,-134.1149 488.9781,-131.6255 495.4762,-139.9936 499.2764,-134.1149"/>
</g>
<!-- Node19&#45;&gt;Node16 -->
<g id="edge23" class="edge">
<title>Node19&#45;&gt;Node16</title>
<path fill="none" stroke="#191970" d="M370.7791,-224.4862C345.8029,-197.2396 273.7324,-118.6172 241.4588,-83.4096"/>
<polygon fill="#191970" stroke="#191970" points="243.8462,-80.8344 234.5089,-75.8279 238.6861,-85.5645 243.8462,-80.8344"/>
</g>
<!-- Node20 -->
<g id="node21" class="node">
<title>Node20</title>
<g id="a_node21"><a xlink:href="GeomVector3_8h.html" target="_top" xlink:title="iDynTree/Core/GeomVector3.h">
<polygon fill="none" stroke="#000000" points="353,-168.5 353,-187.5 516,-187.5 516,-168.5 353,-168.5"/>
<text text-anchor="middle" x="434.5" y="-175.5" font-family="FreeSans.ttf" font-size="10.00" fill="#000000">iDynTree/Core/GeomVector3.h</text>
</a>
</g>
</g>
<!-- Node19&#45;&gt;Node20 -->
<g id="edge24" class="edge">
<title>Node19&#45;&gt;Node20</title>
<path fill="none" stroke="#191970" d="M389.0803,-224.2455C397.0458,-216.1352 408.5641,-204.4075 418.0079,-194.7919"/>
<polygon fill="#191970" stroke="#191970" points="420.5195,-197.2297 425.0295,-187.6427 415.5253,-192.3247 420.5195,-197.2297"/>
</g>
<!-- Node21 -->
<g id="node22" class="node">
<title>Node21</title>
<g id="a_node22"><a xlink:href="RotationRaw_8h.html" target="_top" xlink:title="iDynTree/Core/RotationRaw.h">
<polygon fill="none" stroke="#000000" points="572.5,-168.5 572.5,-187.5 730.5,-187.5 730.5,-168.5 572.5,-168.5"/>
<text text-anchor="middle" x="651.5" y="-175.5" font-family="FreeSans.ttf" font-size="10.00" fill="#000000">iDynTree/Core/RotationRaw.h</text>
</a>
</g>
</g>
<!-- Node19&#45;&gt;Node21 -->
<g id="edge26" class="edge">
<title>Node19&#45;&gt;Node21</title>
<path fill="none" stroke="#191970" d="M425.9494,-224.4369C472.7935,-214.7925 545.1539,-199.8948 595.2262,-189.5858"/>
<polygon fill="#191970" stroke="#191970" points="596.1534,-192.9684 605.2422,-187.5237 594.7418,-186.1122 596.1534,-192.9684"/>
</g>
<!-- Node20&#45;&gt;Node3 -->
<g id="edge25" class="edge">
<title>Node20&#45;&gt;Node3</title>
<path fill="none" stroke="#191970" d="M440.9449,-168.2455C446.0382,-160.5367 453.2908,-149.5598 459.452,-140.2348"/>
<polygon fill="#191970" stroke="#191970" points="462.5365,-141.9155 465.1289,-131.6427 456.6962,-138.0566 462.5365,-141.9155"/>
</g>
<!-- Node21&#45;&gt;Node16 -->
<g id="edge34" class="edge">
<title>Node21&#45;&gt;Node16</title>
<path fill="none" stroke="#191970" d="M572.2199,-170.132C517.7133,-163.3625 444.1489,-151.5205 381.5,-132 361.377,-125.73 357.8221,-120.4204 338.5,-112 311.2676,-100.1324 279.959,-87.4621 257.2134,-78.4303"/>
<polygon fill="#191970" stroke="#191970" points="258.3054,-75.0984 247.7191,-74.6741 255.7302,-81.6076 258.3054,-75.0984"/>
</g>
<!-- Node21&#45;&gt;Node22 -->
<g id="edge27" class="edge">
<title>Node21&#45;&gt;Node22</title>
<path fill="none" stroke="#191970" d="M653.9386,-168.2455C655.7855,-160.8579 658.3828,-150.4689 660.6478,-141.4087"/>
<polygon fill="#191970" stroke="#191970" points="664.0594,-142.193 663.0893,-131.6427 657.2684,-140.4952 664.0594,-142.193"/>
</g>
<!-- Node22&#45;&gt;Node4 -->
<g id="edge28" class="edge">
<title>Node22&#45;&gt;Node4</title>
<path fill="none" stroke="#191970" d="M650.1716,-112.2455C636.6697,-103.6534 616.7878,-91.0014 601.2314,-81.1018"/>
<polygon fill="#191970" stroke="#191970" points="602.9685,-78.0587 592.6528,-75.6427 599.2103,-83.9643 602.9685,-78.0587"/>
</g>
<!-- Node22&#45;&gt;Node8 -->
<g id="edge29" class="edge">
<title>Node22&#45;&gt;Node8</title>
<path fill="none" stroke="#191970" d="M681.5654,-112.4064C700.6128,-99.7757 728.1579,-76.7381 714.5,-56 706.2044,-43.404 671.2422,-29.8676 643.5095,-20.7642"/>
<polygon fill="#191970" stroke="#191970" points="644.2729,-17.3338 633.682,-17.6208 642.1403,-24.001 644.2729,-17.3338"/>
</g>
<!-- Node22&#45;&gt;Node16 -->
<g id="edge31" class="edge">
<title>Node22&#45;&gt;Node16</title>
<path fill="none" stroke="#191970" d="M584.7761,-113.7975C482.051,-103.2337 312.2164,-85.307 257.5561,-75.6748"/>
<polygon fill="#191970" stroke="#191970" points="258.1914,-72.2329 247.7059,-73.751 256.8495,-79.1031 258.1914,-72.2329"/>
</g>
<!-- Node22&#45;&gt;Node17 -->
<g id="edge33" class="edge">
<title>Node22&#45;&gt;Node17</title>
<path fill="none" stroke="#191970" d="M632.1502,-112.3733C598.1326,-102.5537 545.416,-87.3366 509.7309,-77.0357"/>
<polygon fill="#191970" stroke="#191970" points="510.2739,-73.5496 499.6955,-74.1389 508.3325,-80.275 510.2739,-73.5496"/>
</g>
<!-- Node22&#45;&gt;Node18 -->
<g id="edge30" class="edge">
<title>Node22&#45;&gt;Node18</title>
<path fill="none" stroke="#191970" d="M668.1128,-112.2455C670.0916,-104.8579 672.8744,-94.4689 675.3012,-85.4087"/>
<polygon fill="#191970" stroke="#191970" points="678.7105,-86.2078 677.9171,-75.6427 671.9489,-84.3966 678.7105,-86.2078"/>
</g>
<!-- Node23 -->
<g id="node24" class="node">
<title>Node23</title>
<polygon fill="none" stroke="#bfbfbf" points="761.5,-56.5 761.5,-75.5 821.5,-75.5 821.5,-56.5 761.5,-56.5"/>
<text text-anchor="middle" x="791.5" y="-63.5" font-family="FreeSans.ttf" font-size="10.00" fill="#000000">iostream</text>
</g>
<!-- Node22&#45;&gt;Node23 -->
<g id="edge32" class="edge">
<title>Node22&#45;&gt;Node23</title>
<path fill="none" stroke="#191970" d="M687.1602,-112.3733C707.4772,-103.3435 738.064,-89.7494 760.875,-79.6111"/>
<polygon fill="#191970" stroke="#191970" points="762.4059,-82.7609 770.1225,-75.5011 759.5628,-76.3642 762.4059,-82.7609"/>
</g>
</g>
</svg>
