<?xml version="1.0" encoding="UTF-8" standalone="no"?>
<!DOCTYPE svg PUBLIC "-//W3C//DTD SVG 1.1//EN"
 "http://www.w3.org/Graphics/SVG/1.1/DTD/svg11.dtd">
<!-- Generated by graphviz version 2.40.1 (20161225.0304)
 -->
<!-- Title: Twist.cpp Pages: 1 -->
<svg width="1229pt" height="599pt"
 viewBox="0.00 0.00 1228.50 599.00" xmlns="http://www.w3.org/2000/svg" xmlns:xlink="http://www.w3.org/1999/xlink">
<g id="graph0" class="graph" transform="scale(1 1) rotate(0) translate(4 595)">
<title>Twist.cpp</title>
<!-- Node0 -->
<g id="node1" class="node">
<title>Node0</title>
<polygon fill="#bfbfbf" stroke="#000000" points="290,-571.5 290,-590.5 352,-590.5 352,-571.5 290,-571.5"/>
<text text-anchor="middle" x="321" y="-578.5" font-family="FreeSans.ttf" font-size="10.00" fill="#000000">Twist.cpp</text>
</g>
<!-- Node1 -->
<g id="node2" class="node">
<title>Node1</title>
<g id="a_node2"><a xlink:href="Twist_8h.html" target="_top" xlink:title="iDynTree/Core/Twist.h">
<polygon fill="none" stroke="#000000" points="263,-459.5 263,-478.5 385,-478.5 385,-459.5 263,-459.5"/>
<text text-anchor="middle" x="324" y="-466.5" font-family="FreeSans.ttf" font-size="10.00" fill="#000000">iDynTree/Core/Twist.h</text>
</a>
</g>
</g>
<!-- Node0&#45;&gt;Node1 -->
<g id="edge1" class="edge">
<title>Node0&#45;&gt;Node1</title>
<path fill="none" stroke="#191970" d="M321.2558,-571.4509C321.7451,-553.184 322.8226,-512.9553 323.4724,-488.6976"/>
<polygon fill="#191970" stroke="#191970" points="326.9758,-488.6151 323.7449,-478.5249 319.9783,-488.4276 326.9758,-488.6151"/>
</g>
<!-- Node27 -->
<g id="node28" class="node">
<title>Node27</title>
<g id="a_node28"><a xlink:href="Wrench_8h.html" target="_top" xlink:title="iDynTree/Core/Wrench.h">
<polygon fill="none" stroke="#000000" points="25.5,-459.5 25.5,-478.5 158.5,-478.5 158.5,-459.5 25.5,-459.5"/>
<text text-anchor="middle" x="92" y="-466.5" font-family="FreeSans.ttf" font-size="10.00" fill="#000000">iDynTree/Core/Wrench.h</text>
</a>
</g>
</g>
<!-- Node0&#45;&gt;Node27 -->
<g id="edge47" class="edge">
<title>Node0&#45;&gt;Node27</title>
<path fill="none" stroke="#191970" d="M289.6008,-579.0221C234.32,-574.8426 123.0818,-563.0825 98,-535 87.0065,-522.6913 86.4488,-503.4558 88.0837,-488.9199"/>
<polygon fill="#191970" stroke="#191970" points="91.5619,-489.3291 89.6248,-478.9129 84.6434,-488.2636 91.5619,-489.3291"/>
</g>
<!-- Node29 -->
<g id="node30" class="node">
<title>Node29</title>
<g id="a_node30"><a xlink:href="SpatialAcc_8h.html" target="_top" xlink:title="iDynTree/Core/SpatialAcc.h">
<polygon fill="none" stroke="#000000" points="349,-515.5 349,-534.5 497,-534.5 497,-515.5 349,-515.5"/>
<text text-anchor="middle" x="423" y="-522.5" font-family="FreeSans.ttf" font-size="10.00" fill="#000000">iDynTree/Core/SpatialAcc.h</text>
</a>
</g>
</g>
<!-- Node0&#45;&gt;Node29 -->
<g id="edge52" class="edge">
<title>Node0&#45;&gt;Node29</title>
<path fill="none" stroke="#191970" d="M338.767,-571.2455C354.7095,-562.4928 378.3259,-549.527 396.4989,-539.5496"/>
<polygon fill="#191970" stroke="#191970" points="398.3552,-542.5233 405.4366,-534.6427 394.9863,-536.3873 398.3552,-542.5233"/>
</g>
<!-- Node30 -->
<g id="node31" class="node">
<title>Node30</title>
<g id="a_node31"><a xlink:href="SpatialMomentum_8h.html" target="_top" xlink:title="iDynTree/Core/SpatialMomentum.h">
<polygon fill="none" stroke="#000000" points="107,-515.5 107,-534.5 293,-534.5 293,-515.5 107,-515.5"/>
<text text-anchor="middle" x="200" y="-522.5" font-family="FreeSans.ttf" font-size="10.00" fill="#000000">iDynTree/Core/SpatialMomentum.h</text>
</a>
</g>
</g>
<!-- Node0&#45;&gt;Node30 -->
<g id="edge54" class="edge">
<title>Node0&#45;&gt;Node30</title>
<path fill="none" stroke="#191970" d="M300.1994,-571.3733C280.7757,-562.3838 251.5776,-548.8706 229.7036,-538.7471"/>
<polygon fill="#191970" stroke="#191970" points="231.0745,-535.5249 220.5292,-534.5011 228.1344,-541.8776 231.0745,-535.5249"/>
</g>
<!-- Node31 -->
<g id="node32" class="node">
<title>Node31</title>
<g id="a_node32"><a xlink:href="PrivateUtils_8h.html" target="_top" xlink:title="iDynTree/Core/PrivateUtils.h">
<polygon fill="none" stroke="#000000" points="515,-515.5 515,-534.5 669,-534.5 669,-515.5 515,-515.5"/>
<text text-anchor="middle" x="592" y="-522.5" font-family="FreeSans.ttf" font-size="10.00" fill="#000000">iDynTree/Core/PrivateUtils.h</text>
</a>
</g>
</g>
<!-- Node0&#45;&gt;Node31 -->
<g id="edge56" class="edge">
<title>Node0&#45;&gt;Node31</title>
<path fill="none" stroke="#191970" d="M352.0871,-574.5761C396.8491,-565.3264 480.1838,-548.1059 535.8797,-536.5968"/>
<polygon fill="#191970" stroke="#191970" points="536.8574,-539.9688 545.9422,-534.5175 535.4408,-533.1136 536.8574,-539.9688"/>
</g>
<!-- Node2 -->
<g id="node3" class="node">
<title>Node2</title>
<g id="a_node3"><a xlink:href="SpatialMotionVector_8h.html" target="_top" xlink:title="iDynTree/Core/SpatialMotion\lVector.h">
<polygon fill="none" stroke="#000000" points="322.5,-392.5 322.5,-422.5 477.5,-422.5 477.5,-392.5 322.5,-392.5"/>
<text text-anchor="start" x="330.5" y="-410.5" font-family="FreeSans.ttf" font-size="10.00" fill="#000000">iDynTree/Core/SpatialMotion</text>
<text text-anchor="middle" x="400" y="-399.5" font-family="FreeSans.ttf" font-size="10.00" fill="#000000">Vector.h</text>
</a>
</g>
</g>
<!-- Node1&#45;&gt;Node2 -->
<g id="edge2" class="edge">
<title>Node1&#45;&gt;Node2</title>
<path fill="none" stroke="#191970" d="M335.875,-459.3906C345.875,-451.2986 360.5533,-439.4207 373.3438,-429.0705"/>
<polygon fill="#191970" stroke="#191970" points="375.8363,-431.5559 381.4083,-422.5446 371.433,-426.1144 375.8363,-431.5559"/>
</g>
<!-- Node3 -->
<g id="node4" class="node">
<title>Node3</title>
<g id="a_node4"><a xlink:href="VectorFixSize_8h.html" target="_top" xlink:title="iDynTree/Core/VectorFixSize.h">
<polygon fill="none" stroke="#000000" points="397.5,-112.5 397.5,-131.5 558.5,-131.5 558.5,-112.5 397.5,-112.5"/>
<text text-anchor="middle" x="478" y="-119.5" font-family="FreeSans.ttf" font-size="10.00" fill="#000000">iDynTree/Core/VectorFixSize.h</text>
</a>
</g>
</g>
<!-- Node2&#45;&gt;Node3 -->
<g id="edge3" class="edge">
<title>Node2&#45;&gt;Node3</title>
<path fill="none" stroke="#191970" d="M404.1936,-392.1503C417.3694,-343.9237 457.9283,-195.4676 472.6177,-141.7006"/>
<polygon fill="#191970" stroke="#191970" points="476.0812,-142.3036 475.3404,-131.7347 469.3286,-140.4587 476.0812,-142.3036"/>
</g>
<!-- Node19 -->
<g id="node20" class="node">
<title>Node19</title>
<g id="a_node20"><a xlink:href="GeomVector3_8h.html" target="_top" xlink:title="iDynTree/Core/GeomVector3.h">
<polygon fill="none" stroke="#000000" points="218.5,-168.5 218.5,-187.5 381.5,-187.5 381.5,-168.5 218.5,-168.5"/>
<text text-anchor="middle" x="300" y="-175.5" font-family="FreeSans.ttf" font-size="10.00" fill="#000000">iDynTree/Core/GeomVector3.h</text>
</a>
</g>
</g>
<!-- Node2&#45;&gt;Node19 -->
<g id="edge21" class="edge">
<title>Node2&#45;&gt;Node19</title>
<path fill="none" stroke="#191970" d="M393.4387,-392.4419C375.8998,-352.1901 327.9415,-242.1259 308.4274,-197.3409"/>
<polygon fill="#191970" stroke="#191970" points="311.5162,-195.6675 304.3129,-187.8981 305.0989,-198.4638 311.5162,-195.6675"/>
</g>
<!-- Node20 -->
<g id="node21" class="node">
<title>Node20</title>
<g id="a_node21"><a xlink:href="SpatialVector_8h.html" target="_top" xlink:title="iDynTree/Core/SpatialVector.h">
<polygon fill="none" stroke="#000000" points="180.5,-336.5 180.5,-355.5 341.5,-355.5 341.5,-336.5 180.5,-336.5"/>
<text text-anchor="middle" x="261" y="-343.5" font-family="FreeSans.ttf" font-size="10.00" fill="#000000">iDynTree/Core/SpatialVector.h</text>
</a>
</g>
</g>
<!-- Node2&#45;&gt;Node20 -->
<g id="edge23" class="edge">
<title>Node2&#45;&gt;Node20</title>
<path fill="none" stroke="#191970" d="M365.9968,-392.4554C343.3129,-382.419 313.7327,-369.3314 291.7521,-359.6061"/>
<polygon fill="#191970" stroke="#191970" points="293.1011,-356.3758 282.5401,-355.5303 290.2688,-362.7772 293.1011,-356.3758"/>
</g>
<!-- Node4 -->
<g id="node5" class="node">
<title>Node4</title>
<g id="a_node5"><a xlink:href="Utils_8h.html" target="_top" xlink:title="iDynTree/Core/Utils.h">
<polygon fill="none" stroke="#000000" points="72.5,-56.5 72.5,-75.5 191.5,-75.5 191.5,-56.5 72.5,-56.5"/>
<text text-anchor="middle" x="132" y="-63.5" font-family="FreeSans.ttf" font-size="10.00" fill="#000000">iDynTree/Core/Utils.h</text>
</a>
</g>
</g>
<!-- Node3&#45;&gt;Node4 -->
<g id="edge4" class="edge">
<title>Node3&#45;&gt;Node4</title>
<path fill="none" stroke="#191970" d="M418.9136,-112.4369C358.4544,-102.6516 264.5812,-87.4582 200.8095,-77.1368"/>
<polygon fill="#191970" stroke="#191970" points="201.2734,-73.6664 190.8427,-75.5237 200.155,-80.5765 201.2734,-73.6664"/>
</g>
<!-- Node7 -->
<g id="node8" class="node">
<title>Node7</title>
<g id="a_node8"><a xlink:href="Span_8h.html" target="_top" xlink:title="iDynTree/Core/Span.h">
<polygon fill="none" stroke="#000000" points="506.5,-56.5 506.5,-75.5 627.5,-75.5 627.5,-56.5 506.5,-56.5"/>
<text text-anchor="middle" x="567" y="-63.5" font-family="FreeSans.ttf" font-size="10.00" fill="#000000">iDynTree/Core/Span.h</text>
</a>
</g>
</g>
<!-- Node3&#45;&gt;Node7 -->
<g id="edge7" class="edge">
<title>Node3&#45;&gt;Node7</title>
<path fill="none" stroke="#191970" d="M493.5026,-112.2455C507.158,-103.6534 527.2657,-91.0014 542.9989,-81.1018"/>
<polygon fill="#191970" stroke="#191970" points="545.0751,-83.9307 551.675,-75.6427 541.3471,-78.006 545.0751,-83.9307"/>
</g>
<!-- Node8 -->
<g id="node9" class="node">
<title>Node8</title>
<polygon fill="none" stroke="#bfbfbf" points="288,-.5 288,-19.5 340,-19.5 340,-.5 288,-.5"/>
<text text-anchor="middle" x="314" y="-7.5" font-family="FreeSans.ttf" font-size="10.00" fill="#000000">cassert</text>
</g>
<!-- Node3&#45;&gt;Node8 -->
<g id="edge19" class="edge">
<title>Node3&#45;&gt;Node8</title>
<path fill="none" stroke="#191970" d="M477.929,-112.0694C477.2823,-97.7607 473.9709,-71.3791 459,-56 455.0644,-51.9571 391.7567,-32.81 350.1059,-20.5281"/>
<polygon fill="#191970" stroke="#191970" points="350.8716,-17.1051 340.2903,-17.6424 348.8971,-23.8209 350.8716,-17.1051"/>
</g>
<!-- Node16 -->
<g id="node17" class="node">
<title>Node16</title>
<polygon fill="none" stroke="#bfbfbf" points="787,-56.5 787,-75.5 831,-75.5 831,-56.5 787,-56.5"/>
<text text-anchor="middle" x="809" y="-63.5" font-family="FreeSans.ttf" font-size="10.00" fill="#000000">string</text>
</g>
<!-- Node3&#45;&gt;Node16 -->
<g id="edge17" class="edge">
<title>Node3&#45;&gt;Node16</title>
<path fill="none" stroke="#191970" d="M534.5248,-112.4369C604.2574,-100.6392 720.4544,-80.9805 776.6298,-71.4765"/>
<polygon fill="#191970" stroke="#191970" points="777.4387,-74.8895 786.7147,-69.7703 776.2709,-67.9876 777.4387,-74.8895"/>
</g>
<!-- Node17 -->
<g id="node18" class="node">
<title>Node17</title>
<polygon fill="none" stroke="#bfbfbf" points="326,-56.5 326,-75.5 382,-75.5 382,-56.5 326,-56.5"/>
<text text-anchor="middle" x="354" y="-63.5" font-family="FreeSans.ttf" font-size="10.00" fill="#000000">sstream</text>
</g>
<!-- Node3&#45;&gt;Node17 -->
<g id="edge18" class="edge">
<title>Node3&#45;&gt;Node17</title>
<path fill="none" stroke="#191970" d="M456.6836,-112.3733C436.7784,-103.3838 406.8564,-89.8706 384.44,-79.7471"/>
<polygon fill="#191970" stroke="#191970" points="385.5925,-76.4272 375.0382,-75.5011 382.7113,-82.8068 385.5925,-76.4272"/>
</g>
<!-- Node18 -->
<g id="node19" class="node">
<title>Node18</title>
<polygon fill="none" stroke="#bfbfbf" points="400,-56.5 400,-75.5 450,-75.5 450,-56.5 400,-56.5"/>
<text text-anchor="middle" x="425" y="-63.5" font-family="FreeSans.ttf" font-size="10.00" fill="#000000">cstring</text>
</g>
<!-- Node3&#45;&gt;Node18 -->
<g id="edge20" class="edge">
<title>Node3&#45;&gt;Node18</title>
<path fill="none" stroke="#191970" d="M468.7681,-112.2455C461.1683,-104.2155 450.2123,-92.6394 441.1632,-83.0781"/>
<polygon fill="#191970" stroke="#191970" points="443.542,-80.4998 434.1261,-75.6427 438.4579,-85.3115 443.542,-80.4998"/>
</g>
<!-- Node5 -->
<g id="node6" class="node">
<title>Node5</title>
<polygon fill="none" stroke="#bfbfbf" points="211.5,-.5 211.5,-19.5 264.5,-19.5 264.5,-.5 211.5,-.5"/>
<text text-anchor="middle" x="238" y="-7.5" font-family="FreeSans.ttf" font-size="10.00" fill="#000000">cstddef</text>
</g>
<!-- Node4&#45;&gt;Node5 -->
<g id="edge5" class="edge">
<title>Node4&#45;&gt;Node5</title>
<path fill="none" stroke="#191970" d="M150.4638,-56.2455C167.1074,-47.4527 191.7993,-34.4079 210.7192,-24.4125"/>
<polygon fill="#191970" stroke="#191970" points="212.5408,-27.4086 219.7478,-19.6427 209.2709,-21.2193 212.5408,-27.4086"/>
</g>
<!-- Node6 -->
<g id="node7" class="node">
<title>Node6</title>
<polygon fill="none" stroke="#bfbfbf" points="92,-.5 92,-19.5 172,-19.5 172,-.5 92,-.5"/>
<text text-anchor="middle" x="132" y="-7.5" font-family="FreeSans.ttf" font-size="10.00" fill="#000000">CoreExport.h</text>
</g>
<!-- Node4&#45;&gt;Node6 -->
<g id="edge6" class="edge">
<title>Node4&#45;&gt;Node6</title>
<path fill="none" stroke="#191970" d="M132,-56.2455C132,-48.9382 132,-38.6944 132,-29.7046"/>
<polygon fill="#191970" stroke="#191970" points="135.5001,-29.6426 132,-19.6427 128.5001,-29.6427 135.5001,-29.6426"/>
</g>
<!-- Node7&#45;&gt;Node5 -->
<g id="edge11" class="edge">
<title>Node7&#45;&gt;Node5</title>
<path fill="none" stroke="#191970" d="M506.3425,-57.7662C447.8829,-49.4882 357.0533,-35.7253 279,-20 277.5635,-19.7106 276.1012,-19.4054 274.626,-19.0886"/>
<polygon fill="#191970" stroke="#191970" points="275.3625,-15.6668 264.8368,-16.8747 273.8184,-22.4944 275.3625,-15.6668"/>
</g>
<!-- Node7&#45;&gt;Node8 -->
<g id="edge8" class="edge">
<title>Node7&#45;&gt;Node8</title>
<path fill="none" stroke="#191970" d="M516.9878,-56.4865C474.9057,-48.2471 412.9401,-35.5699 350.3652,-20.2207"/>
<polygon fill="#191970" stroke="#191970" points="350.8681,-16.7397 340.3201,-17.7346 349.1863,-23.5347 350.8681,-16.7397"/>
</g>
<!-- Node9 -->
<g id="node10" class="node">
<title>Node9</title>
<polygon fill="none" stroke="#bfbfbf" points="592,-.5 592,-19.5 656,-19.5 656,-.5 592,-.5"/>
<text text-anchor="middle" x="624" y="-7.5" font-family="FreeSans.ttf" font-size="10.00" fill="#000000">algorithm</text>
</g>
<!-- Node7&#45;&gt;Node9 -->
<g id="edge9" class="edge">
<title>Node7&#45;&gt;Node9</title>
<path fill="none" stroke="#191970" d="M576.9286,-56.2455C585.1838,-48.1352 597.1209,-36.4075 606.9082,-26.7919"/>
<polygon fill="#191970" stroke="#191970" points="609.5046,-29.1476 614.1851,-19.6427 604.5989,-24.1542 609.5046,-29.1476"/>
</g>
<!-- Node10 -->
<g id="node11" class="node">
<title>Node10</title>
<polygon fill="none" stroke="#bfbfbf" points="674,-.5 674,-19.5 716,-19.5 716,-.5 674,-.5"/>
<text text-anchor="middle" x="695" y="-7.5" font-family="FreeSans.ttf" font-size="10.00" fill="#000000">array</text>
</g>
<!-- Node7&#45;&gt;Node10 -->
<g id="edge10" class="edge">
<title>Node7&#45;&gt;Node10</title>
<path fill="none" stroke="#191970" d="M589.004,-56.3733C609.7685,-47.2888 641.0928,-33.5844 664.3093,-23.4272"/>
<polygon fill="#191970" stroke="#191970" points="665.9498,-26.5298 673.7085,-19.315 663.144,-20.1167 665.9498,-26.5298"/>
</g>
<!-- Node11 -->
<g id="node12" class="node">
<title>Node11</title>
<polygon fill="none" stroke="#bfbfbf" points="734.5,-.5 734.5,-19.5 787.5,-19.5 787.5,-.5 734.5,-.5"/>
<text text-anchor="middle" x="761" y="-7.5" font-family="FreeSans.ttf" font-size="10.00" fill="#000000">iterator</text>
</g>
<!-- Node7&#45;&gt;Node11 -->
<g id="edge12" class="edge">
<title>Node7&#45;&gt;Node11</title>
<path fill="none" stroke="#191970" d="M600.3498,-56.3733C634.8604,-46.4114 688.616,-30.8944 724.3098,-20.591"/>
<polygon fill="#191970" stroke="#191970" points="725.6791,-23.8387 734.3162,-17.7026 723.7377,-17.1133 725.6791,-23.8387"/>
</g>
<!-- Node12 -->
<g id="node13" class="node">
<title>Node12</title>
<polygon fill="none" stroke="#bfbfbf" points="806,-.5 806,-19.5 850,-19.5 850,-.5 806,-.5"/>
<text text-anchor="middle" x="828" y="-7.5" font-family="FreeSans.ttf" font-size="10.00" fill="#000000">limits</text>
</g>
<!-- Node7&#45;&gt;Node12 -->
<g id="edge13" class="edge">
<title>Node7&#45;&gt;Node12</title>
<path fill="none" stroke="#191970" d="M624.1255,-56.455C668.6327,-48.5912 732.1098,-36.4442 795.9128,-20.0729"/>
<polygon fill="#191970" stroke="#191970" points="796.9412,-23.422 805.7388,-17.5183 795.1798,-16.6472 796.9412,-23.422"/>
</g>
<!-- Node13 -->
<g id="node14" class="node">
<title>Node13</title>
<polygon fill="none" stroke="#bfbfbf" points="358.5,-.5 358.5,-19.5 423.5,-19.5 423.5,-.5 358.5,-.5"/>
<text text-anchor="middle" x="391" y="-7.5" font-family="FreeSans.ttf" font-size="10.00" fill="#000000">stdexcept</text>
</g>
<!-- Node7&#45;&gt;Node13 -->
<g id="edge14" class="edge">
<title>Node7&#45;&gt;Node13</title>
<path fill="none" stroke="#191970" d="M536.7445,-56.3733C507.3517,-47.021 462.5708,-32.7725 430.4066,-22.5385"/>
<polygon fill="#191970" stroke="#191970" points="431.4512,-19.198 420.8607,-19.5011 429.3287,-25.8685 431.4512,-19.198"/>
</g>
<!-- Node14 -->
<g id="node15" class="node">
<title>Node14</title>
<polygon fill="none" stroke="#bfbfbf" points="441.5,-.5 441.5,-19.5 510.5,-19.5 510.5,-.5 441.5,-.5"/>
<text text-anchor="middle" x="476" y="-7.5" font-family="FreeSans.ttf" font-size="10.00" fill="#000000">type_traits</text>
</g>
<!-- Node7&#45;&gt;Node14 -->
<g id="edge15" class="edge">
<title>Node7&#45;&gt;Node14</title>
<path fill="none" stroke="#191970" d="M551.149,-56.2455C537.1868,-47.6534 516.6272,-35.0014 500.5404,-25.1018"/>
<polygon fill="#191970" stroke="#191970" points="502.0203,-21.9029 491.6693,-19.6427 498.3516,-27.8645 502.0203,-21.9029"/>
</g>
<!-- Node15 -->
<g id="node16" class="node">
<title>Node15</title>
<polygon fill="none" stroke="#bfbfbf" points="528.5,-.5 528.5,-19.5 573.5,-19.5 573.5,-.5 528.5,-.5"/>
<text text-anchor="middle" x="551" y="-7.5" font-family="FreeSans.ttf" font-size="10.00" fill="#000000">utility</text>
</g>
<!-- Node7&#45;&gt;Node15 -->
<g id="edge16" class="edge">
<title>Node7&#45;&gt;Node15</title>
<path fill="none" stroke="#191970" d="M564.213,-56.2455C562.1023,-48.8579 559.134,-38.4689 556.5453,-29.4087"/>
<polygon fill="#191970" stroke="#191970" points="559.8677,-28.2964 553.755,-19.6427 553.137,-30.2195 559.8677,-28.2964"/>
</g>
<!-- Node19&#45;&gt;Node3 -->
<g id="edge22" class="edge">
<title>Node19&#45;&gt;Node3</title>
<path fill="none" stroke="#191970" d="M330.5993,-168.3733C360.3261,-159.021 405.6159,-144.7725 438.1456,-134.5385"/>
<polygon fill="#191970" stroke="#191970" points="439.3113,-137.8409 447.8,-131.5011 437.2105,-131.1636 439.3113,-137.8409"/>
</g>
<!-- Node20&#45;&gt;Node4 -->
<g id="edge43" class="edge">
<title>Node20&#45;&gt;Node4</title>
<path fill="none" stroke="#191970" d="M204.7404,-336.4491C150.3124,-323.6063 76,-294.9174 76,-234 76,-234 76,-234 76,-178 76,-141.4776 100.1172,-104.6564 116.6978,-83.6576"/>
<polygon fill="#191970" stroke="#191970" points="119.6115,-85.6242 123.25,-75.6738 114.2004,-81.1834 119.6115,-85.6242"/>
</g>
<!-- Node20&#45;&gt;Node17 -->
<g id="edge46" class="edge">
<title>Node20&#45;&gt;Node17</title>
<path fill="none" stroke="#191970" d="M249.2758,-336.2278C229.1098,-318.249 190,-277.7424 190,-234 190,-234 190,-234 190,-178 190,-147.4754 187.7081,-133.8725 209,-112 223.9023,-96.6914 277.8828,-82.3597 315.5954,-73.8845"/>
<polygon fill="#191970" stroke="#191970" points="316.7385,-77.217 325.755,-71.6534 315.237,-70.3799 316.7385,-77.217"/>
</g>
<!-- Node20&#45;&gt;Node19 -->
<g id="edge44" class="edge">
<title>Node20&#45;&gt;Node19</title>
<path fill="none" stroke="#191970" d="M263.2086,-336.4862C269.4002,-309.8144 287.0205,-233.9117 295.4279,-197.695"/>
<polygon fill="#191970" stroke="#191970" points="298.8665,-198.3603 297.7185,-187.8279 292.0478,-196.7774 298.8665,-198.3603"/>
</g>
<!-- Node21 -->
<g id="node22" class="node">
<title>Node21</title>
<g id="a_node22"><a xlink:href="Position_8h.html" target="_top" xlink:title="Position.h">
<polygon fill="none" stroke="#000000" points="701.5,-280.5 701.5,-299.5 766.5,-299.5 766.5,-280.5 701.5,-280.5"/>
<text text-anchor="middle" x="734" y="-287.5" font-family="FreeSans.ttf" font-size="10.00" fill="#000000">Position.h</text>
</a>
</g>
</g>
<!-- Node20&#45;&gt;Node21 -->
<g id="edge24" class="edge">
<title>Node20&#45;&gt;Node21</title>
<path fill="none" stroke="#191970" d="M341.5059,-336.4686C442.5854,-324.5015 612.289,-304.4098 691.2232,-295.0645"/>
<polygon fill="#191970" stroke="#191970" points="691.7727,-298.524 701.2918,-293.8724 690.9496,-291.5725 691.7727,-298.524"/>
</g>
<!-- Node23 -->
<g id="node24" class="node">
<title>Node23</title>
<g id="a_node24"><a xlink:href="Rotation_8h.html" target="_top" xlink:title="iDynTree/Core/Rotation.h">
<polygon fill="none" stroke="#000000" points="566.5,-224.5 566.5,-243.5 703.5,-243.5 703.5,-224.5 566.5,-224.5"/>
<text text-anchor="middle" x="635" y="-231.5" font-family="FreeSans.ttf" font-size="10.00" fill="#000000">iDynTree/Core/Rotation.h</text>
</a>
</g>
</g>
<!-- Node20&#45;&gt;Node23 -->
<g id="edge42" class="edge">
<title>Node20&#45;&gt;Node23</title>
<path fill="none" stroke="#191970" d="M292.887,-336.4509C360.51,-316.2002 518.2624,-268.9589 593.5651,-246.4083"/>
<polygon fill="#191970" stroke="#191970" points="594.6181,-249.7466 603.1937,-243.5249 592.6099,-243.0409 594.6181,-249.7466"/>
</g>
<!-- Node26 -->
<g id="node27" class="node">
<title>Node26</title>
<polygon fill="none" stroke="#bfbfbf" points="210,-56.5 210,-75.5 270,-75.5 270,-56.5 210,-56.5"/>
<text text-anchor="middle" x="240" y="-63.5" font-family="FreeSans.ttf" font-size="10.00" fill="#000000">iostream</text>
</g>
<!-- Node20&#45;&gt;Node26 -->
<g id="edge45" class="edge">
<title>Node20&#45;&gt;Node26</title>
<path fill="none" stroke="#191970" d="M256.5894,-336.2912C245.8092,-311.9624 218.3259,-246.1682 209,-188 203.6528,-154.6482 199.1309,-144.3039 209,-112 212.1409,-101.7192 218.4366,-91.6582 224.5388,-83.5799"/>
<polygon fill="#191970" stroke="#191970" points="227.363,-85.6535 230.9259,-75.6757 221.9184,-81.2539 227.363,-85.6535"/>
</g>
<!-- Node21&#45;&gt;Node16 -->
<g id="edge41" class="edge">
<title>Node21&#45;&gt;Node16</title>
<path fill="none" stroke="#191970" d="M766.9237,-286.8062C820.1279,-279.671 923.6199,-257.1673 969,-188 1005.7103,-132.047 897.8736,-91.5159 841.2733,-74.6596"/>
<polygon fill="#191970" stroke="#191970" points="841.9262,-71.2051 831.3475,-71.7893 839.9816,-77.9296 841.9262,-71.2051"/>
</g>
<!-- Node22 -->
<g id="node23" class="node">
<title>Node22</title>
<g id="a_node23"><a xlink:href="PositionRaw_8h.html" target="_top" xlink:title="iDynTree/Core/PositionRaw.h">
<polygon fill="none" stroke="#000000" points="804,-168.5 804,-187.5 960,-187.5 960,-168.5 804,-168.5"/>
<text text-anchor="middle" x="882" y="-175.5" font-family="FreeSans.ttf" font-size="10.00" fill="#000000">iDynTree/Core/PositionRaw.h</text>
</a>
</g>
</g>
<!-- Node21&#45;&gt;Node22 -->
<g id="edge25" class="edge">
<title>Node21&#45;&gt;Node22</title>
<path fill="none" stroke="#191970" d="M746.6184,-280.4509C772.1768,-261.1094 830.2707,-217.1465 861.3984,-193.5904"/>
<polygon fill="#191970" stroke="#191970" points="863.5515,-196.3503 869.4135,-187.5249 859.3274,-190.7684 863.5515,-196.3503"/>
</g>
<!-- Node21&#45;&gt;Node23 -->
<g id="edge28" class="edge">
<title>Node21&#45;&gt;Node23</title>
<path fill="none" stroke="#191970" d="M716.7555,-280.2455C701.4239,-271.5731 678.7801,-258.7645 661.2084,-248.825"/>
<polygon fill="#191970" stroke="#191970" points="662.4741,-245.5198 652.0469,-243.6427 659.0276,-251.6126 662.4741,-245.5198"/>
</g>
<!-- Node22&#45;&gt;Node3 -->
<g id="edge26" class="edge">
<title>Node22&#45;&gt;Node3</title>
<path fill="none" stroke="#191970" d="M813.009,-168.4369C741.9792,-158.5912 631.4512,-143.2705 556.9691,-132.9462"/>
<polygon fill="#191970" stroke="#191970" points="557.0924,-129.4299 546.7065,-131.5237 556.1312,-136.3636 557.0924,-129.4299"/>
</g>
<!-- Node22&#45;&gt;Node16 -->
<g id="edge27" class="edge">
<title>Node22&#45;&gt;Node16</title>
<path fill="none" stroke="#191970" d="M875.7761,-168.4509C863.6005,-149.7707 836.4557,-108.1238 820.7818,-84.0761"/>
<polygon fill="#191970" stroke="#191970" points="823.6008,-81.9913 815.2082,-75.5249 817.7365,-85.8137 823.6008,-81.9913"/>
</g>
<!-- Node23&#45;&gt;Node3 -->
<g id="edge40" class="edge">
<title>Node23&#45;&gt;Node3</title>
<path fill="none" stroke="#191970" d="M650.1635,-224.3193C668.8462,-211.1995 696.3414,-187.2067 681,-168 666.5509,-149.9104 615.7085,-138.4052 568.5247,-131.425"/>
<polygon fill="#191970" stroke="#191970" points="568.9192,-127.9459 558.5261,-130.0034 567.9338,-134.8762 568.9192,-127.9459"/>
</g>
<!-- Node23&#45;&gt;Node16 -->
<g id="edge29" class="edge">
<title>Node23&#45;&gt;Node16</title>
<path fill="none" stroke="#191970" d="M659.8917,-224.4573C694.581,-209.8696 757.018,-178.7065 791,-132 800.8141,-118.511 805.2775,-99.9566 807.3073,-85.9554"/>
<polygon fill="#191970" stroke="#191970" points="810.7997,-86.2219 808.4691,-75.8865 803.8458,-85.4194 810.7997,-86.2219"/>
</g>
<!-- Node23&#45;&gt;Node19 -->
<g id="edge30" class="edge">
<title>Node23&#45;&gt;Node19</title>
<path fill="none" stroke="#191970" d="M577.7921,-224.4369C519.3754,-214.6717 428.7401,-199.5207 367.0034,-189.2006"/>
<polygon fill="#191970" stroke="#191970" points="367.4122,-185.7204 356.972,-187.5237 366.258,-192.6246 367.4122,-185.7204"/>
</g>
<!-- Node24 -->
<g id="node25" class="node">
<title>Node24</title>
<g id="a_node25"><a xlink:href="RotationRaw_8h.html" target="_top" xlink:title="iDynTree/Core/RotationRaw.h">
<polygon fill="none" stroke="#000000" points="514,-168.5 514,-187.5 672,-187.5 672,-168.5 514,-168.5"/>
<text text-anchor="middle" x="593" y="-175.5" font-family="FreeSans.ttf" font-size="10.00" fill="#000000">iDynTree/Core/RotationRaw.h</text>
</a>
</g>
</g>
<!-- Node23&#45;&gt;Node24 -->
<g id="edge31" class="edge">
<title>Node23&#45;&gt;Node24</title>
<path fill="none" stroke="#191970" d="M627.6842,-224.2455C621.7821,-216.3761 613.3258,-205.101 606.2406,-195.6542"/>
<polygon fill="#191970" stroke="#191970" points="609.0321,-193.5427 600.232,-187.6427 603.432,-197.7427 609.0321,-193.5427"/>
</g>
<!-- Node24&#45;&gt;Node16 -->
<g id="edge39" class="edge">
<title>Node24&#45;&gt;Node16</title>
<path fill="none" stroke="#191970" d="M591.9171,-168.4644C590.8645,-154.1697 591.1851,-127.241 606,-112 629.3386,-87.99 725.2659,-74.6363 776.4578,-69.0926"/>
<polygon fill="#191970" stroke="#191970" points="777.078,-72.547 786.6604,-68.0272 776.3509,-65.5848 777.078,-72.547"/>
</g>
<!-- Node25 -->
<g id="node26" class="node">
<title>Node25</title>
<g id="a_node26"><a xlink:href="MatrixFixSize_8h.html" target="_top" xlink:title="iDynTree/Core/MatrixFixSize.h">
<polygon fill="none" stroke="#000000" points="218.5,-112.5 218.5,-131.5 379.5,-131.5 379.5,-112.5 218.5,-112.5"/>
<text text-anchor="middle" x="299" y="-119.5" font-family="FreeSans.ttf" font-size="10.00" fill="#000000">iDynTree/Core/MatrixFixSize.h</text>
</a>
</g>
</g>
<!-- Node24&#45;&gt;Node25 -->
<g id="edge32" class="edge">
<title>Node24&#45;&gt;Node25</title>
<path fill="none" stroke="#191970" d="M542.7937,-168.4369C491.9493,-158.7522 413.294,-143.7703 359.1487,-133.4569"/>
<polygon fill="#191970" stroke="#191970" points="359.4776,-129.9567 348.9993,-131.5237 358.1677,-136.8331 359.4776,-129.9567"/>
</g>
<!-- Node25&#45;&gt;Node4 -->
<g id="edge33" class="edge">
<title>Node25&#45;&gt;Node4</title>
<path fill="none" stroke="#191970" d="M270.2917,-112.3733C242.6423,-103.1016 200.6424,-89.0178 170.1834,-78.804"/>
<polygon fill="#191970" stroke="#191970" points="170.9276,-75.3621 160.3337,-75.5011 168.7021,-81.9989 170.9276,-75.3621"/>
</g>
<!-- Node25&#45;&gt;Node8 -->
<g id="edge34" class="edge">
<title>Node25&#45;&gt;Node8</title>
<path fill="none" stroke="#191970" d="M300.2789,-112.4509C302.7254,-94.184 308.1131,-53.9553 311.3619,-29.6976"/>
<polygon fill="#191970" stroke="#191970" points="314.8659,-29.901 312.7243,-19.5249 307.9278,-28.9718 314.8659,-29.901"/>
</g>
<!-- Node25&#45;&gt;Node16 -->
<g id="edge36" class="edge">
<title>Node25&#45;&gt;Node16</title>
<path fill="none" stroke="#191970" d="M379.529,-112.9406C382.3877,-112.6226 385.2183,-112.3082 388,-112 532.9278,-95.9404 705.9664,-77.1568 776.5853,-69.5076"/>
<polygon fill="#191970" stroke="#191970" points="777.0685,-72.9758 786.6335,-68.4195 776.3148,-66.0165 777.0685,-72.9758"/>
</g>
<!-- Node25&#45;&gt;Node17 -->
<g id="edge38" class="edge">
<title>Node25&#45;&gt;Node17</title>
<path fill="none" stroke="#191970" d="M308.5803,-112.2455C316.5458,-104.1352 328.0641,-92.4075 337.5079,-82.7919"/>
<polygon fill="#191970" stroke="#191970" points="340.0195,-85.2297 344.5295,-75.6427 335.0253,-80.3247 340.0195,-85.2297"/>
</g>
<!-- Node25&#45;&gt;Node18 -->
<g id="edge35" class="edge">
<title>Node25&#45;&gt;Node18</title>
<path fill="none" stroke="#191970" d="M320.6602,-112.3733C340.9772,-103.3435 371.564,-89.7494 394.375,-79.6111"/>
<polygon fill="#191970" stroke="#191970" points="395.9059,-82.7609 403.6225,-75.5011 393.0628,-76.3642 395.9059,-82.7609"/>
</g>
<!-- Node25&#45;&gt;Node26 -->
<g id="edge37" class="edge">
<title>Node25&#45;&gt;Node26</title>
<path fill="none" stroke="#191970" d="M288.723,-112.2455C280.1782,-104.1352 267.8222,-92.4075 257.6915,-82.7919"/>
<polygon fill="#191970" stroke="#191970" points="259.8218,-79.9884 250.1592,-75.6427 255.0028,-85.0655 259.8218,-79.9884"/>
</g>
<!-- Node28 -->
<g id="node29" class="node">
<title>Node28</title>
<g id="a_node29"><a xlink:href="SpatialForceVector_8h.html" target="_top" xlink:title="iDynTree/Core/SpatialForce\lVector.h">
<polygon fill="none" stroke="#000000" points="99,-392.5 99,-422.5 247,-422.5 247,-392.5 99,-392.5"/>
<text text-anchor="start" x="107" y="-410.5" font-family="FreeSans.ttf" font-size="10.00" fill="#000000">iDynTree/Core/SpatialForce</text>
<text text-anchor="middle" x="173" y="-399.5" font-family="FreeSans.ttf" font-size="10.00" fill="#000000">Vector.h</text>
</a>
</g>
</g>
<!-- Node27&#45;&gt;Node28 -->
<g id="edge48" class="edge">
<title>Node27&#45;&gt;Node28</title>
<path fill="none" stroke="#191970" d="M104.6563,-459.3906C115.4156,-451.2215 131.2565,-439.1941 144.9791,-428.7752"/>
<polygon fill="#191970" stroke="#191970" points="147.3372,-431.3793 153.1852,-422.5446 143.1042,-425.8042 147.3372,-431.3793"/>
</g>
<!-- Node28&#45;&gt;Node3 -->
<g id="edge49" class="edge">
<title>Node28&#45;&gt;Node3</title>
<path fill="none" stroke="#191970" d="M159.612,-392.3802C142.2045,-371.1062 114,-330.403 114,-290 114,-290 114,-290 114,-234 114,-182.5883 161.4152,-187.4641 209,-168 241.1177,-154.8626 324.5514,-141.6989 390.0607,-132.8402"/>
<polygon fill="#191970" stroke="#191970" points="390.5509,-136.3059 399.9984,-131.5106 389.6225,-129.3678 390.5509,-136.3059"/>
</g>
<!-- Node28&#45;&gt;Node19 -->
<g id="edge50" class="edge">
<title>Node28&#45;&gt;Node19</title>
<path fill="none" stroke="#191970" d="M169.5013,-392.4941C166.7485,-377.6761 164.3717,-354.5989 171,-336 192.7323,-275.0192 249.2103,-220.5597 279.7268,-194.4051"/>
<polygon fill="#191970" stroke="#191970" points="282.1885,-196.9083 287.5952,-187.7968 277.6866,-191.5479 282.1885,-196.9083"/>
</g>
<!-- Node28&#45;&gt;Node20 -->
<g id="edge51" class="edge">
<title>Node28&#45;&gt;Node20</title>
<path fill="none" stroke="#191970" d="M194.7528,-392.2977C208.1968,-382.9022 225.4011,-370.8787 238.9078,-361.4395"/>
<polygon fill="#191970" stroke="#191970" points="240.9811,-364.2605 247.1729,-355.6633 236.9712,-358.5228 240.9811,-364.2605"/>
</g>
<!-- Node29&#45;&gt;Node2 -->
<g id="edge53" class="edge">
<title>Node29&#45;&gt;Node2</title>
<path fill="none" stroke="#191970" d="M421.1178,-515.3845C417.61,-497.4644 409.9707,-458.4375 404.9069,-432.5681"/>
<polygon fill="#191970" stroke="#191970" points="408.334,-431.8557 402.9781,-422.7143 401.4644,-433.2004 408.334,-431.8557"/>
</g>
<!-- Node30&#45;&gt;Node28 -->
<g id="edge55" class="edge">
<title>Node30&#45;&gt;Node28</title>
<path fill="none" stroke="#191970" d="M197.7905,-515.3845C193.6727,-497.4644 184.7048,-458.4375 178.7603,-432.5681"/>
<polygon fill="#191970" stroke="#191970" points="182.1467,-431.6765 176.4961,-422.7143 175.3245,-433.2442 182.1467,-431.6765"/>
</g>
<!-- Node32 -->
<g id="node33" class="node">
<title>Node32</title>
<polygon fill="none" stroke="#bfbfbf" points="778.5,-398 778.5,-417 855.5,-417 855.5,-398 778.5,-398"/>
<text text-anchor="middle" x="817" y="-405" font-family="FreeSans.ttf" font-size="10.00" fill="#000000">Eigen/Dense</text>
</g>
<!-- Node31&#45;&gt;Node32 -->
<g id="edge57" class="edge">
<title>Node31&#45;&gt;Node32</title>
<path fill="none" stroke="#191970" d="M610.4127,-515.3845C649.9831,-494.7199 743.2984,-445.9886 789.7484,-421.7314"/>
<polygon fill="#191970" stroke="#191970" points="791.4045,-424.8151 798.6484,-417.0836 788.1642,-418.6102 791.4045,-424.8151"/>
</g>
<!-- Node33 -->
<g id="node34" class="node">
<title>Node33</title>
<g id="a_node34"><a xlink:href="EigenHelpers_8h.html" target="_top" xlink:title="iDynTree/Core/EigenHelpers.h">
<polygon fill="none" stroke="#000000" points="457.5,-459.5 457.5,-478.5 618.5,-478.5 618.5,-459.5 457.5,-459.5"/>
<text text-anchor="middle" x="538" y="-466.5" font-family="FreeSans.ttf" font-size="10.00" fill="#000000">iDynTree/Core/EigenHelpers.h</text>
</a>
</g>
</g>
<!-- Node31&#45;&gt;Node33 -->
<g id="edge58" class="edge">
<title>Node31&#45;&gt;Node33</title>
<path fill="none" stroke="#191970" d="M582.5939,-515.2455C574.8507,-507.2155 563.688,-495.6394 554.4682,-486.0781"/>
<polygon fill="#191970" stroke="#191970" points="556.7591,-483.4117 547.2983,-478.6427 551.7202,-488.2706 556.7591,-483.4117"/>
</g>
<!-- Node33&#45;&gt;Node2 -->
<g id="edge67" class="edge">
<title>Node33&#45;&gt;Node2</title>
<path fill="none" stroke="#191970" d="M516.4375,-459.3906C496.8962,-450.682 467.5163,-437.5888 443.1584,-426.7336"/>
<polygon fill="#191970" stroke="#191970" points="444.3174,-423.4183 433.7586,-422.5446 441.4679,-429.8122 444.3174,-423.4183"/>
</g>
<!-- Node33&#45;&gt;Node3 -->
<g id="edge63" class="edge">
<title>Node33&#45;&gt;Node3</title>
<path fill="none" stroke="#191970" d="M533.8192,-459.3247C525.3575,-438.8349 507,-389.3832 507,-346 507,-346 507,-346 507,-290 507,-235.6969 492.1049,-172.9405 483.6646,-141.7386"/>
<polygon fill="#191970" stroke="#191970" points="486.9371,-140.4423 480.8867,-131.745 480.1928,-142.3171 486.9371,-140.4423"/>
</g>
<!-- Node33&#45;&gt;Node4 -->
<g id="edge74" class="edge">
<title>Node33&#45;&gt;Node4</title>
<path fill="none" stroke="#191970" d="M457.4315,-463.3399C322.5765,-453.6003 64.1237,-433.6903 47,-423 12.9898,-401.7676 0,-386.0937 0,-346 0,-346 0,-346 0,-178 0,-128.2672 55.1527,-96.032 94.1575,-79.4533"/>
<polygon fill="#191970" stroke="#191970" points="95.7411,-82.5876 103.6827,-75.5746 93.1011,-76.1045 95.7411,-82.5876"/>
</g>
<!-- Node33&#45;&gt;Node25 -->
<g id="edge66" class="edge">
<title>Node33&#45;&gt;Node25</title>
<path fill="none" stroke="#191970" d="M457.3141,-462.4913C332.5642,-452.1753 105.5119,-432.2893 90,-423 54.5718,-401.7839 38,-387.2951 38,-346 38,-346 38,-346 38,-234 38,-189.5238 167.6091,-152.1137 244.1591,-133.8971"/>
<polygon fill="#191970" stroke="#191970" points="245.1945,-137.2494 254.1325,-131.5607 243.5977,-130.434 245.1945,-137.2494"/>
</g>
<!-- Node33&#45;&gt;Node28 -->
<g id="edge68" class="edge">
<title>Node33&#45;&gt;Node28</title>
<path fill="none" stroke="#191970" d="M481.3692,-459.4581C421.3464,-449.3447 325.9067,-433.2637 257.0948,-421.6694"/>
<polygon fill="#191970" stroke="#191970" points="257.5854,-418.2028 247.1428,-419.9926 256.4222,-425.1055 257.5854,-418.2028"/>
</g>
<!-- Node33&#45;&gt;Node32 -->
<g id="edge59" class="edge">
<title>Node33&#45;&gt;Node32</title>
<path fill="none" stroke="#191970" d="M591.2508,-459.4645C637.2269,-450.9215 705.31,-437.5278 764,-423 768.0306,-422.0023 772.2145,-420.8985 776.3844,-419.753"/>
<polygon fill="#191970" stroke="#191970" points="777.3375,-423.1209 786.0101,-417.0352 775.4353,-416.3843 777.3375,-423.1209"/>
</g>
<!-- Node34 -->
<g id="node35" class="node">
<title>Node34</title>
<g id="a_node35"><a xlink:href="VectorDynSize_8h.html" target="_top" xlink:title="iDynTree/Core/VectorDynSize.h">
<polygon fill="none" stroke="#000000" points="614.5,-112.5 614.5,-131.5 781.5,-131.5 781.5,-112.5 614.5,-112.5"/>
<text text-anchor="middle" x="698" y="-119.5" font-family="FreeSans.ttf" font-size="10.00" fill="#000000">iDynTree/Core/VectorDynSize.h</text>
</a>
</g>
</g>
<!-- Node33&#45;&gt;Node34 -->
<g id="edge60" class="edge">
<title>Node33&#45;&gt;Node34</title>
<path fill="none" stroke="#191970" d="M537.6723,-459.3091C537.3591,-435.894 539.4541,-375.2783 567,-336 611.0378,-273.2055 675.9433,-311.1511 713,-244 731.1241,-211.1571 717.2863,-165.8963 706.8344,-140.7558"/>
<polygon fill="#191970" stroke="#191970" points="710.0336,-139.336 702.7996,-131.5953 703.6275,-142.1577 710.0336,-139.336"/>
</g>
<!-- Node35 -->
<g id="node36" class="node">
<title>Node35</title>
<g id="a_node36"><a xlink:href="MatrixDynSize_8h.html" target="_top" xlink:title="iDynTree/Core/MatrixDynSize.h">
<polygon fill="none" stroke="#000000" points="1053.5,-280.5 1053.5,-299.5 1220.5,-299.5 1220.5,-280.5 1053.5,-280.5"/>
<text text-anchor="middle" x="1137" y="-287.5" font-family="FreeSans.ttf" font-size="10.00" fill="#000000">iDynTree/Core/MatrixDynSize.h</text>
</a>
</g>
</g>
<!-- Node33&#45;&gt;Node35 -->
<g id="edge64" class="edge">
<title>Node33&#45;&gt;Node35</title>
<path fill="none" stroke="#191970" d="M565.3589,-459.4324C608.6058,-444.4191 695.5073,-414.6987 770,-392 884.5577,-357.0931 1020.6907,-320.5304 1090.5483,-302.1223"/>
<polygon fill="#191970" stroke="#191970" points="1091.5832,-305.4692 1100.3639,-299.5404 1089.8025,-298.6995 1091.5832,-305.4692"/>
</g>
<!-- Node36 -->
<g id="node37" class="node">
<title>Node36</title>
<g id="a_node37"><a xlink:href="Transform_8h.html" target="_top" xlink:title="iDynTree/Core/Transform.h">
<polygon fill="none" stroke="#000000" points="576,-336.5 576,-355.5 722,-355.5 722,-336.5 576,-336.5"/>
<text text-anchor="middle" x="649" y="-343.5" font-family="FreeSans.ttf" font-size="10.00" fill="#000000">iDynTree/Core/Transform.h</text>
</a>
</g>
</g>
<!-- Node33&#45;&gt;Node36 -->
<g id="edge69" class="edge">
<title>Node33&#45;&gt;Node36</title>
<path fill="none" stroke="#191970" d="M546.71,-459.3484C565.4334,-438.6008 609.7333,-389.5117 633.4221,-363.262"/>
<polygon fill="#191970" stroke="#191970" points="636.2292,-365.3756 640.3305,-355.6068 631.0324,-360.6858 636.2292,-365.3756"/>
</g>
<!-- Node34&#45;&gt;Node7 -->
<g id="edge61" class="edge">
<title>Node34&#45;&gt;Node7</title>
<path fill="none" stroke="#191970" d="M675.4803,-112.3733C654.2628,-103.3032 622.2724,-89.6279 598.5231,-79.4755"/>
<polygon fill="#191970" stroke="#191970" points="599.7967,-76.2136 589.2258,-75.5011 597.0452,-82.6502 599.7967,-76.2136"/>
</g>
<!-- Node34&#45;&gt;Node16 -->
<g id="edge62" class="edge">
<title>Node34&#45;&gt;Node16</title>
<path fill="none" stroke="#191970" d="M717.0816,-112.3733C734.7402,-103.4644 761.2053,-90.1127 781.2098,-80.0203"/>
<polygon fill="#191970" stroke="#191970" points="782.8158,-83.1303 790.1674,-75.5011 779.6628,-76.8806 782.8158,-83.1303"/>
</g>
<!-- Node35&#45;&gt;Node16 -->
<g id="edge65" class="edge">
<title>Node35&#45;&gt;Node16</title>
<path fill="none" stroke="#191970" d="M1134.8203,-280.3806C1127.4364,-250.1467 1100.3852,-156.4177 1040,-112 1008.745,-89.0097 896.8918,-74.8269 841.1081,-69.0272"/>
<polygon fill="#191970" stroke="#191970" points="841.3593,-65.5348 831.0577,-68.0102 840.6545,-72.4992 841.3593,-65.5348"/>
</g>
<!-- Node36&#45;&gt;Node16 -->
<g id="edge73" class="edge">
<title>Node36&#45;&gt;Node16</title>
<path fill="none" stroke="#191970" d="M722.1364,-339.2624C831.7701,-327.111 1026,-296.731 1026,-234 1026,-234 1026,-234 1026,-178 1026,-95.8117 901.5606,-73.8736 841.1496,-68.0659"/>
<polygon fill="#191970" stroke="#191970" points="841.2666,-64.563 831.0013,-67.1847 840.661,-71.5367 841.2666,-64.563"/>
</g>
<!-- Node36&#45;&gt;Node21 -->
<g id="edge70" class="edge">
<title>Node36&#45;&gt;Node21</title>
<path fill="none" stroke="#191970" d="M663.8059,-336.2455C676.7256,-327.7337 695.6931,-315.2375 710.6552,-305.3801"/>
<polygon fill="#191970" stroke="#191970" points="712.9387,-308.067 719.3638,-299.6427 709.0876,-302.2216 712.9387,-308.067"/>
</g>
<!-- Node36&#45;&gt;Node23 -->
<g id="edge71" class="edge">
<title>Node36&#45;&gt;Node23</title>
<path fill="none" stroke="#191970" d="M647.8064,-336.4509C645.523,-318.184 640.4944,-277.9553 637.4622,-253.6976"/>
<polygon fill="#191970" stroke="#191970" points="640.904,-253.0135 636.1906,-243.5249 633.9581,-253.8818 640.904,-253.0135"/>
</g>
<!-- Node36&#45;&gt;Node25 -->
<g id="edge72" class="edge">
<title>Node36&#45;&gt;Node25</title>
<path fill="none" stroke="#191970" d="M636.4649,-336.4829C599.7053,-308.7745 488.5626,-226.4239 390,-168 370.3415,-156.3472 347.369,-144.7494 329.4238,-136.1144"/>
<polygon fill="#191970" stroke="#191970" points="330.5581,-132.778 320.0245,-131.6404 327.5495,-139.0985 330.5581,-132.778"/>
</g>
</g>
</svg>
