<?xml version="1.0" encoding="UTF-8" standalone="no"?>
<!DOCTYPE svg PUBLIC "-//W3C//DTD SVG 1.1//EN"
 "http://www.w3.org/Graphics/SVG/1.1/DTD/svg11.dtd">
<!-- Generated by graphviz version 2.40.1 (20161225.0304)
 -->
<!-- Title: URDFModelExport.cpp Pages: 1 -->
<svg width="2410pt" height="744pt"
 viewBox="0.00 0.00 2410.00 744.00" xmlns="http://www.w3.org/2000/svg" xmlns:xlink="http://www.w3.org/1999/xlink">
<g id="graph0" class="graph" transform="scale(1 1) rotate(0) translate(4 740)">
<title>URDFModelExport.cpp</title>
<!-- Node0 -->
<g id="node1" class="node">
<title>Node0</title>
<polygon fill="#bfbfbf" stroke="#000000" points="1642.5,-716.5 1642.5,-735.5 1767.5,-735.5 1767.5,-716.5 1642.5,-716.5"/>
<text text-anchor="middle" x="1705" y="-723.5" font-family="FreeSans.ttf" font-size="10.00" fill="#000000">URDFModelExport.cpp</text>
</g>
<!-- Node1 -->
<g id="node2" class="node">
<title>Node1</title>
<g id="a_node2"><a xlink:href="URDFModelExport_8h.html" target="_top" xlink:title="URDFModelExport.h">
<polygon fill="none" stroke="#000000" points="199.5,-660.5 199.5,-679.5 312.5,-679.5 312.5,-660.5 199.5,-660.5"/>
<text text-anchor="middle" x="256" y="-667.5" font-family="FreeSans.ttf" font-size="10.00" fill="#000000">URDFModelExport.h</text>
</a>
</g>
</g>
<!-- Node0&#45;&gt;Node1 -->
<g id="edge1" class="edge">
<title>Node0&#45;&gt;Node1</title>
<path fill="none" stroke="#191970" d="M1642.2732,-723.5758C1405.443,-714.4229 566.7416,-682.0093 322.9317,-672.5867"/>
<polygon fill="#191970" stroke="#191970" points="322.9253,-669.084 312.7975,-672.1951 322.6549,-676.0787 322.9253,-669.084"/>
</g>
<!-- Node2 -->
<g id="node3" class="node">
<title>Node2</title>
<polygon fill="none" stroke="#bfbfbf" points="750,-56.5 750,-75.5 794,-75.5 794,-56.5 750,-56.5"/>
<text text-anchor="middle" x="772" y="-63.5" font-family="FreeSans.ttf" font-size="10.00" fill="#000000">string</text>
</g>
<!-- Node0&#45;&gt;Node2 -->
<g id="edge118" class="edge">
<title>Node0&#45;&gt;Node2</title>
<path fill="none" stroke="#191970" d="M1642.2599,-725.2184C1374.4467,-721.7293 334.1079,-706.5719 190,-680 102.0879,-663.79 0,-703.3941 0,-614 0,-614 0,-614 0,-178 0,-138.6547 23.6212,-129.2159 59,-112 120.7022,-81.9747 608.4475,-69.4871 739.616,-66.652"/>
<polygon fill="#191970" stroke="#191970" points="739.8921,-70.1471 749.8156,-66.4356 739.7436,-63.1486 739.8921,-70.1471"/>
</g>
<!-- Node4 -->
<g id="node5" class="node">
<title>Node4</title>
<g id="a_node5"><a xlink:href="Model_8h.html" target="_top" xlink:title="iDynTree/Model/Model.h">
<polygon fill="none" stroke="#000000" points="528.5,-487 528.5,-506 661.5,-506 661.5,-487 528.5,-487"/>
<text text-anchor="middle" x="595" y="-494" font-family="FreeSans.ttf" font-size="10.00" fill="#000000">iDynTree/Model/Model.h</text>
</a>
</g>
</g>
<!-- Node0&#45;&gt;Node4 -->
<g id="edge83" class="edge">
<title>Node0&#45;&gt;Node4</title>
<path fill="none" stroke="#191970" d="M1642.4892,-724.2513C1499.5877,-719.8382 1152.6127,-706.6537 1039,-680 872.9854,-641.0527 688.9575,-547.2796 621.5694,-511.0901"/>
<polygon fill="#191970" stroke="#191970" points="622.9506,-507.8581 612.4892,-506.1818 619.6219,-514.016 622.9506,-507.8581"/>
</g>
<!-- Node9 -->
<g id="node9" class="node">
<title>Node9</title>
<g id="a_node9"><a xlink:href="SpatialInertia_8h.html" target="_top" xlink:title="iDynTree/Core/SpatialInertia.h">
<polygon fill="none" stroke="#000000" points="1294,-358.5 1294,-377.5 1456,-377.5 1456,-358.5 1294,-358.5"/>
<text text-anchor="middle" x="1375" y="-365.5" font-family="FreeSans.ttf" font-size="10.00" fill="#000000">iDynTree/Core/SpatialInertia.h</text>
</a>
</g>
</g>
<!-- Node0&#45;&gt;Node9 -->
<g id="edge80" class="edge">
<title>Node0&#45;&gt;Node9</title>
<path fill="none" stroke="#191970" d="M1702.1965,-716.2066C1696.9113,-696.8521 1686,-652.2612 1686,-614 1686,-614 1686,-614 1686,-496.5 1686,-442.4429 1523.4761,-399.3894 1433.4054,-379.68"/>
<polygon fill="#191970" stroke="#191970" points="1434.1071,-376.2509 1423.5938,-377.5625 1432.6303,-383.0933 1434.1071,-376.2509"/>
</g>
<!-- Node20 -->
<g id="node11" class="node">
<title>Node20</title>
<g id="a_node11"><a xlink:href="VectorFixSize_8h.html" target="_top" xlink:title="iDynTree/Core/VectorFixSize.h">
<polygon fill="none" stroke="#000000" points="1915.5,-112.5 1915.5,-131.5 2076.5,-131.5 2076.5,-112.5 1915.5,-112.5"/>
<text text-anchor="middle" x="1996" y="-119.5" font-family="FreeSans.ttf" font-size="10.00" fill="#000000">iDynTree/Core/VectorFixSize.h</text>
</a>
</g>
</g>
<!-- Node0&#45;&gt;Node20 -->
<g id="edge82" class="edge">
<title>Node0&#45;&gt;Node20</title>
<path fill="none" stroke="#191970" d="M1726.8353,-716.458C1824.4495,-673.297 2218.7354,-493.4379 2280,-378 2307.7248,-325.7596 2533.9232,-465.3533 2276,-168 2263.508,-153.5982 2163.7426,-139.7939 2086.8176,-131.1304"/>
<polygon fill="#191970" stroke="#191970" points="2086.9299,-127.6214 2076.6043,-129.9949 2086.1564,-134.5785 2086.9299,-127.6214"/>
</g>
<!-- Node41 -->
<g id="node24" class="node">
<title>Node41</title>
<g id="a_node24"><a xlink:href="Transform_8h.html" target="_top" xlink:title="iDynTree/Core/Transform.h">
<polygon fill="none" stroke="#000000" points="1474,-358.5 1474,-377.5 1620,-377.5 1620,-358.5 1474,-358.5"/>
<text text-anchor="middle" x="1547" y="-365.5" font-family="FreeSans.ttf" font-size="10.00" fill="#000000">iDynTree/Core/Transform.h</text>
</a>
</g>
</g>
<!-- Node0&#45;&gt;Node41 -->
<g id="edge81" class="edge">
<title>Node0&#45;&gt;Node41</title>
<path fill="none" stroke="#191970" d="M1707.8035,-716.2066C1713.0887,-696.8521 1724,-652.2612 1724,-614 1724,-614 1724,-614 1724,-496.5 1724,-458.3133 1726.8808,-441.1228 1700,-414 1686.5575,-400.4365 1643.3118,-388.1558 1606.2125,-379.7019"/>
<polygon fill="#191970" stroke="#191970" points="1606.9609,-376.2829 1596.4396,-377.529 1605.4416,-383.116 1606.9609,-376.2829"/>
</g>
<!-- Node48 -->
<g id="node35" class="node">
<title>Node48</title>
<g id="a_node35"><a xlink:href="EigenHelpers_8h.html" target="_top" xlink:title="iDynTree/Core/EigenHelpers.h">
<polygon fill="none" stroke="#000000" points="2010.5,-420 2010.5,-439 2171.5,-439 2171.5,-420 2010.5,-420"/>
<text text-anchor="middle" x="2091" y="-427" font-family="FreeSans.ttf" font-size="10.00" fill="#000000">iDynTree/Core/EigenHelpers.h</text>
</a>
</g>
</g>
<!-- Node0&#45;&gt;Node48 -->
<g id="edge69" class="edge">
<title>Node0&#45;&gt;Node48</title>
<path fill="none" stroke="#191970" d="M1721.9841,-716.368C1749.3095,-699.4638 1800,-661.6798 1800,-614 1800,-614 1800,-614 1800,-558 1800,-506.5222 1954.3145,-461.8754 2038.1967,-441.409"/>
<polygon fill="#191970" stroke="#191970" points="2039.1589,-444.7774 2048.0619,-439.0341 2037.5205,-437.9719 2039.1589,-444.7774"/>
</g>
<!-- Node51 -->
<g id="node38" class="node">
<title>Node51</title>
<g id="a_node38"><a xlink:href="Traversal_8h.html" target="_top" xlink:title="iDynTree/Model/Traversal.h">
<polygon fill="none" stroke="#000000" points="642,-420 642,-439 790,-439 790,-420 642,-420"/>
<text text-anchor="middle" x="716" y="-427" font-family="FreeSans.ttf" font-size="10.00" fill="#000000">iDynTree/Model/Traversal.h</text>
</a>
</g>
</g>
<!-- Node0&#45;&gt;Node51 -->
<g id="edge84" class="edge">
<title>Node0&#45;&gt;Node51</title>
<path fill="none" stroke="#191970" d="M1642.4835,-721.7935C1479.2932,-709.9812 1053,-673.4361 1053,-614 1053,-614 1053,-614 1053,-558 1053,-500.717 880.8559,-459.6762 782.6346,-440.9215"/>
<polygon fill="#191970" stroke="#191970" points="783.2612,-437.478 772.7864,-439.0683 781.9666,-444.3573 783.2612,-437.478"/>
</g>
<!-- Node52 -->
<g id="node39" class="node">
<title>Node52</title>
<g id="a_node39"><a xlink:href="FixedJoint_8h.html" target="_top" xlink:title="iDynTree/Model/FixedJoint.h">
<polygon fill="none" stroke="#000000" points="988.5,-420 988.5,-439 1139.5,-439 1139.5,-420 988.5,-420"/>
<text text-anchor="middle" x="1064" y="-427" font-family="FreeSans.ttf" font-size="10.00" fill="#000000">iDynTree/Model/FixedJoint.h</text>
</a>
</g>
</g>
<!-- Node0&#45;&gt;Node52 -->
<g id="edge87" class="edge">
<title>Node0&#45;&gt;Node52</title>
<path fill="none" stroke="#191970" d="M1642.4142,-719.0594C1503.9837,-702.8622 1184,-660.4035 1184,-614 1184,-614 1184,-614 1184,-558 1184,-504.6216 1128.0053,-464.2075 1092.5156,-443.9535"/>
<polygon fill="#191970" stroke="#191970" points="1093.9947,-440.7724 1083.5471,-439.0119 1090.6165,-446.9033 1093.9947,-440.7724"/>
</g>
<!-- Node53 -->
<g id="node40" class="node">
<title>Node53</title>
<g id="a_node40"><a xlink:href="PrismaticJoint_8h.html" target="_top" xlink:title="iDynTree/Model/Prismatic\lJoint.h">
<polygon fill="none" stroke="#000000" points="1332,-481.5 1332,-511.5 1472,-511.5 1472,-481.5 1332,-481.5"/>
<text text-anchor="start" x="1340" y="-499.5" font-family="FreeSans.ttf" font-size="10.00" fill="#000000">iDynTree/Model/Prismatic</text>
<text text-anchor="middle" x="1402" y="-488.5" font-family="FreeSans.ttf" font-size="10.00" fill="#000000">Joint.h</text>
</a>
</g>
</g>
<!-- Node0&#45;&gt;Node53 -->
<g id="edge91" class="edge">
<title>Node0&#45;&gt;Node53</title>
<path fill="none" stroke="#191970" d="M1692.3662,-716.4309C1647.3467,-682.3319 1494.0532,-566.2235 1430.2366,-517.8872"/>
<polygon fill="#191970" stroke="#191970" points="1432.2847,-515.0478 1422.2,-511.8 1428.0582,-520.6279 1432.2847,-515.0478"/>
</g>
<!-- Node57 -->
<g id="node43" class="node">
<title>Node57</title>
<g id="a_node43"><a xlink:href="RevoluteJoint_8h.html" target="_top" xlink:title="iDynTree/Model/RevoluteJoint.h">
<polygon fill="none" stroke="#000000" points="1490,-487 1490,-506 1658,-506 1658,-487 1490,-487"/>
<text text-anchor="middle" x="1574" y="-494" font-family="FreeSans.ttf" font-size="10.00" fill="#000000">iDynTree/Model/RevoluteJoint.h</text>
</a>
</g>
</g>
<!-- Node0&#45;&gt;Node57 -->
<g id="edge101" class="edge">
<title>Node0&#45;&gt;Node57</title>
<path fill="none" stroke="#191970" d="M1697.5346,-716.3865C1690.5806,-707.2532 1680.0978,-693.0198 1672,-680 1635.8716,-621.9124 1599.558,-549.3303 1583.1102,-515.4992"/>
<polygon fill="#191970" stroke="#191970" points="1586.1684,-513.7836 1578.6656,-506.3029 1579.8658,-516.8296 1586.1684,-513.7836"/>
</g>
<!-- Node58 -->
<g id="node44" class="node">
<title>Node58</title>
<g id="a_node44"><a xlink:href="URDFParsingUtils_8h.html" target="_top" xlink:title="URDFParsingUtils.h">
<polygon fill="none" stroke="#000000" points="1752,-420 1752,-439 1862,-439 1862,-420 1752,-420"/>
<text text-anchor="middle" x="1807" y="-427" font-family="FreeSans.ttf" font-size="10.00" fill="#000000">URDFParsingUtils.h</text>
</a>
</g>
</g>
<!-- Node0&#45;&gt;Node58 -->
<g id="edge107" class="edge">
<title>Node0&#45;&gt;Node58</title>
<path fill="none" stroke="#191970" d="M1713.9063,-716.3544C1729.9375,-697.945 1762,-655.8901 1762,-614 1762,-614 1762,-614 1762,-558 1762,-516.8653 1782.7945,-472.2758 1796.1121,-447.9369"/>
<polygon fill="#191970" stroke="#191970" points="1799.2384,-449.519 1801.117,-439.092 1793.1461,-446.0716 1799.2384,-449.519"/>
</g>
<!-- Node61 -->
<g id="node47" class="node">
<title>Node61</title>
<polygon fill="none" stroke="#bfbfbf" points="1866,-660.5 1866,-679.5 1922,-679.5 1922,-660.5 1866,-660.5"/>
<text text-anchor="middle" x="1894" y="-667.5" font-family="FreeSans.ttf" font-size="10.00" fill="#000000">iomanip</text>
</g>
<!-- Node0&#45;&gt;Node61 -->
<g id="edge116" class="edge">
<title>Node0&#45;&gt;Node61</title>
<path fill="none" stroke="#191970" d="M1737.4903,-716.3733C1770.439,-706.6107 1821.3942,-691.5128 1856.1481,-681.2154"/>
<polygon fill="#191970" stroke="#191970" points="1857.3399,-684.5127 1865.9335,-678.316 1855.3512,-677.8011 1857.3399,-684.5127"/>
</g>
<!-- Node62 -->
<g id="node48" class="node">
<title>Node62</title>
<polygon fill="none" stroke="#bfbfbf" points="1940.5,-660.5 1940.5,-679.5 1995.5,-679.5 1995.5,-660.5 1940.5,-660.5"/>
<text text-anchor="middle" x="1968" y="-667.5" font-family="FreeSans.ttf" font-size="10.00" fill="#000000">fstream</text>
</g>
<!-- Node0&#45;&gt;Node62 -->
<g id="edge117" class="edge">
<title>Node0&#45;&gt;Node62</title>
<path fill="none" stroke="#191970" d="M1756.8149,-716.4185C1800.5109,-708.1203 1864.9127,-695.3818 1930.1215,-680.098"/>
<polygon fill="#191970" stroke="#191970" points="1931.2404,-683.4301 1940.1676,-677.7244 1929.6308,-676.6177 1931.2404,-683.4301"/>
</g>
<!-- Node63 -->
<g id="node49" class="node">
<title>Node63</title>
<polygon fill="none" stroke="#bfbfbf" points="2013.5,-660.5 2013.5,-679.5 2092.5,-679.5 2092.5,-660.5 2013.5,-660.5"/>
<text text-anchor="middle" x="2053" y="-667.5" font-family="FreeSans.ttf" font-size="10.00" fill="#000000">libxml/tree.h</text>
</g>
<!-- Node0&#45;&gt;Node63 -->
<g id="edge119" class="edge">
<title>Node0&#45;&gt;Node63</title>
<path fill="none" stroke="#191970" d="M1767.5021,-717.4055C1826.0435,-709.1312 1916.2064,-695.8147 2003.4123,-680.2203"/>
<polygon fill="#191970" stroke="#191970" points="2004.2585,-683.6243 2013.4798,-678.4073 2003.0178,-676.7351 2004.2585,-683.6243"/>
</g>
<!-- Node64 -->
<g id="node50" class="node">
<title>Node64</title>
<polygon fill="none" stroke="#bfbfbf" points="2110.5,-660.5 2110.5,-679.5 2199.5,-679.5 2199.5,-660.5 2110.5,-660.5"/>
<text text-anchor="middle" x="2155" y="-667.5" font-family="FreeSans.ttf" font-size="10.00" fill="#000000">libxml/parser.h</text>
</g>
<!-- Node0&#45;&gt;Node64 -->
<g id="edge120" class="edge">
<title>Node0&#45;&gt;Node64</title>
<path fill="none" stroke="#191970" d="M1767.7552,-720.1209C1844.0985,-712.6574 1977.1119,-698.6539 2100.2386,-680.1908"/>
<polygon fill="#191970" stroke="#191970" points="2100.8548,-683.6375 2110.2188,-678.6811 2099.8078,-676.7163 2100.8548,-683.6375"/>
</g>
<!-- Node1&#45;&gt;Node2 -->
<g id="edge2" class="edge">
<title>Node1&#45;&gt;Node2</title>
<path fill="none" stroke="#191970" d="M199.2922,-665.1428C134.6997,-656.1402 38,-630.5477 38,-558 38,-558 38,-558 38,-178 38,-137.7538 63.6301,-129.2331 100,-112 158.1449,-84.4493 612.9891,-70.2712 739.466,-66.8353"/>
<polygon fill="#191970" stroke="#191970" points="739.7673,-70.3286 749.67,-66.5622 739.5799,-63.3311 739.7673,-70.3286"/>
</g>
<!-- Node3 -->
<g id="node4" class="node">
<title>Node3</title>
<g id="a_node4"><a xlink:href="ModelExporter_8h.html" target="_top" xlink:title="iDynTree/ModelIO/ModelExporter.h">
<polygon fill="none" stroke="#000000" points="164,-604.5 164,-623.5 348,-623.5 348,-604.5 164,-604.5"/>
<text text-anchor="middle" x="256" y="-611.5" font-family="FreeSans.ttf" font-size="10.00" fill="#000000">iDynTree/ModelIO/ModelExporter.h</text>
</a>
</g>
</g>
<!-- Node1&#45;&gt;Node3 -->
<g id="edge3" class="edge">
<title>Node1&#45;&gt;Node3</title>
<path fill="none" stroke="#191970" d="M256,-660.2455C256,-652.9382 256,-642.6944 256,-633.7046"/>
<polygon fill="#191970" stroke="#191970" points="259.5001,-633.6426 256,-623.6427 252.5001,-633.6427 259.5001,-633.6426"/>
</g>
<!-- Node3&#45;&gt;Node2 -->
<g id="edge67" class="edge">
<title>Node3&#45;&gt;Node2</title>
<path fill="none" stroke="#191970" d="M201.8464,-604.4601C161.1782,-596.2398 110.0183,-583.2998 95,-568 71.9667,-544.535 76,-529.3806 76,-496.5 76,-496.5 76,-496.5 76,-178 76,-108.4051 150.7256,-129.8218 218,-112 317.6783,-85.594 636.9517,-71.2205 739.7691,-67.1904"/>
<polygon fill="#191970" stroke="#191970" points="739.9948,-70.6844 749.8524,-66.8014 739.7248,-63.6896 739.9948,-70.6844"/>
</g>
<!-- Node3&#45;&gt;Node4 -->
<g id="edge4" class="edge">
<title>Node3&#45;&gt;Node4</title>
<path fill="none" stroke="#191970" d="M283.4546,-604.484C344,-583.4985 489.0456,-533.2246 557.7288,-509.4185"/>
<polygon fill="#191970" stroke="#191970" points="558.9868,-512.6868 567.2891,-506.1048 556.6943,-506.0728 558.9868,-512.6868"/>
</g>
<!-- Node44 -->
<g id="node31" class="node">
<title>Node44</title>
<polygon fill="none" stroke="#bfbfbf" points="361.5,-358.5 361.5,-377.5 408.5,-377.5 408.5,-358.5 361.5,-358.5"/>
<text text-anchor="middle" x="385" y="-365.5" font-family="FreeSans.ttf" font-size="10.00" fill="#000000">vector</text>
</g>
<!-- Node3&#45;&gt;Node44 -->
<g id="edge68" class="edge">
<title>Node3&#45;&gt;Node44</title>
<path fill="none" stroke="#191970" d="M287.9886,-604.3947C306.1114,-597.2752 327.5787,-585.6894 340,-568 379.8072,-511.3096 344.0969,-480.3497 364,-414 366.7975,-404.6741 371.1125,-394.7952 375.1051,-386.5926"/>
<polygon fill="#191970" stroke="#191970" points="378.2807,-388.0692 379.6916,-377.5687 372.0405,-384.8975 378.2807,-388.0692"/>
</g>
<!-- Node45 -->
<g id="node32" class="node">
<title>Node45</title>
<g id="a_node32"><a xlink:href="Sensors_8h.html" target="_top" xlink:title="iDynTree/Sensors/Sensors.h">
<polygon fill="none" stroke="#ff0000" points="180.5,-548.5 180.5,-567.5 331.5,-567.5 331.5,-548.5 180.5,-548.5"/>
<text text-anchor="middle" x="256" y="-555.5" font-family="FreeSans.ttf" font-size="10.00" fill="#000000">iDynTree/Sensors/Sensors.h</text>
</a>
</g>
</g>
<!-- Node3&#45;&gt;Node45 -->
<g id="edge57" class="edge">
<title>Node3&#45;&gt;Node45</title>
<path fill="none" stroke="#191970" d="M256,-604.2455C256,-596.9382 256,-586.6944 256,-577.7046"/>
<polygon fill="#191970" stroke="#191970" points="259.5001,-577.6426 256,-567.6427 252.5001,-577.6427 259.5001,-577.6426"/>
</g>
<!-- Node47 -->
<g id="node34" class="node">
<title>Node47</title>
<polygon fill="none" stroke="#bfbfbf" points="104,-548.5 104,-567.5 162,-567.5 162,-548.5 104,-548.5"/>
<text text-anchor="middle" x="133" y="-555.5" font-family="FreeSans.ttf" font-size="10.00" fill="#000000">memory</text>
</g>
<!-- Node3&#45;&gt;Node47 -->
<g id="edge66" class="edge">
<title>Node3&#45;&gt;Node47</title>
<path fill="none" stroke="#191970" d="M234.8555,-604.3733C215.1108,-595.3838 185.4302,-581.8706 163.1945,-571.7471"/>
<polygon fill="#191970" stroke="#191970" points="164.42,-568.4594 153.8685,-567.5011 161.5194,-574.8302 164.42,-568.4594"/>
</g>
<!-- Node5 -->
<g id="node6" class="node">
<title>Node5</title>
<g id="a_node6"><a xlink:href="IJoint_8h.html" target="_top" xlink:title="iDynTree/Model/IJoint.h">
<polygon fill="none" stroke="#000000" points="888,-358.5 888,-377.5 1016,-377.5 1016,-358.5 888,-358.5"/>
<text text-anchor="middle" x="952" y="-365.5" font-family="FreeSans.ttf" font-size="10.00" fill="#000000">iDynTree/Model/IJoint.h</text>
</a>
</g>
</g>
<!-- Node4&#45;&gt;Node5 -->
<g id="edge5" class="edge">
<title>Node4&#45;&gt;Node5</title>
<path fill="none" stroke="#191970" d="M661.8981,-487.199C703.0289,-479.671 755.9199,-466.6555 799,-445 818.4739,-435.2108 818.2208,-425.0637 837,-414 860.4012,-400.2133 888.7057,-388.833 911.3782,-380.8407"/>
<polygon fill="#191970" stroke="#191970" points="912.7211,-384.0801 921.0394,-377.5184 910.4447,-377.4606 912.7211,-384.0801"/>
</g>
<!-- Node6 -->
<g id="node7" class="node">
<title>Node6</title>
<g id="a_node7"><a xlink:href="Indices_8h.html" target="_top" xlink:title="iDynTree/Model/Indices.h">
<polygon fill="none" stroke="#ff0000" points="532,-297 532,-316 670,-316 670,-297 532,-297"/>
<text text-anchor="middle" x="601" y="-304" font-family="FreeSans.ttf" font-size="10.00" fill="#000000">iDynTree/Model/Indices.h</text>
</a>
</g>
</g>
<!-- Node4&#45;&gt;Node6 -->
<g id="edge49" class="edge">
<title>Node4&#45;&gt;Node6</title>
<path fill="none" stroke="#191970" d="M595.3058,-486.8167C596.2424,-457.1573 599.0854,-367.1278 600.3645,-326.6229"/>
<polygon fill="#191970" stroke="#191970" points="603.8702,-326.4972 600.6876,-316.3917 596.8736,-326.2762 603.8702,-326.4972"/>
</g>
<!-- Node8 -->
<g id="node8" class="node">
<title>Node8</title>
<g id="a_node8"><a xlink:href="Link_8h.html" target="_top" xlink:title="iDynTree/Model/Link.h">
<polygon fill="none" stroke="#000000" points="846,-420 846,-439 970,-439 970,-420 846,-420"/>
<text text-anchor="middle" x="908" y="-427" font-family="FreeSans.ttf" font-size="10.00" fill="#000000">iDynTree/Model/Link.h</text>
</a>
</g>
</g>
<!-- Node4&#45;&gt;Node8 -->
<g id="edge8" class="edge">
<title>Node4&#45;&gt;Node8</title>
<path fill="none" stroke="#191970" d="M639.5129,-486.9717C695.8693,-474.9082 792.9123,-454.1354 853.6029,-441.1441"/>
<polygon fill="#191970" stroke="#191970" points="854.3417,-444.5653 863.3876,-439.0496 852.8765,-437.7204 854.3417,-444.5653"/>
</g>
<!-- Node4&#45;&gt;Node41 -->
<g id="edge33" class="edge">
<title>Node4&#45;&gt;Node41</title>
<path fill="none" stroke="#191970" d="M661.9789,-495.1332C789.5508,-491.7378 1062.3967,-480.4464 1149,-445 1169.1717,-436.7438 1166.9733,-422.6019 1187,-414 1190.1767,-412.6356 1358.3523,-391.5028 1463.6926,-378.3611"/>
<polygon fill="#191970" stroke="#191970" points="1464.193,-381.8259 1473.683,-377.1152 1463.3267,-374.8797 1464.193,-381.8259"/>
</g>
<!-- Node42 -->
<g id="node29" class="node">
<title>Node42</title>
<g id="a_node29"><a xlink:href="SolidShapes_8h.html" target="_top" xlink:title="iDynTree/Model/SolidShapes.h">
<polygon fill="none" stroke="#000000" points="384.5,-420 384.5,-439 547.5,-439 547.5,-420 384.5,-420"/>
<text text-anchor="middle" x="466" y="-427" font-family="FreeSans.ttf" font-size="10.00" fill="#000000">iDynTree/Model/SolidShapes.h</text>
</a>
</g>
</g>
<!-- Node4&#45;&gt;Node42 -->
<g id="edge50" class="edge">
<title>Node4&#45;&gt;Node42</title>
<path fill="none" stroke="#191970" d="M576.5174,-486.9005C554.7725,-475.6067 518.4677,-456.7506 493.436,-443.7497"/>
<polygon fill="#191970" stroke="#191970" points="494.9359,-440.5849 484.4483,-439.0817 491.7095,-446.797 494.9359,-440.5849"/>
</g>
<!-- Node43 -->
<g id="node30" class="node">
<title>Node43</title>
<polygon fill="none" stroke="#bfbfbf" points="536.5,-358.5 536.5,-377.5 585.5,-377.5 585.5,-358.5 536.5,-358.5"/>
<text text-anchor="middle" x="561" y="-365.5" font-family="FreeSans.ttf" font-size="10.00" fill="#000000">cstdlib</text>
</g>
<!-- Node4&#45;&gt;Node43 -->
<g id="edge55" class="edge">
<title>Node4&#45;&gt;Node43</title>
<path fill="none" stroke="#191970" d="M592.4445,-486.8416C586.8819,-465.8184 573.5839,-415.5598 566.187,-387.6038"/>
<polygon fill="#191970" stroke="#191970" points="569.5267,-386.5425 563.5852,-377.7705 562.7596,-388.3331 569.5267,-386.5425"/>
</g>
<!-- Node4&#45;&gt;Node44 -->
<g id="edge56" class="edge">
<title>Node4&#45;&gt;Node44</title>
<path fill="none" stroke="#191970" d="M528.3871,-489.9351C470.8021,-482.7204 393.9191,-468.8593 375,-445 362.099,-428.7303 368.3429,-404.1631 375.3638,-387.1735"/>
<polygon fill="#191970" stroke="#191970" points="378.7115,-388.2675 379.6715,-377.7162 372.3412,-385.3658 378.7115,-388.2675"/>
</g>
<!-- Node5&#45;&gt;Node6 -->
<g id="edge6" class="edge">
<title>Node5&#45;&gt;Node6</title>
<path fill="none" stroke="#191970" d="M894.972,-358.4602C840.6879,-349.3206 756.7226,-335.0308 684,-322 676.6761,-320.6877 668.9936,-319.2864 661.3826,-317.8831"/>
<polygon fill="#191970" stroke="#191970" points="661.9246,-314.424 651.4544,-316.0443 660.6498,-321.307 661.9246,-314.424"/>
</g>
<!-- Node6&#45;&gt;Node2 -->
<g id="edge7" class="edge">
<title>Node6&#45;&gt;Node2</title>
<path fill="none" stroke="#191970" d="M602.6102,-296.7219C608.1527,-265.8618 629.0945,-169.1955 682,-112 697.7276,-94.9971 721.1624,-83.2989 740.1759,-75.9552"/>
<polygon fill="#191970" stroke="#191970" points="741.4514,-79.2157 749.6515,-72.5069 739.0575,-72.6377 741.4514,-79.2157"/>
</g>
<!-- Node8&#45;&gt;Node6 -->
<g id="edge32" class="edge">
<title>Node8&#45;&gt;Node6</title>
<path fill="none" stroke="#191970" d="M884.1657,-419.9507C829.8726,-398.1982 696.8825,-344.9155 634.4262,-319.8923"/>
<polygon fill="#191970" stroke="#191970" points="635.6152,-316.5982 625.0308,-316.128 633.0118,-323.0961 635.6152,-316.5982"/>
</g>
<!-- Node8&#45;&gt;Node9 -->
<g id="edge9" class="edge">
<title>Node8&#45;&gt;Node9</title>
<path fill="none" stroke="#191970" d="M948.9908,-419.9629C959.0924,-417.8098 969.9081,-415.6699 980,-414 1083.532,-396.8682 1203.3717,-383.8637 1283.6552,-376.1249"/>
<polygon fill="#191970" stroke="#191970" points="1284.1135,-379.5971 1293.7349,-375.1609 1283.4471,-372.6289 1284.1135,-379.5971"/>
</g>
<!-- Node10 -->
<g id="node10" class="node">
<title>Node10</title>
<g id="a_node10"><a xlink:href="SpatialInertiaRaw_8h.html" target="_top" xlink:title="iDynTree/Core/SpatialInertia\lRaw.h">
<polygon fill="none" stroke="#ff0000" points="886.5,-291.5 886.5,-321.5 1039.5,-321.5 1039.5,-291.5 886.5,-291.5"/>
<text text-anchor="start" x="894.5" y="-309.5" font-family="FreeSans.ttf" font-size="10.00" fill="#000000">iDynTree/Core/SpatialInertia</text>
<text text-anchor="middle" x="963" y="-298.5" font-family="FreeSans.ttf" font-size="10.00" fill="#000000">Raw.h</text>
</a>
</g>
</g>
<!-- Node9&#45;&gt;Node10 -->
<g id="edge10" class="edge">
<title>Node9&#45;&gt;Node10</title>
<path fill="none" stroke="#191970" d="M1304.7868,-358.4812C1239.7008,-349.5287 1140.2094,-335.5166 1054,-322 1052.7086,-321.7975 1051.4072,-321.5922 1050.0976,-321.3845"/>
<polygon fill="#191970" stroke="#191970" points="1050.3596,-317.8817 1039.9308,-319.7503 1049.2486,-324.793 1050.3596,-317.8817"/>
</g>
<!-- Node9&#45;&gt;Node20 -->
<g id="edge11" class="edge">
<title>Node9&#45;&gt;Node20</title>
<path fill="none" stroke="#191970" d="M1293.8919,-360.4138C1213.487,-352.0548 1100.39,-337.6984 1087,-322 1078.0589,-311.5175 1079.9839,-302.8576 1087,-291 1147.6336,-188.5258 1209.9057,-198.5071 1325,-168 1352.5415,-160.6998 1728.2453,-137.7855 1905.121,-127.3146"/>
<polygon fill="#191970" stroke="#191970" points="1905.4171,-130.8033 1915.1931,-126.7191 1905.0039,-123.8155 1905.4171,-130.8033"/>
</g>
<!-- Node29 -->
<g id="node17" class="node">
<title>Node29</title>
<g id="a_node17"><a xlink:href="Twist_8h.html" target="_top" xlink:title="iDynTree/Core/Twist.h">
<polygon fill="none" stroke="#000000" points="1096,-297 1096,-316 1218,-316 1218,-297 1096,-297"/>
<text text-anchor="middle" x="1157" y="-304" font-family="FreeSans.ttf" font-size="10.00" fill="#000000">iDynTree/Core/Twist.h</text>
</a>
</g>
</g>
<!-- Node9&#45;&gt;Node29 -->
<g id="edge19" class="edge">
<title>Node9&#45;&gt;Node29</title>
<path fill="none" stroke="#191970" d="M1340.9375,-358.3906C1303.1023,-347.7169 1241.9194,-330.4566 1200.6115,-318.8033"/>
<polygon fill="#191970" stroke="#191970" points="1201.398,-315.3886 1190.8233,-316.0419 1199.4973,-322.1256 1201.398,-315.3886"/>
</g>
<!-- Node37 -->
<g id="node20" class="node">
<title>Node37</title>
<g id="a_node20"><a xlink:href="SpatialMomentum_8h.html" target="_top" xlink:title="iDynTree/Core/SpatialMomentum.h">
<polygon fill="none" stroke="#000000" points="1630,-297 1630,-316 1816,-316 1816,-297 1630,-297"/>
<text text-anchor="middle" x="1723" y="-304" font-family="FreeSans.ttf" font-size="10.00" fill="#000000">iDynTree/Core/SpatialMomentum.h</text>
</a>
</g>
</g>
<!-- Node9&#45;&gt;Node37 -->
<g id="edge24" class="edge">
<title>Node9&#45;&gt;Node37</title>
<path fill="none" stroke="#191970" d="M1428.9932,-358.4581C1491.1877,-347.4668 1593.2657,-329.4272 1659.2933,-317.7585"/>
<polygon fill="#191970" stroke="#191970" points="1659.9282,-321.2006 1669.1665,-316.0137 1658.71,-314.3074 1659.9282,-321.2006"/>
</g>
<!-- Node39 -->
<g id="node22" class="node">
<title>Node39</title>
<g id="a_node22"><a xlink:href="SpatialAcc_8h.html" target="_top" xlink:title="iDynTree/Core/SpatialAcc.h">
<polygon fill="none" stroke="#000000" points="1236,-297 1236,-316 1384,-316 1384,-297 1236,-297"/>
<text text-anchor="middle" x="1310" y="-304" font-family="FreeSans.ttf" font-size="10.00" fill="#000000">iDynTree/Core/SpatialAcc.h</text>
</a>
</g>
</g>
<!-- Node9&#45;&gt;Node39 -->
<g id="edge28" class="edge">
<title>Node9&#45;&gt;Node39</title>
<path fill="none" stroke="#191970" d="M1364.8438,-358.3906C1354.9801,-349.0581 1339.7945,-334.6902 1327.9013,-323.4374"/>
<polygon fill="#191970" stroke="#191970" points="1329.9689,-320.5753 1320.2994,-316.2449 1325.1579,-325.6601 1329.9689,-320.5753"/>
</g>
<!-- Node40 -->
<g id="node23" class="node">
<title>Node40</title>
<g id="a_node23"><a xlink:href="Wrench_8h.html" target="_top" xlink:title="iDynTree/Core/Wrench.h">
<polygon fill="none" stroke="#000000" points="1478.5,-297 1478.5,-316 1611.5,-316 1611.5,-297 1478.5,-297"/>
<text text-anchor="middle" x="1545" y="-304" font-family="FreeSans.ttf" font-size="10.00" fill="#000000">iDynTree/Core/Wrench.h</text>
</a>
</g>
</g>
<!-- Node9&#45;&gt;Node40 -->
<g id="edge30" class="edge">
<title>Node9&#45;&gt;Node40</title>
<path fill="none" stroke="#191970" d="M1401.5625,-358.3906C1430.5056,-347.92 1476.9694,-331.1111 1509.1356,-319.4745"/>
<polygon fill="#191970" stroke="#191970" points="1510.4111,-322.7351 1518.624,-316.0419 1508.0298,-316.1526 1510.4111,-322.7351"/>
</g>
<!-- Node20&#45;&gt;Node2 -->
<g id="edge15" class="edge">
<title>Node20&#45;&gt;Node2</title>
<path fill="none" stroke="#191970" d="M1915.4385,-113.1587C1910.5558,-112.735 1905.714,-112.3438 1901,-112 1467.6324,-80.3953 938.9838,-69.0445 804.3726,-66.5591"/>
<polygon fill="#191970" stroke="#191970" points="804.3749,-63.0587 794.313,-66.3765 804.2477,-70.0575 804.3749,-63.0587"/>
</g>
<!-- Node13 -->
<g id="node12" class="node">
<title>Node13</title>
<g id="a_node12"><a xlink:href="Utils_8h.html" target="_top" xlink:title="iDynTree/Core/Utils.h">
<polygon fill="none" stroke="#ff0000" points="2024.5,-56.5 2024.5,-75.5 2143.5,-75.5 2143.5,-56.5 2024.5,-56.5"/>
<text text-anchor="middle" x="2084" y="-63.5" font-family="FreeSans.ttf" font-size="10.00" fill="#000000">iDynTree/Core/Utils.h</text>
</a>
</g>
</g>
<!-- Node20&#45;&gt;Node13 -->
<g id="edge12" class="edge">
<title>Node20&#45;&gt;Node13</title>
<path fill="none" stroke="#191970" d="M2011.3284,-112.2455C2024.8303,-103.6534 2044.7122,-91.0014 2060.2686,-81.1018"/>
<polygon fill="#191970" stroke="#191970" points="2062.2897,-83.9643 2068.8472,-75.6427 2058.5315,-78.0587 2062.2897,-83.9643"/>
</g>
<!-- Node21 -->
<g id="node13" class="node">
<title>Node21</title>
<g id="a_node13"><a xlink:href="Span_8h.html" target="_top" xlink:title="iDynTree/Core/Span.h">
<polygon fill="none" stroke="#ff0000" points="1846.5,-56.5 1846.5,-75.5 1967.5,-75.5 1967.5,-56.5 1846.5,-56.5"/>
<text text-anchor="middle" x="1907" y="-63.5" font-family="FreeSans.ttf" font-size="10.00" fill="#000000">iDynTree/Core/Span.h</text>
</a>
</g>
</g>
<!-- Node20&#45;&gt;Node21 -->
<g id="edge13" class="edge">
<title>Node20&#45;&gt;Node21</title>
<path fill="none" stroke="#191970" d="M1980.4974,-112.2455C1966.842,-103.6534 1946.7343,-91.0014 1931.0011,-81.1018"/>
<polygon fill="#191970" stroke="#191970" points="1932.6529,-78.006 1922.325,-75.6427 1928.9249,-83.9307 1932.6529,-78.006"/>
</g>
<!-- Node16 -->
<g id="node14" class="node">
<title>Node16</title>
<polygon fill="none" stroke="#bfbfbf" points="1970,-.5 1970,-19.5 2022,-19.5 2022,-.5 1970,-.5"/>
<text text-anchor="middle" x="1996" y="-7.5" font-family="FreeSans.ttf" font-size="10.00" fill="#000000">cassert</text>
</g>
<!-- Node20&#45;&gt;Node16 -->
<g id="edge17" class="edge">
<title>Node20&#45;&gt;Node16</title>
<path fill="none" stroke="#191970" d="M1996,-112.4509C1996,-94.184 1996,-53.9553 1996,-29.6976"/>
<polygon fill="#191970" stroke="#191970" points="1999.5001,-29.5249 1996,-19.5249 1992.5001,-29.5249 1999.5001,-29.5249"/>
</g>
<!-- Node19 -->
<g id="node15" class="node">
<title>Node19</title>
<polygon fill="none" stroke="#bfbfbf" points="2346,-56.5 2346,-75.5 2402,-75.5 2402,-56.5 2346,-56.5"/>
<text text-anchor="middle" x="2374" y="-63.5" font-family="FreeSans.ttf" font-size="10.00" fill="#000000">sstream</text>
</g>
<!-- Node20&#45;&gt;Node19 -->
<g id="edge16" class="edge">
<title>Node20&#45;&gt;Node19</title>
<path fill="none" stroke="#191970" d="M2076.7588,-114.0961C2143.794,-106.8482 2241.7513,-94.673 2335.8354,-76.0282"/>
<polygon fill="#191970" stroke="#191970" points="2336.6935,-79.4258 2345.808,-74.0244 2335.3144,-72.563 2336.6935,-79.4258"/>
</g>
<!-- Node17 -->
<g id="node16" class="node">
<title>Node17</title>
<polygon fill="none" stroke="#bfbfbf" points="2162,-56.5 2162,-75.5 2212,-75.5 2212,-56.5 2162,-56.5"/>
<text text-anchor="middle" x="2187" y="-63.5" font-family="FreeSans.ttf" font-size="10.00" fill="#000000">cstring</text>
</g>
<!-- Node20&#45;&gt;Node17 -->
<g id="edge18" class="edge">
<title>Node20&#45;&gt;Node17</title>
<path fill="none" stroke="#191970" d="M2028.4772,-112.495C2058.2437,-103.781 2103.7967,-90.4397 2152.0641,-76.2729"/>
<polygon fill="#191970" stroke="#191970" points="2153.1406,-79.6047 2161.7499,-73.4297 2151.1689,-72.8881 2153.1406,-79.6047"/>
</g>
<!-- Node21&#45;&gt;Node16 -->
<g id="edge14" class="edge">
<title>Node21&#45;&gt;Node16</title>
<path fill="none" stroke="#191970" d="M1922.5026,-56.2455C1936.158,-47.6534 1956.2657,-35.0014 1971.9989,-25.1018"/>
<polygon fill="#191970" stroke="#191970" points="1974.0751,-27.9307 1980.675,-19.6427 1970.3471,-22.006 1974.0751,-27.9307"/>
</g>
<!-- Node30 -->
<g id="node18" class="node">
<title>Node30</title>
<g id="a_node18"><a xlink:href="SpatialMotionVector_8h.html" target="_top" xlink:title="iDynTree/Core/SpatialMotion\lVector.h">
<polygon fill="none" stroke="#ff0000" points="1372.5,-224.5 1372.5,-254.5 1527.5,-254.5 1527.5,-224.5 1372.5,-224.5"/>
<text text-anchor="start" x="1380.5" y="-242.5" font-family="FreeSans.ttf" font-size="10.00" fill="#000000">iDynTree/Core/SpatialMotion</text>
<text text-anchor="middle" x="1450" y="-231.5" font-family="FreeSans.ttf" font-size="10.00" fill="#000000">Vector.h</text>
</a>
</g>
</g>
<!-- Node29&#45;&gt;Node30 -->
<g id="edge20" class="edge">
<title>Node29&#45;&gt;Node30</title>
<path fill="none" stroke="#191970" d="M1198.6686,-296.9717C1244.2759,-286.5427 1318.3481,-269.6047 1374.2905,-256.8124"/>
<polygon fill="#191970" stroke="#191970" points="1375.1928,-260.1965 1384.1609,-254.5553 1373.6323,-253.3726 1375.1928,-260.1965"/>
</g>
<!-- Node30&#45;&gt;Node20 -->
<g id="edge21" class="edge">
<title>Node30&#45;&gt;Node20</title>
<path fill="none" stroke="#191970" d="M1519.7059,-224.4992C1629.9108,-200.7829 1842.0829,-155.1232 1941.7605,-133.6724"/>
<polygon fill="#191970" stroke="#191970" points="1942.5838,-137.0755 1951.6236,-131.5499 1941.1111,-130.2321 1942.5838,-137.0755"/>
</g>
<!-- Node31 -->
<g id="node19" class="node">
<title>Node31</title>
<g id="a_node19"><a xlink:href="GeomVector3_8h.html" target="_top" xlink:title="iDynTree/Core/GeomVector3.h">
<polygon fill="none" stroke="#000000" points="1368.5,-168.5 1368.5,-187.5 1531.5,-187.5 1531.5,-168.5 1368.5,-168.5"/>
<text text-anchor="middle" x="1450" y="-175.5" font-family="FreeSans.ttf" font-size="10.00" fill="#000000">iDynTree/Core/GeomVector3.h</text>
</a>
</g>
</g>
<!-- Node30&#45;&gt;Node31 -->
<g id="edge22" class="edge">
<title>Node30&#45;&gt;Node31</title>
<path fill="none" stroke="#191970" d="M1450,-224.2977C1450,-216.3834 1450,-206.6043 1450,-198.0759"/>
<polygon fill="#191970" stroke="#191970" points="1453.5001,-197.8469 1450,-187.8469 1446.5001,-197.847 1453.5001,-197.8469"/>
</g>
<!-- Node31&#45;&gt;Node20 -->
<g id="edge23" class="edge">
<title>Node31&#45;&gt;Node20</title>
<path fill="none" stroke="#191970" d="M1531.7417,-169.6162C1631.9325,-159.3403 1801.1905,-141.9805 1905.3026,-131.3023"/>
<polygon fill="#191970" stroke="#191970" points="1905.891,-134.7604 1915.4817,-130.2583 1905.1767,-127.7969 1905.891,-134.7604"/>
</g>
<!-- Node38 -->
<g id="node21" class="node">
<title>Node38</title>
<g id="a_node21"><a xlink:href="SpatialForceVector_8h.html" target="_top" xlink:title="iDynTree/Core/SpatialForce\lVector.h">
<polygon fill="none" stroke="#ff0000" points="1744,-224.5 1744,-254.5 1892,-254.5 1892,-224.5 1744,-224.5"/>
<text text-anchor="start" x="1752" y="-242.5" font-family="FreeSans.ttf" font-size="10.00" fill="#000000">iDynTree/Core/SpatialForce</text>
<text text-anchor="middle" x="1818" y="-231.5" font-family="FreeSans.ttf" font-size="10.00" fill="#000000">Vector.h</text>
</a>
</g>
</g>
<!-- Node37&#45;&gt;Node38 -->
<g id="edge25" class="edge">
<title>Node37&#45;&gt;Node38</title>
<path fill="none" stroke="#191970" d="M1736.6112,-296.9005C1749.9802,-287.4718 1770.8226,-272.7725 1788.0685,-260.6096"/>
<polygon fill="#191970" stroke="#191970" points="1790.5456,-263.1455 1796.7005,-254.5218 1786.5112,-257.425 1790.5456,-263.1455"/>
</g>
<!-- Node38&#45;&gt;Node20 -->
<g id="edge26" class="edge">
<title>Node38&#45;&gt;Node20</title>
<path fill="none" stroke="#191970" d="M1840.906,-224.3795C1875.0388,-201.848 1938.8846,-159.7026 1973.0455,-137.1525"/>
<polygon fill="#191970" stroke="#191970" points="1975.0325,-140.0347 1981.45,-131.6046 1971.1762,-134.1927 1975.0325,-140.0347"/>
</g>
<!-- Node38&#45;&gt;Node31 -->
<g id="edge27" class="edge">
<title>Node38&#45;&gt;Node31</title>
<path fill="none" stroke="#191970" d="M1743.5932,-226.3322C1738.9944,-225.5376 1734.435,-224.7549 1730,-224 1658.1872,-211.7771 1575.9142,-198.3268 1519.2254,-189.1452"/>
<polygon fill="#191970" stroke="#191970" points="1519.7297,-185.6814 1509.2989,-187.5388 1518.6113,-192.5915 1519.7297,-185.6814"/>
</g>
<!-- Node39&#45;&gt;Node30 -->
<g id="edge29" class="edge">
<title>Node39&#45;&gt;Node30</title>
<path fill="none" stroke="#191970" d="M1330.0586,-296.9005C1350.6641,-287.0393 1383.3165,-271.4128 1409.3528,-258.9526"/>
<polygon fill="#191970" stroke="#191970" points="1411.1019,-261.9957 1418.6112,-254.5218 1408.0801,-255.6816 1411.1019,-261.9957"/>
</g>
<!-- Node40&#45;&gt;Node38 -->
<g id="edge31" class="edge">
<title>Node40&#45;&gt;Node38</title>
<path fill="none" stroke="#191970" d="M1583.8243,-296.9717C1626.1426,-286.5859 1694.7635,-269.7449 1746.81,-256.9715"/>
<polygon fill="#191970" stroke="#191970" points="1747.7775,-260.338 1756.6551,-254.5553 1746.109,-253.5398 1747.7775,-260.338"/>
</g>
<!-- Node41&#45;&gt;Node2 -->
<g id="edge48" class="edge">
<title>Node41&#45;&gt;Node2</title>
<path fill="none" stroke="#191970" d="M1620.3148,-363.4379C1746.4267,-352.9491 1983.3268,-320.1233 1901,-224 1827.2711,-137.9155 981.5224,-79.3817 804.4035,-68.0195"/>
<polygon fill="#191970" stroke="#191970" points="804.6003,-64.5251 794.3981,-67.3824 804.1554,-71.5109 804.6003,-64.5251"/>
</g>
<!-- Node33 -->
<g id="node25" class="node">
<title>Node33</title>
<g id="a_node25"><a xlink:href="Position_8h.html" target="_top" xlink:title="Position.h">
<polygon fill="none" stroke="#ff0000" points="764.5,-297 764.5,-316 829.5,-316 829.5,-297 764.5,-297"/>
<text text-anchor="middle" x="797" y="-304" font-family="FreeSans.ttf" font-size="10.00" fill="#000000">Position.h</text>
</a>
</g>
</g>
<!-- Node41&#45;&gt;Node33 -->
<g id="edge34" class="edge">
<title>Node41&#45;&gt;Node33</title>
<path fill="none" stroke="#191970" d="M1473.7058,-358.8399C1470.7669,-358.5429 1467.8564,-358.2614 1465,-358 1204.2666,-334.1418 1136.7384,-354.9709 877,-322 864.7198,-320.4412 851.4882,-318.1371 839.3903,-315.7795"/>
<polygon fill="#191970" stroke="#191970" points="840.0338,-312.3389 829.5405,-313.8016 838.6557,-319.2019 840.0338,-312.3389"/>
</g>
<!-- Node35 -->
<g id="node26" class="node">
<title>Node35</title>
<g id="a_node26"><a xlink:href="Rotation_8h.html" target="_top" xlink:title="iDynTree/Core/Rotation.h">
<polygon fill="none" stroke="#ff0000" points="1217.5,-230 1217.5,-249 1354.5,-249 1354.5,-230 1217.5,-230"/>
<text text-anchor="middle" x="1286" y="-237" font-family="FreeSans.ttf" font-size="10.00" fill="#000000">iDynTree/Core/Rotation.h</text>
</a>
</g>
</g>
<!-- Node41&#45;&gt;Node35 -->
<g id="edge40" class="edge">
<title>Node41&#45;&gt;Node35</title>
<path fill="none" stroke="#191970" d="M1518.7984,-358.376C1495.8494,-350.0627 1462.9629,-337.0378 1436,-322 1415.424,-310.5243 1413.2484,-303.0443 1393,-291 1368.723,-276.5593 1339.782,-262.8239 1318.1238,-253.1754"/>
<polygon fill="#191970" stroke="#191970" points="1319.2909,-249.8652 1308.7281,-249.0421 1316.4722,-256.2726 1319.2909,-249.8652"/>
</g>
<!-- Node12 -->
<g id="node27" class="node">
<title>Node12</title>
<g id="a_node27"><a xlink:href="MatrixFixSize_8h.html" target="_top" xlink:title="iDynTree/Core/MatrixFixSize.h">
<polygon fill="none" stroke="#000000" points="2217.5,-112.5 2217.5,-131.5 2378.5,-131.5 2378.5,-112.5 2217.5,-112.5"/>
<text text-anchor="middle" x="2298" y="-119.5" font-family="FreeSans.ttf" font-size="10.00" fill="#000000">iDynTree/Core/MatrixFixSize.h</text>
</a>
</g>
</g>
<!-- Node41&#45;&gt;Node12 -->
<g id="edge41" class="edge">
<title>Node41&#45;&gt;Node12</title>
<path fill="none" stroke="#191970" d="M1620.2079,-364.9146C1716.5997,-359.8977 1880.1571,-347.8122 1934,-322 2022.1378,-279.747 2005.0926,-214.6208 2091,-168 2126.5685,-148.6975 2169.7585,-137.4903 2207.4663,-130.9852"/>
<polygon fill="#191970" stroke="#191970" points="2208.1323,-134.4228 2217.4345,-129.3515 2207.0001,-127.515 2208.1323,-134.4228"/>
</g>
<!-- Node33&#45;&gt;Node2 -->
<g id="edge39" class="edge">
<title>Node33&#45;&gt;Node2</title>
<path fill="none" stroke="#191970" d="M795.989,-296.7742C792.251,-260.8148 779.1653,-134.9298 774.061,-85.8266"/>
<polygon fill="#191970" stroke="#191970" points="777.5114,-85.1678 772.9962,-75.5833 770.549,-85.8916 777.5114,-85.1678"/>
</g>
<!-- Node33&#45;&gt;Node35 -->
<g id="edge35" class="edge">
<title>Node33&#45;&gt;Node35</title>
<path fill="none" stroke="#191970" d="M823.0877,-296.857C829.8256,-294.6549 837.1202,-292.5188 844,-291 911.2349,-276.1573 1099.1297,-257.0161 1207.0594,-246.7584"/>
<polygon fill="#191970" stroke="#191970" points="1207.6222,-250.2208 1217.2478,-245.7939 1206.9624,-243.252 1207.6222,-250.2208"/>
</g>
<!-- Node35&#45;&gt;Node2 -->
<g id="edge36" class="edge">
<title>Node35&#45;&gt;Node2</title>
<path fill="none" stroke="#191970" d="M1217.1508,-235.4381C1097.2402,-227.8243 859.8414,-210.1565 829,-188 811.3365,-175.3105 789.2388,-116.6204 778.4832,-85.5"/>
<polygon fill="#191970" stroke="#191970" points="781.7065,-84.1068 775.1777,-75.7626 775.078,-86.357 781.7065,-84.1068"/>
</g>
<!-- Node35&#45;&gt;Node20 -->
<g id="edge38" class="edge">
<title>Node35&#45;&gt;Node20</title>
<path fill="none" stroke="#191970" d="M1292.3993,-229.9458C1303.8014,-213.8391 1329.3366,-181.7011 1360,-168 1372.2791,-162.5134 1732.5778,-138.8387 1905.3222,-127.7591"/>
<polygon fill="#191970" stroke="#191970" points="1905.6624,-131.2446 1915.4181,-127.1122 1905.2147,-124.2589 1905.6624,-131.2446"/>
</g>
<!-- Node35&#45;&gt;Node31 -->
<g id="edge37" class="edge">
<title>Node35&#45;&gt;Node31</title>
<path fill="none" stroke="#191970" d="M1311.625,-229.8906C1339.4263,-219.4652 1383.9844,-202.7559 1414.9994,-191.1252"/>
<polygon fill="#191970" stroke="#191970" points="1416.4206,-194.3303 1424.5549,-187.5419 1413.9627,-187.776 1416.4206,-194.3303"/>
</g>
<!-- Node12&#45;&gt;Node2 -->
<g id="edge45" class="edge">
<title>Node12&#45;&gt;Node2</title>
<path fill="none" stroke="#191970" d="M2217.4616,-116.3675C2193.2143,-114.7985 2166.5315,-113.1978 2142,-112 1608.062,-85.9287 956.3358,-70.1935 804.6234,-66.7285"/>
<polygon fill="#191970" stroke="#191970" points="804.2595,-63.2194 794.1826,-66.4915 804.1006,-70.2176 804.2595,-63.2194"/>
</g>
<!-- Node12&#45;&gt;Node13 -->
<g id="edge42" class="edge">
<title>Node12&#45;&gt;Node13</title>
<path fill="none" stroke="#191970" d="M2261.2121,-112.3733C2224.9339,-102.8799 2169.3764,-88.3415 2130.1554,-78.0781"/>
<polygon fill="#191970" stroke="#191970" points="2130.8682,-74.6468 2120.3079,-75.5011 2129.096,-81.4188 2130.8682,-74.6468"/>
</g>
<!-- Node12&#45;&gt;Node16 -->
<g id="edge43" class="edge">
<title>Node12&#45;&gt;Node16</title>
<path fill="none" stroke="#191970" d="M2289.6328,-112.175C2276.5579,-97.5023 2249.7821,-70.0865 2221,-56 2159.2041,-25.756 2078.4867,-15.3841 2032.4333,-11.8359"/>
<polygon fill="#191970" stroke="#191970" points="2032.5487,-8.3355 2022.3277,-11.1248 2032.0573,-15.3182 2032.5487,-8.3355"/>
</g>
<!-- Node12&#45;&gt;Node19 -->
<g id="edge47" class="edge">
<title>Node12&#45;&gt;Node19</title>
<path fill="none" stroke="#191970" d="M2311.2382,-112.2455C2322.681,-103.814 2339.4296,-91.4729 2352.7475,-81.6598"/>
<polygon fill="#191970" stroke="#191970" points="2354.9391,-84.3924 2360.9135,-75.6427 2350.7867,-78.757 2354.9391,-84.3924"/>
</g>
<!-- Node12&#45;&gt;Node17 -->
<g id="edge44" class="edge">
<title>Node12&#45;&gt;Node17</title>
<path fill="none" stroke="#191970" d="M2278.9184,-112.3733C2261.2598,-103.4644 2234.7947,-90.1127 2214.7902,-80.0203"/>
<polygon fill="#191970" stroke="#191970" points="2216.3372,-76.8806 2205.8326,-75.5011 2213.1842,-83.1303 2216.3372,-76.8806"/>
</g>
<!-- Node18 -->
<g id="node28" class="node">
<title>Node18</title>
<polygon fill="none" stroke="#bfbfbf" points="2268,-56.5 2268,-75.5 2328,-75.5 2328,-56.5 2268,-56.5"/>
<text text-anchor="middle" x="2298" y="-63.5" font-family="FreeSans.ttf" font-size="10.00" fill="#000000">iostream</text>
</g>
<!-- Node12&#45;&gt;Node18 -->
<g id="edge46" class="edge">
<title>Node12&#45;&gt;Node18</title>
<path fill="none" stroke="#191970" d="M2298,-112.2455C2298,-104.9382 2298,-94.6944 2298,-85.7046"/>
<polygon fill="#191970" stroke="#191970" points="2301.5001,-85.6426 2298,-75.6427 2294.5001,-85.6427 2301.5001,-85.6426"/>
</g>
<!-- Node42&#45;&gt;Node2 -->
<g id="edge52" class="edge">
<title>Node42&#45;&gt;Node2</title>
<path fill="none" stroke="#191970" d="M466,-419.9309C466,-399.238 466,-348.7813 466,-306.5 466,-306.5 466,-306.5 466,-178 466,-120.1875 661.0504,-83.2974 739.7003,-70.7722"/>
<polygon fill="#191970" stroke="#191970" points="740.6521,-74.1661 749.9932,-69.1669 739.5733,-67.2497 740.6521,-74.1661"/>
</g>
<!-- Node42&#45;&gt;Node41 -->
<g id="edge54" class="edge">
<title>Node42&#45;&gt;Node41</title>
<path fill="none" stroke="#191970" d="M547.9032,-421.0864C574.9721,-418.5226 605.2567,-415.8866 633,-414 998.9353,-389.1163 1094.4108,-408.0764 1463.5482,-378.0584"/>
<polygon fill="#191970" stroke="#191970" points="1464.0309,-381.5307 1473.7115,-377.2253 1463.4589,-374.5541 1464.0309,-381.5307"/>
</g>
<!-- Node42&#45;&gt;Node43 -->
<g id="edge51" class="edge">
<title>Node42&#45;&gt;Node43</title>
<path fill="none" stroke="#191970" d="M480.8438,-419.8906C496.0418,-410.0519 519.8848,-394.6167 537.6206,-383.1351"/>
<polygon fill="#191970" stroke="#191970" points="539.768,-385.9144 546.2605,-377.5419 535.9639,-380.0382 539.768,-385.9144"/>
</g>
<!-- Node42&#45;&gt;Node44 -->
<g id="edge53" class="edge">
<title>Node42&#45;&gt;Node44</title>
<path fill="none" stroke="#191970" d="M453.3438,-419.8906C440.6232,-410.2324 420.7996,-395.1812 405.7716,-383.771"/>
<polygon fill="#191970" stroke="#191970" points="407.6484,-380.8015 397.5674,-377.5419 403.4154,-386.3766 407.6484,-380.8015"/>
</g>
<!-- Node45&#45;&gt;Node2 -->
<g id="edge59" class="edge">
<title>Node45&#45;&gt;Node2</title>
<path fill="none" stroke="#191970" d="M229.9714,-548.4194C211.956,-540.7562 188.3685,-528.5505 172,-512 142.7787,-482.4538 128,-471.0556 128,-429.5 128,-429.5 128,-429.5 128,-178 128,-115.221 609.1578,-77.2912 739.6745,-68.1574"/>
<polygon fill="#191970" stroke="#191970" points="740.0972,-71.6366 749.8321,-67.4554 739.6145,-64.6533 740.0972,-71.6366"/>
</g>
<!-- Node45&#45;&gt;Node4 -->
<g id="edge64" class="edge">
<title>Node45&#45;&gt;Node4</title>
<path fill="none" stroke="#191970" d="M308.5968,-548.4581C369.0584,-537.4894 468.2127,-519.5012 532.5442,-507.8305"/>
<polygon fill="#191970" stroke="#191970" points="533.3441,-511.2426 542.5587,-506.0137 532.0946,-504.355 533.3441,-511.2426"/>
</g>
<!-- Node45&#45;&gt;Node6 -->
<g id="edge65" class="edge">
<title>Node45&#45;&gt;Node6</title>
<path fill="none" stroke="#191970" d="M255.4855,-548.4174C254.897,-533.7549 254.5258,-504.9337 259,-481 271.5938,-413.6332 289.9748,-387.1507 352,-358 360.6273,-353.9453 471.0009,-331.9108 541.8713,-318.0092"/>
<polygon fill="#191970" stroke="#191970" points="542.8836,-321.3775 552.0241,-316.0203 541.5378,-314.5081 542.8836,-321.3775"/>
</g>
<!-- Node45&#45;&gt;Node31 -->
<g id="edge58" class="edge">
<title>Node45&#45;&gt;Node31</title>
<path fill="none" stroke="#191970" d="M254.6062,-548.4969C252.6741,-533.9383 249.669,-505.2509 252,-481 257.8383,-420.2598 262.1438,-391.7209 313,-358 394.6502,-303.8607 427.2885,-311.908 523,-291 824.714,-225.0912 1190.6652,-194.7023 1358.2146,-183.4647"/>
<polygon fill="#191970" stroke="#191970" points="1358.4861,-186.9545 1368.2323,-182.7998 1358.0224,-179.9698 1358.4861,-186.9545"/>
</g>
<!-- Node45&#45;&gt;Node44 -->
<g id="edge60" class="edge">
<title>Node45&#45;&gt;Node44</title>
<path fill="none" stroke="#191970" d="M256.8329,-548.4654C259.4531,-523.6243 269.5276,-455.9356 304,-414 316.5336,-398.7529 335.5267,-387.5887 351.9715,-380.0797"/>
<polygon fill="#191970" stroke="#191970" points="353.4837,-383.2394 361.2914,-376.0777 350.7217,-376.8074 353.4837,-383.2394"/>
</g>
<!-- Node46 -->
<g id="node33" class="node">
<title>Node46</title>
<g id="a_node33"><a xlink:href="VectorDynSize_8h.html" target="_top" xlink:title="iDynTree/Core/VectorDynSize.h">
<polygon fill="none" stroke="#000000" points="837.5,-168.5 837.5,-187.5 1004.5,-187.5 1004.5,-168.5 837.5,-168.5"/>
<text text-anchor="middle" x="921" y="-175.5" font-family="FreeSans.ttf" font-size="10.00" fill="#000000">iDynTree/Core/VectorDynSize.h</text>
</a>
</g>
</g>
<!-- Node45&#45;&gt;Node46 -->
<g id="edge61" class="edge">
<title>Node45&#45;&gt;Node46</title>
<path fill="none" stroke="#191970" d="M232.2141,-548.4178C217.1331,-540.9442 198.8538,-528.9629 190,-512 158.3298,-451.3235 147.7829,-411.8736 190,-358 268.2417,-258.1551 648.0942,-206.2367 827.1946,-186.9683"/>
<polygon fill="#191970" stroke="#191970" points="827.8209,-190.4215 837.3944,-185.8829 827.0802,-183.4608 827.8209,-190.4215"/>
</g>
<!-- Node46&#45;&gt;Node2 -->
<g id="edge63" class="edge">
<title>Node46&#45;&gt;Node2</title>
<path fill="none" stroke="#191970" d="M908.2963,-168.4509C882.5652,-149.1094 824.0789,-105.1465 792.7408,-81.5904"/>
<polygon fill="#191970" stroke="#191970" points="794.7681,-78.7358 784.6715,-75.5249 790.5621,-84.3313 794.7681,-78.7358"/>
</g>
<!-- Node46&#45;&gt;Node21 -->
<g id="edge62" class="edge">
<title>Node46&#45;&gt;Node21</title>
<path fill="none" stroke="#191970" d="M1004.6405,-168.4993C1195.1931,-146.8543 1658.7761,-94.1958 1836.2634,-74.035"/>
<polygon fill="#191970" stroke="#191970" points="1836.7313,-77.5044 1846.2723,-72.8981 1835.9412,-70.5492 1836.7313,-77.5044"/>
</g>
<!-- Node48&#45;&gt;Node20 -->
<g id="edge72" class="edge">
<title>Node48&#45;&gt;Node20</title>
<path fill="none" stroke="#191970" d="M2088.0527,-419.9599C2074.7557,-376.9198 2020.2117,-200.3693 2001.9722,-141.331"/>
<polygon fill="#191970" stroke="#191970" points="2005.303,-140.2548 1999.0071,-131.7335 1998.6149,-142.3211 2005.303,-140.2548"/>
</g>
<!-- Node48&#45;&gt;Node13 -->
<g id="edge79" class="edge">
<title>Node48&#45;&gt;Node13</title>
<path fill="none" stroke="#191970" d="M2149.4516,-419.933C2187.9739,-412.1216 2238.7357,-398.8927 2280,-378 2325.5774,-354.9235 2370,-357.5865 2370,-306.5 2370,-306.5 2370,-306.5 2370,-239.5 2370,-197.4389 2342.6525,-191.8398 2308,-168 2269.4278,-141.4635 2251.8014,-150.9747 2209,-132 2173.5897,-116.302 2134.3274,-94.8725 2109.4234,-80.7463"/>
<polygon fill="#191970" stroke="#191970" points="2111.0389,-77.6384 2100.6198,-75.717 2107.5667,-83.7165 2111.0389,-77.6384"/>
</g>
<!-- Node48&#45;&gt;Node30 -->
<g id="edge76" class="edge">
<title>Node48&#45;&gt;Node30</title>
<path fill="none" stroke="#191970" d="M2070.6054,-419.9192C2019.1829,-395.7269 1886.9735,-333.2939 1868,-322 1847.7553,-309.9495 1846.8742,-299.751 1825,-291 1774.3728,-270.7461 1631.7966,-255.1095 1537.7593,-246.6152"/>
<polygon fill="#191970" stroke="#191970" points="1537.9517,-243.1186 1527.68,-245.7153 1537.3291,-250.0909 1537.9517,-243.1186"/>
</g>
<!-- Node48&#45;&gt;Node38 -->
<g id="edge77" class="edge">
<title>Node48&#45;&gt;Node38</title>
<path fill="none" stroke="#191970" d="M2171.7057,-422.4496C2229.4897,-414.0976 2292.313,-396.1403 2263,-358 2219.3295,-301.1785 2018.5909,-265.8268 1902.1879,-249.7404"/>
<polygon fill="#191970" stroke="#191970" points="1902.6121,-246.266 1892.2309,-248.3829 1901.6664,-253.2018 1902.6121,-246.266"/>
</g>
<!-- Node48&#45;&gt;Node41 -->
<g id="edge78" class="edge">
<title>Node48&#45;&gt;Node41</title>
<path fill="none" stroke="#191970" d="M2010.4382,-420.3924C1908.3954,-408.8563 1733.4405,-389.0774 1630.1721,-377.4027"/>
<polygon fill="#191970" stroke="#191970" points="1630.4294,-373.9096 1620.0995,-376.264 1629.643,-380.8653 1630.4294,-373.9096"/>
</g>
<!-- Node48&#45;&gt;Node12 -->
<g id="edge75" class="edge">
<title>Node48&#45;&gt;Node12</title>
<path fill="none" stroke="#191970" d="M2100.443,-419.7598C2130.2192,-388.57 2223.2826,-287.3797 2276,-188 2283.8603,-173.1822 2289.6668,-155.0183 2293.3345,-141.4994"/>
<polygon fill="#191970" stroke="#191970" points="2296.7266,-142.3616 2295.8159,-131.806 2289.9453,-140.6256 2296.7266,-142.3616"/>
</g>
<!-- Node48&#45;&gt;Node46 -->
<g id="edge71" class="edge">
<title>Node48&#45;&gt;Node46</title>
<path fill="none" stroke="#191970" d="M2078.2997,-419.6592C2044.7123,-394.1491 1949.9448,-325.4763 1860,-291 1791.5504,-264.7629 1609.5933,-234.1954 1537,-224 1353.0597,-198.1663 1136.0443,-186.2329 1014.9071,-181.216"/>
<polygon fill="#191970" stroke="#191970" points="1014.6969,-177.7046 1004.5627,-180.7948 1014.412,-184.6988 1014.6969,-177.7046"/>
</g>
<!-- Node49 -->
<g id="node36" class="node">
<title>Node49</title>
<polygon fill="none" stroke="#bfbfbf" points="2176.5,-358.5 2176.5,-377.5 2253.5,-377.5 2253.5,-358.5 2176.5,-358.5"/>
<text text-anchor="middle" x="2215" y="-365.5" font-family="FreeSans.ttf" font-size="10.00" fill="#000000">Eigen/Dense</text>
</g>
<!-- Node48&#45;&gt;Node49 -->
<g id="edge70" class="edge">
<title>Node48&#45;&gt;Node49</title>
<path fill="none" stroke="#191970" d="M2110.375,-419.8906C2130.8495,-409.7359 2163.3442,-393.6196 2186.6885,-382.0416"/>
<polygon fill="#191970" stroke="#191970" points="2188.3575,-385.1207 2195.7611,-377.5419 2185.2472,-378.8496 2188.3575,-385.1207"/>
</g>
<!-- Node50 -->
<g id="node37" class="node">
<title>Node50</title>
<g id="a_node37"><a xlink:href="MatrixDynSize_8h.html" target="_top" xlink:title="iDynTree/Core/MatrixDynSize.h">
<polygon fill="none" stroke="#000000" points="2099.5,-168.5 2099.5,-187.5 2266.5,-187.5 2266.5,-168.5 2099.5,-168.5"/>
<text text-anchor="middle" x="2183" y="-175.5" font-family="FreeSans.ttf" font-size="10.00" fill="#000000">iDynTree/Core/MatrixDynSize.h</text>
</a>
</g>
</g>
<!-- Node48&#45;&gt;Node50 -->
<g id="edge73" class="edge">
<title>Node48&#45;&gt;Node50</title>
<path fill="none" stroke="#191970" d="M2094.4942,-419.948C2108.071,-382.8332 2157.4792,-247.7662 2175.9601,-197.2449"/>
<polygon fill="#191970" stroke="#191970" points="2179.3539,-198.1553 2179.5023,-187.5615 2172.7799,-195.7505 2179.3539,-198.1553"/>
</g>
<!-- Node50&#45;&gt;Node2 -->
<g id="edge74" class="edge">
<title>Node50&#45;&gt;Node2</title>
<path fill="none" stroke="#191970" d="M2173.0194,-168.2901C2156.522,-152.9674 2121.8139,-123.7185 2086,-112 1960.9046,-71.068 994.5947,-66.5527 804.4282,-66.0598"/>
<polygon fill="#191970" stroke="#191970" points="804.251,-62.5594 794.2426,-66.0354 804.2342,-69.5594 804.251,-62.5594"/>
</g>
<!-- Node51&#45;&gt;Node6 -->
<g id="edge85" class="edge">
<title>Node51&#45;&gt;Node6</title>
<path fill="none" stroke="#191970" d="M706.9761,-419.8484C687.494,-399.011 641.2838,-349.5862 616.8217,-323.4224"/>
<polygon fill="#191970" stroke="#191970" points="619.3681,-321.0211 609.9819,-316.1068 614.2549,-325.8018 619.3681,-321.0211"/>
</g>
<!-- Node51&#45;&gt;Node44 -->
<g id="edge86" class="edge">
<title>Node51&#45;&gt;Node44</title>
<path fill="none" stroke="#191970" d="M664.6444,-419.9581C596.2662,-407.2534 477.203,-385.1314 418.9971,-374.3167"/>
<polygon fill="#191970" stroke="#191970" points="419.334,-370.8195 408.8629,-372.4337 418.0553,-377.7017 419.334,-370.8195"/>
</g>
<!-- Node52&#45;&gt;Node5 -->
<g id="edge90" class="edge">
<title>Node52&#45;&gt;Node5</title>
<path fill="none" stroke="#191970" d="M1046.5,-419.8906C1028.2535,-409.8713 999.4376,-394.0483 978.4194,-382.5071"/>
<polygon fill="#191970" stroke="#191970" points="979.8272,-379.2872 969.3771,-377.5419 976.458,-385.423 979.8272,-379.2872"/>
</g>
<!-- Node52&#45;&gt;Node6 -->
<g id="edge89" class="edge">
<title>Node52&#45;&gt;Node6</title>
<path fill="none" stroke="#191970" d="M1028.0544,-419.9507C944.8067,-397.8353 738.8795,-343.1289 646.7872,-318.6638"/>
<polygon fill="#191970" stroke="#191970" points="647.4861,-315.2281 636.9227,-316.0432 645.6888,-321.9934 647.4861,-315.2281"/>
</g>
<!-- Node52&#45;&gt;Node41 -->
<g id="edge88" class="edge">
<title>Node52&#45;&gt;Node41</title>
<path fill="none" stroke="#191970" d="M1116.2722,-419.9943C1128.6224,-417.8881 1141.7591,-415.7612 1154,-414 1288.499,-394.6487 1325.1256,-394.422 1463.5406,-378.1622"/>
<polygon fill="#191970" stroke="#191970" points="1464.165,-381.6129 1473.6851,-376.9633 1463.3434,-374.6613 1464.165,-381.6129"/>
</g>
<!-- Node53&#45;&gt;Node6 -->
<g id="edge98" class="edge">
<title>Node53&#45;&gt;Node6</title>
<path fill="none" stroke="#191970" d="M1399.3565,-481.1808C1395.1979,-462.1096 1385.1877,-430.0901 1363,-414 1311.3217,-376.5238 1139.9574,-393.3752 1078,-378 1053.5643,-371.9361 1049.4965,-363.8135 1025,-358 876.7206,-322.8103 834.8007,-344.0054 684,-322 675.6595,-320.7829 666.8784,-319.3306 658.2754,-317.8101"/>
<polygon fill="#191970" stroke="#191970" points="658.7586,-314.3408 648.2952,-316.0039 657.512,-321.2289 658.7586,-314.3408"/>
</g>
<!-- Node53&#45;&gt;Node30 -->
<g id="edge93" class="edge">
<title>Node53&#45;&gt;Node30</title>
<path fill="none" stroke="#191970" d="M1410.4682,-481.4661C1419.2942,-463.5617 1429.9238,-433.6182 1415,-414 1378.7024,-366.2847 1340.735,-400.088 1285,-378 1267.2573,-370.9685 1265.2843,-363.4709 1247,-358 1086.8946,-310.0943 763.2684,-413.4492 877,-291 912.3027,-252.9913 1276.0393,-260.9889 1362.1803,-254.8349"/>
<polygon fill="#191970" stroke="#191970" points="1362.6112,-258.3099 1372.2404,-253.8907 1361.9571,-251.3405 1362.6112,-258.3099"/>
</g>
<!-- Node53&#45;&gt;Node41 -->
<g id="edge92" class="edge">
<title>Node53&#45;&gt;Node41</title>
<path fill="none" stroke="#191970" d="M1450.7061,-481.4293C1470.9959,-473.2309 1493.5979,-461.3532 1510,-445 1526.0252,-429.0225 1536.0915,-404.7381 1541.6094,-387.7243"/>
<polygon fill="#191970" stroke="#191970" points="1545.0791,-388.3379 1544.5955,-377.7541 1538.3734,-386.3295 1545.0791,-388.3379"/>
</g>
<!-- Node54 -->
<g id="node41" class="node">
<title>Node54</title>
<g id="a_node41"><a xlink:href="Axis_8h.html" target="_top" xlink:title="iDynTree/Core/Axis.h">
<polygon fill="none" stroke="#ff0000" points="1120,-358.5 1120,-377.5 1238,-377.5 1238,-358.5 1120,-358.5"/>
<text text-anchor="middle" x="1179" y="-365.5" font-family="FreeSans.ttf" font-size="10.00" fill="#000000">iDynTree/Core/Axis.h</text>
</a>
</g>
</g>
<!-- Node53&#45;&gt;Node54 -->
<g id="edge94" class="edge">
<title>Node53&#45;&gt;Node54</title>
<path fill="none" stroke="#191970" d="M1405.7934,-481.3749C1409.3962,-463.0994 1412.1417,-432.5064 1396,-414 1386.1441,-402.7002 1307.9679,-388.1244 1248.2458,-378.4406"/>
<polygon fill="#191970" stroke="#191970" points="1248.511,-374.9385 1238.0829,-376.8107 1247.4024,-381.8502 1248.511,-374.9385"/>
</g>
<!-- Node56 -->
<g id="node42" class="node">
<title>Node56</title>
<g id="a_node42"><a xlink:href="MovableJointImpl_8h.html" target="_top" xlink:title="iDynTree/Model/MovableJoint\lImpl.h">
<polygon fill="none" stroke="#000000" points="1196,-414.5 1196,-444.5 1354,-444.5 1354,-414.5 1196,-414.5"/>
<text text-anchor="start" x="1204" y="-432.5" font-family="FreeSans.ttf" font-size="10.00" fill="#000000">iDynTree/Model/MovableJoint</text>
<text text-anchor="middle" x="1275" y="-421.5" font-family="FreeSans.ttf" font-size="10.00" fill="#000000">Impl.h</text>
</a>
</g>
</g>
<!-- Node53&#45;&gt;Node56 -->
<g id="edge99" class="edge">
<title>Node53&#45;&gt;Node56</title>
<path fill="none" stroke="#191970" d="M1373.4987,-481.4639C1355.5687,-472.0047 1332.2247,-459.6894 1312.763,-449.4222"/>
<polygon fill="#191970" stroke="#191970" points="1314.3234,-446.2882 1303.8456,-444.7177 1311.0571,-452.4795 1314.3234,-446.2882"/>
</g>
<!-- Node54&#45;&gt;Node2 -->
<g id="edge95" class="edge">
<title>Node54&#45;&gt;Node2</title>
<path fill="none" stroke="#191970" d="M1119.7508,-360.0947C1113.758,-359.3583 1107.7603,-358.6467 1102,-358 1059.8535,-353.2682 750.5401,-353.3717 722,-322 659.4221,-253.2135 729.4119,-130.0571 759.555,-84.0185"/>
<polygon fill="#191970" stroke="#191970" points="762.5066,-85.9012 765.1613,-75.6443 756.6897,-82.007 762.5066,-85.9012"/>
</g>
<!-- Node54&#45;&gt;Node13 -->
<g id="edge97" class="edge">
<title>Node54&#45;&gt;Node13</title>
<path fill="none" stroke="#191970" d="M1119.7447,-360.1481C1113.7531,-359.401 1107.7574,-358.6724 1102,-358 1063.4992,-353.5035 780.9565,-350.7887 755,-322 745.774,-311.7673 746.5584,-301.8888 755,-291 822.2022,-204.3159 1125.2006,-188.2376 1233,-168 1382.9315,-139.8528 1838.6109,-91.3606 2014.0854,-73.1702"/>
<polygon fill="#191970" stroke="#191970" points="2014.6473,-76.6308 2024.2337,-72.1195 2013.9264,-69.668 2014.6473,-76.6308"/>
</g>
<!-- Node54&#45;&gt;Node33 -->
<g id="edge96" class="edge">
<title>Node54&#45;&gt;Node33</title>
<path fill="none" stroke="#191970" d="M1119.6758,-359.871C1023.6785,-346.7146 844.8367,-322.1937 844,-322 840.3536,-321.1558 836.5872,-320.1501 832.8472,-319.0622"/>
<polygon fill="#191970" stroke="#191970" points="833.6977,-315.6617 823.1098,-316.0455 831.6261,-322.3481 833.6977,-315.6617"/>
</g>
<!-- Node56&#45;&gt;Node5 -->
<g id="edge100" class="edge">
<title>Node56&#45;&gt;Node5</title>
<path fill="none" stroke="#191970" d="M1195.9853,-414.4554C1139.2554,-403.6539 1063.9639,-389.3182 1012.1012,-379.4434"/>
<polygon fill="#191970" stroke="#191970" points="1012.5317,-375.9626 1002.0535,-377.5303 1011.2224,-382.8391 1012.5317,-375.9626"/>
</g>
<!-- Node57&#45;&gt;Node6 -->
<g id="edge105" class="edge">
<title>Node57&#45;&gt;Node6</title>
<path fill="none" stroke="#191970" d="M1554.254,-486.8705C1513.5883,-467.1846 1421.5037,-423.3937 1388,-414 1268.4631,-380.4847 1230.6592,-411.0759 1111,-378 1089.5126,-372.0605 1086.5882,-363.5622 1065,-358 900.2917,-315.5625 852.4373,-345.6359 684,-322 675.5486,-320.8141 666.6486,-319.3659 657.941,-317.8361"/>
<polygon fill="#191970" stroke="#191970" points="658.3087,-314.346 647.846,-316.0136 657.065,-321.2346 658.3087,-314.346"/>
</g>
<!-- Node57&#45;&gt;Node30 -->
<g id="edge103" class="edge">
<title>Node57&#45;&gt;Node30</title>
<path fill="none" stroke="#191970" d="M1583.9636,-486.7821C1607.4574,-462.7006 1661.9426,-399.2351 1629,-358 1583.7756,-301.3914 1521.6209,-372.8435 1470,-322 1454.903,-307.1304 1450.4554,-282.9394 1449.4571,-264.5882"/>
<polygon fill="#191970" stroke="#191970" points="1452.9558,-264.4847 1449.2135,-254.5728 1445.9578,-264.655 1452.9558,-264.4847"/>
</g>
<!-- Node57&#45;&gt;Node41 -->
<g id="edge102" class="edge">
<title>Node57&#45;&gt;Node41</title>
<path fill="none" stroke="#191970" d="M1578.4903,-486.5263C1584.9602,-470.6833 1595.1723,-439.0021 1586,-414 1581.9432,-402.9418 1573.9203,-392.7193 1566.2006,-384.7335"/>
<polygon fill="#191970" stroke="#191970" points="1568.3698,-381.9632 1558.74,-377.5451 1563.5128,-387.0041 1568.3698,-381.9632"/>
</g>
<!-- Node57&#45;&gt;Node54 -->
<g id="edge104" class="edge">
<title>Node57&#45;&gt;Node54</title>
<path fill="none" stroke="#191970" d="M1565.5561,-486.9371C1549.3579,-469.2801 1511.9659,-431.7477 1472,-414 1433.0658,-396.7105 1322.0537,-382.5536 1248.4056,-374.7029"/>
<polygon fill="#191970" stroke="#191970" points="1248.5842,-371.2025 1238.2729,-373.6374 1247.852,-378.1641 1248.5842,-371.2025"/>
</g>
<!-- Node57&#45;&gt;Node56 -->
<g id="edge106" class="edge">
<title>Node57&#45;&gt;Node56</title>
<path fill="none" stroke="#191970" d="M1531.4781,-486.9717C1484.9369,-476.5427 1409.3478,-459.6047 1352.2598,-446.8124"/>
<polygon fill="#191970" stroke="#191970" points="1352.7106,-443.3267 1342.1873,-444.5553 1351.18,-450.1573 1352.7106,-443.3267"/>
</g>
<!-- Node58&#45;&gt;Node2 -->
<g id="edge111" class="edge">
<title>Node58&#45;&gt;Node2</title>
<path fill="none" stroke="#191970" d="M1799.3196,-419.8339C1788.7019,-405.2155 1772.314,-377.1604 1786,-358 1814.6744,-317.8558 1854.1644,-354.8164 1891,-322 1925.2114,-291.5215 1948.1873,-262.2748 1923,-224 1888.4171,-171.4476 1853.4363,-185.4694 1793,-168 1639.1313,-123.5234 1596.1545,-129.9879 1437,-112 1194.7831,-84.6243 900.9641,-71.1564 804.4314,-67.2427"/>
<polygon fill="#191970" stroke="#191970" points="804.2956,-63.7346 794.1638,-66.8325 804.0161,-70.729 804.2956,-63.7346"/>
</g>
<!-- Node58&#45;&gt;Node20 -->
<g id="edge114" class="edge">
<title>Node58&#45;&gt;Node20</title>
<path fill="none" stroke="#191970" d="M1801.8153,-419.9502C1794.4731,-404.9782 1783.4643,-375.851 1798,-358 1847.8643,-296.7628 1918.57,-380.1522 1972,-322 2018.1838,-271.7345 2007.8929,-181.8495 2000.3983,-141.9842"/>
<polygon fill="#191970" stroke="#191970" points="2003.7781,-141.0397 1998.3627,-131.9335 1996.9174,-142.4293 2003.7781,-141.0397"/>
</g>
<!-- Node58&#45;&gt;Node19 -->
<g id="edge110" class="edge">
<title>Node58&#45;&gt;Node19</title>
<path fill="none" stroke="#191970" d="M1834.4815,-419.954C1861.4867,-410.3004 1903.6679,-394.4872 1939,-378 2145.1988,-281.7801 2272.03,-327.7732 2388,-132 2396.5508,-117.5651 2391.1504,-98.6218 2384.7336,-84.7339"/>
<polygon fill="#191970" stroke="#191970" points="2387.7501,-82.9463 2380.0665,-75.6516 2381.524,-86.1457 2387.7501,-82.9463"/>
</g>
<!-- Node58&#45;&gt;Node41 -->
<g id="edge113" class="edge">
<title>Node58&#45;&gt;Node41</title>
<path fill="none" stroke="#191970" d="M1766.6603,-419.9581C1721.0232,-409.1632 1646.643,-391.5694 1597.266,-379.8899"/>
<polygon fill="#191970" stroke="#191970" points="1597.9715,-376.4602 1587.4344,-377.5643 1596.3602,-383.2722 1597.9715,-376.4602"/>
</g>
<!-- Node58&#45;&gt;Node43 -->
<g id="edge109" class="edge">
<title>Node58&#45;&gt;Node43</title>
<path fill="none" stroke="#191970" d="M1751.8532,-426.7781C1538.2644,-416.2358 768.7577,-378.2545 595.716,-369.7135"/>
<polygon fill="#191970" stroke="#191970" points="595.8024,-366.2136 585.642,-369.2163 595.4572,-373.2051 595.8024,-366.2136"/>
</g>
<!-- Node58&#45;&gt;Node44 -->
<g id="edge112" class="edge">
<title>Node58&#45;&gt;Node44</title>
<path fill="none" stroke="#191970" d="M1751.9494,-427.5064C1539.2644,-419.7699 770.9912,-391.4966 527,-378 490.0215,-375.9545 447.6775,-372.8771 418.9207,-370.6769"/>
<polygon fill="#191970" stroke="#191970" points="418.844,-367.1606 408.6042,-369.8805 418.3052,-374.1399 418.844,-367.1606"/>
</g>
<!-- Node59 -->
<g id="node45" class="node">
<title>Node59</title>
<polygon fill="none" stroke="#bfbfbf" points="1806.5,-358.5 1806.5,-377.5 1853.5,-377.5 1853.5,-358.5 1806.5,-358.5"/>
<text text-anchor="middle" x="1830" y="-365.5" font-family="FreeSans.ttf" font-size="10.00" fill="#000000">cmath</text>
</g>
<!-- Node58&#45;&gt;Node59 -->
<g id="edge108" class="edge">
<title>Node58&#45;&gt;Node59</title>
<path fill="none" stroke="#191970" d="M1810.5938,-419.8906C1813.8491,-411.1862 1818.7425,-398.1015 1822.801,-387.2494"/>
<polygon fill="#191970" stroke="#191970" points="1826.1309,-388.3373 1826.3556,-377.7449 1819.5744,-385.8852 1826.1309,-388.3373"/>
</g>
<!-- Node60 -->
<g id="node46" class="node">
<title>Node60</title>
<polygon fill="none" stroke="#bfbfbf" points="1872,-358.5 1872,-377.5 1930,-377.5 1930,-358.5 1872,-358.5"/>
<text text-anchor="middle" x="1901" y="-365.5" font-family="FreeSans.ttf" font-size="10.00" fill="#000000">fpconv.h</text>
</g>
<!-- Node58&#45;&gt;Node60 -->
<g id="edge115" class="edge">
<title>Node58&#45;&gt;Node60</title>
<path fill="none" stroke="#191970" d="M1821.6875,-419.8906C1836.7256,-410.0519 1860.3176,-394.6167 1877.8667,-383.1351"/>
<polygon fill="#191970" stroke="#191970" points="1879.9637,-385.9457 1886.4156,-377.5419 1876.1313,-380.088 1879.9637,-385.9457"/>
</g>
</g>
</svg>
