<?xml version="1.0" encoding="UTF-8" standalone="no"?>
<!DOCTYPE svg PUBLIC "-//W3C//DTD SVG 1.1//EN"
 "http://www.w3.org/Graphics/SVG/1.1/DTD/svg11.dtd">
<!-- Generated by graphviz version 2.40.1 (20161225.0304)
 -->
<!-- Title: URDFDocument.cpp Pages: 1 -->
<svg width="3374pt" height="744pt"
 viewBox="0.00 0.00 3374.00 744.00" xmlns="http://www.w3.org/2000/svg" xmlns:xlink="http://www.w3.org/1999/xlink">
<g id="graph0" class="graph" transform="scale(1 1) rotate(0) translate(4 740)">
<title>URDFDocument.cpp</title>
<!-- Node0 -->
<g id="node1" class="node">
<title>Node0</title>
<polygon fill="#bfbfbf" stroke="#000000" points="2474,-716.5 2474,-735.5 2588,-735.5 2588,-716.5 2474,-716.5"/>
<text text-anchor="middle" x="2531" y="-723.5" font-family="FreeSans.ttf" font-size="10.00" fill="#000000">URDFDocument.cpp</text>
</g>
<!-- Node1 -->
<g id="node2" class="node">
<title>Node1</title>
<g id="a_node2"><a xlink:href="URDFDocument_8h.html" target="_top" xlink:title="URDFDocument.h">
<polygon fill="none" stroke="#000000" points="946.5,-660.5 946.5,-679.5 1049.5,-679.5 1049.5,-660.5 946.5,-660.5"/>
<text text-anchor="middle" x="998" y="-667.5" font-family="FreeSans.ttf" font-size="10.00" fill="#000000">URDFDocument.h</text>
</a>
</g>
</g>
<!-- Node0&#45;&gt;Node1 -->
<g id="edge1" class="edge">
<title>Node0&#45;&gt;Node1</title>
<path fill="none" stroke="#191970" d="M2473.7024,-723.9069C2233.5024,-715.1325 1308.6416,-681.3476 1059.9009,-672.2612"/>
<polygon fill="#191970" stroke="#191970" points="1059.7261,-668.7526 1049.605,-671.8851 1059.4705,-675.7479 1059.7261,-668.7526"/>
</g>
<!-- Node18 -->
<g id="node16" class="node">
<title>Node18</title>
<polygon fill="none" stroke="#bfbfbf" points="2409,-.5 2409,-19.5 2473,-19.5 2473,-.5 2409,-.5"/>
<text text-anchor="middle" x="2441" y="-7.5" font-family="FreeSans.ttf" font-size="10.00" fill="#000000">algorithm</text>
</g>
<!-- Node0&#45;&gt;Node18 -->
<g id="edge144" class="edge">
<title>Node0&#45;&gt;Node18</title>
<path fill="none" stroke="#191970" d="M2588.4383,-724.6742C2720.7983,-720.0637 3036,-699.5282 3036,-608.5 3036,-608.5 3036,-608.5 3036,-122 3036,-65.7199 2619.5566,-25.2187 2483.4655,-13.4857"/>
<polygon fill="#191970" stroke="#191970" points="2483.6738,-9.9909 2473.4123,-12.6275 2483.0784,-16.9655 2483.6738,-9.9909"/>
</g>
<!-- Node58 -->
<g id="node37" class="node">
<title>Node58</title>
<g id="a_node37"><a xlink:href="RobotElement_8h.html" target="_top" xlink:title="RobotElement.h">
<polygon fill="none" stroke="#000000" points="167,-599 167,-618 261,-618 261,-599 167,-599"/>
<text text-anchor="middle" x="214" y="-606" font-family="FreeSans.ttf" font-size="10.00" fill="#000000">RobotElement.h</text>
</a>
</g>
</g>
<!-- Node0&#45;&gt;Node58 -->
<g id="edge100" class="edge">
<title>Node0&#45;&gt;Node58</title>
<path fill="none" stroke="#191970" d="M2473.8029,-725.4931C2266.9203,-723.416 1538.1211,-713.983 938,-680 642.7571,-663.2813 566.624,-673.0236 275,-624 269.2014,-623.0252 263.1452,-621.7754 257.1959,-620.4091"/>
<polygon fill="#191970" stroke="#191970" points="257.8916,-616.9766 247.3491,-618.0281 256.2463,-623.7805 257.8916,-616.9766"/>
</g>
<!-- Node59 -->
<g id="node38" class="node">
<title>Node59</title>
<g id="a_node38"><a xlink:href="PrismaticJoint_8h.html" target="_top" xlink:title="iDynTree/Model/Prismatic\lJoint.h">
<polygon fill="none" stroke="#000000" points="2376,-470.5 2376,-500.5 2516,-500.5 2516,-470.5 2376,-470.5"/>
<text text-anchor="start" x="2384" y="-488.5" font-family="FreeSans.ttf" font-size="10.00" fill="#000000">iDynTree/Model/Prismatic</text>
<text text-anchor="middle" x="2446" y="-477.5" font-family="FreeSans.ttf" font-size="10.00" fill="#000000">Joint.h</text>
</a>
</g>
</g>
<!-- Node0&#45;&gt;Node59 -->
<g id="edge107" class="edge">
<title>Node0&#45;&gt;Node59</title>
<path fill="none" stroke="#191970" d="M2527.5626,-716.2742C2515.2458,-681.425 2473.0787,-562.1168 2454.6905,-510.089"/>
<polygon fill="#191970" stroke="#191970" points="2457.9781,-508.8876 2451.3458,-500.6255 2451.3782,-511.2203 2457.9781,-508.8876"/>
</g>
<!-- Node61 -->
<g id="node42" class="node">
<title>Node61</title>
<g id="a_node42"><a xlink:href="RevoluteJoint_8h.html" target="_top" xlink:title="iDynTree/Model/RevoluteJoint.h">
<polygon fill="none" stroke="#000000" points="2534,-476 2534,-495 2702,-495 2702,-476 2534,-476"/>
<text text-anchor="middle" x="2618" y="-483" font-family="FreeSans.ttf" font-size="10.00" fill="#000000">iDynTree/Model/RevoluteJoint.h</text>
</a>
</g>
</g>
<!-- Node0&#45;&gt;Node61 -->
<g id="edge122" class="edge">
<title>Node0&#45;&gt;Node61</title>
<path fill="none" stroke="#191970" d="M2534.5183,-716.2742C2547.5813,-680.1631 2593.4498,-553.3659 2611.0512,-504.7091"/>
<polygon fill="#191970" stroke="#191970" points="2614.4228,-505.6775 2614.5333,-495.0833 2607.8402,-503.2963 2614.4228,-505.6775"/>
</g>
<!-- Node62 -->
<g id="node43" class="node">
<title>Node62</title>
<g id="a_node43"><a xlink:href="ModelTransformers_8h.html" target="_top" xlink:title="Collection of function to modify model in various ways. ">
<polygon fill="none" stroke="#000000" points="3064.5,-660.5 3064.5,-679.5 3261.5,-679.5 3261.5,-660.5 3064.5,-660.5"/>
<text text-anchor="middle" x="3163" y="-667.5" font-family="FreeSans.ttf" font-size="10.00" fill="#000000">iDynTree/Model/ModelTransformers.h</text>
</a>
</g>
</g>
<!-- Node0&#45;&gt;Node62 -->
<g id="edge128" class="edge">
<title>Node0&#45;&gt;Node62</title>
<path fill="none" stroke="#191970" d="M2588.2005,-720.9316C2693.4346,-711.6071 2919.3065,-691.5931 3054.4588,-679.6176"/>
<polygon fill="#191970" stroke="#191970" points="3054.7796,-683.103 3064.4317,-678.7339 3054.1617,-676.1303 3054.7796,-683.103"/>
</g>
<!-- Node63 -->
<g id="node44" class="node">
<title>Node63</title>
<g id="a_node44"><a xlink:href="SixAxisForceTorqueSensor_8h.html" target="_top" xlink:title="iDynTree/Sensors/SixAxis\lForceTorqueSensor.h">
<polygon fill="none" stroke="#000000" points="1842,-593.5 1842,-623.5 1982,-623.5 1982,-593.5 1842,-593.5"/>
<text text-anchor="start" x="1850" y="-611.5" font-family="FreeSans.ttf" font-size="10.00" fill="#000000">iDynTree/Sensors/SixAxis</text>
<text text-anchor="middle" x="1912" y="-600.5" font-family="FreeSans.ttf" font-size="10.00" fill="#000000">ForceTorqueSensor.h</text>
</a>
</g>
</g>
<!-- Node0&#45;&gt;Node63 -->
<g id="edge129" class="edge">
<title>Node0&#45;&gt;Node63</title>
<path fill="none" stroke="#191970" d="M2480.869,-716.484C2373.7143,-696.1437 2121.6068,-648.2881 1992.0092,-623.6875"/>
<polygon fill="#191970" stroke="#191970" points="1992.6118,-620.2395 1982.1345,-621.8131 1991.3063,-627.1167 1992.6118,-620.2395"/>
</g>
<!-- Node66 -->
<g id="node50" class="node">
<title>Node66</title>
<polygon fill="none" stroke="#bfbfbf" points="3280,-660.5 3280,-679.5 3366,-679.5 3366,-660.5 3280,-660.5"/>
<text text-anchor="middle" x="3323" y="-667.5" font-family="FreeSans.ttf" font-size="10.00" fill="#000000">unordered_set</text>
</g>
<!-- Node0&#45;&gt;Node66 -->
<g id="edge145" class="edge">
<title>Node0&#45;&gt;Node66</title>
<path fill="none" stroke="#191970" d="M2588.3337,-724.9307C2711.4065,-722.0959 3010.1251,-712.3299 3269.9352,-679.9801"/>
<polygon fill="#191970" stroke="#191970" points="3270.4532,-683.4426 3279.9378,-678.7209 3269.5789,-676.4974 3270.4532,-683.4426"/>
</g>
<!-- Node2 -->
<g id="node3" class="node">
<title>Node2</title>
<g id="a_node3"><a xlink:href="XMLDocument_8h.html" target="_top" xlink:title="iDynTree/XMLDocument.h">
<polygon fill="none" stroke="#000000" points="638,-409 638,-428 780,-428 780,-409 638,-409"/>
<text text-anchor="middle" x="709" y="-416" font-family="FreeSans.ttf" font-size="10.00" fill="#000000">iDynTree/XMLDocument.h</text>
</a>
</g>
</g>
<!-- Node1&#45;&gt;Node2 -->
<g id="edge2" class="edge">
<title>Node1&#45;&gt;Node2</title>
<path fill="none" stroke="#191970" d="M987.0238,-660.448C943.4808,-622.5551 782.6116,-482.56 727.5932,-434.6806"/>
<polygon fill="#191970" stroke="#191970" points="729.8284,-431.986 719.9872,-428.0615 725.2331,-437.2665 729.8284,-431.986"/>
</g>
<!-- Node4 -->
<g id="node5" class="node">
<title>Node4</title>
<polygon fill="none" stroke="#bfbfbf" points="1658,-56.5 1658,-75.5 1702,-75.5 1702,-56.5 1658,-56.5"/>
<text text-anchor="middle" x="1680" y="-63.5" font-family="FreeSans.ttf" font-size="10.00" fill="#000000">string</text>
</g>
<!-- Node1&#45;&gt;Node4 -->
<g id="edge97" class="edge">
<title>Node1&#45;&gt;Node4</title>
<path fill="none" stroke="#191970" d="M946.205,-668.693C754.8012,-663.7051 96.4139,-645.0838 57,-624 19.4556,-603.9163 0,-589.5786 0,-547 0,-547 0,-547 0,-183.5 0,-66.6515 137.5312,-129.9034 253,-112 394.9066,-89.9974 1449.2169,-70.1357 1647.7971,-66.5684"/>
<polygon fill="#191970" stroke="#191970" points="1647.9421,-70.0665 1657.8779,-66.3881 1647.8169,-63.0676 1647.9421,-70.0665"/>
</g>
<!-- Node5 -->
<g id="node6" class="node">
<title>Node5</title>
<g id="a_node6"><a xlink:href="JointElement_8h.html" target="_top" xlink:title="JointElement.h">
<polygon fill="none" stroke="#000000" points="342,-476 342,-495 430,-495 430,-476 342,-476"/>
<text text-anchor="middle" x="386" y="-483" font-family="FreeSans.ttf" font-size="10.00" fill="#000000">JointElement.h</text>
</a>
</g>
</g>
<!-- Node1&#45;&gt;Node5 -->
<g id="edge5" class="edge">
<title>Node1&#45;&gt;Node5</title>
<path fill="none" stroke="#191970" d="M946.4907,-664.2823C825.6186,-650.1152 527.6847,-610.6174 444,-557 423.0744,-543.5928 406.1721,-520.0962 396.1251,-503.7117"/>
<polygon fill="#191970" stroke="#191970" points="399.1027,-501.8703 391.0232,-495.0167 393.0653,-505.4129 399.1027,-501.8703"/>
</g>
<!-- Node8 -->
<g id="node9" class="node">
<title>Node8</title>
<polygon fill="none" stroke="#bfbfbf" points="90.5,-347.5 90.5,-366.5 183.5,-366.5 183.5,-347.5 90.5,-347.5"/>
<text text-anchor="middle" x="137" y="-354.5" font-family="FreeSans.ttf" font-size="10.00" fill="#000000">unordered_map</text>
</g>
<!-- Node1&#45;&gt;Node8 -->
<g id="edge99" class="edge">
<title>Node1&#45;&gt;Node8</title>
<path fill="none" stroke="#191970" d="M946.3104,-668.7039C775.0404,-664.1973 232.7418,-648.1564 158,-624 97.7022,-604.5119 38,-610.3688 38,-547 38,-547 38,-547 38,-485.5 38,-436.2428 84.2132,-394.3095 113.4913,-372.6857"/>
<polygon fill="#191970" stroke="#191970" points="115.856,-375.2981 121.964,-366.6412 111.7906,-369.5996 115.856,-375.2981"/>
</g>
<!-- Node9 -->
<g id="node10" class="node">
<title>Node9</title>
<polygon fill="none" stroke="#bfbfbf" points="1232.5,-347.5 1232.5,-366.5 1279.5,-366.5 1279.5,-347.5 1232.5,-347.5"/>
<text text-anchor="middle" x="1256" y="-354.5" font-family="FreeSans.ttf" font-size="10.00" fill="#000000">vector</text>
</g>
<!-- Node1&#45;&gt;Node9 -->
<g id="edge98" class="edge">
<title>Node1&#45;&gt;Node9</title>
<path fill="none" stroke="#191970" d="M1036.4225,-660.4717C1060.3838,-653.2142 1090.9387,-641.4547 1114,-624 1195.1866,-562.5513 1209.5145,-530.4982 1242,-434 1248.3487,-415.1411 1252.0154,-392.6594 1253.9909,-376.8722"/>
<polygon fill="#191970" stroke="#191970" points="1257.4944,-377.0382 1255.1446,-366.7073 1250.5391,-376.2487 1257.4944,-377.0382"/>
</g>
<!-- Node35 -->
<g id="node24" class="node">
<title>Node35</title>
<g id="a_node24"><a xlink:href="MaterialElement_8h.html" target="_top" xlink:title="MaterialElement.h">
<polygon fill="none" stroke="#000000" points="218,-476 218,-495 324,-495 324,-476 218,-476"/>
<text text-anchor="middle" x="271" y="-483" font-family="FreeSans.ttf" font-size="10.00" fill="#000000">MaterialElement.h</text>
</a>
</g>
</g>
<!-- Node1&#45;&gt;Node35 -->
<g id="edge43" class="edge">
<title>Node1&#45;&gt;Node35</title>
<path fill="none" stroke="#191970" d="M946.4629,-667.2991C842.9828,-661.4751 613.3903,-646.4229 538,-624 440.8042,-595.0916 337.4339,-530.3482 293.1819,-500.7684"/>
<polygon fill="#191970" stroke="#191970" points="294.9065,-497.7098 284.6599,-495.0157 290.99,-503.5116 294.9065,-497.7098"/>
</g>
<!-- Node36 -->
<g id="node25" class="node">
<title>Node36</title>
<g id="a_node25"><a xlink:href="SensorElement_8h.html" target="_top" xlink:title="SensorElement.h">
<polygon fill="none" stroke="#000000" points="1005.5,-599 1005.5,-618 1104.5,-618 1104.5,-599 1005.5,-599"/>
<text text-anchor="middle" x="1055" y="-606" font-family="FreeSans.ttf" font-size="10.00" fill="#000000">SensorElement.h</text>
</a>
</g>
</g>
<!-- Node1&#45;&gt;Node36 -->
<g id="edge48" class="edge">
<title>Node1&#45;&gt;Node36</title>
<path fill="none" stroke="#191970" d="M1006.9063,-660.3906C1015.4728,-651.1478 1028.6169,-636.966 1039.0003,-625.7628"/>
<polygon fill="#191970" stroke="#191970" points="1041.7375,-627.9584 1045.9682,-618.2449 1036.6035,-623.2 1041.7375,-627.9584"/>
</g>
<!-- Node37 -->
<g id="node26" class="node">
<title>Node37</title>
<g id="a_node26"><a xlink:href="Sensors_8h.html" target="_top" xlink:title="iDynTree/Sensors/Sensors.h">
<polygon fill="none" stroke="#000000" points="1664.5,-537.5 1664.5,-556.5 1815.5,-556.5 1815.5,-537.5 1664.5,-537.5"/>
<text text-anchor="middle" x="1740" y="-544.5" font-family="FreeSans.ttf" font-size="10.00" fill="#000000">iDynTree/Sensors/Sensors.h</text>
</a>
</g>
</g>
<!-- Node1&#45;&gt;Node37 -->
<g id="edge96" class="edge">
<title>Node1&#45;&gt;Node37</title>
<path fill="none" stroke="#191970" d="M1049.7619,-669.1862C1142.2689,-666.8767 1341.671,-658.0135 1506,-624 1579.7828,-608.7281 1662.8355,-578.0088 1707.4557,-560.3362"/>
<polygon fill="#191970" stroke="#191970" points="1708.9121,-563.5234 1716.8995,-556.5627 1706.3146,-557.0231 1708.9121,-563.5234"/>
</g>
<!-- Node39 -->
<g id="node28" class="node">
<title>Node39</title>
<g id="a_node28"><a xlink:href="Model_8h.html" target="_top" xlink:title="iDynTree/Model/Model.h">
<polygon fill="none" stroke="#000000" points="1466.5,-476 1466.5,-495 1599.5,-495 1599.5,-476 1466.5,-476"/>
<text text-anchor="middle" x="1533" y="-483" font-family="FreeSans.ttf" font-size="10.00" fill="#000000">iDynTree/Model/Model.h</text>
</a>
</g>
</g>
<!-- Node1&#45;&gt;Node39 -->
<g id="edge95" class="edge">
<title>Node1&#45;&gt;Node39</title>
<path fill="none" stroke="#191970" d="M1049.6883,-668.0678C1142.1603,-663.9382 1331.7775,-652.223 1391,-624 1449.6002,-596.0735 1498.8919,-534.1814 1520.8115,-503.4844"/>
<polygon fill="#191970" stroke="#191970" points="1523.8587,-505.2339 1526.7154,-495.0314 1518.1199,-501.2257 1523.8587,-505.2339"/>
</g>
<!-- Node56 -->
<g id="node35" class="node">
<title>Node56</title>
<g id="a_node35"><a xlink:href="VisualElement_8h.html" target="_top" xlink:title="VisualElement.h">
<polygon fill="none" stroke="#000000" points="486,-537.5 486,-556.5 582,-556.5 582,-537.5 486,-537.5"/>
<text text-anchor="middle" x="534" y="-544.5" font-family="FreeSans.ttf" font-size="10.00" fill="#000000">VisualElement.h</text>
</a>
</g>
</g>
<!-- Node1&#45;&gt;Node56 -->
<g id="edge80" class="edge">
<title>Node1&#45;&gt;Node56</title>
<path fill="none" stroke="#191970" d="M961.9768,-660.4507C878.5493,-638.3353 672.1773,-583.6289 579.8861,-559.1638"/>
<polygon fill="#191970" stroke="#191970" points="580.5633,-555.7225 570.0003,-556.5432 578.7696,-562.4888 580.5633,-555.7225"/>
</g>
<!-- Node57 -->
<g id="node36" class="node">
<title>Node57</title>
<g id="a_node36"><a xlink:href="ModelLoader_8h.html" target="_top" xlink:title="iDynTree/ModelIO/ModelLoader.h">
<polygon fill="none" stroke="#000000" points="1206,-599 1206,-618 1382,-618 1382,-599 1206,-599"/>
<text text-anchor="middle" x="1294" y="-606" font-family="FreeSans.ttf" font-size="10.00" fill="#000000">iDynTree/ModelIO/ModelLoader.h</text>
</a>
</g>
</g>
<!-- Node1&#45;&gt;Node57 -->
<g id="edge89" class="edge">
<title>Node1&#45;&gt;Node57</title>
<path fill="none" stroke="#191970" d="M1043.9252,-660.4581C1096.2067,-649.5956 1181.6222,-631.8488 1237.8269,-620.1711"/>
<polygon fill="#191970" stroke="#191970" points="1238.8881,-623.5254 1247.967,-618.0643 1237.4641,-616.6718 1238.8881,-623.5254"/>
</g>
<!-- Node3 -->
<g id="node4" class="node">
<title>Node3</title>
<polygon fill="none" stroke="#bfbfbf" points="562,-347.5 562,-366.5 620,-366.5 620,-347.5 562,-347.5"/>
<text text-anchor="middle" x="591" y="-354.5" font-family="FreeSans.ttf" font-size="10.00" fill="#000000">memory</text>
</g>
<!-- Node2&#45;&gt;Node3 -->
<g id="edge3" class="edge">
<title>Node2&#45;&gt;Node3</title>
<path fill="none" stroke="#191970" d="M690.5625,-408.8906C671.1653,-398.7811 640.431,-382.7628 618.2383,-371.1962"/>
<polygon fill="#191970" stroke="#191970" points="619.7936,-368.06 609.308,-366.5419 616.5582,-374.2675 619.7936,-368.06"/>
</g>
<!-- Node2&#45;&gt;Node4 -->
<g id="edge4" class="edge">
<title>Node2&#45;&gt;Node4</title>
<path fill="none" stroke="#191970" d="M716.3777,-408.7305C730.286,-389.3102 759,-344.0087 759,-301 759,-301 759,-301 759,-183.5 759,-138.0856 790.4333,-130.2942 832,-112 907.7001,-78.6831 1502.1798,-68.4311 1647.8582,-66.407"/>
<polygon fill="#191970" stroke="#191970" points="1647.9851,-69.9057 1657.9367,-66.2703 1647.8901,-62.9064 1647.9851,-69.9057"/>
</g>
<!-- Node5&#45;&gt;Node3 -->
<g id="edge40" class="edge">
<title>Node5&#45;&gt;Node3</title>
<path fill="none" stroke="#191970" d="M402.2691,-475.9848C419.6391,-465.773 447.92,-448.9943 472,-434 505.7109,-413.0086 544.2104,-387.883 568.064,-372.1776"/>
<polygon fill="#191970" stroke="#191970" points="570.0275,-375.0754 576.4485,-366.6479 566.1736,-369.2318 570.0275,-375.0754"/>
</g>
<!-- Node5&#45;&gt;Node4 -->
<g id="edge41" class="edge">
<title>Node5&#45;&gt;Node4</title>
<path fill="none" stroke="#191970" d="M353.4853,-475.9865C332.1034,-468.0931 305.1804,-454.7488 289,-434 267.324,-406.204 270,-392.2487 270,-357 270,-357 270,-357 270,-183.5 270,-84.9052 383.0558,-129.9656 480,-112 597.5218,-90.221 1467.3706,-70.5496 1647.4339,-66.6853"/>
<polygon fill="#191970" stroke="#191970" points="1647.6703,-70.1812 1657.5933,-66.4684 1647.5208,-63.1827 1647.6703,-70.1812"/>
</g>
<!-- Node6 -->
<g id="node7" class="node">
<title>Node6</title>
<g id="a_node7"><a xlink:href="XMLElement_8h.html" target="_top" xlink:title="iDynTree/XMLElement.h">
<polygon fill="none" stroke="#000000" points="298,-409 298,-428 430,-428 430,-409 298,-409"/>
<text text-anchor="middle" x="364" y="-416" font-family="FreeSans.ttf" font-size="10.00" fill="#000000">iDynTree/XMLElement.h</text>
</a>
</g>
</g>
<!-- Node5&#45;&gt;Node6 -->
<g id="edge6" class="edge">
<title>Node5&#45;&gt;Node6</title>
<path fill="none" stroke="#191970" d="M382.8479,-475.9005C379.5806,-465.95 374.3857,-450.1292 370.2765,-437.6147"/>
<polygon fill="#191970" stroke="#191970" points="373.5913,-436.4907 367.1462,-428.0817 366.9407,-438.6745 373.5913,-436.4907"/>
</g>
<!-- Node5&#45;&gt;Node8 -->
<g id="edge42" class="edge">
<title>Node5&#45;&gt;Node8</title>
<path fill="none" stroke="#191970" d="M357.1402,-475.9143C330.3125,-466.5762 289.5571,-451.2891 256,-434 220.2739,-415.5934 181.6985,-389.3331 158.45,-372.7315"/>
<polygon fill="#191970" stroke="#191970" points="160.2031,-369.6807 150.0445,-366.6718 156.1095,-375.3589 160.2031,-369.6807"/>
</g>
<!-- Node10 -->
<g id="node11" class="node">
<title>Node10</title>
<g id="a_node11"><a xlink:href="Axis_8h.html" target="_top" xlink:title="iDynTree/Core/Axis.h">
<polygon fill="none" stroke="#000000" points="2379,-347.5 2379,-366.5 2497,-366.5 2497,-347.5 2379,-347.5"/>
<text text-anchor="middle" x="2438" y="-354.5" font-family="FreeSans.ttf" font-size="10.00" fill="#000000">iDynTree/Core/Axis.h</text>
</a>
</g>
</g>
<!-- Node5&#45;&gt;Node10 -->
<g id="edge12" class="edge">
<title>Node5&#45;&gt;Node10</title>
<path fill="none" stroke="#191970" d="M430.0936,-484.5889C592.1089,-481.0514 1169.7801,-466.7656 1645,-434 1913.2393,-415.5053 2231.3361,-380.7019 2368.9177,-365.0201"/>
<polygon fill="#191970" stroke="#191970" points="2369.3659,-368.4918 2378.9039,-363.8793 2368.5713,-361.537 2369.3659,-368.4918"/>
</g>
<!-- Node34 -->
<g id="node22" class="node">
<title>Node34</title>
<g id="a_node22"><a xlink:href="Transform_8h.html" target="_top" xlink:title="iDynTree/Core/Transform.h">
<polygon fill="none" stroke="#000000" points="2072,-347.5 2072,-366.5 2218,-366.5 2218,-347.5 2072,-347.5"/>
<text text-anchor="middle" x="2145" y="-354.5" font-family="FreeSans.ttf" font-size="10.00" fill="#000000">iDynTree/Core/Transform.h</text>
</a>
</g>
</g>
<!-- Node5&#45;&gt;Node34 -->
<g id="edge32" class="edge">
<title>Node5&#45;&gt;Node34</title>
<path fill="none" stroke="#191970" d="M430.2002,-485.1533C602.3706,-483.5169 1228.1616,-474.8279 1422,-434 1459.7188,-426.0553 1465.3703,-411.3564 1503,-403 1607.1705,-379.8669 1913.2332,-365.6477 2061.969,-359.9175"/>
<polygon fill="#191970" stroke="#191970" points="2062.1088,-363.4148 2071.968,-359.536 2061.8418,-356.4199 2062.1088,-363.4148"/>
</g>
<!-- Node6&#45;&gt;Node3 -->
<g id="edge8" class="edge">
<title>Node6&#45;&gt;Node3</title>
<path fill="none" stroke="#191970" d="M399.4688,-408.8906C440.9118,-397.6627 509.2567,-379.1463 552.1149,-367.5349"/>
<polygon fill="#191970" stroke="#191970" points="553.1674,-370.8761 561.9042,-364.8828 551.3369,-364.1196 553.1674,-370.8761"/>
</g>
<!-- Node6&#45;&gt;Node4 -->
<g id="edge9" class="edge">
<title>Node6&#45;&gt;Node4</title>
<path fill="none" stroke="#191970" d="M380.2851,-408.7984C407.6743,-391.1047 460,-350.7867 460,-301 460,-301 460,-301 460,-183.5 460,-142.0158 482.757,-130.2729 520,-112 571.9767,-86.4982 1465.3935,-69.7132 1647.6827,-66.5453"/>
<polygon fill="#191970" stroke="#191970" points="1648.0127,-70.0402 1657.9509,-66.3682 1647.892,-63.0412 1648.0127,-70.0402"/>
</g>
<!-- Node7 -->
<g id="node8" class="node">
<title>Node7</title>
<polygon fill="none" stroke="#bfbfbf" points="331.5,-347.5 331.5,-366.5 396.5,-366.5 396.5,-347.5 331.5,-347.5"/>
<text text-anchor="middle" x="364" y="-354.5" font-family="FreeSans.ttf" font-size="10.00" fill="#000000">functional</text>
</g>
<!-- Node6&#45;&gt;Node7 -->
<g id="edge7" class="edge">
<title>Node6&#45;&gt;Node7</title>
<path fill="none" stroke="#191970" d="M364,-408.8906C364,-400.3657 364,-387.6392 364,-376.9235"/>
<polygon fill="#191970" stroke="#191970" points="367.5001,-376.7448 364,-366.7449 360.5001,-376.7449 367.5001,-376.7448"/>
</g>
<!-- Node6&#45;&gt;Node8 -->
<g id="edge10" class="edge">
<title>Node6&#45;&gt;Node8</title>
<path fill="none" stroke="#191970" d="M328.5313,-408.8906C289.0507,-398.1944 225.1557,-380.8836 182.1395,-369.2294"/>
<polygon fill="#191970" stroke="#191970" points="182.787,-365.7787 172.2197,-366.5419 180.9565,-372.5352 182.787,-365.7787"/>
</g>
<!-- Node6&#45;&gt;Node9 -->
<g id="edge11" class="edge">
<title>Node6&#45;&gt;Node9</title>
<path fill="none" stroke="#191970" d="M430.3162,-413.9277C607.8239,-401.6893 1089.2822,-368.4946 1221.8228,-359.3564"/>
<polygon fill="#191970" stroke="#191970" points="1222.4236,-362.8234 1232.1591,-358.6437 1221.9421,-355.8399 1222.4236,-362.8234"/>
</g>
<!-- Node10&#45;&gt;Node4 -->
<g id="edge13" class="edge">
<title>Node10&#45;&gt;Node4</title>
<path fill="none" stroke="#191970" d="M2399.6835,-347.4951C2364.5076,-338.6076 2311.0241,-324.6866 2265,-311 2127.7835,-270.1948 2093.6971,-257.4097 1963,-199 1869.4103,-157.1739 1759.9129,-104.6886 1708.8956,-80.0256"/>
<polygon fill="#191970" stroke="#191970" points="1710.3062,-76.8199 1699.7802,-75.6141 1707.2568,-83.1208 1710.3062,-76.8199"/>
</g>
<!-- Node11 -->
<g id="node12" class="node">
<title>Node11</title>
<g id="a_node12"><a xlink:href="Direction_8h.html" target="_top" xlink:title="iDynTree/Core/Direction.h">
<polygon fill="none" stroke="#000000" points="2333.5,-174 2333.5,-193 2474.5,-193 2474.5,-174 2333.5,-174"/>
<text text-anchor="middle" x="2404" y="-181" font-family="FreeSans.ttf" font-size="10.00" fill="#000000">iDynTree/Core/Direction.h</text>
</a>
</g>
</g>
<!-- Node10&#45;&gt;Node11 -->
<g id="edge14" class="edge">
<title>Node10&#45;&gt;Node11</title>
<path fill="none" stroke="#191970" d="M2436.1236,-347.4248C2430.7491,-319.999 2415.2155,-240.732 2407.899,-203.3964"/>
<polygon fill="#191970" stroke="#191970" points="2411.2704,-202.3998 2405.9125,-193.2595 2404.401,-203.746 2411.2704,-202.3998"/>
</g>
<!-- Node13 -->
<g id="node14" class="node">
<title>Node13</title>
<g id="a_node14"><a xlink:href="Utils_8h.html" target="_top" xlink:title="iDynTree/Core/Utils.h">
<polygon fill="none" stroke="#ff0000" points="2628.5,-56.5 2628.5,-75.5 2747.5,-75.5 2747.5,-56.5 2628.5,-56.5"/>
<text text-anchor="middle" x="2688" y="-63.5" font-family="FreeSans.ttf" font-size="10.00" fill="#000000">iDynTree/Core/Utils.h</text>
</a>
</g>
</g>
<!-- Node10&#45;&gt;Node13 -->
<g id="edge31" class="edge">
<title>Node10&#45;&gt;Node13</title>
<path fill="none" stroke="#191970" d="M2463.061,-347.36C2510.9433,-327.5371 2615.0979,-277.3729 2665,-199 2687.3554,-163.8902 2689.7611,-113.4726 2689.1387,-85.8925"/>
<polygon fill="#191970" stroke="#191970" points="2692.6237,-85.4376 2688.736,-75.5819 2685.6291,-85.7109 2692.6237,-85.4376"/>
</g>
<!-- Node27 -->
<g id="node19" class="node">
<title>Node27</title>
<g id="a_node19"><a xlink:href="Position_8h.html" target="_top" xlink:title="iDynTree/Core/Position.h">
<polygon fill="none" stroke="#ff0000" points="2274,-291.5 2274,-310.5 2410,-310.5 2410,-291.5 2274,-291.5"/>
<text text-anchor="middle" x="2342" y="-298.5" font-family="FreeSans.ttf" font-size="10.00" fill="#000000">iDynTree/Core/Position.h</text>
</a>
</g>
</g>
<!-- Node10&#45;&gt;Node27 -->
<g id="edge24" class="edge">
<title>Node10&#45;&gt;Node27</title>
<path fill="none" stroke="#191970" d="M2421.2781,-347.2455C2406.4111,-338.5731 2384.4534,-325.7645 2367.4142,-315.825"/>
<polygon fill="#191970" stroke="#191970" points="2368.9317,-312.6582 2358.5303,-310.6427 2365.4045,-318.7047 2368.9317,-312.6582"/>
</g>
<!-- Node11&#45;&gt;Node4 -->
<g id="edge15" class="edge">
<title>Node11&#45;&gt;Node4</title>
<path fill="none" stroke="#191970" d="M2382.1454,-173.9574C2344.9316,-158.1657 2266.5274,-126.8673 2197,-112 2103.571,-92.0218 1810.197,-73.5789 1712.2197,-67.8353"/>
<polygon fill="#191970" stroke="#191970" points="1712.232,-64.3302 1702.0456,-67.2435 1711.8254,-71.3184 1712.232,-64.3302"/>
</g>
<!-- Node12 -->
<g id="node13" class="node">
<title>Node12</title>
<g id="a_node13"><a xlink:href="VectorFixSize_8h.html" target="_top" xlink:title="iDynTree/Core/VectorFixSize.h">
<polygon fill="none" stroke="#ff0000" points="2460.5,-112.5 2460.5,-131.5 2621.5,-131.5 2621.5,-112.5 2460.5,-112.5"/>
<text text-anchor="middle" x="2541" y="-119.5" font-family="FreeSans.ttf" font-size="10.00" fill="#000000">iDynTree/Core/VectorFixSize.h</text>
</a>
</g>
</g>
<!-- Node11&#45;&gt;Node12 -->
<g id="edge16" class="edge">
<title>Node11&#45;&gt;Node12</title>
<path fill="none" stroke="#191970" d="M2425.4063,-173.8906C2448.2283,-163.6457 2484.5679,-147.3326 2510.4057,-135.7339"/>
<polygon fill="#191970" stroke="#191970" points="2512.0545,-138.8303 2519.7441,-131.5419 2509.1877,-132.4443 2512.0545,-138.8303"/>
</g>
<!-- Node11&#45;&gt;Node13 -->
<g id="edge23" class="edge">
<title>Node11&#45;&gt;Node13</title>
<path fill="none" stroke="#191970" d="M2453.5099,-173.9764C2515.6181,-161.7663 2615.8644,-141.0885 2631,-132 2650.5629,-120.253 2666.8481,-99.461 2676.9341,-84.3461"/>
<polygon fill="#191970" stroke="#191970" points="2679.9585,-86.1131 2682.3869,-75.8003 2674.0573,-82.3478 2679.9585,-86.1131"/>
</g>
<!-- Node12&#45;&gt;Node4 -->
<g id="edge21" class="edge">
<title>Node12&#45;&gt;Node4</title>
<path fill="none" stroke="#191970" d="M2460.4885,-112.7625C2457.6248,-112.4949 2454.7885,-112.2396 2452,-112 2165.5318,-87.3886 1818.1274,-71.7642 1712.1876,-67.3131"/>
<polygon fill="#191970" stroke="#191970" points="1712.2764,-63.8139 1702.1392,-66.8941 1711.9847,-70.8078 1712.2764,-63.8139"/>
</g>
<!-- Node12&#45;&gt;Node13 -->
<g id="edge17" class="edge">
<title>Node12&#45;&gt;Node13</title>
<path fill="none" stroke="#191970" d="M2566.2702,-112.3733C2590.3966,-103.1822 2626.9362,-89.2624 2653.6877,-79.0713"/>
<polygon fill="#191970" stroke="#191970" points="2654.9607,-82.3318 2663.0596,-75.5011 2652.4687,-75.7904 2654.9607,-82.3318"/>
</g>
<!-- Node16 -->
<g id="node15" class="node">
<title>Node16</title>
<g id="a_node15"><a xlink:href="Span_8h.html" target="_top" xlink:title="iDynTree/Core/Span.h">
<polygon fill="none" stroke="#ff0000" points="2327.5,-56.5 2327.5,-75.5 2448.5,-75.5 2448.5,-56.5 2327.5,-56.5"/>
<text text-anchor="middle" x="2388" y="-63.5" font-family="FreeSans.ttf" font-size="10.00" fill="#000000">iDynTree/Core/Span.h</text>
</a>
</g>
</g>
<!-- Node12&#45;&gt;Node16 -->
<g id="edge18" class="edge">
<title>Node12&#45;&gt;Node16</title>
<path fill="none" stroke="#191970" d="M2514.6984,-112.3733C2489.5872,-103.1822 2451.5562,-89.2624 2423.7128,-79.0713"/>
<polygon fill="#191970" stroke="#191970" points="2424.5522,-75.6516 2413.9584,-75.5011 2422.1462,-82.2251 2424.5522,-75.6516"/>
</g>
<!-- Node25 -->
<g id="node18" class="node">
<title>Node25</title>
<polygon fill="none" stroke="#bfbfbf" points="2513,-56.5 2513,-75.5 2569,-75.5 2569,-56.5 2513,-56.5"/>
<text text-anchor="middle" x="2541" y="-63.5" font-family="FreeSans.ttf" font-size="10.00" fill="#000000">sstream</text>
</g>
<!-- Node12&#45;&gt;Node25 -->
<g id="edge22" class="edge">
<title>Node12&#45;&gt;Node25</title>
<path fill="none" stroke="#191970" d="M2541,-112.2455C2541,-104.9382 2541,-94.6944 2541,-85.7046"/>
<polygon fill="#191970" stroke="#191970" points="2544.5001,-85.6426 2541,-75.6427 2537.5001,-85.6427 2544.5001,-85.6426"/>
</g>
<!-- Node16&#45;&gt;Node18 -->
<g id="edge19" class="edge">
<title>Node16&#45;&gt;Node18</title>
<path fill="none" stroke="#191970" d="M2397.2319,-56.2455C2404.8317,-48.2155 2415.7877,-36.6394 2424.8368,-27.0781"/>
<polygon fill="#191970" stroke="#191970" points="2427.5421,-29.3115 2431.8739,-19.6427 2422.458,-24.4998 2427.5421,-29.3115"/>
</g>
<!-- Node20 -->
<g id="node17" class="node">
<title>Node20</title>
<polygon fill="none" stroke="#bfbfbf" points="2308.5,-.5 2308.5,-19.5 2361.5,-19.5 2361.5,-.5 2308.5,-.5"/>
<text text-anchor="middle" x="2335" y="-7.5" font-family="FreeSans.ttf" font-size="10.00" fill="#000000">iterator</text>
</g>
<!-- Node16&#45;&gt;Node20 -->
<g id="edge20" class="edge">
<title>Node16&#45;&gt;Node20</title>
<path fill="none" stroke="#191970" d="M2378.7681,-56.2455C2371.1683,-48.2155 2360.2123,-36.6394 2351.1632,-27.0781"/>
<polygon fill="#191970" stroke="#191970" points="2353.542,-24.4998 2344.1261,-19.6427 2348.4579,-29.3115 2353.542,-24.4998"/>
</g>
<!-- Node27&#45;&gt;Node4 -->
<g id="edge30" class="edge">
<title>Node27&#45;&gt;Node4</title>
<path fill="none" stroke="#191970" d="M2294.6653,-291.4477C2229.0388,-277.0808 2107.7902,-246.4334 2013,-199 1954.0889,-169.5206 1953.15,-138.8615 1893,-112 1832.4946,-84.9798 1755.0725,-73.4 1712.2073,-68.781"/>
<polygon fill="#191970" stroke="#191970" points="1712.3881,-65.2814 1702.0853,-67.7515 1711.6798,-72.2455 1712.3881,-65.2814"/>
</g>
<!-- Node29 -->
<g id="node20" class="node">
<title>Node29</title>
<g id="a_node20"><a xlink:href="Rotation_8h.html" target="_top" xlink:title="iDynTree/Core/Rotation.h">
<polygon fill="none" stroke="#ff0000" points="2254.5,-235.5 2254.5,-254.5 2391.5,-254.5 2391.5,-235.5 2254.5,-235.5"/>
<text text-anchor="middle" x="2323" y="-242.5" font-family="FreeSans.ttf" font-size="10.00" fill="#000000">iDynTree/Core/Rotation.h</text>
</a>
</g>
</g>
<!-- Node27&#45;&gt;Node29 -->
<g id="edge25" class="edge">
<title>Node27&#45;&gt;Node29</title>
<path fill="none" stroke="#191970" d="M2338.6905,-291.2455C2336.1567,-283.7776 2332.5823,-273.2427 2329.485,-264.1137"/>
<polygon fill="#191970" stroke="#191970" points="2332.7991,-262.9879 2326.2716,-254.6427 2326.1702,-265.237 2332.7991,-262.9879"/>
</g>
<!-- Node29&#45;&gt;Node4 -->
<g id="edge26" class="edge">
<title>Node29&#45;&gt;Node4</title>
<path fill="none" stroke="#191970" d="M2307.2847,-235.3062C2280.4726,-219.1583 2223.7591,-186.6849 2172,-168 2103.4416,-143.2506 2081.0971,-155.203 2012,-132 1991.6365,-125.1619 1988.5686,-118.1941 1968,-112 1877.5488,-84.7612 1765.9778,-72.7933 1712.1074,-68.3049"/>
<polygon fill="#191970" stroke="#191970" points="1712.3737,-64.8152 1702.126,-67.5047 1711.8143,-71.7928 1712.3737,-64.8152"/>
</g>
<!-- Node29&#45;&gt;Node12 -->
<g id="edge29" class="edge">
<title>Node29&#45;&gt;Node12</title>
<path fill="none" stroke="#191970" d="M2319.8739,-235.4252C2315.3162,-219.4527 2309.0155,-187.231 2325,-168 2334.2815,-156.8334 2408.2131,-142.7749 2467.0322,-133.1572"/>
<polygon fill="#191970" stroke="#191970" points="2467.7601,-136.5851 2477.0733,-131.534 2466.6429,-129.6748 2467.7601,-136.5851"/>
</g>
<!-- Node30 -->
<g id="node21" class="node">
<title>Node30</title>
<g id="a_node21"><a xlink:href="GeomVector3_8h.html" target="_top" xlink:title="iDynTree/Core/GeomVector3.h">
<polygon fill="none" stroke="#000000" points="2492.5,-174 2492.5,-193 2655.5,-193 2655.5,-174 2492.5,-174"/>
<text text-anchor="middle" x="2574" y="-181" font-family="FreeSans.ttf" font-size="10.00" fill="#000000">iDynTree/Core/GeomVector3.h</text>
</a>
</g>
</g>
<!-- Node29&#45;&gt;Node30 -->
<g id="edge27" class="edge">
<title>Node29&#45;&gt;Node30</title>
<path fill="none" stroke="#191970" d="M2361.9434,-235.4581C2405.9087,-224.6857 2477.5065,-207.1428 2525.1751,-195.4631"/>
<polygon fill="#191970" stroke="#191970" points="2526.0855,-198.8436 2534.9653,-193.0643 2524.4196,-192.0447 2526.0855,-198.8436"/>
</g>
<!-- Node30&#45;&gt;Node12 -->
<g id="edge28" class="edge">
<title>Node30&#45;&gt;Node12</title>
<path fill="none" stroke="#191970" d="M2568.8438,-173.8906C2564.0768,-165.0068 2556.8615,-151.5601 2550.9703,-140.5811"/>
<polygon fill="#191970" stroke="#191970" points="2554.0412,-138.9016 2546.2289,-131.7449 2547.8731,-142.2114 2554.0412,-138.9016"/>
</g>
<!-- Node34&#45;&gt;Node4 -->
<g id="edge39" class="edge">
<title>Node34&#45;&gt;Node4</title>
<path fill="none" stroke="#191970" d="M2114.1411,-347.3763C2066.6964,-331.8512 1973.8942,-298.5609 1903,-255 1817.7777,-202.6353 1731.5988,-118.8732 1696.4511,-83.0981"/>
<polygon fill="#191970" stroke="#191970" points="1698.8612,-80.5563 1689.3746,-75.8388 1693.8487,-85.4426 1698.8612,-80.5563"/>
</g>
<!-- Node34&#45;&gt;Node27 -->
<g id="edge33" class="edge">
<title>Node34&#45;&gt;Node27</title>
<path fill="none" stroke="#191970" d="M2178.8655,-347.3733C2212.049,-337.9404 2262.755,-323.5265 2298.8194,-313.2747"/>
<polygon fill="#191970" stroke="#191970" points="2299.9145,-316.6021 2308.5764,-310.5011 2298.0005,-309.8689 2299.9145,-316.6021"/>
</g>
<!-- Node34&#45;&gt;Node29 -->
<g id="edge34" class="edge">
<title>Node34&#45;&gt;Node29</title>
<path fill="none" stroke="#191970" d="M2160.1762,-347.4509C2191.1781,-327.9441 2261.9822,-283.3932 2299.1752,-259.9909"/>
<polygon fill="#191970" stroke="#191970" points="2301.2623,-262.8129 2307.8622,-254.5249 2297.5343,-256.8882 2301.2623,-262.8129"/>
</g>
<!-- Node32 -->
<g id="node23" class="node">
<title>Node32</title>
<g id="a_node23"><a xlink:href="MatrixFixSize_8h.html" target="_top" xlink:title="iDynTree/Core/MatrixFixSize.h">
<polygon fill="none" stroke="#ff0000" points="2281.5,-112.5 2281.5,-131.5 2442.5,-131.5 2442.5,-112.5 2281.5,-112.5"/>
<text text-anchor="middle" x="2362" y="-119.5" font-family="FreeSans.ttf" font-size="10.00" fill="#000000">iDynTree/Core/MatrixFixSize.h</text>
</a>
</g>
</g>
<!-- Node34&#45;&gt;Node32 -->
<g id="edge35" class="edge">
<title>Node34&#45;&gt;Node32</title>
<path fill="none" stroke="#191970" d="M2152.3644,-347.4412C2174.6296,-318.8006 2243.7817,-231.7326 2310,-168 2320.584,-157.8133 2332.8761,-146.9001 2342.8511,-138.2609"/>
<polygon fill="#191970" stroke="#191970" points="2345.2936,-140.7768 2350.5967,-131.6047 2340.7313,-135.4678 2345.2936,-140.7768"/>
</g>
<!-- Node32&#45;&gt;Node4 -->
<g id="edge37" class="edge">
<title>Node32&#45;&gt;Node4</title>
<path fill="none" stroke="#191970" d="M2281.4242,-115.3838C2131.1245,-103.0425 1814.0207,-77.0046 1712.2013,-68.6441"/>
<polygon fill="#191970" stroke="#191970" points="1712.4701,-65.1545 1702.2171,-67.8243 1711.8971,-72.131 1712.4701,-65.1545"/>
</g>
<!-- Node32&#45;&gt;Node13 -->
<g id="edge36" class="edge">
<title>Node32&#45;&gt;Node13</title>
<path fill="none" stroke="#191970" d="M2417.671,-112.4369C2474.4011,-102.6918 2562.355,-87.5832 2622.4247,-77.2645"/>
<polygon fill="#191970" stroke="#191970" points="2623.2956,-80.6662 2632.5586,-75.5237 2622.1104,-73.7673 2623.2956,-80.6662"/>
</g>
<!-- Node32&#45;&gt;Node25 -->
<g id="edge38" class="edge">
<title>Node32&#45;&gt;Node25</title>
<path fill="none" stroke="#191970" d="M2392.7712,-112.3733C2423.3897,-102.7943 2470.4267,-88.0788 2503.2778,-77.8014"/>
<polygon fill="#191970" stroke="#191970" points="2504.4848,-81.0911 2512.9836,-74.7649 2502.3947,-74.4104 2504.4848,-81.0911"/>
</g>
<!-- Node35&#45;&gt;Node3 -->
<g id="edge46" class="edge">
<title>Node35&#45;&gt;Node3</title>
<path fill="none" stroke="#191970" d="M309.0498,-475.9867C351.4108,-465.0215 416.8362,-446.8616 439,-434 456.4049,-423.9 454.9668,-413.7148 472,-403 496.8821,-387.3478 527.9476,-375.5615 552.0981,-367.8395"/>
<polygon fill="#191970" stroke="#191970" points="553.1359,-371.1822 561.6523,-364.8797 551.0644,-364.4957 553.1359,-371.1822"/>
</g>
<!-- Node35&#45;&gt;Node4 -->
<g id="edge47" class="edge">
<title>Node35&#45;&gt;Node4</title>
<path fill="none" stroke="#191970" d="M265.9014,-475.8094C255.33,-454.7863 232,-403.1615 232,-357 232,-357 232,-357 232,-183.5 232,-142.5815 253.3563,-130.2088 290,-112 352.7653,-80.811 1445.4183,-68.3547 1647.8714,-66.3097"/>
<polygon fill="#191970" stroke="#191970" points="1647.9081,-69.8096 1657.8726,-66.2098 1647.8382,-62.8099 1647.9081,-69.8096"/>
</g>
<!-- Node35&#45;&gt;Node6 -->
<g id="edge44" class="edge">
<title>Node35&#45;&gt;Node6</title>
<path fill="none" stroke="#191970" d="M284.3246,-475.9005C299.5178,-464.9549 324.5703,-446.9064 342.5284,-433.9688"/>
<polygon fill="#191970" stroke="#191970" points="344.6323,-436.7668 350.7001,-428.0817 340.5405,-431.0872 344.6323,-436.7668"/>
</g>
<!-- Node35&#45;&gt;Node12 -->
<g id="edge45" class="edge">
<title>Node35&#45;&gt;Node12</title>
<path fill="none" stroke="#191970" d="M303.8978,-475.9805C313.2289,-473.6349 323.4489,-471.3972 333,-470 680.7739,-419.1246 776.8968,-495.2174 1123,-434 1413.4006,-382.635 1466.7072,-292.2759 1756,-235 1938.0462,-198.9574 1988.6063,-227.4016 2172,-199 2234.1213,-189.3795 2248.5031,-181.0283 2310,-168 2368.1398,-155.6829 2434.7178,-142.5251 2481.4143,-133.451"/>
<polygon fill="#191970" stroke="#191970" points="2482.2106,-136.8619 2491.3611,-131.5215 2480.8775,-129.99 2482.2106,-136.8619"/>
</g>
<!-- Node36&#45;&gt;Node3 -->
<g id="edge76" class="edge">
<title>Node36&#45;&gt;Node3</title>
<path fill="none" stroke="#191970" d="M1005.4346,-600.0694C919.0173,-583.0409 739.4661,-537.0267 629,-434 612.2769,-418.4031 601.951,-393.8506 596.3604,-376.6753"/>
<polygon fill="#191970" stroke="#191970" points="599.5717,-375.1983 593.3506,-366.6223 592.8658,-377.206 599.5717,-375.1983"/>
</g>
<!-- Node36&#45;&gt;Node4 -->
<g id="edge77" class="edge">
<title>Node36&#45;&gt;Node4</title>
<path fill="none" stroke="#191970" d="M1037.5403,-598.8151C987.3092,-569.5247 846,-476.505 846,-357 846,-357 846,-357 846,-183.5 846,-157.9112 774.6735,-166.8809 995,-112 1121.0354,-80.606 1528.9577,-69.3259 1647.4467,-66.666"/>
<polygon fill="#191970" stroke="#191970" points="1647.7594,-70.1601 1657.6802,-66.4418 1647.6059,-63.1618 1647.7594,-70.1601"/>
</g>
<!-- Node36&#45;&gt;Node6 -->
<g id="edge49" class="edge">
<title>Node36&#45;&gt;Node6</title>
<path fill="none" stroke="#191970" d="M1005.1903,-606.9427C872.8093,-602.4037 519.4148,-587.5325 477,-557 442.7556,-532.349 465.8725,-502.5302 439,-470 426.4209,-454.7725 408.2359,-442.1334 392.9229,-433.1873"/>
<polygon fill="#191970" stroke="#191970" points="394.2714,-429.9313 383.8353,-428.1042 390.8542,-436.0406 394.2714,-429.9313"/>
</g>
<!-- Node36&#45;&gt;Node8 -->
<g id="edge78" class="edge">
<title>Node36&#45;&gt;Node8</title>
<path fill="none" stroke="#191970" d="M1005.3617,-605.3206C829.68,-593.6758 244.3426,-551.3963 178,-501 139.6556,-471.8722 135.3363,-409.4952 135.8776,-377.2421"/>
<polygon fill="#191970" stroke="#191970" points="139.3897,-376.9564 136.2429,-366.8397 132.394,-376.7107 139.3897,-376.9564"/>
</g>
<!-- Node36&#45;&gt;Node9 -->
<g id="edge79" class="edge">
<title>Node36&#45;&gt;Node9</title>
<path fill="none" stroke="#191970" d="M1070.2673,-598.8692C1096.3519,-581.8002 1149.9717,-543.9642 1184,-501 1215.5454,-461.1707 1238.5942,-405.3001 1249.3076,-376.2509"/>
<polygon fill="#191970" stroke="#191970" points="1252.7162,-377.1146 1252.8017,-366.5201 1246.1281,-374.7489 1252.7162,-377.1146"/>
</g>
<!-- Node36&#45;&gt;Node34 -->
<g id="edge50" class="edge">
<title>Node36&#45;&gt;Node34</title>
<path fill="none" stroke="#191970" d="M1104.5556,-602.4582C1131.8048,-599.2954 1166.2313,-595.5595 1197,-593 1475.6071,-569.8242 1549.3881,-603.8732 1825,-557 1913.8933,-541.8819 1943.9784,-549.49 2020,-501 2072.1332,-467.7471 2114.7355,-406.359 2133.9613,-375.5948"/>
<polygon fill="#191970" stroke="#191970" points="2137.1345,-377.1145 2139.3645,-366.757 2131.1622,-373.4632 2137.1345,-377.1145"/>
</g>
<!-- Node36&#45;&gt;Node37 -->
<g id="edge51" class="edge">
<title>Node36&#45;&gt;Node37</title>
<path fill="none" stroke="#191970" d="M1104.5854,-602.7899C1131.8435,-599.7259 1166.269,-595.9785 1197,-593 1358.4674,-577.3505 1547.2402,-562.028 1654.3007,-553.6153"/>
<polygon fill="#191970" stroke="#191970" points="1654.707,-557.0943 1664.4026,-552.823 1654.1595,-550.1157 1654.707,-557.0943"/>
</g>
<!-- Node37&#45;&gt;Node4 -->
<g id="edge53" class="edge">
<title>Node37&#45;&gt;Node4</title>
<path fill="none" stroke="#191970" d="M1738.7763,-537.3507C1733.0091,-491.8483 1707.986,-294.15 1688,-132 1686.0998,-116.5834 1683.9866,-99.1362 1682.4095,-86.0538"/>
<polygon fill="#191970" stroke="#191970" points="1685.8503,-85.3516 1681.1804,-75.8415 1678.9005,-86.1881 1685.8503,-85.3516"/>
</g>
<!-- Node37&#45;&gt;Node9 -->
<g id="edge54" class="edge">
<title>Node37&#45;&gt;Node9</title>
<path fill="none" stroke="#191970" d="M1664.253,-539.3934C1593.5043,-531.4383 1493.6195,-517.7804 1458,-501 1398.1643,-472.8113 1400.7517,-440.1101 1346,-403 1327.6162,-390.5396 1305.4122,-379.1565 1287.6587,-370.8311"/>
<polygon fill="#191970" stroke="#191970" points="1288.854,-367.5285 1278.306,-366.533 1285.9309,-373.889 1288.854,-367.5285"/>
</g>
<!-- Node37&#45;&gt;Node20 -->
<g id="edge55" class="edge">
<title>Node37&#45;&gt;Node20</title>
<path fill="none" stroke="#191970" d="M1771.0836,-537.4874C1791.5659,-530.044 1818.0108,-518.0702 1837,-501 1961.4928,-389.0882 1879.4507,-268.9321 2013,-168 2079.4782,-117.758 2122.2808,-168.887 2197,-132 2249.5248,-106.0699 2297.5372,-54.7853 2320.6028,-27.7059"/>
<polygon fill="#191970" stroke="#191970" points="2323.4607,-29.7443 2327.1892,-19.8272 2318.0901,-25.2546 2323.4607,-29.7443"/>
</g>
<!-- Node37&#45;&gt;Node30 -->
<g id="edge52" class="edge">
<title>Node37&#45;&gt;Node30</title>
<path fill="none" stroke="#191970" d="M1805.1664,-537.4951C1871.8541,-527.3126 1967.6997,-511.2384 1982,-501 2038.6561,-460.4366 2044,-426.68 2044,-357 2044,-357 2044,-357 2044,-301 2044,-235.9837 2474.4631,-200.5424 2484,-199 2492.3247,-197.6537 2501.0752,-196.1977 2509.7152,-194.7358"/>
<polygon fill="#191970" stroke="#191970" points="2510.5043,-198.1519 2519.7749,-193.0231 2509.3293,-191.2512 2510.5043,-198.1519"/>
</g>
<!-- Node38 -->
<g id="node27" class="node">
<title>Node38</title>
<g id="a_node27"><a xlink:href="VectorDynSize_8h.html" target="_top" xlink:title="iDynTree/Core/VectorDynSize.h">
<polygon fill="none" stroke="#000000" points="2020.5,-112.5 2020.5,-131.5 2187.5,-131.5 2187.5,-112.5 2020.5,-112.5"/>
<text text-anchor="middle" x="2104" y="-119.5" font-family="FreeSans.ttf" font-size="10.00" fill="#000000">iDynTree/Core/VectorDynSize.h</text>
</a>
</g>
</g>
<!-- Node37&#45;&gt;Node38 -->
<g id="edge56" class="edge">
<title>Node37&#45;&gt;Node38</title>
<path fill="none" stroke="#191970" d="M1758.9314,-537.4431C1774.1285,-529.1687 1795.4251,-516.1635 1811,-501 1836.8806,-475.803 1839.1831,-465.4205 1857,-434 1921.1556,-320.8603 1883.5416,-256.3416 1979,-168 1996.445,-151.8556 2020.0333,-141.2597 2042.019,-134.3595"/>
<polygon fill="#191970" stroke="#191970" points="2043.0397,-137.7077 2051.6492,-131.5329 2041.0682,-130.991 2043.0397,-137.7077"/>
</g>
<!-- Node37&#45;&gt;Node39 -->
<g id="edge59" class="edge">
<title>Node37&#45;&gt;Node39</title>
<path fill="none" stroke="#191970" d="M1707.6563,-537.3906C1671.882,-526.7621 1614.1253,-509.6025 1574.9095,-497.9514"/>
<polygon fill="#191970" stroke="#191970" points="1575.6993,-494.5349 1565.1166,-495.0419 1573.7057,-501.245 1575.6993,-494.5349"/>
</g>
<!-- Node41 -->
<g id="node30" class="node">
<title>Node41</title>
<g id="a_node30"><a xlink:href="Indices_8h.html" target="_top" xlink:title="iDynTree/Model/Indices.h">
<polygon fill="none" stroke="#000000" points="1739,-291.5 1739,-310.5 1877,-310.5 1877,-291.5 1739,-291.5"/>
<text text-anchor="middle" x="1808" y="-298.5" font-family="FreeSans.ttf" font-size="10.00" fill="#000000">iDynTree/Model/Indices.h</text>
</a>
</g>
</g>
<!-- Node37&#45;&gt;Node41 -->
<g id="edge75" class="edge">
<title>Node37&#45;&gt;Node41</title>
<path fill="none" stroke="#191970" d="M1750.2899,-537.3127C1776.1142,-512.2011 1843.29,-441.7318 1867,-367 1869.6881,-358.5273 1870.9007,-354.9873 1867,-347 1860.5959,-333.8865 1848.4479,-323.4229 1836.8315,-315.8092"/>
<polygon fill="#191970" stroke="#191970" points="1838.5211,-312.7405 1828.1561,-310.5457 1834.8902,-318.7252 1838.5211,-312.7405"/>
</g>
<!-- Node38&#45;&gt;Node4 -->
<g id="edge58" class="edge">
<title>Node38&#45;&gt;Node4</title>
<path fill="none" stroke="#191970" d="M2031.5936,-112.4369C1938.1968,-100.1015 1779.7308,-79.172 1712.1171,-70.2419"/>
<polygon fill="#191970" stroke="#191970" points="1712.4417,-66.7544 1702.0694,-68.9148 1711.525,-73.6942 1712.4417,-66.7544"/>
</g>
<!-- Node38&#45;&gt;Node16 -->
<g id="edge57" class="edge">
<title>Node38&#45;&gt;Node16</title>
<path fill="none" stroke="#191970" d="M2152.4986,-112.4369C2201.5115,-102.7724 2277.2777,-87.8326 2329.5707,-77.5213"/>
<polygon fill="#191970" stroke="#191970" points="2330.5674,-80.8922 2339.7014,-75.5237 2329.2132,-74.0244 2330.5674,-80.8922"/>
</g>
<!-- Node39&#45;&gt;Node9 -->
<g id="edge74" class="edge">
<title>Node39&#45;&gt;Node9</title>
<path fill="none" stroke="#191970" d="M1517.7643,-475.9848C1491.257,-459.6784 1434.636,-425.9376 1384,-403 1352.6681,-388.807 1315.5505,-375.8726 1289.3754,-367.3597"/>
<polygon fill="#191970" stroke="#191970" points="1290.1605,-363.9358 1279.5692,-364.2107 1288.0202,-370.6006 1290.1605,-363.9358"/>
</g>
<!-- Node39&#45;&gt;Node34 -->
<g id="edge66" class="edge">
<title>Node39&#45;&gt;Node34</title>
<path fill="none" stroke="#191970" d="M1578.4995,-475.9466C1688.7252,-452.8028 1969.7745,-393.7916 2089.5622,-368.6401"/>
<polygon fill="#191970" stroke="#191970" points="2090.5495,-372.0092 2099.6169,-366.529 2089.1111,-365.1586 2090.5495,-372.0092"/>
</g>
<!-- Node40 -->
<g id="node29" class="node">
<title>Node40</title>
<g id="a_node29"><a xlink:href="IJoint_8h.html" target="_top" xlink:title="iDynTree/Model/IJoint.h">
<polygon fill="none" stroke="#000000" points="1730,-347.5 1730,-366.5 1858,-366.5 1858,-347.5 1730,-347.5"/>
<text text-anchor="middle" x="1794" y="-354.5" font-family="FreeSans.ttf" font-size="10.00" fill="#000000">iDynTree/Model/IJoint.h</text>
</a>
</g>
</g>
<!-- Node39&#45;&gt;Node40 -->
<g id="edge60" class="edge">
<title>Node39&#45;&gt;Node40</title>
<path fill="none" stroke="#191970" d="M1567.0706,-475.9868C1597.0811,-467.0072 1641.5616,-452.219 1678,-434 1713.5008,-416.2498 1751.1843,-389.5911 1773.6448,-372.7547"/>
<polygon fill="#191970" stroke="#191970" points="1775.8906,-375.4443 1781.7438,-366.613 1771.6609,-369.8666 1775.8906,-375.4443"/>
</g>
<!-- Node39&#45;&gt;Node41 -->
<g id="edge67" class="edge">
<title>Node39&#45;&gt;Node41</title>
<path fill="none" stroke="#191970" d="M1562.4358,-475.8614C1586.1604,-467.2133 1619.6299,-452.9636 1645,-434 1686.1237,-403.2609 1680.7431,-378.8659 1721,-347 1737.35,-334.0579 1757.8843,-323.0009 1774.8971,-314.973"/>
<polygon fill="#191970" stroke="#191970" points="1776.8102,-317.9468 1784.4488,-310.605 1773.899,-311.5808 1776.8102,-317.9468"/>
</g>
<!-- Node43 -->
<g id="node32" class="node">
<title>Node43</title>
<g id="a_node32"><a xlink:href="Link_8h.html" target="_top" xlink:title="iDynTree/Model/Link.h">
<polygon fill="none" stroke="#ff0000" points="1512,-409 1512,-428 1636,-428 1636,-409 1512,-409"/>
<text text-anchor="middle" x="1574" y="-416" font-family="FreeSans.ttf" font-size="10.00" fill="#000000">iDynTree/Model/Link.h</text>
</a>
</g>
</g>
<!-- Node39&#45;&gt;Node43 -->
<g id="edge64" class="edge">
<title>Node39&#45;&gt;Node43</title>
<path fill="none" stroke="#191970" d="M1538.8743,-475.9005C1545.0852,-465.751 1555.0335,-449.4941 1562.7599,-436.8679"/>
<polygon fill="#191970" stroke="#191970" points="1565.9023,-438.4382 1568.1366,-428.0817 1559.9315,-434.7844 1565.9023,-438.4382"/>
</g>
<!-- Node54 -->
<g id="node33" class="node">
<title>Node54</title>
<g id="a_node33"><a xlink:href="SolidShapes_8h.html" target="_top" xlink:title="iDynTree/Model/SolidShapes.h">
<polygon fill="none" stroke="#000000" points="950.5,-409 950.5,-428 1113.5,-428 1113.5,-409 950.5,-409"/>
<text text-anchor="middle" x="1032" y="-416" font-family="FreeSans.ttf" font-size="10.00" fill="#000000">iDynTree/Model/SolidShapes.h</text>
</a>
</g>
</g>
<!-- Node39&#45;&gt;Node54 -->
<g id="edge68" class="edge">
<title>Node39&#45;&gt;Node54</title>
<path fill="none" stroke="#191970" d="M1466.4711,-476.6029C1375.3371,-464.4153 1211.8008,-442.5452 1113.4491,-429.3924"/>
<polygon fill="#191970" stroke="#191970" points="1113.6341,-425.8861 1103.2584,-428.0296 1112.7062,-432.8243 1113.6341,-425.8861"/>
</g>
<!-- Node55 -->
<g id="node34" class="node">
<title>Node55</title>
<polygon fill="none" stroke="#bfbfbf" points="970.5,-347.5 970.5,-366.5 1019.5,-366.5 1019.5,-347.5 970.5,-347.5"/>
<text text-anchor="middle" x="995" y="-354.5" font-family="FreeSans.ttf" font-size="10.00" fill="#000000">cstdlib</text>
</g>
<!-- Node39&#45;&gt;Node55 -->
<g id="edge73" class="edge">
<title>Node39&#45;&gt;Node55</title>
<path fill="none" stroke="#191970" d="M1466.3552,-484.6491C1319.2219,-482.0788 976.8623,-472.0324 942,-434 924.1871,-414.5674 950.3183,-388.794 971.7984,-372.5505"/>
<polygon fill="#191970" stroke="#191970" points="973.9419,-375.3197 979.9929,-366.6228 969.8391,-369.6481 973.9419,-375.3197"/>
</g>
<!-- Node40&#45;&gt;Node41 -->
<g id="edge61" class="edge">
<title>Node40&#45;&gt;Node41</title>
<path fill="none" stroke="#191970" d="M1796.4386,-347.2455C1798.2855,-339.8579 1800.8828,-329.4689 1803.1478,-320.4087"/>
<polygon fill="#191970" stroke="#191970" points="1806.5594,-321.193 1805.5893,-310.6427 1799.7684,-319.4952 1806.5594,-321.193"/>
</g>
<!-- Node41&#45;&gt;Node4 -->
<g id="edge62" class="edge">
<title>Node41&#45;&gt;Node4</title>
<path fill="none" stroke="#191970" d="M1793.9981,-291.4696C1782.4843,-283.0267 1766.423,-269.7729 1756,-255 1717.0134,-199.7426 1693.8659,-121.585 1684.6474,-85.5675"/>
<polygon fill="#191970" stroke="#191970" points="1688.0334,-84.6797 1682.2316,-75.8146 1681.2387,-86.3628 1688.0334,-84.6797"/>
</g>
<!-- Node42 -->
<g id="node31" class="node">
<title>Node42</title>
<polygon fill="none" stroke="#bfbfbf" points="1765,-235.5 1765,-254.5 1851,-254.5 1851,-235.5 1765,-235.5"/>
<text text-anchor="middle" x="1808" y="-242.5" font-family="FreeSans.ttf" font-size="10.00" fill="#000000">ModelExport.h</text>
</g>
<!-- Node41&#45;&gt;Node42 -->
<g id="edge63" class="edge">
<title>Node41&#45;&gt;Node42</title>
<path fill="none" stroke="#191970" d="M1808,-291.2455C1808,-283.9382 1808,-273.6944 1808,-264.7046"/>
<polygon fill="#191970" stroke="#191970" points="1811.5001,-264.6426 1808,-254.6427 1804.5001,-264.6427 1811.5001,-264.6426"/>
</g>
<!-- Node43&#45;&gt;Node41 -->
<g id="edge65" class="edge">
<title>Node43&#45;&gt;Node41</title>
<path fill="none" stroke="#191970" d="M1581.7855,-408.6383C1594.4585,-393.2388 1621.0581,-363.5366 1650,-347 1678.3038,-330.828 1712.7649,-319.9338 1742.2717,-312.8253"/>
<polygon fill="#191970" stroke="#191970" points="1743.1188,-316.2219 1752.0724,-310.5576 1741.5408,-309.4021 1743.1188,-316.2219"/>
</g>
<!-- Node54&#45;&gt;Node4 -->
<g id="edge70" class="edge">
<title>Node54&#45;&gt;Node4</title>
<path fill="none" stroke="#191970" d="M1037.3012,-408.7688C1047.532,-389.05 1069,-342.7042 1069,-301 1069,-301 1069,-301 1069,-183.5 1069,-124.0003 1521.587,-79.8824 1647.7161,-68.7427"/>
<polygon fill="#191970" stroke="#191970" points="1648.236,-72.2106 1657.8932,-67.8531 1647.6264,-65.2372 1648.236,-72.2106"/>
</g>
<!-- Node54&#45;&gt;Node9 -->
<g id="edge71" class="edge">
<title>Node54&#45;&gt;Node9</title>
<path fill="none" stroke="#191970" d="M1067,-408.8906C1109.5141,-397.2182 1180.718,-377.6689 1222.5297,-366.1894"/>
<polygon fill="#191970" stroke="#191970" points="1223.5237,-369.5461 1232.2401,-363.5234 1221.6703,-362.7959 1223.5237,-369.5461"/>
</g>
<!-- Node54&#45;&gt;Node34 -->
<g id="edge72" class="edge">
<title>Node54&#45;&gt;Node34</title>
<path fill="none" stroke="#191970" d="M1113.8415,-413.9778C1319.2143,-402.6297 1854.7079,-373.0404 2061.6679,-361.6046"/>
<polygon fill="#191970" stroke="#191970" points="2062.0738,-365.0876 2071.8655,-361.0411 2061.6876,-358.0983 2062.0738,-365.0876"/>
</g>
<!-- Node54&#45;&gt;Node55 -->
<g id="edge69" class="edge">
<title>Node54&#45;&gt;Node55</title>
<path fill="none" stroke="#191970" d="M1026.2188,-408.8906C1020.874,-400.0068 1012.7841,-386.5601 1006.1789,-375.5811"/>
<polygon fill="#191970" stroke="#191970" points="1009.0171,-373.5093 1000.8628,-366.7449 1003.0189,-377.118 1009.0171,-373.5093"/>
</g>
<!-- Node56&#45;&gt;Node3 -->
<g id="edge85" class="edge">
<title>Node56&#45;&gt;Node3</title>
<path fill="none" stroke="#191970" d="M536.9104,-537.4897C539.7523,-528.1907 544.1929,-513.6281 548,-501 561.4299,-456.4531 577.0149,-404.0934 585.2357,-376.4216"/>
<polygon fill="#191970" stroke="#191970" points="588.6064,-377.3656 588.098,-366.783 581.896,-375.3729 588.6064,-377.3656"/>
</g>
<!-- Node56&#45;&gt;Node4 -->
<g id="edge86" class="edge">
<title>Node56&#45;&gt;Node4</title>
<path fill="none" stroke="#191970" d="M534,-537.3281C534,-515.9175 534,-462.895 534,-418.5 534,-418.5 534,-418.5 534,-183.5 534,-67.934 670.0022,-130.9739 784,-112 955.2715,-83.4934 1507.7681,-69.7509 1647.6034,-66.677"/>
<polygon fill="#191970" stroke="#191970" points="1647.7565,-70.1746 1657.6781,-66.4584 1647.6045,-63.1763 1647.7565,-70.1746"/>
</g>
<!-- Node56&#45;&gt;Node6 -->
<g id="edge81" class="edge">
<title>Node56&#45;&gt;Node6</title>
<path fill="none" stroke="#191970" d="M528.2455,-537.3175C518.4249,-521.4742 497.0432,-489.7969 472,-470 451.0852,-453.4667 423.9962,-440.5668 402.1805,-431.8128"/>
<polygon fill="#191970" stroke="#191970" points="403.1583,-428.438 392.5693,-428.0842 400.6265,-434.9641 403.1583,-428.438"/>
</g>
<!-- Node56&#45;&gt;Node8 -->
<g id="edge87" class="edge">
<title>Node56&#45;&gt;Node8</title>
<path fill="none" stroke="#191970" d="M485.7205,-542.6522C400.6832,-534.6319 231.0559,-516.8754 209,-501 166.7909,-470.6188 147.9036,-408.3324 140.7342,-376.5675"/>
<polygon fill="#191970" stroke="#191970" points="144.1445,-375.7766 138.6679,-366.707 137.2933,-377.2123 144.1445,-375.7766"/>
</g>
<!-- Node56&#45;&gt;Node9 -->
<g id="edge88" class="edge">
<title>Node56&#45;&gt;Node9</title>
<path fill="none" stroke="#191970" d="M582.2934,-544.8971C685.6597,-538.8887 934.2712,-516.3201 1123,-434 1144.5949,-424.5807 1145.8971,-415.2856 1166,-403 1185.3291,-391.1873 1208.0501,-379.5909 1225.8269,-370.9965"/>
<polygon fill="#191970" stroke="#191970" points="1227.6258,-374.0161 1235.1413,-366.5483 1224.6092,-367.6994 1227.6258,-374.0161"/>
</g>
<!-- Node56&#45;&gt;Node34 -->
<g id="edge83" class="edge">
<title>Node56&#45;&gt;Node34</title>
<path fill="none" stroke="#191970" d="M582.2046,-546.3273C763.8344,-543.5767 1406.7882,-531.8329 1609,-501 1723.5668,-483.531 1749.0733,-464.0521 1861,-434 1945.534,-411.3028 2044.1281,-384.496 2100.0961,-369.2476"/>
<polygon fill="#191970" stroke="#191970" points="2101.3096,-372.5446 2110.0375,-366.5384 2099.4691,-365.7909 2101.3096,-372.5446"/>
</g>
<!-- Node56&#45;&gt;Node35 -->
<g id="edge82" class="edge">
<title>Node56&#45;&gt;Node35</title>
<path fill="none" stroke="#191970" d="M491.2029,-537.4661C450.4712,-528.3306 387.4843,-514.0437 333,-501 328.3231,-499.8803 323.4526,-498.6955 318.5881,-497.4996"/>
<polygon fill="#191970" stroke="#191970" points="319.2234,-494.0513 308.6755,-495.0468 317.542,-500.8464 319.2234,-494.0513"/>
</g>
<!-- Node56&#45;&gt;Node54 -->
<g id="edge84" class="edge">
<title>Node56&#45;&gt;Node54</title>
<path fill="none" stroke="#191970" d="M571.0241,-537.4466C660.1767,-514.4424 886.6615,-456.002 985.1112,-430.5988"/>
<polygon fill="#191970" stroke="#191970" points="986.2622,-433.9165 995.0706,-428.029 984.5133,-427.1385 986.2622,-433.9165"/>
</g>
<!-- Node57&#45;&gt;Node3 -->
<g id="edge92" class="edge">
<title>Node57&#45;&gt;Node3</title>
<path fill="none" stroke="#191970" d="M1270.6438,-598.8755C1174.6037,-559.3151 814.0074,-410.9381 789,-403 734.8498,-385.8111 670.5044,-372.0498 630.2003,-364.2026"/>
<polygon fill="#191970" stroke="#191970" points="630.725,-360.7395 620.2441,-362.2895 629.404,-367.6137 630.725,-360.7395"/>
</g>
<!-- Node57&#45;&gt;Node4 -->
<g id="edge93" class="edge">
<title>Node57&#45;&gt;Node4</title>
<path fill="none" stroke="#191970" d="M1282.1477,-598.8609C1250.7976,-573.8375 1162.308,-506.2386 1078,-470 1016.5995,-443.6078 986.0984,-473.242 932,-434 899.3567,-410.3211 884,-397.3271 884,-357 884,-357 884,-357 884,-183.5 884,-104.9678 1498.1947,-73.7391 1647.5565,-67.3059"/>
<polygon fill="#191970" stroke="#191970" points="1648.0365,-70.7888 1657.8796,-66.8692 1647.7406,-63.7951 1648.0365,-70.7888"/>
</g>
<!-- Node57&#45;&gt;Node9 -->
<g id="edge94" class="edge">
<title>Node57&#45;&gt;Node9</title>
<path fill="none" stroke="#191970" d="M1293.4962,-598.9809C1291.8095,-569.5538 1285.565,-477.5418 1270,-403 1268.1492,-394.1364 1265.3534,-384.5257 1262.7457,-376.3923"/>
<polygon fill="#191970" stroke="#191970" points="1266.009,-375.1143 1259.5213,-366.7381 1259.3695,-377.3319 1266.009,-375.1143"/>
</g>
<!-- Node57&#45;&gt;Node37 -->
<g id="edge91" class="edge">
<title>Node57&#45;&gt;Node37</title>
<path fill="none" stroke="#191970" d="M1363.1981,-598.9581C1443.7255,-587.854 1576.4231,-569.556 1660.9446,-557.9011"/>
<polygon fill="#191970" stroke="#191970" points="1661.5783,-561.347 1671.0065,-556.5137 1660.6221,-554.4126 1661.5783,-561.347"/>
</g>
<!-- Node57&#45;&gt;Node39 -->
<g id="edge90" class="edge">
<title>Node57&#45;&gt;Node39</title>
<path fill="none" stroke="#191970" d="M1312.7539,-598.8484C1354.639,-577.2925 1455.9689,-525.1436 1505.2121,-499.8009"/>
<polygon fill="#191970" stroke="#191970" points="1507.0432,-502.7949 1514.3332,-495.1068 1503.84,-496.5708 1507.0432,-502.7949"/>
</g>
<!-- Node58&#45;&gt;Node5 -->
<g id="edge102" class="edge">
<title>Node58&#45;&gt;Node5</title>
<path fill="none" stroke="#191970" d="M227.4966,-598.8484C257.1374,-577.6517 328.1445,-526.8734 364.1992,-501.0901"/>
<polygon fill="#191970" stroke="#191970" points="366.4679,-503.7706 372.5661,-495.1068 362.3961,-498.0767 366.4679,-503.7706"/>
</g>
<!-- Node58&#45;&gt;Node6 -->
<g id="edge101" class="edge">
<title>Node58&#45;&gt;Node6</title>
<path fill="none" stroke="#191970" d="M210.0475,-598.9623C200.7073,-574.7508 180.14,-510.0003 209,-470 220.7273,-453.7458 266.7686,-439.7387 305.6504,-430.4536"/>
<polygon fill="#191970" stroke="#191970" points="306.924,-433.751 315.8729,-428.0793 305.3403,-426.9325 306.924,-433.751"/>
</g>
<!-- Node58&#45;&gt;Node8 -->
<g id="edge105" class="edge">
<title>Node58&#45;&gt;Node8</title>
<path fill="none" stroke="#191970" d="M205.0683,-598.8804C182.6558,-574.0003 124.3751,-504.5306 104,-434 100.1762,-420.7635 99.7819,-416.1162 104,-403 107.3946,-392.4445 114.2058,-382.2592 120.7631,-374.1676"/>
<polygon fill="#191970" stroke="#191970" points="123.447,-376.4149 127.3508,-366.5654 118.1569,-371.8307 123.447,-376.4149"/>
</g>
<!-- Node58&#45;&gt;Node9 -->
<g id="edge106" class="edge">
<title>Node58&#45;&gt;Node9</title>
<path fill="none" stroke="#191970" d="M261.4126,-605.5914C382.8086,-597.3444 714.077,-569.7936 981,-501 1062.4523,-480.0075 1084.7514,-475.3497 1158,-434 1188.5291,-416.766 1219.6699,-390.5032 1238.419,-373.5438"/>
<polygon fill="#191970" stroke="#191970" points="1240.889,-376.0275 1245.8865,-366.6853 1236.1539,-370.872 1240.889,-376.0275"/>
</g>
<!-- Node58&#45;&gt;Node35 -->
<g id="edge103" class="edge">
<title>Node58&#45;&gt;Node35</title>
<path fill="none" stroke="#191970" d="M218.4727,-598.8484C227.8793,-578.5499 249.8574,-531.1235 262.196,-504.4981"/>
<polygon fill="#191970" stroke="#191970" points="265.519,-505.6515 266.5481,-495.1068 259.1678,-502.7083 265.519,-505.6515"/>
</g>
<!-- Node58&#45;&gt;Node56 -->
<g id="edge104" class="edge">
<title>Node58&#45;&gt;Node56</title>
<path fill="none" stroke="#191970" d="M261.2171,-599.4255C318.2808,-588.4585 414.2865,-570.0074 475.8537,-558.175"/>
<polygon fill="#191970" stroke="#191970" points="476.6435,-561.5873 485.8032,-556.2628 475.3223,-554.7131 476.6435,-561.5873"/>
</g>
<!-- Node59&#45;&gt;Node10 -->
<g id="edge118" class="edge">
<title>Node59&#45;&gt;Node10</title>
<path fill="none" stroke="#191970" d="M2452.9216,-470.1974C2459.5289,-453.561 2467.6979,-426.2389 2462,-403 2459.6257,-393.3164 2454.8179,-383.4071 2450.1247,-375.2776"/>
<polygon fill="#191970" stroke="#191970" points="2453.0472,-373.3486 2444.8208,-366.672 2447.0881,-377.0214 2453.0472,-373.3486"/>
</g>
<!-- Node59&#45;&gt;Node34 -->
<g id="edge108" class="edge">
<title>Node59&#45;&gt;Node34</title>
<path fill="none" stroke="#191970" d="M2379.4979,-470.4299C2333.0256,-459.3945 2275.4333,-444.563 2253,-434 2218.5758,-417.7909 2183.5966,-390.4277 2163.1201,-373.0619"/>
<polygon fill="#191970" stroke="#191970" points="2165.3803,-370.3893 2155.5217,-366.5087 2160.8085,-375.6902 2165.3803,-370.3893"/>
</g>
<!-- Node59&#45;&gt;Node41 -->
<g id="edge119" class="edge">
<title>Node59&#45;&gt;Node41</title>
<path fill="none" stroke="#191970" d="M2447.3989,-470.4821C2448.232,-452.0267 2446.6121,-420.9579 2429,-403 2378.2669,-351.2706 2338.5691,-390.4106 2270,-367 2250.0533,-360.1899 2247.3003,-352.6697 2227,-347 2165.0129,-329.6876 1990.4043,-314.4496 1887.1974,-306.6082"/>
<polygon fill="#191970" stroke="#191970" points="1887.3662,-303.1111 1877.1315,-305.8497 1886.8401,-310.0913 1887.3662,-303.1111"/>
</g>
<!-- Node48 -->
<g id="node39" class="node">
<title>Node48</title>
<g id="a_node39"><a xlink:href="SpatialMotionVector_8h.html" target="_top" xlink:title="iDynTree/Core/SpatialMotion\lVector.h">
<polygon fill="none" stroke="#000000" points="2639.5,-403.5 2639.5,-433.5 2794.5,-433.5 2794.5,-403.5 2639.5,-403.5"/>
<text text-anchor="start" x="2647.5" y="-421.5" font-family="FreeSans.ttf" font-size="10.00" fill="#000000">iDynTree/Core/SpatialMotion</text>
<text text-anchor="middle" x="2717" y="-410.5" font-family="FreeSans.ttf" font-size="10.00" fill="#000000">Vector.h</text>
</a>
</g>
</g>
<!-- Node59&#45;&gt;Node48 -->
<g id="edge109" class="edge">
<title>Node59&#45;&gt;Node48</title>
<path fill="none" stroke="#191970" d="M2506.8177,-470.4639C2548.0791,-460.2627 2602.7768,-446.7397 2646.0296,-436.0462"/>
<polygon fill="#191970" stroke="#191970" points="2647.0494,-439.3995 2655.9171,-433.6017 2645.3693,-432.6041 2647.0494,-439.3995"/>
</g>
<!-- Node60 -->
<g id="node41" class="node">
<title>Node60</title>
<g id="a_node41"><a xlink:href="MovableJointImpl_8h.html" target="_top" xlink:title="iDynTree/Model/MovableJoint\lImpl.h">
<polygon fill="none" stroke="#000000" points="2262,-403.5 2262,-433.5 2420,-433.5 2420,-403.5 2262,-403.5"/>
<text text-anchor="start" x="2270" y="-421.5" font-family="FreeSans.ttf" font-size="10.00" fill="#000000">iDynTree/Model/MovableJoint</text>
<text text-anchor="middle" x="2341" y="-410.5" font-family="FreeSans.ttf" font-size="10.00" fill="#000000">Impl.h</text>
</a>
</g>
</g>
<!-- Node59&#45;&gt;Node60 -->
<g id="edge120" class="edge">
<title>Node59&#45;&gt;Node60</title>
<path fill="none" stroke="#191970" d="M2422.436,-470.4639C2407.9473,-461.2188 2389.1828,-449.2452 2373.3183,-439.1222"/>
<polygon fill="#191970" stroke="#191970" points="2375.1614,-436.1464 2364.8487,-433.7177 2371.396,-442.0474 2375.1614,-436.1464"/>
</g>
<!-- Node48&#45;&gt;Node12 -->
<g id="edge110" class="edge">
<title>Node48&#45;&gt;Node12</title>
<path fill="none" stroke="#191970" d="M2762.8036,-403.3782C2789.3955,-391.6145 2816.0294,-372.9108 2807,-347 2773.5833,-251.1072 2747.1917,-227.6374 2665,-168 2643.6975,-152.5431 2616.6116,-141.7058 2593.1921,-134.4499"/>
<polygon fill="#191970" stroke="#191970" points="2593.9893,-131.0359 2583.4073,-131.5566 2592.0043,-137.7486 2593.9893,-131.0359"/>
</g>
<!-- Node48&#45;&gt;Node30 -->
<g id="edge111" class="edge">
<title>Node48&#45;&gt;Node30</title>
<path fill="none" stroke="#191970" d="M2676.8375,-403.3102C2659.6018,-394.9619 2640.5772,-382.9994 2628,-367 2588.925,-317.2928 2578.1032,-240.0232 2575.1229,-203.6837"/>
<polygon fill="#191970" stroke="#191970" points="2578.5936,-203.1418 2574.4049,-193.4102 2571.6107,-203.6299 2578.5936,-203.1418"/>
</g>
<!-- Node49 -->
<g id="node40" class="node">
<title>Node49</title>
<g id="a_node40"><a xlink:href="SpatialVector_8h.html" target="_top" xlink:title="iDynTree/Core/SpatialVector.h">
<polygon fill="none" stroke="#ff0000" points="2636.5,-347.5 2636.5,-366.5 2797.5,-366.5 2797.5,-347.5 2636.5,-347.5"/>
<text text-anchor="middle" x="2717" y="-354.5" font-family="FreeSans.ttf" font-size="10.00" fill="#000000">iDynTree/Core/SpatialVector.h</text>
</a>
</g>
</g>
<!-- Node48&#45;&gt;Node49 -->
<g id="edge112" class="edge">
<title>Node48&#45;&gt;Node49</title>
<path fill="none" stroke="#191970" d="M2717,-403.2977C2717,-395.3834 2717,-385.6043 2717,-377.0759"/>
<polygon fill="#191970" stroke="#191970" points="2720.5001,-376.8469 2717,-366.8469 2713.5001,-376.847 2720.5001,-376.8469"/>
</g>
<!-- Node49&#45;&gt;Node13 -->
<g id="edge115" class="edge">
<title>Node49&#45;&gt;Node13</title>
<path fill="none" stroke="#191970" d="M2733.2914,-347.3562C2745.9528,-339.1204 2763.1344,-326.2108 2774,-311 2792.1427,-285.6019 2798,-276.2125 2798,-245 2798,-245 2798,-245 2798,-183.5 2798,-135.9405 2749.3786,-99.6834 2716.7867,-80.7221"/>
<polygon fill="#191970" stroke="#191970" points="2718.1016,-77.4472 2707.6658,-75.6183 2714.6833,-83.5559 2718.1016,-77.4472"/>
</g>
<!-- Node49&#45;&gt;Node25 -->
<g id="edge117" class="edge">
<title>Node49&#45;&gt;Node25</title>
<path fill="none" stroke="#191970" d="M2716.6616,-347.3376C2714.8404,-310.7249 2703.3141,-179.2082 2631,-112 2615.9252,-97.9896 2595.7734,-87.1618 2578.3604,-79.541"/>
<polygon fill="#191970" stroke="#191970" points="2579.5942,-76.2633 2569.0178,-75.6373 2576.8954,-82.7222 2579.5942,-76.2633"/>
</g>
<!-- Node49&#45;&gt;Node27 -->
<g id="edge113" class="edge">
<title>Node49&#45;&gt;Node27</title>
<path fill="none" stroke="#191970" d="M2652.9613,-347.4369C2587.165,-337.6113 2484.8556,-322.3331 2415.7251,-312.0096"/>
<polygon fill="#191970" stroke="#191970" points="2416.1819,-308.5391 2405.7746,-310.5237 2415.1479,-315.4623 2416.1819,-308.5391"/>
</g>
<!-- Node49&#45;&gt;Node29 -->
<g id="edge114" class="edge">
<title>Node49&#45;&gt;Node29</title>
<path fill="none" stroke="#191970" d="M2683.4078,-347.4509C2612.0232,-327.1589 2445.3016,-279.7659 2366.1661,-257.2706"/>
<polygon fill="#191970" stroke="#191970" points="2367.0831,-253.8926 2356.5072,-254.5249 2365.1691,-260.6259 2367.0831,-253.8926"/>
</g>
<!-- Node49&#45;&gt;Node30 -->
<g id="edge116" class="edge">
<title>Node49&#45;&gt;Node30</title>
<path fill="none" stroke="#191970" d="M2709.8903,-347.2795C2694.4542,-326.3099 2656.482,-275.4497 2622,-235 2611.8644,-223.1103 2599.883,-210.2538 2590.4262,-200.3606"/>
<polygon fill="#191970" stroke="#191970" points="2592.9255,-197.9101 2583.4668,-193.1368 2587.8843,-202.7668 2592.9255,-197.9101"/>
</g>
<!-- Node60&#45;&gt;Node40 -->
<g id="edge121" class="edge">
<title>Node60&#45;&gt;Node40</title>
<path fill="none" stroke="#191970" d="M2261.7538,-409.5902C2156.3059,-397.7346 1971.2357,-376.9269 1868.3318,-365.3572"/>
<polygon fill="#191970" stroke="#191970" points="1868.6596,-361.8721 1858.3311,-364.2328 1867.8774,-368.8283 1868.6596,-361.8721"/>
</g>
<!-- Node61&#45;&gt;Node10 -->
<g id="edge125" class="edge">
<title>Node61&#45;&gt;Node10</title>
<path fill="none" stroke="#191970" d="M2615.6791,-475.8497C2611.0678,-458.7179 2599.1417,-422.9243 2576,-403 2556.572,-386.2732 2530.8525,-375.5788 2506.8859,-368.7629"/>
<polygon fill="#191970" stroke="#191970" points="2507.6643,-365.3483 2497.1006,-366.1609 2505.8654,-372.1133 2507.6643,-365.3483"/>
</g>
<!-- Node61&#45;&gt;Node34 -->
<g id="edge123" class="edge">
<title>Node61&#45;&gt;Node34</title>
<path fill="none" stroke="#191970" d="M2600.3219,-475.9771C2567.5221,-458.7233 2494.6032,-422.2969 2429,-403 2362.8891,-383.5538 2285.5498,-371.7073 2228.2865,-364.9173"/>
<polygon fill="#191970" stroke="#191970" points="2228.5322,-361.4224 2218.1958,-363.7484 2227.7266,-368.3759 2228.5322,-361.4224"/>
</g>
<!-- Node61&#45;&gt;Node41 -->
<g id="edge126" class="edge">
<title>Node61&#45;&gt;Node41</title>
<path fill="none" stroke="#191970" d="M2605.1902,-475.9247C2581.8624,-458.9119 2530.3838,-423.3003 2482,-403 2435.4808,-383.482 2311.6764,-355.7891 2262,-347 2131.8608,-323.9749 1978.544,-311.4247 1887.519,-305.475"/>
<polygon fill="#191970" stroke="#191970" points="1887.4813,-301.9654 1877.2772,-304.8163 1887.0319,-308.951 1887.4813,-301.9654"/>
</g>
<!-- Node61&#45;&gt;Node48 -->
<g id="edge124" class="edge">
<title>Node61&#45;&gt;Node48</title>
<path fill="none" stroke="#191970" d="M2632.1843,-475.9005C2646.2441,-466.3853 2668.2354,-451.5023 2686.3019,-439.2755"/>
<polygon fill="#191970" stroke="#191970" points="2688.4836,-442.0252 2694.8037,-433.5218 2684.5603,-436.228 2688.4836,-442.0252"/>
</g>
<!-- Node61&#45;&gt;Node60 -->
<g id="edge127" class="edge">
<title>Node61&#45;&gt;Node60</title>
<path fill="none" stroke="#191970" d="M2578.6068,-475.9717C2535.6685,-465.5859 2466.0421,-448.7449 2413.233,-435.9715"/>
<polygon fill="#191970" stroke="#191970" points="2413.7863,-432.5045 2403.2438,-433.5553 2412.1406,-439.3083 2413.7863,-432.5045"/>
</g>
<!-- Node63&#45;&gt;Node9 -->
<g id="edge143" class="edge">
<title>Node63&#45;&gt;Node9</title>
<path fill="none" stroke="#191970" d="M1841.5787,-605.5826C1740.3359,-598.7918 1550.3059,-576.1946 1409,-501 1348.0386,-468.56 1293.5693,-405.3506 1269.3278,-374.6201"/>
<polygon fill="#191970" stroke="#191970" points="1271.9487,-372.2884 1263.0554,-366.5299 1266.4166,-376.5775 1271.9487,-372.2884"/>
</g>
<!-- Node63&#45;&gt;Node37 -->
<g id="edge130" class="edge">
<title>Node63&#45;&gt;Node37</title>
<path fill="none" stroke="#191970" d="M1869.9241,-593.4554C1841.2254,-583.194 1803.6063,-569.7429 1776.2377,-559.9571"/>
<polygon fill="#191970" stroke="#191970" points="1777.2485,-556.6015 1766.6539,-556.5303 1774.8917,-563.1929 1777.2485,-556.6015"/>
</g>
<!-- Node64 -->
<g id="node45" class="node">
<title>Node64</title>
<g id="a_node45"><a xlink:href="LinkState_8h.html" target="_top" xlink:title="iDynTree/Model/LinkState.h">
<polygon fill="none" stroke="#000000" points="2102.5,-537.5 2102.5,-556.5 2251.5,-556.5 2251.5,-537.5 2102.5,-537.5"/>
<text text-anchor="middle" x="2177" y="-544.5" font-family="FreeSans.ttf" font-size="10.00" fill="#000000">iDynTree/Model/LinkState.h</text>
</a>
</g>
</g>
<!-- Node63&#45;&gt;Node64 -->
<g id="edge131" class="edge">
<title>Node63&#45;&gt;Node64</title>
<path fill="none" stroke="#191970" d="M1976.8263,-593.4554C2022.7876,-582.7889 2083.5991,-568.6761 2126.0864,-558.8158"/>
<polygon fill="#191970" stroke="#191970" points="2126.9845,-562.2005 2135.9344,-556.5303 2125.402,-555.3817 2126.9845,-562.2005"/>
</g>
<!-- Node64&#45;&gt;Node9 -->
<g id="edge142" class="edge">
<title>Node64&#45;&gt;Node9</title>
<path fill="none" stroke="#191970" d="M2147.6526,-537.4191C2067.8281,-511.7181 1839.6996,-440.6513 1645,-403 1515.0757,-377.875 1357.9113,-364.3681 1289.9854,-359.3337"/>
<polygon fill="#191970" stroke="#191970" points="1290.0953,-355.8326 1279.8678,-358.598 1289.5875,-362.8141 1290.0953,-355.8326"/>
</g>
<!-- Node64&#45;&gt;Node34 -->
<g id="edge132" class="edge">
<title>Node64&#45;&gt;Node34</title>
<path fill="none" stroke="#191970" d="M2175.3691,-537.3167C2170.3632,-507.5938 2155.146,-417.242 2148.3454,-376.8634"/>
<polygon fill="#191970" stroke="#191970" points="2151.7783,-376.1715 2146.666,-366.8917 2144.8755,-377.3341 2151.7783,-376.1715"/>
</g>
<!-- Node64&#45;&gt;Node41 -->
<g id="edge141" class="edge">
<title>Node64&#45;&gt;Node41</title>
<path fill="none" stroke="#191970" d="M2163.3066,-537.4325C2121.5118,-508.2921 1991.7537,-418.2775 1882,-347 1865.6612,-336.389 1847.0331,-324.8122 1832.5544,-315.9269"/>
<polygon fill="#191970" stroke="#191970" points="1834.0617,-312.7461 1823.7047,-310.5139 1830.4091,-318.7176 1834.0617,-312.7461"/>
</g>
<!-- Node47 -->
<g id="node46" class="node">
<title>Node47</title>
<g id="a_node46"><a xlink:href="Twist_8h.html" target="_top" xlink:title="iDynTree/Core/Twist.h">
<polygon fill="none" stroke="#000000" points="2720,-476 2720,-495 2842,-495 2842,-476 2720,-476"/>
<text text-anchor="middle" x="2781" y="-483" font-family="FreeSans.ttf" font-size="10.00" fill="#000000">iDynTree/Core/Twist.h</text>
</a>
</g>
</g>
<!-- Node64&#45;&gt;Node47 -->
<g id="edge133" class="edge">
<title>Node64&#45;&gt;Node47</title>
<path fill="none" stroke="#191970" d="M2251.6612,-543.6829C2355.2444,-538.3737 2548.1956,-525.9255 2711,-501 2717.8613,-499.9495 2725.0549,-498.6212 2732.1106,-497.1859"/>
<polygon fill="#191970" stroke="#191970" points="2733.238,-500.5248 2742.2944,-495.0265 2731.7859,-493.6771 2733.238,-500.5248"/>
</g>
<!-- Node52 -->
<g id="node47" class="node">
<title>Node52</title>
<g id="a_node47"><a xlink:href="SpatialAcc_8h.html" target="_top" xlink:title="iDynTree/Core/SpatialAcc.h">
<polygon fill="none" stroke="#000000" points="2860,-476 2860,-495 3008,-495 3008,-476 2860,-476"/>
<text text-anchor="middle" x="2934" y="-483" font-family="FreeSans.ttf" font-size="10.00" fill="#000000">iDynTree/Core/SpatialAcc.h</text>
</a>
</g>
</g>
<!-- Node64&#45;&gt;Node52 -->
<g id="edge135" class="edge">
<title>Node64&#45;&gt;Node52</title>
<path fill="none" stroke="#191970" d="M2251.5774,-544.7484C2376.1567,-540.3523 2634.2969,-528.5341 2851,-501 2859.7695,-499.8858 2869.0131,-498.4364 2878.0209,-496.8715"/>
<polygon fill="#191970" stroke="#191970" points="2878.8303,-500.2822 2888.053,-495.0675 2877.5913,-493.3927 2878.8303,-500.2822"/>
</g>
<!-- Node53 -->
<g id="node48" class="node">
<title>Node53</title>
<g id="a_node48"><a xlink:href="Wrench_8h.html" target="_top" xlink:title="iDynTree/Core/Wrench.h">
<polygon fill="none" stroke="#ff0000" points="2224.5,-476 2224.5,-495 2357.5,-495 2357.5,-476 2224.5,-476"/>
<text text-anchor="middle" x="2291" y="-483" font-family="FreeSans.ttf" font-size="10.00" fill="#000000">iDynTree/Core/Wrench.h</text>
</a>
</g>
</g>
<!-- Node64&#45;&gt;Node53 -->
<g id="edge137" class="edge">
<title>Node64&#45;&gt;Node53</title>
<path fill="none" stroke="#191970" d="M2194.8125,-537.3906C2213.4685,-527.3262 2242.9797,-511.4057 2264.3974,-499.8514"/>
<polygon fill="#191970" stroke="#191970" points="2266.1734,-502.8702 2273.3126,-495.0419 2262.8498,-496.7095 2266.1734,-502.8702"/>
</g>
<!-- Node65 -->
<g id="node49" class="node">
<title>Node65</title>
<g id="a_node49"><a xlink:href="ArticulatedBodyInertia_8h.html" target="_top" xlink:title="iDynTree/Core/Articulated\lBodyInertia.h">
<polygon fill="none" stroke="#000000" points="2021.5,-168.5 2021.5,-198.5 2162.5,-198.5 2162.5,-168.5 2021.5,-168.5"/>
<text text-anchor="start" x="2029.5" y="-186.5" font-family="FreeSans.ttf" font-size="10.00" fill="#000000">iDynTree/Core/Articulated</text>
<text text-anchor="middle" x="2092" y="-175.5" font-family="FreeSans.ttf" font-size="10.00" fill="#000000">BodyInertia.h</text>
</a>
</g>
</g>
<!-- Node64&#45;&gt;Node65 -->
<g id="edge138" class="edge">
<title>Node64&#45;&gt;Node65</title>
<path fill="none" stroke="#191970" d="M2181.0424,-537.0335C2195.0766,-501.8386 2240.137,-383.5435 2227,-347 2205.5322,-287.2828 2151.759,-233.8507 2118.9243,-205.3188"/>
<polygon fill="#191970" stroke="#191970" points="2120.9402,-202.4381 2111.0601,-198.6127 2116.3983,-207.7645 2120.9402,-202.4381"/>
</g>
<!-- Node47&#45;&gt;Node48 -->
<g id="edge134" class="edge">
<title>Node47&#45;&gt;Node48</title>
<path fill="none" stroke="#191970" d="M2771.8304,-475.9005C2763.1544,-466.8178 2749.8064,-452.8442 2738.4529,-440.9585"/>
<polygon fill="#191970" stroke="#191970" points="2740.7874,-438.3353 2731.3491,-433.5218 2735.7256,-443.1705 2740.7874,-438.3353"/>
</g>
<!-- Node52&#45;&gt;Node48 -->
<g id="edge136" class="edge">
<title>Node52&#45;&gt;Node48</title>
<path fill="none" stroke="#191970" d="M2902.9092,-475.9005C2869.7099,-465.6501 2816.3347,-449.1702 2775.2738,-436.4924"/>
<polygon fill="#191970" stroke="#191970" points="2776.2401,-433.1277 2765.6526,-433.5218 2774.1749,-439.8162 2776.2401,-433.1277"/>
</g>
<!-- Node65&#45;&gt;Node4 -->
<g id="edge140" class="edge">
<title>Node65&#45;&gt;Node4</title>
<path fill="none" stroke="#191970" d="M2059.1607,-168.4166C2015.9454,-148.6452 1943.9305,-115.9941 1931,-112 1854.4594,-88.3571 1760.8173,-75.1638 1712.4206,-69.4541"/>
<polygon fill="#191970" stroke="#191970" points="1712.5772,-65.9492 1702.2432,-68.2857 1711.7788,-72.9035 1712.5772,-65.9492"/>
</g>
<!-- Node65&#45;&gt;Node32 -->
<g id="edge139" class="edge">
<title>Node65&#45;&gt;Node32</title>
<path fill="none" stroke="#191970" d="M2158.0494,-168.4554C2204.9767,-157.7664 2267.0983,-143.6165 2310.3995,-133.7535"/>
<polygon fill="#191970" stroke="#191970" points="2311.1867,-137.1639 2320.1596,-131.5303 2309.632,-130.3387 2311.1867,-137.1639"/>
</g>
</g>
</svg>
