<?xml version="1.0" encoding="UTF-8" standalone="no"?>
<!DOCTYPE svg PUBLIC "-//W3C//DTD SVG 1.1//EN"
 "http://www.w3.org/Graphics/SVG/1.1/DTD/svg11.dtd">
<!-- Generated by graphviz version 2.40.1 (20161225.0304)
 -->
<!-- Title: VisualElement.h Pages: 1 -->
<svg width="1191pt" height="476pt"
 viewBox="0.00 0.00 1191.00 476.00" xmlns="http://www.w3.org/2000/svg" xmlns:xlink="http://www.w3.org/1999/xlink">
<g id="graph0" class="graph" transform="scale(1 1) rotate(0) translate(4 472)">
<title>VisualElement.h</title>
<!-- Node0 -->
<g id="node1" class="node">
<title>Node0</title>
<polygon fill="#bfbfbf" stroke="#000000" points="243,-448.5 243,-467.5 339,-467.5 339,-448.5 243,-448.5"/>
<text text-anchor="middle" x="291" y="-455.5" font-family="FreeSans.ttf" font-size="10.00" fill="#000000">VisualElement.h</text>
</g>
<!-- Node1 -->
<g id="node2" class="node">
<title>Node1</title>
<g id="a_node2"><a xlink:href="XMLElement_8h.html" target="_top" xlink:title="iDynTree/XMLElement.h">
<polygon fill="none" stroke="#000000" points="147,-336.5 147,-355.5 279,-355.5 279,-336.5 147,-336.5"/>
<text text-anchor="middle" x="213" y="-343.5" font-family="FreeSans.ttf" font-size="10.00" fill="#000000">iDynTree/XMLElement.h</text>
</a>
</g>
</g>
<!-- Node0&#45;&gt;Node1 -->
<g id="edge1" class="edge">
<title>Node0&#45;&gt;Node1</title>
<path fill="none" stroke="#191970" d="M286.1426,-448.2447C279.4005,-435.0402 266.5034,-410.9518 253,-392 245.9069,-382.0449 237.072,-371.7092 229.5108,-363.3627"/>
<polygon fill="#191970" stroke="#191970" points="231.8453,-360.7321 222.4859,-355.767 226.7062,-365.485 231.8453,-360.7321"/>
</g>
<!-- Node3 -->
<g id="node4" class="node">
<title>Node3</title>
<polygon fill="none" stroke="#bfbfbf" points="66,-280.5 66,-299.5 124,-299.5 124,-280.5 66,-280.5"/>
<text text-anchor="middle" x="95" y="-287.5" font-family="FreeSans.ttf" font-size="10.00" fill="#000000">memory</text>
</g>
<!-- Node0&#45;&gt;Node3 -->
<g id="edge57" class="edge">
<title>Node0&#45;&gt;Node3</title>
<path fill="none" stroke="#191970" d="M242.7122,-449.6693C200.9995,-441.5364 144.9829,-428.061 129,-412 101.5866,-384.4526 95.8197,-336.7877 94.8763,-309.9164"/>
<polygon fill="#191970" stroke="#191970" points="98.374,-309.7366 94.7182,-299.7925 91.3749,-309.846 98.374,-309.7366"/>
</g>
<!-- Node4 -->
<g id="node5" class="node">
<title>Node4</title>
<polygon fill="none" stroke="#bfbfbf" points="425,-56.5 425,-75.5 469,-75.5 469,-56.5 425,-56.5"/>
<text text-anchor="middle" x="447" y="-63.5" font-family="FreeSans.ttf" font-size="10.00" fill="#000000">string</text>
</g>
<!-- Node0&#45;&gt;Node4 -->
<g id="edge58" class="edge">
<title>Node0&#45;&gt;Node4</title>
<path fill="none" stroke="#191970" d="M242.9473,-449.7601C160.2951,-434.2113 0,-397.4269 0,-346 0,-346 0,-346 0,-178 0,-132.9267 35.7737,-130.2209 77,-112 137.2217,-85.3837 335.3787,-72.021 414.2205,-67.6554"/>
<polygon fill="#191970" stroke="#191970" points="414.7302,-71.1331 424.5268,-67.0987 414.3525,-64.1433 414.7302,-71.1331"/>
</g>
<!-- Node5 -->
<g id="node6" class="node">
<title>Node5</title>
<polygon fill="none" stroke="#bfbfbf" points="263.5,-280.5 263.5,-299.5 356.5,-299.5 356.5,-280.5 263.5,-280.5"/>
<text text-anchor="middle" x="310" y="-287.5" font-family="FreeSans.ttf" font-size="10.00" fill="#000000">unordered_map</text>
</g>
<!-- Node0&#45;&gt;Node5 -->
<g id="edge59" class="edge">
<title>Node0&#45;&gt;Node5</title>
<path fill="none" stroke="#191970" d="M292.076,-448.4862C295.0794,-421.9293 303.6028,-346.5651 307.7194,-310.1655"/>
<polygon fill="#191970" stroke="#191970" points="311.2425,-310.1579 308.8885,-299.8279 304.2868,-309.3712 311.2425,-310.1579"/>
</g>
<!-- Node6 -->
<g id="node7" class="node">
<title>Node6</title>
<polygon fill="none" stroke="#bfbfbf" points="413.5,-280.5 413.5,-299.5 460.5,-299.5 460.5,-280.5 413.5,-280.5"/>
<text text-anchor="middle" x="437" y="-287.5" font-family="FreeSans.ttf" font-size="10.00" fill="#000000">vector</text>
</g>
<!-- Node0&#45;&gt;Node6 -->
<g id="edge60" class="edge">
<title>Node0&#45;&gt;Node6</title>
<path fill="none" stroke="#191970" d="M301.2097,-448.2901C319.5721,-430.6317 359.0453,-391.7736 389,-356 402.0072,-340.4661 415.4602,-321.6927 424.8024,-308.1459"/>
<polygon fill="#191970" stroke="#191970" points="427.8151,-309.9403 430.5573,-299.7064 422.0317,-305.9965 427.8151,-309.9403"/>
</g>
<!-- Node7 -->
<g id="node8" class="node">
<title>Node7</title>
<g id="a_node8"><a xlink:href="MaterialElement_8h.html" target="_top" xlink:title="MaterialElement.h">
<polygon fill="none" stroke="#000000" points="138,-392.5 138,-411.5 244,-411.5 244,-392.5 138,-392.5"/>
<text text-anchor="middle" x="191" y="-399.5" font-family="FreeSans.ttf" font-size="10.00" fill="#000000">MaterialElement.h</text>
</a>
</g>
</g>
<!-- Node0&#45;&gt;Node7 -->
<g id="edge7" class="edge">
<title>Node0&#45;&gt;Node7</title>
<path fill="none" stroke="#191970" d="M273.5813,-448.2455C257.9515,-439.4928 234.7981,-426.527 216.9815,-416.5496"/>
<polygon fill="#191970" stroke="#191970" points="218.6543,-413.475 208.2191,-411.6427 215.234,-419.5825 218.6543,-413.475"/>
</g>
<!-- Node23 -->
<g id="node24" class="node">
<title>Node23</title>
<g id="a_node24"><a xlink:href="Transform_8h.html" target="_top" xlink:title="iDynTree/Core/Transform.h">
<polygon fill="none" stroke="#000000" points="585,-336.5 585,-355.5 731,-355.5 731,-336.5 585,-336.5"/>
<text text-anchor="middle" x="658" y="-343.5" font-family="FreeSans.ttf" font-size="10.00" fill="#000000">iDynTree/Core/Transform.h</text>
</a>
</g>
</g>
<!-- Node0&#45;&gt;Node23 -->
<g id="edge29" class="edge">
<title>Node0&#45;&gt;Node23</title>
<path fill="none" stroke="#191970" d="M339.295,-455.9113C417.9016,-451.7303 569.2489,-440.1896 614,-412 631.4199,-401.0269 643.4996,-380.3615 650.5354,-365.0664"/>
<polygon fill="#191970" stroke="#191970" points="653.9028,-366.0922 654.6041,-355.5206 647.4633,-363.3474 653.9028,-366.0922"/>
</g>
<!-- Node31 -->
<g id="node32" class="node">
<title>Node31</title>
<g id="a_node32"><a xlink:href="SolidShapes_8h.html" target="_top" xlink:title="iDynTree/Model/SolidShapes.h">
<polygon fill="none" stroke="#000000" points="441.5,-392.5 441.5,-411.5 604.5,-411.5 604.5,-392.5 441.5,-392.5"/>
<text text-anchor="middle" x="523" y="-399.5" font-family="FreeSans.ttf" font-size="10.00" fill="#000000">iDynTree/Model/SolidShapes.h</text>
</a>
</g>
</g>
<!-- Node0&#45;&gt;Node31 -->
<g id="edge52" class="edge">
<title>Node0&#45;&gt;Node31</title>
<path fill="none" stroke="#191970" d="M330.6186,-448.4369C370.1568,-438.8932 431.0069,-424.2052 473.6582,-413.9101"/>
<polygon fill="#191970" stroke="#191970" points="474.6452,-417.2724 483.5448,-411.5237 473.0027,-410.4679 474.6452,-417.2724"/>
</g>
<!-- Node2 -->
<g id="node3" class="node">
<title>Node2</title>
<polygon fill="none" stroke="#bfbfbf" points="180.5,-280.5 180.5,-299.5 245.5,-299.5 245.5,-280.5 180.5,-280.5"/>
<text text-anchor="middle" x="213" y="-287.5" font-family="FreeSans.ttf" font-size="10.00" fill="#000000">functional</text>
</g>
<!-- Node1&#45;&gt;Node2 -->
<g id="edge2" class="edge">
<title>Node1&#45;&gt;Node2</title>
<path fill="none" stroke="#191970" d="M213,-336.2455C213,-328.9382 213,-318.6944 213,-309.7046"/>
<polygon fill="#191970" stroke="#191970" points="216.5001,-309.6426 213,-299.6427 209.5001,-309.6427 216.5001,-309.6426"/>
</g>
<!-- Node1&#45;&gt;Node3 -->
<g id="edge3" class="edge">
<title>Node1&#45;&gt;Node3</title>
<path fill="none" stroke="#191970" d="M192.7151,-336.3733C173.8579,-327.4241 145.554,-313.9917 124.2545,-303.8835"/>
<polygon fill="#191970" stroke="#191970" points="125.5551,-300.6266 115.0202,-299.5011 122.5539,-306.9506 125.5551,-300.6266"/>
</g>
<!-- Node1&#45;&gt;Node4 -->
<g id="edge4" class="edge">
<title>Node1&#45;&gt;Node4</title>
<path fill="none" stroke="#191970" d="M201.811,-336.4952C192.3281,-327.8718 179.0264,-314.3447 171,-300 156.0949,-273.3618 152,-264.5246 152,-234 152,-234 152,-234 152,-178 152,-122.2778 338.2855,-84.3901 414.7912,-71.1796"/>
<polygon fill="#191970" stroke="#191970" points="415.5519,-74.6007 424.8271,-69.48 414.383,-67.699 415.5519,-74.6007"/>
</g>
<!-- Node1&#45;&gt;Node5 -->
<g id="edge5" class="edge">
<title>Node1&#45;&gt;Node5</title>
<path fill="none" stroke="#191970" d="M229.8961,-336.2455C244.918,-327.5731 267.1043,-314.7645 284.321,-304.825"/>
<polygon fill="#191970" stroke="#191970" points="286.3871,-307.6737 293.2975,-299.6427 282.8872,-301.6114 286.3871,-307.6737"/>
</g>
<!-- Node1&#45;&gt;Node6 -->
<g id="edge6" class="edge">
<title>Node1&#45;&gt;Node6</title>
<path fill="none" stroke="#191970" d="M251.2525,-336.4369C294.1043,-325.7239 362.8841,-308.529 403.634,-298.3415"/>
<polygon fill="#191970" stroke="#191970" points="404.5049,-301.7316 413.3574,-295.9106 402.8071,-294.9406 404.5049,-301.7316"/>
</g>
<!-- Node7&#45;&gt;Node1 -->
<g id="edge8" class="edge">
<title>Node7&#45;&gt;Node1</title>
<path fill="none" stroke="#191970" d="M194.8321,-392.2455C197.7659,-384.7776 201.9047,-374.2427 205.491,-365.1137"/>
<polygon fill="#191970" stroke="#191970" points="208.8129,-366.23 209.2118,-355.6427 202.2976,-363.6704 208.8129,-366.23"/>
</g>
<!-- Node7&#45;&gt;Node3 -->
<g id="edge27" class="edge">
<title>Node7&#45;&gt;Node3</title>
<path fill="none" stroke="#191970" d="M177.8891,-392.3062C166.569,-383.5617 150.1655,-369.963 138,-356 125.1323,-341.2311 113.2026,-322.3275 105.1895,-308.5395"/>
<polygon fill="#191970" stroke="#191970" points="108.0636,-306.512 100.0896,-299.536 101.9729,-309.9621 108.0636,-306.512"/>
</g>
<!-- Node7&#45;&gt;Node4 -->
<g id="edge28" class="edge">
<title>Node7&#45;&gt;Node4</title>
<path fill="none" stroke="#191970" d="M174.7382,-392.4372C160.0337,-383.5653 137.9957,-369.7022 120,-356 68.0207,-316.4223 38,-299.3318 38,-234 38,-234 38,-234 38,-178 38,-100.0316 317.9855,-74.4117 414.6465,-67.89"/>
<polygon fill="#191970" stroke="#191970" points="414.968,-71.3766 424.7199,-67.2353 414.514,-64.3913 414.968,-71.3766"/>
</g>
<!-- Node8 -->
<g id="node9" class="node">
<title>Node8</title>
<g id="a_node9"><a xlink:href="VectorFixSize_8h.html" target="_top" xlink:title="iDynTree/Core/VectorFixSize.h">
<polygon fill="none" stroke="#000000" points="725.5,-112.5 725.5,-131.5 886.5,-131.5 886.5,-112.5 725.5,-112.5"/>
<text text-anchor="middle" x="806" y="-119.5" font-family="FreeSans.ttf" font-size="10.00" fill="#000000">iDynTree/Core/VectorFixSize.h</text>
</a>
</g>
</g>
<!-- Node7&#45;&gt;Node8 -->
<g id="edge9" class="edge">
<title>Node7&#45;&gt;Node8</title>
<path fill="none" stroke="#191970" d="M213.3817,-392.4065C233.3196,-383.6217 263.1051,-369.9071 288,-356 342.1335,-325.7593 349.8461,-308.337 405,-280 504.7657,-228.7423 535.6639,-229.1644 640,-188 686.0821,-169.8189 739.285,-148.6311 772.7819,-135.2669"/>
<polygon fill="#191970" stroke="#191970" points="774.1092,-138.5057 782.0997,-131.5484 771.5147,-132.0043 774.1092,-138.5057"/>
</g>
<!-- Node8&#45;&gt;Node4 -->
<g id="edge23" class="edge">
<title>Node8&#45;&gt;Node4</title>
<path fill="none" stroke="#191970" d="M744.6936,-112.4369C667.8032,-100.4428 538.8259,-80.3238 479.1203,-71.0104"/>
<polygon fill="#191970" stroke="#191970" points="479.5613,-67.5369 469.1413,-69.4538 478.4823,-74.4533 479.5613,-67.5369"/>
</g>
<!-- Node9 -->
<g id="node10" class="node">
<title>Node9</title>
<g id="a_node10"><a xlink:href="Utils_8h.html" target="_top" xlink:title="iDynTree/Core/Utils.h">
<polygon fill="none" stroke="#000000" points="985.5,-56.5 985.5,-75.5 1104.5,-75.5 1104.5,-56.5 985.5,-56.5"/>
<text text-anchor="middle" x="1045" y="-63.5" font-family="FreeSans.ttf" font-size="10.00" fill="#000000">iDynTree/Core/Utils.h</text>
</a>
</g>
</g>
<!-- Node8&#45;&gt;Node9 -->
<g id="edge10" class="edge">
<title>Node8&#45;&gt;Node9</title>
<path fill="none" stroke="#191970" d="M846.814,-112.4369C887.6311,-102.8731 950.4959,-88.1432 994.4472,-77.845"/>
<polygon fill="#191970" stroke="#191970" points="995.4165,-81.2128 1004.3543,-75.5237 993.8195,-74.3973 995.4165,-81.2128"/>
</g>
<!-- Node12 -->
<g id="node13" class="node">
<title>Node12</title>
<g id="a_node13"><a xlink:href="Span_8h.html" target="_top" xlink:title="iDynTree/Core/Span.h">
<polygon fill="none" stroke="#000000" points="627.5,-56.5 627.5,-75.5 748.5,-75.5 748.5,-56.5 627.5,-56.5"/>
<text text-anchor="middle" x="688" y="-63.5" font-family="FreeSans.ttf" font-size="10.00" fill="#000000">iDynTree/Core/Span.h</text>
</a>
</g>
</g>
<!-- Node8&#45;&gt;Node12 -->
<g id="edge13" class="edge">
<title>Node8&#45;&gt;Node12</title>
<path fill="none" stroke="#191970" d="M785.7151,-112.3733C766.8579,-103.4241 738.554,-89.9917 717.2545,-79.8835"/>
<polygon fill="#191970" stroke="#191970" points="718.5551,-76.6266 708.0202,-75.5011 715.5539,-82.9506 718.5551,-76.6266"/>
</g>
<!-- Node13 -->
<g id="node14" class="node">
<title>Node13</title>
<polygon fill="none" stroke="#bfbfbf" points="889,-.5 889,-19.5 941,-19.5 941,-.5 889,-.5"/>
<text text-anchor="middle" x="915" y="-7.5" font-family="FreeSans.ttf" font-size="10.00" fill="#000000">cassert</text>
</g>
<!-- Node8&#45;&gt;Node13 -->
<g id="edge25" class="edge">
<title>Node8&#45;&gt;Node13</title>
<path fill="none" stroke="#191970" d="M800.5321,-112.091C793.7267,-98.2764 784.3357,-73.0143 796,-56 800.9799,-48.7361 845.7042,-32.7426 878.8662,-21.6704"/>
<polygon fill="#191970" stroke="#191970" points="880.3352,-24.871 888.7298,-18.4073 878.1366,-18.2252 880.3352,-24.871"/>
</g>
<!-- Node21 -->
<g id="node22" class="node">
<title>Node21</title>
<polygon fill="none" stroke="#bfbfbf" points="805,-56.5 805,-75.5 861,-75.5 861,-56.5 805,-56.5"/>
<text text-anchor="middle" x="833" y="-63.5" font-family="FreeSans.ttf" font-size="10.00" fill="#000000">sstream</text>
</g>
<!-- Node8&#45;&gt;Node21 -->
<g id="edge24" class="edge">
<title>Node8&#45;&gt;Node21</title>
<path fill="none" stroke="#191970" d="M810.703,-112.2455C814.3424,-104.6973 819.4924,-94.0158 823.9262,-84.8197"/>
<polygon fill="#191970" stroke="#191970" points="827.1605,-86.1704 828.3509,-75.6427 820.8551,-83.1303 827.1605,-86.1704"/>
</g>
<!-- Node22 -->
<g id="node23" class="node">
<title>Node22</title>
<polygon fill="none" stroke="#bfbfbf" points="879,-56.5 879,-75.5 929,-75.5 929,-56.5 879,-56.5"/>
<text text-anchor="middle" x="904" y="-63.5" font-family="FreeSans.ttf" font-size="10.00" fill="#000000">cstring</text>
</g>
<!-- Node8&#45;&gt;Node22 -->
<g id="edge26" class="edge">
<title>Node8&#45;&gt;Node22</title>
<path fill="none" stroke="#191970" d="M823.0703,-112.2455C838.247,-103.5731 860.6621,-90.7645 878.0563,-80.825"/>
<polygon fill="#191970" stroke="#191970" points="880.1794,-83.643 887.1253,-75.6427 876.7064,-77.5653 880.1794,-83.643"/>
</g>
<!-- Node10 -->
<g id="node11" class="node">
<title>Node10</title>
<polygon fill="none" stroke="#bfbfbf" points="959.5,-.5 959.5,-19.5 1012.5,-19.5 1012.5,-.5 959.5,-.5"/>
<text text-anchor="middle" x="986" y="-7.5" font-family="FreeSans.ttf" font-size="10.00" fill="#000000">cstddef</text>
</g>
<!-- Node9&#45;&gt;Node10 -->
<g id="edge11" class="edge">
<title>Node9&#45;&gt;Node10</title>
<path fill="none" stroke="#191970" d="M1034.723,-56.2455C1026.1782,-48.1352 1013.8222,-36.4075 1003.6915,-26.7919"/>
<polygon fill="#191970" stroke="#191970" points="1005.8218,-23.9884 996.1592,-19.6427 1001.0028,-29.0655 1005.8218,-23.9884"/>
</g>
<!-- Node11 -->
<g id="node12" class="node">
<title>Node11</title>
<polygon fill="none" stroke="#bfbfbf" points="1031,-.5 1031,-19.5 1111,-19.5 1111,-.5 1031,-.5"/>
<text text-anchor="middle" x="1071" y="-7.5" font-family="FreeSans.ttf" font-size="10.00" fill="#000000">CoreExport.h</text>
</g>
<!-- Node9&#45;&gt;Node11 -->
<g id="edge12" class="edge">
<title>Node9&#45;&gt;Node11</title>
<path fill="none" stroke="#191970" d="M1049.5289,-56.2455C1053.0334,-48.6973 1057.9927,-38.0158 1062.2623,-28.8197"/>
<polygon fill="#191970" stroke="#191970" points="1065.4864,-30.1867 1066.523,-19.6427 1059.1373,-27.2389 1065.4864,-30.1867"/>
</g>
<!-- Node12&#45;&gt;Node10 -->
<g id="edge17" class="edge">
<title>Node12&#45;&gt;Node10</title>
<path fill="none" stroke="#191970" d="M748.6884,-57.0581C799.7136,-49.1506 874.746,-36.6164 949.3,-19.9824"/>
<polygon fill="#191970" stroke="#191970" points="950.3527,-23.3329 959.3368,-17.7172 948.8116,-16.5047 950.3527,-23.3329"/>
</g>
<!-- Node12&#45;&gt;Node13 -->
<g id="edge14" class="edge">
<title>Node12&#45;&gt;Node13</title>
<path fill="none" stroke="#191970" d="M730.0793,-56.4688C766.9341,-47.9979 822.161,-35.0082 878.8164,-20.2381"/>
<polygon fill="#191970" stroke="#191970" points="879.8747,-23.579 888.6602,-17.6573 878.0995,-16.8078 879.8747,-23.579"/>
</g>
<!-- Node14 -->
<g id="node15" class="node">
<title>Node14</title>
<polygon fill="none" stroke="#bfbfbf" points="379,-.5 379,-19.5 443,-19.5 443,-.5 379,-.5"/>
<text text-anchor="middle" x="411" y="-7.5" font-family="FreeSans.ttf" font-size="10.00" fill="#000000">algorithm</text>
</g>
<!-- Node12&#45;&gt;Node14 -->
<g id="edge15" class="edge">
<title>Node12&#45;&gt;Node14</title>
<path fill="none" stroke="#191970" d="M635.3641,-56.4692C589.6874,-48.0337 521.5491,-35.0568 453.2685,-20.2074"/>
<polygon fill="#191970" stroke="#191970" points="453.713,-16.7219 443.196,-18.0032 452.2166,-23.5601 453.713,-16.7219"/>
</g>
<!-- Node15 -->
<g id="node16" class="node">
<title>Node15</title>
<polygon fill="none" stroke="#bfbfbf" points="461,-.5 461,-19.5 503,-19.5 503,-.5 461,-.5"/>
<text text-anchor="middle" x="482" y="-7.5" font-family="FreeSans.ttf" font-size="10.00" fill="#000000">array</text>
</g>
<!-- Node12&#45;&gt;Node15 -->
<g id="edge16" class="edge">
<title>Node12&#45;&gt;Node15</title>
<path fill="none" stroke="#191970" d="M649.2532,-56.4659C613.6794,-47.5585 559.5831,-33.6246 513,-20 512.9016,-19.9712 512.8031,-19.9424 512.7044,-19.9134"/>
<polygon fill="#191970" stroke="#191970" points="513.884,-16.6141 503.2978,-17.0403 511.8392,-23.3088 513.884,-16.6141"/>
</g>
<!-- Node16 -->
<g id="node17" class="node">
<title>Node16</title>
<polygon fill="none" stroke="#bfbfbf" points="521.5,-.5 521.5,-19.5 574.5,-19.5 574.5,-.5 521.5,-.5"/>
<text text-anchor="middle" x="548" y="-7.5" font-family="FreeSans.ttf" font-size="10.00" fill="#000000">iterator</text>
</g>
<!-- Node12&#45;&gt;Node16 -->
<g id="edge18" class="edge">
<title>Node12&#45;&gt;Node16</title>
<path fill="none" stroke="#191970" d="M663.9331,-56.3733C641.1572,-47.2629 606.7656,-33.5062 581.351,-23.3404"/>
<polygon fill="#191970" stroke="#191970" points="582.3375,-19.9654 571.7528,-19.5011 579.7377,-26.4648 582.3375,-19.9654"/>
</g>
<!-- Node17 -->
<g id="node18" class="node">
<title>Node17</title>
<polygon fill="none" stroke="#bfbfbf" points="593,-.5 593,-19.5 637,-19.5 637,-.5 593,-.5"/>
<text text-anchor="middle" x="615" y="-7.5" font-family="FreeSans.ttf" font-size="10.00" fill="#000000">limits</text>
</g>
<!-- Node12&#45;&gt;Node17 -->
<g id="edge19" class="edge">
<title>Node12&#45;&gt;Node17</title>
<path fill="none" stroke="#191970" d="M675.2844,-56.2455C664.398,-47.8943 648.5117,-35.7076 635.78,-25.9408"/>
<polygon fill="#191970" stroke="#191970" points="637.6346,-22.9523 627.5699,-19.6427 633.3739,-28.5063 637.6346,-22.9523"/>
</g>
<!-- Node18 -->
<g id="node19" class="node">
<title>Node18</title>
<polygon fill="none" stroke="#bfbfbf" points="655.5,-.5 655.5,-19.5 720.5,-19.5 720.5,-.5 655.5,-.5"/>
<text text-anchor="middle" x="688" y="-7.5" font-family="FreeSans.ttf" font-size="10.00" fill="#000000">stdexcept</text>
</g>
<!-- Node12&#45;&gt;Node18 -->
<g id="edge20" class="edge">
<title>Node12&#45;&gt;Node18</title>
<path fill="none" stroke="#191970" d="M688,-56.2455C688,-48.9382 688,-38.6944 688,-29.7046"/>
<polygon fill="#191970" stroke="#191970" points="691.5001,-29.6426 688,-19.6427 684.5001,-29.6427 691.5001,-29.6426"/>
</g>
<!-- Node19 -->
<g id="node20" class="node">
<title>Node19</title>
<polygon fill="none" stroke="#bfbfbf" points="738.5,-.5 738.5,-19.5 807.5,-19.5 807.5,-.5 738.5,-.5"/>
<text text-anchor="middle" x="773" y="-7.5" font-family="FreeSans.ttf" font-size="10.00" fill="#000000">type_traits</text>
</g>
<!-- Node12&#45;&gt;Node19 -->
<g id="edge21" class="edge">
<title>Node12&#45;&gt;Node19</title>
<path fill="none" stroke="#191970" d="M702.8059,-56.2455C715.7256,-47.7337 734.6931,-35.2375 749.6552,-25.3801"/>
<polygon fill="#191970" stroke="#191970" points="751.9387,-28.067 758.3638,-19.6427 748.0876,-22.2216 751.9387,-28.067"/>
</g>
<!-- Node20 -->
<g id="node21" class="node">
<title>Node20</title>
<polygon fill="none" stroke="#bfbfbf" points="825.5,-.5 825.5,-19.5 870.5,-19.5 870.5,-.5 825.5,-.5"/>
<text text-anchor="middle" x="848" y="-7.5" font-family="FreeSans.ttf" font-size="10.00" fill="#000000">utility</text>
</g>
<!-- Node12&#45;&gt;Node20 -->
<g id="edge22" class="edge">
<title>Node12&#45;&gt;Node20</title>
<path fill="none" stroke="#191970" d="M715.505,-56.3733C743.3188,-46.6384 786.2899,-31.5985 815.7051,-21.3032"/>
<polygon fill="#191970" stroke="#191970" points="817.2148,-24.4831 825.4972,-17.876 814.9023,-17.8761 817.2148,-24.4831"/>
</g>
<!-- Node23&#45;&gt;Node4 -->
<g id="edge51" class="edge">
<title>Node23&#45;&gt;Node4</title>
<path fill="none" stroke="#191970" d="M633.2014,-336.3986C586.6419,-316.8003 487.5478,-267.2321 451,-188 435.6819,-154.7917 439.1981,-110.9164 443.1168,-85.8458"/>
<polygon fill="#191970" stroke="#191970" points="446.6063,-86.2091 444.8795,-75.756 439.7107,-85.0045 446.6063,-86.2091"/>
</g>
<!-- Node24 -->
<g id="node25" class="node">
<title>Node24</title>
<g id="a_node25"><a xlink:href="Position_8h.html" target="_top" xlink:title="iDynTree/Core/Position.h">
<polygon fill="none" stroke="#000000" points="573,-280.5 573,-299.5 709,-299.5 709,-280.5 573,-280.5"/>
<text text-anchor="middle" x="641" y="-287.5" font-family="FreeSans.ttf" font-size="10.00" fill="#000000">iDynTree/Core/Position.h</text>
</a>
</g>
</g>
<!-- Node23&#45;&gt;Node24 -->
<g id="edge30" class="edge">
<title>Node23&#45;&gt;Node24</title>
<path fill="none" stroke="#191970" d="M655.0388,-336.2455C652.7962,-328.8579 649.6423,-318.4689 646.8919,-309.4087"/>
<polygon fill="#191970" stroke="#191970" points="650.1812,-308.1948 643.9272,-299.6427 643.483,-310.2282 650.1812,-308.1948"/>
</g>
<!-- Node26 -->
<g id="node27" class="node">
<title>Node26</title>
<g id="a_node27"><a xlink:href="Rotation_8h.html" target="_top" xlink:title="iDynTree/Core/Rotation.h">
<polygon fill="none" stroke="#000000" points="714.5,-224.5 714.5,-243.5 851.5,-243.5 851.5,-224.5 714.5,-224.5"/>
<text text-anchor="middle" x="783" y="-231.5" font-family="FreeSans.ttf" font-size="10.00" fill="#000000">iDynTree/Core/Rotation.h</text>
</a>
</g>
</g>
<!-- Node23&#45;&gt;Node26 -->
<g id="edge49" class="edge">
<title>Node23&#45;&gt;Node26</title>
<path fill="none" stroke="#191970" d="M671.7702,-336.285C684.2153,-327.3106 702.8508,-313.3825 718,-300 735.5671,-284.4815 754.2004,-265.24 766.9915,-251.545"/>
<polygon fill="#191970" stroke="#191970" points="769.9182,-253.5354 774.1391,-243.8176 764.7794,-248.7822 769.9182,-253.5354"/>
</g>
<!-- Node29 -->
<g id="node30" class="node">
<title>Node29</title>
<g id="a_node30"><a xlink:href="MatrixFixSize_8h.html" target="_top" xlink:title="iDynTree/Core/MatrixFixSize.h">
<polygon fill="none" stroke="#000000" points="904.5,-112.5 904.5,-131.5 1065.5,-131.5 1065.5,-112.5 904.5,-112.5"/>
<text text-anchor="middle" x="985" y="-119.5" font-family="FreeSans.ttf" font-size="10.00" fill="#000000">iDynTree/Core/MatrixFixSize.h</text>
</a>
</g>
</g>
<!-- Node23&#45;&gt;Node29 -->
<g id="edge50" class="edge">
<title>Node23&#45;&gt;Node29</title>
<path fill="none" stroke="#191970" d="M706.3276,-336.4741C813.1216,-314.3409 1063.5883,-256.1078 1112,-188 1131.509,-160.5539 1094.7756,-143.6709 1055.8777,-133.8587"/>
<polygon fill="#191970" stroke="#191970" points="1056.512,-130.4122 1045.9747,-131.5142 1054.8994,-137.2239 1056.512,-130.4122"/>
</g>
<!-- Node24&#45;&gt;Node4 -->
<g id="edge48" class="edge">
<title>Node24&#45;&gt;Node4</title>
<path fill="none" stroke="#191970" d="M607.8518,-280.3988C567.3708,-266.8322 500.0921,-237.9622 466,-188 444.8454,-156.9978 443.7401,-111.334 445.1546,-85.5662"/>
<polygon fill="#191970" stroke="#191970" points="448.6486,-85.7756 445.8913,-75.5458 441.6674,-85.2622 448.6486,-85.7756"/>
</g>
<!-- Node25 -->
<g id="node26" class="node">
<title>Node25</title>
<g id="a_node26"><a xlink:href="PositionRaw_8h.html" target="_top" xlink:title="iDynTree/Core/PositionRaw.h">
<polygon fill="none" stroke="#000000" points="475,-168.5 475,-187.5 631,-187.5 631,-168.5 475,-168.5"/>
<text text-anchor="middle" x="553" y="-175.5" font-family="FreeSans.ttf" font-size="10.00" fill="#000000">iDynTree/Core/PositionRaw.h</text>
</a>
</g>
</g>
<!-- Node24&#45;&gt;Node25 -->
<g id="edge31" class="edge">
<title>Node24&#45;&gt;Node25</title>
<path fill="none" stroke="#191970" d="M633.4972,-280.4509C618.6899,-261.6054 585.5167,-219.3849 566.7043,-195.4419"/>
<polygon fill="#191970" stroke="#191970" points="569.4142,-193.2257 560.4838,-187.5249 563.91,-197.5505 569.4142,-193.2257"/>
</g>
<!-- Node24&#45;&gt;Node26 -->
<g id="edge34" class="edge">
<title>Node24&#45;&gt;Node26</title>
<path fill="none" stroke="#191970" d="M665.4107,-280.3733C688.6142,-271.2226 723.7038,-257.3844 749.5142,-247.2057"/>
<polygon fill="#191970" stroke="#191970" points="750.8892,-250.4258 758.9079,-243.5011 748.3211,-243.9139 750.8892,-250.4258"/>
</g>
<!-- Node25&#45;&gt;Node4 -->
<g id="edge33" class="edge">
<title>Node25&#45;&gt;Node4</title>
<path fill="none" stroke="#191970" d="M543.9625,-168.4509C525.9701,-149.4401 485.4651,-106.6423 462.9152,-82.816"/>
<polygon fill="#191970" stroke="#191970" points="465.4305,-80.382 456.0146,-75.5249 460.3465,-85.1937 465.4305,-80.382"/>
</g>
<!-- Node25&#45;&gt;Node8 -->
<g id="edge32" class="edge">
<title>Node25&#45;&gt;Node8</title>
<path fill="none" stroke="#191970" d="M596.2048,-168.4369C639.5947,-158.8328 706.5209,-144.0191 753.0726,-133.7152"/>
<polygon fill="#191970" stroke="#191970" points="753.9662,-137.1022 762.9734,-131.5237 752.4533,-130.2676 753.9662,-137.1022"/>
</g>
<!-- Node26&#45;&gt;Node4 -->
<g id="edge35" class="edge">
<title>Node26&#45;&gt;Node4</title>
<path fill="none" stroke="#191970" d="M763.9725,-224.4862C707.7373,-196.3686 542.0771,-113.5385 475.3393,-80.1696"/>
<polygon fill="#191970" stroke="#191970" points="476.7449,-76.9593 466.2353,-75.6177 473.6143,-83.2203 476.7449,-76.9593"/>
</g>
<!-- Node26&#45;&gt;Node8 -->
<g id="edge47" class="edge">
<title>Node26&#45;&gt;Node8</title>
<path fill="none" stroke="#191970" d="M837.018,-224.4617C857.8276,-217.8668 879.5668,-206.742 892,-188 907.2831,-164.9619 876.7112,-146.6319 847.8762,-135.1923"/>
<polygon fill="#191970" stroke="#191970" points="848.825,-131.8102 838.2327,-131.58 846.3695,-138.3655 848.825,-131.8102"/>
</g>
<!-- Node27 -->
<g id="node28" class="node">
<title>Node27</title>
<g id="a_node28"><a xlink:href="GeomVector3_8h.html" target="_top" xlink:title="iDynTree/Core/GeomVector3.h">
<polygon fill="none" stroke="#000000" points="939.5,-168.5 939.5,-187.5 1102.5,-187.5 1102.5,-168.5 939.5,-168.5"/>
<text text-anchor="middle" x="1021" y="-175.5" font-family="FreeSans.ttf" font-size="10.00" fill="#000000">iDynTree/Core/GeomVector3.h</text>
</a>
</g>
</g>
<!-- Node26&#45;&gt;Node27 -->
<g id="edge36" class="edge">
<title>Node26&#45;&gt;Node27</title>
<path fill="none" stroke="#191970" d="M823.6432,-224.4369C864.2895,-214.8731 926.8913,-200.1432 970.6587,-189.845"/>
<polygon fill="#191970" stroke="#191970" points="971.5919,-193.2211 980.5244,-187.5237 969.9886,-186.4072 971.5919,-193.2211"/>
</g>
<!-- Node28 -->
<g id="node29" class="node">
<title>Node28</title>
<g id="a_node29"><a xlink:href="RotationRaw_8h.html" target="_top" xlink:title="iDynTree/Core/RotationRaw.h">
<polygon fill="none" stroke="#000000" points="725,-168.5 725,-187.5 883,-187.5 883,-168.5 725,-168.5"/>
<text text-anchor="middle" x="804" y="-175.5" font-family="FreeSans.ttf" font-size="10.00" fill="#000000">iDynTree/Core/RotationRaw.h</text>
</a>
</g>
</g>
<!-- Node26&#45;&gt;Node28 -->
<g id="edge38" class="edge">
<title>Node26&#45;&gt;Node28</title>
<path fill="none" stroke="#191970" d="M786.6579,-224.2455C789.4584,-216.7776 793.409,-206.2427 796.8324,-197.1137"/>
<polygon fill="#191970" stroke="#191970" points="800.1499,-198.2349 800.384,-187.6427 793.5955,-195.777 800.1499,-198.2349"/>
</g>
<!-- Node27&#45;&gt;Node8 -->
<g id="edge37" class="edge">
<title>Node27&#45;&gt;Node8</title>
<path fill="none" stroke="#191970" d="M984.0402,-168.3733C947.5925,-158.8799 891.7754,-144.3415 852.3711,-134.0781"/>
<polygon fill="#191970" stroke="#191970" points="853.0369,-130.6348 842.4775,-131.5011 851.2724,-137.4087 853.0369,-130.6348"/>
</g>
<!-- Node28&#45;&gt;Node4 -->
<g id="edge46" class="edge">
<title>Node28&#45;&gt;Node4</title>
<path fill="none" stroke="#191970" d="M786.45,-168.424C756.3046,-152.1005 695.7379,-119.8836 673,-112 605.9301,-88.7458 523.3673,-75.6386 478.9365,-69.7768"/>
<polygon fill="#191970" stroke="#191970" points="479.3773,-66.3048 469.0135,-68.5052 478.4875,-73.248 479.3773,-66.3048"/>
</g>
<!-- Node28&#45;&gt;Node29 -->
<g id="edge39" class="edge">
<title>Node28&#45;&gt;Node29</title>
<path fill="none" stroke="#191970" d="M835.115,-168.3733C865.3429,-159.021 911.396,-144.7725 944.4739,-134.5385"/>
<polygon fill="#191970" stroke="#191970" points="945.7723,-137.8005 954.291,-131.5011 943.7033,-131.1133 945.7723,-137.8005"/>
</g>
<!-- Node29&#45;&gt;Node4 -->
<g id="edge43" class="edge">
<title>Node29&#45;&gt;Node4</title>
<path fill="none" stroke="#191970" d="M904.4737,-112.9163C901.6142,-112.6052 898.7827,-112.2989 896,-112 740.0556,-95.2512 553.4885,-76.5728 479.5137,-69.2208"/>
<polygon fill="#191970" stroke="#191970" points="479.7303,-65.7252 469.4334,-68.2198 479.0386,-72.6909 479.7303,-65.7252"/>
</g>
<!-- Node29&#45;&gt;Node9 -->
<g id="edge40" class="edge">
<title>Node29&#45;&gt;Node9</title>
<path fill="none" stroke="#191970" d="M995.4512,-112.2455C1004.2269,-104.0549 1016.9554,-92.1749 1027.314,-82.5069"/>
<polygon fill="#191970" stroke="#191970" points="1029.7461,-85.0246 1034.6686,-75.6427 1024.9699,-79.9072 1029.7461,-85.0246"/>
</g>
<!-- Node29&#45;&gt;Node13 -->
<g id="edge41" class="edge">
<title>Node29&#45;&gt;Node13</title>
<path fill="none" stroke="#191970" d="M979.0318,-112.4509C967.3567,-93.7707 941.3274,-52.1238 926.2976,-28.0761"/>
<polygon fill="#191970" stroke="#191970" points="929.2211,-26.1499 920.9531,-19.5249 923.2851,-29.8599 929.2211,-26.1499"/>
</g>
<!-- Node29&#45;&gt;Node21 -->
<g id="edge45" class="edge">
<title>Node29&#45;&gt;Node21</title>
<path fill="none" stroke="#191970" d="M958.8703,-112.3733C933.9232,-103.1822 896.1408,-89.2624 868.4794,-79.0713"/>
<polygon fill="#191970" stroke="#191970" points="869.3822,-75.674 858.7888,-75.5011 866.9622,-82.2424 869.3822,-75.674"/>
</g>
<!-- Node29&#45;&gt;Node22 -->
<g id="edge42" class="edge">
<title>Node29&#45;&gt;Node22</title>
<path fill="none" stroke="#191970" d="M970.8909,-112.2455C958.5791,-103.7337 940.5042,-91.2375 926.2462,-81.3801"/>
<polygon fill="#191970" stroke="#191970" points="928.1634,-78.4506 917.9474,-75.6427 924.1826,-84.2085 928.1634,-78.4506"/>
</g>
<!-- Node30 -->
<g id="node31" class="node">
<title>Node30</title>
<polygon fill="none" stroke="#bfbfbf" points="1123,-56.5 1123,-75.5 1183,-75.5 1183,-56.5 1123,-56.5"/>
<text text-anchor="middle" x="1153" y="-63.5" font-family="FreeSans.ttf" font-size="10.00" fill="#000000">iostream</text>
</g>
<!-- Node29&#45;&gt;Node30 -->
<g id="edge44" class="edge">
<title>Node29&#45;&gt;Node30</title>
<path fill="none" stroke="#191970" d="M1013.8802,-112.3733C1041.8161,-103.0613 1084.3142,-88.8953 1114.9869,-78.671"/>
<polygon fill="#191970" stroke="#191970" points="1116.1166,-81.9839 1124.4966,-75.5011 1113.903,-75.3431 1116.1166,-81.9839"/>
</g>
<!-- Node31&#45;&gt;Node4 -->
<g id="edge54" class="edge">
<title>Node31&#45;&gt;Node4</title>
<path fill="none" stroke="#191970" d="M518.7097,-392.0501C503.1219,-355.7408 449.882,-230.2967 440,-188 432.2986,-155.0369 430.6926,-145.5756 435,-112 436.1391,-103.1204 438.4673,-93.5073 440.7723,-85.3763"/>
<polygon fill="#191970" stroke="#191970" points="444.1457,-86.3125 443.6873,-75.7276 437.4448,-84.2881 444.1457,-86.3125"/>
</g>
<!-- Node31&#45;&gt;Node6 -->
<g id="edge55" class="edge">
<title>Node31&#45;&gt;Node6</title>
<path fill="none" stroke="#191970" d="M511.0278,-392.2309C500.7126,-383.4381 485.8194,-369.8108 475,-356 463.4521,-341.2593 453.0512,-322.6287 446.0626,-308.9237"/>
<polygon fill="#191970" stroke="#191970" points="449.1868,-307.3456 441.6092,-299.9409 442.9152,-310.4549 449.1868,-307.3456"/>
</g>
<!-- Node31&#45;&gt;Node23 -->
<g id="edge56" class="edge">
<title>Node31&#45;&gt;Node23</title>
<path fill="none" stroke="#191970" d="M546.2073,-392.3733C568.1699,-383.2629 601.3332,-369.5062 625.8401,-359.3404"/>
<polygon fill="#191970" stroke="#191970" points="627.1997,-362.5657 635.0955,-355.5011 624.5176,-356.0999 627.1997,-362.5657"/>
</g>
<!-- Node32 -->
<g id="node33" class="node">
<title>Node32</title>
<polygon fill="none" stroke="#bfbfbf" points="517.5,-336.5 517.5,-355.5 566.5,-355.5 566.5,-336.5 517.5,-336.5"/>
<text text-anchor="middle" x="542" y="-343.5" font-family="FreeSans.ttf" font-size="10.00" fill="#000000">cstdlib</text>
</g>
<!-- Node31&#45;&gt;Node32 -->
<g id="edge53" class="edge">
<title>Node31&#45;&gt;Node32</title>
<path fill="none" stroke="#191970" d="M526.3095,-392.2455C528.8433,-384.7776 532.4177,-374.2427 535.515,-365.1137"/>
<polygon fill="#191970" stroke="#191970" points="538.8298,-366.237 538.7284,-355.6427 532.2009,-363.9879 538.8298,-366.237"/>
</g>
</g>
</svg>
