<?xml version="1.0" encoding="UTF-8" standalone="no"?>
<!DOCTYPE svg PUBLIC "-//W3C//DTD SVG 1.1//EN"
 "http://www.w3.org/Graphics/SVG/1.1/DTD/svg11.dtd">
<!-- Generated by graphviz version 2.40.1 (20161225.0304)
 -->
<!-- Title: VisualElement.cpp Pages: 1 -->
<svg width="1809pt" height="532pt"
 viewBox="0.00 0.00 1809.00 532.00" xmlns="http://www.w3.org/2000/svg" xmlns:xlink="http://www.w3.org/1999/xlink">
<g id="graph0" class="graph" transform="scale(1 1) rotate(0) translate(4 528)">
<title>VisualElement.cpp</title>
<!-- Node0 -->
<g id="node1" class="node">
<title>Node0</title>
<polygon fill="#bfbfbf" stroke="#000000" points="203.5,-504.5 203.5,-523.5 310.5,-523.5 310.5,-504.5 203.5,-504.5"/>
<text text-anchor="middle" x="257" y="-511.5" font-family="FreeSans.ttf" font-size="10.00" fill="#000000">VisualElement.cpp</text>
</g>
<!-- Node1 -->
<g id="node2" class="node">
<title>Node1</title>
<g id="a_node2"><a xlink:href="VisualElement_8h.html" target="_top" xlink:title="VisualElement.h">
<polygon fill="none" stroke="#000000" points="342,-448.5 342,-467.5 438,-467.5 438,-448.5 342,-448.5"/>
<text text-anchor="middle" x="390" y="-455.5" font-family="FreeSans.ttf" font-size="10.00" fill="#000000">VisualElement.h</text>
</a>
</g>
</g>
<!-- Node0&#45;&gt;Node1 -->
<g id="edge1" class="edge">
<title>Node0&#45;&gt;Node1</title>
<path fill="none" stroke="#191970" d="M279.8635,-504.3733C301.405,-495.3032 333.8838,-481.6279 357.9956,-471.4755"/>
<polygon fill="#191970" stroke="#191970" points="359.5767,-474.6075 367.4348,-467.5011 356.8603,-468.156 359.5767,-474.6075"/>
</g>
<!-- Node8 -->
<g id="node9" class="node">
<title>Node8</title>
<g id="a_node9"><a xlink:href="MaterialElement_8h.html" target="_top" xlink:title="MaterialElement.h">
<polygon fill="none" stroke="#000000" points="256,-392.5 256,-411.5 362,-411.5 362,-392.5 256,-392.5"/>
<text text-anchor="middle" x="309" y="-399.5" font-family="FreeSans.ttf" font-size="10.00" fill="#000000">MaterialElement.h</text>
</a>
</g>
</g>
<!-- Node0&#45;&gt;Node8 -->
<g id="edge64" class="edge">
<title>Node0&#45;&gt;Node8</title>
<path fill="none" stroke="#191970" d="M261.4335,-504.4509C270.0297,-485.936 289.1011,-444.8591 300.3092,-420.7187"/>
<polygon fill="#191970" stroke="#191970" points="303.5411,-422.0689 304.5777,-411.5249 297.192,-419.1211 303.5411,-422.0689"/>
</g>
<!-- Node10 -->
<g id="node11" class="node">
<title>Node10</title>
<g id="a_node11"><a xlink:href="Utils_8h.html" target="_top" xlink:title="iDynTree/Core/Utils.h">
<polygon fill="none" stroke="#000000" points="1205.5,-56.5 1205.5,-75.5 1324.5,-75.5 1324.5,-56.5 1205.5,-56.5"/>
<text text-anchor="middle" x="1265" y="-63.5" font-family="FreeSans.ttf" font-size="10.00" fill="#000000">iDynTree/Core/Utils.h</text>
</a>
</g>
</g>
<!-- Node0&#45;&gt;Node10 -->
<g id="edge70" class="edge">
<title>Node0&#45;&gt;Node10</title>
<path fill="none" stroke="#191970" d="M310.6213,-511.4084C531.711,-500.3754 1361,-455.4304 1361,-402 1361,-402 1361,-402 1361,-178 1361,-134.7864 1319.2921,-99.8806 1290.8584,-81.1053"/>
<polygon fill="#191970" stroke="#191970" points="1292.4814,-77.9899 1282.1629,-75.5861 1288.7302,-83.9 1292.4814,-77.9899"/>
</g>
<!-- Node34 -->
<g id="node35" class="node">
<title>Node34</title>
<g id="a_node35"><a xlink:href="GeometryElement_8h.html" target="_top" xlink:title="GeometryElement.h">
<polygon fill="none" stroke="#000000" points="140.5,-448.5 140.5,-467.5 255.5,-467.5 255.5,-448.5 140.5,-448.5"/>
<text text-anchor="middle" x="198" y="-455.5" font-family="FreeSans.ttf" font-size="10.00" fill="#000000">GeometryElement.h</text>
</a>
</g>
</g>
<!-- Node0&#45;&gt;Node34 -->
<g id="edge62" class="edge">
<title>Node0&#45;&gt;Node34</title>
<path fill="none" stroke="#191970" d="M246.723,-504.2455C238.1782,-496.1352 225.8222,-484.4075 215.6915,-474.7919"/>
<polygon fill="#191970" stroke="#191970" points="217.8218,-471.9884 208.1592,-467.6427 213.0028,-477.0655 217.8218,-471.9884"/>
</g>
<!-- Node35 -->
<g id="node36" class="node">
<title>Node35</title>
<g id="a_node36"><a xlink:href="OriginElement_8h.html" target="_top" xlink:title="OriginElement.h">
<polygon fill="none" stroke="#000000" points="28.5,-392.5 28.5,-411.5 123.5,-411.5 123.5,-392.5 28.5,-392.5"/>
<text text-anchor="middle" x="76" y="-399.5" font-family="FreeSans.ttf" font-size="10.00" fill="#000000">OriginElement.h</text>
</a>
</g>
</g>
<!-- Node0&#45;&gt;Node35 -->
<g id="edge65" class="edge">
<title>Node0&#45;&gt;Node35</title>
<path fill="none" stroke="#191970" d="M214.3547,-504.4448C188.6075,-497.275 156.0462,-485.6192 131,-468 112.987,-455.3284 97.4559,-435.3176 87.5362,-420.6494"/>
<polygon fill="#191970" stroke="#191970" points="90.2422,-418.3901 81.8581,-411.9126 84.3728,-422.2047 90.2422,-418.3901"/>
</g>
<!-- Node36 -->
<g id="node37" class="node">
<title>Node36</title>
<g id="a_node37"><a xlink:href="XMLAttribute_8h.html" target="_top" xlink:title="iDynTree/XMLAttribute.h">
<polygon fill="none" stroke="#000000" points="6,-224.5 6,-243.5 140,-243.5 140,-224.5 6,-224.5"/>
<text text-anchor="middle" x="73" y="-231.5" font-family="FreeSans.ttf" font-size="10.00" fill="#000000">iDynTree/XMLAttribute.h</text>
</a>
</g>
</g>
<!-- Node0&#45;&gt;Node36 -->
<g id="edge68" class="edge">
<title>Node0&#45;&gt;Node36</title>
<path fill="none" stroke="#191970" d="M213.4035,-504.452C140.0802,-487.1216 0,-447.994 0,-402 0,-402 0,-402 0,-346 0,-306.8965 31.6171,-270.7535 53.2361,-250.6105"/>
<polygon fill="#191970" stroke="#191970" points="55.8346,-252.9817 60.9455,-243.7011 51.1627,-247.7688 55.8346,-252.9817"/>
</g>
<!-- Node2 -->
<g id="node3" class="node">
<title>Node2</title>
<g id="a_node3"><a xlink:href="XMLElement_8h.html" target="_top" xlink:title="iDynTree/XMLElement.h">
<polygon fill="none" stroke="#000000" points="147,-336.5 147,-355.5 279,-355.5 279,-336.5 147,-336.5"/>
<text text-anchor="middle" x="213" y="-343.5" font-family="FreeSans.ttf" font-size="10.00" fill="#000000">iDynTree/XMLElement.h</text>
</a>
</g>
</g>
<!-- Node1&#45;&gt;Node2 -->
<g id="edge2" class="edge">
<title>Node1&#45;&gt;Node2</title>
<path fill="none" stroke="#191970" d="M341.686,-452.0124C311.5876,-446.1415 273.657,-434.5974 247,-412 232.6007,-399.7936 223.5491,-379.9529 218.4391,-365.2078"/>
<polygon fill="#191970" stroke="#191970" points="221.7403,-364.0381 215.3948,-355.5536 215.0643,-366.1433 221.7403,-364.0381"/>
</g>
<!-- Node4 -->
<g id="node5" class="node">
<title>Node4</title>
<polygon fill="none" stroke="#bfbfbf" points="271,-280.5 271,-299.5 329,-299.5 329,-280.5 271,-280.5"/>
<text text-anchor="middle" x="300" y="-287.5" font-family="FreeSans.ttf" font-size="10.00" fill="#000000">memory</text>
</g>
<!-- Node1&#45;&gt;Node4 -->
<g id="edge58" class="edge">
<title>Node1&#45;&gt;Node4</title>
<path fill="none" stroke="#191970" d="M388.2353,-448.2439C385.6168,-435.0385 380.0182,-410.9492 371,-392 355.7351,-359.9251 330.7392,-326.9192 314.8419,-307.4457"/>
<polygon fill="#191970" stroke="#191970" points="317.5231,-305.1959 308.4432,-299.7365 312.1368,-309.6667 317.5231,-305.1959"/>
</g>
<!-- Node5 -->
<g id="node6" class="node">
<title>Node5</title>
<polygon fill="none" stroke="#bfbfbf" points="598,-56.5 598,-75.5 642,-75.5 642,-56.5 598,-56.5"/>
<text text-anchor="middle" x="620" y="-63.5" font-family="FreeSans.ttf" font-size="10.00" fill="#000000">string</text>
</g>
<!-- Node1&#45;&gt;Node5 -->
<g id="edge59" class="edge">
<title>Node1&#45;&gt;Node5</title>
<path fill="none" stroke="#191970" d="M401.51,-448.1379C434.1568,-418.9994 525,-329.3516 525,-234 525,-234 525,-234 525,-178 525,-134.9765 566.2735,-100.0102 594.4109,-81.1715"/>
<polygon fill="#191970" stroke="#191970" points="596.5021,-83.9879 603.0159,-75.632 592.713,-78.102 596.5021,-83.9879"/>
</g>
<!-- Node6 -->
<g id="node7" class="node">
<title>Node6</title>
<polygon fill="none" stroke="#bfbfbf" points="38.5,-280.5 38.5,-299.5 131.5,-299.5 131.5,-280.5 38.5,-280.5"/>
<text text-anchor="middle" x="85" y="-287.5" font-family="FreeSans.ttf" font-size="10.00" fill="#000000">unordered_map</text>
</g>
<!-- Node1&#45;&gt;Node6 -->
<g id="edge60" class="edge">
<title>Node1&#45;&gt;Node6</title>
<path fill="none" stroke="#191970" d="M343.413,-448.428C310.3708,-440.7688 265.4302,-428.5644 228,-412 184.9189,-392.9349 173.25,-387.2553 138,-356 121.9446,-341.7641 106.9621,-322.2962 97.0518,-308.1961"/>
<polygon fill="#191970" stroke="#191970" points="99.8497,-306.0872 91.3115,-299.8143 94.0743,-310.0426 99.8497,-306.0872"/>
</g>
<!-- Node7 -->
<g id="node8" class="node">
<title>Node7</title>
<polygon fill="none" stroke="#bfbfbf" points="449.5,-280.5 449.5,-299.5 496.5,-299.5 496.5,-280.5 449.5,-280.5"/>
<text text-anchor="middle" x="473" y="-287.5" font-family="FreeSans.ttf" font-size="10.00" fill="#000000">vector</text>
</g>
<!-- Node1&#45;&gt;Node7 -->
<g id="edge61" class="edge">
<title>Node1&#45;&gt;Node7</title>
<path fill="none" stroke="#191970" d="M394.7003,-448.4862C407.9342,-421.6994 445.7007,-345.2565 463.5,-309.2289"/>
<polygon fill="#191970" stroke="#191970" points="466.853,-310.3437 468.1446,-299.8279 460.5772,-307.2431 466.853,-310.3437"/>
</g>
<!-- Node1&#45;&gt;Node8 -->
<g id="edge8" class="edge">
<title>Node1&#45;&gt;Node8</title>
<path fill="none" stroke="#191970" d="M375.8909,-448.2455C363.5791,-439.7337 345.5042,-427.2375 331.2462,-417.3801"/>
<polygon fill="#191970" stroke="#191970" points="333.1634,-414.4506 322.9474,-411.6427 329.1826,-420.2085 333.1634,-414.4506"/>
</g>
<!-- Node24 -->
<g id="node25" class="node">
<title>Node24</title>
<g id="a_node25"><a xlink:href="Transform_8h.html" target="_top" xlink:title="iDynTree/Core/Transform.h">
<polygon fill="none" stroke="#000000" points="672,-336.5 672,-355.5 818,-355.5 818,-336.5 672,-336.5"/>
<text text-anchor="middle" x="745" y="-343.5" font-family="FreeSans.ttf" font-size="10.00" fill="#000000">iDynTree/Core/Transform.h</text>
</a>
</g>
</g>
<!-- Node1&#45;&gt;Node24 -->
<g id="edge30" class="edge">
<title>Node1&#45;&gt;Node24</title>
<path fill="none" stroke="#191970" d="M438.335,-454.0375C524.8982,-446.5419 699.4032,-429.4665 721,-412 734.749,-400.8804 740.6225,-381.177 743.1311,-366.1845"/>
<polygon fill="#191970" stroke="#191970" points="746.655,-366.2249 744.4682,-355.8582 739.713,-365.3259 746.655,-366.2249"/>
</g>
<!-- Node32 -->
<g id="node33" class="node">
<title>Node32</title>
<g id="a_node33"><a xlink:href="SolidShapes_8h.html" target="_top" xlink:title="iDynTree/Model/SolidShapes.h">
<polygon fill="none" stroke="#000000" points="548.5,-392.5 548.5,-411.5 711.5,-411.5 711.5,-392.5 548.5,-392.5"/>
<text text-anchor="middle" x="630" y="-399.5" font-family="FreeSans.ttf" font-size="10.00" fill="#000000">iDynTree/Model/SolidShapes.h</text>
</a>
</g>
</g>
<!-- Node1&#45;&gt;Node32 -->
<g id="edge53" class="edge">
<title>Node1&#45;&gt;Node32</title>
<path fill="none" stroke="#191970" d="M430.9848,-448.4369C471.9726,-438.8731 535.1004,-424.1432 579.2357,-413.845"/>
<polygon fill="#191970" stroke="#191970" points="580.2412,-417.2045 589.1843,-411.5237 578.6505,-410.3876 580.2412,-417.2045"/>
</g>
<!-- Node3 -->
<g id="node4" class="node">
<title>Node3</title>
<polygon fill="none" stroke="#bfbfbf" points="149.5,-280.5 149.5,-299.5 214.5,-299.5 214.5,-280.5 149.5,-280.5"/>
<text text-anchor="middle" x="182" y="-287.5" font-family="FreeSans.ttf" font-size="10.00" fill="#000000">functional</text>
</g>
<!-- Node2&#45;&gt;Node3 -->
<g id="edge3" class="edge">
<title>Node2&#45;&gt;Node3</title>
<path fill="none" stroke="#191970" d="M207.6002,-336.2455C203.3773,-328.617 197.3827,-317.7881 192.2559,-308.5267"/>
<polygon fill="#191970" stroke="#191970" points="195.2432,-306.6965 187.3379,-299.6427 189.119,-310.0867 195.2432,-306.6965"/>
</g>
<!-- Node2&#45;&gt;Node4 -->
<g id="edge4" class="edge">
<title>Node2&#45;&gt;Node4</title>
<path fill="none" stroke="#191970" d="M228.1542,-336.2455C241.5027,-327.6534 261.1586,-315.0014 276.5383,-305.1018"/>
<polygon fill="#191970" stroke="#191970" points="278.5051,-307.9982 285.0194,-299.6427 274.7164,-302.1121 278.5051,-307.9982"/>
</g>
<!-- Node2&#45;&gt;Node5 -->
<g id="edge5" class="edge">
<title>Node2&#45;&gt;Node5</title>
<path fill="none" stroke="#191970" d="M217.4266,-336.3458C225.7716,-317.2352 243,-273.052 243,-234 243,-234 243,-234 243,-178 243,-106.3287 496.5377,-76.8867 587.7761,-68.6121"/>
<polygon fill="#191970" stroke="#191970" points="588.1699,-72.091 597.8244,-67.7274 587.556,-65.118 588.1699,-72.091"/>
</g>
<!-- Node2&#45;&gt;Node6 -->
<g id="edge6" class="edge">
<title>Node2&#45;&gt;Node6</title>
<path fill="none" stroke="#191970" d="M190.996,-336.3733C170.3565,-327.3435 139.2842,-313.7494 116.1111,-303.6111"/>
<polygon fill="#191970" stroke="#191970" points="117.2813,-300.3028 106.7169,-299.5011 114.4755,-306.7159 117.2813,-300.3028"/>
</g>
<!-- Node2&#45;&gt;Node7 -->
<g id="edge7" class="edge">
<title>Node2&#45;&gt;Node7</title>
<path fill="none" stroke="#191970" d="M257.4002,-336.4369C309.0436,-325.3137 393.1312,-307.2025 439.559,-297.2027"/>
<polygon fill="#191970" stroke="#191970" points="440.3776,-300.6067 449.4164,-295.0795 438.9036,-293.7636 440.3776,-300.6067"/>
</g>
<!-- Node8&#45;&gt;Node2 -->
<g id="edge9" class="edge">
<title>Node8&#45;&gt;Node2</title>
<path fill="none" stroke="#191970" d="M292.2781,-392.2455C277.4111,-383.5731 255.4534,-370.7645 238.4142,-360.825"/>
<polygon fill="#191970" stroke="#191970" points="239.9317,-357.6582 229.5303,-355.6427 236.4045,-363.7047 239.9317,-357.6582"/>
</g>
<!-- Node8&#45;&gt;Node4 -->
<g id="edge28" class="edge">
<title>Node8&#45;&gt;Node4</title>
<path fill="none" stroke="#191970" d="M308.2327,-392.4509C306.7648,-374.184 303.5321,-333.9553 301.5828,-309.6976"/>
<polygon fill="#191970" stroke="#191970" points="305.0552,-309.2124 300.7654,-299.5249 298.0777,-309.7731 305.0552,-309.2124"/>
</g>
<!-- Node8&#45;&gt;Node5 -->
<g id="edge29" class="edge">
<title>Node8&#45;&gt;Node5</title>
<path fill="none" stroke="#191970" d="M313.7779,-392.4285C325.9189,-367.1929 357,-296.4876 357,-234 357,-234 357,-234 357,-178 357,-128.4354 517.1151,-88.0313 587.4831,-72.6676"/>
<polygon fill="#191970" stroke="#191970" points="588.5337,-76.0219 597.5768,-70.5016 587.065,-69.1777 588.5337,-76.0219"/>
</g>
<!-- Node9 -->
<g id="node10" class="node">
<title>Node9</title>
<g id="a_node10"><a xlink:href="VectorFixSize_8h.html" target="_top" xlink:title="iDynTree/Core/VectorFixSize.h">
<polygon fill="none" stroke="#000000" points="1096.5,-112.5 1096.5,-131.5 1257.5,-131.5 1257.5,-112.5 1096.5,-112.5"/>
<text text-anchor="middle" x="1177" y="-119.5" font-family="FreeSans.ttf" font-size="10.00" fill="#000000">iDynTree/Core/VectorFixSize.h</text>
</a>
</g>
</g>
<!-- Node8&#45;&gt;Node9 -->
<g id="edge10" class="edge">
<title>Node8&#45;&gt;Node9</title>
<path fill="none" stroke="#191970" d="M319.3524,-392.4963C329.471,-383.2024 345.308,-368.6433 359,-356 395.5066,-322.2894 396.2386,-301.5767 441,-280 686.001,-161.8999 786.8852,-270.6598 1046,-188 1085.543,-175.3855 1127.8339,-152.0812 1153.3457,-136.8117"/>
<polygon fill="#191970" stroke="#191970" points="1155.2206,-139.768 1161.9494,-131.5844 1151.5858,-133.7857 1155.2206,-139.768"/>
</g>
<!-- Node9&#45;&gt;Node5 -->
<g id="edge24" class="edge">
<title>Node9&#45;&gt;Node5</title>
<path fill="none" stroke="#191970" d="M1096.4753,-112.9015C1093.6153,-112.5945 1090.7834,-112.2931 1088,-112 924.7143,-94.8028 729.1555,-76.2368 652.8004,-69.0657"/>
<polygon fill="#191970" stroke="#191970" points="652.7011,-65.5411 642.4179,-68.0918 652.0473,-72.5105 652.7011,-65.5411"/>
</g>
<!-- Node9&#45;&gt;Node10 -->
<g id="edge11" class="edge">
<title>Node9&#45;&gt;Node10</title>
<path fill="none" stroke="#191970" d="M1192.3284,-112.2455C1205.8303,-103.6534 1225.7122,-91.0014 1241.2686,-81.1018"/>
<polygon fill="#191970" stroke="#191970" points="1243.2897,-83.9643 1249.8472,-75.6427 1239.5315,-78.0587 1243.2897,-83.9643"/>
</g>
<!-- Node13 -->
<g id="node14" class="node">
<title>Node13</title>
<g id="a_node14"><a xlink:href="Span_8h.html" target="_top" xlink:title="iDynTree/Core/Span.h">
<polygon fill="none" stroke="#000000" points="1378.5,-56.5 1378.5,-75.5 1499.5,-75.5 1499.5,-56.5 1378.5,-56.5"/>
<text text-anchor="middle" x="1439" y="-63.5" font-family="FreeSans.ttf" font-size="10.00" fill="#000000">iDynTree/Core/Span.h</text>
</a>
</g>
</g>
<!-- Node9&#45;&gt;Node13 -->
<g id="edge14" class="edge">
<title>Node9&#45;&gt;Node13</title>
<path fill="none" stroke="#191970" d="M1221.7417,-112.4369C1266.7694,-102.8127 1336.2728,-87.957 1384.4927,-77.6504"/>
<polygon fill="#191970" stroke="#191970" points="1385.3953,-81.0366 1394.4428,-75.5237 1383.9321,-74.1912 1385.3953,-81.0366"/>
</g>
<!-- Node14 -->
<g id="node15" class="node">
<title>Node14</title>
<polygon fill="none" stroke="#bfbfbf" points="1070,-.5 1070,-19.5 1122,-19.5 1122,-.5 1070,-.5"/>
<text text-anchor="middle" x="1096" y="-7.5" font-family="FreeSans.ttf" font-size="10.00" fill="#000000">cassert</text>
</g>
<!-- Node9&#45;&gt;Node14 -->
<g id="edge26" class="edge">
<title>Node9&#45;&gt;Node14</title>
<path fill="none" stroke="#191970" d="M1176.152,-112.2096C1174.5566,-98.5359 1170.0957,-73.4401 1158,-56 1149.2349,-43.3622 1135.8705,-32.8116 1123.7911,-25.0163"/>
<polygon fill="#191970" stroke="#191970" points="1125.2632,-21.8149 1114.9018,-19.6033 1121.6225,-27.7937 1125.2632,-21.8149"/>
</g>
<!-- Node22 -->
<g id="node23" class="node">
<title>Node22</title>
<polygon fill="none" stroke="#bfbfbf" points="1093,-56.5 1093,-75.5 1149,-75.5 1149,-56.5 1093,-56.5"/>
<text text-anchor="middle" x="1121" y="-63.5" font-family="FreeSans.ttf" font-size="10.00" fill="#000000">sstream</text>
</g>
<!-- Node9&#45;&gt;Node22 -->
<g id="edge25" class="edge">
<title>Node9&#45;&gt;Node22</title>
<path fill="none" stroke="#191970" d="M1167.2455,-112.2455C1159.1352,-104.1352 1147.4075,-92.4075 1137.7919,-82.7919"/>
<polygon fill="#191970" stroke="#191970" points="1140.1887,-80.2389 1130.6427,-75.6427 1135.2389,-85.1887 1140.1887,-80.2389"/>
</g>
<!-- Node23 -->
<g id="node24" class="node">
<title>Node23</title>
<polygon fill="none" stroke="#bfbfbf" points="1025,-56.5 1025,-75.5 1075,-75.5 1075,-56.5 1025,-56.5"/>
<text text-anchor="middle" x="1050" y="-63.5" font-family="FreeSans.ttf" font-size="10.00" fill="#000000">cstring</text>
</g>
<!-- Node9&#45;&gt;Node23 -->
<g id="edge27" class="edge">
<title>Node9&#45;&gt;Node23</title>
<path fill="none" stroke="#191970" d="M1155.1679,-112.3733C1134.6897,-103.3435 1103.8601,-89.7494 1080.8681,-79.6111"/>
<polygon fill="#191970" stroke="#191970" points="1082.1093,-76.3333 1071.5472,-75.5011 1079.285,-82.7383 1082.1093,-76.3333"/>
</g>
<!-- Node11 -->
<g id="node12" class="node">
<title>Node11</title>
<polygon fill="none" stroke="#bfbfbf" points="1238.5,-.5 1238.5,-19.5 1291.5,-19.5 1291.5,-.5 1238.5,-.5"/>
<text text-anchor="middle" x="1265" y="-7.5" font-family="FreeSans.ttf" font-size="10.00" fill="#000000">cstddef</text>
</g>
<!-- Node10&#45;&gt;Node11 -->
<g id="edge12" class="edge">
<title>Node10&#45;&gt;Node11</title>
<path fill="none" stroke="#191970" d="M1265,-56.2455C1265,-48.9382 1265,-38.6944 1265,-29.7046"/>
<polygon fill="#191970" stroke="#191970" points="1268.5001,-29.6426 1265,-19.6427 1261.5001,-29.6427 1268.5001,-29.6426"/>
</g>
<!-- Node12 -->
<g id="node13" class="node">
<title>Node12</title>
<polygon fill="none" stroke="#bfbfbf" points="1140,-.5 1140,-19.5 1220,-19.5 1220,-.5 1140,-.5"/>
<text text-anchor="middle" x="1180" y="-7.5" font-family="FreeSans.ttf" font-size="10.00" fill="#000000">CoreExport.h</text>
</g>
<!-- Node10&#45;&gt;Node12 -->
<g id="edge13" class="edge">
<title>Node10&#45;&gt;Node12</title>
<path fill="none" stroke="#191970" d="M1250.1941,-56.2455C1237.2744,-47.7337 1218.3069,-35.2375 1203.3448,-25.3801"/>
<polygon fill="#191970" stroke="#191970" points="1204.9124,-22.2216 1194.6362,-19.6427 1201.0613,-28.067 1204.9124,-22.2216"/>
</g>
<!-- Node13&#45;&gt;Node11 -->
<g id="edge18" class="edge">
<title>Node13&#45;&gt;Node11</title>
<path fill="none" stroke="#191970" d="M1409.0883,-56.3733C1379.278,-46.7791 1333.4574,-32.0323 1301.5172,-21.7527"/>
<polygon fill="#191970" stroke="#191970" points="1302.264,-18.3163 1291.6726,-18.5843 1300.1194,-24.9797 1302.264,-18.3163"/>
</g>
<!-- Node13&#45;&gt;Node14 -->
<g id="edge15" class="edge">
<title>Node13&#45;&gt;Node14</title>
<path fill="none" stroke="#191970" d="M1378.3815,-59.3091C1318.1556,-52.13 1223.05,-39.3622 1132.1933,-20.0432"/>
<polygon fill="#191970" stroke="#191970" points="1132.7936,-16.5923 1122.2804,-17.9053 1131.3178,-23.4349 1132.7936,-16.5923"/>
</g>
<!-- Node15 -->
<g id="node16" class="node">
<title>Node15</title>
<polygon fill="none" stroke="#bfbfbf" points="1677,-.5 1677,-19.5 1741,-19.5 1741,-.5 1677,-.5"/>
<text text-anchor="middle" x="1709" y="-7.5" font-family="FreeSans.ttf" font-size="10.00" fill="#000000">algorithm</text>
</g>
<!-- Node13&#45;&gt;Node15 -->
<g id="edge16" class="edge">
<title>Node13&#45;&gt;Node15</title>
<path fill="none" stroke="#191970" d="M1489.608,-56.4519C1533.9151,-47.953 1600.2621,-34.8908 1666.9596,-20.1694"/>
<polygon fill="#191970" stroke="#191970" points="1667.7959,-23.569 1676.8002,-17.9857 1666.2794,-16.7352 1667.7959,-23.569"/>
</g>
<!-- Node16 -->
<g id="node17" class="node">
<title>Node16</title>
<polygon fill="none" stroke="#bfbfbf" points="1759,-.5 1759,-19.5 1801,-19.5 1801,-.5 1759,-.5"/>
<text text-anchor="middle" x="1780" y="-7.5" font-family="FreeSans.ttf" font-size="10.00" fill="#000000">array</text>
</g>
<!-- Node13&#45;&gt;Node16 -->
<g id="edge17" class="edge">
<title>Node13&#45;&gt;Node16</title>
<path fill="none" stroke="#191970" d="M1499.5054,-60.2203C1560.4568,-53.687 1657.2336,-41.3747 1749.0951,-19.8836"/>
<polygon fill="#191970" stroke="#191970" points="1749.9097,-23.2876 1758.8276,-17.5673 1748.2889,-16.4778 1749.9097,-23.2876"/>
</g>
<!-- Node17 -->
<g id="node18" class="node">
<title>Node17</title>
<polygon fill="none" stroke="#bfbfbf" points="1309.5,-.5 1309.5,-19.5 1362.5,-19.5 1362.5,-.5 1309.5,-.5"/>
<text text-anchor="middle" x="1336" y="-7.5" font-family="FreeSans.ttf" font-size="10.00" fill="#000000">iterator</text>
</g>
<!-- Node13&#45;&gt;Node17 -->
<g id="edge19" class="edge">
<title>Node13&#45;&gt;Node17</title>
<path fill="none" stroke="#191970" d="M1421.0588,-56.2455C1404.96,-47.4928 1381.1121,-34.527 1362.7609,-24.5496"/>
<polygon fill="#191970" stroke="#191970" points="1364.1929,-21.3444 1353.7356,-19.6427 1360.8493,-27.4942 1364.1929,-21.3444"/>
</g>
<!-- Node18 -->
<g id="node19" class="node">
<title>Node18</title>
<polygon fill="none" stroke="#bfbfbf" points="1381,-.5 1381,-19.5 1425,-19.5 1425,-.5 1381,-.5"/>
<text text-anchor="middle" x="1403" y="-7.5" font-family="FreeSans.ttf" font-size="10.00" fill="#000000">limits</text>
</g>
<!-- Node13&#45;&gt;Node18 -->
<g id="edge20" class="edge">
<title>Node13&#45;&gt;Node18</title>
<path fill="none" stroke="#191970" d="M1432.7293,-56.2455C1427.7736,-48.5367 1420.717,-37.5598 1414.7224,-28.2348"/>
<polygon fill="#191970" stroke="#191970" points="1417.5506,-26.1618 1409.1989,-19.6427 1411.6624,-29.9471 1417.5506,-26.1618"/>
</g>
<!-- Node19 -->
<g id="node20" class="node">
<title>Node19</title>
<polygon fill="none" stroke="#bfbfbf" points="1443.5,-.5 1443.5,-19.5 1508.5,-19.5 1508.5,-.5 1443.5,-.5"/>
<text text-anchor="middle" x="1476" y="-7.5" font-family="FreeSans.ttf" font-size="10.00" fill="#000000">stdexcept</text>
</g>
<!-- Node13&#45;&gt;Node19 -->
<g id="edge21" class="edge">
<title>Node13&#45;&gt;Node19</title>
<path fill="none" stroke="#191970" d="M1445.4449,-56.2455C1450.5382,-48.5367 1457.7908,-37.5598 1463.952,-28.2348"/>
<polygon fill="#191970" stroke="#191970" points="1467.0365,-29.9155 1469.6289,-19.6427 1461.1962,-26.0566 1467.0365,-29.9155"/>
</g>
<!-- Node20 -->
<g id="node21" class="node">
<title>Node20</title>
<polygon fill="none" stroke="#bfbfbf" points="1526.5,-.5 1526.5,-19.5 1595.5,-19.5 1595.5,-.5 1526.5,-.5"/>
<text text-anchor="middle" x="1561" y="-7.5" font-family="FreeSans.ttf" font-size="10.00" fill="#000000">type_traits</text>
</g>
<!-- Node13&#45;&gt;Node20 -->
<g id="edge22" class="edge">
<title>Node13&#45;&gt;Node20</title>
<path fill="none" stroke="#191970" d="M1459.9725,-56.3733C1479.5567,-47.3838 1508.9961,-33.8706 1531.051,-23.7471"/>
<polygon fill="#191970" stroke="#191970" points="1532.6729,-26.8538 1540.3011,-19.5011 1529.7527,-20.4919 1532.6729,-26.8538"/>
</g>
<!-- Node21 -->
<g id="node22" class="node">
<title>Node21</title>
<polygon fill="none" stroke="#bfbfbf" points="1613.5,-.5 1613.5,-19.5 1658.5,-19.5 1658.5,-.5 1613.5,-.5"/>
<text text-anchor="middle" x="1636" y="-7.5" font-family="FreeSans.ttf" font-size="10.00" fill="#000000">utility</text>
</g>
<!-- Node13&#45;&gt;Node21 -->
<g id="edge23" class="edge">
<title>Node13&#45;&gt;Node21</title>
<path fill="none" stroke="#191970" d="M1475.0678,-56.4707C1506.7363,-48.0003 1554.2626,-35.0396 1603.7568,-20.2992"/>
<polygon fill="#191970" stroke="#191970" points="1604.7713,-23.6491 1613.3472,-17.4277 1602.7634,-16.9432 1604.7713,-23.6491"/>
</g>
<!-- Node24&#45;&gt;Node5 -->
<g id="edge52" class="edge">
<title>Node24&#45;&gt;Node5</title>
<path fill="none" stroke="#191970" d="M711.9635,-336.4779C669.4498,-321.958 601,-289.9003 601,-234 601,-234 601,-234 601,-178 601,-145.2688 608.9852,-107.9052 614.6022,-85.6716"/>
<polygon fill="#191970" stroke="#191970" points="618.0415,-86.3545 617.1965,-75.7934 611.2711,-84.5763 618.0415,-86.3545"/>
</g>
<!-- Node25 -->
<g id="node26" class="node">
<title>Node25</title>
<g id="a_node26"><a xlink:href="Position_8h.html" target="_top" xlink:title="iDynTree/Core/Position.h">
<polygon fill="none" stroke="#000000" points="677,-280.5 677,-299.5 813,-299.5 813,-280.5 677,-280.5"/>
<text text-anchor="middle" x="745" y="-287.5" font-family="FreeSans.ttf" font-size="10.00" fill="#000000">iDynTree/Core/Position.h</text>
</a>
</g>
</g>
<!-- Node24&#45;&gt;Node25 -->
<g id="edge31" class="edge">
<title>Node24&#45;&gt;Node25</title>
<path fill="none" stroke="#191970" d="M745,-336.2455C745,-328.9382 745,-318.6944 745,-309.7046"/>
<polygon fill="#191970" stroke="#191970" points="748.5001,-309.6426 745,-299.6427 741.5001,-309.6427 748.5001,-309.6426"/>
</g>
<!-- Node27 -->
<g id="node28" class="node">
<title>Node27</title>
<g id="a_node28"><a xlink:href="Rotation_8h.html" target="_top" xlink:title="iDynTree/Core/Rotation.h">
<polygon fill="none" stroke="#000000" points="836.5,-224.5 836.5,-243.5 973.5,-243.5 973.5,-224.5 836.5,-224.5"/>
<text text-anchor="middle" x="905" y="-231.5" font-family="FreeSans.ttf" font-size="10.00" fill="#000000">iDynTree/Core/Rotation.h</text>
</a>
</g>
</g>
<!-- Node24&#45;&gt;Node27 -->
<g id="edge50" class="edge">
<title>Node24&#45;&gt;Node27</title>
<path fill="none" stroke="#191970" d="M762.5381,-336.4087C778.4194,-327.5176 802.2779,-313.6423 822,-300 844.8212,-284.214 869.5418,-264.1375 886.014,-250.2951"/>
<polygon fill="#191970" stroke="#191970" points="888.4544,-252.8148 893.8223,-243.6804 883.9298,-247.4736 888.4544,-252.8148"/>
</g>
<!-- Node30 -->
<g id="node31" class="node">
<title>Node30</title>
<g id="a_node31"><a xlink:href="MatrixFixSize_8h.html" target="_top" xlink:title="iDynTree/Core/MatrixFixSize.h">
<polygon fill="none" stroke="#000000" points="917.5,-112.5 917.5,-131.5 1078.5,-131.5 1078.5,-112.5 917.5,-112.5"/>
<text text-anchor="middle" x="998" y="-119.5" font-family="FreeSans.ttf" font-size="10.00" fill="#000000">iDynTree/Core/MatrixFixSize.h</text>
</a>
</g>
</g>
<!-- Node24&#45;&gt;Node30 -->
<g id="edge51" class="edge">
<title>Node24&#45;&gt;Node30</title>
<path fill="none" stroke="#191970" d="M805.5634,-336.4526C880.7068,-320.7797 1004.0522,-281.4113 1046,-188 1054.4518,-169.1793 1037.758,-150.4152 1021.7905,-137.7327"/>
<polygon fill="#191970" stroke="#191970" points="1023.7598,-134.8358 1013.6437,-131.6869 1019.5882,-140.457 1023.7598,-134.8358"/>
</g>
<!-- Node25&#45;&gt;Node5 -->
<g id="edge49" class="edge">
<title>Node25&#45;&gt;Node5</title>
<path fill="none" stroke="#191970" d="M734.3193,-280.343C716.1474,-263.3638 679.1344,-226.3144 658,-188 639.5092,-154.4783 628.6801,-110.7121 623.5856,-85.7459"/>
<polygon fill="#191970" stroke="#191970" points="626.9781,-84.8548 621.6415,-75.7022 620.1057,-86.1852 626.9781,-84.8548"/>
</g>
<!-- Node26 -->
<g id="node27" class="node">
<title>Node26</title>
<g id="a_node27"><a xlink:href="PositionRaw_8h.html" target="_top" xlink:title="iDynTree/Core/PositionRaw.h">
<polygon fill="none" stroke="#000000" points="667,-168.5 667,-187.5 823,-187.5 823,-168.5 667,-168.5"/>
<text text-anchor="middle" x="745" y="-175.5" font-family="FreeSans.ttf" font-size="10.00" fill="#000000">iDynTree/Core/PositionRaw.h</text>
</a>
</g>
</g>
<!-- Node25&#45;&gt;Node26 -->
<g id="edge32" class="edge">
<title>Node25&#45;&gt;Node26</title>
<path fill="none" stroke="#191970" d="M745,-280.4509C745,-262.184 745,-221.9553 745,-197.6976"/>
<polygon fill="#191970" stroke="#191970" points="748.5001,-197.5249 745,-187.5249 741.5001,-197.5249 748.5001,-197.5249"/>
</g>
<!-- Node25&#45;&gt;Node27 -->
<g id="edge35" class="edge">
<title>Node25&#45;&gt;Node27</title>
<path fill="none" stroke="#191970" d="M772.505,-280.3733C798.8802,-271.1419 838.8851,-257.1402 868.0358,-246.9375"/>
<polygon fill="#191970" stroke="#191970" points="869.5716,-250.1082 877.8539,-243.5011 867.2591,-243.5012 869.5716,-250.1082"/>
</g>
<!-- Node26&#45;&gt;Node5 -->
<g id="edge34" class="edge">
<title>Node26&#45;&gt;Node5</title>
<path fill="none" stroke="#191970" d="M734.3426,-168.4509C712.9406,-149.2747 664.5271,-105.8962 638.079,-82.1988"/>
<polygon fill="#191970" stroke="#191970" points="640.4138,-79.5914 630.6305,-75.5249 635.7426,-84.8048 640.4138,-79.5914"/>
</g>
<!-- Node26&#45;&gt;Node9 -->
<g id="edge33" class="edge">
<title>Node26&#45;&gt;Node9</title>
<path fill="none" stroke="#191970" d="M818.7726,-168.4369C895.0359,-158.5509 1013.8811,-143.145 1093.5331,-132.8198"/>
<polygon fill="#191970" stroke="#191970" points="1094.0646,-136.2803 1103.5317,-131.5237 1093.1647,-129.3383 1094.0646,-136.2803"/>
</g>
<!-- Node27&#45;&gt;Node5 -->
<g id="edge36" class="edge">
<title>Node27&#45;&gt;Node5</title>
<path fill="none" stroke="#191970" d="M895.8286,-224.0772C882.6737,-210.2461 857.2409,-184.9646 832,-168 772.2466,-127.8392 694.2697,-94.6254 651.4943,-77.8322"/>
<polygon fill="#191970" stroke="#191970" points="652.7533,-74.5665 642.1644,-74.2113 650.2206,-81.0923 652.7533,-74.5665"/>
</g>
<!-- Node27&#45;&gt;Node9 -->
<g id="edge48" class="edge">
<title>Node27&#45;&gt;Node9</title>
<path fill="none" stroke="#191970" d="M973.7804,-230.97C1082.1117,-225.4843 1282.4544,-212.1723 1304,-188 1327.545,-161.5845 1285.5953,-144.1344 1243.7316,-133.8492"/>
<polygon fill="#191970" stroke="#191970" points="1244.5148,-130.4381 1233.9812,-131.5753 1242.9249,-137.2551 1244.5148,-130.4381"/>
</g>
<!-- Node28 -->
<g id="node29" class="node">
<title>Node28</title>
<g id="a_node29"><a xlink:href="GeomVector3_8h.html" target="_top" xlink:title="iDynTree/Core/GeomVector3.h">
<polygon fill="none" stroke="#000000" points="1131.5,-168.5 1131.5,-187.5 1294.5,-187.5 1294.5,-168.5 1131.5,-168.5"/>
<text text-anchor="middle" x="1213" y="-175.5" font-family="FreeSans.ttf" font-size="10.00" fill="#000000">iDynTree/Core/GeomVector3.h</text>
</a>
</g>
</g>
<!-- Node27&#45;&gt;Node28 -->
<g id="edge37" class="edge">
<title>Node27&#45;&gt;Node28</title>
<path fill="none" stroke="#191970" d="M957.5971,-224.4369C1011.0841,-214.712 1093.9492,-199.6456 1150.6933,-189.3285"/>
<polygon fill="#191970" stroke="#191970" points="1151.4072,-192.7562 1160.6198,-187.5237 1150.155,-185.8691 1151.4072,-192.7562"/>
</g>
<!-- Node29 -->
<g id="node30" class="node">
<title>Node29</title>
<g id="a_node30"><a xlink:href="RotationRaw_8h.html" target="_top" xlink:title="iDynTree/Core/RotationRaw.h">
<polygon fill="none" stroke="#000000" points="879,-168.5 879,-187.5 1037,-187.5 1037,-168.5 879,-168.5"/>
<text text-anchor="middle" x="958" y="-175.5" font-family="FreeSans.ttf" font-size="10.00" fill="#000000">iDynTree/Core/RotationRaw.h</text>
</a>
</g>
</g>
<!-- Node27&#45;&gt;Node29 -->
<g id="edge39" class="edge">
<title>Node27&#45;&gt;Node29</title>
<path fill="none" stroke="#191970" d="M914.2319,-224.2455C921.8317,-216.2155 932.7877,-204.6394 941.8368,-195.0781"/>
<polygon fill="#191970" stroke="#191970" points="944.5421,-197.3115 948.8739,-187.6427 939.458,-192.4998 944.5421,-197.3115"/>
</g>
<!-- Node28&#45;&gt;Node9 -->
<g id="edge38" class="edge">
<title>Node28&#45;&gt;Node9</title>
<path fill="none" stroke="#191970" d="M1206.7293,-168.2455C1201.7736,-160.5367 1194.717,-149.5598 1188.7224,-140.2348"/>
<polygon fill="#191970" stroke="#191970" points="1191.5506,-138.1618 1183.1989,-131.6427 1185.6624,-141.9471 1191.5506,-138.1618"/>
</g>
<!-- Node29&#45;&gt;Node5 -->
<g id="edge47" class="edge">
<title>Node29&#45;&gt;Node5</title>
<path fill="none" stroke="#191970" d="M947.762,-168.4137C931.5439,-153.7992 898.3515,-126.1556 865,-112 792.963,-81.4249 700.4559,-71.0925 652.3374,-67.6607"/>
<polygon fill="#191970" stroke="#191970" points="652.4176,-64.1585 642.2095,-66.9947 651.9583,-71.1434 652.4176,-64.1585"/>
</g>
<!-- Node29&#45;&gt;Node30 -->
<g id="edge40" class="edge">
<title>Node29&#45;&gt;Node30</title>
<path fill="none" stroke="#191970" d="M964.9675,-168.2455C970.5311,-160.4564 978.478,-149.3308 985.1829,-139.9439"/>
<polygon fill="#191970" stroke="#191970" points="988.148,-141.8144 991.1124,-131.6427 982.4519,-137.7457 988.148,-141.8144"/>
</g>
<!-- Node30&#45;&gt;Node5 -->
<g id="edge44" class="edge">
<title>Node30&#45;&gt;Node5</title>
<path fill="none" stroke="#191970" d="M933.449,-112.4369C851.7235,-100.3294 714.1123,-79.9426 652.0564,-70.7491"/>
<polygon fill="#191970" stroke="#191970" points="652.4754,-67.2731 642.0704,-69.2697 651.4495,-74.1975 652.4754,-67.2731"/>
</g>
<!-- Node30&#45;&gt;Node10 -->
<g id="edge41" class="edge">
<title>Node30&#45;&gt;Node10</title>
<path fill="none" stroke="#191970" d="M1043.5956,-112.4369C1089.5785,-102.7925 1160.6088,-87.8948 1209.7606,-77.5858"/>
<polygon fill="#191970" stroke="#191970" points="1210.5239,-81.0019 1219.5925,-75.5237 1209.087,-74.151 1210.5239,-81.0019"/>
</g>
<!-- Node30&#45;&gt;Node14 -->
<g id="edge42" class="edge">
<title>Node30&#45;&gt;Node14</title>
<path fill="none" stroke="#191970" d="M998.3624,-112.4768C999.3426,-98.6756 1002.9331,-72.92 1016,-56 1027.2722,-41.404 1044.5819,-30.6337 1060.2206,-23.1998"/>
<polygon fill="#191970" stroke="#191970" points="1061.957,-26.2582 1069.6731,-18.9978 1059.1135,-19.8617 1061.957,-26.2582"/>
</g>
<!-- Node30&#45;&gt;Node22 -->
<g id="edge46" class="edge">
<title>Node30&#45;&gt;Node22</title>
<path fill="none" stroke="#191970" d="M1019.1445,-112.3733C1038.8892,-103.3838 1068.5698,-89.8706 1090.8055,-79.7471"/>
<polygon fill="#191970" stroke="#191970" points="1092.4806,-82.8302 1100.1315,-75.5011 1089.58,-76.4594 1092.4806,-82.8302"/>
</g>
<!-- Node30&#45;&gt;Node23 -->
<g id="edge43" class="edge">
<title>Node30&#45;&gt;Node23</title>
<path fill="none" stroke="#191970" d="M1007.0577,-112.2455C1014.5142,-104.2155 1025.2634,-92.6394 1034.1417,-83.0781"/>
<polygon fill="#191970" stroke="#191970" points="1036.8063,-85.3522 1041.0461,-75.6427 1031.6768,-80.589 1036.8063,-85.3522"/>
</g>
<!-- Node31 -->
<g id="node32" class="node">
<title>Node31</title>
<polygon fill="none" stroke="#bfbfbf" points="909,-56.5 909,-75.5 969,-75.5 969,-56.5 909,-56.5"/>
<text text-anchor="middle" x="939" y="-63.5" font-family="FreeSans.ttf" font-size="10.00" fill="#000000">iostream</text>
</g>
<!-- Node30&#45;&gt;Node31 -->
<g id="edge45" class="edge">
<title>Node30&#45;&gt;Node31</title>
<path fill="none" stroke="#191970" d="M987.723,-112.2455C979.1782,-104.1352 966.8222,-92.4075 956.6915,-82.7919"/>
<polygon fill="#191970" stroke="#191970" points="958.8218,-79.9884 949.1592,-75.6427 954.0028,-85.0655 958.8218,-79.9884"/>
</g>
<!-- Node32&#45;&gt;Node5 -->
<g id="edge55" class="edge">
<title>Node32&#45;&gt;Node5</title>
<path fill="none" stroke="#191970" d="M621.2788,-392.4689C613.6085,-383.6183 602.6568,-369.7687 596,-356 571.5505,-305.4294 563,-290.1708 563,-234 563,-234 563,-234 563,-178 563,-141.1826 587.7675,-104.2377 604.6501,-83.3313"/>
<polygon fill="#191970" stroke="#191970" points="607.3511,-85.5574 611.0938,-75.6456 601.9869,-81.06 607.3511,-85.5574"/>
</g>
<!-- Node32&#45;&gt;Node7 -->
<g id="edge56" class="edge">
<title>Node32&#45;&gt;Node7</title>
<path fill="none" stroke="#191970" d="M614.5309,-392.4756C599.9882,-383.4053 577.7177,-369.2144 559,-356 535.9566,-339.7317 510.4181,-319.8904 493.2042,-306.2357"/>
<polygon fill="#191970" stroke="#191970" points="495.0198,-303.2071 485.0185,-299.7107 490.6566,-308.6809 495.0198,-303.2071"/>
</g>
<!-- Node32&#45;&gt;Node24 -->
<g id="edge57" class="edge">
<title>Node32&#45;&gt;Node24</title>
<path fill="none" stroke="#191970" d="M649.7692,-392.3733C668.1469,-383.4241 695.7312,-369.9917 716.4893,-359.8835"/>
<polygon fill="#191970" stroke="#191970" points="718.0304,-363.026 725.4888,-355.5011 714.9657,-356.7325 718.0304,-363.026"/>
</g>
<!-- Node33 -->
<g id="node34" class="node">
<title>Node33</title>
<polygon fill="none" stroke="#bfbfbf" points="604.5,-336.5 604.5,-355.5 653.5,-355.5 653.5,-336.5 604.5,-336.5"/>
<text text-anchor="middle" x="629" y="-343.5" font-family="FreeSans.ttf" font-size="10.00" fill="#000000">cstdlib</text>
</g>
<!-- Node32&#45;&gt;Node33 -->
<g id="edge54" class="edge">
<title>Node32&#45;&gt;Node33</title>
<path fill="none" stroke="#191970" d="M629.8258,-392.2455C629.6953,-384.9382 629.5124,-374.6944 629.3519,-365.7046"/>
<polygon fill="#191970" stroke="#191970" points="632.8503,-365.5786 629.1722,-355.6427 625.8514,-365.7036 632.8503,-365.5786"/>
</g>
<!-- Node34&#45;&gt;Node2 -->
<g id="edge63" class="edge">
<title>Node34&#45;&gt;Node2</title>
<path fill="none" stroke="#191970" d="M199.2789,-448.4509C201.7254,-430.184 207.1131,-389.9553 210.3619,-365.6976"/>
<polygon fill="#191970" stroke="#191970" points="213.8659,-365.901 211.7243,-355.5249 206.9278,-364.9718 213.8659,-365.901"/>
</g>
<!-- Node35&#45;&gt;Node2 -->
<g id="edge66" class="edge">
<title>Node35&#45;&gt;Node2</title>
<path fill="none" stroke="#191970" d="M99.5511,-392.3733C121.8391,-383.2629 155.4937,-369.5062 180.3637,-359.3404"/>
<polygon fill="#191970" stroke="#191970" points="181.8239,-362.5247 189.7562,-355.5011 179.1753,-356.0451 181.8239,-362.5247"/>
</g>
<!-- Node35&#45;&gt;Node6 -->
<g id="edge67" class="edge">
<title>Node35&#45;&gt;Node6</title>
<path fill="none" stroke="#191970" d="M76.7673,-392.4509C78.2352,-374.184 81.4679,-333.9553 83.4172,-309.6976"/>
<polygon fill="#191970" stroke="#191970" points="86.9223,-309.7731 84.2346,-299.5249 79.9448,-309.2124 86.9223,-309.7731"/>
</g>
<!-- Node36&#45;&gt;Node5 -->
<g id="edge69" class="edge">
<title>Node36&#45;&gt;Node5</title>
<path fill="none" stroke="#191970" d="M81.6662,-224.2478C103.5884,-200.315 164.1383,-138.6924 229,-112 293.8768,-85.3014 506.128,-71.8423 587.6809,-67.5573"/>
<polygon fill="#191970" stroke="#191970" points="588.0427,-71.0434 597.8501,-67.0353 587.6837,-64.0526 588.0427,-71.0434"/>
</g>
</g>
</svg>
