<?xml version="1.0" encoding="UTF-8" standalone="no"?>
<!DOCTYPE svg PUBLIC "-//W3C//DTD SVG 1.1//EN"
 "http://www.w3.org/Graphics/SVG/1.1/DTD/svg11.dtd">
<!-- Generated by graphviz version 2.40.1 (20161225.0304)
 -->
<!-- Title: YARPConversions.cpp Pages: 1 -->
<svg width="1136pt" height="599pt"
 viewBox="0.00 0.00 1135.50 599.00" xmlns="http://www.w3.org/2000/svg" xmlns:xlink="http://www.w3.org/1999/xlink">
<g id="graph0" class="graph" transform="scale(1 1) rotate(0) translate(4 595)">
<title>YARPConversions.cpp</title>
<!-- Node0 -->
<g id="node1" class="node">
<title>Node0</title>
<polygon fill="#bfbfbf" stroke="#000000" points="776,-571.5 776,-590.5 898,-590.5 898,-571.5 776,-571.5"/>
<text text-anchor="middle" x="837" y="-578.5" font-family="FreeSans.ttf" font-size="10.00" fill="#000000">YARPConversions.cpp</text>
</g>
<!-- Node1 -->
<g id="node2" class="node">
<title>Node1</title>
<g id="a_node2"><a xlink:href="YARPConversions_8h.html" target="_top" xlink:title="iDynTree/yarp/YARPConversions.h">
<polygon fill="none" stroke="#000000" points="641.5,-515.5 641.5,-534.5 822.5,-534.5 822.5,-515.5 641.5,-515.5"/>
<text text-anchor="middle" x="732" y="-522.5" font-family="FreeSans.ttf" font-size="10.00" fill="#000000">iDynTree/yarp/YARPConversions.h</text>
</a>
</g>
</g>
<!-- Node0&#45;&gt;Node1 -->
<g id="edge1" class="edge">
<title>Node0&#45;&gt;Node1</title>
<path fill="none" stroke="#191970" d="M818.7104,-571.2455C802.2238,-562.4527 777.7648,-549.4079 759.0235,-539.4125"/>
<polygon fill="#191970" stroke="#191970" points="760.5506,-536.2604 750.08,-534.6427 757.2565,-542.4368 760.5506,-536.2604"/>
</g>
<!-- Node21 -->
<g id="node22" class="node">
<title>Node21</title>
<polygon fill="none" stroke="#bfbfbf" points="672,-56.5 672,-75.5 722,-75.5 722,-56.5 672,-56.5"/>
<text text-anchor="middle" x="697" y="-63.5" font-family="FreeSans.ttf" font-size="10.00" fill="#000000">cstring</text>
</g>
<!-- Node0&#45;&gt;Node21 -->
<g id="edge63" class="edge">
<title>Node0&#45;&gt;Node21</title>
<path fill="none" stroke="#191970" d="M877.1224,-571.4961C924.2249,-557.6709 996,-527.0758 996,-469 996,-469 996,-469 996,-234 996,-203.4754 997.7127,-190.4218 977,-168 942.857,-131.0396 798.9466,-91.3582 731.7882,-74.4291"/>
<polygon fill="#191970" stroke="#191970" points="732.6275,-71.0313 722.0776,-72.0053 730.9323,-77.8229 732.6275,-71.0313"/>
</g>
<!-- Node30 -->
<g id="node31" class="node">
<title>Node30</title>
<g id="a_node31"><a xlink:href="Direction_8h.html" target="_top" xlink:title="iDynTree/Core/Direction.h">
<polygon fill="none" stroke="#000000" points="826.5,-168.5 826.5,-187.5 967.5,-187.5 967.5,-168.5 826.5,-168.5"/>
<text text-anchor="middle" x="897" y="-175.5" font-family="FreeSans.ttf" font-size="10.00" fill="#000000">iDynTree/Core/Direction.h</text>
</a>
</g>
</g>
<!-- Node0&#45;&gt;Node30 -->
<g id="edge50" class="edge">
<title>Node0&#45;&gt;Node30</title>
<path fill="none" stroke="#191970" d="M846.375,-571.4412C863.25,-553.1765 897,-511.353 897,-469 897,-469 897,-469 897,-290 897,-257.7116 897,-220.1872 897,-197.8048"/>
<polygon fill="#191970" stroke="#191970" points="900.5001,-197.5883 897,-187.5884 893.5001,-197.5884 900.5001,-197.5883"/>
</g>
<!-- Node31 -->
<g id="node32" class="node">
<title>Node31</title>
<g id="a_node32"><a xlink:href="Transform_8h.html" target="_top" xlink:title="iDynTree/Core/Transform.h">
<polygon fill="none" stroke="#000000" points="163,-336.5 163,-355.5 309,-355.5 309,-336.5 163,-336.5"/>
<text text-anchor="middle" x="236" y="-343.5" font-family="FreeSans.ttf" font-size="10.00" fill="#000000">iDynTree/Core/Transform.h</text>
</a>
</g>
</g>
<!-- Node0&#45;&gt;Node31 -->
<g id="edge54" class="edge">
<title>Node0&#45;&gt;Node31</title>
<path fill="none" stroke="#191970" d="M783.27,-571.4592C741.5412,-563.4479 682.478,-550.7871 632,-535 484.3102,-488.8098 321.6699,-396.9237 260.794,-360.9423"/>
<polygon fill="#191970" stroke="#191970" points="262.2996,-357.7655 251.9155,-355.663 258.722,-363.7823 262.2996,-357.7655"/>
</g>
<!-- Node32 -->
<g id="node33" class="node">
<title>Node32</title>
<g id="a_node33"><a xlink:href="VectorDynSize_8h.html" target="_top" xlink:title="iDynTree/Core/VectorDynSize.h">
<polygon fill="none" stroke="#000000" points="103.5,-112.5 103.5,-131.5 270.5,-131.5 270.5,-112.5 103.5,-112.5"/>
<text text-anchor="middle" x="187" y="-119.5" font-family="FreeSans.ttf" font-size="10.00" fill="#000000">iDynTree/Core/VectorDynSize.h</text>
</a>
</g>
</g>
<!-- Node0&#45;&gt;Node32 -->
<g id="edge59" class="edge">
<title>Node0&#45;&gt;Node32</title>
<path fill="none" stroke="#191970" d="M775.7925,-579.2457C582.8404,-572.9114 0,-547.2977 0,-469 0,-469 0,-469 0,-234 0,-176.4648 65.957,-147.7657 119.5279,-133.9448"/>
<polygon fill="#191970" stroke="#191970" points="120.4883,-137.3131 129.368,-131.5336 118.8223,-130.5142 120.4883,-137.3131"/>
</g>
<!-- Node33 -->
<g id="node34" class="node">
<title>Node33</title>
<polygon fill="none" stroke="#bfbfbf" points="1024.5,-515.5 1024.5,-534.5 1127.5,-534.5 1127.5,-515.5 1024.5,-515.5"/>
<text text-anchor="middle" x="1076" y="-522.5" font-family="FreeSans.ttf" font-size="10.00" fill="#000000">yarp/math/Math.h</text>
</g>
<!-- Node0&#45;&gt;Node33 -->
<g id="edge62" class="edge">
<title>Node0&#45;&gt;Node33</title>
<path fill="none" stroke="#191970" d="M877.814,-571.4369C918.6311,-561.8731 981.4959,-547.1432 1025.4472,-536.845"/>
<polygon fill="#191970" stroke="#191970" points="1026.4165,-540.2128 1035.3543,-534.5237 1024.8195,-533.3973 1026.4165,-540.2128"/>
</g>
<!-- Node2 -->
<g id="node3" class="node">
<title>Node2</title>
<polygon fill="none" stroke="#bfbfbf" points="503,-459.5 503,-478.5 601,-478.5 601,-459.5 503,-459.5"/>
<text text-anchor="middle" x="552" y="-466.5" font-family="FreeSans.ttf" font-size="10.00" fill="#000000">yarp/sig/Matrix.h</text>
</g>
<!-- Node1&#45;&gt;Node2 -->
<g id="edge2" class="edge">
<title>Node1&#45;&gt;Node2</title>
<path fill="none" stroke="#191970" d="M701.0569,-515.3733C670.9961,-506.021 625.1974,-491.7725 592.3022,-481.5385"/>
<polygon fill="#191970" stroke="#191970" points="593.1277,-478.1299 582.5393,-478.5011 591.0481,-484.8139 593.1277,-478.1299"/>
</g>
<!-- Node3 -->
<g id="node4" class="node">
<title>Node3</title>
<polygon fill="none" stroke="#bfbfbf" points="771,-459.5 771,-478.5 869,-478.5 869,-459.5 771,-459.5"/>
<text text-anchor="middle" x="820" y="-466.5" font-family="FreeSans.ttf" font-size="10.00" fill="#000000">yarp/sig/Vector.h</text>
</g>
<!-- Node1&#45;&gt;Node3 -->
<g id="edge3" class="edge">
<title>Node1&#45;&gt;Node3</title>
<path fill="none" stroke="#191970" d="M747.3284,-515.2455C760.8303,-506.6534 780.7122,-494.0014 796.2686,-484.1018"/>
<polygon fill="#191970" stroke="#191970" points="798.2897,-486.9643 804.8472,-478.6427 794.5315,-481.0587 798.2897,-486.9643"/>
</g>
<!-- Node4 -->
<g id="node5" class="node">
<title>Node4</title>
<g id="a_node5"><a xlink:href="Wrench_8h.html" target="_top" xlink:title="iDynTree/Core/Wrench.h">
<polygon fill="none" stroke="#000000" points="619.5,-459.5 619.5,-478.5 752.5,-478.5 752.5,-459.5 619.5,-459.5"/>
<text text-anchor="middle" x="686" y="-466.5" font-family="FreeSans.ttf" font-size="10.00" fill="#000000">iDynTree/Core/Wrench.h</text>
</a>
</g>
</g>
<!-- Node1&#45;&gt;Node4 -->
<g id="edge4" class="edge">
<title>Node1&#45;&gt;Node4</title>
<path fill="none" stroke="#191970" d="M723.9874,-515.2455C717.5232,-507.3761 708.2615,-496.101 700.5017,-486.6542"/>
<polygon fill="#191970" stroke="#191970" points="702.9727,-484.1484 693.9208,-478.6427 697.5636,-488.5916 702.9727,-484.1484"/>
</g>
<!-- Node5 -->
<g id="node6" class="node">
<title>Node5</title>
<g id="a_node6"><a xlink:href="SpatialForceVector_8h.html" target="_top" xlink:title="iDynTree/Core/SpatialForce\lVector.h">
<polygon fill="none" stroke="#000000" points="612,-392.5 612,-422.5 760,-422.5 760,-392.5 612,-392.5"/>
<text text-anchor="start" x="620" y="-410.5" font-family="FreeSans.ttf" font-size="10.00" fill="#000000">iDynTree/Core/SpatialForce</text>
<text text-anchor="middle" x="686" y="-399.5" font-family="FreeSans.ttf" font-size="10.00" fill="#000000">Vector.h</text>
</a>
</g>
</g>
<!-- Node4&#45;&gt;Node5 -->
<g id="edge5" class="edge">
<title>Node4&#45;&gt;Node5</title>
<path fill="none" stroke="#191970" d="M686,-459.3906C686,-452.2234 686,-442.0862 686,-432.671"/>
<polygon fill="#191970" stroke="#191970" points="689.5001,-432.5446 686,-422.5446 682.5001,-432.5446 689.5001,-432.5446"/>
</g>
<!-- Node6 -->
<g id="node7" class="node">
<title>Node6</title>
<g id="a_node7"><a xlink:href="VectorFixSize_8h.html" target="_top" xlink:title="iDynTree/Core/VectorFixSize.h">
<polygon fill="none" stroke="#000000" points="658.5,-112.5 658.5,-131.5 819.5,-131.5 819.5,-112.5 658.5,-112.5"/>
<text text-anchor="middle" x="739" y="-119.5" font-family="FreeSans.ttf" font-size="10.00" fill="#000000">iDynTree/Core/VectorFixSize.h</text>
</a>
</g>
</g>
<!-- Node5&#45;&gt;Node6 -->
<g id="edge6" class="edge">
<title>Node5&#45;&gt;Node6</title>
<path fill="none" stroke="#191970" d="M716.3088,-392.3456C749.4781,-373.3661 798,-337.4865 798,-290 798,-290 798,-290 798,-234 798,-203.3494 792.6606,-194.917 778,-168 772.2909,-157.518 763.9327,-147.2496 756.4168,-139.0832"/>
<polygon fill="#191970" stroke="#191970" points="758.7632,-136.4735 749.311,-131.6873 753.7154,-141.3233 758.7632,-136.4735"/>
</g>
<!-- Node22 -->
<g id="node23" class="node">
<title>Node22</title>
<g id="a_node23"><a xlink:href="GeomVector3_8h.html" target="_top" xlink:title="iDynTree/Core/GeomVector3.h">
<polygon fill="none" stroke="#000000" points="606.5,-168.5 606.5,-187.5 769.5,-187.5 769.5,-168.5 606.5,-168.5"/>
<text text-anchor="middle" x="688" y="-175.5" font-family="FreeSans.ttf" font-size="10.00" fill="#000000">iDynTree/Core/GeomVector3.h</text>
</a>
</g>
</g>
<!-- Node5&#45;&gt;Node22 -->
<g id="edge24" class="edge">
<title>Node5&#45;&gt;Node22</title>
<path fill="none" stroke="#191970" d="M686.1312,-392.4419C686.4805,-352.3599 687.4331,-243.0534 687.8265,-197.9113"/>
<polygon fill="#191970" stroke="#191970" points="691.3264,-197.9283 687.9137,-187.8981 684.3266,-197.8672 691.3264,-197.9283"/>
</g>
<!-- Node23 -->
<g id="node24" class="node">
<title>Node23</title>
<g id="a_node24"><a xlink:href="SpatialVector_8h.html" target="_top" xlink:title="iDynTree/Core/SpatialVector.h">
<polygon fill="none" stroke="#000000" points="459.5,-336.5 459.5,-355.5 620.5,-355.5 620.5,-336.5 459.5,-336.5"/>
<text text-anchor="middle" x="540" y="-343.5" font-family="FreeSans.ttf" font-size="10.00" fill="#000000">iDynTree/Core/SpatialVector.h</text>
</a>
</g>
</g>
<!-- Node5&#45;&gt;Node23 -->
<g id="edge26" class="edge">
<title>Node5&#45;&gt;Node23</title>
<path fill="none" stroke="#191970" d="M650.2844,-392.4554C626.3513,-382.374 595.1095,-369.2139 571.9906,-359.4755"/>
<polygon fill="#191970" stroke="#191970" points="573.1993,-356.1868 562.6248,-355.5303 570.4819,-362.6379 573.1993,-356.1868"/>
</g>
<!-- Node7 -->
<g id="node8" class="node">
<title>Node7</title>
<g id="a_node8"><a xlink:href="Utils_8h.html" target="_top" xlink:title="iDynTree/Core/Utils.h">
<polygon fill="none" stroke="#000000" points="778.5,-56.5 778.5,-75.5 897.5,-75.5 897.5,-56.5 778.5,-56.5"/>
<text text-anchor="middle" x="838" y="-63.5" font-family="FreeSans.ttf" font-size="10.00" fill="#000000">iDynTree/Core/Utils.h</text>
</a>
</g>
</g>
<!-- Node6&#45;&gt;Node7 -->
<g id="edge7" class="edge">
<title>Node6&#45;&gt;Node7</title>
<path fill="none" stroke="#191970" d="M756.2445,-112.2455C771.5761,-103.5731 794.2199,-90.7645 811.7916,-80.825"/>
<polygon fill="#191970" stroke="#191970" points="813.9724,-83.6126 820.9531,-75.6427 810.5259,-77.5198 813.9724,-83.6126"/>
</g>
<!-- Node10 -->
<g id="node11" class="node">
<title>Node10</title>
<g id="a_node11"><a xlink:href="Span_8h.html" target="_top" xlink:title="iDynTree/Core/Span.h">
<polygon fill="none" stroke="#000000" points="342.5,-56.5 342.5,-75.5 463.5,-75.5 463.5,-56.5 342.5,-56.5"/>
<text text-anchor="middle" x="403" y="-63.5" font-family="FreeSans.ttf" font-size="10.00" fill="#000000">iDynTree/Core/Span.h</text>
</a>
</g>
</g>
<!-- Node6&#45;&gt;Node10 -->
<g id="edge10" class="edge">
<title>Node6&#45;&gt;Node10</title>
<path fill="none" stroke="#191970" d="M681.6213,-112.4369C623.0303,-102.6717 532.1244,-87.5207 470.2034,-77.2006"/>
<polygon fill="#191970" stroke="#191970" points="470.5814,-73.7154 460.142,-75.5237 469.4305,-80.6201 470.5814,-73.7154"/>
</g>
<!-- Node11 -->
<g id="node12" class="node">
<title>Node11</title>
<polygon fill="none" stroke="#bfbfbf" points="612,-.5 612,-19.5 664,-19.5 664,-.5 612,-.5"/>
<text text-anchor="middle" x="638" y="-7.5" font-family="FreeSans.ttf" font-size="10.00" fill="#000000">cassert</text>
</g>
<!-- Node6&#45;&gt;Node11 -->
<g id="edge22" class="edge">
<title>Node6&#45;&gt;Node11</title>
<path fill="none" stroke="#191970" d="M740.4775,-112.4865C742.0828,-98.6975 743.0045,-72.9568 731,-56 717.5553,-37.009 693.9997,-25.4712 673.9602,-18.7003"/>
<polygon fill="#191970" stroke="#191970" points="674.758,-15.2833 664.17,-15.6638 672.6843,-21.9691 674.758,-15.2833"/>
</g>
<!-- Node19 -->
<g id="node20" class="node">
<title>Node19</title>
<polygon fill="none" stroke="#bfbfbf" points="276,-56.5 276,-75.5 320,-75.5 320,-56.5 276,-56.5"/>
<text text-anchor="middle" x="298" y="-63.5" font-family="FreeSans.ttf" font-size="10.00" fill="#000000">string</text>
</g>
<!-- Node6&#45;&gt;Node19 -->
<g id="edge20" class="edge">
<title>Node6&#45;&gt;Node19</title>
<path fill="none" stroke="#191970" d="M658.4889,-114.4728C558.3926,-104.8361 393.365,-87.9578 333,-76 331.9462,-75.7912 330.8779,-75.5661 329.8019,-75.3277"/>
<polygon fill="#191970" stroke="#191970" points="330.6328,-71.9278 320.0833,-72.9071 328.941,-78.7203 330.6328,-71.9278"/>
</g>
<!-- Node20 -->
<g id="node21" class="node">
<title>Node20</title>
<polygon fill="none" stroke="#bfbfbf" points="598,-56.5 598,-75.5 654,-75.5 654,-56.5 598,-56.5"/>
<text text-anchor="middle" x="626" y="-63.5" font-family="FreeSans.ttf" font-size="10.00" fill="#000000">sstream</text>
</g>
<!-- Node6&#45;&gt;Node20 -->
<g id="edge21" class="edge">
<title>Node6&#45;&gt;Node20</title>
<path fill="none" stroke="#191970" d="M719.5746,-112.3733C701.5979,-103.4644 674.6559,-90.1127 654.291,-80.0203"/>
<polygon fill="#191970" stroke="#191970" points="655.6861,-76.8055 645.1719,-75.5011 652.5778,-83.0776 655.6861,-76.8055"/>
</g>
<!-- Node6&#45;&gt;Node21 -->
<g id="edge23" class="edge">
<title>Node6&#45;&gt;Node21</title>
<path fill="none" stroke="#191970" d="M731.6842,-112.2455C725.7821,-104.3761 717.3258,-93.101 710.2406,-83.6542"/>
<polygon fill="#191970" stroke="#191970" points="713.0321,-81.5427 704.232,-75.6427 707.432,-85.7427 713.0321,-81.5427"/>
</g>
<!-- Node8 -->
<g id="node9" class="node">
<title>Node8</title>
<polygon fill="none" stroke="#bfbfbf" points="722.5,-.5 722.5,-19.5 775.5,-19.5 775.5,-.5 722.5,-.5"/>
<text text-anchor="middle" x="749" y="-7.5" font-family="FreeSans.ttf" font-size="10.00" fill="#000000">cstddef</text>
</g>
<!-- Node7&#45;&gt;Node8 -->
<g id="edge8" class="edge">
<title>Node7&#45;&gt;Node8</title>
<path fill="none" stroke="#191970" d="M822.4974,-56.2455C808.842,-47.6534 788.7343,-35.0014 773.0011,-25.1018"/>
<polygon fill="#191970" stroke="#191970" points="774.6529,-22.006 764.325,-19.6427 770.9249,-27.9307 774.6529,-22.006"/>
</g>
<!-- Node9 -->
<g id="node10" class="node">
<title>Node9</title>
<polygon fill="none" stroke="#bfbfbf" points="798,-.5 798,-19.5 878,-19.5 878,-.5 798,-.5"/>
<text text-anchor="middle" x="838" y="-7.5" font-family="FreeSans.ttf" font-size="10.00" fill="#000000">CoreExport.h</text>
</g>
<!-- Node7&#45;&gt;Node9 -->
<g id="edge9" class="edge">
<title>Node7&#45;&gt;Node9</title>
<path fill="none" stroke="#191970" d="M838,-56.2455C838,-48.9382 838,-38.6944 838,-29.7046"/>
<polygon fill="#191970" stroke="#191970" points="841.5001,-29.6426 838,-19.6427 834.5001,-29.6427 841.5001,-29.6426"/>
</g>
<!-- Node10&#45;&gt;Node8 -->
<g id="edge14" class="edge">
<title>Node10&#45;&gt;Node8</title>
<path fill="none" stroke="#191970" d="M462.0864,-56.4369C533.8255,-44.8259 652.6095,-25.6008 712.3283,-15.9353"/>
<polygon fill="#191970" stroke="#191970" points="713.111,-19.3542 722.4234,-14.3014 711.9926,-12.4442 713.111,-19.3542"/>
</g>
<!-- Node10&#45;&gt;Node11 -->
<g id="edge11" class="edge">
<title>Node10&#45;&gt;Node11</title>
<path fill="none" stroke="#191970" d="M447.6454,-56.4317C486.1412,-48.0242 543.4303,-35.1392 601.8948,-20.1973"/>
<polygon fill="#191970" stroke="#191970" points="602.8544,-23.5645 611.6669,-17.6831 601.1102,-16.7852 602.8544,-23.5645"/>
</g>
<!-- Node12 -->
<g id="node13" class="node">
<title>Node12</title>
<polygon fill="none" stroke="#bfbfbf" points="336,-.5 336,-19.5 400,-19.5 400,-.5 336,-.5"/>
<text text-anchor="middle" x="368" y="-7.5" font-family="FreeSans.ttf" font-size="10.00" fill="#000000">algorithm</text>
</g>
<!-- Node10&#45;&gt;Node12 -->
<g id="edge12" class="edge">
<title>Node10&#45;&gt;Node12</title>
<path fill="none" stroke="#191970" d="M396.9035,-56.2455C392.0855,-48.5367 385.2249,-37.5598 379.3968,-28.2348"/>
<polygon fill="#191970" stroke="#191970" points="382.2947,-26.2677 374.0267,-19.6427 376.3587,-29.9777 382.2947,-26.2677"/>
</g>
<!-- Node13 -->
<g id="node14" class="node">
<title>Node13</title>
<polygon fill="none" stroke="#bfbfbf" points="418,-.5 418,-19.5 460,-19.5 460,-.5 418,-.5"/>
<text text-anchor="middle" x="439" y="-7.5" font-family="FreeSans.ttf" font-size="10.00" fill="#000000">array</text>
</g>
<!-- Node10&#45;&gt;Node13 -->
<g id="edge13" class="edge">
<title>Node10&#45;&gt;Node13</title>
<path fill="none" stroke="#191970" d="M409.2707,-56.2455C414.2264,-48.5367 421.283,-37.5598 427.2776,-28.2348"/>
<polygon fill="#191970" stroke="#191970" points="430.3376,-29.9471 432.8011,-19.6427 424.4494,-26.1618 430.3376,-29.9471"/>
</g>
<!-- Node14 -->
<g id="node15" class="node">
<title>Node14</title>
<polygon fill="none" stroke="#bfbfbf" points="478.5,-.5 478.5,-19.5 531.5,-19.5 531.5,-.5 478.5,-.5"/>
<text text-anchor="middle" x="505" y="-7.5" font-family="FreeSans.ttf" font-size="10.00" fill="#000000">iterator</text>
</g>
<!-- Node10&#45;&gt;Node14 -->
<g id="edge15" class="edge">
<title>Node10&#45;&gt;Node14</title>
<path fill="none" stroke="#191970" d="M420.767,-56.2455C436.7095,-47.4928 460.3259,-34.527 478.4989,-24.5496"/>
<polygon fill="#191970" stroke="#191970" points="480.3552,-27.5233 487.4366,-19.6427 476.9863,-21.3873 480.3552,-27.5233"/>
</g>
<!-- Node15 -->
<g id="node16" class="node">
<title>Node15</title>
<polygon fill="none" stroke="#bfbfbf" points="550,-.5 550,-19.5 594,-19.5 594,-.5 550,-.5"/>
<text text-anchor="middle" x="572" y="-7.5" font-family="FreeSans.ttf" font-size="10.00" fill="#000000">limits</text>
</g>
<!-- Node10&#45;&gt;Node15 -->
<g id="edge16" class="edge">
<title>Node10&#45;&gt;Node15</title>
<path fill="none" stroke="#191970" d="M432.0521,-56.3733C462.1981,-46.3841 509.2012,-30.8091 540.2938,-20.5062"/>
<polygon fill="#191970" stroke="#191970" points="541.3966,-23.828 549.7881,-17.3601 539.1948,-17.1833 541.3966,-23.828"/>
</g>
<!-- Node16 -->
<g id="node17" class="node">
<title>Node16</title>
<polygon fill="none" stroke="#bfbfbf" points="102.5,-.5 102.5,-19.5 167.5,-19.5 167.5,-.5 102.5,-.5"/>
<text text-anchor="middle" x="135" y="-7.5" font-family="FreeSans.ttf" font-size="10.00" fill="#000000">stdexcept</text>
</g>
<!-- Node10&#45;&gt;Node16 -->
<g id="edge17" class="edge">
<title>Node10&#45;&gt;Node16</title>
<path fill="none" stroke="#191970" d="M352.8384,-56.4224C309.0111,-47.9218 243.4249,-34.883 177.7574,-20.3368"/>
<polygon fill="#191970" stroke="#191970" points="178.1684,-16.8426 167.6466,-18.0851 176.6467,-23.6752 178.1684,-16.8426"/>
</g>
<!-- Node17 -->
<g id="node18" class="node">
<title>Node17</title>
<polygon fill="none" stroke="#bfbfbf" points="185.5,-.5 185.5,-19.5 254.5,-19.5 254.5,-.5 185.5,-.5"/>
<text text-anchor="middle" x="220" y="-7.5" font-family="FreeSans.ttf" font-size="10.00" fill="#000000">type_traits</text>
</g>
<!-- Node10&#45;&gt;Node17 -->
<g id="edge18" class="edge">
<title>Node10&#45;&gt;Node17</title>
<path fill="none" stroke="#191970" d="M371.5412,-56.3733C340.9793,-47.021 294.4174,-32.7725 260.9739,-22.5385"/>
<polygon fill="#191970" stroke="#191970" points="261.6348,-19.0806 251.0483,-19.5011 259.5864,-25.7742 261.6348,-19.0806"/>
</g>
<!-- Node18 -->
<g id="node19" class="node">
<title>Node18</title>
<polygon fill="none" stroke="#bfbfbf" points="272.5,-.5 272.5,-19.5 317.5,-19.5 317.5,-.5 272.5,-.5"/>
<text text-anchor="middle" x="295" y="-7.5" font-family="FreeSans.ttf" font-size="10.00" fill="#000000">utility</text>
</g>
<!-- Node10&#45;&gt;Node18 -->
<g id="edge19" class="edge">
<title>Node10&#45;&gt;Node18</title>
<path fill="none" stroke="#191970" d="M384.1878,-56.2455C367.1527,-47.4125 341.8425,-34.2887 322.5319,-24.2758"/>
<polygon fill="#191970" stroke="#191970" points="324.0853,-21.1388 313.5966,-19.6427 320.863,-27.353 324.0853,-21.1388"/>
</g>
<!-- Node22&#45;&gt;Node6 -->
<g id="edge25" class="edge">
<title>Node22&#45;&gt;Node6</title>
<path fill="none" stroke="#191970" d="M696.8835,-168.2455C704.1966,-160.2155 714.7391,-148.6394 723.4467,-139.0781"/>
<polygon fill="#191970" stroke="#191970" points="726.0727,-141.3928 730.2183,-131.6427 720.8972,-136.6795 726.0727,-141.3928"/>
</g>
<!-- Node23&#45;&gt;Node7 -->
<g id="edge46" class="edge">
<title>Node23&#45;&gt;Node7</title>
<path fill="none" stroke="#191970" d="M585.3963,-336.4447C687.5897,-313.9188 930.4247,-254.3656 977,-188 1010.2698,-140.5934 927.6504,-99.4247 875.9338,-79.2384"/>
<polygon fill="#191970" stroke="#191970" points="876.95,-75.8805 866.3589,-75.6009 874.464,-82.4242 876.95,-75.8805"/>
</g>
<!-- Node23&#45;&gt;Node20 -->
<g id="edge49" class="edge">
<title>Node23&#45;&gt;Node20</title>
<path fill="none" stroke="#191970" d="M542.9656,-336.3116C551.2122,-309.4666 575.2429,-231.89 597,-168 602.4838,-151.8969 605.0999,-148.2902 610,-132 614.6166,-116.652 618.8418,-98.9939 621.7896,-85.8067"/>
<polygon fill="#191970" stroke="#191970" points="625.2323,-86.4463 623.9457,-75.9299 618.3933,-84.9533 625.2323,-86.4463"/>
</g>
<!-- Node23&#45;&gt;Node22 -->
<g id="edge47" class="edge">
<title>Node23&#45;&gt;Node22</title>
<path fill="none" stroke="#191970" d="M548.3812,-336.4862C572.3842,-309.2396 641.6468,-230.6172 672.663,-195.4096"/>
<polygon fill="#191970" stroke="#191970" points="675.358,-197.6451 679.3421,-187.8279 670.1055,-193.0179 675.358,-197.6451"/>
</g>
<!-- Node24 -->
<g id="node25" class="node">
<title>Node24</title>
<g id="a_node25"><a xlink:href="Position_8h.html" target="_top" xlink:title="Position.h">
<polygon fill="none" stroke="#000000" points="203.5,-280.5 203.5,-299.5 268.5,-299.5 268.5,-280.5 203.5,-280.5"/>
<text text-anchor="middle" x="236" y="-287.5" font-family="FreeSans.ttf" font-size="10.00" fill="#000000">Position.h</text>
</a>
</g>
</g>
<!-- Node23&#45;&gt;Node24 -->
<g id="edge27" class="edge">
<title>Node23&#45;&gt;Node24</title>
<path fill="none" stroke="#191970" d="M488.086,-336.4369C428.9803,-325.549 333.5282,-307.9657 278.6041,-297.8481"/>
<polygon fill="#191970" stroke="#191970" points="278.9789,-294.3583 268.5102,-295.9887 277.7107,-301.2425 278.9789,-294.3583"/>
</g>
<!-- Node26 -->
<g id="node27" class="node">
<title>Node26</title>
<g id="a_node27"><a xlink:href="Rotation_8h.html" target="_top" xlink:title="iDynTree/Core/Rotation.h">
<polygon fill="none" stroke="#000000" points="326.5,-224.5 326.5,-243.5 463.5,-243.5 463.5,-224.5 326.5,-224.5"/>
<text text-anchor="middle" x="395" y="-231.5" font-family="FreeSans.ttf" font-size="10.00" fill="#000000">iDynTree/Core/Rotation.h</text>
</a>
</g>
</g>
<!-- Node23&#45;&gt;Node26 -->
<g id="edge45" class="edge">
<title>Node23&#45;&gt;Node26</title>
<path fill="none" stroke="#191970" d="M527.6374,-336.4509C502.704,-317.1921 446.1667,-273.5218 415.5764,-249.8935"/>
<polygon fill="#191970" stroke="#191970" points="417.3849,-246.8679 407.3313,-243.5249 413.1059,-252.4078 417.3849,-246.8679"/>
</g>
<!-- Node29 -->
<g id="node30" class="node">
<title>Node29</title>
<polygon fill="none" stroke="#bfbfbf" points="482,-56.5 482,-75.5 542,-75.5 542,-56.5 482,-56.5"/>
<text text-anchor="middle" x="512" y="-63.5" font-family="FreeSans.ttf" font-size="10.00" fill="#000000">iostream</text>
</g>
<!-- Node23&#45;&gt;Node29 -->
<g id="edge48" class="edge">
<title>Node23&#45;&gt;Node29</title>
<path fill="none" stroke="#191970" d="M537.0158,-336.3945C525.6604,-299.8807 485.6498,-171.577 483,-168 466.268,-145.4132 444.0456,-156.8985 431,-132 418.8158,-108.7457 446.2962,-90.6904 472.4875,-79.388"/>
<polygon fill="#191970" stroke="#191970" points="474.0492,-82.5317 482.0028,-75.5323 471.4203,-76.0441 474.0492,-82.5317"/>
</g>
<!-- Node24&#45;&gt;Node19 -->
<g id="edge44" class="edge">
<title>Node24&#45;&gt;Node19</title>
<path fill="none" stroke="#191970" d="M216.4815,-280.4912C164.8314,-254.105 32.0609,-177.5924 85,-112 107.331,-84.3315 211.7029,-72.4945 265.5989,-68.1572"/>
<polygon fill="#191970" stroke="#191970" points="265.9619,-71.6397 275.6659,-67.3873 265.4281,-64.6601 265.9619,-71.6397"/>
</g>
<!-- Node25 -->
<g id="node26" class="node">
<title>Node25</title>
<g id="a_node26"><a xlink:href="PositionRaw_8h.html" target="_top" xlink:title="iDynTree/Core/PositionRaw.h">
<polygon fill="none" stroke="#000000" points="104,-168.5 104,-187.5 260,-187.5 260,-168.5 104,-168.5"/>
<text text-anchor="middle" x="182" y="-175.5" font-family="FreeSans.ttf" font-size="10.00" fill="#000000">iDynTree/Core/PositionRaw.h</text>
</a>
</g>
</g>
<!-- Node24&#45;&gt;Node25 -->
<g id="edge28" class="edge">
<title>Node24&#45;&gt;Node25</title>
<path fill="none" stroke="#191970" d="M231.396,-280.4509C222.4691,-261.936 202.6642,-220.8591 191.0251,-196.7187"/>
<polygon fill="#191970" stroke="#191970" points="194.0881,-195.0125 186.5924,-187.5249 187.7827,-198.0527 194.0881,-195.0125"/>
</g>
<!-- Node24&#45;&gt;Node26 -->
<g id="edge31" class="edge">
<title>Node24&#45;&gt;Node26</title>
<path fill="none" stroke="#191970" d="M263.3331,-280.3733C289.5434,-271.1419 329.2984,-257.1402 358.2668,-246.9375"/>
<polygon fill="#191970" stroke="#191970" points="359.7542,-250.1244 368.0236,-243.5011 357.4288,-243.5219 359.7542,-250.1244"/>
</g>
<!-- Node25&#45;&gt;Node6 -->
<g id="edge29" class="edge">
<title>Node25&#45;&gt;Node6</title>
<path fill="none" stroke="#191970" d="M260.035,-170.1545C361.9863,-159.9044 540.1828,-141.9888 648.1129,-131.1377"/>
<polygon fill="#191970" stroke="#191970" points="648.7338,-134.593 658.3335,-130.1101 648.0335,-127.6281 648.7338,-134.593"/>
</g>
<!-- Node25&#45;&gt;Node19 -->
<g id="edge30" class="edge">
<title>Node25&#45;&gt;Node19</title>
<path fill="none" stroke="#191970" d="M149.6773,-168.444C117.081,-157.1599 74.2021,-136.7592 94,-112 115.1591,-85.5385 213.8997,-73.2106 265.8504,-68.473"/>
<polygon fill="#191970" stroke="#191970" points="266.222,-71.9539 275.8807,-67.5997 265.6148,-64.9803 266.222,-71.9539"/>
</g>
<!-- Node26&#45;&gt;Node6 -->
<g id="edge43" class="edge">
<title>Node26&#45;&gt;Node6</title>
<path fill="none" stroke="#191970" d="M424.0951,-224.4682C463.342,-211.6164 535.4278,-188.0317 597,-168 631.7188,-156.7047 671.2319,-143.9095 699.7467,-134.6865"/>
<polygon fill="#191970" stroke="#191970" points="700.9103,-137.9887 709.3482,-131.5815 698.7564,-131.3284 700.9103,-137.9887"/>
</g>
<!-- Node26&#45;&gt;Node19 -->
<g id="edge32" class="edge">
<title>Node26&#45;&gt;Node19</title>
<path fill="none" stroke="#191970" d="M358.75,-224.3385C340.0925,-217.3978 318.8343,-206.0085 307,-188 286.5782,-156.9237 289.8812,-111.2872 294.0089,-85.544"/>
<polygon fill="#191970" stroke="#191970" points="297.4836,-85.9977 295.8214,-75.534 290.5956,-84.7504 297.4836,-85.9977"/>
</g>
<!-- Node26&#45;&gt;Node22 -->
<g id="edge33" class="edge">
<title>Node26&#45;&gt;Node22</title>
<path fill="none" stroke="#191970" d="M445.0356,-224.4369C495.707,-214.7522 574.0948,-199.7703 628.0559,-189.4569"/>
<polygon fill="#191970" stroke="#191970" points="629.0057,-192.8388 638.1708,-187.5237 627.6915,-185.9633 629.0057,-192.8388"/>
</g>
<!-- Node27 -->
<g id="node28" class="node">
<title>Node27</title>
<g id="a_node28"><a xlink:href="RotationRaw_8h.html" target="_top" xlink:title="iDynTree/Core/RotationRaw.h">
<polygon fill="none" stroke="#000000" points="316,-168.5 316,-187.5 474,-187.5 474,-168.5 316,-168.5"/>
<text text-anchor="middle" x="395" y="-175.5" font-family="FreeSans.ttf" font-size="10.00" fill="#000000">iDynTree/Core/RotationRaw.h</text>
</a>
</g>
</g>
<!-- Node26&#45;&gt;Node27 -->
<g id="edge34" class="edge">
<title>Node26&#45;&gt;Node27</title>
<path fill="none" stroke="#191970" d="M395,-224.2455C395,-216.9382 395,-206.6944 395,-197.7046"/>
<polygon fill="#191970" stroke="#191970" points="398.5001,-197.6426 395,-187.6427 391.5001,-197.6427 398.5001,-197.6426"/>
</g>
<!-- Node27&#45;&gt;Node19 -->
<g id="edge42" class="edge">
<title>Node27&#45;&gt;Node19</title>
<path fill="none" stroke="#191970" d="M386.7298,-168.4509C370.3366,-149.5227 333.5211,-107.014 312.834,-83.1279"/>
<polygon fill="#191970" stroke="#191970" points="315.4417,-80.7927 306.2492,-75.5249 310.1503,-85.3754 315.4417,-80.7927"/>
</g>
<!-- Node28 -->
<g id="node29" class="node">
<title>Node28</title>
<g id="a_node29"><a xlink:href="MatrixFixSize_8h.html" target="_top" xlink:title="iDynTree/Core/MatrixFixSize.h">
<polygon fill="none" stroke="#000000" points="440.5,-112.5 440.5,-131.5 601.5,-131.5 601.5,-112.5 440.5,-112.5"/>
<text text-anchor="middle" x="521" y="-119.5" font-family="FreeSans.ttf" font-size="10.00" fill="#000000">iDynTree/Core/MatrixFixSize.h</text>
</a>
</g>
</g>
<!-- Node27&#45;&gt;Node28 -->
<g id="edge35" class="edge">
<title>Node27&#45;&gt;Node28</title>
<path fill="none" stroke="#191970" d="M416.6602,-168.3733C436.9772,-159.3435 467.564,-145.7494 490.375,-135.6111"/>
<polygon fill="#191970" stroke="#191970" points="491.9059,-138.7609 499.6225,-131.5011 489.0628,-132.3642 491.9059,-138.7609"/>
</g>
<!-- Node28&#45;&gt;Node7 -->
<g id="edge36" class="edge">
<title>Node28&#45;&gt;Node7</title>
<path fill="none" stroke="#191970" d="M575.1341,-112.4369C630.298,-102.6918 715.8237,-87.5832 774.2351,-77.2645"/>
<polygon fill="#191970" stroke="#191970" points="774.8506,-80.71 784.0892,-75.5237 773.6328,-73.8167 774.8506,-80.71"/>
</g>
<!-- Node28&#45;&gt;Node11 -->
<g id="edge37" class="edge">
<title>Node28&#45;&gt;Node11</title>
<path fill="none" stroke="#191970" d="M531.0873,-112.1072C544.3204,-99.1529 568.2931,-75.7659 589,-56 599.1836,-46.2792 610.6526,-35.5032 619.9331,-26.826"/>
<polygon fill="#191970" stroke="#191970" points="622.5164,-29.2025 627.4381,-19.8202 617.7397,-24.0855 622.5164,-29.2025"/>
</g>
<!-- Node28&#45;&gt;Node19 -->
<g id="edge39" class="edge">
<title>Node28&#45;&gt;Node19</title>
<path fill="none" stroke="#191970" d="M480.1785,-112.4884C442.0199,-103.4846 383.5061,-89.3888 333,-76 331.9615,-75.7247 330.9067,-75.4419 329.8421,-75.1537"/>
<polygon fill="#191970" stroke="#191970" points="330.7545,-71.7747 320.1829,-72.4766 328.8848,-78.5204 330.7545,-71.7747"/>
</g>
<!-- Node28&#45;&gt;Node20 -->
<g id="edge41" class="edge">
<title>Node28&#45;&gt;Node20</title>
<path fill="none" stroke="#191970" d="M539.2896,-112.2455C555.7762,-103.4527 580.2352,-90.4079 598.9765,-80.4125"/>
<polygon fill="#191970" stroke="#191970" points="600.7435,-83.4368 607.92,-75.6427 597.4494,-77.2604 600.7435,-83.4368"/>
</g>
<!-- Node28&#45;&gt;Node21 -->
<g id="edge38" class="edge">
<title>Node28&#45;&gt;Node21</title>
<path fill="none" stroke="#191970" d="M551.2555,-112.3733C582.0293,-102.5816 629.671,-87.4229 662.0404,-77.1235"/>
<polygon fill="#191970" stroke="#191970" points="663.5046,-80.3306 671.9726,-73.9633 661.3821,-73.6601 663.5046,-80.3306"/>
</g>
<!-- Node28&#45;&gt;Node29 -->
<g id="edge40" class="edge">
<title>Node28&#45;&gt;Node29</title>
<path fill="none" stroke="#191970" d="M519.4323,-112.2455C518.2579,-104.9382 516.6116,-94.6944 515.1668,-85.7046"/>
<polygon fill="#191970" stroke="#191970" points="518.5922,-84.9606 513.5497,-75.6427 511.6809,-86.0714 518.5922,-84.9606"/>
</g>
<!-- Node30&#45;&gt;Node6 -->
<g id="edge52" class="edge">
<title>Node30&#45;&gt;Node6</title>
<path fill="none" stroke="#191970" d="M869.8388,-168.3733C843.7933,-159.1419 804.2884,-145.1402 775.5021,-134.9375"/>
<polygon fill="#191970" stroke="#191970" points="776.4015,-131.5429 765.8067,-131.5011 774.063,-138.1408 776.4015,-131.5429"/>
</g>
<!-- Node30&#45;&gt;Node7 -->
<g id="edge53" class="edge">
<title>Node30&#45;&gt;Node7</title>
<path fill="none" stroke="#191970" d="M891.9697,-168.4509C882.1727,-149.8533 860.3841,-108.4919 847.691,-84.3964"/>
<polygon fill="#191970" stroke="#191970" points="850.775,-82.7411 843.0176,-75.5249 844.5817,-86.0036 850.775,-82.7411"/>
</g>
<!-- Node30&#45;&gt;Node19 -->
<g id="edge51" class="edge">
<title>Node30&#45;&gt;Node19</title>
<path fill="none" stroke="#191970" d="M826.2308,-171.6893C700.5309,-160.3856 449.6805,-137.3619 431,-132 390.3974,-120.3459 347.2771,-96.5671 321.5005,-80.962"/>
<polygon fill="#191970" stroke="#191970" points="323.1756,-77.8833 312.8253,-75.6203 319.5053,-83.8439 323.1756,-77.8833"/>
</g>
<!-- Node31&#45;&gt;Node19 -->
<g id="edge58" class="edge">
<title>Node31&#45;&gt;Node19</title>
<path fill="none" stroke="#191970" d="M204.1268,-336.3478C182.1961,-328.7176 153.1435,-316.5811 131,-300 60.7934,-247.4293 15.4805,-179.8986 71,-112 95.2114,-82.3902 208.7951,-71.3852 265.5517,-67.6851"/>
<polygon fill="#191970" stroke="#191970" points="266.0113,-71.1636 275.7782,-67.0578 265.5826,-64.1768 266.0113,-71.1636"/>
</g>
<!-- Node31&#45;&gt;Node24 -->
<g id="edge55" class="edge">
<title>Node31&#45;&gt;Node24</title>
<path fill="none" stroke="#191970" d="M236,-336.2455C236,-328.9382 236,-318.6944 236,-309.7046"/>
<polygon fill="#191970" stroke="#191970" points="239.5001,-309.6426 236,-299.6427 232.5001,-309.6427 239.5001,-309.6426"/>
</g>
<!-- Node31&#45;&gt;Node26 -->
<g id="edge56" class="edge">
<title>Node31&#45;&gt;Node26</title>
<path fill="none" stroke="#191970" d="M249.5563,-336.4509C277.1316,-317.0268 339.96,-272.7703 373.2944,-249.2895"/>
<polygon fill="#191970" stroke="#191970" points="375.3182,-252.1451 381.4781,-243.5249 371.2871,-246.4223 375.3182,-252.1451"/>
</g>
<!-- Node31&#45;&gt;Node28 -->
<g id="edge57" class="edge">
<title>Node31&#45;&gt;Node28</title>
<path fill="none" stroke="#191970" d="M217.9209,-336.4033C168.767,-309.1526 39.9541,-229.3098 95,-168 116.9717,-143.5281 311.8784,-130.9151 430.3068,-125.4549"/>
<polygon fill="#191970" stroke="#191970" points="430.6291,-128.944 440.4607,-124.9956 430.3128,-121.9511 430.6291,-128.944"/>
</g>
<!-- Node32&#45;&gt;Node10 -->
<g id="edge60" class="edge">
<title>Node32&#45;&gt;Node10</title>
<path fill="none" stroke="#191970" d="M224.1317,-112.3733C260.8267,-102.8598 317.0639,-88.2797 356.6651,-78.0127"/>
<polygon fill="#191970" stroke="#191970" points="357.5512,-81.3988 366.3528,-75.5011 355.7944,-74.6228 357.5512,-81.3988"/>
</g>
<!-- Node32&#45;&gt;Node19 -->
<g id="edge61" class="edge">
<title>Node32&#45;&gt;Node19</title>
<path fill="none" stroke="#191970" d="M206.0816,-112.3733C223.7402,-103.4644 250.2053,-90.1127 270.2098,-80.0203"/>
<polygon fill="#191970" stroke="#191970" points="271.8158,-83.1303 279.1674,-75.5011 268.6628,-76.8806 271.8158,-83.1303"/>
</g>
</g>
</svg>
